<?xml version="1.0" encoding="UTF-8"?> <!-- Generator: Adobe Illustrator 25.4.1, SVG Export Plug-In . SVG Version: 6.00 Build 0) --> <svg xmlns="http://www.w3.org/2000/svg" xmlns:xlink="http://www.w3.org/1999/xlink" version="1.1" id="Layer_1" x="0px" y="0px" viewBox="0 0 800 233.03" style="enable-background:new 0 0 800 233.03;" xml:space="preserve"> <style type="text/css"> .st0{fill-rule:evenodd;clip-rule:evenodd;fill:url(#SVGID_1_);} .st1{fill-rule:evenodd;clip-rule:evenodd;fill:url(#SVGID_00000080204906654314911290000010301016545140322215_);} .st2{fill-rule:evenodd;clip-rule:evenodd;fill:url(#SVGID_00000168799854313667077090000016026884718737554623_);} .st3{fill-rule:evenodd;clip-rule:evenodd;fill:url(#SVGID_00000179644884986592798000000006415071294590343328_);} .st4{fill-rule:evenodd;clip-rule:evenodd;fill:url(#SVGID_00000157992095862864548470000013128443764423641240_);} .st5{fill-rule:evenodd;clip-rule:evenodd;fill:url(#SVGID_00000160181047407959214220000009663620841126122916_);} .st6{fill-rule:evenodd;clip-rule:evenodd;fill:#EF7C00;} .st7{fill-rule:evenodd;clip-rule:evenodd;fill:#252626;} </style> <g> <linearGradient id="SVGID_1_" gradientUnits="userSpaceOnUse" x1="155.1297" y1="51.4722" x2="182.7474" y2="165.1829"> <stop offset="0" style="stop-color:#2C378D"></stop> <stop offset="1" style="stop-color:#00AEE7"></stop> </linearGradient> <path class="st0" d="M243.74,152.7c0.05,0,0.07,0,0.07,0S243.79,152.7,243.74,152.7L243.74,152.7z M95.61,70.36 c0,0,8.01-6.59,25.01-6.59c6.3,0,13.83,0.9,22.64,3.38c0,0,25.91,50.86,52.28,68.73c25.49,17.27,46.8,16.87,48.2,16.83 c-2.28,0.09-57.38,2.15-75.96,0.13c-18.97-2.06-25.91-11.23-40.71-33.91C112.27,96.25,95.61,70.36,95.61,70.36L95.61,70.36z"></path> <linearGradient id="SVGID_00000113349206667702097020000000975995333106664855_" gradientUnits="userSpaceOnUse" x1="41.6088" y1="85.5447" x2="99.3283" y2="62.0283"> <stop offset="0" style="stop-color:#322D87"></stop> <stop offset="1" style="stop-color:#00AEE7"></stop> </linearGradient> <path style="fill-rule:evenodd;clip-rule:evenodd;fill:url(#SVGID_00000113349206667702097020000000975995333106664855_);" d=" M0,152.58c0,0,12.42,4.16,36.08-3.21c23.65-7.36,34.3-28.73,42.1-50.86c7.8-22.13,19.97-33.32,36.09-33.91 c16.12-0.59,29.15,2.75,29.15,2.75L99.93,0L0,152.58z"></path> <linearGradient id="SVGID_00000041992620485749823370000013625436569267619469_" gradientUnits="userSpaceOnUse" x1="255.3619" y1="41.5633" x2="181.3393" y2="66.3549"> <stop offset="0" style="stop-color:#2C378D"></stop> <stop offset="1" style="stop-color:#00AEE7"></stop> </linearGradient> <path style="fill-rule:evenodd;clip-rule:evenodd;fill:url(#SVGID_00000041992620485749823370000013625436569267619469_);" d=" M296.43,0h1.02c1.77,0,2.76,0.01,2.76,0.01s0.44,13.48-10.11,23.48c-10.55,10-18.23,11.09-29.88,11.74 c-2.81,0.16-6.37-0.05-10.49-0.26c-12.91-0.66-31.28-1.32-49.27,9.4c-23.73,14.13-29.22,24.35-32.95,37.83 c-3.73,13.48,1.2,29.88,4.72,37.27c0,0-13.51-12.92-16.14-35.1c-2.64-22.18,4.39-51.96,43.5-73.06c0,0,10.54-6.74,30.76-9.13 C247.19,0.19,284.47,0.01,296.43,0z"></path> <linearGradient id="SVGID_00000021103057993579489340000011264094343950845830_" gradientUnits="userSpaceOnUse" x1="198.7729" y1="78.1229" x2="268.1735" y2="122.7599"> <stop offset="0" style="stop-color:#2C378D"></stop> <stop offset="1" style="stop-color:#00AEE7"></stop> </linearGradient> <path style="fill-rule:evenodd;clip-rule:evenodd;fill:url(#SVGID_00000021103057993579489340000011264094343950845830_);" d=" M180.82,53.3c-23.04,20.56-20.45,61.28,3.95,81.32c24.98,20.51,60.2,21.74,86.56,16.53c26.36-5.22,28.12-32.62,28.12-32.62 s-31.64,0.44-57.56,0c-25.92-0.43-45.26-14.35-45.26-47.83c0-33.48,37.5-35.92,37.5-35.92c-0.98-0.11-2.22-0.17-3.7-0.17 C219.96,34.6,198.04,37.93,180.82,53.3z"></path> <linearGradient id="SVGID_00000085957723094575783650000016148850450124756105_" gradientUnits="userSpaceOnUse" x1="313.0396" y1="85.5736" x2="313.0396" y2="38.251"> <stop offset="0" style="stop-color:#2C378D"></stop> <stop offset="1" style="stop-color:#00AEE7"></stop> </linearGradient> <path style="fill-rule:evenodd;clip-rule:evenodd;fill:url(#SVGID_00000085957723094575783650000016148850450124756105_);" d=" M296.19,21.1c-3.17,9.42-7.27,30.97,4.07,62.37c10.86,30.06,33.03,37.69,33.03,37.69L332.84,0.01c-0.34-0.01-0.67-0.01-1-0.01 C313.75,0,299.3,11.85,296.19,21.1z"></path> <linearGradient id="SVGID_00000079476551672165218540000015855877117531388545_" gradientUnits="userSpaceOnUse" x1="396.126" y1="101.4676" x2="319.414" y2="101.4676"> <stop offset="0" style="stop-color:#2C378D"></stop> <stop offset="1" style="stop-color:#00AEE7"></stop> </linearGradient> <path style="fill-rule:evenodd;clip-rule:evenodd;fill:url(#SVGID_00000079476551672165218540000015855877117531388545_);" d=" M292.79,153.75h99.53c38,0,39.36-32.79,39.36-32.79s-58.8,0.44-83.7,0c-17.88-0.32-33.48-7.63-43.43-29.16 c-9.95-21.54-11.76-42.61-11.76-42.61V153.75z"></path> <g> <path class="st6" d="M519.47,115.56c0,23.26-15.98,38.36-40.56,38.36h-26.9V76.98h26.9C503.49,76.98,519.47,92.19,519.47,115.56 L519.47,115.56z M478.35,140.8L478.35,140.8c16.2,0,25.35-9.26,25.35-25.24c0-15.98-9.15-25.57-25.35-25.57h-10.91v50.82H478.35z"></path> <path class="st6" d="M529.39,76.54c0-5.07,3.97-9.04,9.48-9.04c5.4,0,9.48,3.97,9.48,9.04c0,5.07-4.08,9.04-9.48,9.04 C533.36,85.58,529.39,81.61,529.39,76.54L529.39,76.54z M531.04,92.85L531.04,92.85h15.43v61.07h-15.43V92.85z"></path> <path class="st6" d="M585.61,91.86c9.59,0,16.53,4.41,20.17,9.7v-8.71h15.54v61.51c0,16.53-10.14,29.65-30.2,29.65 c-17.19,0-29.21-8.6-30.75-22.6h15.32c1.54,5.51,7.27,9.15,14.99,9.15c8.49,0,15.1-4.85,15.1-16.2v-9.48 c-3.64,5.29-10.58,10.03-20.17,10.03c-15.54,0-27.89-12.68-27.89-31.75C557.72,104.1,570.06,91.86,585.61,91.86L585.61,91.86z M589.58,105.42L589.58,105.42c-8.27,0-16.09,6.17-16.09,17.75c0,11.58,7.83,18.19,16.09,18.19c8.49,0,16.2-6.39,16.2-17.97 C605.78,111.81,598.06,105.42,589.58,105.42z"></path> <path class="st6" d="M634.77,76.54c0-5.07,3.97-9.04,9.48-9.04c5.4,0,9.48,3.97,9.48,9.04c0,5.07-4.08,9.04-9.48,9.04 C638.74,85.58,634.77,81.61,634.77,76.54L634.77,76.54z M636.42,92.85L636.42,92.85h15.43v61.07h-15.43V92.85z"></path> <path class="st6" d="M669.49,105.53h-7.27V92.85h7.27v-15.1h15.54v15.1h13.67v12.68h-13.67v29.54c0,4.08,1.65,5.84,6.5,5.84h7.16 v13.01H689c-11.68,0-19.51-4.96-19.51-18.96V105.53z"></path> <path class="st6" d="M733.75,91.86c9.81,0,16.54,4.63,20.17,9.7v-8.71h15.54v61.07h-15.54v-8.93c-3.64,5.29-10.58,9.92-20.28,9.92 c-15.43,0-27.78-12.68-27.78-31.75C705.87,104.1,718.21,91.86,733.75,91.86L733.75,91.86z M737.72,105.42L737.72,105.42 c-8.27,0-16.09,6.17-16.09,17.75c0,11.58,7.83,18.19,16.09,18.19c8.49,0,16.2-6.39,16.2-17.97 C753.92,111.81,746.21,105.42,737.72,105.42z"></path> <rect x="784.57" y="72.35" class="st6" width="15.43" height="81.57"></rect> </g> <path class="st7" d="M303.27,200.17c4.05,0,6.83,2.07,8.11,4.33v-3.97h3.66v21.77h-3.66v-4.05c-1.31,2.34-4.13,4.41-8.14,4.41 c-5.8,0-10.29-4.57-10.29-11.32C292.94,204.54,297.43,200.17,303.27,200.17L303.27,200.17z M303.99,203.31L303.99,203.31 c-3.97,0-7.35,2.9-7.35,8.02c0,5.13,3.38,8.15,7.35,8.15c3.97,0,7.39-2.98,7.39-8.1C311.38,206.33,307.96,203.31,303.99,203.31z"></path> <path class="st7" d="M337.09,209.99c0-4.45-2.42-6.72-6.08-6.72c-3.7,0-6.24,2.31-6.24,6.99v12.04h-3.62v-21.77h3.62v3.1 c1.43-2.26,4.05-3.5,6.99-3.5c5.05,0,8.9,3.1,8.9,9.34v12.83h-3.58V209.99z"></path> <path class="st7" d="M373.57,216.14h-12.08l-2.22,6.16h-3.81l10.01-27.53h4.17l9.97,27.53h-3.81L373.57,216.14L373.57,216.14z M367.53,199.22L367.53,199.22l-5.01,13.98h10.01L367.53,199.22z"></path> <polygon class="st7" points="387.6,194.61 387.6,219.36 397.29,219.36 397.29,222.3 383.98,222.3 383.98,194.61 "></polygon> <polygon class="st7" points="399.44,194.61 418.2,194.61 418.2,197.55 410.65,197.55 410.65,222.3 407.03,222.3 407.03,197.55 399.44,197.55 "></polygon> <polygon class="st7" points="437.55,197.55 426.26,197.55 426.26,206.81 436.36,206.81 436.36,209.79 426.26,209.79 426.26,219.32 437.55,219.32 437.55,222.3 422.65,222.3 422.65,194.57 437.55,194.57 "></polygon> <polygon class="st7" points="464.81,194.57 464.81,222.3 461.19,222.3 446.65,200.25 446.65,222.3 443.04,222.3 443.04,194.57 446.65,194.57 461.19,216.58 461.19,194.57 "></polygon> <path class="st7" d="M490.56,200.17c3.97,0,6.83,1.99,8.11,4.33v-3.97h3.65v22.25c0,6-4.01,10.25-10.41,10.25 c-5.72,0-9.81-2.9-10.53-7.55h3.58c0.79,2.62,3.38,4.41,6.95,4.41c3.85,0,6.75-2.46,6.75-7.11v-4.57 c-1.31,2.34-4.13,4.45-8.11,4.45c-5.84,0-10.33-4.57-10.33-11.32C480.23,204.54,484.72,200.17,490.56,200.17L490.56,200.17z M491.27,203.31L491.27,203.31c-3.97,0-7.35,2.9-7.35,8.02c0,5.13,3.38,8.15,7.35,8.15c3.97,0,7.39-2.98,7.39-8.1 C498.67,206.33,495.25,203.31,491.27,203.31z"></path> <path class="st7" d="M512.06,222.3h-3.61v-21.77h3.61v3.54c1.23-2.42,3.58-3.93,7.03-3.93v3.74h-0.95c-3.46,0-6.08,1.55-6.08,6.6 V222.3z"></path> <path class="st7" d="M532.76,222.66c-6.16,0-10.85-4.37-10.85-11.28c0-6.88,4.85-11.21,11.01-11.21c6.2,0,11.01,4.33,11.01,11.21 C543.93,218.29,538.96,222.66,532.76,222.66L532.76,222.66z M532.76,219.48L532.76,219.48c3.77,0,7.47-2.58,7.47-8.1 c0-5.48-3.62-8.07-7.35-8.07c-3.81,0-7.27,2.58-7.27,8.07C525.61,216.9,528.99,219.48,532.76,219.48z"></path> <path class="st7" d="M568.01,222.3h-3.61v-3.22c-1.39,2.27-4.05,3.54-6.95,3.54c-5.01,0-8.94-3.1-8.94-9.34v-12.75h3.58v12.28 c0,4.41,2.42,6.67,6.08,6.67c3.73,0,6.24-2.3,6.24-6.99v-11.96h3.61V222.3z"></path> <path class="st7" d="M585.89,200.17c5.84,0,10.33,4.37,10.33,11.16c0,6.76-4.49,11.32-10.33,11.32c-3.97,0-6.79-2.15-8.15-4.37 v14.34h-3.61v-32.1h3.61v4.01C579.06,202.24,581.92,200.17,585.89,200.17L585.89,200.17z M585.14,203.31L585.14,203.31 c-3.93,0-7.39,3.02-7.39,8.07c0,5.12,3.46,8.1,7.39,8.1c4.01,0,7.39-3.02,7.39-8.15C592.53,206.21,589.15,203.31,585.14,203.31z"></path> <path class="st7" d="M620.86,200.17c5.4,0,8.94,2.78,10.05,7.35h-3.89c-0.76-2.62-2.94-4.29-6.16-4.29c-3.97,0-6.91,2.82-6.91,8.15 c0,5.4,2.94,8.22,6.91,8.22c3.22,0,5.36-1.55,6.16-4.29h3.89c-1.11,4.33-4.65,7.35-10.05,7.35c-6.2,0-10.61-4.37-10.61-11.28 C610.25,204.54,614.66,200.17,620.86,200.17z"></path> <path class="st7" d="M645.22,222.66c-6.16,0-10.85-4.37-10.85-11.28c0-6.88,4.85-11.21,11-11.21c6.2,0,11.01,4.33,11.01,11.21 C656.39,218.29,651.42,222.66,645.22,222.66L645.22,222.66z M645.22,219.48L645.22,219.48c3.77,0,7.47-2.58,7.47-8.1 c0-5.48-3.62-8.07-7.35-8.07c-3.81,0-7.27,2.58-7.27,8.07C638.07,216.9,641.45,219.48,645.22,219.48z"></path> <path class="st7" d="M692.59,209.99c0-4.45-2.38-6.72-5.96-6.72c-3.65,0-6.16,2.34-6.16,7.03v12h-3.57v-12.32 c0-4.45-2.38-6.72-5.96-6.72c-3.65,0-6.16,2.34-6.16,7.03v12h-3.61v-21.77h3.61v3.14c1.43-2.3,4.01-3.54,6.87-3.54 c3.58,0,6.56,1.59,7.99,4.85c1.27-3.14,4.37-4.85,7.71-4.85c4.97,0,8.82,3.1,8.82,9.34v12.83h-3.58V209.99z"></path> <path class="st7" d="M713.85,200.17c5.84,0,10.33,4.37,10.33,11.16c0,6.76-4.49,11.32-10.33,11.32c-3.97,0-6.79-2.15-8.15-4.37 v14.34h-3.61v-32.1h3.61v4.01C707.02,202.24,709.88,200.17,713.85,200.17L713.85,200.17z M713.1,203.31L713.1,203.31 c-3.93,0-7.39,3.02-7.39,8.07c0,5.12,3.46,8.1,7.39,8.1c4.01,0,7.39-3.02,7.39-8.15C720.48,206.21,717.11,203.31,713.1,203.31z"></path> <path class="st7" d="M737.93,200.17c4.05,0,6.83,2.07,8.11,4.33v-3.97h3.65v21.77h-3.65v-4.05c-1.31,2.34-4.13,4.41-8.15,4.41 c-5.8,0-10.29-4.57-10.29-11.32C727.6,204.54,732.09,200.17,737.93,200.17L737.93,200.17z M738.65,203.31L738.65,203.31 c-3.97,0-7.35,2.9-7.35,8.02c0,5.13,3.38,8.15,7.35,8.15c3.97,0,7.39-2.98,7.39-8.1C746.04,206.33,742.62,203.31,738.65,203.31z"></path> <path class="st7" d="M771.75,209.99c0-4.45-2.42-6.72-6.08-6.72c-3.7,0-6.24,2.31-6.24,6.99v12.04h-3.62v-21.77h3.62v3.1 c1.43-2.26,4.05-3.5,6.99-3.5c5.05,0,8.9,3.1,8.9,9.34v12.83h-3.58V209.99z"></path> <polygon class="st7" points="796.27,200.53 800,200.53 786.89,232.55 783.15,232.55 787.45,222.06 778.66,200.53 782.68,200.53 789.51,218.17 "></polygon> </g> </svg> 