<?xml version="1.0" encoding="utf-8"?>
<!-- Generator: Adobe Illustrator 29.1.0, SVG Export Plug-In . SVG Version: 9.03 Build 55587)  -->
<svg version="1.0" id="Layer_1" xmlns="http://www.w3.org/2000/svg" xmlns:xlink="http://www.w3.org/1999/xlink" x="0px" y="0px"
	 viewBox="0 0 720 87.8" style="enable-background:new 0 0 720 87.8;" xml:space="preserve">
<style type="text/css">
	.st0{fill:#004751;}
	.st1{fill:#00C18B;}
</style>
<g>
	<g>
		<path class="st0" d="M183.8,25.1l5.2,46.5c0.1,0.9-0.2,1.2-1,1.2h-7.5c-0.6,0-0.7-0.3-0.8-1.2l-1.8-15.7h-20.7l-6.8,15.7
			c-0.4,0.9-0.6,1.2-1.2,1.2h-7.5c-0.8,0-1-0.3-0.7-1.2l20.3-46.5c3.3-7.7,4.8-8.5,12.4-8.5C181.8,16.6,182.8,17.5,183.8,25.1z
			 M169.4,27.5l-8.8,20.5h16.5l-2.3-20.5c-0.3-2.6-0.3-3-2.3-3C170.7,24.5,170.5,24.9,169.4,27.5z"/>
		<path class="st0" d="M211.2,17c0.7,0,1,0.4,0.9,1.1l-2.3,14.3c3.2-0.4,6.5-0.4,8.6-0.4c13.5,0,16.9,2,14.5,17.3l-3.6,22.3
			c-0.1,0.7-0.5,1.1-1.2,1.1h-6.6c-0.7,0-1-0.4-0.9-1.1l3.3-20.7c1.7-10.8,0.1-11.3-6.7-11.3h-8.4l-5.1,32c-0.1,0.7-0.5,1.1-1.2,1.1
			h-6.7c-0.7,0-0.9-0.4-0.9-1.1l8.5-53.6c0.1-0.7,0.5-1.1,1.2-1.1H211.2z"/>
		<path class="st0" d="M273.9,51.9l-0.4,2.2c-0.2,1.4-0.7,2-2.8,2h-23c-1,7.7,0.4,9.5,7.5,9.5h12.4c0.7,0,1,0.4,0.9,1.1l-0.7,4.5
			c-0.1,0.8-0.5,1.1-1.2,1.2c-3.9,0.6-8.4,0.8-13.1,0.8c-14.2,0-16.7-4.1-14.2-20.5c2.6-16.5,6.5-20.6,20.7-20.6
			C273.7,32.1,276.3,36,273.9,51.9z M248.8,49.7h16.7c1.2-7.9-0.1-9.9-6.5-9.9C252.1,39.7,250.2,41.8,248.8,49.7z"/>
		<path class="st0" d="M314.1,44L310,69.4c-0.1,0.9-0.4,1.7-1.7,2.1c-4,1.1-10.5,1.6-16.7,1.6c-10.2,0-15.1-1.6-13.5-12.2
			c1.5-9.3,6.8-11.6,15.7-11.6h10.5l0.6-3.8c0.6-4.1-1.5-5.8-7.3-5.8h-12c-0.8,0-1-0.2-0.9-1.2l0.7-4.4c0.1-0.9,0.4-1,1.2-1.2
			c4.5-0.8,8.4-0.9,12.2-0.9C311.8,32.1,315.3,36.2,314.1,44z M293.4,55.7c-3.9,0-5.8,1.2-6.4,4.9c-0.7,4.2,1.2,5.2,6.5,5.2
			c1.8,0,5.8-0.1,8.4-0.8l1.5-9.3H293.4z"/>
		<path class="st0" d="M359,17c0.8,0,1.1,0.3,0.9,1.1l-8.2,52.2c-0.1,1-0.7,1.4-1.6,1.5c-6.3,1-10.5,1.3-15.8,1.3
			c-14.7,0-17.2-4.2-14.6-20.5c2.5-16.2,6.4-20.6,19.9-20.6c3.8,0,6.8,0.1,9.2,0.4l2.3-14.4c0.1-0.8,0.5-1.1,1.2-1.1H359z
			 M339.8,39.7c-8.1,0-9.5,2.4-11.2,12.9c-1.6,9.9-1.2,12.8,6.9,12.8c2.3,0,5.7-0.2,8.3-0.6l4-25.2H339.8z"/>
		<path class="st0" d="M405.1,17.5c0.8,0.1,1.2,0.6,1.1,1.5l-0.7,4.6c-0.1,0.8-0.5,1.2-1.2,1.2h-14.3c-11.3,0-14,4.5-16.4,20.1
			C371,60.4,372.3,65,383.6,65h14.2c0.7,0,1,0.4,0.9,1.1l-0.7,4.6c-0.1,0.9-0.7,1.5-1.7,1.6c-3.6,0.6-8.5,0.9-14,0.9
			c-18.1,0-21.7-6.5-18.3-28.3c3.4-21.9,9-28.3,27.2-28.3C396.8,16.6,401.5,16.8,405.1,17.5z"/>
		<path class="st0" d="M441.6,52.7c-2.5,16.4-6.4,20.5-20.9,20.5c-14.5,0-17-4.1-14.5-20.5c2.6-16.5,6.5-20.6,21-20.6
			C441.7,32.1,444.2,36.2,441.6,52.7z M415,52.7c-1.7,10.3-0.9,12.8,6.8,12.8c7.8,0,9.2-2.6,10.9-12.8c1.7-10.4,0.9-12.9-6.8-12.9
			C418.2,39.7,416.7,42.3,415,52.7z"/>
		<path class="st0" d="M504.3,48.2l-3.8,23.5c-0.1,0.7-0.5,1.1-1.2,1.1h-6.6c-0.7,0-0.9-0.4-0.9-1.1l3.3-20.7
			c1.7-10.8,0.1-11.3-6.3-11.3c-2.5,0-5.1,0.2-7.3,0.6c0.4,2.2,0.2,5.1-0.4,9.1l-3.6,22.3c-0.1,0.8-0.5,1.1-1.2,1.1h-6.7
			c-0.7,0-1-0.4-0.9-1.1l3.5-22.2c1.5-9.4-0.3-9.8-6.5-9.8h-6.2l-5,32c-0.1,0.7-0.6,1.1-1.3,1.1h-6.6c-0.7,0-0.9-0.4-0.9-1.1
			l5.8-37.3c0.1-0.9,0.5-1,1.2-1.2c4.1-0.8,9.7-1.2,13.2-1.2c5.1,0,9.7,0.9,12.1,2.2c4.1-1.4,9-2.3,12.6-2.3
			C502.9,32,506.6,34.4,504.3,48.2z"/>
		<path class="st0" d="M546.7,52.3c-2.6,16.6-6.5,20.9-20,20.9c-3.3,0-6.1-0.1-9.2-0.4l-2.2,13.5c-0.1,0.8-0.5,1.2-1.2,1.2h-6.6
			c-0.7,0-1-0.4-0.9-1.2l8.1-51.4c0.1-0.9,0.7-1.3,1.5-1.5c6.4-1,10.5-1.3,15.7-1.3C546.7,32.1,549.3,36.3,546.7,52.3z M522.7,39.7
			l-4,25.3c2.5,0.3,5.5,0.4,7.9,0.4c8.1,0,9.6-2.4,11.3-12.8c1.6-10,1.3-12.8-6.8-12.8H522.7z"/>
		<path class="st0" d="M590.4,32.4c0.7,0,1,0.3,0.9,1.1l-5.9,37.2c-0.1,0.9-0.5,1-1.2,1.2c-5.5,1.1-12.1,1.2-16.4,1.2
			c-13.5,0-16.9-2.1-14.5-17.4l3.5-22.3c0.1-0.8,0.7-1.1,1.4-1.1h6.5c0.7,0,1,0.4,0.9,1.1l-3.3,20.7c-1.7,10.8-0.1,11.3,6.8,11.3
			h8.4l5-32c0.1-0.8,0.6-1.1,1.3-1.1H590.4z"/>
		<path class="st0" d="M612.2,21.3c0.9-0.2,1.2,0.2,1,1l-1.6,10.2h7.2c0.8,0,1.1,0.4,1,1.1l-0.8,4.6c-0.1,0.8-0.5,1.2-1.3,1.2h-7.2
			L607,61.6c-0.5,3.2,0.4,3.9,3.9,3.9h3.2c0.8,0,1.2,0.3,1.1,1l-0.7,4.8c-0.2,0.8-0.7,1.2-1.4,1.3c-2,0.4-4.1,0.5-5.2,0.5
			c-5.7,0-11.5-0.1-10.1-8.9l3.9-24.9h-4.1c-0.8,0-1.1-0.4-1-1.2l0.7-4.6c0.1-0.7,0.6-1.1,1.3-1.1h4.2l1.3-8.4
			c0.1-0.7,0.5-1,1.2-1.2L612.2,21.3z"/>
		<path class="st0" d="M634.4,32.4c0.7,0,1,0.4,0.9,1.1l-6,38.2c-0.1,0.7-0.5,1.1-1.2,1.1h-6.6c-0.7,0-1-0.4-0.9-1.1l6-38.2
			c0.1-0.7,0.6-1.1,1.3-1.1H634.4z M638.2,20.9c-0.5,3.2-2.7,5-6,5c-3.4,0-5-1.8-4.5-5c0.5-3.2,2.7-5,6.1-5
			C637.1,15.9,638.7,17.7,638.2,20.9z"/>
		<path class="st0" d="M675.8,49.4l-3.5,22.3c-0.1,0.7-0.7,1.1-1.4,1.1h-6.5c-0.7,0-1-0.4-0.9-1.1l3.3-20.7
			c1.7-10.8,0.1-11.2-6.8-11.2h-8.4l-5,32c-0.1,0.7-0.6,1.1-1.3,1.1h-6.7c-0.7,0-0.9-0.4-0.9-1.1l5.9-37.3c0.1-0.9,0.5-1,1.2-1.2
			c5.5-1.1,12.1-1.2,16.5-1.2C674.7,32.1,678.2,34.1,675.8,49.4z"/>
		<path class="st0" d="M718.8,33.4c0.9,0.1,1.3,0.6,1.2,1.5l-5.6,35.6c-2,12.7-5.2,17.3-20,17.3c-3.6,0-8-0.2-11.9-0.8
			c-0.7-0.1-0.9-0.5-0.8-1.2l0.7-4.3c0.1-0.8,0.4-1.1,1.2-1.1H695c7.3,0,9.3-1.8,10.3-7.5v-0.4c-3.2,0.5-6,0.7-9.4,0.7
			c-13.5,0-16-4.4-13.4-20.9c2.5-16.1,6.5-20.2,21.2-20.2C709.9,32.1,715.3,32.7,718.8,33.4z M702.1,39.7c-8,0-9.3,2.8-10.9,12.8
			c-1.6,10.4-0.9,12.8,7.3,12.8c2.3,0,5.4-0.1,7.9-0.4l4-25.3H702.1z"/>
	</g>
	<g>
		<path class="st0" d="M12.4,72.6H33c0.6,0,1.2-0.3,1.6-0.9l32.8-50.3c0.3-0.4,0.7-0.7,1.1-0.7l20.2-3.6c0.4-0.1,0.7-0.4,0.7-0.8
			V0.8c0-0.5-0.5-0.9-1-0.8L55.9,6.1c-0.9,0.2-1.7,0.7-2.2,1.5l-42,63.8C11.4,71.9,11.8,72.6,12.4,72.6z"/>
		<path class="st0" d="M88.6,62.2H68c-0.5,0-0.8,0.4-0.8,0.8v8.7c0,0.5,0.4,0.8,0.8,0.8h20.6c0.5,0,0.8-0.4,0.8-0.8v-8.7
			C89.4,62.6,89,62.2,88.6,62.2z"/>
		<path class="st1" d="M18.3,48.1L5.1,49.2c-0.9,0.1-1.7,0.6-2.2,1.3l-2.8,4.4c-0.4,0.6,0,1.3,0.7,1.3h12.2c0.9,0,1.8-0.5,2.4-1.3
			l3.7-5.6C19.4,48.8,19,48,18.3,48.1z"/>
		<path class="st1" d="M27.4,34.1l-14.3,2.6c-0.8,0.1-1.5,0.6-1.9,1.3l-2.8,4.3c-0.4,0.6,0.1,1.4,0.8,1.3l13.3-1.2
			c0.9-0.1,1.6-0.5,2.1-1.3l3.7-5.7C28.7,34.8,28.1,34,27.4,34.1z"/>
		<path class="st1" d="M115.5,18.2l-40.9,7.4c-1.8,0.3-3.4,1.4-4.4,2.9l-5.6,8.5c-0.4,0.6,0.1,1.4,0.8,1.3l42.9-3.9
			c1-0.1,1.9-0.7,2.3-1.7l5.9-13.4C116.7,18.8,116.2,18.1,115.5,18.2z"/>
		<path class="st1" d="M120.9,38.9l-57.8,5.2c-2,0.2-3.9,1.3-5,3L53,54.9c-0.4,0.6,0,1.3,0.7,1.3h59.2c1.1,0,2.1-0.7,2.6-1.7
			l6.3-14.4C122,39.5,121.5,38.9,120.9,38.9z"/>
	</g>
</g>
</svg>
