<svg version="1.1" id="Layer_1" xmlns="http://www.w3.org/2000/svg" xmlns:xlink="http://www.w3.org/1999/xlink" x="0px" y="0px"
	 width="100%" viewBox="0 0 842 596" enable-background="new 0 0 842 596" xml:space="preserve">
<path fill="#FFFFFF" opacity="1.000000" stroke="none" 
	d="
M527.000000,597.000000 
	C351.333344,597.000000 176.166672,597.000000 1.000000,597.000000 
	C1.000000,398.333344 1.000000,199.666672 1.000000,1.000000 
	C281.666656,1.000000 562.333313,1.000000 843.000000,1.000000 
	C843.000000,199.666672 843.000000,398.333344 843.000000,597.000000 
	C737.833313,597.000000 632.666687,597.000000 527.000000,597.000000 
M553.500000,400.001709 
	C642.242859,400.001709 730.985657,400.001709 819.668945,400.001709 
	C819.668945,339.329590 819.668945,279.277527 819.668945,219.307968 
	C561.315002,219.307968 303.293823,219.307968 45.330963,219.307968 
	C45.330963,279.670349 45.330963,339.722412 45.330963,400.001709 
	C214.609085,400.001709 383.554535,400.001709 553.500000,400.001709 
z"/>
<path fill="#611E85" opacity="1.000000" stroke="none" 
	d="
M553.000000,400.001709 
	C383.554535,400.001709 214.609085,400.001709 45.330963,400.001709 
	C45.330963,339.722412 45.330963,279.670349 45.330963,219.307968 
	C303.293823,219.307968 561.315002,219.307968 819.668945,219.307968 
	C819.668945,279.277527 819.668945,339.329590 819.668945,400.001709 
	C730.985657,400.001709 642.242859,400.001709 553.000000,400.001709 
M151.499985,394.845123 
	C174.251633,394.845123 197.003265,394.845123 219.825378,394.845123 
	C219.825378,337.771942 219.825378,281.364868 219.825378,224.703430 
	C163.214447,224.703430 106.826256,224.703430 50.324722,224.703430 
	C50.324722,281.468658 50.324722,337.986389 50.324722,394.845062 
	C83.933228,394.845062 117.216599,394.845062 151.499985,394.845123 
M671.055725,341.192291 
	C669.239380,343.040039 667.705200,345.947540 665.549744,346.521454 
	C660.612610,347.836029 661.500488,350.609131 662.297974,353.903229 
	C671.404053,352.967041 677.458008,347.777252 678.169922,339.259186 
	C678.775513,332.013611 678.832642,324.610199 678.067566,317.389465 
	C677.030090,307.598389 667.464600,301.221588 658.215027,303.305939 
	C648.476196,305.500549 642.685364,315.796356 645.835205,325.316681 
	C648.997314,334.874237 658.995300,339.476807 668.323547,335.664276 
	C669.438293,335.208679 670.540283,334.721771 672.270081,333.984253 
	C671.901062,336.589783 671.626221,338.530731 671.055725,341.192291 
M615.987122,303.795563 
	C615.025146,308.204285 612.982117,304.417725 611.964844,304.053223 
	C602.671875,300.722961 592.932251,305.304474 589.829834,314.711945 
	C586.736267,324.092621 592.240417,334.113525 601.839417,336.576752 
	C610.825256,338.882629 621.219849,332.841888 621.880676,323.447876 
	C622.797546,310.415039 622.111145,297.269470 622.111145,284.135620 
	C620.028625,284.135620 618.143188,284.135620 615.989136,284.135620 
	C615.989136,290.629852 615.989136,296.776764 615.987122,303.795563 
M386.180267,332.339386 
	C393.734039,338.272369 401.879395,338.557098 408.461731,333.118317 
	C414.249084,328.336395 416.464050,319.508606 412.735413,312.803192 
	C410.986542,309.658112 407.989380,306.851837 404.925018,304.871399 
	C399.435577,301.323700 393.565247,303.094635 387.494507,305.776489 
	C387.494507,298.191040 387.494507,291.258636 387.494507,284.060669 
	C385.193726,284.060669 383.304413,284.060669 380.990326,284.060669 
	C380.990326,295.866180 380.576294,307.488770 381.204346,319.054749 
	C381.439087,323.377472 384.103485,327.568237 386.180267,332.339386 
M438.370148,330.401031 
	C434.092438,330.333008 430.777954,328.774506 428.514557,323.824768 
	C437.536530,323.824768 445.873810,323.824768 454.035034,323.824768 
	C455.965271,315.153168 451.870331,307.372559 444.200562,304.190887 
	C436.930969,301.175293 428.304321,303.827820 423.922272,310.426086 
	C419.252594,317.457458 420.206238,326.670685 426.193878,332.371765 
	C432.174927,338.066589 440.597595,338.545807 447.572479,333.610077 
	C445.726532,330.113037 443.141541,328.453522 438.370148,330.401031 
M760.805725,315.050323 
	C756.327820,304.316956 746.499390,300.103455 737.138062,304.903809 
	C728.405884,309.381531 725.367249,320.278656 730.441345,328.919128 
	C735.128418,336.900574 743.892334,338.872559 754.157959,335.635193 
	C756.368103,336.243286 758.578308,336.851410 760.995239,337.516418 
	C760.995239,329.720673 760.995239,322.781738 760.805725,315.050323 
M371.553955,328.458466 
	C371.430359,324.642090 371.696350,320.764374 371.107208,317.021271 
	C369.581604,307.328979 360.076050,301.092499 350.867035,303.414337 
	C341.125549,305.870483 335.590973,316.217438 338.952972,325.687927 
	C342.635956,336.062561 352.816986,339.520660 364.085144,335.749908 
	C366.382507,336.269562 368.679871,336.789185 371.553558,337.439178 
	C371.553558,334.033966 371.553558,331.723267 371.553955,328.458466 
M279.295471,336.044495 
	C280.648834,335.446686 282.002197,334.848846 283.355560,334.251038 
	C283.261902,334.748077 283.168243,335.245117 283.074615,335.742157 
	C285.375122,336.265198 287.675629,336.788239 290.492126,337.428589 
	C290.492126,330.535156 290.800385,324.705017 290.420715,318.920044 
	C289.834534,309.989380 283.157776,303.377350 274.727844,303.038544 
	C267.785736,302.759521 262.415039,305.703491 259.098602,311.818604 
	C255.683548,318.115509 256.126892,324.507446 260.356384,330.180634 
	C264.863647,336.226471 271.106750,338.282990 279.295471,336.044495 
M538.472412,334.171967 
	C546.231445,338.409363 553.437256,337.837036 559.133240,332.531067 
	C564.410278,327.615448 565.977783,319.538361 562.951599,312.856506 
	C559.962280,306.256104 553.198425,302.219452 546.035278,303.102203 
	C538.973755,303.972412 534.036987,307.873993 531.887878,314.681519 
	C529.483276,322.298035 531.712341,328.704468 538.472412,334.171967 
M321.553436,323.491699 
	C321.553436,319.066956 321.553436,314.642212 321.553436,309.713013 
	C325.327637,309.713013 328.402405,309.713013 331.587616,309.713013 
	C331.587616,307.266418 331.587616,305.352417 331.587616,302.987061 
	C329.871704,302.987061 328.412018,302.987030 326.952332,302.987030 
	C325.309479,302.987030 323.666626,302.987061 322.067688,302.987061 
	C321.260651,295.600983 323.016815,293.257324 331.521484,289.930634 
	C331.521484,288.029388 331.521484,286.128174 331.521484,284.216278 
	C321.892029,284.697540 315.247223,291.206848 315.030518,300.424286 
	C314.842743,308.410980 314.988312,316.405579 314.987122,324.396667 
	C314.986481,328.489502 314.987030,332.582336 314.987030,336.605103 
	C317.507294,336.605103 319.286133,336.605103 321.553101,336.605103 
	C321.553101,332.412415 321.553101,328.447632 321.553436,323.491699 
M705.476013,294.059540 
	C705.476013,296.988495 705.476013,299.917450 705.476013,302.924927 
	C702.963196,303.104584 701.191895,303.231232 699.330078,303.364349 
	C699.330078,305.711121 699.330078,307.751801 699.330078,309.825256 
	C701.444824,309.980316 703.225037,310.110840 704.519104,310.205750 
	C705.535522,316.406860 705.649109,322.540009 707.669800,327.962494 
	C709.877075,333.885712 715.289978,336.684357 721.880371,336.852386 
	C721.880371,334.548340 721.880371,332.647491 721.880371,330.869843 
	C712.498657,327.786987 710.472534,323.206360 712.602478,309.956970 
	C715.616516,309.956970 718.707031,309.956970 721.807251,309.956970 
	C721.807251,307.482300 721.807251,305.460907 721.807251,302.934509 
	C718.341797,302.934509 715.280579,302.934509 711.872803,302.934509 
	C711.872803,299.144287 711.872803,295.871460 711.872803,291.782379 
	C709.448181,292.330841 707.522034,292.766541 705.476013,294.059540 
M473.548889,310.009583 
	C475.330963,310.009583 477.113007,310.009583 478.959839,310.009583 
	C478.959839,307.525269 478.959839,305.600128 478.959839,303.191284 
	C475.636932,303.191284 472.559204,303.191284 468.957977,303.191284 
	C468.957977,299.315216 468.957977,295.913422 468.957977,292.513031 
	C466.543579,292.513031 464.668579,292.513031 462.359619,292.513031 
	C462.359619,296.121948 462.359619,299.385010 462.359619,302.797638 
	C460.040558,303.074371 458.135620,303.301666 456.231049,303.528931 
	C456.231049,305.751495 456.231049,307.680084 456.231049,309.745728 
	C458.361908,309.960205 460.280518,310.153351 461.548004,310.280945 
	C462.513977,316.428955 462.597626,322.409088 464.515686,327.727692 
	C466.690826,333.759216 472.191376,336.476440 478.858429,337.035736 
	C479.545288,333.279297 479.794006,330.815552 475.172363,329.300323 
	C472.644409,328.471466 470.451782,324.793610 469.367371,321.924469 
	C468.370941,319.288177 469.232788,315.998413 468.963745,313.024780 
	C468.688599,309.984070 470.397095,309.802460 473.548889,310.009583 
M509.470459,311.762421 
	C512.287292,311.124298 515.394653,309.418091 517.855835,310.087555 
	C521.994385,311.213196 524.023682,309.754822 525.810059,306.609100 
	C518.400085,301.194977 509.278595,301.946472 503.407166,308.430542 
	C497.488129,314.967194 497.505280,325.100708 503.446381,331.611206 
	C509.351868,338.082672 518.584839,338.806244 526.785889,332.581451 
	C524.065674,331.460266 521.777466,329.595886 519.768066,329.859253 
	C513.391235,330.695099 509.743896,329.793182 507.120209,325.541046 
	C504.563354,321.397156 505.142853,317.048309 509.470459,311.762421 
M301.669830,284.019165 
	C301.113922,285.324493 300.104340,286.620392 300.077087,287.936676 
	C299.922180,295.416565 300.001831,302.901337 300.001801,310.384430 
	C300.001740,319.146545 300.001801,327.908661 300.001801,336.626465 
	C302.432526,336.626465 304.315613,336.626465 306.406860,336.626465 
	C306.406860,319.967712 306.330688,303.675934 306.473755,287.386047 
	C306.501068,284.280243 305.171021,283.678009 301.669830,284.019165 
M776.409119,324.492157 
	C776.409119,311.104431 776.409119,297.716705 776.409119,284.216919 
	C773.972656,284.216919 772.217957,284.216919 770.386841,284.216919 
	C770.386841,301.910950 770.386841,319.390320 770.386841,337.044159 
	C772.550354,336.947906 774.319702,336.869171 776.409485,336.776215 
	C776.409485,332.755890 776.409485,329.121552 776.409119,324.492157 
M693.406311,334.255798 
	C693.406311,324.000000 693.406311,313.744202 693.406311,303.304382 
	C691.046265,303.304382 689.173584,303.304382 687.396484,303.304382 
	C687.396484,314.634918 687.396484,325.657837 687.396484,337.710022 
	C689.843872,336.678070 691.601807,335.936798 693.406311,334.255798 
M635.414795,311.529907 
	C635.414795,308.780945 635.414795,306.032013 635.414795,303.223694 
	C632.944275,303.223694 631.191772,303.223694 629.313110,303.223694 
	C629.313110,314.465698 629.313110,325.482941 629.313110,336.559753 
	C631.379028,336.559753 633.127258,336.559753 635.415100,336.559753 
	C635.415100,328.375854 635.415100,320.450562 635.414795,311.529907 
M491.414825,309.554199 
	C491.414825,307.472748 491.414825,305.391327 491.414825,303.217651 
	C488.957062,303.217651 487.203979,303.217651 485.308167,303.217651 
	C485.308167,314.453888 485.308167,325.471588 485.308167,336.564148 
	C487.368622,336.564148 489.116455,336.564148 491.415131,336.564148 
	C491.415131,327.721558 491.415131,319.133728 491.414825,309.554199 
M443.030701,295.786987 
	C446.216156,292.766418 442.426178,292.273743 441.348877,290.371674 
	C438.886261,292.593689 436.719818,294.548492 433.723602,297.251984 
	C435.175995,298.564209 436.297089,299.577087 437.581818,300.737854 
	C439.602386,298.859680 441.038300,297.524963 443.030701,295.786987 
M485.395630,296.724792 
	C486.949799,297.086731 488.530090,297.760681 490.043274,297.633759 
	C490.542999,297.591888 491.503235,295.170074 491.120697,294.395905 
	C490.597778,293.337708 488.363037,291.939728 487.969116,292.223602 
	C486.741882,293.108002 486.036163,294.716095 485.395630,296.724792 
M632.297363,298.448456 
	C633.328430,297.197601 634.675842,296.062622 635.201965,294.626740 
	C635.364441,294.183228 633.378418,292.404449 632.209717,292.203217 
	C631.351318,292.055420 629.285400,293.677948 629.388306,294.171570 
	C629.699463,295.664368 630.805176,296.991547 632.297363,298.448456 
M688.878479,292.321014 
	C688.436096,293.866028 687.704102,295.415222 687.726440,296.953491 
	C687.733215,297.420105 690.106079,298.497009 690.893921,298.151489 
	C691.984680,297.673035 693.510681,295.521271 693.253723,295.127106 
	C692.424500,293.855469 690.864258,293.060608 688.878479,292.321014 
z"/>
<path fill="#FEFEFE" opacity="1.000000" stroke="none" 
	d="
M150.999969,394.845093 
	C117.216599,394.845062 83.933228,394.845062 50.324722,394.845062 
	C50.324722,337.986389 50.324722,281.468658 50.324722,224.703430 
	C106.826256,224.703430 163.214447,224.703430 219.825378,224.703430 
	C219.825378,281.364868 219.825378,337.771942 219.825378,394.845123 
	C197.003265,394.845123 174.251633,394.845123 150.999969,394.845093 
M95.647430,272.139496 
	C77.874329,289.980286 74.782364,316.065948 88.052574,336.634735 
	C94.615334,346.806976 103.698097,353.882935 115.196510,357.556366 
	C131.797623,362.859955 147.317505,359.826233 162.304138,349.772858 
	C162.304138,353.668976 162.304138,356.604187 162.304138,359.590271 
	C169.097046,359.590271 175.463791,359.590271 181.981415,359.590271 
	C181.981415,341.020691 181.989090,322.861938 181.963394,304.703186 
	C181.961761,303.547180 181.766037,302.379395 181.551346,301.237610 
	C177.870285,281.662476 167.017822,267.704315 148.187500,261.022949 
	C128.987137,254.210251 111.487785,258.232880 95.647430,272.139496 
z"/>
<path fill="#F1F0F4" opacity="1.000000" stroke="none" 
	d="
M671.203491,340.831970 
	C671.626221,338.530731 671.901062,336.589783 672.270081,333.984253 
	C670.540283,334.721771 669.438293,335.208679 668.323547,335.664276 
	C658.995300,339.476807 648.997314,334.874237 645.835205,325.316681 
	C642.685364,315.796356 648.476196,305.500549 658.215027,303.305939 
	C667.464600,301.221588 677.030090,307.598389 678.067566,317.389465 
	C678.832642,324.610199 678.775513,332.013611 678.169922,339.259186 
	C677.458008,347.777252 671.404053,352.967041 662.297974,353.903229 
	C661.500488,350.609131 660.612610,347.836029 665.549744,346.521454 
	C667.705200,345.947540 669.239380,343.040039 671.203491,340.831970 
M656.591309,310.950531 
	C651.636047,315.190552 650.260132,319.720703 652.485901,324.467224 
	C654.425171,328.602753 658.755981,331.027985 663.027649,330.370483 
	C669.224792,329.416626 673.172852,323.558167 671.677612,317.535065 
	C670.068848,311.055084 664.409119,308.327911 656.591309,310.950531 
z"/>
<path fill="#F2F1F4" opacity="1.000000" stroke="none" 
	d="
M615.988159,303.359619 
	C615.989136,296.776764 615.989136,290.629852 615.989136,284.135620 
	C618.143188,284.135620 620.028625,284.135620 622.111145,284.135620 
	C622.111145,297.269470 622.797546,310.415039 621.880676,323.447876 
	C621.219849,332.841888 610.825256,338.882629 601.839417,336.576752 
	C592.240417,334.113525 586.736267,324.092621 589.829834,314.711945 
	C592.932251,305.304474 602.671875,300.722961 611.964844,304.053223 
	C612.982117,304.417725 615.025146,308.204285 615.988159,303.359619 
M615.835693,318.008850 
	C612.807922,309.741791 605.012817,306.916962 599.190247,311.976868 
	C595.525085,315.161926 594.461487,320.371307 596.598022,324.673859 
	C598.726685,328.960754 603.265930,331.230560 607.738647,330.244568 
	C613.033997,329.077240 615.675598,325.398529 615.835693,318.008850 
z"/>
<path fill="#F2F1F4" opacity="1.000000" stroke="none" 
	d="
M385.920166,332.079285 
	C384.103485,327.568237 381.439087,323.377472 381.204346,319.054749 
	C380.576294,307.488770 380.990326,295.866180 380.990326,284.060669 
	C383.304413,284.060669 385.193726,284.060669 387.494507,284.060669 
	C387.494507,291.258636 387.494507,298.191040 387.494507,305.776489 
	C393.565247,303.094635 399.435577,301.323700 404.925018,304.871399 
	C407.989380,306.851837 410.986542,309.658112 412.735413,312.803192 
	C416.464050,319.508606 414.249084,328.336395 408.461731,333.118317 
	C401.879395,338.557098 393.734039,338.272369 385.920166,332.079285 
M389.822968,326.588013 
	C394.510101,331.013550 398.854767,331.750305 403.249603,328.864929 
	C407.264618,326.228882 409.006317,321.093201 407.425049,316.552856 
	C405.485809,310.984619 399.449768,308.086853 394.130646,310.170532 
	C387.876434,312.620544 385.957092,318.977539 389.822968,326.588013 
z"/>
<path fill="#EEECF2" opacity="1.000000" stroke="none" 
	d="
M438.778015,330.350525 
	C443.141541,328.453522 445.726532,330.113037 447.572479,333.610077 
	C440.597595,338.545807 432.174927,338.066589 426.193878,332.371765 
	C420.206238,326.670685 419.252594,317.457458 423.922272,310.426086 
	C428.304321,303.827820 436.930969,301.175293 444.200562,304.190887 
	C451.870331,307.372559 455.965271,315.153168 454.035034,323.824768 
	C445.873810,323.824768 437.536530,323.824768 428.514557,323.824768 
	C430.777954,328.774506 434.092438,330.333008 438.778015,330.350525 
M431.423126,311.834259 
	C430.321625,313.346649 429.220154,314.859070 427.808929,316.796783 
	C434.727051,316.796783 440.830078,316.796783 447.053345,316.796783 
	C444.556915,309.693756 439.283844,307.898529 431.423126,311.834259 
z"/>
<path fill="#F1F0F4" opacity="1.000000" stroke="none" 
	d="
M760.900513,315.446594 
	C760.995239,322.781738 760.995239,329.720673 760.995239,337.516418 
	C758.578308,336.851410 756.368103,336.243286 754.157959,335.635193 
	C743.892334,338.872559 735.128418,336.900574 730.441345,328.919128 
	C725.367249,320.278656 728.405884,309.381531 737.138062,304.903809 
	C746.499390,300.103455 756.327820,304.316956 760.900513,315.446594 
M752.486206,313.143280 
	C748.830078,309.307312 744.550537,308.309906 739.864624,310.882660 
	C735.840027,313.092377 734.017395,316.770233 734.639465,321.335571 
	C735.255310,325.854248 737.817200,328.920105 742.333740,330.136810 
	C746.500427,331.259308 749.975769,329.886963 752.555603,326.680786 
	C755.856995,322.577942 755.827148,318.147156 752.486206,313.143280 
z"/>
<path fill="#F1F0F4" opacity="1.000000" stroke="none" 
	d="
M371.553772,328.935547 
	C371.553558,331.723267 371.553558,334.033966 371.553558,337.439178 
	C368.679871,336.789185 366.382507,336.269562 364.085144,335.749908 
	C352.816986,339.520660 342.635956,336.062561 338.952972,325.687927 
	C335.590973,316.217438 341.125549,305.870483 350.867035,303.414337 
	C360.076050,301.092499 369.581604,307.328979 371.107208,317.021271 
	C371.696350,320.764374 371.430359,324.642090 371.553772,328.935547 
M344.702087,318.140472 
	C343.118774,325.096283 349.750366,331.439117 356.029266,330.421692 
	C361.021210,329.612854 364.733002,325.567566 364.985077,320.521912 
	C365.238281,315.453918 361.929474,311.014160 357.037598,309.857910 
	C351.585388,308.569214 347.449341,311.132355 344.702087,318.140472 
z"/>
<path fill="#F1F0F4" opacity="1.000000" stroke="none" 
	d="
M278.905945,336.177277 
	C271.106750,338.282990 264.863647,336.226471 260.356384,330.180634 
	C256.126892,324.507446 255.683548,318.115509 259.098602,311.818604 
	C262.415039,305.703491 267.785736,302.759521 274.727844,303.038544 
	C283.157776,303.377350 289.834534,309.989380 290.420715,318.920044 
	C290.800385,324.705017 290.492126,330.535156 290.492126,337.428589 
	C287.675629,336.788239 285.375122,336.265198 283.074615,335.742157 
	C283.168243,335.245117 283.261902,334.748077 283.355560,334.251038 
	C282.002197,334.848846 280.648834,335.446686 278.905945,336.177277 
M264.028595,316.683228 
	C261.409576,323.560974 267.586853,331.513519 275.031586,330.407318 
	C279.844635,329.692169 283.484650,325.850830 283.959045,321.015564 
	C284.429138,316.224823 281.463196,311.551880 277.008667,310.064911 
	C271.916656,308.365204 267.835297,310.252625 264.028595,316.683228 
z"/>
<path fill="#F0EFF3" opacity="1.000000" stroke="none" 
	d="
M538.157593,333.975006 
	C531.712341,328.704468 529.483276,322.298035 531.887878,314.681519 
	C534.036987,307.873993 538.973755,303.972412 546.035278,303.102203 
	C553.198425,302.219452 559.962280,306.256104 562.951599,312.856506 
	C565.977783,319.538361 564.410278,327.615448 559.133240,332.531067 
	C553.437256,337.837036 546.231445,338.409363 538.157593,333.975006 
M552.571472,310.786560 
	C545.422607,308.291016 539.665283,310.804321 537.914612,317.184723 
	C536.270447,323.177277 540.017578,329.214783 546.087585,330.353241 
	C550.290039,331.141388 554.842896,328.796875 556.847900,324.812164 
	C559.246033,320.046112 558.071655,315.598541 552.571472,310.786560 
z"/>
<path fill="#F1F0F4" opacity="1.000000" stroke="none" 
	d="
M321.553284,323.987244 
	C321.553101,328.447632 321.553101,332.412415 321.553101,336.605103 
	C319.286133,336.605103 317.507294,336.605103 314.987030,336.605103 
	C314.987030,332.582336 314.986481,328.489502 314.987122,324.396667 
	C314.988312,316.405579 314.842743,308.410980 315.030518,300.424286 
	C315.247223,291.206848 321.892029,284.697540 331.521484,284.216278 
	C331.521484,286.128174 331.521484,288.029388 331.519348,289.933136 
	C323.016815,293.257324 321.260651,295.600983 322.067688,302.987061 
	C323.666626,302.987061 325.309479,302.987030 326.952332,302.987030 
	C328.412018,302.987030 329.871704,302.987061 331.587616,302.987061 
	C331.587616,305.352417 331.587616,307.266418 331.587616,309.713013 
	C328.402405,309.713013 325.327637,309.713013 321.553436,309.713013 
	C321.553436,314.642212 321.553436,319.066956 321.553284,323.987244 
z"/>
<path fill="#F2F1F4" opacity="1.000000" stroke="none" 
	d="
M705.535950,293.630890 
	C707.522034,292.766541 709.448181,292.330841 711.872803,291.782379 
	C711.872803,295.871460 711.872803,299.144287 711.872803,302.934509 
	C715.280579,302.934509 718.341797,302.934509 721.807251,302.934509 
	C721.807251,305.460907 721.807251,307.482300 721.807251,309.956970 
	C718.707031,309.956970 715.616516,309.956970 712.602478,309.956970 
	C710.472534,323.206360 712.498657,327.786987 721.880371,330.869843 
	C721.880371,332.647491 721.880371,334.548340 721.880371,336.852386 
	C715.289978,336.684357 709.877075,333.885712 707.669800,327.962494 
	C705.649109,322.540009 705.535522,316.406860 704.519104,310.205750 
	C703.225037,310.110840 701.444824,309.980316 699.330078,309.825256 
	C699.330078,307.751801 699.330078,305.711121 699.330078,303.364349 
	C701.191895,303.231232 702.963196,303.104584 705.476013,302.924927 
	C705.476013,299.917450 705.476013,296.988495 705.535950,293.630890 
z"/>
<path fill="#F2F1F4" opacity="1.000000" stroke="none" 
	d="
M473.079315,310.009705 
	C470.397095,309.802460 468.688599,309.984070 468.963745,313.024780 
	C469.232788,315.998413 468.370941,319.288177 469.367371,321.924469 
	C470.451782,324.793610 472.644409,328.471466 475.172363,329.300323 
	C479.794006,330.815552 479.545288,333.279297 478.858429,337.035736 
	C472.191376,336.476440 466.690826,333.759216 464.515686,327.727692 
	C462.597626,322.409088 462.513977,316.428955 461.548004,310.280945 
	C460.280518,310.153351 458.361908,309.960205 456.231049,309.745728 
	C456.231049,307.680084 456.231049,305.751495 456.231049,303.528931 
	C458.135620,303.301666 460.040558,303.074371 462.359619,302.797638 
	C462.359619,299.385010 462.359619,296.121948 462.359619,292.513031 
	C464.668579,292.513031 466.543579,292.513031 468.957977,292.513031 
	C468.957977,295.913422 468.957977,299.315216 468.957977,303.191284 
	C472.559204,303.191284 475.636932,303.191284 478.959839,303.191284 
	C478.959839,305.600128 478.959839,307.525269 478.959839,310.009583 
	C477.113007,310.009583 475.330963,310.009583 473.079315,310.009705 
z"/>
<path fill="#EFEDF2" opacity="1.000000" stroke="none" 
	d="
M509.177063,312.034729 
	C505.142853,317.048309 504.563354,321.397156 507.120209,325.541046 
	C509.743896,329.793182 513.391235,330.695099 519.768066,329.859253 
	C521.777466,329.595886 524.065674,331.460266 526.785889,332.581451 
	C518.584839,338.806244 509.351868,338.082672 503.446381,331.611206 
	C497.505280,325.100708 497.488129,314.967194 503.407166,308.430542 
	C509.278595,301.946472 518.400085,301.194977 525.810059,306.609100 
	C524.023682,309.754822 521.994385,311.213196 517.855835,310.087555 
	C515.394653,309.418091 512.287292,311.124298 509.177063,312.034729 
z"/>
<path fill="#F6F6F7" opacity="1.000000" stroke="none" 
	d="
M302.140503,284.011780 
	C305.171021,283.678009 306.501068,284.280243 306.473755,287.386047 
	C306.330688,303.675934 306.406860,319.967712 306.406860,336.626465 
	C304.315613,336.626465 302.432526,336.626465 300.001801,336.626465 
	C300.001801,327.908661 300.001740,319.146545 300.001801,310.384430 
	C300.001831,302.901337 299.922180,295.416565 300.077087,287.936676 
	C300.104340,286.620392 301.113922,285.324493 302.140503,284.011780 
z"/>
<path fill="#F6F6F7" opacity="1.000000" stroke="none" 
	d="
M776.409302,324.989685 
	C776.409485,329.121552 776.409485,332.755890 776.409485,336.776215 
	C774.319702,336.869171 772.550354,336.947906 770.386841,337.044159 
	C770.386841,319.390320 770.386841,301.910950 770.386841,284.216919 
	C772.217957,284.216919 773.972656,284.216919 776.409119,284.216919 
	C776.409119,297.716705 776.409119,311.104431 776.409302,324.989685 
z"/>
<path fill="#F5F4F6" opacity="1.000000" stroke="none" 
	d="
M693.383057,334.725647 
	C691.601807,335.936798 689.843872,336.678070 687.396484,337.710022 
	C687.396484,325.657837 687.396484,314.634918 687.396484,303.304382 
	C689.173584,303.304382 691.046265,303.304382 693.406311,303.304382 
	C693.406311,313.744202 693.406311,324.000000 693.383057,334.725647 
z"/>
<path fill="#F5F4F6" opacity="1.000000" stroke="none" 
	d="
M635.414917,312.027588 
	C635.415100,320.450562 635.415100,328.375854 635.415100,336.559753 
	C633.127258,336.559753 631.379028,336.559753 629.313110,336.559753 
	C629.313110,325.482941 629.313110,314.465698 629.313110,303.223694 
	C631.191772,303.223694 632.944275,303.223694 635.414795,303.223694 
	C635.414795,306.032013 635.414795,308.780945 635.414917,312.027588 
z"/>
<path fill="#F5F4F6" opacity="1.000000" stroke="none" 
	d="
M491.414978,310.050049 
	C491.415131,319.133728 491.415131,327.721558 491.415131,336.564148 
	C489.116455,336.564148 487.368622,336.564148 485.308167,336.564148 
	C485.308167,325.471588 485.308167,314.453888 485.308167,303.217651 
	C487.203979,303.217651 488.957062,303.217651 491.414825,303.217651 
	C491.414825,305.391327 491.414825,307.472748 491.414978,310.050049 
z"/>
<path fill="#FAF8FB" opacity="1.000000" stroke="none" 
	d="
M442.752441,295.988617 
	C441.038300,297.524963 439.602386,298.859680 437.581818,300.737854 
	C436.297089,299.577087 435.175995,298.564209 433.723602,297.251984 
	C436.719818,294.548492 438.886261,292.593689 441.348877,290.371674 
	C442.426178,292.273743 446.216156,292.766418 442.752441,295.988617 
z"/>
<path fill="#F0EFF3" opacity="1.000000" stroke="none" 
	d="
M485.261902,296.384155 
	C486.036163,294.716095 486.741882,293.108002 487.969116,292.223602 
	C488.363037,291.939728 490.597778,293.337708 491.120697,294.395905 
	C491.503235,295.170074 490.542999,297.591888 490.043274,297.633759 
	C488.530090,297.760681 486.949799,297.086731 485.261902,296.384155 
z"/>
<path fill="#F0EFF3" opacity="1.000000" stroke="none" 
	d="
M631.949341,298.415863 
	C630.805176,296.991547 629.699463,295.664368 629.388306,294.171570 
	C629.285400,293.677948 631.351318,292.055420 632.209717,292.203217 
	C633.378418,292.404449 635.364441,294.183228 635.201965,294.626740 
	C634.675842,296.062622 633.328430,297.197601 631.949341,298.415863 
z"/>
<path fill="#F0EFF3" opacity="1.000000" stroke="none" 
	d="
M689.232117,292.201477 
	C690.864258,293.060608 692.424500,293.855469 693.253723,295.127106 
	C693.510681,295.521271 691.984680,297.673035 690.893921,298.151489 
	C690.106079,298.497009 687.733215,297.420105 687.726440,296.953491 
	C687.704102,295.415222 688.436096,293.866028 689.232117,292.201477 
z"/>
<path fill="#F0973F" opacity="1.000000" stroke="none" 
	d="
M95.900269,271.886597 
	C111.487785,258.232880 128.987137,254.210251 148.187500,261.022949 
	C167.017822,267.704315 177.870285,281.662476 181.551346,301.237610 
	C181.766037,302.379395 181.961761,303.547180 181.963394,304.703186 
	C181.989090,322.861938 181.981415,341.020691 181.981415,359.590271 
	C175.463791,359.590271 169.097046,359.590271 162.304138,359.590271 
	C162.304138,356.604187 162.304138,353.668976 162.304138,349.772858 
	C147.317505,359.826233 131.797623,362.859955 115.196510,357.556366 
	C103.698097,353.882935 94.615334,346.806976 88.052574,336.634735 
	C74.782364,316.065948 77.874329,289.980286 95.900269,271.886597 
M101.785698,298.534912 
	C101.430557,299.811554 101.022812,301.076233 100.728432,302.366730 
	C97.934349,314.615509 103.093987,327.655396 113.496033,334.684204 
	C124.111794,341.857452 138.314636,341.820709 148.705276,334.593140 
	C159.144943,327.331482 164.166992,314.399719 161.285156,302.199921 
	C158.191406,289.103027 147.473434,279.421234 134.584152,278.080383 
	C120.421288,276.607025 108.497643,283.824890 101.785698,298.534912 
z"/>
<path fill="#642488" opacity="1.000000" stroke="none" 
	d="
M656.915527,310.764313 
	C664.409119,308.327911 670.068848,311.055084 671.677612,317.535065 
	C673.172852,323.558167 669.224792,329.416626 663.027649,330.370483 
	C658.755981,331.027985 654.425171,328.602753 652.485901,324.467224 
	C650.260132,319.720703 651.636047,315.190552 656.915527,310.764313 
z"/>
<path fill="#642488" opacity="1.000000" stroke="none" 
	d="
M615.893982,318.407623 
	C615.675598,325.398529 613.033997,329.077240 607.738647,330.244568 
	C603.265930,331.230560 598.726685,328.960754 596.598022,324.673859 
	C594.461487,320.371307 595.525085,315.161926 599.190247,311.976868 
	C605.012817,306.916962 612.807922,309.741791 615.893982,318.407623 
z"/>
<path fill="#642488" opacity="1.000000" stroke="none" 
	d="
M389.586060,326.297668 
	C385.957092,318.977539 387.876434,312.620544 394.130646,310.170532 
	C399.449768,308.086853 405.485809,310.984619 407.425049,316.552856 
	C409.006317,321.093201 407.264618,326.228882 403.249603,328.864929 
	C398.854767,331.750305 394.510101,331.013550 389.586060,326.297668 
z"/>
<path fill="#642589" opacity="1.000000" stroke="none" 
	d="
M431.714294,311.595703 
	C439.283844,307.898529 444.556915,309.693756 447.053345,316.796783 
	C440.830078,316.796783 434.727051,316.796783 427.808929,316.796783 
	C429.220154,314.859070 430.321625,313.346649 431.714294,311.595703 
z"/>
<path fill="#642488" opacity="1.000000" stroke="none" 
	d="
M752.722412,313.440979 
	C755.827148,318.147156 755.856995,322.577942 752.555603,326.680786 
	C749.975769,329.886963 746.500427,331.259308 742.333740,330.136810 
	C737.817200,328.920105 735.255310,325.854248 734.639465,321.335571 
	C734.017395,316.770233 735.840027,313.092377 739.864624,310.882660 
	C744.550537,308.309906 748.830078,309.307312 752.722412,313.440979 
z"/>
<path fill="#642488" opacity="1.000000" stroke="none" 
	d="
M344.781494,317.772247 
	C347.449341,311.132355 351.585388,308.569214 357.037598,309.857910 
	C361.929474,311.014160 365.238281,315.453918 364.985077,320.521912 
	C364.733002,325.567566 361.021210,329.612854 356.029266,330.421692 
	C349.750366,331.439117 343.118774,325.096283 344.781494,317.772247 
z"/>
<path fill="#642488" opacity="1.000000" stroke="none" 
	d="
M264.139648,316.324036 
	C267.835297,310.252625 271.916656,308.365204 277.008667,310.064911 
	C281.463196,311.551880 284.429138,316.224823 283.959045,321.015564 
	C283.484650,325.850830 279.844635,329.692169 275.031586,330.407318 
	C267.586853,331.513519 261.409576,323.560974 264.139648,316.324036 
z"/>
<path fill="#642488" opacity="1.000000" stroke="none" 
	d="
M552.903503,310.959229 
	C558.071655,315.598541 559.246033,320.046112 556.847900,324.812164 
	C554.842896,328.796875 550.290039,331.141388 546.087585,330.353241 
	C540.017578,329.214783 536.270447,323.177277 537.914612,317.184723 
	C539.665283,310.804321 545.422607,308.291016 552.903503,310.959229 
z"/>
<path fill="#FFFEFE" opacity="1.000000" stroke="none" 
	d="
M101.906105,298.161896 
	C108.497643,283.824890 120.421288,276.607025 134.584152,278.080383 
	C147.473434,279.421234 158.191406,289.103027 161.285156,302.199921 
	C164.166992,314.399719 159.144943,327.331482 148.705276,334.593140 
	C138.314636,341.820709 124.111794,341.857452 113.496033,334.684204 
	C103.093987,327.655396 97.934349,314.615509 100.728432,302.366730 
	C101.022812,301.076233 101.430557,299.811554 101.906105,298.161896 
z"/>
</svg>