<?xml version="1.0" encoding="UTF-8"?>
<svg xmlns="http://www.w3.org/2000/svg"  version="1.1" viewBox="0 0 250 150">
  <defs>
    <style>
      .cls-1 {
        fill: url(#linear-gradient);
      }

      .cls-2 {
        fill: #1c2e6c;
      }
    </style>
    <linearGradient id="linear-gradient" x1="148.449995" y1="42.5" x2="148.449995" y2="83.0999985" gradientTransform="translate(0 110) scale(1 -1)" gradientUnits="userSpaceOnUse">
      <stop offset="0" stop-color="#fff" stop-opacity="0"/>
      <stop offset="0" stop-color="#f4f7f1" stop-opacity="0"/>
      <stop offset="0" stop-color="#d3dfc5" stop-opacity="0"/>
      <stop offset=".2" stop-color="#b4c99e" stop-opacity=".2"/>
      <stop offset=".2" stop-color="#97b77d" stop-opacity=".2"/>
      <stop offset=".3" stop-color="#7ca964" stop-opacity=".3"/>
      <stop offset=".4" stop-color="#659e52" stop-opacity=".4"/>
      <stop offset=".5" stop-color="#509647" stop-opacity=".5"/>
      <stop offset=".6" stop-color="#3d913f" stop-opacity=".6"/>
      <stop offset=".8" stop-color="#308e3b" stop-opacity=".8"/>
      <stop offset="1" stop-color="#2b8d3a"/>
    </linearGradient>
  </defs>
  <!-- Generator: Adobe Illustrator 28.6.0, SVG Export Plug-In . SVG Version: 1.2.0 Build 709)  -->
  <g>
    <g id="Layer_1">
      <g id="_圖層_1">
        <g id="_圖層_1-2">
          <path class="cls-1" d="M48.7999992,69.3000031s20.3999977-10.7000008,27.3999977-16.2999992c3.0999985-2.5,5.9000015-2.0999985,7.0999985-3.9000015,3.1999969-1.2000008,4.5999985-1.5,6.3000031-3.5,2.5-.2999992,6.3000031-6.2999992,10-6.2999992s16.5,9.7999992,23.9000015,9.2000008c7.3000031-.5999985,10.8000031-1.2000008,14.5-3.7000008s15.3000031-8,17.3000031-9,5.8999939-3.8999996,7.5-5.5,8.6000061-4.2999992,10.3999939-4.5,7.6999969.7999992,9.3999939,2.2999992c1.6000061,1.3999996,6.1000061,3.9000015,8,4.9000015s4.6999969,3.2999992,8,4.2999992,6.3000031,4.2999992,8,5.0999985c1.6000061.7999992,3.3000031,1,4.6999969,2.5,1.3999939,1.4000015,5.1000061,3.5,6.1000061,4.2999992s8,5.5,11.6999969,6.7000008,16.1000061,12.5,19,13.5999985H48.9999847l-.1999855-.1999969Z"/>
          <path class="cls-2" d="M79,62.5999985h11.6999969l15.4000015,22.5999985v-22.5999985h11.9000015v40.7000046h-11.9000015l-15.1999969-22.3000031v22.3000031h-11.9000015v-40.7000046ZM126.5,62.5999985h18.6999969c3.6999969,0,6.6000061.5,8.8999939,1.5s4.1000061,2.5,5.6000061,4.3000031c1.5,1.9000015,2.5,4,3.1999969,6.5s1,5.0999985,1,7.9000015c0,4.3000031-.5,7.6999969-1.5,10.0999985s-2.3000031,4.4000015-4.1000061,6-3.6000061,2.6999969-5.6999969,3.1999969c-2.6999969.8000031-5.3000031,1.0999985-7.5,1.0999985h-18.6999969v-40.7000008l.1000061.1000023ZM139,71.9000015v22.2999954h3.1000061c2.6000061,0,4.5-.3000031,5.6000061-.9000015s2-1.5999985,2.6000061-3.0999985c.6000061-1.4000015,1-3.8000031,1-7.0999985s-.6999969-7.3000031-2.1000061-8.8000031-3.8000031-2.4000015-7-2.4000015h-3.1999969l-.0000153.0000076ZM170.5,62.5999985h33.6999969v8.6999969h-21.1000061v6.4000015h19.6000061v8.3000031h-19.6000061v8h21.6999969v9.3000031h-34.3000031v-40.7000008h0l.0000153-.0000038ZM209.3999939,89.9000015l12-.8000031c.3000031,1.9000015.8000031,3.4000015,1.6000061,4.5,1.3000031,1.5999985,3.1999969,2.5,5.6000061,2.5s3.1999969-.4000015,4.1999969-1.1999969c1-.8000031,1.3999939-1.9000015,1.3999939-2.9000015s-.5-2-1.3999939-2.8000031c-1-.8000031-3.1000061-1.5999985-6.3999939-2.3000031-5.5-1.1999969-9.5-2.9000015-11.8000031-4.9000015-2.3999939-2.0999985-3.6000061-4.6999969-3.6000061-7.9000015s.6000061-4,1.8999939-6c1.1999969-1.9000015,3-3.3000031,5.5-4.4000015,2.3999939-1.0999985,5.8000031-1.5999985,10-1.5999985s9.1999969,1,11.8999939,2.9000015,4.3999939,5,4.8999939,9.3000031l-11.8999939.6999969c-.3000031-1.9000015-1-3.1999969-2-4s-2.3999939-1.1999969-4.1999969-1.1999969-2.5.3000031-3.3000031,1c-.8000031.5999985-1.1000061,1.4000015-1.1000061,2.3000031s.3000031,1.1999969.8999939,1.8000031,2,1,4.1999969,1.5c5.5,1.1999969,9.5,2.4000015,11.8000031,3.5999985,2.3999939,1.1999969,4.1000061,2.6999969,5.1999969,4.5s1.6000061,3.8000031,1.6000061,6-.8000031,5-2.1999969,7.1999969-3.5,3.9000015-6,5c-2.6000061,1.1999969-5.8000031,1.6999969-9.8000031,1.6999969-6.8999939,0-11.6999969-1.3000031-14.3999939-4-2.8000031-2.6999969-4.3000031-6.1999969-4.6999969-10.3000031h0l.1000061-.1999893Z"/>
          <path class="cls-2" d="M48.0999985,92.8000031h-22.2999992l-3.1000004,10.5H2.5999999l23.9000001-63.5999985h21.5l23.9000015,63.5999985h-20.5999985s-3.2000008-10.5-3.2000046-10.5ZM44.0999985,79l-7.0999985-22.9000015-6.8999996,22.9000015h13.9999981Z"/>
          <path class="cls-2" d="M10.3999996,124v-11.3000031H2.0999999v-1.5h19.9000001v1.5h-8.3000002v11.3000031h-3.3000002ZM25.5,124v-12.9000015h18.2000008v1.5h-14.8999996v3.9000015h13.8000011v1.5h-13.7999992v4.4000015h15.4000015v1.5h-18.7000008l-.0000038.0999985ZM66.6999969,119.5l3.3000031.4000015c-.6999969,1.4000015-1.9000015,2.5-3.8000031,3.1999969-1.8000031.8000031-4,1.0999985-6.5999985,1.0999985s-4.9000015-.3000031-6.5999985-.8000031-3-1.4000015-3.7999992-2.5c-.9000015-1.0999985-1.2999992-2.1999969-1.2999992-3.4000015s.5-2.5,1.5-3.5,2.4000015-1.8000031,4.2000008-2.3000031c1.9000015-.5,3.7999992-.8000031,6.0999985-.8000031s4.6000023.3000031,6.2999992,1,2.9000015,1.5999985,3.5999985,2.6999969l-3.3000031.4000015c-.5-1-1.4000015-1.5999985-2.5-2.0999985s-2.5-.5999985-4.2000008-.5999985-3.5999985.1999969-4.7999992.6999969c-1.2999992.5-2.2000008,1.0999985-2.7000008,1.9000015s-.7999992,1.5999985-.7999992,2.5.2999992,2.0999985,1,2.9000015,1.5999985,1.4000015,2.9000015,1.9000015c1.2999992.4000015,2.7000008.5999985,4.2000008.5999985s3.4000015-.3000031,4.7000008-.8000031c1.3000031-.5999985,2.0999985-1.4000015,2.5999985-2.5v.0000153ZM74.1999969,124v-12.9000015h3.3000031v5.3000031h13v-5.3000031h3.3000031v12.9000015h-3.3000031v-6h-13v6h-3.3000031ZM99.4000015,124v-12.9000015h3.4000015l13.1999969,10.0999985v-10.0999985h3.1999969v12.9000015h-3.4000015l-13.1999969-10.0999985v10.0999985h-3.1999969ZM123.6999969,117.8000031c0-2.0999985,1.0999985-3.8000031,3.4000015-5,2.2999954-1.1999969,5.0999985-1.8000031,8.5999985-1.8000031s4.3999939.3000031,6.1999969.8000031c1.8999939.5,3.3000031,1.4000015,4.1999969,2.4000015s1.3999939,2.1999969,1.3999939,3.4000015-.5,2.5-1.5,3.5-2.5,1.8000031-4.3999939,2.3000031-3.8999939.8000031-6.1000061.8000031-4.5-.3000031-6.3000031-.9000015c-1.9000015-.5999985-3.3000031-1.4000015-4.1999969-2.4000015-.9000015-1-1.4000015-2.0999985-1.4000015-3.1999969h0l.1000137.0999908ZM127.0999985,117.8000031c0,1.5999985.8000031,2.6999969,2.5000076,3.5999985,1.6000061.9000015,3.6000061,1.4000015,6.1000061,1.4000015s4.5-.5,6.1999969-1.4000015,2.3999939-2.1999969,2.3999939-3.8000031-.3000031-2-1-2.6999969-1.6999969-1.4000015-3-1.8000031-2.8000031-.5999985-4.5-.5999985c-2.3000031,0-4.3999939.4000015-6,1.1999969-1.6999969.8000031-2.5999985,2.1999969-2.5999985,4.0999985l-.1000061.0000076ZM151.8000031,124v-12.9000015h3.3000031v11.3000031h12.3000031v1.5h-15.6000061v.0999985ZM170.3999939,117.8000031c0-2.0999985,1.1000061-3.8000031,3.3999939-5,2.3000031-1.1999969,5.1000061-1.8000031,8.6000061-1.8000031s4.3999939.3000031,6.1999969.8000031,3.3000031,1.4000015,4.1999969,2.4000015c1,1,1.3999939,2.1999969,1.3999939,3.4000015s-.5,2.5-1.5,3.5-2.5,1.8000031-4.3999939,2.3000031-3.8999939.8000031-6.1000061.8000031-4.5-.3000031-6.3000031-.9000015c-1.8999939-.5999985-3.3000031-1.4000015-4.1999969-2.4000015s-1.3999939-2.0999985-1.3999939-3.1999969h0l.1000061.0999908ZM173.8000031,117.8000031c0,1.5999985.8000031,2.6999969,2.5,3.5999985s3.6000061,1.4000015,6.1000061,1.4000015,4.5-.5,6.1999969-1.4000015,2.3999939-2.1999969,2.3999939-3.8000031-.3000031-2-1-2.6999969-1.6999969-1.4000015-3-1.8000031-2.8000031-.5999985-4.5-.5999985c-2.3000031,0-4.3999939.4000015-6,1.1999969-1.8000031.8000031-2.6000061,2.1999969-2.6000061,4.0999985h0l-.0999908.0000076ZM210.3999939,119v-1.5h10.6000061v4.8000031c-1.6000061.6999969-3.3000031,1.1999969-5.1000061,1.5-1.6999969.3000031-3.5.5-5.3000031.5s-4.6999969-.3000031-6.6999969-.8000031-3.6000061-1.3000031-4.6000061-2.3000031-1.5-2.1999969-1.5-3.4000015.5-2.4000015,1.5-3.5,2.5-1.9000015,4.3999939-2.4000015,4.1000061-.8000031,6.6000061-.8000031,3.3999939.0999985,4.8999939.5c1.3999939.3000031,2.6000061.8000031,3.3999939,1.1999969.8000031.5,1.3999939,1.1999969,1.8999939,2.0999985l-3,.4000015c-.3000031-.6999969-.8000031-1.1999969-1.3999939-1.5999985-.5-.3000031-1.3999939-.6999969-2.3999939-.9000015s-2.1999969-.3000031-3.3999939-.3000031-2.8000031.0999985-3.8999939.3000031-2,.5-2.6999969,1c-.6999969.4000015-1.1999969.8000031-1.6000061,1.3000031-.6000061.8000031-1,1.5999985-1,2.5999985s.3999939,2.0999985,1.1999969,2.9000015,1.8999939,1.4000015,3.3999939,1.6999969,3,.5,4.6999969.5,2.8000031-.0999985,4.1999969-.4000015,2.3999939-.5999985,3.1000061-.9000015v-2.4000015h-7.3000031l.0000153-.0999832ZM233,124v-5.4000015l-9.6999969-7.4000015h4l4.8999939,3.9000015c.8999939.8000031,1.8000031,1.4000015,2.5,2.1999969.8000031-.6999969,1.6000061-1.4000015,2.6999969-2.3000031l4.8999939-3.8000031h3.8000031l-10,7.4000015v5.4000015h-3.3000031l.2000122.0000076Z"/>
        </g>
      </g>
    </g>
  </g>
</svg>
