<?xml version="1.0" encoding="UTF-8" standalone="no"?>
<!DOCTYPE svg PUBLIC "-//W3C//DTD SVG 1.1//EN" "http://www.w3.org/Graphics/SVG/1.1/DTD/svg11.dtd">
<svg xmlns="http://www.w3.org/2000/svg" version="1.1" viewBox="0 0 1758 595" width="1758.0pt" height="595.0pt">
<path d="M 0.00 0.00 L 1758.00 0.00 L 1758.00 595.00 L 1615.80 595.00 C 1627.58 594.73 1639.31 594.23 1650.99 592.66 C 1662.46 591.58 1673.97 589.27 1684.82 585.36 C 1698.39 580.21 1711.30 571.81 1720.63 560.61 C 1734.22 544.71 1740.12 522.62 1739.68 502.00 C 1739.83 491.99 1739.04 482.16 1736.27 472.51 C 1730.66 451.20 1716.10 432.52 1696.14 422.90 C 1686.39 418.04 1675.72 416.26 1665.01 414.71 C 1657.64 414.51 1650.39 413.41 1643.00 413.58 C 1607.86 413.60 1572.69 413.44 1537.56 413.66 C 1537.36 409.16 1536.35 405.33 1537.09 400.99 C 1537.80 397.25 1536.43 393.73 1536.93 390.02 C 1537.39 386.01 1536.36 382.04 1536.73 378.00 C 1537.21 372.75 1537.41 367.83 1539.81 363.06 C 1544.02 353.23 1553.41 346.21 1563.89 344.45 C 1566.90 344.11 1569.98 344.25 1573.00 344.23 C 1621.66 344.25 1670.35 344.21 1719.00 344.25 C 1720.66 344.34 1722.05 343.82 1723.59 343.32 C 1722.88 337.01 1722.29 330.94 1719.92 325.00 C 1712.51 304.76 1692.68 289.97 1671.00 289.49 C 1632.35 289.37 1593.66 289.47 1555.00 289.44 C 1541.68 289.35 1528.50 292.50 1516.73 298.75 C 1507.52 303.86 1499.01 310.04 1492.18 318.13 C 1479.84 332.69 1472.04 351.80 1472.31 371.00 C 1472.27 400.67 1472.32 430.34 1472.29 460.00 C 1472.22 462.58 1472.27 465.12 1472.54 467.69 C 1510.01 467.46 1547.53 467.67 1585.00 467.60 C 1596.62 467.60 1608.27 467.55 1619.88 467.84 C 1627.29 468.89 1634.66 467.94 1642.02 469.61 C 1655.18 470.78 1665.14 483.51 1666.72 496.00 C 1668.65 505.08 1667.84 514.94 1663.23 523.12 C 1660.22 528.91 1655.01 533.63 1648.87 535.88 C 1644.36 537.44 1639.75 538.44 1634.99 538.80 C 1627.06 540.12 1619.04 540.68 1611.00 540.60 C 1564.80 540.60 1518.60 540.63 1472.40 540.58 C 1472.06 558.71 1472.58 576.89 1472.14 595.00 L 810.53 595.00 C 810.89 590.32 810.69 585.69 810.74 581.00 C 810.73 498.00 810.75 415.00 810.73 332.00 C 810.79 321.72 807.22 311.46 799.98 304.03 C 794.09 298.17 786.79 294.47 778.87 292.16 C 769.26 289.24 758.76 288.42 748.77 288.40 C 748.87 361.26 748.77 434.14 748.82 507.00 C 748.84 510.02 748.82 513.04 748.65 516.06 C 718.40 459.12 687.98 402.24 657.67 345.33 C 650.99 333.01 644.65 319.93 636.42 308.56 C 631.00 300.98 624.14 294.77 615.14 291.83 C 603.34 287.95 589.33 288.35 577.00 288.28 C 565.82 288.46 554.60 288.06 543.43 288.48 C 543.53 291.32 543.55 294.16 543.53 297.00 C 543.49 396.21 543.56 495.42 543.49 594.62 C 564.40 594.67 585.30 594.65 606.20 594.63 L 606.20 595.00 L 500.82 595.00 C 500.65 592.25 499.37 590.01 498.34 587.52 C 442.25 451.98 386.16 316.44 330.09 180.89 C 323.28 163.34 310.51 148.27 294.28 138.72 C 281.02 130.90 265.42 126.63 250.00 127.13 C 231.12 127.21 212.20 126.99 193.33 127.24 C 146.67 239.83 100.01 352.71 53.40 465.35 C 35.74 508.12 17.93 550.85 0.38 593.66 L 0.00 593.23 L 0.00 0.00 Z" fill="#ffffff" />
<path d="M 1282.08 0.95 C 1316.18 -2.43 1350.07 4.68 1382.06 16.15 C 1402.32 23.58 1422.14 32.49 1441.04 42.93 C 1488.44 68.20 1535.83 93.48 1583.21 118.79 C 1633.99 146.21 1684.82 173.76 1735.58 201.24 C 1739.03 203.05 1742.40 204.14 1745.58 206.40 C 1755.16 212.99 1759.87 225.80 1756.70 237.01 C 1754.28 246.20 1747.07 253.89 1737.99 256.74 C 1729.84 259.51 1720.69 258.22 1713.52 253.50 C 1708.20 249.96 1702.47 247.27 1696.92 244.13 C 1637.76 212.27 1578.85 179.93 1519.53 148.36 C 1481.96 128.34 1444.41 108.22 1406.84 88.19 C 1400.74 84.72 1394.24 82.10 1387.94 78.99 C 1365.92 69.09 1341.97 60.56 1317.98 57.29 C 1307.79 55.79 1297.26 56.14 1287.00 56.57 C 1269.14 58.60 1252.29 64.27 1236.25 72.29 C 1212.83 83.93 1190.48 99.32 1168.57 113.59 C 1140.47 132.14 1111.79 150.25 1081.99 165.99 C 1070.32 171.60 1058.99 178.02 1047.07 183.03 C 1034.81 188.31 1022.70 193.82 1010.00 198.02 C 996.42 203.33 982.40 207.03 968.42 211.08 C 960.29 212.94 952.13 214.69 944.00 216.52 C 924.07 219.90 904.26 222.77 884.00 222.85 C 872.81 224.05 862.13 222.59 851.00 222.43 C 843.25 222.21 835.70 220.72 827.98 220.22 C 796.90 215.92 766.44 207.84 737.14 196.61 C 715.58 188.69 696.62 178.89 673.89 174.10 C 660.42 171.07 646.62 170.86 632.98 172.84 C 618.18 175.45 603.87 180.26 589.99 185.96 C 570.04 194.18 551.11 203.95 532.11 214.13 C 515.65 223.17 498.96 232.14 483.09 242.16 C 476.70 245.68 469.05 246.66 461.99 244.82 C 451.22 242.14 442.78 232.75 441.09 221.80 C 439.31 211.21 444.09 199.96 452.97 193.92 C 456.50 191.33 460.50 190.42 464.23 188.25 C 491.58 172.72 518.56 157.58 547.01 144.07 C 566.82 134.88 586.74 126.56 608.03 121.30 C 634.35 114.32 662.51 114.05 688.99 120.35 C 707.26 124.53 724.31 131.33 741.57 138.45 C 766.31 148.70 791.66 157.03 817.98 162.09 C 825.37 163.11 832.53 164.95 840.00 165.44 C 853.23 166.85 866.71 167.82 880.00 167.39 C 889.43 167.60 898.59 166.14 908.00 165.56 C 915.74 164.68 923.42 163.22 931.14 162.20 C 939.60 160.29 948.12 158.57 956.53 156.45 C 964.68 153.94 972.98 151.84 981.07 149.13 C 991.21 145.24 1001.67 142.04 1011.54 137.53 C 1020.78 133.50 1030.12 129.79 1039.01 125.00 C 1071.99 109.21 1103.79 89.22 1134.35 69.17 C 1163.17 50.32 1191.93 30.38 1223.48 16.51 C 1242.02 8.58 1261.96 2.79 1282.08 0.95 Z" fill="#2a8938" />
<path d="M 1647.64 79.86 C 1658.96 79.77 1670.29 79.89 1681.61 79.78 C 1681.78 81.97 1681.78 84.08 1681.59 86.27 C 1677.18 86.19 1672.77 86.20 1668.36 86.28 C 1668.31 99.91 1668.46 113.55 1668.29 127.18 C 1665.90 127.29 1663.55 127.26 1661.17 127.09 C 1661.22 115.40 1661.14 103.70 1661.21 92.00 C 1661.21 90.06 1661.02 88.14 1660.80 86.21 C 1656.42 86.23 1652.04 86.25 1647.66 86.20 C 1647.61 84.08 1647.60 81.97 1647.64 79.86 Z" fill="#2a8938" />
<path d="M 1690.48 79.83 C 1693.30 79.76 1696.17 79.68 1698.97 80.02 C 1699.78 80.82 1700.11 82.12 1700.57 83.15 C 1704.86 94.45 1709.94 105.49 1713.87 116.91 C 1718.82 104.55 1724.01 92.29 1729.05 79.97 C 1732.37 79.74 1735.69 79.77 1739.02 79.98 C 1739.39 84.67 1738.92 89.31 1738.89 94.00 C 1739.34 103.31 1739.08 112.68 1739.06 121.99 C 1739.00 123.56 1739.37 125.38 1738.79 126.85 C 1736.69 127.65 1733.96 127.12 1731.73 127.16 C 1731.53 114.10 1731.81 101.04 1731.60 87.99 C 1730.79 91.19 1729.76 94.15 1728.42 97.16 C 1724.83 105.94 1721.22 114.71 1717.69 123.52 C 1717.16 124.60 1716.83 126.11 1715.93 126.93 C 1714.05 127.62 1711.15 127.66 1710.57 125.21 C 1705.60 112.71 1699.99 100.28 1695.49 87.65 C 1696.08 100.76 1695.65 113.94 1695.80 127.07 C 1693.87 127.20 1691.83 127.42 1689.91 127.18 C 1688.32 126.44 1688.92 124.41 1688.77 123.00 C 1688.82 109.16 1688.79 95.31 1688.77 81.47 C 1688.99 80.54 1689.56 79.99 1690.48 79.83 Z" fill="#2a8938" />
<path d="M 193.33 127.24 C 212.20 126.99 231.12 127.21 250.00 127.13 C 265.42 126.63 281.02 130.90 294.28 138.72 C 310.51 148.27 323.28 163.34 330.09 180.89 C 386.16 316.44 442.25 451.98 498.34 587.52 C 499.37 590.01 500.65 592.25 500.82 595.00 L 384.96 595.00 C 369.49 559.06 354.47 522.74 339.12 486.73 C 281.42 486.69 223.71 486.74 166.00 486.71 C 164.67 486.71 163.34 486.75 162.01 486.82 C 147.01 522.31 131.98 557.82 117.08 593.34 C 114.15 595.05 111.25 594.36 108.00 594.47 C 75.00 594.44 42.00 594.45 9.00 594.46 C 6.25 594.37 2.87 594.93 0.38 593.66 C 17.93 550.85 35.74 508.12 53.40 465.35 C 100.01 352.71 146.67 239.83 193.33 127.24 Z" fill="#1a2f64" />
<path d="M 251.35 241.12 C 272.03 292.17 292.93 343.14 313.68 394.17 C 314.91 397.14 316.23 400.04 317.06 403.16 C 273.02 403.28 228.92 403.31 184.88 403.15 C 185.59 400.28 186.74 397.59 187.89 394.88 C 208.25 344.94 228.70 294.90 248.99 244.94 C 249.63 243.83 249.89 241.30 251.35 241.12 Z" fill="#ffffff" />
<path d="M 577.00 288.28 C 589.33 288.35 603.34 287.95 615.14 291.83 C 624.14 294.77 631.00 300.98 636.42 308.56 C 644.65 319.93 650.99 333.01 657.67 345.33 C 687.98 402.24 718.40 459.12 748.65 516.06 C 748.82 513.04 748.84 510.02 748.82 507.00 C 748.77 434.14 748.87 361.26 748.77 288.40 C 758.76 288.42 769.26 289.24 778.87 292.16 C 786.79 294.47 794.09 298.17 799.98 304.03 C 807.22 311.46 810.79 321.72 810.73 332.00 C 810.75 415.00 810.73 498.00 810.74 581.00 C 810.69 585.69 810.89 590.32 810.53 595.00 L 731.07 595.00 C 689.41 520.41 648.01 445.47 606.30 370.92 C 606.16 445.48 606.35 520.08 606.20 594.63 C 585.30 594.65 564.40 594.67 543.49 594.62 C 543.56 495.42 543.49 396.21 543.53 297.00 C 543.55 294.16 543.53 291.32 543.43 288.48 C 554.60 288.06 565.82 288.46 577.00 288.28 Z" fill="#1a2f64" />
<path d="M 853.33 288.37 C 897.54 288.34 941.80 288.11 986.00 288.51 C 1009.49 289.22 1035.44 291.52 1056.68 302.33 C 1074.18 310.81 1089.09 324.32 1098.81 341.20 C 1105.97 353.27 1110.01 366.26 1113.33 379.81 C 1122.16 416.74 1122.68 455.75 1115.95 493.07 C 1112.27 511.26 1107.36 530.83 1098.01 547.00 C 1090.30 560.56 1079.45 572.15 1065.72 579.71 C 1048.12 589.91 1029.04 592.87 1008.99 593.73 C 1000.68 594.49 992.36 594.40 984.00 594.64 C 943.33 594.65 902.67 594.64 862.00 594.65 C 859.05 594.68 856.11 594.69 853.17 594.48 C 853.34 590.32 853.26 586.16 853.27 582.00 C 853.31 484.44 853.19 385.80 853.33 288.37 Z" fill="#1a2f64" />
<path d="M 1313.00 288.31 C 1332.27 288.33 1351.55 288.25 1370.82 288.36 C 1387.13 288.42 1403.24 294.55 1414.69 306.33 C 1424.55 316.03 1430.14 329.46 1430.20 343.29 C 1396.13 343.38 1362.06 343.29 1328.00 343.34 C 1321.27 343.44 1314.57 343.56 1307.88 344.25 C 1297.97 345.22 1287.68 346.31 1278.47 350.31 C 1266.22 355.50 1256.36 365.71 1250.56 377.57 C 1247.16 384.47 1246.27 391.50 1245.08 399.01 C 1244.44 404.28 1243.65 409.50 1243.37 414.81 C 1305.56 414.99 1367.86 414.70 1430.04 414.96 C 1430.24 433.27 1430.12 451.61 1430.10 469.93 C 1367.88 469.91 1305.65 469.98 1243.43 469.89 C 1244.94 487.35 1250.24 507.22 1263.15 519.83 C 1271.62 528.14 1282.54 532.35 1293.86 535.19 C 1307.80 538.58 1322.69 539.55 1337.00 539.87 C 1368.04 539.93 1399.08 539.83 1430.11 539.91 C 1430.19 558.13 1430.07 576.35 1430.17 594.56 C 1396.79 594.76 1363.38 594.60 1330.00 594.64 C 1313.67 594.21 1297.22 593.71 1281.01 591.67 C 1260.39 589.63 1239.90 583.90 1222.35 572.64 C 1204.59 561.35 1191.28 544.92 1181.54 526.44 C 1170.43 505.12 1165.00 480.88 1163.45 457.00 C 1161.92 434.96 1163.24 412.27 1168.74 390.83 C 1174.91 366.72 1186.98 344.26 1204.42 326.42 C 1216.25 314.14 1229.97 304.03 1245.85 297.61 C 1266.47 289.26 1291.04 288.58 1313.00 288.31 Z" fill="#1a2f64" />
<path d="M 1555.00 289.44 C 1593.66 289.47 1632.35 289.37 1671.00 289.49 C 1692.68 289.97 1712.51 304.76 1719.92 325.00 C 1722.29 330.94 1722.88 337.01 1723.59 343.32 C 1722.05 343.82 1720.66 344.34 1719.00 344.25 C 1670.35 344.21 1621.66 344.25 1573.00 344.23 C 1569.98 344.25 1566.90 344.11 1563.89 344.45 C 1553.41 346.21 1544.02 353.23 1539.81 363.06 C 1537.41 367.83 1537.21 372.75 1536.73 378.00 C 1536.36 382.04 1537.39 386.01 1536.93 390.02 C 1536.43 393.73 1537.80 397.25 1537.09 400.99 C 1536.35 405.33 1537.36 409.16 1537.56 413.66 C 1572.69 413.44 1607.86 413.60 1643.00 413.58 C 1650.39 413.41 1657.64 414.51 1665.01 414.71 C 1675.72 416.26 1686.39 418.04 1696.14 422.90 C 1716.10 432.52 1730.66 451.20 1736.27 472.51 C 1739.04 482.16 1739.83 491.99 1739.68 502.00 C 1740.12 522.62 1734.22 544.71 1720.63 560.61 C 1711.30 571.81 1698.39 580.21 1684.82 585.36 C 1673.97 589.27 1662.46 591.58 1650.99 592.66 C 1639.31 594.23 1627.58 594.73 1615.80 595.00 L 1472.14 595.00 C 1472.58 576.89 1472.06 558.71 1472.40 540.58 C 1518.60 540.63 1564.80 540.60 1611.00 540.60 C 1619.04 540.68 1627.06 540.12 1634.99 538.80 C 1639.75 538.44 1644.36 537.44 1648.87 535.88 C 1655.01 533.63 1660.22 528.91 1663.23 523.12 C 1667.84 514.94 1668.65 505.08 1666.72 496.00 C 1665.14 483.51 1655.18 470.78 1642.02 469.61 C 1634.66 467.94 1627.29 468.89 1619.88 467.84 C 1608.27 467.55 1596.62 467.60 1585.00 467.60 C 1547.53 467.67 1510.01 467.46 1472.54 467.69 C 1472.27 465.12 1472.22 462.58 1472.29 460.00 C 1472.32 430.34 1472.27 400.67 1472.31 371.00 C 1472.04 351.80 1479.84 332.69 1492.18 318.13 C 1499.01 310.04 1507.52 303.86 1516.73 298.75 C 1528.50 292.50 1541.68 289.35 1555.00 289.44 Z" fill="#eeab26" />
<path d="M 915.13 343.37 C 933.04 343.26 951.07 343.36 969.00 343.32 C 975.77 343.37 982.78 343.12 989.49 343.79 C 1001.10 345.17 1012.69 347.83 1022.45 354.58 C 1031.16 360.37 1037.19 370.38 1041.27 379.81 C 1049.00 397.91 1052.18 417.41 1052.72 437.00 C 1053.20 458.52 1050.24 480.65 1042.61 500.85 C 1039.73 508.27 1035.98 515.75 1030.86 521.89 C 1025.79 527.73 1018.76 531.88 1011.56 534.54 C 1001.04 538.44 989.16 539.63 978.00 539.88 C 956.97 539.90 935.92 539.88 914.89 539.89 C 914.78 476.60 914.89 413.29 914.83 350.00 C 914.87 347.83 914.62 345.49 915.13 343.37 Z" fill="#ffffff" />
<path d="M 606.30 370.92 C 648.01 445.47 689.41 520.41 731.07 595.00 L 606.20 595.00 L 606.20 594.63 C 606.35 520.08 606.16 445.48 606.30 370.92 Z" fill="#ffffff" />
<path d="M 162.01 486.82 C 163.34 486.75 164.67 486.71 166.00 486.71 C 223.71 486.74 281.42 486.69 339.12 486.73 C 354.47 522.74 369.49 559.06 384.96 595.00 L 116.19 595.00 L 117.08 593.34 C 131.98 557.82 147.01 522.31 162.01 486.82 Z" fill="#ffffff" />
<path d="M 0.00 593.23 L 0.38 593.66 C 2.87 594.93 6.25 594.37 9.00 594.46 C 42.00 594.45 75.00 594.44 108.00 594.47 C 111.25 594.36 114.15 595.05 117.08 593.34 L 116.19 595.00 L 0.00 595.00 L 0.00 593.23 Z" fill="#2a8938" />
</svg>