<?xml version="1.0" standalone="no"?>
<!DOCTYPE svg PUBLIC "-//W3C//DTD SVG 20010904//EN"
 "http://www.w3.org/TR/2001/REC-SVG-20010904/DTD/svg10.dtd">
<svg version="1.0" xmlns="http://www.w3.org/2000/svg"
 width="297.000000pt" height="217.000000pt" viewBox="0 0 297.000000 217.000000"
 preserveAspectRatio="xMidYMid meet">
<metadata>
Created by potrace 1.16, written by Peter Selinger 2001-2019
</metadata>
<g transform="translate(0.000000,217.000000) scale(0.100000,-0.100000)"
fill="#000000" stroke="none">
<path d="M2384 2134 c-4 -10 -13 -34 -20 -53 -8 -18 -14 -55 -14 -81 l0 -47
-92 -41 c-51 -22 -105 -44 -120 -47 -56 -14 -14 -25 98 -25 l114 0 0 -32 c0
-32 -4 -35 -95 -75 -52 -24 -115 -48 -140 -55 -25 -7 -45 -16 -45 -20 0 -4 62
-9 138 -10 l137 -3 3 -38 c3 -29 -1 -39 -15 -43 -10 -4 -56 -23 -103 -44 -47
-21 -102 -43 -122 -50 -69 -21 -40 -30 102 -30 l140 0 0 -53 c0 -41 -19 -103
-86 -287 -127 -346 -155 -424 -157 -435 -1 -6 99 -12 278 -15 l280 -5 2 -25
c3 -21 -5 -29 -39 -45 -77 -36 -113 -120 -106 -240 11 -164 117 -252 278 -230
66 9 109 40 142 100 15 28 28 52 28 56 0 6 -89 39 -107 39 -6 0 -20 -17 -30
-37 -36 -69 -129 -68 -158 2 -29 69 -9 215 30 215 8 0 27 -40 45 -95 17 -52
36 -97 41 -100 14 -9 11 5 -21 101 -38 114 -38 118 3 110 29 -5 60 -30 69 -55
3 -9 101 8 112 20 4 3 0 22 -9 41 -29 71 -109 112 -203 107 l-47 -3 -37 109
c-20 61 -77 227 -125 370 -74 216 -88 268 -85 308 l4 47 125 0 c82 0 123 4
121 10 -2 6 -40 24 -85 40 -92 32 -160 67 -167 86 -3 7 -1 25 3 41 l7 28 122
3 c67 1 122 6 122 10 0 5 -33 19 -72 31 -83 27 -159 63 -174 83 -6 7 -10 24
-10 38 1 25 2 25 104 28 95 2 129 14 85 28 -79 26 -175 69 -181 83 -5 9 -8 30
-7 46 2 30 -30 132 -46 149 -5 6 -11 1 -15 -10z m42 -754 c1 -30 9 -75 18 -99
26 -69 24 -71 -49 -71 -36 0 -65 4 -65 9 0 5 9 30 20 56 13 29 20 69 20 106 0
60 0 60 28 57 26 -3 27 -6 28 -58z m46 -370 c34 -44 65 -85 66 -90 2 -6 -52
-10 -142 -10 -81 0 -146 4 -146 9 0 10 142 170 152 170 3 1 35 -35 70 -79z
m-183 -169 l73 -38 -108 -57 c-59 -31 -109 -54 -111 -52 -6 6 58 186 66 186 3
0 39 -17 80 -39z m324 -54 c16 -49 27 -90 25 -92 -6 -6 -210 99 -212 108 -2
10 126 76 143 74 8 -1 26 -38 44 -90z m-119 -49 c58 -29 103 -55 100 -59 -6
-10 -414 -11 -414 -1 0 6 184 107 202 111 4 0 55 -22 112 -51z"/>
<path d="M305 1289 c-9 -14 1 -108 21 -214 30 -149 112 -347 198 -474 l36 -53
0 -219 0 -219 65 0 65 0 0 130 c0 72 3 130 8 130 4 0 45 -59 91 -130 l84 -130
79 0 c65 0 88 -4 131 -26 128 -66 276 -95 377 -75 83 17 163 55 200 97 33 38
40 41 40 19 0 -12 14 -15 70 -15 l70 0 0 185 0 184 73 3 72 3 3 58 3 57 -160
0 -160 0 -32 63 c-36 74 -130 208 -219 313 -50 60 -60 78 -54 96 6 21 5 21
-10 9 -15 -13 -25 -7 -89 55 -143 139 -163 154 -204 154 -36 -1 -37 -1 -18
-16 68 -51 225 -201 233 -223 1 -4 -49 -32 -113 -62 -63 -30 -115 -57 -115
-60 0 -4 30 -12 67 -19 54 -11 74 -20 108 -51 23 -22 46 -39 51 -39 5 0 20 34
34 76 13 41 28 78 32 80 16 10 248 -330 248 -363 0 -7 -9 -13 -20 -13 -19 0
-21 -5 -18 -57 l3 -58 52 -3 c58 -3 58 -4 69 -111 13 -117 -34 -215 -114 -242
-38 -13 -172 -16 -191 -5 -7 5 -11 67 -11 182 l0 174 75 0 75 0 0 60 0 60
-217 -2 -218 -3 0 -55 0 -55 73 -3 72 -3 0 -149 c0 -83 -4 -150 -8 -150 -4 0
-53 30 -107 68 l-100 67 -1 130 c-1 72 -2 136 -3 143 -1 9 -18 12 -63 10 l-63
-3 -5 -80 -5 -80 -69 80 c-177 206 -297 455 -340 705 l-12 75 -66 3 c-42 2
-69 -1 -73 -9z"/>
<path d="M126 463 c-27 -76 -66 -182 -87 -237 -22 -54 -39 -102 -39 -107 0 -6
32 -9 72 -7 l72 3 9 38 9 37 87 0 87 0 10 -37 9 -38 73 -3 c41 -2 72 1 72 7 0
5 -36 110 -80 233 -45 123 -83 229 -85 236 -3 8 -29 12 -82 12 l-78 0 -49
-137z"/>
<path d="M2060 355 l0 -245 195 0 195 0 0 55 0 55 -125 0 -125 0 0 50 0 50
115 0 115 0 0 45 c0 25 -3 45 -7 45 -5 1 -55 2 -113 3 l-105 2 -3 42 -3 42
123 3 123 3 0 45 0 45 -192 3 -193 2 0 -245z"/>
</g>
</svg>
