<?xml version="1.0" encoding="utf-8"?>
<!-- Generator: Adobe Illustrator 14.0.0, SVG Export Plug-In . SVG Version: 6.00 Build 43363)  -->
<!DOCTYPE svg PUBLIC "-//W3C//DTD SVG 1.1//EN" "http://www.w3.org/Graphics/SVG/1.1/DTD/svg11.dtd">
<svg version="1.1" id="Layer_1" xmlns="http://www.w3.org/2000/svg" xmlns:xlink="http://www.w3.org/1999/xlink" x="0px" y="0px"
	 width="360px" height="360px" viewBox="0 0 360 360" enable-background="new 0 0 360 360" xml:space="preserve">
<polygon fill="#D91F2B" points="101.157,157.23 104.085,152.16 101.157,147.087 95.301,147.087 92.373,152.16 95.301,157.23 "/>
<polygon fill="#D91F2B" points="100.285,169.892 102.341,166.331 100.285,162.771 96.174,162.771 94.118,166.331 96.174,169.892 "/>
<polygon fill="#D91F2B" points="95.01,174.929 91.792,180.504 95.01,186.079 101.447,186.079 104.667,180.504 101.447,174.929 "/>
<polygon fill="#D91F2B" points="95.301,189.604 92.374,194.676 95.301,199.747 101.157,199.747 104.085,194.676 101.157,189.604 "/>
<polygon fill="#D91F2B" points="95.883,204.784 93.536,208.848 95.883,212.912 100.576,212.912 102.922,208.848 100.576,204.784 "/>
<polygon fill="#D91F2B" points="89.163,164.82 92.382,159.245 89.163,153.67 82.726,153.67 79.507,159.245 82.726,164.82 "/>
<polygon fill="#D91F2B" points="88.291,177.482 90.637,173.418 88.291,169.354 83.598,169.354 81.25,173.418 83.598,177.482 "/>
<polygon fill="#D91F2B" points="88.581,192.157 91.218,187.59 88.581,183.021 83.307,183.021 80.669,187.59 83.307,192.157 "/>
<polygon fill="#D91F2B" points="88.581,197.194 83.307,197.194 80.669,201.762 83.307,206.33 88.581,206.33 91.218,201.762 "/>
<polygon fill="#D91F2B" points="76.877,171.907 80.096,166.332 76.877,160.757 70.44,160.757 67.221,166.332 70.44,171.907 "/>
<polygon fill="#D91F2B" points="76.877,186.079 80.096,180.503 76.877,174.929 70.44,174.929 67.221,180.503 70.44,186.079 "/>
<polygon fill="#D91F2B" points="76.586,189.604 70.73,189.604 67.802,194.676 70.73,199.747 76.586,199.747 79.514,194.676 "/>
<polygon fill="#D91F2B" points="107.848,154.677 105.211,159.245 107.848,163.813 113.122,163.813 115.76,159.245 113.122,154.677 
	"/>
<polygon fill="#D91F2B" points="112.25,176.475 114.015,173.417 112.25,170.36 108.72,170.36 106.955,173.417 108.72,176.475 "/>
<polygon fill="#D91F2B" points="107.848,183.021 105.211,187.59 107.848,192.157 113.122,192.157 115.76,187.59 113.122,183.021 "/>
<polygon fill="#D91F2B" points="108.429,198.201 106.373,201.762 108.429,205.322 112.54,205.322 114.596,201.762 112.54,198.201 
	"/>
<polygon fill="#D91F2B" points="125.006,170.396 127.353,166.332 125.006,162.268 120.313,162.268 117.967,166.332 120.313,170.396 
	"/>
<polygon fill="#D91F2B" points="124.715,176.943 120.604,176.943 118.548,180.504 120.604,184.064 124.715,184.064 126.771,180.504 
	"/>
<polygon fill="#D91F2B" points="120.895,191.619 119.129,194.676 120.895,197.732 124.424,197.732 126.189,194.676 124.424,191.619 
	"/>
<g>
	<defs>
		<rect id="SVGID_1_" width="360" height="360"/>
	</defs>
	<clipPath id="SVGID_2_">
		<use xlink:href="#SVGID_1_"  overflow="visible"/>
	</clipPath>
	<path clip-path="url(#SVGID_2_)" fill="#751012" d="M165.201,167.534c0.871-1.005,1.944-1.207,2.815-1.207
		c0.939,0,1.677,0.269,2.48,1.207l22.931,27.421c0.402,0.47,0.536,0.805,0.536,1.072c0,1.073-1.207,1.878-2.481,1.878
		c-0.871,0-1.407-0.269-1.943-0.871L167.95,171.02l-21.79,26.015c-0.537,0.603-1.073,0.871-1.945,0.871
		c-1.273,0-2.481-0.805-2.481-1.878c0-0.268,0.136-0.603,0.537-1.072L165.201,167.534z"/>
	<path clip-path="url(#SVGID_2_)" fill="#751012" d="M199.869,176.719c0-6.704,5.631-10.056,16.827-10.056h6.17
		c1.474,0,2.278,0.602,2.278,1.743c0,1.14-0.805,1.743-2.278,1.743h-6.17c-7.978,0-12.068,2.145-12.068,6.436v19.577
		c0,1.14-0.805,1.744-2.345,1.744c-1.543,0-2.414-0.604-2.414-1.744V176.719z"/>
	<path clip-path="url(#SVGID_2_)" fill="#751012" d="M235.536,160.36c-1.877,0-2.749-0.805-2.749-2.346
		c0-1.543,0.872-2.347,2.749-2.347c1.81,0,2.75,0.804,2.75,2.347C238.286,159.555,237.346,160.36,235.536,160.36 M233.124,168.07
		c0-1.139,0.871-1.743,2.345-1.743c1.609,0,2.414,0.604,2.414,1.743v28.092c0,1.14-0.805,1.743-2.347,1.743
		c-1.541,0-2.412-0.604-2.412-1.743V168.07z"/>
	<path clip-path="url(#SVGID_2_)" fill="#751012" d="M252.168,152.315c0-1.14,0.872-1.744,2.348-1.744
		c1.609,0,2.414,0.604,2.414,1.744v43.847c0,1.14-0.805,1.743-2.348,1.743c-1.542,0-2.414-0.604-2.414-1.743V152.315z"/>
	<path clip-path="url(#SVGID_2_)" fill="#751012" d="M270.079,191.757c-0.427,0-0.636-0.175-0.636-0.525
		c0-0.35,0.209-0.525,0.636-0.525c0.415,0,0.634,0.176,0.634,0.525C270.713,191.582,270.494,191.757,270.079,191.757
		 M269.499,192.992c0-0.295,0.196-0.458,0.58-0.458c0.382,0,0.58,0.163,0.58,0.458v4.51c0,0.307-0.198,0.46-0.58,0.46
		c-0.384,0-0.58-0.153-0.58-0.46V192.992z"/>
	<path clip-path="url(#SVGID_2_)" fill="#751012" d="M279.34,194.328c0-0.568-0.547-0.842-1.631-0.842h-2.188
		c-1.072,0-1.622,0.273-1.622,0.842v3.174c0,0.307-0.196,0.46-0.579,0.46s-0.579-0.153-0.579-0.46v-3.174
		c0-1.16,0.94-1.739,2.823-1.739h2.113c1.881,0,2.823,0.579,2.823,1.739v3.174c0,0.307-0.197,0.46-0.581,0.46s-0.58-0.153-0.58-0.46
		V194.328z"/>
	<path clip-path="url(#SVGID_2_)" fill="#751012" d="M285.366,197.907c-1.893,0-2.835-0.58-2.835-1.729v-1.85
		c0-1.16,0.942-1.739,2.835-1.739h3.785c0.374,0,0.569,0.152,0.569,0.449c0,0.295-0.195,0.448-0.569,0.448h-3.829
		c-1.074,0-1.621,0.273-1.621,0.832v1.871c0,0.547,0.547,0.83,1.621,0.83h3.829c0.374,0,0.569,0.144,0.569,0.439
		c0,0.295-0.195,0.448-0.569,0.448H285.366z"/>
	<path clip-path="url(#SVGID_2_)" fill="#751012" d="M292.124,197.962c-0.427,0-0.647-0.175-0.647-0.537
		c0-0.359,0.221-0.535,0.657-0.535c0.427,0,0.646,0.176,0.646,0.535C292.779,197.787,292.561,197.962,292.124,197.962"/>
</g>
</svg>
