<?xml version="1.0" encoding="UTF-8"?><svg id="a" xmlns="http://www.w3.org/2000/svg" width="997.18" height="146.91" viewBox="0 0 997.18 146.91"><path d="m51.91,84.75h31.37l-8.47-41.25h-.31l-22.59,41.25Zm35.6,20.7h-47.05l-13.18,24H0L63.05,17.46h30.58l26.19,111.99h-27.45l-4.86-24Z"/><path d="m199.11,69.85c16.31,0,23.06-7.22,23.06-18.19,0-8.63-5.33-13.33-18.04-13.33h-21.96l-5.02,31.53h21.96Zm-58.03,59.6l17.72-111.99h52.23c24.47,0,37.8,11.92,37.8,31.84s-13.02,32.31-27.76,37.33l18.67,42.82h-28.23l-16.47-38.74h-21.17l-6.12,38.74h-26.66Z"/><polygon points="303.81 38.32 265.07 38.32 268.36 17.46 372.98 17.46 369.84 38.32 330.94 38.32 316.51 129.45 289.38 129.45 303.81 38.32"/><polygon points="394.93 17.46 479.78 17.46 476.49 38.32 418.14 38.32 414.38 62.79 465.51 62.79 462.06 83.65 411.08 83.65 407.16 108.43 466.29 108.43 463 129.45 377.21 129.45 394.93 17.46"/><path d="m547.84,69.85c16.31,0,23.06-7.22,23.06-18.19,0-8.63-5.33-13.33-18.04-13.33h-21.96l-5.02,31.53h21.96Zm-58.03,59.6l17.72-111.99h52.23c24.47,0,37.8,11.92,37.8,31.84s-13.02,32.31-27.76,37.33l18.67,42.82h-28.23l-16.47-38.74h-21.17l-6.12,38.74h-26.66Z"/><polygon points="659.36 17.46 641.63 129.45 614.5 129.45 632.22 17.46 659.36 17.46"/><path d="m698.41,94.94c.63,12.23,11.45,16.94,22.9,16.94,13.49,0,22.12-5.96,22.12-15.21,0-5.8-4.39-8.47-15.06-10.82l-19.45-4.24c-14.27-3.14-25.88-11.76-25.88-27.45,0-23.68,20.7-38.58,47.84-38.58,29.02,0,43.76,13.96,44.23,34.35h-25.09c-.47-9.1-8-14.9-20.55-14.9s-20.08,6.12-20.08,14.59c0,6.27,4.71,8.78,14.43,10.98l20.55,4.55c16.47,3.61,25.57,12.24,25.57,26.51,0,23.84-21.64,39.68-49.56,39.68s-47.84-12.86-48.15-36.39h26.19Z"/><rect x="824.08" width="146.91" height="146.91" fill="#fe5000"/><path d="m917.07,71.75c10.55,0,14.78-4.82,14.78-12.16,0-5.63-3.32-8.64-11.46-8.64h-13.37l-3.32,20.81h13.37Zm-15.48,13.37l-3.82,24.22h-17.09l11.36-71.77h31.96c15.58,0,25.13,7.14,25.13,20.3,0,17.69-12.97,27.24-32.16,27.24h-15.38Zm-22.81-47.54l-11.36,71.77h-17.39l11.36-71.77h17.39Z" fill="#fff"/></svg>