<svg xmlns="http://www.w3.org/2000/svg" role="img" viewBox="-9.82 -9.82 510.64 115.14"><g fill-opacity="1" fill-rule="nonzero" stroke="none" transform="matrix(1.33333 0 0 -1.33333 0 95.587) scale(.1)"><path fill="#fab70a" d="M904.461 695.586l6.984 1.992 15.188 9.457 5.984 1.703 7.5 6.422.891-2.32 5.097 4.023.786-4.918 14.941-4.304 24.359-23.043 8.043-12.27c12.436-9.301 16.216-13.363 27.136-27.383l2.19-2.804 1.86-10.606c.57-10.109-17.72-23.023-41.967-29.074l-33.523-7.832c-1.004-.285-6.289-.934-13.571-2.149-3.293-.078-11.574-1.582-21.554-4.425l-29.535-6.696-9.872-.242-9.062 3.418-63.145-8.558-84.996-12.207-29.429-4.098-19.848-3.082-44.996-6.817-10.274-2.07-22.148-2.879-8.98-2.554-70.344-15.747-117.824-18.984-21.547-4.426c-7.985-2.269-11.278-2.351-18.157-1.742l-.187 3.375 56.371 11.766 39.707 6.164 32.121 5.722 3.102 3.45 16.16 1.179 10.683 3.895-3.886 1.461-5.285-.649-3.289-.078-8.989-2.558-6.875.609-5.586.129c-5.285-.652-8.281-1.504-10.277-2.07l-9.574-1.016c-.996-.285-3.289-.078-7.281-1.219l-61.258-10.586-2.887 1.743 20.559 4.144 4.796 4.793 1.594-1.266 21.953 6.254-1.777 4.629-15.973-4.543-8.871.043-.89 2.317-3.586.691-23.254-5.766-10.254 6.504-17.047 1.141 35.121 6.574 18.258 4.34 50.793 11.895 29.238 7.464-16.75.371-37.816-8.199-8.282-1.504-18.156-1.742 13.977 3.981 5.207 6.621-38.41-6.657 21.953 6.254.297-.769 5.988 1.703-1.996-.57 5.285.648 3.695 1.91 8.582.727 33.524 7.832 28.836 5.64 36.117 6.86 17.559 3.289 74.316 8.308 10.379 4.668 2.703 1.625-1.891 2.032-5.988-1.703-12.648 4.105-65.442-8.355-48.387-9.497-10.281-2.062c-8.578-.734-8.578-.734-21.847-3.652-4.993-1.422-8.981-2.563-18.258-4.348l-5.992-1.703-2.289.203-4.993-1.418-.89 2.313-5.285-.649 60.367 12.902 33.929 9.664 119.411 17.727 7.582.441 32.421 4.954 75.118 11.961 70.754 17.574-4.266 8.207 3.996 1.14-.598 1.543 8.282 1.496 7.394 3.821-10.953 5.445s79.07 13.129 70.129 10.547"/><path fill="#be2519" d="M887.406 188.594c34.266-3.809 19.203 49.551 49.782 36.426 30.582-13.125 38.875-27.551 55.89-63.829 17.022-36.289-15.137-46.308-15.137-46.308l-40.91-3.645-126.644-12.8591-100.114-10.3242-78.191-9.0039-3.633 1.6992-47.89-6.3555-157.493-22.7148-61.711-9.9805 26.102 6.836L555 74.7656l38.254 8.2617-97.316-13.1367-166.004-25.8203-39.657-6.8555-15.218-2.2265-80-13.0078-25.965-5.0391-54.176-9.77343c-1.531-.40234-4.605-1.21094-9.215-2.41406C92.7227 2.23438 82.8086.51562 76.8047.71094L63.957 0c-2.2304.30078-7.539-.20703-10.4726.78906l38.8125 5.75391L138.23 16.8164l78.602 14.4024 1.539.4101c3.07.8008 3.906 1.9063 3.207 2.6094-.703.7031-6.703.8984-13.547-.0195l-39.652-6.8555-38.949-7.5508-8.379-1.3164-1.539-.4023-58.637-9.17974-35.043-5.64453L0 .03906 51.9258 19.832l13.1211 4.3282L189.582 48.8359 228.809 60l4.043 3.7109-8.379-1.3086-18.012.586 47.602 12.4687 12.148 1.418c2.375 1.5039 5.445 2.3125 8.516 3.1133 6.144 1.6133 9.914 1.7187 19.824 3.4297l10.75 2.8203 3.637-1.6992 16.191 5.1289 56.398 9.4726 25.137 3.9334 165.172 24.727 126.914 16.465 17.457 1.925-75.82-7.5-48.59-5.656-39.649-6.855-31.976-4.844-51.66-6.473-18.989-2.324-38.117-6.445-48.722-7.4729-9.215-2.4102-60.039-7.7851-37.418-7.1485-22.621-.625 25.964 5.0391 32.95 7.7461 90.609 14.0235 83.215 15.625.973 2.91-13.821-3.625-115.605-16.16-19.828-3.43-13.543-.008 138.777 23.993 12.148 1.418 1.399-1.407 43.269 14.883 35.043 5.645 176.211 21.425 151.637 14.989 3.02.644 21.597 4.231"/><path fill="#164f84" d="M586.871 602.801l-12.117-17.547-35.656-55.145-27.993-43.671-20.753-34.598-3.485-.496-11.695-21.645-36.332-72.078-12.942-28.812 2.356 13.554 36.187 77.762 5.555 18.941L446.473 395l-36.051-76.969-7.789-18.746-3.481-6.972-16.699-37.391-4.449-12.559-10.156-25.82c-.137-.801-.414-2.395-.828-4.785-2.231-6.281-4.176-10.969-6.825-13.164l-4.32-5.285c-1.254-.704-2.789-2.989-5.156-3.594l8.769 17.851 6.25 22.93 14.461 37.578.145.801c.277 1.594-.699 2.492-1.817 2.59-1.121.098-3.765-2.09-5.433-5.188l-7.793-18.738-6.676-18.848-1.812-3.886-.137-.793-12.664-27.227-7.375-16.347-6.547-11.563-2.688 30.195.133 7.278 20.711 60.515 2.492 20.832-2.797 3.485-1.808-3.887-7.942-6.582 4.289 24.719 3.204 5.383c-.84 1.695-.563 3.292-.282 4.882.551 3.196 1.95 4.692 3.895 9.375l.969 5.582 3.484.5.41 8.871 11.41 26.52 5.426 11.664 37.027 76.074 31.465 57.129 4.739 7.676-21.59-32.902-12.813-21.536-7.793-18.746-7.093-14.757-13.09-23.129-4.875-8.477-7.653-17.941-10.715-22.535-.835-4.786-14.899-27.015-6.531-18.047-8.36-8.973 4.45 12.559 4.019 16.644 19.77 41.977 14.883 39.976-3.079 1.891-1.246-7.176-27.285-52.64-3.894-9.371-5.438-5.192 27.274 65.602 3.203 5.383 2.23-.196-.308 24.317 7.375 16.355 45.394 78.567 43.176 65.808 11.426 13.563s32.101 46.304 61.867 50.023c29.766 3.723 70.695 14.883 93.019-7.441 22.325-22.325 7.442-22.325 7.442-22.325s-34.961.559-45.387-25.765"/><path fill="#be2519" d="M977.184 676.133c22.324 0 30.286-24.543 23.676-67.653l-8.153-3.96-21.09-71.098-30.09-82.231-7.914-16.222-20.765-19.274 1.949-.804-1.988-5.672-33.606-64.082.039 6.476 4.801 9.157 22.656 53.75 5.067 6.265-4.051-.187-21.863-38.305-19.657-42-10.832-15.016-7.05-11.937.902 10.762 10.015 17.211 10.915 27.972 3.371 4.176 10.464 22.594 9.04 17.613 3.265 8.859 9.078 24.094 6.785 14.828 9.606 18.313 7.949 22.699 10.547 35.547-2.699-8.164-23.11-59.133-34.66-76.641-5.511-11.64-13.278-26.075-7.156-7.25 2.355-1.906-3.933-4.871c-2.403-4.574-2.555-6.371-4.801-9.148-1.129-1.399-2.25-2.789-4.352-3.778l-1.988-5.679-17.433-21.575-.782 8.676 1.836 3.883-5.172-1.578-15.601-17.691-34.535-57.208-6.035-5.859-27.633-22.937 4.543 12.05 7.914 16.219 12.859 27.168.563.695 1.843 3.887 10.575 17.91 9.597 18.301c1.278 3.191 1.012 6.078.039 6.484-.972.399-2.507.102-3.636-1.289l-.563-.695-20.176-36.219-14.359-20.988-8.066-18.008c-1.379 1.496-.672 3.985-1.082 5.09l1.015 6.074c-.265 2.891 2.137 7.469 5.664 13.438 1.684 2.09 2.813 3.476 3.371 4.168l13.688 24.98 7.051 11.934 18.226 37.023 3.117 7.071 9.602 18.304 36.187 76.934 18.418 45.293-11.547-17.504-36.757-77.629-9.559-11.828 13.988 28.558 31.844 73.161 8.934 22.297-2.364 1.902 12.641 36.535 14.523 46.898 18.086 59.348 5.141 19.223s28.594 25.101 49.66 16.676c16.91-6.762 30.442-6.762 30.442-6.762"/><path fill="#007e45" d="M846.98 350.086l-8.593-34.949-20.035-27.793-16.622-8.371-48.218-26.485-22.742-12.879-56.032-20.546-12.082 4.082 11.149 6.933 28.781 10.84 26.488 9.141 19.684 10.625 32.996 21.757 28.812 26.465 10.016 13.903-29.055-21.454-28.41-18.367-51.601-30.285-56.032-20.547-24.761-3.965-42.508-5.371-7.574.918-7-2.566-7.129-.059-3.504-1.289-16.102-2.785-12.847 3.527-11.27-4.414-9.418-1.75-39.211-8.132-12.601-1.504-32.008-1.516-29.113 12.324-28.829-1.765-34.867.273 19.285 2.527 2.25 10.762c-12.847 3.527-18.441 4.602-25.894 3l-5.473-1.437c-1.972-.157-5.152.097-9.097-.215l4.585 3.39 23.672 1.864.2 4.043-26.211 1.464 42.961 4.395 3.574 7.844 28.707 4.285-1.008 4.453-.934 11.016 34.743 2.238 41.992-.215 29.148 3.301 59.059 7.176 39.855 11.211 15.215 4.726 30.633 13.508 11.394 1.902 30.184 14.481 32.484 16.172 27.325 16.265s1.789 6.09 55.91 23c18.82 5.883 27.054-6.761 27.054-6.761s10.192 7.496 18.625-28.391"/><path fill="#007e45" d="M377.383 187.664l10.582-2.226 8.746 4.14 25.508.86 24.008 1.855 79.089 7.773 31.875 2.696 38.543 5.636 31.25 6.973 10.649 2.461 8.164 1.941 3.07 2.715 9.664.957 6.66 2.93c1.793.117 4.278.625 7.868.852l-.586-2.2-8.743-4.14-27.957-7.852-4.394 1.172-17.02-4.297-25.285-4.453-27.082-4.551-12.039-3.269-27.191-2.766-32.176-3.789-36.449-4.422-5.375-.332-23.789-5.441-.625 4.289-14.75-.196-20.828-.929-16.141-1.004 4.754 4.617"/><path fill="#007e45" d="M641.738 313.781l45.153 15.039 17.894 7.59-23.269-7.922-6.368-1.836-26.054-9.535-33.633-9.285-3.879-1.32 30.156 7.269"/><path fill="#231f20" d="M696.789 466.172l1.856 1.605-5.684-2.199-.66.223-3.715-1.973-.441.434-3.715-1.539-1.969 1.093-.652-.66-2.414 1.098-2.18-.879 1.086 1.094 1.535.656.215 1.535-1.317-.879v.871l.875 1.754-1.093.657 2.839 2.843v.442l4.59 4.597.653 1.098-5.903-1.98c.653 1.093 1.086 1.972 1.309 2.195.652.652 2.187 1.75 4.59 3.285l8.304 5.695 1.743 3.504-1.528-.656-1.093.656-1.094-.66-.442.438-1.746-.879-1.093-1.09-.657 1.965 17.27 11.175 8.742 5.266-.223 1.527 2.407 1.539 1.089 2.407-4.156-1.102-.652-.215v-.875l-2.848.649-5.683-2.629 1.968 1.969 2.621 1.753-.66 1.09 59.028 28.961 6.992 3.946 1.101-1.969-1.093-.219 1.097-1.969v-1.312l1.098-1.531h.434l9.632-4.36 8.539-4.586 2.625-2.621 11.602-5.449 3.937 1.754.442-3.5.441-.438-3.937-1.757-.871-2.625-8.746-3.946-14.211-5.929-23.832-8.563-17.711-8.113-20.332-8.563.215-.218c-3.715-1.098-2.727-1.68-9.29-4.747l-19.234-9.144"/><path fill="#231f20" d="M781.09 534.828s-10.082 6.824-6.207 11.149c2.051 2.285 24.972 13.011 31.629 15.062 16 4.934 27.843-1.445 31.511-6.172 3.668-4.726-1.328-6.851-1.328-6.851l1.422-1.512-6.336-11.848-15.73-24.871-9.961-15.457-6.41-11.156-8.317-12.77-5.617-10.789-7.035-9.277-7.781-5.051-1.867-3.269-8.848-14.219-.793-.367 2.316 5.41.504.473-.472.503 5.003 10.032-1.82 1.328 1.492 4.062-.867.321-.176 4.019c-2.672-.996-3.574-1.656-4.925-4.449l3.964 8.101-1.773-.335-.078.687-1.586-.738.207.582-1.766-.336-1.406-1.133 3.051 3.82.351 1.848-4.355 1.602 3.168 7.734-1.852.352-.422-1.165.243 1.559-1.528 1.223.008 3.621 6.149 12.242-1.055.719c.531 1.449.855 2.324 1.066 2.906l2.668 7.258c.215.582.75 2.031 1.684 3.668l4.832 7.777 6.117 11.266-.84 1.297-3.636-3.606-2.516-2.367 3.297 5.379c.105.289.715 1.055 1.539 2.398 1.355 2.797 2.074 3.852 3.219 6.071l1.863 3.269-1.516-1.422-1.328-1.816.031.976 1.012.95-1.961.058"/><path fill="#231f20" d="M780.695 488.859l-5.461-5.191-16.527-16.543-13.023-13.133-9.95-10.531-.968.144-5.895-6.707-18.949-22.601-7.168-9.188 2.406 4.68 19.668 24.668 3.953 6.316-11.926-13.695-19.527-24.39-4.5-6.036-1.82-2.191-9.278-11.93-2.82-4.113-6.047-8.371c-.14-.274-.425-.824-.851-1.649-1.407-2.054-2.532-3.566-3.504-4.105l-1.817-1.5c-.421-.137-1.121-.82-1.812-.813l4.633 5.618 4.66 7.695 8.726 12.211.141.273c.281.551.152.965-.129 1.11-.273.14-1.242-.403-2.09-1.36l-4.496-6.035-4.226-6.176-.985-1.234-.14-.273-6.883-8.633-4.078-5.211-3.223-3.559 3.316 11.164 1 2.618 13.383 19.906 3.41 7.293-.261 1.523-.981-1.23-2.929-1.625 4.394 8.523 1.543 1.641c.004.695.289 1.242.57 1.793.567 1.097 1.129 1.508 2.25 3.015l.993 1.926.968-.152 1.285 3.172 6.465 8.5 2.953 3.699 19.657 23.98 15.711 17.661 2.238 2.324-9.941-9.844-6.165-6.566-4.503-6.036-3.79-4.66-6.449-7.117-2.386-2.598-4.36-5.761-5.754-7.125-.851-1.649-7.438-8.351-4.082-5.903-3.347-2.453 2.816 4.121 3.25 5.633 10.676 13.293 9.152 13.035-.543.977-1.277-2.477-14.035-16.433-2.247-3.02-2.093-1.355 15.75 21.117 1.543 1.644.547-.289 3.152 8.821 4.074 5.207 22.149 24.09 19.882 19.687 4.75 3.816"/><path fill="#231f20" d="M1299.52 320.316l-65.75 156.465-56.01-156.465zM1034.69 167.5c42.01 2.441 53.57 8.523 87.05 90.105l133.94 323.282h10.36l164.99-368.328c15.82-35.313 30.44-45.059 62.1-45.059v-18.262c-42.02.606-68.8 1.825-93.15 1.825-24.36 0-50.54-1.219-93.15-1.825V167.5c34.09 0 43.83 6.094 43.83 22.527 0 6.7-4.26 19.485-17.05 49.922l-24.35 57.227h-139.42l-17.65-49.305c-15.22-42.629-16.44-51.144-16.44-57.238 0-15.828 7.3-22.52 45.05-23.133v-18.262c-52.36 1.825-58.45 1.825-73.05 1.825-15.22 0-21.31 0-73.06-1.825V167.5"/><path fill="#231f20" d="M1523.51 254.883h21.31c13.11-63.379 66.66-91.797 104.36-91.797 53.55 0 79.78 34.422 79.78 64.473 0 87.429-199.44 83.058-199.44 204.363 0 27.867 15.84 113.652 137.69 113.652 29.51 0 70.49-3.273 101.09-14.203l3.28-96.719h-20.22c-6.01 55.739-42.07 90.161-99.99 90.161-44.26 0-70.49-28.415-70.49-57.918 0-79.782 202.72-86.879 202.72-208.731 0-64.484-45.9-115.84-136.61-115.84-34.96 0-80.32 7.098-119.11 18.028l-4.37 94.531"/><path fill="#231f20" d="M1827.33 165.82c35.51.547 45.34 13.66 45.34 44.258V477.82c0 30.598-9.83 43.711-45.34 44.258v16.395c43.7-1.09 62.29-1.637 79.77-1.637 17.49 0 36.06.547 79.78 1.637v-16.395c-35.52-.547-45.36-13.66-45.36-44.258V367.445h204.91V477.82c0 30.598-9.83 43.711-45.35 44.258v16.395c43.71-1.09 62.29-1.637 79.78-1.637 17.48 0 36.06.547 79.77 1.637v-16.395c-35.52-.547-45.35-13.66-45.35-44.258V210.078c0-30.598 9.83-43.711 45.35-44.258v-16.398c-43.71 1.094-62.29 1.641-79.77 1.641-17.49 0-36.07-.547-79.78-1.641v16.398c35.52.547 45.35 13.66 45.35 44.258v134.418h-204.91V210.078c0-30.598 9.84-43.711 45.36-44.258v-16.398c-43.72 1.094-62.29 1.641-79.78 1.641-17.48 0-36.07-.547-79.77-1.641v16.398"/><path fill="#231f20" d="M2293.38 165.82c35.51.547 45.35 13.66 45.35 44.258V477.82c0 30.598-9.84 43.711-45.35 44.258v16.395c43.71-1.09 62.29-1.637 79.77-1.637 17.49 0 36.06.547 79.78 1.637v-16.395c-35.52-.547-45.36-13.66-45.36-44.258V210.078c0-28.418 15.85-37.707 61.21-37.707 72.12 0 108.19 9.289 119.12 77.051h18.57l-8.74-100c-55.18.547-159.55 1.641-263.93 1.641-16.38 0-30.59-.547-40.42-1.641v16.398"/><path fill="#231f20" d="M2638.14 165.82c35.52.547 45.35 13.66 45.35 44.258V477.82c0 30.598-9.83 43.711-45.35 44.258v16.395c43.71-1.09 62.3-1.637 79.78-1.637 17.49 0 36.06.547 79.77 1.637v-16.395c-35.52-.547-45.35-13.66-45.35-44.258V210.078c0-30.598 9.83-43.711 45.35-44.258v-16.398c-43.71 1.094-62.28 1.641-79.77 1.641-17.48 0-36.07-.547-79.78-1.641v16.398"/><path fill="#231f20" d="M2826.58 165.82c35.52.547 45.35 13.66 45.35 44.258V477.82c0 30.598-9.83 43.711-45.35 44.258v16.395c22.4-.547 43.71-1.637 59.01-1.637 12.02 0 27.86 1.09 43.71 1.637l257.37-287.965-1.64 224.578c0 32.789-7.65 46.992-47 46.992v16.395c20.22-.547 42.07-1.637 59.02-1.637 17.48 0 39.34 1.09 60.65 1.637v-16.395c-35.52-.547-45.35-13.66-45.35-44.258V145.605h-21.86l-295.61 326.204L2899.25 215c.55-40.441 10.93-45.898 45.36-49.18v-16.398c-16.4 1.094-45.9 1.641-59.02 1.641-13.11 0-42.62-.547-59.01-1.641v16.398"/><path fill="#231f20" d="M3639.68 424.27h-14.2c-3.82 57.375-50.82 98.355-136.06 98.355-103.27 0-146.98-73.219-146.98-156.273 0-123.493 76.49-201.079 163.92-201.079 26.23 0 51.36 9.286 71.04 24.043v79.227c0 27.324-8.2 35.52-41.53 35.52v16.39c18.03-.547 39.89-2.187 74.86-2.187 34.42 0 56.28 1.64 74.31 2.187v-16.39c-32.24 0-40.98-16.946-40.98-40.989V177.84c-25.68-12.567-89.61-35.516-165.57-35.516-189.05 0-216.92 146.434-216.92 205.996 0 88.52 62.84 197.254 232.77 197.254 64.47 0 116.94-14.203 145.34-22.949V424.27"/></g></svg>