<?xml version="1.0" encoding="UTF-8"?>
<svg xmlns="http://www.w3.org/2000/svg" xmlns:xlink="http://www.w3.org/1999/xlink" width="238" height="65" viewBox="0 0 238 65">
<defs>
<g>
<g id="glyph-0-0">
<path d="M 20.515625 -37.90625 L 12.484375 -16.140625 L 28.5625 -16.140625 Z M 17.171875 -43.734375 L 23.875 -43.734375 L 40.546875 0 L 34.390625 0 L 30.40625 -11.21875 L 10.6875 -11.21875 L 6.703125 0 L 0.46875 0 Z M 17.171875 -43.734375 "/>
</g>
<g id="glyph-0-1">
<path d="M 32.109375 -42.3125 L 32.109375 -36.53125 C 29.859375 -37.601562 27.738281 -38.40625 25.75 -38.9375 C 23.757812 -39.46875 21.835938 -39.734375 19.984375 -39.734375 C 16.753906 -39.734375 14.265625 -39.109375 12.515625 -37.859375 C 10.773438 -36.609375 9.90625 -34.828125 9.90625 -32.515625 C 9.90625 -30.585938 10.484375 -29.128906 11.640625 -28.140625 C 12.804688 -27.148438 15.007812 -26.351562 18.25 -25.75 L 21.828125 -25.015625 C 26.242188 -24.179688 29.5 -22.703125 31.59375 -20.578125 C 33.695312 -18.460938 34.75 -15.628906 34.75 -12.078125 C 34.75 -7.835938 33.328125 -4.625 30.484375 -2.4375 C 27.640625 -0.25 23.472656 0.84375 17.984375 0.84375 C 15.921875 0.84375 13.71875 0.609375 11.375 0.140625 C 9.039062 -0.328125 6.625 -1.019531 4.125 -1.9375 L 4.125 -8.03125 C 6.53125 -6.675781 8.882812 -5.65625 11.1875 -4.96875 C 13.5 -4.289062 15.765625 -3.953125 17.984375 -3.953125 C 21.367188 -3.953125 23.976562 -4.613281 25.8125 -5.9375 C 27.644531 -7.269531 28.5625 -9.164062 28.5625 -11.625 C 28.5625 -13.78125 27.898438 -15.460938 26.578125 -16.671875 C 25.265625 -17.878906 23.101562 -18.785156 20.09375 -19.390625 L 16.5 -20.09375 C 12.082031 -20.976562 8.882812 -22.359375 6.90625 -24.234375 C 4.9375 -26.109375 3.953125 -28.710938 3.953125 -32.046875 C 3.953125 -35.921875 5.3125 -38.96875 8.03125 -41.1875 C 10.757812 -43.414062 14.519531 -44.53125 19.3125 -44.53125 C 21.363281 -44.53125 23.453125 -44.34375 25.578125 -43.96875 C 27.703125 -43.601562 29.878906 -43.050781 32.109375 -42.3125 Z M 32.109375 -42.3125 "/>
</g>
<g id="glyph-0-2">
<path d="M 5.890625 -43.734375 L 11.8125 -43.734375 L 11.8125 -25.8125 L 33.3125 -25.8125 L 33.3125 -43.734375 L 39.234375 -43.734375 L 39.234375 0 L 33.3125 0 L 33.3125 -20.828125 L 11.8125 -20.828125 L 11.8125 0 L 5.890625 0 Z M 5.890625 -43.734375 "/>
</g>
<g id="glyph-0-3">
<path d="M 5.890625 -43.734375 L 11.8125 -43.734375 L 11.8125 -4.984375 L 33.109375 -4.984375 L 33.109375 0 L 5.890625 0 Z M 5.890625 -43.734375 "/>
</g>
<g id="glyph-0-4">
<path d="M 5.890625 -43.734375 L 11.8125 -43.734375 L 11.8125 0 L 5.890625 0 Z M 5.890625 -43.734375 "/>
</g>
<g id="glyph-0-5">
<path d="M 5.890625 -43.734375 L 13.859375 -43.734375 L 33.25 -7.15625 L 33.25 -43.734375 L 39 -43.734375 L 39 0 L 31.03125 0 L 11.625 -36.59375 L 11.625 0 L 5.890625 0 Z M 5.890625 -43.734375 "/>
</g>
<g id="glyph-0-6">
<path d="M 35.71875 -6.234375 L 35.71875 -17.984375 L 26.046875 -17.984375 L 26.046875 -22.859375 L 41.578125 -22.859375 L 41.578125 -4.078125 C 39.285156 -2.453125 36.765625 -1.222656 34.015625 -0.390625 C 31.265625 0.429688 28.328125 0.84375 25.203125 0.84375 C 18.359375 0.84375 13.007812 -1.148438 9.15625 -5.140625 C 5.300781 -9.140625 3.375 -14.703125 3.375 -21.828125 C 3.375 -28.972656 5.300781 -34.539062 9.15625 -38.53125 C 13.007812 -42.53125 18.359375 -44.53125 25.203125 -44.53125 C 28.046875 -44.53125 30.75 -44.175781 33.3125 -43.46875 C 35.882812 -42.769531 38.257812 -41.738281 40.4375 -40.375 L 40.4375 -34.078125 C 38.25 -35.929688 35.921875 -37.328125 33.453125 -38.265625 C 30.992188 -39.203125 28.40625 -39.671875 25.6875 -39.671875 C 20.34375 -39.671875 16.328125 -38.175781 13.640625 -35.1875 C 10.953125 -32.195312 9.609375 -27.742188 9.609375 -21.828125 C 9.609375 -15.929688 10.953125 -11.488281 13.640625 -8.5 C 16.328125 -5.507812 20.34375 -4.015625 25.6875 -4.015625 C 27.78125 -4.015625 29.644531 -4.191406 31.28125 -4.546875 C 32.925781 -4.910156 34.40625 -5.472656 35.71875 -6.234375 Z M 35.71875 -6.234375 "/>
</g>
</g>
</defs>
<g fill="rgb(0%, 0%, 0%)" fill-opacity="1">
<use xlink:href="#glyph-0-0" x="0" y="50"/>
<use xlink:href="#glyph-0-1" x="41.044922" y="50"/>
<use xlink:href="#glyph-0-2" x="79.130859" y="50"/>
<use xlink:href="#glyph-0-3" x="124.248047" y="50"/>
<use xlink:href="#glyph-0-4" x="157.675781" y="50"/>
<use xlink:href="#glyph-0-5" x="175.371094" y="50"/>
<use xlink:href="#glyph-0-6" x="220.253906" y="50"/>
</g>
</svg>
