<svg xmlns="http://www.w3.org/2000/svg" role="img" viewBox="-11.60 12.40 918.20 1071.20"><path fill="#fff" d="M0 0h900v1068H0V0z"/><path fill="#900" d="M603.33 37.32c.87-1.5 1.05-4.52 3.36-4.22 7.41 18.39 13.34 37.34 20.29 55.9 21.91.13 43.83-.44 65.72.54-14.49 11.61-30.62 20.88-45.97 31.25 23.08.39 46.17.14 69.26.22.02 24.99.02 49.98 0 74.98-25.66.02-51.31.02-76.96 0-.04-8.63-.05-17.26-.1-25.88-10.95-7.14-21.89-14.28-32.92-21.29-17.52 11.04-34.09 23.58-52.21 33.63 5.34-19.43 13.42-37.95 19.48-57.15-17.68-11.88-36.23-22.55-52.98-35.76 21.88-.98 43.79-.39 65.69-.58 6.14-17.09 11.54-34.43 17.34-51.64z"/><path fill="#fc0" d="M587.81 90.93c6.1-17.77 11.75-35.7 18-53.42 7.09 17.57 12.99 35.58 19.41 53.4 20.71.21 41.43-.12 62.15.33-16.57 11.61-33.89 22.09-50.55 33.58 6.45 17.79 12.87 35.59 19.06 53.47-16.91-10.31-33.2-21.61-49.91-32.25-16.29 10.72-32.31 21.86-48.88 32.15 6.14-18 12.87-35.8 18.94-53.82-16.84-10.97-33.91-21.61-50.4-33.09 20.72-.5 41.45-.18 62.18-.35z"/><path fill="#900" d="M751.49 152.47c2.84 3.26 3.85 7.65 5.51 11.55 5.22 15.03 10.59 30.01 15.98 44.98 21.56.17 43.14-.42 64.69.36-16.51 13.07-34.44 24.22-51.91 35.94 5.4 19.01 13.54 37.16 18.43 56.31-18.16-10-34.59-22.85-52.17-33.81-17.51 11.05-34.09 23.58-52.21 33.65 5.02-19.07 12.93-37.22 18.41-56.15-17.49-11.64-35.22-22.99-51.92-35.76 21.54-.97 43.1-.4 64.66-.57 7.04-18.76 12.97-37.96 20.53-56.5z"/><path fill="#fc0" d="M752 157.72c6.86 17.56 12.87 35.44 19.22 53.19 20.37.2 40.75-.12 61.12.36-16.47 11.22-32.98 22.39-49.48 33.55 6.05 17.48 12.22 34.92 18 52.49-16.48-10.48-32.6-21.51-48.86-32.33-16.26 10.82-32.38 21.85-48.85 32.33 5.57-17.77 12.33-35.15 17.83-52.95-16.74-10.59-33.07-21.81-49.34-33.09 20.37-.47 40.76-.17 61.15-.36 6.23-17.79 12.23-35.67 19.21-53.19z"/><path fill="#900" d="M455.49 192.47c2.84 3.26 3.86 7.65 5.51 11.55 5.22 15.03 10.59 30.01 15.98 44.98 21.56.17 43.14-.42 64.69.35-9.74 8.27-20.79 14.74-31.04 22.32-.99.7-1.97 1.41-2.94 2.13 17.09.27 34.2.22 51.3.21.02 24.99.02 49.99 0 74.98-25.66.02-51.32.02-76.97 0-.03-8 0-16-.04-23.99-8.63-5.78-17.27-11.53-25.98-17.18-17.51 11.04-34.08 23.57-52.19 33.63 5.03-19.09 12.94-37.25 18.43-56.19-6.83-4.39-13.63-8.81-20.56-13.01l-.63-.42c-10.04-7.77-21.15-14.1-30.9-22.24 21.59-1.07 43.2-.43 64.81-.62 7.04-18.76 12.97-37.96 20.53-56.5z"/><path fill="#fc0" d="M456 197.72c6.86 17.56 12.87 35.44 19.22 53.19 20.37.2 40.75-.12 61.12.36-16.47 11.22-32.97 22.39-49.48 33.55 6.05 17.48 12.22 34.92 18 52.49-16.48-10.48-32.6-21.51-48.86-32.33-16.26 10.82-32.38 21.85-48.85 32.33 5.57-17.77 12.33-35.15 17.83-52.95-16.74-10.59-33.06-21.81-49.34-33.09 20.38-.47 40.76-.17 61.15-.36 6.23-17.79 12.23-35.67 19.21-53.19z"/><path d="M9.01 272.01c63.33-.02 126.66 0 189.99-.01 15.54-.02 31.13-.57 46.61 1.07l-1 .08c-8.53.6-17.07.86-25.61.94-69.33-.17-138.66-.07-207.99-.08-.02 213.41-.01 426.82 0 640.23-.31 5.16-.36 10.34-.04 15.52.2 10.41.08 20.83.08 31.26 14.05-.01 28.11-.27 42.16-.11 10.16.67 20.37 1.14 30.51-.09 57.5.28 115.01.26 172.51.02 15.17.89 30.39 1.29 45.55.07 54.51.03 109.03.31 163.54-.15 12.77 1.03 25.66 1.42 38.44.19 38.49-.04 76.98.18 115.47-.11 15.47.87 31.02 1.58 46.46-.13 16.76.07 33.52.37 50.29.3.04-11.41-.27-22.8.14-34.18.18-2.35.3-4.7.29-7.05-.6-24.19-.5-48.39-.2-72.57-.05-3.06-.01-6.01-.17-9.03.2-34.95-.79-69.93.55-104.85.02-.28.07-.83.1-1.1 1.02 8.54 1.43 17.15 1.41 25.77-.23 68.33-.03 136.66-.11 204.99-236.33.02-472.66.01-708.98 0-.01-230.33-.02-460.65 0-690.98zm238.01-.01c25.33-.01 50.65-.01 75.98 0 0 .5-.01 1.5-.01 2-25.36 0-50.72-.01-76.08.01.03-.5.08-1.51.11-2.01zm77.18 1.17c25.54-2.24 51.24-.87 76.85-1.34l.63.42c.31.22.94.68 1.25.91-25.87 1.37-51.82 1.34-77.69.09l-1.04-.08zm183.49.63c.97-.72 1.95-1.43 2.94-2.13 16.12.44 32.24.33 48.37.34 0 .5-.01 1.5-.01 2-17.1.01-34.21.06-51.3-.21zm52.48-.49c25.52-2.71 51.23-.75 76.83-1.31 0 .5 0 1.51-.01 2.01-25.25-.38-50.54.83-75.77-.6-.26-.02-.78-.07-1.05-.1z"/><path fill="#900" d="M11.01 274.01c69.33.01 138.66-.09 207.99.08 8.54-.08 17.08-.34 25.61-.94 1.81 23.55 1.04 47.42 5.63 70.71 3.41 16.9 7.35 33.7 11.33 50.48 3.5 14.9 9.67 28.94 14.91 43.27 6.86 18.85 16.56 36.5 25.65 54.34 7.64 12.59 15.51 25.04 23.55 37.39 14.17 18.98 28.47 37.94 44.95 55.02 19.49 22.96 42.73 42.42 67.28 59.75 17.87 13.35 37.39 24.27 56.81 35.16 17.21 7.94 34.19 16.56 52.07 22.95 15.32 5.68 31 10.33 46.54 15.37 22.2 5.89 44.91 9.75 67.71 12.42 18.45 2.12 37.08 1.43 55.55 3.32-1.34 34.92-.35 69.9-.55 104.85-4.24-10.44-13.6-17.74-23.22-23.02-12.02-6.73-25.99-8.54-39.49-9.63-18.63-.89-38.13-.56-55.43 7.29-16.22 7.57-32.13 18.64-39.51 35.56-11.55 28.2-9.48 64.1 12.16 87.04 12.19 14.51 30.44 22.07 48.68 25.42-38.49.29-76.98.07-115.47.11 5.75-1.22 11.45-2.64 17.17-3.99.05-6.55.1-13.08.16-19.6-16.08 3.14-33.14 5.41-49.14.68-10.81-3.59-16.8-14.98-17.26-25.85-1.62-27.36-.33-54.79-.67-82.17 18.99-.05 37.98 0 56.98-.03v-20.97c-19-.05-37.99 0-56.98-.04-.02-11.66-.03-23.32-.05-34.97-10.99-.04-21.97-.04-32.95 0-.02 11.65-.03 23.3-.05 34.96-11.33 0-22.65.03-33.97.05-.01 6.97-.01 13.96 0 20.95 11.33.01 22.66.03 34 .05.27 26.59-.58 53.2.32 79.79.69 12.02 2.92 25.13 11.82 34.04 8.17 9.66 20.53 13.37 32.18 16.91-54.51.46-109.03.18-163.54.15 15.12-2.87 30.83-6.92 42.3-17.84 6.33-7.34 12.58-15.7 13.26-25.74.47-9.09 1.2-20.45-6.8-26.81-7.03-5.54-15.33-9.27-23.64-12.41-20.31-5.97-41.45-8.48-61.81-14.23-7.77-2.3-17.04-5.29-20.82-13.21-2.52-5 .51-10.73 4.02-14.35 11.85-9.51 28.01-10.61 42.56-10.18 8.82 1.01 18.39 1.71 25.7 7.32 2.62 2.1 3.97 5.29 5.59 8.15 10.79.31 21.59.39 32.38.36-1.55-6.33-2.48-13.32-7.42-18.07-7-7.37-16.01-13.09-26.14-14.9-17.65-3.87-35.95-4.59-53.91-2.96-13.35 1.32-27.03 4.83-37.68 13.37-6.42 5.18-13.34 10.6-16.36 18.58-3.26 9.65-2.21 21.25 5.15 28.83 7.43 11.02 20.77 14.57 32.7 18.35 17.45 4.38 35.09 7.95 52.51 12.43 7.8 1.93 16 5.52 20.56 12.47 3.96 11.56-5.24 23.54-16.23 26.58-16.73 4.43-34.73 6.05-51.74 2.36-10.25-1.8-17.54-11.04-19.95-20.75-10.85-.23-21.7-.27-32.56-.2 1.98 7.93 4.79 15.92 10.42 22.05 10.33 12.84 27.15 16.87 42.36 20.73-57.5.24-115.01.26-172.51-.02 17.71-3.94 34.71-11.18 48.99-22.49 1.56 6.59 3.37 13.11 5.31 19.61 11.69.05 23.38.06 35.07.01-14.08-40.42-1.82-83.85-9.88-125.11-2.57-12.51-16.36-17.12-26.83-21.28-20.33-6.45-42.2-7.73-63.32-5.38-19.75 2.72-40.08 10-53.68 25.19-4.37 4.43-5.16 10.85-7.05 16.51 11.53.11 23.06.09 34.6-.16 2.18-5.83 5.36-11.64 10.62-15.23 11.54-8.52 26.73-8.39 40.4-8.46 10.27 1.14 21.58 2.24 29.78 9.27 2.69 2.01 3.73 5.46 4.12 8.67 1.23 7.59 1.16 15.34 1.34 23.03-23.63 4.35-47.78 6.13-70.85 13.22-15.93 3.69-31.38 10.37-43.31 21.82-4.42 3.5-6.48 8.96-8.02 14.2-.01-213.41-.02-426.82 0-640.23z"/><path fill="#900" d="M246.91 274.01c25.36-.02 50.72-.01 76.08-.01.02 25 .03 49.99 0 74.99-22.57.45-45.19-1.05-67.71.89 22.51 2.18 45.14.73 67.71 1.13.02 24.65.02 49.31 0 73.97-12.57-.11-25.19-.37-37.71.9 12.47 1.33 25.02 1.27 37.55 1.15.12 9.23.1 18.49 1.05 27.69.9-9.22 1.17-18.47 1.25-27.71 25.62-.03 51.24-.02 76.86 0 .02 24.99.02 49.98 0 74.98-26.57.66-53.24-1.28-79.74.85 26.5 2.41 53.16.63 79.73 1.17.02 8.32.01 16.65.03 24.99h1.98c.01-8.34.01-16.67.04-24.99 25.32-.03 50.64-.03 75.96 0 .02 24.66.03 49.32 0 73.98-26.23.57-52.54-1.17-78.72.85 26.16 2.41 52.48.63 78.71 1.17 0 6.98.01 13.98.03 20.98.49.01 1.48.01 1.98.01 0-7 .01-14 .03-20.99 25.66-.02 51.32-.03 76.98 0 0 20.32 0 40.65-.01 60.98.51.01 1.51.01 2.02.01-.01-20.33-.02-40.66 0-60.99 25.64-.02 51.28-.03 76.92.01 1.72 24.95.95 49.98 1.06 74.97-43.66.03-87.32 0-130.98.01-.01.5-.01 1.5-.01 2 43.66.01 87.33-.02 130.99.01-.01 11.99.01 23.98.01 35.98.5.01 1.5.01 2 .01-.01-12 .01-24 .01-36 25.24.09 50.49-.28 75.74.24-1.24 24.74-1.21 49.56-.09 74.31-17.07-1.8-34.27-1.26-51.34-2.98-22.37-2.13-44.48-6.51-66.33-11.64-17.12-5.47-34.39-10.52-51.28-16.68-18.94-7.08-37.09-16.07-55.36-24.68-12.64-7.26-25.21-14.67-37.65-22.28-28.56-19.88-56.79-40.87-79.77-67.22-22.83-24.27-43.52-50.65-60.88-79.11-12.2-18.28-21.36-38.34-30.81-58.11-7.23-19.1-15.35-37.96-20.15-57.87-6.22-25.66-12.69-51.48-14.25-77.93-.94-13.01-.71-26.06-1.93-39.04z"/><path fill="#900" d="M325.24 273.25c25.87 1.25 51.82 1.28 77.69-.09-1.85 25.24-.56 50.56-.94 75.83-25.67.02-51.33.02-76.99 0 .09-25.25-.28-50.5.24-75.74zm235.98.16c25.23 1.43 50.52.22 75.77.6.01 19.44-.03 38.87.07 58.31 8.17-2.4 17.13-3.38 24.46-7.79 5.77-12.15 7.57-25.76 13.13-38.01 5.42 9.31 7.09 20.17 10.61 30.22 1.24 2.85 1.63 6.56 4.15 8.72 12.14 4.38 24.95 6.69 37.01 11.33-12.16 6.13-25.67 8.68-38.39 13.36-4.87 12.59-8.12 25.72-12.85 38.37-5.06-11.24-7.52-23.36-11.75-34.88-.53-1.33-1.08-2.91-2.5-3.52-7.68-3.43-15.84-5.58-23.88-7.95-.03 1.7-.1 5.1-.13 6.8-25.31.06-50.61.04-75.92.02.09-25.19-.26-50.39.22-75.58z"/><path fill="#fc0" d="M674.98 292.53c4.33 10.63 6.66 21.97 10.98 32.59.97 2.87 4.75 2.91 7 3.92 9.15 2.71 18.38 5.12 27.43 8.14-11.32 3.93-22.74 7.57-34.18 11.13-4.1 10.93-7.03 22.25-11.2 33.16-4.12-10.74-7.19-21.82-10.93-32.69-11.25-4.46-23.05-7.36-34.35-11.68 9.29-3.05 18.78-5.45 28.15-8.23 2.67-.96 6.06-1.77 6.44-5.31 4.42-10.04 6.52-20.88 10.66-31.03z"/><path fill="#900" d="M781.04 389.57c16.57-18.01 32.35-36.73 48.74-54.91 18.93 17.4 38.44 34.17 57.18 51.77-16.54 18.04-32.17 36.9-48.73 54.93-18.9-17.45-38.5-34.13-57.19-51.79zm-456.03-38.56c25.66-.02 51.32-.02 76.98 0 .02 24.66.02 49.32 0 73.98-25.66.02-51.32.02-76.98 0-.03-24.66-.03-49.32 0-73.98zm79 0c25.32-.02 50.65-.02 75.98 0 .02 24.66.03 49.32 0 73.98-25.33.02-50.65.02-75.98 0-.02-24.66-.03-49.32 0-73.98zm78 0c25.66-.02 51.32-.02 76.98 0 .02 24.66.02 49.32 0 73.98-25.66.02-51.32.02-76.98 0-.03-24.66-.03-49.32 0-73.98zm79 0c25.32-.02 50.65-.02 75.98 0 .02 24.66.02 49.32 0 73.98-25.33.02-50.65.02-75.98 0-.02-24.66-.03-49.32 0-73.98zm-157 76c25.33-.03 50.65-.03 75.98 0 .02 24.99.02 49.98 0 74.98-25.33.02-50.66.02-75.98 0-.03-25-.03-49.99 0-74.98zm78 0c25.66-.02 51.32-.03 76.99 0 .49 19.9-1.17 39.9.84 59.74 2.08-19.85.92-39.83 1.16-59.74 25.66-.02 51.33-.03 77 0 .49 19.9-1.17 39.9.84 59.74 2.08-19.85.92-39.83 1.16-59.74 25.33-.02 50.66-.03 76 0v74.96c-13.16.09-26.39-.55-39.48 1.02 13.37 1.15 26.8 1.09 40.22 1.27-1.47 24.55-.52 49.16-.75 73.74-25.32-.4-50.62.98-75.92-.06-.08-5.25-.16-10.49-.23-15.72-8.68-5.37-17.25-10.9-25.83-16.4-17.52 11.04-34.09 23.58-52.21 33.63 5.35-19.43 13.42-37.95 19.48-57.16-7.43-4.78-14.82-9.61-22.22-14.4-.12 23.36-.04 46.73-.07 70.1-25.66.02-51.32.02-76.98 0-.03-24.67-.03-49.33 0-73.99 23.46-.27 46.97.79 70.4-.87-23.4-2.24-46.94-.73-70.4-1.14-.03-24.99-.03-49.99 0-74.98z"/><path d="M716 427.01c.5 0 1.5-.01 2-.02.01 25.01.01 50.01 0 75.02l-2-.04v-74.96z"/><path fill="#fc0" d="M595.81 487.93c6.1-17.77 11.75-35.7 18-53.42 7.09 17.56 12.99 35.58 19.41 53.4 20.71.21 41.43-.12 62.15.33-16.57 11.61-33.89 22.09-50.55 33.58 6.45 17.79 12.87 35.59 19.06 53.47-16.91-10.32-33.2-21.61-49.91-32.25-16.29 10.72-32.31 21.86-48.88 32.15 6.14-18 12.87-35.8 18.94-53.82-16.84-10.98-33.91-21.61-50.4-33.09 20.72-.5 41.45-.18 62.18-.35z"/><path d="M716.74 504.26c.02-.27.07-.8.09-1.07 2.38 24.86.71 49.87 1.17 74.8-.5 0-1.5 0-2.01.01.23-24.58-.72-49.19.75-73.74z"/><path fill="#900" d="M640.06 580.03c25.31-.06 50.62-.04 75.94-.02v74.98c-25.01.02-50 .02-75 0-.49-24.98 1.1-50.04-.94-74.96z"/><path d="M716 580.01c.5 0 1.5-.01 2-.02.01 25 .01 50.01-.01 75.02-.49-.01-1.49-.02-1.99-.02v-74.98zm.75 77.23l.08-1.04c1.99 18.53.97 37.2 1.31 55.8-.33 6.47.64 13.28-1.48 19.55-1.12-24.75-1.15-49.57.09-74.31z"/><path fill="#fc0" d="M421.02 774.01c10.98-.04 21.96-.04 32.95 0 .02 11.65.03 23.31.05 34.97 18.99.04 37.98-.01 56.98.04v20.97c-19 .03-37.99-.02-56.98.03.34 27.38-.95 54.81.67 82.17.46 10.87 6.45 22.26 17.26 25.85 16 4.73 33.06 2.46 49.14-.68-.06 6.52-.11 13.05-.16 19.6-5.72 1.35-11.42 2.77-17.17 3.99-12.78 1.23-25.67.84-38.44-.19-11.65-3.54-24.01-7.25-32.18-16.91-8.9-8.91-11.13-22.02-11.82-34.04-.9-26.59-.05-53.2-.32-79.79-11.34-.02-22.67-.04-34-.05-.01-6.99-.01-13.98 0-20.95 11.32-.02 22.64-.05 33.97-.05.02-11.66.03-23.31.05-34.96zM73.06 806.18c21.12-2.35 42.99-1.07 63.32 5.38 10.47 4.16 24.26 8.77 26.83 21.28 8.06 41.26-4.2 84.69 9.88 125.11-11.69.05-23.38.04-35.07-.01-1.94-6.5-3.75-13.02-5.31-19.61-14.28 11.31-31.28 18.55-48.99 22.49-10.14 1.23-20.35.76-30.51.09-17.92-2.74-36.19-13.22-42.24-31.15-.32-5.18-.27-10.36.04-15.52 1.54-5.24 3.6-10.7 8.02-14.2 11.93-11.45 27.38-18.13 43.31-21.82 23.07-7.09 47.22-8.87 70.85-13.22-.18-7.69-.11-15.44-1.34-23.03-.39-3.21-1.43-6.66-4.12-8.67-8.2-7.03-19.51-8.13-29.78-9.27-13.67.07-28.86-.06-40.4 8.46-5.26 3.59-8.44 9.4-10.62 15.23-11.54.25-23.07.27-34.6.16 1.89-5.66 2.68-12.08 7.05-16.51 13.6-15.19 33.93-22.47 53.68-25.19zm193.99-.14c17.96-1.63 36.26-.91 53.91 2.96 10.13 1.81 19.14 7.53 26.14 14.9 4.94 4.75 5.87 11.74 7.42 18.07-10.79.03-21.59-.05-32.38-.36-1.62-2.86-2.97-6.05-5.59-8.15-7.31-5.61-16.88-6.31-25.7-7.32-14.55-.43-30.71.67-42.56 10.18-3.51 3.62-6.54 9.35-4.02 14.35 3.78 7.92 13.05 10.91 20.82 13.21 20.36 5.75 41.5 8.26 61.81 14.23 8.31 3.14 16.61 6.87 23.64 12.41 8 6.36 7.27 17.72 6.8 26.81-.68 10.04-6.93 18.4-13.26 25.74-11.47 10.92-27.18 14.97-42.3 17.84-15.16 1.22-30.38.82-45.55-.07-15.21-3.86-32.03-7.89-42.36-20.73-5.63-6.13-8.44-14.12-10.42-22.05 10.86-.07 21.71-.03 32.56.2 2.41 9.71 9.7 18.95 19.95 20.75 17.01 3.69 35.01 2.07 51.74-2.36 10.99-3.04 20.19-15.02 16.23-26.58-4.56-6.95-12.76-10.54-20.56-12.47-17.42-4.48-35.06-8.05-52.51-12.43-11.93-3.78-25.27-7.33-32.7-18.35-7.36-7.58-8.41-19.18-5.15-28.83 3.02-7.98 9.94-13.4 16.36-18.58 10.65-8.54 24.33-12.05 37.68-13.37zm330.85 6.78c17.3-7.85 36.8-8.18 55.43-7.29 13.5 1.09 27.47 2.9 39.49 9.63 9.62 5.28 18.98 12.58 23.22 23.02.16 3.02.12 5.97.17 9.03-10.49-.17-20.97-.25-31.44-.43-1.11-3.31-1.92-6.84-3.98-9.71-7.66-8.1-19.18-10.33-29.86-10.71-16.64-.95-34.67 1.64-47.81 12.8-8.86 6.18-14.22 16.25-16.23 26.69-2.14 11.58-2.71 23.65.1 35.17 1.66 11.41 9.42 20.76 17.58 28.37 9.29 8.2 22.04 9.99 33.92 11.13 12.72.37 27.78 2.15 38.3-6.77 4.54-3.09 5.8-8.82 8.17-13.4 10.48-.3 20.96-.39 31.45-.57.01 2.35-.11 4.7-.29 7.05-5.24 11.08-13.63 21.55-25.38 26-8.22 3.01-16.56 5.73-25.05 7.88-15.44 1.71-30.99 1-46.46.13-18.24-3.35-36.49-10.91-48.68-25.42-21.64-22.94-23.71-58.84-12.16-87.04 7.38-16.92 23.29-27.99 39.51-35.56z"/><path fill="#900" d="M603.12 839.16c13.14-11.16 31.17-13.75 47.81-12.8 10.68.38 22.2 2.61 29.86 10.71 2.06 2.87 2.87 6.4 3.98 9.71 10.47.18 20.95.26 31.44.43-.3 24.18-.4 48.38.2 72.57-10.49.18-20.97.27-31.45.57-2.37 4.58-3.63 10.31-8.17 13.4-10.52 8.92-25.58 7.14-38.3 6.77-11.88-1.14-24.63-2.93-33.92-11.13-8.16-7.61-15.92-16.96-17.58-28.37-2.81-11.52-2.24-23.59-.1-35.17 2.01-10.44 7.37-20.51 16.23-26.69zM60.15 902.27c22.96-10.8 48.39-14.31 73.08-19.04-.43 12.45.48 26.28-6.82 37.16-14.58 19.83-42.9 27.54-65.8 19.04-6.57-2.31-13-7.34-14.9-14.26-2.57-10.24 6.61-18.21 14.44-22.9zm630.59 50.56c11.75-4.45 20.14-14.92 25.38-26-.41 11.38-.1 22.77-.14 34.18-16.77.07-33.53-.23-50.29-.3 8.49-2.15 16.83-4.87 25.05-7.88zM10.97 929.76c6.05 17.93 24.32 28.41 42.24 31.15-14.05-.16-28.11.1-42.16.11 0-10.43.12-20.85-.08-31.26zM49 973c2.66-.01 5.33-.01 7.99 0 .02 23.66.02 47.33 0 71.01-2.66-.03-5.31-.03-7.96-.02-.01-2.65-.01-5.28 0-7.89-6.92 12.16-26.21 11.66-33.5.35-6.62-10.01-6.63-23.97-.09-34.03 4.03-4.76 9.37-8.87 15.88-9.14 6.77-.45 12.46 3.9 17.75 7.52-.05-9.28-.07-18.54-.07-27.8zm561 0c2.9-.16 6.03.05 8.99.01.02 23.66.02 47.32 0 70.99-3.09-.16-5.94.07-8.96-.02-.01-2.65-.01-5.28 0-7.89-6.31 11.98-24.93 11.63-32.22 1.07-10.33-11.91-7.9-33.19 6.02-41.3 5.03-2.78 11.31-3.56 16.72-1.3 3.35 1.77 6.44 4.04 9.5 6.31-.05-9.3-.06-18.59-.05-27.87zm-435 3c2.97-.16 6.01.05 9 .01V984c-3.03-.15-5.99.07-9-.01V976zm175.05 7.01c2.91-.17 5.96.04 8.9 0 .03 3.97.06 7.95.1 11.96 5.31 0 10.62.03 15.95.07v6.93c-5.36 0-10.71.03-16.06.07.54 10.52-1.62 21.7 2.29 31.78 3.31 5.84 10.38 3.45 15.87 3.89-.12 1.55-.36 4.64-.48 6.19-6.5.43-13.72 1.67-19.59-1.97-4.8-3.31-5.98-9.69-6.62-15.04-.68-8.26-.52-16.53-.58-24.77-2.99-.21-5.86-.07-8.82-.19v-6.86c2.92-.2 5.98-.02 8.94-.13.02-4 .06-7.97.1-11.93zM69.68 1010.8c4.06-14.11 22.96-22.41 35.53-13.98 8.72 4.45 7.73 15 9.13 23.14-12.6.02-25.21.02-37.81.14 2.45 7.1 4.46 17.71 13.85 17.56 6 1.58 12.46-.66 15.54-6.1 2.89-.27 5.8-.35 8.69-.49-2.85 4.46-4.7 10.83-10.45 12.16-8.43 2.07-18.26 2.21-25.76-2.71-8.24-7.01-12.43-19.32-8.72-29.72zm55.79-5.2c4.8-16.64 35.26-17.16 38.41.94-7.27.18-13.03-4.57-19.83-6.1-4.58-.06-8.54 2.62-11.79 5.58 6.09 11.49 22.43 7.06 30.4 16.31 3.87 7.43-.52 17.05-7.65 20.67-7.81 2.88-16.69 2.48-24.31-.78-4.8-2.16-6.6-7.35-8.08-11.96 7.99-1.51 11.31 7.37 18.77 7.35 4.03.44 9.21.27 11.89-3.33 1.79-2.11 2.65-5.75.2-7.71-6.63-4.78-15.33-4.86-22.4-8.73-4.75-1.82-5.97-7.76-5.61-12.24zm71.5 2.46c2.76-9.69 13.55-15.87 23.37-14.42 5.04.32 8.89 3.96 12.82 6.7-.28-6.28 5.86-4.83 9.79-5.79-.1 16.68.73 33.4-.44 50.07-.43 7.17-4.74 14.57-11.51 17.35-8.48 2.48-17.89 2.63-26.09-.94-4.44-2.2-7.03-6.64-9.55-10.69 2.8-.13 5.61-.23 8.42-.31 4.61 8.82 17.36 9.88 25.16 4.9 5.64-5.19 4.03-14 5.35-20.86-4.88 8.09-15.31 12.08-24.23 8.9-12.96-5.64-17.11-22.31-13.09-34.91zm83.88-14.48c8.1-1.32 17.12 3.8 18.3 12.33 1.61 12.61.7 25.4.86 38.09-3.05-.16-5.98.08-9-.01 0-11.63.43-23.27-.33-34.86-.23-3.46-2.58-6.87-6.06-7.66-6.37-.69-13.19 1.86-17.21 6.88-3.71 11.43-1.97 23.81-2.49 35.65-2.65-.02-5.28-.02-7.92 0-.01-16.34-.02-32.68.01-49 2.65-.01 5.3-.01 7.96.01 0 2.6 0 5.21.01 7.84 4.89-3.63 9.37-8.83 15.87-9.27zm128.51-.24c11-.47 23.22 6.56 25.15 18.08 2.65 11.85-1.95 27.46-14.37 31.78-10.7 3.39-25.17 1.21-30.57-9.82-7.33-11.56-5.27-30.5 8.07-36.72 3.78-1.46 7.69-2.74 11.72-3.32zm91 .04c6.67-.17 13.23 2.77 18.29 6.99 4.97 5.18 5.97 12.8 6.18 19.66.47 9.67-5 20.29-14.7 23.18-8.22 2.55-17.76 1.45-24.88-3.49-11.08-8.86-11.56-26.23-4.01-37.51 4.87-5.52 12.06-7.82 19.12-8.83zm44.61 9.44c5.91-5 12.76-10.24 20.94-9.36-.14 2.62.17 6.06.16 8.91-8.57-3.02-20.06 2.45-20.44 12.21-1.06 9.75-.66 19.6-.67 29.42-2.66-.02-5.31-.02-7.96 0-.01-16.34-.02-32.68.01-49 2.64-.01 5.3-.01 7.96.01-.01 2.59-.01 5.19 0 7.81zm89.13 1.27c7.55-10.96 24.85-14.86 34.99-5.2 6.98 4.5 4.5 14.15 6.15 21.08-12.64 0-25.28-.01-37.91.18 2.35 6.2 5.92 11.82 9.38 17.47 4.72-.25 9.67.8 14.29-.6 2.7-.82 4.16-3.47 5.91-5.47 2.85-.27 5.82-.34 8.7-.48-2.86 4.46-4.71 10.83-10.45 12.16-7.83 2.01-16.55 2.01-23.93-1.54-11.95-7.76-15.91-26.02-7.13-37.6zm61.91-1.18c5.62-5.69 12.68-10.07 20.91-9.5-.19 2.69.18 6.14.14 9.04-8.58-3.29-20.02 2.4-20.43 12.13-1.07 9.75-.66 19.6-.67 29.42-3.09-.16-5.93.07-8.96-.01-.01-16.34-.02-32.67.01-48.99 2.87-.17 6 .05 8.94.02.01 2.61.03 5.24.06 7.89zm-521-7.91c2.97-.17 6 .05 8.99.01.01 16.32.02 32.65-.01 48.99-3.02-.16-5.98.08-8.99-.01-.01-16.34-.02-32.66.01-48.99z"/><path fill="#fff" d="M32.39 1000.48c5.37-1 11.14 1.63 13.82 6.35 4.33 9.25 3.32 21.11-3.41 28.95-4.51 3.75-11.64 4.05-16.59.96-5.98-5.19-7.54-13.91-6.95-21.44.23-7.27 5.93-13.85 13.13-14.82zm58.94-.08c3.92.15 8.29 1.15 11.23 3.98 2.03 2.76 2.57 6.35 4.08 9.44-10.04.14-20.07.23-30.1.08 3.29-5.82 7.58-12.58 14.79-13.5zm126.07.09c5.87-1.09 11.93 2.24 14.8 7.28 3.42 8.85 1.9 19.82-4.38 27.02-7.27 4.22-18.96 2.05-21.63-6.97-5.09-9.71-.69-25.66 11.21-27.33zm190.99-.11c6.07-1.46 12.11 2.01 15.14 7.16 4.86 9.69 2.7 23.16-6.58 29.43-10.11 4.44-20.73-3.56-22.3-13.77-2.61-9.37 3.15-22.2 13.74-22.82zm91.02.11c5.81-1.03 12.14 2.15 14.67 7.45 2.24 6.75 2.87 14.39-.06 21.07-1.58 3.43-3.51 7.86-7.82 8.32-5.29.69-12.49 1.57-15.97-3.57-5.53-7.53-6.96-18.5-2.26-26.79 2.69-3.54 6.9-6.31 11.44-6.48zm94.02-.04c4.77-.88 10.62.3 13.03 5 5.17 9.19 4.34 21.5-2.18 29.83-3.15 3.31-8.42 4.03-12.69 3.2-8.4-3.53-12.27-13.72-11.47-22.36.84-6.93 5.8-14.95 13.31-15.67zm44.77 13.38c2.57-6.4 7.72-12.48 14.88-13.46 3.65.45 7.74 1.31 10.48 4.01 2.02 2.77 2.55 6.35 4.08 9.45-9.82.14-19.64.21-29.44 0z"/></svg>