<?xml version="1.0" encoding="UTF-8" ?>
<!DOCTYPE svg PUBLIC "-//W3C//DTD SVG 1.1//EN" "http://www.w3.org/Graphics/SVG/1.1/DTD/svg11.dtd">
<svg width="900pt" height="1068pt" viewBox="0 0 900 1068" version="1.1" xmlns="http://www.w3.org/2000/svg">
<path fill="#ffffff" d=" M 0.00 0.00 L 900.00 0.00 L 900.00 1068.00 L 0.00 1068.00 L 0.00 0.00 Z" />
<path fill="#990000" d=" M 603.33 37.32 C 604.20 35.82 604.38 32.80 606.69 33.10 C 614.10 51.49 620.03 70.44 626.98 89.00 C 648.89 89.13 670.81 88.56 692.70 89.54 C 678.21 101.15 662.08 110.42 646.73 120.79 C 669.81 121.18 692.90 120.93 715.99 121.01 C 716.01 146.00 716.01 170.99 715.99 195.99 C 690.33 196.01 664.68 196.01 639.03 195.99 C 638.99 187.36 638.98 178.73 638.93 170.11 C 627.98 162.97 617.04 155.83 606.01 148.82 C 588.49 159.86 571.92 172.40 553.80 182.45 C 559.14 163.02 567.22 144.50 573.28 125.30 C 555.60 113.42 537.05 102.75 520.30 89.54 C 542.18 88.56 564.09 89.15 585.99 88.96 C 592.13 71.87 597.53 54.53 603.33 37.32 Z" />
<path fill="#ffcc00" d=" M 587.81 90.93 C 593.91 73.16 599.56 55.23 605.81 37.51 C 612.90 55.08 618.80 73.09 625.22 90.91 C 645.93 91.12 666.65 90.79 687.37 91.24 C 670.80 102.85 653.48 113.33 636.82 124.82 C 643.27 142.61 649.69 160.41 655.88 178.29 C 638.97 167.98 622.68 156.68 605.97 146.04 C 589.68 156.76 573.66 167.90 557.09 178.19 C 563.23 160.19 569.96 142.39 576.03 124.37 C 559.19 113.40 542.12 102.76 525.63 91.28 C 546.35 90.78 567.08 91.10 587.81 90.93 Z" />
<path fill="#990000" d=" M 751.49 152.47 C 754.33 155.73 755.34 160.12 757.00 164.02 C 762.22 179.05 767.59 194.03 772.98 209.00 C 794.54 209.17 816.12 208.58 837.67 209.36 C 821.16 222.43 803.23 233.58 785.76 245.30 C 791.16 264.31 799.30 282.46 804.19 301.61 C 786.03 291.61 769.60 278.76 752.02 267.80 C 734.51 278.85 717.93 291.38 699.81 301.45 C 704.83 282.38 712.74 264.23 718.22 245.30 C 700.73 233.66 683.00 222.31 666.30 209.54 C 687.84 208.57 709.40 209.14 730.96 208.97 C 738.00 190.21 743.93 171.01 751.49 152.47 Z" />
<path fill="#ffcc00" d=" M 752.00 157.72 C 758.86 175.28 764.87 193.16 771.22 210.91 C 791.59 211.11 811.97 210.79 832.34 211.27 C 815.87 222.49 799.36 233.66 782.86 244.82 C 788.91 262.30 795.08 279.74 800.86 297.31 C 784.38 286.83 768.26 275.80 752.00 264.98 C 735.74 275.80 719.62 286.83 703.15 297.31 C 708.72 279.54 715.48 262.16 720.98 244.36 C 704.24 233.77 687.91 222.55 671.64 211.27 C 692.01 210.80 712.40 211.10 732.79 210.91 C 739.02 193.12 745.02 175.24 752.00 157.72 Z" />
<path fill="#990000" d=" M 455.49 192.47 C 458.33 195.73 459.35 200.12 461.00 204.02 C 466.22 219.05 471.59 234.03 476.98 249.00 C 498.54 249.17 520.12 248.58 541.67 249.35 C 531.93 257.62 520.88 264.09 510.63 271.67 C 509.64 272.37 508.66 273.08 507.69 273.80 C 524.78 274.07 541.89 274.02 558.99 274.01 C 559.01 299.00 559.01 324.00 558.99 348.99 C 533.33 349.01 507.67 349.01 482.02 348.99 C 481.99 340.99 482.02 332.99 481.98 325.00 C 473.35 319.22 464.71 313.47 456.00 307.82 C 438.49 318.86 421.92 331.39 403.81 341.45 C 408.84 322.36 416.75 304.20 422.24 285.26 C 415.41 280.87 408.61 276.45 401.68 272.25 L 401.05 271.83 C 391.01 264.06 379.90 257.73 370.15 249.59 C 391.74 248.52 413.35 249.16 434.96 248.97 C 442.00 230.21 447.93 211.01 455.49 192.47 Z" />
<path fill="#ffcc00" d=" M 456.00 197.72 C 462.86 215.28 468.87 233.16 475.22 250.91 C 495.59 251.11 515.97 250.79 536.34 251.27 C 519.87 262.49 503.37 273.66 486.86 284.82 C 492.91 302.30 499.08 319.74 504.86 337.31 C 488.38 326.83 472.26 315.80 456.00 304.98 C 439.74 315.80 423.62 326.83 407.15 337.31 C 412.72 319.54 419.48 302.16 424.98 284.36 C 408.24 273.77 391.92 262.55 375.64 251.27 C 396.02 250.80 416.40 251.10 436.79 250.91 C 443.02 233.12 449.02 215.24 456.00 197.72 Z" />
<path fill="#000000" d=" M 9.01 272.01 C 72.34 271.99 135.67 272.01 199.00 272.00 C 214.54 271.98 230.13 271.43 245.61 273.07 C 245.36 273.09 244.86 273.13 244.61 273.15 C 236.08 273.75 227.54 274.01 219.00 274.09 C 149.67 273.92 80.34 274.02 11.01 274.01 C 10.99 487.42 11.00 700.83 11.01 914.24 C 10.70 919.40 10.65 924.58 10.97 929.76 C 11.17 940.17 11.05 950.59 11.05 961.02 C 25.10 961.01 39.16 960.75 53.21 960.91 C 63.37 961.58 73.58 962.05 83.72 960.82 C 141.22 961.10 198.73 961.08 256.23 960.84 C 271.40 961.73 286.62 962.13 301.78 960.91 C 356.29 960.94 410.81 961.22 465.32 960.76 C 478.09 961.79 490.98 962.18 503.76 960.95 C 542.25 960.91 580.74 961.13 619.23 960.84 C 634.70 961.71 650.25 962.42 665.69 960.71 C 682.45 960.78 699.21 961.08 715.98 961.01 C 716.02 949.60 715.71 938.21 716.12 926.83 C 716.30 924.48 716.42 922.13 716.41 919.78 C 715.81 895.59 715.91 871.39 716.21 847.21 C 716.16 844.15 716.20 841.20 716.04 838.18 C 716.24 803.23 715.25 768.25 716.59 733.33 C 716.61 733.05 716.66 732.50 716.69 732.23 C 717.71 740.77 718.12 749.38 718.10 758.00 C 717.87 826.33 718.07 894.66 717.99 962.99 C 481.66 963.01 245.33 963.00 9.01 962.99 C 9.00 732.66 8.99 502.34 9.01 272.01 Z" />
<path fill="#000000" d=" M 247.02 272.00 C 272.35 271.99 297.67 271.99 323.00 272.00 C 323.00 272.50 322.99 273.50 322.99 274.00 C 297.63 274.00 272.27 273.99 246.91 274.01 C 246.94 273.51 246.99 272.50 247.02 272.00 Z" />
<path fill="#000000" d=" M 324.20 273.17 C 349.74 270.93 375.44 272.30 401.05 271.83 L 401.68 272.25 C 401.99 272.47 402.62 272.93 402.93 273.16 C 377.06 274.53 351.11 274.50 325.24 273.25 C 324.98 273.23 324.46 273.19 324.20 273.17 Z" />
<path fill="#000000" d=" M 507.69 273.80 C 508.66 273.08 509.64 272.37 510.63 271.67 C 526.75 272.11 542.87 272.00 559.00 272.01 C 559.00 272.51 558.99 273.51 558.99 274.01 C 541.89 274.02 524.78 274.07 507.69 273.80 Z" />
<path fill="#000000" d=" M 560.17 273.31 C 585.69 270.60 611.40 272.56 637.00 272.00 C 637.00 272.50 637.00 273.51 636.99 274.01 C 611.74 273.63 586.45 274.84 561.22 273.41 C 560.96 273.39 560.44 273.34 560.17 273.31 Z" />
<path fill="#990000" d=" M 11.01 274.01 C 80.34 274.02 149.67 273.92 219.00 274.09 C 227.54 274.01 236.08 273.75 244.61 273.15 C 246.42 296.70 245.65 320.57 250.24 343.86 C 253.65 360.76 257.59 377.56 261.57 394.34 C 265.07 409.24 271.24 423.28 276.48 437.61 C 283.34 456.46 293.04 474.11 302.13 491.95 C 309.77 504.54 317.64 516.99 325.68 529.34 C 339.85 548.32 354.15 567.28 370.63 584.36 C 390.12 607.32 413.36 626.78 437.91 644.11 C 455.78 657.46 475.30 668.38 494.72 679.27 C 511.93 687.21 528.91 695.83 546.79 702.22 C 562.11 707.90 577.79 712.55 593.33 717.59 C 615.53 723.48 638.24 727.34 661.04 730.01 C 679.49 732.13 698.12 731.44 716.59 733.33 C 715.25 768.25 716.24 803.23 716.04 838.18 C 711.80 827.74 702.44 820.44 692.82 815.16 C 680.80 808.43 666.83 806.62 653.33 805.53 C 634.70 804.64 615.20 804.97 597.90 812.82 C 581.68 820.39 565.77 831.46 558.39 848.38 C 546.84 876.58 548.91 912.48 570.55 935.42 C 582.74 949.93 600.99 957.49 619.23 960.84 C 580.74 961.13 542.25 960.91 503.76 960.95 C 509.51 959.73 515.21 958.31 520.93 956.96 C 520.98 950.41 521.03 943.88 521.09 937.36 C 505.01 940.50 487.95 942.77 471.95 938.04 C 461.14 934.45 455.15 923.06 454.69 912.19 C 453.07 884.83 454.36 857.40 454.02 830.02 C 473.01 829.97 492.00 830.02 511.00 829.99 C 511.00 822.98 511.00 815.99 511.00 809.02 C 492.00 808.97 473.01 809.02 454.02 808.98 C 454.00 797.32 453.99 785.66 453.97 774.01 C 442.98 773.97 432.00 773.97 421.02 774.01 C 421.00 785.66 420.99 797.31 420.97 808.97 C 409.64 808.97 398.32 809.00 387.00 809.02 C 386.99 815.99 386.99 822.98 387.00 829.97 C 398.33 829.98 409.66 830.00 421.00 830.02 C 421.27 856.61 420.42 883.22 421.32 909.81 C 422.01 921.83 424.24 934.94 433.14 943.85 C 441.31 953.51 453.67 957.22 465.32 960.76 C 410.81 961.22 356.29 960.94 301.78 960.91 C 316.90 958.04 332.61 953.99 344.08 943.07 C 350.41 935.73 356.66 927.37 357.34 917.33 C 357.81 908.24 358.54 896.88 350.54 890.52 C 343.51 884.98 335.21 881.25 326.90 878.11 C 306.59 872.14 285.45 869.63 265.09 863.88 C 257.32 861.58 248.05 858.59 244.27 850.67 C 241.75 845.67 244.78 839.94 248.29 836.32 C 260.14 826.81 276.30 825.71 290.85 826.14 C 299.67 827.15 309.24 827.85 316.55 833.46 C 319.17 835.56 320.52 838.75 322.14 841.61 C 332.93 841.92 343.73 842.00 354.52 841.97 C 352.97 835.64 352.04 828.65 347.10 823.90 C 340.10 816.53 331.09 810.81 320.96 809.00 C 303.31 805.13 285.01 804.41 267.05 806.04 C 253.70 807.36 240.02 810.87 229.37 819.41 C 222.95 824.59 216.03 830.01 213.01 837.99 C 209.75 847.64 210.80 859.24 218.16 866.82 C 225.59 877.84 238.93 881.39 250.86 885.17 C 268.31 889.55 285.95 893.12 303.37 897.60 C 311.17 899.53 319.37 903.12 323.93 910.07 C 327.89 921.63 318.69 933.61 307.70 936.65 C 290.97 941.08 272.97 942.70 255.96 939.01 C 245.71 937.21 238.42 927.97 236.01 918.26 C 225.16 918.03 214.31 917.99 203.45 918.06 C 205.43 925.99 208.24 933.98 213.87 940.11 C 224.20 952.95 241.02 956.98 256.23 960.84 C 198.73 961.08 141.22 961.10 83.72 960.82 C 101.43 956.88 118.43 949.64 132.71 938.33 C 134.27 944.92 136.08 951.44 138.02 957.94 C 149.71 957.99 161.40 958.00 173.09 957.95 C 159.01 917.53 171.27 874.10 163.21 832.84 C 160.64 820.33 146.85 815.72 136.38 811.56 C 116.05 805.11 94.18 803.83 73.06 806.18 C 53.31 808.90 32.98 816.18 19.38 831.37 C 15.01 835.80 14.22 842.22 12.33 847.88 C 23.86 847.99 35.39 847.97 46.93 847.72 C 49.11 841.89 52.29 836.08 57.55 832.49 C 69.09 823.97 84.28 824.10 97.95 824.03 C 108.22 825.17 119.53 826.27 127.73 833.30 C 130.42 835.31 131.46 838.76 131.85 841.97 C 133.08 849.56 133.01 857.31 133.19 865.00 C 109.56 869.35 85.41 871.13 62.34 878.22 C 46.41 881.91 30.96 888.59 19.03 900.04 C 14.61 903.54 12.55 909.00 11.01 914.24 C 11.00 700.83 10.99 487.42 11.01 274.01 Z" />
<path fill="#990000" d=" M 246.91 274.01 C 272.27 273.99 297.63 274.00 322.99 274.00 C 323.01 299.00 323.02 323.99 322.99 348.99 C 300.42 349.44 277.80 347.94 255.28 349.88 C 277.79 352.06 300.42 350.61 322.99 351.01 C 323.01 375.66 323.01 400.32 322.99 424.98 C 310.42 424.87 297.80 424.61 285.28 425.88 C 297.75 427.21 310.30 427.15 322.83 427.03 C 322.95 436.26 322.93 445.52 323.88 454.72 C 324.78 445.50 325.05 436.25 325.13 427.01 C 350.75 426.98 376.37 426.99 401.99 427.01 C 402.01 452.00 402.01 476.99 401.99 501.99 C 375.42 502.65 348.75 500.71 322.25 502.84 C 348.75 505.25 375.41 503.47 401.98 504.01 C 402.00 512.33 401.99 520.66 402.01 529.00 C 402.50 529.00 403.49 529.00 403.99 529.00 C 404.00 520.66 404.00 512.33 404.03 504.01 C 429.35 503.98 454.67 503.98 479.99 504.01 C 480.01 528.67 480.02 553.33 479.99 577.99 C 453.76 578.56 427.45 576.82 401.27 578.84 C 427.43 581.25 453.75 579.47 479.98 580.01 C 479.98 586.99 479.99 593.99 480.01 600.99 C 480.50 601.00 481.49 601.00 481.99 601.00 C 481.99 594.00 482.00 587.00 482.02 580.01 C 507.68 579.99 533.34 579.98 559.00 580.01 C 559.00 600.33 559.00 620.66 558.99 640.99 C 559.50 641.00 560.50 641.00 561.01 641.00 C 561.00 620.67 560.99 600.34 561.01 580.01 C 586.65 579.99 612.29 579.98 637.93 580.02 C 639.65 604.97 638.88 630.00 638.99 654.99 C 595.33 655.02 551.67 654.99 508.01 655.00 C 508.00 655.50 508.00 656.50 508.00 657.00 C 551.66 657.01 595.33 656.98 638.99 657.01 C 638.98 669.00 639.00 680.99 639.00 692.99 C 639.50 693.00 640.50 693.00 641.00 693.00 C 640.99 681.00 641.01 669.00 641.01 657.00 C 666.25 657.09 691.50 656.72 716.75 657.24 C 715.51 681.98 715.54 706.80 716.66 731.55 C 699.59 729.75 682.39 730.29 665.32 728.57 C 642.95 726.44 620.84 722.06 598.99 716.93 C 581.87 711.46 564.60 706.41 547.71 700.25 C 528.77 693.17 510.62 684.18 492.35 675.57 C 479.71 668.31 467.14 660.90 454.70 653.29 C 426.14 633.41 397.91 612.42 374.93 586.07 C 352.10 561.80 331.41 535.42 314.05 506.96 C 301.85 488.68 292.69 468.62 283.24 448.85 C 276.01 429.75 267.89 410.89 263.09 390.98 C 256.87 365.32 250.40 339.50 248.84 313.05 C 247.90 300.04 248.13 286.99 246.91 274.01 Z" />
<path fill="#990000" d=" M 325.24 273.25 C 351.11 274.50 377.06 274.53 402.93 273.16 C 401.08 298.40 402.37 323.72 401.99 348.99 C 376.32 349.01 350.66 349.01 325.00 348.99 C 325.09 323.74 324.72 298.49 325.24 273.25 Z" />
<path fill="#990000" d=" M 561.22 273.41 C 586.45 274.84 611.74 273.63 636.99 274.01 C 637.00 293.45 636.96 312.88 637.06 332.32 C 645.23 329.92 654.19 328.94 661.52 324.53 C 667.29 312.38 669.09 298.77 674.65 286.52 C 680.07 295.83 681.74 306.69 685.26 316.74 C 686.50 319.59 686.89 323.30 689.41 325.46 C 701.55 329.84 714.36 332.15 726.42 336.79 C 714.26 342.92 700.75 345.47 688.03 350.15 C 683.16 362.74 679.91 375.87 675.18 388.52 C 670.12 377.28 667.66 365.16 663.43 353.64 C 662.90 352.31 662.35 350.73 660.93 350.12 C 653.25 346.69 645.09 344.54 637.05 342.17 C 637.02 343.87 636.95 347.27 636.92 348.97 C 611.61 349.03 586.31 349.01 561.00 348.99 C 561.09 323.80 560.74 298.60 561.22 273.41 Z" />
<path fill="#ffcc00" d=" M 674.98 292.53 C 679.31 303.16 681.64 314.50 685.96 325.12 C 686.93 327.99 690.71 328.03 692.96 329.04 C 702.11 331.75 711.34 334.16 720.39 337.18 C 709.07 341.11 697.65 344.75 686.21 348.31 C 682.11 359.24 679.18 370.56 675.01 381.47 C 670.89 370.73 667.82 359.65 664.08 348.78 C 652.83 344.32 641.03 341.42 629.73 337.10 C 639.02 334.05 648.51 331.65 657.88 328.87 C 660.55 327.91 663.94 327.10 664.32 323.56 C 668.74 313.52 670.84 302.68 674.98 292.53 Z" />
<path fill="#990000" d=" M 781.04 389.57 C 797.61 371.56 813.39 352.84 829.78 334.66 C 848.71 352.06 868.22 368.83 886.96 386.43 C 870.42 404.47 854.79 423.33 838.23 441.36 C 819.33 423.91 799.73 407.23 781.04 389.57 Z" />
<path fill="#990000" d=" M 325.01 351.01 C 350.67 350.99 376.33 350.99 401.99 351.01 C 402.01 375.67 402.01 400.33 401.99 424.99 C 376.33 425.01 350.67 425.01 325.01 424.99 C 324.98 400.33 324.98 375.67 325.01 351.01 Z" />
<path fill="#990000" d=" M 404.01 351.01 C 429.33 350.99 454.66 350.99 479.99 351.01 C 480.01 375.67 480.02 400.33 479.99 424.99 C 454.66 425.01 429.34 425.01 404.01 424.99 C 403.99 400.33 403.98 375.67 404.01 351.01 Z" />
<path fill="#990000" d=" M 482.01 351.01 C 507.67 350.99 533.33 350.99 558.99 351.01 C 559.01 375.67 559.01 400.33 558.99 424.99 C 533.33 425.01 507.67 425.01 482.01 424.99 C 481.98 400.33 481.98 375.67 482.01 351.01 Z" />
<path fill="#990000" d=" M 561.01 351.01 C 586.33 350.99 611.66 350.99 636.99 351.01 C 637.01 375.67 637.01 400.33 636.99 424.99 C 611.66 425.01 586.34 425.01 561.01 424.99 C 560.99 400.33 560.98 375.67 561.01 351.01 Z" />
<path fill="#990000" d=" M 404.01 427.01 C 429.34 426.98 454.66 426.98 479.99 427.01 C 480.01 452.00 480.01 476.99 479.99 501.99 C 454.66 502.01 429.33 502.01 404.01 501.99 C 403.98 476.99 403.98 452.00 404.01 427.01 Z" />
<path fill="#990000" d=" M 482.01 427.01 C 507.67 426.99 533.33 426.98 559.00 427.01 C 559.49 446.91 557.83 466.91 559.84 486.75 C 561.92 466.90 560.76 446.92 561.00 427.01 C 586.66 426.99 612.33 426.98 638.00 427.01 C 638.49 446.91 636.83 466.91 638.84 486.75 C 640.92 466.90 639.76 446.92 640.00 427.01 C 665.33 426.99 690.66 426.98 716.00 427.01 C 716.00 451.99 716.00 476.98 716.00 501.97 C 702.84 502.06 689.61 501.42 676.52 502.99 C 689.89 504.14 703.32 504.08 716.74 504.26 C 715.27 528.81 716.22 553.42 715.99 578.00 C 690.67 577.60 665.37 578.98 640.07 577.94 C 639.99 572.69 639.91 567.45 639.84 562.22 C 631.16 556.85 622.59 551.32 614.01 545.82 C 596.49 556.86 579.92 569.40 561.80 579.45 C 567.15 560.02 575.22 541.50 581.28 522.29 C 573.85 517.51 566.46 512.68 559.06 507.89 C 558.94 531.25 559.02 554.62 558.99 577.99 C 533.33 578.01 507.67 578.01 482.01 577.99 C 481.98 553.32 481.98 528.66 482.01 504.00 C 505.47 503.73 528.98 504.79 552.41 503.13 C 529.01 500.89 505.47 502.40 482.01 501.99 C 481.98 477.00 481.98 452.00 482.01 427.01 Z" />
<path fill="#000000" d=" M 716.00 427.01 C 716.50 427.01 717.50 427.00 718.00 426.99 C 718.01 452.00 718.01 477.00 718.00 502.01 C 717.50 502.00 716.50 501.98 716.00 501.97 C 716.00 476.98 716.00 451.99 716.00 427.01 Z" />
<path fill="#ffcc00" d=" M 595.81 487.93 C 601.91 470.16 607.56 452.23 613.81 434.51 C 620.90 452.07 626.80 470.09 633.22 487.91 C 653.93 488.12 674.65 487.79 695.37 488.24 C 678.80 499.85 661.48 510.33 644.82 521.82 C 651.27 539.61 657.69 557.41 663.88 575.29 C 646.97 564.97 630.68 553.68 613.97 543.04 C 597.68 553.76 581.66 564.90 565.09 575.19 C 571.23 557.19 577.96 539.39 584.03 521.37 C 567.19 510.39 550.12 499.76 533.63 488.28 C 554.35 487.78 575.08 488.10 595.81 487.93 Z" />
<path fill="#000000" d=" M 716.74 504.26 C 716.76 503.99 716.81 503.46 716.83 503.19 C 719.21 528.05 717.54 553.06 718.00 577.99 C 717.50 577.99 716.50 577.99 715.99 578.00 C 716.22 553.42 715.27 528.81 716.74 504.26 Z" />
<path fill="#990000" d=" M 640.06 580.03 C 665.37 579.97 690.68 579.99 716.00 580.01 C 716.00 605.00 716.00 629.99 716.00 654.99 C 690.99 655.01 666.00 655.01 641.00 654.99 C 640.51 630.01 642.10 604.95 640.06 580.03 Z" />
<path fill="#000000" d=" M 716.00 580.01 C 716.50 580.01 717.50 580.00 718.00 579.99 C 718.01 604.99 718.01 630.00 717.99 655.01 C 717.50 655.00 716.50 654.99 716.00 654.99 C 716.00 629.99 716.00 605.00 716.00 580.01 Z" />
<path fill="#000000" d=" M 716.75 657.24 C 716.77 656.98 716.81 656.46 716.83 656.20 C 718.82 674.73 717.80 693.40 718.14 712.00 C 717.81 718.47 718.78 725.28 716.66 731.55 C 715.54 706.80 715.51 681.98 716.75 657.24 Z" />
<path fill="#ffcc00" d=" M 421.02 774.01 C 432.00 773.97 442.98 773.97 453.97 774.01 C 453.99 785.66 454.00 797.32 454.02 808.98 C 473.01 809.02 492.00 808.97 511.00 809.02 C 511.00 815.99 511.00 822.98 511.00 829.99 C 492.00 830.02 473.01 829.97 454.02 830.02 C 454.36 857.40 453.07 884.83 454.69 912.19 C 455.15 923.06 461.14 934.45 471.95 938.04 C 487.95 942.77 505.01 940.50 521.09 937.36 C 521.03 943.88 520.98 950.41 520.93 956.96 C 515.21 958.31 509.51 959.73 503.76 960.95 C 490.98 962.18 478.09 961.79 465.32 960.76 C 453.67 957.22 441.31 953.51 433.14 943.85 C 424.24 934.94 422.01 921.83 421.32 909.81 C 420.42 883.22 421.27 856.61 421.00 830.02 C 409.66 830.00 398.33 829.98 387.00 829.97 C 386.99 822.98 386.99 815.99 387.00 809.02 C 398.32 809.00 409.64 808.97 420.97 808.97 C 420.99 797.31 421.00 785.66 421.02 774.01 Z" />
<path fill="#ffcc00" d=" M 73.06 806.18 C 94.18 803.83 116.05 805.11 136.38 811.56 C 146.85 815.72 160.64 820.33 163.21 832.84 C 171.27 874.10 159.01 917.53 173.09 957.95 C 161.40 958.00 149.71 957.99 138.02 957.94 C 136.08 951.44 134.27 944.92 132.71 938.33 C 118.43 949.64 101.43 956.88 83.72 960.82 C 73.58 962.05 63.37 961.58 53.21 960.91 C 35.29 958.17 17.02 947.69 10.97 929.76 C 10.65 924.58 10.70 919.40 11.01 914.24 C 12.55 909.00 14.61 903.54 19.03 900.04 C 30.96 888.59 46.41 881.91 62.34 878.22 C 85.41 871.13 109.56 869.35 133.19 865.00 C 133.01 857.31 133.08 849.56 131.85 841.97 C 131.46 838.76 130.42 835.31 127.73 833.30 C 119.53 826.27 108.22 825.17 97.95 824.03 C 84.28 824.10 69.09 823.97 57.55 832.49 C 52.29 836.08 49.11 841.89 46.93 847.72 C 35.39 847.97 23.86 847.99 12.33 847.88 C 14.22 842.22 15.01 835.80 19.38 831.37 C 32.98 816.18 53.31 808.90 73.06 806.18 Z" />
<path fill="#ffcc00" d=" M 267.05 806.04 C 285.01 804.41 303.31 805.13 320.96 809.00 C 331.09 810.81 340.10 816.53 347.10 823.90 C 352.04 828.65 352.97 835.64 354.52 841.97 C 343.73 842.00 332.93 841.92 322.14 841.61 C 320.52 838.75 319.17 835.56 316.55 833.46 C 309.24 827.85 299.67 827.15 290.85 826.14 C 276.30 825.71 260.14 826.81 248.29 836.32 C 244.78 839.94 241.75 845.67 244.27 850.67 C 248.05 858.59 257.32 861.58 265.09 863.88 C 285.45 869.63 306.59 872.14 326.90 878.11 C 335.21 881.25 343.51 884.98 350.54 890.52 C 358.54 896.88 357.81 908.24 357.34 917.33 C 356.66 927.37 350.41 935.73 344.08 943.07 C 332.61 953.99 316.90 958.04 301.78 960.91 C 286.62 962.13 271.40 961.73 256.23 960.84 C 241.02 956.98 224.20 952.95 213.87 940.11 C 208.24 933.98 205.43 925.99 203.45 918.06 C 214.31 917.99 225.16 918.03 236.01 918.26 C 238.42 927.97 245.71 937.21 255.96 939.01 C 272.97 942.70 290.97 941.08 307.70 936.65 C 318.69 933.61 327.89 921.63 323.93 910.07 C 319.37 903.12 311.17 899.53 303.37 897.60 C 285.95 893.12 268.31 889.55 250.86 885.17 C 238.93 881.39 225.59 877.84 218.16 866.82 C 210.80 859.24 209.75 847.64 213.01 837.99 C 216.03 830.01 222.95 824.59 229.37 819.41 C 240.02 810.87 253.70 807.36 267.05 806.04 Z" />
<path fill="#ffcc00" d=" M 597.90 812.82 C 615.20 804.97 634.70 804.64 653.33 805.53 C 666.83 806.62 680.80 808.43 692.82 815.16 C 702.44 820.44 711.80 827.74 716.04 838.18 C 716.20 841.20 716.16 844.15 716.21 847.21 C 705.72 847.04 695.24 846.96 684.77 846.78 C 683.66 843.47 682.85 839.94 680.79 837.07 C 673.13 828.97 661.61 826.74 650.93 826.36 C 634.29 825.41 616.26 828.00 603.12 839.16 C 594.26 845.34 588.90 855.41 586.89 865.85 C 584.75 877.43 584.18 889.50 586.99 901.02 C 588.65 912.43 596.41 921.78 604.57 929.39 C 613.86 937.59 626.61 939.38 638.49 940.52 C 651.21 940.89 666.27 942.67 676.79 933.75 C 681.33 930.66 682.59 924.93 684.96 920.35 C 695.44 920.05 705.92 919.96 716.41 919.78 C 716.42 922.13 716.30 924.48 716.12 926.83 C 710.88 937.91 702.49 948.38 690.74 952.83 C 682.52 955.84 674.18 958.56 665.69 960.71 C 650.25 962.42 634.70 961.71 619.23 960.84 C 600.99 957.49 582.74 949.93 570.55 935.42 C 548.91 912.48 546.84 876.58 558.39 848.38 C 565.77 831.46 581.68 820.39 597.90 812.82 Z" />
<path fill="#990000" d=" M 603.12 839.16 C 616.26 828.00 634.29 825.41 650.93 826.36 C 661.61 826.74 673.13 828.97 680.79 837.07 C 682.85 839.94 683.66 843.47 684.77 846.78 C 695.24 846.96 705.72 847.04 716.21 847.21 C 715.91 871.39 715.81 895.59 716.41 919.78 C 705.92 919.96 695.44 920.05 684.96 920.35 C 682.59 924.93 681.33 930.66 676.79 933.75 C 666.27 942.67 651.21 940.89 638.49 940.52 C 626.61 939.38 613.86 937.59 604.57 929.39 C 596.41 921.78 588.65 912.43 586.99 901.02 C 584.18 889.50 584.75 877.43 586.89 865.85 C 588.90 855.41 594.26 845.34 603.12 839.16 Z" />
<path fill="#990000" d=" M 60.15 902.27 C 83.11 891.47 108.54 887.96 133.23 883.23 C 132.80 895.68 133.71 909.51 126.41 920.39 C 111.83 940.22 83.51 947.93 60.61 939.43 C 54.04 937.12 47.61 932.09 45.71 925.17 C 43.14 914.93 52.32 906.96 60.15 902.27 Z" />
<path fill="#990000" d=" M 690.74 952.83 C 702.49 948.38 710.88 937.91 716.12 926.83 C 715.71 938.21 716.02 949.60 715.98 961.01 C 699.21 961.08 682.45 960.78 665.69 960.71 C 674.18 958.56 682.52 955.84 690.74 952.83 Z" />
<path fill="#990000" d=" M 10.97 929.76 C 17.02 947.69 35.29 958.17 53.21 960.91 C 39.16 960.75 25.10 961.01 11.05 961.02 C 11.05 950.59 11.17 940.17 10.97 929.76 Z" />
<path fill="#990000" d=" M 49.00 973.00 C 51.66 972.99 54.33 972.99 56.99 973.00 C 57.01 996.66 57.01 1020.33 56.99 1044.01 C 54.33 1043.98 51.68 1043.98 49.03 1043.99 C 49.02 1041.34 49.02 1038.71 49.03 1036.10 C 42.11 1048.26 22.82 1047.76 15.53 1036.45 C 8.91 1026.44 8.90 1012.48 15.44 1002.42 C 19.47 997.66 24.81 993.55 31.32 993.28 C 38.09 992.83 43.78 997.18 49.07 1000.80 C 49.02 991.52 49.00 982.26 49.00 973.00 Z" />
<path fill="#990000" d=" M 610.00 973.00 C 612.90 972.84 616.03 973.05 618.99 973.01 C 619.01 996.67 619.01 1020.33 618.99 1044.00 C 615.90 1043.84 613.05 1044.07 610.03 1043.98 C 610.02 1041.33 610.02 1038.70 610.03 1036.09 C 603.72 1048.07 585.10 1047.72 577.81 1037.16 C 567.48 1025.25 569.91 1003.97 583.83 995.86 C 588.86 993.08 595.14 992.30 600.55 994.56 C 603.90 996.33 606.99 998.60 610.05 1000.87 C 610.00 991.57 609.99 982.28 610.00 973.00 Z" />
<path fill="#990000" d=" M 175.00 976.00 C 177.97 975.84 181.01 976.05 184.00 976.01 C 184.00 978.65 184.00 981.32 184.00 984.00 C 180.97 983.85 178.01 984.07 175.00 983.99 C 175.00 981.31 175.00 978.65 175.00 976.00 Z" />
<path fill="#990000" d=" M 350.05 983.01 C 352.96 982.84 356.01 983.05 358.95 983.01 C 358.98 986.98 359.01 990.96 359.05 994.97 C 364.36 994.97 369.67 995.00 375.00 995.04 C 375.00 996.77 375.00 1000.23 375.00 1001.97 C 369.64 1001.97 364.29 1002.00 358.94 1002.04 C 359.48 1012.56 357.32 1023.74 361.23 1033.82 C 364.54 1039.66 371.61 1037.27 377.10 1037.71 C 376.98 1039.26 376.74 1042.35 376.62 1043.90 C 370.12 1044.33 362.90 1045.57 357.03 1041.93 C 352.23 1038.62 351.05 1032.24 350.41 1026.89 C 349.73 1018.63 349.89 1010.36 349.83 1002.12 C 346.84 1001.91 343.97 1002.05 341.01 1001.93 C 341.01 1000.21 341.01 996.79 341.01 995.07 C 343.93 994.87 346.99 995.05 349.95 994.94 C 349.97 990.94 350.01 986.97 350.05 983.01 Z" />
<path fill="#990000" d=" M 69.68 1010.80 C 73.74 996.69 92.64 988.39 105.21 996.82 C 113.93 1001.27 112.94 1011.82 114.34 1019.96 C 101.74 1019.98 89.13 1019.98 76.53 1020.10 C 78.98 1027.20 80.99 1037.81 90.38 1037.66 C 96.38 1039.24 102.84 1037.00 105.92 1031.56 C 108.81 1031.29 111.72 1031.21 114.61 1031.07 C 111.76 1035.53 109.91 1041.90 104.16 1043.23 C 95.73 1045.30 85.90 1045.44 78.40 1040.52 C 70.16 1033.51 65.97 1021.20 69.68 1010.80 Z" />
<path fill="#990000" d=" M 125.47 1005.60 C 130.27 988.96 160.73 988.44 163.88 1006.54 C 156.61 1006.72 150.85 1001.97 144.05 1000.44 C 139.47 1000.38 135.51 1003.06 132.26 1006.02 C 138.35 1017.51 154.69 1013.08 162.66 1022.33 C 166.53 1029.76 162.14 1039.38 155.01 1043.00 C 147.20 1045.88 138.32 1045.48 130.70 1042.22 C 125.90 1040.06 124.10 1034.87 122.62 1030.26 C 130.61 1028.75 133.93 1037.63 141.39 1037.61 C 145.42 1038.05 150.60 1037.88 153.28 1034.28 C 155.07 1032.17 155.93 1028.53 153.48 1026.57 C 146.85 1021.79 138.15 1021.71 131.08 1017.84 C 126.33 1016.02 125.11 1010.08 125.47 1005.60 Z" />
<path fill="#990000" d=" M 196.97 1008.06 C 199.73 998.37 210.52 992.19 220.34 993.64 C 225.38 993.96 229.23 997.60 233.16 1000.34 C 232.88 994.06 239.02 995.51 242.95 994.55 C 242.85 1011.23 243.68 1027.95 242.51 1044.62 C 242.08 1051.79 237.77 1059.19 231.00 1061.97 C 222.52 1064.45 213.11 1064.60 204.91 1061.03 C 200.47 1058.83 197.88 1054.39 195.36 1050.34 C 198.16 1050.21 200.97 1050.11 203.78 1050.03 C 208.39 1058.85 221.14 1059.91 228.94 1054.93 C 234.58 1049.74 232.97 1040.93 234.29 1034.07 C 229.41 1042.16 218.98 1046.15 210.06 1042.97 C 197.10 1037.33 192.95 1020.66 196.97 1008.06 Z" />
<path fill="#990000" d=" M 280.85 993.58 C 288.95 992.26 297.97 997.38 299.15 1005.91 C 300.76 1018.52 299.85 1031.31 300.01 1044.00 C 296.96 1043.84 294.03 1044.08 291.01 1043.99 C 291.01 1032.36 291.44 1020.72 290.68 1009.13 C 290.45 1005.67 288.10 1002.26 284.62 1001.47 C 278.25 1000.78 271.43 1003.33 267.41 1008.35 C 263.70 1019.78 265.44 1032.16 264.92 1044.00 C 262.27 1043.98 259.64 1043.98 257.00 1044.00 C 256.99 1027.66 256.98 1011.32 257.01 995.00 C 259.66 994.99 262.31 994.99 264.97 995.01 C 264.97 997.61 264.97 1000.22 264.98 1002.85 C 269.87 999.22 274.35 994.02 280.85 993.58 Z" />
<path fill="#990000" d=" M 409.36 993.34 C 420.36 992.87 432.58 999.90 434.51 1011.42 C 437.16 1023.27 432.56 1038.88 420.14 1043.20 C 409.44 1046.59 394.97 1044.41 389.57 1033.38 C 382.24 1021.82 384.30 1002.88 397.64 996.66 C 401.42 995.20 405.33 993.92 409.36 993.34 Z" />
<path fill="#990000" d=" M 500.36 993.38 C 507.03 993.21 513.59 996.15 518.65 1000.37 C 523.62 1005.55 524.62 1013.17 524.83 1020.03 C 525.30 1029.70 519.83 1040.32 510.13 1043.21 C 501.91 1045.76 492.37 1044.66 485.25 1039.72 C 474.17 1030.86 473.69 1013.49 481.24 1002.21 C 486.11 996.69 493.30 994.39 500.36 993.38 Z" />
<path fill="#990000" d=" M 544.97 1002.82 C 550.88 997.82 557.73 992.58 565.91 993.46 C 565.77 996.08 566.08 999.52 566.07 1002.37 C 557.50 999.35 546.01 1004.82 545.63 1014.58 C 544.57 1024.33 544.97 1034.18 544.96 1044.00 C 542.30 1043.98 539.65 1043.98 537.00 1044.00 C 536.99 1027.66 536.98 1011.32 537.01 995.00 C 539.65 994.99 542.31 994.99 544.97 995.01 C 544.96 997.60 544.96 1000.20 544.97 1002.82 Z" />
<path fill="#990000" d=" M 634.10 1004.09 C 641.65 993.13 658.95 989.23 669.09 998.89 C 676.07 1003.39 673.59 1013.04 675.24 1019.97 C 662.60 1019.97 649.96 1019.96 637.33 1020.15 C 639.68 1026.35 643.25 1031.97 646.71 1037.62 C 651.43 1037.37 656.38 1038.42 661.00 1037.02 C 663.70 1036.20 665.16 1033.55 666.91 1031.55 C 669.76 1031.28 672.73 1031.21 675.61 1031.07 C 672.75 1035.53 670.90 1041.90 665.16 1043.23 C 657.33 1045.24 648.61 1045.24 641.23 1041.69 C 629.28 1033.93 625.32 1015.67 634.10 1004.09 Z" />
<path fill="#990000" d=" M 696.01 1002.91 C 701.63 997.22 708.69 992.84 716.92 993.41 C 716.73 996.10 717.10 999.55 717.06 1002.45 C 708.48 999.16 697.04 1004.85 696.63 1014.58 C 695.56 1024.33 695.97 1034.18 695.96 1044.00 C 692.87 1043.84 690.03 1044.07 687.00 1043.99 C 686.99 1027.65 686.98 1011.32 687.01 995.00 C 689.88 994.83 693.01 995.05 695.95 995.02 C 695.96 997.63 695.98 1000.26 696.01 1002.91 Z" />
<path fill="#990000" d=" M 175.01 995.00 C 177.98 994.83 181.01 995.05 184.00 995.01 C 184.01 1011.33 184.02 1027.66 183.99 1044.00 C 180.97 1043.84 178.01 1044.08 175.00 1043.99 C 174.99 1027.65 174.98 1011.33 175.01 995.00 Z" />
<path fill="#ffffff" d=" M 32.39 1000.48 C 37.76 999.48 43.53 1002.11 46.21 1006.83 C 50.54 1016.08 49.53 1027.94 42.80 1035.78 C 38.29 1039.53 31.16 1039.83 26.21 1036.74 C 20.23 1031.55 18.67 1022.83 19.26 1015.30 C 19.49 1008.03 25.19 1001.45 32.39 1000.48 Z" />
<path fill="#ffffff" d=" M 91.33 1000.40 C 95.25 1000.55 99.62 1001.55 102.56 1004.38 C 104.59 1007.14 105.13 1010.73 106.64 1013.82 C 96.60 1013.96 86.57 1014.05 76.54 1013.90 C 79.83 1008.08 84.12 1001.32 91.33 1000.40 Z" />
<path fill="#ffffff" d=" M 217.40 1000.49 C 223.27 999.40 229.33 1002.73 232.20 1007.77 C 235.62 1016.62 234.10 1027.59 227.82 1034.79 C 220.55 1039.01 208.86 1036.84 206.19 1027.82 C 201.10 1018.11 205.50 1002.16 217.40 1000.49 Z" />
<path fill="#ffffff" d=" M 408.39 1000.38 C 414.46 998.92 420.50 1002.39 423.53 1007.54 C 428.39 1017.23 426.23 1030.70 416.95 1036.97 C 406.84 1041.41 396.22 1033.41 394.65 1023.20 C 392.04 1013.83 397.80 1001.00 408.39 1000.38 Z" />
<path fill="#ffffff" d=" M 499.41 1000.49 C 505.22 999.46 511.55 1002.64 514.08 1007.94 C 516.32 1014.69 516.95 1022.33 514.02 1029.01 C 512.44 1032.44 510.51 1036.87 506.20 1037.33 C 500.91 1038.02 493.71 1038.90 490.23 1033.76 C 484.70 1026.23 483.27 1015.26 487.97 1006.97 C 490.66 1003.43 494.87 1000.66 499.41 1000.49 Z" />
<path fill="#ffffff" d=" M 593.43 1000.45 C 598.20 999.57 604.05 1000.75 606.46 1005.45 C 611.63 1014.64 610.80 1026.95 604.28 1035.28 C 601.13 1038.59 595.86 1039.31 591.59 1038.48 C 583.19 1034.95 579.32 1024.76 580.12 1016.12 C 580.96 1009.19 585.92 1001.17 593.43 1000.45 Z" />
<path fill="#ffffff" d=" M 638.20 1013.83 C 640.77 1007.43 645.92 1001.35 653.08 1000.37 C 656.73 1000.82 660.82 1001.68 663.56 1004.38 C 665.58 1007.15 666.11 1010.73 667.64 1013.83 C 657.82 1013.97 648.00 1014.04 638.20 1013.83 Z" />
</svg>
