<svg xmlns="http://www.w3.org/2000/svg" role="img" viewBox="2.70 2.70 379.60 83.60"><style>.st0{fill:#f4be18}</style><style>.st0{fill:#f4be18}</style><style>.st0{fill:#f4be18}</style><style>.st0{fill:#f4be18}</style><style>.st0{fill:#f4be18}</style><style>.st0{fill:#f4be18}</style><style>.st0{fill:#f4be18}</style><style>.st0{fill:#f4be18}</style><style>.st0{fill:#f4be18}</style><style id="style4032" type="text/css">.st0{fill:#f4be18}</style><g id="g4116" transform="translate(-95.42 -243.44)"><g id="g4040"><path id="polygon4034" d="M146.39 253.44l-40.97 69.12 40.97-51.29 40.98 51.29z" class="st0"/><path id="polygon4036" d="M178.99 284.33l-7.4 7.65 3.85 6.5 8.46-6.08 25.04 30.16-18.07-36.51 31.78-32.59-36.8 25.73-21.61-25.75z" class="st0"/><path id="polygon4038" d="M142.02 322.54L169.16 303l-3.72-4.66z" class="st0"/></g><g id="g4114"><g id="g4086"><path id="path4042" d="M237.43 304.16h-2.69l-.37.86h-1.45l2.94-6.7h.45l2.93 6.7h-1.45zm-1.34-3.33l-.88 2.22h1.76z"/><path id="path4044" d="M249.48 305.02l-1.7-2.32h-.99v2.32h-1.35v-6.58h2.48c1.38 0 2.37.86 2.37 2.13 0 .84-.44 1.52-1.16 1.87l1.87 2.58zm-2.69-3.51h1.13c.63 0 1-.38 1-.95 0-.56-.39-.94-1-.94h-1.13z"/><path id="path4046" d="M258.36 299.65h-2.1v-1.22h5.57v1.22h-2.12v5.37h-1.35z"/><path id="path4048" d="M268 298.44h1.35v6.58H268z"/><path id="path4050" d="M276.14 298.44h4.33v1.22h-2.98v1.65h2.44v1.22h-2.44v2.5h-1.35z"/><path id="path4052" d="M286.77 298.44h1.35v6.58h-1.35z"/><path id="path4054" d="M298.05 298.32c1.25 0 2.32.61 2.91 1.63l-1.02.72c-.47-.74-1.1-1.11-1.89-1.11-1.22 0-2.12.92-2.12 2.17 0 1.26.9 2.16 2.12 2.16.79 0 1.42-.37 1.89-1.11l1.02.72c-.57 1.03-1.65 1.63-2.92 1.63-1.92.04-3.54-1.52-3.5-3.41-.03-1.88 1.59-3.44 3.51-3.4z"/><path id="path4056" d="M307.39 298.44h1.35v6.58h-1.35z"/><path id="path4058" d="M319.42 304.16h-2.69l-.37.86h-1.45l2.94-6.7h.45l2.93 6.7h-1.45zm-1.35-3.33l-.88 2.22h1.75z"/><path id="path4060" d="M327.42 298.44h1.35v5.37h2.88v1.22h-4.23z"/><path id="path4062" d="M345.53 298.44h1.35v6.58h-1.35z"/><path id="path4064" d="M359.28 298.44v6.7h-.45l-3.81-4.07v3.95h-1.35v-6.7h.44l3.82 4.05v-3.93z"/><path id="path4066" d="M367.56 299.65h-2.1v-1.22h5.56v1.22h-2.11v5.37h-1.35z"/><path id="path4068" d="M377.21 298.44h4.43v1.22h-3.08V301h2.26v1.15h-2.26v1.67h3.2v1.22h-4.55z"/><path id="path4070" d="M388.21 298.44h1.35v5.37h2.88v1.22h-4.23z"/><path id="path4072" d="M398.73 298.44h1.35v5.37h2.88v1.22h-4.23z"/><path id="path4074" d="M409.25 298.44h1.35v6.58h-1.35z"/><path id="path4076" d="M420.54 298.32c1.16 0 2.13.52 2.77 1.43l-.96.79c-.47-.65-1.08-.97-1.83-.97-1.26 0-2.11.91-2.11 2.17 0 1.28.89 2.21 2.2 2.21.76 0 1.37-.31 1.74-.82v-.54h-1.82v-1.17h3.16v1.95c-.3.53-.73.97-1.29 1.3-.55.33-1.17.49-1.86.49-1.93.04-3.55-1.52-3.52-3.41-.04-1.92 1.57-3.46 3.52-3.43z"/><path id="path4078" d="M430.14 298.44h4.43v1.22h-3.08V301h2.26v1.15h-2.26v1.67h3.2v1.22h-4.55z"/><path id="path4080" d="M446.76 298.44v6.7h-.45l-3.81-4.07v3.95h-1.35v-6.7h.44l3.82 4.05v-3.93z"/><path id="path4082" d="M456.69 298.32c1.25 0 2.31.61 2.9 1.63l-1.02.72c-.47-.74-1.1-1.11-1.88-1.11-1.23 0-2.12.92-2.12 2.17 0 1.26.9 2.16 2.12 2.16.79 0 1.42-.37 1.88-1.11l1.02.72c-.57 1.03-1.65 1.63-2.91 1.63-1.92.04-3.54-1.52-3.5-3.41-.03-1.88 1.59-3.44 3.51-3.4z"/><path id="path4084" d="M466.03 298.44h4.43v1.22h-3.08V301h2.26v1.15h-2.26v1.67h3.2v1.22h-4.55z"/></g><g id="g4112"><path id="path4088" d="M343.55 291.67c-.17 0-.26-.09-.26-.26v-20.3c0-.17.09-.26.26-.26h3.42c.17 0 .26.08.26.26v16.36c0 .17.08.26.25.26h16.17c.15 0 .21.08.17.23l-1.14 3.6c-.04.08-.09.12-.17.12h-18.96z"/><path id="path4090" d="M247.83 270.97c-.04-.07-.11-.11-.2-.11h-4.28c-.06 0-.12.04-.2.11l-10.19 20.39c-.04.08-.04.15 0 .23.04.08.1.12.2.12h3.91c.07 0 .14-.05.2-.15l8.17-16.3c.06-.1.1-.1.15 0 0 0 4.35 8.7 4.32 8.75-.03.05 3.84 7.55 3.84 7.55.04.1.11.15.2.15h3.91c.07 0 .13-.04.18-.12.05-.08.05-.15.01-.23z"/><path id="path4092" d="M274.47 270.89c-.01-.02-.04-.03-.09-.03h-5.34c-.05 0-.09.02-.11.07-.02.05-.01.09.03.13l9.94 9.52 2.84-2.73z"/><path id="path4094" d="M296.4 271.06c.04-.04.05-.08.03-.13-.02-.05-.05-.07-.09-.07h-5.36c-.04 0-.06.01-.06.03l-5.69 5.45-5.5 5.29-10.25 9.85c-.04.04-.05.08-.03.13.02.05.05.07.09.07h5.37c.02 0 .04-.01.06-.03l7.63-7.31c.04-.04.07-.06.11-.06.04 0 .07.02.11.06l7.6 7.31c.02 0 .04 0 .04.01.01.01.02.01.04.01h5.34c.06 0 .1-.02.12-.07.02-.05.01-.09-.03-.13l-10.25-9.85c-.1-.08-.1-.16 0-.26z"/><g id="g4100"><path id="path4096" d="M317.87 274.83h11.43c.08 0 .14-.03.18-.08.05-.06.05-.12.02-.2l-1.12-3.51c-.04-.1-.1-.14-.2-.14h-19.13c-.23 0-.34.1-.34.31v3.63h9.16z"/><path id="path4098" d="M329.3 287.68h-16.33c-.1 0-.17-.03-.23-.1s-.08-.15-.08-.24v-3.91c0-.13.06-.2.2-.2h11.08c.12 0 .19-.06.23-.17l1.12-3.51c.02-.06.01-.11-.03-.17-.04-.06-.09-.09-.17-.09h-16.36v11.99c0 .21.11.31.34.31h19.13c.09 0 .16-.05.2-.14l1.12-3.51c.04-.06.03-.12-.02-.17-.06-.07-.12-.09-.2-.09z"/></g><g id="g4106"><path id="path4102" d="M385.82 274.83h11.43c.08 0 .14-.03.19-.08.05-.06.05-.12.01-.2l-1.11-3.51c-.04-.1-.1-.14-.2-.14h-19.13c-.23 0-.34.1-.34.31v3.63h9.15z"/><path id="path4104" d="M397.26 287.68h-16.33c-.1 0-.17-.03-.23-.1s-.08-.15-.08-.24v-3.91c0-.13.07-.2.2-.2h11.08c.11 0 .19-.06.23-.17l1.11-3.51c.02-.06.01-.11-.03-.17-.04-.06-.09-.09-.17-.09h-16.36v11.99c0 .21.11.31.34.31h19.13c.09 0 .16-.05.2-.14l1.11-3.51c.04-.06.03-.12-.01-.17-.05-.07-.12-.09-.19-.09z"/></g><path id="path4108" d="M460.33 270.97c-.04-.07-.1-.11-.2-.11h-4.28c-.06 0-.12.04-.2.11l-10.2 20.39c-.04.08-.04.15 0 .23.04.08.1.12.2.12h3.91c.08 0 .15-.05.2-.15l8.17-16.3c.06-.1.1-.1.14 0 0 0 4.35 8.7 4.32 8.75-.03.05 3.84 7.55 3.84 7.55.04.1.11.15.2.15h3.91c.08 0 .13-.04.18-.12.05-.08.05-.15.02-.23z"/><path id="path4110" d="M433.61 291.45l-7-7.62c-.06-.06-.05-.09.03-.09.92-.02 1.76-.19 2.56-.5.79-.31 1.47-.75 2.04-1.3.57-.55 1.02-1.2 1.34-1.94.33-.74.49-1.55.49-2.43 0-.86-.17-1.69-.5-2.5-.33-.81-.79-1.53-1.37-2.15-.58-.63-1.27-1.13-2.06-1.5-.79-.37-1.65-.56-2.58-.56h-16.05c-.12 0-.17.06-.17.17v3.8h4.03c.03-.01.05-.03.08-.03h12.11c.32 0 .64.08.94.23.31.15.58.35.83.6s.44.54.58.87c.14.33.22.69.22 1.07 0 .38-.08.71-.23 1-.16.29-.35.52-.6.7-.25.18-.52.32-.83.4-.3.09-.61.13-.91.13h-16.22v11.68c0 .11.06.17.17.17h3.6c.11 0 .17-.06.17-.17v-7.57c0-.11.06-.17.17-.17h7c.04 0 .08.02.11.06l7.2 7.82c.04.04.07.06.11.06h4.62c.06 0 .1-.03.13-.09s.03-.1-.01-.14z"/></g></g></g></svg>