<svg xmlns="http://www.w3.org/2000/svg" role="img" viewBox="194.44 -6.56 1537.12 523.12"><style>svg {enable-background:new 0 0 1920 500}</style><style>.st1{fill:#555574}.st2{fill:#9d2626}.st4{enable-background:new}.st5{fill:#323232}</style><path id="Artboard1" fill="none" d="M209.1 0H1710.8V499.9H209.1z"/><path d="M445.4,461.8c-59.1,0-114.7-22.8-156.5-64.2C247,356.1,224,301,224,242.4c0-58.6,23-113.7,64.9-155.1	C330.7,45.9,386.3,23,445.4,23c59.1,0,114.7,22.8,156.5,64.2c41.8,41.4,64.9,96.5,64.9,155.1c0,58.6-23,113.7-64.9,155.1	C560.1,439,504.5,461.8,445.4,461.8z M445.4,35C329.9,35,236,128,236,242.4c0,114.4,93.9,207.4,209.4,207.4s209.4-93.1,209.4-207.4	C654.8,128,560.8,35,445.4,35z" class="st1"/><path d="M445.7,461.9c-113.9,0-206.6-90-206.6-200.6S331.8,60.7,445.7,60.7s206.6,90,206.6,200.6	S559.6,461.9,445.7,461.9z M445.7,72.6c-107.3,0-194.6,84.6-194.6,188.7S338.4,450,445.7,450s194.6-84.6,194.6-188.7	S553,72.6,445.7,72.6z" class="st1"/><path d="M445.6,461.9c-102.6,0-186-82.1-186-183.1c0-101,83.4-183.1,186-183.1s186,82.1,186,183.1	C631.6,379.7,548.2,461.9,445.6,461.9z M445.6,107.6c-96,0-174.1,76.8-174.1,171.2c0,94.4,78.1,171.2,174.1,171.2	s174.1-76.8,174.1-171.2C619.7,184.4,541.6,107.6,445.6,107.6z" class="st1"/><path d="M527.6 213.8H363c-3.3 0-6-2.7-6-6s2.7-6 6-6h164.6c3.3 0 6 2.7 6 6S530.9 213.8 527.6 213.8zM528.4 266.3H363.8c-3.3 0-6-2.7-6-6s2.7-6 6-6h164.6c3.3 0 6 2.7 6 6S531.7 266.3 528.4 266.3zM527.8 323.9H363.2c-3.3 0-6-2.7-6-6s2.7-6 6-6h164.6c3.3 0 6 2.7 6 6S531.1 323.9 527.8 323.9z" class="st2"/><path fill="#555574" fill-rule="evenodd" stroke="#555574" stroke-linecap="round" stroke-linejoin="round" stroke-miterlimit="10" stroke-width="7.427" d="M438.3,457.9l5.5-4.2h350.2L778,430.3l77.5,26.6L778,483.4l15.9-23.4L438.3,457.9L438.3,457.9z" clip-rule="evenodd"/><g><g class="st4"><path d="M515.6 1114.1h-6.1v-6h-.1c-2.7 4.6-6.6 6.9-11.8 6.9-3.8 0-6.8-1-8.9-3-2.2-2-3.2-4.7-3.2-8 0-7.1 4.2-11.3 12.6-12.5l11.5-1.6c0-6.5-2.6-9.7-7.9-9.7-4.6 0-8.8 1.6-12.5 4.7v-6.3c3.8-2.4 8.1-3.6 13-3.6 9 0 13.5 4.8 13.5 14.2V1114.1zM509.4 1094.7l-9.2 1.3c-2.8.4-5 1.1-6.4 2.1-1.4 1-2.2 2.8-2.2 5.4 0 1.9.7 3.4 2 4.6 1.3 1.2 3.1 1.8 5.3 1.8 3 0 5.5-1.1 7.5-3.2 2-2.1 3-4.8 3-8.1V1094.7zM555 1075.9l-12.8 19.3 12.6 18.9h-7.1l-7.5-12.4c-.5-.8-1-1.7-1.7-2.9h-.1c-.1.2-.7 1.2-1.8 2.9l-7.6 12.4h-7l13-18.7-12.5-19.5h7.1l7.4 13.1c.5 1 1.1 2 1.6 3h.1l9.5-16H555zM565.3 1066.2c-1.1 0-2-.4-2.8-1.1-.8-.7-1.2-1.7-1.2-2.8 0-1.1.4-2.1 1.2-2.9.8-.8 1.7-1.1 2.8-1.1 1.1 0 2.1.4 2.9 1.1.8.8 1.2 1.7 1.2 2.9 0 1.1-.4 2-1.2 2.8C567.4 1065.8 566.4 1066.2 565.3 1066.2zM568.3 1114.1h-6.1v-38.2h6.1V1114.1zM596.6 1115c-5.6 0-10.2-1.8-13.5-5.4-3.4-3.6-5.1-8.3-5.1-14.2 0-6.4 1.8-11.4 5.3-15 3.5-3.6 8.2-5.4 14.2-5.4 5.7 0 10.1 1.8 13.3 5.3 3.2 3.5 4.8 8.4 4.8 14.6 0 6.1-1.7 11-5.2 14.6C607 1113.1 602.4 1115 596.6 1115zM597.1 1080.1c-3.9 0-7 1.3-9.3 4-2.3 2.7-3.4 6.4-3.4 11.1 0 4.5 1.2 8.1 3.5 10.7 2.3 2.6 5.4 3.9 9.3 3.9 4 0 7-1.3 9.1-3.8 2.1-2.6 3.2-6.2 3.2-10.9 0-4.8-1.1-8.5-3.2-11C604.1 1081.4 601 1080.1 597.1 1080.1zM679.7 1114.1h-6.1v-21.9c0-4.2-.7-7.3-2-9.2-1.3-1.9-3.5-2.8-6.6-2.8-2.6 0-4.8 1.2-6.7 3.6s-2.7 5.2-2.7 8.6v21.8h-6.1v-22.7c0-7.5-2.9-11.3-8.7-11.3-2.7 0-4.9 1.1-6.6 3.4-1.7 2.3-2.6 5.2-2.6 8.8v21.8h-6.1v-38.2h6.1v6h.1c2.7-4.6 6.7-6.9 11.9-6.9 2.6 0 4.9.7 6.8 2.2 1.9 1.5 3.3 3.4 4 5.7 2.8-5.3 7.1-7.9 12.7-7.9 8.4 0 12.6 5.2 12.6 15.6V1114.1z" class="st5" transform="translate(-755.254 -3144.94) scale(3.125)"/></g><g class="st4"><path d="M695.2,1066.2c-1.1,0-2-0.4-2.8-1.1c-0.8-0.7-1.2-1.7-1.2-2.8c0-1.1,0.4-2.1,1.2-2.9c0.8-0.8,1.7-1.1,2.8-1.1 c1.1,0,2.1,0.4,2.9,1.1c0.8,0.8,1.2,1.7,1.2,2.9c0,1.1-0.4,2-1.2,2.8C697.3,1065.8,696.3,1066.2,695.2,1066.2z M698.2,1114.1h-6.1 v-38.2h6.1V1114.1z" class="st2" transform="translate(-755.254 -3144.94) scale(3.125)"/></g><g class="st4"><path d="M709.1 1112.7v-6.6c3.3 2.5 7 3.7 11 3.7 5.4 0 8.1-1.8 8.1-5.4 0-1-.2-1.9-.7-2.6-.5-.7-1.1-1.3-1.9-1.9-.8-.5-1.7-1-2.8-1.5-1.1-.4-2.2-.9-3.4-1.4-1.7-.7-3.2-1.3-4.5-2-1.3-.7-2.3-1.5-3.2-2.3-.9-.9-1.5-1.8-1.9-2.9-.4-1.1-.7-2.4-.7-3.8 0-1.8.4-3.4 1.2-4.8.8-1.4 1.9-2.5 3.3-3.5 1.4-.9 2.9-1.6 4.7-2.1 1.8-.5 3.6-.7 5.4-.7 3.3 0 6.3.6 8.9 1.7v6.2c-2.8-1.8-6-2.8-9.7-2.8-1.1 0-2.2.1-3.1.4-.9.3-1.7.6-2.4 1.1-.7.5-1.2 1-1.5 1.7-.4.7-.5 1.4-.5 2.2 0 1 .2 1.8.5 2.5.4.7.9 1.3 1.6 1.8.7.5 1.5 1 2.5 1.4 1 .4 2.1.9 3.4 1.4 1.7.6 3.2 1.3 4.6 2 1.3.7 2.5 1.5 3.4 2.3.9.9 1.7 1.8 2.2 3 .5 1.1.8 2.4.8 4 0 1.9-.4 3.5-1.2 4.9-.8 1.4-1.9 2.5-3.3 3.5-1.4.9-3 1.6-4.8 2.1-1.8.4-3.7.7-5.7.7C715.4 1115 712 1114.2 709.1 1112.7zM774.6 1096.5h-27c.1 4.3 1.2 7.5 3.4 9.8 2.2 2.3 5.2 3.5 9 3.5 4.3 0 8.3-1.4 11.9-4.3v5.7c-3.4 2.4-7.8 3.7-13.3 3.7-5.4 0-9.6-1.7-12.7-5.2-3.1-3.5-4.6-8.3-4.6-14.6 0-5.9 1.7-10.8 5.1-14.5 3.4-3.7 7.6-5.6 12.6-5.6s8.9 1.6 11.6 4.8c2.7 3.2 4.1 7.7 4.1 13.5V1096.5zM768.3 1091.3c0-3.5-.9-6.3-2.6-8.2-1.7-2-4-2.9-7-2.9-2.9 0-5.3 1-7.3 3.1-2 2.1-3.3 4.8-3.7 8.1H768.3z" class="st5" transform="translate(-755.254 -3144.94) scale(3.125)"/></g></g><g><g class="st4"><path d="M1950 466.5h-.1l0 18h-4.8v-43.6h4.8l0 5.2h.1c2.4-4 5.8-5.9 10.3-5.9 3.8 0 6.8 1.3 9 4 2.2 2.7 3.2 6.3 3.2 10.7 0 5-1.2 9-3.6 12-2.4 3-5.8 4.5-10 4.5C1955.1 471.5 1952.1 469.8 1950 466.5zM1949.9 454.4l0 4.2c0 2.5.8 4.6 2.4 6.3 1.6 1.7 3.6 2.6 6.1 2.6 2.9 0 5.2-1.1 6.8-3.3s2.5-5.3 2.5-9.2c0-3.3-.8-5.9-2.3-7.8-1.5-1.9-3.6-2.8-6.2-2.8-2.8 0-5 1-6.7 2.9C1950.8 449.1 1949.9 451.5 1949.9 454.4zM1995.8 445.8c-.8-.6-2-1-3.6-1-2 0-3.7 1-5.1 2.9-1.4 1.9-2.1 4.5-2.1 7.9l0 15.2h-4.8v-29.8h4.8l0 6.1h.1c.7-2.1 1.7-3.7 3.1-4.9 1.4-1.2 3-1.8 4.7-1.8 1.2 0 2.2.1 2.9.4L1995.8 445.8z" class="st5" transform="translate(-944.431) skewX(-15)"/></g><g class="st4"><path d="M2024.2,457.1h-21.1c0.1,3.3,1,5.9,2.7,7.7c1.7,1.8,4.1,2.7,7.1,2.7c3.4,0,6.4-1.1,9.3-3.3v4.5 c-2.6,1.9-6.1,2.9-10.4,2.9c-4.2,0-7.5-1.4-9.9-4.1c-2.4-2.7-3.6-6.5-3.6-11.4c0-4.6,1.3-8.4,3.9-11.4c2.6-2.9,5.9-4.4,9.8-4.4 s6.9,1.3,9.1,3.8c2.1,2.5,3.2,6,3.2,10.5L2024.2,457.1z M2019.3,453c0-2.8-0.7-4.9-2-6.4c-1.3-1.5-3.1-2.3-5.5-2.3 c-2.3,0-4.2,0.8-5.7,2.4c-1.6,1.6-2.5,3.7-2.9,6.3H2019.3z" class="st5" transform="translate(-944.431) skewX(-15)"/></g><g class="st4"><path d="M2056.9,470.8h-4.8l0-5.1h-0.1c-2.2,3.8-5.6,5.8-10.3,5.8c-3.8,0-6.7-1.3-9-4c-2.2-2.7-3.4-6.3-3.4-10.9 c0-4.9,1.2-8.9,3.7-11.9c2.5-3,5.8-4.5,9.9-4.5c4.1,0,7.1,1.6,8.9,4.8h0.1l0-18.5h4.8V470.8z M2052.1,457.3l0-4.4 c0-2.4-0.8-4.4-2.4-6.1c-1.6-1.7-3.6-2.5-6.1-2.5c-2.9,0-5.2,1.1-6.9,3.2c-1.7,2.1-2.5,5.1-2.5,8.9c0,3.4,0.8,6.2,2.4,8.1 c1.6,2,3.8,3,6.5,3c2.7,0,4.8-1,6.5-2.9C2051.3,462.7,2052.1,460.2,2052.1,457.3z" class="st5" transform="translate(-944.431) skewX(-15)"/></g><g><path d="M2071.3 470.8h-4.8l0-29.8h4.8L2071.3 470.8zM2069 433.4c-.9 0-1.6-.3-2.2-.9s-.9-1.3-.9-2.2c0-.9.3-1.6.9-2.2.6-.6 1.3-.9 2.2-.9.9 0 1.6.3 2.2.9.6.6.9 1.3.9 2.2 0 .9-.3 1.6-.9 2.2C2070.6 433.1 2069.9 433.4 2069 433.4zM2101.3 469.4c-2.3 1.4-5 2.1-8.2 2.1-4.3 0-7.7-1.4-10.3-4.2-2.6-2.8-3.9-6.4-3.9-10.8 0-4.9 1.4-8.9 4.2-11.8 2.8-3 6.6-4.5 11.3-4.5 2.6 0 4.9.5 6.9 1.5l0 4.9c-2.2-1.6-4.6-2.3-7.1-2.3-3 0-5.6 1.1-7.5 3.3-2 2.2-2.9 5.1-2.9 8.6 0 3.5.9 6.3 2.8 8.3 1.8 2 4.3 3 7.4 3 2.6 0 5-.9 7.3-2.6L2101.3 469.4zM2122.4 470.5c-1.1.6-2.6.9-4.5.9-5.2 0-7.8-2.9-7.8-8.7l0-17.7h-5.1l0-4.1h5.1v-7.3l4.8-1.5v8.8h7.5l0 4.1h-7.5l0 16.8c0 2 .3 3.4 1 4.3.7.9 1.8 1.3 3.4 1.3 1.2 0 2.2-.3 3.1-1L2122.4 470.5zM2150.2 470.8h-4.8l0-4.7h-.1c-2.1 3.6-5.1 5.4-9.2 5.4-3 0-5.3-.8-7-2.4-1.7-1.6-2.5-3.7-2.5-6.3 0-5.6 3.3-8.8 9.8-9.7l8.9-1.3c0-5.1-2-7.6-6.1-7.6-3.6 0-6.8 1.2-9.7 3.7l0-4.9c2.9-1.9 6.3-2.8 10.1-2.8 7 0 10.5 3.7 10.5 11.1L2150.2 470.8zM2145.4 455.7l-7.2 1c-2.2.3-3.9.9-5 1.6-1.1.8-1.7 2.2-1.7 4.2 0 1.5.5 2.6 1.6 3.6 1 .9 2.4 1.4 4.2 1.4 2.4 0 4.3-.8 5.9-2.5s2.3-3.8 2.3-6.3L2145.4 455.7zM2164.1 466.5h-.1l0 4.3h-4.8v-44.2h4.8l0 19.6h.1c2.4-4 5.8-5.9 10.3-5.9 3.8 0 6.8 1.3 9 4 2.2 2.7 3.2 6.3 3.2 10.7 0 5-1.2 9-3.6 12-2.4 3-5.8 4.5-10 4.5C2169.1 471.5 2166.1 469.8 2164.1 466.5zM2163.9 454.4l0 4.2c0 2.5.8 4.6 2.4 6.3 1.6 1.7 3.6 2.6 6.1 2.6 2.9 0 5.2-1.1 6.8-3.3s2.5-5.3 2.5-9.2c0-3.3-.8-5.9-2.3-7.8-1.5-1.9-3.6-2.8-6.2-2.8-2.8 0-5 1-6.7 2.9C2164.8 449.1 2163.9 451.5 2163.9 454.4zM2199 470.8h-4.8v-44.2h4.8V470.8zM2232.7 457.1h-21.1c.1 3.3 1 5.9 2.7 7.7 1.7 1.8 4.1 2.7 7.1 2.7 3.4 0 6.4-1.1 9.3-3.3l0 4.5c-2.6 1.9-6.1 2.9-10.4 2.9-4.2 0-7.5-1.4-9.9-4.1-2.4-2.7-3.6-6.5-3.6-11.4 0-4.6 1.3-8.4 3.9-11.4 2.6-2.9 5.9-4.4 9.8-4.4s6.9 1.3 9.1 3.8c2.1 2.5 3.2 6 3.2 10.5L2232.7 457.1zM2227.8 453c0-2.8-.7-4.9-2-6.4-1.3-1.5-3.1-2.3-5.5-2.3-2.3 0-4.2.8-5.7 2.4-1.6 1.6-2.5 3.7-2.9 6.3H2227.8zM2271 430.8c-.9-.5-2-.8-3.2-.8-3.3 0-5 2.1-5 6.3l0 4.6h7l0 4.1h-7l0 25.8h-4.8l0-25.8h-5.1l0-4.1h5.1l0-4.8c0-3.1.9-5.6 2.7-7.4 1.8-1.8 4.1-2.7 6.8-2.7 1.5 0 2.6.2 3.5.5L2271 430.8zM2287.4 471.5c-4.4 0-7.9-1.4-10.6-4.2-2.6-2.8-3.9-6.5-3.9-11.1 0-5 1.4-8.9 4.1-11.7 2.7-2.8 6.4-4.2 11.1-4.2 4.4 0 7.9 1.4 10.4 4.1 2.5 2.7 3.7 6.5 3.7 11.4 0 4.8-1.3 8.6-4 11.4C2295.5 470.1 2291.9 471.5 2287.4 471.5zM2287.8 444.3c-3.1 0-5.5 1-7.3 3.1-1.8 2.1-2.7 5-2.7 8.6 0 3.5.9 6.3 2.7 8.4 1.8 2 4.2 3.1 7.3 3.1 3.1 0 5.5-1 7.1-3 1.7-2 2.5-4.8 2.5-8.5 0-3.7-.8-6.6-2.5-8.6C2293.2 445.3 2290.9 444.3 2287.8 444.3zM2325.5 445.8c-.8-.6-2-1-3.6-1-2 0-3.7 1-5.1 2.9-1.4 1.9-2.1 4.5-2.1 7.9v15.2h-4.8l0-29.8h4.8l0 6.1h.1c.7-2.1 1.7-3.7 3.1-4.9 1.4-1.2 3-1.8 4.7-1.8 1.2 0 2.2.1 2.9.4L2325.5 445.8z" class="st5" transform="translate(-944.431) skewX(-15)"/></g><g class="st4"><path d="M2374.3,470.8h-4.8l0-17.1c0-3.3-0.5-5.7-1.5-7.2c-1-1.5-2.7-2.2-5.1-2.2c-2,0-3.8,0.9-5.2,2.8 c-1.4,1.9-2.1,4.1-2.1,6.7l0,17h-4.8l0-17.7c0-5.9-2.3-8.8-6.8-8.8c-2.1,0-3.8,0.9-5.2,2.6c-1.4,1.8-2,4-2,6.9l0,17h-4.8l0-29.8 h4.8l0,4.7h0.1c2.1-3.6,5.2-5.4,9.3-5.4c2,0,3.8,0.6,5.3,1.7c1.5,1.1,2.6,2.6,3.1,4.5c2.2-4.1,5.5-6.2,9.9-6.2 c6.6,0,9.8,4.1,9.8,12.2L2374.3,470.8z" class="st5" transform="translate(-944.431) skewX(-15)"/></g><g class="st4"><path d="M2404.7,470.8h-4.8l0-4.7h-0.1c-2.1,3.6-5.1,5.4-9.2,5.4c-3,0-5.3-0.8-7-2.4c-1.7-1.6-2.5-3.7-2.5-6.3 c0-5.6,3.3-8.8,9.8-9.7l8.9-1.3c0-5.1-2-7.6-6.1-7.6c-3.6,0-6.8,1.2-9.7,3.7l0-4.9c2.9-1.9,6.3-2.8,10.1-2.8 c7,0,10.5,3.7,10.5,11.1L2404.7,470.8z M2399.9,455.7l-7.2,1c-2.2,0.3-3.9,0.9-5,1.6c-1.1,0.8-1.7,2.2-1.7,4.2 c0,1.5,0.5,2.6,1.6,3.6c1,0.9,2.4,1.4,4.2,1.4c2.4,0,4.3-0.8,5.9-2.5s2.3-3.8,2.3-6.3L2399.9,455.7z" class="st5" transform="translate(-944.431) skewX(-15)"/></g><g><path d="M2418.4 470.8h-4.8v-44.2h4.8V470.8zM2467.9 440.9l-11.9 29.8h-4.7l-11.3-29.8h5.2l7.6 21.7c.6 1.6.9 3 1 4.2h.1c.2-1.5.5-2.8.9-4.1l7.9-21.8H2467.9z" class="st5" transform="translate(-944.431) skewX(-15)"/></g><g class="st4"><path d="M2497.4,457.1h-21.1c0.1,3.3,1,5.9,2.7,7.7c1.7,1.8,4.1,2.7,7.1,2.7c3.4,0,6.5-1.1,9.3-3.3l0,4.5 c-2.6,1.9-6.1,2.9-10.4,2.9c-4.2,0-7.5-1.4-9.9-4.1c-2.4-2.7-3.6-6.5-3.6-11.4c0-4.6,1.3-8.4,3.9-11.4c2.6-2.9,5.9-4.4,9.8-4.4 s6.9,1.3,9.1,3.8c2.1,2.5,3.2,6,3.2,10.5L2497.4,457.1z M2492.5,453c0-2.8-0.7-4.9-2-6.4c-1.3-1.5-3.1-2.3-5.5-2.3 c-2.3,0-4.2,0.8-5.7,2.4c-1.6,1.6-2.5,3.7-2.9,6.3H2492.5z" class="st5" transform="translate(-944.431) skewX(-15)"/></g><g class="st4"><path d="M2520.1,445.8c-0.8-0.6-2-1-3.6-1c-2,0-3.7,1-5.1,2.9c-1.4,1.9-2.1,4.5-2.1,7.9v15.2h-4.8l0-29.8h4.8l0,6.1 h0.1c0.7-2.1,1.7-3.7,3.1-4.9c1.4-1.2,3-1.8,4.7-1.8c1.2,0,2.2,0.1,2.9,0.4L2520.1,445.8z" class="st5" transform="translate(-944.431) skewX(-15)"/></g><g><path d="M2530.1 470.8h-4.8l0-29.8h4.8L2530.1 470.8zM2527.8 433.4c-.9 0-1.6-.3-2.2-.9-.6-.6-.9-1.3-.9-2.2 0-.9.3-1.6.9-2.2.6-.6 1.3-.9 2.2-.9.9 0 1.6.3 2.2.9.6.6.9 1.3.9 2.2 0 .9-.3 1.6-.9 2.2C2529.4 433.1 2528.7 433.4 2527.8 433.4zM2554.5 430.8c-.9-.5-2-.8-3.2-.8-3.3 0-5 2.1-5 6.3l0 4.6h7l0 4.1h-7l0 25.8h-4.8l0-25.8h-5.1l0-4.1h5.1l0-4.8c0-3.1.9-5.6 2.7-7.4 1.8-1.8 4.1-2.7 6.8-2.7 1.5 0 2.6.2 3.5.5L2554.5 430.8zM2563.3 470.8h-4.8l0-29.8h4.8L2563.3 470.8zM2561 433.4c-.9 0-1.6-.3-2.2-.9s-.9-1.3-.9-2.2c0-.9.3-1.6.9-2.2.6-.6 1.3-.9 2.2-.9.9 0 1.6.3 2.2.9.6.6.9 1.3.9 2.2 0 .9-.3 1.6-.9 2.2C2562.6 433.1 2561.8 433.4 2561 433.4zM2593.2 469.4c-2.3 1.4-5 2.1-8.2 2.1-4.3 0-7.7-1.4-10.3-4.2-2.6-2.8-3.9-6.4-3.9-10.8 0-4.9 1.4-8.9 4.2-11.8 2.8-3 6.6-4.5 11.3-4.5 2.6 0 4.9.5 6.9 1.5l0 4.9c-2.2-1.6-4.6-2.3-7.1-2.3-3 0-5.6 1.1-7.5 3.3-2 2.2-2.9 5.1-2.9 8.6 0 3.5.9 6.3 2.8 8.3 1.8 2 4.3 3 7.4 3 2.6 0 5.1-.9 7.3-2.6L2593.2 469.4zM2621.8 470.8h-4.8l0-4.7h-.1c-2.1 3.6-5.1 5.4-9.2 5.4-3 0-5.3-.8-7-2.4-1.7-1.6-2.5-3.7-2.5-6.3 0-5.6 3.3-8.8 9.8-9.7l8.9-1.3c0-5.1-2-7.6-6.1-7.6-3.6 0-6.8 1.2-9.7 3.7l0-4.9c2.9-1.9 6.3-2.8 10.1-2.8 7 0 10.5 3.7 10.5 11.1L2621.8 470.8zM2617 455.7l-7.2 1c-2.2.3-3.9.9-5 1.6-1.1.8-1.7 2.2-1.7 4.2 0 1.5.5 2.6 1.6 3.6 1 .9 2.4 1.4 4.2 1.4 2.4 0 4.3-.8 5.9-2.5s2.3-3.8 2.3-6.3L2617 455.7zM2644.7 470.5c-1.1.6-2.6.9-4.5.9-5.2 0-7.8-2.9-7.8-8.7l0-17.7h-5.1l0-4.1h5.1v-7.3l4.8-1.5v8.8h7.5l0 4.1h-7.5l0 16.8c0 2 .3 3.4 1 4.3.7.9 1.8 1.3 3.4 1.3 1.2 0 2.2-.3 3.1-1L2644.7 470.5zM2655.8 470.8h-4.8l0-29.8h4.8L2655.8 470.8zM2653.5 433.4c-.9 0-1.6-.3-2.2-.9-.6-.6-.9-1.3-.9-2.2 0-.9.3-1.6.9-2.2.6-.6 1.3-.9 2.2-.9.9 0 1.6.3 2.2.9.6.6.9 1.3.9 2.2 0 .9-.3 1.6-.9 2.2C2655.1 433.1 2654.4 433.4 2653.5 433.4zM2678 471.5c-4.4 0-7.9-1.4-10.6-4.2-2.6-2.8-3.9-6.5-3.9-11.1 0-5 1.4-8.9 4.1-11.7 2.7-2.8 6.4-4.2 11.1-4.2 4.4 0 7.9 1.4 10.4 4.1 2.5 2.7 3.7 6.5 3.7 11.4 0 4.8-1.3 8.6-4 11.4C2686.1 470.1 2682.5 471.5 2678 471.5zM2678.3 444.3c-3.1 0-5.5 1-7.3 3.1-1.8 2.1-2.7 5-2.7 8.6 0 3.5.9 6.3 2.7 8.4 1.8 2 4.2 3.1 7.3 3.1 3.1 0 5.5-1 7.1-3 1.7-2 2.5-4.8 2.5-8.5 0-3.7-.8-6.6-2.5-8.6C2683.8 445.3 2681.4 444.3 2678.3 444.3zM2725.2 470.8h-4.8l0-17c0-6.3-2.3-9.5-6.9-9.5-2.4 0-4.4.9-5.9 2.7-1.6 1.8-2.3 4.1-2.3 6.8l0 17h-4.8l0-29.8h4.8l0 5h.1c2.3-3.8 5.5-5.7 9.8-5.7 3.3 0 5.8 1.1 7.5 3.2 1.7 2.1 2.6 5.2 2.6 9.1L2725.2 470.8z" class="st5" transform="translate(-944.431) skewX(-15)"/></g></g><g><g class="st4"><path d="M2285.5,173.5c3.1,0,6.2,0.8,9.2,2.4c3,1.6,5.3,3.9,7,6.9c1.7,3,2.5,6.1,2.5,9.4c0,3.2-0.8,6.3-2.5,9.3s-4,5.3-6.9,6.9 c-3,1.6-6.1,2.5-9.3,2.5c-3.2,0-6.4-0.8-9.3-2.5c-3-1.6-5.3-4-6.9-6.9c-1.7-3-2.5-6.1-2.5-9.3c0-3.3,0.8-6.4,2.5-9.4s4-5.3,7-6.9 C2279.3,174.3,2282.4,173.5,2285.5,173.5z M2285.5,176.6c-2.6,0-5.2,0.7-7.7,2c-2.5,1.3-4.4,3.3-5.8,5.8s-2.1,5.1-2.1,7.8 c0,2.7,0.7,5.3,2.1,7.8c1.4,2.5,3.3,4.4,5.8,5.8c2.5,1.4,5.1,2.1,7.8,2.1c2.7,0,5.3-0.7,7.8-2.1c2.5-1.4,4.4-3.3,5.8-5.8 c1.4-2.5,2.1-5.1,2.1-7.8c0-2.7-0.7-5.3-2.1-7.8s-3.3-4.4-5.8-5.8C2290.7,177.2,2288.2,176.6,2285.5,176.6z M2277.3,202.6v-20.2 h6.9c2.4,0,4.1,0.2,5.1,0.6c1.1,0.4,1.9,1,2.5,1.9c0.6,0.9,0.9,1.9,0.9,3c0,1.5-0.5,2.8-1.6,3.8c-1.1,1.1-2.4,1.7-4.2,1.8 c0.7,0.3,1.3,0.7,1.7,1.1c0.8,0.8,1.8,2.1,3,4l2.5,3.9h-4l-1.8-3.2c-1.4-2.5-2.5-4.1-3.4-4.7c-0.6-0.5-1.5-0.7-2.6-0.7h-1.9v8.6 H2277.3z M2280.6,191.2h3.9c1.9,0,3.2-0.3,3.9-0.8s1-1.3,1-2.2c0-0.6-0.2-1.1-0.5-1.6s-0.8-0.8-1.4-1.1c-0.6-0.2-1.7-0.3-3.3-0.3 h-3.7V191.2z" transform="matrix(.92034 0 0 1 -418.352 0)"/></g></g></svg>