

<?xml version="1.0" standalone="yes"?>
<svg xmlns="http://www.w3.org/2000/svg" width="1200" height="1200">
<path style="fill:#000000; stroke:none;" d="M0 0L0 1200L1200 1200L1200 0L0 0z"/>
<path style="fill:#30aac6; stroke:none;" d="M294 522L437 522C440.993 473.118 482.582 433.41 529 423.51C539.48 421.275 550.355 422 561 422L610 422C640.682 422 671.646 419.193 700 433.37C724.427 445.584 744.509 466.745 754.988 492C758.1 499.498 760.103 507.105 761.88 515C762.561 518.021 762.276 522.906 764.179 525.412C766.796 528.859 775.07 529.555 779 530.951C791.12 535.255 802.729 540.101 814 546.306C828.845 554.477 843.345 565.604 854.911 578C861.419 584.976 866.633 594.003 874 600C921.084 530.206 914.338 436.478 857.83 374C844.381 359.13 827.591 346.839 810 337.309C788.901 325.878 763.939 318.729 740 317.089C726.456 316.162 712.576 317 699 317L621 317L510 317C485.31 317 460.289 315.404 436 320.662C390.898 330.426 350.671 357.665 325.001 396C315.305 410.48 307.331 426.226 302.424 443C294.794 469.087 294 495.022 294 522z"/>
<path style="fill:#71c5d8; stroke:none;" d="M535.667 422.333C535.222 422.778 536.278 422.722 536.333 422.667C536.778 422.222 535.722 422.278 535.667 422.333z"/>
<path style="fill:#98d5e3; stroke:none;" d="M537.667 422.333C537.222 422.778 538.278 422.722 538.333 422.667C538.778 422.222 537.722 422.278 537.667 422.333z"/>
<path style="fill:#cbeaf1; stroke:none;" d="M539 422C540.506 422.683 541.315 422.826 543 423C541.494 422.317 540.685 422.174 539 422z"/>
<path style="fill:#ffffff; stroke:none;" d="M437 778L592 778C619.99 778 650.631 781.427 678 774.625C731.847 761.243 768.075 709.067 762.83 654C761.64 641.505 758.513 629.545 753.573 618C751.262 612.601 745.759 606.716 744.785 601C744.039 596.629 748.735 591.631 750.691 588C754.85 580.277 758.022 571.52 760.102 563C767.657 532.047 762.006 497.282 743.795 471C738.684 463.624 732.691 456.807 725.996 450.845C712.863 439.149 697.141 430.2 680 425.895C656.362 419.958 631.159 422 607 422C564.736 422 520.521 417.144 484 442.721C476.196 448.187 469.39 454.828 463.159 462C456.129 470.092 450.759 479.281 446.309 489C432.113 520.003 437 556.815 437 590L437 778z"/>
<path style="fill:#cbeaf1; stroke:none;" d="M657 422C658.506 422.683 659.315 422.826 661 423C659.494 422.317 658.685 422.174 657 422z"/>
<path style="fill:#98d5e3; stroke:none;" d="M661.667 422.333C661.222 422.778 662.278 422.722 662.333 422.667C662.778 422.222 661.722 422.278 661.667 422.333z"/>
<path style="fill:#64bfd4; stroke:none;" d="M663.667 422.333C663.222 422.778 664.278 422.722 664.333 422.667C664.778 422.222 663.722 422.278 663.667 422.333M528.667 423.333C528.222 423.778 529.278 423.722 529.333 423.667C529.778 423.222 528.722 423.278 528.667 423.333z"/>
<path style="fill:#b1dfea; stroke:none;" d="M530 423C531.248 423.685 531.549 423.749 533 424C531.752 423.315 531.451 423.251 530 423M667 423C668.248 423.685 668.549 423.749 670 424C668.752 423.315 668.452 423.251 667 423z"/>
<path style="fill:#cbeaf1; stroke:none;" d="M525.667 424.333C525.222 424.778 526.278 424.722 526.333 424.667C526.778 424.222 525.722 424.278 525.667 424.333z"/>
<path style="fill:#98d5e3; stroke:none;" d="M673.667 424.333C673.222 424.778 674.278 424.722 674.333 424.667C674.778 424.222 673.722 424.278 673.667 424.333z"/>
<path style="fill:#a4dae6; stroke:none;" d="M520.667 425.333C520.222 425.778 521.278 425.722 521.333 425.667C521.778 425.222 520.722 425.278 520.667 425.333z"/>
<path style="fill:#71c5d8; stroke:none;" d="M678.667 425.333C678.222 425.778 679.278 425.722 679.333 425.667C679.778 425.222 678.722 425.278 678.667 425.333z"/>
<path style="fill:#cbeaf1; stroke:none;" d="M517.667 426.333C517.222 426.778 518.278 426.722 518.333 426.667C518.778 426.222 517.722 426.278 517.667 426.333z"/>
<path style="fill:#d8eff4; stroke:none;" d="M514.667 427.333C514.222 427.778 515.278 427.722 515.333 427.667C515.778 427.222 514.722 427.278 514.667 427.333z"/>
<path style="fill:#a4dae6; stroke:none;" d="M685 427L686 428L685 427z"/>
<path style="fill:#8bcfdf; stroke:none;" d="M511 428L512 429L511 428z"/>
<path style="fill:#7ecadb; stroke:none;" d="M508 429L509 430L508 429M691 429L692 430L691 429z"/>
<path style="fill:#a4dae6; stroke:none;" d="M506 430L507 431L506 430M693 430L694 431L693 430z"/>
<path style="fill:#7ecadb; stroke:none;" d="M501 432L502 433L501 432M698 432L699 433L698 432M499 433L500 434L499 433M700 433L701 434L700 433M497 434L498 435L497 434M702 434L703 435L702 434z"/>
<path style="fill:#a4dae6; stroke:none;" d="M492 437L493 438L492 437z"/>
<path style="fill:#b1dfea; stroke:none;" d="M707 437L708 438L707 437z"/>
<path style="fill:#7ecadb; stroke:none;" d="M490 438L491 439L490 438z"/>
<path style="fill:#8bcfdf; stroke:none;" d="M709 438L710 439L709 438z"/>
<path style="fill:#98d5e3; stroke:none;" d="M487 440L488 441L487 440M712 440L713 441L712 440z"/>
<path style="fill:#8bcfdf; stroke:none;" d="M484 442L485 443L484 442M715 442L716 443L715 442z"/>
<path style="fill:#98d5e3; stroke:none;" d="M480 445L481 446L480 445M719 445L720 446L719 445z"/>
<path style="fill:#7ecadb; stroke:none;" d="M475 449L476 450L475 449M724 449L725 450L724 449z"/>
<path style="fill:#98d5e3; stroke:none;" d="M474 450L475 451L474 450z"/>
<path style="fill:#a4dae6; stroke:none;" d="M725 450L726 451L725 450z"/>
<path style="fill:#b1dfea; stroke:none;" d="M473 451L474 452L473 451M726 451L727 452L726 451M472 452L473 453L472 452M727 452L728 453L727 452M467 457L468 458L467 457M732 457L733 458L732 457M466 458L467 459L466 458M733 458L734 459L733 458M465 459L466 460L465 459M734 459L735 460L734 459z"/>
<path style="fill:#7ecadb; stroke:none;" d="M464 460L465 461L464 460z"/>
<path style="fill:#8bcfdf; stroke:none;" d="M735 460L736 461L735 460z"/>
<path style="fill:#7ecadb; stroke:none;" d="M463 461L464 462L463 461M736 461L737 462L736 461z"/>
<path style="fill:#b1dfea; stroke:none;" d="M460 465L461 466L460 465M739 465L740 466L739 465z"/>
<path style="fill:#7ecadb; stroke:none;" d="M459 466L460 467L459 466M740 466L741 467L740 466z"/>
<path style="fill:#a4dae6; stroke:none;" d="M457 469L458 470L457 469M742 469L743 470L742 469M453 475L454 476L453 475z"/>
<path style="fill:#cbeaf1; stroke:none;" d="M562.667 475.333C562.222 475.778 563.278 475.722 563.333 475.667C563.778 475.222 562.722 475.278 562.667 475.333z"/>
<path style="fill:#98d5e3; stroke:none;" d="M564.667 475.333C564.222 475.778 565.278 475.722 565.333 475.667C565.778 475.222 564.722 475.278 564.667 475.333z"/>
<path style="fill:#64bfd4; stroke:none;" d="M566 475C567.769 475.779 569.036 475.912 571 476C569.231 475.221 567.964 475.088 566 475z"/>
<path style="fill:#30aac6; stroke:none;" d="M501 522L699 522C696.442 515.857 693.092 510.241 688.985 505C666.406 476.184 633.507 475 600 475C586.49 475 572.348 474.105 559 476.464C533.669 480.94 510.946 498.116 501 522z"/>
<path style="fill:#64bfd4; stroke:none;" d="M629 475C630.769 475.779 632.036 475.912 634 476C632.231 475.221 630.964 475.088 629 475z"/>
<path style="fill:#98d5e3; stroke:none;" d="M634.667 475.333C634.222 475.778 635.278 475.722 635.333 475.667C635.778 475.222 634.722 475.278 634.667 475.333z"/>
<path style="fill:#cbeaf1; stroke:none;" d="M636.667 475.333C636.222 475.778 637.278 475.722 637.333 475.667C637.778 475.222 636.722 475.278 636.667 475.333z"/>
<path style="fill:#a4dae6; stroke:none;" d="M746 475L747 476L746 475z"/>
<path style="fill:#98d5e3; stroke:none;" d="M557.667 476.333C557.222 476.778 558.278 476.722 558.333 476.667C558.778 476.222 557.722 476.278 557.667 476.333z"/>
<path style="fill:#64bfd4; stroke:none;" d="M639.667 476.333C639.222 476.778 640.278 476.722 640.333 476.667C640.778 476.222 639.722 476.278 639.667 476.333z"/>
<path style="fill:#bee4ed; stroke:none;" d="M641.667 476.333C641.222 476.778 642.278 476.722 642.333 476.667C642.778 476.222 641.722 476.278 641.667 476.333z"/>
<path style="fill:#71c5d8; stroke:none;" d="M553.667 477.333C553.222 477.778 554.278 477.722 554.333 477.667C554.778 477.222 553.722 477.278 553.667 477.333z"/>
<path style="fill:#a4dae6; stroke:none;" d="M645.667 477.333C645.222 477.778 646.278 477.722 646.333 477.667C646.778 477.222 645.722 477.278 645.667 477.333z"/>
<path style="fill:#7ecadb; stroke:none;" d="M451 478L452 479L451 478z"/>
<path style="fill:#8bcfdf; stroke:none;" d="M549.667 478.333C549.222 478.778 550.278 478.722 550.333 478.667C550.778 478.222 549.722 478.278 549.667 478.333z"/>
<path style="fill:#bee4ed; stroke:none;" d="M649.667 478.333C649.222 478.778 650.278 478.722 650.333 478.667C650.778 478.222 649.722 478.278 649.667 478.333z"/>
<path style="fill:#7ecadb; stroke:none;" d="M748 478L749 479L748 478M652 479L653 480L652 479z"/>
<path style="fill:#98d5e3; stroke:none;" d="M450 480L451 481L450 480M544 480L545 481L544 480M655 480L656 481L655 480M749 480L750 481L749 480z"/>
<path style="fill:#b1dfea; stroke:none;" d="M449 482L450 483L449 482M539 482L540 483L539 482M660 482L661 483L660 482M750 482L751 483L750 482M537 483L538 484L537 483M662 483L663 484L662 483M448 484L449 485L448 484M751 484L752 485L751 484M447 486L448 487L447 486z"/>
<path style="fill:#7ecadb; stroke:none;" d="M532 486L533 487L532 486M667 486L668 487L667 486z"/>
<path style="fill:#b1dfea; stroke:none;" d="M752 486L753 487L752 486M530 487L531 488L530 487M669 487L670 488L669 487z"/>
<path style="fill:#98d5e3; stroke:none;" d="M446 488L447 489L446 488M753 488L754 489L753 488z"/>
<path style="fill:#7ecadb; stroke:none;" d="M445 490L446 491L445 490M526 490L527 491L526 490M673 490L674 491L673 490M754 490L755 491L754 490z"/>
<path style="fill:#b1dfea; stroke:none;" d="M523 492L524 493L523 492M676 492L677 493L676 492M444 493L445 494L444 493z"/>
<path style="fill:#98d5e3; stroke:none;" d="M522 493L523 494L522 493M677 493L678 494L677 493z"/>
<path style="fill:#b1dfea; stroke:none;" d="M755 493L756 494L755 493z"/>
<path style="fill:#7ecadb; stroke:none;" d="M521 494L522 495L521 494M678 494L679 495L678 494M443 495L444 496L443 495M756 495L757 496L756 495z"/>
<path style="fill:#8bcfdf; stroke:none;" d="M442 498L443 499L442 498M757 498L758 499L757 498M441 501L442 502L441 501M758 501L759 502L758 501z"/>
<path style="fill:#7ecadb; stroke:none;" d="M512 503L513 504L512 503M687 503L688 504L687 503z"/>
<path style="fill:#b1dfea; stroke:none;" d="M440.333 504.667C440.278 504.722 440.222 505.778 440.667 505.333C440.722 505.278 440.778 504.222 440.333 504.667M511 504L512 505L511 504M688 504L689 505L688 504M759.333 504.667C759.278 504.722 759.222 505.778 759.667 505.333C759.722 505.278 759.778 504.222 759.333 504.667z"/>
<path style="fill:#7ecadb; stroke:none;" d="M439 507L439 510C439.696 508.446 439.696 508.554 439 507z"/>
<path style="fill:#a4dae6; stroke:none;" d="M508 508L509 509L508 508M691 508L692 509L691 508z"/>
<path style="fill:#b1dfea; stroke:none;" d="M760.333 508.667C760.278 508.722 760.222 509.778 760.667 509.333C760.722 509.278 760.778 508.222 760.333 508.667z"/>
<path style="fill:#98d5e3; stroke:none;" d="M506 511L507 512L506 511M693 511L694 512L693 511z"/>
<path style="fill:#bee4ed; stroke:none;" d="M438.333 513.667C438.278 513.722 438.222 514.778 438.667 514.333C438.722 514.278 438.778 513.222 438.333 513.667M761.333 513.667C761.278 513.722 761.222 514.778 761.667 514.333C761.722 514.278 761.778 513.222 761.333 513.667z"/>
<path style="fill:#98d5e3; stroke:none;" d="M503 516L504 517L503 516M696 516L697 517L696 516z"/>
<path style="fill:#71c5d8; stroke:none;" d="M437.333 517.667C437.278 517.722 437.222 518.778 437.667 518.333C437.722 518.278 437.778 517.222 437.333 517.667M762.333 517.667C762.278 517.722 762.222 518.778 762.667 518.333C762.722 518.278 762.778 517.222 762.333 517.667z"/>
<path style="fill:#98d5e3; stroke:none;" d="M502 518L503 519L502 518M697 518L698 519L697 518z"/>
<path style="fill:#b1dfea; stroke:none;" d="M437.333 519.667C437.278 519.722 437.222 520.778 437.667 520.333C437.722 520.278 437.778 519.222 437.333 519.667M762.333 519.667C762.278 519.722 762.222 520.778 762.667 520.333C762.722 520.278 762.778 519.222 762.333 519.667z"/>
<path style="fill:#98d5e3; stroke:none;" d="M501 520L502 521L501 520M698 520L699 521L698 520z"/>
<path style="fill:#23889f; stroke:none;" d="M294 522C298.215 523.769 303.464 523 308 523L337 523L437 523C432.785 521.231 427.535 522 423 522L394 522L294 522z"/>
<path style="fill:#abced6; stroke:none;" d="M500 522L501 523L500 522z"/>
<path style="fill:#23889f; stroke:none;" d="M501 522C506.462 524.292 514.113 523 520 523L560 523L699 523C693.538 520.708 685.887 522 680 522L640 522L501 522z"/>
<path style="fill:#9ec9d2; stroke:none;" d="M699 522L700 523L699 522z"/>
<path style="fill:#156577; stroke:none;" d="M294 523L294 677L436 677L436 576C436 558.792 433.855 539.94 437 523L294 523M500 523C497.627 531.696 495.036 539.939 494.17 549C492.729 564.076 494 579.854 494 595L494 677L700 677C704.879 659.117 707.732 643.445 703.346 625C702.023 619.436 699.791 614.106 697.241 609C695.891 606.297 693.398 603.132 693.398 600C693.398 596.868 695.891 593.703 697.241 591C699.791 585.894 702.023 580.564 703.346 575C707.732 556.555 704.879 540.883 700 523L500 523z"/>
<path style="fill:#b6cfd5; stroke:none;" d="M499 524L500 525L499 524M700 524L701 525L700 524z"/>
<path style="fill:#508c99; stroke:none;" d="M436 525L436 529C436.71 527.241 436.71 526.76 436 525z"/>
<path style="fill:#5e95a2; stroke:none;" d="M499 525L500 526L499 525M700 525L701 526L700 525z"/>
<path style="fill:#6d9faa; stroke:none;" d="M763 525L763 529C763.71 527.241 763.71 526.76 763 525z"/>
<path style="fill:#99bcc4; stroke:none;" d="M498 527L499 528L498 527M701 527L702 528L701 527z"/>
<path style="fill:#156577; stroke:none;" d="M764 527C764 543.452 762.434 559.478 756.575 575C754.5 580.498 752.039 585.892 749.127 591C747.586 593.705 744.838 596.725 744.838 600C744.838 606.053 752.152 614.34 754.573 620C761.194 635.483 767.006 656.173 763 673C795.963 666.196 827.15 649.814 851 626C856.726 620.283 862.18 614.427 867.113 608C868.825 605.769 871.576 602.965 871.759 600C871.966 596.645 868.7 593.43 866.789 591C861.903 584.788 856.776 578.496 850.999 573.089C826.798 550.438 796.725 533.35 764 527z"/>
<path style="fill:#23889f; stroke:none;" d="M766 527C767.248 527.685 767.548 527.749 769 528C767.752 527.315 767.452 527.251 766 527z"/>
<path style="fill:#8ab2bb; stroke:none;" d="M436 529L436 677C437.552 673.301 437 668.983 437 665L437 644L437 567L437 542C437 537.74 437.661 532.959 436 529M763 529L763 542C764.591 538.209 764.591 532.791 763 529z"/>
<path style="fill:#2690a8; stroke:none;" d="M774.667 529.333C774.222 529.778 775.278 529.722 775.333 529.667C775.778 529.222 774.722 529.278 774.667 529.333z"/>
<path style="fill:#99bcc4; stroke:none;" d="M497 530L498 531L497 530M702 530L703 531L702 530z"/>
<path style="fill:#a7c5cc; stroke:none;" d="M496 533L497 534L496 533M703 533L704 534L703 533z"/>
<path style="fill:#6d9faa; stroke:none;" d="M496 534L497 535L496 534M703 534L704 535L703 534z"/>
<path style="fill:#7ba8b3; stroke:none;" d="M495 537L495 540C495.696 538.446 495.696 538.554 495 537z"/>
<path style="fill:#b6cfd5; stroke:none;" d="M704 537L705 538L704 537z"/>
<path style="fill:#508c99; stroke:none;" d="M704.333 538.667C704.278 538.722 704.222 539.778 704.667 539.333C704.722 539.278 704.778 538.222 704.333 538.667z"/>
<path style="fill:#c5d9dd; stroke:none;" d="M494 542L495 543L494 542M705 542L706 543L705 542z"/>
<path style="fill:#508c99; stroke:none;" d="M763 542L763 545C763.696 543.446 763.696 543.554 763 542z"/>
<path style="fill:#8ab2bb; stroke:none;" d="M494.333 543.667C494.278 543.722 494.222 544.778 494.667 544.333C494.722 544.278 494.778 543.222 494.333 543.667M705.333 543.667C705.278 543.722 705.222 544.778 705.667 544.333C705.722 544.278 705.778 543.222 705.333 543.667z"/>
<path style="fill:#508c99; stroke:none;" d="M494.333 545.667C494.278 545.722 494.222 546.778 494.667 546.333C494.722 546.278 494.778 545.222 494.333 545.667M705.333 545.667C705.278 545.722 705.222 546.778 705.667 546.333C705.722 546.278 705.778 545.222 705.333 545.667z"/>
<path style="fill:#c5d9dd; stroke:none;" d="M762.333 548.667C762.278 548.722 762.222 549.778 762.667 549.333C762.722 549.278 762.778 548.222 762.333 548.667z"/>
<path style="fill:#8ab2bb; stroke:none;" d="M762.333 550.667C762.278 550.722 762.222 551.778 762.667 551.333C762.722 551.278 762.778 550.222 762.333 550.667z"/>
<path style="fill:#c5d9dd; stroke:none;" d="M493 551L493 677C496.306 669.121 494 656.534 494 648L494 583L494 562C494 558.298 494.441 554.435 493 551M706 551L706 558C707.059 555.466 707.059 553.534 706 551z"/>
<path style="fill:#a7c5cc; stroke:none;" d="M761.333 555.667C761.278 555.722 761.222 556.778 761.667 556.333C761.722 556.278 761.778 555.222 761.333 555.667z"/>
<path style="fill:#508c99; stroke:none;" d="M761.333 557.667C761.278 557.722 761.222 558.778 761.667 558.333C761.722 558.278 761.778 557.222 761.333 557.667z"/>
<path style="fill:#99bcc4; stroke:none;" d="M760 561L761 562L760 561z"/>
<path style="fill:#508c99; stroke:none;" d="M705.333 562.667C705.278 562.722 705.222 563.778 705.667 563.333C705.722 563.278 705.778 562.222 705.333 562.667z"/>
<path style="fill:#5e95a2; stroke:none;" d="M760 562L761 563L760 562z"/>
<path style="fill:#8ab2bb; stroke:none;" d="M705.333 564.667C705.278 564.722 705.222 565.778 705.667 565.333C705.722 565.278 705.778 564.222 705.333 564.667z"/>
<path style="fill:#99bcc4; stroke:none;" d="M759 565L760 566L759 565z"/>
<path style="fill:#d3e2e6; stroke:none;" d="M705.333 566.667C705.278 566.722 705.222 567.778 705.667 567.333C705.722 567.278 705.778 566.222 705.333 566.667z"/>
<path style="fill:#508c99; stroke:none;" d="M759 566L760 567L759 566z"/>
<path style="fill:#b6cfd5; stroke:none;" d="M758 568L759 569L758 568z"/>
<path style="fill:#7ba8b3; stroke:none;" d="M704 569L704 572C704.696 570.446 704.696 570.554 704 569z"/>
<path style="fill:#6d9faa; stroke:none;" d="M758 569L759 570L758 569z"/>
<path style="fill:#b6cfd5; stroke:none;" d="M757 571L758 572L757 571z"/>
<path style="fill:#6d9faa; stroke:none;" d="M757 572L758 573L757 572z"/>
<path style="fill:#5e95a2; stroke:none;" d="M703 574L704 575L703 574z"/>
<path style="fill:#a7c5cc; stroke:none;" d="M756 574L757 575L756 574M703 575L704 576L703 575z"/>
<path style="fill:#5e95a2; stroke:none;" d="M756 575L757 576L756 575z"/>
<path style="fill:#8ab2bb; stroke:none;" d="M755 577L756 578L755 577z"/>
<path style="fill:#7ba8b3; stroke:none;" d="M702 578L703 579L702 578z"/>
<path style="fill:#b6cfd5; stroke:none;" d="M754 579L755 580L754 579z"/>
<path style="fill:#508c99; stroke:none;" d="M754 580L755 581L754 580z"/>
<path style="fill:#8ab2bb; stroke:none;" d="M701 581L702 582L701 581z"/>
<path style="fill:#6d9faa; stroke:none;" d="M753 582L754 583L753 582z"/>
<path style="fill:#508c99; stroke:none;" d="M700 583L701 584L700 583z"/>
<path style="fill:#a7c5cc; stroke:none;" d="M700 584L701 585L700 584z"/>
<path style="fill:#8ab2bb; stroke:none;" d="M752 584L753 585L752 584M699 586L700 587L699 586M751 586L752 587L751 586z"/>
<path style="fill:#6d9faa; stroke:none;" d="M698 588L699 589L698 588M750 588L751 589L750 588M697 590L698 591L697 590M749 590L750 591L749 590z"/>
<path style="fill:#c5d9dd; stroke:none;" d="M748 591L749 592L748 591z"/>
<path style="fill:#8ab2bb; stroke:none;" d="M696 592L697 593L696 592z"/>
<path style="fill:#508c99; stroke:none;" d="M748 592L749 593L748 592z"/>
<path style="fill:#a7c5cc; stroke:none;" d="M747 593L748 594L747 593z"/>
<path style="fill:#99bcc4; stroke:none;" d="M695 594L696 595L695 594z"/>
<path style="fill:#6d9faa; stroke:none;" d="M746 595L747 596L746 595z"/>
<path style="fill:#c5d9dd; stroke:none;" d="M694 596L695 597L694 596M745 596L746 597L745 596z"/>
<path style="fill:#7ba8b3; stroke:none;" d="M693 597L694 598L693 597M744 598L745 599L744 598z"/>
<path style="fill:#c5d9dd; stroke:none;" d="M692.333 599.667C692.278 599.722 692.222 600.778 692.667 600.333C692.722 600.278 692.778 599.222 692.333 599.667M743.333 599.667C743.278 599.722 743.222 600.778 743.667 600.333C743.722 600.278 743.778 599.222 743.333 599.667z"/>
<path style="fill:#45c494; stroke:none;" d="M872 600C856.128 625.487 829.164 647.211 802 659.691C794.198 663.276 786.161 666.443 778 669.114C774.083 670.396 768.843 670.881 765.434 673.302C762.344 675.497 762.846 680.653 762.115 684C760.239 692.592 757.702 700.838 754.396 709C746.158 729.337 731.026 746.674 713 758.971C698.188 769.075 679.9 776.04 662 777.829C644.342 779.595 625.749 778 608 778L436 778L436 678L294 678L294 883L614 883L694 883C708.238 883 722.797 883.883 737 882.911C754.773 881.693 772.295 877.374 789 871.305C805.13 865.445 820.27 856.587 834 846.37C878.828 813.014 906.391 757.97 905.995 702C905.739 665.688 894.248 630.013 874 600L872 600z"/>
<path style="fill:#7ba8b3; stroke:none;" d="M744 601L745 602L744 601M693 602L694 603L693 602z"/>
<path style="fill:#c5d9dd; stroke:none;" d="M694 603L695 604L694 603M745 603L746 604L745 603z"/>
<path style="fill:#6d9faa; stroke:none;" d="M746 604L747 605L746 604z"/>
<path style="fill:#99bcc4; stroke:none;" d="M695 605L696 606L695 605z"/>
<path style="fill:#a7c5cc; stroke:none;" d="M747 606L748 607L747 606z"/>
<path style="fill:#8ab2bb; stroke:none;" d="M696 607L697 608L696 607z"/>
<path style="fill:#508c99; stroke:none;" d="M748 607L749 608L748 607z"/>
<path style="fill:#c5d9dd; stroke:none;" d="M748 608L749 609L748 608z"/>
<path style="fill:#6d9faa; stroke:none;" d="M697 609L698 610L697 609M749 609L750 610L749 609M698 611L699 612L698 611z"/>
<path style="fill:#7ba8b3; stroke:none;" d="M750 611L751 612L750 611z"/>
<path style="fill:#8ab2bb; stroke:none;" d="M699 613L700 614L699 613M751 613L752 614L751 613z"/>
<path style="fill:#a7c5cc; stroke:none;" d="M700 615L701 616L700 615z"/>
<path style="fill:#8ab2bb; stroke:none;" d="M752 615L753 616L752 615z"/>
<path style="fill:#508c99; stroke:none;" d="M700 616L701 617L700 616z"/>
<path style="fill:#6d9faa; stroke:none;" d="M753 617L754 618L753 617z"/>
<path style="fill:#8ab2bb; stroke:none;" d="M701 618L702 619L701 618z"/>
<path style="fill:#508c99; stroke:none;" d="M754 619L755 620L754 619z"/>
<path style="fill:#b6cfd5; stroke:none;" d="M754 620L755 621L754 620z"/>
<path style="fill:#7ba8b3; stroke:none;" d="M702 621L703 622L702 621z"/>
<path style="fill:#99bcc4; stroke:none;" d="M755 622L756 623L755 622z"/>
<path style="fill:#a7c5cc; stroke:none;" d="M703 624L704 625L703 624z"/>
<path style="fill:#5e95a2; stroke:none;" d="M756 624L757 625L756 624M703 625L704 626L703 625z"/>
<path style="fill:#b6cfd5; stroke:none;" d="M756 625L757 626L756 625z"/>
<path style="fill:#6d9faa; stroke:none;" d="M757 627L758 628L757 627z"/>
<path style="fill:#7ba8b3; stroke:none;" d="M704 628L704 631C704.696 629.446 704.696 629.554 704 628z"/>
<path style="fill:#b6cfd5; stroke:none;" d="M757 628L758 629L757 628z"/>
<path style="fill:#6d9faa; stroke:none;" d="M758 630L759 631L758 630z"/>
<path style="fill:#b6cfd5; stroke:none;" d="M758 631L759 632L758 631z"/>
<path style="fill:#c5d9dd; stroke:none;" d="M705.333 632.667C705.278 632.722 705.222 633.778 705.667 633.333C705.722 633.278 705.778 632.222 705.333 632.667z"/>
<path style="fill:#5e95a2; stroke:none;" d="M759 633L760 634L759 633z"/>
<path style="fill:#7ba8b3; stroke:none;" d="M705.333 634.667C705.278 634.722 705.222 635.778 705.667 635.333C705.722 635.278 705.778 634.222 705.333 634.667z"/>
<path style="fill:#99bcc4; stroke:none;" d="M759 634L760 635L759 634z"/>
<path style="fill:#508c99; stroke:none;" d="M705.333 636.667C705.278 636.722 705.222 637.778 705.667 637.333C705.722 637.278 705.778 636.222 705.333 636.667z"/>
<path style="fill:#5e95a2; stroke:none;" d="M760 637L761 638L760 637z"/>
<path style="fill:#99bcc4; stroke:none;" d="M760 638L761 639L760 638z"/>
<path style="fill:#7ba8b3; stroke:none;" d="M761 641L761 644C761.696 642.446 761.696 642.554 761 641z"/>
<path style="fill:#c5d9dd; stroke:none;" d="M706 642L706 649C707.059 646.466 707.059 644.534 706 642z"/>
<path style="fill:#508c99; stroke:none;" d="M762.333 646.667C762.278 646.722 762.222 647.778 762.667 647.333C762.722 647.278 762.778 646.222 762.333 646.667z"/>
<path style="fill:#99bcc4; stroke:none;" d="M762.333 648.667C762.278 648.722 762.222 649.778 762.667 649.333C762.722 649.278 762.778 648.222 762.333 648.667z"/>
<path style="fill:#c5d9dd; stroke:none;" d="M762.333 650.667C762.278 650.722 762.222 651.778 762.667 651.333C762.722 651.278 762.778 650.222 762.333 650.667z"/>
<path style="fill:#508c99; stroke:none;" d="M705.333 653.667C705.278 653.722 705.222 654.778 705.667 654.333C705.722 654.278 705.778 653.222 705.333 653.667z"/>
<path style="fill:#99bcc4; stroke:none;" d="M705.333 655.667C705.278 655.722 705.222 656.777 705.667 656.333C705.722 656.278 705.778 655.222 705.333 655.667z"/>
<path style="fill:#508c99; stroke:none;" d="M763 655L763 658C763.696 656.446 763.696 656.554 763 655z"/>
<path style="fill:#8ab2bb; stroke:none;" d="M763 658L763 672C764.667 668.028 764.667 661.972 763 658z"/>
<path style="fill:#7ba8b3; stroke:none;" d="M704.333 660.667C704.278 660.722 704.222 661.778 704.667 661.333C704.722 661.278 704.778 660.222 704.333 660.667z"/>
<path style="fill:#6d9faa; stroke:none;" d="M703 665L704 666L703 665z"/>
<path style="fill:#a7c5cc; stroke:none;" d="M703 666L704 667L703 666z"/>
<path style="fill:#99bcc4; stroke:none;" d="M702 669L703 670L702 669z"/>
<path style="fill:#309a87; stroke:none;" d="M776.667 669.333C776.222 669.778 777.278 669.722 777.333 669.667C777.778 669.222 776.722 669.278 776.667 669.333M769.667 671.333C769.222 671.778 770.278 671.722 770.333 671.667C770.778 671.222 769.722 671.278 769.667 671.333z"/>
<path style="fill:#99bcc4; stroke:none;" d="M701 672L702 673L701 672z"/>
<path style="fill:#33a089; stroke:none;" d="M765.667 672.333C765.222 672.778 766.278 672.722 766.333 672.667C766.778 672.222 765.722 672.278 765.667 672.333z"/>
<path style="fill:#74d3af; stroke:none;" d="M763.333 673.667C763.278 673.722 763.222 674.778 763.667 674.333C763.722 674.278 763.778 673.222 763.333 673.667z"/>
<path style="fill:#6d9faa; stroke:none;" d="M700 674L701 675L700 674z"/>
<path style="fill:#c5d9dd; stroke:none;" d="M700 675L701 676L700 675z"/>
<path style="fill:#39ac8d; stroke:none;" d="M294 677C298.215 678.769 303.464 678 308 678L337 678L436 678C431.785 676.231 426.535 677 422 677L393 677L294 677z"/>
<path style="fill:#a2e2ca; stroke:none;" d="M436 677L436 778C438.701 771.564 437 761.951 437 755L437 703C437 695.256 439.004 684.159 436 677z"/>
<path style="fill:#d1f0e4; stroke:none;" d="M493 677L493 725C494.552 721.301 494 716.983 494 713L494 690C494 685.74 494.661 680.959 493 677z"/>
<path style="fill:#39ac8d; stroke:none;" d="M494 677C499.707 679.395 507.846 678 514 678L555 678L699 678C693.538 675.708 685.887 677 680 677L638 677L494 677z"/>
<path style="fill:#b3ddd3; stroke:none;" d="M699 677L700 678L699 677z"/>
<path style="fill:#d1f0e4; stroke:none;" d="M762.333 677.667C762.278 677.722 762.222 678.778 762.667 678.333C762.722 678.278 762.778 677.222 762.333 677.667z"/>
<path style="fill:#45c494; stroke:none;" d="M494 678L494 725L593 725C628.334 725 663.426 725.901 688.076 696C692.615 690.495 696.257 684.586 699 678L494 678z"/>
<path style="fill:#a2e2ca; stroke:none;" d="M698 679L699 680L698 679M762.333 679.667C762.278 679.722 762.222 680.778 762.667 680.333C762.722 680.278 762.778 679.222 762.333 679.667M697 681L698 682L697 681z"/>
<path style="fill:#74d3af; stroke:none;" d="M762.333 681.667C762.278 681.722 762.222 682.778 762.667 682.333C762.722 682.278 762.778 681.222 762.333 681.667z"/>
<path style="fill:#a2e2ca; stroke:none;" d="M696 683L697 684L696 683M761.333 685.667C761.278 685.722 761.222 686.778 761.667 686.333C761.722 686.278 761.778 685.222 761.333 685.667M693 688L694 689L693 688z"/>
<path style="fill:#8bdabc; stroke:none;" d="M760.333 690.667C760.277 690.723 760.222 691.778 760.667 691.333C760.722 691.278 760.778 690.222 760.333 690.667z"/>
<path style="fill:#aee5d0; stroke:none;" d="M691 691L692 692L691 691z"/>
<path style="fill:#8bdabc; stroke:none;" d="M759.333 694.667C759.278 694.722 759.222 695.778 759.667 695.333C759.722 695.278 759.778 694.222 759.333 694.667z"/>
<path style="fill:#b9e9d7; stroke:none;" d="M688 695L689 696L688 695z"/>
<path style="fill:#96dec3; stroke:none;" d="M687 696L688 697L687 696z"/>
<path style="fill:#8bdabc; stroke:none;" d="M686 697L687 698L686 697M678 705L679 706L678 705z"/>
<path style="fill:#a2e2ca; stroke:none;" d="M677 706L678 707L677 706z"/>
<path style="fill:#b9e9d7; stroke:none;" d="M755 706L756 707L755 706z"/>
<path style="fill:#8bdabc; stroke:none;" d="M673 709L674 710L673 709z"/>
<path style="fill:#a2e2ca; stroke:none;" d="M753 711L754 712L753 711z"/>
<path style="fill:#96dec3; stroke:none;" d="M667 713L668 714L667 713z"/>
<path style="fill:#b9e9d7; stroke:none;" d="M752 713L753 714L752 713M751 715L752 716L751 715M662 716L663 717L662 716M660 717L661 718L660 717M750 717L751 718L750 717z"/>
<path style="fill:#8bdabc; stroke:none;" d="M657 718L658 719L657 718z"/>
<path style="fill:#a2e2ca; stroke:none;" d="M655 719L656 720L655 719M749 719L750 720L749 719z"/>
<path style="fill:#8bdabc; stroke:none;" d="M652 720L653 721L652 720z"/>
<path style="fill:#96dec3; stroke:none;" d="M649 721L650 722L649 721z"/>
<path style="fill:#8bdabc; stroke:none;" d="M748 721L749 722L748 721z"/>
<path style="fill:#b9e9d7; stroke:none;" d="M645.667 722.333C645.222 722.778 646.278 722.722 646.333 722.667C646.778 722.222 645.722 722.278 645.667 722.333z"/>
<path style="fill:#7fd6b5; stroke:none;" d="M639.667 723.333C639.222 723.778 640.278 723.722 640.333 723.667C640.778 723.222 639.722 723.278 639.667 723.333z"/>
<path style="fill:#c5edde; stroke:none;" d="M641.667 723.333C641.222 723.778 642.278 723.722 642.333 723.667C642.778 723.222 641.722 723.278 641.667 723.333z"/>
<path style="fill:#74d3af; stroke:none;" d="M628 724C629.769 724.779 631.036 724.912 633 725C631.231 724.221 629.964 724.088 628 724z"/>
<path style="fill:#a2e2ca; stroke:none;" d="M633 724C634.248 724.685 634.548 724.749 636 725C634.752 724.315 634.452 724.251 633 724z"/>
<path style="fill:#dcf4eb; stroke:none;" d="M636.667 724.333C636.222 724.778 637.278 724.722 637.333 724.667C637.778 724.222 636.722 724.278 636.667 724.333z"/>
<path style="fill:#aee5d0; stroke:none;" d="M746 724L747 725L746 724M742 730L743 731L742 730z"/>
<path style="fill:#8bdabc; stroke:none;" d="M740 733L741 734L740 733z"/>
<path style="fill:#b9e9d7; stroke:none;" d="M739 734L740 735L739 734z"/>
<path style="fill:#8bdabc; stroke:none;" d="M736 738L737 739L736 738M735 739L736 740L735 739z"/>
<path style="fill:#b9e9d7; stroke:none;" d="M734 740L735 741L734 740M733 741L734 742L733 741M732 742L733 743L732 742M727 747L728 748L727 747M726 748L727 749L726 748z"/>
<path style="fill:#a2e2ca; stroke:none;" d="M725 749L726 750L725 749z"/>
<path style="fill:#8bdabc; stroke:none;" d="M724 750L725 751L724 750z"/>
<path style="fill:#a2e2ca; stroke:none;" d="M719 754L720 755L719 754z"/>
<path style="fill:#96dec3; stroke:none;" d="M715 757L716 758L715 757z"/>
<path style="fill:#a2e2ca; stroke:none;" d="M712 759L713 760L712 759z"/>
<path style="fill:#96dec3; stroke:none;" d="M709 761L710 762L709 761z"/>
<path style="fill:#aee5d0; stroke:none;" d="M707 762L708 763L707 762z"/>
<path style="fill:#8bdabc; stroke:none;" d="M702 765L703 766L702 765M700 766L701 767L700 766M698 767L699 768L698 767z"/>
<path style="fill:#aee5d0; stroke:none;" d="M693 769L694 770L693 769z"/>
<path style="fill:#8bdabc; stroke:none;" d="M691 770L692 771L691 770z"/>
<path style="fill:#aee5d0; stroke:none;" d="M685 772L686 773L685 772z"/>
<path style="fill:#7fd6b5; stroke:none;" d="M678.667 774.333C678.223 774.777 679.278 774.722 679.333 774.667C679.778 774.222 678.722 774.278 678.667 774.333z"/>
<path style="fill:#74d3af; stroke:none;" d="M674.667 775.333C674.222 775.778 675.278 775.722 675.333 775.667C675.778 775.222 674.722 775.278 674.667 775.333z"/>
<path style="fill:#b9e9d7; stroke:none;" d="M667 776C668.248 776.685 668.548 776.749 670 777C668.752 776.315 668.452 776.251 667 776z"/>
<path style="fill:#d1f0e4; stroke:none;" d="M658 777C659.248 777.685 659.548 777.749 661 778C659.752 777.315 659.452 777.251 658 777z"/>
<path style="fill:#a2e2ca; stroke:none;" d="M661.667 777.333C661.222 777.778 662.278 777.722 662.333 777.667C662.778 777.222 661.722 777.278 661.667 777.333z"/>
<path style="fill:#74d3af; stroke:none;" d="M663.667 777.333C663.222 777.778 664.278 777.722 664.333 777.667C664.778 777.222 663.722 777.278 663.667 777.333z"/>
</svg>

