<svg xmlns="http://www.w3.org/2000/svg" role="img" viewBox="-10.23 -10.23 531.96 145.46"><path fill="#012169" d="M164.73 16.71h9c3.82 0 5.24 1.33 5.24 3.86a4 4 0 0 1-3.22 4.23 3.52 3.52 0 0 1 2.65 3.52c0 4.22-3.39 5.9-7.23 5.9h-10.08zm2.5 13.37h3.47c1 0 2.29-.35 2.29-1.77s-1-1.5-2.09-1.5h-3zm1.36-6.54h3c.86 0 1.94-.32 1.94-1.41s-.71-1.25-1.67-1.25h-2.78zM181 25.36c.76-3.39 3.39-4.18 6.51-4.18 2.31 0 6.2.3 6.2 3.4 0 2-1.55 7.72-1.55 8.56a2.63 2.63 0 0 0 .19 1.13h-4.76a3.49 3.49 0 0 1-.17-1.23 5.33 5.33 0 0 1-3.93 1.55c-2.18 0-4.13-1-4.13-3.39 0-3.37 2.51-4.28 6.17-4.54 1.38-.1 3.57.09 3.57-1.48 0-.89-.79-1.11-1.53-1.11a1.75 1.75 0 0 0-1.94 1.3H181zm4.72 6.34c1.64 0 2.31-1.21 2.61-3.1a7.07 7.07 0 0 1-2.59.57 1.49 1.49 0 0 0-1.57 1.43c.03.88.83 1.1 1.58 1.1zm8.92 2.56h4.87l1.11-5.34c.57-2.68 1.59-3.56 3.66-3.56a5.55 5.55 0 0 1 1.87.32l.91-4.3a5.33 5.33 0 0 0-1.72-.19 4.93 4.93 0 0 0-3.71 2.31l.42-2h-4.72zm25.39-7.92c.07-3.56-2.56-5.16-6.1-5.16-4.87 0-7.69 3.22-7.69 7.57 0 2.38 1.08 5.83 6.48 5.83 3.69 0 6-1.77 6.86-5.41H215a2.41 2.41 0 0 1-2.19 1.83c-1.4 0-1.67-1.13-1.67-2.34s.56-4 2.67-4a1.61 1.61 0 0 1 1.23.37 1.51 1.51 0 0 1 .35 1.25h4.67zm13.97 4.2c-.32.86-1.28 4-6.78 4-4.52 0-6.34-2.53-6.34-5.63 0-5.84 4.47-7.77 7.64-7.77 2.82 0 6.24 1.58 6.24 5.58a7.87 7.87 0 0 1-.26 2.28h-9.1c0 1.35.46 2.48 2 2.48a2.07 2.07 0 0 0 1.92-.91H234zm-3.83-4.1a2.42 2.42 0 0 0 0-.42 1.66 1.66 0 0 0-1.85-1.72 2.54 2.54 0 0 0-2.53 2.14h4.33zm5.62 7.82h4.87l3.64-17.55h-4.87zM252 21.18c3.73 0 6.19 1.73 6.19 5.58 0 3.27-1.82 7.82-7.69 7.82-3.52 0-6.37-1.7-6.37-6-.05-4.06 2.6-7.4 7.87-7.4zM250.67 31c1.92 0 2.61-2.83 2.61-3.94 0-1.52-.39-2.38-1.69-2.38-1.94 0-2.63 2.93-2.63 4.25.04 1.07.33 2.07 1.71 2.07zm8.21 3.22h4.87l1.43-6.76c.3-1.33.81-2.43 2.36-2.43a1.22 1.22 0 0 1 1.37 1.23 14.64 14.64 0 0 1-.39 2.12l-1.25 5.85h4.87l1.55-7.21a13.8 13.8 0 0 0 .35-2.43c0-2.5-1.92-3.44-4.15-3.44a5.21 5.21 0 0 0-4 1.94l.37-1.62h-4.69zm17.78-8.9c.76-3.39 3.39-4.18 6.52-4.18 2.31 0 6.2.3 6.2 3.4 0 2-1.55 7.72-1.55 8.56a2.55 2.55 0 0 0 .2 1.13h-4.77a3.4 3.4 0 0 1-.17-1.23H283a5.31 5.31 0 0 1-3.93 1.55c-2.19 0-4.13-1-4.13-3.39 0-3.37 2.51-4.28 6.17-4.54 1.38-.1 3.56.09 3.56-1.48 0-.89-.79-1.11-1.52-1.11a1.75 1.75 0 0 0-1.94 1.3h-4.58zm4.72 6.34c1.64 0 2.31-1.21 2.61-3.1a7 7 0 0 1-2.58.57 1.49 1.49 0 0 0-1.57 1.43c-.01.92.74 1.14 1.53 1.14zM172.47 50.21h5c.1-4.32-3.27-5.73-7-5.73-3.54 0-7.38 1.82-7.38 5.78 0 2.92 2.07 4.05 4.21 4.77 2.43.81 4.23 1 4.23 2.26s-1.3 1.7-2.36 1.7a3 3 0 0 1-2-.44 2.6 2.6 0 0 1-.66-2h-5.24c-.22 4.47 3.42 6.31 7.45 6.31 3.81 0 7.91-2 7.91-6.22 0-2.09-1-3.76-4.08-4.84-1.72-.62-4.35-.69-4.35-2 0-1.16 1.18-1.43 2.09-1.43a2.67 2.67 0 0 1 1.57.39 1.61 1.61 0 0 1 .62 1.45zm20.7-.51h-4.86l-1.11 5.19c-.39 1.62-.49 4-2.68 4a1.27 1.27 0 0 1-1.4-1.2 5.26 5.26 0 0 1 .2-1.33l1.42-6.66h-4.87c-1.48 7-1.89 8.58-1.89 9.68 0 2.44 1.84 3.4 4.05 3.4a5.2 5.2 0 0 0 4.1-1.94l-.39 1.62h4.72zm2.8 0h4.72l-.3 1.45a3.91 3.91 0 0 1 3.42-1.77c3.59 0 4.65 3 4.65 5.24 0 3.79-1.89 8.16-6.22 8.16a3.92 3.92 0 0 1-3.83-1.87l-1.15 5.68h-4.87zm7.67 5.48c0-1.25-.35-2.27-1.77-2.27-2.16 0-2.56 3.1-2.56 4.23a1.89 1.89 0 0 0 1.77 2.09c1.92 0 2.57-2.4 2.57-4.05zM223 58.74c-.32.86-1.28 4-6.78 4-4.52 0-6.34-2.53-6.34-5.63 0-5.85 4.48-7.77 7.65-7.77 2.83 0 6.24 1.57 6.24 5.58a7.62 7.62 0 0 1-.25 2.21h-9.09c0 1.35.46 2.48 2 2.48a2.09 2.09 0 0 0 1.92-.9H223zm-3.84-4.11a2.06 2.06 0 0 0 .05-.42 1.66 1.66 0 0 0-1.85-1.72 2.54 2.54 0 0 0-2.53 2.14h4.32zm5.51 7.82h4.87l1.11-5.33c.57-2.68 1.6-3.57 3.66-3.57a5.41 5.41 0 0 1 1.87.32l.91-4.3a5.11 5.11 0 0 0-1.72-.2 4.94 4.94 0 0 0-3.71 2.31l.42-2h-4.72zm25.39-7.91c.07-3.56-2.55-5.16-6.09-5.16-4.87 0-7.7 3.22-7.7 7.58 0 2.38 1.09 5.82 6.49 5.82 3.69 0 6-1.78 6.86-5.41H245a2.39 2.39 0 0 1-2.13 1.87c-1.4 0-1.67-1.13-1.67-2.34s.57-4 2.68-4a1.58 1.58 0 0 1 1.23.37 1.47 1.47 0 0 1 .35 1.25h4.67zm8.65-5.16c3.74 0 6.2 1.72 6.2 5.58 0 3.27-1.82 7.82-7.7 7.82-3.52 0-6.36-1.7-6.36-6 .04-4.06 2.7-7.4 7.9-7.4zm-1.27 9.85c1.92 0 2.61-2.83 2.61-3.93 0-1.52-.39-2.38-1.69-2.38-1.94 0-2.63 2.93-2.63 4.26.03 1.02.37 2.05 1.75 2.05zm8.21 3.22h4.87l1.57-7.3a2 2 0 0 1 2-1.89 1.07 1.07 0 0 1 1.23 1.18 7.08 7.08 0 0 1-.19 1.18l-1.48 6.83h4.87l1.67-7.72a1.77 1.77 0 0 1 1.85-1.47 1.12 1.12 0 0 1 1.25 1.23 18.7 18.7 0 0 1-.29 1.87l-1.31 6.1h4.87l1.55-7.27a13.75 13.75 0 0 0 .3-2c0-2.63-1.6-3.79-4.08-3.79a5.26 5.26 0 0 0-4.18 2.11c-.31-1.57-1.77-2.11-3.44-2.11a5.17 5.17 0 0 0-4 2l.35-1.67h-4.72zM292 49.7h4.73l-.3 1.45a3.91 3.91 0 0 1 3.42-1.77c3.59 0 4.65 3 4.65 5.24 0 3.79-1.89 8.16-6.22 8.16a3.93 3.93 0 0 1-3.84-1.87l-1.15 5.68h-4.79zm7.67 5.48c0-1.25-.35-2.27-1.77-2.27-2.16 0-2.56 3.1-2.56 4.23a1.89 1.89 0 0 0 1.77 2.09c1.98 0 2.6-2.4 2.6-4.05zm21.43-5.48h-4.87l-1.11 5.19c-.39 1.62-.49 4-2.68 4a1.27 1.27 0 0 1-1.4-1.2 5.26 5.26 0 0 1 .2-1.33l1.43-6.66h-4.87c-1.48 7-1.89 8.58-1.89 9.68 0 2.44 1.84 3.4 4.05 3.4a5.21 5.21 0 0 0 4.11-1.94l-.39 1.62h4.72zm9.24-3.86h-4.87l-.86 3.86h-2.11l-.69 3H324l-1.13 5.24a7.8 7.8 0 0 0-.26 1.74 2.8 2.8 0 0 0 1.32 2.41 6.24 6.24 0 0 0 3.08.52 24.41 24.41 0 0 0 2.63-.32l.74-3.52c-.39 0-.81.08-1.6.08s-1-.34-1-.76a6.35 6.35 0 0 1 .22-1.29l.86-4.1h2.58l.69-3h-2.63zM334 49.7h4.87l-2.66 12.76h-4.87zm5.14-1.38h-4.87l.73-3.42h4.87zM339 62.45h4.87l1.42-6.76c.3-1.33.81-2.43 2.36-2.43a1.22 1.22 0 0 1 1.35 1.23 14.14 14.14 0 0 1-.39 2.12l-1.25 5.85h4.87l1.55-7.2a13.47 13.47 0 0 0 .35-2.43c0-2.51-1.92-3.45-4.15-3.45a5.2 5.2 0 0 0-4 1.94l.37-1.62h-4.69zm29.23-2.21c-.74 3.59-1.41 6.66-7.57 6.66-1.51 0-6.07-.17-5.9-4.26h4.82a1.45 1.45 0 0 0 .39 1.11 1.83 1.83 0 0 0 1.13.27c1.48 0 1.85-1.13 2.09-2.27l.3-1.35h-.09a4 4 0 0 1-3 1.27 4.65 4.65 0 0 1-5-5c0-3.64 2.16-7.35 6.14-7.35a3.89 3.89 0 0 1 3.79 2l.32-1.64h4.69zm-8-3.71a1.76 1.76 0 0 0 1.67 2c2.31 0 2.71-2.8 2.71-3.66s-.07-2-1.82-2c-1.92.05-2.56 2.13-2.56 3.66zM178.82 84h-5.32a3 3 0 0 1-3 2.71c-2.48 0-2.83-2.27-2.83-3.71 0-2.48 1.09-5.93 4.08-5.93 1.67 0 2.46.94 2.41 2.58h5.11c-.1-5.26-3.59-7-7.49-7-6 0-9.51 4.72-9.51 10.4 0 4.69 2.46 8 7.55 8 7.3 0 8.68-5.28 9-7.08zm14.63 3c-.32.86-1.28 4-6.79 4-4.52 0-6.34-2.53-6.34-5.63 0-5.85 4.47-7.76 7.64-7.76 2.83 0 6.24 1.57 6.24 5.58a7.9 7.9 0 0 1-.25 2.21h-9.09c0 1.35.46 2.48 2 2.48a2.09 2.09 0 0 0 1.92-.91h4.67zm-3.84-4.11a2.41 2.41 0 0 0 0-.42 1.66 1.66 0 0 0-1.84-1.72 2.54 2.54 0 0 0-2.53 2.14h4.33zm5.5 7.82H200l1.42-6.75c.3-1.33.81-2.44 2.36-2.44a1.22 1.22 0 0 1 1.38 1.23 13.72 13.72 0 0 1-.4 2.11l-1.25 5.85h4.87l1.55-7.2a13.84 13.84 0 0 0 .35-2.44c0-2.5-1.92-3.44-4.15-3.44a5.2 5.2 0 0 0-4 1.94h-.03l.37-1.62h-4.7zm25-16.61h-4.81l-.86 3.86h-2.11l-.69 3h2.16l-1.13 5.23a7.59 7.59 0 0 0-.27 1.75 2.82 2.82 0 0 0 1.33 2.41 6.23 6.23 0 0 0 3.07.52 23.26 23.26 0 0 0 2.63-.32l.73-3.55c-.39 0-.81.07-1.6.07s-1-.35-1-.76a5.86 5.86 0 0 1 .24-1.31l.86-4.1h2.58l.69-3h-2.63zm14.7 12.9c-.32.86-1.28 4-6.79 4-4.52 0-6.34-2.53-6.34-5.63 0-5.85 4.48-7.76 7.65-7.76 2.83 0 6.24 1.57 6.24 5.58a7.89 7.89 0 0 1-.24 2.21h-9.1c0 1.35.47 2.48 2 2.48a2.09 2.09 0 0 0 1.92-.91h4.67zM231 82.83a2.41 2.41 0 0 0 0-.42 1.66 1.66 0 0 0-1.84-1.72 2.55 2.55 0 0 0-2.53 2.14H231zm5.51 7.82h4.87l1.11-5.33c.56-2.68 1.6-3.56 3.66-3.56a5.39 5.39 0 0 1 1.87.32l.91-4.3a5.12 5.12 0 0 0-1.72-.2 4.93 4.93 0 0 0-3.71 2.31l.42-2h-4.72zm-61.76 18.59h-1.92a4.41 4.41 0 0 1-4.47 3.61c-2.89 0-4.27-1.93-4.27-4.72 0-3.48 2-7.18 6-7.18 2.1 0 3.58 1.11 3.58 3.38h1.92c0-3.34-2.39-5-5.51-5-4.93 0-7.93 4.13-7.93 8.8 0 4 2.25 6.34 6.19 6.34 3.56 0 5.67-2 6.4-5.22zm3.25.16a6.93 6.93 0 0 0-.06.91 2.54 2.54 0 0 0 2.71 2.53 3 3 0 0 0 3-2h1.72a4.56 4.56 0 0 1-4.74 3.52c-3.46 0-4.43-2.39-4.43-4.21 0-4 2.51-6.74 5.38-6.74 3.08 0 4.43 1.68 4.43 4.63a6.66 6.66 0 0 1-.16 1.36H178zm6.31-1.51c.12-1.48-.55-3-2.45-3a3.71 3.71 0 0 0-3.63 3h6.07zm2.47 6.23h1.71l1.22-5.78a4.29 4.29 0 0 1 1.16-2.18 3.76 3.76 0 0 1 2.59-1.22 1.55 1.55 0 0 1 1.82 1.46 11.91 11.91 0 0 1-.24 1.62l-1.34 6.11h1.72l1.27-6a11.11 11.11 0 0 0 .3-2c0-1.84-.95-2.69-2.91-2.69a4.63 4.63 0 0 0-3.72 1.82l.32-1.57H189zm16.47-13.56h-1.72l-.65 3.1h-1.76l-.32 1.52h1.76l-1.38 6.5a4.63 4.63 0 0 0-.1.87c0 1.34 1.07 1.7 2.35 1.7a5.75 5.75 0 0 0 1.21-.13l.31-1.57a3.3 3.3 0 0 1-1 .18.84.84 0 0 1-1-.71c0-.24 0-.44.06-.69l1.29-6.15h2.08l.32-1.52h-2.08zm1.16 13.56h1.72l1-4.63A7 7 0 0 1 208 107a3.78 3.78 0 0 1 2.22-1.7 3.58 3.58 0 0 1 1-.1h.51l.4-1.84a3 3 0 0 0-.61 0 4.31 4.31 0 0 0-3.8 2.49l.51-2.24h-1.62zm13-10.71c2.8 0 4.35 1.54 4.35 4.33 0 3.42-2.13 6.62-5.79 6.62a4.15 4.15 0 0 1-4.42-4.37c.06-3.42 2.26-6.58 5.92-6.58zm-1.26 9.44c2.52 0 3.89-2.89 3.89-5a2.65 2.65 0 0 0-2.75-3c-2.63 0-4 2.87-4 5a2.64 2.64 0 0 0 2.92 2.99zm12.45 1.27h1.86l2.54-11.88 5.12 11.88h2.06l3.06-14.45h-1.87l-2.41 12-5.16-12h-2.07zm15.54-7.31c.35-2.32 2.31-3.4 4.54-3.4 2 0 3.82.55 3.82 2.67a9.91 9.91 0 0 1-.33 1.9l-.66 2.86a8 8 0 0 0-.29 1.5.52.52 0 0 0 .5.65 2 2 0 0 0 .55-.14l-.26 1.27a2.63 2.63 0 0 1-1.05.24 1.22 1.22 0 0 1-1.36-1.47 3.94 3.94 0 0 1-3.5 1.51c-1.73 0-3.19-.81-3.19-3 0-3 3-3.24 5.28-3.44 1.82-.16 2.63-.27 2.63-1.66 0-1.13-1.19-1.38-2.1-1.38-1.32 0-2.61.53-2.81 1.88h-1.73zm2.33 6a3.25 3.25 0 0 0 2.94-1.38 7.48 7.48 0 0 0 .9-2.69 10.34 10.34 0 0 1-3.35.71c-1.23.18-2.33.57-2.33 1.9a1.64 1.64 0 0 0 1.91 1.49zm17.31-5.81c-.08-2.43-1.56-3.56-3.93-3.56-3.74 0-5.79 3.12-5.79 6.44 0 2.81 1.46 4.51 4.31 4.51a4.66 4.66 0 0 0 4.78-3.67h-1.73a3.17 3.17 0 0 1-3.05 2.15c-1.92 0-2.59-1.38-2.59-3 0-2.29 1.42-4.92 4.07-4.92a2 2 0 0 1 2.21 2h1.72zm2.81-3.32h1.73l-2.19 10.46h-1.72zm2.13-1.88H267l.45-2.1h1.74zm6.48 1.64c2.79 0 4.35 1.54 4.35 4.33 0 3.42-2.13 6.62-5.79 6.62a4.14 4.14 0 0 1-4.42-4.37c.01-3.45 2.2-6.61 5.86-6.61zm-1.26 9.44c2.51 0 3.89-2.89 3.89-5a2.65 2.65 0 0 0-2.75-3c-2.63 0-4 2.87-4 5a2.64 2.64 0 0 0 2.87 2.96zm6.58 1.27h1.72l1.21-5.78a4.32 4.32 0 0 1 1.16-2.18 3.75 3.75 0 0 1 2.59-1.22 1.55 1.55 0 0 1 1.82 1.46 11.83 11.83 0 0 1-.24 1.62l-1.34 6.11h1.72l1.27-6a10.79 10.79 0 0 0 .3-2c0-1.84-.95-2.69-2.91-2.69a4.64 4.64 0 0 0-3.72 1.82l.33-1.57h-1.66zm12.48-7.34c.35-2.32 2.31-3.4 4.53-3.4 2 0 3.83.55 3.83 2.67A9.92 9.92 0 0 1 301 108l-.67 2.86a8.33 8.33 0 0 0-.29 1.5.52.52 0 0 0 .51.65 2 2 0 0 0 .55-.14l-.27 1.27a2.61 2.61 0 0 1-1.05.24 1.22 1.22 0 0 1-1.36-1.47 4 4 0 0 1-3.5 1.51c-1.74 0-3.2-.81-3.2-3 0-3 3-3.24 5.28-3.44 1.82-.16 2.63-.27 2.63-1.66 0-1.13-1.19-1.38-2.11-1.38-1.32 0-2.61.53-2.81 1.88H293zm2.33 6a3.25 3.25 0 0 0 2.94-1.38 7.41 7.41 0 0 0 .91-2.69 10.37 10.37 0 0 1-3.36.71c-1.24.18-2.33.57-2.33 1.9a1.64 1.64 0 0 0 1.79 1.49zm7 1.27H304l3-14.45h-1.72zm19.43 0h-1.66l.37-1.5a3.88 3.88 0 0 1-3.46 1.74c-2.67 0-4.11-1.74-4.11-4.29 0-3.18 2.15-6.66 5.81-6.66 1.27 0 2.85.45 3.26 1.84l1.11-5.58h1.7zm-4.45-1.27c2.61 0 4.09-3 4.09-5.2a2.49 2.49 0 0 0-2.63-2.71c-2.73 0-4.15 2.83-4.15 5.14a2.44 2.44 0 0 0 2.65 2.8zm9.23-3.45a6.89 6.89 0 0 0-.07.91 2.55 2.55 0 0 0 2.71 2.53 3 3 0 0 0 3-2h1.72a4.56 4.56 0 0 1-4.74 3.52c-3.46 0-4.43-2.39-4.43-4.21 0-4 2.51-6.74 5.39-6.74 3.07 0 4.43 1.68 4.43 4.63a6.93 6.93 0 0 1-.16 1.36h-7.89zm6.31-1.51c.11-1.48-.55-3-2.45-3a3.7 3.7 0 0 0-3.62 3h6.07zm18.71-3.95h1.92c.09-3.22-2.39-4.61-5.25-4.61-2.57 0-5.26 1.39-5.26 4.19 0 2.12 1.51 3.17 3.24 3.64l2 .53c1.41.38 2.57.91 2.57 2.39 0 1.94-1.82 2.77-3.63 2.77-2.34 0-4-.85-3.84-3.47h-1.92c-.24 3.54 2.2 5.08 5.69 5.08 2.61 0 5.62-1.41 5.62-4.39 0-2.59-1.68-3.42-3.48-3.91l-1.95-.53c-1.32-.36-2.34-.93-2.34-2.33 0-1.72 1.92-2.37 3.34-2.37 2 0 3.38.71 3.32 3zm13.13-.28h-1.71l-1.22 5.79a4.11 4.11 0 0 1-3.74 3.4 1.56 1.56 0 0 1-1.83-1.46 11.51 11.51 0 0 1 .25-1.62l1.34-6.11H356l-1.28 6a11 11 0 0 0-.3 2c0 1.84.95 2.69 2.91 2.69a4.65 4.65 0 0 0 3.72-1.82l-.33 1.57h1.66zm2.8 0h1.62l-.36 1.5a3.89 3.89 0 0 1 3.46-1.74c2.67 0 4.11 1.74 4.11 4.29 0 3.18-2.15 6.66-5.81 6.66-1.27 0-2.85-.44-3.26-1.84l-1.11 5.61h-1.7zm4.45 1.27c-2.61 0-4.09 3-4.09 5.2a2.5 2.5 0 0 0 2.63 2.71c2.73 0 4.15-2.84 4.15-5.14a2.44 2.44 0 0 0-2.72-2.73zm7.47 4.47a7.67 7.67 0 0 0-.06.91 2.55 2.55 0 0 0 2.71 2.53 3 3 0 0 0 3-2h1.72a4.56 4.56 0 0 1-4.74 3.52c-3.46 0-4.43-2.39-4.43-4.21 0-4 2.51-6.74 5.39-6.74 3.08 0 4.43 1.68 4.43 4.63a6.36 6.36 0 0 1-.16 1.36h-7.87zm6.32-1.51c.12-1.48-.55-3-2.45-3a3.71 3.71 0 0 0-3.63 3h6.08zm2.47 6.23h1.72l1-4.63a7.14 7.14 0 0 1 .87-2.45 3.8 3.8 0 0 1 2.22-1.7 3.68 3.68 0 0 1 1-.1h.51l.4-1.84a3 3 0 0 0-.61 0 4.33 4.33 0 0 0-3.81 2.49l.51-2.24h-1.62zm17-7.14c-.08-2.43-1.56-3.56-3.93-3.56-3.75 0-5.78 3.12-5.78 6.44 0 2.81 1.46 4.51 4.3 4.51a4.66 4.66 0 0 0 4.78-3.67h-1.77a3.18 3.18 0 0 1-3.06 2.15c-1.92 0-2.59-1.38-2.59-3 0-2.29 1.42-4.92 4.07-4.92a2 2 0 0 1 2.2 2h1.73zm6.92-3.56c2.8 0 4.35 1.54 4.35 4.33 0 3.42-2.13 6.62-5.79 6.62a4.14 4.14 0 0 1-4.42-4.37c-.04-3.39 2.15-6.55 5.81-6.55zm-1.25 9.44c2.51 0 3.89-2.89 3.89-5a2.65 2.65 0 0 0-2.75-3c-2.63 0-4 2.87-4 5a2.64 2.64 0 0 0 2.81 3.02zm6.59 1.27h1.72l1.17-5.48a4 4 0 0 1 1.11-2.37 3.77 3.77 0 0 1 2.57-1.34 1.29 1.29 0 0 1 1.46 1.38 13.48 13.48 0 0 1-.32 1.84l-1.26 6h1.72l1.15-5.4a4.72 4.72 0 0 1 1-2.35 3.73 3.73 0 0 1 2.64-1.43 1.48 1.48 0 0 1 1.6 1.42 5.57 5.57 0 0 1-.16 1.13l-1.46 6.64h1.6l1.32-6.27a10.54 10.54 0 0 0 .3-2.08c0-1.7-1.44-2.35-2.91-2.35a4.57 4.57 0 0 0-3.58 1.88 2.38 2.38 0 0 0-2.63-1.88 4.77 4.77 0 0 0-3.64 1.84l.39-1.55h-1.6zm19.41-10.46h1.62l-.37 1.5a3.9 3.9 0 0 1 3.46-1.74c2.67 0 4.11 1.74 4.11 4.29 0 3.18-2.15 6.66-5.81 6.66-1.28 0-2.86-.44-3.26-1.84l-1.11 5.61h-1.7zm4.45 1.27c-2.61 0-4.09 3-4.09 5.2a2.5 2.5 0 0 0 2.63 2.71c2.73 0 4.15-2.84 4.15-5.14a2.44 2.44 0 0 0-2.75-2.74zm16-1.27h-1.72l-1.22 5.79a4.11 4.11 0 0 1-3.74 3.4 1.55 1.55 0 0 1-1.82-1.46 11.47 11.47 0 0 1 .24-1.62l1.34-6.11h-1.72l-1.27 6a10.85 10.85 0 0 0-.31 2c0 1.84 1 2.69 2.91 2.69a4.65 4.65 0 0 0 3.73-1.82l-.32 1.57h1.66zm5.85-3.1h-1.72l-.65 3.1H459l-.32 1.52h1.76l-1.38 6.5a4.63 4.63 0 0 0-.1.87c0 1.34 1.07 1.7 2.35 1.7a5.75 5.75 0 0 0 1.21-.13l.3-1.57a3.25 3.25 0 0 1-1 .18.84.84 0 0 1-1-.71c0-.24 0-.44.06-.69l1.29-6.15h2.09l.32-1.52h-2.08zm2.33 6.25c.34-2.32 2.31-3.4 4.53-3.4 2 0 3.83.55 3.83 2.67a10.25 10.25 0 0 1-.33 1.9l-.67 2.86a8 8 0 0 0-.28 1.5.52.52 0 0 0 .5.65 2 2 0 0 0 .55-.14l-.26 1.27a2.64 2.64 0 0 1-1.05.24 1.22 1.22 0 0 1-1.36-1.47 4 4 0 0 1-3.5 1.51c-1.74 0-3.2-.81-3.2-3 0-3 3-3.24 5.28-3.44 1.82-.16 2.64-.27 2.64-1.66 0-1.13-1.19-1.38-2.11-1.38-1.31 0-2.61.53-2.81 1.88h-1.72zm2.33 6a3.26 3.26 0 0 0 2.94-1.38 7.56 7.56 0 0 0 .9-2.69 10.42 10.42 0 0 1-3.36.71c-1.23.18-2.33.57-2.33 1.9a1.64 1.64 0 0 0 1.8 1.52zM485 107c-.08-2.43-1.55-3.56-3.93-3.56-3.75 0-5.79 3.12-5.79 6.44 0 2.81 1.46 4.51 4.32 4.51a4.65 4.65 0 0 0 4.77-3.67h-1.72a3.17 3.17 0 0 1-3.05 2.15c-1.92 0-2.59-1.38-2.59-3 0-2.29 1.41-4.92 4.07-4.92a2 2 0 0 1 2.21 2H485zm2.81-3.32h1.72l-2.18 10.46h-1.73zm2.13-1.88h-1.74l.44-2.1h1.74zm6.48 1.64c2.79 0 4.35 1.54 4.35 4.33 0 3.42-2.13 6.62-5.79 6.62a4.14 4.14 0 0 1-4.38-4.39c0-3.43 2.19-6.59 5.85-6.59zm-1.26 9.44c2.52 0 3.89-2.89 3.89-5a2.65 2.65 0 0 0-2.75-3c-2.64 0-4 2.87-4 5a2.64 2.64 0 0 0 2.89 2.96zM498 99.33h2.29l-2.75 2.89h-1.42zm3.81 14.79h1.73l1.21-5.78a4.38 4.38 0 0 1 1.16-2.18 3.76 3.76 0 0 1 2.59-1.22 1.55 1.55 0 0 1 1.82 1.46 12.51 12.51 0 0 1-.32 1.6l-1.34 6.11h1.72l1.28-6a11.11 11.11 0 0 0 .3-2c0-1.84-1-2.69-2.92-2.69a4.64 4.64 0 0 0-3.72 1.82l.32-1.57H504zM22.22 64.87c0 26.21 21.26 56.24 57.67 55.59-31.39-7.23-44.45-31.34-44.45-53.19 0-30.71 24.83-57.43 64.27-55.52-3.84-1.08-14.27-3.34-19.22-3.34-29.81 0-58.27 23.27-58.27 56.46zM0 62.47c0 28.61 21.63 63.83 61.87 62.8-33.94-7.68-48-34.64-48-60.09 0-29.58 21.85-61.57 58.26-61.57a80.22 80.22 0 0 1 8.12.3C74.25 2.11 65.92 0 59.47 0 26.43 0 0 29.21 0 62.47zm72.26 4.39h-3.53l-.83 3.87H72c1.13 0 2.71-.41 2.71-2.1.03-1.54-1.11-1.77-2.45-1.77zm21.32-50.48a49.67 49.67 0 1 0 49.68 49.67 49.67 49.67 0 0 0-49.68-49.67zM81.16 68.69c0 5-4 7-8.58 7h-12l4.32-20.84h10.74c4.52 0 6.22 1.57 6.22 4.58a4.77 4.77 0 0 1-3.83 5v.06a4.17 4.17 0 0 1 3.13 4.2zm16.14-5.63c3.61 1.29 4.84 3.27 4.84 5.75 0 5-4.87 7.38-9.39 7.38-4.79 0-9.11-2.19-8.85-7.5h6.22a3.09 3.09 0 0 0 .79 2.37 3.54 3.54 0 0 0 2.36.52c1.25 0 2.81-.64 2.81-2 0-1.52-2.13-1.73-5-2.69-2.54-.85-5-2.19-5-5.66 0-4.7 4.55-6.87 8.76-6.87 4.44 0 8.43 1.66 8.31 6.81h-5.94a1.9 1.9 0 0 0-.72-1.73 3.15 3.15 0 0 0-1.88-.44c-1.08 0-2.48.32-2.48 1.69 0 1.55 3.12 1.64 5.17 2.37zM115.8 71c2 0 3.15-1.37 3.56-3.21h6.3c-.38 2.13-2 8.4-10.68 8.4-6 0-9-3.91-9-9.48 0-6.74 4.2-12.35 11.29-12.35 4.64 0 8.79 2 8.9 8.26h-6.07c.06-2-.88-3.06-2.86-3.06-3.57 0-4.85 4.09-4.85 7 .06 1.75.46 4.44 3.41 4.44zM73.45 59.82h-3.3L69.51 63h3.61c1 0 2.31-.38 2.31-1.66s-.84-1.52-1.98-1.52z" class="bsclogo-color"/></svg>