<svg xmlns="http://www.w3.org/2000/svg" role="img" viewBox="-3.60 -3.60 174.46 78.46"><path d="M0 70.601v-69.6A100.907 100.907 0 0 1 1.856.807Q4.753.53 8.576.308A270.552 270.552 0 0 1 8.7.301a168.416 168.416 0 0 1 4.837-.205q2.471-.072 5.208-.089A285.352 285.352 0 0 1 20.6.001q8.4 0 14.259 2.088A22.604 22.604 0 0 1 40.3 4.851a16.711 16.711 0 0 1 4.563 4.657q2.191 3.433 2.328 7.893a19.526 19.526 0 0 1 .009.6 17.052 17.052 0 0 1-.627 4.719 13.798 13.798 0 0 1-2.323 4.631q-2.95 3.85-8.55 6.35a30.217 30.217 0 0 1 4.636 2.06q3.477 1.933 5.664 4.59 3.5 4.25 3.5 10.45 0 9.314-7.21 14.928a22.979 22.979 0 0 1-.29.222 24.681 24.681 0 0 1-7.377 3.71q-6.044 1.94-14.423 1.94a221.836 221.836 0 0 1-8.08-.142 187.566 187.566 0 0 1-3.47-.158 227.449 227.449 0 0 1-2.584-.157q-2.807-.186-4.871-.406A65.535 65.535 0 0 1 0 70.601zm63 0v-69.6a100.907 100.907 0 0 1 1.856-.194q2.897-.277 6.72-.499A270.552 270.552 0 0 1 71.7.301a168.416 168.416 0 0 1 4.837-.205q2.471-.072 5.208-.089A285.352 285.352 0 0 1 83.6.001q8.4 0 14.259 2.088a22.604 22.604 0 0 1 5.441 2.762 16.711 16.711 0 0 1 4.563 4.657q2.191 3.433 2.328 7.893a19.526 19.526 0 0 1 .009.6 17.052 17.052 0 0 1-.627 4.719 13.798 13.798 0 0 1-2.323 4.631q-2.95 3.85-8.55 6.35a30.217 30.217 0 0 1 4.636 2.06q3.477 1.933 5.664 4.59 3.5 4.25 3.5 10.45 0 9.314-7.21 14.928a22.979 22.979 0 0 1-.29.222 24.681 24.681 0 0 1-7.377 3.71q-6.044 1.94-14.423 1.94a221.836 221.836 0 0 1-8.08-.142 187.566 187.566 0 0 1-3.47-.158 227.449 227.449 0 0 1-2.584-.157q-2.807-.186-4.871-.406A65.535 65.535 0 0 1 63 70.601zm104.6.2H126v-70h9.5v61.5h32.1v8.5zm-146.7-32.4H9.5v24.7q5.3.6 11.4.6 8.9 0 13.9-3.2t5-9.3a11.728 11.728 0 0 0-.872-4.6q-1.102-2.613-3.595-4.488a14.027 14.027 0 0 0-.433-.312 16.7 16.7 0 0 0-4.674-2.202q-3.923-1.198-9.326-1.198zm63 0H72.5v24.7q5.3.6 11.4.6 8.9 0 13.9-3.2t5-9.3a11.728 11.728 0 0 0-.872-4.6q-1.102-2.613-3.595-4.488a14.027 14.027 0 0 0-.433-.312 16.7 16.7 0 0 0-4.674-2.202q-3.923-1.198-9.326-1.198zM9.5 8.201v22.8h11q7.9 0 12.55-3.3t4.65-8.5a10.798 10.798 0 0 0-.674-3.9q-1.087-2.83-3.926-4.65a16.643 16.643 0 0 0-4.486-1.964q-3.489-.986-8.114-.986-3.3 0-6 .15t-5 .35zm63 0v22.8h11q7.9 0 12.55-3.3t4.65-8.5a10.798 10.798 0 0 0-.674-3.9q-1.087-2.83-3.926-4.65a16.643 16.643 0 0 0-4.486-1.964q-3.489-.986-8.114-.986-3.3 0-6 .15t-5 .35z" vector-effect="non-scaling-stroke" fill="#000" fill-rule="evenodd" stroke="#000" stroke-linecap="round" stroke-width=".25mm"/></svg>