<svg xmlns="http://www.w3.org/2000/svg" role="img" xmlns:xlink="http://www.w3.org/1999/xlink" viewBox="257.04 90.54 517.92 289.42"><style>svg {enable-background:new 0 0 1030.96 484}</style><style>.st0{fill:#3e3a39}</style><g><g><g><g><path d="M283.33 293.42l8.37.83c-.11.78-.5 1.39-2.05 1.61v45.81c0 .61-2.72 1.94-5.1 1.94h-1.22v-16.36c-2.72 2.33-6.32 5.16-10.93 8.43-.17.72-.72 1.39-1.39 1.55l-3.72-7.99c2.77-.61 9.26-2.44 16.03-4.49v-14.92h-13.7l-.5-1.61h14.2V293.42zM317.55 334.96c1.83.83 2.33 1.61 2.33 2.77 0 2.88-2.61 4.05-11.37 4.05h-5.05c-5.49 0-7.15-1.33-7.15-6.16v-42.15l8.38.89c-.06.72-.56 1.33-1.94 1.55v18.97c3.77-4.33 7.21-9.43 9.21-12.92l7.93 5.1c-.44.61-1.33.78-2.44.33-3.22 3-8.6 6.6-14.7 9.48v16.86c0 1.28.44 1.77 2.27 1.77h4.1c1.55 0 2.88-.06 3.61-.11.61-.06 1.05-.22 1.5-.78.55-1 1.55-4.33 2.55-7.76h.55L317.55 334.96zM343.01 329.75c-.28.5-.78.83-2.05.61-3.99 4.05-10.65 8.6-17.8 11.09l-.5-.55c5.27-4.16 10.43-10.87 12.76-15.59L343.01 329.75zM367.91 295.36c0 0 4.38 3.33 6.93 5.6-.17.61-.78.89-1.61.89h-49.42l-.44-1.61h24.74l-.22-.11c-.94-3.11-3.72-6.43-6.16-8.38l.39-.33c12.59-.44 13.37 6.77 10.04 8.82h11.92L367.91 295.36zM352.55 321.7v14.31c0 4.33-1.11 7.21-8.82 7.76-.17-2.05-.44-3.55-1.22-4.49-.83-.94-2.11-1.72-5.1-2.16v-.72c0 0 5.88.39 7.1.39.94 0 1.22-.33 1.22-1V321.7h-6.38v1.22c0 .61-3.05 2.11-5.88 2.11h-.94v-19.8l7.21 2.77h18.36l3.16-3.38 6.54 4.94c-.33.44-1.11.94-2.27 1.17v12.04c-.06.39-3.38 1.77-5.66 1.77h-1.22v-2.83H352.55zM358.65 320.09v-10.48h-19.3v10.48H358.65zM356.49 326.58c20.63 3.77 17.03 17.25 10.09 13.53-2.05-4.49-6.82-9.76-10.59-13.15L356.49 326.58zM424.71 310.61c0 0 3.88 3.55 5.99 5.82-.17.61-.72.89-1.5.89h-12.98v24.18c0 .44-2.11 1.94-5.66 1.94h-1.28v-26.12h-9.71c-.33 10.48-3.27 20.63-20.69 26.34l-.44-.5c11.48-6.99 13.98-15.64 14.25-25.85h-13.64l-.44-1.61h14.14v-.72-16.47h-11.37l-.5-1.61h37.94l3.33-4.33c0 0 3.77 2.99 6.05 5.05-.17.61-.78.89-1.55.89h-10.43v17.19h5.16L424.71 310.61zM409.29 315.71v-17.19h-9.65v16.36.83H409.29zM433.92 305.17c14.25 1.05 9.26 11.48 3.72 7.71-.5-2.61-2.44-5.55-4.16-7.32L433.92 305.17zM449.56 300.96c-1.83 6.93-4.99 19.8-5.6 22.91-.44 1.94-.72 3.94-.67 5.27.11 3.05 2.33 5.1 2.11 10.04-.11 2.77-1.83 4.66-4.44 4.66-1.28 0-2.55-.78-2.94-2.94 1-5.71.78-11.04-.5-11.87-.78-.55-1.66-.78-2.83-.89v-1.11h2.44c.78 0 1 0 1.55-1.16 1.05-2.11 1.05-2.11 10.04-25.18L449.56 300.96zM437.41 292.31c15.03 1.44 9.87 12.42 4.1 8.49-.61-2.94-2.72-6.1-4.55-8.15L437.41 292.31zM480.01 292.14c0 0 3.88 3.05 6.16 5.16-.11.61-.72.89-1.5.89h-15.09l5.71 1.33c-.22.72-.89 1.22-2.05 1.28-1.33 1.44-2.94 3-4.55 4.16h7.71l2.72-2.88 5.71 4.33c-.28.39-1 .78-2 1v15.53c-.06.39-3 1.5-4.94 1.5h-1v-2.05h-2.88v13.7c0 4.21-1 7.15-7.54 7.71-.06-2-.33-3.49-1-4.44-.61-.94-1.72-1.61-4.1-2.05v-.72c0 0 4.55.28 5.55.28.78 0 1-.33 1-.94v-13.53h-3.16v.83c0 .5-2.44 1.83-4.88 1.83h-.83v-22.52l5.99 2.44h1.5c.28-1.83.5-4.33.61-6.77h-10.93v11.7c0 10.15-.5 24.4-10.7 33.72l-.67-.39c4.88-9.98 5.27-22.46 5.27-33.33v-15.86l7.04 2.61h19.47L480.01 292.14zM466.97 328.69c-.22.61-.72.89-2 .78-2.5 3.88-6.6 8.65-11.65 11.59l-.55-.61c3.44-4.16 6.16-10.65 7.27-14.98L466.97 328.69zM464.75 306.56v6.49h12.15v-6.49H464.75zM476.9 320.76v-6.1h-12.15v6.1H476.9zM475.46 326.47c15.09 5.77 10.37 16.58 5.05 12.37-.67-3.99-3.38-8.82-5.66-12.04L475.46 326.47zM502.8 299.96v-7.93l8.32.72c-.06.72-.5 1.28-1.94 1.5v5.71h12.2v-7.93l8.49.72c-.11.72-.55 1.28-2 1.5v5.71h4.16l3.49-4.71c0 0 3.99 3.22 6.21 5.38-.17.61-.78.89-1.55.89h-12.31v5.66c0 .61-2.5 1.55-5.44 1.55h-1.05v-7.21h-12.2v5.99c0 .61-2.66 1.55-5.38 1.55h-1v-7.54h-13.09l-.39-1.55H502.8zM497.75 316.32c6.71 23.96-12.59 21.3-7.04 12.98 2.94-2.5 5.6-7.1 6.38-13.03L497.75 316.32zM511.4 313.55c-.11.72-.61 1.28-1.83 1.44v19.25c0 1.11.44 1.39 2.61 1.39h6.49c2.38 0 4.44 0 5.38-.06.89-.06 1.28-.28 1.72-.89.67-1.05 1.66-3.88 2.83-7.54h.56l.22 7.82c1.94.72 2.44 1.5 2.44 2.72 0 2.94-2.72 4.22-13.7 4.22h-6.99c-6.32 0-8.04-1.11-8.04-5.93v-23.13L511.4 313.55zM518.28 323.76c-.78-4.77-3.55-10.21-5.99-14.2l.55-.28C530.03 315.99 524.54 328.91 518.28 323.76zM534.69 332.68c-.22-5.6-2.88-12.04-5.71-16.69l.56-.33C547.5 324.2 541.29 338.79 534.69 332.68zM590.16 302.51c0 0 4.1 3.33 6.49 5.66-.11.61-.72.89-1.55.89h-34.72v4.05c0 1.94-.11 3.94-.28 5.88h14.86l3.11-3.38 6.54 4.94c-.39.44-1.16.94-2.39 1.22v20.35c-.06.39-3.38 1.55-5.55 1.55h-1.11v-23.07h-15.7c-1.22 9.37-4.99 17.97-14.75 23.13l-.5-.5c7.82-7.93 9.32-18.91 9.32-30.12v-19.97l8.43.83c-.11.78-.55 1.33-2 1.55v11.92h11.81V291.7l8.82.72c-.11.78-.5 1.33-2.11 1.61v13.42h7.6L590.16 302.51zM648.23 311c0 0 3.38 3.16 5.16 5.27-.11.61-.67.89-1.44.89h-6.77v24.74c0 .44-1.94 1.77-5.16 1.77h-1.17v-26.51h-5.49c-.17 10.21-2 20.41-16.03 26.73l-.5-.5c8.82-7.15 10.32-16.14 10.43-26.23h-5.32l-.44-1.61h5.77v-17.08h-4.38l-.06-.11h-8.99c-.78 4.99-1.94 9.65-3.66 13.92l.94.39h3.49l2.77-2.88 5.49 4.27c-.28.33-.94.78-1.83.94v21.02c-.06.39-2.94 1.55-4.88 1.55h-1v-3.99h-4.77v5.16c0 .44-1.77 1.77-4.71 1.77h-.94v-18.19c-1.33 1.89-2.77 3.66-4.38 5.32l-.72-.55c4.27-7.82 6.43-18.47 7.54-28.73h-6.38l-.44-1.61H615l3.38-4.27c0 0 3.05 2.38 5.32 4.38h18.91l3.33-4.44c0 0 3.72 3.05 5.99 5.16-.17.61-.78.89-1.55.89h-5.21v17.08h.22L648.23 311zM610.4 314.27v17.75h4.77v-17.75H610.4zM638.85 315.55v-17.08h-5.49v17.08H638.85zM663.64 301.02c.61 4.05-.67 6.93-2.55 8.1-1.83 1.17-4.27.67-5.05-1.33-.61-1.94.55-3.49 2.27-4.38 1.72-1.22 3.38-4.27 2.83-7.54l.78-.06c.61 1.28 1.05 2.5 1.39 3.66h17.53c-.61-.17-1.16-.5-1.77-.94 0-2.55-1.28-5.27-2.66-6.82l.39-.28c11.26.44 10.21 6.88 6.49 8.04h15.31l3.27-3.38 5.88 5.6c-.39.44-1 .56-2.11.61-1.61 1.72-4.16 3.99-6.38 5.55 6.21 4.49 3.94 10.37-.83 8.6-2.94-4.49-9.37-9.71-14.53-12.54l.39-.55c6.27.5 10.7 1.94 13.7 3.66.39-1.83.78-4.16 1.05-5.99H663.64zM705.8 335.62c1.66.72 2 1.44 2 2.61 0 2.61-2.44 3.61-9.59 3.61h-4.16c-5.16 0-6.05-1.33-6.05-5.38v-14.92h-7.71c-1.33 9.1-5.6 16.86-23.85 22.13l-.5-.72c13.09-6.05 16.58-13.14 17.58-21.41h-11.54l-.5-1.61h12.2c.22-2.66.22-5.49.28-8.38l8.82.72c-.11.83-.61 1.33-1.89 1.5-.11 2.11-.22 4.16-.44 6.16h6.93l3.22-3.61 5.99 4.83c-.39.44-.89.72-1.94.94v13.09c0 .72.22.89 1.39.89h3c.94 0 2 0 2.44-.06.55 0 .83-.11 1.16-.67.55-.83 1.44-3.33 2.44-6.27h.55L705.8 335.62zM657.49 316.88c4.66-3.11 12.87-10.98 15.86-14.59l7.15 5.1c-.39.67-1.33 1.05-3.05.83-4.6 2.77-12.76 6.82-19.63 9.21L657.49 316.88zM734.53 302.24c1.72 10.04-10.04 6.88-4.94.61 1.39-.78 2.39-2.44 2.72-4.71-.44.5-1.17.67-2.44.67-1.83 3.49-5.1 9.43-7.71 12.92 5.49 3.77 7.82 9.04 7.88 13.64 0 5.49-1.94 8.49-7.88 8.65 0-1.66-.17-3.83-.61-4.66-.39-.56-1.16-.94-2.27-1.28v13.81c0 .39-1.83 1.89-4.83 1.89h-1.05v-50.58l6.6 2.55h3.27l3.16-3.05 5.88 5.44.06-.55h.72c.5 1.11.83 2.16 1.11 3.11h10.37c-.55-.17-1.17-.55-1.77-1.05.06-2.72-1.11-5.77-2.5-7.65l.44-.33c10.48 1.72 9.43 7.93 5.99 9.04h9.04l2.94-2.94 5.27 4.99c-.44.39-1 .5-2.11.55-1.55 1.28-4.27 3-6.1 4.1 1.05.94 2.27 2 3.22 2.88-.11.61-.72.89-1.5.89h-24.9l-.44-1.55H750l3.22-4.27 1.72 1.39c.39-1.22.78-3.05 1.11-4.49H734.53zM722.21 327.36c.5 0 .83-.06 1.16-.28.72-.5 1.11-1.5 1.11-3.27 0-3.99-1-8.21-3.66-11.92.94-3.66 2.22-10.21 2.88-14.59h-4.44v30.06H722.21zM761.93 336.12c1.44.72 1.77 1.5 1.77 2.66 0 2.38-2 3.72-8.26 3.72h-3.38c-4.6 0-5.27-1.28-5.27-5.27v-17.47h-4.27c-.72 9.21-3.05 17.8-17.97 23.63l-.55-.72c10.76-6.93 11.54-14.86 11.76-22.91h-5.49l-.44-1.61h24.13l3.27-4.49c0 0 3.83 3.05 6.1 5.21-.17.61-.78.89-1.55.89h-8.87v.44 15.42c0 .67.11.89 1.05.89h2.16 1.89c.44 0 .72-.11 1.05-.61.44-.78 1.28-3.38 2.11-6.1h.61L761.93 336.12z" class="st0"/></g></g><g><g><path d="M269.66 351.94h5.56c3.68 0 6.34 1.17 6.34 4.41 0 1.71-.95 3.34-2.56 3.88v.12c2.05.44 3.53 1.83 3.53 4.26 0 3.56-2.9 5.26-6.87 5.26h-6V351.94zM274.9 359.42c2.73 0 3.88-1.02 3.88-2.71 0-1.88-1.27-2.58-3.8-2.58h-2.49v5.29H274.9zM275.33 367.66c2.8 0 4.41-1 4.41-3.19 0-2.02-1.56-2.9-4.41-2.9h-2.85v6.09H275.33zM285.91 351.94h10.6v2.36h-7.77v5h6.58v2.39h-6.58v5.8h8.04v2.39h-10.87V351.94zM300.54 351.94h2.83v17.94h-2.83V351.94zM306.43 367.22l1.97-1.44c.76 1.39 1.73 1.95 2.9 1.95 1.8 0 2.71-.98 2.71-3.61v-12.19h2.83v12.45c0 3.22-1.56 5.8-5.22 5.8C309.21 370.19 307.56 369.19 306.43 367.22zM321.47 351.94h2.83v17.94h-2.83V351.94zM329 351.94h2.9l5.95 10.53 1.88 3.8h.12c-.15-1.85-.37-4.02-.37-5.97v-8.36h2.68v17.94h-2.9l-5.95-10.58-1.88-3.75h-.12c.15 1.85.37 3.92.37 5.87v8.46H329V351.94zM345.92 360.95c0-5.85 3.61-9.36 8.36-9.36 2.53 0 4.24 1.12 5.34 2.27l-1.54 1.8c-.88-.9-1.97-1.61-3.7-1.61-3.34 0-5.56 2.58-5.56 6.8 0 4.27 1.97 6.87 5.68 6.87 1.1 0 2.19-.32 2.83-.88v-4.22h-3.56v-2.31h6.12v7.77c-1.19 1.19-3.22 2.1-5.68 2.1C349.4 370.19 345.92 366.83 345.92 360.95zM369.46 351.94h2.83v17.94h-2.83V351.94zM376.99 351.94h2.9l5.95 10.53 1.88 3.8h.12c-.15-1.85-.37-4.02-.37-5.97v-8.36h2.68v17.94h-2.9l-5.95-10.58-1.88-3.75h-.12c.15 1.85.37 3.92.37 5.87v8.46h-2.68V351.94zM393.62 367.56l1.66-1.95c1.29 1.29 3.05 2.12 4.78 2.12 2.17 0 3.39-1.02 3.39-2.53 0-1.63-1.22-2.15-2.88-2.88l-2.49-1.07c-1.73-.73-3.66-2.1-3.66-4.7 0-2.83 2.49-4.95 5.9-4.95 2.1 0 4.07.88 5.43 2.27l-1.49 1.8c-1.12-1-2.36-1.61-3.95-1.61-1.83 0-3.02.88-3.02 2.31 0 1.54 1.44 2.12 2.9 2.71l2.46 1.05c2.12.9 3.66 2.22 3.66 4.85 0 2.88-2.39 5.22-6.31 5.22C397.54 370.19 395.25 369.22 393.62 367.56zM412.82 354.3h-5.26v-2.36h13.38v2.36h-5.29v15.57h-2.83V354.3zM424.03 351.94h2.83v17.94h-2.83V351.94zM435.22 354.3h-5.26v-2.36h13.38v2.36h-5.29v15.57h-2.83V354.3zM446.33 362.17v-10.24h2.83v10.43c0 4.05 1.61 5.36 3.85 5.36 2.27 0 3.92-1.32 3.92-5.36v-10.43h2.73v10.24c0 5.85-2.68 8.02-6.65 8.02C449.04 370.19 446.33 368.02 446.33 362.17zM467.95 354.3h-5.26v-2.36h13.38v2.36h-5.29v15.57h-2.83V354.3zM479.16 351.94h10.6v2.36h-7.77v5h6.58v2.39h-6.58v5.8h8.04v2.39h-10.87V351.94zM498.3 360.83c0-5.78 3.19-9.24 7.8-9.24 4.61 0 7.82 3.46 7.82 9.24 0 5.78-3.22 9.36-7.82 9.36C501.49 370.19 498.3 366.61 498.3 360.83zM511.02 360.83c0-4.22-1.95-6.78-4.92-6.78-2.97 0-4.9 2.56-4.9 6.78 0 4.22 1.93 6.9 4.9 6.9C509.07 367.73 511.02 365.05 511.02 360.83zM517.65 351.94h10.63v2.36h-7.8v5.48h6.63v2.36h-6.63v7.73h-2.83V351.94zM535.95 360.83c0-5.78 3.19-9.24 7.8-9.24 4.61 0 7.82 3.46 7.82 9.24 0 5.78-3.22 9.36-7.82 9.36C539.15 370.19 535.95 366.61 535.95 360.83zM548.68 360.83c0-4.22-1.95-6.78-4.92-6.78-2.97 0-4.9 2.56-4.9 6.78 0 4.22 1.93 6.9 4.9 6.9C546.73 367.73 548.68 365.05 548.68 360.83zM555.31 351.94h5.43c4 0 6.85 1.36 6.85 5.41 0 3.92-2.85 5.73-6.75 5.73h-2.71v6.8h-2.83V351.94zM560.57 360.81c2.88 0 4.24-1.1 4.24-3.46 0-2.36-1.49-3.14-4.34-3.14h-2.34v6.6H560.57zM571.08 351.94h10.6v2.36h-7.77v5h6.58v2.39h-6.58v5.8h8.04v2.39h-10.87V351.94zM585.7 351.94h2.9l5.95 10.53 1.88 3.8h.12c-.15-1.85-.37-4.02-.37-5.97v-8.36h2.68v17.94h-2.9l-5.95-10.58-1.88-3.75h-.12c.15 1.85.37 3.92.37 5.87v8.46h-2.68V351.94zM607.81 367.56l1.66-1.95c1.29 1.29 3.05 2.12 4.78 2.12 2.17 0 3.39-1.02 3.39-2.53 0-1.63-1.22-2.15-2.88-2.88l-2.49-1.07c-1.73-.73-3.66-2.1-3.66-4.7 0-2.83 2.49-4.95 5.9-4.95 2.1 0 4.07.88 5.43 2.27l-1.49 1.8c-1.12-1-2.36-1.61-3.95-1.61-1.83 0-3.02.88-3.02 2.31 0 1.54 1.44 2.12 2.9 2.71l2.46 1.05c2.12.9 3.66 2.22 3.66 4.85 0 2.88-2.39 5.22-6.31 5.22C611.73 370.19 609.44 369.22 607.81 367.56zM622.92 360.83c0-5.78 3.19-9.24 7.8-9.24 4.61 0 7.82 3.46 7.82 9.24 0 5.78-3.22 9.36-7.82 9.36C626.11 370.19 622.92 366.61 622.92 360.83zM635.64 360.83c0-4.22-1.95-6.78-4.92-6.78-2.97 0-4.9 2.56-4.9 6.78 0 4.22 1.93 6.9 4.9 6.9C633.69 367.73 635.64 365.05 635.64 360.83zM642.17 362.17v-10.24H645v10.43c0 4.05 1.61 5.36 3.85 5.36 2.27 0 3.92-1.32 3.92-5.36v-10.43h2.73v10.24c0 5.85-2.68 8.02-6.65 8.02C644.88 370.19 642.17 368.02 642.17 362.17zM669.93 369.87l-4.07-7.24h-2.9v7.24h-2.83v-17.94h5.87c3.7 0 6.48 1.32 6.48 5.19 0 2.78-1.49 4.44-3.75 5.14l4.39 7.6H669.93zM662.96 360.37h2.71c2.61 0 4.02-1.07 4.02-3.24 0-2.17-1.41-2.92-4.02-2.92h-2.71V360.37zM675.12 360.95c0-5.85 3.56-9.36 8.09-9.36 2.24 0 4 1.07 5.09 2.27l-1.54 1.8c-.93-.95-2.05-1.61-3.51-1.61-3.1 0-5.24 2.58-5.24 6.8 0 4.27 2 6.87 5.17 6.87 1.63 0 2.9-.73 3.97-1.9l1.51 1.78c-1.44 1.66-3.27 2.58-5.58 2.58C678.59 370.19 675.12 366.83 675.12 360.95zM691.84 351.94h10.6v2.36h-7.77v5h6.58v2.39h-6.58v5.8h8.04v2.39h-10.87V351.94zM710.98 360.95c0-5.85 3.56-9.36 8.09-9.36 2.24 0 4 1.07 5.09 2.27l-1.54 1.8c-.93-.95-2.05-1.61-3.51-1.61-3.1 0-5.24 2.58-5.24 6.8 0 4.27 2 6.87 5.17 6.87 1.63 0 2.9-.73 3.97-1.9l1.51 1.78c-1.44 1.66-3.27 2.58-5.58 2.58C714.44 370.19 710.98 366.83 710.98 360.95zM727.7 351.94h2.83v7.31h7.68v-7.31h2.83v17.94h-2.83v-8.16h-7.68v8.16h-2.83V351.94zM745.73 351.94h2.83v17.94h-2.83V351.94zM753.26 351.94h5.43c4 0 6.85 1.36 6.85 5.41 0 3.92-2.85 5.73-6.75 5.73h-2.71v6.8h-2.83V351.94zM758.53 360.81c2.88 0 4.24-1.1 4.24-3.46 0-2.36-1.49-3.14-4.34-3.14h-2.34v6.6H758.53z" class="st0"/></g></g></g><g><g><defs><path id="SVGID_1_" d="M472.98,109.2h84.67c9.31,0,16.93,7.62,16.93,16.93v84.67c0,9.31-7.62,16.93-16.93,16.93h-84.67 c-9.31,0-16.93-7.62-16.93-16.93v-84.67C456.05,116.82,463.67,109.2,472.98,109.2"/></defs><clipPath id="SVGID_00000060741299025699031570000002186381545257400982_"><use overflow="visible" xlink:href="#SVGID_1_"/></clipPath><path fill="#d7e3e3" fill-rule="evenodd" d="M545.69,214.87c-0.53,0-0.95-0.43-0.95-0.95c0-0.53,0.43-0.95,0.95-0.95c0.53,0,0.95,0.43,0.95,0.95 C546.65,214.44,546.22,214.87,545.69,214.87 M545.69,215.82c-1.05,0-1.91-0.85-1.91-1.91c0-1.05,0.85-1.91,1.91-1.91 c1.05,0,1.9,0.85,1.9,1.91C547.6,214.97,546.75,215.82,545.69,215.82z" clip-path="url(#SVGID_00000060741299025699031570000002186381545257400982_)" clip-rule="evenodd"/><path fill="#d7e3e3" fill-rule="evenodd" d="M530.67,218.3l-3,3h-6.52l-3.58-3.58h-21.99l-1.96,1.96h-40.5l-8.45-8.28h-21.99l-1.96,1.96h-48.79v-0.95h48.4l1.01-1.01 l0.95-0.95h22.78l8.45,8.28h39.71l1.01-1.01l0.95-0.95h22.78l3.58,3.58h5.73l3-3h11.31l2.84-2.84c0.14,0.3,0.38,0.54,0.67,0.67 l-3.12,3.12H530.67z" clip-path="url(#SVGID_00000060741299025699031570000002186381545257400982_)" clip-rule="evenodd"/><path fill="#d7e3e3" fill-rule="evenodd" d="M538.86,214.71c-0.53,0-0.95-0.43-0.95-0.95c0-0.53,0.43-0.95,0.95-0.95c0.53,0,0.95,0.43,0.95,0.95 C539.81,214.29,539.39,214.71,538.86,214.71 M538.86,215.66c-1.05,0-1.91-0.85-1.91-1.91s0.85-1.91,1.91-1.91 c1.05,0,1.91,0.85,1.91,1.91S539.91,215.66,538.86,215.66z" clip-path="url(#SVGID_00000060741299025699031570000002186381545257400982_)" clip-rule="evenodd"/><path fill="#d7e3e3" fill-rule="evenodd" d="M536.17,211.74h-1.34l-3.43,3.43h-4.18l-3.43-3.43h-22.93l-4.41-4.41h-9.75l-1.96,1.96h-27.86l-8.45-8.28H423.4l-1.96,1.96 h-45.77v-0.95h45.38l1.01-1.01l0.95-0.95h25.81l8.45,8.28h27.08l1.96-1.96h10.54l4.41,4.41h22.93l3.43,3.43h3.4l3.43-3.43h2.13 l1.74,1.74c-0.3,0.13-0.54,0.38-0.67,0.67L536.17,211.74z" clip-path="url(#SVGID_00000060741299025699031570000002186381545257400982_)" clip-rule="evenodd"/><path fill="#d7e3e3" fill-rule="evenodd" d="M529.31,211.94c-0.53,0-0.95-0.43-0.95-0.95c0-0.53,0.43-0.95,0.95-0.95c0.53,0,0.95,0.43,0.95,0.95 C530.26,211.52,529.84,211.94,529.31,211.94 M529.31,212.9c-1.05,0-1.91-0.85-1.91-1.91c0-1.05,0.85-1.91,1.91-1.91 c1.05,0,1.91,0.85,1.91,1.91C531.22,212.04,530.36,212.9,529.31,212.9z" clip-path="url(#SVGID_00000060741299025699031570000002186381545257400982_)" clip-rule="evenodd"/><path fill="#d7e3e3" fill-rule="evenodd" d="M526.96 209.2c-10.02 0-11.94 0-24.96 0l-4.41-4.41H484.5l-1.96 1.96h-23.43l-8.45-8.28h-29.29l-1.96 1.96H376.8v-.95h42.22l1.01-1.01.95-.95h30.07l8.45 8.28h22.64l1.96-1.96h13.86l4.41 4.41c13.28 0 14.68 0 24.96 0l1.74 1.74c-.3.13-.54.38-.67.67L526.96 209.2zM523.8 217.94c-.53 0-.95-.43-.95-.95 0-.53.43-.95.95-.95.53 0 .95.43.95.95C524.75 217.51 524.33 217.94 523.8 217.94M523.8 218.89c-1.05 0-1.91-.85-1.91-1.91 0-1.05.85-1.91 1.91-1.91s1.91.85 1.91 1.91C525.71 218.03 524.85 218.89 523.8 218.89z" clip-path="url(#SVGID_00000060741299025699031570000002186381545257400982_)" clip-rule="evenodd"/><path fill="#d7e3e3" fill-rule="evenodd" d="M521.45,215.19c-10.02,0-9.28,0-22.31,0l-4.41-4.41h-6.86l-1.96,1.96h-30.75l-8.45-8.28H424.7l-1.96,1.96h-48.79v-0.95h48.4 l1.01-1.01l0.95-0.95h22.78l8.45,8.28h29.97l1.96-1.96h7.65l4.41,4.41c13.28,0,12.02,0,22.31,0l1.74,1.74 c-0.3,0.13-0.54,0.38-0.67,0.67L521.45,215.19z" clip-path="url(#SVGID_00000060741299025699031570000002186381545257400982_)" clip-rule="evenodd"/><path fill="#d7e3e3" fill-rule="evenodd" d="M491.3 215.73c-.53 0-.95-.43-.95-.95 0-.53.43-.95.95-.95.53 0 .95.43.95.95C492.25 215.3 491.82 215.73 491.3 215.73M491.3 216.68c-1.05 0-1.91-.85-1.91-1.91 0-1.05.85-1.91 1.91-1.91 1.05 0 1.91.85 1.91 1.91C493.2 215.83 492.35 216.68 491.3 216.68zM552.55 206.96c-.53 0-.95-.43-.95-.95 0-.53.43-.95.95-.95.53 0 .95.43.95.95C553.51 206.53 553.08 206.96 552.55 206.96M552.55 207.91c-1.05 0-1.91-.85-1.91-1.91 0-1.05.85-1.91 1.91-1.91 1.05 0 1.9.85 1.9 1.91C554.46 207.06 553.6 207.91 552.55 207.91zM560.21 205.05c-.53 0-.95.43-.95.95 0 .53.43.95.95.95.53 0 .95-.43.95-.95C561.16 205.48 560.73 205.05 560.21 205.05M560.21 204.1c-1.05 0-1.91.85-1.91 1.91 0 1.05.85 1.91 1.91 1.91 1.05 0 1.91-.85 1.91-1.91C562.11 204.95 561.26 204.1 560.21 204.1z" clip-path="url(#SVGID_00000060741299025699031570000002186381545257400982_)" clip-rule="evenodd"/><path fill="#d7e3e3" fill-rule="evenodd" d="M435.77 191.92L433.43 191.92 381.23 191.92 381.23 190.97 433.43 190.97 435.77 190.97 438.5 190.97 442.24 194.65 450.38 194.65 453.39 194.65 455.45 194.65 463.24 202.38 468.62 202.38 474.38 202.38 479.76 202.38 481.32 200.88 484.18 200.88 486.38 200.88 501.18 200.88 504.27 203.91 515.41 203.91 517.51 203.91 519.05 205.42 530.19 205.42 536.86 205.42 540.44 209 549.16 209 551.57 206.59 551.96 207.55 549.56 209.96 540.05 209.96 536.46 206.37 530.19 206.37 518.66 206.37 517.11 204.86 515.41 204.86 503.87 204.86 500.79 201.84 486.38 201.84 484.18 201.84 481.71 201.84 480.15 203.33 474.38 203.33 468.62 203.33 462.85 203.33 455.06 195.6 453.39 195.6 450.38 195.6 441.85 195.6 438.11 191.92z" clip-path="url(#SVGID_00000060741299025699031570000002186381545257400982_)" clip-rule="evenodd"/><path fill="#d7e3e3" fill-rule="evenodd" d="M435.77 188.75L434.74 188.75 381.23 188.75 381.23 187.8 434.74 187.8 435.77 187.8 439.81 187.8 443.56 191.48 452.18 191.48 454.7 191.48 457.25 191.48 465.04 199.21 467.94 199.21 476.18 199.21 479.09 199.21 480.64 197.71 484.18 197.71 486.38 197.71 501.18 197.71 504.27 200.74 506.11 200.74 515.41 200.74 518.3 200.74 520.39 202.77 525.89 202.77 531.53 202.77 539.53 202.77 542.43 205.64 546.37 205.64 546.64 205.64 550.22 202.06 557.21 202.06 559.56 204.4 559.16 205.36 556.82 203.01 550.61 203.01 547.03 206.59 546.37 206.59 542.04 206.59 539.13 203.72 531.53 203.72 525.89 203.72 520 203.72 517.9 201.69 515.41 201.69 506.11 201.69 503.87 201.69 500.79 198.67 486.38 198.67 484.18 198.67 481.04 198.67 479.48 200.16 476.18 200.16 467.94 200.16 464.65 200.16 456.86 192.43 454.7 192.43 452.18 192.43 443.16 192.43 439.42 188.75zM552.34 197.97c-.53 0-.95.43-.95.95 0 .53.43.95.95.95s.95-.43.95-.95C553.29 198.4 552.86 197.97 552.34 197.97M552.34 197.02c-1.05 0-1.9.85-1.9 1.9 0 1.05.85 1.91 1.9 1.91 1.05 0 1.91-.85 1.91-1.91C554.24 197.87 553.39 197.02 552.34 197.02z" clip-path="url(#SVGID_00000060741299025699031570000002186381545257400982_)" clip-rule="evenodd"/><path fill="#d7e3e3" fill-rule="evenodd" d="M548.46 199.4L545.16 202.69 542.76 202.69 540.89 200.39 522.14 200.39 519.7 197.39 504.03 197.39 501.33 194.07 467.01 194.07 461.48 187.26 446.13 187.26 442.43 182.71 389.22 182.71 389.22 181.76 442.88 181.76 446.59 186.31 461.93 186.31 467.46 193.11 501.78 193.11 504.49 196.44 520.15 196.44 522.59 199.44 541.35 199.44 543.21 201.74 544.77 201.74 548.06 198.45 551.05 198.45 551.05 199.4z" clip-path="url(#SVGID_00000060741299025699031570000002186381545257400982_)" clip-rule="evenodd"/><path fill="#d7e3e3" fill-rule="evenodd" d="M548.46 193.42L544.79 197.08 523.72 197.08 521.11 193.87 506.03 193.87 502.76 189.85 469.7 189.85 464.42 183.35 447.82 183.35 443.35 177.85 390.13 177.85 390.13 176.9 443.8 176.9 448.27 182.4 464.88 182.4 470.15 188.89 503.22 188.89 506.49 192.92 521.56 192.92 524.17 196.13 544.4 196.13 548.06 192.46 551.13 192.46 551.13 193.42z" clip-path="url(#SVGID_00000060741299025699031570000002186381545257400982_)" clip-rule="evenodd"/><path fill="#d7e3e3" fill-rule="evenodd" d="M552.34 191.99c-.53 0-.95.43-.95.95 0 .53.43.95.95.95s.95-.43.95-.95C553.29 192.41 552.86 191.99 552.34 191.99M552.34 191.03c-1.05 0-1.9.85-1.9 1.91 0 1.05.85 1.91 1.9 1.91 1.05 0 1.91-.85 1.91-1.91C554.24 191.89 553.39 191.03 552.34 191.03zM560.21 197.97c-.53 0-.95.43-.95.95 0 .53.43.95.95.95.53 0 .95-.43.95-.95C561.16 198.4 560.73 197.97 560.21 197.97M560.21 197.02c-1.05 0-1.91.85-1.91 1.9 0 1.05.85 1.91 1.91 1.91 1.05 0 1.91-.85 1.91-1.91C562.11 197.87 561.26 197.02 560.21 197.02zM540.85 191.99c-.53 0-.95.43-.95.95 0 .53.43.95.95.95.53 0 .95-.43.95-.95C541.81 192.41 541.38 191.99 540.85 191.99M540.85 191.03c-1.05 0-1.91.85-1.91 1.91 0 1.05.85 1.91 1.91 1.91 1.05 0 1.91-.85 1.91-1.91C542.76 191.89 541.91 191.03 540.85 191.03zM533.78 191.99c-.53 0-.95.43-.95.95 0 .53.43.95.95.95.53 0 .95-.43.95-.95C534.74 192.41 534.31 191.99 533.78 191.99M533.78 191.03c-1.05 0-1.9.85-1.9 1.91 0 1.05.85 1.91 1.9 1.91 1.05 0 1.91-.85 1.91-1.91C535.69 191.89 534.84 191.03 533.78 191.03z" clip-path="url(#SVGID_00000060741299025699031570000002186381545257400982_)" clip-rule="evenodd"/><path fill="#d7e3e3" fill-rule="evenodd" d="M517.74 177.91L479.84 177.91 474.72 171.61 459.87 171.61 454.17 164.6 398.42 164.6 398.42 163.64 454.62 163.64 460.33 170.66 475.18 170.66 480.29 176.95 518.19 176.95 530.8 192.46 532.49 192.46 532.49 193.42 530.34 193.42z" clip-path="url(#SVGID_00000060741299025699031570000002186381545257400982_)" clip-rule="evenodd"/><path fill="#d7e3e3" fill-rule="evenodd" d="M524.28,190.21c-0.53,0-0.95,0.43-0.95,0.95c0,0.53,0.43,0.95,0.95,0.95c0.53,0,0.95-0.43,0.95-0.95 C525.23,190.64,524.8,190.21,524.28,190.21 M524.28,189.26c-1.05,0-1.91,0.85-1.91,1.91c0,1.05,0.85,1.91,1.91,1.91 s1.91-0.85,1.91-1.91C526.18,190.11,525.33,189.26,524.28,189.26z" clip-path="url(#SVGID_00000060741299025699031570000002186381545257400982_)" clip-rule="evenodd"/><path fill="#d7e3e3" fill-rule="evenodd" d="M521.87 188.95L509.3 188.95 507.18 186.26 473.53 186.26 468.41 179.97 453.56 179.97 447.86 172.95 392.11 172.95 392.11 172 448.31 172 454.02 179.02 468.87 179.02 473.98 185.31 507.64 185.31 509.76 188 522.32 188 523.78 189.79 523.04 190.39z" clip-path="url(#SVGID_00000060741299025699031570000002186381545257400982_)" clip-rule="evenodd"/><path fill="#d7e3e3" fill-rule="evenodd" d="M513.56,183.26c-0.53,0-0.95,0.43-0.95,0.95c0,0.53,0.43,0.95,0.95,0.95c0.53,0,0.95-0.43,0.95-0.95 C514.51,183.69,514.09,183.26,513.56,183.26 M513.56,182.31c-1.05,0-1.91,0.85-1.91,1.91c0,1.05,0.85,1.91,1.91,1.91 c1.05,0,1.91-0.85,1.91-1.91C515.47,183.16,514.61,182.31,513.56,182.31z" clip-path="url(#SVGID_00000060741299025699031570000002186381545257400982_)" clip-rule="evenodd"/><path fill="#d7e3e3" fill-rule="evenodd" d="M511.2 182L477.55 182 472.44 175.71 457.59 175.71 451.89 168.69 396.14 168.69 396.14 167.74 452.34 167.74 458.04 174.76 472.89 174.76 478.01 181.05 511.67 181.05 513.09 182.85 512.34 183.44zM493.85 171.26c-.53 0-.95.43-.95.95 0 .53.43.95.95.95.53 0 .95-.43.95-.95C494.81 171.69 494.38 171.26 493.85 171.26M493.85 170.31c-1.05 0-1.91.85-1.91 1.91 0 1.05.85 1.91 1.91 1.91 1.05 0 1.91-.85 1.91-1.91C495.76 171.16 494.91 170.31 493.85 170.31z" clip-path="url(#SVGID_00000060741299025699031570000002186381545257400982_)" clip-rule="evenodd"/><path fill="#d7e3e3" fill-rule="evenodd" d="M485.4,169.54h-4.69l-11.79-14.51H428.7c-1.05,0-1.9-0.85-1.9-1.91c0-1.05,0.85-1.91,1.9-1.91h10.28c0.53,0,0.95-0.43,0.95-0.95 c0-0.53-0.43-0.95-0.95-0.95h-4.01h-6.27h-1.86l-5.1,6.27h-26.23v-0.95h25.77l5.1-6.27h2.32h5.81h4.47 c1.05,0,1.91,0.85,1.91,1.91c0,1.05-0.85,1.91-1.91,1.91H428.7c-0.53,0-0.95,0.43-0.95,0.95c0,0.53,0.43,0.95,0.95,0.95h40.68 l11.79,14.51h4.69l2.56,3.15h4.21v0.95h-4.66L485.4,169.54z" clip-path="url(#SVGID_00000060741299025699031570000002186381545257400982_)" clip-rule="evenodd"/><path fill="#d7e3e3" fill-rule="evenodd" d="M482.63,172.53c-0.53,0-0.95,0.43-0.95,0.95c0,0.53,0.43,0.95,0.95,0.95c0.53,0,0.95-0.43,0.95-0.95 C483.58,172.96,483.15,172.53,482.63,172.53 M482.63,171.58c-1.05,0-1.91,0.85-1.91,1.91c0,1.05,0.85,1.91,1.91,1.91 c1.05,0,1.91-0.85,1.91-1.91C484.53,172.43,483.68,171.58,482.63,171.58z" clip-path="url(#SVGID_00000060741299025699031570000002186381545257400982_)" clip-rule="evenodd"/><path fill="#d7e3e3" fill-rule="evenodd" d="M467.94 159.45L399.96 159.45 399.96 158.49 468.39 158.49 480.18 173.01 481.42 173.01 481.42 173.96 479.73 173.96zM552.34 184.75c-.53 0-.95.43-.95.95 0 .53.43.95.95.95s.95-.43.95-.95C553.29 185.18 552.86 184.75 552.34 184.75M552.34 183.8c-1.05 0-1.9.85-1.9 1.91 0 1.05.85 1.9 1.9 1.9 1.05 0 1.91-.85 1.91-1.9C554.24 184.65 553.39 183.8 552.34 183.8zM459.81 142.75L399.9 142.75 400.35 141.79 460.27 141.79 462.83 144.95 467.07 144.95 467.07 145.9 462.38 145.9zM560.21 184.48c-.53 0-.95.43-.95.95 0 .53.43.95.95.95.53 0 .95-.43.95-.95C561.16 184.91 560.73 184.48 560.21 184.48M560.21 183.53c-1.05 0-1.91.85-1.91 1.91 0 1.05.85 1.9 1.91 1.9 1.05 0 1.91-.85 1.91-1.9C562.11 184.38 561.26 183.53 560.21 183.53z" clip-path="url(#SVGID_00000060741299025699031570000002186381545257400982_)" clip-rule="evenodd"/><path fill="#d7e3e3" fill-rule="evenodd" d="M495.5 160.51L503.63 160.51 508.74 166.8 524.64 166.8 537.48 182.61 547.18 182.61 549.97 179.18 552.83 179.18 557.53 184.96 559.06 184.96 559.06 185.91 557.08 185.91 552.38 180.13 550.42 180.13 547.64 183.56 537.03 183.56 524.18 167.75 508.29 167.75 503.17 161.46 495.04 161.46 482.4 145.9 464.69 145.9 464.69 144.95 482.85 144.95z" clip-path="url(#SVGID_00000060741299025699031570000002186381545257400982_)" clip-rule="evenodd"/><path fill="#d7e3e3" fill-rule="evenodd" d="M545.59 177.43c-.53 0-.95.43-.95.95 0 .53.43.95.95.95.53 0 .95-.43.95-.95C546.54 177.86 546.12 177.43 545.59 177.43M545.59 176.48c-1.05 0-1.9.85-1.9 1.91 0 1.05.85 1.91 1.9 1.91 1.05 0 1.91-.85 1.91-1.91C547.5 177.33 546.64 176.48 545.59 176.48zM566.93 184.48c-.53 0-.95.43-.95.95 0 .53.43.95.95.95.53 0 .95-.43.95-.95C567.88 184.91 567.46 184.48 566.93 184.48M566.93 183.53c-1.05 0-1.91.85-1.91 1.91 0 1.05.85 1.9 1.91 1.9 1.05 0 1.91-.85 1.91-1.9C568.83 184.38 567.98 183.53 566.93 183.53z" clip-path="url(#SVGID_00000060741299025699031570000002186381545257400982_)" clip-rule="evenodd"/><path fill="#d7e3e3" fill-rule="evenodd" d="M558.27 175.54L536.98 175.54 526.77 162.96 517.12 162.96 517.12 143.86 502.72 126.14 502.72 114.79 485.51 93.62 486.25 93.01 503.67 114.45 503.67 125.8 518.07 143.52 518.07 162.01 527.22 162.01 537.44 174.58 558.73 174.58 566.49 184.15 565.76 184.75zM553.69 152.42c-.53 0-.95.43-.95.95 0 .53.43.95.95.95.53 0 .95-.43.95-.95C554.64 152.84 554.21 152.42 553.69 152.42M553.69 151.46c-1.05 0-1.91.85-1.91 1.91 0 1.05.85 1.91 1.91 1.91s1.91-.85 1.91-1.91C555.59 152.32 554.74 151.46 553.69 151.46z" clip-path="url(#SVGID_00000060741299025699031570000002186381545257400982_)" clip-rule="evenodd"/><path fill="#d7e3e3" fill-rule="evenodd" d="M513.05,119.34l13.23,16.28v14.79h9.15l10.22,12.58h21.29l6.79,8.36l0,39.64l4.01,4.94l-0.74,0.6l-4.22-5.2l0-39.64l-6.3-7.75 h-21.29l-10.22-12.58h-9.65v-15.41l-13.23-16.28v-15.04l-18.37-22.61l0.74-0.6l18.59,22.87V119.34z M515.73,116.11l13.23,16.28 v14.79h9.15l10.22,12.58h21.29l6.79,8.36v39.64l4.01,4.94l-0.74,0.6l-4.22-5.2v-39.64l-6.3-7.75h-21.29l-10.22-12.58h-9.65 v-15.41l-13.23-16.28v-15.04L496.41,78.8l0.74-0.6l18.59,22.87V116.11z M518.69,112.89l13.23,16.28v14.79h9.15l10.22,12.58h21.29 l6.79,8.36l0,39.64l4.01,4.94l-0.74,0.6l-4.22-5.2l0-39.64l-6.3-7.75h-21.29l-10.22-12.58h-9.65v-15.41l-13.23-16.28V98.18 l-18.37-22.61l0.74-0.6l18.59,22.87V112.89z M510.55,122.7l13.23,16.28v14.79h9.15l10.22,12.58h21.29l6.79,8.36v39.64l4.01,4.94 l-0.74,0.6l-4.22-5.2v-39.64l-6.3-7.75H542.7l-10.22-12.58h-9.65v-15.41l-13.23-16.28v-15.04l-18.37-22.61l0.74-0.6l18.59,22.87 V122.7z" clip-path="url(#SVGID_00000060741299025699031570000002186381545257400982_)" clip-rule="evenodd"/><path fill="#d7e3e3" fill-rule="evenodd" d="M565.07 191.69c-.53 0-.95.43-.95.95 0 .53.43.95.95.95.53 0 .95-.43.95-.95C566.02 192.12 565.59 191.69 565.07 191.69M565.07 190.74c-1.05 0-1.91.85-1.91 1.91 0 1.05.85 1.91 1.91 1.91 1.05 0 1.91-.85 1.91-1.91C566.97 191.59 566.12 190.74 565.07 190.74zM497.55 155.61c-.53 0-.95.43-.95.95 0 .53.43.95.95.95.53 0 .95-.43.95-.95C498.51 156.03 498.08 155.61 497.55 155.61M497.55 154.65c-1.05 0-1.91.85-1.91 1.91 0 1.05.85 1.91 1.91 1.91 1.05 0 1.9-.85 1.9-1.91C499.46 155.51 498.61 154.65 497.55 154.65zM510.38 160.92c-.53 0-.95.43-.95.95 0 .53.43.95.95.95.53 0 .95-.43.95-.95C511.34 161.34 510.91 160.92 510.38 160.92M510.38 159.96c-1.05 0-1.91.85-1.91 1.91 0 1.05.85 1.91 1.91 1.91s1.91-.85 1.91-1.91C512.29 160.82 511.44 159.96 510.38 159.96z" clip-path="url(#SVGID_00000060741299025699031570000002186381545257400982_)" clip-rule="evenodd"/><path fill="#d7e3e3" fill-rule="evenodd" d="M509.91 158.54L499.18 145.34 499.18 141.71 482.87 121.64 388.97 121.64 388.97 120.69 483.32 120.69 500.13 141.37 500.13 145 510.86 158.2 510.86 160.44 509.91 160.44zM455.75 146.15h-56.52v-.95h56.52c1.05 0 1.91.85 1.91 1.91 0 1.05-.85 1.9-1.91 1.9h-10.28c-.53 0-.95.43-.95.95 0 .53.43.95.95.95h31.69l12.64 15.56h8.13l5.11 6.29h15.9l12.85 15.81h25.64v6.18l2.57 3.16-.74.6-2.78-3.42v-5.57h-25.14l-12.85-15.81h-15.9l-5.11-6.29h-8.13l-12.64-15.56h-31.24c-1.05 0-1.91-.85-1.91-1.91 0-1.05.85-1.91 1.91-1.91h10.28c.53 0 .95-.43.95-.95C456.7 146.57 456.27 146.15 455.75 146.15" clip-path="url(#SVGID_00000060741299025699031570000002186381545257400982_)" clip-rule="evenodd"/><path fill="#d7e3e3" fill-rule="evenodd" d="M486.54 143.76L467.37 143.76 463.08 138.49 398.3 138.49 398.3 137.53 463.54 137.53 467.82 142.81 486.99 142.81 497.09 155.24 496.35 155.84z" clip-path="url(#SVGID_00000060741299025699031570000002186381545257400982_)" clip-rule="evenodd"/><path fill="#d7e3e3" fill-rule="evenodd" d="M489.2 140.64L468.76 140.64 464.47 135.36 399.69 135.36 399.69 134.41 464.92 134.41 469.21 139.69 489.65 139.69 497.1 148.85 496.36 149.45zM482.08 127.08L462.06 127.08 459.27 129.87 392.17 129.87 392.17 128.92 458.88 128.92 461.67 126.13 482.53 126.13 488.89 133.95 488.15 134.55z" clip-path="url(#SVGID_00000060741299025699031570000002186381545257400982_)" clip-rule="evenodd"/><path fill="#d7e3e3" fill-rule="evenodd" d="M497.54 149.2c-.53 0-.95.43-.95.95 0 .53.43.95.95.95.53 0 .95-.43.95-.95C498.49 149.62 498.06 149.2 497.54 149.2M497.54 148.24c-1.05 0-1.91.85-1.91 1.91 0 1.05.85 1.9 1.91 1.9 1.05 0 1.91-.85 1.91-1.9C499.44 149.1 498.59 148.24 497.54 148.24zM476.37 131.25c-.53 0-.95.43-.95.95 0 .53.43.95.95.95.53 0 .95-.43.95-.95C477.32 131.68 476.9 131.25 476.37 131.25M476.37 130.3c-1.05 0-1.91.85-1.91 1.91 0 1.05.85 1.91 1.91 1.91 1.05 0 1.91-.85 1.91-1.91C478.27 131.15 477.42 130.3 476.37 130.3z" clip-path="url(#SVGID_00000060741299025699031570000002186381545257400982_)" clip-rule="evenodd"/><path fill="#d7e3e3" fill-rule="evenodd" d="M393.23 131.73H475.06V132.67999999999998H393.23zM489.31 134.27c-.53 0-.95.43-.95.95 0 .53.43.95.95.95.53 0 .95-.43.95-.95C490.26 134.7 489.84 134.27 489.31 134.27M489.31 133.32c-1.05 0-1.91.85-1.91 1.91 0 1.05.85 1.91 1.91 1.91 1.05 0 1.91-.85 1.91-1.91C491.22 134.17 490.36 133.32 489.31 133.32zM456.07 123.74c-.53 0-.95.43-.95.95 0 .53.43.95.95.95.53 0 .95-.43.95-.95C457.03 124.17 456.6 123.74 456.07 123.74M456.07 122.79c-1.05 0-1.91.85-1.91 1.91s.85 1.91 1.91 1.91c1.05 0 1.9-.85 1.9-1.91S457.13 122.79 456.07 122.79zM503.65 142.02c-.53 0-.95.43-.95.95 0 .53.43.95.95.95.53 0 .95-.43.95-.95C504.6 142.44 504.17 142.02 503.65 142.02M503.65 141.06c-1.05 0-1.91.85-1.91 1.91 0 1.05.85 1.91 1.91 1.91 1.05 0 1.91-.85 1.91-1.91C505.55 141.92 504.7 141.06 503.65 141.06zM511.57 145.75c-.53 0-.95.43-.95.95 0 .53.43.95.95.95.53 0 .95-.43.95-.95C512.53 146.17 512.1 145.75 511.57 145.75M511.57 144.79c-1.05 0-1.91.85-1.91 1.91 0 1.05.85 1.91 1.91 1.91 1.05 0 1.91-.85 1.91-1.91C513.48 145.65 512.63 144.79 511.57 144.79z" clip-path="url(#SVGID_00000060741299025699031570000002186381545257400982_)" clip-rule="evenodd"/><path fill="#d7e3e3" fill-rule="evenodd" d="M503.17 140.4L491.94 126.58 491.94 115.84 481.49 102.97 453.53 102.97 447.45 110.44 426.59 110.44 423.8 107.65 357.09 107.65 357.09 106.7 424.19 106.7 426.98 109.49 447 109.49 453.07 102.02 481.94 102.02 492.89 115.5 492.89 126.24 504.12 140.06 504.12 141.92 503.17 141.92z" clip-path="url(#SVGID_00000060741299025699031570000002186381545257400982_)" clip-rule="evenodd"/><path fill="#d7e3e3" fill-rule="evenodd" d="M446.13 104.84L429.09 104.84 426.3 102.05 359.2 102.05 359.2 103 425.91 103 428.7 105.79 446.58 105.79 452.65 98.32 484.95 98.32 499.87 116.68 499.87 130.31 511.1 144.13 511.1 145.65 512.05 145.65 512.05 143.79 500.82 129.97 500.82 116.34 485.41 97.37 452.2 97.37zM530.51 121.12c-.53 0-.95.43-.95.95 0 .53.43.95.95.95.53 0 .95-.43.95-.95C531.47 121.55 531.04 121.12 530.51 121.12M530.51 120.17c-1.05 0-1.91.85-1.91 1.91 0 1.05.85 1.91 1.91 1.91 1.05 0 1.91-.85 1.91-1.91C532.42 121.02 531.56 120.17 530.51 120.17z" clip-path="url(#SVGID_00000060741299025699031570000002186381545257400982_)" clip-rule="evenodd"/><path fill="#d7e3e3" fill-rule="evenodd" d="M524.99 108.54L535.72 121.75 535.72 125.38 543.65 135.14 543.65 136.65 534.77 125.72 534.77 122.09 524.04 108.88 524.04 106.64 524.99 106.64z" clip-path="url(#SVGID_00000060741299025699031570000002186381545257400982_)" clip-rule="evenodd"/><path fill="#d7e3e3" fill-rule="evenodd" d="M521.84 112.16L521.84 72.9 522.8 72.9 522.8 111.82 530.05 120.75 529.31 121.35zM550.52 147.82c-.53 0-.95.43-.95.95 0 .53.43.95.95.95.53 0 .95-.43.95-.95C551.47 148.25 551.04 147.82 550.52 147.82M550.52 146.87c-1.05 0-1.91.85-1.91 1.91 0 1.05.85 1.91 1.91 1.91 1.05 0 1.91-.85 1.91-1.91C552.42 147.72 551.57 146.87 550.52 146.87z" clip-path="url(#SVGID_00000060741299025699031570000002186381545257400982_)" clip-rule="evenodd"/><path fill="#d7e3e3" fill-rule="evenodd" d="M550.04,147.48v-26.25c0-1.05,0.85-1.91,1.91-1.91c1.05,0,1.91,0.85,1.91,1.91v10.28c0,0.53,0.43,0.95,0.95,0.95 c0.53,0,0.95-0.43,0.95-0.95v-4.01v-6.27v-1.86l-6.27-5.1V88.04h0.95v25.77l6.27,5.1v2.32v5.81v4.47c0,1.05-0.85,1.91-1.91,1.91 s-1.91-0.85-1.91-1.91v-10.28c0-0.53-0.43-0.95-0.95-0.95c-0.53,0-0.95,0.43-0.95,0.95v26.25H550.04z" clip-path="url(#SVGID_00000060741299025699031570000002186381545257400982_)" clip-rule="evenodd"/><path fill="#d7e3e3" fill-rule="evenodd" d="M558.92 148.28V91.76h.95v56.52c0 1.05-.85 1.91-1.9 1.91-1.05 0-1.91-.85-1.91-1.91V138c0-.53-.43-.95-.95-.95-.53 0-.95.43-.95.95v14.31l-.95-.45V138c0-1.05.85-1.91 1.91-1.91s1.91.85 1.91 1.91v10.28c0 .53.43.95.95.95C558.5 149.23 558.92 148.8 558.92 148.28M544.6 134.94c-.53 0-.95.43-.95.95 0 .53.43.95.95.95.53 0 .95-.43.95-.95C545.56 135.37 545.13 134.94 544.6 134.94M544.6 133.99c-1.05 0-1.91.85-1.91 1.91 0 1.05.85 1.91 1.91 1.91 1.05 0 1.91-.85 1.91-1.91C546.51 134.84 545.66 133.99 544.6 133.99zM562.89 150.13L565.48 153.32 586.77 153.32 593.57 161.68 593.57 201.32 597.58 206.26 596.84 206.86 592.61 201.66 592.61 162.02 586.32 154.28 565.03 154.28 561.93 150.46 561.93 100.18 562.89 100.18zM547.57 122.83L547.57 102.82 544.78 100.03 544.78 32.92 545.73 32.92 545.73 99.63 548.52 102.42 548.52 123.28 545.4 125.82 544.8 125.08z" clip-path="url(#SVGID_00000060741299025699031570000002186381545257400982_)" clip-rule="evenodd"/><path fill="#d7e3e3" fill-rule="evenodd" d="M545.08 126.24c0-.53-.43-.95-.95-.95-.53 0-.95.43-.95.95 0 .53.43.95.95.95C544.66 127.19 545.08 126.77 545.08 126.24M546.03 126.24c0-1.05-.85-1.91-1.91-1.91s-1.91.85-1.91 1.91c0 1.05.85 1.91 1.91 1.91S546.03 127.29 546.03 126.24zM530.67 223.46L527.68 226.46 521.16 226.46 517.57 222.87 495.58 222.87 493.61 224.84 453.12 224.84 444.67 216.56 422.67 216.56 420.71 218.52 371.91 218.52 371.91 217.57 420.31 217.57 421.33 216.56 422.28 215.6 445.06 215.6 453.51 223.88 493.22 223.88 494.23 222.87 495.18 221.92 517.97 221.92 521.55 225.5 527.28 225.5 530.28 222.51 530.28 222.51 530.28 222.51 545.43 222.51 550.49 217.45 556.3 217.45 564.59 209.16 564.59 194.02 565.54 194.02 565.54 209.56 556.7 218.4 550.88 218.4 545.83 223.46zM571.46 148.03c0-.53.43-.95.95-.95.53 0 .95.43.95.95 0 .53-.43.95-.95.95C571.89 148.98 571.46 148.56 571.46 148.03M570.51 148.03c0-1.05.85-1.91 1.91-1.91 1.05 0 1.91.85 1.91 1.91 0 1.05-.85 1.9-1.91 1.9C571.36 149.93 570.51 149.08 570.51 148.03z" clip-path="url(#SVGID_00000060741299025699031570000002186381545257400982_)" clip-rule="evenodd"/><path fill="#d7e3e3" fill-rule="evenodd" d="M568.03,133.01l-3-3v-6.52l3.58-3.58V97.91l-1.96-1.96v-40.5l8.28-8.45V25.01l-1.96-1.96v-48.79h0.95v48.4l1.01,1.01l0.95,0.95 V47.4l-8.28,8.45v39.71l1.01,1.01l0.95,0.95v22.78l-3.58,3.58v5.73l3,3v11.31l2.84,2.84c-0.3,0.14-0.54,0.38-0.67,0.67 l-3.12-3.12V133.01z" clip-path="url(#SVGID_00000060741299025699031570000002186381545257400982_)" clip-rule="evenodd"/><path fill="#d7e3e3" fill-rule="evenodd" d="M570.78,141.71c0-0.53,0.43-0.95,0.95-0.95c0.53,0,0.95,0.43,0.95,0.95c0,0.53-0.43,0.95-0.95,0.95 C571.21,142.66,570.78,142.24,570.78,141.71 M569.83,141.71c0-1.05,0.85-1.91,1.91-1.91c1.05,0,1.9,0.85,1.9,1.91 c0,1.05-0.85,1.91-1.9,1.91C570.68,143.61,569.83,142.76,569.83,141.71z" clip-path="url(#SVGID_00000060741299025699031570000002186381545257400982_)" clip-rule="evenodd"/><path fill="#d7e3e3" fill-rule="evenodd" d="M571.16 140.46L571.16 129.56 574.58 126.13 574.58 103.19 579 98.78 579 89.03 577.03 87.07 577.03 59.2 585.31 50.75 585.31 25.74 583.35 23.77 583.35-22 584.3-22 584.3 23.38 585.31 24.39 586.27 25.34 586.27 51.15 577.99 59.6 577.99 86.67 579.95 88.64 579.95 99.17 575.54 103.59 575.54 126.52 572.11 129.95 572.11 140.07zM568.39 126.14c0-.53.43-.95.95-.95.53 0 .95.43.95.95 0 .53-.43.95-.95.95C568.82 127.09 568.39 126.66 568.39 126.14M567.44 126.14c0-1.05.85-1.91 1.91-1.91 1.05 0 1.91.85 1.91 1.91 0 1.05-.85 1.91-1.91 1.91C568.29 128.04 567.44 127.19 567.44 126.14z" clip-path="url(#SVGID_00000060741299025699031570000002186381545257400982_)" clip-rule="evenodd"/><path fill="#d7e3e3" fill-rule="evenodd" d="M571.14 123.78c0-10.02 0-9.28 0-22.31l4.41-4.41V90.2l-1.96-1.96V57.48l8.28-8.45V27.04l-1.96-1.96v-48.79h.95v48.4l1.01 1.01.95.95v22.78l-8.28 8.45v29.97l1.96 1.96v7.65l-4.41 4.41c0 13.28 0 12.02 0 22.31l-1.74 1.74c-.13-.3-.38-.54-.67-.67L571.14 123.78zM483.63 115.41c-.53 0-.95.43-.95.95 0 .53.43.95.95.95.53 0 .95-.43.95-.95C484.59 115.84 484.16 115.41 483.63 115.41M483.63 114.46c-1.05 0-1.91.85-1.91 1.91 0 1.05.85 1.91 1.91 1.91 1.05 0 1.9-.85 1.9-1.91C485.54 115.31 484.69 114.46 483.63 114.46z" clip-path="url(#SVGID_00000060741299025699031570000002186381545257400982_)" clip-rule="evenodd"/><path fill="#d7e3e3" fill-rule="evenodd" d="M450.13 116.95L461.27 116.95 467.94 116.95 471.52 113.37 480.24 113.37 482.65 115.78 483.05 114.82 480.64 112.41 471.13 112.41 467.54 116 461.27 116 449.74 116zM543.81 117.01L543.81 96.99 541.02 94.2 541.02 27.1 541.97 27.1 541.97 93.81 544.76 96.6 544.76 117.46 541.64 120 541.04 119.26z" clip-path="url(#SVGID_00000060741299025699031570000002186381545257400982_)" clip-rule="evenodd"/><path fill="#d7e3e3" fill-rule="evenodd" d="M541.32 120.42c0-.53-.43-.95-.95-.95-.53 0-.95.43-.95.95 0 .53.43.95.95.95C540.89 121.37 541.32 120.94 541.32 120.42M542.27 120.42c0-1.05-.85-1.91-1.91-1.91s-1.91.85-1.91 1.91.85 1.91 1.91 1.91S542.27 121.47 542.27 120.42zM540.13 111.18L540.13 91.17 537.34 88.38 537.34 21.27 538.3 21.27 538.3 87.98 541.09 90.77 541.09 111.64 537.96 114.17 537.36 113.43z" clip-path="url(#SVGID_00000060741299025699031570000002186381545257400982_)" clip-rule="evenodd"/><path fill="#d7e3e3" fill-rule="evenodd" d="M537.64 114.59c0-.53-.43-.95-.95-.95-.53 0-.95.43-.95.95 0 .53.43.95.95.95C537.22 115.54 537.64 115.12 537.64 114.59M538.6 114.59c0-1.05-.85-1.91-1.9-1.91-1.05 0-1.91.85-1.91 1.91 0 1.05.85 1.91 1.91 1.91C537.74 116.5 538.6 115.64 538.6 114.59zM566.93 212.6c-.53 0-.95.43-.95.95 0 .53.43.95.95.95.53 0 .95-.43.95-.95C567.88 213.03 567.46 212.6 566.93 212.6M566.93 211.65c-1.05 0-1.91.85-1.91 1.91 0 1.05.85 1.91 1.91 1.91 1.05 0 1.91-.85 1.91-1.91C568.84 212.5 567.98 211.65 566.93 211.65z" clip-path="url(#SVGID_00000060741299025699031570000002186381545257400982_)" clip-rule="evenodd"/><path fill="#d7e3e3" fill-rule="evenodd" d="M531.21 226.17L528.21 229.17 520.38 229.17 516.79 225.59 494.8 225.59 492.84 227.55 452.34 227.55 443.89 219.27 423.51 219.27 421.54 221.23 371.13 221.23 371.13 220.28 421.15 220.28 422.16 219.27 423.11 218.32 444.28 218.32 452.73 226.6 492.44 226.6 493.45 225.59 494.41 224.63 517.19 224.63 520.77 228.22 527.81 228.22 530.81 225.22 530.81 225.22 530.81 225.22 549.06 225.22 551.59 222.69 557.4 222.69 565.69 214.4 566.64 214.8 557.79 223.65 551.98 223.65 549.45 226.17z" clip-path="url(#SVGID_00000060741299025699031570000002186381545257400982_)" clip-rule="evenodd"/></g><linearGradient id="SVGID_00000041271511051493780250000003716225558067901096_" x1="544.014" x2="539.663" y1="170.765" y2="144.953" gradientUnits="userSpaceOnUse"><stop offset="0" stop-color="#62c0b4"/><stop offset="1" stop-color="#008698"/></linearGradient><path fill="url(#SVGID_00000041271511051493780250000003716225558067901096_)" fill-rule="evenodd" d="M567.91,161.21v-33.87c0-2.92-1.5-5.5-3.76-7.03c-0.01-0.01-0.02-0.01-0.03-0.02c-0.01-0.01-0.02-0.01-0.03-0.02 c-0.01-0.01-0.02-0.01-0.03-0.02c-0.01-0.01-0.02-0.01-0.03-0.02c-0.01-0.01-0.02-0.01-0.03-0.02c-0.01-0.01-0.02-0.01-0.03-0.02 c-0.01-0.01-0.02-0.01-0.03-0.02c-0.01-0.01-0.02-0.01-0.03-0.02c-0.01-0.01-0.02-0.01-0.03-0.02c-0.01-0.01-0.02-0.01-0.03-0.02 c-0.01-0.01-0.02-0.01-0.03-0.02c-0.01-0.01-0.02-0.01-0.03-0.02c-0.01-0.01-0.02-0.01-0.03-0.02c-0.01-0.01-0.02-0.01-0.03-0.02 c-0.01-0.01-0.02-0.01-0.03-0.02c-0.01-0.01-0.02-0.01-0.03-0.02c-0.01-0.01-0.02-0.01-0.03-0.02c-0.01-0.01-0.02-0.01-0.03-0.02 c-0.01-0.01-0.02-0.01-0.03-0.02c-0.01-0.01-0.02-0.01-0.03-0.02c-0.01-0.01-0.02-0.01-0.03-0.02c-0.01-0.01-0.02-0.01-0.03-0.02 c-0.01-0.01-0.02-0.01-0.03-0.02c-0.01-0.01-0.02-0.01-0.03-0.02c-0.01-0.01-0.02-0.01-0.03-0.02c-0.01-0.01-0.02-0.01-0.03-0.02 c-0.01-0.01-0.02-0.01-0.03-0.02c-0.01-0.01-0.02-0.01-0.03-0.02c-0.01-0.01-0.02-0.01-0.03-0.02c-0.01-0.01-0.02-0.01-0.03-0.02 c-0.01-0.01-0.02-0.01-0.03-0.02c-0.01-0.01-0.02-0.01-0.03-0.02c-0.01-0.01-0.02-0.01-0.03-0.02c-0.01-0.01-0.02-0.01-0.03-0.02 c-0.01-0.01-0.02-0.01-0.03-0.02c-0.01-0.01-0.02-0.01-0.03-0.02c-0.01-0.01-0.02-0.01-0.03-0.02c-0.01-0.01-0.02-0.01-0.03-0.02 c-0.01-0.01-0.02-0.01-0.03-0.02c-0.01-0.01-0.02-0.01-0.03-0.02c-0.01-0.01-0.02-0.01-0.03-0.02c-0.01-0.01-0.02-0.01-0.03-0.02 c-0.01-0.01-0.02-0.01-0.03-0.02c-0.01-0.01-0.02-0.01-0.03-0.02c-0.01-0.01-0.02-0.01-0.03-0.02c-0.01-0.01-0.02-0.01-0.03-0.02 c-0.01-0.01-0.02-0.01-0.03-0.02c-0.01-0.01-0.02-0.01-0.03-0.02c-0.01-0.01-0.02-0.01-0.03-0.02c-0.01-0.01-0.02-0.01-0.03-0.02 c-0.01-0.01-0.02-0.01-0.03-0.02c-0.01-0.01-0.02-0.01-0.03-0.02c-0.01-0.01-0.02-0.01-0.03-0.02c-0.01-0.01-0.02-0.01-0.03-0.02 c-0.01-0.01-0.02-0.01-0.03-0.02c-0.01-0.01-0.02-0.01-0.03-0.02c-0.01-0.01-0.02-0.01-0.03-0.02c-0.01-0.01-0.02-0.01-0.03-0.02 c-0.01-0.01-0.02-0.01-0.03-0.02c-0.01-0.01-0.02-0.01-0.03-0.02c-1.35-0.92-2.99-1.46-4.74-1.46h-29.63 c-4.65,0-8.47,3.81-8.47,8.47V160l0.03,0.02v0l0.03,0.02v0l0.03,0.02v0l0.03,0.02v0l0.03,0.02v0l0.03,0.02v0l0.03,0.02v0 l0.03,0.02v0l0.03,0.02v0l0.03,0.02v0l0.03,0.02v0l0.03,0.02v0l0.03,0.02v0l0.03,0.02v0l0.03,0.02v0l0.03,0.02v0l0.03,0.02v0 l0.03,0.02v0l0.03,0.02v0l0.03,0.02v0l0.03,0.02v0l0.03,0.02v0l0.03,0.02v0l0.03,0.02v0l0.03,0.02v0l0.03,0.02v0l0.03,0.02v0 l0.03,0.02v0l0.03,0.02v0l0.03,0.02v0l0.03,0.02v0l0.03,0.02v0l0.03,0.02v0l0.03,0.02v0l0.03,0.02v0l0.03,0.02v0l0.03,0.02v0 l0.03,0.02v0l0.03,0.02v0l0.03,0.02v0l0.03,0.02v0l0.03,0.02v0l0.03,0.02v0l0.03,0.02v0l0.03,0.02v0l0.03,0.02v0l0.03,0.02v0 l0.03,0.02v0l0.03,0.02v0l0.03,0.02v0l0.03,0.02v0l0.03,0.02v0l0.03,0.02v0l0.03,0.02v0l0.03,0.02v0l0.03,0.02v0l0.03,0.02v0 l0.03,0.02v0l0.03,0.02v0l0.03,0.02v0l0.03,0.02v0l36.31,20.89v28.7h-27.84v-27.78l-0.03-0.02v0l-0.03-0.02v0l-0.03-0.02v0 l-0.03-0.02v0l-0.03-0.02v0l-0.03-0.02v0l-0.03-0.02v0l-0.03-0.02v0l-0.03-0.02v0l-0.03-0.02v0l-0.03-0.02v0l-0.03-0.02v0 l-0.03-0.02v0l-0.03-0.02v0l-0.03-0.02v0l-0.03-0.02v0l-0.03-0.02v0l-0.03-0.02v0l-0.03-0.02v0l-0.03-0.02v0l-0.03-0.02v0 l-0.03-0.02v0l-0.03-0.02v0l-0.03-0.02v0l-0.03-0.02v0l-0.03-0.02v0l-0.03-0.02v0l-0.03-0.02v0l-0.03-0.02v0l-0.03-0.02v0 l-0.03-0.02v0l-0.03-0.02v0l-0.03-0.02v0l-0.03-0.02v0l-0.03-0.02v0l-0.03-0.02v0l-0.03-0.02v0l-0.03-0.02v0l-0.03-0.02v0 l-0.03-0.02v0l-0.03-0.02v0l-0.03-0.02v0l-0.03-0.02v0l-0.03-0.02v0l-0.03-0.02v0l-0.03-0.02v0l-0.03-0.02v0l-0.03-0.02v0 l-0.03-0.02v0l-0.03-0.02v0l-0.03-0.02v0l-0.03-0.02v0l-0.03-0.02v0l-0.03-0.02v0l-0.03-0.02v0l-0.03-0.02v0l-0.03-0.02v0 l-0.03-0.02v0l-0.03-0.02v0l-0.03-0.02v0l-0.03-0.02v0l-8.47-4.87v33.87c0,2.92,1.5,5.5,3.76,7.02c0.01,0.01,0.02,0.01,0.03,0.02 c0.01,0.01,0.02,0.01,0.03,0.02c0.01,0.01,0.02,0.01,0.03,0.02c0.01,0.01,0.02,0.01,0.03,0.02c0.01,0.01,0.02,0.01,0.03,0.02 c0.01,0.01,0.02,0.01,0.03,0.02c0.01,0.01,0.02,0.01,0.03,0.02c0.01,0.01,0.02,0.01,0.03,0.02c0.01,0.01,0.02,0.01,0.03,0.02 c0.01,0.01,0.02,0.01,0.03,0.02c0.01,0.01,0.02,0.01,0.03,0.02c0.01,0.01,0.02,0.01,0.03,0.02c0.01,0.01,0.02,0.01,0.03,0.02 c0.01,0.01,0.02,0.01,0.03,0.02c0.01,0.01,0.02,0.01,0.03,0.02c0.01,0.01,0.02,0.01,0.03,0.02c0.01,0.01,0.02,0.01,0.03,0.02 c0.01,0.01,0.02,0.01,0.03,0.02c0.01,0.01,0.02,0.01,0.03,0.02c0.01,0.01,0.02,0.01,0.03,0.02c0.01,0.01,0.02,0.01,0.03,0.02 c0.01,0.01,0.02,0.01,0.03,0.02c0.01,0.01,0.02,0.01,0.03,0.02c0.01,0.01,0.02,0.01,0.03,0.02c0.01,0.01,0.02,0.01,0.03,0.02 c0.01,0.01,0.02,0.01,0.03,0.02c0.01,0.01,0.02,0.01,0.03,0.02c0.01,0.01,0.02,0.01,0.03,0.02c0.01,0.01,0.02,0.01,0.03,0.02 c0.01,0.01,0.02,0.01,0.03,0.02c0.01,0.01,0.02,0.01,0.03,0.02c0.01,0.01,0.02,0.01,0.03,0.02c0.01,0.01,0.02,0.01,0.03,0.02 c0.01,0.01,0.02,0.01,0.03,0.02c0.01,0.01,0.02,0.01,0.03,0.02c0.01,0.01,0.02,0.01,0.03,0.02c0.01,0.01,0.02,0.01,0.03,0.02 c0.01,0.01,0.02,0.01,0.03,0.02c0.01,0.01,0.02,0.01,0.03,0.02c0.01,0.01,0.02,0.01,0.03,0.02c0.01,0.01,0.02,0.01,0.03,0.02 c0.01,0.01,0.02,0.01,0.03,0.02c0.01,0.01,0.02,0.01,0.03,0.02c0.01,0.01,0.02,0.01,0.03,0.02c0.01,0.01,0.02,0.01,0.03,0.02 c0.01,0.01,0.02,0.01,0.03,0.02c0.01,0.01,0.02,0.01,0.03,0.02c0.01,0.01,0.02,0.01,0.03,0.02c0.01,0.01,0.02,0.01,0.03,0.02 c0.01,0.01,0.02,0.01,0.03,0.02c0.01,0.01,0.02,0.01,0.03,0.02c0.01,0.01,0.02,0.01,0.03,0.02c0.01,0.01,0.02,0.01,0.03,0.02 c0.01,0.01,0.02,0.01,0.03,0.02c0.01,0.01,0.02,0.01,0.03,0.02c0.01,0.01,0.02,0.01,0.03,0.02c0.01,0.01,0.02,0.01,0.03,0.02 c0.01,0.01,0.02,0.01,0.03,0.02c0.01,0.01,0.02,0.01,0.03,0.02s0.02,0.01,0.03,0.02c1.35,0.92,2.99,1.46,4.74,1.46h29.63 c4.66,0,8.47-3.81,8.47-8.47v-33.87l-0.03-0.02v0l-0.03-0.02v0l-0.03-0.02v0l-0.03-0.02v0l-0.03-0.02v0l-0.03-0.02v0l-0.03-0.02v0 l-0.03-0.02v0l-0.03-0.02v0l-0.03-0.02v0l-0.03-0.02v0l-0.03-0.02v0l-0.03-0.02v0l-0.03-0.02v0l-0.03-0.02v0l-0.03-0.02v0 l-0.03-0.02v0l-0.03-0.02v0l-0.03-0.02v0l-0.03-0.02v0l-0.03-0.02v0l-0.03-0.02v0l-0.03-0.02v0l-0.03-0.02v0l-0.03-0.02v0 l-0.03-0.02v0l-0.03-0.02v0l-0.03-0.02v0l-0.03-0.02v0l-0.03-0.02v0l-0.03-0.02v0l-0.03-0.02v0l-0.03-0.02v0l-0.03-0.02v0 l-0.03-0.02v0l-0.03-0.02v0l-0.03-0.02v0l-0.03-0.02v0l-0.03-0.02v0l-0.03-0.02v0l-0.03-0.02v0l-0.03-0.02v0l-0.03-0.02v0 l-0.03-0.02v0l-0.03-0.02v0l-0.03-0.02v0l-0.03-0.02v0l-0.03-0.02v0l-0.03-0.02v0l-0.03-0.02v0l-0.03-0.02v0l-0.03-0.02v0 l-0.03-0.02v0l-0.03-0.02v0l-0.03-0.02v0l-0.03-0.02v0l-0.03-0.02v0l-0.03-0.02v0l-0.03-0.02v0l-0.03-0.02v0l-0.03-0.02v0 l-36.31-20.89v-28.7h27.84v27.78l0.03,0.02v0l0.03,0.02v0l0.03,0.02v0l0.03,0.02v0l0.03,0.02v0l0.03,0.02v0l0.03,0.02v0l0.03,0.02 v0l0.03,0.02v0l0.03,0.02v0l0.03,0.02v0l0.03,0.02v0l0.03,0.02v0l0.03,0.02v0l0.03,0.02v0l0.03,0.02v0l0.03,0.02v0l0.03,0.02v0 l0.03,0.02v0l0.03,0.02v0l0.03,0.02v0l0.03,0.02v0l0.03,0.02v0l0.03,0.02v0l0.03,0.02v0l0.03,0.02v0l0.03,0.02v0l0.03,0.02v0 l0.03,0.02v0l0.03,0.02v0l0.03,0.02v0l0.03,0.02v0l0.03,0.02v0l0.03,0.02v0l0.03,0.02v0l0.03,0.02v0l0.03,0.02v0l0.03,0.02v0 l0.03,0.02v0l0.03,0.02v0l0.03,0.02v0l0.03,0.02v0l0.03,0.02v0l0.03,0.02v0l0.03,0.02v0l0.03,0.02v0l0.03,0.02v0l0.03,0.02v0 l0.03,0.02v0l0.03,0.02v0l0.03,0.02v0l0.03,0.02v0l0.03,0.02v0l0.03,0.02v0l0.03,0.02v0l0.03,0.02v0l0.03,0.02v0l0.03,0.02v0 l0.03,0.02v0l0.03,0.02v0l0.03,0.02v0L567.91,161.21z" clip-rule="evenodd"/><linearGradient id="SVGID_00000076561279180292396050000008463569371680490149_" x1="522.462" x2="465.618" y1="177.522" y2="100.667" gradientUnits="userSpaceOnUse"><stop offset="0" stop-color="#009dda"/><stop offset=".154" stop-color="#0693d2"/><stop offset=".459" stop-color="#1e79bb"/><stop offset=".883" stop-color="#2b4f98"/><stop offset="1" stop-color="#2d4390"/></linearGradient><path fill="url(#SVGID_00000076561279180292396050000008463569371680490149_)" fill-rule="evenodd" d="M584.84,156.34v-54.4h-0.03v-0.02h-0.03v-0.02h-0.03v-0.02h-0.03v-0.02h-0.03v-0.02h-0.03v-0.02h-0.03v-0.02h-0.03v-0.02h-0.03 v-0.02h-0.03v-0.02h-0.03v-0.02h-0.03v-0.02h-0.03v-0.02h-0.03v-0.02h-0.03v-0.02h-0.03v-0.02h-0.03v-0.02h-0.03v-0.02h-0.03 v-0.02h-0.03v-0.02h-0.03v-0.02h-0.03v-0.02h-0.03v-0.02h-0.03v-0.02h-0.03v-0.02h-0.03v-0.02h-0.03v-0.02h-0.03v-0.02h-0.03 v-0.02h-0.03v-0.02h-0.03v-0.02h-0.03v-0.02h-0.03v-0.02h-0.03v-0.02h-0.03v-0.02h-0.03v-0.02h-0.03v-0.02h-0.03v-0.02h-0.03 v-0.02h-0.03v-0.02h-0.03v-0.02h-0.03v-0.02h-0.03v-0.02h-0.03v-0.02h-0.03v-0.02h-0.03v-0.02h-0.03v-0.02h-0.03v-0.02h-0.03 v-0.02h-0.03v-0.02h-0.03v-0.02h-0.03v-0.02h-0.03v-0.02h-0.03v-0.02h-0.03v-0.02h-0.03v-0.02h-0.03v-0.02h-0.03v-0.02h-0.03 v-0.02h-0.03v-0.02h-0.03v-0.02h-127l-0.01,0.22v0l-0.01,0.2v0l-8.44,135.05l0.03,0l0,0.02l0.03,0l0,0.02l0.03,0l0,0.02l0.03,0 l0,0.02l0.03,0l0,0.02l0.03,0l0,0.02l0.03,0l0,0.02l0.03,0l0,0.02l0.03,0l0,0.02l0.03,0l0,0.02l0.03,0l0,0.02l0.03,0l0,0.02 l0.03,0l0,0.02l0.03,0l0,0.02l0.03,0l0,0.02l0.03,0l0,0.02l0.03,0l0,0.02l0.03,0l0,0.02l0.03,0l0,0.02l0.03,0l0,0.02l0.03,0 l0,0.02l0.03,0l0,0.02l0.03,0l0,0.02l0.03,0l0,0.02l0.03,0l0,0.02l0.03,0l0,0.02l0.03,0l0,0.02l0.03,0l0,0.02l0.03,0l0,0.02 l0.03,0l0,0.02l0.03,0l0,0.02l0.03,0l0,0.02l0.03,0l0,0.02l0.03,0l0,0.02l0.03,0l0,0.02l0.03,0l0,0.02l0.03,0l0,0.02l0.03,0 l0,0.02l0.03,0l0,0.02l0.03,0l0,0.02l0.03,0l0,0.02l0.03,0l0,0.02l0.03,0l0,0.02l0.03,0l0,0.02l0.03,0l0,0.02l0.03,0l0,0.02 l0.03,0l0,0.02l0.03,0l0,0.02l0.03,0l0,0.02l0.03,0l0,0.02l0.03,0l0,0.02l0.03,0l0,0.02l0.03,0l0,0.02l0.03,0l0,0.02l0.03,0 l0,0.02l0.03,0l0,0.02l0.03,0l0,0.02l0.03,0l0,0.02l0.03,0l0,0.02l0.03,0l0,0.02h0.03l0,0.02h125.21 c10.16,0.21,10.26-9.68,10.26-9.68v-39.85l-1.82-1.05l0.03-0.17l-8.47-4.87v29c0,9.31-7.62,16.93-16.93,16.93h-84.67 c-3.11,0-6.03-0.85-8.55-2.34c-4-3.1-6.6-7.95-6.6-13.38v-84.67c0-9.31,7.62-16.93,16.93-16.93h84.67c3.11,0,6.03,0.85,8.55,2.34 c4,3.1,6.6,7.95,6.6,13.38V160l0.03-0.02v0.04l0.03-0.02v0.04l0.03-0.02v0.04l0.03-0.02v0.04l0.03-0.02v0.04l0.03-0.02v0.04 l0.03-0.02v0.04l0.03-0.02v0.04l0.03-0.02v0.04l0.03-0.02v0.04l0.03-0.02v0.04l0.03-0.02v0.04l0.03-0.02v0.04l0.03-0.02v0.04 l0.03-0.02v0.04l0.03-0.02v0.04l0.03-0.02v0.04l0.03-0.02v0.04l0.03-0.02v0.04l0.03-0.02v0.04l0.03-0.02v0.04l0.03-0.02v0.04 l0.03-0.02v0.04l0.03-0.02v0.04l0.03-0.02v0.04l0.03-0.02v0.04l0.03-0.02v0.04l0.03-0.02v0.04l0.03-0.02v0.04l0.03-0.02v0.04 l0.03-0.02v0.04l0.03-0.02v0.04l0.03-0.02v0.04l0.03-0.02v0.04l0.03-0.02v0.04l0.03-0.02v0.04l0.03-0.02v0.04l0.03-0.02v0.04 l0.03-0.02v0.04l0.03-0.02v0.04l0.03-0.02v0.04l0.03-0.02v0.04l0.03-0.02v0.04l0.03-0.02v0.04l0.03-0.02v0.04l0.03-0.02v0.04 l0.03-0.02v0.04l0.03-0.02v0.04l0.03-0.02v0.04l0.03-0.02v0.04l0.03-0.02v0.04l0.03-0.02v0.04l0.03-0.02v0.04l0.03-0.02v0.04 l0.03-0.02v0.04l0.03-0.02v0.04l0.03-0.02v0.04l0.03-0.02v0.04l0.03-0.02v0.04l0.03-0.02v0.04l0.03-0.02v0.04L584.84,156.34z M464.51,231.97H453.6v-10.91L464.51,231.97z" clip-rule="evenodd"/><linearGradient id="SVGID_00000098220769820683002870000015184023905895911605_" x1="490.499" x2="486.149" y1="179.784" y2="153.973" gradientUnits="userSpaceOnUse"><stop offset="0" stop-color="#62c0b4"/><stop offset="1" stop-color="#008698"/></linearGradient><path fill="url(#SVGID_00000098220769820683002870000015184023905895911605_)" fill-rule="evenodd" d="M509.12,120.32c-0.01-0.01-0.02-0.01-0.03-0.02c-0.01-0.01-0.02-0.01-0.03-0.02c-0.01-0.01-0.02-0.01-0.03-0.02 c-0.01-0.01-0.02-0.01-0.03-0.02c-0.01-0.01-0.02-0.01-0.03-0.02c-0.01-0.01-0.02-0.01-0.03-0.02c-0.01-0.01-0.02-0.01-0.03-0.02 c-0.01-0.01-0.02-0.01-0.03-0.02c-0.01-0.01-0.02-0.01-0.03-0.02c-0.01-0.01-0.02-0.01-0.03-0.02c-0.01-0.01-0.02-0.01-0.03-0.02 c-0.01-0.01-0.02-0.01-0.03-0.02c-0.01-0.01-0.02-0.01-0.03-0.02c-0.01-0.01-0.02-0.01-0.03-0.02c-0.01-0.01-0.02-0.01-0.03-0.02 c-0.01-0.01-0.02-0.01-0.03-0.02c-0.01-0.01-0.02-0.01-0.03-0.02c-0.01-0.01-0.02-0.01-0.03-0.02c-0.01-0.01-0.02-0.01-0.03-0.02 c-0.01-0.01-0.02-0.01-0.03-0.02c-0.01-0.01-0.02-0.01-0.03-0.02c-0.01-0.01-0.02-0.01-0.03-0.02c-0.01-0.01-0.02-0.01-0.03-0.02 c-0.01-0.01-0.02-0.01-0.03-0.02c-0.01-0.01-0.02-0.01-0.03-0.02c-0.01-0.01-0.02-0.01-0.03-0.02c-0.01-0.01-0.02-0.01-0.03-0.02 c-0.01-0.01-0.02-0.01-0.03-0.02c-0.01-0.01-0.02-0.01-0.03-0.02c-0.01-0.01-0.02-0.01-0.03-0.02c-0.01-0.01-0.02-0.01-0.03-0.02 c-0.01-0.01-0.02-0.01-0.03-0.02c-0.01-0.01-0.02-0.01-0.03-0.02c-0.01-0.01-0.02-0.01-0.03-0.02c-0.01-0.01-0.02-0.01-0.03-0.02 c-0.01-0.01-0.02-0.01-0.03-0.02c-0.01-0.01-0.02-0.01-0.03-0.02c-0.01-0.01-0.02-0.01-0.03-0.02c-0.01-0.01-0.02-0.01-0.03-0.02 c-0.01-0.01-0.02-0.01-0.03-0.02c-0.01-0.01-0.02-0.01-0.03-0.02c-0.01-0.01-0.02-0.01-0.03-0.02c-0.01-0.01-0.02-0.01-0.03-0.02 c-0.01-0.01-0.02-0.01-0.03-0.02c-0.01-0.01-0.02-0.01-0.03-0.02c-0.01-0.01-0.02-0.01-0.03-0.02c-0.01-0.01-0.02-0.01-0.03-0.02 c-0.01-0.01-0.02-0.01-0.03-0.02c-0.01-0.01-0.02-0.01-0.03-0.02c-0.01-0.01-0.02-0.01-0.03-0.02c-0.01-0.01-0.02-0.01-0.03-0.02 c-0.01-0.01-0.02-0.01-0.03-0.02c-0.01-0.01-0.02-0.01-0.03-0.02c-0.01-0.01-0.02-0.01-0.03-0.02c-0.01-0.01-0.02-0.01-0.03-0.02 c-0.01-0.01-0.02-0.01-0.03-0.02c-0.01-0.01-0.02-0.01-0.03-0.02c-0.01-0.01-0.02-0.01-0.03-0.02c-0.01-0.01-0.02-0.01-0.03-0.02 c-0.01-0.01-0.02-0.01-0.03-0.02c-1.35-0.92-2.99-1.46-4.74-1.46h-29.63c-4.66,0-8.47,3.81-8.47,8.47v84.67 c0,2.92,1.5,5.5,3.76,7.02c0.01,0.01,0.02,0.01,0.03,0.02c0.01,0.01,0.02,0.01,0.03,0.02c0.01,0.01,0.02,0.01,0.03,0.02 c0.01,0.01,0.02,0.01,0.03,0.02c0.01,0.01,0.02,0.01,0.03,0.02c0.01,0.01,0.02,0.01,0.03,0.02c0.01,0.01,0.02,0.01,0.03,0.02 c0.01,0.01,0.02,0.01,0.03,0.02c0.01,0.01,0.02,0.01,0.03,0.02c0.01,0.01,0.02,0.01,0.03,0.02c0.01,0.01,0.02,0.01,0.03,0.02 c0.01,0.01,0.02,0.01,0.03,0.02c0.01,0.01,0.02,0.01,0.03,0.02c0.01,0.01,0.02,0.01,0.03,0.02c0.01,0.01,0.02,0.01,0.03,0.02 c0.01,0.01,0.02,0.01,0.03,0.02c0.01,0.01,0.02,0.01,0.03,0.02c0.01,0.01,0.02,0.01,0.03,0.02c0.01,0.01,0.02,0.01,0.03,0.02 c0.01,0.01,0.02,0.01,0.03,0.02c0.01,0.01,0.02,0.01,0.03,0.02c0.01,0.01,0.02,0.01,0.03,0.02c0.01,0.01,0.02,0.01,0.03,0.02 c0.01,0.01,0.02,0.01,0.03,0.02c0.01,0.01,0.02,0.01,0.03,0.02c0.01,0.01,0.02,0.01,0.03,0.02s0.02,0.01,0.03,0.02 c0.01,0.01,0.02,0.01,0.03,0.02c0.01,0.01,0.02,0.01,0.03,0.02c0.01,0.01,0.02,0.01,0.03,0.02c0.01,0.01,0.02,0.01,0.03,0.02 c0.01,0.01,0.02,0.01,0.03,0.02c0.01,0.01,0.02,0.01,0.03,0.02c0.01,0.01,0.02,0.01,0.03,0.02c0.01,0.01,0.02,0.01,0.03,0.02 c0.01,0.01,0.02,0.01,0.03,0.02c0.01,0.01,0.02,0.01,0.03,0.02c0.01,0.01,0.02,0.01,0.03,0.02c0.01,0.01,0.02,0.01,0.03,0.02 c0.01,0.01,0.02,0.01,0.03,0.02c0.01,0.01,0.02,0.01,0.03,0.02c0.01,0.01,0.02,0.01,0.03,0.02c0.01,0.01,0.02,0.01,0.03,0.02 c0.01,0.01,0.02,0.01,0.03,0.02c0.01,0.01,0.02,0.01,0.03,0.02c0.01,0.01,0.02,0.01,0.03,0.02c0.01,0.01,0.02,0.01,0.03,0.02 c0.01,0.01,0.02,0.01,0.03,0.02c0.01,0.01,0.02,0.01,0.03,0.02c0.01,0.01,0.02,0.01,0.03,0.02c0.01,0.01,0.02,0.01,0.03,0.02 c0.01,0.01,0.02,0.01,0.03,0.02c0.01,0.01,0.02,0.01,0.03,0.02c0.01,0.01,0.02,0.01,0.03,0.02c0.01,0.01,0.02,0.01,0.03,0.02 c0.01,0.01,0.02,0.01,0.03,0.02c0.01,0.01,0.02,0.01,0.03,0.02c0.01,0.01,0.02,0.01,0.03,0.02c0.01,0.01,0.02,0.01,0.03,0.02 c0.01,0.01,0.02,0.01,0.03,0.02c1.35,0.92,2.99,1.46,4.74,1.46h29.63c4.66,0,8.47-3.81,8.47-8.47v-84.67 C512.87,124.43,511.38,121.84,509.12,120.32z M502.61,210.8h-27.84v-83.45h27.84V210.8z" clip-rule="evenodd"/><linearGradient id="SVGID_00000178904740874547539770000000323810174648413354_" x1="525.173" x2="545.185" y1="117.406" y2="175.264" gradientUnits="userSpaceOnUse"><stop offset="0" stop-color="#62c0b4"/><stop offset="1" stop-color="#008698"/></linearGradient><path fill="url(#SVGID_00000178904740874547539770000000323810174648413354_)" fill-rule="evenodd" d="M566.12,160v-33.87c0-4.66-3.81-8.47-8.47-8.47h-29.63c-4.65,0-8.47,3.81-8.47,8.47V160l38.1,21.92v28.88h-29.63v-29l-8.47-4.87 v33.87c0,4.65,3.81,8.47,8.47,8.47h29.63c4.66,0,8.47-3.81,8.47-8.47v-33.87l-38.1-21.92v-28.89h29.63v29L566.12,160z" clip-rule="evenodd"/><linearGradient id="SVGID_00000141450701560891538970000010079809326530608768_" x1="476.019" x2="496.03" y1="134.406" y2="192.265" gradientUnits="userSpaceOnUse"><stop offset="0" stop-color="#62c0b4"/><stop offset="1" stop-color="#008698"/></linearGradient><path fill="url(#SVGID_00000141450701560891538970000010079809326530608768_)" fill-rule="evenodd" d="M502.62,117.66h-29.63c-4.66,0-8.47,3.81-8.47,8.47v84.67c0,4.66,3.81,8.47,8.47,8.47h29.63c4.66,0,8.47-3.81,8.47-8.47v-84.67 C511.08,121.47,507.27,117.66,502.62,117.66z M502.62,210.8h-29.63v-84.67h29.63V210.8z" clip-rule="evenodd"/><g><g><g><linearGradient id="SVGID_00000123417823402284631610000000711642758551877274_" x1="608.172" x2="658.415" y1="158.736" y2="214.852" gradientTransform="translate(-127.136 -28.558)" gradientUnits="userSpaceOnUse"><stop offset="0" stop-color="#2c9ccf"/><stop offset=".159" stop-color="#2a92c7"/><stop offset=".475" stop-color="#2777b3"/><stop offset=".913" stop-color="#274c95"/><stop offset="1" stop-color="#27438f"/></linearGradient><path fill="url(#SVGID_00000123417823402284631610000000711642758551877274_)" fill-rule="evenodd" d="M574.58,160.03V160l8.47-4.87v-54.4H454.36c-3.42,0.68-6.1,3.37-6.78,6.78V236.2h127.84c4.27-0.52,7.58-4.15,7.58-8.56 c0-0.09,0.02-0.16,0.05-0.22v-40.74l-8.47-4.87v-0.12l0,0v29.12c0,9.31-7.62,16.93-16.93,16.93h-84.67 c-9.31,0-16.93-7.62-16.93-16.93v-84.67c0-9.31,7.62-16.93,16.93-16.93h84.67c9.31,0,16.93,7.62,16.93,16.93L574.58,160.03 L574.58,160.03z M464.51,231.97h-12.7v-12.7L464.51,231.97z" clip-rule="evenodd"/></g></g></g><g><defs><path id="SVGID_00000183244938331703034190000015815935284109348527_" d="M566.12,160v-33.87c0-4.66-3.81-8.47-8.47-8.47h-29.63 c-4.65,0-8.47,3.81-8.47,8.47V160l38.1,21.92v28.88h-29.63v-29l-8.47-4.87v33.87c0,4.65,3.81,8.47,8.47,8.47h29.63 c4.66,0,8.47-3.81,8.47-8.47v-33.87l-38.1-21.92v-28.89h29.63v29L566.12,160z M472.98,118.27c-4.66,0-8.47,3.81-8.47,8.47v84.67 c0,4.66,3.81,8.47,8.47,8.47h29.63c4.66,0,8.47-3.81,8.47-8.47v-84.67c0-4.66-3.81-8.47-8.47-8.47H472.98z M502.62,211.41 h-29.63v-84.67h29.63V211.41z M574.58,160.03V160l8.47-4.87v-54.4H454.36c-3.42,0.68-6.1,3.37-6.78,6.78V236.2h127.84 c4.27-0.52,7.58-4.15,7.58-8.56c0-0.09,0.02-0.16,0.05-0.22v-40.74l-8.47-4.87v-0.12l0,0v29.12c0,9.31-7.62,16.93-16.93,16.93 h-84.67c-9.31,0-16.93-7.62-16.93-16.93v-84.67c0-9.31,7.62-16.93,16.93-16.93h84.67c9.31,0,16.93,7.62,16.93,16.93 L574.58,160.03L574.58,160.03z M464.51,231.97h-12.7v-12.7L464.51,231.97z"/></defs><clipPath id="SVGID_00000132086586872030947390000011644236263396139196_"><use overflow="visible" xlink:href="#SVGID_00000183244938331703034190000015815935284109348527_"/></clipPath><linearGradient id="SVGID_00000052794934183224587720000016777315585156833448_" x1="550.311" x2="537.249" y1="153.545" y2="191.889" gradientUnits="userSpaceOnUse"><stop offset="0" stop-color="#fff"/><stop offset="1" stop-color="#fff" stop-opacity="0"/></linearGradient><path fill="url(#SVGID_00000052794934183224587720000016777315585156833448_)" d="M427.62,149.1c0,0,132.62,7.68,186.11,92.64c53.49,84.96-54.05,79.33-54.05,79.33l-138.19-39.41L427.62,149.1z" clip-path="url(#SVGID_00000132086586872030947390000011644236263396139196_)"/></g><linearGradient id="SVGID_00000113333399035846241310000016320164802112763828_" x1="484.813" x2="499.168" y1="231.789" y2="263.11" gradientUnits="userSpaceOnUse"><stop offset="0" stop-color="#009dda"/><stop offset=".154" stop-color="#0693d2"/><stop offset=".459" stop-color="#1e79bb"/><stop offset=".883" stop-color="#2b4f98"/><stop offset="1" stop-color="#2d4390"/></linearGradient><path fill="url(#SVGID_00000113333399035846241310000016320164802112763828_)" d="M504.75,244.63h-16.28 c0,0-6.51,0.69-7.31,6.63v12.57c0,0,0.8,6.17,6.63,6.86h17.65c5.83-0.69,6.63-6.86,6.63-6.86v-12.57 C511.27,245.31,504.75,244.63,504.75,244.63z M506.35,262.75c0,2.47-2.74,2.33-2.74,2.33h-14c0,0-2.74,0.15-2.74-2.33v-10.01 c0,0,0.23-1.94,2.29-2.17h14.91c2.06,0.23,2.29,2.17,2.29,2.17V262.75z"/><g><linearGradient id="SVGID_00000090989119523165628120000013997999595010771644_" x1="455.762" x2="470.118" y1="245.104" y2="276.425" gradientUnits="userSpaceOnUse"><stop offset="0" stop-color="#009dda"/><stop offset=".154" stop-color="#0693d2"/><stop offset=".459" stop-color="#1e79bb"/><stop offset=".883" stop-color="#2b4f98"/><stop offset="1" stop-color="#2d4390"/></linearGradient><path fill="url(#SVGID_00000090989119523165628120000013997999595010771644_)" d="M447.58,250.22v-5.59h18.6 c0,0,6.13,0.65,6.88,6.24v2.69c0,0-0.75,5.81-6.24,6.45h-19.25v-3.55l5.48-1.72l0,0h12.04c0,0,2.58,0.14,2.58-2.19v-0.28 c0,0-0.22-1.83-2.15-2.04H447.58z"/><linearGradient id="SVGID_00000013887461829990393220000004084930268843937922_" x1="452.495" x2="466.851" y1="246.602" y2="277.922" gradientUnits="userSpaceOnUse"><stop offset="0" stop-color="#009dda"/><stop offset=".154" stop-color="#0693d2"/><stop offset=".459" stop-color="#1e79bb"/><stop offset=".883" stop-color="#2b4f98"/><stop offset="1" stop-color="#2d4390"/></linearGradient><path fill="url(#SVGID_00000013887461829990393220000004084930268843937922_)" d="M447.58,260.28v-5.94h19.77 c0,0,6.51,0.69,7.31,6.63v2.86c0,0-0.8,6.17-6.63,6.86h-20.45v-16.34l5.83-2.63v13.37h12.8c0,0,2.74,0.15,2.74-2.33v-0.3 c0,0-0.23-1.94-2.29-2.17H447.58z"/></g><g><linearGradient id="SVGID_00000154400703109813941520000001131348052276197563_" x1="511.157" x2="525.513" y1="219.715" y2="251.035" gradientUnits="userSpaceOnUse"><stop offset="0" stop-color="#009dda"/><stop offset=".154" stop-color="#0693d2"/><stop offset=".459" stop-color="#1e79bb"/><stop offset=".883" stop-color="#2b4f98"/><stop offset="1" stop-color="#2d4390"/></linearGradient><path fill="url(#SVGID_00000154400703109813941520000001131348052276197563_)" d="M525.66,260.21l-0.65-5.87h13.32 c0,0,6.51,0.69,7.31,6.63v2.86c0,0-0.8,6.17-6.63,6.86h-20.45v-5.6h5.83l0,0h12.8c0,0,2.74,0.15,2.74-2.33v-0.3 c0,0-0.23-1.94-2.29-2.17L525.66,260.21z"/></g><linearGradient id="SVGID_00000111179860151386544150000004291136966984467852_" x1="543.475" x2="557.831" y1="204.903" y2="236.223" gradientUnits="userSpaceOnUse"><stop offset="0" stop-color="#009dda"/><stop offset=".154" stop-color="#0693d2"/><stop offset=".459" stop-color="#1e79bb"/><stop offset=".883" stop-color="#2b4f98"/><stop offset="1" stop-color="#2d4390"/></linearGradient><path fill="url(#SVGID_00000111179860151386544150000004291136966984467852_)" d="M577.34,261.15v1.61 c0,2.47-2.74,2.33-2.74,2.33h-14c0,0-2.74,0.15-2.74-2.33v-10.01c0,0,0.23-1.94,2.29-2.17h14.91c2.06,0.23,2.29,2.17,2.29,2.17 v1.49h5.71v-2.97c-0.8-5.94-7.31-6.63-7.31-6.63h-16.28c0,0-6.51,0.69-7.31,6.63v12.57c0,0,0.8,6.17,6.63,6.86h17.65 c5.83-0.69,6.63-6.86,6.63-6.86v-2.68H577.34z"/><linearGradient id="SVGID_00000163056107310866487820000002882828601751341980_" x1="528.169" x2="534.307" y1="243.813" y2="254.862" gradientUnits="userSpaceOnUse"><stop offset="0" stop-color="#eddc44"/><stop offset=".153" stop-color="#ead042"/><stop offset=".457" stop-color="#e0b03d"/><stop offset=".878" stop-color="#d17934"/><stop offset=".995" stop-color="#cd6832"/></linearGradient><path fill="url(#SVGID_00000163056107310866487820000002882828601751341980_)" d="M534.83,254.34h-9.4 c-1.25-0.54-1.42-1.86-1.42-1.86v-0.29c0-2.36,2.62-2.22,2.62-2.22h12.21c5.22-0.93,5.56-5.34,5.56-5.34h-19.51 c-5.56,0.65-6.32,6.54-6.32,6.54v2.72c0.76,5.67,6.98,6.32,6.98,6.32h0.12l11.99,0.07c2.06,0.23,2.29,2.17,2.29,2.17v0.3v0v0 C540.62,257.02,536.34,254.91,534.83,254.34z"/></g></g></svg>