<svg id="图层_1" data-name="图层 1" xmlns="http://www.w3.org/2000/svg" viewBox="0 0 548.86 127.56"><path d="M306,361.42c-27.75,0-47.65-16.82-50.18-42.07h21c1.79,13.83,13.51,23.14,29.15,23.14,16.18,0,26.63-7,26.63-18.28,0-10.81-9.55-15-20.35-18l-25.51-6.94c-16.89-4.61-26.74-14.81-26.74-32,0-16.66,16.63-33.47,43.94-33.47,36.11,0,46.12,21.32,47.58,35.48h-21c-2.47-11.1-11-16.56-26.55-16.56-14.42,0-22.44,7-22.91,14.42-.56,8.7,8,12.13,14.67,13.95l26.43,7.2c21.19,5.78,31.49,17.51,31.49,35.86a34.09,34.09,0,0,1-10.94,25.42C334.38,357.34,321.68,361.42,306,361.42Zm366.2-123.35V321l-61-82.92h-21V357.21h21V274.29l61,82.92h21v-117h2.1v-2.1Zm-130.37,0V357.21h21V238.07m-62,0-23.12,83.39-23.12-83.39H432.54l-23.13,83.39-23.12-83.39H364.21l34.16,119.14h22.08l23.13-83.39,23.12,83.39h22.08l34.16-119.14ZM169.65,338.29V305.21h63.08V286.28H169.65V257h67.29V238.06H148.62V338.29l-2.1,2.1v16.82H239V338.29Z" transform="translate(-146.52 -233.86)" fill="#0055b8"/></svg>