<?xml version="1.0" encoding="UTF-8"?>
<svg id="_图层_1" data-name="图层 1" xmlns="http://www.w3.org/2000/svg" viewBox="0 0 559.25 155.6">
  <defs>
    <style>
      .cls-1 {
        fill: #3d58c2;
      }
    </style>
  </defs>
  <g>
    <path d="M293.05,75.54c-1.17-.49-1.77-2.04-1.77-4.62,0-6.56.02-10.92.05-12.96-.03-5.12-.05-11.03-.05-17.57v-7.86c0-7.07-3.39-10.66-10.07-10.66h-22.84c.12-.58.68-3.03,2.45-10.58l.04-.16h-8.38s0,.13,0,.13c0,.13-.34,1.64-1.89,8.06-.37,1.83-.52,2.4-.58,2.56h-24.02v8.49h22.04c-1.8,7.71-2.78,11.78-2.9,12.13-.05.29-3.36,14.41-9.84,41.99l-.04.16h8.27l.02-.1c1.51-6.35,2.5-10.54,2.98-12.56,6.21-26.41,9.43-39.98,9.56-40.34l.02-.05c.14-.86.22-1.15.25-1.24h21.67c1.41,0,2.45.21,3.1.62,1.18.6,1.78,1.96,1.78,4.04v38.03c0,2.92.37,5.22,1.1,6.83,1.46,3.17,4.56,4.77,9.2,4.77h9.49v-8.44h-6.42c-1.5,0-2.57-.22-3.2-.67Z"/>
    <path d="M359.83,22.92c0-.72.03-1.3.09-1.73.14-.57.34-.95.6-1.16.19-.21.95-.45,3.51-.45h10.79c2.58,0,3.17.2,3.29.32l.02.02h.03c.59.17.89,1.17.89,2.91v.77h-14.31v8.35h14.31v3.98h-14.31v8.31h14.31v4.11h8.4v-27.91c0-3.14-.39-5.31-1.15-6.43-1.04-1.9-3.64-2.87-7.7-2.87h-18.34c-3.49,0-5.86.68-7.04,2.02-1.2,1.07-1.81,3.49-1.81,7.19v28h8.4v-25.42Z"/>
    <path d="M314.68,39.18c0,2.42.36,4.31,1.05,5.62,1.19,2.32,3.74,3.52,7.57,3.55h24.97v-8.44h-22.49c-1.07,0-1.78-.18-2.14-.57-.41-.27-.62-1.12-.62-2.51v-13.73h25.02c.13,0,.22-.09.22-.22v-8.08h-14.47l-.68-3.66h-8.31l.72,3.66h-13.75v8.08c0,.13.09.22.22.22h2.67v16.08Z"/>
    <path d="M354.35,71.92h30.94v-8.3h-30.94v-4.43h32.4c.13,0,.22-.09.22-.22v-8.08h-73.14v8.3h31.77v4.43h-31.05v8.3h31.05v4.38h-33.13v8.35l74.88.11h.13s0-8.35,0-8.35l-33.13-.11v-4.38Z"/>
    <path d="M442.46,53.15h8.33l-.08-.19c-2.4-5.32-4.1-9.44-5.01-11.64-.36-.88-.58-1.41-.66-1.56-2.14-4.87-2.2-4.91-2.27-4.94h-8.26s7.92,18.26,7.92,18.26l.04.08Z"/>
    <polygon points="466.46 11.14 458.11 11.14 458.11 55.89 429.5 55.89 429.5 64.24 458.11 64.24 458.11 84.65 466.46 84.65 466.46 64.24 473.28 64.24 473.28 55.89 466.46 55.89 466.46 11.14"/>
    <path d="M428.48,26.76h-11.29v-7.32h10.03v-8.31h-28.4v8.08c0,.21.15.22.18.22h9.89v7.32h-11.29v8.3h11.29v49.59h8.31v-49.59h11.29v-8.3Z"/>
    <polygon points="442.46 32.14 450.79 32.14 442.88 12.57 442.84 12.49 434.51 12.49 442.42 32.06 442.46 32.14"/>
    <path d="M398.63,37.7c-.63,26.79-.98,43.7-1.04,46.82v.14s7.63,0,7.63,0v-.13c0-.36.02-.82.05-1.4l.95-45.42v-.14s-7.58,0-7.58,0v.13Z"/>
    <path d="M427.62,45.84c-.1-4.59-.16-7.37-.18-8.14v-.13h-7.58v.13c0,1.17.02,1.87.05,2.13l.91,44.39c.03.17.04.26.04.3v.13h7.63v-.14c-.41-17.38-.69-30.72-.86-38.68Z"/>
    <path d="M501.28,11.14h-8.49v7.86h-9.39v8.31h9.39v19.83c-2.68,1.09-4.37,1.78-4.66,1.91-4.39,1.76-4.61,1.91-4.68,1.95l-.06.04v8.31l9.39-3.9v16.12c0,.7-.15,1.36-.44,1.97-.93,1.81-2.44,2.73-4.49,2.73h-4.47v8.39h5.46c2.42,0,4.66-.52,6.66-1.55,2.31-1.22,3.95-3.05,4.89-5.44.58-1.22.87-3.32.87-6.24v-19.5c.63-.2,2.22-.85,4.84-2.01,4.27-1.73,4.3-1.76,4.33-1.79l.04-.04v-8.18h-.18l-9.03,3.68v-16.29h9.21v-8.31h-9.21v-7.86Z"/>
    <path d="M559.25,84.65l-.2-.22c-10.65-12.04-16.5-18.63-17.4-19.61l2.18-2.62c9.26-11.25,10.7-13.03,10.92-13.37h0c2.75-2.96,4.15-5.72,4.15-8.21,0-.98-.22-1.87-.65-2.64-1.22-2.23-4.03-3.37-8.34-3.37h-9.5v-8.99h18.67v-8.3h-18.67v-6.19h-8.26v6.19h-18.67v8.3h18.67v8.99h-18.53v8.53h31.24c2.06,0,2.21.35,2.22.44-.02.19-.19.61-.92,1.55-6.76,8.24-9.98,12.17-10.54,12.86-2.59-2.94-4.2-4.76-4.8-5.42-3.51-3.98-5.39-6.11-5.61-6.33l-.04-.04h-11.28l16.31,18.45-16.12,19.76-.18.22h11.41l.04-.05c5.66-6.88,9.39-11.42,10.83-13.16.39.43,1.8,2.04,4.23,4.81,4.65,5.19,7.13,7.98,7.37,8.3v.09h11.45Z"/>
  </g>
  <g>
    <path class="cls-1" d="M115.06,66.21c.28-5.73-1.36-11.06-2.65-15.28-.25-.8-.48-1.56-.68-2.27.95-1.43,3.94-5.56,8.95-9.4,4.35-3.33,17.08-10.65,24.67-14.93l-30.29,41.88Z"/>
    <g>
      <path class="cls-1" d="M94.26,32.51c1.51.26,2.84,1.03,3.97,2.3,1.13-1.27,2.46-2.05,3.97-2.3,1.54-.26,2.97.07,4.05.49-.11-.54-.23-1.1-.35-1.67-.6-2.91-1.6-4.91-2.68-6.29-2.53-3.21-7.45-3.21-9.98,0-1.08,1.38-2.08,3.38-2.68,6.29-.12.57-.23,1.13-.35,1.67,1.07-.42,2.51-.75,4.05-.49Z"/>
      <path class="cls-1" d="M109.46,49.63c-.31-3.33-1.3-7.65-2.75-14.49-.75-.43-2.43-1.22-4.22-.91-1.36.23-2.55,1.07-3.54,2.49l-.71,1.02-.71-1.02c-.99-1.42-2.18-2.25-3.54-2.49-1.78-.3-3.47.48-4.22.91-1.45,6.84-2.44,11.17-2.75,14.49,0,0-4.38,10-2.57,17.03,1.81,7.03,13.79,21.59,13.79,21.59,0,0,11.98-14.56,13.79-21.59,1.81-7.03-2.57-17.03-2.57-17.03Z"/>
    </g>
    <g>
      <path class="cls-1" d="M50.52,24.33c7.6,4.28,20.32,11.6,24.67,14.93,5.04,3.86,8,7.98,8.95,9.4-.2.71-.44,1.47-.68,2.27-1.29,4.21-2.93,9.55-2.65,15.28l-30.29-41.88Z"/>
      <path class="cls-1" d="M115.06,66.22c.28-5.73-1.36-11.06-2.65-15.28-.25-.8-.48-1.56-.68-2.27.95-1.43,3.94-5.56,8.95-9.4,4.35-3.33,17.08-10.65,24.67-14.93l-30.29,41.88Z"/>
      <path class="cls-1" d="M147.59,26.4L195.91,0c-.1,6.33-1.65,23.4-15.1,29.5-13.87,4.58-35.71,9.87-44.47,11.97l11.25-15.06Z"/>
      <path class="cls-1" d="M132.56,94.38c-3.64,0-6.49-.73-8.24-2.13-4.39-3.49-11.56-14.29-13.21-16.98l3.75-5.03,21.97,23.83c-1.19.16-2.69.3-4.28.3Z"/>
      <path class="cls-1" d="M150.26,52.03c-8.63,0-17.35-.28-21.47-.44l4.85-6.49c4.02-1.01,28.5-6.97,31.5-7.81,4.45-1.24,14.55-4.09,16.67-4.95l10.84-2.12c-1.72,5.5-7.13,19.2-18.53,20.73-5.37.72-13.4,1.08-23.86,1.08Z"/>
      <path class="cls-1" d="M164.06,68.52c-1.04,0-2.1-.1-3.14-.31-13.06-2.53-31.08-8.43-36.77-10.39l2.54-3.41h43s1.51,0,3.61,0c5.88,0,9.01.02,10.68.04-2.11,4.02-9.51,14.07-19.92,14.07Z"/>
      <path class="cls-1" d="M155.3,80.75c-.11,0-.22,0-.33,0-6.64-.21-26.41-12.16-34.83-17.57l2.21-2.96c8.03,3.37,33.77,10.02,34.9,10.31l13.29,2.91c-3.12,2.66-9.43,7.32-15.24,7.32h0Z"/>
      <path class="cls-1" d="M138.91,89.45c-1.01,0-1.82-.02-2.33-.04l-20.01-21.45,1.77-2.37c5.44,3.67,22.3,13.01,23.07,13.42l13.04,7.2c.13.07.15.18.15.26,0,.16-.1.21-.13.23-4.39,2.39-11.63,2.75-15.55,2.75h0Z"/>
      <path class="cls-1" d="M122.95,119.78c-2.01-.49-8.34-4.91-9.49-8.27-1.27-3.73-6.92-25.09-7.76-28.98l3.61-4.84c4.88,10.19,13.69,28.46,14.45,30.4.8,2.02.21,9.87-.81,11.69Z"/>
      <path class="cls-1" d="M113.62,137.04c-1.04-1.1-2.69-2.89-4.33-4.8-4.32-5.04-4.92-6.71-5-7.1-.5-2.38-1.95-23.8-2.36-37.56l1.89-2.53c1.63,6.76,6.01,24.59,6.77,27.35.91,3.28,5.28,6.63,7,7.85.38,9.91-2.45,14.88-3.97,16.8Z"/>
      <path class="cls-1" d="M48.32,26.4L0,0c.1,6.33,1.65,23.4,15.1,29.5,13.87,4.58,35.71,9.87,44.47,11.97l-11.25-15.06Z"/>
      <path class="cls-1" d="M63.35,94.38c3.64,0,6.49-.73,8.24-2.13,4.39-3.49,11.56-14.29,13.21-16.98l-3.75-5.03-21.97,23.83c1.19.16,2.69.3,4.28.3Z"/>
      <path class="cls-1" d="M45.65,52.03c8.63,0,17.35-.28,21.47-.44l-4.85-6.49c-4.02-1.01-28.5-6.97-31.5-7.81-4.45-1.24-14.55-4.09-16.67-4.95l-10.84-2.12c1.72,5.5,7.13,19.2,18.53,20.73,5.37.72,13.4,1.08,23.86,1.08Z"/>
      <path class="cls-1" d="M31.85,68.52c1.04,0,2.1-.1,3.14-.31,13.06-2.53,31.08-8.43,36.77-10.39l-2.54-3.41H26.22s-1.51,0-3.61,0c-5.88,0-9.01.02-10.68.04,2.11,4.02,9.51,14.07,19.92,14.07Z"/>
      <path class="cls-1" d="M40.61,80.75c.11,0,.22,0,.33,0,6.64-.21,26.41-12.16,34.83-17.57l-2.21-2.96c-8.03,3.37-33.77,10.02-34.9,10.31l-13.29,2.91c3.12,2.66,9.43,7.32,15.24,7.32h0Z"/>
      <path class="cls-1" d="M57,89.45c1.01,0,1.82-.02,2.33-.04l20.01-21.45-1.77-2.37c-5.44,3.67-22.3,13.01-23.07,13.42l-13.04,7.2c-.13.07-.15.18-.15.26,0,.16.1.21.13.23,4.39,2.39,11.63,2.75,15.55,2.75h0Z"/>
      <path class="cls-1" d="M72.96,119.78c2.01-.49,8.34-4.91,9.49-8.27,1.27-3.73,6.92-25.09,7.76-28.98l-3.61-4.84c-4.88,10.19-13.69,28.46-14.45,30.4-.8,2.02-.21,9.87.81,11.69Z"/>
      <path class="cls-1" d="M82.29,137.04c1.04-1.1,2.69-2.89,4.33-4.8,4.32-5.04,4.92-6.71,5-7.1.5-2.38,1.95-23.8,2.36-37.56l-1.89-2.53c-1.63,6.76-6.01,24.59-6.77,27.35-.91,3.28-5.28,6.63-7,7.85-.38,9.91,2.45,14.88,3.97,16.8Z"/>
      <path class="cls-1" d="M97.46,155.6c-1.9-2.02-6.88-8.56-7.48-10.86-.37-1.45-.72-5.33-.96-10.7,4.49-5.26,5.31-7.25,5.53-8.28.62-2.93,1.39-26.39,1.68-35.28.42.59,1.75,2.37,1.75,2.37,0,0,1.18-1.58,1.7-2.26.29,9.16,1.05,32.26,1.67,35.16.21,1.01.99,3.25,5.26,8.29-.24,3-.64,6.69-1.23,9.87-.84,4.5-5.93,10.04-7.92,11.69Z"/>
    </g>
  </g>
  <g>
    <path d="M270.17,106.94h10.21l-16.72,36.69h-12.58l-17.05-36.5,10.32.03,13.33,28.04,12.49-28.26Z"/>
    <path d="M368.84,118.17c0-.31-.01-.69-.04-1.17-.03-.47-.24-.94-.63-1.4s-.95-.8-1.66-1.05c-.72-.24-1.76-.36-3.15-.36h-10.65c-1.47,0-2.53.15-3.17.44-.64.3-1.15.75-1.52,1.37-.37.62-.42,1.43-.13,2.43.29,1,.7,1.73,1.22,2.16.52.44,2.32.66,5.4.66h10.45c.97,0,2.41.04,4.33.11,1.92.07,3.51.34,4.77.79,1.26.46,2.27,1.21,3.04,2.26.76,1.05,1.3,2.76,1.62,5.13.32,2.37.27,4.72-.14,7.05-.24,1.29-.56,2.3-.94,3.04-.38.73-.85,1.36-1.4,1.88s-1.4,1-2.54,1.45c-1.15.45-2.83.67-5.05.67h-17.25c-2.83,0-4.96-.19-6.37-.58-1.42-.38-2.39-.74-2.94-1.06-.54-.32-1.01-.73-1.41-1.22-.4-.49-.73-1.19-.99-2.08-.26-.89-.39-1.56-.39-1.99l-.2-4.62,8.75.11c.08,1.11.22,1.86.45,2.24.22.38.47.69.75.91.28.23.74.4,1.38.54.64.13,1.7.2,3.17.2h10.45l2.52-.24c1.59-.11,2.62-.33,3.09-.67.47-.34.58-1.53.32-3.57-.11-.75-.36-1.39-.75-1.91-.39-.52-1.06-.78-1.99-.78h-20.74c-.51,0-1.13-.07-1.88-.2-.74-.13-1.47-.4-2.18-.79-.71-.4-1.32-.9-1.83-1.52-.51-.62-.93-1.47-1.27-2.56s-.51-2.35-.51-3.79v-4.91c0-.98.16-1.9.49-2.74.33-.84.72-1.58,1.17-2.22.46-.64,1.12-1.18,1.99-1.64.87-.46,2.21-.83,4.05-1.13,1.83-.29,4.1-.45,6.81-.47h13.36c1.42,0,2.79.1,4.14.31,1.34.2,2.38.5,3.13.89.74.39,1.48,1.03,2.22,1.93s1.1,2.07,1.1,3.54l.2,4.56h-8.67Z"/>
    <path d="M454.46,106.94h13.19l17.69,36.64h-9.84l-3.52-7.26h-21.58l-3.38,7.26h-9.98l17.42-36.64ZM453.7,129.42h14.98l-7.44-15.51-7.55,15.51Z"/>
    <path d="M544.07,106.94h8.72v36.64h-8.72v-36.64Z"/>
  </g>
</svg>