<svg version="1.2" xmlns="http://www.w3.org/2000/svg" viewBox="0 0 179 222" width="179" height="222"><defs><clipPath clipPathUnits="userSpaceOnUse" id="cp1"><path d="m32.97 11.99h109.89c12.09 0 21.98 9.89 21.98 21.98v109.89c0 12.09-9.89 21.98-21.98 21.98h-109.89c-12.09 0-21.98-9.89-21.98-21.98v-109.89c0-12.09 9.89-21.98 21.98-21.98z"/></clipPath><linearGradient id="P" gradientUnits="userSpaceOnUse"/><linearGradient id="g1" x2="1" href="#P" gradientTransform="matrix(-5.65,-33.5,19.357,-3.265,125.16,91.9)"><stop stop-color="#62c0b4"/><stop offset="1" stop-color="#008698"/></linearGradient><linearGradient id="g2" x2="1" href="#P" gradientTransform="matrix(-73.77,-99.75,103.597,-76.615,97.18,100.67)"><stop stop-color="#009dda"/><stop offset=".24" stop-color="#088ccc"/><stop offset=".72" stop-color="#1e60a7"/><stop offset="1" stop-color="#2d4390"/></linearGradient><linearGradient id="g3" x2="1" href="#P" gradientTransform="matrix(-5.64,-33.5,19.35,-3.258,55.7,103.6)"><stop stop-color="#62c0b4"/><stop offset="1" stop-color="#008698"/></linearGradient><linearGradient id="g4" x2="1" href="#P" gradientTransform="matrix(25.98,75.1,-51.143,17.693,100.7,22.64)"><stop stop-color="#62c0b4"/><stop offset="1" stop-color="#008698"/></linearGradient><linearGradient id="g5" x2="1" href="#P" gradientTransform="matrix(25.97,75.09,-51.13,17.683,36.91,44.71)"><stop stop-color="#62c0b4"/><stop offset="1" stop-color="#008698"/></linearGradient><linearGradient id="g6" x2="1" href="#P" gradientTransform="matrix(65.2,72.83,-75.543,67.629,43.42,39.22)"><stop stop-color="#2c9ccf"/><stop offset=".24" stop-color="#2b8bc2"/><stop offset=".72" stop-color="#285fa3"/><stop offset="1" stop-color="#27438f"/></linearGradient><clipPath clipPathUnits="userSpaceOnUse" id="cp2"><path d="m164.83 77.96v-0.04q0 0.04 0 0.04zm0-0.04c0.01-1.49 0.01-43.95 0.01-43.95 0-12.09-9.89-21.98-21.98-21.98h-109.89c-12.09 0-21.98 9.89-21.98 21.98v109.89c0 12.09 9.89 21.98 21.98 21.98h109.87c12.09 0 21.98-9.89 21.98-21.98v-37.64l10.99 6.32v52.88q-0.05 0.12-0.06 0.29c0 5.72-4.29 10.43-9.83 11.11h-165.92v-167.02c0.88-4.43 4.37-7.92 8.8-8.8h167.02v70.6zm-93.4-54.15c6.04 0 10.99 4.95 10.99 10.99v109.89c0 6.05-4.95 10.99-10.99 10.99h-38.46c-6.04 0-10.99-4.95-10.99-10.99v-109.89c0-6.05 4.95-10.99 10.99-10.99zm0 10.99h-38.46v109.88h38.46zm71.42 36.84v-37.63h-38.46v37.49l49.45 28.44v43.95c0 6.04-4.95 10.99-10.99 10.99h-38.46c-6.05 0-10.99-4.95-10.99-10.99v-43.95l10.99 6.32v37.63h38.46v-37.49l-49.45-28.44v-43.95c0-6.04 4.95-10.99 10.99-10.99h38.46c6.04 0 10.99 4.95 10.99 10.99v43.95zm-120.88 99.73l-16.48-16.48v16.48z"/></clipPath><linearGradient id="g7" x2="1" href="#P" gradientTransform="matrix(-16.95,49.76,-85.161,-29.009,133.33,69.55)"><stop stop-color="#fff" stop-opacity="1"/><stop offset="1" stop-color="#fff" stop-opacity="0"/></linearGradient><linearGradient id="g8" x2="1" href="#P" gradientTransform="matrix(18.63,40.65,-43.799,20.073,48.32,171.1)"><stop stop-color="#009dda"/><stop offset=".24" stop-color="#088ccc"/><stop offset=".72" stop-color="#1e60a7"/><stop offset="1" stop-color="#2d4390"/></linearGradient><linearGradient id="g9" x2="1" href="#P" gradientTransform="matrix(18.63,40.65,-49.638,22.749,10.62,188.38)"><stop stop-color="#009dda"/><stop offset=".24" stop-color="#088ccc"/><stop offset=".72" stop-color="#1e60a7"/><stop offset="1" stop-color="#2d4390"/></linearGradient><linearGradient id="g10" x2="1" href="#P" gradientTransform="matrix(18.63,40.65,-49.629,22.745,6.38,190.32)"><stop stop-color="#009dda"/><stop offset=".24" stop-color="#088ccc"/><stop offset=".72" stop-color="#1e60a7"/><stop offset="1" stop-color="#2d4390"/></linearGradient><linearGradient id="g11" x2="1" href="#P" gradientTransform="matrix(18.63,40.64,-55.935,25.641,82.51,155.43)"><stop stop-color="#009dda"/><stop offset=".24" stop-color="#088ccc"/><stop offset=".72" stop-color="#1e60a7"/><stop offset="1" stop-color="#2d4390"/></linearGradient><linearGradient id="g12" x2="1" href="#P" gradientTransform="matrix(18.63,40.65,-43.799,20.073,124.46,136.2)"><stop stop-color="#009dda"/><stop offset=".24" stop-color="#088ccc"/><stop offset=".72" stop-color="#1e60a7"/><stop offset="1" stop-color="#2d4390"/></linearGradient><linearGradient id="g13" x2="1" href="#P" gradientTransform="matrix(7.97,14.34,-16.684,9.273,104.59,186.7)"><stop stop-color="#eddc44"/><stop offset=".19" stop-color="#e8cb41"/><stop offset=".58" stop-color="#dc9e3a"/><stop offset=".99" stop-color="#cd6832"/></linearGradient></defs><style>.a{fill:#d7e3e3}.b{fill:url(#g1)}.c{fill:url(#g2)}.d{fill:url(#g3)}.e{fill:url(#g4)}.f{fill:url(#g5)}.g{fill:url(#g6)}.h{fill:url(#g7)}.i{fill:url(#g8)}.j{fill:url(#g9)}.k{fill:url(#g10)}.l{fill:url(#g11)}.m{fill:url(#g12)}.n{fill:url(#g13)}</style><g clip-path="url(#cp1)"><path fill-rule="evenodd" class="a" d="m127.3 150.4c-1.3 0-2.4-1.1-2.4-2.5 0-1.4 1.1-2.5 2.4-2.5 1.4 0 2.5 1.1 2.5 2.5 0 1.4-1.1 2.5-2.5 2.5zm1.3-2.5c0-0.7-0.6-1.3-1.3-1.3-0.7 0-1.2 0.6-1.2 1.3 0 0.7 0.6 1.2 1.2 1.2 0.7 0 1.3-0.5 1.3-1.2z"/><path fill-rule="evenodd" class="a" d="m107.8 153.6l-3.9 3.9h-8.4l-4.7-4.7h-28.5l-2.6 2.6h-52.5l-11-10.8h-28.5l-2.6 2.6h-63.3v-1.3h62.8l1.3-1.3 1.3-1.2h29.5l11 10.7h51.5l1.3-1.3 1.3-1.2h29.5l4.7 4.6h7.4l3.9-3.9h14.7l3.7-3.7c0.2 0.4 0.5 0.7 0.9 0.9l-4.1 4.1c0 0-14.7 0-14.7 0z"/><path fill-rule="evenodd" class="a" d="m118.5 150.2c-1.4 0-2.5-1.1-2.5-2.5 0-1.4 1.1-2.5 2.5-2.5 1.3 0 2.4 1.1 2.4 2.5 0 1.4-1.1 2.5-2.4 2.5zm1.2-2.5c0-0.7-0.5-1.3-1.2-1.3-0.7 0-1.3 0.6-1.3 1.3 0 0.7 0.6 1.2 1.3 1.2 0.7 0 1.2-0.5 1.2-1.2z"/><path fill-rule="evenodd" class="a" d="m115 145.1h-1.8l-4.4 4.4h-5.4l-4.5-4.4h-29.8l-5.7-5.8h-12.6l-2.6 2.6h-36.2l-10.9-10.8h-32.5l-2.5 2.6h-59.4v-1.2h58.9l1.3-1.4 1.2-1.2h33.5l11 10.8h35.1l2.5-2.6h13.7l5.7 5.7h29.8l4.5 4.5h4.4l4.4-4.5h2.8l2.3 2.3c-0.4 0.2-0.7 0.5-0.9 0.9l-1.9-1.9z"/><path fill-rule="evenodd" class="a" d="m106.1 146.6c-1.4 0-2.5-1.1-2.5-2.5 0-1.4 1.1-2.5 2.5-2.5 1.3 0 2.4 1.1 2.4 2.5 0 1.4-1.1 2.5-2.4 2.5zm1.2-2.5c0-0.7-0.5-1.2-1.2-1.2-0.7 0-1.3 0.5-1.3 1.2 0 0.7 0.6 1.2 1.3 1.2 0.7 0 1.2-0.5 1.2-1.2z"/><path fill-rule="evenodd" class="a" d="m103 141.8h-32.4l-5.7-5.8h-17l-2.5 2.6h-30.4l-11-10.8h-38l-2.6 2.6h-55.3v-1.2h54.8l1.3-1.4 1.3-1.2h39l11 10.8h29.3l2.6-2.6h18l5.7 5.7h32.4l2.3 2.3c-0.4 0.2-0.7 0.5-0.9 0.9l-1.9-1.9z"/><path fill-rule="evenodd" class="a" d="m98.9 154.3c-1.4 0-2.5-1.1-2.5-2.4 0-1.4 1.2-2.5 2.5-2.5 1.4 0 2.5 1.1 2.5 2.5 0 1.3-1.1 2.4-2.5 2.4zm1.3-2.4c0-0.7-0.6-1.3-1.3-1.3-0.7 0-1.2 0.6-1.2 1.3 0 0.7 0.5 1.2 1.2 1.2 0.7 0 1.3-0.5 1.3-1.2z"/><path fill-rule="evenodd" class="a" d="m95.9 149.5h-29l-5.7-5.7h-8.9l-2.6 2.6h-39.9l-10.9-10.8h-28.6l-2.5 2.6h-63.4v-1.3h62.8l1.4-1.3 1.2-1.2h29.6l10.9 10.7h38.9l2.6-2.5h9.9l5.7 5.7h29l2.2 2.3c-0.4 0.1-0.7 0.5-0.8 0.8l-1.9-1.9z"/><path fill-rule="evenodd" class="a" d="m56.7 151.5c-1.3 0-2.4-1.1-2.4-2.5 0-1.3 1.1-2.5 2.4-2.5 1.4 0 2.5 1.2 2.5 2.5 0 1.4-1.1 2.5-2.5 2.5zm1.3-2.5c0-0.7-0.6-1.2-1.3-1.2-0.7 0-1.2 0.5-1.2 1.2 0 0.7 0.6 1.2 1.2 1.2 0.7 0 1.3-0.5 1.3-1.2z"/><path fill-rule="evenodd" class="a" d="m136.2 140.1c-1.3 0-2.4-1.1-2.4-2.5 0-1.3 1.1-2.4 2.4-2.4 1.4 0 2.5 1.1 2.5 2.4 0 1.4-1.1 2.5-2.5 2.5zm1.3-2.5c0-0.7-0.6-1.2-1.3-1.2-0.7 0-1.2 0.5-1.2 1.2 0 0.7 0.6 1.3 1.2 1.3 0.7 0 1.3-0.6 1.3-1.3z"/><path fill-rule="evenodd" class="a" d="m148.6 137.6c0 1.4-1.1 2.5-2.4 2.5-1.4 0-2.5-1.1-2.5-2.5 0-1.3 1.1-2.4 2.5-2.4 1.3 0 2.4 1.1 2.4 2.4zm-2.4-1.2c-0.7 0-1.3 0.5-1.3 1.2 0 0.7 0.6 1.3 1.3 1.3 0.7 0 1.2-0.6 1.2-1.3 0-0.7-0.5-1.2-1.2-1.2z"/><path fill-rule="evenodd" class="a" d="m-15.3 119.3h-3.1-67.7v-1.2h67.7 3.1 3.5l4.9 4.8h10.5 3.9 2.7l10.1 10h7 7.5 7l2-1.9h3.7 2.9 19.2l4 3.9h14.4 2.8l2 2h14.4 8.7l4.6 4.6h11.3l3.2-3.1 0.5 1.2-3.2 3.2h-12.3l-4.6-4.7h-8.2-15l-2-2h-2.2-14.9l-4.1-3.9h-18.6-2.9-3.2l-2 2h-7.5-7.5-7.5l-10.1-10.1h-2.2-3.9-11l-4.9-4.8h-3z"/><path fill-rule="evenodd" class="a" d="m-15.3 115.2h-1.4-69.4v-1.2h69.4 1.4 5.2l4.9 4.8h11.2 3.2 3.3l10.2 10h3.7 10.7 3.8l2-1.9h4.6 2.9 19.2l4 3.9h2.4 12 3.8l2.7 2.6h7.1 7.4 10.3l3.8 3.8h5.1 0.4l4.6-4.7h9.1l3 3-0.5 1.3-3-3.1h-8.1l-4.6 4.7h-0.9-5.6l-3.8-3.7h-9.8-7.4-7.6l-2.7-2.7h-3.3-12-2.9l-4.1-3.9h-18.6-2.9-4.1l-2 1.9h-4.3-10.7-4.3l-10.1-10h-2.8-3.2-11.7l-4.9-4.8h-4.7z"/><path fill-rule="evenodd" class="a" d="m138.4 128.4c0 1.4-1.1 2.5-2.4 2.5-1.4 0-2.5-1.1-2.5-2.5 0-1.3 1.1-2.4 2.5-2.4 1.3 0 2.4 1.1 2.4 2.4zm-2.4-1.2c-0.7 0-1.3 0.6-1.3 1.2 0 0.7 0.6 1.3 1.3 1.3 0.6 0 1.2-0.6 1.2-1.3 0-0.6-0.6-1.2-1.2-1.2z"/><path fill-rule="evenodd" class="a" d="m130.9 129.1l-4.3 4.2h-3.1l-2.4-3h-24.3l-3.2-3.8h-20.3l-3.5-4.4h-44.6l-7.2-8.8h-19.9l-4.8-5.9h-69v-1.2h69.6l4.8 5.9h19.9l7.2 8.8h44.5l3.6 4.3h20.3l3.1 3.9h24.4l2.4 3h2l4.3-4.3h3.9v1.3h-3.4z"/><path fill-rule="evenodd" class="a" d="m130.9 121.3l-4.7 4.7h-27.4l-3.4-4.1h-19.5l-4.3-5.2h-42.9l-6.8-8.5h-21.6l-5.8-7.1h-69.1v-1.2h69.7l5.8 7.1h21.5l6.9 8.4h42.9l4.2 5.2h19.6l3.4 4.2h26.2l4.8-4.7h4v1.2h-3.5z"/><path fill-rule="evenodd" class="a" d="m138.4 120.7c0 1.3-1.1 2.4-2.4 2.4-1.4 0-2.5-1.1-2.5-2.4 0-1.4 1.1-2.5 2.5-2.5 1.3 0 2.4 1.1 2.4 2.5zm-2.4-1.3c-0.7 0-1.3 0.6-1.3 1.3 0 0.7 0.6 1.2 1.3 1.2 0.6 0 1.2-0.5 1.2-1.2 0-0.7-0.6-1.3-1.2-1.3z"/><path fill-rule="evenodd" class="a" d="m148.6 128.4c0 1.4-1.1 2.5-2.4 2.5-1.4 0-2.5-1.1-2.5-2.5 0-1.3 1.1-2.4 2.5-2.4 1.3 0 2.4 1.1 2.4 2.4zm-2.4-1.2c-0.7 0-1.3 0.6-1.3 1.2 0 0.7 0.6 1.3 1.3 1.3 0.7 0 1.2-0.6 1.2-1.3 0-0.6-0.5-1.2-1.2-1.2z"/><path fill-rule="evenodd" class="a" d="m123.5 120.7c0 1.3-1.1 2.4-2.4 2.4-1.4 0-2.5-1.1-2.5-2.4 0-1.4 1.1-2.5 2.5-2.5 1.3 0 2.4 1.1 2.4 2.5zm-2.4-1.3c-0.7 0-1.3 0.6-1.3 1.3 0 0.7 0.6 1.2 1.3 1.2 0.6 0 1.2-0.5 1.2-1.2 0-0.7-0.6-1.3-1.2-1.3z"/><path fill-rule="evenodd" class="a" d="m114.3 120.7c0 1.3-1.1 2.4-2.4 2.4-1.4 0-2.5-1.1-2.5-2.4 0-1.4 1.1-2.5 2.5-2.5 1.3 0 2.4 1.1 2.4 2.5zm-2.4-1.3c-0.7 0-1.3 0.6-1.3 1.3 0 0.7 0.6 1.2 1.3 1.2 0.7 0 1.2-0.5 1.2-1.2 0-0.7-0.5-1.3-1.2-1.3z"/><path fill-rule="evenodd" class="a" d="m91.1 101.2h-49.2l-6.7-8.2h-19.3l-7.4-9.1h-72.3v-1.3h72.9l7.4 9.2h19.3l6.6 8.1h49.2l16.4 20.2h2.2v1.2h-2.8l-16.3-20.1z"/><path fill-rule="evenodd" class="a" d="m102 118.4c0 1.3-1.1 2.4-2.5 2.4-1.3 0-2.4-1.1-2.4-2.4 0-1.4 1.1-2.5 2.4-2.5 1.4 0 2.5 1.1 2.5 2.5zm-2.5-1.3c-0.6 0-1.2 0.6-1.2 1.3 0 0.7 0.5 1.2 1.2 1.2 0.7 0 1.3-0.5 1.3-1.2 0-0.7-0.6-1.3-1.3-1.3z"/><path fill-rule="evenodd" class="a" d="m96.4 115.5h-16.3l-2.8-3.5h-43.6l-6.7-8.2h-19.2l-7.4-9.1h-72.4v-1.2h72.9l7.4 9.1h19.3l6.7 8.2h43.6l2.8 3.5h16.3l1.9 2.3-1 0.8-1.5-1.9z"/><path fill-rule="evenodd" class="a" d="m88.1 109.3c0 1.4-1.1 2.5-2.5 2.5-1.3 0-2.4-1.1-2.4-2.5 0-1.3 1.1-2.4 2.4-2.4 1.4 0 2.5 1.1 2.5 2.4zm-2.5-1.2c-0.7 0-1.2 0.6-1.2 1.2 0 0.7 0.5 1.3 1.2 1.3 0.7 0 1.3-0.6 1.3-1.3 0-0.6-0.6-1.2-1.3-1.2z"/><path fill-rule="evenodd" class="a" d="m82.6 106.5h-43.7l-6.6-8.2h-19.3l-7.4-9.1h-72.4v-1.2h73l7.4 9.1h19.2l6.7 8.1h43.7l1.8 2.4-1 0.7-1.4-1.8z"/><path fill-rule="evenodd" class="a" d="m62.5 93.8c0 1.3-1.1 2.4-2.4 2.4-1.4 0-2.5-1.1-2.5-2.4 0-1.4 1.1-2.5 2.5-2.5 1.3 0 2.4 1.1 2.4 2.5zm-2.4-1.3c-0.7 0-1.3 0.6-1.3 1.3 0 0.7 0.6 1.2 1.3 1.2 0.6 0 1.2-0.5 1.2-1.2 0-0.7-0.6-1.3-1.2-1.3z"/><path fill-rule="evenodd" class="a" d="m49.1 90.3h-6.1l-15.3-18.8h-52.2c-1.4 0-2.5-1.1-2.5-2.5 0-1.4 1.1-2.5 2.5-2.5h13.3c0.7 0 1.3-0.5 1.3-1.2 0-0.7-0.6-1.2-1.3-1.2h-15.7l-6.6 8.1h-34.1v-1.2h33.5l6.6-8.2h16.3c1.4 0 2.5 1.1 2.5 2.5 0 1.3-1.1 2.5-2.5 2.5h-13.3c-0.7 0-1.2 0.5-1.2 1.2 0 0.7 0.5 1.2 1.2 1.2h52.8l15.3 18.9h6.1l3.3 4h5.4v1.3h-6z"/><path fill-rule="evenodd" class="a" d="m48 95.4c0 1.4-1.2 2.5-2.5 2.5-1.4 0-2.5-1.1-2.5-2.5 0-1.3 1.1-2.5 2.5-2.5 1.3 0 2.5 1.2 2.5 2.5zm-2.5-1.2c-0.7 0-1.3 0.5-1.3 1.2 0 0.7 0.6 1.3 1.3 1.3 0.7 0 1.2-0.6 1.2-1.3 0-0.7-0.5-1.2-1.2-1.2z"/><path fill-rule="evenodd" class="a" d="m26.4 77.2h-88.2v-1.2h88.8l15.3 18.8h1.6v1.2h-2.2l-15.3-18.8z"/><path fill-rule="evenodd" class="a" d="m138.4 111.3c0 1.3-1.1 2.5-2.4 2.5-1.4 0-2.5-1.2-2.5-2.5 0-1.4 1.1-2.5 2.5-2.5 1.3 0 2.4 1.1 2.4 2.5zm-2.4-1.3c-0.7 0-1.3 0.6-1.3 1.3 0 0.7 0.6 1.2 1.3 1.2 0.6 0 1.2-0.5 1.2-1.2 0-0.7-0.6-1.3-1.2-1.3z"/><path fill-rule="evenodd" class="a" d="m15.9 55.5h-77.8l0.6-1.2h77.8l3.3 4.1h5.5v1.2h-6.1l-3.3-4.1z"/><path fill-rule="evenodd" class="a" d="m148.6 110.9c0 1.4-1.1 2.5-2.4 2.5-1.4 0-2.5-1.1-2.5-2.5 0-1.3 1.1-2.4 2.5-2.4 1.3 0 2.4 1.1 2.4 2.4zm-2.4-1.2c-0.7 0-1.3 0.5-1.3 1.2 0 0.7 0.6 1.3 1.3 1.3 0.7 0 1.2-0.6 1.2-1.3 0-0.7-0.5-1.2-1.2-1.2z"/><path fill-rule="evenodd" class="a" d="m62.2 78.6h10.5l6.7 8.1h20.6l16.7 20.6h12.6l3.6-4.5h3.7l6.1 7.5h2v1.2h-2.6l-6.1-7.4h-2.5l-3.6 4.4h-13.8l-16.7-20.5h-20.6l-6.7-8.2h-10.5l-16.4-20.2h-23v-1.2h23.6l16.4 20.2z"/><path fill-rule="evenodd" class="a" d="m129.7 101.8c0 1.3-1.1 2.4-2.5 2.4-1.4 0-2.5-1.1-2.5-2.4 0-1.4 1.1-2.5 2.5-2.5 1.4 0 2.5 1.1 2.5 2.5zm-2.5-1.3c-0.7 0-1.2 0.6-1.2 1.3 0 0.7 0.5 1.2 1.2 1.2 0.7 0 1.2-0.5 1.2-1.2 0-0.7-0.5-1.3-1.2-1.3z"/><path fill-rule="evenodd" class="a" d="m157.4 110.9c0 1.4-1.1 2.5-2.5 2.5-1.4 0-2.5-1.1-2.5-2.5 0-1.3 1.1-2.4 2.5-2.4 1.4 0 2.5 1.1 2.5 2.4zm-2.5-1.2c-0.7 0-1.2 0.5-1.2 1.2 0 0.7 0.5 1.3 1.2 1.3 0.7 0 1.2-0.6 1.2-1.3 0-0.7-0.5-1.2-1.2-1.2z"/><path fill-rule="evenodd" class="a" d="m143.7 98.1h-27.7l-13.2-16.3h-12.6v-24.8l-18.6-23v-14.8l-22.4-27.4 1-0.8 22.6 27.8v14.7l18.7 23v24h11.9l13.2 16.3h27.6l10.1 12.5-0.9 0.7-9.7-11.9z"/><path fill-rule="evenodd" class="a" d="m140.2 69.3c0 1.4-1.1 2.5-2.5 2.5-1.4 0-2.5-1.1-2.5-2.5 0-1.3 1.1-2.5 2.5-2.5 1.4 0 2.5 1.2 2.5 2.5zm-2.5-1.2c-0.7 0-1.2 0.5-1.2 1.2 0 0.7 0.5 1.3 1.2 1.3 0.7 0 1.2-0.6 1.2-1.3 0-0.7-0.5-1.2-1.2-1.2z"/><path fill-rule="evenodd" class="a" d="m85 25.1l17.1 21.2v19.2h11.9l13.3 16.3h27.6l8.8 10.9v51.4l5.2 6.4-0.9 0.8-5.5-6.8v-51.4l-8.2-10.1h-27.6l-13.3-16.3h-12.5v-20l-17.2-21.1v-19.5l-23.8-29.4 0.9-0.8 24.2 29.7zm3.4-4.2l17.2 21.2v19.2h11.9l13.2 16.3h27.7l8.8 10.9v51.4l5.2 6.4-1 0.8-5.4-6.8v-51.4l-8.2-10.1h-27.6l-13.3-16.3h-12.5v-20l-17.2-21.1v-19.5l-23.8-29.4 0.9-0.8 24.1 29.7c0 0 0 19.5 0 19.5zm3.9-4.1l17.2 21.1v19.2h11.8l13.3 16.3h27.6l8.8 10.9v51.4l5.2 6.4-0.9 0.8-5.5-6.8v-51.4l-8.2-10h-27.6l-13.3-16.4h-12.5v-20l-17.1-21.1v-19.5l-23.9-29.4 1-0.8 24.1 29.7zm-10.6 12.8l17.2 21.1v19.2h11.9l13.2 16.3h27.7l8.8 10.9v51.4l5.2 6.4-1 0.8-5.5-6.8v-51.4l-8.1-10h-27.7l-13.2-16.4h-12.5v-20l-17.2-21.1v-19.5l-23.9-29.4 1-0.7 24.1 29.6z"/><path fill-rule="evenodd" class="a" d="m154.9 120.3c0 1.3-1.1 2.5-2.4 2.5-1.4 0-2.5-1.2-2.5-2.5 0-1.4 1.1-2.5 2.5-2.5 1.3 0 2.4 1.1 2.4 2.5zm-2.4-1.2c-0.7 0-1.3 0.5-1.3 1.2 0 0.7 0.6 1.2 1.3 1.2 0.7 0 1.2-0.5 1.2-1.2 0-0.7-0.5-1.2-1.2-1.2z"/><path fill-rule="evenodd" class="a" d="m67.3 73.5c0 1.3-1.1 2.4-2.4 2.4-1.4 0-2.5-1.1-2.5-2.4 0-1.4 1.1-2.5 2.5-2.5 1.3 0 2.4 1.1 2.4 2.5zm-2.4-1.3c-0.7 0-1.3 0.6-1.3 1.3 0 0.6 0.6 1.2 1.3 1.2 0.6 0 1.2-0.6 1.2-1.2 0-0.7-0.6-1.3-1.2-1.3z"/><path fill-rule="evenodd" class="a" d="m84 80.3c0 1.4-1.1 2.5-2.5 2.5-1.4 0-2.5-1.1-2.5-2.5 0-1.3 1.1-2.4 2.5-2.4 1.4 0 2.5 1.1 2.5 2.4zm-2.5-1.2c-0.7 0-1.2 0.6-1.2 1.2 0 0.7 0.5 1.3 1.2 1.3 0.7 0 1.2-0.6 1.2-1.3 0-0.6-0.5-1.2-1.2-1.2z"/><path fill-rule="evenodd" class="a" d="m80.9 76l-13.9-17.1v-4.7l-21.2-26.1h-121.9v-1.2h122.5l21.8 26.8v4.8l13.9 17.1v2.9h-1.2v-2.5z"/><path fill-rule="evenodd" class="a" d="m10.6 59.9h-73.4v-1.2h73.4c1.4 0 2.5 1.1 2.5 2.5 0 1.3-1.1 2.4-2.5 2.4h-13.3c-0.7 0-1.3 0.6-1.3 1.3 0 0.7 0.6 1.2 1.3 1.2h41.1l16.4 20.2h10.5l6.7 8.2h20.6l16.7 20.5h33.3v8l3.3 4.1-1 0.8-3.6-4.4v-7.3h-32.6l-16.7-20.5h-20.6l-6.6-8.1h-10.6l-16.4-20.2h-40.5c-1.4 0-2.5-1.1-2.5-2.5 0-1.4 1.1-2.5 2.5-2.5h13.3c0.7 0 1.2-0.5 1.2-1.2 0-0.7-0.5-1.3-1.2-1.3z"/><path fill-rule="evenodd" class="a" d="m50.6 56.8h-24.9l-5.6-6.8h-84.1v-1.2h84.7l5.6 6.8h24.8l13.2 16.1-1 0.8-12.7-15.7z"/><path fill-rule="evenodd" class="a" d="m54 52.8h-26.5l-5.6-6.9h-84.1v-1.2h84.7l5.6 6.9h26.5l9.7 11.8-1 0.8-9.3-11.4z"/><path fill-rule="evenodd" class="a" d="m44.8 35.2h-26l-3.6 3.6h-87.1v-1.2h86.6l3.6-3.6h27.1l8.2 10.1-0.9 0.8-7.9-9.7z"/><path fill-rule="evenodd" class="a" d="m67.3 65.1c0 1.4-1.1 2.5-2.5 2.5-1.3 0-2.4-1.1-2.4-2.5 0-1.3 1.1-2.4 2.4-2.4 1.4 0 2.5 1.1 2.5 2.4zm-2.5-1.2c-0.6 0-1.2 0.5-1.2 1.2 0 0.7 0.5 1.3 1.2 1.3 0.7 0 1.3-0.6 1.3-1.3 0-0.7-0.6-1.2-1.3-1.2z"/><path fill-rule="evenodd" class="a" d="m39.8 41.8c0 1.4-1.1 2.5-2.4 2.5-1.4 0-2.5-1.1-2.5-2.5 0-1.3 1.1-2.4 2.5-2.4 1.3 0 2.4 1.1 2.4 2.4zm-2.4-1.2c-0.7 0-1.3 0.6-1.3 1.2 0 0.7 0.6 1.3 1.3 1.3 0.6 0 1.2-0.6 1.2-1.3 0-0.6-0.6-1.2-1.2-1.2z"/><path fill-rule="evenodd" class="a" d="m-70.5 41.2h106.2v1.3h-106.2z"/><path fill-rule="evenodd" class="a" d="m56.6 45.8c0 1.3-1.1 2.4-2.4 2.4-1.4 0-2.5-1.1-2.5-2.4 0-1.4 1.1-2.5 2.5-2.5 1.3 0 2.4 1.1 2.4 2.5zm-2.4-1.3c-0.7 0-1.3 0.6-1.3 1.3 0 0.7 0.6 1.2 1.3 1.2 0.6 0 1.2-0.5 1.2-1.2 0-0.7-0.6-1.3-1.2-1.3z"/><path fill-rule="evenodd" class="a" d="m13.5 32.1c0 1.4-1.1 2.5-2.5 2.5-1.3 0-2.5-1.1-2.5-2.5 0-1.4 1.1-2.5 2.5-2.5 1.4 0 2.5 1.1 2.5 2.5zm-2.5-1.2c-0.7 0-1.2 0.5-1.2 1.2 0 0.7 0.5 1.2 1.2 1.2 0.7 0 1.3-0.5 1.3-1.2 0-0.7-0.6-1.2-1.3-1.2z"/><path fill-rule="evenodd" class="a" d="m75.2 55.8c0 1.4-1.1 2.5-2.4 2.5-1.4 0-2.5-1.1-2.5-2.5 0-1.3 1.1-2.5 2.5-2.5 1.3 0 2.4 1.2 2.4 2.5zm-2.4-1.2c-0.7 0-1.3 0.5-1.3 1.2 0 0.7 0.6 1.3 1.3 1.3 0.7 0 1.2-0.6 1.2-1.3 0-0.7-0.5-1.2-1.2-1.2z"/><path fill-rule="evenodd" class="a" d="m85.5 60.7c0 1.3-1.1 2.4-2.4 2.4-1.4 0-2.5-1.1-2.5-2.4 0-1.4 1.1-2.5 2.5-2.5 1.3 0 2.4 1.1 2.4 2.5zm-2.4-1.3c-0.7 0-1.3 0.6-1.3 1.3 0 0.7 0.6 1.2 1.3 1.2 0.6 0 1.2-0.5 1.2-1.2 0-0.7-0.6-1.3-1.2-1.3z"/><path fill-rule="evenodd" class="a" d="m72.1 52.5l-14.5-18v-13.9l-13.6-16.7h-36.3l-7.9 9.7h-27l-3.7-3.6h-86.5v-1.3h87l3.7 3.7h25.9l7.9-9.7h37.5l14.2 17.5v13.9l14.6 17.9v2.5h-1.3v-2z"/><path fill-rule="evenodd" class="a" d="m-1.9 6.3h-22.1l-3.6-3.6h-87.1v1.2h86.6l3.6 3.7h23.2l7.9-9.7h41.9l19.4 23.8v17.7l14.5 17.9v2h1.3v-2.4l-14.6-17.9v-17.7l-20-24.7h-43.1l-7.9 9.7z"/><path fill-rule="evenodd" class="a" d="m110.1 28.7c0 1.4-1.1 2.5-2.5 2.5-1.3 0-2.4-1.1-2.4-2.5 0-1.4 1.1-2.5 2.4-2.5 1.4 0 2.5 1.1 2.5 2.5zm-2.5-1.2c-0.7 0-1.2 0.5-1.2 1.2 0 0.7 0.5 1.2 1.2 1.2 0.7 0 1.3-0.5 1.3-1.2 0-0.7-0.6-1.2-1.3-1.2z"/><path fill-rule="evenodd" class="a" d="m100.5 11.1l13.9 17.2v4.7l10.3 12.7v1.9l-11.6-14.2v-4.7l-13.9-17.1v-2.9h1.3v2.4z"/><path fill-rule="evenodd" class="a" d="m96.4 15.8v-50.9h1.2v50.5l9.4 11.6-0.9 0.8-9.7-12z"/><path fill-rule="evenodd" class="a" d="m136.1 63.4c0 1.3-1.2 2.4-2.5 2.4-1.4 0-2.5-1.1-2.5-2.4 0-1.4 1.1-2.5 2.5-2.5 1.3 0 2.5 1.1 2.5 2.5zm-2.5-1.3c-0.7 0-1.3 0.6-1.3 1.3 0 0.6 0.6 1.2 1.3 1.2 0.7 0 1.2-0.6 1.2-1.2 0-0.7-0.5-1.3-1.2-1.3z"/><path fill-rule="evenodd" class="a" d="m133 61.7v-34.1c0-1.4 1.1-2.5 2.4-2.5 1.4 0 2.5 1.1 2.5 2.5v13.3c0 0.7 0.6 1.3 1.3 1.3 0.6 0 1.2-0.6 1.2-1.3v-15.7l-8.1-6.6v-34.1h1.2v33.5l8.1 6.6v16.3c0 1.4-1.1 2.5-2.4 2.5-1.4 0-2.5-1.1-2.5-2.5v-13.3c0-0.7-0.6-1.2-1.2-1.2-0.7 0-1.3 0.5-1.3 1.2v34.1z"/><path fill-rule="evenodd" class="a" d="m144.5 62.7v-73.3h1.2v73.3c0 1.4-1.1 2.5-2.4 2.5-1.4 0-2.5-1.1-2.5-2.5v-13.3c0-0.7-0.5-1.3-1.2-1.3-0.7 0-1.3 0.6-1.3 1.3v18.5l-1.2-0.6v-17.9c0-1.4 1.1-2.5 2.5-2.5 1.3 0 2.4 1.1 2.4 2.5v13.3c0 0.7 0.6 1.2 1.3 1.2 0.7 0 1.2-0.5 1.2-1.2z"/><path fill-rule="evenodd" class="a" d="m128.4 46.6c0 1.4-1.1 2.5-2.5 2.5-1.3 0-2.5-1.1-2.5-2.5 0-1.3 1.1-2.4 2.5-2.4 1.4 0 2.5 1.1 2.5 2.4zm-2.5-1.2c-0.7 0-1.2 0.6-1.2 1.2 0 0.7 0.5 1.3 1.2 1.3 0.7 0 1.3-0.6 1.3-1.3 0-0.6-0.6-1.2-1.3-1.2z"/><path fill-rule="evenodd" class="a" d="m149.6 65.1l3.4 4.2h27.6l8.9 10.8v51.4l5.2 6.5-1 0.7-5.5-6.7v-51.5l-8.1-10h-27.7l-4-5v-65.2h1.2v64.8z"/><path fill-rule="evenodd" class="a" d="m129.8 29.7v-26l-3.7-3.6v-87.1h1.3v86.6l3.6 3.6v27.1l-4 3.3-0.8-1 3.6-2.9z"/><path fill-rule="evenodd" class="a" d="m125.3 36.6c-1.4 0-2.5-1.1-2.5-2.5 0-1.4 1.1-2.5 2.5-2.5 1.4 0 2.5 1.1 2.5 2.5 0 1.4-1.1 2.5-2.5 2.5zm1.2-2.5c0-0.7-0.5-1.2-1.2-1.2-0.7 0-1.2 0.5-1.2 1.2 0 0.7 0.5 1.2 1.2 1.2 0.7 0 1.2-0.5 1.2-1.2z"/><path fill-rule="evenodd" class="a" d="m107.8 160.3l-3.9 3.9h-8.4l-4.7-4.7h-28.5l-2.6 2.6h-52.5l-11-10.8h-28.5l-2.6 2.6h-63.3v-1.3h62.8l1.3-1.3 1.3-1.2h29.5l11 10.7h51.5l1.3-1.3 1.3-1.2h29.5l4.7 4.6h7.4l3.9-3.9h19.7l6.6-6.5h7.5l10.8-10.8v-19.6h1.2v20.1l-11.5 11.5h-7.5l-6.6 6.6h-19.7z"/><path fill-rule="evenodd" class="a" d="m159.5 62.4c0-1.4 1.1-2.5 2.5-2.5 1.4 0 2.5 1.1 2.5 2.5 0 1.3-1.1 2.5-2.5 2.5-1.4 0-2.5-1.2-2.5-2.5zm2.5 1.2c0.7 0 1.3-0.5 1.3-1.2 0-0.7-0.6-1.3-1.3-1.3-0.7 0-1.2 0.6-1.2 1.3 0 0.7 0.5 1.2 1.2 1.2z"/><path fill-rule="evenodd" class="a" d="m156.3 42.9l-3.9-3.9v-8.5l4.7-4.6v-28.6l-2.6-2.5v-52.6l10.8-10.9v-28.6l-2.6-2.5v-63.4h1.3v62.9l1.3 1.3 1.2 1.2v29.6l-10.7 11v51.5l1.3 1.3 1.2 1.2v29.6l-4.6 4.7v7.4l3.9 3.9v14.7l3.7 3.7c-0.4 0.1-0.7 0.4-0.9 0.8l-4.1-4c0 0 0-14.7 0-14.7z"/><path fill-rule="evenodd" class="a" d="m158.7 54.2c0-1.4 1.1-2.5 2.4-2.5 1.4 0 2.5 1.1 2.5 2.5 0 1.3-1.1 2.5-2.5 2.5-1.3 0-2.4-1.2-2.4-2.5zm2.4 1.2c0.7 0 1.3-0.5 1.3-1.2 0-0.7-0.6-1.3-1.3-1.3-0.7 0-1.2 0.6-1.2 1.3 0 0.7 0.5 1.2 1.2 1.2z"/><path fill-rule="evenodd" class="a" d="m160.4 52.6v-14.2l4.4-4.4v-29.8l5.8-5.7v-12.7l-2.6-2.5v-36.2l10.8-11v-32.4l-2.6-2.6v-59.4h1.2v58.9l1.4 1.3 1.2 1.3v33.4l-10.8 11v35.2l2.6 2.5v13.7l-5.7 5.7v29.8l-4.5 4.4v13.1l-1.2 0.6z"/><path fill-rule="evenodd" class="a" d="m155.6 34c0-1.4 1.1-2.5 2.4-2.5 1.4 0 2.5 1.1 2.5 2.5 0 1.3-1.1 2.4-2.5 2.4-1.3 0-2.4-1.1-2.4-2.4zm2.4 1.2c0.7 0 1.3-0.5 1.3-1.2 0-0.7-0.6-1.3-1.3-1.3-0.7 0-1.2 0.6-1.2 1.3 0 0.7 0.5 1.2 1.2 1.2z"/><path fill-rule="evenodd" class="a" d="m160.4 30.9v-28.9l5.7-5.8v-8.9l-2.6-2.5v-39.9l10.8-11v-28.5l-2.6-2.6v-63.3h1.3v62.8l1.3 1.3 1.2 1.2v29.6l-10.7 11v38.9l2.5 2.5v9.9l-5.7 5.8v28.9l-2.3 2.3c-0.1-0.4-0.5-0.7-0.8-0.9l1.9-1.9z"/><path fill-rule="evenodd" class="a" d="m49.3 21.3c0 1.3-1.2 2.5-2.5 2.5-1.4 0-2.5-1.2-2.5-2.5 0-1.4 1.1-2.5 2.5-2.5 1.3 0 2.5 1.1 2.5 2.5zm-2.5-1.2c-0.7 0-1.3 0.5-1.3 1.2 0 0.7 0.6 1.2 1.3 1.2 0.7 0 1.2-0.5 1.2-1.2 0-0.7-0.5-1.2-1.2-1.2z"/><path fill-rule="evenodd" class="a" d="m3.3 22h14.5 8.6l4.7-4.6h11.3l3.1 3.1 0.5-1.2-3.1-3.1h-12.3l-4.7 4.6h-8.1-15l0.5 1.2z"/><path fill-rule="evenodd" class="a" d="m124.9 22.1v-26l-3.6-3.6v-87.1h1.2v86.6l3.6 3.6v27.1l-4 3.3-0.8-1 3.6-2.9z"/><path fill-rule="evenodd" class="a" d="m120.4 29c-1.3 0-2.5-1.1-2.5-2.5 0-1.3 1.2-2.4 2.5-2.4 1.4 0 2.5 1.1 2.5 2.4 0 1.4-1.1 2.5-2.5 2.5zm1.3-2.5c0-0.6-0.6-1.2-1.3-1.2-0.7 0-1.2 0.6-1.2 1.2 0 0.7 0.5 1.3 1.2 1.3 0.7 0 1.3-0.6 1.3-1.3z"/><path fill-rule="evenodd" class="a" d="m120.1 14.6v-26l-3.6-3.6v-87.1h1.2v86.6l3.7 3.6v27.1l-4.1 3.2-0.8-0.9 3.6-2.9z"/><path fill-rule="evenodd" class="a" d="m115.7 21.5c-1.4 0-2.5-1.2-2.5-2.5 0-1.4 1.1-2.5 2.5-2.5 1.3 0 2.4 1.1 2.4 2.5 0 1.3-1.1 2.5-2.4 2.5zm1.2-2.5c0-0.7-0.6-1.3-1.3-1.3-0.6 0-1.2 0.6-1.2 1.3 0 0.7 0.6 1.2 1.2 1.2 0.7 0 1.3-0.5 1.3-1.2z"/><path fill-rule="evenodd" class="a" d="m157.4 147.4c0 1.4-1.1 2.5-2.5 2.5-1.4 0-2.5-1.1-2.5-2.5 0-1.3 1.1-2.4 2.5-2.4 1.4 0 2.5 1.1 2.5 2.4zm-2.5-1.2c-0.7 0-1.2 0.5-1.2 1.2 0 0.7 0.5 1.3 1.2 1.3 0.7 0 1.2-0.6 1.2-1.3 0-0.7-0.5-1.2-1.2-1.2z"/><path fill-rule="evenodd" class="a" d="m108.5 163.8l-3.9 3.9h-10.1l-4.7-4.7h-28.5l-2.6 2.6h-52.5l-11-10.8h-26.4l-2.6 2.6h-65.4v-1.2h64.9l1.3-1.4 1.2-1.2h27.5l11 10.8h51.5l1.3-1.4 1.3-1.2h29.5l4.7 4.7h9.1l3.9-3.9h23.7l3.3-3.3h7.5l10.8-10.8 1.2 0.5-11.5 11.5h-7.5l-3.3 3.3h-23.7z"/></g><path fill-rule="evenodd" class="b" d="m156.2 79.5v-44c0-3.7-2-7.1-4.9-9.1q0 0-0.1 0 0 0 0 0 0 0 0-0.1 0 0-0.1 0 0 0 0 0 0 0-0.1-0.1 0 0 0 0 0 0 0 0-0.1 0-0.1 0 0 0 0-0.1 0 0-0.1 0 0 0 0 0 0 0 0-0.1-0.1 0-0.1 0 0 0 0 0 0 0-0.1-0.1 0 0 0 0 0 0 0 0-0.1 0-0.1 0 0 0 0-0.1 0 0-0.1 0 0 0 0 0 0 0 0-0.1-0.1 0-0.1 0 0 0 0 0 0 0-0.1-0.1 0 0 0 0 0 0 0 0-0.1 0-0.1 0 0 0 0-0.1 0 0-0.1 0 0 0 0 0 0 0 0-0.1-0.1 0-0.1 0 0 0 0 0 0 0-0.1-0.1 0 0 0 0 0 0 0 0-0.1 0-0.1 0 0 0 0-0.1 0 0-0.1 0 0 0 0 0 0 0 0-0.1-0.1 0-0.1 0 0 0 0 0 0 0-0.1-0.1 0 0 0 0 0 0 0 0-0.1 0-0.1 0 0 0 0-0.1 0 0-0.1 0 0 0 0 0 0 0 0-0.1-0.1 0-0.1 0 0 0 0 0 0 0-0.1-0.1 0 0 0 0 0 0 0 0 0 0-0.1 0 0 0 0-0.1c-1.8-1.2-3.9-1.9-6.2-1.9h-38.4c-6.1 0-11 5-11 11v44h0.1v0.1h0.1l0.1 0.1 0.1 0.1h0.1v0.1h0.1l0.1 0.1 0.1 0.1h0.1v0.1h0.1l0.1 0.1 0.1 0.1h0.1v0.1h0.1l0.1 0.1 0.1 0.1h0.1v0.1h0.1l0.1 0.1 0.1 0.1h0.1v0.1h0.1l0.1 0.1 0.1 0.1 47.1 27.1v37.2h-36.1v-36l-0.1-0.1-0.1-0.1h-0.1v-0.1h-0.1l-0.1-0.1-0.1-0.1h-0.1v-0.1h-0.1l-0.1-0.1-0.1-0.1h-0.1v-0.1h-0.1l-0.1-0.1-0.1-0.1h-0.1v-0.1h-0.1l-0.1-0.1-0.1-0.1h-0.1v-0.1h-0.1l-0.1-0.1-0.1-0.1h-0.1v-0.1h-0.1l-11-6.4v44c0 3.8 1.9 7.1 4.9 9.1q0 0 0 0 0 0.1 0 0.1 0.1 0 0.1 0 0 0 0 0 0 0 0.1 0.1 0 0 0 0 0 0 0 0 0.1 0 0.1 0.1 0 0 0 0 0 0 0.1 0 0 0 0 0 0 0.1 0 0.1 0.1 0 0.1 0 0 0 0 0 0 0 0.1 0.1 0 0 0 0 0 0 0 0 0.1 0 0.1 0.1 0 0 0 0 0 0 0.1 0 0 0 0 0 0 0.1 0 0.1 0.1 0 0.1 0 0 0 0 0 0 0 0.1 0.1 0 0 0 0 0 0 0 0 0.1 0 0.1 0.1 0 0 0 0 0 0 0.1 0 0 0 0 0 0 0.1 0 0.1 0.1 0 0.1 0 0 0 0 0 0 0 0.1 0.1 0 0 0 0 0 0 0 0 0.1 0 0.1 0.1 0 0 0 0 0 0 0.1 0 0 0 0 0 0 0.1 0 0.1 0.1 0 0.1 0 0 0 0 0 0 0 0.1 0.1 0 0 0 0 0 0 0 0 0.1 0 0.1 0.1 0 0 0 0 0 0 0.1 0 0 0 0 0 0 0.1 0 0.1 0.1 0 0.1 0 0 0 0 0 0 0 0.1 0.1 0 0 0 0 0 0 0 0 0.1 0 0.1 0.1 0 0 0 0 0 0 0.1 0c1.7 1.2 3.8 1.9 6.1 1.9h38.5c6 0 11-4.9 11-11v-43.9h-0.1v-0.1h-0.1v-0.1h-0.1l-0.1-0.1h-0.1v-0.1h-0.1v-0.1h-0.1l-0.1-0.1h-0.1v-0.1h-0.1v-0.1h-0.1l-0.1-0.1h-0.1v-0.1h-0.1v-0.1h-0.1l-0.1-0.1h-0.1v-0.1h-0.1v-0.1h-0.1l-0.1-0.1h-0.1v-0.1h-0.1v-0.1h-0.1l-0.1-0.1h-0.1l-47.1-27.2v-37.2h36.1v36.1h0.1 0.1v0.1h0.1v0.1h0.1l0.1 0.1h0.1v0.1h0.1v0.1h0.1l0.1 0.1h0.1v0.1h0.1v0.1h0.1l0.1 0.1h0.1v0.1h0.1v0.1h0.1l0.1 0.1h0.1v0.1h0.1v0.1h0.1l0.1 0.1h0.1v0.1h0.1v0.1h0.1l0.1 0.1c0 0 11 6.3 11 6.3z"/><path fill-rule="evenodd" class="c" d="m178.3 73.4l-11 6.3h-0.1v-0.1 0.1-0.1h-0.1v-0.1l-0.1 0.1v-0.1h-0.1v-0.1h-0.1v-0.1 0.1-0.1h-0.1v-0.1l-0.1 0.1v-0.1h-0.1v-0.1h-0.1v-0.1 0.1-0.1h-0.1v-0.1l-0.1 0.1v-0.1h-0.1v-0.1h-0.1v-0.1 0.1-0.1h-0.1v-0.1l-0.1 0.1v-0.1h-0.1v-0.1h-0.1v-0.1 0.1-0.1h-0.1v-0.1l-0.1 0.1v-0.1h-0.1v-0.1h-0.1v-0.1 0.1-0.1h-0.1v-0.1l-0.1 0.1v-0.1h-0.1v-0.1h-0.1v-43.9c0-7.1-3.3-13.4-8.5-17.4-3.3-1.9-7.1-3-11.1-3h-109.9c-12.1 0-22 9.8-22 21.9v110.2c0 7 3.4 13.3 8.6 17.4 3.2 1.9 7 3 11.1 3h109.9c12.1 0 22-9.9 22-22v-37.6l11 6.3v0.2l2.3 1.4v51.7c0 0-0.1 12.8-13.3 12.5h-162.5-0.1v-0.1h-0.1v-0.1h-0.1v-0.1h-0.1-0.1v-0.1h-0.1v-0.1h-0.1v-0.1h-0.1-0.1v-0.1h-0.1v-0.1h-0.1v-0.1h-0.1-0.1v-0.1h-0.1v-0.1h-0.1v-0.1h-0.1-0.1v-0.1h-0.1v-0.1h-0.1v-0.1h-0.1-0.1v-0.1h-0.1v-0.1h-0.1v-0.1h-0.1l10.9-175.5 0.1-0.3v-0.3h164.7v0.1h0.1v0.1h0.1v0.1h0.1 0.1v0.1h0.1v0.1h0.1v0.1h0.1 0.1v0.1h0.1v0.1h0.1v0.1h0.1 0.1v0.1h0.1v0.1h0.1v0.1h0.1 0.1v0.1h0.1v0.1h0.1v0.1h0.1 0.1v0.1h0.1v0.1h0.1v0.1h0.1 0.1v0.1 70.6zm-170.4 83.7v14.2h14.1z"/><path fill-rule="evenodd" class="d" d="m84.7 35.5v109.9c0 6.1-4.9 11-10.9 11h-38.5c-2.3 0-4.4-0.7-6.2-1.9q0 0 0 0 0 0 0 0-0.1-0.1-0.1-0.1 0 0 0 0 0 0-0.1 0 0 0 0-0.1 0 0 0 0-0.1 0-0.1 0 0 0 0 0 0-0.1-0.1-0.1 0 0 0 0 0 0 0 0-0.1-0.1-0.1-0.1 0 0 0 0 0 0-0.1 0 0 0 0-0.1 0 0 0 0-0.1 0-0.1 0 0 0 0 0 0-0.1-0.1-0.1 0 0 0 0 0 0 0 0-0.1-0.1-0.1-0.1 0 0 0 0 0 0-0.1 0 0 0 0-0.1 0 0 0 0-0.1 0-0.1 0 0 0 0 0 0-0.1-0.1-0.1 0 0 0 0 0 0 0 0-0.1-0.1-0.1-0.1 0 0 0 0 0 0-0.1 0 0 0 0-0.1 0 0 0 0-0.1 0-0.1 0 0 0 0 0 0-0.1-0.1-0.1 0 0 0 0 0 0 0 0-0.1-0.1-0.1-0.1 0 0 0 0 0 0-0.1 0 0 0 0-0.1 0 0 0 0-0.1 0-0.1 0 0 0 0 0 0-0.1-0.1-0.1 0 0 0 0 0 0 0 0-0.1-0.1-0.1-0.1 0 0 0 0 0 0-0.1 0 0 0 0-0.1 0 0 0 0-0.1 0-0.1 0 0 0 0 0 0-0.1-0.1-0.1c-2.9-2-4.8-5.3-4.8-9.1v-109.9c0-6 4.9-11 11-11h38.4c2.3 0 4.4 0.7 6.2 1.9q0 0.1 0 0.1 0 0 0 0 0.1 0 0.1 0 0 0 0 0 0 0.1 0.1 0.1 0 0 0 0 0 0 0 0 0.1 0.1 0.1 0.1 0 0 0 0 0.1 0 0.1 0 0 0.1 0 0.1 0 0 0 0 0.1 0 0.1 0 0 0 0 0 0 0.1 0.1 0.1 0 0 0 0 0 0 0 0 0.1 0.1 0.1 0.1 0 0 0 0 0.1 0 0.1 0 0 0.1 0 0.1 0 0 0 0 0.1 0 0.1 0 0 0 0 0 0 0.1 0.1 0.1 0 0 0 0 0 0 0 0 0.1 0.1 0.1 0.1 0 0 0 0 0 0 0.1 0 0 0.1 0 0.1 0 0 0 0 0.1 0 0.1 0 0 0 0 0 0 0.1 0.1 0.1 0 0 0 0 0 0 0 0 0.1 0.1 0.1 0.1 0 0 0 0 0 0 0.1 0 0 0.1 0 0.1 0 0 0 0 0.1 0 0.1 0 0 0 0 0 0 0.1 0.1 0.1 0 0 0 0 0 0 0 0 0.1 0.1 0.1 0.1 0 0 0 0 0 0 0.1 0 0 0.1 0 0.1 0 0 0 0 0.1 0 0.1 0 0 0 0 0 0 0.1 0.1 0.1 0 0 0 0 0 0 0 0 0.1 0.1 0.1 0.1 0 0 0 0 0.1 0 0.1 0c2.9 2 4.8 5.3 4.8 9.1zm-13.3 0h-36.1v108.3h36.1z"/><path fill-rule="evenodd" class="e" d="m153.8 77.9v-43.9c0-6.1-4.9-11-11-11h-38.4c-6.1 0-11 4.9-11 11v43.9l49.4 28.5v37.4h-38.4v-37.6l-11-6.3v43.9c0 6.1 4.9 11 11 11h38.4c6.1 0 11-4.9 11-11v-43.9l-49.4-28.4v-37.5h38.4v37.6z"/><path fill-rule="evenodd" class="f" d="m82.4 34v109.9c0 6-4.9 10.9-11 10.9h-38.4c-6.1 0-11-4.9-11-10.9v-109.9c0-6.1 4.9-11 11-11h38.4c6.1 0 11 4.9 11 11zm-11 0h-38.4v109.8h38.4z"/><path fill-rule="evenodd" class="g" d="m164.8 78v-0.1q0 0.1 0 0.1zm0-0.1c0-1.5 0-43.9 0-43.9 0-12.1-9.9-22-21.9-22h-109.9c-12.1 0-22 9.9-22 22v109.9c0 12 9.9 21.9 22 21.9h109.8c12.1 0 22-9.9 22-21.9v-37.7l11 6.3v52.9q0 0.1-0.1 0.3c0 5.7-4.2 10.4-9.8 11.1h-165.9v-167c0.9-4.4 4.4-7.9 8.8-8.8h167v70.6zm-142.8 93.4l-16.5-16.5v16.5z"/><g clip-path="url(#cp2)"><path class="h" d="m-25.9 63.8c0 0 172.1 9.9 241.5 120.2 69.5 110.3-70.1 103-70.1 103l-179.4-51.2 8-172z"/></g><path class="i" d="m74.2 187.8h-21.1c0 0-8.5 0.8-9.5 8.6v16.3c0 0 1 8 8.6 8.9h22.9c7.5-0.9 8.6-8.9 8.6-8.9v-16.3c-1.1-7.8-9.5-8.6-9.5-8.6zm2.1 23.5c0 3.2-3.6 3-3.6 3h-18.2c0 0-3.5 0.2-3.5-3v-13c0 0 0.3-2.5 3-2.8h19.3c2.7 0.3 3 2.8 3 2.8z"/><path class="j" d="m0 195v-7.3h24.1c0 0 8 0.9 9 8.1v3.5c0 0-1 7.6-8.1 8.4h-25v-4.6l7.1-2.2h15.6c0 0 3.4 0.1 3.4-2.9v-0.4c0 0-0.3-2.3-2.8-2.6 0 0-23.3 0-23.3 0z"/><path class="k" d="m0 208.1v-7.7h25.6c0 0 8.5 0.8 9.5 8.6v3.7c0 0-1 8-8.6 8.9h-26.5v-21.2l7.6-3.4v17.3h16.6c0 0 3.5 0.2 3.5-3v-0.4c0 0-0.3-2.5-2.9-2.8h-24.8z"/><path class="l" d="m101.3 208l-0.8-7.6h17.3c0 0 8.4 0.8 9.5 8.6v3.7c0 0-1.1 8-8.6 8.9h-26.6v-7.3h24.2c0 0 3.6 0.2 3.6-3v-0.4c0 0-0.3-2.5-3-2.8z"/><path class="m" d="m168.4 209.2v2.1c0 3.2-3.6 3-3.6 3h-18.1c0 0-3.6 0.2-3.6-3v-13c0 0 0.3-2.5 3-2.8h19.3c2.7 0.3 3 2.8 3 2.8v1.9h7.4v-3.9c-1-7.7-9.5-8.6-9.5-8.6h-21.1c0 0-8.5 0.9-9.5 8.6v16.4c0 0 1 8 8.6 8.9h22.9c7.6-0.9 8.6-8.9 8.6-8.9v-3.5c0 0-7.4 0-7.4 0z"/><path class="n" d="m113.2 200.4h-12.2c-1.6-0.7-1.8-2.5-1.8-2.5v-0.3c0-3.1 3.4-2.9 3.4-2.9h15.8c6.8-1.2 7.2-6.9 7.2-6.9h-25.3c-7.2 0.8-8.2 8.4-8.2 8.4v3.6c1 7.3 9.1 8.2 9.1 8.2h0.1l15.6 0.1c2.6 0.3 2.9 2.8 2.9 2.8v0.4c0.9-7.4-4.6-10.2-6.6-10.9z"/></svg>