<svg xmlns="http://www.w3.org/2000/svg" role="img" viewBox="-2.23 10.27 401.70 110.70"><g fill-rule="evenodd" stroke="none"><path fill="#045cac" d="M251.966 22.764c.027 2.605.025 4.736-.003 4.736-.029 0-.988-.899-2.133-1.999-1.144-1.099-2.141-1.999-2.216-2-.074 0-.328-.229-.562-.508-.235-.279-.457-.476-.495-.439-.037.038-.313-.166-.612-.451-1.502-1.434-2.278-1.701-2.278-.785 0 .131-.044.194-.098.14-.104-.104-.902.526-.902.712 0 .06-.412.553-.914 1.095-.503.542-.916 1.046-.917 1.121-.002.074-.228.325-.503.556-.275.232-.5.494-.5.584 0 .089-.231.357-.513.594l-.513.432.721.663c.397.365.705.723.684.797-.021.074.108.181.287.238.179.057.478.296.663.532.186.236.338.363.339.282.001-.081.141.065.312.325.172.259.34.453.374.431.035-.023.638.528 1.34 1.223.702.696 1.333 1.214 1.401 1.153.069-.062.077-.027.017.077s.177.442.526.75c.348.308.683.692.743.854.061.161.206.273.323.25.117-.024.194.05.171.165-.082.412.444.197.816-.334.209-.298.44-.566.512-.597.072-.03.131-.153.131-.272 0-.12.187-.34.415-.49.229-.149.404-.327.39-.394-.053-.257.241-.705.462-.705.128 0 .233-.063.233-.141 0-.078.437-.662.973-1.3.535-.637 1.057-1.305 1.161-1.484.142-.245.19 2.109.194 9.529l.005 9.853-.662.106c-.365.059-1.546.179-2.625.268-1.08.09-3.013.307-4.296.485-3.821.527-5.291.588-5.625.232-.154-.164-.625-.673-1.047-1.131-.423-.459-1.028-1.115-1.347-1.459-.318-.343-.655-.625-.748-.625-.093 0-.124-.074-.068-.164.056-.09-.127-.303-.406-.473-.28-.169-.462-.354-.407-.41.056-.056-.131-.243-.416-.417-.285-.173-.479-.354-.432-.401.048-.048-.03-.184-.173-.303-.318-.264-.727-.076-1.632.754l-.616.564v-4.141l2.534-.046c2.481-.045 2.537-.054 2.625-.425l.091-.378.315.42c.173.231.409.42.524.42.115 0 .252.113.305.25.052.138.215.25.361.25.145 0 .227.061.181.135-.046.075.178.356.497.625.319.27.866.77 1.216 1.111.35.342.697.567.771.5.073-.066.086-.038.029.063-.132.231.608.949.798.776.077-.069.093-.043.035.058-.128.225.609.953.786.776.07-.07.101-.045.071.056-.031.1.169.4.444.667.275.266.676.722.891 1.013.582.789.772.783 1.292-.041.257-.406.532-.739.61-.739.079 0 .097-.075.041-.166-.057-.092-.022-.167.078-.167s.229-.122.286-.271c.091-.238.322-.516 1.307-1.576.135-.146.245-.364.245-.486 0-.123.05-.173.111-.112.06.06.298-.168.529-.507.231-.339.612-.833.848-1.097.555-.621.748-1.118.435-1.118-.129 0-.28-.146-.337-.324-.056-.179-.237-.368-.401-.42-.164-.052-.398-.281-.519-.508-.122-.228-.281-.414-.352-.414-.072 0-.697-.566-1.389-1.258-.692-.692-1.258-1.225-1.258-1.184 0 .041-.253-.161-.563-.45-1.11-1.035-2.108-1.843-2.678-2.169l-.58-.331-.821.898c-.451.493-.789.981-.75 1.082.04.102-.119.272-.352.378-.381.174-.5.375-.442.742.01.069-.084.125-.211.125-.201 0-1.513 1.431-1.524 1.662-.002.049-.208.305-.458.571l-.454.482v-7.382H231.5v-2.399c0-2.55.014-2.593.833-2.508.23.023 1.044-.063 1.81-.191.766-.129 1.725-.246 2.131-.262.728-.027.736-.034.645-.542-.087-.486-.168-1.092-.324-2.431-.038-.321-.112-.771-.166-1-.054-.229-.135-.705-.18-1.058-.08-.613-.216-1.404-.335-1.942-.03-.138-.061-.423-.068-.635-.012-.372-.05-.382-1.138-.295-.618.05-1.762.135-2.541.19-1.764.124-2.468.178-6.417.493-3.011.24-6.289.415-7.605.406l-.605-.003.061 1.13c.033.622.096 1.393.14 1.714.044.321.119 1.033.166 1.583.047.55.126 1.263.174 1.584.048.321.132.883.186 1.25.055.366.131.717.169.78.06.098 3.342.069 3.814-.034.725-.157.75-.086.75 2.087v2.083h-5.917l.036 4.209.036 4.208 2.506.046c1.378.025 2.506.079 2.506.119 0 .167-.587 1.355-.794 1.608-.123.15-.236.426-.25.613-.014.188-.066.327-.116.311-.05-.017-.108.027-.128.098-.04.133-.061.16-.878 1.122-.273.32-.497.677-.498.791-.002.115-.086.209-.187.209-.102 0-.14.116-.086.258.055.143.031.217-.052.165-.135-.083-.845.733-.845.97 0 .05-.187.279-.416.508-.229.229-.417.537-.417.684 0 .147-.072.223-.161.168-.138-.085-.44.29-1.256 1.555-.091.142-.295.375-.452.517-.264.239-.266.332-.03 1.258.14.55.284 1.3.319 1.667.035.366.1.854.143 1.083.043.229.125.717.183 1.083.057.367.148.779.202.917.055.137.129.587.166 1 .036.413.109.862.162 1 .053.137.125.512.161.833.201 1.798.632 2.569 1.015 1.815.294-.578.593-.998.914-1.287.156-.14.247-.313.202-.385-.044-.073.072-.227.259-.344.187-.117.34-.34.34-.497 0-.157.094-.345.208-.418.115-.074.315-.34.445-.592.13-.252.273-.421.318-.376.083.083.127.016.836-1.275.215-.391.533-.892.706-1.112.174-.221.275-.467.225-.548-.05-.081-.023-.147.06-.147.083 0 .232-.169.332-.375.133-.277.183 1.512.192 6.791L223 67.75h8.5v-7.625c0-5.256.055-7.625.177-7.625.097 0 .13.075.073.167-.057.091-.019.166.083.166.103 0 .133.087.068.193-.069.112-.046.147.055.085.096-.06.297.079.446.307.15.228.23.415.179.415-.052 0 .064.169.257.375.193.207.512.638.708.959.407.662.706 1 .888 1 .17 0 2.324-2.202 2.284-2.334-.017-.059.17-.225.417-.371l.448-.265.012.61c.007.335.067.985.133 1.443.066.458.149 1.321.183 1.917.035.595.069 1.181.076 1.301.007.12.074.18.149.134.133-.082 1.24-.199 3.281-.346.55-.04 1.187-.111 1.416-.159.23-.048.867-.134 1.417-.191.55-.058 1.188-.131 1.417-.162 1.137-.154 2.06-.238 3.564-.325.906-.052 1.761-.158 1.899-.235.875-.49.887-.414.835 5.506-.04 4.51-.009 5.465.174 5.395.122-.047 2.09-.085 4.373-.085h4.15l.044-5.942c.043-5.797.052-5.944.377-5.997.84-.137 2.174-.263 4.043-.381.199-.013.158-3.122-.05-3.848-.04-.138-.111-1.288-.157-2.557-.047-1.268-.129-2.377-.182-2.463-.092-.149-2.01-.09-3.445.106l-.625.085V18.366l-1.875-.095c-1.032-.052-3-.128-4.375-.169l-2.5-.074.049 4.736M174 21.976v3.857h-17.503l.005 14.542.005 14.542 8.745-.045 8.744-.044.044 6.544.043 6.545 4.528.083c2.491.046 4.526.046 4.522 0-.003-.046.003-3.029.014-6.629l.02-6.546 8.708.046 8.708.046V25.833h-17.416v-7.465l-2.209-.017c-1.214-.01-3.277-.066-4.583-.125L174 18.118v3.858m116.167-2.434v1.291h-10.584l.048 3.75.048 3.75h10.488v1.834h9v-1.834h8.816l.05.875.05.875 4.375.045 4.375.044v-1.839h10.673l-.044-3.708-.045-3.708-5.31-.044-5.31-.044.063-1.239.062-1.239-3.953-.012c-2.175-.006-4.182-.057-4.461-.112l-.508-.102v2.708h-8.833v-1.172c0-1.441.468-1.306-4.709-1.363l-4.292-.048.001 1.292m59.256-1.149c-.522.303-2.015 1.389-2.294 1.669-.141.14-.291.221-.333.178-.042-.042-.28.112-.528.342-.249.23-.523.418-.61.418-.087 0-.158.079-.158.177 0 .097-.076.129-.168.072-.092-.057-.213.014-.268.157-.055.143-.204.261-.332.261-.128 0-.233.056-.235.125-.002.068-.377.346-.834.617-.955.567-.975.627-.413 1.189.229.23.417.476.417.548 0 .072.299.462.664.867.365.406.665.831.667.945.001.115.077.209.169.209.091 0 .148.067.125.148-.023.082.132.301.344.488.212.186.371.391.353.455-.018.064.184.347.448.629.264.282.38.452.257.378-.122-.074.091.323.473.882.381.559.764 1.06.849 1.113.086.053.113.166.06.252-.053.085-.019.155.075.155.093 0 .379.449.635.998.59 1.269.61 1.265 2.42-.54.345-.344.627-.584.627-.533 0 .05.244-.137.542-.416.298-.279.602-.508.677-.509.074 0 .093-.067.043-.148-.051-.082.176-.352.502-.602.327-.249.844-.702 1.149-1.007.305-.305.602-.506.661-.448.058.059.149-.056.201-.255.052-.2.232-.406.4-.459.34-.108-.164-1.248-.552-1.248-.098 0-.133-.045-.077-.101.083-.083-.543-.997-1.38-2.017-.091-.111-.166-.267-.166-.348 0-.081-.33-.497-.733-.924-.404-.427-.685-.778-.625-.779.06-.002.033-.058-.058-.125-.092-.068-.466-.498-.832-.956-1.325-1.661-1.799-2.068-2.162-1.857m8.652 1.652c-.045.116-.061 2.01-.036 4.208l.044 3.997 2.125.047 2.125.046V39h-5.416v8.5h5.416v20.25h8.5V47.5h5.834l.004 2.625c.003 1.444.044 3.112.092 3.708.048.596.117 1.459.152 1.917.115 1.456.341 3.167.419 3.167.05 0 .158.831.179 1.374.011.307.091.498.184.44.09-.055.145.039.123.209-.046.361.166 1.232.361 1.483.074.096.181.432.236.748.056.315.194.687.308.826.113.139.377.61.586 1.047.21.436.45.75.535.698.085-.052.154.022.154.165 0 .143.079.26.177.26.097 0 .136.064.088.142-.048.078.097.227.324.33.226.103.411.255.411.338 0 .214 1.136.728 1.335.605.091-.056.165-.013.165.096 0 .202 2.178.143 3.23-.087.264-.058.562-.121.662-.14.101-.019.285-.129.409-.244.124-.116.286-.173.36-.127.074.046.227-.029.341-.165.113-.137.286-.248.384-.248.098 0 .458-.3.8-.667.342-.367.586-.667.542-.667-.043 0 .1-.168.317-.375.218-.206.445-.506.504-.666.059-.161.183-.292.276-.292.092 0 .33-.319.527-.708.198-.39.407-.746.465-.792.344-.27.718-1.459.501-1.593-.083-.051-.151-.305-.151-.563 0-.259-.102-.723-.226-1.032-.124-.309-.285-.712-.359-.895-.073-.184-.164-.519-.202-.746-.037-.227-.147-.508-.244-.625-.097-.117-.121-.213-.053-.213.069 0 .041-.1-.061-.223-.102-.123-.148-.262-.102-.308.047-.046-.027-.35-.162-.674-.136-.324-.287-.82-.336-1.1-.05-.281-.17-.721-.268-.978s-.187-.504-.2-.55c-.375-1.404-.608-1.499-.958-.388-.44 1.397-.909 2.007-1.776 2.305-.685.236-1.106.081-.942-.346.05-.131.027-.238-.052-.238-.078 0-.156-.168-.171-.375-.016-.206-.069-.825-.118-1.375-.05-.55-.093-8.143-.097-16.875l-.007-15.875h-13.588c-10.83 0-13.605.043-13.67.212M64.39 21.875c-.072.115-.145.306-.164.426-.018.12-.223.409-.457.642-.233.233-.475.585-.537.782-.062.197-.254.457-.425.578-.172.121-.273.284-.224.364.049.079-.1.347-.33.596-.231.249-.42.554-.42.678s-.057.226-.127.226c-.135 0-1.281 1.665-1.286 1.869-.002.066-.135.274-.296.461-.495.579-1.461 1.997-1.416 2.08.023.044-.09.233-.25.42-.477.557-1.46 1.992-1.457 2.127.001.069-.112.259-.25.42-.444.519-1.419 1.95-1.417 2.08.001.069-.111.259-.25.42-.444.519-1.419 1.95-1.417 2.08.001.069-.111.259-.25.42-.444.519-1.419 1.95-1.416 2.08.001.069-.112.259-.25.42-.444.519-1.419 1.95-1.417 2.08.001.069-.128.276-.287.459-.158.184-.681.934-1.161 1.667-.481.733-.935 1.408-1.01 1.5-.074.092-.448.654-.83 1.25-.383.596-.758 1.158-.834 1.25-.076.092-.451.654-.833 1.25-.382.596-.757 1.158-.833 1.25-.077.092-.452.654-.834 1.25-.382.596-.757 1.158-.833 1.25-.076.092-.451.654-.833 1.25-.383.596-.758 1.158-.834 1.25-.076.092-.451.654-.833 1.25-.382.596-.757 1.158-.833 1.25-.077.092-.452.654-.834 1.25-.382.596-.755 1.16-.828 1.254-.451.575-1.217 1.737-1.217 1.846 0 .071-.169.314-.375.541-.207.227-.263.352-.125.278.137-.074.091.02-.103.209-.194.188-.524.631-.735.982-.211.352-.54.821-.731 1.042-.2.231-.242.345-.098.267.137-.074.091.02-.102.209-.194.188-.525.631-.736.982-.21.352-.539.821-.731 1.042-.2.231-.242.345-.098.267.138-.074.092.02-.102.209-.194.188-.525.631-.735.982-.211.352-.54.821-.731 1.042-.201.231-.242.345-.098.267.137-.074.091.02-.103.209-.194.188-.524.631-.735.982-.211.352-.54.821-.731 1.042-.2.231-.242.345-.098.267.137-.074.091.02-.102.209-.194.188-.525.631-.736.982-.21.352-.539.821-.731 1.042-.2.231-.242.345-.098.267.138-.074.092.02-.102.209-.194.188-.525.631-.735.982-.211.352-.54.821-.731 1.042-.201.231-.242.345-.098.267.137-.074.091.02-.103.209-.194.188-.524.631-.735.982-.211.352-.54.821-.731 1.042-.212.244-.25.354-.098.279.137-.067.111-.009-.058.129-.18.146-.256.336-.183.455.078.126.056.16-.058.089-.178-.11-.642.517-.57.771.02.069-.039.125-.131.125s-.167.141-.167.314c0 .18-.151.353-.355.407-.237.062-.322.179-.255.352.055.143.023.26-.071.26-.095 0-.118.087-.053.193.072.116.046.147-.065.078-.178-.11-.641.517-.569.771.019.069-.04.125-.132.125-.091 0-.166.141-.166.314 0 .18-.152.353-.355.407-.237.062-.322.179-.256.352.055.143.023.26-.071.26s-.118.087-.052.193c.071.116.045.147-.066.078-.178-.11-.641.517-.569.771.019.069-.04.125-.131.125-.092 0-.167.141-.167.314 0 .18-.151.353-.355.407-.237.062-.322.179-.255.352.055.143.022.26-.072.26s-.117.087-.052.193c.072.116.046.147-.065.078-.178-.11-.642.517-.57.771.02.069-.039.125-.131.125s-.167.141-.167.314c0 .18-.151.353-.355.407-.237.062-.322.179-.255.352.055.143.023.26-.071.26-.095 0-.118.087-.053.193.072.116.046.147-.065.078-.178-.11-.641.517-.569.771.019.069-.04.125-.132.125-.091 0-.166.141-.166.314 0 .18-.152.353-.355.407-.237.062-.322.179-.256.352.055.143.023.26-.071.26s-.118.087-.052.193c.071.116.045.147-.066.078-.178-.11-.641.517-.569.771.019.069-.04.125-.131.125-.092 0-.167.141-.167.314 0 .18-.151.353-.355.407-.237.062-.322.179-.255.352.055.143.022.26-.072.26s-.117.087-.052.193c.072.116.046.147-.065.078-.178-.11-.642.517-.57.771.02.069-.039.125-.131.125s-.167.141-.167.314c0 .18-.151.353-.355.407-.237.062-.322.179-.255.352.055.143.023.26-.071.26-.095 0-.118.087-.053.193.069.112.046.147-.055.085-.096-.06-.297.079-.446.307-.15.228-.233.415-.184.415.049 0-.118.235-.371.521-.253.286-.441.586-.418.667.023.08-.033.146-.125.146s-.167.112-.167.25c0 .137-.061.25-.136.25-.074 0-.299.29-.498.645-.2.354-.475.738-.612.852-.138.114-.209.274-.159.355.051.081.012.148-.085.148s-.176.112-.176.25c0 .137-.062.25-.136.25-.075 0-.299.29-.499.645-.199.354-.475.738-.612.852-.137.114-.209.274-.158.355.05.081.012.148-.085.148-.098 0-.177.112-.177.25 0 .137-.061.25-.136.25-.075 0-.299.29-.498.645-.2.354-.475.738-.613.852-.137.114-.208.274-.158.355.05.081.012.148-.085.148s-.177.112-.177.25c0 .137-.075.25-.166.25-.092 0-.167.112-.167.25 0 .219 1.391.25 11.522.25 12.908 0 11.784.107 12.313-1.171.113-.273.271-.496.352-.496.08 0 .146-.113.146-.252 0-.138.217-.478.483-.756.265-.277.574-.727.687-.998.112-.272.27-.494.351-.494.08 0 .146-.109.146-.242 0-.134.172-.415.383-.625.21-.211.561-.702.78-1.091.219-.39.464-.709.544-.709.08 0 .103-.07.05-.156-.053-.085.077-.329.289-.541.212-.212.565-.705.784-1.094.219-.39.464-.709.544-.709.08 0 .102-.07.049-.156-.053-.085.078-.329.29-.541.212-.212.565-.705.784-1.094.219-.39.463-.709.544-.709.08 0 .102-.07.049-.156-.053-.085.077-.329.289-.541.213-.212.565-.705.784-1.094.219-.39.464-.709.544-.709.08 0 .103-.07.05-.156-.053-.085.077-.329.289-.541.212-.212.565-.705.784-1.094.219-.39.464-.709.544-.709.08 0 .102-.07.049-.156-.053-.085.078-.329.29-.541.212-.212.565-.705.784-1.094.219-.39.463-.709.544-.709.08 0 .102-.07.049-.156-.053-.085.077-.329.289-.541.213-.212.565-.705.784-1.094.219-.39.464-.709.544-.709.08 0 .103-.07.05-.156-.053-.085.096-.348.332-.584.235-.236.562-.728.726-1.093.164-.366.34-.622.393-.57.052.052.138-.042.191-.209.093-.292.719-.303 15.682-.261l15.586.043v24.677l19.625-.054c15.103-.041 19.759-.102 20.208-.261.512-.182 1.677-.392 2.292-.413.114-.004.208-.066.208-.137 0-.071.15-.1.333-.065.184.035.334-.019.334-.121 0-.101.047-.138.104-.08.058.057.319-.006.581-.142.262-.135.69-.271.951-.302.262-.03.896-.254 1.409-.497.514-.243 1.014-.441 1.111-.441.097 0 .177-.06.177-.134 0-.073.281-.234.625-.358.344-.123.857-.401 1.141-.616.283-.216.64-.392.791-.392.152 0 .276-.074.276-.164 0-.089.301-.316.669-.504.602-.307 1.039-.641 2.015-1.541.174-.16.376-.291.449-.291.073 0 .426-.3.784-.667.358-.367.595-.667.527-.667-.068 0-.027-.105.091-.234.119-.128.263-.222.32-.208.134.033 1.123-1.01 1.562-1.646.183-.265.576-.743.872-1.062.296-.318.506-.61.468-.649-.039-.038.113-.267.337-.509.223-.241.406-.492.406-.557 0-.065.22-.443.488-.841.269-.398.539-.926.602-1.175.062-.249.184-.452.272-.452.087 0 .112-.075.055-.167-.057-.091-.029-.166.062-.166s.214-.169.273-.375c.06-.207.23-.638.378-.959.148-.32.298-.733.333-.916.035-.184.078-.409.097-.5.018-.092.082-.246.143-.342.224-.359.573-1.534.534-1.8-.022-.151.016-.275.085-.275.068 0 .223-.656.344-1.458.12-.802.255-1.646.299-1.875.315-1.64.109-7.877-.271-8.166-.06-.046-.118-.234-.127-.418-.016-.314-.135-1.05-.301-1.858-.04-.198-.194-.591-.341-.875-.146-.284-.234-.517-.195-.517.092 0-.299-1.284-.572-1.875-.116-.252-.283-.458-.371-.458-.087 0-.121-.145-.075-.322.049-.185-.052-.468-.237-.667-.176-.189-.279-.344-.227-.344.051 0-.03-.188-.18-.417-.15-.229-.208-.419-.129-.422.08-.003-.032-.153-.249-.334-.216-.18-.336-.327-.266-.327.071 0 .004-.138-.148-.306-.152-.167-.226-.355-.165-.416.061-.062.024-.112-.083-.112-.107 0-.176-.065-.153-.146.023-.08-.164-.379-.416-.665-.252-.285-.459-.578-.459-.65 0-.072-.131-.255-.291-.407-.659-.621-.72-.763-.444-1.039.142-.143.203-.259.135-.259-.069 0 .039-.175.239-.388.201-.213.307-.444.238-.514-.07-.069-.024-.101.101-.071.126.031.253-.094.283-.277.031-.183.213-.461.405-.617.193-.155.378-.429.413-.608.034-.179.199-.485.367-.681.167-.195.307-.409.31-.475.003-.066.197-.419.432-.786.377-.591.595-1.146.744-1.9.025-.128.115-.278.199-.333.227-.149.577-.865.473-.969-.05-.05.019-.352.153-.673.134-.32.243-.723.243-.895 0-.172.08-.313.177-.313.097 0 .133-.07.08-.155-.052-.086-.022-.201.069-.257.09-.056.163-.342.161-.637-.003-.653.096-1.348.221-1.551.347-.562.532-6.655.249-8.15-.07-.367-.22-1.28-.334-2.029-.114-.748-.263-1.417-.331-1.486-.069-.068-.125-.295-.125-.503 0-.209-.066-.42-.148-.471-.081-.05-.199-.373-.262-.718-.062-.345-.333-1.096-.602-1.669-.268-.573-.488-1.154-.488-1.291 0-.138-.075-.25-.167-.25-.091 0-.153-.056-.137-.125.048-.207-.405-1.042-.566-1.042-.082 0-.103-.075-.047-.166.057-.092.024-.167-.073-.167s-.177-.107-.177-.238-.131-.369-.291-.53c-.161-.16-.272-.316-.247-.347.1-.123-.483-1.052-.66-1.052-.105 0-.144-.046-.087-.103.056-.057.013-.196-.098-.31-.604-.624-1.117-1.27-1.117-1.406 0-.086-.187-.304-.416-.484-.229-.18-.417-.395-.417-.478 0-.199-1.426-1.592-1.608-1.57-.078.01-.142-.053-.142-.14 0-.2-2.337-2.175-2.574-2.175-.097 0-.176-.063-.176-.141 0-.077-.394-.352-.875-.611-.481-.26-.913-.527-.959-.595-.315-.463-5.706-2.751-6.021-2.556-.08.049-.145.005-.145-.097 0-.103-.058-.151-.128-.107-.071.043-.765-.117-1.542-.357l-1.413-.435-8.792-.063-8.792-.063v20.04l7.292-.012c7.904-.012 7.493-.032 8.458.41.367.167.719.295.782.282.064-.012.345.207.625.487.281.281.51.468.51.416 0-.052.281.205.625.57s.625.725.625.801c0 .076.131.269.292.429.16.161.291.399.291.53s.075.238.167.238c.092 0 .151.057.132.125-.019.069.101.668.267 1.331.334 1.333.278 2.862-.129 3.514-.075.12-.095.261-.045.311.051.051-.016.201-.15.334-.133.134-.242.375-.242.538 0 .163-.15.431-.333.597-.183.166-.336.384-.338.484-.006.224-.937 1.266-1.131 1.266-.077 0-.313.185-.524.41-.212.225-.431.397-.487.383-.057-.015-.412.135-.789.332-1.085.568-3.011.709-9.685.709h-6.213V76l6.542.011c3.598.006 6.804.053 7.125.103.321.051.715.099.875.108.16.009.292.075.292.147s.056.122.125.111c.068-.011.162-.004.208.014.046.018.308.07.583.114.275.045.56.189.633.32.074.131.285.239.469.239s.288.075.232.166c-.057.092-.034.167.05.167.23 0 1.789 1.505 1.741 1.681-.023.084.034.152.125.152.092 0 .167.104.167.23s.112.322.248.435c.137.114.207.273.157.354-.05.081.001.148.113.148s.162.043.11.095c-.052.052.048.5.222.995.354 1.008.395 1.96.132 3.077-.097.412-.201.866-.23 1.008-.058.28-.684 1.448-.957 1.783-.093.115-.129.209-.08.209s-.239.337-.64.75c-.401.412-.775.75-.83.75-.055 0-.346.187-.647.416-.3.23-.67.417-.822.417-.152 0-.276.087-.276.194 0 .107-.041.153-.092.103-.051-.051-.438.012-.86.139-.618.186-2.732.231-10.824.231H92.667v-69H78.593c-11.078 0-14.101.044-14.203.208m312.277 11.792V39h-5.834V28.333h5.834v5.334M306 30.57c0 .394.004.377-.244 1.079-.127.36-.186.698-.132.753.054.054.003.098-.114.098s-.171.108-.121.239c.051.132.014.266-.082.297-.095.032-.191.281-.212.553-.022.273-.129.664-.24.87-.11.206-.154.374-.097.374.056 0-.054.253-.244.562-.191.308-.35.702-.353.875-.003.172-.113.456-.244.63-.132.173-.2.38-.152.458.048.078.004.142-.098.142-.103 0-.14.075-.084.167.057.091.024.166-.073.166s-.162.057-.145.125c.018.069-.376.972-.875 2.006l-.907 1.881-.083-5.297-.083-5.298h-8v14.5l4.041.045 4.042.044v-.992c0-.89.035-.99.333-.968.184.014.334.084.334.156 0 .073.119.132.265.132.146 0 .455.149.686.331.232.182.487.29.568.24.081-.05.147-.018.147.072s.22.212.489.271c.268.059.574.211.68.338.105.127.467.321.803.432.336.111.799.339 1.028.506.715.523 1.445.581 1.589.127.067-.212.225-.488.352-.615.126-.126.186-.298.134-.382-.052-.085-.01-.154.092-.154s.143-.069.09-.155c-.052-.085-.018-.203.077-.261.094-.059.136-.165.091-.237-.044-.071.055-.275.221-.452.165-.177.355-.54.422-.807.066-.266.265-.687.442-.934.176-.248.347-.59.38-.76.033-.171.158-.535.279-.81.121-.275.226-.575.234-.667.009-.102 1.112-.184 2.847-.212 2.72-.044 2.817-.034 2.417.24-.229.157-.462.352-.517.432-.055.08-.205.164-.333.186-.35.061-1.839 1.011-2.644 1.687-.243.204-.342.237-.256.084.088-.157-.01-.127-.263.081-.222.183-.428.345-.459.361-.03.016.27.358.667.761.75.761 1.079 1.174 1.66 2.088.189.298.414.499.499.446.085-.052.134-.032.108.045-.025.078.162.364.415.638l.46.496-16.169.043-16.168.042V58.667h-3.677l.016 4.001.016 4.001 23.731-.003 23.731-.004-.034-3.956-.033-3.956-1.875-.047-1.875-.047V47.667l-2.292-.005c-2.024-.005-2.567-.131-1.536-.358.134-.03.382-.204.55-.387.168-.184.356-.337.417-.342.315-.023.861-.282.861-.408 0-.08.16-.195.355-.257.195-.062.578-.311.849-.553.272-.242.562-.45.645-.461.083-.012.235-.03.337-.042.322-.036-.429-1.044-1.978-2.655-.481-.5-.875-.932-.875-.958 0-.027-.243-.298-.541-.603l-.542-.555 3.464-.045 3.463-.045-.017-3.75-.017-3.75-6.55.045c-4.31.03-6.534-.012-6.502-.121.31-1.071.345-1.03-1.094-1.241-.732-.107-1.402-.152-1.486-.099-.085.052-.196.029-.246-.052-.05-.082-.48-.157-.955-.167-.765-.018-1.929-.177-3.352-.46-.345-.069-.458-.026-.458.172m-24.083 8.263v7h8.09l-.011-7-.01-7H281.917v7m59.825-5.122c-.045.116-.061 2.11-.037 4.431l.045 4.22 2.167.027 2.166.028-.013 7c-.008 3.85-.068 7.262-.133 7.583-.065.321-.131.715-.147.875-.015.16-.087.292-.159.292-.072 0-.131.154-.131.343 0 .189-.075.297-.167.24-.091-.057-.166-.002-.166.121s-.413.631-.917 1.129c-1.068 1.054-1.071 1.069-.417 1.833.275.321.5.64.5.709.001.311.038.395.317.708.163.183.393.579.512.879.118.3.322.606.454.679.131.074.257.259.279.412.023.153.222.522.443.821.222.298.416.629.432.734.077.511.789 1.217 1.027 1.02.321-.267.811-.551 1.661-.966.39-.189.709-.404.709-.477 0-.073.281-.275.625-.449.343-.174.785-.454.982-.622.196-.168.458-.325.583-.349.405-.078 1.143-.482 1.143-.625 0-.077.146-.14.323-.14.178 0 .37-.075.427-.166.056-.092.473-.326.926-.521.453-.195.824-.408.824-.474s.3-.218.667-.339c.366-.121.666-.283.666-.36 0-.077.081-.14.179-.14.098 0 .295-.117.437-.259.142-.142.47-.3.729-.352.26-.052.6-.236.756-.408.156-.173.39-.315.52-.315.148 0 .201-.108.143-.291-.051-.161-.129-.79-.174-1.399-.044-.609-.228-1.809-.408-2.667-.18-.858-.366-2.009-.413-2.559-.184-2.134-.325-2.358-1.102-1.75-.229.179-.485.327-.568.329-.083.002-.419.21-.748.462s-.748.541-.932.642c-.185.1-.617.351-.96.558l-.625.375V33.5h-6.172c-4.829 0-6.19.046-6.253.211M174 40.333v5.5h-8.667v-11H174v5.5m17.667 0v5.5h-8.5v-11h8.5v5.5m-115.5 12.334V66H58.356l.587-.875c.322-.481.704-1.006.847-1.167.144-.16.213-.291.154-.291-.06 0 .135-.333.432-.739.899-1.229 1.205-1.674 1.211-1.761.004-.074.289-.492 1.364-2 .163-.229.299-.455.302-.5.005-.074.29-.492 1.365-2 .163-.229.299-.455.302-.5.004-.074.289-.492 1.364-2 .164-.229.3-.455.303-.5.004-.074.289-.492 1.364-2 .163-.229.298-.455.299-.5 0-.046.198-.346.438-.667.24-.321.532-.771.649-1 .116-.229.313-.477.437-.55.124-.073.226-.28.226-.458 0-.179.077-.325.171-.325.094 0 .243-.19.331-.421.169-.446.397-.762.873-1.211.16-.152.292-.409.292-.572 0-.163.077-.296.17-.296.094 0 .243-.19.331-.421.17-.446.398-.762.874-1.211.16-.152.291-.409.291-.572 0-.163.077-.296.171-.296.094 0 .243-.19.331-.421.17-.446.397-.762.873-1.211.161-.152.292-.409.292-.572 0-.163.077-.296.171-.296.094 0 .243-.19.331-.421.139-.366.497-.887.623-.906.023-.004.042 5.993.042 13.327M294.833 56.5v2.167h-3.5v-4.334h3.5V56.5m10.167 0v2.167h-3.333v-4.334H305V56.5m10.699 0l-.051 2.167h-3.315v-4.334h3.417l-.051 2.167M157.083 95.833v17h7.89l.116-1.083c.13-1.208.375-1.386.865-.625.46.713 1.194 1.375 1.524 1.375.165 0 .356.056.425.125s.175.131.236.139c.061.008.223.061.361.117 1.626.666 6.862.522 7.748-.212.138-.116.252-.152.252-.08 0 .071.145-.002.323-.163.177-.161.396-.246.486-.191.091.056.312-.087.493-.317s.39-.418.464-.418c.243 0 1.726-1.743 1.73-2.033.002-.156.135-.357.294-.446.16-.09.235-.218.167-.287-.069-.068-.017-.242.114-.387.131-.145.236-.301.233-.347-.003-.046.09-.421.206-.833.117-.413.231-.825.253-.917.022-.092.102-.429.178-.75.359-1.52.111-10.286-.305-10.787-.097-.117-.127-.213-.067-.213s.024-.16-.081-.356c-.105-.196-.206-.577-.225-.846-.019-.269-.104-.54-.19-.602-.086-.062-.181-.225-.211-.363-.03-.137-.162-.368-.292-.513-.131-.145-.19-.311-.132-.369.058-.058-.09-.194-.328-.302-.238-.109-.395-.259-.349-.334.119-.192-.572-.848-.767-.728-.088.055-.161-.021-.161-.167 0-.264-1.874-1.228-2.583-1.329-.183-.026-.463-.102-.622-.169-.159-.067-1.622-.089-3.25-.048-3.22.081-4.161.34-5.67 1.563l-.541.439V78.833h-8.584v17m33.205-2.415c.039 15.468.071 16.105.835 16.957.144.16.215.292.158.292-.123 0 .855.958 1.411 1.382.215.164.579.335.808.38.229.046.679.167 1 .27 1.039.334 1.377.364 4.136.366 3.316.001 3.036.335 3.018-3.597l-.014-3.115-.778-.016c-1.162-.023-1.257-.045-1.529-.342-.419-.457-.415-.35-.461-13.953l-.045-13.209h-8.577l.038 14.585m83.045-7.585v2.834h-1.517c-1.316 0-1.505.035-1.417.263.055.145.101 1.645.101 3.334v3.069h2.826l.06 6.375c.057 6.086.142 7.459.461 7.459.078 0 .099.112.047.25-.055.141-.004.25.116.25.117 0 .165.047.108.104-.139.139.361 1.095.521.996.068-.042.271.143.451.411s.423.488.54.488c.118 0 .257.113.309.25.053.137.163.207.245.157.082-.051.149-.019.149.07 0 .155.244.229 2.584.776.864.202 4.732.232 6.118.048.256-.035.29-.366.333-3.237l.049-3.199-1.334-.093c-1.608-.113-1.738-.133-1.705-.257.014-.054-.084-.285-.218-.514-.195-.335-.253-1.395-.294-5.375l-.051-4.959h4.268v-6.666h-4.25V83h-8.5v2.833m-24.248 2.688c-1.491.352-2.815.834-3.039 1.106-.131.159-.19.196-.132.081.058-.115-.18-.044-.529.157-.732.421-1.802 1.306-1.802 1.49 0 .069-.168.283-.375.475-.364.339-1.002 1.436-1.009 1.735-.002.081-.081.196-.176.254-.094.058-.216.358-.27.667-.055.308-.164.681-.243.829-.079.147-.147.343-.15.435-.004.092-.095.483-.204.87-.108.387-.161.891-.117 1.12.044.229.021.38-.051.336-.373-.231-.028 6.553.386 7.591.055.137.187.64.294 1.116.107.477.3.954.428 1.061.129.107.193.26.142.342-.05.081-.03.147.045.147s.24.237.368.525c.128.289.371.664.541.834.169.169.267.308.216.308-.088 0 .264.335 1.181 1.123.239.205.71.501 1.048.658.337.157.661.355.719.44.059.085.19.104.292.041.102-.063.185-.036.185.061 0 .098.141.177.313.177.172 0 .571.108.885.239 1.535.641 8.907.72 10.507.112.235-.09.461-.13.501-.09.04.04.496-.066 1.012-.236.516-.171.899-.246.851-.168-.104.169.506-.052 1.384-.5.347-.176.706-.311.797-.297.105.015.184-1.195.212-3.268.026-1.857-.02-3.292-.104-3.292-.082 0-.511.16-.953.356-.801.354-1.764.612-3.988 1.07-1.534.315-4.992.317-5.882.003-.369-.13-.715-.193-.77-.139-.054.055-.098.011-.098-.096s-.12-.194-.267-.194c-.146 0-.503-.253-.791-.563-1.401-1.501-1.422-1.486 2.475-1.68 1.26-.063 3.647-.222 5.166-.344.642-.051 2.213-.127 3.491-.169 2.444-.08 2.551-.11 2.683-.756.112-.55.11-5.389-.002-6.321-.05-.413-.122-1.086-.161-1.496-.038-.411-.146-.772-.239-.803-.093-.031-.128-.164-.078-.295.051-.132-.004-.24-.12-.24-.117 0-.165-.047-.107-.105.058-.058.017-.264-.09-.458-.106-.194-.212-.466-.235-.603-.023-.137-.195-.375-.383-.527-.188-.152-.342-.354-.342-.449 0-.095-.221-.303-.491-.462-.27-.16-.453-.351-.407-.426.046-.075-.009-.136-.123-.136s-.372-.154-.572-.343c-.2-.188-.993-.579-1.761-.868l-1.396-.526-4-.033c-2.2-.018-4.299.038-4.665.124m57.082.04c0 .089-.049.113-.108.053-.359-.359-3.292 2.15-3.413 2.92-.012.073-.03.201-.042.285-.114.837-.271.041-.271-1.375v-1.777h-8.583v24.166h8.583l.018-6.291c.02-7.098.019-7.049.202-7.334.073-.114.085-.208.025-.208-.059 0 .087-.231.325-.514.238-.283.39-.583.338-.667-.052-.084-.025-.152.059-.152.084 0 .479-.258.876-.573.398-.314.765-.563.815-.553.051.011.505-.112 1.009-.273.504-.161 1.355-.319 1.891-.352 1.273-.078 1.17.247 1.248-3.933l.068-3.67-1.52.044c-.837.024-1.52.115-1.52.204m54.921.237c-.771.3-1.431.709-1.959 1.213l-.796.761v-2.105h-8.5v24.166h8.491l.046-8.172c.038-6.6.09-8.2.269-8.311.123-.075.216-.185.209-.244-.04-.297-.002-.436.11-.405.069.019.388-.107.709-.28.953-.514 4.08-.289 3.735.269-.042.068.043.189.189.271.495.277.568 1.45.572 9.164l.004 7.708h8.583l-.045-7.402c-.043-7.074-.03-7.439.289-8.25.184-.466.293-.848.242-.848-.051 0 .016-.109.149-.242 1.132-1.131 3.837-1.391 4.568-.439.112.146.208.19.215.098.023-.319.535 1.004.581 1.5.026.275.055 3.895.066 8.044l.018 7.545 4.292-.045 4.292-.044.025-8.682c.014-5.01-.043-9.029-.136-9.5-.088-.45-.198-1.003-.243-1.229-.046-.227-.143-.489-.216-.584-.073-.094-.272-.541-.441-.993-.543-1.45-2.103-2.689-4.082-3.24-.702-.196-6.018-.2-6.657-.005-1.483.451-2.478.966-3.178 1.645l-.794.769-.441-.552c-.242-.304-.523-.502-.623-.44-.103.063-.135.036-.075-.062.784-1.267-6.768-2.128-9.468-1.079m-152.581 9.13c.02 10.626.134 11.555 1.597 13.019.291.292.487.573.435.625-.052.052.014.095.146.095.133 0 .348.147.477.327.13.18.464.377.743.438.279.062.676.222.882.358 1.074.703 7.271.587 8.121-.152.087-.076.282-.138.433-.138.151 0 .43-.131.619-.292.913-.771 1.04-.863 1.043-.748.001.068.166-.132.366-.445.2-.312.379-.499.398-.416.02.083.133.62.252 1.193l.216 1.041h7.932v-11.819c0-6.501.045-11.939.101-12.084.091-.236-.355-.263-4.292-.263h-4.393l.045 7.871c.025 4.329.016 7.948-.02 8.042-.036.093-.09.245-.121.337-.643 1.936-5.718 1.993-6.069.067-.04-.22-.154-.701-.253-1.067-.12-.443-.164-3.112-.131-7.959l.049-7.291H208.488l.019 9.261M316.336 98c.004 5.133.062 9.333.128 9.333.065 0 .125.169.132.375.026.791.222 1.478.593 2.079.213.343.399.714.416.825.037.256 1.012 1.216 1.122 1.105.046-.045.181.075.302.267.12.192.303.349.407.349.103 0 .554.162 1.001.361 1.254.555 5.307.821 6.691.439.319-.088.702-.184.851-.213.506-.1 1.77-.641 2.021-.866.137-.123.494-.44.792-.705.298-.266.544-.584.546-.708.008-.358.379.379.429.852.024.233.068.611.097.84l.053.417 4.041.045 4.042.044V88.667h-8.673l.045 8.058c.025 4.432-.021 8.136-.1 8.23-.544.645-1.161 1.213-1.326 1.222-.108.006-.646.108-1.196.227-.55.119-1.075.158-1.167.087-.092-.071-.392-.162-.667-.201-2.043-.29-2.109-.623-2.046-10.391l.047-7.232H316.328l.008 9.333M170.25 94.576c1.173.279 2.25 1.358 2.25 2.256 0 .195.067.313.149.262.082-.05.15.076.15.282.001.206.058 1.324.126 2.484.228 3.876-.726 6.704-2.342 6.938-.371.054-2.286.053-2.887-.001-2.235-.202-3.127-4.878-1.96-10.272.091-.423.386-.86.726-1.077.116-.074.168-.206.115-.292-.053-.086.02-.156.163-.156.425 0 .501-.021.707-.191.108-.09.437-.194.731-.231.294-.037.579-.113.634-.168.083-.083.681-.014 1.438.166m84.266.109c.146.073.479.171.74.219.261.047.54.202.62.344.079.143.217.214.305.16.088-.055.143-.038.121.038-.022.076.055.308.171.517.704 1.271.471 1.522-1.504 1.62-.854.042-2.265.152-3.136.244-2.604.275-2.532.312-2.147-1.073.202-.727 1.359-2.016 1.649-1.837.099.062.286.024.415-.084.129-.107.309-.15.398-.095.089.056.213.019.274-.08.124-.201 1.676-.181 2.094.027"/><path fill="#045cb4" d="M251.907 22.917c0 2.566.023 3.593.051 2.281.028-1.312.028-3.412 0-4.666-.028-1.255-.051-.182-.051 2.385m64.981-3.167c.001.642.031.884.067.538.036-.346.035-.871-.001-1.167-.037-.296-.067-.013-.066.629m-37.317 4.917c0 2.062.024 2.906.053 1.875.03-1.032.03-2.719 0-3.75-.029-1.032-.053-.188-.053 1.875m-78.991 15.75c0 7.975.02 11.262.045 7.304.025-3.958.025-10.483 0-14.5-.025-4.017-.045-.779-.045 7.196m38.578-13.343c.22.234.425.426.456.426.15 0-.39-.673-.606-.756-.138-.053-.07.096.15.33M354.5 28.083c-.116.14-.134.25-.041.25.092 0 .26-.112.374-.25.116-.139.134-.25.041-.25-.092 0-.26.113-.374.25M222.898 30.25c0 1.192.027 1.657.059 1.035.032-.623.032-1.598 0-2.167-.033-.569-.059-.06-.059 1.132m29.014 7.917c0 5.454.021 7.685.046 4.958.026-2.727.026-7.19 0-9.917-.025-2.727-.046-.496-.046 4.959m64.973-8.917c.001.55.032.755.069.455.037-.299.036-.749-.002-1-.038-.25-.068-.005-.067.545M353.5 29c-.321.27-.523.493-.449.496.073.002.373-.221.666-.495.683-.64.543-.641-.217-.001m-71.591 9.917c0 3.758.022 5.319.049 3.469.027-1.85.027-4.925 0-6.833-.027-1.908-.049-.395-.049 3.364M217.072 36.5c0 2.246.024 3.165.053 2.042.028-1.123.028-2.961 0-4.084-.029-1.123-.053-.204-.053 2.042m-49.614-1.542c1.215.028 3.202.028 4.417 0 1.215-.029.221-.052-2.208-.052-2.43 0-3.423.023-2.209.052m17.74 0c1.164.028 3.114.028 4.334 0 1.22-.029.268-.052-2.115-.052-2.384 0-3.382.023-2.219.052m171.708 8.292c-.001 2.292.023 3.252.052 2.135.029-1.118.029-2.993 0-4.167s-.052-.26-.052 2.032m-12.908-.795l1.998.055.047 6.37.046 6.37-.003-6.417-.003-6.416-2.042-.008-2.042-.008 1.999.054M222.91 60.667c0 3.987.022 5.618.048 3.625.027-1.994.027-5.257 0-7.25-.026-1.994-.048-.363-.048 3.625m69.304-6.21c.531.033 1.356.033 1.834-.001s.044-.061-.965-.06c-1.008 0-1.399.028-.869.061m10.244-.001c.482.034 1.269.034 1.75 0 .482-.033.088-.061-.875-.061-.962 0-1.356.028-.875.061m10.756.001c.531.033 1.356.033 1.834-.001s.044-.061-.965-.06c-1.008 0-1.399.028-.869.061m-156.571.42c.07.069 4.022.107 8.784.083l8.656-.043-8.783-.084c-4.831-.046-8.727-.026-8.657.044m30.827.081c2.413.026 6.313.026 8.667 0s.38-.047-4.387-.047c-4.767 0-6.693.021-4.28.047m50.235.875c0 .321.035.452.077.292.041-.16.041-.423 0-.583-.042-.161-.077-.03-.077.291m108.334 0c0 .321.034.452.076.292.042-.16.042-.423 0-.583-.042-.161-.076-.03-.076.291M251.908 62.5c0 2.979.022 4.198.05 2.708.028-1.489.028-3.927 0-5.416-.028-1.49-.05-.271-.05 2.708m-26.783 5.291c1.123.029 2.96.029 4.083 0 1.123-.029.204-.052-2.041-.052-2.246 0-3.165.023-2.042.052m139.426 0c1.174.029 3.049.029 4.167 0 1.118-.029.157-.052-2.135-.052-2.291 0-3.206.024-2.032.052M174 68.042c0 .068 2.021.125 4.49.125 2.47 0 4.525-.057 4.568-.125.042-.069-1.979-.125-4.491-.125-2.512 0-4.567.056-4.567.125m80.198.082c1.164.029 3.114.029 4.334.001 1.22-.029.268-.052-2.115-.052-2.384 0-3.382.023-2.219.051M157.08 95.917c0 9.258.02 13.07.045 8.471.025-4.6.025-12.175 0-16.834-.025-4.659-.045-.896-.045 8.363m33.166-3c0 7.608.021 10.745.046 6.97.025-3.774.025-9.999 0-13.833-.025-3.834-.046-.746-.046 6.863m33.331 3.833c0 4.4.022 6.176.048 3.947.026-2.229.026-5.829 0-8-.026-2.171-.048-.347-.048 4.053m-6.5-.417c0 4.079.021 5.748.048 3.709.026-2.04.026-5.377 0-7.417-.027-2.04-.048-.371-.048 3.708m15.169 4.584c0 6.6.02 9.275.046 5.946.025-3.33.025-8.73 0-12-.026-3.271-.046-.546-.046 6.054m38.157-8.75c0 1.787.025 2.518.055 1.625.03-.894.03-2.357 0-3.25-.03-.894-.055-.163-.055 1.625m15.666-.084c.001 1.742.025 2.432.055 1.533.03-.898.03-2.323 0-3.166s-.055-.108-.055 1.633m7.677 8.75c0 6.555.02 9.236.046 5.959.025-3.277.025-8.64 0-11.917-.026-3.277-.046-.596-.046 5.958m31.164-4.5c0 4.079.022 5.748.048 3.709.027-2.04.027-5.377 0-7.417-.026-2.04-.048-.371-.048 3.708m-72.033-1.713c.254.038.629.037.834-.003.205-.039-.003-.071-.461-.069-.458.001-.626.033-.373.072m56.168.547c0 .412.033.581.073.375.039-.207.039-.544 0-.75-.04-.207-.073-.038-.073.375m63.698 10.083c0 4.125.022 5.789.049 3.697.026-2.092.026-5.467-.001-7.5-.026-2.033-.048-.322-.048 3.803m-108.356-5.917c0 .596.03.84.067.542.037-.298.037-.785 0-1.083-.037-.298-.067-.055-.067.541m-131.22.834c-.196.275-.319.5-.273.5.046 0 .244-.225.439-.5.196-.275.319-.5.273-.5-.046 0-.244.225-.439.5m128.46 3.118c.207.039.507.038.667-.004.159-.042-.011-.074-.377-.072-.367.002-.497.036-.29.076m23.776 6.548c0 1.788.025 2.519.055 1.625.03-.893.03-2.356 0-3.25-.03-.893-.055-.162-.055 1.625m-119.63 1.25c.385.658.394.668.394.463 0-.097-.155-.353-.344-.569l-.343-.394.293.5m108.894-.34c0 .067.15.312.333.545.183.233.333.369.333.302 0-.066-.15-.311-.333-.545-.183-.233-.333-.369-.333-.302"/></g></svg>