<svg xmlns="http://www.w3.org/2000/svg" role="img" viewBox="707.05 502.05 3143.40 638.40"><path fill="#FFF" d="M4280 1642H2.17233V2.23841h4553.81595c0 546.53234 0 1093.14697-.00586 1639.76159H4280M1719.55933 847.73987c-8.43506-27.04828-27.93726-44.05737-52.9989-56.1654 3.49926-3.31239 5.88452-5.59821 8.29956-7.85218 20.338-18.98132 27.56018-42.93897 24.6178-69.78424-4.964-45.2901-39.63917-75.1762-75.70972-82.43237-19.3894-3.90052-38.96839-4.10846-58.45581-4.92823-26.61267-1.11938-53.30762-.2992-79.96729-.2506-2.85193.00518-5.70312.40917-8.38794.61529-2.14892 23.83783-1.14429 349.11145 1.16602 356.76h10.7738c38.98975 0 77.98853.47816 116.96436-.25707 13.80603-.2605 28.04724-1.7931 41.24572-5.64032 53.27515-15.52918 91.10315-63.57282 72.4524-130.06488m184.70678 93.73126c23.57532-53.51617 47.15076-107.03235 70.61634-160.29932 13.8385-1.70196 52.10534-1.18365 59.4215.88275v10.77656c0 43.98876-.07336 87.97778.0697 131.96606.02479 7.60736.4364 15.29285 1.58704 22.80157 3.04822 19.88935 13.57569 33.36524 33.80225 38.57892 16.36499 4.21845 32.9685 3.46076 49.56323 3.47412 2.18238.00171 4.365-.57855 6.41406-.87023V939.6604c-8.82226 0-17.08837.2135-25.33837-.05841-8.698-.28674-12.65357-4.01544-13.90845-12.5329-.28906-1.9621-.16211-3.99109-.16235-5.98926-.00709-43.98877-.01417-87.97753.01708-131.9663.00196-2.57209.32569-5.14386.58252-8.9419h38.75904v-45.0091h-39.76782v-57.3681c-17.67286-.08941-34.41553-.4052-52.0531.16266v57.79865h-96.99708c-25.09423 61.33246-49.94299 122.06543-74.60864 182.35058-21.44848-61.2464-48.5763-121.13598-72.53918-182.32916-19.68775-.12665-38.41346-.22284-58.14112.02905 2.15662 5.52906 3.62989 9.5514 5.27991 13.5 30.89307 73.93427 61.75061 147.88367 92.83398 221.73792 2.26404 5.37915 2.19715 9.79333-.0824 15.06146-12.67614 29.29541-25.06567 58.71497-37.49767 88.1156-.96607 2.28491-1.50318 4.75147-2.40479 7.66773h52.96619c20.46643-46.5144 40.8053-92.73871 61.58813-140.41779m808.87842-27.29724c12.61743-17.57642 20.56519-37.1842 25.11353-58.224 6.45483-29.86029 7.05468-59.83826 2.15136-90.02515-10.03173-61.7589-44.22436-103.13415-103.18603-124.40301-31.44434-11.34265-64.14527-13.89398-97.0166-15.06738-22.96411-.81977-45.98096-.18122-68.97437-.12812-2.84326.00653-5.68554.41993-8.36181.63166-2.27832 29.12878-1.15455 349.03143 1.3125 356.7459 25.16479 0 50.47802.0636 75.79052-.01806 24.64014-.07947 49.08814-2.28565 73.1272-7.83814 39.7312-9.17718 74.16602-27.16857 100.0437-61.6737M1299.82288 737V586.04816c-30.54493-7.26001-60.21192-16.17096-90.55774-22.65607-2.47132 12.65704-1.8755 455.3736.72448 463.25915 29.68592-7.63262 59.44934-15.28509 89.83277-23.09698 0-88.77966 0-176.667.00049-266.55426m896.02478 224.15198c64.81494 50.4184 163.68799 30.56378 202.55053-30.2046-12.32422-9.82787-24.67114-19.67413-37.0376-29.53582-1.80712 1.67682-2.8728 2.48846-3.72558 3.48273-21.14673 24.65368-47.45728 38.13281-80.4248 36.72381-22.11158-.94506-41.64795-8.31335-56.86939-24.96643-9.62353-10.52887-16.14917-22.57446-16.65747-38.4569h204.38037c-.6399-7.99274-1.51343-14.82007-1.66748-21.66352-.34033-15.11981-3.07861-29.77844-8.34009-43.88422-15.4995-41.55206-43.90869-69.02288-87.59155-79.7467-13.74536-3.37433-27.70532-3.81921-41.66382-3.15125-43.98486 2.10492-78.50073 20.93085-101.06152 59.36267-18.59009 31.66767-21.31006 66.11835-14.59937 101.3639 5.33643 28.0296 19.74634 51.28595 42.70777 70.67633M3572.21509 763.2058c-14.71167 14.13837-25.34375 30.90173-30.79615 50.53925-2.82421 10.1715-4.53393 20.721-5.92529 31.2088-4.0808 30.76031 1.83252 59.6875 18.34986 85.9466 24.54272 39.01818 61.65771 56.43255 106.3916 58.60235 26.94482 1.30694 52.93408-3.9192 76.84228-17.2793 18.12989-10.13129 33.58057-23.2959 46.79663-40.4107a4207776.85172 4207776.85172 0 0 0-38.58496-30.8462c-3.58789 4.01606-6.51245 7.62574-9.7793 10.89307-24.55712 24.56177-53.90551 34.66968-88.22143 27.96307-26.58276-5.19513-46.19702-19.72631-56.17993-45.58465-1.82349-4.7232-2.4541-9.90692-3.8789-15.90326 12.91772 0 24.20898.00006 35.50024.00006H3723.69116c11.3291 0 22.65796.02905 33.98706-.00824 11.16577-.03674 22.34668.1712 33.81275-.15576 1.05078-26.68982-2.30176-51.2981-12.53955-74.39148-14.72779-33.22217-38.90064-56.67072-74.06275-68.09204-16.41894-5.3332-33.20263-6.59686-50.22827-5.98718-30.99463 1.10974-58.6272 10.82373-82.44531 33.50561m-548.51538 3.80182v-30.61877h-48.86304c-1.63818 8.90289.97168 17.55474-1.3899 24.66442-12.3496-7.29693-23.76757-15.58953-36.38451-21.17303-25.40845-11.24433-52.19996-11.7381-79.0464-5.76819-40.69726 9.04999-68.92724 33.11633-84.10082 71.9754-8.20996 21.02588-10.14893 42.9176-8.37207 65.43708 2.82812 35.84015 18.14648 64.94134 45.77295 87.4948 24.7688 20.22095 53.53052 28.65461 85.38086 27.357 26.50854-1.07995 50.1604-9.14087 69.91357-27.3551 1.09326-1.00812 2.43115-1.75049 5.32788-3.80042v27.9037h51.76123c0-71.75459 0-142.93745.00025-216.1169M793.5293 996.37183l66.3615-16.9865V610.4787c-30.27233-7.89758-60.18804-16.07062-90.88091-23.05225v415.10883c8.22693-2.03034 15.58484-3.84625 24.5194-6.16345m2360.01783-262.1609c-14.146 3.7032-26.21607 11.6698-39.50049 21.2115V736.4945h-49.7815v246.67114h50.05909V971.9348c0-38.30297-.11694-76.60656.08008-114.9085.05102-9.93348.36645-19.96784 1.81347-29.77088 3.125-21.16919 11.45533-39.30615 33.85523-46.18213 7.78686-2.39038 16.3208-3.14349 24.52685-3.21948 22.89624-.2118 37.87036 11.39746 42.99927 33.70532 2.36084 10.26783 3.7942 20.97248 3.89868 31.4964.427 42.96167.17798 85.93012.17798 128.89606v11.02008h51.56201c.18848-2.31983.43506-3.94171.4358-5.56372.02197-47.96198.32055-95.92682-.14893-143.88422-.15625-15.93976-3.13184-31.68982-9.14551-46.66784-8.08789-20.14472-20.78564-36.45124-40.4336-46.28186-21.93896-10.97712-45.05761-12.6333-70.39843-6.3631m223.37427 247.97455c23.15185 7.64825 46.77392 9.51526 70.80493 5.46649 26.04175-4.3877 48.04516-16.44507 67.33471-35.74-11.50537-13.19128-22.69189-26.01696-34.91406-40.03002-1.7085 2.505-2.63794 3.89361-3.59253 5.26483-23.63842 33.9544-91.46191 36.2865-116.68213-12.77148-9.86279-19.18519-12.13183-39.40131-9.37988-60.17298 4.39966-33.21045 26.40918-63.23437 64.4458-67.16028 22.96338-2.37005 43.47241 3.50287 59.39966 21.42078 1.42334 1.60101 3.21802 2.87189 5.29126 4.69226 11.37695-13.28662 22.25537-25.99103 34.12305-39.85083-10.34522-7.06982-18.99073-13.87408-28.44458-19.25891-22.11817-12.59857-46.4524-15.63898-71.42017-14.32233-41.13061 2.16889-74.0271 19.5423-97.2251 54.0293-20.5603 30.56561-25.74731 64.7196-19.88916 100.14148 7.75025 46.85992 34.04517 80.01062 80.1482 98.29169M1130.91345 949.8897c7.91492 1.91943 15.82996 3.83887 24.19849 5.86835V710.252l-90.80945 23.38971v198.92225c21.99487 5.78369 43.4878 11.43542 66.61096 17.32574m-199.12494 60.76697c24.04364-6.19928 48.08728-12.39856 71.88562-18.53461V793.24182c-30.24987-7.77807-60.03412-15.4364-90.67486-23.31494v245.29266c6.29315-1.46423 11.77417-2.73956 18.78924-4.56286z"/><path fill="#355CB5" d="M1719.75488 848.52307c18.4552 65.70886-19.3728 113.7525-72.64795 129.28168-13.19848 3.84723-27.4397 5.37982-41.24572 5.64032-38.97583.73523-77.97461.25708-116.96436.25708h-10.7738c-2.3103-7.64856-3.31494-332.92218-1.16602-356.76001 2.68482-.20612 5.53601-.6101 8.38794-.6153 26.65967-.04858 53.35461-.86877 79.96729.25061 19.48742.81977 39.0664 1.02771 58.4558 4.92823 36.07056 7.25616 70.74573 37.14227 75.70972 82.43237 2.94239 26.84528-4.27978 50.80292-24.6178 69.78424-2.41503 2.25397-4.80029 4.5398-8.29956 7.85217 25.06165 12.10803 44.56385 29.11713 53.19446 56.94861m-189.43506 76.04303c.16456 2.24762.32898 4.4953.5199 7.10358 2.0835.2486 3.67127.60052 5.25965.60303 23.30493.03692 46.64306.76135 69.90026-.29126 11.06458-.5008 22.41114-3.21937 32.85071-7.0545 14.86328-5.46015 24.6051-16.55573 27.87305-32.6111 4.94372-24.28838-1.94849-49.01507-28.2024-58.9093-9.78967-3.68945-20.48132-6.26623-30.88818-6.77783-23.57861-1.15905-47.23584-.73504-70.86145-.90088-1.88647-.01324-3.77575.38819-6.45202.68403 0 32.46148 0 64.35113.00048 98.15423m.00354-243.03778v93.08295c1.51416.82306 2.07288 1.39288 2.62928 1.39068 21.61364-.08429 43.36694 1.2721 64.80432-.73724 25.44104-2.3847 43.5326-13.6369 47.27624-41.43274 2.25061-16.71075-.4458-32.64233-14.31384-44.43445-7.51147-6.38708-16.50403-9.8496-26.1449-11.52905-23.11706-4.02692-46.4486-1.50073-69.67798-2.13422-2.6632-.07263-4.557.8208-4.57312 5.79407z"/><path fill="#345BB5" d="M1904.04407 942.19855c-20.5608 46.95166-40.89966 93.17596-61.3661 139.69037h-52.96618c.90161-2.91626 1.43872-5.38282 2.40479-7.66773 12.432-29.40063 24.82153-58.82019 37.49768-88.1156 2.27954-5.26813 2.34643-9.68231.0824-15.06146-31.08338-73.85425-61.94092-147.80365-92.83399-221.73792-1.65002-3.9486-3.12329-7.97094-5.2799-13.5 19.72765-.25189 38.45336-.1557 58.1411-.02905 23.9629 61.19318 51.0907 121.08276 72.5392 182.32916 24.66564-60.28515 49.5144-121.01812 74.60863-182.35058h96.99707v-57.79865c17.63758-.56787 34.38025-.25207 52.0531-.16266v57.3681h39.76783v45.0091h-38.75904c-.25683 3.79804-.58056 6.36981-.58252 8.9419-.03125 43.98877-.02417 87.97753-.01708 131.9663.00024 1.99817-.12671 4.02716.16235 5.98926 1.25488 8.51746 5.21045 12.24616 13.90845 12.5329 8.25.27191 16.5161.05841 25.33837.05841v49.12116c-2.04907.29168-4.23168.87194-6.41406.87023-16.59472-.01336-33.19824.74433-49.56323-3.47412-20.22656-5.21368-30.75403-18.68957-33.80225-38.57892-1.15063-7.50872-1.56225-15.1942-1.58703-22.80157-.14307-43.98828-.0697-87.9773-.0697-131.96606v-10.77656c-7.31617-2.0664-45.58301-2.58471-59.42151-.88275-23.46558 53.26697-47.04102 106.78315-70.83838 161.02674z"/><path fill="#355CB5" d="M2712.70947 914.74353c-25.44262 33.93549-59.87744 51.92688-99.60864 61.10406-24.03906 5.5525-48.48706 7.75867-73.1272 7.83814-25.3125.08166-50.62573.01807-75.79052.01807-2.46705-7.71448-3.59082-327.61713-1.3125-356.74591 2.67627-.21173 5.51855-.62513 8.36181-.63166 22.99341-.0531 46.01026-.69165 68.97437.12812 32.87133 1.1734 65.57226 3.72473 97.0166 15.06738 58.96167 21.26886 93.1543 62.6441 103.18603 124.40301 4.90332 30.1869 4.30347 60.16486-2.15136 90.02515-4.54834 21.0398-12.4961 40.64758-25.54859 58.79364m-33.1897-162.98969c-13.23925-37.1455-40.68725-57.89056-77.82128-67.5155-27.03101-7.00622-54.57251-7.0667-82.18726-6.1565-.49731.0163-.96802.84162-1.10571.9693v253.24848c13.31372 0 25.92651.07703 38.53784-.0169 22.49121-.16743 44.32568-4.13477 65.083-12.79499 23.24805-9.69946 41.49928-25.4607 52.0547-48.54803 17.50414-38.2851 17.53515-77.75208 5.43872-119.18586z"/><path fill="#79E6DC" d="M1299.82263 738c-.00024 88.88727-.00024 176.7746-.00024 265.55426-30.38342 7.81189-60.14685 15.46436-89.83277 23.09699-2.59997-7.88556-3.1958-450.60212-.72448-463.25916 30.34582 6.4851 60.01281 15.39606 90.55774 22.65607 0 51.09503 0 101.02343-.00025 151.95184z"/><path fill="#345CB5" d="M2195.29004 960.71191c-22.40381-18.95031-36.81372-42.20666-42.15015-70.23626-6.7107-35.24555-3.99072-69.69623 14.59937-101.3639 22.56079-38.43182 57.07666-57.25775 101.06152-59.36267 13.9585-.66796 27.91846-.22308 41.66382 3.15125 43.68286 10.72382 72.09204 38.19464 87.59155 79.7467 5.26148 14.10578 7.99976 28.7644 8.34009 43.88422.15405 6.84344 1.02759 13.67078 1.66748 21.66351h-204.38037c.5083 15.88245 7.03394 27.92804 16.65747 38.45691 15.22144 16.65308 34.75781 24.02137 56.86938 24.96643 32.96753 1.409 59.27808-12.07013 80.42481-36.72381.85278-.99427 1.91846-1.80591 3.72559-3.48273 12.36645 9.8617 24.71337 19.70795 37.0376 29.53583-38.86256 60.76837-137.7356 80.62298-203.10816 29.76452M2263 834.3105h84.88599c-1.79859-27.53937-28.98145-56.83374-68.79322-57.85218-41.67846-1.0661-72.4182 29.18323-74.84887 57.85242 18.96704 0 37.86157 0 58.7561-.00024zm1309.71484-71.60382c23.31836-22.18274 50.95093-31.89673 81.94556-33.00648 17.02563-.60968 33.80933.654 50.22827 5.98719 35.16211 11.42132 59.33496 34.86987 74.06275 68.09204 10.23779 23.09338 13.59033 47.70166 12.53955 74.39148-11.46607.32696-22.64698.11902-33.81275.15576-11.3291.0373-22.65796.00824-33.98706.00824H3622.72974c-11.29126 0-22.58252-.00006-35.50025-.00006 1.4248 5.99634 2.05542 11.18005 3.8789 15.90326 9.98292 25.85834 29.59718 40.38952 56.17994 45.58465 34.31592 6.7066 63.6643-3.4013 88.22144-27.96307 3.26684-3.26733 6.1914-6.87701 9.7793-10.89307a4207776.85172 4207776.85172 0 0 1 38.58495 30.8462c-13.21606 17.1148-28.66674 30.27941-46.79663 40.4107-23.9082 13.3601-49.89746 18.58624-76.84228 17.2793-44.73389-2.1698-81.84888-19.58417-106.3916-58.60236-16.51734-26.2591-22.43067-55.18628-18.34986-85.9466 1.39136-10.48779 3.10108-21.03728 5.9253-31.2088 5.45239-19.6375 16.08447-36.40087 31.2959-51.03838m78.00683 14.93408c-31.59717 1.77154-61.99536 32.4677-61.75537 56.05407H3733.125c-6.44458-38.01526-44.958-61.95465-82.40332-56.05407zm-627.02197-9.63483c-.00025 72.18115-.00025 143.36401-.00025 215.1186h-51.76123v-27.9037c-2.89673 2.04993-4.23462 2.7923-5.32788 3.80042-19.75317 18.21423-43.40503 26.27515-69.91357 27.3551-31.85034 1.29761-60.61206-7.13605-85.38086-27.357-27.62647-22.55346-42.94483-51.65466-45.77295-87.4948-1.77686-22.51947.1621-44.4112 8.37207-65.43708 15.17358-38.85907 43.40356-62.92541 84.10083-71.9754 26.84643-5.9699 53.63794-5.47613 79.04639 5.76819 12.61694 5.5835 24.0349 13.8761 36.38452 21.17303 2.36157-7.10968-.2483-15.76153 1.38989-24.66442h48.86304v31.61706m-87.30396 20.39581c-8.4475-4.81182-17.38306-8.2113-27.0769-9.48285-27.0122-3.54315-50.91114 2.74482-69.79444 23.1673-12.33422 13.33917-18.6311 29.35346-20.18457 47.67035-2.25097 26.54114 4.1172 49.4784 22.85743 69.229 24.41699 25.73304 77.45654 30.8941 108.32055-.0791 16.95044-17.01013 23.70874-37.81292 23.2085-61.49578-.61035-28.86304-11.53394-52.10346-37.33057-69.00892z"/><path fill="#335BB5" d="M792.74097 996.6225c-8.14624 2.06653-15.50415 3.88244-23.73108 5.91278V587.42645c30.69287 6.98163 60.60858 15.15467 90.88092 23.05225V979.3853c-22.141 5.66742-44.25128 11.32697-67.14984 17.23719z"/><path fill="#345BB5" d="M3154.354 734.02081c24.53394-6.08007 47.6526-4.42389 69.59156 6.55323 19.64795 9.83062 32.3457 26.13714 40.43359 46.28186 6.01367 14.97802 8.98926 30.72808 9.1455 46.66784.4695 47.9574.1709 95.92224.14893 143.88422-.00073 1.622-.24731 3.2439-.43579 5.56372h-51.562V971.9516c0-42.96594.24902-85.93439-.17799-128.89606-.10449-10.52392-1.53784-21.22857-3.89868-31.4964-5.1289-22.30786-20.10303-33.91711-42.99927-33.70532-8.20605.07599-16.73999.8291-24.52685 3.21948-22.3999 6.87598-30.73023 25.01294-33.85523 46.18213-1.44702 9.80304-1.76245 19.8374-1.81347 29.77088-.19702 38.30194-.08008 76.60553-.08008 114.9085v11.23084h-50.05908V736.4945h49.7815v18.92791c13.28442-9.54168 25.35448-17.5083 40.30736-21.4016z"/><path fill="#345CB5" d="M3376.16162 981.97723c-45.34326-18.07281-71.63818-51.2235-79.38843-98.08343-5.85815-35.42188-.67114-69.57587 19.88916-100.14148 23.198-34.487 56.09449-51.86041 97.2251-54.0293 24.96777-1.31665 49.302 1.72376 71.42017 14.32233 9.45385 5.38483 18.09936 12.18909 28.44458 19.25891-11.86768 13.8598-22.7461 26.5642-34.12305 39.85083-2.07324-1.82037-3.86792-3.09125-5.29126-4.69226-15.92724-17.9179-36.43628-23.79083-59.39966-21.42078-38.03662 3.9259-60.04614 33.94983-64.4458 67.16028-2.75195 20.77167-.4829 40.9878 9.37988 60.17298 25.22022 49.05798 93.0437 46.72589 116.68213 12.77148.9546-1.37122 1.88404-2.75983 3.59253-5.26483 12.22217 14.01306 23.4087 26.83874 34.91407 40.03003-19.28956 19.29492-41.29297 31.3523-67.33472 35.73999-24.031 4.04877-47.65308 2.18176-71.5647-5.67475z"/><path fill="#02C8D2" d="M1130.09839 949.77039c-22.3081-5.771-43.80103-11.42273-65.7959-17.20642V733.64172c29.82666-7.68243 59.92773-15.43554 90.80945-23.3897v245.50604c-8.36853-2.02948-16.28357-3.94892-25.01355-5.98767z"/><path fill="#3E8DFF" d="M931.02148 1010.93066c-6.24804 1.54932-11.72906 2.82465-18.02221 4.28888V769.92688c30.64074 7.87854 60.42498 15.53687 90.67486 23.31494v198.88025c-23.79834 6.13605-47.84198 12.33533-72.65265 18.8086z"/><path fill="#FDFEFE" d="M1530.31958 923.60938c-.00024-32.84638-.00024-64.73603-.00024-97.19751 2.67627-.29584 4.56555-.69727 6.45202-.68403 23.62561.16584 47.28284-.25817 70.86145.90088 10.40686.5116 21.09851 3.08838 30.88819 6.77783 26.2539 9.89423 33.14611 34.62092 28.20239 58.9093-3.26795 16.05537-13.00977 27.15095-27.87305 32.6111-10.43957 3.83513-21.78613 6.5537-32.8507 7.0545-23.2572 1.0526-46.59534.32818-69.90027.29125-1.58838-.0025-3.17615-.35443-5.25965-.60302-.19092-2.60828-.35534-4.85596-.52014-8.0603z"/><path fill="#FDFDFE" d="M1530.3413 680.58258c-.00182-4.02753 1.89198-4.92096 4.55518-4.84833 23.22937.63349 46.56092-1.8927 69.67798 2.13422 9.64087 1.67944 18.63343 5.14197 26.1449 11.52905 13.86804 11.79212 16.56445 27.7237 14.31384 44.43445-3.74365 27.79584-21.8352 39.04804-47.27624 41.43274-21.43738 2.00934-43.19068.65295-64.80432.73724-.5564.0022-1.11512-.56762-2.62928-1.39068 0-30.6759 0-61.87946.01795-94.02869z"/><path fill="#FEFEFF" d="M2679.71338 752.52399c11.90283 40.66363 11.87182 80.13061-5.63233 118.4157-10.55541 23.08735-28.80664 38.84858-52.05468 48.54804-20.75733 8.66022-42.5918 12.62756-65.08301 12.79498-12.61133.09394-25.22412.01691-38.53784.01691V679.05115c.1377-.12769.6084-.953 1.10571-.9693 27.61475-.91022 55.15625-.84973 82.18726 6.1565 37.13403 9.62493 64.58203 30.36999 78.01489 68.28564z"/><path fill="#FDFEFE" d="M2262 834.3106c-19.89453.00013-38.78906.00013-57.7561.00013 2.43066-28.66919 33.1704-58.91852 74.84887-57.85242 39.81177 1.01844 66.99463 30.3128 68.79322 57.85218-28.32447 0-56.60523 0-85.88599.00012z"/><path fill="#FDFDFE" d="M3651.5835 777.521c36.5835-5.78083 75.09692 18.15857 81.5415 56.17382h-144.1587c-.23998-23.58636 30.15821-54.28253 62.6172-56.17382z"/><path fill="#FDFEFE" d="M2937.0066 788.80719c25.18578 16.5 36.10937 39.74042 36.71972 68.60346.50024 23.68286-6.25806 44.48565-23.2085 61.49578-30.86401 30.9732-83.90356 25.81214-108.32055.0791-18.74024-19.7506-25.1084-42.68786-22.85743-69.229 1.55347-18.3169 7.85035-34.33118 20.18457-47.67035 18.8833-20.42248 42.78223-26.71045 69.79444-23.1673 9.69384 1.27155 18.6294 4.67103 27.68774 9.88831z"/></svg>