<svg xmlns="http://www.w3.org/2000/svg" role="img" viewBox="-13.08 -12.58 706.16 506.66"><path fill="#FDFEFE" d="M1.000003,385.000000 C1.000000,294.645782 1.000000,204.291550 1.265534,113.410202 C1.709159,112.849342 1.887251,112.815590 2.522913,112.874458 C26.389950,112.967072 49.799419,112.967072 73.298531,112.967072 C73.298531,122.901321 73.374062,132.061584 73.269524,141.219757 C73.209129,146.510437 71.674545,151.206116 66.231583,153.343491 C60.463718,155.608444 55.590969,153.478470 51.972767,149.070923 C47.364021,143.456726 43.290077,137.403519 38.644421,131.074783 C31.039183,135.920059 22.864342,141.128220 14.632648,146.372589 C35.680344,186.198441 61.943081,221.724411 89.707642,256.715302 C98.423088,250.356812 106.827614,244.225174 115.453873,237.931763 C99.551178,220.329742 84.164268,203.113159 71.877106,183.346191 C78.083282,179.222488 84.112625,175.418900 89.921967,171.304657 C97.084015,166.232407 101.514969,159.249222 102.126617,150.445450 C102.714378,141.985565 102.614571,133.476547 102.763939,124.988205 C102.832886,121.070061 102.775703,117.149704 102.775703,113.363449 C119.213142,113.363449 134.940430,113.363449 150.517517,113.363449 C150.517517,125.135880 150.517517,136.536865 150.517517,148.382477 C136.547043,148.382477 122.953148,148.382477 109.283356,148.382477 C109.283356,158.430695 109.283356,168.020844 109.283356,178.217957 C123.235840,178.217957 136.946854,178.217957 151.135529,178.217957 C151.135529,204.725845 151.135529,230.627731 151.135529,256.587830 C161.059250,256.587830 170.486053,256.587830 180.348312,256.587830 C180.348312,208.749176 180.348312,161.145782 180.348312,113.275085 C194.859070,113.275085 208.931366,113.275085 223.594955,113.275085 C223.594955,127.769386 223.594955,141.990936 223.594955,156.367584 C233.621674,156.367584 243.055786,156.367584 252.976639,156.367584 C252.976639,141.882721 252.976639,127.646217 252.976639,112.876137 C260.507538,112.876137 267.565887,112.876137 274.533844,112.876137 C274.533844,102.765472 274.533844,93.201309 274.533844,83.100517 C267.585876,83.100517 260.995911,83.100517 255.511368,83.100517 C251.441544,72.340950 248.416626,62.066990 243.798950,52.567245 C230.497147,25.201965 210.486374,6.367747 178.508270,3.448660 C153.222794,1.140500 132.024063,16.148294 127.639885,41.082104 C125.165657,55.153648 125.565285,69.380608 133.933380,82.290451 C131.665634,82.743988 129.686020,82.969902 127.706268,82.971069 C85.470848,82.995895 43.235424,82.995491 1.000000,83.000000 C1.000000,55.691494 1.000000,28.382984 1.000000,1.000000 C134.020889,1.000000 267.041779,1.000000 400.524902,1.275080 C400.979584,1.733443 400.972076,1.916726 400.599304,2.030469 C391.566620,6.297862 382.899139,10.634794 373.924591,15.125374 C393.370361,37.991932 412.273712,60.220669 431.862640,83.255608 C424.630951,83.255608 418.645905,83.520905 412.704926,83.125130 C410.325806,82.966644 407.513855,81.918015 405.800690,80.312370 C391.337952,66.757332 377.088440,52.974838 362.763794,39.272297 C359.710907,36.352020 356.612915,33.478935 353.176575,30.246256 C348.948486,38.332729 345.040924,45.806190 341.024658,53.487522 C357.183258,63.163746 373.056854,72.669296 388.930450,82.174850 C388.818481,82.571030 388.706512,82.967216 388.594543,83.363403 C357.419983,83.363403 326.245453,83.363403 294.991730,83.363403 C294.991730,91.241371 294.991730,98.480789 294.991730,106.293800 C337.510223,106.293800 379.714783,106.293800 421.880005,106.293800 C421.880005,113.656242 421.880005,120.437225 421.880005,127.754868 C419.845001,127.754868 418.056244,127.754944 416.267487,127.754868 C400.936920,127.754189 385.606262,127.720490 370.275818,127.762421 C356.110687,127.801163 348.207275,137.423462 351.679626,151.071915 C356.757294,171.030136 370.381561,184.353775 387.159088,194.958542 C392.878326,198.573578 399.157135,199.950989 405.818298,198.185120 C412.711029,196.357880 419.600555,194.480179 426.384857,192.293701 C432.609833,190.287476 435.558655,191.924973 436.033600,198.515549 C436.271942,201.822922 436.285736,205.207840 435.870697,208.490646 C433.740601,225.339294 423.091370,234.163788 406.232635,231.745316 C399.026611,230.711548 391.695770,227.898895 385.307587,224.315231 C366.919983,214.000031 353.464996,198.266373 341.235504,181.474060 C336.292725,174.687103 331.805603,167.568237 326.879578,160.256699 C320.633301,166.093079 314.706299,171.631165 308.834717,177.117477 C309.119202,177.921616 309.202698,178.423935 309.451599,178.823090 C325.446594,204.472534 345.182373,226.530060 371.531891,241.898590 C388.345276,251.705124 406.357056,255.415359 425.779236,251.004074 C458.245605,243.630096 474.647278,208.449112 459.108459,178.971588 C455.092255,171.352692 448.844788,166.983017 440.071014,168.070831 C434.351715,168.779922 428.498779,170.001755 423.197235,172.186508 C408.404724,178.282440 396.635193,175.086838 387.406769,162.105942 C386.349365,160.618591 384.936920,159.335083 384.121094,157.736572 C383.042786,155.623734 382.390869,153.293274 381.555695,151.056335 C383.945923,150.286819 386.329742,148.873779 388.727386,148.849960 C407.388855,148.664474 426.052979,148.746490 444.716278,148.745850 C446.462189,148.745789 448.208069,148.745834 450.581360,148.745834 C450.581360,134.052856 450.581360,120.167915 450.581360,106.362686 C486.827576,106.362686 522.437500,106.362686 558.157166,106.362686 C558.301514,107.435783 558.504578,108.245522 558.505737,109.055557 C558.541443,133.383057 558.608032,157.710846 558.481262,182.037628 C558.470947,184.015686 557.658691,186.565994 556.284607,187.852219 C552.197449,191.678238 548.046753,195.754684 543.187012,198.369461 C533.665710,203.492447 521.996277,201.348282 515.573425,194.270981 C502.594086,179.969162 508.149628,157.055023 526.366943,151.098404 C532.592468,149.062820 539.305420,148.518234 546.216003,147.213013 C544.265137,140.082840 542.220703,132.610687 540.058594,124.708565 C535.312866,125.138680 530.840088,125.377075 526.415283,125.972115 C496.938599,129.936096 479.960236,149.365295 481.206116,177.600525 C482.580933,208.757294 508.107208,229.701614 538.163025,223.840485 C545.017639,222.503769 551.507812,219.298172 558.649841,216.782196 C558.649841,229.891144 558.649841,243.124863 558.649841,256.485260 C568.621155,256.485260 578.011658,256.485260 587.797913,256.485260 C587.797913,254.357300 587.797852,252.555557 587.797913,250.753815 C587.798401,229.590958 588.342468,208.408279 587.571655,187.273560 C587.182007,176.590561 591.895447,169.487152 599.355835,163.398315 C606.458496,157.601379 614.718018,155.944199 623.253235,159.523346 C631.321716,162.906769 633.464783,170.309280 634.222900,178.305496 C635.283020,189.487839 631.834595,199.475021 625.480286,208.328033 C620.373230,215.443481 614.371826,221.917023 608.558350,228.927277 C615.092407,233.900162 622.042419,239.189606 629.887939,245.160583 C636.542725,236.923264 643.382080,229.399109 649.135620,221.120346 C658.332031,207.887802 664.086487,193.361755 663.057251,176.737274 C661.315063,148.597931 632.211914,128.199081 605.444458,136.899216 C599.310913,138.892776 593.758911,142.675644 588.178833,145.513214 C588.178833,132.811264 588.178833,119.595558 588.178833,106.087463 C596.881226,106.087463 605.191345,106.112640 613.501404,106.082573 C635.320496,106.003624 657.139465,105.900597 679.220703,105.845512 C679.655273,105.922577 679.827637,105.961288 680.000000,106.000000 C680.000000,173.354233 680.000000,240.708450 679.758362,308.578552 C679.150513,309.219452 678.982056,309.474854 678.620117,309.854553 C676.485535,309.597260 674.742249,309.346100 672.537842,309.005096 C650.383972,308.989960 628.691101,309.064697 606.549805,309.080658 C593.680176,309.424713 581.775024,312.044495 570.660034,317.684448 C538.716187,333.893311 522.419739,360.461670 522.538391,395.783325 C522.682312,438.590881 552.403137,471.941101 594.626160,479.330994 C596.135254,479.595123 597.544312,480.430725 599.000000,481.000000 C569.645752,481.000000 540.291565,481.000000 510.503204,480.760742 C510.069092,480.521515 510.001282,480.042877 510.168823,479.595581 C510.276764,449.181610 510.821320,419.198578 510.010986,389.252197 C508.894806,348.000275 474.740845,312.767792 433.551605,309.168213 C386.886169,305.090088 346.230408,338.289764 340.610596,385.020996 C340.373383,385.244934 340.235718,385.396210 340.268433,385.484283 C340.355591,385.719360 340.516022,385.927277 340.640625,386.484924 C340.516937,388.186401 340.399994,389.548920 340.129272,391.363678 C339.983673,421.543976 339.991821,451.271973 340.000000,481.000000 C310.645782,481.000000 281.291534,481.000000 251.613327,480.622864 C257.296082,478.986206 263.476898,478.264282 269.282745,476.384399 C330.436523,456.583618 349.166504,380.467010 304.280060,334.515381 C293.671021,323.654572 281.102234,316.199554 266.069183,312.611053 C264.979370,311.976044 264.005615,311.639862 262.716522,311.178345 C261.952881,311.027466 261.504578,311.001862 260.765350,310.781769 C259.324677,310.451050 258.174866,310.314789 256.698547,310.061981 C255.912781,309.961853 255.453568,309.978271 254.668198,309.805786 C252.567566,309.486176 250.793091,309.355499 248.579498,309.139343 C245.760071,309.065613 243.379745,309.077393 240.538116,309.000549 C219.051605,308.972443 198.026428,309.032959 176.559570,309.006714 C174.851944,308.919922 173.585999,308.919922 172.259750,308.919922 C172.259750,322.662933 172.259750,335.896912 172.259750,349.552368 C174.347397,349.552368 176.147446,349.544983 177.947433,349.553467 C201.419128,349.664215 224.922562,349.061218 248.353165,350.100342 C269.802155,351.051575 286.770569,370.487122 287.808624,393.164246 C288.809753,415.034576 273.472382,435.932739 252.507385,438.595062 C239.297974,440.272552 225.702255,438.907898 211.644104,438.907898 C211.644104,434.345734 211.644104,429.292419 211.644104,424.282593 C198.112137,424.282593 185.212112,424.282593 172.170273,424.282593 C172.170273,443.054596 172.170273,461.505432 172.105148,480.213501 C172.026688,480.647186 172.013351,480.823578 172.000000,481.000000 C167.975449,481.000000 163.950912,481.000000 159.439743,480.563538 C158.886444,478.390106 158.819778,476.653168 158.770020,474.453369 C158.775467,467.025391 158.764023,460.060211 158.877716,452.688812 C158.921783,451.162811 158.840698,450.043060 158.780853,448.488098 C158.778366,445.728333 158.754639,443.403778 158.807831,440.808228 C158.594269,440.363617 158.303787,440.190063 157.548492,439.944641 C134.100250,439.862183 111.115990,439.964813 88.133690,439.798126 C74.535637,439.699524 62.493629,435.293610 53.623745,424.620056 C41.274185,409.759308 39.230927,392.931885 47.074631,375.569397 C54.773308,358.527893 68.846519,349.912842 87.531494,349.662598 C109.178970,349.372681 130.833176,349.585999 152.484467,349.580994 C154.435303,349.580536 156.386139,349.580933 158.508057,349.580933 C158.508057,335.728851 158.508057,322.506165 158.508057,308.874634 C156.561783,308.874634 154.925873,308.874542 153.289948,308.874603 C132.138290,308.875610 110.986610,308.858185 89.835014,308.894043 C85.842010,308.900787 81.804283,308.776306 77.863533,309.293732 C38.563591,314.453949 9.624928,342.242310 2.698687,381.230072 C2.464946,382.545776 1.580918,383.745972 1.000003,385.000000 M210.236160,389.571350 C206.782608,389.531738 203.327850,389.414459 199.875717,389.467529 C190.719421,389.608215 181.564255,389.822510 172.069321,390.830109 C172.161133,392.890015 172.252945,394.949921 172.904007,397.544128 C185.668747,397.544128 198.433502,397.544128 211.985153,397.544128 C211.591263,394.746368 211.266510,392.439758 210.933975,390.055664 C210.933975,390.055664 210.858017,390.073029 210.236160,389.571350 M249.252197,256.828949 C250.496872,256.007843 252.814529,255.202484 252.826859,254.363281 C253.046448,239.414490 252.986221,224.461578 252.986221,209.349197 C242.956955,209.349197 233.395462,209.349197 223.635574,209.349197 C223.635574,225.199326 223.635574,240.774384 223.635574,256.829773 C232.052887,256.829773 240.176834,256.829773 249.252197,256.828949 M172.028397,414.307739 C173.037079,414.855042 174.025131,415.823151 175.058151,415.873749 C178.709641,416.052551 182.376495,415.906403 186.037552,415.903381 C194.457230,415.896423 202.876892,415.901184 211.411285,415.901184 C211.411285,412.193451 211.411285,409.126678 211.411285,405.803284 C198.207794,405.803284 185.309509,405.803284 171.973648,405.803284 C171.973648,408.473999 171.973648,410.939667 172.028397,414.307739 M248.225281,198.795731 C249.647064,198.680237 251.068848,198.564728 252.443298,198.453079 C252.443298,194.882675 252.443298,191.801620 252.443298,188.568176 C242.590836,188.568176 233.063370,188.568176 223.510941,188.568176 C223.510941,192.095261 223.510941,195.286041 223.510941,198.797272 C231.716827,198.797272 239.498947,198.797272 248.225281,198.795731 M236.508606,167.092834 C232.115067,167.092834 227.721512,167.092834 223.529968,167.092834 C223.529968,171.135223 223.529968,174.342636 223.529968,177.370377 C233.469391,177.370377 242.978500,177.370377 252.332474,177.370377 C252.332474,173.715973 252.332474,170.512878 252.332474,167.092834 C247.096664,167.092834 242.299332,167.092834 236.508606,167.092834 M192.499557,381.650238 C198.766541,381.650238 205.033524,381.650238 211.481354,381.650238 C211.481354,379.484894 211.481354,377.918762 211.481354,376.225037 C198.177353,376.225037 185.152023,376.225037 171.836411,376.225037 C171.993896,378.166840 172.121826,379.744049 172.276413,381.650085 C178.914948,381.650085 185.207550,381.650085 192.499557,381.650238 M172.246658,364.734772 C170.997147,368.380066 173.567841,368.033875 175.734055,368.037109 C186.512878,368.053192 197.292648,368.114258 208.069321,367.962341 C209.299194,367.945007 210.511688,366.694763 211.732239,366.016174 C210.437103,365.400757 209.146835,364.263672 207.846054,364.251526 C196.240601,364.143250 184.633270,364.233521 172.246658,364.734772 z"/><path fill="#FFF" d="M400.964539,2.100007 C400.972076,1.916726 400.979584,1.733443 400.993561,1.275080 C493.887177,1.000000 586.774353,1.000000 680.000000,1.000000 C680.000000,28.019953 680.000000,55.041317 679.532837,82.575035 C678.234558,83.056213 677.403503,82.997818 676.572449,82.997757 C602.010681,82.992409 527.448975,82.989754 452.887238,83.004761 C451.570007,83.005028 450.252838,83.221138 448.556458,83.301285 C447.191589,82.525810 445.829803,81.997749 445.275146,81.014412 C430.454254,54.738190 415.716461,28.415125 400.964539,2.100007 z"/><path fill="#03597C" d="M172.170273,479.956238 C172.170273,461.505432 172.170273,443.054596 172.170273,424.282593 C185.212112,424.282593 198.112137,424.282593 211.644104,424.282593 C211.644104,429.292419 211.644104,434.345734 211.644104,438.907898 C225.702255,438.907898 239.297974,440.272552 252.507385,438.595062 C273.472382,435.932739 288.809753,415.034576 287.808624,393.164246 C286.770569,370.487122 269.802155,351.051575 248.353165,350.100342 C224.922562,349.061218 201.419128,349.664215 177.947433,349.553467 C176.147446,349.544983 174.347397,349.552368 172.259750,349.552368 C172.259750,335.896912 172.259750,322.662933 172.259750,308.919922 C173.585999,308.919922 174.851944,308.919922 176.659424,309.395508 C178.215637,310.246735 179.229202,310.946564 180.245163,310.950073 C199.351456,311.015503 218.458252,311.031342 237.564102,310.916870 C238.712814,310.910004 239.854492,309.725647 240.999451,309.089172 C243.379745,309.077393 245.760071,309.065613 248.769516,309.429749 C251.263885,309.868713 253.129105,309.931702 254.994339,309.994690 C255.453568,309.978271 255.912781,309.961853 256.951660,310.309998 C258.706299,310.775116 259.881287,310.875671 261.056244,310.976257 C261.504578,311.001862 261.952881,311.027466 262.885284,311.443726 C264.307983,312.192932 265.246582,312.551392 266.185211,312.909882 C281.102234,316.199554 293.671021,323.654572 304.280060,334.515381 C349.166504,380.467010 330.436523,456.583618 269.282745,476.384399 C263.476898,478.264282 257.296082,478.986206 251.144669,480.622864 C249.285645,481.000000 247.571289,481.000000 245.188324,480.646484 C242.701141,480.193329 240.882660,480.009521 239.063934,480.006897 C216.766068,479.974609 194.468170,479.968872 172.170273,479.956238 M186.565475,337.000000 C183.588196,337.000000 180.610901,337.000000 177.633621,337.000000 C177.662872,337.441681 177.692139,337.883331 177.721390,338.325012 C198.579010,338.325012 219.436630,338.325012 240.294235,338.325012 C240.293777,337.883331 240.293304,337.441681 240.292831,337.000000 C222.709793,337.000000 205.126770,337.000000 186.565475,337.000000 M257.442444,313.707764 C257.710205,313.988495 257.977966,314.269226 258.245728,314.549957 C258.361969,314.438965 258.478241,314.328003 258.594513,314.217041 C258.326385,313.936249 258.058258,313.655457 257.442444,313.707764 z"/><path fill="#02597C" d="M599.416626,481.000000 C597.544312,480.430725 596.135254,479.595123 594.626160,479.330994 C552.403137,471.941101 522.682312,438.590881 522.538391,395.783325 C522.419739,360.461670 538.716187,333.893311 570.660034,317.684448 C581.775024,312.044495 593.680176,309.424713 606.561096,309.449341 C609.086914,310.251221 611.151550,310.941071 613.219421,310.950684 C631.500122,311.035736 649.781738,311.048767 668.061890,310.917145 C669.711853,310.905304 671.353455,309.729950 672.998901,309.094940 C674.742249,309.346100 676.485535,309.597260 678.604126,310.207031 C678.752563,312.599365 678.322632,314.634064 678.332703,316.666595 C678.386841,327.583771 678.550537,338.500397 678.430115,349.474548 C677.846741,349.532562 677.509644,349.533234 676.803162,349.332214 C655.343567,349.086487 634.253357,349.043427 613.163147,348.995850 C611.835510,348.992859 610.165527,349.459900 609.245300,348.836548 C606.598267,347.043427 604.811340,348.357788 602.521484,349.961334 C597.894836,351.085022 593.323914,351.471832 589.487488,353.355072 C570.401123,362.724365 559.829163,382.409119 563.668823,402.919739 C567.802795,425.002411 585.589600,439.610565 608.601624,439.822662 C632.051086,440.038757 655.503052,439.986877 678.965332,440.517334 C678.947937,453.925964 678.919067,466.869568 678.433105,479.880798 C654.822083,479.960693 631.668152,479.954102 608.514465,480.028625 C607.008667,480.033478 605.504761,480.661713 604.000000,481.000000 C602.611084,481.000000 601.222229,481.000000 599.416626,481.000000 M627.500854,338.998779 C642.438049,338.998779 657.375244,338.998779 672.312500,338.998779 C672.301147,338.558899 672.289795,338.119019 672.278442,337.679138 C651.420593,337.679138 630.562744,337.679138 609.704895,337.679138 C609.701294,338.119019 609.697754,338.558899 609.694153,338.998779 C615.296692,338.998779 620.899231,338.998779 627.500854,338.998779 z"/><path fill="#095C7E" d="M158.730927,441.079224 C158.754639,443.403778 158.778366,445.728333 158.578705,448.737915 C158.487732,450.647003 158.620148,451.871002 158.752563,453.095032 C158.764023,460.060211 158.775467,467.025391 158.566345,474.738770 C158.223633,476.657349 158.101471,477.827728 157.780869,479.087158 C157.328323,479.336456 157.146545,479.556519 156.760864,479.869324 C156.300110,479.883759 156.115570,479.865204 155.622543,479.582703 C154.495895,479.213959 153.677826,479.018127 152.859589,479.017456 C128.378952,478.997742 103.898277,478.989197 79.417656,479.020111 C78.295944,479.021515 77.174706,479.404846 75.658020,479.643372 C38.943489,473.716095 12.275999,449.001709 3.540838,413.243835 C2.782822,410.140839 1.851053,407.080261 0.999997,404.000000 C1.000000,397.978851 1.000000,391.957703 1.000003,385.468262 C1.580918,383.745972 2.464946,382.545776 2.698687,381.230072 C9.624928,342.242310 38.563591,314.453949 77.863533,309.293732 C81.804283,308.776306 85.842010,308.900787 89.835014,308.894043 C110.986610,308.858185 132.138290,308.875610 153.289948,308.874603 C154.925873,308.874542 156.561783,308.874634 158.508057,308.874634 C158.508057,322.506165 158.508057,335.728851 158.508057,349.580933 C156.386139,349.580933 154.435303,349.580536 152.484467,349.580994 C130.833176,349.585999 109.178970,349.372681 87.531494,349.662598 C68.846519,349.912842 54.773308,358.527893 47.074631,375.569397 C39.230927,392.931885 41.274185,409.759308 53.623745,424.620056 C62.493629,435.293610 74.535637,439.699524 88.133690,439.798126 C111.115990,439.964813 134.100250,439.862183 157.605072,440.161743 C158.227371,440.756927 158.428864,440.966431 158.730927,441.079224 M28.900295,394.519073 C30.244396,360.326355 55.301311,336.167664 89.567055,336.077087 C106.226608,336.033020 122.886368,336.068359 139.546036,336.067749 C141.328720,336.067688 143.111404,336.067749 145.075760,336.067749 C145.075760,331.447388 145.075760,327.384460 145.075760,322.861420 C131.829651,322.861420 118.876060,322.742462 105.925835,322.900238 C96.117287,323.019714 86.194656,322.630951 76.527817,323.959839 C39.117451,329.102509 13.885414,361.314514 15.873630,400.585968 C17.677637,436.218964 47.854359,465.897247 84.063797,466.992920 C103.538193,467.582153 123.042473,467.186523 142.533295,467.219696 C143.322189,467.221039 144.111343,467.062592 145.091156,466.958282 C145.091156,462.619873 145.091156,458.556000 145.091156,454.004913 C143.054230,454.004913 141.258423,454.004944 139.462631,454.004883 C122.802963,454.004211 106.143280,454.020569 89.483643,453.999359 C55.299232,453.955902 30.227358,429.726868 28.900295,394.519073 z"/><path fill="#FEFFFF" d="M678.953918,440.052307 C655.503052,439.986877 632.051086,440.038757 608.601624,439.822662 C585.589600,439.610565 567.802795,425.002411 563.668823,402.919739 C559.829163,382.409119 570.401123,362.724365 589.487488,353.355072 C593.323914,351.471832 597.894836,351.085022 602.992065,350.035156 C625.655762,350.040924 647.454529,350.035309 669.253174,349.978516 C671.893311,349.971619 674.532776,349.688782 677.172546,349.533875 C677.509644,349.533234 677.846741,349.532562 678.760132,349.622314 C679.557678,349.808502 679.778870,349.904266 680.000000,350.000000 C680.000000,379.687561 680.000000,409.375122 679.736816,439.510834 C679.300354,439.990082 679.127136,440.021210 678.953918,440.052307 z"/><path fill="#FDFEFE" d="M470.000000,481.000000 C440.645782,481.000000 411.291534,481.000000 381.452576,480.531311 C380.868866,469.654114 380.769867,459.245575 380.665100,448.411072 C380.657288,445.712921 380.655273,443.440735 380.785583,440.860901 C380.889496,440.331757 380.861053,440.110291 381.135803,439.582031 C386.168854,439.275208 390.898743,439.275208 395.494385,439.275208 C395.494385,425.348419 395.494385,412.438049 395.494385,399.018494 C390.417053,399.018494 385.671844,399.018494 380.768829,399.018494 C379.850891,379.787994 386.705597,364.821594 402.919556,355.178284 C418.212830,346.082428 434.125397,346.195557 449.243134,355.756073 C463.438904,364.733582 469.991547,378.284485 470.061646,394.956787 C470.180756,423.273743 470.189545,451.591156 470.171082,480.178467 C470.064972,480.632416 470.032501,480.816223 470.000000,481.000000 M414.028595,421.498932 C414.028595,414.111115 414.028595,406.723267 414.028595,399.527985 C410.176727,399.527985 407.135834,399.527985 404.263794,399.527985 C404.263794,412.945496 404.263794,425.954559 404.263794,438.751434 C407.720551,438.751434 410.778778,438.751434 414.028625,438.751434 C414.028625,433.084930 414.028625,427.791656 414.028595,421.498932 M421.951874,414.503967 C421.951874,422.600372 421.951874,430.696747 421.951874,438.794983 C424.894775,438.794983 427.278839,438.794983 429.582764,438.794983 C429.582764,425.418823 429.582764,412.389374 429.582764,399.389008 C426.913544,399.389008 424.652313,399.389008 421.951874,399.389008 C421.951874,404.268250 421.951874,408.887054 421.951874,414.503967 M443.355560,419.499939 C443.355560,412.783966 443.355560,406.068024 443.355560,399.062531 C441.097687,399.216705 439.689514,399.312836 438.198883,399.414612 C438.198883,412.757355 438.198883,425.762665 438.198883,439.113922 C440.063904,439.021118 441.607635,438.944305 443.355682,438.857300 C443.355682,432.412140 443.355682,426.455963 443.355560,419.499939 M455.008789,424.494751 C455.008453,417.038055 455.068451,409.580292 454.936829,402.125916 C454.918945,401.113403 453.941925,400.117859 453.408997,399.114441 C452.668365,400.105377 451.297211,401.087769 451.283600,402.088623 C451.128113,413.520081 451.118439,424.955231 451.275177,436.386566 C451.289948,437.463379 452.699219,438.521088 453.461029,439.587677 C453.976959,439.330353 454.492859,439.073059 455.008789,438.815765 C455.008789,434.374176 455.008789,429.932587 455.008789,424.494751 z"/><path fill="#FCFEFE" d="M0.999997,404.468658 C1.851053,407.080261 2.782822,410.140839 3.540838,413.243835 C12.275999,449.001709 38.943489,473.716095 75.906799,479.810974 C76.700531,480.296997 76.850266,480.648499 77.000000,481.000000 C51.739311,481.000000 26.478624,481.000000 1.000000,481.000000 C1.000000,455.646179 1.000000,430.291748 0.999997,404.468658 z"/><path fill="#5498B8" d="M448.935638,83.336533 C450.252838,83.221138 451.570007,83.005028 452.887238,83.004761 C527.448975,82.989754 602.010681,82.992409 676.572449,82.997757 C677.403503,82.997818 678.234558,83.056213 679.532837,83.043694 C680.000000,90.354256 680.000000,97.708504 680.000000,105.531380 C679.827637,105.961288 679.655273,105.922577 679.200867,105.391281 C678.918823,98.121643 678.918823,91.344582 678.918823,83.986038 C676.403564,83.986038 674.456787,83.986023 672.510010,83.986046 C599.931824,83.986786 527.353638,83.992607 454.775421,83.960983 C452.828735,83.960129 450.882233,83.553787 448.935638,83.336533 z"/><path fill="#559CB7" d="M2.065343,112.781845 C1.887251,112.815590 1.709159,112.849342 1.265534,112.941544 C1.000000,103.312439 1.000000,93.624878 1.000000,83.468658 C43.235424,82.995491 85.470848,82.995895 127.706268,82.971069 C129.686020,82.969902 131.665634,82.743988 134.195358,82.542145 C133.064835,82.960846 131.385162,83.892670 129.703583,83.896088 C88.981697,83.978928 48.259609,83.959305 7.537565,83.976006 C5.800815,83.976715 4.064134,84.148331 2.065343,84.254204 C2.065343,94.189636 2.065343,103.485741 2.065343,112.781845 z"/><path fill="#80B9D3" d="M380.670837,448.837036 C380.769867,459.245575 380.868866,469.654114 380.983948,480.531311 C367.645782,481.000000 354.291534,481.000000 340.468658,481.000000 C339.991821,451.271973 339.983673,421.543976 340.311737,391.729492 C340.647980,420.872864 340.647980,450.102692 340.647980,479.517731 C354.090912,479.517731 366.949188,479.517731 380.109894,479.517731 C380.109894,476.981598 380.070984,474.831146 380.116821,472.682495 C380.286377,464.733704 380.483856,456.785461 380.670837,448.837036 z"/><path fill="#64A2C0" d="M157.979309,478.998138 C158.101471,477.827728 158.223633,476.657349 158.549454,475.201569 C158.819778,476.653168 158.886444,478.390106 158.976562,480.563538 C132.979111,481.000000 106.958214,481.000000 80.679070,480.620239 C82.060921,480.140106 83.700844,479.955414 85.341141,479.951965 C108.871078,479.902527 132.401062,479.877502 155.931046,479.846619 C156.115570,479.865204 156.300110,479.883759 156.996826,479.838501 C157.832581,479.616943 157.989349,479.358093 157.979309,478.998138 z"/><path fill="#195672" d="M155.622543,479.582703 C132.401062,479.877502 108.871078,479.902527 85.341141,479.951965 C83.700844,479.955414 82.060921,480.140106 80.210411,480.620239 C79.250000,481.000000 78.500000,481.000000 77.375000,481.000000 C76.850266,480.648499 76.700531,480.296997 76.302017,479.777893 C77.174706,479.404846 78.295944,479.021515 79.417656,479.020111 C103.898277,478.989197 128.378952,478.997742 152.859589,479.017456 C153.677826,479.018127 154.495895,479.213959 155.622543,479.582703 z"/><path fill="#6DAECE" d="M604.468628 481C605.504761 480.661713 607.008667 480.033478 608.514465 480.028625 631.668152 479.954102 654.822083 479.960693 678.468018 480.176819 678.97345 480.603516 678.986755 480.801758 679 481 654.312439 481 629.624878 481 604.468628 481zM172.105148 480.213501C194.46817 479.968872 216.766068 479.974609 239.063934 480.006897 240.88266 480.009521 242.701141 480.193329 244.759857 480.646484 220.979111 481 196.958206 481 172.468658 481 172.013351 480.823578 172.026688 480.647186 172.105148 480.213501z"/><path fill="#86A3B2" d="M680.000000,349.531342 C679.778870,349.904266 679.557678,349.808502 679.006470,349.564972 C678.550537,338.500397 678.386841,327.583771 678.332703,316.666595 C678.322632,314.634064 678.752563,312.599365 678.995361,310.213135 C678.982056,309.474854 679.150513,309.219452 679.758362,309.047241 C680.000000,322.354218 680.000000,335.708466 680.000000,349.531342 z"/><path fill="#80ABBE" d="M679.500000,481.000000 C678.986755,480.801758 678.973450,480.603516 678.925171,480.109222 C678.919067,466.869568 678.947937,453.925964 678.965332,440.517334 C679.127136,440.021210 679.300354,439.990082 679.736816,439.979492 C680.000000,453.666656 680.000000,467.333344 679.500000,481.000000 z"/><path fill="#98CFEC" d="M470.468658,481.000000 C470.032501,480.816223 470.064972,480.632416 470.620056,480.192108 C484.095490,479.971375 497.048401,480.007141 510.001282,480.042908 C510.001282,480.042877 510.069092,480.521515 510.034546,480.760742 C496.979095,481.000000 483.958221,481.000000 470.468658,481.000000 z"/><path fill="#055A7D" d="M448.556458,83.301285 C450.882233,83.553787 452.828735,83.960129 454.775421,83.960983 C527.353638,83.992607 599.931824,83.986786 672.510010,83.986046 C674.456787,83.986023 676.403564,83.986038 678.918823,83.986038 C678.918823,91.344582 678.918823,98.121643 678.938660,105.352936 C657.139465,105.900597 635.320496,106.003624 613.501404,106.082573 C605.191345,106.112640 596.881226,106.087463 588.178833,106.087463 C588.178833,119.595558 588.178833,132.811264 588.178833,145.513214 C593.758911,142.675644 599.310913,138.892776 605.444458,136.899216 C632.211914,128.199081 661.315063,148.597931 663.057251,176.737274 C664.086487,193.361755 658.332031,207.887802 649.135620,221.120346 C643.382080,229.399109 636.542725,236.923264 629.887939,245.160583 C622.042419,239.189606 615.092407,233.900162 608.558350,228.927277 C614.371826,221.917023 620.373230,215.443481 625.480286,208.328033 C631.834595,199.475021 635.283020,189.487839 634.222900,178.305496 C633.464783,170.309280 631.321716,162.906769 623.253235,159.523346 C614.718018,155.944199 606.458496,157.601379 599.355835,163.398315 C591.895447,169.487152 587.182007,176.590561 587.571655,187.273560 C588.342468,208.408279 587.798401,229.590958 587.797913,250.753815 C587.797852,252.555557 587.797913,254.357300 587.797913,256.485260 C578.011658,256.485260 568.621155,256.485260 558.649841,256.485260 C558.649841,243.124863 558.649841,229.891144 558.649841,216.782196 C551.507812,219.298172 545.017639,222.503769 538.163025,223.840485 C508.107208,229.701614 482.580933,208.757294 481.206116,177.600525 C479.960236,149.365295 496.938599,129.936096 526.415283,125.972115 C530.840088,125.377075 535.312866,125.138680 540.058594,124.708565 C542.220703,132.610687 544.265137,140.082840 546.216003,147.213013 C539.305420,148.518234 532.592468,149.062820 526.366943,151.098404 C508.149628,157.055023 502.594086,179.969162 515.573425,194.270981 C521.996277,201.348282 533.665710,203.492447 543.187012,198.369461 C548.046753,195.754684 552.197449,191.678238 556.284607,187.852219 C557.658691,186.565994 558.470947,184.015686 558.481262,182.037628 C558.608032,157.710846 558.541443,133.383057 558.505737,109.055557 C558.504578,108.245522 558.301514,107.435783 558.157166,106.362686 C522.437500,106.362686 486.827576,106.362686 450.581360,106.362686 C450.581360,120.167915 450.581360,134.052856 450.581360,148.745834 C448.208069,148.745834 446.462189,148.745789 444.716278,148.745850 C426.052979,148.746490 407.388855,148.664474 388.727386,148.849960 C386.329742,148.873779 383.945923,150.286819 381.555695,151.056335 C382.390869,153.293274 383.042786,155.623734 384.121094,157.736572 C384.936920,159.335083 386.349365,160.618591 387.406769,162.105942 C396.635193,175.086838 408.404724,178.282440 423.197235,172.186508 C428.498779,170.001755 434.351715,168.779922 440.071014,168.070831 C448.844788,166.983017 455.092255,171.352692 459.108459,178.971588 C474.647278,208.449112 458.245605,243.630096 425.779236,251.004074 C406.357056,255.415359 388.345276,251.705124 371.531891,241.898590 C345.182373,226.530060 325.446594,204.472534 309.451599,178.823090 C309.202698,178.423935 309.119202,177.921616 308.834717,177.117477 C314.706299,171.631165 320.633301,166.093079 326.879578,160.256699 C331.805603,167.568237 336.292725,174.687103 341.235504,181.474060 C353.464996,198.266373 366.919983,214.000031 385.307587,224.315231 C391.695770,227.898895 399.026611,230.711548 406.232635,231.745316 C423.091370,234.163788 433.740601,225.339294 435.870697,208.490646 C436.285736,205.207840 436.271942,201.822922 436.033600,198.515549 C435.558655,191.924973 432.609833,190.287476 426.384857,192.293701 C419.600555,194.480179 412.711029,196.357880 405.818298,198.185120 C399.157135,199.950989 392.878326,198.573578 387.159088,194.958542 C370.381561,184.353775 356.757294,171.030136 351.679626,151.071915 C348.207275,137.423462 356.110687,127.801163 370.275818,127.762421 C385.606262,127.720490 400.936920,127.754189 416.267487,127.754868 C418.056244,127.754944 419.845001,127.754868 421.880005,127.754868 C421.880005,120.437225 421.880005,113.656242 421.880005,106.293800 C379.714783,106.293800 337.510223,106.293800 294.991730,106.293800 C294.991730,98.480789 294.991730,91.241371 294.991730,83.363403 C326.245453,83.363403 357.419983,83.363403 388.594543,83.363403 C388.706512,82.967216 388.818481,82.571030 388.930450,82.174850 C373.056854,72.669296 357.183258,63.163746 341.024658,53.487522 C345.040924,45.806190 348.948486,38.332729 353.176575,30.246256 C356.612915,33.478935 359.710907,36.352020 362.763794,39.272297 C377.088440,52.974838 391.337952,66.757332 405.800690,80.312370 C407.513855,81.918015 410.325806,82.966644 412.704926,83.125130 C418.645905,83.520905 424.630951,83.255608 431.862640,83.255608 C412.273712,60.220669 393.370361,37.991932 373.924591,15.125374 C382.899139,10.634794 391.566620,6.297862 400.599304,2.030468 C415.716461,28.415125 430.454254,54.738190 445.275146,81.014412 C445.829803,81.997749 447.191589,82.525810 448.556458,83.301285 z"/><path fill="#03597C" d="M510.168823,479.595612 C497.048401,480.007141 484.095490,479.971375 470.693665,479.921997 C470.189545,451.591156 470.180756,423.273743 470.061646,394.956787 C469.991547,378.284485 463.438904,364.733582 449.243134,355.756073 C434.125397,346.195557 418.212830,346.082428 402.919556,355.178284 C386.705597,364.821594 379.850891,379.787994 380.768829,399.018494 C385.671844,399.018494 390.417053,399.018494 395.494385,399.018494 C395.494385,412.438049 395.494385,425.348419 395.494385,439.275208 C390.898743,439.275208 386.168854,439.275208 380.939636,439.673157 C380.378387,440.201202 380.236572,440.358765 380.270020,440.456055 C380.356506,440.707764 380.520325,440.932861 380.653259,441.168579 C380.655273,443.440735 380.657288,445.712921 380.665070,448.411072 C380.483856,456.785461 380.286377,464.733704 380.116821,472.682495 C380.070984,474.831146 380.109894,476.981598 380.109894,479.517731 C366.949188,479.517731 354.090912,479.517731 340.647980,479.517731 C340.647980,450.102692 340.647980,420.872864 340.465515,391.277222 C340.399994,389.548920 340.516937,388.186401 340.768677,386.188965 C340.864960,385.342529 340.826385,385.131042 340.787811,384.919556 C346.230408,338.289764 386.886169,305.090088 433.551605,309.168213 C474.740845,312.767792 508.894806,348.000275 510.010986,389.252197 C510.821320,419.198578 510.276764,449.181610 510.168823,479.595612 z"/><path fill="#0B5D7F" d="M2.522913,112.874458 C2.065343,103.485741 2.065343,94.189636 2.065343,84.254204 C4.064134,84.148331 5.800815,83.976715 7.537565,83.976006 C48.259609,83.959305 88.981697,83.978928 129.703583,83.896088 C131.385162,83.892670 133.064835,82.960846 134.483429,82.209862 C125.565285,69.380608 125.165657,55.153648 127.639885,41.082104 C132.024063,16.148294 153.222794,1.140500 178.508270,3.448660 C210.486374,6.367747 230.497147,25.201965 243.798950,52.567245 C248.416626,62.066990 251.441544,72.340950 255.511368,83.100517 C260.995911,83.100517 267.585876,83.100517 274.533844,83.100517 C274.533844,93.201309 274.533844,102.765472 274.533844,112.876137 C267.565887,112.876137 260.507538,112.876137 252.976639,112.876137 C252.976639,127.646217 252.976639,141.882721 252.976639,156.367584 C243.055786,156.367584 233.621674,156.367584 223.594955,156.367584 C223.594955,141.990936 223.594955,127.769386 223.594955,113.275085 C208.931366,113.275085 194.859070,113.275085 180.348312,113.275085 C180.348312,161.145782 180.348312,208.749176 180.348312,256.587830 C170.486053,256.587830 161.059250,256.587830 151.135529,256.587830 C151.135529,230.627731 151.135529,204.725845 151.135529,178.217957 C136.946854,178.217957 123.235840,178.217957 109.283356,178.217957 C109.283356,168.020844 109.283356,158.430695 109.283356,148.382477 C122.953148,148.382477 136.547043,148.382477 150.517517,148.382477 C150.517517,136.536865 150.517517,125.135880 150.517517,113.363449 C134.940430,113.363449 119.213142,113.363449 102.775703,113.363449 C102.775703,117.149704 102.832886,121.070061 102.763939,124.988205 C102.614571,133.476547 102.714378,141.985565 102.126617,150.445450 C101.514969,159.249222 97.084015,166.232407 89.921967,171.304657 C84.112625,175.418900 78.083282,179.222488 71.877106,183.346191 C84.164268,203.113159 99.551178,220.329742 115.453873,237.931763 C106.827614,244.225174 98.423088,250.356812 89.707642,256.715302 C61.943081,221.724411 35.680344,186.198441 14.632648,146.372589 C22.864342,141.128220 31.039183,135.920059 38.644421,131.074783 C43.290077,137.403519 47.364021,143.456726 51.972767,149.070923 C55.590969,153.478470 60.463718,155.608444 66.231583,153.343491 C71.674545,151.206116 73.209129,146.510437 73.269524,141.219757 C73.374062,132.061584 73.298531,122.901321 73.298531,112.967072 C49.799419,112.967072 26.389950,112.967072 2.522913,112.874458 M136.499924,103.203445 C144.291595,103.203445 152.083267,103.203445 160.144653,103.203445 C160.144653,121.646561 160.144653,139.549301 160.144653,158.087418 C146.198532,158.087418 132.489685,158.087418 118.769379,158.087418 C118.769379,161.800858 118.769379,164.870728 118.769379,168.431274 C132.712341,168.431274 146.316315,168.431274 160.443939,168.431274 C160.443939,194.843063 160.443939,220.764038 160.443939,246.876694 C164.214478,246.876694 167.445450,246.876694 171.238220,246.876694 C171.238220,198.911575 171.238220,151.211334 171.238220,103.532242 C192.043518,103.532242 212.282272,103.532242 232.954407,103.532242 C232.954407,118.116158 232.954407,132.368500 232.954407,146.712234 C236.625763,146.712234 239.852127,146.712234 243.539932,146.712234 C243.539932,132.140686 243.539932,117.881416 243.539932,103.148750 C250.905670,103.148750 257.815155,103.148750 264.747406,103.148750 C264.747406,99.452110 264.747406,96.255524 264.747406,92.731453 C258.401825,92.731453 252.446564,92.731453 246.333725,92.731453 C244.164276,76.398865 238.731766,61.517471 230.385773,47.690224 C220.052505,30.570522 206.041550,18.196285 185.908417,14.249711 C172.026489,11.528524 158.619049,12.025397 147.619110,22.738625 C135.063080,34.967369 131.855194,57.867680 140.685379,74.228874 C144.039841,80.444199 148.106674,86.275047 152.258118,92.938034 C104.874268,92.938034 58.038933,92.938034 11.196531,92.938034 C11.196531,96.607941 11.196531,99.701736 11.196531,103.282623 C35.169949,103.282623 58.896557,103.282623 82.849228,103.282623 C82.849228,117.241341 83.320213,130.728027 82.672440,144.160782 C82.284393,152.207611 78.041428,158.838959 70.176552,162.051422 C62.272217,165.280029 54.637794,164.197083 48.289288,158.398605 C43.664585,154.174606 39.655579,149.276489 35.176373,144.468842 C32.755833,146.061951 30.055336,147.839325 27.286203,149.661865 C45.725868,183.337753 68.086243,213.649078 91.555290,243.517044 C94.969002,241.021057 97.975571,238.822769 101.202324,236.463501 C84.253204,217.648819 68.700089,198.462677 56.497589,175.969177 C59.097225,175.263977 61.161392,174.819931 63.145885,174.142517 C67.840576,172.539902 72.744942,171.308517 77.120361,169.061966 C87.723381,163.617844 93.713425,155.228409 93.264153,142.664093 C92.859528,131.348450 93.164391,120.007050 93.183739,108.677048 C93.186722,106.926598 93.336617,105.176384 93.428993,103.203499 C107.860764,103.203499 121.680351,103.203499 136.499924,103.203445 z"/><path fill="#0A5D81" d="M248.776489,256.829346 C240.176834,256.829773 232.052887,256.829773 223.635574,256.829773 C223.635574,240.774384 223.635574,225.199326 223.635574,209.349197 C233.395462,209.349197 242.956955,209.349197 252.986221,209.349197 C252.986221,224.461578 253.046448,239.414490 252.826859,254.363281 C252.814529,255.202484 250.496872,256.007843 248.776489,256.829346 M243.988632,221.680145 C244.354279,219.076797 243.649902,217.663849 240.595566,217.956665 C237.857559,218.219147 235.074539,218.011932 232.272247,218.011932 C232.272247,228.256607 232.272247,237.952408 232.272247,247.711731 C236.251938,247.711731 239.966843,247.711731 243.999359,247.711731 C243.999359,239.169876 243.999359,230.906998 243.988632,221.680145 z"/><path fill="#0D5B7C" d="M172.001022,413.856537 C171.973648,410.939667 171.973648,408.473999 171.973648,405.803284 C185.309509,405.803284 198.207794,405.803284 211.411285,405.803284 C211.411285,409.126678 211.411285,412.193451 211.411285,415.901184 C202.876892,415.901184 194.457230,415.896423 186.037552,415.903381 C182.376495,415.906403 178.709641,416.052551 175.058151,415.873749 C174.025131,415.823151 173.037079,414.855042 172.001022,413.856537 z"/><path fill="#186585" d="M247.753174,198.796509 C239.498947,198.797272 231.716827,198.797272 223.510941,198.797272 C223.510941,195.286041 223.510941,192.095261 223.510941,188.568176 C233.063370,188.568176 242.590836,188.568176 252.443298,188.568176 C252.443298,191.801620 252.443298,194.882675 252.443298,198.453079 C251.068848,198.564728 249.647064,198.680237 247.753174,198.796509 z"/><path fill="#156383" d="M237.005310,167.092834 C242.299332,167.092834 247.096664,167.092834 252.332474,167.092834 C252.332474,170.512878 252.332474,173.715973 252.332474,177.370377 C242.978500,177.370377 233.469391,177.370377 223.529968,177.370377 C223.529968,174.342636 223.529968,171.135223 223.529968,167.092834 C227.721512,167.092834 232.115067,167.092834 237.005310,167.092834 z"/><path fill="#176484" d="M210.941772,390.133179 C211.266510,392.439758 211.591263,394.746368 211.985153,397.544128 C198.433502,397.544128 185.668747,397.544128 172.923767,397.186646 C173.111389,391.574524 176.034103,390.586548 180.814255,390.891998 C187.925980,391.346436 195.089661,391.092194 202.228317,390.969727 C205.136719,390.919800 208.037521,390.425385 210.941772,390.133179 z"/><path fill="#206582" d="M191.999863,381.650146 C185.207550,381.650085 178.914948,381.650085 172.276413,381.650085 C172.121826,379.744049 171.993896,378.166840 171.836411,376.225037 C185.152023,376.225037 198.177353,376.225037 211.481354,376.225037 C211.481354,377.918762 211.481354,379.484894 211.481354,381.650238 C205.033524,381.650238 198.766541,381.650238 191.999863,381.650146 z"/><path fill="#2E6881" d="M172.636581,364.500061 C184.633270,364.233521 196.240601,364.143250 207.846054,364.251526 C209.146835,364.263672 210.437103,365.400757 211.732239,366.016174 C210.511688,366.694763 209.299194,367.945007 208.069321,367.962341 C197.292648,368.114258 186.512878,368.053192 175.734055,368.037109 C173.567841,368.033875 170.997147,368.380066 172.636581,364.500061 z"/><path fill="#055A7E" d="M672.537842 309.005096C671.353455 309.72995 669.711853 310.905304 668.06189 310.917145 649.781738 311.048767 631.500122 311.035736 613.219421 310.950684 611.15155 310.941071 609.086914 310.251221 607.009521 309.508087 628.691101 309.064697 650.383972 308.98996 672.537842 309.005096zM240.538116 309.000549C239.854492 309.725647 238.712814 310.910004 237.564102 310.91687 218.458252 311.031342 199.351456 311.015503 180.245163 310.950073 179.229202 310.946564 178.215637 310.246735 177.101105 309.482269 198.026428 309.032959 219.051605 308.972443 240.538116 309.000549z"/><path fill="#12576C" d="M210.937866,390.094421 C208.037521,390.425385 205.136719,390.919800 202.228317,390.969727 C195.089661,391.092194 187.925980,391.346436 180.814255,390.891998 C176.034103,390.586548 173.111389,391.574524 172.644135,396.919495 C172.252945,394.949921 172.161133,392.890015 172.679306,390.443420 C185.812195,390.062164 198.335114,390.067566 210.858017,390.072998 C210.858017,390.073029 210.933975,390.055664 210.937866,390.094421 z"/><path fill="#176484" d="M210.547089 389.822174C198.335114 390.067566 185.812195 390.062164 172.848969 390.032135 181.564255 389.82251 190.719421 389.608215 199.875717 389.467529 203.32785 389.414459 206.782608 389.531738 210.547089 389.822174zM254.668198 309.805786C253.129105 309.931702 251.263885 309.868713 249.208618 309.515259 250.793091 309.355499 252.567566 309.486176 254.668198 309.805786z"/><path fill="#64A2C0" d="M158.877716,452.688812 C158.620148,451.871002 158.487732,450.647003 158.557465,449.173126 C158.840698,450.043060 158.921783,451.162811 158.877716,452.688812 z"/><path fill="#176484" d="M260.76535 310.781769C259.881287 310.875671 258.706299 310.775116 257.278198 310.426514 258.174866 310.314789 259.324677 310.45105 260.76535 310.781769zM266.069183 312.611053C265.246582 312.551392 264.307983 312.192932 263.200592 311.569031 264.005615 311.639862 264.97937 311.976044 266.069183 312.611053z"/><path fill="#64A2C0" d="M158.807831,440.808228 C158.428864,440.966431 158.227371,440.756927 158.069885,440.233582 C158.303787,440.190063 158.594269,440.363617 158.807831,440.808228 z"/><path fill="#80B9D3" d="M340.610596,385.020996 C340.826385,385.131042 340.864960,385.342529 340.775421,385.849976 C340.516022,385.927277 340.355591,385.719360 340.268433,385.484283 C340.235718,385.396210 340.373383,385.244934 340.610596,385.020996 z"/><path fill="#035584" d="M187.054596,337.000000 C205.126770,337.000000 222.709793,337.000000 240.292831,337.000000 C240.293304,337.441681 240.293777,337.883331 240.294235,338.325012 C219.436630,338.325012 198.579010,338.325012 177.721390,338.325012 C177.692139,337.883331 177.662872,337.441681 177.633621,337.000000 C180.610901,337.000000 183.588196,337.000000 187.054596,337.000000 z"/><path fill="#176484" d="M257.616272,313.541199 C258.058258,313.655457 258.326385,313.936249 258.594513,314.217041 C258.478241,314.328003 258.361969,314.438965 258.245728,314.549957 C257.977966,314.269226 257.710205,313.988495 257.616272,313.541199 z"/><path fill="#035584" d="M627.001343,338.998779 C620.899231,338.998779 615.296692,338.998779 609.694153,338.998779 C609.697754,338.558899 609.701294,338.119019 609.704895,337.679138 C630.562744,337.679138 651.420593,337.679138 672.278442,337.679138 C672.289795,338.119019 672.301147,338.558899 672.312500,338.998779 C657.375244,338.998779 642.438049,338.998779 627.001343,338.998779 z"/><path fill="#86A3B2" d="M676.803162,349.332214 C674.532776,349.688782 671.893311,349.971619 669.253174,349.978516 C647.454529,350.035309 625.655762,350.040924 603.386475,349.988220 C604.811340,348.357788 606.598267,347.043427 609.245300,348.836548 C610.165527,349.459900 611.835510,348.992859 613.163147,348.995850 C634.253357,349.043427 655.343567,349.086487 676.803162,349.332214 z"/><path fill="#FBFDFE" d="M28.900574,394.997925 C30.227358,429.726868 55.299232,453.955902 89.483643,453.999359 C106.143280,454.020569 122.802963,454.004211 139.462631,454.004883 C141.258423,454.004944 143.054230,454.004913 145.091156,454.004913 C145.091156,458.556000 145.091156,462.619873 145.091156,466.958282 C144.111343,467.062592 143.322189,467.221039 142.533295,467.219696 C123.042473,467.186523 103.538193,467.582153 84.063797,466.992920 C47.854359,465.897247 17.677637,436.218964 15.873630,400.585968 C13.885414,361.314514 39.117451,329.102509 76.527817,323.959839 C86.194656,322.630951 96.117287,323.019714 105.925835,322.900238 C118.876060,322.742462 131.829651,322.861420 145.075760,322.861420 C145.075760,327.384460 145.075760,331.447388 145.075760,336.067749 C143.111404,336.067749 141.328720,336.067688 139.546036,336.067749 C122.886368,336.068359 106.226608,336.033020 89.567055,336.077087 C55.301311,336.167664 30.244396,360.326355 28.900574,394.997925 z"/><path fill="#195672" d="M157.780853,479.087158 C157.989349,479.358093 157.832581,479.616943 157.273041,479.805481 C157.146545,479.556519 157.328323,479.336456 157.780853,479.087158 z"/><path fill="#08597B" d="M414.028625,421.998657 C414.028625,427.791656 414.028625,433.084930 414.028625,438.751434 C410.778778,438.751434 407.720551,438.751434 404.263794,438.751434 C404.263794,425.954559 404.263794,412.945496 404.263794,399.527985 C407.135834,399.527985 410.176727,399.527985 414.028595,399.527985 C414.028595,406.723267 414.028595,414.111115 414.028625,421.998657 z"/><path fill="#0C5B7C" d="M421.951874,414.004913 C421.951874,408.887054 421.951874,404.268250 421.951874,399.389008 C424.652313,399.389008 426.913544,399.389008 429.582764,399.389008 C429.582764,412.389374 429.582764,425.418823 429.582764,438.794983 C427.278839,438.794983 424.894775,438.794983 421.951874,438.794983 C421.951874,430.696747 421.951874,422.600372 421.951874,414.004913 z"/><path fill="#08597B" d="M443.355621,419.999847 C443.355682,426.455963 443.355682,432.412140 443.355682,438.857300 C441.607635,438.944305 440.063904,439.021118 438.198883,439.113922 C438.198883,425.762665 438.198883,412.757355 438.198883,399.414612 C439.689514,399.312836 441.097687,399.216705 443.355560,399.062531 C443.355560,406.068024 443.355560,412.783966 443.355621,419.999847 z"/><path fill="#226D8B" d="M455.008789,424.992859 C455.008789,429.932587 455.008789,434.374176 455.008789,438.815765 C454.492859,439.073059 453.976959,439.330353 453.461029,439.587677 C452.699219,438.521088 451.289948,437.463379 451.275177,436.386566 C451.118439,424.955231 451.128113,413.520081 451.283600,402.088623 C451.297211,401.087769 452.668365,400.105377 453.408997,399.114441 C453.941925,400.117859 454.918945,401.113403 454.936829,402.125916 C455.068451,409.580292 455.008453,417.038055 455.008789,424.992859 z"/><path fill="#80B9D3" d="M380.785583,440.860901 C380.520325,440.932861 380.356506,440.707764 380.270020,440.456055 C380.236572,440.358765 380.378387,440.201202 380.636505,439.979980 C380.861053,440.110291 380.889496,440.331757 380.785583,440.860901 z"/><path fill="#FAFCFD" d="M135.999939,103.203476 C121.680351,103.203499 107.860764,103.203499 93.428993,103.203499 C93.336617,105.176384 93.186722,106.926598 93.183739,108.677048 C93.164391,120.007050 92.859528,131.348450 93.264153,142.664093 C93.713425,155.228409 87.723381,163.617844 77.120361,169.061966 C72.744942,171.308517 67.840576,172.539902 63.145885,174.142517 C61.161392,174.819931 59.097225,175.263977 56.497589,175.969177 C68.700089,198.462677 84.253204,217.648819 101.202324,236.463501 C97.975571,238.822769 94.969002,241.021057 91.555290,243.517044 C68.086243,213.649078 45.725868,183.337753 27.286203,149.661865 C30.055336,147.839325 32.755833,146.061951 35.176373,144.468842 C39.655579,149.276489 43.664585,154.174606 48.289288,158.398605 C54.637794,164.197083 62.272217,165.280029 70.176552,162.051422 C78.041428,158.838959 82.284393,152.207611 82.672440,144.160782 C83.320213,130.728027 82.849228,117.241341 82.849228,103.282623 C58.896557,103.282623 35.169949,103.282623 11.196531,103.282623 C11.196531,99.701736 11.196531,96.607941 11.196531,92.938034 C58.038933,92.938034 104.874268,92.938034 152.258118,92.938034 C148.106674,86.275047 144.039841,80.444199 140.685379,74.228874 C131.855194,57.867680 135.063080,34.967369 147.619110,22.738625 C158.619049,12.025397 172.026489,11.528524 185.908417,14.249711 C206.041550,18.196285 220.052505,30.570522 230.385773,47.690224 C238.731766,61.517471 244.164276,76.398865 246.333725,92.731453 C252.446564,92.731453 258.401825,92.731453 264.747406,92.731453 C264.747406,96.255524 264.747406,99.452110 264.747406,103.148750 C257.815155,103.148750 250.905670,103.148750 243.539932,103.148750 C243.539932,117.881416 243.539932,132.140686 243.539932,146.712234 C239.852127,146.712234 236.625763,146.712234 232.954407,146.712234 C232.954407,132.368500 232.954407,118.116158 232.954407,103.532242 C212.282272,103.532242 192.043518,103.532242 171.238220,103.532242 C171.238220,151.211334 171.238220,198.911575 171.238220,246.876694 C167.445450,246.876694 164.214478,246.876694 160.443939,246.876694 C160.443939,220.764038 160.443939,194.843063 160.443939,168.431274 C146.316315,168.431274 132.712341,168.431274 118.769379,168.431274 C118.769379,164.870728 118.769379,161.800858 118.769379,158.087418 C132.489685,158.087418 146.198532,158.087418 160.144653,158.087418 C160.144653,139.549301 160.144653,121.646561 160.144653,103.203445 C152.083267,103.203445 144.291595,103.203445 135.999939,103.203476 M152.733521,32.256653 C150.827988,35.714325 148.200760,38.965324 147.141220,42.665260 C142.429199,59.119762 150.317734,79.407967 165.562378,90.553589 C167.402740,91.899109 170.043839,92.776733 172.323074,92.796410 C192.308716,92.969048 212.296448,92.902298 232.283554,92.885284 C233.393967,92.884338 234.504196,92.695877 235.950226,92.564102 C234.937408,88.249077 234.285339,84.125809 232.997589,80.211670 C226.559738,60.643703 217.880325,42.560528 199.965927,30.551468 C184.882248,20.440022 165.208145,20.827312 152.733521,32.256653 z"/><path fill="#FFF" d="M243.993988,222.162140 C243.999359,230.906998 243.999359,239.169876 243.999359,247.711731 C239.966843,247.711731 236.251938,247.711731 232.272247,247.711731 C232.272247,237.952408 232.272247,228.256607 232.272247,218.011932 C235.074539,218.011932 237.857559,218.219147 240.595566,217.956665 C243.649902,217.663849 244.354279,219.076797 243.993988,222.162140 z"/><path fill="#0C5E80" d="M152.976746,31.992008 C165.208145,20.827312 184.882248,20.440022 199.965927,30.551468 C217.880325,42.560528 226.559738,60.643703 232.997589,80.211670 C234.285339,84.125809 234.937408,88.249077 235.950226,92.564102 C234.504196,92.695877 233.393967,92.884338 232.283554,92.885284 C212.296448,92.902298 192.308716,92.969048 172.323074,92.796410 C170.043839,92.776733 167.402740,91.899109 165.562378,90.553589 C150.317734,79.407967 142.429199,59.119762 147.141220,42.665260 C148.200760,38.965324 150.827988,35.714325 152.976746,31.992008 M201.627899,43.858696 C196.136978,38.508587 189.664124,34.935883 182.164841,33.343502 C163.291504,29.335985 151.677902,41.126999 156.065628,59.863110 C157.979767,68.036751 162.264160,74.944962 168.453506,80.486656 C170.211288,82.060509 173.099472,83.052567 175.499084,83.112236 C186.474792,83.385147 197.461090,83.231888 208.443588,83.231758 C213.363373,83.231705 218.283157,83.231750 223.803635,83.231750 C219.335220,68.128342 212.883072,55.058712 201.627899,43.858696 z"/><path fill="#FDFEFE" d="M201.883789,44.104008 C212.883072,55.058712 219.335220,68.128342 223.803635,83.231750 C218.283157,83.231750 213.363373,83.231705 208.443588,83.231758 C197.461090,83.231888 186.474792,83.385147 175.499084,83.112236 C173.099472,83.052567 170.211288,82.060509 168.453506,80.486656 C162.264160,74.944962 157.979767,68.036751 156.065628,59.863110 C151.677902,41.126999 163.291504,29.335985 182.164841,33.343502 C189.664124,34.935883 196.136978,38.508587 201.883789,44.104008 z"/></svg>