<svg xmlns="http://www.w3.org/2000/svg" role="img" viewBox="-1.08 -1.02 53.10 11.67"><path fill="#d21c2e" d="M6.989 1.07h3.903V-.004H6.989z"/><path fill="#231f20" d="M3.735 9.42c-.20792.1107-.57984.22198-1.07827.22198-1.59838 0-2.66084-1.1837-2.66084-3.39765 0-2.01656 1.11576-3.5306 2.8998-3.5306.3977 0 .65599.09665.83931.19563v1.1714c-.14584-.05974-.48555-.15053-.81002-.15053-.96114 0-1.45664 1.04606-1.45664 2.28482 0 1.37698.55642 2.2157 1.4578 2.2157.27177 0 .5939-.0533.80886-.1599V9.42"/><path fill="#231f20" d="M9.437 8.46l.00059-2.37443c-.57399.00762-1.61595.16634-1.61595 1.33833 0 .76082.4053 1.03551.72978 1.03551zm1.4537-.5365c0 .52244.03222 1.18838.10368 1.63469H8.10629c-.96523 0-1.69384-.80124-1.69384-1.98201 0-1.73074 1.46249-2.46111 2.9859-2.47517v-.1189c0-.70167-.2747-1.19482-1.00624-1.19482-.48144 0-1.032.14056-1.3963.37367v-1.0074c.33091-.21027.8967-.48145 1.71726-.48145 1.73368 0 2.17764 1.12689 2.17764 2.5601V7.9235"/><path fill="#231f20" d="M17.384 8.45h-.8598c-.6191 0-.97754-.9342-.97754-2.27896 0-1.2042.26708-2.26666 1.01385-2.26666.43576 0 .73856.4791.80182 1.0203.02167.13646.02167.2864.02167.41467zm1.4707-.52772L18.85175.68303H17.384v2.70242h-.02811c-.21554-.46504-.62319-.73154-1.17843-.73154-1.08765 0-2.10267 1.13392-2.10267 3.49722 0 2.02886.73096 3.40233 2.03356 3.40233l2.85001.00234c-.07087-.44689-.10367-1.11166-.10367-1.6341"/><path fill="#231f20" d="M25.3 5.53c.01113-1.08062-.34322-1.72254-.86684-1.72254-.64134 0-.93009.93302-.95937 1.72254zm-1.83266 1.05075c.01582 1.50524.71456 1.91406 1.50057 1.91406.49199 0 1.01326-.1107 1.31255-.23896v1.06187c-.41995.19797-.96465.31687-1.58022.31687-1.73601 0-2.66786-1.25926-2.66786-3.34377 0-2.22741 1.06773-3.5833 2.50562-3.5833 1.41623 0 2.12961 1.27975 2.12961 3.08487 0 .38422-.01523.60093-.03866.78543l-3.1616.00293"/><path fill="#231f20" d="M31.33 3.96v5.60163h-1.47596V4.72551c0-.76082-.03807-1.35648-.06033-1.95272h2.90976c1.12161 0 1.7899.81646 1.7899 2.37794v4.4109H33.0174V5.2913c0-.67297-.1429-1.33013-.78542-1.33013L31.33 3.96"/><path fill="#231f20" d="M41.37 9.42c-.20792.1107-.58043.22198-1.07827.22198-1.59838 0-2.66201-1.1837-2.66201-3.39765 0-2.01656 1.11634-3.5306 2.90039-3.5306.39827 0 .65598.09665.83989.19563v1.1714c-.14642-.05974-.48613-.15053-.8106-.15053-.96114 0-1.45664 1.04606-1.45664 2.28482 0 1.37698.55582 2.2157 1.45839 2.2157.27235 0 .59331-.0533.80885-.1599V9.42"/><path fill="#231f20" d="M45.43 5.53c.02987-.78952.31862-1.72254.9588-1.72254.52478 0 .87913.64192.86741 1.72254zm3.19324.2624c0-1.80572-.7128-3.08489-2.12902-3.08489-1.43731 0-2.50621 1.3559-2.50621 3.58331 0 2.08451.93185 3.34377 2.66786 3.34377.61674 0 1.16144-.1189 1.5808-.31687V8.25585c-.30046.12827-.82056.23896-1.31255.23896-.7866 0-1.48416-.40882-1.49998-1.91406l3.16103-.00293c.02342-.1845.03807-.4012.03807-.78543"/><path fill="#231f20" d="M50.13.28c.48847 0 .88616.45392.88616 1.01209 0 .557-.39769 1.01092-.88616 1.01092-.48965 0-.88558-.45392-.88558-1.01092C49.24442.73392 49.64035.28 50.13.28zm.00293 1.8719c.40765 0 .71397-.37544.71397-.85981 0-.48555-.30632-.8604-.71397-.8604-.41233 0-.71924.37485-.71924.8604 0 .48437.3069.8598.71924.8598zM49.79088.6976h.39828c.23779 0 .3561.10894.3561.33327 0 .19094-.10601.3274-.26883.3274l.29519.5242h-.17864l-.2905-.5242h-.14233v.5242h-.16927zm.16927.50956h.2009c.13119 0 .21436-.03045.21436-.1845 0-.1347-.10543-.17395-.21437-.17395h-.2009v.35845"/></svg>