<?xml version="1.0" encoding="UTF-8"?>
<svg xmlns="http://www.w3.org/2000/svg" xmlns:xlink="http://www.w3.org/1999/xlink" width="204" height="130" viewBox="0 0 204 130">
<defs>
<g>
<g id="glyph-0-0">
<path d="M 38.640625 -40.375 L 38.640625 -34.125 C 36.648438 -35.988281 34.523438 -37.378906 32.265625 -38.296875 C 30.015625 -39.210938 27.617188 -39.671875 25.078125 -39.671875 C 20.078125 -39.671875 16.25 -38.140625 13.59375 -35.078125 C 10.9375 -32.023438 9.609375 -27.609375 9.609375 -21.828125 C 9.609375 -16.066406 10.9375 -11.65625 13.59375 -8.59375 C 16.25 -5.539062 20.078125 -4.015625 25.078125 -4.015625 C 27.617188 -4.015625 30.015625 -4.472656 32.265625 -5.390625 C 34.523438 -6.304688 36.648438 -7.691406 38.640625 -9.546875 L 38.640625 -3.375 C 36.566406 -1.96875 34.375 -0.910156 32.0625 -0.203125 C 29.75 0.492188 27.304688 0.84375 24.734375 0.84375 C 18.109375 0.84375 12.890625 -1.179688 9.078125 -5.234375 C 5.273438 -9.285156 3.375 -14.816406 3.375 -21.828125 C 3.375 -28.859375 5.273438 -34.398438 9.078125 -38.453125 C 12.890625 -42.503906 18.109375 -44.53125 24.734375 -44.53125 C 27.347656 -44.53125 29.8125 -44.179688 32.125 -43.484375 C 34.4375 -42.796875 36.609375 -41.757812 38.640625 -40.375 Z M 38.640625 -40.375 "/>
</g>
<g id="glyph-0-1">
<path d="M 20.515625 -37.90625 L 12.484375 -16.140625 L 28.5625 -16.140625 Z M 17.171875 -43.734375 L 23.875 -43.734375 L 40.546875 0 L 34.390625 0 L 30.40625 -11.21875 L 10.6875 -11.21875 L 6.703125 0 L 0.46875 0 Z M 17.171875 -43.734375 "/>
</g>
<g id="glyph-0-2">
<path d="M 26.625 -20.515625 C 27.894531 -20.078125 29.128906 -19.15625 30.328125 -17.75 C 31.535156 -16.34375 32.742188 -14.410156 33.953125 -11.953125 L 39.96875 0 L 33.609375 0 L 28.015625 -11.21875 C 26.566406 -14.144531 25.160156 -16.085938 23.796875 -17.046875 C 22.441406 -18.003906 20.59375 -18.484375 18.25 -18.484375 L 11.8125 -18.484375 L 11.8125 0 L 5.890625 0 L 5.890625 -43.734375 L 19.25 -43.734375 C 24.25 -43.734375 27.976562 -42.6875 30.4375 -40.59375 C 32.894531 -38.507812 34.125 -35.359375 34.125 -31.140625 C 34.125 -28.390625 33.484375 -26.101562 32.203125 -24.28125 C 30.929688 -22.46875 29.070312 -21.210938 26.625 -20.515625 Z M 11.8125 -38.875 L 11.8125 -23.34375 L 19.25 -23.34375 C 22.101562 -23.34375 24.253906 -24.003906 25.703125 -25.328125 C 27.160156 -26.648438 27.890625 -28.585938 27.890625 -31.140625 C 27.890625 -33.703125 27.160156 -35.628906 25.703125 -36.921875 C 24.253906 -38.222656 22.101562 -38.875 19.25 -38.875 Z M 11.8125 -38.875 "/>
</g>
<g id="glyph-0-3">
<path d="M 5.890625 -43.734375 L 11.8125 -43.734375 L 11.8125 0 L 5.890625 0 Z M 5.890625 -43.734375 "/>
</g>
<g id="glyph-0-4">
<path d="M 11.8125 -38.875 L 11.8125 -4.859375 L 18.953125 -4.859375 C 24.992188 -4.859375 29.414062 -6.222656 32.21875 -8.953125 C 35.019531 -11.691406 36.421875 -16.015625 36.421875 -21.921875 C 36.421875 -27.773438 35.019531 -32.0625 32.21875 -34.78125 C 29.414062 -37.507812 24.992188 -38.875 18.953125 -38.875 Z M 5.890625 -43.734375 L 18.046875 -43.734375 C 26.523438 -43.734375 32.742188 -41.972656 36.703125 -38.453125 C 40.671875 -34.929688 42.65625 -29.421875 42.65625 -21.921875 C 42.65625 -14.378906 40.660156 -8.835938 36.671875 -5.296875 C 32.691406 -1.765625 26.484375 0 18.046875 0 L 5.890625 0 Z M 5.890625 -43.734375 "/>
</g>
<g id="glyph-0-5">
<path d="M 32.109375 -42.3125 L 32.109375 -36.53125 C 29.859375 -37.601562 27.738281 -38.40625 25.75 -38.9375 C 23.757812 -39.46875 21.835938 -39.734375 19.984375 -39.734375 C 16.753906 -39.734375 14.265625 -39.109375 12.515625 -37.859375 C 10.773438 -36.609375 9.90625 -34.828125 9.90625 -32.515625 C 9.90625 -30.585938 10.484375 -29.128906 11.640625 -28.140625 C 12.804688 -27.148438 15.007812 -26.351562 18.25 -25.75 L 21.828125 -25.015625 C 26.242188 -24.179688 29.5 -22.703125 31.59375 -20.578125 C 33.695312 -18.460938 34.75 -15.628906 34.75 -12.078125 C 34.75 -7.835938 33.328125 -4.625 30.484375 -2.4375 C 27.640625 -0.25 23.472656 0.84375 17.984375 0.84375 C 15.921875 0.84375 13.71875 0.609375 11.375 0.140625 C 9.039062 -0.328125 6.625 -1.019531 4.125 -1.9375 L 4.125 -8.03125 C 6.53125 -6.675781 8.882812 -5.65625 11.1875 -4.96875 C 13.5 -4.289062 15.765625 -3.953125 17.984375 -3.953125 C 21.367188 -3.953125 23.976562 -4.613281 25.8125 -5.9375 C 27.644531 -7.269531 28.5625 -9.164062 28.5625 -11.625 C 28.5625 -13.78125 27.898438 -15.460938 26.578125 -16.671875 C 25.265625 -17.878906 23.101562 -18.785156 20.09375 -19.390625 L 16.5 -20.09375 C 12.082031 -20.976562 8.882812 -22.359375 6.90625 -24.234375 C 4.9375 -26.109375 3.953125 -28.710938 3.953125 -32.046875 C 3.953125 -35.921875 5.3125 -38.96875 8.03125 -41.1875 C 10.757812 -43.414062 14.519531 -44.53125 19.3125 -44.53125 C 21.363281 -44.53125 23.453125 -44.34375 25.578125 -43.96875 C 27.703125 -43.601562 29.878906 -43.050781 32.109375 -42.3125 Z M 32.109375 -42.3125 "/>
</g>
<g id="glyph-0-6">
<path d="M 5.890625 -43.734375 L 33.546875 -43.734375 L 33.546875 -38.765625 L 11.8125 -38.765625 L 11.8125 -25.8125 L 32.640625 -25.8125 L 32.640625 -20.828125 L 11.8125 -20.828125 L 11.8125 -4.984375 L 34.078125 -4.984375 L 34.078125 0 L 5.890625 0 Z M 5.890625 -43.734375 "/>
</g>
</g>
</defs>
<g fill="rgb(0%, 0%, 0%)" fill-opacity="1">
<use xlink:href="#glyph-0-0" x="0" y="50"/>
<use xlink:href="#glyph-0-1" x="41.894531" y="50"/>
<use xlink:href="#glyph-0-2" x="82.939453" y="50"/>
<use xlink:href="#glyph-0-3" x="124.628906" y="50"/>
<use xlink:href="#glyph-0-1" x="142.324219" y="50"/>
<use xlink:href="#glyph-0-4" x="183.369141" y="50"/>
</g>
<g fill="rgb(0%, 0%, 0%)" fill-opacity="1">
<use xlink:href="#glyph-0-5" x="0" y="100"/>
<use xlink:href="#glyph-0-6" x="38.085938" y="100"/>
</g>
</svg>
