<svg xmlns="http://www.w3.org/2000/svg" role="img" viewBox="-7.99 -7.99 415.74 342.24"><g id="svgg" fill-rule="evenodd" stroke="none"><path id="path0" fill="#eef0dd" d="M105.875 75.535 C 103.262 76.986,103.245 82.763,105.850 84.109 C 109.705 86.103,113.097 81.752,111.209 77.236 C 110.435 75.383,107.711 74.515,105.875 75.535 M153.414 75.601 C 151.298 76.751,152.047 79.197,154.903 80.460 C 155.855 80.881,156.719 81.446,156.822 81.716 C 157.284 82.921,154.980 83.414,153.991 82.321 C 153.457 81.731,152.163 81.714,152.163 82.297 C 152.163 84.373,156.241 85.421,157.892 83.770 C 159.627 82.035,158.859 80.265,155.743 78.822 C 154.529 78.259,154.103 77.891,154.182 77.473 C 154.324 76.724,155.842 76.543,156.394 77.208 C 157.125 78.088,158.558 77.611,158.176 76.615 C 157.662 75.278,155.039 74.719,153.414 75.601 M173.233 75.673 C 172.550 77.412,170.801 84.022,170.957 84.274 C 171.377 84.954,172.448 84.553,172.784 83.592 C 173.084 82.731,173.278 82.612,174.391 82.612 C 175.467 82.612,175.733 82.759,176.163 83.592 C 176.634 84.502,177.719 84.922,178.061 84.327 C 178.217 84.056,175.985 76.162,175.569 75.510 C 175.171 74.887,173.496 75.004,173.233 75.673 M192.442 75.731 C 190.314 77.028,190.030 81.927,191.981 83.670 C 193.705 85.211,197.128 84.591,197.637 82.646 C 197.880 81.716,196.611 81.482,195.743 82.297 C 194.138 83.805,192.653 82.684,192.653 79.965 C 192.653 77.134,194.080 75.840,195.510 77.375 C 196.088 77.995,197.551 77.996,197.551 77.376 C 197.551 75.456,194.502 74.475,192.442 75.731 M216.719 75.309 C 216.049 75.978,216.532 76.699,217.714 76.797 L 218.939 76.898 219.031 80.756 C 219.121 84.531,219.139 84.612,219.847 84.511 C 220.536 84.413,220.579 84.224,220.735 80.653 L 220.898 76.898 222.142 76.795 C 223.211 76.707,223.373 76.592,223.285 75.979 C 223.182 75.255,217.366 74.661,216.719 75.309 M227.514 75.613 C 224.996 76.980,224.922 82.410,227.400 84.033 C 229.371 85.325,232.071 84.462,232.952 82.260 C 234.753 77.758,231.313 73.552,227.514 75.613 M281.248 75.490 C 279.056 76.550,279.638 79.022,282.389 80.336 C 284.317 81.258,284.878 81.882,284.350 82.520 C 283.874 83.092,282.293 83.048,281.796 82.449 C 280.995 81.484,279.616 81.983,280.039 83.085 C 280.637 84.645,284.244 85.092,285.566 83.770 C 287.303 82.033,286.418 80.041,283.323 78.717 C 282.176 78.227,281.777 77.887,281.856 77.471 C 282.006 76.679,283.686 76.515,284.216 77.240 C 284.693 77.893,286.041 77.620,286.041 76.871 C 286.041 75.629,282.858 74.712,281.248 75.490 M289.209 75.308 C 288.534 75.983,289.011 76.735,290.112 76.735 L 291.245 76.735 291.337 80.571 L 291.429 84.408 292.316 84.510 L 293.203 84.613 293.296 80.755 L 293.388 76.898 294.469 76.794 C 295.369 76.708,295.533 76.571,295.448 75.978 C 295.345 75.254,289.852 74.665,289.209 75.308 M85.297 79.918 L 85.388 84.408 86.367 84.408 C 87.329 84.408,87.350 84.372,87.510 82.449 L 87.673 80.490 89.061 80.389 C 91.399 80.220,90.860 78.694,88.463 78.694 C 87.622 78.694,87.510 78.579,87.510 77.714 L 87.510 76.735 89.469 76.735 C 91.211 76.735,91.429 76.662,91.429 76.082 C 91.429 75.474,91.211 75.429,88.317 75.429 L 85.206 75.429 85.297 79.918 M94.440 79.918 L 94.531 84.408 95.347 84.408 C 96.101 84.408,96.171 84.278,96.262 82.694 C 96.401 80.279,97.269 80.311,98.435 82.776 C 99.119 84.221,99.438 84.571,100.072 84.571 C 101.243 84.571,101.293 84.183,100.353 82.360 L 99.502 80.707 100.200 79.820 C 102.145 77.347,100.733 75.429,96.970 75.429 L 94.349 75.429 94.440 79.918 M114.685 79.918 L 114.776 84.408 115.592 84.408 C 116.389 84.408,116.413 84.338,116.591 81.469 C 116.692 79.853,116.815 78.898,116.865 79.347 C 117.095 81.432,118.367 84.408,119.071 84.508 C 119.813 84.614,119.913 84.409,120.830 80.880 C 121.363 78.830,121.739 79.283,121.861 82.122 C 121.948 84.158,122.031 84.408,122.612 84.408 C 123.229 84.408,123.270 84.160,123.356 79.918 L 123.447 75.429 122.023 75.429 L 120.599 75.429 119.988 77.883 C 119.249 80.851,118.919 80.832,118.089 77.774 L 117.453 75.429 116.023 75.429 L 114.594 75.429 114.685 79.918 M132.644 79.918 L 132.735 84.408 133.551 84.408 C 134.306 84.408,134.375 84.278,134.466 82.694 C 134.608 80.224,135.701 80.223,136.842 82.691 C 137.611 84.357,138.275 84.833,139.286 84.446 C 139.672 84.297,139.600 83.943,138.889 82.493 L 138.020 80.722 138.725 79.827 C 139.506 78.834,139.621 77.711,139.053 76.632 C 138.478 75.538,138.163 75.439,135.256 75.434 L 132.553 75.429 132.644 79.918 M143.093 79.918 L 143.184 84.408 145.959 84.491 C 148.891 84.579,149.774 84.318,149.446 83.462 C 149.290 83.056,148.767 82.939,147.112 82.939 L 144.980 82.939 144.980 81.633 L 144.980 80.327 146.472 80.327 C 148.638 80.327,148.544 78.914,146.367 78.757 C 145.072 78.663,144.980 78.592,144.980 77.696 L 144.980 76.735 147.102 76.735 C 149.007 76.735,149.224 76.668,149.224 76.082 C 149.224 75.474,149.007 75.429,146.113 75.429 L 143.002 75.429 143.093 79.918 M162.032 79.918 L 162.122 84.408 165.224 84.408 C 168.109 84.408,168.327 84.362,168.327 83.755 C 168.327 83.186,168.054 83.081,166.204 82.939 L 164.082 82.776 164.082 81.633 C 164.082 80.501,164.097 80.489,165.633 80.390 C 168.245 80.223,167.686 78.694,165.013 78.694 C 162.590 78.694,163.630 76.919,166.122 76.801 C 167.896 76.716,168.163 76.620,168.163 76.066 C 168.163 75.478,167.920 75.429,165.052 75.429 L 161.941 75.429 162.032 79.918 M180.970 79.918 L 181.061 84.408 181.878 84.408 C 182.632 84.408,182.701 84.278,182.793 82.694 C 182.935 80.224,184.027 80.223,185.168 82.691 C 185.938 84.357,186.602 84.833,187.612 84.446 C 187.998 84.297,187.926 83.943,187.216 82.493 L 186.347 80.722 187.051 79.827 C 187.833 78.834,187.948 77.711,187.380 76.632 C 186.804 75.538,186.489 75.439,183.583 75.434 L 180.880 75.429 180.970 79.918 M200.889 79.918 L 200.980 84.408 201.796 84.408 C 202.558 84.408,202.623 84.278,202.776 82.449 L 202.939 80.490 204.408 80.490 L 205.878 80.490 206.041 82.449 C 206.193 84.278,206.259 84.408,207.020 84.408 L 207.837 84.408 207.928 79.918 L 208.018 75.429 207.030 75.429 C 206.061 75.429,206.041 75.461,206.041 77.061 L 206.041 78.694 204.408 78.694 L 202.776 78.694 202.776 77.061 C 202.776 75.461,202.756 75.429,201.787 75.429 L 200.798 75.429 200.889 79.918 M242.358 79.918 L 242.449 84.408 243.265 84.408 L 244.082 84.408 244.172 79.918 L 244.263 75.429 243.265 75.429 L 242.267 75.429 242.358 79.918 M248.163 79.817 C 248.163 84.318,248.294 84.781,249.459 84.411 C 250.011 84.236,250.109 83.854,250.191 81.566 L 250.286 78.923 251.918 81.666 C 253.271 83.938,253.691 84.408,254.367 84.408 L 255.184 84.408 255.275 79.918 L 255.365 75.429 254.540 75.429 C 253.726 75.429,253.714 75.464,253.714 78.041 C 253.714 81.279,253.579 81.280,251.755 78.048 C 250.394 75.635,250.208 75.443,249.224 75.436 L 248.163 75.429 248.163 79.817 M259.011 79.918 L 259.102 84.408 260.953 84.505 C 264.804 84.707,266.284 83.187,266.062 79.258 C 265.880 76.046,265.149 75.429,261.524 75.429 L 258.920 75.429 259.011 79.918 M269.388 79.046 C 269.388 83.398,270.079 84.571,272.644 84.571 C 275.750 84.571,276.571 83.340,276.571 78.679 L 276.571 75.429 275.592 75.429 L 274.612 75.429 274.612 78.552 C 274.612 82.137,274.324 82.939,273.033 82.939 C 271.546 82.939,271.347 82.448,271.347 78.792 L 271.347 75.429 270.367 75.429 L 269.388 75.429 269.388 79.046 M298.521 79.918 L 298.612 84.408 299.429 84.408 C 300.179 84.408,300.258 84.265,300.408 82.638 C 300.655 79.960,301.394 80.053,302.799 82.939 C 303.354 84.078,303.716 84.431,304.410 84.511 C 305.495 84.637,305.517 84.370,304.582 82.444 C 303.990 81.228,303.930 80.850,304.256 80.395 C 306.426 77.359,305.224 75.429,301.165 75.429 L 298.431 75.429 298.521 79.918 M307.982 76.163 C 309.055 77.857,310.025 80.618,310.190 82.449 C 310.470 85.542,311.915 85.423,312.177 82.286 C 312.294 80.871,312.703 79.413,313.401 77.914 C 314.665 75.201,314.659 75.429,313.467 75.429 C 312.626 75.429,312.409 75.616,311.962 76.735 C 311.674 77.453,311.307 78.041,311.146 78.041 C 310.984 78.041,310.617 77.453,310.329 76.735 C 309.859 75.559,309.693 75.429,308.662 75.429 C 307.554 75.429,307.532 75.453,307.982 76.163 M98.547 77.127 C 99.491 78.070,98.602 79.347,97.001 79.347 C 96.432 79.347,96.327 79.143,96.327 78.041 C 96.327 76.652,97.563 76.143,98.547 77.127 M109.206 77.460 C 110.493 79.298,109.543 82.939,107.777 82.939 C 106.555 82.939,106.056 82.265,105.874 80.370 C 105.583 77.343,107.780 75.425,109.206 77.460 M137.130 77.209 C 138.013 78.273,136.473 79.786,135.059 79.244 C 134.533 79.042,134.309 77.391,134.748 76.952 C 135.145 76.556,136.730 76.727,137.130 77.209 M185.456 77.209 C 186.340 78.273,184.800 79.786,183.385 79.244 C 182.859 79.042,182.636 77.391,183.075 76.952 C 183.471 76.556,185.056 76.727,185.456 77.209 M230.682 77.375 C 232.204 79.056,231.422 82.939,229.561 82.939 C 228.256 82.939,227.592 81.893,227.592 79.837 C 227.592 77.109,229.248 75.790,230.682 77.375 M263.407 77.362 C 265.333 79.156,264.249 82.900,261.796 82.928 L 260.898 82.939 260.898 79.837 L 260.898 76.735 261.816 76.735 C 262.321 76.735,263.037 77.017,263.407 77.362 M302.955 77.127 C 303.946 78.118,303.000 79.347,301.246 79.347 C 300.486 79.347,300.408 79.225,300.408 78.041 C 300.408 76.652,301.933 76.105,302.955 77.127 M175.172 79.918 C 175.369 80.840,175.312 80.980,174.739 80.980 C 173.795 80.980,173.612 80.482,174.059 79.129 C 174.486 77.836,174.771 78.039,175.172 79.918 M110.531 115.751 C 87.034 119.083,75.271 135.601,75.842 164.465 C 76.338 189.556,86.563 204.549,106.286 209.106 C 118.712 211.978,136.670 209.653,150.472 203.386 C 151.607 202.871,152.616 202.449,152.714 202.449 C 153.135 202.449,160.165 198.768,162.945 197.092 C 166.395 195.012,166.530 194.979,167.190 196.052 C 168.963 198.934,174.680 203.576,179.018 205.654 C 191.029 211.411,204.792 211.851,222.204 207.033 C 228.489 205.294,237.956 201.366,243.128 198.352 L 244.134 197.766 246.741 200.353 C 253.641 207.196,268.796 211.401,282.939 210.395 C 296.634 209.422,305.087 206.226,311.663 199.534 C 314.193 196.960,314.122 196.902,314.126 201.551 C 314.132 208.526,313.863 208.124,319.011 208.839 C 320.902 209.102,322.860 209.406,323.362 209.516 L 324.276 209.715 324.158 181.837 C 324.034 152.454,324.020 152.161,322.490 146.612 C 322.218 145.624,321.833 144.229,321.635 143.510 C 321.437 142.792,321.153 141.910,321.003 141.551 C 320.854 141.192,320.465 140.237,320.139 139.429 C 311.001 116.772,285.563 109.363,254.510 120.315 C 252.200 121.129,250.292 121.796,250.270 121.796 C 250.112 121.796,249.420 133.284,249.569 133.433 C 249.674 133.538,251.421 132.954,253.451 132.136 C 275.836 123.121,293.233 123.703,304.048 133.830 C 307.026 136.619,306.972 136.478,305.388 137.313 C 268.816 156.582,248.234 172.115,243.761 183.821 C 242.944 185.960,242.908 185.998,240.080 187.669 C 215.124 202.414,189.098 203.787,177.165 190.988 C 176.137 189.885,175.417 188.873,175.566 188.739 C 175.715 188.606,178.188 186.908,181.061 184.967 C 226.575 154.219,238.662 142.053,235.114 130.563 C 230.891 116.891,200.337 110.509,181.061 119.273 C 169.469 124.543,163.034 132.543,159.334 146.286 C 157.762 152.123,157.326 165.942,158.499 172.735 C 159.149 176.498,160.815 183.246,161.334 184.216 C 161.857 185.192,160.967 185.937,155.918 188.748 C 116.657 210.609,85.071 199.030,85.071 162.776 C 85.071 142.966,94.029 130.384,111.020 126.330 C 113.373 125.769,123.167 125.764,126.204 126.322 C 130.437 127.101,133.375 127.743,135.673 128.392 C 136.931 128.747,138.547 129.196,139.265 129.391 C 139.984 129.585,142.691 130.593,145.282 131.631 C 147.873 132.669,150.077 133.466,150.180 133.403 C 150.379 133.279,150.010 126.833,149.621 123.638 L 149.388 121.725 147.755 121.103 C 134.838 116.183,121.258 114.230,110.531 115.751 M208.248 125.565 C 217.517 127.033,223.992 130.798,223.998 134.723 C 224.004 137.943,218.632 143.988,208.501 152.163 C 207.277 153.151,205.011 154.995,203.464 156.260 C 193.964 164.036,171.339 179.652,170.407 179.076 C 169.207 178.334,167.184 168.218,167.184 162.960 C 167.184 136.285,183.295 121.613,208.248 125.565 M312.462 148.000 C 318.291 165.525,313.271 186.939,301.494 194.794 C 286.814 204.584,253.061 200.504,253.061 188.938 C 253.061 183.385,261.523 175.413,279.673 163.867 C 284.936 160.519,293.812 155.292,299.265 152.329 C 299.984 151.938,301.820 150.942,303.347 150.114 C 304.873 149.286,307.151 148.028,308.408 147.317 C 311.538 145.547,311.653 145.566,312.462 148.000"/><path id="path1" fill="#bb0412" d="M208.075 0.653 C 207.690 1.012,207.275 1.306,207.153 1.306 C 207.032 1.306,206.608 1.656,206.211 2.084 C 205.814 2.512,205.173 2.963,204.786 3.086 C 204.398 3.209,204.082 3.436,204.082 3.592 C 204.082 3.747,203.765 3.975,203.378 4.098 C 202.990 4.221,202.349 4.671,201.952 5.099 C 201.556 5.527,201.143 5.878,201.035 5.878 C 200.927 5.878,200.388 6.318,199.837 6.857 C 199.286 7.396,198.656 7.843,198.438 7.851 C 198.219 7.858,197.680 8.299,197.240 8.830 C 196.799 9.361,196.309 9.796,196.151 9.796 C 195.993 9.796,195.364 10.310,194.754 10.939 C 194.144 11.567,193.502 12.082,193.328 12.082 C 193.153 12.082,192.512 12.596,191.901 13.224 C 191.291 13.853,190.549 14.367,190.253 14.367 C 189.957 14.367,189.714 14.497,189.714 14.655 C 189.714 15.049,187.177 17.633,186.790 17.633 C 186.618 17.633,185.675 18.441,184.695 19.429 C 183.716 20.416,182.787 21.224,182.632 21.224 C 182.476 21.224,182.104 21.482,181.803 21.796 C 181.503 22.110,181.105 22.514,180.918 22.694 C 180.731 22.873,179.904 23.718,179.080 24.571 C 178.255 25.424,177.447 26.122,177.283 26.122 C 176.894 26.122,158.367 44.677,158.367 45.067 C 158.367 45.232,157.118 46.604,155.592 48.117 C 154.065 49.630,152.816 50.970,152.816 51.095 C 152.816 51.220,152.008 52.124,151.020 53.104 C 150.033 54.084,149.224 55.028,149.224 55.203 C 149.224 55.378,148.563 56.155,147.755 56.929 C 146.947 57.703,146.286 58.583,146.286 58.883 C 146.286 59.183,146.150 59.429,145.984 59.429 C 145.599 59.429,143.673 61.344,143.673 61.728 C 143.673 61.888,143.233 62.469,142.694 63.020 C 142.155 63.572,141.714 64.238,141.714 64.501 C 141.714 64.764,141.579 64.980,141.413 64.980 C 140.996 64.980,139.102 66.910,139.102 67.335 C 139.102 67.525,138.752 68.005,138.324 68.401 C 137.896 68.798,137.448 69.432,137.328 69.810 C 137.208 70.188,136.831 70.586,136.490 70.694 C 136.149 70.802,135.769 71.214,135.645 71.609 C 135.521 72.003,135.090 72.634,134.687 73.010 C 132.965 74.616,133.253 75.102,135.927 75.102 C 138.515 75.102,138.797 75.253,139.743 77.143 C 140.212 78.081,139.954 79.031,138.869 80.355 C 138.513 80.789,138.577 81.122,139.263 82.413 C 140.353 84.463,140.320 84.571,138.612 84.571 C 137.524 84.571,137.143 84.444,137.143 84.082 C 137.143 83.812,137.012 83.592,136.852 83.592 C 136.692 83.592,136.459 83.189,136.336 82.696 C 135.764 80.418,134.857 80.467,134.857 82.776 L 134.857 84.571 133.714 84.571 L 132.571 84.571 132.571 80.653 C 132.571 78.459,132.438 76.735,132.268 76.735 C 131.868 76.735,130.939 77.675,130.939 78.080 C 130.939 78.255,130.592 78.722,130.168 79.118 C 129.744 79.513,129.297 80.154,129.176 80.541 C 129.054 80.929,128.740 81.328,128.477 81.429 C 128.215 81.530,128.000 81.805,128.000 82.040 C 128.000 82.275,127.706 82.680,127.347 82.939 C 126.988 83.198,126.694 83.565,126.694 83.755 C 126.694 83.944,126.400 84.351,126.041 84.659 C 125.682 84.966,125.388 85.440,125.388 85.711 C 125.388 85.982,125.244 86.204,125.067 86.204 C 124.891 86.204,124.658 86.561,124.548 86.997 C 124.439 87.433,124.142 87.869,123.889 87.966 C 123.636 88.063,123.429 88.314,123.429 88.523 C 123.429 88.732,123.156 89.141,122.822 89.431 C 122.489 89.722,122.111 90.290,121.984 90.694 C 121.856 91.098,121.615 91.429,121.447 91.429 C 121.280 91.429,121.143 91.654,121.143 91.929 C 121.143 92.204,120.922 92.513,120.653 92.617 C 120.384 92.720,120.163 92.999,120.163 93.236 C 120.163 93.473,119.962 93.869,119.717 94.114 C 119.471 94.360,119.167 94.885,119.041 95.281 C 118.916 95.676,118.676 96.000,118.509 96.000 C 118.341 96.000,118.204 96.205,118.204 96.455 C 118.204 96.705,117.984 96.994,117.714 97.098 C 117.445 97.201,117.224 97.511,117.224 97.786 C 117.224 98.061,117.087 98.286,116.920 98.286 C 116.752 98.286,116.513 98.609,116.387 99.005 C 116.261 99.401,115.958 99.926,115.712 100.171 C 115.466 100.417,115.265 100.812,115.265 101.050 C 115.265 101.287,115.045 101.566,114.776 101.669 C 114.506 101.772,114.286 102.156,114.286 102.520 C 114.286 102.885,114.139 103.184,113.959 103.184 C 113.780 103.184,113.633 103.388,113.633 103.639 C 113.633 103.889,113.412 104.178,113.143 104.281 C 112.873 104.385,112.653 104.694,112.653 104.969 C 112.653 105.244,112.509 105.469,112.333 105.469 C 112.157 105.469,111.920 105.837,111.808 106.286 C 111.695 106.735,111.488 107.102,111.347 107.102 C 111.206 107.102,110.999 107.469,110.886 107.918 C 110.774 108.367,110.549 108.735,110.387 108.735 C 110.225 108.735,109.997 109.169,109.881 109.699 C 109.764 110.230,109.401 110.749,109.073 110.853 C 108.718 110.966,108.393 111.488,108.270 112.143 C 108.157 112.748,107.847 113.326,107.583 113.428 C 107.318 113.529,107.102 113.825,107.102 114.085 C 107.102 114.345,106.975 114.607,106.819 114.667 C 106.663 114.727,106.429 115.119,106.298 115.538 C 106.083 116.228,106.125 116.267,106.726 115.945 C 108.952 114.754,126.640 114.467,128.163 115.597 C 128.343 115.730,129.518 115.945,130.776 116.075 C 132.033 116.205,133.208 116.407,133.388 116.523 C 133.567 116.639,134.522 116.905,135.510 117.112 C 137.137 117.455,139.569 118.083,142.204 118.842 C 144.271 119.437,148.586 121.073,149.230 121.506 C 149.900 121.956,150.479 126.838,150.519 132.365 C 150.533 134.219,150.920 134.231,145.959 132.227 C 141.205 130.307,140.365 130.010,136.490 128.886 C 125.718 125.759,114.134 125.419,106.449 128.001 C 102.057 129.478,96.000 133.574,96.000 135.068 C 96.000 135.311,95.853 135.510,95.673 135.510 C 95.494 135.510,95.347 135.731,95.347 136.000 C 95.347 136.269,95.207 136.490,95.035 136.490 C 94.864 136.490,94.627 137.004,94.509 137.633 C 94.391 138.261,94.176 138.776,94.030 138.776 C 93.885 138.776,93.669 139.216,93.551 139.755 C 93.433 140.294,93.212 140.735,93.061 140.735 C 92.910 140.735,92.690 141.176,92.571 141.714 C 92.453 142.253,92.221 142.694,92.056 142.694 C 91.890 142.694,91.755 142.914,91.755 143.184 C 91.755 143.453,91.620 143.673,91.455 143.673 C 91.289 143.673,91.057 144.114,90.939 144.653 C 90.820 145.192,90.595 145.633,90.438 145.633 C 90.281 145.633,90.056 146.147,89.938 146.776 C 89.820 147.404,89.604 147.918,89.459 147.918 C 89.314 147.918,89.098 148.359,88.980 148.898 C 88.861 149.437,88.642 149.878,88.493 149.878 C 88.343 149.878,88.121 150.465,88.000 151.184 C 87.879 151.902,87.645 152.490,87.482 152.490 C 87.318 152.490,87.184 152.710,87.184 152.980 C 87.184 153.249,87.048 153.469,86.883 153.469 C 86.718 153.469,86.479 153.947,86.352 154.531 C 86.226 155.114,85.984 155.680,85.814 155.788 C 85.410 156.046,85.410 169.244,85.814 170.021 C 85.984 170.346,86.228 171.494,86.358 172.571 C 86.488 173.649,86.707 174.678,86.846 174.857 C 86.985 175.037,87.201 175.753,87.327 176.448 C 87.452 177.144,87.679 177.952,87.830 178.244 C 87.981 178.536,88.496 179.730,88.976 180.896 C 91.232 186.390,95.693 191.892,99.993 194.486 C 101.119 195.165,102.090 195.839,102.150 195.983 C 102.210 196.127,102.408 196.245,102.590 196.245 C 102.772 196.245,103.385 196.456,103.951 196.714 C 107.697 198.424,114.040 199.698,118.531 199.644 C 120.780 199.617,128.346 198.860,129.633 198.533 C 130.261 198.373,131.878 198.005,133.224 197.715 C 135.813 197.158,142.507 194.987,144.980 193.903 C 148.000 192.579,148.802 192.210,151.510 190.894 C 155.488 188.961,161.306 185.427,161.306 184.944 C 161.306 184.718,161.153 184.129,160.966 183.637 C 155.723 169.849,156.548 148.895,162.839 136.016 C 167.527 126.419,177.042 119.233,188.735 116.459 C 193.664 115.289,195.261 115.118,201.143 115.128 C 206.924 115.138,208.493 115.299,214.204 116.468 C 231.106 119.929,239.443 129.905,234.228 140.433 C 229.911 149.150,216.928 160.566,191.510 177.999 C 189.535 179.354,186.522 181.420,184.816 182.591 C 183.110 183.761,180.355 185.644,178.694 186.775 C 175.153 189.185,175.273 188.848,177.224 190.916 C 179.872 193.721,182.934 195.689,187.592 197.580 C 198.960 202.194,218.092 199.223,235.429 190.150 C 241.492 186.977,242.949 185.903,243.569 184.151 C 247.645 172.630,267.925 157.053,302.857 138.612 C 304.833 137.569,306.503 136.672,306.569 136.619 C 307.282 136.042,299.931 130.219,296.845 128.917 C 296.021 128.569,295.053 128.151,294.694 127.988 C 288.316 125.092,277.483 125.213,264.816 128.321 C 261.463 129.144,252.384 132.441,250.354 133.574 C 250.032 133.753,249.663 133.834,249.534 133.754 C 249.273 133.593,249.628 126.236,250.030 123.459 L 250.286 121.693 253.878 120.401 C 263.581 116.911,273.267 115.111,282.286 115.122 C 286.929 115.128,288.196 115.281,293.224 116.443 C 301.225 118.291,308.445 122.738,314.290 129.417 C 318.423 134.139,321.690 141.713,323.471 150.695 C 324.379 155.274,324.577 209.492,323.687 209.748 C 323.307 209.858,323.374 209.895,323.879 209.856 L 324.656 209.796 324.595 193.744 L 324.534 177.693 325.532 177.474 C 326.081 177.353,326.531 177.122,326.531 176.960 C 326.531 176.798,326.898 176.573,327.347 176.461 C 327.796 176.348,328.163 176.136,328.163 175.991 C 328.163 175.845,328.604 175.629,329.143 175.510 C 329.682 175.392,330.122 175.176,330.122 175.030 C 330.122 174.884,330.490 174.672,330.939 174.560 C 331.388 174.447,331.755 174.211,331.755 174.035 C 331.755 173.858,331.976 173.714,332.245 173.714 C 332.514 173.714,332.735 173.579,332.735 173.414 C 332.735 173.248,333.176 173.016,333.714 172.898 C 334.253 172.780,334.694 172.549,334.694 172.386 C 334.694 172.223,335.282 171.995,336.000 171.880 C 336.718 171.766,337.306 171.555,337.306 171.413 C 337.306 171.270,337.747 171.057,338.286 170.939 C 338.824 170.820,339.265 170.600,339.265 170.449 C 339.265 170.298,339.706 170.078,340.245 169.959 C 340.784 169.841,341.224 169.609,341.224 169.443 C 341.224 169.278,341.592 169.143,342.041 169.143 C 342.490 169.143,342.857 168.998,342.857 168.820 C 342.857 168.643,343.445 168.404,344.163 168.289 C 344.882 168.174,345.469 167.953,345.469 167.799 C 345.469 167.644,346.057 167.424,346.776 167.309 C 347.494 167.194,348.082 166.979,348.082 166.830 C 348.082 166.682,348.596 166.464,349.224 166.346 C 349.853 166.228,350.367 166.015,350.367 165.872 C 350.367 165.729,351.102 165.511,352.000 165.388 C 352.898 165.264,353.633 165.030,353.633 164.867 C 353.633 164.705,353.927 164.571,354.286 164.571 C 354.645 164.571,354.939 164.435,354.939 164.268 C 354.939 164.102,355.747 163.864,356.735 163.741 C 357.722 163.618,358.531 163.397,358.531 163.251 C 358.531 163.105,359.339 162.885,360.327 162.761 C 361.314 162.638,362.122 162.419,362.122 162.274 C 362.122 162.129,363.078 161.909,364.245 161.784 C 365.412 161.659,366.367 161.439,366.367 161.296 C 366.367 161.153,367.469 160.932,368.816 160.806 C 370.163 160.680,371.265 160.447,371.265 160.288 C 371.265 160.130,371.927 160.000,372.735 160.000 C 373.543 160.000,374.204 159.868,374.204 159.706 C 374.204 159.544,375.931 159.305,378.041 159.174 C 380.151 159.044,381.960 158.809,382.060 158.653 C 382.160 158.496,386.238 158.271,391.121 158.152 L 400.000 157.936 400.000 78.968 L 400.000 0.000 304.388 -0.000 C 209.228 -0.000,208.773 0.003,208.075 0.653 M157.994 75.886 C 158.681 76.574,158.779 76.853,158.493 77.310 C 158.015 78.072,156.707 78.237,156.340 77.581 C 156.037 77.040,154.610 76.862,154.322 77.329 C 154.231 77.477,155.094 78.079,156.241 78.667 C 160.345 80.772,159.798 84.749,155.408 84.723 C 152.631 84.707,150.641 82.622,152.468 81.644 C 153.287 81.206,153.245 81.198,154.122 81.959 C 154.986 82.708,156.408 82.835,156.408 82.162 C 156.408 81.568,155.794 81.084,154.687 80.806 C 153.191 80.430,151.837 78.926,151.837 77.640 C 151.837 74.964,155.911 73.803,157.994 75.886 M175.483 74.974 C 175.768 75.083,176.000 75.441,176.000 75.771 C 176.000 76.100,176.130 76.450,176.289 76.548 C 176.448 76.646,176.680 77.411,176.806 78.248 C 176.931 79.085,177.159 80.005,177.311 80.293 C 177.463 80.581,177.726 81.404,177.895 82.122 C 178.064 82.841,178.258 83.649,178.326 83.918 C 178.546 84.792,176.232 84.564,175.841 83.673 C 175.361 82.580,173.487 82.635,173.061 83.755 C 172.768 84.525,171.249 84.936,170.705 84.392 C 170.499 84.186,171.012 81.723,171.424 80.946 C 171.576 80.658,171.803 79.738,171.929 78.901 C 172.054 78.064,172.287 77.299,172.446 77.201 C 172.605 77.103,172.735 76.693,172.735 76.291 C 172.735 74.997,173.984 74.398,175.483 74.974 M197.146 76.007 C 198.421 77.546,196.802 78.971,195.386 77.555 C 193.916 76.085,192.197 78.497,192.943 80.985 C 193.481 82.781,194.326 83.173,195.436 82.144 C 196.484 81.173,197.714 81.427,197.714 82.614 C 197.714 84.473,193.586 85.517,191.981 84.065 C 189.365 81.697,190.121 75.797,193.143 74.996 C 194.537 74.627,196.391 75.095,197.146 76.007 M223.184 75.918 C 223.184 76.785,223.061 76.910,222.122 77.000 L 221.061 77.103 221.061 80.858 L 221.061 84.613 220.000 84.510 L 218.939 84.408 218.847 80.755 L 218.754 77.101 217.704 76.999 C 216.881 76.920,216.629 76.729,216.543 76.119 C 216.381 74.971,216.988 74.764,220.245 74.856 L 223.184 74.939 223.184 75.918 M149.551 76.082 L 149.551 77.061 147.265 77.061 C 145.045 77.061,144.980 77.085,144.980 77.878 C 144.980 78.650,145.076 78.694,146.796 78.694 L 148.613 78.694 148.510 79.755 C 148.411 80.790,148.366 80.819,146.694 80.915 C 145.120 81.006,144.980 81.079,144.980 81.813 C 144.980 82.585,145.058 82.612,147.265 82.612 L 149.551 82.612 149.551 83.592 L 149.551 84.571 146.122 84.571 L 142.694 84.571 142.694 79.837 L 142.694 75.102 146.122 75.102 L 149.551 75.102 149.551 76.082 M168.490 76.082 L 168.490 77.061 166.367 77.061 C 164.321 77.061,164.245 77.091,164.245 77.878 C 164.245 78.628,164.364 78.694,165.725 78.694 C 168.275 78.694,168.160 80.727,165.599 80.917 C 163.156 81.098,163.622 82.611,166.122 82.617 C 168.267 82.623,168.931 82.919,168.763 83.794 C 168.658 84.343,168.271 84.418,165.139 84.501 L 161.633 84.594 161.633 80.065 C 161.633 74.675,161.319 75.102,165.279 75.102 L 168.490 75.102 168.490 76.082 M187.021 75.837 C 188.249 77.153,188.264 78.684,187.065 80.342 C 186.784 80.730,186.859 81.200,187.390 82.365 C 188.314 84.392,188.275 84.571,186.921 84.571 C 185.828 84.571,185.714 84.467,184.966 82.776 C 184.508 81.740,183.962 80.980,183.678 80.980 C 183.297 80.980,183.184 81.390,183.184 82.776 L 183.184 84.571 182.041 84.571 L 180.898 84.571 180.898 79.837 L 180.898 75.102 183.617 75.102 C 186.015 75.102,186.416 75.189,187.021 75.837 M203.037 76.980 L 203.136 78.694 204.408 78.694 L 205.680 78.694 205.779 76.980 L 205.878 75.265 207.020 75.265 L 208.163 75.265 208.163 79.837 L 208.163 84.408 207.020 84.408 L 205.878 84.408 205.780 82.531 L 205.682 80.653 204.392 80.653 L 203.102 80.653 203.097 82.204 C 203.091 84.175,202.782 84.651,201.597 84.516 L 200.653 84.408 200.561 80.181 C 200.452 75.151,200.484 75.029,201.875 75.163 C 202.913 75.263,202.941 75.307,203.037 76.980 M232.466 76.319 C 235.107 79.523,233.290 84.571,229.495 84.571 C 226.306 84.571,225.331 83.141,225.600 78.857 C 225.833 75.152,230.179 73.545,232.466 76.319 M244.408 79.837 L 244.408 84.408 243.347 84.510 L 242.286 84.613 242.286 79.837 L 242.286 75.061 243.347 75.163 L 244.408 75.265 244.408 79.837 M250.945 76.419 C 251.402 77.143,252.102 78.355,252.500 79.112 L 253.224 80.490 253.388 77.878 C 253.546 75.352,253.578 75.265,254.367 75.265 L 255.184 75.265 255.274 79.918 L 255.365 84.571 254.381 84.571 C 253.492 84.571,253.245 84.310,251.841 81.891 L 250.286 79.211 250.191 81.911 L 250.095 84.611 249.048 84.509 L 248.000 84.408 247.908 80.181 C 247.801 75.241,247.834 75.102,249.129 75.102 C 249.925 75.102,250.274 75.355,250.945 76.419 M264.484 75.640 C 267.148 77.214,267.068 82.641,264.360 84.079 C 263.626 84.469,262.718 84.588,261.061 84.512 L 258.776 84.408 258.684 80.181 C 258.633 77.855,258.665 75.761,258.755 75.527 C 259.005 74.875,263.332 74.960,264.484 75.640 M271.347 78.694 C 271.527 82.476,271.685 82.939,272.796 82.939 C 274.016 82.939,274.256 82.281,274.355 78.675 L 274.449 75.265 275.510 75.163 L 276.571 75.061 276.571 78.811 C 276.571 83.680,276.018 84.571,272.998 84.571 C 269.808 84.571,269.388 83.925,269.388 79.014 L 269.388 75.059 270.286 75.162 L 271.184 75.265 271.347 78.694 M285.506 75.963 C 286.907 77.364,285.561 78.671,284.059 77.368 C 283.198 76.621,282.667 76.569,282.158 77.181 C 281.702 77.732,282.031 78.030,284.082 78.926 C 287.848 80.570,287.246 84.571,283.233 84.571 C 280.557 84.571,278.558 82.706,280.357 81.886 C 281.101 81.547,281.271 81.590,281.767 82.247 C 282.499 83.218,284.245 83.130,284.245 82.122 C 284.245 81.658,283.726 81.208,282.449 80.565 C 279.703 79.183,279.103 77.756,280.513 75.962 C 281.499 74.709,284.253 74.709,285.506 75.963 M295.783 75.879 C 295.919 76.588,295.336 77.049,294.296 77.056 C 293.597 77.061,293.569 77.188,293.480 80.735 L 293.388 84.408 292.327 84.510 L 291.265 84.613 291.265 80.837 C 291.265 77.061,291.265 77.061,290.476 77.061 C 288.924 77.061,288.069 76.121,288.881 75.309 C 289.458 74.733,295.662 75.246,295.783 75.879 M304.442 75.903 C 305.532 76.913,305.599 78.560,304.602 79.827 L 303.898 80.722 304.745 82.450 C 305.669 84.334,305.624 84.571,304.340 84.571 C 303.626 84.571,303.336 84.273,302.602 82.776 C 301.970 81.486,301.536 80.980,301.065 80.980 C 300.487 80.980,300.408 81.194,300.408 82.776 C 300.408 84.553,300.398 84.571,299.429 84.571 L 298.449 84.571 298.449 79.837 L 298.449 75.102 301.014 75.102 C 303.283 75.102,303.677 75.194,304.442 75.903 M310.001 75.918 C 311.273 78.278,311.156 78.232,311.941 76.676 C 312.943 74.690,315.254 74.331,314.302 76.310 C 312.385 80.290,312.163 80.957,312.163 82.746 L 312.163 84.613 311.102 84.510 L 310.041 84.408 309.861 82.122 C 309.733 80.505,309.383 79.219,308.662 77.723 C 308.102 76.561,307.719 75.487,307.812 75.337 C 308.115 74.846,309.641 75.251,310.001 75.918 M134.857 77.878 C 134.857 78.593,134.999 78.694,136.000 78.694 C 137.232 78.694,137.682 77.664,136.626 77.259 C 135.485 76.822,134.857 77.041,134.857 77.878 M183.184 78.020 C 183.184 79.053,183.414 79.169,184.752 78.810 C 185.957 78.487,185.586 77.251,184.245 77.122 C 183.256 77.027,183.184 77.088,183.184 78.020 M228.240 77.557 C 227.064 78.974,228.030 82.939,229.551 82.939 C 230.973 82.939,231.952 78.613,230.792 77.453 C 230.242 76.903,228.731 76.965,228.240 77.557 M260.898 79.847 C 260.898 82.970,261.155 83.329,262.788 82.485 C 265.136 81.271,264.542 77.061,262.022 77.061 L 260.898 77.061 260.898 79.847 M300.408 78.041 C 300.408 79.241,302.398 79.531,302.994 78.417 C 303.435 77.593,302.843 77.061,301.486 77.061 C 300.506 77.061,300.408 77.150,300.408 78.041 M174.244 79.196 C 173.902 80.088,174.016 80.653,174.537 80.653 C 174.912 80.653,174.981 80.435,174.817 79.755 C 174.541 78.605,174.491 78.555,174.244 79.196 M195.592 125.568 C 185.170 126.869,177.776 131.339,173.203 139.102 C 171.768 141.539,171.306 142.491,170.108 145.469 C 169.699 146.487,168.906 149.460,168.278 152.327 C 167.442 156.142,167.426 168.658,168.253 171.918 C 169.211 175.691,170.145 178.588,170.470 178.789 C 170.733 178.951,175.093 176.446,177.633 174.674 C 178.082 174.361,179.956 173.130,181.798 171.940 C 188.922 167.337,198.505 160.179,208.644 151.888 C 220.199 142.438,224.446 137.405,223.795 133.933 C 223.241 130.981,218.935 128.275,211.755 126.366 C 207.428 125.216,200.969 124.897,195.592 125.568 M308.898 147.135 C 307.731 147.772,305.527 148.966,304.000 149.788 C 298.941 152.514,288.328 158.629,282.001 162.464 C 264.207 173.252,253.061 183.438,253.061 188.913 C 253.061 200.034,286.462 204.465,300.738 195.237 C 312.398 187.701,317.851 168.618,313.328 151.184 C 311.796 145.282,311.982 145.452,308.898 147.135 M76.280 179.129 C 76.171 179.413,76.082 179.927,76.082 180.272 C 76.082 180.616,75.936 180.898,75.759 180.898 C 75.581 180.898,75.342 181.486,75.227 182.204 C 75.113 182.922,74.899 183.510,74.754 183.510 C 74.608 183.510,74.390 184.171,74.269 184.980 C 74.147 185.788,73.918 186.449,73.759 186.449 C 73.600 186.449,73.469 186.816,73.469 187.265 C 73.469 187.714,73.329 188.082,73.158 188.082 C 72.986 188.082,72.749 188.596,72.632 189.224 C 72.514 189.853,72.300 190.367,72.158 190.367 C 72.015 190.367,71.797 191.102,71.673 192.000 C 71.550 192.898,71.325 193.633,71.173 193.633 C 71.021 193.633,70.798 194.294,70.677 195.102 C 70.556 195.910,70.337 196.571,70.191 196.571 C 70.044 196.571,69.824 197.380,69.700 198.367 C 69.577 199.355,69.346 200.163,69.187 200.163 C 69.028 200.163,68.898 200.531,68.898 200.980 C 68.898 201.429,68.760 201.796,68.591 201.796 C 68.423 201.796,68.186 202.457,68.065 203.265 C 67.943 204.073,67.731 204.735,67.592 204.735 C 67.454 204.735,67.240 205.543,67.116 206.531 C 66.993 207.518,66.766 208.327,66.612 208.327 C 66.458 208.327,66.232 209.135,66.108 210.122 C 65.985 211.110,65.765 211.918,65.619 211.918 C 65.473 211.918,65.252 212.727,65.129 213.714 C 65.005 214.702,64.774 215.510,64.615 215.510 C 64.457 215.510,64.327 215.951,64.327 216.490 C 64.327 217.029,64.190 217.469,64.023 217.469 C 63.857 217.469,63.619 218.278,63.496 219.265 C 63.373 220.253,63.156 221.061,63.015 221.061 C 62.874 221.061,62.656 221.943,62.531 223.020 C 62.406 224.098,62.188 224.980,62.047 224.980 C 61.906 224.980,61.688 225.935,61.563 227.102 C 61.438 228.269,61.215 229.224,61.067 229.224 C 60.920 229.224,60.696 230.106,60.571 231.184 C 60.446 232.261,60.212 233.143,60.050 233.143 C 59.888 233.143,59.755 233.731,59.755 234.449 C 59.755 235.167,59.617 235.755,59.448 235.755 C 59.280 235.755,59.040 236.784,58.916 238.041 C 58.792 239.298,58.572 240.327,58.427 240.327 C 58.281 240.327,58.061 241.355,57.937 242.612 C 57.813 243.869,57.601 244.898,57.466 244.898 C 57.330 244.898,57.113 246.037,56.983 247.429 C 56.853 248.820,56.622 250.038,56.469 250.133 C 56.316 250.229,56.090 251.515,55.967 252.990 C 55.844 254.466,55.617 255.673,55.463 255.673 C 55.309 255.673,55.184 256.322,55.184 257.116 C 55.184 257.909,55.044 258.607,54.873 258.667 C 54.703 258.727,54.461 260.135,54.337 261.796 C 54.212 263.457,53.996 264.816,53.857 264.816 C 53.717 264.816,53.499 266.286,53.372 268.082 C 53.245 269.878,53.027 271.347,52.888 271.347 C 52.749 271.347,52.530 273.037,52.401 275.102 C 52.272 277.167,52.052 278.857,51.913 278.857 C 51.773 278.857,51.552 280.841,51.423 283.265 C 51.293 285.690,51.057 287.673,50.899 287.673 C 50.741 287.673,50.612 288.837,50.612 290.259 C 50.612 291.680,50.479 292.893,50.316 292.952 C 50.153 293.012,49.913 295.706,49.783 298.939 C 49.652 302.171,49.425 304.894,49.278 304.989 C 49.131 305.084,48.907 309.970,48.781 315.846 L 48.550 326.531 144.889 326.531 L 241.227 326.531 241.465 320.816 C 241.596 317.673,241.813 315.102,241.948 315.102 C 242.083 315.102,242.298 313.304,242.427 311.106 C 242.555 308.909,242.778 307.035,242.921 306.943 C 243.064 306.851,243.287 305.343,243.417 303.592 C 243.547 301.841,243.786 300.408,243.949 300.408 C 244.112 300.408,244.245 299.820,244.245 299.102 C 244.245 298.384,244.375 297.796,244.533 297.796 C 244.692 297.796,244.925 296.694,245.051 295.347 C 245.177 294.000,245.397 292.898,245.541 292.898 C 245.684 292.898,245.904 291.943,246.029 290.776 C 246.154 289.608,246.371 288.653,246.511 288.653 C 246.651 288.653,246.852 287.822,246.956 286.806 C 247.061 285.790,247.285 284.872,247.453 284.765 C 247.621 284.659,247.864 283.653,247.993 282.531 C 248.122 281.408,248.360 280.490,248.522 280.490 C 248.684 280.490,248.816 280.122,248.816 279.673 C 248.816 279.224,248.958 278.857,249.132 278.857 C 249.305 278.857,249.544 278.122,249.663 277.224 C 249.783 276.327,249.994 275.592,250.134 275.592 C 250.273 275.592,250.489 274.857,250.612 273.959 C 250.736 273.061,250.961 272.327,251.113 272.327 C 251.264 272.327,251.488 271.665,251.609 270.857 C 251.730 270.049,251.958 269.388,252.115 269.388 C 252.272 269.388,252.494 268.800,252.609 268.082 C 252.724 267.363,252.946 266.776,253.103 266.776 C 253.260 266.776,253.388 266.408,253.388 265.959 C 253.388 265.510,253.528 265.143,253.699 265.143 C 253.871 265.143,254.108 264.629,254.226 264.000 C 254.344 263.371,254.558 262.857,254.702 262.857 C 254.845 262.857,255.062 262.269,255.184 261.551 C 255.305 260.833,255.537 260.245,255.698 260.245 C 255.860 260.245,256.086 259.657,256.201 258.939 C 256.316 258.220,256.526 257.633,256.669 257.633 C 256.811 257.633,257.025 257.192,257.143 256.653 C 257.261 256.114,257.493 255.673,257.659 255.673 C 257.824 255.673,257.959 255.318,257.959 254.884 C 257.959 254.450,258.095 254.046,258.262 253.986 C 258.428 253.927,258.658 253.497,258.774 253.032 L 258.983 252.187 251.043 251.915 C 246.675 251.765,207.616 251.620,164.245 251.593 L 85.388 251.542 85.298 246.424 L 85.208 241.306 158.767 241.306 C 199.225 241.306,239.713 241.208,248.742 241.089 L 265.157 240.873 265.349 240.110 C 265.454 239.690,265.671 239.347,265.831 239.347 C 265.991 239.347,266.122 239.127,266.122 238.857 C 266.122 238.588,266.253 238.367,266.414 238.367 C 266.574 238.367,266.797 238.000,266.910 237.551 C 267.022 237.102,267.247 236.735,267.409 236.735 C 267.571 236.735,267.800 236.294,267.918 235.755 C 268.037 235.216,268.266 234.776,268.428 234.776 C 268.590 234.776,268.814 234.408,268.927 233.959 C 269.040 233.510,269.263 233.143,269.423 233.143 C 269.583 233.143,269.714 232.918,269.714 232.643 C 269.714 232.368,269.935 232.058,270.204 231.955 C 270.473 231.851,270.694 231.504,270.694 231.184 C 270.694 230.863,270.914 230.516,271.184 230.413 C 271.453 230.309,271.673 230.000,271.673 229.725 C 271.673 229.450,271.818 229.224,271.994 229.224 C 272.170 229.224,272.404 228.868,272.513 228.432 C 272.622 227.996,272.919 227.560,273.172 227.462 C 273.426 227.365,273.633 227.003,273.633 226.657 C 273.633 226.312,273.853 225.944,274.122 225.841 C 274.392 225.738,274.612 225.461,274.612 225.225 C 274.612 224.990,274.906 224.585,275.265 224.327 C 275.624 224.068,275.918 223.663,275.918 223.428 C 275.918 223.192,276.133 222.917,276.396 222.817 C 276.658 222.716,276.973 222.317,277.094 221.929 C 277.216 221.542,277.645 220.917,278.048 220.541 C 278.451 220.165,278.879 219.548,278.999 219.170 C 279.119 218.792,279.503 218.391,279.853 218.280 C 280.203 218.169,280.490 217.824,280.490 217.514 C 280.490 217.203,280.924 216.589,281.456 216.148 C 281.987 215.707,282.428 215.175,282.435 214.965 C 282.443 214.754,283.007 214.018,283.690 213.329 C 284.373 212.639,285.029 211.820,285.149 211.507 C 285.275 211.179,285.709 210.939,286.175 210.939 C 286.619 210.939,287.073 210.792,287.184 210.612 C 287.295 210.433,288.148 210.279,289.080 210.271 C 290.013 210.264,291.437 210.106,292.245 209.921 C 293.053 209.737,294.192 209.507,294.776 209.410 C 295.359 209.314,295.837 209.104,295.837 208.944 C 295.837 208.558,295.630 208.573,293.538 209.114 C 277.601 213.237,254.419 208.730,246.164 199.905 L 244.181 197.786 242.989 198.494 C 239.885 200.339,231.872 203.899,227.265 205.480 C 222.587 207.087,219.979 207.795,213.224 209.294 C 195.405 213.248,175.449 207.613,167.153 196.285 L 166.346 195.183 164.561 196.318 C 153.985 203.043,141.963 207.547,128.000 210.016 C 124.750 210.591,112.224 210.601,109.551 210.031 C 105.941 209.262,101.719 208.219,101.224 207.974 C 100.955 207.841,99.783 207.341,98.620 206.864 C 93.830 204.897,84.245 197.400,84.245 195.621 C 84.245 195.444,83.914 194.939,83.510 194.499 C 82.602 193.511,79.673 188.015,79.673 187.299 C 79.673 187.011,79.539 186.776,79.376 186.776 C 79.212 186.776,78.979 186.188,78.857 185.469 C 78.736 184.751,78.533 184.163,78.407 184.163 C 78.135 184.163,77.061 180.276,77.061 179.293 C 77.061 178.492,76.564 178.387,76.280 179.129 M311.510 199.690 C 307.612 203.355,303.870 205.666,298.516 207.713 C 296.593 208.448,296.308 208.628,297.306 208.475 C 298.024 208.365,298.752 208.140,298.922 207.975 C 299.093 207.809,299.470 207.673,299.759 207.673 C 301.445 207.673,308.860 203.012,312.048 199.948 L 313.403 198.646 313.596 199.813 C 313.702 200.455,313.790 202.474,313.792 204.300 C 313.797 208.458,313.873 208.665,315.382 208.609 C 316.274 208.575,316.367 208.528,315.755 208.418 C 314.396 208.174,314.304 207.841,314.128 202.520 L 313.959 197.388 311.510 199.690 M317.555 208.929 C 317.733 209.094,318.980 209.313,320.327 209.417 C 323.082 209.628,322.233 209.211,319.188 208.857 C 317.998 208.718,317.359 208.746,317.555 208.929"/><path id="path2" fill="#5ba116" d="M85.368 242.057 C 85.278 242.291,85.246 244.458,85.296 246.874 L 85.388 251.265 109.061 251.256 C 122.082 251.251,173.620 251.215,223.592 251.175 L 314.449 251.102 314.449 246.367 L 314.449 241.633 199.990 241.633 C 106.355 241.633,85.501 241.710,85.368 242.057"/><path id="path3" fill="#e4041c" d="M0.000 163.265 L 0.000 326.531 24.275 326.531 L 48.550 326.531 48.781 315.846 C 48.907 309.970,49.131 305.084,49.278 304.989 C 49.425 304.894,49.652 302.171,49.783 298.939 C 49.913 295.706,50.153 293.012,50.316 292.952 C 50.479 292.893,50.612 291.680,50.612 290.259 C 50.612 288.837,50.741 287.673,50.899 287.673 C 51.057 287.673,51.293 285.690,51.423 283.265 C 51.552 280.841,51.773 278.857,51.913 278.857 C 52.052 278.857,52.272 277.167,52.401 275.102 C 52.530 273.037,52.749 271.347,52.888 271.347 C 53.027 271.347,53.245 269.878,53.372 268.082 C 53.499 266.286,53.717 264.816,53.857 264.816 C 53.996 264.816,54.212 263.457,54.337 261.796 C 54.461 260.135,54.703 258.727,54.873 258.667 C 55.044 258.607,55.184 257.909,55.184 257.116 C 55.184 256.322,55.309 255.673,55.463 255.673 C 55.617 255.673,55.844 254.466,55.967 252.990 C 56.090 251.515,56.316 250.229,56.469 250.133 C 56.622 250.038,56.853 248.820,56.983 247.429 C 57.113 246.037,57.330 244.898,57.466 244.898 C 57.601 244.898,57.813 243.869,57.937 242.612 C 58.061 241.355,58.281 240.327,58.427 240.327 C 58.572 240.327,58.792 239.298,58.916 238.041 C 59.040 236.784,59.280 235.755,59.448 235.755 C 59.617 235.755,59.755 235.167,59.755 234.449 C 59.755 233.731,59.888 233.143,60.050 233.143 C 60.212 233.143,60.446 232.261,60.571 231.184 C 60.696 230.106,60.920 229.224,61.067 229.224 C 61.215 229.224,61.438 228.269,61.563 227.102 C 61.688 225.935,61.906 224.980,62.047 224.980 C 62.188 224.980,62.406 224.098,62.531 223.020 C 62.656 221.943,62.874 221.061,63.015 221.061 C 63.156 221.061,63.373 220.253,63.496 219.265 C 63.619 218.278,63.857 217.469,64.023 217.469 C 64.190 217.469,64.327 217.029,64.327 216.490 C 64.327 215.951,64.457 215.510,64.615 215.510 C 64.774 215.510,65.005 214.702,65.129 213.714 C 65.252 212.727,65.473 211.918,65.619 211.918 C 65.765 211.918,65.985 211.110,66.108 210.122 C 66.232 209.135,66.458 208.327,66.612 208.327 C 66.766 208.327,66.993 207.518,67.116 206.531 C 67.240 205.543,67.454 204.735,67.592 204.735 C 67.731 204.735,67.943 204.073,68.065 203.265 C 68.186 202.457,68.423 201.796,68.591 201.796 C 68.760 201.796,68.898 201.429,68.898 200.980 C 68.898 200.531,69.028 200.163,69.187 200.163 C 69.346 200.163,69.577 199.355,69.700 198.367 C 69.824 197.380,70.044 196.571,70.191 196.571 C 70.337 196.571,70.556 195.910,70.677 195.102 C 70.798 194.294,71.021 193.633,71.173 193.633 C 71.325 193.633,71.550 192.898,71.673 192.000 C 71.797 191.102,72.015 190.367,72.158 190.367 C 72.300 190.367,72.514 189.853,72.632 189.224 C 72.749 188.596,72.986 188.082,73.158 188.082 C 73.329 188.082,73.469 187.714,73.469 187.265 C 73.469 186.816,73.600 186.449,73.759 186.449 C 73.918 186.449,74.147 185.788,74.269 184.980 C 74.390 184.171,74.608 183.510,74.754 183.510 C 74.899 183.510,75.113 182.922,75.227 182.204 C 75.342 181.486,75.581 180.898,75.759 180.898 C 75.936 180.898,76.082 180.616,76.082 180.272 C 76.082 179.418,76.416 178.612,76.770 178.612 C 76.930 178.612,77.061 178.919,77.061 179.293 C 77.061 180.332,78.143 184.163,78.436 184.163 C 78.789 184.163,78.795 184.195,77.889 181.070 C 75.252 171.969,74.962 155.820,77.268 146.449 C 81.679 128.526,92.610 118.429,110.531 115.724 L 113.469 115.281 110.470 115.414 C 108.820 115.487,107.153 115.716,106.765 115.924 C 106.118 116.270,106.080 116.239,106.298 115.538 C 106.429 115.119,106.663 114.727,106.819 114.667 C 106.975 114.607,107.102 114.345,107.102 114.085 C 107.102 113.825,107.318 113.529,107.583 113.428 C 107.847 113.326,108.157 112.748,108.270 112.143 C 108.393 111.488,108.718 110.966,109.073 110.853 C 109.401 110.749,109.764 110.230,109.881 109.699 C 109.997 109.169,110.225 108.735,110.387 108.735 C 110.549 108.735,110.774 108.367,110.886 107.918 C 110.999 107.469,111.206 107.102,111.347 107.102 C 111.488 107.102,111.695 106.735,111.808 106.286 C 111.920 105.837,112.157 105.469,112.333 105.469 C 112.509 105.469,112.653 105.244,112.653 104.969 C 112.653 104.694,112.873 104.385,113.143 104.281 C 113.412 104.178,113.633 103.889,113.633 103.639 C 113.633 103.388,113.780 103.184,113.959 103.184 C 114.139 103.184,114.286 102.885,114.286 102.520 C 114.286 102.156,114.506 101.772,114.776 101.669 C 115.045 101.566,115.265 101.287,115.265 101.050 C 115.265 100.812,115.466 100.417,115.712 100.171 C 115.958 99.926,116.261 99.401,116.387 99.005 C 116.513 98.609,116.752 98.286,116.920 98.286 C 117.087 98.286,117.224 98.061,117.224 97.786 C 117.224 97.511,117.445 97.201,117.714 97.098 C 117.984 96.994,118.204 96.705,118.204 96.455 C 118.204 96.205,118.341 96.000,118.509 96.000 C 118.676 96.000,118.916 95.676,119.041 95.281 C 119.167 94.885,119.471 94.360,119.717 94.114 C 119.962 93.869,120.163 93.473,120.163 93.236 C 120.163 92.999,120.384 92.720,120.653 92.617 C 120.922 92.513,121.143 92.204,121.143 91.929 C 121.143 91.654,121.280 91.429,121.447 91.429 C 121.615 91.429,121.856 91.098,121.984 90.694 C 122.111 90.290,122.489 89.722,122.822 89.431 C 123.156 89.141,123.429 88.732,123.429 88.523 C 123.429 88.314,123.636 88.063,123.889 87.966 C 124.142 87.869,124.439 87.433,124.548 86.997 C 124.658 86.561,124.891 86.204,125.067 86.204 C 125.244 86.204,125.388 85.982,125.388 85.711 C 125.388 85.440,125.682 84.966,126.041 84.659 C 126.400 84.351,126.694 83.944,126.694 83.755 C 126.694 83.565,126.988 83.198,127.347 82.939 C 127.706 82.680,128.000 82.275,128.000 82.040 C 128.000 81.805,128.215 81.530,128.477 81.429 C 128.740 81.328,129.054 80.929,129.176 80.541 C 129.297 80.154,129.727 79.529,130.130 79.153 C 130.533 78.777,130.961 78.160,131.081 77.782 C 131.201 77.404,131.585 77.004,131.935 76.893 C 132.285 76.782,132.571 76.407,132.571 76.060 C 132.571 75.400,137.420 75.079,138.318 75.678 C 139.529 76.487,139.734 78.543,138.732 79.818 L 138.035 80.704 138.813 82.376 C 139.242 83.295,139.555 84.165,139.510 84.309 C 139.465 84.454,139.576 84.571,139.755 84.571 C 140.262 84.571,140.150 84.082,139.263 82.413 C 138.577 81.122,138.513 80.789,138.869 80.355 C 139.954 79.031,140.212 78.081,139.743 77.143 C 138.797 75.253,138.515 75.102,135.927 75.102 C 133.253 75.102,132.965 74.616,134.687 73.010 C 135.090 72.634,135.521 72.003,135.645 71.609 C 135.769 71.214,136.149 70.802,136.490 70.694 C 136.831 70.586,137.208 70.188,137.328 69.810 C 137.448 69.432,137.896 68.798,138.324 68.401 C 138.752 68.005,139.102 67.525,139.102 67.335 C 139.102 66.910,140.996 64.980,141.413 64.980 C 141.579 64.980,141.714 64.764,141.714 64.501 C 141.714 64.238,142.155 63.572,142.694 63.020 C 143.233 62.469,143.673 61.888,143.673 61.728 C 143.673 61.344,145.599 59.429,145.984 59.429 C 146.150 59.429,146.286 59.183,146.286 58.883 C 146.286 58.583,146.947 57.703,147.755 56.929 C 148.563 56.155,149.224 55.378,149.224 55.203 C 149.224 55.028,150.033 54.084,151.020 53.104 C 152.008 52.124,152.816 51.220,152.816 51.095 C 152.816 50.970,154.065 49.630,155.592 48.117 C 157.118 46.604,158.367 45.232,158.367 45.067 C 158.367 44.677,176.894 26.122,177.283 26.122 C 177.447 26.122,178.236 25.444,179.037 24.614 C 179.838 23.784,180.665 22.939,180.875 22.736 C 181.085 22.533,181.503 22.110,181.803 21.796 C 182.104 21.482,182.476 21.224,182.632 21.224 C 182.787 21.224,183.716 20.416,184.695 19.429 C 185.675 18.441,186.618 17.633,186.790 17.633 C 187.177 17.633,189.714 15.049,189.714 14.655 C 189.714 14.497,189.957 14.367,190.253 14.367 C 190.549 14.367,191.291 13.853,191.901 13.224 C 192.512 12.596,193.153 12.082,193.328 12.082 C 193.502 12.082,194.144 11.567,194.754 10.939 C 195.364 10.310,195.993 9.796,196.151 9.796 C 196.309 9.796,196.799 9.361,197.240 8.830 C 197.680 8.299,198.219 7.858,198.438 7.851 C 198.656 7.843,199.286 7.396,199.837 6.857 C 200.388 6.318,200.927 5.878,201.035 5.878 C 201.143 5.878,201.556 5.527,201.952 5.099 C 202.349 4.671,202.990 4.221,203.378 4.098 C 203.765 3.975,204.082 3.747,204.082 3.592 C 204.082 3.436,204.398 3.209,204.786 3.086 C 205.173 2.963,205.814 2.512,206.211 2.084 C 206.608 1.656,207.032 1.306,207.153 1.306 C 207.275 1.306,207.690 1.012,208.075 0.653 L 208.776 0.000 104.388 0.000 L 0.000 0.000 0.000 163.265 M153.796 74.989 C 150.877 76.158,151.466 79.997,154.687 80.806 C 155.794 81.084,156.408 81.568,156.408 82.162 C 156.408 82.835,154.986 82.708,154.122 81.959 C 153.245 81.198,153.287 81.206,152.468 81.644 C 151.311 82.263,152.387 84.592,153.817 84.561 C 154.118 84.555,154.053 84.424,153.633 84.194 C 152.835 83.758,152.163 82.949,152.163 82.425 C 152.163 81.738,153.400 81.668,153.991 82.321 C 154.980 83.414,157.284 82.921,156.822 81.716 C 156.719 81.446,155.855 80.881,154.903 80.460 C 152.820 79.539,152.015 78.480,152.325 77.069 C 152.824 74.797,157.344 74.447,158.176 76.615 C 158.553 77.599,157.127 78.091,156.408 77.224 C 155.970 76.696,154.597 76.558,154.315 77.014 C 154.220 77.168,154.528 77.220,155.000 77.129 C 155.577 77.019,155.992 77.150,156.269 77.529 C 156.771 78.216,158.002 78.094,158.493 77.310 C 159.318 75.993,155.722 74.217,153.796 74.989 M173.127 75.167 C 172.911 75.383,172.745 75.787,172.757 76.065 C 172.771 76.399,172.899 76.322,173.133 75.837 C 173.526 75.022,174.941 74.826,175.608 75.494 C 175.870 75.756,176.000 75.768,176.000 75.529 C 176.000 74.770,173.801 74.493,173.127 75.167 M217.959 74.983 C 220.268 75.224,223.275 75.246,223.134 75.020 C 223.050 74.886,221.631 74.799,219.981 74.828 C 218.330 74.857,217.420 74.926,217.959 74.983 M109.756 75.614 C 112.235 76.896,112.352 82.430,109.934 84.015 C 106.984 85.948,103.998 83.777,104.003 79.704 C 104.007 75.864,106.632 73.998,109.756 75.614 M142.694 79.837 C 142.694 82.441,142.804 84.572,142.939 84.572 C 143.073 84.572,143.139 82.515,143.085 80.001 L 142.986 75.429 146.105 75.429 C 148.982 75.429,149.224 75.478,149.224 76.067 C 149.224 76.626,148.951 76.719,147.020 76.819 L 144.816 76.933 147.184 76.997 L 149.551 77.061 149.551 76.082 L 149.551 75.102 146.122 75.102 L 142.694 75.102 142.694 79.837 M161.850 75.320 C 161.549 75.621,161.575 84.571,161.878 84.572 C 162.012 84.572,162.078 82.515,162.024 80.001 L 161.925 75.429 165.044 75.429 C 167.920 75.429,168.163 75.478,168.163 76.066 C 168.163 76.620,167.896 76.716,166.122 76.801 C 164.146 76.895,164.080 76.926,164.042 77.800 C 164.005 78.626,164.014 78.633,164.145 77.882 C 164.281 77.105,164.401 77.061,166.389 77.061 L 168.490 77.061 168.490 76.082 L 168.490 75.102 165.279 75.102 C 163.513 75.102,161.970 75.200,161.850 75.320 M181.714 75.308 C 184.053 75.551,186.703 75.572,186.563 75.347 C 186.479 75.212,185.133 75.126,183.573 75.154 C 182.012 75.183,181.176 75.252,181.714 75.308 M191.675 75.917 C 191.254 76.365,191.008 76.831,191.128 76.951 C 191.248 77.072,191.347 76.996,191.347 76.784 C 191.347 76.572,191.824 76.107,192.408 75.752 C 192.997 75.392,193.240 75.104,192.955 75.103 C 192.672 75.103,192.096 75.469,191.675 75.917 M195.619 75.221 C 196.277 75.797,197.349 76.141,196.940 75.645 C 196.693 75.347,196.265 75.102,195.987 75.102 C 195.710 75.102,195.544 75.156,195.619 75.221 M200.723 75.304 C 200.411 75.616,200.422 84.164,200.735 84.358 C 200.869 84.442,200.935 82.467,200.881 79.970 L 200.782 75.429 201.762 75.429 C 202.703 75.429,202.746 75.493,202.868 77.063 L 202.996 78.698 202.967 76.981 C 202.939 75.292,201.678 74.349,200.723 75.304 M205.855 75.534 C 205.755 75.794,205.730 76.648,205.800 77.432 C 205.925 78.841,205.927 78.838,205.984 77.143 C 206.040 75.462,206.060 75.429,207.038 75.429 L 208.034 75.429 207.936 79.985 C 207.881 82.491,207.951 84.426,208.091 84.285 C 208.232 84.144,208.305 82.057,208.255 79.647 L 208.163 75.265 207.100 75.163 C 206.399 75.095,205.974 75.222,205.855 75.534 M243.282 75.287 L 244.279 75.472 244.180 80.007 C 244.126 82.501,244.196 84.426,244.336 84.285 C 244.477 84.144,244.550 82.057,244.500 79.647 L 244.408 75.265 243.347 75.184 L 242.286 75.102 243.282 75.287 M248.054 75.320 C 247.753 75.621,247.779 84.170,248.082 84.358 C 248.216 84.442,248.282 82.477,248.228 79.992 L 248.129 75.472 249.208 75.340 L 250.286 75.207 249.279 75.154 C 248.725 75.126,248.174 75.200,248.054 75.320 M253.555 75.510 C 253.296 76.272,253.223 80.655,253.469 80.654 C 253.604 80.653,253.714 79.488,253.714 78.064 C 253.714 75.638,253.761 75.465,254.449 75.332 L 255.184 75.191 254.439 75.147 C 254.029 75.122,253.631 75.286,253.555 75.510 M258.830 75.320 C 258.529 75.621,258.554 84.170,258.857 84.358 C 258.992 84.442,259.058 82.473,259.003 79.984 L 258.905 75.457 261.452 75.345 L 264.000 75.233 261.524 75.168 C 260.162 75.132,258.950 75.200,258.830 75.320 M274.426 75.535 C 274.334 75.773,274.309 77.352,274.368 79.045 L 274.477 82.122 274.544 78.796 L 274.612 75.470 275.673 75.338 L 276.735 75.207 275.663 75.154 C 275.034 75.124,274.523 75.280,274.426 75.535 M299.673 75.341 C 300.437 75.410,301.686 75.410,302.449 75.341 C 303.212 75.272,302.588 75.216,301.061 75.216 C 299.535 75.216,298.910 75.272,299.673 75.341 M312.816 75.228 C 312.816 75.298,313.249 75.418,313.779 75.496 C 314.308 75.573,314.667 75.517,314.576 75.369 C 314.414 75.108,312.816 74.979,312.816 75.228 M91.429 76.082 C 91.429 76.662,91.211 76.735,89.469 76.735 L 87.510 76.735 87.510 77.714 C 87.510 78.579,87.622 78.694,88.463 78.694 C 90.860 78.694,91.399 80.220,89.061 80.389 L 87.673 80.490 87.510 82.449 C 87.350 84.372,87.329 84.408,86.367 84.408 L 85.388 84.408 85.297 79.918 L 85.206 75.429 88.317 75.429 C 91.211 75.429,91.429 75.474,91.429 76.082 M100.245 76.082 C 101.113 76.949,101.092 78.686,100.200 79.820 L 99.502 80.707 100.353 82.360 C 101.293 84.183,101.243 84.571,100.072 84.571 C 99.438 84.571,99.119 84.221,98.435 82.776 C 97.269 80.311,96.401 80.279,96.262 82.694 C 96.171 84.278,96.101 84.408,95.347 84.408 L 94.531 84.408 94.440 79.918 L 94.349 75.429 96.970 75.429 C 99.156 75.429,99.700 75.537,100.245 76.082 M118.089 77.774 C 118.919 80.832,119.249 80.851,119.988 77.883 L 120.599 75.429 122.023 75.429 L 123.447 75.429 123.356 79.918 C 123.270 84.160,123.229 84.408,122.612 84.408 C 122.031 84.408,121.948 84.158,121.861 82.122 C 121.739 79.283,121.363 78.830,120.830 80.880 C 119.913 84.409,119.813 84.614,119.071 84.508 C 118.367 84.408,117.095 81.432,116.865 79.347 C 116.815 78.898,116.692 79.853,116.591 81.469 C 116.413 84.338,116.389 84.408,115.592 84.408 L 114.776 84.408 114.685 79.918 L 114.594 75.429 116.023 75.429 L 117.453 75.429 118.089 77.774 M176.189 77.224 C 176.608 78.972,176.983 79.603,176.771 78.204 C 176.663 77.486,176.434 76.751,176.264 76.571 C 176.067 76.364,176.040 76.602,176.189 77.224 M197.436 76.984 C 197.559 77.454,197.431 77.701,197.010 77.810 C 196.454 77.953,196.453 77.968,196.990 78.003 C 197.690 78.049,198.105 77.158,197.613 76.666 C 197.362 76.415,197.311 76.506,197.436 76.984 M96.327 78.041 C 96.327 79.450,96.931 79.746,98.307 79.009 C 99.594 78.320,98.851 76.735,97.241 76.735 C 96.392 76.735,96.327 76.828,96.327 78.041 M106.258 77.768 C 105.148 79.915,106.036 82.939,107.777 82.939 C 109.048 82.939,109.714 81.873,109.714 79.837 C 109.714 76.818,107.450 75.463,106.258 77.768 M134.748 76.952 C 134.309 77.391,134.533 79.042,135.059 79.244 C 136.473 79.786,138.013 78.273,137.130 77.209 C 136.730 76.727,135.145 76.556,134.748 76.952 M183.075 76.952 C 182.636 77.391,182.859 79.042,183.385 79.244 C 184.800 79.786,186.340 78.273,185.456 77.209 C 185.056 76.727,183.471 76.556,183.075 76.952 M193.161 77.460 C 192.882 77.860,192.659 78.411,192.666 78.685 C 192.673 78.959,192.894 78.688,193.157 78.082 C 193.594 77.075,193.726 76.998,194.695 77.183 C 195.449 77.328,195.614 77.294,195.265 77.066 C 194.468 76.543,193.703 76.687,193.161 77.460 M217.785 76.918 L 218.754 77.101 218.864 80.755 L 218.974 84.408 218.956 80.653 L 218.939 76.898 217.878 76.816 C 216.851 76.737,216.848 76.741,217.785 76.918 M220.898 77.143 C 220.640 77.882,220.566 84.573,220.816 84.572 C 220.951 84.572,221.061 82.891,221.061 80.837 L 221.061 77.103 222.122 76.971 L 223.184 76.839 222.112 76.787 C 221.507 76.757,220.979 76.912,220.898 77.143 M228.203 77.306 C 227.813 77.803,227.819 77.829,228.245 77.501 C 228.514 77.293,229.102 77.056,229.551 76.974 L 230.367 76.824 229.509 76.779 C 229.036 76.755,228.450 76.991,228.203 77.306 M261.306 76.960 C 261.620 77.042,262.135 77.042,262.449 76.960 C 262.763 76.878,262.506 76.810,261.878 76.810 C 261.249 76.810,260.992 76.878,261.306 76.960 M289.714 76.960 C 290.029 77.042,290.543 77.042,290.857 76.960 C 291.171 76.878,290.914 76.810,290.286 76.810 C 289.657 76.810,289.400 76.878,289.714 76.960 M293.365 77.165 C 293.275 77.402,293.248 79.128,293.307 81.002 L 293.413 84.408 293.482 80.756 L 293.551 77.105 294.449 76.969 L 295.347 76.833 294.439 76.784 C 293.939 76.757,293.456 76.928,293.365 77.165 M301.386 76.977 C 302.014 77.053,302.749 77.286,303.019 77.496 C 303.447 77.828,303.452 77.804,303.062 77.306 C 302.764 76.926,302.216 76.752,301.429 76.787 L 300.245 76.839 301.386 76.977 M136.626 77.259 C 137.682 77.664,137.232 78.694,136.000 78.694 C 134.999 78.694,134.857 78.593,134.857 77.878 C 134.857 77.041,135.485 76.822,136.626 77.259 M172.320 77.284 C 172.236 77.431,172.082 78.139,171.979 78.857 L 171.790 80.163 172.259 78.717 C 172.680 77.417,172.715 76.597,172.320 77.284 M185.405 77.917 C 185.475 78.408,185.286 78.667,184.752 78.810 C 183.414 79.169,183.184 79.053,183.184 78.020 C 183.184 76.748,185.225 76.653,185.405 77.917 M190.566 77.904 C 190.290 78.622,190.326 81.389,190.617 81.846 C 190.749 82.054,190.857 81.135,190.857 79.806 C 190.857 77.168,190.855 77.151,190.566 77.904 M154.122 77.893 C 154.122 77.991,154.863 78.414,155.768 78.833 C 156.673 79.253,157.708 79.862,158.068 80.188 C 158.592 80.662,158.683 80.678,158.525 80.266 C 158.268 79.597,154.122 77.362,154.122 77.893 M174.253 78.522 C 173.944 79.327,174.003 79.585,174.367 79.020 C 174.641 78.597,174.685 78.604,174.689 79.075 C 174.692 79.375,174.783 79.852,174.892 80.137 C 175.020 80.469,174.912 80.653,174.589 80.653 C 174.314 80.653,174.019 80.430,173.935 80.157 C 173.827 79.809,173.796 79.833,173.832 80.238 C 173.863 80.575,174.203 80.862,174.647 80.925 C 175.353 81.025,175.393 80.952,175.178 79.945 C 174.832 78.327,174.515 77.839,174.253 78.522 M266.224 79.837 C 266.225 80.914,266.286 81.316,266.359 80.729 C 266.432 80.142,266.430 79.260,266.356 78.770 C 266.281 78.279,266.222 78.759,266.224 79.837 M147.838 79.510 C 147.987 80.286,147.919 80.327,146.487 80.327 C 145.650 80.327,144.980 80.479,144.980 80.670 C 144.980 81.716,148.407 80.828,148.510 79.755 C 148.583 79.007,148.476 78.694,148.148 78.694 C 147.827 78.694,147.731 78.948,147.838 79.510 M166.849 78.909 C 167.866 79.413,167.143 80.293,165.633 80.390 C 164.097 80.489,164.082 80.501,164.082 81.633 L 164.082 82.776 166.204 82.939 C 168.133 83.087,168.324 83.167,168.302 83.820 C 168.289 84.216,168.399 84.464,168.547 84.373 C 169.848 83.569,168.472 82.612,166.014 82.612 C 164.345 82.612,164.245 82.566,164.245 81.796 C 164.245 81.066,164.378 80.980,165.511 80.980 C 167.219 80.980,168.437 79.132,166.931 78.827 C 166.702 78.781,166.665 78.818,166.849 78.909 M231.273 80.000 C 231.273 80.808,231.336 81.139,231.414 80.735 C 231.492 80.331,231.492 79.669,231.414 79.265 C 231.336 78.861,231.273 79.192,231.273 80.000 M186.983 79.898 C 186.493 80.552,186.446 80.848,186.740 81.417 C 187.100 82.112,187.103 82.112,186.911 81.364 C 186.786 80.878,186.921 80.380,187.288 79.975 C 187.603 79.627,187.800 79.285,187.726 79.214 C 187.652 79.143,187.318 79.450,186.983 79.898 M300.816 79.245 C 301.131 79.328,301.645 79.328,301.959 79.245 C 302.273 79.163,302.016 79.096,301.388 79.096 C 300.759 79.096,300.502 79.163,300.816 79.245 M202.915 80.760 C 202.816 81.019,202.791 81.873,202.861 82.657 C 202.986 84.065,202.989 84.062,203.045 82.367 L 203.102 80.653 204.408 80.653 L 205.714 80.653 205.714 82.430 C 205.714 83.407,205.824 84.275,205.959 84.358 C 206.094 84.441,206.131 83.605,206.041 82.500 L 205.878 80.490 204.487 80.389 C 203.505 80.318,203.043 80.427,202.915 80.760 M171.320 80.871 C 171.200 80.990,171.111 81.395,171.123 81.769 C 171.142 82.394,171.169 82.386,171.456 81.667 C 171.776 80.867,171.710 80.481,171.320 80.871 M192.666 81.174 C 192.652 81.908,193.821 83.186,194.179 82.828 C 194.297 82.709,194.216 82.612,193.998 82.612 C 193.780 82.612,193.394 82.135,193.140 81.551 C 192.785 80.734,192.676 80.647,192.666 81.174 M309.915 82.348 C 309.895 83.370,309.988 84.274,310.122 84.358 C 310.257 84.441,310.323 83.825,310.270 82.989 C 310.117 80.605,309.957 80.315,309.915 82.348 M134.479 82.776 C 134.418 83.764,134.478 84.572,134.612 84.572 C 134.747 84.572,134.857 83.763,134.857 82.776 C 134.857 80.458,134.624 80.458,134.479 82.776 M136.017 81.878 C 136.275 82.371,136.487 82.959,136.488 83.184 C 136.489 83.408,136.637 83.592,136.816 83.592 C 136.996 83.592,137.143 83.523,137.143 83.440 C 137.143 83.043,136.013 80.980,135.796 80.980 C 135.660 80.980,135.760 81.384,136.017 81.878 M182.806 82.776 C 182.744 83.764,182.804 84.572,182.939 84.572 C 183.073 84.572,183.184 83.763,183.184 82.776 C 183.184 80.458,182.950 80.458,182.806 82.776 M195.459 82.122 C 194.975 82.571,194.707 82.939,194.865 82.939 C 195.023 82.939,195.497 82.571,195.918 82.122 C 196.340 81.673,196.608 81.306,196.513 81.306 C 196.418 81.306,195.944 81.673,195.459 82.122 M197.577 82.667 C 197.563 82.966,197.147 83.525,196.653 83.909 C 196.091 84.346,196.010 84.485,196.435 84.281 C 197.369 83.832,197.973 83.045,197.771 82.542 C 197.661 82.267,197.594 82.310,197.577 82.667 M145.469 82.807 C 146.977 83.052,149.551 83.084,149.551 82.857 C 149.551 82.722,148.486 82.632,147.184 82.657 C 145.882 82.681,145.110 82.749,145.469 82.807 M172.784 83.592 C 172.373 84.771,172.620 84.916,173.061 83.755 C 173.415 82.826,175.673 82.509,175.673 83.389 C 175.673 83.636,175.917 84.040,176.214 84.287 C 176.711 84.699,176.710 84.650,176.205 83.673 C 175.416 82.147,173.305 82.096,172.784 83.592 M157.808 83.820 C 157.410 84.233,157.203 84.571,157.349 84.571 C 157.667 84.571,158.855 83.302,158.665 83.165 C 158.591 83.112,158.205 83.407,157.808 83.820 M191.745 83.766 C 192.234 84.280,192.692 84.634,192.763 84.554 C 192.835 84.474,192.435 84.053,191.875 83.620 L 190.857 82.832 191.745 83.766 M155.024 84.802 C 155.430 84.880,156.018 84.878,156.330 84.796 C 156.643 84.714,156.310 84.650,155.592 84.654 C 154.873 84.657,154.618 84.724,155.024 84.802 M114.612 114.894 C 113.901 115.041,115.933 115.214,120.000 115.354 C 123.592 115.477,126.957 115.676,127.477 115.795 C 128.084 115.935,128.350 115.894,128.219 115.682 C 127.868 115.114,116.688 114.467,114.612 114.894 M199.440 115.180 C 200.388 115.246,201.858 115.245,202.705 115.178 C 203.552 115.111,202.776 115.057,200.980 115.058 C 199.184 115.059,198.491 115.114,199.440 115.180 M280.746 115.180 C 281.695 115.246,283.164 115.245,284.011 115.178 C 284.858 115.111,284.082 115.057,282.286 115.058 C 280.490 115.059,279.797 115.114,280.746 115.180 M194.208 115.496 C 194.614 115.574,195.202 115.571,195.514 115.490 C 195.826 115.408,195.494 115.344,194.776 115.348 C 194.057 115.351,193.802 115.418,194.208 115.496 M206.612 115.496 C 207.016 115.574,207.678 115.574,208.082 115.496 C 208.486 115.418,208.155 115.354,207.347 115.354 C 206.539 115.354,206.208 115.418,206.612 115.496 M130.286 116.209 C 131.638 116.634,133.679 116.893,133.360 116.600 C 133.195 116.449,132.253 116.242,131.265 116.139 C 130.202 116.029,129.803 116.057,130.286 116.209 M135.020 117.181 C 135.976 117.578,138.062 117.925,137.469 117.587 C 137.200 117.434,136.392 117.218,135.673 117.108 C 134.850 116.982,134.609 117.009,135.020 117.181 M138.939 118.154 C 139.949 118.586,141.641 118.920,141.061 118.573 C 140.792 118.411,140.057 118.188,139.429 118.077 C 138.658 117.940,138.498 117.965,138.939 118.154 M142.204 119.184 C 143.180 119.603,143.996 119.603,143.347 119.184 C 143.078 119.010,142.563 118.875,142.204 118.885 L 141.551 118.903 142.204 119.184 M144.327 119.782 C 144.596 119.948,145.184 120.183,145.633 120.303 C 146.200 120.454,146.300 120.429,145.959 120.218 C 145.690 120.052,145.102 119.817,144.653 119.697 C 144.086 119.546,143.986 119.571,144.327 119.782 M146.939 120.772 C 147.734 121.246,149.109 121.590,148.735 121.222 C 148.555 121.045,147.967 120.806,147.429 120.691 C 146.789 120.554,146.619 120.582,146.939 120.772 M149.599 123.336 C 149.745 124.375,149.961 126.988,150.080 129.143 C 150.198 131.298,150.359 132.882,150.436 132.664 C 150.672 132.002,149.928 122.042,149.620 121.734 C 149.455 121.569,149.446 122.251,149.599 123.336 M231.184 124.571 C 231.793 125.200,232.365 125.714,232.455 125.714 C 232.544 125.714,232.119 125.200,231.510 124.571 C 230.901 123.943,230.329 123.429,230.239 123.429 C 230.149 123.429,230.574 123.943,231.184 124.571 M197.147 125.292 C 197.553 125.370,198.141 125.367,198.453 125.286 C 198.765 125.204,198.433 125.140,197.714 125.144 C 196.996 125.147,196.740 125.214,197.147 125.292 M204.330 125.292 C 204.737 125.370,205.324 125.367,205.636 125.286 C 205.949 125.204,205.616 125.140,204.898 125.144 C 204.180 125.147,203.924 125.214,204.330 125.292 M114.122 125.905 C 99.114 127.373,88.010 138.430,85.704 154.204 C 85.438 156.020,86.013 156.385,86.346 154.612 C 86.464 153.984,86.700 153.469,86.872 153.469 C 87.043 153.469,87.184 153.249,87.184 152.980 C 87.184 152.710,87.318 152.490,87.482 152.490 C 87.645 152.490,87.879 151.902,88.000 151.184 C 88.121 150.465,88.343 149.878,88.493 149.878 C 88.642 149.878,88.861 149.437,88.980 148.898 C 89.098 148.359,89.314 147.918,89.459 147.918 C 89.604 147.918,89.820 147.404,89.938 146.776 C 90.056 146.147,90.281 145.633,90.438 145.633 C 90.595 145.633,90.820 145.192,90.939 144.653 C 91.057 144.114,91.289 143.673,91.455 143.673 C 91.620 143.673,91.755 143.453,91.755 143.184 C 91.755 142.914,91.890 142.694,92.056 142.694 C 92.221 142.694,92.453 142.253,92.571 141.714 C 92.690 141.176,92.910 140.735,93.061 140.735 C 93.212 140.735,93.433 140.294,93.551 139.755 C 93.669 139.216,93.885 138.776,94.030 138.776 C 94.176 138.776,94.391 138.261,94.509 137.633 C 94.627 137.004,94.864 136.490,95.035 136.490 C 95.207 136.490,95.347 136.269,95.347 136.000 C 95.347 135.731,95.494 135.510,95.673 135.510 C 95.853 135.510,96.000 135.311,96.000 135.068 C 96.000 133.510,102.011 129.513,106.776 127.904 C 110.931 126.501,112.735 126.298,120.009 126.416 C 123.886 126.479,126.572 126.427,125.978 126.300 C 124.663 126.018,115.935 125.728,114.122 125.905 M128.000 127.020 C 128.449 127.164,129.257 127.282,129.796 127.282 C 130.748 127.282,130.753 127.275,129.959 127.020 C 129.510 126.877,128.702 126.759,128.163 126.759 C 127.211 126.759,127.206 126.766,128.000 127.020 M168.146 128.245 L 167.020 129.469 168.245 128.344 C 169.385 127.297,169.620 127.020,169.370 127.020 C 169.316 127.020,168.765 127.571,168.146 128.245 M132.408 127.831 C 133.127 128.076,134.008 128.278,134.367 128.281 L 135.020 128.285 134.367 128.026 C 134.008 127.883,133.127 127.681,132.408 127.576 L 131.102 127.386 132.408 127.831 M249.552 128.490 C 249.555 129.208,249.622 129.464,249.700 129.057 C 249.778 128.651,249.775 128.063,249.694 127.751 C 249.612 127.439,249.548 127.771,249.552 128.490 M136.327 128.815 C 137.429 129.334,138.675 129.503,137.796 129.014 C 137.527 128.864,136.865 128.654,136.327 128.547 L 135.347 128.353 136.327 128.815 M139.592 129.795 C 140.694 130.314,141.940 130.483,141.061 129.993 C 140.792 129.843,140.131 129.634,139.592 129.527 L 138.612 129.333 139.592 129.795 M146.612 132.408 C 147.061 132.665,147.576 132.875,147.755 132.875 C 147.935 132.875,147.714 132.665,147.265 132.408 C 146.816 132.152,146.302 131.942,146.122 131.942 C 145.943 131.942,146.163 132.152,146.612 132.408 M148.898 133.354 C 149.792 133.902,150.531 134.023,150.531 133.621 C 150.531 133.480,150.273 133.354,149.959 133.342 C 149.645 133.329,149.094 133.214,148.735 133.086 C 148.312 132.935,148.369 133.029,148.898 133.354 M160.187 142.227 C 160.066 142.706,160.031 143.160,160.108 143.237 C 160.185 143.314,160.346 142.986,160.466 142.507 C 160.587 142.029,160.622 141.574,160.545 141.497 C 160.468 141.420,160.307 141.749,160.187 142.227 M159.385 145.035 C 159.364 145.334,159.262 145.848,159.159 146.177 C 158.981 146.744,158.991 146.745,159.344 146.194 C 159.549 145.874,159.651 145.360,159.570 145.051 C 159.437 144.545,159.419 144.544,159.385 145.035 M158.443 149.878 C 158.443 150.506,158.510 150.763,158.592 150.449 C 158.675 150.135,158.675 149.620,158.592 149.306 C 158.510 148.992,158.443 149.249,158.443 149.878 M225.942 151.102 L 224.816 152.327 226.041 151.201 C 227.181 150.154,227.415 149.878,227.166 149.878 C 227.112 149.878,226.561 150.429,225.942 151.102 M167.586 156.408 C 167.586 157.037,167.653 157.294,167.735 156.980 C 167.817 156.665,167.817 156.151,167.735 155.837 C 167.653 155.522,167.586 155.780,167.586 156.408 M85.111 158.286 C 84.849 161.058,84.890 165.493,85.200 167.837 C 85.353 169.001,85.449 167.250,85.472 162.857 C 85.509 155.630,85.442 154.781,85.111 158.286 M157.518 161.633 C 157.518 164.237,157.568 165.302,157.630 164.000 C 157.692 162.698,157.692 160.567,157.630 159.265 C 157.568 157.963,157.518 159.029,157.518 161.633 M167.316 162.776 C 167.316 165.649,167.366 166.781,167.427 165.291 C 167.488 163.800,167.487 161.449,167.426 160.066 C 167.365 158.683,167.315 159.902,167.316 162.776 M85.742 171.429 C 86.053 173.988,86.573 175.010,86.324 172.571 C 86.214 171.494,85.989 170.392,85.824 170.122 C 85.634 169.812,85.604 170.289,85.742 171.429 M86.531 175.107 C 86.531 176.771,89.393 183.261,91.628 186.666 C 93.873 190.086,102.223 197.446,102.201 195.986 C 102.199 195.859,101.298 195.241,100.199 194.612 C 95.942 192.177,91.258 186.453,88.976 180.896 C 88.496 179.730,87.974 178.525,87.813 178.218 C 87.653 177.912,87.427 177.064,87.310 176.334 C 87.108 175.066,86.531 174.159,86.531 175.107 M78.899 185.469 C 79.114 186.713,79.250 186.981,79.527 186.705 C 79.625 186.606,79.480 186.030,79.204 185.426 L 78.702 184.327 78.899 185.469 M79.673 187.472 C 79.673 188.339,83.473 194.939,83.972 194.939 C 84.139 194.939,83.821 194.277,83.264 193.467 C 82.707 192.658,81.729 190.895,81.090 189.549 C 79.945 187.140,79.673 186.741,79.673 187.472 M84.247 195.456 C 84.241 196.519,90.627 202.489,93.796 204.383 C 95.773 205.564,95.200 204.929,92.980 203.478 C 90.720 202.001,87.698 199.235,85.611 196.735 C 84.862 195.837,84.248 195.261,84.247 195.456 M102.531 196.354 C 102.531 196.439,103.005 196.673,103.584 196.875 C 104.164 197.077,104.495 197.108,104.319 196.944 C 103.947 196.595,102.531 196.129,102.531 196.354 M105.633 197.726 C 106.171 197.973,106.833 198.176,107.102 198.177 C 107.371 198.178,107.097 197.964,106.493 197.702 C 105.104 197.099,104.312 197.121,105.633 197.726 M169.306 198.857 C 170.008 199.576,170.655 200.163,170.745 200.163 C 170.835 200.163,170.334 199.576,169.633 198.857 C 168.931 198.139,168.284 197.551,168.194 197.551 C 168.104 197.551,168.605 198.139,169.306 198.857 M129.469 198.531 C 128.637 198.888,129.496 198.888,130.612 198.531 C 131.268 198.320,131.301 198.267,130.776 198.260 C 130.416 198.254,129.829 198.376,129.469 198.531 M113.469 199.525 C 115.808 199.889,117.985 199.861,115.918 199.494 C 115.110 199.350,113.861 199.241,113.143 199.252 C 111.870 199.270,111.879 199.277,113.469 199.525 M120.980 199.510 C 119.435 199.722,119.417 199.735,120.653 199.750 C 121.371 199.759,122.841 199.656,123.918 199.523 L 125.878 199.280 124.245 199.283 C 123.347 199.285,121.878 199.387,120.980 199.510 M279.108 200.400 C 279.695 200.473,280.576 200.471,281.067 200.397 C 281.558 200.322,281.078 200.263,280.000 200.264 C 278.922 200.266,278.521 200.327,279.108 200.400 M95.347 205.267 C 95.347 205.483,100.301 207.726,100.451 207.577 C 100.516 207.511,99.395 206.929,97.958 206.283 C 96.522 205.637,95.347 205.179,95.347 205.267 M101.410 207.964 C 101.756 208.281,103.779 208.813,103.472 208.506 C 103.362 208.396,102.785 208.167,102.189 207.996 C 101.593 207.825,101.242 207.810,101.410 207.964 M105.306 209.152 C 106.024 209.389,106.906 209.581,107.265 209.578 C 107.624 209.576,107.184 209.370,106.286 209.120 C 104.243 208.551,103.553 208.574,105.306 209.152 M109.714 209.991 C 110.196 210.204,113.273 210.393,117.224 210.452 L 123.918 210.553 117.551 210.306 C 114.049 210.171,110.669 209.963,110.041 209.845 C 109.013 209.651,108.980 209.666,109.714 209.991 M124.816 210.193 C 125.310 210.268,126.118 210.268,126.612 210.193 C 127.106 210.118,126.702 210.057,125.714 210.057 C 124.727 210.057,124.322 210.118,124.816 210.193 M199.440 210.527 C 200.388 210.593,201.858 210.592,202.705 210.525 C 203.552 210.458,202.776 210.404,200.980 210.405 C 199.184 210.406,198.491 210.461,199.440 210.527"/><path id="path4" fill="#8c040c" d="M385.224 158.284 C 383.473 158.343,382.041 158.514,382.041 158.664 C 382.041 158.814,380.278 159.042,378.122 159.170 C 375.967 159.299,374.204 159.538,374.204 159.702 C 374.204 159.866,373.543 160.000,372.735 160.000 C 371.927 160.000,371.265 160.130,371.265 160.288 C 371.265 160.447,370.163 160.680,368.816 160.806 C 367.469 160.932,366.367 161.153,366.367 161.296 C 366.367 161.439,365.412 161.659,364.245 161.784 C 363.078 161.909,362.122 162.129,362.122 162.274 C 362.122 162.419,361.314 162.638,360.327 162.761 C 359.339 162.885,358.531 163.105,358.531 163.251 C 358.531 163.397,357.722 163.618,356.735 163.741 C 355.747 163.864,354.939 164.102,354.939 164.268 C 354.939 164.435,354.645 164.571,354.286 164.571 C 353.927 164.571,353.633 164.705,353.633 164.867 C 353.633 165.030,352.898 165.264,352.000 165.388 C 351.102 165.511,350.367 165.729,350.367 165.872 C 350.367 166.015,349.853 166.228,349.224 166.346 C 348.596 166.464,348.082 166.682,348.082 166.830 C 348.082 166.979,347.494 167.194,346.776 167.309 C 346.057 167.424,345.469 167.644,345.469 167.799 C 345.469 167.953,344.882 168.174,344.163 168.289 C 343.445 168.404,342.857 168.643,342.857 168.820 C 342.857 168.998,342.490 169.143,342.041 169.143 C 341.592 169.143,341.224 169.278,341.224 169.443 C 341.224 169.609,340.784 169.841,340.245 169.959 C 339.706 170.078,339.265 170.298,339.265 170.449 C 339.265 170.600,338.824 170.820,338.286 170.939 C 337.747 171.057,337.306 171.270,337.306 171.413 C 337.306 171.555,336.718 171.766,336.000 171.880 C 335.282 171.995,334.694 172.223,334.694 172.386 C 334.694 172.549,334.253 172.780,333.714 172.898 C 333.176 173.016,332.735 173.248,332.735 173.414 C 332.735 173.579,332.514 173.714,332.245 173.714 C 331.976 173.714,331.755 173.858,331.755 174.035 C 331.755 174.211,331.388 174.447,330.939 174.560 C 330.490 174.672,330.122 174.884,330.122 175.030 C 330.122 175.176,329.682 175.392,329.143 175.510 C 328.604 175.629,328.163 175.845,328.163 175.991 C 328.163 176.136,327.796 176.348,327.347 176.461 C 326.898 176.573,326.531 176.798,326.531 176.960 C 326.531 177.122,326.081 177.353,325.532 177.474 L 324.534 177.693 324.593 193.744 C 324.651 209.244,324.632 209.796,324.041 209.791 C 322.187 209.775,317.679 209.187,317.527 208.941 C 317.429 208.782,316.639 208.653,315.771 208.653 C 313.823 208.653,313.797 208.595,313.792 204.300 C 313.790 202.474,313.702 200.455,313.596 199.813 L 313.403 198.646 312.048 199.948 C 308.816 203.054,301.441 207.673,299.713 207.673 C 299.398 207.673,299.055 207.812,298.950 207.981 C 298.846 208.150,298.102 208.387,297.299 208.508 C 296.495 208.629,295.837 208.841,295.837 208.981 C 295.837 209.120,295.359 209.314,294.776 209.410 C 294.192 209.507,293.053 209.737,292.245 209.921 C 291.437 210.106,290.013 210.264,289.080 210.271 C 288.148 210.279,287.295 210.433,287.184 210.612 C 287.073 210.792,286.619 210.939,286.175 210.939 C 285.709 210.939,285.275 211.179,285.149 211.507 C 285.029 211.820,284.373 212.639,283.690 213.329 C 283.007 214.018,282.443 214.754,282.435 214.965 C 282.428 215.175,281.987 215.707,281.456 216.148 C 280.924 216.589,280.490 217.203,280.490 217.514 C 280.490 217.824,280.203 218.169,279.853 218.280 C 279.503 218.391,279.119 218.792,278.999 219.170 C 278.879 219.548,278.451 220.165,278.048 220.541 C 277.645 220.917,277.216 221.542,277.094 221.929 C 276.973 222.317,276.658 222.716,276.396 222.817 C 276.133 222.917,275.918 223.192,275.918 223.428 C 275.918 223.663,275.624 224.068,275.265 224.327 C 274.906 224.585,274.612 224.990,274.612 225.225 C 274.612 225.461,274.392 225.738,274.122 225.841 C 273.853 225.944,273.633 226.312,273.633 226.657 C 273.633 227.003,273.426 227.365,273.172 227.462 C 272.919 227.560,272.622 227.996,272.513 228.432 C 272.404 228.868,272.170 229.224,271.994 229.224 C 271.818 229.224,271.673 229.450,271.673 229.725 C 271.673 230.000,271.453 230.309,271.184 230.413 C 270.914 230.516,270.694 230.863,270.694 231.184 C 270.694 231.504,270.473 231.851,270.204 231.955 C 269.935 232.058,269.714 232.368,269.714 232.643 C 269.714 232.918,269.583 233.143,269.423 233.143 C 269.263 233.143,269.040 233.510,268.927 233.959 C 268.814 234.408,268.590 234.776,268.428 234.776 C 268.266 234.776,268.037 235.216,267.918 235.755 C 267.800 236.294,267.571 236.735,267.409 236.735 C 267.247 236.735,267.022 237.102,266.910 237.551 C 266.797 238.000,266.574 238.367,266.414 238.367 C 266.253 238.367,266.122 238.588,266.122 238.857 C 266.122 239.127,265.991 239.347,265.831 239.347 C 265.671 239.347,265.454 239.690,265.349 240.110 L 265.157 240.873 248.742 241.089 C 239.713 241.208,199.229 241.306,158.776 241.306 C 118.322 241.306,85.224 241.416,85.224 241.551 C 85.224 241.686,136.800 241.759,199.837 241.713 L 314.449 241.631 314.449 246.366 L 314.449 251.102 223.429 251.128 C 173.367 251.142,132.555 251.204,132.735 251.266 C 132.914 251.328,158.261 251.463,189.061 251.566 C 219.861 251.670,248.194 251.849,252.024 251.965 L 258.986 252.175 258.775 253.026 C 258.659 253.495,258.428 253.927,258.262 253.986 C 258.095 254.046,257.959 254.450,257.959 254.884 C 257.959 255.318,257.824 255.673,257.659 255.673 C 257.493 255.673,257.261 256.114,257.143 256.653 C 257.025 257.192,256.811 257.633,256.669 257.633 C 256.526 257.633,256.316 258.220,256.201 258.939 C 256.086 259.657,255.860 260.245,255.698 260.245 C 255.537 260.245,255.305 260.833,255.184 261.551 C 255.062 262.269,254.845 262.857,254.702 262.857 C 254.558 262.857,254.344 263.371,254.226 264.000 C 254.108 264.629,253.871 265.143,253.699 265.143 C 253.528 265.143,253.388 265.510,253.388 265.959 C 253.388 266.408,253.260 266.776,253.103 266.776 C 252.946 266.776,252.724 267.363,252.609 268.082 C 252.494 268.800,252.272 269.388,252.115 269.388 C 251.958 269.388,251.730 270.049,251.609 270.857 C 251.488 271.665,251.264 272.327,251.113 272.327 C 250.961 272.327,250.736 273.061,250.612 273.959 C 250.489 274.857,250.273 275.592,250.134 275.592 C 249.994 275.592,249.783 276.327,249.663 277.224 C 249.544 278.122,249.305 278.857,249.132 278.857 C 248.958 278.857,248.816 279.224,248.816 279.673 C 248.816 280.122,248.684 280.490,248.522 280.490 C 248.360 280.490,248.122 281.408,247.993 282.531 C 247.864 283.653,247.621 284.659,247.453 284.765 C 247.285 284.872,247.061 285.790,246.956 286.806 C 246.852 287.822,246.651 288.653,246.511 288.653 C 246.371 288.653,246.154 289.608,246.029 290.776 C 245.904 291.943,245.684 292.898,245.541 292.898 C 245.397 292.898,245.177 294.000,245.051 295.347 C 244.925 296.694,244.692 297.796,244.533 297.796 C 244.375 297.796,244.245 298.384,244.245 299.102 C 244.245 299.820,244.112 300.408,243.949 300.408 C 243.786 300.408,243.547 301.841,243.417 303.592 C 243.287 305.343,243.066 306.850,242.925 306.940 C 242.785 307.031,242.563 308.868,242.432 311.022 C 242.302 313.176,242.084 315.012,241.948 315.102 C 241.813 315.192,241.594 317.800,241.462 320.898 L 241.223 326.531 320.611 326.531 L 400.000 326.531 400.000 242.286 L 400.000 158.041 394.204 158.109 C 391.016 158.147,386.976 158.226,385.224 158.284 M85.506 251.514 C 85.643 251.651,91.550 251.724,98.632 251.677 L 111.510 251.591 98.383 251.428 C 91.164 251.339,85.369 251.377,85.506 251.514"/></g></svg>