<?xml version="1.0" encoding="UTF-8"?>
<svg id="_レイヤー_1" data-name="レイヤー_1" xmlns="http://www.w3.org/2000/svg" width="200" height="200" version="1.1" xmlns:xlink="http://www.w3.org/1999/xlink" viewBox="0 0 200 200">
  <!-- Generator: Adobe Illustrator 29.6.1, SVG Export Plug-In . SVG Version: 2.1.1 Build 9)  -->
  <defs>
    <style>
      .st0 {
        fill: #5cc1d5;
      }

      .st1 {
        fill: url(#_名称未設定グラデーション_14);
      }

      .st2 {
        fill: url(#_名称未設定グラデーション_8);
      }

      .st3 {
        fill: url(#_名称未設定グラデーション_4);
      }

      .st4 {
        fill: #06496d;
      }

      .st5 {
        fill: #1e2b6d;
      }

      .st6 {
        fill: url(#_名称未設定グラデーション_80);
      }

      .st7 {
        fill: #b6b5b5;
      }

      .st8 {
        fill: #40af48;
      }

      .st9 {
        fill: #514f50;
      }

      .st10 {
        display: none;
        fill: none;
        stroke: #3e3a39;
        stroke-miterlimit: 10;
      }
    </style>
    <linearGradient id="_名称未設定グラデーション_80" data-name="名称未設定グラデーション 80" x1="70.7214787" y1="91.8328915" x2="70.7214787" y2="91.8328915" gradientUnits="userSpaceOnUse">
      <stop offset=".0060143" stop-color="#a6aeab"/>
      <stop offset=".2450818" stop-color="#94a79f"/>
      <stop offset=".7199723" stop-color="#669581"/>
      <stop offset=".9910591" stop-color="#4a8a6f"/>
    </linearGradient>
    <linearGradient id="_名称未設定グラデーション_14" data-name="名称未設定グラデーション 14" x1="74.8496692" y1="74.5770127" x2="176.9670767" y2="20.0641609" gradientUnits="userSpaceOnUse">
      <stop offset=".0060135" stop-color="#b6b5b5"/>
      <stop offset=".3054702" stop-color="#b7b8b7"/>
      <stop offset=".5863158" stop-color="#bac4c0"/>
      <stop offset=".8588862" stop-color="#c0d6cf"/>
      <stop offset=".9910584" stop-color="#c4e3d9"/>
    </linearGradient>
    <linearGradient id="_名称未設定グラデーション_4" data-name="名称未設定グラデーション 4" x1="8.9297993" y1="53.5625489" x2="106.8880755" y2="90.2103136" gradientUnits="userSpaceOnUse">
      <stop offset=".0056141" stop-color="#b5cee4"/>
      <stop offset=".1584905" stop-color="#a8c9d2"/>
      <stop offset=".463287" stop-color="#86bea5"/>
      <stop offset=".8878061" stop-color="#50ac5c"/>
      <stop offset=".9999976" stop-color="#41a748"/>
    </linearGradient>
    <linearGradient id="_名称未設定グラデーション_8" data-name="名称未設定グラデーション 8" x1="107.0290617" y1="183.8339299" x2="104.8520675" y2="65.1133242" gradientUnits="userSpaceOnUse">
      <stop offset=".0184353" stop-color="#e5e7e6"/>
      <stop offset=".0219721" stop-color="#e4e6e5"/>
      <stop offset=".2580044" stop-color="#b3d5db"/>
      <stop offset=".4812111" stop-color="#8cc8d4"/>
      <stop offset=".6858361" stop-color="#70bece"/>
      <stop offset=".8652595" stop-color="#5fb9cb"/>
      <stop offset=".9999976" stop-color="#5ab7ca"/>
    </linearGradient>
  </defs>
  <rect class="st10" x="9.4250186" y="9.2881295" width="180.3061847" height="180.3061847"/>
  <g>
    <path class="st6" d="M70.7214787,91.8328915"/>
    <path class="st1" d="M70.7214787,91.8328915s1.0799923-9.2129526,13.0579197-28.5007546c11.9781591-19.2877731,42.5240289-42.1629984,56.726124-46.2657989,14.5389989-4.2001758,24.6741505-4.4124206,29.2394985-3.3924408,4.5655798,1.0200088,8.0926431,1.8454695,8.0926431,1.8454695l-4.4849453,12.2862153s-5.4655347-.4231862-13.5359338.7690977c-14.2933882,2.1116444-29.1653519,10.4617154-29.1655836,10.4618023-20.8743665,11.5597519-32.0860347,27.2307037-34.4897763,30.6935259-6.1683059,8.8863019-9.7616378,17.2280314-11.8745855,23.1946931l-13.5653608-1.0918094Z"/>
    <g>
      <path class="st4" d="M11.6180311,41.5007735"/>
      <path class="st3" d="M103.0695754,84.202796c-2.5965229.3070714-5.3012536-2.0701976-8.0541795-2.0953958-4.2555541-.1482354-9.8786505-.7506769-12.4661367-1.1420901-15.6750646-2.6306999-32.0860347-9.6679118-44.373756-19.8059017-11.166485-9.2116782-14.2896808-14.8532822-15.1560381-17.4371481,1.5772382-.3260425,3.8753208-.4880066,6.7100398-.4240551-6.6407591-.866502-12.8113821-.1491043-17.7449146,2.0989873.1283664,1.6361211.4180017,3.982428,1.1434803,6.7097792,3.6792956,13.8324625,14.4231448,21.8773737,19.7883498,25.7810788,20.266364,14.7459144,44.1874626,14.9213755,59.373391,15.0327693,5.7880726.0424605,10.5492142-.2723151,13.6941906-.5489748l.1522323-.1518848c-.9025037-4.4456128-3.0235612-7.4499423-3.066659-8.0171641Z"/>
      <path class="st4" d="M11.9636704,45.3119259c-.0960109-.4214878-.1714755-.8278059-.2281219-1.2187623.0566464.3910524.131919.7969864.2281219,1.2187623Z"/>
      <path class="st4" d="M103.069558,84.2028062c.0215064-.0025923.0445491-.0029763.0660555-.0055686-.0553023-.0757526-.0710481-.0598148-.0660555.0055686Z"/>
      <path class="st4" d="M11.7086654,43.8871242c-.0514618-.3971971-.0894822-.7833529-.1052279-1.1485783.0155538.3652254.0537661.7513812.1052279,1.1485783Z"/>
      <path class="st4" d="M11.6088141,41.7047966c-.0149777.3297974-.0205463.670156-.0053766,1.0307729-.0153617-.3608089-.0094091-.7007835.0053766-1.0307729Z"/>
      <path class="st4" d="M51.4272194,46.8324504c.1194375.0338918.2406033.070184.3604249.1045559-.1200136-.0344679-.2406033-.070664-.3604249-.1045559Z"/>
      <path class="st4" d="M55.2135049,47.9802606c.0222745.0071048.043781.0136335.0660555.0207384-.0222745-.0071048-.043781-.0135375-.0660555-.0207384Z"/>
      <path class="st4" d="M32.1597535,43.4044775c.0662475.0041285.1332631.008545.2000867.0129615-.0670156-.0043205-.1336472-.008833-.2000867-.0129615Z"/>
      <path class="st4" d="M58.7593792,49.2060316c.1770441.0645193.3537041.1290386.5311323.1948061-.1774281-.0658635-.3540882-.1302868-.5311323-.1948061Z"/>
      <path class="st4" d="M62.7901085,50.769185c.0977391.0403246.1958622.0837215.2936013.1245261-.0977391-.0408046-.1958622-.0842016-.2936013-.1245261Z"/>
    </g>
    <path class="st8" d="M105.9840647,92.3718566s38.4121832-5.2228768,61.5870414-25.886685c23.1748582-20.6638082,21.4204655-36.0637703,20.802109-38.1218098-.6183564-2.0580395-3.5285614-8.4463382-6.0061234-10.113994-2.4775619-1.6676558-5.2875174-2.9556639-5.2875174-2.9556639,0,0-2.8112036,17.9271468-25.2659931,41.1896577-14.9920333,15.5313119-46.7967294,26.9541599-46.5249356,26.8164672l.6954191,9.0720277Z"/>
    <path class="st7" d="M81.1325948,107.6930331c.8726134-8.2827597,2.6217791-13.3783722,3.20244-14.8975675-3.9974311-.1144639-9.0692935-.4354378-13.6135561-.9625741-5.8921096,11.2497262-10.475531,34.5148008-4.3727985,61.0902914,5.7785726,25.1643293,21.5277838,34.4319651,25.7082645,34.3929222,3.781479-.0353355,5.6685112-1.4828171,5.6687429-1.4829329,1.1717487-.8890646,2.2427044-1.8697699,2.2427044-1.8697699,0,0-15.4934053-23.2835533-17.8487199-43.1535803-2.3550829-19.870027-2.042045-23.1009671-.9870772-33.1167889Z"/>
    <path class="st0" d="M83.7793984,63.3321369c1.6323848-2.6284986,3.6188198-5.323961,5.8524875-8.029155-9.6163567-8.6938102-27.0357212-19.2343354-37.8442169-22.1075179-21.1355017-5.6181146-32.6951957-1.8803126-38.1475231,3.5722464l-.5222704.5215753-.3656357.6405575c-.8237229,1.4408779-1.6733971,4.0283642-.7699666,7.8929106,4.9344594-2.2498873,11.106936-2.9676037,17.7500122-2.100783,12.6927474.28755,34.6614721,4.0861754,54.0420154,19.6187394.0018537-.0028964.0032439-.0056769.0050976-.0085732Z"/>
    <path class="st2" d="M96.161425,69.7299498c-.820479,1.1820597-1.5885919,2.3519548-2.3207901,3.5104962,1.6126896,4.7430683,11.0374235,33.7652245,9.6830887,60.390011-.5127704,10.082322-2.7700724,23.7078111-10.2702374,39.7306698l6.7149057,10.6022754c5.9463294-7.7251538,13.2222008-19.4754278,17.0321799-35.0763458,9.9439922-40.7187897-11.8787563-75.5248478-17.45945-83.6763448-1.6627386,2.0783073-2.7899993,3.6696798-3.3796969,4.5192381Z"/>
  </g>
  <g>
    <path class="st9" d="M133.3450665,135.6937164h-6.6693828v-1.9520984h15.4536932v1.9520984h-6.6699123v19.5204546h-2.1143982v-19.5204546Z"/>
    <path class="st9" d="M149.6197598,153.8477287c-.9001946-.9110499-1.3502919-2.1903852-1.3502919-3.8390651v-11.061538c0-1.6481504.4500973-2.9280152,1.3502919-3.8390651.8996651-.9107851,2.1848252-1.3664424,3.8554804-1.3664424h9.6299639v1.9520984h-10.6058807c-.6724983,0-1.1988474.1951304-1.5779881.585656-.3796703.3902608-.5692407.9107851-.5692407,1.5615728v5.4983355h10.0202247v1.9520984h-10.0202247v5.8234646c0,.6507877.1895704,1.171312.5692407,1.5615728.3791408.3905256.9054898.585656,1.5779881.585656h11.126405v1.9520984h-10.1504881c-1.6706552,0-2.9558154-.4553926-3.8554804-1.3664424Z"/>
    <path class="st9" d="M171.1161111,153.8477287c-.9001946-.9110499-1.3502919-2.1903852-1.3502919-3.8390651v-11.061538c0-1.6481504.4500973-2.9280152,1.3502919-3.8390651.8996651-.9107851,2.1848252-1.3664424,3.8554804-1.3664424h9.6299639v1.9520984h-10.6058807c-.6724983,0-1.1988474.1951304-1.5779881.585656-.3796703.3902608-.5692407.9107851-.5692407,1.5615728v5.4983355h10.0202247v1.9520984h-10.0202247v5.8234646c0,.6507877.1895704,1.171312.5692407,1.5615728.3791408.3905256.9054898.585656,1.5779881.585656h11.126405v1.9520984h-10.1504881c-1.6706552,0-2.9558154-.4553926-3.8554804-1.3664424Z"/>
    <g>
      <path class="st9" d="M133.3450665,106.95233h-6.6693828v-1.9520984h15.4536932v1.9520984h-6.6693828v19.5204546h-2.1149277v-19.5204546Z"/>
      <path class="st9" d="M142.8124658,113.2150367c.4556573-1.1167708,1.2089084-1.9518337,2.261077-2.5049238,1.0519038-.5530901,2.4670627-.8297676,4.2457412-.8297676v1.9846643c-1.3013107,0-2.3209134.1951304-3.0580139.585656-.73763.3902608-1.2639791.9814769-1.5779881,1.7731186-.3148033.7919065-.4718079,1.8493703-.4718079,3.1718621v9.0771385h-2.0820971v-8.8491774c0-1.8220997.2276963-3.2910055.6830888-4.4085706Z"/>
      <path class="st9" d="M153.3361355,107.8631151c-.3039481-.3034185-.4553926-.7045346-.4553926-1.2036131,0-.4988137.146414-.8999298.439242-1.2038779.292828-.3034185.6881193-.4553926,1.1874626-.4553926.4985489,0,.8996651.151974,1.2036131.4553926.3036833.3039481.4556573.7050642.4556573,1.2038779,0,.4990785-.146414.9001946-.439242,1.2036131-.292828.3039481-.6889136.4556573-1.1874626.4556573-.4993432,0-.9004593-.1517093-1.2038779-.4556573Z"/>
      <path class="st9" d="M163.0138871,116.0196019v10.4531828h-2.0820971v-16.5924394h2.0820971v6.1392566ZM173.8151629,110.9213938c1.2144684.6944736,2.1903852,1.6812458,2.9280152,2.9605811.7371005,1.2801296,1.1061803,2.7654507,1.1061803,4.457287h-2.0820971c0-1.3444671-.2822375-2.5213391-.8459181-3.5298218-.5642102-1.0087475-1.3288461-1.7839738-2.2936428-2.3262087-.9653263-.5419701-2.0445007-.8133523-3.2372586-.8133523-1.2147332,0-2.3047629.2713822-3.2695597.8133523-.9653263.5422349-1.7244021,1.3174612-2.2774923,2.3262087-.5530901,1.0084827-.8295028,2.1853547-.8295028,3.5298218h-1.1061803c0-1.7781491.3089786-3.2965655.9272004-4.5547198.6182219-1.2576248,1.5234469-2.2229511,2.7167343-2.8957141,1.1924931-.6719688,2.6351872-1.0084827,4.3270235-1.0084827,1.4095988,0,2.7215.3473692,3.9364979,1.0410486ZM177.8493584,126.4727847h-2.0820971v-8.1335228h2.0820971v8.1335228Z"/>
      <path class="st9" d="M181.8662099,107.8631151c-.3039481-.3034185-.4553926-.7045346-.4553926-1.2036131,0-.4988137.146414-.8999298.439242-1.2038779.292828-.3034185.6881193-.4553926,1.1874626-.4553926.4985489,0,.8996651.151974,1.2036131.4553926.3036833.3039481.4556573.7050642.4556573,1.2038779,0,.4990785-.146414.9001946-.439242,1.2036131-.292828.3039481-.6889136.4556573-1.1874626.4556573-.4993432,0-.9004593-.1517093-1.2038779-.4556573Z"/>
      <path class="st9" d="M156.5920947,124.2899005c-.2590363-.0753662-.468945-.1911306-.6207939-.3549061-.281976-.3033932-.4228625-.8996233-.4228625-1.7892486v-12.2653992h-2.1145157v12.3305135c0,1.4313481.2708107,2.4999236.8132441,3.2044577.5416214.7050416,1.2903093,1.0354854,2.2446429.9923465h.1002852v-2.1177638Z"/>
      <path class="st9" d="M185.1220797,124.2898991c-.2590363-.0753662-.468945-.1911306-.6207939-.3549061-.281976-.3033932-.4228625-.8996233-.4228625-1.7892486v-12.2653992h-2.1145157v12.3305135c0,1.4313481.2708107,2.4999236.8132441,3.2044577.5416214.7050416,1.2903093,1.0354854,2.2446429.9923465h.1002852v-2.1177638Z"/>
    </g>
  </g>
  <g>
    <path class="st5" d="M126.6756838,177.785548c0-4.3315257,2.3828607-7.5080382,5.7187623-7.5080382h1.2708073v1.4659575h-1.2390048c-2.6527942,0-4.590937,2.4879156-4.590937,6.0420807s1.9381428,6.0643168,4.590937,6.0643168h1.3819868l-.3813715,1.4661383h-1.0324178c-3.3359016,0-5.7187623-3.1542763-5.7187623-7.5304551Z"/>
    <path class="st5" d="M135.1747088,170.2775099h3.605835c2.0175198,0,3.3040991,1.8658463,3.3040991,4.3982341,0,2.1769713-1.1435973,3.97629-2.8115481,4.1317621l3.1293146,6.508497h-1.2708073l-3.6854706-7.7524548h1.2232329c1.5409993,0,2.3034837-1.3773746,2.3034837-2.8878043,0-1.5993743-.7942869-2.9322766-2.2559093-2.9322766h-2.4301766v13.5725357h-1.1120534v-15.0384933Z"/>
    <path class="st5" d="M147.5655329,170.0998016h.3811129l4.9878219,15.2162015h-1.2072023l-1.3344123-4.109526h-5.2895578l-1.3186404,4.109526h-1.2072023l4.9880804-15.2162015ZM149.9323631,179.762575l-2.1923043-6.7306775-2.1602432,6.7306775h4.3525475Z"/>
    <path class="st5" d="M153.8086487,170.2775099h3.1929196c3.1768891,0,5.4803728,3.1765125,5.4803728,7.5080382,0,4.3761788-2.3352863,7.5304551-5.4327984,7.5304551h-.4922924l-.3813715-1.4661383h.7782564c2.5100707,0,4.368578-2.5101517,4.368578-6.0643168s-1.8585073-6.0420807-4.368578-6.0420807h-2.0332917v13.5725357h-1.1117948v-15.0384933Z"/>
    <path class="st5" d="M163.3558636,183.8498648h1.5725433c1.5249688,0,3.0499376-1.2661939,3.0499376-3.665165,0-1.3551384-.3971435-2.3102073-1.9696867-4.2205259-1.7155253-2.1104437-2.5098122-3.2209847-2.3826022-5.6866641h1.2229743c-.142982,1.9325547.349569,2.6656238,1.9381428,4.5759424,1.5883153,1.9547908,2.3507997,3.3542207,2.3507997,5.3090115,0,3.0432765-1.6837228,5.1535394-4.1617325,5.1535394h-1.2390048l-.3813715-1.4661383Z"/>
    <path class="st5" d="M170.5044457,170.2775099h6.2586292v1.4659575h-5.1465758v5.2202478h4.8290679v1.4661383h-4.8290679v5.4200114h5.3531628l-.3811129,1.4661383h-6.0841033v-15.0384933Z"/>
    <path class="st5" d="M177.9865664,177.785548c0-4.3315257,2.3828607-7.5080382,5.7187623-7.5080382h1.2708073v1.4659575h-1.2390048c-2.6527942,0-4.590937,2.4879156-4.590937,6.0420807s1.9381428,6.0643168,4.590937,6.0643168h1.3819868l-.3813715,1.4661383h-1.0324178c-3.3359016,0-5.7187623-3.1542763-5.7187623-7.5304551Z"/>
  </g>
</svg>