<svg xmlns="http://www.w3.org/2000/svg" role="img" viewBox="-4.41 -4.41 169.07 229.32"><title>Ceph logo</title><defs><clipPath id="a"><path d="M0 1765.9V0h1283.94v1765.9H0z"/></clipPath></defs><g fill-opacity="1" fill-rule="nonzero" stroke="none" clip-path="url(#a)" transform="matrix(1.25 0 0 -1.25 0 220.738) scale(.1)"><path fill="#f0424d" d="M987.875 796.656c-38.934 20.715-61.172 44.063-66.094 69.414-4.746 24.547 6.203 51.848 33.508 83.489 65.251 74.861 101.191 171.031 101.191 270.811 0 227.54-185.128 412.69-412.691 412.69-.371 0-1.82-.02-1.82-.02s-1.485.02-1.875.02c-227.571 0-412.672-185.15-412.672-412.69 0-99.78 35.933-195.95 101.207-270.843 27.508-31.851 38.195-58.047 33.633-82.371-4.735-25.324-27.024-48.996-66.301-70.468-60.223 50.195-113.477 117.257-146.328 184.519-17.817 36.503-31.531 75.053-40.778 114.573-9.5191 40.62-14.2886 82.54-14.2886 124.59 0 73.59 14.3986 145.07 42.8556 212.38 27.504 64.94 66.816 123.3 116.93 173.37 50.058 50.1 108.414 89.41 173.375 116.9 67.296 28.46 138.738 42.88 212.367 42.88H643.789c73.629 0 145.082-14.42 212.387-42.88 64.941-27.49 123.293-66.8 173.374-116.9 50.07-50.07 89.42-108.43 116.91-173.37 28.46-67.31 42.89-138.79 42.89-212.38 0-42.05-4.82-83.97-14.31-124.59-9.24-39.52-22.96-78.07-40.8-114.573-32.85-67.289-86.06-134.344-146.365-184.551"/><path fill="#f0424d" d="M786.578 694.59c-6.34 3.988-28 20.101-49.113 49.351-20.254 27.95-44.086 74.317-42.84 136.411.781 37.371 8.273 73.761 22.313 108.117 13.937 34.061 33.925 65.271 59.386 92.731l.156.21c1.875 2.18 3.731 4.35 5.625 6.5 9.61 11.15 19.54 22.66 27.461 36.13 9.766 16.56 16.875 33.96 21.102 51.76 6.504 27.49 6.887 56.67 1.066 84.35-5.371 25.45-16.191 50.11-31.3 71.37-14.637 20.6-33.7 38.57-55.157 51.95-22.363 13.97-48.054 23.32-74.222 27.03-8.86 1.27-17.989 1.92-27.16 1.92h-3.915c-9.152 0-18.3-.65-27.132-1.92-26.153-3.71-51.84-13.06-74.227-27.03-21.453-13.38-40.555-31.35-55.18-51.95-15.105-21.26-25.875-45.92-31.293-71.37-5.804-27.68-5.453-56.86 1.098-84.35 4.211-17.8 11.32-35.2 21.066-51.76 7.961-13.47 17.876-24.98 27.489-36.13 1.89-2.15 3.73-4.32 5.64-6.5l.114-.21c25.504-27.46 45.472-58.67 59.41-92.731 14.031-34.356 21.551-70.746 22.293-108.117 1.262-62.094-22.574-108.461-42.805-136.411-21.156-29.25-42.797-45.363-49.144-49.351-10.621 2.84-21.215 6.031-31.629 9.519-31.348 10.512-61.879 23.961-90.891 40.063 49.875 26.832 81.574 79.215 81.574 136.305 0 37.777-14.683 74.015-43.633 107.656-.429.512-.875.926-1.207 1.262-.058.085-.152.136-.222.23-2.844 3.164-5.66 6.254-8.43 9.262-8.316 9.133-16.199 17.763-23.238 27.213-26.266 35.08-45.508 76.22-55.664 118.95-11.039 46.46-11.657 95.74-1.797 142.51 9.074 43.12 27.414 84.94 52.969 120.92 24.722 34.81 56.945 65.15 93.175 87.74 37.957 23.68 81.465 39.51 125.805 45.83 15.016 2.16 30.399 3.21 45.766 3.21h4.101c15.371 0 30.797-1.05 45.793-3.21 44.356-6.32 87.84-22.15 125.801-45.83 36.23-22.59 68.465-52.93 93.191-87.74 25.539-35.98 43.879-77.8 52.989-120.92 9.824-46.77 9.191-96.05-1.817-142.51-10.183-42.73-29.402-83.87-55.703-118.95-7.051-9.45-14.902-18.08-23.25-27.213-2.734-3.008-5.539-6.098-8.39-9.262-.098-.074-.164-.145-.262-.23-.332-.336-.801-.77-1.203-1.329-29.344-35.117-43.621-70.324-43.621-107.589 0-57.09 31.699-109.473 81.629-136.305-29.024-16.102-59.559-29.551-90.907-40.063-10.41-3.488-21.047-6.679-31.66-9.519"/><path fill="#f0424d" d="M641.93 1107.47c-59.375 0-107.707 48.32-107.707 107.71 0 59.4 48.332 107.72 107.707 107.72 59.375 0 107.683-48.32 107.683-107.72 0-59.39-48.308-107.71-107.683-107.71"/><path fill="#333c46" d="M279.688 200.191c0-70.882-6.348-90.48-23.422-107.5816-10.118-10.1211-25.95-17.0703-55.704-17.0703H96.1602c-33.5391 0-53.7657 5.6992-67.7071 19.6015C6.32812 117.301 0 143.879 0 246.371c0 102.508 6.32812 129.098 28.4531 151.231 13.9414 13.918 34.168 19.597 67.7071 19.597H199.949c30.981 0 44.899-6.301 55.664-17.078 16.442-16.441 22.789-39.223 22.789-103.109h-63.898c-1.281 44.289-3.805 51.867-7.613 55.668-3.805 3.789-8.856 5.691-23.407 5.691h-79.097c-19.6058 0-24.6682-1.902-29.0901-6.332-6.3281-6.309-9.5-18.34-9.5-105.668 0-87.301 3.1719-99.332 9.5-105.66 4.4219-4.43 9.4843-6.332 29.0901-6.332h79.715c13.933 0 20.285 1.262 24.683 5.691 4.438 4.442 6.977 17.102 6.977 60.121h63.926"/><path fill="#333c46" d="M391.051 277.391h155.648c0 57.57-3.808 70.23-9.469 75.929-3.824 3.789-9.5 6.309-29.101 6.309h-78.488c-19.606 0-24.668-1.899-29.739-6.949-5.699-5.711-8.203-17.071-8.851-75.289zm0-52.532c.648-67.058 4.418-80.347 9.5-85.41 5.07-5.07 9.484-6.34 29.09-6.34h88.586c14.566 0 19.003 2.532 22.808 6.34 4.399 4.43 5.664 12.02 6.961 42.391h63.883c-1.258-53.141-6.328-72.129-23.422-89.2306-10.746-10.7578-25.297-17.0703-55.664-17.0703H422.066c-33.543 0-53.789 5.6992-67.711 19.6015-22.164 22.1604-28.453 48.7384-28.453 151.2304 0 102.508 6.289 129.098 28.453 151.231 13.922 13.918 34.168 19.597 67.711 19.597h93.637c33.555 0 55.051-6.301 67.727-18.961 22.121-22.148 28.449-48.738 28.449-148.707v-17.082c0-5.039-1.891-7.59-7.606-7.59H391.051"/><path fill="#333c46" d="M869.449 141.969c-5.683-5.688-13.945-8.219-34.785-8.219h-49.387c-20.254 0-37.851 5.711-62.011 18-1.473.75-2.879 1.449-4.422 2.23v186.051C744.164 352.68 761.871 359 782.77 359h51.894c20.84 0 29.102-2.531 34.785-8.219 9.481-9.48 12.02-27.82 12.02-104.41 0-76.582-2.539-94.902-12.02-104.402zm-19.015 275.902h-46.153c-28.496 0-42.41-6.351-85.437-41.781v41.109h-65.797V0h65.797v116.02c43.027-34.7817 56.941-41.1098 85.437-41.1098h46.153c36.738 0 55.078 6.3281 69.628 20.8593C938.395 114.129 947.27 140.07 947.27 246.371c0 106.309-8.875 132.27-27.208 150.598-14.55 14.551-32.89 20.902-69.628 20.902"/><path fill="#333c46" d="M1263.67 398.238c-12.66 12.66-29.1 19.633-58.85 19.633h-53.77c-28.48 0-42.39-6.351-85.44-41.781v130.23c-20.42 11.211-41.74 19.43-65.33 24.489-.17-.008-.296-.11-.471-.168V75.5391h65.801V340.031c4.82 2.41 9.32 4.508 13.66 6.457 18.47 8.293 33.35 12.512 50.25 12.512h44.3c22.14 0 28.47-2.531 35.43-9.5 6.33-6.32 8.85-16.43 8.85-32.891V75.5391h65.84V321.039c0 47.461-6.98 63.91-20.27 77.199"/></g></svg>