<?xml version="1.0" encoding="UTF-8"?><svg id="Layer_1" xmlns="http://www.w3.org/2000/svg" viewBox="0 0 1600 366.91873"><defs><style>.cls-1{fill:#076baf;}.cls-2{fill:#227ebd;}.cls-3{fill:#0369ae;}.cls-4{fill:#0268ae;}.cls-5{fill:#e2834d;}</style></defs><path class="cls-4" d="M598.02014,252.15147l-7.28687,46.48207c-3.07776,7.59744-9.68378,12.62027-17.73389,14.05768l-165.23523.23206c-29.07486-2.18954-48.64722-22.94174-50.06848-51.9324,5.99323-33.4803,7.4834-69.53058,14.19507-102.68518,6.22324-30.74181,33.15729-55.62793,64.80145-57.69019,53.78464-3.50514,111.35614,2.71709,165.53772.04197,7.31256.86885,12.66364,5.71383,14.26331,12.84977-.40411,15.50166-4.22046,30.88315-5.52039,46.39659l-1.39551,1.40967-45.47302-.08083-63.00821-30.44145-71.21854,29.87624-6.68451,48.0052c-1.04138,30.8186,19.09372,63.73022,49.53583,72.00558,14.59378,3.96719,35.73242-8.43628,47.20239-17.32349,2.18835-1.69559,11.34589-11.20331,12.17297-11.20331h65.91589v.00002Z"/><path class="cls-3" d="M1192.66565,161.44354l-2.80493,18.70267h88.82288l2.80493-18.70267h30.85425l-1.87,18.70267h26.17932c.25073,2.81723-1.94788,21.69614-2.93713,22.31375l-26.9353.18002c-1.47192,35.87744-21.94263,67.04681-54.26855,82.25284.72278,1.83508,4.61365,2.08731,6.36255,2.5022,20.4873,4.86005,41.84644,5.19418,62.81567,4.9736l-2.79846,20.57141c-25.46228.54849-50.9762-.72263-75.91248-5.90714-6.80396-1.41461-19.77966-6.32791-25.53589-6.32239-6.87195.00656-23.01147,5.59372-31.2998,7.10324-24.04517,4.37927-48.50256,5.64474-72.95349,5.12015l2.94177-20.44095c19.73401.08008,39.53491-.41772,58.94324-4.16568,1.70496-.32925,11.06226-1.71332,11.02771-2.97852-11.86926-9.00684-23.33557-19.58585-28.74182-33.88846-6.17688-16.34143-3.9342-32.01263-2.09351-48.8709h-26.17932c.36499-3.2979,1.19116-19.97672,2.2749-21.57066,1.41809-2.08578,23.52258-.19281,27.59766-.92311.8916-2.65575,1.58167-18.6521,3.31921-18.6521h30.38672l-.00012.00002ZM1275.87866,202.58942h-88.82288c-3.47888,18.38152-6.3595,32.82794,4.46362,49.30582,4.20776,6.40622,22.35291,22.76175,29.66431,22.75284,5.27893-.00644,25.72583-13.36188,30.39661-17.34222,17.8335-15.19717,22.35193-31.86827,24.29834-54.71643Z"/><path class="cls-4" d="M352.12109,100.65987l-27.35324,193.80125c-.55884,7.5271-11.63867,18.47403-18.92813,18.47403h-50.02127l27.37405-195.65071c.54813-6.32171,11.1275-16.62458,17.03738-16.62458h51.89124-.00003Z"/><path class="cls-3" d="M858.87878,120.29767l-2.81372,21.49973-78.39703.13779-20.70178,148.55676h84.61542c.5788,0,1.18854,1.22806,1.2179,2.10498.06451,1.92767-2.16302,16.7944-2.79535,18.76053-.22382.69598-.62836,1.18115-1.22748,1.5777h-204.29254c.1828-3.06662,1.94055-22.11105,3.38037-22.49936l86.38232.06192,20.56464-148.69196h-78.53809l2.80493-21.50807h189.80042v-.00002Z"/><path class="cls-3" d="M1550.76196,181.08134l-1.87,20.57292h-65.44836l-4.67493,34.59995h59.8385l-2.80493,20.57294h-59.8385l-4.67493,35.53506h84.14795l-2.80493,20.57294h-195.41028l1.86511-20.57867,79.4812.01062,4.67163-35.53995h-59.8385l2.80493-20.57294h59.8385l4.67493-34.59995h-64.51343c.60352-2.74619,1.86621-20.57294,4.2074-20.57294h160.34863v.00002Z"/><path class="cls-3" d="M940.2218,312.93515l12.62219-82.29175h132.76672c.40027,0,1.56958,1.46271,1.35461,2.24162l-9.71814,67.0096c-.77942,4.76614-9.64893,13.04053-14.07605,13.04053h-122.94952.00018ZM1050.54907,253.08662h-69.18829l-4.67487,37.40535h69.18835l4.67493-37.40533-.00012-.00002Z"/><path class="cls-3" d="M962.66125,101.595c1.43262,1.38475-14.66315,25.652-15.82288,29.52847l-25.31616,181.81168h-28.98431l18.69952-139.33488h-22.43945l40.67151-72.00527h33.19177Z"/><path class="cls-3" d="M1498.25525,102.68271c16.68372,30.47488,52.42603,48.34038,86.17041,52.21838l-2.84583,20.5368c-38.92346-2.82964-76.06946-18.64159-101.53687-48.52691-5.67859,4.21577-10.23938,9.51842-15.92456,13.80155-29.16016,21.96893-67.25439,31.46315-103.15259,34.75958-.7301-.73384,1.78296-19.49409,2.73987-20.16766,29.52405-4.36531,58.90588-16.01436,82.24182-34.63617,3.36108-2.68213,18.18689-17.56987,19.45544-17.94662,2.03772-.60518,31.46179-.91361,32.85217-.03895h.00012Z"/><path class="cls-3" d="M1259.98401,114.68687h78.07056c.22815,0,3.0332,1.84419,3.34094,2.26956,3.48584,4.81897-2.97571,28.20095-2.87341,35.13578h-32.72424l1.87-15.89726h-134.63672l-1.87,15.89728h-32.72424c1.91907-7.28008,1.81787-28.95715,5.73853-34.00363,1.71606-2.20873,4.96204-3.44387,7.771-3.44926l74.73779.10372,2.44543-13.14804h31.32178c2.58826,0-.78882,10.72527-.46753,13.09187l.00012-.00002Z"/><path class="cls-4" d="M1053.354,101.595l-.93494,13.09187h55.1637l-2.80493,21.50807h-143.98651l2.80493-21.50807h56.09863c.39874-4.09058.09912-9.89067,2.33746-13.09187h31.32178-.00012Z"/><path class="cls-4" d="M323.84668,21.41511c44.19836-6.05605,44.48346,54.89474,5.84183,64.75702-48.77414,12.44836-50.58002-58.62702-5.84183-64.75702Z"/><path class="cls-3" d="M1097.29797,153.02734c.67847.68161-1.42444,16.80489-1.89795,19.14224-.21387,1.05573-.38147,1.77187-1.37451,2.36581h-134.16925l2.80493-21.50807h134.63678v.00002Z"/><path class="cls-3" d="M1091.68811,192.30293c.77478.77815-1.41174,19.42284-3.27246,21.50807h-134.16925l2.80493-21.50807h134.63678Z"/><path class="cls-5" d="M497.02972,157.70558l7.49493,20.56425c-3.82867.33475-7.72952,1.09669-11.42487,2.13995-1.45398.41049-4.96924.92586-5.40231,2.53232,13.71118-.23752,27.63693-.11414,40.97208,3.44234,1.25818.33556,5.62396.78947,4.82922,2.63284-.62646,1.45306-11.40875,10.77847-13.57471,12.61157-13.1973,11.16888-31.97232,23.59103-47.79169,30.75153-1.79669.81326-12.71985,5.4523-13.42065,4.8026,5.00851-23.59503,14.9201-47.51266,28.22232-67.61453,1.98816-3.00446,5.14188-7.75633,7.46655-10.29942.83121-.9093.85907-1.99606,2.62909-1.56345h.00003Z"/><path class="cls-5" d="M511.06241,212.88049c1.00253,8.18124,1.00217,16.12549.00031,24.30663-1.15393,1.23177-20.54642-9.32899-20.54733-10.7518l20.547-13.55482h.00003Z"/><path class="cls-5" d="M474.59851,183.89175l-9.82651,21.50119c-1.88489.44843-13.68597-14.07761-14.36417-16.49487-.48077-1.71362.10657-1.05286,1.06216-1.47691,2.79129-1.23869,21.7507-4.76265,23.12854-3.5294h-.00003Z"/><path class="cls-1" d="M235.25368,252.14671c-27.41264-.09267-54.87061.14073-82.28279.00476-14.99576-.07436-30.02219-.62024-44.87888-.93512-2.10802-.04472-6.73364,1.04121-10.28472.93512-.93-.02785-1.88022.06744-2.80499,0-15.25424-1.11319-35.40377-9.50021-45.81387-20.57291-12.37157-13.15918-17.15052-31.54292-19.63445-48.62695-.41599-2.8609-1.7533-7.47356-2.80499-10.28651-4.68878,29.03366-7.82387,58.3797-12.19088,87.47891,1.14519,22.57053,11.99044,41.27106,33.69532,49.05057,15.14813,5.42941,29.99257,3.58618,45.81399,3.74057,19.60792.19141,39.29364.07672,58.90347,0,17.51964-.06863,39.69678,1.6937,56.55527-.01093,9.41634-.95212,17.4635-7.23672,20.06007-16.4068,2.47858-8.75351,5.29926-29.88324,5.7074-39.17969.07555-1.72165-.11789-3.47614-.03996-5.19101l.00002-.00002Z"/><path class="cls-2" d="M238.5547,100.6265c-28.64301-2.48357-65.43346-.12574-94.93355.03343-8.71176.04687-17.46885-.10551-26.17931,0-7.90488.09564-16.54741-.54553-24.30943,0-11.05378.77667-21.46876,4.62954-30.85429,10.28639-9.99459,6.02395-13.99854,10.52049-20.56945,19.63778-6.23486,8.65099-8.26211,11.63393-11.21984,22.44325-1.828,6.6813-2.64321,12.84752-3.73987,19.63777,1.05169,2.81296,2.389,7.42561,2.80499,10.28651,2.48393,17.08403,7.26288,35.46777,19.63445,48.62695,10.4101,11.07269,30.55963,19.4597,45.81387,20.57291.92477.06744,1.87499-.02785,2.80499,0,3.55108.10611,8.1767-.97984,10.28472-.93512-4.01846-2.19926-8.3292-3.9917-12.15472-6.54593-1.91151-1.2764-3.94352-4.29492-5.60986-5.61081-8.40902-10.20395-10.16791-24.6525-7.47985-37.40533,1.04824-4.97261,7.02568-16.5034,10.28484-20.57291,2.66878-3.33257,15.91457-14.19612,19.63445-15.89732,9.92095-4.53723,24.72721-4.40649,35.52915-4.6757,8.07713-.20116,16.22694.06828,24.30943,0,8.71176-.07352,17.46695.01736,26.17941,0,16.81721-.03343,33.67618.02022,50.49361.00571-.15155-13.75623,5.35291-29.15083,5.66684-42.53984.24945-10.63731-6.21689-16.46557-16.39062-17.34775h.00003Z"/></svg>