<svg width="926" height="1020" viewBox="0 0 926 1020" fill="none" xmlns="http://www.w3.org/2000/svg">
<path fill-rule="evenodd" clip-rule="evenodd" d="M152.765 167.74C73.4487 255.341 24.4136 376.326 24.4136 510C24.4136 643.697 73.4487 764.682 152.765 852.305C232.081 939.906 341.575 994.054 462.596 994.054C583.597 994.054 693.112 939.906 772.428 852.305C851.744 764.682 900.759 643.697 900.759 510C900.759 376.326 851.744 255.341 772.428 167.74C693.112 80.1167 583.597 25.9233 462.596 25.9233C341.575 25.9233 232.081 80.1167 152.765 167.74ZM10 510C10 233.876 212.63 10.0226 462.596 10C712.542 10.0226 915.172 233.876 915.172 510C915.172 786.169 712.542 1010 462.596 1010C212.63 1010 10 786.169 10 510Z" fill="#1B5293"/>
<path fill-rule="evenodd" clip-rule="evenodd" d="M234.309 257.796C175.876 322.371 139.74 411.487 139.74 509.99C139.74 608.515 175.876 697.654 234.309 762.229C292.741 826.759 373.429 866.68 462.593 866.68C551.757 866.68 632.444 826.759 690.877 762.229C749.33 697.654 785.446 608.515 785.446 509.99C785.446 411.487 749.33 322.371 690.877 257.796C632.444 193.243 551.757 153.345 462.593 153.345C373.429 153.345 292.741 193.243 234.309 257.796ZM129.584 509.99C129.584 306.81 278.676 142.126 462.593 142.126C646.51 142.126 795.621 306.81 795.621 509.99C795.621 713.215 646.51 877.922 462.593 877.922C278.676 877.922 129.584 713.215 129.584 509.99Z" fill="#1B5293"/>
<path fill-rule="evenodd" clip-rule="evenodd" d="M60.2651 621.781L79.3468 615.086L80.3091 618.434C70.0926 626.961 66.3868 635.352 69.2327 643.676C72.1195 653.718 81.558 655.935 97.4867 650.348C113.231 644.807 119.558 636.212 116.425 624.541C112.944 613.232 105.123 609.206 92.9619 612.508L91.7949 608.504C105.861 604.071 115.258 609.726 120.028 625.491C125.004 645.101 119.005 658.627 102.011 666.068C84.67 669.936 72.6109 663.105 65.793 645.644C64.3803 640.713 64.2984 634.606 65.5269 627.3L61.2274 625.106L60.2651 621.781Z" fill="#1B5293"/>
<path fill-rule="evenodd" clip-rule="evenodd" d="M78.352 582.751L75.6699 562.96L59.6593 565.606C55.8307 566.013 54.418 568.863 55.3393 574.111L52.2068 574.676L47.9687 543.418L51.1012 542.875C51.7359 549.163 53.9266 551.764 57.6119 550.678L95.9801 544.345C99.8087 544.209 101.201 540.997 100.136 534.777L103.269 534.257L107.507 565.516L104.374 566.036C103.863 560.653 101.733 558.436 97.9865 559.273L79.1505 562.394L81.8121 582.208L100.669 579.087C104.477 578.68 105.91 575.83 104.989 570.537L108.121 570.017L112.298 600.936L109.165 601.434C108.551 595.395 106.401 592.906 102.696 594.015L64.3479 600.325C60.4988 600.484 59.127 603.582 60.1302 609.554L56.9977 610.051L52.8006 579.155L55.9536 578.634C56.4654 583.995 58.5947 586.257 62.3209 585.397L78.352 582.751Z" fill="#1B5293"/>
<path fill-rule="evenodd" clip-rule="evenodd" d="M103.603 502.969L104.381 535.63L101.207 535.721C101.269 529.41 99.4054 526.538 95.5973 527.103L56.8402 528.211C53.0115 527.872 51.2917 530.835 51.6398 537.168L48.4663 537.259L47.7088 504.621L50.8823 504.508C50.8004 510.841 52.684 513.736 56.4716 513.125L95.2288 511.994C99.0574 512.379 100.777 509.393 100.429 503.105L103.603 502.969Z" fill="#1B5293"/>
<path fill-rule="evenodd" clip-rule="evenodd" d="M50.1625 498.687L46.989 498.347L48.8317 476.679L89.3291 450.532L89.37 450.17L60.8703 447.23C57.3284 446.393 54.9534 449.334 53.7454 456.029L50.5924 455.735L52.476 433.32L55.629 433.659C55.7723 439.562 57.6764 442.458 61.2798 442.367L107.489 447.094L106.773 455.486L60.8499 485.319L60.8294 485.681L95.3279 489.232C99.0542 490.318 101.143 486.97 101.593 479.28L104.746 479.597L102.719 503.731L99.5456 503.391C100.303 497.149 98.7471 494.05 94.9185 494.118L56.3047 490.137C52.5579 489.3 50.4901 492.15 50.1625 498.687Z" fill="#1B5293"/>
<path fill-rule="evenodd" clip-rule="evenodd" d="M93.5153 401.233L75.0888 404.377L89.9734 416.546L93.5153 401.233ZM113.027 419.034L107.54 442.851L104.448 441.991C104.94 437.061 102.381 432.469 96.7912 428.24L59.3853 397.071L60.409 392.638L112.392 383.365C116.18 382.958 118.575 380.764 119.517 376.647L122.588 377.529L115.361 408.833L112.29 407.951L113.088 404.558C114.112 401.007 113.58 399.039 111.471 398.7C111.062 398.564 110.222 398.451 108.932 398.316C109.813 398.338 109.587 398.383 108.236 398.496L98.2858 400.396L93.9044 419.464L99.4323 423.919C100.313 424.892 101.828 425.797 104.059 426.656C106.557 427.154 108.175 425.774 108.912 422.585L109.935 418.174L113.027 419.034Z" fill="#1B5293"/>
<path fill-rule="evenodd" clip-rule="evenodd" d="M77.1201 336.713L89.6501 308.305L92.5165 309.843C89.732 315.656 90.1415 319.275 93.7449 320.677L123.739 336.827C130.025 339.722 135.041 337.731 138.747 330.855C142.821 321.604 140.692 314.706 132.318 310.205L105.743 295.91C102.794 293.535 99.58 295.458 96.1403 301.655L93.2945 300.117L102.323 279.625L105.19 281.14C103.347 286.931 104.125 290.482 107.565 291.816L133.546 305.817C144.213 311.539 146.445 321.446 140.221 335.56C133.997 349.131 126.257 353.564 117.024 348.859L88.176 333.321C84.9411 331.036 82.2181 332.687 79.9864 338.252L77.1201 336.713Z" fill="#1B5293"/>
<path fill-rule="evenodd" clip-rule="evenodd" d="M107.652 276.434L105.052 274.42L116.292 256.552L163.198 255.806L163.382 255.534L139.898 237.485C137.175 234.838 133.818 236.105 129.784 241.262L127.184 239.249L138.793 220.815L141.393 222.828C138.895 228.008 139.243 231.581 142.437 233.481L180.539 262.749L176.178 269.625L122.905 270.621L122.721 270.915L151.159 292.764C153.923 295.75 157.219 293.985 161.048 287.516L163.648 289.529L151.139 309.411L148.518 307.398C151.957 302.354 151.998 298.826 148.62 296.79L116.804 272.317C113.917 269.535 110.866 270.937 107.652 276.434Z" fill="#1B5293"/>
<path fill-rule="evenodd" clip-rule="evenodd" d="M204.462 233.187L184.807 257.569L182.432 255.24C186.384 250.648 186.793 247.165 183.681 244.7L154.731 216.223C152.151 213.057 149.06 213.893 145.415 218.802L143.041 216.472L162.695 192.089L165.07 194.419C161.099 198.988 160.689 202.516 163.822 204.959L192.772 233.458C195.331 236.58 198.443 235.743 202.087 230.835L204.462 233.187Z" fill="#1B5293"/>
<path fill-rule="evenodd" clip-rule="evenodd" d="M169.322 188.72L167.213 186.096L187.36 166.237L189.489 168.838C185.394 172.593 184.268 175.239 186.152 176.868C185.108 176.619 195.263 183.404 216.617 197.156L216.842 196.93C216.31 195.573 215.593 193.628 214.672 191.072C206.851 168.386 203.145 158.524 203.595 161.532C201.63 159.09 198.968 159.497 195.652 162.776L193.543 160.13L207.281 146.604L209.41 149.228C206.687 152.53 206.052 155.833 207.547 159.044L226.035 210.931L221.039 215.839L178.351 188.29C174.748 185.576 171.738 185.711 169.322 188.72Z" fill="#1B5293"/>
<path fill-rule="evenodd" clip-rule="evenodd" d="M255.734 111.037L267.179 129.199L264.252 131.303C255.857 123.092 247.606 121.894 239.437 127.774C235.117 130.33 234.155 133.203 236.591 136.505L245.252 151.207C251.476 147.588 253.278 142.114 250.718 134.718L253.38 132.818L265.685 153.718L263.003 155.64C257.966 150.053 252.684 149.646 247.156 154.441L257.372 171.835C259.154 175.295 261.958 175.522 265.746 172.513C274.509 165.954 277.027 156.454 273.26 144.082L276.208 142.001L287.264 162.086L244.105 193.073L242.385 190.11C247.279 186.899 248.507 183.619 246.091 180.339L224.962 144.444C223.242 140.644 220.048 140.576 215.36 144.195L213.62 141.255L255.734 111.037Z" fill="#1B5293"/>
<path fill-rule="evenodd" clip-rule="evenodd" d="M289.888 102.755L297.074 120.352C306.226 116.055 309.051 110.151 305.53 102.665C302.459 95.721 298.241 93.3461 292.856 95.5175C289.56 97.146 288.577 99.5435 289.888 102.755ZM332.064 124.107L334.971 122.682C338.452 131.209 336.609 137.248 329.464 140.822C322.196 144.69 316.729 142.021 312.962 132.838C309.625 122.953 304.772 119.877 298.384 123.564L305.284 140.528C306.717 145.707 310.055 146.771 315.275 143.649L316.586 146.838L290.236 159.957L288.905 156.79C294.208 154.393 295.887 151.362 293.942 147.72L278.013 108.681C276.825 104.633 273.672 104.067 268.554 106.849L267.244 103.66L293.307 90.6771C305.755 84.7285 314.088 86.5832 318.285 96.3317C321.643 105.175 317.507 112.64 305.796 118.724L305.939 119.018C313.146 116.213 319.145 118.113 323.936 124.718C328.542 130.847 331.225 133.132 331.941 131.503C333.559 130.96 333.6 128.472 332.064 124.107Z" fill="#1B5293"/>
<path fill-rule="evenodd" clip-rule="evenodd" d="M342.316 134.718L336.337 111.783L339.695 110.698C346.349 122.753 353.781 127.571 361.97 125.196C368.44 122.889 370.938 118.546 369.505 112.191C368.502 108.391 363.322 106.242 353.945 105.835C341.169 105.021 333.86 101.017 331.976 93.8245C329.356 81.2713 333.778 72.8121 345.202 68.4241C349.051 67.1801 353.023 67.1575 357.077 68.2884C358.469 68.5825 359.37 68.6503 359.78 68.5372C360.599 68.2658 361.192 67.248 361.602 65.3933C361.684 64.8957 361.807 64.4886 361.93 64.1945L365.001 63.1993L370.365 83.782L367.314 84.7772C361.479 74.1918 354.866 69.9848 347.475 72.0883C341.619 74.1918 339.306 77.9691 340.514 83.3975C341.558 87.4914 346.636 89.6401 355.767 89.9115C368.87 90.3639 376.527 94.7292 378.698 103.075C381.073 114.724 376.405 123.025 364.693 127.978C360.414 129.358 355.91 129.81 351.16 129.38C349.563 129.132 348.458 129.132 347.843 129.335C346.82 129.629 346.083 130.986 345.591 133.316L345.366 133.768L342.316 134.718Z" fill="#1B5293"/>
<path fill-rule="evenodd" clip-rule="evenodd" d="M411.241 116.404L382.188 122.353L381.594 118.869C387.266 117.965 389.538 115.477 388.433 111.405L381.39 69.3128C381.103 65.0605 378.175 63.6582 372.586 65.0379L372.012 61.5547L401.065 55.6287L401.659 59.1119C395.987 60.0166 393.715 62.5047 394.82 66.5759L401.863 108.646C402.15 112.898 405.078 114.323 410.667 112.943L411.241 116.404Z" fill="#1B5293"/>
<path fill-rule="evenodd" clip-rule="evenodd" d="M406.522 54.1845L458.833 50.0679L460.532 71.7589L456.724 72.0755C453.448 60.5854 447.798 55.1571 439.751 55.7904L442.822 103.764C442.679 108.016 445.771 109.758 452.097 109.034L452.302 112.517L420.608 114.982L420.383 111.522C427.16 111.205 430.108 108.989 429.187 104.849L426.136 56.8534C418.09 57.4867 413.197 63.752 411.395 75.604L407.607 75.898L406.522 54.1845Z" fill="#1B5293"/>
<path fill-rule="evenodd" clip-rule="evenodd" d="M468.484 53.6566L468.729 50.1508L495.673 52.4126L495.407 55.9411C491.189 55.5792 488.999 56.3256 488.896 58.2029C488.835 58.8814 489.162 60.2159 489.879 62.1611C490.063 62.6361 490.145 62.998 490.145 63.2242L497.454 81.7938L506.217 65.6443C507.2 63.5861 507.732 62.0254 507.835 60.8266C507.998 58.2934 505.767 56.8232 501.119 56.4161L501.344 52.9102L521.941 54.6518L521.716 58.1577C516.823 58.2029 513.711 60.035 512.4 63.6991L498.867 88.9864L497.761 105.045C497.045 109.23 499.87 111.469 506.217 111.763L505.972 115.269L474.913 112.645L475.179 109.162C481.915 109.954 485.129 108.235 484.761 103.96L485.907 87.5162L477.001 64.242C474.728 57.0041 471.903 53.4757 468.484 53.6566Z" fill="#1B5293"/>
<path fill-rule="evenodd" clip-rule="evenodd" d="M555.995 94.2501C551.389 112.028 553.375 122.274 561.933 124.966C570.204 127.816 576.695 120.261 581.342 102.257C586.01 84.2754 584.147 74.0293 575.712 71.6318C567.154 68.9402 560.582 76.4721 555.995 94.2501ZM541.336 89.6133C547.99 71.4961 559.804 64.1677 576.776 67.5605C592.541 74.7757 598.97 87.8717 596.022 106.894C589.614 124.83 577.943 131.977 561.052 128.336C544.755 121.505 538.163 108.59 541.336 89.6133Z" fill="#1B5293"/>
<path fill-rule="evenodd" clip-rule="evenodd" d="M616.869 151.304L589.188 137.144L590.519 133.955C595.617 136.85 598.79 136.262 600.019 132.236L616.316 93.3781C618.281 89.7592 616.643 86.7509 611.361 84.2855L612.713 81.0964L658.246 104.438L650.425 124.772L647.231 123.166C649.095 110.953 645.594 102.584 636.769 98.0375C632.511 95.3685 629.788 96.0244 628.559 100.05L621.885 115.974C627.966 119.864 633.145 118.665 637.424 112.332L640.311 113.802L630.832 136.421L627.945 134.928C629.542 127.238 627.044 122.081 620.431 119.48L612.405 138.569C610.419 142.234 612.344 145.4 618.2 148.137L616.869 151.304Z" fill="#1B5293"/>
<path fill-rule="evenodd" clip-rule="evenodd" d="M689.118 138.625L679.536 153.915L681.871 155.702C688.156 160.542 693.459 159.479 697.799 152.535C701.546 145.727 701.28 140.412 697.001 136.544C694.052 134.282 691.411 134.983 689.118 138.625ZM669.914 185.875L645.611 167.237L647.433 164.365C652.019 168.164 655.213 168.21 657.056 164.455L679.147 129.261C681.666 126.049 680.519 122.792 675.687 119.354L677.51 116.482L701.525 134.893C711.906 143.42 714.547 152.128 709.469 161.04C703.552 169.635 695.383 170.336 684.921 163.188L677.366 157.398L668.112 172.1C665.348 175.696 666.536 179.315 671.715 182.957L669.914 185.875Z" fill="#1B5293"/>
<path fill-rule="evenodd" clip-rule="evenodd" d="M760.312 189.693L747.167 206.385L744.608 203.784C749.767 192.791 748.785 183.631 741.639 176.325C738.343 172.299 735.559 172.05 733.286 175.443L722.476 188.335C727.185 194.08 732.467 194.691 738.282 190.145L740.616 192.52L725.301 210.841L722.967 208.443C726.611 201.658 725.67 195.89 720.121 191.14L707.366 206.34C704.766 209.099 705.257 212.152 708.82 215.5C716.743 223.258 725.67 223.643 735.599 216.563L738.179 219.209L723.233 235.992L685.479 197.36L687.629 194.782C691.683 199.237 694.856 199.758 697.129 196.365L723.459 164.925C726.366 162.166 725.649 158.728 721.309 154.566L723.459 152.01L760.312 189.693Z" fill="#1B5293"/>
<path fill-rule="evenodd" clip-rule="evenodd" d="M768.385 198.793L801.328 243.871L786.197 257.804L783.802 254.547C790.456 245.025 791.234 236.792 786.177 229.871L752.313 260.089C749.078 262.373 749.549 266.173 753.705 271.488L751.228 273.705L731.266 246.382L733.743 244.165C737.817 250.159 741.155 251.539 743.734 248.35L777.598 218.109C772.541 211.211 765.089 210.329 755.261 215.486L752.866 212.206L768.385 198.793Z" fill="#1B5293"/>
<path fill-rule="evenodd" clip-rule="evenodd" d="M808.189 274.137L793.161 283.999C798.054 293.544 803.684 295.986 810.031 291.282C815.928 287.143 817.586 282.212 815.047 276.557C813.205 273.119 810.912 272.328 808.189 274.137ZM793.693 322.812L795.331 325.842C788.042 330.615 782.392 329.28 778.379 321.816C774.1 314.285 775.86 307.974 783.702 302.84C792.24 298.067 794.471 292.39 790.438 285.763L775.942 295.285C771.418 297.411 770.865 301.166 774.263 306.594L771.52 308.359L756.758 280.9L759.502 279.113C762.225 284.655 765.132 286.147 768.183 283.614L801.535 261.72C805.036 260.001 805.22 256.472 802.128 251.157L804.852 249.347L819.47 276.512C826.185 289.54 825.428 298.859 817.156 304.581C809.581 309.286 802.395 305.531 795.638 293.385L795.352 293.544C798.709 301.143 797.665 307.951 792.28 313.945C787.244 319.713 785.483 322.88 787.06 323.513C787.735 325.232 789.946 324.983 793.693 322.812Z" fill="#1B5293"/>
<path fill-rule="evenodd" clip-rule="evenodd" d="M818.352 341.968C802.731 348.618 796.527 356.535 799.721 365.695C802.628 374.742 812.005 375.896 827.811 369.178C843.637 362.461 849.902 354.657 846.586 345.791C843.392 336.631 833.974 335.364 818.352 341.968ZM812.886 326.271C829.981 321.25 842.409 327.267 850.148 344.276C854.448 362.506 848.838 376.077 833.298 384.898C816.469 390.055 804.287 384.061 796.752 366.962C791.9 348.46 797.284 334.889 812.886 326.271Z" fill="#1B5293"/>
<path fill-rule="evenodd" clip-rule="evenodd" d="M817.059 446.401L806.863 396.052L809.975 395.283C811.019 401.526 813.353 403.946 816.977 402.566L854.813 393.202C858.621 392.75 859.788 389.448 858.355 383.341L861.447 382.594L867.896 414.418L864.804 415.187C863.76 409.013 861.426 406.57 857.802 407.95L820.274 417.223C816.507 417.879 815.237 420.254 816.486 424.257C818.861 432.784 825.863 437.421 837.533 438.122L838.291 441.9L817.059 446.401Z" fill="#1B5293"/>
<path fill-rule="evenodd" clip-rule="evenodd" d="M877.265 504.648L857.323 506.729L857.098 502.861C867.704 498.858 872.679 491.462 872.085 480.695C872.187 475.335 870.365 473.005 866.598 473.706L850.731 474.815C850.526 482.573 853.966 487.029 861.05 488.159L861.234 491.688L838.712 493.249L838.508 489.743C845.408 487.617 848.315 482.708 847.25 475.063L828.537 476.33C824.913 476.353 823.378 478.931 823.869 484.088C824.749 495.714 830.994 502.793 842.603 505.259L842.807 509.127L821.514 509.896L818.3 453.124L821.473 452.92C821.617 459.231 823.582 462.035 827.37 461.312L866.066 458.62C869.894 458.846 871.512 455.793 870.938 449.505L874.132 449.279L877.265 504.648Z" fill="#1B5293"/>
<path fill-rule="evenodd" clip-rule="evenodd" d="M877.618 514.434L875.325 545.941L872.152 545.647C872.848 539.133 871.251 535.944 867.443 536.08L834.173 533.117C827.375 532.958 823.383 536.849 822.175 544.72C821.417 554.989 825.676 560.53 834.971 561.344L864.433 563.968C867.975 564.986 870.33 561.91 871.476 554.74L874.65 555.034L872.991 577.788L869.838 577.494C869.633 571.364 867.729 568.379 864.106 568.537L835.278 565.958C823.444 564.895 818.121 556.549 819.247 540.943C820.578 525.788 826.311 518.573 836.466 519.206L868.446 522.079C872.213 522.893 874.22 520.247 874.445 514.163L877.618 514.434Z" fill="#1B5293"/>
<path fill-rule="evenodd" clip-rule="evenodd" d="M811.321 600.736L817.013 578.412L820.064 579.384C818.835 585.061 820.555 588.635 825.264 590.105L861.052 601.234C864.246 602.455 866.437 600.351 867.624 594.878L870.675 595.828L864.287 620.844L824.814 621.703L824.711 621.997L858.022 645.497L851.553 670.853L848.502 669.903C850.242 663.886 849.239 660.539 845.451 659.837L808.127 648.257C804.585 646.651 802.128 648.89 800.777 655.065L797.706 654.115L805.384 624.033L808.434 624.983C806.858 630.366 807.923 633.442 811.669 634.369L851.409 646.741L807.615 615.234L809.519 607.815L861.585 606.865L823.954 595.149C819.06 593.656 815.887 595.805 814.372 601.663L811.321 600.736Z" fill="#1B5293"/>
<path fill-rule="evenodd" clip-rule="evenodd" d="M419.07 805.997V840.377C419.07 842.119 419.705 843.001 421.036 843.001H424.721V845.15H406.888V843.001H410.369C411.659 842.843 412.314 842.051 412.314 840.581V813.688C410 815.112 407.83 816.153 405.783 816.809L404.923 815.113C409.263 812.738 412.969 809.684 416.02 805.997H419.07Z" fill="#1B5293"/>
<path fill-rule="evenodd" clip-rule="evenodd" d="M440.421 817.77C440.134 824.488 441.444 827.79 444.331 827.632C445.641 827.632 447.177 826.976 448.917 825.687C449.183 823.131 449.347 820.982 449.347 819.195C449.347 811.822 447.75 808.158 444.556 808.158C441.649 807.999 440.277 811.211 440.421 817.77ZM437.595 845.636L436.285 843.962C442.816 841.746 446.87 836.521 448.467 828.333C446.583 829.781 444.7 830.504 442.816 830.504C436.858 830.007 433.664 826.184 433.234 818.969C433.808 810.94 437.595 806.642 444.556 805.986C452.234 806.461 456.226 811.912 456.513 822.339C455.797 834.847 449.491 842.605 437.595 845.636Z" fill="#1B5293"/>
<path fill-rule="evenodd" clip-rule="evenodd" d="M465.936 826.41L466.571 806.959H478.978C480.145 806.959 480.8 806.551 480.943 805.76H482.684L481.803 812.952H468.536L468.331 820.416C469.785 819.942 471.3 819.67 472.877 819.67C480.575 820.19 484.649 824.397 485.079 832.427C484.485 840.773 479.94 845.161 471.362 845.658C466.571 845.5 464.052 843.962 463.745 841.067C463.889 839.009 464.83 837.946 466.571 837.946C467.881 837.946 469.048 838.918 470.072 840.863C471.075 842.605 472.16 843.464 473.327 843.464C476.521 843.17 478.261 840.434 478.548 835.322C478.405 829.554 476.152 826.501 471.791 826.184C470.358 826.184 468.905 826.591 467.451 827.383L465.936 826.41Z" fill="#1B5293"/>
<path fill-rule="evenodd" clip-rule="evenodd" d="M500.578 826.41L499.698 824.736C503.608 821.23 505.512 818.086 505.349 815.35C505.226 812.477 503.915 810.939 501.438 810.803C499.268 810.803 497.528 812.228 496.238 815.123L494.477 814.422C496.361 808.949 499.698 806.144 504.489 806.008C508.993 806.302 511.45 808.564 511.88 812.748C511.88 815.938 509.935 818.81 506.004 821.366H506.229C511.45 821.683 514.275 825.121 514.705 831.703C514.132 840.524 509.505 845.16 500.783 845.658C495.869 845.319 493.187 843.736 492.737 840.863C492.88 838.918 493.904 837.877 495.787 837.719C496.954 837.719 498.101 838.601 499.268 840.365C500.435 842.265 501.745 843.261 503.178 843.261C506.229 842.921 507.826 840.117 507.969 834.847C507.826 829.215 505.942 826.252 502.318 825.935C502.011 825.935 501.745 826.003 501.438 826.184C501.151 826.342 500.865 826.41 500.578 826.41Z" fill="#1B5293"/>
<path fill-rule="evenodd" clip-rule="evenodd" d="M379.119 223.554H447.174V346.19C447.174 346.19 425.308 356.278 400.391 388.871C400.391 388.871 370.131 385.094 343.453 398.416C308.32 416.013 275.828 464.145 294.644 525.373C314.073 588.636 374.451 607.387 376.498 607.387C376.498 607.387 262.622 631.543 236.682 518.067C217.15 432.638 269.297 335.515 379.119 328.232V223.554Z" fill="#1B5293"/>
<path fill-rule="evenodd" clip-rule="evenodd" d="M480.208 223.576V343.928C480.208 343.928 364.285 396.176 379.026 510.218C383.612 532.112 401.916 537.179 411.58 536.591C421.244 536.025 444.113 533.786 446.14 500.673C448.187 474.255 457.319 405.721 522.426 375.413C575.31 351.256 643.427 369.193 682.573 419.767C682.573 419.767 650.019 330.47 547.834 328.774V223.576H480.208Z" fill="#1B5293"/>
<path fill-rule="evenodd" clip-rule="evenodd" d="M264.125 590.55C264.125 590.55 316.497 647.254 407.012 616.358C469.027 587.723 475.641 534.366 479.694 500.1C482.765 472.551 499.534 459.07 519.885 462.463C536.141 464.725 551.906 482.118 549.879 504.578C547.832 527.038 538.68 611.879 447.161 654.56V741.052C447.161 741.052 444.623 751.185 454.798 752.294H474.105C474.105 752.294 481.742 752.294 481.23 741.64V651.778C481.23 651.778 512.76 630.426 523.939 610.205C523.939 610.205 567.876 614.413 609.356 569.199C649.014 525.93 660.725 403.474 543.266 386.624C543.266 386.624 604.278 359.12 663.264 415.824C713.588 464.725 693.749 587.157 625.121 634.362C590.028 661.323 547.34 669.194 547.34 669.194V734.312C547.34 734.312 552.418 768.036 516.834 778.124H408.527C408.527 778.124 379.536 771.971 379.024 737.139V668.063C379.024 668.063 303.271 657.387 264.125 590.55Z" fill="#1B5293"/>
<path fill-rule="evenodd" clip-rule="evenodd" d="M185.569 775.563C183.767 776.355 180.143 775.563 179.652 774.862C179.16 774.138 181.31 772.646 181.31 772.646C182.375 771.741 183.869 771.967 184.729 772.691C185.61 773.437 187.37 774.749 185.569 775.563ZM200.044 754.28C201.866 749.643 194.925 745.345 194.106 746.635C194.106 746.635 192.223 747.313 192.653 751.249C193.062 755.207 190.442 755.569 188.21 757.718C185.978 759.821 179.816 764.774 179.816 764.774C179.816 764.774 163.498 757.31 162.126 755.863C160.775 754.393 160.55 759.866 163.027 761.472C165.525 763.055 172.506 766.222 173.94 767.036C175.373 767.851 177.011 768.506 175.762 769.592C174.492 770.678 171.503 774.387 170.193 774.184C168.883 774.048 161.88 769.411 160.283 773.392C158.707 777.373 159.362 782.643 160.202 783.593C161.062 784.52 138.008 800.896 132.541 806.369C127.075 811.843 127.198 814.15 132.05 812.612C136.882 811.029 143.72 805.171 148.818 800.557C153.875 795.988 163.396 788.32 164.767 787.89C166.16 787.438 174.021 786.081 177.768 785.877C181.494 785.606 182.764 784.52 186.265 788.297C189.745 792.007 191.24 794.065 193.308 789.858C195.396 785.606 196.911 777.938 193.758 774.659C190.605 771.379 185.466 769.637 186.04 768.755C186.613 767.896 198.201 758.848 200.044 754.28ZM149.944 766.199C149.228 770.022 150.149 772.985 152.442 771.198C154.735 769.389 155.615 754.574 154.715 750.638C153.814 746.748 151.234 745.979 151.234 745.979C146.771 744.938 148.04 750.796 150.067 753.918C152.094 757.039 150.64 762.445 149.944 766.199Z" fill="#1B5293"/>
<path fill-rule="evenodd" clip-rule="evenodd" d="M323.374 906.719C321.941 901.811 318.808 901.584 315.532 902.353C312.277 903.1 309.022 901.63 306.565 902.127C304.087 902.534 308.756 907.42 309.963 909.252C311.151 911.061 307.588 912.554 304.661 912.464C301.753 912.396 300.914 913.708 300.464 912.577C300.034 911.446 299.01 906.47 297.843 903.914C296.717 901.403 293.687 900.974 293.687 900.974C291.414 899.73 296.041 904.728 297.761 909.048C299.46 913.346 298.682 916.942 299.092 920.29C299.501 923.569 304.681 924.881 310.516 928.003C316.351 931.146 316.966 928.862 316.638 927.799C316.31 926.713 316.208 921.76 317.252 918.797C318.296 915.789 318.747 916.354 323.333 916.58C327.899 916.829 324.828 911.65 323.374 906.719ZM323.046 877.428C326.752 876.93 331.256 876.976 334.184 879.147C337.112 881.296 340.04 878.898 336.027 873.47C331.993 868.064 332.71 870.959 326.834 870.914C320.999 870.869 309.882 867.838 309.677 868.335C309.677 868.335 309.145 869.489 310.332 871.366C311.54 873.198 310.066 875.031 312.605 876.229C315.143 877.451 317.887 878.197 314.079 880.142C310.291 882.087 276.263 905.316 257.202 909.704C254.582 911.401 258.615 912.238 269.138 909.32C279.662 906.425 280.829 906.447 291.639 900.431C302.45 894.414 318.378 884.689 320.446 881.771C322.514 878.921 319.341 877.971 323.046 877.428Z" fill="#1B5293"/>
<path fill-rule="evenodd" clip-rule="evenodd" d="M492.314 899.323C492.314 899.323 493.03 900.748 494.238 901.879C495.426 903.032 496.367 911.31 496.449 916.128C496.511 920.923 498.353 924.225 494.013 926.216C489.693 928.229 483.858 928.432 485.66 931.328C487.482 934.177 491.843 936.145 493.194 936.009C494.545 935.919 496.756 937.095 494.054 939.38C491.351 941.687 477.47 956.977 475.525 957.542C473.559 958.13 476.262 959.261 483.387 958.017C490.512 956.728 495.2 956.343 499.5 951.978C503.82 947.658 503.431 943.994 504.721 942.908C506.011 941.845 505.622 941.574 508.549 944.22C511.457 946.889 519.953 960.053 525.993 964.757C532.012 969.485 535.882 967.788 545.75 964.87C549.948 962.631 545.464 962.315 539.567 959.917C533.691 957.52 527.672 954.986 518.459 945.464C509.225 935.942 507.034 934.901 508.631 932.82C510.228 930.785 514.651 922.552 517.763 922.439C520.854 922.348 521.427 916.241 517.783 913.821C514.139 911.356 510.023 912.826 508.324 911.831C506.645 910.903 505.785 903.688 502.837 900.499C499.889 897.31 489.836 897.604 492.314 899.323Z" fill="#1B5293"/>
<path fill-rule="evenodd" clip-rule="evenodd" d="M614.771 905.282C612.744 905.214 610.512 901.482 608.567 899.899C606.602 898.293 608.895 895.896 610.246 894.832C611.556 893.769 614.013 890.693 610.389 888.251C606.765 885.83 604.841 884.179 600.296 889.856C595.771 895.511 588.257 900.668 589.875 902.116C589.875 902.116 592.802 904.898 595.464 902.772C598.125 900.645 600.091 899.424 599.866 901.301C599.661 903.156 599.907 905.282 602.896 907.114C605.906 908.991 609.325 909.58 607.973 910.959C606.643 912.362 595.751 921.273 593.785 924.553C591.82 927.833 592.884 927.81 596.467 926.702C600.07 925.593 605.128 923.083 608.321 920.572C611.495 918.039 613.972 917.179 614.955 921.477C615.917 925.706 616.286 936.812 613.481 938.576C610.656 940.318 597.757 944.751 598.433 946.47C599.108 948.212 607.953 947.216 610.717 948.868C613.501 950.519 620.647 950.27 622.182 938.916C623.718 927.539 623.472 923.083 619.418 913.922C620.135 912.972 622.182 910.982 624.619 910.733C627.076 910.462 626.932 905.938 622.797 904.174C618.64 902.432 616.818 905.373 614.771 905.282ZM627.587 873.413C626.195 870.812 625.212 867.555 616.306 871.852C607.38 876.195 600.644 884.835 595.218 888.816C589.813 892.842 603.633 876.172 608.321 872.35C613.01 868.55 611.29 864.026 607.318 862.76C603.367 861.516 600.398 863.212 599.19 863.913C597.982 864.614 593.867 870.246 591.349 871.423C588.851 872.576 588.196 872.893 588.421 873.526C588.421 873.526 591.779 878.457 594.297 879.045C596.795 879.678 597.634 878.706 597.818 875.019C598.044 871.4 597.388 867.261 599.886 866.379C602.364 865.519 604.923 865.225 604.083 868.279C603.244 871.332 583.814 905.848 581.808 904.445C579.781 902.998 578.225 902.116 576.853 902.749C575.502 903.382 576.546 904.355 575.727 907.092C574.908 909.874 572.165 916.32 577.017 918.175C581.89 920.052 578.163 911.751 581.849 908.109C585.554 904.468 586.578 901.912 595.3 891.485C604.022 881.035 615.139 873.752 615.242 875.765C615.344 877.778 615.508 877.145 612.58 878.954C609.652 880.764 607.441 885.785 609.468 885.129C611.495 884.496 614.587 881.714 619.459 880.153C624.373 878.593 629 876.014 627.587 873.413ZM581.787 889.042C584.715 891.078 587.008 893.566 589.24 891.055C591.492 888.499 587.929 882.053 586.537 881.216C585.165 880.379 586.865 883.41 585.473 883.636C584.08 883.84 573.966 881.917 576.014 885.536C576.014 885.536 578.88 887.029 581.787 889.042Z" fill="#1B5293"/>
<path fill-rule="evenodd" clip-rule="evenodd" d="M423.139 926.888C421.501 927.589 421.378 927.702 420.518 931.818C419.679 935.89 415.564 948.284 413.885 950.275C412.185 952.265 412.308 949.732 412.144 948.126C412.001 946.566 409.053 946.475 407.845 946.95C406.617 947.448 406.944 945.118 407.231 942.336C407.497 939.554 409.217 940.979 413.004 940.391C416.813 939.757 411.653 933.809 410.855 933.062C410.056 932.361 411.53 924.151 411.53 924.151C418.225 921.934 420.703 923.359 423.426 923.992C426.149 924.603 424.777 926.209 423.139 926.888ZM433.622 929.579C426.415 921.979 424.429 919.785 411.182 921.256C411.817 920.26 410.916 913.204 412.861 913.09C414.786 913 417.181 913.158 414.868 906.237C412.533 899.316 407.395 894.204 406.637 896.737C405.9 899.293 406.903 899.452 406.371 904.88C405.839 910.308 405.716 919.175 404.405 921.075C403.115 922.929 396.789 924.264 393.063 926.978C393.063 926.978 393.452 928.855 395.97 928.199C398.488 927.498 402.665 925.146 403.648 924.603C404.631 924.06 405.368 922.386 404.794 926.367C404.242 930.348 403.709 935.799 402.604 935.46C401.478 935.098 395.806 931.977 396.605 935.369C397.383 938.74 397.936 941.273 398.918 941.454C399.922 941.612 400.003 942.766 399.86 943.716C399.737 944.688 398.079 945.502 396.687 945.412C395.294 945.299 395.786 949.936 393.042 943.082C390.319 936.252 387.719 929.557 385.979 929.24C384.218 928.968 384.75 929.76 386.511 932.61C388.272 935.46 389.214 939.576 390.156 943.716C391.097 947.81 389.562 954.912 394.394 954.188C399.225 953.509 399.389 953.238 402.89 953.713C406.412 954.188 406.821 952.311 407.415 953.532C408.009 954.753 408.91 963.529 412.247 964.389C415.564 965.248 417.857 961.697 422.34 952.785C426.845 943.806 426.804 938.694 430.039 938.446C433.274 938.151 440.828 937.247 433.622 929.579ZM373.858 945.796C370.46 949.845 371.463 947.47 367.716 947.674C363.969 947.855 369.579 956.879 372.937 956.631C376.295 956.382 380.881 938.83 380.881 938.83C381.29 936.071 377.257 941.725 373.858 945.796ZM379.509 932.361C382.294 932.587 382.621 930.235 382.744 928.561C382.846 926.865 375.947 918.044 375.947 918.044C371.975 917.184 376.725 932.158 379.509 932.361ZM386.204 917.863C388.538 919.401 389.173 917.682 389.255 915.284C389.357 912.91 382.293 904.179 382.293 904.179C378.854 903.138 383.87 916.325 386.204 917.863Z" fill="#1B5293"/>
<path fill-rule="evenodd" clip-rule="evenodd" d="M215.969 856.12C214.782 856.12 213.369 855.351 209.581 852.207C205.794 849.063 201.638 845.76 201.638 845.76C198.566 842.368 198.648 848.135 201.187 850.51C203.746 852.863 207.432 855.939 212.857 860.394C218.283 864.918 217.464 863.787 217.832 861.548C218.221 859.309 217.157 856.097 215.969 856.12ZM231.898 854.695C234.293 856.368 235.542 854.943 234.314 849.56C233.065 844.177 234.252 840.649 232.963 839.269C231.673 837.889 235.399 834.316 236.034 833.456C236.709 832.619 238.122 833.366 241.644 835.74C245.206 838.093 248.809 836.849 247.683 831.76C246.578 826.648 246.844 827.847 237.549 826.015C228.254 824.205 222.152 819.252 223.381 821.152C223.381 821.152 222.275 826.58 225.019 827.1C227.783 827.643 232.266 828.141 231.918 829.453C231.57 830.787 229.421 834.519 228.274 834.904C227.107 835.333 225.879 834.542 225.531 833.682C225.203 832.8 223.463 832.664 223.237 834.27C222.992 835.899 222.48 837.482 222.255 839.088C222.009 840.694 221.313 840.988 218.426 841.056C215.519 841.124 211.567 840.423 210.605 844.494C209.663 848.588 210.278 851.754 213.41 852.274C216.522 852.772 217.177 851.89 219.491 854.762C221.804 857.658 224.527 855.418 224.364 853.202C224.179 851.008 227.128 848.226 227.537 847.706C227.946 847.163 229.625 846.484 229.564 849.017C229.482 851.528 229.503 853.021 231.898 854.695ZM223.278 817.352C224.486 815.542 221.415 814.525 221.415 814.525C220.596 814.502 220.576 815.407 218.447 818.234C216.317 821.039 205.609 835.062 201.371 837.595C197.133 840.083 197.195 842.006 197.358 844.358C197.563 846.778 202.723 843.046 205.2 840.219C207.698 837.369 222.05 819.184 223.278 817.352ZM264.042 841.418C265.086 837.618 263.94 830.787 263.018 828.299C262.097 825.766 259.374 819.908 249.444 818.053C239.494 816.198 229.871 812.421 231.591 815.882C231.591 815.882 233.536 818.958 236.484 819.297C239.412 819.636 249.219 820.993 252.085 821.627C254.931 822.26 258.166 825.246 257.347 827.847C256.569 830.403 250.161 839.02 245.738 845.059C241.316 851.098 225.694 878.625 224.343 875.142C222.971 871.681 221.538 862.385 220.392 865.212C219.245 867.994 219.225 871.116 218.303 875.617C217.382 880.118 213.819 887.672 218.058 888.667C222.316 889.662 221.681 890.906 233.884 874.237C246.086 857.544 255.443 843.951 257.06 843.589C258.657 843.25 262.977 845.24 264.042 841.418Z" fill="#1B5293"/>
<path fill-rule="evenodd" clip-rule="evenodd" d="M676.648 868.002C676.648 871.734 673.925 874.742 670.547 874.742C667.169 874.742 664.446 871.734 664.446 868.002C664.446 864.293 667.169 861.262 670.547 861.262C673.925 861.262 676.648 864.293 676.648 868.002Z" fill="#1B5293"/>
<path fill-rule="evenodd" clip-rule="evenodd" d="M715.515 836.636C715.31 837.518 714.9 838.581 714.307 839.825C713.733 841.046 713.549 842.268 713.795 843.466C713.938 844.303 713.918 845.253 713.692 846.407C713.733 847.085 713.733 847.651 713.692 848.148C713.549 849.415 714.143 851.27 715.453 853.667C715.74 854.323 715.945 854.64 716.067 854.504C716.313 854.527 716.579 854.187 716.886 853.441C717.971 850.817 718.975 847.673 719.937 844.009C719.425 843.037 718.79 841.838 717.971 840.458C717.03 839.169 716.211 837.902 715.515 836.636ZM708.942 802.211C708.533 801.623 708.697 801.283 709.413 801.08C716.354 798.908 719.794 798.524 719.794 799.949C721.022 801.917 722.291 803.997 723.622 806.101C724.851 808.069 725.956 809.878 726.98 811.597C728.024 809.245 728.986 806.712 729.826 804.111C730.522 801.826 732.18 801.17 734.801 802.143C737.258 803.726 738.015 805.649 737.074 807.888C735.886 810.625 734.862 813.18 734.023 815.533C733.347 817.795 732.344 819.084 731.013 819.287C732.324 822.838 733.45 825.259 734.371 826.571C736.296 828.832 738.036 829.194 739.592 827.566C740.349 827.113 740.984 826.571 741.537 825.824C742.069 825.1 742.765 824.15 743.584 822.974C745.14 820.396 746.676 818.993 748.252 818.79C750.627 818.541 752.388 819.197 753.535 820.803C755.009 822.816 754.927 824.761 753.33 826.661C751.753 828.29 749.993 829.963 748.048 831.705C746.246 833.311 744.833 834.442 743.83 835.098C741.025 837.111 738.363 837.269 735.804 835.505C733.327 834.442 731.177 832.112 729.396 828.516C728.249 826.005 727.308 824.15 726.591 822.884C726.284 822.454 725.997 822.228 725.772 822.205C725.547 822.183 725.281 822.409 724.994 822.884C723.991 825.892 723.356 830.574 723.09 836.952C723.479 837.789 723.929 838.694 724.441 839.667C725.137 840.888 725.792 841.951 726.427 842.81C726.509 843.24 726.652 843.579 726.857 843.828C727.144 844.529 727.328 845.095 727.41 845.502C727.389 845.728 727.41 846.067 727.492 846.475C727.697 846.769 728.045 847.515 728.495 848.759C728.782 849.415 728.802 849.89 728.556 850.116C728.536 850.365 728.249 850.297 727.696 849.822C726.243 848.985 725.096 848.578 724.277 848.601C724.81 852.876 724.769 855.725 724.134 857.218C723.499 858.982 722.394 859.932 720.838 860.181C718.115 860.227 716.231 858.983 715.187 856.359C715.125 855.703 714.9 854.956 714.511 854.12L714.409 853.532C713.672 852.514 712.648 849.234 711.297 843.58C709.147 845.004 706.445 844.235 703.189 841.25C702.636 841.024 702.35 840.843 702.391 840.549C702.411 840.3 702.677 839.938 703.189 839.463C704.356 838.445 705.359 837.201 706.219 835.731C707.468 833.673 709.024 831.705 710.867 829.828C708.431 826.774 705.708 824.512 702.677 822.974C702.104 822.793 701.777 822.477 701.695 822.069C701.715 821.843 701.981 821.481 702.493 821.029C706.056 818.541 708.758 817.908 710.683 819.061C713.037 820.237 714.777 821.775 715.904 823.585C717.664 827.159 719.548 830.936 721.534 834.804C722.189 826.932 722.885 821.481 723.643 818.428C721.309 814.605 719.179 811.575 717.296 809.267C715.392 806.938 713.877 805.445 712.771 804.834C712.628 804.925 712.525 804.925 712.423 804.789C710.703 804.156 709.536 803.319 708.942 802.211Z" fill="#1B5293"/>
<path fill-rule="evenodd" clip-rule="evenodd" d="M783.486 778.521C782.176 781.529 781.172 784.56 780.476 787.636C782.687 787.274 784.387 786.437 785.574 785.148C787.233 784.379 787.519 783.429 786.475 782.253C786.004 781.732 785.41 781.054 784.714 780.285C784.243 779.516 783.854 778.928 783.486 778.521ZM775.91 775.218C777.098 775.987 778.04 775.309 778.756 773.251C777.692 772.074 776.811 771.758 776.115 772.278C775.296 773.432 775.214 774.404 775.91 775.218ZM776.873 756.332C776.177 756.332 775.808 757.237 775.808 759.046C775.685 759.702 775.624 760.268 775.624 760.788C775.378 761.828 775.276 762.484 775.276 762.733C774.784 764.543 774.436 766.51 774.191 768.591C776.77 767.008 778.777 766.646 780.169 767.438C780.435 765.085 780.087 762.371 779.145 759.227C778.449 757.192 777.692 756.219 776.873 756.332ZM749.786 748.416C750.605 748.303 751.833 747.715 753.492 746.697C753.717 746.425 753.901 746.244 754.024 746.086C756.378 744.05 758.774 743.327 761.251 744.005C763.36 744.231 764.343 744.842 764.24 745.747C764.793 747.715 763.81 749.592 761.21 751.401C760.268 752.148 759.163 753.641 757.853 755.835C756.44 757.915 754.433 761.286 751.833 765.922C751.239 767.098 751.014 767.098 751.117 765.922C752.427 762.71 753.799 759.024 755.232 754.862C756.276 752.668 755.928 751.514 754.167 751.356C751.833 751.107 750.298 750.565 749.602 749.773C749.131 749.547 748.946 749.32 749.069 749.185C749.069 748.936 749.315 748.687 749.786 748.416ZM764.752 747.896C765.223 745.588 765.94 744.277 766.882 744.028C767.332 744.05 767.823 743.915 768.294 743.621C768.888 743.508 769.4 743.304 769.871 743.055C771.058 742.806 771.816 743.01 772.164 743.643C772.635 744.164 772.676 745.272 772.328 746.946C771.242 752.781 770.956 756.875 771.406 759.205C773.536 754.817 776.77 753.211 781.111 754.41C782.503 754.658 783.22 755.337 783.199 756.355C783.322 757.508 783.445 758.3 783.547 758.684C784.94 764.678 785.042 769.202 783.875 772.301C784.1 773.092 784.387 773.545 784.755 773.68C786.966 770.672 788.993 768.229 790.754 766.307C791.573 765.402 792.699 764.859 794.112 764.565C798.575 764.316 801.38 766.284 802.527 770.469C802.649 771.622 802.281 772.255 801.462 772.391C801.114 772.776 800.766 773.024 800.418 773.16C799.599 773.296 798.534 773.545 797.224 773.929C796.999 774.178 796.773 774.314 796.548 774.314C794.644 774.811 792.843 775.015 791.082 774.857C790.734 775.015 790.59 774.992 790.734 774.857C790.836 774.743 791.082 774.472 791.43 774.087C794.255 772.029 795.32 770.378 794.624 769.044C792.863 767.076 789.915 769.021 785.779 774.857C787.888 777.435 789.3 778.883 789.997 779.154C792.208 781.348 793.682 783.361 794.398 785.193C794.378 785.691 794.603 786.347 795.074 787.138C795.197 787.274 795.381 787.477 795.606 787.749C796.2 789.174 795.32 789.739 792.965 789.468C790.856 788.676 788.441 788.722 785.738 789.626C784.919 790.033 783.732 790.282 782.216 790.373C781.398 790.282 780.742 790.214 780.271 790.192C780.497 793.313 780.906 795.733 781.479 797.407C782.073 799.352 781.766 800.325 780.579 800.303C778.941 800.303 777.364 799.963 775.829 799.329C775.01 798.922 774.498 798.47 774.252 797.927V797.543C774.129 795.598 773.106 793.539 771.12 791.323C770.526 790.395 770.772 789.626 771.816 788.993C772.88 788.857 773.761 789.196 774.457 789.965C775.173 791.006 775.931 790.576 776.75 788.631C779.596 782.682 781.479 778.905 782.442 777.344C781.971 776.847 781.5 776.327 781.029 775.784C777.856 777.729 775.337 777.141 773.474 774.02C773.474 774.789 773.638 776.146 773.965 778.091C774.211 778.883 774.395 779.471 774.498 779.855C775.194 781.687 774.948 782.728 773.781 782.954C770.833 784.107 768.724 782.705 767.455 778.679C767.107 777.729 767.107 777.209 767.455 777.096C767.803 777.503 767.823 776.734 767.475 774.766C766.677 769.7 766.226 763.344 766.124 755.676C766.144 754.93 766.022 754.771 765.776 755.337C763.872 759.974 762.275 765.334 760.965 771.418C760.719 776.123 758.303 779.244 753.696 780.918C751.485 782.072 749.827 781.823 748.783 780.104C748.434 779.742 748.496 779.403 748.967 779.154L749.151 778.973C751.731 777.684 754.618 773.092 757.812 765.176C758.303 764.158 758.958 762.665 759.777 760.72C761.435 756.581 762.664 753.55 763.503 751.605C763.851 750.926 764.281 749.728 764.752 747.896Z" fill="#1B5293"/>
</svg>
