<svg xmlns="http://www.w3.org/2000/svg" role="img" viewBox="152.43 307.43 861.64 215.14"><defs><clipPath id="a"><path d="M0 841.89h1190.55V0H0z" transform="matrix(1 0 0 -1 0 841.89)"/></clipPath></defs><g clip-path="url(#a)"><path fill="#1071ce" d="M528.335 324.09h-28.372v3.359h-.139v107.769c-9.016-8.979-110.585-110.128-110.585-110.128l-.002 147.431h28.913v-77.853c8.707 8.816 103.174 104.465 110.185 111.565zM325.119 472.446h31.06799V324.298H325.119zm360.515-28.371h-93.79v-32.848h74.309v-28.408h-74.309v-30.071h93.79v-28.45H562.722v148.196h122.912zm187.565 28.445l40.181-76.189.158.084c3.281-6.286 5.636-10.793 6.651-12.738 3.836 7.371 18.822 36.143 22.169 42.573h-27.277l-15.703 29.764h58.537c1.298 2.5 8.195 15.754 8.585 16.506h31.221l-77.53-148.186-77.585 148.186zm-59.786-30.461l-2.695 1.424c-7.25 3.826-15.342 5.85-23.404 5.85-27.187 0-49.306-21.339-49.306-47.572 0-26.279 22.119-47.662 49.306-47.662 10.322 0 20.328 3.225 28.942 9.327l2.604 1.843 14.637-25.591-2.299-1.484c-13.221-8.593-28.394-13.138-43.884-13.138-21.091 0-40.946 7.977-55.908 22.458-14.988 14.506-23.243 33.772-23.243 54.247 0 20.467 8.255 39.722 23.243 54.224 14.962 14.475 34.818 22.448 55.908 22.448 8.391 0 16.736-1.431 25.524-4.373l.575-.191zm-540.908 32.144c-8.356 2.659-16.313 3.974-24.266 3.974-43.637 0-79.138-34.397-79.138-76.67 0-42.295 35.501-76.708 79.138-76.708 15.502 0 30.683 4.544 43.903 13.139l2.298 1.487-14.649 25.582-2.602-1.838c-8.637-6.1-18.647-9.326-28.95-9.326-27.176 0-49.286 21.382-49.286 47.664 0 26.231 22.11 47.568 49.286 47.568 8.063 0 16.16-2.024 23.415-5.85l.851-.446z"/></g></svg>