<svg xmlns="http://www.w3.org/2000/svg" role="img" viewBox="102.96 102.96 1042.08 599.08"><defs><style>.cls-3{isolation:isolate}.cls-4{fill:none}</style></defs><g id="Layer_1" data-name="Layer 1"><circle cx="309.17" cy="185.5" r="61.83"/><circle cx="309.17" cy="61.83" r="61.83" class="cls-4"/><circle cx="309.17" cy="556.51" r="61.83" class="cls-4"/><circle cx="185.5" cy="309.17" r="61.83"/><circle cx="1185.5" cy="309.17" r="61.83" class="cls-4"/><circle cx="61.83" cy="309.17" r="61.83" class="cls-4"/><circle cx="309.17" cy="432.84" r="61.83"/><path d="M485.48001 374.98001c-15.73001 0-28.19-4.45001-37.41-13.35999-9.20999-8.91-13.82001-21.76999-13.82001-38.60001v-30.22c0-16.82999 4.60999-29.69 13.82001-38.60001 9.20999-8.91 21.67999-13.36 37.41-13.36s27.42001 4.3 35.84 12.89999c8.40997 8.59999 12.62 20.33 12.62 35.18999v1.10999h-19.71002v-1.66c0-8.72-2.37-15.85001-7.09-21.37-4.73001-5.53-11.95001-8.29001-21.64999-8.29001s-17.5 2.98001-23.03 8.94c-5.53 5.95999-8.29001 14.22-8.29001 24.78v30.95999c0 10.44 2.76001 18.67001 8.29001 24.69s13.20001 9.03 23.03 9.03 16.92001-2.79001 21.64999-8.38c4.73001-5.59 7.09-12.67999 7.09-21.28v-3.13h19.71002v2.57999c0 14.85999-4.21002 26.60001-12.62 35.19-8.41998 8.60001-20.35999 12.89999-35.84 12.89999V374.98zm113.67996 0c-9.09003 0-17.16998-1.87-24.22998-5.62-7.07001-3.75-12.62-9.12-16.67999-16.12-4.04999-7-6.08002-15.29001-6.08002-24.88V325.6c0-9.57999 2.03003-17.84 6.08002-24.78s9.60999-12.31 16.67999-16.12c7.06-3.81 15.14001-5.70999 24.22998-5.70999s17.20001 1.91 24.32001 5.70999c7.12 3.81 12.71002 9.19 16.77002 16.12 4.04999 6.94 6.08002 15.20001 6.08002 24.78v2.76001c0 9.57999-2.03003 17.87-6.08002 24.88-4.04999 7-9.64001 12.38-16.77002 16.12-7.13 3.75-15.22998 5.62-24.32001 5.62zm0-16.95001c8.34998 0 15.14001-2.67001 20.35999-8.01001s7.83002-12.73999 7.83002-22.20001v-1.66c0-9.45001-2.58002-16.85999-7.73999-22.20001-5.15997-5.34-11.97998-8.01001-20.45001-8.01001s-14.96002 2.67001-20.17999 8.01001-7.83002 12.75-7.83002 22.20001v1.66c0 9.45999 2.60999 16.86002 7.83002 22.20001 5.21997 5.34 11.94 8.01001 20.17999 8.01001zm105.56 16.95001c-7.5 0-14.44-1.84-20.82001-5.53-6.39001-3.69-11.52002-9-15.38-15.94-3.87-6.94-5.79999-15.32001-5.79999-25.14999v-2.76001c0-9.70001 1.90002-18.04999 5.71002-25.06 3.81-7 8.90997-12.34 15.28998-16.03 6.39001-3.69 13.39001-5.53 21.01001-5.53 5.90002 0 10.84003.73999 14.83002 2.20999 3.98999 1.48001 7.28003 3.35001 9.85999 5.62 2.58002 2.28 4.53998 4.64001 5.90002 7.09h2.95001v-50.49001H757.25v128.98h-18.60999V359.49H735.69c-2.33002 3.92999-5.87 7.48999-10.59003 10.69-4.72998 3.19-11.52002 4.79001-20.35999 4.79001l-.02002.01001zm5.34003-16.57999c8.22998 0 15.02002-2.64001 20.35999-7.92001 5.34003-5.28 8.02002-12.82999 8.02002-22.66v-1.66c0-9.70001-2.64001-17.19-7.91998-22.48001-5.28003-5.28-12.09998-7.92001-20.45001-7.92001S695.24 298.4 689.89003 303.68c-5.34003 5.28-8.02002 12.78-8.02002 22.48001v1.66c0 9.82999 2.66998 17.38 8.02002 22.66 5.34003 5.29001 12.07001 7.92001 20.17999 7.92001h-.01001zm100.58001 16.57999c-6.51001 0-12.32001-1.10999-17.40997-3.32001-5.09998-2.20999-9.15002-5.45999-12.15997-9.76001-3.01001-4.29999-4.51001-9.51999-4.51001-15.66s1.5-11.45001 4.51001-15.57001c3.01001-4.10999 7.12-7.20999 12.34003-9.31 5.21997-2.07999 11.15002-3.13 17.78003-3.13h27.64001v-5.89999c0-5.28-1.59998-9.51999-4.78998-12.70999-3.20001-3.19-8.10999-4.79001-14.73999-4.79001s-11.48999 1.54001-14.91998 4.60999c-3.44 3.07001-5.71002 7.07001-6.82001 11.98001l-17.69-5.70999c1.46997-4.91 3.84003-9.37 7.09003-13.35999s7.58002-7.20999 12.98999-9.67001c5.40002-2.45999 11.90997-3.69 19.53003-3.69 11.78998 0 21.06 3.01001 27.82001 9.03s10.13 14.54999 10.13 25.61002v37.39999c0 3.69 1.71997 5.53 5.15997 5.53h7.73999v15.85001h-14.19c-4.29999 0-7.79999-1.10999-10.5-3.32001-2.70001-2.20999-4.04999-5.22-4.04999-9.03v-.54999h-2.76001c-.97998 1.84-2.46002 3.98999-4.41998 6.45001-1.96997 2.45999-4.84998 4.57999-8.65997 6.35999s-8.84003 2.67001-15.10999 2.67001l-.00024-.01001zm2.76001-15.66c7.60999 0 13.75-2.17999 18.42999-6.54001 4.66998-4.35999 7-10.35001 7-17.95999v-1.84h-26.53003c-5.03998 0-9.09003 1.07999-12.15997 3.23001-3.07001 2.14999-4.60999 5.31-4.60999 9.48999S797.13 353.19 800.32 355.65002c3.19 2.45999 7.56 3.69 13.08002 3.69V359.32zm111.84998 15.66c-11.54999 0-21.13-2.57999-28.73999-7.73999-7.62-5.16-12.28003-12.95999-14-23.39999l17.69-4.23999c.97998 5.04001 2.64001 9.03 4.96997 11.98001 2.33002 2.95001 5.25 5.04001 8.75 6.26001 3.5 1.23001 7.28003 1.84 11.33002 1.84 6.02002 0 10.65997-1.17001 13.90997-3.5s4.88-5.34 4.88-9.03-1.53998-6.39001-4.60999-8.10999c-3.07001-1.72-7.62-3.13-13.63-4.23999l-6.26001-1.10999c-6.14001-1.10999-11.72998-2.70001-16.77002-4.79001-5.03998-2.09-9.03003-4.98001-11.97998-8.66-2.95001-3.69-4.41998-8.41-4.41998-14.19 0-8.60001 3.19-15.26001 9.58002-19.98999 6.39001-4.73001 14.85999-7.09 25.42999-7.09s18.58002 2.29999 25.15002 6.91c6.57001 4.60999 10.84003 10.84 12.81 18.70001l-17.69 4.97c-1.10999-5.53-3.44-9.42999-7-11.70001-3.56-2.26999-7.97998-3.41-13.27002-3.41s-9.21002.95001-12.15997 2.85999c-2.95001 1.91-4.41998 4.57999-4.41998 8.01999 0 3.69 1.44 6.39001 4.33002 8.10999 2.88 1.72 6.78998 3.01001 11.70001 3.87l6.45001 1.10999c6.51001 1.10999 12.46997 2.64001 17.87 4.60999 5.40002 1.97 9.66998 4.79001 12.81 8.48001 3.13 3.69 4.70001 8.60001 4.70001 14.73999 0 9.09-3.38 16.16-10.13 21.19-6.76001 5.03-15.84998 7.56-27.27002 7.56l-.01007-.01001zm69.09003-105.77002c-3.69 0-6.78998-1.20001-9.31-3.59-2.52002-2.39999-3.78003-5.5-3.78003-9.29999s1.26001-6.91 3.78003-9.31 5.62-3.59 9.31-3.59 6.94 1.2 9.40002 3.59c2.46002 2.39999 3.69 5.5 3.69 9.31s-1.22998 6.91-3.69 9.29999c-2.46002 2.39999-5.59003 3.59-9.40002 3.59zm-9.58002 103.17999v-90.84h18.97998v90.84h-18.97998zm44.38 36.86002V281.56H1047.75v13.07999h2.94995c2.32996-4.04999 5.87-7.67001 10.58997-10.87 4.72998-3.19 11.52002-4.79001 20.35999-4.79001 7.62 0 14.58997 1.84 20.91003 5.53 6.31995 3.69 11.42004 9 15.29004 15.94 3.87 6.94 5.80005 15.32001 5.80005 25.14999v2.76001c0 9.82999-1.91003 18.20999-5.70996 25.14999-3.81006 6.94-8.91003 12.25-15.29004 15.94-6.39001 3.69-13.39001 5.53-21.01001 5.53-5.90002 0-10.87-.73999-14.92004-2.20999-4.05005-1.47-7.31006-3.35001-9.77002-5.62s-4.42004-4.63-5.90002-7.09h-2.94995v49.20001h-18.97998l.02002-.01001zm46.98999-50.85999c8.34998 0 15.17004-2.64001 20.44995-7.92001 5.28003-5.28 7.92004-12.82999 7.92004-22.66v-1.66c0-9.70001-2.67004-17.19-8.02002-22.48001-5.33997-5.28-12.13-7.92001-20.35999-7.92001s-14.82996 2.64001-20.18005 7.92001c-5.33997 5.28-8.01001 12.78-8.01001 22.48001v1.66c0 9.82999 2.67004 17.38 8.01001 22.66 5.33997 5.29001 12.06995 7.92001 20.18005 7.92001h.01001z"/></g><g id="svg8"><path id="rect223" fill="#d39329" d="M123.596 599.4h1002.212v82.751H123.67l-.074-82.751z"/><g id="text4737" class="cls-3"><path fill="#fff" d="M295.93848 663.07031v-44.70117h46.75928v5.27441h-37.58691v13.84375h32.52832v5.27539h-32.52832v20.30762h-9.17236zm82.78662-21.77148c0-7.41992 3.08887-13.22852 9.2666-17.42676 6.17773-4.19727 14.15234-6.2959 23.92383-6.2959 6.39844 0 12.16602.98633 17.30371 2.95703 5.1377 1.97266 9.05469 4.72168 11.74902 8.24902 2.69531 3.52637 4.04297 7.52637 4.04297 11.99805 0 4.5332-1.41895 8.58887-4.25586 12.16699-2.83594 3.57812-6.85547 6.28613-12.05566 8.12598-5.20117 1.83984-10.81152 2.75977-16.83203 2.75977-6.52441 0-12.35547-1.0166-17.49316-3.0498-5.1377-2.03223-9.03027-4.80664-11.67773-8.32422-2.64746-3.5166-3.97168-7.23633-3.97168-11.16016zm9.45605.0918c0 5.38672 2.24609 9.63086 6.7373 12.73047s10.125 4.64941 16.90234 4.64941c6.90234 0 12.58398-1.56445 17.04395-4.69531 4.45996-3.12988 6.69043-7.57227 6.69043-13.3252 0-3.63867-.9541-6.81543-2.86035-9.5293-1.90723-2.71289-4.69727-4.81738-8.36914-6.31152s-7.79297-2.24121-12.36328-2.24121c-6.49316 0-12.08008 1.43848-16.76074 4.31445-4.68066 2.87695-7.02051 7.67969-7.02051 14.4082zm141.03418-23.02149h9.17188v25.82617c0 4.49316-.78809 8.06055-2.36328 10.70312-1.57715 2.64258-4.4209 4.79199-8.53418 6.44922s-9.51172 2.48535-16.19336 2.48535c-6.49316 0-11.80469-.72266-15.93359-2.16504-4.12891-1.44336-7.07617-3.53223-8.84082-6.2666-1.76562-2.7334-2.64746-6.46875-2.64746-11.20605v-25.82617h9.17188v25.7959c0 3.88281.55957 6.74414 1.67871 8.58398 1.11816 1.83984 3.04102 3.25781 5.76758 4.25293 2.72656.99707 6.05957 1.49414 10 1.49414 6.74414 0 11.55176-.98535 14.41992-2.95703s4.30273-5.76367 4.30273-11.37402v-25.7959zm51.25098 44.70117v-44.70117h9.4082l36.40576 35.0957v-35.0957h8.79395v44.70117h-9.4082l-36.40576-35.12695v35.12695h-8.79395zm96.92334 0v-44.70117h23.87695c5.38965 0 9.50293.21289 12.33984.63965 3.9707.58984 7.35938 1.65723 10.16504 3.20215 3.65625 1.99219 6.38965 4.53809 8.20312 7.6377 1.81152 3.10059 2.71777 6.64258 2.71777 10.62695 0 3.39551-.61426 6.40332-1.84375 9.02539-1.22949 2.62305-2.80566 4.79297-4.72754 6.51074-1.92285 1.71777-4.02734 3.06934-6.31152 4.05469-2.28613.98633-5.04395 1.7334-8.27441 2.24121-3.23145.50879-6.94238.7627-11.13379.7627h-25.01172zm9.17283-5.27539h14.79787c4.57031 0 8.15625-.27441 10.75684-.82324 2.59961-.54883 4.67188-1.32129 6.2168-2.31738 2.1748-1.40234 3.86914-3.28809 5.08301-5.65625 1.21289-2.36816 1.82031-5.23926 1.82031-8.61426 0-4.6748-1.19043-8.26758-3.57031-10.77832s-5.27148-4.19336-8.67578-5.04688c-2.45801-.60938-6.41406-.91504-11.86719-.91504h-14.56154v34.15137zm89.21584 5.27539v-44.70117h9.17188v44.70117h-9.17188zm52.14941 0v-44.70117h9.4082l36.40527 35.0957v-35.0957h8.79395v44.70117h-9.4082l-36.40527-35.12695v35.12695h-8.79395zm129.35645-17.5332v-5.24414l29.36035-.03125v16.58789c-4.50781 2.31738-9.15723 4.06055-13.94727 5.22949-4.79199 1.16895-9.70898 1.75391-14.75195 1.75391-6.80762 0-12.99414-.94043-18.55664-2.82129-5.56348-1.87988-9.76367-4.59863-12.60059-8.15625-2.83594-3.55762-4.25488-7.53125-4.25488-11.92285 0-4.34961 1.41016-8.41016 4.23145-12.18164 2.82031-3.77051 6.87891-6.57031 12.1748-8.40039 5.29492-1.8291 11.39453-2.74414 18.29688-2.74414 5.01172 0 9.54199.52344 13.59277 1.57031 4.0498 1.04688 7.22559 2.50586 9.52734 4.37598 2.2998 1.87012 4.0498 4.30957 5.24805 7.31738l-8.27441 1.46387c-1.04004-2.27637-2.33301-4.06543-3.87695-5.36621-1.54492-1.30078-3.75098-2.34277-6.61914-3.12598-2.86816-.78223-6.05176-1.17383-9.5498-1.17383-4.19238 0-7.81738.41211-10.875 1.23535s-5.52441 1.90527-7.39941 3.24707-3.33301 2.81543-4.37305 4.42188c-1.76562 2.76465-2.64746 5.7627-2.64746 8.99512 0 3.98438 1.06348 7.31738 3.19141 10.00098s5.22461 4.67578 9.29004 5.97656c4.06641 1.30078 8.38477 1.95117 12.95508 1.95117 3.97168 0 7.84863-.49219 11.63086-1.47852 3.78223-.98535 6.64941-2.03809 8.60449-3.15625v-8.32422H957.2842z" class=""/></g></g></svg>