<?xml version="1.0" encoding="UTF-8" standalone="no"?>
<svg
   xmlns:dc="http://purl.org/dc/elements/1.1/"
   xmlns:cc="http://creativecommons.org/ns#"
   xmlns:rdf="http://www.w3.org/1999/02/22-rdf-syntax-ns#"
   xmlns:svg="http://www.w3.org/2000/svg"
   xmlns="http://www.w3.org/2000/svg"
   xmlns:sodipodi="http://sodipodi.sourceforge.net/DTD/sodipodi-0.dtd"
   xmlns:inkscape="http://www.inkscape.org/namespaces/inkscape"
   width="199.76231"
   height="67.734383"
   viewBox="0 0 199.76231 67.734383"
   version="1.1"
   id="svg19"
   sodipodi:docname="St-benedict_logo_from_NCAA.svg"
   inkscape:version="1.0.1 (3bc2e813f5, 2020-09-07)">
  <metadata
     id="metadata25">
    <rdf:RDF>
      <cc:Work
         rdf:about="">
        <dc:format>image/svg+xml</dc:format>
        <dc:type
           rdf:resource="http://purl.org/dc/dcmitype/StillImage" />
      </cc:Work>
    </rdf:RDF>
  </metadata>
  <defs
     id="defs23" />
  <sodipodi:namedview
     pagecolor="#ffffff"
     bordercolor="#666666"
     borderopacity="1"
     objecttolerance="10"
     gridtolerance="10"
     guidetolerance="10"
     inkscape:pageopacity="0"
     inkscape:pageshadow="2"
     inkscape:window-width="747"
     inkscape:window-height="480"
     id="namedview21"
     showgrid="false"
     inkscape:zoom="1.2704305"
     inkscape:cx="100.00004"
     inkscape:cy="33.681753"
     inkscape:window-x="0"
     inkscape:window-y="27"
     inkscape:window-maximized="0"
     inkscape:current-layer="svg19" />
  <!-- Generator: Sketch 54.1 (76490) - https://sketchapp.com -->
  <title
     id="title2">st-benedict</title>
  <desc
     id="desc4">Created with Sketch.</desc>
  <g
     id="g17"
     stroke="none"
     stroke-width="1"
     fill="none"
     fill-rule="evenodd"
     transform="translate(3.6044444e-5,-66.318247)">
    <g
       id="st-benedict_BGL">
      <g
         id="st-benedict"
         transform="translate(0,65)">
        <g
           id="g10"
           transform="matrix(1,0,0,-1,0,69.052631)"
           fill-rule="nonzero">
          <g
             id="g12">
            <polyline
               id="path14"
               fill="#141111"
               points="99.1271905 3.22265781 76.4014893 3.22265781 67.810086 11.9003506 67.810086 59.2362266 76.3123665 67.7343843 98.861401 67.7343843 107.452629 59.2362266 107.452629 44.5583322 90.7184188 42.3225428 90.7184188 53.4196478 84.54184 53.4196478 84.54184 17.5386838 90.8973661 17.5386838 90.8973661 30.5149992 107.72105 32.8402623 107.72105 11.7211401 99.1271905 3.22265781" />
            <polyline
               id="path16"
               fill="#141111"
               points="136.801751 46.2629813 136.801751 53.8657881 130.538593 53.8657881 130.538593 47.7823672 153.622803 34.9852623 153.622803 11.7211401 145.215786 3.22265781 122.12719 3.22265781 113.536839 11.9894734 113.536839 25.0548239 130.449997 27.6521046 130.449997 17.3571048 136.710523 17.3571048 136.710523 25.5029818 113.536839 38.3867534 113.536839 59.1481564 121.857014 67.7343843 145.302628 67.7343843 153.714908 59.5925424 153.714908 48.8538584 136.801751 46.2629813" />
            <path
               d="m 54.641227,67.734384 c 0,0 6.18728,-21.525175 0,-39.785876 C 48.443332,9.6782454 28.69035,0 28.69035,0 c 0,0 -19.7519292,9.6782454 -25.9398676,27.948508 -6.1886665,18.260701 0,39.785876 0,39.785876 H 54.641227"
               id="path18"
               fill="#cf123c" />
            <path
               d="m 28.405964,40.303245 -0.20728,19.057368 h -3.294649 c -0.139737,0 -0.165439,-0.177808 -0.01368,-0.20693 1.636141,-0.38693 1.438158,-1.437106 1.438158,-1.437106 l 0.794211,-15.389999 c 0.07544,-1.122193 -0.340878,-1.43807 -1.371579,-1.357544 l -15.37421,0.790175 c 0,0 -1.0574565,-0.197719 -1.4446495,1.431229 -0.043158,0.166578 -0.2179123,0.131578 -0.2179123,-0.0096 V 39.888595 L 27.800175,39.682367 c 0.307719,0 0.605789,0.154562 0.605789,0.620878"
               id="path20"
               fill="#ffffff" />
            <path
               d="M 48.467279,43.190438 C 48.080086,41.560087 47.018946,41.759209 47.018946,41.759209 L 31.63035,40.969034 c -1.02386,-0.08053 -1.429912,0.235351 -1.352807,1.357544 l 0.785702,15.389999 c 0,0 -0.199737,1.050176 1.438158,1.437106 0.164473,0.02912 0.114737,0.20693 -0.01544,0.20693 H 29.192368 L 28.978859,40.303245 c 0,-0.466316 0.306052,-0.620878 0.600702,-0.620878 l 19.087543,0.206228 v 3.292281 c 0,0.14114 -0.174737,0.17614 -0.199825,0.0096"
               id="path22"
               fill="#ffffff" />
            <path
               d="m 28.978859,38.337806 0.213509,-18.927543 h -0.993684 l 0.20728,18.927543 c 0,0.459123 -0.29807,0.622281 -0.605789,0.622281 L 8.7143682,38.746578 v -3.295 c 0,-0.138772 0.1747544,-0.161667 0.2179123,-0.0157 0.387193,1.647807 1.4446495,1.448684 1.4446495,1.448684 l 15.37421,0.784386 c 1.030701,0.07947 1.447017,-0.232719 1.371579,-1.356228 L 26.328508,20.91728 c 0,0 0.199737,-1.056403 -1.438158,-1.440175 -0.150789,-0.02298 -0.126052,-0.205614 0.01368,-0.205614 h 3.087368 l 0.655087,-9.149474 0.660702,9.149474 h 3.178772 c 0.130176,0 0.179912,0.182631 0.01544,0.205614 -1.637895,0.383772 -1.438158,1.440175 -1.438158,1.440175 l -0.785702,15.395438 c -0.07711,1.123509 0.328947,1.435702 1.352807,1.356228 l 15.3886,-0.784386 c 0,0 1.06114,0.199123 1.448333,-1.448684 0.02509,-0.145965 0.201492,-0.12307 0.201492,0.0157 v 3.295 l -19.087456,0.213509 c -0.296404,0 -0.602456,-0.163158 -0.602456,-0.622281"
               id="path24"
               fill="#ffffff" />
            <path
               d="m 183.53245,28.942192 h -8.07807 V 17.358157 h 8.07807 z m -0.2693,24.516579 h -7.80877 V 42.950964 h 7.80877 z M 190.95789,2.9941052 H 159.35438 V 67.734384 h 31.78684 l 8.43948,-8.53035 V 42.95228 l -6.73421,-6.914035 6.91579,-6.824649 V 11.524473 Z"
               id="path26"
               fill="#141111" />
          </g>
        </g>
      </g>
    </g>
  </g>
</svg>
