<svg xmlns="http://www.w3.org/2000/svg" role="img" viewBox="102.96 169.96 1042.08 532.08"><defs><style>.cls-4{isolation:isolate}</style></defs><path id="rect223" fill="#d39329" d="M123.596 599.4h1002.212v82.751H123.67l-.074-82.751z"/><g id="text4737" class="cls-4"><path fill="#fff" d="M295.93848 663.07031v-44.70117h46.75928v5.27441h-37.58691v13.84375h32.52832v5.27539h-32.52832v20.30762h-9.17236zm82.78662-21.77148c0-7.41992 3.08887-13.22852 9.2666-17.42676 6.17773-4.19727 14.15234-6.2959 23.92383-6.2959 6.39844 0 12.16602.98633 17.30371 2.95703 5.1377 1.97266 9.05469 4.72168 11.74902 8.24902 2.69531 3.52637 4.04297 7.52637 4.04297 11.99805 0 4.5332-1.41895 8.58887-4.25586 12.16699-2.83594 3.57812-6.85547 6.28613-12.05566 8.12598-5.20117 1.83984-10.81152 2.75977-16.83203 2.75977-6.52441 0-12.35547-1.0166-17.49316-3.0498-5.1377-2.03223-9.03027-4.80664-11.67773-8.32422-2.64746-3.5166-3.97168-7.23633-3.97168-11.16016zm9.45605.0918c0 5.38672 2.24609 9.63086 6.7373 12.73047s10.125 4.64941 16.90234 4.64941c6.90234 0 12.58398-1.56445 17.04395-4.69531 4.45996-3.12988 6.69043-7.57227 6.69043-13.3252 0-3.63867-.9541-6.81543-2.86035-9.5293-1.90723-2.71289-4.69727-4.81738-8.36914-6.31152s-7.79297-2.24121-12.36328-2.24121c-6.49316 0-12.08008 1.43848-16.76074 4.31445-4.68066 2.87695-7.02051 7.67969-7.02051 14.4082zm141.03418-23.02149h9.17188v25.82617c0 4.49316-.78809 8.06055-2.36328 10.70312-1.57715 2.64258-4.4209 4.79199-8.53418 6.44922s-9.51172 2.48535-16.19336 2.48535c-6.49316 0-11.80469-.72266-15.93359-2.16504-4.12891-1.44336-7.07617-3.53223-8.84082-6.2666-1.76562-2.7334-2.64746-6.46875-2.64746-11.20605v-25.82617h9.17188v25.7959c0 3.88281.55957 6.74414 1.67871 8.58398 1.11816 1.83984 3.04102 3.25781 5.76758 4.25293 2.72656.99707 6.05957 1.49414 10 1.49414 6.74414 0 11.55176-.98535 14.41992-2.95703s4.30273-5.76367 4.30273-11.37402v-25.7959zm51.25098 44.70117v-44.70117h9.4082l36.40576 35.0957v-35.0957h8.79395v44.70117h-9.4082l-36.40576-35.12695v35.12695h-8.79395zm96.92334 0v-44.70117h23.87695c5.38965 0 9.50293.21289 12.33984.63965 3.9707.58984 7.35938 1.65723 10.16504 3.20215 3.65625 1.99219 6.38965 4.53809 8.20312 7.6377 1.81152 3.10059 2.71777 6.64258 2.71777 10.62695 0 3.39551-.61426 6.40332-1.84375 9.02539-1.22949 2.62305-2.80566 4.79297-4.72754 6.51074-1.92285 1.71777-4.02734 3.06934-6.31152 4.05469-2.28613.98633-5.04395 1.7334-8.27441 2.24121-3.23145.50879-6.94238.7627-11.13379.7627h-25.01172zm9.17283-5.27539h14.79787c4.57031 0 8.15625-.27441 10.75684-.82324 2.59961-.54883 4.67188-1.32129 6.2168-2.31738 2.1748-1.40234 3.86914-3.28809 5.08301-5.65625 1.21289-2.36816 1.82031-5.23926 1.82031-8.61426 0-4.6748-1.19043-8.26758-3.57031-10.77832s-5.27148-4.19336-8.67578-5.04688c-2.45801-.60938-6.41406-.91504-11.86719-.91504h-14.56154v34.15137zm89.21584 5.27539v-44.70117h9.17188v44.70117h-9.17188zm52.14941 0v-44.70117h9.4082l36.40527 35.0957v-35.0957h8.79395v44.70117h-9.4082l-36.40527-35.12695v35.12695h-8.79395zm129.35645-17.5332v-5.24414l29.36035-.03125v16.58789c-4.50781 2.31738-9.15723 4.06055-13.94727 5.22949-4.79199 1.16895-9.70898 1.75391-14.75195 1.75391-6.80762 0-12.99414-.94043-18.55664-2.82129-5.56348-1.87988-9.76367-4.59863-12.60059-8.15625-2.83594-3.55762-4.25488-7.53125-4.25488-11.92285 0-4.34961 1.41016-8.41016 4.23145-12.18164 2.82031-3.77051 6.87891-6.57031 12.1748-8.40039 5.29492-1.8291 11.39453-2.74414 18.29688-2.74414 5.01172 0 9.54199.52344 13.59277 1.57031 4.0498 1.04688 7.22559 2.50586 9.52734 4.37598 2.2998 1.87012 4.0498 4.30957 5.24805 7.31738l-8.27441 1.46387c-1.04004-2.27637-2.33301-4.06543-3.87695-5.36621-1.54492-1.30078-3.75098-2.34277-6.61914-3.12598-2.86816-.78223-6.05176-1.17383-9.5498-1.17383-4.19238 0-7.81738.41211-10.875 1.23535s-5.52441 1.90527-7.39941 3.24707-3.33301 2.81543-4.37305 4.42188c-1.76562 2.76465-2.64746 5.7627-2.64746 8.99512 0 3.98438 1.06348 7.31738 3.19141 10.00098s5.22461 4.67578 9.29004 5.97656c4.06641 1.30078 8.38477 1.95117 12.95508 1.95117 3.97168 0 7.84863-.49219 11.63086-1.47852 3.78223-.98535 6.64941-2.03809 8.60449-3.15625v-8.32422H957.2842z" class=""/></g><path fill="#892121" d="M675.31603 190.76766c-.48679.36507-.85184 9.1267-.85184 19.34861v18.61848l-8.76165.36507-8.88331.36507v35.28992l8.51826.60845 8.51826.60845.60845 39.54904c.48679 28.47531 1.09523 40.2792 2.19039 42.22622.73011 1.46027 1.46029 3.77238 1.46029 5.23265 0 2.55548 2.55545 9.49178 4.98924 13.38583.60845.97352 1.58195 3.04223 2.31213 4.5025 1.33855 3.28561 13.75089 15.81962 18.86186 19.22693 7.30136 4.98927 20.4438 10.3436 24.82467 10.3436 2.92058 0 4.01574-.85182 6.20613-5.23265 1.46029-2.79886 4.25913-7.90981 6.20613-11.19542 2.06873-3.40731 4.38079-7.78811 5.35436-9.97853.9735-2.06872 2.31213-4.13743 3.04223-4.6242.60845-.36507 1.21689-1.46027 1.21689-2.31209 0-1.0952-2.55545-1.82534-7.66642-2.43379-13.50749-1.33859-21.4173-6.93629-26.52827-18.37511-2.43379-5.59772-2.67718-8.63995-3.28563-39.0623-.24339-18.13171-.24339-35.04655.24339-37.35864l.85184-4.38082 15.45457-.36507 15.45457-.36507.36505-16.91483c.24339-12.77739-.12166-17.1582-1.21689-18.01003-.85184-.48676-7.90981-.97352-15.69796-.97352-12.41233 0-14.35933-.24338-15.08951-2.19041-.36505-1.09521-.73011-8.88333-.60845-17.27989.12166-8.39657.12166-16.18469.12166-17.40158-.12166-1.82534-1.82534-2.06872-18.7402-2.06872-10.3436 0-19.10525.36507-19.4703.85183l.00007.00002zm330.14331 34.31641c-12.41233 1.21689-22.6342 5.11095-31.63924 12.29063-7.78815 6.08447-10.46526 9.37008-14.60273 18.01003-3.28563 6.8146-3.65068 8.63995-3.52902 19.4703 0 8.15319.60845 13.38583 2.06873 16.79314 2.06873 5.23265 9.1267 13.50753 15.57623 18.49678 5.84108 4.5025 21.17398 11.31712 30.90914 13.62921 6.69292 1.58197 20.80886 6.69292 26.16322 9.49178 9.00504 4.6242 12.41233 12.16894 10.22194 22.39084-2.19039 9.73515-12.04728 15.57625-26.52827 15.57625-14.72439 0-23.97283-6.20617-27.38011-18.25341-1.09523-4.01575-2.43379-7.42306-2.92058-7.78811-1.46029-.85182-33.46458 13.26414-34.80314 15.45455-.9735 1.46027-.73011 3.16393 1.09523 6.57122 7.30136 13.99428 14.72439 21.29564 27.98856 27.62349 2.67718 1.21689 5.84108 2.79886 7.05797 3.40731 10.46526 5.23265 48.79742 5.11095 58.8977 0 1.21689-.60845 4.74592-2.31209 7.90981-3.77238 6.32786-2.92054 18.13175-14.11598 21.05225-19.95705 4.62418-9.00501 5.84108-14.8461 5.71942-27.25842-.12166-6.81461-.60845-13.38583-1.21689-14.60273s-2.19039-4.38083-3.40729-7.05799c-3.52902-7.30136-15.08951-18.01003-24.94633-22.99929-4.74592-2.43379-9.3701-4.38083-10.22194-4.38083-.9735 0-3.52902-.73014-5.71942-1.70364-2.19039-.85182-6.69292-2.43379-10.1002-3.52898-18.7402-5.59772-20.80886-6.44954-25.79817-11.31712-5.84108-5.59772-6.57126-9.1267-3.04223-14.9678 4.98924-8.15319 14.23767-11.31712 27.25845-9.37008 6.20613.97352 13.62923 6.8146 14.84612 11.92556 1.09523 4.5025 2.92058 4.38083 15.45457-.97352 16.18467-6.8146 20.32214-8.88333 21.05225-10.10022 1.33855-2.06872-1.46029-7.05799-8.27486-14.35935-13.50749-14.60273-33.95137-21.05227-59.14102-18.74017h-.00015zm-768.46852 1.94703c-2.67716.97352-5.59772 1.82534-6.32784 1.82534-3.16393 0-18.25341 7.90981-25.3114 13.14246-20.44382 15.33286-32.00431 34.92485-36.02006 60.72302-2.67716 17.64496 2.3121 40.1575 12.29063 55.73375 1.33858 1.94704 2.79886 4.5025 3.28561 5.47602.48676.97352 3.04223 4.25913 5.7194 7.17967 4.74589 5.11095 6.08447 6.44954 14.11598 13.50753 3.52898 3.16393 17.40159 10.4653 26.16322 13.75091 7.05799 2.79886 14.35935 3.77238 27.38011 3.77238 25.06802 0 42.10454-6.44954 58.53261-22.26916 8.51826-8.15319 21.78239-25.79815 21.78239-28.96208 0-.73014.85182-1.94704 1.82534-2.79886s1.82534-2.55548 1.82534-3.77238c0-1.33859.48675-2.31209 1.0952-2.31209s1.58197-1.21689 1.94704-2.79886c.48675-1.46027 2.43379-6.20617 4.5025-10.58697 2.06872-4.38083 4.5025-9.61345 5.35434-11.56049.85184-2.06872 4.38083-9.73515 7.90981-17.03651 12.16894-25.3114 27.74517-36.50682 53.17828-37.96709 9.1267-.60845 16.06301.97352 27.01506 6.08447 7.05797 3.28561 18.13171 14.60273 21.6607 22.14747 1.58195 3.40731 3.40729 7.05799 4.01574 8.27488 2.06873 3.77238 1.58195 28.11026-.48675 32.12599-.9735 1.82534-3.04223 6.08447-4.62418 9.2484-3.52898 7.30136-14.96778 18.13171-22.75593 21.53902-9.00501 4.01575-22.99929 5.7194-32.12599 3.77238-8.88331-1.82534-21.6607-9.61345-28.11026-17.27989-3.89408-4.5025-4.25913-4.6242-6.08447-2.55548-.9735 1.0952-2.43379 3.40731-3.16393 5.11095s-2.55548 4.98927-3.89408 7.30136c-1.46029 2.31209-3.77238 6.44954-5.11097 9.1267-1.46029 2.67716-3.40729 5.84109-4.50252 7.17967-1.70364 2.06872-1.33859 2.67716 4.38083 7.90981 7.17967 6.57122 26.04152 16.42807 35.77667 18.61848 7.30136 1.70364 30.30065 1.94704 38.94061.48675 11.19544-1.82534 30.05729-10.83035 39.30566-18.86186 6.44952-5.35433 19.10525-19.4703 19.10525-21.17395 0-.48675 1.33859-3.04223 3.04223-5.59772 1.58195-2.67716 3.28563-6.32784 3.77238-8.27488.48675-1.82534 1.33859-4.01575 1.94704-4.86758.60845-.73014 1.70364-4.6242 2.31209-8.51826s1.58195-9.85685 2.19039-13.14246c.9735-5.7194.73014-9.37008-2.31209-26.77167-1.33859-7.42306-3.89408-14.8461-7.17967-20.20045-1.46029-2.31209-2.92054-4.98926-3.40729-5.96278-1.82534-4.25913-11.68219-15.81962-17.88836-21.41733-7.17967-6.32784-26.40661-17.27989-30.54405-17.52327-1.33859 0-4.62418-.85182-7.30136-1.82534-5.84108-2.06872-35.16823-2.43379-42.59129-.48676-2.67718.60845-6.93631 1.70365-9.49176 2.43379-2.55548.60845-5.47602 1.58197-6.69292 2.19041-1.0952.60845-4.25913 2.06872-6.93631 3.28561-12.29064 5.7194-27.25842 19.34862-36.38512 33.22121-5.35433 8.03151-17.76666 32.61276-17.76666 35.04655 0 .73014-.73014 2.92054-1.70364 4.86758-.97352 1.82534-4.13743 8.27488-6.93629 14.11598s-7.78811 14.23766-11.07374 18.61848c-6.08447 8.03151-17.52327 18.01003-22.87761 20.07875-1.70364.60845-4.01575 1.70364-5.23265 2.43379-3.77238 2.06872-26.64997 1.70364-31.0308-.60845-2.06872-1.0952-4.38083-1.94704-5.23265-1.94704-.73014 0-3.65068-1.70364-6.44954-3.77238-9.97853-7.66644-17.88834-17.88834-19.4703-25.1897-.48675-2.06872-1.46027-4.13743-2.06872-4.5025-.60845-.48675-1.0952-6.08447-1.0952-12.53401 0-19.592 6.69292-32.97783 22.39084-44.66 9.1267-6.93629 20.6872-9.61346 36.02007-8.39657 5.7194.36507 11.92556 1.58197 13.75091 2.55548 4.13743 2.06872 6.57122 1.46027 8.15319-2.3121.73014-1.58197 2.31209-4.5025 3.65068-6.44954 1.21689-2.06872 3.52898-6.08447 5.11095-9.1267s3.52898-6.20616 4.38083-7.05799c3.77238-4.01575.24338-7.78812-9.49178-9.97853-2.31209-.60845-6.44954-1.58197-9.1267-2.3121-7.54474-1.94703-39.18398-1.58197-45.02508.48676h.00004zm297.04382 3.28561c-.24339.85182-.36505 39.06229-.24339 84.9392l.1217 83.35723 18.98355.36507 19.10525.24338.73014-2.92054c.36505-1.70364.73014-25.1897.73014-52.32644-.1217-36.62851.24339-50.74447 1.46029-54.51685 1.0952-3.52898 3.89408-7.54474 8.88331-12.53401 9.1267-9.1267 15.94132-11.56049 31.88264-11.56049h11.07374l.48675-16.79314c.60845-20.80888.73014-20.6872-11.4388-18.74017-12.29064 1.94703-19.95705 3.65068-22.51254 4.86758-1.21689.60845-4.62418 2.3121-7.66642 3.77237s-6.44952 3.28561-7.54476 4.13744c-3.16393 2.19041-4.98927-.36507-5.11097-7.30136l-.1217-5.84109-19.22691-.36507c-14.72442-.24338-19.22691 0-19.592 1.21689h-.00004zm249.2199.36507c-.36505.97352-.48679 27.13674-.24339 58.04584.48679 49.64928.85184 57.19401 2.67718 63.03511 7.78815 23.97281 20.32214 38.21046 40.88761 45.99859 14.96778 5.7194 46.48536 5.84109 57.43741.1217 1.46029-.85182 3.65068-1.94704 4.62418-2.55548.9735-.48675 3.16389-1.58197 4.74592-2.19041 4.13747-1.82534 20.32214-18.49678 21.4173-22.02579.48679-1.58197 1.46029-3.65068 2.19039-4.6242 2.06873-2.43379 4.62418-9.73515 5.84108-16.54976 3.04223-15.81962 3.52902-27.50181 3.28563-72.28351l-.36505-48.189h-38.94061l-.60845 56.5856c-.48679 44.41663-.9735 57.55909-2.43379 61.20977-.85184 2.55548-4.38079 7.30136-7.66642 10.58697-6.93631 6.93629-11.19544 8.03151-25.91983 6.93629-10.3436-.73014-17.15817-4.5025-22.39088-12.29064-6.08447-8.88333-6.69292-14.9678-6.69292-71.30997V229.4649l-18.61846-.36507c-15.57623-.24338-18.61846 0-19.22691 1.58197z"/></svg>