<svg xmlns="http://www.w3.org/2000/svg" role="img" viewBox="-4.31 -4.31 211.38 55.88"><defs id="defs2"><path id="rect291" d="M154.661 390.204H936.162V603.887H154.661z"/><path id="rect285" d="M148.103 429.552H714.828V454.69100000000003H148.103z"/><path id="rect279" d="M81.976 90.173H1011.033V289.647H81.976z"/><style id="style32" type="text/css">.str0{stroke:#9c2c19;stroke-width:105.8}.fil0{fill:#9c2c19;fill-rule:nonzero}</style></defs><g id="layer1" transform="translate(-40.022 -104.588)"><g id="g65" fill-rule="evenodd" clip-rule="evenodd" image-rendering="optimizeQuality" shape-rendering="geometricPrecision" text-rendering="geometricPrecision" transform="translate(34.49 97.721) scale(.00102)"><g id="Layer_x0020_1"><g id="_767882512"><path id="path37" d="m 170098,15375 h -7662 l -32,20482 c 0,3233 -576,5527 -1762,7015 -1362,1537 -2455,2279 -4925,2279 -2632,4 -4586,-773 -5944,-2306 -1160,-1458 -1733,-3750 -1733,-6984 0,-16 29,-20482 29,-20482 h -8415 l -33,20540 c 0,5044 1108,8964 3294,11652 1665,2086 5530,5592 12664,5592 7473,-3 10498,-3783 11953,-5600 2180,-2682 3286,-6601 3286,-11647 0,-13 34,-20541 34,-20541 h -537 z" class="fil0 str0"/><path id="path39" d="m 93854,18865 c 0,-1163 0,-3688 0,-3688 h -536 -8000 l -9,37200 h 8538 l 7,-21938 c 0,-1943 526,-2914 1782,-4486 2826,-2821 4986,-2800 7974,-2769 l 1063,6 997,-1 77,-7765 -756,-3 c -4307,-20 -8027,1176 -11137,3444 z" class="fil0 str0"/><path id="polygon41" d="M104991 15421L104989 15421z" class="fil0 str0"/><path id="path43" d="m 60299,14301 c -14937,0 -19669,11976 -21944,17731 l -162,409 c -3303,8323 -7786,12542 -13323,12542 -6010,0 -11087,-5175 -11087,-11301 0,-6891 5579,-11519 10791,-11519 2341,-75 4280,214 5946,884 l 436,176 3919,-6967 -543,-238 c -2713,-1192 -5828,-1753 -9523,-1717 -10471,0 -19323,8831 -19323,19283 0,10610 8918,19573 19475,19573 12695,0 17273,-9973 20009,-15932 l 571,-1232 1042,-2356 c 2250,-5255 4800,-11211 13595,-11211 6257,0 11348,5091 11348,11349 0,6352 -5036,11520 -11227,11520 -3250,368 -7072,-2071 -9051,-4552 l -501,-629 -4157,7543 309,285 c 3798,3505 9084,5551 13464,5212 5189,2 10104,-2032 13801,-5729 3649,-3648 5658,-8479 5658,-13600 0,-10766 -8758,-19524 -19523,-19524 z" class="fil0 str0"/><path id="path45" d="m 126246,42708 c -1187,-1490 -1774,-3825 -1774,-7117 0,0 3,-10027 3,-12437 915,0 6962,0 6962,0 v -7737 c 0,0 -6044,0 -6959,0 2,-944 2,-8620 2,-8620 h -536 -7863 c 0,0 -37,7681 -43,8620 -809,0 -4125,0 -4125,0 v 7737 c 0,0 3276,0 4090,0 -6,991 -67,12491 -67,12491 0,5134 1124,9120 3343,11850 1220,1528 3999,4250 8858,5269 l 386,81 4338,-7780 c 0,0 -1298,-33 -1325,-33 -2250,-122 -4031,-903 -5290,-2324 z" class="fil0 str0"/><path id="path47" stroke="#9c2c19" stroke-width="112.9" d="m 191652,29160 -4,-1 c -3167,-861 -6261,-1904 -6261,-4314 0,-1428 1361,-3694 5011,-3694 673,0 4065,160 4809,3320 l 147,622 7936,-3404 -228,-500 c -566,-1240 -1358,-2334 -2352,-3252 -2492,-2310 -6165,-3636 -10077,-3636 -9249,0 -13460,5694 -13460,10983 0,7535 7453,9653 11906,10918 0,1 1051,349 1051,349 3558,1152 6074,2192 6074,5104 0,3029 -2187,4697 -6159,4697 -2166,0 -5840,-686 -6115,-5284 l -47,-764 -8177,3534 129,454 c 541,1883 1524,3508 2922,4830 2662,2518 6989,4081 11288,4081 4698,0 8530,-1312 11083,-3795 2195,-2136 3333,-4996 3287,-8274 0,-8465 -8620,-10835 -12763,-11974 z" class="fil0"/></g></g></g></g></svg>