<svg xmlns="http://www.w3.org/2000/svg" role="img" viewBox="90.04 47.04 777.92 203.92"><path d="M521.7 62.7c-.4.3-.7 7.5-.7 15.9v15.3l-7.2.3-7.3.3v29l7 .5 7 .5.5 32.5c.4 23.4.9 33.1 1.8 34.7.6 1.2 1.2 3.1 1.2 4.3 0 2.1 2.1 7.8 4.1 11 .5.8 1.3 2.5 1.9 3.7 1.1 2.7 11.3 13 15.5 15.8 6 4.1 16.8 8.5 20.4 8.5 2.4 0 3.3-.7 5.1-4.3 1.2-2.3 3.5-6.5 5.1-9.2 1.7-2.8 3.6-6.4 4.4-8.2.8-1.7 1.9-3.4 2.5-3.8.5-.3 1-1.2 1-1.9 0-.9-2.1-1.5-6.3-2-11.1-1.1-17.6-5.7-21.8-15.1-2-4.6-2.2-7.1-2.7-32.1-.2-14.9-.2-28.8.2-30.7l.7-3.6 12.7-.3 12.7-.3.3-13.9c.2-10.5-.1-14.1-1-14.8-.7-.4-6.5-.8-12.9-.8-10.2 0-11.8-.2-12.4-1.8-.3-.9-.6-7.3-.5-14.2.1-6.9.1-13.3.1-14.3-.1-1.5-1.5-1.7-15.4-1.7-8.5 0-15.7.3-16 .7zM793 90.9c-10.2 1-18.6 4.2-26 10.1-6.4 5-8.6 7.7-12 14.8-2.7 5.6-3 7.1-2.9 16 0 6.7.5 11 1.7 13.8 1.7 4.3 7.5 11.1 12.8 15.2 4.8 3.7 17.4 9.3 25.4 11.2 5.5 1.3 17.1 5.5 21.5 7.8 7.4 3.8 10.2 10 8.4 18.4-1.8 8-9.9 12.8-21.8 12.8-12.1 0-19.7-5.1-22.5-15-.9-3.3-2-6.1-2.4-6.4-1.2-.7-27.5 10.9-28.6 12.7-.8 1.2-.6 2.6.9 5.4 6 11.5 12.1 17.5 23 22.7 2.2 1 4.8 2.3 5.8 2.8 8.6 4.3 40.1 4.2 48.4 0 1-.5 3.9-1.9 6.5-3.1 5.2-2.4 14.9-11.6 17.3-16.4 3.8-7.4 4.8-12.2 4.7-22.4-.1-5.6-.5-11-1-12s-1.8-3.6-2.8-5.8c-2.9-6-12.4-14.8-20.5-18.9-3.9-2-7.7-3.6-8.4-3.6-.8 0-2.9-.6-4.7-1.4-1.8-.7-5.5-2-8.3-2.9-15.4-4.6-17.1-5.3-21.2-9.3-4.8-4.6-5.4-7.5-2.5-12.3 4.1-6.7 11.7-9.3 22.4-7.7 5.1.8 11.2 5.6 12.2 9.8.9 3.7 2.4 3.6 12.7-.8 13.3-5.6 16.7-7.3 17.3-8.3 1.1-1.7-1.2-5.8-6.8-11.8-11.1-12-27.9-17.3-48.6-15.4zm-631.5 1.6c-2.2.8-4.6 1.5-5.2 1.5-2.6 0-15 6.5-20.8 10.8-16.8 12.6-26.3 28.7-29.6 49.9-2.2 14.5 1.9 33 10.1 45.8 1.1 1.6 2.3 3.7 2.7 4.5.4.8 2.5 3.5 4.7 5.9 3.9 4.2 5 5.3 11.6 11.1 2.9 2.6 14.3 8.6 21.5 11.3 5.8 2.3 11.8 3.1 22.5 3.1 20.6 0 34.6-5.3 48.1-18.3 7-6.7 17.9-21.2 17.9-23.8 0-.6.7-1.6 1.5-2.3.8-.7 1.5-2.1 1.5-3.1 0-1.1.4-1.9.9-1.9s1.3-1 1.6-2.3c.4-1.2 2-5.1 3.7-8.7 1.7-3.6 3.7-7.9 4.4-9.5.7-1.7 3.6-8 6.5-14 10-20.8 22.8-30 43.7-31.2 7.5-.5 13.2.8 22.2 5 5.8 2.7 14.9 12 17.8 18.2 1.3 2.8 2.8 5.8 3.3 6.8 1.7 3.1 1.3 23.1-.4 26.4-.8 1.5-2.5 5-3.8 7.6-2.9 6-12.3 14.9-18.7 17.7-7.4 3.3-18.9 4.7-26.4 3.1-7.3-1.5-17.8-7.9-23.1-14.2-3.2-3.7-3.5-3.8-5-2.1-.8.9-2 2.8-2.6 4.2-.6 1.4-2.1 4.1-3.2 6-1.2 1.9-3.1 5.3-4.2 7.5-1.2 2.2-2.8 4.8-3.7 5.9-1.4 1.7-1.1 2.2 3.6 6.5 5.9 5.4 21.4 13.5 29.4 15.3 6 1.4 24.9 1.6 32 .4 9.2-1.5 24.7-8.9 32.3-15.5 5.3-4.4 15.7-16 15.7-17.4 0-.4 1.1-2.5 2.5-4.6 1.3-2.2 2.7-5.2 3.1-6.8.4-1.5 1.1-3.3 1.6-4 .5-.6 1.4-3.8 1.9-7s1.3-8.1 1.8-10.8c.8-4.7.6-7.7-1.9-22-1.1-6.1-3.2-12.2-5.9-16.6-1.2-1.9-2.4-4.1-2.8-4.9-1.5-3.5-9.6-13-14.7-17.6-5.9-5.2-21.7-14.2-25.1-14.4-1.1 0-3.8-.7-6-1.5-4.8-1.7-28.9-2-35-.4-2.2.5-5.7 1.4-7.8 2-2.1.5-4.5 1.3-5.5 1.8-.9.5-3.5 1.7-5.7 2.7-10.1 4.7-22.4 15.9-29.9 27.3-4.4 6.6-14.6 26.8-14.6 28.8 0 .6-.6 2.4-1.4 4-.8 1.5-3.4 6.8-5.7 11.6-2.3 4.8-6.4 11.7-9.1 15.3-5 6.6-14.4 14.8-18.8 16.5-1.4.5-3.3 1.4-4.3 2-3.1 1.7-21.9 1.4-25.5-.5-1.7-.9-3.6-1.6-4.3-1.6-.6 0-3-1.4-5.3-3.1-8.2-6.3-14.7-14.7-16-20.7-.4-1.7-1.2-3.4-1.7-3.7-.5-.4-.9-5-.9-10.3 0-16.1 5.5-27.1 18.4-36.7 7.5-5.7 17-7.9 29.6-6.9 4.7.3 9.8 1.3 11.3 2.1 3.4 1.7 5.4 1.2 6.7-1.9.6-1.3 1.9-3.7 3-5.3 1-1.7 2.9-5 4.2-7.5 1.3-2.5 2.9-5.1 3.6-5.8 3.1-3.3.2-6.4-7.8-8.2-1.9-.5-5.3-1.3-7.5-1.9-6.2-1.6-32.2-1.3-37 .4zm244.1 2.7c-.2.7-.3 32.1-.2 69.8l.1 68.5 15.6.3 15.7.2.6-2.4c.3-1.4.6-20.7.6-43-.1-30.1.2-41.7 1.2-44.8.9-2.9 3.2-6.2 7.3-10.3 7.5-7.5 13.1-9.5 26.2-9.5h9.1l.4-13.8c.5-17.1.6-17-9.4-15.4-10.1 1.6-16.4 3-18.5 4-1 .5-3.8 1.9-6.3 3.1-2.5 1.2-5.3 2.7-6.2 3.4-2.6 1.8-4.1-.3-4.2-6l-.1-4.8-15.8-.3c-12.1-.2-15.8 0-16.1 1zm204.8.3c-.3.8-.4 22.3-.2 47.7.4 40.8.7 47 2.2 51.8 6.4 19.7 16.7 31.4 33.6 37.8 12.3 4.7 38.2 4.8 47.2.1 1.2-.7 3-1.6 3.8-2.1.8-.4 2.6-1.3 3.9-1.8 3.4-1.5 16.7-15.2 17.6-18.1.4-1.3 1.2-3 1.8-3.8 1.7-2 3.8-8 4.8-13.6 2.5-13 2.9-22.6 2.7-59.4l-.3-39.6h-32L695 141c-.4 36.5-.8 47.3-2 50.3-.7 2.1-3.6 6-6.3 8.7-5.7 5.7-9.2 6.6-21.3 5.7-8.5-.6-14.1-3.7-18.4-10.1-5-7.3-5.5-12.3-5.5-58.6V94.5l-15.3-.3c-12.8-.2-15.3 0-15.8 1.3z" fill="#a11b1b"/></svg>