<svg version="1.1" id="Layer_1" xmlns="http://www.w3.org/2000/svg" xmlns:xlink="http://www.w3.org/1999/xlink" x="0px" y="0px"
	 width="100%" viewBox="0 0 1381 489" enable-background="new 0 0 1381 489" xml:space="preserve">
<path fill="#FEFFFF" opacity="1.000000" stroke="none" 
	d="
M1085.000000,490.000000 
	C723.333374,490.000000 362.166718,490.000000 1.000049,490.000000 
	C1.000032,327.000031 1.000032,164.000061 1.000016,1.000070 
	C461.333282,1.000047 921.666565,1.000047 1382.000000,1.000023 
	C1382.000000,163.999924 1382.000000,326.999847 1382.000000,489.999878 
	C1283.166626,490.000000 1184.333374,490.000000 1085.000000,490.000000 
M745.580627,165.023712 
	C731.686401,159.669189 717.781921,154.341156 703.901123,148.952042 
	C692.096558,144.369019 680.053528,140.287964 668.590454,134.963394 
	C649.929321,126.295372 650.394592,105.128372 662.281921,94.094749 
	C669.340637,87.542938 677.917786,84.904831 686.893921,84.149261 
	C707.875183,82.383133 726.426331,88.571762 741.768005,103.318710 
	C748.180969,109.483162 748.114563,109.614403 754.186462,103.306198 
	C767.848389,89.112526 781.476379,74.886269 795.234863,60.551746 
	C780.685791,47.055046 764.057556,38.030891 745.586609,31.684816 
	C729.549072,26.174780 713.144348,23.475861 696.412170,23.206352 
	C686.848206,23.052305 677.207153,24.686277 667.676941,26.048431 
	C647.072449,28.993460 628.221130,36.070286 611.852478,49.482655 
	C599.061035,59.963890 589.615723,72.629753 584.412109,88.225960 
	C580.519470,99.892662 580.701050,112.097206 580.929565,124.289009 
	C581.218384,139.701096 586.264954,153.350571 594.055725,165.947876 
	C575.704529,166.295990 557.353394,166.644119 539.007324,166.226074 
	C545.223267,153.650330 547.503540,140.109100 547.846863,126.319077 
	C548.037170,118.678619 546.949097,110.960983 545.939026,103.344215 
	C542.483948,77.290863 528.145386,58.649994 505.538757,46.263477 
	C486.107178,35.616642 464.637573,31.628485 442.881012,31.210987 
	C403.420135,30.453756 363.934357,30.995008 324.458954,31.008608 
	C323.026123,31.009100 321.593353,31.161198 319.925781,31.255985 
	C319.925781,77.074791 319.925781,122.528206 318.997711,167.984009 
	C290.086792,167.984009 261.175842,167.984009 232.172028,167.984009 
	C225.292664,136.020340 198.765747,122.050789 173.994583,124.132698 
	C148.251297,126.296303 128.133881,145.642761 125.153381,170.058014 
	C121.544884,199.617477 137.018341,220.864532 160.520081,229.338821 
	C174.298599,234.307083 188.431732,233.579575 201.629974,227.589066 
	C215.840347,221.139206 225.444290,209.756500 231.032120,194.044952 
	C260.759186,194.044952 290.351624,194.044952 319.983337,194.975967 
	C319.983337,239.875305 319.983337,284.774658 319.983337,329.781494 
	C344.862366,329.781494 369.249664,329.781494 394.191895,329.781494 
	C394.191895,292.400543 394.191895,255.235550 394.191895,216.999359 
	C411.317383,216.999359 427.910522,217.513153 444.451874,216.809662 
	C454.628052,216.376877 464.882751,214.766342 474.821411,212.469528 
	C490.425568,208.863434 504.857361,202.237930 518.640869,192.876511 
	C540.814331,192.587357 562.987427,192.259766 585.161438,192.022949 
	C599.258850,191.872375 613.357788,191.856598 628.253601,191.931992 
	C637.481384,195.629120 646.655701,199.467087 655.949280,202.990768 
	C670.338440,208.446533 685.106750,213.011429 699.165100,219.201416 
	C714.636414,226.013580 720.245544,236.938736 717.989868,251.975739 
	C716.960449,258.837860 713.819763,264.772156 708.332031,268.835083 
	C696.573059,277.540833 682.681946,278.246521 669.013855,276.707336 
	C656.861755,275.338898 645.283142,270.821625 635.060364,263.891785 
	C628.608948,259.518494 622.109497,254.788940 617.003418,249.007553 
	C613.577148,245.128082 612.359131,245.990417 609.630310,248.820908 
	C597.190796,261.723755 584.679688,274.558105 572.132690,287.356628 
	C565.361206,294.263855 565.305176,294.209076 572.298523,300.808228 
	C585.188416,312.971527 600.409973,321.162567 616.993958,327.025513 
	C640.898376,335.476318 665.426819,339.812164 690.774780,336.878265 
	C701.815308,335.600372 712.980591,333.941071 723.604492,330.810150 
	C750.384766,322.917969 771.272034,307.152588 783.714172,281.588989 
	C788.997681,270.733551 791.054565,259.068176 792.278259,246.985916 
	C793.507935,234.844070 792.590881,223.130173 788.792603,211.861908 
	C786.325745,204.543823 781.667725,197.964325 778.929565,191.025162 
	C798.931641,191.057373 818.933716,191.089600 838.999146,192.041916 
	C838.999146,237.957779 838.999146,283.873657 838.999146,329.717621 
	C908.978455,329.717621 978.368530,329.717621 1047.714844,329.717621 
	C1047.714844,309.026031 1047.714844,288.624329 1047.714844,267.816040 
	C1001.704590,267.816040 955.979004,267.816040 910.301880,267.816040 
	C910.301880,247.339676 910.301880,227.274429 910.301880,206.819061 
	C951.673157,206.819061 992.739258,206.819061 1034.099121,206.819061 
	C1034.099121,200.950943 1034.099121,195.474731 1035.022705,190.005676 
	C1050.326538,189.677643 1065.630493,189.349609 1081.001343,189.869080 
	C1081.333496,191.770844 1081.790405,193.660751 1081.972778,195.576752 
	C1082.392334,199.986176 1082.233521,204.497314 1083.096680,208.809631 
	C1086.608032,226.354736 1091.689209,243.311722 1100.461304,259.154480 
	C1110.090698,276.545654 1122.131714,291.843201 1137.718384,304.044617 
	C1164.138428,324.726532 1194.574585,335.708771 1227.862427,337.743347 
	C1242.094238,338.613190 1256.529785,337.053711 1270.815552,335.893921 
	C1285.720581,334.683899 1299.707031,329.700317 1313.156860,323.351318 
	C1330.851929,314.998474 1346.024658,303.252686 1359.014648,288.239136 
	C1342.152954,272.383911 1325.216797,256.458710 1308.207764,240.464920 
	C1303.911499,245.050598 1300.516968,249.655136 1296.202881,253.112244 
	C1275.157959,269.976440 1251.091064,274.481354 1225.103271,268.872833 
	C1210.305054,265.679108 1197.205566,258.551636 1186.495117,247.836655 
	C1177.858154,239.196152 1170.973999,228.980942 1167.274292,217.297668 
	C1164.379150,208.154327 1163.121216,198.492569 1162.055176,189.057068 
	C1171.882202,189.054916 1181.709595,189.100586 1191.536011,189.019318 
	C1194.231201,188.997040 1195.355469,189.663300 1196.138794,192.703354 
	C1199.337402,205.118652 1206.550537,214.873016 1216.886597,222.544724 
	C1227.392456,230.342468 1239.158081,232.409119 1251.879883,232.088654 
	C1264.655640,231.766876 1275.449463,226.854172 1284.693726,218.636780 
	C1299.752563,205.250916 1304.859131,187.721863 1301.751587,168.466873 
	C1297.818359,144.094727 1277.039673,125.236824 1251.205078,124.061218 
	C1226.252930,122.925766 1206.447998,136.620544 1197.476440,159.198853 
	C1196.209229,162.387756 1194.683472,163.075287 1191.692505,163.051758 
	C1181.870605,162.974518 1172.047119,163.104431 1162.044678,162.332520 
	C1164.038940,155.239075 1165.410522,147.894257 1168.152832,141.102844 
	C1174.495483,125.394829 1184.690552,112.316017 1198.941895,103.142082 
	C1216.007324,92.156792 1234.754639,87.151146 1255.306641,89.915314 
	C1265.140137,91.237892 1274.541870,93.604393 1283.475464,97.904800 
	C1292.715210,102.352608 1300.161621,108.954956 1305.759277,116.373596 
	C1322.510620,99.683037 1339.105957,83.147842 1356.220703,66.095222 
	C1350.852905,61.511669 1345.441895,56.505417 1339.635376,52.010059 
	C1325.834106,41.325287 1310.079590,34.638321 1293.362549,29.963480 
	C1278.900391,25.919205 1264.239502,23.366934 1249.199341,22.977858 
	C1227.657104,22.420570 1206.736572,25.286474 1186.066406,31.779369 
	C1166.323486,37.981014 1148.494263,47.408092 1133.000977,60.752777 
	C1116.563599,74.910767 1103.603638,91.920631 1094.856079,112.113914 
	C1087.775024,128.460190 1083.701782,145.401489 1080.897827,162.993439 
	C1065.291260,163.300964 1049.684814,163.608490 1034.030640,162.992310 
	C1034.030640,158.060287 1034.030640,153.128281 1034.030640,147.800232 
	C992.361267,147.800232 951.297913,147.800232 910.312439,147.800232 
	C910.312439,129.317657 910.312439,111.249443 910.312439,92.785873 
	C954.022644,92.785873 997.421875,92.785873 1040.692627,92.785873 
	C1040.692627,71.981491 1040.692627,51.578159 1040.692627,31.303997 
	C973.323181,31.303997 906.261169,31.303997 838.917725,31.303997 
	C838.917725,76.081093 838.917725,120.552856 837.991577,165.003662 
	C823.876648,164.980484 809.761536,164.912537 795.646729,164.945831 
	C779.217224,164.984573 762.787842,165.111938 745.580627,165.023712 
M67.495461,301.982483 
	C68.079048,302.575104 68.602844,303.245056 69.254829,303.749207 
	C96.223648,324.603760 126.933899,335.900116 160.778137,337.761230 
	C174.862030,338.535706 189.129562,337.110260 203.243683,335.881958 
	C217.974869,334.599976 231.834824,329.664703 245.144745,323.361725 
	C262.825745,314.988831 278.030884,303.287384 291.026733,288.245331 
	C274.151550,272.375488 257.218414,256.451141 239.789825,240.060883 
	C238.514221,241.623749 237.583145,242.586456 236.855499,243.684052 
	C230.969772,252.561951 222.360199,258.312164 213.167648,262.856689 
	C195.330124,271.675079 176.320084,273.430176 157.076645,268.854980 
	C137.577805,264.219025 121.359016,254.069046 109.791191,237.280823 
	C101.142456,224.729004 95.961716,210.913742 93.914825,195.752731 
	C91.753418,179.743500 92.467377,163.911957 97.325180,148.629395 
	C101.960808,134.045807 109.683922,121.157074 121.488083,110.778076 
	C129.159592,104.032776 137.397400,98.594559 146.878128,95.029083 
	C160.637451,89.854538 174.790710,87.413773 189.451752,90.053474 
	C200.225311,91.993248 211.082092,94.081146 220.144516,100.720634 
	C226.722336,105.539780 232.800842,111.040489 238.196808,115.490776 
	C254.448853,99.372925 271.074280,82.884758 287.762848,66.333992 
	C279.177704,57.072498 269.107941,49.167145 257.678314,42.945248 
	C239.763229,33.192879 220.603943,27.702351 200.447556,24.851879 
	C185.659225,22.760548 171.008621,22.572216 156.171890,23.893633 
	C141.892105,25.165443 128.084000,28.252403 114.581406,32.835110 
	C87.634491,41.980743 64.984261,57.340965 46.915306,79.486107 
	C36.400089,92.373451 28.535955,106.593407 22.898987,122.207825 
	C17.683128,136.655746 15.333956,151.512115 13.714063,166.759628 
	C12.193811,181.069260 13.335447,195.132187 15.297337,209.026688 
	C17.958637,227.874557 24.309088,245.859650 34.097950,262.329071 
	C42.895458,277.130554 53.163017,290.828125 67.495461,301.982483 
M21.999256,421.450989 
	C22.880661,426.684540 22.445446,432.670105 24.916258,436.995789 
	C30.136742,446.135345 40.063168,448.607147 49.797714,445.654968 
	C57.231918,443.400421 62.385811,436.076752 61.216602,429.307678 
	C57.828976,430.074951 53.078232,429.727356 51.396049,431.832153 
	C48.029522,436.044556 44.465393,437.832947 39.556549,436.759399 
	C35.157566,435.797363 32.025490,430.439911 32.013687,424.868500 
	C32.003788,420.196411 31.976578,415.524139 32.005829,410.852264 
	C32.045479,404.519043 34.873592,399.998413 39.354275,399.011414 
	C45.023521,397.762665 50.290585,400.855103 52.825035,407.009766 
	C53.770580,407.009766 54.777016,407.110260 55.756992,406.991821 
	C59.397289,406.551941 61.694626,407.344360 63.019444,411.479187 
	C66.053650,420.949219 69.838417,430.176270 73.197113,439.545471 
	C76.055077,447.517914 73.733139,452.369141 66.220825,454.768402 
	C66.220825,457.091827 66.220825,459.373810 66.220825,461.614868 
	C74.876762,462.532440 77.999939,461.322174 80.280655,455.206696 
	C86.330093,438.985840 92.115723,422.666565 98.147705,405.995636 
	C96.558167,405.995636 95.365967,406.188934 94.259926,405.962128 
	C89.493385,404.984528 87.240685,407.235474 85.996147,411.616150 
	C84.083900,418.347107 81.817368,424.977386 79.592270,431.993774 
	C76.457771,423.100616 73.479736,414.651398 70.429832,405.998230 
	C67.803955,405.998230 65.167305,405.998230 62.589092,405.998230 
	C59.921535,395.099365 53.806797,389.856049 44.054131,388.993927 
	C35.016006,388.195007 24.087231,393.840454 22.810299,404.700897 
	C22.197113,409.916107 22.248734,415.209442 21.999256,421.450989 
M839.963318,424.697784 
	C839.378906,423.606201 838.794434,422.514587 838.217285,421.436615 
	C839.860535,420.439941 841.492676,419.675415 842.860962,418.580963 
	C848.679016,413.927429 848.852051,407.249542 847.741333,400.984985 
	C846.760925,395.455292 842.451721,390.815216 836.880554,390.271393 
	C827.717346,389.376953 818.403137,390.028931 809.316162,390.028931 
	C809.316162,409.053833 809.316162,427.454498 809.316162,445.663025 
	C812.381836,445.663025 815.120728,445.663025 818.272217,445.663025 
	C818.272217,437.582306 818.272217,429.835510 818.272217,422.123474 
	C821.690430,422.123474 824.676453,422.123474 827.574463,422.123474 
	C831.542480,430.088043 835.443665,437.918488 839.297546,445.653992 
	C842.838013,445.653992 846.372559,445.653992 850.535706,445.653992 
	C846.852844,438.554504 843.451294,431.997375 839.963318,424.697784 
M550.124573,401.036407 
	C551.258179,401.604553 552.391846,402.172668 553.834412,402.895630 
	C554.640015,401.715698 555.264221,400.333344 556.289124,399.383392 
	C560.242004,395.719574 558.293335,393.264557 554.402588,392.255402 
	C548.658020,390.765350 542.573120,388.705627 536.882629,389.295532 
	C526.247192,390.398010 522.660217,394.830383 521.165222,405.554962 
	C520.213074,412.384644 526.388184,419.679626 534.431885,421.732147 
	C538.172668,422.686676 541.992859,423.414581 545.819885,423.922607 
	C549.611389,424.425934 551.102356,427.345093 550.735352,430.071289 
	C550.445740,432.222626 548.130920,434.963104 546.040344,435.849731 
	C539.599243,438.581360 533.274170,437.086792 527.662598,433.200928 
	C522.881165,429.889893 522.009399,434.605133 519.906433,436.673676 
	C517.045654,439.487549 520.427795,440.292755 521.800354,441.198486 
	C529.084778,446.005524 537.042603,447.330750 545.730591,446.103149 
	C553.742188,444.971069 559.797668,439.764679 560.004883,432.760132 
	C560.352783,421.000031 556.477783,415.555481 546.763428,413.961273 
	C543.584045,413.439514 540.133301,413.254456 537.384155,411.813507 
	C534.854980,410.487915 531.551147,407.810760 531.358521,405.498383 
	C531.044006,401.721069 534.329285,398.945282 538.455505,399.103058 
	C542.106628,399.242645 545.724731,400.246216 550.124573,401.036407 
M252.376770,389.999847 
	C245.294724,389.999847 238.212692,389.999847 231.334839,389.999847 
	C231.334839,409.088837 231.334839,427.486816 231.334839,445.641113 
	C234.760941,445.641113 237.830078,445.641113 241.304169,445.641113 
	C241.304169,438.210754 241.304169,431.138397 241.304169,423.786987 
	C247.377319,423.786987 253.160431,424.552917 258.646332,423.602844 
	C266.375214,422.264282 272.172455,413.090637 270.992706,405.564728 
	C269.536072,396.272675 263.214691,388.766968 252.376770,389.999847 
M101.061272,445.184998 
	C104.511673,445.970520 108.179153,447.989624 110.699409,443.488312 
	C115.821693,447.275757 121.418365,447.973114 126.948540,444.944824 
	C132.254501,442.039276 134.576096,437.262054 134.069595,431.020233 
	C133.721069,426.725128 134.082336,422.377045 133.982315,418.056000 
	C133.841095,411.955597 130.532288,408.073334 124.854454,405.859467 
	C119.294403,403.691589 114.789047,405.536621 109.930679,409.024689 
	C109.930679,402.432892 109.930679,396.391144 109.930679,390.233124 
	C106.813797,390.233124 104.085716,390.233124 100.999123,390.233124 
	C100.999123,408.394135 100.999123,426.315643 101.061272,445.184998 
M1166.925781,443.594727 
	C1172.349243,440.870941 1174.277710,435.795410 1176.153687,430.172272 
	C1170.741333,430.050171 1165.624512,428.526855 1162.002441,434.282776 
	C1159.821167,437.749207 1155.670776,437.809601 1152.165161,436.524902 
	C1147.854248,434.945038 1145.442749,431.176575 1145.110107,426.766388 
	C1144.672729,420.968506 1144.869019,415.108612 1145.047974,409.283203 
	C1145.179932,404.992889 1149.244385,399.965576 1152.889404,399.058868 
	C1158.051270,397.774902 1161.942627,399.644073 1164.867188,404.406372 
	C1165.572510,405.554810 1167.094482,406.672516 1168.391479,406.884888 
	C1170.802368,407.279724 1173.324097,406.998138 1176.130249,406.998138 
	C1175.686401,405.048737 1175.537842,403.429443 1174.954712,401.985748 
	C1169.178589,387.684082 1152.818481,385.519897 1142.730103,393.585602 
	C1137.527100,397.745331 1135.557129,403.079041 1135.511353,409.108063 
	C1135.447876,417.439270 1134.864746,426.117798 1136.911743,434.024261 
	C1139.432007,443.758057 1152.134155,451.098450 1166.925781,443.594727 
M1075.999268,417.500000 
	C1075.999268,426.919983 1075.999268,436.339966 1075.999268,445.725342 
	C1079.284546,445.725342 1082.015991,445.725342 1085.019043,445.725342 
	C1085.019043,437.478333 1084.929321,429.518921 1085.056030,421.562988 
	C1085.121826,417.442169 1088.402100,414.048645 1091.932251,414.005859 
	C1095.608887,413.961304 1098.979370,417.638184 1098.994751,421.812134 
	C1099.024170,429.748840 1099.003296,437.685730 1099.003296,445.784851 
	C1102.179321,445.784851 1104.906494,445.784851 1108.005371,445.784851 
	C1108.005371,436.270538 1108.008301,426.994049 1108.004395,417.717560 
	C1108.001831,411.724091 1105.380737,407.327972 1099.568604,406.180176 
	C1094.928955,405.263885 1089.964111,405.995239 1084.765137,405.995239 
	C1084.765137,401.709808 1084.765137,395.954559 1084.765137,390.305664 
	C1081.659058,390.305664 1078.927368,390.305664 1075.999390,390.305664 
	C1075.999390,399.244171 1075.999390,407.872070 1075.999268,417.500000 
M277.000610,427.499451 
	C277.000610,433.600220 277.000610,439.700958 277.000610,445.705872 
	C280.332001,445.705872 283.064880,445.705872 286.015167,445.705872 
	C286.015167,437.419189 285.927063,429.443420 286.051331,421.470917 
	C286.116028,417.324341 288.680634,414.095947 292.504547,414.323059 
	C295.087128,414.476471 298.486267,417.088715 299.720306,419.516113 
	C301.166534,422.360809 300.852631,426.192383 300.956604,429.606384 
	C301.121857,435.031738 301.000732,440.465851 301.000732,445.657471 
	C304.073975,445.657471 306.473022,445.657471 309.006866,445.657471 
	C309.006866,435.986786 308.626617,426.647949 309.162872,417.362061 
	C309.442627,412.517761 305.310944,406.976196 301.165253,406.273132 
	C296.317810,405.451141 291.224152,406.081024 285.827820,406.081024 
	C285.827820,401.728699 285.827820,395.985138 285.827820,390.293457 
	C282.699829,390.293457 279.970673,390.293457 277.000549,390.293457 
	C277.000549,402.561371 277.000549,414.530487 277.000610,427.499451 
M983.613892,404.997070 
	C977.946777,404.752899 973.515381,407.069733 970.006348,411.701355 
	C972.397888,413.519409 974.814331,415.356354 977.353394,417.286499 
	C980.690186,412.253082 985.546082,413.679962 989.631775,414.580414 
	C991.059570,414.895111 991.674744,418.897095 992.994141,421.998291 
	C987.885681,421.998291 984.252625,421.931763 980.622742,422.011902 
	C972.696472,422.186920 969.027771,426.694214 968.071411,432.765869 
	C967.317505,437.552155 970.388550,445.039886 978.167786,445.857574 
	C985.638611,446.642853 993.256653,446.027222 1000.998962,446.027222 
	C1000.998962,435.426483 1001.260742,425.460754 1000.811829,415.527161 
	C1000.701904,413.095062 998.826843,409.707458 996.777588,408.624634 
	C993.082703,406.672272 988.643677,406.128235 983.613892,404.997070 
M451.629059,405.830353 
	C448.670288,407.468842 445.711517,409.107361 442.190887,411.057007 
	C445.645264,413.513245 448.013824,415.197388 450.553650,417.003296 
	C453.808014,412.227142 458.612213,413.659912 462.663330,414.604187 
	C464.108887,414.941162 464.704895,418.922943 466.010956,422.000336 
	C460.745789,422.000336 456.944305,421.928497 453.146545,422.016510 
	C446.826691,422.162994 441.441956,427.416321 441.052734,433.699585 
	C440.738129,438.777466 445.557678,445.410645 451.025085,445.848694 
	C458.539246,446.450714 466.137848,445.999359 474.002106,445.999359 
	C474.002106,435.893311 474.026611,426.284882 473.992615,416.676666 
	C473.973297,411.215881 470.760620,406.948029 465.389038,406.093933 
	C461.076904,405.408295 456.640015,405.507477 451.629059,405.830353 
M1178.333740,431.801971 
	C1179.850342,440.539429 1185.340820,445.605286 1193.777832,446.776306 
	C1200.448853,447.702209 1206.282959,444.865997 1211.250610,440.288757 
	C1206.212158,434.121735 1206.212158,434.121704 1199.997925,437.007660 
	C1193.792236,439.889648 1189.127686,437.041626 1187.228027,428.929077 
	C1195.393921,428.929077 1203.486328,428.929077 1212.008545,428.929077 
	C1212.008545,425.837921 1212.184448,423.043549 1211.974731,420.278412 
	C1211.408691,412.818939 1205.601807,406.594727 1197.946655,405.020081 
	C1191.273438,403.647430 1184.236450,407.326538 1180.645630,413.773163 
	C1177.608276,419.226440 1177.917480,425.087646 1178.333740,431.801971 
M1290.293091,429.283936 
	C1298.507080,429.283936 1306.721191,429.283936 1315.000000,429.283936 
	C1315.000000,426.104187 1315.257446,423.906799 1314.951660,421.790771 
	C1314.029053,415.406586 1312.461914,409.639130 1305.426880,406.726685 
	C1298.702393,403.942688 1292.727539,404.358765 1287.339233,408.974182 
	C1281.563599,413.921600 1280.835571,420.823792 1280.975708,427.936584 
	C1281.142944,436.421875 1285.313110,443.221802 1292.184326,445.679291 
	C1300.866089,448.784149 1309.078979,445.465363 1313.970215,439.794739 
	C1311.039551,435.808258 1308.428711,432.965973 1302.764038,436.849182 
	C1297.579224,440.403290 1292.438599,437.193115 1290.293091,429.283936 
M167.423004,429.002716 
	C169.531006,429.002716 171.639023,429.002716 173.999893,429.002716 
	C173.999893,426.155457 174.190643,423.829987 173.962952,421.546234 
	C173.360657,415.505249 171.574127,410.099884 165.532654,407.184906 
	C159.211212,404.134827 153.055450,403.869019 147.240692,408.275879 
	C140.513870,413.373993 139.832993,420.720428 139.991119,428.352142 
	C140.158936,436.450134 144.514099,443.298126 151.173935,445.685760 
	C159.844406,448.794220 168.225616,445.377350 172.966995,439.786865 
	C170.060165,435.677399 167.353271,433.212891 161.733902,436.836578 
	C156.001617,440.533081 149.550797,436.073059 149.464172,429.002533 
	C155.123138,429.002533 160.780807,429.002533 167.423004,429.002716 
M952.498291,429.001099 
	C956.265930,429.001099 960.033569,429.001099 963.998779,429.001099 
	C963.998779,425.443787 964.214661,422.449799 963.953430,419.498047 
	C963.424683,413.524841 960.368896,408.792084 954.920044,406.575256 
	C948.697510,404.043701 942.148926,403.718323 936.717712,408.832123 
	C929.811829,415.334351 929.518494,423.529724 930.947266,432.221802 
	C932.330933,440.640350 936.124329,444.377258 946.542358,446.841492 
	C951.264771,447.958527 959.847473,444.246185 962.465881,440.454498 
	C960.578674,438.197021 958.797058,436.065887 957.030579,433.952820 
	C948.440796,440.971802 941.323486,438.959351 939.511719,429.001801 
	C943.528076,429.001801 947.520203,429.001801 952.498291,429.001099 
M566.000122,424.593414 
	C565.998169,426.422760 565.972290,428.252472 565.998840,430.081421 
	C566.075256,435.348175 568.072815,439.787109 572.219482,443.011597 
	C580.007812,449.067810 593.731079,447.673859 598.777649,439.322998 
	C596.623901,437.620392 594.470093,435.917755 592.328064,434.224426 
	C585.007507,438.463074 581.602051,439.345093 578.534119,436.657928 
	C576.623230,434.984131 575.685181,432.199677 573.692383,428.885681 
	C583.204956,428.885681 590.953491,428.885681 599.004578,428.885681 
	C599.004578,425.875549 599.008423,423.245361 599.003784,420.615204 
	C598.992432,414.187653 594.680115,407.982452 588.729492,406.014648 
	C576.370361,401.927612 565.765686,409.447388 566.000122,424.593414 
M869.027893,437.980927 
	C865.142151,436.368134 862.480957,433.981079 863.259033,428.855713 
	C871.253540,428.855713 878.999878,428.855713 887.003601,428.855713 
	C887.003601,425.654999 886.979187,422.854095 887.008423,420.053741 
	C887.076843,413.499603 883.224304,409.283081 877.966980,406.626862 
	C871.896057,403.559509 865.289917,404.006897 860.185242,408.488037 
	C852.140503,415.549988 853.269104,425.068817 854.871765,434.413910 
	C855.729919,439.417511 858.833984,442.978943 863.194641,444.893097 
	C871.885071,448.707764 881.682617,446.653351 886.954163,439.344910 
	C884.812988,437.652466 882.663452,435.953400 881.303955,434.878815 
	C877.098511,436.019806 873.474731,437.002991 869.027893,437.980927 
M352.540924,442.059296 
	C360.561005,447.075287 368.879944,448.723969 377.636353,444.053253 
	C382.888763,441.251617 384.834229,437.227844 383.979340,430.919647 
	C383.383484,426.522705 380.798096,423.361084 376.558472,422.306000 
	C372.939697,421.405396 369.041901,421.659912 365.384583,420.864838 
	C363.779663,420.515991 362.465820,418.828125 361.019806,417.748260 
	C361.971191,416.530060 362.805054,414.414062 363.897186,414.271118 
	C366.589478,413.918701 369.606567,413.886719 372.124023,414.773560 
	C379.069580,417.220215 378.994843,417.432404 383.016602,410.507324 
	C376.106995,404.512177 368.082397,403.429504 359.779388,406.234589 
	C354.728912,407.940857 351.191589,411.672150 351.965057,419.416199 
	C352.480316,424.575165 355.254730,427.780243 361.190186,428.970673 
	C364.056915,429.545654 367.089752,429.382904 369.899750,430.118225 
	C371.727020,430.596405 373.288208,432.091339 374.968597,433.130737 
	C373.627014,434.603790 372.399933,436.212830 370.889435,437.485382 
	C370.254150,438.020630 368.930573,438.172211 368.073029,437.937866 
	C363.497009,436.687317 358.969452,435.259583 354.845245,434.019409 
	C353.157867,435.452393 351.035950,437.254425 348.610229,439.314392 
	C349.899780,440.165039 350.944275,440.854004 352.540924,442.059296 
M916.179688,405.998596 
	C911.212219,406.002075 906.181091,405.513092 901.294861,406.144836 
	C896.207825,406.802521 892.915405,412.282410 892.995911,418.373077 
	C893.061218,423.319244 896.662720,428.020996 901.529846,428.947388 
	C904.872314,429.583588 908.387695,429.372833 911.690308,430.130859 
	C913.284790,430.496826 914.567017,432.222992 915.990662,433.333252 
	C914.867920,434.578217 913.795837,436.822632 912.613037,436.882568 
	C908.921387,437.069702 904.871948,437.240753 901.537598,435.940308 
	C894.981873,433.383514 894.639221,433.099426 889.955017,439.152740 
	C897.021057,445.292175 904.999756,448.182861 914.344421,446.000336 
	C921.492981,444.330688 925.583008,440.448029 925.041382,432.251678 
	C924.682495,426.820709 921.654907,422.213501 913.996704,421.918152 
	C910.952332,421.800751 907.876160,421.153412 904.937744,420.315247 
	C903.786011,419.986664 902.023926,418.217590 902.203308,417.554626 
	C902.566162,416.213501 903.997925,414.278900 905.109436,414.195496 
	C907.965332,413.981110 911.122437,414.045776 913.736023,415.074219 
	C920.270996,417.645874 921.173889,417.444916 924.075195,409.969604 
	C921.767395,408.682312 919.390625,407.356506 916.179688,405.998596 
M321.076233,406.003357 
	C318.454559,406.003357 315.832855,406.003357 313.030670,406.003357 
	C317.133942,417.367188 321.074188,428.359863 325.074127,439.330780 
	C328.038910,447.462555 326.090759,451.858154 318.255798,454.852081 
	C318.255798,457.204681 318.255798,459.475128 318.255798,461.701050 
	C328.606415,463.081543 331.008820,459.459930 333.984833,451.611755 
	C334.951538,449.062286 335.664368,446.417694 336.583191,443.848724 
	C341.052856,431.352112 345.553040,418.866425 350.181061,405.991150 
	C348.509247,405.991150 347.316010,406.182892 346.207306,405.957947 
	C341.413422,404.985352 339.217255,407.274384 337.985199,411.670441 
	C336.103027,418.386292 333.819214,424.989563 331.501740,432.283203 
	C330.858032,430.040894 330.518280,428.457428 329.953613,426.958710 
	C327.320038,419.968323 324.624329,413.001343 321.076233,406.003357 
M761.939758,441.569763 
	C762.820862,447.049683 761.028320,453.927124 754.250671,454.447083 
	C754.250671,456.874573 754.250671,459.302063 754.250671,461.702698 
	C761.755188,462.309296 766.256287,460.678101 767.914734,456.121948 
	C773.957092,439.522034 779.778625,422.841766 785.752869,405.995605 
	C784.084473,405.995605 782.556396,406.197662 781.101501,405.957306 
	C776.890686,405.261719 774.996643,407.037964 773.915588,411.118378 
	C772.156921,417.756470 769.749207,424.222626 767.259888,431.850952 
	C764.977417,425.230774 762.983948,419.522217 761.041199,413.796448 
	C758.286499,405.677948 758.302307,405.668304 749.873108,406.073975 
	C749.607788,406.086761 749.356140,406.384003 748.847473,406.708557 
	C753.031494,418.089600 757.233765,429.520142 761.939758,441.569763 
M1218.996094,444.250549 
	C1221.785278,445.055420 1224.574463,445.860291 1228.016235,446.853485 
	C1228.016235,438.268372 1227.798950,430.969666 1228.133179,423.696259 
	C1228.251343,421.127258 1229.008179,417.740295 1230.762573,416.327454 
	C1232.588135,414.857208 1236.614502,414.176819 1238.503540,415.239624 
	C1240.673340,416.460480 1242.607788,419.898224 1242.794922,422.505798 
	C1243.349365,430.229767 1242.993286,438.019104 1242.993286,445.700897 
	C1246.329712,445.700897 1249.060913,445.700897 1251.998901,445.700897 
	C1251.998901,437.064941 1251.808594,428.752136 1252.061279,420.452820 
	C1252.252197,414.175537 1250.161133,409.007782 1244.580444,406.373749 
	C1239.024780,403.751465 1233.181519,404.088806 1228.846680,408.318817 
	C1226.129517,404.308472 1222.442627,406.682465 1218.997314,405.939880 
	C1218.997314,418.721924 1218.997314,431.006317 1218.996094,444.250549 
M666.659973,406.005463 
	C666.105713,407.293304 665.102722,408.570587 665.072266,409.870728 
	C664.912231,416.698700 664.973694,423.532623 665.007141,430.364227 
	C665.029419,434.917084 662.165344,436.703003 658.265137,437.251770 
	C654.614075,437.765533 652.176636,435.851501 651.071594,432.511292 
	C650.420288,430.542389 650.087952,428.389099 650.049744,426.310699 
	C649.925659,419.561768 650.003296,412.809082 650.003296,406.185120 
	C646.667236,406.185120 644.045959,406.185120 641.006226,406.185120 
	C641.006226,414.987640 640.856689,423.610992 641.100769,432.223206 
	C641.170593,434.685516 641.883179,437.419006 643.156372,439.506439 
	C648.019348,447.479279 656.723389,449.076660 664.501953,443.652557 
	C666.839966,448.044708 670.629700,445.157806 674.001648,446.062103 
	C674.001648,439.056732 674.001648,432.591919 674.001648,426.127106 
	C674.001648,419.515564 674.001648,412.904022 674.001648,405.999115 
	C671.544739,405.999115 669.576965,405.999115 666.659973,406.005463 
M1038.994141,417.819366 
	C1038.661743,421.564514 1038.003662,425.314972 1038.064941,429.053650 
	C1038.190063,436.685944 1043.626099,444.361908 1049.816040,445.923309 
	C1058.672241,448.157196 1068.268921,445.182159 1070.966553,438.494263 
	C1068.502563,436.543121 1066.401733,431.916595 1062.679199,435.100189 
	C1057.080688,439.888306 1048.913818,437.781952 1047.088501,429.266052 
	C1045.567505,422.169922 1049.420410,414.350250 1055.428101,414.237732 
	C1058.810669,414.174408 1062.234985,416.335938 1066.109497,417.654907 
	C1066.532227,417.172302 1067.143311,416.040894 1068.091553,415.465729 
	C1072.541992,412.766449 1071.253174,411.102631 1067.535278,408.782196 
	C1056.024536,401.598083 1045.433105,404.518524 1038.994141,417.819366 
M417.662323,445.151581 
	C427.926025,448.302460 435.338226,446.117462 440.010620,438.475342 
	C438.603363,437.408569 437.321167,435.991455 435.728333,435.368042 
	C434.419891,434.855957 432.319244,434.683716 431.298584,435.399719 
	C425.591064,439.403900 419.709839,437.969727 416.859650,431.580292 
	C413.683990,424.461121 417.185272,414.924103 423.851471,414.307434 
	C427.311127,413.987396 431.006287,416.213135 433.527802,416.968903 
	C435.796753,415.337585 438.059692,413.710602 440.425964,412.009369 
	C434.942841,406.360352 428.786346,403.705658 421.561005,405.262665 
	C413.998535,406.892303 409.203705,411.841705 407.219727,419.424805 
	C404.594543,429.458740 407.956329,438.417236 417.662323,445.151581 
M604.018433,431.902405 
	C604.331482,432.641174 604.750549,433.353638 604.941406,434.122742 
	C607.012756,442.468628 613.243164,446.218109 620.934998,446.753510 
	C627.333862,447.198914 633.395142,444.932373 637.166443,438.779022 
	C636.214294,438.158600 635.253662,437.801514 634.688171,437.117706 
	C632.233032,434.148987 630.247620,432.846863 626.681091,436.366272 
	C625.231018,437.797119 621.085876,437.558807 618.637878,436.714569 
	C611.655212,434.306458 612.515991,427.879822 613.278442,422.586029 
	C613.686279,419.754272 616.355164,416.341125 618.940002,415.013519 
	C621.052429,413.928589 625.222778,414.649994 627.276917,416.183289 
	C630.146118,418.325012 631.695435,418.363159 633.815125,415.759125 
	C634.749207,414.611511 636.028076,413.744598 637.088623,412.805023 
	C631.131714,405.173157 623.493042,403.229736 615.069641,406.159698 
	C609.108032,408.233368 605.170715,413.068390 604.277466,419.552734 
	C603.759338,423.314026 604.065186,427.188812 604.018433,431.902405 
M732.997498,418.639282 
	C732.997437,423.303131 733.001770,427.966980 732.996399,432.630829 
	C732.983215,443.995392 736.244019,446.897858 747.803223,445.588501 
	C747.803223,443.192474 747.803223,440.771240 747.803223,439.617188 
	C745.380798,437.696686 742.334290,436.452454 742.234070,435.004333 
	C741.733154,427.763611 742.004822,420.469421 742.004822,413.227142 
	C744.321167,413.035065 746.072144,412.889862 747.729980,412.752380 
	C747.729980,410.329956 747.729980,408.253113 747.729980,406.184143 
	C745.692322,406.016937 743.949829,405.873962 741.803467,405.697845 
	C741.803467,401.294495 741.803467,397.216248 741.803467,393.331573 
	C738.618958,393.331573 735.882141,393.331573 732.916260,393.331573 
	C732.916260,397.621307 732.916260,401.580719 732.916260,405.656555 
	C731.494263,405.926178 730.285339,406.155426 729.162292,406.368378 
	C729.162292,408.644287 729.162292,410.600189 729.162292,412.718231 
	C730.492859,412.947235 731.692993,413.153809 732.997498,413.378357 
	C732.997498,415.033539 732.997498,416.354462 732.997498,418.639282 
M1269.904297,445.985260 
	C1271.842163,445.985260 1273.780029,445.985260 1275.860107,445.985260 
	C1275.860107,443.205292 1275.860107,440.918610 1275.860107,439.729126 
	C1273.828003,437.755920 1271.280396,436.450958 1271.196899,435.003876 
	C1270.778564,427.751556 1271.005249,420.462036 1271.005249,413.253967 
	C1272.960449,413.042114 1274.380005,412.888275 1275.722290,412.742828 
	C1275.722290,410.355438 1275.722290,408.282135 1275.722290,406.211670 
	C1274.020752,406.030975 1272.613281,405.881500 1270.822021,405.691284 
	C1270.822021,401.322632 1270.822021,397.243256 1270.822021,393.310120 
	C1267.653809,393.310120 1264.918457,393.310120 1261.956543,393.310120 
	C1261.956543,397.576294 1261.956543,401.531494 1261.956543,405.674347 
	C1260.551880,405.908875 1259.346924,406.110046 1258.131714,406.312897 
	C1258.131714,408.585907 1258.131714,410.540314 1258.131714,412.764465 
	C1259.431274,412.929840 1260.640137,413.083649 1261.995972,413.256165 
	C1261.995972,421.094269 1262.230225,428.577972 1261.917603,436.038757 
	C1261.689941,441.473633 1263.891602,444.654327 1269.904297,445.985260 
M493.002197,413.500000 
	C493.002197,405.742310 493.002197,397.984619 493.002197,390.291412 
	C489.687042,390.291412 486.956238,390.291412 483.999969,390.291412 
	C483.999969,406.531921 483.858032,422.477875 484.174988,438.414764 
	C484.215759,440.466583 486.192505,443.347473 488.058472,444.292908 
	C490.885376,445.725250 494.402161,445.796082 497.888977,446.498352 
	C497.888977,443.107330 497.888977,440.816071 497.888977,437.945557 
	C492.726105,439.218353 492.914062,435.904663 492.973145,432.462585 
	C493.075836,426.476654 493.002014,420.487640 493.002197,413.500000 
M682.998108,432.491730 
	C682.998108,436.921417 682.998108,441.351074 682.998108,445.709625 
	C686.325867,445.709625 689.056091,445.709625 691.998901,445.709625 
	C691.998901,438.588409 691.823792,431.781830 692.042908,424.987946 
	C692.322693,416.312592 698.070251,411.110382 705.397278,416.252502 
	C707.327881,413.783417 709.276978,411.290680 711.203979,408.826141 
	C705.909790,403.642639 699.959351,403.636169 692.604797,408.462555 
	C690.271240,403.738220 686.419983,406.757568 682.998047,406.125854 
	C682.998047,414.899506 682.998047,423.197266 682.998108,432.491730 
M190.009033,422.016846 
	C192.239029,414.367828 193.295105,413.816681 201.491302,415.807465 
	C202.218887,415.984192 203.413315,415.984619 203.794479,415.547150 
	C205.691299,413.370422 207.388336,411.019592 209.155014,408.730957 
	C202.366028,403.592621 196.717880,403.584595 190.593399,408.413330 
	C188.243042,403.673462 184.387070,406.823639 181.308197,406.200348 
	C181.308197,419.694641 181.308197,432.761414 181.308197,445.687256 
	C184.363953,445.687256 187.100464,445.687256 190.016281,445.687256 
	C190.016281,437.877930 190.016281,430.399414 190.009033,422.016846 
M1328.401489,446.005829 
	C1331.364624,446.453278 1331.018555,444.422150 1331.014160,442.575714 
	C1330.997681,435.750092 1330.924072,428.922852 1331.042969,422.099182 
	C1331.153809,415.743927 1335.961548,412.671478 1341.579468,415.186737 
	C1342.434937,415.569794 1343.347168,415.826355 1343.991333,416.055420 
	C1346.212036,413.492615 1348.205566,411.192139 1350.197144,408.893799 
	C1343.768799,403.581970 1338.510986,403.545441 1331.160645,408.544861 
	C1329.932495,405.514191 1329.338379,405.378540 1322.268555,406.532227 
	C1322.268555,419.588593 1322.268555,432.650513 1322.268555,446.002014 
	C1324.177002,446.002014 1325.815430,446.002014 1328.401489,446.005829 
M1010.998291,437.455322 
	C1010.998291,440.225464 1010.998291,442.995605 1010.998291,445.726807 
	C1014.291992,445.726807 1017.020386,445.726807 1020.000427,445.726807 
	C1020.000427,438.142090 1019.997498,430.853760 1020.001282,423.565430 
	C1020.005676,415.066132 1024.458740,412.290039 1033.011597,416.380463 
	C1033.478394,415.674896 1034.108643,414.694366 1034.767090,413.733063 
	C1035.856934,412.141937 1036.964966,410.563202 1038.042236,409.012543 
	C1034.294434,404.706543 1029.863281,403.877594 1023.512512,406.192596 
	C1022.399353,406.598328 1021.220520,407.401398 1020.163269,407.272491 
	C1017.216980,406.913300 1014.318542,406.160736 1010.998291,405.481018 
	C1010.998291,416.561432 1010.998291,426.513031 1010.998291,437.455322 
M400.000580,407.755890 
	C397.213623,406.947266 394.426666,406.138641 391.205688,405.204071 
	C391.205688,419.505798 391.205688,432.560516 391.205688,445.765625 
	C394.165741,445.765625 396.894409,445.765625 400.005737,445.765625 
	C400.005737,433.260498 400.005737,420.987579 400.000580,407.755890 
M717.560181,405.995026 
	C716.372192,406.660522 714.159546,407.309113 714.148193,407.994019 
	C713.940491,420.576599 713.996277,433.163513 713.996277,445.706238 
	C717.317017,445.706238 720.047363,445.706238 722.720886,445.706238 
	C722.720886,432.347565 722.720886,419.288818 722.720886,405.997467 
	C721.121277,405.997467 719.812805,405.997467 717.560181,405.995026 
M394.557495,398.004181 
	C396.311676,398.004181 398.065826,398.004181 399.671783,398.004181 
	C399.671783,394.950867 399.671783,392.553101 399.671783,390.323944 
	C396.594940,390.323944 393.864441,390.323944 390.631348,390.323944 
	C392.198883,393.032562 388.383850,397.042480 394.557495,398.004181 
M714.099243,390.725098 
	C714.099243,393.125763 714.099243,395.526398 714.099243,397.808716 
	C717.375977,397.808716 719.986755,397.808716 722.807617,397.808716 
	C722.807617,395.218811 722.807617,392.822327 722.807617,390.078552 
	C719.997009,390.078552 717.384460,390.078552 714.099243,390.725098 
z"/>
<path fill="#020403" opacity="1.000000" stroke="none" 
	d="
M838.917725,165.024628 
	C838.917725,120.552856 838.917725,76.081093 838.917725,31.303997 
	C906.261169,31.303997 973.323181,31.303997 1040.692627,31.303997 
	C1040.692627,51.578159 1040.692627,71.981491 1040.692627,92.785873 
	C997.421875,92.785873 954.022644,92.785873 910.312439,92.785873 
	C910.312439,111.249443 910.312439,129.317657 910.312439,147.800232 
	C951.297913,147.800232 992.361267,147.800232 1034.030640,147.800232 
	C1034.030640,153.128281 1034.030640,158.060287 1033.739014,163.744858 
	C1033.664551,172.997772 1033.881836,181.498154 1034.099121,189.998520 
	C1034.099121,195.474731 1034.099121,200.950943 1034.099121,206.819061 
	C992.739258,206.819061 951.673157,206.819061 910.301880,206.819061 
	C910.301880,227.274429 910.301880,247.339676 910.301880,267.816040 
	C955.979004,267.816040 1001.704590,267.816040 1047.714844,267.816040 
	C1047.714844,288.624329 1047.714844,309.026031 1047.714844,329.717621 
	C978.368530,329.717621 908.978455,329.717621 838.999146,329.717621 
	C838.999146,283.873657 838.999146,237.957779 839.168579,191.201904 
	C839.197876,181.916138 839.057800,173.470383 838.917725,165.024628 
z"/>
<path fill="#020403" opacity="1.000000" stroke="none" 
	d="
M67.244232,301.722595 
	C53.163017,290.828125 42.895458,277.130554 34.097950,262.329071 
	C24.309088,245.859650 17.958637,227.874557 15.297337,209.026688 
	C13.335447,195.132187 12.193811,181.069260 13.714063,166.759628 
	C15.333956,151.512115 17.683128,136.655746 22.898987,122.207825 
	C28.535955,106.593407 36.400089,92.373451 46.915306,79.486107 
	C64.984261,57.340965 87.634491,41.980743 114.581406,32.835110 
	C128.084000,28.252403 141.892105,25.165443 156.171890,23.893633 
	C171.008621,22.572216 185.659225,22.760548 200.447556,24.851879 
	C220.603943,27.702351 239.763229,33.192879 257.678314,42.945248 
	C269.107941,49.167145 279.177704,57.072498 287.762848,66.333992 
	C271.074280,82.884758 254.448853,99.372925 238.196808,115.490776 
	C232.800842,111.040489 226.722336,105.539780 220.144516,100.720634 
	C211.082092,94.081146 200.225311,91.993248 189.451752,90.053474 
	C174.790710,87.413773 160.637451,89.854538 146.878128,95.029083 
	C137.397400,98.594559 129.159592,104.032776 121.488083,110.778076 
	C109.683922,121.157074 101.960808,134.045807 97.325180,148.629395 
	C92.467377,163.911957 91.753418,179.743500 93.914825,195.752731 
	C95.961716,210.913742 101.142456,224.729004 109.791191,237.280823 
	C121.359016,254.069046 137.577805,264.219025 157.076645,268.854980 
	C176.320084,273.430176 195.330124,271.675079 213.167648,262.856689 
	C222.360199,258.312164 230.969772,252.561951 236.855499,243.684052 
	C237.583145,242.586456 238.514221,241.623749 239.789825,240.060883 
	C257.218414,256.451141 274.151550,272.375488 291.026733,288.245331 
	C278.030884,303.287384 262.825745,314.988831 245.144745,323.361725 
	C231.834824,329.664703 217.974869,334.599976 203.243683,335.881958 
	C189.129562,337.110260 174.862030,338.535706 160.778137,337.761230 
	C126.933899,335.900116 96.223648,324.603760 69.254829,303.749207 
	C68.602844,303.245056 68.079048,302.575104 67.244232,301.722595 
z"/>
<path fill="#020403" opacity="1.000000" stroke="none" 
	d="
M1161.135986,189.061157 
	C1163.121216,198.492569 1164.379150,208.154327 1167.274292,217.297668 
	C1170.973999,228.980942 1177.858154,239.196152 1186.495117,247.836655 
	C1197.205566,258.551636 1210.305054,265.679108 1225.103271,268.872833 
	C1251.091064,274.481354 1275.157959,269.976440 1296.202881,253.112244 
	C1300.516968,249.655136 1303.911499,245.050598 1308.207764,240.464920 
	C1325.216797,256.458710 1342.152954,272.383911 1359.014648,288.239136 
	C1346.024658,303.252686 1330.851929,314.998474 1313.156860,323.351318 
	C1299.707031,329.700317 1285.720581,334.683899 1270.815552,335.893921 
	C1256.529785,337.053711 1242.094238,338.613190 1227.862427,337.743347 
	C1194.574585,335.708771 1164.138428,324.726532 1137.718384,304.044617 
	C1122.131714,291.843201 1110.090698,276.545654 1100.461304,259.154480 
	C1091.689209,243.311722 1086.608032,226.354736 1083.096680,208.809631 
	C1082.233521,204.497314 1082.392334,199.986176 1081.972778,195.576752 
	C1081.790405,193.660751 1081.333496,191.770844 1081.302368,189.181564 
	C1081.672119,179.992508 1081.740845,171.490982 1081.809570,162.989441 
	C1083.701782,145.401489 1087.775024,128.460190 1094.856079,112.113914 
	C1103.603638,91.920631 1116.563599,74.910767 1133.000977,60.752777 
	C1148.494263,47.408092 1166.323486,37.981014 1186.066406,31.779369 
	C1206.736572,25.286474 1227.657104,22.420570 1249.199341,22.977858 
	C1264.239502,23.366934 1278.900391,25.919205 1293.362549,29.963480 
	C1310.079590,34.638321 1325.834106,41.325287 1339.635376,52.010059 
	C1345.441895,56.505417 1350.852905,61.511669 1356.220703,66.095222 
	C1339.105957,83.147842 1322.510620,99.683037 1305.759277,116.373596 
	C1300.161621,108.954956 1292.715210,102.352608 1283.475464,97.904800 
	C1274.541870,93.604393 1265.140137,91.237892 1255.306641,89.915314 
	C1234.754639,87.151146 1216.007324,92.156792 1198.941895,103.142082 
	C1184.690552,112.316017 1174.495483,125.394829 1168.152832,141.102844 
	C1165.410522,147.894257 1164.038940,155.239075 1161.922974,163.075043 
	C1161.579468,172.232086 1161.357788,180.646622 1161.135986,189.061157 
z"/>
<path fill="#020403" opacity="1.000000" stroke="none" 
	d="
M517.730591,192.511108 
	C504.857361,202.237930 490.425568,208.863434 474.821411,212.469528 
	C464.882751,214.766342 454.628052,216.376877 444.451874,216.809662 
	C427.910522,217.513153 411.317383,216.999359 394.191895,216.999359 
	C394.191895,255.235550 394.191895,292.400543 394.191895,329.781494 
	C369.249664,329.781494 344.862366,329.781494 319.983337,329.781494 
	C319.983337,284.774658 319.983337,239.875305 320.299469,194.246216 
	C320.385651,185.004837 320.155701,176.493240 319.925781,167.981628 
	C319.925781,122.528206 319.925781,77.074791 319.925781,31.255985 
	C321.593353,31.161198 323.026123,31.009100 324.458954,31.008608 
	C363.934357,30.995008 403.420135,30.453756 442.881012,31.210987 
	C464.637573,31.628485 486.107178,35.616642 505.538757,46.263477 
	C528.145386,58.649994 542.483948,77.290863 545.939026,103.344215 
	C546.949097,110.960983 548.037170,118.678619 547.846863,126.319077 
	C547.503540,140.109100 545.223267,153.650330 538.672058,166.685913 
	C534.459961,172.407349 530.729431,177.785721 526.655029,182.889557 
	C523.933350,186.298843 520.722473,189.317581 517.730591,192.511108 
M398.628174,158.996536 
	C415.356171,158.352386 432.302277,161.029068 448.740570,155.978485 
	C460.321869,152.420197 470.222931,146.639832 472.909576,133.648361 
	C473.991364,128.417389 474.250946,122.860046 473.882965,117.520279 
	C473.244995,108.262863 468.054413,101.591873 460.126282,97.020836 
	C451.031647,91.777229 440.907745,90.464584 430.725098,90.092072 
	C419.759277,89.690910 408.767090,90.000702 397.786469,90.028122 
	C396.537781,90.031242 395.289551,90.213661 394.000641,90.316154 
	C394.000641,112.378136 394.065216,134.006027 393.927155,155.632614 
	C393.907684,158.682281 395.048370,159.388382 398.628174,158.996536 
z"/>
<path fill="#020403" opacity="1.000000" stroke="none" 
	d="
M594.985657,165.832474 
	C586.264954,153.350571 581.218384,139.701096 580.929565,124.289009 
	C580.701050,112.097206 580.519470,99.892662 584.412109,88.225960 
	C589.615723,72.629753 599.061035,59.963890 611.852478,49.482655 
	C628.221130,36.070286 647.072449,28.993460 667.676941,26.048431 
	C677.207153,24.686277 686.848206,23.052305 696.412170,23.206352 
	C713.144348,23.475861 729.549072,26.174780 745.586609,31.684816 
	C764.057556,38.030891 780.685791,47.055046 795.234863,60.551746 
	C781.476379,74.886269 767.848389,89.112526 754.186462,103.306198 
	C748.114563,109.614403 748.180969,109.483162 741.768005,103.318710 
	C726.426331,88.571762 707.875183,82.383133 686.893921,84.149261 
	C677.917786,84.904831 669.340637,87.542938 662.281921,94.094749 
	C650.394592,105.128372 649.929321,126.295372 668.590454,134.963394 
	C680.053528,140.287964 692.096558,144.369019 703.901123,148.952042 
	C717.781921,154.341156 731.686401,159.669189 746.080383,165.394714 
	C754.599365,171.788773 762.687744,177.723145 770.599609,183.884018 
	C773.292053,185.980545 775.540222,188.647552 777.991394,191.053894 
	C781.667725,197.964325 786.325745,204.543823 788.792603,211.861908 
	C792.590881,223.130173 793.507935,234.844070 792.278259,246.985916 
	C791.054565,259.068176 788.997681,270.733551 783.714172,281.588989 
	C771.272034,307.152588 750.384766,322.917969 723.604492,330.810150 
	C712.980591,333.941071 701.815308,335.600372 690.774780,336.878265 
	C665.426819,339.812164 640.898376,335.476318 616.993958,327.025513 
	C600.409973,321.162567 585.188416,312.971527 572.298523,300.808228 
	C565.305176,294.209076 565.361206,294.263855 572.132690,287.356628 
	C584.679688,274.558105 597.190796,261.723755 609.630310,248.820908 
	C612.359131,245.990417 613.577148,245.128082 617.003418,249.007553 
	C622.109497,254.788940 628.608948,259.518494 635.060364,263.891785 
	C645.283142,270.821625 656.861755,275.338898 669.013855,276.707336 
	C682.681946,278.246521 696.573059,277.540833 708.332031,268.835083 
	C713.819763,264.772156 716.960449,258.837860 717.989868,251.975739 
	C720.245544,236.938736 714.636414,226.013580 699.165100,219.201416 
	C685.106750,213.011429 670.338440,208.446533 655.949280,202.990768 
	C646.655701,199.467087 637.481384,195.629120 627.724365,191.601501 
	C624.751526,189.855804 622.056946,188.744644 619.908569,186.971710 
	C611.507263,180.038849 603.278503,172.896774 594.985657,165.832474 
z"/>
<path fill="#02B7D5" opacity="1.000000" stroke="none" 
	d="
M319.461731,167.982819 
	C320.155701,176.493240 320.385651,185.004837 320.279846,193.780701 
	C290.351624,194.044952 260.759186,194.044952 231.032120,194.044952 
	C225.444290,209.756500 215.840347,221.139206 201.629974,227.589066 
	C188.431732,233.579575 174.298599,234.307083 160.520081,229.338821 
	C137.018341,220.864532 121.544884,199.617477 125.153381,170.058014 
	C128.133881,145.642761 148.251297,126.296303 173.994583,124.132698 
	C198.765747,122.050789 225.292664,136.020340 232.172028,167.984009 
	C261.175842,167.984009 290.086792,167.984009 319.461731,167.982819 
z"/>
<path fill="#03B7D5" opacity="1.000000" stroke="none" 
	d="
M1161.595581,189.059113 
	C1161.357788,180.646622 1161.579468,172.232086 1162.012695,163.486145 
	C1172.047119,163.104431 1181.870605,162.974518 1191.692505,163.051758 
	C1194.683472,163.075287 1196.209229,162.387756 1197.476440,159.198853 
	C1206.447998,136.620544 1226.252930,122.925766 1251.205078,124.061218 
	C1277.039673,125.236824 1297.818359,144.094727 1301.751587,168.466873 
	C1304.859131,187.721863 1299.752563,205.250916 1284.693726,218.636780 
	C1275.449463,226.854172 1264.655640,231.766876 1251.879883,232.088654 
	C1239.158081,232.409119 1227.392456,230.342468 1216.886597,222.544724 
	C1206.550537,214.873016 1199.337402,205.118652 1196.138794,192.703354 
	C1195.355469,189.663300 1194.231201,188.997040 1191.536011,189.019318 
	C1181.709595,189.100586 1171.882202,189.054916 1161.595581,189.059113 
z"/>
<path fill="#07B6D3" opacity="1.000000" stroke="none" 
	d="
M594.520691,165.890167 
	C603.278503,172.896774 611.507263,180.038849 619.908569,186.971710 
	C622.056946,188.744644 624.751526,189.855804 627.325562,191.525696 
	C613.357788,191.856598 599.258850,191.872375 585.161438,192.022949 
	C562.987427,192.259766 540.814331,192.587357 518.185730,192.693817 
	C520.722473,189.317581 523.933350,186.298843 526.655029,182.889557 
	C530.729431,177.785721 534.459961,172.407349 538.669495,167.069000 
	C557.353394,166.644119 575.704529,166.295990 594.520691,165.890167 
z"/>
<path fill="#09B5D2" opacity="1.000000" stroke="none" 
	d="
M778.460449,191.039520 
	C775.540222,188.647552 773.292053,185.980545 770.599609,183.884018 
	C762.687744,177.723145 754.599365,171.788773 746.469238,165.483276 
	C762.787842,165.111938 779.217224,164.984573 795.646729,164.945831 
	C809.761536,164.912537 823.876648,164.980484 838.454651,165.014145 
	C839.057800,173.470383 839.197876,181.916138 839.136841,190.741852 
	C818.933716,191.089600 798.931641,191.057373 778.460449,191.039520 
z"/>
<path fill="#231F20" opacity="1.000000" stroke="none" 
	d="
M21.999271,420.959198 
	C22.248734,415.209442 22.197113,409.916107 22.810299,404.700897 
	C24.087231,393.840454 35.016006,388.195007 44.054131,388.993927 
	C53.806797,389.856049 59.921535,395.099365 62.589092,405.998230 
	C65.167305,405.998230 67.803955,405.998230 70.429832,405.998230 
	C73.479736,414.651398 76.457771,423.100616 79.592270,431.993774 
	C81.817368,424.977386 84.083900,418.347107 85.996147,411.616150 
	C87.240685,407.235474 89.493385,404.984528 94.259926,405.962128 
	C95.365967,406.188934 96.558167,405.995636 98.147705,405.995636 
	C92.115723,422.666565 86.330093,438.985840 80.280655,455.206696 
	C77.999939,461.322174 74.876762,462.532440 66.220825,461.614868 
	C66.220825,459.373810 66.220825,457.091827 66.220825,454.768402 
	C73.733139,452.369141 76.055077,447.517914 73.197113,439.545471 
	C69.838417,430.176270 66.053650,420.949219 63.019444,411.479187 
	C61.694626,407.344360 59.397289,406.551941 55.756992,406.991821 
	C54.777016,407.110260 53.770580,407.009766 52.825035,407.009766 
	C50.290585,400.855103 45.023521,397.762665 39.354275,399.011414 
	C34.873592,399.998413 32.045479,404.519043 32.005829,410.852264 
	C31.976578,415.524139 32.003788,420.196411 32.013687,424.868500 
	C32.025490,430.439911 35.157566,435.797363 39.556549,436.759399 
	C44.465393,437.832947 48.029522,436.044556 51.396049,431.832153 
	C53.078232,429.727356 57.828976,430.074951 61.216602,429.307678 
	C62.385811,436.076752 57.231918,443.400421 49.797714,445.654968 
	C40.063168,448.607147 30.136742,446.135345 24.916258,436.995789 
	C22.445446,432.670105 22.880661,426.684540 21.999271,420.959198 
z"/>
<path fill="#231F20" opacity="1.000000" stroke="none" 
	d="
M840.006592,425.069031 
	C843.451294,431.997375 846.852844,438.554504 850.535706,445.653992 
	C846.372559,445.653992 842.838013,445.653992 839.297546,445.653992 
	C835.443665,437.918488 831.542480,430.088043 827.574463,422.123474 
	C824.676453,422.123474 821.690430,422.123474 818.272217,422.123474 
	C818.272217,429.835510 818.272217,437.582306 818.272217,445.663025 
	C815.120728,445.663025 812.381836,445.663025 809.316162,445.663025 
	C809.316162,427.454498 809.316162,409.053833 809.316162,390.028931 
	C818.403137,390.028931 827.717346,389.376953 836.880554,390.271393 
	C842.451721,390.815216 846.760925,395.455292 847.741333,400.984985 
	C848.852051,407.249542 848.679016,413.927429 842.860962,418.580963 
	C841.492676,419.675415 839.860535,420.439941 838.217285,421.436615 
	C838.794434,422.514587 839.378906,423.606201 840.006592,425.069031 
M819.734314,398.007141 
	C819.158508,398.617706 818.102905,399.213470 818.083496,399.841309 
	C817.941345,404.440918 818.006836,409.046936 818.006836,413.787811 
	C819.109375,413.882233 819.741577,413.979736 820.374390,413.983246 
	C823.698914,414.001709 827.027893,414.104767 830.347290,413.974335 
	C835.496094,413.771942 839.146301,409.909698 838.992126,405.025574 
	C838.857300,400.754089 835.476501,398.049225 830.166077,398.004181 
	C827.007874,397.977386 823.849304,398.000244 819.734314,398.007141 
z"/>
<path fill="#06B5D2" opacity="1.000000" stroke="none" 
	d="
M1081.353760,162.991440 
	C1081.740845,171.490982 1081.672119,179.992508 1081.268799,188.757812 
	C1065.630493,189.349609 1050.326538,189.677643 1034.560913,190.002106 
	C1033.881836,181.498154 1033.664551,172.997772 1033.762695,164.206711 
	C1049.684814,163.608490 1065.291260,163.300964 1081.353760,162.991440 
z"/>
<path fill="#231F20" opacity="1.000000" stroke="none" 
	d="
M549.740967,400.952393 
	C545.724731,400.246216 542.106628,399.242645 538.455505,399.103058 
	C534.329285,398.945282 531.044006,401.721069 531.358521,405.498383 
	C531.551147,407.810760 534.854980,410.487915 537.384155,411.813507 
	C540.133301,413.254456 543.584045,413.439514 546.763428,413.961273 
	C556.477783,415.555481 560.352783,421.000031 560.004883,432.760132 
	C559.797668,439.764679 553.742188,444.971069 545.730591,446.103149 
	C537.042603,447.330750 529.084778,446.005524 521.800354,441.198486 
	C520.427795,440.292755 517.045654,439.487549 519.906433,436.673676 
	C522.009399,434.605133 522.881165,429.889893 527.662598,433.200928 
	C533.274170,437.086792 539.599243,438.581360 546.040344,435.849731 
	C548.130920,434.963104 550.445740,432.222626 550.735352,430.071289 
	C551.102356,427.345093 549.611389,424.425934 545.819885,423.922607 
	C541.992859,423.414581 538.172668,422.686676 534.431885,421.732147 
	C526.388184,419.679626 520.213074,412.384644 521.165222,405.554962 
	C522.660217,394.830383 526.247192,390.398010 536.882629,389.295532 
	C542.573120,388.705627 548.658020,390.765350 554.402588,392.255402 
	C558.293335,393.264557 560.242004,395.719574 556.289124,399.383392 
	C555.264221,400.333344 554.640015,401.715698 553.834412,402.895630 
	C552.391846,402.172668 551.258179,401.604553 549.740967,400.952393 
z"/>
<path fill="#231F20" opacity="1.000000" stroke="none" 
	d="
M252.854980,389.999817 
	C263.214691,388.766968 269.536072,396.272675 270.992706,405.564728 
	C272.172455,413.090637 266.375214,422.264282 258.646332,423.602844 
	C253.160431,424.552917 247.377319,423.786987 241.304169,423.786987 
	C241.304169,431.138397 241.304169,438.210754 241.304169,445.641113 
	C237.830078,445.641113 234.760941,445.641113 231.334839,445.641113 
	C231.334839,427.486816 231.334839,409.088837 231.334839,389.999847 
	C238.212692,389.999847 245.294724,389.999847 252.854980,389.999817 
M244.637604,415.000000 
	C247.627197,414.999146 250.622498,414.880402 253.605072,415.024689 
	C258.233459,415.248596 260.131439,412.096619 260.845947,408.522797 
	C261.544983,405.026306 261.547424,400.986694 256.689575,399.992493 
	C251.598358,398.950500 246.443832,398.217896 240.999146,397.296265 
	C240.999146,403.197235 240.840439,407.685150 241.120941,412.145447 
	C241.183884,413.146362 242.783081,414.050690 244.637604,415.000000 
z"/>
<path fill="#231F20" opacity="1.000000" stroke="none" 
	d="
M101.030197,444.711060 
	C100.999123,426.315643 100.999123,408.394135 100.999123,390.233124 
	C104.085716,390.233124 106.813797,390.233124 109.930679,390.233124 
	C109.930679,396.391144 109.930679,402.432892 109.930679,409.024689 
	C114.789047,405.536621 119.294403,403.691589 124.854454,405.859467 
	C130.532288,408.073334 133.841095,411.955597 133.982315,418.056000 
	C134.082336,422.377045 133.721069,426.725128 134.069595,431.020233 
	C134.576096,437.262054 132.254501,442.039276 126.948540,444.944824 
	C121.418365,447.973114 115.821693,447.275757 110.699608,443.489929 
	C108.179153,447.989624 104.511673,445.970520 101.030197,444.711060 
M119.132767,414.016388 
	C117.232216,414.703735 114.945206,414.938232 113.506134,416.166321 
	C109.728790,419.389862 109.503311,431.792969 112.940002,435.431091 
	C115.531395,438.174347 119.838974,438.558411 122.769592,435.668701 
	C127.234581,431.265991 125.312912,417.613922 119.132767,414.016388 
z"/>
<path fill="#221F20" opacity="1.000000" stroke="none" 
	d="
M1166.630859,443.853577 
	C1152.134155,451.098450 1139.432007,443.758057 1136.911743,434.024261 
	C1134.864746,426.117798 1135.447876,417.439270 1135.511353,409.108063 
	C1135.557129,403.079041 1137.527100,397.745331 1142.730103,393.585602 
	C1152.818481,385.519897 1169.178589,387.684082 1174.954712,401.985748 
	C1175.537842,403.429443 1175.686401,405.048737 1176.130249,406.998138 
	C1173.324097,406.998138 1170.802368,407.279724 1168.391479,406.884888 
	C1167.094482,406.672516 1165.572510,405.554810 1164.867188,404.406372 
	C1161.942627,399.644073 1158.051270,397.774902 1152.889404,399.058868 
	C1149.244385,399.965576 1145.179932,404.992889 1145.047974,409.283203 
	C1144.869019,415.108612 1144.672729,420.968506 1145.110107,426.766388 
	C1145.442749,431.176575 1147.854248,434.945038 1152.165161,436.524902 
	C1155.670776,437.809601 1159.821167,437.749207 1162.002441,434.282776 
	C1165.624512,428.526855 1170.741333,430.050171 1176.153687,430.172272 
	C1174.277710,435.795410 1172.349243,440.870941 1166.630859,443.853577 
z"/>
<path fill="#221F20" opacity="1.000000" stroke="none" 
	d="
M1075.999268,417.000000 
	C1075.999390,407.872070 1075.999390,399.244171 1075.999390,390.305664 
	C1078.927368,390.305664 1081.659058,390.305664 1084.765137,390.305664 
	C1084.765137,395.954559 1084.765137,401.709808 1084.765137,405.995239 
	C1089.964111,405.995239 1094.928955,405.263885 1099.568604,406.180176 
	C1105.380737,407.327972 1108.001831,411.724091 1108.004395,417.717560 
	C1108.008301,426.994049 1108.005371,436.270538 1108.005371,445.784851 
	C1104.906494,445.784851 1102.179321,445.784851 1099.003296,445.784851 
	C1099.003296,437.685730 1099.024170,429.748840 1098.994751,421.812134 
	C1098.979370,417.638184 1095.608887,413.961304 1091.932251,414.005859 
	C1088.402100,414.048645 1085.121826,417.442169 1085.056030,421.562988 
	C1084.929321,429.518921 1085.019043,437.478333 1085.019043,445.725342 
	C1082.015991,445.725342 1079.284546,445.725342 1075.999268,445.725342 
	C1075.999268,436.339966 1075.999268,426.919983 1075.999268,417.000000 
z"/>
<path fill="#231F20" opacity="1.000000" stroke="none" 
	d="
M277.000580,426.999512 
	C277.000549,414.530487 277.000549,402.561371 277.000549,390.293457 
	C279.970673,390.293457 282.699829,390.293457 285.827820,390.293457 
	C285.827820,395.985138 285.827820,401.728699 285.827820,406.081024 
	C291.224152,406.081024 296.317810,405.451141 301.165253,406.273132 
	C305.310944,406.976196 309.442627,412.517761 309.162872,417.362061 
	C308.626617,426.647949 309.006866,435.986786 309.006866,445.657471 
	C306.473022,445.657471 304.073975,445.657471 301.000732,445.657471 
	C301.000732,440.465851 301.121857,435.031738 300.956604,429.606384 
	C300.852631,426.192383 301.166534,422.360809 299.720306,419.516113 
	C298.486267,417.088715 295.087128,414.476471 292.504547,414.323059 
	C288.680634,414.095947 286.116028,417.324341 286.051331,421.470917 
	C285.927063,429.443420 286.015167,437.419189 286.015167,445.705872 
	C283.064880,445.705872 280.332001,445.705872 277.000610,445.705872 
	C277.000610,439.700958 277.000610,433.600220 277.000580,426.999512 
z"/>
<path fill="#231F20" opacity="1.000000" stroke="none" 
	d="
M984.064697,404.996521 
	C988.643677,406.128235 993.082703,406.672272 996.777588,408.624634 
	C998.826843,409.707458 1000.701904,413.095062 1000.811829,415.527161 
	C1001.260742,425.460754 1000.998962,435.426483 1000.998962,446.027222 
	C993.256653,446.027222 985.638611,446.642853 978.167786,445.857574 
	C970.388550,445.039886 967.317505,437.552155 968.071411,432.765869 
	C969.027771,426.694214 972.696472,422.186920 980.622742,422.011902 
	C984.252625,421.931763 987.885681,421.998291 992.994141,421.998291 
	C991.674744,418.897095 991.059570,414.895111 989.631775,414.580414 
	C985.546082,413.679962 980.690186,412.253082 977.353394,417.286499 
	C974.814331,415.356354 972.397888,413.519409 970.006348,411.701355 
	C973.515381,407.069733 977.946777,404.752899 984.064697,404.996521 
M989.379883,428.999359 
	C986.325256,429.334839 983.212280,429.408539 980.231262,430.073883 
	C976.723999,430.856659 976.161926,433.618744 978.723206,436.202637 
	C981.110229,438.610748 988.990967,439.030609 990.889160,436.354553 
	C992.425842,434.188049 993.652588,431.182465 989.379883,428.999359 
z"/>
<path fill="#231F20" opacity="1.000000" stroke="none" 
	d="
M451.943787,405.544373 
	C456.640015,405.507477 461.076904,405.408295 465.389038,406.093933 
	C470.760620,406.948029 473.973297,411.215881 473.992615,416.676666 
	C474.026611,426.284882 474.002106,435.893311 474.002106,445.999359 
	C466.137848,445.999359 458.539246,446.450714 451.025085,445.848694 
	C445.557678,445.410645 440.738129,438.777466 441.052734,433.699585 
	C441.441956,427.416321 446.826691,422.162994 453.146545,422.016510 
	C456.944305,421.928497 460.745789,422.000336 466.010956,422.000336 
	C464.704895,418.922943 464.108887,414.941162 462.663330,414.604187 
	C458.612213,413.659912 453.808014,412.227142 450.553650,417.003296 
	C448.013824,415.197388 445.645264,413.513245 442.190887,411.057007 
	C445.711517,409.107361 448.670288,407.468842 451.943787,405.544373 
M452.762909,437.216278 
	C462.055634,439.735809 465.447937,437.515839 464.590454,428.667725 
	C461.093201,429.112213 457.559479,429.368164 454.109100,430.047516 
	C449.532623,430.948578 449.029663,432.902100 452.762909,437.216278 
z"/>
<path fill="#231F20" opacity="1.000000" stroke="none" 
	d="
M1178.183594,431.384216 
	C1177.917480,425.087646 1177.608276,419.226440 1180.645630,413.773163 
	C1184.236450,407.326538 1191.273438,403.647430 1197.946655,405.020081 
	C1205.601807,406.594727 1211.408691,412.818939 1211.974731,420.278412 
	C1212.184448,423.043549 1212.008545,425.837921 1212.008545,428.929077 
	C1203.486328,428.929077 1195.393921,428.929077 1187.228027,428.929077 
	C1189.127686,437.041626 1193.792236,439.889648 1199.997925,437.007660 
	C1206.212158,434.121704 1206.212158,434.121735 1211.250610,440.288757 
	C1206.282959,444.865997 1200.448853,447.702209 1193.777832,446.776306 
	C1185.340820,445.605286 1179.850342,440.539429 1178.183594,431.384216 
M1197.330566,422.002991 
	C1199.127441,422.002991 1200.924316,422.002991 1202.988159,422.002991 
	C1202.119629,416.889038 1199.894409,413.787842 1194.629639,414.005676 
	C1189.695435,414.209808 1187.681030,417.213745 1187.169678,422.002899 
	C1190.422363,422.002899 1193.412598,422.002899 1197.330566,422.002991 
z"/>
<path fill="#231F20" opacity="1.000000" stroke="none" 
	d="
M1290.171143,429.694397 
	C1292.438599,437.193115 1297.579224,440.403290 1302.764038,436.849182 
	C1308.428711,432.965973 1311.039551,435.808258 1313.970215,439.794739 
	C1309.078979,445.465363 1300.866089,448.784149 1292.184326,445.679291 
	C1285.313110,443.221802 1281.142944,436.421875 1280.975708,427.936584 
	C1280.835571,420.823792 1281.563599,413.921600 1287.339233,408.974182 
	C1292.727539,404.358765 1298.702393,403.942688 1305.426880,406.726685 
	C1312.461914,409.639130 1314.029053,415.406586 1314.951660,421.790771 
	C1315.257446,423.906799 1315.000000,426.104187 1315.000000,429.283936 
	C1306.721191,429.283936 1298.507080,429.283936 1290.171143,429.694397 
M1299.234009,414.007935 
	C1293.692383,413.590698 1290.800049,416.258270 1290.126465,421.853699 
	C1295.356323,421.853699 1300.428589,421.853699 1307.348389,421.853699 
	C1304.315552,418.601685 1302.181519,416.313507 1299.234009,414.007935 
z"/>
<path fill="#231F20" opacity="1.000000" stroke="none" 
	d="
M166.930756,429.002625 
	C160.780807,429.002533 155.123138,429.002533 149.464172,429.002533 
	C149.550797,436.073059 156.001617,440.533081 161.733902,436.836578 
	C167.353271,433.212891 170.060165,435.677399 172.965210,439.793945 
	C168.225616,445.377350 159.844406,448.794220 151.173935,445.685760 
	C144.514099,443.298126 140.158936,436.450134 139.991119,428.352142 
	C139.832993,420.720428 140.513870,413.373993 147.240692,408.275879 
	C153.055450,403.869019 159.211212,404.134827 165.532654,407.184906 
	C171.574127,410.099884 173.360657,415.505249 173.962952,421.546234 
	C174.190643,423.829987 173.999893,426.155457 173.999893,429.002716 
	C171.639023,429.002716 169.531006,429.002716 166.930756,429.002625 
M153.626892,414.870361 
	C151.879349,416.874542 150.131805,418.878754 147.624542,421.754211 
	C154.444687,421.754211 159.610764,421.754211 164.848480,421.754211 
	C162.713821,414.523865 161.429367,413.648285 153.626892,414.870361 
z"/>
<path fill="#231F20" opacity="1.000000" stroke="none" 
	d="
M952.005310,429.001465 
	C947.520203,429.001801 943.528076,429.001801 939.511719,429.001801 
	C941.323486,438.959351 948.440796,440.971802 957.030579,433.952820 
	C958.797058,436.065887 960.578674,438.197021 962.465881,440.454498 
	C959.847473,444.246185 951.264771,447.958527 946.542358,446.841492 
	C936.124329,444.377258 932.330933,440.640350 930.947266,432.221802 
	C929.518494,423.529724 929.811829,415.334351 936.717712,408.832123 
	C942.148926,403.718323 948.697510,404.043701 954.920044,406.575256 
	C960.368896,408.792084 963.424683,413.524841 963.953430,419.498047 
	C964.214661,422.449799 963.998779,425.443787 963.998779,429.001099 
	C960.033569,429.001099 956.265930,429.001099 952.005310,429.001465 
M949.091736,414.007629 
	C941.903992,414.030060 940.841919,414.932281 939.819031,421.640198 
	C944.817749,421.640198 949.855469,421.640198 954.893250,421.640198 
	C955.198975,421.242188 955.504700,420.844208 955.810425,420.446198 
	C953.846436,418.304199 951.882385,416.162231 949.091736,414.007629 
z"/>
<path fill="#221F20" opacity="1.000000" stroke="none" 
	d="
M565.996460,424.125153 
	C565.765686,409.447388 576.370361,401.927612 588.729492,406.014648 
	C594.680115,407.982452 598.992432,414.187653 599.003784,420.615204 
	C599.008423,423.245361 599.004578,425.875549 599.004578,428.885681 
	C590.953491,428.885681 583.204956,428.885681 573.692383,428.885681 
	C575.685181,432.199677 576.623230,434.984131 578.534119,436.657928 
	C581.602051,439.345093 585.007507,438.463074 592.328064,434.224426 
	C594.470093,435.917755 596.623901,437.620392 598.778442,439.322723 
	C593.731079,447.673859 580.007812,449.067810 572.219482,443.011597 
	C568.072815,439.787109 566.075256,435.348175 565.998840,430.081421 
	C565.972290,428.252472 565.998169,426.422760 565.996460,424.125153 
M576.364380,417.093658 
	C575.820068,418.569977 575.275696,420.046265 574.618591,421.828430 
	C580.286499,421.828430 585.026245,421.828430 591.566528,421.828430 
	C588.977417,418.613464 587.596619,415.500702 585.256714,414.366455 
	C582.648743,413.102173 579.070190,413.293457 576.364380,417.093658 
z"/>
<path fill="#231F20" opacity="1.000000" stroke="none" 
	d="
M869.439453,437.983551 
	C873.474731,437.002991 877.098511,436.019806 881.303955,434.878815 
	C882.663452,435.953400 884.812988,437.652466 886.954163,439.344910 
	C881.682617,446.653351 871.885071,448.707764 863.194641,444.893097 
	C858.833984,442.978943 855.729919,439.417511 854.871765,434.413910 
	C853.269104,425.068817 852.140503,415.549988 860.185242,408.488037 
	C865.289917,404.006897 871.896057,403.559509 877.966980,406.626862 
	C883.224304,409.283081 887.076843,413.499603 887.008423,420.053741 
	C886.979187,422.854095 887.003601,425.654999 887.003601,428.855713 
	C878.999878,428.855713 871.253540,428.855713 863.259033,428.855713 
	C862.480957,433.981079 865.142151,436.368134 869.439453,437.983551 
M868.635376,422.003021 
	C871.620728,422.003021 874.606140,422.003021 877.569275,422.003021 
	C877.891602,417.731354 875.271606,414.327393 871.645020,414.017944 
	C866.410095,413.571259 863.823730,415.943085 863.217407,422.003021 
	C864.729858,422.003021 866.217712,422.003021 868.635376,422.003021 
z"/>
<path fill="#231F20" opacity="1.000000" stroke="none" 
	d="
M352.264832,441.801147 
	C350.944275,440.854004 349.899780,440.165039 348.610229,439.314392 
	C351.035950,437.254425 353.157867,435.452393 354.845245,434.019409 
	C358.969452,435.259583 363.497009,436.687317 368.073029,437.937866 
	C368.930573,438.172211 370.254150,438.020630 370.889435,437.485382 
	C372.399933,436.212830 373.627014,434.603790 374.968597,433.130737 
	C373.288208,432.091339 371.727020,430.596405 369.899750,430.118225 
	C367.089752,429.382904 364.056915,429.545654 361.190186,428.970673 
	C355.254730,427.780243 352.480316,424.575165 351.965057,419.416199 
	C351.191589,411.672150 354.728912,407.940857 359.779388,406.234589 
	C368.082397,403.429504 376.106995,404.512177 383.016602,410.507324 
	C378.994843,417.432404 379.069580,417.220215 372.124023,414.773560 
	C369.606567,413.886719 366.589478,413.918701 363.897186,414.271118 
	C362.805054,414.414062 361.971191,416.530060 361.019806,417.748260 
	C362.465820,418.828125 363.779663,420.515991 365.384583,420.864838 
	C369.041901,421.659912 372.939697,421.405396 376.558472,422.306000 
	C380.798096,423.361084 383.383484,426.522705 383.979340,430.919647 
	C384.834229,437.227844 382.888763,441.251617 377.636353,444.053253 
	C368.879944,448.723969 360.561005,447.075287 352.264832,441.801147 
z"/>
<path fill="#231F20" opacity="1.000000" stroke="none" 
	d="
M916.596741,406.014648 
	C919.390625,407.356506 921.767395,408.682312 924.075195,409.969604 
	C921.173889,417.444916 920.270996,417.645874 913.736023,415.074219 
	C911.122437,414.045776 907.965332,413.981110 905.109436,414.195496 
	C903.997925,414.278900 902.566162,416.213501 902.203308,417.554626 
	C902.023926,418.217590 903.786011,419.986664 904.937744,420.315247 
	C907.876160,421.153412 910.952332,421.800751 913.996704,421.918152 
	C921.654907,422.213501 924.682495,426.820709 925.041382,432.251678 
	C925.583008,440.448029 921.492981,444.330688 914.344421,446.000336 
	C904.999756,448.182861 897.021057,445.292175 889.955017,439.152740 
	C894.639221,433.099426 894.981873,433.383514 901.537598,435.940308 
	C904.871948,437.240753 908.921387,437.069702 912.613037,436.882568 
	C913.795837,436.822632 914.867920,434.578217 915.990662,433.333252 
	C914.567017,432.222992 913.284790,430.496826 911.690308,430.130859 
	C908.387695,429.372833 904.872314,429.583588 901.529846,428.947388 
	C896.662720,428.020996 893.061218,423.319244 892.995911,418.373077 
	C892.915405,412.282410 896.207825,406.802521 901.294861,406.144836 
	C906.181091,405.513092 911.212219,406.002075 916.596741,406.014648 
z"/>
<path fill="#231F20" opacity="1.000000" stroke="none" 
	d="
M321.513550,406.014679 
	C324.624329,413.001343 327.320038,419.968323 329.953613,426.958710 
	C330.518280,428.457428 330.858032,430.040894 331.501740,432.283203 
	C333.819214,424.989563 336.103027,418.386292 337.985199,411.670441 
	C339.217255,407.274384 341.413422,404.985352 346.207306,405.957947 
	C347.316010,406.182892 348.509247,405.991150 350.181061,405.991150 
	C345.553040,418.866425 341.052856,431.352112 336.583191,443.848724 
	C335.664368,446.417694 334.951538,449.062286 333.984833,451.611755 
	C331.008820,459.459930 328.606415,463.081543 318.255798,461.701050 
	C318.255798,459.475128 318.255798,457.204681 318.255798,454.852081 
	C326.090759,451.858154 328.038910,447.462555 325.074127,439.330780 
	C321.074188,428.359863 317.133942,417.367188 313.030670,406.003357 
	C315.832855,406.003357 318.454559,406.003357 321.513550,406.014679 
z"/>
<path fill="#231F20" opacity="1.000000" stroke="none" 
	d="
M761.687866,441.260193 
	C757.233765,429.520142 753.031494,418.089600 748.847473,406.708557 
	C749.356140,406.384003 749.607788,406.086761 749.873108,406.073975 
	C758.302307,405.668304 758.286499,405.677948 761.041199,413.796448 
	C762.983948,419.522217 764.977417,425.230774 767.259888,431.850952 
	C769.749207,424.222626 772.156921,417.756470 773.915588,411.118378 
	C774.996643,407.037964 776.890686,405.261719 781.101501,405.957306 
	C782.556396,406.197662 784.084473,405.995605 785.752869,405.995605 
	C779.778625,422.841766 773.957092,439.522034 767.914734,456.121948 
	C766.256287,460.678101 761.755188,462.309296 754.250671,461.702698 
	C754.250671,459.302063 754.250671,456.874573 754.245239,454.445068 
	C761.028320,453.927124 762.820862,447.049683 761.687866,441.260193 
z"/>
<path fill="#221F20" opacity="1.000000" stroke="none" 
	d="
M1218.996704,443.770630 
	C1218.997314,431.006317 1218.997314,418.721924 1218.997314,405.939880 
	C1222.442627,406.682465 1226.129517,404.308472 1228.846680,408.318817 
	C1233.181519,404.088806 1239.024780,403.751465 1244.580444,406.373749 
	C1250.161133,409.007782 1252.252197,414.175537 1252.061279,420.452820 
	C1251.808594,428.752136 1251.998901,437.064941 1251.998901,445.700897 
	C1249.060913,445.700897 1246.329712,445.700897 1242.993286,445.700897 
	C1242.993286,438.019104 1243.349365,430.229767 1242.794922,422.505798 
	C1242.607788,419.898224 1240.673340,416.460480 1238.503540,415.239624 
	C1236.614502,414.176819 1232.588135,414.857208 1230.762573,416.327454 
	C1229.008179,417.740295 1228.251343,421.127258 1228.133179,423.696259 
	C1227.798950,430.969666 1228.016235,438.268372 1228.016235,446.853485 
	C1224.574463,445.860291 1221.785278,445.055420 1218.996704,443.770630 
z"/>
<path fill="#221F20" opacity="1.000000" stroke="none" 
	d="
M667.134521,406.002289 
	C669.576965,405.999115 671.544739,405.999115 674.001648,405.999115 
	C674.001648,412.904022 674.001648,419.515564 674.001648,426.127106 
	C674.001648,432.591919 674.001648,439.056732 674.001648,446.062103 
	C670.629700,445.157806 666.839966,448.044708 664.501953,443.652557 
	C656.723389,449.076660 648.019348,447.479279 643.156372,439.506439 
	C641.883179,437.419006 641.170593,434.685516 641.100769,432.223206 
	C640.856689,423.610992 641.006226,414.987640 641.006226,406.185120 
	C644.045959,406.185120 646.667236,406.185120 650.003296,406.185120 
	C650.003296,412.809082 649.925659,419.561768 650.049744,426.310699 
	C650.087952,428.389099 650.420288,430.542389 651.071594,432.511292 
	C652.176636,435.851501 654.614075,437.765533 658.265137,437.251770 
	C662.165344,436.703003 665.029419,434.917084 665.007141,430.364227 
	C664.973694,423.532623 664.912231,416.698700 665.072266,409.870728 
	C665.102722,408.570587 666.105713,407.293304 667.134521,406.002289 
z"/>
<path fill="#231F20" opacity="1.000000" stroke="none" 
	d="
M1039.004883,417.403198 
	C1045.433105,404.518524 1056.024536,401.598083 1067.535278,408.782196 
	C1071.253174,411.102631 1072.541992,412.766449 1068.091553,415.465729 
	C1067.143311,416.040894 1066.532227,417.172302 1066.109497,417.654907 
	C1062.234985,416.335938 1058.810669,414.174408 1055.428101,414.237732 
	C1049.420410,414.350250 1045.567505,422.169922 1047.088501,429.266052 
	C1048.913818,437.781952 1057.080688,439.888306 1062.679199,435.100189 
	C1066.401733,431.916595 1068.502563,436.543121 1070.966553,438.494263 
	C1068.268921,445.182159 1058.672241,448.157196 1049.816040,445.923309 
	C1043.626099,444.361908 1038.190063,436.685944 1038.064941,429.053650 
	C1038.003662,425.314972 1038.661743,421.564514 1039.004883,417.403198 
z"/>
<path fill="#221F20" opacity="1.000000" stroke="none" 
	d="
M417.275513,445.067993 
	C407.956329,438.417236 404.594543,429.458740 407.219727,419.424805 
	C409.203705,411.841705 413.998535,406.892303 421.561005,405.262665 
	C428.786346,403.705658 434.942841,406.360352 440.425964,412.009369 
	C438.059692,413.710602 435.796753,415.337585 433.527802,416.968903 
	C431.006287,416.213135 427.311127,413.987396 423.851471,414.307434 
	C417.185272,414.924103 413.683990,424.461121 416.859650,431.580292 
	C419.709839,437.969727 425.591064,439.403900 431.298584,435.399719 
	C432.319244,434.683716 434.419891,434.855957 435.728333,435.368042 
	C437.321167,435.991455 438.603363,437.408569 440.010620,438.475342 
	C435.338226,446.117462 427.926025,448.302460 417.275513,445.067993 
z"/>
<path fill="#221F20" opacity="1.000000" stroke="none" 
	d="
M604.009277,431.457458 
	C604.065186,427.188812 603.759338,423.314026 604.277466,419.552734 
	C605.170715,413.068390 609.108032,408.233368 615.069641,406.159698 
	C623.493042,403.229736 631.131714,405.173157 637.088623,412.805023 
	C636.028076,413.744598 634.749207,414.611511 633.815125,415.759125 
	C631.695435,418.363159 630.146118,418.325012 627.276917,416.183289 
	C625.222778,414.649994 621.052429,413.928589 618.940002,415.013519 
	C616.355164,416.341125 613.686279,419.754272 613.278442,422.586029 
	C612.515991,427.879822 611.655212,434.306458 618.637878,436.714569 
	C621.085876,437.558807 625.231018,437.797119 626.681091,436.366272 
	C630.247620,432.846863 632.233032,434.148987 634.688171,437.117706 
	C635.253662,437.801514 636.214294,438.158600 637.166443,438.779022 
	C633.395142,444.932373 627.333862,447.198914 620.934998,446.753510 
	C613.243164,446.218109 607.012756,442.468628 604.941406,434.122742 
	C604.750549,433.353638 604.331482,432.641174 604.009277,431.457458 
z"/>
<path fill="#231F20" opacity="1.000000" stroke="none" 
	d="
M732.997498,418.157349 
	C732.997498,416.354462 732.997498,415.033539 732.997498,413.378357 
	C731.692993,413.153809 730.492859,412.947235 729.162292,412.718231 
	C729.162292,410.600189 729.162292,408.644287 729.162292,406.368378 
	C730.285339,406.155426 731.494263,405.926178 732.916260,405.656555 
	C732.916260,401.580719 732.916260,397.621307 732.916260,393.331573 
	C735.882141,393.331573 738.618958,393.331573 741.803467,393.331573 
	C741.803467,397.216248 741.803467,401.294495 741.803467,405.697845 
	C743.949829,405.873962 745.692322,406.016937 747.729980,406.184143 
	C747.729980,408.253113 747.729980,410.329956 747.729980,412.752380 
	C746.072144,412.889862 744.321167,413.035065 742.004822,413.227142 
	C742.004822,420.469421 741.733154,427.763611 742.234070,435.004333 
	C742.334290,436.452454 745.380798,437.696686 747.803223,439.617188 
	C747.803223,440.771240 747.803223,443.192474 747.803223,445.588501 
	C736.244019,446.897858 732.983215,443.995392 732.996399,432.630829 
	C733.001770,427.966980 732.997437,423.303131 732.997498,418.157349 
z"/>
<path fill="#231F20" opacity="1.000000" stroke="none" 
	d="
M1269.465820,445.995117 
	C1263.891602,444.654327 1261.689941,441.473633 1261.917603,436.038757 
	C1262.230225,428.577972 1261.995972,421.094269 1261.995972,413.256165 
	C1260.640137,413.083649 1259.431274,412.929840 1258.131714,412.764465 
	C1258.131714,410.540314 1258.131714,408.585907 1258.131714,406.312897 
	C1259.346924,406.110046 1260.551880,405.908875 1261.956543,405.674347 
	C1261.956543,401.531494 1261.956543,397.576294 1261.956543,393.310120 
	C1264.918457,393.310120 1267.653809,393.310120 1270.822021,393.310120 
	C1270.822021,397.243256 1270.822021,401.322632 1270.822021,405.691284 
	C1272.613281,405.881500 1274.020752,406.030975 1275.722290,406.211670 
	C1275.722290,408.282135 1275.722290,410.355438 1275.722290,412.742828 
	C1274.380005,412.888275 1272.960449,413.042114 1271.005249,413.253967 
	C1271.005249,420.462036 1270.778564,427.751556 1271.196899,435.003876 
	C1271.280396,436.450958 1273.828003,437.755920 1275.860107,439.729126 
	C1275.860107,440.918610 1275.860107,443.205292 1275.860107,445.985260 
	C1273.780029,445.985260 1271.842163,445.985260 1269.465820,445.995117 
z"/>
<path fill="#221F20" opacity="1.000000" stroke="none" 
	d="
M493.002197,413.999969 
	C493.002014,420.487640 493.075836,426.476654 492.973145,432.462585 
	C492.914062,435.904663 492.726105,439.218353 497.888977,437.945557 
	C497.888977,440.816071 497.888977,443.107330 497.888977,446.498352 
	C494.402161,445.796082 490.885376,445.725250 488.058472,444.292908 
	C486.192505,443.347473 484.215759,440.466583 484.174988,438.414764 
	C483.858032,422.477875 483.999969,406.531921 483.999969,390.291412 
	C486.956238,390.291412 489.687042,390.291412 493.002197,390.291412 
	C493.002197,397.984619 493.002197,405.742310 493.002197,413.999969 
z"/>
<path fill="#221F20" opacity="1.000000" stroke="none" 
	d="
M682.998047,431.993408 
	C682.998047,423.197266 682.998047,414.899506 682.998047,406.125854 
	C686.419983,406.757568 690.271240,403.738220 692.604797,408.462555 
	C699.959351,403.636169 705.909790,403.642639 711.203979,408.826141 
	C709.276978,411.290680 707.327881,413.783417 705.397278,416.252502 
	C698.070251,411.110382 692.322693,416.312592 692.042908,424.987946 
	C691.823792,431.781830 691.998901,438.588409 691.998901,445.709625 
	C689.056091,445.709625 686.325867,445.709625 682.998108,445.709625 
	C682.998108,441.351074 682.998108,436.921417 682.998047,431.993408 
z"/>
<path fill="#231F20" opacity="1.000000" stroke="none" 
	d="
M190.012665,422.468872 
	C190.016281,430.399414 190.016281,437.877930 190.016281,445.687256 
	C187.100464,445.687256 184.363953,445.687256 181.308197,445.687256 
	C181.308197,432.761414 181.308197,419.694641 181.308197,406.200348 
	C184.387070,406.823639 188.243042,403.673462 190.593399,408.413330 
	C196.717880,403.584595 202.366028,403.592621 209.155014,408.730957 
	C207.388336,411.019592 205.691299,413.370422 203.794479,415.547150 
	C203.413315,415.984619 202.218887,415.984192 201.491302,415.807465 
	C193.295105,413.816681 192.239029,414.367828 190.012665,422.468872 
z"/>
<path fill="#221F20" opacity="1.000000" stroke="none" 
	d="
M1327.927734,446.003906 
	C1325.815430,446.002014 1324.177002,446.002014 1322.268555,446.002014 
	C1322.268555,432.650513 1322.268555,419.588593 1322.268555,406.532227 
	C1329.338379,405.378540 1329.932495,405.514191 1331.160645,408.544861 
	C1338.510986,403.545441 1343.768799,403.581970 1350.197144,408.893799 
	C1348.205566,411.192139 1346.212036,413.492615 1343.991333,416.055420 
	C1343.347168,415.826355 1342.434937,415.569794 1341.579468,415.186737 
	C1335.961548,412.671478 1331.153809,415.743927 1331.042969,422.099182 
	C1330.924072,428.922852 1330.997681,435.750092 1331.014160,442.575714 
	C1331.018555,444.422150 1331.364624,446.453278 1327.927734,446.003906 
z"/>
<path fill="#221F20" opacity="1.000000" stroke="none" 
	d="
M1010.998291,436.959961 
	C1010.998291,426.513031 1010.998291,416.561432 1010.998291,405.481018 
	C1014.318542,406.160736 1017.216980,406.913300 1020.163269,407.272491 
	C1021.220520,407.401398 1022.399353,406.598328 1023.512512,406.192596 
	C1029.863281,403.877594 1034.294434,404.706543 1038.042236,409.012543 
	C1036.964966,410.563202 1035.856934,412.141937 1034.767090,413.733063 
	C1034.108643,414.694366 1033.478394,415.674896 1033.011597,416.380463 
	C1024.458740,412.290039 1020.005676,415.066132 1020.001282,423.565430 
	C1019.997498,430.853760 1020.000427,438.142090 1020.000427,445.726807 
	C1017.020386,445.726807 1014.291992,445.726807 1010.998291,445.726807 
	C1010.998291,442.995605 1010.998291,440.225464 1010.998291,436.959961 
z"/>
<path fill="#221F20" opacity="1.000000" stroke="none" 
	d="
M400.003174,408.235291 
	C400.005737,420.987579 400.005737,433.260498 400.005737,445.765625 
	C396.894409,445.765625 394.165741,445.765625 391.205688,445.765625 
	C391.205688,432.560516 391.205688,419.505798 391.205688,405.204071 
	C394.426666,406.138641 397.213623,406.947266 400.003174,408.235291 
z"/>
<path fill="#221F20" opacity="1.000000" stroke="none" 
	d="
M718.032227,405.996246 
	C719.812805,405.997467 721.121277,405.997467 722.720886,405.997467 
	C722.720886,419.288818 722.720886,432.347565 722.720886,445.706238 
	C720.047363,445.706238 717.317017,445.706238 713.996277,445.706238 
	C713.996277,433.163513 713.940491,420.576599 714.148193,407.994019 
	C714.159546,407.309113 716.372192,406.660522 718.032227,405.996246 
z"/>
<path fill="#231F20" opacity="1.000000" stroke="none" 
	d="
M394.090088,398.003082 
	C388.383850,397.042480 392.198883,393.032562 390.631348,390.323944 
	C393.864441,390.323944 396.594940,390.323944 399.671783,390.323944 
	C399.671783,392.553101 399.671783,394.950867 399.671783,398.004181 
	C398.065826,398.004181 396.311676,398.004181 394.090088,398.003082 
z"/>
<path fill="#221F20" opacity="1.000000" stroke="none" 
	d="
M714.435608,390.401825 
	C717.384460,390.078552 719.997009,390.078552 722.807617,390.078552 
	C722.807617,392.822327 722.807617,395.218811 722.807617,397.808716 
	C719.986755,397.808716 717.375977,397.808716 714.099243,397.808716 
	C714.099243,395.526398 714.099243,393.125763 714.435608,390.401825 
z"/>
<path fill="#FEFFFF" opacity="1.000000" stroke="none" 
	d="
M398.143433,158.997070 
	C395.048370,159.388382 393.907684,158.682281 393.927155,155.632614 
	C394.065216,134.006027 394.000641,112.378136 394.000641,90.316154 
	C395.289551,90.213661 396.537781,90.031242 397.786469,90.028122 
	C408.767090,90.000702 419.759277,89.690910 430.725098,90.092072 
	C440.907745,90.464584 451.031647,91.777229 460.126282,97.020836 
	C468.054413,101.591873 473.244995,108.262863 473.882965,117.520279 
	C474.250946,122.860046 473.991364,128.417389 472.909576,133.648361 
	C470.222931,146.639832 460.321869,152.420197 448.740570,155.978485 
	C432.302277,161.029068 415.356171,158.352386 398.143433,158.997070 
z"/>
<path fill="#FEFDFD" opacity="1.000000" stroke="none" 
	d="
M820.212585,398.003967 
	C823.849304,398.000244 827.007874,397.977386 830.166077,398.004181 
	C835.476501,398.049225 838.857300,400.754089 838.992126,405.025574 
	C839.146301,409.909698 835.496094,413.771942 830.347290,413.974335 
	C827.027893,414.104767 823.698914,414.001709 820.374390,413.983246 
	C819.741577,413.979736 819.109375,413.882233 818.006836,413.787811 
	C818.006836,409.046936 817.941345,404.440918 818.083496,399.841309 
	C818.102905,399.213470 819.158508,398.617706 820.212585,398.003967 
z"/>
<path fill="#FEFEFE" opacity="1.000000" stroke="none" 
	d="
M244.156311,414.999756 
	C242.783081,414.050690 241.183884,413.146362 241.120941,412.145447 
	C240.840439,407.685150 240.999146,403.197235 240.999146,397.296265 
	C246.443832,398.217896 251.598358,398.950500 256.689575,399.992493 
	C261.547424,400.986694 261.544983,405.026306 260.845947,408.522797 
	C260.131439,412.096619 258.233459,415.248596 253.605072,415.024689 
	C250.622498,414.880402 247.627197,414.999146 244.156311,414.999756 
z"/>
<path fill="#FDFDFD" opacity="1.000000" stroke="none" 
	d="
M119.501381,414.173370 
	C125.312912,417.613922 127.234581,431.265991 122.769592,435.668701 
	C119.838974,438.558411 115.531395,438.174347 112.940002,435.431091 
	C109.503311,431.792969 109.728790,419.389862 113.506134,416.166321 
	C114.945206,414.938232 117.232216,414.703735 119.501381,414.173370 
z"/>
<path fill="#FDFCFC" opacity="1.000000" stroke="none" 
	d="
M989.834717,429.003601 
	C993.652588,431.182465 992.425842,434.188049 990.889160,436.354553 
	C988.990967,439.030609 981.110229,438.610748 978.723206,436.202637 
	C976.161926,433.618744 976.723999,430.856659 980.231262,430.073883 
	C983.212280,429.408539 986.325256,429.334839 989.834717,429.003601 
z"/>
<path fill="#FCFCFC" opacity="1.000000" stroke="none" 
	d="
M452.451355,436.952454 
	C449.029663,432.902100 449.532623,430.948578 454.109100,430.047516 
	C457.559479,429.368164 461.093201,429.112213 464.590454,428.667725 
	C465.447937,437.515839 462.055634,439.735809 452.451355,436.952454 
z"/>
<path fill="#FDFCFC" opacity="1.000000" stroke="none" 
	d="
M1196.866699,422.002930 
	C1193.412598,422.002899 1190.422363,422.002899 1187.169678,422.002899 
	C1187.681030,417.213745 1189.695435,414.209808 1194.629639,414.005676 
	C1199.894409,413.787842 1202.119629,416.889038 1202.988159,422.002991 
	C1200.924316,422.002991 1199.127441,422.002991 1196.866699,422.002930 
z"/>
<path fill="#FCFCFC" opacity="1.000000" stroke="none" 
	d="
M1299.640747,414.016632 
	C1302.181519,416.313507 1304.315552,418.601685 1307.348389,421.853699 
	C1300.428589,421.853699 1295.356323,421.853699 1290.126465,421.853699 
	C1290.800049,416.258270 1293.692383,413.590698 1299.640747,414.016632 
z"/>
<path fill="#FDFCFC" opacity="1.000000" stroke="none" 
	d="
M153.908676,414.579834 
	C161.429367,413.648285 162.713821,414.523865 164.848480,421.754211 
	C159.610764,421.754211 154.444687,421.754211 147.624542,421.754211 
	C150.131805,418.878754 151.879349,416.874542 153.908676,414.579834 
z"/>
<path fill="#FDFCFC" opacity="1.000000" stroke="none" 
	d="
M949.505066,414.013916 
	C951.882385,416.162231 953.846436,418.304199 955.810425,420.446198 
	C955.504700,420.844208 955.198975,421.242188 954.893250,421.640198 
	C949.855469,421.640198 944.817749,421.640198 939.819031,421.640198 
	C940.841919,414.932281 941.903992,414.030060 949.505066,414.013916 
z"/>
<path fill="#FDFCFC" opacity="1.000000" stroke="none" 
	d="
M576.668457,416.817749 
	C579.070190,413.293457 582.648743,413.102173 585.256714,414.366455 
	C587.596619,415.500702 588.977417,418.613464 591.566528,421.828430 
	C585.026245,421.828430 580.286499,421.828430 574.618591,421.828430 
	C575.275696,420.046265 575.820068,418.569977 576.668457,416.817749 
z"/>
<path fill="#FDFCFC" opacity="1.000000" stroke="none" 
	d="
M868.170471,422.003021 
	C866.217712,422.003021 864.729858,422.003021 863.217407,422.003021 
	C863.823730,415.943085 866.410095,413.571259 871.645020,414.017944 
	C875.271606,414.327393 877.891602,417.731354 877.569275,422.003021 
	C874.606140,422.003021 871.620728,422.003021 868.170471,422.003021 
z"/>
</svg>