<svg xmlns="http://www.w3.org/2000/svg" role="img" viewBox="-13.90 -3.90 1398.80 491.80"><path fill="#FEFFFF" d="M1085 490H1.00005c-.00002-162.99997-.00002-325.99994-.00003-488.99993C461.33328 1.00005 921.66657 1.00005 1382 1.00002v488.99986C1283.16663 490 1184.33337 490 1085 490M745.58063 165.02371c-13.89423-5.35452-27.7987-10.68255-41.6795-16.07167-11.80457-4.58302-23.8476-8.66408-35.31068-13.98865-18.66113-8.66802-18.19586-29.83502-6.30853-40.86864 7.05872-6.55181 15.63587-9.18992 24.612-9.94549 20.98126-1.76613 39.53241 4.4225 54.87409 19.16945 6.41296 6.16445 6.34655 6.2957 12.41845-.01251 13.66193-14.19367 27.28992-28.41993 41.0484-42.75445-14.54907-13.4967-31.1773-22.52086-49.64825-28.86693-16.03754-5.51004-32.44226-8.20896-49.17444-8.47847-9.56396-.15404-19.20502 1.47993-28.73523 2.84208-20.6045 2.94503-39.45581 10.02186-55.82446 23.43423-12.79145 10.48123-22.23676 23.1471-27.44037 38.7433-3.89264 11.6667-3.71106 23.87125-3.48254 36.06305.28881 15.41209 5.33538 29.06156 13.12616 41.65887-18.3512.34811-36.70234.69624-55.0484.2782 6.21594-12.57575 8.49621-26.11698 8.83953-39.907.19031-7.64046-.89776-15.3581-1.90783-22.97486-3.45508-26.05336-17.79364-44.69423-40.40027-57.08074-19.43158-10.64684-40.90119-14.635-62.65775-15.0525-39.46087-.75722-78.94665-.21597-118.42206-.20237-1.43283.00049-2.8656.15259-4.53317.24737 0 45.81881 0 91.27223-.92807 136.72803h-86.82568c-6.87937-31.96367-33.40628-45.93322-58.17745-43.85131-25.74328 2.1636-45.8607 21.51006-48.8412 45.92531-3.6085 29.55947 11.86496 50.80652 35.3667 59.28081 13.77852 4.96826 27.91165 4.24076 41.1099-1.74975 14.21037-6.44986 23.81431-17.83257 29.40214-33.54412 29.72707 0 59.3195 0 88.95122.93102v134.80552h74.20855V216.99936c17.1255 0 33.71863.5138 50.25998-.1897 10.17618-.43278 20.43088-2.04332 30.36954-4.34013 15.60416-3.6061 30.03595-10.2316 43.81946-19.59302 22.17346-.28915 44.34656-.61674 66.52057-.85356 14.09741-.15058 28.19635-.16635 43.09216-.09096 9.22778 3.69713 18.4021 7.5351 27.69568 11.05878 14.38916 5.45576 29.15747 10.02066 43.21582 16.21065 15.47131 6.81216 21.08044 17.73732 18.82477 32.77432-1.02942 6.86212-4.1701 12.79642-9.65784 16.85934-11.75897 8.70575-25.65008 9.41144-39.31817 7.87226-12.1521-1.36844-23.73072-5.88572-33.9535-12.81555-6.45141-4.3733-12.95086-9.10285-18.05694-14.88424-3.42627-3.87947-4.64429-3.01713-7.37311-.18664-12.43951 12.90284-24.95062 25.7372-37.49762 38.53572-6.77148 6.90722-6.82751 6.85245.16583 13.4516 12.8899 12.1633 28.11145 20.35434 44.69544 26.21728 23.90442 8.4508 48.43286 12.78665 73.78082 9.85276 11.04053-1.2779 22.20581-2.9372 32.82971-6.06812 26.78028-7.89218 47.66754-23.65756 60.10968-49.22116 5.28351-10.85544 7.3404-22.52081 8.56409-34.60307 1.22967-12.14185.31262-23.85575-3.48566-35.12401-2.46686-7.31809-7.12487-13.89758-9.86303-20.83675 20.00207.03221 40.00415.06444 60.06958 1.01676v137.6757h208.7157v-61.90158H910.30187v-60.99698h123.79724c0-5.86812 0-11.34433.92359-16.81338 15.30383-.32804 30.60778-.65607 45.97863-.1366.33216 1.90176.78906 3.79167.97144 5.70767.41955 4.40943.26074 8.92056 1.1239 13.23288 3.51135 17.5451 8.59253 34.5021 17.36462 50.34485 9.6294 17.39117 21.67041 32.68872 37.25708 44.89014 26.42005 20.68191 56.8562 31.66415 90.14405 33.69873 14.2318.86984 28.66736-.68964 42.95312-1.84943 14.90503-1.21002 28.89148-6.1936 42.34131-12.5426 17.69507-8.35285 32.8678-20.09863 45.85779-35.11218-16.8617-15.85523-33.79785-31.78043-50.80689-47.77422-4.29626 4.58568-7.6908 9.19022-12.00488 12.64732-21.04492 16.8642-45.11182 21.36911-71.0996 15.7606-14.79823-3.19373-27.89771-10.3212-38.60816-21.03618-8.63697-8.6405-15.52112-18.85572-19.22083-30.539-2.89514-9.14333-4.15307-18.8051-5.21911-28.2406 9.82702-.00214 19.65441.04353 29.48083-.03774 2.6952-.02228 3.81946.64398 4.60278 3.68403 3.19861 12.4153 10.41175 22.16967 20.7478 29.84137 10.50587 7.79775 22.2715 9.8644 34.9933 9.54393 12.77575-.32177 23.56957-5.23448 32.81384-13.45187 15.05883-13.38586 20.1654-30.91492 17.05786-50.1699-3.93323-24.37215-24.71192-43.23006-50.54651-44.40566-24.95215-1.13545-44.75708 12.55932-53.72864 35.13763-1.26721 3.1889-2.79297 3.87644-5.78393 3.8529-9.8219-.07723-19.6454.05268-29.64783-.71923 1.99426-7.09344 3.36584-14.43826 6.10815-21.22968 6.34265-15.70801 16.53772-28.78682 30.78906-37.96076 17.06543-10.98529 35.81275-15.99093 56.36475-13.22677 9.8335 1.32258 19.23523 3.68908 28.16882 7.98949 9.23975 4.4478 16.68616 11.05016 22.28382 18.4688 16.75134-16.69056 33.34668-33.22576 50.46142-50.27838-5.3678-4.58355-10.7788-9.5898-16.58532-14.08516-13.80127-10.68477-29.55579-17.37174-46.27283-22.04658-14.46216-4.04427-29.12305-6.59655-44.1632-6.98562-21.54225-.55729-42.46278 2.30861-63.13294 8.8015-19.74292 6.20165-37.57215 15.62873-53.06543 28.97342-16.43738 14.15799-29.39734 31.16785-38.1449 51.36113-7.08106 16.34628-11.1543 33.28758-13.95825 50.87953-15.60657.30752-31.21302.61505-46.86719-.00113v-15.19208h-123.7182V92.78587h130.38019V31.304h-201.7749c0 44.7771 0 89.24886-.92615 133.69966-14.11493-.02318-28.23004-.09112-42.34485-.05783-16.4295.03874-32.85889.1661-50.0661.07788M67.49546 301.98248c.58359.59262 1.10738 1.26258 1.75937 1.76673 26.96882 20.85455 57.67907 32.1509 91.5233 34.01202 14.0839.77448 28.35143-.65097 42.46555-1.87927 14.73119-1.28198 28.59114-6.21726 41.90106-12.52024 17.681-8.37289 32.88614-20.07434 45.882-35.11639l-51.23692-48.18445c-1.2756 1.56287-2.20667 2.52558-2.93432 3.62317-5.88573 8.8779-14.4953 14.62811-23.68785 19.17264-17.83753 8.81839-36.84757 10.57349-56.091 5.99829-19.49884-4.63596-35.71763-14.78593-47.28546-31.57416-8.64873-12.55182-13.82947-26.36708-15.87637-41.52809-2.1614-16.00923-1.44744-31.84077 3.41036-47.12334 4.63563-14.58358 12.35874-27.47232 24.1629-37.85131 7.67151-6.7453 15.90932-12.18352 25.39005-15.749 13.75932-5.17454 27.91258-7.6153 42.57362-4.9756 10.77356 1.93977 21.63034 4.02767 30.69277 10.66715 6.57782 4.81915 12.65632 10.31986 18.05229 14.77015l49.56604-49.15679c-8.58515-9.2615-18.6549-17.16685-30.08454-23.38874-17.91508-9.75237-37.07437-15.2429-57.23075-18.09337-14.78834-2.09133-29.43894-2.27966-44.27567-.95825-14.27979 1.27181-28.08789 4.35877-41.59048 8.94148-26.94692 9.14563-49.59715 24.50585-67.6661 46.651-10.51522 12.88734-18.37935 27.1073-24.01632 42.72172-5.21586 14.44792-7.56503 29.30428-9.18493 44.5518-1.52025 14.30963-.37861 28.37256 1.58328 42.26706 2.6613 18.84787 9.01175 36.83296 18.80061 53.30238 8.7975 14.80148 19.06507 28.49905 33.39751 39.65341m-45.4962 119.4685c.8814 5.23356.44619 11.21912 2.917 15.5448 5.22048 9.13956 15.1469 11.61137 24.88145 8.65919 7.4342-2.25455 12.5881-9.57822 11.4189-16.3473-3.38763.76728-8.13838.41969-9.82056 2.52448-3.36653 4.2124-6.93066 6.0008-11.8395 4.92725-4.39898-.96204-7.53106-6.31949-7.54286-11.8909-.0099-4.67209-.03711-9.34436-.00786-14.01624.03965-6.33322 2.86776-10.85385 7.34844-11.84085 5.66925-1.24874 10.93632 1.8437 13.47077 7.99836.94554 0 1.95198.10049 2.93195-.01795 3.6403-.43988 5.93764.35254 7.26245 4.48737 3.03421 9.47003 6.81898 18.69708 10.17767 28.06628 2.85797 7.97244.53603 12.82367-6.97628 15.22293v6.84647c8.65593.91757 11.7791-.2927 14.05982-6.40817 6.04944-16.22086 11.83507-32.54014 17.86706-49.21106-1.58954 0-2.78174.1933-3.88778-.03351-4.76654-.9776-7.01924 1.27334-8.26378 5.65402-1.91225 6.73096-4.17878 13.36124-6.40388 20.37762l-9.16244-25.99554H62.5891c-2.66756-10.89887-8.7823-16.14218-18.53496-17.0043-9.03812-.79892-19.9669 4.84652-21.24383 15.70697-.61319 5.2152-.56157 10.50854-.81104 16.75009m817.96406 3.2468c-.58441-1.09159-1.16889-2.1832-1.74604-3.26117 1.64326-.99668 3.2754-1.7612 4.64368-2.85566 5.81806-4.65353 5.9911-11.33142 4.88037-17.59598-.9804-5.52969-5.2896-10.16976-10.86078-10.71359-9.1632-.89444-18.47741-.24246-27.56439-.24246v55.6341h8.95606v-23.53956h9.30224l11.72309 23.53052h11.23816c-3.68287-7.09949-7.08442-13.65662-10.5724-20.9562M550.12458 401.0364c1.1336.56814 2.26728 1.13626 3.70984 1.85922.8056-1.17993 1.42981-2.56229 2.45471-3.51224 3.95288-3.66382 2.00421-6.11883-1.88653-7.12799-5.74457-1.49005-11.82947-3.54977-17.51996-2.95987-10.63544 1.10248-14.22241 5.53485-15.7174 16.25943-.95216 6.82968 5.22295 14.12467 13.26666 16.17719 3.74078.95453 7.56097 1.68243 11.388 2.19046 3.7915.50332 5.28247 3.42248 4.91546 6.14868-.28961 2.15134-2.60443 4.89181-4.695 5.77844-6.4411 2.73163-12.76618 1.23706-18.37775-2.6488-4.78143-3.31104-5.6532 1.4042-7.75617 3.47275-2.86078 2.81387.52136 3.61908 1.89392 4.5248 7.28443 4.80704 15.24225 6.13227 23.93024 4.90467 8.0116-1.13208 14.06708-6.33847 14.2743-13.34302.3479-11.7601-3.5271-17.20465-13.24146-18.79886-3.17939-.52176-6.63013-.70681-9.37928-2.14776-2.52917-1.3256-5.833-4.00275-6.02563-6.31513-.31451-3.77731 2.97077-6.5531 7.09699-6.39532 3.65112.13958 7.26922 1.14316 11.66906 1.93335m-297.7478-11.03656h-21.04193v55.64126h9.96933V423.787c6.07315 0 11.85626.76593 17.34216-.18415 7.72888-1.33856 13.52613-10.5122 12.34638-18.03811-1.45664-9.29206-7.77802-16.79776-18.61594-15.56488M101.06127 445.185c3.4504.78552 7.11788 2.80462 9.63814-1.69669 5.12228 3.78745 10.71895 4.4848 16.24913 1.45651 5.30596-2.90554 7.62756-7.68277 7.12105-13.92459-.34852-4.2951.01275-8.64319-.08728-12.96423-.14122-6.1004-3.45002-9.98267-9.12786-12.19653-5.56005-2.16788-10.0654-.32285-14.92377 3.16522v-18.79157h-8.93156c0 18.16102 0 36.08252.06215 54.95188m1065.86451-1.59027c5.42346-2.72379 7.35193-7.79932 9.2279-13.42246-5.41235-.1221-10.52917-1.64542-14.15124 4.1105-2.18127 3.46644-6.33166 3.52683-9.83728 2.24213-4.31091-1.57986-6.72241-5.34832-7.05505-9.75851-.43738-5.79788-.2411-11.65778-.06214-17.48319.13196-4.29031 4.19641-9.31762 7.84143-10.22433 5.16187-1.28397 9.05323.5852 11.97779 5.3475.70532 1.14844 2.2273 2.26615 3.52429 2.47852 2.41089.39483 4.93262.11325 7.73877.11325-.44385-1.9494-.5924-3.5687-1.17554-5.0124-5.77612-14.30166-22.13623-16.46584-32.2246-8.40014-5.20301 4.15973-7.17298 9.49344-7.21876 15.52246-.06347 8.33121-.6466 17.00974 1.4004 24.9162 2.52026 9.7338 15.2224 17.07419 30.01403 9.57047M1075.99927 417.5v28.22534h9.01977c0-8.247-.08972-16.20642.03699-24.16235.0658-4.12082 3.34607-7.51434 6.87622-7.55713 3.67664-.04456 7.04712 3.63232 7.0625 7.80627.02942 7.93671.00855 15.8736.00855 23.97272h9.00207c0-9.51431.00293-18.7908-.00098-28.06729-.00256-5.99347-2.62365-10.38959-8.43579-11.53738-4.63964-.9163-9.60449-.18494-14.80346-.18494v-15.68958h-8.76575c0 8.93851 0 17.56641-.00012 27.19434m-798.99866 9.99945v18.20642h9.01456c0-8.28668-.0881-16.26245.03616-24.23495.0647-4.14658 2.6293-7.37497 6.45322-7.14786 2.58258.15341 5.98172 2.76565 7.21576 5.19305 1.44622 2.8447 1.13232 6.67627 1.2363 10.09027.16525 5.42536.04412 10.85947.04412 16.0511h8.00614c0-9.6707-.38025-19.00953.156-28.29542.27976-4.8443-3.85193-10.38586-7.99762-11.08893-4.84744-.82199-9.9411-.1921-15.33743-.1921v-15.78757h-8.82727c0 12.26791 0 24.23703.00006 37.206m706.61328-22.50239c-5.66711-.24417-10.0985 2.07266-13.60754 6.70428 2.39154 1.81806 4.80798 3.655 7.34704 5.58515 3.3368-5.03342 8.1927-3.60654 12.27838-2.70609 1.4278.3147 2.04297 4.31669 3.36237 7.41788-5.10846 0-8.74152-.06653-12.3714.01361-7.92627.17502-11.59497 4.68231-12.55133 10.75397-.7539 4.78629 2.31714 12.27402 10.09638 13.0917 7.47082.78528 15.08886.16965 22.83117.16965 0-10.60074.26178-20.56647-.18713-30.50006-.10993-2.4321-1.98499-5.8197-4.03424-6.90253-3.69489-1.95236-8.13391-2.4964-13.1637-3.62756m-531.98483.83328l-9.43817 5.22666c3.45437 2.45623 5.82293 4.14038 8.36276 5.94629 3.25436-4.77616 8.05856-3.34339 12.10968-2.39911 1.44556.33697 2.04157 4.31875 3.34763 7.39615-5.26517 0-9.06666-.07184-12.86442.01617-6.31985.14648-11.70458 5.39981-12.0938 11.68308-.31461 5.07788 4.50494 11.71105 9.97235 12.1491 7.51416.60202 15.11276.15067 22.97702.15067 0-10.10605.0245-19.71448-.0095-29.3227-.01931-5.46078-3.23199-9.72863-8.60357-10.58273-4.31214-.68563-8.74903-.58645-13.75998-.26358m726.70468 25.97162c1.5166 8.73746 7.00708 13.80332 15.4441 14.97434 6.67101.9259 12.50512-1.91031 17.47277-6.48755-5.03845-6.16703-5.03845-6.16706-11.25269-3.2811-6.20568 2.88199-10.87023.03397-12.7699-8.07858h24.78052c0-3.09116.1759-5.88553-.0338-8.65067-.56605-7.45947-6.37293-13.68368-14.02809-15.25833-6.67321-1.37265-13.7102 2.30646-17.30102 8.75308-3.03735 5.45328-2.72815 11.31449-2.31189 18.02881m111.95935-2.51803H1315c0-3.17975.25745-5.37714-.04834-7.49317-.9226-6.38418-2.48975-12.15164-9.52478-15.06409-6.72449-2.784-12.69934-2.36791-18.08765 2.2475-5.77563 4.94742-6.50366 11.84961-6.36352 18.9624.16723 8.4853 4.3374 15.28522 11.20862 17.74271 8.68176 3.10486 16.89465-.21393 21.78589-5.88455-2.93067-3.98648-5.5415-6.82877-11.20618-2.94556-5.18482 3.55411-10.32544.34393-12.47095-7.56524M167.423 429.00272h6.5769c0-2.84726.19074-5.17273-.03695-7.45649-.6023-6.04098-2.38882-11.44635-8.4303-14.36132-6.32144-3.05008-12.4772-3.3159-18.29196 1.09097-6.72682 5.09811-7.4077 12.44455-7.24957 20.07626.16782 8.098 4.52298 14.94599 11.18282 17.33362 8.67047 3.10846 17.05168-.30841 21.79306-5.8989-2.90684-4.10946-5.61373-6.57397-11.2331-2.95028-5.73228 3.6965-12.1831-.76352-12.26973-7.83405 5.65897 0 11.31664 0 17.95883.00019m785.0753-.00162h11.50048c0-3.55731.21588-6.5513-.04535-9.50305-.52875-5.9732-3.58453-10.70597-9.03339-12.9228-6.22253-2.53155-12.77111-2.85693-18.20233 2.25687-6.90588 6.50223-7.19922 14.6976-5.77044 23.38968 1.38366 8.41855 5.17706 12.15546 15.59509 14.6197 4.72241 1.11703 13.30511-2.59531 15.92352-6.387-1.8872-2.25748-3.66882-4.38861-5.4353-6.50168-8.58978 7.01898-15.7071 5.00653-17.51886-4.95102 4.01636 0 8.00848 0 12.98657-.0007m-386.49817-4.40769c-.00195 1.82935-.02783 3.65906-.00128 5.48801.07642 5.26676 2.07398 9.70569 6.22064 12.93018 7.78833 6.05621 21.5116 4.66226 26.55817-3.6886l-6.44959-5.09857c-7.32055 4.23864-10.726 5.12066-13.79394 2.4335-1.91089-1.6738-2.84894-4.45825-4.84174-7.77225h25.3122c0-3.01013.00384-5.64032-.0008-8.27048-.01135-6.42755-4.32367-12.63275-10.27429-14.60055-12.35913-4.08704-22.9638 3.43274-22.72937 18.57876m303.02777 13.38752c-3.88574-1.6128-6.54693-3.99985-5.76886-9.12522h23.74457c0-3.20071-.02441-6.00162.00482-8.80197.06842-6.55414-3.78412-10.77066-9.04144-13.42688-6.07092-3.06735-12.67706-2.61996-17.78174 1.86118-8.04474 7.06195-6.91614 16.58078-5.31348 25.92587.85816 5.0036 3.96222 8.56503 8.32288 10.47919 8.69043 3.81466 18.48798 1.76025 23.75952-5.54819l-5.6502-4.4661c-4.20545 1.141-7.82923 2.12418-12.27607 3.10212m-516.48697 4.07837c8.02008 5.01599 16.33902 6.66467 25.09543 1.99395 5.25241-2.80163 7.19788-6.8254 6.34299-13.1336-.59586-4.39695-3.18124-7.55857-7.42087-8.61365-3.61877-.9006-7.51657-.64609-11.17389-1.44116-1.60492-.34885-2.91876-2.03672-4.36477-3.11658.95138-1.2182 1.78524-3.3342 2.87738-3.47714 2.69229-.35242 5.70938-.3844 8.22683.50244 6.94556 2.44666 6.87082 2.65884 10.89258-4.26624-6.9096-5.99514-14.9342-7.07782-23.23721-4.27273-5.05048 1.70627-8.5878 5.43756-7.81433 13.1816.51526 5.15898 3.28967 8.36405 9.22513 9.55448 2.86673.57498 5.89956.41223 8.70956 1.14756 1.82727.47818 3.38846 1.9731 5.06885 3.0125-1.34159 1.47306-2.56867 3.0821-4.07916 4.35465-.63529.53525-1.95887.68683-2.81641.45249-4.57602-1.25055-9.10358-2.67829-13.22779-3.91846-1.68737 1.43298-3.80929 3.23502-6.23501 5.29498 1.28955.85065 2.33405 1.53961 3.9307 2.7449m563.63876-36.0607c-4.96747.00349-9.9986-.4855-14.88483.14625-5.08704.65768-8.37946 6.13757-8.29895 12.22824.0653 4.94616 3.66681 9.64792 8.53394 10.5743 3.34246.6362 6.85784.42545 10.16046 1.18348 1.59448.36597 2.8767 2.09213 4.30035 3.2024-1.12274 1.24496-2.19482 3.48937-3.37762 3.5493-3.69165.18714-7.7411.3582-11.07544-.94225-6.55573-2.5568-6.89838-2.84088-11.58258 3.21243 7.06604 6.13943 15.04474 9.03012 24.3894 6.8476 7.14856-1.66965 11.23859-5.55231 10.69696-13.74866-.35888-5.43097-3.38647-10.03818-11.04468-10.33353-3.04437-.1174-6.12054-.76474-9.05896-1.6029-1.15173-.32859-2.91381-2.09766-2.73443-2.76062.36285-1.34113 1.79462-3.27573 2.90613-3.35913 2.8559-.21439 6.013-.14972 8.62658.87872 6.53498 2.57165 7.43787 2.3707 10.33917-5.10462-2.3078-1.28729-4.68457-2.6131-7.8955-3.971m-595.10346.00476h-8.04556c4.10327 11.36383 8.04352 22.3565 12.04346 33.32742 2.96478 8.13178 1.01663 12.52737-6.81833 15.5213v6.84897c10.35062 1.3805 12.75302-2.24112 15.72903-10.0893.9667-2.54946 1.67954-5.19406 2.59836-7.76303 4.46967-12.4966 8.96985-24.9823 13.59787-37.85757-1.67181 0-2.86505.19174-3.97375-.0332-4.79389-.9726-6.99005 1.31643-8.22211 5.7125-1.88217 6.71584-4.16599 13.31911-6.48346 20.61275-.6437-2.2423-.98346-3.82577-1.54813-5.32449-2.63357-6.99039-5.32928-13.95737-8.87738-20.95535m440.86353 35.5664c.8811 5.47992-.91144 12.35736-7.68909 12.87732v7.25562c7.50452.6066 12.00562-1.0246 13.66406-5.58075 6.04236-16.59992 11.8639-33.28018 17.83814-50.12635-1.6684 0-3.19647.20206-4.65137-.0383-4.21081-.69558-6.10486 1.08066-7.18591 5.16108-1.75867 6.63809-4.16638 13.10425-6.6557 20.73257-2.28247-6.62018-4.27594-12.32873-6.2187-18.0545-2.7547-8.1185-2.73888-8.12815-11.16808-7.72247-.26532.01278-.51697.31002-1.02564.63458 4.18402 11.38104 8.3863 22.81158 13.09229 34.8612m457.05633 2.68079l9.02014 2.60294c0-8.58512-.21728-15.88382.11695-23.15723.11816-2.569.875-5.95596 2.6294-7.3688 1.82555-1.47025 5.85192-2.15064 7.74096-1.08784 2.1698 1.22086 4.10425 4.6586 4.29138 7.26618.55444 7.72397.19837 15.5133.19837 23.1951h9.00561c0-8.63596-.1903-16.94876.06238-25.24808.19092-6.27728-1.90015-11.44504-7.48084-14.07907-5.55566-2.62228-11.39892-2.28494-15.73376 1.94507-2.71716-4.01035-6.40405-1.63636-9.84937-2.37894 0 12.78204 0 25.06644-.00122 38.31067m-552.33612-38.24509c-.55426 1.28784-1.55725 2.56513-1.5877 3.86527-.16004 6.82797-.09858 13.6619-.06513 20.4935.02228 4.55285-2.8418 6.33877-6.742 6.88754-3.65107.51376-6.0885-1.40027-7.19355-4.74048-.6513-1.9689-.98364-4.1222-1.02185-6.2006-.12408-6.74892-.04644-13.5016-.04644-20.12557h-8.99707c0 8.80252-.14954 17.42587.09454 26.03809.06982 2.4623.7824 5.1958 2.0556 7.28323 4.86298 7.97284 13.56702 9.57022 21.34558 4.14612 2.33802 4.39215 6.12775 1.50525 9.4997 2.40954v-19.935-20.12798c-2.45691 0-4.42469 0-7.34168.00634m372.33417 11.8139c-.3324 3.74515-.99048 7.49561-.9292 11.23429.12512 7.6323 5.56116 15.30826 11.7511 16.86966 8.8562 2.23389 18.45288-.74115 21.15051-7.42905-2.46399-1.95114-4.56482-6.57767-8.28735-3.39407-5.59851 4.78812-13.76538 2.68176-15.5907-5.83414-1.521-7.09613 2.33191-14.9158 8.3396-15.02832 3.38257-.06332 6.80688 2.0982 10.6814 3.41718.42273-.4826 1.03381-1.61402 1.98205-2.18918 4.45044-2.69928 3.16162-4.3631-.55627-6.68353-11.51074-7.18412-22.10217-4.26368-28.54114 9.03717m-621.33182 27.33221c10.2637 3.15088 17.6759.96588 22.3483-6.67624-1.40726-1.06677-2.68945-2.48389-4.28229-3.1073-1.30844-.51208-3.40909-.68432-4.42975.03168-5.70752 4.00418-11.58874 2.57-14.43893-3.81943-3.17566-7.11917.32562-16.65619 6.99182-17.27286 3.45966-.32003 7.15482 1.9057 9.67633 2.66147 2.26895-1.63132 4.5319-3.2583 6.89816-4.95953-5.48312-5.64902-11.63961-8.30371-18.86495-6.7467-7.56248 1.62963-12.3573 6.57903-14.34128 14.16213-2.62519 10.03394.7366 18.99244 10.4426 25.72678m186.3561-13.24918c.31305.73877.73212 1.45124.92298 2.22034 2.07135 8.34589 8.30175 12.09537 15.99359 12.63077 6.39886.4454 12.46014-1.82114 16.23144-7.97449-.95215-.62042-1.91278-.9775-2.47827-1.66131-2.45514-2.96872-4.44055-4.27085-8.00708-.75144-1.45007 1.43085-5.59521 1.19254-8.04321.3483-6.98267-2.40811-6.12189-8.83475-5.35944-14.12854.40784-2.83176 3.07672-6.2449 5.66156-7.57251 2.11243-1.08493 6.28278-.36353 8.33692 1.16977 2.8692 2.14172 4.41851 2.17987 6.5382-.42417.93409-1.1476 2.21296-2.01452 3.2735-2.9541-5.9569-7.63186-13.59558-9.57528-22.01898-6.64532-5.9616 2.07367-9.89893 6.90869-10.79217 13.39303-.51813 3.7613-.21228 7.63608-.25904 12.34967m128.97907-13.26312c-.00006 4.66385.00427 9.3277-.0011 13.99155-.01319 11.36456 3.24762 14.26703 14.80682 12.95767v-5.97131c-2.42242-1.9205-5.46893-3.16474-5.56915-4.61286-.50092-7.24072-.22925-14.5349-.22925-21.77719l5.72516-.47476v-6.56824l-5.92651-.4863v-12.36627h-8.88721v12.32499c-1.422.26962-2.63092.49887-3.75397.71182v6.34985c1.33057.229 2.5307.43558 3.8352.66013v5.26092m536.9068 27.34598h5.95582v-6.25613c-2.0321-1.97321-4.57971-3.27817-4.66321-4.72525-.41834-7.25232-.19165-14.54184-.19165-21.74991l4.71704-.51114v-6.53116l-4.90027-.52039v-12.38116h-8.86548v12.36423c-1.40466.23453-2.60962.4357-3.82483.63855v6.45156c1.29956.16538 2.50843.31919 3.86426.4917 0 7.8381.23426 15.32181-.07837 22.7826-.22766 5.43487 1.974 8.61557 7.9867 9.9465M493.0022 413.5v-23.20859h-9.00223c0 16.24051-.14194 32.18646.17502 48.12335.04077 2.05182 2.01752 4.93271 3.88348 5.87815 2.8269 1.43234 6.3437 1.50317 9.8305 2.20544v-8.5528c-5.16286 1.2728-4.9749-2.04089-4.91582-5.48297.10269-5.98593.02886-11.97494.02905-18.96258m189.9959 18.99173v13.2179h9.0008c0-7.12122-.1751-13.9278.044-20.72168.2798-8.67536 6.02735-13.87757 13.35438-8.73545 1.9306-2.46908 3.8797-4.96182 5.8067-7.42636-5.29419-5.1835-11.24463-5.18997-18.59918-.36359-2.33356-4.72433-6.18482-1.70498-9.60675-2.3367 0 8.77366 0 17.07142.00006 26.36588m-492.98908-10.47488c2.23-7.64902 3.28608-8.20017 11.48227-6.20938.72759.17672 1.92202.17715 2.30318-.26032 1.89682-2.17673 3.59386-4.52756 5.36053-6.8162-6.78898-5.13833-12.43713-5.14636-18.56161-.31762-2.35036-4.73987-6.20633-1.5897-9.2852-2.21298v39.4869h8.70808c0-7.80932 0-15.28784-.00725-23.6704m1138.39246 23.98898c2.96313.44745 2.61707-1.58368 2.61267-3.43012-.01648-6.82562-.09009-13.65286.0288-20.47653.11085-6.35525 4.91859-9.4277 10.5365-6.91244.85548.38305 1.7677.63961 2.41187.86868 2.2207-2.5628 4.21424-4.86328 6.20581-7.16162-6.42834-5.31183-11.68615-5.34836-19.0365-.34894-1.22815-3.03067-1.82226-3.16632-8.89208-2.01263V446.002c1.90844 0 3.54687 0 6.13293.00382m-317.4032-8.5505v8.27148h9.00214c0-7.58472-.00293-14.87305.00085-22.16138.0044-8.4993 4.45746-11.2754 13.01032-7.18497.4668-.70556 1.09704-1.6861 1.75549-2.6474 1.08984-1.59112 2.19788-3.16986 3.27515-4.72052-3.7478-4.306-8.17896-5.13495-14.52973-2.81994-1.11316.40573-2.29199 1.2088-3.34924 1.0799-2.94629-.3592-5.84473-1.11176-9.16498-1.79148v31.9743M400.00058 407.7559l-8.7949-2.55182v40.56155h8.80006c0-12.50512 0-24.77804-.00516-38.00973m317.5596-1.76086c-1.18799.6655-3.40063 1.31408-3.41199 1.99899-.2077 12.58258-.15191 25.1695-.15191 37.71222h8.7246v-39.70877c-1.5996 0-2.90807 0-5.1607-.00244m-323.00268-7.99085h5.11428v-7.68024h-9.04043c1.56753 2.70862-2.2475 6.71854 3.92615 7.68024m319.54174-7.27908v7.08362h8.70838v-7.73017c-2.81061 0-5.42316 0-8.70838.64655z"/><path fill="#020403" d="M838.91773 165.02463V31.304h201.7749v61.48187h-130.3802v55.01436h123.71821c0 5.32805 0 10.26006-.29163 15.94463-.07446 9.25291.14283 17.7533.36011 26.25366v16.82054H910.30188v60.99698h137.41296v61.90158h-208.7157c0-45.84396 0-91.75984.16944-138.51572.0293-9.28576-.11078-17.73152-.25086-26.17727zM67.24423 301.7226c-14.08121-10.89447-24.34877-24.59205-33.14628-39.39353-9.78886-16.46942-16.13931-34.45451-18.80061-53.30238-1.9619-13.8945-3.10353-27.95743-1.58328-42.26706 1.6199-15.24751 3.96907-30.10388 9.18493-44.5518 5.63697-15.61442 13.5011-29.83438 24.01632-42.72172 18.06895-22.14514 40.71918-37.50537 67.6661-46.651 13.50259-4.5827 27.3107-7.66967 41.59048-8.94148 14.83673-1.32141 29.48734-1.13308 44.27567.95825 20.15638 2.85047 39.31567 8.341 57.23075 18.09337 11.42963 6.2219 21.4994 14.12725 30.08454 23.38874l-49.56604 49.15679c-5.39597-4.4503-11.47447-9.951-18.0523-14.77015-9.06242-6.63948-19.9192-8.72738-30.69276-10.66716-14.66104-2.6397-28.8143-.19893-42.57362 4.97561-9.48073 3.56548-17.71854 9.0037-25.39005 15.749-11.80416 10.379-19.52727 23.26773-24.1629 37.85131-4.8578 15.28257-5.57176 31.11411-3.41036 47.12334 2.0469 15.16101 7.22764 28.97627 15.87637 41.5281 11.56783 16.78822 27.78662 26.9382 47.28546 31.57415 19.24343 4.5752 38.25347 2.8201 56.091-5.9983 9.19255-4.54452 17.80212-10.29473 23.68785-19.17263.72764-1.0976 1.65872-2.0603 2.93433-3.62317l51.2369 48.18445c-12.99585 15.04205-28.20099 26.7435-45.88198 35.1164-13.30993 6.30297-27.16988 11.23825-41.90107 12.52023-14.11412 1.2283-28.38165 2.65375-42.46554 1.87927-33.84424-1.86111-64.5545-13.15747-91.52331-34.01202-.65199-.50415-1.17578-1.1741-2.0106-2.02661zM1161.136 189.06116c1.98523 9.4314 3.24316 19.09317 6.1383 28.2365 3.6997 11.68328 10.58386 21.8985 19.22083 30.539 10.71045 10.71498 23.80993 17.84245 38.60815 21.03617 25.9878 5.60852 50.05469 1.10361 71.09961-15.76059 4.31409-3.4571 7.70862-8.06164 12.00488-12.64732 17.00904 15.99379 33.9452 31.919 50.80689 47.77422-12.99 15.01355-28.16272 26.75933-45.85779 35.11218-13.44983 6.349-27.43628 11.33258-42.3413 12.5426-14.28578 1.1598-28.72132 2.71927-42.95313 1.84943-33.28784-2.03458-63.724-13.01682-90.14405-33.69873-15.58667-12.20142-27.62768-27.49897-37.25708-44.89014-8.7721-15.84276-13.85327-32.79974-17.36462-50.34485-.86316-4.31232-.70435-8.82345-1.1239-13.23288-.18238-1.916-.63928-3.8059-.67041-6.39519.36975-9.18905.43847-17.69058.5072-26.19212 1.89221-17.58795 5.96545-34.52925 13.0465-50.87553 8.74757-20.19328 21.70753-37.20314 38.1449-51.36113 15.4933-13.34469 33.32252-22.77177 53.06544-28.97341 20.67016-6.4929 41.5907-9.3588 63.13293-8.80151 15.04016.38907 29.70105 2.94135 44.1632 6.98562 16.71705 4.67484 32.47157 11.3618 46.27284 22.04658 5.80651 4.49536 11.21753 9.5016 16.58532 14.08516-17.11474 17.05262-33.71008 33.58782-50.46142 50.27838-5.59766-7.41864-13.04407-14.021-22.28382-18.4688-8.93359-4.3004-18.33532-6.6669-28.16882-7.98949-20.552-2.76416-39.29932 2.24148-56.36475 13.22677-14.25134 9.17394-24.4464 22.25275-30.78906 37.96076-2.7423 6.79142-4.11389 14.13624-6.22986 21.9722-.3435 9.15705-.56518 17.57158-.78698 25.98612zm-643.4054 3.44995c-12.87323 9.72682-27.30502 16.35232-42.90918 19.95842-9.93866 2.29681-20.19336 3.90735-30.36954 4.34013-16.54135.7035-33.13449.1897-50.25997.1897v112.78213h-74.20856c0-45.00683 0-89.90619.31613-135.53527.08618-9.24138-.14377-17.75298-.37369-26.2646V31.256c1.66757-.0948 3.10034-.24689 4.53317-.24738 39.4754-.0136 78.96119-.55485 118.42206.20238 21.75656.4175 43.22617 4.40565 62.65775 15.05249 22.60663 12.38651 36.94519 31.02738 40.40027 57.08074 1.01007 7.61676 2.09814 15.3344 1.90783 22.97486-.34332 13.79002-2.6236 27.33125-9.1748 40.36683-4.2121 5.72144-7.94263 11.09981-12.01703 16.20365-2.72168 3.40928-5.93256 6.42802-8.92444 9.62155m-119.10242-33.51457c16.728-.64415 33.6741 2.03253 50.1124-3.01806 11.5813-3.55828 21.48236-9.33865 24.169-22.33012 1.0818-5.23097 1.34138-10.78831.9734-16.12808-.63797-9.25742-5.82856-15.9284-13.75669-20.49944-9.09463-5.24361-19.21854-6.55626-29.40118-6.92877-10.96582-.40116-21.95801-.09137-32.93863-.06395-1.24869.00312-2.49692.18554-3.78583.28803 0 22.06199.06458 43.68988-.07348 65.31646-.01948 3.04967 1.12121 3.75577 4.70101 3.36393zm196.35749 6.83593c-8.7207-12.4819-13.76728-26.13137-14.0561-41.54346-.22851-12.1918-.41009-24.39635 3.48255-36.06305 5.20361-15.5962 14.64892-28.26207 27.44037-38.7433 16.36865-13.41237 35.21997-20.4892 55.82446-23.43423 9.53021-1.36215 19.17127-2.99612 28.73523-2.84208 16.73218.26951 33.1369 2.96843 49.17444 8.47847 18.47095 6.34607 35.09918 15.37023 49.64825 28.86693-13.75848 14.33452-27.38647 28.56078-41.0484 42.75445-6.0719 6.3082-6.0055 6.17696-12.41845.01251-15.34168-14.74695-33.89283-20.93558-54.87409-19.16945-8.97613.75557-17.55328 3.39368-24.612 9.94549-11.88733 11.03362-12.3526 32.20062 6.30853 40.86864 11.46308 5.32457 23.5061 9.40563 35.31067 13.98865 13.8808 5.38912 27.78528 10.71715 42.17926 16.44267 8.51899 6.39406 16.60736 12.32843 24.51923 18.4893 2.69244 2.09654 4.94061 4.76354 7.39178 7.16988 3.67633 6.91044 8.33435 13.48993 10.80121 20.80802 3.79828 11.26826 4.71533 22.98216 3.48566 35.124-1.2237 12.08227-3.28058 23.74764-8.56409 34.60308-12.44214 25.5636-33.3294 41.32898-60.10968 49.22116-10.6239 3.13092-21.78918 4.79022-32.82971 6.06811-25.34796 2.9339-49.8764-1.40194-73.78082-9.85275-16.58399-5.86294-31.80554-14.05398-44.69544-26.21728-6.99334-6.59915-6.93731-6.54438-.16583-13.4516 12.547-12.79852 25.0581-25.63288 37.49762-38.53572 2.72882-2.8305 3.94684-3.69283 7.3731.18664 5.10609 5.78139 11.60554 10.51094 18.05695 14.88424 10.22278 6.92983 21.8014 11.4471 33.9535 12.81555 13.66809 1.53918 27.5592.8335 39.31817-7.87226 5.48773-4.06292 8.62842-9.99722 9.65784-16.85934 2.25567-15.037-3.35346-25.96216-18.82477-32.77432-14.05835-6.19-28.82666-10.75489-43.21582-16.21065-9.29358-3.52368-18.4679-7.36165-28.22492-11.38927-2.97283-1.7457-5.66741-2.85686-7.8158-4.62979-8.4013-6.93286-16.63006-14.07494-24.9229-21.13924z"/><path fill="#02B7D5" d="M319.46173 167.98282c.69397 8.51042.92392 17.02202.81812 25.79788-29.92823.26425-59.52066.26425-89.24773.26425-5.58783 15.71155-15.19177 27.09426-29.40215 33.54412-13.19824 5.9905-27.33137 6.71801-41.10989 1.74975-23.50174-8.47429-38.9752-29.72134-35.3667-59.2808 2.9805-24.41526 23.09792-43.76172 48.8412-45.92532 24.77117-2.08191 51.29808 11.88764 58.17745 43.8513 29.00381 0 57.91476 0 87.2897-.00118z"/><path fill="#03B7D5" d="M1161.59558 189.05911c-.2378-8.41249-.01611-16.82702.41711-25.57297 10.03443-.3817 19.85792-.51162 29.67981-.43438 2.99097.02353 4.51673-.664 5.78394-3.8529 8.97156-22.57832 28.77649-36.2731 53.72864-35.13764 25.8346 1.1756 46.61328 20.0335 50.5465 44.40565 3.10755 19.255-1.99902 36.78405-17.05785 50.16991-9.24427 8.2174-20.03809 13.1301-32.81385 13.45187-12.7218.32047-24.48742-1.74618-34.99328-9.54393-10.33606-7.6717-17.5492-17.42607-20.7478-29.84137-.78333-3.04005-1.9076-3.70631-4.60279-3.68403-9.82641.08127-19.6538.0356-29.94043.0398z"/><path fill="#07B6D3" d="M594.5207 165.89017c8.7578 7.0066 16.98656 14.14868 25.38787 21.08154 2.14838 1.77293 4.84296 2.8841 7.417 4.55399-13.96778.3309-28.06672.34668-42.16413.49725-22.17401.23682-44.3471.5644-66.97571.67087 2.53674-3.37624 5.74762-6.39498 8.4693-9.80426 4.0744-5.10384 7.80493-10.48221 12.01446-15.82056 18.6839-.42488 37.03504-.77301 55.8512-1.17883z"/><path fill="#09B5D2" d="M778.46045 191.03952c-2.92023-2.39197-5.1684-5.05898-7.86084-7.1555-7.91187-6.16088-16.00024-12.09525-24.13037-18.40074 16.3186-.37134 32.74798-.4987 49.17749-.53745 14.1148-.0333 28.22992.03465 42.80792.06832.60315 8.45623.74323 16.90199.6822 25.7277-20.20313.34775-40.2052.31552-60.6764.29767z"/><path fill="#231F20" d="M21.99927 420.9592c.24946-5.74976.19784-11.0431.81103-16.2583 1.27693-10.86045 12.2057-16.5059 21.24383-15.70697 9.75267.86212 15.8674 6.10543 18.53496 17.0043h7.84074c3.0499 8.65317 6.02794 17.10239 9.16244 25.99554 2.2251-7.01638 4.49163-13.64666 6.40388-20.37762 1.24453-4.38068 3.49724-6.63162 8.26378-5.65402 1.10604.2268 2.29824.0335 3.88778.0335-6.03199 16.67093-11.81762 32.99021-17.86706 49.21107-2.28071 6.11547-5.40389 7.32574-14.05982 6.40817v-6.84647c7.5123-2.39926 9.83425-7.25049 6.97628-15.22293-3.3587-9.3692-7.14346-18.59625-10.17767-28.06628-1.32481-4.13483-3.62215-4.92725-7.26245-4.48737-.97997.11844-1.98641.01795-2.93196.01795-2.53444-6.15467-7.8015-9.2471-13.47075-7.99836-4.48069.987-7.3088 5.50763-7.34845 11.84085-.02925 4.67188-.00204 9.34415.00786 14.01624.0118 5.57141 3.14388 10.92886 7.54286 11.8909 4.90884 1.07355 8.47297-.71484 11.8395-4.92725 1.68218-2.1048 6.43293-1.7572 9.82055-2.52447 1.16921 6.76907-3.98468 14.09274-11.41889 16.34729-9.73454 2.95218-19.66097.48037-24.88145-8.65918-2.47081-4.32569-2.0356-10.31125-2.91699-16.0366zm818.00732 4.10983c3.4447 6.92834 6.84625 13.48547 10.52912 20.58496h-11.23816l-11.72309-23.53052h-9.30224v23.53956h-8.95606v-55.6341c9.08698 0 18.40119-.65198 27.5644.24246 5.57116.54383 9.88037 5.1839 10.86077 10.7136 1.11072 6.26455.93769 12.94244-4.88037 17.59597-1.36828 1.09445-3.00042 1.85898-4.64368 2.85566.57715 1.07797 1.16163 2.16958 1.78931 3.63241m-20.27228-27.06189c-.5758.61057-1.6314 1.20633-1.65081 1.83417-.14216 4.5996-.07666 9.20563-.07666 13.9465 1.10253.09442 1.73474.19193 2.36755.19544 3.32452.01846 6.6535.12152 9.9729-.00892 5.1488-.20239 8.79901-4.06463 8.64484-8.94876-.13483-4.27148-3.51563-6.97635-8.82605-7.02139-3.1582-.0268-6.31678-.00394-10.43177.00296z"/><path fill="#06B5D2" d="M1081.35376 162.99144c.38709 8.49954.31836 17.00107-.08496 25.76637-15.6383.5918-30.94226.91983-46.70789 1.2443-.67907-8.50396-.89636-17.00434-.79822-25.7954 15.92212-.59822 31.52857-.90575 47.59107-1.21527z"/><path fill="#231F20" d="M549.74097 400.9524c-4.01624-.70618-7.63434-1.70976-11.28546-1.84934-4.12622-.15778-7.4115 2.618-7.09699 6.39532.19263 2.31238 3.49646 4.98953 6.02563 6.31513 2.74915 1.44095 6.1999 1.626 9.37928 2.14776 9.71435 1.59421 13.58935 7.03876 13.24145 18.79886-.20721 7.00455-6.2627 12.21094-14.27429 13.34302-8.68799 1.2276-16.64581-.09763-23.93024-4.90466-1.37256-.90573-4.7547-1.71094-1.89392-4.52481 2.10297-2.06855 2.97474-6.78379 7.75617-3.47275 5.61157 3.88586 11.93664 5.38043 18.37774 2.6488 2.09058-.88663 4.4054-3.6271 4.69501-5.77844.367-2.7262-1.12396-5.64536-4.91547-6.14868-3.82702-.50803-7.64721-1.23593-11.388-2.19046-8.0437-2.05252-14.2188-9.3475-13.26666-16.17719 1.495-10.72458 5.08197-15.15695 15.7174-16.25943 5.6905-.5899 11.7754 1.46982 17.51997 2.95987 3.89074 1.00916 5.83941 3.46417 1.88653 7.128-1.0249.94994-1.6491 2.3323-2.4547 3.51223-1.44257-.72296-2.57624-1.29108-4.09345-1.94324zm-296.88599-10.95258c10.35971-1.23285 16.6811 6.27285 18.13773 15.5649 1.17975 7.52592-4.6175 16.69956-12.34638 18.03812-5.4859.95008-11.26901.18415-17.34216.18415v21.85412h-9.96933v-55.64126c6.87785 0 13.95988 0 21.52014-.00003M244.6376 415c2.9896-.00085 5.9849-.1196 8.96747.02469 4.62839.2239 6.52637-2.92807 7.24088-6.5019.69903-3.49648.70147-7.5361-4.15638-8.5303-5.09121-1.04199-10.24574-1.7746-15.69042-2.69622 0 5.90096-.15871 10.38888.1218 14.84918.06293 1.00091 1.66213 1.90524 3.51665 2.85455zm-143.6074 29.71106c-.03108-18.39542-.03108-36.31692-.03108-54.47794h8.93156v18.79157c4.85837-3.48807 9.36372-5.3331 14.92377-3.16522 5.67784 2.21386 8.98664 6.09613 9.12786 12.19653.10003 4.32105-.26124 8.66913.08728 12.96423.5065 6.24182-1.81509 11.01905-7.12105 13.9246-5.53017 3.02828-11.12685 2.33093-16.24893-1.4549-2.52046 4.4997-6.18794 2.48059-9.66941 1.22113m18.10257-30.69467c-1.90055.68734-4.18756.92184-5.62664 2.14993-3.77734 3.22354-4.00282 15.62665-.56613 19.26477 2.5914 2.74326 6.89897 3.12732 9.8296.23761 4.46498-4.4027 2.54331-18.05478-3.63683-21.65231z"/><path fill="#221F20" d="M1166.63086 443.85358c-14.4967 7.24487-27.19885-.09552-29.71912-9.82932-2.047-7.90646-1.46386-16.58499-1.40039-24.9162.04578-6.02902 2.01575-11.36273 7.21875-15.52246 10.08838-8.0657 26.44849-5.90152 32.22461 8.40015.58313 1.4437.7317 3.06299 1.17554 5.01239-2.80615 0-5.32788.28158-7.73877-.11325-1.297-.21237-2.81897-1.33008-3.5243-2.47852-2.92455-4.7623-6.81591-6.63147-11.97778-5.3475-3.64502.9067-7.70947 5.93402-7.84143 10.22433-.17895 5.82541-.37524 11.6853.06214 17.48319.33264 4.41019 2.74414 8.17865 7.05505 9.75851 3.50562 1.2847 7.656 1.2243 9.83728-2.24212 3.62207-5.75592 8.7389-4.2326 14.15125-4.1105-1.87598 5.62313-3.80445 10.69866-9.52283 13.6813zM1075.99926 417c.00013-9.12793.00013-17.75583.00013-26.69434h8.76575v15.68958c5.19897 0 10.16382-.73136 14.80346.18494 5.81214 1.1478 8.43323 5.54391 8.4358 11.53738.0039 9.27649.00097 18.55298.00097 28.0673h-9.00207c0-8.09913.02087-16.03602-.00855-23.97273-.01538-4.17395-3.38586-7.85083-7.0625-7.80627-3.53015.04279-6.81042 3.4363-6.87622 7.55713-.1267 7.95593-.03699 15.91534-.03699 24.16235h-9.01977V417z"/><path fill="#231F20" d="M277.00058 426.99951c-.00003-12.46902-.00003-24.43814-.00003-36.70605h8.82727v15.78756c5.39633 0 10.48999-.62988 15.33743.19211 4.1457.70307 8.27738 6.24463 7.99762 11.08893-.53625 9.28589-.156 18.62473-.156 28.29541h-8.00614c0-5.19162.12113-10.62573-.04413-16.05109-.10397-3.414.20993-7.24557-1.2363-10.09027-1.23403-2.4274-4.63317-5.03964-7.21575-5.19305-3.82392-.22711-6.38852 3.00128-6.45322 7.14786-.12427 7.9725-.03616 15.94827-.03616 24.23495h-9.01456c0-6.00491 0-12.10565-.00003-18.70636zm707.06412-22.00299c4.57898 1.13172 9.018 1.67575 12.71289 3.62811 2.04925 1.08283 3.92431 4.47043 4.03424 6.90253.44891 9.9336.18713 19.89932.18713 30.50006-7.7423 0-15.36035.61563-22.83117-.16965-7.77924-.81768-10.85028-8.30541-10.09638-13.0917.95636-6.07166 4.62506-10.57895 12.55133-10.75397 3.62988-.08014 7.26294-.0136 12.3714-.0136-1.3194-3.1012-1.93457-7.10319-3.36237-7.41789-4.08569-.90045-8.94158-2.32733-12.27838 2.70609-2.53906-1.93015-4.9555-3.7671-7.34704-5.58515 3.50903-4.63162 7.94043-6.94845 14.05835-6.70483m5.31518 24.00284c-3.05462.33548-6.1676.40918-9.14862 1.07452-3.50726.78278-4.06933 3.54486-1.50805 6.12876 2.38702 2.4081 10.26776 2.82797 12.16595.15191 1.53668-2.1665 2.76343-5.17209-1.50928-7.3552zm-537.4361-23.45499c4.69624-.0369 9.13312-.13608 13.44526.54956 5.37158.8541 8.58426 5.12195 8.60357 10.58274.034 9.60821.0095 19.21664.0095 29.32269-7.86426 0-15.46286.45135-22.97703-.15067-5.4674-.43804-10.28695-7.07122-9.97235-12.1491.38923-6.28327 5.77396-11.5366 12.09382-11.68308 3.79775-.08801 7.59924-.01617 12.8644-.01617-1.30605-3.0774-1.90206-7.05918-3.34762-7.39615-4.05112-.94428-8.85532-2.37705-12.10968 2.3991-2.53983-1.8059-4.90839-3.49005-8.36276-5.94628 3.52063-1.94965 6.4794-3.58817 9.7529-5.51264m.81912 31.6719c9.29272 2.51954 12.68503.29957 11.82754-8.54854-3.49725.44448-7.03097.70043-10.48135 1.37979-4.57648.90106-5.07944 2.85458-1.3462 7.16876zm725.42068-5.83205c-.26611-6.29657-.57531-12.15778 2.46204-17.61106 3.59082-6.44662 10.6278-10.12573 17.30102-8.75308 7.65516 1.57465 13.46204 7.79886 14.02808 15.25833.20972 2.76514.03382 5.55951.03382 8.65067h-24.78052c1.89966 8.11255 6.5642 10.96057 12.7699 8.07858 6.21423-2.88596 6.21423-2.88592 11.25268 3.2811-4.96765 4.57724-10.80176 7.41345-17.47278 6.48755-8.43701-1.17102-13.92749-6.23688-15.59424-15.3921m19.14698-9.38122h5.65759c-.86853-5.11395-3.09375-8.21515-8.35852-7.99731-4.9342.20413-6.94861 3.20807-7.45996 7.99722 3.25268 0 6.24292 0 10.16089.0001zm92.84057 7.6914c2.26746 7.49872 7.40808 10.7089 12.5929 7.1548 5.66467-3.88322 8.27551-1.04093 11.20618 2.94555-4.89124 5.67062-13.10413 8.9894-21.7859 5.88455-6.87121-2.45749-11.04138-9.25741-11.20861-17.7427-.14014-7.1128.58789-14.01499 6.36352-18.9624 5.3883-4.61543 11.36316-5.0315 18.08765-2.2475 7.03503 2.91244 8.60217 8.6799 9.52478 15.06408.30579 2.11603.04834 4.31342.04834 7.49317-8.2788 0-16.49292 0-24.82886.41046m9.06287-15.68646c-5.54163-.41724-8.43396 2.25033-9.10754 7.84576h17.22192c-3.03284-3.25202-5.16687-5.5402-8.11438-7.84577zM166.93076 429.00262c-6.14995-.0001-11.80762-.0001-17.46659-.0001.08663 7.07053 6.53745 11.53055 12.26973 7.83405 5.61937-3.62369 8.32627-1.15918 11.23131 2.95736-4.7396 5.58341-13.1208 9.00028-21.79128 5.89182-6.65983-2.38763-11.015-9.23563-11.18281-17.33362-.15813-7.63171.52275-14.97815 7.24957-20.07626 5.81476-4.40686 11.97052-4.14105 18.29196-1.09097 6.04148 2.91497 7.828 8.32034 8.4303 14.36132.2277 2.28376.03694 4.60923.03694 7.45649-2.36087 0-4.46888 0-7.06913-.0001m-13.30387-14.13226c-1.74754 2.00418-3.49508 4.0084-6.00235 6.88385h17.22394c-2.13466-7.23034-3.41911-8.10593-11.22159-6.88385zm798.37842 14.1311c-4.4851.00034-8.47723.00034-12.4936.00034 1.81178 9.95755 8.92909 11.97 17.51887 4.95102 1.76648 2.11307 3.5481 4.2442 5.4353 6.50168-2.6184 3.79169-11.2011 7.50403-15.92352 6.387-10.41803-2.46424-14.21143-6.20115-15.5951-14.6197-1.42877-8.69208-1.13543-16.88745 5.77045-23.38968 5.43122-5.1138 11.9798-4.78842 18.20233-2.25686 5.44886 2.21682 8.50464 6.94958 9.03339 12.92279.26123 2.95175.04535 5.94574.04535 9.50305-3.96521 0-7.73285 0-11.99347.00036m-2.91357-14.99383c-7.18775.02243-8.24982.92465-9.2727 7.63257h15.07421l.91718-1.194c-1.964-2.142-3.92804-4.28397-6.7187-6.43857z"/><path fill="#221F20" d="M565.99646 424.12515c-.23077-14.67776 10.3739-22.19754 22.73303-18.1105 5.95062 1.9678 10.26294 8.173 10.2743 14.60055.00463 2.63016.00079 5.26035.00079 8.27048h-25.3122c1.9928 3.314 2.93085 6.09845 4.84174 7.77225 3.06793 2.68716 6.47339 1.80514 13.79394-2.4335 2.14203 1.69333 4.29584 3.39596 6.45038 5.0983-5.04736 8.35113-18.77063 9.74508-26.55896 3.68887-4.14666-3.2245-6.14422-7.66342-6.22064-12.93018-.02655-1.82895-.00067-3.65866-.00238-5.95627m10.36792-7.0315c-.54431 1.47633-1.08868 2.95261-1.74579 4.73478h16.94794c-2.58911-3.21497-3.96991-6.32773-6.30982-7.46198-2.60797-1.26428-6.18652-1.073-8.89233 2.7272z"/><path fill="#231F20" d="M869.43945 437.98355c4.03528-.98056 7.65906-1.96374 11.8645-3.10474l5.65021 4.4661c-5.27154 7.30844-15.06909 9.36285-23.75952 5.54819-4.36066-1.91416-7.46472-5.47559-8.32288-10.47919-1.60266-9.3451-2.73126-18.86392 5.31348-25.92587 5.10468-4.48114 11.71082-4.92853 17.78174-1.86118 5.25732 2.65622 9.10986 6.87274 9.04144 13.42688-.02923 2.80035-.00482 5.60126-.00482 8.80197h-23.74457c-.77807 5.12537 1.88312 7.51242 6.18042 9.12784m-.80407-15.98053h8.9339c.32232-4.27167-2.29767-7.67563-5.92426-7.98508-5.23493-.44668-7.82129 1.92514-8.42761 7.98508h5.41797zm-516.37055 19.79813c-1.32056-.94715-2.36505-1.63611-3.6546-2.48676 2.42572-2.05996 4.54764-3.862 6.23501-5.29498 4.12421 1.24017 8.65177 2.6679 13.22779 3.91846.85754.23434 2.18112.08276 2.8164-.45249 1.5105-1.27255 2.73758-2.88159 4.07917-4.35464-1.6804-1.0394-3.24158-2.53433-5.06885-3.01252-2.81-.73532-5.84283-.57257-8.70956-1.14755-5.93546-1.19043-8.70987-4.3955-9.22513-9.55447-.77347-7.74405 2.76385-11.47534 7.81433-13.18161 8.303-2.80509 16.3276-1.72241 23.23721 4.27273-4.02176 6.92508-3.94702 6.7129-10.89258 4.26624-2.51745-.88684-5.53454-.85486-8.22683-.50244-1.09214.14294-1.926 2.25894-2.87738 3.47714 1.44601 1.07986 2.75985 2.76773 4.36477 3.11658 3.65732.79507 7.55512.54056 11.1739 1.44116 4.23962 1.05508 6.825 4.2167 7.42086 8.61365.85489 6.3082-1.09058 10.33197-6.34299 13.1336-8.7564 4.67072-17.07534 3.02204-25.37152-2.2521zm564.33191-35.7865c2.79389 1.34186 5.17066 2.66766 7.47846 3.95495-2.90131 7.47532-3.8042 7.67627-10.33918 5.10462-2.61358-1.02844-5.77069-1.09311-8.62658-.87872-1.11151.0834-2.54328 2.018-2.90613 3.35913-.17938.66296 1.5827 2.43203 2.73443 2.76062 2.93842.83816 6.0146 1.4855 9.05896 1.6029 7.6582.29535 10.6858 4.90256 11.04468 10.33353.54163 8.19635-3.5484 12.079-10.69696 13.74866-9.34466 2.18252-17.32336-.70817-24.3894-6.8476 4.6842-6.05331 5.02685-5.76923 11.58258-3.21243 3.33435 1.30044 7.38379 1.1294 11.07544.94226 1.1828-.05994 2.25488-2.30435 3.37762-3.54932-1.42364-1.11026-2.70587-2.83642-4.30035-3.2024-3.30261-.75802-6.818-.54726-10.16046-1.18346-4.86713-.9264-8.46863-5.62815-8.53394-10.57431-.0805-6.09067 3.21191-11.57056 8.29895-12.22824 4.88623-.63175 9.91736-.14276 15.30188-.1302zm-595.08319.00003c3.11078 6.98666 5.80649 13.95364 8.44006 20.94403.56467 1.49872.90442 3.08218 1.54813 5.3245 2.31747-7.29365 4.60129-13.89692 6.48346-20.61277 1.23206-4.39606 3.42822-6.68509 8.2221-5.7125 1.10871.22495 2.30195.03321 3.97376.03321-4.62802 12.87527-9.1282 25.36096-13.59787 37.85757-.91882 2.56897-1.63165 5.21357-2.59836 7.76304-2.97601 7.84817-5.37841 11.46978-15.72903 10.08929v-6.84897c7.83496-2.99393 9.78311-7.38952 6.81833-15.5213-3.99994-10.97092-7.94019-21.9636-12.04346-33.32742 2.80219 0 5.42389 0 8.48288.01132zm440.17432 35.24551c-4.4541-11.74005-8.65638-23.17059-12.8404-34.55163.50867-.32456.76032-.6218 1.02564-.63458 8.4292-.40568 8.41339-.39603 11.16809 7.72247 1.94275 5.72577 3.93622 11.43432 6.21869 18.0545 2.48932-7.62832 4.89703-14.09448 6.6557-20.73257 1.08105-4.08042 2.9751-5.85666 7.18591-5.16107 1.4549.24035 2.98297.0383 4.65137.0383-5.97424 16.84616-11.79578 33.52642-17.83814 50.12634-1.65844 4.55615-6.15954 6.18735-13.66406 5.58075 0-2.40064 0-4.82813-.00543-7.25763 6.78308-.51795 8.57562-7.39539 7.44263-13.18488z"/><path fill="#221F20" d="M1218.9967 443.77063c.00061-12.76431.00061-25.0487.00061-37.83075 3.44532.74258 7.1322-1.6314 9.84937 2.37894 4.33484-4.23001 10.1781-4.56736 15.73376-1.94507 5.5807 2.63403 7.67176 7.80179 7.48084 14.07907-.25269 8.29932-.06238 16.61212-.06238 25.24808h-9.00561c0-7.6818.35608-15.47113-.19837-23.1951-.18713-2.60758-2.12158-6.04532-4.29138-7.26618-1.88904-1.0628-5.9154-.38241-7.74097 1.08783-1.7544 1.41285-2.51123 4.7998-2.6294 7.3688-.33422 7.27342-.11694 14.57212-.11694 23.15723-3.44177-.99319-6.23095-1.79806-9.01953-3.08285zm-551.86218-37.76834c2.44245-.00317 4.41022-.00317 6.86713-.00317v40.06299c-3.37195-.9043-7.16168 1.9826-9.4997-2.40955-7.77856 5.4241-16.4826 3.82672-21.34558-4.14612-1.2732-2.08743-1.98578-4.82092-2.0556-7.28323-.24408-8.61222-.09454-17.23557-.09454-26.03809h8.99707c0 6.62396-.07764 13.37665.04644 20.12558.03821 2.0784.37055 4.23169 1.02185 6.2006 1.10505 3.3402 3.54248 5.25423 7.19355 4.74047 3.9002-.54877 6.76428-2.33469 6.742-6.88754-.03345-6.8316-.0949-13.66553.06513-20.4935.03045-1.30014 1.03344-2.57743 2.06225-3.86844z"/><path fill="#231F20" d="M1039.00488 417.4032c6.42823-12.88468 17.01966-15.80512 28.5304-8.621 3.7179 2.32043 5.00671 3.98425.55627 6.68353-.94824.57516-1.55932 1.70657-1.98205 2.18918-3.87451-1.31897-7.29883-3.4805-10.6814-3.41718-6.00769.11252-9.8606 7.9322-8.3396 15.02832 1.82532 8.5159 9.99219 10.62226 15.5907 5.83414 3.72253-3.1836 5.82336 1.44293 8.28735 3.39407-2.69763 6.6879-12.2943 9.66294-21.15051 7.42905-6.18994-1.5614-11.62598-9.23737-11.7511-16.86966-.06128-3.73868.5968-7.48914.93994-11.65045z"/><path fill="#221F20" d="M417.27551 445.068c-9.31918-6.65076-12.68097-15.60926-10.05578-25.6432 1.98397-7.5831 6.7788-12.5325 14.34127-14.16213 7.22535-1.55701 13.38184 1.09768 18.86496 6.7467a535328.37866 535328.37866 0 0 0-6.89816 4.95953c-2.52151-.75576-6.21667-2.9815-9.67633-2.66147-6.6662.61667-10.16748 10.1537-6.99182 17.27286 2.85019 6.38944 8.73141 7.82361 14.43893 3.81943 1.02066-.716 3.12131-.54376 4.42975-.03168 1.59284.62341 2.87503 2.04053 4.28229 3.1073-4.6724 7.64212-12.0846 9.82712-22.7351 6.59265zm186.73377-13.61054c.0559-4.26865-.24994-8.14343.26819-11.90473.89324-6.48434 4.83056-11.31936 10.79217-13.39303 8.4234-2.92996 16.06207-.98654 22.01898 6.64532-1.06054.93958-2.33941 1.8065-3.2735 2.9541-2.11969 2.60404-3.669 2.5659-6.5382.42417-2.05414-1.5333-6.2245-2.2547-8.33692-1.16977-2.58484 1.3276-5.25372 4.74075-5.66156 7.5725-.76245 5.2938-1.62323 11.72044 5.35944 14.12855 2.448.84424 6.59314 1.08255 8.04321-.3483 3.56653-3.5194 5.55194-2.21728 8.00708.75144.5655.6838 1.52612 1.04089 2.47827 1.66131-3.7713 6.15335-9.83258 8.4199-16.23144 7.97449-7.69184-.5354-13.92224-4.28488-15.9936-12.63077-.19085-.7691-.60992-1.48157-.93212-2.66528z"/><path fill="#231F20" d="M732.9975 418.15735v-4.779c-1.3045-.22454-2.50464-.43112-3.8352-.66012v-6.34985c1.12304-.21295 2.33196-.4422 3.75396-.71182v-12.32499h8.8872v12.36627l5.92652.4863v6.56824l-5.72516.47476c0 7.24228-.27167 14.53647.22925 21.7772.10022 1.44811 3.14673 2.69235 5.56915 4.61285v5.97131c-11.5592 1.30936-14.82-1.5931-14.80682-12.95767.00537-4.66385.00104-9.3277.0011-14.47348zm536.46832 27.83777c-5.57422-1.3408-7.77588-4.52149-7.54822-9.95636.31263-7.46079.07837-14.9445.07837-22.7826-1.35583-.17251-2.5647-.32632-3.86426-.4917v-6.45156c1.21521-.20285 2.42017-.40402 3.82483-.63855v-12.36423h8.86548v12.38116l4.90027.52039v6.53116l-4.71704.51114c0 7.20807-.22669 14.49759.19165 21.7499.0835 1.44709 2.6311 2.75205 4.6632 4.72526v6.25613c-2.08007 0-4.01794 0-6.39428.00986z"/><path fill="#221F20" d="M493.0022 413.99997c-.00019 6.48767.07364 12.47668-.02906 18.46261-.05908 3.44208-.24703 6.75577 4.91584 5.48298v8.5528c-3.48682-.70228-7.0036-.77311-9.8305-2.20545-1.86597-.94544-3.84272-3.82633-3.8835-5.87815-.31695-15.93689-.17501-31.88284-.17501-48.12335h9.00223v23.70856zm189.99585 17.99344v-25.86756c3.42193.63172 7.27319-2.38763 9.60675 2.3367 7.35455-4.82638 13.30499-4.81991 18.59918.3636-1.927 2.46453-3.8761 4.95727-5.8067 7.42635-7.32703-5.14212-13.07459.0601-13.35437 8.73545-.21912 6.79388-.044 13.60046-.044 20.72168h-9.0008c0-4.35856 0-8.78821-.00006-13.71622z"/><path fill="#231F20" d="M190.01266 422.46887c.00362 7.93054.00362 15.40906.00362 23.21839h-8.70808v-39.48691c3.07887.62329 6.93484-2.52689 9.2852 2.21298 6.12448-4.82873 11.77263-4.8207 18.56161.31763-1.76667 2.28863-3.46371 4.63946-5.36053 6.81619-.38116.43747-1.5756.43704-2.30318.26031-8.1962-1.99078-9.25227-1.43963-11.47863 6.66141z"/><path fill="#221F20" d="M1327.92773 446.0039c-2.1123-.00189-3.75073-.00189-5.65918-.00189v-39.46978c7.06983-1.15369 7.66395-1.01804 8.8921 2.01263 7.35034-4.99942 12.60815-4.96289 19.0365.34894-1.99158 2.29834-3.98511 4.59882-6.20582 7.16162-.64416-.22907-1.5564-.48563-2.41186-.86868-5.61792-2.51526-10.42566.55719-10.5365 6.91244-.1189 6.82367-.04529 13.65091-.02881 20.47653.0044 1.84644.35046 3.87757-3.08643 3.4282zm-316.92944-9.04394v-31.47894c3.32025.67972 6.21869 1.43228 9.16498 1.79147 1.05725.1289 2.23608-.67416 3.34924-1.0799 6.35077-2.315 10.78192-1.48605 14.52973 2.81995-1.07727 1.55066-2.1853 3.1294-3.27515 4.72052-.65845.9613-1.2887 1.94184-1.7555 2.6474-8.55285-4.09042-13.00591-1.31433-13.0103 7.18497-.0038 7.28833-.00086 14.57666-.00086 22.16138h-9.00214v-8.76685zM400.00317 408.2353c.00257 12.75229.00257 25.0252.00257 37.53033h-8.80005v-40.56155c3.22098.93457 6.00793 1.7432 8.79748 3.03122zm318.02906-2.23904c1.78057.00122 3.08905.00122 4.68866.00122v39.70877h-8.72461c0-12.54273-.05579-25.12964.15191-37.71222.01136-.6849 2.224-1.3335 3.88404-1.99777z"/><path fill="#231F20" d="M394.09009 398.00308c-5.70624-.9606-1.8912-4.97052-3.45874-7.67914h9.04043v7.68024c-1.60595 0-3.3601 0-5.5817-.0011z"/><path fill="#221F20" d="M714.4356 390.40182c2.94886-.32327 5.5614-.32327 8.37202-.32327v7.73017h-8.70838c0-2.28232 0-4.68296.33637-7.4069z"/><path fill="#FEFFFF" d="M398.14343 158.99707c-3.09506.39131-4.23575-.31479-4.21627-3.36446.13806-21.62658.07348-43.25447.07348-65.31646 1.28891-.10249 2.53714-.2849 3.78583-.28803 10.98062-.02742 21.9728-.33721 32.93863.06395 10.18264.37251 20.30655 1.68516 29.40118 6.92877 7.92813 4.57103 13.11872 11.24202 13.75669 20.49944.36798 5.33977.1084 10.8971-.9734 16.12808-2.68664 12.99147-12.5877 18.77184-24.169 22.33013-16.4383 5.05058-33.3844 2.3739-50.59714 3.01858z"/><path fill="#FEFDFD" d="M820.21258 398.00397c3.63672-.00373 6.7953-.02658 9.9535.00021 5.31042.04504 8.69122 2.7499 8.82605 7.0214.15417 4.88412-3.49604 8.74636-8.64484 8.94876-3.3194.13043-6.64838.02737-9.9729.0089-.63281-.0035-1.26501-.101-2.36755-.19543 0-4.74087-.0655-9.3469.07666-13.9465.0194-.62784 1.075-1.2236 2.12909-1.83734z"/><path fill="#FEFEFE" d="M244.15631 414.99976c-1.37323-.94907-2.97243-1.8534-3.03537-2.85431-.2805-4.4603-.1218-8.94822-.1218-14.84918 5.4447.92163 10.59922 1.65423 15.69043 2.69622 4.85785.9942 4.85541 5.03382 4.15638 8.5303-.71451 3.57383-2.6125 6.7258-7.24088 6.5019-2.98257-.14429-5.97787-.02554-9.44876-.02493z"/><path fill="#FDFDFD" d="M119.50138 414.17337c5.81153 3.44055 7.7332 17.09262 3.26821 21.49533-2.93062 2.88971-7.2382 2.50565-9.82959-.2376-3.43669-3.63813-3.21121-16.04124.56613-19.26478 1.43908-1.22809 3.72609-1.46258 5.99525-1.99295z"/><path fill="#FDFCFC" d="M989.83472 429.0036c3.81787 2.17886 2.59112 5.18445 1.05444 7.35095-1.8982 2.67606-9.77893 2.2562-12.16595-.15191-2.56128-2.5839-1.99921-5.34598 1.50805-6.12876 2.98102-.66534 6.094-.73904 9.60346-1.07028z"/><path fill="#FCFCFC" d="M452.45135 436.95245c-3.42169-4.05035-2.91873-6.00387 1.65775-6.90493 3.45038-.67936 6.9841-.9353 10.48135-1.3798.85749 8.84812-2.53482 11.06809-12.1391 8.28473z"/><path fill="#FDFCFC" d="M1196.8667 422.00293c-3.4541-.00003-6.44434-.00003-9.69702-.00003.51135-4.78915 2.52576-7.7931 7.45996-7.99722 5.26477-.21784 7.48999 2.88336 8.35852 7.99731-2.06384 0-3.86072 0-6.12146-.00006z"/><path fill="#FCFCFC" d="M1299.64075 414.01663c2.54077 2.29688 4.6748 4.58505 7.70764 7.83707h-17.22193c.67359-5.59543 3.56592-8.263 9.51429-7.83707z"/><path fill="#FDFCFC" d="M153.90868 414.57983c7.52069-.93155 8.80514-.05597 10.9398 7.17438h-17.22394c2.50727-2.87546 4.2548-4.87967 6.28414-7.17438zm795.59639-.56591c2.37731 2.14831 4.34137 4.29028 6.30535 6.43228l-.91717 1.194h-15.07422c1.02289-6.70792 2.08496-7.61014 9.68604-7.62628zm-372.83661 2.80383c2.40173-3.5243 5.98028-3.71558 8.58825-2.4513 2.3399 1.13425 3.7207 4.24701 6.30982 7.46198h-16.94794c.6571-1.78217 1.20148-3.25845 2.04987-5.01068zm291.50201 5.18527h-4.95306c.60632-6.05993 3.19268-8.43176 8.42761-7.98508 3.62659.30945 6.24658 3.71341 5.92425 7.98508h-9.3988z"/></svg>