<svg xmlns="http://www.w3.org/2000/svg" role="img" viewBox="-66.65 -66.65 3465.80 785.80"><path fill="#FFF" d="M1 209V1c311.69156 0 623.38312 0 935.35468.38544-6.23047 1.12592-12.84229 1.37732-19.23145 2.7025-16.34222 3.38956-32.89935 6.24673-48.78955 11.18598-20.46167 6.36028-39.74964 15.72872-58.35596 26.59195-22.43835 13.10052-43.01666 28.61867-61.5943 46.57717-12.05157 11.6499-23.31079 24.31486-33.5907 37.56055-20.03985 25.8214-35.4193 54.42633-46.72888 85.1202-11.8551 32.17437-18.02508 65.58425-19.88928 99.7133-.73029 13.37012-.1341 26.89872.98212 40.26124 1.30365 15.60751 3.32855 31.19851 5.94885 46.64258 4.47174 26.35687 13.33258 51.39224 24.63104 75.5741 13.54657 28.99343 31.03687 55.4685 52.46057 79.1604 14.28235 15.79449 30.05817 30.12066 47.3902 42.66216 24.25043 17.54761 50.39862 31.5263 78.61847 41.38117 23.0755 8.05822 46.7622 13.78613 71.26953 15.55993.8833.0639 1.68494 1.25537 2.52466 1.92133H1c0-66.35785 0-132.71625.35073-199.40494.7821.51886 1.38183 1.32349 1.61978 2.2237 4.09776 15.50286 12.47007 28.28512 25.03124 38.1236 14.76894 11.56762 31.58628 16.33819 50.43769 15.16698 23.13512-1.4374 41.10918-11.81576 54.4968-30.20239 12.27542-16.85913 15.54992-36.05429 11.95487-56.3255-3.23399-18.23532-12.75566-33.1466-27.37494-44.18384-16.95005-12.79687-36.39895-17.17743-57.41788-13.38507-19.48664 3.5159-35.53969 12.9985-46.20945 29.78623C8.54801 404.20197 5.23187 413.89197 1 423c0-60.0249 0-120.04983.34462-180.41098 1.13985 1.59648 2.05385 3.4897 2.7114 5.46819 4.91057 14.77519 13.44204 26.90449 26.15774 35.99629 16.59065 11.86236 34.91122 16.13815 55.10678 12.99808 18.86344-2.93293 33.9249-12.24592 45.59084-26.9942 11.01869-13.93 15.7757-30.0041 15.14453-47.8175-.61202-17.2737-6.29633-32.67065-17.82332-45.29084-17.87014-19.56491-40.57422-28.33814-66.74139-23.66326-30.07372 5.37279-49.9118 23.42032-58.55885 53.13796C2.6517 207.38824 1.66015 208.14592 1 209m229.97992 64.4748c11.80801 12.99505 26.11188 21.11187 43.71753 23.66973 23.96405 3.48166 44.90936-2.98596 61.98166-19.62646 16.5967-16.177 23.89425-36.25675 21.44845-59.87522-2.7524-26.57922-16.61749-45.3596-39.4867-57.56198-16.86333-8.99783-35.16286-10.39165-53.51555-4.92613-20.74863 6.179-36.23325 19.17767-45.47219 38.81885-6.36249 13.52612-8.1065 27.8743-5.78168 42.84529 2.134 13.74215 7.87577 25.56726 17.10848 36.65591m120.93472 195.72754c.36624-1.0831.66678-2.19385 1.10877-3.24509 5.553-13.20742 7.48596-27.02145 4.7504-40.99023-3.5809-18.28552-12.38157-33.75168-27.52116-45.25842-18.51605-14.07303-39.28845-17.91013-61.57165-12.92377-36.08472 8.0747-60.9981 44.18973-54.83562 81.91953 3.25392 19.92205 12.5569 36.06793 28.48575 47.75637 19.65968 14.42603 41.86061 17.53244 65.28072 10.64054 20.08905-5.91172 34.09054-19.16062 44.3028-37.89893zM2084 654c-183.02686 0-366.05371 0-549.34985-.39038 18.52807-2.79419 37.4049-4.70654 56.10241-7.72882 22.34156-3.61133 43.68372-10.94153 64.18653-20.43018 17.93432-8.29986 34.62646-18.6507 49.77136-31.53161 18.34094-15.5993 33.83069-33.40747 44.78613-54.93836 10.4723-20.58093 15.88513-42.66787 17.3202-65.52524 1.18798-18.92132.34838-37.89636-3.79176-56.57797-4.50451-20.32513-12.68261-38.90866-26.40893-54.66568-15.81226-18.15146-35.87195-30.32428-58.0094-39.15182-20.04822-7.99436-40.6936-14.07343-61.91065-18.19025-32.0465-6.2181-64.06018-12.60513-96.10595-18.8265-22.8025-4.42686-45.74475-8.20008-68.42188-13.1873-20.82373-4.57961-40.33777-12.88363-56.60754-26.98647-21.82495-18.91802-27.75562-43.48284-21.89331-70.91613 5.51745-25.8197 22.3048-43.32391 44.80664-55.71482 23.07764-12.70796 48.29419-18.54012 74.26929-20.00529 22.93237-1.29354 46.02368-.93507 68.80102 2.87223 19.54346 3.26673 38.53821 8.4701 56.82398 16.47355 20.75952 9.08613 39.53527 21.12899 57.54028 35.40802a71266818.2846 71266818.2846 0 0 0 72.08667-75.20269c-6.68494-4.98046-12.52185-9.42083-18.45276-13.73193-26.03674-18.92536-54.005-34.2744-84.3783-45.05543-25.55078-9.06934-51.82373-14.89162-78.8911-17.04197-4.77918-.3797-9.51649-1.2898-14.27308-1.95497C1928.02686 1 2304.05371 1 2680.38379 1.3688c-1.0957.78385-2.47046 1.3287-3.89697 1.59361-12.77808 2.373-25.69532 4.14866-38.32251 7.14925-26.17163 6.21921-50.14307 17.79624-72.32007 32.76883-16.8545 11.37898-32.85254 24.03987-45.96338 39.81472-9.18921 11.05625-18.50977 22.06842-26.81543 33.77842-11.56934 16.31128-18.88062 34.84966-23.88574 54.06385-4.20777 16.15301-7.74854 32.59059-9.98047 49.11879-2.63379 19.5038-4.9082 39.23579-4.9768 58.87709C2453.78588 403.68766 2454 528.84418 2454 654c-99.3601 0-198.72046 0-298.3501-.39032 4.8191-.79639 9.93994-.96338 14.98926-1.65448 13.89404-1.9018 27.96143-3.13336 41.59033-6.2475 26.33203-6.0166 51.50757-15.38336 75.1753-28.70495 24.56225-13.82508 46.13745-31.45673 66.70141-50.5138 3.15723-2.92578 3.38233-4.72333.1394-7.88928-14.54809-14.203-28.83447-28.67413-43.18676-43.0772-1.14575-1.14967-1.95679-2.63703-3.1211-3.7634-7.11962-6.88734-14.29614-13.7158-21.30468-20.42115-4.35083 3.87009-8.7981 7.81809-13.23682 11.7757-16.31323 14.54489-34.72559 25.68649-54.63599 34.64627-30.8916 13.90149-63.50463 20.13037-97.0078 22.10717-16.44605.9704-32.81495-.43933-49.12306-3.6972-33.25878-6.64416-61.61364-22.24353-86.11962-45.2374-11.8949-11.16098-21.76197-24.0817-30.02027-38.09985-9.00195-15.28076-16.3396-31.3917-20.4674-48.7272-2.96875-12.46823-5.72791-25.01258-7.85364-37.6453-1.21546-7.2228-.97535-14.69055-1.42005-22.5716h460.8429c.4878-8.7254 1.44507-16.968 1.29468-25.19033-.23829-13.03238-.93555-26.0736-1.96656-39.06915-.93115-11.73764-2.55981-23.42032-3.8999-35.12506-2.2251-19.4359-7.1184-38.2763-12.8081-56.9306-7.56104-24.78803-17.98706-48.3261-31.23511-70.59193-11.50171-19.3302-25.02759-37.16554-40.81055-53.18844-6.58716-6.68733-13.78784-12.78517-20.87329-18.96343-14.5542-12.69065-30.67358-23.0895-47.79248-31.94895-20.98657-10.861-43.03003-18.96857-66.15234-23.75308-12.9104-2.67146-26.01538-4.78866-39.13916-5.92455-11.27369-.97576-22.7063-.45684-34.05445-.1234-9.03369.26541-18.0537 1.16542-27.06714 1.93063-16.9331 1.43755-33.30151 5.58528-49.4231 10.74072-18.00866 5.75899-35.06872 13.66607-51.3911 23.1978-17.44031 10.18455-33.62256 22.14693-47.85852 36.39659-10.44752 10.45772-20.2179 21.69973-29.3849 33.30698-19.81115 25.0849-34.15441 53.28167-45.03295 83.25081-8.55127 23.55715-15.01807 47.66985-17.99243 72.61266-1.80286 15.11938-4.08618 30.2356-4.78882 45.41641-.6659 14.3829.05383 28.87125.89306 43.27072.81055 13.90473 2.36353 27.77643 3.92933 41.62433 2.19616 19.42346 7.02087 38.29007 12.9093 56.88773 6.3324 19.99987 14.4884 39.19299 24.66345 57.5932 11.85217 21.43243 26.18518 40.99285 43.03052 58.66748 6.9287 7.26983 14.69226 13.76556 22.27417 20.38666 14.42077 12.59326 30.55542 22.67962 47.39123 31.67382 19.40076 10.36457 39.87732 18.21466 61.14283 23.4881 15.43115 3.8266 31.34716 5.69043 47.02758 8.53473 1.2505.22687 2.35254 1.27472 3.52344 1.94104z"/><path fill="#FFF" d="M1460 654c-157.35828 0-314.71643 0-472.34985-.38855 82.56652-4.17071 151.09387-39.58423 210.4237-95.60345-.3485-.51172-.56299-.9629-.89575-1.29602-22.61243-22.63172-45.26807-45.2204-67.80823-67.92386-2.51391-2.53202-3.88488-1.65534-6.08777.3266-7.8214 7.03698-15.21496 14.8197-23.95007 20.50906-13.68567 8.91376-27.96704 17.10248-42.65332 24.2475-23.70178 11.5313-49.36755 16.0927-75.4591 18.0188-9.29554.68615-18.68769-.05286-28.0296.14807-14.04291.30206-27.76832-1.90705-41.34266-5.0813-31.15393-7.28485-58.86377-21.7428-82.81744-42.6759-25.08893-21.92515-44.40161-48.39857-58.06006-78.9874-11.51544-25.78955-18.75202-52.69702-20.71777-80.74585-1.0625-15.16055-.5592-30.60092 1.00585-45.73215 1.91816-18.54468 6.30951-36.71695 12.68341-54.3778 9.6756-26.80935 23.74189-51.03151 42.58314-72.31367 14.2293-16.07263 30.8454-29.53373 49.58471-40.07933 29.37134-16.52878 61.19702-25.51744 94.65088-27.83502 20.53308-1.42246 41.04602.10723 61.3827 4.58922 27.76995 6.12023 53.50628 16.67984 77.33452 32.05635 5.49463 3.54576 10.87037 7.27599 16.18482 10.84346 24.417-23.72104 48.5481-47.16442 73.03564-70.95418-5.89123-4.66944-11.276-8.91636-16.6383-13.1915-15.83716-12.62636-33.1604-23.00659-51.19763-31.97813-23.55762-11.71736-48.28821-20.52515-74.06018-26.18912-17.25074-3.79125-34.60328-6.83408-52.31098-7.42435C983.3177 1.92238 982.16315 1.33327 981 1 1147.35828 1 1313.71643 1 1480.40405 1.37948c-3.27893 1.12469-6.85437 2.17744-10.5006 2.56334-18.49781 1.95776-36.49757 6.17896-54.18812 11.76897-16.72595 5.2853-33.21448 11.3823-48.18176 20.58663-13.1383 8.07959-26.42981 16.2934-38.11743 26.25102-14.5055 12.35812-27.1792 26.65022-37.05066 43.36558-13.599 23.0273-21.63794 47.73256-23.17004 74.22992-1.26355 21.84943.4591 43.55881 6.59826 64.90401 6.40906 22.28314 16.99256 42.095 33.38 58.2247 9.59498 9.44394 20.73829 17.50229 31.91346 25.11456 24.29724 16.55066 51.6471 26.44791 79.93786 33.43265 18.74341 4.62757 37.87525 7.73203 56.8943 11.18082 24.81506 4.49975 49.64355 8.96277 74.55358 12.88821 22.99085 3.62308 45.65686 8.41376 67.23828 17.22702 13.36463 5.45774 25.6897 12.71704 34.3147 24.93772 11.37231 16.11355 11.49438 34.1617 7.65723 52.16736-5.31067 24.92065-20.26514 43.0465-42.87635 54.80822-14.67028 7.63117-30.18493 12.72876-46.56274 14.96527-13.60242 1.85755-27.21692 3.91028-40.89649 4.8357-11.96203.80926-24.0238.29467-36.03833.12811-9.26452-.12842-18.55969-.22235-27.7771-1.04785-14.82385-1.32758-29.80346-2.22656-44.33056-5.19715-14.99976-3.0672-30.0022-7.24603-44.17127-12.99114-22.34301-9.05952-41.90832-22.8161-58.37793-40.64225-1.43945-1.55813-2.34045-3.61374-3.47387-5.41043-25.31653 24.88403-49.19788 48.35742-73.65393 72.3957 8.89953 7.51928 17.01733 15.33373 26.08545 21.8197 14.255 10.19586 28.77417 20.13488 43.86535 29.0213 20.78711 12.24041 43.46436 20.32214 66.69214 26.62237 20.76001 5.63086 41.87769 9.53156 63.33496 11.54504 5.54187.52002 11.00061 1.92627 16.49756 2.92542z"/><path fill="#0070BC" d="M2454.46875 654c-.46875-125.15582-.68286-250.31235-.24634-375.46664.0686-19.6413 2.34302-39.3733 4.9768-58.8771 2.23194-16.5282 5.77271-32.96577 9.98048-49.11878 5.00512-19.2142 12.3164-37.75257 23.88574-54.06385 8.30566-11.71 17.62622-22.72217 26.81543-33.77842 13.11084-15.77485 29.10889-28.43574 45.96338-39.81472 22.177-14.9726 46.14844-26.54962 72.32007-32.76883 12.6272-3.00059 25.54443-4.77625 38.3225-7.14925 1.42652-.26491 2.80128-.80976 4.35645-1.5936C2693.6875 1 2706.375 1 2719.72168 1.39038c10.08594 1.46037 19.5293 2.4048 28.93652 3.62719 17.9773 2.33603 35.18653 7.69729 51.57569 15.1566 25.80029 11.74292 49.25195 27.10303 67.51562 49.21722 7.86841 9.52725 15.1482 19.57824 22.16724 29.75554 4.55322 6.60197 4.12329 6.89585 8.47705.01396.17432-.27537.49487-.45748.67212-.73156 10.89502-16.84313 22.62524-33.07193 38.62964-45.4643 11.30151-8.75097 22.6958-17.65346 35.07226-24.68673 22.88819-13.00694 47.68018-21.10793 73.94678-24.38914 3.49438-.4365 6.8601-1.90082 10.2854-2.88916C3070.35425 1 3083.70825 1 3097.72168 1.39038c5.57642.7949 10.49097 1.24166 15.41187 1.59622 16.31542 1.17548 32.27563 4.49963 47.53466 10.11909 15.1543 5.5808 30.16895 11.82455 44.55176 19.14026 17.0332 8.66359 32.60571 19.90746 46.43701 33.13252 10.38574 9.93025 20.0896 20.62651 29.55152 31.4581 15.23803 17.44346 26.34033 37.34767 33.88427 59.2863 7.20484 20.9519 12.19922 42.35876 15.1482 64.32722.55542 4.13547-.92115 9.44252 3.75903 12.54991 0 2.04167 0 4.08333-.375 6.72963-.12476 3.15988.125 5.71512.375 8.27037v406c-37.02002 0-74.04126 0-111.53125-.46863-.46875-122.79272-.36694-245.117-.60132-367.44064-.02856-14.95004-1.59033-29.921-2.92944-44.8385-1.56006-17.38517-5.96875-34.13983-11.85645-50.585-9.04052-25.2523-23.07837-46.98765-44.44897-63.39448-18.99365-14.5819-41.11182-21.6904-64.74024-23.02811-12.6062-.7137-25.4563.30028-38.01562 1.9292-20.25806 2.62744-38.33838 11.02174-53.84473 24.3718-16.47436 14.1836-27.91064 32.08742-35.83154 52.11865-11.77612 29.78105-16.86377 61.1233-16.9917 92.86516C2952.70117 401.68454 2953 527.8429 2953 654c-38.6875 0-77.375 0-116.53125-.46863-.46875-105.61401-.33228-210.75967-.56006-315.9045-.0603-27.8534-.6809-55.7338-2.14087-83.54423-.74902-14.26297-2.88427-28.64673-6.21826-42.53775-5.91333-24.63774-15.33642-47.81009-31.96484-67.67277-12.18384-14.55371-26.93848-24.98242-44.4192-31.90618-18.21703-7.2153-37.28466-9.24461-56.54076-7.74547-12.25757.95432-24.75562 2.76413-36.42334 6.46717-19.19117 6.09087-35.68653 16.97477-49.07642 32.50743-10.77246 12.49605-19.05005 26.31427-25.11475 41.53183-5.59521 14.04011-10.27465 28.37169-12.05908 43.4706-1.72778 14.61744-4.69092 29.24833-4.73413 43.88035C2566.84082 399.38434 2567 526.69238 2567 654h-112.53125zm-370 0c-1.63965-.66632-2.7417-1.71417-3.99219-1.94104-15.68042-2.8443-31.59643-4.70813-47.02759-8.53473-21.2655-5.27344-41.74206-13.12353-61.14282-23.4881-16.83581-8.9942-32.97046-19.08056-47.39123-31.67382-7.58191-6.6211-15.34546-13.11683-22.27417-20.38666-16.84534-17.67462-31.17835-37.23505-43.03052-58.66748-10.17505-18.40021-18.33106-37.59333-24.66345-57.5932-5.88843-18.59766-10.71314-37.46427-12.9093-56.88773-1.5658-13.8479-3.11878-27.7196-3.92933-41.62433-.83923-14.39947-1.55896-28.88782-.89306-43.27072.70264-15.18082 2.98596-30.29703 4.78882-45.41641 2.97436-24.94281 9.44116-49.05551 17.99243-72.61266 10.87854-29.96914 25.2218-58.1659 45.03296-83.2508 9.16699-11.60726 18.93737-22.84927 29.38489-33.307 14.23596-14.24965 30.4182-26.21203 47.85852-36.39658 16.32238-9.53173 33.38244-17.43881 51.3911-23.1978 16.12159-5.15544 32.49-9.30316 49.4231-10.74072 9.01343-.7652 18.03345-1.66522 27.06714-1.93064 11.34815-.33343 22.78076-.85235 34.05445.1234 13.12378 1.1359 26.22876 3.2531 39.13916 5.92456 23.12231 4.7845 45.16577 12.89208 66.15234 23.75308 17.1189 8.85945 33.23828 19.2583 47.79248 31.94896 7.08545 6.17825 14.28613 12.2761 20.8733 18.96342 15.78295 16.0229 29.30883 33.85824 40.81054 53.18845 13.24804 22.26582 23.67407 45.80389 31.2351 70.59191 5.6897 18.65432 10.58301 37.4947 12.80811 56.9306 1.34009 11.70475 2.96875 23.38743 3.8999 35.12507 1.031 12.99554 1.72827 26.03677 1.96656 39.06915.15039 8.22232-.80689 16.46494-1.29468 25.19034h-460.8429c.4447 7.88104.2046 15.34878 1.42005 22.5716 2.12573 12.63271 4.88488 25.17706 7.85363 37.64529 4.12781 17.3355 11.46546 33.44644 20.46741 48.7272 8.2583 14.01816 18.12537 26.93887 30.02027 38.09985 24.50598 22.99387 52.86084 38.59324 86.11963 45.2374 16.3081 3.25787 32.677 4.6676 49.12304 3.6972 33.50317-1.9768 66.11621-8.20568 97.00781-22.10717 19.9104-8.95978 38.32276-20.10138 54.63599-34.64627 4.43872-3.95761 8.88599-7.90561 13.23682-11.7757 7.00854 6.70535 14.18505 13.53382 21.30468 20.42114 1.16431 1.12638 1.97535 2.61374 3.1211 3.7634 14.3523 14.40308 28.63867 28.8742 43.18676 43.07721 3.24293 3.16596 3.01783 4.9635-.1394 7.88928-20.56396 19.05707-42.13916 36.68872-66.70141 50.5138-23.66773 13.3216-48.84327 22.68835-75.1753 28.70495-13.6289 3.11414-27.69629 4.3457-41.59033 6.2475-5.04932.6911-10.17017.8581-15.44873 1.65448-23.54468.39032-46.89868.39032-70.72168.39032m-1.42407-548.54554c-3.38037.51333-6.75464 1.07016-10.14185 1.53247-14.57593 1.98936-28.44385 6.43736-41.78174 12.47163-22.62365 10.23529-41.53625 25.28703-57.49243 44.31297-14.69397 17.52109-25.74902 37.01823-33.7019 58.38425-5.60828 15.06674-9.95203 30.43107-11.59851 46.66136h353.23523c-3.13794-12.93655-5.4978-25.73148-9.38697-38.0435-7.44458-23.56757-18.85888-45.09125-34.29223-64.62728-13.54248-17.14268-29.79663-30.7573-48.6438-41.42181-25.27832-14.30338-52.93994-19.62959-81.58154-20.62883-7.90284-.2757-15.84644.61126-24.61426 1.35874zM1460.46863 654c-5.96558-.99915-11.42432-2.4054-16.96619-2.92542-21.45727-2.01348-42.57495-5.91418-63.33496-11.54504-23.22778-6.30023-45.90503-14.38196-66.69214-26.62237-15.09118-8.88642-29.61035-18.82544-43.86535-29.0213-9.06812-6.48597-17.18592-14.30042-26.08545-21.8197 24.45605-24.03828 48.3374-47.51167 73.65393-72.3957 1.13342 1.7967 2.03442 3.8523 3.47387 5.41043 16.4696 17.82614 36.03492 31.58274 58.37793 40.64225 14.16907 5.74511 29.17151 9.92395 44.17127 12.99114 14.5271 2.97059 29.50671 3.86957 44.33056 5.19715 9.21741.8255 18.51258.91943 27.7771 1.04785 12.01453.16656 24.0763.68115 36.03833-.12811 13.67957-.92542 27.29407-2.97815 40.89649-4.8357 16.3778-2.2365 31.89245-7.3341 46.56274-14.96527 22.6112-11.76172 37.56568-29.88757 42.87635-54.80822 3.83715-18.00565 3.71508-36.0538-7.65723-52.16736-8.625-12.22068-20.95007-19.47998-34.3147-24.93772-21.58142-8.81326-44.24743-13.60394-67.23828-17.22702-24.91003-3.92544-49.73852-8.38846-74.55359-12.88821-19.01904-3.4488-38.15088-6.55326-56.89429-11.18082-28.29077-6.98474-55.64062-16.88199-79.93786-33.43265-11.17517-7.61227-22.31848-15.67062-31.91345-25.11456-16.38746-16.1297-26.97095-35.94156-33.38-58.2247-6.13917-21.3452-7.86182-43.05458-6.59827-64.904 1.5321-26.49737 9.57104-51.20263 23.17004-74.22993 9.87146-16.71536 22.54516-31.00746 37.05066-43.36558 11.68762-9.95762 24.97912-18.17143 38.11743-26.25102 14.96728-9.20432 31.45581-15.30133 48.18176-20.58663 17.69055-5.59001 35.69031-9.8112 54.18811-11.76897 3.64624-.3859 7.22168-1.43865 10.96326-2.56334C1504.35425 1 1527.7085 1 1551.53137.99999c5.22522.66516 9.96253 1.57527 14.7417 1.95497 27.06738 2.15035 53.34033 7.97263 78.89112 17.04197 30.37329 10.78102 58.34155 26.13007 84.37829 45.05543 5.9309 4.3111 11.76782 8.75147 18.45276 13.73193a71266818.26825 71266818.26825 0 0 1-72.08667 75.2027c-18.005-14.27904-36.78076-26.3219-57.54028-35.40803-18.28577-8.00345-37.28052-13.20682-56.82398-16.47355-22.77734-3.8073-45.86865-4.16577-68.80102-2.87223-25.9751 1.46517-51.19165 7.29733-74.2693 20.0053-22.50182 12.3909-39.28918 29.89511-44.80663 55.71481-5.8623 27.4333.06836 51.99811 21.8933 70.91612 16.26978 14.10285 35.78382 22.40687 56.60755 26.98649 22.67713 4.9872 45.61939 8.76043 68.42188 13.18728 32.04577 6.22138 64.05945 12.6084 96.10595 18.82651 21.21705 4.11682 41.86243 10.1959 61.91065 18.19025 22.13745 8.82754 42.19714 21.00036 58.0094 39.15182 13.72632 15.75702 21.90442 34.34055 26.40893 54.66568 4.14014 18.68161 4.97974 37.65665 3.79175 56.57797-1.43506 22.85737-6.8479 44.9443-17.32019 65.52524-10.95544 21.53089-26.44519 39.33905-44.78613 54.93836-15.1449 12.88092-31.83704 23.23175-49.77136 31.53161-20.50281 9.48865-41.84497 16.81885-64.18653 20.43018-18.6975 3.02228-37.57434 4.93463-56.56213 7.72882-24.54468.39038-48.89893.39038-73.7218.39038z"/><path fill="#FFF" d="M2953.46875 654c-.46875-126.1571-.76758-252.31546-.26001-378.47055.12793-31.74187 5.21558-63.0841 16.9917-92.86516 7.9209-20.03123 19.35718-37.93504 35.83154-52.11865 15.50635-13.35006 33.58667-21.74436 53.84473-24.3718 12.55933-1.62892 25.40942-2.6429 38.01562-1.9292 23.62842 1.3377 45.74659 8.4462 64.74024 23.02811 21.3706 16.40683 35.40845 38.14218 44.44897 63.39447 5.8877 16.44518 10.29639 33.19985 11.85645 50.585 1.33911 14.91752 2.90088 29.88847 2.92944 44.8385.23438 122.32365.13257 244.64793.13257 367.44065C3132.64575 654 3043.29175 654 2953.46875 654zm-386 0c-.46875-127.30762-.62793-254.61566-.2517-381.92215.0432-14.63202 3.00634-29.2629 4.73412-43.88036 1.78443-15.0989 6.46387-29.43048 12.05908-43.4706 6.0647-15.21755 14.34229-29.03577 25.11475-41.53182 13.3899-15.53265 29.88525-26.41656 49.07642-32.50743 11.66772-3.70304 24.16577-5.51285 36.42334-6.46717 19.2561-1.49914 38.32373.53017 56.54077 7.74546 17.48071 6.92377 32.23535 17.35248 44.41919 31.90619 16.62842 19.86268 26.05151 43.03503 31.96484 67.67277 3.33399 13.89102 5.46924 28.27478 6.21826 42.53775 1.45996 27.81043 2.08057 55.69083 2.14087 83.54422.22778 105.14484.09131 210.2905.09131 315.90451C2746.64575 654 2657.29175 654 2567.46875 654z"/><path fill="#0070BC" d="M980.53137.99999c1.63178.33328 2.78632.9224 3.9593.9615 17.7077.59026 35.06023 3.6331 52.31097 7.42434 25.77197 5.66397 50.50256 14.47176 74.06018 26.18912 18.03723 8.97154 35.36047 19.35177 51.19763 31.97813 5.3623 4.27514 10.74707 8.52206 16.6383 13.1915a27887305.65256 27887305.65256 0 0 1-73.03564 70.95418c-5.31445-3.56747-10.69019-7.2977-16.18482-10.84346-23.82824-15.37651-49.56457-25.93612-77.33453-32.05635-20.33667-4.48199-40.8496-6.01168-61.38269-4.58922-33.45386 2.31758-65.27954 11.30624-94.65088 27.83502-18.73932 10.5456-35.3554 24.0067-49.58471 40.07933-18.84125 21.28216-32.90754 45.50432-42.58314 72.31368-6.3739 17.66084-10.76525 35.83311-12.6834 54.3778-1.56507 15.13122-2.06836 30.57159-1.00586 45.73214 1.96575 28.04883 9.20233 54.9563 20.71777 80.74585 13.65845 30.58884 32.97113 57.06225 58.06006 78.9874 23.95367 20.9331 51.66351 35.39105 82.81744 42.6759 13.57434 3.17425 27.29975 5.38336 41.34265 5.0813 9.34192-.20093 18.73407.53808 28.0296-.14807 26.09156-1.9261 51.75733-6.4875 75.45911-18.0188 14.68628-7.14502 28.96765-15.33374 42.65332-24.2475 8.7351-5.68936 16.12866-13.47208 23.95007-20.50906 2.20289-1.98194 3.57386-2.85862 6.08777-.3266 22.54016 22.70346 45.1958 45.29214 67.80823 67.92386.33276.33312.54724.7843.89575 1.29602-59.32983 56.01922-127.85718 91.43273-210.88635 95.60345C968.97913 654 950.9582 654 932.46863 654c-1.30835-.66596-2.10999-1.85742-2.99329-1.92133-24.50732-1.7738-48.19403-7.5017-71.26953-15.55993-28.21985-9.85486-54.36804-23.83356-78.61847-41.38117-17.33203-12.5415-33.10785-26.86767-47.3902-42.66217-21.4237-23.6919-38.914-50.16696-52.46057-79.1604-11.29846-24.18185-20.1593-49.21722-24.63104-75.5741-2.6203-15.44406-4.6452-31.03506-5.94885-46.64257-1.11621-13.36252-1.7124-26.89112-.98212-40.26123 1.8642-34.12906 8.03418-67.53894 19.88928-99.7133 11.30957-30.69388 26.68903-59.29882 46.72888-85.1202 10.27991-13.2457 21.53913-25.91065 33.5907-37.56056 18.57764-17.9585 39.15595-33.47665 61.5943-46.57717 18.60632-10.86323 37.89429-20.23167 58.35596-26.59195 15.8902-4.93925 32.44733-7.79642 48.78955-11.18598 6.38916-1.32518 13.00098-1.57658 19.6941-2.7025C951.35424 1 965.70842 1 980.53136 1z"/><path fill="#878787" d="M1 423.46866c4.23187-9.5767 7.54801-19.2667 12.88884-27.6699 10.66976-16.78771 26.7228-26.27032 46.20945-29.78622 21.01893-3.79236 40.46783.5882 57.41788 13.38507 14.61928 11.03724 24.14095 25.94852 27.37494 44.18384 3.59505 20.27121.32055 39.46637-11.95488 56.3255-13.3876 18.38663-31.36167 28.76499-54.4968 30.2024-18.8514 1.1712-35.66874-3.59937-50.43768-15.167-12.56117-9.83847-20.93348-22.62072-25.03124-38.1236-.23795-.9002-.83768-1.70483-1.61978-2.68633C1 443.97909 1 433.95822 1 423.46866zm0-214c.66016-1.32274 1.6517-2.08041 1.93235-3.04492 8.64706-29.71764 28.48513-47.76517 58.55885-53.13796 26.16717-4.67488 48.87125 4.09835 66.74139 23.66326 11.527 12.62019 17.2113 28.01715 17.82332 45.29084.63116 17.8134-4.12584 33.8875-15.14453 47.8175-11.66594 14.74828-26.7274 24.06127-45.59084 26.9942-20.19555 3.14007-38.51613-1.13572-55.10678-12.99808-12.7157-9.0918-21.24717-21.2211-26.15774-35.9963-.65755-1.97848-1.57155-3.8717-2.7114-5.9308C1 231.31244 1 220.62488 1 209.46866z"/><path fill="#FFF" d="M3334 232.53134c-4.68018-2.63873-3.20361-7.94578-3.75903-12.08125-2.94898-21.96846-7.94336-43.37532-15.1482-64.32723-7.54394-21.93863-18.64624-41.84283-33.88427-59.28628-9.46192-10.8316-19.16578-21.52786-29.55152-31.4581-13.8313-13.22507-29.4038-24.46894-46.437-33.13253-14.38282-7.3157-29.39747-13.55946-44.55177-19.14026-15.25903-5.61946-31.21924-8.94361-47.53466-10.1191-4.9209-.35455-9.83545-.80132-14.94312-1.59621C3176.59302 1 3255.18628 1 3334 1v231.53134zM3056.53125 1.00001c-2.95654.98834-6.32227 2.45266-9.81665 2.88916-26.2666 3.2812-51.0586 11.3822-73.94678 24.38914-12.37646 7.03327-23.77075 15.93576-35.07226 24.68672-16.0044 12.39238-27.73462 28.62118-38.62964 45.46431-.17725.27408-.4978.45619-.67212.73156-4.35376 6.8819-3.92383 6.588-8.47705-.01396-7.01905-10.1773-14.29883-20.2283-22.16724-29.75554-18.26367-22.11419-41.71533-37.4743-67.51562-49.21723-16.38916-7.4593-33.5984-12.82056-51.57569-15.1566-9.40722-1.22238-18.85058-2.16681-28.46777-3.62718C2832.02075 1 2944.04175 1 3056.53125 1.00001zM3334 247.55583c-.25-2.11108-.49976-4.66632-.375-7.3887.375 2.20343.375 4.57397.375 7.3887z"/><path fill="#878787" d="M230.72359 273.22427c-8.97638-10.83813-14.71816-22.66323-16.85215-36.4054-2.32482-14.97099-.5808-29.31916 5.78168-42.84528 9.23894-19.64118 24.72356-32.63985 45.47219-38.81885 18.35269-5.46552 36.65222-4.0717 53.51556 4.92613 22.8692 12.20238 36.73428 30.98276 39.4867 57.56198 2.4458 23.61847-4.85175 43.69821-21.44846 59.87522-17.0723 16.6405-38.01761 23.10812-61.98166 19.62646-17.60565-2.55786-31.90952-10.67468-43.97386-23.92026zM351.7485 469.54712c-10.04612 18.39352-24.04761 31.64243-44.13666 37.55414-23.4201 6.8919-45.62104 3.78549-65.28072-10.64054-15.92885-11.68844-25.23183-27.83432-28.48575-47.75637-6.16249-37.7298 18.7509-73.84482 54.83562-81.91953 22.2832-4.98636 43.0556-1.14926 61.57166 12.92377 15.13958 11.50674 23.94024 26.9729 27.52114 45.25842 2.73557 13.96878.80262 27.7828-4.7504 40.99023-.44198 1.05124-.74252 2.162-1.2749 3.58988z"/><path fill="#FFF" d="M2083.4663 105.25746c8.3462-.55048 16.2898-1.43744 24.19264-1.16174 28.6416.99924 56.30322 6.32545 81.58154 20.62883 18.84717 10.66452 35.10132 24.27913 48.6438 41.42181 15.43335 19.53603 26.84765 41.05971 34.29223 64.62728 3.88916 12.31202 6.24903 25.10694 9.38697 38.0435h-353.23523c1.64648-16.23029 5.99023-31.59462 11.5985-46.66136 7.95289-21.36602 19.00794-40.86316 33.70191-58.38425 15.95618-19.02594 34.86878-34.07768 57.49243-44.31297 13.3379-6.03427 27.20581-10.48227 41.78174-12.47163 3.3872-.46231 6.76148-1.01914 10.56348-1.72947z"/></svg>