<svg id="Layer_1" data-name="Layer 1" xmlns="http://www.w3.org/2000/svg" viewBox="0 0 853.52 220.28"><defs><style>.cls-1{fill:#323233;}.cls-2{fill:#4a24ff;}</style></defs><path class="cls-1" d="M228.06,109.56c0-38.93,29.11-68,68.24-68,14.07,0,27.18,3.28,38,10.41V72.55h-1.35c-10.6-9.06-22.16-12.33-36.43-12.33-27.95,0-47.42,21.59-47.42,49.34,0,27.95,18.7,49,47.23,49,14.65,0,30.65-5.78,37.59-13.11h1.34v20.82c-11,7.52-24.09,11.37-39.12,11.37-39.52,0-68.05-28.72-68.05-68"/><path class="cls-1" d="M367.63,205.94l15.61-37.39-37.78-90h21l20,51.46c5.2,13.11,5.4,14.08,6.75,17.93h.19c1.35-3.85,2.12-5.2,6.94-17.93l19.28-51.46h21.39l-53,127.41Z"/><path class="cls-1" d="M443.89,126.14c0-28.15,21.2-50.31,50.5-50.31,9.25,0,19.66,1.93,28.72,6.94V102h-1.35c-4.24-3.66-13.68-7.9-26.21-7.9-17.16,0-31.23,11.37-31.23,32,0,22.16,14.84,32.19,31.81,32.19,9.06,0,19.66-2.31,26.79-8.29h1.35v19.28c-9.45,5.39-18.7,7.52-30.07,7.52-29.11,0-50.31-20.44-50.31-50.7"/><path class="cls-1" d="M542.11,140.79V78.53h20.23V137.7c0,13.31,6.37,20.63,19.47,20.63,8.87,0,17.16-5.2,20.05-9.06V78.53H622.1v95.61H603.79v-8.87c-3.47,4.24-14.65,11.57-27,11.57-20,0-34.69-13.11-34.69-36.05"/><rect class="cls-1" x="645.33" y="78.53" width="20.24" height="95.61"/><polygon class="cls-1" points="703.93 174.14 703.93 94.91 683.12 94.91 683.12 78.53 703.93 78.53 703.93 53.47 724.17 53.47 724.17 78.53 748.27 78.53 748.27 94.91 724.17 94.91 724.17 156.4 747.3 156.4 747.3 174.14 703.93 174.14"/><path class="cls-1" d="M853.52,78.53l-53,127.41H780.08l15.61-37.39-37.78-90h21L799,130c5.2,13.11,5.4,14.08,6.75,17.93h.19c1.35-3.85,2.12-5.2,6.94-17.93l19.28-51.46Z"/><rect class="cls-1" x="645.15" y="45.98" width="20.67" height="20.57"/><polygon class="cls-2" points="68.71 94.77 68.71 125.37 95.2 140.66 121.7 125.37 121.7 94.77 95.2 79.48 68.71 94.77"/><polygon class="cls-2" points="87.2 43.75 87.2 52.87 95.1 57.44 103 52.87 103 43.75 95.1 39.19 87.2 43.75"/><polygon class="cls-2" points="33.83 74.66 33.83 83.4 41.4 87.78 48.97 83.4 48.97 74.66 41.4 70.29 33.83 74.66"/><polygon class="cls-2" points="60.4 59.31 60.4 68.43 68.3 72.99 76.2 68.43 76.2 59.31 68.3 54.75 60.4 59.31"/><polygon class="cls-2" points="114.27 59.31 114.27 68.43 122.17 72.99 130.07 68.43 130.07 59.31 122.17 54.75 114.27 59.31"/><polygon class="cls-2" points="60.4 151.77 60.4 160.9 68.3 165.46 76.2 160.9 76.2 151.77 68.3 147.21 60.4 151.77"/><polygon class="cls-2" points="114.27 151.77 114.27 160.9 122.17 165.46 130.07 160.9 130.07 151.77 122.17 147.21 114.27 151.77"/><polygon class="cls-2" points="156.64 74.7 156.64 83.83 148.74 88.39 140.84 83.83 140.84 74.7 148.74 70.14 156.64 74.7"/><polygon class="cls-2" points="103.14 176.44 103.14 167.31 95.24 162.75 87.34 167.31 87.34 176.44 95.24 181 103.14 176.44"/><polygon class="cls-2" points="156.52 145.49 156.52 136.36 148.61 131.8 140.71 136.36 140.71 145.49 148.61 150.05 156.52 145.49"/><polygon class="cls-2" points="33.83 145.61 33.83 136.49 41.73 131.92 49.63 136.49 49.63 145.61 41.73 150.17 33.83 145.61"/><polygon class="cls-2" points="33.83 114.23 33.83 105.49 41.4 101.12 48.97 105.49 48.97 114.23 41.4 118.61 33.83 114.23"/><polygon class="cls-2" points="141.5 114.23 141.5 105.49 149.07 101.12 156.64 105.49 156.64 114.23 149.07 118.61 141.5 114.23"/><polygon class="cls-2" points="95.27 0 87.37 4.56 87.37 13.69 95.27 18.25 103.18 13.69 103.18 4.56 95.27 0"/><polygon class="cls-2" points="116.23 21.32 116.23 30.45 124.14 35.01 132.04 30.45 132.04 21.32 124.14 16.76 116.23 21.32"/><polygon class="cls-2" points="145.44 38.14 145.44 47.26 153.34 51.83 161.24 47.26 161.24 38.14 153.34 33.58 145.44 38.14"/><polygon class="cls-2" points="174.75 55.12 174.75 64.24 182.65 68.8 190.55 64.24 190.55 55.12 182.65 50.55 174.75 55.12"/><polygon class="cls-2" points="58.19 21.35 58.19 30.47 66.09 35.04 73.99 30.47 73.99 21.35 66.09 16.79 58.19 21.35"/><polygon class="cls-2" points="29 38.14 29 47.26 36.9 51.83 44.8 47.26 44.8 38.14 36.9 33.58 29 38.14"/><polygon class="cls-2" points="0 55.12 0 64.24 7.9 68.8 15.8 64.24 15.8 55.12 7.9 50.55 0 55.12"/><polygon class="cls-2" points="87.37 206.59 87.37 215.71 95.28 220.28 103.18 215.71 103.18 206.59 95.28 202.02 87.37 206.59"/><polygon class="cls-2" points="73.99 199.12 73.99 189.99 66.09 185.43 58.19 189.99 58.19 199.12 66.09 203.68 73.99 199.12"/><polygon class="cls-2" points="44.99 182.14 44.99 173.01 37.09 168.45 29.19 173.01 29.19 182.14 37.09 186.7 44.99 182.14"/><polygon class="cls-2" points="0 156.03 0 165.16 7.9 169.72 15.8 165.16 15.8 156.03 7.9 151.47 0 156.03"/><polygon class="cls-2" points="132.37 198.93 132.37 189.8 124.46 185.24 116.56 189.8 116.56 198.93 124.46 203.49 132.37 198.93"/><polygon class="cls-2" points="161.55 182.14 161.55 173.01 153.65 168.45 145.75 173.01 145.75 182.14 153.65 186.7 161.55 182.14"/><polygon class="cls-2" points="190.55 165.16 190.55 156.03 182.65 151.47 174.75 156.03 174.75 165.16 182.65 169.72 190.55 165.16"/><polygon class="cls-2" points="0 122.46 0 131.58 7.9 136.15 15.8 131.58 15.8 122.46 7.9 117.9 0 122.46"/><polygon class="cls-2" points="190.55 131.58 190.55 122.46 182.65 117.89 174.75 122.46 174.75 131.58 182.65 136.15 190.55 131.58"/><polygon class="cls-2" points="0 88.88 0 98.01 7.9 102.57 15.8 98.01 15.8 88.88 7.9 84.32 0 88.88"/><polygon class="cls-2" points="190.55 98.01 190.55 88.88 182.65 84.32 174.75 88.88 174.75 98.01 182.65 102.57 190.55 98.01"/></svg>