<svg xmlns="http://www.w3.org/2000/svg" role="img" viewBox="-4.94 -4.44 854.88 244.88"><defs><clipPath id="a" clipPathUnits="userSpaceOnUse"><path d="M0 177.094h634.457V0H0z"/></clipPath></defs><g clip-path="url(#a)" transform="matrix(1.33333 0 0 -1.33333 0 236.125)"><path fill="#323233" fill-opacity="1" fill-rule="nonzero" stroke="none" d="M173.72 89.295c0 28.122 21.021 49.144 49.283 49.144 10.162 0 19.63-2.367 27.426-7.518v-14.896h-.974c-7.657 6.543-16.01 8.91-26.313 8.91-20.186 0-34.248-15.593-34.248-35.64 0-20.186 13.504-35.361 34.109-35.361 10.581 0 22.136 4.175 27.148 9.467h.974V48.365c-7.936-5.43-17.402-8.214-28.261-8.214-28.541 0-49.144 20.744-49.144 49.144"/><path fill="#323233" fill-opacity="1" fill-rule="nonzero" stroke="none" d="M274.522 19.686l11.277 27.008-27.287 65.016h15.175l14.479-37.172c3.758-9.466 3.897-10.163 4.872-12.948h.14c.974 2.785 1.532 3.76 5.012 12.948l13.922 37.172h15.454L289.28 19.686z"/><path fill="#323233" fill-opacity="1" fill-rule="nonzero" stroke="none" d="M329.6 77.323c0 20.327 15.315 36.336 36.475 36.336 6.683 0 14.201-1.392 20.744-5.013V94.725h-.974c-3.062 2.645-9.885 5.707-18.934 5.707-12.391 0-22.553-8.213-22.553-23.109 0-16.01 10.72-23.251 22.971-23.251 6.544 0 14.2 1.672 19.351 5.988h.974V46.137c-6.821-3.898-13.503-5.43-21.718-5.43-21.021 0-36.336 14.758-36.336 36.616"/><path fill="#323233" fill-opacity="1" fill-rule="nonzero" stroke="none" d="M400.538 66.742v44.969h14.617V68.97c0-9.607 4.595-14.896 14.061-14.896 6.405 0 12.391 3.758 14.48 6.543v51.094h14.617V42.657h-13.224v6.405c-2.508-3.064-10.582-8.355-19.492-8.355-14.48 0-25.059 9.468-25.059 26.035"/><path fill="#323233" fill-opacity="1" fill-rule="nonzero" stroke="none" d="M489.711 42.657h-14.619v69.054h14.619z"/><path fill="#323233" fill-opacity="1" fill-rule="nonzero" stroke="none" d="M517.419 42.657v57.219h-15.035v11.835h15.035v18.097h14.619v-18.097h17.402V99.876h-17.402V55.464h16.704V42.657z"/><path fill="#323233" fill-opacity="1" fill-rule="nonzero" stroke="none" d="M572.415 19.686l11.277 27.008-27.287 65.016h15.175l14.479-37.172c3.758-9.466 3.897-10.163 4.873-12.948h.139c.974 2.785 1.532 3.76 5.012 12.948l13.922 37.172h15.453l-38.285-92.024z"/><path fill="#323233" fill-opacity="1" fill-rule="nonzero" stroke="none" d="M489.889 120.355h-14.928v14.86h14.928z"/><path fill="#5400ff" fill-opacity="1" fill-rule="nonzero" stroke="none" d="M58.625 99.644V77.547l19.136-11.049 19.136 11.049v22.097l-19.136 11.047z"/><path fill="#5400ff" fill-opacity="1" fill-rule="nonzero" stroke="none" d="M71.98 136.496v-6.59l5.707-3.296 5.708 3.296v6.59l-5.708 3.295z"/><path fill="#5400ff" fill-opacity="1" fill-rule="nonzero" stroke="none" d="M33.431 114.17v-6.314l5.468-3.157 5.469 3.157v6.314l-5.469 3.156z"/><path fill="#5400ff" fill-opacity="1" fill-rule="nonzero" stroke="none" d="M52.623 125.259v-6.59l5.708-3.295 5.707 3.295v6.59l-5.707 3.295z"/><path fill="#5400ff" fill-opacity="1" fill-rule="nonzero" stroke="none" d="M91.53 125.259v-6.59l5.708-3.295 5.707 3.295v6.59l-5.707 3.295z"/><path fill="#5400ff" fill-opacity="1" fill-rule="nonzero" stroke="none" d="M52.623 58.477v-6.59l5.708-3.296 5.707 3.296v6.59l-5.707 3.295z"/><path fill="#5400ff" fill-opacity="1" fill-rule="nonzero" stroke="none" d="M91.53 58.477v-6.59l5.708-3.296 5.707 3.296v6.59l-5.707 3.295z"/><path fill="#5400ff" fill-opacity="1" fill-rule="nonzero" stroke="none" d="M122.133 114.14v-6.59l-5.708-3.296-5.707 3.296v6.59l5.707 3.295z"/><path fill="#5400ff" fill-opacity="1" fill-rule="nonzero" stroke="none" d="M83.495 40.663v6.59l-5.708 3.295-5.707-3.295v-6.59l5.707-3.295z"/><path fill="#5400ff" fill-opacity="1" fill-rule="nonzero" stroke="none" d="M122.044 63.016v6.59l-5.708 3.296-5.707-3.296v-6.59l5.707-3.295z"/><path fill="#5400ff" fill-opacity="1" fill-rule="nonzero" stroke="none" d="M33.431 62.928v6.59l5.707 3.295 5.708-3.295v-6.59l-5.708-3.295z"/><path fill="#5400ff" fill-opacity="1" fill-rule="nonzero" stroke="none" d="M33.431 85.588v6.314l5.468 3.157 5.469-3.157v-6.314l-5.469-3.158z"/><path fill="#5400ff" fill-opacity="1" fill-rule="nonzero" stroke="none" d="M111.197 85.588v6.314l5.468 3.157 5.469-3.157v-6.314l-5.469-3.158z"/><path fill="#5400ff" fill-opacity="1" fill-rule="nonzero" stroke="none" d="M77.812 168.095l-5.708-3.297v-6.589l5.708-3.295 5.708 3.295v6.589z"/><path fill="#5400ff" fill-opacity="1" fill-rule="nonzero" stroke="none" d="M92.95 152.694v-6.591l5.708-3.295 5.707 3.295v6.591l-5.707 3.295z"/><path fill="#5400ff" fill-opacity="1" fill-rule="nonzero" stroke="none" d="M114.041 140.55v-6.591l5.708-3.295 5.707 3.295v6.591l-5.707 3.295z"/><path fill="#5400ff" fill-opacity="1" fill-rule="nonzero" stroke="none" d="M135.21 128.287v-6.591l5.708-3.295 5.707 3.295v6.591l-5.707 3.295z"/><path fill="#5400ff" fill-opacity="1" fill-rule="nonzero" stroke="none" d="M51.024 152.674v-6.59l5.708-3.296 5.707 3.296v6.59l-5.707 3.295z"/><path fill="#5400ff" fill-opacity="1" fill-rule="nonzero" stroke="none" d="M29.943 140.55v-6.591l5.708-3.295 5.707 3.295v6.591l-5.707 3.295z"/><path fill="#5400ff" fill-opacity="1" fill-rule="nonzero" stroke="none" d="M9 128.286v-6.59l5.708-3.295 5.707 3.295v6.59l-5.707 3.297z"/><path fill="#5400ff" fill-opacity="1" fill-rule="nonzero" stroke="none" d="M72.104 18.886v-6.59L77.814 9l5.706 3.296v6.59l-5.706 3.297z"/><path fill="#5400ff" fill-opacity="1" fill-rule="nonzero" stroke="none" d="M62.44 24.283v6.591l-5.708 3.295-5.707-3.295v-6.591l5.707-3.295z"/><path fill="#5400ff" fill-opacity="1" fill-rule="nonzero" stroke="none" d="M41.497 36.545v6.59l-5.708 3.296-5.707-3.296v-6.59l5.707-3.295z"/><path fill="#5400ff" fill-opacity="1" fill-rule="nonzero" stroke="none" d="M9 55.399v-6.59l5.708-3.296 5.707 3.296v6.59l-5.707 3.297z"/><path fill="#5400ff" fill-opacity="1" fill-rule="nonzero" stroke="none" d="M104.602 24.42v6.591l-5.708 3.295-5.707-3.295V24.42l5.707-3.295z"/><path fill="#5400ff" fill-opacity="1" fill-rule="nonzero" stroke="none" d="M125.683 36.545v6.59l-5.708 3.296-5.708-3.296v-6.59l5.708-3.295z"/><path fill="#5400ff" fill-opacity="1" fill-rule="nonzero" stroke="none" d="M146.626 48.808v6.591l-5.708 3.295-5.707-3.295v-6.591l5.707-3.295z"/><path fill="#5400ff" fill-opacity="1" fill-rule="nonzero" stroke="none" d="M9 79.649v-6.59l5.708-3.296 5.707 3.296v6.59l-5.707 3.295z"/><path fill="#5400ff" fill-opacity="1" fill-rule="nonzero" stroke="none" d="M146.626 73.058v6.59l-5.708 3.296-5.707-3.296v-6.59l5.707-3.295z"/><path fill="#5400ff" fill-opacity="1" fill-rule="nonzero" stroke="none" d="M9 103.9v-6.59l5.708-3.296 5.707 3.296v6.59l-5.707 3.297z"/><path fill="#5400ff" fill-opacity="1" fill-rule="nonzero" stroke="none" d="M146.626 97.308v6.59l-5.708 3.296-5.707-3.296v-6.59l5.707-3.295z"/></g></svg>