<svg xmlns="http://www.w3.org/2000/svg" role="img" viewBox="-5.81 -5.81 302.12 153.12"><path fill="#0065BD" d="M148.816.001h141.73V141.73h-141.73zM0 0h141.73v141.73H0z"/><path fill="#FFF" d="M23.126 62.355c1.079.589 2.354.982 3.825 1.276l1.276 5.886-5.886 25.31-2.648 1.864-7.358 31.587-5.983 4.61 16.774-70.533zm4.905.099c-5.494-.099-9.908-4.415-9.908-9.81 0-5.787 4.512-9.908 10.203-9.908 2.648 0 5.002 1.177 6.572 3.139-2.256-.294-4.415 1.276-5.101 3.042-.588-.196-1.079-.196-1.471-.196-2.257 0-4.022 1.766-4.022 3.924s1.766 4.022 4.022 4.022c2.256 0 3.629-1.767 3.629-4.022v-.392c.098-.099.295-.099.589-.099.392 0 .785.197.785.883 0 .785-.294 2.256-.294 3.728 0 1.374.294 2.354.687 3.335l3.335 13.93c-.49.393-.981.882-1.373 1.472-1.864.393-3.433 1.569-4.12 3.237l-3.533-16.285zm20.503 9.221c-2.844 0-4.611.196-6.573.196-3.04 0-5.297-1.276-5.984-3.728 1.177 0 2.06-.981 2.06-2.158 0-2.354-3.629-4.708-3.629-9.221 0-1.472.197-2.844.197-3.924 0-1.177-.982-1.962-2.061-1.962-.883 0-1.668.393-2.061.785-.195-2.747 2.061-4.806 4.906-4.611.392-.882 1.863-1.962 3.532-1.962 1.177 0 1.765.294 2.354.687.49-.196 1.078-.295 1.863-.295 2.256 0 4.708 1.864 4.708 4.709 0 2.649-1.569 3.924-3.139 5.003-.785.588-.98 1.177-.882 2.06.098 1.08.687 2.944.982 3.924.293.883.98 1.276 2.06 1.177 5.396-.393 13.144-.98 17.853-1.177 4.416-.195 7.556-.294 11.185-.49-6.868 1.667-10.792 6.278-11.87 12.851l-3.139 1.667c-.688-2.648-4.22-3.531-12.362-3.531zM44.12 98.26c1.177-.295 1.765-1.177 1.765-1.962 0-1.177-.686-1.962-1.57-2.552-1.47-.882-3.04-1.667-4.414-2.844-1.472-1.275-2.354-2.354-3.237-3.532-.688-.784-1.275-1.079-2.158-1.079-1.079 0-1.864.785-1.864 1.668 0 .491.098.884.294 1.178-1.471-.491-2.354-2.061-2.354-3.729 0-1.569.981-2.746 1.962-3.335-.099-.294-.196-.687-.196-1.177 0-2.061 1.667-4.022 4.316-4.218.49-1.375 1.962-2.453 3.924-2.453 2.354 0 4.806 1.766 4.806 4.904 0 1.57-.392 1.962-.392 3.14 0 .688.197 1.274 1.177 2.257 1.177 1.177 1.767 1.863 2.452 1.863.687 0 1.08-.294 1.864-.884 4.414-3.727 8.24-7.65 13.539-10.496.098 4.61 1.863 8.339 5.689 11.184l-3.334 2.551c-.59-.589-1.178-.785-1.962-.785-1.277 0-2.552.491-4.514 1.766-2.256 1.473-5.983 5.298-8.632 7.848-1.472 1.473-3.042 2.257-4.512 2.257-1.177-.001-2.159-.491-2.649-1.57zm-8.339-18.05c-1.275 0-2.159.687-2.354 1.471.392-.099.882-.196 1.471-.196 1.471 0 2.747.688 3.336 1.864.295-1.865-.785-3.139-2.453-3.139zm9.221 48.067L37.645 96.69l-2.648-1.864-1.275-6.082c-.196-.785.196-1.178.785-1.178.392 0 .686.196 1.079.589 1.276 1.472 2.06 2.354 3.434 3.531.785.688 1.765 1.275 2.747 1.766l6.081 26.39c-.98.882-1.667 2.256-1.667 3.727 0 1.079.294 2.061.785 2.943-.195.49-.295.98-.295 1.57 0 .588.1 1.177.393 1.765l-2.062-1.57zm-4.806-78.479c0-1.667-1.374-2.747-2.649-2.747-.588 0-.98.197-1.275.294 1.667.688 2.845 2.158 2.747 4.905.882-.587 1.177-1.568 1.177-2.452zm1.57 28.94c0-1.275-1.08-2.452-2.452-2.452-.785 0-1.277.294-1.57.49 1.863.392 3.334 1.962 3.432 3.924.295-.49.59-.981.59-1.962zm3.139-29.527c0-1.472-1.275-2.552-2.747-2.552.588.491 1.177 1.668 1.177 2.944 0 .588-.098 1.373-.49 2.256 1.177-.393 2.06-1.276 2.06-2.648zm3.139 78.871c0-.688.098-1.08.392-1.767-.49-.588-.882-1.57-.882-2.747s.588-2.452 1.862-3.236c-.392-2.943 1.962-4.905 4.611-4.905 2.944 0 4.414 2.061 4.906 4.12.393 1.472.98 1.962 1.667 2.06 1.274.197 3.334 0 4.119-.195.885-.197 1.277-.688 1.277-2.159.098-10.3-1.178-16.873-1.178-20.6 0-4.022 2.255-5.788 4.61-6.573 3.14-1.079 9.319-1.962 12.361-1.864 1.372 0 2.06.884 2.649 1.767 1.077 1.667 1.962 3.434 3.039 5.688-.784.393-1.177 1.08-1.177 2.061 0 1.374.785 2.551 1.864 3.14l-11.478.294c-.098.687-.098 1.374-.098 1.962 0 1.275.883 2.159 2.06 2.159.883 0 1.668-.295 2.354-.884.393 4.022-2.06 5.298-4.61 5.396.098 3.63.294 6.278.294 12.851 0 4.709-2.354 7.554-5.69 7.554.197-.195.294-.49.294-.785 0-1.863-2.06-2.746-3.531-2.746-2.943 0-4.512 2.354-7.751 2.354-2.844 0-4.021-2.354-6.179-2.354-1.375 0-2.354.883-2.354 2.061 0 .588.195 1.078.588 1.569-1.862-.003-4.019-1.769-4.019-4.221zm3.826-5.299c-1.864 0-2.846 1.473-2.649 2.649.393-.49 1.177-1.177 2.747-1.177 1.275 0 2.257.588 2.844 1.274 0-1.371-.98-2.746-2.942-2.746zm.882-4.512c-1.569 0-2.354.883-2.452 1.668.393-.196.98-.393 1.863-.393 1.569 0 2.846.883 3.238 1.766.196-1.569-.784-3.041-2.649-3.041zm12.753-43.163c0-6.475 4.906-12.262 12.459-14.028 2.845-.687 5.298-1.08 8.633-1.962 6.278-1.667 8.24-4.414 8.24-8.044 0-.981-.195-1.766-.688-2.551.1.589.1 1.08.1 1.667 0 3.924-3.631 7.456-8.928 7.946-2.844.196-5.886.588-8.829.883-.686.098-.98-.197-.98-.785l-.098-4.709c0-.197.098-.392.393-.392.195 0 .293.098.393.294.587.883 1.765 1.766 3.432 1.766 1.374 0 2.159-.785 2.159-1.667 0-.981-.883-1.864-2.649-1.864-3.826 0-5.788 2.649-10.005 2.649-4.611 0-6.181-2.257-6.181-4.415 0-1.766.98-2.845 2.257-3.433-.393.49-.492.882-.492 1.57 0 1.471 1.767 2.648 4.906 2.648 2.942 0 4.807-.686 7.062-.686 2.942 0 4.709.98 5.494 2.06-.098-2.257-1.767-4.219-3.924-4.219-1.473 0-2.06.883-2.257 1.276-.098.294-.295.392-.49.392-.197 0-.393-.098-.393-.293l-.49-4.906c-.099-.587.195-.882.98-.98l5.004-.392c.882 2.452 1.472 3.825 2.746 3.825.688 0 .98-.785.98-1.471 1.079-.294 2.159-.294 3.238-.197-1.276-.883-5.493-.393-6.77-2.157 2.061-.099 3.631-.197 5.298-.197s3.139 0 4.512.197c1.569.195 3.139 1.079 3.139 2.747 0 1.079-.588 1.863-1.667 1.863-.393 0-.688-.099-1.079-.392.099.785.884 1.275 1.669 1.275 1.274 0 2.157-.785 2.157-2.453 0-.883-.195-1.864-.883-2.648 2.06 1.667 3.335 4.61 3.335 8.043 0 5.984-2.157 9.124-8.828 11.478-3.435 1.177-6.181 1.962-9.615 3.237-5.591 2.06-8.925 5.886-8.925 11.281 0 3.728 1.863 7.946 5.787 9.908-5.983-.784-10.202-6.18-10.202-12.164zm5.886 2.55c0-5.296 2.944-8.436 8.633-10.594 3.139-1.177 6.181-2.06 9.025-2.942 6.965-2.453 9.417-6.083 9.417-12.557 0-2.747-.785-5.396-2.06-6.965 2.159 1.864 3.924 4.709 3.924 9.614 0 5.101-1.472 10.301-8.535 12.949-3.334 1.276-5.198 1.962-8.73 3.433-5.493 2.354-7.258 5.494-7.258 9.712 0 4.021 2.157 6.278 3.824 7.651-4.022-.687-8.24-4.807-8.24-10.301zm5.885 2.747c0-3.924 1.864-6.572 6.671-8.828 3.042-1.374 5.298-1.864 8.83-3.336 6.965-2.747 8.73-7.945 8.73-13.929 0-2.061-.295-4.514-1.373-6.573 1.471 1.766 3.237 4.513 3.237 9.908 0 5.592-1.864 10.792-8.045 13.832-2.942 1.373-4.904 2.158-8.24 3.728-3.825 1.962-5.984 4.709-5.984 7.946 0 2.551 1.178 4.513 2.257 5.592-3.728-1.08-6.083-4.611-6.083-8.34zm8.928-38.748c-1.962 0-3.924.099-5.983.294l-2.649-5.199h4.514c0 1.177.882 2.06 1.962 2.06 1.077 0 1.962-.882 1.962-2.06h4.021c0 1.275.785 2.06 1.962 2.06 1.079 0 1.962-1.079 1.962-2.06h4.512l-3.04 5.396c-2.454-.295-5.594-.491-9.223-.491zM82.575 83.25c0-2.746 1.864-5.002 5.198-6.769 2.354-1.178 4.316-1.962 8.24-3.924 6.181-3.041 8.535-8.043 8.535-14.813 0-1.766-.295-3.237-.59-5.002 1.08 2.157 1.962 4.709 1.962 7.946 0 6.474-2.255 12.752-8.729 16.088-2.747 1.373-4.316 2.256-6.376 3.236-3.14 1.374-4.611 3.531-4.611 6.083 0 1.962.49 3.041.981 3.924-2.845-.785-4.61-3.335-4.61-6.769zm5.003 16.677c0-.98.293-1.569 1.471-1.766-1.373-3.04-2.452-5.002-3.237-6.278-.295-.49 0-.784.393-.784.59 0 1.079.196 1.472.784.688.884 1.569 2.256 2.257 3.532 1.274 2.255 2.06 4.414 2.157 7.554h-.98c-2.062 0-3.533-1.472-3.533-3.042zm6.964 28.155c0-.688.1-1.08.393-1.767-.49-.588-.883-1.57-.883-2.747s.59-2.452 1.864-3.236c-.393-2.943 1.962-4.905 4.611-4.905 2.942 0 4.414 2.061 4.904 4.12.392 1.472.981 1.962 1.667 2.06 1.276.197 3.336 0 4.121-.195.882-.197 1.274-.688 1.274-2.159 0-2.452-.687-5.688-1.274-8.436-1.472.195-5.102.393-7.848.393-6.083 0-9.516-2.747-10.105-8.731-.195-2.453-.687-4.808-2.157-7.455-1.079-2.061-3.531-4.808-3.531-8.339 0-2.648.98-4.218 4.021-5.689 2.157-.981 4.709-2.158 6.866-3.434-.098 3.434 1.962 8.044 4.611 10.006 2.943 2.158 5.69 2.747 9.712 2.747 4.611 0 9.025-1.373 11.38-4.12-1.375.883-3.237 1.373-5.592 1.373-7.26 0-11.871-5.592-11.871-11.575 0-4.316 2.354-8.143 6.278-11.379 3.238-2.649 6.181-4.316 8.438-6.573 1.472-1.471 2.747-3.237 2.747-5.296 0-2.453-1.668-4.807-3.435-5.494.982-1.177 2.944-2.256 4.709-2.256 2.943 0 5.69 2.158 5.69 5.003 0 2.157-1.276 3.825-2.943 4.61.098 1.668-.98 3.826-2.257 5.2-2.452 2.648-6.964 5.494-9.907 7.848-2.942 2.354-4.512 4.807-4.512 8.142 0 4.415 3.531 7.651 8.043 7.651 4.219 0 7.848-3.236 7.848-7.75 0-4.119-2.942-7.161-7.455-9.22l3.729-2.649c4.021 2.354 8.436 5.591 8.436 12.557 0 9.613-7.75 18.05-20.307 18.05-3.925 0-5.002-.49-7.456-1.472 1.569 1.472 3.238 3.63 3.336 6.278 1.963.589 3.335.883 7.554.883 1.864 0 4.414-.294 6.476-.883 1.47-.393 2.354-.98 2.844-1.668.49.785.785 1.668.785 2.452 0 2.257-1.667 4.022-3.434 4.415.687 6.965 1.274 13.93 1.274 20.208 0 4.709-2.354 7.554-5.688 7.554.195-.195.295-.49.295-.785 0-1.863-2.062-2.746-3.532-2.746-2.943 0-4.513 2.354-7.75 2.354-2.845 0-4.021-2.354-6.181-2.354-1.372 0-2.354.883-2.354 2.061 0 .588.197 1.078.59 1.569-1.865-.003-4.024-1.769-4.024-4.221zm3.826-5.299c-1.864 0-2.845 1.473-2.649 2.649.393-.49 1.178-1.177 2.747-1.177 1.276 0 2.257.588 2.847 1.274-.001-1.371-.983-2.746-2.945-2.746zm.883-4.512c-1.57 0-2.354.883-2.452 1.668.393-.196.981-.393 1.864-.393 1.569 0 2.845.883 3.236 1.766.198-1.569-.784-3.041-2.648-3.041zm12.264-63.861c-1.473-.785-2.747-2.452-2.747-4.414 0-2.845 2.452-5.003 5.394-5.003 2.257 0 3.827 1.08 4.809 2.256-1.864.98-3.336 3.334-3.336 5.494 0 2.845 1.472 4.61 2.844 6.081l-3.629 2.649c-2.061-1.865-3.335-4.317-3.335-7.063z"/><path d="M159.633 96.185c0-2.763 2.179-4.444 4.737-4.444 1.02 0 1.656.179 2.166.407V94.3c-.484-.242-1.031-.42-1.821-.42-1.159 0-2.356.738-2.356 2.305 0 1.565 1.312 2.254 2.216 2.254.904 0 1.478-.229 1.975-.496v2.177c-.522.268-1.389.535-2.42.535-2.547-.001-4.497-1.707-4.497-4.47zm8.146 2.419l3.616-4.724h-3.54v-2.025h6.66v1.821l-3.681 4.813h3.744v2.024h-6.8v-1.909zm8.694-6.75h5.971v1.975h-3.475v1.388h3.361v1.923h-3.361v1.4h3.475v1.974h-5.971v-8.66z" fill="#FFF"/><path fill="#FFF" d="M184.234 96.185c0-2.763 2.178-4.444 4.737-4.444 1.02 0 1.655.179 2.165.407V94.3c-.483-.242-1.032-.42-1.82-.42-1.159 0-2.356.738-2.356 2.305 0 1.565 1.311 2.254 2.216 2.254.904 0 1.478-.229 1.973-.496v2.177c-.521.268-1.387.535-2.418.535-2.548-.001-4.497-1.707-4.497-4.47z"/><path d="M195.525 91.854v3.312h2.561v-3.312h2.494v8.659h-2.494v-3.387h-2.561v3.387h-2.496v-8.659h2.496zm11.671 2.026h-2.166v-2.025h6.812v2.025h-2.152v6.634h-2.494V93.88zm6.261-2.026h5.971v1.975h-3.475v1.388h3.361v1.923h-3.361v1.4h3.475v1.974h-5.971v-8.66z" fill="#FFF"/><path fill="#FFF" d="M221.219 96.185c0-2.763 2.179-4.444 4.737-4.444 1.02 0 1.657.179 2.165.407V94.3c-.483-.242-1.032-.42-1.82-.42-1.159 0-2.356.738-2.356 2.305 0 1.565 1.312 2.254 2.216 2.254.904 0 1.478-.229 1.975-.496v2.177c-.521.268-1.389.535-2.42.535-2.547-.001-4.497-1.707-4.497-4.47z"/><path d="M232.51 91.854v3.312h2.561v-3.312h2.494v8.659h-2.494v-3.387h-2.561v3.387h-2.496v-8.659h2.496zm7.597 0h3.068l2.598 5.171h.039v-5.171h2.494v8.659h-3.043l-2.623-5.195h-.039v5.195h-2.494v-8.659zm10.741 0h2.496v8.659h-2.496v-8.659z" fill="#FFF"/><path fill="#FFF" d="M255.379 96.185c0-2.763 2.179-4.444 4.737-4.444 1.019 0 1.656.179 2.164.407V94.3c-.483-.242-1.031-.42-1.82-.42-1.159 0-2.355.738-2.355 2.305 0 1.565 1.312 2.254 2.216 2.254.903 0 1.477-.229 1.975-.496v2.177c-.522.268-1.389.535-2.421.535-2.547-.001-4.496-1.707-4.496-4.47z"/><path d="M269.166 98.719h-2.763l-.473 1.795h-2.559l2.585-8.659h3.654l2.598 8.659h-2.561l-.481-1.795zm-.471-1.771l-.854-3.196h-.113l-.854 3.196h1.821zm4.833-5.094h2.496v6.609h3.093v2.05h-5.589v-8.659z" fill="#FFF"/><path d="M160.08 112.769v-5.463h2.495v5.234c0 .979.534 1.413 1.235 1.413.7 0 1.236-.434 1.236-1.413v-5.234h2.494v5.463c0 2.419-1.693 3.399-3.73 3.399-2.038 0-3.73-.98-3.73-3.399zm9.928-5.463h3.067l2.598 5.17h.039v-5.17h2.495v8.659h-3.043l-2.623-5.195h-.039v5.195h-2.494v-8.659zm10.74 0h2.496v8.659h-2.496v-8.659zm3.829 0h2.802l1.478 6.481h.052l1.478-6.481h2.802l-2.598 8.659h-3.413l-2.601-8.659zm10.195 0h5.973v1.974h-3.476v1.388h3.36v1.923h-3.36v1.401h3.476v1.974h-5.973v-8.66zm8.248 0h3.973c2.025 0 3.26 1.299 3.26 2.853 0 1.477-1.081 2.127-1.845 2.47l-.015.051c.115.076.319.331.485.612l1.591 2.674h-2.814l-1.502-3.044h-.636v3.044h-2.497v-8.66zm3.501 3.998c.675 0 1.07-.534 1.07-1.082s-.396-1.069-1.07-1.069h-1.005v2.151h1.005zm5.433 4.203v-2.268c.56.395 1.719.893 2.864.893.842 0 1.3-.243 1.3-.676 0-.344-.317-.496-.79-.611-.56-.14-.904-.217-1.554-.383-1.17-.292-1.923-1.132-1.923-2.47 0-1.758 1.593-2.891 3.744-2.891 1.02 0 1.936.204 2.497.446v2.151c-.434-.242-1.312-.573-2.369-.573-.968 0-1.4.242-1.4.624 0 .331.254.497.84.624.433.089.751.141 1.324.281 1.413.343 2.14 1.171 2.14 2.584 0 1.439-1.312 2.929-3.681 2.929-1.298.001-2.292-.267-2.992-.66zm8.667-8.201h2.496v8.659h-2.496v-8.659z" fill="#FFF"/><path fill="#FFF" d="M226.947 109.33h-2.164v-2.024h6.812v2.024h-2.152v6.635h-2.496v-6.635z"/><path fill="#FFF" d="M234.94 112.794l-2.928-5.488h2.827l1.361 3.095h.052l1.413-3.095h2.763l-2.992 5.488v3.171h-2.496v-3.171z"/><path d="M160.143 122.756h2.496v8.659h-2.496v-8.659zm5.041 0h3.068l2.597 5.171h.039v-5.171h2.497v8.659h-3.045l-2.623-5.195h-.037v5.195h-2.496v-8.659z" fill="#FFF"/><path d="M179.119 122.756h3.77c2.024 0 3.285 1.389 3.285 2.98s-1.261 2.877-3.285 2.877h-1.272v2.802h-2.497v-8.659zm3.477 3.999c.547 0 1.044-.446 1.044-1.07 0-.61-.497-1.069-1.044-1.069h-.979v2.14h.979zm5.407-3.999h3.974c2.023 0 3.26 1.299 3.26 2.853 0 1.478-1.083 2.127-1.847 2.471l-.013.051c.113.076.318.331.483.611l1.593 2.674h-2.814l-1.504-3.043h-.636v3.043h-2.496v-8.66zm3.501 3.999c.675 0 1.07-.535 1.07-1.082 0-.548-.396-1.07-1.07-1.07h-1.005v2.152h1.005zm10.247 2.865h-2.764l-.472 1.795h-2.559l2.585-8.659h3.654l2.598 8.659h-2.561l-.481-1.795zm-.471-1.77l-.854-3.196h-.113l-.854 3.196h1.821zm4.451-.764c0-2.827 1.975-4.647 4.914-4.647 1.147 0 1.987.317 2.497.547v2.037c-.471-.254-1.236-.561-2.127-.561-1.618 0-2.559.867-2.559 2.624 0 1.63 1.068 2.368 2.036 2.368.191 0 .382-.025.562-.063v-2.343h2.432v3.833c-.521.268-1.592.737-3.134.737-2.417 0-4.621-1.706-4.621-4.532z" fill="#FFF"/><path fill="#FFF" d="M215.606 128.22v-5.464h2.497v5.234c0 .98.534 1.413 1.235 1.413.699 0 1.234-.433 1.234-1.413v-5.234h2.496v5.464c0 2.419-1.694 3.398-3.73 3.398-2.037 0-3.732-.979-3.732-3.398z"/><path fill="#FFF" d="M225.548 122.756h5.972v1.975h-3.477v1.388h3.362v1.923h-3.362v1.4h3.477v1.974h-5.972v-8.66z"/><path fill="#FFF" d="M195.018 20.477v22.36h9.254v-22.36h7.978v-6.825h-25.257v6.825h8.025zm29.509-6.825h-9.253v18.413c0 8.154 6.278 11.458 13.834 11.458 7.553 0 13.831-3.304 13.831-11.458V13.652h-9.252v17.639c0 3.305-1.983 4.765-4.579 4.765-2.598 0-4.581-1.459-4.581-4.765V13.652zm-66.089 14.592c0 9.314 7.223 15.065 16.665 15.065 3.824 0 7.034-.901 8.97-1.802v-7.34c-1.841.902-3.967 1.675-7.317 1.675-3.352 0-8.215-2.319-8.215-7.598 0-5.278 4.437-7.768 8.733-7.768 2.928 0 4.958.601 6.753 1.416v-7.253c-1.89-.773-4.249-1.373-8.027-1.373-9.488 0-17.562 5.665-17.562 14.978"/></svg>