<svg xmlns="http://www.w3.org/2000/svg" role="img" viewBox="-53.15 -53.15 2633.80 176.30"><path d="M314.8 71.201h-9v-70h12.6l30.9 58.2v-58.2h9v70h-12.4l-31.1-57.8v57.8zm758.2 0h-9v-70h12.6l30.9 58.2v-58.2h9v70h-12.4l-31.1-57.8v57.8zm165.4 0h-9v-70h12.6l30.9 58.2v-58.2h9v70h-12.4l-31.1-57.8v57.8zm270.7 0h-9v-70h12.6l30.9 58.2v-58.2h9v70h-12.4l-31.1-57.8v57.8zm234.7 0h-9v-70h12.6l30.9 58.2v-58.2h9v70h-12.4l-31.1-57.8v57.8zm409.6 0h-9v-70h12.6l30.9 58.2v-58.2h9v70h-12.4l-31.1-57.8v57.8zM745.2 5.701l-3.5 7.9q-4.2-2.3-8.55-3.8a27.36 27.36 0 0 0-6.099-1.321 34.225 34.225 0 0 0-3.551-.179 20.13 20.13 0 0 0-7.487 1.37 18.919 18.919 0 0 0-3.713 1.98 20.295 20.295 0 0 0-5.324 5.417 27.457 27.457 0 0 0-2.426 4.433 31.614 31.614 0 0 0-2.046 6.73q-.603 3.132-.754 6.724a58.311 58.311 0 0 0-.05 2.446q0 7.308 1.968 12.763a26.036 26.036 0 0 0 .632 1.587 24.18 24.18 0 0 0 2.932 5.046 19.102 19.102 0 0 0 4.268 4.104 17.93 17.93 0 0 0 9.809 3.185 21.993 21.993 0 0 0 .791.015 22.762 22.762 0 0 0 5.597-.664 18.835 18.835 0 0 0 4.353-1.686 40.361 40.361 0 0 0 3.002-1.784q2.286-1.504 3.848-3.066v-15.3h-14.5v-7.5h23.5v37.1h-8.4v-7a35.883 35.883 0 0 1-4.378 3.291A47.354 47.354 0 0 1 731 69.851a23.594 23.594 0 0 1-9.406 2.499 28.131 28.131 0 0 1-1.694.051 26.572 26.572 0 0 1-9.313-1.6 24.511 24.511 0 0 1-5.087-2.6q-6.3-4.2-9.9-11.95a37.529 37.529 0 0 1-2.908-9.571 51.837 51.837 0 0 1-.692-8.679 56.301 56.301 0 0 1 .835-9.918 42.572 42.572 0 0 1 2.965-9.832 32.73 32.73 0 0 1 5.784-8.948 29.455 29.455 0 0 1 5.166-4.452Q713.9.001 724 .001q6.5 0 11.6 1.6t9.6 4.1zm438.5 0l-3.5 7.9q-4.2-2.3-8.55-3.8a27.36 27.36 0 0 0-6.099-1.321 34.225 34.225 0 0 0-3.551-.179 20.13 20.13 0 0 0-7.487 1.37 18.919 18.919 0 0 0-3.713 1.98 20.295 20.295 0 0 0-5.324 5.417 27.457 27.457 0 0 0-2.426 4.433 31.614 31.614 0 0 0-2.046 6.73q-.603 3.132-.754 6.724a58.311 58.311 0 0 0-.05 2.446q0 7.308 1.968 12.763a26.036 26.036 0 0 0 .632 1.587 24.18 24.18 0 0 0 2.932 5.046 19.102 19.102 0 0 0 4.268 4.104 17.93 17.93 0 0 0 9.809 3.185 21.993 21.993 0 0 0 .791.015 22.762 22.762 0 0 0 5.597-.664 18.835 18.835 0 0 0 4.353-1.686 40.361 40.361 0 0 0 3.002-1.784q2.286-1.504 3.848-3.066v-15.3h-14.5v-7.5h23.5v37.1h-8.4v-7a35.883 35.883 0 0 1-4.378 3.291 47.354 47.354 0 0 1-4.122 2.359 23.594 23.594 0 0 1-9.406 2.499 28.131 28.131 0 0 1-1.694.051 26.572 26.572 0 0 1-9.313-1.6 24.511 24.511 0 0 1-5.087-2.6q-6.3-4.2-9.9-11.95a37.529 37.529 0 0 1-2.908-9.571 51.837 51.837 0 0 1-.692-8.679 56.301 56.301 0 0 1 .835-9.918 42.572 42.572 0 0 1 2.965-9.832 32.73 32.73 0 0 1 5.784-8.948 29.455 29.455 0 0 1 5.166-4.452q7.15-4.85 17.25-4.85 6.5 0 11.6 1.6t9.6 4.1zm436.1 0l-3.5 7.9q-4.2-2.3-8.55-3.8a27.36 27.36 0 0 0-6.099-1.321 34.225 34.225 0 0 0-3.551-.179 20.13 20.13 0 0 0-7.487 1.37 18.919 18.919 0 0 0-3.713 1.98 20.295 20.295 0 0 0-5.324 5.417 27.457 27.457 0 0 0-2.426 4.433 31.614 31.614 0 0 0-2.046 6.73q-.603 3.132-.754 6.724a58.311 58.311 0 0 0-.05 2.446q0 7.308 1.968 12.763a26.036 26.036 0 0 0 .632 1.587 24.18 24.18 0 0 0 2.932 5.046 19.102 19.102 0 0 0 4.268 4.104 17.93 17.93 0 0 0 9.809 3.185 21.993 21.993 0 0 0 .791.015 22.762 22.762 0 0 0 5.597-.664 18.835 18.835 0 0 0 4.353-1.686 40.361 40.361 0 0 0 3.002-1.784q2.286-1.504 3.848-3.066v-15.3H1599v-7.5h23.5v37.1h-8.4v-7a35.883 35.883 0 0 1-4.378 3.291 47.354 47.354 0 0 1-4.122 2.359 23.594 23.594 0 0 1-9.406 2.499 28.131 28.131 0 0 1-1.694.051 26.572 26.572 0 0 1-9.313-1.6 24.511 24.511 0 0 1-5.087-2.6q-6.3-4.2-9.9-11.95a37.529 37.529 0 0 1-2.908-9.571 51.837 51.837 0 0 1-.692-8.679 56.301 56.301 0 0 1 .835-9.918 42.572 42.572 0 0 1 2.965-9.832 32.73 32.73 0 0 1 5.784-8.948 29.455 29.455 0 0 1 5.166-4.452q7.15-4.85 17.25-4.85 6.5 0 11.6 1.6t9.6 4.1zm843.6 0l-3.5 7.9q-4.2-2.3-8.55-3.8a27.36 27.36 0 0 0-6.099-1.321 34.225 34.225 0 0 0-3.551-.179 20.13 20.13 0 0 0-7.487 1.37 18.919 18.919 0 0 0-3.713 1.98 20.295 20.295 0 0 0-5.324 5.417 27.457 27.457 0 0 0-2.426 4.433 31.614 31.614 0 0 0-2.046 6.73q-.603 3.132-.754 6.724a58.311 58.311 0 0 0-.05 2.446q0 7.308 1.968 12.763a26.036 26.036 0 0 0 .632 1.587 24.18 24.18 0 0 0 2.932 5.046 19.102 19.102 0 0 0 4.268 4.104 17.93 17.93 0 0 0 9.809 3.185 21.993 21.993 0 0 0 .791.015 22.762 22.762 0 0 0 5.597-.664 18.835 18.835 0 0 0 4.353-1.686 40.361 40.361 0 0 0 3.002-1.784q2.286-1.504 3.848-3.066v-15.3h-14.5v-7.5h23.5v37.1h-8.4v-7a35.883 35.883 0 0 1-4.378 3.291 47.354 47.354 0 0 1-4.122 2.359 23.594 23.594 0 0 1-9.406 2.499 28.131 28.131 0 0 1-1.694.051 26.572 26.572 0 0 1-9.313-1.6 24.511 24.511 0 0 1-5.087-2.6q-6.3-4.2-9.9-11.95a37.529 37.529 0 0 1-2.908-9.571 51.837 51.837 0 0 1-.692-8.679 56.301 56.301 0 0 1 .835-9.918 42.572 42.572 0 0 1 2.965-9.832 32.73 32.73 0 0 1 5.784-8.948 29.455 29.455 0 0 1 5.166-4.452q7.15-4.85 17.25-4.85 6.5 0 11.6 1.6t9.6 4.1zm-381 65.5h-9.5v-70h9.5v29.9h34.5v-29.9h9.5v70h-9.5v-31.9h-34.5v31.9zm-1972.2 0h-42v-70h42v8.2H77.7v21.3h28v8h-28v24.3h32.5v8.2zm572.3 0h-42v-70h42v8.2H650v21.3h28v8h-28v24.3h32.5v8.2zm122.9 0h-42v-70h42v8.2h-32.5v21.3h28v8h-28v24.3h32.5v8.2zm245.1 0h-42v-70h42v8.2H1018v21.3h28v8h-28v24.3h32.5v8.2zm291.4 0h-42v-70h42v8.2h-32.5v21.3h28v8h-28v24.3h32.5v8.2zm55.5 0h-42v-70h42v8.2h-32.5v21.3h28v8h-28v24.3h32.5v8.2zm602.6 0h-42v-70h42v8.2h-32.5v21.3h28v8h-28v24.3h32.5v8.2zm-539.4-3l-8.9 4.2-8.7-19a30.586 30.586 0 0 0-2.591-4.574q-2.506-3.605-5.709-5.526-4.355-2.614-10.836-2.951a37.847 37.847 0 0 0-1.964-.049h-1.5v30.9h-9.5v-69.8q5.3-.5 10.15-.75a187.94 187.94 0 0 1 6.316-.215 226.267 226.267 0 0 1 4.034-.035q12.8 0 19.25 5.2a17.414 17.414 0 0 1 4.63 5.534q1.82 3.509 1.82 7.866a19.88 19.88 0 0 1-.651 5.219 14.672 14.672 0 0 1-3.699 6.531q-4.35 4.45-12.55 6.65a23.656 23.656 0 0 1 3.429 1.862 20.427 20.427 0 0 1 1.371.988q1.969 1.546 3.805 4.06a29.29 29.29 0 0 1 .245.34q1.95 2.75 3.95 7.15l7.6 16.4zm-526.1 3H925v-70h41.5v8.2h-32v21.4h26.7v7.8h-26.7v32.6zm-765.9-67.6l-2.9 8q-3.1-1.5-6.35-2.4-2.793-.774-6.435-.883a40.705 40.705 0 0 0-1.215-.017 21.173 21.173 0 0 0-7.905 1.455 19.981 19.981 0 0 0-3.545 1.845 21.167 21.167 0 0 0-6.366 6.581 26.978 26.978 0 0 0-1.584 2.919q-2.9 6.2-2.9 15 0 8.4 2.85 14.7a25.677 25.677 0 0 0 3.586 5.828 21.423 21.423 0 0 0 4.314 3.972 19.703 19.703 0 0 0 11.145 3.496 23.894 23.894 0 0 0 .405.004 33.715 33.715 0 0 0 3.971-.222q2.476-.294 4.529-.978 3.6-1.2 7-3.1l2.9 7.9a37.561 37.561 0 0 1-4.495 2.044 47.894 47.894 0 0 1-3.955 1.306 33.592 33.592 0 0 1-4.965.991q-2.482.314-5.279.353a57.414 57.414 0 0 1-.806.006 32.384 32.384 0 0 1-9.325-1.301 27.961 27.961 0 0 1-6.775-3.049 28.6 28.6 0 0 1-9.877-10.446 34.916 34.916 0 0 1-1.023-1.954 37.611 37.611 0 0 1-3.099-9.717q-.776-4.266-.8-9.12a62.816 62.816 0 0 1-.001-.313q0-10.7 3.95-18.95t11.2-12.9A29.371 29.371 0 0 1 147.53.239a37.292 37.292 0 0 1 4.27-.238 45.639 45.639 0 0 1 5.058.268 35.2 35.2 0 0 1 4.042.682 38.224 38.224 0 0 1 7.475 2.544 35.605 35.605 0 0 1 .225.106zm55.9 0l-2.9 8q-3.1-1.5-6.35-2.4-2.793-.774-6.435-.883a40.705 40.705 0 0 0-1.215-.017 21.173 21.173 0 0 0-7.905 1.455 19.981 19.981 0 0 0-3.545 1.845 21.167 21.167 0 0 0-6.366 6.581 26.978 26.978 0 0 0-1.584 2.919q-2.9 6.2-2.9 15 0 8.4 2.85 14.7a25.677 25.677 0 0 0 3.586 5.828 21.423 21.423 0 0 0 4.314 3.972 19.703 19.703 0 0 0 11.145 3.496 23.894 23.894 0 0 0 .405.004 33.715 33.715 0 0 0 3.971-.222q2.476-.294 4.529-.978 3.6-1.2 7-3.1l2.9 7.9a37.561 37.561 0 0 1-4.495 2.044 47.894 47.894 0 0 1-3.955 1.306 33.592 33.592 0 0 1-4.965.991q-2.482.314-5.279.353a57.414 57.414 0 0 1-.806.006 32.384 32.384 0 0 1-9.325-1.301 27.961 27.961 0 0 1-6.775-3.049 28.6 28.6 0 0 1-9.877-10.446 34.916 34.916 0 0 1-1.023-1.954 37.611 37.611 0 0 1-3.099-9.717q-.776-4.266-.8-9.12a62.816 62.816 0 0 1-.001-.313q0-10.7 3.95-18.95t11.2-12.9A29.371 29.371 0 0 1 203.43.239a37.292 37.292 0 0 1 4.27-.238 45.639 45.639 0 0 1 5.058.268 35.2 35.2 0 0 1 4.042.682 38.224 38.224 0 0 1 7.475 2.544 35.605 35.605 0 0 1 .225.106zm226.7 0l-2.9 8q-3.1-1.5-6.35-2.4-2.793-.774-6.435-.883a40.705 40.705 0 0 0-1.215-.017 21.173 21.173 0 0 0-7.905 1.455 19.981 19.981 0 0 0-3.545 1.845 21.167 21.167 0 0 0-6.366 6.581 26.978 26.978 0 0 0-1.584 2.919q-2.9 6.2-2.9 15 0 8.4 2.85 14.7a25.677 25.677 0 0 0 3.586 5.828 21.423 21.423 0 0 0 4.314 3.972 19.703 19.703 0 0 0 11.145 3.496 23.894 23.894 0 0 0 .405.004 33.715 33.715 0 0 0 3.971-.222q2.476-.294 4.529-.978 3.6-1.2 7-3.1l2.9 7.9a37.561 37.561 0 0 1-4.495 2.044 47.894 47.894 0 0 1-3.955 1.306 33.592 33.592 0 0 1-4.965.991q-2.482.314-5.279.353a57.414 57.414 0 0 1-.806.006 32.384 32.384 0 0 1-9.325-1.301 27.961 27.961 0 0 1-6.775-3.049 28.6 28.6 0 0 1-9.877-10.446 34.916 34.916 0 0 1-1.023-1.954 37.611 37.611 0 0 1-3.099-9.717q-.776-4.266-.8-9.12a62.816 62.816 0 0 1-.001-.313q0-10.7 3.95-18.95t11.2-12.9A29.371 29.371 0 0 1 430.13.239a37.292 37.292 0 0 1 4.27-.238 45.639 45.639 0 0 1 5.058.268 35.2 35.2 0 0 1 4.042.682 38.224 38.224 0 0 1 7.475 2.544 35.605 35.605 0 0 1 .225.106zm1607.2 0l-2.9 8q-3.1-1.5-6.35-2.4-2.793-.774-6.435-.883a40.705 40.705 0 0 0-1.215-.017 21.173 21.173 0 0 0-7.905 1.455 19.981 19.981 0 0 0-3.545 1.845 21.167 21.167 0 0 0-6.366 6.581 26.978 26.978 0 0 0-1.584 2.919q-2.9 6.2-2.9 15 0 8.4 2.85 14.7a25.677 25.677 0 0 0 3.586 5.828 21.423 21.423 0 0 0 4.314 3.972 19.703 19.703 0 0 0 11.145 3.496 23.894 23.894 0 0 0 .405.004 33.715 33.715 0 0 0 3.971-.222q2.476-.294 4.529-.978 3.6-1.2 7-3.1l2.9 7.9a37.561 37.561 0 0 1-4.495 2.044 47.894 47.894 0 0 1-3.955 1.306 33.592 33.592 0 0 1-4.965.991q-2.482.314-5.279.353a57.414 57.414 0 0 1-.806.006 32.384 32.384 0 0 1-9.325-1.301 27.961 27.961 0 0 1-6.775-3.049 28.6 28.6 0 0 1-9.877-10.446 34.916 34.916 0 0 1-1.023-1.954 37.611 37.611 0 0 1-3.099-9.717q-.776-4.266-.8-9.12a62.816 62.816 0 0 1-.001-.313q0-10.7 3.95-18.95t11.2-12.9a29.371 29.371 0 0 1 12.68-4.412 37.292 37.292 0 0 1 4.27-.238 45.639 45.639 0 0 1 5.058.268 35.2 35.2 0 0 1 4.042.682 38.224 38.224 0 0 1 7.475 2.544 35.605 35.605 0 0 1 .225.106zm447 67.6h-9.5v-26.6l-24.3-39.5 8-4.8 21.4 35.5 21-35.1 7.5 4.4-24.1 39.5v26.6zm-2209.6-2.5l-8.7 3.5-7.8-20h-32.4l-7.8 19.8-8.1-3.3 27.4-67.5h10.4l27 67.5zm1429 0l-8.7 3.5-7.8-20h-32.4l-7.8 19.8-8.1-3.3 27.4-67.5h10.4l27 67.5zm201.7 2.5h-9.5v-61.6h-21.5v-8.4h52.5v8.4h-21.5v61.6zm-1346.6 0h-41.6v-70h9.5v61.5h32.1v8.5zm51.1 0h-41.6v-70h9.5v61.5H631v8.5zm1701.6 0H2291v-70h9.5v61.5h32.1v8.5zM0 71.001v-69.6q4.7-.5 9.2-.75A151.31 151.31 0 0 1 13.386.48Q16.238.401 19.5.401a48.608 48.608 0 0 1 7.344.526q3.934.602 7.266 1.891a29.198 29.198 0 0 1 .94.383 30.978 30.978 0 0 1 7.289 4.32 27.223 27.223 0 0 1 3.511 3.38q4.25 4.9 6.3 11.35a44.256 44.256 0 0 1 1.972 10.995 51.506 51.506 0 0 1 .078 2.855 45.309 45.309 0 0 1-1.481 11.697 41.802 41.802 0 0 1-.619 2.103q-2.1 6.5-6.45 11.45-4.35 4.95-11.1 7.8-6.275 2.649-14.841 2.835a60.192 60.192 0 0 1-1.309.015 186.98 186.98 0 0 1-4.071-.043q-2.014-.044-3.807-.133a101.5 101.5 0 0 1-2.072-.124q-4.25-.3-8.45-.7zm1805.3 0v-69.6q4.7-.5 9.2-.75a151.31 151.31 0 0 1 4.186-.171q2.852-.079 6.114-.079a48.608 48.608 0 0 1 7.344.526q3.934.602 7.266 1.891a29.198 29.198 0 0 1 .94.383 30.978 30.978 0 0 1 7.289 4.32 27.223 27.223 0 0 1 3.511 3.38q4.25 4.9 6.3 11.35a44.256 44.256 0 0 1 1.972 10.995 51.506 51.506 0 0 1 .078 2.855 45.309 45.309 0 0 1-1.481 11.697 41.802 41.802 0 0 1-.619 2.103q-2.1 6.5-6.45 11.45-4.35 4.95-11.1 7.8-6.275 2.649-14.841 2.835a60.192 60.192 0 0 1-1.309.015 186.98 186.98 0 0 1-4.071-.043q-2.014-.044-3.807-.133a101.5 101.5 0 0 1-2.072-.124q-4.25-.3-8.45-.7zm-1321.692.642a36.51 36.51 0 0 0 7.592.758 38.35 38.35 0 0 0 5.162-.337 30.074 30.074 0 0 0 8.738-2.513q6.1-2.85 10.4-7.8 4.3-4.95 6.55-11.55 2.25-6.6 2.25-14.1a48.215 48.215 0 0 0-.079-2.778 41.439 41.439 0 0 0-2.171-11.222q-2.25-6.5-6.55-11.5t-10.45-7.8a29.925 29.925 0 0 0-5.892-1.963A36.42 36.42 0 0 0 491.2.001a39.35 39.35 0 0 0-6.228.475A29.661 29.661 0 0 0 473.5 4.751q-7.4 4.75-11.35 12.9a37.989 37.989 0 0 0-2.835 8.113 46.182 46.182 0 0 0-1.115 10.337 48.913 48.913 0 0 0 .035 1.86 42.769 42.769 0 0 0 2.215 12.24 39.376 39.376 0 0 0 .439 1.222 34.353 34.353 0 0 0 6.061 10.328q4.25 4.95 10.35 7.8a29.142 29.142 0 0 0 6.308 2.092zm386.7 0a36.51 36.51 0 0 0 7.592.758 38.35 38.35 0 0 0 5.162-.337 30.074 30.074 0 0 0 8.738-2.513q6.1-2.85 10.4-7.8 4.3-4.95 6.55-11.55 2.25-6.6 2.25-14.1a48.215 48.215 0 0 0-.079-2.778 41.439 41.439 0 0 0-2.171-11.222q-2.25-6.5-6.55-11.5t-10.45-7.8a29.925 29.925 0 0 0-5.892-1.963A36.42 36.42 0 0 0 877.9.001a39.35 39.35 0 0 0-6.228.475A29.661 29.661 0 0 0 860.2 4.751q-7.4 4.75-11.35 12.9a37.989 37.989 0 0 0-2.835 8.113 46.182 46.182 0 0 0-1.115 10.337 48.913 48.913 0 0 0 .035 1.86 42.769 42.769 0 0 0 2.215 12.24 39.376 39.376 0 0 0 .439 1.222 34.353 34.353 0 0 0 6.061 10.328q4.25 4.95 10.35 7.8a29.142 29.142 0 0 0 6.308 2.092zm1366 0a36.51 36.51 0 0 0 7.592.758 38.35 38.35 0 0 0 5.162-.337 30.074 30.074 0 0 0 8.738-2.513q6.1-2.85 10.4-7.8 4.3-4.95 6.55-11.55 2.25-6.6 2.25-14.1a48.215 48.215 0 0 0-.079-2.778 41.439 41.439 0 0 0-2.171-11.222q-2.25-6.5-6.55-11.5t-10.45-7.8a29.925 29.925 0 0 0-5.892-1.963 36.42 36.42 0 0 0-7.958-.837 39.35 39.35 0 0 0-6.228.475 29.661 29.661 0 0 0-11.472 4.275q-7.4 4.75-11.35 12.9a37.989 37.989 0 0 0-2.835 8.113 46.182 46.182 0 0 0-1.115 10.337 48.913 48.913 0 0 0 .035 1.86 42.769 42.769 0 0 0 2.215 12.24 39.376 39.376 0 0 0 .439 1.222 34.353 34.353 0 0 0 6.061 10.328q4.25 4.95 10.35 7.8a29.142 29.142 0 0 0 6.308 2.092zm123.2 0a36.51 36.51 0 0 0 7.592.758 38.35 38.35 0 0 0 5.162-.337 30.074 30.074 0 0 0 8.738-2.513q6.1-2.85 10.4-7.8 4.3-4.95 6.55-11.55 2.25-6.6 2.25-14.1a48.215 48.215 0 0 0-.079-2.778 41.439 41.439 0 0 0-2.171-11.222q-2.25-6.5-6.55-11.5t-10.45-7.8a29.925 29.925 0 0 0-5.892-1.963 36.42 36.42 0 0 0-7.958-.837 39.35 39.35 0 0 0-6.228.475 29.661 29.661 0 0 0-11.472 4.275q-7.4 4.75-11.35 12.9a37.989 37.989 0 0 0-2.835 8.113 46.182 46.182 0 0 0-1.115 10.337 48.913 48.913 0 0 0 .035 1.86 42.769 42.769 0 0 0 2.215 12.24 39.376 39.376 0 0 0 .439 1.222 34.353 34.353 0 0 0 6.061 10.328q4.25 4.95 10.35 7.8a29.142 29.142 0 0 0 6.308 2.092zM491.2 64.201a26.517 26.517 0 0 0 5.948-.635 19.316 19.316 0 0 0 6.952-3.065 22.47 22.47 0 0 0 7.325-8.871 27.252 27.252 0 0 0 .525-1.179 34.108 34.108 0 0 0 2.322-8.929 43.503 43.503 0 0 0 .328-5.421q0-5.4-1.6-10.4a29.735 29.735 0 0 0-4.14-8.327 28.121 28.121 0 0 0-.46-.623q-3-3.95-7.35-6.25a19.921 19.921 0 0 0-7.417-2.182 24.578 24.578 0 0 0-2.433-.118 24.086 24.086 0 0 0-6.492.84 19.545 19.545 0 0 0-6.058 2.86 23.148 23.148 0 0 0-7.601 9.126 27.785 27.785 0 0 0-.399.874 32.793 32.793 0 0 0-2.454 9.187 41.257 41.257 0 0 0-.296 5.013q0 5.4 1.55 10.45a29.379 29.379 0 0 0 4.181 8.545 27.923 27.923 0 0 0 .369.505q3 4 7.35 6.3a19.921 19.921 0 0 0 7.417 2.181 24.578 24.578 0 0 0 2.433.119zm386.7 0a26.517 26.517 0 0 0 5.948-.635 19.316 19.316 0 0 0 6.952-3.065 22.47 22.47 0 0 0 7.325-8.871 27.252 27.252 0 0 0 .525-1.179 34.108 34.108 0 0 0 2.322-8.929 43.503 43.503 0 0 0 .328-5.421q0-5.4-1.6-10.4a29.735 29.735 0 0 0-4.14-8.327 28.121 28.121 0 0 0-.46-.623q-3-3.95-7.35-6.25a19.921 19.921 0 0 0-7.417-2.182 24.578 24.578 0 0 0-2.433-.118 24.086 24.086 0 0 0-6.492.84 19.545 19.545 0 0 0-6.058 2.86 23.148 23.148 0 0 0-7.601 9.126 27.785 27.785 0 0 0-.399.874 32.793 32.793 0 0 0-2.454 9.187 41.257 41.257 0 0 0-.296 5.013q0 5.4 1.55 10.45a29.379 29.379 0 0 0 4.181 8.545 27.923 27.923 0 0 0 .369.505q3 4 7.35 6.3a19.921 19.921 0 0 0 7.417 2.181 24.578 24.578 0 0 0 2.433.119zm1366 0a26.517 26.517 0 0 0 5.948-.635 19.316 19.316 0 0 0 6.952-3.065 22.47 22.47 0 0 0 7.325-8.871 27.252 27.252 0 0 0 .525-1.179 34.108 34.108 0 0 0 2.322-8.929 43.503 43.503 0 0 0 .328-5.421q0-5.4-1.6-10.4a29.735 29.735 0 0 0-4.14-8.327 28.121 28.121 0 0 0-.46-.623q-3-3.95-7.35-6.25a19.921 19.921 0 0 0-7.417-2.182 24.578 24.578 0 0 0-2.433-.118 24.086 24.086 0 0 0-6.492.84 19.545 19.545 0 0 0-6.058 2.86 23.148 23.148 0 0 0-7.601 9.126 27.785 27.785 0 0 0-.399.874 32.793 32.793 0 0 0-2.454 9.187 41.257 41.257 0 0 0-.296 5.013q0 5.4 1.55 10.45a29.379 29.379 0 0 0 4.181 8.545 27.923 27.923 0 0 0 .369.505q3 4 7.35 6.3a19.921 19.921 0 0 0 7.417 2.181 24.578 24.578 0 0 0 2.433.119zm123.2 0a26.517 26.517 0 0 0 5.948-.635 19.316 19.316 0 0 0 6.952-3.065 22.47 22.47 0 0 0 7.325-8.871 27.252 27.252 0 0 0 .525-1.179 34.108 34.108 0 0 0 2.322-8.929 43.503 43.503 0 0 0 .328-5.421q0-5.4-1.6-10.4a29.735 29.735 0 0 0-4.14-8.327 28.121 28.121 0 0 0-.46-.623q-3-3.95-7.35-6.25a19.921 19.921 0 0 0-7.417-2.182 24.578 24.578 0 0 0-2.433-.118 24.086 24.086 0 0 0-6.492.84 19.545 19.545 0 0 0-6.058 2.86 23.148 23.148 0 0 0-7.601 9.126 27.785 27.785 0 0 0-.399.874 32.793 32.793 0 0 0-2.454 9.187 41.257 41.257 0 0 0-.296 5.013q0 5.4 1.55 10.45a29.379 29.379 0 0 0 4.181 8.545 27.923 27.923 0 0 0 .369.505q3 4 7.35 6.3a19.921 19.921 0 0 0 7.417 2.181 24.578 24.578 0 0 0 2.433.119zm-1155.7 7h-9.5v-70h9.5v70zm270.7 0h-9.5v-70h9.5v70zM9.5 9.101v54.1q2.1.3 4.4.4a107.265 107.265 0 0 0 3.563.093 121.297 121.297 0 0 0 1.237.007 37.906 37.906 0 0 0 6.164-.472q4.929-.814 8.536-3.028 5.7-3.5 8.4-9.75a32.292 32.292 0 0 0 2.254-8.075 42.502 42.502 0 0 0 .446-6.275q0-7.2-2.7-13.5t-8.3-10.15a20.895 20.895 0 0 0-7.052-3.06q-2.841-.679-6.152-.775a38.008 38.008 0 0 0-1.096-.015q-2.9 0-5.3.15t-4.4.35zm1805.3 0v54.1q2.1.3 4.4.4a107.265 107.265 0 0 0 3.563.093 121.297 121.297 0 0 0 1.237.007 37.906 37.906 0 0 0 6.164-.472q4.929-.814 8.536-3.028 5.7-3.5 8.4-9.75a32.292 32.292 0 0 0 2.254-8.075 42.502 42.502 0 0 0 .446-6.275q0-7.2-2.7-13.5t-8.3-10.15a20.895 20.895 0 0 0-7.052-3.06q-2.841-.679-6.152-.775a38.008 38.008 0 0 0-1.096-.015q-2.9 0-5.3.15t-4.4.35zm-1551.7 1.5l-13.2 33.6h26.3l-13.1-33.6zm1429 0l-13.2 33.6h26.3l-13.1-33.6zm-271.7-1.8v23.5h11a26.489 26.489 0 0 0 4.923-.432q3.929-.743 6.777-2.768 4.5-3.2 4.5-9.2a9.811 9.811 0 0 0-3.273-7.465 13.272 13.272 0 0 0-.927-.785 13.923 13.923 0 0 0-4.364-2.222q-1.929-.611-4.259-.859a31.944 31.944 0 0 0-3.377-.169q-3.174 0-5.738.087a118.974 118.974 0 0 0-.362.013q-2.7.1-4.9.3z" vector-effect="non-scaling-stroke" fill="#000" fill-rule="evenodd" stroke="#000" stroke-linecap="round" stroke-width=".25mm"/></svg>