<?xml version="1.0" encoding="utf-8"?>
<!-- Generator: Adobe Illustrator 28.3.0, SVG Export Plug-In . SVG Version: 6.00 Build 0)  -->
<svg version="1.1" id="Layer_1" xmlns="http://www.w3.org/2000/svg" xmlns:xlink="http://www.w3.org/1999/xlink" x="0px" y="0px"
	 viewBox="0 0 600 120" style="enable-background:new 0 0 600 120;" xml:space="preserve">
<style type="text/css">
	.st0{display:none;fill:#2A2C41;}
	.st1{fill:#2A2C41;}
	.st2{fill:#D91E2B;}
</style>
<rect x="-1360" y="853.2" class="st0" width="33.3" height="35.8"/>
<g>
	<path class="st1" d="M30.5,34.1h20.1c14.9,0,25.1,9.2,25.1,23c0,13.8-10.2,23-25.1,23H30.5V34.1z M50.1,72.8
		C60.4,72.8,67,66.6,67,57c0-9.5-6.6-15.7-16.9-15.7H39v31.5H50.1z"/>
	<path class="st1" d="M116.6,65.1H89.2c1,5.1,5.2,8.4,11.3,8.4c3.9,0,7-1.2,9.5-3.8l4.4,5.1c-3.1,3.7-8.1,5.7-14.1,5.7
		c-11.7,0-19.3-7.5-19.3-18c0-10.4,7.7-17.9,18.1-17.9c10.2,0,17.7,7.1,17.7,18.1C116.8,63.3,116.7,64.3,116.6,65.1z M89.1,59.7H109
		c-0.7-5.1-4.5-8.5-9.9-8.5C93.7,51.1,89.9,54.6,89.1,59.7z"/>
	<path class="st1" d="M157.8,65.1h-27.5c1,5.1,5.2,8.4,11.3,8.4c3.9,0,7-1.2,9.5-3.8l4.4,5.1c-3.1,3.7-8.1,5.7-14.1,5.7
		c-11.7,0-19.3-7.5-19.3-18c0-10.4,7.7-17.9,18.1-17.9c10.2,0,17.7,7.1,17.7,18.1C157.9,63.3,157.9,64.3,157.8,65.1z M130.3,59.7
		h19.9c-0.7-5.1-4.5-8.5-9.9-8.5C134.9,51.1,131.1,54.6,130.3,59.7z"/>
	<path class="st1" d="M200.5,62.5c0,10.9-7.5,18-17.8,18c-4.5,0-8.4-1.5-11.2-4.7v17h-8.2V45h7.8v4.6c2.8-3.3,6.8-5,11.6-5
		C193,44.6,200.5,51.7,200.5,62.5z M192.2,62.5c0-6.7-4.5-11-10.4-11c-5.9,0-10.4,4.3-10.4,11c0,6.7,4.5,11,10.4,11
		C187.7,73.4,192.2,69.2,192.2,62.5z"/>
	<path class="st1" d="M205.9,57c0-13.7,10.5-23.6,24.6-23.6c7.5,0,13.9,2.7,18.2,7.7l-5.5,5.2c-3.3-3.6-7.5-5.4-12.3-5.4
		c-9.5,0-16.4,6.7-16.4,16.1c0,9.4,6.9,16.1,16.4,16.1c4.8,0,8.9-1.8,12.3-5.4l5.5,5.2c-4.3,5-10.7,7.7-18.2,7.7
		C216.4,80.7,205.9,70.8,205.9,57z"/>
	<path class="st1" d="M254,62.5c0-10.5,7.9-17.9,18.6-17.9c10.9,0,18.7,7.4,18.7,17.9c0,10.5-7.8,18-18.7,18
		C261.9,80.5,254,73,254,62.5z M283.1,62.5c0-6.7-4.5-11-10.4-11c-5.9,0-10.4,4.3-10.4,11c0,6.7,4.5,11,10.4,11
		C278.6,73.4,283.1,69.2,283.1,62.5z"/>
	<path class="st1" d="M355.3,59.9V80h-8.2V61c0-6.2-2.9-9.2-7.9-9.2c-5.4,0-9.1,3.5-9.1,10.5V80h-8.2V61c0-6.2-2.9-9.2-7.9-9.2
		c-5.4,0-9.1,3.5-9.1,10.5V80h-8.2V45h7.8v4.5c2.6-3.1,6.7-4.9,11.5-4.9c5.1,0,9.4,1.9,11.8,5.8c2.8-3.6,7.5-5.8,13.1-5.8
		C349.4,44.6,355.3,49.4,355.3,59.9z"/>
	<path class="st1" d="M397.8,62.5c0,10.9-7.5,18-17.8,18c-4.5,0-8.4-1.5-11.2-4.7v17h-8.2V45h7.8v4.6c2.8-3.3,6.8-5,11.6-5
		C390.3,44.6,397.8,51.7,397.8,62.5z M389.5,62.5c0-6.7-4.5-11-10.4-11c-5.9,0-10.4,4.3-10.4,11c0,6.7,4.5,11,10.4,11
		C385,73.4,389.5,69.2,389.5,62.5z"/>
	<path class="st1" d="M437.4,45v35h-7.8v-4.5c-2.6,3.2-6.8,4.9-11.3,4.9c-9,0-15.1-4.9-15.1-15.5V45h8.2v18.9c0,6.4,3,9.4,8.2,9.4
		c5.7,0,9.6-3.5,9.6-10.6V45H437.4z"/>
	<path class="st1" d="M468.4,78.1c-2,1.6-4.9,2.4-7.9,2.4c-7.7,0-12.1-4.1-12.1-11.8V51.8h-5.8v-6.6h5.8v-8h8.2v8h9.4v6.6h-9.4v16.7
		c0,3.4,1.7,5.2,4.9,5.2c1.7,0,3.3-0.5,4.6-1.4L468.4,78.1z"/>
	<g>
		<path class="st1" d="M476.1,45h8.2v35h-8.2V45z"/>
		<path class="st2" d="M473.8,32.8c0-3.4,2.7-6,6.4-6c3.7,0,6.4,2.5,6.4,5.8c0,3.5-2.7,6.3-6.4,6.3
			C476.5,38.9,473.8,36.2,473.8,32.8z"/>
	</g>
	<path class="st1" d="M526.5,59.9V80h-8.2V61c0-6.2-3.1-9.2-8.3-9.2c-5.8,0-9.8,3.5-9.8,10.6V80H492V45h7.8v4.5
		c2.7-3.2,7-4.9,12.1-4.9C520.3,44.6,526.5,49.4,526.5,59.9z"/>
	<path class="st1" d="M569.5,45v29.7c0,12.7-6.6,18.5-18.9,18.5c-6.6,0-13.1-1.7-17.1-5l3.7-6.2c3.1,2.6,8.1,4.2,12.9,4.2
		c7.7,0,11.2-3.5,11.2-10.6v-1.8c-2.9,3.1-7,4.7-11.7,4.7c-10,0-17.7-6.8-17.7-17c0-10.2,7.7-16.9,17.7-16.9c4.9,0,9.2,1.6,12.1,5.1
		V45H569.5z M561.5,61.4c0-5.9-4.5-9.9-10.6-9.9c-6.2,0-10.7,4-10.7,9.9c0,6,4.5,10,10.7,10C557,71.5,561.5,67.4,561.5,61.4z"/>
</g>
</svg>
