<?xml version="1.0" encoding="utf-8"?>
<!-- Generator: Adobe Illustrator 25.4.1, SVG Export Plug-In . SVG Version: 6.00 Build 0)  -->
<svg version="1.1" id="图层_1" xmlns="http://www.w3.org/2000/svg" xmlns:xlink="http://www.w3.org/1999/xlink" x="0px" y="0px"
	 viewBox="0 0 1190.5 541.5" style="enable-background:new 0 0 1190.5 541.5;" xml:space="preserve">
<style type="text/css">
	.st0{display:none;}
	.st1{display:none;fill:#FFFFFF;}
	.st2{fill:#FF5A00;}
</style>
<g>
	<g>
		<g>
			<path d="M426.1,421.2c1.7,0,3.1,0.1,4.2,0.3c1.1,0.2,2.1,0.6,2.8,1c1.2,0.8,2.1,1.8,2.8,3.1c0.7,1.3,1,2.7,1,4.3
				c0,3-0.9,5.2-2.7,6.7c-1.8,1.5-4.5,2.2-8.2,2.2h-10.2v-17.6H426.1z M425.7,423.8h-6.5v12.3h6.5c2.9,0,4.9-0.5,6.1-1.5
				c1.2-1,1.8-2.6,1.8-4.8c0-2.2-0.6-3.7-1.8-4.7C430.6,424.3,428.6,423.8,425.7,423.8z"/>
			<path d="M442.4,438.8v-17.6h14.2c1.3,0,2.3,0.3,2.8,0.8c0.6,0.5,0.9,1.4,0.9,2.6v3.9c0,1.2-0.3,2.1-0.9,2.6
				c-0.6,0.5-1.5,0.8-2.8,0.8h-2.3l7.8,6.9h-4.4l-7-6.9h-4.8v6.9H442.4z M455.1,423.8h-9.4v5.7h9.4c0.7,0,1.2-0.1,1.5-0.4
				c0.3-0.2,0.4-0.7,0.4-1.4v-2.1c0-0.6-0.1-1.1-0.4-1.4C456.3,423.9,455.8,423.8,455.1,423.8z"/>
			<path d="M468.6,438.8h-3.3v-17.6h3.3V438.8z"/>
			<path d="M481.2,438.8L471,421.2h3.6l7.9,14.2l7.6-14.2h3.3l-9.6,17.6H481.2z"/>
			<path d="M495.9,438.8v-17.6h17.8v2.6h-14.4v4.5h8.7v2.6h-8.7v5.3h14.6v2.6H495.9z"/>
			<path d="M539.1,423.8v15h-3.3v-15h-8.3v-2.6h20v2.6H539.1z"/>
			<path d="M550,438.8v-17.6h3.3v7.1h14.1v-7.1h3.3v17.6h-3.3V431h-14.1v7.9H550z"/>
			<path d="M576.3,438.8v-17.6h17.8v2.6h-14.4v4.5h8.7v2.6h-8.7v5.3h14.6v2.6H576.3z"/>
			<path d="M611.1,438.8v-17.6h17.5v2.6h-14.2v5.4h8v2.6h-8v7H611.1z"/>
			<path d="M634.5,421.2v15h12.9v-15h3.4v13.5c0,1.6-0.3,2.7-0.9,3.3c-0.6,0.6-1.7,0.9-3.4,0.9h-10.9c-1.7,0-2.8-0.3-3.4-0.9
				c-0.6-0.6-0.9-1.7-0.9-3.3v-13.5H634.5z"/>
			<path d="M664.9,423.8v15h-3.3v-15h-8.3v-2.6h20v2.6H664.9z"/>
			<path d="M679.1,421.2v15H692v-15h3.4v13.5c0,1.6-0.3,2.7-0.9,3.3c-0.6,0.6-1.7,0.9-3.4,0.9h-10.9c-1.7,0-2.8-0.3-3.4-0.9
				c-0.6-0.6-0.9-1.7-0.9-3.3v-13.5H679.1z"/>
			<path d="M701,438.8v-17.6h14.2c1.3,0,2.3,0.3,2.8,0.8c0.6,0.5,0.9,1.4,0.9,2.6v3.9c0,1.2-0.3,2.1-0.9,2.6
				c-0.6,0.5-1.5,0.8-2.8,0.8h-2.3l7.8,6.9h-4.4l-7-6.9h-4.8v6.9H701z M713.7,423.8h-9.4v5.7h9.4c0.7,0,1.2-0.1,1.5-0.4
				c0.3-0.2,0.4-0.7,0.4-1.4v-2.1c0-0.6-0.1-1.1-0.4-1.4C714.9,423.9,714.4,423.8,713.7,423.8z"/>
			<path d="M724,438.8v-17.6h17.8v2.6h-14.4v4.5h8.7v2.6h-8.7v5.3h14.6v2.6H724z"/>
		</g>
	</g>
	<g>
		<path d="M678.6,160.1c-3.1-5.3-9.9-7.1-15.2-4.1c-4,2.3-6,6.7-5.5,11l-14.8,8.5c-0.1-0.1-0.2-0.1-0.3-0.2l0,0l0,0
			c-0.5-0.3-1-0.6-1.6-0.9l0,0l-57-32.9l-0.2-0.1c-0.3-0.1-0.6-0.3-0.9-0.4v-17c4-1.7,6.8-5.6,6.8-10.2c0-6.1-5-11.1-11.1-11.1
			s-11.1,5-11.1,11.1c0,4.6,2.8,8.5,6.8,10.2v17c-0.3,0.1-0.6,0.3-0.9,0.4l-58.5,33.8l-0.1,0.1c-0.2,0.1-0.4,0.3-0.6,0.4l-14.6-8.4
			c0.5-4.3-1.5-8.7-5.5-11c-5.3-3.1-12.1-1.2-15.2,4.1c-3.1,5.3-1.2,12.1,4.1,15.2c4,2.3,8.8,1.9,12.3-0.7l14.8,8.5
			c0,0.3-0.1,0.7-0.1,1V251c0,3.9,2.1,7.6,5.5,9.5l57.8,33.4l0.1,0.1c1.6,0.9,3.4,1.3,5.2,1.3c1.8,0,3.6-0.5,5.3-1.3l57.7-33.3
			l0.1,0c3.5-1.9,5.7-5.6,5.7-9.6v-66.7c0-0.4,0-0.9-0.1-1.3l14.8-8.5c3.5,2.6,8.3,3.1,12.3,0.8
			C679.9,172.2,681.7,165.4,678.6,160.1z M638.9,236.6c0,2.3-2,4.3-5.3,5.3l-50.4,15.8c-1.3,0.4-2.8,0.6-4.2,0.6
			c-1.5,0-2.9-0.2-4.2-0.6l-0.1,0l-50.5-15.8c-3.2-1-5.1-3-5.1-5.3v-24.7h119.9V236.6z"/>
		<path d="M525.1,238.9l50.5,15.8c2.1,0.6,4.7,0.6,6.7,0l50.4-15.8c2-0.6,3-1.6,3-2.3v-21.5H522.2v21.5
			C522.2,237.3,523.1,238.2,525.1,238.9z M527.5,220h102.8v12.1c0,1.4-1.5,2.7-3.6,3.3l-0.1,0l-44.3,13.9l-0.1,0
			c-1,0.3-2.1,0.5-3.3,0.5c-1.2,0-2.3-0.2-3.3-0.5l-0.1,0l-44.3-13.9l-0.2-0.1c-2.1-0.7-3.5-1.9-3.5-3.3V220z"/>
	</g>
	<path class="st2" d="M403.3,373.5c0,11.3-4.7,19.6-14.1,25.1c-5.2,3-13.6,4.5-25.2,4.5h-36.4v-58.6h40c10.5,0,18.9,2.2,25.1,6.5
		C399.8,356.1,403.3,363.6,403.3,373.5z M384.7,373.3c0-9.8-5.7-14.8-17-14.8h-21.9v30.2h15.3c7.3,0,12.7-0.8,16.1-2.4
		C382.2,384.1,384.7,379.7,384.7,373.3z"/>
	<path class="st2" d="M474.9,358.3h-45.6v10.1H465v14.1h-35.7v20.7h-18.2v-58.6h63.8V358.3z"/>
	<g>
		<path d="M482.6,403.2v-58.6h47.2c4.4,0,7.6,0.9,9.5,2.7c1.9,1.8,2.9,4.7,2.9,8.7V369c0,4-1,6.8-2.9,8.6c-1.9,1.8-5.1,2.7-9.5,2.7
			h-8.6l26.8,22.8h-14.5l-23.8-22.8h-17.2v22.8H482.6z M526,352.2h-33.6v20.6H526c2.4,0,4.1-0.4,5-1.3c0.9-0.9,1.3-2.4,1.3-4.7v-8.5
			c0-2.2-0.5-3.8-1.4-4.7C530,352.6,528.4,352.2,526,352.2z"/>
		<path d="M550.1,358.4c0-5.3,1-9,2.9-10.9c1.9-2,5.5-2.9,10.9-2.9h40.5c5.3,0,8.9,1,10.8,2.9c1.9,1.9,2.9,5.6,2.9,10.9v30.9
			c0,5.4-1,9.1-2.9,11c-1.9,1.9-5.5,2.9-10.8,2.9h-40.5c-5.4,0-9-1-10.9-2.9c-1.9-2-2.9-5.6-2.9-10.9V358.4z M559.9,395h48.5v-42.4
			h-48.5V395z"/>
		<path d="M626.2,403.2v-58.6h47.2c4.4,0,7.6,0.9,9.5,2.7c1.9,1.8,2.9,4.7,2.9,8.7v6.8c0,3.1-0.8,5.5-2.4,7c-1.6,1.6-4,2.5-7.4,2.9
			c3.3,0.4,5.8,1.6,7.5,3.5c1.7,1.9,2.6,4.6,2.6,8v7.5c0,3.9-1.3,6.8-4,8.6c-2.7,1.9-6.8,2.8-12.2,2.8H626.2z M675.8,363.4v-5.9
			c0-1.9-0.4-3.2-1.2-4c-0.8-0.7-2.4-1.1-4.7-1.1H636v16.2h33.8c2.3,0,3.8-0.4,4.7-1.2C675.3,366.7,675.8,365.4,675.8,363.4z
			 M676.3,388.2v-4.9c0-2.7-0.5-4.5-1.4-5.5c-0.9-1-2.6-1.5-5.1-1.5H636v18.8h33.8c2.5,0,4.2-0.5,5.1-1.5
			C675.8,392.6,676.3,390.8,676.3,388.2z"/>
		<path d="M693.9,358.4c0-5.3,1-9,2.9-10.9c1.9-2,5.5-2.9,10.9-2.9h40.5c5.3,0,8.9,1,10.8,2.9c1.9,1.9,2.9,5.6,2.9,10.9v30.9
			c0,5.4-1,9.1-2.9,11c-1.9,1.9-5.5,2.9-10.8,2.9h-40.5c-5.4,0-9-1-10.9-2.9c-1.9-2-2.9-5.6-2.9-10.9V358.4z M703.6,395h48.5v-42.4
			h-48.5V395z"/>
		<path d="M803.3,352.6v50.6h-9.8v-50.6h-26.8v-8h63.4v8H803.3z"/>
	</g>
	<g>
		<g>
			<path d="M852.8,364.8c-5.6,0-10.1-4.5-10.1-10.1c0-5.6,4.5-10.1,10.1-10.1s10.1,4.5,10.1,10.1
				C862.9,360.3,858.4,364.8,852.8,364.8z M852.8,346.7c-4.4,0-8,3.6-8,8c0,4.4,3.6,8,8,8s8-3.6,8-8
				C860.8,350.3,857.2,346.7,852.8,346.7z"/>
		</g>
		<g>
			<path d="M858,359.1h-2l-3.1-3.9h-1.8v3.9h-1.5V350h4.3c2.1,0.1,3.1,0.9,3.2,2.6c0,1.5-0.8,2.4-2.4,2.6L858,359.1z M851.1,351.4
				v2.6h2.5c1.3,0,2-0.5,1.9-1.4c0-0.8-0.7-1.2-1.9-1.2H851.1z"/>
		</g>
	</g>
</g>
</svg>
