<svg xmlns="http://www.w3.org/2000/svg" role="img" viewBox="19.27 20.02 193.96 69.71"><defs><linearGradient id="b" x1="0" x2="1" y1="0" y2="0" gradientTransform="matrix(0 -33.75537 -33.75537 0 87.08 67.16)" gradientUnits="userSpaceOnUse" spreadMethod="pad"><stop offset="0" stop-color="#3871c1" stop-opacity="1"/><stop offset="1" stop-color="#134785" stop-opacity="1"/></linearGradient><linearGradient id="c" x1="0" x2="1" y1="0" y2="0" gradientTransform="matrix(0 -33.75586 -33.75586 0 134.59 67.16)" gradientUnits="userSpaceOnUse" spreadMethod="pad"><stop offset="0" stop-color="#3871c1" stop-opacity="1"/><stop offset="1" stop-color="#134785" stop-opacity="1"/></linearGradient><linearGradient id="d" x1="0" x2="1" y1="0" y2="0" gradientTransform="matrix(0 -33.75488 -33.75488 0 39.91 67.16)" gradientUnits="userSpaceOnUse" spreadMethod="pad"><stop offset="0" stop-color="#3871c1" stop-opacity="1"/><stop offset="1" stop-color="#134785" stop-opacity="1"/></linearGradient><linearGradient id="e" x1="0" x2="1" y1="0" y2="0" gradientTransform="matrix(0 25.14453 25.14453 0 39.91 42.016)" gradientUnits="userSpaceOnUse" spreadMethod="pad"><stop offset="0" stop-color="#5c93d4" stop-opacity="1"/><stop offset=".115" stop-color="#5c93d4" stop-opacity="1"/><stop offset="1" stop-color="#154783" stop-opacity="1"/></linearGradient><linearGradient id="f" x1="0" x2="1" y1="0" y2="0" gradientTransform="matrix(0 27.23584 27.23584 0 87.08 39.924)" gradientUnits="userSpaceOnUse" spreadMethod="pad"><stop offset="0" stop-color="#5c93d4" stop-opacity="1"/><stop offset=".115" stop-color="#5c93d4" stop-opacity="1"/><stop offset="1" stop-color="#154783" stop-opacity="1"/></linearGradient><linearGradient id="g" x1="0" x2="1" y1="0" y2="0" gradientTransform="matrix(0 14.7041 14.7041 0 134.497 52.457)" gradientUnits="userSpaceOnUse" spreadMethod="pad"><stop offset="0" stop-color="#5c93d4" stop-opacity="1"/><stop offset=".115" stop-color="#5c93d4" stop-opacity="1"/><stop offset="1" stop-color="#154783" stop-opacity="1"/></linearGradient><linearGradient id="h" x1="0" x2="1" y1="0" y2="0" gradientTransform="matrix(0 4.88477 4.88477 0 119.004 41.808)" gradientUnits="userSpaceOnUse" spreadMethod="pad"><stop offset="0" stop-color="#5c93d4" stop-opacity="1"/><stop offset=".115" stop-color="#5c93d4" stop-opacity="1"/><stop offset="1" stop-color="#154783" stop-opacity="1"/></linearGradient><clipPath id="a"><path d="M0 85.04h170.08V0H0z"/></clipPath></defs><g stroke="none" transform="matrix(1.33333 0 0 -1.33333 0 113.387)"><g fill="#24265d" fill-opacity="1" fill-rule="nonzero" clip-path="url(#a)"><path d="M25.483 24.384c0 .5-.039.906-.115 1.217-.077.31-.192.553-.342.726-.151.174-.337.289-.559.347-.22.058-.475.087-.764.087h-4.937v-5.428h4.782c.289 0 .552.025.789.072.238.049.442.153.612.313.17.16.302.396.394.707.093.312.14.727.14 1.246zm-7.659 3.146h5.629c.584 0 1.066-.052 1.448-.159.382-.106.686-.29.914-.553.228-.263.386-.62.477-1.068.088-.449.134-1.016.134-1.703 0-.642-.046-1.184-.134-1.626-.091-.443-.249-.803-.477-1.078-.228-.275-.536-.475-.924-.597s-.877-.182-1.468-.182h-5.599z"/><path d="M27.639 27.53h.943v-6.967h-.943z"/><path d="M38.523 23.056c0-.475-.042-.875-.126-1.203-.083-.326-.218-.592-.403-.793-.187-.203-.429-.349-.727-.439-.299-.089-.666-.134-1.102-.134h-3.887c-.475 0-.871.053-1.189.159-.317.105-.572.267-.764.486-.193.217-.329.488-.409.813-.081.324-.121.707-.121 1.15v1.904c0 .444.04.827.121 1.151.08.324.216.594.409.812.192.219.447.381.764.487.318.105.714.158 1.189.158h3.559c.315 0 .626-.024.934-.072.309-.047.584-.143.828-.284.243-.14.443-.336.596-.582.154-.247.231-.572.231-.976v-.25h-.885c0 .326-.032.583-.096.769-.065.186-.194.325-.39.418-.196.094-.471.151-.827.174-.356.022-.826.033-1.41.033h-2.444c-.225 0-.436-.02-.635-.062-.199-.041-.372-.117-.52-.227-.147-.108-.264-.26-.351-.451-.086-.193-.13-.439-.13-.741v-2.617c0-.302.044-.549.13-.742.087-.192.204-.343.351-.452.148-.109.321-.184.52-.225.199-.043.41-.063.635-.063h3.685c.475 0 .847.094 1.116.283.27.19.405.525.405 1.006v.702h-3.571v.771h4.514z"/><path d="M39.733 27.53h.943v-6.967h-.943z"/><path d="M44.834 26.76h-3.521v.77h7.986v-.77h-3.523v-6.197h-.942z"/><path d="M52.965 26.76l-2.339-3.955h4.677zm-.587.77h1.174l4.138-6.967h-1.069l-.866 1.472h-5.581l-.866-1.472H48.24z"/><path d="M58.276 27.53h.943v-6.197h5.408v-.77h-6.351z"/><path d="M69.13 24.999c0 .443.04.826.12 1.15.08.325.217.595.409.813.193.219.448.381.765.486.317.106.714.158 1.188.158h3.609c.43 0 .784-.045 1.063-.138.279-.094.501-.219.668-.375.167-.158.284-.342.352-.554.067-.212.1-.433.1-.664v-.597h-.827v.318c0 .296-.043.526-.13.692-.087.168-.202.291-.346.371-.144.08-.313.13-.505.149-.193.019-.398.029-.616.029h-3.272c-.224 0-.435-.021-.635-.063-.199-.041-.372-.117-.519-.226-.148-.109-.265-.26-.352-.451-.086-.194-.13-.44-.13-.742v-2.617c0-.302.044-.549.13-.741.087-.192.204-.344.352-.452.147-.109.32-.185.519-.226.2-.043.411-.062.635-.062h3.301c.314 0 .577.018.789.056.212.04.38.105.505.198.125.093.214.217.265.371.051.154.077.349.077.587v.432h.884v-.47c0-.315-.03-.594-.09-.838-.062-.244-.178-.448-.352-.612-.173-.163-.413-.287-.722-.369-.307-.084-.705-.126-1.193-.126h-3.56c-.474 0-.871.054-1.188.159-.317.106-.572.268-.765.487-.192.217-.329.488-.409.812-.08.325-.12.707-.12 1.151z"/><path d="M86.42 25.355c0 .302-.043.548-.13.741-.087.192-.204.343-.351.451-.148.11-.321.186-.52.227-.198.042-.41.062-.635.062h-3.82c-.225 0-.436-.02-.635-.062-.199-.041-.372-.117-.519-.227-.148-.108-.265-.259-.352-.451-.086-.193-.13-.439-.13-.741v-2.617c0-.302.044-.549.13-.741.087-.193.204-.344.352-.453.147-.109.32-.184.519-.225.199-.043.41-.063.635-.063h3.82c.225 0 .437.02.635.063.199.041.372.116.52.225.147.109.264.26.351.453.087.192.13.439.13.741zm-8.034-.356c0 .443.04.826.12 1.15.08.324.217.595.409.812.192.219.447.381.765.487.317.105.714.158 1.188.158h4.013c.468 0 .86-.053 1.179-.158.317-.106.572-.268.764-.487.193-.217.33-.488.414-.812.083-.324.125-.707.125-1.15v-1.905c0-.443-.042-.826-.125-1.15-.084-.324-.221-.596-.414-.813-.192-.218-.447-.38-.764-.486-.319-.105-.711-.159-1.179-.159h-4.013c-.474 0-.871.054-1.188.159-.318.106-.573.268-.765.486-.192.217-.329.489-.409.813-.08.324-.12.707-.12 1.15z"/><path d="M93.954 24.085c.526 0 .906.077 1.141.23.234.155.351.415.351.781v.635c0 .192-.024.354-.072.485-.049.133-.139.238-.27.318-.131.08-.307.138-.529.173-.222.036-.505.054-.851.054h-4.292v-2.676zm-5.465 3.445h5.571c.5 0 .905-.042 1.212-.125.309-.084.544-.207.707-.371.164-.164.274-.369.328-.615.054-.248.082-.534.082-.861v-.569c0-.244-.033-.447-.096-.61-.065-.163-.154-.296-.27-.395-.115-.099-.252-.171-.409-.216-.157-.045-.325-.078-.505-.097v-.019c.238-.045.435-.107.592-.188.157-.08.278-.178.365-.293.087-.115.148-.242.183-.38s.054-.287.054-.447v-1.78h-.886v1.529c0 .269-.032.486-.096.65-.064.163-.156.287-.274.37-.119.083-.265.138-.439.163-.173.027-.365.039-.577.039h-4.599v-2.751h-.943z"/><path d="M97.564 27.53h6.841v-.77h-5.898v-2.222h5.667v-.771h-5.667v-2.434h5.937v-.77h-6.88z"/><path d="M117.154 24.384c0 .5-.039.906-.115 1.217-.077.31-.192.553-.342.726-.151.174-.337.289-.559.347-.22.058-.475.087-.764.087h-4.937v-5.428h4.782c.289 0 .552.025.789.072.238.049.442.153.612.313.17.16.302.396.394.707.093.312.14.727.14 1.246zm-7.659 3.146h5.629c.584 0 1.066-.052 1.448-.159.382-.106.686-.29.914-.553.228-.263.386-.62.477-1.068.088-.449.134-1.016.134-1.703 0-.642-.046-1.184-.134-1.626-.091-.443-.249-.803-.477-1.078-.228-.275-.536-.475-.924-.597s-.877-.182-1.468-.182h-5.599z"/><path d="M119.28 27.53h6.841v-.77h-5.898v-2.222h5.667v-.771h-5.667v-2.434h5.937v-.77h-6.88z"/><path d="M126.94 22.757h.885v-.49c0-.174.025-.323.077-.448.051-.125.136-.229.255-.312.118-.084.275-.146.471-.188.196-.042.441-.062.737-.062h2.925c.339 0 .624.02.851.062.228.042.409.111.544.208.135.095.231.226.288.394.058.166.087.375.087.625 0 .218-.024.398-.072.539-.048.141-.13.253-.245.336-.116.084-.272.142-.467.174-.196.031-.441.048-.736.048h-1.79c-.718 0-1.322.018-1.809.057-.487.039-.881.125-1.179.26-.298.135-.511.337-.639.607-.129.269-.193.634-.193 1.096 0 .399.059.722.178.973.118.25.298.447.539.592.24.143.54.243.899.298.36.053.783.081 1.271.081h2.03c.583 0 1.065-.037 1.444-.111.378-.073.676-.187.894-.341.218-.154.37-.347.457-.578.087-.23.13-.5.13-.808v-.241h-.885c-.007.276-.029.5-.067.669-.039.17-.144.304-.314.4-.17.096-.429.16-.779.192-.349.032-.832.048-1.448.048h-1c-.456 0-.841-.012-1.155-.033-.315-.024-.568-.076-.76-.159-.193-.083-.332-.206-.419-.37-.086-.164-.13-.39-.13-.679 0-.205.021-.378.063-.52.041-.141.125-.255.25-.34.125-.088.301-.151.529-.189.227-.038.524-.058.89-.058h2.79c.917 0 1.582-.137 1.993-.414.41-.275.615-.709.615-1.298v-.453c0-.429-.08-.766-.24-1.01-.161-.244-.372-.426-.635-.548-.264-.122-.564-.199-.901-.232-.335-.031-.677-.048-1.024-.048h-2.617c-.347 0-.675.021-.986.063-.312.042-.585.126-.823.251-.237.125-.426.303-.568.533-.141.231-.211.535-.211.914z"/><path d="M136.157 27.53h.943v-6.967h-.943z"/><path d="M147.041 23.056c0-.475-.042-.875-.126-1.203-.083-.326-.218-.592-.403-.793-.187-.203-.429-.349-.727-.439-.299-.089-.666-.134-1.102-.134h-3.887c-.475 0-.871.053-1.189.159-.317.105-.572.267-.764.486-.193.217-.329.488-.409.813-.081.324-.121.707-.121 1.15v1.904c0 .444.04.827.121 1.151.08.324.216.594.409.812.192.219.447.381.764.487.318.105.714.158 1.189.158h3.559c.315 0 .626-.024.934-.072.309-.047.584-.143.828-.284.243-.14.443-.336.596-.582.154-.247.231-.572.231-.976v-.25h-.885c0 .326-.032.583-.096.769-.065.186-.194.325-.39.418-.196.094-.471.151-.827.174-.356.022-.826.033-1.41.033h-2.444c-.225 0-.436-.02-.635-.062-.199-.041-.372-.117-.52-.227-.147-.108-.264-.26-.351-.451-.086-.193-.13-.439-.13-.741v-2.617c0-.302.044-.549.13-.742.087-.192.204-.343.351-.452.148-.109.321-.184.52-.225.199-.043.41-.063.635-.063h3.685c.475 0 .847.094 1.116.283.27.19.405.525.405 1.006v.702h-3.571v.771h4.514z"/><path d="M148.166 27.53h1.404l6.38-6.12v6.12h.944v-6.967h-1.406l-6.38 6.119v-6.119h-.942z"/></g><path fill="url(#b)" d="M78.454 67.16c-2.578 0-4.762-.216-6.55-.652-1.787-.434-3.232-1.127-4.336-2.074-1.102-.949-1.895-2.168-2.377-3.661-.482-1.492-.723-3.279-.723-5.362V45.154c0-2.083.241-3.87.723-5.361.482-1.494 1.275-2.712 2.377-3.66 1.104-.949 2.549-1.64 4.336-2.074 1.788-.437 3.972-.654 6.55-.654h31.237v11.059h-.003c-.017 1.21-1.009 2.202-2.215 2.216l-.001.012h-8.131c-3.074 0-3.321-2.984-6.519-2.984h-11.85c-1.119 0-2.065.093-2.844.28-.776.186-1.407.504-1.889.955-.481.45-.838 1.064-1.072 1.841-.232.777-.348 1.773-.348 2.984v1.03c0 1.212.116 2.207.348 2.983.234.778.591 1.392 1.072 1.842.482.452 1.113.768 1.889.956.779.186 1.725.28 2.844.28h11.85c3.198 0 3.445-2.986 6.519-2.986h8.131l.001.013c1.206.014 2.198 1.007 2.215 2.216h.003V67.16z"/><path fill="url(#c)" d="M111.977 67.16V56.102h.005c.017-1.209 1.009-2.202 2.216-2.216v-.013h8.131c3.074 0 3.319 2.986 6.519 2.986h11.85c1.119 0 2.065-.094 2.844-.28.777-.188 1.406-.504 1.889-.956.48-.45.838-1.064 1.072-1.842.232-.776.348-1.771.348-2.983v-1.03c0-1.211-.116-2.207-.348-2.984-.234-.777-.592-1.391-1.072-1.841-.483-.451-1.112-.768-1.889-.955-.779-.187-1.725-.28-2.844-.28h-11.85c-3.2 0-3.445 2.984-6.519 2.984h-8.131v-.012c-1.207-.014-2.199-1.006-2.216-2.216h-.005V33.405h31.239c2.578 0 4.761.217 6.55.654 1.787.434 3.232 1.125 4.336 2.074 1.102.948 1.895 2.167 2.377 3.66.482 1.492.723 3.278.723 5.361v10.258c0 2.082-.241 3.869-.723 5.361-.482 1.493-1.275 2.712-2.377 3.661-1.104.947-2.549 1.64-4.336 2.074-1.789.437-3.972.653-6.55.653z"/><path fill="url(#d)" d="M17.298 67.16V56.102h.005c.017-1.209 1.008-2.202 2.214-2.216l.001-.013h8.132c3.073 0 3.319 2.986 6.519 2.986h11.85c1.118 0 2.066-.094 2.843-.28.777-.188 1.406-.504 1.889-.956.481-.45.838-1.064 1.072-1.842.234-.776.35-1.771.35-2.983v-1.03c0-1.211-.116-2.207-.35-2.984-.234-.777-.591-1.391-1.072-1.841-.483-.451-1.112-.769-1.889-.955-.777-.187-1.725-.281-2.843-.281h-11.85c-3.2 0-3.446 2.985-6.519 2.985h-8.132l-.001-.012c-1.206-.014-2.197-1.006-2.214-2.216h-.005V33.405h31.238c2.579 0 4.762.217 6.551.654 1.786.434 3.231 1.125 4.336 2.074 1.101.948 1.894 2.166 2.376 3.66.483 1.491.724 3.278.724 5.361v10.257c0 2.083-.241 3.87-.724 5.362-.482 1.493-1.275 2.712-2.376 3.661-1.105.947-2.55 1.64-4.336 2.074-1.789.436-3.972.652-6.551.652z"/><path fill="url(#e)" d="M17.298 67.16v-7.959c2.695-1.891 5.612-3.671 8.724-5.328h1.628c3.073 0 3.319 2.986 6.519 2.986h11.85c1.118 0 2.066-.094 2.843-.28.777-.188 1.406-.504 1.889-.956.481-.45.838-1.064 1.072-1.842.234-.776.35-1.771.35-2.983v-1.03c0-1.211-.116-2.207-.35-2.984-.234-.777-.591-1.391-1.072-1.841-.142-.133-.301-.251-.469-.36 3.871-1.013 7.888-1.872 12.024-2.567.142.959.217 2.004.217 3.138v10.257c0 2.083-.241 3.87-.724 5.362-.482 1.493-1.275 2.712-2.376 3.661-1.105.947-2.55 1.64-4.336 2.074-1.789.436-3.972.652-6.551.652z"/><path fill="url(#f)" d="M78.454 67.16c-2.578 0-4.762-.216-6.55-.652-1.787-.434-3.232-1.127-4.336-2.074-1.102-.949-1.895-2.168-2.377-3.661-.482-1.492-.723-3.279-.723-5.362V45.154c0-1.29.093-2.465.277-3.529 7.36-1.111 15.078-1.701 23.035-1.701 7.554 0 14.892.536 21.911 1.539v3.001h-.003c-.017 1.21-1.009 2.202-2.215 2.216l-.001.012h-8.131c-3.074 0-3.321-2.984-6.519-2.984h-11.85c-1.119 0-2.065.093-2.844.28-.776.186-1.407.504-1.889.955-.481.45-.838 1.064-1.072 1.841-.232.777-.348 1.773-.348 2.984v1.03c0 1.212.116 2.207.348 2.983.234.778.591 1.392 1.072 1.842.482.452 1.113.768 1.889.956.779.186 1.725.28 2.844.28h11.85c3.198 0 3.445-2.986 6.519-2.986h8.131l.001.013c1.206.014 2.198 1.007 2.215 2.216h.003V67.16z"/><path fill="url(#g)" d="M111.977 67.16V56.102h.005c.017-1.209 1.009-2.202 2.216-2.216v-.013h8.131c3.074 0 3.319 2.986 6.519 2.986h11.85c1.119 0 2.065-.094 2.844-.28.777-.188 1.406-.504 1.889-.956.48-.45.838-1.064 1.072-1.842.115-.387.202-.828.261-1.324 3.676 1.806 7.106 3.773 10.253 5.89-.121.879-.299 1.689-.538 2.426-.482 1.493-1.275 2.712-2.377 3.661-1.104.947-2.549 1.64-4.336 2.074-1.789.437-3.972.653-6.55.653z"/><path fill="url(#h)" d="M114.198 46.692v-.012c-1.207-.014-2.199-1.006-2.216-2.216h-.005v-2.656c4.858.772 9.554 1.771 14.053 2.976-1.043.856-1.873 1.908-3.701 1.908z"/></g></svg>