<svg xmlns="http://www.w3.org/2000/svg" role="img" viewBox="-7.99 -8.25 415.74 120.74"><g fill-rule="evenodd" stroke="none"><path fill="#9d2f7c" d="M57.895.259c-3.345.503-8.248 1.796-10.978 2.897-1.93.777-4.934 2.009-6.042 2.478-1.134.479-1.292.783-.708 1.366.183.183.333.476.333.651 0 .175.228.826.507 1.448.279.621.53 1.33.559 1.574.108.936-.024.95 3.851-.421 9.084-3.216 12.535-4.017 17.717-4.118 2.765-.053 3.057-.158 2.265-.816-.128-.106-.232-.32-.232-.476 0-.157-.298-.971-.662-1.81-.558-1.286-.737-1.918-.826-2.914-.018-.197-4.222-.094-5.784.141m34.438 8.658c-.021.091-.023.306-.005.476.019.185-.04.265-.148.199-.351-.218-.174.531.487 2.054.366.846.666 1.639.666 1.764s.263.84.584 1.59c.32.75.583 1.472.583 1.605 0 .358.628 1.523.904 1.678.44.246 1.109 1.917.88 2.199-.147.183-.149.217-.004.131.118-.071.241.024.31.24.089.281.145.308.259.127.104-.164.147-.099.148.228.002.252.082.459.18.459.097 0 .123-.094.057-.209-.065-.114.033-.058.219.125.185.184.311.364.278.401-.032.036.056.151.198.254.141.103.275.314.297.469.023.154.211.427.419.607.207.18.383.389.39.465.007.076.19.417.406.759.216.342.392.661.392.709 0 .047.132.225.292.394.273.287.891 1.319.841 1.404-.013.021.173.348.412.726.238.379.55.941.691 1.25.142.309.326.675.411.812.242.395.702 1.569.679 1.732-.011.081.044.194.124.25.173.122 1.121 2.488 1.149 2.871.011.148.073.354.137.457.064.104.147.321.185.481.038.161.265.93.504 1.709.24.779.46 1.605.488 1.834.159 1.258.299 2.098.368 2.214.044.071.11.371.148.666.038.295.113.724.167.953.126.533.236 1.891.29 3.583.031.949.149 1.568.412 2.147.203.447.37 1.122.372 1.5.002.773.568 2.696 1.226 4.166.241.538.438 1.075.438 1.193 0 .118.272.84.604 1.605.333.764.662 1.614.733 1.889.103.402.132.427.146.125.023-.514.319-.472.454.065l.11.44.203-.482c.112-.264.17-.541.129-.613-.041-.073.007-.231.107-.352.167-.201.71-2.873.94-4.624.173-1.316.217-9.199.059-10.559-.086-.733-.35-2.346-.587-3.583-.238-1.238-.469-2.475-.515-2.75-.553-3.351-3.837-10.951-6.294-14.568-.462-.679-.989-1.475-1.173-1.769-.784-1.256-3.861-4.873-5.325-6.26-2.629-2.49-3.182-2.984-3.342-2.985-.093-.001-.402-.256-.687-.567-.285-.31-.679-.615-.874-.677-.195-.062-.355-.196-.355-.296 0-.101-.047-.137-.104-.08-.057.058-.25-.061-.429-.263-.179-.203-.278-.275-.22-.16.058.115.032.208-.058.208-.091 0-.199-.131-.241-.291-.042-.161-.093-.217-.115-.125m-13.78 9.564c-.05.194-.196.352-.322.352-.288 0-.284.138.019.667.131.229.241.586.244.794.003.207.078.507.167.667.088.159.316.664.506 1.122.189.459.417.964.506 1.123.088.159.16.429.16.599 0 .461.511 1.403.949 1.749.212.167.385.405.385.529 0 .123.185.445.412.714.226.27.358.55.291.623-.066.074-.026.079.088.014.115-.066.209-.041.209.056s.108.177.24.177c.133 0 .374.225.536.5.163.275.392.5.51.5.117 0 .195.063.172.14-.023.077.423.658.991 1.292.568.633 1.139 1.272 1.269 1.42 1.144 1.304 3.782 6.052 3.782 6.808 0 .176.063.359.141.407.188.117.982 2.513 1.102 3.327.052.355.125.695.163.756.038.061.119.559.179 1.106.061.546.17 1.269.242 1.606.119.553.121 5.318.002 5.721-.027.092.013.309.088.482.096.221.053.377-.14.519-.355.259-.349.371.066 1.231.227.47.309.871.241 1.181-.095.433.272 2.067.6 2.668.31.569.792 1.808 1.039 2.669.255.892.761 1.793.771 1.375.009-.346.339-.234.339.115 0 .178.083.375.185.438.125.077.146-.006.065-.261-.066-.207-.053-.335.028-.284.081.05.275-.132.432-.404.156-.272.217-.453.135-.403-.082.051-.012-.191.156-.538 2.144-4.438 2.901-12.148 1.747-17.781-.132-.646-.287-1.474-.344-1.84-.057-.367-.326-1.305-.598-2.084-.271-.779-.552-1.641-.623-1.916-.224-.865-2.12-4.602-3.13-6.172-.856-1.33-1.283-1.906-2.636-3.559-1.071-1.308-4.395-4.44-5.01-4.721-.224-.102-.407-.238-.407-.303 0-.134-2.55-1.772-3.626-2.329-.39-.202-.751-.436-.803-.52-.052-.083-.164-.108-.25-.055s-.386-.067-.666-.266l-.51-.363-.092.352m-29.52.052c-.11.11-.2.144-.2.074 0-.069-.206-.015-.458.121s-.908.413-1.458.615c-1.241.457-1.434.535-2.63 1.064-.53.235-1.044.426-1.142.426-.098 0-.784.263-1.524.584-.741.321-1.419.583-1.507.583-.089 0-.77.251-1.513.557-3.944 1.626-4.72 1.933-7.351 2.912-.733.272-1.774.691-2.312.93-.539.239-1.053.434-1.142.434-.089 0-.399.104-.687.231-.289.127-.863.378-1.276.559-.412.181-.953.378-1.201.438-.248.06-.661.304-.917.543l-.465.434.375.251c.206.139.375.336.376.44.001.103.112.4.247.66.243.464.606 1.621.664 2.111.096.817.356 1.146.68.859.087-.077.608-.271 1.158-.43.55-.16 1.488-.479 2.083-.71.596-.231 1.496-.556 2-.723.504-.167 1.779-.614 2.834-.992 1.054-.379 2.741-.981 3.75-1.338 1.008-.357 2.695-.96 3.75-1.34 1.054-.38 2.329-.828 2.833-.996.504-.167 1.471-.535 2.148-.817.677-.282 1.326-.513 1.441-.513.115 0 .761-.231 1.435-.512.674-.282 1.474-.587 1.777-.677.726-.217.8-.481.329-1.175-.214-.315-.49-.906-.612-1.313-.123-.407-.402-1.177-.622-1.712-.219-.535-.356-1.041-.303-1.126.052-.085-.022-.199-.165-.254-.143-.054-.218-.166-.167-.248.131-.213.008-.185-.228.05m21.961 13.028c.276.276.2.485-.144.395-.302-.079-.304-.054-.06.522.142.333.314.83.383 1.105s.353 1.063.631 1.75c.278.688.626 1.598.774 2.023.148.425.523 1.1.834 1.5.536.689 1.345 2.311 1.154 2.311-.05 0 .025.114.165.254.14.141.213.365.161.499-.053.139.027.29.187.351.294.113.617.747.669 1.312.017.184.189.69.382 1.125.201.452.275.792.174.792-.113 0-.102.092.029.25.114.137.142.251.062.253-.08.001-.07.057.022.125.328.241.795 1.811.903 3.039.075.854.28 1.638.645 2.475.294.675.535 1.311.535 1.415 0 .505 1.238 3.072 1.444 2.993.126-.049.288.084.378.308.086.215.162.294.167.174.006-.12.088-.171.182-.113.094.058.153.044.131-.032-.022-.075.195-.625.48-1.22 1.325-2.761 1.751-7.024 1.058-10.592-.352-1.817-.393-1.957-.888-3.075-.183-.413-.463-1.054-.622-1.425-.9-2.096-3.822-5.488-5.831-6.768-1.013-.645-2.559-1.525-2.624-1.494-.023.011-.06.015-.083.008-.023-.007-.184-.04-.359-.073-.174-.032-.361-.128-.416-.212-.055-.084-.234-.151-.398-.15-.204.002-.243.057-.125.175m-17.827 1.606c0 .091-.174.166-.386.166-.212 0-.774.188-1.249.417-.475.229-.945.417-1.044.417-.099 0-.831.269-1.626.598-.795.328-2.195.899-3.112 1.268-.917.369-2.267.926-3 1.237-.733.311-1.42.565-1.526.565-.106-.001-.706.231-1.333.515-.628.284-1.49.623-1.916.752-.426.129-.934.365-1.128.525l-.352.29.834 1.864c.459 1.026.794 1.973.743 2.104-.224.586.366.774 1.3.413.483-.187 1.215-.438 1.628-.558.412-.12 1.837-.607 3.167-1.082 3.697-1.321 5.94-2.11 7.538-2.652.8-.272 1.678-.609 1.949-.75.272-.14.668-.287.879-.327.211-.039.421-.085.467-.103.046-.018.152-.019.237-.003.132.025-.142-.412-.412-.656-.163-.147-.629-1.234-.751-1.75-.065-.275-.273-.838-.463-1.25-.189-.413-.348-1.069-.353-1.459-.004-.389-.027-.708-.05-.708-.023 0-.041.075-.041.167m9.916 28.603c-.366.132-1.004.36-1.416.505-.413.145-.969.375-1.236.512s-.867.387-1.333.555c-.466.168-1.861.728-3.098 1.245-1.238.516-2.702 1.11-3.254 1.32-.553.21-1.319.542-1.702.737-.384.196-.801.356-.927.356-.31 0-2.95 1.334-2.95 1.491 0 .069.152.3.338.514.185.214.379.582.43.817.051.236.242.792.424 1.236.182.444.291.848.242.897-.049.049-.014.229.077.4.12.224.111.312-.033.312-.11 0-.16.041-.11.09.05.05 1.431-.365 3.07-.923 1.638-.558 3.316-1.118 3.728-1.245.413-.127 1.95-.653 3.417-1.171 1.467-.517 3.473-1.204 4.458-1.527 2.129-.698 2.636-1.023 2.229-1.43-.149-.149-.27-.382-.27-.518s-.275-.872-.61-1.637c-.335-.764-.654-1.702-.708-2.083l-.099-.694-.667.241m7.177 13.213c-.052.084-.525.285-1.052.447-.527.162-1.533.544-2.235.849-.702.305-1.363.554-1.468.554-.104 0-.805.254-1.556.565-1.598.661-3.296 1.331-4.699 1.856-1.394.521-3.099 1.188-4.667 1.826-2.464 1.003-3.661 1.471-4.5 1.76-.458.158-1.274.484-1.812.724-.539.24-1.044.436-1.124.436-1.066 0-2.859 1.408-2.272 1.783.292.187.625.82.625 1.189 0 .279.269.971.667 1.717.08.15.104.43.053.623-.09.344.571.803.78.542.074-.093 1.76-.696 6.167-2.206.779-.267 1.866-.663 2.416-.879.55-.216 1.488-.563 2.084-.77.595-.207 1.908-.675 2.916-1.039 1.009-.365 2.321-.836 2.917-1.046.596-.21 1.946-.697 3-1.082 1.054-.385 2.554-.917 3.333-1.183.779-.265 1.547-.557 1.706-.649.16-.092.403-.167.542-.167s.252-.075.252-.166c0-.092.132-.168.292-.17.174-.001.22-.051.114-.125-.287-.198-1.906-4.321-1.906-4.854 0-.292-.458-.72-.573-.535m22.204 4.683c-2.343 2.138-5.81 4.514-8.547 5.856-.275.135-.8.401-1.167.592-.672.349-2.04.925-5.25 2.213-.963.386-2.35.958-3.083 1.272-.734.314-1.409.572-1.5.575-.921.023-1.67.994-1.04 1.347.127.071.328.452.447.846.119.394.411 1.197.649 1.785.238.588.427 1.275.42 1.526-.017.558.202.541 2.19-.168.734-.261 2.234-.788 3.334-1.171 1.1-.382 2.487-.885 3.083-1.118.596-.233 1.354-.524 1.686-.647 1.405-.521 5.283-2.606 7.135-3.835.681-.452 1.468-.962 1.75-1.133.282-.171.55-.365.596-.432.045-.067.443-.395.884-.728 1.386-1.051 1.623-1.403 1.226-1.823-.258-.274-.777-1.408-.777-1.697 0-.126-.263-.843-.583-1.593-.321-.749-.584-1.543-.584-1.764 0-.531-.208-.507-.869.097"/><path fill="#f14b26" d="M38.75 6.418c-.661.323-4.444 1.864-5.5 2.242-.458.163-1.241.494-1.74.735-.498.241-.998.438-1.11.438-.113 0-.793.254-1.511.563-2.45 1.056-4.204 1.771-4.338 1.768-.074-.001-.809.288-1.634.644-2.087.899-3.196 1.353-4.167 1.705-4.35 1.579-5.5 2.879-4.211 4.759.832 1.214 1.562 1.195 5.294-.137.504-.18 1.292-.444 1.75-.587.459-.142 1.396-.471 2.084-.731 1.658-.626 4.55-1.619 5.561-1.909.446-.128 1.384-.45 2.083-.716.7-.266 1.722-.633 2.272-.816 1.271-.423 2.765-.946 4.667-1.635.825-.298 1.95-.686 2.5-.86.693-.221.981-.391.938-.558-.035-.132-.088-.432-.118-.667-.031-.235-.284-.936-.563-1.557-.279-.622-.507-1.273-.507-1.448 0-.175-.15-.468-.333-.651-.184-.183-.334-.446-.334-.583 0-.315-.436-.314-1.083.001M23.667 28.451c-.138.051-.625.262-1.084.468-.458.207-1.042.425-1.297.484-.256.058-.952.329-1.546.602-.595.272-1.174.494-1.286.494-.112-.001-.804.255-1.537.568-1.683.719-3.801 1.569-4.667 1.875-.617.217-1.574.596-3.917 1.552-.504.206-1.404.546-2 .755-.596.21-1.533.584-2.083.832-.55.248-1.375.564-1.833.702-.459.139-1.19.514-1.625.832l-.792.58v1.143c0 2.264 1.645 2.756 4.917 1.469.825-.325 1.762-.671 2.083-.771.548-.169 2.446-.845 6.75-2.405 1.008-.365 2.574-.922 3.478-1.237.905-.315 1.858-.683 2.117-.817.26-.134.59-.244.736-.244.145 0 1.03-.291 1.966-.646.937-.356 2.027-.745 2.423-.864.611-.184.704-.269.617-.562-.056-.189-.126-.494-.155-.678-.103-.644-.44-1.727-.684-2.194-.135-.26-.246-.557-.247-.66-.001-.104-.17-.307-.376-.452l-.375-.264.417-.336c.429-.347.429-.383 0-.226m12.764 11.341c-.069.068-.175.13-.237.135-.337.033-1.44.438-2.638.97-.748.331-1.441.603-1.541.603-.099 0-.749.262-1.443.583-.695.321-1.364.584-1.487.584s-.811.253-1.529.563c-.718.31-2.094.879-3.056 1.263-.963.385-2.35.947-3.083 1.249-.734.301-1.553.6-1.821.663-1.491.354-2.22 2.345-1.334 3.648.761 1.12 1.548 1.202 3.787.392 1.947-.704 3.495-1.252 4.451-1.577.412-.14 1.425-.499 2.25-.798.825-.298 1.837-.653 2.25-.788.412-.135 1.8-.622 3.083-1.083 4.693-1.685 4.412-1.561 4.142-1.831-.134-.134-.203-.352-.153-.483.051-.131-.279-1.071-.733-2.089-.454-1.017-.787-1.912-.739-1.989.107-.174-.001-.184-.169-.015m10.402 28.495c-.137.052-.799.346-1.47.654-.671.307-1.299.559-1.394.559-.096 0-.715.253-1.377.563-.661.31-1.346.61-1.522.668-.484.157-1.07 1.181-1.07 1.869 0 1.909 1.829 2.758 4.002 1.858.984-.407 3.722-1.328 4.205-1.414.265-.047.411-.155.347-.258-.068-.11-.004-.136.169-.069.253.097.256.072.027-.277-.138-.211-.208-.426-.156-.479.053-.052-.053-.459-.235-.903s-.373-1-.424-1.236c-.051-.235-.245-.603-.43-.817-.391-.451-.42-.611-.13-.728.296-.119-.223-.11-.542.01m-2.664 16.96c-.228.123-.469.19-.536.149-.066-.041-.704.18-1.418.492-.714.311-1.598.662-1.965.78-.367.117-1.042.381-1.5.586-.458.205-1.208.504-1.667.665-.458.16-1.229.469-1.713.686-.484.217-.958.395-1.054.395-.096 0-.788.254-1.537.564-.749.31-2.075.841-2.946 1.179-.871.338-1.958.766-2.416.95-.459.184-1.396.543-2.084.797-.687.254-1.683.66-2.213.903-.53.242-1.064.44-1.187.44-.124 0-.778.251-1.454.558-.676.306-1.438.608-1.693.671-3.243.796-4.618 2.789-3.11 4.507.877.998 2.212.886 5.565-.467.82-.331 1.568-.602 1.663-.602.095 0 .849-.253 1.676-.563.827-.309 1.766-.655 2.087-.768.774-.274 3.805-1.367 6.083-2.195 1.008-.366 2.546-.92 3.417-1.232.87-.311 2.408-.862 3.416-1.224 1.009-.361 2.209-.788 2.667-.948.458-.16 1.583-.579 2.5-.931.917-.352 1.779-.645 1.917-.65.137-.006.072-.081-.144-.168-.293-.117-.371-.248-.303-.509.051-.193.027-.473-.053-.623-.398-.746-.667-1.438-.667-1.717 0-.34-.307-.953-.611-1.219-.107-.093-.219-.296-.25-.45-.049-.246-.106-.253-.47-.056m262.248-.159c-.092.033-.479.141-.86.239-3.198.821-4.694 5.746-2.657 8.747 3.116 4.593 10.433 2.286 10.433-3.289 0-3.709-3.802-6.841-6.916-5.697m-165.139.19c-.061.061-.111 2.536-.111 5.5v5.389l3.041-.013c1.903-.008 3.229-.086 3.542-.208 5.304-2.076 4.53-9.905-1.05-10.624-1.325-.171-5.263-.203-5.422-.044m14.692.347c-.104.252-.44 1.005-.746 1.673-.307.668-.557 1.286-.557 1.372 0 .087-.254.703-.564 1.369-.5 1.072-.873 1.903-2.25 5.007-.49 1.106-.481 1.121.703 1.121h1.055l.567-1.25.566-1.25H159.589l.567 1.25.566 1.25h2.283l-.481-.959c-.264-.527-.538-1.145-.609-1.375-.071-.229-.381-.935-.688-1.569-.308-.634-.561-1.234-.561-1.333-.001-.1-.263-.692-.583-1.316-.321-.624-.583-1.214-.583-1.31 0-.096-.22-.635-.488-1.198-.269-.563-.567-1.23-.663-1.482-.163-.43-.236-.458-1.182-.458-.942 0-1.02.029-1.197.458m5.863.458V87h3.5v9.167h2V87h3.5V85.167h-9v.916m12.564-.625c-.051.161-.386.912-.745 1.67-.358.758-.652 1.454-.652 1.546 0 .093-.215.598-.478 1.122-.263.525-.536 1.142-.607 1.371-.07.229-.38.957-.688 1.617-.308.66-.56 1.261-.56 1.336 0 .074-.14.396-.31.716-.691 1.293-.676 1.331.523 1.331h1.068l.568-1.245.567-1.244 2.425-.006 2.425-.005.575 1.245.575 1.245 1.122.005 1.121.005-.195-.459c-.108-.252-.257-.541-.331-.643-.074-.101-.286-.622-.47-1.158-.184-.535-.434-1.127-.557-1.315-.122-.188-.386-.783-.586-1.321-.201-.539-.587-1.401-.859-1.917-.272-.515-.494-1.024-.494-1.13-.001-.105-.31-.837-.688-1.625l-.688-1.432h-.984c-.791 0-1.003.057-1.077.291m15.936 5.189v5.52h2V91.868l2.042-.067c3.344-.11 4.458-.952 4.458-3.368 0-1.204-.151-1.632-.79-2.231-.983-.921-1.057-.938-4.487-1.009l-3.223-.066v5.52m10 .02v5.5h8V94.5H202.5v-9.333h-2.167v5.5m12.506-4.402c-.278.613-.506 1.145-.506 1.182 0 .038-.262.629-.583 1.314-.321.686-.583 1.3-.583 1.365 0 .118-.846 2.014-1.933 4.335-.788 1.683-.782 1.706.505 1.706.968 0 1.083-.037 1.183-.375.061-.207.294-.771.518-1.255l.407-.879 2.519.046 2.52.046.366 1.019c.202.56.419 1.103.484 1.208.096.155 2.264.297 2.264.148 0-.167-.767-1.999-1.171-2.801-.273-.54-.496-1.06-.496-1.157 0-.097-.262-.707-.583-1.357-.321-.649-.583-1.237-.583-1.308 0-.07-.202-.568-.449-1.106-.246-.539-.642-1.467-.878-2.063l-.431-1.083-1.033-.049-1.032-.05-.505 1.114m8.494 4.402v5.5h2V88.94l.614.717c.337.394.768.928.958 1.188.692.946 2.359 3.06 2.887 3.662.298.339.541.688.541.776 0 .455.793.884 1.636.884h.864v-11H229l-.005 3.791-.006 3.792-.369-.444c-.204-.245-.782-.99-1.287-1.656-.504-.666-1.048-1.347-1.208-1.514-.16-.166-.292-.361-.292-.432 0-.071-.206-.356-.458-.633-.252-.276-.87-1.043-1.373-1.703l-.915-1.201h-1.754v5.5m11.834 0v5.5h8.333V94.5h-6.333v-3.167h5V89.5h-5V87h6V85.167h-8v5.5m17.5-.024v5.524l3.041-.002c5.048-.003 7.011-1.517 7.02-5.415.008-3.886-1.911-5.407-6.998-5.547l-3.063-.084v5.524m12 .024v5.5H271V94.5h-6.333v-3.167h5V89.5h-5V87h6V85.167h-8v5.5m8.833-5.391c0 .059.225.585.5 1.167.275.582.5 1.135.5 1.228 0 .094.262.692.583 1.329.321.637.584 1.243.584 1.346 0 .103.3.81.666 1.571.367.761.666 1.447.666 1.525-.001.078.28.762.625 1.521l.626 1.379.993-.046.993-.046.273-.75c.15-.413.51-1.245.799-1.849.289-.605.525-1.189.525-1.297 0-.108.216-.626.479-1.15.263-.525.534-1.141.603-1.371.069-.229.379-.962.689-1.628.309-.667.563-1.272.563-1.344 0-.072.15-.442.333-.822.443-.917.481-.872-.752-.872h-1.086l-.414.937c-.228.516-.415 1.005-.415 1.088 0 .083-.262.682-.583 1.331-.321.649-.584 1.266-.585 1.37-.001.105-.3.828-.665 1.607-.365.779-.67 1.567-.678 1.75-.011.241-.041.264-.108.083-.052-.137-.346-.764-.654-1.393-.308-.629-.56-1.235-.56-1.347 0-.113-.263-.744-.583-1.403-.321-.659-.584-1.272-.584-1.36 0-.089-.26-.725-.577-1.413l-.578-1.25h-1.089c-.599 0-1.089.049-1.089.109m12.667 5.391v5.5h8.166V94.5H286v-3.167h5V89.5h-5V87h6V85.167h-7.833v5.5m9.833 0v5.5h7.833V94.5h-6v-9.333H294v5.5m21.333 0v5.5h1.834v-4.334h1.803c3.426 0 4.863-1.007 4.863-3.408 0-2.57-1.2-3.223-5.958-3.246l-2.542-.012v5.5m10 0v5.5h1.994l.045-3.848.045-3.847.583.792c.321.436.658.914.75 1.062 1.224 1.984 2.139 2.314 3.145 1.132.332-.389.604-.774.604-.854.001-.081.245-.431.543-.778.298-.346.669-.806.826-1.02.271-.371.284-.208.291 3.486l.008 3.875h2v-11h-1.088c-.973 0-1.103.039-1.234.375-.08.206-.303.54-.494.741-.192.202-.48.582-.641.845-.294.478-1.234 1.8-1.717 2.413-.248.315-.274.302-.745-.399-.269-.399-.678-.964-.91-1.256-.232-.292-.759-1.02-1.171-1.618l-.75-1.087-1.042-.007-1.042-.007v5.5m13.167 0v5.5h8.167V94.5h-6.334v-3.167h5V89.5h-5V87h6V85.167H338.5v5.5m9.667-.009v5.509H350.16l.045-3.689.045-3.688 1.393 1.855c.766 1.02 1.443 1.855 1.504 1.855.061 0 .252.263.425.583.172.321.358.584.413.584.054 0 .511.561 1.015 1.246l.917 1.245.958.004.958.005v-11H355.84l-.045 3.707-.045 3.708-.898-1.208c-.494-.664-.946-1.207-1.006-1.207-.059 0-.235-.217-.391-.481-.156-.264-.469-.695-.694-.958-.226-.263-.922-1.153-1.547-1.978l-1.136-1.5-.956-.05-.955-.05v5.508m11.166-4.575V87h3.5v9.167h2V87h3.5V85.167h-9v.916m17.5 4.584v5.5h2v-4.819l1.459 1.463c.802.805 1.85 1.889 2.328 2.409l.871.947h2.91l-2.242-2.287c-1.233-1.258-2.317-2.364-2.409-2.458-.092-.095-.376-.404-.632-.688l-.465-.517 2.423-2.429c2.839-2.845 2.736-2.623 1.216-2.615l-1.209.007L381 87.188l-2.083 2.007-.047-2.014-.047-2.014h-1.99v5.5m10.5 0v5.5h2v-11h-2v5.5m3.5-4.584V87h3.667v9.167H396.333V87H400V85.167h-9.167v.916m-82.127.949c.994.297 2.037 1.403 2.395 2.538.955 3.029-1.962 5.954-4.743 4.758-4.257-1.831-2.072-8.621 2.348-7.296m-161.283.558c3.808 1.966 1.755 6.889-2.881 6.906l-1.209.004v-7.54l1.567.069c1.331.058 1.712.143 2.523.561m48.486-.354c2.176.909.847 2.764-1.981 2.764h-1.595v-3h1.506c.921 0 1.724.092 2.07.236m60.766.233c4.079 1.883 2.118 7.031-2.678 7.031h-1.164v-7.54l1.542.08c1.08.056 1.769.184 2.3.429m64.247-.206c.728.346.992 1.054.676 1.812-.303.725-.926.925-2.873.925h-1.558v-3h1.599c1.114 0 1.769.08 2.156.263M158.438 90.75c.103.275.242.631.309.792.112.266-.024.291-1.58.291s-1.692-.025-1.584-.291c.065-.161.179-.479.252-.709.074-.229.366-.886.65-1.461.283-.574.52-1.174.525-1.333.01-.277 1.038 1.675 1.428 2.711m56.299-1.909c.166.462.518 1.264.782 1.78.648 1.266.704 1.212-1.261 1.212h-1.741l.491-.99c.271-.545.492-1.068.492-1.163 0-.243.713-1.68.834-1.68.055 0 .236.378.403.841m-38.664.284c.393.792 1.094 2.499 1.094 2.664 0 .025-.75.044-1.667.044s-1.667-.018-1.667-.041c.001-.283 1.543-3.625 1.673-3.625.05 0 .305.431.567.958m-104.74 1.698c0 .098-.145.177-.323.177-.178 0-.364.065-.413.145-.05.08-.33.193-.623.252-.292.058-1.007.331-1.587.605-.58.274-1.138.498-1.24.498-.103 0-.834.289-1.625.643-.791.353-1.649.693-1.905.755-.257.062-.926.335-1.488.607-.562.272-1.119.495-1.239.495-.12 0-.655.212-1.19.471-.534.259-1.366.6-1.849.757-.483.158-1.335.509-1.894.78-.559.27-1.112.492-1.229.492-.117 0-.685.221-1.262.492s-1.462.64-1.966.821c-.91.326-2.47.944-3.75 1.487-1.867.791-2.349 2.17-1.313 3.753l.416.637 1.449-.065c1.114-.049 1.755-.184 2.781-.581.734-.285 1.671-.626 2.084-.759.948-.305 2.982-1.01 4.916-1.704.825-.296 1.838-.65 2.25-.788.921-.306 2.37-.808 4.667-1.618 2.876-1.014 3.865-1.358 4.917-1.712 1.87-.629 3.333-1.206 3.389-1.336.031-.071.143-.077.25-.013.116.07.107.009-.024-.153-.121-.148-.196-.37-.168-.494.029-.123-.143-.71-.382-1.304-.238-.594-.529-1.38-.646-1.746-.117-.367-.354-.803-.528-.969-.173-.165-.275-.367-.226-.446.05-.08.014-.193-.079-.25-.093-.058-.17-.026-.17.071"/><path fill="#7c2c91" d="M63.761.744c.051.432.388 1.467.749 2.299.361.833.657 1.647.657 1.809 0 .162.079.344.177.404.097.061.241.279.319.485.134.351.268.382 2.115.477 6.026.312 14.622 3.239 19.639 6.689.275.189.623.419.775.51C90.009 14.516 96 19.838 96 20.355c0 .06.107.15.237.2.489.188-.309-1.96-.843-2.272-.27-.158-.894-1.329-.894-1.678 0-.133-.263-.855-.583-1.605-.321-.75-.584-1.465-.584-1.59s-.3-.918-.666-1.764c-.672-1.548-.84-2.272-.474-2.046.132.081.163.006.099-.24-.052-.198-.026-.402.057-.453.083-.051.151.032.151.184 0 .176.09.244.246.184.135-.052.32.033.411.19.091.157.168.2.171.097.003-.103-.107-.281-.245-.395-.137-.114-.25-.147-.25-.072 0 .074-.106-.01-.236-.188s-.292-.267-.36-.199-.225-.021-.349-.198c-.124-.177-.693-.601-1.265-.942-.572-.342-1.152-.713-1.29-.825-2.022-1.655-9.978-4.786-14.75-5.804C71.019.178 70.63.131 67.126.044l-3.457-.085.092.785m.447 5.375c.252.039.665.039.917 0 .252-.038.046-.069-.458-.069-.505 0-.711.031-.459.069m-2.68 8.894c-1.936.187-6.137 1.083-7.485 1.597-.62.236-1.372.5-1.673.586-.301.086-1.051.389-1.667.675-1.075.498-1.215.555-1.495.613-.068.014.008.103.171.198.162.094.254.237.205.317-.049.08.099.572.33 1.094.231.522.419 1.05.419 1.173 0 .254.714 1.826 1.038 2.285.179.255.162.339-.111.542-.39.289-.261.31.31.049.231-.105.392-.236.357-.291-.034-.056.137-.108.381-.117.243-.009 1.642-.433 3.109-.943 8.605-2.989 18.022-1.655 24.933 3.533.299.225.485.3.413.167-.072-.132.07.003.315.301.246.298.518.541.606.541.088 0 .39.263.672.584.59.672.949.782.545.166-.15-.229-.343-.416-.428-.416-.239 0-.964-.854-1.23-1.448-.131-.291-.376-.629-.544-.75-.363-.26-.866-1.226-.866-1.664 0-.17-.072-.44-.16-.599-.089-.159-.317-.664-.506-1.123-.19-.458-.418-.963-.506-1.122-.089-.16-.164-.46-.167-.667-.003-.208-.113-.565-.244-.794-.303-.529-.307-.667-.019-.667.126 0 .268-.144.314-.321.063-.239.018-.295-.176-.221-.194.075-.232.027-.15-.187.066-.172.044-.247-.054-.186-.091.056-.165.018-.165-.085 0-.102-.069-.144-.152-.092-.084.052-.178.026-.209-.058s-.206-.178-.389-.209c-.183-.032-.371-.096-.417-.144-.046-.047-.683-.299-1.416-.558-4.429-1.566-9.387-2.194-13.889-1.759m17.732 3.565c.424.321.667.325.347.005-.137-.137-.345-.25-.46-.25-.118 0-.069.108.113.245m17.974 3.015c.024.16.209.426.412.59.203.165.36.357.349.429-.011.071.068.159.175.195.148.049.15-.021.007-.288-.104-.194-.266-.352-.359-.352-.094 0-.139-.057-.099-.125.039-.069-.063-.264-.228-.433-.277-.285-.296-.286-.257-.016m-36.151 8.738c-1.671.303-1.936.384-4.25 1.295-3.06 1.205-3.507 1.43-3.604 1.813-.091.364.18 1.47.443 1.811.071.092.218.504.327.917.235.891.654 1.83.955 2.138.118.122.178.283.131.358-.046.075.535-.084 1.291-.355.756-.27 1.602-.551 1.882-.624.279-.074 1.104-.361 1.833-.639 3.796-1.445 8.44-.842 11.451 1.488.866.669 2.37 2.02 2.378 2.134.019.28.399.695.55.602.248-.154-.335-1.483-1.058-2.413-.311-.4-.686-1.075-.834-1.5-.148-.425-.496-1.335-.774-2.023-.278-.687-.562-1.475-.631-1.75-.069-.275-.241-.772-.383-1.105-.244-.576-.242-.601.06-.522.362.095.414-.118.108-.447-.166-.18-.166-.201 0-.107.115.065.209.038.209-.059 0-.177-.225-.242-.642-.185-.124.017-.181-.04-.127-.128.111-.18-.101-.236-2.648-.696-2.247-.407-4.439-.408-6.667-.003m13.455 11.2c.036.109.155.228.264.264.122.041.159-.035.097-.198-.116-.303-.461-.366-.361-.066m.462.88c0 .198.575 1.256.683 1.256.145 0 .1-.259-.153-.875-.157-.382-.53-.65-.53-.381m31.705 3.922c0 .321.035.452.077.292.041-.16.041-.423 0-.583-.042-.161-.077-.03-.077.291m-30.305.375c.983 5.096-2.971 11.259-8.317 12.96-.366.116-1.216.464-1.887.772s-1.286.56-1.367.56c-1.163 0-1.266.987-.329 3.146.367.846.667 1.651.667 1.791 0 .139.113.367.251.505.139.138.208.323.154.41-.149.24.595.064 2.15-.509.765-.281 1.783-.628 2.262-.77 1.834-.545 4.808-2.152 6.149-3.323 1.579-1.379 3.104-3.117 3.715-4.235.221-.405.514-.876.652-1.047.137-.172.253-.366.256-.432.003-.066.102-.307.219-.536l.214-.417-.341.417c-.187.229-.347.492-.355.583-.008.092-.085-.01-.171-.225-.09-.224-.252-.357-.378-.308-.206.079-1.444-2.488-1.444-2.993 0-.104-.241-.74-.535-1.415-.361-.827-.572-1.631-.65-2.475-.117-1.281-.618-2.994-.876-2.998-.079-.001-.096.241-.039.539m30.276 2.546c-.032 5.093-1.765 12.095-4.289 17.329-1.253 2.599-2.557 4.659-5.022 7.934-.578.769-3.197 3.657-3.799 4.19-.439.389-.348 1.008.408 2.769.289.674.526 1.328.526 1.452 0 .296.524 1.426.793 1.71.116.122.167.291.115.375-.772 1.251 3.417-2.566 5.595-5.096 2.003-2.328 2.917-3.584 5.031-6.917 1.773-2.793 4.738-9.834 5.201-12.348.04-.221.085-.402.099-.402.04 0 .152-.456.247-1l.087-.5-.227.481-.227.482-.11-.44c-.135-.537-.431-.579-.454-.065-.014.302-.043.277-.146-.125-.071-.275-.4-1.125-.733-1.889-.332-.765-.604-1.487-.604-1.605 0-.118-.197-.655-.438-1.193-.658-1.47-1.224-3.393-1.226-4.166-.002-.378-.186-1.091-.41-1.584l-.407-.896-.01 1.504m-15.3 2.53c.049.202.003.402-.102.445-.128.052-.121.082.023.091.309.019.451-.475.202-.706-.167-.156-.193-.121-.123.17m-.26 1.341c-.039.069-.06.325-.047.57.013.245-.034.41-.106.366-.071-.045-.13.098-.13.316 0 .5-1.3 4.211-1.94 5.54-1.693 3.512-5.057 7.623-7.976 9.75-.55.401-1.025.79-1.056.864-.03.075-.122.136-.203.136-.081 0-.586.281-1.122.625-1.369.877-4.291 2.199-7.244 3.279-.71.26-1.062.596-.625.596.091 0 .166.126.166.28 0 1.277 1.824 5.15 2.334 4.953.137-.053.408-.127.602-.164.195-.037.645-.191 1-.341.356-.15 1.21-.477 1.898-.726 1.637-.594 5.637-2.668 6.416-3.326.184-.155.559-.421.834-.591 4.715-2.922 11.883-12.56 10.471-14.081-.04-.043-.136.024-.214.15-.173.281-.541-.371-.84-1.488-.187-.7-.668-1.923-.983-2.502-.32-.586-.696-2.232-.605-2.647.134-.608-.409-1.95-.63-1.559"/><path fill="#04243c" d="M141.5 38.32V67.5l11.792-.005c6.709-.003 12.33-.076 13.041-.169.688-.09 1.903-.238 2.702-.329.798-.091 2.316-.427 3.373-.748 1.057-.32 2.008-.582 2.114-.582.688 0 6.111-2.623 6.979-3.375.185-.161.41-.292.5-.292.091 0 .455-.263.81-.583.356-.321.7-.584.765-.584.799 0 5.403-5.291 6.744-7.75.199-.366.469-.854.599-1.083.95-1.675 1.765-4.048 2.604-7.583.581-2.447.535-9.768-.077-12.334-.951-3.989-1.476-5.385-3.207-8.529-1.514-2.75-4.249-5.776-7.432-8.221-1.932-1.484-6.33-3.679-8.688-4.336-6.033-1.681-6.382-1.712-20.744-1.791L141.5 9.14v29.18m73 .002V67.5h9.333V43.689l9.459-.071c9.885-.074 9.396-.042 13.007-.853 1.345-.302 4.321-1.572 5.148-2.197.292-.221.592-.402.667-.403.324-.005 2.544-2.081 3.5-3.273 1.254-1.564 2.32-3.759 2.982-6.142.766-2.758.291-9.724-.762-11.167-.067-.091-.171-.372-.231-.624-.489-2.05-3.835-5.571-6.816-7.174-4.439-2.387-5.501-2.509-22.412-2.581l-13.875-.06v29.178m63 .011V67.5l11.708-.003c12.934-.003 15.482-.151 18.709-1.089.825-.24 1.912-.539 2.416-.666.504-.126 1.387-.458 1.961-.736.575-.278 1.126-.506 1.225-.506.241 0 2.837-1.386 3.706-1.979.381-.259.78-.501.887-.538.301-.102 4.32-3.508 4.583-3.883.061-.088.34-.427.621-.755 1.294-1.512 1.635-1.962 2.343-3.087 1.326-2.108 3.174-6.113 3.174-6.88 0-.185.102-.627.227-.982.75-2.135.972-4.243.905-8.599l-.065-4.214-.632-2.5c-.55-2.175-1.285-4.364-1.773-5.279-.082-.153-.453-.85-.825-1.548-.721-1.352-1.897-3.147-2.378-3.63-.161-.161-.292-.349-.292-.418-.001-.068-.669-.8-1.486-1.625-1.361-1.375-1.81-1.782-3.264-2.958-.622-.503-3.157-2.125-3.321-2.125-.066 0-.635-.3-1.262-.667-.628-.366-1.234-.666-1.347-.666-.112 0-.624-.199-1.137-.443-.954-.452-1.836-.72-4.766-1.449-3.739-.929-6.668-1.095-19.459-1.102L277.5 9.167v29.166m73 0V67.5h9.333V39.945l3.209 3.244c3.223 3.259 16.976 17.265 21.459 21.853l2.401 2.458h6.382c3.832 0 6.383-.062 6.383-.155 0-.086-2.419-2.579-5.375-5.542-2.957-2.962-9.937-9.999-15.512-15.636l-10.137-10.25 6.137-6.059c3.375-3.332 9.38-9.252 13.345-13.155 3.965-3.903 7.208-7.196 7.208-7.317 0-.177-1.136-.219-5.958-.219l-5.958.001-11.75 11.749-11.75 11.749-.043-11.75-.043-11.749H350.5v29.166M165.576 18.186c1.012.102 2.628.405 3.591.673.962.269 1.979.549 2.259.623.549.146 3.543 1.604 4.702 2.291.819.486 4.372 3.835 4.372 4.122 0 .105.189.395.42.644.895.966 2.244 4.082 3.014 6.961.408 1.526.418 8.258.014 9.753-.548 2.032-1.291 4.082-1.779 4.91-.276.469-.502.913-.502.988 0 .074-.262.465-.582.867-.32.403-.582.8-.583.882-.002.18-2.708 2.867-3.419 3.394-1.667 1.238-4.798 2.873-5.916 3.09-.229.044-1.055.278-1.834.52-2.24.695-5.331.929-12.291.929H151V18h6.367c3.502 0 7.196.083 8.209.186m76.507.05c2.32.356 5.917 2.297 5.917 3.192 0 .109.1.281.223.383 1.307 1.085 1.696 6.161.624 8.164-1.316 2.458-2.911 3.618-6.18 4.494-1.582.423-1.593.424-10.209.489l-8.625.066V18l8.375.003c6.276.002 8.751.061 9.875.233m59.917.008c1.146.13 2.758.437 3.583.682.825.245 1.65.482 1.834.526.678.165 3.988 1.756 4.416 2.123.138.118.339.243.447.278.623.201 3.628 3.098 4.562 4.397 1.455 2.026 2.59 4.772 3.241 7.847.295 1.393.341 6.943.069 8.27-.602 2.932-2.026 6.53-3.08 7.783-.223.265-.405.546-.405.625 0 .275-3.953 4.058-4.241 4.058-.064 0-.429.212-.813.471-.784.53-3.829 2.029-4.121 2.029-.104 0-.914.224-1.799.498-2.497.771-5.367 1.002-12.485 1.002h-6.041V18l6.375.003c4.404.002 7.019.077 8.458.241"/></g></svg>