<svg xmlns="http://www.w3.org/2000/svg" role="img" viewBox="9.63 21.63 747.24 113.74"><path fill="#FEFEFE" d="M555.000000,139.000000 C370.000000,139.000000 185.500000,139.000000 1.000000,139.000000 C1.000000,93.000000 1.000000,47.000000 1.000000,1.000000 C252.333328,1.000000 503.666656,1.000000 755.000000,1.000000 C755.000000,47.000000 755.000000,93.000000 755.000000,139.000000 C688.500000,139.000000 622.000000,139.000000 555.000000,139.000000 M689.499756,36.271263 C679.407715,36.271263 669.315735,36.271263 659.374878,36.271263 C659.374878,65.039124 659.374878,93.100403 659.374878,121.027267 C666.143921,121.027267 672.563599,121.027267 679.437622,121.027267 C679.437622,112.807632 679.437622,104.889641 679.437622,96.593201 C686.371399,96.593201 692.862793,96.332634 699.310974,96.745758 C701.349121,96.876350 703.898621,98.340996 705.134888,99.999573 C709.601501,105.992058 713.543884,112.372475 717.844604,118.493759 C718.689758,119.696693 720.218872,121.154045 721.483765,121.204285 C728.230957,121.472290 734.994385,121.330544 742.695862,121.330544 C735.889221,111.258667 729.611938,101.970070 723.199707,92.481720 C730.105774,88.656303 734.126587,83.262276 734.248779,75.528244 C734.346069,69.370125 734.527344,63.191032 734.153748,57.052753 C733.511475,46.498672 728.621521,39.976742 718.275696,38.168507 C709.184143,36.579498 699.770691,36.832058 689.499756,36.271263 M154.776001,102.499695 C154.776001,108.747086 154.776001,114.994484 154.776001,120.998367 C161.967972,120.998367 168.370621,120.998367 175.136902,120.998367 C175.136902,112.721779 175.136902,104.778351 175.136902,96.592552 C181.988708,96.592552 188.484192,96.331726 194.936539,96.744766 C196.984726,96.875877 199.556305,98.329353 200.789169,99.992516 C205.243301,106.001305 209.160309,112.405373 213.451538,118.540291 C214.294159,119.744942 215.871185,121.157555 217.159256,121.208160 C223.919647,121.473778 230.696045,121.332397 238.318253,121.332397 C231.549835,111.311699 225.256516,101.994392 218.796829,92.430786 C227.882599,87.811066 230.549118,80.077606 230.065018,70.692055 C229.876419,67.035500 230.067535,63.360840 230.018784,59.695312 C229.838226,46.120831 222.764786,37.761257 209.198639,37.135403 C191.417374,36.315090 173.585144,36.597004 155.774551,36.435307 C155.530899,36.433090 155.283630,36.828949 155.039307,37.043652 C154.960358,37.365475 154.812576,37.687229 154.812271,38.009125 C154.792587,59.172638 154.784821,80.336159 154.776001,102.499695 M80.297234,120.068039 C92.768692,115.980019 98.341728,109.817467 98.820488,97.756592 C99.321854,85.126213 99.363068,72.440620 98.798500,59.815243 C98.232109,47.148930 90.628212,38.188396 78.150887,37.465912 C60.290302,36.431709 42.325211,37.202400 24.243822,37.202400 C24.243822,64.881813 24.243822,93.046143 24.243822,121.337601 C33.931404,121.337601 43.255814,121.485016 52.573357,121.295319 C61.540890,121.112747 70.501320,120.581543 80.297234,120.068039 M590.498169,36.267166 C574.577332,36.267166 558.656494,36.267166 542.645996,36.267166 C542.645996,64.935349 542.645996,92.960243 542.645996,121.018112 C564.536133,121.018112 586.090454,121.018112 607.489014,121.018112 C607.489014,115.447701 607.489014,110.216232 607.489014,104.668716 C592.506287,104.668716 577.898865,104.668716 563.079407,104.668716 C563.079407,98.432098 563.079407,92.537354 563.079407,86.222778 C577.138550,86.222778 590.904480,86.222778 604.664673,86.222778 C604.664673,80.535530 604.664673,75.273117 604.664673,69.532913 C590.690247,69.532913 576.951172,69.532913 563.048096,69.532913 C563.048096,63.824467 563.048096,58.599426 563.048096,52.931713 C578.042908,52.931713 592.777039,52.931713 607.607300,52.931713 C607.607300,47.244633 607.607300,42.006474 607.607300,36.267181 C602.072021,36.267181 596.784546,36.267181 590.498169,36.267166 M459.492981,97.283310 C463.319061,97.139366 467.169769,97.222084 470.966766,96.810204 C483.832062,95.414635 491.401886,89.216782 492.597870,77.956451 C493.401154,70.393394 493.211243,62.629837 492.565826,55.032436 C491.791901,45.922504 486.329926,39.613163 477.374176,38.238770 C467.742737,36.760677 457.875641,36.638241 448.098663,36.339985 C438.496063,36.047043 428.877502,36.276127 419.155090,36.276127 C419.155090,64.883278 419.155090,92.947472 419.155090,121.113167 C425.828613,121.113167 432.237701,121.113167 439.132996,121.113167 C439.132996,113.167953 439.132996,105.430824 439.132996,97.283867 C445.907043,97.283867 452.201416,97.283867 459.492981,97.283310 M343.314697,44.150478 C339.403320,34.431427 342.142120,36.508270 331.888763,36.270058 C327.894958,36.177269 323.875732,36.511250 319.907562,36.179047 C316.319336,35.878654 314.710449,37.237389 313.453033,40.565067 C303.823181,66.050087 293.985748,91.456635 284.236725,116.896736 C283.745789,118.177872 283.475739,119.543678 282.978119,121.313660 C286.074615,121.313660 288.554901,121.313644 291.035187,121.313660 C302.878693,121.313728 302.868042,121.309761 307.064728,110.057945 C313.819153,91.948502 320.589203,73.844902 327.723083,54.747166 C328.734192,57.372562 329.394379,59.040993 330.021301,60.721844 C337.045654,79.554779 344.022430,98.405769 351.162598,117.194672 C351.762726,118.773926 353.371552,121.018494 354.647156,121.112289 C360.412964,121.536232 366.227509,121.297554 372.882751,121.297554 C362.963348,95.340271 353.314575,70.091148 343.314697,44.150478 z"/><path fill="#111921" d="M689.999634 36.271271C699.770691 36.832058 709.184143 36.579498 718.275696 38.168507 728.621521 39.976742 733.511475 46.498672 734.153748 57.052753 734.527344 63.191032 734.346069 69.370125 734.248779 75.528244 734.126587 83.262276 730.105774 88.656303 723.199707 92.48172 729.611938 101.97007 735.889221 111.258667 742.695862 121.330544 734.994385 121.330544 728.230957 121.47229 721.483765 121.204285 720.218872 121.154045 718.689758 119.696693 717.844604 118.493759 713.543884 112.372475 709.601501 105.992058 705.134888 99.999573 703.898621 98.340996 701.349121 96.87635 699.310974 96.745758 692.862793 96.332634 686.371399 96.593201 679.437622 96.593201 679.437622 104.889641 679.437622 112.807632 679.437622 121.027267 672.563599 121.027267 666.143921 121.027267 659.374878 121.027267 659.374878 93.100403 659.374878 65.039124 659.374878 36.271263 669.315735 36.271263 679.407715 36.271263 689.999634 36.271271M679.276794 59.625847C679.276794 66.401146 679.276794 73.176437 679.276794 80.128044 688.872314 80.128044 697.85083 80.233727 706.825012 80.08477 711.520203 80.006836 714.294312 77.313095 714.557007 72.626732 714.798767 68.313766 715.199646 63.846828 714.333801 59.697399 713.835754 57.310284 711.069153 53.713184 709.138794 53.591393 699.291626 52.970104 689.384094 53.304489 679.276855 53.304489 679.276855 55.367001 679.276855 57.015533 679.276794 59.625847zM154.776001 101.999687C154.784821 80.336159 154.792587 59.172638 154.812271 38.009125 154.812576 37.687229 154.960358 37.365475 155.038681 37.041332 155.28363 36.828949 155.530899 36.43309 155.774551 36.435307 173.585144 36.597004 191.417374 36.31509 209.198639 37.135403 222.764786 37.761257 229.838226 46.120831 230.018784 59.695312 230.067535 63.36084 229.876419 67.0355 230.065018 70.692055 230.549118 80.077606 227.882599 87.811066 218.796829 92.430786 225.256516 101.994392 231.549835 111.311699 238.318253 121.332397 230.696045 121.332397 223.919647 121.473778 217.159256 121.20816 215.871185 121.157555 214.294159 119.744942 213.451538 118.540291 209.160309 112.405373 205.243301 106.001305 200.789169 99.992516 199.556305 98.329353 196.984726 96.875877 194.936539 96.744766 188.484192 96.331726 181.988708 96.592552 175.136902 96.592552 175.136902 104.778351 175.136902 112.721779 175.136902 120.998367 168.370621 120.998367 161.967972 120.998367 154.776001 120.998367 154.776001 114.994484 154.776001 108.747086 154.776001 101.999687M175.003235 76.400024C175.107849 77.658218 175.212448 78.916412 175.317383 80.178444 184.367676 80.178444 193.028519 80.344986 201.67926 80.121376 207.700134 79.965752 210.002289 77.380531 210.134476 71.368965 210.218643 67.541527 210.176147 63.709053 210.095108 59.880852 210.011414 55.928211 207.743896 53.352039 204.009033 53.235523 194.433151 52.936794 184.841736 53.135788 175.003174 53.135788 175.003174 60.815086 175.003174 68.117172 175.003235 76.400024zM79.88105 120.135773C70.50132 120.581543 61.54089 121.112747 52.573357 121.295319 43.255814 121.485016 33.931404 121.337601 24.243822 121.337601 24.243822 93.046143 24.243822 64.881813 24.243822 37.2024 42.325211 37.2024 60.290302 36.431709 78.150887 37.465912 90.628212 38.188396 98.232109 47.14893 98.7985 59.815243 99.363068 72.44062 99.321854 85.126213 98.820488 97.756592 98.341728 109.817467 92.768692 115.980019 79.88105 120.135773M44.057724 79.5C44.057724 87.596375 44.057724 95.692749 44.057724 103.995705 53.00211 103.995705 61.453415 104.224274 69.884995 103.915047 75.471565 103.710167 78.815872 100.501564 78.936905 95.217094 79.188042 84.252312 79.172104 73.273766 78.922028 62.30872 78.814339 57.586624 75.845695 54.286469 71.128036 54.083672 62.240566 53.701637 53.324993 53.973446 44.057724 53.973446 44.057724 62.264835 44.057724 70.382416 44.057724 79.5z"/><path fill="#131B22" d="M590.997559,36.267174 C596.784546,36.267181 602.072021,36.267181 607.607300,36.267181 C607.607300,42.006474 607.607300,47.244633 607.607300,52.931713 C592.777039,52.931713 578.042908,52.931713 563.048096,52.931713 C563.048096,58.599426 563.048096,63.824467 563.048096,69.532913 C576.951172,69.532913 590.690247,69.532913 604.664673,69.532913 C604.664673,75.273117 604.664673,80.535530 604.664673,86.222778 C590.904480,86.222778 577.138550,86.222778 563.079407,86.222778 C563.079407,92.537354 563.079407,98.432098 563.079407,104.668716 C577.898865,104.668716 592.506287,104.668716 607.489014,104.668716 C607.489014,110.216232 607.489014,115.447701 607.489014,121.018112 C586.090454,121.018112 564.536133,121.018112 542.645996,121.018112 C542.645996,92.960243 542.645996,64.935349 542.645996,36.267166 C558.656494,36.267166 574.577332,36.267166 590.997559,36.267174 z"/><path fill="#101820" d="M458.994385,97.283585 C452.201416,97.283867 445.907043,97.283867 439.132996,97.283867 C439.132996,105.430824 439.132996,113.167953 439.132996,121.113167 C432.237701,121.113167 425.828613,121.113167 419.155090,121.113167 C419.155090,92.947472 419.155090,64.883278 419.155090,36.276127 C428.877502,36.276127 438.496063,36.047043 448.098663,36.339985 C457.875641,36.638241 467.742737,36.760677 477.374176,38.238770 C486.329926,39.613163 491.791901,45.922504 492.565826,55.032436 C493.211243,62.629837 493.401154,70.393394 492.597870,77.956451 C491.401886,89.216782 483.832062,95.414635 470.966766,96.810204 C467.169769,97.222084 463.319061,97.139366 458.994385,97.283585 M472.951752,66.510201 C472.950073,64.850594 472.992859,63.189526 472.938507,61.531643 C472.758118,56.029099 470.601929,53.291492 465.261047,53.105007 C456.685730,52.805588 448.092316,53.024715 439.407166,53.024715 C439.407166,62.520863 439.407166,71.683304 439.407166,80.979546 C447.709290,80.979546 455.670197,81.107773 463.624908,80.940262 C470.376007,80.798096 472.831818,78.132957 472.947052,71.431175 C472.969879,70.103867 472.951233,68.775841 472.951752,66.510201 z"/><path fill="#F04D26" d="M343.490234,44.496246 C353.314575,70.091148 362.963348,95.340271 372.882751,121.297554 C366.227509,121.297554 360.412964,121.536232 354.647156,121.112289 C353.371552,121.018494 351.762726,118.773926 351.162598,117.194672 C344.022430,98.405769 337.045654,79.554779 330.021301,60.721844 C329.394379,59.040993 328.734192,57.372562 327.723083,54.747166 C320.589203,73.844902 313.819153,91.948502 307.064728,110.057945 C302.868042,121.309761 302.878693,121.313728 291.035187,121.313660 C288.554901,121.313644 286.074615,121.313660 282.978119,121.313660 C283.475739,119.543678 283.745789,118.177872 284.236725,116.896736 C293.985748,91.456635 303.823181,66.050087 313.453033,40.565067 C314.710449,37.237389 316.319336,35.878654 319.907562,36.179047 C323.875732,36.511250 327.894958,36.177269 331.888763,36.270058 C342.142120,36.508270 339.403320,34.431427 343.490234,44.496246 z"/><path fill="#FAFAFB" d="M679.276855,59.144955 C679.276855,57.015533 679.276855,55.367001 679.276855,53.304489 C689.384094,53.304489 699.291626,52.970104 709.138794,53.591393 C711.069153,53.713184 713.835754,57.310284 714.333801,59.697399 C715.199646,63.846828 714.798767,68.313766 714.557007,72.626732 C714.294312,77.313095 711.520203,80.006836 706.825012,80.084770 C697.850830,80.233727 688.872314,80.128044 679.276794,80.128044 C679.276794,73.176437 679.276794,66.401146 679.276855,59.144955 z"/><path fill="#FEFEFE" d="M175.003204 75.909637C175.003174 68.117172 175.003174 60.815086 175.003174 53.135788 184.841736 53.135788 194.433151 52.936794 204.009033 53.235523 207.743896 53.352039 210.011414 55.928211 210.095108 59.880852 210.176147 63.709053 210.218643 67.541527 210.134476 71.368965 210.002289 77.380531 207.700134 79.965752 201.67926 80.121376 193.028519 80.344986 184.367676 80.178444 175.317383 80.178444 175.212448 78.916412 175.107849 77.658218 175.003204 75.909637zM44.057724 79C44.057724 70.382416 44.057724 62.264835 44.057724 53.973446 53.324993 53.973446 62.240566 53.701637 71.128036 54.083672 75.845695 54.286469 78.814339 57.586624 78.922028 62.30872 79.172104 73.273766 79.188042 84.252312 78.936905 95.217094 78.815872 100.501564 75.471565 103.710167 69.884995 103.915047 61.453415 104.224274 53.00211 103.995705 44.057724 103.995705 44.057724 95.692749 44.057724 87.596375 44.057724 79z"/><path fill="#FDFDFD" d="M472.951721,66.979172 C472.951233,68.775841 472.969879,70.103867 472.947052,71.431175 C472.831818,78.132957 470.376007,80.798096 463.624908,80.940262 C455.670197,81.107773 447.709290,80.979546 439.407166,80.979546 C439.407166,71.683304 439.407166,62.520863 439.407166,53.024715 C448.092316,53.024715 456.685730,52.805588 465.261047,53.105007 C470.601929,53.291492 472.758118,56.029099 472.938507,61.531643 C472.992859,63.189526 472.950073,64.850594 472.951721,66.979172 z"/></svg>