<svg xmlns="http://www.w3.org/2000/svg" role="img" viewBox="-1.40 -1.90 488.80 128.80"><style>svg {enable-background:new 0 0 486 129}</style><style id="style2" type="text/css">.st0{fill:#2c2255}.st1{fill:#f7941e}.st5{fill:#fff}</style><path id="path4" d="M38.1,76.9H21.4c2.2,7.6,6.3,14.4,12.4,20.4c9.6,9.6,21.1,14.4,34.7,14.4c2.7,0,5.3-0.2,7.9-0.6 c10.2-1.5,19.1-6.1,26.7-13.8c6.1-6,10.2-12.8,12.4-20.4h-6.8h-9.9H38.1z" class="st0"/><g id="g10"><path id="path6" d="m 28.9,54.2 h -8.7 c -0.3,1.9 -0.5,3.9 -0.6,5.9 h 10.4 5.2 75.3 6.9 c -0.1,-2 -0.3,-4 -0.6,-5.9" class="st0"/><path id="path8" d="m 19.5,65.6 c 0.1,2 0.3,4 0.6,5.9 h 9.1 6.9 73.6 6.8 c 0.3,-1.9 0.5,-3.9 0.6,-5.9" class="st0"/></g><path id="path12" d="M115.4,48.7c-2.2-7.6-6.4-14.5-12.4-20.5C95.3,20.6,86.5,16,76.3,14.5c-2.6-0.4-5.2-0.6-7.9-0.6 c-13.5,0-25,4.8-34.7,14.3c-6,6.1-10.1,12.9-12.4,20.5" class="st0"/><g id="g16"><path id="path14" d="m 16.6,62.8 c 0,-25.8 19.4,-47.3 44.6,-51 -0.6,0 -1.3,0 -1.9,0 C 31,11.7 8.1,34.6 8.1,62.8 c 0,28.2 23,51.1 51.3,51.1 0.6,0 1.3,0 1.9,0 C 36,110.1 16.6,88.7 16.6,62.8 Z" class="st1"/></g><path id="rect18" d="M287.7 7.7H297.9V20.6H287.7z" class="st1"/><path id="path20" d="M202.5,60.8v5h-46.9c0.4,7,2.6,12.4,6.3,16c3.8,3.7,9.1,5.5,15.8,5.5c3.9,0,7.7-0.5,11.4-1.4 c3.7-1,7.3-2.4,10.9-4.3v9.6c-3.7,1.6-7.4,2.7-11.3,3.5c-3.8,0.8-7.7,1.2-11.7,1.2c-9.9,0-17.7-2.9-23.5-8.6 c-5.8-5.8-8.7-13.6-8.7-23.4c0-10.2,2.7-18.2,8.2-24.2s12.9-9,22.2-9c8.4,0,15,2.7,19.8,8.1C200.1,44.3,202.5,51.6,202.5,60.8 M192.3,57.8c-0.1-5.6-1.6-10-4.7-13.4c-3-3.3-7.1-5-12.1-5c-5.7,0-10.2,1.6-13.7,4.8c-3.4,3.2-5.4,7.7-5.9,13.6L192.3,57.8z" class="st0"/><path id="path22" d="M255.4,34.7v9.5c-2.9-1.6-5.8-2.8-8.7-3.6s-5.8-1.2-8.8-1.2c-6.6,0-11.7,2.1-15.4,6.3S217,55.8,217,63.3 c0,7.6,1.8,13.5,5.5,17.7s8.8,6.3,15.4,6.3c3,0,5.9-0.4,8.8-1.2c2.9-0.8,5.8-2,8.7-3.6V92c-2.8,1.3-5.8,2.3-8.8,3s-6.3,1-9.7,1 c-9.3,0-16.8-2.9-22.3-8.8s-8.3-13.8-8.3-23.8c0-10.1,2.8-18.1,8.3-23.9c5.6-5.8,13.2-8.7,22.9-8.7c3.1,0,6.2,0.3,9.2,1 C249.7,32.4,252.6,33.4,255.4,34.7" class="st0"/><path id="rect24" d="M264.6 8.2H274.8V94.4H264.6z" class="st0"/><path id="path26" d="M287.7,32.3h10.2v62.1h-10.2V32.3z" class="st0"/><path id="path28" d="M320.5,85.1V118h-10.3V32.3h10.3v9.4c2.1-3.7,4.9-6.4,8.1-8.2c3.3-1.8,7.2-2.7,11.7-2.7c7.5,0,13.7,3,18.4,9 c4.7,6,7.1,13.9,7.1,23.6c0,9.8-2.4,17.6-7.1,23.6s-10.8,9-18.4,9c-4.5,0-8.5-0.9-11.7-2.7S322.7,88.8,320.5,85.1 M355.2,63.4 c0-7.5-1.5-13.4-4.6-17.6s-7.3-6.4-12.7-6.4c-5.4,0-9.6,2.1-12.7,6.4s-4.6,10.1-4.6,17.6s1.5,13.4,4.6,17.7s7.3,6.4,12.7,6.4 c5.4,0,9.6-2.1,12.7-6.4S355.2,70.9,355.2,63.4" class="st0"/><path id="path30" d="M413.8,34.1v9.6c-2.9-1.5-5.9-2.6-9-3.3s-6.3-1.1-9.6-1.1c-5.1,0-8.9,0.8-11.4,2.3c-2.5,1.6-3.8,3.9-3.8,7 c0,2.4,0.9,4.2,2.7,5.6c1.8,1.3,5.4,2.6,10.9,3.9l3.5,0.8c7.2,1.6,12.4,3.7,15.4,6.6c3,2.8,4.6,6.8,4.6,11.8 c0,5.8-2.3,10.3-6.8,13.7c-4.6,3.4-10.8,5-18.8,5c-3.3,0-6.8-0.3-10.4-1c-3.6-0.6-7.4-1.6-11.4-2.9V81.6c3.8,2,7.5,3.4,11.1,4.4 c3.7,1,7.3,1.5,10.9,1.5c4.8,0,8.5-0.8,11.1-2.5c2.6-1.6,3.9-4,3.9-7c0-2.8-0.9-4.9-2.8-6.4s-6-2.9-12.3-4.3l-3.5-0.8 c-6.3-1.3-10.9-3.4-13.7-6.1c-2.8-2.8-4.2-6.5-4.2-11.3c0-5.8,2.1-10.3,6.2-13.5s10-4.8,17.6-4.8c3.8,0,7.3,0.3,10.6,0.8 C407.9,32.2,411,33,413.8,34.1" class="st0"/><path id="path32" d="M477.9,60.8v5H431c0.4,7,2.6,12.4,6.3,16c3.8,3.7,9.1,5.5,15.8,5.5c3.9,0,7.7-0.5,11.4-1.4 c3.7-1,7.3-2.4,10.9-4.3v9.6c-3.7,1.6-7.4,2.7-11.3,3.5c-3.8,0.8-7.7,1.2-11.7,1.2c-9.9,0-17.7-2.9-23.5-8.6 c-5.8-5.8-8.7-13.6-8.7-23.4c0-10.2,2.7-18.2,8.2-24.2s12.9-9,22.2-9c8.3,0,15,2.7,19.8,8.1C475.5,44.3,477.9,51.6,477.9,60.8 M467.7,57.8c-0.1-5.6-1.6-10-4.7-13.4c-3-3.3-7.1-5-12.1-5c-5.7,0-10.2,1.6-13.7,4.8c-3.4,3.2-5.4,7.7-5.9,13.6L467.7,57.8z" class="st0"/><g id="g55"><linearGradient id="SVGID_1_" x1="68.4" x2="68.4" y1="12.576" y2="86.211" gradientTransform="matrix(1 0 0 -1 0 131)" gradientUnits="userSpaceOnUse"><stop id="stop34" offset=".303" stop-color="#473788"/><stop id="stop36" offset=".872" stop-color="#2c2255"/></linearGradient><path id="path39" fill="url(#SVGID_1_)" d="m 101.7,60.1 c -0.2,-2 -0.5,-4 -1,-5.9 H 36.1 c -0.5,1.9 -0.8,3.9 -1,5.9 z"/><linearGradient id="SVGID_2_" x1="68.4" x2="68.4" y1="12.575" y2="86.21" gradientTransform="matrix(1 0 0 -1 0 131)" gradientUnits="userSpaceOnUse"><stop id="stop41" offset=".303" stop-color="#473788"/><stop id="stop43" offset=".872" stop-color="#2c2255"/></linearGradient><path id="path46" fill="url(#SVGID_2_)" d="M 101.7,65.6 H 35.1 c 0.2,2 0.5,4 1,5.9 h 64.5 c 0.5,-1.9 0.9,-3.9 1.1,-5.9 z"/><linearGradient id="SVGID_3_" x1="68.4" x2="68.4" y1="12.577" y2="86.208" gradientTransform="matrix(1 0 0 -1 0 131)" gradientUnits="userSpaceOnUse"><stop id="stop48" offset=".303" stop-color="#473788"/><stop id="stop50" offset=".863" stop-color="#2c2255"/></linearGradient><path id="path53" fill="url(#SVGID_3_)" d="m 68.4,96.2 c 13.4,0 24.9,-7.9 30.3,-19.3 H 38.1 C 43.4,88.3 55,96.2 68.4,96.2 Z"/></g><g id="g63"><path id="path57" d="m 30.2,65.6 h 4.9 66.7 8.8 6.7 c 0,-0.9 0.1,-1.7 0.1,-2.6 0,-1 0,-1.9 -0.1,-2.8 h -6.6 -8.8 -66.8 -5.2 -10.4 c -0.1,0.9 -0.1,1.9 -0.1,2.8 0,0.9 0,1.8 0.1,2.6 z" class="st5"/><path id="path59" d="M 37.9,48.7 H 21.4 c -0.5,1.8 -0.9,3.6 -1.2,5.5 h 8.5 7.3 64.7 9.2 6.5 c -0.3,-1.9 -0.8,-3.7 -1.3,-5.5" class="st5"/><path id="path61" d="m 110,71.5 h -9.2 -64.6 -6.9 -9.1 c 0.3,1.9 0.7,3.7 1.2,5.5 h 16.8 60.7 10 6.5 c 0.5,-1.8 1,-3.6 1.3,-5.5 z" class="st5"/></g><g id="text65" fill="#2c2255" class="st0" transform="translate(464.317 20.72)"><path id="path72" d="m 8,-10.796875 q -1.0234375,0 -1.90625,0.367187 -0.8828125,0.367188 -1.6171875,1.101563 -0.734375,0.734375 -1.109375,1.6328125 -0.375,0.890625 -0.375,1.90625 0,1.0078125 0.375,1.8984375 0.375,0.8828125 1.109375,1.6171875 0.734375,0.734375 1.6171875,1.109375 Q 6.9765625,-0.796875 8,-0.796875 q 1.03125,0 1.9140625,-0.3671875 0.8906255,-0.375 1.6250005,-1.109375 Q 12.265625,-3 12.625,-3.8828125 q 0.367188,-0.8828125 0.367188,-1.90625 0,-1.0390625 -0.367188,-1.921875 Q 12.257813,-8.6015625 11.539063,-9.328125 10.804688,-10.0625 9.9140625,-10.429688 9.03125,-10.796875 8,-10.796875 Z m 0,-0.804688 q 1.1875,0 2.210938,0.429688 1.03125,0.429687 1.882812,1.28125 0.851563,0.8515625 1.273438,1.875 0.421875,1.0234375 0.421875,2.2265625 0,1.1875 -0.421875,2.2109375 -0.421875,1.015625 -1.273438,1.8671875 -0.851562,0.8515625 -1.882812,1.28125 Q 9.1875,0 8,0 6.8125,0 5.78125,-0.4296875 4.7578125,-0.859375 3.90625,-1.7109375 3.0546875,-2.5625 2.6328125,-3.578125 q -0.421875,-1.0234375 -0.421875,-2.2109375 0,-1.203125 0.421875,-2.2265625 0.421875,-1.0234375 1.2734375,-1.875 0.8515625,-0.851563 1.875,-1.28125 Q 6.8125,-11.601563 8,-11.601563 Z M 7.7890625,-8.3671875 H 6.828125 v 2.15625 h 0.9609375 q 0.859375,0 1.1953125,-0.2421875 0.34375,-0.2421875 0.34375,-0.828125 0,-0.59375 -0.34375,-0.8359375 -0.34375,-0.25 -1.1953125,-0.25 z M 7.84375,-9.171875 q 1.375,0 2.0546875,0.46875 0.6796875,0.4609375 0.6796875,1.40625 0,0.671875 -0.414062,1.109375 -0.4062505,0.4375 -1.1562505,0.5703125 0.1875,0.0625 0.4453125,0.3671875 0.265625,0.296875 0.625,0.8671875 l 1.070313,1.7421875 H 9.8046875 L 8.796875,-4.2734375 q -0.4609375,-0.75 -0.75,-0.9453125 Q 7.765625,-5.421875 7.34375,-5.421875 H 6.828125 v 2.78125 H 5.6171875 v -6.53125 z"/></g></svg>