<?xml version="1.0" encoding="UTF-8"?>
<svg xmlns="http://www.w3.org/2000/svg" xmlns:xlink="http://www.w3.org/1999/xlink" width="204" height="130" viewBox="0 0 204 130">
<defs>
<g>
<g id="glyph-0-0">
<path d="M 5.890625 -43.734375 L 33.546875 -43.734375 L 33.546875 -38.765625 L 11.8125 -38.765625 L 11.8125 -25.8125 L 32.640625 -25.8125 L 32.640625 -20.828125 L 11.8125 -20.828125 L 11.8125 -4.984375 L 34.078125 -4.984375 L 34.078125 0 L 5.890625 0 Z M 5.890625 -43.734375 "/>
</g>
<g id="glyph-0-1">
<path d="M 22.265625 -45.59375 L 22.265625 -41.109375 L 17.109375 -41.109375 C 15.171875 -41.109375 13.828125 -40.71875 13.078125 -39.9375 C 12.328125 -39.15625 11.953125 -37.75 11.953125 -35.71875 L 11.953125 -32.8125 L 20.828125 -32.8125 L 20.828125 -28.625 L 11.953125 -28.625 L 11.953125 0 L 6.53125 0 L 6.53125 -28.625 L 1.375 -28.625 L 1.375 -32.8125 L 6.53125 -32.8125 L 6.53125 -35.09375 C 6.53125 -38.75 7.378906 -41.410156 9.078125 -43.078125 C 10.773438 -44.753906 13.472656 -45.59375 17.171875 -45.59375 Z M 22.265625 -45.59375 "/>
</g>
<g id="glyph-0-2">
<path d="M 5.65625 -32.8125 L 11.046875 -32.8125 L 11.046875 0 L 5.65625 0 Z M 5.65625 -45.59375 L 11.046875 -45.59375 L 11.046875 -38.765625 L 5.65625 -38.765625 Z M 5.65625 -45.59375 "/>
</g>
<g id="glyph-0-3">
<path d="M 32.9375 -19.8125 L 32.9375 0 L 27.546875 0 L 27.546875 -19.625 C 27.546875 -22.726562 26.9375 -25.050781 25.71875 -26.59375 C 24.507812 -28.144531 22.695312 -28.921875 20.28125 -28.921875 C 17.363281 -28.921875 15.066406 -27.988281 13.390625 -26.125 C 11.710938 -24.269531 10.875 -21.742188 10.875 -18.546875 L 10.875 0 L 5.453125 0 L 5.453125 -32.8125 L 10.875 -32.8125 L 10.875 -27.71875 C 12.15625 -29.6875 13.671875 -31.160156 15.421875 -32.140625 C 17.171875 -33.117188 19.1875 -33.609375 21.46875 -33.609375 C 25.238281 -33.609375 28.09375 -32.441406 30.03125 -30.109375 C 31.96875 -27.773438 32.9375 -24.34375 32.9375 -19.8125 Z M 32.9375 -19.8125 "/>
</g>
<g id="glyph-0-4">
<path d="M 32.9375 -32.8125 L 21.0625 -16.84375 L 33.546875 0 L 27.1875 0 L 17.640625 -12.890625 L 8.09375 0 L 1.734375 0 L 14.46875 -17.171875 L 2.8125 -32.8125 L 9.171875 -32.8125 L 17.875 -21.125 L 26.578125 -32.8125 Z M 32.9375 -32.8125 "/>
</g>
<g id="glyph-0-5">
<path d="M 5.890625 -43.734375 L 11.8125 -43.734375 L 11.8125 0 L 5.890625 0 Z M 5.890625 -43.734375 "/>
</g>
<g id="glyph-0-6">
<path d="M 29.265625 -31.546875 L 29.265625 -26.515625 C 27.742188 -27.359375 26.21875 -27.988281 24.6875 -28.40625 C 23.15625 -28.820312 21.609375 -29.03125 20.046875 -29.03125 C 16.546875 -29.03125 13.828125 -27.921875 11.890625 -25.703125 C 9.960938 -23.492188 9 -20.382812 9 -16.375 C 9 -12.375 9.960938 -9.265625 11.890625 -7.046875 C 13.828125 -4.828125 16.546875 -3.71875 20.046875 -3.71875 C 21.609375 -3.71875 23.15625 -3.925781 24.6875 -4.34375 C 26.21875 -4.769531 27.742188 -5.398438 29.265625 -6.234375 L 29.265625 -1.265625 C 27.765625 -0.554688 26.207031 -0.03125 24.59375 0.3125 C 22.976562 0.664062 21.265625 0.84375 19.453125 0.84375 C 14.515625 0.84375 10.585938 -0.707031 7.671875 -3.8125 C 4.765625 -6.914062 3.3125 -11.101562 3.3125 -16.375 C 3.3125 -21.726562 4.78125 -25.9375 7.71875 -29 C 10.65625 -32.070312 14.6875 -33.609375 19.8125 -33.609375 C 21.46875 -33.609375 23.085938 -33.4375 24.671875 -33.09375 C 26.253906 -32.75 27.785156 -32.234375 29.265625 -31.546875 Z M 29.265625 -31.546875 "/>
</g>
</g>
</defs>
<g fill="rgb(0%, 0%, 0%)" fill-opacity="1">
<use xlink:href="#glyph-0-0" x="0" y="50"/>
<use xlink:href="#glyph-0-1" x="37.910156" y="50"/>
<use xlink:href="#glyph-0-2" x="59.033203" y="50"/>
<use xlink:href="#glyph-0-3" x="75.703125" y="50"/>
<use xlink:href="#glyph-0-2" x="113.730469" y="50"/>
<use xlink:href="#glyph-0-4" x="130.400391" y="50"/>
</g>
<g fill="rgb(0%, 0%, 0%)" fill-opacity="1">
<use xlink:href="#glyph-0-5" x="0" y="100"/>
<use xlink:href="#glyph-0-3" x="17.695312" y="100"/>
<use xlink:href="#glyph-0-6" x="55.722656" y="100"/>
</g>
</svg>
