<svg xmlns="http://www.w3.org/2000/svg" role="img" viewBox="-7.99 -7.99 415.74 161.99"><g fill-rule="evenodd" stroke="none"><path fill="#7c7c7c" d="M10.5 67.866c-2.114.255-3.801.663-5.109 1.237-.288.127-.571.23-.628.23-.263 0-1.583.988-2.225 1.666-1.19 1.255-1.832 2.659-2.364 5.168-.266 1.254-.156 18.897.125 20.053.941 3.875 3.567 5.985 8.701 6.992 1.671.327 2.435.346 16.875.41L41 103.69V95.833H27.097c-17.477 0-17.417.011-17.832-3.291l-.11-.875h31.678v-7.834H9.122l.086-2.541c.106-3.114.365-3.835 1.709-4.743 1.408-.953 1.121-.935 16.291-1.005l13.959-.065v-7.812l-14.709.024c-8.089.013-15.27.092-15.958.175m33.67 12.759c.003 14.624.105 15.981 1.354 17.996.215.346.373.684.351.751-.04.125 1.445 1.672 2.045 2.13.935.715 2.859 1.447 4.747 1.808 2.545.486 3.776.523 17.073.523H83.5v-8H70.76c-14.833 0-14.805.003-16.312-1.533-.882-.9-.861-.569-.913-14.092l-.049-12.541H44.167l.003 12.958m54.913-12.779c-6.856.45-10.656 2.434-11.669 6.092-.073.263-.155.554-.182.645-.634 2.143-.613 1.671-.685 15.709l-.068 13.541 12.385.001c12.265 0 14.13-.064 17.803-.608 6.83-1.011 11.096-3.788 13.299-8.656.294-.649.534-1.338.534-1.532 0-.193.067-.393.148-.443.082-.051.191-.336.243-.635.052-.299.178-.956.28-1.46.782-3.883.162-10.467-1.285-13.636-1.035-2.268-4.064-5.697-5.032-5.697-.088 0-.185-.066-.215-.146-.14-.368-2.66-1.427-4.806-2.019-.412-.114-.937-.268-1.166-.343-2.401-.78-13.245-1.23-19.584-.813m53.5.072c-2.737.202-4.362.417-5.583.739-3.406.896-4.509 1.336-6.496 2.591-1.474.93-3.327 2.84-3.953 4.075-.166.327-.342.631-.393.677-.114.104-.539 1.057-.816 1.833-.115.321-.27.734-.345.917-1.714 4.203-1.01 13.244 1.342 17.25 1.146 1.95 3.855 4.667 4.655 4.667.079 0 .17.056.2.125.115.258 2.282 1.199 3.889 1.689 3.092.943 4.943 1.175 10.334 1.295 10.389.231 16.956-1.83 20.355-6.388.262-.351.521-.676.577-.721.478-.396 1.611-3.159 2.186-5.334.454-1.713.565-8.638.166-10.333-.719-3.056-1.307-4.524-2.538-6.333-.625-.919-2.434-2.834-2.676-2.834-.072 0-.229-.095-.35-.211-.434-.418-1.906-1.267-2.97-1.713-.989-.415-1.673-.639-3.334-1.091-3.384-.92-9.089-1.281-14.25-.9m41.084-.007c-3.961.338-8 1.504-8 2.31 0 .092-.049.119-.109.06-.165-.165-1.622 1.387-2.09 2.226-1.539 2.761-1.623 3.722-1.629 18.701l-.006 12.625h9.5V92.167h9.855c16.196 0 16.312.053 16.312 7.567v4.099h9.5v-3.806c0-6.853-.674-9.546-2.963-11.835-.524-.523-.56-.616-.361-.928 2.804-4.407 2.391-12.139-.832-15.553-2.203-2.334-5.138-3.335-11.094-3.784-3.671-.277-14.915-.287-18.083-.016m55-.059c-3.191.195-6.345.672-7.584 1.146-.183.07-.783.258-1.333.417-4.795 1.392-8.535 5.433-9.643 10.418-.584 2.626-.607 3.139-.607 13.552v10.448h9.333v-7.5h26.334v7.5h9.365l-.087-10.708c-.095-11.645-.075-11.379-1.115-14.864-1.269-4.252-4.93-7.648-9.747-9.043-2.846-.824-4.155-1.04-7.916-1.305-3.713-.262-3.704-.262-7-.061m40.416.068c-7.666.645-10.61 2.96-11.546 9.08-.097.636-.176 6.4-.19 13.958l-.025 12.875h12.445c12.663 0 14.467-.067 18.066-.672 1.638-.275 3.427-.697 4-.942.138-.059.288-.117.334-.129 1.282-.348 3.582-1.532 4.303-2.215.121-.114.274-.208.339-.208.352 0 2.242-2.075 3.072-3.373 2.542-3.973 3.288-12.138 1.595-17.452-1.848-5.799-6.042-9.11-13.226-10.441-3.626-.672-13.845-.928-19.167-.481m54.167.001c-11.195.856-16.04 4.398-18.114 13.246-.294 1.253-.294 7.707-.001 9.166.507 2.518 1.609 5.625 2.06 5.806.076.03.138.162.138.292 0 .129.07.236.156.236.085 0 .205.157.266.35.525 1.653 4.709 4.46 8.245 5.531 1.315.398 2.157.571 4.75.977 7.552 1.181 17.993-.261 22.5-3.107 8.65-5.464 8.997-22.665.583-28.872-1.508-1.113-2.891-1.741-5.416-2.462-.55-.157-1.188-.348-1.417-.424-.229-.077-.717-.184-1.083-.238-.367-.055-.929-.137-1.25-.185-2.987-.439-7.997-.578-11.417-.316m-230 7.922c1.354.269 2.723.647 3.359.926.288.127.579.231.645.231.066 0 .592.337 1.168.748 5.464 3.899 4.969 13.7-.839 16.6-2.918 1.458-3.56 1.536-13.3 1.613l-8.466.068.05-8.723.05-8.723.453-.771c.755-1.284 2.282-2.014 4.63-2.213 1.648-.14 11.286.052 12.25.244m143.5.091c5.892 1.143 8.4 4.405 8.414 10.941l.003 1.458h-26.334v-2.325c0-4.928 1.59-7.625 5.445-9.241 2.857-1.197 8.611-1.581 12.472-.833m45.167-.272c4.102.31 6.957 1.316 8.583 3.026.632.664 1.167 1.305 1.167 1.397 0 .046.187.472.416.947.23.475.417.985.417 1.133 0 .147.094.362.208.477.842.841.116 6.848-1.068 8.842-2.159 3.632-4.888 4.375-16.432 4.472l-8.375.071v-8.66c0-10.361.033-10.504 2.566-11.304 1.638-.517 8.201-.727 12.518-.401m-141.29.26c3.391.533 7.373 2.564 7.373 3.76 0 .07.097.227.215.348.392.403.825 1.503 1.274 3.239 1.041 4.025-.644 8.774-3.822 10.773-4.373 2.751-15.979 2.49-18.908-.425-.111-.11-.458-.427-.772-.705-2.021-1.786-3.056-5.738-2.421-9.245.68-3.759 2.608-5.946 6.351-7.204 2.209-.743 7.671-1.019 10.71-.541m50.997.005c4.047.652 5.826 3.242 4.121 5.999-1.329 2.149-2.215 2.294-14.453 2.369l-9.959.062v-2.398c0-4.188.739-5.416 3.641-6.052 1.517-.332 14.557-.316 16.65.02m139.836-.004c1.723.272 2.466.461 3.315.841.289.13.645.236.792.236.146 0 .266.057.266.126s.244.233.542.363c4.527 1.98 5.52 11.424 1.612 15.331-4.297 4.297-16.967 4.314-21.28.027-4.076-4.051-3.139-12.73 1.662-15.383 2.875-1.588 8.556-2.257 13.091-1.541m-198.603 43.202c-.512.356-1.108 1.316-1.242 2l-.107.542h.913c.694 0 .912-.059.912-.246 0-.722.794-.827 1.881-.248 1.895 1.009 3.406.696 4.185-.868.66-1.324.612-1.472-.482-1.472-.779 0-.917.046-.917.307 0 .672-.804.76-1.865.203-1.138-.596-2.596-.693-3.278-.218m-115.19 3.942c-2.333.795-3.5 2.329-3.5 4.6 0 2.769 1.393 3.918 6.25 5.158 2.93.748 3.578 3.277 1.137 4.432-1.909.903-3.672.163-4.286-1.799-.078-.249-.308-.291-1.596-.291h-1.505v.672c0 3.469 5.919 5.564 9.497 3.36 2.881-1.774 3.134-6.2.445-7.776-.533-.312-3.026-1.336-3.026-1.243 0 .042-1.049-.226-1.333-.34-1.452-.582-1.87-.797-2.12-1.089-1.296-1.515-.107-3.418 2.137-3.418 1.419 0 2.733.914 2.733 1.901 0 .226.253.266 1.681.266h1.682l-.114-.708c-.143-.887-.71-1.886-1.455-2.563-.527-.48-.894-.682-2.177-1.206-.601-.245-3.692-.214-4.45.044m92.916.079c-1.831.635-2.27.906-3.628 2.239-.689.676-1.169 1.353-1.595 2.25l-.61 1.282v5l.613 1.253c.624 1.276 2.312 3.33 2.738 3.33.128 0 .232.056.232.125 0 .219 1.879 1.007 2.875 1.207l.959.192v2.809h1.146c1.209 0 1.602.206 1.491.78-.098.507-.804.715-2.429.718l-1.542.002v1.834h2.225c2.811 0 3.649-.358 4.11-1.755.574-1.739-.387-3.059-2.543-3.493-1.002-.201-.608-.859.646-1.077 2.474-.431 5.896-3.286 5.896-4.92 0-.4-3.482-.057-3.75.37-2.047 3.264-7.527 2.726-9.187-.903-1.454-3.178-.371-7.062 2.327-8.35 1.292-.616 1.624-.706 2.61-.706.935 0 1.179.061 2.46.616.61.264 1.873 1.501 1.873 1.835 0 .164.441.216 1.833.216 1.009 0 1.834-.039 1.834-.086 0-.758-2.228-3.419-3.334-3.983-2.233-1.138-5.28-1.468-7.25-.785m45.167-.122c-2.896.95-4.899 2.853-5.853 5.559-.656 1.86-.311 5.766.627 7.109.17.244.309.492.309.552 0 .317 1.389 1.706 2.334 2.333 5.448 3.619 12.787.474 13.506-5.788.158-1.375-.024-3.829-.327-4.426-.078-.154-.282-.58-.453-.946-.372-.8-1.127-1.854-1.715-2.393-.513-.47-1.776-1.357-1.933-1.357-.061 0-.348-.101-.636-.225-.289-.123-.793-.311-1.121-.416-.715-.232-4.035-.233-4.738-.002m100 .004c-.275.093-.736.274-1.025.404-.289.129-.572.235-.629.235-.464 0-2.199 1.481-3.126 2.668-1.265 1.621-1.902 5.93-1.159 7.832 1.32 3.375 3.372 5.139 6.731 5.784 8.61 1.655 13.928-9.234 7.366-15.082-.536-.478-1.066-.869-1.177-.869-.112 0-.228-.062-.259-.139-.297-.743-5.189-1.35-6.722-.833m66.833.011c-4.573 1.555-6.732 5.003-6.129 9.785.719 5.692 7.163 8.999 12.472 6.399 1.312-.642 3.16-2.308 3.345-3.015.054-.206.147-.375.206-.375.06 0 .198-.206.307-.458 2.288-5.271-.094-10.658-5.462-12.354-.727-.229-4.048-.217-4.739.018m44.834.107c-.835.289-2.021.821-2.334 1.046-5.254 3.784-4.675 12.375 1.01 14.979 7.802 3.574 15.313-3.902 11.77-11.716-1.617-3.565-6.63-5.633-10.446-4.309M1.333 131.417v8.416h3V123h-3v8.417m11 0v8.416h2.996l.044-6.032.044-6.032 1.25 1.963c.687 1.079 1.327 2.05 1.421 2.157.095.107.5.719.901 1.361.4.642.781 1.204.846 1.25.064.046.513.721.998 1.5s1.259 1.96 1.721 2.625l.841 1.208h2.938V123h-3v12.061l-3.083-4.638c-1.696-2.55-3.083-4.702-3.083-4.78 0-.079-.063-.143-.14-.143-.077 0-.225-.187-.329-.415-.105-.229-.47-.792-.813-1.25l-.623-.835H12.333v8.417m41.5-.016v8.432h2.834v-6.666l2.125-.008c3.603-.012 5.34-.779 6.4-2.826.695-1.341.499-4.145-.363-5.191-1.494-1.813-2.155-2.011-7.037-2.1l-3.959-.073v8.432m19 .016v8.416h3V123h-3v8.417M84 131.401v8.432h3v-6.683l.93.05.929.05.504.917c.277.504.561.991.632 1.083.108.142.479.801 1.406 2.5.1.183.221.371.267.417.047.045.234.37.417.72.486.935.56.963 2.393.911l1.68-.048-.829-1.333c-.456-.734-.88-1.446-.942-1.584-.062-.137-.475-.83-.917-1.54-.442-.709-.803-1.359-.803-1.444 0-.085-.065-.18-.145-.21-.314-.121-.39-.806-.09-.806 2.414 0 4.241-4.307 2.947-6.948-1.133-2.315-2.264-2.749-7.421-2.843L84 122.969v8.432m24.29-6.609c-.334.985-.874 2.523-1.199 3.416-.325.894-.857 2.357-1.183 3.25-.325.894-.74 2.075-.922 2.625-.182.55-.401 1.15-.486 1.334-.085.183-.307.797-.492 1.363-.185.567-.488 1.413-.673 1.881-.481 1.221-.514 1.19 1.207 1.137l1.541-.048.454-1.333c.249-.734.498-1.465.553-1.625.176-.516 6.858-.438 7.071.083.084.206.362.956.617 1.667l.464 1.291h1.546c1.563 0 1.695-.06 1.389-.627-.086-.159-.354-.852-.597-1.539-.242-.688-.505-1.4-.584-1.584-.078-.183-.418-1.158-.755-2.166-.57-1.707-.916-2.686-1.237-3.5-.122-.309-.318-.855-1.442-4-.229-.642-.477-1.282-.551-1.422-.075-.141-.192-.514-.261-.828-.248-1.127-.321-1.167-2.174-1.167h-1.677l-.609 1.792m45.464-1.584c-.039.115-.266.809-.506 1.542-.239.733-.502 1.483-.584 1.667-.174.39-1.492 4.041-2.195 6.083-.268.779-.625 1.792-.793 2.25-.168.458-.547 1.508-.842 2.333-.296.825-.597 1.65-.671 1.834-.384.963-.447.916 1.237.916h1.555l.346-.958c.19-.527.444-1.279.564-1.67l.218-.711 3.47.044 3.471.045.327 1c.18.55.393 1.15.473 1.334.08.183.188.464.239.625.08.25.314.291 1.656.291h1.563l-.282-.791c-.155-.436-.325-.905-.377-1.042-.307-.814-.986-2.725-1.273-3.583-.183-.55-.609-1.75-.945-2.667-.336-.917-.785-2.154-.999-2.75-1.283-3.582-1.946-5.452-2.023-5.708-.112-.37-3.508-.448-3.629-.084m64.746 8.191v8.434h3v-6.666h1.992c5.32 0 8.2-3.137 6.507-7.087-1.062-2.477-2.204-2.937-7.541-3.039l-3.958-.076v8.434m19 .018v8.416h9.5V137.5h-6.5v-5h5.833v-2.333H240.5v-4.834h6.5V123h-9.5v8.417m17.333 0v8.416h8.667V137.5h-5.667V123h-3v8.417m60.167 0v8.416h3v-12.231l1.075 1.657c.591.912 1.137 1.733 1.212 1.824.075.092.543.804 1.039 1.584.497.779.983 1.505 1.08 1.613.098.108.963 1.401 1.923 2.875l1.746 2.678H329V123h-2.833v12.234l-.925-1.409c-.508-.775-1.015-1.521-1.126-1.658-.111-.138-.798-1.188-1.528-2.334-.729-1.145-1.373-2.121-1.432-2.166-.058-.046-.433-.609-.834-1.25-.401-.642-.806-1.25-.9-1.351-.095-.101-.435-.607-.755-1.123l-.584-.939-1.541-.002L315 123v8.417m44.5-8.342c0 .042.084.286.187.542.292.726.396 1.002 1.145 3.05.386 1.054.795 2.141.91 2.416.114.275.302.763.416 1.084.234.652.43 1.152.672 1.708.089.206.276.72.415 1.142.138.423.378 1.06.533 1.417.154.357.297.724.316.816.02.092.222.654.45 1.25s.596 1.571.817 2.167l.403 1.083h3.475l1.4-3.667c.77-2.016 1.459-3.816 1.531-4 .252-.64 1.624-4.346 2.16-5.833.604-1.677.808-2.2 1.023-2.623.29-.57.163-.627-1.413-.627h-1.56l-.348 1.042c-.637 1.906-1.38 4.037-1.526 4.375-.273.634-1.312 3.501-1.419 3.916-.059.23-.171.567-.248.75-.245.584-.807 2.145-1.011 2.807-.288.934-.273.961-1.817-3.473-.287-.825-.594-1.631-.683-1.79-.089-.159-.161-.368-.161-.465 0-.097-.266-.905-.591-1.794-.325-.89-.821-2.256-1.102-3.035-.281-.779-.587-1.623-.68-1.875-.152-.416-3.294-.781-3.294-.383m-298.577 2.479c1.552.601 2.17 2.103 1.513 3.677-.461 1.103-1.073 1.345-3.561 1.41l-2.208.058v-5.366l1.875.013c1.031.007 2.102.101 2.381.208m30.383.133c1.945.808 2.072 3.781.204 4.771-.615.326-.959.375-2.609.375H87v-5.5h1.728c1.382 0 1.898.071 2.578.354m88.527-.088c6.458 2.243 4.603 12.429-2.158 11.85-1.777-.152-4.342-1.752-4.342-2.71 0-.131-.069-.239-.153-.239-.221 0-.544-1.396-.633-2.734-.286-4.301 3.481-7.489 7.286-6.167m45.602-.055c1.371.412 1.895 1.151 1.897 2.673.003 1.714-.982 2.344-3.79 2.425l-2.042.059v-5.368l1.625.003c.894.001 1.933.095 2.31.208m54.182-.021c1.277.521 1.572.697 2.35 1.396 2.283 2.052 2.323 6.844.076 9.028-2.664 2.59-7.788 1.681-8.953-1.588-.152-.427-.347-.906-.433-1.065-1.049-1.936.698-6.396 2.876-7.343.303-.131.738-.319.967-.417.561-.24 2.539-.246 3.117-.011m67.05.076c6.229 2.163 4.875 11.757-1.667 11.806-3.546.026-5.572-2.151-5.571-5.988.001-4.356 3.454-7.132 7.238-5.818m45.024-.027c5.048 1.532 5.441 9.607.559 11.518-4.449 1.742-8.652-2.091-7.655-6.981.502-2.46 1.411-3.526 3.905-4.577.602-.254 2.292-.233 3.191.04m-235.442 3.095c.047.226.408 1.231.749 2.083.227.567.861 2.48.954 2.875l.087.375h-2.529c-1.392 0-2.498-.056-2.459-.125.038-.069.205-.575.37-1.125s.354-1.075.42-1.167c.066-.091.176-.426.244-.744s.181-.693.25-.834c.284-.576.669-1.611 1.115-3.005.073-.226.665 1.008.799 1.667m-44.945-.084c.275.734.549 1.521.609 1.75.059.23.175.567.257.75.083.184.295.784.473 1.334s.376 1.131.441 1.291c.11.271-.072.292-2.479.292h-2.598l.184-.458c.321-.801.434-1.105.724-1.959.358-1.054 1.082-3.063 1.261-3.5.075-.183.186-.509.247-.725.15-.534.298-.329.881 1.225"/><path fill="#f38c23" d="M214.583.178c-.825.073-2.662.214-4.083.314-1.421.1-3.221.253-4 .339-2.796.312-7.354.905-9 1.171-.596.097-1.796.288-2.667.425-.87.137-1.958.322-2.416.411-.459.088-1.471.273-2.25.411-1.637.29-2.805.519-3.75.735-.367.084-1.267.28-2 .435-.734.156-1.596.346-1.917.423-.321.076-1.108.254-1.75.395-.642.14-1.429.325-1.75.412-.321.086-1.446.382-2.5.658-2.519.66-4.633 1.232-6.25 1.69-2.332.661-10.431 3.238-11 3.5-.183.085-1.008.376-1.833.647-1.655.545-8.48 3.148-9.655 3.684-.409.186-.809.339-.888.339-.08 0-.534.187-1.009.416-.475.23-.899.417-.943.417-.044 0-.572.225-1.172.5s-1.122.5-1.159.5c-.037 0-.579.231-1.204.514-1.131.51-1.436.651-4.304 1.99-4.286 2-10.213 5.096-14.425 7.535-2.828 1.637-5.898 3.492-6.408 3.872-.275.205-.737.495-1.026.644-.289.149-.627.368-.75.488-.123.119-.748.546-1.388.948-.641.402-1.257.812-1.369.911-.113.1-.925.669-1.806 1.265-1.377.932-4.65 3.301-5.287 3.826-.114.094-1.07.853-2.124 1.685-2.575 2.035-3.164 2.512-3.578 2.905-.193.184-.836.745-1.428 1.247-3.945 3.345-9.889 9.285-12.517 12.509-.334.41-.769.932-.968 1.161-.7.805-1.928 2.306-2.386 2.915-.069.093-.426.555-.793 1.028-.366.472-1.377 1.897-2.246 3.166s-1.65 2.392-1.735 2.494c-.607.732-3.494 5.811-4.724 8.314-.451.916-.891 1.801-.979 1.966-.319.6-1.779 4.066-2.226 5.284-.253.687-.521 1.4-.596 1.583-.379.922-1.228 3.685-1.408 4.583-.166.824.082.523.962-1.166.406-.779.979-1.83 1.273-2.334.294-.504.576-1.048.628-1.208.051-.16.159-.292.24-.292.081 0 .148-.078.148-.173 0-.177 2.931-4.904 3.975-6.41 1.392-2.009 2.927-4.173 3.014-4.25.052-.046.432-.533.844-1.083.412-.55.787-1.038.834-1.084.046-.046.308-.383.581-.75.608-.817.558-.755 2.424-3 1.612-1.939 1.955-2.334 3.975-4.576 1.704-1.892 7.483-7.642 8.936-8.893.642-.552 1.279-1.123 1.417-1.27.137-.147.662-.602 1.166-1.011.504-.41.954-.784 1-.831.382-.392 2.553-2.144 4.834-3.901 1.512-1.165 2.875-2.221 3.028-2.347.153-.125.429-.308.612-.407.184-.098.433-.275.555-.394.122-.118.505-.389.851-.601.346-.211.721-.472.833-.578.24-.229 4.029-2.741 5.704-3.783.642-.399 1.204-.772 1.25-.829.046-.057.196-.157.333-.222.138-.066.4-.211.584-.323.183-.112.896-.534 1.583-.937.688-.404 1.587-.937 2-1.186.412-.248 1.275-.733 1.917-1.077.641-.344 1.241-.68 1.333-.748.392-.29 8.64-4.502 8.814-4.502.046 0 .894-.379 1.884-.842 2.092-.978 2.035-.952 3.885-1.745.779-.334 1.679-.721 2-.86.321-.14.734-.317.917-.395.687-.29 5.202-2.038 6.083-2.355.504-.181 1.029-.371 1.167-.423 1.248-.469 3.53-1.268 4-1.4.321-.091.958-.304 1.417-.475.458-.17 1.62-.547 2.583-.838.962-.292 1.938-.589 2.167-.662 2.405-.762 6.628-1.925 9.75-2.684.733-.178 1.595-.396 1.916-.483.321-.088 1.109-.277 1.75-.42 1.124-.251 1.774-.398 3.292-.748.39-.09 1.158-.248 1.708-.35 1.114-.208 2.288-.439 3.417-.67.66-.135 1.533-.293 4.5-.815.412-.073 1.575-.252 2.583-.399 1.009-.147 2.321-.346 2.917-.444 1.552-.253 3.098-.459 5.667-.756 1.237-.143 2.812-.325 3.5-.404 10.591-1.224 28.022-1.588 39.75-.832 4.024.26 9.109.663 10.583.84.779.094 2.429.279 3.667.411 2.247.241 3.625.424 5.666.754.596.096 1.871.287 2.834.424.962.137 2.125.311 2.583.388.458.077 1.396.226 2.083.333.688.106 1.55.262 1.917.346.367.085 1.717.348 3 .585 1.283.238 2.671.509 3.083.604.413.094 1.05.237 1.417.316 4.322.94 5.775 1.283 9.417 2.223 4.747 1.224 4.779 1.233 8.5 2.357 3.784 1.144 4.858 1.482 5.916 1.863.642.231 1.504.519 1.917.64.848.249 3.577 1.191 4.083 1.41.184.079 1.196.459 2.25.843 1.793.653 2.242.825 3.084 1.182.183.077 1.345.547 2.583 1.044 2.792 1.121 5.602 2.31 6.917 2.928.55.259 1.375.635 1.833.837 1.253.551 9.699 4.77 10.75 5.369.859.49 1.261.714 3.042 1.692 1.601.879 2.398 1.341 2.817 1.634.243.171.495.31.558.31.155 0 8.103 5.011 8.388 5.287.121.118.384.301.583.406.199.105 1.474.986 2.834 1.958 1.36.971 2.637 1.878 2.837 2.016 1.163.796 7.378 5.683 8.191 6.44.183.17.596.525.917.788.659.54 2.355 2.037 3.986 3.518 1.751 1.591 7.987 7.878 9.261 9.337.641.733 1.279 1.446 1.419 1.583.14.138.665.738 1.168 1.334.502.595.954 1.12 1.002 1.166.164.154 3.576 4.432 3.914 4.907.183.258.492.665.685.906.194.241 1.112 1.525 2.04 2.854.928 1.329 1.752 2.496 1.832 2.592.193.235 3.693 5.755 3.693 5.825 0 .031.458.831 1.018 1.778 1.534 2.594 2.904 5.225 4.998 9.597 1.567 3.27 1.559 2.585-.015-1.375-.072-.184-.452-1.196-.843-2.25-.392-1.055-.887-2.306-1.102-2.781-.214-.476-.39-.908-.39-.96 0-.445-3.967-8.735-5.707-11.926-.325-.596-.73-1.346-.9-1.667-.17-.321-.366-.608-.434-.639-.069-.03-.125-.125-.125-.21 0-.085-.375-.753-.834-1.484-.458-.731-.833-1.366-.833-1.411 0-.167-4.233-6.678-4.5-6.922-.05-.046-.233-.307-.407-.579-.174-.273-.378-.573-.454-.667-.075-.094-.749-.996-1.498-2.004-2.171-2.925-5.698-7.245-7.483-9.167-.426-.458-1.18-1.281-1.675-1.828-1.401-1.548-6.758-6.858-8.411-8.338-.819-.733-1.526-1.371-1.572-1.418-.085-.086-1.912-1.641-2.643-2.249-.221-.184-.485-.413-.588-.51-.268-.254-2.94-2.415-3.593-2.907-.305-.229-.713-.547-.907-.705-.542-.444-.621-.504-1.602-1.209-.505-.362-.955-.702-1-.755-.046-.053-.684-.523-1.417-1.046-.733-.522-1.414-1.016-1.514-1.097-.407-.336-7.37-4.862-9.262-6.021-2.867-1.757-4.714-2.801-9.057-5.12-2.572-1.372-10.428-5.214-10.664-5.214-.031 0-.645-.269-1.363-.598-1.864-.853-2.134-.97-3.807-1.649-.825-.334-1.725-.71-2-.835-.737-.333-6.481-2.548-7.833-3.02-2.236-.78-7.513-2.528-9.25-3.063-.963-.297-2.2-.681-2.75-.853-2.021-.632-3.37-1.024-4.917-1.428-.871-.228-1.808-.477-2.083-.555-1.793-.503-8.218-2.084-9.833-2.42-.55-.114-1.713-.372-2.584-.572-.871-.201-2.183-.479-2.916-.619-.734-.139-1.671-.321-2.084-.403-.412-.082-1.387-.263-2.166-.401-.78-.139-1.792-.325-2.25-.415-1.008-.197-3.628-.637-5-.84-.55-.081-1.488-.23-2.084-.33-.596-.101-1.908-.293-2.916-.429-1.009-.135-2.359-.319-3-.408-3.654-.508-10.334-1.227-13.834-1.489-1.283-.096-3.162-.249-4.176-.34-2.136-.192-15.606-.183-17.824.012"/><path fill="#988480" d="M34.875 135.123c.435.034 1.148.034 1.583 0 .436-.035.079-.063-.791-.063-.871 0-1.227.028-.792.063"/><path fill="#988480" d="M34.875 135.123c.435.034 1.148.034 1.583 0 .436-.035.079-.063-.791-.063-.871 0-1.227.028-.792.063"/><path fill="#988480" d="M34.875 135.123c.435.034 1.148.034 1.583 0 .436-.035.079-.063-.791-.063-.871 0-1.227.028-.792.063"/></g></svg>