<svg xmlns="http://www.w3.org/2000/svg" role="img" viewBox="-2.15 -2.15 111.54 43.16"><g fill="#192d67" fill-opacity="1" fill-rule="nonzero" stroke="none" transform="translate(-386.308 -412.875)"><path d="M411.6251 430.60707h7.86038s.311-1.18163-1.08888-2.95313c-2.76512-2.85737-5.87112-.96237-5.87112-.96237-1.523.80762-3.479 4.16362-2.3315 8.9795 1.43112 4.81689 6.92962 5.8081 10.34612 4.68994 2.26125-.73975 3.565-2.37057 4.19238-3.39357.20175-.82762.34575-1.65525.4365-2.478H411.6251v-3.88237z"/><path d="M404.75459 412.90302c-8.29454.44119-15.69466 6.18167-17.84375 14.65625-2.646 10.43112 3.66359 21.04101 14.09375 23.6875 7.41063 1.87987 14.92525-.76025 19.59375-6.1875-2.05275.49072-4.45512.52344-7.0625-.375-8.73187-3.01514-10.332-11.09563-8.15625-16.75 2.17288-5.65475 9.78125-8.2905 15.0625-4.5 4.52653 3.24638 4.77519 9.03039 4.75 10.625.83301-9.35744-5.19505-18.20752-14.59375-20.59375-1.95564-.49594-3.92962-.66431-5.84375-.5625zm-9.5 17.1875c1.38477 0 2.5 1.11612 2.5 2.5 0 1.38475-1.11523 2.5-2.5 2.5-1.38378 0-2.53125-1.11525-2.53125-2.5.00001-1.38388 1.14747-2.5 2.53125-2.5z"/><path d="M483.44209 421.68427c-1.55087.061-3.13575.31637-4.4375.8125-2.72812 1.11625-4.09375 3.7715-4.09375 6.5625h4.9375c-.12449-1.42575.94625-2.72175 1.9375-3.09375.4355-.18463 1.03513-.3125 1.65625-.3125 1.23926-.06113 2.50675.25587 3.375 1.0625.559.55712.71688 1.2875.53125 2.09375-.3115 1.30225-1.73587 1.75087-3.90625 2.0625-.74462.123-1.6035.189-2.53125.3125-2.6035.31012-6.32087 1.59425-7.1875 5.375-.31012 1.48925-.07362 4.23437 2.21875 6.03125 1.55038 1.1792 3.733 1.71974 5.40625 1.65625.74463 0 1.504-.06299 2.125-.1875 1.73351-.37109 3.07525-1.1665 4.375-2.21875.0625.31006.3775 1.47119.625 1.78125h5.21875c-.80412-1.61133-.6875-3.94874-.6875-5.25v-6.6875c-.061-1.73588-.0655-3.48138-.4375-5.09375-.37362-1.61275-1.78513-4.28463-6.375-4.84375-.86724-.061-1.82075-.0625-2.75-.0625zm4.21875 11.15625c0 .49612.06 4.03512-.25 4.71875-.55912 1.48675-2.10987 2.34814-3.96875 2.53125-.37012.06104-.78812.12352-1.21875.0625-1.24025 0-2.28425-.60113-2.71875-1.53125-.49662-.93025-.1865-1.87838.125-2.4375.74363-1.30125 2.043-1.53513 3.84375-1.90625.55576-.061 1.1635-.18938 1.84375-.375 1.36475-.31 1.66163-.56638 2.34375-1.0625z"/><path d="M447.17885 424.72669c-2.1705-2.41887-5.51912-3.47412-8.92875-2.978-3.10012.49663-5.332 2.23288-6.88237 4.71288-.80663 1.42625-1.36375 3.03862-1.61275 4.58887-.49613 3.78325.55812 10.10647 7.19387 12.58693 3.09863 1.1792 7.00625.74462 9.98188-1.42578 1.67387-1.24023 3.35012-4.03077 3.47225-5.76665h-5.51763c-.187.74463-.62012 1.73588-1.61275 2.4805-2.233 1.61134-4.775.5591-5.89112-.249-1.67338-1.24025-2.2315-3.28612-2.2935-6.20025 0-1.54925.43362-4.02925 1.73637-5.2085 1.42575-1.17862 3.162-1.48725 4.83538-.99212 1.79987.55862 3.16312 2.5425 3.03862 4.33987h-7.812v3.90813h13.51663c.1245-1.42725-.12213-2.7905-.37113-4.09325-.43362-1.92138-1.61187-4.27875-2.853-5.70363z"/><path d="M463.17735 430.49282c-1.67487-.31-3.59625-.3725-4.58737-1.48725-.43463-.49663-.43463-1.36475-.187-1.86138.6825-1.36375 2.35737-1.79837 3.96875-1.67525 1.42575 0 2.7285.74513 3.28612 1.98538.249.4965.3115 1.05462.372 1.61225h4.58738c.0625-1.79888-.68113-3.65875-1.79688-4.83738-1.42675-1.48737-4.77537-3.03762-8.92775-2.4175-2.23437.30913-5.20987 1.61275-6.2035 4.52538-.86825 2.7295 0 5.2085 1.67425 6.51125 2.10938 1.61425 6.07813 2.04637 7.6905 2.41987 1.86025.37113 2.7895.62013 3.0995 1.67238.18713.68362.12463 1.48925-.31 2.04837-1.17825 1.54784-3.59625 1.67235-5.51762 1.11328-1.61225-.49318-2.29488-1.7969-2.605-3.53515h-4.83638c0 1.61375.49563 2.73187 1.30275 4.03319 1.05325 1.67481 2.91363 3.03711 5.64213 3.47168 2.9755.49804 6.01412.12452 7.81337-.8667 1.05325-.62256 1.86038-1.42578 2.5425-2.29492.99175-1.24024 1.86038-4.34325.30913-7.07025-1.36325-2.356-4.46438-2.85113-7.31688-3.34725"/></g></svg>