<svg id="图层_1" data-name="图层 1" xmlns="http://www.w3.org/2000/svg" viewBox="0 0 321.57 72.63"><defs><style>.cls-1{fill:#e83630;}.cls-2{fill:#fff;}.cls-3{fill:#040000;}</style></defs><title>Espressif_Logo_EN_CMYK_02</title><rect class="cls-1" width="72.63" height="72.63"/><path class="cls-2" d="M47.5,69.33a4,4,0,1,1-4-4,4,4,0,0,1,4,4" transform="translate(-20.94 -18.56)"/><path class="cls-2" d="M82.15,65.2A41.13,41.13,0,0,0,47.27,30.32a25.85,25.85,0,0,0-5.75,4.16v3.84A32.68,32.68,0,0,1,74.15,71H78a25.89,25.89,0,0,0,4.16-5.76" transform="translate(-20.94 -18.56)"/><path class="cls-2" d="M85.13,53.16A25.82,25.82,0,0,0,59.31,27.34a26.23,26.23,0,0,0-2.66.15l-.59,1.69a44.44,44.44,0,0,1,27.2,27.19l1.72-.6a26,26,0,0,0,.14-2.61" transform="translate(-20.94 -18.56)"/><path class="cls-2" d="M59.6,83.82a30.69,30.69,0,0,1-21.7-52.4l1.64,1.64A28.37,28.37,0,1,0,79.66,73.19l1.64,1.64a30.49,30.49,0,0,1-21.7,9" transform="translate(-20.94 -18.56)"/><path class="cls-2" d="M59.27,72.73a17.87,17.87,0,0,0-7-16,17.68,17.68,0,0,0-9-3.52,1.61,1.61,0,0,1-1.44-1.75A1.57,1.57,0,0,1,43.59,50,21,21,0,0,1,61.74,76.67L66.4,78a25.62,25.62,0,0,0,4-1.52A30.08,30.08,0,0,0,71,71,29.49,29.49,0,0,0,45.84,41.83a13,13,0,0,0-4.7.06,10.05,10.05,0,0,0-.58,19.32,21.84,21.84,0,0,0,2.53.45h0A9.41,9.41,0,0,1,49.44,76l3.23,2.07a26,26,0,0,0,4.81.81,17.87,17.87,0,0,0,1.79-6.18" transform="translate(-20.94 -18.56)"/><rect class="cls-3" x="287.59" y="17.3" width="5.94" height="39.45"/><path class="cls-3" d="M212.47,58.82a6.49,6.49,0,0,0,1.83-1.22,7.14,7.14,0,0,0,2.1-5.24V42.94a7.14,7.14,0,0,0-2.1-5.24,7.05,7.05,0,0,0-4.77-1.88l-17.13,0V75.35h5.94V59.48h6.11a5.37,5.37,0,0,1,5.29,4.65l2.33,11.21,6.5,0-2.46-10.53c-.73-3.35-1.94-5.11-3.64-6M198.34,41.4v0h10.21a2,2,0,0,1,1.91,2.25v8.08a2,2,0,0,1-1.91,2.25H198.34Z" transform="translate(-20.94 -18.56)"/><path class="cls-3" d="M107,37.74A7.14,7.14,0,0,0,104.9,43V68.22a7.14,7.14,0,0,0,2.1,5.24,7,7,0,0,0,4.77,1.88h16V69.8h-15a2,2,0,0,1-1.91-2.25V57.41h14.8V51.86h-14.8V43.65a2,2,0,0,1,1.91-2.25h15V35.86h-16A7,7,0,0,0,107,37.74" transform="translate(-20.94 -18.56)"/><path class="cls-3" d="M327.48,41.4h15V35.86h-16a7,7,0,0,0-4.77,1.88,7.13,7.13,0,0,0-2.1,5.24V75.22h5.94V57.41h14.8V51.86h-14.8V43.65a2,2,0,0,1,1.91-2.25" transform="translate(-20.94 -18.56)"/><path class="cls-3" d="M150.24,51.86H141a2.12,2.12,0,0,1-2.12-2.12V43.65a2,2,0,0,1,1.91-2.25H155.6V35.86H139.84a7.05,7.05,0,0,0-4.77,1.88A7.14,7.14,0,0,0,133,43v8.19a6.94,6.94,0,0,0,6.94,6.94h9.21a2.12,2.12,0,0,1,2.12,2.12v7.29a2,2,0,0,1-1.91,2.25H133v5.55h17.34a7.05,7.05,0,0,0,4.77-1.88,7.14,7.14,0,0,0,2.1-5.24V58.8a6.94,6.94,0,0,0-6.94-6.94" transform="translate(-20.94 -18.56)"/><path class="cls-3" d="M223.91,37.74a7.14,7.14,0,0,0-2.1,5.24V68.22a7.14,7.14,0,0,0,2.1,5.24,7.05,7.05,0,0,0,4.77,1.88h16V69.8h-15a2,2,0,0,1-1.91-2.25V57.41h14.79V51.86H227.75V43.65a2,2,0,0,1,1.91-2.25h15V35.86h-16a7.05,7.05,0,0,0-4.77,1.88" transform="translate(-20.94 -18.56)"/><path class="cls-3" d="M267.15,51.86h-9.21a2.12,2.12,0,0,1-2.12-2.12V43.65a2,2,0,0,1,1.91-2.25h14.78V35.86H256.75A7.06,7.06,0,0,0,252,37.74a7.14,7.14,0,0,0-2.1,5.24v8.19a6.94,6.94,0,0,0,6.94,6.94H266a2.12,2.12,0,0,1,2.12,2.12v7.29a2,2,0,0,1-1.91,2.25H249.88v5.55h17.34A7.05,7.05,0,0,0,272,73.44a7.14,7.14,0,0,0,2.1-5.24V58.8a6.94,6.94,0,0,0-6.94-6.94" transform="translate(-20.94 -18.56)"/><path class="cls-3" d="M296.25,51.86H287a2.12,2.12,0,0,1-2.12-2.12V43.65a2,2,0,0,1,1.91-2.25h14.78V35.86H285.85a7.05,7.05,0,0,0-4.77,1.88A7.13,7.13,0,0,0,279,43v8.19a6.94,6.94,0,0,0,6.94,6.94h9.21a2.12,2.12,0,0,1,2.12,2.12v7.29a2,2,0,0,1-1.91,2.25H279v5.55h17.34a7.05,7.05,0,0,0,4.77-1.88,7.14,7.14,0,0,0,2.1-5.24V58.8a6.94,6.94,0,0,0-6.94-6.94" transform="translate(-20.94 -18.56)"/><path class="cls-3" d="M180.5,35.81l-18,0V75.35h5.94V60h12a7,7,0,0,0,4.77-1.88,7.13,7.13,0,0,0,2.1-5.24v-10a7.13,7.13,0,0,0-2.1-5.24,7,7,0,0,0-4.77-1.88m.93,16.41a2,2,0,0,1-1.91,2.25h-11V41.36h11a2,2,0,0,1,1.91,2.25Z" transform="translate(-20.94 -18.56)"/></svg>