<?xml version="1.0" standalone="no"?>
<!DOCTYPE svg PUBLIC "-//W3C//DTD SVG 20010904//EN"
 "http://www.w3.org/TR/2001/REC-SVG-20010904/DTD/svg10.dtd">
<svg version="1.0" xmlns="http://www.w3.org/2000/svg"
 width="3388.000000pt" height="2127.000000pt" viewBox="0 0 3388.000000 2127.000000"
 preserveAspectRatio="xMidYMid meet">
<metadata>
Created by potrace 1.16, written by Peter Selinger 2001-2019
</metadata>
<g transform="translate(0.000000,2127.000000) scale(0.100000,-0.100000)"
fill="#000000" stroke="none">
<path d="M10320 14169 c-524 -45 -1076 -227 -1535 -506 -397 -241 -783 -603
-1051 -983 -220 -312 -397 -679 -504 -1046 -92 -315 -130 -569 -137 -921 -8
-375 20 -634 103 -956 372 -1446 1586 -2495 3069 -2652 163 -17 554 -20 706
-5 781 78 1489 396 2076 930 102 93 296 300 289 308 -3 2 -53 -8 -113 -22
-251 -59 -511 -79 -738 -57 -556 56 -1135 322 -1532 704 -415 400 -649 934
-670 1527 -20 570 157 1108 482 1467 435 481 1142 715 1760 584 356 -76 648
-240 910 -512 302 -313 492 -719 574 -1227 24 -146 44 -390 39 -487 l-3 -70
-1232 -3 -1233 -2 0 350 0 350 721 0 722 0 -6 83 c-8 117 -22 167 -79 287 -47
96 -60 114 -157 210 -117 116 -203 171 -332 214 -290 97 -639 30 -831 -157
-347 -338 -479 -1053 -296 -1602 154 -462 533 -771 1064 -866 168 -30 450 -30
614 -1 212 38 385 107 551 217 344 229 554 587 615 1049 20 148 14 527 -11
706 -85 628 -315 1192 -684 1685 -611 813 -1525 1316 -2551 1405 -134 11 -462
11 -600 -1z m-1367 -3216 c179 -84 272 -276 222 -459 -67 -247 -335 -370 -559
-257 -116 59 -208 189 -221 316 -17 155 74 321 214 392 71 36 115 45 202 41
60 -2 89 -9 142 -33z"/>
<path d="M16883 12580 c-418 -29 -804 -196 -1091 -474 -242 -234 -409 -513
-525 -873 -79 -244 -107 -425 -107 -690 0 -650 250 -1228 693 -1600 365 -306
836 -483 1287 -483 473 0 983 190 1282 478 255 246 469 624 513 910 l7 42
-509 0 -509 0 -12 -46 c-19 -70 -76 -181 -133 -257 -93 -123 -242 -222 -405
-269 -113 -32 -302 -32 -428 1 -433 113 -672 388 -757 871 -26 147 -37 491
-20 635 69 587 363 915 843 942 283 16 530 -92 705 -307 101 -124 173 -310
173 -447 l0 -63 -710 0 -710 0 0 -360 0 -360 1234 0 1233 0 6 88 c8 112 -7
333 -33 482 -89 507 -341 1017 -648 1312 -287 275 -676 438 -1116 468 -78 5
-143 9 -146 8 -3 0 -56 -4 -117 -8z"/>
<path d="M24795 12583 c-710 -44 -1165 -334 -1339 -855 -36 -107 -67 -268 -73
-385 l-6 -103 455 0 455 0 6 78 c16 203 133 376 311 462 128 61 197 74 371 73
119 0 166 -5 230 -22 190 -51 335 -152 397 -279 31 -62 33 -74 33 -167 0 -88
-3 -106 -27 -155 -68 -139 -231 -227 -529 -285 -68 -13 -245 -38 -394 -55
-148 -17 -326 -42 -395 -56 -577 -118 -965 -421 -1104 -861 -92 -293 -34 -664
147 -935 182 -273 508 -471 882 -534 129 -22 398 -29 525 -15 333 38 651 163
897 352 42 32 80 59 83 59 3 0 17 -44 32 -98 14 -54 38 -124 52 -155 l25 -57
480 0 c265 0 481 1 481 3 0 2 -11 30 -24 63 -35 86 -63 201 -81 339 -14 103
-17 233 -16 935 2 998 -12 1333 -69 1685 -23 142 -45 209 -104 321 -171 322
-501 544 -913 614 -181 31 -564 47 -788 33z m886 -2573 c-13 -220 -24 -276
-68 -370 -47 -99 -166 -219 -269 -273 -165 -85 -365 -131 -569 -130 -153 1
-247 22 -356 79 -149 78 -236 200 -246 341 -10 135 49 287 149 387 126 126
265 178 704 265 380 76 507 116 619 198 l40 30 3 -176 c2 -97 -2 -255 -7 -351z"/>
<path d="M20830 12570 c-420 -32 -776 -173 -1020 -407 -206 -196 -311 -417
-341 -718 -32 -317 72 -627 280 -836 212 -211 577 -348 1266 -474 505 -93 598
-121 698 -214 50 -47 73 -93 87 -174 15 -82 0 -190 -35 -263 -58 -118 -206
-221 -393 -272 -89 -24 -112 -26 -287 -26 -173 0 -199 3 -287 27 -244 65 -391
204 -476 448 -17 47 -36 114 -43 148 l-12 61 -443 0 -444 0 0 -47 c0 -129 57
-351 130 -508 74 -160 200 -339 307 -435 82 -73 249 -183 359 -236 286 -137
595 -193 1008 -181 448 13 749 95 1018 279 274 187 455 477 514 823 25 145 16
396 -19 527 -29 108 -86 237 -143 324 -82 124 -242 253 -407 329 -225 103
-374 139 -1187 280 -352 62 -498 132 -567 274 -23 46 -27 69 -28 136 0 71 4
88 33 147 85 172 294 279 577 294 323 17 569 -95 700 -320 35 -60 74 -184 82
-263 l8 -68 423 -3 422 -2 0 62 c0 311 -166 692 -383 881 -330 288 -871 446
-1397 407z"/>
</g>
</svg>
