<?xml version="1.0" encoding="UTF-8"?>
<svg id="evas" data-name="evas" xmlns="http://www.w3.org/2000/svg" width="1883" height="458.3" viewBox="0 0 1883 458.3">
  <defs>
    <style>
      .color {
        fill: #000000;
      }
    </style>
  </defs>
  <path class="color" d="m409.5,0c0,14.8,0,29.7,0,44.5,0,11.6,0,23.1,0,34.7v3.1H111.8c0-1.1,0-2.1,0-3.1,0-25.4,0-50.8,0-76.2,0-1-.2-2-.3-2.9,99.3,0,198.7,0,298,0Z"/>
  <path class="color" d="m1883,456.1c-1,0-2-.3-3-.3-20.8,0-41.5,0-62.3,0s-2,0-3,0v-94.1h66.4v13.3h-51.5v24.7h40.8v13.7h-40.8v28.5c1,0,1.9.1,2.9.1,15.8,0,31.5,0,47.3,0,1.1,0,2.1.5,3.2.8v13.1Z"/>
  <path class="color" d="m1583.5,156.2h298.7v150.6h-298.7v-53.4h3.1c79.5,0,158.9,0,238.4,0q3.6,0,3.6-3.5c0-13.3,0-26.6,0-40.1h-245.1v-53.6Z"/>
  <path class="color" d="m582.4,253.3h245.1v53.5h-298.7v-150.6h298.7v53.4h-245.1v43.7Z"/>
  <path class="color" d="m111.8,457.2v-32.2c0-4.1,0-8.2,0-12.3-.2-10.4-3.8-19.5-11.2-26.7-5.9-5.8-13.2-9.8-21.6-10.1-14.3-.5-28.7-.5-43-.6-11.7,0-23.3,0-35.2,0v-82.2h111.3v2.9c0,13.6.2,27.1,0,40.7-.3,14.6,6.2,25.3,18.2,33.2,5.6,3.7,11.8,5.2,18.5,5.2,60.7,0,121.4,0,182,0,25.2,0,50.5,0,75.7,0h3.1v82.2H111.8Z"/>
  <path class="color" d="m111.8,269.7c0-14.2,0-28.2,0-42.3,0-3.9-.6-7.9-1.3-11.7-1.5-8.4-6.4-14.8-12.9-20-7.1-5.7-15.4-8-24.5-8-23.1,0-46.1,0-69.2,0H.7v-82.3h111.4v2.9c0,13.8.1,27.7,0,41.5-.2,14,6.2,24.3,17.4,32,6.3,4.3,13.3,5.7,20.9,5.7,85.2,0,170.4,0,255.6,0h3.4v82.3H111.8Z"/>
  <path class="color" d="m1538.6,307c-22.1,0-44,0-65.8,0-.7,0-1.6-.6-2-1.3-7.7-13.2-15.3-26.5-23-39.7-13.9-24-27.7-48-41.6-72-11.7-20.2-23.4-40.4-35-60.7-3-5.2-6-10.3-9.2-15.9-36.7,63.4-73.2,126.4-109.7,189.5h-67.1c1.8-3.3,3.5-6.5,5.3-9.6,4.3-7.4,8.6-14.7,12.9-22.1,4.9-8.5,9.8-17,14.8-25.6,6.4-11.1,12.8-22.2,19.2-33.4,13.7-23.7,27.3-47.3,41-71,7.7-13.3,15.2-26.6,22.9-39.9,7.8-13.5,16-26.7,23.3-40.4,2.6-5,5.4-6.4,10.8-6.3,18.4.4,36.8.3,55.2,0,3.7,0,5.7,1.2,7.4,4.2,6.5,11.6,13.1,23.1,19.7,34.5,8.3,14.3,16.7,28.6,25,42.9,10.1,17.4,20.1,34.9,30.2,52.3,6.4,11,12.8,22.1,19.2,33.1,5.3,9.2,10.4,18.4,15.6,27.5,6.3,11,12.8,21.8,19.1,32.8,3.9,6.8,7.8,13.7,11.8,20.8Z"/>
  <path class="color" d="m1225.3,59c-3.1,5.4-6.1,10.7-9.1,15.9-3.8,6.6-7.7,13.2-11.6,19.8-4.5,7.7-9,15.5-13.5,23.2-4.5,7.8-8.9,15.7-13.4,23.6-4.4,7.6-8.9,15.2-13.3,22.8-3.6,6.2-7.2,12.5-10.8,18.7-4.7,8.1-9.5,16.2-14.2,24.4-4.9,8.6-9.6,17.2-14.5,25.7-13.8,24-27.6,47.9-41.4,71.9-.8,1.4-1.8,2-3.6,2-20.6,0-41.2,0-61.8,0-2.3,0-3.5-.5-4.7-2.8-7.6-13.6-15.6-27-23.5-40.5-6.6-11.3-13.2-22.5-19.7-33.8-5.5-9.6-10.9-19.3-16.4-28.8-5.1-8.8-10.3-17.6-15.4-26.4-5.1-8.8-10.1-17.7-15.2-26.5-5.1-8.8-10.3-17.6-15.4-26.4-5.1-8.7-10-17.5-15.1-26.3-5.1-8.9-10.3-17.8-15.5-26.7-1.8-3.2-3.6-6.4-5.5-9.9h2.8c20.6,0,41.2,0,61.8,0,1.6,0,2.7.3,3.7,1.9,3.8,6.9,7.9,13.7,11.9,20.5,4.4,7.6,8.9,15.2,13.3,22.8,3.8,6.5,7.5,13.1,11.3,19.6,4.4,7.7,8.9,15.3,13.3,23,4.3,7.5,8.6,15.1,12.9,22.6,7.4,12.9,14.9,25.7,22.4,38.5,7.3,12.7,14.6,25.4,21.9,38.1.4.7.9,1.3,1.6,2.3,2.3-3.9,4.4-7.6,6.5-11.3,8.4-14.6,16.7-29.3,25.1-43.9,7.4-12.9,14.9-25.7,22.4-38.5,7.8-13.4,15.7-26.8,23.5-40.3,6.6-11.4,13.1-22.9,19.6-34.3,3.8-6.6,7.7-13.2,11.6-19.8.4-.6,1.3-1.2,2-1.2,21.8,0,43.7,0,65.8,0Z"/>
  <path class="color" d="m827.7,59.2v53.2h-298.8v-53.2h298.8Z"/>
  <path class="color" d="m1583.4,112.3v-53.2h298.8v53.2h-298.8Z"/>
  <path class="color" d="m1553.5,389.5v66.2h-14.8v-94.1c3.9,0,7.8,0,11.7,0,.6,0,1.3.5,1.7,1,14.3,18.5,28.5,37,42.8,55.5,2.7,3.4,5.4,6.8,8.6,10.8v-67.2h15v94.3c-4.1,0-8.1.2-12.1-.1-1.1,0-2.1-1.6-3-2.7-6.6-8.5-13.2-17-19.8-25.6-6.6-8.6-13-17.2-19.6-25.7-3.2-4.2-6.5-8.4-9.8-12.6-.2-.2-.4-.3-.7-.5l-.2.6Z"/>
  <path class="color" d="m618.5,389.5v66.2h-14.8v-94.1c3.9,0,7.8,0,11.7,0,.6,0,1.3.5,1.7,1,14.3,18.5,28.5,37,42.8,55.5,2.7,3.4,5.4,6.8,8.6,10.8v-67.2h15v94.3c-4.1,0-8.1.2-12.1-.1-1.1,0-2.1-1.6-3-2.7-6.6-8.5-13.2-17-19.8-25.6-6.6-8.6-13-17.2-19.6-25.7-3.2-4.2-6.5-8.4-9.8-12.6-.2-.2-.4-.3-.7-.5,0,.2-.2.4-.2.6Z"/>
  <path class="color" d="m1344.4,419.8h-18.4v-13.5h33.1c0,.8.1,1.5.1,2.3,0,9.6,0,19.3,0,28.9,0,1.3-.7,3-1.6,4-7.5,8.3-17.2,13.1-28,14.9-9.4,1.7-19.2,1.8-28.4-1.6-5.6-2-10.7-5.1-15.4-9-7.6-6.3-12.5-14.2-15.3-23.5-2.2-7.3-1.9-14.8-.9-22.3.9-6.8,3.5-13,7.5-18.5,8.6-11.9,20-19,34.9-20.6,15.8-1.7,29.5,2.6,41.2,13.2,1.5,1.3,2.7,2.9,4.1,4.6-3,2.9-5.8,5.8-8.7,8.5-.3.3-1.5.1-1.9-.2-6.3-6.8-13.9-10.8-23.1-12.3-15.8-2.5-29.1,5.5-35.8,17.7-6.6,12-5.3,27.5,3.5,38.3,5.5,6.8,12.5,11.6,21.2,12.6,8.9,1,17.8.6,25.7-4.7,1.5-1,3.1-1.7,4.5-2.9.8-.6,1.6-1.7,1.6-2.6.2-4.3,0-8.7,0-13.5Z"/>
  <path class="color" d="m910.3,413.6h-40.7v28.6h52.7v13.6h-67.5v-94h66.4v13.4h-51.6v24.6h40.7v13.8Z"/>
  <path class="color" d="m1431.6,375.2v24.6h40.8v13.6h-40.7v28.7h52.7v13.5h-67.7v-93.8h66.4v13.4h-51.6Z"/>
  <path class="color" d="m1753.1,429.5c3,3,6,6,9.1,9-6.3,12.1-32,21.7-47.3,18.8-25.8-4.9-39.4-24.4-41.2-41.9-2.7-26.4,11.7-44.6,30.6-51.6,22.6-8.3,46-.5,57.5,15.1-2.8,2.7-5.6,5.4-8.3,8.2-1,1-1.3.9-2.4-.3-6.1-6.8-13.8-10.7-22.9-12.1-15.7-2.5-29,5.5-35.8,17.8-6.6,11.9-5.3,27.6,3.7,38.5,5.6,6.8,12.6,11.4,21.3,12.5,9.1,1.1,18,0,25.7-5.7,3.4-2.5,6.6-5.4,10-8.2Z"/>
  <path class="color" d="m761.5,375.2h-28.1v-13.5h71v13.4h-27.9v80.5h-15v-80.4Z"/>
  <path class="color" d="m1087.6,455.7v-94h14.7v80.3h45.3v13.7h-60Z"/>
  <path class="color" d="m976,455.7v-94h14.7v80.3h45.3v13.7h-60Z"/>
  <path class="color" d="m1213.7,455.8h-14.6v-94h14.6v94Z"/>
  <path class="color" d="m528.9,361.7h14.6v94h-14.6v-94Z"/>
</svg>