<?xml version="1.0" encoding="UTF-8"?>
<svg id="evas-1" xmlns="http://www.w3.org/2000/svg" viewBox="0 0 1915 234.2">
  <defs>
    <style>
      .color {
        fill: #000000;
      }
    </style>
  </defs>
    <path class="color" d="m0,149.7c18.6,0,37.3,0,55.9,0,.3,0,.5.1,1,.2,0,7.4,0,14.8,0,22.3,0,3.8.7,7.3,2.9,10.5,4.2,6.1,9.9,8.9,17.4,8.9,42.6,0,85.2,0,127.8,0h3.5v41.8H56.9c0-.7-.1-1.5-.1-2.3,0-6.4,0-12.9,0-19.3,0-12-9.1-19.9-20.2-20-12.2-.1-24.3,0-36.5,0v-42Z"/>
    <path class="color" d="m0,54.1h56.9c0,7.6,0,14.9,0,22.2,0,4.8.9,8.9,4.2,12.7,3.9,4.3,8.3,7.1,14.3,7,16.2,0,32.5,0,48.7,0,27,0,54,0,81.1,0s2,0,3.2,0v41.8H56.7c0-1.1,0-2.2,0-3.2-.3-7.9-.2-15.7-.9-23.5-.7-7.4-7.8-14-15.3-14.3-13.5-.5-27-.5-40.5-.7v-42Z"/>
    <path class="color" d="m668.6,234.2c-3.1-.9-6.6-1.4-9.4-2.9-8.1-4.4-13.2-11-13.3-20.6-.1-5.5.5-10.7,3.8-15.3,5.7-7.9,15.1-12.1,25.1-10.5,6.6,1.1,11.7,3.9,16,8.6-.1.3-.1.5-.2.7-1.4,1.4-2.6,3.4-4.2,3.8-1,.3-2.6-1.9-4.1-2.9-6.9-4.5-16.5-4.8-22.7.7-8.8,7.8-8.2,20.4.7,27.4,7.1,5.6,15.3,4.5,22.4,0,.7-.5,1.2-1.7,1.4-2.7.2-1.7,0-3.5,0-5.6-2.3,0-4.6-.1-6.8,0-2.1.1-2.8-.7-2.6-2.7.1-1.4,0-2.8,0-4.5h17.3c0,5.6,0,11,0,16.4,0,.8-.7,1.7-1.3,2.2-4.6,4.1-9.9,6.8-16.2,7.4-.3,0-.5.3-.8.5-1.7,0-3.3,0-5,0Z"/>
    <path class="color" d="m875,234.2c-3.1-.9-6.6-1.4-9.4-2.9-8.1-4.4-13.2-11-13.3-20.6-.1-5.5.5-10.7,3.8-15.3,5.7-7.9,15.1-12.1,25.1-10.5,6.6,1.1,11.7,3.9,16,8.6,0,.3,0,.6-.2.7-1.4,1.4-2.6,3.4-4.2,3.8-1,.3-2.6-1.9-4.1-2.9-7.4-4.6-16.6-5.2-23.3,1.2-8.2,7.8-7.7,19.8,1.3,26.9,7.6,6,16.6,5.1,23.7-1.7,2.5-2.3,2.8-2.2,6,1.3,2,2.2,0,3.2-1.2,4.2-4.4,3.7-9.2,6.6-15.2,6.8-.2,0-.3.3-.5.5-1.5,0-3,0-4.4,0Z"/>
    <path class="color" d="m1698.6,230.8h-168.5v-85.9h168.5v85.9Zm-144.9-20.9h121.4v-12.4h-121.4v12.4Zm121-31.6v-12.5h-121.5v12.5h121.5Z"/>
    <path class="color" d="m1724.4,232.1v-124.5h93.3c0,1,.1,1.9.1,2.8,0,33.6,0,67.2,0,100.8,0,6.1-1.4,11.9-6,16.5-3.4,3.4-7.7,4.4-11.9,4.6-7.4.4-14.9.1-22.5.1v-22c3.2,0,6.5-.3,9.6,0,5.2.5,7.1-3.4,7.4-7.2.1-1.6,0-3.1,0-4.9h-46.4v33.6h-23.6Zm69.8-102.7h-46.2v13.5h46.2v-13.5Zm-46.2,47.9h46.3v-13.4h-46.3v13.4Z"/>
    <path class="color" d="m806.5,157v-27.2h124.8v-22h-124.7v-27.3h151.9v76.5h-152Z"/>
    <path class="color" d="m269,157v-76.5h152v27.1h-124.8v22.1h124.8v27.3h-152.1Z"/>
    <path class="color" d="m1165.1,64.9h-51.1v-21.6h79.2v-12.2h23.2v11.9h80.2v21.9h-48v3.2c0,15.8.1,31.7,0,47.5,0,3.8-1.2,7.6-2.1,11.2-1.6,6.1-6.5,9.1-12.1,9.4-9.9.6-19.8.2-29.9.2v-21.5c3.5,0,6.9.2,10.4,0,2-.1,3.9-.9,5.8-1.6,3.1-1.2,4.2-4,4.2-6.8.2-13.7,0-27.4,0-41.2h-36.1c0,6.5.2,12.9,0,19.2-.4,10-1.7,19.9-5.7,29.1-5.6,12.9-15.9,20.4-29.5,23.5-2.2.5-4.5.8-7.1,1.3,0-6.4.3-12.4-.1-18.5-.2-3.4.8-4.9,3.8-6.4,7.7-3.8,12.3-10.3,13.7-18.8.6-3.5,1-7.1,1.1-10.7.2-6.2,0-12.4,0-18.9Z"/>
    <path class="color" d="m783.2,157.1c-11.5,0-22.2,0-33,0-.8,0-1.8-.7-2.2-1.4-8-13.6-16-27.3-23.9-41-6.3-11-12.5-22.1-18.8-33.1-3.9-6.8-7.9-13.5-12.1-20.6-2,3.6-3.9,6.8-5.8,10.1-9.2,15.7-18.4,31.3-27.5,46.9-6.7,11.5-13.3,23.1-19.9,34.7-.7,1.2-1.1,2.4-2,3.5-.5.6-1.5,1.1-2.2,1.1-10.7,0-21.4,0-32.7,0,1.4-2.7,2.7-5.1,4-7.4,6.4-11.3,12.9-22.5,19.4-33.7,5.5-9.6,11.1-19.3,16.6-28.9,5.9-10.2,11.9-20.3,17.8-30.4,4.4-7.6,8.8-15.3,13.1-23,1.1-1.9,2.2-2.9,4.6-2.8,9.8.2,19.6.1,29.3,0,1.7,0,2.7.6,3.4,1.9,7.8,13.5,15.6,27,23.4,40.6,8,13.8,16,27.7,24,41.5,4.9,8.5,9.7,17,14.6,25.5,3.1,5.5,6.3,10.9,9.7,16.8Z"/>
    <path class="color" d="m443.7,30.9c1.6,0,2.9,0,4.1,0,9.3,0,18.6,0,27.9,0,1.7,0,2.7.6,3.4,1.9,3.8,6.6,7.5,13.3,11.3,19.9,4.3,7.6,8.8,15.1,13.1,22.6,3.9,6.8,7.8,13.5,11.7,20.3,4.5,7.7,9,15.3,13.4,23,1.6,2.8,3.2,5.7,5,8.8,6-10.7,11.7-20.9,17.6-31.1,7-12.2,14.3-24.2,21.4-36.4,5.3-9.1,10.5-18.2,15.8-27.2.5-.9,1.9-1.7,2.9-1.8,10.7-.1,21.4,0,32.5,0-2.2,3.9-4.3,7.7-6.4,11.4-7.3,12.7-14.6,25.4-22,38-7.6,13.1-15.4,26.1-23,39.2-5.9,10.2-11.7,20.5-17.6,30.8-.3.5-.8,1-1,1.6-1.5,5.3-5.3,5.6-10,5.4-8.4-.3-16.8-.2-25.2,0-1.7,0-2.6-.6-3.4-2-8.6-15.1-17.3-30.2-26-45.3-8.6-14.8-17.3-29.6-25.9-44.4-6.4-11-12.6-22-18.9-33.1-.2-.4-.4-.7-.7-1.4Z"/>
    <path class="color" d="m1110.9,232.2v-22.1c2.6-.3,5.2-.7,7.8-.8,14-.4,27.6-3.1,40.8-7.8,9.4-3.4,17.6-8.9,24.5-16.2,1.2-1.3,2.2-2.8,3.5-4.5h-74.2v-21.7h80v-12.5h23.6v12.2h80.3v21.9h-2.8c-25.6,0-51.3,0-76.9,0-1.9,0-2.8.4-3.6,2.3-4.6,11.4-12.6,20.1-22.4,27.3-12.6,9.2-26.7,14.9-41.9,17.9-9.5,1.8-19,3.4-28.7,3.4-3.2,0-6.3.5-9.8.8Z"/>
    <path class="color" d="m208.5.7v41.6H56.9V.7h151.6Z"/>
    <path class="color" d="m1557.8,77.6v-17.9h-35.2c0-5.2-.1-10.2,0-15.2,0-1.1,1.3-2.3,2.1-3.3,2.4-2.9,4.8-5.9,7.5-8.6,1-1,2.6-1.7,4-1.7,7.3-.2,14.6,0,22.2,0-1.6,2.6-3.1,5.1-4.9,8h63v20.7h-35.5v17.9h37.8v20.6h-2.9c-11,0-22,0-32.9,0-1.7,0-2.7.4-3.3,2.1-3.9,10.6-11,18.8-20.5,24.6-4.9,3-10.4,5-15.8,6.8-6.2,2-12.7,3.4-19.1,4.9-1.2.3-2.5,0-3.9,0v-21.9c11.9-2.4,23.8-5.1,31.8-16.3h-29.9v-20.4h35.4Z"/>
    <path class="color" d="m1507.6,121.8h-30.4v3.2c0,26.7,0,53.4,0,80.1,0,12.5-7.6,21.7-19.5,25.1-1.3.4-2.7.3-4.1.3-13.3,0-26.6,0-39.8,0-.4,0-.7,0-1.2,0v-21.5c.7,0,1.5-.1,2.3-.1,8.7,0,17.3,0,26,0,7.8,0,12.7-5.6,12.8-12,.2-24.8,0-49.5,0-74.3,0,0,0-.2-.3-.5h-63.5v-21.6h2.7c37.3,0,74.5,0,111.8,0,2.7,0,3.4.8,3.3,3.4-.2,5.9,0,11.9,0,18.2Z"/>
    <path class="color" d="m1706.3,133.1h-76.5V38.8h76.5v94.3Zm-23.4-20.8v-52.9h-29.5v52.9h29.5Z"/>
    <path class="color" d="m1359.3,231.4h-23.5v-110.9c-8.2,3.6-15.9,7.1-23.9,10.6,0-1.1-.2-1.8-.2-2.6,0-6.3,0-12.5,0-18.8,0-1.4.3-2.3,1.7-2.9,9.8-4.3,19.7-8.6,29.4-13,6.6-2.9,13.1-6,19.6-8.9,5-2.3,10-4.5,15.4-6.8,0,7.8,0,15.2,0,22.7,0,.5-.5,1.2-.9,1.4-5.3,2.4-10.7,4.8-16,7.3-.7.3-1.2,1.2-1.6,2-.2.4,0,1.1,0,1.6v118.3Z"/>
    <path class="color" d="m958.6,31.1v27.1h-152v-27.1h152Z"/>
    <path class="color" d="m421.1,31.1v27.1h-152v-27.1h152Z"/>
    <path class="color" d="m1765.1,31.5c-6.1,13.9-12,27.5-18,41.3h47.4c-3.2-9.9-6.3-19.7-9.6-30,9,0,17.4,0,25.8,0,.5,0,1.4.8,1.6,1.3,3.1,8.8,6.3,17.6,9,26.5.8,2.5.2,5.5.2,8.2,0,5.1,0,10.3,0,15.6h-100.7c0-8-.2-15.9.1-23.8,0-2.1,1.7-4.2,2.6-6.3,3.5-8.3,7-16.6,10.6-24.9,1-2.4,2.1-4.7,3.4-6.9.3-.6,1.4-1.1,2.1-1.1,8.4,0,16.8,0,25.5,0Z"/>
    <path class="color" d="m1832.7,32.4h23.4v3.1c0,19.5,0,39,0,58.5,0,5,2.4,7.8,5.7,8.9.9.3,2,.4,2.9.4,15.6,0,31.2,0,46.7,0,2.4,0,3.2.6,3.1,3.1-.2,6.1,0,12.3,0,18.6-1.3,0-2.4.2-3.5.2-19.9,0-39.8-.3-59.7.2-8,.2-16.8-6.1-18.3-13.6-.1-.6-.4-1.2-.4-1.8,0-25.6,0-51.1,0-76.7,0-.2,0-.4.1-.7Z"/>
    <path class="color" d="m1914.4,209c0,6.9,0,13.3,0,19.8,0,1.6-.6,2.2-2.1,2.1-1.7,0-3.3,0-5,0-19.1,0-38.2-.2-57.2,0-9.2.2-17.8-9-17.7-17.8.3-24,.1-48,.1-72v-3h23.5v7.3c0,18,0,36.1,0,54.1,0,2,.5,4.2,1.4,6,1.5,3,4.5,3.6,7.7,3.6,15.3,0,30.6,0,45.9,0h3.3Z"/>
    <path class="color" d="m1502.7,41.3v21.2h-108.2v-21.2h108.2Z"/>
    <path class="color" d="m1218.8,183c7.2,2.2,14.3,4.4,21.3,6.6,19.3,6,38.6,12,57.9,18.1.7.2,1.7,1.4,1.7,2.1.1,7.8,0,15.6,0,24-2.7-.8-5.2-1.5-7.7-2.2-13.5-4.2-26.9-8.5-40.4-12.7-10.3-3.2-20.5-6.4-30.8-9.6-.9-.3-2.1-1.4-2.1-2.1-.2-8,0-16,0-24.1Z"/>
    <path class="color" d="m1035.7.6h6.6v232.9h-6.6V.6Z"/>
    <path class="color" d="m1377.9,33c0,7.8,0,15.1,0,22.4,0,.7-.6,1.6-1.1,1.9-3.6,1.8-7.3,3.4-11,5-7.1,3.2-14.1,6.3-21.2,9.4-9.4,4.2-18.9,8.3-28.4,12.4-1.4.6-2.7,1.3-4.4,2.1,0-7.8,0-15.3,0-22.8,0-.6.7-1.4,1.3-1.6,13.2-5.9,26.4-11.7,39.6-17.7,7.9-3.5,15.8-7.2,23.7-10.7.3-.1.6-.2,1.5-.5Z"/>
    <path class="color" d="m1864.2,190.2v-24.3c16.6-7.7,33.2-15.5,50.3-23.4v17c0,7.9,0,7.8-7.3,11-8,3.5-15.8,7.3-23.8,11-6.3,2.9-12.6,5.7-19.2,8.8Z"/>
    <path class="color" d="m1864.1,83.4c0-7.8,0-15.1,0-22.5,0-1.8.9-2.3,2.2-2.9,14.6-6.8,29.2-13.6,43.8-20.4,4.5-2.1,4.4-2.1,4.4,2.7s0,11.4,0,17.1c0,1.8-.6,2.8-2.2,3.6-8.5,3.9-16.9,7.9-25.4,11.9-7.5,3.5-15,7-22.8,10.6Z"/>
    <path class="color" d="m790.8,199.1v33.8h-7.5v-47.7c3.5-.4,6.5-.6,9.1,3.1,6.8,9.5,14.1,18.6,21.2,27.8.7.9,1.5,1.7,2.7,3v-33.9h7.6v47.9c-2,0-3.9,0-5.8,0-.6,0-1.3-.3-1.6-.8-5.2-6.7-10.4-13.3-15.5-20-3.3-4.2-6.5-8.5-10.1-13.2Z"/>
    <path class="color" d="m307.3,185c.8,0,1.4,0,2,0,3-.5,5,.6,6.8,3.1,7,9.5,14.3,18.8,21.5,28.2.7.8,1.5,1.6,2.5,2.7v-33.8h7.6v47.9c-2,0-3.9,0-5.8,0-.6,0-1.3-.3-1.6-.8-5.2-6.7-10.4-13.3-15.5-20-3.3-4.2-6.5-8.5-10-13v33.6h-7.7v-47.8Z"/>
    <path class="color" d="m1133.3,124.8h-19.8c2.1-14.6,4.2-29.2,6.3-44h19.8c-.9,14.8-2.3,29.6-6.4,44Z"/>
    <path class="color" d="m1277,124.8c-1.5-14.9-3.5-29.6-7.9-44.1,6.5,0,13,0,19.5,0,.5,0,1.2.8,1.3,1.3,1.4,5.5,2.9,11.1,4,16.7,1.1,5.9,2,11.9,2.8,17.9.4,2.7.4,5.4.6,8.2h-20.3Z"/>
    <path class="color" d="m728.9,211.3v14.6h26.9v6.9h-34.5v-47.7h33.5v6.8h-26.3v12.3h20.7v7h-20.3Z"/>
    <path class="color" d="m435.2,185.1h33.4v6.9h-26.2v12.3h20.7v7.2h-20.2v14.5h26.8v7h-34.4v-47.8Z"/>
    <path class="color" d="m924.4,185.1h33.4v6.7h-26.3v12.5h20.7v7h-20.3v14.5h26.3v7.1h-34v-47.8Z"/>
    <path class="color" d="m1580.8,100.3c5,1.7,9.5,3.1,13.9,4.7,7.5,2.7,14.9,5.5,22.4,8.1,1.6.5,2.2,1.1,2.2,2.8,0,5.6-.1,11.2,0,16.8,0,2.5-1.1,2.6-2.9,1.9-10.4-3.7-20.8-7.5-31.3-11.2-4.5-1.6-4.4-1.6-4.4-6.5,0-5.4,0-10.8,0-16.7Z"/>
    <path class="color" d="m373.1,191.9v-6.7h35.8v6.7h-13.8v41.1h-7.6v-41h-14.4Z"/>
    <path class="color" d="m527.8,226v6.9h-30.6v-47.7h7.5v40.8h23.1Z"/>
    <path class="color" d="m584.2,226v6.9h-30.7v-47.8h7.5v40.8h23.2Z"/>
    <path class="color" d="m618,233h-7.4v-47.8h7.4v47.8Z"/>
    <path class="color" d="m269.1,185.1h7.4v47.7h-7.4v-47.7Z"/>
</svg>