<?xml version="1.0" encoding="UTF-8" standalone="no"?>
<svg
   xmlns:dc="http://purl.org/dc/elements/1.1/"
   xmlns:cc="http://creativecommons.org/ns#"
   xmlns:rdf="http://www.w3.org/1999/02/22-rdf-syntax-ns#"
   xmlns:svg="http://www.w3.org/2000/svg"
   xmlns="http://www.w3.org/2000/svg"
   xmlns:sodipodi="http://sodipodi.sourceforge.net/DTD/sodipodi-0.dtd"
   xmlns:inkscape="http://www.inkscape.org/namespaces/inkscape"
   version="1.1"
   id="svg2"
   xml:space="preserve"
   width="1122.52"
   height="793.70135"
   viewBox="0 0 1122.52 793.70135"
   sodipodi:docname="APPS.UCU.svg"
   inkscape:version="1.0.2 (e86c870879, 2021-01-15, custom)"><metadata
     id="metadata8"><rdf:RDF><cc:Work
         rdf:about=""><dc:format>image/svg+xml</dc:format><dc:type
           rdf:resource="http://purl.org/dc/dcmitype/StillImage" /><dc:title /></cc:Work></rdf:RDF></metadata><defs
     id="defs6"><clipPath
       clipPathUnits="userSpaceOnUse"
       id="clipPath18"><path
         d="M 0,595.276 H 841.89 V 0 H 0 Z"
         id="path16"
         inkscape:connector-curvature="0" /></clipPath></defs><sodipodi:namedview
     pagecolor="#ffffff"
     bordercolor="#666666"
     borderopacity="1"
     objecttolerance="10"
     gridtolerance="10"
     guidetolerance="10"
     inkscape:pageopacity="0"
     inkscape:pageshadow="2"
     inkscape:window-width="1920"
     inkscape:window-height="996"
     id="namedview4"
     showgrid="false"
     inkscape:zoom="0.84100751"
     inkscape:cx="619.63653"
     inkscape:cy="509.69839"
     inkscape:window-x="-8"
     inkscape:window-y="-3"
     inkscape:window-maximized="1"
     inkscape:current-layer="g10"
     inkscape:document-rotation="0" /><g
     id="g10"
     inkscape:groupmode="layer"
     inkscape:label="UCU+FACULTY"
     transform="matrix(1.3333333,0,0,-1.3333333,0,793.70133)"><g
       id="g12"
       transform="matrix(3.09,0,0,3.09,-899.44245,-669.47894)"><g
         id="g14"
         clip-path="url(#clipPath18)"><g
           id="g20"
           transform="translate(323.1118,273.0647)"><path
             d="M 0,0 2.16,-1.193 1.987,-1.505 C 1.834,-1.454 1.696,-1.447 1.578,-1.49 1.454,-1.529 1.346,-1.649 1.246,-1.845 L -1.13,-6.146 c -0.114,-0.193 -0.157,-0.352 -0.126,-0.478 0.028,-0.124 0.108,-0.234 0.236,-0.328 l -0.173,-0.309 -2.158,1.189 0.171,0.313 c 0.139,-0.063 0.273,-0.073 0.399,-0.03 0.127,0.044 0.242,0.167 0.35,0.362 l 2.376,4.299 c 0.1,0.197 0.137,0.358 0.108,0.488 -0.027,0.129 -0.102,0.235 -0.224,0.328 z"
             style="fill:#87181d;fill-opacity:1;fill-rule:nonzero;stroke:none"
             id="path22"
             inkscape:connector-curvature="0" /></g><g
           id="g24"
           transform="translate(329.0518,269.5598)"><path
             d="m 0,0 -0.912,-2.367 0.496,-0.192 c 0.355,-0.14 0.676,-0.136 0.968,0.004 0.289,0.139 0.504,0.379 0.641,0.721 0.144,0.393 0.15,0.727 0.018,1.014 -0.134,0.283 -0.434,0.519 -0.899,0.694 z m -1.102,-2.855 -1.015,-2.637 0.535,-0.207 c 0.44,-0.178 0.818,-0.202 1.128,-0.072 0.311,0.128 0.548,0.397 0.71,0.819 0.173,0.447 0.155,0.848 -0.054,1.194 -0.21,0.347 -0.53,0.603 -0.961,0.768 z M -1.649,1.199 0.845,0.234 C 1.504,-0.019 1.979,-0.291 2.268,-0.582 2.557,-0.869 2.709,-1.217 2.728,-1.628 2.729,-1.736 2.724,-1.838 2.709,-1.936 2.693,-2.042 2.67,-2.133 2.638,-2.223 2.485,-2.615 2.231,-2.895 1.873,-3.06 1.514,-3.225 1.101,-3.271 0.635,-3.198 L 0.598,-3.291 C 1.107,-3.552 1.463,-3.896 1.663,-4.336 1.864,-4.77 1.881,-5.205 1.71,-5.641 1.496,-6.194 1.142,-6.534 0.645,-6.656 0.15,-6.772 -0.466,-6.693 -1.197,-6.408 l -2.949,1.134 0.127,0.336 c 0.157,-0.041 0.29,-0.029 0.399,0.031 0.113,0.06 0.2,0.166 0.257,0.317 l 1.834,4.755 c 0.051,0.147 0.057,0.285 0.016,0.401 -0.038,0.119 -0.126,0.218 -0.266,0.299 z"
             style="fill:#87181d;fill-opacity:1;fill-rule:nonzero;stroke:none"
             id="path26"
             inkscape:connector-curvature="0" /></g><g
           id="g28"
           transform="translate(334.7373,268.1008)"><path
             d="m 0,0 4.808,-0.967 c 0.149,-0.024 0.256,-0.037 0.319,-0.024 0.063,0.012 0.119,0.049 0.165,0.112 L 5.533,-0.929 5.187,-2.667 4.836,-2.596 C 4.806,-2.207 4.7,-1.909 4.519,-1.697 4.34,-1.49 3.994,-1.335 3.483,-1.235 L 1.858,-0.908 1.37,-3.356 2.449,-3.574 c 0.291,-0.064 0.51,-0.06 0.663,0.01 0.153,0.073 0.25,0.217 0.293,0.435 L 3.755,-3.2 3.405,-4.946 3.053,-4.877 C 3.078,-4.67 3.041,-4.503 2.949,-4.37 2.858,-4.244 2.719,-4.163 2.54,-4.124 L 1.268,-3.872 0.706,-6.677 3.037,-7.145 C 3.393,-7.218 3.731,-7.167 4.053,-7 c 0.317,0.169 0.545,0.427 0.681,0.765 l 0.35,-0.07 -0.341,-1.716 -6.103,1.218 0.069,0.348 c 0.165,-0.019 0.299,0.017 0.403,0.096 0.106,0.086 0.181,0.232 0.232,0.446 l 0.963,4.82 c 0.035,0.214 0.021,0.374 -0.043,0.487 -0.067,0.114 -0.177,0.197 -0.335,0.252 z"
             style="fill:#87181d;fill-opacity:1;fill-rule:nonzero;stroke:none"
             id="path30"
             inkscape:connector-curvature="0" /></g><g
           id="g32"
           transform="translate(344.9736,265.177)"><path
             d="m 0,0 -0.045,-1.684 c -0.014,-0.249 0.084,-0.458 0.295,-0.619 0.212,-0.159 0.45,-0.242 0.721,-0.248 0.324,-0.016 0.57,0.098 0.739,0.342 0.169,0.242 0.261,0.706 0.281,1.393 C 2.007,-0.123 1.946,0.344 1.804,0.582 1.661,0.82 1.419,0.954 1.077,0.98 0.786,1.003 0.538,0.922 0.328,0.738 0.116,0.553 0.008,0.311 0,0 m -2.121,-5.452 0.01,0.356 c 0.141,0.011 0.255,0.062 0.346,0.153 0.094,0.098 0.147,0.23 0.157,0.409 l 0.104,3.872 c 0.012,0.688 0.256,1.224 0.733,1.616 0.476,0.391 1.135,0.574 1.98,0.55 C 1.983,1.485 2.583,1.237 3.015,0.769 3.442,0.297 3.65,-0.251 3.634,-0.874 3.619,-1.398 3.495,-1.849 3.265,-2.229 3.033,-2.604 2.708,-2.875 2.288,-3.044 2.142,-3.103 1.993,-3.151 1.846,-3.18 1.7,-3.209 1.56,-3.221 1.419,-3.217 1.13,-3.209 0.861,-3.172 0.617,-3.097 0.369,-3.023 0.139,-2.905 -0.075,-2.742 L -0.126,-4.574 C -0.134,-4.725 -0.091,-4.857 0.008,-4.968 0.11,-5.077 0.236,-5.143 0.385,-5.161 L 0.376,-5.519 Z"
             style="fill:#87181d;fill-opacity:1;fill-rule:nonzero;stroke:none"
             id="path34"
             inkscape:connector-curvature="0" /></g><g
           id="g36"
           transform="translate(356.8335,261.8947)"><path
             d="m 0,0 0.354,-0.344 c -0.441,-0.491 -0.865,-0.853 -1.272,-1.088 -0.403,-0.235 -0.832,-0.384 -1.287,-0.441 -1.022,-0.13 -1.895,0.103 -2.617,0.708 -0.727,0.597 -1.155,1.411 -1.287,2.433 -0.13,1.03 0.069,1.912 0.609,2.642 0.537,0.741 1.27,1.166 2.202,1.288 0.195,0.023 0.379,0.035 0.552,0.035 0.175,-0.004 0.36,-0.016 0.558,-0.043 0.168,-0.034 0.303,-0.052 0.398,-0.058 0.101,-0.007 0.19,-0.002 0.265,0.014 0.031,-0.004 0.059,0.001 0.094,0.026 0.033,0.022 0.071,0.054 0.118,0.1 0.014,0.012 0.024,0.022 0.037,0.035 0.012,0.016 0.022,0.03 0.034,0.047 L -0.888,5.395 -0.676,3.778 -1.032,3.729 C -1.209,4.061 -1.486,4.319 -1.871,4.505 -2.253,4.686 -2.657,4.749 -3.074,4.694 -3.133,4.682 -3.192,4.667 -3.255,4.655 -3.314,4.639 -3.381,4.618 -3.45,4.588 -3.943,4.385 -4.267,4.043 -4.428,3.566 -4.582,3.092 -4.599,2.354 -4.46,1.359 c 0.122,-0.956 0.383,-1.634 0.782,-2.033 0.399,-0.397 0.96,-0.548 1.685,-0.454 0.342,0.047 0.676,0.154 0.997,0.332 C -0.672,-0.615 -0.34,-0.351 0,0"
             style="fill:#87181d;fill-opacity:1;fill-rule:nonzero;stroke:none"
             id="path38"
             inkscape:connector-curvature="0" /></g><g
           id="g40"
           transform="translate(358.4258,267.759)"><path
             d="m 0,0 2.347,0.755 0.11,-0.34 C 2.276,0.283 2.17,0.169 2.137,0.079 2.103,-0.013 2.111,-0.126 2.158,-0.275 L 3.293,-3.801 3.342,-3.784 5.315,0.265 5.176,0.698 C 5.13,0.841 5.054,0.948 4.942,1.014 4.836,1.079 4.7,1.104 4.531,1.083 L 4.421,1.423 6.771,2.178 6.88,1.842 C 6.729,1.763 6.632,1.669 6.585,1.555 6.542,1.437 6.542,1.305 6.589,1.152 L 8.15,-3.69 C 8.201,-3.852 8.277,-3.962 8.382,-4.03 8.49,-4.098 8.623,-4.116 8.786,-4.084 l 0.11,-0.338 -2.348,-0.757 -0.11,0.34 c 0.137,0.066 0.235,0.159 0.293,0.273 0.056,0.112 0.06,0.253 0.007,0.42 L 5.582,-0.556 5.533,-0.57 3.564,-4.629 3.719,-5.12 c 0.045,-0.154 0.12,-0.265 0.226,-0.327 0.108,-0.066 0.25,-0.086 0.419,-0.06 l 0.108,-0.34 -2.345,-0.755 -0.112,0.34 c 0.147,0.066 0.242,0.159 0.293,0.275 0.047,0.118 0.047,0.255 -0.002,0.414 L 0.745,-0.729 C 0.692,-0.578 0.613,-0.471 0.507,-0.405 0.399,-0.34 0.269,-0.315 0.11,-0.34 Z"
             style="fill:#87181d;fill-opacity:1;fill-rule:nonzero;stroke:none"
             id="path42"
             inkscape:connector-curvature="0" /></g><g
           id="g44"
           transform="translate(346.0977,347.7942)"><path
             d="M 0,0 H 2.339 C 2.339,0 1.899,0.93 1.83,3.369 4.275,3.302 5.209,2.873 5.209,2.873 v 2.334 c 0,0 -0.934,-0.439 -3.381,-0.507 0.069,2.445 0.511,3.377 0.511,3.377 L 0,8.077 C 0,8.077 0.428,7.145 0.497,4.7 -1.942,4.771 -2.868,5.207 -2.868,5.207 V 2.873 c 0,0 0.926,0.425 3.365,0.496 C 0.428,0.93 0,0 0,0"
             style="fill:#87181d;fill-opacity:1;fill-rule:nonzero;stroke:none"
             id="path46"
             inkscape:connector-curvature="0" /></g><g
           id="g48"
           transform="translate(376.5908,336.198)"><path
             d="m 0,0 c 0.008,-7.141 -0.01,-12.572 -0.004,-19.713 0.006,-8.452 0,-25.742 -0.002,-29.29 -3.343,0.857 -6.821,1.594 -10.227,1.702 -6.524,0.197 -13.889,-1.645 -19,-6.073 -0.02,-0.013 -0.038,-0.03 -0.059,-0.05 -4.775,4.187 -11.491,6.01 -17.612,6.092 -3.9,0.047 -7.884,-0.712 -11.727,-1.574 -0.004,6.969 -0.01,14.242 -0.018,21.193 -0.007,9.285 0.018,27.188 0.018,27.709 0,0.464 -1.82,1.148 -1.82,0.684 0.006,-7.141 0.012,-13.258 0.018,-20.403 0.009,-9.284 -0.018,-29.241 -0.018,-29.765 0,-0.415 1.164,-0.325 1.382,-0.274 3.52,0.846 7.215,1.209 10.823,1.272 6.321,0.114 13.407,-1.268 18.097,-5.897 0.36,-0.35 1.36,-0.35 1.716,0 4.759,4.698 11.784,6.102 18.2,5.929 3.571,-0.095 7.241,-0.535 10.699,-1.463 0.214,-0.055 1.338,-0.132 1.338,0.277 C 1.798,-42.503 1.79,-35.022 1.781,-27.877 1.773,-18.559 1.804,0.138 1.804,0.684 1.804,1.144 0,0.46 0,0"
             style="fill:#87181d;fill-opacity:1;fill-rule:nonzero;stroke:none"
             id="path50"
             inkscape:connector-curvature="0" /></g><g
           id="g52"
           transform="translate(325.5659,342.5075)"><path
             d="m 0,0 c 3.334,2.53 5.74,5.331 9.952,5.331 2.152,0 3.591,-2.194 3.591,-3.534 0,-0.936 -0.249,-2.815 -2.331,-2.815 -1.822,0 -2.349,2.217 -1.608,3.44 -2.687,0 -2.83,-4.158 1.639,-4.158 1.915,0 3.89,1.111 3.89,3.422 0,1.55 -1.106,4.26 -5.185,4.26 C 5.47,5.946 2.607,3.662 -1.01,0.953 -4.743,-1.844 -8.116,-2.608 -12.714,-2.138 v -0.681 h 0.01 c 0,-7.624 -0.004,-47.902 -0.004,-48.191 0,-0.458 1.777,-1.142 1.777,-0.682 0,6.892 0.004,44.624 0.004,48.659 C -6.968,-3.328 -3.184,-2.417 0,0"
             style="fill:#87181d;fill-opacity:1;fill-rule:nonzero;stroke:none"
             id="path54"
             inkscape:connector-curvature="0" /></g><g
           id="g56"
           transform="translate(381.6143,340.3713)"><path
             d="m 0,0 c -4.598,-0.47 -7.971,0.289 -11.705,3.09 -3.615,2.71 -6.479,4.992 -10.957,4.992 -4.082,0 -5.185,-2.71 -5.185,-4.263 0,-2.308 1.972,-3.42 3.888,-3.42 4.472,0 4.326,4.161 1.641,4.161 0.741,-1.226 0.215,-3.442 -1.606,-3.442 -2.082,0 -2.333,1.882 -2.333,2.817 0,1.337 1.439,3.532 3.591,3.532 4.209,0 6.618,-2.801 9.952,-5.331 3.184,-2.415 6.97,-3.329 10.929,-3.03 v -48.663 c 0,-0.458 1.779,0.225 1.779,0.685 0,0.284 -0.004,40.565 -0.004,48.188 H 0 Z"
             style="fill:#87181d;fill-opacity:1;fill-rule:nonzero;stroke:none"
             id="path58"
             inkscape:connector-curvature="0" /></g><g
           id="g60"
           transform="translate(339.9404,317.7512)"><path
             d="m 0,0 c -1.102,2.07 -4.969,10.005 -6.62,13.374 -1.108,2.266 -2.624,3.123 -3.774,3.396 -0.79,0.188 -4.696,0 -5.62,-0.005 v -0.061 c 1.186,-0.505 3.548,-3.126 4.466,-5.107 0.614,-1.335 4.316,-8.912 5.6,-11.343 1.274,-2.418 4.079,-3.299 5.27,-3.443 0.548,-0.068 1.114,-0.068 1.681,-0.054 -5.769,-7.612 -11.084,-14.646 -10.479,-13.809 -1.889,-2.325 -3.686,-3.257 -5.451,-3.792 l 0.008,-0.33 c 4.612,0 7.888,3.393 8.458,4.134 1.003,1.309 6.108,8.136 11.395,15.131 V -18.428 H 9.492 V 3.251 c 0.975,-0.782 2.111,-2.015 2.933,-3.489 0.442,-0.796 2.669,-6.015 4.135,-8.041 1.233,-1.703 3.14,-1.972 4.938,-1.976 -3.339,-4.401 -6.765,-8.91 -9.138,-12 -0.812,-1.06 -1.634,-2.087 -2.543,-3.041 -0.36,-0.381 -2.261,-2.532 -3.975,-2.532 -1.883,0 -3.084,1.47 -3.084,2.925 0,1.579 0.853,3.228 2.714,3.639 1.764,0.395 3.218,-0.546 3.49,-0.826 0,0 1.784,0.503 1.784,0.519 -1.016,0.908 -3.768,1.441 -5.389,1.16 -2.507,-0.425 -4.718,-2.099 -4.718,-4.643 0,-1.71 1.726,-3.546 5.173,-3.546 4.148,0 6.894,3.16 7.806,4.155 0.448,0.48 10.705,14.106 16.578,21.813 h -0.009 c 0.139,0.187 0.257,0.342 0.347,0.464 0.832,1.134 3.784,4.749 2.42,6.335 L 29.528,4.171 V 3.978 c 1.744,-1.008 -0.867,-4.809 -2.227,-6.61 h -0.024 c -1.456,-1.924 -3.125,-4.118 -4.843,-6.384 -0.389,0.385 -0.645,0.866 -0.91,1.37 -0.812,1.54 -3.106,6.034 -4.293,8.495 -0.79,1.636 -2.322,3.233 -3.876,3.314 C 12.079,4.228 10.776,4.112 9.492,4.1 c 2.406,3.157 4.6,6.005 6.152,7.949 0.832,1.048 1.632,2.088 2.544,3.041 0.36,0.383 2.261,2.536 3.976,2.536 1.88,0 3.081,-1.469 3.081,-2.925 0,-1.581 -0.852,-3.228 -2.713,-3.641 -1.765,-0.393 -3.219,0.545 -3.491,0.822 0,0 -1.783,-0.497 -1.783,-0.513 1.015,-0.908 3.765,-1.441 5.39,-1.166 2.506,0.427 4.714,2.102 4.714,4.645 0,1.712 -1.722,3.548 -5.172,3.548 -4.148,0 -6.893,-3.164 -7.807,-4.153 C 14.066,13.899 12.132,11.391 9.492,7.929 V 26.585 H 4.934 V 1.938 C 3.931,0.617 2.905,-0.735 1.885,-2.078 1.122,-1.582 0.478,-0.904 0,0"
             style="fill:#87181d;fill-opacity:1;fill-rule:nonzero;stroke:none"
             id="path62"
             inkscape:connector-curvature="0" /></g><g
           id="g64"
           transform="translate(309.5566,284.8225)"><path
             d="M 0,0 1.916,-2.157 1.655,-2.388 C 1.512,-2.214 1.366,-2.146 1.217,-2.18 1.066,-2.219 0.953,-2.365 0.877,-2.63 l -0.851,-2.754 0.045,-0.051 2.386,0.806 c 0.067,0.021 0.142,0.056 0.226,0.094 0.085,0.037 0.144,0.075 0.179,0.101 0.079,0.082 0.114,0.182 0.106,0.306 -0.01,0.116 -0.084,0.285 -0.22,0.499 L 3.015,-3.395 4.238,-4.773 3.969,-5.007 C 3.825,-4.936 3.687,-4.894 3.554,-4.887 3.419,-4.883 3.222,-4.928 2.959,-5.02 L -1.25,-6.438 c -0.682,-0.224 -1.248,-0.299 -1.696,-0.218 -0.45,0.086 -0.83,0.302 -1.139,0.653 -0.273,0.304 -0.426,0.607 -0.455,0.894 -0.028,0.296 0.065,0.54 0.281,0.731 0.174,0.152 0.363,0.233 0.568,0.242 0.202,0.012 0.387,-0.077 0.554,-0.268 0.132,-0.147 0.201,-0.306 0.214,-0.479 0.012,-0.173 -0.049,-0.344 -0.181,-0.525 -0.092,-0.12 -0.135,-0.214 -0.129,-0.295 0.004,-0.082 0.041,-0.157 0.112,-0.238 0.126,-0.143 0.32,-0.216 0.577,-0.22 0.26,-0.004 0.537,0.047 0.82,0.15 l 1.518,4.9 c 0.043,0.161 0.059,0.315 0.047,0.465 -0.012,0.146 -0.049,0.284 -0.106,0.411 z"
             style="fill:#87181d;fill-opacity:1;fill-rule:nonzero;stroke:none"
             id="path66"
             inkscape:connector-curvature="0" /></g><g
           id="g68"
           transform="translate(317.1592,277.1897)"><path
             d="m 0,0 -0.218,-0.283 c -0.132,0.077 -0.262,0.105 -0.393,0.083 -0.13,-0.02 -0.242,-0.098 -0.344,-0.228 l -1.329,-1.728 2.738,-2.111 1.329,1.728 c 0.098,0.127 0.142,0.251 0.136,0.379 -0.008,0.126 -0.065,0.248 -0.175,0.364 L 1.96,-1.513 3.908,-3.011 3.69,-3.292 C 3.532,-3.206 3.393,-3.176 3.273,-3.202 3.151,-3.229 3.045,-3.311 2.954,-3.438 l -3.1,-4.043 c -0.099,-0.126 -0.149,-0.243 -0.149,-0.336 0,-0.1 0.063,-0.23 0.189,-0.403 l -0.218,-0.287 -1.948,1.502 0.22,0.283 c 0.193,-0.073 0.338,-0.099 0.436,-0.077 0.093,0.02 0.193,0.096 0.293,0.228 l 1.455,1.891 -2.738,2.109 -1.457,-1.889 c -0.104,-0.131 -0.153,-0.249 -0.143,-0.36 0.008,-0.111 0.074,-0.241 0.192,-0.394 l -0.22,-0.28 -1.953,1.504 0.219,0.283 c 0.183,-0.067 0.323,-0.09 0.425,-0.069 0.1,0.012 0.201,0.091 0.303,0.219 l 3.107,4.037 c 0.095,0.126 0.138,0.25 0.128,0.385 -0.015,0.126 -0.072,0.248 -0.167,0.358 l 0.218,0.283 z"
             style="fill:#87181d;fill-opacity:1;fill-rule:nonzero;stroke:none"
             id="path70"
             inkscape:connector-curvature="0" /></g><g
           id="g72"
           transform="translate(366.9536,270.9133)"><path
             d="M 0,0 0.348,0.191 C 0.448,0.186 0.545,0.195 0.637,0.223 0.733,0.255 0.843,0.3 0.971,0.371 L 4.94,2.528 C 5.054,2.586 5.146,2.643 5.223,2.712 5.301,2.779 5.372,2.862 5.439,2.96 L 5.779,3.144 6.63,1.576 6.318,1.407 C 5.989,1.651 5.669,1.794 5.358,1.839 5.044,1.881 4.737,1.82 4.436,1.657 L 3.859,1.344 6.501,-3.513 c 0.074,-0.144 0.164,-0.238 0.27,-0.275 0.105,-0.034 0.25,-0.028 0.437,0.018 L 7.377,-4.083 5.213,-5.262 5.042,-4.95 c 0.145,0.148 0.228,0.27 0.247,0.364 0.014,0.1 -0.013,0.222 -0.09,0.364 L 2.555,0.634 2.07,0.367 C 1.702,0.169 1.445,-0.073 1.297,-0.36 1.146,-0.647 1.105,-0.991 1.167,-1.398 L 0.853,-1.567 Z"
             style="fill:#87181d;fill-opacity:1;fill-rule:nonzero;stroke:none"
             id="path74"
             inkscape:connector-curvature="0" /></g><g
           id="g76"
           transform="translate(374.5098,275.0461)"><path
             d="M 0,0 3.831,3.066 C 3.947,3.162 4.024,3.237 4.055,3.29 4.087,3.347 4.093,3.41 4.075,3.489 L 4.269,3.645 5.376,2.26 5.095,2.036 C 4.781,2.264 4.482,2.376 4.205,2.372 3.933,2.368 3.59,2.201 3.182,1.873 L 1.891,0.841 3.45,-1.109 4.309,-0.421 C 4.545,-0.24 4.684,-0.066 4.727,0.096 4.771,0.261 4.722,0.428 4.584,0.599 L 4.863,0.82 5.979,-0.569 5.699,-0.791 c -0.144,0.148 -0.297,0.228 -0.453,0.239 -0.157,0.015 -0.31,-0.04 -0.454,-0.156 l -1.014,-0.813 1.789,-2.23 1.856,1.485 c 0.284,0.225 0.465,0.516 0.542,0.868 0.076,0.352 0.027,0.694 -0.149,1.018 L 8.095,-0.154 9.19,-1.528 4.333,-5.412 4.112,-5.134 c 0.12,0.111 0.179,0.237 0.183,0.367 0.004,0.138 -0.059,0.293 -0.19,0.466 L 1.034,-0.466 C 0.892,-0.297 0.759,-0.207 0.631,-0.185 0.504,-0.164 0.37,-0.197 0.224,-0.274 Z"
             style="fill:#87181d;fill-opacity:1;fill-rule:nonzero;stroke:none"
             id="path78"
             inkscape:connector-curvature="0" /></g><g
           id="g80"
           transform="translate(380.5112,280.2453)"><path
             d="m 0,0 0.265,0.295 c 0.093,0.028 0.183,0.071 0.26,0.132 0.078,0.057 0.165,0.142 0.263,0.249 l 3,3.379 c 0.087,0.089 0.155,0.18 0.206,0.268 0.047,0.094 0.085,0.192 0.118,0.303 L 4.368,4.918 5.702,3.734 5.465,3.468 C 5.073,3.584 4.723,3.608 4.413,3.544 4.105,3.479 3.835,3.321 3.607,3.062 L 3.173,2.574 7.308,-1.096 c 0.116,-0.116 0.232,-0.173 0.346,-0.169 0.112,0 0.246,0.053 0.401,0.161 L 8.323,-1.34 6.685,-3.183 6.42,-2.944 c 0.086,0.185 0.122,0.324 0.106,0.425 -0.014,0.096 -0.084,0.202 -0.208,0.308 L 2.184,1.463 1.818,1.05 C 1.541,0.734 1.382,0.419 1.339,0.1 1.298,-0.221 1.374,-0.559 1.569,-0.919 L 1.331,-1.186 Z"
             style="fill:#87181d;fill-opacity:1;fill-rule:nonzero;stroke:none"
             id="path82"
             inkscape:connector-curvature="0" /></g><g
           id="g84"
           transform="translate(296.4175,293.9514)"><path
             d="m 0,0 -0.888,2.752 0.336,0.104 C -0.491,2.642 -0.38,2.522 -0.228,2.494 -0.075,2.469 0.092,2.559 0.269,2.769 L 2.192,4.963 2.17,5.032 -0.369,5.242 C -0.439,5.246 -0.523,5.25 -0.619,5.246 -0.71,5.242 -0.782,5.235 -0.826,5.219 -0.932,5.183 -1.005,5.103 -1.046,4.989 -1.087,4.877 -1.087,4.692 -1.05,4.441 L -1.395,4.332 -1.96,6.088 -1.614,6.2 c 0.102,-0.13 0.216,-0.22 0.338,-0.279 0.118,-0.061 0.319,-0.097 0.6,-0.12 L 3.807,5.419 C 4.533,5.354 5.087,5.197 5.468,4.938 5.851,4.68 6.113,4.332 6.257,3.884 6.384,3.491 6.398,3.159 6.309,2.874 6.213,2.595 6.025,2.412 5.747,2.32 5.522,2.249 5.315,2.249 5.124,2.325 4.928,2.398 4.796,2.551 4.716,2.793 4.658,2.982 4.658,3.159 4.716,3.322 4.78,3.483 4.906,3.619 5.101,3.731 5.233,3.802 5.315,3.872 5.344,3.949 5.372,4.024 5.372,4.112 5.337,4.211 5.278,4.393 5.13,4.54 4.892,4.647 4.653,4.753 4.378,4.816 4.071,4.834 L 0.647,0.938 C 0.543,0.808 0.466,0.672 0.416,0.529 0.367,0.389 0.344,0.25 0.344,0.112 Z"
             style="fill:#87181d;fill-opacity:1;fill-rule:nonzero;stroke:none"
             id="path86"
             inkscape:connector-curvature="0" /></g><g
           id="g88"
           transform="translate(293.8384,302.7932)"><path
             d="M 0,0 -0.344,2.439 0.014,2.492 C 0.071,2.333 0.15,2.219 0.254,2.15 0.358,2.079 0.49,2.06 0.647,2.089 L 2.43,2.343 C 2.39,2.709 2.257,3.011 2.029,3.239 1.801,3.465 1.465,3.634 1.022,3.748 0.279,3.921 -0.204,4.116 -0.432,4.33 c -0.224,0.208 -0.366,0.509 -0.419,0.894 -0.018,0.12 -0.026,0.234 -0.024,0.341 0.001,0.115 0.008,0.216 0.024,0.312 L 0.747,6.103 0.798,5.75 C 0.696,5.704 0.623,5.635 0.574,5.545 0.525,5.454 0.509,5.364 0.521,5.271 0.537,5.167 0.584,5.071 0.659,4.981 0.737,4.898 0.855,4.81 1.018,4.717 1.657,4.356 2.038,4.11 2.168,3.974 2.292,3.843 2.404,3.683 2.5,3.493 l 0.071,0.012 c 0,0.165 0.012,0.343 0.028,0.526 C 2.62,4.214 2.646,4.379 2.687,4.536 2.78,4.869 2.941,5.144 3.163,5.368 3.385,5.582 3.746,5.797 4.246,5.999 4.661,6.158 4.901,6.25 4.96,6.28 5.02,6.312 5.071,6.339 5.105,6.374 5.28,6.476 5.417,6.62 5.512,6.795 5.608,6.972 5.653,7.157 5.639,7.338 L 6.025,7.396 C 6.09,7.275 6.143,7.157 6.184,7.031 6.225,6.907 6.257,6.779 6.275,6.638 6.329,6.27 6.308,5.938 6.208,5.645 6.113,5.352 5.946,5.114 5.708,4.924 5.628,4.851 5.545,4.792 5.455,4.741 5.364,4.692 5.079,4.582 4.603,4.417 4.159,4.252 3.841,4.106 3.646,3.97 3.452,3.843 3.293,3.688 3.18,3.514 3.078,3.351 3.01,3.176 2.968,2.986 2.927,2.795 2.925,2.608 2.958,2.417 L 5.765,2.813 C 5.93,2.842 6.052,2.895 6.135,2.986 6.217,3.08 6.259,3.21 6.263,3.377 L 6.62,3.428 6.966,0.987 6.607,0.938 C 6.564,1.093 6.491,1.203 6.383,1.274 6.275,1.339 6.139,1.362 5.972,1.339 L 0.859,0.615 C 0.7,0.586 0.578,0.527 0.493,0.434 0.409,0.34 0.364,0.214 0.358,0.051 Z"
             style="fill:#87181d;fill-opacity:1;fill-rule:nonzero;stroke:none"
             id="path90"
             inkscape:connector-curvature="0" /></g><g
           id="g92"
           transform="translate(294.2725,314.4944)"><path
             d="M 0,0 1.708,-0.043 C 1.96,-0.059 2.17,0.039 2.335,0.25 2.498,0.462 2.583,0.702 2.587,0.975 2.606,1.296 2.49,1.543 2.243,1.712 1.995,1.881 1.525,1.974 0.827,1.993 0.125,2.015 -0.348,1.952 -0.59,1.81 -0.831,1.665 -0.967,1.423 -0.995,1.079 -1.018,0.786 -0.936,0.537 -0.749,0.328 -0.562,0.116 -0.315,0.006 0,0 M 5.533,-2.125 5.17,-2.113 C 5.163,-1.975 5.109,-1.861 5.014,-1.767 4.92,-1.678 4.784,-1.626 4.601,-1.61 l -3.927,0.101 c -0.696,0.012 -1.242,0.259 -1.641,0.738 -0.397,0.474 -0.58,1.135 -0.559,1.984 0.022,0.773 0.27,1.374 0.747,1.806 0.478,0.433 1.031,0.639 1.66,0.623 C 1.419,3.625 1.877,3.503 2.26,3.271 2.64,3.041 2.919,2.713 3.088,2.29 3.149,2.143 3.196,1.997 3.227,1.848 3.255,1.7 3.267,1.563 3.265,1.423 3.257,1.134 3.216,0.863 3.143,0.617 3.07,0.37 2.95,0.138 2.785,-0.073 L 4.641,-0.126 C 4.794,-0.13 4.928,-0.092 5.04,0.01 5.154,0.11 5.219,0.234 5.238,0.385 L 5.6,0.375 Z"
             style="fill:#87181d;fill-opacity:1;fill-rule:nonzero;stroke:none"
             id="path94"
             inkscape:connector-curvature="0" /></g><g
           id="g96"
           transform="translate(295.4517,323.2888)"><path
             d="M 0,0 2.477,-1.743 2.516,-1.751 2.988,0.79 2.959,0.793 0.006,0.039 Z m 4.191,-4.059 c -0.012,0.144 -0.077,0.287 -0.189,0.434 -0.114,0.144 -0.259,0.282 -0.44,0.418 l -3.852,2.759 c -0.077,0.055 -0.164,0.097 -0.256,0.132 -0.091,0.033 -0.201,0.066 -0.324,0.096 -0.077,0.014 -0.144,-0.018 -0.193,-0.1 -0.047,-0.085 -0.079,-0.189 -0.089,-0.324 l -0.357,0.065 c 0.031,0.273 0.019,0.52 -0.03,0.742 -0.053,0.219 -0.143,0.419 -0.273,0.59 l 0.065,0.35 5.891,1.551 C 4.529,2.75 4.834,2.85 5.06,2.951 5.291,3.053 5.457,3.184 5.567,3.338 L 5.923,3.271 5.404,0.482 5.048,0.547 C 5.084,0.702 5.056,0.836 4.962,0.965 4.867,1.084 4.745,1.158 4.584,1.187 4.56,1.195 4.509,1.19 4.436,1.18 4.362,1.168 4.305,1.162 4.262,1.158 L 3.564,0.975 2.982,-2.142 3.519,-2.5 C 3.786,-2.687 4,-2.742 4.156,-2.671 4.317,-2.6 4.448,-2.422 4.547,-2.148 L 4.901,-2.213 4.547,-4.125 Z"
             style="fill:#87181d;fill-opacity:1;fill-rule:nonzero;stroke:none"
             id="path98"
             inkscape:connector-curvature="0" /></g><g
           id="g100"
           transform="translate(296.0757,332.7199)"><path
             d="M 0,0 0.344,-0.114 C 0.328,-0.291 0.352,-0.432 0.417,-0.533 0.48,-0.633 0.588,-0.71 0.733,-0.757 l 4.899,-1.637 c 0.159,-0.055 0.298,-0.055 0.416,-0.004 0.122,0.051 0.213,0.145 0.281,0.283 L 6.672,-2.229 5.889,-4.574 5.547,-4.46 c 0.035,0.143 0.018,0.271 -0.045,0.393 -0.063,0.118 -0.177,0.208 -0.342,0.263 l -4.9,1.636 c -0.158,0.049 -0.299,0.049 -0.421,-0.008 -0.12,-0.059 -0.214,-0.151 -0.279,-0.285 l -0.342,0.114 z m -1.667,-0.493 c -0.2,0.061 -0.344,0.188 -0.44,0.381 -0.094,0.197 -0.112,0.393 -0.053,0.591 0.069,0.189 0.2,0.327 0.387,0.425 0.189,0.099 0.382,0.114 0.588,0.045 0.204,-0.065 0.348,-0.196 0.442,-0.383 0.094,-0.187 0.106,-0.379 0.043,-0.574 -0.068,-0.201 -0.196,-0.348 -0.383,-0.444 -0.189,-0.095 -0.383,-0.108 -0.584,-0.041 m -0.64,-1.911 c -0.197,0.065 -0.343,0.194 -0.441,0.389 -0.098,0.195 -0.116,0.387 -0.049,0.58 0.063,0.187 0.189,0.332 0.38,0.428 0.192,0.099 0.39,0.113 0.593,0.042 0.203,-0.065 0.35,-0.193 0.444,-0.38 0.091,-0.188 0.108,-0.381 0.041,-0.574 -0.068,-0.202 -0.194,-0.349 -0.381,-0.446 -0.19,-0.092 -0.383,-0.104 -0.587,-0.039"
             style="fill:#87181d;fill-opacity:1;fill-rule:nonzero;stroke:none"
             id="path102"
             inkscape:connector-curvature="0" /></g><g
           id="g104"
           transform="translate(298.3228,338.0695)"><path
             d="M 0,0 0.32,-0.165 C 0.273,-0.31 0.269,-0.44 0.315,-0.566 0.358,-0.692 0.458,-0.79 0.606,-0.869 L 2.575,-1.871 4.151,1.213 2.182,2.217 C 2.038,2.292 1.907,2.314 1.781,2.284 1.657,2.253 1.547,2.176 1.452,2.048 L 1.13,2.208 2.25,4.405 2.571,4.24 C 2.512,4.067 2.51,3.927 2.561,3.809 2.612,3.694 2.709,3.603 2.856,3.536 L 7.458,1.195 C 7.609,1.117 7.729,1.089 7.825,1.107 7.923,1.125 8.043,1.213 8.191,1.368 L 8.513,1.203 7.394,-0.987 7.07,-0.823 c 0.036,0.202 0.036,0.348 -0.005,0.44 C 7.027,-0.291 6.931,-0.21 6.783,-0.13 L 4.625,0.971 3.049,-2.115 5.205,-3.218 c 0.145,-0.08 0.273,-0.11 0.383,-0.076 0.108,0.029 0.226,0.114 0.352,0.257 L 6.262,-3.2 5.138,-5.4 4.816,-5.236 c 0.031,0.19 0.027,0.334 -0.01,0.434 -0.038,0.094 -0.13,0.183 -0.279,0.259 l -4.6,2.346 c -0.143,0.076 -0.279,0.098 -0.405,0.059 -0.126,-0.034 -0.236,-0.112 -0.326,-0.228 l -0.321,0.163 z"
             style="fill:#87181d;fill-opacity:1;fill-rule:nonzero;stroke:none"
             id="path106"
             inkscape:connector-curvature="0" /></g><g
           id="g108"
           transform="translate(310.4453,346.6106)"><path
             d="M 0,0 0.499,0.004 C 0.537,-0.664 0.495,-1.22 0.375,-1.678 0.254,-2.133 0.057,-2.541 -0.222,-2.905 -0.853,-3.721 -1.643,-4.169 -2.587,-4.25 c -0.947,-0.08 -1.834,0.199 -2.663,0.84 -0.831,0.637 -1.321,1.413 -1.468,2.323 -0.146,0.903 0.068,1.73 0.644,2.473 0.119,0.159 0.242,0.299 0.366,0.419 0.122,0.12 0.265,0.242 0.425,0.362 0.145,0.096 0.251,0.18 0.326,0.245 0.075,0.061 0.134,0.13 0.177,0.195 0.023,0.018 0.037,0.043 0.047,0.086 0.008,0.038 0.012,0.092 0.012,0.157 0.004,0.014 0.004,0.028 0,0.05 0,0.021 -0.004,0.039 -0.008,0.056 L -4.507,3.238 -3.196,2.225 -3.414,1.946 C -3.776,2.056 -4.159,2.04 -4.562,1.903 -4.965,1.763 -5.299,1.526 -5.558,1.188 -5.588,1.138 -5.621,1.085 -5.653,1.03 -5.687,0.979 -5.718,0.916 -5.747,0.845 -5.948,0.35 -5.938,-0.12 -5.708,-0.578 c 0.232,-0.452 0.751,-0.989 1.561,-1.602 0.774,-0.601 1.445,-0.902 2.014,-0.906 0.568,-0.004 1.076,0.289 1.526,0.869 0.212,0.273 0.367,0.588 0.468,0.945 C -0.039,-0.918 0.008,-0.493 0,0"
             style="fill:#87181d;fill-opacity:1;fill-rule:nonzero;stroke:none"
             id="path110"
             inkscape:connector-curvature="0" /></g><g
           id="g112"
           transform="translate(312.1665,351.4231)"><path
             d="m 0,0 2.107,-2.268 0.45,0.42 c 0.374,0.336 0.551,0.676 0.535,1.017 C 3.072,-0.493 2.901,-0.143 2.571,0.21 2.217,0.592 1.865,0.806 1.517,0.845 1.168,0.89 0.81,0.747 0.444,0.413 Z M -1.962,2.828 -1.714,2.563 C -1.824,2.427 -1.871,2.294 -1.863,2.164 -1.851,2.038 -1.769,1.899 -1.62,1.747 L -0.362,0.391 0.287,0.992 C 0.961,1.616 1.596,1.95 2.188,1.987 2.785,2.02 3.293,1.81 3.725,1.346 4.12,0.92 4.297,0.413 4.256,-0.177 4.216,-0.761 3.911,-1.315 3.349,-1.842 L 1.016,-4.008 0.768,-3.741 c 0.113,0.12 0.162,0.25 0.148,0.382 -0.016,0.13 -0.094,0.277 -0.236,0.44 L -2.711,0.733 C -2.858,0.89 -2.994,0.979 -3.121,0.996 -3.247,1.016 -3.379,0.979 -3.52,0.888 L -3.764,1.15 Z"
             style="fill:#87181d;fill-opacity:1;fill-rule:nonzero;stroke:none"
             id="path114"
             inkscape:connector-curvature="0" /></g><g
           id="g116"
           transform="translate(314.9653,358.3689)"><path
             d="M 0,0 2.058,1.354 2.255,1.048 C 2.138,0.93 2.07,0.81 2.05,0.684 2.034,0.562 2.07,0.434 2.164,0.305 l 0.989,-1.504 c 0.316,0.191 0.532,0.442 0.639,0.743 0.11,0.305 0.119,0.68 0.031,1.128 -0.157,0.747 -0.187,1.266 -0.094,1.561 0.096,0.297 0.308,0.552 0.633,0.766 0.098,0.063 0.2,0.117 0.302,0.168 0.1,0.043 0.195,0.08 0.287,0.108 L 5.838,1.921 5.541,1.728 C 5.454,1.797 5.36,1.84 5.258,1.844 5.154,1.848 5.064,1.824 4.989,1.777 4.9,1.718 4.833,1.632 4.788,1.529 4.743,1.423 4.712,1.276 4.7,1.093 4.646,0.356 4.582,-0.096 4.515,-0.269 4.452,-0.436 4.354,-0.604 4.224,-0.771 l 0.039,-0.06 c 0.154,0.07 0.317,0.133 0.488,0.194 0.175,0.063 0.338,0.112 0.495,0.136 0.342,0.061 0.659,0.035 0.953,-0.073 0.293,-0.11 0.639,-0.344 1.036,-0.711 0.321,-0.307 0.509,-0.482 0.561,-0.529 0.049,-0.039 0.098,-0.069 0.143,-0.091 0.169,-0.115 0.356,-0.174 0.558,-0.186 0.199,-0.012 0.382,0.029 0.545,0.12 L 9.256,-2.298 C 9.177,-2.408 9.091,-2.508 8.996,-2.6 8.9,-2.687 8.794,-2.772 8.678,-2.85 8.366,-3.053 8.059,-3.174 7.754,-3.21 7.446,-3.247 7.155,-3.198 6.885,-3.062 6.787,-3.025 6.695,-2.974 6.614,-2.911 6.53,-2.85 6.311,-2.638 5.954,-2.28 5.618,-1.948 5.348,-1.724 5.144,-1.604 4.947,-1.486 4.741,-1.407 4.529,-1.378 4.342,-1.358 4.153,-1.368 3.963,-1.411 3.774,-1.454 3.603,-1.533 3.444,-1.647 L 5.001,-4.012 C 5.093,-4.155 5.199,-4.24 5.317,-4.275 5.433,-4.31 5.567,-4.293 5.724,-4.224 L 5.922,-4.527 3.864,-5.879 3.666,-5.578 c 0.118,0.106 0.189,0.22 0.206,0.35 0.014,0.124 -0.025,0.257 -0.114,0.397 L 0.92,-0.513 C 0.825,-0.381 0.719,-0.297 0.599,-0.261 0.479,-0.224 0.346,-0.24 0.198,-0.306 Z"
             style="fill:#87181d;fill-opacity:1;fill-rule:nonzero;stroke:none"
             id="path118"
             inkscape:connector-curvature="0" /></g><g
           id="g120"
           transform="translate(323.3853,363.5534)"><path
             d="M 0,0 2.284,0.948 2.422,0.613 C 2.255,0.464 2.158,0.342 2.133,0.25 2.106,0.154 2.123,0.039 2.184,-0.108 l 1.437,-3.469 0.045,0.016 1.63,4.245 -0.177,0.425 C 5.061,1.254 4.973,1.354 4.861,1.411 4.747,1.47 4.606,1.482 4.439,1.451 L 4.301,1.781 6.587,2.731 6.724,2.398 C 6.583,2.31 6.491,2.205 6.457,2.082 6.42,1.964 6.432,1.832 6.493,1.681 L 8.472,-3.09 C 8.537,-3.247 8.623,-3.353 8.734,-3.412 8.847,-3.473 8.983,-3.479 9.14,-3.434 L 9.282,-3.768 6.996,-4.712 6.858,-4.379 c 0.132,0.078 0.224,0.177 0.268,0.294 0.047,0.122 0.037,0.266 -0.028,0.427 L 5.63,-0.123 5.585,-0.143 3.961,-4.393 4.163,-4.875 c 0.052,-0.151 0.138,-0.257 0.25,-0.316 0.116,-0.055 0.256,-0.067 0.425,-0.024 l 0.141,-0.334 -2.284,-0.947 -0.14,0.334 c 0.14,0.081 0.23,0.179 0.268,0.304 0.041,0.117 0.027,0.258 -0.036,0.411 L 0.81,-0.676 c -0.067,0.147 -0.159,0.248 -0.268,0.309 -0.111,0.057 -0.245,0.07 -0.404,0.035 z"
             style="fill:#87181d;fill-opacity:1;fill-rule:nonzero;stroke:none"
             id="path122"
             inkscape:connector-curvature="0" /></g><g
           id="g124"
           transform="translate(336.6016,369.4948)"><path
             d="M 0,0 C 0.454,0.088 0.818,0.238 1.091,0.444 1.364,0.651 1.486,0.835 1.454,0.992 1.443,1.041 1.421,1.073 1.382,1.104 1.344,1.13 1.297,1.138 1.246,1.126 1.213,1.118 1.181,1.107 1.146,1.083 1.111,1.065 1.061,1.03 0.989,0.981 0.837,0.872 0.688,0.835 0.545,0.875 0.403,0.914 0.317,1 0.293,1.134 0.269,1.256 0.299,1.372 0.383,1.474 0.466,1.574 0.597,1.643 0.773,1.677 1.026,1.729 1.254,1.694 1.454,1.584 1.653,1.474 1.777,1.305 1.822,1.073 1.897,0.694 1.769,0.316 1.437,-0.055 1.107,-0.431 0.674,-0.667 0.141,-0.771 c -0.538,-0.108 -1.031,-0.049 -1.48,0.168 -0.446,0.221 -0.704,0.518 -0.776,0.904 -0.049,0.228 -0.006,0.43 0.14,0.611 0.143,0.175 0.345,0.293 0.605,0.342 0.169,0.031 0.313,0.01 0.433,-0.049 C -0.818,1.15 -0.747,1.059 -0.721,0.933 -0.702,0.802 -0.749,0.688 -0.865,0.595 -0.983,0.505 -1.132,0.487 -1.309,0.529 -1.398,0.548 -1.465,0.558 -1.502,0.562 -1.541,0.57 -1.571,0.57 -1.6,0.566 -1.655,0.554 -1.7,0.529 -1.726,0.491 -1.752,0.448 -1.757,0.407 -1.742,0.362 -1.714,0.186 -1.521,0.059 -1.164,-0.016 -0.81,-0.087 -0.421,-0.085 0,0 m -3.234,-2.184 2.424,0.478 0.071,-0.358 c -0.193,-0.108 -0.311,-0.212 -0.354,-0.297 -0.045,-0.088 -0.051,-0.206 -0.02,-0.354 l 0.722,-3.689 0.051,0.006 2.431,3.839 -0.088,0.453 c -0.03,0.154 -0.093,0.266 -0.195,0.343 -0.1,0.082 -0.234,0.124 -0.405,0.124 l -0.068,0.355 2.427,0.478 0.069,-0.356 C 3.674,-1.219 3.564,-1.305 3.505,-1.415 3.446,-1.526 3.434,-1.659 3.465,-1.817 L 4.46,-6.886 c 0.035,-0.161 0.098,-0.287 0.195,-0.367 0.096,-0.079 0.228,-0.112 0.393,-0.1 L 5.12,-7.707 2.693,-8.185 2.624,-7.833 c 0.145,0.051 0.252,0.13 0.322,0.24 0.069,0.106 0.089,0.249 0.054,0.42 l -0.74,3.757 -0.047,-0.012 -2.431,-3.845 0.1,-0.515 c 0.027,-0.159 0.088,-0.279 0.187,-0.354 0.1,-0.084 0.237,-0.12 0.41,-0.114 l 0.071,-0.35 -2.425,-0.478 -0.071,0.352 c 0.153,0.05 0.259,0.132 0.323,0.246 0.062,0.111 0.078,0.246 0.045,0.411 l -0.997,5.067 c -0.039,0.158 -0.106,0.277 -0.201,0.358 -0.096,0.079 -0.226,0.116 -0.39,0.112 z"
             style="fill:#87181d;fill-opacity:1;fill-rule:nonzero;stroke:none"
             id="path126"
             inkscape:connector-curvature="0" /></g><g
           id="g128"
           transform="translate(354.3286,368.6643)"><path
             d="M 0,0 2.418,-0.464 2.351,-0.818 C 2.18,-0.821 2.048,-0.857 1.948,-0.933 1.848,-1.012 1.787,-1.13 1.763,-1.289 L 1.427,-3.056 c 0.36,-0.081 0.688,-0.05 0.979,0.088 0.289,0.144 0.558,0.409 0.806,0.788 0.405,0.647 0.745,1.042 1.02,1.188 0.275,0.147 0.602,0.181 0.985,0.108 0.116,-0.02 0.23,-0.049 0.332,-0.091 0.106,-0.037 0.2,-0.08 0.287,-0.122 L 5.531,-2.685 5.181,-2.616 C 5.168,-2.504 5.127,-2.413 5.057,-2.335 4.985,-2.26 4.908,-2.217 4.816,-2.201 4.71,-2.18 4.606,-2.192 4.501,-2.235 4.393,-2.28 4.275,-2.366 4.132,-2.49 3.583,-2.974 3.222,-3.257 3.058,-3.334 2.893,-3.412 2.703,-3.469 2.496,-3.491 L 2.483,-3.564 c 0.155,-0.058 0.32,-0.124 0.487,-0.202 0.167,-0.077 0.318,-0.157 0.448,-0.242 0.285,-0.198 0.497,-0.438 0.631,-0.721 0.136,-0.279 0.218,-0.69 0.25,-1.228 0.014,-0.445 0.029,-0.702 0.035,-0.767 0.008,-0.067 0.022,-0.122 0.037,-0.167 0.046,-0.203 0.136,-0.374 0.27,-0.523 0.139,-0.15 0.297,-0.248 0.474,-0.297 L 5.044,-8.094 C 4.91,-8.116 4.78,-8.126 4.649,-8.126 c -0.13,0 -0.266,0.014 -0.403,0.041 C 3.884,-8.017 3.577,-7.888 3.33,-7.699 3.082,-7.512 2.909,-7.275 2.809,-6.99 2.764,-6.893 2.736,-6.795 2.718,-6.693 2.699,-6.589 2.689,-6.288 2.683,-5.779 2.673,-5.305 2.638,-4.957 2.577,-4.733 2.514,-4.505 2.418,-4.31 2.292,-4.141 2.17,-3.994 2.027,-3.872 1.858,-3.772 1.693,-3.67 1.517,-3.607 1.325,-3.577 L 0.794,-6.361 C 0.763,-6.528 0.78,-6.663 0.839,-6.771 0.897,-6.875 1.008,-6.956 1.167,-7.017 l -0.07,-0.352 -2.418,0.46 0.067,0.358 c 0.161,-0.012 0.289,0.023 0.389,0.102 0.1,0.081 0.163,0.203 0.198,0.368 l 0.966,5.073 c 0.025,0.159 0.006,0.293 -0.053,0.405 -0.057,0.11 -0.166,0.189 -0.317,0.25 z"
             style="fill:#87181d;fill-opacity:1;fill-rule:nonzero;stroke:none"
             id="path130"
             inkscape:connector-curvature="0" /></g><g
           id="g132"
           transform="translate(365.314,364.0241)"><path
             d="m 0,0 -2.156,-2.125 -0.01,-0.039 2.41,-0.914 0.012,0.025 -0.217,3.037 z m -4.741,-3.405 c 0.144,-0.011 0.297,0.024 0.46,0.112 0.165,0.083 0.33,0.203 0.492,0.354 l 3.396,3.304 c 0.067,0.067 0.128,0.144 0.177,0.23 0.051,0.083 0.1,0.185 0.151,0.303 0.028,0.073 0.008,0.143 -0.063,0.206 -0.074,0.061 -0.171,0.109 -0.3,0.146 l 0.129,0.338 c 0.256,-0.077 0.502,-0.11 0.73,-0.104 0.226,0.013 0.438,0.067 0.63,0.167 L 1.396,1.527 1.878,-4.547 c 0.027,-0.395 0.068,-0.715 0.129,-0.959 0.061,-0.243 0.155,-0.43 0.291,-0.566 l -0.131,-0.336 -2.652,1.008 0.129,0.338 c 0.144,-0.065 0.285,-0.062 0.423,0.01 0.134,0.071 0.23,0.179 0.287,0.332 0.012,0.024 0.018,0.071 0.022,0.144 0.002,0.076 0.004,0.135 0.006,0.177 l -0.056,0.719 -2.962,1.125 -0.452,-0.464 c -0.226,-0.228 -0.322,-0.429 -0.277,-0.6 0.041,-0.169 0.189,-0.328 0.442,-0.472 l -0.126,-0.34 -1.818,0.688 z"
             style="fill:#87181d;fill-opacity:1;fill-rule:nonzero;stroke:none"
             id="path134"
             inkscape:connector-curvature="0" /></g><g
           id="g136"
           transform="translate(370.9771,363.8845)"><path
             d="M 0,0 0.346,-0.196 C 0.393,-0.283 0.458,-0.36 0.529,-0.424 0.605,-0.491 0.707,-0.558 0.831,-0.629 L 4.78,-2.846 C 4.883,-2.911 4.985,-2.96 5.085,-2.991 5.183,-3.019 5.292,-3.033 5.409,-3.042 L 5.747,-3.229 4.863,-4.806 4.548,-4.633 c 0.034,0.413 -0.01,0.765 -0.139,1.056 -0.13,0.289 -0.344,0.521 -0.643,0.692 L 3.194,-2.567 0.448,-7.458 C 0.358,-7.597 0.326,-7.725 0.354,-7.835 0.379,-7.945 0.462,-8.067 0.601,-8.198 l -0.18,-0.313 -2.157,1.209 0.177,0.316 c 0.205,-0.043 0.352,-0.051 0.446,-0.014 0.092,0.036 0.179,0.13 0.26,0.276 l 2.746,4.886 -0.484,0.275 C 1.046,-1.36 0.705,-1.272 0.379,-1.301 0.053,-1.332 -0.265,-1.482 -0.574,-1.755 l -0.313,0.177 z"
             style="fill:#87181d;fill-opacity:1;fill-rule:nonzero;stroke:none"
             id="path138"
             inkscape:connector-curvature="0" /></g><g
           id="g140"
           transform="translate(380.6406,356.99)"><path
             d="m 0,0 c -0.546,0.423 -1.077,0.529 -1.602,0.316 -0.523,-0.216 -1.12,-0.75 -1.788,-1.607 -0.669,-0.846 -1.046,-1.544 -1.133,-2.096 -0.086,-0.548 0.142,-1.04 0.682,-1.466 0.535,-0.423 1.06,-0.531 1.581,-0.321 0.519,0.207 1.114,0.737 1.785,1.583 0.672,0.849 1.053,1.555 1.139,2.113 C 0.753,-0.92 0.531,-0.427 0,0 M 0.332,0.419 C 1.109,-0.197 1.541,-0.987 1.63,-1.964 1.722,-2.935 1.447,-3.816 0.816,-4.615 0.193,-5.404 -0.601,-5.862 -1.553,-6.003 c -0.957,-0.138 -1.83,0.108 -2.618,0.733 -0.794,0.629 -1.234,1.423 -1.317,2.386 -0.086,0.959 0.183,1.828 0.808,2.619 0.627,0.803 1.421,1.269 2.382,1.405 0.966,0.136 1.84,-0.106 2.63,-0.721"
             style="fill:#87181d;fill-opacity:1;fill-rule:nonzero;stroke:none"
             id="path142"
             inkscape:connector-curvature="0" /></g><g
           id="g144"
           transform="translate(386.2241,352.5373)"><path
             d="m 0,0 1.588,-1.72 -2.983,-5.468 c -0.158,-0.283 -0.242,-0.486 -0.25,-0.61 -0.008,-0.127 0.029,-0.249 0.108,-0.375 l -0.269,-0.248 -1.251,1.358 2.668,4.879 -0.083,0.089 c -0.582,-0.35 -1.214,-0.702 -1.903,-1.069 -0.685,-0.362 -1.228,-0.616 -1.619,-0.763 -0.551,-0.214 -0.991,-0.315 -1.321,-0.315 -0.331,0.004 -0.615,0.134 -0.859,0.395 -0.179,0.197 -0.268,0.399 -0.268,0.604 0,0.21 0.077,0.383 0.228,0.523 0.13,0.116 0.28,0.176 0.458,0.178 0.176,0 0.329,-0.07 0.46,-0.208 0.028,-0.031 0.052,-0.067 0.077,-0.114 0.022,-0.045 0.049,-0.096 0.073,-0.155 0.075,-0.21 0.118,-0.324 0.128,-0.335 0.013,-0.021 0.029,-0.04 0.047,-0.056 0.104,-0.118 0.295,-0.142 0.566,-0.071 0.275,0.071 0.763,0.275 1.474,0.613 0.639,0.313 1.201,0.608 1.681,0.877 0.483,0.275 0.823,0.501 1.02,0.682 0.163,0.151 0.249,0.309 0.256,0.475 0.009,0.167 -0.054,0.321 -0.176,0.463 l -0.117,0.124 z"
             style="fill:#87181d;fill-opacity:1;fill-rule:nonzero;stroke:none"
             id="path146"
             inkscape:connector-curvature="0" /></g><g
           id="g148"
           transform="translate(391.4287,346.4934)"><path
             d="M 0,0 1.317,-2.091 1.012,-2.284 C 0.834,-2.146 0.7,-2.072 0.604,-2.06 0.507,-2.052 0.393,-2.089 0.263,-2.168 l -3.18,-2.007 0.024,-0.039 4.46,-0.89 0.389,0.247 c 0.13,0.081 0.214,0.183 0.252,0.305 0.039,0.12 0.029,0.261 -0.034,0.42 L 2.483,-3.939 3.8,-6.03 3.493,-6.225 C 3.381,-6.099 3.265,-6.025 3.141,-6.011 3.017,-5.997 2.889,-6.034 2.75,-6.119 l -4.368,-2.755 c -0.145,-0.087 -0.235,-0.189 -0.275,-0.307 -0.039,-0.122 -0.023,-0.258 0.049,-0.405 l -0.31,-0.195 -1.317,2.093 0.307,0.19 c 0.099,-0.117 0.212,-0.187 0.338,-0.213 0.129,-0.024 0.263,0.008 0.409,0.1 L 0.824,-5.57 0.8,-5.527 -3.666,-4.646 -4.11,-4.922 c -0.139,-0.082 -0.226,-0.182 -0.263,-0.302 -0.04,-0.122 -0.024,-0.262 0.043,-0.425 l -0.303,-0.191 -1.319,2.09 0.307,0.193 c 0.1,-0.124 0.214,-0.193 0.342,-0.213 0.124,-0.019 0.259,0.02 0.401,0.108 l 4.371,2.754 c 0.134,0.09 0.219,0.193 0.256,0.315 0.041,0.118 0.031,0.249 -0.031,0.4 z"
             style="fill:#87181d;fill-opacity:1;fill-rule:nonzero;stroke:none"
             id="path150"
             inkscape:connector-curvature="0" /></g><g
           id="g152"
           transform="translate(396.6904,337.5544)"><path
             d="M 0,0 0.908,-2.298 0.572,-2.43 c -0.079,0.132 -0.181,0.222 -0.305,0.268 -0.124,0.047 -0.259,0.037 -0.405,-0.026 l -5.177,-2.048 1.079,-2.732 5.178,2.046 c 0.143,0.057 0.245,0.143 0.304,0.253 0.061,0.113 0.075,0.252 0.046,0.419 L 1.63,-4.118 2.539,-6.416 2.201,-6.548 c -0.086,0.144 -0.19,0.234 -0.308,0.273 -0.12,0.038 -0.254,0.03 -0.403,-0.035 l -4.72,-1.863 c -0.131,-0.051 -0.227,-0.106 -0.291,-0.162 -0.066,-0.06 -0.123,-0.169 -0.169,-0.332 -0.092,-0.249 -0.192,-0.442 -0.306,-0.577 -0.112,-0.134 -0.254,-0.242 -0.427,-0.307 -0.375,-0.146 -0.764,-0.116 -1.173,0.104 -0.405,0.224 -0.702,0.564 -0.889,1.034 -0.063,0.157 -0.114,0.35 -0.159,0.568 -0.041,0.214 -0.076,0.446 -0.102,0.694 -0.01,0.139 -0.018,0.277 -0.02,0.407 -0.003,0.137 -0.003,0.342 0.002,0.621 0.008,0.273 0,0.523 -0.023,0.743 -0.024,0.226 -0.057,0.395 -0.106,0.511 -0.032,0.085 -0.075,0.144 -0.124,0.177 -0.048,0.035 -0.097,0.043 -0.15,0.023 -0.031,-0.004 -0.053,-0.023 -0.067,-0.047 -0.011,-0.029 -0.007,-0.059 0.01,-0.106 l 0.057,-0.116 -0.004,-0.01 c 0.02,-0.078 0.018,-0.147 -0.009,-0.214 -0.03,-0.061 -0.083,-0.112 -0.164,-0.143 -0.088,-0.034 -0.177,-0.026 -0.269,0.021 -0.092,0.049 -0.165,0.134 -0.218,0.246 -0.055,0.141 -0.049,0.273 0.022,0.397 0.07,0.126 0.176,0.214 0.318,0.271 0.295,0.116 0.588,0.057 0.886,-0.177 0.291,-0.237 0.521,-0.582 0.675,-1.03 0.082,-0.224 0.143,-0.475 0.185,-0.745 0.043,-0.271 0.072,-0.609 0.086,-1.01 0.029,-0.584 0.051,-0.934 0.067,-1.042 0.016,-0.112 0.041,-0.214 0.08,-0.306 0.069,-0.181 0.183,-0.309 0.34,-0.39 0.158,-0.078 0.319,-0.086 0.488,-0.019 0.187,0.073 0.309,0.202 0.367,0.391 0.054,0.183 0.042,0.375 -0.031,0.562 l -2.194,5.551 0.335,0.132 c 0.065,-0.128 0.164,-0.219 0.288,-0.271 0.124,-0.048 0.268,-0.04 0.429,0.021 l 4.802,1.897 c 0.155,0.071 0.261,0.167 0.319,0.289 0.062,0.124 0.072,0.252 0.033,0.387 z"
             style="fill:#87181d;fill-opacity:1;fill-rule:nonzero;stroke:none"
             id="path154"
             inkscape:connector-curvature="0" /></g><g
           id="g156"
           transform="translate(397.1719,325.3767)"><path
             d="m 0,0 -3.031,-0.625 0.124,-0.603 c 0.095,-0.492 0.293,-0.824 0.592,-0.98 0.302,-0.163 0.689,-0.196 1.161,-0.098 0.512,0.108 0.875,0.295 1.091,0.572 0.217,0.276 0.278,0.655 0.185,1.142 z M 3.434,0.218 3.08,0.143 C 3.019,0.306 2.929,0.417 2.817,0.475 2.703,0.529 2.54,0.534 2.333,0.487 L 0.521,0.112 0.7,-0.757 c 0.187,-0.9 0.14,-1.614 -0.138,-2.139 -0.275,-0.53 -0.723,-0.857 -1.34,-0.984 -0.57,-0.116 -1.097,-0.006 -1.577,0.332 -0.481,0.342 -0.8,0.885 -0.955,1.639 l -0.646,3.12 0.355,0.074 c 0.047,-0.159 0.13,-0.265 0.25,-0.32 0.121,-0.061 0.289,-0.067 0.501,-0.032 l 4.881,1.009 c 0.208,0.045 0.355,0.114 0.438,0.214 0.081,0.097 0.118,0.23 0.112,0.395 l 0.354,0.075 z"
             style="fill:#87181d;fill-opacity:1;fill-rule:nonzero;stroke:none"
             id="path158"
             inkscape:connector-curvature="0" /></g><g
           id="g160"
           transform="translate(401.6323,319.6706)"><path
             d="M 0,0 0.112,-2.461 -0.25,-2.474 c -0.041,0.163 -0.11,0.286 -0.208,0.365 -0.096,0.075 -0.226,0.11 -0.387,0.094 l -1.797,-0.08 c 0.004,-0.372 0.11,-0.682 0.315,-0.93 0.206,-0.25 0.524,-0.45 0.953,-0.604 0.721,-0.247 1.185,-0.485 1.391,-0.717 C 0.22,-4.578 0.332,-4.892 0.35,-5.28 0.354,-5.396 0.352,-5.515 0.34,-5.621 0.328,-5.732 0.31,-5.836 0.289,-5.93 l -1.616,-0.071 -0.016,0.358 c 0.106,0.035 0.187,0.098 0.242,0.184 0.055,0.087 0.083,0.174 0.08,0.268 -0.007,0.106 -0.041,0.206 -0.111,0.297 -0.069,0.092 -0.179,0.192 -0.329,0.3 -0.605,0.421 -0.961,0.704 -1.075,0.848 -0.114,0.147 -0.21,0.316 -0.285,0.509 L -2.893,-3.239 C -2.911,-3.406 -2.937,-3.577 -2.974,-3.758 -3.01,-3.943 -3.053,-4.104 -3.106,-4.254 -3.234,-4.578 -3.419,-4.834 -3.662,-5.034 -3.904,-5.228 -4.283,-5.405 -4.798,-5.56 -5.227,-5.682 -5.476,-5.75 -5.539,-5.771 -5.602,-5.795 -5.653,-5.82 -5.691,-5.851 -5.875,-5.938 -6.023,-6.068 -6.137,-6.233 -6.249,-6.396 -6.31,-6.577 -6.314,-6.76 l -0.391,-0.021 c -0.051,0.124 -0.094,0.251 -0.122,0.381 -0.031,0.124 -0.047,0.258 -0.053,0.397 -0.016,0.37 0.039,0.698 0.161,0.981 0.126,0.285 0.315,0.507 0.568,0.672 0.085,0.063 0.174,0.114 0.27,0.155 0.094,0.044 0.389,0.124 0.88,0.246 0.458,0.118 0.79,0.236 0.995,0.346 0.206,0.114 0.375,0.25 0.509,0.415 0.112,0.151 0.202,0.32 0.259,0.505 0.059,0.187 0.079,0.372 0.063,0.566 l -2.83,-0.131 C -6.172,-2.253 -6.3,-2.298 -6.392,-2.382 -6.481,-2.467 -6.536,-2.591 -6.554,-2.758 l -0.361,-0.014 -0.11,2.46 0.36,0.015 c 0.027,-0.159 0.092,-0.277 0.19,-0.354 0.104,-0.08 0.238,-0.113 0.403,-0.106 l 5.162,0.232 c 0.159,0.016 0.285,0.063 0.379,0.146 0.094,0.086 0.151,0.206 0.171,0.362 z"
             style="fill:#87181d;fill-opacity:1;fill-rule:nonzero;stroke:none"
             id="path162"
             inkscape:connector-curvature="0" /></g><g
           id="g164"
           transform="translate(401.8589,310.6994)"><path
             d="m 0,0 -0.295,-2.457 -0.36,0.044 c -0.049,0.223 -0.106,0.365 -0.176,0.43 -0.068,0.071 -0.181,0.114 -0.331,0.134 l -3.734,0.448 -0.005,-0.049 2.898,-3.499 0.458,-0.055 c 0.153,-0.02 0.285,0.006 0.391,0.078 0.104,0.071 0.183,0.185 0.24,0.343 l 0.356,-0.04 -0.295,-2.455 -0.36,0.045 c -0.006,0.167 -0.051,0.297 -0.139,0.385 -0.089,0.091 -0.211,0.144 -0.37,0.167 l -5.128,0.616 c -0.167,0.018 -0.303,-0.004 -0.407,-0.069 -0.11,-0.069 -0.181,-0.185 -0.22,-0.346 l -0.36,0.045 0.295,2.453 0.36,-0.041 c 0.005,-0.155 0.043,-0.285 0.127,-0.381 0.081,-0.102 0.211,-0.161 0.385,-0.181 l 3.8,-0.458 0.006,0.049 -2.907,3.499 -0.521,0.065 c -0.159,0.022 -0.291,0.002 -0.399,-0.069 -0.106,-0.073 -0.183,-0.189 -0.228,-0.358 l -0.36,0.045 0.295,2.452 0.36,-0.04 c 0,-0.161 0.045,-0.291 0.133,-0.381 0.087,-0.096 0.211,-0.155 0.376,-0.173 l 5.132,-0.617 c 0.159,-0.01 0.293,0.015 0.399,0.079 0.106,0.074 0.181,0.18 0.226,0.334 z"
             style="fill:#87181d;fill-opacity:1;fill-rule:nonzero;stroke:none"
             id="path166"
             inkscape:connector-curvature="0" /></g><g
           id="g168"
           transform="translate(400.7935,296.9113)"><path
             d="m 0,0 c -0.138,-0.442 -0.181,-0.831 -0.128,-1.169 0.053,-0.338 0.157,-0.533 0.309,-0.582 0.045,-0.012 0.09,-0.012 0.129,0.013 0.042,0.02 0.071,0.058 0.087,0.109 0.01,0.029 0.014,0.066 0.012,0.103 -0.004,0.042 -0.008,0.103 -0.016,0.188 -0.024,0.192 0.012,0.338 0.116,0.444 0.104,0.106 0.218,0.141 0.346,0.1 C 0.977,-0.831 1.061,-0.91 1.114,-1.038 1.163,-1.158 1.161,-1.305 1.107,-1.474 1.032,-1.722 0.896,-1.907 0.707,-2.029 0.511,-2.156 0.303,-2.178 0.08,-2.113 c -0.371,0.114 -0.642,0.407 -0.813,0.876 -0.169,0.469 -0.175,0.962 -0.014,1.479 0.161,0.528 0.446,0.934 0.853,1.221 0.403,0.292 0.792,0.375 1.16,0.255 C 1.49,1.655 1.651,1.519 1.738,1.307 1.828,1.095 1.832,0.865 1.755,0.611 1.698,0.45 1.614,0.328 1.506,0.25 1.398,0.173 1.285,0.155 1.163,0.193 1.036,0.238 0.961,0.336 0.937,0.482 0.91,0.627 0.961,0.765 1.087,0.902 1.144,0.975 1.185,1.026 1.209,1.057 1.231,1.087 1.25,1.113 1.256,1.14 1.272,1.197 1.272,1.246 1.25,1.289 1.228,1.331 1.193,1.354 1.144,1.362 0.975,1.419 0.773,1.313 0.542,1.034 0.306,0.757 0.126,0.411 0,0 M -0.387,3.884 -1.12,1.522 -1.465,1.628 C -1.474,1.853 -1.504,2.003 -1.563,2.083 -1.616,2.164 -1.718,2.231 -1.864,2.271 L -5.455,3.385 -5.47,3.338 -3.249,-0.625 -2.807,-0.76 c 0.147,-0.049 0.279,-0.047 0.399,0.007 0.116,0.047 0.216,0.147 0.297,0.297 l 0.346,-0.106 -0.733,-2.363 -0.346,0.106 c 0.025,0.169 0.002,0.3 -0.069,0.407 -0.069,0.101 -0.179,0.179 -0.334,0.229 l -4.934,1.53 c -0.161,0.047 -0.295,0.05 -0.413,0.004 -0.116,-0.049 -0.21,-0.149 -0.277,-0.304 l -0.346,0.108 0.733,2.364 0.346,-0.108 C -8.167,1.256 -8.146,1.13 -8.083,1.016 -8.02,0.902 -7.906,0.82 -7.737,0.765 L -4.083,-0.367 -4.067,-0.32 -6.3,3.646 -6.799,3.802 C -6.952,3.857 -7.086,3.857 -7.204,3.805 -7.32,3.758 -7.417,3.654 -7.493,3.495 l -0.346,0.11 0.733,2.359 0.346,-0.108 C -6.789,5.704 -6.768,5.565 -6.701,5.459 -6.634,5.354 -6.518,5.274 -6.359,5.223 l 4.936,-1.529 c 0.153,-0.04 0.287,-0.036 0.405,0.013 0.116,0.044 0.212,0.14 0.285,0.283 z"
             style="fill:#87181d;fill-opacity:1;fill-rule:nonzero;stroke:none"
             id="path170"
             inkscape:connector-curvature="0" /></g><g
           id="g172"
           transform="translate(492.7012,374.3537)"><path
             d="M 0,0 C 0.01,0.003 0.925,0.399 3.207,0.508 3.104,-1.75 2.714,-2.671 2.699,-2.703 L 2.438,-3.272 H 5.702 L 6.328,-3.269 6.067,-2.7 C 6.062,-2.69 5.655,-1.775 5.549,0.508 7.841,0.404 8.762,0.005 8.77,0.001 L 9.341,-0.263 9.339,3.624 8.77,3.364 C 8.759,3.361 7.838,2.952 5.545,2.844 c 0.11,2.29 0.517,3.212 0.522,3.22 L 6.338,6.638 2.448,6.636 2.699,6.07 C 2.703,6.059 3.102,5.138 3.207,2.845 0.927,2.957 0.011,3.361 0.005,3.364 l -0.574,0.269 0.002,-3.884 z"
             style="fill:#9d8e7c;fill-opacity:1;fill-rule:nonzero;stroke:none"
             id="path174"
             inkscape:connector-curvature="0" /></g><path
           d="m 433.644,346.955 h 126.887 v 3.563 H 433.644 Z"
           style="fill:#9d8e7c;fill-opacity:1;fill-rule:nonzero;stroke:none"
           id="path176"
           inkscape:connector-curvature="0" /><g
           id="g178"
           transform="translate(481.9707,369.4431)"><path
             d="m 0,0 c -12.748,0 -15.801,-8.183 -36.09,-8.183 -5.072,0 -12.044,0.602 -12.236,0.602 l -10e-4,-3.482 c 0,0 3.92,-0.72 12.009,-0.72 22.947,0 24.669,8.175 36.199,8.175 5.89,0 8.829,-4.136 8.829,-4.136 h 4.436 C 13.146,-7.744 10.014,0 0,0"
             style="fill:#9d8e7c;fill-opacity:1;fill-rule:nonzero;stroke:none"
             id="path180"
             inkscape:connector-curvature="0" /></g><g
           id="g182"
           transform="translate(560.5293,361.8625)"><path
             d="m 0,0 c -0.193,0 -7.164,-0.602 -12.236,-0.602 -20.289,0 -23.342,8.183 -36.09,8.183 -10.014,0 -13.146,-7.745 -13.146,-7.745 h 4.435 c 0,0 2.94,4.137 8.83,4.137 11.53,0 13.252,-8.176 36.199,-8.176 8.089,0 12.009,0.721 12.009,0.721 z"
             style="fill:#9d8e7c;fill-opacity:1;fill-rule:nonzero;stroke:none"
             id="path184"
             inkscape:connector-curvature="0" /></g><g
           id="g186"
           transform="translate(549.8643,289.2981)"><path
             d="m 0,0 c -0.676,0.461 -1.6,0.284 -2.06,-0.393 l -4.894,-7.359 -4.893,7.359 C -12.307,0.284 -13.23,0.46 -13.906,0 -14.584,-0.461 -14.76,-1.383 -14.3,-2.06 l 5.863,-8.616 v -5.653 c 0,-0.819 0.665,-1.483 1.483,-1.483 0.819,0 1.484,0.664 1.484,1.483 v 5.653 L 0.393,-2.06 C 0.854,-1.383 0.678,-0.461 0,0"
             style="fill:#9d8e7c;fill-opacity:1;fill-rule:nonzero;stroke:none"
             id="path188"
             inkscape:connector-curvature="0" /></g><g
           id="g190"
           transform="translate(485.8027,287.9436)"><path
             d="m 0,0 c 0,0 0.006,-7.691 0.006,-9.751 0,-4.114 3.523,-6.876 7.576,-6.876 4.048,0 7.576,2.752 7.576,6.876 0,0.849 0.006,9.751 0.006,9.751 0,0.819 -0.664,1.483 -1.482,1.483 -0.82,0 -1.482,-0.663 -1.483,-1.482 0,0 -0.006,-7.762 -0.006,-10.034 0,-1.933 -2.041,-3.629 -4.611,-3.629 -2.767,0 -4.61,1.893 -4.61,3.662 0,2.272 -0.007,10.001 -0.007,10.001 0,0.819 -0.664,1.482 -1.483,1.482 C 0.663,1.483 0,0.819 0,0"
             style="fill:#9d8e7c;fill-opacity:1;fill-rule:nonzero;stroke:none"
             id="path192"
             inkscape:connector-curvature="0" /></g><g
           id="g194"
           transform="translate(457.417,328.2439)"><path
             d="m 0,0 c 0.001,0.553 0.005,2.236 3.005,2.258 l 1.75,0.015 h 0.048 c 2.526,0 3.44,-1.47 3.451,-2.852 C 8.261,-1.379 7.96,-2.106 7.408,-2.629 6.716,-3.284 5.635,-3.636 4.279,-3.646 L 0.021,-3.676 C 0.008,-2.086 -0.001,-0.682 0,0 m -1.393,-12.761 h 0.017 c 0.819,0.009 1.477,0.68 1.468,1.499 -0.001,0.044 -0.046,4.617 -0.046,4.617 l 4.255,0.031 c 2.121,0.015 3.901,0.648 5.149,1.83 1.156,1.095 1.785,2.597 1.773,4.23 -0.024,2.799 -2.042,5.795 -6.42,5.795 H 4.733 L 2.986,5.226 C -0.679,5.2 -2.961,3.2 -2.969,0.007 c -0.004,-2.138 0.088,-10.926 0.092,-11.3 0.009,-0.814 0.671,-1.468 1.484,-1.468"
             style="fill:#9d8e7c;fill-opacity:1;fill-rule:nonzero;stroke:none"
             id="path196"
             inkscape:connector-curvature="0" /></g><g
           id="g198"
           transform="translate(522.8125,315.5925)"><path
             d="M 0,0 H 5.495 C 6.315,0 6.98,0.665 6.98,1.484 6.98,2.305 6.315,2.969 5.495,2.969 H 0 c -3.004,0 -3.021,1.684 -3.027,2.237 -0.005,0.504 -0.008,1.405 -0.009,2.482 h 7.137 c 0.819,0 1.483,0.665 1.483,1.485 0,0.819 -0.664,1.484 -1.483,1.484 h -7.137 c 10e-4,1.61 0.004,3.216 0.006,4.33 h 8.525 c 0.82,0 1.485,0.665 1.485,1.484 0,0.821 -0.665,1.485 -1.485,1.485 H -4.512 c -0.818,0 -1.481,-0.663 -1.483,-1.481 -0.001,-0.372 -0.023,-9.162 0,-11.299 C -5.963,1.982 -3.665,0 0,0"
             style="fill:#9d8e7c;fill-opacity:1;fill-rule:nonzero;stroke:none"
             id="path200"
             inkscape:connector-curvature="0" /></g><g
           id="g202"
           transform="translate(439.5479,286.4582)"><path
             d="m 0,0 h 4.818 c 0.821,0 1.484,0.664 1.484,1.482 0,0.821 -0.663,1.484 -1.484,1.484 H 0 c -3.662,0 -5.956,-1.982 -5.989,-5.171 -0.022,-2.136 -0.001,-10.917 0,-11.29 0.002,-0.818 0.665,-1.48 1.482,-1.48 h 0.004 c 0.818,0.002 1.481,0.668 1.479,1.487 0,0.053 -0.007,3.136 -0.009,6.123 H 3.93 c 0.818,0 1.482,0.664 1.482,1.482 0,0.821 -0.664,1.484 -1.482,1.484 h -6.963 c 0.002,0.934 0.005,1.71 0.009,2.164 C -3.019,-1.683 -3.001,0 0,0"
             style="fill:#9d8e7c;fill-opacity:1;fill-rule:nonzero;stroke:none"
             id="path204"
             inkscape:connector-curvature="0" /></g><g
           id="g206"
           transform="translate(475.8467,328.3791)"><path
             d="m 0,0 c 0.001,0.553 0.005,2.236 3.005,2.257 l 1.75,0.015 h 0.048 c 2.525,0 3.439,-1.469 3.45,-2.852 C 8.257,-1.119 8.127,-1.902 7.476,-2.563 6.788,-3.261 5.682,-3.636 4.278,-3.646 L 0.021,-3.677 C 0.007,-2.086 -0.001,-0.683 0,0 m -1.394,-12.762 h 0.016 c 0.819,0.009 1.478,0.68 1.47,1.501 -0.001,0.044 -0.046,4.616 -0.046,4.616 l 4.254,0.03 c 2.79,0.02 4.417,1.082 5.291,1.97 1.064,1.08 1.642,2.533 1.63,4.09 C 11.198,2.244 9.18,5.241 4.803,5.241 H 4.732 L 2.986,5.227 c -3.667,-0.028 -5.948,-2.028 -5.955,-5.22 -0.004,-2.139 0.088,-10.927 0.092,-11.3 0.009,-0.814 0.671,-1.469 1.483,-1.469"
             style="fill:#9d8e7c;fill-opacity:1;fill-rule:nonzero;stroke:none"
             id="path208"
             inkscape:connector-curvature="0" /></g><g
           id="g210"
           transform="translate(502.8965,318.5612)"><path
             d="m 0,0 h -4.907 c -3.004,0 -3.022,1.684 -3.027,2.237 -0.022,2.119 -10e-4,11.171 0,11.262 0.002,0.82 -0.662,1.486 -1.481,1.488 h -0.004 c -0.817,0 -1.481,-0.662 -1.483,-1.481 -0.001,-0.373 -0.022,-9.162 0,-11.299 0.032,-3.193 2.329,-5.176 5.995,-5.176 H 0 c 0.819,0 1.483,0.664 1.483,1.485 C 1.483,-0.665 0.819,0 0,0"
             style="fill:#9d8e7c;fill-opacity:1;fill-rule:nonzero;stroke:none"
             id="path212"
             inkscape:connector-curvature="0" /></g><g
           id="g214"
           transform="translate(509.0312,315.5925)"><path
             d="m 0,0 c 0.819,0 1.484,0.665 1.484,1.484 v 14.987 c 0,0.821 -0.665,1.485 -1.484,1.485 -0.819,0 -1.484,-0.664 -1.484,-1.485 V 1.484 C -1.484,0.665 -0.819,0 0,0"
             style="fill:#9d8e7c;fill-opacity:1;fill-rule:nonzero;stroke:none"
             id="path216"
             inkscape:connector-curvature="0" /></g><g
           id="g218"
           transform="translate(478.498,293.6125)"><path
             d="m 0,0 h 3.923 c 0.818,0 1.481,0.664 1.481,1.481 0,0.82 -0.663,1.483 -1.481,1.483 L 0,2.964 c -2.999,0 -3.016,1.681 -3.021,2.233 C -3.026,5.7 -3.029,6.599 -3.03,7.674 h 5.729 c 0.819,0 1.482,0.663 1.482,1.481 0,0.818 -0.663,1.481 -1.482,1.481 H -3.03 c 10e-4,1.608 0.004,3.211 0.006,4.324 h 6.947 c 0.818,0 1.481,0.662 1.481,1.481 0,0.818 -0.663,1.481 -1.481,1.481 h -8.426 c -0.817,0 -1.479,-0.661 -1.481,-1.478 -0.001,-0.372 -0.022,-9.145 0,-11.277 C -5.952,1.98 -3.659,0 0,0"
             style="fill:#9d8e7c;fill-opacity:1;fill-rule:nonzero;stroke:none"
             id="path220"
             inkscape:connector-curvature="0" /></g><g
           id="g222"
           transform="translate(465.8984,311.5349)"><path
             d="m 0,0 c -0.818,0 -1.481,-0.663 -1.481,-1.481 v -14.96 c 0,-0.817 0.663,-1.481 1.481,-1.481 0.817,0 1.481,0.664 1.481,1.481 v 14.96 C 1.481,-0.663 0.817,0 0,0"
             style="fill:#9d8e7c;fill-opacity:1;fill-rule:nonzero;stroke:none"
             id="path224"
             inkscape:connector-curvature="0" /></g><g
           id="g226"
           transform="translate(511.3691,271.4846)"><path
             d="m 0,0 h 5.772 c 0.819,0 1.483,0.664 1.483,1.482 0,0.82 -0.664,1.484 -1.483,1.484 H 0 c -3.001,0 -3.019,1.682 -3.024,2.235 -0.022,2.116 0,11.161 0,11.252 0.002,0.819 -0.661,1.484 -1.48,1.486 h -0.004 c -0.816,0 -1.48,-0.662 -1.482,-1.479 -10e-4,-0.373 -0.022,-9.154 0,-11.289 C -5.958,1.981 -3.662,0 0,0"
             style="fill:#9d8e7c;fill-opacity:1;fill-rule:nonzero;stroke:none"
             id="path228"
             inkscape:connector-curvature="0" /></g><g
           id="g230"
           transform="translate(538.0723,330.5798)"><path
             d="m 0,0 h 4.056 c 3.594,0 5.417,-2.022 5.417,-6.01 0,-3.987 -1.823,-6.01 -5.417,-6.01 H 0 Z m -1.484,-14.987 h 5.54 c 5.251,0 8.385,3.356 8.385,8.977 0,5.622 -3.134,8.979 -8.385,8.979 h -5.54 c -0.821,0 -1.485,-0.664 -1.485,-1.485 v -14.987 c 0,-0.82 0.664,-1.484 1.485,-1.484"
             style="fill:#9d8e7c;fill-opacity:1;fill-rule:nonzero;stroke:none"
             id="path232"
             inkscape:connector-curvature="0" /></g><g
           id="g234"
           transform="translate(525.127,271.4846)"><path
             d="m 0,0 c 0.819,0 1.483,0.664 1.483,1.482 v 13.66 h 5.469 c 0.819,0 1.483,0.664 1.483,1.483 0,0.819 -0.664,1.482 -1.483,1.482 H -6.951 c -0.82,0 -1.484,-0.663 -1.484,-1.482 0,-0.819 0.664,-1.483 1.484,-1.483 h 5.469 V 1.482 C -1.482,0.664 -0.818,0 0,0"
             style="fill:#9d8e7c;fill-opacity:1;fill-rule:nonzero;stroke:none"
             id="path236"
             inkscape:connector-curvature="0" /></g><g
           id="g238"
           transform="translate(440.8418,329.466)"><path
             d="m 0,0 c 0.434,1.063 0.87,1.063 1.057,1.063 0.292,0 0.623,0 1.057,-1.063 0.193,-0.474 0.969,-2.605 1.881,-5.137 H -1.881 C -0.969,-2.605 -0.193,-0.474 0,0 m -6.624,-13.938 c 0.779,-0.28 1.638,0.128 1.916,0.908 0.478,1.34 1.105,3.101 1.75,4.895 h 8.03 c 0.643,-1.794 1.272,-3.555 1.75,-4.895 0.219,-0.613 0.796,-0.995 1.412,-0.995 0.166,0 0.336,0.027 0.503,0.087 0.78,0.277 1.187,1.135 0.909,1.915 C 9.473,-11.54 5.412,-0.149 4.89,1.132 4.098,3.076 2.808,4.061 1.057,4.061 c -0.985,0 -2.792,-0.38 -3.833,-2.929 -0.523,-1.281 -4.583,-12.672 -4.757,-13.155 -0.277,-0.78 0.129,-1.638 0.909,-1.915"
             style="fill:#9d8e7c;fill-opacity:1;fill-rule:nonzero;stroke:none"
             id="path240"
             inkscape:connector-curvature="0" /></g><g
           id="g242"
           transform="translate(456.3936,308.5754)"><path
             d="M 0,0 C 1.019,0 1.94,-0.382 1.94,-0.382 2.694,-0.706 3.565,-0.359 3.89,0.392 4.213,1.144 3.865,2.016 3.114,2.339 2.966,2.402 1.617,2.962 0,2.962 c -5.241,0 -8.369,-3.35 -8.369,-8.961 0,-5.61 3.128,-8.961 8.369,-8.961 1.617,0 2.966,0.561 3.115,0.625 0.748,0.322 1.092,1.189 0.774,1.939 -0.32,0.751 -1.187,1.101 -1.94,0.785 0,0 -0.931,-0.386 -1.949,-0.386 -3.588,0 -5.407,2.018 -5.407,5.998 C -5.407,-2.018 -3.588,0 0,0"
             style="fill:#9d8e7c;fill-opacity:1;fill-rule:nonzero;stroke:none"
             id="path244"
             inkscape:connector-curvature="0" /></g><g
           id="g246"
           transform="translate(515.2969,293.6154)"><path
             d="M 0,0 C 1.617,0 2.966,0.562 3.115,0.626 3.864,0.948 4.208,1.813 3.89,2.564 3.57,3.314 2.702,3.665 1.949,3.35 1.949,3.35 1.018,2.964 0,2.964 c -3.588,0 -5.406,2.017 -5.406,5.997 0,3.98 1.818,5.999 5.406,5.999 1.019,0 1.94,-0.382 1.94,-0.382 0.753,-0.325 1.627,0.022 1.951,0.774 0.323,0.752 -0.025,1.623 -0.777,1.946 C 2.966,17.362 1.617,17.922 0,17.922 -5.241,17.922 -8.369,14.573 -8.369,8.961 -8.369,3.351 -5.241,0 0,0"
             style="fill:#9d8e7c;fill-opacity:1;fill-rule:nonzero;stroke:none"
             id="path248"
             inkscape:connector-curvature="0" /></g><g
           id="g250"
           transform="translate(476.7949,271.4856)"><path
             d="m 0,0 c 2.252,0 4.19,1.085 4.404,1.209 0.707,0.409 0.947,1.312 0.54,2.02 -0.406,0.709 -1.311,0.954 -2.021,0.549 0,0 -1.444,-0.812 -2.923,-0.812 -3.591,0 -5.411,2.02 -5.411,6.004 0,3.984 1.82,6.005 5.411,6.005 1.49,0 2.904,-0.802 2.904,-0.802 0.717,-0.418 1.624,-0.18 2.037,0.527 0.413,0.708 0.175,1.615 -0.532,2.029 C 4.196,16.853 2.27,17.94 0,17.94 -5.246,17.94 -8.377,14.587 -8.377,8.97 -8.377,3.354 -5.246,0 0,0"
             style="fill:#9d8e7c;fill-opacity:1;fill-rule:nonzero;stroke:none"
             id="path252"
             inkscape:connector-curvature="0" /></g><g
           id="g254"
           transform="translate(490.2832,293.6125)"><path
             d="M 0,0 C 0.818,0 1.481,0.664 1.481,1.481 V 8.432 L 1.387,12.475 1.739,11.902 C 2.864,10.338 7.964,3.24 9.803,0.669 10.015,0.371 10.553,0 11.101,0 c 0.819,0 1.482,0.664 1.482,1.481 v 14.96 c 0,0.818 -0.663,1.481 -1.482,1.481 -0.818,0 -1.481,-0.663 -1.481,-1.481 V 9.899 9.9 L 9.724,5.434 9.373,6.005 C 8.274,7.533 3.166,14.641 1.299,17.254 1.086,17.551 0.569,17.922 0,17.922 c -0.817,0 -1.48,-0.663 -1.48,-1.481 V 1.481 C -1.48,0.664 -0.817,0 0,0"
             style="fill:#9d8e7c;fill-opacity:1;fill-rule:nonzero;stroke:none"
             id="path256"
             inkscape:connector-curvature="0" /></g><g
           id="g258"
           transform="translate(455.3477,285.4338)"><path
             d="m 0,0 c 0.434,1.062 0.869,1.062 1.056,1.062 0.292,0 0.622,0 1.056,-1.062 0.193,-0.475 0.968,-2.603 1.879,-5.133 H -1.88 C -0.968,-2.603 -0.193,-0.475 0,0 m -6.618,-13.927 c 0.778,-0.278 1.636,0.129 1.914,0.907 0.477,1.34 1.105,3.099 1.748,4.891 h 8.023 c 0.643,-1.792 1.272,-3.551 1.749,-4.891 0.218,-0.612 0.795,-0.995 1.411,-0.995 0.167,0 0.336,0.029 0.502,0.088 0.78,0.279 1.186,1.134 0.908,1.914 -0.172,0.484 -4.23,11.864 -4.752,13.145 -0.792,1.941 -2.081,2.926 -3.829,2.926 -0.985,0 -2.791,-0.38 -3.83,-2.927 -0.522,-1.28 -4.579,-12.66 -4.751,-13.144 -0.279,-0.78 0.128,-1.635 0.907,-1.914"
             style="fill:#9d8e7c;fill-opacity:1;fill-rule:nonzero;stroke:none"
             id="path260"
             inkscape:connector-curvature="0" /></g><g
           id="g262"
           transform="translate(523.7451,310.0573)"><path
             d="m 0,0 c -0.001,-0.372 -0.021,-9.146 0,-11.278 0.032,-3.186 2.325,-5.166 5.984,-5.166 h 3.923 c 0.82,0 1.483,0.663 1.483,1.482 0,0.817 -0.663,1.481 -1.483,1.481 H 5.984 c -2.999,0 -3.016,1.681 -3.021,2.232 -0.006,0.505 -0.01,2.478 -0.01,2.478 h 5.731 c 0.817,0 1.481,0.663 1.481,1.482 0,0.818 -0.664,1.481 -1.481,1.481 H 2.953 l 0.006,4.323 h 6.948 c 0.82,0 1.483,0.663 1.483,1.481 0,0.819 -0.663,1.482 -1.483,1.482 H 1.481 C 0.665,1.478 0.002,0.817 0,0"
             style="fill:#9d8e7c;fill-opacity:1;fill-rule:nonzero;stroke:none"
             id="path264"
             inkscape:connector-curvature="0" /></g><g
           id="g266"
           transform="translate(546.9395,303.4778)"><path
             d="m 0,0 c -0.586,0.296 -1.324,0.634 -2.037,0.961 l -0.116,0.054 c -0.631,0.289 -1.226,0.561 -1.688,0.791 -0.99,0.48 -1.606,1.199 -1.606,1.877 0,0.882 0.945,1.795 2.529,1.795 1.156,0 2.073,-0.338 2.723,-1.004 C 0.169,4.091 0.617,3.88 1.066,3.88 c 0.827,0 1.524,0.674 1.524,1.469 0,1.143 -1.906,2.724 -5.484,2.724 -3.584,0 -5.458,-2.254 -5.458,-4.481 0,-1.803 1.209,-3.387 3.238,-4.243 1.265,-0.533 2.529,-1.179 3.704,-1.798 1.199,-0.621 1.945,-1.558 1.945,-2.445 0,-0.592 -0.607,-2.279 -3.306,-2.279 -1.5,0 -2.769,0.537 -3.477,1.471 -0.308,0.406 -0.732,0.629 -1.197,0.629 -0.76,0 -1.574,-0.583 -1.574,-1.448 0,-1.215 2.08,-3.386 6.223,-3.386 4.137,0 6.37,2.628 6.37,5.099 C 3.574,-2.883 2.305,-1.176 0,0"
             style="fill:#9d8e7c;fill-opacity:1;fill-rule:nonzero;stroke:none"
             id="path268"
             inkscape:connector-curvature="0" /></g><g
           id="g270"
           transform="translate(439.1895,293.5705)"><path
             d="m 0,0 c 4.137,0 6.369,2.628 6.369,5.099 0,1.924 -1.269,3.632 -3.574,4.809 -0.629,0.317 -1.448,0.691 -2.108,0.993 l -0.039,0.018 c -0.632,0.289 -1.23,0.563 -1.693,0.794 -0.991,0.48 -1.606,1.2 -1.606,1.877 0,0.882 0.945,1.795 2.528,1.795 1.157,0 2.073,-0.338 2.722,-1.004 0.365,-0.382 0.813,-0.594 1.262,-0.594 0.826,0 1.524,0.673 1.524,1.47 0,1.142 -1.906,2.723 -5.484,2.723 -3.584,0 -5.459,-2.254 -5.459,-4.481 0,-1.802 1.21,-3.387 3.239,-4.243 C -1.057,8.726 0.207,8.079 1.385,7.458 2.584,6.836 3.33,5.9 3.33,5.013 3.33,4.421 2.724,2.734 0.024,2.734 c -1.501,0 -2.768,0.537 -3.476,1.472 -0.309,0.404 -0.734,0.628 -1.197,0.628 -0.76,0 -1.573,-0.582 -1.573,-1.448 C -6.222,2.171 -4.143,0 0,0"
             style="fill:#9d8e7c;fill-opacity:1;fill-rule:nonzero;stroke:none"
             id="path272"
             inkscape:connector-curvature="0" /></g><g
           id="g274"
           transform="translate(556.2529,282.3332)"><path
             d="m 0,0 c -3.17,0 -5.739,-2.57 -5.739,-5.739 0,-3.169 2.569,-5.74 5.739,-5.74 3.17,0 5.739,2.571 5.739,5.74 C 5.739,-2.57 3.17,0 0,0"
             style="fill:#5f2891;fill-opacity:1;fill-rule:nonzero;stroke:none"
             id="path276"
             inkscape:connector-curvature="0" /></g></g></g></g></svg>
