<svg id="图层_1" data-name="图层 1" xmlns="http://www.w3.org/2000/svg" viewBox="0 0 1844.82 1340.54"><defs><style>.cls-1{fill:#004ea2;}.cls-2{fill:#e60012;}</style></defs><path class="cls-1" d="M120.88,750.33V410.2h190v37.64H197V561.22H273v38.09H197v151Z" transform="translate(-120.88 -162.33)"/><path class="cls-1" d="M386.45,750.33V410.2H538.59q31.44,0,53.53,22.23t22.09,53.51V674.59q0,31.29-22.09,53.52t-53.53,22.22Zm76.07-37.64h37.81a38,38,0,0,0,38.26-38.1V485.94a38,38,0,0,0-38.26-38.1H462.52Z" transform="translate(-120.88 -162.33)"/><path class="cls-1" d="M1031.93,750.33V542.62L899.37,675.05l-133-132.43V750.33H690.28V410.2h38.26l161.72,161,162.17-161h17.77V750.33Z" transform="translate(-120.88 -162.33)"/><path class="cls-1" d="M1247.74,750.33V447.81H1172V410.17h226.77v37.64H1323V750.33Z" transform="translate(-120.88 -162.33)"/><path class="cls-1" d="M1445.09,750.33V410.17h189.13v37.64H1520.84V561.2h75.74v38.1h-75.74V712.68h113.38v37.65Z" transform="translate(-120.88 -162.33)"/><path class="cls-1" d="M1700.83,750.33V410.17h75.74V549L1899,410.17h66.68L1814.21,580.25,1965.7,750.33H1890L1776.57,617.89V750.33Z" transform="translate(-120.88 -162.33)"/><polygon class="cls-2" points="1324.22 630.51 1324.22 759.22 697.96 759.22 621.31 835.87 1400.86 835.87 1400.86 759.22 1400.86 630.51 1324.22 630.51"/><polygon class="cls-2" points="646.05 702.23 646.05 630.51 569.41 630.51 569.41 778.87 646.05 702.23"/><polygon class="cls-2" points="1324.22 129.6 1324.22 203.13 1400.86 203.13 1400.86 52.96 1324.22 129.6"/><polygon class="cls-2" points="569.41 0 569.41 76.64 569.41 203.13 627.43 203.13 646.05 221.62 646.05 203.13 646.05 203.13 646.05 76.64 1272.93 76.64 1349.58 0 569.41 0"/><path class="cls-1" d="M165.62,1241.63v12.55H276.2v-75.33h43.46v75.33H435.07l5.8-12.55,43.94,8.69-8.69,18.35v141H432.17v-15.46H319.66v108.17H276.2V1394.22H165.62v15.46H122.15v-168Zm0,134.24H276.2V1272.53H165.62Zm154,0H432.17V1272.53H319.66Z" transform="translate(-120.88 -162.33)"/><path class="cls-1" d="M736.89,1180.78l21.73,31.39c-13,4.83-32.84,9.18-55.54,12.56v55h24.15a20.75,20.75,0,0,0,14.49-5.8l7.72-6.76,14,16.9-9.66,8.21a25.24,25.24,0,0,1-16.42,5.8H703.08v7.24c25.11,16.9,57.47,49.74,70,79.68l-36.7,21.25-33.32-78.72v173.85H659.62V1341.1c-15.45,72.92-46.35,125.56-88.85,149.7,27-58.91,43.94-128.45,50.22-192.67H574.15v-18.35h85.47v-51.19c-27,1.45-54.56,1-76.78-2.9ZM773.59,1400l131.83-12.56V1179.33h43.46v203.79l17.87-1.94a20,20,0,0,0,14-7.24l6.76-8.21,15,15-8.69,9.18c-4.35,4.83-9.66,7.24-15.94,8.21l-29,2.89v100.45H905.42v-96.1l-128.45,13Zm2.89-115.9c26.56,0,68.58,21.25,86.93,49.26L832,1363.8Zm25.11-86.92c31.88-1,68.09,24.63,82.58,48.29l-30.42,29Z" transform="translate(-120.88 -162.33)"/><path class="cls-1" d="M1289.81,1179.33v61.33h139.07a20.59,20.59,0,0,0,14.49-6.28l7.73-6.76,14.48,17.39-9.66,7.72c-5.31,3.87-10.62,6.28-16.9,6.28H1303.33c48.29,89.34,96.1,142.46,181.08,195.57-48.77,41.53-123.13-15.93-194.6-175.29v145.84h32.35a20,20,0,0,0,14.49-5.8l7.73-6.76,14,16.9-9.66,8.21a25.24,25.24,0,0,1-16.42,5.8h-42.49v58.91h-44v-58.91H1171v-18.35h74.84V1290.88c-32.83,73.89-119.27,170-193.15,181.57,64.22-54.08,118.31-128.93,157.42-213.44h-142v-18.35h177.7v-61.33Z" transform="translate(-120.88 -162.33)"/><path class="cls-1" d="M1810.38,1229.07c-10.63,14-27.05,24.63-43,30.43h116.86l4.83-9.18,43.46,10.62-8.21,15.46v107.68H1880.4v-9.17h-59.88V1470c0,16.9-5.32,32.83-32.36,32.83h-39.11l-14-29.94h41.53v-98h-59.88v9.17h-43.94V1250.32h43.94v9.18h29.46l14-42H1631.7v131.35c0,98-35.73,146.32-92.71,154,35.73-53.6,48.77-91.75,48.77-170V1185.61h43.94v13.52h296.5a19.69,19.69,0,0,0,14-5.79l7.72-7.24,14.49,16.9-10.14,8.21c-4.35,4.34-9.66,6.27-16.42,6.27H1775.61Zm-74.85,192.68c-29.46,36.22-69.06,66.15-105.27,74.36l69-98Zm-18.84-114H1880.4v-29.94H1716.69Zm0,48.28H1880.4v-29.93H1716.69Zm212.48,135.7L1855.28,1402c31.39,2.9,84,35.25,104.31,63.26Z" transform="translate(-120.88 -162.33)"/></svg>