<svg viewBox="0 0 241.443 115.5933" width="5000px" height="2393.8010863536647px" xmlns="http://www.w3.org/2000/svg" xmlns:xlink="http://www.w3.org/1999/xlink" preserveAspectRatio="none"><defs></defs><style>.a9wy5Ryn0Hcolors-0 {fill:#EF6F53;fill-opacity:0.85;}.a9wy5Ryn0Hcolors-1 {fill:#285A84;fill-opacity:0.85;}.companyName {fill:#285A84;fill-opacity:1;}</style><g opacity="1" transform="rotate(0 0 85.50689999999997)">
        <svg width="241.443" height="30.0864" x="0" y="85.50689999999997" version="1.1" preserveAspectRatio="none" viewBox="2.4 -26.8 218.28 27.2">
          <g transform="matrix(1 0 0 1 0 0)" class="companyName"><path d="M13.52 0L2.40 0L2.40-0.64L5.64-2.24L5.64-24.16L2.40-25.76L2.40-26.40L22.08-26.40L22.08-19.52L21.44-19.52L18.92-24.20L9.84-24.20L9.84-14.68L16.08-14.68L18.12-18.04L18.76-18.04L18.76-9.28L18.12-9.28L16.08-12.56L9.84-12.56L9.84-2.24L13.52-0.64L13.52 0Z M45.72 0L27.12 0L27.12-0.64L30-1.96L30-20.44L27.12-21.76L27.12-22.40L44.72-22.40L44.72-16.64L44.08-16.64L42-20.40L33.96-20.40L33.96-12.60L39.80-12.60L41.16-15.36L41.80-15.36L41.80-7.88L41.16-7.88L39.80-10.60L33.96-10.60L33.96-2L42.88-2L45.08-6.52L45.72-6.52L45.72 0Z M60.24 0L50.76 0L50.76-0.64L53.68-1.96L53.68-20.44L50.76-21.76L50.76-22.40L60.44-22.40Q64.12-22.40 66.26-20.90Q68.40-19.40 68.40-16.76L68.40-16.76Q68.40-14.84 67.22-13.46Q66.04-12.08 63.84-11.28L63.84-11.28L70-1.88L72.64-0.64L72.64 0L66.36 0L60.04-10.20L57.60-10.20L57.60-2L60.24-0.64L60.24 0ZM59.48-20.44L59.48-20.44L57.60-20.44L57.60-12.16L59.64-12.16Q61.80-12.16 63.04-13.28Q64.28-14.40 64.28-16.32L64.28-16.32Q64.28-18.36 63.02-19.40Q61.76-20.44 59.48-20.44Z M82.80 0L74.64 0L74.64-0.64L77.48-1.96L78.24-20.44L75.16-21.76L75.16-22.40L82.88-22.40L90.20-6L97.76-22.40L105.12-22.40L105.12-21.76L102.16-20.68L102.72-1.96L105.28-0.64L105.28 0L96 0L96-0.64L98.68-1.92L98.32-18.52L89.72 0.16L88.52 0.16L80.28-18.48L79.88-1.92L82.80-0.64L82.80 0Z M119.48 0L110.08 0L110.08-0.64L112.72-1.96L112.72-20.44L110.08-21.76L110.08-22.40L119.48-22.40L119.48-21.76L116.72-20.44L116.72-1.96L119.48-0.64L119.48 0Z M136.20 0.40L136.20 0.40Q132.84 0.40 130.24-1.10Q127.64-2.60 126.14-5.22Q124.64-7.84 124.64-11.20L124.64-11.20Q124.64-14.56 126.14-17.20Q127.64-19.84 130.24-21.34Q132.84-22.84 136.20-22.84L136.20-22.84Q139.56-22.84 142.18-21.34Q144.80-19.84 146.30-17.20Q147.80-14.56 147.80-11.20L147.80-11.20Q147.80-7.84 146.30-5.22Q144.80-2.60 142.18-1.10Q139.56 0.40 136.20 0.40ZM136.84-1.60L136.84-1.60Q140.08-1.60 141.92-3.96Q143.76-6.32 143.76-10.20L143.76-10.20Q143.76-13.36 142.74-15.76Q141.72-18.16 139.88-19.50Q138.04-20.84 135.68-20.84L135.68-20.84Q132.48-20.84 130.58-18.50Q128.68-16.16 128.68-12.32L128.68-12.32Q128.68-9.12 129.72-6.72Q130.76-4.32 132.60-2.96Q134.44-1.60 136.84-1.60Z M161.32 0L152.64 0L152.64-0.64L155.48-1.96L155.48-20.48L152.64-21.76L152.64-22.40L158.60-22.40L172.12-6.36L172.12-20.48L168.60-21.76L168.60-22.40L177.20-22.40L177.20-21.76L174.36-20.48L174.36 0.16L172.52 0.16L157.76-17.24L157.76-2.08L161.32-0.64L161.32 0Z M192.68 0L182 0L182-0.64L185.28-2.24L185.28-24.16L182-25.76L182-26.40L192.68-26.40L192.68-25.76L189.44-24.16L189.44-2.24L192.68-0.64L192.68 0Z M211.24 0.40L211.24 0.40Q207.12 0.40 204.12-1.28Q201.12-2.96 199.48-5.88Q197.84-8.80 197.84-12.52L197.84-12.52Q197.84-15.40 198.96-17.96Q200.08-20.52 202.02-22.52Q203.96-24.52 206.48-25.66Q209-26.80 211.84-26.80L211.84-26.80Q213.88-26.80 215.28-26.54Q216.68-26.28 217.78-25.86Q218.88-25.44 220-24.88L220-24.88L220.24-17.76L219.52-17.76L216.76-22.96Q215.40-23.92 214.30-24.36Q213.20-24.80 211.84-24.80L211.84-24.80Q209.08-24.80 206.88-23.36Q204.68-21.92 203.42-19.38Q202.16-16.84 202.16-13.52L202.16-13.52Q202.16-9.80 203.38-7.14Q204.60-4.48 206.68-3.08Q208.76-1.68 211.28-1.68L211.28-1.68Q213.36-1.68 214.78-2.24Q216.20-2.80 217.32-3.56L217.32-3.56L220-8.04L220.68-8.04L220.20-1.60Q218.44-0.72 216.44-0.16Q214.44 0.40 211.24 0.40Z"></path></g>
        </svg>
      </g><g opacity="1" transform="rotate(0 26.000000000000014 0)">
        <svg width="189.443" height="70.4472" x="26.000000000000014" y="0" version="1.1" preserveAspectRatio="none" viewBox="19.91793441772461 70.30000305175781 160.0042724609375 59.5">
          <g transform="matrix(1 0 0 1 0 0)"><g><path d="M21 129.7h13.5c9.9 0 19.4-4.9 25.8-13.5L84.5 84c6.4-8.5 15.9-13.5 25.8-13.5H89.1c-9.9 0-19.4 4.9-25.8 13.5l-24.2 32.2c-4.5 6.1-10.8 10.4-18 12.4-2.6.7-.1 1.1-.1 1.1z" data-color="1" class="a9wy5Ryn0Hcolors-0"></path><path d="M94.1 129.7h16.4c9.9 0 19.4-4.9 25.8-13.5L160.5 84c4.3-5.9 10.5-10.2 17.5-12.3 2.7-.8.1-1.2.1-1.2h-12.9c-9.9 0-19.4 4.9-25.8 13.5l-24.2 32.2c-6.4 8.5-15.9 13.5-25.8 13.5h4.7z" data-color="1" class="a9wy5Ryn0Hcolors-0"></path><path d="M108.2 129.7H91.8c-10 0-19.4-4.9-25.8-13.5L41.7 84.1C37.1 77.8 30.5 73.4 23 71.5c-2.3-.6-.1-.9-.1-.9H37c10 0 19.4 4.9 25.8 13.5l24.3 32.2c6.4 8.5 15.9 13.5 25.8 13.5l-4.7-.1z" data-color="2" class="a9wy5Ryn0Hcolors-1"></path><path d="M101.8 99.8c0 8.8-.8 16-1.7 16-1 0-1.7-7.1-1.7-16s.8-16 1.7-16c1 .1 1.7 7.2 1.7 16z" data-color="1" class="a9wy5Ryn0Hcolors-0"></path><path d="M93.1 99.8c0 6.8-.6 12.3-1.3 12.3-.7 0-1.3-5.5-1.3-12.3s.6-12.3 1.3-12.3c.7.1 1.3 5.6 1.3 12.3z" data-color="1" class="a9wy5Ryn0Hcolors-0"></path><path d="M109.7 99.8c0 6.8-.6 12.3-1.3 12.3-.7 0-1.3-5.5-1.3-12.3s.6-12.3 1.3-12.3c.7.1 1.3 5.6 1.3 12.3z" data-color="1" class="a9wy5Ryn0Hcolors-0"></path><path d="M84.8 99.8c0 3.9-.6 7.1-1.3 7.1-.7 0-1.3-3.2-1.3-7.1s.6-7.1 1.3-7.1c.7 0 1.3 3.2 1.3 7.1z" data-color="1" class="a9wy5Ryn0Hcolors-0"></path><path d="M118 99.8c0 3.9-.6 7.1-1.3 7.1-.7 0-1.3-3.2-1.3-7.1s.6-7.1 1.3-7.1c.7 0 1.3 3.2 1.3 7.1z" data-color="1" class="a9wy5Ryn0Hcolors-0"></path><path d="M178.9 129.5H165c-10 0-19.4-4.9-25.8-13.5l-24.3-32.2c-6.4-8.5-15.9-13.5-25.8-13.5h21.2c10 0 19.4 4.9 25.8 13.5l24.3 32.2c4.6 6.2 11.1 10.6 18.5 12.6 2.3.6 0 .9 0 .9z" data-color="2" class="a9wy5Ryn0Hcolors-1"></path></g></g>
        </svg>
      </g></svg>