<?xml version="1.0" encoding="UTF-8" standalone="no"?>
<svg
   role="img"
   viewBox="-7.99 -7.99 396.84562 127.0009"
   version="1.1"
   id="svg1"
   width="396.84561"
   height="127.0009"
   xmlns="http://www.w3.org/2000/svg"
   xmlns:svg="http://www.w3.org/2000/svg"
   xmlns:rdf="http://www.w3.org/1999/02/22-rdf-syntax-ns#"
   xmlns:cc="http://creativecommons.org/ns#"
   xmlns:dc="http://purl.org/dc/elements/1.1/">
  <defs
     id="defs1" />
  <title
     id="title1">FFTW logo</title>
  <g
     id="svgg"
     fill-rule="evenodd"
     stroke="none"
     transform="translate(-9.4694121,-9.6411249)">
    <path
       id="path0"
       fill="#1e1c16"
       d="m 24.473,11.083 c -0.168,0.275 -0.305,0.772 -0.306,1.104 0,0.332 -0.144,0.932 -0.321,1.333 -0.176,0.402 -0.439,1.597 -0.584,2.656 -0.146,1.06 -0.407,2.335 -0.582,2.834 -0.175,0.498 -0.48,2.219 -0.678,3.823 -0.198,1.605 -0.466,3.293 -0.594,3.753 -0.128,0.459 -0.316,1.434 -0.416,2.166 -0.18,1.313 -0.422,2.453 -0.902,4.248 -0.135,0.504 -0.357,1.675 -0.493,2.601 -0.136,0.927 -0.395,2.127 -0.574,2.667 -0.434,1.307 -0.497,1.62 -0.676,3.345 -0.084,0.809 -0.277,1.808 -0.43,2.22 -0.152,0.413 -0.451,1.763 -0.664,3 -0.213,1.238 -0.508,2.588 -0.655,3 -0.148,0.413 -0.422,1.763 -0.609,3 -0.188,1.238 -0.456,2.475 -0.596,2.75 -0.14,0.275 -0.392,1.513 -0.56,2.752 -0.168,1.238 -0.459,2.638 -0.645,3.112 -0.214,0.543 -0.406,1.619 -0.519,2.915 -0.258,2.969 -0.445,4.109 -0.749,4.574 -0.148,0.225 -0.338,1.007 -0.421,1.738 -0.213,1.865 -0.49,3.315 -0.756,3.951 -0.125,0.3 -0.414,1.65 -0.642,3.002 -0.229,1.351 -0.525,2.719 -0.659,3.04 -0.133,0.32 -0.327,1.295 -0.43,2.166 -0.103,0.871 -0.334,2.034 -0.514,2.584 -0.179,0.55 -0.516,2.113 -0.749,3.473 -0.233,1.361 -0.524,2.673 -0.647,2.917 -0.123,0.244 -0.315,1.081 -0.426,1.86 -0.429,2.996 -0.54,3.599 -0.756,4.083 -0.326,0.733 -0.414,1.199 -0.839,4.417 -0.212,1.604 -0.501,3.329 -0.643,3.833 -0.143,0.504 -0.332,1.557 -0.42,2.34 -0.089,0.782 -0.307,1.795 -0.484,2.25 -0.177,0.455 -0.375,1.314 -0.44,1.91 -0.134,1.224 -0.685,3.714 -0.919,4.152 -0.085,0.159 -0.31,1.394 -0.5,2.745 -0.214,1.527 -0.47,2.702 -0.677,3.106 -0.182,0.358 -0.339,0.972 -0.348,1.365 -0.009,0.394 -0.07,0.903 -0.134,1.132 -0.065,0.229 -0.041,0.623 0.053,0.875 l 0.171,0.458 h 11.008 11.008 l 0.583,-0.396 c 0.566,-0.385 0.591,-0.447 0.802,-2.021 0.12,-0.893 0.364,-2.159 0.543,-2.812 0.178,-0.653 0.394,-1.453 0.48,-1.778 0.086,-0.325 0.271,-1.471 0.412,-2.548 0.141,-1.076 0.395,-2.235 0.563,-2.576 0.169,-0.34 0.401,-1.369 0.515,-2.285 0.114,-0.917 0.38,-2.342 0.59,-3.167 0.211,-0.825 0.433,-2.025 0.495,-2.667 0.214,-2.235 0.608,-4.626 0.834,-5.063 0.126,-0.243 0.279,-0.815 0.341,-1.272 0.222,-1.625 0.616,-3.623 0.838,-4.255 0.125,-0.352 0.391,-1.636 0.592,-2.853 0.201,-1.217 0.507,-2.625 0.681,-3.128 0.173,-0.504 0.394,-1.628 0.491,-2.499 0.097,-0.87 0.353,-2.121 0.568,-2.78 0.215,-0.659 0.558,-2.268 0.762,-3.575 0.318,-2.032 0.435,-2.447 0.805,-2.856 l 0.432,-0.48 25.321,-0.036 25.321,-0.036 0.466,-1.417 c 0.257,-0.779 0.665,-2.616 0.907,-4.083 0.242,-1.467 0.543,-2.783 0.668,-2.926 0.124,-0.142 0.312,-1.005 0.417,-1.916 0.104,-0.912 0.335,-2.22 0.512,-2.908 0.178,-0.687 0.469,-1.998 0.648,-2.912 0.178,-0.914 0.369,-1.801 0.423,-1.97 0.323,-1.018 2.108,-0.951 -25.516,-0.951 -28.033,0 -25.431,0.121 -25.631,-1.193 -0.094,-0.619 0.417,-3.359 0.691,-3.704 0.177,-0.222 0.448,-1.762 0.689,-3.915 0.097,-0.859 0.317,-1.909 0.49,-2.333 0.173,-0.425 0.439,-1.624 0.591,-2.666 0.152,-1.041 0.417,-2.354 0.591,-2.916 0.173,-0.563 0.461,-1.971 0.641,-3.13 0.18,-1.158 0.45,-2.344 0.6,-2.635 0.151,-0.291 0.35,-1.214 0.444,-2.052 0.196,-1.753 0.447,-2.341 1.194,-2.796 0.684,-0.417 61.606,-0.515 62.152,-0.1 0.589,0.448 0.643,1.006 0.295,3.042 -0.182,1.062 -0.33,2.132 -0.33,2.379 0,0.246 -0.153,0.745 -0.339,1.108 -0.212,0.413 -0.434,1.41 -0.592,2.661 -0.14,1.1 -0.403,2.459 -0.585,3.021 -0.182,0.562 -0.51,2.062 -0.728,3.334 -0.218,1.271 -0.509,2.576 -0.646,2.899 -0.138,0.323 -0.331,1.307 -0.428,2.185 -0.098,0.878 -0.34,2.113 -0.536,2.745 -0.197,0.632 -0.565,2.312 -0.817,3.732 -0.252,1.421 -0.587,2.921 -0.743,3.334 -0.156,0.412 -0.346,1.387 -0.423,2.166 -0.077,0.779 -0.285,2.054 -0.464,2.834 -0.178,0.779 -0.457,2.429 -0.62,3.666 -0.162,1.238 -0.475,2.884 -0.696,3.658 -0.22,0.774 -0.505,2.149 -0.632,3.055 -0.127,0.907 -0.382,2.111 -0.567,2.676 -0.185,0.565 -0.49,1.993 -0.678,3.171 -0.188,1.179 -0.451,2.379 -0.585,2.667 -0.134,0.288 -0.399,1.601 -0.589,2.918 -0.207,1.434 -0.477,2.652 -0.672,3.035 -0.18,0.352 -0.327,0.893 -0.327,1.201 0,0.772 -0.606,4.072 -0.902,4.911 -0.133,0.377 -0.368,1.498 -0.522,2.489 -0.155,0.992 -0.424,2.215 -0.6,2.719 -0.187,0.538 -0.424,2.019 -0.573,3.584 -0.148,1.557 -0.389,3.066 -0.579,3.628 -0.179,0.529 -0.479,1.954 -0.667,3.167 -0.188,1.212 -0.488,2.557 -0.667,2.988 -0.179,0.43 -0.401,1.518 -0.494,2.416 -0.093,0.899 -0.288,2.046 -0.433,2.551 -0.873,3.025 -1.144,4.767 -0.819,5.264 l 0.264,0.402 h 11.071 11.071 l 0.409,-0.541 c 0.494,-0.653 0.666,-1.288 1.022,-3.78 0.15,-1.047 0.379,-2.16 0.51,-2.472 0.13,-0.312 0.423,-1.687 0.651,-3.054 0.227,-1.368 0.502,-2.653 0.612,-2.857 0.34,-0.637 0.472,-1.464 0.643,-4.03 0.123,-1.844 0.249,-2.661 0.487,-3.167 0.177,-0.375 0.444,-1.507 0.593,-2.515 0.355,-2.404 0.598,-3.573 0.849,-4.084 0.113,-0.229 0.292,-1.016 0.397,-1.75 0.336,-2.334 0.532,-3.308 0.753,-3.743 0.118,-0.233 0.268,-0.873 0.334,-1.423 0.171,-1.436 0.757,-4.299 0.92,-4.498 0.076,-0.093 0.262,-1.031 0.412,-2.086 0.15,-1.054 0.425,-2.366 0.61,-2.916 0.185,-0.55 0.441,-1.75 0.569,-2.667 0.346,-2.49 0.388,-2.661 0.754,-3.054 l 0.338,-0.363 h 25.404 c 24.88,0 25.408,-0.006 25.576,-0.32 0.094,-0.176 0.247,-0.853 0.339,-1.506 0.093,-0.652 0.287,-1.464 0.432,-1.805 0.145,-0.34 0.374,-1.406 0.508,-2.369 0.134,-0.962 0.435,-2.384 0.668,-3.16 0.234,-0.775 0.566,-2.406 0.737,-3.622 0.172,-1.217 0.424,-2.429 0.561,-2.694 0.137,-0.265 0.33,-0.992 0.43,-1.615 0.099,-0.623 0.212,-1.182 0.249,-1.243 0.038,-0.061 -0.045,-0.274 -0.183,-0.472 l -0.253,-0.36 h -25.042 c -20.777,0 -25.094,-0.039 -25.35,-0.226 -0.452,-0.33 -0.274,-3.356 0.3,-5.108 0.226,-0.687 0.498,-1.85 0.605,-2.583 0.107,-0.733 0.272,-1.858 0.366,-2.5 0.095,-0.642 0.269,-1.32 0.387,-1.507 0.265,-0.42 0.53,-1.774 0.658,-3.364 0.053,-0.662 0.237,-1.562 0.409,-2 0.171,-0.438 0.479,-1.808 0.683,-3.046 0.205,-1.237 0.511,-2.651 0.681,-3.142 0.17,-0.49 0.396,-1.486 0.502,-2.211 0.158,-1.083 0.268,-1.379 0.612,-1.65 0.507,-0.399 87.408,-0.535 88.279,-0.139 0.651,0.297 0.858,1.145 0.536,2.199 -0.144,0.473 -0.34,1.497 -0.437,2.277 -0.187,1.519 -0.474,2.81 -0.686,3.088 -0.179,0.235 -0.589,2.761 -0.825,5.078 -0.107,1.054 -0.289,2.105 -0.403,2.334 -0.114,0.229 -0.338,1.354 -0.496,2.5 -0.159,1.146 -0.425,2.496 -0.593,3 -0.168,0.504 -0.431,1.741 -0.586,2.75 -0.154,1.008 -0.46,2.405 -0.681,3.103 -0.22,0.699 -0.4,1.458 -0.4,1.687 0,0.617 -0.48,3.259 -0.653,3.59 -0.272,0.521 -0.499,1.595 -0.831,3.926 -0.188,1.32 -0.443,2.479 -0.597,2.714 -0.148,0.225 -0.337,1.006 -0.42,1.737 -0.209,1.834 -0.468,3.197 -0.766,4.034 -0.139,0.39 -0.432,1.759 -0.65,3.042 -0.219,1.283 -0.51,2.602 -0.648,2.93 -0.137,0.328 -0.326,1.611 -0.419,2.85 -0.17,2.26 -0.39,3.591 -0.685,4.141 -0.087,0.162 -0.355,1.446 -0.596,2.854 -0.24,1.407 -0.533,2.746 -0.65,2.975 -0.213,0.419 -0.477,1.889 -0.674,3.75 -0.058,0.55 -0.244,1.316 -0.413,1.701 -0.168,0.386 -0.469,1.736 -0.667,3 -0.199,1.265 -0.498,2.711 -0.665,3.216 -0.361,1.089 -0.666,2.673 -0.666,3.461 0,0.311 -0.18,1.104 -0.399,1.761 -0.22,0.657 -0.523,2.038 -0.675,3.068 -0.152,1.031 -0.421,2.306 -0.598,2.834 -0.178,0.527 -0.441,1.859 -0.584,2.959 -0.504,3.857 -0.612,4.505 -0.844,5.062 -0.869,2.093 -1.268,2.021 11.217,2.021 12.812,0 12.042,0.125 12.047,-1.943 0.003,-1.052 0.377,-3.064 0.826,-4.446 0.183,-0.565 0.448,-1.948 0.587,-3.073 0.145,-1.174 0.384,-2.31 0.561,-2.666 0.17,-0.342 0.399,-1.372 0.511,-2.288 0.111,-0.917 0.377,-2.305 0.591,-3.084 0.521,-1.896 0.544,-2.006 0.84,-3.979 0.142,-0.941 0.373,-1.936 0.515,-2.21 0.142,-0.274 0.33,-1.187 0.419,-2.029 0.088,-0.843 0.346,-2.143 0.573,-2.89 0.227,-0.746 0.588,-2.471 0.801,-3.833 0.214,-1.361 0.514,-2.715 0.667,-3.008 0.154,-0.297 0.354,-1.294 0.449,-2.25 0.316,-3.163 0.505,-4.447 0.734,-5.001 0.126,-0.302 0.391,-1.578 0.589,-2.835 0.198,-1.256 0.504,-2.694 0.68,-3.195 0.176,-0.501 0.398,-1.61 0.494,-2.465 0.185,-1.655 0.246,-1.935 0.586,-2.721 0.119,-0.275 0.379,-1.513 0.579,-2.75 0.2,-1.238 0.501,-2.663 0.67,-3.167 0.374,-1.12 0.45,-1.513 0.657,-3.395 0.09,-0.813 0.309,-1.788 0.486,-2.167 0.178,-0.378 0.452,-1.625 0.609,-2.771 0.156,-1.146 0.465,-2.644 0.687,-3.329 0.221,-0.685 0.482,-1.96 0.581,-2.833 0.098,-0.874 0.33,-2.035 0.516,-2.582 0.187,-0.549 0.398,-1.777 0.473,-2.75 0.147,-1.903 0.531,-4.112 0.894,-5.142 0.125,-0.355 0.358,-1.502 0.516,-2.547 0.159,-1.045 0.429,-2.276 0.602,-2.734 0.172,-0.458 0.395,-1.546 0.496,-2.417 0.348,-3.007 0.6,-3.217 3.996,-3.333 2.569,-0.087 3.447,-0.36 2.978,-0.924 -0.29,-0.349 -1.169,-3.212 -1.683,-5.483 -0.269,-1.186 -0.568,-2.251 -0.664,-2.367 -0.097,-0.116 -0.386,-0.908 -0.644,-1.76 -0.624,-2.064 -1.618,-4.883 -1.945,-5.515 -0.145,-0.281 -0.394,-1.056 -0.552,-1.722 -0.344,-1.444 -0.709,-2.062 -1.218,-2.063 -0.204,0 -49.527,-0.019 -109.607,-0.042 l -109.236,-0.041 -0.305,0.5 m 247.444,-0.419 c -10.964,0.099 -10.591,0.025 -9.515,1.89 0.221,0.383 0.56,1.221 0.753,1.863 0.192,0.641 0.499,1.343 0.681,1.56 0.182,0.216 0.331,0.597 0.331,0.846 0,0.25 0.25,1.385 0.557,2.524 0.307,1.138 0.694,2.595 0.861,3.236 0.166,0.642 0.439,1.431 0.606,1.754 0.167,0.323 0.378,0.98 0.469,1.46 0.091,0.48 0.31,1.228 0.486,1.663 0.177,0.434 0.415,1.165 0.53,1.623 0.375,1.502 0.03,1.417 5.772,1.417 6.843,0 6.232,0.382 6.536,-4.086 0.099,-1.448 0.228,-2.187 0.466,-2.667 0.208,-0.418 0.408,-1.374 0.541,-2.58 0.116,-1.055 0.384,-2.479 0.597,-3.167 0.381,-1.235 0.912,-4.021 0.912,-4.788 0,-0.218 0.163,-0.679 0.362,-1.025 0.493,-0.856 -0.268,-1.853 -1.257,-1.648 -0.104,0.021 -4.463,0.078 -9.688,0.125" />
    <path
       id="path1"
       fill="#da3c1e"
       d="m 249.417,2.085 c -0.459,0.226 -0.968,0.412 -1.132,0.413 -0.464,0.003 -1.486,0.593 -2.007,1.157 -0.26,0.282 -0.53,0.512 -0.6,0.512 -0.332,0 -1.391,3.222 -1.434,4.361 -0.019,0.52 -0.084,1.206 -0.144,1.525 -0.079,0.421 -0.021,0.733 0.213,1.138 0.178,0.308 0.417,1.009 0.532,1.559 0.116,0.55 0.346,1.274 0.512,1.61 0.37,0.75 1.351,3.526 1.979,5.606 0.258,0.852 0.547,1.644 0.644,1.76 0.096,0.116 0.395,1.181 0.664,2.367 0.521,2.299 1.394,5.135 1.692,5.493 0.116,0.14 0.122,0.254 0.016,0.319 -0.092,0.057 0.006,0.271 0.225,0.491 0.817,0.816 1.915,3.496 1.922,4.687 0.001,0.275 0.162,0.763 0.358,1.084 0.196,0.32 0.486,1.033 0.644,1.583 0.158,0.55 0.453,1.349 0.654,1.776 0.202,0.427 0.495,1.402 0.653,2.167 0.157,0.765 0.421,1.594 0.587,1.842 0.166,0.249 0.416,0.962 0.556,1.584 0.14,0.622 0.432,1.512 0.65,1.978 0.23,0.491 0.51,1.61 0.667,2.666 0.162,1.088 0.43,2.152 0.668,2.645 0.219,0.453 0.397,1.003 0.397,1.221 0,0.219 0.193,0.88 0.429,1.47 0.236,0.589 0.634,1.877 0.885,2.861 0.251,0.985 0.58,2.024 0.731,2.311 0.152,0.286 0.358,1.036 0.458,1.666 0.101,0.631 0.33,1.446 0.509,1.813 0.179,0.367 0.507,1.454 0.729,2.417 0.221,0.962 0.551,2.162 0.733,2.666 0.182,0.504 0.404,1.533 0.494,2.287 0.089,0.753 0.313,1.766 0.497,2.25 0.184,0.484 0.462,1.592 0.618,2.463 0.156,0.871 0.461,2.484 0.676,3.584 0.216,1.1 0.507,2.721 0.647,3.604 0.14,0.882 0.393,1.932 0.562,2.333 0.17,0.401 0.405,1.404 0.523,2.229 0.118,0.825 0.425,2.14 0.682,2.922 0.258,0.782 0.554,2.057 0.658,2.834 0.105,0.776 0.367,1.974 0.583,2.661 0.216,0.688 0.519,1.982 0.674,2.876 0.155,0.895 0.339,1.662 0.409,1.706 0.071,0.043 0.334,1.186 0.585,2.54 0.251,1.354 0.605,2.783 0.785,3.175 0.181,0.393 0.404,1.255 0.495,1.916 0.092,0.661 0.382,1.849 0.645,2.641 0.34,1.021 0.573,2.279 0.804,4.334 0.179,1.592 0.435,3.197 0.57,3.565 0.134,0.369 0.298,1.058 0.363,1.532 0.115,0.838 1.16,2.338 2.086,2.995 0.152,0.108 0.521,0.425 0.819,0.703 0.3,0.28 0.816,0.555 1.155,0.614 0.337,0.06 1.1,0.306 1.696,0.547 1.371,0.556 6.36,0.677 6.941,0.169 0.17,-0.149 0.707,-0.4 1.193,-0.558 0.486,-0.158 1.011,-0.421 1.167,-0.583 0.155,-0.163 0.532,-0.423 0.838,-0.579 0.546,-0.278 1.634,-1.334 2.61,-2.534 0.701,-0.863 0.76,-4.109 0.098,-5.476 -0.442,-0.914 -0.467,-1.558 -0.088,-2.317 0.137,-0.274 0.401,-1.252 0.587,-2.174 0.186,-0.921 0.473,-1.938 0.637,-2.259 0.165,-0.32 0.396,-0.996 0.514,-1.5 0.119,-0.504 0.427,-1.329 0.685,-1.833 0.318,-0.621 0.525,-1.373 0.644,-2.333 0.115,-0.932 0.288,-1.57 0.505,-1.864 0.181,-0.246 0.41,-0.809 0.508,-1.25 0.099,-0.442 0.388,-1.178 0.642,-1.636 0.255,-0.459 0.561,-1.209 0.681,-1.667 0.121,-0.458 0.433,-1.217 0.695,-1.687 0.262,-0.469 0.477,-1.01 0.477,-1.2 0,-0.397 0.301,-1.161 0.602,-1.53 0.112,-0.137 0.4,-0.771 0.64,-1.409 0.239,-0.638 0.578,-1.292 0.752,-1.455 0.175,-0.162 0.369,-0.637 0.431,-1.055 0.063,-0.417 0.283,-1.008 0.49,-1.312 0.206,-0.305 0.506,-0.958 0.667,-1.453 0.16,-0.494 0.475,-1.272 0.7,-1.728 0.224,-0.456 0.514,-1.236 0.644,-1.734 0.129,-0.497 0.366,-1.099 0.525,-1.337 0.16,-0.239 0.461,-0.915 0.669,-1.503 0.209,-0.589 0.482,-1.189 0.608,-1.334 0.126,-0.145 0.393,-0.713 0.594,-1.263 0.202,-0.55 0.491,-1.187 0.644,-1.417 0.152,-0.229 0.375,-0.791 0.495,-1.25 0.12,-0.458 0.434,-1.249 0.697,-1.758 0.264,-0.508 0.594,-1.359 0.733,-1.89 0.138,-0.531 0.375,-1.102 0.525,-1.268 0.151,-0.167 0.382,-0.718 0.515,-1.226 0.133,-0.508 0.465,-1.396 0.738,-1.974 0.273,-0.578 0.498,-1.275 0.5,-1.55 0.004,-0.783 0.429,-2.399 0.714,-2.715 0.142,-0.157 0.375,-0.793 0.519,-1.414 0.144,-0.621 0.4,-1.408 0.57,-1.75 0.17,-0.342 0.485,-1.259 0.7,-2.038 0.215,-0.779 0.491,-1.537 0.613,-1.684 0.122,-0.147 0.337,-0.822 0.477,-1.5 0.14,-0.678 0.398,-1.533 0.573,-1.899 0.175,-0.367 0.436,-1.192 0.581,-1.834 0.283,-1.261 0.46,-1.801 0.932,-2.833 0.167,-0.367 0.352,-1.004 0.409,-1.417 0.137,-0.972 0.401,-1.852 0.649,-2.166 0.109,-0.138 0.293,-0.734 0.409,-1.325 0.536,-2.728 1.647,-2.934 1.956,-0.362 0.051,0.423 0.271,1.708 0.488,2.853 0.218,1.146 0.513,3.209 0.655,4.584 0.145,1.401 0.401,2.903 0.583,3.416 0.179,0.504 0.33,1.292 0.336,1.75 0.014,1.052 0.528,4.254 0.964,6 0.183,0.734 0.424,2.121 0.536,3.084 0.112,0.962 0.346,2.146 0.519,2.631 0.173,0.484 0.393,1.59 0.49,2.456 0.097,0.867 0.289,1.97 0.428,2.453 0.139,0.482 0.391,1.664 0.56,2.626 0.572,3.257 0.836,4.539 1.092,5.293 0.14,0.412 0.366,1.884 0.503,3.27 0.136,1.387 0.358,2.896 0.494,3.354 0.135,0.458 0.4,1.958 0.587,3.333 0.187,1.375 0.484,2.988 0.66,3.584 0.367,1.243 0.594,2.553 0.75,4.319 0.06,0.681 0.253,1.62 0.428,2.088 0.175,0.468 0.468,1.956 0.651,3.306 0.366,2.708 0.408,2.925 0.836,4.37 0.163,0.55 0.348,1.563 0.413,2.25 0.067,0.72 0.261,1.533 0.458,1.917 0.188,0.366 0.45,1.191 0.583,1.833 0.133,0.642 0.45,1.692 0.704,2.333 0.254,0.642 0.56,1.579 0.679,2.084 0.12,0.504 0.358,1.106 0.529,1.338 0.205,0.278 0.423,1.15 0.639,2.557 0.506,3.297 1.933,5.633 4.122,6.75 0.373,0.19 0.703,0.418 0.735,0.506 0.392,1.104 9.307,1.116 9.307,0.012 0,-0.078 0.288,-0.304 0.641,-0.502 0.353,-0.199 0.934,-0.739 1.292,-1.202 0.357,-0.462 0.846,-1.074 1.084,-1.358 0.239,-0.285 0.527,-0.801 0.64,-1.147 0.112,-0.346 0.378,-0.836 0.591,-1.088 0.212,-0.252 0.467,-0.757 0.567,-1.121 0.099,-0.364 0.335,-0.913 0.524,-1.22 0.188,-0.307 0.46,-0.907 0.604,-1.333 0.144,-0.427 0.516,-1.3 0.826,-1.942 0.31,-0.641 0.564,-1.275 0.564,-1.407 0,-0.133 0.189,-0.515 0.42,-0.848 0.234,-0.338 0.532,-1.146 0.674,-1.827 0.14,-0.672 0.411,-1.442 0.603,-1.711 0.191,-0.268 0.491,-0.95 0.667,-1.514 0.175,-0.565 0.424,-1.187 0.553,-1.384 0.129,-0.197 0.393,-0.829 0.587,-1.406 0.195,-0.577 0.494,-1.227 0.666,-1.446 0.172,-0.219 0.433,-0.824 0.579,-1.344 0.351,-1.251 0.597,-1.863 0.749,-1.863 0.068,0 0.255,-0.54 0.415,-1.199 0.16,-0.659 0.462,-1.465 0.671,-1.792 0.209,-0.326 0.508,-1.005 0.663,-1.509 0.156,-0.505 0.459,-1.292 0.674,-1.75 0.215,-0.459 0.539,-1.359 0.72,-2 0.492,-1.744 1.357,-3.915 1.694,-4.252 0.163,-0.163 0.382,-0.697 0.487,-1.187 0.105,-0.489 0.346,-1.153 0.536,-1.474 0.19,-0.321 0.534,-1.11 0.765,-1.752 0.23,-0.643 0.474,-1.206 0.542,-1.252 0.221,-0.151 0.622,-1.072 0.733,-1.685 0.06,-0.332 0.251,-0.732 0.425,-0.889 0.174,-0.158 0.41,-0.674 0.523,-1.148 0.229,-0.956 0.625,-1.983 0.815,-2.111 0.067,-0.046 0.287,-0.526 0.487,-1.066 0.201,-0.54 0.505,-1.159 0.676,-1.377 0.181,-0.23 0.359,-0.827 0.428,-1.434 0.079,-0.692 0.301,-1.374 0.665,-2.04 0.3,-0.55 0.644,-1.395 0.764,-1.878 0.119,-0.483 0.357,-1.029 0.528,-1.213 0.171,-0.183 0.427,-0.725 0.569,-1.205 0.142,-0.479 0.431,-1.171 0.642,-1.537 0.21,-0.367 0.508,-1.042 0.66,-1.5 0.153,-0.459 0.414,-1.059 0.58,-1.334 0.166,-0.275 0.422,-0.919 0.568,-1.432 0.146,-0.512 0.412,-1.117 0.59,-1.344 0.178,-0.227 0.483,-0.883 0.677,-1.46 0.194,-0.576 0.496,-1.246 0.67,-1.489 0.174,-0.243 0.395,-0.882 0.49,-1.421 0.096,-0.538 0.294,-1.213 0.441,-1.5 0.146,-0.286 0.482,-1.101 0.747,-1.811 0.264,-0.71 0.59,-1.46 0.723,-1.666 0.133,-0.207 0.363,-0.803 0.513,-1.323 0.149,-0.521 0.402,-1.121 0.562,-1.334 0.16,-0.212 0.419,-0.809 0.577,-1.325 0.157,-0.516 0.476,-1.217 0.707,-1.558 0.232,-0.342 0.526,-1.022 0.654,-1.512 0.127,-0.49 0.38,-1.101 0.561,-1.358 0.181,-0.257 0.46,-0.879 0.621,-1.383 0.161,-0.505 0.433,-1.168 0.606,-1.475 0.172,-0.307 0.45,-1.132 0.619,-1.834 0.168,-0.701 0.457,-1.575 0.642,-1.941 0.207,-0.411 0.375,-1.171 0.437,-1.978 0.075,-0.981 0.244,-1.632 0.669,-2.584 0.313,-0.699 0.659,-1.722 0.77,-2.272 0.11,-0.55 0.371,-1.3 0.579,-1.666 0.207,-0.367 0.424,-1.035 0.481,-1.485 0.057,-0.45 0.281,-1.2 0.498,-1.667 0.217,-0.467 0.563,-1.373 0.769,-2.015 0.205,-0.642 0.479,-1.335 0.608,-1.541 0.129,-0.205 0.352,-0.843 0.496,-1.416 0.144,-0.574 0.397,-1.277 0.562,-1.564 0.165,-0.286 0.428,-0.961 0.583,-1.5 0.155,-0.538 0.506,-1.373 0.78,-1.854 0.348,-0.613 0.564,-1.314 0.718,-2.338 0.121,-0.804 0.34,-1.75 0.487,-2.103 0.329,-0.786 0.35,-2.458 0.039,-3.067 -0.127,-0.248 -0.329,-1.013 -0.449,-1.7 -0.255,-1.458 -1.286,-2.666 -2.572,-3.016 -0.366,-0.1 -1.156,-0.362 -1.754,-0.583 -1.506,-0.556 -3.219,-0.556 -4.396,10e-4 -0.467,0.221 -1.15,0.482 -1.516,0.58 -0.367,0.098 -1.005,0.479 -1.417,0.847 -0.413,0.369 -0.827,0.67 -0.92,0.67 -0.094,10e-4 -0.356,0.345 -0.583,0.765 -0.228,0.42 -0.543,0.834 -0.702,0.92 -0.158,0.087 -0.406,0.562 -0.55,1.058 -0.144,0.495 -0.405,1.083 -0.58,1.306 -0.175,0.222 -0.473,0.818 -0.663,1.324 -0.189,0.506 -0.487,1.085 -0.662,1.286 -0.175,0.202 -0.398,0.742 -0.496,1.2 -0.099,0.458 -0.366,1.228 -0.595,1.711 -0.229,0.484 -0.416,0.966 -0.416,1.071 0,0.227 -0.604,2.064 -0.912,2.776 -0.323,0.744 -0.397,1.046 -0.588,2.406 -0.096,0.682 -0.316,1.544 -0.49,1.917 -0.175,0.373 -0.438,1.352 -0.585,2.177 -0.148,0.825 -0.452,2.025 -0.677,2.667 -0.224,0.642 -0.515,1.767 -0.646,2.5 -0.132,0.733 -0.396,1.763 -0.587,2.288 -0.191,0.524 -0.348,1.202 -0.348,1.506 0,0.759 -0.451,2.428 -0.83,3.071 -0.173,0.293 -0.443,1.005 -0.6,1.584 -0.158,0.578 -0.42,1.201 -0.583,1.384 -0.163,0.184 -0.414,0.846 -0.559,1.472 -0.144,0.626 -0.439,1.451 -0.655,1.833 -0.216,0.382 -0.523,1.199 -0.683,1.814 -0.16,0.616 -0.428,1.278 -0.596,1.471 -0.168,0.194 -0.388,0.739 -0.49,1.212 -0.101,0.473 -0.337,1.119 -0.523,1.435 -0.186,0.316 -0.528,1.179 -0.76,1.919 -0.232,0.739 -0.561,1.574 -0.732,1.854 -0.171,0.281 -0.415,1.106 -0.543,1.834 -0.128,0.728 -0.389,1.585 -0.579,1.906 -0.19,0.321 -0.435,0.959 -0.544,1.417 -0.109,0.458 -0.409,1.258 -0.667,1.776 -0.258,0.518 -0.519,1.215 -0.582,1.547 -0.062,0.333 -0.292,0.868 -0.509,1.189 -0.218,0.321 -0.481,0.937 -0.585,1.369 -0.103,0.432 -0.36,1.102 -0.569,1.489 -0.391,0.72 -0.589,1.266 -0.906,2.497 -0.099,0.386 -0.309,0.83 -0.467,0.988 -0.157,0.157 -0.383,0.667 -0.501,1.132 -0.119,0.466 -0.391,1.184 -0.606,1.596 -0.215,0.413 -0.523,1.238 -0.685,1.834 -0.162,0.595 -0.427,1.308 -0.589,1.583 -0.162,0.275 -0.376,0.944 -0.475,1.487 -0.1,0.542 -0.439,1.517 -0.754,2.166 -0.316,0.649 -0.667,1.518 -0.782,1.93 -0.115,0.413 -0.341,0.924 -0.501,1.135 -0.161,0.212 -0.376,0.79 -0.479,1.284 -0.102,0.494 -0.351,1.145 -0.553,1.448 -0.201,0.302 -0.545,1.075 -0.763,1.717 -0.219,0.641 -0.529,1.391 -0.689,1.666 -0.16,0.275 -0.342,0.763 -0.403,1.084 -0.144,0.748 -0.426,1.515 -0.675,1.833 -0.108,0.138 -0.373,0.7 -0.59,1.25 -0.216,0.55 -0.604,1.401 -0.86,1.892 -0.256,0.49 -0.467,1.09 -0.467,1.333 -0.002,0.61 -0.321,1.724 -0.582,2.025 -0.119,0.138 -0.345,0.714 -0.502,1.28 -0.158,0.567 -0.418,1.172 -0.578,1.344 -0.439,0.472 -0.614,0.867 -0.828,1.876 -0.3,1.42 -1.44,2.487 -2.156,2.02 -0.135,-0.088 -0.358,-0.901 -0.538,-1.96 -0.169,-0.996 -0.382,-1.96 -0.474,-2.143 -0.361,-0.718 -0.522,-1.349 -0.761,-2.976 -0.137,-0.93 -0.319,-1.841 -0.404,-2.024 -0.251,-0.539 -0.638,-2.095 -0.766,-3.084 -0.065,-0.504 -0.29,-1.442 -0.5,-2.085 -0.36,-1.103 -0.503,-1.929 -0.902,-5.207 -0.092,-0.756 -0.282,-1.599 -0.423,-1.871 -0.142,-0.273 -0.407,-1.487 -0.589,-2.697 -0.183,-1.21 -0.435,-2.318 -0.561,-2.462 -0.125,-0.143 -0.395,-1.236 -0.601,-2.428 -0.205,-1.191 -0.507,-2.579 -0.67,-3.083 -0.344,-1.057 -0.597,-2.335 -0.738,-3.721 -0.054,-0.533 -0.216,-1.246 -0.359,-1.583 -0.144,-0.337 -0.407,-1.55 -0.585,-2.696 -0.178,-1.146 -0.508,-2.803 -0.732,-3.682 -0.225,-0.879 -0.518,-2.566 -0.65,-3.75 -0.133,-1.183 -0.357,-2.423 -0.497,-2.754 -0.141,-0.332 -0.374,-1.607 -0.517,-2.834 -0.144,-1.226 -0.371,-3.018 -0.506,-3.98 -0.253,-1.809 -0.811,-7.206 -1.077,-10.417 -0.083,-1.008 -0.271,-2.246 -0.417,-2.75 -0.147,-0.504 -0.412,-2.325 -0.59,-4.048 -0.179,-1.722 -0.393,-3.259 -0.477,-3.416 -0.186,-0.347 -0.783,-3.842 -0.932,-5.452 -0.059,-0.642 -0.219,-1.412 -0.356,-1.711 -0.137,-0.299 -0.397,-1.349 -0.578,-2.333 -0.182,-0.984 -0.435,-2.052 -0.563,-2.373 -0.129,-0.321 -0.427,-1.282 -0.663,-2.135 -0.236,-0.853 -0.616,-1.827 -0.845,-2.164 -0.228,-0.336 -0.416,-0.748 -0.416,-0.914 0,-0.167 -0.171,-0.468 -0.38,-0.67 C 327.744,7.415 327.432,7.025 327.26,6.75 326.765,5.956 325.777,5 325.453,5 c -0.164,0 -0.689,-0.198 -1.167,-0.441 -1.295,-0.656 -3.787,-0.68 -4.63,-0.044 -0.315,0.238 -0.766,0.48 -1.002,0.538 -0.375,0.092 -0.723,0.348 -1.821,1.341 -0.884,0.8 -2.616,2.755 -2.783,3.142 -0.11,0.255 -0.284,0.464 -0.386,0.464 -0.102,0 -0.413,0.506 -0.692,1.125 -0.278,0.619 -0.599,1.237 -0.712,1.375 -0.114,0.137 -0.336,0.677 -0.495,1.198 -0.159,0.522 -0.393,1.034 -0.519,1.139 -0.126,0.104 -0.394,0.54 -0.596,0.968 -0.202,0.428 -0.529,1.003 -0.728,1.278 -0.198,0.275 -0.493,0.93 -0.655,1.454 -0.162,0.525 -0.427,1.125 -0.588,1.333 -0.161,0.209 -0.383,0.755 -0.493,1.213 -0.11,0.459 -0.378,1.209 -0.595,1.667 -0.216,0.458 -0.528,1.283 -0.692,1.833 -0.164,0.55 -0.427,1.19 -0.584,1.422 -0.157,0.232 -0.435,1.02 -0.617,1.75 -0.183,0.731 -0.522,1.778 -0.753,2.328 -0.232,0.55 -0.505,1.621 -0.608,2.38 -0.103,0.76 -0.333,1.627 -0.511,1.928 -0.178,0.302 -0.399,0.956 -0.492,1.454 -0.093,0.498 -0.354,1.264 -0.58,1.703 -0.226,0.439 -0.562,1.433 -0.746,2.21 -0.185,0.777 -0.448,1.583 -0.585,1.792 -0.137,0.209 -0.397,1.116 -0.578,2.015 -0.181,0.899 -0.447,1.815 -0.591,2.035 -0.144,0.22 -0.456,1.127 -0.692,2.016 -0.236,0.888 -0.537,1.778 -0.667,1.977 -0.13,0.199 -0.352,0.913 -0.492,1.587 -0.141,0.675 -0.398,1.491 -0.571,1.815 -0.345,0.643 -1.145,3.452 -1.743,6.118 -0.209,0.933 -0.529,1.945 -0.712,2.25 -0.182,0.304 -0.458,1.069 -0.611,1.699 -0.154,0.63 -0.421,1.422 -0.594,1.76 -0.172,0.338 -0.437,1.098 -0.587,1.688 -0.151,0.59 -0.446,1.336 -0.656,1.657 -0.21,0.32 -0.474,1.033 -0.588,1.583 -0.113,0.55 -0.343,1.239 -0.512,1.532 -0.168,0.292 -0.469,1.117 -0.668,1.833 -0.199,0.716 -0.46,1.414 -0.58,1.552 -0.12,0.137 -0.345,0.7 -0.5,1.25 -0.155,0.55 -0.453,1.3 -0.663,1.666 -0.209,0.367 -0.51,1.304 -0.668,2.084 -0.158,0.779 -0.461,1.716 -0.673,2.083 -0.212,0.367 -0.437,0.967 -0.5,1.333 -0.064,0.367 -0.324,1.004 -0.579,1.417 -0.254,0.412 -0.58,1.162 -0.723,1.667 -0.143,0.504 -0.451,1.174 -0.683,1.488 -0.243,0.329 -0.467,0.915 -0.529,1.38 -0.167,1.259 -1.729,3.478 -2.184,3.101 -0.35,-0.291 -0.67,-0.982 -0.798,-1.725 -0.063,-0.364 -0.286,-1.223 -0.496,-1.911 -0.211,-0.687 -0.477,-1.963 -0.592,-2.833 -0.122,-0.921 -0.348,-1.828 -0.539,-2.167 -0.243,-0.429 -0.367,-1.091 -0.469,-2.5 -0.159,-2.206 -0.386,-3.531 -0.733,-4.266 -0.133,-0.283 -0.4,-1.371 -0.592,-2.416 -0.193,-1.046 -0.493,-2.351 -0.667,-2.901 -0.174,-0.55 -0.435,-1.713 -0.579,-2.584 -0.144,-0.871 -0.401,-1.996 -0.572,-2.5 -0.288,-0.849 -0.398,-1.368 -0.863,-4.083 -0.095,-0.55 -0.266,-1.15 -0.381,-1.333 -0.288,-0.458 -0.598,-1.765 -0.6,-2.532 -0.002,-0.691 -0.383,-2.284 -0.622,-2.603 -0.082,-0.109 -0.321,-0.986 -0.53,-1.949 -0.209,-0.962 -0.556,-2.35 -0.771,-3.083 -0.215,-0.733 -0.513,-2.154 -0.662,-3.158 -0.148,-1.003 -0.346,-1.967 -0.44,-2.142 -0.093,-0.174 -0.345,-1.153 -0.559,-2.175 -0.214,-1.022 -0.512,-2.196 -0.662,-2.608 -0.15,-0.413 -0.421,-1.37 -0.602,-2.127 -0.182,-0.757 -0.468,-1.62 -0.636,-1.917 -0.168,-0.297 -0.401,-1.14 -0.518,-1.873 -0.117,-0.733 -0.358,-1.624 -0.535,-1.979 -0.228,-0.457 -0.306,-0.901 -0.267,-1.516 0.031,-0.479 -0.026,-0.976 -0.126,-1.104 -0.101,-0.129 -0.277,-0.609 -0.392,-1.068 -0.114,-0.458 -0.353,-1.189 -0.53,-1.623 -0.176,-0.435 -0.395,-1.183 -0.486,-1.663 -0.091,-0.48 -0.302,-1.137 -0.469,-1.46 -0.167,-0.323 -0.44,-1.112 -0.606,-1.754 -0.167,-0.641 -0.554,-2.098 -0.861,-3.236 -0.307,-1.139 -0.557,-2.274 -0.557,-2.524 0,-0.249 -0.149,-0.63 -0.331,-0.846 -0.182,-0.217 -0.489,-0.919 -0.681,-1.56 -0.193,-0.642 -0.532,-1.48 -0.753,-1.863 C 262.181,12.171 262,11.635 262,11.363 c 0,-0.328 -0.179,-0.683 -0.531,-1.054 -0.292,-0.307 -0.702,-1.026 -0.912,-1.596 -0.21,-0.57 -0.608,-1.35 -0.886,-1.733 -0.277,-0.383 -0.504,-0.795 -0.504,-0.916 0,-0.121 -0.263,-0.482 -0.584,-0.803 C 258.262,4.94 258,4.59 258,4.484 258,4.095 256.267,2.669 255.668,2.565 255.347,2.509 254.821,2.307 254.5,2.116 253.547,1.549 250.542,1.531 249.417,2.085" />
  </g>
  <metadata
     id="metadata1">
    <rdf:RDF>
      <cc:Work
         rdf:about="">
        <dc:title>FFTW logo</dc:title>
      </cc:Work>
    </rdf:RDF>
  </metadata>
</svg>
