<svg xmlns="http://www.w3.org/2000/svg" width="1867" height="562" viewBox="0 0 1867 562">
<g>
<path d="M 1153.00 420.26 L 1153.00 462.52 L 1114.00 501.48 L 1114.00 230.00 L 1151.00 230.00 L 1151.00 248.42 L 1155.75 243.81 C1162.00,237.74 1168.71,233.77 1178.50,230.35 C1185.95,227.75 1187.60,227.56 1202.50,227.53 C1216.53,227.50 1219.42,227.79 1226.00,229.84 C1253.18,238.33 1272.18,257.70 1280.61,285.50 C1283.08,293.63 1283.35,296.05 1283.41,310.50 C1283.49,328.11 1282.12,335.17 1276.01,348.63 C1268.92,364.27 1254.65,379.13 1239.63,386.52 C1226.24,393.12 1217.06,395.28 1202.50,395.28 C1184.65,395.28 1171.95,391.35 1159.29,381.89 C1156.43,379.75 1153.84,378.00 1153.54,378.00 C1153.24,378.00 1153.00,397.02 1153.00,420.26 ZM 761.50 394.89 C750.17,396.28 742.83,396.17 731.74,394.44 C685.98,387.32 651.78,355.60 640.85,310.13 C638.23,299.24 637.25,275.21 638.91,262.71 C643.20,230.50 660.29,202.30 685.92,185.16 C696.00,178.42 706.45,173.83 719.93,170.25 C728.48,167.97 731.42,167.69 747.50,167.67 C767.03,167.65 772.90,168.53 787.61,173.74 C802.91,179.16 816.97,188.82 827.67,201.27 C830.14,204.15 832.85,207.80 833.68,209.39 L 835.20 212.28 L 820.39 227.11 L 805.58 241.95 L 802.04 235.22 C796.96,225.57 786.47,215.27 777.00,210.64 C750.41,197.64 715.90,204.33 696.52,226.24 C690.56,232.98 682.66,249.23 680.35,259.50 C679.05,265.27 678.57,271.41 678.62,281.50 C678.72,298.05 680.83,308.00 686.92,320.50 C698.60,344.51 720.67,358.29 747.50,358.36 C758.97,358.39 767.03,356.57 776.93,351.74 C785.36,347.63 797.23,335.94 801.82,327.25 C803.63,323.81 805.43,321.00 805.82,321.00 C806.21,321.00 813.01,327.50 820.94,335.44 L 835.35 349.87 L 832.51 354.19 C828.38,360.46 817.43,371.56 810.43,376.57 C797.59,385.77 778.92,392.76 761.50,394.89 ZM 902.03 339.50 L 901.50 391.50 L 882.25 391.77 L 863.00 392.04 L 863.00 205.48 L 881.76 186.74 C892.08,176.43 900.85,168.00 901.26,168.00 C901.67,168.00 902.00,185.39 902.00,206.65 L 902.00 245.29 L 907.33 240.25 C917.10,231.01 928.71,226.99 945.56,227.01 C951.03,227.02 958.42,227.72 962.00,228.56 C979.36,232.64 994.34,244.97 1001.11,260.75 C1005.79,271.67 1005.97,274.33 1006.02,334.59 L 1006.06 391.50 L 967.50 391.50 L 967.00 338.50 C966.52,287.28 966.43,285.35 964.39,280.95 C961.23,274.11 956.20,269.01 949.51,265.84 C944.43,263.44 942.23,263.00 935.29,263.00 C923.83,263.00 917.62,265.45 911.16,272.52 C902.37,282.14 902.62,280.25 902.03,339.50 ZM 1867.00 171.00 L 1867.00 205.50 L 1839.01 205.78 L 1811.01 206.06 L 1810.76 298.78 L 1810.50 391.50 L 1790.25 391.77 L 1770.00 392.04 L 1770.00 206.00 L 1713.00 206.00 L 1713.00 171.00 L 1867.00 171.00 ZM 1396.14 393.09 C1367.48,400.43 1336.17,391.98 1317.50,371.87 C1312.55,366.54 1309.86,364.00 1309.81,361.40 C1309.75,358.73 1312.50,355.99 1318.44,350.06 C1319.10,349.40 1319.80,348.70 1320.54,347.96 C1327.10,341.38 1332.70,336.01 1332.98,336.02 C1333.27,336.03 1334.80,338.23 1336.39,340.92 C1345.47,356.21 1362.37,365.97 1377.65,364.74 C1385.02,364.15 1392.24,360.89 1395.31,356.79 C1396.53,355.16 1397.50,351.98 1397.75,348.79 C1398.10,344.45 1397.76,342.88 1395.84,340.07 C1392.62,335.35 1387.35,333.00 1366.89,327.13 C1339.00,319.13 1332.91,316.10 1322.83,305.20 C1314.49,296.17 1312.55,290.58 1312.52,275.45 C1312.50,263.54 1312.54,263.31 1316.21,255.89 C1323.08,241.98 1336.70,232.08 1354.04,228.39 C1364.04,226.26 1385.81,227.01 1394.58,229.79 C1405.37,233.20 1414.99,238.96 1422.63,246.56 C1426.55,250.47 1430.09,254.70 1430.49,255.97 C1431.12,257.96 1429.61,259.88 1419.26,270.23 L 1407.30 282.19 L 1404.20 276.71 C1400.67,270.44 1394.56,265.03 1387.42,261.84 C1380.62,258.79 1366.71,258.08 1360.50,260.45 C1349.16,264.78 1346.72,277.50 1355.79,284.98 C1359.48,288.02 1368.02,291.17 1388.50,297.04 C1418.30,305.58 1432.53,318.19 1436.06,339.21 C1440.15,363.47 1423.36,386.13 1396.14,393.09 ZM 322.38 340.25 C321.58,341.76 320.84,342.98 320.72,342.97 C320.60,342.95 317.68,340.25 314.23,336.97 C304.14,327.38 293.60,323.02 280.50,323.02 C268.00,323.02 257.32,327.21 247.89,335.80 C242.72,340.51 240.13,341.44 237.18,339.61 C236.23,339.03 236.19,338.48 237.02,337.48 C238.51,335.68 234.89,333.51 233.20,335.20 C231.35,337.05 225.02,332.12 225.01,328.83 C225.00,327.37 224.44,325.94 223.75,325.66 C222.94,325.33 222.85,324.86 223.50,324.33 C224.05,323.87 224.64,321.34 224.81,318.70 C225.05,314.92 225.95,312.79 229.06,308.70 C235.86,299.77 237.47,294.34 237.46,280.50 C237.45,269.22 237.26,268.11 234.40,262.00 C232.72,258.42 229.16,252.80 226.48,249.50 C223.81,246.20 222.38,244.12 223.31,244.87 C224.31,245.68 225.00,245.81 225.00,245.18 C225.00,244.60 224.62,243.89 224.16,243.60 C223.70,243.32 223.40,242.28 223.49,241.29 C223.86,237.09 225.38,234.74 228.59,233.40 C230.76,232.49 232.47,230.82 233.34,228.74 C235.19,224.35 240.14,222.39 242.58,225.08 C243.51,226.11 244.61,226.74 245.03,226.48 C245.90,225.94 248.39,227.21 255.50,231.83 C266.28,238.82 280.84,240.84 293.14,237.04 C300.95,234.62 307.42,230.60 315.40,223.19 C318.76,220.08 320.20,218.96 318.61,220.71 C318.46,220.88 318.31,221.05 318.17,221.20 C317.02,222.46 316.39,223.14 316.54,223.53 C316.74,224.03 318.26,224.01 321.65,224.09 C322.95,224.12 324.01,224.95 324.33,226.17 C324.63,227.29 325.32,227.92 325.88,227.57 C326.44,227.23 327.40,227.88 328.02,229.03 C328.81,230.52 329.92,231.03 331.82,230.81 C334.21,230.53 334.47,230.80 334.21,233.25 C334.01,235.22 334.38,236.00 335.52,236.00 C336.40,236.00 336.87,236.40 336.56,236.90 C336.26,237.39 336.68,238.05 337.49,238.36 C339.29,239.05 337.98,243.31 334.99,246.50 C333.96,247.60 333.16,248.73 333.21,249.00 C333.26,249.27 331.73,251.98 329.82,255.00 C324.90,262.78 323.05,268.07 322.36,276.32 C321.24,289.53 325.73,302.52 334.72,312.13 C337.22,314.81 338.93,317.00 338.51,317.00 C338.10,317.00 338.34,317.71 339.06,318.58 C340.16,319.90 340.03,320.84 338.29,324.33 C337.15,326.62 335.83,329.83 335.35,331.46 C334.62,333.94 333.62,334.66 329.15,335.96 C325.20,337.10 323.44,338.21 322.38,340.25 ZM 1688.76 282.50 L 1688.50 391.50 L 1668.25 391.77 L 1648.00 392.04 L 1648.00 210.48 L 1667.96 190.54 C1681.55,176.96 1688.09,171.07 1688.46,172.05 C1688.77,172.85 1688.90,222.55 1688.76,282.50 ZM 1186.40 358.11 C1197.73,361.36 1208.66,359.96 1220.23,353.80 C1237.15,344.78 1246.91,321.72 1242.59,301.00 C1239.19,284.66 1230.57,273.01 1217.22,266.68 C1210.78,263.63 1209.98,263.50 1197.98,263.50 C1185.81,263.50 1185.27,263.59 1178.70,266.83 C1161.43,275.33 1151.57,294.54 1153.52,315.88 C1154.68,328.61 1158.48,337.46 1166.36,345.79 C1172.47,352.25 1178.17,355.76 1186.40,358.11 ZM 1078.00 230.00 L 1078.00 392.00 L 1039.00 392.00 L 1039.00 230.00 ZM 1600.48 294.00 L 1565.52 329.00 L 1520.26 329.00 C1495.37,329.00 1475.00,328.66 1475.00,328.24 C1475.00,327.82 1482.54,319.95 1491.76,310.74 L 1508.52 294.00 ZM 1077.77 191.25 L 1077.50 211.50 L 1039.00 212.04 L 1039.00 171.00 L 1078.04 171.00 ZM 238.00 339.00 C238.00,339.55 238.20,340.00 238.44,340.00 C238.68,340.00 239.16,339.55 239.50,339.00 C239.84,338.45 239.64,338.00 239.06,338.00 C238.48,338.00 238.00,338.45 238.00,339.00 Z" fill="rgb(21,50,169)"/>
<path d="M 255.65 231.92 C255.60,231.89 255.55,231.86 255.50,231.83 C248.39,227.21 245.90,225.94 245.03,226.48 C244.61,226.74 243.51,226.11 242.58,225.08 C240.14,222.39 235.19,224.35 233.34,228.74 C232.47,230.82 230.76,232.49 228.59,233.40 C225.38,234.74 223.86,237.09 223.49,241.29 C223.40,242.28 223.70,243.32 224.16,243.60 C224.62,243.89 225.00,244.60 225.00,245.18 C225.00,245.81 224.31,245.68 223.31,244.87 C222.38,244.12 223.81,246.20 226.48,249.50 C228.12,251.52 230.09,254.41 231.75,257.16 C228.62,252.39 222.43,245.97 202.70,226.13 C186.55,209.89 175.04,197.57 175.76,197.30 C176.45,197.04 176.77,196.44 176.48,195.96 C176.18,195.48 179.55,191.59 183.95,187.30 C193.96,177.56 194.65,176.98 195.39,177.73 C195.73,178.06 196.00,177.86 196.00,177.29 C196.00,176.71 195.31,175.68 194.48,174.98 C193.64,174.28 193.17,173.50 193.43,173.24 C193.70,172.97 207.17,185.71 223.37,201.55 C237.94,215.79 251.52,228.56 255.65,231.92 ZM 327.31 259.25 C328.04,257.90 328.88,256.50 329.82,255.00 C331.73,251.98 333.26,249.27 333.21,249.00 C333.16,248.73 333.96,247.60 334.99,246.50 C337.98,243.31 339.29,239.05 337.49,238.36 C336.68,238.05 336.26,237.39 336.56,236.90 C336.87,236.40 336.40,236.00 335.52,236.00 C334.38,236.00 334.01,235.22 334.21,233.25 C334.47,230.80 334.21,230.53 331.82,230.81 C329.92,231.03 328.81,230.52 328.02,229.03 C327.40,227.88 326.44,227.23 325.88,227.57 C325.32,227.92 324.63,227.29 324.33,226.17 C324.01,224.95 322.95,224.12 321.65,224.09 C318.26,224.01 316.74,224.03 316.54,223.53 C316.39,223.14 317.02,222.46 318.17,221.20 C318.31,221.05 318.46,220.88 318.61,220.71 C320.20,218.96 318.76,220.08 315.40,223.19 C311.77,226.57 308.44,229.24 305.16,231.38 C308.52,228.88 321.95,216.01 335.70,202.11 C353.90,183.71 362.18,176.00 363.73,176.00 C366.97,176.00 384.17,193.38 383.28,195.74 C382.64,197.42 382.70,197.42 384.38,195.75 C385.35,194.79 386.66,194.00 387.30,194.00 C388.51,194.00 385.77,196.90 350.95,232.50 C337.61,246.13 330.93,253.29 327.31,259.25 ZM 322.38 340.25 C323.44,338.21 325.20,337.10 329.15,335.96 C333.62,334.66 334.62,333.94 335.35,331.46 C335.83,329.83 337.15,326.62 338.29,324.33 C340.03,320.84 340.16,319.90 339.06,318.58 C338.34,317.71 338.10,317.00 338.51,317.00 C338.93,317.00 337.22,314.81 334.72,312.13 C332.16,309.40 329.97,306.39 328.17,303.19 C331.28,308.19 338.28,315.61 361.33,338.75 C378.45,355.94 391.96,370.00 391.35,370.00 C390.74,370.00 389.68,369.33 389.00,368.50 C387.19,366.31 386.41,366.59 382.77,370.72 C378.04,376.10 369.65,383.96 368.61,383.98 C368.12,383.99 367.14,384.79 366.42,385.75 C365.26,387.32 362.28,384.67 336.81,359.37 C319.36,342.03 310.88,334.00 306.02,330.40 C308.81,332.23 311.54,334.41 314.23,336.97 C317.68,340.25 320.60,342.95 320.72,342.97 C320.84,342.98 321.58,341.76 322.38,340.25 ZM 223.90 359.63 C208.16,375.23 194.93,388.00 194.49,388.00 C194.05,388.00 194.55,387.02 195.60,385.83 C197.02,384.21 197.11,383.80 195.97,384.22 C194.35,384.80 177.87,369.03 176.70,365.78 C175.83,363.35 178.02,360.87 205.54,333.00 C218.85,319.52 230.89,306.48 232.29,304.00 C234.10,300.80 235.44,297.68 236.35,294.39 C235.20,299.52 233.00,303.52 229.06,308.70 C225.95,312.79 225.05,314.92 224.81,318.70 C224.64,321.34 224.05,323.87 223.50,324.33 C222.85,324.86 222.94,325.33 223.75,325.66 C224.44,325.94 225.00,327.37 225.01,328.83 C225.02,332.12 231.35,337.05 233.20,335.20 C234.89,333.51 238.51,335.68 237.02,337.48 C236.19,338.48 236.23,339.03 237.18,339.61 C240.13,341.44 242.72,340.51 247.89,335.80 C250.50,333.43 253.20,331.39 256.01,329.68 C251.31,332.91 242.75,340.92 223.90,359.63 ZM 416.00 278.62 C416.00,285.48 415.76,286.59 414.25,286.71 C412.50,286.84 406.00,281.74 406.00,280.24 C406.00,279.80 409.02,276.53 412.71,272.97 C416.41,269.41 418.66,267.44 417.71,268.58 C416.41,270.16 416.00,272.57 416.00,278.62 ZM 272.39 416.00 C271.99,416.00 270.72,416.77 269.58,417.70 C268.44,418.64 270.30,416.52 273.73,412.99 L 279.96 406.56 L 283.52 410.02 C285.48,411.92 286.60,413.63 286.00,413.83 C285.26,414.08 285.24,414.58 285.93,415.42 C286.70,416.35 285.71,416.65 281.72,416.69 C278.85,416.72 275.66,416.31 274.63,415.77 C273.37,415.12 272.97,415.14 273.40,415.83 C273.75,416.40 273.51,417.19 272.86,417.59 C272.13,418.04 271.96,417.88 272.40,417.15 C272.80,416.52 272.79,416.00 272.39,416.00 ZM 152.01 284.49 C147.02,289.64 146.21,289.15 146.21,280.98 C146.21,276.90 145.70,273.34 144.98,272.48 C144.31,271.67 144.16,271.00 144.67,271.00 C145.17,271.00 147.79,273.25 150.49,275.99 L 155.41 280.98 ZM 287.00 148.50 C283.46,152.07 280.30,155.00 279.99,155.00 C279.67,155.00 277.43,152.98 275.00,150.50 C272.57,148.02 271.13,146.00 271.79,146.00 C272.46,146.00 273.00,146.36 273.00,146.81 C273.00,147.25 276.21,147.27 280.14,146.86 C285.19,146.31 287.91,145.50 289.45,144.05 C290.65,142.92 292.04,142.00 292.54,142.00 C293.03,142.00 290.54,144.93 287.00,148.50 ZM 238.00 339.00 C238.00,338.45 238.48,338.00 239.06,338.00 C239.64,338.00 239.84,338.45 239.50,339.00 C239.16,339.55 238.68,340.00 238.44,340.00 C238.20,340.00 238.00,339.55 238.00,339.00 ZM 295.92 236.09 C295.01,236.43 294.09,236.74 293.14,237.04 C286.96,238.95 280.21,239.39 273.65,238.47 C281.12,239.41 288.91,238.61 295.92,236.09 ZM 233.41 260.06 C233.79,260.75 234.12,261.40 234.40,262.00 C236.29,266.03 237.01,267.89 237.29,271.93 C236.80,268.10 235.95,265.55 234.10,261.50 C233.87,261.00 233.65,260.53 233.41,260.06 ZM 288.32 323.59 C292.54,324.23 296.50,325.42 300.29,327.19 C296.36,325.47 292.35,324.27 288.32,323.59 ZM 259.98 327.52 C263.61,325.78 267.42,324.55 271.42,323.82 C267.57,324.57 263.74,325.81 259.98,327.52 ZM 322.46 275.25 C322.68,273.04 322.99,271.04 323.44,269.14 C323.14,270.57 322.89,272.09 322.64,273.76 C322.57,274.26 322.51,274.75 322.46,275.25 Z" fill="rgb(60,61,164)"/>
<path d="M 272.39 416.00 C272.79,416.00 272.80,416.52 272.40,417.15 C271.96,417.88 272.13,418.04 272.86,417.59 C273.51,417.19 273.75,416.40 273.40,415.83 C272.97,415.14 273.37,415.12 274.63,415.77 C275.66,416.31 278.85,416.72 281.72,416.69 C285.71,416.65 286.70,416.35 285.93,415.42 C285.24,414.58 285.26,414.08 286.00,413.83 C286.60,413.63 285.48,411.92 283.52,410.02 L 280.01 406.61 C280.28,406.38 280.45,406.25 280.50,406.23 C281.05,406.08 293.65,418.16 308.50,433.08 C324.72,449.37 334.50,459.88 333.00,459.40 C330.02,458.45 329.60,458.47 315.50,460.20 C309.45,460.94 303.97,461.88 303.32,462.29 C302.67,462.70 301.86,462.58 301.51,462.02 C301.16,461.46 299.53,461.00 297.88,461.00 C295.75,461.00 295.10,461.36 295.63,462.25 C296.14,463.10 295.84,463.06 294.69,462.13 C293.76,461.37 293.00,461.13 293.00,461.60 C293.00,462.06 290.08,459.54 286.50,456.00 L 280.00 449.56 L 273.59 455.91 C267.47,461.97 266.93,462.28 261.84,462.53 C258.90,462.67 255.60,462.42 254.50,461.96 C253.40,461.51 250.66,461.11 248.40,461.07 C245.80,461.03 243.45,460.26 241.96,458.97 C240.51,457.71 239.02,457.21 238.06,457.65 C237.20,458.05 234.54,458.47 232.16,458.59 L 227.81 458.81 L 253.66 432.65 C265.42,420.75 275.72,410.56 279.23,407.31 L 273.73 412.99 C270.30,416.52 268.44,418.64 269.58,417.70 C270.72,416.77 271.99,416.00 272.39,416.00 ZM 416.00 278.62 C416.00,272.57 416.41,270.16 417.71,268.58 C418.39,267.76 417.44,268.53 415.50,270.33 C420.15,265.54 426.15,259.48 432.68,252.99 C447.36,238.42 458.78,227.29 458.06,228.25 C457.11,229.53 457.07,230.00 457.94,230.00 C458.61,230.00 458.79,230.52 458.37,231.21 C457.18,233.13 458.00,241.28 459.64,243.81 C460.49,245.14 460.91,247.28 460.61,248.81 C460.32,250.29 460.40,254.20 460.79,257.50 C461.46,263.17 461.64,263.48 464.00,263.17 C466.05,262.91 464.88,264.49 457.52,271.92 L 448.54 281.00 L 459.00 291.50 C464.76,297.28 468.96,302.00 468.35,302.00 C467.74,302.00 466.68,301.33 466.00,300.50 C464.25,298.39 463.66,298.60 462.21,301.88 C460.71,305.28 458.79,320.75 459.57,323.21 C460.27,325.44 458.22,329.26 456.80,328.37 C455.33,327.47 456.69,329.82 459.32,332.75 C460.44,333.99 461.13,335.00 460.87,335.00 C459.78,335.00 406.00,281.73 406.00,280.66 C406.00,280.63 406.02,280.58 406.06,280.52 C406.71,282.29 412.60,286.83 414.25,286.71 C415.76,286.59 416.00,285.48 416.00,278.62 ZM 129.00 307.50 C114.43,322.07 102.16,334.00 101.73,334.00 C101.30,334.00 101.75,332.78 102.73,331.29 C104.81,328.11 104.65,320.15 102.41,315.83 C101.64,314.33 101.00,311.61 100.99,309.80 C100.98,307.98 100.37,304.48 99.63,302.00 C98.89,299.52 98.51,296.83 98.79,296.00 C99.16,294.90 98.65,295.03 96.90,296.46 C95.58,297.54 98.21,294.60 102.75,289.94 C107.29,285.27 111.00,281.03 111.00,280.50 C111.00,279.97 107.07,275.59 102.27,270.77 C97.47,265.95 94.00,262.00 94.57,262.00 C95.14,262.00 96.09,262.49 96.69,263.09 C97.48,263.88 98.12,263.17 98.99,260.53 C99.66,258.51 99.93,256.59 99.60,256.26 C99.26,255.93 99.60,254.72 100.35,253.58 C101.79,251.38 103.03,244.63 103.47,236.72 C103.61,234.09 104.03,231.63 104.40,231.26 C104.78,230.89 116.42,241.93 130.29,255.79 L 149.42 274.92 C147.13,272.69 145.10,271.00 144.67,271.00 C144.16,271.00 144.31,271.67 144.98,272.48 C145.70,273.34 146.21,276.90 146.21,280.98 C146.21,288.21 146.85,289.42 150.45,286.04 ZM 307.50 128.00 C300.77,134.74 294.54,140.92 289.72,145.66 C291.72,143.50 292.89,142.00 292.54,142.00 C292.04,142.00 290.65,142.92 289.45,144.05 C287.91,145.50 285.19,146.31 280.14,146.86 C276.21,147.27 273.00,147.25 273.00,146.81 C273.00,146.36 272.46,146.00 271.79,146.00 C271.35,146.00 271.85,146.91 272.96,148.26 C268.19,143.56 261.42,136.80 253.99,129.32 C239.97,115.19 229.19,104.14 230.03,104.76 C231.93,106.15 251.95,102.37 253.50,100.32 C254.28,99.29 255.35,99.24 258.39,100.09 C262.46,101.22 264.55,100.06 263.52,97.25 C262.56,94.64 264.71,96.25 272.50,104.00 L 280.55 112.01 L 286.95 105.55 C293.30,99.14 293.39,99.09 297.93,99.62 C300.44,99.92 303.40,100.54 304.50,101.00 C305.60,101.46 308.08,102.08 310.00,102.37 C311.92,102.67 314.62,103.21 316.00,103.58 C320.01,104.65 330.57,103.51 331.57,101.89 C331.87,101.40 332.65,101.00 333.30,101.00 C333.95,101.00 322.34,113.15 307.50,128.00 ZM 223.90 359.63 C236.90,346.73 245.00,338.91 250.32,334.25 C243.67,340.22 232.09,351.70 209.96,374.04 C186.57,397.67 167.02,417.00 166.53,417.00 C166.03,417.00 164.52,418.01 163.15,419.25 C161.11,421.11 160.79,421.19 161.33,419.70 C161.70,418.68 161.57,418.15 161.04,418.48 C160.52,418.80 159.56,418.04 158.89,416.80 C158.23,415.55 156.52,413.65 155.09,412.57 C150.90,409.39 144.05,401.72 144.61,400.83 C144.89,400.37 144.66,400.00 144.09,400.00 C143.53,400.00 143.34,399.21 143.69,398.25 C144.11,397.06 143.22,397.45 140.90,399.48 C134.95,404.69 153.37,385.64 192.12,346.50 C212.83,325.59 229.42,308.07 232.04,304.40 C229.81,307.64 218.25,320.13 205.54,333.00 C178.02,360.87 175.83,363.35 176.70,365.78 C177.87,369.03 194.35,384.80 195.97,384.22 C197.11,383.80 197.02,384.21 195.60,385.83 C194.55,387.02 194.05,388.00 194.49,388.00 C194.93,388.00 208.16,375.23 223.90,359.63 ZM 332.57 252.11 C336.59,247.31 342.40,241.23 350.95,232.50 C385.77,196.90 388.51,194.00 387.30,194.00 C386.66,194.00 385.35,194.79 384.38,195.75 C382.70,197.42 382.64,197.42 383.28,195.74 C384.17,193.38 366.97,176.00 363.73,176.00 C362.63,176.00 358.11,179.91 349.02,188.82 C350.78,187.06 352.56,185.27 354.35,183.48 C379.01,158.74 398.87,139.09 398.49,139.81 C398.07,140.62 399.24,142.32 401.57,144.31 C403.64,146.06 406.61,148.85 408.17,150.50 C409.74,152.15 411.87,154.40 412.92,155.50 C417.09,159.89 418.01,160.17 422.50,158.41 C423.60,157.98 403.58,178.90 378.00,204.90 C357.95,225.28 340.05,243.91 332.57,252.11 ZM 249.00 226.01 C242.67,220.18 233.25,211.21 223.37,201.55 C207.17,185.71 193.70,172.97 193.43,173.24 C193.17,173.50 193.64,174.28 194.48,174.98 C195.31,175.68 196.00,176.71 196.00,177.29 C196.00,177.86 195.73,178.06 195.39,177.73 C194.65,176.98 193.96,177.56 183.95,187.30 C179.55,191.59 176.18,195.48 176.48,195.96 C176.77,196.44 176.45,197.04 175.76,197.30 C175.04,197.57 186.55,209.89 202.70,226.13 C222.43,245.97 228.62,252.39 231.75,257.16 C231.94,257.47 232.12,257.78 232.30,258.09 C228.84,252.56 220.61,244.17 184.71,208.18 C159.29,182.70 139.19,162.00 140.03,162.18 C143.35,162.87 161.69,144.23 160.56,141.30 C160.29,140.58 160.32,140.00 160.65,140.00 C160.97,140.00 181.54,160.10 206.36,184.68 C223.82,201.96 240.05,217.66 249.00,226.01 ZM 305.55 330.09 C305.71,330.19 305.86,330.29 306.02,330.40 C310.88,334.00 319.36,342.03 336.81,359.37 C362.28,384.67 365.26,387.32 366.42,385.75 C367.14,384.79 368.12,383.99 368.61,383.98 C369.65,383.96 378.04,376.10 382.77,370.72 C386.41,366.59 387.19,366.31 389.00,368.50 C389.68,369.33 390.74,370.00 391.35,370.00 C391.96,370.00 378.45,355.94 361.33,338.75 C338.28,315.61 331.28,308.19 328.17,303.19 C328.14,303.15 328.12,303.10 328.10,303.06 C331.48,308.42 341.12,318.47 376.85,354.35 C403.13,380.75 422.46,400.89 421.12,400.49 C419.82,400.10 418.98,400.17 419.27,400.64 C419.56,401.11 419.16,402.08 418.40,402.79 C417.63,403.50 417.00,403.76 417.00,403.37 C417.00,402.97 415.88,403.71 414.50,405.00 C413.12,406.29 412.00,407.93 412.00,408.65 C412.00,409.36 410.63,410.66 408.96,411.52 C407.28,412.39 405.46,414.10 404.90,415.33 C404.34,416.55 402.67,418.27 401.19,419.14 L 398.50 420.73 L 353.50 375.97 C323.18,345.81 311.19,334.28 305.55,330.09 ZM 338.72 199.07 C337.74,200.05 336.74,201.06 335.70,202.11 C321.95,216.01 308.52,228.88 305.16,231.38 C305.10,231.42 305.04,231.46 304.97,231.50 C307.83,229.29 321.54,216.08 338.72,199.07 ZM 323.16 270.57 C323.25,270.08 323.34,269.60 323.44,269.14 C324.12,266.24 325.11,263.57 326.55,260.70 C325.03,263.89 323.90,267.19 323.16,270.57 ZM 152.39 284.09 L 155.41 280.98 L 150.82 276.33 L 155.49 281.00 ZM 277.15 238.78 C275.98,238.72 274.81,238.61 273.65,238.47 C273.08,238.39 272.50,238.29 271.93,238.19 C273.65,238.48 275.40,238.68 277.15,238.78 ZM 269.00 324.36 C269.80,324.16 270.61,323.98 271.42,323.82 C271.52,323.80 271.63,323.78 271.74,323.76 C270.82,323.93 269.91,324.13 269.00,324.36 ZM 280.00 155.00 C280.00,155.00 280.01,155.00 280.01,154.99 C280.01,155.00 280.00,155.00 280.00,155.00 C280.00,155.00 280.00,155.00 280.00,155.00 Z" fill="rgb(104,70,158)"/>
<path d="M 489.54 362.23 C489.61,363.20 489.63,363.98 489.58,363.96 C488.80,363.53 467.48,342.43 446.56,321.55 C454.49,329.28 460.51,335.00 460.87,335.00 C461.13,335.00 460.44,333.99 459.32,332.75 C456.69,329.82 455.33,327.47 456.80,328.37 C458.22,329.26 460.27,325.44 459.57,323.21 C458.79,320.75 460.71,305.28 462.21,301.88 C463.66,298.60 464.25,298.39 466.00,300.50 C466.68,301.33 467.74,302.00 468.35,302.00 C468.96,302.00 464.76,297.28 459.00,291.50 L 448.54 281.00 L 457.52 271.92 C464.88,264.49 466.05,262.91 464.00,263.17 C461.64,263.48 461.46,263.17 460.79,257.50 C460.40,254.20 460.32,250.29 460.61,248.81 C460.91,247.28 460.49,245.14 459.64,243.81 C458.00,241.28 457.18,233.13 458.37,231.21 C458.79,230.52 458.61,230.00 457.94,230.00 C457.07,230.00 457.11,229.53 458.06,228.25 C458.78,227.29 447.36,238.42 432.68,252.99 C426.15,259.48 420.15,265.54 415.50,270.33 C414.76,271.02 413.87,271.86 412.88,272.82 C432.40,252.50 486.59,199.22 486.67,200.72 C486.78,202.83 488.73,208.43 490.64,212.16 C491.39,213.62 492.09,216.10 492.18,217.66 C492.28,219.22 492.59,220.93 492.86,221.45 C493.14,221.98 493.52,223.76 493.70,225.40 C494.15,229.50 495.86,230.24 499.25,227.82 C500.83,226.70 502.30,225.96 502.52,226.18 C502.74,226.41 490.79,238.70 475.96,253.50 C461.13,268.31 449.00,280.67 449.00,280.98 C449.00,281.28 457.35,289.85 467.56,300.02 C484.50,316.89 503.62,337.20 498.22,332.59 C496.99,331.54 495.82,330.86 495.61,331.09 C495.41,331.32 494.50,334.88 493.59,339.00 C492.68,343.12 491.69,347.62 491.38,349.00 C491.07,350.38 490.16,352.97 489.36,354.76 C488.55,356.55 488.24,358.57 488.65,359.24 C489.07,359.92 489.46,361.26 489.54,362.23 ZM 284.67 454.18 L 286.50 456.00 C290.08,459.54 293.00,462.06 293.00,461.60 C293.00,461.13 293.76,461.37 294.69,462.13 C295.84,463.06 296.14,463.10 295.63,462.25 C295.10,461.36 295.75,461.00 297.88,461.00 C299.53,461.00 301.16,461.46 301.51,462.02 C301.86,462.58 302.67,462.70 303.32,462.29 C303.97,461.88 309.45,460.94 315.50,460.20 C329.60,458.47 330.02,458.45 333.00,459.40 C334.36,459.83 326.52,451.32 313.07,437.68 C316.57,441.17 320.24,444.84 324.00,448.61 C347.38,472.07 365.60,490.93 364.50,490.53 C363.40,490.13 362.05,489.73 361.50,489.63 C360.95,489.53 360.02,489.14 359.43,488.78 C358.28,488.06 349.45,490.28 344.35,492.58 C342.62,493.36 340.32,494.00 339.25,494.00 C335.81,494.00 331.13,496.10 330.73,497.83 C330.46,499.00 322.89,492.11 305.16,474.52 ZM 271.40 102.91 C264.51,96.11 262.61,94.77 263.52,97.25 C264.55,100.06 262.46,101.22 258.39,100.09 C255.35,99.24 254.28,99.29 253.50,100.32 C251.95,102.37 231.93,106.15 230.03,104.76 C229.19,104.14 239.97,115.19 253.99,129.32 C261.42,136.80 268.19,143.56 272.96,148.26 C273.00,148.30 273.03,148.34 273.06,148.38 C254.87,130.71 207.01,83.20 203.39,79.06 C201.25,76.62 200.18,75.03 201.00,75.53 C203.23,76.88 207.21,76.09 209.68,73.80 C211.57,72.05 219.16,69.75 226.82,68.61 C230.31,68.09 231.38,66.59 230.06,64.11 C229.44,62.95 229.29,62.00 229.72,62.00 C230.16,62.00 241.76,73.25 255.50,87.00 ZM 114.00 322.50 C91.18,345.33 72.16,364.00 71.73,364.00 C71.30,364.00 71.70,362.85 72.62,361.45 C74.00,359.35 74.10,358.27 73.19,355.20 C72.58,353.17 71.82,349.81 71.50,347.75 C71.17,345.69 70.54,344.00 70.09,344.00 C69.34,344.00 68.26,339.20 67.65,333.09 C67.38,330.38 64.49,329.43 62.03,331.24 C61.19,331.86 71.86,320.92 85.75,306.93 C99.63,292.94 110.99,281.05 111.00,280.50 C110.99,281.04 107.28,285.28 102.75,289.94 C98.21,294.60 95.58,297.54 96.90,296.46 C98.65,295.03 99.16,294.90 98.79,296.00 C98.51,296.83 98.89,299.52 99.63,302.00 C100.37,304.48 100.98,307.98 100.99,309.80 C101.00,311.61 101.64,314.33 102.41,315.83 C104.65,320.15 104.81,328.11 102.73,331.29 C101.75,332.78 101.30,334.00 101.73,334.00 C102.14,334.00 112.93,323.53 126.27,310.23 ZM 322.50 113.00 C318.77,116.73 315.14,120.35 311.68,123.80 C324.46,110.93 333.89,101.00 333.30,101.00 C332.65,101.00 331.87,101.40 331.57,101.89 C330.57,103.51 320.01,104.65 316.00,103.58 C314.62,103.21 311.92,102.67 310.00,102.37 C308.08,102.08 305.60,101.46 304.50,101.00 C303.40,100.54 300.44,99.92 297.93,99.62 C293.39,99.09 293.30,99.14 286.95,105.55 L 280.55 112.01 L 280.51 111.97 L 306.08 86.42 C327.75,64.77 331.61,61.30 331.24,63.83 C330.71,67.41 332.46,68.58 338.80,68.88 C341.16,68.99 344.52,69.95 346.26,71.01 C350.95,73.86 357.44,74.60 360.47,72.61 C361.82,71.73 363.28,71.00 363.71,71.00 C364.14,71.00 345.60,89.90 322.50,113.00 ZM 253.73 475.77 C239.30,490.20 227.14,502.00 226.72,502.00 C226.30,502.00 226.67,500.91 227.55,499.57 C229.04,497.29 229.00,497.00 227.03,495.03 C225.87,493.87 224.47,493.21 223.92,493.55 C223.37,493.89 222.27,493.64 221.49,492.99 C220.71,492.34 219.49,492.02 218.78,492.26 C218.08,492.51 214.93,491.43 211.78,489.86 C204.95,486.45 203.57,486.37 199.00,489.10 C197.07,490.25 214.40,472.14 237.50,448.85 C244.35,441.95 250.87,435.40 256.67,429.61 C255.68,430.61 254.67,431.62 253.66,432.65 L 227.81 458.81 L 232.16 458.59 C234.54,458.47 237.20,458.05 238.06,457.65 C239.02,457.21 240.51,457.71 241.96,458.97 C243.45,460.26 245.80,461.03 248.40,461.07 C250.66,461.11 253.40,461.51 254.50,461.96 C255.60,462.42 258.90,462.67 261.84,462.53 C266.93,462.28 267.47,461.97 273.59,455.91 L 274.78 454.73 ZM 136.55 262.06 L 130.29 255.79 C116.42,241.93 104.78,230.89 104.40,231.26 C104.03,231.63 103.61,234.09 103.47,236.72 C103.03,244.63 101.79,251.38 100.35,253.58 C99.60,254.72 99.26,255.93 99.60,256.26 C99.93,256.59 99.66,258.51 98.99,260.53 C98.12,263.17 97.48,263.88 96.69,263.09 C96.09,262.49 95.14,262.00 94.57,262.00 C94.00,262.00 97.47,265.95 102.27,270.77 C107.07,275.59 111.00,279.97 111.00,280.50 C110.98,279.94 99.63,268.12 85.75,254.21 C71.86,240.30 61.24,229.19 62.15,229.52 C65.51,230.77 70.98,222.04 70.99,215.38 C71.00,214.22 71.90,212.13 73.00,210.73 C75.24,207.88 75.50,205.79 73.96,202.93 C70.78,196.97 79.25,204.74 115.50,241.00 ZM 338.72 199.07 C321.54,216.08 307.83,229.29 304.97,231.50 C304.91,231.54 304.86,231.58 304.80,231.61 C308.10,229.15 336.23,201.57 367.93,169.70 C421.48,115.88 429.79,108.18 427.27,114.74 C426.93,115.63 429.87,119.23 435.07,124.31 C443.79,132.82 446.25,133.82 450.08,130.41 C450.95,129.63 452.07,129.00 452.57,129.00 C453.08,129.00 435.26,147.34 412.97,169.75 C394.37,188.46 379.87,203.07 368.53,214.56 C371.61,211.41 374.78,208.18 378.00,204.90 C403.58,178.90 423.60,157.98 422.50,158.41 C418.01,160.17 417.09,159.89 412.92,155.50 C411.87,154.40 409.74,152.15 408.17,150.50 C406.61,148.85 403.64,146.06 401.57,144.31 C399.24,142.32 398.07,140.62 398.49,139.81 C398.87,139.09 379.01,158.74 354.35,183.48 C352.56,185.27 350.78,187.06 349.02,188.82 L 349.02 188.82 C346.08,191.70 342.66,195.10 338.72,199.07 ZM 174.15 364.69 C147.81,391.41 135.96,403.81 140.90,399.48 C143.22,397.45 144.11,397.06 143.69,398.25 C143.34,399.21 143.53,400.00 144.09,400.00 C144.66,400.00 144.89,400.37 144.61,400.83 C144.05,401.72 150.90,409.39 155.09,412.57 C156.52,413.65 158.23,415.55 158.89,416.80 C159.56,418.04 160.52,418.80 161.04,418.48 C161.57,418.15 161.70,418.68 161.33,419.70 C160.79,421.19 161.11,421.11 163.15,419.25 C164.52,418.01 166.03,417.00 166.53,417.00 C166.90,417.00 177.83,406.28 193.04,391.06 C161.30,423.06 135.13,449.05 134.68,449.04 C134.23,449.02 134.14,448.13 134.48,447.06 C134.92,445.68 134.44,444.77 132.82,443.90 C131.56,443.23 129.63,441.53 128.52,440.12 C120.28,429.64 115.19,426.52 111.00,429.38 C109.18,430.61 127.53,411.81 174.15,364.69 ZM 305.55 330.09 C311.19,334.28 323.18,345.81 353.50,375.97 L 398.50 420.73 L 401.19 419.14 C402.67,418.27 404.34,416.55 404.90,415.33 C405.46,414.10 407.28,412.39 408.96,411.52 C410.63,410.66 412.00,409.36 412.00,408.65 C412.00,407.93 413.12,406.29 414.50,405.00 C415.88,403.71 417.00,402.97 417.00,403.37 C417.00,403.76 417.63,403.50 418.40,402.79 C419.16,402.08 419.56,401.11 419.27,400.64 C418.98,400.17 419.82,400.10 421.12,400.49 C422.46,400.89 403.13,380.75 376.85,354.35 C341.12,318.47 331.48,308.42 328.10,303.06 C327.71,302.36 327.33,301.64 326.97,300.92 C332.46,309.84 346.84,324.18 390.11,367.58 C423.05,400.62 450.00,428.01 450.00,428.45 C450.00,428.89 449.33,428.68 448.50,428.00 C447.38,427.07 447.00,427.06 447.00,427.94 C447.00,428.59 446.55,428.84 445.99,428.50 C445.44,428.16 441.34,431.48 436.88,435.88 C431.52,441.17 428.56,444.91 428.14,446.93 C427.51,449.92 426.27,448.75 368.00,390.59 C326.13,348.80 311.40,334.48 305.29,329.93 C305.38,329.98 305.46,330.04 305.55,330.09 ZM 249.00 226.01 C240.05,217.66 223.82,201.96 206.36,184.68 C181.54,160.10 160.97,140.00 160.65,140.00 C160.32,140.00 160.29,140.58 160.56,141.30 C161.69,144.23 143.35,162.87 140.03,162.18 C139.19,162.00 159.29,182.70 184.71,208.18 C220.61,244.17 228.84,252.56 232.30,258.09 C232.42,258.28 232.53,258.48 232.64,258.67 C229.09,252.79 219.84,243.40 170.71,194.14 C137.60,160.95 111.53,134.31 112.78,134.94 C114.86,136.00 115.65,135.52 121.78,129.45 C125.48,125.80 129.72,121.77 131.21,120.50 C133.57,118.49 133.80,117.80 133.03,115.10 C132.54,113.39 132.39,112.00 132.71,112.00 C133.02,112.00 159.80,138.36 192.22,170.58 C216.98,195.18 239.53,217.15 249.95,226.88 C249.64,226.60 249.33,226.31 249.00,226.01 ZM 214.31 369.65 C233.64,350.17 244.12,339.81 250.32,334.25 C252.07,332.71 253.53,331.51 254.75,330.59 C249.54,334.70 239.08,344.81 214.31,369.65 ZM 237.29 271.94 C237.30,272.06 237.31,272.19 237.31,272.31 C236.73,268.80 235.79,265.41 234.46,262.29 C235.74,265.18 236.49,267.32 236.97,269.90 L 236.97 269.90 C237.09,270.54 237.20,271.21 237.29,271.93 ZM 236.73 292.37 C236.62,293.06 236.49,293.73 236.35,294.39 C235.69,296.76 234.82,299.05 233.70,301.33 C235.01,298.57 236.02,295.54 236.73,292.37 ZM 211.24 326.95 C206.20,332.18 200.50,338.02 194.39,344.21 C200.49,338.00 206.21,332.15 211.24,326.95 ZM 322.46 275.25 C322.51,274.75 322.57,274.26 322.64,273.76 C322.81,272.64 322.97,271.58 323.16,270.57 C323.43,269.32 323.76,268.07 324.15,266.83 C323.04,270.58 322.39,274.55 322.22,278.50 C322.25,277.77 322.30,277.04 322.36,276.32 C322.39,275.96 322.42,275.60 322.46,275.25 ZM 277.15 238.78 L 277.15 238.78 C275.40,238.68 273.65,238.48 271.93,238.19 C271.48,238.11 271.02,238.02 270.57,237.93 C272.76,238.37 274.99,238.66 277.22,238.79 ZM 139.33 297.16 L 150.45 286.04 C150.47,286.02 150.49,286.00 150.51,285.98 ZM 152.39 284.09 L 155.49 281.00 L 155.49 281.00 L 152.26 284.23 ZM 406.02 280.37 C406.02,280.42 406.04,280.47 406.06,280.52 C406.04,280.54 406.03,280.57 406.02,280.58 C405.99,280.54 405.97,280.51 405.97,280.50 C405.97,280.47 405.98,280.43 406.02,280.37 Z" fill="rgb(141,79,154)"/>
<path d="M 489.54 362.23 C489.46,361.26 489.07,359.92 488.65,359.24 C488.24,358.57 488.55,356.55 489.36,354.76 C490.16,352.97 491.07,350.38 491.38,349.00 C491.69,347.62 492.68,343.12 493.59,339.00 C494.50,334.88 495.41,331.32 495.61,331.09 C495.82,330.86 496.99,331.54 498.22,332.59 C503.62,337.20 484.50,316.89 467.56,300.02 C457.35,289.85 449.00,281.28 449.00,280.98 C449.00,280.67 461.13,268.31 475.96,253.50 C490.79,238.70 502.74,226.41 502.52,226.18 C502.30,225.96 500.83,226.70 499.25,227.82 C495.86,230.24 494.15,229.50 493.70,225.40 C493.52,223.76 493.14,221.98 492.86,221.45 C492.59,220.93 492.28,219.22 492.18,217.66 C492.09,216.10 491.39,213.62 490.64,212.16 C488.73,208.43 486.78,202.83 486.67,200.72 C486.61,199.72 462.57,223.01 440.75,244.68 C446.94,238.40 453.66,231.58 460.68,224.48 C507.58,177.05 514.75,170.16 514.06,173.25 C513.53,175.61 513.68,177.77 514.53,179.66 C515.23,181.22 516.80,185.20 518.03,188.50 C521.80,198.65 523.65,201.53 526.22,201.23 C527.79,201.04 516.25,213.20 489.01,240.44 C467.30,262.15 449.41,280.28 449.26,280.72 C449.02,281.45 497.80,330.45 518.98,350.74 L 527.46 358.87 L 524.66 359.94 C522.52,360.75 522.01,361.46 522.48,362.95 C522.88,364.19 521.64,367.84 519.07,372.97 C516.86,377.41 514.92,382.84 514.77,385.02 C514.62,387.19 514.50,388.94 514.50,388.94 C514.50,388.92 490.03,364.68 460.12,335.09 C453.78,328.81 447.69,322.76 442.03,317.11 C443.59,318.64 445.11,320.13 446.56,321.55 C467.48,342.43 488.80,363.53 489.58,363.96 C489.63,363.98 489.61,363.20 489.54,362.23 ZM 246.32 122.09 C239.74,115.61 232.54,108.50 225.00,101.05 C171.26,47.93 170.56,47.18 174.74,47.72 C177.07,48.02 179.55,47.81 180.24,47.26 C180.93,46.71 184.20,45.34 187.50,44.21 C190.80,43.08 194.79,41.48 196.37,40.66 C197.96,39.83 199.87,39.40 200.62,39.69 C202.37,40.36 202.52,35.92 200.80,34.20 C200.14,33.54 200.03,33.00 200.55,33.00 C201.08,33.00 219.28,50.77 241.00,72.50 L 252.85 84.36 C240.30,71.84 230.13,62.00 229.72,62.00 C229.29,62.00 229.44,62.95 230.06,64.11 C231.38,66.59 230.31,68.09 226.82,68.61 C219.16,69.75 211.57,72.05 209.68,73.80 C207.21,76.09 203.23,76.88 201.00,75.53 C200.18,75.03 201.25,76.62 203.39,79.06 C205.74,81.75 226.85,102.83 246.32,122.09 ZM 284.67 454.18 L 305.16 474.52 C322.89,492.11 330.46,499.00 330.73,497.83 C331.13,496.10 335.81,494.00 339.25,494.00 C340.32,494.00 342.62,493.36 344.35,492.58 C349.45,490.28 358.28,488.06 359.43,488.78 C360.02,489.14 360.95,489.53 361.50,489.63 C362.05,489.73 363.40,490.13 364.50,490.53 C365.60,490.93 347.38,472.07 324.00,448.61 C320.24,444.84 316.57,441.17 313.07,437.68 C312.84,437.45 312.61,437.22 312.38,436.99 C319.85,444.38 328.21,452.69 337.00,461.48 C385.41,509.91 396.38,521.39 388.67,515.55 C386.75,514.10 383.42,514.68 378.00,517.40 C376.62,518.09 373.48,519.23 371.00,519.93 C368.52,520.63 365.38,521.71 364.00,522.31 C361.44,523.45 360.54,523.68 358.10,523.88 C357.00,523.97 357.09,524.45 358.50,526.00 C359.50,527.10 359.95,528.00 359.51,528.00 C359.06,528.00 340.98,510.35 319.33,488.78 L 279.98 449.58 L 280.00 449.56 ZM 103.50 332.99 C74.90,361.66 50.71,385.56 49.75,386.10 C48.59,386.74 47.96,386.72 47.88,386.04 C47.67,384.33 47.44,383.65 45.80,380.00 C43.33,374.48 40.22,365.89 39.02,361.25 C38.42,358.91 37.38,357.00 36.72,357.00 C36.05,357.00 52.50,340.01 73.25,319.25 C94.00,298.49 110.98,281.06 111.00,280.50 C110.99,281.05 99.63,292.94 85.75,306.93 C71.86,320.92 61.19,331.86 62.03,331.24 C64.49,329.43 67.38,330.38 67.65,333.09 C68.26,339.20 69.34,344.00 70.09,344.00 C70.54,344.00 71.17,345.69 71.50,347.75 C71.82,349.81 72.58,353.17 73.19,355.20 C74.10,358.27 74.00,359.35 72.62,361.45 C71.70,362.85 71.30,364.00 71.73,364.00 C72.11,364.00 86.96,349.46 106.13,330.36 ZM 262.08 424.17 C260.34,425.91 258.53,427.73 256.67,429.61 C250.87,435.40 244.35,441.95 237.50,448.85 C214.40,472.14 197.07,490.25 199.00,489.10 C203.57,486.37 204.95,486.45 211.78,489.86 C214.93,491.43 218.08,492.51 218.78,492.26 C219.49,492.02 220.71,492.34 221.49,492.99 C222.27,493.64 223.37,493.89 223.92,493.55 C224.47,493.21 225.87,493.87 227.03,495.03 C229.00,497.00 229.04,497.29 227.55,499.57 C226.67,500.91 226.30,502.00 226.72,502.00 C227.01,502.00 232.71,496.55 240.87,488.53 C215.99,513.33 201.59,527.00 201.27,526.12 C200.26,523.44 197.05,521.09 192.83,519.95 C190.48,519.32 187.66,518.17 186.56,517.40 C185.46,516.63 183.74,516.00 182.74,516.00 C181.75,516.00 179.90,515.33 178.65,514.51 C176.64,513.19 176.13,513.19 174.43,514.47 C173.37,515.28 172.06,515.95 171.53,515.97 C170.69,516.00 230.78,455.28 262.08,424.17 ZM 339.08 96.35 C353.84,81.47 364.03,71.00 363.71,71.00 C363.28,71.00 361.82,71.73 360.47,72.61 C357.44,74.60 350.95,73.86 346.26,71.01 C344.52,69.95 341.16,68.99 338.80,68.88 C332.46,68.58 330.71,67.41 331.24,63.83 C331.61,61.30 327.75,64.77 306.08,86.42 L 295.53 96.96 L 318.59 73.91 C352.88,39.63 356.84,35.98 358.22,37.37 C359.07,38.21 360.03,38.64 360.36,38.31 C360.68,37.98 361.24,38.45 361.58,39.36 C361.96,40.33 363.34,41.00 364.98,41.00 C366.51,41.00 371.28,42.42 375.60,44.17 C379.91,45.91 384.02,47.33 384.72,47.33 C385.42,47.33 386.00,47.78 386.00,48.32 C386.00,48.83 365.37,69.94 339.08,96.35 ZM 46.30 173.36 C46.51,173.16 62.58,188.76 84.46,210.37 C74.36,200.74 72.04,199.34 73.96,202.93 C75.50,205.79 75.24,207.88 73.00,210.73 C71.90,212.13 71.00,214.22 70.99,215.38 C70.98,222.04 65.51,230.77 62.15,229.52 C61.53,229.29 66.26,234.38 73.73,242.04 C73.40,241.71 73.08,241.38 72.75,241.05 C51.71,219.90 35.44,203.37 36.60,204.31 C38.65,206.00 38.70,205.96 38.79,202.79 C38.84,201.00 39.36,199.38 39.94,199.19 C40.52,198.99 41.00,197.63 41.00,196.17 C41.00,194.70 41.96,191.48 43.14,189.00 L 43.32 188.62 C47.17,180.57 48.01,178.81 47.63,177.37 C47.51,176.95 47.29,176.55 47.02,176.03 C46.37,174.82 46.05,173.62 46.30,173.36 ZM 174.15 364.69 C127.53,411.81 109.18,430.61 111.00,429.38 C115.19,426.52 120.28,429.64 128.52,440.12 C129.63,441.53 131.56,443.23 132.82,443.90 C134.44,444.77 134.92,445.68 134.48,447.06 C134.14,448.13 134.23,449.02 134.68,449.04 C135.13,449.05 161.30,423.06 193.04,391.06 L 193.04 391.06 C194.63,389.47 196.26,387.84 197.93,386.16 C192.80,391.33 187.22,396.96 181.15,403.08 C141.90,442.63 109.37,475.00 108.86,475.00 C108.30,475.00 108.29,474.31 108.83,473.25 C110.04,470.90 109.23,469.00 107.03,469.00 C105.97,469.00 104.98,468.04 104.64,466.69 C104.32,465.43 101.80,462.24 99.03,459.63 C96.26,457.01 94.00,454.24 94.00,453.48 C94.00,452.46 93.02,452.22 90.32,452.56 C88.29,452.82 86.98,452.69 87.41,452.27 C116.27,423.66 207.32,330.94 227.37,309.85 C223.65,313.96 218.05,319.89 211.24,326.95 L 211.24 326.96 C206.21,332.15 200.49,338.00 194.39,344.21 C193.64,344.97 192.88,345.73 192.12,346.50 C185.54,353.15 179.54,359.22 174.15,364.69 ZM 394.11 416.63 C426.69,449.03 427.62,449.38 428.14,446.93 C428.56,444.91 431.52,441.17 436.88,435.88 C441.34,431.48 445.44,428.16 445.99,428.50 C446.55,428.84 447.00,428.59 447.00,427.94 C447.00,427.06 447.38,427.07 448.50,428.00 C449.33,428.68 450.00,428.89 450.00,428.45 C450.00,428.01 423.05,400.62 390.11,367.58 L 387.17 364.63 C391.64,369.09 396.44,373.89 401.62,379.06 C440.42,417.77 472.56,450.17 473.04,451.08 C473.76,452.41 473.46,452.67 471.46,452.45 C470.11,452.30 469.00,452.63 469.00,453.19 C469.00,454.50 455.39,468.00 454.07,468.00 C452.31,468.00 450.97,471.57 452.25,472.85 C452.88,473.48 452.99,474.00 452.49,474.00 C452.06,474.00 426.88,449.24 394.11,416.63 ZM 250.28 227.19 C250.17,227.09 250.06,226.98 249.95,226.88 C239.53,217.15 216.98,195.18 192.22,170.58 C159.80,138.36 133.02,112.00 132.71,112.00 C132.39,112.00 132.54,113.39 133.03,115.10 C133.80,117.80 133.57,118.49 131.21,120.50 C129.72,121.77 125.48,125.80 121.78,129.45 C115.65,135.52 114.86,136.00 112.78,134.94 C111.53,134.31 137.60,160.95 170.71,194.14 C219.84,243.40 229.09,252.79 232.64,258.67 C232.71,258.80 232.79,258.93 232.86,259.06 C229.31,253.00 219.50,243.07 158.94,182.46 C111.42,134.91 87.61,110.43 88.90,110.43 C89.97,110.43 90.58,110.89 90.25,111.46 C89.92,112.03 93.55,108.71 98.31,104.07 C103.07,99.43 107.34,95.38 107.80,95.07 C109.41,93.98 110.03,90.74 108.89,89.37 C108.27,88.62 108.10,88.00 108.53,88.00 C108.95,88.00 141.17,119.73 180.13,158.51 C211.01,189.25 238.79,216.42 250.28,227.19 ZM 429.67 152.88 C443.50,138.82 452.94,129.00 452.57,129.00 C452.07,129.00 450.95,129.63 450.08,130.41 C446.25,133.82 443.79,132.82 435.07,124.31 C429.87,119.23 426.93,115.63 427.27,114.74 C428.77,110.83 426.42,111.99 412.90,125.00 C435.28,102.68 450.49,87.60 450.57,87.68 C450.57,87.68 450.56,87.69 450.55,87.71 C448.78,89.90 448.83,89.99 456.63,97.42 C460.96,101.54 465.26,104.94 466.19,104.96 C467.12,104.98 468.52,105.91 469.30,107.02 C470.26,108.39 471.33,108.83 472.61,108.39 C473.57,108.06 454.72,127.58 429.67,152.88 ZM 214.31 369.65 C239.08,344.81 249.54,334.70 254.75,330.59 C255.20,330.25 255.62,329.95 256.01,329.68 C256.97,329.10 257.96,328.55 258.95,328.04 C251.94,332.32 241.02,342.83 208.71,375.32 C209.12,374.89 209.54,374.47 209.96,374.04 C211.46,372.53 212.91,371.07 214.31,369.65 ZM 301.78 327.92 C302.97,328.53 304.13,329.20 305.29,329.93 C309.35,332.95 317.24,340.31 334.39,357.21 C315.30,338.43 307.33,331.26 301.78,327.92 ZM 88.37 256.84 C101.03,269.58 110.99,279.98 111.00,280.50 C110.98,280.08 101.67,270.37 88.37,256.84 ZM 155.43 280.94 L 150.82 276.33 L 150.49 275.99 C150.13,275.63 149.77,275.27 149.42,274.92 L 136.55 262.06 L 136.49 261.99 L 135.80 261.30 L 155.50 280.87 ZM 333.03 204.49 C317.73,219.58 306.78,230.13 304.80,231.61 C304.72,231.66 304.65,231.71 304.57,231.76 C304.61,231.73 304.64,231.71 304.67,231.69 C306.13,230.70 317.03,220.21 333.03,204.49 ZM 327.20 301.27 C327.12,301.15 327.05,301.04 326.97,300.92 C323.65,294.15 321.99,286.60 322.21,278.91 C322.02,286.57 323.69,294.31 327.20,301.27 ZM 274.97 323.31 C276.77,323.12 278.62,323.02 280.50,323.02 C282.61,323.02 284.65,323.14 286.63,323.37 C282.92,323.00 278.74,322.98 274.97,323.31 ZM 367.25 215.87 C367.68,215.44 368.10,215.00 368.53,214.56 C371.72,211.33 375.16,207.85 378.87,204.10 C374.65,208.36 370.79,212.28 367.25,215.87 ZM 269.39 237.67 C271.83,238.23 274.33,238.59 276.83,238.76 C274.73,238.62 272.63,238.34 270.57,237.93 C270.17,237.85 269.78,237.76 269.39,237.67 ZM 271.40 102.91 L 265.17 96.67 L 271.59 103.09 C271.52,103.03 271.46,102.97 271.40,102.91 ZM 237.31 272.33 C236.96,270.20 236.48,268.11 235.85,266.11 C236.48,268.11 236.96,270.19 237.31,272.31 ZM 233.68 301.37 C233.75,301.22 233.83,301.06 233.90,300.90 C233.84,301.04 233.77,301.19 233.70,301.33 ZM 232.22 304.12 C232.24,304.08 232.27,304.04 232.29,304.00 C232.27,304.04 232.25,304.08 232.22,304.12 Z" fill="rgb(177,88,150)"/>
<path d="M 129.00 307.50 L 139.33 297.16 L 141.37 295.12 L 89.48 347.22 C53.19,383.66 23.27,413.59 22.99,413.74 C22.71,413.89 17.53,409.05 11.50,403.00 L 0.52 391.99 L 55.76 336.74 C86.03,306.47 110.81,281.23 111.00,280.49 C111.00,280.49 111.00,280.50 111.00,280.50 L 111.00 280.50 C110.98,281.06 94.00,298.49 73.25,319.25 C52.50,340.01 36.05,357.00 36.72,357.00 C37.38,357.00 38.42,358.91 39.02,361.25 C40.22,365.89 43.33,374.48 45.80,380.00 C47.44,383.65 47.67,384.33 47.88,386.04 C47.96,386.72 48.59,386.74 49.75,386.10 C50.71,385.56 74.90,361.66 103.50,332.99 L 106.13 330.36 C108.68,327.81 111.32,325.19 114.00,322.50 L 126.27 310.23 L 126.27 310.23 C127.17,309.33 128.08,308.42 129.00,307.50 ZM 404.26 550.24 C398.36,556.16 393.19,561.00 392.77,561.00 C392.36,561.00 366.79,535.94 335.95,505.31 L 279.91 449.64 L 279.98 449.58 L 319.33 488.78 C340.98,510.35 359.06,528.00 359.51,528.00 C359.95,528.00 359.50,527.10 358.50,526.00 C357.09,524.45 357.00,523.97 358.10,523.88 C360.54,523.68 361.44,523.45 364.00,522.31 C365.38,521.71 368.52,520.63 371.00,519.93 C373.48,519.23 376.62,518.09 378.00,517.40 C383.42,514.68 386.75,514.10 388.67,515.55 C395.75,520.92 387.08,511.67 348.12,472.62 L 414.99 539.48 ZM 449.76 280.14 C452.80,276.84 469.34,260.11 489.01,240.44 C516.25,213.20 527.79,201.04 526.22,201.23 C523.65,201.53 521.80,198.65 518.03,188.50 C516.80,185.20 515.23,181.22 514.53,179.66 C513.68,177.77 513.53,175.61 514.06,173.25 C514.54,171.12 511.29,173.72 493.95,190.99 C518.13,166.71 537.96,147.00 538.43,147.00 C539.80,147.00 560.00,167.16 560.00,168.53 C560.00,169.08 535.03,194.48 504.50,224.98 C477.09,252.37 454.15,275.49 449.76,280.14 ZM 273.63 105.12 L 272.50 104.00 C272.19,103.69 271.88,103.39 271.59,103.09 L 271.59 103.09 L 265.18 96.69 L 265.17 96.67 L 255.50 87.00 C254.61,86.11 253.72,85.23 252.85,84.36 L 241.00 72.50 C219.28,50.77 201.08,33.00 200.55,33.00 C200.03,33.00 200.14,33.54 200.80,34.20 C202.52,35.92 202.37,40.36 200.62,39.69 C199.87,39.40 197.96,39.83 196.37,40.66 C194.79,41.48 190.80,43.08 187.50,44.21 C184.20,45.34 180.93,46.71 180.24,47.26 C179.55,47.81 177.07,48.02 174.74,47.72 C171.67,47.32 171.23,47.62 192.41,68.76 L 146.85 23.68 L 157.66 12.84 C163.60,6.88 168.92,2.00 169.48,2.00 C170.04,2.00 195.25,26.75 225.50,57.00 ZM 392.49 0.00 L 392.54 0.00 L 413.47 21.00 L 399.45 35.25 C390.50,44.35 380.76,54.21 370.83,64.22 C380.20,54.65 386.00,48.59 386.00,48.32 C386.00,47.78 385.42,47.33 384.72,47.33 C384.02,47.33 379.91,45.91 375.60,44.17 C371.28,42.42 366.51,41.00 364.98,41.00 C363.34,41.00 361.96,40.33 361.58,39.36 C361.24,38.45 360.68,37.98 360.36,38.31 C360.03,38.64 359.07,38.21 358.22,37.37 C356.88,36.02 353.13,39.40 321.71,70.80 L 336.50 56.00 ZM 46.30 173.36 C46.05,173.62 46.37,174.82 47.02,176.03 C47.29,176.55 47.51,176.95 47.63,177.37 C48.01,178.81 47.17,180.57 43.32,188.62 L 43.14 189.00 C41.96,191.48 41.00,194.70 41.00,196.17 C41.00,197.63 40.52,198.99 39.94,199.19 C39.36,199.38 38.84,201.00 38.79,202.79 C38.70,205.96 38.65,206.00 36.60,204.31 C35.44,203.37 51.71,219.90 72.75,241.05 C73.08,241.38 73.40,241.71 73.73,242.04 C77.23,245.62 81.32,249.78 85.75,254.21 C86.63,255.10 87.51,255.98 88.37,256.84 C100.59,269.28 109.46,278.49 110.82,280.22 C108.52,277.40 84.74,253.23 55.99,224.50 L 0.98 169.53 L 11.43 159.08 L 21.88 148.64 L 66.69 192.75 C73.63,199.59 81.01,206.87 88.29,214.06 C86.91,212.72 85.63,211.49 84.46,210.37 C62.58,188.76 46.51,173.16 46.30,173.36 ZM 253.73 475.77 L 262.06 467.44 L 224.47 505.03 L 169.06 560.44 L 159.74 551.47 C154.62,546.54 149.84,541.65 149.12,540.62 C147.93,538.90 153.52,533.00 213.66,472.64 C223.04,463.21 232.01,454.22 240.16,446.07 C208.85,477.47 170.86,515.99 171.53,515.97 C172.06,515.95 173.37,515.28 174.43,514.47 C176.13,513.19 176.64,513.19 178.65,514.51 C179.90,515.33 181.75,516.00 182.74,516.00 C183.74,516.00 185.46,516.63 186.56,517.40 C187.66,518.17 190.48,519.32 192.83,519.95 C197.05,521.09 200.26,523.44 201.27,526.12 C201.59,527.00 215.99,513.33 240.87,488.53 C244.71,484.75 249.11,480.39 253.73,475.77 ZM 551.02 403.48 C545.25,409.27 540.30,413.98 540.02,413.95 C539.52,413.89 499.98,374.77 463.99,338.92 C492.11,366.74 514.50,388.92 514.50,388.94 C514.50,388.94 514.62,387.19 514.77,385.02 C514.92,382.84 516.86,377.41 519.07,372.97 C521.64,367.84 522.88,364.19 522.48,362.95 C522.01,361.46 522.52,360.75 524.66,359.94 L 527.15 358.99 C530.01,361.83 532.96,364.75 536.00,367.75 L 561.50 392.97 ZM 333.03 204.49 L 333.03 204.49 C317.03,220.21 306.12,230.70 304.67,231.69 C304.64,231.71 304.61,231.73 304.57,231.76 C304.54,231.78 304.51,231.79 304.49,231.81 C311.01,226.07 345.99,191.64 386.22,151.35 L 464.93 72.50 L 487.49 95.00 L 429.97 152.75 C400.77,182.07 380.02,202.94 365.19,217.99 C365.87,217.29 366.56,216.58 367.25,215.87 C370.79,212.28 374.65,208.37 378.86,204.12 L 378.87 204.10 L 378.87 204.10 C388.35,194.53 399.60,183.20 412.97,169.75 C418.95,163.74 424.60,158.03 429.67,152.88 C454.72,127.58 473.57,108.06 472.61,108.39 C471.33,108.83 470.26,108.39 469.30,107.02 C468.52,105.91 467.12,104.98 466.19,104.96 C465.26,104.94 460.96,101.54 456.63,97.42 C448.83,89.99 448.78,89.90 450.55,87.71 C450.56,87.69 450.57,87.68 450.57,87.68 C450.49,87.60 435.28,102.68 412.90,125.00 C403.76,133.80 389.52,148.00 367.93,169.70 C355.28,182.42 343.20,194.46 333.03,204.49 ZM 233.41 260.06 C233.48,260.19 233.54,260.31 233.60,260.44 C230.51,254.21 223.88,247.45 152.22,175.75 L 73.51 97.00 L 84.71 85.80 L 95.91 74.60 L 173.39 151.78 C207.72,185.98 238.44,216.07 250.46,227.35 L 250.28 227.19 C238.79,216.42 211.01,189.25 180.13,158.51 C141.17,119.73 108.95,88.00 108.53,88.00 C108.10,88.00 108.27,88.62 108.89,89.37 C110.03,90.74 109.41,93.98 107.80,95.07 C107.34,95.38 103.07,99.43 98.31,104.07 C93.55,108.71 89.92,112.03 90.25,111.46 C90.58,110.89 89.97,110.43 88.90,110.43 C87.61,110.43 111.42,134.91 158.94,182.46 C219.50,243.07 229.31,253.00 232.86,259.06 C233.05,259.40 233.24,259.73 233.41,260.06 ZM 394.11 416.63 L 394.14 416.65 C426.89,449.25 452.06,474.00 452.49,474.00 C452.99,474.00 452.88,473.48 452.25,472.85 C450.97,471.57 452.31,468.00 454.07,468.00 C455.39,468.00 469.00,454.50 469.00,453.19 C469.00,452.63 470.11,452.30 471.46,452.45 C473.46,452.67 473.76,452.41 473.04,451.08 C472.56,450.17 440.42,417.77 401.62,379.06 C396.44,373.89 391.64,369.09 387.17,364.63 L 384.07 361.52 C391.51,368.96 399.96,377.39 409.55,386.96 C452.70,429.98 488.00,465.49 488.00,465.86 C488.00,466.23 483.05,471.47 477.01,477.49 L 466.01 488.46 L 387.26 409.83 C349.30,371.94 328.44,351.28 316.76,340.21 C321.32,344.45 327.03,349.96 334.39,357.21 C343.02,365.70 353.99,376.61 368.00,390.59 C378.42,400.99 387.02,409.57 394.11,416.63 ZM 141.24 443.14 L 96.50 488.16 L 85.32 476.83 L 74.14 465.50 L 147.97 391.18 C123.36,416.18 99.72,440.06 87.41,452.27 C86.98,452.69 88.29,452.82 90.32,452.56 C93.02,452.22 94.00,452.46 94.00,453.48 C94.00,454.24 96.26,457.01 99.03,459.63 C101.80,462.24 104.32,465.43 104.64,466.69 C104.98,468.04 105.97,469.00 107.03,469.00 C109.23,469.00 110.04,470.90 108.83,473.25 C108.29,474.31 108.30,475.00 108.86,475.00 C109.18,475.00 122.04,462.32 141.24,443.14 ZM 511.08 343.10 C500.40,332.67 486.56,318.93 474.69,306.99 C484.03,316.29 496.08,328.25 511.08,343.10 ZM 244.60 339.89 C237.13,347.01 225.74,358.27 208.11,375.91 L 208.71 375.32 C225.79,358.14 236.90,347.11 244.60,339.89 ZM 116.13 241.63 C123.35,248.80 129.42,254.85 133.48,258.92 L 141.05 266.52 L 135.80 261.30 ZM 233.68 301.37 C233.26,302.24 232.80,303.10 232.30,303.98 L 232.29 304.00 C232.27,304.04 232.24,304.08 232.22,304.12 C232.17,304.20 232.11,304.29 232.04,304.40 C231.79,304.75 231.41,305.23 230.90,305.83 C230.92,305.81 230.93,305.80 230.94,305.78 C232.84,302.94 234.32,300.08 235.41,297.08 C234.97,298.39 234.46,299.67 233.90,300.90 C233.83,301.06 233.75,301.22 233.68,301.37 ZM 274.23 412.11 C278.06,408.33 280.25,406.20 280.37,406.14 C280.39,406.14 280.44,406.17 280.53,406.23 C280.52,406.23 280.51,406.23 280.50,406.23 C280.45,406.25 280.28,406.38 280.01,406.61 L 279.96 406.56 L 279.23 407.31 C278.15,408.31 276.44,409.96 274.23,412.11 ZM 269.39 237.67 C268.54,237.47 267.71,237.25 266.88,237.01 C270.88,238.16 275.06,238.77 279.24,238.85 C278.57,238.84 277.90,238.82 277.22,238.79 C277.09,238.78 276.96,238.77 276.83,238.76 L 276.83 238.76 C274.33,238.59 271.83,238.23 269.39,237.67 ZM 327.20 301.27 C324.60,296.12 323.01,290.54 322.44,284.88 C323.01,290.53 324.60,296.11 327.20,301.28 ZM 406.01 280.57 C406.02,280.58 406.02,280.58 406.02,280.58 C406.02,280.60 406.01,280.61 406.01,280.62 C406.00,280.62 406.00,280.61 406.00,280.61 C406.00,280.60 406.00,280.59 406.01,280.57 Z" fill="rgb(217,97,145)"/>
<path d="M 0.00 281.00 L 0.00 0.00 L 196.25 0.00 L 392.49 0.00 L 336.50 56.00 L 280.51 112.00 L 225.50 57.00 C195.25,26.75 170.04,2.00 169.48,2.00 C168.92,2.00 163.60,6.88 157.66,12.84 L 146.85 23.68 L 212.96 89.09 C249.32,125.07 279.41,154.62 279.82,154.76 C280.44,154.98 351.35,84.14 399.45,35.25 L 413.47 21.00 L 403.00 10.50 L 392.54 0.00 L 1129.77 0.00 L 1867.00 0.00 L 1867.00 85.50 L 1867.00 171.00 L 1790.00 171.00 L 1713.00 171.00 L 1713.00 188.50 L 1713.00 206.00 L 1741.50 206.00 L 1770.00 206.00 L 1770.00 299.02 L 1770.00 392.04 L 1790.25 391.77 L 1810.50 391.50 L 1810.76 298.78 L 1811.01 206.06 L 1839.01 205.78 L 1867.00 205.50 L 1867.00 383.75 L 1867.00 562.00 L 933.50 562.00 L 0.00 562.00 L 0.00 281.00 ZM 404.26 550.24 L 414.99 539.48 L 348.12 472.62 C311.34,435.84 280.85,405.93 280.37,406.14 C279.89,406.36 249.87,436.28 213.66,472.64 C153.52,533.00 147.93,538.90 149.12,540.62 C149.84,541.65 154.62,546.54 159.74,551.47 L 169.06 560.44 L 224.47 505.03 L 279.89 449.62 L 335.95 505.31 C366.79,535.94 392.36,561.00 392.77,561.00 C393.19,561.00 398.36,556.16 404.26,550.24 ZM 1153.00 420.26 C1153.00,397.02 1153.24,378.00 1153.54,378.00 C1153.84,378.00 1156.43,379.75 1159.29,381.89 C1171.95,391.35 1184.65,395.28 1202.50,395.28 C1217.06,395.28 1226.24,393.12 1239.63,386.52 C1254.65,379.13 1268.92,364.27 1276.01,348.63 C1282.12,335.17 1283.49,328.11 1283.41,310.50 C1283.35,296.05 1283.08,293.63 1280.61,285.50 C1272.18,257.70 1253.18,238.33 1226.00,229.84 C1219.42,227.79 1216.53,227.50 1202.50,227.53 C1187.60,227.56 1185.95,227.75 1178.50,230.35 C1168.71,233.77 1162.00,237.74 1155.75,243.81 L 1151.00 248.42 L 1151.00 239.21 L 1151.00 230.00 L 1132.50 230.00 L 1114.00 230.00 L 1114.00 365.74 L 1114.00 501.48 L 1133.50 482.00 L 1153.00 462.52 L 1153.00 420.26 ZM 258.00 328.44 C272.74,321.10 288.31,321.10 303.00,328.45 C307.52,330.71 322.56,345.23 387.26,409.83 L 466.01 488.46 L 477.01 477.49 C483.05,471.47 488.00,466.23 488.00,465.86 C488.00,465.49 452.70,429.98 409.55,386.96 C339.73,317.34 330.72,308.00 327.58,302.01 C320.78,289.08 320.40,273.40 326.56,260.50 C329.87,253.57 338.16,244.93 429.97,152.75 L 487.49 95.00 L 476.21 83.75 L 464.93 72.50 L 386.22 151.35 C342.92,194.72 305.70,231.29 303.50,232.62 C289.35,241.16 269.70,240.91 255.68,232.01 C253.03,230.33 216.00,194.23 173.39,151.78 L 95.91 74.60 L 84.71 85.80 L 73.51 97.00 L 152.22 175.75 C227.92,251.49 231.05,254.77 234.10,261.50 C236.71,267.25 237.37,270.16 237.78,277.79 C238.40,289.35 236.37,297.64 230.94,305.78 C228.74,309.07 194.61,344.22 150.63,388.50 L 74.14 465.50 L 85.32 476.83 L 96.50 488.16 L 174.50 409.67 C239.25,344.51 253.43,330.71 258.00,328.44 ZM 89.48 347.22 L 155.46 280.98 L 133.48 258.92 C121.39,246.79 91.33,217.01 66.69,192.75 L 21.88 148.64 L 11.43 159.08 L 0.98 169.53 L 55.99 224.50 C86.25,254.74 111.00,279.93 111.00,280.48 C111.00,281.04 86.14,306.35 55.76,336.74 L 0.52 391.99 L 11.50 403.00 C17.53,409.05 22.71,413.89 22.99,413.74 C23.27,413.59 53.19,383.66 89.48,347.22 ZM 551.02 403.48 L 561.50 392.97 L 536.00 367.75 C474.82,307.25 449.00,281.51 449.00,280.99 C449.00,280.69 473.98,255.48 504.50,224.98 C535.03,194.48 560.00,169.08 560.00,168.53 C560.00,167.16 539.80,147.00 538.43,147.00 C537.20,147.00 406.00,279.36 406.00,280.61 C406.00,281.43 539.09,413.85 540.02,413.95 C540.30,413.98 545.25,409.27 551.02,403.48 ZM 761.50 394.89 C778.92,392.76 797.59,385.77 810.43,376.57 C817.43,371.56 828.38,360.46 832.51,354.19 L 835.35 349.87 L 820.94 335.44 C813.01,327.50 806.21,321.00 805.82,321.00 C805.43,321.00 803.63,323.81 801.82,327.25 C797.23,335.94 785.36,347.63 776.93,351.74 C767.03,356.57 758.97,358.39 747.50,358.36 C720.67,358.29 698.60,344.51 686.92,320.50 C680.83,308.00 678.72,298.05 678.62,281.50 C678.57,271.41 679.05,265.27 680.35,259.50 C682.66,249.23 690.56,232.98 696.52,226.24 C715.90,204.33 750.41,197.64 777.00,210.64 C786.47,215.27 796.96,225.57 802.04,235.22 L 805.58 241.95 L 820.39 227.11 L 835.20 212.28 L 833.68 209.39 C832.85,207.80 830.14,204.15 827.67,201.27 C816.97,188.82 802.91,179.16 787.61,173.74 C772.90,168.53 767.03,167.65 747.50,167.67 C731.42,167.69 728.48,167.97 719.93,170.25 C706.45,173.83 696.00,178.42 685.92,185.16 C660.29,202.30 643.20,230.50 638.91,262.71 C637.25,275.21 638.23,299.24 640.85,310.13 C651.78,355.60 685.98,387.32 731.74,394.44 C742.83,396.17 750.17,396.28 761.50,394.89 ZM 1396.14 393.09 C1423.36,386.13 1440.15,363.47 1436.06,339.21 C1432.53,318.19 1418.30,305.58 1388.50,297.04 C1368.02,291.17 1359.48,288.02 1355.79,284.98 C1346.72,277.50 1349.16,264.78 1360.50,260.45 C1366.71,258.08 1380.62,258.79 1387.42,261.84 C1394.56,265.03 1400.67,270.44 1404.20,276.71 L 1407.30 282.19 L 1419.26 270.23 C1429.61,259.88 1431.12,257.96 1430.49,255.97 C1430.09,254.70 1426.55,250.47 1422.63,246.56 C1414.99,238.96 1405.37,233.20 1394.58,229.79 C1385.81,227.01 1364.04,226.26 1354.04,228.39 C1336.70,232.08 1323.08,241.98 1316.21,255.89 C1312.54,263.31 1312.50,263.54 1312.52,275.45 C1312.55,290.58 1314.49,296.17 1322.83,305.20 C1332.91,316.10 1339.00,319.13 1366.89,327.13 C1387.35,333.00 1392.62,335.35 1395.84,340.07 C1397.76,342.88 1398.10,344.45 1397.75,348.79 C1397.50,351.98 1396.53,355.16 1395.31,356.79 C1392.24,360.89 1385.02,364.15 1377.65,364.74 C1362.37,365.97 1345.47,356.21 1336.39,340.92 C1334.80,338.23 1333.27,336.03 1332.98,336.02 C1332.70,336.01 1327.10,341.38 1320.54,347.96 C1306.69,361.85 1306.87,360.42 1317.50,371.87 C1336.17,391.98 1367.48,400.43 1396.14,393.09 ZM 902.03 339.50 C902.62,280.25 902.37,282.14 911.16,272.52 C917.62,265.45 923.83,263.00 935.29,263.00 C942.23,263.00 944.43,263.44 949.51,265.84 C956.20,269.01 961.23,274.11 964.39,280.95 C966.43,285.35 966.52,287.28 967.00,338.50 L 967.50 391.50 L 986.78 391.50 L 1006.06 391.50 L 1006.02 334.59 C1005.97,274.33 1005.79,271.67 1001.11,260.75 C994.34,244.97 979.36,232.64 962.00,228.56 C958.42,227.72 951.03,227.02 945.56,227.01 C928.71,226.99 917.10,231.01 907.33,240.25 L 902.00 245.29 L 902.00 206.65 C902.00,185.39 901.67,168.00 901.26,168.00 C900.85,168.00 892.08,176.43 881.76,186.74 L 863.00 205.48 L 863.00 298.76 L 863.00 392.04 L 882.25 391.77 L 901.50 391.50 L 902.03 339.50 ZM 1078.00 311.00 L 1078.00 230.00 L 1058.50 230.00 L 1039.00 230.00 L 1039.00 311.00 L 1039.00 392.00 L 1058.50 392.00 L 1078.00 392.00 L 1078.00 311.00 ZM 1688.76 282.50 C1688.90,222.55 1688.77,172.85 1688.46,172.05 C1688.09,171.07 1681.55,176.96 1667.96,190.54 L 1648.00 210.48 L 1648.00 301.26 L 1648.00 392.04 L 1668.25 391.77 L 1688.50 391.50 L 1688.76 282.50 ZM 1583.00 311.50 L 1600.48 294.00 L 1554.50 294.00 L 1508.52 294.00 L 1491.76 310.74 C1482.54,319.95 1475.00,327.82 1475.00,328.24 C1475.00,328.66 1495.37,329.00 1520.26,329.00 L 1565.52 329.00 L 1583.00 311.50 ZM 1077.77 191.25 L 1078.04 171.00 L 1058.52 171.00 L 1039.00 171.00 L 1039.00 191.52 L 1039.00 212.04 L 1058.25 211.77 L 1077.50 211.50 L 1077.77 191.25 ZM 1186.40 358.11 C1178.17,355.76 1172.47,352.25 1166.36,345.79 C1158.48,337.46 1154.68,328.61 1153.52,315.88 C1151.57,294.54 1161.43,275.33 1178.70,266.83 C1185.27,263.59 1185.81,263.50 1197.98,263.50 C1209.98,263.50 1210.78,263.63 1217.22,266.68 C1230.57,273.01 1239.19,284.66 1242.59,301.00 C1246.91,321.72 1237.15,344.78 1220.23,353.80 C1208.66,359.96 1197.73,361.36 1186.40,358.11 Z" fill="rgb(254,254,254)"/>
</g>
</svg>