<svg xmlns="http://www.w3.org/2000/svg" role="img" viewBox="-16.99 -16.99 883.48 173.48"><defs><clipPath id="a"><path d="M696.33333 529H3212.3333V142H696.33333z"/></clipPath></defs><g fill-opacity="1" fill-rule="nonzero" stroke="none" transform="translate(395.483 -44.79) translate(-395.483 44.877) scale(.26458)"><path fill="#179c7d" d="M0 523c123.66667-63.66667 305.33333-167 520.66667-317.66667v-50.66666C331.33333 278.66667 138.33333 378.33333 0 444.33333z"/><path fill="#179c7d" d="M0 372c138-56.33333 330.66667-143.33333 520.66667-256.33333v-25C342 179.33333 156.66667 235 0 269.33333z"/><path fill="#179c7d" d="M520.66667 523.33333V268.66667c-118.33334 100-236 186.66666-334.66667 254.66666z"/><path fill="#179c7d" d="M119.66667 523.33333C213.33333 467.66667 327 395 440 310.33333c26.66667-20 53.66667-40.33333 80.66667-61.33333v-31.66667C353.33333 343 182 447.66667 48.33333 523.33333z"/><path fill="#179c7d" d="M0 232.33333c152.33333-26.66666 338.66667-75 520.66667-161.33333V42.33333C337.33333 125 153.66667 159.66667 0 172.33333z"/><path fill="#179c7d" d="M0-.33333v146C11.33333 145 23 144 34.66667 143c126.66666-9.66667 299.66666-32 486-112.66667V-.33333z"/><path fill="#fff" d="M0 145.66667v26.66666c153.66667-12.66666 337.33333-47.33333 520.66667-130v-12C334.33333 111 161.33333 133.33333 34.66667 143 23 144 11.33333 145 0 145.66667z"/><path fill="#fff" d="M0 269.33333c156.66667-34.33333 342-90 520.66667-178.66666V71C338.66667 157.33333 152.33333 205.66667 0 232.33333z"/><path fill="#fff" d="M0 444.33333c138.33333-66 331.33333-165.66666 520.66667-289.66666v-39C330.66667 228.66667 138 315.66667 0 372z"/><path fill="#fff" d="M119.66667 523.33333H186c98.66667-68 216.33333-154.66666 334.66667-254.66666V249c-27 21-54 41.33333-80.66667 61.33333-113 84.66667-226.66667 157.33334-320.33333 213z"/><path fill="#fff" d="M0 523.33333h48.33333c133.66667-75.66666 305-180.33333 472.33334-306v-12C305.33333 356 123.66667 459.33333 0 523z"/><path fill="#000" d="M3061 523h67v-94.66667c0-37 0-105 54.3333-105 12 0 24 2 30 5.66667v-67.66667c-7-2-14-2-20.3333-2-40 0-67.6667 40.66667-70.6667 64.66667h-1v-58.66667H3061zm-67-69c-25 14-53 26-85.6667 26C2867 480 2838 456.33333 2835 415h178c0-90-27-155.66667-122.6667-155.66667-80 0-119.3333 61.66667-119.3333 136C2771 480 2820.3333 529 2905.3333 529c36.3334 0 64-7 88.6667-20.66667zm-159-85c3-34.66667 22-60.66667 59.3333-60.66667 37.6667 0 52.6667 28 54.6667 60.66667zm-214 154h67V314.33333h58.3333v-49H2688v-32c0-20 7-39.33333 29.3333-39.33333 14.6667 0 23 5.33333 29 9L2752 147.33333c-13-3-32-5.33333-49-5.33333-53 0-82 36-82 87.33333v36h-49.6667v49H2621zm-266.6667-135c0-38.66667 21-76.66667 64.6667-76.66667 44 0 65 37 65 76.66667 0 43-13.6667 89-65 89-51 0-64.6667-46.66667-64.6667-89m-70 8c0 74 49.6667 133 134.6667 133 85.3333 0 135-59 135-133 0-85-58.6667-136.66667-135-136.66667-76 0-134.6667 51.66667-134.6667 136.66667m-279 127h67V397c0-33 10.6667-85.66667 59-85.66667 43 0 43.6667 42.66667 43.6667 74V523h67V360.33333c0-58-26.6667-101-87.6667-101-35 0-64 16-81 41h-1V148h-67zM1700 523h67V397c0-33 10.3333-85.66667 59-85.66667 42.6667 0 43.3333 42.66667 43.3333 74V523h67V360.33333c0-58-26.3333-101-87.3333-101-35 0-63.6667 11.66667-84.6667 41h-1v-35H1700zm-69-257.66667h-67.3333v126c0 33-10.3334 85.66667-59 85.66667-43 0-43.3334-42.66667-43.3334-74V265.33333h-67V428c0 58 26.3334 101 87.3334 101 35 0 64-16 84.6666-41h1v35H1631zm-457.3333 183C1173.6667 409 1218.3333 404 1248.3333 404h29c0 20-3 38.33333-14 53-10.6666 14-26.6666 23-47 23-24 0-42.6666-9.66667-42.6666-31.66667m-34-112c22.6666-17 51-28 79.6666-28 39.3334 0 58 14 58 55.66667h-37c-28 0-61 2.33333-86.6666 15-25.3334 12.33333-44 35-44 73.33333 0 49 44.6666 76.66667 90 76.66667 30.6666 0 64-16 79.6666-44.66667h1c.3334 8 .3334 25 3 38.66667h59c-1.6666-20-2.6666-38-3-57.66667-.6666-19-1-38.33333-1-64.33333v-33c0-76-32.6666-108.66667-111-108.66667-28.6666 0-63.6666 7.66667-89.6666 19.66667zM938.33333 523h66.99997v-94.66667c0-37 0-105 54.3334-105 12 0 24 2 30 5.66667v-67.66667c-7-2-14-2-20.3334-2-40 0-67.6666 40.66667-70.66663 64.66667h-1v-58.66667h-59.33334zm-242 0h70V370h118v-55h-118v-86h124v-55h-194z" clip-path="url(#a)"/></g></svg>