<?xml version="1.0" encoding="utf-8"?>
<!-- Generator: Adobe Illustrator 27.5.0, SVG Export Plug-In . SVG Version: 6.00 Build 0)  -->
<svg version="1.1" id="Capa_1" xmlns="http://www.w3.org/2000/svg" xmlns:xlink="http://www.w3.org/1999/xlink" x="0px" y="0px"
	 viewBox="0 0 841.89 297.64" style="enable-background:new 0 0 841.89 297.64;" xml:space="preserve">
<style type="text/css">
	.st0{fill:#EE7444;}
</style>
<path class="st0" d="M555.39,83.32c0-2.24,0.73-4.14,2.2-5.74c1.46-1.54,3.21-2.31,5.27-2.31h1.1c2.05,0,3.8,0.77,5.26,2.31
	c1.46,1.59,2.2,3.5,2.2,5.74c0,2.23-0.73,4.11-2.2,5.66c-1.46,1.59-3.22,2.39-5.26,2.39h-1.1c-2.05,0-3.8-0.8-5.27-2.39
	C556.12,87.43,555.39,85.55,555.39,83.32 M563.5,107.29c2.05,0,3.8,0.77,5.27,2.31c1.41,1.59,2.12,3.5,2.12,5.73v68.52
	c0,2.23-0.71,4.14-2.12,5.74c-1.46,1.6-3.22,2.39-5.27,2.39c-2.05,0-3.78-0.79-5.19-2.39c-1.46-1.59-2.19-3.51-2.19-5.74v-68.52
	c0-2.23,0.73-4.14,2.19-5.73C559.73,108.07,561.46,107.29,563.5,107.29"/>
<path class="st0" d="M631.71,107.94c2.36,0.37,4.23,1.48,5.62,3.34c1.38,1.86,1.84,3.88,1.38,6.06c-0.46,2.18-1.67,3.9-3.63,5.18
	c-2.02,1.27-4.21,1.7-6.57,1.27c-1.38-0.26-2.77-0.39-4.15-0.39c-6.97,0-12.93,2.58-17.89,7.73c-4.95,5.1-7.46,11.26-7.52,18.48
	v34.34c0,2.23-0.83,4.11-2.5,5.66c-1.73,1.6-3.8,2.39-6.22,2.39c-2.42,0-4.46-0.79-6.13-2.39c-1.73-1.54-2.59-3.42-2.59-5.66v-68.6
	c0-2.23,0.86-4.11,2.59-5.65c1.67-1.59,3.72-2.39,6.13-2.39c2.42,0,4.49,0.8,6.22,2.39c1.67,1.54,2.5,3.42,2.5,5.65v0.17
	c7.55-5.47,16.02-8.21,25.41-8.21C626.84,107.29,629.29,107.51,631.71,107.94"/>
<path class="st0" d="M721.67,108.01c2.19,0.91,3.71,2.42,4.58,4.54c0.81,2.07,0.72,4.11-0.26,6.13l-34.13,68.6
	c-1.56,3.13-4.21,4.7-7.95,4.7c-3.74,0-6.39-1.57-7.95-4.7l-34.13-68.6c-0.98-2.02-1.04-4.06-0.17-6.13
	c0.81-2.12,2.3-3.64,4.49-4.54c2.18-0.95,4.43-1.04,6.74-0.24c2.24,0.8,3.86,2.21,4.84,4.22l26.18,52.58L710.09,112
	c0.98-2.02,2.62-3.43,4.93-4.22C717.26,106.98,719.48,107.06,721.67,108.01"/>
<path d="M477.06,108.92c2,0.89,3.39,2.39,4.18,4.49c0.73,2.05,0.66,4.07-0.24,6.07l-31.13,67.86c-1.42,3.1-3.84,4.65-7.25,4.65
	c-3.41,0-5.83-1.55-7.25-4.65l-31.13-67.86c-0.89-2-0.95-4.02-0.16-6.07c0.73-2.1,2.1-3.6,4.1-4.49c1.99-0.95,4.04-1.03,6.15-0.24
	c2.05,0.79,3.52,2.18,4.41,4.18l23.88,52.01l23.88-52.01c0.89-1.99,2.39-3.39,4.49-4.18C473.04,107.89,475.06,107.97,477.06,108.92"
	/>
<path d="M528.99,108.21c11.51,0,21.36,4.07,29.55,12.21c8.2,8.2,12.3,18.08,12.3,29.63v33.89c0,2.21-0.79,4.1-2.37,5.68
	c-1.52,1.58-3.39,2.36-5.6,2.36c-2.21,0-4.1-0.79-5.67-2.36c-1.52-1.58-2.28-3.47-2.28-5.68v-33.89c0-7.14-2.55-13.24-7.64-18.28
	c-5.05-5.1-11.14-7.64-18.29-7.64c-7.2,0-13.32,2.55-18.36,7.64c-5.1,5.04-7.64,11.14-7.64,18.28c0,7.15,2.55,13.27,7.64,18.37
	c5.04,5.04,11.16,7.56,18.36,7.56c3.21-0.05,6.51-0.68,9.93-1.89c2.73-0.84,4.78-1.05,6.14-0.63c2.1,0.63,3.65,1.92,4.65,3.86
	c1.05,1.95,1.26,3.97,0.63,6.07c-0.63,2.1-1.92,3.68-3.86,4.73c-4.68,2.58-10.51,3.86-17.5,3.86c-11.56,0-21.44-4.1-29.63-12.3
	c-8.19-8.19-12.29-18.07-12.29-29.63c0-11.56,4.1-21.44,12.29-29.63C507.56,112.28,517.43,108.21,528.99,108.21"/>
<path d="M112.54,88.09c0-2.1,0.75-3.89,2.24-5.39c1.5-1.45,3.29-2.17,5.39-2.17h1.12c2.09,0,3.89,0.72,5.39,2.17
	c1.5,1.5,2.24,3.29,2.24,5.39c0,2.09-0.75,3.86-2.24,5.31c-1.5,1.5-3.29,2.24-5.39,2.24h-1.12c-2.1,0-3.89-0.75-5.39-2.24
	C113.29,91.95,112.54,90.18,112.54,88.09 M120.84,110.61c2.09,0,3.89,0.72,5.39,2.17c1.45,1.5,2.17,3.29,2.17,5.39v64.35
	c0,2.09-0.72,3.89-2.17,5.39c-1.5,1.5-3.29,2.24-5.39,2.24c-2.09,0-3.87-0.75-5.31-2.24c-1.5-1.5-2.24-3.29-2.24-5.39v-64.35
	c0-2.09,0.75-3.89,2.24-5.39C116.98,111.33,118.75,110.61,120.84,110.61"/>
<rect x="111.17" y="219.22" width="2.08" height="15.73"/>
<polygon points="120.26,234.95 120.26,219.22 122.39,219.22 130.65,231.57 130.65,219.22 132.65,219.22 132.65,234.95 
	130.51,234.95 122.25,222.59 122.25,234.95 "/>
<path d="M138.8,229.9l1.95-0.17c0.16,1.24,0.66,2.16,1.51,2.75c0.85,0.59,1.89,0.88,3.14,0.88c1.31,0,2.29-0.26,2.94-0.79
	c0.65-0.53,0.97-1.16,0.97-1.89c0-0.74-0.3-1.31-0.91-1.72c-0.6-0.4-1.9-0.83-3.9-1.29c-2.01-0.46-3.36-1.06-4.06-1.8
	c-0.7-0.74-1.05-1.59-1.05-2.57c0-1.42,0.54-2.49,1.62-3.23c1.08-0.74,2.38-1.11,3.92-1.11c1.94,0,3.4,0.44,4.38,1.33
	c0.97,0.89,1.49,2.01,1.53,3.36l-2,0.16c-0.21-2.01-1.49-3.02-3.82-3.02c-2.41,0-3.62,0.79-3.62,2.37c0,0.63,0.25,1.13,0.75,1.48
	c0.5,0.36,1.5,0.7,3,1.03c1.47,0.33,2.6,0.65,3.4,0.96c0.79,0.31,1.45,0.79,1.98,1.46c0.53,0.67,0.79,1.48,0.79,2.43
	c0,1.48-0.57,2.63-1.71,3.46c-1.15,0.83-2.51,1.24-4.1,1.24c-2.23,0-3.9-0.5-5-1.52C139.41,232.7,138.84,231.43,138.8,229.9"/>
<polygon points="161.51,234.95 161.51,221.08 156.33,221.08 156.33,219.22 168.8,219.22 168.8,221.08 163.59,221.08 163.59,234.95 
	"/>
<rect x="174.63" y="219.22" width="2.08" height="15.73"/>
<polygon points="187.75,234.95 187.75,221.08 182.57,221.08 182.57,219.22 195.03,219.22 195.03,221.08 189.83,221.08 
	189.83,234.95 "/>
<path d="M210.84,219.22h2.08v9.09c0,1.31-0.14,2.46-0.42,3.46c-0.28,1.01-0.9,1.83-1.86,2.48c-0.96,0.65-2.25,0.97-3.87,0.97
	c-2.21,0-3.8-0.54-4.77-1.62c-0.97-1.08-1.45-2.84-1.45-5.28v-9.09h2.08v9.08c0,1.04,0.08,1.91,0.25,2.62
	c0.16,0.71,0.56,1.29,1.18,1.74c0.63,0.45,1.47,0.67,2.53,0.67c1.5,0,2.58-0.35,3.25-1.04c0.67-0.69,1-2.02,1-4V219.22z"/>
<polygon points="223.74,234.95 223.74,221.08 218.56,221.08 218.56,219.22 231.02,219.22 231.02,221.08 225.82,221.08 
	225.82,234.95 "/>
<path d="M235.88,227.29c0-1.72,0.31-3.2,0.94-4.44c0.62-1.24,1.49-2.2,2.6-2.88c1.11-0.68,2.44-1.02,3.99-1.02
	c2.2,0,4,0.74,5.4,2.23c1.4,1.49,2.1,3.46,2.1,5.93c0,2.69-0.75,4.72-2.24,6.08c-1.49,1.36-3.25,2.04-5.28,2.04
	c-2.24,0-4.05-0.76-5.44-2.29C236.57,231.41,235.88,229.53,235.88,227.29 M238.02,227.32c0,1.8,0.48,3.26,1.45,4.4
	c0.97,1.14,2.27,1.71,3.91,1.71c1.8,0,3.14-0.62,4.04-1.85c0.9-1.23,1.35-2.73,1.35-4.49c0-2.1-0.52-3.68-1.55-4.75
	c-1.03-1.07-2.3-1.61-3.81-1.61c-1.88,0-3.25,0.63-4.11,1.88C238.45,223.87,238.02,225.44,238.02,227.32"/>
<path d="M267.85,234.95v-15.73h6.97c1.11,0,2.04,0.1,2.79,0.29c0.75,0.19,1.41,0.65,1.97,1.37c0.56,0.72,0.84,1.6,0.84,2.63
	c0,2.45-1.48,3.88-4.43,4.28c1.05,0.45,2.05,1.41,2.98,2.87l2.73,4.28h-2.62l-2.08-3.27c-0.77-1.22-1.37-2.06-1.8-2.53
	c-0.43-0.47-0.84-0.79-1.22-0.94c-0.38-0.16-0.93-0.23-1.64-0.23h-2.42v6.98H267.85z M269.93,226.17h4.48
	c2.58,0,3.87-0.88,3.87-2.65c0-1.7-1.12-2.55-3.37-2.55h-4.98V226.17z"/>
<rect x="287.39" y="219.22" width="2.08" height="15.73"/>
<path d="M307.72,229.44l2.08,0.53c-0.89,3.5-3.07,5.26-6.52,5.26c-2.54,0-4.4-0.8-5.6-2.39c-1.19-1.59-1.79-3.55-1.79-5.86
	c0-2.66,0.72-4.66,2.16-6c1.44-1.34,3.19-2.01,5.26-2.01c3.26,0,5.33,1.53,6.21,4.58l-2.05,0.48c-0.7-2.19-2.1-3.29-4.21-3.29
	c-1.86,0-3.2,0.59-4.01,1.78c-0.81,1.19-1.22,2.67-1.22,4.45c0,2.27,0.48,3.92,1.45,4.94c0.97,1.02,2.18,1.53,3.63,1.53
	C305.61,233.44,307.14,232.1,307.72,229.44"/>
<path d="M313.99,234.95l6.04-15.73h2.24l6.43,15.73h-2.37l-1.83-4.77h-6.58l-1.73,4.77H313.99z M318.53,228.49h5.34l-1.65-4.36
	c-0.5-1.32-0.87-2.41-1.11-3.26c-0.21,1.04-0.49,2.04-0.85,3L318.53,228.49z"/>
<path d="M333.76,234.95v-15.73h6.97c1.11,0,2.04,0.1,2.79,0.29c0.75,0.19,1.41,0.65,1.97,1.37c0.56,0.72,0.84,1.6,0.84,2.63
	c0,2.45-1.48,3.88-4.43,4.28c1.05,0.45,2.05,1.41,2.98,2.87l2.73,4.28H345l-2.08-3.27c-0.77-1.22-1.37-2.06-1.81-2.53
	c-0.43-0.47-0.84-0.79-1.22-0.94c-0.38-0.16-0.93-0.23-1.64-0.23h-2.42v6.98H333.76z M335.84,226.17h4.48
	c2.58,0,3.87-0.88,3.87-2.65c0-1.7-1.12-2.55-3.37-2.55h-4.98V226.17z"/>
<path d="M352.94,234.95v-15.73h5.42c1.6,0,2.9,0.2,3.91,0.6c1.01,0.4,1.87,1.21,2.59,2.44c0.72,1.23,1.08,2.81,1.08,4.74
	c0,2.39-0.57,4.31-1.7,5.77c-1.13,1.45-3.01,2.18-5.63,2.18H352.94z M355.03,233.09h3.36c1.29,0,2.31-0.18,3.06-0.55
	c0.74-0.37,1.32-1.02,1.74-1.97c0.42-0.95,0.62-2.15,0.62-3.61c0-1.45-0.22-2.63-0.65-3.54c-0.43-0.92-1.01-1.54-1.74-1.86
	c-0.73-0.32-1.76-0.48-3.08-0.48h-3.31V233.09z"/>
<path d="M371.53,227.29c0-1.72,0.31-3.2,0.94-4.44c0.62-1.24,1.49-2.2,2.6-2.88c1.11-0.68,2.44-1.02,3.99-1.02
	c2.2,0,4,0.74,5.4,2.23c1.4,1.49,2.1,3.46,2.1,5.93c0,2.69-0.74,4.72-2.24,6.08c-1.49,1.36-3.25,2.04-5.28,2.04
	c-2.24,0-4.05-0.76-5.44-2.29C372.23,231.41,371.53,229.53,371.53,227.29 M373.68,227.32c0,1.8,0.48,3.26,1.45,4.4
	c0.97,1.14,2.27,1.71,3.91,1.71c1.8,0,3.14-0.62,4.04-1.85c0.9-1.23,1.35-2.73,1.35-4.49c0-2.1-0.52-3.68-1.55-4.75
	c-1.03-1.07-2.3-1.61-3.81-1.61c-1.88,0-3.25,0.63-4.11,1.88C374.11,223.87,373.68,225.44,373.68,227.32"/>
<path d="M407.97,234.95l-6.09-15.73h2.25l4.09,11.43c0.34,0.97,0.62,1.82,0.83,2.57c0.22-0.78,0.51-1.64,0.85-2.57l4.25-11.43h2.12
	l-6.16,15.73H407.97z"/>
<path d="M419.75,234.95l6.04-15.73h2.24l6.43,15.73h-2.37l-1.83-4.77h-6.57l-1.73,4.77H419.75z M424.29,228.49h5.34l-1.65-4.36
	c-0.5-1.32-0.87-2.41-1.11-3.26c-0.21,1.04-0.49,2.04-0.85,3L424.29,228.49z"/>
<polygon points="439.41,234.95 439.41,219.22 441.49,219.22 441.49,233.09 449.23,233.09 449.23,234.95 "/>
<polygon points="454.98,234.95 454.98,219.22 457.06,219.22 457.06,233.09 464.81,233.09 464.81,234.95 "/>
<polygon points="470.68,234.95 470.68,219.22 482.06,219.22 482.06,221.08 472.76,221.08 472.76,225.9 481.47,225.9 481.47,227.74 
	472.76,227.74 472.76,233.09 482.43,233.09 482.43,234.95 "/>
<path d="M499.52,234.95v-15.73h5.42c1.6,0,2.9,0.2,3.91,0.6c1.01,0.4,1.87,1.21,2.59,2.44c0.72,1.23,1.08,2.81,1.08,4.74
	c0,2.39-0.57,4.31-1.7,5.77c-1.13,1.45-3.01,2.18-5.63,2.18H499.52z M501.6,233.09h3.36c1.29,0,2.31-0.18,3.06-0.55
	c0.74-0.37,1.32-1.02,1.74-1.97c0.41-0.95,0.62-2.15,0.62-3.61c0-1.45-0.22-2.63-0.65-3.54c-0.43-0.92-1.01-1.54-1.74-1.86
	c-0.73-0.32-1.76-0.48-3.08-0.48h-3.31V233.09z"/>
<polygon points="518.78,234.95 518.78,219.22 530.15,219.22 530.15,221.08 520.86,221.08 520.86,225.9 529.56,225.9 529.56,227.74 
	520.86,227.74 520.86,233.09 530.52,233.09 530.52,234.95 "/>
<rect x="547.97" y="219.22" width="2.08" height="15.73"/>
<polygon points="557.05,234.95 557.05,219.22 559.19,219.22 567.45,231.57 567.45,219.22 569.45,219.22 569.45,234.95 
	567.31,234.95 559.05,222.59 559.05,234.95 "/>
<polygon points="576.27,234.95 576.27,219.22 578.41,219.22 586.67,231.57 586.67,219.22 588.67,219.22 588.67,234.95 
	586.53,234.95 578.27,222.59 578.27,234.95 "/>
<path d="M594.89,227.29c0-1.72,0.31-3.2,0.94-4.44c0.62-1.24,1.49-2.2,2.6-2.88c1.11-0.68,2.44-1.02,3.99-1.02
	c2.2,0,4,0.74,5.4,2.23c1.4,1.49,2.1,3.46,2.1,5.93c0,2.69-0.75,4.72-2.24,6.08c-1.49,1.36-3.25,2.04-5.28,2.04
	c-2.24,0-4.05-0.76-5.44-2.29C595.58,231.41,594.89,229.53,594.89,227.29 M597.03,227.32c0,1.8,0.48,3.26,1.45,4.4
	c0.97,1.14,2.27,1.71,3.91,1.71c1.8,0,3.14-0.62,4.04-1.85c0.9-1.23,1.35-2.73,1.35-4.49c0-2.1-0.52-3.68-1.55-4.75
	c-1.03-1.07-2.3-1.61-3.81-1.61c-1.88,0-3.25,0.63-4.11,1.88C597.46,223.87,597.03,225.44,597.03,227.32"/>
<path d="M620.45,234.95l-6.09-15.73h2.25l4.09,11.43c0.34,0.97,0.62,1.82,0.83,2.57c0.22-0.78,0.51-1.64,0.85-2.57l4.25-11.43h2.12
	l-6.16,15.73H620.45z"/>
<path d="M632.24,234.95l6.04-15.73h2.24l6.43,15.73h-2.37l-1.83-4.77h-6.58l-1.73,4.77H632.24z M636.78,228.49h5.34l-1.65-4.36
	c-0.5-1.32-0.87-2.41-1.11-3.26c-0.21,1.04-0.49,2.04-0.85,3L636.78,228.49z"/>
<path d="M663.2,229.44l2.08,0.53c-0.89,3.5-3.07,5.26-6.52,5.26c-2.54,0-4.4-0.8-5.6-2.39c-1.19-1.59-1.79-3.55-1.79-5.86
	c0-2.66,0.72-4.66,2.16-6c1.44-1.34,3.19-2.01,5.26-2.01c3.26,0,5.33,1.53,6.21,4.58l-2.05,0.48c-0.7-2.19-2.1-3.29-4.21-3.29
	c-1.86,0-3.2,0.59-4.01,1.78c-0.81,1.19-1.22,2.67-1.22,4.45c0,2.27,0.48,3.92,1.45,4.94c0.96,1.02,2.17,1.53,3.63,1.53
	C661.09,233.44,662.62,232.1,663.2,229.44"/>
<rect x="671.55" y="219.22" width="2.08" height="15.73"/>
<path d="M680.02,227.29c0-1.72,0.31-3.2,0.94-4.44c0.63-1.24,1.49-2.2,2.6-2.88c1.11-0.68,2.44-1.02,3.99-1.02
	c2.2,0,4,0.74,5.4,2.23c1.4,1.49,2.1,3.46,2.1,5.93c0,2.69-0.75,4.72-2.24,6.08c-1.49,1.36-3.25,2.04-5.28,2.04
	c-2.24,0-4.05-0.76-5.44-2.29C680.72,231.41,680.02,229.53,680.02,227.29 M682.17,227.32c0,1.79,0.48,3.26,1.45,4.4
	c0.96,1.14,2.27,1.71,3.91,1.71c1.8,0,3.14-0.62,4.04-1.85c0.9-1.23,1.35-2.73,1.35-4.49c0-2.09-0.52-3.68-1.55-4.75
	c-1.03-1.07-2.3-1.61-3.81-1.61c-1.88,0-3.25,0.63-4.11,1.88C682.6,223.87,682.17,225.44,682.17,227.32 M686.41,217.73l1.44-3.01
	h2.52l-2.36,3.01H686.41z"/>
<polygon points="701.07,234.95 701.07,219.22 703.21,219.22 711.47,231.57 711.47,219.22 713.47,219.22 713.47,234.95 
	711.33,234.95 703.07,222.59 703.07,234.95 "/>
<path d="M360.59,125.04c-2.22,0.13-4.19-0.55-5.89-2.07c-1.67-1.55-2.58-3.48-2.71-5.77c-0.13-2.22,0.56-4.18,2.07-5.89
	c1.51-1.71,3.42-2.63,5.71-2.76c11.8-0.63,22.12,2.97,30.98,10.82c8.93,7.92,13.75,17.85,14.48,29.8
	c0.72,11.95-2.88,22.39-10.8,31.32c-7.92,8.93-17.85,13.76-29.8,14.48c-11.91,0.68-22.33-2.94-31.26-10.86
	c-8.81-7.81-13.63-17.59-14.45-29.34c-0.17-2.25,0.5-4.24,2.01-5.94c1.47-1.74,3.36-2.68,5.65-2.82c2.26-0.17,4.24,0.49,5.94,2.01
	c1.74,1.47,2.68,3.36,2.82,5.65c0.51,7.27,3.49,13.32,8.93,18.14c5.56,4.93,12.04,7.15,19.42,6.67c7.39-0.4,13.54-3.37,18.44-8.89
	c4.9-5.52,7.12-12,6.67-19.43c-0.44-7.35-3.44-13.49-9.01-18.43C374.3,126.87,367.91,124.64,360.59,125.04"/>
<path d="M328.61,135.27c0.86,1.73,2.16,2.87,3.92,3.43c0.48,0.15,0.93,0.34,1.39,0.52l0,0c5.7,2.35,9.48,6.29,11.43,11.68
	c0.58,1.64,1.76,2.83,3.53,3.56c1.8,0.69,3.66,0.71,5.59,0.06c1.86-0.63,3.26-1.77,4.19-3.42c0.93-1.65,1.09-3.31,0.49-5.01
	c-1.64-4.51-4.1-8.34-7.36-11.53c-3.98-4.4-8.94-7.58-14.91-9.5c-1.81-0.57-3.56-0.39-5.24,0.55c-1.68,0.94-2.81,2.32-3.37,4.16
	C327.68,131.68,327.79,133.51,328.61,135.27"/>
<path class="st0" d="M246.6,150.61v32.82c0,2.14-0.74,3.97-2.21,5.5c-1.52,1.53-3.36,2.29-5.49,2.29c-2.14,0-3.94-0.76-5.42-2.29
	c-1.53-1.53-2.29-3.36-2.29-5.5v-65.63c0-2.14,0.76-3.97,2.29-5.49c1.47-1.47,3.28-2.21,5.42-2.21c2.14,0,3.97,0.74,5.49,2.21
	c1.48,1.53,2.21,3.36,2.21,5.49v0.16"/>
<path d="M295.75,121.91c-6.54-6.99-14.29-10.87-23.24-11.66c-1.14-0.11-2.3-0.17-3.47-0.17c-10.43,0-19.33,3.94-26.71,11.83
	c-7.43,7.94-11.14,17.5-11.14,28.69v11.89c0,2.14,0.76,3.97,2.29,5.5c1.48,1.52,3.28,2.29,5.42,2.29h0h0c2.08,0,3.86-0.74,5.36-2.18
	c0.04-0.04,0.09-0.07,0.13-0.11c1.52-1.53,2.29-3.36,2.29-5.5v-11.89c0-6.92,2.19-12.82,6.56-17.7c4.38-4.93,9.64-7.4,15.8-7.4
	c1.09,0,2.15,0.1,3.18,0.26c0.22,0.03,0.44,0.06,0.65,0.1c1.01,0.18,1.99,0.43,2.94,0.77c0.13,0.05,0.26,0.11,0.39,0.16
	c0.86,0.32,1.69,0.71,2.5,1.16c0.18,0.1,0.36,0.18,0.54,0.29c0.84,0.49,1.65,1.06,2.45,1.69c1.09,0.87,2.15,1.85,3.15,2.98
	c4.37,4.88,6.56,10.79,6.56,17.7v32.82c0,2.14,0.76,3.97,2.29,5.5c1.53,1.52,3.36,2.29,5.5,2.29c2.14,0,3.94-0.76,5.42-2.29
	c1.52-1.53,2.29-3.36,2.29-5.5v-32.82C306.89,139.42,303.17,129.85,295.75,121.91"/>
<path class="st0" d="M160.1,150.93v32.82c0,2.14-0.74,3.97-2.21,5.5c-1.52,1.53-3.36,2.29-5.49,2.29c-2.14,0-3.94-0.76-5.42-2.29
	c-1.53-1.53-2.29-3.36-2.29-5.5v-65.63c0-2.14,0.76-3.97,2.29-5.49c1.47-1.47,3.28-2.21,5.42-2.21c2.14,0,3.97,0.74,5.49,2.21
	c1.48,1.53,2.21,3.36,2.21,5.49v0.16"/>
<path d="M209.24,122.24c-6.54-6.99-14.29-10.87-23.24-11.66c-1.14-0.11-2.3-0.17-3.47-0.17c-10.43,0-19.33,3.94-26.71,11.83
	c-7.43,7.94-11.14,17.5-11.14,28.69v11.89c0,2.14,0.76,3.97,2.29,5.5c1.48,1.52,3.28,2.29,5.42,2.29h0h0c2.08,0,3.86-0.74,5.36-2.18
	c0.04-0.04,0.09-0.07,0.13-0.11c1.53-1.53,2.29-3.36,2.29-5.5v-11.89c0-6.92,2.19-12.82,6.56-17.7c4.38-4.93,9.64-7.4,15.8-7.4
	c1.09,0,2.15,0.1,3.18,0.26c0.22,0.03,0.44,0.06,0.65,0.1c1.01,0.18,1.99,0.43,2.94,0.77c0.13,0.05,0.26,0.11,0.39,0.16
	c0.86,0.32,1.69,0.71,2.5,1.16c0.18,0.1,0.36,0.18,0.54,0.29c0.84,0.49,1.65,1.06,2.45,1.69c1.09,0.87,2.14,1.85,3.14,2.98
	c4.37,4.88,6.56,10.79,6.56,17.7v32.82c0,2.14,0.76,3.97,2.29,5.5c1.53,1.52,3.36,2.29,5.5,2.29c2.14,0,3.94-0.76,5.42-2.29
	c1.52-1.53,2.29-3.36,2.29-5.5v-32.82C220.39,139.74,216.67,130.18,209.24,122.24"/>
</svg>
