<?xml version="1.0" encoding="utf-8"?>
<!-- Generator: Adobe Illustrator 26.0.3, SVG Export Plug-In . SVG Version: 6.00 Build 0)  -->
<svg version="1.1" id="Ebene_1" xmlns="http://www.w3.org/2000/svg" xmlns:xlink="http://www.w3.org/1999/xlink" x="0px" y="0px"
	 viewBox="0 0 491.1 800" style="enable-background:new 0 0 491.1 800;" xml:space="preserve">
<style type="text/css">
	.st0{fill:#666666;}
	.st1{fill:#00774A;}
</style>
<g>
	<g>
		<polygon class="st0" points="91.6,599.1 91.6,639.8 156.1,639.8 156.1,693.6 91.6,693.6 91.6,789.3 32.7,789.3 32.7,545.4 
			162.7,545.4 162.7,599.1 		"/>
	</g>
	<g>
		<polygon class="st0" points="369.9,735.6 369.9,789.3 176.1,789.3 283.2,599.1 194.4,599.1 194.4,545.4 381.6,545.4 275.1,735.6 
					"/>
	</g>
	<g>
		<rect x="400.6" y="545.4" class="st0" width="58.8" height="244"/>
	</g>
</g>
<g>
	<path class="st1" d="M19.8,336.4L65,291.2h79.1l45.1,45.2v79l-45.1,45.1H65l-45.2-45.1V336.4z M65,336.4v79h79.1v-79H65z"/>
	<g>
		<polygon class="st1" points="198.3,282.3 19.8,282.3 65,237.2 153.2,237.2 		"/>
	</g>
	<g>
		<polygon class="st1" points="255,225.9 200.8,171.7 73.8,171.7 19.8,225.9 		"/>
	</g>
	<g>
		<polygon class="st1" points="19.8,160.5 319.9,160.8 253.7,95.5 83.3,95.5 		"/>
	</g>
	<g>
		<polygon class="st1" points="19.8,84.2 396.5,84.2 321.5,9.2 94,9.3 		"/>
	</g>
</g>
<g>
	<polygon class="st1" points="198.3,282.3 198.3,460.5 243.4,415.4 243.4,327.4 	"/>
	<polygon class="st1" points="255,225.9 309,279.8 309,406.6 255,460.5 	"/>
	<polygon class="st1" points="319.9,160.8 385.3,225.4 385.3,396.7 320.2,460.5 	"/>
	<polygon class="st1" points="396.5,84.2 471.6,159.2 471.6,385.3 396.6,460.5 	"/>
</g>
</svg>
