<svg xmlns="http://www.w3.org/2000/svg" role="img" viewBox="301.45 298.95 1744.60 974.60"><path fill="#fff" d="M0 0h2348.9v1572.09H0z"/><path fill="#e35530" d="M1407.94 1138.46c-7.14-12.65-18.57-18.97-34.28-18.97-22.24 0-37.34 14.28-37.34 46.11 0 28.36 12.65 46.11 37.34 46.11 13.26 0 30.6-7.75 32.24-26.32h-32.24v-28.16h62.84v81h-28.16v-13.06c-9.59 10.81-24.28 17.14-42.23 17.14-43.87 0-66.1-32.03-66.1-76.1s23.87-77.33 71.21-77.33c28.77 0 52.43 12.45 66.92 36.32l-30.2 13.26zm145.06 77.12c0 7.55.2 15.91 2.86 22.65h-29.38c-1.43-3.88-1.84-7.34-2.04-11.22h-.41c-5.3 8.57-21.22 14.08-32.64 14.08-20.61 0-36.32-11.63-36.32-32.24 0-26.12 20.81-35.3 55.7-40.19l11.63-1.63v-8.98c0-8.16-6.32-11.63-15.1-11.63-10.41 0-15.1 3.67-16.73 14.49h-30.6c1.02-31.22 29.99-34.07 44.68-34.07 29.58 0 48.35 6.94 48.35 31.42v57.33zm-30.6-30.2l-21.42 6.12c-7.96 2.24-15.3 5.3-15.3 14.08s6.94 12.24 14.89 12.24c12.45 0 21.83-8.37 21.83-24.89v-7.55zm59.99-67.94v-24.48h31.83v24.48h-31.83zm31.83 12.24v108.54h-31.83v-108.54h31.83zm98.95 32.03c-6.53-7.55-20-11.63-29.99-11.63-7.96 0-13.67 2.86-13.67 8.37 0 18.77 64.27 3.06 64.27 43.87 0 28.56-25.3 38.76-48.97 38.76s-37.13-6.73-53.05-21.42l19.79-17.14c9.79 9.59 19.59 15.3 34.28 15.3 5.51 0 17.34-1.22 17.34-11.02 0-16.93-64.27-3.47-64.27-42.03 0-27.34 23.87-37.95 45.91-37.95 16.93 0 33.26 5.92 47.95 15.71l-19.59 19.18zm43.05 76.51v-145.27h31.83v145.27h-31.83zm84.47-47.74c0 20.81 13.67 27.34 23.67 27.34 11.83 0 17.34-6.12 26.52-19.18l23.87 12.45c-11.22 20.4-28.16 29.99-52.64 29.99-33.66 0-53.25-23.26-53.25-53.86 0-38.56 20-60.39 53.25-60.39 39.58 0 53.25 30.2 53.25 63.66h-74.67zm42.85-19.59c-1.02-15.71-12.45-20.81-21.63-20.81s-19.99 6.53-21.63 20.81h43.25zm54.06-41.21h31.83v11.02c7.14-6.53 18.36-10.61 29.79-11.42l.2 28.16-3.47.41c-18.97 2.24-26.52 5.51-26.52 17.55v62.84h-31.83V1129.7z"/><path fill="#303030" d="M363.12 340.55H587.3v70.63H363.12zm1414.56 380.17h221.37v69.85h-221.37zm-92.87-380.17h330.23v70.63h-330.23zm0 185.52h125.69v148.35h78.84V526.07h125.69v-70.6h-330.22v70.6zm-1321.69-70.6v218.95h79.17V526.07h145v-70.6H363.12zm1414.68 595.41h221.68v-69.89h-143.39v-76.82h143.39v-69.8H1777.8v216.51zM858.71 554.7c44.36-18.12 68.21-58.66 68.21-101.59 0-55.33-43.88-112.56-118.28-112.56H641.7v333.87h78.22v-109.7h57.23l71.07 109.7h91.1L858.71 554.7zm-55.8-59.14h-82.99v-84.42h86.33c24.33 0 43.88 19.08 43.88 41.97s-19.08 42.45-47.22 42.45zm323.45-161.69c-102.07 0-176.95 74.88-176.95 173.61s74.88 173.61 176.95 173.61 176.95-74.88 176.95-173.61-74.88-173.61-176.95-173.61zm0 274.25c-58.66 0-96.82-43.4-96.82-100.64s38.16-100.64 96.82-100.64 96.82 43.88 96.82 100.64-38.16 100.64-96.82 100.64zm430.44-76.31l-150.25-191.26h-64.38v333.87h79.17V483.16l150.24 191.26h64.39V340.55h-79.17v191.26zM937.06 932.49c43.86-17.92 67.45-58.01 67.45-100.46 0-54.71-43.39-111.31-116.97-111.31H722.46v330.16h77.35V942.4h56.6l70.28 108.48h90.09l-79.71-118.39zm-50.55-58.48h-82.07v-83.48h85.37c24.05 0 43.39 18.87 43.39 41.5s-18.87 41.98-46.69 41.98zm376.6-153.29h-102.82l-122.16 330.16h80.65l23.11-63.2h139.61l23.11 63.2h80.66l-122.16-330.16zm-91.58 198.57l44.81-123.58 44.81 123.58h-89.62zm401.24-198.57h-152.35v330.16h152.35c94.33 0 156.12-69.33 156.12-165.08s-63.2-165.08-156.12-165.08zm-1.89 259.89h-73.11V791h73.11c44.34 0 78.77 35.37 78.77 93.39s-34.43 96.22-78.77 96.22zm-1056.7-50.48h86.78c-6.13 27.36-32.07 54.71-79.71 54.71-69.33 0-104.71-48.11-104.71-99.52s38.68-97.63 95.75-97.63c39.81 0 64.21 14.72 80.16 37.78h82.73c-.64-2.67-1.58-5.69-2.99-9.01-20.28-54.71-76.41-102.35-160.84-102.35-98.58 0-174.04 74.05-174.04 171.69s74.99 171.69 177.82 171.69 167.91-66.03 167.91-155.18v-39.15H514.19v66.98z"/></svg>