<svg xmlns="http://www.w3.org/2000/svg" role="img" viewBox="102.96 149.96 1042.08 552.08"><defs><style>.cls-3{fill:#6292cc}.cls-4{isolation:isolate}.cls-5{fill:#ce483a}</style></defs><g id="Layer_1" data-name="Layer 1"><g id="layer1"><g id="g2672"><g id="g2670"><path id="path2656" d="M151.0864 290.44942c0-65.95242 55.44103-119.65349 121.41729-119.65349 36.49192 0 62.44864 14.30121 82.01744 32.98812l-23.04878 23.04878c-14.01518-13.13329-32.98813-23.35865-58.94483-23.35865-48.14742 0-85.80727 38.80395-85.80727 86.97522 0 48.14741 37.63603 86.97522 85.80727 86.97522 31.22432 0 49.02931-12.56124 60.42263-23.93068 9.34345-9.34345 15.46914-22.76277 17.80501-41.13981H272.5037v-32.67827h110.02399c1.16793 5.83965 1.76381 12.84725 1.76381 20.4269 0 24.52656-6.72157 54.86899-28.31639 76.46382-21.02278 21.88087-47.8614 33.56018-83.47141 33.56018-65.95243-.02386-121.4173-53.72491-121.4173-119.67735z" class="cls-3"/><path id="path2658" d="M473.19738 256.00735c-42.61761 0-77.34572 32.39226-77.34572 77.03586 0 44.3576 34.72811 77.03585 77.34572 77.03585s77.34572-32.67829 77.34572-77.03588c-.02382-44.64361-34.75195-77.03586-77.34572-77.03586v.00004zm0 123.72931c-23.35865 0-43.47568-19.25897-43.47568-46.69345 0-27.72051 20.14087-46.69345 43.47568-46.69345 23.35865 0 43.4757 18.97294 43.4757 46.69345 0 27.43448-20.14087 46.69345-43.4757 46.69345z" class="cls-5"/><path id="path2660" fill="#eebf31" d="M641.90401 256.00735c-42.61762 0-77.34572 32.39226-77.34572 77.03586 0 44.3576 34.72813 77.03585 77.34572 77.03585s77.34572-32.67829 77.34572-77.03588c0-44.64361-34.72813-77.03586-77.34572-77.03586v.00004zm0 123.72931c-23.35865 0-43.4757-19.25897-43.4757-46.69345 0-27.72051 20.14087-46.69345 43.4757-46.69345s43.4757 18.97294 43.4757 46.69345c0 27.43448-20.11704 46.69345-43.4757 46.69345z"/><path id="path2662" d="M848.98554 260.67907v12.56122h-1.16791c-7.57963-9.05744-22.19071-17.20913-40.56775-17.20913-38.51794 0-73.84192 33.8462-73.84192 77.34573 0 43.18965 35.32398 76.74983 73.84192 76.74983 18.37704 0 32.98812-8.17551 40.56775-17.519h1.16791v11.08343c0 29.48432-15.75513 45.23949-41.13984 45.23949-20.71293 0-33.56015-14.87327-38.80395-27.43448l-29.48432 12.25137c8.46156 20.42692 30.93832 45.52554 68.28827 45.52554 39.68585 0 73.24607-23.35865 73.24607-80.25363v-138.3404l-32.10622.00002zm-38.80395 119.05759c-23.35862 0-42.90364-19.54498-42.90364-46.40744 0-27.14847 19.54502-46.97948 42.90364-46.97948 23.04882 0 41.13984 19.85485 41.13984 46.97948 0 26.86245-18.09102 46.40744-41.13984 46.40744z" class="cls-3"/><path id="rect2664" fill="#6bb05c" d="M904.45 178.948h33.846v226.46H904.45z"/><path id="path2666" d="M1031.11149 379.73666c-17.20913 0-29.48432-7.8895-37.35003-23.35865l103.0164-42.61762-3.5038-8.74757c-6.41172-17.20913-25.98052-49.02932-65.95246-49.02932-39.68585 0-72.67397 31.22431-72.67397 77.03586 0 43.18965 32.67825 77.03585 76.46378 77.03585 35.30015 0 55.75093-21.59482 64.21245-34.15607l-26.26653-17.519c-8.77139 12.89494-20.73679 21.35649-37.94592 21.35649l.00007.00004zm-2.64569-93.95896c13.41932 0 24.81261 6.72157 28.60242 16.35105l-68.88416 28.60242c-.85804-29.79419 23.07261-44.95348 40.28173-44.95348z" class="cls-5"/><path id="rect2668" fill="none" d="M149.442 170.605h948.456v310.074H149.442z"/></g></g></g></g><g id="svg8"><path id="rect223" fill="#d39329" d="M123.596 599.4h1002.212v82.751H123.67l-.074-82.751z"/><g id="text4737" class="cls-4"><path fill="#fff" d="M295.93848 663.07031v-44.70117h46.75928v5.27441h-37.58691v13.84375h32.52832v5.27539h-32.52832v20.30762h-9.17236zm82.78662-21.77148c0-7.41992 3.08887-13.22852 9.2666-17.42676 6.17773-4.19727 14.15234-6.2959 23.92383-6.2959 6.39844 0 12.16602.98633 17.30371 2.95703 5.1377 1.97266 9.05469 4.72168 11.74902 8.24902 2.69531 3.52637 4.04297 7.52637 4.04297 11.99805 0 4.5332-1.41895 8.58887-4.25586 12.16699-2.83594 3.57812-6.85547 6.28613-12.05566 8.12598-5.20117 1.83984-10.81152 2.75977-16.83203 2.75977-6.52441 0-12.35547-1.0166-17.49316-3.0498-5.1377-2.03223-9.03027-4.80664-11.67773-8.32422-2.64746-3.5166-3.97168-7.23633-3.97168-11.16016zm9.45605.0918c0 5.38672 2.24609 9.63086 6.7373 12.73047s10.125 4.64941 16.90234 4.64941c6.90234 0 12.58398-1.56445 17.04395-4.69531 4.45996-3.12988 6.69043-7.57227 6.69043-13.3252 0-3.63867-.9541-6.81543-2.86035-9.5293-1.90723-2.71289-4.69727-4.81738-8.36914-6.31152s-7.79297-2.24121-12.36328-2.24121c-6.49316 0-12.08008 1.43848-16.76074 4.31445-4.68066 2.87695-7.02051 7.67969-7.02051 14.4082zm141.03418-23.02149h9.17188v25.82617c0 4.49316-.78809 8.06055-2.36328 10.70312-1.57715 2.64258-4.4209 4.79199-8.53418 6.44922s-9.51172 2.48535-16.19336 2.48535c-6.49316 0-11.80469-.72266-15.93359-2.16504-4.12891-1.44336-7.07617-3.53223-8.84082-6.2666-1.76562-2.7334-2.64746-6.46875-2.64746-11.20605v-25.82617h9.17188v25.7959c0 3.88281.55957 6.74414 1.67871 8.58398 1.11816 1.83984 3.04102 3.25781 5.76758 4.25293 2.72656.99707 6.05957 1.49414 10 1.49414 6.74414 0 11.55176-.98535 14.41992-2.95703s4.30273-5.76367 4.30273-11.37402v-25.7959zm51.25098 44.70117v-44.70117h9.4082l36.40576 35.0957v-35.0957h8.79395v44.70117h-9.4082l-36.40576-35.12695v35.12695h-8.79395zm96.92334 0v-44.70117h23.87695c5.38965 0 9.50293.21289 12.33984.63965 3.9707.58984 7.35938 1.65723 10.16504 3.20215 3.65625 1.99219 6.38965 4.53809 8.20312 7.6377 1.81152 3.10059 2.71777 6.64258 2.71777 10.62695 0 3.39551-.61426 6.40332-1.84375 9.02539-1.22949 2.62305-2.80566 4.79297-4.72754 6.51074-1.92285 1.71777-4.02734 3.06934-6.31152 4.05469-2.28613.98633-5.04395 1.7334-8.27441 2.24121-3.23145.50879-6.94238.7627-11.13379.7627h-25.01172zm9.17283-5.27539h14.79787c4.57031 0 8.15625-.27441 10.75684-.82324 2.59961-.54883 4.67188-1.32129 6.2168-2.31738 2.1748-1.40234 3.86914-3.28809 5.08301-5.65625 1.21289-2.36816 1.82031-5.23926 1.82031-8.61426 0-4.6748-1.19043-8.26758-3.57031-10.77832s-5.27148-4.19336-8.67578-5.04688c-2.45801-.60938-6.41406-.91504-11.86719-.91504h-14.56154v34.15137zm89.21584 5.27539v-44.70117h9.17188v44.70117h-9.17188zm52.14941 0v-44.70117h9.4082l36.40527 35.0957v-35.0957h8.79395v44.70117h-9.4082l-36.40527-35.12695v35.12695h-8.79395zm129.35645-17.5332v-5.24414l29.36035-.03125v16.58789c-4.50781 2.31738-9.15723 4.06055-13.94727 5.22949-4.79199 1.16895-9.70898 1.75391-14.75195 1.75391-6.80762 0-12.99414-.94043-18.55664-2.82129-5.56348-1.87988-9.76367-4.59863-12.60059-8.15625-2.83594-3.55762-4.25488-7.53125-4.25488-11.92285 0-4.34961 1.41016-8.41016 4.23145-12.18164 2.82031-3.77051 6.87891-6.57031 12.1748-8.40039 5.29492-1.8291 11.39453-2.74414 18.29688-2.74414 5.01172 0 9.54199.52344 13.59277 1.57031 4.0498 1.04688 7.22559 2.50586 9.52734 4.37598 2.2998 1.87012 4.0498 4.30957 5.24805 7.31738l-8.27441 1.46387c-1.04004-2.27637-2.33301-4.06543-3.87695-5.36621-1.54492-1.30078-3.75098-2.34277-6.61914-3.12598-2.86816-.78223-6.05176-1.17383-9.5498-1.17383-4.19238 0-7.81738.41211-10.875 1.23535s-5.52441 1.90527-7.39941 3.24707-3.33301 2.81543-4.37305 4.42188c-1.76562 2.76465-2.64746 5.7627-2.64746 8.99512 0 3.98438 1.06348 7.31738 3.19141 10.00098s5.22461 4.67578 9.29004 5.97656c4.06641 1.30078 8.38477 1.95117 12.95508 1.95117 3.97168 0 7.84863-.49219 11.63086-1.47852 3.78223-.98535 6.64941-2.03809 8.60449-3.15625v-8.32422H957.2842z" class=""/></g></g></svg>