<?xml version="1.0" encoding="UTF-8"?><svg width="318px" height="159px" xmlns="http://www.w3.org/2000/svg" version="1.2" baseProfile="tiny" viewBox="0 0 318 159"><g fill="#fafafa"><rect x="195" y="48" width="43" height="1"/><rect width="1" height="1" x="238" y="48"/><rect x="246" y="48" width="10" height="1"/><rect x="256" y="48" width="1" height="1"/><rect height="1" x="278" y="48" width="11"/><rect width="1" height="1" x="289" y="48"/><rect y="58" width="1" height="1" x="194"/><rect height="1" x="245" y="85" width="1"/><rect x="257" y="86" width="1" height="1"/><rect x="289" y="89" width="1" height="1"/><rect x="246" y="92" width="1" height="1"/><rect width="1" height="1" x="262" y="93"/><rect x="267" y="94" width="2" height="1"/><rect y="94" width="1" height="1" x="269"/><rect x="286" y="97" width="1" height="1"/><rect x="253" y="101" width="1" height="1"/><rect x="222" y="103" width="1" height="1"/><rect x="262" y="104" width="1" height="1"/><rect width="1" height="1" x="273" y="104"/><rect x="221" y="106" width="1" height="1"/><rect x="227" y="106" width="1" height="1"/><rect x="244" y="113" width="1" height="1"/><rect x="274" y="113" width="1" height="1"/><rect x="290" y="113" width="1" height="4"/><rect width="2" height="1" x="259" y="117"/><rect x="261" y="117" width="1" height="1"/><rect x="290" y="117" width="1" height="1"/><rect height="1" x="255" y="118" width="1"/><rect x="264" y="119" width="1" height="1"/><rect x="218" y="123" width="1" height="1"/><rect height="1" x="227" y="123" width="1"/><rect x="244" y="123" width="1" height="8"/><rect width="1" height="1" x="284" y="124"/><rect x="219" y="125" width="1" height="1"/><rect height="1" x="220" y="126" width="1"/><rect x="252" y="126" width="1" height="1"/><rect height="1" x="252" y="127" width="1"/><rect x="274" y="127" width="1" height="1"/><rect x="213" y="128" width="1" height="1"/><rect width="1" height="1" x="290" y="129"/><rect y="130" width="1" height="1" x="215"/><rect width="1" height="2" x="290" y="130"/><rect x="244" y="131" width="1" height="1"/><rect x="254" y="131" width="1" height="1"/><rect x="229" y="132" width="1" height="1"/><rect x="290" y="132" width="1" height="1"/></g><g fill="#b1b1b1"><rect x="281" y="101" width="1" height="1"/><rect x="279" y="102" width="1" height="1"/><rect x="221" y="103" width="1" height="1"/><rect width="1" height="1" x="215" y="109"/><rect x="212" y="113" width="1" height="1"/><rect x="270" y="119" width="1" height="1"/><rect x="262" y="128" width="1" height="1"/><rect y="132" width="1" height="1" x="261"/></g><g fill="#fbd4dc"><rect x="36" y="104" width="1" height="27"/><rect x="36" y="131" width="1" height="1"/><rect x="37" y="132" width="54" height="1"/><rect x="91" y="132" width="1" height="1"/><rect y="132" width="1" height="1" x="313"/></g><g fill="#fac8d1"><rect x="104" y="19" width="55" height="1"/><rect x="159" y="19" width="1" height="1"/><rect x="294" y="132" width="1" height="1"/></g><g fill="#ef2f5e"><rect width="1" height="26" x="159" y="21"/><rect height="1" x="159" y="47" width="1"/><rect x="70" y="76" width="1" height="1"/><rect x="10" y="103" width="26" height="1"/><rect x="36" y="103" width="1" height="1"/><rect width="31" height="1" x="93" y="103"/><rect x="124" y="103" width="1" height="1"/><rect height="1" x="133" y="103" width="52"/><rect x="185" y="103" width="1" height="1"/><rect x="295" y="113" width="1" height="1"/></g><g fill="#5f5f5f"><rect x="278" y="86" width="1" height="1"/><rect x="277" y="90" width="1" height="1"/><rect width="1" height="1" x="288" y="91"/><rect width="1" height="1" x="286" y="96"/><rect x="260" y="103" width="1" height="1"/><rect y="117" width="1" height="1" x="217"/><rect x="261" y="120" width="3" height="1"/><rect x="264" y="120" width="1" height="1"/><rect x="281" y="120" width="1" height="1"/><rect x="222" y="132" width="1" height="1"/><rect x="225" y="132" width="1" height="1"/></g><g fill="#f25e7e"><rect x="294" y="113" width="1" height="17"/><rect x="294" y="130" width="1" height="1"/><rect x="92" y="131" width="1" height="1"/></g><g fill="#f58ca2"><rect x="8" y="48" width="1" height="1"/><rect x="313" y="114" width="1" height="17"/><rect x="313" y="131" width="1" height="1"/></g><g fill="#c9c9c9"><rect x="245" y="49" width="1" height="30"/><rect y="50" width="1" height="6" x="194"/><rect width="1" height="1" x="194" y="56"/><rect x="222" y="58" width="1" height="1"/><rect x="245" y="79" width="1" height="1"/><rect x="289" y="87" width="1" height="1"/><rect height="1" x="246" y="91" width="1"/><rect x="275" y="92" width="1" height="1"/><rect x="252" y="100" width="1" height="1"/><rect x="266" y="104" width="1" height="1"/><rect width="1" height="1" x="244" y="121"/><rect x="228" y="132" width="1" height="1"/></g><g fill="#fef3f5"><rect height="26" x="126" y="77" width="1"/><rect x="126" y="103" width="1" height="1"/><rect y="132" width="1" height="1" x="36"/></g><g fill="#626262"><rect width="1" height="1" x="247" y="93"/><rect x="227" y="111" width="1" height="1"/><rect y="122" width="1" height="1" x="227"/></g><g fill="#f03965"><rect x="187" y="48" width="1" height="1"/><rect height="26" x="70" y="49" width="1"/><rect x="70" y="75" width="1" height="1"/></g><g fill="#f36f89"><rect x="131" y="75" width="1" height="1"/><rect x="65" y="76" width="4" height="1"/><rect x="69" y="76" width="1" height="1"/><rect y="104" width="1" height="26" x="92"/><rect x="92" y="130" width="1" height="1"/></g><g fill="#444"><rect x="256" y="80" width="1" height="1" fill="#444444"/><rect fill="#444444" x="256" y="81" width="1" height="1"/><rect width="1" height="1" fill="#444444" x="246" y="88"/><rect height="1" fill="#444444" x="282" y="100" width="1"/><rect x="218" y="114" width="1" height="1" fill="#444444"/><rect x="276" y="117" width="5" height="1" fill="#444444"/><rect x="281" y="117" width="1" height="1" fill="#444444"/><rect x="224" y="119" width="1" height="1" fill="#444444"/><rect y="132" width="1" height="1" fill="#444444" x="223"/><rect width="1" height="1" fill="#444444" x="224" y="132"/><rect x="258" y="132" width="1" height="1" fill="#444444"/></g><g fill="#ee094d"><rect height="1" x="103" y="48" width="1"/><rect x="125" y="76" width="1" height="26"/><rect x="132" y="76" width="1" height="26"/><rect width="1" height="1" x="125" y="102"/><rect x="132" y="102" width="1" height="1"/><rect x="295" y="131" width="1" height="1"/></g><g fill="#f15477"><rect y="49" width="1" height="54" x="187"/><rect height="1" x="64" y="76" width="1"/><rect x="187" y="103" width="1" height="1"/><rect x="294" y="131" width="1" height="1"/></g><g fill="#979797"><rect x="238" y="49" width="1" height="1"/><rect width="1" height="1" x="238" y="57"/><rect x="278" y="82" width="1" height="1"/><rect x="261" y="93" width="1" height="1"/><rect height="1" x="250" y="98" width="1"/><rect x="251" y="99" width="1" height="1"/><rect y="103" width="1" height="1" x="259"/><rect x="223" y="111" width="1" height="1"/><rect y="111" width="1" height="1" x="226"/><rect x="240" y="113" width="2" height="1"/><rect x="242" y="113" width="1" height="1"/><rect x="265" y="113" width="1" height="1"/><rect x="276" y="113" width="12" height="1"/><rect x="288" y="113" width="1" height="1"/><rect y="116" width="1" height="1" x="269"/><rect height="1" x="217" y="119" width="1"/><rect x="217" y="120" width="1" height="1"/><rect y="120" width="1" height="8" x="233"/><rect x="270" y="121" width="1" height="9"/><rect x="279" y="122" width="1" height="1"/><rect x="233" y="128" width="1" height="1"/><rect x="270" y="130" width="1" height="1"/><rect x="274" y="131" width="1" height="1"/></g><g fill="#dfdfdf"><rect x="222" y="59" width="1" height="43"/><rect x="245" y="83" width="1" height="1"/><rect height="1" x="257" y="87" width="1"/><rect x="289" y="88" width="1" height="1"/><rect x="260" y="92" width="1" height="1"/><rect x="265" y="94" width="1" height="1"/><rect x="270" y="94" width="1" height="1"/><rect x="285" y="98" width="1" height="1"/><rect x="284" y="99" width="1" height="1"/><rect x="222" y="102" width="1" height="1"/><rect width="1" height="1" x="264" y="104"/><rect y="104" width="1" height="1" x="271"/><rect height="1" x="223" y="106" width="2"/><rect x="225" y="106" width="1" height="1"/><rect x="218" y="107" width="1" height="1"/><rect height="1" x="244" y="115" width="1"/><rect x="250" y="118" width="1" height="1"/><rect width="1" height="1" x="270" y="118"/><rect x="276" y="125" width="1" height="1"/><rect x="212" y="126" width="1" height="1"/><rect x="260" y="128" width="1" height="1"/><rect x="263" y="131" width="1" height="1"/><rect x="219" y="132" width="1" height="1"/><rect height="1" x="270" y="132" width="1"/><rect x="274" y="132" width="1" height="1"/></g><g fill="#b6b6b6"><rect x="258" y="90" width="1" height="1"/><rect x="264" y="94" width="1" height="1"/><rect x="271" y="94" width="1" height="1"/><rect x="249" y="97" width="1" height="1"/><rect x="211" y="103" width="9" height="1"/><rect height="1" x="220" y="103" width="1"/><rect x="232" y="108" width="1" height="1"/><rect x="251" y="113" width="1" height="1"/><rect y="117" width="1" height="1" x="257"/><rect x="264" y="118" width="1" height="1"/><rect x="253" y="123" width="1" height="1"/><rect x="278" y="123" width="1" height="1"/><rect height="1" x="231" y="131" width="1"/></g><g fill="#232323"><rect x="256" y="83" width="1" height="1"/><rect x="278" y="87" width="1" height="1"/><rect x="288" y="90" width="1" height="1"/><rect x="261" y="103" width="1" height="1"/><rect x="220" y="107" width="1" height="1"/><rect x="261" y="123" width="1" height="1"/><rect x="275" y="127" width="1" height="1"/></g><g fill="#141414"><rect x="246" y="87" width="1" height="1"/><rect height="1" x="231" y="108" width="1"/><rect x="228" y="111" width="1" height="1"/><rect x="213" y="112" width="1" height="1"/><rect x="260" y="113" width="1" height="1"/><rect x="217" y="116" width="1" height="1"/><rect x="215" y="129" width="1" height="1"/></g><g fill="#2d2d2d"><rect x="257" y="89" width="1" height="1"/><rect x="274" y="103" width="1" height="1"/><rect x="259" y="113" width="1" height="1"/><rect width="1" height="1" x="263" y="113"/><rect x="212" y="114" width="1" height="1"/><rect x="244" y="116" width="1" height="1"/><rect x="284" y="123" width="1" height="1"/><rect width="1" height="1" x="253" y="128"/><rect x="254" y="130" width="1" height="1"/><rect x="218" y="131" width="1" height="1"/></g><g fill="#fef8fa"><rect x="103" y="20" width="1" height="27"/><rect x="103" y="47" width="1" height="1"/><rect y="76" width="1" height="1" x="126"/></g><g fill="#7d7d7d"><rect x="289" y="50" width="1" height="29"/><rect width="1" height="1" x="289" y="79"/><rect width="1" height="1" x="278" y="84"/><rect height="1" x="254" y="101" width="1"/><rect width="1" height="1" x="232" y="110"/><rect x="232" y="111" width="1" height="1"/><rect x="257" y="113" width="1" height="1"/><rect x="226" y="118" width="5" height="1"/><rect x="231" y="118" width="1" height="1"/><rect x="211" y="120" width="1" height="1"/><rect height="1" x="244" y="120" width="1"/><rect height="1" x="259" y="120" width="1"/><rect x="217" y="121" width="1" height="1"/><rect width="1" height="1" x="280" y="121"/></g><g fill="#f47d96"><rect x="126" y="75" width="4" height="1"/><rect x="130" y="75" width="1" height="1"/></g><g fill="#fce1e7"><rect x="131" y="76" width="1" height="27"/><rect x="131" y="103" width="1" height="1"/><rect x="92" y="132" width="1" height="1"/></g><g fill="#929292"><rect x="289" y="83" width="1" height="1"/><rect width="1" height="1" x="274" y="93"/><rect x="239" y="113" width="1" height="1"/><rect x="243" y="113" width="1" height="1"/><rect x="275" y="113" width="1" height="1"/><rect x="289" y="113" width="1" height="1"/><rect x="254" y="115" width="1" height="2"/><rect y="117" width="1" height="1" x="254"/><rect x="217" y="118" width="1" height="1"/><rect x="224" y="118" width="1" height="1"/><rect x="233" y="119" width="1" height="1"/><rect y="120" width="1" height="1" x="287"/><rect x="211" y="121" width="1" height="1"/><rect x="258" y="126" width="1" height="1"/><rect x="233" y="129" width="1" height="1"/><rect x="270" y="131" width="1" height="1"/></g><g fill="#f8b4c2"><rect x="64" y="48" width="1" height="1"/><rect height="1" x="295" y="132" width="17"/><rect x="312" y="132" width="1" height="1"/></g><g fill="#c0c0c0"><rect x="194" y="49" width="1" height="1"/><rect x="194" y="57" width="1" height="1"/><rect x="289" y="86" width="1" height="1"/><rect x="276" y="91" width="1" height="1"/><rect width="2" height="1" x="267" y="104"/><rect x="269" y="104" width="1" height="1"/><rect x="211" y="116" width="1" height="1"/><rect x="233" y="118" width="1" height="1"/><rect height="1" x="246" y="118" width="1"/><rect width="1" height="1" x="289" y="118"/><rect x="227" y="127" width="1" height="1"/><rect x="233" y="130" width="1" height="1"/><rect height="1" x="217" y="131" width="1"/><rect y="132" width="4" height="1" x="239"/><rect height="1" x="243" y="132" width="1"/><rect width="1" height="1" x="256" y="132"/><rect x="265" y="132" width="4" height="1"/><rect x="269" y="132" width="1" height="1"/><rect height="1" x="275" y="132" width="14"/><rect x="289" y="132" width="1" height="1"/></g><g fill="#a9a9a9"><rect height="30" x="278" y="49" width="1"/><rect x="278" y="79" width="1" height="1"/><rect x="289" y="85" width="1" height="1"/><rect x="288" y="92" width="1" height="1"/><rect x="276" y="103" width="1" height="1"/><rect x="214" y="110" width="1" height="1"/><rect x="224" y="111" width="1" height="1"/><rect width="1" height="1" x="225" y="111"/><rect width="1" height="1" x="232" y="113"/><rect x="238" y="114" width="1" height="16"/><rect x="251" y="114" width="1" height="3"/><rect width="1" height="1" x="251" y="117"/><rect x="288" y="119" width="1" height="1"/><rect x="255" y="121" width="1" height="1"/><rect y="122" width="1" height="1" x="211"/><rect x="218" y="124" width="1" height="1"/><rect width="1" height="1" x="264" y="126"/><rect x="238" y="130" width="1" height="1"/><rect height="1" x="220" y="132" width="1"/></g><g fill="#f593a6"><rect width="1" height="54" x="8" y="49"/><rect x="8" y="103" width="1" height="1"/><rect x="313" y="113" width="1" height="1"/></g><g fill="#737373"><rect x="289" y="49" width="1" height="1"/><rect x="263" y="94" width="1" height="1"/><rect x="272" y="94" width="1" height="1"/><rect x="232" y="109" width="1" height="1"/><rect y="112" width="2" height="1" x="230"/><rect x="232" y="112" width="1" height="1"/><rect x="256" y="117" width="1" height="1"/><rect x="225" y="118" width="1" height="1"/><rect x="232" y="118" width="1" height="1"/><rect x="211" y="119" width="1" height="1"/><rect x="259" y="128" width="1" height="1"/><rect x="221" y="132" width="1" height="1"/></g><g fill="#4e4e4e"><rect height="1" x="287" y="94" width="1"/><rect x="248" y="95" width="1" height="1"/><rect x="217" y="108" width="1" height="1"/><rect x="222" y="111" width="1" height="1"/><rect x="264" y="113" width="1" height="1"/><rect y="120" width="1" height="1" x="224"/><rect y="122" width="1" height="1" x="285"/><rect x="230" y="131" width="1" height="1"/></g><g fill="#6a6a6a"><rect width="1" height="1" x="278" y="85"/><rect x="246" y="89" width="1" height="1"/><rect x="275" y="103" width="1" height="1"/><rect x="220" y="112" width="1" height="1"/><rect height="1" x="267" y="114" width="1"/><rect height="1" x="260" y="120" width="1"/><rect x="286" y="121" width="1" height="1"/><rect width="1" height="1" x="225" y="122"/><rect x="226" y="122" width="1" height="1"/><rect x="254" y="122" width="1" height="1"/><rect x="212" y="125" width="1" height="1"/><rect x="258" y="125" width="1" height="1"/><rect x="213" y="127" width="1" height="1"/><rect x="226" y="132" width="1" height="1"/><rect x="257" y="132" width="1" height="1"/><rect x="260" y="132" width="1" height="1"/></g><g fill="#383838"><rect width="1" height="1" x="256" y="49"/><rect x="275" y="117" width="1" height="1"/><rect x="283" y="117" width="1" height="1"/><rect height="1" x="282" y="119" width="1"/><rect y="131" width="1" height="1" x="255"/></g><g fill="#ed0040"><rect x="9" y="48" width="1" height="1"/><rect width="1" height="1" x="63" y="48"/><rect x="37" y="131" width="1" height="1"/></g><g fill="#f8b9c4"><rect height="26" x="64" y="49" width="1"/><rect height="1" x="64" y="75" width="1"/></g><g fill="#ef2558"><rect x="71" y="49" width="1" height="26"/><rect x="186" y="49" width="1" height="52"/><rect y="74" width="1" height="1" x="131"/><rect x="71" y="75" width="1" height="1"/><rect height="1" x="125" y="75" width="1"/><rect x="132" y="75" width="1" height="1"/><rect x="63" y="76" width="1" height="1"/><rect x="64" y="77" width="1" height="1"/><rect x="186" y="101" width="1" height="1"/><rect x="124" y="102" width="1" height="1"/><rect x="9" y="103" width="1" height="1"/><rect x="91" y="104" width="1" height="1"/><rect x="296" y="114" width="15" height="1"/><rect x="311" y="114" width="1" height="1"/><rect width="1" height="15" x="295" y="115"/><rect x="295" y="130" width="1" height="1"/></g><g fill="#ececec"><rect height="1" x="238" y="58" width="1"/><rect width="1" height="1" x="288" y="93"/><rect x="266" y="94" width="1" height="1"/><rect x="248" y="96" width="1" height="1"/><rect x="283" y="100" width="1" height="1"/><rect height="1" x="255" y="102" width="1"/><rect height="1" x="263" y="104" width="1"/><rect x="272" y="104" width="1" height="1"/><rect x="226" y="106" width="1" height="1"/><rect x="221" y="112" width="1" height="1"/><rect x="246" y="113" width="1" height="1"/><rect x="274" y="114" width="1" height="3"/><rect y="115" width="1" height="1" x="211"/><rect height="1" x="274" y="117" width="1"/><rect height="2" x="227" y="124" width="1"/><rect x="227" y="126" width="1" height="1"/><rect x="275" y="126" width="1" height="1"/><rect x="222" y="127" width="1" height="1"/><rect x="263" y="127" width="1" height="1"/><rect x="290" y="128" width="1" height="1"/><rect width="1" height="1" x="214" y="129"/></g><g fill="#ee0049"><rect x="104" y="20" width="1" height="1"/><rect x="10" y="48" width="52" height="1"/><rect x="62" y="48" width="1" height="1"/><rect height="1" x="71" y="48" width="31"/><rect x="102" y="48" width="1" height="1"/><rect height="1" x="160" y="48" width="26"/><rect width="1" height="1" x="186" y="48"/><rect y="131" width="1" height="1" x="91"/><rect x="312" y="131" width="1" height="1"/></g><g fill="#ee1d54"><rect height="1" x="159" y="20" width="1"/><rect x="104" y="47" width="1" height="1"/><rect width="1" height="1" x="70" y="48"/><rect x="9" y="49" width="1" height="53"/><rect x="126" y="74" width="4" height="1"/><rect y="74" width="1" height="1" x="130"/><rect y="77" width="4" height="1" x="65"/><rect y="77" width="1" height="1" x="69"/><rect x="9" y="102" width="1" height="1"/><rect y="102" width="1" height="1" x="186"/><rect y="103" width="1" height="1" x="125"/><rect x="91" y="105" width="1" height="25"/><rect x="295" y="114" width="1" height="1"/><rect height="16" x="312" y="114" width="1"/><rect x="91" y="130" width="1" height="1"/><rect height="1" x="312" y="130" width="1"/></g><g fill="#4b4b4b"><rect x="256" y="50" width="1" height="29"/><rect x="256" y="79" width="1" height="1"/><rect x="258" y="113" width="1" height="1"/><rect x="282" y="117" width="1" height="1"/><rect x="224" y="121" width="1" height="1"/><rect x="217" y="122" width="1" height="1"/><rect x="253" y="124" width="1" height="1"/><rect x="258" y="127" width="1" height="1"/><rect y="130" width="1" height="1" x="216"/><rect height="1" x="259" y="132" width="1"/></g><g fill="#e5e5e5"><rect x="195" y="58" width="15" height="1"/><rect x="210" y="58" width="1" height="1"/><rect x="223" y="58" width="14" height="1"/><rect x="237" y="58" width="1" height="1"/><rect x="245" y="84" width="1" height="1"/><rect x="259" y="91" width="1" height="1"/><rect x="277" y="103" width="1" height="1"/><rect x="222" y="106" width="1" height="1"/><rect x="216" y="108" width="1" height="1"/><rect x="231" y="113" width="1" height="1"/><rect height="1" x="266" y="113" width="1"/><rect y="117" width="1" height="1" x="258"/><rect x="262" y="117" width="1" height="1"/><rect x="245" y="119" width="1" height="1"/><rect x="244" y="122" width="1" height="1"/><rect x="264" y="125" width="1" height="1"/><rect x="283" y="125" width="1" height="1"/><rect x="261" y="128" width="1" height="1"/><rect width="1" height="1" x="238" y="132"/></g><g fill="#343434"><rect x="256" y="82" width="1" height="1"/><rect height="1" x="278" y="102" width="1"/><rect width="1" height="1" x="228" y="107"/><rect x="248" y="113" width="1" height="1"/><rect x="268" y="115" width="1" height="1"/><rect x="283" y="118" width="1" height="1"/><rect x="262" y="123" width="2" height="1"/><rect height="1" x="264" y="123" width="1"/><rect x="219" y="126" width="1" height="1"/></g><rect height="1" fill="#181818" x="214" y="128" width="1"/><g fill="#fff"><rect width="317" height="18" fill="#fff"/><rect x="317" width="1" height="158" fill="#fff"/><rect y="18" width="317" height="1" fill="#fff"/><rect y="19" width="103" height="28" fill="#fff"/><rect fill="#fff" x="103" y="19" width="1" height="1"/><rect x="160" y="19" width="157" height="28" fill="#fff"/><rect y="47" width="102" height="1" fill="#fff"/><rect x="102" y="47" width="1" height="1" fill="#fff"/><rect x="160" y="47" width="157" height="1" fill="#fff"/><rect y="48" width="7" height="110" fill="#fff"/><rect x="7" y="48" width="1" height="110" fill="#fff"/><rect width="4" height="27" fill="#fff" x="65" y="48"/><rect x="69" y="48" width="1" height="27" fill="#fff"/><rect fill="#fff" x="188" y="48" width="6" height="110"/><rect x="194" y="48" width="1" height="1" fill="#fff"/><rect y="48" width="6" height="64" fill="#fff" x="239"/><rect width="1" height="1" fill="#fff" x="245" y="48"/><rect x="257" y="48" width="20" height="37" fill="#fff"/><rect fill="#fff" x="277" y="48" width="1" height="40"/><rect width="27" height="64" fill="#fff" x="290" y="48"/><rect x="194" y="59" width="16" height="99" fill="#fff"/><rect x="210" y="59" width="1" height="99" fill="#fff"/><rect fill="#fff" x="223" y="59" width="21" height="46"/><rect y="75" width="4" height="1" fill="#fff" x="65"/><rect x="69" y="75" width="1" height="1" fill="#fff"/><rect x="127" y="76" width="3" height="82" fill="#fff"/><rect height="82" fill="#fff" x="130" y="76" width="1"/><rect height="1" fill="#fff" x="257" y="85" width="20"/><rect x="245" y="86" width="1" height="27" fill="#fff"/><rect x="258" y="86" width="19" height="3" fill="#fff"/><rect y="88" width="1" height="1" fill="#fff" x="277"/><rect height="1" fill="#fff" x="258" y="89" width="18"/><rect x="276" y="89" width="1" height="1" fill="#fff"/><rect x="259" y="90" width="17" height="1" fill="#fff"/><rect x="276" y="90" width="1" height="1" fill="#fff"/><rect x="289" y="90" width="28" height="22" fill="#fff"/><rect y="91" width="15" height="1" fill="#fff" x="260"/><rect x="275" y="91" width="1" height="1" fill="#fff"/><rect x="261" y="92" width="13" height="1" fill="#fff"/><rect fill="#fff" x="274" y="92" width="1" height="1"/><rect y="93" width="1" height="19" fill="#fff" x="246"/><rect y="93" width="10" height="1" fill="#fff" x="263"/><rect x="273" y="93" width="1" height="1" fill="#fff"/><rect fill="#fff" x="288" y="94" width="29" height="18"/><rect x="247" y="95" width="1" height="17" fill="#fff"/><rect x="287" y="96" width="30" height="16" fill="#fff"/><rect x="248" y="97" width="1" height="15" fill="#fff"/><rect x="249" y="98" width="1" height="14" fill="#fff"/><rect fill="#fff" x="286" y="98" width="31" height="14"/><rect x="250" y="99" width="1" height="13" fill="#fff"/><rect y="99" width="32" height="13" fill="#fff" x="285"/><rect fill="#fff" x="251" y="100" width="1" height="12"/><rect height="12" fill="#fff" x="284" y="100" width="33"/><rect x="252" y="101" width="1" height="24" fill="#fff"/><rect x="282" y="101" width="35" height="11" fill="#fff"/><rect x="253" y="102" width="1" height="20" fill="#fff"/><rect height="11" fill="#fff" x="254" y="102" width="1"/><rect height="10" fill="#fff" x="280" y="102" width="37"/><rect x="255" y="103" width="2" height="9" fill="#fff"/><rect height="9" fill="#fff" x="257" y="103" width="1"/><rect fill="#fff" x="278" y="103" width="39" height="9"/><rect y="104" width="27" height="54" fill="#fff" x="8"/><rect height="54" fill="#fff" x="35" y="104" width="1"/><rect x="93" y="104" width="168" height="1" fill="#fff"/><rect width="1" height="8" fill="#fff" x="261" y="104"/><rect fill="#fff" x="274" y="104" width="43" height="8"/><rect fill="#fff" x="93" y="105" width="224" height="1"/><rect y="106" width="127" height="1" fill="#fff" x="93"/><rect y="106" width="1" height="1" fill="#fff" x="220"/><rect fill="#fff" x="228" y="106" width="89" height="1"/><rect width="124" height="1" fill="#fff" x="93" y="107"/><rect x="217" y="107" width="1" height="1" fill="#fff"/><rect height="1" fill="#fff" x="231" y="107" width="86"/><rect y="108" width="122" height="1" fill="#fff" x="93"/><rect y="108" width="1" height="1" fill="#fff" x="215"/><rect width="84" height="4" fill="#fff" x="233" y="108"/><rect x="93" y="109" width="121" height="1" fill="#fff"/><rect x="214" y="109" width="1" height="1" fill="#fff"/><rect fill="#fff" x="93" y="110" width="120" height="2"/><rect width="1" height="1" fill="#fff" x="213" y="110"/><rect x="93" y="112" width="119" height="2" fill="#fff"/><rect x="212" y="112" width="1" height="1" fill="#fff"/><rect x="222" y="112" width="6" height="5" fill="#fff"/><rect x="228" y="112" width="1" height="5" fill="#fff"/><rect x="233" y="112" width="84" height="1" fill="#fff"/><rect x="220" y="113" width="10" height="4" fill="#fff"/><rect fill="#fff" x="230" y="113" width="1" height="4"/><rect x="233" y="113" width="4" height="4" fill="#fff"/><rect x="237" y="113" width="1" height="45" fill="#fff"/><rect fill="#fff" x="245" y="113" width="1" height="1"/><rect height="1" fill="#fff" x="254" y="113" width="1"/><rect y="113" width="6" height="1" fill="#fff" x="267"/><rect x="273" y="113" width="1" height="45" fill="#fff"/><rect y="113" width="2" height="45" fill="#fff" x="291"/><rect fill="#fff" x="293" y="113" width="1" height="45"/><rect width="3" height="45" fill="#fff" x="314" y="113"/><rect x="93" y="114" width="118" height="44" fill="#fff"/><rect x="211" y="114" width="1" height="1" fill="#fff"/><rect x="219" y="114" width="18" height="3" fill="#fff"/><rect x="244" y="114" width="1" height="1" fill="#fff"/><rect x="268" y="114" width="5" height="1" fill="#fff"/><rect fill="#fff" x="269" y="115" width="4" height="1"/><rect x="218" y="116" width="19" height="1" fill="#fff"/><rect x="270" y="116" width="3" height="1" fill="#fff"/><rect width="19" height="1" fill="#fff" x="218" y="117"/><rect x="270" y="117" width="3" height="1" fill="#fff"/><rect height="4" fill="#fff" x="218" y="118" width="5"/><rect fill="#fff" x="223" y="118" width="1" height="9"/><rect y="118" width="3" height="40" fill="#fff" x="234"/><rect x="247" y="118" width="2" height="40" fill="#fff"/><rect x="249" y="118" width="1" height="40" fill="#fff"/><rect height="1" fill="#fff" x="256" y="118" width="7"/><rect x="263" y="118" width="1" height="1" fill="#fff"/><rect x="271" y="118" width="11" height="1" fill="#fff"/><rect height="1" fill="#fff" x="282" y="118" width="1"/><rect x="290" y="118" width="3" height="9" fill="#fff"/><rect height="1" fill="#fff" x="246" y="119" width="17"/><rect x="263" y="119" width="1" height="1" fill="#fff"/><rect x="271" y="119" width="10" height="1" fill="#fff"/><rect height="1" fill="#fff" x="281" y="119" width="1"/><rect x="289" y="119" width="4" height="8" fill="#fff"/><rect x="245" y="120" width="11" height="1" fill="#fff"/><rect x="256" y="120" width="1" height="1" fill="#fff"/><rect fill="#fff" x="271" y="120" width="9" height="1"/><rect x="280" y="120" width="1" height="1" fill="#fff"/><rect x="288" y="120" width="5" height="7" fill="#fff"/><rect width="9" height="1" fill="#fff" x="245" y="121"/><rect width="1" height="1" fill="#fff" x="254" y="121"/><rect x="271" y="121" width="8" height="1" fill="#fff"/><rect x="279" y="121" width="1" height="1" fill="#fff"/><rect x="287" y="121" width="6" height="6" fill="#fff"/><rect fill="#fff" x="218" y="122" width="5" height="1"/><rect x="245" y="122" width="8" height="3" fill="#fff"/><rect fill="#fff" x="253" y="122" width="1" height="1"/><rect x="271" y="122" width="7" height="1" fill="#fff"/><rect y="122" width="1" height="1" fill="#fff" x="278"/><rect x="286" y="122" width="7" height="5" fill="#fff"/><rect x="219" y="123" width="7" height="1" fill="#fff"/><rect x="226" y="123" width="1" height="4" fill="#fff"/><rect x="271" y="123" width="6" height="1" fill="#fff"/><rect y="123" width="1" height="1" fill="#fff" x="277"/><rect x="285" y="123" width="8" height="4" fill="#fff"/><rect height="34" fill="#fff" x="211" y="124" width="1"/><rect x="219" y="124" width="7" height="1" fill="#fff"/><rect x="260" y="124" width="4" height="2" fill="#fff"/><rect width="1" height="1" fill="#fff" x="264" y="124"/><rect x="271" y="124" width="5" height="1" fill="#fff"/><rect x="276" y="124" width="1" height="1" fill="#fff"/><rect height="1" fill="#fff" x="220" y="125" width="6"/><rect x="245" y="125" width="7" height="33" fill="#fff"/><rect x="252" y="125" width="1" height="1" fill="#fff"/><rect x="259" y="125" width="4" height="2" fill="#fff"/><rect x="271" y="125" width="4" height="1" fill="#fff"/><rect x="275" y="125" width="1" height="1" fill="#fff"/><rect x="284" y="125" width="9" height="2" fill="#fff"/><rect x="221" y="126" width="5" height="1" fill="#fff"/><rect height="1" fill="#fff" x="263" y="126" width="1"/><rect width="3" height="32" fill="#fff" x="271" y="126"/><rect x="274" y="126" width="1" height="1" fill="#fff"/><rect y="126" width="10" height="1" fill="#fff" x="283"/><rect x="212" y="127" width="1" height="31" fill="#fff"/><rect x="223" y="127" width="3" height="1" fill="#fff"/><rect y="127" width="1" height="1" fill="#fff" x="226"/><rect y="127" width="3" height="1" fill="#fff" x="259"/><rect x="262" y="127" width="1" height="1" fill="#fff"/><rect x="282" y="127" width="11" height="1" fill="#fff"/><rect width="1" height="30" fill="#fff" x="252" y="128"/><rect fill="#fff" x="213" y="129" width="1" height="29"/><rect x="214" y="130" width="1" height="28" fill="#fff"/><rect x="253" y="130" width="1" height="28" fill="#fff"/><rect y="131" width="1" height="27" fill="#fff" x="215"/><rect height="27" fill="#fff" x="216" y="131" width="1"/><rect x="232" y="131" width="5" height="27" fill="#fff"/><rect x="264" y="131" width="1" height="27" fill="#fff"/><rect x="217" y="132" width="1" height="26" fill="#fff"/><rect fill="#fff" x="218" y="132" width="1" height="26"/><rect x="230" y="132" width="7" height="26" fill="#fff"/><rect height="26" fill="#fff" x="244" y="132" width="11"/><rect x="255" y="132" width="1" height="26" fill="#fff"/><rect x="262" y="132" width="2" height="26" fill="#fff"/><rect x="36" y="133" width="281" height="25" fill="#fff"/><rect y="158" width="317" height="1" fill="#fff"/><rect x="317" y="158" width="1" height="1" fill="#fff"/></g><g fill="#ee0d4e"><rect height="1" x="105" y="20" width="53"/><rect height="1" x="158" y="20" width="1"/><rect height="25" x="104" y="21" width="1"/><rect y="46" width="1" height="1" x="104"/><rect x="63" y="49" width="1" height="26"/><rect x="63" y="75" width="1" height="1"/><rect x="132" y="103" width="1" height="1"/><rect x="37" y="104" width="1" height="26"/><rect y="130" width="1" height="1" x="37"/><rect x="38" y="131" width="52" height="1"/><rect x="90" y="131" width="1" height="1"/><rect x="296" y="131" width="15" height="1"/><rect x="311" y="131" width="1" height="1"/></g><g fill="#000"><rect y="49" width="42" height="8" fill="#000" x="195"/><rect x="237" y="49" width="1" height="8" fill="#000"/><rect y="49" width="9" height="37" fill="#000" x="246"/><rect x="255" y="49" width="1" height="52" fill="#000"/><rect x="279" y="49" width="9" height="44" fill="#000"/><rect x="288" y="49" width="1" height="40" fill="#000"/><rect height="1" fill="#000" x="195" y="57" width="42"/><rect x="237" y="57" width="1" height="1" fill="#000"/><rect x="211" y="58" width="10" height="44" fill="#000"/><rect x="221" y="58" width="1" height="44" fill="#000"/><rect x="256" y="84" width="1" height="17" fill="#000"/><rect y="86" width="10" height="1" fill="#000" x="246"/><rect height="5" fill="#000" x="247" y="87" width="9"/><rect x="278" y="88" width="10" height="5" fill="#000"/><rect x="288" y="89" width="1" height="1" fill="#000"/><rect y="90" width="1" height="12" fill="#000" x="257"/><rect x="258" y="91" width="1" height="11" fill="#000"/><rect fill="#000" x="277" y="91" width="10" height="4"/><rect fill="#000" x="247" y="92" width="12" height="1"/><rect fill="#000" x="259" y="92" width="1" height="10"/><rect x="276" y="92" width="11" height="3" fill="#000"/><rect x="248" y="93" width="12" height="1" fill="#000"/><rect y="93" width="1" height="9" fill="#000" x="260"/><rect y="93" width="12" height="2" fill="#000" x="275"/><rect y="93" width="1" height="1" fill="#000" x="287"/><rect x="248" y="94" width="14" height="1" fill="#000"/><rect x="262" y="94" width="1" height="9" fill="#000"/><rect x="273" y="94" width="13" height="3" fill="#000"/><rect fill="#000" x="249" y="95" width="37" height="1"/><rect height="1" fill="#000" x="286" y="95" width="1"/><rect x="249" y="96" width="36" height="1" fill="#000"/><rect x="250" y="97" width="35" height="1" fill="#000"/><rect x="285" y="97" width="1" height="1" fill="#000"/><rect x="251" y="98" width="33" height="1" fill="#000"/><rect x="284" y="98" width="1" height="1" fill="#000"/><rect fill="#000" x="252" y="99" width="31" height="1"/><rect width="1" height="1" fill="#000" x="283" y="99"/><rect fill="#000" x="253" y="100" width="28" height="1"/><rect fill="#000" x="281" y="100" width="1" height="1"/><rect x="255" y="101" width="25" height="1" fill="#000"/><rect x="280" y="101" width="1" height="1" fill="#000"/><rect height="1" fill="#000" x="211" y="102" width="10"/><rect y="102" width="1" height="1" fill="#000" x="221"/><rect x="257" y="102" width="20" height="1" fill="#000"/><rect fill="#000" x="277" y="102" width="1" height="1"/><rect x="262" y="103" width="11" height="1" fill="#000"/><rect y="103" width="1" height="1" fill="#000" x="273"/><rect y="107" width="6" height="3" fill="#000" x="221"/><rect y="107" width="1" height="3" fill="#000" x="227"/><rect fill="#000" x="218" y="108" width="12" height="2"/><rect y="108" width="1" height="3" fill="#000" x="230"/><rect fill="#000" x="216" y="109" width="15" height="1"/><rect fill="#000" x="231" y="109" width="1" height="3"/><rect y="110" width="16" height="1" fill="#000" x="215"/><rect fill="#000" x="214" y="111" width="7" height="1"/><rect x="221" y="111" width="1" height="1" fill="#000"/><rect x="229" y="111" width="2" height="1" fill="#000"/><rect x="214" y="112" width="5" height="1" fill="#000"/><rect fill="#000" x="219" y="112" width="1" height="1"/><rect x="213" y="113" width="5" height="2" fill="#000"/><rect fill="#000" x="218" y="113" width="1" height="1"/><rect x="249" y="113" width="1" height="4" fill="#000"/><rect height="4" fill="#000" x="250" y="113" width="1"/><rect y="113" width="1" height="3" fill="#000" x="261"/><rect x="262" y="113" width="1" height="3" fill="#000"/><rect x="239" y="114" width="4" height="17" fill="#000"/><rect y="114" width="1" height="17" fill="#000" x="243"/><rect fill="#000" x="246" y="114" width="4" height="2"/><rect x="255" y="114" width="11" height="2" fill="#000"/><rect x="266" y="114" width="1" height="17" fill="#000"/><rect x="275" y="114" width="14" height="2" fill="#000"/><rect x="289" y="114" width="1" height="3" fill="#000"/><rect height="9" fill="#000" x="212" y="115" width="5"/><rect height="1" fill="#000" x="217" y="115" width="1"/><rect height="1" fill="#000" x="245" y="115" width="5"/><rect y="115" width="1" height="16" fill="#000" x="267"/><rect fill="#000" x="245" y="116" width="5" height="1"/><rect y="116" width="13" height="1" fill="#000" x="255"/><rect x="268" y="116" width="1" height="15" fill="#000"/><rect width="14" height="1" fill="#000" x="275" y="116"/><rect x="244" y="117" width="3" height="1" fill="#000"/><rect x="247" y="117" width="3" height="1" fill="#000"/><rect y="117" width="1" height="1" fill="#000" x="250"/><rect x="255" y="117" width="1" height="1" fill="#000"/><rect y="117" width="5" height="1" fill="#000" x="264"/><rect x="269" y="117" width="1" height="14" fill="#000"/><rect width="5" height="1" fill="#000" x="284" y="117"/><rect x="289" y="117" width="1" height="1" fill="#000"/><rect fill="#000" x="244" y="118" width="1" height="1"/><rect x="245" y="118" width="1" height="1" fill="#000"/><rect x="265" y="118" width="4" height="13" fill="#000"/><rect fill="#000" x="284" y="118" width="4" height="1"/><rect width="1" height="1" fill="#000" x="288" y="118"/><rect fill="#000" x="225" y="119" width="7" height="2"/><rect height="11" fill="#000" x="232" y="119" width="1"/><rect height="1" fill="#000" x="244" y="119" width="1"/><rect x="283" y="119" width="4" height="1" fill="#000"/><rect fill="#000" x="287" y="119" width="1" height="1"/><rect x="282" y="120" width="4" height="1" fill="#000"/><rect y="120" width="1" height="1" fill="#000" x="286"/><rect y="121" width="7" height="1" fill="#000" x="225"/><rect x="256" y="121" width="13" height="1" fill="#000"/><rect x="281" y="121" width="4" height="1" fill="#000"/><rect x="285" y="121" width="1" height="1" fill="#000"/><rect x="228" y="122" width="4" height="8" fill="#000"/><rect height="1" fill="#000" x="255" y="122" width="14"/><rect x="280" y="122" width="4" height="2" fill="#000"/><rect x="284" y="122" width="1" height="1" fill="#000"/><rect height="7" fill="#000" x="217" y="123" width="1"/><rect x="254" y="123" width="6" height="1" fill="#000"/><rect fill="#000" x="260" y="123" width="1" height="1"/><rect x="279" y="123" width="4" height="2" fill="#000"/><rect x="212" y="124" width="5" height="1" fill="#000"/><rect height="5" fill="#000" x="254" y="124" width="4"/><rect width="1" height="1" fill="#000" x="258" y="124"/><rect y="124" width="5" height="1" fill="#000" x="278"/><rect y="124" width="1" height="1" fill="#000" x="283"/><rect y="125" width="5" height="1" fill="#000" x="213"/><rect y="125" width="1" height="5" fill="#000" x="218"/><rect x="253" y="125" width="4" height="2" fill="#000"/><rect fill="#000" x="277" y="125" width="5" height="1"/><rect height="1" fill="#000" x="282" y="125" width="1"/><rect x="213" y="126" width="5" height="1" fill="#000"/><rect x="276" y="126" width="5" height="5" fill="#000"/><rect width="1" height="5" fill="#000" x="281" y="126"/><rect x="214" y="127" width="6" height="1" fill="#000"/><rect x="220" y="127" width="1" height="4" fill="#000"/><rect x="253" y="127" width="4" height="1" fill="#000"/><rect y="127" width="5" height="1" fill="#000" x="264"/><rect height="1" fill="#000" x="215" y="128" width="8"/><rect x="223" y="128" width="9" height="2" fill="#000"/><rect x="258" y="128" width="1" height="3" fill="#000"/><rect width="6" height="1" fill="#000" x="263" y="128"/><rect width="14" height="3" fill="#000" x="275" y="128"/><rect x="289" y="128" width="1" height="3" fill="#000"/><rect x="216" y="129" width="16" height="1" fill="#000"/><rect y="129" width="9" height="1" fill="#000" x="254"/><rect height="1" fill="#000" x="263" y="129" width="6"/><rect x="217" y="130" width="15" height="1" fill="#000"/><rect width="1" height="1" fill="#000" x="232" y="130"/><rect x="255" y="130" width="8" height="1" fill="#000"/><rect x="263" y="130" width="6" height="1" fill="#000"/><rect y="131" width="10" height="1" fill="#000" x="219"/><rect x="229" y="131" width="1" height="1" fill="#000"/><rect y="131" width="4" height="1" fill="#000" x="239"/><rect x="243" y="131" width="1" height="1" fill="#000"/><rect height="1" fill="#000" x="256" y="131" width="6"/><rect x="262" y="131" width="1" height="1" fill="#000"/><rect x="265" y="131" width="4" height="1" fill="#000"/><rect fill="#000" x="269" y="131" width="1" height="1"/><rect x="275" y="131" width="14" height="1" fill="#000"/><rect x="289" y="131" width="1" height="1" fill="#000"/></g><g fill="#9f9f9f"><rect x="238" y="50" width="1" height="6"/><rect x="238" y="56" width="1" height="1"/><rect x="278" y="80" width="1" height="1"/><rect height="1" x="278" y="81" width="1"/><rect x="289" y="84" width="1" height="1"/><rect x="257" y="88" width="1" height="1"/><rect x="246" y="90" width="1" height="1"/><rect x="256" y="113" width="1" height="1"/><rect y="117" width="1" height="1" x="211"/><rect x="263" y="117" width="1" height="1"/><rect x="258" y="120" width="1" height="1"/><rect x="270" y="120" width="1" height="1"/><rect x="259" y="124" width="1" height="1"/><rect width="1" height="1" x="221" y="127"/><rect x="274" y="128" width="1" height="2"/><rect height="1" x="253" y="129" width="1"/><rect x="274" y="130" width="1" height="1"/><rect y="131" width="1" height="1" x="238"/><rect width="1" height="1" x="227" y="132"/></g><g fill="#cfcfcf"><rect y="80" width="1" height="2" x="245"/><rect x="245" y="82" width="1" height="1"/><rect x="277" y="89" width="1" height="1"/><rect width="1" height="1" x="247" y="94"/><rect x="287" y="95" width="1" height="1"/><rect height="1" x="258" y="103" width="1"/><rect x="265" y="104" width="1" height="1"/><rect y="104" width="1" height="1" x="270"/><rect x="230" y="107" width="1" height="1"/><rect x="213" y="111" width="1" height="1"/><rect x="229" y="112" width="1" height="1"/><rect x="238" y="113" width="1" height="1"/><rect x="255" y="113" width="1" height="1"/><rect x="245" y="114" width="1" height="1"/><rect x="218" y="115" width="1" height="1"/><rect height="1" x="251" y="118" width="1"/><rect x="254" y="118" width="1" height="1"/><rect width="1" height="1" x="257" y="120"/><rect height="1" x="211" y="123" width="1"/><rect x="277" y="124" width="1" height="1"/><rect width="1" height="1" x="282" y="126"/></g><g fill="#868686"><rect x="289" y="80" width="1" height="2"/><rect y="82" width="1" height="1" x="289"/><rect x="278" y="83" width="1" height="1"/><rect x="256" y="102" width="1" height="1"/><rect x="219" y="107" width="1" height="1"/><rect height="1" x="229" y="107" width="1"/><rect x="219" y="113" width="1" height="1"/><rect y="113" width="1" height="1" x="247"/><rect x="254" y="114" width="1" height="1"/><rect x="211" y="118" width="1" height="1"/><rect x="224" y="122" width="1" height="1"/></g><g fill="#ef2b5b"><rect x="105" y="21" width="53" height="52"/><rect x="158" y="21" width="1" height="81"/><rect x="104" y="48" width="55" height="25"/><rect width="1" height="54" x="159" y="48"/><rect height="53" x="10" y="49" width="52"/><rect x="62" y="49" width="1" height="81"/><rect x="72" y="49" width="113" height="24"/><rect x="185" y="49" width="1" height="53"/><rect x="72" y="73" width="113" height="1"/><rect x="72" y="74" width="53" height="27"/><rect x="125" y="74" width="1" height="1"/><rect height="1" x="132" y="74" width="53"/><rect x="133" y="75" width="52" height="27"/><rect x="71" y="76" width="53" height="26"/><rect width="1" height="53" x="63" y="77"/><rect x="70" y="77" width="54" height="25"/><rect y="78" width="60" height="24" x="64"/><rect y="101" width="1" height="1" x="124"/><rect x="10" y="102" width="113" height="1"/><rect x="123" y="102" width="1" height="1"/><rect y="102" width="52" height="1" x="133"/><rect height="1" x="185" y="102" width="1"/><rect y="103" width="55" height="1" x="37"/><rect x="92" y="103" width="1" height="1"/><rect x="186" y="103" width="1" height="1"/><rect x="38" y="104" width="52" height="26"/><rect x="90" y="104" width="1" height="26"/><rect width="1" height="1" x="312" y="113"/><rect x="296" y="115" width="15" height="15"/><rect x="311" y="115" width="1" height="15"/><rect x="38" y="130" width="52" height="1"/><rect width="1" height="1" x="90" y="130"/><rect x="296" y="130" width="15" height="1"/><rect x="311" y="130" width="1" height="1"/></g><g fill="#f03361"><rect height="1" x="296" y="113" width="15"/><rect x="311" y="113" width="1" height="1"/></g></svg>