<?xml version="1.0" encoding="UTF-8" standalone="no"?>
<!-- Created with Inkscape (http://www.inkscape.org/) -->

<svg
   xmlns:dc="http://purl.org/dc/elements/1.1/"
   xmlns:cc="http://creativecommons.org/ns#"
   xmlns:rdf="http://www.w3.org/1999/02/22-rdf-syntax-ns#"
   xmlns:svg="http://www.w3.org/2000/svg"
   xmlns="http://www.w3.org/2000/svg"
   xmlns:sodipodi="http://sodipodi.sourceforge.net/DTD/sodipodi-0.dtd"
   xmlns:inkscape="http://www.inkscape.org/namespaces/inkscape"
   version="1.1"
   id="svg815"
   xml:space="preserve"
   width="794.66669"
   height="192"
   viewBox="0 0 794.66669 192"
   sodipodi:docname="project_logo.svg"
   inkscape:version="0.92.4 (5da689c313, 2019-01-14)"><metadata
     id="metadata821"><rdf:RDF><cc:Work
         rdf:about=""><dc:format>image/svg+xml</dc:format><dc:type
           rdf:resource="http://purl.org/dc/dcmitype/StillImage" /><dc:title></dc:title></cc:Work></rdf:RDF></metadata><defs
     id="defs819"><clipPath
       clipPathUnits="userSpaceOnUse"
       id="clipPath833"><path
         d="M 0,0 H 5952.2 V 1433.22 H 0 Z"
         id="path831"
         inkscape:connector-curvature="0" /></clipPath></defs><sodipodi:namedview
     pagecolor="#ffffff"
     bordercolor="#666666"
     borderopacity="1"
     objecttolerance="10"
     gridtolerance="10"
     guidetolerance="10"
     inkscape:pageopacity="0"
     inkscape:pageshadow="2"
     inkscape:window-width="2129"
     inkscape:window-height="1060"
     id="namedview817"
     showgrid="false"
     inkscape:zoom="2.7495805"
     inkscape:cx="397.33334"
     inkscape:cy="96"
     inkscape:window-x="3625"
     inkscape:window-y="57"
     inkscape:window-maximized="0"
     inkscape:current-layer="g823" /><g
     id="g823"
     inkscape:groupmode="layer"
     inkscape:label="project_logo"
     transform="matrix(1.3333333,0,0,-1.3333333,0,192)"><g
       id="g825"
       transform="scale(0.1)"><g
         id="g827"><g
           id="g829"
           clip-path="url(#clipPath833)"><path
             d="M 452.988,579.676 H 321.281 c -125.918,0 -188.879,54.863 -188.879,164.652 0,123.992 92.977,186.024 279.075,186.024 119.285,0 230.16,-19.055 332.777,-57.25 V 994.781 C 641.637,1023.4 530.762,1037.75 411.477,1037.75 137.105,1037.75 0,939.922 0,744.328 0,558.23 107.09,465.172 321.281,465.172 h 131.707 c 129.778,0 194.668,-54.852 194.668,-164.57 0,-128.864 -88.035,-193.204 -264.109,-193.204 -124.531,0 -240.422,19.051 -347.8243,57.243 V 42.9688 C 143.125,14.3398 259.016,0 383.547,0 c 264.34,0 396.508,100.219 396.508,300.602 0,186.105 -109.02,279.074 -327.067,279.074"
             style="fill:#231f20;fill-opacity:1;fill-rule:nonzero;stroke:none"
             id="path835"
             inkscape:connector-curvature="0" /><path
             d="m 1222.94,114.5 v 357.852 h 511.7 v 107.324 h -511.7 V 923.18 h 536.7 v 107.4 h -669.1 V 7.17188 h 679.83 V 114.5 h -547.43"
             style="fill:#231f20;fill-opacity:1;fill-rule:nonzero;stroke:none"
             id="path837"
             inkscape:connector-curvature="0" /><path
             d="m 2220.43,114.5 v 916.08 H 2088.02 V 7.17188 h 667.72 V 114.5 h -535.31"
             style="fill:#231f20;fill-opacity:1;fill-rule:nonzero;stroke:none"
             id="path839"
             inkscape:connector-curvature="0" /><path
             d="m 3162.82,114.5 v 357.852 h 511.71 V 579.676 H 3162.82 V 923.18 h 536.79 v 107.4 H 3030.42 V 7.17188 h 679.91 V 114.5 h -547.51"
             style="fill:#231f20;fill-opacity:1;fill-rule:nonzero;stroke:none"
             id="path841"
             inkscape:connector-curvature="0" /><path
             d="m 4042.72,1030.58 h -14.81 V 7.17188 h 125.3 V 660.848 c -57.4,126.765 -95.45,253.382 -110.49,369.732 z m 743.79,0 V 277.602 c 45.45,-30.012 88.12,-49.532 125.3,-58.481 v 811.459 h -125.3"
             style="fill:#231f20;fill-opacity:1;fill-rule:nonzero;stroke:none"
             id="path843"
             inkscape:connector-curvature="0" /><path
             d="m 5404.77,114.5 v 357.852 h 511.71 V 579.676 H 5404.77 V 923.18 h 536.7 v 107.4 h -669.1 V 7.17188 H 5952.2 V 114.5 h -547.43"
             style="fill:#231f20;fill-opacity:1;fill-rule:nonzero;stroke:none"
             id="path845"
             inkscape:connector-curvature="0" /><path
             d="m 4651.86,1279.25 c -117.41,81.84 -230.35,109.08 -309.31,61.92 -153.22,-91.5 -120.49,-428.463 73.1,-752.627 193.58,-324.172 474.74,-512.7813 627.95,-421.281 78.96,47.16 108.54,159.5 92.17,301.687 C 5179.42,261.27 5150.29,91.8906 5041.88,27.1406 4861.89,-80.3516 4531.64,141.219 4304.23,522 c -227.4,380.789 -265.84,776.61 -85.85,884.11 108.4,64.74 271.34,10.05 433.48,-126.86"
             style="fill:#231f20;fill-opacity:1;fill-rule:nonzero;stroke:none"
             id="path847"
             inkscape:connector-curvature="0" /></g></g></g></g></svg>