<svg xmlns="http://www.w3.org/2000/svg" role="img" viewBox="-6.70 123.30 4768.40 1958.40"><path fill="#FEFFFF" d="M3604 2200H2.0008C2.00055 1467.33386 2.00055 734.66785 2.00028 2.0013c1593.99875-.00043 3187.99778-.00043 4781.99778-.00087.00048 732.66491.00048 1465.33026.00097 2197.99762C4391 2200 3998 2200 3604 2200M312.08273 828.33594c-3.69229-2.33564-3.53183-6.0113-3.52588-9.73358.04468-27.99915.21433-56.00037-.10595-83.99585-.0675-5.89801 2.13955-8.98737 7.01391-11.72968 22.3558-12.57715 44.54667-25.44757 66.78595-38.2315 6.60974-3.79957 13.18433-7.66028 19.81955-11.51893V490.64563c-1.98257-1.32577-3.83575-2.71661-5.82516-3.87317-48.09683-27.96274-96.25974-55.81262-144.24486-83.96555-5.35573-3.14227-9.32039-2.88986-14.50653.12922-40.88059 23.7984-81.91472 47.33303-122.89253 70.9645-9.49812 5.47745-18.96148 11.0152-28.29317 16.43934v182.6424c2.99815 1.8123 5.80488 3.5703 8.66843 5.23022 25.6515 14.86938 51.16679 29.9843 77.07054 44.401 6.78587 3.77667 9.06819 8.0028 9.00755 15.68292-.36586 46.32904-.05946 92.66315-.30003 138.99383-.03266 6.28858 1.85737 10.35187 6.78459 14.34723 41.15874 33.37409 82.0868 67.03266 123.06505 100.62915 2.48266 2.03534 4.80005 4.27228 7.44879 6.64325-2.07864 1.83441-3.5246 3.20032-5.06198 4.45417-41.06516 33.48913-82.03188 67.10095-123.3194 100.31372-6.83012 5.49438-9.61673 11.15942-9.59224 20.09777.31773 115.99585.1384 231.9928.37376 347.98902.0148 7.28357-2.23426 11.18725-8.59777 14.75012-26.15755 14.64526-51.83955 30.13904-77.97524 44.82446-6.3735 3.58118-8.45808 7.64392-8.41395 14.90223.33237 54.66296.18026 109.3291.1796 163.99414-.00005 2.96618 0 5.9325 0 8.93359 52.71632 30.42505 104.92243 60.55554 157.08407 90.6604 1.52179-.69678 2.77057-1.15234 3.90616-1.80518 49.38675-28.38708 98.71359-56.87915 148.2113-85.07116 5.54568-3.1587 6.7276-7.03418 6.70764-12.89453-.18747-54.9978-.11212-109.99646-.11276-164.99488-.00003-2.64892 0-5.29773 0-8.2445-3.59683-2.21741-6.93478-4.3811-10.37058-6.37635-24.77447-14.3866-49.43316-28.98218-74.44717-42.94043-6.64865-3.71008-9.16086-7.719-9.13574-15.53527.3118-96.99622.27496-193.9939.05362-290.9906-.01596-7.00635 2.04059-11.45765 7.54937-15.92322 56.43665-45.74964 112.61762-91.81458 168.8747-137.78565 51.35474-41.96503 102.70923-83.93036 154.094-125.85858 2.10198-1.71515 4.51165-3.05322 7.76574-5.2268 0 5.3908-.00006 9.0506 0 12.71032.00061 46.33203.00171 92.664.00177 138.99603.00018 202.66077-.0512 405.32178.19543 607.98218.0094 7.76453-2.33422 11.84387-9.05163 15.56384-25.35028 14.03785-50.33612 28.73438-75.43518 43.22474-3.38861 1.95605-6.64496 4.14135-9.46668 5.90966v182.9331c52.44727 30.26832 104.64295 60.39137 157.03614 90.62855 52.47601-30.29175 104.67145-60.4215 156.9986-90.6272.17907-2.93591.47857-5.56982.47985-8.20398.02637-55.66504-.09033-111.33069.16925-166.9945.02954-6.33497-2.50494-9.42981-7.63196-12.33545-26.37298-14.94654-52.44598-30.42542-78.90972-45.20642-6.06086-3.3855-8.20173-7.1067-8.16694-14.01172.28193-55.99695.28437-111.99659-.01019-167.99341-.03692-7.02686 2.0326-11.50049 7.50684-15.94763 67.51281-54.84644 134.81396-109.95337 202.18133-164.97876 5.87134-4.79566 11.82569-9.48963 17.75385-14.2406 1.72497 1.17236 2.8681 1.82849 3.87488 2.65124 34.06427 27.8368 68.0667 55.74976 102.23748 83.45508 3.81275 3.0913 5.03858 6.40881 5.01294 11.0979-.15307 27.99841-.22058 55.99939.04663 83.9961.05445 5.69067-1.6543 8.92639-6.75134 11.78454-26.14868 14.66248-51.896 30.04565-78.14697 44.51807-6.857 3.78027-9.07697 7.99658-9.03034 15.65735.3305 54.3297.31012 108.66308.00129 162.99316-.03925 6.91687 2.07586 10.75195 8.05505 14.16089 34.72583 19.79858 69.22143 40.00049 103.79932 60.0586 15.24108 8.84093 30.49206 17.6649 45.9912 26.64306 52.68922-30.61524 105.03248-61.0293 157.10193-91.28443v-182.92541c-2.69104-1.63086-5.2124-3.21594-7.78637-4.71045-25.92896-15.05371-51.74768-30.3042-77.88745-44.98254-6.31006-3.54346-8.74268-7.46497-8.68933-14.78675.33752-46.32959.01465-92.66382.34216-138.99353.04956-7.01452-1.91492-11.55359-7.40735-16.00146-40.14368-32.50977-80.02014-65.34973-119.96155-98.10913-3.25207-2.66736-6.3606-5.51001-10.17785-8.8296 4.10913-3.48486 7.3203-6.28967 10.61645-8.99084 38.92285-31.89721 77.6604-64.02649 116.96118-95.45141 7.70008-6.15699 10.01795-12.45276 9.99292-21.91138-.30603-115.32922-.20288-230.65949-.2058-345.9895v-10.83533c31.98315-18.58112 63.32177-36.78766 94.17297-54.71106V488.94263c-52.53077-30.50824-104.8816-60.91208-157.1443-91.26468-52.57763 31.16495-104.41955 61.89383-156.23473 92.60687v182.71066c3.74939 2.25952 7.3982 4.52954 11.11303 6.68585 25.06482 14.5484 50.06043 29.2198 75.28504 43.48603 5.31604 3.00653 7.2705 6.4381 7.2594 12.55523-.17774 97.99683-.16443 195.99415.00098 293.99103.00988 5.87818-1.66736 9.82508-6.32325 13.53638-21.1073 16.82556-41.93115 34.0066-62.85107 51.0669-87.29529 71.18957-174.58527 142.38586-261.90467 213.5459-1.87274 1.526-4.07714 2.64501-6.69238 4.31506V543.07953c31.38782-18.13696 62.47943-36.10272 93.32367-53.92557.15991-2.09527.34796-3.41351.34845-4.73181.02112-56.99832-.09985-113.99734.21167-170.99402.034-6.22058-2.78833-8.76483-7.4201-11.42303-47.96192-27.52558-95.84363-55.19104-143.76117-82.79416-2.25421-1.29854-4.6355-2.37633-6.80915-3.48142-1.6297.83863-2.8316 1.395-3.9743 2.05396-49.05896 28.29013-98.06158 56.67883-147.2417 84.75653-5.22278 2.98184-6.41235 6.55597-6.39758 12.03174.1482 54.99801.22967 109.99734-.07935 164.99401-.03906 6.95524 2.15137 10.81171 8.1197 14.16456 26.4284 14.84668 52.50713 30.31686 78.96941 45.10135 5.82025 3.25176 7.59388 6.98773 7.56574 13.44378-.2472 56.664-.25903 113.33002.00659 169.99378.03015 6.43493-2.23749 10.33905-7.02759 14.2356-62.82403 51.10455-125.50311 102.3872-188.22836 153.61309-10.54459 8.61145-21.13529 17.16626-32.13004 26.09253-35.74826-29.19635-71.06805-58.04273-107.54013-87.87451m1534.9141 43.70477h34.40148c0 12.6272-.00012 23.89685-.00012 35.16656v100.97742c0 11.33081-.0526 22.66199.0149 33.99231.06652 11.16516-.30982 22.35645.26562 33.52124h122.06787V872.04077c4.73303 0 8.33203.00019 11.93103 0 43.65686-.00201 87.31384-.03735 130.97083.01074 16.39868.018 32.55688-1.67083 48.43994-5.88836 31.7207-8.42328 51.97973-28.43604 60.96045-59.95874 5.60742-19.68152 7.96216-39.79065 7.96386-60.20893.0066-86.31402.00733-172.62805-.0183-258.94207-.00098-2.90488-.31202-5.80967-.5398-9.78498H2003.6875v-29.95035-29.99328c0-9.66452.07935-19.32984-.0221-28.99329-.10327-9.84222.46094-19.72873-.35253-29.4993H1881.3983c0 10.09409-.00012 19.67386-.00012 29.25367v29.99328c0 9.66452.09912 19.3303-.02746 28.99317-.1289 9.8456.57922 19.74615-.62293 30.49298h-259.9259v394.47546c75.08179 0 149.62903 0 226.17493-.00006m1454.34399 98.30084c-40.01343 12.52997-81.10596 20.51337-122.0376 27.97064v68.30133c13.75098-1.48242 26.6206-2.88427 39.49317-4.25476 43.7522-4.65808 87.08398-11.7644 129.80249-22.39685 64.89697-16.1524 124.35522-43.40063 176.04077-86.46331 3.30566-2.75403 6.62378-5.49292 10.28808-8.53089 2.6089 2.12659 4.93726 3.93769 7.1714 5.85907 42.49218 36.5451 90.29833 63.61658 143.88818 80.17102 62.03247 19.16248 126.03881 27.7738 190.29028 34.94715 1.54028.17175 3.1394-.18506 5.12842-.32459v-65.48157c-2.80298-.6886-5.35352-1.38977-7.93628-1.93829-28.96729-6.15149-58.15015-11.43524-86.85889-18.617-40.4961-10.13031-79.73144-23.97223-115.6748-45.81348-18.07276-10.98224-34.47168-23.96051-47.27198-41.02771-1.24658-1.66211-1.94165-3.7381-3.51562-6.85583h260.99512v-74.24146h-283.44483v-55.78253h173.23315c14.66602 0 29.33204.03936 43.9978-.0113 14.18433-.04907 28.38355.23627 42.45533-.19134v-72.74457c-14.82275-2.03778-648.00903-1.31842-654.72827.61261v72.65589h265.09595v55.98132h-290.74292v73.41327c1.07104.28717 1.39282.44873 1.71484.44922 86.65161.13458 173.30347.25744 259.95508.39135.66089.00104 1.33618.0915 1.9751.25544.2495.06402.44873.42688.61328.68963.16723.2674.26391.57929.68847 1.55317-2.97168 3.51788-6.00268 7.45062-9.38672 11.0515-13.59521 14.46644-29.63696 25.76008-46.82324 35.49269-26.2168 14.8465-54.20996 25.45544-84.40576 34.88018m-510.12012 441.60157c13.54541 146.16919 27.09082 292.33837 40.65576 438.72021H2966.511c.78466-4.88 1.53833-9.39575 2.23413-13.92053 9.35742-60.87574 19.9226-121.55188 25.81299-182.9519 6.52002-67.96375 14.44555-135.79298 21.86181-203.66968.57324-5.24842.88648-10.67383 3.45996-15.64405 1.40064 2.20862 1.92969 4.31153 2.16016 6.44666 2.21289 20.53296 4.34595 41.07458 6.5586 61.60766 4.46117 41.39295 8.94897 82.7832 13.4431 124.17261 3.09156 28.47473 5.52784 57.042 9.49073 85.3955 5.11377 36.59022 11.42896 73.0132 17.29346 109.49757 1.56885 9.76172 3.3811 19.48437 5.03174 28.93896h131.60766c2.4524-15.28247 59.80493-611.9596 57.52686-621.0907h-75.15528c-15.24414 183.35096-30.44116 366.13623-45.59912 548.44971-6.48169 1.78125-7.50146-1.28479-8.10913-5.48181-6.63086-45.80286-13.38086-91.5885-20.06225-137.38391-6.92261-47.44629-13.77149-94.9032-20.7151-142.34632-7.76318-53.0426-15.58495-106.07653-23.40722-159.11035-2.17456-14.7434-4.43994-29.47326-6.62695-43.96447-12.8457-1.94702-81.23755-1.45716-88.55493.63232-1.16626 8.35999-2.3186 16.91675-3.5586 25.46082-6.36035 43.8247-12.78271 87.64062-19.10644 131.4707-5.75342 39.87707-11.38965 79.771-17.11084 119.65295-6.3352 44.16224-12.72046 88.31726-19.05957 132.47913-3.45361 24.06152-6.81616 48.1366-10.30908 72.1925-1.08765 7.48975-1.45362 7.61072-10.31739 5.68482-15.36401-182.24683-30.7456-364.70557-46.17407-547.71692h-74.00757c-.35595 1.28125-.7373 1.9358-.68066 2.55005 5.46802 59.37304 10.969 118.74304 16.78271 179.92846m967.42066-755.87945c6.2793-.72608 12.60595-1.17212 18.83008-2.22467 34.6433-5.85889 55.46655-25.51862 62.37817-59.96307 2.40893-12.00605 3.88135-24.4035 3.97412-36.636.41772-54.97198.19312-109.94887.16138-164.92403-.00147-2.56073-.37964-5.12131-.594-7.82819H3216.5713v271.86942h12.39136c169.92334 0 339.84643.00201 509.76977-.00855 5.99634-.00036 11.99243-.12457 19.90894-.28491M4249.4502 1601v-368.55981h-75.22998c-.16358 2.2323-.3833 3.84509-.38526 5.45812-.02441 18.3302-.16357 36.662.01172 54.99048.70947 74.2832-1.9961 148.59693 3.76709 222.83228 4.09912 52.80115 6.57129 105.729 9.74268 158.60193.14306 2.3927.01806 4.80151.01806 7.20288-2.9209-2.7539-4.09228-5.68189-4.9292-8.70252-6.22021-22.45398-12.34424-44.93457-18.55517-67.39123-14.28418-51.64563-27.67237-103.56165-43.12793-154.85474-21.41455-71.06945-44.38501-141.67004-66.73023-212.4585-.76929-2.43737-1.97754-4.73644-2.80517-6.68603h-100.57056v616.75488c13.59912 1.84766 66.12402 1.31519 73.18994-.69934.11939-1.22839.36987-2.5404.35718-3.84985-1.15332-116.95496 2.59106-233.94629-2.49097-350.87036-1.50464-34.6145-3.47949-69.20825-5.06054-103.8197-.38208-8.36622-.05665-16.76477-.05665-25.14844 25.4629 80.59155 49.51368 161.46008 74.56714 242.01684 25.17505 80.94751 51.3479 161.5846 76.92847 241.8717 20.28418 1.76441 73.51904 1.09364 81.35938-1.08166V1601M2466.12622 737c.00342 55.3255.0083 110.651.01001 165.9765.0017 55.4884.00024 110.9768.00024 166.43h109.5481v-85.41193c0-27.99646-.12305-55.9936.03442-83.9892.15845-28.12597-.687-56.2779.51758-84.8639h27.20288c8.33228 0 16.67212.2234 24.99463-.06218 8.46582-.2906 17.07105 1.3006 25.95386-1.1537 0-10.08416.11475-19.72613-.08691-29.36156-.04615-2.19709-.64869-4.76252-1.90845-6.49384-9.9768-13.711-18.13526-28.904-31.0442-40.2702-12.98046-11.42877-26.18334-22.63135-39.74242-33.35968-4.08032-3.22858-6.10156-6.08203-6.01758-11.39057.3064-19.32592.09033-38.65985.14892-57.99054.0066-2.20373.50367-4.406.8877-7.54156h82.11475V553.135h-82.44727v-86.91833c29.6941-2.82242 58.64746-6.74665 87.1167-14.54651v-77.32099c-4.24536.95969-7.792 1.72269-11.31983 2.56476-39.66479 9.46768-79.79345 15.14273-120.65844 15.07565-46.66065-.07657-93.32154-.0176-139.98218-.01754h-11.07764v74.51254h89.94898c-.08228 29.42654.13574 57.83041-.16162 87.20083h-97.2229v74.44434h93.19091c0 36.35217 0 71.6112-.00024 108.87024m-726.97144 858.02856v-19.1311h139.40357V1847.224h74.84692v-615.0796c-10.8169-2.24303-67.59094-1.79674-75.6012.81544v269.99768c-17.0913 1.8623-130.2832 1.20251-138.27502-.9303v-270.58508H1621.214c-1.81372 13.32007-1.2793 67.11743.91382 74.88415h73.67029c-2.85108 3.6615-3.94239 6.02234-5.7876 7.25257-5.53687 3.69214-11.15894 7.37756-17.13819 10.25378-7.17297 3.45056-9.4414 8.31592-9.42846 16.40381.26428 165.65332.19702 331.30737.19568 496.96118-.00013 3.22925 0 6.45838 0 10.1233h75.51452c0-83.80604 0-167.0542.00073-252.29237m2853.4292 242.63233c25.05225-26.7528 50.02344-53.58228 75.2334-80.18567 4.36524-4.60645 6.58057-9.12232 6.55713-15.75562-.2583-73.65002-.16015-147.3015-.18847-220.95251-.00147-3.23181-.2964-6.46362-.47364-10.07971h-157.4331v74.66052c27.68066.47437 54.79248-.29944 82.24023.4452 0 44.43615.07617 87.4154-.16894 130.39257-.0166 2.9187-1.82227 6.38574-3.85547 8.64404-13.59912 15.104-27.6045 29.84314-41.19824 44.95203-3.4756 3.8634-7.17872 5.2102-12.22315 5.12231-14.32568-.24975-28.66309-.27417-42.9873.02869-5.1543.10889-8.73975-1.62769-12.14112-5.37476-12.76513-14.06262-25.5791-28.09277-38.79638-41.72583-5.00684-5.16455-6.95704-10.4591-6.9336-17.69506.25244-77.98255.15674-155.96644.15723-233.94983.00049-38.3252.10889-76.65088-.104-114.97486-.03223-5.7721 1.60742-9.92968 5.7661-13.9862 13.35645-13.0276 26.43604-26.34742 39.3584-39.80713 3.51075-3.65686 7.0586-5.29688 12.19141-5.18238 14.65625.32715 29.33106.37159 43.98487-.00854 5.55566-.14417 9.34033 1.81848 13.03906 5.66736 12.69824 13.21301 25.51465 26.32092 38.58838 39.161 3.8916 3.82154 5.47705 7.75196 5.41699 13.16334-.23926 21.65942-.1123 43.323-.06787 64.9851.00635 2.88563.31592 5.77088.48877 8.72791h74.37011c.34864-1.54883.74366-2.4873.74463-3.42639.03565-34.32593-.06152-68.65234.15137-102.97693.02832-4.60962-2.08838-7.38745-4.98535-10.27832-27.12793-27.0719-54.25879-54.141-81.24512-81.35315-3.5498-3.57934-7.21484-5.20068-12.3042-5.17712-36.9912.17138-73.98437.1881-110.97558.00256-5.44336-.02734-9.38233 1.6576-13.18701 5.49732-26.74122 26.98645-53.58448 53.8728-80.60254 80.58117-3.90967 3.86463-5.32325 7.81238-5.28272 13.1853.21338 28.32569.104 56.65394.104 84.9812-.00048 108.64356.03467 217.28712-.09228 325.93055-.00732 6.29724 1.29639 11.15735 5.90723 15.98681 26.22851 27.47474 52.14844 55.24707 77.9287 83.14356 4.6255 5.00476 9.3296 7.35107 16.33985 7.28284 35.32227-.34473 70.65381-.41516 105.97364.03125 8.38134.10595 15.01855-1.42286 20.70458-9.68262m-1913.38964-281.8728c-5.01368-33.57776-10.07789-67.1482-15.03101-100.73487-10.34375-70.14026-20.61914-140.29053-30.95654-210.43176-.7566-5.13257-1.78565-10.2251-2.6438-15.08606h-145.21875c-30.44434 206.16614-60.80103 411.73791-91.19995 617.5968h74.90234c8.1145-53.86645 16.12622-107.04993 24.1438-160.27344h128.5105c8.13647 53.8014 16.21753 107.23572 24.27148 160.49183h75.5957c-.17163-2.80225-.14917-5.06336-.47094-7.27442-2.34717-16.13855-4.77002-32.26623-7.15747-48.39905-6.33594-42.8064-12.69312-85.60962-18.98877-128.42187-5.18189-35.23792-10.28858-70.48682-15.7566-107.46716M2185 1228.8236c-21.50464.02539-43.01172-.05884-64.13477.05847-6.36767 27.43347-91.41467 610.30579-90.33789 618.65771h73.78052c8.09961-53.62951 16.17407-107.09167 24.19751-160.2163 16.66504-2.0675 121.60132-1.35791 128.79688.79455 7.99023 53.06592 15.99926 106.25525 23.9834 159.27942h75.54003a526814323.72727 526814323.72727 0 0 0-91.32055-618.57312c-26.6333 0-52.5691 0-80.50513-.00073m817.58472-557.82349v-305.3204c-14.7776-2.22107-104.85987-1.53192-112.04956.83597V634.1665c0 29.6579.09863 59.31617-.02808 88.97351-.12573 29.47687.56738 58.97242-.46948 89.24946h-221.1377v76.3056h221.63526c0 31.44195-.07593 61.73852.02124 92.0346.09668 30.15925-.42994 60.33234.32153 90.34272h111.70679v-61.43585c0-19.99408-.03443-39.98829.00952-59.9823.04443-20.19458-.2002-40.39832.17358-61.28388h27.18994c8.66407 0 17.3357.2262 25.99-.0642 8.47582-.28437 17.09277 1.32268 25.33154-.97437v-75.36865h-78.69434c0-47.11933 0-93.0412-.00024-140.96302M3355.7998 1499v173.95093c0 29.32544-.0652 58.651.01855 87.9762.08203 28.81078-.37402 57.63452.30249 86.93432 25.80713-.01953 50.25928.12769 75.7439-.08923V1555.1488c9.99682 0 18.99414.58545 27.8772-.17114 8.23168-.70093 12.25439 2.42664 15.70092 9.85046 42.62183 91.8058 85.58472 183.45313 128.48364 275.13013 1.24414 2.65894 2.74854 5.19592 3.91407 7.38208h82.1997c-1.31494-3.17724-2.21045-5.5979-3.2976-7.92932-15.19776-32.59045-30.40772-65.17541-45.64112-97.74914-33.5686-71.77955-67.06128-143.59473-100.87866-215.25672-3.17285-6.72302-3.07764-12.08032.18164-18.60583 9.3711-18.7633 18.15796-37.81897 27.14453-56.77405 33.09229-69.80005 66.17774-139.60327 99.2378-209.4187 1.46582-3.09522 2.6538-6.32202 4.5166-10.79798-4.77735 0-7.71314-.00024-10.64868 0-20.66114.00183-41.3313.35608-61.97828-.1814-7.46899-.19445-11.17016 2.38758-14.29516 9.02784-29.20923 62.05798-58.7456 123.96216-88.18482 185.91199-7.57422 15.9392-15.04101 31.93103-22.81225 47.77343-1.18677 2.41883-3.68042 5.83387-5.70899 5.93274-11.82837.57642-23.70825.55103-36.20996.07996v-83.1449c0-27.65918.00513-55.31836-.00146-82.97754-.0066-27.16992-.02515-54.33972-.03858-81.73645h-75.62573c0 88.95752 0 177.23157.00025 267.50574M4171 514.02228h502.50098V435.6329h-75.57178c-12.66455 0-25.3296.01474-37.99414-.00418-12.5254-.0187-25.05713.08896-38.4043-.08587V378.3125H4409.4463v56.73941H4232v-56.7098c-21.01025-1.96049-104.52148-1.15345-112.44629 1.22845v56.15014h-150.84448v78.30158H4171m291.98047 462.78943c-26.31787-.10425-52.64112.07617-78.95166-.4162-16.61377-.31091-33.41455-.28302-49.76807-2.78388-30.13086-4.60803-51.81347-20.71746-59.33056-51.58026-2.49073-10.22699-3.2998-21.0857-3.31739-31.6582-.16357-99.2865.01514-198.57367.07666-297.8606.00245-3.50695-.19043-7.01404-.30761-11.07232-30.33106.00091-59.44727-.20874-89.24073.12274 0 4.3971-.01123 7.34454.00196 10.29187.49853 108.60168.82226 217.20453 1.56787 325.8045.41553 60.47345 46.79687 117.76459 106.10351 130.29828 17.79834 3.76148 36.3081 5.3435 54.53174 5.66419 41.62354.7323 83.27246.21606 124.9087-.09656 18.6079-.13965 37.21044-1.00977 57.08446-1.5852a7976569.58546 7976569.58546 0 0 1-33.50732-75.12781c-9.33447 0-18.59912 0-29.85156-.00055m-631.28565 264.4356c-.06298-4.1875-.12597-8.37512-.18676-12.41992h-74.93262v618.00122c13.8623 2.06592 68.13476 1.45935 75.1189-.8601 0-200.84217 0-401.80799.00048-604.7212M4526.1338 663c0 31.31152-.45313 62.63117.11182 93.9325.74462 41.26715 1.30615 82.57745 3.72265 123.76495 3.46826 59.11078 27.31934 109.89471 67.2998 153.21649 8.28223 8.97424 17.33594 17.23657 26.8335 26.61658a5844283.62558 5844283.62558 0 0 1 50.1128-70.15235c-2.43555-3.00427-4.47364-5.5758-6.5713-8.0976-35.7578-42.98913-52.57617-92.56829-52.39013-148.34515.27783-83.26946.17236-166.54028.18262-249.81048.00048-2.5144-.53077-5.029-.79785-7.40216h-88.50391V663m-427.55322-67.93243c-.20508-6.16205-.41065-12.32416-.60596-18.1955h-87.66504c-.20898 2.04376-.46167 3.35205-.45923 4.65979.15674 77.92236.24585 155.8451.56812 233.76678.08838 21.35132-.70484 42.58967-4.43946 63.65088-7.00537 39.51008-22.42187 75.08106-49.24438 105.32917-1.7185 1.9378-3.24634 4.04461-5.05542 6.31414 16.47656 23.43879 32.70605 46.52594 49.2251 70.02485 2.3579-1.896 4.31933-3.14759 5.88061-4.78125 9.6565-10.1051 19.78614-19.82642 28.72241-30.53956 40.41626-48.45288 62.7378-103.87219 62.8457-167.489.14698-86.92054.16016-173.84138.22755-262.7403m-1681.5818 79.23303h-45.1953c0 5.04492-.00318 8.67761.00073 12.31036.05713 53.31085.04272 106.62195.19311 159.93256.14844 52.67712-15.93188 99.4652-50.1731 139.77557-1.65649 1.9502-3.03783 4.13422-4.6743 6.38404 15.55102 21.68866 30.75585 42.89465 46.30175 64.57604 32.2622-28.1007 56.94385-59.80651 72.53955-98.28082 12.84863-31.69708 17.02173-65.06177 17.57202-98.7738.96729-59.29535.74024-118.61023.95484-177.91718.00927-2.49927-.57154-5.0006-.93921-8.00665-12.00489 0-23.29322 0-36.58008-.00012m2034.24829 203.80353c2.2461-1.22785 4.49219-2.4557 6.95508-3.80213-1.45655-5.31506-2.8252-10.07977-4.06787-14.87701-11.85108-45.74982-15.63428-92.50946-15.91016-139.49976-.25976-44.26135 1.1504-88.53253 1.81348-132.79956.05224-3.48205.00683-6.96558.00683-10.30908h-88.21093c-.15723 3.30579-.3999 5.93701-.38965 8.56738.25781 67.92267.4663 135.8457.87305 203.76758.10546 17.64935.8667 35.32874 5.56738 52.47992 5.62304 20.52142 11.65527 40.93085 17.52832 61.38367.78369 2.72802 1.67138 5.4259 2.65185 8.5918 24.61573-11.27527 48.20118-22.07838 73.18262-33.50281m-1633.3496-95.05158c10.89452.69513 21.7893 1.39032 33.11083 2.11273.40527-2.10919.95874-3.67737.96924-5.24914.09619-14.62635 1.01733-29.31995-.0376-43.86804-3.58887-49.48609-22.74194-91.96326-59.25415-126.05506-31.86157-29.74957-70.13647-47.77923-111.39795-60.19879-1.2002-.3612-2.54199-.25085-4.32666-.404v85.29054c4.9165 1.78955 9.55396 3.48284 14.19531 5.16613 25.25 9.1573 48.88355 21.17475 68.6211 39.7677 21.1084 19.88446 34.5503 43.81977 36.6958 73.17835.67212 9.19928.10473 18.4892.10473 28.52978 6.37476.47675 12.93165.9671 21.31934 1.7298m-11.26782-180.2077c17.50464 1.28888 35.00903 2.5777 52.75268 3.88422.49463-2.37195.97486-3.60962.97681-4.84803.02344-15.94812 1.05713-31.9851-.24829-47.828-4.17871-50.7088-25.34741-93.25015-63.67749-126.99142-25.3584-22.32233-54.66626-37.76557-86.26953-49.1163-7.74878-2.78303-15.64697-5.15018-24.25293-7.96232v85.52881c.71582.60254 1.15503 1.20584 1.73804 1.42416 3.11279 1.16507 6.26318 2.22965 9.3977 3.33664 23.06665 8.14573 44.90576 18.63904 63.91406 34.28852 29.15552 24.00369 45.36158 54.36874 44.81372 92.756-.07006 4.91157-.44409 9.8188.85523 15.52772z"/><path fill="#225AB0" d="M312.65888 828.82861c35.89593 29.33911 71.21572 58.18549 106.96398 87.38184 10.99475-8.92627 21.58545-17.48108 32.13004-26.09253 62.72525-51.2259 125.40433-102.50855 188.22836-153.6131 4.7901-3.89654 7.05774-7.80066 7.02759-14.2356-.26563-56.66375-.25378-113.32977-.0066-169.99377.02815-6.45605-1.74548-10.19201-7.56573-13.44378-26.46228-14.78449-52.54101-30.25467-78.96942-45.10135-5.96832-3.35285-8.15875-7.20932-8.11969-14.16456.30902-54.99667.22754-109.996.07935-164.99401-.01477-5.47577 1.1748-9.0499 6.39758-12.03174 49.18012-28.0777 98.18274-56.4664 147.2417-84.75653 1.1427-.65895 2.3446-1.21533 3.9743-2.05396 2.17365 1.10509 4.55494 2.18288 6.80915 3.48142 47.91754 27.60312 95.79925 55.26858 143.76117 82.79416 4.63177 2.6582 7.4541 5.20245 7.4201 11.42303-.31152 56.99667-.19055 113.9957-.21167 170.99402-.00049 1.3183-.18854 2.63654-.34845 4.73181-30.84424 17.82285-61.93585 35.7886-93.32367 53.92557v769.09833c2.61524-1.67005 4.81964-2.78907 6.69238-4.31507 87.3194-71.16003 174.60938-142.35632 261.90467-213.5459 20.91992-17.0603 41.74377-34.24133 62.85107-51.06689 4.65589-3.7113 6.33313-7.6582 6.32325-13.53638-.16541-97.99688-.17872-195.9942-.00098-293.99103.0111-6.11712-1.94336-9.5487-7.2594-12.55523-25.22461-14.26624-50.22022-28.93762-75.28504-43.48603-3.71484-2.1563-7.36364-4.42633-11.11303-6.68585V490.28482c51.81518-30.71304 103.6571-61.44192 156.23474-92.60687 52.2627 30.3526 104.61352 60.75644 157.14429 91.26468v183.15173c-30.8512 17.9234-62.18982 36.12994-94.17298 54.71106v10.83533c.00293 115.33001-.10022 230.66027.20581 345.9895.02503 9.45862-2.29284 15.7544-9.99292 21.91138-39.30078 31.42492-78.03833 63.5542-116.96118 95.45141-3.29614 2.70117-6.50732 5.50598-10.61645 8.99085 3.81726 3.31958 6.92578 6.16223 10.17785 8.82959 39.9414 32.7594 79.81787 65.59936 119.96155 98.10913 5.49243 4.44787 7.45691 8.98694 7.40735 16.00146-.32751 46.32971-.00464 92.66394-.34216 138.99353-.05335 7.32178 2.37927 11.24329 8.68933 14.78675 26.13977 14.67834 51.9585 29.92883 77.88745 44.98254 2.57397 1.4945 5.09533 3.07959 7.78637 4.71045v182.92541c-52.06945 30.25513-104.41271 60.6692-157.10192 91.28443-15.49915-8.97815-30.75013-17.80213-45.99121-26.64307-34.57789-20.0581-69.0735-40.26-103.79932-60.0586-5.97919-3.40893-8.0943-7.24401-8.05505-14.16088.30883-54.33008.32922-108.66345-.00129-162.99316-.04663-7.66077 2.17334-11.87708 9.03034-15.65735 26.25098-14.47242 51.99829-29.8556 78.14697-44.51807 5.09705-2.85815 6.80579-6.09387 6.75134-11.78455-.2672-27.9967-.1997-55.99768-.04663-83.99609.02564-4.68909-1.2002-8.0066-5.01294-11.0979-34.17077-27.70532-68.17321-55.61829-102.23748-83.45508-1.00678-.82275-2.1499-1.47888-3.87488-2.65124-5.92816 4.75097-11.88251 9.44494-17.75385 14.2406-67.36737 55.02539-134.66852 110.13232-202.18133 164.97876-5.47425 4.44714-7.54377 8.92077-7.50684 15.94763.29456 55.99682.29211 111.99646.0102 167.9934-.0348 6.90504 2.10607 10.62623 8.16693 14.01173 26.46374 14.781 52.53674 30.25988 78.90972 45.20642 5.12702 2.90564 7.6615 6.00049 7.63196 12.33545-.25958 55.66381-.14288 111.32946-.16925 166.9945-.00128 2.63416-.30078 5.26807-.47986 8.20398a99661919.20094 99661919.20094 0 0 0-156.9986 90.6272c-52.39318-30.23718-104.58886-60.36023-157.03613-90.62854v-182.9331c2.82172-1.76832 6.07807-3.95362 9.46668-5.90967 25.09906-14.49036 50.0849-29.1869 75.43518-43.22474 6.7174-3.71997 9.06104-7.79931 9.05164-15.56384-.24665-202.6604-.19526-405.3214-.19544-607.98218-.00006-46.33203-.00116-92.664-.00177-138.99603-.00006-3.65973 0-7.31952 0-12.71033-3.25409 2.17359-5.66376 3.51166-7.76575 5.22681-51.38476 41.92822-102.73925 83.89355-154.09399 125.85858-56.25708 45.97107-112.43805 92.03601-168.8747 137.78565-5.50878 4.46557-7.56533 8.91687-7.54937 15.92322.22134 96.9967.25818 193.99438-.05362 290.9906-.02512 7.81628 2.48709 11.82519 9.13574 15.53527 25.014 13.95826 49.6727 28.55384 74.44717 42.94043 3.4358 1.99524 6.77375 4.15894 10.37058 6.37635 0 2.94677-.00003 5.59558 0 8.2445.00064 54.99842-.0747 109.99707.11276 164.99488.01996 5.86035-1.16196 9.73584-6.70764 12.89453-49.49771 28.19201-98.82455 56.68408-148.2113 85.07116-1.1356.65284-2.38437 1.1084-3.90616 1.80518-52.16164-30.10486-104.36775-60.23535-157.08408-90.6604 0-3.0011-.00004-5.9674 0-8.9336.00067-54.66503.15278-109.33117-.1796-163.99413-.04412-7.2583 2.04046-11.32105 8.41396-14.90223 26.13569-14.68542 51.81769-30.1792 77.97524-44.82446 6.3635-3.56287 8.61256-7.46655 8.59778-14.75012-.23537-115.99622-.05603-231.99317-.37377-347.98902-.02449-8.93835 2.76212-14.60339 9.59224-20.09777 41.28752-33.21277 82.25424-66.82459 123.3194-100.31372 1.53738-1.25385 2.98334-2.61976 5.06198-4.45417-2.64874-2.37097-4.96613-4.6079-7.4488-6.64325-40.97823-33.5965-81.9063-67.25506-123.06504-100.62915-4.92722-3.99536-6.81725-8.05865-6.7846-14.34723.24058-46.33068-.06582-92.6648.30004-138.99383.06064-7.68012-2.22168-11.90625-9.00755-15.68292-25.90375-14.4167-51.41903-29.53162-77.07054-44.401-2.86355-1.65992-5.67028-3.41791-8.66843-5.23023v-182.6424c9.33169-5.42413 18.79505-10.96188 28.29317-16.43932 40.97781-23.63148 82.01194-47.16611 122.89253-70.96451 5.18614-3.01908 9.1508-3.27149 14.50653-.12921 47.98512 28.15292 96.14803 56.0028 144.24486 83.96554 1.9894 1.15656 3.84259 2.5474 5.82516 3.87317V673.1264c-6.63522 3.85865-13.2098 7.71936-19.81955 11.51892-22.23928 12.78394-44.43014 25.65436-66.78595 38.23151-4.87436 2.74231-7.08142 5.83167-7.01391 11.72968.32028 27.99548.15063 55.9967.10595 83.99585-.00595 3.72229-.1664 7.39795 4.10203 10.22625m893.5125 801.98462v-20.59277l-30.4768-17.79114c-3.1466 1.80017-5.49866 3.04065-7.7445 4.44995-7.56153 4.74427-15.08497 9.54883-22.6228 14.33033-.15028 9.2976-.183 18.59936-.50477 27.8911-.14172 4.09608 1.1477 6.8694 4.86694 8.89954 7.00037 3.8208 13.95362 7.77112 20.63611 12.11426 3.97913 2.5863 7.18506 2.19983 10.97669-.19104 6.46362-4.0758 13.0819-7.92554 19.7898-11.58691 3.59533-1.96228 5.60473-4.38489 5.12108-8.66382-.25988-2.2987-.04333-4.65125-.04174-8.8595m-20.95044-1078.89447c-3.15698-1.77484-6.31385-3.54974-9.65296-5.427-8.83166 5.1247-17.3396 10.23676-26.03076 15.0158-3.3269 1.82954-4.7987 4.09675-4.67297 7.89192.31811 9.59796.39111 19.20404.56238 28.80682 7.78112 4.94891 15.55993 9.90161 23.34704 14.84112.83887.53217 1.7821.9109 2.58167 1.49195 2.72058 1.97723 5.35327 2.0434 8.2926.27594 8.76245-5.26874 17.61194-10.39246 26.27759-15.48474v-35.06214c-6.41846-3.84558-12.93213-7.74817-20.7046-12.34967M736.50849 416.6831c1.17249-1.47024 3.3111-2.90847 3.36115-4.41595.33105-9.97781.35272-19.97406.09808-29.95468-.03985-1.56116-1.66131-3.64694-3.12842-4.51431-9.09082-5.3746-18.34655-10.47034-27.21563-15.4715-9.29993 5.25397-17.83295 9.78665-26.01013 14.88946-2.14038 1.33567-4.36731 4.37256-4.50623 6.74793-.52405 8.95987-.45227 17.98099-.02136 26.9512.10449 2.17624 1.93237 5.06674 3.82623 6.22367 8.7489 5.34442 17.80078 10.19293 26.74878 15.2218 8.86835-5.13266 17.20471-9.9574 26.84753-15.67762m.79407 1375.89808c-7.4571-4.33496-15.0011-8.52942-22.33319-13.0664-3.46265-2.14259-6.41687-2.66053-10.068-.37818-7.02874 4.39428-14.22839 8.52478-21.46331 12.57495-3.2583 1.82422-4.70605 4.20508-4.61096 8.00024.19946 7.96082.16632 15.93225.0111 23.89502-.07202 3.69568 1.09907 6.28467 4.44929 8.11084 7.57153 4.12732 14.92303 8.67188 22.60284 12.57727 1.95886.9961 5.26404 1.1228 7.17206.13904 9.10345-4.6941 17.9386-9.90833 27.10278-15.0691 0-8.0598.17676-15.68066-.07019-23.28759-.13544-4.16907-.98614-8.3147-2.79242-13.4961M263.33704 557.87635L243.6073 546.4762c-8.76965 5.09558-17.02742 10.03363-25.43245 14.70678-3.24966 1.80683-4.8557 4.00757-4.759 7.8642.20808 8.29999.16372 16.61133-.0044 24.9134-.07481 3.69463 1.06188 6.22167 4.43174 8.07726 7.2691 4.00293 14.45057 8.18128 21.50427 12.55188 3.3235 2.05927 6.05848 1.65234 9.2039-.27057 7.08084-4.32892 14.26013-8.50287 21.49079-12.57763 2.92129-1.64618 4.2119-3.78089 4.16055-7.18702-.14997-9.9436-.05329-19.89086-.05329-30.08166-3.32446-2.08148-6.39694-4.00519-10.81237-6.5965m-3.84732 1043.75733c-5.40564-3.09607-10.81127-6.19226-15.97844-9.15174-9.07978 5.31128-17.3395 10.26368-25.72943 14.98474-2.91868 1.64234-4.394 3.64405-4.35068 7.0896.12895 10.25855.04626 20.5199.04626 30.8639 8.86072 5.18713 17.22708 9.94177 25.43218 14.95996 3.18939 1.95068 5.90246 2.2417 9.19793.21972 8.4765-5.20068 17.10953-10.14636 26.05863-15.41687 0-6.44152-.72064-12.83776.1545-19.00757 1.66715-11.75305-1.94054-19.91015-14.83095-24.54174zm1586.50784-729.5929H1620.8219V477.56531h259.9259c1.20215-10.74683.49402-20.64737.62293-30.49298.12658-9.66288.02746-19.32865.02746-28.99317v-29.99328c0-9.5798.00012-19.15958.00012-29.25367h121.91456c.81347 9.77057.24926 19.65708.35253 29.4993.10145 9.66345.0221 19.32877.0221 28.99329v59.94363h259.76709c.22778 3.97531.53882 6.8801.5398 9.78498.02563 86.31402.0249 172.62805.0183 258.94207-.0017 20.41828-2.35644 40.5274-7.96386 60.20893-8.98072 31.5227-29.23975 51.53546-60.96045 59.95874-15.88306 4.21753-32.04126 5.90637-48.43994 5.88836-43.65699-.0481-87.31397-.01275-130.97083-.01074-3.599.00019-7.198 0-11.93103 0v203.65747h-122.06787c-.57544-11.1648-.1991-22.35608-.26562-33.52124-.0675-11.33032-.0149-22.6615-.0149-33.9923v-33.99244-32.99261-33.99238c0-11.2697.00012-22.53936.00012-35.16656-12.01965 0-23.21057 0-35.40075.00006m22.74329-316.18994c-22.662-.00012-45.32398-.0147-67.98597.00366-22.49292.01825-44.98596.06952-67.49829.10626v237.07001h147.62085V556.30774c-3.74158-.16705-6.98108-.31165-12.1366-.45691m283.2389 31.15637v-30.41577h-147.73755v236.55548c2.43213.18738 4.35315.46295 6.27441.46442 32.62659.02447 65.25318.05286 97.87964-.0404 3.63037-.01038 7.29639-.5481 10.88135-1.19697 17.50903-3.16894 27.19262-12.28247 30.51904-29.7669 1.4812-7.78498 2.052-15.8473 2.0813-23.78724.1836-49.9381.09814-99.8772.1018-151.81262z"/><path fill="#235AB0" d="M3302.11426 970.13751c29.42236-9.2207 57.41553-19.82965 83.63232-34.67615 17.18628-9.7326 33.22803-21.02624 46.82324-35.49267 3.38404-3.6009 6.41504-7.53363 9.38672-11.05151-.42456-.97388-.52124-1.28577-.68847-1.55317-.16455-.26275-.36377-.6256-.61328-.68963-.63892-.16394-1.31421-.2544-1.9751-.25544-86.65161-.1339-173.30347-.25677-259.95508-.39135-.32202-.00049-.6438-.16205-1.71484-.44922V812.1651h290.74292v-55.98132h-265.09595v-72.65589c6.71924-1.93103 639.90552-2.65039 654.72827-.6126v72.74456c-14.07178.42761-28.271.14227-42.45532.19135-14.66577.05066-29.33179.01129-43.9978.01129h-173.23316v55.78253h283.44483v74.24145h-260.99512c1.57397 3.11774 2.26904 5.19373 3.51562 6.85584 12.8003 17.0672 29.19922 30.04547 47.27198 41.02771 35.94335 21.84125 75.1787 35.68317 115.6748 45.81348 28.70874 7.18176 57.8916 12.46551 86.85889 18.617 2.58276.54852 5.1333 1.2497 7.93628 1.9383v65.48156c-1.98902.13953-3.58814.49634-5.12842.32459-64.25147-7.17334-128.25781-15.78467-190.29029-34.94715-53.58984-16.55444-101.396-43.62591-143.88818-80.17102-2.23413-1.92138-4.5625-3.73248-7.17139-5.85907-3.6643 3.03797-6.98242 5.77686-10.28808 8.53089-51.68555 43.06268-111.1438 70.3109-176.04077 86.46331-42.7185 10.63245-86.0503 17.73877-129.8025 22.39685-12.87255 1.37049-25.74218 2.77234-39.49316 4.25476V998.3122c40.93164-7.45727 82.02417-15.44067 122.81104-28.17468z"/><path fill="#245BB0" d="M2791.06348 1411.0354c-5.6565-60.27771-11.15747-119.6477-16.6255-179.02075-.05663-.61426.32471-1.2688.68067-2.55005h74.00757c15.42847 183.01135 30.81006 365.4701 46.17407 547.71692 8.86377 1.9259 9.22974 1.80493 10.31739-5.68482 3.49292-24.0559 6.85547-48.13098 10.30908-72.1925 6.3391-44.16187 12.72436-88.3169 19.05957-132.47913 5.72119-39.88196 11.35742-79.77588 17.11084-119.65295 6.32373-43.83008 12.7461-87.646 19.10644-131.4707 1.24-8.54407 2.39234-17.10083 3.5586-25.46082 7.31738-2.08948 75.70923-2.57935 88.55493-.63232 2.18701 14.4912 4.4524 29.22107 6.62695 43.96447 7.82227 53.03382 15.64405 106.06775 23.40723 159.11036 6.9436 47.44311 13.79248 94.90002 20.71509 142.3463 6.6814 45.79542 13.4314 91.58106 20.06225 137.38392.60767 4.19702 1.62744 7.26306 8.10913 5.48181 15.15796-182.31348 30.35498-365.09875 45.59912-548.4497h75.15528c2.27807 9.1311-55.07447 605.80822-57.52686 621.0907h-131.60766c-1.65064-9.4546-3.4629-19.17725-5.03174-28.93897-5.8645-36.48438-12.17969-72.90735-17.29346-109.49756-3.96289-28.35352-6.39917-56.92078-9.49072-85.3955-4.49414-41.38941-8.98194-82.77967-13.44312-124.17262-2.21264-20.53308-4.3457-41.0747-6.5586-61.60766-.23046-2.13513-.75951-4.23804-2.16015-6.44666-2.57348 4.97022-2.88672 10.39563-3.45996 15.64405-7.41626 67.8767-15.3418 135.70593-21.86181 203.66967-5.89039 61.40003-16.45557 122.07617-25.813 182.9519-.6958 4.52479-1.44946 9.04054-2.23412 13.92054h-134.63453c-13.56494-146.38184-27.11035-292.55102-40.81298-439.62793z"/><path fill="#225AB0" d="M3757.68115 656.1106c-6.9563.1134-12.95239.2376-18.94873.23797-169.92334.01056-339.84643.00855-509.76977.00855h-12.39136V384.4877h626.81982c.21436 2.70688.59253 5.26746.594 7.82819.03174 54.97516.25634 109.95205-.16138 164.92404-.09277 12.23248-1.56518 24.62994-3.97412 36.63599-6.91162 34.44445-27.73486 54.10418-62.37817 59.96307-6.22413 1.05255-12.55079 1.4986-19.79029 2.2716M3642.9983 542.52558c-99.2544-.00396-198.50854-.00854-297.76294-.00897-2.99731 0-5.99512.02399-8.9917.0849-.65527.01325-1.32007.18762-1.95385.37677-.292.08716-.52857.37897-.77466.59601-.2456.21643-.47168.45514-1.18824 1.15424.24805 12.35992-.55761 25.1936.53077 38.73138 4.93237 0 8.87964-.00018 12.82666.00006 107.91406.00653 215.82836.00903 323.74243.03186 5.18725.0011 10.771-1.27624 13.83935 5.1485.55225 1.15588 3.48291 1.50293 5.36011 1.64966 26.43457 2.06494 26.52661 1.99158 39.26758-21.15369.48169-.87512 1.36914-1.71313 1.41846-2.60437.13671-2.47644.75146-5.39917-.28296-7.38452-4.13428-7.93384-8.82325-15.57861-13.38526-23.46613-9.5022 0-18.4812-.10376-27.45385.08704-1.8103.03845-4.61548.6919-5.21827 1.91858-2.67651 5.44873-7.3352 4.87006-11.99609 4.84808-8.65942-.04077-17.31958-.01-27.97754-.0094M3525 443.44553h-192.01587v40.36465c4.54492 0 8.46875-.00006 12.39282.00003 107.5835.00232 215.16724.00452 322.75074.0083 2.6643.00012 5.37695-.28262 7.97656.13297 1.78393.28521 4.31177 1.12365 4.94775 2.45794 2.4187 5.07547 6.67114 4.75983 11.05518 4.714 5.99463-.06269 12.02417.34887 17.97021-.19324 2.58863-.236 5.96436-1.69062 7.32715-3.70938 4.45874-6.60492 8.34888-13.62452 12.00879-20.7162.88355-1.71114.78442-4.71215-.1377-6.43896-4.35913-8.16165-9.16064-16.087-13.65942-23.84668h-31.23901c-3.00513 6.76392-8.66577 7.40973-15.48755 7.37064-47.29541-.27106-94.59278-.14383-143.88965-.14407z"/><path fill="#235BB0" d="M4249.4502 1602v244.60693c-7.84034 2.1753-61.0752 2.84607-81.35938 1.08167-25.58057-80.28711-51.75342-160.9242-76.92847-241.8717-25.05346-80.55677-49.10424-161.4253-74.56714-242.01685 0 8.38367-.32543 16.78222.05665 25.14844 1.58105 34.61145 3.5559 69.2052 5.06054 103.8197 5.08203 116.92407 1.33765 233.9154 2.49097 350.87036.0127 1.30945-.2378 2.62146-.35718 3.84985-7.06592 2.01453-59.59082 2.547-73.18994.69934v-616.75488h100.57056c.82763 1.94959 2.03588 4.24866 2.80517 6.68604 22.34522 70.78845 45.31568 141.38904 66.73023 212.4585 15.45556 51.29308 28.84375 103.2091 43.12793 154.85473 6.21093 22.45666 12.33496 44.93726 18.55517 67.39123.83692 3.02063 2.0083 5.94861 4.9292 8.70252 0-2.40137.125-4.81018-.01806-7.20288-3.1714-52.87293-5.64356-105.80078-9.74268-158.60193-5.76318-74.23535-3.05762-148.54907-3.76709-222.83228-.1753-18.32849-.03613-36.66027-.01172-54.99048.00195-1.61303.22168-3.22582.38526-5.45812h75.22998V1602z"/><path fill="#235AB0" d="M2466.12646 736V628.12976h-93.19091v-74.44434h97.2229c.29736-29.37042.07934-57.77429.16162-87.20083h-89.94898v-74.51254h11.07764c46.66064-.00007 93.32153-.05903 139.98218.01754 40.86499.06708 80.99365-5.60797 120.65845-15.07565 3.52783-.84207 7.07446-1.60507 11.31982-2.56476v77.32099c-28.46924 7.79986-57.4226 11.72409-87.1167 14.5465v86.91834h82.44727v74.38263H2576.625c-.38403 3.13556-.8811 5.33783-.8877 7.54156-.05859 19.3307.15748 38.66462-.14892 57.99054-.08399 5.30854 1.93725 8.162 6.01758 11.39057 13.55908 10.72833 26.76196 21.9309 39.74243 33.35968 12.90893 11.3662 21.06738 26.5592 31.04419 40.2702 1.25976 1.73132 1.8623 4.29675 1.90845 6.49384.20166 9.63543.0869 19.2774.0869 29.36157-8.8828 2.45428-17.48803.8631-25.95385 1.15368-8.3225.28559-16.66235.0622-24.99463.0622h-27.20288c-1.20459 28.586-.35913 56.73792-.51758 84.8639-.15747 27.9956-.03442 55.99273-.03442 83.98919v85.41192h-109.5481c0-55.45318.00147-110.94159-.00024-166.42999-.0017-55.3255-.0066-110.651-.00977-166.9765z"/><path fill="#245BB0" d="M1739.15442 1596.02356c-.00037 84.24316-.00037 167.49133-.00037 251.29736h-75.51452c0-3.66491-.00013-6.89404 0-10.12329.00134-165.6538.0686-331.30786-.19568-496.96118-.01294-8.08789 2.2555-12.95325 9.42846-16.4038 5.97925-2.87623 11.60132-6.56165 17.13819-10.2538 1.84521-1.23022 2.93652-3.59106 5.7876-7.25256h-73.6703c-2.1931-7.76672-2.72753-61.56408-.91381-74.88415h118.31506v270.58508c7.99182 2.13281 121.18372 2.7926 138.27503.9303v-269.99768c8.01025-2.61218 64.7843-3.05847 75.6012-.81543V1847.224h-74.84693v-271.32654h-139.40357c0 6.65369 0 12.89234-.00036 20.1261z"/><path fill="#235AB0" d="M4592.07715 1838.18018c-5.1792 7.74047-11.8164 9.26928-20.19776 9.16333-35.31982-.44641-70.65136-.37598-105.97363-.03125-7.01025.06823-11.71435-2.27808-16.33984-7.28284-25.78028-27.89648-51.7002-55.66882-77.92871-83.14356-4.61084-4.82946-5.91455-9.68957-5.90723-15.98681.12695-108.64343.0918-217.28699.09229-325.93054 0-28.32727.10937-56.65552-.104-84.9812-.04054-5.37293 1.37304-9.32068 5.2827-13.1853 27.01807-26.70838 53.86133-53.59474 80.60255-80.58119 3.80468-3.83972 7.74365-5.52465 13.187-5.4973 36.99122.18554 73.98438.16881 110.9756-.00257 5.08935-.02356 8.75439 1.59778 12.3042 5.17712 26.98632 27.21216 54.11718 54.28125 81.24511 81.35315 2.89697 2.89087 5.01367 5.6687 4.98535 10.27832-.21289 34.32459-.11572 68.651-.15137 102.97693-.00097.93909-.396 1.87756-.74463 3.4264h-74.37011c-.17285-2.95704-.48242-5.8423-.48877-8.72791-.04443-21.66211-.17139-43.32569.06787-64.98511.06006-5.41138-1.5254-9.3418-5.417-13.16333-13.07372-12.84009-25.89013-25.948-38.58837-39.16101-3.69873-3.84888-7.4834-5.81153-13.03906-5.66736-14.65381.38013-29.32862.3357-43.98487.00854-5.13281-.1145-8.68066 1.52552-12.1914 5.18238-12.92237 13.45971-26.00196 26.77954-39.3584 39.80713-4.1587 4.05651-5.79834 8.2141-5.76612 13.9862.2129 38.32398.1045 76.64966.104 114.97486-.00048 77.9834.09522 155.96728-.15722 233.94983-.02344 7.23596 1.92676 12.53051 6.9336 17.69506 13.21728 13.63306 26.03125 27.66321 38.79638 41.72583 3.40137 3.74707 6.98682 5.48365 12.14112 5.37476 14.32421-.30286 28.66162-.27844 42.9873-.02869 5.04443.0879 8.74756-1.2589 12.22314-5.12231 13.59375-15.10889 27.59913-29.84802 41.19825-44.95203 2.0332-2.2583 3.83886-5.72534 3.85547-8.64404.24511-42.97717.16894-85.95642.16894-130.39258-27.44775-.74463-54.55957.02918-82.24023-.44519v-74.66052h157.4331c.17725 3.61609.47217 6.8479.47363 10.07971.02833 73.651-.06982 147.30249.18848 220.95251.02344 6.6333-2.1919 11.14917-6.55713 15.75562-25.20996 26.6034-50.18115 53.43286-75.74023 80.70496zM2679.3584 1556.65625c5.30395 36.11218 10.41064 71.36108 15.59253 106.599 6.29565 42.81226 12.65283 85.61548 18.98877 128.42187 2.38745 16.13282 4.8103 32.2605 7.15747 48.39905.32177 2.21106.29931 4.47217.47095 7.27442h-75.5957c-8.05396-53.2561-16.13502-106.69043-24.2715-160.49183h-128.51049c-8.01758 53.22351-16.0293 106.40699-24.1438 160.27344h-74.90234c30.39892-205.85889 60.75561-411.43066 91.19995-617.5968h145.21875c.85815 4.86096 1.8872 9.9535 2.6438 15.08606 10.3374 70.14123 20.61279 140.2915 30.95654 210.43176 4.95313 33.58667 10.01733 67.1571 15.19507 101.60303m-117.21778-251.66162h-11.22216c-15.26026 102.59814-30.35816 204.1034-45.55957 306.3048h106.24804c0-2.11425.20826-3.74328-.03125-5.3037-3.6311-23.6731-7.41284-47.32337-10.97973-71.00598-10.94947-72.6991-21.78565-145.41529-32.82276-218.10096-.60669-3.995-2.64062-7.77331-5.63256-11.89416zM2186 1228.82398c26.93604.00036 52.87183.00036 79.50513.00036 30.4978 206.5802 60.8584 412.23267 91.32055 618.57312h-75.54003c-7.98414-53.02417-15.99317-106.2135-23.9834-159.27942-7.19556-2.15246-112.13184-2.86206-128.79688-.79455-8.02344 53.12463-16.0979 106.58679-24.1975 160.2163h-73.78053c-1.07678-8.35192 83.97022-591.22424 90.3379-618.65771 21.12304-.1173 42.63012-.03308 65.13476-.0581m-37.98071 324.18371c-2.81348 19.25745-5.62696 38.5149-8.50464 58.21253h106.74707a793245104.851 793245104.851 0 0 1-46.12403-305.48377h-15.28027c-12.29223 82.36255-24.46704 163.93872-36.83813 247.27124zm854.56567-881.00757v139.96301h78.69434v75.36866c-8.23877 2.29706-16.85572.69-25.33155.97436-8.6543.2904-17.32592.06421-25.98999.06421h-27.18994c-.37378 20.88556-.12915 41.0893-.17358 61.28388-.04395 19.99401-.00952 39.98822-.00952 59.9823v61.43585h-111.70679c-.75147-30.01038-.22485-60.18347-.32153-90.34271-.09717-30.29609-.02124-60.59266-.02124-92.03461H2668.8999v-76.3056h221.1377c1.03686-30.27704.34375-59.77259.46948-89.24946.1267-29.65734.02808-59.3156.02808-88.9735v-89.9734-88.97369-88.70373c7.1897-2.3679 97.27197-3.05704 112.04956-.83597 0 101.63843 0 203.4794.00024 306.3204z"/><path fill="#245BB0" d="M3355.7998 1498c-.00024-89.27417-.00024-177.54822-.00024-266.50574h75.62573c.01343 27.39673.03199 54.56653.03858 81.73645.00659 27.65918.00146 55.31836.00146 82.97754v83.1449c12.50171.47107 24.3816.49646 36.20996-.07996 2.02857-.09887 4.52222-3.51391 5.70899-5.93274 7.77124-15.8424 15.23803-31.83422 22.81225-47.77343 29.43921-61.94983 58.97559-123.854 88.18482-185.912 3.125-6.64025 6.82617-9.22228 14.29516-9.02782 20.64698.53747 41.31714.18322 61.97828.1814 2.93554-.00025 5.87133 0 10.64868 0-1.8628 4.47595-3.05078 7.70275-4.5166 10.79797-33.06006 69.81543-66.14551 139.61865-99.2378 209.4187-8.98657 18.95508-17.77344 38.01074-27.14453 56.77405-3.25928 6.5255-3.3545 11.8828-.18164 18.60583 33.81738 71.66199 67.31006 143.47717 100.87866 215.25671 15.2334 32.57374 30.44336 65.1587 45.64112 97.74915 1.08715 2.33142 1.98266 4.75208 3.2976 7.92932h-82.1997c-1.16553-2.18616-2.66993-4.72314-3.91407-7.38208-42.89892-91.677-85.86181-183.32434-128.48364-275.13012-3.44653-7.42383-7.46924-10.5514-15.70093-9.85047-8.88305.7566-17.88037.17114-27.8772.17114v292.62342c-25.48461.21692-49.93676.0697-75.74389.08923-.67651-29.2998-.22046-58.12354-.3025-86.93433-.08373-29.3252-.01854-58.65075-.01854-87.9762v-86.97643V1498z"/><path fill="#2259B0" d="M4170 514.02228h-201.29077V435.7207h150.84448v-56.15014c7.9248-2.3819 91.43604-3.18894 112.44629-1.22846v56.70981h177.44629V378.3125h112.08447v57.23035c13.34717.17483 25.8789.06717 38.4043.08587 12.66455.01892 25.32959.00418 37.99414.00418h75.57178v78.38938H4170z"/><path fill="#245BB0" d="M4463.97412 976.81201c10.25879.00025 19.52344.00025 28.85791.00025a7976569.58546 7976569.58546 0 0 0 33.50733 75.1278c-19.87403.57544-38.47657 1.44556-57.08448 1.5852-41.63623.31263-83.28515.82887-124.90869.09657-18.22363-.32068-36.7334-1.90271-54.53174-5.66419-59.30664-12.53369-105.68798-69.82483-106.10351-130.29828-.7456-108.59997-1.06934-217.20282-1.56787-325.8045-.01319-2.94733-.00196-5.89478-.00196-10.29187 29.79346-.33148 58.90967-.12183 89.24073-.12274.11718 4.05828.31005 7.56537.30761 11.07232-.06152 99.28693-.24023 198.5741-.07666 297.8606.01758 10.5725.82666 21.43121 3.31739 31.6582 7.51709 30.8628 29.1997 46.97223 59.33056 51.58026 16.35352 2.50086 33.1543 2.47297 49.76807 2.78388 26.31055.49237 52.63379.31195 79.94531.4165zm-632.27954 265.40894c-.00024 201.93957-.00024 402.9054-.00024 603.74756-6.98414 2.31945-61.2566 2.92602-75.1189.8601V1228.8274h74.93262c.06079 4.0448.12378 8.23242.18652 13.39356zM4526.13378 662v-85.27722h88.50392c.26708 2.37317.79833 4.88776.79785 7.40216-.01026 83.2702.09521 166.54102-.18262 249.81048-.18603 55.77686 16.63232 105.35602 52.39014 148.34516 2.09765 2.52179 4.13574 5.09332 6.57128 8.0976a5844283.62558 5844283.62558 0 0 0-50.11279 70.15234c-9.49756-9.38-18.55127-17.64234-26.8335-26.61658-39.98046-43.32178-63.83154-94.10571-67.2998-153.2165-2.4165-41.1875-2.97803-82.4978-3.72265-123.76495-.56495-31.30133-.11182-62.62097-.11182-94.93249z"/><path fill="#225AB0" d="M4098.58203 596.05664c-.06885 87.90985-.08203 174.83069-.229 261.75122-.10791 63.61682-22.42945 119.03613-62.8457 167.48901-8.93628 10.71314-19.06592 20.43445-28.72242 30.53956-1.56128 1.63366-3.5227 2.88525-5.88061 4.78125-16.51905-23.4989-32.74854-46.58606-49.2251-70.02485 1.80908-2.26953 3.33691-4.37634 5.05542-6.31414 26.8225-30.24811 42.23901-65.8191 49.24438-105.32917 3.73462-21.06121 4.52784-42.29956 4.43946-63.65088-.32227-77.92169-.41138-155.84442-.56812-233.76678-.00244-1.30774.25025-2.61603.45923-4.65979h87.66504c.19531 5.87134.40088 12.03345.60742 19.18457z"/><path fill="#235AB0" d="M2417.99805 674.30066c12.2876.00006 23.57592.00006 35.5808.00006.36768 3.00604.9485 5.50738.93922 8.00665-.2146 59.30695.01245 118.62183-.95484 177.91718-.5503 33.71203-4.72339 67.07672-17.57202 98.7738-15.5957 38.4743-40.27734 70.18012-72.53955 98.28082-15.5459-21.6814-30.75073-42.88738-46.30176-64.57605 1.63648-2.24981 3.01782-4.43383 4.67432-6.38403 34.24121-40.31036 50.32153-87.09845 50.1731-139.77557-.1504-53.31061-.136-106.6217-.19312-159.93256-.0039-3.63275-.00073-7.26544-.00073-12.31036 15.4585 0 30.3269 0 46.19458.00006zM4450.54883 878.4148c-24.2832 11.11376-47.86865 21.91687-72.48438 33.19213-.98047-3.16589-1.86816-5.86377-2.65185-8.5918-5.87305-20.45281-11.90528-40.86224-17.52832-61.38366-4.70069-17.15118-5.46192-34.83057-5.56739-52.47992-.40673-67.92188-.61523-135.8449-.87304-203.76758-.01026-2.63037.23242-5.2616.38965-8.56738h88.21093c0 3.3435.04541 6.82703-.00683 10.30908-.66309 44.26703-2.07324 88.5382-1.81348 132.79956.27588 46.9903 4.05908 93.74994 15.91016 139.49976 1.24267 4.79724 2.61132 9.56195 4.06787 14.87701-2.4629 1.34644-4.70899 2.57428-7.65332 4.1128z"/><path fill="#245BB0" d="M2816.98218 782.91638c-7.47241-.62652-14.0293-1.11688-20.40405-1.59363 0-10.04058.56738-19.3305-.10474-28.52978-2.1455-29.35858-15.5874-53.29389-36.6958-73.17835-19.73755-18.59295-43.3711-30.6104-68.6211-39.7677-4.64135-1.68328-9.2788-3.37658-14.1953-5.16613v-85.29053c1.78466.15314 3.12646.04278 4.32665.40399 41.26148 12.41956 79.53638 30.44922 111.39795 60.1988 36.5122 34.09179 55.66528 76.56896 59.25415 126.05505 1.05493 14.5481.13379 29.2417.0376 43.86804-.0105 1.57178-.56397 3.13995-.96924 5.24914-11.32153-.7224-22.2163-1.4176-34.02612-2.2489zm-11.1189-180.47137c-.53296-5.30908-.15893-10.21631-.08887-15.12787.54786-38.38727-15.6582-68.75232-44.81372-92.75601-19.0083-15.64948-40.8474-26.1428-63.91406-34.28852-3.13452-1.107-6.28491-2.17157-9.3977-3.33664-.58301-.21832-1.02222-.82162-1.73804-1.42416v-85.5288c8.60596 2.81213 16.50415 5.17928 24.25293 7.9623 31.60327 11.35074 60.91113 26.79398 86.26953 49.1163 38.33008 33.74128 59.49878 76.28263 63.67749 126.99143 1.30542 15.8429.27173 31.87988.2483 47.828-.00196 1.2384-.48219 2.47608-.97682 4.84803-17.74365-1.30652-35.24804-2.59534-53.51904-4.28406z"/><path fill="#FAFCFD" d="M1206.17139 1631.75317c-.00159 3.26831-.21814 5.62085.04174 7.91956.48365 4.27893-1.52575 6.70154-5.12109 8.66382-6.70789 3.66137-13.32617 7.5111-19.7898 11.58691-3.79162 2.39087-6.99755 2.77735-10.97668.19104-6.6825-4.34314-13.63574-8.29345-20.6361-12.11426-3.71925-2.03015-5.00867-4.80346-4.86695-8.89953.32178-9.29175.3545-18.5935.50464-27.89111 7.53796-4.7815 15.0614-9.58606 22.62292-14.33033 2.24585-1.4093 4.5979-2.64978 7.74451-4.44995 9.95471 5.81116 20.19006 11.78613 30.4768 17.79114v21.53271zM1185.85034 552.2682c7.14307 4.25207 13.65674 8.15466 20.0752 12.00024v35.06214c-8.66565 5.09228-17.51514 10.216-26.2776 15.48474-2.93932 1.76745-5.57201 1.7013-8.2926-.27594-.79955-.58106-1.7428-.95978-2.58166-1.49195-7.7871-4.93951-15.56592-9.8922-23.34704-14.84112-.17127-9.60278-.24427-19.20886-.56238-28.80683-.12574-3.79516 1.34607-6.06237 4.67297-7.8919 8.69116-4.77905 17.1991-9.89112 26.03076-15.01581 3.33911 1.87726 6.49598 3.65216 10.28235 5.77643zM735.85523 417.13083c-8.98957 5.27249-17.32593 10.09723-26.19428 15.22989-8.948-5.02887-17.99988-9.87738-26.74878-15.2218-1.89386-1.15693-3.72174-4.04743-3.82623-6.22367-.43091-8.97021-.50269-17.99133.02136-26.9512.13892-2.37537 2.36585-5.41226 4.50622-6.74793 8.17719-5.1028 16.71021-9.6355 26.01014-14.88946 8.86908 5.00116 18.12481 10.0969 27.21563 15.4715 1.4671.86737 3.08857 2.95315 3.12842 4.5143.25464 9.98063.23297 19.97688-.09808 29.9547-.05005 1.50747-2.18866 2.9457-4.0144 4.86367zm2.08642 1375.96292c1.16718 4.66882 2.01788 8.81445 2.15332 12.98352.24695 7.60693.0702 15.22778.0702 23.2876-9.1642 5.16076-17.99934 10.375-27.1028 15.06909-1.90801.98376-5.21319.85706-7.17205-.13904-7.67981-3.9054-15.03131-8.44995-22.60284-12.57727-3.35022-1.82617-4.5213-4.41516-4.44928-8.11084.1552-7.96277.18835-15.9342-.01111-23.89502-.0951-3.79516 1.35266-6.17602 4.61096-8.00024 7.23492-4.05017 14.43457-8.18067 21.46332-12.57495 3.65112-2.28235 6.60534-1.7644 10.06799.37817 7.3321 4.53699 14.8761 8.73145 22.97229 13.57898zM264.00851 558.2102c3.74396 2.25745 6.81644 4.18116 10.1409 6.26264 0 10.1908-.09668 20.13806.05329 30.08166.05136 3.40613-1.23926 5.54084-4.16055 7.18702-7.23066 4.07476-14.40995 8.24871-21.49079 12.57763-3.14541 1.92291-5.8804 2.32984-9.2039.27057-7.0537-4.3706-14.23517-8.54895-21.50428-12.55188-3.36985-1.85559-4.50654-4.38263-4.43173-8.07727.16813-8.30206.21248-16.6134.0044-24.91339-.0967-3.85663 1.50934-6.05737 4.759-7.8642 8.40503-4.67315 16.6628-9.6112 25.43245-14.70678 6.56792 3.79504 13.14883 7.5976 20.40121 11.734zm-3.86196 1043.76075c12.23358 4.2943 15.84127 12.45141 14.17413 24.20447-.87515 6.1698-.15451 12.56604-.15451 19.00756-8.9491 5.27051-17.58213 10.21619-26.05863 15.41687-3.29547 2.02198-6.00854 1.73096-9.19793-.21972-8.2051-5.0182-16.57146-9.77283-25.43218-14.95996 0-10.344.08269-20.60535-.04626-30.8639-.04332-3.44555 1.432-5.44726 4.35067-7.0896 8.38994-4.72106 16.64966-9.67346 25.72944-14.98474 5.16717 2.95948 10.5728 6.05567 16.63527 9.48902z"/><path fill="#FCFDFE" d="M1869.69885 555.85113c4.19751.14496 7.43701.28956 11.1786.4566v236.72303h-147.62086v-237.07c22.51233-.03675 45.00537-.08802 67.4983-.10627 22.66198-.01837 45.32397-.00378 68.94396-.00336z"/><path fill="#FEFEFE" d="M2151.97974 588.00555c-.00367 50.93708.08178 100.87616-.10181 150.81427-.0293 7.93995-.6001 16.00226-2.0813 23.78724-3.32641 17.48443-13.01 26.59796-30.51904 29.7669-3.58496.64887-7.25098 1.18659-10.88135 1.19696-32.62646.09326-65.25305.06488-97.87964.0404-1.92126-.00146-3.84228-.27703-6.27441-.4644V556.59142h147.73755v31.41412z"/><path fill="#F6F9FC" d="M3643.99756 542.52576c9.65869-.0008 18.31885-.03156 26.97827.00921 4.66089.02198 9.31958.60065 11.9961-4.84808.60278-1.22668 3.40795-1.88013 5.21826-1.91858 8.97265-.1908 17.95166-.08704 27.45385-.08704 4.56201 7.88752 9.25098 15.5323 13.38526 23.46613 1.03442 1.98535.41967 4.90808.28296 7.38452-.04932.89124-.93677 1.72925-1.41846 2.60437-12.74097 23.14526-12.833 23.21863-39.26758 21.15369-1.8772-.14673-4.80786-.49378-5.3601-1.64966-3.06837-6.42474-8.6521-5.1474-13.83936-5.1485-107.91406-.02283-215.82837-.02533-323.74243-.03186-3.94702-.00024-7.8943-.00006-12.82666-.00006-1.08838-13.53778-.28272-26.37146-.53077-38.73138.71656-.6991.94263-.93781 1.18824-1.15424.24609-.21704.48266-.50885.77466-.596.63378-.18916 1.29858-.36353 1.95385-.37678 2.99658-.06091 5.99439-.0849 8.9917-.0849 99.2544.00043 198.50855.005 298.7622.00916z"/><path fill="#FBFDFD" d="M3526 443.44537c48.29688.0004 95.59424-.12683 142.88965.14423 6.82178.0391 12.48242-.60672 15.48755-7.37064h31.23901c4.49878 7.75968 9.3003 15.68503 13.65942 23.84668.92212 1.72681 1.02124 4.72782.1377 6.43897-3.65991 7.09167-7.55005 14.11127-12.00879 20.71618-1.3628 2.01877-4.73852 3.4734-7.32715 3.70939-5.94604.54211-11.97558.13055-17.97021.19323-4.38404.04584-8.63648.36148-11.05518-4.71399-.63598-1.33429-3.16382-2.17273-4.94775-2.45794-2.59961-.4156-5.31226-.13285-7.97656-.13297-107.5835-.00378-215.16724-.00598-322.75074-.0083-3.92407-.00009-7.8479-.00003-12.39282-.00003v-40.36465c64.30786 0 128.16187 0 193.01587-.00016zm-963.04834 861.6701c2.1809 4 4.21484 7.77833 4.82153 11.77332 11.03711 72.68567 21.8733 145.40186 32.82276 218.10096 3.5669 23.68261 7.34863 47.33288 10.97973 71.00598.2395 1.56042.03125 3.18945.03125 5.3037H2505.3589c15.20141-102.2014 30.29931-203.70666 45.55957-306.3048 4.08642 0 7.6543 0 12.0332.12085zm-414.83423 247.01392c12.27295-82.45422 24.44776-164.0304 36.74-246.39294h15.28026a793245104.851 793245104.851 0 0 0 46.12403 305.48376h-106.74707c2.87768-19.69763 5.69116-38.95507 8.60278-59.09082z"/></svg>