<svg version="1.1" id="Layer_1" xmlns="http://www.w3.org/2000/svg" xmlns:xlink="http://www.w3.org/1999/xlink" x="0px" y="0px"
	 width="100%" viewBox="0 0 3149 797" enable-background="new 0 0 3149 797" xml:space="preserve">
<path fill="#FFFFFF" opacity="1.000000" stroke="none" 
	d="
M3150.000000,676.000000 
	C3150.000000,716.660950 3150.000000,757.321838 3150.000000,798.000000 
	C2256.298340,798.000000 1362.596802,798.000000 468.469543,797.556580 
	C468.364441,794.027344 468.551453,790.920715 469.030273,787.859619 
	C470.562073,778.067017 472.251129,768.299072 473.787384,758.507141 
	C475.576538,747.103394 477.297974,735.688843 478.993774,724.270752 
	C480.474335,714.301819 481.794556,704.308411 483.340942,694.349976 
	C484.787170,685.036682 487.006348,675.801270 487.768555,666.440674 
	C488.176514,661.429993 490.017273,660.911560 494.137817,660.930664 
	C515.421082,661.029053 536.705383,660.893555 558.453613,660.914185 
	C598.276123,660.942139 637.634277,660.895569 677.456787,660.920593 
	C703.860229,660.992188 729.799438,660.992188 756.267151,660.992188 
	C748.746399,704.936340 741.330322,748.268921 733.874329,791.834473 
	C763.411438,791.834473 792.203003,791.834473 821.458862,791.906372 
	C835.707458,791.983826 849.493042,792.069397 863.274841,791.883179 
	C864.813293,791.862427 867.426819,790.534180 867.669800,789.408264 
	C868.760681,784.353088 869.175049,779.151978 869.919556,773.600342 
	C870.331543,772.283081 870.797363,771.393433 870.961853,770.451111 
	C873.309387,757.006897 875.683899,743.566833 877.913330,730.102722 
	C880.067383,717.093506 882.061829,704.057922 884.462219,690.806763 
	C886.318176,680.802002 887.838257,671.024292 889.421753,660.838806 
	C904.778320,660.838806 919.886780,660.838806 935.459473,660.908997 
	C953.947266,660.931580 971.970642,660.883972 990.458618,660.906067 
	C1001.623291,660.931396 1012.323364,660.887085 1023.271973,660.859497 
	C1023.884949,660.689941 1023.990173,660.407104 1024.023682,659.657471 
	C1024.447632,658.862915 1024.835693,658.459717 1024.897949,658.011353 
	C1026.629272,645.527771 1028.239014,633.026672 1030.055786,620.555664 
	C1031.940552,607.619019 1033.983398,594.705017 1036.026611,581.792114 
	C1037.608276,571.796082 1039.421021,561.835266 1040.898926,551.824585 
	C1042.069336,543.895020 1042.887207,535.913391 1043.697754,527.559998 
	C1041.545410,527.110046 1039.556641,527.009033 1037.567993,527.006714 
	C995.052612,526.957581 952.537170,526.919434 910.013977,526.461304 
	C923.171509,439.473816 936.336792,352.904114 949.578491,265.832306 
	C955.737610,265.832306 961.866882,265.832306 968.460571,265.902405 
	C1007.167908,265.972473 1045.410889,265.972473 1084.041016,265.972473 
	C1090.802246,221.559875 1097.508423,177.509521 1104.258911,133.167496 
	C1096.584473,133.167496 1089.789795,133.167496 1082.531006,133.100555 
	C1055.375610,133.077667 1028.684326,133.121704 1001.529053,133.099487 
	C990.789429,133.033218 980.513794,133.033218 969.787354,133.033218 
	C971.431641,122.232460 972.986694,112.096504 974.514832,101.956490 
	C975.969482,92.304520 977.395996,82.648308 978.916870,72.586517 
	C979.664368,68.525116 980.382568,64.879829 980.985413,61.215565 
	C982.618164,51.289761 984.293030,41.369518 985.779785,31.421446 
	C987.292908,21.296869 988.601746,11.141747 990.000000,1.000000 
	C1709.899292,1.000000 2429.798584,1.000000 3150.000000,1.000000 
	C3150.000000,224.034821 3150.000000,447.069794 3149.626953,670.400635 
	C3143.836670,645.825806 3138.417480,620.955505 3133.002441,596.084290 
	C3126.666016,566.980896 3120.295410,537.884888 3114.012939,508.769928 
	C3110.274170,491.443634 3106.822754,474.054413 3102.975586,456.752777 
	C3098.822021,438.071533 3094.192139,419.495850 3090.066162,400.808746 
	C3083.253174,369.953278 3076.692383,339.042053 3069.998535,308.160187 
	C3063.683105,279.025726 3057.358398,249.893250 3050.990479,220.770218 
	C3045.257568,194.549881 3039.460205,168.343613 3033.662354,141.999786 
	C3031.566406,141.999786 3029.746338,141.999786 3027.926025,141.999786 
	C2985.602783,141.999786 2943.273438,142.389114 2900.960693,141.720840 
	C2890.626709,141.557632 2885.648438,144.825745 2881.097900,154.011597 
	C2869.686279,177.047226 2856.802490,199.353073 2844.531250,221.963547 
	C2831.489746,245.993256 2818.486816,270.043884 2805.442383,294.072296 
	C2792.712158,317.522858 2779.950195,340.956238 2767.204346,364.398346 
	C2756.913330,383.325562 2746.573975,402.226929 2736.352783,421.191895 
	C2728.791992,435.220551 2721.483154,449.385468 2713.888184,463.395386 
	C2702.323730,484.728088 2690.581787,505.964691 2678.969238,527.271606 
	C2673.578125,537.163330 2668.369629,547.154663 2662.979736,557.046936 
	C2651.136963,578.782471 2639.246094,600.491821 2627.345947,622.196045 
	C2621.620361,632.639771 2615.746094,643.003052 2610.096924,653.487732 
	C2606.177979,660.760864 2602.528564,668.179138 2598.665771,675.714233 
	C2599.688965,675.892456 2600.015869,675.999207 2600.342773,675.999268 
	C2643.832275,676.007141 2687.322021,676.014282 2730.811523,675.971497 
	C2732.043945,675.970276 2733.354492,675.613159 2734.495605,675.116272 
	C2744.056885,670.952820 2753.461670,666.401489 2763.152100,662.569092 
	C2784.288818,654.209778 2805.389648,645.703796 2826.828369,638.178772 
	C2855.999023,627.939941 2886.044434,620.753418 2916.878174,618.222290 
	C2936.633789,616.600525 2956.624023,617.312317 2975.346191,625.202942 
	C2995.514160,633.703003 3007.342773,649.559326 3011.703369,670.633911 
	C3012.680420,675.355835 3013.905273,676.088928 3018.032715,676.078064 
	C3062.021729,675.962280 3106.010742,676.002563 3150.000000,676.000000 
M1691.000122,410.412659 
	C1692.335571,394.589813 1693.819580,378.777161 1694.909668,362.937439 
	C1695.210205,358.570251 1694.439697,354.111298 1693.978760,349.713501 
	C1692.993774,340.316132 1692.467041,330.821472 1690.707153,321.565460 
	C1687.623291,305.346313 1682.877808,289.630035 1676.285767,274.350891 
	C1666.570435,251.832520 1653.543335,231.629623 1637.034180,213.652023 
	C1631.464233,207.586578 1625.527100,201.686554 1618.993164,196.716141 
	C1607.605591,188.053589 1596.175659,179.198166 1583.772339,172.173874 
	C1561.384277,159.495193 1537.448364,150.417465 1511.722046,146.944351 
	C1498.343018,145.138138 1484.932129,142.319565 1471.519165,142.221115 
	C1405.036499,141.733017 1338.548340,141.999298 1272.062134,141.999756 
	C1270.577515,141.999771 1269.092896,141.999756 1267.210815,141.999756 
	C1239.109741,320.016327 1211.032715,497.880798 1182.914307,676.007812 
	C1185.167847,676.007812 1186.818970,676.015076 1188.470093,676.006775 
	C1255.046875,675.672058 1321.623901,675.355408 1388.200317,674.960327 
	C1393.116943,674.931152 1398.074829,674.646240 1402.936768,673.947144 
	C1418.027100,671.777161 1433.322021,670.349548 1448.089233,666.779724 
	C1468.378052,661.874939 1488.043701,654.620178 1506.892090,645.527710 
	C1524.297485,637.131287 1540.893555,627.365295 1556.746582,616.184082 
	C1572.651123,604.966492 1587.404907,592.483826 1601.351807,579.027649 
	C1607.946411,572.665283 1613.962524,565.653503 1619.811890,558.581238 
	C1626.808350,550.121887 1634.057861,541.735291 1639.921143,532.506104 
	C1649.380737,517.616089 1658.363159,502.355743 1666.455444,486.687927 
	C1671.944458,476.060364 1676.221924,464.676178 1679.849976,453.252106 
	C1684.224365,439.477997 1687.338135,425.303528 1691.000122,410.412659 
M2198.004883,646.348267 
	C2197.670898,644.614319 2197.374023,642.872253 2196.997314,641.147644 
	C2191.671631,616.765564 2186.301025,592.393250 2181.010498,568.003540 
	C2175.953857,544.691223 2171.072510,521.340515 2165.937500,498.045593 
	C2161.427002,477.585846 2156.563477,457.203979 2152.051270,436.744568 
	C2145.941162,409.038422 2139.981445,381.298920 2134.029053,353.558289 
	C2130.614014,337.642731 2127.454102,321.671875 2123.969238,305.772003 
	C2121.143799,292.881134 2117.896973,280.082947 2115.031738,267.200409 
	C2111.361816,250.699661 2107.884277,234.156097 2104.328125,217.630051 
	C2101.549316,204.716324 2098.814697,191.792923 2095.989502,178.889328 
	C2093.310791,166.654770 2090.539551,154.440430 2087.837891,142.346512 
	C2087.221924,142.187363 2086.905518,142.034195 2086.589111,142.034073 
	C2039.423584,142.015411 1992.258179,141.987274 1945.092896,142.099319 
	C1943.687012,142.102661 1941.651978,143.226807 1940.977173,144.427872 
	C1933.097168,158.451721 1925.413818,172.586151 1917.695312,186.700485 
	C1909.435913,201.803940 1901.137817,216.886688 1892.958252,232.033371 
	C1881.114014,253.966034 1869.416504,275.978027 1857.553711,297.900665 
	C1845.226807,320.681061 1832.741333,343.375732 1820.395630,366.145996 
	C1813.185181,379.444702 1806.192017,392.861389 1798.959839,406.148132 
	C1787.124268,427.892609 1775.126709,449.549011 1763.291992,471.293976 
	C1758.061157,480.904846 1753.167847,490.699402 1747.935303,500.309326 
	C1736.176147,521.905151 1724.261230,543.416260 1712.484009,565.002319 
	C1701.309692,585.483459 1690.255127,606.029968 1679.097046,626.520142 
	C1673.861816,636.133972 1668.426392,645.639343 1663.234985,655.276367 
	C1659.625732,661.976318 1656.277710,668.816956 1652.601929,676.007690 
	C1697.185791,676.007690 1741.012329,676.016907 1784.838745,675.965698 
	C1786.240112,675.964111 1787.730835,675.545715 1789.026611,674.973999 
	C1795.632202,672.059448 1802.113770,668.854553 1808.774292,666.075745 
	C1825.807739,658.969360 1842.675415,651.369263 1860.039185,645.170410 
	C1895.949463,632.350647 1932.475220,621.266724 1970.689453,618.273926 
	C1989.879761,616.770935 2009.190308,617.363647 2027.806274,624.832153 
	C2049.166748,633.401794 2061.104004,649.131958 2065.806396,670.876892 
	C2066.716553,675.085266 2067.927490,676.104065 2071.965332,676.091187 
	C2114.297363,675.956177 2156.629883,676.007751 2198.962402,676.007751 
	C2200.591064,676.007751 2202.219727,676.007751 2204.734863,676.007751 
	C2202.413330,666.007751 2200.232178,656.611816 2198.004883,646.348267 
M2397.480469,249.000336 
	C2401.260742,249.000336 2405.041016,249.000336 2409.450439,249.000336 
	C2386.888916,391.665375 2364.428955,533.686829 2341.921631,676.007141 
	C2384.057617,676.007141 2425.694580,675.990845 2467.331543,676.042664 
	C2470.222900,676.046265 2470.764404,674.747009 2471.089844,672.125671 
	C2472.228516,662.951233 2473.664307,653.810913 2475.126709,644.679993 
	C2477.356934,630.752563 2479.719727,616.846436 2481.995117,602.926147 
	C2483.588135,593.178223 2485.128906,583.421875 2486.692139,573.669067 
	C2488.461670,562.627014 2490.241943,551.586487 2491.997070,540.542053 
	C2493.575928,530.607361 2495.112549,520.665955 2496.693115,510.731628 
	C2498.447266,499.708252 2500.302002,488.700409 2501.979980,477.665558 
	C2503.444092,468.034454 2504.598877,458.355682 2506.113037,448.732941 
	C2508.303467,434.808350 2510.695557,420.915466 2513.000244,407.008759 
	C2514.640381,397.111145 2516.320068,387.219849 2517.906982,377.313660 
	C2519.650146,366.432617 2521.308105,355.537964 2523.000732,344.648804 
	C2524.546387,334.706268 2526.098389,324.764679 2527.629395,314.819916 
	C2529.430176,303.125885 2531.160645,291.420837 2533.015869,279.735565 
	C2534.632812,269.549316 2536.381104,259.383881 2538.122314,248.902908 
	C2587.576172,248.902908 2636.672607,248.902908 2685.778564,248.902908 
	C2691.349121,213.195114 2696.862061,177.855026 2702.403076,142.335663 
	C2560.433838,142.335663 2419.254395,142.335663 2278.359131,142.335663 
	C2272.784668,178.011108 2267.268066,213.317245 2261.692383,249.000336 
	C2307.214111,249.000336 2351.850830,249.000336 2397.480469,249.000336 
z"/>
<path fill="#FFFFFF" opacity="1.000000" stroke="none" 
	d="
M337.000000,798.000000 
	C225.055511,798.000000 113.111015,798.000000 1.000000,798.000000 
	C1.000000,620.976685 1.000000,443.953369 1.468657,266.465698 
	C15.603783,266.001038 29.270252,266.000580 42.936722,266.000519 
	C76.436333,266.000397 109.935959,265.985229 143.435501,266.030365 
	C146.027924,266.033844 148.458633,266.158112 148.956604,262.801910 
	C149.650436,258.125763 150.342163,253.449066 150.991562,248.766602 
	C152.694427,236.488571 154.267303,224.191422 156.092361,211.931732 
	C157.936676,199.542877 160.025513,187.190475 161.999817,174.820923 
	C163.616287,164.693314 165.271744,154.571533 166.815491,144.432800 
	C167.931961,137.100250 168.893661,129.744141 169.955566,122.176254 
	C120.915230,122.176254 72.288498,122.176254 23.202845,122.176254 
	C22.805841,124.481094 22.377977,126.819664 22.003136,129.166702 
	C20.463591,138.806351 18.916956,148.444962 17.417376,158.090881 
	C15.917100,167.741257 14.443129,177.395935 13.006700,187.056015 
	C11.544146,196.891815 10.179446,206.742218 8.701920,216.575699 
	C7.178181,226.716766 5.625229,236.854126 3.976576,246.975449 
	C3.103343,252.336349 1.999650,257.659698 1.000001,263.000000 
	C1.000000,175.719086 1.000000,88.438171 1.000000,1.000000 
	C152.356628,1.000000 303.713287,1.000000 455.531433,1.425692 
	C455.659149,3.766357 455.299835,5.677282 454.995911,7.596973 
	C453.266693,18.518766 451.659912,29.461266 449.801636,40.360947 
	C447.646393,53.002365 445.239929,65.600739 443.005798,78.228996 
	C440.685516,91.344185 438.397705,104.465500 436.184204,117.599045 
	C435.283447,122.943428 434.616089,128.327118 433.763092,134.244156 
	C459.434265,134.244156 484.149536,134.244156 509.172852,134.244156 
	C502.461975,178.380096 495.824493,222.033417 489.164581,265.834198 
	C493.037781,265.834198 496.515533,265.834198 500.457092,265.908569 
	C511.554138,265.989868 522.187378,266.015076 532.820618,266.000275 
	C566.877258,265.952942 600.933899,265.890808 635.454651,265.908813 
	C674.277100,265.933716 712.635498,265.884155 751.457886,265.907196 
	C768.280090,265.930817 784.638367,265.881836 801.459167,265.904510 
	C806.528137,265.976135 811.134521,265.976135 816.386230,265.976135 
	C815.049500,275.402313 813.854370,284.122375 812.567200,292.828796 
	C811.087097,302.840759 809.529175,312.841217 807.998230,322.845673 
	C806.442444,333.012573 804.850342,343.174042 803.326111,353.345642 
	C801.849426,363.199890 800.472229,373.069092 798.989990,382.922485 
	C797.462463,393.076447 795.826599,403.214142 794.301392,413.368439 
	C792.824951,423.197388 791.437622,433.039703 789.994995,442.873749 
	C788.527283,452.878723 787.057617,462.883514 785.556152,472.883453 
	C784.056885,482.869293 782.544067,492.853271 780.986572,502.830170 
	C779.682007,511.187012 778.304871,519.532532 776.496399,527.934692 
	C760.687195,528.046387 745.341370,528.106445 729.531738,528.098389 
	C703.710083,528.075989 678.352417,528.121704 652.530701,528.099548 
	C644.094788,528.021667 636.122803,527.993103 628.150879,528.005127 
	C597.097290,528.052063 566.043762,528.111877 534.526428,528.100098 
	C525.779968,528.033386 517.497314,528.033386 509.236908,528.033386 
	C515.242737,489.170685 521.169556,450.819580 527.131531,412.240906 
	C483.120056,412.240906 439.709839,412.240906 396.011444,412.240906 
	C394.620392,422.948608 393.256104,433.450104 391.546692,444.173798 
	C386.507812,475.888824 381.814117,507.381653 377.075958,539.172791 
	C332.632416,539.172791 288.886749,539.172791 245.317230,539.172791 
	C238.732056,582.541199 232.212097,625.480042 225.611923,668.947144 
	C269.730255,668.947144 313.137970,668.947144 357.000946,668.947144 
	C356.870026,670.814697 356.881653,672.243958 356.653564,673.633911 
	C355.469482,680.849976 354.108276,688.038696 353.026642,695.269470 
	C351.242065,707.199158 349.722321,719.168701 347.909180,731.093750 
	C346.050720,743.317078 343.983429,755.508667 341.989777,767.711304 
	C340.339935,777.809753 338.664246,787.903931 337.000000,798.000000 
M346.068146,265.025879 
	C320.467499,265.025879 294.866852,265.025879 269.396759,265.025879 
	C262.084747,313.221100 254.850861,360.901459 247.578735,408.833832 
	C276.747375,408.833832 304.870819,408.833832 333.922089,408.981873 
	C354.188904,408.981873 374.455719,408.981873 394.646606,408.981873 
	C401.957367,360.784546 409.189056,313.108276 416.461121,265.166138 
	C392.569763,265.166138 369.782623,265.166138 346.068146,265.025879 
z"/>
<path fill="#21254A" opacity="1.000000" stroke="none" 
	d="
M3150.000000,675.583374 
	C3106.010742,676.002563 3062.021729,675.962280 3018.032715,676.078064 
	C3013.905273,676.088928 3012.680420,675.355835 3011.703369,670.633911 
	C3007.342773,649.559326 2995.514160,633.703003 2975.346191,625.202942 
	C2956.624023,617.312317 2936.633789,616.600525 2916.878174,618.222290 
	C2886.044434,620.753418 2855.999023,627.939941 2826.828369,638.178772 
	C2805.389648,645.703796 2784.288818,654.209778 2763.152100,662.569092 
	C2753.461670,666.401489 2744.056885,670.952820 2734.495605,675.116272 
	C2733.354492,675.613159 2732.043945,675.970276 2730.811523,675.971497 
	C2687.322021,676.014282 2643.832275,676.007141 2600.342773,675.999268 
	C2600.015869,675.999207 2599.688965,675.892456 2598.665771,675.714233 
	C2602.528564,668.179138 2606.177979,660.760864 2610.096924,653.487732 
	C2615.746094,643.003052 2621.620361,632.639771 2627.345947,622.196045 
	C2639.246094,600.491821 2651.136963,578.782471 2662.979736,557.046936 
	C2668.369629,547.154663 2673.578125,537.163330 2678.969238,527.271606 
	C2690.581787,505.964691 2702.323730,484.728088 2713.888184,463.395386 
	C2721.483154,449.385468 2728.791992,435.220551 2736.352783,421.191895 
	C2746.573975,402.226929 2756.913330,383.325562 2767.204346,364.398346 
	C2779.950195,340.956238 2792.712158,317.522858 2805.442383,294.072296 
	C2818.486816,270.043884 2831.489746,245.993256 2844.531250,221.963547 
	C2856.802490,199.353073 2869.686279,177.047226 2881.097900,154.011597 
	C2885.648438,144.825745 2890.626709,141.557632 2900.960693,141.720840 
	C2943.273438,142.389114 2985.602783,141.999786 3027.926025,141.999786 
	C3029.746338,141.999786 3031.566406,141.999786 3033.662354,141.999786 
	C3039.460205,168.343613 3045.257568,194.549881 3050.990479,220.770218 
	C3057.358398,249.893250 3063.683105,279.025726 3069.998535,308.160187 
	C3076.692383,339.042053 3083.253174,369.953278 3090.066162,400.808746 
	C3094.192139,419.495850 3098.822021,438.071533 3102.975586,456.752777 
	C3106.822754,474.054413 3110.274170,491.443634 3114.012939,508.769928 
	C3120.295410,537.884888 3126.666016,566.980896 3133.002441,596.084290 
	C3138.417480,620.955505 3143.836670,645.825806 3149.626953,670.848267 
	C3150.000000,672.388916 3150.000000,673.777771 3150.000000,675.583374 
M2801.657715,539.992676 
	C2820.624756,530.471130 2839.853027,521.637634 2860.191895,515.292236 
	C2882.178955,508.432495 2904.662598,504.783478 2927.599609,504.133820 
	C2935.066406,503.922333 2942.578857,505.334778 2950.071045,505.994537 
	C2962.382324,507.078613 2973.985840,510.503448 2984.908447,516.602600 
	C2970.233887,443.630188 2955.588135,370.800537 2940.949707,298.007446 
	C2938.249268,298.007446 2936.876221,298.242950 2935.615723,297.965912 
	C2930.664307,296.877502 2928.694824,299.478027 2926.618652,303.621368 
	C2920.068115,316.693237 2913.020020,329.519440 2906.018799,342.361237 
	C2893.854492,364.673096 2881.519531,386.892029 2869.380859,409.217621 
	C2863.773682,419.530396 2858.590088,430.073608 2852.986084,440.388153 
	C2841.394775,461.721802 2829.599121,482.944366 2817.990234,504.268585 
	C2812.223389,514.861450 2806.699463,525.586365 2801.027344,536.231262 
	C2800.063232,538.040649 2798.906250,539.747131 2797.838135,541.501160 
	C2798.169922,541.726074 2798.501953,541.950989 2798.833740,542.175903 
	C2799.561279,541.585632 2800.288818,540.995361 2801.657715,539.992676 
z"/>
<path fill="#2662A1" opacity="1.000000" stroke="none" 
	d="
M391.891846,443.951599 
	C393.256104,433.450104 394.620392,422.948608 396.011444,412.240906 
	C439.709839,412.240906 483.120056,412.240906 527.131531,412.240906 
	C521.169556,450.819580 515.242737,489.170685 509.236908,528.033386 
	C517.497314,528.033386 525.779968,528.033386 534.472717,528.485718 
	C534.596069,530.222595 533.959045,531.540833 534.078491,532.786499 
	C534.992615,542.319885 535.744568,551.884521 537.135010,561.353149 
	C539.892639,580.132446 542.477783,598.965942 546.182190,617.568298 
	C549.098145,632.211060 548.928650,647.831665 557.989319,660.839661 
	C536.705383,660.893555 515.421082,661.029053 494.137817,660.930664 
	C490.017273,660.911560 488.176514,661.429993 487.768555,666.440674 
	C487.006348,675.801270 484.787170,685.036682 483.340942,694.349976 
	C481.794556,704.308411 480.474335,714.301819 478.993774,724.270752 
	C477.297974,735.688843 475.576538,747.103394 473.787384,758.507141 
	C472.251129,768.299072 470.562073,778.067017 469.030273,787.859619 
	C468.551453,790.920715 468.364441,794.027344 468.021912,797.556580 
	C458.979095,798.000000 449.958221,798.000000 440.462524,797.611206 
	C435.905579,781.364441 431.686127,765.540405 427.769012,749.641846 
	C418.746674,713.022278 411.821503,675.991394 406.983459,638.595154 
	C403.403290,610.921936 400.039032,583.213867 397.128387,555.463684 
	C395.506805,540.003601 394.808136,524.435181 394.067169,508.897766 
	C393.434509,495.632477 393.279419,482.342804 393.023163,469.061798 
	C392.891449,462.236633 393.066315,455.405670 392.949524,448.579926 
	C392.923035,447.031586 392.261200,445.494080 391.891846,443.951599 
z"/>
<path fill="#FFFFFF" opacity="1.000000" stroke="none" 
	d="
M589.000000,0.999997 
	C678.020874,1.000000 767.041809,1.000000 856.526489,1.427113 
	C850.167419,45.465691 843.344604,89.077156 836.447021,133.166458 
	C824.594360,133.166458 812.794861,133.166458 800.531372,133.099106 
	C784.118469,133.021286 768.169617,132.985443 752.220886,133.006027 
	C725.477356,133.040573 698.733826,133.111069 671.526489,133.099915 
	C636.420837,133.033417 601.778870,133.033417 567.099182,133.033417 
	C568.233398,125.636742 569.159302,119.044792 570.268188,112.483765 
	C572.460693,99.512016 574.742554,86.555298 577.009521,73.596222 
	C579.219238,60.964489 581.557007,48.354233 583.652161,35.703690 
	C585.564514,24.157272 587.227234,12.569523 589.000000,0.999997 
z"/>
<path fill="#2994AE" opacity="1.000000" stroke="none" 
	d="
M776.959839,527.883057 
	C778.304871,519.532532 779.682007,511.187012 780.986572,502.830170 
	C782.544067,492.853271 784.056885,482.869293 785.556152,472.883453 
	C787.057617,462.883514 788.527283,452.878723 789.994995,442.873749 
	C791.437622,433.039703 792.824951,423.197388 794.301392,413.368439 
	C795.826599,403.214142 797.462463,393.076447 798.989990,382.922485 
	C800.472229,373.069092 801.849426,363.199890 803.326111,353.345642 
	C804.850342,343.174042 806.442444,333.012573 807.998230,322.845673 
	C809.529175,312.841217 811.087097,302.840759 812.567200,292.828796 
	C813.854370,284.122375 815.049500,275.402313 816.386230,265.976135 
	C811.134521,265.976135 806.528137,265.976135 801.461182,265.511536 
	C801.358032,263.436218 801.558838,261.770996 802.097656,260.223419 
	C806.357056,247.989868 810.425354,235.681503 815.033081,223.579147 
	C828.261292,188.834274 844.919373,155.770569 865.059448,124.528740 
	C879.539429,102.067039 895.466553,80.669022 913.533630,60.890877 
	C931.489929,41.233810 950.255371,22.474152 971.279419,6.055954 
	C972.867310,4.815892 973.775696,2.705701 975.000000,0.999994 
	C979.689270,1.000000 984.378479,1.000000 989.533875,1.000000 
	C988.601746,11.141747 987.292908,21.296869 985.779785,31.421446 
	C984.293030,41.369518 982.618164,51.289761 980.985413,61.215565 
	C980.382568,64.879829 979.664368,68.525116 978.557312,72.594467 
	C976.015625,74.234886 973.533752,75.080963 971.878845,76.748024 
	C962.857971,85.835052 953.592896,94.739792 945.265381,104.440018 
	C934.593201,116.871338 924.192566,129.611343 914.638977,142.910858 
	C897.349548,166.979553 882.899597,192.728745 870.510559,219.712555 
	C857.856812,247.272949 847.748535,275.675110 840.058350,304.947113 
	C833.368896,330.409576 828.244080,356.197998 825.932190,382.470184 
	C824.525940,398.451385 822.722778,414.427704 822.139404,430.444122 
	C821.311523,453.176880 822.077148,475.919861 824.996887,498.528290 
	C827.007141,514.094910 828.485291,529.767029 831.345947,545.179565 
	C837.315247,577.340515 845.696411,608.916443 858.036499,639.275146 
	C864.599854,655.422119 871.950195,671.253418 879.197510,687.111938 
	C879.975647,688.814514 882.442810,689.745117 884.126343,691.033875 
	C882.061829,704.057922 880.067383,717.093506 877.913330,730.102722 
	C875.683899,743.566833 873.309387,757.006897 870.961853,770.451111 
	C870.797363,771.393433 870.331543,772.283081 869.583862,773.556335 
	C867.669922,772.420105 865.895386,771.117004 864.727783,769.400818 
	C844.634155,739.866028 828.900696,708.007080 815.218506,675.123718 
	C801.737000,642.722412 791.494202,609.252930 784.560974,574.853394 
	C781.429565,559.317078 779.457764,543.547058 776.959839,527.883057 
z"/>
<path fill="#25539C" opacity="1.000000" stroke="none" 
	d="
M391.546692,444.173798 
	C392.261200,445.494080 392.923035,447.031586 392.949524,448.579926 
	C393.066315,455.405670 392.891449,462.236633 393.023163,469.061798 
	C393.279419,482.342804 393.434509,495.632477 394.067169,508.897766 
	C394.808136,524.435181 395.506805,540.003601 397.128387,555.463684 
	C400.039032,583.213867 403.403290,610.921936 406.983459,638.595154 
	C411.821503,675.991394 418.746674,713.022278 427.769012,749.641846 
	C431.686127,765.540405 435.905579,781.364441 439.993866,797.611206 
	C405.979095,798.000000 371.958221,798.000000 337.468658,798.000000 
	C338.664246,787.903931 340.339935,777.809753 341.989777,767.711304 
	C343.983429,755.508667 346.050720,743.317078 347.909180,731.093750 
	C349.722321,719.168701 351.242065,707.199158 353.026642,695.269470 
	C354.108276,688.038696 355.469482,680.849976 356.653564,673.633911 
	C356.881653,672.243958 356.870026,670.814697 357.000946,668.947144 
	C313.137970,668.947144 269.730255,668.947144 225.611923,668.947144 
	C232.212097,625.480042 238.732056,582.541199 245.317230,539.172791 
	C288.886749,539.172791 332.632416,539.172791 377.075958,539.172791 
	C381.814117,507.381653 386.507812,475.888824 391.546692,444.173798 
z"/>
<path fill="#254D9B" opacity="1.000000" stroke="none" 
	d="
M1.000001,263.375000 
	C1.999650,257.659698 3.103343,252.336349 3.976576,246.975449 
	C5.625229,236.854126 7.178181,226.716766 8.701920,216.575699 
	C10.179446,206.742218 11.544146,196.891815 13.006700,187.056015 
	C14.443129,177.395935 15.917100,167.741257 17.417376,158.090881 
	C18.916956,148.444962 20.463591,138.806351 22.003136,129.166702 
	C22.377977,126.819664 22.805841,124.481094 23.202845,122.176254 
	C72.288498,122.176254 120.915230,122.176254 169.955566,122.176254 
	C168.893661,129.744141 167.931961,137.100250 166.815491,144.432800 
	C165.271744,154.571533 163.616287,164.693314 161.999817,174.820923 
	C160.025513,187.190475 157.936676,199.542877 156.092361,211.931732 
	C154.267303,224.191422 152.694427,236.488571 150.991562,248.766602 
	C150.342163,253.449066 149.650436,258.125763 148.956604,262.801910 
	C148.458633,266.158112 146.027924,266.033844 143.435501,266.030365 
	C109.935959,265.985229 76.436333,266.000397 42.936722,266.000519 
	C29.270252,266.000580 15.603783,266.001038 1.468657,266.000671 
	C1.000000,265.250000 1.000000,264.500000 1.000001,263.375000 
z"/>
<path fill="#276CA3" opacity="1.000000" stroke="none" 
	d="
M588.599976,0.999997 
	C587.227234,12.569523 585.564514,24.157272 583.652161,35.703690 
	C581.557007,48.354233 579.219238,60.964489 577.009521,73.596222 
	C574.742554,86.555298 572.460693,99.512016 570.268188,112.483765 
	C569.159302,119.044792 568.233398,125.636742 567.099182,133.033417 
	C601.778870,133.033417 636.420837,133.033417 671.480896,133.459991 
	C656.869019,172.477707 643.773315,211.678131 634.415466,252.073318 
	C633.318604,256.808136 631.928711,261.361206 634.990540,265.834381 
	C600.933899,265.890808 566.877258,265.952942 532.820618,266.000275 
	C522.187378,266.015076 511.554138,265.989868 500.407806,265.538940 
	C499.721558,263.819122 499.238342,262.494720 499.429413,261.276001 
	C500.221893,256.220764 500.937866,251.126968 502.184479,246.173798 
	C510.746124,212.155991 518.262024,177.817245 528.360901,144.257797 
	C542.959778,95.744774 561.093933,48.461514 584.649414,3.436283 
	C585.008057,2.750670 584.893677,1.817589 585.000000,1.000001 
	C586.066711,1.000000 587.133362,1.000000 588.599976,0.999997 
z"/>
<path fill="#265FA0" opacity="1.000000" stroke="none" 
	d="
M584.531372,1.000001 
	C584.893677,1.817589 585.008057,2.750670 584.649414,3.436283 
	C561.093933,48.461514 542.959778,95.744774 528.360901,144.257797 
	C518.262024,177.817245 510.746124,212.155991 502.184479,246.173798 
	C500.937866,251.126968 500.221893,256.220764 499.429413,261.276001 
	C499.238342,262.494720 499.721558,263.819122 499.944000,265.464569 
	C496.515533,265.834198 493.037781,265.834198 489.164581,265.834198 
	C495.824493,222.033417 502.461975,178.380096 509.172852,134.244156 
	C484.149536,134.244156 459.434265,134.244156 433.763092,134.244156 
	C434.616089,128.327118 435.283447,122.943428 436.184204,117.599045 
	C438.397705,104.465500 440.685516,91.344185 443.005798,78.228996 
	C445.239929,65.600739 447.646393,53.002365 449.801636,40.360947 
	C451.659912,29.461266 453.266693,18.518766 454.995911,7.596973 
	C455.299835,5.677282 455.659149,3.766357 455.996460,1.425692 
	C498.687561,1.000000 541.375122,1.000000 584.531372,1.000001 
z"/>
<path fill="#288AAB" opacity="1.000000" stroke="none" 
	d="
M974.531372,0.999994 
	C973.775696,2.705701 972.867310,4.815892 971.279419,6.055954 
	C950.255371,22.474152 931.489929,41.233810 913.533630,60.890877 
	C895.466553,80.669022 879.539429,102.067039 865.059448,124.528740 
	C844.919373,155.770569 828.261292,188.834274 815.033081,223.579147 
	C810.425354,235.681503 806.357056,247.989868 802.097656,260.223419 
	C801.558838,261.770996 801.358032,263.436218 800.998657,265.439941 
	C784.638367,265.881836 768.280090,265.930817 751.414001,265.553040 
	C751.052246,262.880768 750.822815,260.530884 751.412781,258.408813 
	C753.411682,251.218185 755.607178,244.078094 757.894470,236.972427 
	C768.712524,203.366547 782.060486,170.804108 798.257263,139.420029 
	C799.298706,137.401947 800.088562,135.253998 800.995422,133.166458 
	C812.794861,133.166458 824.594360,133.166458 836.447021,133.166458 
	C843.344604,89.077156 850.167419,45.465691 856.995117,1.427113 
	C896.020874,1.000000 935.041809,1.000000 974.531372,0.999994 
z"/>
<path fill="#21254A" opacity="1.000000" stroke="none" 
	d="
M1690.998779,410.857513 
	C1687.338135,425.303528 1684.224365,439.477997 1679.849976,453.252106 
	C1676.221924,464.676178 1671.944458,476.060364 1666.455444,486.687927 
	C1658.363159,502.355743 1649.380737,517.616089 1639.921143,532.506104 
	C1634.057861,541.735291 1626.808350,550.121887 1619.811890,558.581238 
	C1613.962524,565.653503 1607.946411,572.665283 1601.351807,579.027649 
	C1587.404907,592.483826 1572.651123,604.966492 1556.746582,616.184082 
	C1540.893555,627.365295 1524.297485,637.131287 1506.892090,645.527710 
	C1488.043701,654.620178 1468.378052,661.874939 1448.089233,666.779724 
	C1433.322021,670.349548 1418.027100,671.777161 1402.936768,673.947144 
	C1398.074829,674.646240 1393.116943,674.931152 1388.200317,674.960327 
	C1321.623901,675.355408 1255.046875,675.672058 1188.470093,676.006775 
	C1186.818970,676.015076 1185.167847,676.007812 1182.914307,676.007812 
	C1211.032715,497.880798 1239.109741,320.016327 1267.210815,141.999756 
	C1269.092896,141.999756 1270.577515,141.999771 1272.062134,141.999756 
	C1338.548340,141.999298 1405.036499,141.733017 1471.519165,142.221115 
	C1484.932129,142.319565 1498.343018,145.138138 1511.722046,146.944351 
	C1537.448364,150.417465 1561.384277,159.495193 1583.772339,172.173874 
	C1596.175659,179.198166 1607.605591,188.053589 1618.993164,196.716141 
	C1625.527100,201.686554 1631.464233,207.586578 1637.034180,213.652023 
	C1653.543335,231.629623 1666.570435,251.832520 1676.285767,274.350891 
	C1682.877808,289.630035 1687.623291,305.346313 1690.707153,321.565460 
	C1692.467041,330.821472 1692.993774,340.316132 1693.978760,349.713501 
	C1694.439697,354.111298 1695.210205,358.570251 1694.909668,362.937439 
	C1693.819580,378.777161 1692.335571,394.589813 1690.998779,410.857513 
M1396.353027,566.999512 
	C1397.765015,566.666321 1399.160400,566.175293 1400.591675,566.023682 
	C1420.203979,563.945801 1438.721313,557.886292 1456.485474,549.723022 
	C1480.245728,538.804260 1500.212280,522.809814 1516.906250,502.636780 
	C1530.000610,486.813354 1539.553711,469.054901 1546.542236,449.866882 
	C1553.148926,431.726959 1557.378296,412.936646 1558.781860,393.739960 
	C1559.622437,382.243225 1558.532837,370.580841 1557.952026,359.010864 
	C1557.214600,344.318390 1552.811768,330.440002 1546.549561,317.326782 
	C1540.397339,304.443542 1532.481079,292.530182 1520.956299,283.647003 
	C1513.427368,277.843750 1505.910400,271.861328 1497.718750,267.113922 
	C1477.012329,255.113510 1453.919800,250.788269 1430.478760,249.221649 
	C1413.574585,248.091904 1396.534058,249.001495 1378.987305,249.001495 
	C1362.054199,355.667511 1345.144531,462.186249 1328.187988,569.000000 
	C1330.171875,569.000000 1331.825562,569.045532 1333.475952,568.993103 
	C1354.129272,568.336914 1374.781982,567.666626 1396.353027,566.999512 
z"/>
<path fill="#21254A" opacity="1.000000" stroke="none" 
	d="
M2198.027832,646.782104 
	C2200.232178,656.611816 2202.413330,666.007751 2204.734863,676.007751 
	C2202.219727,676.007751 2200.591064,676.007751 2198.962402,676.007751 
	C2156.629883,676.007751 2114.297363,675.956177 2071.965332,676.091187 
	C2067.927490,676.104065 2066.716553,675.085266 2065.806396,670.876892 
	C2061.104004,649.131958 2049.166748,633.401794 2027.806274,624.832153 
	C2009.190308,617.363647 1989.879761,616.770935 1970.689453,618.273926 
	C1932.475220,621.266724 1895.949463,632.350647 1860.039185,645.170410 
	C1842.675415,651.369263 1825.807739,658.969360 1808.774292,666.075745 
	C1802.113770,668.854553 1795.632202,672.059448 1789.026611,674.973999 
	C1787.730835,675.545715 1786.240112,675.964111 1784.838745,675.965698 
	C1741.012329,676.016907 1697.185791,676.007690 1652.601929,676.007690 
	C1656.277710,668.816956 1659.625732,661.976318 1663.234985,655.276367 
	C1668.426392,645.639343 1673.861816,636.133972 1679.097046,626.520142 
	C1690.255127,606.029968 1701.309692,585.483459 1712.484009,565.002319 
	C1724.261230,543.416260 1736.176147,521.905151 1747.935303,500.309326 
	C1753.167847,490.699402 1758.061157,480.904846 1763.291992,471.293976 
	C1775.126709,449.549011 1787.124268,427.892609 1798.959839,406.148132 
	C1806.192017,392.861389 1813.185181,379.444702 1820.395630,366.145996 
	C1832.741333,343.375732 1845.226807,320.681061 1857.553711,297.900665 
	C1869.416504,275.978027 1881.114014,253.966034 1892.958252,232.033371 
	C1901.137817,216.886688 1909.435913,201.803940 1917.695312,186.700485 
	C1925.413818,172.586151 1933.097168,158.451721 1940.977173,144.427872 
	C1941.651978,143.226807 1943.687012,142.102661 1945.092896,142.099319 
	C1992.258179,141.987274 2039.423584,142.015411 2086.589111,142.034073 
	C2086.905518,142.034195 2087.221924,142.187363 2087.837891,142.346512 
	C2090.539551,154.440430 2093.310791,166.654770 2095.989502,178.889328 
	C2098.814697,191.792923 2101.549316,204.716324 2104.328125,217.630051 
	C2107.884277,234.156097 2111.361816,250.699661 2115.031738,267.200409 
	C2117.896973,280.082947 2121.143799,292.881134 2123.969238,305.772003 
	C2127.454102,321.671875 2130.614014,337.642731 2134.029053,353.558289 
	C2139.981445,381.298920 2145.941162,409.038422 2152.051270,436.744568 
	C2156.563477,457.203979 2161.427002,477.585846 2165.937500,498.045593 
	C2171.072510,521.340515 2175.953857,544.691223 2181.010498,568.003540 
	C2186.301025,592.393250 2191.671631,616.765564 2196.997314,641.147644 
	C2197.374023,642.872253 2197.670898,644.614319 2198.027832,646.782104 
M1892.515991,522.991577 
	C1902.884033,519.569397 1913.172729,515.878357 1923.638916,512.788757 
	C1938.900024,508.283722 1954.470581,505.264343 1970.455688,505.022186 
	C1978.784790,504.895966 1987.172974,504.399597 1995.433716,505.161957 
	C2004.418091,505.991119 2013.372314,507.714020 2022.172974,509.763519 
	C2027.817383,511.077972 2033.160278,513.687439 2038.918823,515.820312 
	C2036.990479,506.546204 2035.074829,497.603882 2033.278687,488.637634 
	C2029.817017,471.359009 2026.437134,454.064026 2022.997192,436.781036 
	C2019.592041,419.673187 2016.177490,402.567169 2012.723999,385.469055 
	C2009.511719,369.563507 2006.239136,353.670166 2003.000610,337.769928 
	C2000.652222,326.240875 1998.446289,314.679901 1995.854980,303.205872 
	C1995.381226,301.107574 1995.550049,297.723602 1991.413086,297.927795 
	C1987.318604,298.129974 1983.352173,297.376343 1981.105591,302.378204 
	C1978.080078,309.114075 1974.556396,315.638275 1971.023682,322.132050 
	C1959.268799,343.739319 1947.359131,365.262512 1935.621338,386.879120 
	C1929.948242,397.327057 1924.635986,407.970978 1918.968628,418.422211 
	C1906.389038,441.620209 1893.699463,464.758575 1881.029419,487.907410 
	C1877.873535,493.673401 1874.540161,499.343140 1871.431030,505.133759 
	C1864.933716,517.234802 1858.531250,529.386780 1851.542603,542.548889 
	C1854.362061,541.002258 1856.184204,539.887695 1858.100708,538.970093 
	C1869.293335,533.611328 1880.508179,528.298828 1892.515991,522.991577 
z"/>
<path fill="#21254A" opacity="1.000000" stroke="none" 
	d="
M2396.984131,249.000336 
	C2351.850830,249.000336 2307.214111,249.000336 2261.692383,249.000336 
	C2267.268066,213.317245 2272.784668,178.011108 2278.359131,142.335663 
	C2419.254395,142.335663 2560.433838,142.335663 2702.403076,142.335663 
	C2696.862061,177.855026 2691.349121,213.195114 2685.778564,248.902908 
	C2636.672607,248.902908 2587.576172,248.902908 2538.122314,248.902908 
	C2536.381104,259.383881 2534.632812,269.549316 2533.015869,279.735565 
	C2531.160645,291.420837 2529.430176,303.125885 2527.629395,314.819916 
	C2526.098389,324.764679 2524.546387,334.706268 2523.000732,344.648804 
	C2521.308105,355.537964 2519.650146,366.432617 2517.906982,377.313660 
	C2516.320068,387.219849 2514.640381,397.111145 2513.000244,407.008759 
	C2510.695557,420.915466 2508.303467,434.808350 2506.113037,448.732941 
	C2504.598877,458.355682 2503.444092,468.034454 2501.979980,477.665558 
	C2500.302002,488.700409 2498.447266,499.708252 2496.693115,510.731628 
	C2495.112549,520.665955 2493.575928,530.607361 2491.997070,540.542053 
	C2490.241943,551.586487 2488.461670,562.627014 2486.692139,573.669067 
	C2485.128906,583.421875 2483.588135,593.178223 2481.995117,602.926147 
	C2479.719727,616.846436 2477.356934,630.752563 2475.126709,644.679993 
	C2473.664307,653.810913 2472.228516,662.951233 2471.089844,672.125671 
	C2470.764404,674.747009 2470.222900,676.046265 2467.331543,676.042664 
	C2425.694580,675.990845 2384.057617,676.007141 2341.921631,676.007141 
	C2364.428955,533.686829 2386.888916,391.665375 2409.450439,249.000336 
	C2405.041016,249.000336 2401.260742,249.000336 2396.984131,249.000336 
z"/>
<path fill="#2AA0B1" opacity="1.000000" stroke="none" 
	d="
M884.462280,690.806763 
	C882.442810,689.745117 879.975647,688.814514 879.197510,687.111938 
	C871.950195,671.253418 864.599854,655.422119 858.036499,639.275146 
	C845.696411,608.916443 837.315247,577.340515 831.345947,545.179565 
	C828.485291,529.767029 827.007141,514.094910 824.996887,498.528290 
	C822.077148,475.919861 821.311523,453.176880 822.139404,430.444122 
	C822.722778,414.427704 824.525940,398.451385 825.932190,382.470184 
	C828.244080,356.197998 833.368896,330.409576 840.058350,304.947113 
	C847.748535,275.675110 857.856812,247.272949 870.510559,219.712555 
	C882.899597,192.728745 897.349548,166.979553 914.638977,142.910858 
	C924.192566,129.611343 934.593201,116.871338 945.265381,104.440018 
	C953.592896,94.739792 962.857971,85.835052 971.878845,76.748024 
	C973.533752,75.080963 976.015625,74.234886 978.475342,73.001915 
	C977.395996,82.648308 975.969482,92.304520 974.514832,101.956490 
	C972.986694,112.096504 971.431641,122.232460 969.787354,133.033218 
	C980.513794,133.033218 990.789429,133.033218 1001.486450,133.433411 
	C1000.019897,135.641083 998.073303,137.391602 996.253052,139.264877 
	C977.926575,158.125214 961.733887,178.699142 947.727722,200.929550 
	C931.198975,227.163757 917.320801,254.760757 906.897583,284.006378 
	C896.916321,312.011963 888.729248,340.513214 884.867798,370.076752 
	C882.664062,386.948669 879.848389,403.845154 879.255249,420.798676 
	C878.350159,446.667297 877.963379,472.659241 882.032471,498.382202 
	C885.000671,517.145630 887.461426,536.077515 891.985352,554.482727 
	C896.925842,574.582703 903.005188,594.537415 910.415833,613.854370 
	C916.730591,630.314697 921.817078,647.808655 934.995178,660.838806 
	C919.886780,660.838806 904.778320,660.838806 889.421753,660.838806 
	C887.838257,671.024292 886.318176,680.802002 884.462280,690.806763 
z"/>
<path fill="#2AADB4" opacity="1.000000" stroke="none" 
	d="
M935.459473,660.908997 
	C921.817078,647.808655 916.730591,630.314697 910.415833,613.854370 
	C903.005188,594.537415 896.925842,574.582703 891.985352,554.482727 
	C887.461426,536.077515 885.000671,517.145630 882.032471,498.382202 
	C877.963379,472.659241 878.350159,446.667297 879.255249,420.798676 
	C879.848389,403.845154 882.664062,386.948669 884.867798,370.076752 
	C888.729248,340.513214 896.916321,312.011963 906.897583,284.006378 
	C917.320801,254.760757 931.198975,227.163757 947.727722,200.929550 
	C961.733887,178.699142 977.926575,158.125214 996.253052,139.264877 
	C998.073303,137.391602 1000.019897,135.641083 1001.950439,133.499664 
	C1028.684326,133.121704 1055.375610,133.077667 1082.488525,133.437378 
	C1080.954468,135.553955 1079.165283,137.518219 1077.017578,138.940903 
	C1054.890747,153.597519 1035.241821,170.985641 1017.517822,190.779572 
	C1001.265564,208.929901 987.497253,228.742798 975.272766,249.691330 
	C972.314575,254.760788 970.393982,260.435760 967.996216,265.832306 
	C961.866882,265.832306 955.737610,265.832306 949.578491,265.832306 
	C936.336792,352.904114 923.171509,439.473816 910.279358,526.788086 
	C918.703308,527.693298 926.854126,527.854004 935.003418,528.447266 
	C935.204346,530.682922 935.149231,532.561096 935.649109,534.277527 
	C940.650208,551.450195 944.908752,568.898926 951.000244,585.680481 
	C960.683899,612.358459 972.707336,638.012451 989.994080,660.836304 
	C971.970642,660.883972 953.947266,660.931580 935.459473,660.908997 
z"/>
<path fill="#287FA8" opacity="1.000000" stroke="none" 
	d="
M652.994690,528.167480 
	C678.352417,528.121704 703.710083,528.075989 729.533142,528.536011 
	C730.012512,530.707153 729.779114,532.418457 730.077820,534.031128 
	C734.350830,557.099854 737.679810,580.406311 743.298218,603.145996 
	C749.369995,627.720642 757.110291,651.923584 765.060730,675.978638 
	C770.048950,691.071045 776.351562,705.776611 782.828369,720.315369 
	C788.707031,733.511719 795.351929,746.390320 802.156982,759.143250 
	C808.074646,770.233276 814.688477,780.951782 820.994629,791.834473 
	C792.203003,791.834473 763.411438,791.834473 733.874329,791.834473 
	C741.330322,748.268921 748.746399,704.936340 756.267151,660.992188 
	C729.799438,660.992188 703.860229,660.992188 677.407471,660.546509 
	C675.883667,656.437744 674.870361,652.775513 673.863586,649.111450 
	C664.404114,614.688171 657.807983,579.690491 653.157166,544.324585 
	C652.460022,539.023438 653.017578,533.557312 652.994690,528.167480 
z"/>
<path fill="#2774A5" opacity="1.000000" stroke="none" 
	d="
M652.530701,528.099548 
	C653.017578,533.557312 652.460022,539.023438 653.157166,544.324585 
	C657.807983,579.690491 664.404114,614.688171 673.863586,649.111450 
	C674.870361,652.775513 675.883667,656.437744 676.943237,660.474915 
	C637.634277,660.895569 598.276123,660.942139 558.453613,660.914185 
	C548.928650,647.831665 549.098145,632.211060 546.182190,617.568298 
	C542.477783,598.965942 539.892639,580.132446 537.135010,561.353149 
	C535.744568,551.884521 534.992615,542.319885 534.078491,532.786499 
	C533.959045,531.540833 534.596069,530.222595 534.936462,528.552429 
	C566.043762,528.111877 597.097290,528.052063 628.150879,528.005127 
	C636.122803,527.993103 644.094788,528.021667 652.530701,528.099548 
z"/>
<path fill="#2888AB" opacity="1.000000" stroke="none" 
	d="
M821.458862,791.906372 
	C814.688477,780.951782 808.074646,770.233276 802.156982,759.143250 
	C795.351929,746.390320 788.707031,733.511719 782.828369,720.315369 
	C776.351562,705.776611 770.048950,691.071045 765.060730,675.978638 
	C757.110291,651.923584 749.369995,627.720642 743.298218,603.145996 
	C737.679810,580.406311 734.350830,557.099854 730.077820,534.031128 
	C729.779114,532.418457 730.012512,530.707153 729.997070,528.604126 
	C745.341370,528.106445 760.687195,528.046387 776.496460,527.934692 
	C779.457764,543.547058 781.429565,559.317078 784.560974,574.853394 
	C791.494202,609.252930 801.737000,642.722412 815.218506,675.123718 
	C828.900696,708.007080 844.634155,739.866028 864.727783,769.400818 
	C865.895386,771.117004 867.669922,772.420105 869.497742,773.959473 
	C869.175049,779.151978 868.760681,784.353088 867.669800,789.408264 
	C867.426819,790.534180 864.813293,791.862427 863.274841,791.883179 
	C849.493042,792.069397 835.707458,791.983826 821.458862,791.906372 
z"/>
<path fill="#2BB5B7" opacity="1.000000" stroke="none" 
	d="
M968.460571,265.902405 
	C970.393982,260.435760 972.314575,254.760788 975.272766,249.691330 
	C987.497253,228.742798 1001.265564,208.929901 1017.517822,190.779572 
	C1035.241821,170.985641 1054.890747,153.597519 1077.017578,138.940903 
	C1079.165283,137.518219 1080.954468,135.553955 1082.952515,133.504318 
	C1089.789795,133.167496 1096.584473,133.167496 1104.258911,133.167496 
	C1097.508423,177.509521 1090.802246,221.559875 1084.041016,265.972473 
	C1045.410889,265.972473 1007.167908,265.972473 968.460571,265.902405 
z"/>
<path fill="#2BB5B7" opacity="1.000000" stroke="none" 
	d="
M990.458618,660.906006 
	C972.707336,638.012451 960.683899,612.358459 951.000244,585.680481 
	C944.908752,568.898926 940.650208,551.450195 935.649109,534.277527 
	C935.149231,532.561096 935.204346,530.682922 935.471497,528.442749 
	C971.914551,527.988770 1007.888062,527.971863 1043.861572,527.954956 
	C1042.887207,535.913391 1042.069336,543.895020 1040.898926,551.824585 
	C1039.421021,561.835266 1037.608276,571.796082 1036.026611,581.792114 
	C1033.983398,594.705017 1031.940552,607.619019 1030.055786,620.555664 
	C1028.239014,633.026672 1026.629272,645.527771 1024.897949,658.011353 
	C1024.835693,658.459717 1024.447632,658.862915 1023.847778,659.748474 
	C1023.265137,660.373047 1023.111572,660.584045 1023.023499,660.842712 
	C1012.323364,660.887085 1001.623291,660.931396 990.458618,660.906006 
z"/>
<path fill="#21A0A0" opacity="1.000000" stroke="none" 
	d="
M1043.697754,527.560059 
	C1007.888062,527.971863 971.914551,527.988770 935.472961,528.010193 
	C926.854126,527.854004 918.703308,527.693298 910.287170,527.205872 
	C952.537170,526.919434 995.052612,526.957581 1037.567993,527.006714 
	C1039.556641,527.009033 1041.545410,527.110046 1043.697754,527.560059 
z"/>
<path fill="#2AADB4" opacity="1.000000" stroke="none" 
	d="
M1023.271973,660.859497 
	C1023.111572,660.584045 1023.265137,660.373047 1023.660156,660.118774 
	C1023.990173,660.407104 1023.884949,660.689941 1023.271973,660.859497 
z"/>
<path fill="#287EA8" opacity="1.000000" stroke="none" 
	d="
M800.531372,133.099106 
	C800.088562,135.253998 799.298706,137.401947 798.257263,139.420029 
	C782.060486,170.804108 768.712524,203.366547 757.894470,236.972427 
	C755.607178,244.078094 753.411682,251.218185 751.412781,258.408813 
	C750.822815,260.530884 751.052246,262.880768 750.949951,265.480408 
	C712.635498,265.884155 674.277100,265.933716 635.454651,265.908813 
	C631.928711,261.361206 633.318604,256.808136 634.415466,252.073318 
	C643.773315,211.678131 656.869019,172.477707 671.944702,133.526489 
	C698.733826,133.111069 725.477356,133.040573 752.220886,133.006027 
	C768.169617,132.985443 784.118469,133.021286 800.531372,133.099106 
z"/>
<path fill="#254F9B" opacity="1.000000" stroke="none" 
	d="
M332.994293,408.833832 
	C304.870819,408.833832 276.747375,408.833832 247.578735,408.833832 
	C254.850861,360.901459 262.084747,313.221100 269.396759,265.025879 
	C294.866852,265.025879 320.467499,265.025879 346.523621,265.487244 
	C344.275299,281.222687 341.129944,296.434875 338.978363,311.786316 
	C336.231110,331.387909 334.264282,351.099396 332.008209,370.768921 
	C331.293701,376.998535 330.228607,383.246124 330.236298,389.484344 
	C330.244293,395.985413 327.715607,403.029694 332.994293,408.833832 
z"/>
<path fill="#26579E" opacity="1.000000" stroke="none" 
	d="
M333.458191,408.907837 
	C327.715607,403.029694 330.244293,395.985413 330.236298,389.484344 
	C330.228607,383.246124 331.293701,376.998535 332.008209,370.768921 
	C334.264282,351.099396 336.231110,331.387909 338.978363,311.786316 
	C341.129944,296.434875 344.275299,281.222687 346.987305,265.557373 
	C369.782623,265.166138 392.569763,265.166138 416.461121,265.166138 
	C409.189056,313.108276 401.957367,360.784546 394.646606,408.981873 
	C374.455719,408.981873 354.188904,408.981873 333.458191,408.907837 
z"/>
<path fill="#FFFFFF" opacity="1.000000" stroke="none" 
	d="
M2801.336914,540.198853 
	C2800.288818,540.995361 2799.561279,541.585632 2798.833740,542.175903 
	C2798.501953,541.950989 2798.169922,541.726074 2797.838135,541.501160 
	C2798.906250,539.747131 2800.063232,538.040649 2801.027344,536.231262 
	C2806.699463,525.586365 2812.223389,514.861450 2817.990234,504.268585 
	C2829.599121,482.944366 2841.394775,461.721802 2852.986084,440.388153 
	C2858.590088,430.073608 2863.773682,419.530396 2869.380859,409.217621 
	C2881.519531,386.892029 2893.854492,364.673096 2906.018799,342.361237 
	C2913.020020,329.519440 2920.068115,316.693237 2926.618652,303.621368 
	C2928.694824,299.478027 2930.664307,296.877502 2935.615723,297.965912 
	C2936.876221,298.242950 2938.249268,298.007446 2940.949707,298.007446 
	C2955.588135,370.800537 2970.233887,443.630188 2984.908447,516.602600 
	C2973.985840,510.503448 2962.382324,507.078613 2950.071045,505.994537 
	C2942.578857,505.334778 2935.066406,503.922333 2927.599609,504.133820 
	C2904.662598,504.783478 2882.178955,508.432495 2860.191895,515.292236 
	C2839.853027,521.637634 2820.624756,530.471130 2801.336914,540.198853 
z"/>
<path fill="#FFFFFF" opacity="1.000000" stroke="none" 
	d="
M1395.894043,566.999756 
	C1374.781982,567.666626 1354.129272,568.336914 1333.475952,568.993103 
	C1331.825562,569.045532 1330.171875,569.000000 1328.187988,569.000000 
	C1345.144531,462.186249 1362.054199,355.667511 1378.987305,249.001495 
	C1396.534058,249.001495 1413.574585,248.091904 1430.478760,249.221649 
	C1453.919800,250.788269 1477.012329,255.113510 1497.718750,267.113922 
	C1505.910400,271.861328 1513.427368,277.843750 1520.956299,283.647003 
	C1532.481079,292.530182 1540.397339,304.443542 1546.549561,317.326782 
	C1552.811768,330.440002 1557.214600,344.318390 1557.952026,359.010864 
	C1558.532837,370.580841 1559.622437,382.243225 1558.781860,393.739960 
	C1557.378296,412.936646 1553.148926,431.726959 1546.542236,449.866882 
	C1539.553711,469.054901 1530.000610,486.813354 1516.906250,502.636780 
	C1500.212280,522.809814 1480.245728,538.804260 1456.485474,549.723022 
	C1438.721313,557.886292 1420.203979,563.945801 1400.591675,566.023682 
	C1399.160400,566.175293 1397.765015,566.666321 1395.894043,566.999756 
z"/>
<path fill="#FFFFFF" opacity="1.000000" stroke="none" 
	d="
M1892.115723,522.981079 
	C1880.508179,528.298828 1869.293335,533.611328 1858.100708,538.970093 
	C1856.184204,539.887695 1854.362061,541.002258 1851.542603,542.548889 
	C1858.531250,529.386780 1864.933716,517.234802 1871.431030,505.133759 
	C1874.540161,499.343140 1877.873535,493.673401 1881.029419,487.907410 
	C1893.699463,464.758575 1906.389038,441.620209 1918.968628,418.422211 
	C1924.635986,407.970978 1929.948242,397.327057 1935.621338,386.879120 
	C1947.359131,365.262512 1959.268799,343.739319 1971.023682,322.132050 
	C1974.556396,315.638275 1978.080078,309.114075 1981.105591,302.378204 
	C1983.352173,297.376343 1987.318604,298.129974 1991.413086,297.927795 
	C1995.550049,297.723602 1995.381226,301.107574 1995.854980,303.205872 
	C1998.446289,314.679901 2000.652222,326.240875 2003.000610,337.769928 
	C2006.239136,353.670166 2009.511719,369.563507 2012.723999,385.469055 
	C2016.177490,402.567169 2019.592041,419.673187 2022.997192,436.781036 
	C2026.437134,454.064026 2029.817017,471.359009 2033.278687,488.637634 
	C2035.074829,497.603882 2036.990479,506.546204 2038.918823,515.820312 
	C2033.160278,513.687439 2027.817383,511.077972 2022.172974,509.763519 
	C2013.372314,507.714020 2004.418091,505.991119 1995.433716,505.161957 
	C1987.172974,504.399597 1978.784790,504.895966 1970.455688,505.022186 
	C1954.470581,505.264343 1938.900024,508.283722 1923.638916,512.788757 
	C1913.172729,515.878357 1902.884033,519.569397 1892.115723,522.981079 
z"/>
</svg>