<svg version="1.2" xmlns="http://www.w3.org/2000/svg" viewBox="0 0 380 276" width="380" height="276">
	<title>helpful-logo-vertical-large-ai</title>
	<style>
		.s0 { fill: #2a3952 } 
		.s1 { fill: #41536f } 
		.s2 { fill: #496783 } 
		.s3 { fill: #a7f370 } 
		.s4 { fill: #4faf38 } 
	</style>
	<g id="Layer 1">
		<g id="&lt;Group&gt;">
			<g id="&lt;Group&gt;">
				<path id="&lt;Compound Path&gt;" class="s0" d="m62.2 262.3v-20.1h-18.6v20.1h-11.6v-47.9h11.6v18.1h18.6v-18.1h11.6v47.9z"/>
				<path id="&lt;Compound Path&gt;" class="s0" d="m90.6 262.3v-47.9h32.2v9.7h-21v9.1h19.9v9.2h-19.9v10h22.2v9.9z"/>
				<path id="&lt;Compound Path&gt;" class="s0" d="m139 262.3v-47.9h11.6v37.8h18.6v10.1z"/>
				<path id="&lt;Compound Path&gt;" fill-rule="evenodd" class="s0" d="m217.4 229.1q0 4.2-1.5 7.1-1.6 2.9-4.2 4.6-2.7 1.8-6.1 2.6-3.5 0.8-7.2 0.8h-5.7v18.1h-11.6v-47.9h17.6q3.9 0 7.3 0.7 3.4 0.8 6 2.5 2.5 1.8 4 4.6 1.4 2.8 1.4 6.9zm-11.6 0.1q0-1.7-0.6-2.8-0.7-1.1-1.9-1.7-1.1-0.6-2.6-0.8-1.4-0.2-3-0.2h-5v11.3h4.8q1.6 0 3.1-0.3 1.5-0.2 2.7-0.9 1.2-0.7 1.9-1.8 0.6-1.1 0.6-2.8z"/>
				<path id="&lt;Compound Path&gt;" class="s0" d="m241.5 224.2v9.9h18.5v9.6h-18.5v18.6h-11.4v-47.9h31.5v9.8z"/>
				<path id="&lt;Compound Path&gt;" class="s0" d="m314.8 252.1q-1.5 3.5-4.2 6.1-2.7 2.5-6.5 3.9-3.8 1.4-8.5 1.4-4.7 0-8.5-1.4-3.8-1.4-6.5-3.9-2.6-2.6-4-6.1-1.4-3.6-1.4-7.9v-29.8h11.5v28.9q0 1.9 0.5 3.7 0.5 1.7 1.5 3.1 1.1 1.4 2.8 2.2 1.7 0.8 4.2 0.8 2.4 0 4.1-0.8 1.7-0.8 2.8-2.2 1.1-1.4 1.6-3.1 0.5-1.8 0.5-3.7v-28.9h11.5v29.8q0 4.3-1.4 7.9z"/>
				<path id="&lt;Compound Path&gt;" class="s0" d="m332.6 262.3v-47.9h11.6v37.8h18.6v10.1z"/>
			</g>
			<g id="&lt;Group&gt;">
				<path id="&lt;Path&gt;" class="s1" d="m197.5-0.8l-0.1 82.4 71.3 41.4 0.2-82.5z"/>
				<path id="&lt;Path&gt;" class="s0" d="m197.4 81.6l0.1-82.4-71.5 41.1-0.1 82.4z"/>
				<path id="&lt;Path&gt;" class="s2" d="m215.5 92.1v-3.3h-5.6l-12.4-7.2-12.8 7.4h-6.5v3.7l-52.2 30 71.3 41.4 71.5-41.1z"/>
				<path id="&lt;Path&gt;" class="s3" d="m179.8 37.8h0.1l-10.8-6.3-10.9 6.3v89.9l10.8 6.2v-89.9z"/>
				<g id="&lt;Group&gt;">
					<path id="&lt;Path&gt;" class="s4" d="m236.6 127.7v-89.9h-0.1l-10.8 6.2v89.9 0.1z"/>
				</g>
				<path id="&lt;Path&gt;" class="s3" d="m225.8 31.5l-10.9 6.3v34.1h-35-0.1l-8.5 9 52.1 0.1-8.5 9v37.7l10.8 6.2v-89.9l10.8-6.2h0.1z"/>
				<g id="&lt;Group&gt;">
					<path id="&lt;Path&gt;" class="s4" d="m171.3 80.9l8.6-9v-34.1h-0.1l-10.8 6.2v89.9l0.1 0.1 10.8-6.3v-37.7h35.1l8.4-9z"/>
				</g>
			</g>
		</g>
	</g>
</svg>