<?xml version="1.0" encoding="utf-8"?>
<!-- Generator: Adobe Illustrator 27.9.0, SVG Export Plug-In . SVG Version: 6.00 Build 0)  -->
<svg version="1.1" id="Ebene_2" xmlns="http://www.w3.org/2000/svg" xmlns:xlink="http://www.w3.org/1999/xlink" x="0px" y="0px"
	 viewBox="0 0 2470 825" style="enable-background:new 0 0 2470 825;" xml:space="preserve">
<style type="text/css">
	.st0{fill:#A1D1FF;}
	.st1{fill:#0080BF;}
	.st2{fill:#053964;}
</style>
<g>
	<polygon class="st0" points="817,212.6 226,212.6 226,411.1 622.8,411.1 	"/>
	<polygon class="st1" points="38.8,212.6 38.8,604.6 232.2,411.3 232.2,19.4 	"/>
	<polyline class="st1" points="232.2,212.6 427.7,19.4 427.7,212.6 	"/>
	<polygon class="st1" points="427.7,212.6 427.7,411.3 232.2,604.6 232.2,411.3 	"/>
	<polygon class="st1" points="427.7,800.1 427.7,411.3 622.8,212.6 622.8,604.6 	"/>
</g>
<g>
	<g>
		<path class="st2" d="M1053.1,604.7h-39.7v-186H902.8v186h-39.7V212.5h39.7v172.8h110.7V212.5h39.7V604.7z"/>
	</g>
	<g>
		<path class="st2" d="M1168.9,604.7h-39.7V212.5h39.7V604.7z"/>
	</g>
	<g>
		<path class="st2" d="M1335.9,609.3c-45.5,0-73.2-14.1-87.2-44.4c-9.6-19.8-10.2-29.1-10.2-166.4c0-111.7,2.4-133.3,16.9-153.8
			c16.2-24.1,44.3-36.8,81-36.8c62.4,0,96.7,33.3,96.7,93.9v14.9h-40.8v-4c0-21.8-2-34.8-7.1-46.2c-7.5-16.1-25.1-25.3-48.2-25.3
			c-25.2,0-43.5,11-51.6,30.9c-4.9,13.1-7.2,38.6-6.1,140.8l1.2,95.6c0.6,35.6,8.9,48.4,21.3,56.6c10.2,7,25.8,10.8,43.9,10.8
			c16.6,0,28.3-2.2,45-8.5V441.7H1340v-33.3h90.4v185.6l-2.9,0.8C1390.6,605.7,1367.5,609.3,1335.9,609.3z"/>
	</g>
	<g>
		<path class="st2" d="M1699.4,604.7h-39.7v-186H1549v186h-39.7V212.5h39.7v172.8h110.7V212.5h39.7V604.7z"/>
	</g>
	<g>
		<path class="st2" d="M1871,604.7h-39.7V245.9h-82.9v-33.3h206.1v33.3H1871V604.7z"/>
	</g>
	<g>
		<path class="st2" d="M2165.9,604.7h-161.8V212.5h154.3v33.3h-114.6v139.5h110v33.3h-110v152.7h122.1V604.7z"/>
	</g>
	<g>
		<path class="st2" d="M2311.7,609.3c-45.5,0-75.9-18.4-85.6-51.8c-4.8-15.7-5.9-27.4-6.5-69.6l-1.2-93.9
			c-1.2-111.2,1.9-131,14.4-150.8c15.2-23.7,40.1-35.3,76-35.3c40,0,69.3,14.9,82.5,42c7.5,14.9,8.5,27.2,8.5,68v4h-41.9l-0.1-3.9
			c-0.6-30.9-1.6-40-6.1-51c-6.8-16.3-22.3-25.7-42.4-25.7c-16.8,0-33.1,7.5-39.8,18.3c-7.4,12.2-9.8,26.3-9.8,90.1
			c0,61.5,0,74.3,1.2,157.2c0.5,30.8,5.4,49.2,15.4,58.1c8.1,7,20.6,11.1,34.2,11.1c19.1,0,35.5-8.7,40.6-21.7c4.9-12,6-18.5,6-55.5
			v-4h43.1V508c0,42-4.3,58.3-20,75.8C2365.8,600.7,2342.7,609.3,2311.7,609.3z"/>
	</g>
</g>
</svg>
