<?xml version="1.0" encoding="UTF-8"?>
<svg id="Ebene_1" xmlns="http://www.w3.org/2000/svg" version="1.1" viewBox="0 0 595.28 841.89">
  <!-- Generator: Adobe Illustrator 29.8.4, SVG Export Plug-In . SVG Version: 2.1.1 Build 6)  -->
  <defs>
    <style>
      .st0 {
        fill: #1d1d1b;
      }

      .st1 {
        fill: #e30613;
      }
    </style>
  </defs>
  <polygon class="st0" points="348.23 430.01 365.7 403.9 349.6 379.16 371.02 379.16 376.92 391.74 383.76 379.16 404.75 379.16 388.64 403.9 404.75 430.01 383.76 430.01 376.71 415.48 369.8 430.01 348.23 430.01 348.23 430.01"/>
  <path class="st0" d="M354.55,409.01h-37.68c0,6.47,4.46,9.64,9.99,9.64,2.73,0,5.32-1.01,6.83-3.73h19.86c-4.11,12.58-16.33,17.04-28.05,17.04-16.9,0-29.28-9.42-29.28-26.82s12.38-27.33,29.28-27.33c18.62,0,29.63,13.15,29.05,31.2h0ZM316.88,398.66h17.47c0-4.4-2.95-8.71-8.05-8.71-6.34,0-9.42,3.95-9.42,8.71h0Z"/>
  <path class="st0" d="M297.82,415.48v14.53c-26.47,1.94-30.21-.36-30.21-18.27v-20.78h-7.05v-11.8h7.62v-15.46h19.64v15.46h10v11.8h-10v18.05c0,4.89.79,6.47,6.47,6.47h3.53Z"/>
  <polygon class="st1" points="237.97 372.54 237.97 360.32 257.75 360.32 257.75 372.54 237.97 372.54 237.97 372.54"/>
  <polygon class="st0" points="257.75 430.01 237.97 430.01 237.97 379.16 257.75 379.16 257.75 430.01 257.75 430.01"/>
  <path class="st0" d="M177.71,430.01v-69.68h20.06v24.74c3.53-4.47,8.63-7.26,15.46-7.26,13.38,0,19.64,7.26,19.64,21.42v30.78h-20.2v-27.26c0-4.89-1.59-8.85-7.27-8.85-6.12,0-7.63,3.96-7.63,10.43v25.68h-20.06Z"/>
</svg>