<svg xmlns="http://www.w3.org/2000/svg" role="img" xmlns:xlink="http://www.w3.org/1999/xlink" viewBox="-10.89 -10.89 566.28 394.78"><defs><linearGradient id="a"><stop offset="0" stop-color="#0cf" stop-opacity="1"/><stop offset=".5" stop-color="#c0f" stop-opacity="1"/><stop offset="1" stop-color="#f06" stop-opacity="1"/></linearGradient><linearGradient id="b" x1="326.812" x2="489.796" y1="2.695" y2="280.727" gradientUnits="userSpaceOnUse" xlink:href="#a"/><linearGradient id="c" x1="326.812" x2="489.796" y1="2.695" y2="280.727" gradientUnits="userSpaceOnUse" xlink:href="#a"/><linearGradient id="d" x1="326.812" x2="489.796" y1="2.695" y2="280.727" gradientUnits="userSpaceOnUse" xlink:href="#a"/><linearGradient id="e" x1="326.812" x2="489.796" y1="2.695" y2="280.727" gradientUnits="userSpaceOnUse" xlink:href="#a"/><linearGradient id="f" x1="326.812" x2="489.796" y1="2.695" y2="280.727" gradientUnits="userSpaceOnUse" xlink:href="#a"/><linearGradient id="g" x1="326.812" x2="489.796" y1="2.695" y2="280.727" gradientUnits="userSpaceOnUse" xlink:href="#a"/><linearGradient id="h" x1="326.812" x2="489.796" y1="2.695" y2="280.727" gradientUnits="userSpaceOnUse" xlink:href="#a"/><linearGradient id="i" x1="326.812" x2="489.796" y1="2.695" y2="280.727" gradientUnits="userSpaceOnUse" xlink:href="#a"/><linearGradient id="j" x1="326.812" x2="489.796" y1="2.695" y2="280.727" gradientUnits="userSpaceOnUse" xlink:href="#a"/><linearGradient id="k" x1="326.812" x2="489.796" y1="2.695" y2="280.727" gradientUnits="userSpaceOnUse" xlink:href="#a"/><linearGradient id="l" x1="326.812" x2="489.796" y1="2.695" y2="280.727" gradientUnits="userSpaceOnUse" xlink:href="#a"/><linearGradient id="m" x1="326.812" x2="489.796" y1="2.695" y2="280.727" gradientUnits="userSpaceOnUse" xlink:href="#a"/><linearGradient id="n" x1="326.812" x2="489.796" y1="2.695" y2="280.727" gradientUnits="userSpaceOnUse" xlink:href="#a"/><linearGradient id="o" x1="326.812" x2="489.796" y1="2.695" y2="280.727" gradientUnits="userSpaceOnUse" xlink:href="#a"/><linearGradient id="p" x1="326.812" x2="489.796" y1="2.695" y2="280.727" gradientUnits="userSpaceOnUse" xlink:href="#a"/><linearGradient id="q" x1="326.812" x2="489.796" y1="2.695" y2="280.727" gradientUnits="userSpaceOnUse" xlink:href="#a"/><linearGradient id="r" x1="326.812" x2="489.796" y1="2.695" y2="280.727" gradientUnits="userSpaceOnUse" xlink:href="#a"/><linearGradient id="s" x1="326.812" x2="489.796" y1="2.695" y2="280.727" gradientUnits="userSpaceOnUse" xlink:href="#a"/><linearGradient id="t" x1="326.812" x2="489.796" y1="2.695" y2="280.727" gradientUnits="userSpaceOnUse" xlink:href="#a"/><linearGradient id="u" x1="326.812" x2="489.796" y1="2.695" y2="280.727" gradientUnits="userSpaceOnUse" xlink:href="#a"/><linearGradient id="v" x1="326.812" x2="489.796" y1="2.695" y2="280.727" gradientUnits="userSpaceOnUse" xlink:href="#a"/></defs><g fill="url(#b)" fill-opacity="1" stroke="none" stroke-dasharray="none" stroke-opacity="1" stroke-width="0" display="inline" transform="translate(-54.871 -2.05)"><path fill="url(#c)" d="M193.21875 231.47461l-58.30078 33.75976 58.30078 33.75977 58.29883-33.75977z"/><path fill="url(#d)" d="M326.79297 231.47461l-58.30078 33.75976 58.30078 33.75977 58.29883-33.75977z"/><path fill="url(#e)" d="M460.36523 231.47461l-58.29882 33.75976 58.29882 33.75977 58.30079-33.75977z"/><path fill="url(#f)" d="M326.79297 307.94922l-58.30078 33.75976 58.30078 33.75977 58.29883-33.75977z"/><path fill="url(#g)" d="M193.21875 78.5254l-58.30078 33.75976 58.30078 33.75976 58.29883-33.75976z"/><path fill="url(#h)" d="M326.79297 78.5254l-58.30078 33.75976 58.30078 33.75976 58.29883-33.75976z"/><path fill="url(#i)" d="M460.36523 78.5254l-58.29882 33.75976 58.29882 33.75976 58.30079-33.75976z"/><path fill="url(#j)" d="M326.79297 2.05078L268.49219 35.8125l58.30078 33.75977L385.0918 35.8125z"/><path fill="url(#k)" d="M126.43164 116.76367l-58.0371 33.60742H184.4668z"/><path fill="url(#l)" d="M201.96875 150.37109h116.07227l-58.03516-33.60742z"/><path fill="url(#m)" d="M335.54297 150.37109h116.07226l-58.03711-33.60742z"/><path fill="url(#n)" d="M469.11719 150.37109h116.07226l-58.03711-33.60742z"/><path fill="url(#o)" d="M260.00586 40.28906l-58.30078 33.75977 58.30078 33.75976 58.29883-33.75976z"/><path fill="url(#p)" d="M393.57812 40.28906L335.2793 74.04883l58.29882 33.75976 58.30079-33.75976z"/><path fill="url(#q)" d="M184.24805 226.71875H68.61328l-.48242.2793 58.30078 33.75976 58.29883-33.75976z"/><path fill="url(#r)" d="M317.82227 226.71875H202.1875l-.48242.2793 58.30078 33.75976 58.29883-33.75976z"/><path fill="url(#s)" d="M451.39648 226.71875H335.76172l-.48242.2793 58.29882 33.75976 58.30079-33.75976z"/><path fill="url(#t)" d="M584.9707 226.71875H469.33594l-.48242.2793 58.29882 33.75976 58.30078-33.75976z"/><path fill="url(#u)" d="M260.00586 269.71289l-58.30078 33.75977 58.30078 33.75976 58.29883-33.75976z"/><path fill="url(#v)" d="M393.57812 269.71289l-58.29882 33.75977 58.29882 33.75976 58.30079-33.75976z"/></g><g fill="#323232" fill-opacity="1" stroke-width="0" display="inline" transform="translate(-1.778 -203.056) scale(.83772)"><path d="M472.09638 498.67319q-6.5033 0-11.40305-2.40533-4.89975-2.49442-7.66143-6.85965-2.67259-4.45433-2.67259-10.33402v-27.61677q0-5.96877 2.6726-10.334 2.76167-4.36524 7.66142-6.77057 4.89974-2.49442 11.40305-2.49442 6.59239 0 11.40305 2.49442 4.89975 2.40533 7.57234 6.77056 2.76167 4.36524 2.76167 10.33401H480.4705q0-3.9198-2.22716-5.96877-2.13807-2.049-6.14695-2.049-4.00889 0-6.23605 2.049-2.13807 2.04898-2.13807 5.96877v27.61677q0 3.83071 2.13807 5.96878 2.22716 2.049 6.23605 2.049 4.00888 0 6.14695-2.049 2.22716-2.13807 2.22716-5.96878h13.36295q0 5.8797-2.76167 10.33402-2.6726 4.36523-7.57234 6.85965-4.81066 2.40533-11.40305 2.40533zm52.73914 0q-9.7995 0-15.5901-5.52336-5.79062-5.52335-5.79062-14.9665V452.3483q0-9.53224 5.79061-14.9665 5.79062-5.52336 15.5901-5.52336 9.7995 0 15.59012 5.52336 5.79061 5.43426 5.79061 14.9665v25.83504q0 9.44315-5.7906 14.9665-5.79062 5.52336-15.59012 5.52336zm0-11.58122q8.01778 0 8.01778-8.01778v-27.61677q0-8.01777-8.01778-8.01777-8.01777 0-8.01777 8.01777v27.61677q0 8.01778 8.01777 8.01778zm32.60563 10.69035V432.7493h20.8462q6.94873 0 12.02666 2.40533 5.07792 2.40533 7.8396 6.85964 2.85076 4.45432 2.85076 10.5122 0 6.32512-3.11802 11.31396-3.02893 4.98883-8.28503 7.216l12.29392 26.7259h-14.52107l-10.5122-24.58784h-6.23603v24.58783zm13.18479-36.16905h7.66141q4.45433 0 6.85966-2.22716 2.49442-2.22716 2.49442-6.23605 0-4.18705-2.49442-6.5033-2.40533-2.31624-6.85966-2.31624h-7.66141zm41.51426 36.16905V432.7493h40.08884v11.58122H625.2359v14.61016h23.87514v11.0467h-23.87514v16.21372h26.99315v11.58122z" display="inline"/><path d="M2.12248 497.78232V432.7493h13.36295v25.30051h14.9665V432.7493H43.8149v65.03302H30.45194v-27.70584h-14.9665v27.70584zm67.61657 0v-23.16244L51.0309 432.7493h13.98655l8.19595 19.59899q1.24722 2.93985 2.13807 6.23604.97996 3.2962 1.3363 5.34518.44544-2.04898 1.24721-5.34518.89086-3.2962 2.04898-6.23604l7.9287-19.599h13.89745L83.102 474.61989v23.16244zm39.2871 0V432.7493h22.1825q6.85965 0 11.93757 2.5835 5.167 2.5835 7.92869 7.21599 2.85075 4.63249 2.85075 10.86853 0 6.14696-2.85075 10.86854-2.85077 4.63249-7.9287 7.21599-5.07791 2.5835-11.93756 2.5835h-8.81955v23.69697zm13.36295-35.27818h8.81955q4.27614 0 6.77056-2.58351 2.58351-2.5835 2.58351-6.5033 0-3.9198-2.58351-6.50331-2.49442-2.5835-6.77056-2.5835h-8.81955zm41.3361 35.27818V432.7493h40.08884v11.58122H176.8209v14.61016h23.87514v11.0467h-23.87514v16.21372h26.99315v11.58122zm52.20462 0V432.7493h20.8462q6.94874 0 12.02665 2.40533 5.07793 2.40533 7.8396 6.85964 2.85077 4.45432 2.85077 10.5122 0 6.32512-3.11803 11.31396-3.02892 4.98883-8.28502 7.216l12.29392 26.7259h-14.52108l-10.5122-24.58784h-6.23604v24.58783zm13.18477-36.16905h7.66143q4.45431 0 6.85966-2.22716 2.4944-2.22716 2.4944-6.23605 0-4.18705-2.4944-6.5033-2.40535-2.31624-6.85966-2.31624h-7.66143zm41.51427 36.16905v-12.02665h12.91753v-40.97972h-12.91753V432.7493h39.19799v12.02665h-12.91752v40.97972h12.91752v12.02665zm73.05084.89087q-9.7995 0-15.59012-5.52336-5.7906-5.52335-5.7906-14.9665V452.3483q0-9.53224 5.7906-14.9665 5.79062-5.52336 15.59012-5.52336 9.79948 0 15.5901 5.52336 5.79062 5.43426 5.79062 14.9665v25.83504q0 9.44315-5.79062 14.9665-5.79062 5.52336-15.5901 5.52336zm0-11.58122q8.01776 0 8.01776-8.01778v-27.61677q0-8.01777-8.01776-8.01777-8.01778 0-8.01778 8.01777v27.61677q0 8.01778 8.01778 8.01778zm32.0711 10.69035V432.7493h15.59011l16.83733 50.33377q-.26726-3.29618-.62361-7.57234-.35635-4.36522-.62361-8.64137-.17817-4.36522-.17817-7.39416v-26.7259h11.7594v65.03302h-15.59011L386.263 447.44854q.26725 2.85077.53451 6.77056.26726 3.9198.44543 7.92869.26726 4.00888.26726 7.1269v28.50763z" display="inline"/></g></svg>