<svg xmlns="http://www.w3.org/2000/svg" role="img" viewBox="-7.99 -7.99 415.74 125.74"><g fill-rule="evenodd" stroke="none"><path fill="#1c5cac" d="M51.227 24.917c-.075.196-.415.25-1.583.25-1.169 0-1.508.053-1.584.25-.067.175-.34.25-.911.25-.614 0-.816.062-.816.25 0 .184-.192.25-.732.25-.463 0-.764.083-.819.226-.048.124-.318.273-.601.329-.305.061-.514.207-.514.357 0 .171-.163.254-.5.254-.334 0-.5.084-.5.25 0 .175-.176.25-.584.25-.538 0-.583-.039-.583-.505 0-.295-.104-.545-.25-.601-.143-.055-.25-.303-.25-.578v-.482H24.667v63.502l10.791-.043 10.792-.043.042-20.875c.038-18.401.072-20.875.292-20.875.137 0 .249-.112.249-.25 0-.137.113-.25.25-.25.138 0 .25-.112.25-.25 0-.137.113-.25.25-.25.139 0 .25-.148.25-.333 0-.259.111-.333.5-.333.334 0 .5-.084.5-.25 0-.139.148-.25.334-.25.185 0 .333-.111.333-.25 0-.186.194-.25.75-.25s.75-.065.75-.25c0-.175.176-.25.583-.25.408 0 .584.075.584.25 0 .189.203.25.833.25.63 0 .833.061.833.25 0 .166.167.25.5.25.334 0 .5.083.5.25 0 .137.113.25.25.25.138 0 .25.115.25.255s.113.298.25.351c.164.063.25.322.25.75s.087.687.25.75c.221.085.25 2.544.25 20.745v20.649H78V68c0-18.704.029-21.167.25-21.167.137 0 .25-.071.25-.159 0-.206.801-1.007 1.008-1.007.087 0 .159-.113.159-.25 0-.167.166-.25.5-.25.333 0 .5-.084.5-.25 0-.186.195-.25.755-.25.517 0 .785-.079.851-.25.055-.144.304-.25.583-.25.28 0 .529.106.584.25.07.183.359.25 1.078.25.762 0 .982.056.982.25 0 .137.075.25.167.25.206 0 .833.613.833.815 0 .082.112.192.25.245.138.053.25.293.25.533 0 .297.107.466.333.525.33.086.333.258.375 20.943l.042 20.855h21.5l.042-23.14c.042-23.032.041-23.141-.291-23.228-.297-.077-.334-.227-.334-1.323 0-.945-.059-1.258-.25-1.332-.169-.064-.25-.329-.25-.81 0-.481-.082-.746-.25-.81-.146-.056-.25-.306-.25-.601 0-.338-.083-.506-.25-.506-.167 0-.25-.166-.25-.5 0-.333-.084-.5-.25-.5-.168 0-.25-.167-.25-.505 0-.286-.104-.545-.24-.597-.132-.051-.288-.311-.347-.578-.058-.268-.213-.486-.343-.486-.13 0-.237-.113-.237-.25 0-.138-.112-.25-.25-.25s-.25-.113-.25-.25c0-.138-.112-.25-.25-.25-.148 0-.25-.153-.25-.375 0-.408-1.13-1.792-1.462-1.792-.113 0-.205-.113-.205-.25s-.112-.25-.25-.25c-.137 0-.25-.096-.25-.213 0-.29-.57-.756-1.08-.885-.231-.057-.42-.209-.42-.337 0-.127-.104-.232-.232-.232s-.275-.112-.328-.25c-.056-.146-.306-.25-.601-.25-.338 0-.505-.082-.505-.25 0-.137-.105-.25-.233-.25-.127 0-.275-.112-.328-.25-.052-.137-.282-.25-.509-.25-.228 0-.48-.118-.56-.262-.081-.144-.46-.304-.842-.355-.432-.058-.695-.18-.695-.321 0-.159-.224-.228-.732-.228-.497 0-.763-.081-.828-.25-.066-.17-.332-.25-.834-.25-.501 0-.768-.08-.833-.25-.077-.201-.445-.25-1.851-.25-1.449 0-1.755-.044-1.755-.25 0-.214-.463-.25-3.167-.25-2.704 0-3.167.036-3.167.25 0 .204-.287.25-1.583.25s-1.583.045-1.583.25c0 .196-.232.25-1.084.25-.852 0-1.083.053-1.083.25 0 .185-.194.25-.75.25s-.75.064-.75.25c0 .173-.174.25-.57.25-.734 0-1.097.143-1.097.434 0 .147-.183.232-.5.232-.333 0-.5.084-.5.25 0 .167-.166.25-.5.25-.333 0-.5.084-.5.25 0 .146-.151.25-.362.25-.199 0-.496.122-.661.271-.164.149-.499.271-.745.271-.245 0-.513-.122-.597-.271-.083-.149-.335-.271-.56-.271-.252 0-.408-.095-.408-.25 0-.166-.167-.25-.5-.25-.333 0-.5-.083-.5-.25 0-.162-.163-.25-.463-.25-.257 0-.59-.148-.748-.333-.185-.216-.492-.333-.871-.333-.409 0-.585-.076-.585-.25 0-.185-.192-.25-.732-.25-.497 0-.763-.081-.828-.25-.07-.184-.359-.25-1.083-.25s-1.013-.067-1.084-.25c-.077-.201-.445-.25-1.856-.25s-1.779-.05-1.856-.25c-.081-.211-.61-.25-3.334-.25s-3.252.039-3.333.25m90.379 0c-.075.195-.408.25-1.523.25-1.114 0-1.448.054-1.523.25-.084.219-1.544.25-11.744.25h-11.649V110h22.166V89.667h.834c.629 0 .833.061.833.25 0 .216.658.25 4.922.25 4.221 0 4.935-.036 5.018-.25.075-.197.415-.25 1.583-.25s1.508-.054 1.583-.25c.07-.181.352-.25 1.011-.25.774 0 .928-.051 1.001-.334.073-.276.228-.333.901-.333.613 0 .814-.062.814-.25 0-.185.195-.25.75-.25.556 0 .75-.065.75-.25 0-.175.176-.25.584-.25.407 0 .583-.075.583-.25 0-.181.186-.25.672-.25.443 0 .704-.085.768-.25.052-.138.2-.25.328-.25s.232-.112.232-.25c0-.168.168-.25.516-.25.375 0 .539-.091.602-.333.057-.218.228-.334.49-.334.221 0 .446-.112.498-.25.053-.137.201-.25.328-.25.128 0 .233-.112.233-.25 0-.139.148-.25.333-.25.185 0 .333-.111.333-.25 0-.137.132-.25.292-.25.345 0 1.708-1.167 1.708-1.462 0-.112.113-.204.25-.204.138 0 .25-.113.25-.25 0-.138.087-.25.192-.25.376 0 1.975-1.825 1.975-2.254 0-.256.095-.413.25-.413.137 0 .25-.113.25-.25 0-.138.112-.25.25-.25.137 0 .25-.113.25-.25 0-.138.077-.25.17-.25.094 0 .261-.206.372-.458.11-.252.296-.519.413-.592.116-.073.212-.355.212-.625 0-.326.084-.492.25-.492.166 0 .25-.166.25-.5 0-.333.083-.5.25-.5.166 0 .25-.166.25-.5 0-.333.083-.5.25-.5.174 0 .25-.176.25-.583 0-.387.078-.583.232-.583.27 0 .434-.356.434-.943 0-.228.113-.527.25-.664.138-.138.25-.537.25-.887 0-.413.088-.671.25-.733.181-.07.25-.353.25-1.023 0-.671.07-.954.25-1.023.198-.076.25-.424.25-1.662 0-1.28.046-1.565.25-1.565.218 0 .25-.832.25-6.483 0-5.608-.033-6.495-.25-6.578-.199-.076-.25-.433-.25-1.747 0-1.265-.058-1.7-.25-1.859-.169-.141-.25-.518-.25-1.169 0-.661-.071-.989-.228-1.05-.142-.054-.258-.446-.307-1.033-.043-.52-.153-.995-.246-1.055-.092-.06-.214-.405-.271-.767-.057-.361-.219-.721-.359-.8-.14-.078-.255-.364-.255-.634 0-.326-.085-.492-.25-.492-.167 0-.25-.167-.25-.5 0-.333-.084-.5-.25-.5-.175 0-.25-.176-.25-.583 0-.408-.076-.584-.25-.584-.167 0-.25-.166-.25-.5 0-.313-.086-.5-.229-.5-.127 0-.275-.225-.33-.5-.058-.293-.205-.5-.354-.5-.143 0-.254-.145-.254-.333 0-.185-.111-.333-.25-.333-.156 0-.25-.158-.25-.422 0-.232-.113-.465-.25-.518-.138-.053-.25-.2-.25-.328s-.113-.232-.25-.232c-.138 0-.25-.113-.25-.25 0-.138-.113-.25-.25-.25-.138 0-.25-.113-.25-.25 0-.138-.113-.25-.25-.25-.138 0-.25-.12-.25-.266 0-.146-.15-.305-.333-.353-.184-.048-.334-.191-.334-.317 0-.127-.112-.231-.25-.231-.137 0-.25-.113-.25-.25s-.112-.25-.25-.25c-.137 0-.25-.113-.25-.25s-.112-.25-.25-.25c-.137 0-.25-.113-.25-.25s-.095-.25-.213-.25c-.117 0-.341-.15-.498-.333-.157-.184-.436-.334-.62-.334-.187 0-.335-.11-.335-.25 0-.137-.081-.25-.179-.25-.098 0-.291-.112-.428-.25-.138-.137-.387-.25-.554-.25-.167 0-.347-.112-.4-.25-.056-.146-.305-.25-.601-.25-.338 0-.505-.082-.505-.25 0-.166-.167-.25-.5-.25-.333 0-.5-.083-.5-.25 0-.165-.166-.25-.492-.25-.27 0-.556-.115-.634-.255-.079-.14-.439-.302-.8-.359-.362-.056-.717-.204-.791-.328-.085-.143-.453-.224-1.023-.224-.638 0-.918-.071-.987-.25-.07-.184-.359-.25-1.083-.25s-1.013-.067-1.084-.25c-.078-.204-.479-.25-2.166-.25-1.687 0-2.089-.047-2.167-.25-.081-.211-.609-.25-3.333-.25s-3.253.039-3.334.25m64.561 0c0 .204-.287.25-1.584.25-1.296 0-1.583.045-1.583.25 0 .194-.223.25-1.005.25-.74 0-1.031.066-1.101.25-.065.168-.329.25-.811.25-.481 0-.745.081-.81.25-.053.137-.293.25-.533.25-.298 0-.466.106-.525.333-.07.269-.227.333-.818.333-.538 0-.73.066-.73.25 0 .165-.165.25-.483.25-.274 0-.523.108-.578.25-.052.138-.21.25-.351.25-.14 0-.255.113-.255.25 0 .167-.167.25-.5.25-.321 0-.5.085-.5.237 0 .13-.225.286-.5.347-.275.06-.5.173-.5.252 0 .078-.15.189-.333.248-.184.058-.334.213-.334.344 0 .132-.112.239-.25.239-.137 0-.25.113-.25.25 0 .156-.158.25-.422.25-.232 0-.465.113-.517.25-.053.137-.172.25-.265.25-.229 0-1.462 1.248-1.462 1.48 0 .103-.113.187-.25.187-.138 0-.25.112-.25.25 0 .137-.113.25-.25.25-.138 0-.25.112-.25.25 0 .137-.113.25-.25.25-.138 0-.25.112-.25.25 0 .137-.084.25-.187.25-.232 0-1.48 1.233-1.48 1.462 0 .093-.113.212-.25.265-.138.052-.25.285-.25.517 0 .264-.094.422-.25.422-.138 0-.25.113-.25.25 0 .138-.113.25-.25.25-.167 0-.25.167-.25.5 0 .338-.083.5-.255.5-.141 0-.304.132-.363.292-.059.16-.206.352-.328.425-.121.073-.221.317-.221.542 0 .252-.095.408-.25.408-.166 0-.25.167-.25.5 0 .333-.083.5-.25.5-.174 0-.25.176-.25.583 0 .408-.075.584-.25.584-.166 0-.25.166-.25.5 0 .316-.085.5-.232.5-.278 0-.434.358-.434.995 0 .263-.11.511-.25.565-.17.065-.25.332-.25.833 0 .502-.08.768-.25.834-.184.07-.25.361-.25 1.101 0 .782-.056 1.005-.25 1.005-.202 0-.25.259-.25 1.333 0 1.074-.049 1.334-.25 1.334-.218 0-.25.834-.25 6.505 0 5.629.033 6.518.25 6.601.194.075.25.403.25 1.474 0 1.022.064 1.433.25 1.586.152.127.25.492.25.937 0 .538.066.73.25.73.187 0 .25.2.25.801 0 .447.108.945.244 1.125.135.178.247.53.25.782.004.346.088.459.339.459.283 0 .333.111.333.732 0 .497.081.763.25.828.138.053.25.288.25.523 0 .235.113.47.25.523.138.053.25.278.25.5 0 .222.113.447.25.5.138.053.25.203.25.333 0 .131.104.278.232.327.127.048.275.309.329.578.057.284.204.489.352.489.14 0 .254.112.254.25 0 .137.112.25.25.25.167 0 .25.167.25.5 0 .333.083.5.25.5.137 0 .25.097.25.216s.222.4.493.625c.271.225.496.503.5.617.004.115.119.209.257.209.137 0 .25.112.25.25 0 .139.148.25.333.25.186 0 .334.111.334.25 0 .137.112.25.25.25.139 0 .25.148.25.333 0 .183.073.333.162.333.089 0 .5.338.912.75.493.493.894.75 1.171.75.263 0 .421.094.421.25 0 .138.105.25.233.25.127 0 .275.113.328.25.052.138.285.25.517.25.268 0 .422.094.422.256 0 .14.132.304.292.365.16.061.391.209.512.328.121.12.357.218.524.218.167 0 .347.112.399.25.053.138.278.25.5.25.223 0 .448.112.5.25.066.171.334.25.851.25.561 0 .756.065.756.25 0 .165.164.25.482.25.275 0 .523.107.578.25.07.183.359.25 1.082.25.845 0 .998.047 1.073.333.073.283.227.334 1.001.334.659 0 .941.069 1.011.25.075.196.415.25 1.583.25s1.508.053 1.583.25c.083.215.909.25 6.023.25 5.115 0 5.941-.035 6.023-.25.077-.2.443-.25 1.834-.25 1.39 0 1.756-.05 1.833-.25.071-.184.361-.25 1.094-.25.857 0 1.01-.047 1.085-.334.075-.289.227-.333 1.151-.333.834 0 1.064-.054 1.064-.25 0-.185.194-.25.75-.25.555 0 .75-.065.75-.25 0-.184.192-.25.732-.25.497 0 .763-.08.828-.25.056-.146.306-.25.601-.25.338 0 .505-.083.505-.25 0-.167.167-.25.5-.25.275 0 .5-.079.5-.175 0-.097.219-.252.487-.345.268-.094.528-.277.578-.408.05-.131.206-.239.347-.239.14 0 .255-.112.255-.25 0-.156.158-.25.422-.25.232 0 .465-.112.518-.25.052-.137.202-.25.333-.25s.281-.112.333-.25c.053-.137.201-.25.328-.25.128 0 .233-.112.233-.25 0-.137.112-.25.25-.25.139 0 .25-.148.25-.333 0-.185.111-.333.25-.333.155 0 .25-.158.25-.417s-.095-.417-.25-.417c-.168 0-.25-.167-.25-.505 0-.295-.104-.545-.25-.601-.138-.053-.25-.233-.25-.4s-.109-.412-.242-.545c-.133-.133-.291-.438-.352-.679-.06-.24-.214-.436-.341-.436-.147 0-.232-.185-.232-.506 0-.295-.104-.545-.25-.601-.138-.052-.25-.277-.25-.5 0-.222-.113-.447-.25-.5-.138-.052-.25-.277-.25-.5 0-.222-.113-.447-.25-.5-.138-.052-.25-.238-.25-.411 0-.174-.113-.316-.25-.316-.167 0-.25-.166-.25-.5 0-.333-.083-.5-.25-.5-.168 0-.25-.168-.25-.515 0-.376-.091-.54-.333-.603-.236-.062-.334-.227-.334-.568 0-.316-.085-.48-.25-.48-.166 0-.25-.167-.25-.5 0-.334-.083-.5-.25-.5-.167 0-.25-.168-.25-.506 0-.295-.104-.545-.25-.601-.142-.054-.25-.303-.25-.578 0-.317-.085-.482-.25-.482-.137 0-.25-.113-.25-.25 0-.185-.195-.25-.755-.25-.517 0-.785.079-.851.25-.053.137-.2.25-.328.25s-.232.112-.232.25c0 .137-.113.25-.25.25-.138 0-.25.112-.25.25 0 .137-.113.25-.25.25-.139 0-.25.148-.25.333 0 .186-.111.334-.25.334-.138 0-.25.112-.25.25 0 .139-.148.25-.334.25-.185 0-.333.111-.333.25 0 .156-.158.25-.422.25-.232 0-.465.112-.518.25-.052.137-.232.25-.399.25s-.404.1-.526.222-.427.273-.678.336c-.251.063-.457.188-.457.278 0 .09-.206.165-.458.166-.714.003-1.209.181-1.209.434 0 .171-.26.23-1.005.23-.74 0-1.03.066-1.101.25-.144.376-8.06.376-8.06 0 0-.193-.218-.25-.96-.25-.78 0-.999-.062-1.168-.333-.118-.188-.389-.333-.624-.333-.228 0-.415-.069-.415-.154 0-.084-.22-.201-.488-.26-.269-.059-.578-.215-.688-.347-.109-.132-.331-.239-.493-.239-.163 0-.339-.113-.391-.25-.053-.138-.203-.25-.334-.25-.13 0-.28-.113-.333-.25-.053-.138-.286-.25-.518-.25-.264 0-.422-.094-.422-.25 0-.138-.112-.25-.25-.25-.149 0-.25-.154-.25-.38 0-.209-.225-.626-.5-.927-.275-.301-.5-.618-.5-.704 0-.086-.15-.156-.333-.156-.259 0-.333-.111-.333-.5 0-.333-.084-.5-.25-.5-.189 0-.25-.204-.25-.833 0-.63-.061-.834-.25-.834-.167 0-.25-.166-.25-.5v-.5h20.338c19.218 0 20.345-.016 20.446-.291.059-.161.207-.352.328-.425.14-.085.221-.467.221-1.047 0-.659.07-.941.25-1.01.191-.073.25-.384.25-1.307 0-.874.07-1.27.25-1.42.213-.176.25-.999.25-5.502 0-4.553-.035-5.309-.25-5.391-.187-.072-.25-.37-.25-1.173 0-.735-.079-1.156-.25-1.327-.138-.137-.25-.512-.25-.833 0-.321-.113-.696-.25-.833-.138-.138-.25-.481-.25-.764 0-.307-.134-.628-.333-.799-.185-.158-.334-.491-.334-.748 0-.3-.087-.463-.25-.463-.166 0-.25-.167-.25-.5 0-.333-.083-.5-.25-.5-.167 0-.25-.167-.25-.505 0-.296-.104-.545-.25-.601-.137-.053-.25-.278-.25-.5 0-.223-.112-.448-.25-.5-.137-.053-.25-.201-.25-.328 0-.128-.15-.233-.333-.233-.259 0-.333-.111-.333-.5 0-.333-.084-.5-.25-.5-.138 0-.25-.115-.25-.255s-.113-.298-.25-.351c-.138-.053-.25-.2-.25-.328s-.113-.232-.25-.232c-.145 0-.25-.151-.25-.356 0-.351-.7-1.144-1.009-1.144-.087 0-.158-.113-.158-.25 0-.138-.113-.25-.25-.25-.138 0-.25-.113-.25-.25 0-.138-.113-.25-.25-.25-.138 0-.25-.071-.25-.158 0-.309-.794-1.009-1.144-1.009-.205 0-.356-.106-.356-.25 0-.137-.113-.25-.25-.25-.138 0-.25-.113-.25-.25 0-.139-.148-.25-.333-.25-.188 0-.334-.111-.334-.254 0-.149-.206-.296-.5-.354-.275-.055-.5-.203-.5-.329 0-.127-.104-.23-.232-.23s-.275-.112-.328-.25c-.056-.146-.306-.25-.601-.25-.338 0-.505-.082-.505-.25 0-.166-.167-.25-.5-.25-.334 0-.5-.083-.5-.25 0-.166-.167-.25-.5-.25-.334 0-.5-.083-.5-.25 0-.174-.176-.25-.584-.25-.387 0-.583-.078-.583-.232 0-.28-.359-.434-1.014-.434-.321 0-.486-.085-.486-.25 0-.189-.204-.25-.833-.25-.63 0-.834-.061-.834-.25 0-.194-.22-.25-.982-.25-.719 0-1.008-.067-1.078-.25-.075-.197-.417-.25-1.606-.25s-1.531-.054-1.607-.25c-.082-.214-.766-.25-4.744-.25-4.022 0-4.649.033-4.649.25m68.273 0c-.074.191-.387.25-1.334.25-.946 0-1.26.059-1.333.25-.066.171-.334.25-.851.25-.56 0-.755.064-.755.25 0 .181-.186.25-.672.25-.444 0-.705.085-.768.25-.053.137-.232.25-.398.25-.48 0-.829.183-.829.434 0 .147-.184.232-.5.232-.333 0-.5.084-.5.25 0 .139-.148.25-.333.25-.3 0-.334-.111-.334-1.084v-1.085l-9.208.043-9.208.043v63.333l9.208.043 9.208.043V69.835c0-17.076.03-19.335.25-19.335.197 0 .25-.231.25-1.083 0-.973.035-1.084.334-1.084.259 0 .333-.111.333-.5 0-.333.083-.5.25-.5.165 0 .25-.164.25-.482 0-.275.107-.523.25-.578.137-.053.25-.203.25-.333 0-.131.112-.281.25-.334.137-.052.25-.285.25-.517 0-.264.094-.422.25-.422.137 0 .25-.113.25-.25 0-.138.112-.25.25-.25.137 0 .25-.113.25-.25 0-.138.094-.252.208-.253.254-.004.959-.723.959-.979 0-.102.19-.185.422-.185.232 0 .465-.113.517-.25.053-.138.201-.25.328-.25.128 0 .233-.113.233-.25 0-.179.183-.25.646-.25.371 0 .735-.106.854-.25.164-.198.64-.25 2.275-.25 1.685 0 2.086.046 2.164.25.066.17.331.25.828.25.54 0 .733.066.733.25 0 .167.167.25.505.25.295 0 .545.104.601.25.055.143.303.25.578.25.268 0 .482.09.482.203 0 .293.831.964 1.193.964.169 0 .307.112.307.25 0 .189.204.25.834.25.601 0 .833-.065.833-.233 0-.127.112-.275.25-.328.143-.055.25-.303.25-.583 0-.279.107-.528.25-.583.137-.053.25-.278.25-.5 0-.223.112-.448.25-.5.137-.053.25-.278.25-.5 0-.223.112-.448.25-.5.146-.056.25-.306.25-.601 0-.338.083-.506.25-.506.167 0 .25-.166.25-.5 0-.337.083-.5.254-.5.149 0 .296-.206.354-.496.054-.273.202-.582.329-.687.126-.105.23-.361.23-.569 0-.208.112-.422.25-.475.137-.052.25-.277.25-.5 0-.222.112-.447.25-.5.146-.056.25-.305.25-.601 0-.338.082-.505.25-.505.166 0 .25-.167.25-.5 0-.333.083-.5.25-.5.155 0 .25-.157.25-.417 0-.229.15-.566.333-.75.183-.183.333-.451.333-.595 0-.144.113-.374.25-.512.138-.137.25-.386.25-.553 0-.167.113-.347.25-.4.344-.132.361-1.94.018-1.94-.128 0-.275-.112-.328-.25-.055-.143-.304-.25-.582-.25-.345 0-.511-.096-.573-.333-.059-.225-.227-.333-.519-.333-.273 0-.432-.092-.432-.25 0-.165-.165-.25-.48-.25-.264 0-.573-.113-.687-.25-.137-.166-.51-.25-1.104-.25-.685 0-.896-.059-.896-.25 0-.201-.257-.25-1.316-.25-1.015 0-1.337-.057-1.411-.25-.082-.214-.757-.25-4.667-.25-3.909 0-4.584.036-4.666.25m36 0c-.078.201-.454.25-1.935.25-1.523 0-1.838.043-1.838.25 0 .196-.232.25-1.084.25-.852 0-1.083.053-1.083.25 0 .194-.22.25-.982.25-.719 0-1.008.067-1.078.25-.064.166-.326.25-.784.25-.547 0-.705.068-.774.333-.071.269-.228.333-.818.333-.538 0-.731.066-.731.25 0 .175-.176.25-.583.25s-.583.076-.583.25c0 .167-.167.25-.5.25-.334 0-.5.084-.5.25 0 .138-.113.25-.25.25-.2 0-.25.251-.25 1.256 0 .962.058 1.277.25 1.351.169.065.25.331.25.828 0 .54.065.732.25.732.196 0 .25.231.25 1.083s.053 1.084.25 1.084c.191 0 .25.21.25.896 0 .593.084.966.25 1.104.152.126.25.492.25.937 0 .537.066.729.25.729.188 0 .25.203.25.82 0 .975.12 1.347.434 1.347.164 0 .232.22.232.75 0 .556.065.75.25.75.189 0 .25.204.25.833v.834h.922c.666 0 .949-.07 1.018-.25.054-.14.301-.25.56-.25.256 0 .504-.102.552-.227.047-.124.318-.272.601-.329.305-.061.514-.206.514-.357 0-.19.189-.254.75-.254.556 0 .75-.065.75-.25 0-.189.204-.25.833-.25.63 0 .834-.061.834-.25 0-.201.259-.25 1.333-.25 1.074 0 1.333-.049 1.333-.25 0-.216.584-.25 4.25-.25 3.667 0 4.25.034 4.25.25 0 .197.232.25 1.084.25.852 0 1.083.053 1.083.25 0 .167.167.25.5.25.333 0 .5.083.5.25 0 .167.167.25.5.25.287 0 .501.089.503.208.003.254.723.959.979.959.101 0 .185.112.185.25 0 .137.112.25.25.25.166 0 .25.166.25.5 0 .333.083.5.25.5.139 0 .25.148.25.333 0 .326-.111.333-5.25.333-4.556 0-5.25.033-5.25.25 0 .205-.288.25-1.589.25-1.258 0-1.608.052-1.684.25-.073.189-.378.25-1.25.25s-1.178.061-1.25.25c-.066.17-.332.25-.834.25-.501 0-.768.08-.833.25-.054.141-.302.25-.565.25-.637 0-.995.157-.995.435 0 .154-.196.232-.584.232-.407 0-.583.075-.583.25 0 .167-.167.25-.5.25-.333 0-.5.083-.5.25 0 .175-.176.25-.583.25-.408 0-.584.075-.584.25 0 .167-.166.25-.5.25-.333 0-.5.083-.5.25 0 .156-.158.25-.422.25-.232 0-.465.112-.517.25-.053.137-.201.25-.328.25-.128 0-.233.15-.233.333 0 .257-.111.334-.482.334-.275 0-.523.107-.578.25-.053.137-.211.25-.351.25-.14 0-.255.112-.255.25 0 .137-.113.25-.25.25-.138 0-.25.112-.25.25 0 .137-.113.25-.25.25-.138 0-.25.112-.25.25 0 .137-.113.25-.25.25-.138 0-.25.112-.25.25 0 .137-.12.25-.266.25-.146 0-.305.15-.353.333-.048.183-.191.333-.317.333-.127 0-.231.113-.231.25 0 .138-.113.25-.25.25-.138 0-.25.105-.25.233 0 .127-.113.275-.25.328-.138.052-.25.285-.25.517 0 .264-.094.422-.25.422-.139 0-.25.148-.25.334 0 .185-.111.333-.25.333-.167 0-.25.167-.25.5 0 .337-.083.5-.254.5-.149 0-.296.206-.354.496-.054.273-.202.582-.329.687-.126.105-.23.482-.23.837 0 .464-.07.647-.25.647-.185 0-.25.194-.25.75 0 .555-.064.75-.25.75-.196 0-.25.229-.25 1.065 0 .794-.064 1.09-.25 1.162-.214.082-.25.76-.25 4.689 0 3.93.036 4.608.25 4.69.184.07.25.359.25 1.083s.067 1.013.25 1.084c.17.065.25.331.25.828 0 .54.066.732.25.732.186 0 .25.194.25.75 0 .414.079.75.176.75.096 0 .251.219.345.487.093.267.277.527.408.578.131.05.238.206.238.346 0 .141.112.256.25.256.167 0 .25.166.25.5 0 .333.083.5.25.5.139 0 .25.148.25.333 0 .185.111.333.25.333.137 0 .25.113.25.25 0 .138.112.25.25.25.137 0 .25.113.25.25 0 .138.112.25.25.25.137 0 .25.113.25.25 0 .139.148.25.333.25.186 0 .334.111.334.25 0 .138.112.25.25.25.137 0 .25.113.25.25 0 .138.112.25.25.25.137 0 .25.099.25.219 0 .262.887.948 1.225.948.131 0 .282.112.335.25.056.146.306.25.601.25.338 0 .505.083.505.25 0 .138.105.25.233.25.127 0 .275.112.328.25.062.163.322.25.75.25.427 0 .687.087.75.25.056.146.305.25.601.25.319 0 .505.085.505.231 0 .277.508.43 1.441.433.458.002.722.087.786.253.073.191.387.25 1.333.25s1.26.059 1.334.25c.082.214.759.25 4.684.25 3.968 0 4.589-.034 4.589-.25 0-.202.259-.25 1.333-.25 1.074 0 1.333-.049 1.333-.25 0-.189.203-.25.82-.25.975 0 1.347-.12 1.347-.435 0-.164.22-.232.75-.232.556 0 .75-.065.75-.25 0-.167.167-.25.505-.25.296 0 .545-.104.601-.25.055-.143.304-.25.578-.25.318 0 .483-.085.483-.25 0-.156.158-.25.422-.25.232 0 .465-.112.517-.25.053-.138.197-.25.32-.25s.284-.095.357-.212c.074-.116.34-.302.592-.413.252-.111.458-.278.458-.371 0-.094.113-.171.25-.171.138 0 .25.12.25.266 0 .146.15.305.334.353.183.048.333.191.333.317 0 .127.112.231.25.231.137 0 .25.112.25.25s.112.25.25.25c.137 0 .25.112.25.25s.112.25.25.25c.137 0 .25.112.25.25s.112.25.25.25c.137 0 .25.112.25.25 0 .139.148.25.333.25.184 0 .334.104.334.232 0 .127.196.281.436.341.241.061.546.219.679.352.133.133.501.242.818.242.359 0 .613.094.673.25.081.21.618.25 3.411.25 2.836 0 3.316-.036 3.316-.25 0-.195.223-.25 1.005-.25.74 0 1.031-.066 1.101-.25.053-.138.283-.25.511-.25.274 0 .444-.113.501-.334.049-.184.228-.333.401-.333.173 0 .314-.112.314-.25 0-.147.154-.251.375-.253.466-.003 1.125-.675 1.125-1.145 0-.202.107-.352.25-.352.138 0 .25-.112.25-.25s.113-.25.25-.25c.139 0 .25-.148.25-.333 0-.184.107-.334.237-.334s.285-.218.344-.486c.058-.267.214-.527.346-.578.132-.05.24-.273.24-.493 0-.221.113-.495.25-.609.457-.38-.375-1.5-1.113-1.5-.167 0-.304-.113-.304-.25 0-.138-.072-.25-.161-.25-.209 0-1.339-1.13-1.339-1.339 0-.089-.112-.161-.25-.161-.164 0-.25-.165-.25-.483 0-.274-.107-.523-.25-.578-.137-.052-.251-.267-.252-.476-.004-.641-.192-1.13-.434-1.13-.162 0-.23-.223-.23-.755 0-.518-.079-.786-.25-.851-.206-.079-.25-.507-.25-2.412 0-1.947-.04-2.315-.25-2.315-.22 0-.25-1.427-.25-11.839 0-10.369-.031-11.85-.25-11.934-.198-.076-.25-.424-.25-1.662 0-1.28-.046-1.565-.25-1.565-.198 0-.25-.239-.25-1.147 0-.815-.072-1.206-.25-1.353-.138-.114-.25-.417-.25-.674 0-.635-.157-.993-.435-.993-.167 0-.232-.232-.232-.833 0-.63-.061-.834-.25-.834-.167 0-.25-.166-.25-.5 0-.333-.083-.5-.25-.5-.167 0-.25-.167-.25-.505 0-.295-.104-.545-.25-.601-.143-.055-.25-.303-.25-.578 0-.301-.087-.482-.232-.482-.127 0-.279-.189-.337-.42-.128-.51-.595-1.08-.885-1.08-.117 0-.213-.15-.213-.334 0-.185-.111-.333-.25-.333-.137 0-.25-.113-.25-.25 0-.138-.112-.25-.25-.25-.137 0-.25-.113-.25-.25s-.112-.25-.25-.25c-.137 0-.25-.113-.25-.25s-.112-.25-.25-.25c-.137 0-.25-.113-.25-.25 0-.139-.148-.25-.333-.25-.222 0-.333-.111-.333-.333 0-.184-.105-.334-.233-.334-.127 0-.275-.112-.328-.25-.052-.137-.285-.25-.517-.25-.264 0-.422-.093-.422-.25 0-.137-.105-.25-.233-.25-.127 0-.275-.112-.328-.25-.056-.146-.305-.25-.601-.25-.338 0-.505-.082-.505-.25 0-.166-.167-.25-.5-.25-.333 0-.5-.083-.5-.25 0-.166-.167-.25-.5-.25-.316 0-.5-.085-.5-.232 0-.291-.363-.434-1.097-.434-.395 0-.57-.077-.57-.25 0-.186-.195-.25-.755-.25-.517 0-.785-.079-.851-.25-.073-.191-.387-.25-1.328-.25-.984 0-1.232-.051-1.232-.25 0-.207-.313-.25-1.816-.25-1.46 0-1.834-.049-1.911-.25-.083-.215-.85-.25-5.5-.25s-5.418.035-5.5.25m62.893 0c0 .204-.287.25-1.583.25s-1.583.045-1.583.25c0 .191-.211.25-.897.25-.593 0-.966.084-1.103.25-.114.137-.424.25-.687.25-.295 0-.48.088-.48.228 0 .141-.263.263-.695.321-.382.051-.761.211-.842.355-.08.144-.332.262-.56.262-.227 0-.457.113-.509.25-.053.138-.278.25-.5.25-.223 0-.448.113-.5.25-.053.138-.203.25-.334.25-.13 0-.28.113-.333.25-.053.138-.219.25-.37.251-.332 0-1.69 1.175-1.69 1.462 0 .112-.113.204-.25.204-.138 0-.25.113-.25.25 0 .139-.148.25-.334.25-.183 0-.336.094-.34.208-.004.115-.229.393-.5.618-.331.274-.493.561-.493.875 0 .303-.087.466-.25.466-.137 0-.25.112-.25.25 0 .137-.113.25-.25.25-.164 0-.25.164-.25.48 0 .341-.097.506-.333.568-.227.059-.334.227-.334.525 0 .24-.112.48-.25.533-.168.065-.25.329-.25.81 0 .482-.081.746-.25.811-.191.073-.25.389-.25 1.351 0 1.004-.05 1.255-.25 1.255-.212 0-.25.426-.25 2.833 0 2.408.038 2.834.25 2.834.2 0 .25.25.25 1.255 0 .962.059 1.278.25 1.351.17.065.25.332.25.833 0 .476.083.769.232.827.127.048.275.309.329.578.057.284.204.489.352.489.169 0 .254.161.254.482 0 .275.107.524.25.578.137.053.25.211.25.351 0 .141.113.256.25.256.167 0 .25.166.25.5 0 .333.083.5.25.5.137 0 .25.112.25.25 0 .137.113.25.25.25s.25.112.25.25c0 .139.148.25.333.25.223 0 .334.111.334.333 0 .183.107.333.239.333.136 0 .261.196.291.459.042.36.151.469.511.511.263.03.459.155.459.291 0 .132.112.239.25.239.137 0 .25.113.25.25 0 .138.112.25.25.25.137 0 .25.113.25.25 0 .139.148.25.333.25.183 0 .333.092.333.203 0 .293.831.964 1.193.964.169 0 .307.112.307.25 0 .137.115.25.256.25.14 0 .298.112.351.25.054.143.303.25.578.25.317 0 .482.085.482.25 0 .167.167.25.5.25.333 0 .5.083.5.25 0 .137.115.25.255.25.141 0 .296.106.346.235.049.129.281.283.515.342.233.058.533.215.666.348.133.133.378.242.545.242.167 0 .347.112.4.25.053.137.288.25.523.25.235 0 .47.112.523.25.065.169.331.25.828.25.54 0 .732.065.732.25 0 .164.165.25.481.25.34 0 .506.097.568.333.059.225.227.333.519.333.238 0 .432.078.432.172 0 .095.132.222.292.283.16.06.391.208.512.328.121.119.357.217.524.217.167 0 .347.113.399.25.053.138.286.25.518.25.264 0 .422.094.422.25 0 .139.148.25.333.25.186 0 .334.111.334.25 0 .167.166.25.5.25.389 0 .5.074.5.334 0 .183.075.333.166.333.216 0 .834.617.834.833 0 .092.103.167.229.167s.274.225.329.5c.059.293.205.5.354.5.21 0 .254.276.254 1.583 0 1.338-.041 1.584-.265 1.584-.146 0-.305.15-.353.333-.048.183-.191.333-.318.333s-.23.113-.23.25c0 .167-.167.25-.5.25-.334 0-.5.084-.5.25 0 .213-.445.25-3 .25-2.556 0-3-.037-3-.25 0-.194-.221-.25-.983-.25-.719 0-1.007-.067-1.078-.25-.065-.171-.333-.25-.851-.25-.532 0-.755-.068-.755-.23 0-.227-.481-.43-1.031-.434-.155-.001-.528-.227-.829-.502-.301-.275-.718-.5-.927-.5-.226 0-.38-.101-.38-.25 0-.167-.166-.25-.5-.25-.333 0-.5-.084-.5-.25 0-.138-.112-.25-.25-.25-.137 0-.25-.113-.25-.25 0-.138-.095-.25-.213-.25-.117 0-.341-.15-.498-.334-.157-.183-.436-.333-.62-.333-.187 0-.335-.111-.335-.25 0-.138-.113-.25-.25-.25-.138 0-.25-.113-.25-.25 0-.138-.113-.25-.25-.25-.138 0-.25-.113-.25-.25 0-.185-.195-.25-.75-.25-.723 0-.75.019-.75.5 0 .333-.084.5-.25.5-.175 0-.25.176-.25.583 0 .473-.064.584-.334.584-.259 0-.333.111-.333.5 0 .333-.083.5-.25.5-.165 0-.25.164-.25.482 0 .275-.107.523-.25.578-.146.056-.25.306-.25.601 0 .338-.083.505-.25.505-.167 0-.25.167-.25.5 0 .334-.083.5-.25.5-.164 0-.25.165-.25.481 0 .34-.097.506-.333.568-.243.063-.334.227-.334.602 0 .348-.081.516-.25.516-.166 0-.25.167-.25.5 0 .333-.083.5-.25.5-.167 0-.25.167-.25.505 0 .296-.104.545-.25.601-.142.055-.25.304-.25.578 0 .318-.085.483-.25.483-.166 0-.25.166-.25.5 0 .333-.083.5-.25.5-.162 0-.25.162-.25.463 0 .256-.148.59-.333.748-.639.547-.335 1.955.423 1.955.254 0 .41.096.41.25 0 .167.167.25.5.25.334 0 .5.084.5.25 0 .167.167.25.5.25.334 0 .5.084.5.25 0 .139.148.25.334.25.183 0 .333.107.333.237s.219.285.486.344c.267.058.528.214.578.346.051.132.284.24.519.24.235 0 .471.112.523.25.054.139.302.25.561.25.259 0 .506.111.56.25.063.165.324.25.768.25.486 0 .672.069.672.25 0 .175.176.25.583.25s.583.075.583.25c0 .185.195.25.75.25.53 0 .75.068.75.232 0 .309.37.435 1.276.435.443 0 .85.102.998.25.193.192.682.25 2.137.25 1.524 0 1.905.048 1.983.25.082.214.796.25 5.018.25 4.264 0 4.922-.034 4.922-.25 0-.205.287-.25 1.583-.25s1.583-.046 1.583-.25c0-.195.224-.25 1.016-.25.875 0 1.028-.046 1.103-.334.07-.27.227-.333.823-.333.5 0 .766-.08.831-.25.063-.163.323-.25.75-.25.428 0 .688-.087.75-.25.053-.138.278-.25.5-.25.223 0 .448-.112.5-.25.053-.138.267-.25.475-.25.208 0 .472-.112.586-.25.114-.137.31-.25.437-.25.126 0 .229-.107.229-.237s.225-.286.5-.346c.275-.061.5-.217.5-.347 0-.13.113-.237.25-.237.138 0 .25-.112.25-.25 0-.139.148-.25.334-.25.185 0 .333-.111.333-.25 0-.137.113-.25.25-.25s.25-.112.25-.25c0-.137.113-.25.25-.25s.25-.112.25-.25c0-.137.113-.25.25-.25s.25-.112.25-.25c0-.137.113-.25.25-.25.139 0 .25-.148.25-.333 0-.183.091-.333.203-.333.285 0 .964-.827.964-1.175 0-.159.112-.333.25-.386.137-.052.25-.277.25-.5 0-.222.112-.447.25-.5.146-.056.25-.305.25-.601 0-.338.082-.505.25-.505.164 0 .25-.165.25-.482 0-.275.107-.524.25-.578.184-.071.25-.362.25-1.101 0-.559.074-1.006.166-1.006.108 0 .167-1.777.167-5 0-3.222-.059-5-.167-5-.092 0-.166-.438-.166-.982 0-.719-.067-1.008-.25-1.078-.146-.056-.25-.306-.25-.601 0-.338-.083-.505-.25-.505-.167 0-.25-.167-.25-.5 0-.334-.084-.5-.25-.5-.168 0-.25-.168-.25-.506 0-.295-.104-.545-.25-.601-.138-.052-.25-.203-.25-.335 0-.338-.687-1.225-.948-1.225-.121 0-.219-.113-.219-.25 0-.138-.113-.25-.25-.25-.139 0-.25-.148-.25-.333 0-.186-.111-.334-.25-.334-.137 0-.25-.112-.25-.25 0-.137-.113-.25-.25-.25s-.25-.112-.25-.25c0-.137-.113-.25-.25-.25s-.25-.112-.25-.25c0-.139-.148-.25-.333-.25-.186 0-.334-.111-.334-.25 0-.137-.112-.25-.25-.25-.137 0-.25-.112-.25-.25 0-.137-.112-.25-.25-.25-.137 0-.25-.106-.25-.236 0-.131-.225-.287-.5-.347s-.5-.216-.5-.347c0-.13-.115-.236-.255-.236s-.298-.113-.351-.25c-.055-.143-.303-.25-.578-.25-.318 0-.482-.086-.482-.25 0-.167-.167-.25-.5-.25-.334 0-.5-.084-.5-.25 0-.138-.115-.25-.256-.25-.14 0-.298-.113-.351-.25-.054-.143-.303-.25-.578-.25-.299 0-.482-.088-.482-.231 0-.241-.489-.43-1.125-.434-.221-.001-.375-.105-.375-.252 0-.165-.165-.25-.482-.25-.275 0-.524-.107-.578-.25-.056-.146-.306-.25-.601-.25-.338 0-.506-.083-.506-.25 0-.167-.167-.25-.505-.25-.295 0-.545-.104-.601-.25-.055-.143-.303-.25-.578-.25-.318 0-.482-.085-.482-.25 0-.167-.167-.25-.5-.25-.321 0-.5-.085-.5-.237 0-.13-.22-.285-.489-.344-.268-.059-.578-.215-.687-.346-.109-.132-.369-.24-.577-.24-.208 0-.422-.112-.474-.25-.053-.137-.286-.25-.518-.25-.264 0-.422-.093-.422-.25 0-.166-.167-.25-.5-.25-.333 0-.5-.083-.5-.25 0-.137-.113-.25-.25-.25s-.25-.115-.25-.255-.126-.303-.279-.362c-.484-.186-.888-.701-.888-1.133 0-.259-.094-.416-.25-.416-.139 0-.25-.148-.25-.334 0-.185.111-.333.25-.333.186 0 .25-.194.25-.75s.065-.75.25-.75c.138 0 .25-.113.25-.25 0-.185.195-.25.756-.25.517 0 .785-.079.851-.25.079-.208.544-.25 2.744-.25 2.244 0 2.649.038 2.649.25 0 .196.23.25 1.066.25.793 0 1.09.064 1.161.25.064.165.325.25.768.25.486 0 .672.069.672.25 0 .175.176.25.583.25.408 0 .584.075.584.25 0 .167.166.25.5.25.337 0 .5.083.5.254 0 .149.206.296.5.354.275.055.5.203.5.33 0 .126.093.232.208.236.115.004.392.229.617.5.225.271.506.493.625.493s.216.112.216.25c0 .137.105.25.233.25.127 0 .275.112.328.25.212.553 1.939.331 1.939-.25 0-.334.084-.5.25-.5.185 0 .25-.193.25-.731 0-.59.064-.747.334-.818.239-.062.333-.227.333-.585 0-.288.105-.538.25-.593.165-.064.25-.325.25-.768 0-.486.069-.672.25-.672.175 0 .25-.176.25-.583 0-.408.075-.584.25-.584.165 0 .25-.164.25-.482 0-.275.107-.523.25-.578.163-.063.25-.322.25-.748 0-.513.072-.672.333-.74.228-.06.334-.227.334-.531 0-.245.112-.557.25-.694.137-.138.25-.5.25-.804 0-.338.097-.591.25-.65.146-.056.25-.305.25-.601 0-.338.082-.505.25-.505.185 0 .25-.194.25-.75s.064-.75.25-.75c.166 0 .25-.167.25-.5 0-.333-.084-.5-.25-.5-.138 0-.25-.114-.25-.254 0-.148-.205-.295-.49-.352-.269-.054-.529-.202-.578-.329-.049-.128-.316-.232-.594-.232-.338 0-.505-.082-.505-.25 0-.166-.167-.25-.5-.25-.333 0-.5-.083-.5-.25 0-.164-.165-.25-.482-.25-.275 0-.524-.107-.578-.25-.056-.146-.306-.25-.601-.25-.338 0-.506-.082-.506-.25 0-.185-.194-.25-.75-.25-.53 0-.75-.068-.75-.232 0-.291-.362-.434-1.097-.434-.395 0-.569-.077-.569-.25 0-.184-.193-.25-.73-.25-.445 0-.81-.098-.937-.25-.147-.178-.536-.25-1.336-.25-.849 0-1.152-.062-1.224-.25-.076-.197-.418-.25-1.607-.25s-1.531-.054-1.606-.25c-.082-.214-.766-.25-4.745-.25-4.021 0-4.649.033-4.649.25M0 57.417v31.75h8.967c6.752 0 9.016-.05 9.166-.2.212-.212.31-62.487.099-63.037-.09-.236-1.054-.263-9.166-.263H0v31.75m59.548-26.75c.075.286.228.333 1.085.333.733 0 1.023.066 1.094.25.066.171.334.25.851.25.56 0 .755.065.755.25 0 .165.165.25.483.25.274 0 .523.107.578.25.052.137.288.25.523.25.235 0 .47.112.523.25.054.143.303.25.578.25.317 0 .482.085.482.25 0 .167.167.25.5.25.389 0 .5.074.5.333 0 .184.073.334.162.334.09 0 .5.337.913.75.412.412.827.75.921.75.094 0 .171.112.171.25 0 .185.194.25.75.25.555 0 .75-.065.75-.25 0-.138.112-.25.25-.25.137 0 .25-.113.25-.25 0-.145.151-.25.36-.25.198 0 .554-.213.791-.472.238-.26.563-.52.724-.578.16-.059.291-.221.291-.362 0-.162.154-.255.422-.255.232 0 .465-.113.518-.25.053-.138.2-.25.328-.25s.232-.113.232-.25c0-.185.195-.25.756-.25.517 0 .785-.079.851-.25.054-.143.303-.25.578-.25.317 0 .482-.085.482-.25 0-.185.195-.25.755-.25.518 0 .786-.079.851-.25.065-.169.33-.25.815-.25.877 0 1.246-.128 1.246-.434 0-.43 8.34-.333 8.711.101.213.249.492.333 1.103.333.572 0 .845.075.913.25.065.171.333.25.851.25.56 0 .755.065.755.25 0 .167.167.25.5.25.333 0 .5.083.5.25 0 .167.167.25.5.25.333 0 .5.083.5.25 0 .139.148.25.333.25.186 0 .334.111.334.25 0 .167.166.25.5.25.275 0 .5.083.5.185 0 .241 1.741 1.982 1.982 1.982.101 0 .184.112.184.25 0 .137.113.25.25.25.139 0 .25.148.25.333 0 .185.111.333.25.333.157 0 .25.158.25.422 0 .232.113.465.25.518.138.053.25.233.25.4s.113.416.25.553c.138.138.25.331.25.429 0 .098.113.178.25.178.174 0 .25.175.25.57 0 .734.144 1.097.435 1.097.164 0 .232.22.232.75 0 .556.065.75.25.75.197 0 .25.231.25 1.083s.053 1.084.25 1.084c.221 0 .25 2.287.25 19.583v19.583H93.333V65.911c0-15.776-.03-17.933-.25-18.017-.191-.074-.25-.388-.25-1.334 0-.946-.059-1.26-.25-1.333-.163-.063-.25-.322-.25-.75s-.086-.687-.25-.75c-.137-.053-.25-.237-.25-.408 0-.172-.262-.583-.583-.914-.321-.33-.583-.669-.583-.753 0-.083-.113-.152-.25-.152-.138 0-.25-.113-.25-.25 0-.138-.113-.25-.25-.25-.138 0-.25-.113-.25-.25 0-.167-.167-.25-.5-.25-.334 0-.5-.083-.5-.25 0-.175-.176-.25-.584-.25-.407 0-.583-.075-.583-.25 0-.185-.194-.25-.75-.25-.53 0-.75-.068-.75-.232 0-.588-5.632-.686-5.785-.101-.075.285-.227.333-1.068.333-.76 0-.98.056-.98.25 0 .167-.168.25-.506.25-.295 0-.545.104-.601.25-.052.137-.2.25-.328.25s-.232.112-.232.25c0 .156-.158.25-.422.25-.232 0-.465.112-.518.25-.052.137-.181.251-.286.253-.241.004-.941.732-.941.979 0 .101-.112.185-.25.185-.137 0-.25.112-.25.25 0 .137-.112.25-.25.25-.166 0-.25.166-.25.5 0 .333-.083.5-.25.5-.137 0-.25.115-.25.255s-.112.298-.25.351c-.22.085-.25 2.414-.25 19.578v19.482H61.667V64.762c0-16.73-.031-19.102-.25-19.322-.138-.137-.25-.449-.25-.694 0-.304-.106-.471-.334-.531-.236-.062-.333-.227-.333-.568 0-.316-.086-.48-.25-.48-.167 0-.25-.167-.25-.5 0-.334-.083-.5-.25-.5-.139 0-.25-.148-.25-.334 0-.183-.07-.333-.156-.333s-.403-.225-.704-.5c-.301-.275-.718-.5-.927-.5-.226 0-.38-.101-.38-.25 0-.167-.166-.25-.5-.25-.333 0-.5-.083-.5-.25 0-.196-.229-.25-1.064-.25-.923 0-1.075-.044-1.151-.333-.082-.315-.227-.334-2.535-.334-2.307 0-2.453.019-2.535.334-.07.27-.227.333-.823.333-.5 0-.766.08-.831.25-.055.143-.304.25-.578.25-.318 0-.483.085-.483.25 0 .167-.166.25-.5.25-.333 0-.5.083-.5.25 0 .137-.115.25-.255.25s-.298.112-.351.25c-.053.137-.257.251-.453.253-.37.003-1.107.655-1.107.979 0 .101-.113.185-.25.185-.138 0-.25.112-.25.25 0 .137-.113.25-.25.25-.138 0-.25.103-.25.23s-.15.27-.334.318c-.22.058-.333.227-.333.502 0 .228-.113.457-.25.51-.22.084-.25 2.417-.25 19.601v19.505H29.833V31h7.5v.5c0 .333.084.5.25.5.157 0 .25.158.25.422 0 .232.113.465.25.518.138.052.25.238.25.413 0 .174.15.445.334.602.183.157.333.459.333.671 0 .211.112.428.25.48.137.053.25.201.25.328 0 .128.112.233.25.233.137 0 .25.112.25.25 0 .166.167.25.5.25.333 0 .5-.084.5-.25 0-.138.112-.25.25-.25.137 0 .25-.113.25-.25 0-.138.112-.25.25-.25.137 0 .25-.113.25-.25 0-.147.155-.253.375-.256.396-.005 1.292-.69 1.292-.986 0-.096.112-.175.25-.175.137 0 .25-.113.25-.25 0-.167.166-.25.5-.25.333 0 .5-.083.5-.25 0-.139.148-.25.333-.25.185 0 .333-.111.333-.25 0-.167.167-.25.5-.25.334 0 .5-.083.5-.25 0-.181.186-.25.672-.25.444 0 .705-.085.768-.25.064-.166.328-.251.786-.252.933-.003 1.441-.156 1.441-.434 0-.432 8.935-.331 9.048.103M150 30.566c0 .33.378.434 1.579.434.781 0 1.077.064 1.148.25.065.17.332.25.833.25.502 0 .768.08.834.25.062.163.322.25.75.25.427 0 .687.087.75.25.056.146.305.25.601.25.338 0 .505.083.505.25 0 .165.165.25.482.25.275 0 .524.107.578.25.053.137.286.25.518.25.25 0 .422.095.422.232 0 .255.35.435.847.435.176 0 .32.112.32.25 0 .137.112.25.25.25.137 0 .25.112.25.25 0 .137.093.253.208.257.115.004.392.229.617.5.236.284.571.493.792.493.268 0 .383.097.383.325 0 .179.262.58.583.892.321.311.583.653.583.758 0 .105.113.191.25.191.138 0 .25.113.25.25 0 .138.113.25.25.25.157 0 .25.158.25.422 0 .232.113.465.25.518.138.053.25.238.25.411 0 .174.113.316.25.316.158 0 .25.159.25.432 0 .292.108.461.334.52.236.061.333.227.333.567 0 .316.086.481.25.481.189 0 .25.204.25.833 0 .63.061.834.25.834.181 0 .25.185.25.672 0 .443.085.704.25.767.17.066.25.332.25.834 0 .501.08.768.25.833.188.072.25.376.25 1.233 0 .788.077 1.213.25 1.387.194.194.25.688.25 2.194 0 1.804.024 1.95.333 2.031.434.114.533 7.049.101 7.049-.353 0-.434.387-.434 2.083 0 1.077-.063 1.576-.204 1.623-.128.043-.227.538-.268 1.348-.048.95-.124 1.279-.296 1.279-.163 0-.232.218-.232.732 0 .497-.08.763-.25.828-.143.055-.25.304-.25.584 0 .279-.107.528-.25.583-.165.063-.25.324-.25.768 0 .486-.069.672-.25.672-.167 0-.25.166-.25.5 0 .338-.083.5-.255.5-.141 0-.305.131-.366.291-.061.161-.208.391-.328.512-.12.121-.218.365-.218.542 0 .177-.112.321-.25.321-.137 0-.25.104-.25.23s-.112.323-.25.437c-.137.114-.25.386-.25.604 0 .241-.098.396-.25.396-.137 0-.25.112-.25.25 0 .137-.112.25-.25.25-.137 0-.25.112-.25.25 0 .137-.083.25-.184.25-.241 0-1.982 1.741-1.982 1.982 0 .102-.113.185-.25.185-.138 0-.25.112-.25.25 0 .137-.113.25-.25.25-.138 0-.25.112-.25.25 0 .167-.168.25-.506.25-.295 0-.545.104-.601.25-.052.137-.2.25-.328.25s-.232.112-.232.25c0 .166-.167.25-.5.25-.333 0-.5.083-.5.25 0 .168-.168.25-.516.25-.375 0-.539.09-.602.333-.062.236-.228.333-.568.333-.316 0-.481.086-.481.25 0 .185-.192.25-.732.25-.497 0-.763.081-.828.25-.066.172-.334.25-.851.25-.56 0-.755.065-.755.25 0 .195-.222.25-.992.25-.68 0-1.034.074-1.125.236-.1.176-.628.249-2.12.291-1.399.04-2.006.118-2.055.265-.111.332-4.307.293-4.435-.042-.075-.195-.409-.25-1.53-.25-1.052 0-1.5-.066-1.684-.25-.161-.16-.573-.25-1.155-.25-.693 0-.904-.058-.904-.25 0-.185-.195-.25-.75-.25-.556 0-.75-.064-.75-.25 0-.189-.204-.25-.834-.25-.629 0-.833-.061-.833-.25 0-.185-.194-.25-.75-.25h-.75V105h-10.667V31H131.5v3.667h.821c.453 0 .921-.098 1.042-.218s.352-.267.512-.328c.16-.061.292-.225.292-.366 0-.162.154-.255.422-.255.232 0 .465-.113.517-.25.053-.138.201-.25.328-.25.128 0 .233-.113.233-.25 0-.165.164-.25.482-.25.275 0 .523-.107.578-.25.053-.138.288-.25.523-.25.235 0 .47-.113.523-.25.055-.143.303-.25.578-.25.318 0 .482-.085.482-.25 0-.189.204-.25.834-.25.608 0 .912-.086 1.125-.319.385-.423 9.208-.533 9.208-.115m-10.792 8.371c-.114.05-.208.197-.208.327 0 .179-.26.236-1.083.236-.852 0-1.084.053-1.084.25 0 .184-.192.25-.732.25-.497 0-.763.08-.828.25-.053.137-.288.25-.523.25-.235 0-.47.112-.523.25-.053.137-.2.25-.328.25s-.232.112-.232.25c0 .137-.113.25-.25.25-.138 0-.25.112-.25.25 0 .137-.137.25-.304.25-.166 0-.542.213-.834.474l-.531.474.043 15.068.042 15.067.459.053c.267.031.458.155.458.297 0 .134.131.294.292.355.16.06.39.208.512.328.121.119.356.217.523.217.167 0 .347.113.4.25.056.146.306.25.601.25.338 0 .505.083.505.25 0 .195.223.25 1 .25.778 0 1 .056 1 .25 0 .216.574.25 4.167.25s4.167-.034 4.167-.25c0-.196.231-.25 1.083-.25s1.083-.053 1.083-.25c0-.189.204-.25.834-.25.629 0 .833-.061.833-.25 0-.173.175-.25.571-.25.315 0 .671-.098.792-.217.121-.12.352-.268.512-.328.16-.061.292-.226.292-.366 0-.173.162-.255.5-.255.333 0 .5-.084.5-.25 0-.138.112-.25.25-.25.137 0 .25-.113.25-.25 0-.138.112-.25.25-.25.137 0 .25-.113.25-.25 0-.138.112-.25.25-.25.137 0 .25-.113.25-.25 0-.138.085-.25.189-.25.33 0 .977-.834.977-1.259 0-.252.096-.408.25-.408.138 0 .25-.104.25-.232s.113-.276.25-.328c.165-.064.25-.325.25-.768 0-.486.069-.672.25-.672.173 0 .25-.174.25-.566 0-.348.096-.602.25-.661.191-.073.25-.387.25-1.332 0-1.095.038-1.245.334-1.323.325-.085.333-.227.333-6.285 0-6.057-.008-6.2-.333-6.285-.296-.077-.334-.227-.334-1.317 0-.983-.05-1.231-.25-1.231-.185 0-.25-.195-.25-.755 0-.518-.078-.786-.25-.851-.142-.055-.25-.304-.25-.578 0-.318-.085-.483-.25-.483-.156 0-.25-.158-.25-.422 0-.232-.112-.465-.25-.517-.137-.053-.25-.203-.25-.334 0-.13-.112-.28-.25-.333-.137-.053-.25-.2-.25-.328s-.15-.232-.333-.232c-.185 0-.333-.111-.333-.25 0-.138-.113-.25-.25-.25-.138 0-.25-.113-.25-.25 0-.138-.113-.25-.25-.25-.138 0-.252-.094-.253-.209-.005-.321-.755-.958-1.128-.958-.184 0-.377-.113-.43-.25-.056-.146-.305-.25-.601-.25-.338 0-.505-.083-.505-.25 0-.167-.167-.25-.505-.25-.296 0-.545-.104-.601-.25-.071-.183-.359-.25-1.078-.25-.762 0-.983-.056-.983-.25 0-.207-.308-.25-1.773-.25-1.497 0-1.806-.046-1.986-.292-.213-.291-3.807-.515-4.366-.271m74.852 2.313c.066.17.332.25.834.25.501 0 .768.08.833.25.063.165.324.25.768.25.486 0 .672.069.672.25 0 .139.148.25.333.25.183 0 .333.107.333.237s.225.286.5.346c.275.061.5.217.5.347 0 .13.113.237.25.237.138 0 .25.112.25.25 0 .137.113.25.25.25.138 0 .25.138.25.307 0 .362.671 1.193.964 1.193.115 0 .203.219.203.505 0 .295.104.545.25.601.143.055.25.303.25.578 0 .318.085.482.25.482.175 0 .25.176.25.584V49h-22.333v-.583c0-.412.074-.584.254-.584.148 0 .295-.204.352-.489.054-.269.202-.529.329-.578.127-.049.231-.316.231-.594 0-.338.083-.505.25-.505.138 0 .25-.113.25-.25 0-.138.113-.25.25-.25.138 0 .25-.073.25-.161 0-.155 1.104-1.339 1.247-1.339.163 0 .92-.805.92-.978 0-.104.225-.189.5-.189.333 0 .5-.083.5-.25 0-.165.165-.25.482-.25.275 0 .524-.107.578-.25.066-.171.334-.25.851-.25.561 0 .756-.065.756-.25 0-.213.461-.25 3.149-.25 2.645 0 3.164.04 3.244.25m-68.727 3.667c0 .185.195.25.756.25.517 0 .785.078.851.25.065.169.331.25.828.25.621 0 .732.05.732.333 0 .183.08.333.179.333.098 0 .291.113.428.25.138.138.395.25.572.25.176 0 .321.113.321.25 0 .138.103.25.229.25s.274.225.329.5c.059.294.205.5.354.5.17 0 .255.162.255.483 0 .274.107.523.25.578.165.063.25.325.25.773s.084.709.25.773c.186.071.25.368.25 1.161 0 .836.054 1.066.25 1.066.215 0 .25.583.25 4.25 0 3.666-.035 4.25-.25 4.25-.196 0-.25.229-.25 1.065 0 .794-.064 1.09-.25 1.162-.165.063-.25.324-.25.767 0 .487-.069.672-.25.672-.167 0-.25.167-.25.5 0 .338-.083.5-.256.5-.14 0-.304.132-.365.292-.061.16-.209.391-.328.512-.12.121-.218.365-.218.542 0 .232-.116.321-.422.321-.232 0-.465.112-.518.25-.052.137-.2.25-.328.25s-.232.112-.232.25c0 .165-.165.25-.482.25-.275 0-.524.107-.578.25-.056.144-.305.25-.588.25-.659 0-1.019.153-1.019.434 0 .18-.304.233-1.333.233-1.074 0-1.333.048-1.333.25 0 .207-.313.25-1.816.25-1.46 0-1.834-.049-1.911-.25-.066-.172-.334-.25-.851-.25-.535 0-.756-.068-.756-.233 0-.127-.112-.275-.25-.328-.379-.145-.379-23.939 0-23.939.138 0 .25-.113.25-.25 0-.167.167-.25.5-.25.334 0 .5-.084.5-.25 0-.214.473-.25 3.25-.25 2.778 0 3.25.036 3.25.25M325.667 64.75c0 3.222-.036 3.75-.25 3.75-.175 0-.25.176-.25.583 0 .408-.076.584-.25.584-.165 0-.25.164-.25.482 0 .275-.108.523-.25.578-.138.053-.25.286-.25.518 0 .232-.096.422-.213.422-.117 0-.399.212-.627.472-.228.259-.62.523-.871.586-.251.063-.456.226-.456.362 0 .163-.17.246-.5.246-.333 0-.5.084-.5.25 0 .189-.204.25-.833.25-.63 0-.834.061-.834.25 0 .214-.463.25-3.166.25-2.704 0-3.167-.036-3.167-.25 0-.174-.176-.25-.583-.25-.408 0-.584-.075-.584-.25 0-.166-.166-.25-.5-.25-.338 0-.5-.082-.5-.255 0-.14-.112-.298-.25-.351-.137-.053-.25-.2-.25-.328s-.112-.232-.25-.232c-.173 0-.25-.175-.25-.572 0-.314-.112-.684-.25-.821-.192-.192-.25-.677-.25-2.095 0-1.53.043-1.846.25-1.846.165 0 .25-.164.25-.482 0-.275.108-.523.25-.578.138-.053.25-.286.25-.518 0-.264.094-.422.25-.422.138 0 .25-.112.25-.25 0-.137.113-.25.25-.25.139 0 .25-.148.25-.333 0-.185.111-.333.25-.333.138 0 .25-.113.25-.25 0-.168.168-.25.506-.25.295 0 .545-.104.601-.25.054-.143.303-.25.578-.25.317 0 .482-.086.482-.25 0-.167.167-.25.5-.25.333 0 .5-.084.5-.25 0-.193.219-.251.958-.253 1.189-.002 1.709-.134 1.709-.433 0-.19.705-.231 4-.231h4v3.75"/><path fill="#f48c1c" d="M0 9.667v9.666h9.066c8.112 0 9.076-.027 9.166-.263.056-.145.101-4.495.101-9.667V0H0v9.667"/></g></svg>