<?xml version="1.0" encoding="utf-8"?>
<!-- Generator: Adobe Illustrator 21.1.0, SVG Export Plug-In . SVG Version: 6.00 Build 0)  -->
<svg version="1.1" id="Layer_1" xmlns="http://www.w3.org/2000/svg" xmlns:xlink="http://www.w3.org/1999/xlink" x="0px" y="0px"
	 viewBox="0 0 214.7 28.6" style="enable-background:new 0 0 214.7 28.6;" xml:space="preserve">
<style type="text/css">
	.st0{fill:#3E3A38;}
	.st1{opacity:0.7;enable-background:new    ;}
	.st2{fill:#595655;}
</style>
<g>
	<g>
		<rect x="36.2" y="6.2" class="st0" width="3.8" height="16.1"/>
	</g>
</g>
<g>
	<g>
		<g>
			<path class="st0" d="M52.6,14.6c0,0.2,0,0.6,0.1,1.1l-5.5-9.5l-4.1,0v16.1l2.9,0v-9.6c0-0.2,0-0.4,0-0.7c0-0.1,0-0.3,0-0.5
				l6.3,10.9l3.2,0V6.2l-2.9,0V14.6z"/>
		</g>
	</g>
	<g>
		<g>
			<path class="st0" d="M93.2,19.5c-1,0-1.7-0.4-2.2-1.1c-0.5-0.7-0.8-2.1-0.8-4.1c0-3.5,1-5.2,2.9-5.2c1.7,0,2.6,1.1,2.7,3.4
				l3.9-0.2C99.3,8.1,97.1,6,93.2,6c-2.2,0-4,0.8-5.3,2.3c-1.3,1.5-1.9,3.5-1.9,6c0,2.6,0.7,4.6,2,6.1c1.3,1.5,3.1,2.2,5.2,2.2
				c1.7,0,3.2-0.5,4.4-1.5c1.2-1,1.9-2.5,2.2-4.4l-3.7-0.2C95.7,18.5,94.8,19.5,93.2,19.5"/>
		</g>
	</g>
</g>
<g>
	<g>
		<polygon class="st0" points="58.8,22.3 70.3,22.3 70.3,19.1 62.6,19.1 62.6,15.6 68.6,15.6 68.6,12.6 62.6,12.6 62.6,9.3 
			70.3,9.3 70.3,6.2 58.8,6.2 		"/>
	</g>
</g>
<g class="st1">
	<g>
		<g>
			<path class="st2" d="M82.1,13c-0.8-0.3-2-0.7-3.6-1c-1-0.2-1.6-0.4-1.9-0.7c-0.3-0.3-0.4-0.6-0.4-1c0-1,0.7-1.4,2.2-1.4
				c1.4,0,2.3,0.6,2.7,1.9l3.2-1.1C83.4,7.2,81.4,6,78.3,6c-1.8,0-3.2,0.5-4.2,1.5c-1,1-1.6,2.2-1.6,3.6c0,1.4,0.4,2.5,1.3,3.2
				c0.9,0.7,2.3,1.3,4.4,1.7c1.1,0.2,1.8,0.5,2.2,0.7c0.4,0.3,0.6,0.6,0.6,1.1c0,0.5-0.2,0.9-0.6,1.2c-0.4,0.3-1.1,0.5-1.9,0.5
				c-1.8,0-2.9-0.8-3.3-2.3l-3.5,0.8c0.4,1.5,1.1,2.6,2.3,3.3c1.2,0.7,2.6,1.1,4.2,1.1c2.2,0,3.9-0.5,5-1.6c1.1-1.1,1.7-2.3,1.7-3.8
				c0-0.9-0.3-1.8-0.8-2.5C83.5,13.9,82.8,13.4,82.1,13"/>
		</g>
	</g>
	<g>
		<g>
			<path class="st2" d="M133.9,19.5c-1,0-1.7-0.4-2.2-1.1c-0.5-0.7-0.8-2.1-0.8-4.1c0-3.5,1-5.2,2.9-5.2c1.7,0,2.6,1.1,2.7,3.4
				l3.9-0.2c-0.5-4.2-2.7-6.2-6.5-6.2c-2.2,0-4,0.8-5.3,2.3c-1.3,1.5-1.9,3.5-1.9,6c0,2.6,0.7,4.6,2,6.1c1.3,1.5,3.1,2.2,5.2,2.2
				c1.7,0,3.2-0.5,4.4-1.5c1.2-1,1.9-2.5,2.2-4.4l-3.7-0.2C136.4,18.5,135.5,19.5,133.9,19.5"/>
		</g>
	</g>
</g>
<g class="st1">
	<g>
		<polygon class="st2" points="100.3,9.4 104.3,9.4 104.3,22.3 108.1,22.3 108.1,9.4 112.1,9.4 112.1,6.2 100.3,6.2 		"/>
	</g>
</g>
<g class="st1">
	<g>
		<polygon class="st2" points="113.9,22.3 125.4,22.3 125.4,19.1 117.8,19.1 117.8,15.6 123.8,15.6 123.8,12.6 117.8,12.6 
			117.8,9.3 125.4,9.3 125.4,6.2 113.9,6.2 		"/>
	</g>
</g>
<g>
	<g>
		<g>
			<path class="st0" d="M28.5,13.3V5.9c0-2-1.6-3.6-3.6-3.6l-20,0c-2,0-3.6,1.6-3.6,3.6v16.7c0,2,1.6,3.6,3.6,3.6l15.3,0
				c2,0,3.7-1.6,3.7-3.6c0-0.9,0-3.6,0-3.6l4-4C28.2,14.6,28.5,14,28.5,13.3 M21.7,6.2c0,0.6-0.3,1.1-0.8,1.4v3.3
				c0,0.2-0.1,0.4-0.2,0.5L18,14.1c-0.1,0.1-0.3,0.2-0.5,0.2l-5.5,0c0,0,0,0.1,0,0.1c-0.3,0.7-1,1.2-1.9,1.2c-1.1,0-2-0.9-2-2
				s0.9-2,2-2c0.8,0,1.5,0.5,1.9,1.2c0,0,0,0,0,0.1l5.2,0l2.2-2.2l0-3c-0.5-0.3-0.8-0.8-0.8-1.4c0-0.9,0.7-1.6,1.6-1.6
				C20.9,4.6,21.7,5.4,21.7,6.2 M26.4,6.2c0,0.6-0.3,1.1-0.8,1.4l0,5.2c0,0.2-0.1,0.4-0.2,0.5l-4.5,4.5l0,3c0.5,0.3,0.8,0.8,0.8,1.4
				c0,0.9-0.7,1.6-1.6,1.6s-1.6-0.7-1.6-1.6c0-0.6,0.3-1.1,0.8-1.4l0-3.3c0-0.2,0.1-0.4,0.2-0.5l4.5-4.5l0-4.9
				c-0.5-0.3-0.8-0.8-0.8-1.4c0-0.9,0.7-1.6,1.6-1.6C25.7,4.6,26.4,5.4,26.4,6.2 M10.8,13.6c0-0.4-0.4-0.8-0.8-0.8s-0.8,0.4-0.8,0.8
				c0,0.4,0.4,0.8,0.8,0.8C10.5,14.4,10.8,14,10.8,13.6"/>
		</g>
	</g>
</g>
<g>
	<g>
		<rect x="36.2" y="6.2" class="st0" width="3.8" height="16.1"/>
	</g>
</g>
<g>
	<g>
		<polygon class="st0" points="58.8,22.3 70.3,22.3 70.3,19.1 62.6,19.1 62.6,15.6 68.6,15.6 68.6,12.6 62.6,12.6 62.6,9.3 
			70.3,9.3 70.3,6.2 58.8,6.2 		"/>
	</g>
</g>
<g>
	<g>
		<path class="st0" d="M82.1,13c-0.8-0.3-2-0.7-3.6-1c-1-0.2-1.6-0.4-1.9-0.7c-0.3-0.3-0.4-0.6-0.4-1c0-1,0.7-1.4,2.2-1.4
			c1.4,0,2.3,0.6,2.7,1.9l3.2-1.1C83.4,7.2,81.4,6,78.3,6c-1.8,0-3.2,0.5-4.2,1.5c-1,1-1.6,2.2-1.6,3.6c0,1.4,0.4,2.5,1.3,3.2
			c0.9,0.7,2.3,1.3,4.4,1.7c1.1,0.2,1.8,0.5,2.2,0.7c0.4,0.3,0.6,0.6,0.6,1.1c0,0.5-0.2,0.9-0.6,1.2c-0.4,0.3-1.1,0.5-1.9,0.5
			c-1.8,0-2.9-0.8-3.3-2.3l-3.5,0.8c0.4,1.5,1.1,2.6,2.3,3.3c1.2,0.7,2.6,1.1,4.2,1.1c2.2,0,3.9-0.5,5-1.6c1.1-1.1,1.7-2.3,1.7-3.8
			c0-0.9-0.3-1.8-0.8-2.5C83.5,13.9,82.8,13.4,82.1,13"/>
	</g>
</g>
<g>
	<path class="st0" d="M167.8,23.1h-3.1c-0.5,0-1.1-0.3-1.5-0.6l-1-1c-0.1-0.1-0.1-0.2,0-0.3c0.1-0.1,0.2-0.1,0.3,0l1,1
		c0.3,0.3,0.8,0.5,1.2,0.5h3.1c0.4,0,0.9-0.2,1.2-0.5l0.5-0.5c0.3-0.3,0.5-0.8,0.5-1.2v-0.8c0-0.4-0.2-0.9-0.5-1.2l-2.6-2.6
		c-0.1-0.1-0.1-0.2,0-0.3c0.1-0.1,0.2-0.1,0.3,0l2.6,2.6c0.3,0.3,0.6,1,0.6,1.5v0.8c0,0.5-0.3,1.1-0.6,1.5l-0.5,0.5
		C168.9,22.8,168.3,23.1,167.8,23.1z"/>
</g>
<g>
	<path class="st0" d="M166.2,7.5h-7c-0.1,0-0.2-0.1-0.2-0.2c0-0.1,0.1-0.2,0.2-0.2h7c0.1,0,0.2,0.1,0.2,0.2
		C166.4,7.4,166.3,7.5,166.2,7.5z"/>
</g>
<g>
	<path class="st0" d="M163.5,12.5c0,0-0.1,0-0.1-0.1c-0.1-0.1-0.1-0.2,0-0.3l6.1-6.1c0.1-0.1,0.1-0.2,0.1-0.2c0,0-0.1,0-0.2,0h-10.1
		c-0.1,0-0.2-0.1-0.2-0.2s0.1-0.2,0.2-0.2h10.1c0.4,0,0.5,0.2,0.6,0.3c0,0.1,0.1,0.3-0.2,0.6l-6.1,6.1
		C163.6,12.5,163.5,12.5,163.5,12.5z"/>
</g>
<g>
	<path class="st0" d="M164.7,13.7c0,0-0.1,0-0.1-0.1c-0.1-0.1-0.1-0.2,0-0.3l6.5-6.5c0.3-0.3,0.5-0.8,0.5-1.2V4.9
		c0-0.3-0.3-0.6-0.6-0.6h-11.7c-0.1,0-0.2-0.1-0.2-0.2s0.1-0.2,0.2-0.2h11.7c0.5,0,1,0.4,1,1v0.8c0,0.5-0.3,1.1-0.6,1.5l-6.5,6.5
		C164.8,13.7,164.7,13.7,164.7,13.7z"/>
</g>
<g>
	<path class="st0" d="M165.8,14.9c0,0-0.1,0-0.1-0.1c-0.1-0.1-0.1-0.2,0-0.3l6.9-6.9c0.3-0.3,0.5-0.8,0.5-1.2V3.4
		c0-0.3-0.3-0.6-0.6-0.6h-13.3c-0.1,0-0.2-0.1-0.2-0.2s0.1-0.2,0.2-0.2h13.3c0.5,0,1,0.4,1,1v3.1c0,0.5-0.3,1.1-0.6,1.5l-6.9,6.9
		C165.9,14.9,165.9,14.9,165.8,14.9z"/>
</g>
<g>
	<path class="st0" d="M174.8,21.5c-0.1,0-0.2-0.1-0.2-0.2v-3.9c0-0.4-0.2-0.9-0.5-1.2l-3.2-3.2c-0.4-0.4-0.4-1,0-1.4l3.2-3.2
		c0.3-0.3,0.5-0.8,0.5-1.2V4.2c0-0.1,0.1-0.2,0.2-0.2c0.1,0,0.2,0.1,0.2,0.2v3.1c0,0.5-0.3,1.1-0.6,1.5l-3.2,3.2
		c-0.2,0.2-0.2,0.6,0,0.8l3.2,3.2c0.3,0.3,0.6,1,0.6,1.5v3.9C175,21.4,174.9,21.5,174.8,21.5z"/>
</g>
<g>
	<path class="st0" d="M167.8,21.5h-2.3c-0.5,0-1.1-0.2-1.3-0.4l-0.4-0.4c-0.1-0.1-0.1-0.2,0-0.3c0.1-0.1,0.2-0.1,0.3,0l0.4,0.4
		c0.2,0.2,0.6,0.3,1,0.3h2.3c0.1,0,0.2,0.1,0.2,0.2S167.9,21.5,167.8,21.5z"/>
</g>
<g>
	<path class="st0" d="M169.3,26.2h-6.2c-0.5,0-1.1-0.3-1.5-0.6l-2.6-2.6c-0.1-0.1-0.1-0.2,0-0.3c0.1-0.1,0.2-0.1,0.3,0l2.6,2.6
		c0.3,0.3,0.8,0.5,1.2,0.5h6.2c0.4,0,0.9-0.2,1.2-0.5l2-2c0.3-0.3,0.5-0.8,0.5-1.2v-3.9c0-0.4-0.2-0.9-0.5-1.2l-3.3-3.3
		c-0.1-0.1-0.1-0.2,0-0.3c0.1-0.1,0.2-0.1,0.3,0l3.3,3.3c0.3,0.3,0.6,1,0.6,1.5v3.9c0,0.5-0.3,1.1-0.6,1.5l-2,2
		C170.5,25.9,169.8,26.2,169.3,26.2z"/>
</g>
<g>
	<path class="st0" d="M168.6,24.6h-4.7c-0.5,0-1.1-0.3-1.5-0.6l-1.8-1.8c-0.1-0.1-0.1-0.2,0-0.3c0.1-0.1,0.2-0.1,0.3,0l1.8,1.8
		c0.3,0.3,0.8,0.5,1.2,0.5h4.7c0.4,0,0.9-0.2,1.2-0.5l1.2-1.2c0.3-0.3,0.5-0.8,0.5-1.2V19c0-0.4-0.2-0.9-0.5-1.2l-3-3
		c-0.1-0.1-0.1-0.2,0-0.3c0.1-0.1,0.2-0.1,0.3,0l3,3c0.3,0.3,0.6,1,0.6,1.5v2.3c0,0.5-0.3,1.1-0.6,1.5L170,24
		C169.7,24.4,169.1,24.6,168.6,24.6z"/>
</g>
<g>
	<g>
		<path class="st0" d="M193.5,21.5c-0.1,0-0.2-0.1-0.2-0.2v-5.5c0-0.4-0.2-0.9-0.5-1.2l-2.8-2.8c-0.3-0.3-0.8-0.5-1.2-0.5h-4.7
			c-0.1,0-0.2-0.1-0.2-0.2s0.1-0.2,0.2-0.2h4.7c0.5,0,1.1,0.3,1.5,0.6l2.8,2.8c0.3,0.3,0.6,1,0.6,1.5v5.5
			C193.7,21.4,193.6,21.5,193.5,21.5z"/>
	</g>
	<g>
		<path class="st0" d="M177.9,14.5c-0.1,0-0.2-0.1-0.2-0.2V8.1c0-0.5,0.4-1,1-1h14.8c0.1,0,0.2,0.1,0.2,0.2c0,0.1-0.1,0.2-0.2,0.2
			h-14.8c-0.3,0-0.6,0.3-0.6,0.6v6.2C178.1,14.4,178,14.5,177.9,14.5z"/>
	</g>
	<g>
		<path class="st0" d="M193.5,2.8h-10.9c-0.1,0-0.2-0.1-0.2-0.2s0.1-0.2,0.2-0.2h10.9c0.1,0,0.2,0.1,0.2,0.2S193.6,2.8,193.5,2.8z"
			/>
	</g>
	<g>
		<path class="st0" d="M186.5,21.5h-2.3c-0.5,0-1.1-0.2-1.3-0.4l-0.4-0.4c-0.1-0.1-0.1-0.2,0-0.3c0.1-0.1,0.2-0.1,0.3,0l0.4,0.4
			c0.2,0.2,0.6,0.3,1,0.3h2.3c0.1,0,0.2,0.1,0.2,0.2S186.6,21.5,186.5,21.5z"/>
	</g>
	<g>
		<path class="st0" d="M193.5,5.9h-14c-0.1,0-0.2-0.1-0.2-0.2s0.1-0.2,0.2-0.2h14c0.1,0,0.2,0.1,0.2,0.2S193.6,5.9,193.5,5.9z"/>
	</g>
	<g>
		<path class="st0" d="M188.1,26.2h-6.2c-0.5,0-1.1-0.3-1.5-0.6l-2.6-2.6c-0.1-0.1-0.1-0.2,0-0.3c0.1-0.1,0.2-0.1,0.3,0l2.6,2.6
			c0.3,0.3,0.8,0.5,1.2,0.5h6.2c0.4,0,0.9-0.2,1.2-0.5l2-2c0.3-0.3,0.5-0.8,0.5-1.2v-5.5c0-0.4-0.2-0.9-0.5-1.2l-2-2
			c-0.3-0.3-0.8-0.5-1.2-0.5h-4.7c-0.5,0-1-0.4-1-1V8.8c0-0.1,0.1-0.2,0.2-0.2c0.1,0,0.2,0.1,0.2,0.2V12c0,0.3,0.3,0.6,0.6,0.6h4.7
			c0.5,0,1.1,0.3,1.5,0.6l2,2c0.3,0.3,0.6,1,0.6,1.5v5.5c0,0.5-0.3,1.1-0.6,1.5l-2,2C189.2,25.9,188.6,26.2,188.1,26.2z"/>
	</g>
	<g>
		<path class="st0" d="M186.5,23.1h-3.1c-0.5,0-1.1-0.3-1.5-0.6l-1-1c-0.1-0.1-0.1-0.2,0-0.3c0.1-0.1,0.2-0.1,0.3,0l1,1
			c0.3,0.3,0.8,0.5,1.2,0.5h3.1c0.4,0,0.9-0.2,1.2-0.5l0.5-0.5c0.3-0.3,0.5-0.8,0.5-1.2v-2.3c0-0.4-0.2-0.9-0.5-1.2l-0.5-0.5
			c-0.3-0.3-0.8-0.5-1.2-0.5h-6.2c-0.5,0-1-0.4-1-1V8.8c0-0.1,0.1-0.2,0.2-0.2c0.1,0,0.2,0.1,0.2,0.2v6.2c0,0.3,0.3,0.6,0.6,0.6h6.2
			c0.5,0,1.1,0.3,1.5,0.6l0.5,0.5c0.3,0.3,0.6,1,0.6,1.5v2.3c0,0.5-0.3,1.1-0.6,1.5l-0.5,0.5C187.6,22.8,187,23.1,186.5,23.1z"/>
	</g>
	<g>
		<path class="st0" d="M193.5,4.3H181c-0.1,0-0.2-0.1-0.2-0.2S180.9,4,181,4h12.5c0.1,0,0.2,0.1,0.2,0.2S193.6,4.3,193.5,4.3z"/>
	</g>
	<g>
		<path class="st0" d="M187.3,24.6h-4.7c-0.5,0-1.1-0.3-1.5-0.6l-1.8-1.8c-0.1-0.1-0.1-0.2,0-0.3c0.1-0.1,0.2-0.1,0.3,0l1.8,1.8
			c0.3,0.3,0.8,0.5,1.2,0.5h4.7c0.4,0,0.9-0.2,1.2-0.5l1.2-1.2c0.3-0.3,0.5-0.8,0.5-1.2v-3.9c0-0.4-0.2-0.9-0.5-1.2l-1.2-1.2
			c-0.3-0.3-0.8-0.5-1.2-0.5h-5.5c-0.5,0-1-0.4-1-1V8.8c0-0.1,0.1-0.2,0.2-0.2s0.2,0.1,0.2,0.2v4.7c0,0.3,0.3,0.6,0.6,0.6h5.5
			c0.5,0,1.1,0.3,1.5,0.6l1.2,1.2c0.3,0.3,0.6,1,0.6,1.5v3.9c0,0.5-0.3,1.1-0.6,1.5l-1.2,1.2C188.4,24.4,187.8,24.6,187.3,24.6z"/>
	</g>
</g>
<g>
	<path class="st0" d="M199.8,6.1h0.4V4.3l-0.5,0.3l-0.1-0.3l0.7-0.4h0.3v2.1h0.4v0.3h-1.2V6.1z"/>
	<path class="st0" d="M201.9,6c0,0,0.2,0.1,0.4,0.1c0.4,0,0.6-0.4,0.6-0.8c-0.1,0.1-0.3,0.2-0.6,0.2c-0.5,0-0.7-0.3-0.7-0.8
		c0-0.5,0.3-0.8,0.8-0.8c0.5,0,0.9,0.4,0.9,1.2c0,0.8-0.3,1.4-1,1.4c-0.3,0-0.5-0.1-0.6-0.2L201.9,6z M202.5,4.2
		c-0.2,0-0.5,0.2-0.5,0.5c0,0.3,0.1,0.5,0.5,0.5c0.3,0,0.4-0.1,0.5-0.2C203,4.5,202.8,4.2,202.5,4.2z"/>
	<path class="st0" d="M204,4.5c0-0.4,0.3-0.6,0.7-0.6c0.5,0,0.7,0.3,0.7,0.6c0,0.2-0.1,0.4-0.4,0.6c0.2,0.1,0.5,0.3,0.5,0.7
		c0,0.3-0.2,0.7-0.9,0.7c-0.6,0-0.9-0.4-0.9-0.7c0-0.3,0.2-0.6,0.5-0.7C204.2,4.9,204,4.8,204,4.5z M204.2,5.7
		c0,0.3,0.3,0.4,0.5,0.4c0.2,0,0.5-0.1,0.5-0.4c0-0.2-0.3-0.4-0.5-0.5C204.5,5.3,204.2,5.5,204.2,5.7z M205.2,4.5
		c0-0.2-0.2-0.3-0.4-0.3c-0.2,0-0.4,0.1-0.4,0.3c0,0.2,0.1,0.3,0.4,0.4C205,4.8,205.2,4.7,205.2,4.5z"/>
	<path class="st0" d="M206.3,5.9c0.1,0.1,0.3,0.2,0.6,0.2c0.4,0,0.5-0.2,0.5-0.5c0-0.2-0.1-0.5-0.5-0.5c-0.2,0-0.3,0-0.4,0.1
		l-0.2-0.1l0.2-1.1h1.2v0.3h-0.9l-0.1,0.6c0,0,0.2-0.1,0.3-0.1c0.5,0,0.8,0.3,0.8,0.8c0,0.4-0.3,0.8-0.9,0.8c-0.3,0-0.6-0.1-0.7-0.3
		L206.3,5.9z"/>
	<path class="st0" d="M200.1,9h-0.8V8.4h2.2l0,0.6h-0.8v1.9h-0.7V9z"/>
	<path class="st0" d="M202,8.4h0.7l0,0.9h0.9l0-0.9h0.7v2.5h-0.7v-1h-0.9v1H202L202,8.4z"/>
	<path class="st0" d="M204.9,8.4h0.7l0,2.5h-0.7L204.9,8.4z"/>
	<path class="st0" d="M206.2,8.4h1.1c0.5,0,0.9,0.3,0.9,0.8c0,0.3-0.2,0.6-0.4,0.7l0.5,1h-0.7l-0.4-0.9h-0.3v0.9h-0.7V8.4z
		 M207.2,9.5c0.2,0,0.3-0.1,0.3-0.3c0-0.2-0.1-0.3-0.3-0.3h-0.3v0.6H207.2z"/>
	<path class="st0" d="M209.3,9h-0.8l0-0.6l2.2,0l0,0.6L210,9v1.9h-0.7V9z"/>
	<path class="st0" d="M211.9,9.9L211,8.4h0.8l0.5,0.9l0.5-0.9h0.7l-0.9,1.5v1h-0.7V9.9z"/>
	<path class="st0" d="M199.5,13h1.8v0.6h-1.1V14h0.8v0.6h-0.8v0.9h-0.7V13z"/>
	<path class="st0" d="M201.7,13h0.7v2.5h-0.7V13z"/>
	<path class="st0" d="M202.8,13h0.7l0.6,1.8l0.5-1.8h0.7l-0.9,2.5h-0.7L202.8,13z"/>
	<path class="st0" d="M205.8,13h1.8v0.6h-1.2v0.4h0.9v0.5h-0.9v0.4h1.2v0.6h-1.9V13z"/>
	<path class="st0" d="M200.2,19.1l-0.9-1.5h0.8l0.5,0.9l0.5-0.9h0.7l-0.9,1.5v1h-0.7V19.1z"/>
	<path class="st0" d="M202.2,17.5h1.8v0.6h-1.2v0.4h0.9V19h-0.9v0.4h1.2v0.6h-1.9V17.5z"/>
	<path class="st0" d="M205.4,17.5h0.8l0.9,2.5h-0.7l-0.2-0.5h-0.8l-0.2,0.5h-0.7L205.4,17.5z M206,19l-0.3-0.9l-0.3,0.9H206z"/>
	<path class="st0" d="M207.4,17.5h1.1c0.5,0,0.9,0.3,0.9,0.8c0,0.3-0.2,0.6-0.4,0.7l0.5,1h-0.7l-0.4-0.9h-0.3v0.9h-0.7V17.5z
		 M208.4,18.7c0.2,0,0.3-0.1,0.3-0.3c0-0.2-0.1-0.3-0.3-0.3h-0.3v0.6H208.4z"/>
	<path class="st0" d="M210.1,19.3c0.1,0.1,0.4,0.3,0.7,0.3c0.1,0,0.3,0,0.3-0.2c0-0.1-0.1-0.2-0.4-0.3l-0.1,0
		c-0.3-0.1-0.7-0.3-0.7-0.7c0-0.5,0.3-0.8,1-0.8c0.5,0,0.8,0.2,0.9,0.3l-0.3,0.4c-0.2-0.1-0.4-0.2-0.6-0.2c-0.1,0-0.3,0.1-0.3,0.2
		c0,0.2,0.2,0.2,0.4,0.3l0.1,0c0.3,0.1,0.7,0.3,0.7,0.8c0,0.5-0.5,0.8-1,0.8c-0.5,0-0.8-0.1-1.1-0.4L210.1,19.3z"/>
	<path class="st0" d="M199.5,24.4c0-0.3,0.1-0.5,0.3-0.6c0.4-0.4,0.8-0.6,0.8-0.9c0-0.1-0.1-0.4-0.4-0.4c-0.3,0-0.4,0.2-0.5,0.3
		l-0.3-0.2c0.1-0.2,0.3-0.4,0.8-0.4c0.5,0,0.8,0.3,0.8,0.6c0,0.4-0.3,0.6-0.5,0.8c-0.3,0.3-0.6,0.5-0.6,0.7h1.1v0.3h-1.5V24.4z"/>
	<path class="st0" d="M201.6,23.4c0-0.8,0.3-1.2,0.9-1.2c0.6,0,0.9,0.5,0.9,1.2c0,0.8-0.3,1.3-0.9,1.3S201.6,24.2,201.6,23.4z
		 M203.1,23.4c0-0.6-0.2-0.9-0.6-0.9c-0.4,0-0.6,0.4-0.6,0.9c0,0.6,0.2,1,0.6,1C202.9,24.4,203.1,24,203.1,23.4z"/>
	<path class="st0" d="M204,24.4c0-0.3,0.1-0.5,0.3-0.6c0.4-0.4,0.8-0.6,0.8-0.9c0-0.1-0.1-0.4-0.4-0.4c-0.3,0-0.4,0.2-0.5,0.3
		l-0.3-0.2c0.1-0.2,0.3-0.4,0.8-0.4c0.5,0,0.8,0.3,0.8,0.6c0,0.4-0.3,0.6-0.5,0.8c-0.3,0.3-0.6,0.5-0.6,0.7h1.1v0.3H204V24.4z"/>
	<path class="st0" d="M206.1,23.4c0-0.8,0.3-1.2,0.9-1.2c0.6,0,0.9,0.5,0.9,1.2c0,0.8-0.3,1.3-0.9,1.3
		C206.4,24.7,206.1,24.2,206.1,23.4z M207.5,23.4c0-0.6-0.2-0.9-0.6-0.9c-0.4,0-0.6,0.4-0.6,0.9c0,0.6,0.2,1,0.6,1
		C207.3,24.4,207.5,24,207.5,23.4z"/>
</g>
<g>
	<path class="st0" d="M150,28.5c-0.1,0-0.2-0.1-0.2-0.2v-28c0-0.1,0.1-0.2,0.2-0.2c0.1,0,0.2,0.1,0.2,0.2v28
		C150.2,28.4,150.1,28.5,150,28.5z"/>
</g>
</svg>
