<svg version="1.2" xmlns="http://www.w3.org/2000/svg" viewBox="0 0 2573 570" width="2573" height="570">
	<title>RISC-V Landscape Logo-ai</title>
	<style>
		.s0 { fill: #000000 } 
		.s1 { fill: #5dd9d1 } 
		.s2 { fill: #4c4c4c } 
		.s3 { fill: #ffffff } 
		.s4 { fill: #f2f2f2 } 
	</style>
	<g id="Layer 1">
		<g id="&lt;Group&gt;">
			<path id="&lt;Path&gt;" class="s0" d="m9187 5096h-10686v-3074.5h10686z"/>
		</g>
		<g id="&lt;Group&gt;">
			<g id="&lt;Group&gt;">
				<path id="&lt;Compound Path&gt;" class="s1" d="m149.6 426v-243h36.4v243z"/>
				<path id="&lt;Compound Path&gt;" class="s1" d="m378 230.2q18.2 0 31 12.9 12.9 12.8 12.9 31v151.9h-36.5v-151.9q0-3-2.2-5.2-2.2-2.2-5.2-2.2h-111.4q-3 0-5.2 2.2-2.2 2.2-2.2 5.2v151.9h-36.4v-195.8z"/>
				<path id="&lt;Compound Path&gt;" class="s1" d="m654.7 274.1v7.4h-36.4v-7.4q0-3-2.2-5.2-2.2-2.2-5.3-2.2h-111.3q-3.1 0-5.3 2.2-2.1 2.2-2.1 5.2v28.3q0 3.1 2.1 5.3 2.2 2.2 5.3 2.2h111.3q18.3 0 31.1 12.8 12.8 12.8 12.8 31v28.4q0 18.2-12.8 31-12.8 12.9-31.1 12.9h-111.3q-18.2 0-31.1-12.9-12.8-12.8-12.8-31v-7.4h36.5v7.4q0 3 2.1 5.2 2.2 2.2 5.3 2.2h111.3q3.1 0 5.3-2.2 2.2-2.2 2.2-5.2v-28.4q0-3-2.2-5.2-2.2-2.2-5.3-2.2h-111.3q-18.2 0-31.1-12.8-12.8-12.8-12.8-31.1v-28.3q0-18.2 12.8-31 12.9-12.9 31.1-12.9h111.3q18.3 0 31.1 12.9 12.8 12.8 12.8 31z"/>
				<path id="&lt;Compound Path&gt;" fill-rule="evenodd" class="s1" d="m844.3 230.2q18.3 0 31.1 12.9 12.8 12.8 12.8 31v108q0 18.2-12.8 31-12.8 12.9-31.1 12.9h-118.7v77.6h-36.5v-273.4zm7.4 151.9v-108q0-3-2.2-5.2-2.1-2.2-5.2-2.2h-111.3q-3.1 0-5.3 2.2-2.2 2.2-2.2 5.2v108q0 3 2.2 5.2 2.2 2.2 5.3 2.2h111.3q3.1 0 5.2-2.2 2.2-2.2 2.2-5.2z"/>
				<path id="&lt;Compound Path&gt;" class="s1" d="m912.5 170.1h36.4v36.5h-36.4zm0 259.8v-195.7h36.4v195.7z"/>
				<path id="&lt;Compound Path&gt;" class="s1" d="m1026.5 230.2h109.4v36.5h-109.4q-3 0-5.2 2.2-2.2 2.2-2.2 5.2v151.9h-36.4v-43.9-108q0-18.2 12.8-31 12.8-12.9 31-12.9z"/>
				<path id="&lt;Compound Path&gt;" fill-rule="evenodd" class="s1" d="m1310.3 230.2q18.3 0 31.1 12.9 12.8 12.8 12.8 31v72.2h-162.6v35.8q0 3 2.1 5.2 2.2 2.2 5.3 2.2h155.2v36.5h-155.2q-18.2 0-31.1-12.9-12.8-12.8-12.8-31v-108q0-18.2 12.8-31 12.9-12.9 31.1-12.9zm-118.8 79.7h126.2v-35.8q0-3-2.2-5.2-2.2-2.2-5.2-2.2h-111.4q-3 0-5.2 2.2-2.2 2.2-2.2 5.2z"/>
				<path id="&lt;Compound Path&gt;" class="s2" d="m1631.6 226.9v14.1h-36.5v-14.1q0-3.1-2.2-5.3-2.2-2.2-5.2-2.2h-155.2q-3.1 0-5.2 2.2-2.2 2.2-2.2 5.3v51.9q0 3.1 2.2 5.3 2.1 2.2 5.2 2.2h155.2q18.2 0 31 12.8 12.9 12.8 12.9 31v52q0 18.2-12.9 31-12.8 12.9-31 12.9h-155.2q-18.2 0-31.1-12.9-12.8-12.8-12.8-31v-14.2h36.5v14.2q0 3 2.2 5.2 2.1 2.2 5.2 2.2h155.2q3 0 5.2-2.2 2.2-2.2 2.2-5.2v-52q0-3-2.2-5.2-2.2-2.2-5.2-2.2h-155.2q-18.2 0-31.1-12.8-12.8-12.8-12.8-31.1v-51.9q0-18.3 12.8-31.1 12.9-12.8 31.1-12.8h155.2q18.2 0 31 12.8 12.9 12.8 12.9 31.1z"/>
				<path id="&lt;Compound Path&gt;" fill-rule="evenodd" class="s2" d="m1821.2 230.2q18.2 0 31.1 12.9 12.8 12.8 12.8 31v72.2h-162.7v35.8q0 3 2.2 5.2 2.2 2.2 5.3 2.2h155.2v36.5h-155.2q-18.3 0-31.1-12.9-12.8-12.8-12.8-31v-108q0-18.2 12.8-31 12.8-12.9 31.1-12.9zm-118.8 79.7h126.2v-35.8q0-3-2.2-5.2-2.2-2.2-5.2-2.2h-111.4q-3 0-5.2 2.2-2.2 2.2-2.2 5.2z"/>
				<path id="&lt;Compound Path&gt;" class="s2" d="m2150.5 230.2q18.3 0 31.1 12.9 12.8 12.8 12.8 31v151.9h-36.1v-151.9q0-3-2.2-5.2-2.2-2.2-5.6-2.2h-77.2q-3.1 0-5.3 2.2-2.2 2.2-2.2 5.2v151.9h-36.4v-151.9q0-3-2.2-5.2-2.2-2.2-5.2-2.2h-77.6q-3.1 0-5.3 2.2-2.2 2.2-2.2 5.2v151.9h-36.4v-195.8z"/>
				<path id="&lt;Compound Path&gt;" class="s2" d="m2229.8 166.1h36.5v36.5h-36.5zm0 259.8v-195.7h36.5v195.7z"/>
			</g>
		</g>
		<g id="&lt;Group&gt;">
			<path id="&lt;Compound Path&gt;" class="s2" d="m2350.7 171v11.3h-21.8v56.7h-13.5v-56.7h-21.7v-11.3zm73.5 68l-2.5-40c-0.3-5.2-0.3-11.7-0.5-19h-0.8c-1.7 6-3.7 14-5.7 20.3l-12.3 37.7h-14l-12.2-38.7c-1.3-5.3-3.3-13.3-4.8-19.3h-0.7c0 6.3-0.3 12.8-0.5 19l-2.5 40h-13l5-68h20.2l11.8 33.3c1.5 5.2 2.7 10.2 4.5 17.2h0.2c1.8-6.2 3.3-12 4.8-17l11.7-33.5h19.5l5.3 68z"/>
		</g>
		<g id="&lt;Group&gt;">
			<g id="&lt;Group&gt;">
				<path id="&lt;Compound Path&gt;" class="s2" d="m4027.6 426v-243h36.4v243z"/>
				<path id="&lt;Compound Path&gt;" class="s2" d="m4256 230.2q18.2 0 31.1 12.9 12.8 12.8 12.8 31v151.9h-36.5v-151.9q0-3-2.1-5.2-2.2-2.2-5.3-2.2h-111.3q-3.1 0-5.3 2.2-2.2 2.2-2.2 5.2v151.9h-36.4v-195.8z"/>
				<path id="&lt;Compound Path&gt;" class="s2" d="m4532.7 274.1v7.4h-36.4v-7.4q0-3-2.2-5.2-2.2-2.2-5.2-2.2h-111.4q-3 0-5.2 2.2-2.2 2.2-2.2 5.2v28.3q0 3.1 2.2 5.3 2.2 2.2 5.2 2.2h111.4q18.2 0 31 12.8 12.8 12.8 12.8 31v28.4q0 18.2-12.8 31-12.8 12.9-31 12.9h-111.4q-18.2 0-31-12.9-12.9-12.8-12.9-31v-7.4h36.5v7.4q0 3 2.2 5.2 2.2 2.2 5.2 2.2h111.4q3 0 5.2-2.2 2.2-2.2 2.2-5.2v-28.4q0-3-2.2-5.2-2.2-2.2-5.2-2.2h-111.4q-18.2 0-31-12.8-12.9-12.8-12.9-31.1v-28.3q0-18.2 12.9-31 12.8-12.9 31-12.9h111.4q18.2 0 31 12.9 12.8 12.8 12.8 31z"/>
				<path id="&lt;Compound Path&gt;" fill-rule="evenodd" class="s2" d="m4722.4 230.2q18.2 0 31 12.9 12.8 12.8 12.8 31v108q0 18.2-12.8 31-12.8 12.9-31 12.9h-118.8v77.6h-36.5v-273.4zm7.5 151.9v-108q0-3-2.2-5.2-2.2-2.2-5.3-2.2h-111.3q-3.1 0-5.2 2.2-2.2 2.2-2.2 5.2v108q0 3 2.2 5.2 2.1 2.2 5.2 2.2h111.3q3.1 0 5.3-2.2 2.2-2.2 2.2-5.2z"/>
				<path id="&lt;Compound Path&gt;" class="s2" d="m4790.5 166.1h36.5v36.5h-36.5zm0 259.8v-195.7h36.5v195.7z"/>
				<path id="&lt;Compound Path&gt;" class="s2" d="m4904.6 230.2h109.3v36.5h-109.3q-3.1 0-5.3 2.2-2.2 2.2-2.2 5.2v151.9h-36.4v-43.9-108q0-18.2 12.8-31 12.8-12.9 31.1-12.9z"/>
				<path id="&lt;Compound Path&gt;" fill-rule="evenodd" class="s2" d="m5188.4 230.2q18.2 0 31 12.9 12.8 12.8 12.8 31v72.2h-162.6v35.8q0 3 2.2 5.2 2.2 2.2 5.2 2.2h155.2v36.5h-155.2q-18.2 0-31-12.9-12.9-12.8-12.9-31v-108q0-18.2 12.9-31 12.8-12.9 31-12.9zm-118.8 79.7h126.2v-35.8q0-3-2.2-5.2-2.2-2.2-5.2-2.2h-111.4q-3 0-5.2 2.2-2.2 2.2-2.2 5.2z"/>
				<path id="&lt;Compound Path&gt;" class="s2" d="m5509.6 226.9v14.1h-36.5v-14.1q0-3.1-2.1-5.3-2.2-2.2-5.3-2.2h-155.2q-3 0-5.2 2.2-2.2 2.2-2.2 5.3v51.9q0 3.1 2.2 5.3 2.2 2.2 5.2 2.2h155.2q18.2 0 31.1 12.8 12.8 12.8 12.8 31v52q0 18.2-12.8 31-12.9 12.9-31.1 12.9h-155.2q-18.2 0-31-12.9-12.9-12.8-12.9-31v-14.2h36.5v14.2q0 3 2.2 5.2 2.2 2.2 5.2 2.2h155.2q3.1 0 5.3-2.2 2.1-2.2 2.1-5.2v-52q0-3-2.1-5.2-2.2-2.2-5.3-2.2h-155.2q-18.2 0-31-12.8-12.9-12.8-12.9-31.1v-51.9q0-18.3 12.9-31.1 12.8-12.8 31-12.8h155.2q18.2 0 31.1 12.8 12.8 12.8 12.8 31.1z"/>
				<path id="&lt;Compound Path&gt;" fill-rule="evenodd" class="s2" d="m5699.2 230.2q18.2 0 31.1 12.9 12.8 12.8 12.8 31v72.2h-162.6v35.8q-0.1 3 2.1 5.2 2.2 2.2 5.3 2.2h155.2v36.5h-155.2q-18.2 0-31.1-12.9-12.8-12.8-12.8-31v-108q0-18.2 12.8-31 12.9-12.9 31.1-12.9zm-118.8 79.7h126.2v-35.8q0-3-2.2-5.2-2.2-2.2-5.2-2.2h-111.4q-3 0-5.2 2.2-2.2 2.2-2.2 5.2z"/>
				<path id="&lt;Compound Path&gt;" class="s2" d="m6028.6 230.2q18.2 0 31 12.9 12.8 12.8 12.8 31v151.9h-36.1v-151.9q0-3-2.2-5.2-2.2-2.2-5.5-2.2h-77.3q-3 0-5.2 2.2-2.2 2.2-2.2 5.2v151.9h-36.5v-151.9q0-3-2.2-5.2-2.2-2.2-5.2-2.2h-77.6q-3 0-5.2 2.2-2.2 2.2-2.2 5.2v151.9h-36.5v-195.8z"/>
				<path id="&lt;Compound Path&gt;" class="s2" d="m6107.9 166.1h36.4v36.5h-36.4zm0 259.8v-195.7h36.4v195.7z"/>
			</g>
		</g>
		<g id="&lt;Group&gt;">
			<path id="&lt;Compound Path&gt;" class="s2" d="m6228.7 171v11.3h-21.8v56.7h-13.5v-56.7h-21.7v-11.3zm73.5 68l-2.5-40c-0.3-5.2-0.3-11.7-0.5-19h-0.8c-1.7 6-3.7 14-5.7 20.3l-12.3 37.7h-14l-12.2-38.7c-1.3-5.3-3.3-13.3-4.8-19.3h-0.7c0 6.3-0.3 12.8-0.5 19l-2.5 40h-13l5-68h20.2l11.8 33.3c1.5 5.2 2.7 10.2 4.5 17.2h0.2c1.8-6.2 3.3-12 4.8-17l11.7-33.5h19.5l5.3 68z"/>
		</g>
		<g id="&lt;Group&gt;">
			<g id="&lt;Group&gt;">
				<path id="&lt;Compound Path&gt;" class="s3" d="m2476.4 3602v-243h36.4v243z"/>
				<path id="&lt;Compound Path&gt;" class="s3" d="m2704.8 3406.2q18.2 0 31.1 12.9 12.8 12.8 12.8 31v151.9h-36.5v-151.9q0-3-2.2-5.2-2.2-2.2-5.2-2.2h-111.3q-3.1 0-5.3 2.2-2.2 2.2-2.2 5.2v151.9h-36.4v-195.8z"/>
				<path id="&lt;Compound Path&gt;" class="s3" d="m2981.5 3450.1v7.4h-36.4v-7.4q0-3-2.2-5.2-2.2-2.2-5.3-2.2h-111.3q-3 0-5.2 2.2-2.2 2.2-2.2 5.2v28.4q0 3 2.2 5.2 2.2 2.2 5.2 2.2h111.3q18.3 0 31.1 12.8 12.8 12.8 12.8 31v28.4q0 18.2-12.8 31-12.8 12.9-31.1 12.9h-111.3q-18.2 0-31.1-12.9-12.8-12.8-12.8-31v-7.4h36.5v7.4q0 3 2.2 5.2 2.2 2.2 5.2 2.2h111.3q3.1 0 5.3-2.2 2.2-2.2 2.2-5.2v-28.4q0-3-2.2-5.2-2.2-2.2-5.3-2.2h-111.3q-18.2 0-31.1-12.8-12.8-12.8-12.8-31v-28.4q0-18.2 12.8-31 12.9-12.9 31.1-12.9h111.3q18.3 0 31.1 12.9 12.8 12.8 12.8 31z"/>
				<path id="&lt;Compound Path&gt;" fill-rule="evenodd" class="s3" d="m3171.2 3406.2q18.2 0 31 12.9 12.8 12.8 12.8 31v108q0 18.2-12.8 31-12.8 12.9-31 12.9h-118.8v77.6h-36.5v-273.4zm7.5 151.9v-108q0-3-2.2-5.2-2.2-2.2-5.3-2.2h-111.3q-3.1 0-5.3 2.2-2.2 2.2-2.2 5.2v108q0 3 2.2 5.2 2.2 2.2 5.3 2.2h111.3q3.1 0 5.3-2.2 2.2-2.2 2.2-5.2z"/>
				<path id="&lt;Compound Path&gt;" class="s3" d="m3239.3 3342.1h36.5v36.5h-36.5zm0 259.8v-195.7h36.5v195.7z"/>
				<path id="&lt;Compound Path&gt;" class="s3" d="m3353.4 3406.2h109.3v36.5h-109.3q-3.1 0-5.3 2.2-2.2 2.2-2.2 5.2v151.9h-36.4v-43.9-108q0-18.2 12.8-31 12.8-12.9 31.1-12.9z"/>
				<path id="&lt;Compound Path&gt;" fill-rule="evenodd" class="s3" d="m3637.1 3406.2q18.3 0 31.1 12.9 12.8 12.8 12.8 31v72.2h-162.6v35.8q0 3 2.2 5.2 2.2 2.2 5.2 2.2h155.2v36.5h-155.2q-18.2 0-31.1-12.9-12.8-12.8-12.8-31v-108q0-18.2 12.8-31 12.9-12.9 31.1-12.9zm-118.8 79.7h126.2v-35.8q0-3-2.2-5.2-2.2-2.2-5.2-2.2h-111.4q-3 0-5.2 2.2-2.2 2.2-2.2 5.2z"/>
				<path id="&lt;Compound Path&gt;" class="s3" d="m3958.4 3402.9v14.1h-36.5v-14.1q0-3.1-2.2-5.3-2.1-2.2-5.2-2.2h-155.2q-3 0-5.2 2.2-2.2 2.2-2.2 5.3v51.9q0 3.1 2.2 5.3 2.2 2.2 5.2 2.2h155.2q18.2 0 31.1 12.8 12.8 12.8 12.8 31v52q0 18.2-12.8 31-12.9 12.9-31.1 12.9h-155.2q-18.2 0-31.1-12.9-12.8-12.8-12.8-31v-14.2h36.5v14.2q0 3 2.2 5.2 2.2 2.2 5.2 2.2h155.2q3.1 0 5.2-2.2 2.2-2.2 2.2-5.2v-52q0-3-2.2-5.2-2.1-2.2-5.2-2.2h-155.2q-18.2 0-31.1-12.8-12.8-12.8-12.8-31.1v-51.9q0-18.2 12.8-31.1 12.9-12.8 31.1-12.8h155.2q18.2 0 31.1 12.8 12.8 12.9 12.8 31.1z"/>
				<path id="&lt;Compound Path&gt;" fill-rule="evenodd" class="s3" d="m4148 3406.2q18.2 0 31.1 12.9 12.8 12.8 12.8 31v72.2h-162.7v35.8q0 3 2.2 5.2 2.2 2.2 5.3 2.2h155.2v36.5h-155.2q-18.3 0-31.1-12.9-12.8-12.8-12.8-31v-108q0-18.2 12.8-31 12.8-12.9 31.1-12.9zm-118.8 79.7h126.2v-35.8q0-3-2.2-5.2-2.2-2.2-5.2-2.2h-111.4q-3 0-5.2 2.2-2.2 2.2-2.2 5.2z"/>
				<path id="&lt;Compound Path&gt;" class="s3" d="m4477.4 3406.2q18.2 0 31 12.9 12.8 12.8 12.8 31v151.9h-36.1v-151.9q0-3-2.2-5.2-2.2-2.2-5.5-2.2h-77.3q-3.1 0-5.2 2.2-2.2 2.2-2.2 5.2v151.9h-36.5v-151.9q0-3-2.2-5.2-2.2-2.2-5.2-2.2h-77.6q-3.1 0-5.2 2.2-2.2 2.2-2.2 5.2v151.9h-36.5v-195.8z"/>
				<path id="&lt;Compound Path&gt;" class="s3" d="m4556.7 3342.1h36.4v36.5h-36.4zm0 259.8v-195.7h36.4v195.7z"/>
			</g>
		</g>
		<g id="&lt;Group&gt;">
			<path id="&lt;Compound Path&gt;" class="s3" d="m4677.5 3347v11.3h-21.8v56.7h-13.5v-56.7h-21.7v-11.3zm73.5 68l-2.5-40c-0.3-5.2-0.3-11.7-0.5-19h-0.8c-1.7 6-3.7 14-5.7 20.3l-12.3 37.7h-14l-12.2-38.7c-1.3-5.3-3.3-13.3-4.8-19.3h-0.7c0 6.3-0.3 12.8-0.5 19l-2.5 40h-13l5-68h20.2l11.8 33.3c1.5 5.2 2.7 10.2 4.5 17.2h0.2c1.8-6.2 3.3-12 4.8-17l11.7-33.5h19.5l5.3 68z"/>
		</g>
		<g id="&lt;Group&gt;">
			<g id="&lt;Group&gt;">
				<path id="&lt;Compound Path&gt;" class="s1" d="m-626 3602v-243h36.4v243z"/>
				<path id="&lt;Compound Path&gt;" class="s1" d="m-397.6 3406.2q18.2 0 31 12.9 12.9 12.8 12.9 31v151.9h-36.5v-151.9q0-3-2.2-5.2-2.2-2.2-5.2-2.2h-111.4q-3 0-5.2 2.2-2.2 2.2-2.2 5.2v151.9h-36.4v-195.8z"/>
				<path id="&lt;Compound Path&gt;" class="s1" d="m-120.9 3450.1v7.4h-36.4v-7.4q0-3-2.2-5.2-2.2-2.2-5.3-2.2h-111.3q-3.1 0-5.3 2.2-2.2 2.2-2.1 5.2v28.4q-0.1 3 2.1 5.2 2.2 2.2 5.3 2.2h111.3q18.2 0 31.1 12.8 12.8 12.8 12.8 31v28.4q0 18.2-12.8 31-12.9 12.9-31.1 12.9h-111.3q-18.2 0-31.1-12.9-12.8-12.8-12.8-31v-7.4h36.5v7.4q-0.1 3 2.1 5.2 2.2 2.2 5.3 2.2h111.3q3.1 0 5.3-2.2 2.2-2.2 2.2-5.2v-28.4q0-3-2.2-5.2-2.2-2.2-5.3-2.2h-111.3q-18.2 0-31.1-12.8-12.8-12.8-12.8-31v-28.4q0-18.2 12.8-31 12.9-12.9 31.1-12.9h111.3q18.2 0 31.1 12.9 12.8 12.8 12.8 31z"/>
				<path id="&lt;Compound Path&gt;" fill-rule="evenodd" class="s1" d="m68.7 3406.2q18.3 0 31.1 12.9 12.8 12.8 12.8 31v108q0 18.2-12.8 31-12.8 12.9-31.1 12.9h-118.7v77.6h-36.5v-273.4zm7.4 151.9v-108q0-3-2.2-5.2-2.2-2.2-5.2-2.2h-111.3q-3.1 0-5.3 2.2-2.2 2.2-2.2 5.2v108q0 3 2.2 5.2 2.2 2.2 5.3 2.2h111.3q3 0 5.2-2.2 2.2-2.2 2.2-5.2z"/>
				<path id="&lt;Compound Path&gt;" class="s1" d="m136.9 3342.1h36.4v36.5h-36.4zm0 259.8v-195.7h36.4v195.7z"/>
				<path id="&lt;Compound Path&gt;" class="s1" d="m250.9 3406.2h109.4v36.5h-109.4q-3 0-5.2 2.2-2.2 2.2-2.2 5.2v151.9h-36.4v-43.9-108q0-18.2 12.8-31 12.8-12.9 31-12.9z"/>
				<path id="&lt;Compound Path&gt;" fill-rule="evenodd" class="s1" d="m534.7 3406.2q18.2 0 31.1 12.9 12.8 12.8 12.8 31v72.2h-162.6v35.8q-0.1 3 2.1 5.2 2.2 2.2 5.3 2.2h155.2v36.5h-155.2q-18.2 0-31.1-12.9-12.8-12.8-12.8-31v-108q0-18.2 12.8-31 12.9-12.9 31.1-12.9zm-118.8 79.7h126.2v-35.8q0-3-2.2-5.2-2.2-2.2-5.2-2.2h-111.4q-3 0-5.2 2.2-2.2 2.2-2.2 5.2z"/>
				<path id="&lt;Compound Path&gt;" class="s1" d="m856 3402.9v14.1h-36.5v-14.1q0-3.1-2.2-5.3-2.2-2.2-5.2-2.2h-155.2q-3.1 0-5.3 2.2-2.1 2.2-2.1 5.3v51.9q0 3.1 2.1 5.3 2.2 2.2 5.3 2.2h155.2q18.2 0 31 12.8 12.9 12.8 12.9 31v52q0 18.2-12.9 31-12.8 12.9-31 12.9h-155.2q-18.2 0-31.1-12.9-12.8-12.8-12.8-31v-14.2h36.5v14.2q0 3 2.1 5.2 2.2 2.2 5.3 2.2h155.2q3 0 5.2-2.2 2.2-2.2 2.2-5.2v-52q0-3-2.2-5.2-2.2-2.2-5.2-2.2h-155.2q-18.2 0-31.1-12.8-12.8-12.8-12.8-31.1v-51.9q0-18.2 12.8-31.1 12.9-12.8 31.1-12.8h155.2q18.2 0 31 12.8 12.9 12.9 12.9 31.1z"/>
				<path id="&lt;Compound Path&gt;" fill-rule="evenodd" class="s1" d="m1045.6 3406.2q18.2 0 31.1 12.9 12.8 12.8 12.8 31v72.2h-162.7v35.8q0 3 2.2 5.2 2.2 2.2 5.3 2.2h155.2v36.5h-155.2q-18.3 0-31.1-12.9-12.8-12.8-12.8-31v-108q0-18.2 12.8-31 12.8-12.9 31.1-12.9zm-118.8 79.7h126.2v-35.8q0-3-2.2-5.2-2.2-2.2-5.2-2.2h-111.4q-3 0-5.2 2.2-2.2 2.2-2.2 5.2z"/>
				<path id="&lt;Compound Path&gt;" class="s1" d="m1374.9 3406.2q18.3 0 31.1 12.9 12.8 12.8 12.8 31v151.9h-36.1v-151.9q0-3-2.2-5.2-2.2-2.2-5.6-2.2h-77.2q-3.1 0-5.3 2.2-2.2 2.2-2.2 5.2v151.9h-36.4v-151.9q0-3-2.2-5.2-2.2-2.2-5.2-2.2h-77.6q-3.1 0-5.3 2.2-2.2 2.2-2.2 5.2v151.9h-36.4v-195.8z"/>
				<path id="&lt;Compound Path&gt;" class="s1" d="m1454.2 3342.1h36.5v36.5h-36.5zm0 259.8v-195.7h36.5v195.7z"/>
			</g>
		</g>
		<g id="&lt;Group&gt;">
			<path id="&lt;Compound Path&gt;" class="s1" d="m1575.1 3347v11.3h-21.8v56.7h-13.5v-56.7h-21.7v-11.3zm73.5 68l-2.5-40c-0.3-5.2-0.3-11.7-0.5-19h-0.8c-1.7 6-3.7 14-5.7 20.3l-12.3 37.7h-14l-12.2-38.7c-1.3-5.3-3.3-13.3-4.8-19.3h-0.7c0 6.3-0.3 12.8-0.5 19l-2.5 40h-13l5-68h20.2l11.8 33.3c1.5 5.2 2.7 10.2 4.5 17.2h0.2c1.8-6.2 3.3-12 4.8-17l11.7-33.5h19.5l5.3 68z"/>
		</g>
		<g id="&lt;Group&gt;">
			<g id="&lt;Group&gt;">
				<path id="&lt;Compound Path&gt;" class="s1" d="m5756.6 3602v-243h36.4v243z"/>
				<path id="&lt;Compound Path&gt;" class="s1" d="m5985 3406.2q18.2 0 31 12.9 12.9 12.8 12.9 31v151.9h-36.5v-151.9q0-3-2.2-5.2-2.2-2.2-5.2-2.2h-111.4q-3 0-5.2 2.2-2.2 2.2-2.2 5.2v151.9h-36.4v-195.8z"/>
				<path id="&lt;Compound Path&gt;" class="s1" d="m6261.7 3450.1v7.4h-36.4v-7.4q-0.1-3-2.2-5.2-2.2-2.2-5.3-2.2h-111.3q-3.1 0-5.3 2.2-2.2 2.2-2.2 5.2v28.4q0 3 2.2 5.2 2.2 2.2 5.3 2.2h111.3q18.2 0 31.1 12.8 12.8 12.8 12.8 31v28.4q0 18.2-12.8 31-12.9 12.9-31.1 12.9h-111.3q-18.3 0-31.1-12.9-12.8-12.8-12.8-31v-7.4h36.4v7.4q0 3 2.2 5.2 2.2 2.2 5.3 2.2h111.3q3.1 0 5.3-2.2 2.1-2.2 2.2-5.2v-28.4q-0.1-3-2.2-5.2-2.2-2.2-5.3-2.2h-111.3q-18.3 0-31.1-12.8-12.8-12.8-12.8-31v-28.4q0-18.2 12.8-31 12.8-12.9 31.1-12.9h111.3q18.2 0 31.1 12.9 12.8 12.8 12.8 31z"/>
				<path id="&lt;Compound Path&gt;" fill-rule="evenodd" class="s1" d="m6451.3 3406.2q18.3 0 31.1 12.9 12.8 12.8 12.8 31v108q0 18.2-12.8 31-12.8 12.9-31.1 12.9h-118.7v77.6h-36.5v-273.4zm7.4 151.9v-108q0-3-2.2-5.2-2.2-2.2-5.2-2.2h-111.3q-3.1 0-5.3 2.2-2.2 2.2-2.2 5.2v108q0 3 2.2 5.2 2.2 2.2 5.3 2.2h111.3q3 0 5.2-2.2 2.2-2.2 2.2-5.2z"/>
				<path id="&lt;Compound Path&gt;" class="s1" d="m6519.5 3342.1h36.4v36.5h-36.4zm0 259.8v-195.7h36.4v195.7z"/>
				<path id="&lt;Compound Path&gt;" class="s1" d="m6633.5 3406.2h109.4v36.5h-109.4q-3 0-5.2 2.2-2.2 2.2-2.2 5.2v151.9h-36.4v-43.9-108q0-18.2 12.8-31 12.8-12.9 31-12.9z"/>
				<path id="&lt;Compound Path&gt;" fill-rule="evenodd" class="s1" d="m6917.3 3406.2q18.2 0 31.1 12.9 12.8 12.8 12.8 31v72.2h-162.7v35.8q0 3 2.2 5.2 2.2 2.2 5.3 2.2h155.2v36.5h-155.2q-18.2 0-31.1-12.9-12.8-12.8-12.8-31v-108q0-18.2 12.8-31 12.9-12.9 31.1-12.9zm-118.8 79.7h126.2v-35.8q0-3-2.2-5.2-2.2-2.2-5.2-2.2h-111.4q-3 0-5.2 2.2-2.2 2.2-2.2 5.2z"/>
				<path id="&lt;Compound Path&gt;" class="s3" d="m7238.6 3402.9v14.1h-36.5v-14.1q0-3.1-2.2-5.3-2.2-2.2-5.2-2.2h-155.2q-3.1 0-5.3 2.2-2.2 2.2-2.1 5.3v51.9q-0.1 3.1 2.1 5.3 2.2 2.2 5.3 2.2h155.2q18.2 0 31 12.8 12.9 12.8 12.9 31v52q0 18.2-12.9 31-12.8 12.9-31 12.9h-155.2q-18.2 0-31.1-12.9-12.8-12.8-12.8-31v-14.2h36.5v14.2q-0.1 3 2.1 5.2 2.2 2.2 5.3 2.2h155.2q3 0 5.2-2.2 2.2-2.2 2.2-5.2v-52q0-3-2.2-5.2-2.2-2.2-5.2-2.2h-155.2q-18.2 0-31.1-12.8-12.8-12.8-12.8-31.1v-51.9q0-18.2 12.8-31.1 12.9-12.8 31.1-12.8h155.2q18.2 0 31 12.8 12.9 12.9 12.9 31.1z"/>
				<path id="&lt;Compound Path&gt;" fill-rule="evenodd" class="s3" d="m7428.2 3406.2q18.2 0 31 12.9 12.9 12.8 12.9 31v72.2h-162.7v35.8q0 3 2.2 5.2 2.2 2.2 5.2 2.2h155.3v36.5h-155.3q-18.2 0-31-12.9-12.8-12.8-12.8-31v-108q0-18.2 12.8-31 12.8-12.9 31-12.9zm-118.7 79.7h126.2v-35.8q0-3-2.2-5.2-2.2-2.2-5.3-2.2h-111.3q-3 0-5.2 2.2-2.2 2.2-2.2 5.2z"/>
				<path id="&lt;Compound Path&gt;" class="s3" d="m7757.5 3406.2q18.3 0 31.1 12.9 12.8 12.8 12.8 31v151.9h-36.1v-151.9q0-3-2.2-5.2-2.2-2.2-5.6-2.2h-77.2q-3.1 0-5.3 2.2-2.2 2.2-2.2 5.2v151.9h-36.4v-151.9q0-3-2.2-5.2-2.2-2.2-5.2-2.2h-77.6q-3.1 0-5.3 2.2-2.2 2.2-2.2 5.2v151.9h-36.4v-195.8z"/>
				<path id="&lt;Compound Path&gt;" class="s3" d="m7836.8 3342.1h36.5v36.5h-36.5zm0 259.8v-195.7h36.5v195.7z"/>
			</g>
		</g>
		<g id="&lt;Group&gt;">
			<path id="&lt;Compound Path&gt;" class="s4" d="m7957.6 3347v11.3h-21.7v56.7h-13.5v-56.7h-21.8v-11.3zm73.5 68l-2.5-40c-0.2-5.2-0.2-11.7-0.5-19h-0.7c-1.8 6-3.8 14-5.8 20.3l-12.2 37.7h-14l-12.3-38.7c-1.2-5.3-3.2-13.3-4.7-19.3h-0.8c0 6.3-0.2 12.8-0.5 19l-2.5 40h-13l5-68h20.3l11.7 33.3c1.5 5.2 2.8 10.2 4.5 17.2h0.3c1.7-6.2 3.2-12 4.7-17l11.8-33.5h19.5l5.2 68z"/>
		</g>
	</g>
</svg>