<svg xmlns="http://www.w3.org/2000/svg" xmlns:xlink="http://www.w3.org/1999/xlink" viewBox="0 0 67.594 44.961"><defs><style>.cls-1,.cls-2{fill:#03003f;}.cls-1{fill-rule:evenodd;}.cls-3{fill:url(#radial-gradient);}.cls-4{fill:url(#linear-gradient);}.cls-5{fill:url(#linear-gradient-2);}.cls-6{fill:#fdd000;}.cls-7{fill:#b8d200;}.cls-8{fill:url(#linear-gradient-3);}.cls-9{fill:#00b4ed;}</style><radialGradient id="radial-gradient" cx="28.904" cy="6.411" r="23.065" gradientUnits="userSpaceOnUse"><stop offset="0" stop-color="#0068b7"/><stop offset="0.934" stop-color="#03003f"/><stop offset="1" stop-color="#171c61"/></radialGradient><linearGradient id="linear-gradient" x1="38.423" y1="10.749" x2="43.867" y2="4.261" gradientUnits="userSpaceOnUse"><stop offset="0" stop-color="#006934"/><stop offset="0.122" stop-color="#067f44"/><stop offset="0.284" stop-color="#0c9453"/><stop offset="0.464" stop-color="#10a35f"/><stop offset="0.676" stop-color="#12ab65"/><stop offset="1" stop-color="#13ae67"/></linearGradient><linearGradient id="linear-gradient-2" x1="33.953" y1="6.821" x2="37.808" y2="0.145" gradientUnits="userSpaceOnUse"><stop offset="0" stop-color="#ea5514"/><stop offset="0.025" stop-color="#eb5d12"/><stop offset="0.111" stop-color="#ee730b"/><stop offset="0.212" stop-color="#f08406"/><stop offset="0.337" stop-color="#f28f03"/><stop offset="0.513" stop-color="#f39601"/><stop offset="1" stop-color="#f39800"/></linearGradient><linearGradient id="linear-gradient-3" x1="42.671" y1="14.745" x2="47.717" y2="10.511" gradientUnits="userSpaceOnUse"><stop offset="0" stop-color="#005bac"/><stop offset="0.087" stop-color="#0063b2"/><stop offset="0.296" stop-color="#0071bc"/><stop offset="0.554" stop-color="#007ac1"/><stop offset="1" stop-color="#007cc3"/></linearGradient></defs><title>资源 3</title><g id="图层_2" data-name="图层 2"><g id="图层_4" data-name="图层 4"><path class="cls-1" d="M4.774,35.924l-.011.033-.012.023-.037.032-.041.019-.051.03L4.6,36.1H4.569l-.014.027-.056.014-.012.027H4.46l-.027.041-.055.016-.029.039H4.321l-.013.027H4.281l-.014.027H4.239l-.026.043H4.184v.014H4.157v.014l-.04.013v.026H4.075l-.019.025-.022.016-.056.027-.038.055H3.909v.015l-.04.014-.012.029H3.828l-.014.026-.065.056-.045.024-.041.013v.03l-.046.021-.036.034-.037.033-.045.021-.017.033-.018.028-.046.048-.028.016v.039l-.03.092,0,.057,0,.058h.014l.014.071.052,0,.045-.014v-.012h.055v-.015h.027v-.014h.038V37.24l.111-.015v-.014h.031V37.2h.079v-.011h.056V37.17h.121v-.014h.01v.006l0,0,.008,0h.1l.009.018.016.009v.014H4.13v.041l-.039.029v.03l-.043.027v.01l-.043.013-.038.057-.058.012-.012.029H3.869v.014l-.081.027-.006.047-.013.035-.02.033-.031.022v.015l-.067.012v.016H3.607v.011H3.524v.016H3.39v.012H3.362l-.013.027H3.321l-.015.027-.051.014-.03.041H3.2l-.014.027-.047.047-.03.022-.032.016-.016.038-.024.03H3.019v.027l-.028.012-.013.056-.027.012-.011.043H2.923v.028H2.909v.041H2.9v.041H2.883V38.3H2.868v.055l-.011.14.011.162v.082H2.857l-.024.061-.013.027-.02.02H2.773v.013l-.041.028v.027H2.719v.043H2.7l-.01.055H2.677v.053H2.662v.029H2.649l-.012.082H2.622v.053L2.6,39.24v.03H2.581v.039H2.568v.039H2.554v.045H2.542v.041H2.526v.025H2.511l-.013.082H2.483v.029H2.471l-.013.08H2.443v.028H2.431v.043H2.417v.109H2.4v.15H2.388v.11H2.373v.137H2.362v.15H2.348l-.008.059V40.5l0,.066-.006.024-.011.019-.009.008-.019.006V40.6H2.265l-.009-.061-.017-.053H2.225v-.052H2.211v-.057H2.2v-.068H2.183V40.27H2.169l-.016-.205H2.142V40H2.13l0-.027.006-.024.01-.033H2.13l-.015-.082H2.1v-.152H2.086v-.121H2.075v-.164H2.059v-.112H2.048v-.22H2.032l.016-.081H2.032v-.521H2.021L2,38.436,1.991,38.4l-.051-.013v-.012l-.029-.006-.027.006-.061.017-.052.028-.027.021v.028l-.028.013L1.7,38.5l-.018.014-.031.013v.012H1.636v-.025L1.593,38.5l-.028-.023-.029-.026L1.5,38.432V38.4H1.47l-.026-.054L1.4,38.3l-.039-.063L1.349,38.2l-.01-.037v-.047l.009-.043H1.36v-.053h.014L1.392,38l.011-.031h.041v.027l.041.027v.014l.053.012.015.027.083.016V38.1l.355-.068.014-.023.016-.034,0-.011,0-.02,0-.056v-.7l-.067-.055v-.016H1.923V37.1H1.894V37.09h-.11V37.1H1.718v.012l-.082.028v.013H1.608v.014l-.023.018-.032.009v.028H1.527l-.022.027-.023.025-.024.024-.014.037H1.418v.023l-.026.01,0,0v0H1.307v.014l-.013,0-.01-.008-.012-.006-.021,0v.014l-.083.027-.027.041-.029.014L1.1,37.5l-.01.027-.014.03-.017.025.013.055h.014V37.8l0,.2-.037.158-.028.016-.039.012v.027l-.163.049-.085.023-.043,0-.041-.006v-.013H.593v-.014H.538l-.012-.027-.055-.014v-.027H.429l-.015-.034L.4,38.135l-.02-.012-.02-.02-.012-.056-.027-.012v-.041H.306v-.027H.29V37.94H.276L.25,37.855H.237V37.8l-.025-.016v-.041H.2v-.027H.181l-.014-.082H.155V37.6H.14v-.03H.129V37.5H.112v-.027H.1l-.015-.125H.073v-.055H.057v-.068H.044V37.1H.03v-.177l-.021-.1L0,36.768l.006-.049.021-.055.027-.047.025-.049L.1,36.512H.129l.009-.028.019-.025L.2,36.416H.212v-.025H.224l.024-.033.015-.038L.3,36.307l.023-.014.039.246H.372v.082H.389v.027H.4v.1H.416V36.8H.429v.068H.443V36.9H.456L.471,37H.483v.043H.5v.043H.511v.053H.526v.027H.538v.055l.1.086.178.027v-.016l.07-.011.033-.051.012-.027L.935,37.2l.022,0,.009,0,.008-.012.006-.02H1l.072-.084.049-.043L1.168,37v-.026l.04-.015.03-.023.03-.024.039-.02v-.027h.027v-.027H1.36l.032-.037.011-.02.015-.025h.026l.115-.121.131-.1.008-.027.006,0h.009l.02-.01.011-.025.04-.014V36.43h.028l.151-.125.179-.094.011-.068h.016v-.112h.014v-.146H2.2v-.194h.015V35.5l.009-.062,0-.071.009-.142h.014v-.1H2.225v-.1H2.211V35H2.2v-.041H2.183v-.025l-.03-.014-.011-.055-.083-.07v-.014H2.032l-.011-.193.029-.061.014-.035.011-.039H2.1l.041-.068h.027l.014-.043.042-.008.029-.018v-.013h.038V34.3l.143,0,.119.027.053.069h.015v.027l.027.014v.039l.024.045.019.052.018.006.012,0,0,.012.006.02.041.015.027.025v.014h.027l.014.028h.027V34.7l.219.027.031.038.014.017.011.028h.026l.014.095H3.2v.137h.015l0,.018,0,.007-.009,0v.151H3.183v.068H3.169v.478l.146-.031.129-.049.1-.015v-.014h.065v-.014h.044v-.013h.067v-.012h.057v-.015h.053v-.016h.041V35.58h.053v-.014h.045v-.011h.124v-.016l.287.016v.011h.027v.014l.134.028.016.027H4.6v.013l.068.014v.029l.038.022.043.017.014.032.015.025h.014l.006.033,0,.041-.009.039-.007.024M2.7,37.978v.03h.017l0-.02-.012-.01m.414-.667h.1l.013-.141H3.212L3.2,37.115h-.04v.016l-.017.021-.011.024-.013.064H3.1l.015.071m.617-1.387V35.91H3.651l-.127.045-.134.037v.026l-.041.005-.026.01-.043.028-.055.013v.014L3.2,36.1v.027l-.028.014v.041H3.157v.027H3.143l-.014.109H3.116V36.4H3.1v.162l.019.08.009.028.014.016v.015h.082l.01-.015.01-.006.035-.006v-.03h.041v-.011l.041-.016.028-.039.043-.014v-.029H3.46v-.027l.019,0,.01-.006,0-.012.006-.017h.025l.031-.057.052-.039v-.029l.03-.014.036-.053.012-.033,0-.037h.028l.012-.039.019-.029h.01v-.055h.016l.019-.057.008-.068-.03-.02-.015-.011-.024-.008"/><path class="cls-1" d="M10.715,37.268l-.026.259v.125l-.015.248-.007.416.022.364V39.1H10.7v.411h.015v.125l.005.175-.005.1,0,.035-.01.022-.008.011-.018,0v.029l-.138.082h-.068v.014h-.041v.011h-.069v.014h-.113v.015h-.094v.012H9.907v.014h-.22V40.16l-.063-.006H9.483l-.056-.006-.591-.04v-.014H8.77v-.016H8.726v-.012H8.673v-.015l-.053-.012v-.016l-.084-.011V40l-.081-.027v-.014H8.426v-.014H8.4v-.013H8.37v-.016H8.329V39.9H8.3l-.014-.029-.081-.025-.029-.039H8.137l-.027-.043H8.082l-.013-.028H8.044l-.016-.027H8v-.016L7.96,39.68v-.026l-.048-.025L7.876,39.6l-.033-.033L7.8,39.543v-.027l-.037-.03-.018-.015-.027-.008v-.027l-.027-.02L7.672,39.4l-.026-.046L7.6,39.324V39.3l-.052-.041V39.23l-.027-.015v-.027l-.03-.014v-.028l-.025-.013V39.1l-.028-.013v-.027l-.029-.016v-.026H7.4v-.029H7.384v-.039l-.041-.027-.012-.069L7.3,38.846V38.8H7.287v-.03H7.274l-.052-.242-.014-.023-.016-.02-.013-.021-.013-.035H7.125v.015l-.02.02-.006.021-.008.039v.045l-.01.053H7.069v.041H7.054v.055H7.042v.027H7.027L7,38.873H6.987V38.9H6.972v.055l-.027.014-.011.1H6.919v.04H6.9v.028H6.89v.041H6.877l-.013.082H6.849v.027H6.836l-.015.082H6.809v.028H6.8v.043H6.781v.039H6.767V39.5H6.754l-.015.07H6.728v.055H6.712v.027H6.7v.039H6.684v.028H6.671v.029H6.659v.027H6.646v.039l-.031.014-.04.078-.022.033-.034.028-.02.014L6.472,40l-.059.016-.025-.026-.026-.019-.027-.018-.02-.021V39.9l-.029-.013-.012-.041H6.261l-.015-.082H6.233v-.028H6.218v-.043H6.206L6.2,39.641l0-.055.011-.053,0-.043v-.015H6.206v-.012h.012v-.139h.015V39.1h.013l.015-.314h.013v-.125h.012v-.135H6.3v-.125h.015v-.123h.012v-.166l.035-.217.037-.22.014-.248h.012v-.108l.042-.267.04-.268.012-.26.048-.318.048-.315.008-.064.009-.057.052.012.016.071h.012v.107l.023.31-.023.309V36.8H6.7v.191H6.684v.137H6.671v.152l-.025.315v.082H6.632l-.017.136H6.6v.042H6.589V37.9H6.575l-.014.11H6.55v.107H6.533v.1H6.519v.123H6.507v.109H6.493l-.011.344H6.467v.219H6.45v.3l.069.013.039-.049.019-.029.012-.031h.026l0-.033.014-.02h.014v-.029h.013V39.1h.012v-.04h.013v-.03H6.7v-.041h.012v-.025h.016v-.055h.011v-.027h.015V38.83h.013v-.039h.014l.015-.1h.013v-.082h.012v-.095h.015l.013-.506.017-.166,0-.178.013-.574,0-.19.015-.166,0-.052-.006-.057-.011-.047v-.037H6.89v-.111H6.9v-.069h.016v-.054h.015v-.041h.011v-.053l.027-.016v-.041h.015v-.027H7V36.09h.014v-.027h.012v-.03l.027-.013v-.055h.015l.012-.037H7.11l.023-.067.033-.058.042-.028v-.031l.025-.011v-.028l.054-.041v-.027l.056-.039.014-.043h.027l.012-.034.021-.025.051-.051.025-.015V35.4h.03l.066-.078.041-.037.042-.019V35.24H7.7l.043-.054h.026l.055-.071h.03l.028-.041h.027l.024-.039H7.96l.027-.041h.027l.03-.043.053-.013.029-.04.081-.027.027-.043h.027l.014-.027h.04v-.016l.043-.012.012-.027h.041l.015-.027h.041l.015-.029h.04v-.012h.027v-.014h.028l.014-.027H8.63v-.016h.027v-.01l.124-.029v-.014l.055-.015v-.014l.1-.014v-.011l.1-.016v-.014h.041v-.013l.11-.014v-.012h.042v-.013l.178-.016V34.4h.083l.162-.015.18,0h.123V34.4l.081.012v.016h.028v.013H10.1v.012h.027v.014h.027l.013.027h.03l.041.055.051.033.018.017.013.034h.028v.027l.025.01.015.016H10.4v.029h.014l.014.041h.029l.012.041h.014v.027H10.5v.027l.027.016.014.055.029.012v.218l.026.016v.041l.027.014v.027l.043.027v.039h.013v.071h.015l.026.314v.235h.011v1.328h-.011m-2.741.453V37.68l-.084-.069V37.6l-.014-.006-.013,0-.011-.006-.015-.012-.031.024-.015.008-.024.009-.013.034-.013.035H7.714l-.006.033-.01.021H7.685v.028H7.672l0,.041.008.035L7.7,37.9l.124.012V37.9H7.89l.039-.039.03-.023.011-.018.011-.021.006-.078H7.974m-.055.631v.011H7.863v.016l-.134-.016-.015-.025H7.672l-.013-.025H7.6l-.1-.043-.049-.03-.013-.017L7.425,38.2l0-.031.008-.033.007-.026,0-.019-.056-.043V38.01L7.357,38v-.1l.011-.015.006-.014,0-.013.008-.014H7.4l.044-.055h.028l.025-.041h.03v-.027l.023-.008.018-.012.014-.01L7.6,37.68l.012-.028.014-.023.031-.047.013-.08h.013v-.055H7.672l-.013-.084L7.63,37.35v-.026H7.618L7.6,37.283l-.019,0-.01-.008-.005-.007,0-.024-.018-.019L7.534,37.2l-.017-.066-.009-.146.031-.045.017-.02.018-.02.021-.015.021,0,.045,0,.043,0h.019l.018-.008v-.016l.021-.023.012-.037.012-.1L7.767,36.5v-.123H7.754v-.031H7.741v-.026H7.729l-.015-.041-.055-.013v-.014l-.024,0-.033.012-.037.007H7.552l-.018-.007v-.014H7.523v-.068h.011v-.055l.084-.1h.028V36.02h.039v-.012l.054-.022.015-.015.013-.031.017-.034.012-.058.006-.063L7.8,35.733H7.782v-.028H7.767L7.754,35.6h-.04l-.012.031-.017.021H7.672v.028l-.026.015v.026l-.044.025v.043H7.591v.029l-.027.014v.041l-.041.025-.015.044H7.493v.04H7.479l-.011.053H7.451v.043H7.44v.041H7.425v.041H7.411v.057H7.4v.027H7.384l-.027.121-.026.016-.016.053-.041.027v.027l-.041.016-.011.027-.056.014v.014L7.11,36.6v.029l-.056.039v.045H7.042v.027H7.027v.039H7.015V36.8H7v.082H6.987v.068H6.972v.014l0,.008.006,0,0,0v.148H7v.109h.014V37.3h.012v.1h.015v.068h.012v.109h.015V37.6h.012v.082H7.1v.054H7.11l.015.151h.012v.043h.014V38h.015v.067h.013V38.1h.013v.1h.016l.014.082.031.076.014.039.007.049H7.3l.013.069h.016v.029l.026.012V38.6h.011v.027h.016v.041l.027.014.014.041H7.44l.011.052h.017v.03h.011v.027h.014v.029l.03.028v.027l.027.014v.027l.024.014v.025h.017l.027.041h.028l.013.03.022.007.021.006h.052l.015-.017.013-.012v-.026H7.8v-.109h.016v-.041h.01v-.057l.068-.052.017-.043h.024v-.028H7.96v-.027h.027l.02-.023.017-.018.045-.027.028-.041h.029l.024-.041h.028l.029-.041h.027l.015-.028h.026l.027-.041h.027l.014-.027H8.37v-.016l.056-.039v-.041l.029-.013v-.055l0-.031v-.02l-.019-.047-.043,0L8.362,38.1l-.06-.028-.037,0-.041,0-.074.006,0,.026-.006,0-.01.008-.022,0-.013.035-.017.018-.02.012-.016.019-.016.055L8,38.27V38.3l-.015.018-.02.013-.045.024m.807.421v-.009H8.77v-.016h.039v-.012l.108-.095.016-.059h.013v-.025h.016l.01-.049,0-.078,0-.075v-.027l-.01-.015-.014-.032-.015-.025-.008.006-.008.008-.019.015-.016.018-.031.035H8.825l-.027.041H8.77l-.015.027H8.726l-.026.041H8.673v.012l-.035.027-.047.016v.029l-.034.012-.035.014v.025l-.04.02-.031.023-.027.021-.038.02-.012.029-.014.02-.009.023-.008.035.1.018V38.8h.011l.008,0,.005-.006,0,0H8.6v-.018h.123M8.62,37.447l.027-.084h.01v-.025h.016l-.006-.148-.037-.127-.039-.012v.012l-.037.015-.032.02-.059.054-.062.053-.031.022-.041.013v.028l-.041.015-.013.028-.041.013-.014.026-.026.013v.043h.013v.026H8.22l.01.023,0,.031h.027v.041l.048.049.049.049v.014h.053l.029-.026.042-.015V37.57h.027v-.027h.027l.041-.057h.014v-.025l.029-.014m-.4-.754-.013.016-.007.01-.006.045.006,0,.007.009.017,0,.01-.006.046-.02.035-.023.014-.028.031-.009H8.4l.084.009.081.016H8.6L8.62,36.7l.006-.007,0-.038H8.62V36.6l-.029-.012v-.041H8.577l-.08-.1H8.455l-.033.047-.023.016-.029.01-.008.025-.013.022-.02.011-.027.01,0,.021-.006.01-.008,0-.023.006v.025l-.022.008-.009,0-.006.012,0,.021m-.11-.359-.041-.012-.029.049-.01.029,0,.043.03.02.024.023.019,0,.009-.009h.016l-.016-.141m-.028-.369.019,0,.009-.01.016-.011.011-.012-.027-.166-.023-.018-.031-.011-.012.207.021.011.017.014m2.427.18-.014-.3h-.013l-.014-.139h-.012v-.082H10.44V35.57h-.013V35.5h-.014v-.029H10.4l-.014-.1h-.011l-.016-.057h-.013v-.052h-.013V35.24h-.015l-.026-.084h-.015V35.1h-.012l-.019-.056h-.01v-.041l-.041-.028v-.027l-.03-.013,0-.018v-.01l0,0h0l-.027-.008v-.027l-.083-.056-.026-.042H9.988V34.76l-.081-.027v-.014H9.864v-.014H9.837V34.69H9.8v-.012H9.726l-.119-.022-.1.006-.2.057H9.25v.014H9.206v.013H9.152v.014h-.04v.013l-.054.012V34.8H9v.014H8.973v.013H8.917v.014l-.054.013v.016H8.825v.012H8.8V34.9H8.755v.012l-.055.016v.012H8.657v.013H8.63v.016H8.591v.011H8.563l-.014.028-.052.015-.015.026H8.44l-.014.027h-.04L8.37,35.1H8.343l-.014.026H8.3v.014l-.041.013v.03H8.22V35.2l-.044.037-.023.018-.027.014-.018.039-.026.029H8.069L8,35.5l.316.242.034.043.029.043.035.035.026.012.028.008.015-.006.029-.006.084-.006.148,0v.014l.066.011.008.022.008.014h.007l0,.008.015.109H8.836v.027l-.027.014v.027l-.054.041-.007.037,0,.065.011.119H8.77v.064h.011V36.5H8.8v.041h.011v.041h.016v.027h.011v.028l.027.011v.03l.029.013v.028l.054.043V36.8h.016v.052h.011v.085l.036.171L9,37.3v.1H8.987v.027H8.973v.041l-.027.016V37.5l-.054.041v.039H8.879l-.081.1H8.77v.029l-.035.01-.021.014-.041.029-.082.013v.014l-.024.024-.015.031-.008.041-.008.043.016.015.011.016.014.012.026.009.019.012.019.01.051.008h.117v-.03l.046,0,.045-.014.095-.045.074-.063.028-.031.015-.035H9.14l.006-.033.011-.028.022-.048v-.137h.015v-.057h.012v-.025h.015v-.055l.029-.013v-.03h.067l.041.1h.026l.015-.018.015-.011v-.026l.026-.013v-.069h.016l.011-.056.042-.014V37.24h.039v-.013l.037,0,.043,0,.059.013h.082v.014H9.8v.014l.137.029v.014l.08.027v.012h.026v.013l.024.02.032.01.01.052v.035l-.021.075-.044.027V37.6h-.026v.013l-.03.024-.038.017v.028l-.031,0-.023.011v.014H9.864l-.011.025-.055.014v.014l-.165.027V37.8l-.085.027v.014H9.523l-.028.041H9.467l-.04.056H9.414l-.077.2-.027.283.007.6-.04.012v.014l-.1.016v.013H9.112v.014H9.058V39.1H8.591v.014H8.467v.014h-.1v.013H8.261v.016H8.22v.012L8.1,39.2v.014H8.069v.015l-.022.016-.033.01L8,39.313l-.01.064L8,39.393l.006.005v.008l.007.016.03.014.025.039H8.1l.029.041H8.15l.016.027h.028l.013.029.054.012V39.6h.027v.013l.082.03v.013h.041v.014H8.44v.012h.042l.015.029h.039v.012h.027v.015H8.63v.014h.043v.014h.053v.013h.055v.012h.1v.018l.452-.018v-.012h.151v-.013h.166v-.008l.006-.006h.018l.006.008.008.006H9.7V39.75h.07v-.014h.124v-.015h.069v-.012h.066v-.016h.1V39.68h.04v-.012h.042v-.014h.058v-.013h.027v-.014h.041l.013-.029h.029v-.014l.025-.012.014-.2h0l-.008,0,0-.008v-.013l.014-.438.014-.494,0-.187.016-.17v-.438h.016V37.24h.012v-.328h.014v-.148H10.5v-.18h.014v-.125h.013l.006-.164-.019-.15m-.81.234V36.4H9.687v.071l0,0-.01.025-.044.037-.022.018-.031.011-.03.02-.034.012-.093-.006-.158-.037h-.04l-.015-.028H9.179v-.013L9.14,36.5v-.027l-.021-.01L9.1,36.453l-.032-.037-.018-.047-.009-.047H9.028l.03-.08h.011V36.2h.016v-.025H9.1l.015-.111h.014v-.03H9.14V35.98h.012v-.052h.015v-.057h.012l.01-.068.005-.032.012-.027v-.011H9.25l.057.07.039.035.038.02v.027l.034.011.027.022.05.047.014.029h.026l.013.026.068.068.057.086h.014l.012.08.019.053v.039l0,.033H9.7"/><path class="cls-1" d="M16.852,37.186l-.028.058L16.8,37.3h-.027v.027l-.034.016-.027.015-.049.036-.162.054-.016.03h-.027l-.082.095-.041.713h-.016v.11H16.3l-.014.22H16.26l-.008.034-.011.029-.033.047v.025h-.016v.043h-.011v.027h-.016v.053h-.014v.043h-.013l-.013.1h-.013v.084H16.1v.039h-.012v.07l-.082.34v.109h-.012v.028h-.015l-.014.1h-.012v.041h-.017v.11h-.01l-.014.125h-.015l.015.039h-.015V40.2h-.014v.2h-.016v.137H15.85v.022l.007.011.005.008V40.6H15.85l-.011.062-.006.008-.006.01-.033.013v.014l-.018-.006-.035-.008-.029-.619H15.7v-.051h-.012v-.1h-.013V39.57h-.012l.012-.082h-.012v-.767h0l-.008,0v-.006l0-.02.012-.052.006-.036,0-.035h-.016v-.08l0-.258-.018-.236.015-.179H15.63l-.025-.082h-.112v.027l-.034.017-.027.026-.025.023-.036.016v.029l-.038.016-.03.025-.031.024-.04.017v.025l-.137-.011-.05.023-.061.043-.051.047-.017.025-.013.024-.019.008-.012,0,0,.009-.007.022h-.028l-.018.041-.035.033-.043.027-.054.008-.013.01-.017,0-.037,0-.07-.016-.01-.031-.017-.022h-.015v-.056h-.015l0-.008.006-.012.007-.015v-.02l0-.015,0-.008-.008-.006.015-.19h.015v-.056h.011v-.067h.016v-.084h.014v-.027h.012v-.055h.015v-.041H14.6v-.054h.01l.045-.11h.026l.023-.051.035-.044.03-.045.024-.053h.026l.012-.041h.016v-.027h.012l.015-.018.025-.01.013-.029.017-.025h.011l.016-.053.026-.014v-.056H15v-.182l-.025-.162H14.96l-.016-.053h-.011V36.5l-.03-.012v-.043h-.011v-.025h-.014v-.041h-.015l-.012-.07h-.016v-.014h.016V36.2l.021-.051.012-.027.008-.033h.026l.024-.033.034-.035.038-.026.044-.016.011-.038h.013v-.028H15.1v-.1h.017l-.017-.221-.02-.016-.011-.019-.023-.047-.149-.139v-.137H14.9V35.2l.03-.013.035-.038.022-.011.04-.006v.014h.052v.013h.042v.014h.027v.014h.03l.011.029.02.008h.01l0,.006.006.025.033.01.025.017v.014l.029.01.03,0,.073,0,.126-.024.041-.123v-.068h.016v-.027l.025-.016.015-.055.028-.013.025-.039h.03l.013-.03h.053V34.9l.056-.012v-.028l.04-.019.022-.023.024-.024.038-.016v-.027l.043-.016v-.013h.025l.052-.027.025-.008.046-.008.01.01.017.006.008.021.008.012.006,0,.006,0V34.8h.013v.043h.015v.066l.028.016v.025h.012l.014.041h.11l.011.03.014.021.029.047v.027h.015l.029.2,0,.224H16.5l-.019.156,0,.174v.342l-.017.117,0,.067.006.064.055.162.029.016v.027h.013l.014.043.054.012v.027l.048.012.027.017.026.022.037.018v.04H16.8l.016.041h.012v.03l.028.012v.056h.014v.039h.012l0,.039-.006.047-.011.043-.011.024M15.7,35.978h-.012l-.013-.136h-.012l-.016-.082h-.028l-.012-.055h-.042l-.013.028-.014.023-.029.045v.027h-.014v.041H15.48v.043h-.014v.028h-.013v.025l-.029.013v.042h-.011v.027H15.4v.041l-.027.014v.041h-.014l-.008.029,0,.027h.012l.056.067h.011l.1.162.04.107.006.053-.006.049h-.015v.054h-.012v.055h-.013v.027h-.016l-.017.024-.01.031h-.027l-.02.039-.02.028-.025.031-.017.039h-.026L15.333,37l-.018.025H15.3v.04l-.029.013V37.1h-.015v.04h-.012v.043h-.015v.025l-.04.029v.028l-.068.054v.039l-.029.016V37.4h-.013v.026h-.013l-.014.039-.009.035.012.078.024.012.042,0,.008-.012.019,0,.012-.029.016-.018.013-.021.011-.03h.029l.031-.044.04-.036h.026l.028-.043h.206l.042-.056.015-.032.01-.048.015-.028,0-.031v-.08l0-.16h.016l.012-.4v-.177l.006-.059,0-.068V36.15l.01-.062H15.7v-.11m-1.466.8h-.026l-.027.042-.039.013v.027l-.037.016-.022.018-.02.019-.034.018,0,.021,0,.006-.012.006-.02.006v.029h-.029l-.027.08h-.014l-.025.166h-.016v.028h-.014l.014.08.035.011.047,0,.029-.023.04-.016V37.3h.029l.011-.041.057-.043v-.025h.016v-.055h.009V37.1h.015l.015-.019.027-.01.012-.006.014,0h.031l.066.011.014.057h.014v.015l0,.016-.011.008.014.027-.022.047-.02.051h-.028l-.027.043h-.013v.023l-.027.016V37.4l-.03.014v.025l-.026.018v.023l-.024.016v.041h-.016l-.016.041-.027.016-.014.052-.04.03v.027L14,37.721v.023h-.013l-.015.059h-.014v.039h-.013v.07h-.014v.082h-.014l0,.033.011.03.022.046v.069h.013v.041h.014l.015.123H14l.027.164h.015v.055h.014v.056h.011v.1h.014v.066H14.1l.025.188-.014.2-.081.069-.141-.008-.053-.01-.044-.016-.038-.023-.034-.031-.058-.09h-.015v-.028H13.63V38.98h-.016v-.068H13.6v-.057h-.012v-.134h-.018v-.043h-.011V38.65h-.014l-.013-.095-.026-.012v-.055l-.027-.013-.032-.053-.022-.018-.03-.013v-.014l-.1.014v.027l-.041.014v.015l-.083.028-.027.041-.048.025-.061.014v.027L13,38.6l-.044.013-.026.219h-.042l-.03.014v.011h-.027l-.013.028h-.043V38.9l-.027.024-.04.019v.024l-.046.015-.039.02-.042.014-.064.007L12.491,39l-.027-.02-.027-.035-.026-.033-.029-.369v-.3l-.027-.2.03-.021.038-.008.026.019.021.01h.021v-.016h.056l.015-.027h.04l.015-.027.038-.014V37.94l.026-.02.03-.008.017-.041.023-.029h.017v-.027l.053-.04v-.031l.084-.064v-.03l.067-.052v-.03h.012L13,37.541h.026V37.8h-.012v.285l.063.023.089.006V38.1l.094-.015v-.014l.07-.013v-.012l.039-.012v-.029h.03l.056-.08.031-.039.024-.047v-.219h-.016v-.2h-.011v-.057h-.017V37.3h-.013l-.043-.109-.189-.016-.164.016H12.63l-.01.007-.013,0h-.02v-.011h-.205l-.01.015-.01,0h-.007l-.014.008-.054.07h-.014l0,.018,0,.016,0,.013-.014.02v.013l-.019.01H12.2l-.061,0-.114-.019.028-.2v-.217h.012V36.9l.031-.013.038-.043.014-.024.014-.029h.027v-.014l.022-.027.02-.027h.015v-.028h.026l.022-.046.035-.037.029-.036.023-.047h.029l.017-.037.021-.029.025-.031.017-.037h.029l.01-.033.023-.02.014-.012.02-.019v-.028H12.6l.042-.052.025-.016v-.025l.042-.03v-.027l.083-.068v-.03l.027-.011v-.014l.026-.014v-.027l.086-.069v-.027l.051-.041L13,35.787l.026-.014.031-.04h.011v-.028h.012l.016-.023.014-.034h.027l.011-.025.014-.021.035-.041.037-.041.017-.022.009-.025h.027l.012-.033.017-.024h.014v-.029h.013l.04-.053.027-.014v-.027l.021-.02.02-.013.015-.016.017-.031h.027l.014-.057.025-.054h.014v-.084h.011l-.011-.135h.011v-.07h.018v-.055l.023-.012.018-.037.012-.031.016-.026.036-.017v-.027l.036,0,.021-.009V34.58l.078-.008.05,0,.036.006v.014l.055.014.015.027h.028v.011l.041.016v.028l.036.031.02.013.028.012v.027h.024V34.8l.026.021.018.024.02.023.032.016v.025l.03.016.022.014.01.025.007.041-.055.043-.024.023-.03.018-.112.014v.013l-.052.014v.014h-.029l-.012.027h-.028l-.029.043h-.027l-.014.023-.048.051-.029.02-.031.013-.013.03-.014.021-.015.018-.014.027-.026.164h-.015l-.082.1H13.6l-.221.22-.069.067L13.28,36l-.021.043h-.027l-.025.043-.031.039-.027.014v.029l-.029.014-.011.041-.069.052v.028l-.027.015L13,36.363h-.015l-.012.024-.013.031h-.026l-.026.045-.031.041-.031.041-.024.049h-.027l-.018.041-.025.031-.02.037-.02.043h-.028l-.015.039-.024.03,0,.019.006.008v.013h.631v-.013l.1-.014.058-.029.069-.026v-.027h.039l0-.019,0-.012.01-.006.025,0V36.68h.023l.016-.043h.014v-.026l.027-.017v-.026l.025-.015.016-.135.023-.051.018-.06h.027v-.028l.145,0,.066.022.051.035.024.045.013.023.018.016h.109l.121.018.064.015.02.01.016.012V36.5l.012.018,0,.017,0,.041-.019.09-.063.018-.049.027-.083.064"/><path class="cls-1" d="M22,39.072l-.025.041h-.043v.026l-.064.013-.063.026-.119.047h-.082v.011h-.057v.014h-.093v.016h-.1v.011l-.183.006-.092,0-.037.006-.029.016v.011L21,39.346l0,.029,0,.031-.006.035h-.015v.069H20.96v.068h-.015v.068h-.014v.028h-.012l-.027.123h-.013v.029h-.017v.055l-.025.014v.041l-.026.013v.041h-.017l-.039.11h-.026l-.011.037-.01.017-.012.018-.01.039h-.029l-.008.025-.011.016-.01.016-.01.025H20.59l-.017.041-.174.082h-.056v.012h-.069v.015h-.092v.014l-.158,0-.148-.018-.246-.015v-.012h-.1V40.4H19.4l-.2-.041v-.025l-.042-.014-.042-.054h-.028v-.028h-.027v-.027L19,40.166l-.023-.033-.016-.033.275.027h.18v.014h.135v.013h.082v.014l.16,0,.143-.018.249-.027v-.014l.106-.013.016-.028.08-.013v-.014l.056-.012v-.015h.025l.015-.028h.029l.013-.027h.026L20.6,39.9h.015l.046-.161.009-.2h-.016l-.011-.139-.006,0-.007,0-.006-.012-.009-.02-.138.012v.014H20.4V39.4h-.1v.014h-.072v.016h-.05v.011l-.331.028v.014H19.81V39.5l-.18.014-.466.055-.4.013-.092,0-.041,0-.018-.006-.013-.007-.035-.01-.02-.02-.02-.021-.013-.026-.009-.156.015-.016.009-.017,0-.049h.03l.009-.043.018-.027.017-.026.01-.041h.028v-.027l.031-.01.024-.017v-.012l.026-.012.027,0,.068,0,.03.043h.012v.041l.03.014,0,.019,0,.02v.016l.011.013h.028l.014.03h.574l.024-.016.032-.006.072,0L19.8,39.2v-.013h.1v-.014H20v-.014l.123-.015v-.012h.026v-.014h.057V39.1h.041v-.014h.04v-.014h.055v-.013H20.4v-.012h.028v-.018h.025V39.02h.028V39h.055l.013-.029.021-.008h.01l0-.006.007-.027.007-.008,0-.014v-.037l-.022-.092-.031-.092-.015-.029-.011-.016H20.44v.03l-.092.023-.054.012-.021,0-.025-.006-.016-.027h-.025l-.007-.127.007-.061.014-.06v-.069h.011V38.3l.031-.012v-.055h.011v-.027h.014v-.068l.027-.014V38.07h.016v-.027h.012l.014-.068h.014v-.028l.028-.013.014-.028.01-.033,0-.076-.02-.014-.008-.015,0-.012-.012-.014h-.027v-.014l-.083-.027v-.015h-.053v-.012h-.039v-.012l-.265-.029v.013h-.066v-.013h-.018l-.01.006v.007h-.085v.016l-.055.012v.012h-.024l-.013.027H19.6v.015h-.026v.014l-.138.014-.009-.01-.017,0L19.4,37.7h-.014v-.039H19.37l.013-.125.03-.014v-.04l.04-.03v-.025l.054-.041.014-.028h.027l.029-.041H19.6l.027-.041h.029l.012-.027H19.7l.012-.029h.026v-.012h.03v-.016h.042V37.18h.041v-.014h.025l.017-.027h.051v-.014h.028v-.014h.055V37.1h.056v-.014h.138l.15-.018.164,0v.014h.122V37.1l.072.013.012.043h.014v.026l.029.013v.043l.027.014.011.1h.015l.007.041v.051l-.015.113-.045.177h-.015l-.04.125H20.7l-.017.043-.025.04-.024.039-.018.041,0,.2.037.162h.016l.031.037.014.018.011.027.026.01,0,0v.011l.01.018.025.016v.025l.043.029v.042l.025.009v.029h.017v.03h.013l.053.3.042.015L21,39l.02,0,.045.006.1,0,.019-.018,0-.006h0l.013,0,.019-.008v-.014l.041-.037.024-.02.03-.009v-.028l.081-.033.042-.014.051-.009v.015h.045v.014l.069.055v.027h.165l.056-.024.039-.009.04.006v.013h.028v.014h.043v.012l.041.013v.014l.025.014v.084L22,39.072m-.138-4.236H21.8v.016h-.054v.011h-.082l-.014.028-.069.015v.012h-.03l-.012.029h-.028l-.026.039h-.027l-.015.028h-.027v.015l-.024.016-.031.012v.027h-.027l-.029.035-.035.029-.074.059-.027.041H21.14v.027h-.03l-.019.024-.022.016-.052.029v.011l-.045.03,0,.008,0,.005v0l-.012.01.027.084.05.012.042.025.037.026.05.019V35.6h.027v.014l.081.071v.025h.03v.014l.027.015v.028l.053.041v.042l.041.026v.039l.03.014v.029h.011v.029h.016l.009.08h.017l.028.082h.012v.069h.016v.041h.014v.107h.013v.139h.014l-.014.22h-.013v.026h-.014V36.8h-.016v.039l-.025.016v.027l-.032.016v.025l-.036.027v.028l-.1.082-.013.027-.056.014v.013h-.04v.014l-.062.008-.058-.008-.1-.027-.012-.041-.011-.016,0-.018,0-.046.023-.082h.027v-.03l.11-.013v.013h.108v-.029l.03-.012.008-.043-.006-.045-.017-.078v-.137l-.009-.14-.013-.065-.018-.054-.109-.153-.057-.039v-.041l-.027-.013V35.99l-.039-.029v-.029l-.03-.014-.042-.055h-.026l-.027-.039h-.055v-.013h-.026V35.8h-.056v-.014h-.1l-.286.08v.016l-.056.012v.015h-.027v.012l-.067.014-.014.029-.069.014L20.124,36l-.067.014-.015.027h-.029l-.027.041-.053.014-.016.029h-.024v.01l-.042.015v.03l-.032.009-.022.014-.025.016-.034.013v.028l-.03.013-.025.02-.017.021-.036.016-.006.026-.017.021-.018.012-.027.009-.014.032-.02.027-.047.049-.028.013v.03l-.04.029-.016.051h-.014l-.026.178h-.012v.027H19.33v.07h-.015l-.027.151h-.014V37.1h-.012v.041h-.015v.054h-.014v.057H19.22l-.031.1-.014.018-.018.018-.02.015-.028.008-.01.031-.018.026h-.013l-.026.082h-.016v.068h-.011v.043H19v.08h-.016v.043l-.038.026-.037.042-.036.036-.052.025-.07.006v-.012h-.04v-.015H18.7l-.013-.04-.028-.013v-.029h-.014l-.014-.083h-.014l-.013-.191h-.014V37.51h-.014l-.013-.123h-.014v-.178h.014v-.016h-.014v-.054h-.016v-.082h-.011v-.041h-.015v-.1h-.012v-.111h-.015v-.217h.015v-.027l.038-.03.024-.014.025-.009.063,0V36.48h.029l.045-.144.045-.061.047-.041.012-.013.019,0,.038-.008.079.012.016.041.027.013V36.3l.023.033.03.027.041.016.056.008.024-.032.01-.015.008-.024h.027l.025-.043.043-.052.051-.045.044-.024v-.025h.03l.02-.031.028-.018.06-.035L19.548,36h.029l.026-.041h.043l.013-.029h.024l.029-.041.056-.012.012-.026.056-.015.015-.027h.025l.017-.028h.024l.016-.027.053-.014L20,35.713h.026l.03-.041.053-.014.014-.027h.026l.032-.041h.025l.014-.027h.027l.015-.026h.025v-.016l.025-.013.03-.012.014-.043H20.4v-.027h.028l.023-.028.024-.017.061-.037.028-.043.075-.059.048-.029.043-.02v-.027h.026l.039-.055h.028l.04-.054h.03l.027-.043h.026l.042-.053h.03l.082-.1.041-.027v-.027l.053-.039v-.03l.029-.013.027-.082.025-.014V34.59l.03-.014.013-.07h.014v-.135h-.014V34.34l.01-.039.008-.039,0-.043h-.014v-.028l-.028-.011-.026-.035-.03-.036.016-.041.274.014v-.014h.025v-.015l.033,0,.028,0,.052.015.012.041.025.012v.031h.016v.039l.041.016.015.027.055.039.029.04.024.045.027.013V34.4l.043.028.016.031.012.037.011.084-.011.174-.113.084m-.876-.478H20.96l-.068.082h-.03v.013l-.02.016-.031.011v.026h-.042l-.01.027v.006h-.016l-.014.01-.016.027h-.027l-.013.027-.055.042-.045.054h-.01v.028l-.054.043V34.8l-.057.039v.027l-.053.043-.015.041-.027.014v.025l-.053.043-.028.041-.013.016-.031.01v-.051L20.221,35h-.014v-.039l-.057-.043-.029-.049L20.1,34.85l-.032-.014v-.027l-.119-.092-.076-.141v-.164l-.014-.041h.014v-.109h.017l.012-.082.028-.02.039-.008.1.067.084.113.028.027.028.018.034.016.043.005.027.006.054,0,.056,0,.04-.006v-.015h.044v-.012h.039v-.013h.042v-.016h.028v-.014l.084-.012V34.3h.027v-.012h.04l.015-.027h.027v-.014l.028-.025.04-.016V34.18l.033-.008.027-.012.048-.023.123.015.017.024.013.031L21,34.328l-.014.03m-1.754.986v.027H19.22L19.2,35.4l-.009.031h-.029v.027l-.03.01-.025.017V35.5l-.067.012v.013l-.18-.013V35.5H18.81l-.016-.027h-.042l-.013-.029-.04-.014v-.014l-.024-.016-.031-.011v-.03l-.028-.007-.017-.014-.012-.018-.012-.029h-.013v-.054h-.014V35.18h-.016v-.123l-.024-.205,0-.233v-.166h.015V34.4h.011v-.179h.016v-.067h.014l0-.049.009-.05.015.006.013.009.024.03.017.039.031.011,0,0v.016l.007.023H18.7l.017.024.01.033h.026v.025h.015l.012.043.056.042v.025l.057.043.028.051.02.017.034.012v.029l.068.055.012.041h.027l.018.039.025.023.024.024.016.035h.029l.009.033.018.024h.013l.014.054h.015l.026.084H19.3v.082h.011l-.009.164-.044.137-.029.014"/><path class="cls-1" d="M29.13,39.477l0,.054-.013.043-.04.014-.006.021,0,.01-.01,0-.022,0v.029l-.041,0-.027.012v.014h-.029V39.7l-.233.014V39.7h-.038l-.015-.027h-.056v-.014h-.039v-.015h-.069v-.014l-.359.014v.015h-.08v.014h-.041v.014h-.026V39.7h-.044v.014l-.079.035-.047.018-.025.015v.03l-.039.006-.028.019v.014l-.054.013v.014h-.044v.014l-.206.027L27.4,39.9l-.013-.011v-.041l-.026-.014v-.025h-.013v-.045h-.013v-.026h-.015V39.7H27.3l-.014-.056h-.011v-.053h-.014l-.012-.057h-.018l-.013-.093h-.013V39.41H27.2l-.029-.125h-.012v-.027H27.14v-.139l-.012-.025h.012v-.108h.015V38.93h.012v-.067l.031-.072.017-.039.007-.041h.031l.026-.139V38.3l-.07-.014V38.3H27.2v.07h-.014V38.4h-.015v.04l-.027.013-.012.041h-.015l-.026.082-.026.014-.015.043-.021.017-.014.01L27,38.67l-.013.041h-.024l-.016.041-.027.012-.031.045-.024.054H26.84l-.015.033-.014.034h-.029l-.008.027-.019.014v.015h-.023V39l-.045.014v.027h-.038v.029l-.052.014-.048.026-.025.04h-.04l-.016.03h-.026v.012H26.4l-.015.027-.056.013-.011.028h-.056l-.012.027-.123.028-.008-.006-.007-.008.026-.356.068-.343h.028l.01-.028.018-.023.042-.043.038-.041.02-.027.009-.028H26.4l.019-.057.037-.04.027-.014v-.041l.026-.014v-.113l-.019-.014-.009-.014-.01-.011-.03-.014v-.025H26.4l0-.032L26.386,38h-.014v-.027h-.013v-.028h-.012v-.07H26.33v-.039h-.011l.011-.2h.017v-.026h.012l.013-.08.029-.017V37.49l.041-.027.024-.043.016-.014.028-.011v-.028h.028l.029-.039.016-.017.01-.028h.026l.015-.066h.015V37.1l-.017-.011-.006-.006V37.08l-.007-.014-.026-.013v-.016l-.044-.014L26.538,37l-.07-.013-.011-.026h-.044v-.016l-.035-.015-.025-.01-.01-.01-.006-.011-.007-.049.1-.069h.028l.052.008.07.02h.137v.013l.139.006.121-.019h.1v-.012h.084l.012-.027H27.2l.013-.03h.026l.044-.054H27.3l.015-.03h.028v-.011l.039-.016V36.6l.053-.016.044-.027.028-.039h.026l.027-.043h.03l.011-.028h.029l.029-.043h.027l.027-.039h.028l.013-.027h.026l.028-.041h.027l.027-.039h.028l.013-.028h.028l.014-.027.04-.015v-.012l.024-.018.033-.012.014-.041h.012v-.027h.015V36h-.015v-.1H28.06v-.041h-.014V35.8l-.029-.012v-.043h-.012v-.023h-.016V35.7h-.01l-.013-.023,0-.033h-.029v-.026l-.032-.021-.047-.006-.021.016-.014,0h-.015l-.022.008-.011.026-.056.017-.062.039-.03.018-.046.012v.023l-.037.01-.023.013-.049.032h-.028l-.013.029H27.4l-.016.027-.052.014-.015.027H27.29l-.011.028h-.026l-.031.039h-.04l-.027.043h-.027l-.031.039h-.026l-.01.029h-.03l-.026.039-.057.016v.013l-.027.026-.041.016v.029l-.031.011-.024.014-.024.016-.029.012V36.3l-.04.019-.024.02-.023.027-.036.016V36.4h-.03l-.022.032-.03.023-.057.045-.1.109-.041.028v.027l-.083.068v.03l-.038.027-.018.039,0,.041v.047l0,.047h-.017v.1H26.2V37.1h-.014v.041h-.016l-.016.026-.01.029-.037.018-.03.025v.014h-.055l-.062.012-.054,0-.1-.038-.015-.04-.042-.026v-.041l-.025-.016v-.039H25.7v-.029h-.012l-.014-.08h-.016l-.011-.191h-.015l-.007-.158.022-.145h.011V36.4h.016v-.043h.014l.012-.094h.015V36.23h.011l.014-.084.028-.013v-.055h.014l.015-.055h.012l.017-.056.024-.012v-.041l.03-.014v-.041h.012l.016-.056h.009l.017-.055.027-.014V35.7l.027-.013.028-.082.026-.014.022-.043.014-.035.01-.02.014-.011.023-.008.027-.008.012.041h.016v.043l.043.025v.03l.027.013v.026h.012V35.7h.013v.192l-.041.027v.053l-.028.017-.015.049-.007.063,0,.134.07.04v-.012h.012V36.23l.042-.027v-.015h.025l.017-.028h.012l.027-.043h.027l.029-.039h.026l.016-.029h.026l.028-.039L26.579,36l.014-.029.056-.012.012-.027.045-.028.049-.013v-.028l.035-.007.027-.014.049-.035h.028l.013-.028h.027l.014-.027.057-.014.012-.027h.044V35.7h.026l.01-.027h.031l.012-.029.082-.026.031-.043h.026v-.011H27.3v-.014l.025-.012.031,0V35.5l.059-.016.051-.025v-.014l.054-.011V35.42h.04V35.4l.055-.011v-.012h.056v-.014h.054l.016-.027h.08v-.016l.235-.013v.013h.093l.05.018.062.008.017.023.014.008.012.012.012.027h.029l.012.082h.013v.137h.013l-.013.41h-.013l-.008.047v.047l0,.039-.008.017-.011.018v.025H28.32l-.083.1h-.029l-.027.041h-.014l-.014.025h-.027l-.012.032-.042.011v.016l-.024.015-.031.01v.03l-.053.023-.041.035-.044.032-.023.013-.031,0v.027l-.058.028-.048.035-.054.037-.06.025v.028l-.038.01-.03.017v.014l-.054.013-.008.057-.015.047-.031.09-.043.013-.006.02,0,.01-.01.006-.02,0-.028.02-.021,0h-.025l-.038.008v.011h-.068v.016h-.039v.012h-.041v.014h-.026V37.2h-.044v.016h-.029v.011h-.024l-.016.03h-.041l-.013.025-.083.03-.012.027h-.027l-.017.027h-.023l-.016.028-.046.025-.051.016v.027l-.02.006-.009,0-.007.01,0,.021h-.03l-.011.035-.014.02-.009.029,0,.051.055.045V37.7l.015.006.013,0,.012,0,.014.014h.153v-.014L26.8,37.7h.039V37.67l.033-.008.022-.01.022-.013.031-.012V37.6l.035-.016.022-.018.019-.019.037-.014V37.5l.161-.057.164-.052v-.028l.037-.008.029-.011.046-.035.013-.03h.026v-.012l.032-.025.036-.018V37.2l.179-.013.028.037.009.025,0,.033h.031l.012.043.018.041,0,.022v.019l-.006.02-.017.021v.028h-.01l-.083.1h-.028l-.028.041h-.042l-.012.026h-.029v.015h-.04l-.046.03-.037.039H27.5v.056h-.015v.028H27.47v.121l0,.008h-.009v.007h.014v.041L27.5,38v.055h.013v.025h.013l.028.123.025.059.006.039,0,.043h-.015l-.04.189h-.013v.041H27.5v.139h-.015v.107H27.47v.168l-.014.244h.014v.055l.023.024.018.023.021.02.032.015V39.4l.126.015V39.4l.055-.014v-.014h.067v-.014h.027v-.011l.314-.016v-.013h.112l.053-.028.056-.027.006-.033.013-.026.021-.051-.011-.33.03-.029.023-.033.029-.029.021-.01.031-.006.023.016.033.009.014.043h.013v.026l.029.013v.028h.015v.027h.01v.043h.016v.027H28.7v.069h.016l.006.053v.05l0,.045,0,.022.014.021.029.014.023.041h.1v.013h.055v.014l.08.028.03.04.026.014V39.4H29.1l.007.029.008.014.014.011-.017.016v.012h.017m-1.811-4.565H27.29l-.011.029h-.044l-.026.042h-.042V35H27.14v.012l-.152.015v.012h-.024v.016l-.043.014v.027h-.027l-.01.037-.018.031-.026.068H26.7l-.022-.025-.02-.017-.025-.02-.015-.033h-.012l.012-.15h.015v-.042h.015V34.9h.012v-.025h.014v-.015l0-.006-.007-.006,0,0v-.11h-.012v-.027h-.015l-.012-.023,0-.032-.026-.009-.02-.014-.035-.031v-.014h-.07l0-.006-.024-.01v-.027H26.4l0-.029-.012-.024h-.014v-.027h-.013v-.1l.04-.029.021-.008.037,0,.025-.008h.091l.034.008.012.028h.03v.013h.026v.012l.3.043V34.4h.111v.016h.041l.027.041.054.014.013.027.037.023.045.016.012.033.018.024h.013l.013.054h.015l.011.192-.021.017-.016.018-.03.033m-2.03,2.276h-.013v.04l-.025.016v.039h-.016l-.023.032-.018.038-.027.008-.014.01-.017.012-.024.012v.025l-.053.021-.042.028-.047.023-.064.012v-.027l-.022-.006-.006,0-.008-.012-.005-.019-.02-.006-.012,0,0-.012,0-.019-.035-.012-.033-.016V37.34l-.031-.014-.026-.013-.022-.016-.031-.014v-.025l-.04-.016-.043-.023-.069-.057-.015-.027-.014-.008-.013,0-.013,0-.015-.016-.018,0-.008.012h-.013v.1l.023.041.016.055.031.011.02.016.033.039.041.016.014.041.043.027V37.5h.011v.109h-.011v.221h.011v.039l.029.014v.041l.027.015.041.123v.1h.015v.094h.01v.125h.017l-.017.107h.017v.233H24.74v.029h-.01l-.03.121h-.013V38.9h-.013l-.017.084h-.01v.053h-.015v.029h-.014v.08h-.011v.03h-.015v.08l-.028.013v.082H24.55V39.4h-.014v.082h-.012v.043h-.015l-.008.045v.046l.008.086h.027l.006.174-.018.154h-.015l-.029.084h-.012v.026l-.043.027v.016h-.051l-.016.008-.018.005-.046.008-.112-.011L24,40.148l-.024-.039-.027-.031-.027-.035L23.9,40h-.025l-.013-.045-.022-.029-.028-.033-.019-.043h-.027v-.039h-.028l-.013-.034-.012-.023-.016-.025-.015-.03h-.026V39.67l-.024-.02-.015-.023-.029-.053-.041-.027V39.52l-.042-.028v-.027l-.028-.016v-.027h-.012l-.017-.024-.011-.031h-.027L23.4,39.3h-.013v-.26H23.4v-.027h.014v-.055h.014l.013-.068h.013v-.026h.015v-.045h.012v-.025h.013v-.221h.015V38.49h.016v-.121h.011v-.056h.015v-.1h.012v-.053h.015V38.1h.014v-.08H23.6v-.082h.014V37.9h.014v-.068h.012v-.055h.015v-.056h.012V37.67h.014l.015-.137h.016V37.49h.012v-.041h.013v-.07h.014l.014-.108h.013v-.043H23.8l.014-.093h.012v-.069l.028-.013v-.03h.015l.013-.04.031-.01.024-.016v-.016h.027v-.013h.057v-.012h.054V36.9l.354.016v.012h.028v.013l.023.012.033,0v.026l.206.013.015-.039,0-.014,0-.019.01-.055v-.06l-.009-.043h0l0,0,0-.01v-.018h.01l-.025-.164H24.7l-.013-.054h-.013v-.043l-.027-.012V36.4l-.029-.009v-.03h-.011v-.027h-.015V36.3h-.017V36.27h-.011v-.028l-.028-.012v-.042h-.012V36.16h-.015v-.027l-.029-.016v-.039h-.012v-.029h-.015v-.026H24.44L24.429,36l0-.035H24.4v-.026l-.031-.023-.013-.01-.023-.008-.013-.009-.016,0h-.029l-.066.013-.007.02,0,.012-.01,0-.019.005v.014h-.057v.012l-.02.006-.022,0-.046-.012-.077-.031V35.9h-.025v-.027l-.037-.031-.027-.037-.029-.034-.022-.011-.024-.012-.013-.066h-.014l.014-.18-.014-.082h.014v-.053h.013l.018-.025.01-.031.068-.012v-.014h.082V35.27h.068v.015h.11l.076.033.048.012h.026l.031-.006.217-.1V35.2l.2.051.082.051.03.031.02.033v.2l-.016.026-.007.027-.009.025-.008.034h-.013v.025H24.8l-.013.068h-.016l0,.043,0,.063.016.086H24.8V36h.016l.027.082.026.012v.043l.041.027.017.057.038.025.013.043h.015l.039.043.016.022.012.029h.027V36.4h.029v.032l.037.029.018.013.027.01.012.033.013.024.016.018.016.023.025.135h.013l.015.384h-.015v.083"/><path class="cls-2" d="M30.891,37.516a8.528,8.528,0,0,0,.988-2.373l.35.109a11.974,11.974,0,0,1-.428,1.223V40h-.329V37.193a6.287,6.287,0,0,1-.434.725C30.991,37.783,30.94,37.648,30.891,37.516Zm1.293-1.707h1.462c-.09-.17-.184-.336-.283-.5l.3-.172c.11.176.213.363.319.56l-.194.114h1.545v.343H32.184Zm.245.8h2.639v.334H32.429Zm0,.791h2.639v.336H32.429Zm.05.8h2.544V40h-.344v-.3H32.824V40h-.345Zm2.2.338H32.824v.836h1.855Z"/><path class="cls-2" d="M36.65,38.447l.327.123c-.133.391-.271.752-.413,1.076-.094-.044-.206-.091-.332-.142A6.943,6.943,0,0,0,36.65,38.447Zm.2-2.826h1.092c.062-.176.117-.346.158-.508l.351.1c-.05.138-.1.275-.154.4h1.782v2.688h-.343v-.153H37.191v.153h-.344Zm2.886.336H37.191v.406h2.542Zm-2.542,1.135h2.542V36.68H37.191Zm0,.728h2.542v-.412H37.191Zm.124.676h.34v.723a.268.268,0,0,0,.3.306h.993c.238,0,.375-.089.415-.271a4.23,4.23,0,0,0,.089-.537c.111.051.228.1.352.146a5.108,5.108,0,0,1-.111.543.59.59,0,0,1-.666.469H37.9c-.386,0-.582-.2-.582-.611Zm.782-.055.246-.226c.178.185.38.4.6.66l-.273.256C38.446,38.846,38.257,38.617,38.1,38.441Zm1.762.164.258-.222c.211.254.429.529.65.832l-.287.24C40.278,39.154,40.069,38.869,39.859,38.6Z"/><path class="cls-2" d="M41.683,39.254h1.959V35.971H41.937v-.395H45.75v.395H44.038v3.283H46v.385H41.683Z"/><path class="cls-2" d="M46.946,38.617a5.635,5.635,0,0,0,.679-1.683H47v-.323h.7V35.84c-.189.031-.381.056-.576.082a3.22,3.22,0,0,0-.1-.34,9.932,9.932,0,0,0,1.535-.266l.1.344c-.209.045-.422.09-.638.129v.822h.623v.323h-.623v.652l.174-.168q.177.2.523.645l-.27.24c-.172-.244-.314-.438-.427-.588v2.277H47.7V37.635a5.428,5.428,0,0,1-.6,1.414C47.05,38.9,47,38.764,46.946,38.617Zm1.58.779h1.279v-.728H48.79v-.33h1.015V37.67H48.681v-.33H51.29v.33H50.163v.668h1.016v.33H50.163V39.4h1.279v.329H48.526Zm.357-4.025H51.1v1.686h-.342v-.2H49.224v.2h-.341Zm1.879.334H49.224v.816h1.538Z"/><path class="cls-2" d="M52.442,35.459H54.08V35.8h-.649a8.205,8.205,0,0,1-.289,1.117H53.9v2.31h-.842v.409h-.315V37.853a3.635,3.635,0,0,1-.191.333,1.806,1.806,0,0,0-.217-.3A5.858,5.858,0,0,0,53.1,35.8h-.655Zm1.141,3.432V37.26h-.529v1.631Zm.486-1.621h.541c0-.077,0-.567,0-1.467h-.362V35.44h2.366V35.8h-.451V37.27h.612v.365h-.612v2.33H55.82v-2.33h-.876A3.366,3.366,0,0,1,54.084,40a3.32,3.32,0,0,0-.3-.285,2.913,2.913,0,0,0,.807-2.082h-.526Zm.885,0h.866V35.8h-.864C54.956,36.652,54.956,37.143,54.954,37.27Z"/><path class="cls-2" d="M60.939,37.713v1.406c0,.219.078.326.235.326H61.5c.146,0,.226-.08.243-.24s.038-.381.053-.66a2.461,2.461,0,0,0,.352.146c-.015.176-.036.387-.069.631-.036.328-.2.493-.484.493h-.514c-.334,0-.5-.221-.5-.659V38.068H59.568a2.172,2.172,0,0,1-1.6,1.918,3.777,3.777,0,0,0-.215-.347,1.876,1.876,0,0,0,1.463-1.571H58.07v-.355h1.176c.015-.186.029-.418.042-.693h.354q-.015.395-.039.693Zm-1.7-1.412.246.265a10.839,10.839,0,0,1-1.433,1.053c-.086-.135-.16-.24-.217-.314A6.873,6.873,0,0,0,59.243,36.3Zm-1.329-.537H59.8c-.09-.188-.17-.346-.243-.473l.318-.182c.1.164.2.348.31.551l-.2.1h1.963v.974H61.6v-.611H58.27v.611h-.356Zm2.541.547q.726.465,1.468,1l-.233.335c-.479-.384-.963-.74-1.447-1.064Z"/><path class="cls-2" d="M63.454,35.508a7.649,7.649,0,0,0,1.55-.2l.117.369c-.441.07-.889.127-1.344.162V36.6h1.17v1.816h-.313V38.2h-.877a3.958,3.958,0,0,1-.47,1.787c-.08-.107-.163-.207-.244-.3a3.846,3.846,0,0,0,.411-2.038Zm1.18,2.367v-.949h-.857c0,.488,0,.8,0,.949Zm.743-2.336a12.777,12.777,0,0,0,1.937-.219l.123.375q-1.119.138-1.73.178v1.1H67.52v.342h-.694v2.656h-.333V37.311h-.786v.275a3.553,3.553,0,0,1-.783,2.437c-.085-.113-.168-.22-.254-.326a3.081,3.081,0,0,0,.707-2.121Z"/><path class="cls-2" d="M.044,44.555V42.506H.317v2.049Z"/><path class="cls-2" d="M.791,44.555V42.506h.278l1.077,1.609V42.506h.262v2.049H2.13L1.051,42.943v1.612Z"/><path class="cls-2" d="M2.773,43.9l.255-.023a.546.546,0,0,0,.086.254.472.472,0,0,0,.2.16.84.84,0,0,0,.317.059.8.8,0,0,0,.275-.045.393.393,0,0,0,.176-.125A.3.3,0,0,0,4.142,44a.277.277,0,0,0-.055-.17.42.42,0,0,0-.188-.121,3.052,3.052,0,0,0-.363-.1,1.649,1.649,0,0,1-.393-.129.541.541,0,0,1-.221-.189.477.477,0,0,1-.073-.256.5.5,0,0,1,.091-.291.528.528,0,0,1,.255-.2.975.975,0,0,1,.376-.068,1.049,1.049,0,0,1,.4.072.592.592,0,0,1,.266.217.585.585,0,0,1,.1.32l-.26.023a.424.424,0,0,0-.14-.294.56.56,0,0,0-.36-.1.562.562,0,0,0-.357.092.268.268,0,0,0-.114.219.232.232,0,0,0,.079.179,1.1,1.1,0,0,0,.411.147,2.674,2.674,0,0,1,.452.133.583.583,0,0,1,.266.207.513.513,0,0,1,.086.293.538.538,0,0,1-.1.306.622.622,0,0,1-.267.227.963.963,0,0,1-.4.08,1.163,1.163,0,0,1-.467-.082.667.667,0,0,1-.406-.612Z"/><path class="cls-2" d="M5.3,44.555V42.748H4.619v-.242H6.246v.242H5.567v1.807Z"/><path class="cls-2" d="M6.569,44.555V42.506h.272v2.049Z"/><path class="cls-2" d="M7.843,44.555V42.748H7.166v-.242H8.79v.242H8.114v1.807Z"/><path class="cls-2" d="M10.418,42.506h.271v1.182a1.389,1.389,0,0,1-.071.492.576.576,0,0,1-.252.3.9.9,0,0,1-.48.115.958.958,0,0,1-.472-.1.568.568,0,0,1-.262-.287,1.443,1.443,0,0,1-.077-.515V42.506h.271v1.182a1.08,1.08,0,0,0,.052.394.375.375,0,0,0,.168.2.6.6,0,0,0,.3.069.568.568,0,0,0,.427-.135.791.791,0,0,0,.129-.523Z"/><path class="cls-2" d="M11.662,44.555V42.748h-.675v-.242h1.624v.242h-.678v1.807Z"/><path class="cls-2" d="M12.9,44.555V42.506h1.482v.242H13.165v.625H14.3v.242H13.165v.7h1.262v.24Z"/><path class="cls-2" d="M15.513,43.557a1.107,1.107,0,0,1,.275-.8.938.938,0,0,1,.709-.291.966.966,0,0,1,.512.138.869.869,0,0,1,.346.378,1.216,1.216,0,0,1,.119.548,1.233,1.233,0,0,1-.121.559.892.892,0,0,1-.362.375,1,1,0,0,1-.494.125.973.973,0,0,1-.521-.141.859.859,0,0,1-.342-.381A1.14,1.14,0,0,1,15.513,43.557Zm.279,0a.83.83,0,0,0,.2.586.694.694,0,0,0,1,0,.873.873,0,0,0,.2-.612,1.045,1.045,0,0,0-.085-.435.61.61,0,0,0-.247-.291.668.668,0,0,0-.366-.1.7.7,0,0,0-.5.2A.886.886,0,0,0,15.792,43.559Z"/><path class="cls-2" d="M17.84,44.555V42.506h1.383v.242H18.112v.635h.96v.24h-.96v.932Z"/><path class="cls-2" d="M20.417,44.555V42.506h.269v2.049Z"/><path class="cls-2" d="M21.163,44.555V42.506h.278l1.08,1.609V42.506h.259v2.049H22.5l-1.077-1.612v1.612Z"/><path class="cls-2" d="M23.249,44.555V42.506h1.383v.242H23.521v.635h.961v.24h-.961v.932Z"/><path class="cls-2" d="M24.9,43.557a1.1,1.1,0,0,1,.273-.8.93.93,0,0,1,.708-.291.967.967,0,0,1,.513.138.859.859,0,0,1,.347.378,1.215,1.215,0,0,1,.118.548,1.172,1.172,0,0,1-.126.559.848.848,0,0,1-.355.375,1.022,1.022,0,0,1-.5.125.956.956,0,0,1-.514-.141.86.86,0,0,1-.345-.381A1.124,1.124,0,0,1,24.9,43.557Zm.279,0a.843.843,0,0,0,.2.586.663.663,0,0,0,.5.214.654.654,0,0,0,.5-.216.869.869,0,0,0,.2-.612A1.045,1.045,0,0,0,26.5,43.1a.658.658,0,0,0-.616-.395.694.694,0,0,0-.493.2A.878.878,0,0,0,25.183,43.559Z"/><path class="cls-2" d="M27.218,44.555V42.506h.908a1.153,1.153,0,0,1,.419.055.439.439,0,0,1,.229.193.618.618,0,0,1,.083.311.515.515,0,0,1-.139.367.725.725,0,0,1-.436.191.65.65,0,0,1,.161.1,1.226,1.226,0,0,1,.224.273l.359.557h-.343l-.272-.426c-.076-.123-.142-.217-.191-.283a.6.6,0,0,0-.141-.137.4.4,0,0,0-.127-.055.811.811,0,0,0-.146-.009h-.315v.91Zm.273-1.145h.581a.818.818,0,0,0,.29-.039.332.332,0,0,0,.164-.123.357.357,0,0,0,.054-.183.317.317,0,0,0-.106-.241.511.511,0,0,0-.335-.094h-.648Z"/><path class="cls-2" d="M29.274,44.555V42.506h.41l.485,1.451c.045.135.078.236.1.3.023-.07.059-.182.109-.326l.49-1.426h.366v2.049H30.97V42.838l-.6,1.717h-.245l-.593-1.746v1.746Z"/><path class="cls-2" d="M31.446,44.555l.786-2.049h.294l.837,2.049h-.307l-.241-.621h-.857l-.225.621Zm.59-.842h.7l-.214-.568a4.462,4.462,0,0,1-.144-.424,2.306,2.306,0,0,1-.112.388Z"/><path class="cls-2" d="M34.1,44.555V42.748h-.676v-.242H35.05v.242h-.677v1.807Z"/><path class="cls-2" d="M35.376,44.555V42.506h.273v2.049Z"/><path class="cls-2" d="M36.044,43.557a1.1,1.1,0,0,1,.275-.8.927.927,0,0,1,.7-.291.952.952,0,0,1,.513.138.848.848,0,0,1,.347.378,1.288,1.288,0,0,1,0,1.107.875.875,0,0,1-.357.375,1.027,1.027,0,0,1-.5.125.968.968,0,0,1-.518-.141.9.9,0,0,1-.345-.381A1.162,1.162,0,0,1,36.044,43.557Zm.279,0a.839.839,0,0,0,.2.586.657.657,0,0,0,.5.214.649.649,0,0,0,.5-.216.873.873,0,0,0,.2-.612,1.014,1.014,0,0,0-.089-.435.649.649,0,0,0-.243-.291.686.686,0,0,0-.37-.1.7.7,0,0,0-.494.2A.882.882,0,0,0,36.323,43.559Z"/><path class="cls-2" d="M38.353,44.555V42.506h.277l1.078,1.609V42.506h.26v2.049H39.69l-1.077-1.612v1.612Z"/><path class="cls-2" d="M41.225,44.555V42.506h1.481v.242H41.5v.625h1.135v.242H41.5v.7h1.256v.24Z"/><path class="cls-2" d="M43.128,44.555V42.506H43.4l1.08,1.609V42.506h.261v2.049h-.279L43.39,42.943v1.612Z"/><path class="cls-2" d="M46.159,43.75v-.24h.869v.76a1.491,1.491,0,0,1-.414.24,1.23,1.23,0,0,1-.437.08,1.141,1.141,0,0,1-.547-.129.856.856,0,0,1-.373-.375,1.166,1.166,0,0,1-.123-.545,1.289,1.289,0,0,1,.121-.561.862.862,0,0,1,.361-.386,1.131,1.131,0,0,1,.54-.123,1.051,1.051,0,0,1,.4.07.689.689,0,0,1,.283.2.937.937,0,0,1,.156.336l-.246.067a.923.923,0,0,0-.112-.249.558.558,0,0,0-.2-.14.684.684,0,0,0-.281-.055.846.846,0,0,0-.322.057.6.6,0,0,0-.219.15.771.771,0,0,0-.128.2,1.086,1.086,0,0,0-.079.414.966.966,0,0,0,.1.457.606.606,0,0,0,.272.276.855.855,0,0,0,.386.09.922.922,0,0,0,.344-.069.794.794,0,0,0,.254-.146V43.75Z"/><path class="cls-2" d="M47.476,44.555V42.506h.27v2.049Z"/><path class="cls-2" d="M48.221,44.555V42.506H48.5l1.079,1.609V42.506h.258v2.049h-.278l-1.077-1.612v1.612Z"/><path class="cls-2" d="M50.3,44.555V42.506h1.482v.242H50.571v.625h1.134v.242H50.571v.7h1.256v.24Z"/><path class="cls-2" d="M52.21,44.555V42.506h1.48v.242H52.48v.625h1.136v.242H52.48v.7h1.259v.24Z"/><path class="cls-2" d="M54.12,44.555V42.506h.908a1.131,1.131,0,0,1,.417.055.427.427,0,0,1,.227.193.592.592,0,0,1,.086.311.509.509,0,0,1-.142.367.711.711,0,0,1-.435.191.613.613,0,0,1,.163.1,1.388,1.388,0,0,1,.227.273l.356.557h-.342l-.27-.426c-.08-.123-.146-.217-.2-.283a.644.644,0,0,0-.137-.137.483.483,0,0,0-.125-.055.886.886,0,0,0-.151-.009h-.315v.91Zm.271-1.145h.582a.851.851,0,0,0,.294-.039.312.312,0,0,0,.158-.123.348.348,0,0,0,.054-.183.311.311,0,0,0-.107-.241.5.5,0,0,0-.333-.094h-.648Z"/><path class="cls-2" d="M56.23,44.555V42.506H56.5v2.049Z"/><path class="cls-2" d="M56.976,44.555V42.506h.279l1.078,1.609V42.506h.26v2.049h-.279l-1.077-1.612v1.612Z"/><path class="cls-2" d="M60.01,43.75v-.24h.868v.76a1.571,1.571,0,0,1-.412.24,1.26,1.26,0,0,1-.438.08,1.134,1.134,0,0,1-.548-.129.85.85,0,0,1-.373-.375,1.144,1.144,0,0,1-.127-.545,1.238,1.238,0,0,1,.127-.561.839.839,0,0,1,.36-.386,1.119,1.119,0,0,1,.539-.123,1.053,1.053,0,0,1,.4.07.651.651,0,0,1,.281.2.86.86,0,0,1,.157.336l-.247.067a.791.791,0,0,0-.114-.249.5.5,0,0,0-.2-.14.7.7,0,0,0-.28-.055.835.835,0,0,0-.322.057.572.572,0,0,0-.219.15.71.71,0,0,0-.131.2,1.067,1.067,0,0,0-.077.414.992.992,0,0,0,.094.457.6.6,0,0,0,.275.276.851.851,0,0,0,.385.09.921.921,0,0,0,.343-.069.783.783,0,0,0,.254-.146V43.75Z"/><path class="cls-2" d="M61.31,44.555v-.287H61.6v.287a.511.511,0,0,1-.057.256.36.36,0,0,1-.179.15l-.069-.108a.252.252,0,0,0,.119-.1.484.484,0,0,0,.042-.2Z"/><path class="cls-2" d="M63.537,43.836l.272.068a.9.9,0,0,1-.31.51.835.835,0,0,1-.538.176.962.962,0,0,1-.542-.135.864.864,0,0,1-.317-.39A1.381,1.381,0,0,1,62,43.514a1.247,1.247,0,0,1,.12-.559.849.849,0,0,1,.348-.361,1,1,0,0,1,.5-.123.846.846,0,0,1,.518.154.829.829,0,0,1,.293.443l-.269.061a.606.606,0,0,0-.206-.324.552.552,0,0,0-.342-.1.644.644,0,0,0-.393.114.573.573,0,0,0-.223.3,1.185,1.185,0,0,0-.067.393,1.346,1.346,0,0,0,.075.457.592.592,0,0,0,.237.291.663.663,0,0,0,.351.1.571.571,0,0,0,.386-.134A.672.672,0,0,0,63.537,43.836Z"/><path class="cls-2" d="M63.918,44.555l.786-2.049H65l.84,2.049h-.31l-.238-.621H64.43l-.226.621Zm.589-.842H65.2l-.212-.568c-.066-.172-.115-.315-.145-.424a2.408,2.408,0,0,1-.113.388Z"/><path class="cls-2" d="M65.961,43.9l.257-.023a.545.545,0,0,0,.084.254.483.483,0,0,0,.206.16.81.81,0,0,0,.314.059A.831.831,0,0,0,67.1,44.3a.416.416,0,0,0,.174-.125A.294.294,0,0,0,67.332,44a.271.271,0,0,0-.055-.17.4.4,0,0,0-.187-.121,3.044,3.044,0,0,0-.366-.1,1.729,1.729,0,0,1-.394-.129.545.545,0,0,1-.218-.189.469.469,0,0,1-.074-.256.511.511,0,0,1,.091-.291.531.531,0,0,1,.258-.2.943.943,0,0,1,.373-.068,1.04,1.04,0,0,1,.4.072.579.579,0,0,1,.265.217.6.6,0,0,1,.1.32l-.259.023a.418.418,0,0,0-.142-.294.708.708,0,0,0-.715-.01.267.267,0,0,0-.113.219.234.234,0,0,0,.077.179,1.1,1.1,0,0,0,.411.147,2.822,2.822,0,0,1,.453.133.571.571,0,0,1,.264.207.506.506,0,0,1,.087.293.529.529,0,0,1-.095.306.617.617,0,0,1-.267.227.963.963,0,0,1-.4.08,1.175,1.175,0,0,1-.468-.082.668.668,0,0,1-.3-.244A.7.7,0,0,1,65.961,43.9Z"/><path class="cls-3" d="M47.935,14.178A14.174,14.174,0,1,1,33.761,0,14.174,14.174,0,0,1,47.935,14.178Z"/><path class="cls-4" d="M43.982,4.358C39.495,8.543,35.52,8.313,35.52,8.313l3.022,1.947a2.357,2.357,0,0,0,2.092.291A20.091,20.091,0,0,0,46.2,7.377,14.156,14.156,0,0,0,43.982,4.358Z"/><path class="cls-5" d="M38.429.789a16.527,16.527,0,0,1-8.34,3.516l3.078,2.062a2.541,2.541,0,0,0,2.12.029,21.2,21.2,0,0,0,6.487-3.912A14.182,14.182,0,0,0,38.429.789Z"/><path class="cls-6" d="M29.469,3.912a2.162,2.162,0,0,0-1.91-.1c-.089.039-.184.084-.28.136L27.9,7.252c2.526-1.371,3.686-1.592,4.761-1.244C32.657,6.008,30.546,4.58,29.469,3.912Z"/><path class="cls-7" d="M35.089,7.928A3.215,3.215,0,0,0,32.3,7.867,17.043,17.043,0,0,0,28.38,9.842l.658,3.525a26.505,26.505,0,0,1,6.288-3.125,4.653,4.653,0,0,1,3.2,0S35.915,8.5,35.089,7.928Z"/><path class="cls-8" d="M47.312,10.027a12.657,12.657,0,0,1-6.3,2.739l2.895,1.818a2.911,2.911,0,0,0,2.277.062,8.441,8.441,0,0,0,1.74-.935A14.122,14.122,0,0,0,47.312,10.027Z"/><path class="cls-7" d="M26.815,23.461,25.752,4.893c-.27.21-.55.435-.7.576v19.89C25.638,24.684,26.232,24.049,26.815,23.461Z"/><path class="cls-9" d="M28.491,21.858,26.476,4.363c-.243.16-.5.36-.719.524l1.064,18.568C27.392,22.877,27.952,22.344,28.491,21.858Z"/><path class="cls-9" d="M32.677,18.535C35.764,16.4,41.115,14.01,43.939,14.6c0,0-2.61-1.772-3.495-2.246a3.943,3.943,0,0,0-3.123-.147,25.7,25.7,0,0,0-7.746,4.012l.758,4.062C31.411,19.412,32.254,18.818,32.677,18.535Z"/></g></g></svg>