<svg xmlns="http://www.w3.org/2000/svg" role="img" viewBox="57.66 44.16 563.68 449.68"><title>Instituto Federal de Educação (member) logo</title><style>svg {enable-background:new 0 0 678.3 533.7}</style><style>.st1{fill:#ffcf00}.st2{fill:#183eff}.st3{fill:#3c3c3c}.st4{fill:#00cf00}.st5{fill:red}</style><path d="M238.7 77V61.8l-6.3 11.6h-2l-6.3-11.6V77h-3.4V55.6h3.6l7.1 13.1 7.1-13.1h3.6V77h-3.4zm13.8 0V55.6h3.4V77h-3.4zm17.2-15.1V77h-3.4V55.6h2.8l12.1 15.5V55.6h3.4V77h-3l-11.9-15.1zM295 77V55.6h3.4V77H295zm26.5-16.4c-.5-.5-1.2-1-2.4-1.5-1.1-.5-2.3-.7-3.4-.7-1.4 0-2.4.3-3.1.8s-1 1.2-1 2.2c0 .3 0 .6.1.8l.3.6c.1.2.3.4.6.5.2.2.5.3.7.4.2.1.6.2 1 .4l1.2.3c.4.1.8.2 1.4.4.9.2 1.7.4 2.4.7.7.2 1.3.5 1.9.8s1.1.7 1.5 1.1.7.9.9 1.5c.2.6.3 1.3.3 2 0 .9-.1 1.6-.4 2.3-.3.7-.6 1.3-1.1 1.7-.5.5-1 .9-1.7 1.2-.7.3-1.4.5-2.2.7-.8.1-1.6.2-2.5.2-1.6 0-3.2-.2-4.7-.7s-2.9-1.2-4.1-2.1l1.5-2.9c.6.6 1.6 1.3 3 1.8 1.4.6 2.8.9 4.3.9 1.3 0 2.4-.2 3.1-.7s1.1-1.1 1.1-2c0-.4-.1-.7-.2-1s-.3-.5-.6-.8c-.3-.2-.5-.4-.8-.6s-.7-.3-1.2-.5-1-.3-1.4-.4-1-.3-1.7-.5c-1.1-.3-2.1-.6-2.8-.9-.7-.3-1.4-.7-2-1.1s-1-1-1.2-1.6c-.3-.6-.4-1.3-.4-2.1 0-1 .2-2 .6-2.8s.9-1.5 1.6-2.1c.7-.5 1.5-1 2.5-1.2.9-.3 2-.4 3.1-.4 2.6 0 5 .8 7.2 2.4l-1.4 2.9zm27-2h-7.1V77H338V58.6h-7.1v-3h17.7v3h-.1zM357 77V55.6h9.3c.9 0 1.8.2 2.7.6.8.4 1.5.9 2.1 1.6.6.7 1 1.4 1.4 2.2.3.8.5 1.7.5 2.5 0 1.5-.4 2.8-1.1 3.9-.8 1.2-1.8 2-3 2.4l5 8.1H370l-4.7-7.5h-5V77H357zm3.3-10.4h5.9c.9 0 1.7-.4 2.3-1.2.6-.8.9-1.7.9-2.8s-.3-2-1-2.8-1.5-1.2-2.4-1.2h-5.7v8zm22.7-11l5.9 10.7 6-10.7h3.7l-8 13.8V77h-3.4v-7.7l-7.9-13.7h3.7zm34.4 10.7c0-1.4.3-2.8.8-4.1s1.2-2.5 2.1-3.5 2-1.8 3.3-2.4 2.7-.9 4.1-.9c1.5 0 2.9.3 4.2.9 1.3.6 2.4 1.5 3.2 2.5.9 1 1.6 2.2 2.1 3.5s.8 2.6.8 4-.3 2.8-.8 4.1c-.5 1.3-1.2 2.5-2.1 3.5s-2 1.8-3.3 2.4-2.7.9-4.1.9c-1.2 0-2.3-.2-3.4-.6s-2-.9-2.9-1.6c-.8-.7-1.5-1.5-2.1-2.4s-1.1-1.9-1.4-3c-.3-1.1-.5-2.2-.5-3.3zm10.3 7.8c1 0 2-.2 2.9-.7s1.6-1 2.2-1.8c.6-.7 1-1.6 1.3-2.5s.5-1.9.5-2.8c0-1-.2-2-.5-2.9s-.8-1.8-1.4-2.5-1.3-1.3-2.2-1.7c-.9-.4-1.8-.6-2.8-.6s-2 .2-2.9.7c-.9.4-1.6 1-2.2 1.8-.6.7-1 1.6-1.3 2.5-.3.9-.5 1.9-.5 2.8 0 1.4.3 2.6.8 3.8.5 1.2 1.3 2.1 2.4 2.9 1.1.6 2.3 1 3.7 1zM447 77V55.6h14.3v3h-10.9V65h9.1v2.8h-9.1V77H447zm-316.6 27.7c-.1 0-.2-.1-.4-.2-.1-.1-.4-.2-.9-.5-.5-.2-.9-.4-1.3-.6-.4-.2-.9-.3-1.5-.5-.6-.1-1.1-.2-1.6-.2-1.1 0-1.7.4-1.7 1.1 0 .2 0 .3.1.4s.1.2.3.4c.1.1.3.2.4.3.1.1.3.2.6.3.3.1.5.2.7.2.2.1.5.1.9.3.4.1.7.2 1 .3.9.3 1.6.5 2.2.8l1.8.9c.6.4 1 .8 1.4 1.2.3.4.6 1 .8 1.6s.3 1.3.3 2.1c0 1-.2 1.9-.5 2.7-.3.8-.7 1.4-1.2 2-.5.5-1.1.9-1.8 1.3-.7.3-1.5.6-2.2.7-.8.1-1.5.2-2.4.2-1.5 0-3.2-.2-4.8-.7-1.7-.5-3.2-1.1-4.5-1.8l2.5-5.2c.1.1.2.2.4.3.2.1.5.3 1.1.6.5.3 1.1.5 1.6.7s1.1.4 1.8.6c.7.2 1.4.3 2 .3 1.1 0 1.7-.3 1.7-.9 0-.2-.1-.4-.2-.6s-.4-.3-.7-.5c-.3-.2-.7-.3-1-.4s-.8-.2-1.4-.4c-.6-.2-1.1-.3-1.5-.5-1.9-.6-3.3-1.4-4.2-2.3-.8-.9-1.3-2.1-1.3-3.7 0-1.1.2-2.2.7-3.1.4-.9 1-1.7 1.8-2.3.7-.6 1.6-1 2.5-1.4 1-.3 2-.5 3-.5 2.3 0 5 .8 8 2.3l-2.5 4.7zm21-7.1c2 0 3.8.4 5.3 1.3 1.5.8 2.7 2 3.4 3.4l-4.5 3.2c-.2-.5-.5-.9-.8-1.3s-.7-.6-1.1-.8c-.4-.2-.8-.3-1.2-.4s-.8-.1-1.3-.1c-.8 0-1.5.2-2.2.5-.6.3-1.1.8-1.5 1.3s-.7 1.1-.9 1.8c-.2.6-.3 1.3-.3 2 0 1.6.4 2.9 1.3 4s2.1 1.7 3.6 1.7c.6 0 1.1-.1 1.7-.2.5-.2 1-.4 1.5-.9.5-.4.8-.9 1.1-1.5l4.8 2.9c-.4 1-1.1 1.9-2.1 2.7-1 .8-2.1 1.4-3.4 1.7-1.2.4-2.5.6-3.7.6-1.5 0-3-.3-4.3-1-1.4-.6-2.5-1.5-3.4-2.5s-1.7-2.2-2.2-3.6c-.5-1.3-.8-2.7-.8-4s.3-2.6.8-3.9 1.2-2.4 2.1-3.4c.9-1 2.1-1.8 3.5-2.4 1.4-.8 2.9-1.1 4.6-1.1zm16.7 21.5V97.7h5.9v21.4h-5.9zm30.4-5.1v5.1h-15.3V97.7h15v5.1h-9.1v3h7.8v4.8h-7.8v3.4h9.4zm14.2-5.4v10.5h-5.9V97.7h4.6l8.6 10.9V97.7h5.9v21.4h-4.7l-8.5-10.5zm32.2-11c2 0 3.8.4 5.3 1.3 1.5.8 2.7 2 3.4 3.4l-4.5 3.2c-.2-.5-.5-.9-.8-1.3s-.7-.6-1.1-.8c-.4-.2-.8-.3-1.2-.4s-.8-.1-1.3-.1c-.8 0-1.5.2-2.2.5-.6.3-1.1.8-1.5 1.3s-.7 1.1-.9 1.8c-.2.6-.3 1.3-.3 2 0 1.6.4 2.9 1.3 4s2.1 1.7 3.6 1.7c.6 0 1.1-.1 1.7-.2.5-.2 1-.4 1.5-.9.5-.4.8-.9 1.1-1.5l4.8 2.9c-.4 1-1.1 1.9-2.1 2.7-1 .8-2.1 1.4-3.4 1.7-1.2.4-2.5.6-3.7.6-1.5 0-3-.3-4.3-1-1.4-.6-2.5-1.5-3.4-2.5s-1.7-2.2-2.2-3.6c-.5-1.3-.8-2.7-.8-4s.3-2.6.8-3.9 1.2-2.4 2.1-3.4c.9-1 2.1-1.8 3.5-2.4 1.4-.8 2.9-1.1 4.6-1.1zm31.9 16.4v5.1h-15.3V97.7h15v5.1h-9.1v3h7.8v4.8h-7.8v3.4h9.4zm8.6 9.8l1.1-4.7h-1.7v-5.6h4.7v5.6l-1.6 4.7h-2.5zm41.3-21h-6.1v16.3h-5.9v-16.3h-6.2v-5.1h18.2v5.1zm22.9 11.2v5.1h-15.3V97.7h15v5.1h-9.1v3h7.8v4.8h-7.8v3.4h9.4zm17.8-16.4c2 0 3.8.4 5.3 1.3s2.7 2 3.4 3.4l-4.5 3.2c-.2-.5-.5-.9-.8-1.3s-.7-.6-1.1-.8c-.4-.2-.8-.3-1.2-.4-.4-.1-.8-.1-1.3-.1-.8 0-1.5.2-2.2.5-.6.3-1.1.8-1.5 1.3s-.7 1.1-.9 1.8c-.2.6-.3 1.3-.3 2 0 1.6.4 2.9 1.3 4s2.1 1.7 3.6 1.7c.6 0 1.1-.1 1.7-.2.5-.2 1-.4 1.5-.9.5-.4.8-.9 1.1-1.5l4.8 2.9c-.4 1-1.1 1.9-2.1 2.7-1 .8-2.1 1.4-3.4 1.7-1.2.4-2.5.6-3.7.6-1.5 0-3-.3-4.3-1-1.4-.6-2.5-1.5-3.4-2.5s-1.7-2.2-2.2-3.6c-.5-1.3-.8-2.7-.8-4s.3-2.6.8-3.9 1.2-2.4 2.1-3.4 2.1-1.8 3.5-2.4c1.4-.8 2.9-1.1 4.6-1.1zm35.6.1v21.4h-5.9v-8.4h-7.2v8.4H384V97.7h5.9v7.9h7.2v-7.9h5.9zm15.1 10.9v10.5h-5.9V97.7h4.6l8.6 10.9V97.7h5.9v21.4h-4.7l-8.5-10.5zm21.3-.2c0-1.4.3-2.8.8-4.1.5-1.3 1.3-2.5 2.3-3.5s2.1-1.8 3.5-2.4 2.8-.9 4.4-.9 3 .3 4.4.9 2.5 1.4 3.4 2.5c.9 1 1.6 2.2 2.2 3.5.5 1.3.8 2.6.8 4s-.3 2.7-.8 4.1-1.3 2.5-2.2 3.5c-.9 1-2.1 1.8-3.5 2.4s-2.8.9-4.4.9-3-.3-4.4-.9-2.5-1.4-3.4-2.5c-.9-1-1.6-2.2-2.2-3.5-.6-1.3-.9-2.7-.9-4zm10.9 5.7c.8 0 1.5-.2 2.2-.5.6-.3 1.2-.8 1.5-1.3.4-.5.7-1.2.9-1.8.2-.7.3-1.4.3-2.1 0-1-.2-1.9-.5-2.7-.3-.8-.9-1.5-1.7-2-.8-.5-1.7-.8-2.7-.8-.8 0-1.5.2-2.2.5-.6.3-1.1.8-1.5 1.3s-.7 1.1-.9 1.8c-.2.7-.3 1.3-.3 2.1 0 .7.1 1.4.3 2.1.2.7.5 1.3.9 1.8s.9 1 1.5 1.3c.7.1 1.4.3 2.2.3zm18.9 5V97.7h5.9V114h9.7v5.1h-15.6zm21.8-10.7c0-1.4.3-2.8.8-4.1.5-1.3 1.3-2.5 2.3-3.5s2.1-1.8 3.5-2.4 2.8-.9 4.4-.9 3 .3 4.4.9 2.5 1.4 3.4 2.5c.9 1 1.6 2.2 2.2 3.5.5 1.3.8 2.6.8 4s-.3 2.7-.8 4.1c-.5 1.3-1.3 2.5-2.2 3.5-.9 1-2.1 1.8-3.5 2.4s-2.8.9-4.4.9-3-.3-4.4-.9-2.5-1.4-3.4-2.5c-.9-1-1.6-2.2-2.2-3.5s-.9-2.7-.9-4zm10.9 5.7c.8 0 1.5-.2 2.2-.5.6-.3 1.2-.8 1.5-1.3s.7-1.2.9-1.8c.2-.7.3-1.4.3-2.1 0-1-.2-1.9-.5-2.7-.3-.8-.9-1.5-1.7-2-.8-.5-1.7-.8-2.7-.8-.8 0-1.5.2-2.2.5-.6.3-1.1.8-1.5 1.3s-.7 1.1-.9 1.8-.3 1.3-.3 2.1c0 .7.1 1.4.3 2.1.2.7.5 1.3.9 1.8s.9 1 1.5 1.3c.7.1 1.4.3 2.2.3zm29.5-6.4h8.8v11.4h-4.9v-1.8c-1.5 1.3-3.3 1.9-5.3 1.9-1.4 0-2.7-.3-4-.8s-2.4-1.2-3.3-2.1c-1-.9-1.7-2.1-2.3-3.5s-.8-3-.8-4.7c0-1.5.3-2.9.9-4.2.6-1.3 1.3-2.4 2.3-3.4 1-.9 2.1-1.7 3.5-2.3 1.4-.6 2.8-.8 4.3-.8 1.9 0 3.7.4 5.2 1.3 1.6.8 2.7 2 3.5 3.4l-4.4 3.3c-.4-.8-1-1.5-1.9-2s-1.8-.8-2.7-.8c-1.4 0-2.5.5-3.4 1.6s-1.3 2.4-1.3 4.1.5 3 1.4 4.1c.9 1 2.1 1.5 3.6 1.5 1.7 0 3.2-.7 4.5-2.1h-3.7v-4.1zm20.5-10l3.8 8.8 3.9-8.8h6.4l-7.4 14.3v7.1h-5.9V112l-7.3-14.3h6.5zm-369.1 42.1h6.6l6.8 21.4h-6l-1.3-4.2h-5.7l-1.3 4.2h-6l6.9-21.4zm5.1 13.3l-1.9-7.5-2 7.5h3.9zm21.5-2.4v10.5h-5.9v-21.4h4.6l8.6 10.9v-10.9h5.9v21.4h-4.7l-8.5-10.5zm22.4 10.5v-21.4h8.2c1.7 0 3.3.3 4.7.8 1.4.6 2.5 1.3 3.4 2.3s1.6 2.1 2 3.4c.5 1.3.7 2.7.7 4.2 0 3.2-1 5.8-3 7.8s-4.6 2.9-7.8 2.9h-8.2zm8.3-16.3h-2.4v11.2h2.4c1.5 0 2.7-.5 3.5-1.6.9-1 1.3-2.4 1.3-4.1 0-1.7-.4-3-1.3-4-.8-1-2-1.5-3.5-1.5zm31.3 16.3v-21.4h5.9v21.4h-5.9zm21-10.5v10.5h-5.9v-21.4h4.6l8.6 10.9v-10.9h5.9v21.4h-4.7l-8.5-10.5zm28.3 0v10.5h-5.9v-21.4h4.6l8.6 10.9v-10.9h5.9v21.4h-4.7l-8.5-10.5zm21.3-.2c0-1.4.3-2.8.8-4.1s1.3-2.5 2.3-3.5 2.1-1.8 3.5-2.4c1.4-.6 2.8-.9 4.4-.9s3 .3 4.4.9c1.4.6 2.5 1.4 3.4 2.5.9 1 1.6 2.2 2.2 3.5.5 1.3.8 2.6.8 4s-.3 2.7-.8 4.1c-.5 1.3-1.3 2.5-2.2 3.5-.9 1-2.1 1.8-3.5 2.4-1.4.6-2.8.9-4.4.9s-3-.3-4.4-.9c-1.4-.6-2.5-1.4-3.4-2.5-.9-1-1.7-2.2-2.2-3.5-.6-1.3-.9-2.7-.9-4zm10.9 5.7c.8 0 1.5-.2 2.2-.5.6-.3 1.2-.8 1.5-1.3.4-.5.7-1.2.9-1.8.2-.7.3-1.4.3-2.1 0-1-.2-1.9-.5-2.7s-.9-1.5-1.7-2c-.8-.5-1.7-.8-2.7-.8-.8 0-1.5.2-2.2.5-.6.3-1.1.8-1.5 1.3s-.7 1.1-.9 1.8c-.2.7-.3 1.3-.3 2.1 0 .7.1 1.4.3 2.1.2.7.5 1.3.9 1.8s.9 1 1.5 1.3c.7.1 1.4.3 2.2.3zm22.2-16.4l4.2 14.6 4.1-14.6h6.2l-7.4 21.4h-5.8l-7.5-21.4h6.2zm24.9 0h6.6l6.8 21.4h-6l-1.3-4.2h-5.7l-1.3 4.2h-6l6.9-21.4zm5.2 13.3l-1.9-7.5-2 7.5h3.9zm30.3-8.2h-6.1v16.3h-5.9v-16.3h-6.2v-5.1h18.2v5.1zm7.7 16.3v-21.4h5.9v21.4h-5.9zm14-10.7c0-1.4.3-2.8.8-4.1s1.3-2.5 2.3-3.5 2.1-1.8 3.5-2.4c1.4-.6 2.8-.9 4.4-.9s3 .3 4.4.9c1.4.6 2.5 1.4 3.4 2.5.9 1 1.6 2.2 2.2 3.5.5 1.3.8 2.6.8 4s-.3 2.7-.8 4.1c-.5 1.3-1.3 2.5-2.2 3.5-.9 1-2.1 1.8-3.5 2.4-1.4.6-2.8.9-4.4.9s-3-.3-4.4-.9c-1.4-.6-2.5-1.4-3.4-2.5-.9-1-1.6-2.2-2.2-3.5-.6-1.3-.9-2.7-.9-4zm10.9 5.7c.8 0 1.5-.2 2.2-.5.6-.3 1.2-.8 1.5-1.3.4-.5.7-1.2.9-1.8.2-.7.3-1.4.3-2.1 0-1-.2-1.9-.5-2.7s-.9-1.5-1.7-2c-.8-.5-1.7-.8-2.7-.8-.8 0-1.5.2-2.2.5-.6.3-1.1.8-1.5 1.3s-.7 1.1-.9 1.8c-.2.7-.3 1.3-.3 2.1 0 .7.1 1.4.3 2.1.2.7.5 1.3.9 1.8s.9 1 1.5 1.3c.7.1 1.4.3 2.2.3zm24.8-5.5v10.5H487v-21.4h4.6l8.6 10.9v-10.9h5.9v21.4h-4.7l-8.5-10.5z"/><path d="M519.1 303.4h45.8v88h-45.8z" class="st1"/><path d="M564.9 391.4h45.8v44.5h-45.8z" class="st2"/><path d="M519.1 391.4h45.8v44.5h-45.8z" class="st3"/><path d="M465.6 303.4h45.8v132.5h-45.8z" class="st4"/><path d="M365 362.3h43.3v73.6H365z" class="st5"/><path d="M408.3 303.4h49.6v48.2h-49.6z" class="st2"/><path d="M423.5 351.6h-15.1v84.3h15.1c23.3 0 42.1-18.9 42.1-42.1 0-23.3-18.9-42.2-42.1-42.2" class="st1"/><path d="M394.5 303.4c-16.3 0-29.4 13.2-29.4 29.4 0 16.3 13.2 29.4 29.4 29.4h13.9v-58.8h-13.9z" class="st4"/><path d="M114.7 356.6h10.6c14.7 0 26.6-11.9 26.6-26.6 0-14.7-11.9-26.6-26.6-26.6h-10.6v53.2z" class="st2"/><path d="M68.8 303.4h45.8v53.2H68.8z" class="st4"/><path d="M68.8 356.6h45.8v79.3H68.8z" class="st1"/><path d="M129.7 356.6h-15.1v79.3h15.1c21.9 0 39.7-17.8 39.7-39.7s-17.8-39.6-39.7-39.6z" class="st5"/><g><path d="M221.3 383.4h-51.9v52.5h86.1z" class="st4"/><path d="M221.3 383.4l-51.9-80v80z" class="st1"/><path d="M221.3 303.4h-52l52 80c22.1 0 40-17.9 40-40s-17.9-40-40-40z" class="st2"/></g><g><path d="M309.2 303.4l-78.8 132.5H388z" class="st1"/><path d="M365 397.4v38.5h23zm-134.6 38.5h25.1l-13.1-20.1z" class="st3"/><path d="M357.5 435.9c0-26.7-21.6-48.3-48.3-48.3s-48.3 21.6-48.3 48.3h96.6z" class="st2"/></g><path d="M123.5 483.1c-1 0-2-.2-2.8-.5s-1.5-.7-2.1-1.2c-.5-.5-1-1.1-1.4-1.9-.4-.7-.6-1.5-.8-2.3s-.2-1.6-.2-2.5v-8.5h2.6v8.5c0 .6 0 1.2.1 1.8.1.6.3 1.1.5 1.6s.5 1 .8 1.3c.3.4.8.7 1.3.9.5.2 1.1.3 1.8.3s1.3-.1 1.8-.3c.5-.2 1-.5 1.3-.9s.6-.8.8-1.3.4-1.1.5-1.6c.1-.6.1-1.1.1-1.8v-8.5h2.7v8.5c0 1.2-.1 2.3-.4 3.2-.3 1-.7 1.9-1.3 2.6s-1.3 1.4-2.3 1.8c-.6.6-1.7.8-3 .8zm20.5-11.9V483h-2.6v-16.7h2.2l9.5 12.1v-12.1h2.7V483h-2.3l-9.5-11.8zm22.5 11.8v-16.7h2.6V483h-2.6zm25.7-14.4h-5.6V483h-2.7v-14.4h-5.5v-2.3h13.8v2.3zm9.3 14.4v-16.7h2.6V483h-2.6zm16.1-11.8V483H215v-16.7h2.2l9.5 12.1v-12.1h2.7V483h-2.3l-9.5-11.8zm30.8 3.3h5.7v8.5h-2.2v-2.1c-1.4 1.5-3 2.2-4.9 2.2-1.1 0-2.1-.2-3.1-.7s-1.8-1.1-2.5-1.9-1.2-1.7-1.7-2.7c-.4-1-.6-2.1-.6-3.3 0-1.1.2-2.2.6-3.2.4-1 1-1.9 1.7-2.7.7-.8 1.5-1.4 2.5-1.8 1-.5 2.1-.7 3.2-.7 1.5 0 2.9.3 4 1 1.1.6 1.9 1.5 2.5 2.7l-2 1.5c-.5-.9-1.1-1.6-1.9-2-.8-.5-1.7-.7-2.7-.7s-1.9.3-2.7.9-1.4 1.3-1.8 2.2c-.4.9-.6 1.9-.6 3 0 1.7.5 3.1 1.6 4.3 1 1.2 2.3 1.8 3.8 1.8 1.7 0 3.3-.8 4.7-2.5v-1.8h-3.6v-2zm32.8-8.2h2.5l6.5 16.7h-2.8l-1.8-4.5h-6.5l-1.7 4.5h-2.8l6.6-16.7zm3.9 10.2l-2.7-7.3-2.8 7.3h5.5zm16.8-5.3V483h-2.6v-16.7h2.2l9.5 12.1v-12.1h2.7V483h-2.3l-9.5-11.8zm22.5 11.8v-16.7h5.9c1.3 0 2.5.2 3.5.7 1 .4 1.9 1 2.6 1.8.7.8 1.2 1.6 1.5 2.6s.5 2.1.5 3.3c0 2.5-.7 4.6-2.2 6.1s-3.5 2.3-5.9 2.3l-5.9-.1zm6-14.4h-3.3v12.1h3.3c1.2 0 2.1-.3 3-.8.8-.5 1.5-1.3 1.9-2.2.4-.9.6-1.9.6-3.1 0-1.8-.5-3.2-1.5-4.3-1-1.2-2.3-1.7-4-1.7zm30.9 14.4v-16.7h7.3c.7 0 1.4.2 2.1.5.7.3 1.2.7 1.6 1.2.4.5.8 1.1 1.1 1.7.3.7.4 1.3.4 2 0 1.1-.3 2.2-.9 3.1-.6.9-1.4 1.5-2.4 1.8l3.9 6.4h-3l-3.6-5.8h-3.9v5.8h-2.6zm2.6-8.2h4.6c.7 0 1.3-.3 1.8-.9s.7-1.3.7-2.2c0-.9-.3-1.6-.8-2.2s-1.2-.9-1.9-.9h-4.5v6.2h.1zm31.5 5.8v2.3h-11.5v-16.7h11.3v2.3h-8.6v4.8h7.5v2.2h-7.5v5.1h8.8zm17.8 2.4h-8v-16.7h8.6c.8 0 1.4.2 2 .6s1 1 1.3 1.6.4 1.3.4 2c0 .8-.2 1.6-.6 2.3-.4.7-1 1.2-1.8 1.6 1 .3 1.7.8 2.3 1.6.6.8.8 1.7.8 2.7 0 1.3-.5 2.3-1.5 3.1-.9.8-2.1 1.2-3.5 1.2zm-5.4-14.5v4.9h4.9c.7 0 1.2-.2 1.6-.7s.7-1 .7-1.8c0-.7-.2-1.3-.6-1.8s-.9-.7-1.6-.7h-5v.1zm5.5 7.1h-5.5v5.1h5.4c.7 0 1.3-.2 1.7-.7.5-.5.7-1.1.7-1.8s-.2-1.3-.7-1.8c-.4-.6-.9-.8-1.6-.8zm21.8 7.5c-1 0-2-.2-2.8-.5s-1.5-.7-2.1-1.2c-.5-.5-1-1.1-1.4-1.9-.4-.7-.6-1.5-.8-2.3-.2-.8-.2-1.6-.2-2.5v-8.5h2.6v8.5c0 .6 0 1.2.1 1.8.1.6.3 1.1.5 1.6s.5 1 .8 1.3.8.7 1.3.9c.5.2 1.1.3 1.8.3s1.3-.1 1.8-.3c.5-.2 1-.5 1.3-.9s.6-.8.8-1.3c.2-.5.4-1.1.5-1.6.1-.6.1-1.1.1-1.8v-8.5h2.7v8.5c0 1.2-.1 2.3-.4 3.2-.3 1-.7 1.9-1.3 2.6-.6.8-1.3 1.4-2.3 1.8-.6.6-1.7.8-3 .8zm17.8-.1v-16.7h2.6V483h-2.6zm13.5 0v-16.7h2.6v14.4h9v2.3h-11.6zm20.8 0v-16.7h5.9c1.3 0 2.5.2 3.5.7 1 .4 1.9 1 2.6 1.8s1.2 1.6 1.5 2.6.5 2.1.5 3.3c0 2.5-.7 4.6-2.2 6.1s-3.5 2.3-5.9 2.3l-5.9-.1zm6-14.4h-3.3v12.1h3.3c1.2 0 2.1-.3 3-.8.8-.5 1.5-1.3 1.9-2.2.4-.9.6-1.9.6-3.1 0-1.8-.5-3.2-1.5-4.3-1-1.2-2.3-1.7-4-1.7zm18 14.4v-16.7h2.6V483h-2.6zm16.1-11.8V483h-2.6v-16.7h2.2l9.5 12.1v-12.1h2.7V483h-2.3l-9.5-11.8zm30.7 3.3h5.7v8.5h-2.2v-2.1c-1.4 1.5-3 2.2-4.9 2.2-1.1 0-2.1-.2-3.1-.7s-1.8-1.1-2.5-1.9-1.2-1.7-1.7-2.7c-.4-1-.6-2.1-.6-3.3 0-1.1.2-2.2.6-3.2s1-1.9 1.7-2.7c.7-.8 1.5-1.4 2.5-1.8 1-.5 2.1-.7 3.2-.7 1.5 0 2.9.3 4 1 1.1.6 1.9 1.5 2.5 2.7l-2 1.5c-.5-.9-1.1-1.6-1.9-2-.8-.5-1.7-.7-2.7-.7s-1.9.3-2.7.9c-.8.6-1.4 1.3-1.8 2.2-.4.9-.6 1.9-.6 3 0 1.7.5 3.1 1.6 4.3 1 1.2 2.3 1.8 3.8 1.8 1.7 0 3.3-.8 4.7-2.5v-1.8h-3.5l-.1-2zM125.4 276h-9.8v-19.8h11.5c.9 0 1.7.3 2.4.8s1.2 1.1 1.6 1.9c.4.8.5 1.6.5 2.4 0 1-.2 1.9-.7 2.7-.5.8-1.2 1.5-2.1 1.9 1.2.3 2.1.9 2.7 1.8.6.8 1 1.9 1 3.3 0 .9-.2 1.6-.6 2.3-.4.7-.9 1.2-1.5 1.6-.7.4-1.4.7-2.3.9-.8.1-1.7.2-2.7.2zm-4.3-15.2v3h3.7c.4 0 .8-.1 1.1-.3.3-.2.4-.6.4-1.2 0-.5-.1-.9-.4-1.1-.2-.2-.6-.4-.9-.4h-3.9zm4.5 7.3h-4.5v3.3h4.3c.5 0 .8-.1 1.1-.4.3-.3.4-.7.4-1.2s-.1-.9-.4-1.2c-.2-.3-.5-.5-.9-.5zm64.2 3.9l9-11h-8.6v-4.7h15.2v4.1l-8.4 11h8.6v4.6h-15.7l-.1-4zm23.3 4v-19.8h5.4V276h-5.4zm13.9 0v-19.8h5.4v15.1h9v4.7H227zm21.4 0v-19.8h5.4V276h-5.4zm45.8-9.7v9.7h-5.4v-19.8h4.2l8 10.1v-10.1h5.4V276h-4.3l-7.9-9.7zm87.1-10.1l3.9 13.5 3.8-13.5h5.7l-6.8 19.8h-5.4l-6.9-19.8h5.7zm34 15.1v4.7h-14.1v-19.8h13.9v4.8h-8.4v2.8h7.2v4.4h-7.2v3.1h8.6zm36.9-5v9.7h-5.4v-19.8h4.2l8 10.1v-10.1h5.4V276h-4.3l-7.9-9.7zm35.7 9.7v-10.4l-3.3 7.4h-2.9l-3.3-7.4V276H473v-19.8h5.9l4.3 9.3 4.3-9.3h5.9V276h-5.5zm28-4.7v4.7h-14.1v-19.8h13.9v4.8h-8.4v2.8h7.2v4.4h-7.2v3.1h8.6zm13-5v9.7h-5.4v-19.8h4.2l8 10.1v-10.1h5.4V276h-4.3l-7.9-9.7zm36-5.3h-5.7v15h-5.5v-15H548v-4.7h16.9v4.7zm-412.1 7.4c2.1-1.1 3.5-3.2 3.5-5.7 0-3.7-3-6.4-6.8-6.4h-9.6v19.8h5.3v-6.8h2.2l3.9 6.8h5.9l-4.4-7.7zm-3.9-3.7h-3.7V261h3.7c1.3 0 2 .9 2 1.9s-.8 1.8-2 1.8zm26.5-8.5h-5.1l-8.2 19.8h5.6l1.4-3.4h7.8l1.4 3.4h5.5l-8.4-19.8zm-4.5 11.7l2-4.9 2 4.9h-4zm103.2-11.7H269l-8.2 19.8h5.6l1.4-3.4h7.8l1.4 3.4h5.5l-8.4-19.8zm-4.4 11.7l2-4.9 2 4.9h-4zm64.4 1h5.2c-.5 1.2-1.8 2.3-3.8 2.3-2.9 0-4.9-2.1-4.9-5s2-5.1 4.8-5.1c1.8 0 3.4.9 4.2 2.4l4.4-2.6c-1.8-3-5-4.8-8.6-4.8-5.6 0-10.1 4.5-10.1 10.1s4.4 10 10.1 10c5.3 0 9.3-3.9 9.3-9.9v-1.5H334l.1 4.1zm26.7-12.8c-5.6 0-10.1 4.5-10.1 10.1s4.5 10.1 10.1 10.1 10-4.5 10-10.1-4.4-10.1-10-10.1zm0 14.8c-2.6 0-4.5-2-4.5-4.7s2-4.7 4.5-4.7 4.5 2 4.5 4.7-2 4.7-4.5 4.7zm74.9-2.5c2.1-1.1 3.5-3.2 3.5-5.7 0-3.7-3-6.4-6.8-6.4h-9.6v19.8h5.3v-6.8h2.2l3.9 6.8h5.9l-4.4-7.7zm-3.9-3.7h-3.7V261h3.7c1.3 0 2 .9 2 1.9s-.8 1.8-2 1.8z"/></svg>