<svg xmlns="http://www.w3.org/2000/svg" role="img" viewBox="-7.99 -7.99 415.74 219.99"><g id="svgg" fill-rule="evenodd" stroke="none"><path id="path0" fill="#2babe3" d="M154.443 26.616 C 154.318 26.759,154.046 27.238,153.838 27.680 C 153.631 28.122,153.343 28.605,153.198 28.754 C 153.054 28.902,152.935 29.118,152.935 29.233 C 152.935 29.348,152.760 29.688,152.545 29.990 C 152.176 30.508,151.429 31.820,150.730 33.180 C 150.557 33.517,150.362 33.839,150.297 33.895 C 150.176 33.999,149.826 34.596,149.038 36.039 C 148.793 36.488,148.531 36.901,148.456 36.958 C 148.381 37.014,148.150 37.427,147.943 37.876 C 147.736 38.326,147.510 38.739,147.441 38.795 C 147.372 38.851,147.133 39.265,146.910 39.714 C 146.686 40.163,146.456 40.577,146.399 40.633 C 146.342 40.689,146.112 41.103,145.889 41.552 C 145.665 42.001,145.434 42.414,145.374 42.471 C 145.152 42.680,143.747 45.161,143.747 45.344 C 143.747 45.448,143.664 45.533,143.563 45.533 C 143.462 45.533,143.209 45.947,143.001 46.452 C 142.794 46.956,142.569 47.370,142.502 47.370 C 142.434 47.371,142.207 47.762,141.997 48.239 C 141.787 48.716,141.504 49.176,141.369 49.261 C 141.234 49.346,141.017 49.737,140.888 50.129 C 140.758 50.521,140.578 50.842,140.486 50.842 C 140.395 50.842,140.169 51.220,139.985 51.681 C 139.800 52.142,139.518 52.650,139.358 52.810 C 138.887 53.281,139.235 53.847,142.377 57.736 C 143.987 59.728,146.486 62.828,147.932 64.625 C 152.642 70.476,155.677 74.216,155.934 74.483 C 156.137 74.694,156.262 74.594,156.573 73.973 C 157.129 72.866,158.096 71.176,158.243 71.057 C 158.313 71.001,158.493 70.648,158.645 70.274 C 158.796 69.899,159.021 69.484,159.144 69.352 C 159.267 69.219,159.550 68.745,159.773 68.297 C 159.997 67.850,160.235 67.437,160.301 67.381 C 160.368 67.325,160.777 66.636,161.210 65.850 C 161.643 65.064,162.049 64.375,162.112 64.319 C 162.174 64.262,162.409 63.849,162.632 63.400 C 162.856 62.950,163.095 62.537,163.163 62.481 C 163.232 62.425,163.444 62.048,163.634 61.643 L 163.979 60.908 164.838 61.325 C 165.310 61.555,165.743 61.803,165.799 61.875 C 165.855 61.947,166.291 62.177,166.769 62.385 C 167.246 62.593,167.637 62.839,167.637 62.930 C 167.637 63.022,168.004 63.244,168.453 63.424 C 168.903 63.603,169.270 63.825,169.270 63.916 C 169.270 64.008,169.592 64.189,169.985 64.319 C 170.378 64.448,170.699 64.620,170.699 64.701 C 170.699 64.781,171.113 65.018,171.618 65.226 C 172.124 65.435,172.537 65.674,172.537 65.758 C 172.537 65.843,172.950 66.081,173.455 66.289 C 173.960 66.497,174.373 66.734,174.374 66.817 C 174.374 66.900,174.716 67.110,175.133 67.284 C 175.550 67.459,175.941 67.672,176.001 67.758 C 176.061 67.844,176.501 68.116,176.978 68.363 C 179.102 69.459,179.479 69.679,179.479 69.820 C 179.479 69.903,179.847 70.092,180.296 70.240 C 180.745 70.388,181.113 70.570,181.113 70.643 C 181.113 70.717,181.411 70.938,181.776 71.135 C 182.141 71.332,182.899 71.762,183.461 72.091 C 184.022 72.420,184.872 72.877,185.350 73.107 C 185.827 73.338,186.217 73.599,186.217 73.688 C 186.217 73.777,186.585 73.971,187.034 74.119 C 187.483 74.268,187.851 74.471,187.851 74.571 C 187.851 74.671,188.150 74.894,188.515 75.066 C 188.880 75.239,189.638 75.647,190.199 75.974 C 190.761 76.301,191.611 76.756,192.088 76.987 C 192.565 77.217,192.956 77.475,192.956 77.561 C 192.956 77.646,193.346 77.887,193.823 78.095 C 194.301 78.303,194.737 78.536,194.793 78.613 C 194.906 78.767,195.670 79.195,196.980 79.836 C 197.452 80.067,197.895 80.347,197.964 80.458 C 198.032 80.569,198.423 80.800,198.833 80.971 C 199.242 81.142,199.626 81.354,199.687 81.443 C 199.747 81.532,200.071 81.746,200.408 81.919 C 201.750 82.610,203.068 83.357,203.165 83.482 C 203.221 83.555,203.589 83.777,203.982 83.976 C 204.375 84.175,205.036 84.542,205.452 84.792 C 205.868 85.043,207.016 85.699,208.004 86.251 C 208.992 86.803,209.847 87.309,209.903 87.376 C 209.959 87.443,210.373 87.680,210.822 87.904 C 211.271 88.127,211.685 88.366,211.741 88.433 C 211.797 88.501,212.210 88.728,212.660 88.937 C 213.109 89.147,213.568 89.393,213.680 89.485 C 214.084 89.814,216.286 91.067,216.462 91.067 C 216.560 91.067,216.641 91.150,216.641 91.251 C 216.641 91.352,217.054 91.605,217.559 91.812 C 218.064 92.020,218.478 92.245,218.478 92.312 C 218.478 92.380,218.892 92.605,219.398 92.814 C 219.903 93.022,220.316 93.252,220.316 93.324 C 220.316 93.396,220.684 93.621,221.133 93.823 C 221.582 94.026,221.950 94.251,221.950 94.324 C 221.950 94.397,222.272 94.572,222.665 94.714 C 223.058 94.857,223.379 95.041,223.379 95.125 C 223.379 95.208,223.770 95.446,224.247 95.655 C 224.724 95.863,225.161 96.093,225.217 96.165 C 225.273 96.238,225.778 96.556,226.340 96.871 C 228.566 98.120,229.223 98.483,229.811 98.785 C 230.148 98.958,230.470 99.154,230.526 99.219 C 230.711 99.434,232.795 100.664,232.975 100.664 C 233.072 100.664,233.272 100.780,233.421 100.922 C 233.569 101.065,234.081 101.354,234.558 101.566 C 235.036 101.778,235.426 102.015,235.426 102.093 C 235.426 102.171,235.817 102.408,236.294 102.620 C 236.771 102.831,237.278 103.115,237.419 103.251 C 237.561 103.386,237.997 103.613,238.389 103.755 C 238.781 103.897,239.102 104.076,239.102 104.154 C 239.102 104.232,239.446 104.474,239.867 104.690 C 241.162 105.356,242.032 105.860,242.291 106.094 C 242.427 106.216,242.844 106.442,243.219 106.595 C 243.594 106.747,243.992 106.977,244.104 107.105 C 244.216 107.234,244.630 107.462,245.023 107.613 C 245.416 107.765,245.807 108.002,245.892 108.140 C 245.977 108.279,246.368 108.498,246.760 108.627 C 247.152 108.757,247.473 108.942,247.473 109.038 C 247.473 109.134,247.795 109.329,248.188 109.471 C 248.581 109.614,248.903 109.794,248.903 109.873 C 248.903 109.951,249.316 110.186,249.821 110.393 C 250.326 110.601,250.739 110.840,250.739 110.926 C 250.740 111.011,251.108 111.227,251.557 111.407 C 252.006 111.587,252.374 111.797,252.374 111.874 C 252.374 111.951,252.787 112.185,253.292 112.393 C 253.798 112.602,254.211 112.843,254.211 112.929 C 254.211 113.015,254.625 113.243,255.130 113.436 C 255.636 113.629,256.049 113.855,256.049 113.939 C 256.049 114.022,256.332 114.208,256.679 114.351 C 257.025 114.495,257.416 114.716,257.547 114.844 C 257.769 115.061,258.739 115.594,260.286 116.351 C 260.651 116.529,260.949 116.744,260.949 116.827 C 260.949 116.911,261.340 117.171,261.817 117.404 C 263.060 118.013,263.951 118.498,264.366 118.793 C 264.734 119.054,265.595 119.537,266.871 120.200 C 267.264 120.405,267.616 120.640,267.653 120.722 C 267.690 120.805,268.103 121.056,268.572 121.279 C 269.040 121.503,269.883 121.961,270.444 122.297 C 271.006 122.633,271.764 123.050,272.129 123.223 C 272.494 123.396,272.792 123.614,272.792 123.707 C 272.792 123.799,273.161 123.997,273.612 124.146 C 274.063 124.295,274.538 124.544,274.668 124.701 C 274.797 124.857,275.187 125.120,275.532 125.285 C 275.878 125.450,276.621 125.860,277.182 126.196 C 277.744 126.532,278.493 126.941,278.848 127.104 C 279.203 127.268,279.524 127.483,279.563 127.582 C 279.601 127.682,280.046 127.963,280.551 128.207 C 282.215 129.012,283.102 129.500,283.210 129.669 C 283.268 129.761,283.544 129.938,283.822 130.061 C 284.101 130.184,284.834 130.597,285.452 130.978 C 286.069 131.360,286.942 131.861,287.392 132.092 C 287.841 132.323,288.576 132.743,289.025 133.026 C 289.474 133.309,290.209 133.735,290.658 133.974 C 291.108 134.214,291.521 134.466,291.577 134.535 C 291.633 134.604,292.001 134.823,292.394 135.022 C 292.787 135.221,293.476 135.605,293.925 135.876 C 294.375 136.147,295.110 136.571,295.559 136.818 C 296.008 137.066,296.422 137.324,296.479 137.393 C 296.536 137.463,297.363 137.924,298.317 138.419 C 299.271 138.914,300.097 139.374,300.153 139.442 C 300.209 139.510,300.623 139.748,301.072 139.971 C 301.521 140.195,301.935 140.434,301.991 140.503 C 302.047 140.573,302.460 140.825,302.910 141.064 C 303.359 141.303,304.094 141.725,304.543 142.002 C 304.992 142.279,305.681 142.666,306.075 142.863 C 306.468 143.060,306.905 143.334,307.047 143.471 C 307.188 143.609,307.625 143.838,308.016 143.980 C 308.408 144.121,308.729 144.301,308.729 144.378 C 308.729 144.455,309.119 144.716,309.597 144.958 C 310.764 145.550,311.668 146.068,311.792 146.218 C 311.848 146.286,312.261 146.512,312.711 146.722 C 313.160 146.931,313.705 147.266,313.923 147.467 C 314.141 147.667,314.433 147.831,314.572 147.831 C 314.711 147.831,314.947 147.949,315.095 148.094 C 315.244 148.238,315.733 148.527,316.182 148.736 C 316.631 148.945,317.044 149.176,317.101 149.250 C 317.157 149.323,317.570 149.553,318.019 149.760 C 318.469 149.967,318.882 150.193,318.938 150.261 C 319.115 150.474,321.203 151.710,321.387 151.710 C 321.484 151.710,321.685 151.828,321.833 151.973 C 321.982 152.118,322.471 152.407,322.920 152.616 C 323.369 152.825,323.783 153.052,323.839 153.120 C 323.895 153.189,324.308 153.428,324.758 153.652 C 325.207 153.875,325.639 154.157,325.717 154.277 C 325.796 154.398,326.233 154.619,326.687 154.770 C 327.142 154.920,327.514 155.108,327.514 155.189 C 327.514 155.270,327.790 155.450,328.127 155.590 C 328.464 155.729,328.739 155.903,328.739 155.977 C 328.739 156.050,329.152 156.292,329.656 156.514 C 330.160 156.735,330.574 156.972,330.575 157.039 C 330.576 157.106,330.967 157.335,331.445 157.547 C 331.922 157.759,332.482 158.087,332.690 158.275 C 332.898 158.464,333.310 158.679,333.607 158.754 C 333.903 158.828,334.212 158.997,334.294 159.128 C 334.559 159.557,384.941 159.572,384.855 159.143 C 384.818 158.960,384.421 158.665,383.971 158.487 C 383.522 158.309,383.026 158.036,382.868 157.881 C 382.554 157.571,381.612 157.137,381.368 157.190 C 381.284 157.208,381.215 157.132,381.215 157.020 C 381.215 156.828,380.901 156.635,379.054 155.692 C 378.614 155.467,378.221 155.207,378.180 155.113 C 378.140 155.020,377.726 154.761,377.262 154.539 C 376.189 154.027,375.090 153.425,374.627 153.096 C 374.211 152.802,373.320 152.316,372.078 151.708 C 371.600 151.474,371.210 151.212,371.210 151.126 C 371.210 151.040,370.773 150.764,370.240 150.513 C 369.170 150.009,368.410 149.595,367.943 149.259 C 367.465 148.916,366.085 148.106,365.186 147.640 C 364.737 147.407,364.029 147.010,363.614 146.758 C 363.198 146.506,362.063 145.840,361.092 145.278 C 360.121 144.717,359.037 144.090,358.683 143.885 C 357.540 143.225,356.158 142.442,354.322 141.416 C 353.335 140.864,352.481 140.350,352.425 140.274 C 352.369 140.197,352.082 140.005,351.788 139.848 C 350.080 138.932,349.453 138.574,349.362 138.462 C 349.306 138.392,348.846 138.133,348.341 137.885 C 347.220 137.336,345.825 136.542,345.687 136.375 C 345.630 136.308,345.217 136.081,344.768 135.871 C 344.319 135.662,343.859 135.417,343.747 135.328 C 343.210 134.901,342.047 134.210,341.450 133.965 C 341.085 133.815,340.786 133.629,340.786 133.552 C 340.786 133.475,340.396 133.240,339.918 133.029 C 339.441 132.819,338.929 132.526,338.781 132.378 C 338.632 132.229,338.397 132.108,338.258 132.108 C 338.118 132.108,337.826 131.944,337.609 131.743 C 337.391 131.543,336.906 131.253,336.532 131.099 C 336.157 130.945,335.744 130.715,335.613 130.588 C 335.482 130.461,335.054 130.193,334.661 129.993 C 334.267 129.792,333.762 129.520,333.538 129.388 C 333.313 129.256,332.578 128.832,331.904 128.446 C 331.230 128.061,330.633 127.691,330.577 127.624 C 330.521 127.557,330.084 127.331,329.607 127.120 C 329.130 126.910,328.738 126.682,328.737 126.615 C 328.736 126.548,328.345 126.311,327.869 126.088 C 327.393 125.865,326.958 125.635,326.901 125.577 C 326.685 125.353,324.619 124.145,324.452 124.145 C 324.355 124.145,324.155 124.028,324.006 123.886 C 323.858 123.744,323.346 123.454,322.869 123.243 C 322.392 123.031,322.000 122.803,321.999 122.736 C 321.997 122.669,321.607 122.431,321.131 122.208 C 320.655 121.985,320.219 121.745,320.163 121.674 C 320.107 121.603,319.694 121.343,319.245 121.096 C 318.795 120.849,318.060 120.425,317.611 120.154 C 317.162 119.883,316.473 119.499,316.080 119.300 C 315.687 119.101,315.319 118.882,315.263 118.813 C 315.162 118.688,314.069 118.073,312.633 117.332 C 312.226 117.122,311.848 116.884,311.792 116.803 C 311.736 116.722,311.299 116.486,310.822 116.277 C 310.345 116.069,309.954 115.839,309.954 115.765 C 309.954 115.691,309.564 115.459,309.086 115.248 C 308.609 115.038,308.164 114.790,308.098 114.697 C 307.952 114.493,306.858 113.871,305.819 113.402 C 305.398 113.212,305.054 112.987,305.054 112.901 C 305.054 112.815,304.646 112.589,304.148 112.398 C 303.650 112.208,303.200 111.943,303.149 111.809 C 303.097 111.675,302.678 111.441,302.217 111.288 C 301.756 111.136,301.378 110.934,301.378 110.839 C 301.378 110.743,301.011 110.518,300.562 110.339 C 300.112 110.159,299.745 109.937,299.745 109.846 C 299.745 109.754,299.423 109.573,299.030 109.444 C 298.637 109.314,298.315 109.137,298.315 109.050 C 298.315 108.964,297.925 108.721,297.448 108.510 C 296.970 108.300,296.534 108.069,296.478 107.996 C 296.422 107.924,296.008 107.665,295.559 107.422 C 295.110 107.178,294.375 106.755,293.925 106.482 C 293.476 106.209,292.718 105.794,292.241 105.561 C 291.764 105.328,291.373 105.064,291.373 104.975 C 291.373 104.886,291.004 104.691,290.553 104.542 C 290.103 104.393,289.628 104.144,289.498 103.987 C 289.368 103.831,288.979 103.567,288.633 103.401 C 288.287 103.235,287.637 102.873,287.187 102.597 C 286.738 102.320,285.980 101.906,285.503 101.676 C 285.026 101.445,284.635 101.182,284.635 101.090 C 284.635 100.998,284.222 100.765,283.716 100.572 C 283.211 100.379,282.797 100.151,282.797 100.065 C 282.797 99.979,282.453 99.753,282.032 99.563 C 281.015 99.105,279.990 98.523,279.567 98.164 C 279.379 98.003,278.925 97.754,278.560 97.610 C 278.196 97.465,277.897 97.284,277.897 97.207 C 277.897 97.130,277.509 96.896,277.034 96.686 C 276.559 96.477,276.077 96.224,275.962 96.125 C 275.847 96.027,275.457 95.790,275.095 95.599 C 274.380 95.222,271.350 93.481,270.162 92.765 C 269.756 92.520,269.056 92.117,268.606 91.870 C 268.157 91.623,267.744 91.361,267.688 91.289 C 267.631 91.217,267.195 90.985,266.718 90.775 C 266.240 90.565,265.850 90.333,265.850 90.260 C 265.850 90.187,265.529 90.012,265.137 89.870 C 264.746 89.729,264.308 89.496,264.166 89.354 C 264.023 89.211,263.667 88.964,263.374 88.805 C 263.081 88.645,262.438 88.295,261.946 88.028 C 261.454 87.760,261.006 87.484,260.949 87.415 C 260.893 87.346,260.434 87.076,259.929 86.815 C 258.193 85.920,257.376 85.451,257.106 85.197 C 256.958 85.056,256.745 84.941,256.633 84.941 C 256.521 84.941,256.043 84.689,255.572 84.380 C 254.287 83.538,253.980 83.354,253.088 82.892 C 252.639 82.659,251.812 82.203,251.251 81.878 C 250.689 81.553,249.954 81.131,249.617 80.942 C 249.280 80.752,248.959 80.535,248.903 80.460 C 248.846 80.385,248.494 80.200,248.119 80.048 C 247.745 79.897,247.328 79.672,247.193 79.549 C 246.913 79.295,246.342 78.952,245.023 78.247 C 244.518 77.977,244.012 77.681,243.900 77.591 C 243.788 77.500,243.282 77.201,242.777 76.927 C 240.839 75.876,240.440 75.644,240.200 75.428 C 240.064 75.305,239.647 75.080,239.272 74.929 C 238.898 74.777,238.545 74.601,238.489 74.538 C 238.268 74.287,235.862 72.894,235.651 72.894 C 235.527 72.894,235.426 72.812,235.426 72.710 C 235.426 72.609,235.013 72.357,234.508 72.149 C 234.003 71.941,233.590 71.716,233.589 71.649 C 233.589 71.582,233.199 71.352,232.722 71.139 C 232.246 70.925,231.695 70.590,231.497 70.393 C 231.300 70.197,231.007 70.036,230.847 70.036 C 230.686 70.036,230.434 69.921,230.285 69.781 C 230.014 69.524,228.995 68.930,227.667 68.255 C 227.274 68.055,226.829 67.774,226.677 67.631 C 226.525 67.487,226.112 67.236,225.758 67.073 C 225.404 66.910,224.655 66.500,224.094 66.163 C 223.532 65.825,222.728 65.396,222.307 65.209 C 221.886 65.022,221.542 64.805,221.542 64.727 C 221.542 64.649,221.151 64.413,220.674 64.202 C 220.197 63.992,219.733 63.702,219.643 63.559 C 219.553 63.415,219.353 63.298,219.198 63.298 C 219.043 63.298,218.795 63.176,218.647 63.028 C 218.498 62.880,217.986 62.587,217.509 62.376 C 217.032 62.166,216.641 61.934,216.641 61.860 C 216.641 61.786,216.251 61.553,215.773 61.342 C 215.296 61.130,214.814 60.855,214.701 60.730 C 214.589 60.604,214.176 60.378,213.783 60.227 C 213.389 60.076,213.014 59.873,212.948 59.777 C 212.830 59.607,212.151 59.206,210.720 58.462 C 210.327 58.258,209.941 57.992,209.862 57.872 C 209.783 57.751,209.347 57.530,208.892 57.380 C 208.437 57.229,208.065 57.031,208.065 56.938 C 208.065 56.845,207.767 56.631,207.402 56.462 C 207.037 56.293,206.279 55.877,205.717 55.538 C 205.156 55.198,204.313 54.737,203.845 54.512 C 203.376 54.288,202.963 54.037,202.926 53.954 C 202.889 53.871,202.537 53.636,202.144 53.432 C 200.868 52.769,200.007 52.285,199.639 52.024 C 199.224 51.730,198.333 51.244,197.090 50.636 C 196.613 50.402,196.222 50.146,196.221 50.067 C 196.220 49.988,195.806 49.742,195.302 49.520 C 194.797 49.299,194.385 49.060,194.385 48.990 C 194.385 48.920,194.040 48.707,193.619 48.517 C 192.602 48.058,191.577 47.476,191.155 47.117 C 190.966 46.957,190.513 46.708,190.148 46.563 C 189.783 46.419,189.484 46.237,189.484 46.159 C 189.484 46.082,189.048 45.816,188.515 45.568 C 187.466 45.081,186.178 44.341,186.013 44.132 C 185.957 44.061,185.590 43.840,185.197 43.643 C 184.803 43.445,184.160 43.085,183.767 42.843 C 183.374 42.601,182.685 42.199,182.236 41.949 C 178.673 39.971,177.526 39.312,177.437 39.195 C 177.381 39.121,176.968 38.890,176.519 38.683 C 176.069 38.476,175.656 38.247,175.600 38.176 C 175.544 38.104,174.855 37.691,174.068 37.258 C 173.282 36.825,172.593 36.409,172.537 36.332 C 172.481 36.256,172.021 35.993,171.516 35.748 C 170.411 35.213,169.041 34.466,168.760 34.245 C 168.318 33.899,166.147 32.670,165.978 32.670 C 165.880 32.670,165.798 32.601,165.797 32.517 C 165.796 32.432,165.382 32.182,164.878 31.960 C 164.374 31.739,163.961 31.495,163.961 31.419 C 163.961 31.343,163.709 31.181,163.400 31.061 C 163.091 30.940,162.149 30.423,161.307 29.913 C 160.465 29.403,159.523 28.887,159.214 28.766 C 158.905 28.645,158.652 28.463,158.652 28.362 C 158.652 28.261,158.572 28.178,158.473 28.178 C 158.278 28.178,156.051 26.894,155.649 26.551 C 155.316 26.266,154.721 26.298,154.443 26.616"/><path id="path1" fill="#14446b" d="M95.327 0.357 C 95.165 0.554,94.873 1.036,94.679 1.429 C 94.484 1.822,94.056 2.603,93.728 3.165 C 93.399 3.726,92.981 4.498,92.798 4.879 C 92.615 5.261,92.335 5.703,92.175 5.863 C 92.015 6.023,91.828 6.377,91.760 6.650 C 91.691 6.923,91.567 7.147,91.484 7.147 C 91.401 7.147,91.160 7.537,90.947 8.014 C 90.735 8.492,90.400 9.060,90.202 9.278 C 90.004 9.496,89.842 9.788,89.842 9.927 C 89.842 10.066,89.721 10.302,89.572 10.450 C 89.424 10.598,89.131 11.110,88.921 11.588 C 88.710 12.065,88.474 12.455,88.395 12.455 C 88.317 12.455,88.096 12.846,87.906 13.323 C 87.715 13.799,87.494 14.236,87.415 14.292 C 87.274 14.394,85.586 17.295,84.981 18.479 C 84.808 18.816,84.613 19.137,84.547 19.193 C 84.481 19.250,84.244 19.663,84.021 20.112 C 83.797 20.562,83.567 20.975,83.510 21.031 C 83.453 21.087,83.223 21.499,83.000 21.947 C 82.776 22.394,82.493 22.869,82.370 23.001 C 82.247 23.134,82.021 23.549,81.867 23.923 C 81.713 24.298,81.514 24.696,81.424 24.809 C 81.116 25.192,80.347 26.441,80.041 27.055 C 79.873 27.392,79.678 27.713,79.608 27.769 C 79.538 27.825,79.282 28.285,79.040 28.790 C 78.797 29.296,78.371 30.077,78.093 30.526 C 77.814 30.975,77.394 31.733,77.158 32.210 C 76.922 32.688,76.666 33.078,76.588 33.078 C 76.511 33.078,76.332 33.399,76.190 33.791 C 76.048 34.182,75.823 34.619,75.689 34.760 C 75.556 34.902,75.281 35.339,75.079 35.733 C 74.877 36.126,74.487 36.815,74.212 37.264 C 73.937 37.713,73.519 38.448,73.282 38.897 C 73.046 39.347,72.588 40.174,72.265 40.735 C 71.942 41.297,71.515 42.078,71.316 42.471 C 71.117 42.864,70.847 43.255,70.715 43.340 C 70.583 43.425,70.369 43.816,70.239 44.208 C 70.110 44.600,69.927 44.921,69.833 44.921 C 69.738 44.921,69.503 45.334,69.310 45.840 C 69.117 46.345,68.889 46.759,68.803 46.759 C 68.717 46.759,68.477 47.172,68.269 47.677 C 68.062 48.182,67.837 48.595,67.770 48.595 C 67.702 48.596,67.475 48.987,67.263 49.464 C 67.052 49.941,66.776 50.424,66.651 50.536 C 66.526 50.648,66.300 51.062,66.149 51.455 C 65.998 51.848,65.754 52.243,65.607 52.333 C 65.460 52.423,65.339 52.623,65.339 52.778 C 65.339 52.932,65.224 53.181,65.084 53.329 C 64.943 53.477,64.644 53.965,64.420 54.412 C 64.196 54.860,63.903 55.343,63.769 55.487 C 63.636 55.630,63.411 56.068,63.269 56.460 C 63.127 56.851,62.952 57.172,62.879 57.172 C 62.807 57.172,62.574 57.563,62.362 58.040 C 62.151 58.517,61.859 59.032,61.713 59.183 C 61.567 59.335,61.316 59.748,61.155 60.102 C 60.994 60.456,60.631 61.113,60.350 61.562 C 60.069 62.011,59.650 62.746,59.418 63.196 C 59.187 63.645,58.770 64.380,58.492 64.829 C 58.214 65.278,57.791 66.013,57.552 66.462 C 57.313 66.912,57.058 67.325,56.986 67.381 C 56.914 67.437,56.682 67.874,56.472 68.351 C 56.261 68.828,56.011 69.219,55.916 69.219 C 55.821 69.219,55.743 69.291,55.743 69.378 C 55.743 69.569,52.384 75.547,52.081 75.894 C 51.965 76.028,51.720 76.510,51.538 76.966 C 51.356 77.422,51.138 77.795,51.055 77.795 C 50.972 77.795,50.733 78.208,50.525 78.714 C 50.316 79.219,50.079 79.632,49.997 79.632 C 49.916 79.632,49.790 79.818,49.718 80.045 C 49.646 80.272,49.229 81.030,48.791 81.730 C 48.354 82.429,47.809 83.369,47.581 83.818 C 47.352 84.267,46.898 85.094,46.572 85.656 C 46.245 86.217,45.800 86.998,45.583 87.392 C 45.366 87.785,45.014 88.424,44.800 88.812 C 44.586 89.199,44.301 89.637,44.168 89.784 C 44.034 89.930,43.809 90.371,43.667 90.763 C 43.525 91.155,43.333 91.475,43.239 91.475 C 43.145 91.475,42.883 91.866,42.655 92.343 C 42.050 93.613,41.503 94.604,41.244 94.900 C 41.119 95.043,40.874 95.502,40.700 95.921 C 40.525 96.339,40.320 96.728,40.244 96.784 C 40.105 96.886,38.405 99.814,37.814 100.970 C 37.641 101.307,37.446 101.628,37.380 101.685 C 37.314 101.741,37.077 102.153,36.854 102.600 C 36.630 103.048,36.338 103.531,36.204 103.674 C 36.071 103.818,35.846 104.255,35.704 104.647 C 35.562 105.039,35.387 105.360,35.314 105.360 C 35.241 105.360,35.010 105.750,34.799 106.228 C 34.589 106.705,34.365 107.141,34.303 107.198 C 34.085 107.393,32.670 109.882,32.670 110.071 C 32.670 110.175,32.596 110.260,32.505 110.260 C 32.414 110.260,32.170 110.651,31.961 111.128 C 31.753 111.605,31.522 112.042,31.447 112.098 C 31.372 112.154,31.169 112.476,30.995 112.813 C 30.305 114.155,29.558 115.472,29.433 115.569 C 29.360 115.625,29.117 116.032,28.892 116.472 C 28.390 117.456,27.703 118.693,27.101 119.694 C 26.851 120.110,26.195 121.258,25.643 122.246 C 25.091 123.234,24.583 124.089,24.514 124.145 C 24.445 124.201,24.217 124.638,24.006 125.115 C 23.796 125.592,23.560 125.983,23.481 125.983 C 23.403 125.983,23.184 126.327,22.994 126.748 C 22.528 127.781,21.919 128.887,21.642 129.203 C 21.517 129.346,21.284 129.776,21.124 130.159 C 20.964 130.542,20.742 130.911,20.632 130.980 C 20.521 131.048,20.241 131.491,20.009 131.964 C 19.176 133.661,18.748 134.420,18.463 134.706 C 18.303 134.865,18.173 135.121,18.173 135.273 C 18.173 135.426,18.045 135.677,17.890 135.833 C 17.734 135.988,17.390 136.513,17.124 136.998 C 16.047 138.967,15.690 139.598,15.213 140.378 C 14.939 140.827,14.523 141.562,14.289 142.011 C 14.054 142.460,13.597 143.241,13.272 143.747 C 12.947 144.252,12.490 145.033,12.256 145.482 C 12.023 145.932,11.614 146.667,11.349 147.116 C 10.613 148.362,9.861 149.683,9.371 150.587 C 9.128 151.036,8.863 151.450,8.783 151.506 C 8.702 151.562,8.467 151.975,8.259 152.425 C 8.052 152.874,7.814 153.289,7.731 153.348 C 7.648 153.406,7.476 153.682,7.349 153.960 C 7.222 154.239,6.872 154.888,6.571 155.402 C 6.270 155.917,5.813 156.725,5.556 157.198 C 5.298 157.670,4.908 158.237,4.688 158.457 C 4.468 158.677,4.288 158.988,4.288 159.148 C 4.288 159.309,4.157 159.571,3.998 159.730 C 3.711 160.016,3.281 160.780,2.448 162.481 C 2.214 162.958,1.949 163.349,1.859 163.349 C 1.769 163.349,1.542 163.693,1.354 164.114 C 1.166 164.535,0.792 165.248,0.523 165.697 C -0.360 167.169,-0.229 167.432,1.384 167.432 C 3.074 167.432,6.137 167.064,6.425 166.826 C 6.541 166.730,7.004 166.588,7.453 166.509 C 7.902 166.430,8.453 166.254,8.678 166.117 C 8.903 165.980,9.569 165.696,10.158 165.487 C 10.748 165.277,11.230 165.044,11.230 164.970 C 11.230 164.895,11.644 164.676,12.149 164.483 C 12.654 164.290,13.068 164.064,13.068 163.982 C 13.068 163.900,13.389 163.679,13.783 163.492 C 14.176 163.304,14.497 163.064,14.497 162.957 C 14.497 162.851,14.658 162.709,14.855 162.641 C 15.051 162.574,15.753 162.016,16.414 161.402 C 17.075 160.788,17.742 160.286,17.895 160.286 C 18.047 160.286,18.173 160.194,18.173 160.082 C 18.173 159.697,18.532 159.878,19.424 160.711 C 19.915 161.169,20.554 161.766,20.844 162.038 C 21.134 162.310,21.475 162.532,21.602 162.532 C 21.730 162.532,21.932 162.716,22.052 162.940 C 22.172 163.165,22.361 163.349,22.473 163.349 C 22.648 163.349,24.423 164.463,25.019 164.947 C 25.134 165.041,25.663 165.284,26.193 165.486 C 26.723 165.689,27.157 165.923,27.157 166.007 C 27.157 166.090,27.592 166.268,28.124 166.402 C 28.656 166.536,29.197 166.734,29.326 166.841 C 29.640 167.101,32.171 167.629,33.129 167.633 C 33.550 167.635,33.895 167.728,33.895 167.841 C 33.895 167.966,34.848 168.045,36.345 168.045 C 37.842 168.045,38.795 167.966,38.795 167.841 C 38.795 167.728,39.111 167.637,39.497 167.637 C 40.381 167.637,43.082 167.075,43.377 166.830 C 43.499 166.729,44.034 166.536,44.566 166.402 C 45.098 166.268,45.533 166.095,45.533 166.016 C 45.533 165.938,46.039 165.714,46.656 165.519 C 47.274 165.325,47.781 165.101,47.782 165.023 C 47.783 164.944,48.174 164.698,48.650 164.475 C 49.126 164.252,49.589 163.953,49.678 163.811 C 49.768 163.669,49.958 163.553,50.099 163.553 C 50.241 163.553,50.535 163.392,50.753 163.196 C 50.971 162.999,51.483 162.589,51.890 162.285 C 52.298 161.980,53.056 161.307,53.575 160.788 C 54.093 160.270,54.518 159.947,54.518 160.072 C 54.518 160.197,54.678 160.357,54.875 160.428 C 55.071 160.500,55.567 160.818,55.976 161.137 C 56.386 161.455,56.822 161.715,56.946 161.715 C 57.070 161.715,57.172 161.805,57.172 161.914 C 57.172 162.024,57.471 162.266,57.836 162.453 C 58.201 162.640,58.545 162.856,58.601 162.933 C 58.657 163.010,59.025 163.250,59.418 163.466 C 59.811 163.682,60.185 163.929,60.249 164.015 C 60.368 164.176,61.179 164.620,63.363 165.719 C 65.728 166.910,66.462 167.196,67.790 167.445 C 68.520 167.583,69.242 167.794,69.395 167.914 C 69.762 168.203,76.132 168.212,76.326 167.924 C 76.404 167.809,77.105 167.600,77.883 167.459 C 78.662 167.319,79.676 167.033,80.136 166.823 C 80.597 166.613,81.223 166.379,81.528 166.302 C 81.833 166.226,82.083 166.099,82.083 166.021 C 82.083 165.943,82.542 165.714,83.104 165.512 C 83.665 165.311,84.126 165.086,84.127 165.013 C 84.128 164.940,84.496 164.704,84.944 164.490 C 85.392 164.275,85.758 164.042,85.758 163.972 C 85.758 163.902,86.057 163.671,86.422 163.459 C 86.787 163.247,87.131 163.018,87.187 162.951 C 87.821 162.191,90.995 160.008,91.107 160.254 C 91.242 160.552,94.031 162.736,94.276 162.736 C 94.420 162.736,94.538 162.826,94.538 162.935 C 94.538 163.044,94.837 163.287,95.202 163.474 C 95.567 163.661,95.911 163.870,95.967 163.939 C 96.220 164.247,100.717 166.318,101.589 166.527 C 101.922 166.607,102.287 166.735,102.399 166.812 C 102.779 167.073,104.281 167.433,105.544 167.565 C 106.236 167.637,106.850 167.775,106.910 167.870 C 107.065 168.121,111.485 168.093,111.485 167.841 C 111.485 167.728,111.801 167.637,112.187 167.637 C 113.752 167.637,116.486 166.850,118.977 165.683 C 119.559 165.410,120.134 165.186,120.253 165.186 C 120.372 165.186,120.470 165.106,120.470 165.007 C 120.470 164.908,120.743 164.714,121.077 164.576 C 121.410 164.438,121.939 164.105,122.251 163.837 C 122.563 163.569,122.912 163.349,123.028 163.349 C 123.143 163.349,123.384 163.188,123.562 162.991 C 123.741 162.795,124.404 162.269,125.037 161.823 C 125.669 161.378,126.187 160.956,126.187 160.886 C 126.187 160.232,127.653 160.299,128.358 160.985 C 129.033 161.643,130.591 162.736,130.852 162.736 C 130.981 162.736,131.087 162.821,131.087 162.925 C 131.087 163.132,131.446 163.339,134.354 164.813 C 135.421 165.354,136.409 165.797,136.549 165.798 C 136.690 165.798,136.804 165.882,136.804 165.983 C 136.804 166.084,137.287 166.280,137.876 166.418 C 138.466 166.556,139.040 166.739,139.153 166.824 C 139.450 167.050,141.558 167.459,143.441 167.655 C 144.339 167.749,145.427 167.886,145.858 167.960 C 146.322 168.039,146.823 167.998,147.083 167.859 C 147.402 167.689,149.398 167.652,154.262 167.725 C 181.007 168.126,399.493 168.484,399.850 168.127 C 400.105 167.872,399.733 167.443,399.063 167.222 C 398.680 167.096,398.367 166.919,398.367 166.829 C 398.367 166.739,398.068 166.547,397.703 166.403 C 397.338 166.258,396.885 166.009,396.696 165.848 C 396.315 165.525,395.361 164.974,394.304 164.467 C 393.923 164.285,393.485 164.010,393.332 163.856 C 393.179 163.703,392.733 163.462,392.341 163.320 C 391.949 163.178,391.628 162.993,391.628 162.909 C 391.628 162.824,391.238 162.564,390.761 162.330 C 389.076 161.505,388.297 161.068,388.023 160.794 C 387.871 160.641,387.540 160.452,387.288 160.374 C 387.036 160.295,386.784 160.164,386.728 160.082 C 386.523 159.782,384.920 159.074,384.855 159.254 C 384.798 159.412,250.316 159.226,165.799 158.951 C 143.198 158.878,139.759 158.762,139.255 158.060 C 139.199 157.982,138.739 157.798,138.234 157.651 C 137.728 157.504,136.745 157.118,136.047 156.793 C 135.350 156.468,134.684 156.202,134.567 156.202 C 134.450 156.202,134.354 156.105,134.354 155.987 C 134.354 155.869,134.079 155.676,133.742 155.559 C 133.405 155.442,133.129 155.283,133.129 155.208 C 133.129 155.132,132.785 154.889,132.363 154.667 C 131.942 154.446,131.478 154.103,131.331 153.906 C 131.184 153.709,130.935 153.548,130.777 153.548 C 130.618 153.548,130.395 153.372,130.280 153.156 C 129.998 152.630,127.201 150.786,127.034 151.017 C 126.961 151.118,126.626 151.336,126.289 151.503 C 125.952 151.669,125.493 151.971,125.268 152.173 C 124.252 153.086,123.510 153.688,122.819 154.160 C 122.408 154.441,121.836 154.877,121.547 155.130 C 121.259 155.383,120.903 155.590,120.756 155.590 C 120.610 155.590,120.416 155.713,120.327 155.864 C 120.237 156.015,119.727 156.303,119.193 156.504 C 118.660 156.706,118.224 156.935,118.224 157.014 C 118.224 157.094,117.649 157.327,116.947 157.533 C 116.246 157.739,115.569 157.984,115.445 158.077 C 114.216 158.996,103.371 158.970,102.705 158.046 C 102.649 157.968,101.937 157.733,101.123 157.524 C 100.309 157.315,99.643 157.070,99.643 156.980 C 99.643 156.889,99.536 156.815,99.406 156.815 C 99.032 156.815,96.087 155.311,95.906 155.028 C 95.816 154.888,95.632 154.773,95.496 154.773 C 95.360 154.773,94.882 154.453,94.434 154.062 C 93.986 153.671,93.555 153.350,93.476 153.347 C 93.305 153.343,92.083 152.104,91.551 151.396 C 91.181 150.902,90.759 150.744,90.624 151.048 C 90.565 151.182,89.320 152.187,87.838 153.296 C 87.578 153.491,87.208 153.788,87.016 153.956 C 86.824 154.125,86.325 154.444,85.906 154.666 C 85.488 154.888,85.145 155.132,85.145 155.208 C 85.145 155.283,84.870 155.442,84.533 155.559 C 84.196 155.676,83.920 155.851,83.920 155.947 C 83.920 156.043,83.461 156.287,82.899 156.489 C 82.338 156.691,81.879 156.924,81.879 157.007 C 81.879 157.090,81.488 157.280,81.011 157.430 C 80.533 157.580,79.913 157.911,79.632 158.166 C 78.247 159.424,72.005 159.926,68.258 159.080 C 64.826 158.305,60.560 156.243,60.307 155.238 C 60.243 154.982,60.120 154.773,60.033 154.773 C 59.947 154.773,59.153 154.218,58.269 153.539 C 57.385 152.861,56.432 152.251,56.151 152.185 C 55.870 152.118,55.403 151.927,55.114 151.761 C 54.603 151.468,54.537 151.499,52.945 152.784 C 46.145 158.274,39.139 160.442,32.610 159.078 C 30.328 158.601,30.394 158.805,31.769 156.471 C 32.419 155.369,33.655 153.226,34.516 151.710 C 37.069 147.215,40.005 142.081,42.573 137.621 C 43.899 135.319,45.874 131.873,46.963 129.964 C 48.052 128.055,50.024 124.609,51.347 122.307 C 52.669 120.005,53.961 117.754,54.219 117.305 C 54.476 116.856,55.376 115.294,56.217 113.834 C 57.059 112.374,58.846 109.250,60.189 106.891 C 62.281 103.216,65.792 97.081,66.966 95.048 C 67.161 94.712,68.081 93.104,69.011 91.475 C 69.941 89.847,70.865 88.239,71.063 87.902 C 71.262 87.565,72.341 85.681,73.462 83.716 C 76.205 78.904,77.492 76.661,79.724 72.792 C 80.760 70.995,82.095 68.652,82.689 67.586 C 83.284 66.519,83.975 65.324,84.226 64.931 C 84.476 64.538,85.673 62.471,86.886 60.337 C 89.424 55.872,91.996 51.356,92.621 50.266 C 93.944 47.960,97.184 42.324,98.921 39.306 C 100.020 37.397,101.996 33.951,103.313 31.649 C 104.629 29.347,106.422 26.223,107.297 24.706 C 108.171 23.190,109.029 21.674,109.203 21.337 C 109.377 21.001,109.832 20.235,110.214 19.635 C 110.969 18.450,110.906 17.607,110.028 17.137 C 109.819 17.025,109.648 16.825,109.648 16.692 C 109.648 16.560,109.467 16.264,109.246 16.036 C 108.594 15.363,106.381 12.691,106.381 12.578 C 106.381 12.521,106.174 12.249,105.921 11.974 C 105.669 11.698,105.369 11.350,105.254 11.199 C 104.940 10.782,102.438 7.690,102.200 7.423 C 102.085 7.294,101.761 6.888,101.480 6.521 C 101.200 6.153,100.786 5.657,100.561 5.418 C 100.336 5.178,99.985 4.728,99.782 4.418 C 99.578 4.107,99.278 3.698,99.115 3.509 C 98.952 3.320,98.568 2.876,98.261 2.522 C 97.954 2.169,97.519 1.634,97.295 1.335 C 96.221 -0.095,95.852 -0.279,95.327 0.357 M123.393 34.329 C 123.265 34.483,122.039 36.585,120.668 38.999 C 118.100 43.523,114.277 50.213,112.209 53.803 C 110.617 56.568,110.599 56.623,111.140 57.240 C 111.386 57.521,111.792 58.011,112.043 58.329 C 113.864 60.645,114.338 61.139,114.541 60.934 C 114.644 60.830,116.305 57.989,118.232 54.620 C 120.160 51.251,121.808 48.402,121.895 48.290 C 122.019 48.129,123.944 44.741,126.071 40.939 C 126.197 40.715,126.556 40.132,126.870 39.645 L 127.440 38.758 126.312 37.297 C 124.239 34.612,123.652 34.015,123.393 34.329 M138.860 54.498 C 138.628 54.824,138.438 55.127,138.438 55.171 C 138.438 55.215,137.415 57.038,136.164 59.223 C 134.914 61.408,132.928 64.895,131.750 66.973 C 130.573 69.051,129.221 71.394,128.746 72.180 C 128.271 72.966,127.550 74.237,127.144 75.005 L 126.405 76.400 127.368 77.581 C 127.898 78.231,128.560 79.059,128.841 79.423 C 129.122 79.786,129.444 80.189,129.558 80.317 C 129.671 80.446,130.820 81.883,132.110 83.510 C 133.401 85.138,134.567 86.608,134.702 86.777 C 134.837 86.947,135.389 87.643,135.927 88.325 C 137.893 90.813,138.137 91.120,138.438 91.483 C 138.606 91.686,138.974 92.151,139.255 92.515 C 139.535 92.880,139.972 93.396,140.225 93.663 C 140.477 93.930,140.684 94.196,140.684 94.255 C 140.684 94.313,140.983 94.731,141.348 95.182 C 143.108 97.359,143.214 97.384,144.052 95.824 C 144.341 95.285,144.803 94.477,145.077 94.028 C 145.351 93.578,145.729 92.866,145.917 92.445 C 146.105 92.024,146.323 91.679,146.401 91.679 C 146.479 91.679,146.717 91.289,146.928 90.812 C 147.140 90.334,147.424 89.828,147.559 89.686 C 147.695 89.545,147.922 89.108,148.063 88.717 C 148.205 88.325,148.380 88.004,148.453 88.004 C 148.526 88.004,148.760 87.614,148.974 87.138 C 149.187 86.662,149.523 86.110,149.719 85.913 C 149.916 85.715,150.077 85.416,150.077 85.248 C 150.077 85.079,150.159 84.941,150.261 84.941 C 150.362 84.941,150.614 84.528,150.822 84.023 C 151.030 83.518,151.255 83.105,151.322 83.104 C 151.389 83.104,151.617 82.713,151.830 82.236 C 152.042 81.759,152.288 81.276,152.378 81.164 C 152.701 80.758,153.956 78.558,153.956 78.397 C 153.956 78.307,154.074 78.111,154.219 77.963 C 154.364 77.814,154.643 77.371,154.841 76.978 C 155.038 76.585,155.372 75.988,155.584 75.651 C 156.095 74.836,156.086 74.625,155.510 73.965 C 154.985 73.362,150.717 68.092,144.972 60.950 C 143.007 58.508,140.923 55.923,140.341 55.207 L 139.282 53.905 138.860 54.498 M126.340 183.188 C 125.807 183.306,125.370 183.485,125.370 183.585 C 125.370 183.685,125.228 183.767,125.054 183.767 C 124.348 183.767,123.308 184.454,121.960 185.809 C 120.712 187.065,120.583 187.236,120.262 188.055 C 120.108 188.448,119.923 188.816,119.851 188.872 C 118.892 189.618,118.851 197.747,119.803 198.455 C 119.889 198.518,120.118 198.915,120.313 199.336 C 120.508 199.758,120.761 200.102,120.875 200.102 C 120.989 200.102,121.085 200.217,121.089 200.357 C 121.102 200.843,123.185 202.757,123.700 202.757 C 123.817 202.757,124.033 202.872,124.181 203.014 C 125.666 204.432,131.417 204.510,134.048 203.148 C 135.262 202.519,137.409 200.624,137.414 200.175 C 137.416 200.047,137.532 199.897,137.673 199.843 C 137.814 199.789,138.056 199.389,138.212 198.954 C 138.368 198.518,138.576 198.110,138.674 198.046 C 138.772 197.983,138.950 197.385,139.070 196.719 C 139.190 196.053,139.372 195.226,139.476 194.881 C 139.718 194.071,139.715 192.645,139.471 191.847 C 139.365 191.502,139.175 190.692,139.048 190.046 C 138.921 189.400,138.732 188.872,138.628 188.872 C 138.523 188.872,138.438 188.745,138.438 188.589 C 138.438 187.841,136.039 184.788,135.451 184.788 C 135.297 184.788,135.171 184.694,135.171 184.579 C 135.171 184.464,134.941 184.282,134.660 184.175 C 134.379 184.068,133.713 183.781,133.180 183.537 C 132.049 183.019,128.028 182.813,126.340 183.188 M218.791 183.190 C 218.233 183.296,217.682 183.457,217.566 183.547 C 217.450 183.637,217.080 183.776,216.743 183.856 C 215.084 184.248,212.509 186.529,211.798 188.237 C 211.629 188.642,211.404 189.028,211.298 189.095 C 210.403 189.658,210.444 198.060,211.342 198.060 C 211.413 198.060,211.598 198.444,211.753 198.914 C 212.039 199.781,214.743 202.757,215.245 202.757 C 215.378 202.757,215.631 202.882,215.808 203.035 C 217.351 204.365,226.440 204.489,227.243 203.191 C 227.310 203.082,227.616 202.930,227.923 202.853 C 228.466 202.717,228.558 201.866,228.067 201.531 C 227.984 201.475,227.797 201.029,227.651 200.540 C 227.505 200.051,227.265 199.605,227.118 199.548 C 226.818 199.433,224.085 200.021,223.535 200.318 C 222.474 200.893,218.606 200.153,217.369 199.138 C 216.633 198.536,215.620 197.359,215.620 197.107 C 215.620 196.974,215.459 196.704,215.263 196.507 C 214.844 196.088,214.720 191.229,215.121 190.958 C 215.240 190.877,215.454 190.524,215.596 190.172 C 216.399 188.185,218.450 186.972,221.194 186.862 C 223.151 186.784,225.516 187.100,225.745 187.472 C 226.182 188.179,227.079 187.478,227.549 186.062 C 227.743 185.476,227.983 184.947,228.082 184.886 C 228.505 184.625,227.959 184.179,226.935 183.950 C 226.327 183.814,225.830 183.636,225.830 183.555 C 225.830 183.080,220.750 182.816,218.791 183.190 M282.200 183.160 C 281.702 183.264,281.243 183.431,281.179 183.529 C 281.114 183.627,280.736 183.814,280.338 183.944 C 279.183 184.320,276.468 186.726,276.468 187.372 C 276.468 187.512,276.343 187.700,276.190 187.790 C 276.038 187.880,275.796 188.321,275.653 188.770 C 275.510 189.219,275.312 189.689,275.214 189.814 C 274.890 190.225,274.601 193.432,274.748 194.997 C 275.154 199.336,277.956 202.845,281.776 203.798 C 283.947 204.340,289.191 203.960,289.721 203.223 C 289.787 203.130,290.117 202.933,290.454 202.785 C 291.058 202.519,291.295 202.334,292.328 201.327 C 293.173 200.502,294.382 198.514,294.536 197.695 C 294.614 197.279,294.784 196.872,294.914 196.792 C 295.225 196.600,295.247 190.148,294.938 189.936 C 294.821 189.856,294.595 189.388,294.437 188.896 C 294.278 188.404,294.029 187.882,293.884 187.736 C 293.738 187.591,293.619 187.373,293.619 187.253 C 293.619 186.681,291.099 184.547,289.583 183.834 C 287.864 183.027,284.354 182.706,282.200 183.160 M321.593 183.162 C 321.088 183.268,320.644 183.448,320.606 183.561 C 320.569 183.674,320.403 183.767,320.238 183.767 C 319.922 183.767,318.876 184.264,318.368 184.657 C 317.779 185.111,315.875 187.073,315.875 187.226 C 315.875 187.311,315.700 187.583,315.485 187.830 C 315.270 188.078,314.981 188.758,314.843 189.342 C 314.704 189.926,314.490 190.468,314.367 190.548 C 314.068 190.741,314.062 196.262,314.361 196.653 C 314.481 196.809,314.693 197.335,314.832 197.822 C 315.359 199.664,317.349 202.130,318.836 202.785 C 319.173 202.933,319.503 203.130,319.570 203.223 C 320.439 204.432,327.433 204.303,329.398 203.041 C 329.817 202.772,330.218 202.552,330.290 202.552 C 330.552 202.552,332.778 200.156,332.914 199.727 C 332.991 199.484,333.136 199.285,333.235 199.285 C 333.334 199.285,333.578 198.757,333.777 198.111 C 333.976 197.466,334.233 196.872,334.349 196.792 C 334.672 196.567,334.629 190.257,334.303 190.148 C 334.163 190.101,334.048 189.913,334.048 189.729 C 334.048 189.230,333.406 187.647,333.204 187.647 C 333.106 187.647,333.027 187.515,333.027 187.354 C 333.027 186.712,330.586 184.584,328.986 183.832 C 327.269 183.025,323.760 182.707,321.593 183.162 M345.295 183.182 C 344.687 183.283,344.090 183.444,343.968 183.540 C 343.846 183.636,343.401 183.825,342.979 183.961 C 342.557 184.097,342.098 184.316,341.958 184.448 C 341.819 184.580,341.223 185.051,340.633 185.495 C 340.043 185.938,339.561 186.409,339.561 186.541 C 339.561 186.672,339.428 186.891,339.265 187.026 C 338.076 188.012,337.315 190.566,337.315 193.568 C 337.315 197.609,338.240 199.674,341.194 202.231 C 341.363 202.377,341.730 202.614,342.011 202.759 C 342.292 202.903,342.568 203.090,342.624 203.173 C 343.404 204.329,351.448 204.433,353.591 203.314 C 356.093 202.007,355.896 202.551,355.896 196.952 L 355.896 192.139 351.200 192.139 L 346.503 192.139 346.503 193.977 L 346.503 195.814 349.165 195.814 L 351.827 195.814 351.768 197.805 L 351.710 199.796 350.944 199.985 C 350.523 200.089,350.179 200.250,350.179 200.342 C 350.179 200.573,347.372 200.556,347.229 200.324 C 347.166 200.222,346.745 200.075,346.294 199.999 C 344.981 199.777,343.111 198.356,342.275 196.945 C 340.442 193.850,341.576 189.343,344.564 187.851 C 344.900 187.683,345.222 187.485,345.279 187.410 C 345.877 186.624,350.216 186.786,352.008 187.661 C 353.374 188.328,354.078 188.295,354.439 187.545 C 354.601 187.208,354.790 186.886,354.860 186.830 C 355.060 186.667,355.487 185.615,355.487 185.284 C 355.487 185.118,355.267 184.898,354.997 184.796 C 354.727 184.693,354.454 184.524,354.390 184.420 C 354.325 184.317,353.834 184.111,353.298 183.963 C 352.761 183.816,352.276 183.628,352.219 183.545 C 351.897 183.074,347.374 182.837,345.295 183.182 M390.111 183.177 C 389.444 183.274,388.847 183.436,388.783 183.537 C 388.720 183.639,388.301 183.874,387.854 184.060 C 386.999 184.416,385.503 185.854,385.503 186.320 C 385.503 186.469,385.388 186.630,385.248 186.677 C 385.064 186.738,384.992 187.386,384.992 188.974 C 384.992 190.562,385.064 191.210,385.248 191.271 C 385.388 191.318,385.503 191.484,385.503 191.640 C 385.503 192.104,387.252 193.711,388.040 193.971 C 388.441 194.104,388.770 194.275,388.770 194.352 C 388.770 194.429,389.390 194.668,390.148 194.882 C 390.906 195.097,391.572 195.330,391.628 195.400 C 391.685 195.470,392.311 195.686,393.020 195.880 C 394.272 196.221,394.484 196.333,395.318 197.090 C 396.522 198.183,394.978 200.108,392.902 200.103 C 392.648 200.103,392.263 200.213,392.047 200.348 C 391.760 200.527,391.526 200.534,391.182 200.376 C 390.922 200.256,389.916 200.008,388.946 199.824 C 387.976 199.640,386.919 199.352,386.598 199.184 C 385.457 198.589,385.184 198.741,384.765 200.204 C 384.556 200.934,384.315 201.531,384.229 201.531 C 384.144 201.531,384.074 201.807,384.074 202.144 C 384.074 202.481,384.170 202.757,384.289 202.757 C 384.407 202.757,384.923 202.947,385.435 203.180 C 388.198 204.439,396.481 204.432,396.901 203.170 C 396.940 203.055,397.094 202.961,397.244 202.961 C 398.490 202.961,399.884 200.281,399.867 197.921 C 399.854 196.035,399.521 195.175,398.403 194.127 C 397.571 193.348,397.312 193.181,396.403 192.840 C 395.855 192.634,395.360 192.406,395.304 192.334 C 395.248 192.261,394.535 192.039,393.719 191.841 C 392.904 191.643,392.188 191.402,392.128 191.305 C 392.069 191.208,391.679 191.037,391.262 190.924 C 388.140 190.080,388.596 187.379,391.935 186.944 C 392.948 186.812,395.752 187.107,396.195 187.393 C 397.396 188.164,398.286 188.078,398.479 187.170 C 398.555 186.815,398.790 186.138,399.002 185.667 C 399.601 184.336,399.223 183.767,397.741 183.767 C 397.542 183.767,397.349 183.683,397.312 183.579 C 397.131 183.080,392.538 182.823,390.111 183.177 M5.309 193.568 L 5.309 203.982 7.347 203.982 L 9.385 203.982 9.440 198.928 C 9.501 193.269,9.342 193.627,10.911 195.610 C 11.310 196.115,11.758 196.667,11.906 196.835 C 12.175 197.142,15.351 201.074,15.926 201.812 C 16.095 202.028,16.371 202.354,16.539 202.535 C 16.708 202.717,17.008 203.117,17.207 203.423 C 17.596 204.022,22.256 204.337,22.256 203.764 C 22.256 203.464,21.885 202.797,21.475 202.363 C 21.107 201.973,20.925 201.752,19.690 200.189 C 18.878 199.162,18.694 198.938,17.764 197.847 C 17.483 197.518,17.045 196.995,16.790 196.684 C 16.535 196.374,15.810 195.497,15.177 194.735 C 13.873 193.162,13.872 193.187,15.304 191.526 C 15.740 191.021,16.282 190.378,16.509 190.097 C 16.735 189.816,17.194 189.265,17.528 188.872 C 17.863 188.479,18.420 187.824,18.767 187.416 C 19.114 187.008,19.398 186.571,19.398 186.446 C 19.398 186.320,19.473 186.217,19.565 186.217 C 19.785 186.217,21.848 183.641,21.848 183.366 C 21.848 183.018,17.210 183.087,17.009 183.439 C 16.809 183.786,15.652 185.194,14.752 186.185 C 14.387 186.586,14.089 186.974,14.089 187.046 C 14.089 187.119,13.836 187.457,13.527 187.799 C 12.871 188.525,12.222 189.290,11.230 190.508 C 10.837 190.991,10.263 191.661,9.954 191.997 L 9.393 192.608 9.393 187.881 L 9.393 183.155 7.351 183.155 L 5.309 183.155 5.309 193.568 M24.706 193.550 L 24.706 203.982 26.748 203.982 L 28.790 203.982 28.790 200.000 L 28.790 196.018 30.178 196.018 L 31.567 196.018 31.824 196.731 C 31.966 197.123,32.191 197.562,32.325 197.708 C 32.572 197.977,32.910 198.537,33.708 200.000 C 33.953 200.449,34.219 200.863,34.298 200.919 C 34.377 200.975,34.612 201.411,34.820 201.889 C 35.028 202.366,35.262 202.757,35.339 202.757 C 35.416 202.757,35.593 203.032,35.733 203.369 L 35.986 203.982 38.310 203.982 C 39.826 203.982,40.633 203.906,40.633 203.763 C 40.633 203.541,39.632 201.719,39.407 201.531 C 39.340 201.475,39.126 201.089,38.932 200.672 C 38.739 200.256,38.487 199.858,38.373 199.787 C 38.259 199.717,38.022 199.299,37.846 198.860 C 37.670 198.420,37.458 198.060,37.375 198.060 C 37.292 198.060,37.058 197.693,36.856 197.243 C 36.653 196.794,36.420 196.427,36.338 196.427 C 36.256 196.427,36.132 196.266,36.062 196.069 C 35.993 195.873,35.883 195.597,35.817 195.457 C 35.752 195.316,35.807 195.202,35.940 195.202 C 36.912 195.202,38.873 193.553,39.518 192.196 C 40.471 190.188,39.651 184.992,38.382 184.992 C 38.307 184.992,38.033 184.808,37.773 184.583 C 37.514 184.358,36.926 184.074,36.466 183.951 C 36.006 183.828,35.502 183.621,35.344 183.492 C 35.150 183.333,33.392 183.235,29.882 183.188 L 24.706 183.119 24.706 193.550 M48.689 184.431 C 48.481 185.133,48.253 185.753,48.185 185.809 C 48.116 185.865,47.893 186.462,47.688 187.136 C 47.483 187.810,47.234 188.464,47.136 188.590 C 47.037 188.716,46.819 189.282,46.651 189.848 C 46.483 190.413,46.213 191.132,46.050 191.445 C 45.888 191.758,45.642 192.456,45.503 192.995 C 45.365 193.535,45.189 193.977,45.113 193.977 C 45.037 193.977,44.856 194.413,44.712 194.946 C 44.567 195.480,44.370 196.019,44.273 196.145 C 44.177 196.271,43.952 196.868,43.774 197.472 C 43.596 198.076,43.381 198.663,43.298 198.775 C 43.214 198.887,42.988 199.484,42.796 200.102 C 42.604 200.720,42.269 201.615,42.051 202.091 C 41.249 203.840,41.365 203.982,43.600 203.982 C 45.275 203.982,45.562 203.932,45.658 203.624 C 45.720 203.428,45.936 202.899,46.137 202.450 C 46.339 202.001,46.627 201.197,46.778 200.664 C 46.929 200.130,47.117 199.694,47.197 199.694 C 47.277 199.694,47.372 199.487,47.408 199.234 C 47.472 198.780,47.515 198.774,51.048 198.719 L 54.623 198.664 55.071 199.842 C 55.317 200.491,55.575 201.228,55.644 201.480 C 55.713 201.733,55.839 201.940,55.922 201.940 C 56.006 201.940,56.192 202.399,56.336 202.961 L 56.597 203.982 58.620 203.982 C 60.562 203.982,60.643 203.964,60.643 203.537 C 60.643 203.075,60.220 201.710,60.022 201.531 C 59.960 201.475,59.789 201.016,59.642 200.510 C 59.496 200.005,59.211 199.224,59.009 198.775 C 58.807 198.326,58.531 197.545,58.396 197.039 C 58.261 196.534,58.087 196.075,58.009 196.018 C 57.931 195.962,57.747 195.503,57.601 194.997 C 57.454 194.492,57.167 193.708,56.962 193.255 C 56.757 192.802,56.523 192.158,56.441 191.825 C 56.359 191.492,56.123 190.900,55.916 190.508 C 55.708 190.117,55.539 189.655,55.539 189.482 C 55.539 189.309,55.414 188.986,55.263 188.764 C 55.111 188.543,54.818 187.810,54.612 187.136 C 54.406 186.462,54.181 185.865,54.112 185.809 C 54.044 185.753,53.817 185.133,53.608 184.431 L 53.228 183.155 51.149 183.155 L 49.069 183.155 48.689 184.431 M63.093 193.568 L 63.093 203.982 65.132 203.982 L 67.170 203.982 67.225 198.834 L 67.279 193.687 68.991 195.874 C 69.933 197.076,70.783 198.060,70.880 198.060 C 70.977 198.060,71.057 198.193,71.057 198.355 C 71.057 198.517,71.219 198.770,71.418 198.916 C 71.616 199.063,71.944 199.442,72.146 199.758 C 72.348 200.075,72.668 200.509,72.857 200.722 C 73.046 200.936,73.408 201.367,73.662 201.679 C 73.916 201.991,74.399 202.565,74.734 202.955 C 75.070 203.345,75.345 203.736,75.345 203.823 C 75.345 203.910,76.447 203.982,77.795 203.982 C 80.492 203.982,80.761 203.828,79.735 202.876 C 79.454 202.616,79.224 202.330,79.224 202.240 C 79.224 202.150,78.996 201.839,78.718 201.548 C 78.317 201.131,76.326 198.740,74.766 196.802 C 74.645 196.652,74.315 196.253,74.033 195.916 C 72.617 194.224,72.078 193.512,72.078 193.331 C 72.078 192.985,72.537 192.251,72.927 191.974 C 73.134 191.827,73.303 191.608,73.303 191.487 C 73.303 191.366,73.509 191.068,73.762 190.825 C 74.279 190.327,75.409 188.914,75.519 188.628 C 75.558 188.525,75.788 188.232,76.029 187.977 C 77.439 186.488,77.999 185.822,77.999 185.635 C 77.999 185.519,78.160 185.304,78.356 185.157 C 78.890 184.759,79.838 183.428,79.692 183.282 C 79.622 183.212,78.591 183.155,77.402 183.155 L 75.240 183.155 74.572 183.920 C 74.204 184.342,73.740 184.870,73.541 185.094 C 73.341 185.319,72.632 186.189,71.964 187.027 C 71.297 187.865,70.613 188.705,70.444 188.895 C 69.890 189.517,69.125 190.437,68.606 191.105 C 68.326 191.466,67.889 192.007,67.637 192.307 L 67.178 192.853 67.177 188.004 L 67.177 183.155 65.135 183.155 L 63.093 183.155 63.093 193.568 M88.025 183.614 C 87.930 183.867,87.783 184.390,87.699 184.777 C 87.615 185.163,87.430 185.595,87.289 185.736 C 87.148 185.878,86.967 186.342,86.887 186.768 C 86.807 187.195,86.672 187.590,86.587 187.646 C 86.502 187.703,86.244 188.300,86.013 188.974 C 85.167 191.443,84.637 192.856,84.520 192.956 C 84.453 193.012,84.224 193.678,84.009 194.436 C 83.795 195.194,83.559 195.814,83.486 195.814 C 83.413 195.814,83.191 196.411,82.994 197.141 C 82.796 197.871,82.567 198.469,82.485 198.469 C 82.403 198.469,82.227 198.900,82.094 199.427 C 81.961 199.954,81.672 200.781,81.452 201.265 C 81.232 201.748,80.996 202.420,80.929 202.757 C 80.862 203.093,80.726 203.369,80.628 203.369 C 80.530 203.369,80.449 203.507,80.449 203.675 C 80.449 203.928,80.822 203.982,82.583 203.982 L 84.716 203.982 85.060 202.757 C 85.249 202.083,85.464 201.531,85.538 201.531 C 85.612 201.531,85.850 200.886,86.066 200.098 L 86.458 198.664 90.128 198.719 L 93.798 198.775 93.976 199.465 C 94.075 199.845,94.276 200.350,94.423 200.588 C 94.570 200.826,94.814 201.457,94.965 201.991 C 95.116 202.524,95.305 202.961,95.385 202.961 C 95.465 202.961,95.560 203.167,95.596 203.420 C 95.671 203.950,99.847 204.281,99.847 203.757 C 99.847 203.390,99.373 201.850,99.224 201.736 C 99.152 201.679,98.904 201.082,98.673 200.408 C 97.896 198.140,97.597 197.348,97.320 196.835 C 97.168 196.554,96.979 196.052,96.899 195.719 C 96.819 195.386,96.583 194.738,96.374 194.278 C 96.164 193.819,95.885 193.012,95.752 192.485 C 95.619 191.958,95.443 191.526,95.361 191.526 C 95.279 191.526,95.050 190.929,94.852 190.199 C 94.654 189.469,94.411 188.872,94.311 188.872 C 94.211 188.872,94.130 188.745,94.130 188.589 C 94.130 188.237,93.476 186.152,93.322 186.013 C 93.260 185.957,93.088 185.544,92.940 185.094 C 92.244 182.978,92.492 183.155,90.220 183.155 C 88.311 183.155,88.189 183.180,88.025 183.614 M100.187 183.291 C 100.112 183.366,100.051 184.193,100.051 185.128 L 100.051 186.830 103.420 186.830 L 106.789 186.830 106.789 195.406 L 106.789 203.982 108.831 203.982 L 110.873 203.982 110.873 195.406 L 110.873 186.830 114.242 186.830 L 117.611 186.830 117.611 184.992 L 117.611 183.155 108.967 183.155 C 104.213 183.155,100.262 183.216,100.187 183.291 M148.647 183.461 C 148.647 183.629,148.559 183.767,148.451 183.767 C 148.343 183.767,148.156 184.158,148.036 184.635 C 147.916 185.112,147.651 185.870,147.447 186.320 C 147.243 186.769,146.952 187.550,146.799 188.055 C 146.646 188.560,146.466 189.020,146.400 189.076 C 146.334 189.132,146.159 189.592,146.013 190.097 C 145.867 190.602,145.579 191.387,145.374 191.840 C 145.169 192.293,144.935 192.936,144.852 193.269 C 144.770 193.602,144.590 194.058,144.452 194.283 C 144.314 194.507,144.091 195.059,143.956 195.508 C 143.822 195.957,143.586 196.604,143.433 196.946 C 143.281 197.287,143.040 197.999,142.898 198.528 C 142.757 199.057,142.580 199.490,142.506 199.490 C 142.431 199.490,142.251 199.926,142.104 200.459 C 141.957 200.993,141.680 201.751,141.487 202.144 C 141.294 202.537,141.078 203.115,141.006 203.427 L 140.877 203.996 142.975 203.938 C 144.976 203.882,145.077 203.858,145.139 203.420 C 145.175 203.167,145.278 202.961,145.368 202.961 C 145.458 202.961,145.647 202.524,145.789 201.991 C 145.931 201.457,146.211 200.653,146.412 200.204 C 146.612 199.755,146.827 199.227,146.889 199.030 C 146.990 198.708,147.350 198.673,150.566 198.673 L 154.131 198.673 154.554 199.803 C 154.787 200.425,154.977 201.069,154.977 201.233 C 154.977 201.397,155.057 201.531,155.154 201.531 C 155.252 201.531,155.486 202.083,155.675 202.757 L 156.019 203.982 158.050 203.982 C 159.774 203.982,160.082 203.932,160.082 203.656 C 160.082 203.217,159.449 201.047,159.283 200.919 C 159.211 200.863,158.983 200.265,158.777 199.592 C 158.571 198.918,158.330 198.275,158.242 198.162 C 158.154 198.050,157.936 197.464,157.758 196.860 C 157.579 196.256,157.351 195.659,157.251 195.533 C 157.150 195.407,156.910 194.752,156.717 194.079 C 156.524 193.405,156.303 192.808,156.227 192.751 C 156.151 192.695,155.920 192.098,155.714 191.424 C 155.508 190.750,155.275 190.107,155.195 189.995 C 155.116 189.883,154.923 189.377,154.767 188.872 C 154.611 188.367,154.428 187.907,154.360 187.851 C 154.292 187.795,154.069 187.198,153.864 186.524 C 153.659 185.850,153.422 185.207,153.337 185.094 C 153.251 184.982,153.066 184.500,152.924 184.022 L 152.666 183.155 150.657 183.155 C 149.007 183.155,148.647 183.209,148.647 183.461 M174.579 184.992 L 174.579 186.830 177.846 186.830 L 181.113 186.830 181.113 195.406 L 181.113 203.982 183.155 203.982 L 185.197 203.982 185.197 195.406 L 185.197 186.830 188.566 186.830 L 191.935 186.830 191.935 184.992 L 191.935 183.155 183.257 183.155 L 174.579 183.155 174.579 184.992 M194.181 193.568 L 194.181 203.982 201.021 203.982 L 207.861 203.982 207.861 202.042 L 207.861 200.102 203.063 200.102 L 198.264 200.102 198.264 197.652 L 198.264 195.202 202.552 195.202 L 206.840 195.202 206.840 193.364 L 206.840 191.526 202.552 191.526 L 198.264 191.526 198.264 189.178 L 198.264 186.830 203.063 186.830 L 207.861 186.830 207.861 184.992 L 207.861 183.155 201.021 183.155 L 194.181 183.155 194.181 193.568 M231.343 193.568 L 231.343 203.982 233.384 203.982 L 235.426 203.982 235.426 199.796 L 235.426 195.610 240.123 195.610 L 244.819 195.610 244.819 199.796 L 244.819 203.982 246.861 203.982 L 248.903 203.982 248.903 193.568 L 248.903 183.155 246.861 183.155 L 244.819 183.155 244.819 187.443 L 244.819 191.730 240.123 191.730 L 235.426 191.730 235.426 187.443 L 235.426 183.155 233.384 183.155 L 231.343 183.155 231.343 193.568 M252.986 193.568 L 252.986 203.982 255.028 203.982 L 257.070 203.982 257.070 196.803 C 257.070 189.638,257.071 189.626,257.478 189.995 C 257.703 190.198,257.887 190.444,257.887 190.542 C 257.887 190.640,258.211 191.200,258.607 191.786 C 259.530 193.153,259.592 193.249,260.430 194.589 C 260.816 195.207,261.260 195.850,261.417 196.018 C 261.574 196.187,261.831 196.623,261.988 196.988 C 262.146 197.353,262.339 197.652,262.419 197.652 C 262.499 197.652,262.716 197.973,262.903 198.367 C 263.089 198.760,263.323 199.081,263.423 199.081 C 263.522 199.081,263.604 199.175,263.604 199.290 C 263.604 199.475,264.722 201.255,265.215 201.857 C 265.316 201.980,265.558 202.389,265.753 202.766 C 266.369 203.958,266.434 203.982,269.102 203.982 L 271.567 203.982 271.567 193.568 L 271.567 183.155 269.321 183.155 L 267.075 183.155 267.069 190.148 C 267.063 196.276,267.026 197.091,266.769 196.733 C 266.608 196.508,266.381 196.213,266.264 196.077 C 266.148 195.941,265.946 195.596,265.816 195.311 C 265.686 195.026,265.517 194.793,265.440 194.793 C 265.363 194.793,265.134 194.426,264.931 193.977 C 264.729 193.527,264.495 193.160,264.413 193.160 C 264.330 193.160,264.110 192.838,263.924 192.445 C 263.737 192.052,263.520 191.730,263.440 191.730 C 263.360 191.730,263.178 191.465,263.034 191.141 C 262.891 190.817,262.616 190.362,262.423 190.130 C 262.230 189.898,261.797 189.240,261.460 188.668 C 261.123 188.096,260.641 187.379,260.388 187.076 C 260.136 186.772,259.929 186.413,259.929 186.279 C 259.929 186.144,259.809 185.960,259.662 185.870 C 259.516 185.780,259.236 185.362,259.040 184.941 C 258.844 184.520,258.611 184.176,258.522 184.176 C 258.433 184.176,258.256 183.946,258.128 183.665 C 257.899 183.162,257.861 183.155,255.441 183.155 L 252.986 183.155 252.986 193.568 M298.520 193.568 L 298.520 203.982 305.462 203.982 L 312.404 203.982 312.404 202.042 L 312.404 200.102 307.606 200.102 L 302.808 200.102 302.808 191.628 L 302.808 183.155 300.664 183.155 L 298.520 183.155 298.520 193.568 M359.367 193.568 L 359.367 203.982 361.409 203.982 L 363.451 203.982 363.451 193.568 L 363.451 183.155 361.409 183.155 L 359.367 183.155 359.367 193.568 M367.739 193.568 L 367.739 203.982 374.689 203.982 L 381.639 203.982 381.580 202.093 L 381.521 200.204 376.672 200.149 L 371.822 200.095 371.822 197.648 L 371.822 195.202 376.008 195.202 L 380.194 195.202 380.194 193.364 L 380.194 191.526 376.008 191.526 L 371.822 191.526 371.822 189.178 L 371.822 186.830 376.723 186.830 L 381.623 186.830 381.623 184.992 L 381.623 183.155 374.681 183.155 L 367.739 183.155 367.739 193.568 M32.413 187.024 C 33.664 187.145,34.409 187.315,34.624 187.530 C 34.802 187.708,35.114 187.942,35.316 188.051 C 36.057 188.448,36.002 190.469,35.228 191.243 C 34.788 191.683,33.216 192.139,32.139 192.139 C 31.658 192.139,31.208 192.231,31.138 192.343 C 31.069 192.455,30.650 192.547,30.207 192.547 C 29.765 192.547,29.403 192.455,29.403 192.343 C 29.403 192.231,29.265 192.139,29.096 192.139 C 28.840 192.139,28.790 191.708,28.790 189.484 L 28.790 186.830 29.658 186.836 C 30.135 186.839,31.375 186.923,32.413 187.024 M130.868 187.069 C 131.438 187.201,131.904 187.373,131.904 187.453 C 131.904 187.532,132.166 187.706,132.487 187.839 C 132.807 187.971,133.336 188.448,133.661 188.898 C 133.986 189.348,134.363 189.837,134.499 189.985 C 135.489 191.067,135.400 195.819,134.359 197.441 C 133.454 198.850,132.131 199.840,130.918 200.016 C 130.393 200.092,129.846 200.248,129.702 200.363 C 129.524 200.505,129.295 200.505,128.987 200.364 C 128.739 200.250,128.076 200.047,127.514 199.913 C 126.348 199.636,124.835 198.484,124.325 197.487 C 124.143 197.131,123.892 196.716,123.766 196.564 C 123.006 195.648,123.073 190.732,123.855 190.083 C 124.015 189.951,124.145 189.739,124.145 189.613 C 124.147 187.892,128.045 186.418,130.868 187.069 M287.938 187.646 C 289.295 188.459,290.492 190.038,290.674 191.253 C 290.748 191.743,290.889 192.194,290.988 192.256 C 291.218 192.398,291.226 194.647,290.997 194.906 C 290.903 195.012,290.716 195.612,290.582 196.237 C 290.171 198.162,287.962 200.102,286.182 200.102 C 285.937 200.102,285.629 200.210,285.497 200.343 C 285.323 200.517,285.127 200.525,284.792 200.370 C 284.537 200.253,283.869 200.048,283.308 199.915 C 282.100 199.628,280.785 198.777,280.535 198.120 C 280.437 197.862,280.281 197.652,280.188 197.652 C 280.095 197.652,279.851 197.169,279.644 196.580 C 279.438 195.990,279.190 195.421,279.093 195.314 C 278.857 195.052,278.868 191.322,279.106 191.322 C 279.209 191.322,279.359 191.026,279.438 190.665 C 280.154 187.404,284.790 185.757,287.938 187.646 M327.251 187.575 C 329.384 188.794,330.478 190.876,330.468 193.698 C 330.464 194.724,330.361 195.689,330.239 195.842 C 330.117 195.995,329.900 196.486,329.756 196.932 C 329.281 198.405,327.055 200.102,325.599 200.102 C 325.414 200.102,325.082 200.215,324.862 200.352 C 324.546 200.550,324.409 200.550,324.211 200.352 C 324.074 200.215,323.727 200.098,323.441 200.093 C 322.725 200.081,321.589 199.653,321.000 199.174 C 320.525 198.787,320.406 198.666,319.559 197.711 C 318.505 196.523,318.145 191.551,319.000 189.995 C 320.620 187.048,324.391 185.942,327.251 187.575 M51.557 189.893 C 51.750 190.679,51.975 191.322,52.057 191.322 C 52.139 191.322,52.324 191.850,52.467 192.496 C 52.610 193.142,52.857 193.923,53.015 194.232 L 53.303 194.793 51.040 194.793 C 49.795 194.793,48.809 194.724,48.849 194.640 C 49.280 193.733,49.459 193.293,49.824 192.241 C 50.058 191.567,50.391 190.510,50.565 189.893 C 50.878 188.783,51.006 188.464,51.139 188.464 C 51.176 188.464,51.364 189.107,51.557 189.893 M151.082 190.352 C 151.090 190.549,151.179 190.710,151.280 190.710 C 151.380 190.710,151.624 191.376,151.821 192.190 C 152.019 193.004,152.244 193.716,152.321 193.772 C 153.280 194.472,152.678 194.793,150.415 194.790 C 149.162 194.788,148.237 194.720,148.359 194.637 C 148.480 194.554,148.739 193.846,148.934 193.062 C 149.129 192.278,149.362 191.543,149.452 191.428 C 149.541 191.314,149.728 190.852,149.865 190.403 C 150.003 189.954,150.222 189.329,150.351 189.015 L 150.587 188.443 150.827 189.219 C 150.958 189.646,151.073 190.156,151.082 190.352 M90.437 189.280 C 90.523 189.280,90.710 189.809,90.853 190.454 C 90.995 191.100,91.277 191.996,91.479 192.445 C 91.681 192.894,91.911 193.606,91.990 194.028 L 92.133 194.793 90.069 194.793 C 87.837 194.793,87.764 194.749,88.303 193.715 C 88.466 193.402,88.755 192.575,88.946 191.877 C 89.137 191.179,89.359 190.516,89.439 190.403 C 89.519 190.291,89.707 189.832,89.856 189.382 C 90.031 188.857,90.155 188.693,90.204 188.923 C 90.246 189.119,90.351 189.280,90.437 189.280"/><path id="path2" fill="#fb3404" d="M109.127 21.941 C 108.122 23.697,107.070 25.533,106.789 26.019 C 106.508 26.506,105.421 28.408,104.372 30.246 C 103.323 32.085,101.561 35.151,100.456 37.060 C 99.351 38.969,98.004 41.300,97.463 42.240 C 96.921 43.181,96.248 44.341,95.967 44.820 C 95.687 45.298,94.599 47.193,93.550 49.032 C 90.454 54.460,87.579 59.476,87.188 60.133 C 86.987 60.470,85.907 62.353,84.787 64.319 C 83.667 66.284,81.720 69.684,80.460 71.873 C 79.199 74.063,77.250 77.463,76.128 79.428 C 72.914 85.058,70.028 90.092,69.632 90.761 C 69.216 91.462,65.906 97.271,63.349 101.787 C 62.395 103.471,61.542 104.941,61.453 105.054 C 61.364 105.166,60.354 106.912,59.210 108.933 C 58.065 110.955,56.911 112.976,56.646 113.425 C 56.380 113.874,55.494 115.422,54.677 116.864 C 53.859 118.306,52.997 119.823,52.761 120.233 C 52.525 120.644,51.432 122.542,50.333 124.451 C 49.233 126.360,47.417 129.530,46.296 131.496 C 45.176 133.461,44.096 135.345,43.897 135.681 C 43.432 136.468,39.980 142.499,37.584 146.708 C 36.562 148.504,34.640 151.858,33.315 154.160 C 31.849 156.707,30.991 158.396,31.124 158.473 C 32.662 159.365,38.702 159.417,41.756 158.564 C 45.457 157.531,49.462 155.370,52.884 152.560 C 54.598 151.152,54.699 151.121,55.547 151.749 C 56.178 152.215,56.737 151.937,56.757 151.149 C 56.761 151.008,56.846 150.893,56.948 150.893 C 57.049 150.893,57.301 150.480,57.509 149.975 C 57.717 149.470,57.942 149.057,58.009 149.056 C 58.076 149.056,58.297 148.688,58.499 148.239 C 58.702 147.790,58.927 147.422,58.999 147.422 C 59.071 147.422,59.301 147.009,59.509 146.503 C 59.717 145.998,59.944 145.584,60.012 145.584 C 60.080 145.584,60.265 145.286,60.424 144.921 C 60.583 144.556,60.773 144.211,60.847 144.155 C 60.921 144.099,61.123 143.777,61.295 143.441 C 61.879 142.303,63.782 138.949,63.903 138.846 C 63.970 138.790,64.196 138.354,64.406 137.876 C 64.617 137.399,64.858 137.009,64.942 137.009 C 65.026 137.009,65.196 136.756,65.319 136.447 C 65.442 136.138,65.817 135.426,66.154 134.865 C 66.923 133.580,67.546 132.456,68.198 131.173 C 68.479 130.620,68.809 130.077,68.932 129.964 C 69.055 129.852,69.273 129.461,69.416 129.096 C 69.560 128.731,69.745 128.433,69.829 128.433 C 69.912 128.433,70.138 128.019,70.331 127.514 C 70.524 127.009,70.755 126.595,70.845 126.595 C 70.934 126.595,71.128 126.297,71.276 125.932 C 71.423 125.567,71.596 125.222,71.660 125.166 C 71.723 125.110,71.958 124.696,72.182 124.247 C 72.405 123.798,72.689 123.338,72.812 123.226 C 72.935 123.114,73.160 122.700,73.313 122.307 C 73.465 121.914,73.695 121.501,73.823 121.388 C 73.951 121.276,74.182 120.867,74.334 120.478 C 74.487 120.090,74.777 119.608,74.978 119.406 C 75.180 119.205,75.345 118.909,75.345 118.749 C 75.345 118.588,75.459 118.336,75.600 118.187 C 75.852 117.921,76.403 116.965,77.111 115.569 C 77.310 115.176,77.591 114.733,77.736 114.585 C 77.881 114.436,77.999 114.201,77.999 114.062 C 77.999 113.922,78.160 113.630,78.356 113.413 C 78.553 113.195,78.919 112.603,79.169 112.098 C 79.684 111.059,80.500 109.600,80.653 109.445 C 80.710 109.388,80.938 108.974,81.162 108.525 C 81.385 108.076,81.623 107.662,81.690 107.606 C 81.757 107.550,82.166 106.861,82.599 106.075 C 83.032 105.288,83.439 104.599,83.504 104.543 C 83.649 104.418,84.192 103.277,84.212 103.055 C 84.220 102.967,84.328 102.829,84.452 102.749 C 84.575 102.669,84.846 102.236,85.054 101.787 C 85.261 101.337,85.494 100.924,85.571 100.868 C 85.649 100.812,85.857 100.418,86.034 99.993 C 86.211 99.568,86.497 99.079,86.669 98.906 C 86.842 98.734,86.983 98.473,86.983 98.326 C 86.983 98.179,87.122 97.944,87.292 97.803 C 87.462 97.662,87.786 97.169,88.013 96.706 C 88.636 95.435,89.037 94.694,89.406 94.130 C 89.590 93.849,89.895 93.252,90.086 92.802 C 90.276 92.353,90.441 92.078,90.454 92.190 C 90.466 92.302,90.686 91.981,90.944 91.475 C 91.702 89.986,92.174 89.163,92.433 88.879 C 92.566 88.732,92.791 88.292,92.933 87.900 C 93.075 87.508,93.261 87.187,93.346 87.187 C 93.431 87.187,93.720 86.751,93.987 86.217 C 94.883 84.432,95.227 83.820,95.479 83.565 C 95.617 83.426,95.837 82.989,95.967 82.595 C 96.097 82.201,96.267 81.879,96.346 81.879 C 96.424 81.879,96.670 81.466,96.891 80.962 C 97.113 80.457,97.363 80.044,97.448 80.043 C 97.532 80.042,97.601 79.943,97.601 79.822 C 97.601 79.702,97.864 79.220,98.185 78.750 C 98.507 78.281,98.835 77.690,98.914 77.437 C 98.993 77.185,99.123 76.978,99.202 76.978 C 99.282 76.978,99.528 76.565,99.750 76.061 C 99.972 75.557,100.208 75.143,100.275 75.142 C 100.342 75.141,100.570 74.750,100.780 74.273 C 100.991 73.795,101.221 73.359,101.291 73.303 C 101.362 73.247,101.591 72.833,101.800 72.384 C 102.009 71.935,102.298 71.446,102.442 71.297 C 102.587 71.149,102.705 70.948,102.705 70.851 C 102.705 70.656,103.953 68.564,104.167 68.402 C 104.241 68.345,104.458 67.909,104.649 67.432 C 104.840 66.955,105.069 66.565,105.158 66.565 C 105.247 66.565,105.422 66.312,105.547 66.003 C 105.671 65.694,106.090 64.890,106.477 64.216 C 106.864 63.543,107.345 62.670,107.546 62.277 C 107.748 61.884,108.013 61.470,108.136 61.358 C 108.259 61.246,108.485 60.836,108.638 60.448 C 108.791 60.060,109.080 59.577,109.282 59.376 C 109.483 59.174,109.648 58.890,109.648 58.743 C 109.648 58.596,109.877 58.165,110.158 57.785 C 110.439 57.404,110.669 56.878,110.669 56.615 C 110.669 56.170,111.189 55.052,112.072 53.599 C 112.471 52.942,116.348 46.173,117.101 44.819 C 118.127 42.974,121.692 36.771,122.382 35.630 C 122.789 34.957,123.123 34.280,123.124 34.127 C 123.124 33.881,120.784 30.783,119.786 29.709 C 119.578 29.484,119.164 28.982,118.866 28.593 C 118.569 28.203,118.188 27.727,118.019 27.534 C 117.851 27.341,117.556 26.970,117.363 26.710 C 117.171 26.450,116.224 25.282,115.260 24.114 C 114.296 22.946,113.553 21.871,113.609 21.725 C 113.669 21.570,113.602 21.502,113.448 21.561 C 113.302 21.617,112.948 21.318,112.651 20.887 C 112.358 20.461,111.856 19.805,111.536 19.430 L 110.954 18.747 109.127 21.941 M127.240 39.472 C 127.122 39.613,126.163 41.242,125.108 43.091 C 124.053 44.939,122.613 47.463,121.909 48.698 C 121.204 49.934,120.143 51.771,119.550 52.782 C 118.958 53.793,117.721 55.952,116.803 57.580 C 115.884 59.209,114.834 60.817,114.469 61.154 C 114.103 61.491,113.632 62.157,113.422 62.634 C 113.212 63.111,112.972 63.502,112.889 63.502 C 112.805 63.502,112.621 63.823,112.479 64.216 C 112.336 64.609,112.153 64.931,112.071 64.931 C 111.989 64.931,111.857 65.138,111.778 65.391 C 111.698 65.643,111.371 66.234,111.049 66.703 C 110.728 67.173,110.465 67.649,110.465 67.761 C 110.465 67.873,110.346 68.086,110.202 68.235 C 110.057 68.383,109.768 68.872,109.559 69.321 C 109.350 69.770,109.124 70.184,109.056 70.240 C 108.988 70.296,108.750 70.710,108.527 71.159 C 108.303 71.608,108.066 72.021,107.999 72.078 C 107.932 72.134,107.523 72.823,107.090 73.609 C 106.657 74.395,106.251 75.084,106.187 75.140 C 106.123 75.197,105.888 75.610,105.664 76.059 C 105.441 76.508,105.202 76.922,105.135 76.978 C 105.067 77.034,104.841 77.448,104.632 77.897 C 104.423 78.346,104.148 78.821,104.021 78.951 C 103.894 79.082,103.664 79.496,103.511 79.870 C 103.357 80.245,103.157 80.643,103.067 80.755 C 102.663 81.260,101.939 82.456,101.672 83.057 C 101.512 83.420,101.325 83.716,101.257 83.716 C 101.189 83.716,100.963 84.130,100.755 84.635 C 100.546 85.140,100.309 85.554,100.227 85.554 C 100.145 85.554,100.021 85.736,99.950 85.958 C 99.820 86.368,98.578 88.544,98.255 88.928 C 98.159 89.043,97.908 89.525,97.699 90.000 C 97.489 90.474,97.254 90.863,97.175 90.863 C 97.097 90.863,96.976 91.086,96.908 91.359 C 96.840 91.632,96.653 91.986,96.494 92.145 C 96.334 92.304,96.036 92.758,95.830 93.154 C 95.065 94.627,94.479 95.664,94.357 95.763 C 94.288 95.819,94.049 96.233,93.825 96.682 C 93.602 97.131,93.363 97.545,93.294 97.601 C 93.225 97.657,93.000 98.070,92.792 98.520 C 92.585 98.969,92.356 99.382,92.283 99.438 C 92.134 99.554,91.692 100.350,91.064 101.633 C 90.830 102.111,90.561 102.501,90.465 102.501 C 90.312 102.501,89.817 103.546,89.760 103.989 C 89.749 104.077,89.633 104.215,89.503 104.296 C 89.373 104.376,89.110 104.832,88.919 105.309 C 88.728 105.786,88.499 106.177,88.410 106.177 C 88.321 106.177,88.148 106.429,88.026 106.738 C 87.904 107.047,87.256 108.218,86.585 109.342 C 85.915 110.465,85.220 111.659,85.041 111.996 C 84.862 112.333,84.467 113.030,84.165 113.544 C 83.862 114.059,83.395 114.886,83.127 115.382 C 82.859 115.878,82.581 116.330,82.509 116.386 C 82.437 116.442,82.205 116.879,81.995 117.356 C 81.785 117.833,81.543 118.224,81.459 118.224 C 81.375 118.224,81.205 118.476,81.082 118.785 C 80.960 119.094,80.582 119.806,80.243 120.368 C 79.904 120.929,79.440 121.779,79.212 122.256 C 78.983 122.734,78.716 123.124,78.618 123.124 C 78.519 123.124,78.330 123.469,78.196 123.890 C 78.063 124.311,77.838 124.749,77.697 124.862 C 77.556 124.976,77.242 125.481,76.998 125.985 C 76.755 126.489,76.380 127.177,76.166 127.514 C 75.951 127.851,75.342 128.908,74.812 129.862 C 74.282 130.817,73.789 131.644,73.717 131.700 C 73.645 131.756,73.385 132.192,73.138 132.670 C 71.951 134.970,71.770 135.292,71.525 135.543 C 71.380 135.691,71.207 136.029,71.141 136.294 C 71.074 136.558,70.908 136.818,70.772 136.870 C 70.635 136.922,70.399 137.343,70.247 137.804 C 70.095 138.265,69.889 138.642,69.788 138.642 C 69.688 138.642,69.471 138.941,69.306 139.306 C 69.140 139.671,68.730 140.429,68.394 140.990 C 68.059 141.552,67.561 142.471,67.288 143.032 C 67.015 143.594,66.785 143.961,66.776 143.849 C 66.767 143.737,66.583 144.033,66.368 144.509 C 66.152 144.984,65.873 145.489,65.749 145.632 C 65.504 145.912,64.947 146.907,64.416 148.013 C 64.234 148.395,63.959 148.832,63.805 148.985 C 63.652 149.139,63.411 149.585,63.269 149.977 C 63.127 150.368,62.942 150.689,62.858 150.689 C 62.773 150.689,62.513 151.080,62.279 151.557 C 61.446 153.258,61.015 154.021,60.729 154.308 C 59.944 155.093,60.916 156.001,64.141 157.492 C 69.725 160.073,80.449 159.677,80.449 156.889 C 80.449 156.736,80.527 156.611,80.622 156.611 C 80.718 156.611,80.968 156.220,81.178 155.743 C 81.389 155.265,81.612 154.829,81.675 154.773 C 81.893 154.578,83.308 152.088,83.308 151.900 C 83.308 151.795,83.386 151.710,83.481 151.710 C 83.576 151.710,83.826 151.320,84.037 150.842 C 84.247 150.365,84.481 149.929,84.555 149.872 C 84.630 149.816,84.843 149.406,85.028 148.961 C 85.214 148.515,85.441 148.102,85.532 148.042 C 85.624 147.982,86.036 147.294,86.449 146.513 C 86.861 145.733,87.318 144.952,87.465 144.778 C 87.612 144.604,87.851 144.163,87.995 143.798 C 88.140 143.433,88.330 143.134,88.417 143.134 C 88.505 143.134,88.679 142.882,88.803 142.573 C 88.928 142.264,89.349 141.460,89.738 140.786 C 90.127 140.112,90.635 139.193,90.868 138.744 C 91.101 138.295,91.611 137.422,92.001 136.804 C 92.783 135.565,93.192 134.742,93.142 134.507 C 93.124 134.423,93.205 134.354,93.323 134.354 C 93.441 134.354,93.679 134.056,93.852 133.691 C 94.024 133.326,94.433 132.568,94.759 132.006 C 95.086 131.445,95.536 130.607,95.760 130.144 C 95.984 129.682,96.291 129.201,96.442 129.075 C 96.593 128.950,96.839 128.478,96.987 128.027 C 97.136 127.577,97.340 127.208,97.440 127.208 C 97.540 127.208,97.718 126.932,97.836 126.595 C 97.953 126.258,98.124 125.983,98.216 125.983 C 98.308 125.983,98.542 125.569,98.735 125.064 C 98.928 124.558,99.142 124.144,99.211 124.143 C 99.280 124.141,99.520 123.751,99.743 123.275 C 99.967 122.799,100.252 122.318,100.375 122.205 C 100.499 122.093,100.725 121.679,100.878 121.286 C 101.030 120.893,101.260 120.480,101.388 120.368 C 101.517 120.255,101.747 119.842,101.901 119.449 C 102.054 119.056,102.344 118.556,102.545 118.338 C 102.745 118.121,102.910 117.822,102.910 117.675 C 102.910 117.527,102.990 117.407,103.089 117.407 C 103.187 117.407,103.470 116.970,103.717 116.437 C 104.371 115.025,105.003 113.909,105.411 113.447 C 105.607 113.224,105.768 112.928,105.768 112.789 C 105.768 112.649,105.887 112.414,106.031 112.266 C 106.176 112.117,106.465 111.628,106.674 111.179 C 106.883 110.730,107.109 110.316,107.177 110.260 C 107.245 110.204,107.438 109.883,107.606 109.546 C 107.774 109.209,107.965 108.887,108.030 108.831 C 108.095 108.775,108.290 108.453,108.463 108.116 C 109.171 106.740,109.902 105.456,110.032 105.360 C 110.107 105.304,110.342 104.867,110.552 104.390 C 110.763 103.913,110.990 103.522,111.057 103.521 C 111.124 103.521,111.349 103.108,111.557 102.603 C 111.764 102.098,111.999 101.685,112.079 101.685 C 112.159 101.685,112.394 101.294,112.602 100.817 C 112.810 100.339,113.043 99.903,113.120 99.847 C 113.275 99.734,113.702 98.970,114.343 97.660 C 114.575 97.188,114.851 96.747,114.957 96.682 C 115.063 96.617,115.338 96.176,115.570 95.704 C 116.081 94.659,116.838 93.286,117.507 92.190 C 117.781 91.741,118.156 91.055,118.340 90.666 C 118.524 90.276,118.788 89.863,118.928 89.747 C 119.067 89.631,119.306 89.214,119.459 88.821 C 119.611 88.428,119.841 88.014,119.969 87.902 C 120.097 87.790,120.326 87.376,120.477 86.983 C 120.628 86.590,120.865 86.199,121.004 86.114 C 121.142 86.029,121.362 85.638,121.491 85.246 C 121.621 84.854,121.801 84.533,121.893 84.533 C 121.984 84.533,122.214 84.188,122.403 83.767 C 122.760 82.973,123.332 81.947,124.553 79.907 C 124.946 79.251,125.344 78.507,125.438 78.254 C 125.532 78.002,125.678 77.795,125.763 77.795 C 125.977 77.795,126.391 76.841,126.391 76.349 C 126.391 75.968,126.805 75.110,127.910 73.201 C 128.834 71.604,132.400 65.376,134.866 61.052 C 136.243 58.637,137.753 56.007,138.222 55.207 L 139.073 53.753 138.603 53.061 C 138.344 52.681,137.948 52.171,137.723 51.927 C 137.499 51.683,137.113 51.224,136.867 50.908 C 136.621 50.591,135.904 49.689,135.274 48.903 C 134.644 48.116,133.927 47.209,133.680 46.886 C 133.433 46.562,132.649 45.598,131.937 44.742 C 129.976 42.383,129.587 41.906,129.206 41.402 C 127.873 39.641,127.447 39.222,127.240 39.472"/><path id="path3" fill="#a23c2c" d="M110.880 18.458 C 110.876 18.559,111.290 19.156,111.800 19.785 C 112.310 20.414,112.930 21.192,113.178 21.513 C 113.426 21.835,114.391 23.029,115.321 24.168 C 116.252 25.306,117.171 26.450,117.363 26.710 C 117.556 26.970,117.851 27.341,118.019 27.534 C 118.188 27.727,118.569 28.203,118.866 28.593 C 119.164 28.982,119.578 29.484,119.786 29.709 C 120.548 30.529,123.068 33.801,123.159 34.089 C 123.238 34.337,123.273 34.333,123.376 34.065 C 123.449 33.875,123.278 33.495,122.954 33.130 C 122.360 32.461,121.620 31.552,120.980 30.708 C 120.755 30.412,120.290 29.836,119.947 29.429 C 119.603 29.021,118.364 27.494,117.193 26.034 C 116.022 24.574,115.016 23.333,114.957 23.277 C 114.898 23.221,114.490 22.696,114.050 22.111 C 113.611 21.526,113.130 21.001,112.981 20.944 C 112.832 20.886,112.711 20.730,112.711 20.595 C 112.711 20.461,112.483 20.113,112.205 19.823 C 111.927 19.533,111.517 19.066,111.293 18.785 C 111.069 18.504,110.883 18.357,110.880 18.458 M127.220 39.276 C 127.020 39.606,127.018 39.655,127.211 39.472 C 127.461 39.236,127.855 39.617,129.206 41.402 C 129.587 41.906,129.976 42.383,131.937 44.742 C 132.649 45.598,133.433 46.562,133.680 46.886 C 134.284 47.676,136.874 50.913,137.826 52.067 C 138.058 52.348,138.425 52.808,138.642 53.088 C 138.859 53.369,139.040 53.489,139.044 53.356 C 139.049 53.158,136.629 49.996,135.375 48.564 C 135.207 48.371,134.885 47.969,134.661 47.670 C 134.436 47.370,134.022 46.863,133.742 46.543 C 133.461 46.223,133.073 45.750,132.879 45.492 C 132.685 45.234,131.965 44.334,131.279 43.492 C 130.593 42.649,129.925 41.822,129.794 41.654 C 129.141 40.815,127.897 39.279,127.703 39.072 C 127.540 38.898,127.415 38.951,127.220 39.276 M117.516 44.020 C 117.326 44.310,117.205 44.583,117.248 44.626 C 117.291 44.669,117.487 44.431,117.684 44.098 C 118.124 43.353,117.993 43.292,117.516 44.020 M52.884 152.562 C 52.349 153.048,52.221 153.224,52.578 152.983 C 53.142 152.604,54.078 151.699,53.886 151.719 C 53.840 151.724,53.389 152.103,52.884 152.562 M77.897 158.652 C 77.639 158.763,77.602 158.828,77.795 158.828 C 77.963 158.828,78.285 158.749,78.509 158.652 C 78.767 158.542,78.805 158.477,78.612 158.477 C 78.443 158.477,78.121 158.556,77.897 158.652 M72.032 159.415 C 72.512 159.458,73.247 159.457,73.665 159.413 C 74.084 159.369,73.691 159.334,72.792 159.335 C 71.894 159.336,71.552 159.372,72.032 159.415"/><path id="path4" fill="#714244" d="M53.790 151.965 L 53.190 152.629 53.861 152.023 C 54.470 151.472,54.573 151.442,54.984 151.698 C 55.397 151.956,55.412 151.951,55.156 151.641 C 54.751 151.150,54.465 151.218,53.790 151.965 M49.056 155.409 C 48.360 155.855,48.134 156.154,48.749 155.816 C 49.218 155.558,49.952 154.991,49.821 154.987 C 49.765 154.985,49.421 155.175,49.056 155.409 M35.273 159.416 C 35.975 159.456,37.124 159.456,37.825 159.416 C 38.527 159.376,37.953 159.344,36.549 159.344 C 35.145 159.344,34.571 159.376,35.273 159.416 M69.985 159.409 C 70.237 159.458,70.651 159.458,70.904 159.409 C 71.156 159.360,70.949 159.321,70.444 159.321 C 69.939 159.321,69.732 159.360,69.985 159.409 M74.683 159.409 C 74.937 159.458,75.305 159.456,75.500 159.405 C 75.695 159.354,75.487 159.314,75.038 159.316 C 74.589 159.319,74.429 159.361,74.683 159.409 M72.437 159.614 C 72.691 159.662,73.059 159.661,73.254 159.609 C 73.449 159.558,73.241 159.518,72.792 159.521 C 72.343 159.523,72.183 159.565,72.437 159.614"/></g></svg>