<svg xmlns="http://www.w3.org/2000/svg" role="img" viewBox="-17.44 -17.44 880.88 130.88"><path d="M273 73.501h-9v-52h8.7v8.7q2.8-4.2 7.1-7.05a17.205 17.205 0 0 1 9.202-2.842 20.858 20.858 0 0 1 .598-.008 20.994 20.994 0 0 1 4.417.439q2.986.643 5.268 2.224a13.128 13.128 0 0 1 .465.337 15.751 15.751 0 0 1 5.448 7.689 19.154 19.154 0 0 1 .102.311q3.1-4.6 7.35-7.8a15.669 15.669 0 0 1 6.791-2.884 21.446 21.446 0 0 1 3.759-.316 21.437 21.437 0 0 1 4.888.522q3.586.84 6.075 3.029a12.994 12.994 0 0 1 1.687 1.799 18.992 18.992 0 0 1 3.411 7.272q.739 3.05.739 6.678v33.9h-9v-33.2a19.042 19.042 0 0 0-.337-3.69q-.436-2.205-1.435-3.949a10.982 10.982 0 0 0-.728-1.111 7.974 7.974 0 0 0-5.813-3.296 10.678 10.678 0 0 0-1.087-.054 11.926 11.926 0 0 0-6.759 2.127 15.996 15.996 0 0 0-1.591 1.223q-3.85 3.35-6.75 7.85v34.1h-9v-33.2a19.042 19.042 0 0 0-.337-3.69q-.436-2.205-1.435-3.949a10.982 10.982 0 0 0-.728-1.111 7.974 7.974 0 0 0-5.813-3.296 10.678 10.678 0 0 0-1.087-.054 12.02 12.02 0 0 0-6.319 1.828 16.244 16.244 0 0 0-1.981 1.422q-3.9 3.25-6.8 7.65v34.4zm-222.9-5.6l-6.6 6.8-34-33.4v32.2H0v-70h9.5v31.9l29.8-32.2 6.4 5.9-27.3 28.4 31.7 30.4zm330.4-.3l4.8-8q3.6 3 8.1 4.9a23.348 23.348 0 0 0 5.37 1.51 32.118 32.118 0 0 0 5.13.39 27.981 27.981 0 0 0 4.547-.347q2.423-.399 4.384-1.26a13.701 13.701 0 0 0 2.469-1.393q4.048-2.892 4.195-7.735a12.116 12.116 0 0 0 .005-.365 11.94 11.94 0 0 0-.337-2.893 9.816 9.816 0 0 0-.863-2.257 8.097 8.097 0 0 0-1.2-1.656q-1.27-1.381-3.416-2.723a25.81 25.81 0 0 0-.034-.021q-3.116-1.942-8.885-4.17a118.584 118.584 0 0 0-1.265-.48q-7.2-2.8-11.5-5.65a21.931 21.931 0 0 1-3.089-2.448q-1.717-1.65-2.773-3.515a13.303 13.303 0 0 1-.288-.537q-1.85-3.65-1.85-8.65t2.75-9.05q2.75-4.05 8.1-6.5a25.558 25.558 0 0 1 5.9-1.835q3.243-.615 7.05-.615 6.2 0 11.15 1.25t9.65 3.55l-3.5 8.1a31.496 31.496 0 0 0-4.126-2.019 41.686 41.686 0 0 0-3.824-1.331q-4.55-1.35-9.55-1.35a27.187 27.187 0 0 0-4.03.28q-2.132.32-3.87 1.006a12.616 12.616 0 0 0-2.5 1.314 9.902 9.902 0 0 0-2.163 1.964 7.359 7.359 0 0 0-1.637 4.736 10.464 10.464 0 0 0 .292 2.521 8.562 8.562 0 0 0 .808 2.079q1.056 1.919 4.091 3.746a23.503 23.503 0 0 0 .259.154 33.003 33.003 0 0 0 2.216 1.172q2.269 1.103 5.48 2.35a130.016 130.016 0 0 0 2.054.778 81.228 81.228 0 0 1 4.978 2.029q4.386 1.971 7.372 4.071a26.044 26.044 0 0 1 3.04 2.477q2.223 2.129 3.41 4.473a17.579 17.579 0 0 1 1.741 5.862 22.155 22.155 0 0 1 .159 2.688 21.71 21.71 0 0 1-.667 5.5 17.105 17.105 0 0 1-2.583 5.6q-3.25 4.6-9 7a30.521 30.521 0 0 1-7.41 2.004 40.027 40.027 0 0 1-5.74.396q-7.3 0-13.3-1.95a38.206 38.206 0 0 1-5.367-2.183 28.433 28.433 0 0 1-4.733-2.967zm316.1 24.7l3.3-7.8a20.562 20.562 0 0 0 3.817 2.373 24.737 24.737 0 0 0 1.783.777q2.759 1.077 6.559 1.226a31.788 31.788 0 0 0 1.241.024 21.701 21.701 0 0 0 4.521-.443q2.901-.618 5.101-2.098a12.576 12.576 0 0 0 1.528-1.209 11.352 11.352 0 0 0 2.907-4.494q1.143-3.1 1.143-7.456v-6.4q-2 2.4-5.75 4.55t-8.95 2.15q-5.9 0-11.2-3.05a22.236 22.236 0 0 1-7.292-6.838A27.437 27.437 0 0 1 694 61.501a25.181 25.181 0 0 1-2.713-7.624 35.033 35.033 0 0 1-.587-6.576 32.06 32.06 0 0 1 .917-7.808 26.682 26.682 0 0 1 2.333-6.092 25.706 25.706 0 0 1 6.064-7.623 24.448 24.448 0 0 1 2.686-1.977q5.5-3.5 12.1-3.5a22.366 22.366 0 0 1 4.82.501 18.715 18.715 0 0 1 3.18.999 25.705 25.705 0 0 1 3.828 1.968A20.998 20.998 0 0 1 729 25.501v-4h8.2v50.8q0 8.6-3 14t-8.35 7.9a25.811 25.811 0 0 1-6.604 2.021 35.243 35.243 0 0 1-5.946.479q-4.6 0-8.95-1.1a27.232 27.232 0 0 1-5.3-1.918 23.518 23.518 0 0 1-2.45-1.382zm-598.1-37v-33.8h9v32.6a22.981 22.981 0 0 0 .254 3.534q.288 1.847.903 3.335a10.136 10.136 0 0 0 1.443 2.481 8.404 8.404 0 0 0 5.113 3.02 12.807 12.807 0 0 0 2.487.23q4.1 0 7.95-1.65 3.85-1.65 6.85-4.45v-39.1h9v38.5a15.602 15.602 0 0 0 .102 1.853q.332 2.763 1.748 3.797 1.85 1.35 4.05 1.35l-1.9 7q-9.3 0-11.5-7.4-3.5 3.6-8.1 5.85-4.6 2.25-9.9 2.25-4.5 0-8.5-1.9a14.441 14.441 0 0 1-5.51-4.639 18.266 18.266 0 0 1-.99-1.511 16.24 16.24 0 0 1-1.664-4.094q-.836-3.152-.836-7.256zm663.2 18.2h-9v-52h8.7v8.7q2.8-4.2 7.15-7.05a17.316 17.316 0 0 1 7.106-2.625 22.629 22.629 0 0 1 3.244-.225 23.225 23.225 0 0 1 5.065.517q5.094 1.139 8.085 4.783 4.125 5.025 4.338 13.108a33.764 33.764 0 0 1 .012.892v33.9h-9v-32.9a19.265 19.265 0 0 0-.342-3.741q-.439-2.215-1.439-3.963a10.966 10.966 0 0 0-.869-1.296 8.579 8.579 0 0 0-6.277-3.354 12.061 12.061 0 0 0-1.073-.046 13.122 13.122 0 0 0-6.849 1.964 17.353 17.353 0 0 0-1.851 1.286q-4.1 3.25-7 7.65v34.4zm-143.8-4.2l3.8-7.5a18.557 18.557 0 0 0 3.144 2.125q1.554.845 3.406 1.525a24.073 24.073 0 0 0 7.611 1.437 27.464 27.464 0 0 0 .839.013q5.392 0 8.235-1.716a7.738 7.738 0 0 0 .215-.134q2.85-1.85 2.85-4.75a7.123 7.123 0 0 0-.314-2.148 6.212 6.212 0 0 0-.736-1.552 6.384 6.384 0 0 0-.929-1.094q-1.014-.972-2.687-1.925a22.3 22.3 0 0 0-.234-.131 28.462 28.462 0 0 0-1.994-.994q-2.116-.961-5.105-2.011a103.602 103.602 0 0 0-1.001-.345 46.616 46.616 0 0 1-4.398-1.743q-2.114-.974-3.79-2.062a19.335 19.335 0 0 1-2.762-2.145 11.324 11.324 0 0 1-3.294-5.997 16.794 16.794 0 0 1-.356-3.553q0-6 5.25-10.15 4.404-3.482 11.658-4.043a37.527 37.527 0 0 1 2.892-.107 40.794 40.794 0 0 1 4.446.23q2.308.254 4.324.785a25.234 25.234 0 0 1 .13.035q3.9 1.05 7 2.65l-2.5 7.4q-2.7-1.6-6.15-2.6a25.024 25.024 0 0 0-4.483-.848 31.837 31.837 0 0 0-3.167-.152 20.632 20.632 0 0 0-2.937.195q-3.086.445-4.963 1.905a9.322 9.322 0 0 0-1.358 1.273q-.702.819-1.037 1.692a4.529 4.529 0 0 0-.305 1.635 4.921 4.921 0 0 0 1.495 3.551 7.082 7.082 0 0 0 .605.549q2.065 1.671 7.998 3.633a84.459 84.459 0 0 0 .202.067 67.753 67.753 0 0 1 5.062 1.898q5.927 2.519 8.738 5.402 3.9 4 3.9 10 0 6.748-5.251 10.755a16.618 16.618 0 0 1-.399.295q-4.74 3.397-12.188 3.945a40.423 40.423 0 0 1-2.962.105q-5.9 0-10.65-1.5a30.883 30.883 0 0 1-3.84-1.485q-1.981-.931-3.562-2.08a18.229 18.229 0 0 1-.448-.335zm189.5 0l3.8-7.5a18.557 18.557 0 0 0 3.144 2.125q1.554.845 3.406 1.525a24.073 24.073 0 0 0 7.611 1.437 27.464 27.464 0 0 0 .839.013q5.392 0 8.235-1.716a7.738 7.738 0 0 0 .215-.134q2.85-1.85 2.85-4.75a7.123 7.123 0 0 0-.314-2.148 6.212 6.212 0 0 0-.736-1.552 6.384 6.384 0 0 0-.929-1.094q-1.014-.972-2.687-1.925a22.3 22.3 0 0 0-.234-.131 28.462 28.462 0 0 0-1.994-.994q-2.116-.961-5.105-2.011a103.602 103.602 0 0 0-1.001-.345 46.616 46.616 0 0 1-4.398-1.743q-2.114-.974-3.79-2.062a19.335 19.335 0 0 1-2.762-2.145 11.324 11.324 0 0 1-3.294-5.997 16.794 16.794 0 0 1-.356-3.553q0-6 5.25-10.15 4.404-3.482 11.658-4.043a37.527 37.527 0 0 1 2.892-.107 40.794 40.794 0 0 1 4.446.23q2.308.254 4.324.785a25.234 25.234 0 0 1 .13.035q3.9 1.05 7 2.65l-2.5 7.4q-2.7-1.6-6.15-2.6a25.024 25.024 0 0 0-4.483-.848 31.837 31.837 0 0 0-3.167-.152 20.632 20.632 0 0 0-2.937.195q-3.086.445-4.963 1.905a9.322 9.322 0 0 0-1.358 1.273q-.702.819-1.037 1.692a4.529 4.529 0 0 0-.305 1.635 4.921 4.921 0 0 0 1.495 3.551 7.082 7.082 0 0 0 .605.549q2.065 1.671 7.998 3.633a84.459 84.459 0 0 0 .202.067 67.753 67.753 0 0 1 5.062 1.898q5.927 2.519 8.738 5.402 3.9 4 3.9 10 0 6.748-5.251 10.755a16.618 16.618 0 0 1-.399.295q-4.74 3.397-12.188 3.945a40.423 40.423 0 0 1-2.962.105q-5.9 0-10.65-1.5a30.883 30.883 0 0 1-3.84-1.485q-1.981-.931-3.562-2.08a18.229 18.229 0 0 1-.448-.335zm-197.3-18.1h-36.4a24.088 24.088 0 0 0 1.139 5.025q1.336 3.812 3.961 6.375 4.2 4.1 11.1 4.1 4.5 0 8.1-.95 3.6-.95 6.9-2.45l2.1 7.7a40.77 40.77 0 0 1-4.335 1.626 51.863 51.863 0 0 1-3.765 1.024 38.914 38.914 0 0 1-5.092.819 52.025 52.025 0 0 1-5.008.231 28.318 28.318 0 0 1-7.746-1.006 21.108 21.108 0 0 1-10.004-6.144 23.521 23.521 0 0 1-5.205-9.54q-1.345-4.665-1.345-10.51a35.359 35.359 0 0 1 .833-7.822 28.84 28.84 0 0 1 2.117-6.128 24.642 24.642 0 0 1 5.016-7.082 22.887 22.887 0 0 1 3.234-2.618 21.048 21.048 0 0 1 10.259-3.472 26.205 26.205 0 0 1 2.041-.078q7.5 0 12.45 3.25 4.95 3.25 7.45 8.75a28.185 28.185 0 0 1 2.426 9.863 33.434 33.434 0 0 1 .074 2.237 75.204 75.204 0 0 1-.291 6.696 69.426 69.426 0 0 1-.009.104zm-448.7 4.4v-24.4h-9v-7.8h9.2l1.9-16.4h6.9v16.4h14.4v7.8h-14.4v25.1a21.559 21.559 0 0 0 .168 2.796q.473 3.606 2.282 5.304 2.45 2.3 5.85 2.3 2.5 0 4.75-.8t4.15-1.9l2.5 7.2a18.546 18.546 0 0 1-1.618.856q-.802.378-1.748.752a43.365 43.365 0 0 1-2.034.742q-3.4 1.15-7.1 1.15-7.5 0-11.85-4.95a16.116 16.116 0 0 1-3.228-5.903q-.763-2.43-1.007-5.367a34.777 34.777 0 0 1-.115-2.88zm339.4 17.7v-69.6q4.7-.5 9.2-.75a151.31 151.31 0 0 1 4.186-.171q2.852-.079 6.114-.079a48.608 48.608 0 0 1 7.344.526q3.934.602 7.266 1.891a29.198 29.198 0 0 1 .94.383 30.978 30.978 0 0 1 7.289 4.32 27.223 27.223 0 0 1 3.511 3.38q4.25 4.9 6.3 11.35a44.256 44.256 0 0 1 1.972 10.995 51.506 51.506 0 0 1 .078 2.855 45.309 45.309 0 0 1-1.481 11.697 41.802 41.802 0 0 1-.619 2.103q-2.1 6.5-6.45 11.45-4.35 4.95-11.1 7.8-6.275 2.649-14.841 2.836a60.192 60.192 0 0 1-1.309.014 186.98 186.98 0 0 1-4.071-.043q-2.014-.043-3.807-.133a101.5 101.5 0 0 1-2.072-.124q-4.25-.3-8.45-.7zm-432.7.2h-9v-52h8.7v11.3q1.3-3.3 3.5-6.15 2.2-2.85 5.5-4.6a14.817 14.817 0 0 1 4.68-1.524 19.459 19.459 0 0 1 3.02-.226q1.5 0 3 .15a18.972 18.972 0 0 1 1.055.133q.5.079.927.179a8.817 8.817 0 0 1 .518.138l-2.7 9.3a9.763 9.763 0 0 0-2.145-.613q-1.096-.187-2.355-.187a12.958 12.958 0 0 0-6.63 1.845 15.609 15.609 0 0 0-.42.255q-3.328 2.086-5.472 6.442a22.927 22.927 0 0 0-.028.058q-1.763 3.607-2.08 8.827a39.09 39.09 0 0 0-.07 2.373v24.3zm140 0h-9v-52h8.7v11.3q1.3-3.3 3.5-6.15 2.2-2.85 5.5-4.6a14.817 14.817 0 0 1 4.68-1.524 19.459 19.459 0 0 1 3.02-.226q1.5 0 3 .15a18.972 18.972 0 0 1 1.055.133q.5.079.927.179a8.817 8.817 0 0 1 .518.138l-2.7 9.3a9.763 9.763 0 0 0-2.145-.613q-1.096-.187-2.355-.187a12.958 12.958 0 0 0-6.63 1.845 15.609 15.609 0 0 0-.42.255q-3.328 2.086-5.472 6.442a22.927 22.927 0 0 0-.028.058q-1.763 3.607-2.08 8.827a39.09 39.09 0 0 0-.07 2.373v24.3zm244.7 0h-9.5v-70h9.5v70zm57.5-62.1v54.1q2.1.3 4.4.4a107.265 107.265 0 0 0 3.563.093 121.297 121.297 0 0 0 1.237.007 37.906 37.906 0 0 0 6.164-.472q4.929-.813 8.536-3.028 5.7-3.5 8.4-9.75a32.292 32.292 0 0 0 2.254-8.074 42.502 42.502 0 0 0 .446-6.276q0-7.2-2.7-13.5t-8.3-10.15a20.895 20.895 0 0 0-7.052-3.06q-2.841-.679-6.152-.775a38.008 38.008 0 0 0-1.096-.015q-2.9 0-5.3.15t-4.4.35zM248 73.501h-9v-52h9v52zm430.2 0h-9v-52h9v52zm50-14v-27.2q-2.166-1.575-5.203-2.86a36.018 36.018 0 0 0-.097-.04 16.249 16.249 0 0 0-3.804-1.052 22.135 22.135 0 0 0-3.396-.248q-4.1 0-7.7 2.2-3.6 2.2-5.85 6.35-2.25 4.15-2.25 10.15a24.32 24.32 0 0 0 .478 4.936 18.311 18.311 0 0 0 1.772 4.964 18.576 18.576 0 0 0 2.911 4.074A15.802 15.802 0 0 0 708 63.201q3.6 2.3 7.8 2.3a15.276 15.276 0 0 0 4.578-.669A13.606 13.606 0 0 0 723 63.701a20.855 20.855 0 0 0 2.981-2.016 16.309 16.309 0 0 0 2.219-2.184zm-154.6-15.6h28.5a24.355 24.355 0 0 0-.404-4.586q-.496-2.584-1.6-4.607a12.422 12.422 0 0 0-1.796-2.507 12.488 12.488 0 0 0-6.961-3.776 18.395 18.395 0 0 0-3.539-.324 13.58 13.58 0 0 0-5.112.935 12.524 12.524 0 0 0-4.488 3.115q-3.8 4.05-4.6 11.75zM239.137 10.789a5.973 5.973 0 0 0 4.363 1.812 8.175 8.175 0 0 0 1.496-.131 5.647 5.647 0 0 0 3.104-1.619q1.7-1.75 1.7-4.55a7.26 7.26 0 0 0 0-.081 6.06 6.06 0 0 0-1.85-4.369 7.395 7.395 0 0 0-.058-.058A6.059 6.059 0 0 0 243.5.001a8.264 8.264 0 0 0-1.656.157 5.661 5.661 0 0 0-2.944 1.543 5.588 5.588 0 0 0-1.471 2.632 7.987 7.987 0 0 0-.229 1.968 5.992 5.992 0 0 0 .492 2.418 6.643 6.643 0 0 0 1.358 1.982 7.466 7.466 0 0 0 .087.088zm430.2 0a5.973 5.973 0 0 0 4.363 1.812 8.175 8.175 0 0 0 1.496-.131 5.647 5.647 0 0 0 3.104-1.619q1.7-1.75 1.7-4.55a7.26 7.26 0 0 0 0-.081 6.06 6.06 0 0 0-1.85-4.369 7.395 7.395 0 0 0-.058-.058A6.059 6.059 0 0 0 673.7.001a8.264 8.264 0 0 0-1.656.157 5.661 5.661 0 0 0-2.944 1.543 5.588 5.588 0 0 0-1.471 2.632 7.987 7.987 0 0 0-.229 1.968 5.992 5.992 0 0 0 .492 2.418 6.643 6.643 0 0 0 1.358 1.982 7.466 7.466 0 0 0 .087.088z" vector-effect="non-scaling-stroke" fill="#000" fill-rule="evenodd" stroke="#000" stroke-linecap="round" stroke-width=".25mm"/></svg>