

<?xml version="1.0" encoding="UTF-8"?>
<!DOCTYPE svg PUBLIC "-//W3C//DTD SVG 1.1//EN" "http://www.w3.org/Graphics/SVG/1.1/DTD/svg11.dtd">
<!-- Creator: CorelDRAW X5 -->
<svg xmlns="http://www.w3.org/2000/svg" xml:space="preserve" width="135.467mm" height="43.0952mm" style="shape-rendering:geometricPrecision; text-rendering:geometricPrecision; image-rendering:optimizeQuality; fill-rule:evenodd; clip-rule:evenodd"
viewBox="0 0 13547 4310"
 xmlns:xlink="http://www.w3.org/1999/xlink"
 xmlns:svg="http://www.w3.org/2000/svg">
 <defs>
  <style type="text/css">
   <![CDATA[
    .fil27 {fill:#503905}
    .fil4 {fill:#010103;fill-rule:nonzero}
    .fil11 {fill:#232323;fill-rule:nonzero}
    .fil18 {fill:#604405;fill-rule:nonzero}
    .fil17 {fill:#D8B30C;fill-rule:nonzero}
    .fil20 {fill:#F6DA49;fill-rule:nonzero}
    .fil6 {fill:#FDFDFB;fill-rule:nonzero}
    .fil5 {fill:white;fill-rule:nonzero}
    .fil25 {fill:black;fill-rule:nonzero;fill-opacity:0.109804}
    .fil26 {fill:#838383;fill-rule:nonzero;fill-opacity:0.250980}
    .fil9 {fill:#A1A1A1;fill-rule:nonzero;fill-opacity:0.301961}
    .fil15 {fill:url(#id14);fill-rule:nonzero}
    .fil13 {fill:url(#id15);fill-rule:nonzero}
    .fil12 {fill:url(#id16);fill-rule:nonzero}
    .fil14 {fill:url(#id17);fill-rule:nonzero}
    .fil0 {fill:url(#id18);fill-rule:nonzero}
    .fil19 {fill:url(#id19);fill-rule:nonzero}
    .fil21 {fill:url(#id20);fill-rule:nonzero}
    .fil22 {fill:url(#id21);fill-rule:nonzero}
    .fil24 {fill:url(#id22);fill-rule:nonzero}
    .fil23 {fill:url(#id23);fill-rule:nonzero}
    .fil7 {fill:url(#id24);fill-rule:nonzero}
    .fil8 {fill:url(#id25);fill-rule:nonzero}
    .fil16 {fill:url(#id26);fill-rule:nonzero}
    .fil2 {fill:url(#id27);fill-rule:nonzero}
    .fil1 {fill:url(#id28);fill-rule:nonzero}
    .fil3 {fill:url(#id29);fill-rule:nonzero}
    .fil10 {fill:url(#id30);fill-rule:nonzero}
   ]]>
  </style>
    <mask id="id0">
  <linearGradient id="id1" gradientUnits="userSpaceOnUse" x1="1781" y1="2385.24" x2="1868.76" y2="2488.72">
   <stop offset="0" style="stop-opacity:0.392157; stop-color:white"/>
   <stop offset="0.501961" style="stop-opacity:1; stop-color:white"/>
   <stop offset="1" style="stop-opacity:0.392157; stop-color:white"/>
  </linearGradient>
     <rect style="fill:url(#id1)" x="1766" y="2376" width="119" height="122"/>
    </mask>
    <mask id="id2">
  <linearGradient id="id3" gradientUnits="userSpaceOnUse" x1="1830.68" y1="2299.32" x2="2021.28" y2="2479.18">
   <stop offset="0" style="stop-opacity:0; stop-color:white"/>
   <stop offset="0.301961" style="stop-opacity:0.580392; stop-color:white"/>
   <stop offset="0.470588" style="stop-opacity:1; stop-color:white"/>
   <stop offset="0.721569" style="stop-opacity:0.254902; stop-color:white"/>
   <stop offset="1" style="stop-opacity:0; stop-color:white"/>
  </linearGradient>
     <rect style="fill:url(#id3)" x="1821" y="2289" width="211" height="200"/>
    </mask>
    <mask id="id4">
  <linearGradient id="id5" gradientUnits="userSpaceOnUse" x1="1329.16" y1="2322.37" x2="1495.56" y2="2482.57">
   <stop offset="0" style="stop-opacity:0; stop-color:white"/>
   <stop offset="0.301961" style="stop-opacity:0.580392; stop-color:white"/>
   <stop offset="0.470588" style="stop-opacity:1; stop-color:white"/>
   <stop offset="0.721569" style="stop-opacity:0.254902; stop-color:white"/>
   <stop offset="1" style="stop-opacity:0; stop-color:white"/>
  </linearGradient>
     <rect style="fill:url(#id5)" x="1312" y="2313" width="201" height="179"/>
    </mask>
    <mask id="id6">
  <linearGradient id="id7" gradientUnits="userSpaceOnUse" x1="1300.55" y1="2378.38" x2="1379.75" y2="2517.98">
   <stop offset="0" style="stop-opacity:0; stop-color:white"/>
   <stop offset="0.258824" style="stop-opacity:1; stop-color:white"/>
   <stop offset="0.501961" style="stop-opacity:1; stop-color:white"/>
   <stop offset="1" style="stop-opacity:0; stop-color:white"/>
  </linearGradient>
     <rect style="fill:url(#id7)" x="1291" y="2368" width="99" height="160"/>
    </mask>
    <mask id="id8">
  <radialGradient id="id9" gradientUnits="userSpaceOnUse" cx="-25610.7" cy="9971.1" r="1246.47" fx="-25610.7" fy="9971.1">
   <stop offset="0" style="stop-opacity:0.247059; stop-color:white"/>
   <stop offset="1" style="stop-opacity:0.0588235; stop-color:white"/>
  </radialGradient>
     <rect style="fill:url(#id9)" x="954" y="3363" width="458" height="430"/>
    </mask>
    <mask id="id10">
  <radialGradient id="id11" gradientUnits="userSpaceOnUse" cx="-20729.4" cy="10623.8" r="1546.01" fx="-20729.4" fy="10623.8">
   <stop offset="0" style="stop-opacity:0.419608; stop-color:white"/>
   <stop offset="1" style="stop-opacity:0.101961; stop-color:white"/>
  </radialGradient>
     <rect style="fill:url(#id11)" x="1611" y="3331" width="679" height="477"/>
    </mask>
    <mask id="id12">
  <radialGradient id="id13" gradientUnits="userSpaceOnUse" cx="-23050.8" cy="10405.5" r="612.42" fx="-23050.8" fy="10405.5">
   <stop offset="0" style="stop-opacity:0.2; stop-color:white"/>
   <stop offset="1" style="stop-opacity:0.0470588; stop-color:white"/>
  </radialGradient>
     <rect style="fill:url(#id13)" x="1349" y="3384" width="286" height="304"/>
    </mask>
  <linearGradient id="id14" gradientUnits="userSpaceOnUse" x1="1300.55" y1="2378.38" x2="1379.75" y2="2517.98">
   <stop offset="0" style="stop-color:#757574"/>
   <stop offset="0.258824" style="stop-color:#757574"/>
   <stop offset="0.501961" style="stop-color:#757574"/>
   <stop offset="1" style="stop-color:#757574"/>
  </linearGradient>
  <linearGradient id="id15" gradientUnits="userSpaceOnUse" x1="1830.68" y1="2299.32" x2="2021.28" y2="2479.18">
   <stop offset="0" style="stop-color:#646464"/>
   <stop offset="0.301961" style="stop-color:#646464"/>
   <stop offset="0.470588" style="stop-color:#646464"/>
   <stop offset="0.721569" style="stop-color:#646464"/>
   <stop offset="1" style="stop-color:#646464"/>
  </linearGradient>
  <linearGradient id="id16" gradientUnits="userSpaceOnUse" x1="1781" y1="2385.24" x2="1868.76" y2="2488.72">
   <stop offset="0" style="stop-color:#939393"/>
   <stop offset="0.501961" style="stop-color:#939393"/>
   <stop offset="1" style="stop-color:#939393"/>
  </linearGradient>
  <linearGradient id="id17" gradientUnits="userSpaceOnUse" xlink:href="#id15" x1="1329.16" y1="2322.37" x2="1495.56" y2="2482.57">
  </linearGradient>
  <linearGradient id="id18" gradientUnits="userSpaceOnUse" x1="8278.47" y1="3411.05" x2="8278.47" y2="149.59">
   <stop offset="0" style="stop-color:#343844"/>
   <stop offset="0.501961" style="stop-color:#595B67"/>
   <stop offset="1" style="stop-color:#6B6E79"/>
  </linearGradient>
  <linearGradient id="id19" gradientUnits="userSpaceOnUse" x1="1267.85" y1="2837.55" x2="1948.14" y2="2837.55">
   <stop offset="0" style="stop-color:#AC770A"/>
   <stop offset="0.109804" style="stop-color:#D89E08"/>
   <stop offset="0.25098" style="stop-color:#EDB80A"/>
   <stop offset="0.388235" style="stop-color:#EBC80C"/>
   <stop offset="0.521569" style="stop-color:#F4D838"/>
   <stop offset="0.760784" style="stop-color:#F6D811"/>
   <stop offset="1" style="stop-color:#F4CD31"/>
  </linearGradient>
  <linearGradient id="id20" gradientUnits="userSpaceOnUse" x1="1947.06" y1="2814.02" x2="1948.07" y2="2873.78">
   <stop offset="0" style="stop-color:#F4CD2D"/>
   <stop offset="1" style="stop-color:#D69A08"/>
  </linearGradient>
  <radialGradient id="id21" gradientUnits="userSpaceOnUse" cx="1012.13" cy="3581.95" r="218.88" fx="1012.13" fy="3581.95">
   <stop offset="0" style="stop-color:black"/>
   <stop offset="1" style="stop-color:black"/>
  </radialGradient>
  <radialGradient id="id22" gradientUnits="userSpaceOnUse" xlink:href="#id21" cx="1481.65" cy="3672.78" r="142.16" fx="1481.65" fy="3672.78">
  </radialGradient>
  <radialGradient id="id23" gradientUnits="userSpaceOnUse" xlink:href="#id21" cx="1930.77" cy="3733.98" r="329.69" fx="1930.77" fy="3733.98">
  </radialGradient>
  <radialGradient id="id24" gradientUnits="userSpaceOnUse" cx="1367.29" cy="2594.06" r="950.9" fx="1367.29" fy="2594.06">
   <stop offset="0" style="stop-color:#FDFDFB"/>
   <stop offset="0.760784" style="stop-color:#FDFDFB"/>
   <stop offset="1" style="stop-color:#D4D4D4"/>
  </radialGradient>
  <radialGradient id="id25" gradientUnits="userSpaceOnUse" xlink:href="#id24" cx="1816.2" cy="2590.61" r="1007.84" fx="1816.2" fy="2590.61">
  </radialGradient>
  <radialGradient id="id26" gradientUnits="userSpaceOnUse" cx="1681.74" cy="2918.54" r="1725.58" fx="1681.74" fy="2918.54">
   <stop offset="0" style="stop-color:#D1930A"/>
   <stop offset="0.760784" style="stop-color:#D89C08"/>
   <stop offset="0.870588" style="stop-color:#B57E07"/>
   <stop offset="1" style="stop-color:#936005"/>
  </radialGradient>
  <radialGradient id="id27" gradientUnits="userSpaceOnUse" cx="1185.72" cy="146.84" r="1852.09" fx="1185.72" fy="146.84">
   <stop offset="0" style="stop-color:#B1E4FB"/>
   <stop offset="0.301961" style="stop-color:#03A7F2"/>
   <stop offset="1" style="stop-color:#013F5B"/>
  </radialGradient>
  <radialGradient id="id28" gradientUnits="userSpaceOnUse" cx="3188.79" cy="1250.25" r="1852.09" fx="3188.79" fy="1250.25">
   <stop offset="0" style="stop-color:#D3EFB3"/>
   <stop offset="0.301961" style="stop-color:#70C808"/>
   <stop offset="1" style="stop-color:#366003"/>
  </radialGradient>
  <radialGradient id="id29" gradientUnits="userSpaceOnUse" cx="706.21" cy="2422.19" r="1852.09" fx="706.21" fy="2422.19">
   <stop offset="0" style="stop-color:#EDAFD3"/>
   <stop offset="0.301961" style="stop-color:#C6006E"/>
   <stop offset="1" style="stop-color:#2A0018"/>
  </radialGradient>
  <radialGradient id="id30" gradientUnits="userSpaceOnUse" cx="1543.6" cy="2666.38" r="801.3" fx="1543.6" fy="2666.38">
   <stop offset="0" style="stop-color:#010103"/>
   <stop offset="0.741176" style="stop-color:#010103"/>
   <stop offset="1" style="stop-color:#5B5B5B"/>
  </radialGradient>
 </defs>
 <g id="Layer_x0020_1">
  <metadata id="CorelCorpID_0Corel-Layer"/>
 </g>
 <g id="Layer_x0020_1_0">
  <metadata id="CorelCorpID_1Corel-Layer"/>
  <g id="_617463056">
   <path class="fil0" d="M3010 46l0 3469 726 0 0 -1266 428 -327 1246 1593 857 0 -1603 -2002 1482 -1467 -847 0 -1564 1574 0 -1574 -726 0 0 0zm3342 0l0 0 1280 3469 743 0 1272 -3469 -751 0 -713 2228c-23,77 -46,156 -69,234 -23,77 -38,147 -54,209 -23,74 -38,145 -54,211 -15,-69 -38,-141 -54,-216 -23,-64 -38,-135 -61,-212 -23,-77 -46,-152 -69,-227l-713 -2228 -759 0 0 0zm3670 0l0 0 0 3469 644 0 0 -2103 0 -227c-8,-87 -8,-170 -15,-249 0,-92 -8,-185 -8,-280 31,129 69,253 100,369 15,49 31,100 46,152 15,53 31,103 38,153 15,49 31,95 38,138 15,42 31,79 38,110l628 1935 513 0 628 -1935c8,-31 15,-68 31,-110 15,-43 31,-89 38,-138 15,-50 31,-100 46,-153 15,-52 31,-103 46,-152 31,-116 61,-240 92,-369 0,82 -8,166 -8,254 -8,74 -8,155 -8,244 -8,89 -8,175 -8,259l0 2103 644 0 0 -3469 -965 0 -613 1953c-8,25 -15,52 -23,84 -8,31 -23,64 -31,98 -8,34 -23,70 -31,107 -8,36 -15,71 -31,106 -15,79 -38,161 -61,246 -23,-87 -46,-171 -69,-251 -15,-69 -38,-140 -54,-214 -15,-74 -38,-136 -54,-188l-621 -1940 -973 0 0 0z"/>
   <path class="fil1" d="M3462 1508c0,222 -180,402 -402,402 -222,0 -402,-180 -402,-402 0,-222 180,-402 402,-402 222,0 402,180 402,402z"/>
   <path class="fil2" d="M1459 404c0,222 -180,402 -402,402 -222,0 -402,-180 -402,-402 0,-222 180,-402 402,-402 222,0 402,180 402,402z"/>
   <path class="fil3" d="M980 2688c0,222 -180,402 -402,402 -222,0 -402,-180 -402,-402 0,-222 180,-402 402,-402 222,0 402,180 402,402z"/>
   <path class="fil4" d="M803 3718c-63,31 -122,71 -186,100 -64,29 -137,46 -205,29 -30,-7 -58,-21 -89,-24 -15,-1 -31,1 -45,8 -14,7 -25,19 -30,34 -3,11 -2,23 -2,35 0,33 -9,67 -31,91 -12,13 -27,23 -44,26 -19,3 -39,-3 -56,-13 -17,-10 -31,-24 -44,-39 -16,-17 -32,-35 -45,-55 -13,-20 -22,-42 -24,-66 -2,-23 3,-46 11,-67 9,-21 21,-41 34,-59 40,-57 88,-107 142,-151 55,-44 116,-81 177,-117 70,-41 140,-82 213,-118 111,-54 228,-93 345,-129 78,-24 160,-46 240,-30 33,7 65,20 92,39 64,44 104,119 105,196 0,24 -3,49 -12,71 -9,23 -24,43 -44,57 -18,12 -39,19 -60,23 -21,4 -43,7 -64,11 -55,12 -105,37 -157,58 -73,31 -149,55 -220,90l0 0z"/>
   <path class="fil5" d="M752 3702c-108,41 -210,97 -302,167 -46,1 -92,-21 -120,-57 -28,-36 -37,-87 -24,-131 13,-44 46,-79 79,-110 62,-56 130,-105 201,-150 99,-64 203,-122 314,-160 84,-29 173,-48 262,-54 -37,79 -76,157 -116,235 -36,70 -73,138 -112,207 -62,13 -123,31 -182,54l0 0z"/>
   <path class="fil4" d="M752 3702c-108,41 -210,97 -302,167 -46,1 -92,-21 -120,-57 -28,-36 -37,-87 -24,-131 13,-44 46,-79 79,-110 62,-56 130,-105 201,-150 99,-64 203,-122 314,-160 84,-29 173,-48 262,-54 -37,79 -76,157 -116,235 -36,70 -73,138 -112,207 -62,13 -123,31 -182,54l0 0z"/>
   <path class="fil5" d="M725 3702c-74,34 -147,68 -221,102 -40,-13 -76,-38 -101,-71 -26,-33 -41,-74 -43,-116 0,-7 0,-14 0,-21 8,-8 17,-16 25,-24 62,-56 130,-105 201,-150 99,-64 203,-122 314,-160 75,-26 153,-43 232,-51 -31,65 -64,130 -97,194 -36,70 -73,138 -112,207 -66,31 -132,61 -198,91l0 0z"/>
   <path class="fil4" d="M1613 2587c-21,0 -42,1 -63,3 -84,10 -168,44 -223,108 -46,53 -70,121 -87,189 -17,68 -28,138 -54,203 -44,109 -126,198 -182,301 -61,114 -87,244 -133,365 -41,111 -100,215 -140,326 -26,73 -43,148 -51,225l1998 0c21,-128 22,-260 5,-389 -25,-182 -82,-359 -159,-527 -40,-87 -84,-172 -124,-258 -32,-71 -62,-144 -101,-212 -38,-67 -87,-132 -151,-177 -47,-34 -100,-56 -154,-75 -64,-22 -128,-41 -194,-56 -62,-14 -125,-25 -188,-25l0 0z"/>
   <path class="fil4" d="M1182 2950c-1,-95 -4,-191 -10,-286 -5,-92 -12,-183 -9,-275 4,-93 19,-188 60,-271 41,-84 109,-155 191,-199 77,-42 166,-59 254,-59 119,1 239,37 335,107 60,44 111,100 151,163 34,54 61,112 78,174 34,126 26,259 33,390 6,124 26,247 19,371 -1,27 -4,54 -16,78 -12,23 -31,42 -54,55 -23,13 -48,20 -74,24 -52,8 -105,3 -157,8 -76,7 -148,35 -223,47 -90,14 -181,4 -272,0 -36,-1 -73,-2 -109,-6 -36,-5 -72,-13 -104,-30 -20,-11 -38,-24 -53,-41 -15,-17 -26,-37 -32,-58 -9,-32 -5,-67 -4,-100 1,-31 -1,-62 -6,-92l0 0z"/>
   <path class="fil6" d="M1466 2858l-18 0c-23,2 -47,6 -68,15 -21,9 -41,22 -56,41 -13,16 -21,35 -26,55 -5,20 -7,41 -8,61 -2,41 1,83 -10,123 -11,42 -38,79 -64,115 -44,62 -89,126 -110,198 -13,44 -18,91 -13,137 -49,73 -92,149 -128,230 -54,122 -90,252 -103,385 -3,30 -5,61 -5,90l1527 0c18,-200 11,-407 -76,-587 -33,-68 -77,-132 -129,-186 -14,-95 -42,-188 -82,-276 -29,-64 -64,-123 -92,-188 -11,-26 -21,-53 -33,-79 -12,-26 -28,-51 -48,-70 -21,-20 -47,-34 -75,-44 -28,-9 -57,-13 -86,-15 -58,-3 -117,5 -175,2 -41,-2 -81,-8 -122,-8z"/>
   <path class="fil7" d="M1344 2405c-22,1 -43,11 -59,26 -16,15 -27,34 -34,55 -14,41 -11,86 -8,130 3,39 6,80 21,116 7,18 18,36 32,50 14,14 31,25 50,30 18,5 37,4 55,-2 18,-6 34,-16 47,-29 19,-19 32,-44 40,-70 7,-26 10,-53 9,-80 0,-34 -5,-68 -16,-100 -11,-32 -28,-63 -51,-87 -11,-12 -24,-22 -39,-29 -15,-7 -31,-11 -48,-10l0 0z"/>
   <path class="fil8" d="M1730 2405c-34,23 -63,56 -77,95 -18,49 -11,104 6,153 17,50 47,99 90,129 22,15 47,26 74,29 27,3 54,-1 78,-13 29,-15 51,-41 65,-71 14,-30 19,-62 21,-95 2,-41 -2,-83 -15,-123 -15,-43 -42,-82 -79,-106 -19,-12 -40,-21 -63,-24 -22,-3 -45,-1 -66,7 -12,5 -23,11 -34,18l0 0z"/>
   <path class="fil9" d="M1336 2758c-22,18 -43,37 -63,57 -11,11 -22,23 -27,38 -4,13 -4,28 -6,41 -1,5 -2,9 -2,14 0,2 0,5 1,7 1,2 2,4 3,6 3,3 7,4 11,5 4,1 8,1 12,1 18,2 34,11 49,21 15,10 28,22 44,32 33,21 73,31 113,32 40,2 79,-5 118,-12 31,-6 62,-14 91,-25 45,-18 85,-45 124,-74 18,-13 35,-27 51,-42 5,-5 11,-11 16,-15 6,-5 12,-9 19,-11 11,-3 23,-2 34,-1 8,1 17,3 25,3 4,0 9,-1 13,-2 4,-2 8,-4 10,-7 4,-4 5,-10 5,-16 0,-6 -2,-11 -5,-16 -6,-10 -16,-16 -26,-21 -14,-6 -29,-9 -44,-13 -46,-11 -91,-27 -133,-48 -21,-10 -41,-22 -62,-33 -21,-11 -43,-22 -66,-29 -52,-16 -108,-11 -159,7 -57,20 -108,55 -147,100l0 0z"/>
   <path class="fil10" d="M1446 2693c22,-24 36,-54 57,-79 10,-13 22,-24 37,-32 14,-8 31,-13 47,-11 18,2 35,11 48,23 13,12 23,28 31,44 8,16 13,32 24,46 12,15 28,24 42,36 7,6 14,12 20,19 6,7 10,16 12,25 2,9 1,19 -2,28 -3,9 -9,17 -15,23 -14,13 -32,20 -51,23 -37,5 -75,-6 -113,-5 -38,1 -75,15 -113,13 -19,-1 -38,-5 -54,-16 -8,-5 -15,-12 -20,-21 -5,-8 -8,-18 -8,-27 0,-9 2,-18 5,-26 4,-8 9,-16 14,-23 12,-14 26,-26 38,-39l0 0z"/>
   <path class="fil11" d="M1871 2019c-31,22 -18,50 -4,78 14,28 -30,108 -30,111 0,3 85,-41 108,-69 28,-34 97,46 93,34 0,-22 -136,-176 -167,-153l0 0z"/>
   <path class="fil4" d="M1778 2359c-13,1 -25,5 -36,12 -11,7 -20,16 -27,27 -15,21 -21,47 -22,73 -1,19 1,39 8,57 6,18 17,35 32,47 15,13 35,20 54,21 20,1 40,-5 56,-16 13,-9 23,-21 31,-35 7,-14 12,-29 14,-45 4,-28 0,-56 -13,-81 -13,-25 -34,-45 -60,-55 -11,-4 -23,-6 -35,-5l0 0z"/>
   <path class="fil12" style="mask:url(#id0)" d="M1857 2470c14,-14 -10,-52 -29,-67 -14,-11 -54,-23 -52,-11 2,12 20,28 32,40 15,15 43,45 49,38z"/>
   <path class="fil13" style="mask:url(#id2)" d="M1849 2304c-6,7 -11,15 -15,24 26,6 51,17 74,31 43,29 76,71 100,118 5,-6 10,-12 15,-20 -23,-49 -57,-93 -102,-123 -22,-14 -46,-25 -71,-31z"/>
   <path class="fil14" style="mask:url(#id4)" d="M1341 2328c-3,0 -6,0 -9,0 -2,0 -4,0 -6,0 17,2 35,6 50,13 21,10 40,23 57,39 31,29 54,64 69,102 -4,-29 -13,-56 -25,-82 -6,-7 -12,-14 -19,-20 -17,-16 -35,-29 -57,-39 -19,-8 -39,-14 -60,-14l0 0z"/>
   <path class="fil4" d="M1256 2444c-5,28 -5,56 5,83 6,17 17,33 29,47 8,9 18,17 28,22 11,5 23,7 35,4 11,-3 20,-10 27,-18 7,-9 12,-19 15,-30 10,-31 8,-66 -2,-97 -7,-23 -19,-45 -37,-60 -9,-7 -19,-13 -30,-16 -11,-3 -23,-2 -34,3 -12,5 -21,15 -26,26 -6,11 -9,24 -11,36l0 0z"/>
   <path class="fil15" style="mask:url(#id6)" d="M1315 2424c3,8 13,11 18,17 5,6 11,12 14,20 6,14 -6,36 6,46 4,3 11,3 15,0 14,-13 11,-39 5,-57 -5,-16 -17,-32 -33,-40 -7,-4 -18,-7 -24,-1 -4,3 -3,11 -2,15l0 0z"/>
   <path class="fil16" d="M1240 2928c1,4 2,7 4,10 3,5 8,10 13,14 5,4 11,7 16,10 29,18 52,43 73,70 28,36 52,76 89,102 26,18 58,29 89,32 37,4 75,-2 111,-13 33,-10 66,-24 95,-42 56,-35 103,-86 166,-109 14,-5 28,-9 41,-15 13,-6 25,-15 32,-28 6,-13 6,-27 8,-41 2,-15 7,-29 9,-44 3,-15 3,-30 -3,-44 -5,-11 -15,-20 -26,-26 -11,-6 -23,-8 -36,-9 -25,-1 -49,5 -73,7 -32,3 -65,-1 -98,0 -41,1 -81,10 -121,12 -46,2 -92,-5 -139,-7 -20,-1 -40,-1 -60,3 -20,3 -39,10 -56,21 -16,11 -29,26 -44,39 -7,6 -15,12 -24,17 -9,4 -18,7 -28,7 -5,0 -10,-1 -15,1 -3,1 -6,3 -8,5 -2,2 -4,5 -6,7 -4,6 -8,12 -11,19l0 0z"/>
   <path class="fil17" d="M1421 2978c-5,20 -2,41 8,58 10,18 26,31 45,38 24,8 52,4 74,-8 13,-7 25,-17 33,-29 4,-6 6,-13 7,-21 1,-7 0,-15 -2,-22 -3,-8 -8,-14 -14,-20 -6,-5 -14,-9 -21,-12 -15,-5 -32,-5 -48,-4 -25,1 -49,4 -73,9l-9 10z"/>
   <path class="fil18" d="M1342 2826c-16,10 -32,20 -48,31 -8,6 -16,12 -21,21 -3,6 -4,13 -4,20 0,7 0,14 -1,21 -1,5 -2,9 -2,14 0,2 0,5 1,7 1,2 2,5 3,6 2,2 5,4 8,5 3,1 6,1 9,2 14,3 27,12 38,22 11,10 21,21 32,30 31,25 72,36 112,36 40,1 80,-8 119,-17 31,-7 61,-14 91,-25 45,-17 88,-42 124,-74 17,-14 32,-30 51,-42 16,-10 35,-17 52,-27 2,-1 3,-2 4,-3 1,-1 3,-2 3,-4 1,-3 1,-6 0,-9 -1,-3 -3,-5 -4,-8 -2,-3 -4,-5 -7,-7 -17,-15 -41,-20 -64,-22 -23,-2 -46,-1 -69,-4 -21,-4 -42,-12 -62,-18 -22,-7 -44,-12 -66,-16 -53,-9 -107,-7 -159,4 -50,10 -98,29 -141,55l0 0z"/>
   <path class="fil19" d="M1336 2771c-24,16 -45,35 -63,57 -10,13 -20,26 -25,42 -4,12 -5,25 -8,38 -1,5 -2,9 -2,14 0,2 0,5 1,7 1,2 2,4 4,6 3,3 7,4 11,5 4,1 8,1 12,1 18,2 34,11 49,21 15,10 28,22 44,32 34,21 74,31 113,32 40,2 79,-4 118,-12 31,-6 62,-14 91,-25 45,-18 85,-45 124,-74 18,-13 35,-27 51,-42 5,-5 11,-11 16,-15 6,-5 12,-9 19,-11 11,-3 23,-2 34,-1 8,1 17,3 25,3 4,0 9,-1 13,-3 4,-2 8,-4 10,-7 4,-4 5,-10 5,-16 0,-6 -2,-11 -5,-16 -6,-10 -16,-16 -26,-21 -14,-6 -29,-9 -44,-13 -46,-11 -91,-27 -133,-48 -21,-10 -41,-22 -62,-33 -21,-11 -43,-22 -66,-29 -52,-16 -108,-11 -159,7 -57,20 -108,55 -147,100l0 0z"/>
   <path class="fil20" d="M1699 2782c-3,-4 -7,-6 -11,-7 -4,-1 -9,-1 -13,-1 -9,2 -17,6 -24,11 -21,14 -39,32 -56,52 -21,26 -39,56 -45,89 -1,6 -2,11 -1,17 1,6 3,11 7,15 4,4 8,6 13,6 5,1 10,0 15,-2 9,-3 17,-10 25,-16 41,-37 78,-81 93,-133 1,-5 3,-11 3,-16 0,-6 -1,-11 -5,-15l0 0z"/>
   <path class="fil21" d="M1983 2844c-3,24 -21,43 -40,43 -19,0 -33,-19 -30,-43 3,-24 21,-43 40,-43 19,0 33,19 30,43z"/>
   <path class="fil22" style="mask:url(#id8)" d="M1119 3498c12,19 -8,83 283,42 0,0 -51,6 -101,17 -78,26 -146,55 -199,94 -52,38 -90,88 -138,131 0,0 77,-141 97,-184 19,-43 -3,-41 12,-103 15,-63 53,-123 53,-123 0,0 -30,88 -6,125l0 0z"/>
   <path class="fil23" style="mask:url(#id10)" d="M2052 3482c-59,41 -94,36 -166,44 -72,8 -266,5 -266,5 0,0 28,-1 90,11 62,12 189,23 261,50 72,27 98,35 141,63 62,39 107,100 167,143 0,0 3,-57 -21,-99 -24,-43 -88,-110 -107,-172 -19,-63 -28,-186 -28,-186 0,0 -13,99 -72,141l0 0z"/>
   <path class="fil24" style="mask:url(#id12)" d="M1496 3394c-2,18 -5,36 -9,53 -2,9 -4,17 -7,26 -3,8 -8,16 -15,22 -6,5 -13,9 -20,12 -28,13 -57,21 -87,25 12,1 24,2 36,3 8,1 15,2 22,4 7,2 15,5 21,9 7,5 12,12 16,19 8,15 10,31 12,48 2,21 2,42 0,64 1,-14 4,-28 9,-42 8,-24 21,-47 38,-66 7,-7 14,-14 23,-20 25,-18 58,-26 89,-22 -31,1 -63,-8 -88,-27 -13,-10 -24,-22 -32,-36 -12,-22 -15,-48 -9,-72l0 0z"/>
   <path class="fil25" d="M1420 3811c-15,57 -25,116 -31,175 -8,84 -5,167 -10,251 -2,23 -3,47 -5,70l32 0c-2,-89 10,-178 15,-266 5,-77 4,-154 -2,-231z"/>
   <path class="fil11" d="M2109 2951c-27,24 12,60 31,103 11,27 43,64 74,58 23,-5 37,-38 35,-61 -4,-45 -42,-56 -70,-71 -22,-12 -51,-45 -70,-28l0 0z"/>
   <path class="fil4" d="M2687 2876c44,-83 95,-164 161,-231 42,-42 91,-80 119,-133 26,-49 30,-106 25,-161 -3,-32 -8,-64 -5,-96 2,-16 5,-33 14,-47 8,-14 22,-26 38,-29 10,-2 20,-1 30,2 10,3 18,9 26,15 15,13 26,31 37,48 32,54 61,111 82,170 40,113 52,237 24,353 -29,120 -100,227 -179,322 -89,106 -190,201 -301,284 -53,39 -108,76 -165,108 -21,12 -42,23 -64,32 -22,8 -46,13 -70,12 -23,-1 -46,-8 -66,-19 -20,-11 -38,-26 -53,-44 -30,-35 -50,-78 -65,-122 -8,-23 -15,-47 -16,-71 -1,-24 5,-50 19,-69 13,-17 33,-29 54,-37 21,-8 42,-12 63,-17 60,-15 118,-40 163,-80 58,-51 93,-123 130,-192l0 0z"/>
   <path class="fil5" d="M2679 2883c47,-87 97,-174 168,-244 41,-40 89,-76 114,-127 23,-45 26,-97 25,-147 0,-36 -2,-73 0,-109 1,-16 3,-33 11,-47 4,-7 9,-14 15,-19 6,-5 14,-9 22,-10 10,-2 22,1 30,7 -8,7 -15,17 -19,27 -5,13 -5,27 -5,41 2,66 21,130 23,196 2,41 -4,83 -22,120 -15,29 -38,53 -58,79 -60,75 -99,165 -134,254 -21,54 -41,108 -66,160 -28,59 -63,116 -118,152 -49,32 -108,44 -166,51 -29,3 -59,5 -89,2 -29,-3 -59,-10 -84,-25 -19,-11 -37,-26 -50,-44 40,-21 80,-40 121,-59 59,-27 121,-53 169,-97 49,-45 81,-105 112,-163l0 0z"/>
   <path class="fil4" d="M2676 2881c24,-44 48,-87 75,-129 27,-42 58,-81 93,-116 10,-10 20,-20 31,-29 32,-29 64,-59 83,-97 11,-22 17,-46 21,-70 4,-25 4,-50 4,-75 0,-9 0,-19 0,-28 -1,-27 -1,-54 1,-81 1,-8 2,-17 3,-25 2,-8 4,-16 8,-24 2,-4 4,-8 7,-11 3,-3 5,-6 9,-9 3,-3 7,-5 11,-7 4,-2 8,-3 12,-4 6,-1 12,-1 17,1 6,1 11,4 16,7l4 3 -4 3c-4,3 -8,7 -10,12 -3,4 -5,9 -7,14 -2,6 -3,13 -4,19 -1,7 -1,14 0,21 1,33 6,66 12,99 5,32 10,64 12,97 1,21 0,42 -4,62 -3,21 -10,41 -19,59 -12,23 -28,42 -44,62 -5,6 -10,12 -15,18 -30,37 -54,78 -76,121 -22,43 -40,88 -58,132 -5,12 -8,22 -12,31 -17,44 -34,87 -54,129 -14,29 -30,59 -49,85 -19,27 -42,50 -70,69 -25,16 -52,28 -81,36 -28,8 -58,13 -87,16 -15,2 -30,3 -44,3 -15,1 -30,0 -45,-1 -16,-1 -31,-4 -46,-9 -14,-4 -27,-10 -40,-17 -10,-6 -19,-12 -28,-20 -9,-8 -16,-16 -23,-25l-3 -4 4 -2c20,-11 40,-21 60,-30 20,-10 40,-19 61,-29l17 -8c54,-24 108,-49 151,-88 47,-43 78,-100 108,-156 1,-1 3,-6 4,-7zm82 -124c-27,41 -51,85 -75,128l-3 6c-31,57 -62,114 -110,158 -44,40 -99,65 -153,90l-17 8c-20,9 -40,19 -61,29 -19,9 -38,19 -56,28 6,7 12,14 19,20 8,7 17,14 27,19 12,7 25,12 38,16 15,4 30,7 45,8 15,1 29,2 44,1 15,-1 29,-2 44,-3 29,-3 58,-8 86,-15 28,-8 55,-19 79,-35 27,-18 49,-41 68,-67 19,-26 35,-55 49,-84 20,-42 37,-85 54,-129 4,-11 9,-22 12,-31 18,-45 36,-90 58,-133 22,-43 47,-85 77,-123 5,-6 10,-12 15,-18 16,-19 32,-38 43,-60 9,-18 15,-37 18,-57 3,-20 4,-41 4,-61 -1,-32 -6,-64 -12,-96 -5,-33 -11,-67 -12,-100 0,-7 0,-14 0,-21 1,-7 2,-14 5,-21 2,-6 5,-11 8,-16 2,-3 5,-7 8,-10 -3,-2 -6,-3 -9,-4 -5,-1 -10,-1 -14,-1 -4,1 -7,2 -10,3 -3,2 -7,4 -10,6 -3,2 -5,5 -8,8 -2,3 -4,6 -6,10 -3,7 -6,14 -7,22 -2,8 -2,16 -3,24 -2,27 -1,54 -1,81 0,9 0,19 0,28 0,25 0,51 -4,76 -4,25 -10,50 -22,72 -20,39 -52,69 -85,99 -10,10 -21,19 -31,29 -35,35 -65,74 -92,115z"/>
   <path class="fil26" d="M3041 2242c-9,6 -16,12 -20,21 -16,38 -18,103 -7,146 11,47 35,73 17,115 -13,30 -78,36 -103,56 -46,37 -62,81 -100,126 -27,32 -49,68 -67,105 -52,113 -136,282 -291,351 -49,22 -125,47 -187,47 -2,-2 -4,-5 -6,-7 40,-20 80,-40 121,-59 59,-28 119,-55 169,-97 51,-43 91,-100 112,-163l0 0c38,-92 96,-176 168,-244 41,-40 89,-76 114,-127 22,-45 26,-97 25,-147 0,-36 -2,-73 0,-109 1,-16 3,-33 11,-47 4,-7 9,-14 15,-19 6,-5 14,-9 22,-10 10,-2 22,1 30,7 -8,7 -15,17 -19,27 -3,9 -4,19 -5,28z"/>
   <path class="fil4" d="M300 4101c45,20 93,34 142,32 48,-2 93,-21 139,-34 53,-16 110,-25 165,-18 42,5 83,20 120,39 31,16 61,35 89,57 8,6 16,13 25,17 9,4 20,7 30,4 8,-2 14,-7 20,-13 5,-6 9,-13 12,-20 11,-25 15,-52 12,-78 -2,-27 -10,-53 -23,-76 -28,-55 -77,-97 -129,-131 -75,-50 -162,-88 -253,-86 -36,1 -71,8 -107,10 -36,2 -73,0 -104,-17 -35,-19 -59,-52 -84,-83 -13,-15 -26,-30 -42,-42 -16,-12 -34,-21 -54,-24 -17,-3 -35,0 -51,6 -16,6 -31,15 -45,26 -27,21 -48,49 -71,75 -19,22 -39,42 -54,67 -15,24 -26,52 -24,81 1,18 8,35 18,50 10,15 22,28 37,39 28,22 61,36 94,52 46,23 91,49 138,70l0 0z"/>
   <path class="fil27" d="M1635 2691c18,5 31,16 28,26 -2,9 -19,13 -37,8 -18,-5 -31,-16 -28,-26 3,-9 19,-13 37,-8z"/>
  </g>
 </g>
</svg>

