<?xml version="1.0" encoding="UTF-8" standalone="no"?>
<!-- Created with Inkscape (http://www.inkscape.org/) -->

<svg
   xmlns:dc="http://purl.org/dc/elements/1.1/"
   xmlns:cc="http://creativecommons.org/ns#"
   xmlns:rdf="http://www.w3.org/1999/02/22-rdf-syntax-ns#"
   xmlns:svg="http://www.w3.org/2000/svg"
   xmlns="http://www.w3.org/2000/svg"
   xmlns:sodipodi="http://sodipodi.sourceforge.net/DTD/sodipodi-0.dtd"
   xmlns:inkscape="http://www.inkscape.org/namespaces/inkscape"
   width="90.579147mm"
   height="25.466593mm"
   viewBox="0 0 90.579147 25.466593"
   version="1.1"
   id="svg4437"
   inkscape:version="0.92.5 (2060ec1f9f, 2020-04-08)"
   sodipodi:docname="LAPPS logo e texto.svg">
  <defs
     id="defs4431" />
  <sodipodi:namedview
     id="base"
     pagecolor="#ffffff"
     bordercolor="#666666"
     borderopacity="1.0"
     inkscape:pageopacity="0.0"
     inkscape:pageshadow="2"
     inkscape:zoom="0.74653479"
     inkscape:cx="226.47795"
     inkscape:cy="-130.3174"
     inkscape:document-units="mm"
     inkscape:current-layer="layer1"
     showgrid="false"
     inkscape:window-width="1920"
     inkscape:window-height="1043"
     inkscape:window-x="0"
     inkscape:window-y="0"
     inkscape:window-maximized="1"
     fit-margin-top="0"
     fit-margin-left="0"
     fit-margin-right="0"
     fit-margin-bottom="0" />
  <metadata
     id="metadata4434">
    <rdf:RDF>
      <cc:Work
         rdf:about="">
        <dc:format>image/svg+xml</dc:format>
        <dc:type
           rdf:resource="http://purl.org/dc/dcmitype/StillImage" />
        <dc:title></dc:title>
      </cc:Work>
    </rdf:RDF>
  </metadata>
  <g
     inkscape:label="Camada 1"
     inkscape:groupmode="layer"
     id="layer1"
     transform="translate(-39.58427,-89.971259)">
    <g
       transform="matrix(0.70727819,0,0,0.70727819,39.58427,90.04232)"
       data-name="Assinatura de marca"
       id="Assinatura_de_marca"
       inkscape:export-xdpi="223"
       inkscape:export-ydpi="223">
      <path
         style="fill:#40b08b"
         inkscape:connector-curvature="0"
         transform="translate(-20.589,-0.716)"
         d="M 49.378,4.971 H 34.5 L 38.33,1.1 a 17.6,17.6 0 0 1 11.048,3.871 z"
         data-name="Path 1"
         id="Path_1" />
      <path
         style="fill:#3baf9c"
         inkscape:connector-curvature="0"
         transform="translate(-8.892,-12.294)"
         d="M 43.366,24.451 H 14.9 L 18.851,20.5 h 22.54 a 17.251,17.251 0 0 1 1.975,3.951 z"
         data-name="Path 2"
         id="Path_2" />
      <path
         style="fill:#3bb2b2"
         inkscape:connector-curvature="0"
         transform="translate(0,-24.051)"
         d="m 35.523,42.216 a 15.588,15.588 0 0 1 -0.121,1.935 H 1.935 L 0,42.216 2.016,40.2 H 35.4 a 16.412,16.412 0 0 1 0.123,2.016 z"
         data-name="Path 3"
         id="Path_3" />
      <path
         style="fill:#3c9eae"
         inkscape:connector-curvature="0"
         transform="translate(-8.713,-35.748)"
         d="m 43.228,59.8 a 17.25,17.25 0 0 1 -1.976,3.951 h -22.7 L 14.6,59.8 Z"
         data-name="Path 4"
         id="Path_4" />
      <path
         style="fill:#3d89aa"
         inkscape:connector-curvature="0"
         transform="translate(-20.47,-47.445)"
         d="M 49.42,79.4 A 17.775,17.775 0 0 1 38.251,83.351 L 34.3,79.4 Z"
         data-name="Path 5"
         id="Path_5" />
      <g
         transform="translate(46.127,-0.1)"
         data-name="Group 1"
         id="Group_1">
        <path
           style="fill:#9d9d9c"
           inkscape:connector-curvature="0"
           transform="translate(-114.4,-0.377)"
           d="m 118.15,0.7 v 30.966 h 4.032 v 2.863 H 114.4 V 0.7 Z"
           data-name="Path 6"
           id="Path_6" />
        <path
           style="fill:#9d9d9c"
           inkscape:connector-curvature="0"
           transform="translate(-137.138,-0.377)"
           d="m 159.113,25.578 h -2.661 l -0.726,8.951 H 152.5 L 155.484,0.7 h 4.838 l 3.185,33.829 h -3.629 z m -2.419,-2.822 h 2.177 L 157.863,11.144 H 157.7 Z"
           data-name="Path 7"
           id="Path_7" />
        <path
           style="fill:#9d9d9c"
           inkscape:connector-curvature="0"
           transform="translate(-165.426,-0.377)"
           d="m 205.384,0.7 a 4.505,4.505 0 0 1 3.226,1.25 4.686,4.686 0 0 1 1.331,3.589 v 11.047 a 3.727,3.727 0 0 1 -1.25,3.185 5.018,5.018 0 0 1 -3.145,0.927 h -1.856 v 13.83 H 199.9 V 0.7 Z m 0.726,5.443 c 0,-1.492 -0.363,-2.218 -1.129,-2.218 h -1.29 v 13.629 h 1.452 c 0.645,0 0.968,-0.726 0.968,-2.137 z"
           data-name="Path 8"
           id="Path_8" />
        <path
           style="fill:#9d9d9c"
           inkscape:connector-curvature="0"
           transform="translate(-193.117,-0.377)"
           d="m 251.784,0.7 a 4.505,4.505 0 0 1 3.226,1.25 4.686,4.686 0 0 1 1.331,3.589 v 11.047 a 3.727,3.727 0 0 1 -1.25,3.185 5.018,5.018 0 0 1 -3.145,0.927 h -1.856 v 13.83 H 246.3 V 0.7 Z m 0.726,5.443 c 0,-1.492 -0.363,-2.218 -1.129,-2.218 h -1.29 v 13.629 h 1.452 c 0.645,0 0.968,-0.726 0.968,-2.137 z"
           data-name="Path 9"
           id="Path_9" />
        <path
           style="fill:#9d9d9c"
           inkscape:connector-curvature="0"
           transform="translate(-220.927,0.1)"
           d="M 299.029,13.811 V 5.343 a 3.533,3.533 0 0 0 -0.282,-1.734 0.932,0.932 0 0 0 -0.806,-0.484 h -0.2 a 0.822,0.822 0 0 0 -0.806,0.524 3.722,3.722 0 0 0 -0.282,1.774 V 9.5 a 8.115,8.115 0 0 0 0.968,4.072 34.961,34.961 0 0 0 2.137,3.266 30.912,30.912 0 0 1 2.137,3.306 8.325,8.325 0 0 1 0.968,4.153 v 5.242 a 5.194,5.194 0 0 1 -0.4,2.218 4.059,4.059 0 0 1 -1.008,1.492 3.813,3.813 0 0 1 -1.452,0.887 4.977,4.977 0 0 1 -1.693,0.282 h -0.726 a 4.977,4.977 0 0 1 -1.693,-0.282 3.772,3.772 0 0 1 -1.492,-0.887 4.786,4.786 0 0 1 -1.089,-1.532 5.316,5.316 0 0 1 -0.4,-2.218 v -9.076 h 3.427 v 8.467 a 2.878,2.878 0 0 0 0.4,1.774 1.174,1.174 0 0 0 0.927,0.524 h 0.2 a 1.014,1.014 0 0 0 0.887,-0.524 3.238,3.238 0 0 0 0.363,-1.774 V 24.818 A 8.116,8.116 0 0 0 298.146,20.746 34.967,34.967 0 0 0 296,17.48 30.922,30.922 0 0 1 293.863,14.174 8.325,8.325 0 0 1 292.895,10.021 V 4.779 a 5.192,5.192 0 0 1 0.4,-2.218 4.687,4.687 0 0 1 1.048,-1.492 4.583,4.583 0 0 1 1.492,-0.887 4.754,4.754 0 0 1 1.665,-0.282 h 0.484 a 4.6,4.6 0 0 1 1.653,0.282 4.545,4.545 0 0 1 1.452,0.887 4.512,4.512 0 0 1 1.048,1.492 6.048,6.048 0 0 1 0.4,2.218 v 8.991 h -3.508 z"
           data-name="Path 10"
           id="Path_10" />
      </g>
    </g>
    <g
       transform="matrix(0.70727819,0,0,0.70727819,39.58427,90.04232)"
       data-name="Assinatura de marca"
       id="Assinatura_de_marca-2"
       inkscape:export-xdpi="223"
       inkscape:export-ydpi="223">
      <path
         style="fill:#40b08b"
         inkscape:connector-curvature="0"
         transform="translate(-20.589,-0.716)"
         d="M 49.378,4.971 H 34.5 L 38.33,1.1 a 17.6,17.6 0 0 1 11.048,3.871 z"
         data-name="Path 1"
         id="Path_1-2" />
      <path
         style="fill:#3baf9c"
         inkscape:connector-curvature="0"
         transform="translate(-8.892,-12.294)"
         d="M 43.366,24.451 H 14.9 L 18.851,20.5 h 22.54 a 17.251,17.251 0 0 1 1.975,3.951 z"
         data-name="Path 2"
         id="Path_2-2" />
      <path
         style="fill:#3bb2b2"
         inkscape:connector-curvature="0"
         transform="translate(0,-24.051)"
         d="m 35.523,42.216 a 15.588,15.588 0 0 1 -0.121,1.935 H 1.935 L 0,42.216 2.016,40.2 H 35.4 a 16.412,16.412 0 0 1 0.123,2.016 z"
         data-name="Path 3"
         id="Path_3-2" />
      <path
         style="fill:#3c9eae"
         inkscape:connector-curvature="0"
         transform="translate(-8.713,-35.748)"
         d="m 43.228,59.8 a 17.25,17.25 0 0 1 -1.976,3.951 h -22.7 L 14.6,59.8 Z"
         data-name="Path 4"
         id="Path_4-2" />
      <path
         style="fill:#3d89aa"
         inkscape:connector-curvature="0"
         transform="translate(-20.47,-47.445)"
         d="M 49.42,79.4 A 17.775,17.775 0 0 1 38.251,83.351 L 34.3,79.4 Z"
         data-name="Path 5"
         id="Path_5-2" />
      <g
         transform="translate(46.127,-0.1)"
         data-name="Group 1"
         id="Group_1-2">
        <path
           style="fill:#9d9d9c"
           inkscape:connector-curvature="0"
           transform="translate(-114.4,-0.377)"
           d="m 118.15,0.7 v 30.966 h 4.032 v 2.863 H 114.4 V 0.7 Z"
           data-name="Path 6"
           id="Path_6-2" />
        <path
           style="fill:#9d9d9c"
           inkscape:connector-curvature="0"
           transform="translate(-137.138,-0.377)"
           d="m 159.113,25.578 h -2.661 l -0.726,8.951 H 152.5 L 155.484,0.7 h 4.838 l 3.185,33.829 h -3.629 z m -2.419,-2.822 h 2.177 L 157.863,11.144 H 157.7 Z"
           data-name="Path 7"
           id="Path_7-2" />
        <path
           style="fill:#9d9d9c"
           inkscape:connector-curvature="0"
           transform="translate(-165.426,-0.377)"
           d="m 205.384,0.7 a 4.505,4.505 0 0 1 3.226,1.25 4.686,4.686 0 0 1 1.331,3.589 v 11.047 a 3.727,3.727 0 0 1 -1.25,3.185 5.018,5.018 0 0 1 -3.145,0.927 h -1.856 v 13.83 H 199.9 V 0.7 Z m 0.726,5.443 c 0,-1.492 -0.363,-2.218 -1.129,-2.218 h -1.29 v 13.629 h 1.452 c 0.645,0 0.968,-0.726 0.968,-2.137 z"
           data-name="Path 8"
           id="Path_8-2" />
        <path
           style="fill:#9d9d9c"
           inkscape:connector-curvature="0"
           transform="translate(-193.117,-0.377)"
           d="m 251.784,0.7 a 4.505,4.505 0 0 1 3.226,1.25 4.686,4.686 0 0 1 1.331,3.589 v 11.047 a 3.727,3.727 0 0 1 -1.25,3.185 5.018,5.018 0 0 1 -3.145,0.927 h -1.856 v 13.83 H 246.3 V 0.7 Z m 0.726,5.443 c 0,-1.492 -0.363,-2.218 -1.129,-2.218 h -1.29 v 13.629 h 1.452 c 0.645,0 0.968,-0.726 0.968,-2.137 z"
           data-name="Path 9"
           id="Path_9-2" />
        <path
           style="fill:#9d9d9c"
           inkscape:connector-curvature="0"
           transform="translate(-220.927,0.1)"
           d="M 299.029,13.811 V 5.343 a 3.533,3.533 0 0 0 -0.282,-1.734 0.932,0.932 0 0 0 -0.806,-0.484 h -0.2 a 0.822,0.822 0 0 0 -0.806,0.524 3.722,3.722 0 0 0 -0.282,1.774 V 9.5 a 8.115,8.115 0 0 0 0.968,4.072 34.961,34.961 0 0 0 2.137,3.266 30.912,30.912 0 0 1 2.137,3.306 8.325,8.325 0 0 1 0.968,4.153 v 5.242 a 5.194,5.194 0 0 1 -0.4,2.218 4.059,4.059 0 0 1 -1.008,1.492 3.813,3.813 0 0 1 -1.452,0.887 4.977,4.977 0 0 1 -1.693,0.282 h -0.726 a 4.977,4.977 0 0 1 -1.693,-0.282 3.772,3.772 0 0 1 -1.492,-0.887 4.786,4.786 0 0 1 -1.089,-1.532 5.316,5.316 0 0 1 -0.4,-2.218 v -9.076 h 3.427 v 8.467 a 2.878,2.878 0 0 0 0.4,1.774 1.174,1.174 0 0 0 0.927,0.524 h 0.2 a 1.014,1.014 0 0 0 0.887,-0.524 3.238,3.238 0 0 0 0.363,-1.774 V 24.818 A 8.116,8.116 0 0 0 298.146,20.746 34.967,34.967 0 0 0 296,17.48 30.922,30.922 0 0 1 293.863,14.174 8.325,8.325 0 0 1 292.895,10.021 V 4.779 a 5.192,5.192 0 0 1 0.4,-2.218 4.687,4.687 0 0 1 1.048,-1.492 4.583,4.583 0 0 1 1.492,-0.887 4.754,4.754 0 0 1 1.665,-0.282 h 0.484 a 4.6,4.6 0 0 1 1.653,0.282 4.545,4.545 0 0 1 1.452,0.887 4.512,4.512 0 0 1 1.048,1.492 6.048,6.048 0 0 1 0.4,2.218 v 8.991 h -3.508 z"
           data-name="Path 10"
           id="Path_10-2" />
      </g>
    </g>
    <g
       transform="matrix(0.70727819,0,0,0.70727819,39.58427,90.04232)"
       data-name="Assinatura de marca"
       id="Assinatura_de_marca-3"
       inkscape:export-xdpi="223"
       inkscape:export-ydpi="223">
      <path
         style="fill:#40b08b"
         inkscape:connector-curvature="0"
         transform="translate(-20.589,-0.716)"
         d="M 49.378,4.971 H 34.5 L 38.33,1.1 a 17.6,17.6 0 0 1 11.048,3.871 z"
         data-name="Path 1"
         id="Path_1-3" />
      <path
         style="fill:#3baf9c"
         inkscape:connector-curvature="0"
         transform="translate(-8.892,-12.294)"
         d="M 43.366,24.451 H 14.9 L 18.851,20.5 h 22.54 a 17.251,17.251 0 0 1 1.975,3.951 z"
         data-name="Path 2"
         id="Path_2-3" />
      <path
         style="fill:#3bb2b2"
         inkscape:connector-curvature="0"
         transform="translate(0,-24.051)"
         d="m 35.523,42.216 a 15.588,15.588 0 0 1 -0.121,1.935 H 1.935 L 0,42.216 2.016,40.2 H 35.4 a 16.412,16.412 0 0 1 0.123,2.016 z"
         data-name="Path 3"
         id="Path_3-3" />
      <path
         style="fill:#3c9eae"
         inkscape:connector-curvature="0"
         transform="translate(-8.713,-35.748)"
         d="m 43.228,59.8 a 17.25,17.25 0 0 1 -1.976,3.951 h -22.7 L 14.6,59.8 Z"
         data-name="Path 4"
         id="Path_4-3" />
      <path
         style="fill:#3d89aa"
         inkscape:connector-curvature="0"
         transform="translate(-20.47,-47.445)"
         d="M 49.42,79.4 A 17.775,17.775 0 0 1 38.251,83.351 L 34.3,79.4 Z"
         data-name="Path 5"
         id="Path_5-3" />
      <g
         transform="translate(46.127,-0.1)"
         data-name="Group 1"
         id="Group_1-3">
        <path
           style="fill:#9d9d9c"
           inkscape:connector-curvature="0"
           transform="translate(-114.4,-0.377)"
           d="m 118.15,0.7 v 30.966 h 4.032 v 2.863 H 114.4 V 0.7 Z"
           data-name="Path 6"
           id="Path_6-3" />
        <path
           style="fill:#9d9d9c"
           inkscape:connector-curvature="0"
           transform="translate(-137.138,-0.377)"
           d="m 159.113,25.578 h -2.661 l -0.726,8.951 H 152.5 L 155.484,0.7 h 4.838 l 3.185,33.829 h -3.629 z m -2.419,-2.822 h 2.177 L 157.863,11.144 H 157.7 Z"
           data-name="Path 7"
           id="Path_7-3" />
        <path
           style="fill:#9d9d9c"
           inkscape:connector-curvature="0"
           transform="translate(-165.426,-0.377)"
           d="m 205.384,0.7 a 4.505,4.505 0 0 1 3.226,1.25 4.686,4.686 0 0 1 1.331,3.589 v 11.047 a 3.727,3.727 0 0 1 -1.25,3.185 5.018,5.018 0 0 1 -3.145,0.927 h -1.856 v 13.83 H 199.9 V 0.7 Z m 0.726,5.443 c 0,-1.492 -0.363,-2.218 -1.129,-2.218 h -1.29 v 13.629 h 1.452 c 0.645,0 0.968,-0.726 0.968,-2.137 z"
           data-name="Path 8"
           id="Path_8-3" />
        <path
           style="fill:#9d9d9c"
           inkscape:connector-curvature="0"
           transform="translate(-193.117,-0.377)"
           d="m 251.784,0.7 a 4.505,4.505 0 0 1 3.226,1.25 4.686,4.686 0 0 1 1.331,3.589 v 11.047 a 3.727,3.727 0 0 1 -1.25,3.185 5.018,5.018 0 0 1 -3.145,0.927 h -1.856 v 13.83 H 246.3 V 0.7 Z m 0.726,5.443 c 0,-1.492 -0.363,-2.218 -1.129,-2.218 h -1.29 v 13.629 h 1.452 c 0.645,0 0.968,-0.726 0.968,-2.137 z"
           data-name="Path 9"
           id="Path_9-3" />
        <path
           style="fill:#9d9d9c"
           inkscape:connector-curvature="0"
           transform="translate(-220.927,0.1)"
           d="M 299.029,13.811 V 5.343 a 3.533,3.533 0 0 0 -0.282,-1.734 0.932,0.932 0 0 0 -0.806,-0.484 h -0.2 a 0.822,0.822 0 0 0 -0.806,0.524 3.722,3.722 0 0 0 -0.282,1.774 V 9.5 a 8.115,8.115 0 0 0 0.968,4.072 34.961,34.961 0 0 0 2.137,3.266 30.912,30.912 0 0 1 2.137,3.306 8.325,8.325 0 0 1 0.968,4.153 v 5.242 a 5.194,5.194 0 0 1 -0.4,2.218 4.059,4.059 0 0 1 -1.008,1.492 3.813,3.813 0 0 1 -1.452,0.887 4.977,4.977 0 0 1 -1.693,0.282 h -0.726 a 4.977,4.977 0 0 1 -1.693,-0.282 3.772,3.772 0 0 1 -1.492,-0.887 4.786,4.786 0 0 1 -1.089,-1.532 5.316,5.316 0 0 1 -0.4,-2.218 v -9.076 h 3.427 v 8.467 a 2.878,2.878 0 0 0 0.4,1.774 1.174,1.174 0 0 0 0.927,0.524 h 0.2 a 1.014,1.014 0 0 0 0.887,-0.524 3.238,3.238 0 0 0 0.363,-1.774 V 24.818 A 8.116,8.116 0 0 0 298.146,20.746 34.967,34.967 0 0 0 296,17.48 30.922,30.922 0 0 1 293.863,14.174 8.325,8.325 0 0 1 292.895,10.021 V 4.779 a 5.192,5.192 0 0 1 0.4,-2.218 4.687,4.687 0 0 1 1.048,-1.492 4.583,4.583 0 0 1 1.492,-0.887 4.754,4.754 0 0 1 1.665,-0.282 h 0.484 a 4.6,4.6 0 0 1 1.653,0.282 4.545,4.545 0 0 1 1.452,0.887 4.512,4.512 0 0 1 1.048,1.492 6.048,6.048 0 0 1 0.4,2.218 v 8.991 h -3.508 z"
           data-name="Path 10"
           id="Path_10-3" />
      </g>
    </g>
    <g
       transform="matrix(0.70727819,0,0,0.70727819,39.58427,90.04232)"
       data-name="Assinatura de marca"
       id="Assinatura_de_marca-4"
       inkscape:export-xdpi="223.95975"
       inkscape:export-ydpi="223.95975">
      <path
         style="fill:#40b08b"
         inkscape:connector-curvature="0"
         transform="translate(-20.589,-0.716)"
         d="M 49.378,4.971 H 34.5 L 38.33,1.1 a 17.6,17.6 0 0 1 11.048,3.871 z"
         data-name="Path 1"
         id="Path_1-4" />
      <path
         style="fill:#3baf9c"
         inkscape:connector-curvature="0"
         transform="translate(-8.892,-12.294)"
         d="M 43.366,24.451 H 14.9 L 18.851,20.5 h 22.54 a 17.251,17.251 0 0 1 1.975,3.951 z"
         data-name="Path 2"
         id="Path_2-4" />
      <path
         style="fill:#3bb2b2"
         inkscape:connector-curvature="0"
         transform="translate(0,-24.051)"
         d="m 35.523,42.216 a 15.588,15.588 0 0 1 -0.121,1.935 H 1.935 L 0,42.216 2.016,40.2 H 35.4 a 16.412,16.412 0 0 1 0.123,2.016 z"
         data-name="Path 3"
         id="Path_3-4" />
      <path
         style="fill:#3c9eae"
         inkscape:connector-curvature="0"
         transform="translate(-8.713,-35.748)"
         d="m 43.228,59.8 a 17.25,17.25 0 0 1 -1.976,3.951 h -22.7 L 14.6,59.8 Z"
         data-name="Path 4"
         id="Path_4-4" />
      <path
         style="fill:#3d89aa"
         inkscape:connector-curvature="0"
         transform="translate(-20.47,-47.445)"
         d="M 49.42,79.4 A 17.775,17.775 0 0 1 38.251,83.351 L 34.3,79.4 Z"
         data-name="Path 5"
         id="Path_5-4" />
      <g
         transform="translate(46.127,-0.1)"
         data-name="Group 1"
         id="Group_1-4">
        <path
           style="fill:#9d9d9c"
           inkscape:connector-curvature="0"
           transform="translate(-114.4,-0.377)"
           d="m 118.15,0.7 v 30.966 h 4.032 v 2.863 H 114.4 V 0.7 Z"
           data-name="Path 6"
           id="Path_6-4" />
        <path
           style="fill:#9d9d9c"
           inkscape:connector-curvature="0"
           transform="translate(-137.138,-0.377)"
           d="m 159.113,25.578 h -2.661 l -0.726,8.951 H 152.5 L 155.484,0.7 h 4.838 l 3.185,33.829 h -3.629 z m -2.419,-2.822 h 2.177 L 157.863,11.144 H 157.7 Z"
           data-name="Path 7"
           id="Path_7-4" />
        <path
           style="fill:#9d9d9c"
           inkscape:connector-curvature="0"
           transform="translate(-165.426,-0.377)"
           d="m 205.384,0.7 a 4.505,4.505 0 0 1 3.226,1.25 4.686,4.686 0 0 1 1.331,3.589 v 11.047 a 3.727,3.727 0 0 1 -1.25,3.185 5.018,5.018 0 0 1 -3.145,0.927 h -1.856 v 13.83 H 199.9 V 0.7 Z m 0.726,5.443 c 0,-1.492 -0.363,-2.218 -1.129,-2.218 h -1.29 v 13.629 h 1.452 c 0.645,0 0.968,-0.726 0.968,-2.137 z"
           data-name="Path 8"
           id="Path_8-4" />
        <path
           style="fill:#9d9d9c"
           inkscape:connector-curvature="0"
           transform="translate(-193.117,-0.377)"
           d="m 251.784,0.7 a 4.505,4.505 0 0 1 3.226,1.25 4.686,4.686 0 0 1 1.331,3.589 v 11.047 a 3.727,3.727 0 0 1 -1.25,3.185 5.018,5.018 0 0 1 -3.145,0.927 h -1.856 v 13.83 H 246.3 V 0.7 Z m 0.726,5.443 c 0,-1.492 -0.363,-2.218 -1.129,-2.218 h -1.29 v 13.629 h 1.452 c 0.645,0 0.968,-0.726 0.968,-2.137 z"
           data-name="Path 9"
           id="Path_9-4" />
        <path
           style="fill:#9d9d9c"
           inkscape:connector-curvature="0"
           transform="translate(-220.927,0.1)"
           d="M 299.029,13.811 V 5.343 a 3.533,3.533 0 0 0 -0.282,-1.734 0.932,0.932 0 0 0 -0.806,-0.484 h -0.2 a 0.822,0.822 0 0 0 -0.806,0.524 3.722,3.722 0 0 0 -0.282,1.774 V 9.5 a 8.115,8.115 0 0 0 0.968,4.072 34.961,34.961 0 0 0 2.137,3.266 30.912,30.912 0 0 1 2.137,3.306 8.325,8.325 0 0 1 0.968,4.153 v 5.242 a 5.194,5.194 0 0 1 -0.4,2.218 4.059,4.059 0 0 1 -1.008,1.492 3.813,3.813 0 0 1 -1.452,0.887 4.977,4.977 0 0 1 -1.693,0.282 h -0.726 a 4.977,4.977 0 0 1 -1.693,-0.282 3.772,3.772 0 0 1 -1.492,-0.887 4.786,4.786 0 0 1 -1.089,-1.532 5.316,5.316 0 0 1 -0.4,-2.218 v -9.076 h 3.427 v 8.467 a 2.878,2.878 0 0 0 0.4,1.774 1.174,1.174 0 0 0 0.927,0.524 h 0.2 a 1.014,1.014 0 0 0 0.887,-0.524 3.238,3.238 0 0 0 0.363,-1.774 V 24.818 A 8.116,8.116 0 0 0 298.146,20.746 34.967,34.967 0 0 0 296,17.48 30.922,30.922 0 0 1 293.863,14.174 8.325,8.325 0 0 1 292.895,10.021 V 4.779 a 5.192,5.192 0 0 1 0.4,-2.218 4.687,4.687 0 0 1 1.048,-1.492 4.583,4.583 0 0 1 1.492,-0.887 4.754,4.754 0 0 1 1.665,-0.282 h 0.484 a 4.6,4.6 0 0 1 1.653,0.282 4.545,4.545 0 0 1 1.452,0.887 4.512,4.512 0 0 1 1.048,1.492 6.048,6.048 0 0 1 0.4,2.218 v 8.991 h -3.508 z"
           data-name="Path 10"
           id="Path_10-4" />
      </g>
    </g>
  </g>
</svg>
