<svg xmlns="http://www.w3.org/2000/svg" role="img" viewBox="34.14 89.64 447.72 264.22"><style>svg {enable-background:new 0 0 500 500}</style><style>.st0{fill:#213264}</style><g><g id="Logo_x5F_M_2_"><g id="Lauterbach_1_"><path d="M124.5 271.3h8.2l-6.3 34.6h17.8l-1.4 7.9h-26L124.5 271.3zM167.7 271.3h8.3l6.1 42.5h-8.1l-1.2-9.5h-13.8l-4.6 9.5h-8.6L167.7 271.3zM162.3 297.4h9.9l-1.8-16.9h-.1L162.3 297.4zM218.5 296c-2.2 12.2-6.3 18.8-17.8 18.8-7.2 0-14.5-3.3-14.5-12.6 0-2.1.4-4.2.8-6.3l4.5-24.6h8.1l-4.5 24.6c-.3 1.4-.8 4-.8 5.4 0 2.1 1.3 5.7 6.9 5.7 6.6 0 7.9-4 9-10.5l4.6-25.2h8.1L218.5 296zM236.8 279.2h-11.6l1.4-7.9h30.8l-1.4 7.9h-11l-6.3 34.7h-8.2L236.8 279.2zM261.5 271.3h28.1l-1.4 7.9h-20l-1.7 9.1h18.5l-1.3 7.3h-18.5l-1.9 10.4h20.3l-1.4 7.9h-28.4L261.5 271.3zM296 271.3l17.6 0c6.7-.1 11 2.9 11 11.1 0 5.8-3.5 10.6-8.5 11.4v.1c3 1.1 3.8 4.2 3.8 7.5 0 1.9-.3 4.8-.3 7.4 0 1.9.1 3.7.5 4.9h-7.9c-.2-1-.4-1.9-.4-2.9 0-2.9.4-5.8.4-8.6 0-4.1-2.1-5.1-5.3-5.1h-7.6l-3 16.6h-8.1L296 271.3zM300.6 290.5h7.5c4.3-.1 8.4-2 8.4-6.7 0-4.6-2.8-5.2-6-5.2h-7.7L300.6 290.5zM333.2 271.3l15.5 0c7.4 0 12 1.8 12 9.9 0 4.8-2.6 9.3-6.9 9.9v.1c3.5 1.1 5.5 4.5 5.5 8.6 0 9.2-6.7 13.9-14.1 13.9h-19.7L333.2 271.3zM334.6 306.6h10.2c3.7 0 6.4-2.3 6.4-6.8 0-4.5-3.5-4.8-6.4-4.8h-7.9L334.6 306.6zM337.9 288.5h9.2c2.9 0 5.5-1.9 5.5-5.6 0-3.2-1.7-4.3-4.3-4.3h-8.6L337.9 288.5zM380.8 271.3h8.3l6.1 42.5h-8.1l-1.2-9.5h-13.8l-4.6 9.5H359L380.8 271.3zM375.4 297.4h9.9l-1.8-16.9h-.1L375.4 297.4zM425.1 286.1c0-5.2-2.7-7.9-6.6-7.9-8.3 0-12.1 9.7-12.1 17.9 0 5.8 2.5 11 8.4 11 4.5 0 8-4 8.7-8.5h8.1c-3.3 11.9-8.9 16.3-16.9 16.3-10.3 0-16.4-6.9-16.4-18.8 0-13.8 7.7-25.7 20.1-25.7 8.5 0 15 5.4 14.8 15.8L425.1 286.1 425.1 286.1zM442 271.3h8.2l-3 16.3h14.9l3-16.3h8.2l-7.8 42.5h-8.2l3.4-18.3h-14.9l-3.4 18.3h-8.2L442 271.3z" class="st0"/></g><g><path d="M318.5 252.2L222.8 98.4 195.1 252.2zM180.4 333.4L178.2 345.5 376.6 345.5 369.1 333.4z" class="st0"/></g><path fill="#f8ac3a" d="M156,333.4H64.8l128-203.3l5.7-31.6c0,0-155.6,247-155.6,247h111L156,333.4z"/></g></g></svg>