<?xml version="1.0" encoding="UTF-8"?>
<svg id="Logo_x5F_M" xmlns="http://www.w3.org/2000/svg" version="1.1" viewBox="0 0 5000 3100.490196">
  <!-- Generator: Adobe Illustrator 29.3.1, SVG Export Plug-In . SVG Version: 2.1.0 Build 151)  -->
  <rect width="5000" height="3100.490196" fill="#fff"/>
  <g id="Logo_x5F_M1" data-name="Logo_x5F_M">
    <g id="Lauterbach">
      <path d="M1113.464297,2061.42633h84.657648l-65.360588,359.583071h184.845382l-15.004099,81.593399h-269.514405l80.376062-441.176471Z" fill="#233265"/>
      <path d="M1561.351999,2061.42633h86.256875l63.772489,441.176471h-83.595536l-12.331878-98.27289h-143.052559l-48.232264,98.27289h-88.929343l226.112217-441.176471ZM1505.629308,2332.031267h102.334214l-18.760935-175.482284h-1.062112l-82.511167,175.482284Z" fill="#233265"/>
      <path d="M2088.364061,2317.644018c-23.05897,126.736853-65.41768,195.36538-184.45023,195.36538-74.535996,0-150.672344-34.621738-150.672344-131.088017,0-22.236398,4.285834-43.892551,8.055705-65.526315l46.633161-254.968736h84.18067l-46.644296,254.968736c-2.674347,14.225732-8.044569,41.438142-8.044569,55.652679,0,22.24784,13.940901,59.34521,71.851751,59.34521,68.628281,0,81.495187-42.018445,93.835489-108.806581l47.717302-261.160045h84.192053l-46.65469,256.217688Z" fill="#233265"/>
      <path d="M2278.436585,2142.974301h-120.011028l14.994207-81.547971h319.34466l-15.014238,81.547971h-114.655954l-65.360588,359.628499h-84.657648l65.360588-359.628499Z" fill="#233265"/>
      <path d="M2535.159398,2061.42633h292.009919l-14.457092,81.547971h-207.898289l-17.140688,94.536714h192.359301l-13.941986,75.370655h-192.358312l-19.823047,108.127731h211.108118l-15.015474,81.593399h-295.218513l80.376062-441.176471Z" fill="#233265"/>
      <path d="M2892.60706,2061.42633l182.710276.034302c69.127315-1.225819,114.140106,30.272056,114.140106,115.542985,0,59.928173-36.447887,109.96714-87.877617,118.619337v1.249311c31.606435,11.104763,39.645105,43.225869,39.645105,77.834656,0,19.768148-2.672468,49.425439-2.672468,76.618977,0,19.768148,1.063101,38.309241,5.344935,51.276903h-81.98617c-2.146481-10.492532-3.744471-19.75702-3.744471-29.657291,0-29.658584,4.292714-59.917972,4.292714-89.576499,0-42.64622-21.969528-53.148644-55.197694-53.148644h-79.291446l-31.617563,172.382435h-84.121522l80.375815-441.176471ZM2940.828197,2260.964702h77.692219c44.475181-.613528,86.815257-20.381676,86.815257-69.79605,0-47.59747-28.945096-54.387817-62.162134-54.387817h-79.839689l-22.505653,124.183867Z" fill="#233265"/>
      <path d="M3279.524816,2061.42633l160.751876.034302c76.625655,0,124.320558,19.144729,124.320558,103.18885,0,50.03903-26.799604,96.365921-71.801019,102.553127v1.237936c36.437748,11.127327,56.785793,46.950557,56.785793,89.597766,0,95.751341-69.653549,144.564489-146.278216,144.564489h-204.143678l80.364686-441.176471ZM3293.993036,2427.181445h105.565064c38.046125,0,65.907841-24.094988,65.907841-71.066565,0-46.326891-35.9219-50.028828-66.456084-50.028828h-82.511167l-22.505653,121.095393ZM3328.283067,2239.969746h95.38016c30.544323,0,56.791233-19.779585,56.791233-58.077699,0-33.370605-17.135-45.111212-44.459602-45.111212h-88.95061l-18.761182,103.188911Z" fill="#233265"/>
      <path d="M3773.087799,2061.42633h86.256875l63.76235,441.176471h-83.574269l-12.342759-98.27289h-143.052807l-48.232264,98.27289h-88.951599l226.134473-441.176471ZM3717.342852,2332.031267h102.356718l-18.749807-175.482284h-1.063101l-82.54381,175.482284Z" fill="#233265"/>
      <path d="M4233.06925,2214.382637c0-54.413995-28.439091-82.240364-68.628281-82.240364-86.340043,0-125.47652,100.773459-125.47652,185.501765,0,60.584206,25.7447,113.748937,86.866152,113.748937,46.632171,0,82.569182-41.404734,90.076011-87.78548h84.18067c-34.313893,123.042458-92.235137,169.401922-175.330676,169.401922-107.251023,0-169.982973-71.095251-169.982973-195.36538,0-142.825559,79.894836-267.11821,209.108314-267.11821,88.488033,0,155.51621,56.266945,153.36822,163.856809h-84.180917Z" fill="#233265"/>
      <path d="M4408.789604,2061.42633h84.657648l-31.092813,169.294091h154.849301l31.080449-169.294091h84.669023l-80.91194,441.176471h-84.657648l34.826156-190.334658h-154.837184l-34.84866,190.334658h-84.657648l80.923316-441.176471Z" fill="#233265"/>
    </g>
    <g>
      <polygon points="3126.626407 1862.896918 2133.578431 267.308683 1845.274233 1862.896918 3126.626407 1862.896918" fill="#233265"/>
      <polygon points="1692.929137 2706.034173 1670.343137 2831.034173 3729.166667 2831.034173 3651.370179 2706.034173 1692.929137 2706.034173" fill="#233265"/>
    </g>
    <path d="M1439.95098,2706.034173H493.872549L1822.303922,595.740055l58.823529-328.431373c.007139-.043126-1615.196078,2563.725412-1615.196078,2563.725412h1151.960784l22.058824-124.999922Z" fill="#f8ab39"/>
  </g>
</svg>