<svg xmlns="http://www.w3.org/2000/svg" role="img" viewBox="14.50 14.50 4966.00 1236.00"><style>svg {enable-background:new 0 0 5000 1265}</style><style>.st0{fill:#233265}.st1{fill:#f8ab39}</style><g id="Logo_x5F_L_1_"><path d="M247.97 400.06h78.87l-60.89 334.99h172.2l-13.98 76.01H173.1l74.87-411zm417.26 0h80.36l59.41 411h-77.88l-11.49-91.55H582.36l-44.93 91.55h-82.85l210.65-411zm-51.92 252.1h95.33l-17.48-163.48h-.99l-76.86 163.48zm543.11-13.35c-21.49 118.1-60.96 182.05-171.87 182.05-69.45 0-140.4-32.26-140.4-122.15 0-20.72 3.99-40.9 7.51-61.06l43.45-237.58h78.44l-43.46 237.58c-2.49 13.26-7.5 38.61-7.5 51.86 0 20.73 12.99 55.3 66.95 55.3 63.95 0 75.94-39.15 87.44-101.39l44.46-243.35h78.45l-43.47 238.74zm176.84-162.78h-111.8l13.97-75.97h297.5l-13.99 75.97h-106.81l-60.89 335.03h-78.87l60.89-335.03zm239.16-75.97h272.04l-13.47 75.97h-193.68l-15.97 88.07h179.2l-12.99 70.22h-179.2l-18.47 100.73h196.67l-13.99 76.01h-275.03l74.89-411zm333 0l170.21.03c64.4-1.14 106.33 28.2 106.33 107.64 0 55.83-33.95 102.45-81.87 110.51v1.16c29.44 10.35 36.93 40.27 36.93 72.51 0 18.42-2.49 46.04-2.49 71.38 0 18.42.99 35.69 4.98 47.77h-76.38c-2-9.77-3.49-18.41-3.49-27.63 0-27.63 4-55.82 4-83.45 0-39.73-20.47-49.51-51.42-49.51h-73.87l-29.45 160.59h-78.37l74.89-411zm44.93 185.89h72.38c41.43-.57 80.88-18.99 80.88-65.02 0-44.34-26.97-50.67-57.91-50.67h-74.38l-20.97 115.69zm315.53-185.89l149.76.03c71.38 0 115.82 17.84 115.82 96.13 0 46.62-24.97 89.77-66.89 95.54v1.15c33.95 10.37 52.9 43.74 52.9 83.47 0 89.2-64.89 134.68-136.27 134.68h-190.18l74.86-411zm13.47 340.74h98.34c35.44 0 61.4-22.45 61.4-66.21 0-43.16-33.46-46.61-61.91-46.61h-76.87l-20.96 112.82zm31.95-174.41h88.86c28.46 0 52.91-18.43 52.91-54.11 0-31.09-15.96-42.03-41.42-42.03h-82.87l-17.48 96.14zm414.38-166.33h80.36l59.4 411h-77.86l-11.5-91.55h-133.27l-44.93 91.55h-82.87l210.67-411zm-51.93 252.1h95.36l-17.47-163.48h-.99l-76.9 163.48zm481.15-109.59c0-50.7-26.5-76.63-63.95-76.63-80.45 0-116.92 93.9-116.92 172.85 0 56.45 23.99 105.99 80.94 105.99 43.45 0 76.94-38.58 83.93-81.8h78.44c-31.97 114.65-85.95 157.85-163.38 157.85-99.94 0-158.39-66.25-158.39-182.05 0-133.09 74.45-248.91 194.85-248.91 82.45 0 144.91 52.43 142.91 152.68h-78.43zm163-142.51h78.87l-28.97 157.71h144.26l28.95-157.71h78.88l-75.38 411h-78.87l32.44-177.32h-144.25l-32.46 177.32h-78.87l75.4-411z" class="st0" id="Lauterbach_4_"/><path d="M151.52 927.06h72.53c50.1 0 77.5 32.24 77.5 95.5 0 27.13-9.97 69.92-31.29 94.18-23.24 26.5-41.51 38.32-90.78 38.32H110l41.52-228zm-.83 195.44h43.19c59.52 0 73.08-77.3 73.08-100.28 0-39.91-16.05-62.58-43.46-62.58h-43.18l-29.63 162.86zm217.92-195.44h143.95l-6.1 34.5H396.57l-10.8 59.69h101.88l-5.81 32.59H379.69l-11.9 66.74h110.72l-6.09 34.48H327.64l40.97-228zm169.47 0h35.14l18.55 180.1h.56l82.49-180.1h36.81l-108.51 228h-39.3l-25.74-228zm209.59 0h143.94l-6.1 34.5H775.64l-10.8 59.69h101.87l-5.81 32.59H758.74l-11.89 66.74h110.72l-6.09 34.48H706.7l40.97-228zm192.99 0h34.61l-34.88 193.52h99.65l-6.09 34.48H899.7l40.96-228zm247.18-5c51.95 0 86.2 41.12 86.2 99.44 0 95.64-51.66 138.98-104.43 138.98-56.37 0-87.59-43.04-87.59-99.46.01-95.61 54.44-138.96 105.82-138.96zm-17.13 205.91c45.6 0 68.8-54.5 68.8-105.17 0-42.4-18.24-68.22-52.76-68.22-46.98 0-70.19 54.49-70.19 105.18.01 42.4 19.61 68.21 54.15 68.21zm174.51-200.91h79.43c61.73 0 61.73 48.22 61.73 69.62 0 1.27-.82 70.88-72.51 70.88h-59.24l-15.78 87.5h-34.6l40.97-228zm15.22 107.93h52.32c31.01 0 39.03-23.95 39.03-44.05 0-12.78-4.71-31.3-32.94-31.3h-44.84l-13.57 75.35zm187.17-107.93h47.61l21.58 173.72h.57l85.82-173.72h48.99l-40.69 228h-33.22l34.32-182.65h-.56l-89.41 182.65h-27.13l-24.92-182.65h-.54l-30.19 182.65h-33.21l40.98-228zm263.05 0h143.95l-6.09 34.5h-109.9l-10.8 59.69h101.88l-5.81 32.59h-102.15l-11.91 66.74h110.73l-6.08 34.48H1769.7l40.96-228zm192.17 0h37.92l60.64 170.21h.54l30.17-170.21h34.6l-40.96 228h-37.92l-60.89-169.24h-.57l-29.9 169.24h-34.6l40.97-228zm198.26 0h162.78l-6.38 34.5h-62.84l-34.87 193.5h-34.61l34.88-193.5h-65.03l6.07-34.5zm276.61 0h162.76l-6.37 34.5h-62.82l-34.89 193.5h-34.6l34.87-193.5h-65.04l6.09-34.5zm269.77-5c51.94 0 86.2 41.12 86.2 99.44 0 95.64-51.66 138.98-104.44 138.98-56.36 0-87.59-43.04-87.59-99.46 0-95.61 54.44-138.96 105.83-138.96zm-17.13 205.91c45.6 0 68.79-54.5 68.79-105.17 0-42.4-18.25-68.22-52.77-68.22-46.97 0-70.18 54.49-70.18 105.18 0 42.4 19.62 68.21 54.16 68.21zm244.58-205.91c51.94 0 86.21 41.12 86.21 99.44 0 95.64-51.68 138.98-104.44 138.98-56.37 0-87.59-43.04-87.59-99.46.01-95.61 54.44-138.96 105.82-138.96zm-17.12 205.91c45.6 0 68.78-54.5 68.78-105.17 0-42.4-18.23-68.22-52.75-68.22-46.98 0-70.19 54.49-70.19 105.18 0 42.4 19.64 68.21 54.16 68.21zm177.8-200.91h34.61l-34.89 193.52h99.64l-6.07 34.48h-134.27l40.98-228zm165.48 152.79c-1.39 35.38 16.57 48.12 45.3 48.12 18.79 0 43.93-9.89 43.93-36.34 0-25.82-22.93-32.18-47.25-39.83-17.4-5.43-53.87-15.62-53.87-58.96 0-41.13 26.79-70.78 73.5-70.78 41.17 0 74.6 19.13 72.93 72.68h-33.15c-.28-28.36-13.53-40.15-40.34-40.15-9.4 0-38.42 3.18-38.42 33.47 0 22.32 19.35 27.73 41.17 34.09 27.92 8.29 59.96 16.89 59.96 64.7 0 35.39-22.38 73.64-82.05 73.64-46.43 0-76.27-23.91-74.89-80.63h33.18z" class="st1" id="Development_Tools_5_"/><path d="M4239 109.06l-189 1046h840z" class="st0"/><path d="M3956 1104.06h-386l542-861 24-134c0-.02-659 1046-659 1046h470l9-51z" class="st1"/></g></svg>