<?xml version="1.0" encoding="utf-8"?>
<!-- Generator: Adobe Illustrator 23.0.3, SVG Export Plug-In . SVG Version: 6.00 Build 0)  -->
<svg version="1.1" id="LB_Logo_RGB" xmlns="http://www.w3.org/2000/svg" xmlns:xlink="http://www.w3.org/1999/xlink" x="0px"
	 y="0px" viewBox="0 0 476.2 133.2" style="enable-background:new 0 0 476.2 133.2;" xml:space="preserve">
<style type="text/css">
	.st0{fill:#142878;}
	.st1{fill:#F08200;}
</style>
<polygon class="st0" points="383,120.3 462.2,120.3 402.8,12.5 "/>
<polygon class="st1" points="377.3,120.3 337.7,120.3 397.1,12.5 "/>
<g id="Lauterbach">
	<path class="st0" d="M28.8,48.4h7.5l-5.8,32.1H47l-1.3,7.3h-24L28.8,48.4z"/>
	<path class="st0" d="M68.7,48.4h7.7l5.7,39.3h-7.5L73.5,79H60.8l-4.3,8.8h-7.9L68.7,48.4z M63.8,72.6h9.1l-1.7-15.6h-0.1L63.8,72.6
		z"/>
	<path class="st0" d="M115.6,71.3c-2.1,11.3-5.8,17.4-16.4,17.4c-6.6,0-13.4-3.1-13.4-11.7c0-2,0.4-3.9,0.7-5.8l4.2-22.8h7.5
		L94,71.2c-0.2,1.3-0.7,3.7-0.7,5c0,2,1.2,5.3,6.4,5.3c6.1,0,7.3-3.7,8.4-9.7l4.3-23.3h7.5L115.6,71.3z"/>
	<path class="st0" d="M132.7,55.7H122l1.3-7.3h28.5l-1.3,7.3h-10.2l-5.8,32.1h-7.5L132.7,55.7z"/>
	<path class="st0" d="M155.6,48.4h26l-1.3,7.3h-18.5l-1.5,8.4h17.2l-1.2,6.7H159l-1.8,9.6H176l-1.3,7.3h-26.3L155.6,48.4z"/>
	<path class="st0" d="M187.4,48.4h16.3c6.2-0.1,10.2,2.7,10.2,10.3c0,5.3-3.3,9.8-7.8,10.6v0.1c2.8,1,3.5,3.9,3.5,6.9
		c0,1.8-0.2,4.4-0.2,6.8c0,1.8,0.1,3.4,0.5,4.6h-7.3c-0.2-0.9-0.3-1.8-0.3-2.6c0-2.6,0.4-5.3,0.4-8c0-3.8-2-4.7-4.9-4.7h-7.1
		l-2.8,15.4h-7.5L187.4,48.4z M191.7,66.2h6.9c4-0.1,7.7-1.8,7.7-6.2c0-4.2-2.6-4.8-5.5-4.8h-7.1L191.7,66.2z"/>
	<path class="st0" d="M221.9,48.4h14.3c6.8,0,11.1,1.7,11.1,9.2c0,4.5-2.4,8.6-6.4,9.1v0.1c3.2,1,5.1,4.2,5.1,8
		c0,8.5-6.2,12.9-13,12.9h-18.2L221.9,48.4z M223.2,81.1h9.4c3.4,0,5.9-2.1,5.9-6.3c0-4.1-3.2-4.5-5.9-4.5h-7.4L223.2,81.1z
		 M226.3,64.4h8.5c2.7,0,5.1-1.8,5.1-5.2c0-3-1.5-4-4-4h-7.9L226.3,64.4z"/>
	<path class="st0" d="M265.9,48.4h7.7l5.7,39.3h-7.5l-1.1-8.8H258l-4.3,8.8h-7.9L265.9,48.4z M261,72.6h9.1l-1.7-15.6h-0.1L261,72.6
		z"/>
	<path class="st0" d="M306.8,62.1c0-4.8-2.5-7.3-6.1-7.3c-7.7,0-11.2,9-11.2,16.5c0,5.4,2.3,10.1,7.7,10.1c4.2,0,7.4-3.7,8-7.8h7.5
		c-3.1,11-8.2,15.1-15.6,15.1c-9.6,0-15.1-6.3-15.1-17.4c0-12.7,7.1-23.8,18.6-23.8c7.9,0,13.9,5,13.7,14.6H306.8z"/>
	<path class="st0" d="M322.6,48.4h7.5l-2.8,15.1h13.8l2.8-15.1h7.5l-7.2,39.3h-7.5l3.1-17h-13.8l-3.1,17h-7.5L322.6,48.4z"/>
</g>
<g id="Development_Tools">
	<path class="st1" d="M19.7,98.6h6.9c4.8,0,7.4,3.1,7.4,9.1c0,2.6-0.9,6.6-3,8.9c-2.2,2.5-3.9,3.6-8.6,3.6h-6.6L19.7,98.6z
		 M19.6,117.2h4.1c5.6,0,6.9-7.3,6.9-9.5c0-3.8-1.5-5.9-4.1-5.9h-4.1L19.6,117.2z"/>
	<path class="st1" d="M40.3,98.6H54l-0.6,3.3H42.9l-1,5.7h9.7l-0.6,3.1h-9.7l-1.1,6.3h10.5l-0.6,3.3H36.4L40.3,98.6z"/>
	<path class="st1" d="M56.4,98.6h3.3l1.8,17.1h0.1l7.8-17.1h3.5l-10.3,21.6h-3.7L56.4,98.6z"/>
	<path class="st1" d="M76.3,98.6h13.7l-0.6,3.3H78.9l-1,5.7h9.7l-0.6,3.1h-9.7l-1.1,6.3h10.5l-0.6,3.3H72.4L76.3,98.6z"/>
	<path class="st1" d="M94.6,98.6h3.3L94.6,117h9.5l-0.6,3.3H90.7L94.6,98.6z"/>
	<path class="st1" d="M118.2,98.1c4.9,0,8.2,3.9,8.2,9.5c0,9.1-4.9,13.2-9.9,13.2c-5.4,0-8.3-4.1-8.3-9.5
		C108.2,102.2,113.4,98.1,118.2,98.1z M116.6,117.7c4.3,0,6.5-5.2,6.5-10c0-4-1.7-6.5-5-6.5c-4.5,0-6.7,5.2-6.7,10
		C111.5,115.2,113.3,117.7,116.6,117.7z"/>
	<path class="st1" d="M133,98.6h7.5c5.9,0,5.9,4.6,5.9,6.6c0,0.1-0.1,6.7-6.9,6.7h-5.6l-1.5,8.3h-3.3L133,98.6z M134.4,108.9h5
		c2.9,0,3.7-2.3,3.7-4.2c0-1.2-0.4-3-3.1-3h-4.3L134.4,108.9z"/>
	<path class="st1" d="M152.2,98.6h4.5l2,16.5h0.1l8.1-16.5h4.7l-3.9,21.6h-3.2l3.3-17.3h-0.1l-8.5,17.3h-2.6l-2.4-17.3h-0.1
		l-2.9,17.3h-3.2L152.2,98.6z"/>
	<path class="st1" d="M177.2,98.6h13.7l-0.6,3.3h-10.4l-1,5.7h9.7l-0.6,3.1h-9.7l-1.1,6.3h10.5l-0.6,3.3h-13.7L177.2,98.6z"/>
	<path class="st1" d="M195.4,98.6h3.6l5.8,16.2h0.1l2.9-16.2h3.3l-3.9,21.6h-3.6l-5.8-16.1h-0.1l-2.8,16.1h-3.3L195.4,98.6z"/>
	<path class="st1" d="M214.2,98.6h15.5l-0.6,3.3h-6l-3.3,18.4h-3.3l3.3-18.4h-6.2L214.2,98.6z"/>
	<path class="st1" d="M240.5,98.6h15.4l-0.6,3.3h-6l-3.3,18.4h-3.3l3.3-18.4h-6.2L240.5,98.6z"/>
	<path class="st1" d="M266.6,98.1c4.9,0,8.2,3.9,8.2,9.5c0,9.1-4.9,13.2-9.9,13.2c-5.4,0-8.3-4.1-8.3-9.5
		C256.5,102.2,261.7,98.1,266.6,98.1z M264.9,117.7c4.3,0,6.5-5.2,6.5-10c0-4-1.7-6.5-5-6.5c-4.5,0-6.7,5.2-6.7,10
		C259.8,115.2,261.6,117.7,264.9,117.7z"/>
	<path class="st1" d="M288.2,98.1c4.9,0,8.2,3.9,8.2,9.5c0,9.1-4.9,13.2-9.9,13.2c-5.4,0-8.3-4.1-8.3-9.5
		C278.1,102.2,283.3,98.1,288.2,98.1z M286.6,117.7c4.3,0,6.5-5.2,6.5-10c0-4-1.7-6.5-5-6.5c-4.5,0-6.7,5.2-6.7,10
		C281.4,115.2,283.3,117.7,286.6,117.7z"/>
	<path class="st1" d="M302.9,98.6h3.3l-3.3,18.4h9.5l-0.6,3.3H299L302.9,98.6z"/>
	<path class="st1" d="M319.2,113.1c-0.1,3.4,1.6,4.6,4.3,4.6c1.8,0,4.2-0.9,4.2-3.5c0-2.5-2.2-3.1-4.5-3.8c-1.7-0.5-5.1-1.5-5.1-5.6
		c0-3.9,2.5-6.7,7-6.7c3.9,0,7.1,1.8,6.9,6.9h-3.2c0-2.7-1.3-3.8-3.8-3.8c-0.9,0-3.7,0.3-3.7,3.2c0,2.1,1.8,2.6,3.9,3.2
		c2.7,0.8,5.7,1.6,5.7,6.2c0,3.4-2.1,7-7.8,7c-4.4,0-7.3-2.3-7.1-7.7H319.2z"/>
</g>
</svg>
