<svg xmlns="http://www.w3.org/2000/svg" role="img" viewBox="69.63 107.38 370.50 97.00"><style>svg {enable-background:new 0 0 499.3 297.1}</style><style>.st0{fill-rule:evenodd;clip-rule:evenodd;fill:#050000}.st1,.st2{fill:none;stroke:#050000;stroke-width:.216;stroke-miterlimit:2.613}.st2{stroke-width:.567}</style><path d="M292 152.4v-4.2h-7.1v43.9h7.6v-15.5c1.5 1.3 1 1.3 3.2 2.6 4.9 2.5 11.9 2.1 16.5-1 4.5-3.2 7-8.2 6.8-14.1 0-3.8-1-6.7-2.6-9.2-1.3-2.2-3.9-4.4-6.4-5.5-3.1-1.3-7.3-1.7-10.3-1.2-2.3.4-4.4 1.3-6.1 2.8-.6.4-1.3 1.1-1.6 1.4m6.7 2.4c2.6-1.1 7.4-.1 9.5 1.9 2 1.9 2.9 3.8 3.1 6.7 1 11.8-12.5 14-17.1 7.4-.1-.3-.4-.6-.6-.9-2-3.5-1.6-9.2.7-12.1 1.5-1.7 2.5-2.3 4.4-3m-57.7 21l-4.2-4.7c-2.7 3.1-7.6 3.7-11.4 3.2-3.4-.4-7.4-4.1-7.6-7.6H243c.3-4.2-.1-8.6-2.6-12.1-4.1-7.1-16.5-8.7-22.9-4.1-2.6 1.6-4.8 4.2-6 7.1-2.2 5.6-1.3 12.8 2.5 17.5 3.2 3.5 5.4 4.7 9.6 5.7 6 1 12.7-.4 16.6-4.4l.8-.6zm-23.2-14c0-1.9 1.4-4.5 2.9-5.7 1.9-1.5 3.8-2.2 6.3-2.2 3.8 0 6.3 1.9 8 4.7.9 1.5 1 2.9 1 3.2h-18.2zm29.8-9.9l3.1 5.5c3-2.8 17.6-7.2 17.6 4.3-6.1.5-16.2-1.4-20.1 4.4-1.9 2.8-1.9 6.1-.6 9.2 2.5 6.6 15.3 7.3 19.8 2.9.4-.4.6-.6 1.3-1.5v3.8h7.2c0-4.9.2-17.8-.4-21.9-.6-6.1-5.1-9.5-10.8-10.5-3.5-.4-10.4 0-13.2 1.5-1.5.7-2.7 1.4-3.9 2.3m20.7 14.8c0 2.6.2 4.9-2 6.6-2.8 2.5-8.2 2.9-10.8.7-.9-.7-1.9-2.5-1.3-4.2.6-1.8 1.5-2.2 3.1-2.8 1.6-.6 8.8-.4 11-.3m162.8 8.9c-.1-.3-1.3-1.6-1.6-1.9-.8.8-1.8 1.6-2.8 2.2-.4.3-1 .6-1.6.9-1.9.9-3.9 1.2-6.3 1.2-3.5 0-6.4-1.1-9-3.5l-.2-.2c-2-2-3.9-5.2-3.6-8.7h27c.6-3.9-1.2-8.5-2.9-10.8-4.2-5.8-11.4-7-17.4-4.7-8.8 3.2-12.4 15.7-7.3 23.1 2 3.4 5.1 6 8.9 6.9 4.3 1.3 9.6.9 13.6-1.6 1.1-1 2.1-1.9 3.2-2.9M406 163.2c-.1-6.2 6-11.8 12.1-11.8 3.4 0 5.8 1 8.2 3.1 2.2 2 4.1 6 3.8 8.7H406zm-227.5 17.2h29.9v-6.7l-22.1-.1v-35.3h-7.8z" class="st0"/><path d="M178.5 180.4h29.9v-6.7l-22.1-.1v-35.3h-7.8z" class="st1"/><path d="M327.9 180.4h3v-18.5h22.6v-2.8h-22.4l-.2-18h25.3v-2.8h-28.3zm57.1 0h3.1c1.3-2.9 14.1-30.9 14.1-31.3h-3.1l-12.5 28-12.5-28H371l14 31.3zm-22.1-31.3h2.9v31.3h-2.9zm1.5-7.9c1.3 0 2.3-1 2.3-2.3 0-1.3-1-2.3-2.3-2.3s-2.3 1-2.3 2.3c0 1.3 1 2.3 2.3 2.3" class="st0"/><path d="M364.4 141.2c1.3 0 2.3-1 2.3-2.3 0-1.3-1-2.3-2.3-2.3s-2.3 1-2.3 2.3c0 1.3 1 2.3 2.3 2.3z" class="st2"/><path d="M292 152.4v-4.2h-7.1v43.9h7.6v-15.5c1.5 1.3 1 1.3 3.2 2.6 4.9 2.5 11.9 2.1 16.5-1 4.5-3.2 7-8.2 6.8-14.1 0-3.8-1-6.7-2.6-9.2-1.3-2.2-3.9-4.4-6.4-5.5-3.1-1.3-7.3-1.7-10.3-1.2-2.3.4-4.4 1.3-6.1 2.8-.6.4-1.3 1.1-1.6 1.4m6.7 2.4c2.6-1.1 7.4-.1 9.5 1.9 2 1.9 2.9 3.8 3.1 6.7 1 11.8-12.5 14-17.1 7.4-.1-.3-.4-.6-.6-.9-2-3.5-1.6-9.2.7-12.1 1.5-1.7 2.5-2.3 4.4-3m-57.7 21l-4.2-4.7c-2.7 3.1-7.6 3.7-11.4 3.2-3.4-.4-7.4-4.1-7.6-7.6H243c.3-4.2-.1-8.6-2.6-12.1-4.1-7.1-16.5-8.7-22.9-4.1-2.6 1.6-4.8 4.2-6 7.1-2.2 5.6-1.3 12.8 2.5 17.5 3.2 3.5 5.4 4.7 9.6 5.7 6 1 12.7-.4 16.6-4.4l.8-.6zm-23.2-14c0-1.9 1.4-4.5 2.9-5.7 1.9-1.5 3.8-2.2 6.3-2.2 3.8 0 6.3 1.9 8 4.7.9 1.5 1 2.9 1 3.2h-18.2zm29.8-9.9l3.1 5.5c3-2.8 17.6-7.2 17.6 4.3-6.1.5-16.2-1.4-20.1 4.4-1.9 2.8-1.9 6.1-.6 9.2 2.5 6.6 15.3 7.3 19.8 2.9.4-.4.6-.6 1.3-1.5v3.8h7.2c0-4.9.2-17.8-.4-21.9-.6-6.1-5.1-9.5-10.8-10.5-3.5-.4-10.4 0-13.2 1.5-1.5.7-2.7 1.4-3.9 2.3m20.7 14.8c0 2.6.2 4.9-2 6.6-2.8 2.5-8.2 2.9-10.8.7-.9-.7-1.9-2.5-1.3-4.2.6-1.8 1.5-2.2 3.1-2.8 1.6-.6 8.8-.4 11-.3m162.8 8.9c-.1-.3-1.3-1.6-1.6-1.9-.8.8-1.8 1.6-2.8 2.2-.4.3-1 .6-1.6.9-1.9.9-3.9 1.2-6.3 1.2-3.5 0-6.4-1.1-9-3.5l-.2-.2c-2-2-3.9-5.2-3.6-8.7h27c.6-3.9-1.2-8.5-2.9-10.8-4.2-5.8-11.4-7-17.4-4.7-8.8 3.2-12.4 15.7-7.3 23.1 2 3.4 5.1 6 8.9 6.9 4.3 1.3 9.6.9 13.6-1.6 1.1-1 2.1-1.9 3.2-2.9M406 163.2c-.1-6.2 6-11.8 12.1-11.8 3.4 0 5.8 1 8.2 3.1 2.2 2 4.1 6 3.8 8.7H406zm-227.5 17.2h29.9v-6.7l-22.1-.1v-35.3h-7.8z" class="st0"/><path d="M178.5 180.4h29.9v-6.7l-22.1-.1v-35.3h-7.8z" class="st1"/><path d="M327.9 180.4h3v-18.5h22.6v-2.8h-22.4l-.2-18h25.3v-2.8h-28.3zm57.1 0h3.1c1.3-2.9 14.1-30.9 14.1-31.3h-3.1l-12.5 28-12.5-28H371l14 31.3zm-22.1-31.3h2.9v31.3h-2.9zm1.5-7.9c1.3 0 2.3-1 2.3-2.3 0-1.3-1-2.3-2.3-2.3s-2.3 1-2.3 2.3c0 1.3 1 2.3 2.3 2.3" class="st0"/><path d="M364.4 141.2c1.3 0 2.3-1 2.3-2.3 0-1.3-1-2.3-2.3-2.3s-2.3 1-2.3 2.3c0 1.3 1 2.3 2.3 2.3z" class="st2"/><path d="M132.4 175.5c-4.4 9.6-13.9 16.3-24.9 16.3-15.2 0-27.5-12.6-27.5-28.1 0-12.5 8-23.1 19-26.8 4.4-9.6 13.9-16.3 24.9-16.3 15.2 0 27.5 12.6 27.5 28.1 0 12.5-7.9 23.1-19 26.8" class="st0"/><path fill="#f2c71d" fill-rule="evenodd" d="M130.7 132.1c9.9 3.9 16.8 12.9 16.8 23.5 0 4.5-1.3 9.2-3.6 12.9l-31.3 28.7c-.7 0-1.4.1-2.1.1-18.5 0-33.5-13.8-33.5-30.8 0-8.2 3.5-15.7 9.2-21.2-2.2 3.8-3.4 8.1-3.4 12.7 0 13.6 10.8 24.9 25.4 26.8l16-14.7c3.4-2.6 5.6-6.6 5.6-11 0-5.5-3.4-10.4-8.4-12.7-1.2-.8-2.6-1.4-4-1.9l13.3-12.4z" clip-rule="evenodd"/><path fill="#db4513" fill-rule="evenodd" d="M101.2 179.7c-9.9-3.9-16.8-12.9-16.8-23.5 0-4.5 1.3-9.2 3.6-12.9l31.3-28.7c.7 0 1.4-.1 2.1-.1 18.5 0 33.5 13.8 33.5 30.8 0 8.2-3.5 15.7-9.2 21.2 2.2-3.8 3.4-8.1 3.4-12.7 0-13.6-10.8-24.9-25.4-26.8l-16 14.7c-3.4 2.6-5.6 6.6-5.6 11 0 5.5 3.4 10.4 8.4 12.7 1.2.8 2.6 1.4 4 1.9l-13.3 12.4z" clip-rule="evenodd"/></svg>