<?xml version="1.0" encoding="utf-8"?>
<!-- Generator: Adobe Illustrator 17.0.0, SVG Export Plug-In . SVG Version: 6.00 Build 0)  -->
<!DOCTYPE svg PUBLIC "-//W3C//DTD SVG 1.1//EN" "http://www.w3.org/Graphics/SVG/1.1/DTD/svg11.dtd">
<svg version="1.1" id="Layer_1" xmlns="http://www.w3.org/2000/svg" xmlns:xlink="http://www.w3.org/1999/xlink" x="0px" y="0px"
	 width="354.376px" height="77.591px" viewBox="0 0 354.376 77.591" enable-background="new 0 0 354.376 77.591"
	 xml:space="preserve">
<g>
	<g>
		<g>
			<g>
				<line fill="#6D6E71" x1="142.29" y1="0" x2="142.29" y2="77.591"/>
				<rect x="140.678" y="0" fill="#6D6E71" width="3.224" height="77.591"/>
			</g>
			<g>
				<path fill="#414042" d="M158.342,7.653h5.417v21.318c0,2.05,1.277,2.012,2.399,2.012h9.711v4.991h-11.627
					c-3.085,0-5.9-1.141-5.9-5.514V7.653z"/>
				<path fill="#414042" d="M178.311,8.949c0-0.58,0.309-0.967,0.927-0.967h4.063c0.581,0,0.869,0.426,0.869,0.967v3.43
					c0,0.58-0.327,0.89-0.869,0.89h-4.063c-0.542,0-0.927-0.349-0.927-0.89V8.949z M178.506,15.43h5.417v20.545h-5.417V15.43z"/>
				<path fill="#414042" d="M187.394,5.602h5.382v10.853c1.881-0.857,4.497-1.335,6.238-1.335c5.694,0,6.708,4.289,6.708,10.678
					c0,6.231-1.65,10.408-6.708,10.408c-2.438,0-4.918-1.269-6.199-2.302l-0.967,2.07h-4.455V5.602z M197.61,31.577
					c1.749,0,2.695-1.408,2.695-5.991c0-5.243-0.985-6.22-2.695-6.22c-1.873,0-3.381,0.224-4.795,0.771v10.17
					C193.967,31.053,195.575,31.577,197.61,31.577z"/>
				<path fill="#414042" d="M208.903,15.43h4.565l0.852,2.593c1.425-1.376,3.339-2.804,5.895-2.804c0.888,0,1.738,0.035,2.287,0.246
					v5.229c-0.549-0.053-1.804-0.105-2.969-0.105c-2.243,0-3.872,0.366-5.214,2.286v13.099h-5.417V15.43z"/>
				<path fill="#414042" d="M232.938,15.275c5.943,0,8.705,0.678,8.705,7.487c0,3.66-2.012,5.146-5.727,5.146h-6.539
					c0,3.709,1.401,3.929,4.334,3.929c3.134,0,4.644,0.017,7.545-0.409v3.656c-2.9,1.081-7.312,1.084-10.523,1.084
					c-5.223,0-6.771-3.026-6.771-10.563C223.962,16.777,226.422,15.275,232.938,15.275z M234.512,24.019
					c1.127,0,1.714-0.556,1.714-1.534c0-2.594-0.37-3.07-2.974-3.07c-2.862,0-3.918,0.166-3.876,4.604H234.512z"/>
				<path fill="#414042" d="M254.395,14.733c0-5.61,3.328-7.248,7.662-7.312c4.071-0.085,8.713,0.458,10.948,1.12v4.257
					c-2.476-0.218-8.055-0.386-9.459-0.386c-2.368-0.053-3.734,0.112-3.734,2.747v1.383c0,2.244,0.859,2.728,3.052,2.728h4.472
					c5.551,0,6.697,4.375,6.697,7.506v1.886c0,6.431-4.006,7.622-7.838,7.622c-4.831,0-7.998-0.296-10.928-1.159v-4.258
					c1.547,0.155,6.267,0.426,9.865,0.426c1.628,0,3.484-0.269,3.484-2.439v-1.525c0-1.61-0.488-2.642-2.556-2.642h-4.353
					c-6.829,0-7.312-5.044-7.312-7.506V14.733z"/>
				<path fill="#414042" d="M277.07,15.43h4.455l0.949,2.07c1.281-1.033,3.778-2.302,6.216-2.302c5.058,0,6.708,4.241,6.708,10.408
					c0,5.943-1.014,10.678-6.708,10.678c-1.741,0-4.357-0.478-6.238-1.335v11.472h-5.382V15.43z M287.286,32.037
					c1.71,0,2.695-0.977,2.695-6.22c0-4.582-0.946-5.991-2.695-5.991c-2.035,0-3.66,0.524-4.812,1.269v10.17
					C283.888,31.813,285.415,32.037,287.286,32.037z"/>
				<path fill="#414042" d="M297.977,28.803c0-2.989,1.615-5.636,6.018-5.636c0,0,6.035,0.039,6.035,0c0,0,0.039-1.277,0-1.315
					c0-2.19-1.025-2.534-2.747-2.534c-1.785,0-6.939,0.321-8.628,0.443v-3.344c2.704-1.051,5.532-1.356,9.362-1.374
					c4.423-0.017,7.43,1.511,7.43,6.597v14.334h-4.277l-1.14-2.264c-0.227,0.447-3.111,2.56-6.248,2.496
					c-3.953-0.106-5.806-2.797-5.806-5.469V28.803z M305.314,31.854c2.265,0,4.716-1.59,4.716-1.59v-3.767l-4.971,0.385
					c-1.429,0.134-1.665,1.192-1.665,2.09v0.998C303.393,31.678,304.317,31.854,305.314,31.854z"/>
				<path fill="#414042" d="M325.128,15.236c2.012,0,6.07,0.12,9.459,1.219v3.366c0,0-3.696-0.232-7.14-0.232
					c-2.492,0-3.674,0.15-3.674,6.206c0,5.26,0.889,6.02,3.674,6.02c3.559,0,7.411-0.362,7.411-0.362v3.401
					c-3.007,1.529-6.519,1.275-9.73,1.314c-3.832,0-6.771-2.002-6.771-10.486C318.358,17.217,321.182,15.236,325.128,15.236z"/>
				<path fill="#414042" d="M345.671,15.275c5.943,0,8.705,0.678,8.705,7.487c0,3.66-2.012,5.146-5.727,5.146h-6.539
					c0,3.709,1.401,3.929,4.334,3.929c3.134,0,4.644,0.017,7.545-0.409v3.656c-2.9,1.081-7.312,1.084-10.523,1.084
					c-5.223,0-6.771-3.026-6.771-10.563C336.695,16.777,339.156,15.275,345.671,15.275z M347.245,24.019
					c1.127,0,1.714-0.556,1.714-1.534c0-2.594-0.37-3.07-2.974-3.07c-2.862,0-3.918,0.166-3.876,4.604H347.245z"/>
				<path fill="#6D6E71" d="M158.855,50.013c0-4.017,2.528-5.389,5.223-5.285c0,0,11.611,0.526,12.29,0.619V48.2h-11.942
					c-2.012,0-2.012,1.122-2.012,2.167V57.2l12.348,0.393v2.874l-12.348,0.382V73.05h-3.559V50.013z"/>
				<path fill="#6D6E71" d="M187.713,52.311c6.967,0,9.141,2.593,9.141,10.756c0,7.621-2.146,10.176-9.141,10.176
					c-6.972,0-9.14-2.825-9.14-10.176C178.573,54.672,180.924,52.311,187.713,52.311z M187.713,69.974
					c3.871,0,5.582-0.507,5.582-6.906c0-6.916-1.409-7.487-5.582-7.487c-4.025,0-5.58,0.544-5.58,7.487
					C182.133,69.497,184.031,69.974,187.713,69.974z"/>
				<path fill="#6D6E71" d="M200.431,52.505h3.559v14.164c0,2.414,1.346,3.459,3.152,3.459c2.846,0,4.268-0.716,6.87-2.09V52.505
					h3.559V73.05h-2.651l-0.908-2.341c-2.273,1.319-4.159,2.689-7.293,2.689c-4.288,0-6.287-3.207-6.287-6.751V52.505z"/>
				<path fill="#6D6E71" d="M221.879,52.505h2.649l0.91,2.341c2.198-1.331,4.159-2.689,7.293-2.689c4.286,0,6.287,3.207,6.287,6.751
					V73.05h-3.559V58.885c0-2.414-1.347-3.459-3.152-3.459c-2.846,0-4.268,0.716-6.87,2.09V73.05h-3.559V52.505z"/>
				<path fill="#6D6E71" d="M248.966,52.196c1.741,0,4.899,0.524,7.211,1.489V42.677h3.528V73.05h-2.708l-0.825-2.224
					c-1.081,0.816-4.628,2.457-7.207,2.457c-5.459,0-6.753-5.229-6.753-10.408C242.213,57.258,243.164,52.196,248.966,52.196z
					 M249.349,69.937c2.778,0,4.99-0.818,6.824-1.64V56.378c-2.328-0.656-4.146-0.942-6.824-0.942c-2.267,0-3.577,1.363-3.577,7.38
					C245.772,67.724,247.042,69.937,249.349,69.937z"/>
				<path fill="#6D6E71" d="M263.282,65.832c0-3.067,1.846-5.279,5.384-5.279c0,0,7.893,0.039,7.893,0c0,0,0.038-2.205,0-2.245
					c0-2.313-1.181-2.998-3.057-2.998c-2.512,0-6.366,0.228-9.557,0.458v-2.431c2.736-0.849,6.01-1.186,9.842-1.219
					c3.542-0.032,6.331,1.651,6.331,6.133V73.05h-2.714l-0.845-2.418c-0.118,0.122-4.535,2.667-7.951,2.65
					c-3.133-0.029-5.325-2.086-5.325-5.206V65.832z M269.024,70.012c2.87,0,7.534-1.869,7.534-1.869v-5.051l-7.603,0.555
					c-1.599,0.149-2.114,1.254-2.114,2.399v1.679C266.841,69.542,267.796,70.012,269.024,70.012z"/>
				<path fill="#6D6E71" d="M282.638,53.279l3.691-0.812l0.754-5.726h2.805v5.726h5.615v3.211h-5.615v9.788
					c0,3.274,0.837,4.013,2.084,4.346c0,0,2.941,0.812,3.211,0.812v2.399h-3.765c-2.996,0-5.089-1.869-5.089-7.325v-10.02h-3.691
					V53.279z"/>
				<path fill="#6D6E71" d="M298.386,46.798c0-0.58,0.309-0.967,0.929-0.967h2.514c0.581,0,0.885,0.425,0.885,0.967v2.455
					c0,0.581-0.343,0.89-0.885,0.89h-2.514c-0.542,0-0.929-0.348-0.929-0.89V46.798z M298.72,52.505h3.561V73.05h-3.561V52.505z"/>
				<path fill="#6D6E71" d="M315.456,52.311c6.967,0,9.141,2.593,9.141,10.756c0,7.621-2.146,10.176-9.141,10.176
					c-6.972,0-9.14-2.825-9.14-10.176C306.317,54.672,308.667,52.311,315.456,52.311z M315.456,69.974
					c3.871,0,5.582-0.507,5.582-6.906c0-6.916-1.409-7.487-5.582-7.487c-4.025,0-5.58,0.544-5.58,7.487
					C309.876,69.497,311.774,69.974,315.456,69.974z"/>
				<path fill="#6D6E71" d="M328.538,52.505h2.649l0.91,2.341c2.198-1.331,4.159-2.689,7.293-2.689c4.286,0,6.287,3.207,6.287,6.751
					V73.05h-3.559V58.885c0-2.414-1.348-3.459-3.152-3.459c-2.846,0-4.268,0.716-6.87,2.09V73.05h-3.559V52.505z"/>
			</g>
		</g>
	</g>
	<g>
		<g>
			<g>
				<g>
					<path fill="#6672D8" d="M96.213,30.581c-0.49-1.921-1.137-3.816-1.96-5.664c-0.733-1.645-1.582-3.215-2.535-4.704
						c-4.006-6.26-9.877-11.067-16.945-13.78c-4.044-1.552-8.272-2.339-12.566-2.339c-7.02,0-13.819,2.084-19.662,6.028
						c-3.991,2.694-7.333,6.135-9.888,10.133c-1.272,1.99-2.352,4.117-3.214,6.362c-0.508,1.322-0.922,2.664-1.265,4.016
						c-1.548,6.106-1.42,12.45,0.372,18.481c0.437,1.47,0.963,2.923,1.597,4.348c0.969,2.176,2.141,4.222,3.49,6.12
						c3.959,5.57,9.464,9.86,15.99,12.365l1.206,0.463l4.084-10.642l1.844-4.805c-0.437,0.107-0.737,0.192-0.794,0.234l-5.077,3.698
						c-0.539,0.393-0.981,0.168-0.981-0.499V48.263c0-0.667,0.465-1.499,1.033-1.849l2.047-1.26c0.448-0.293,0.471-0.683,0.48-0.884
						c0.425-10.187,6.644-15.527,8.669-15.527c2.037,0,8.578,5.467,8.969,15.69c0.007,0.185-0.049,0.552,0.373,0.772l1.964,1.209
						c0.569,0.349,1.033,1.182,1.033,1.849l0,12.132c0,0.667-0.441,0.892-0.981,0.499l-5.077-3.698
						c-0.054-0.039-0.348-0.122-0.779-0.227l1.844,4.805l4.082,10.636l1.206-0.463c6.454-2.477,11.976-6.799,15.939-12.323
						c1.729-2.41,3.165-5.046,4.246-7.861c0.329-0.857,0.613-1.723,0.873-2.593C97.65,43.071,97.772,36.688,96.213,30.581z"/>
				</g>
			</g>
			<g>
				<path fill="#6672D8" d="M24.153,50.534c-0.147-0.494-0.281-0.99-0.408-1.488c-8.99-2.344-14.579-5.607-14.579-9.219
					c0-3.578,5.48-6.815,14.322-9.154c0.078-0.345,0.157-0.69,0.244-1.034c0.388-1.529,0.857-3.046,1.431-4.541
					c0.621-1.619,1.344-3.183,2.159-4.687c-2.201,0.428-4.308,0.9-6.28,1.424c-5.355,1.423-9.707,3.174-12.936,5.204
					C1.406,31.249,0,36.317,0,39.827c0,3.51,1.406,8.578,8.107,12.789c3.229,2.029,7.581,3.78,12.936,5.204
					c2.17,0.577,4.491,1.097,6.934,1.558c-0.738-1.263-1.414-2.572-2.017-3.928C25.242,53.839,24.647,52.196,24.153,50.534z"/>
				<path fill="#6672D8" d="M116.489,27.038c-3.229-2.029-7.581-3.78-12.936-5.204c-2.038-0.542-4.218-1.028-6.499-1.467
					c0.495,0.913,0.959,1.849,1.387,2.809c0.93,2.089,1.661,4.232,2.216,6.404c0.088,0.346,0.168,0.694,0.247,1.041
					c8.96,2.343,14.525,5.601,14.525,9.206c0,3.641-5.678,6.927-14.794,9.275c-0.128,0.499-0.264,0.998-0.412,1.494
					c-0.294,0.984-0.615,1.963-0.987,2.932c-0.788,2.053-1.746,4.021-2.849,5.891c2.528-0.471,4.928-1.004,7.166-1.599
					c5.355-1.423,9.707-3.174,12.936-5.204c6.701-4.211,8.107-9.279,8.107-12.789C124.596,36.317,123.19,31.249,116.489,27.038z"/>
			</g>
		</g>
	</g>
</g>
</svg>
