<svg xmlns="http://www.w3.org/2000/svg" role="img" viewBox="1.64 1.89 421.72 96.47"><g fill-opacity="1" stroke="none" transform="translate(-133.46 -387.502)"><g display="inline" transform="translate(-404.54 -1378.762)"><path fill="#18a303" d="M643.40618 1779.7848v45.9016h29.59884v-6.9732H652.4409v-38.9284h-9.03472"/><path fill="#18a303" d="M678.46533 1825.6864h9.03473v-33.0383h-9.03473v33.0383m4.51736-35.8818c2.83178 0 5.1916-2.3018 5.1916-5.213 0-2.8434-2.35982-5.213-5.1916-5.213-2.89921 0-5.1916 2.3696-5.1916 5.213 0 2.9112 2.29239 5.213 5.1916 5.213"/><path fill="#18a303" d="M703.23342 1796.507h-.13485v-19.5657h-9.03472v48.7451h8.83246l.20226-3.8589h.13485c2.83178 3.182 5.66357 4.5359 10.31577 4.5359 8.76503 0 14.56345-7.9211 14.56345-17.8055 0-9.5458-5.19161-16.5868-14.1589-16.5868-4.78706 0-7.61885 1.4217-10.72032 4.5359m-.13485 11.9155c0-5.6869 2.5621-9.4782 7.41657-9.4782 5.39387 0 8.09081 3.859 8.09081 10.1552 0 6.2286-2.62952 10.2907-7.95596 10.2907-4.6522 0-7.55142-3.6559-7.55142-9.4782v-1.4895"/><path fill="#18a303" d="M752.35511 1791.9711c-4.3151.2707-8.42793 2.9112-10.31578 6.567h-.13484l-.20227-5.89h-8.83246v33.0383h9.03473v-12.4571c0-6.6347 1.21362-9.0043 3.30374-10.4937 1.82043-1.2863 3.97798-1.8279 6.94461-1.9633l.20227-8.8012"/><path fill="#18a303" d="M785.59681 1807.2039c0-8.1918-4.98934-15.2328-13.61952-15.2328-10.38318 0-17.05811 7.1764-17.05811 18.0763 0 10.6291 6.8772 16.316 17.05811 16.316 4.78706 0 8.15824-.7447 11.32712-2.1664l-.94392-6.7701c-2.96662 1.2186-6.00068 1.9633-9.237 1.9633-5.46128 0-8.96731-2.505-9.30442-7.6502h21.3732c.2697-1.2187.40454-3.1143.40454-4.5361m-14.56344-8.2596c3.91055 0 5.73099 3.182 5.86583 6.567h-12.74302c.67423-3.7913 3.30375-6.567 6.87719-6.567"/><path fill="#000" d="M813.02447 1779.1077c-12.13619 0-22.11485 8.869-22.11485 23.6279 0 14.759 9.97866 23.6278 22.11485 23.6278 12.1362 0 22.11486-8.8688 22.11486-23.6278 0-14.7589-9.97866-23.6279-22.11486-23.6279m0 4.6038c9.03472 0 15.91191 6.7701 15.91191 19.0241 0 12.2539-6.87719 19.0242-15.91191 19.0242-9.03471 0-15.91191-6.7703-15.91191-19.0242 0-12.254 6.8772-19.0241 15.91191-19.0241"/><path fill="#000" d="M843.77424 1790.8201v2.0987h-5.32645v4.333h5.32645v28.4346h5.66355v-28.4346h8.3605v-4.333h-8.3605v-2.9788c0-5.89 2.49467-9.3428 7.01203-9.3428 2.09012 0 3.43859.3385 4.71964.8124l.53938-4.1975c-1.21362-.4739-3.50601-.9478-5.32644-.9478-8.02337 0-12.60816 5.213-12.60816 14.5558"/><path fill="#000" d="M862.60286 1790.8201v2.0987h-5.32645v4.333h5.32645v28.4346h5.66355v-28.4346h8.3605v-4.333h-8.3605v-2.9788c0-5.89 2.49467-9.3428 7.01204-9.3428 2.09011 0 3.43858.3385 4.71963.8124l.53939-4.1975c-1.21362-.4739-3.50603-.9478-5.32645-.9478-8.02337 0-12.60816 5.213-12.60816 14.5558"/><path fill="#000" d="M883.18692 1825.6864h5.66356v-32.7676h-5.66356v32.7676m2.83178-37.5743c1.95528 0 3.50601-1.5571 3.50601-3.5205 0-1.9633-1.55073-3.5205-3.50601-3.5205s-3.50601 1.5572-3.50601 3.5205c0 1.9634 1.55073 3.5205 3.50601 3.5205"/><path fill="#000" d="M900.62683 1809.1673c0-8.2596 4.9219-12.5925 11.32712-12.5925 3.37116 0 6.3378.8124 8.76503 1.9633l.53939-4.3329c-2.0227-1.0155-5.25903-1.9634-8.83246-1.9634-10.1135 0-17.73234 6.1609-17.73234 17.6702 0 10.8322 6.87719 16.4514 15.97933 16.4514 4.0454 0 6.9446-.4738 10.24835-1.8956l-.53938-4.3329c-2.83179 1.2864-5.86584 1.8956-8.69761 1.8956-6.54006 0-11.05743-4.1298-11.05743-12.8632"/><path fill="#000" d="M953.20391 1810.589c.13484-1.2186.20227-2.2341.20227-3.2497 0-8.395-4.38252-15.0975-12.81043-15.0975-9.10215 0-15.77707 7.5826-15.77707 17.6702 0 11.103 6.67492 16.4514 15.77707 16.4514 4.04539 0 7.07945-.6092 10.24834-1.8956l-.53938-4.3329c-2.49466 1.2186-6.06811 1.8956-8.89989 1.8956-6.54006 0-10.78773-3.9943-10.92257-11.4415h22.72166m-13.08013-14.0142c4.98933 0 7.68626 4.1298 7.68626 9.5459h-17.0581c.80907-5.7546 3.97798-9.5459 9.37184-9.5459"/></g><g fill="#000" display="inline" transform="matrix(.98078 0 0 1.0196 -404.54 -1378.762)"><path d="M669.80391 1801.7666h-13.79137v1.9061h5.69034v17.099h2.35463v-17.099h5.7464v-1.9061"/><path d="M674.34759 1809.4471v-8.8579h-2.35462v20.1825h2.35462v-7.4563c0-2.8031 1.70991-4.485 3.81225-4.485 2.18643 0 2.71903 1.2334 2.71903 3.8403v8.101h2.35462v-8.8298c0-3.3077-1.51369-5.0176-4.4009-5.0176-2.01825 0-3.47587 1.1213-4.42893 2.5228h-.0561"/><path d="M698.19735 1814.5208c.0561-.5046.0841-.9251.0841-1.3455 0-3.4759-1.82203-6.251-5.32593-6.251-3.78421 0-6.55931 3.1395-6.55931 7.3162 0 4.5971 2.7751 6.8115 6.55931 6.8115 1.68187 0 2.94328-.2522 4.26074-.7848l-.22425-1.794c-1.03715.5045-2.52281.7848-3.70012.7848-2.71902 0-4.48499-1.6538-4.54106-4.7372h9.44653m-5.43806-5.8025c2.07431 0 3.19556 1.7099 3.19556 3.9524h-7.0919c.33637-2.3826 1.65384-3.9524 3.89634-3.9524"/><path d="M707.96272 1802.0188v18.5847c1.37353.1963 3.39178.3084 4.90547.3084 5.74639 0 11.15643-3.3357 11.15643-10.2314 0-6.0548-4.14863-9.0541-11.10037-9.0541-1.54171 0-3.33572.1121-4.96153.3924m2.35463 1.6819c.86896-.1401 1.82203-.1682 2.85918-.1682 5.35396 0 8.26921 2.8592 8.26921 7.4283 0 5.41-3.75618 8.045-8.29724 8.045-.86897 0-1.85006-.028-2.83115-.1122v-15.1929"/><path d="M732.78438 1806.9243c-4.09256 0-6.53128 3.0834-6.53128 7.0639 0 3.9804 2.43872 7.0638 6.53128 7.0638 4.09255 0 6.53127-3.0834 6.53127-7.0638 0-3.9805-2.43872-7.0639-6.53127-7.0639m0 12.3337c-2.83115 0-4.06453-2.4387-4.06453-5.2698 0-2.8312 1.23338-5.2699 4.06453-5.2699 2.83115 0 4.06452 2.4387 4.06452 5.2699 0 2.8311-1.23337 5.2698-4.06452 5.2698"/><path d="M744.10417 1813.9321c0-3.4198 2.04628-5.2138 4.70925-5.2138 1.40156 0 2.63493.3364 3.64406.8129l.22425-1.794c-.84094-.4205-2.18644-.8129-3.67209-.8129-4.20468 0-7.37222 2.5508-7.37222 7.3162 0 4.4849 2.85919 6.8115 6.6434 6.8115 1.68188 0 2.88722-.1962 4.26075-.7848l-.22425-1.794c-1.17731.5326-2.43872.7848-3.61603.7848-2.71902 0-4.59712-1.7099-4.59712-5.3259"/><path d="M764.3944 1818.5292l.0841 2.2425h2.27053v-13.5671h-2.35463v7.4563c0 2.8031-1.7099 4.485-3.81224 4.485-2.18644 0-2.71903-1.2334-2.71903-3.8403v-8.101h-2.35463v8.8299c0 3.3076 1.51369 5.0175 4.40091 5.0175 2.01824 0 3.47587-1.1212 4.42893-2.5228h.0561"/><path d="M787.57141 1812.3904v8.3813h2.35462v-9.1101c0-3.0274-1.40156-4.7373-4.09256-4.7373-1.93415 0-3.47587 1.2334-4.37287 3.0554h-.0841c-.5326-1.9061-1.65385-3.0554-3.81225-3.0554-1.93415 0-3.16753 1.0372-4.12059 2.5228h-.0561l-.0841-2.2425h-2.27053v13.5671h2.35463v-6.8957c0-3.0554 1.3455-5.0456 3.44784-5.0456 1.76596 0 2.46675 1.2334 2.46675 3.56v8.3813h2.35462v-6.8957c0-3.1114 1.3455-5.0456 3.44784-5.0456 1.76596 0 2.46675 1.2334 2.46675 3.56"/><path d="M804.8474 1814.5208c.0561-.5046.0841-.9251.0841-1.3455 0-3.4759-1.82203-6.251-5.32593-6.251-3.78421 0-6.55931 3.1395-6.55931 7.3162 0 4.5971 2.7751 6.8115 6.55931 6.8115 1.68187 0 2.94328-.2522 4.26075-.7848l-.22425-1.794c-1.03716.5045-2.52282.7848-3.70013.7848-2.71902 0-4.48499-1.6538-4.54105-4.7372h9.44652m-5.43806-5.8025c2.07431 0 3.19556 1.7099 3.19556 3.9524h-7.0919c.33638-2.3826 1.65385-3.9524 3.89634-3.9524"/><path d="M810.61657 1809.4471l-.0841-2.2425h-2.27053v13.5671h2.35462v-7.4563c0-2.8031 1.70991-4.485 3.81225-4.485 2.18643 0 2.71903 1.2334 2.71903 3.8403v8.101h2.35462v-8.8298c0-3.3077-1.51369-5.0176-4.4009-5.0176-2.01825 0-3.47587 1.1213-4.42893 2.5228h-.0561"/><path d="M830.00936 1807.2046h-3.25162v-2.9993h-2.35462v2.9993h-2.15841v1.794h2.15841v8.4374c0 2.4668 1.3455 3.616 3.53193 3.616 1.14928 0 1.90612-.1121 2.49478-.3644l-.25228-1.7099c-.47653.1962-.9811.2803-1.51369.2803-1.37353 0-1.90612-.7848-1.90612-2.4106v-7.8488h3.25162v-1.794"/><path d="M842.15171 1820.7717v-8.5775h6.81159v-1.9061h-6.81159v-6.6154h7.76465v-1.9061h-10.11927v19.0051h2.35462"/><path d="M858.43216 1806.9243c-4.09256 0-6.53128 3.0834-6.53128 7.0639 0 3.9804 2.43872 7.0638 6.53128 7.0638 4.09255 0 6.53127-3.0834 6.53127-7.0638 0-3.9805-2.43872-7.0639-6.53127-7.0639m0 12.3337c-2.83115 0-4.06453-2.4387-4.06453-5.2698 0-2.8312 1.23338-5.2699 4.06453-5.2699 2.83115 0 4.06453 2.4387 4.06453 5.2699 0 2.8311-1.23338 5.2698-4.06453 5.2698"/><path d="M877.01204 1818.5292l.0841 2.2425h2.27053v-13.5671h-2.35462v7.4563c0 2.8031-1.70991 4.485-3.81225 4.485-2.18643 0-2.71902-1.2334-2.71902-3.8403v-8.101h-2.35463v8.8299c0 3.3076 1.51369 5.0175 4.4009 5.0175 2.01825 0 3.47588-1.1212 4.42894-2.5228h.0561"/><path d="M886.00524 1809.4471l-.0841-2.2425h-2.27053v13.5671h2.35462v-7.4563c0-2.8031 1.70991-4.485 3.81225-4.485 2.18643 0 2.71903 1.2334 2.71903 3.8403v8.101h2.35462v-8.8298c0-3.3077-1.51369-5.0176-4.4009-5.0176-2.01825 0-3.47587 1.1213-4.42893 2.5228h-.0561"/><path d="M908.53753 1809.307c-1.00912-1.6539-2.46675-2.3827-4.37287-2.3827-3.64406 0-6.11081 3.0274-6.11081 7.3162 0 4.0925 2.21447 6.8115 5.94262 6.8115 1.96219 0 3.47587-.897 4.54106-2.3826h.0561l.0841 2.1023h2.27053v-20.1825h-2.35463v8.7178h-.0561m.0561 5.4941c0 2.3546-1.45762 4.4569-3.86831 4.4569-2.71902 0-4.20468-2.1303-4.20468-5.2418 0-3.1956 1.42959-5.2979 4.14862-5.2979 2.1584 0 3.92437 1.8501 3.92437 4.457v1.6258"/><path d="M919.95107 1806.9243c-1.37353 0-2.74706.2243-4.20468.7849l.22425 1.794c1.37353-.5326 2.49478-.7849 3.64406-.7849 2.0743 0 2.94327 1.2053 2.94327 3.1115v.3924c-.64471-.1121-1.2614-.1682-2.24249-.1682-3.44784 0-6.05475 1.7099-6.05475 4.6812 0 2.7751 2.04628 4.3168 4.23272 4.3168 1.79399 0 3.27965-.925 4.00846-2.3826h.0561l.0841 2.1023h2.27053v-9.1942c0-3.0554-1.82204-4.6532-4.96153-4.6532m2.6069 8.0169c0 2.691-1.37353 4.3168-3.36374 4.3168-1.42959 0-2.41069-1.0371-2.41069-2.691 0-1.794 1.14929-2.9713 3.89634-2.9713.70078 0 1.31747.084 1.87809.1682v1.1773"/><path d="M935.4002 1807.2046h-3.25162v-2.9993h-2.35463v2.9993h-2.1584v1.794h2.1584v8.4374c0 2.4668 1.34551 3.616 3.53194 3.616 1.14928 0 1.90612-.1121 2.49478-.3644l-.25228-1.7099c-.47653.1962-.9811.2803-1.51369.2803-1.37353 0-1.90612-.7848-1.90612-2.4106v-7.8488h3.25162v-1.794"/><path d="M938.8371 1820.7717h2.35462v-13.5671h-2.35462v13.5671m1.17731-15.5573c.81291 0 1.45762-.6447 1.45762-1.4576s-.64471-1.4576-1.45762-1.4576c-.8129 0-1.45762.6447-1.45762 1.4576s.64472 1.4576 1.45762 1.4576"/><path d="M951.01185 1806.9243c-4.09255 0-6.53127 3.0834-6.53127 7.0639 0 3.9804 2.43872 7.0638 6.53127 7.0638 4.09256 0 6.53128-3.0834 6.53128-7.0638 0-3.9805-2.43872-7.0639-6.53128-7.0639m0 12.3337c-2.83115 0-4.06452-2.4387-4.06452-5.2698 0-2.8312 1.23337-5.2699 4.06452-5.2699 2.83116 0 4.06453 2.4387 4.06453 5.2699 0 2.8311-1.23337 5.2698-4.06453 5.2698"/><path d="M963.2006 1809.4471l-.0841-2.2425h-2.27053v13.5671h2.35462v-7.4563c0-2.8031 1.70991-4.485 3.81225-4.485 2.18643 0 2.71903 1.2334 2.71903 3.8403v8.101h2.35462v-8.8298c0-3.3077-1.51369-5.0176-4.4009-5.0176-2.01825 0-3.47587 1.1213-4.42893 2.5228h-.0561"/></g><g fill-rule="evenodd" stroke-width="3.868" color="#000" display="inline" text-anchor="start" transform="translate(-556.635 -698.762)" visibility="visible" writing-mode="lr-tb"><path d="M746.51855 1098.7256c-.75464-.019-1.49809.4529-1.79306 1.1382-.29499.6853-.12281 1.5407.4153 2.0629l16.19626 16.2475c.52235.5232 1.37287.6967 2.06271.4206.68985-.276 1.1775-.985 1.18266-1.7192v-16.2776c.002-.9808-.90388-1.8741-1.89823-1.8724h-16.16564z" style="text-indent:0;text-align:start;text-transform:none;block-progression:tb;marker:none" fill="#000" display="inline" overflow="visible" text-decoration="none"/><path d="M701.98449 1098.725c-.99608.014-1.89207.9251-1.89033 1.9213v74.1569c-.002.9961.89428 1.9067 1.89033 1.9212h60.67658c1.00641 0 1.92292-.9148 1.92132-1.9212v-47.7542c.003-.504-.20246-1.0061-.5578-1.3635l-26.24773-26.3717c-.35229-.3665-.85519-.5837-1.36352-.5888h-34.42885z" style="text-indent:0;text-align:start;text-transform:none;block-progression:tb;marker:none" fill="#fff" display="inline" overflow="visible" text-decoration="none"/><path d="M701.98449 1098.725a1.91816 1.91816 0 0 0-1.89033 1.9213v74.1569a1.91816 1.91816 0 0 0 1.89033 1.9212h60.67658a1.91816 1.91816 0 0 0 1.92132-1.9212v-47.7542a1.91816 1.91816 0 0 0-.5578-1.3635l-26.24773-26.3717a1.91816 1.91816 0 0 0-1.36352-.5888h-34.42885zm1.92133 3.8426h31.7018l25.13213 25.2562v45.058h-56.83393v-70.3142z" style="text-indent:0;text-align:start;text-transform:none;block-progression:tb;marker:none" fill="#000" display="inline" overflow="visible" text-decoration="none"/></g></g></svg>