<?xml version="1.0" encoding="utf-8"?>
<!-- Generator: Adobe Illustrator 26.0.1, SVG Export Plug-In . SVG Version: 6.00 Build 0)  -->
<svg version="1.1" xmlns="http://www.w3.org/2000/svg" xmlns:xlink="http://www.w3.org/1999/xlink" x="0px" y="0px"
	 viewBox="0 0 850.39 425.2" style="enable-background:new 0 0 850.39 425.2;" xml:space="preserve">
<style type="text/css">
	.st0{fill:#63B9E9;}
	.st1{clip-path:url(#SVGID_00000170995876506072790020000006429546525427024536_);}
	.st2{fill:url(#SVGID_00000173129082100883634390000002988226254323314608_);}
	.st3{clip-path:url(#SVGID_00000104692390407490096870000010400393367653953441_);fill:#63B9E9;}
	.st4{clip-path:url(#SVGID_00000104692390407490096870000010400393367653953441_);}
	.st5{fill:url(#SVGID_00000141415502098696016240000007986300127251549086_);}
	.st6{fill:#008FD2;}
	.st7{fill:url(#SVGID_00000109748281515948251400000013114463206144549786_);}
	.st8{fill:url(#SVGID_00000146497979457067125360000002669100433247094400_);}
	.st9{fill:#3C3C3B;}
</style>
<g id="Livello_3">
</g>
<g id="Livello_8">
</g>
<g id="Livello_4">
</g>
<g id="Livello_6">
	<g>
		<path class="st0" d="M617.17,111.29c-7.46-7.46-19.56-7.46-27.03,0l-86.8,86.8V38.97h-38.23v205.23v0.08v39.77
			c0,10.55,8.56,19.11,19.11,19.11c10.55,0,19.11-8.56,19.11-19.11v-31.9l20.69-20.69l66.11,66.11c3.73,3.73,8.62,5.6,13.51,5.6
			c4.89,0,9.78-1.87,13.51-5.6c7.47-7.46,7.47-19.56,0-27.03l-66.1-66.11l66.11-66.11C624.64,130.85,624.64,118.75,617.17,111.29"/>
		<path class="st0" d="M120.27,264.66c-22.39,0-40.6-18.21-40.6-40.6v-19.9V38.97H41.44v165.19v19.9
			c0,43.47,35.36,78.83,78.83,78.83c10.55,0,19.11-8.56,19.11-19.11S130.82,264.66,120.27,264.66"/>
		<path class="st0" d="M754.43,185.04h-39.81c-11.41,0-20.7-9.28-20.7-20.7c0-11.42,9.28-20.7,20.7-20.7h19.91h50.49
			c10.55,0,19.11-8.56,19.11-19.11c0-10.55-8.56-19.11-19.11-19.11h-50.49h-19.91c-32.49,0-58.92,26.44-58.92,58.92
			s26.44,58.92,58.92,58.92h39.81c11.41,0,20.7,9.28,20.7,20.7c0,11.41-9.28,20.7-20.7,20.7h-19.9h-50.51
			c-10.55,0-19.11,8.56-19.11,19.11s8.56,19.11,19.11,19.11h50.51h19.9c32.49,0,58.92-26.44,58.92-58.92
			C813.35,211.48,786.92,185.04,754.43,185.04"/>
		<g>
			<defs>
				<path id="SVGID_1_" d="M201.3,105.42c-10.55,0-19.11,8.56-19.11,19.11v79.62v4.51v0.28v93.96h38.22v-93.96h0v-4.79v-79.62
					C220.42,113.98,211.86,105.42,201.3,105.42z"/>
			</defs>
			<clipPath id="SVGID_00000155133289794721575990000008754176430514823591_">
				<use xlink:href="#SVGID_1_"  style="overflow:visible;"/>
			</clipPath>
			<g style="clip-path:url(#SVGID_00000155133289794721575990000008754176430514823591_);">
				<rect x="182.19" y="208.66" class="st0" width="38.22" height="94.25"/>
			</g>
			<g style="clip-path:url(#SVGID_00000155133289794721575990000008754176430514823591_);">
				
					<linearGradient id="SVGID_00000050658263152686578520000013710815448072457129_" gradientUnits="userSpaceOnUse" x1="617.9186" y1="-1057.7202" x2="617.9186" y2="-954.1971" gradientTransform="matrix(-1 0 0 -1 819.2224 -848.7745)">
					<stop  offset="0" style="stop-color:#63B9E9"/>
					<stop  offset="0.0896" style="stop-color:#63B9E9;stop-opacity:0.9104"/>
					<stop  offset="1" style="stop-color:#63B9E9;stop-opacity:0"/>
				</linearGradient>
				<path style="fill:url(#SVGID_00000050658263152686578520000013710815448072457129_);" d="M220.42,208.95v-4.79v-79.62
					c0-10.55-8.56-19.11-19.11-19.11c-10.55,0-19.11,8.56-19.11,19.11v79.62v4.79H220.42z"/>
			</g>
		</g>
		<g>
			<defs>
				<path id="SVGID_00000144312693440145088940000016210937753699463300_" d="M342.77,105.45c-43.47,0-78.83,35.36-78.83,78.83
					v19.91v98.73h38.22v-98.73v-19.91c0-22.39,18.21-40.6,40.6-40.6c22.39,0,40.6,18.21,40.6,40.6v15.09v0.31v4.48v79.62
					c0,10.55,8.56,19.11,19.11,19.11c10.55,0,19.11-8.56,19.11-19.11v-79.62v-4.48v-0.31v-15.09
					C421.59,140.81,386.23,105.45,342.77,105.45z"/>
			</defs>
			<clipPath id="SVGID_00000160170238556925548240000002567879875413361083_">
				<use xlink:href="#SVGID_00000144312693440145088940000016210937753699463300_"  style="overflow:visible;"/>
			</clipPath>
			<path style="clip-path:url(#SVGID_00000160170238556925548240000002567879875413361083_);fill:#63B9E9;" d="M342.77,105.45
				c-43.47,0-78.83,35.36-78.83,78.83v19.91v98.73h38.22v-98.73v-19.91c0-22.39,18.21-40.6,40.6-40.6c22.39,0,40.6,18.21,40.6,40.6
				v15.4h38.23v-15.4C421.59,140.81,386.23,105.45,342.77,105.45z"/>
			<g style="clip-path:url(#SVGID_00000160170238556925548240000002567879875413361083_);">
				
					<linearGradient id="SVGID_00000063615401551123467870000017868402421716858006_" gradientUnits="userSpaceOnUse" x1="402.4811" y1="199.3654" x2="402.4811" y2="302.8886">
					<stop  offset="0" style="stop-color:#63B9E9"/>
					<stop  offset="0.0896" style="stop-color:#63B9E9;stop-opacity:0.9104"/>
					<stop  offset="1" style="stop-color:#63B9E9;stop-opacity:0"/>
				</linearGradient>
				<path style="fill:url(#SVGID_00000063615401551123467870000017868402421716858006_);" d="M383.37,199.37v4.79v79.62
					c0,10.55,8.56,19.11,19.11,19.11c10.55,0,19.11-8.56,19.11-19.11v-79.62v-4.79H383.37z"/>
			</g>
		</g>
		<path class="st6" d="M755.79,302.89c10.56,0,19.11-8.56,19.11-19.11c0-10.56-8.56-19.11-19.11-19.11
			c-10.56,0-19.11,8.56-19.11,19.11C736.67,294.33,745.23,302.89,755.79,302.89"/>
		<rect x="41.44" y="38.97" class="st6" width="38.22" height="38.22"/>
		<path class="st6" d="M713.03,143.65c10.56,0,19.11-8.56,19.11-19.11c0-10.56-8.56-19.11-19.11-19.11
			c-10.56,0-19.11,8.56-19.11,19.11C693.92,135.09,702.48,143.65,713.03,143.65"/>
		<rect x="263.94" y="264.69" class="st6" width="38.23" height="38.22"/>
		<g>
			<path class="st6" d="M484.23,303.16c10.56,0,19.11-8.56,19.11-19.11c0-10.55-8.56-19.11-19.11-19.11s-19.11,8.56-19.11,19.11
				C465.11,294.6,473.67,303.16,484.23,303.16"/>
			<path class="st6" d="M524.08,223.5c10.56,0,19.11-8.56,19.11-19.11c0-10.56-8.56-19.11-19.11-19.11
				c-10.56,0-19.11,8.56-19.11,19.11C504.96,214.94,513.52,223.5,524.08,223.5"/>
		</g>
		<rect x="182.19" y="264.66" class="st6" width="38.23" height="38.22"/>
		<g>
			
				<linearGradient id="SVGID_00000043425942603696396290000000306707144457896365_" gradientUnits="userSpaceOnUse" x1="201.3032" y1="143.6478" x2="201.3032" y2="105.4228">
				<stop  offset="0" style="stop-color:#008FD2"/>
				<stop  offset="0.2319" style="stop-color:#0091D3"/>
				<stop  offset="0.472" style="stop-color:#0098D7"/>
				<stop  offset="0.7161" style="stop-color:#20A4DE"/>
				<stop  offset="0.9614" style="stop-color:#5BB5E7"/>
				<stop  offset="1" style="stop-color:#63B9E9"/>
			</linearGradient>
			<path style="fill:url(#SVGID_00000043425942603696396290000000306707144457896365_);" d="M201.3,143.65
				c10.56,0,19.11-8.56,19.11-19.11c0-10.56-8.56-19.11-19.11-19.11s-19.11,8.56-19.11,19.11
				C182.19,135.09,190.75,143.65,201.3,143.65"/>
		</g>
		<g>
			
				<linearGradient id="SVGID_00000137813855805787328370000011829049497051507610_" gradientUnits="userSpaceOnUse" x1="402.4811" y1="302.8886" x2="402.4811" y2="264.6636">
				<stop  offset="0" style="stop-color:#008FD2"/>
				<stop  offset="0.2319" style="stop-color:#0091D3"/>
				<stop  offset="0.472" style="stop-color:#0098D7"/>
				<stop  offset="0.7161" style="stop-color:#20A4DE"/>
				<stop  offset="0.9614" style="stop-color:#5BB5E7"/>
				<stop  offset="1" style="stop-color:#63B9E9"/>
			</linearGradient>
			<path style="fill:url(#SVGID_00000137813855805787328370000011829049497051507610_);" d="M402.48,302.89
				c10.56,0,19.11-8.56,19.11-19.11c0-10.56-8.56-19.11-19.11-19.11s-19.11,8.56-19.11,19.11
				C383.37,294.33,391.93,302.89,402.48,302.89"/>
		</g>
		<rect x="465.12" y="38.97" class="st6" width="38.23" height="38.23"/>
		<path class="st6" d="M60.55,242.88c10.56,0,19.11-8.56,19.11-19.11c0-10.56-8.56-19.11-19.11-19.11s-19.11,8.56-19.11,19.11
			C41.44,234.32,49.99,242.88,60.55,242.88"/>
		<path class="st6" d="M403.1,71.64v-3.69h-13.21v-8.15h11.27v-3.65h-11.27v-7.92h13.21v-3.69h-17.32v27.11H403.1z M374.67,71.64
			V44.53h-4.11v19.04l-12.53-19.04h-3.77v27.11h4.11V52.56l12.53,19.08H374.67z M340.03,58.08c0,5.44-0.27,6.97-1.6,8.41
			c-0.95,1.03-2.44,1.68-4.04,1.68s-3.08-0.65-4.04-1.68c-1.33-1.45-1.6-2.97-1.6-8.41c0-5.45,0.27-6.97,1.6-8.42
			c0.95-1.03,2.44-1.68,4.04-1.68s3.08,0.65,4.04,1.68C339.76,51.11,340.03,52.64,340.03,58.08 M344.14,58.08
			c0-5.22,0.08-8.23-2.59-10.89c-1.87-1.87-4.26-2.89-7.16-2.89c-2.89,0-5.26,1.03-7.12,2.89c-2.67,2.67-2.63,5.67-2.63,10.89
			c0,5.22-0.04,8.22,2.63,10.89c1.86,1.86,4.23,2.89,7.12,2.89c2.89,0,5.29-1.03,7.16-2.89C344.21,66.3,344.14,63.3,344.14,58.08
			 M314.52,44.53h-4.11v27.11h4.11V44.53z M301.02,71.64v-3.69h-12.6l12.6-20.07v-3.35h-16.83v3.69h11.99l-12.53,19.88v3.54H301.02z
			 M270.11,62.69h-8.34l4.23-12.03L270.11,62.69z M277.49,71.64l-9.94-27.11h-3.31l-9.94,27.11h4.38l1.87-5.45h10.7l1.87,5.45
			H277.49z M243.69,57.89c0,3.73-0.04,6.66-1.45,8.23c-1.14,1.26-2.67,1.83-4.61,1.83h-4.99V48.22h4.99c1.94,0,3.46,0.57,4.61,1.83
			C243.65,51.61,243.69,54.16,243.69,57.89 M247.8,57.89c0-3.92,0.19-7.88-2.74-10.81c-1.71-1.71-4.19-2.55-7.01-2.55h-9.52v27.11
			h9.52c2.82,0,5.29-0.84,7.01-2.55C247.99,66.15,247.8,61.81,247.8,57.89 M217.43,71.64V44.53h-4.11v19.04l-12.53-19.04h-3.77
			v27.11h4.11V52.56l12.53,19.08H217.43z M182.79,58.08c0,5.44-0.27,6.97-1.6,8.41c-0.95,1.03-2.44,1.68-4.04,1.68
			s-3.08-0.65-4.04-1.68c-1.33-1.45-1.6-2.97-1.6-8.41c0-5.45,0.27-6.97,1.6-8.42c0.95-1.03,2.44-1.68,4.04-1.68
			s3.08,0.65,4.04,1.68C182.52,51.11,182.79,52.64,182.79,58.08 M186.9,58.08c0-5.22,0.08-8.23-2.59-10.89
			c-1.87-1.87-4.26-2.89-7.16-2.89s-5.26,1.03-7.12,2.89c-2.67,2.67-2.63,5.67-2.63,10.89c0,5.22-0.04,8.22,2.63,10.89
			c1.86,1.86,4.23,2.89,7.12,2.89s5.29-1.03,7.16-2.89C186.98,66.3,186.9,63.3,186.9,58.08 M160.18,48.22v-3.69h-17.32v27.11h4.11
			V60.17h11.27v-3.69h-11.27v-8.26H160.18z"/>
		<path class="st9" d="M779.4,385.65h3.71v-27.66l21.79,27.66h3.03v-33.74h-3.71v27.04l-21.26-27.04h-3.56V385.65z M749.37,382.72
			c-7.71,0-13.31-6.27-13.31-13.93v-0.1c0-7.67,5.5-13.84,13.21-13.84c7.71,0,13.31,6.27,13.31,13.93v0.1
			C762.58,376.55,757.08,382.72,749.37,382.72 M749.27,386.23c10.27,0,17.25-8.14,17.25-17.45v-0.1c0-9.3-6.89-17.35-17.16-17.35
			c-10.27,0-17.25,8.14-17.25,17.45v0.1C732.12,378.19,739,386.23,749.27,386.23 M715.1,385.65h3.8v-33.74h-3.8V385.65z
			 M687.63,385.65h3.85v-30.22h11.33v-3.51H676.3v3.51h11.33V385.65z M646.65,373.27l7.71-17.17l7.66,17.17H646.65z M637.25,385.65
			h3.9l4-8.92h18.36l3.95,8.92h4.1l-15.37-33.98h-3.57L637.25,385.65z M615.61,385.89h3.37l14.51-33.98h-4.1l-12.05,29.06l-12-29.06
			h-4.24L615.61,385.89z M575.93,382.72c-7.71,0-13.31-6.27-13.31-13.93v-0.1c0-7.67,5.5-13.84,13.21-13.84s13.31,6.27,13.31,13.93
			v0.1C589.14,376.55,583.65,382.72,575.93,382.72 M575.84,386.23c10.27,0,17.25-8.14,17.25-17.45v-0.1
			c0-9.3-6.89-17.35-17.16-17.35c-10.27,0-17.25,8.14-17.25,17.45v0.1C558.68,378.19,565.57,386.23,575.84,386.23 M517.27,385.65
			h3.71v-27.66l21.79,27.66h3.03v-33.74h-3.71v27.04l-21.26-27.04h-3.56V385.65z M474.37,385.65h3.7v-27.66l21.79,27.66h3.03v-33.74
			h-3.71v27.04l-21.26-27.04h-3.56V385.65z M455.86,385.65h3.8v-33.74h-3.8V385.65z M400.38,369.12v-13.7h10.42
			c5.45,0,8.63,2.51,8.63,6.65v0.1c0,4.34-3.62,6.94-8.68,6.94H400.38z M396.57,385.65h3.8v-13.11h9.64l9.79,13.11h4.67
			l-10.36-13.78c5.3-0.96,9.15-4.24,9.15-9.83v-0.1c0-2.65-0.96-5.02-2.6-6.65c-2.12-2.12-5.45-3.37-9.59-3.37h-14.51V385.65z
			 M366.54,382.72c-7.71,0-13.31-6.27-13.31-13.93v-0.1c0-7.67,5.5-13.84,13.21-13.84s13.31,6.27,13.31,13.93v0.1
			C379.75,376.55,374.26,382.72,366.54,382.72 M366.44,386.23c10.27,0,17.25-8.14,17.25-17.45v-0.1c0-9.3-6.89-17.35-17.16-17.35
			c-10.27,0-17.25,8.14-17.25,17.45v0.1C349.29,378.19,356.17,386.23,366.44,386.23 M315.06,385.65h3.8v-14.7h18.27v-3.46h-18.27
			v-12.06h20.44v-3.51h-24.24V385.65z M252.88,385.65h3.71v-27.66l21.79,27.66h3.03v-33.74h-3.7v27.04l-21.26-27.04h-3.56V385.65z
			 M222.85,382.72c-7.71,0-13.31-6.27-13.31-13.93v-0.1c0-7.67,5.5-13.84,13.21-13.84c7.71,0,13.31,6.27,13.31,13.93v0.1
			C236.06,376.55,230.56,382.72,222.85,382.72 M222.75,386.23c10.27,0,17.25-8.14,17.25-17.45v-0.1c0-9.3-6.89-17.35-17.16-17.35
			c-10.27,0-17.25,8.14-17.25,17.45v0.1C205.59,378.19,212.48,386.23,222.75,386.23 M188.58,385.65h3.8v-33.74h-3.8V385.65z
			 M164.14,386.13c6.7,0,11.52-3.75,11.52-9.54v-0.1c0-5.16-3.47-7.91-10.99-9.55c-7.43-1.59-9.16-3.38-9.16-6.56v-0.1
			c0-3.04,2.8-5.45,7.18-5.45c3.47,0,6.61,1.11,9.74,3.66l2.21-2.94c-3.42-2.74-6.94-4.14-11.86-4.14c-6.41,0-11.08,3.9-11.08,9.2
			v0.1c0,5.54,3.56,8.05,11.32,9.74c7.09,1.5,8.78,3.28,8.78,6.41v0.1c0,3.33-2.99,5.74-7.52,5.74c-4.68,0-8.05-1.59-11.57-4.77
			l-2.36,2.8C154.4,384.35,158.78,386.13,164.14,386.13 M128.95,386.13c6.7,0,11.52-3.75,11.52-9.54v-0.1
			c0-5.16-3.46-7.91-10.99-9.55c-7.43-1.59-9.16-3.38-9.16-6.56v-0.1c0-3.04,2.8-5.45,7.18-5.45c3.47,0,6.61,1.11,9.74,3.66
			l2.21-2.94c-3.42-2.74-6.94-4.14-11.86-4.14c-6.41,0-11.08,3.9-11.08,9.2v0.1c0,5.54,3.56,8.05,11.33,9.74
			c7.09,1.5,8.78,3.28,8.78,6.41v0.1c0,3.33-2.99,5.74-7.52,5.74c-4.68,0-8.05-1.59-11.57-4.77l-2.36,2.8
			C119.21,384.35,123.6,386.13,128.95,386.13 M81.66,373.27l7.71-17.17l7.66,17.17H81.66z M72.26,385.65h3.9l4-8.92h18.36l3.95,8.92
			h4.1L91.2,351.68h-3.57L72.26,385.65z M45.31,370.28v-14.85h8.53c5.45,0,9.06,2.51,9.06,7.33v0.1c0,4.44-3.66,7.43-9.26,7.43
			H45.31z M41.51,385.65h3.8v-11.91h8.2c7.19,0,13.25-3.75,13.25-11.04v-0.1c0-6.65-5.01-10.7-12.63-10.7H41.51V385.65z"/>
	</g>
</g>
</svg>
