<?xml version="1.0" encoding="UTF-8"?>
<svg id="Logo" xmlns="http://www.w3.org/2000/svg" version="1.1" viewBox="0 0 189.64 51.94">
  <defs>
    <style>
      .cls-1 {
        fill: none;
      }

      .cls-1, .cls-2, .cls-3 {
        stroke-width: 0px;
      }

      .cls-2 {
        fill: #1a1a18;
      }

      .cls-3 {
        fill: #fff;
      }
    </style>
  </defs>
  <g>
    <g>
      <path class="cls-2" d="M30.99,12.44l-5.28,5.28,8.89,8.89-8.89,8.9,5.28,5.28,14.17-14.18-14.17-14.17ZM27.37,35.51l8.89-8.9-8.89-8.89,3.62-3.62,12.51,12.51-12.51,12.51-3.62-3.61Z"/>
      <polygon class="cls-3" points="43.5 26.61 30.99 39.12 27.37 35.51 36.26 26.61 27.37 17.72 30.99 14.1 43.5 26.61"/>
      <path class="cls-2" d="M28.37,24.39l-.41-.41-.42-.42-6.67-6.67-9.72,9.72,9.72,9.73,4.45-4.45.83-.83,4.44-4.45-2.22-2.22ZM26.71,24.39l-3.61,3.61-1.4-1.39,3.61-3.61,1.4,1.39ZM20.87,34.67l-8.06-8.06,8.06-8.05,3.61,3.61-4.44,4.44,4.45,4.45-3.62,3.61ZM25.32,30.23l-1.39-1.39,1.81-1.81,1.8-1.81,1.39,1.39-3.61,3.62Z"/>
      <polygon class="cls-3" points="28.93 26.61 25.32 30.23 23.93 28.84 25.74 27.03 27.54 25.22 28.93 26.61"/>
      <polygon class="cls-3" points="26.71 24.39 23.1 28 21.7 26.61 25.31 23 26.71 24.39"/>
      <polygon class="cls-3" points="24.49 31.06 20.87 34.67 12.81 26.61 20.87 18.56 24.48 22.17 20.04 26.61 24.49 31.06"/>
    </g>
    <polygon class="cls-2" points="56.51 19.91 59.61 19.91 59.61 30.56 64.59 30.56 64.59 33.32 56.51 33.32 56.51 19.91"/>
    <path class="cls-2" d="M70.09,28.78v-8.87h3.08v8.68c0,1.53.92,2.39,2.32,2.39s2.32-.86,2.32-2.39v-8.68h3.1v8.87c0,3.12-2.13,4.88-5.42,4.88s-5.4-1.76-5.4-4.88"/>
    <path class="cls-2" d="M94.02,29.2c0-1-.75-1.65-1.86-1.65h-1.93v3.41h1.93c1.15,0,1.86-.65,1.86-1.76M90.22,22.15v3.26h1.72c1.19,0,1.9-.61,1.9-1.63s-.69-1.63-1.9-1.63h-1.72ZM97.14,29.6c0,2.3-1.63,3.72-4.29,3.72h-5.73v-13.41h5.52c2.66,0,4.31,1.32,4.31,3.49,0,1.74-1.02,2.78-2.57,3.07,1.55.15,2.76,1.28,2.76,3.14"/>
    <rect class="cls-2" x="103.47" y="19.91" width="3.1" height="13.41"/>
    <path class="cls-2" d="M112.33,28.93h3.1c0,1.46.82,2.32,2.18,2.32,1.15,0,1.8-.54,1.8-1.48,0-.82-.42-1.24-1.63-1.72l-2.41-.94c-1.8-.67-2.72-1.91-2.72-3.66,0-2.36,1.86-3.93,4.77-3.93s4.9,1.67,4.9,4.25h-3.1c0-1.25-.65-1.93-1.86-1.93-1.02,0-1.61.52-1.61,1.32,0,.75.52,1.21,1.84,1.74l2.22.88c1.86.73,2.7,1.97,2.7,3.77,0,2.51-1.95,4.14-4.92,4.14-3.29,0-5.27-1.76-5.27-4.77"/>
    <polygon class="cls-2" points="130.06 33.32 130.06 19.91 137.55 19.91 137.55 21.08 131.35 21.08 131.35 26.08 137.55 26.08 137.55 27.25 131.35 27.25 131.35 32.15 137.55 32.15 137.55 33.32 130.06 33.32"/>
    <path class="cls-2" d="M145.64,32.15h2.62c3.75,0,5.65-2.74,5.65-5.54s-1.9-5.54-5.65-5.54h-2.62v11.07ZM144.36,33.32v-13.41h4c4.44,0,6.86,3.27,6.86,6.7s-2.41,6.7-6.86,6.7h-4Z"/>
    <path class="cls-2" d="M164.64,21.66l2.61,8.08h-5.19l2.59-8.08ZM164.07,19.91l-4.56,13.41h1.4l.77-2.41h5.94l.79,2.41h1.4l-4.56-13.41h-1.17Z"/>
  </g>
  <rect class="cls-1" x="-.23" y="1.11" width="181.42" height="51.02" transform="translate(180.95 53.24) rotate(180)"/>
</svg>