<?xml version="1.0" standalone="no"?>
<!DOCTYPE svg PUBLIC "-//W3C//DTD SVG 20010904//EN"
 "http://www.w3.org/TR/2001/REC-SVG-20010904/DTD/svg10.dtd">
<svg version="1.0" xmlns="http://www.w3.org/2000/svg"
 width="358.000000pt" height="147.000000pt" viewBox="0 0 358.000000 147.000000"
 preserveAspectRatio="xMidYMid meet">

<g transform="translate(0.000000,147.000000) scale(0.100000,-0.100000)"
fill="#000000" stroke="none">
<path d="M448 1117 c4 -52 5 -54 30 -52 43 3 43 4 40 32 -2 19 -10 29 -23 31
-15 2 -17 1 -7 -6 16 -11 12 -44 -5 -50 -9 -2 -13 11 -13 47 0 34 -4 51 -12
51 -9 0 -12 -16 -10 -53z"/>
<path d="M890 1115 c0 -37 4 -55 13 -55 7 0 11 12 10 32 -1 18 -2 43 -2 56 -1
12 -5 22 -11 22 -5 0 -10 -25 -10 -55z"/>
<path d="M1120 1115 c0 -42 4 -55 15 -55 9 0 12 6 9 15 -4 8 -1 15 5 15 7 0
14 -7 17 -15 4 -8 13 -15 21 -15 14 0 14 3 0 23 -14 21 -13 24 1 35 16 10 16
11 1 11 -9 1 -19 -6 -23 -14 -10 -27 -26 -15 -26 20 0 19 -4 35 -10 35 -5 0
-10 -25 -10 -55z"/>
<path d="M1215 1115 c0 -42 3 -55 15 -55 12 0 14 11 12 55 -5 74 -27 74 -27 0z"/>
<path d="M374 1145 c3 -8 9 -22 12 -30 4 -10 0 -15 -10 -15 -10 0 -13 6 -9 18
9 26 -2 12 -20 -25 -13 -28 -13 -33 -1 -33 8 0 13 6 12 12 -2 7 8 14 21 16 18
3 22 0 18 -12 -5 -11 -1 -16 12 -16 18 0 18 2 3 50 -9 29 -22 50 -30 50 -9 0
-12 -6 -8 -15z"/>
<path d="M817 1153 c-14 -13 -6 -42 13 -48 11 -3 20 -13 20 -22 0 -10 -6 -14
-20 -10 -11 3 -20 1 -20 -5 0 -5 12 -8 27 -6 35 4 43 34 14 54 -12 9 -21 19
-21 25 0 14 28 11 33 -3 3 -8 6 -6 6 5 1 11 -6 17 -22 17 -13 0 -27 -3 -30 -7z"/>
<path d="M545 1095 c0 -22 5 -35 13 -35 9 0 12 11 10 32 -4 43 -23 46 -23 3z"/>
<path d="M585 1120 c3 -5 8 -10 11 -10 2 0 4 5 4 10 0 6 -5 10 -11 10 -5 0 -7
-4 -4 -10z"/>
<path d="M620 1119 c-12 -8 -10 -9 8 -4 28 8 30 -11 1 -20 -21 -7 -22 -26 -1
-33 7 -2 10 2 6 12 -3 9 -2 16 4 16 5 0 12 -7 16 -15 10 -28 22 -15 18 20 -4
37 -22 45 -52 24z"/>
<path d="M700 1093 c0 -20 5 -33 13 -33 7 0 13 12 12 28 0 20 4 26 18 24 9 -2
17 2 17 7 0 5 -13 9 -30 9 -27 -1 -30 -4 -30 -35z"/>
<path d="M938 1095 c2 -19 10 -35 17 -35 9 0 11 9 6 32 -9 44 -28 47 -23 3z"/>
<path d="M995 1121 c-3 -6 0 -8 8 -5 8 3 18 1 21 -4 3 -6 -6 -13 -20 -16 -35
-9 -25 -31 15 -33 30 -1 32 0 29 30 -2 24 -8 33 -25 35 -11 2 -24 -2 -28 -7z
m30 -41 c-3 -5 -10 -10 -16 -10 -5 0 -9 5 -9 10 0 6 7 10 16 10 8 0 12 -4 9
-10z"/>
<path d="M1075 1095 c0 -21 5 -35 13 -35 7 0 12 14 12 35 0 21 -5 35 -12 35
-8 0 -13 -14 -13 -35z"/>
<path d="M1259 1116 c7 -9 11 -25 8 -36 -3 -13 0 -20 10 -20 23 0 13 64 -12
69 -17 3 -18 1 -6 -13z"/>
<path d="M1057 993 c-10 -9 -8 -83 2 -83 4 0 6 11 3 25 -3 17 0 25 9 25 11 0
11 2 -1 10 -13 9 -13 11 0 20 8 5 10 10 4 10 -6 0 -14 -3 -17 -7z"/>
<path d="M1181 958 c-1 -27 3 -48 7 -48 4 0 6 17 4 38 -5 58 -10 62 -11 10z"/>
<path d="M1558 955 c2 -25 7 -45 11 -45 3 0 5 20 3 45 -2 25 -7 45 -11 45 -3
0 -5 -20 -3 -45z"/>
<path d="M1776 986 c3 -8 -3 -16 -16 -19 -25 -6 -25 -47 0 -55 13 -5 13 -3 2
11 -8 9 -11 21 -7 27 11 18 25 11 25 -15 0 -14 3 -25 8 -25 4 0 6 20 4 45 -2
25 -8 45 -13 45 -4 0 -6 -6 -3 -14z"/>
<path d="M1905 955 c0 -25 3 -45 8 -45 4 0 7 20 7 45 0 25 -3 45 -7 45 -5 0
-8 -20 -8 -45z"/>
<path d="M340 951 c0 -32 4 -41 18 -41 30 0 44 16 40 46 -2 23 -9 30 -30 32
-27 3 -28 1 -28 -37z m45 -1 c0 -16 -6 -26 -17 -28 -14 -3 -18 3 -18 28 0 25
4 31 18 28 11 -2 17 -12 17 -28z"/>
<path d="M918 978 c-6 -17 3 -68 12 -68 5 0 6 9 3 21 -3 12 -1 24 4 28 7 4 6
10 -2 18 -10 9 -15 9 -17 1z"/>
<path d="M1115 950 c0 -36 2 -40 25 -39 17 1 19 3 8 6 -21 5 -24 29 -5 36 10
4 10 6 0 6 -19 1 -16 19 5 24 11 3 9 5 -8 6 -23 1 -25 -3 -25 -39z"/>
<path d="M1840 950 c0 -36 3 -40 25 -40 14 0 25 4 25 9 0 5 -9 7 -20 4 -14 -4
-20 0 -20 10 0 9 8 18 18 20 16 4 16 5 0 6 -10 0 -18 6 -18 12 0 6 9 9 20 6
11 -3 20 -1 20 4 0 5 -11 9 -25 9 -22 0 -25 -4 -25 -40z"/>
<path d="M2050 980 c0 -5 -11 -10 -25 -10 -14 0 -25 -4 -25 -9 0 -4 11 -7 25
-6 21 3 25 -1 25 -21 0 -13 4 -24 9 -24 5 0 7 9 4 21 -3 12 -1 24 4 28 7 4 6
11 -3 19 -8 7 -14 8 -14 2z"/>
<path d="M2435 950 c0 -37 2 -40 28 -40 15 0 27 4 27 9 0 5 -9 7 -20 4 -14 -4
-20 0 -20 10 0 9 8 18 18 20 16 4 16 5 0 6 -10 0 -18 6 -18 12 0 6 9 9 20 6
11 -3 20 -1 20 4 0 5 -12 9 -27 9 -26 0 -28 -3 -28 -40z"/>
<path d="M652 948 c2 -17 9 -33 16 -34 7 -1 8 0 2 3 -14 7 -13 40 2 45 7 3 5
7 -6 11 -15 6 -17 2 -14 -25z"/>
<path d="M427 963 c-11 -10 -8 -41 4 -49 6 -3 16 -1 22 5 9 9 8 11 -5 6 -11
-4 -18 -2 -18 4 0 6 7 11 15 11 8 0 15 7 15 15 0 15 -21 21 -33 8z"/>
<path d="M475 925 c0 -29 4 -45 12 -45 7 0 10 6 7 14 -3 8 3 16 16 19 25 6 25
47 0 55 -13 5 -13 3 -2 -11 8 -9 11 -21 7 -27 -11 -18 -25 -11 -25 15 0 14 -3
25 -7 25 -5 0 -8 -20 -8 -45z"/>
<path d="M545 960 c-3 -6 1 -7 9 -4 9 3 16 2 16 -4 0 -5 -7 -12 -15 -16 -23
-9 -18 -26 8 -24 19 2 22 7 19 30 -4 27 -25 38 -37 18z"/>
<path d="M604 963 c10 -11 36 -12 36 -2 0 5 -10 9 -22 9 -12 0 -18 -3 -14 -7z"/>
<path d="M694 961 c4 -5 14 -7 23 -4 13 5 15 1 11 -20 -3 -15 -1 -27 4 -27 5
0 8 12 6 28 -2 20 -9 28 -27 30 -14 2 -21 0 -17 -7z"/>
<path d="M758 940 c2 -16 7 -30 11 -30 4 0 6 14 3 30 -2 17 -7 30 -11 30 -4 0
-6 -13 -3 -30z"/>
<path d="M794 955 c-9 -23 3 -45 23 -44 17 1 17 2 1 6 -24 6 -23 23 2 23 13 0
18 5 14 15 -4 8 -13 15 -20 15 -8 0 -17 -7 -20 -15z"/>
<path d="M854 961 c4 -5 14 -7 23 -4 13 5 15 1 11 -20 -3 -15 -1 -27 4 -27 5
0 8 12 6 28 -2 20 -9 28 -27 30 -14 2 -21 0 -17 -7z"/>
<path d="M984 956 c-9 -24 4 -48 23 -44 12 2 18 12 18 28 0 29 -32 41 -41 16z
m36 -16 c0 -11 -4 -20 -9 -20 -14 0 -23 18 -16 30 10 17 25 11 25 -10z"/>
<path d="M1214 956 c-9 -23 3 -46 23 -46 15 0 15 2 -3 15 -18 14 -18 14 4 15
14 0 22 5 20 13 -7 18 -37 21 -44 3z"/>
<path d="M1274 955 c-8 -20 2 -45 18 -44 10 0 10 2 1 6 -7 2 -13 14 -13 25 0
14 5 18 15 14 8 -3 15 -1 15 4 0 16 -30 11 -36 -5z"/>
<path d="M1328 963 c7 -3 16 -2 19 1 4 3 -2 6 -13 5 -11 0 -14 -3 -6 -6z"/>
<path d="M1365 940 c0 -16 3 -30 8 -30 4 0 7 12 7 26 0 14 4 23 10 19 6 -3 10
-1 10 4 0 6 -8 11 -17 11 -13 0 -18 -8 -18 -30z"/>
<path d="M1415 940 c0 -16 3 -30 8 -30 4 0 7 14 7 30 0 17 -3 30 -7 30 -5 0
-8 -13 -8 -30z"/>
<path d="M1457 963 c-11 -10 -8 -41 4 -49 6 -3 16 -1 22 5 9 9 8 11 -5 6 -14
-6 -18 -2 -18 15 0 16 4 20 15 16 8 -3 15 -1 15 4 0 11 -23 13 -33 3z"/>
<path d="M1505 960 c-3 -6 1 -7 9 -4 9 3 16 2 16 -4 0 -5 -7 -12 -15 -16 -17
-6 -20 -26 -4 -26 5 0 7 5 4 10 -3 6 -1 10 4 10 6 0 11 -4 11 -10 0 -5 4 -10
8 -10 5 0 7 14 4 30 -4 29 -25 40 -37 20z"/>
<path d="M1625 961 c-3 -7 0 -8 9 -5 9 3 16 2 16 -4 0 -5 -7 -12 -15 -16 -17
-6 -20 -26 -4 -26 5 0 7 5 4 10 -3 6 -2 10 4 10 5 0 12 -6 15 -12 3 -7 4 0 3
16 -2 30 -20 45 -32 27z"/>
<path d="M1675 940 c0 -16 3 -30 8 -30 4 0 7 14 7 30 0 17 -3 30 -7 30 -5 0
-8 -13 -8 -30z"/>
<path d="M1708 940 c2 -16 7 -30 11 -30 4 0 6 14 3 30 -2 17 -7 30 -11 30 -4
0 -6 -13 -3 -30z"/>
<path d="M1947 963 c-11 -10 -8 -41 4 -49 6 -3 16 -1 22 5 9 9 8 11 -5 6 -11
-4 -18 -2 -18 4 0 6 7 11 15 11 8 0 15 7 15 15 0 15 -21 21 -33 8z"/>
<path d="M2094 963 c10 -11 36 -12 36 -2 0 5 -10 9 -22 9 -12 0 -18 -3 -14 -7z"/>
<path d="M2144 956 c-9 -24 4 -48 23 -44 12 2 18 12 18 28 0 29 -32 41 -41 16z
m31 -16 c0 -7 -6 -15 -12 -17 -8 -3 -13 4 -13 17 0 13 5 20 13 18 6 -3 12 -11
12 -18z"/>
<path d="M2205 940 c0 -16 3 -30 8 -30 4 0 7 11 7 25 0 14 5 25 10 25 6 0 10
-11 10 -25 0 -14 4 -25 8 -25 5 0 7 14 4 30 -3 23 -10 30 -26 30 -17 0 -21 -6
-21 -30z"/>
<path d="M2305 950 c-8 -24 1 -40 23 -40 13 0 13 2 -4 15 -19 15 -19 15 0 30
17 13 17 15 4 15 -9 0 -19 -9 -23 -20z"/>
<path d="M2360 957 c0 -7 6 -19 13 -26 10 -11 9 -13 -5 -8 -10 4 -18 2 -18 -3
0 -6 9 -10 20 -10 11 0 20 7 20 15 0 8 -4 15 -10 15 -5 0 -10 5 -10 11 0 5 5
7 10 4 6 -3 10 -1 10 4 0 6 -7 11 -15 11 -8 0 -15 -6 -15 -13z"/>
<path d="M2505 940 c0 -16 3 -30 8 -30 4 0 7 11 7 25 0 14 5 25 10 25 6 0 10
-11 10 -25 0 -14 4 -25 8 -25 5 0 7 14 4 30 -3 23 -10 30 -26 30 -17 0 -21 -6
-21 -30z"/>
<path d="M2577 963 c-2 -5 -5 -25 -6 -46 -2 -34 1 -38 20 -35 31 4 35 26 7 37
-15 7 -17 10 -7 10 24 1 32 41 9 41 -11 0 -21 -3 -23 -7z m23 -13 c0 -5 -4
-10 -10 -10 -5 0 -10 5 -10 10 0 6 5 10 10 10 6 0 10 -4 10 -10z m10 -50 c0
-5 -7 -10 -15 -10 -8 0 -15 5 -15 10 0 6 7 10 15 10 8 0 15 -4 15 -10z"/>
<path d="M2665 940 c0 -16 3 -30 8 -30 4 0 7 11 7 25 0 14 5 25 10 25 6 0 10
-11 10 -25 0 -14 4 -25 8 -25 5 0 7 14 4 30 -3 23 -10 30 -26 30 -17 0 -21 -6
-21 -30z"/>
<path d="M2734 955 c-9 -23 3 -45 23 -44 17 1 17 2 1 6 -24 6 -23 23 2 23 13
0 18 5 14 15 -4 8 -13 15 -20 15 -8 0 -17 -7 -20 -15z"/>
<path d="M2797 963 c-11 -10 -8 -41 4 -49 6 -3 16 -1 22 5 9 9 8 11 -5 6 -11
-4 -18 -2 -18 4 0 6 7 11 15 11 8 0 15 7 15 15 0 15 -21 21 -33 8z"/>
<path d="M2850 938 c0 -15 4 -28 8 -28 5 0 8 10 8 21 -1 14 6 23 18 25 14 2
17 -2 13 -22 -2 -13 0 -24 4 -24 5 0 9 14 9 30 0 28 -3 30 -30 28 -26 -2 -30
-6 -30 -30z"/>
<path d="M2934 961 c4 -5 14 -7 23 -4 13 5 15 1 11 -20 -3 -15 -1 -27 4 -27 5
0 8 12 6 28 -2 20 -9 28 -27 30 -14 2 -21 0 -17 -7z"/>
<path d="M3000 940 c0 -24 4 -30 21 -30 12 0 17 -4 14 -11 -4 -6 -13 -8 -21
-5 -8 3 -14 1 -14 -5 0 -14 42 -7 48 9 2 6 -7 16 -20 21 -12 6 -18 10 -11 10
7 1 17 10 23 21 9 18 8 20 -15 20 -21 0 -25 -5 -25 -30z m30 10 c0 -5 -4 -10
-10 -10 -5 0 -10 5 -10 10 0 6 5 10 10 10 6 0 10 -4 10 -10z"/>
<path d="M600 920 c0 -5 5 -10 11 -10 5 0 7 5 4 10 -3 6 -8 10 -11 10 -2 0 -4
-4 -4 -10z"/>
<path d="M690 920 c0 -5 5 -10 11 -10 5 0 7 5 4 10 -3 6 -8 10 -11 10 -2 0 -4
-4 -4 -10z"/>
<path d="M850 920 c0 -5 5 -10 11 -10 5 0 7 5 4 10 -3 6 -8 10 -11 10 -2 0 -4
-4 -4 -10z"/>
<path d="M1330 920 c0 -5 5 -10 11 -10 5 0 7 5 4 10 -3 6 -8 10 -11 10 -2 0
-4 -4 -4 -10z"/>
<path d="M2000 920 c0 -6 7 -10 15 -10 8 0 15 2 15 4 0 2 -7 6 -15 10 -8 3
-15 1 -15 -4z"/>
<path d="M2090 920 c0 -5 5 -10 11 -10 5 0 7 5 4 10 -3 6 -8 10 -11 10 -2 0
-4 -4 -4 -10z"/>
<path d="M2270 920 c0 -5 5 -10 11 -10 5 0 7 5 4 10 -3 6 -8 10 -11 10 -2 0
-4 -4 -4 -10z"/>
<path d="M2630 920 c0 -5 5 -10 11 -10 5 0 7 5 4 10 -3 6 -8 10 -11 10 -2 0
-4 -4 -4 -10z"/>
<path d="M2930 920 c0 -5 5 -10 11 -10 5 0 7 5 4 10 -3 6 -8 10 -11 10 -2 0
-4 -4 -4 -10z"/>
<path d="M721 818 c-1 -27 3 -48 7 -48 4 0 6 17 4 38 -5 58 -10 62 -11 10z"/>
<path d="M1315 849 c-11 -18 -11 -79 0 -79 6 0 10 17 9 37 -1 21 3 41 9 45 9
6 9 8 0 8 -6 0 -15 -5 -18 -11z"/>
<path d="M1555 815 c0 -25 3 -45 8 -45 4 0 7 11 7 25 0 14 5 25 10 25 6 0 10
-11 10 -25 0 -14 4 -25 8 -25 5 0 7 14 4 30 -2 17 -10 30 -18 30 -8 0 -14 7
-14 15 0 8 -3 15 -7 15 -5 0 -8 -20 -8 -45z"/>
<path d="M1748 815 c2 -25 7 -45 11 -45 3 0 5 20 3 45 -2 25 -7 45 -11 45 -3
0 -5 -20 -3 -45z"/>
<path d="M340 810 c0 -22 4 -40 8 -40 5 0 7 15 5 33 -4 31 -3 31 9 9 l14 -22
22 30 c13 16 18 30 13 30 -6 0 -16 -10 -22 -22 l-12 -23 -10 23 c-15 34 -27
26 -27 -18z"/>
<path d="M780 810 c0 -22 3 -40 8 -40 4 0 7 18 7 40 0 22 -3 40 -7 40 -5 0 -8
-18 -8 -40z"/>
<path d="M938 838 c-6 -17 3 -68 12 -68 5 0 6 9 3 21 -3 12 -1 24 4 28 7 4 6
10 -2 18 -10 9 -15 9 -17 1z"/>
<path d="M1118 838 c-6 -17 3 -68 12 -68 5 0 6 9 3 21 -3 12 -1 24 4 28 7 4 6
10 -2 18 -10 9 -15 9 -17 1z"/>
<path d="M1378 843 c6 -2 12 -20 12 -39 0 -19 4 -34 8 -34 4 0 6 16 4 37 -4
30 -2 35 12 30 9 -4 16 -2 16 3 0 6 -15 10 -32 9 -18 0 -27 -3 -20 -6z"/>
<path d="M2061 808 l2 -43 7 35 c4 19 8 27 9 18 1 -23 18 -31 25 -12 3 8 2 12
-3 9 -5 -3 -12 4 -16 15 -11 35 -25 22 -24 -22z"/>
<path d="M2119 845 c-7 -6 2 -75 10 -75 3 0 6 18 6 40 0 37 -5 47 -16 35z"/>
<path d="M2177 843 c-11 -10 -8 -25 3 -18 6 3 10 -1 10 -10 0 -11 -5 -15 -15
-11 -8 3 -15 1 -15 -4 0 -6 9 -10 21 -10 11 0 17 -4 14 -10 -3 -5 1 -10 9 -10
13 0 13 4 -1 38 -18 44 -18 44 -26 35z"/>
<path d="M2230 810 c0 -22 4 -40 9 -40 5 0 7 9 4 20 -4 16 0 20 17 20 17 0 21
-4 17 -20 -3 -11 -1 -20 4 -20 5 0 9 18 9 40 0 22 -4 40 -10 40 -5 0 -7 -7 -4
-15 4 -11 0 -15 -16 -15 -16 0 -20 4 -16 15 3 8 1 15 -4 15 -6 0 -10 -18 -10
-40z"/>
<path d="M2315 810 c0 -36 2 -40 25 -39 17 1 19 3 8 6 -21 5 -24 29 -5 36 10
4 10 6 0 6 -19 1 -16 19 5 24 11 3 9 5 -8 6 -23 1 -25 -3 -25 -39z"/>
<path d="M1012 808 c2 -17 9 -33 16 -34 7 -1 8 0 2 3 -14 7 -13 40 2 45 7 3 5
7 -6 11 -15 6 -17 2 -14 -25z"/>
<path d="M444 819 c-4 -7 -3 -9 4 -5 6 3 13 2 16 -3 3 -5 -4 -11 -15 -14 -21
-6 -18 -27 4 -27 7 0 6 4 -3 10 -8 5 -10 10 -4 10 5 0 16 -6 23 -12 10 -11 12
-7 9 16 -3 32 -21 45 -34 25z"/>
<path d="M495 800 c0 -16 3 -30 8 -30 4 0 7 14 7 30 0 17 -3 30 -7 30 -5 0 -8
-13 -8 -30z"/>
<path d="M528 800 c2 -16 7 -30 11 -30 4 0 6 14 3 30 -2 17 -7 30 -11 30 -4 0
-6 -13 -3 -30z"/>
<path d="M595 785 c0 -29 4 -45 12 -45 7 0 10 6 7 14 -3 8 3 16 16 19 25 6 25
47 0 55 -13 5 -13 3 -2 -11 8 -9 11 -21 7 -27 -11 -18 -25 -11 -25 15 0 14 -3
25 -7 25 -5 0 -8 -20 -8 -45z"/>
<path d="M665 820 c-3 -6 1 -7 9 -4 9 3 16 2 16 -4 0 -5 -7 -12 -15 -16 -17
-6 -20 -26 -4 -26 5 0 7 5 4 10 -3 6 -1 10 4 10 6 0 11 -4 11 -10 0 -5 4 -10
8 -10 5 0 7 14 4 30 -4 29 -25 40 -37 20z"/>
<path d="M820 798 c0 -15 4 -28 8 -28 5 0 8 9 8 20 -1 10 4 18 9 17 6 -1 10
-10 9 -19 0 -10 3 -18 8 -18 10 0 10 31 0 46 -4 6 -15 11 -24 11 -13 0 -18 -8
-18 -29z"/>
<path d="M890 817 c0 -7 6 -19 13 -26 10 -11 9 -13 -5 -8 -10 4 -18 2 -18 -3
0 -6 9 -10 20 -10 11 0 20 7 20 15 0 8 -4 15 -10 15 -5 0 -10 5 -10 11 0 5 5
7 10 4 6 -3 10 -1 10 4 0 6 -7 11 -15 11 -8 0 -15 -6 -15 -13z"/>
<path d="M980 800 c0 -16 4 -30 8 -30 5 0 7 14 4 30 -2 17 -6 30 -8 30 -2 0
-4 -13 -4 -30z"/>
<path d="M1053 805 c2 -23 7 -30 25 -31 18 -1 22 4 22 27 0 16 -4 29 -8 29 -5
0 -8 -9 -8 -20 1 -27 -18 -26 -26 2 -6 19 -7 18 -5 -7z"/>
<path d="M1167 823 c-11 -10 -8 -41 4 -49 6 -3 16 -1 22 5 9 9 8 11 -5 6 -11
-4 -18 -2 -18 4 0 6 7 11 15 11 8 0 15 7 15 15 0 15 -21 21 -33 8z"/>
<path d="M1244 816 c-9 -24 4 -48 23 -44 12 2 18 12 18 28 0 29 -32 41 -41 16z
m36 -16 c0 -21 -15 -27 -25 -10 -7 12 2 30 16 30 5 0 9 -9 9 -20z"/>
<path d="M1444 815 c-9 -23 3 -45 23 -44 17 1 17 2 1 6 -24 6 -23 23 2 23 13
0 18 5 14 15 -4 8 -13 15 -20 15 -8 0 -17 -7 -20 -15z"/>
<path d="M1507 823 c-11 -10 -8 -41 4 -49 6 -3 16 -1 22 5 9 9 8 11 -5 6 -14
-6 -18 -2 -18 15 0 16 4 20 15 16 8 -3 15 -1 15 4 0 11 -23 13 -33 3z"/>
<path d="M1620 798 c0 -15 4 -28 8 -28 5 0 8 9 8 20 -1 10 4 18 9 17 6 -1 10
-10 9 -19 0 -10 3 -18 8 -18 10 0 10 31 0 46 -4 6 -15 11 -24 11 -13 0 -18 -8
-18 -29z"/>
<path d="M1690 820 c0 -5 7 -7 15 -4 11 4 15 0 15 -16 0 -16 -4 -20 -15 -16
-8 3 -15 1 -15 -5 0 -24 35 -2 38 24 3 22 -1 27 -17 27 -12 0 -21 -4 -21 -10z"/>
<path d="M1784 816 c-9 -24 4 -48 23 -44 12 2 18 12 18 28 0 29 -32 41 -41 16z
m31 -16 c0 -7 -6 -15 -12 -17 -8 -3 -13 4 -13 17 0 13 5 20 13 18 6 -3 12 -11
12 -18z"/>
<path d="M1850 810 c0 -23 28 -27 36 -5 9 24 20 18 30 -16 l9 -32 17 37 c10
20 14 36 9 36 -5 0 -12 -10 -16 -22 l-8 -23 -4 23 c-4 18 -11 22 -39 22 -27 0
-34 -4 -34 -20z m30 0 c0 -5 -4 -10 -10 -10 -5 0 -10 5 -10 10 0 6 5 10 10 10
6 0 10 -4 10 -10z"/>
<path d="M400 790 c0 -11 4 -20 9 -20 5 0 7 9 4 20 -3 11 -7 20 -9 20 -2 0 -4
-9 -4 -20z"/>
<path d="M560 780 c0 -5 5 -10 11 -10 5 0 7 5 4 10 -3 6 -8 10 -11 10 -2 0 -4
-4 -4 -10z"/>
<path d="M1844 769 c-9 -15 12 -33 30 -26 9 4 16 13 16 22 0 17 -35 21 -46 4z
m36 -9 c0 -5 -7 -10 -15 -10 -8 0 -15 5 -15 10 0 6 7 10 15 10 8 0 15 -4 15
-10z"/>
<path d="M1900 750 c0 -5 5 -10 11 -10 5 0 7 5 4 10 -3 6 -8 10 -11 10 -2 0
-4 -4 -4 -10z"/>
<path d="M721 678 c-1 -27 3 -48 7 -48 4 0 6 17 4 38 -5 58 -10 62 -11 10z"/>
<path d="M1303 660 c0 -36 2 -50 4 -32 2 17 2 47 0 65 -2 17 -4 3 -4 -33z"/>
<path d="M1771 678 c0 -28 3 -48 10 -48 5 0 8 4 4 9 -3 5 -1 12 5 16 5 3 10
-1 10 -9 0 -9 5 -16 10 -16 7 0 7 6 0 20 -6 11 -15 20 -20 20 -5 0 -11 12 -13
28 -2 16 -5 9 -6 -20z"/>
<path d="M1923 660 c0 -36 2 -50 4 -32 2 17 2 47 0 65 -2 17 -4 3 -4 -33z"/>
<path d="M2293 660 c0 -36 2 -50 4 -32 2 17 2 47 0 65 -2 17 -4 3 -4 -33z"/>
<path d="M3035 675 c0 -25 3 -45 8 -45 4 0 7 20 7 45 0 25 -3 45 -7 45 -5 0
-8 -20 -8 -45z"/>
<path d="M3186 706 c3 -8 -3 -16 -16 -19 -16 -4 -21 -12 -18 -28 2 -12 9 -24
16 -25 7 -1 8 0 2 3 -15 7 -12 43 4 43 8 0 17 -12 19 -27 2 -17 5 -10 6 20 0
26 -3 47 -9 47 -5 0 -7 -6 -4 -14z"/>
<path d="M340 670 c0 -22 4 -40 8 -40 5 0 7 15 5 33 -4 31 -3 31 9 9 l14 -22
22 30 c13 16 18 30 13 30 -6 0 -16 -10 -22 -22 l-12 -23 -10 23 c-15 34 -27
26 -27 -18z"/>
<path d="M850 690 c0 -11 7 -20 15 -20 8 0 15 -7 15 -16 0 -10 -6 -14 -15 -10
-8 3 -15 1 -15 -5 0 -6 8 -9 18 -7 22 4 30 48 8 48 -22 0 -20 17 2 23 13 4 11
5 -5 6 -17 1 -23 -5 -23 -19z"/>
<path d="M920 706 c0 -2 9 -6 20 -9 11 -3 20 -1 20 4 0 5 -9 9 -20 9 -11 0
-20 -2 -20 -4z"/>
<path d="M990 696 c-18 -23 -9 -61 15 -61 29 0 32 35 4 42 -21 6 -21 7 -4 20
11 7 14 13 8 13 -6 0 -16 -7 -23 -14z m30 -41 c0 -8 -7 -15 -15 -15 -8 0 -15
7 -15 15 0 8 7 15 15 15 8 0 15 -7 15 -15z"/>
<path d="M1089 673 c-4 -38 -2 -43 16 -43 12 0 16 3 8 8 -6 4 -13 23 -15 42
l-3 35 -6 -42z"/>
<path d="M1144 696 c-10 -25 0 -61 18 -64 19 -4 32 29 23 58 -7 23 -33 27 -41
6z m31 -26 c0 -13 -6 -25 -12 -27 -9 -3 -13 6 -13 27 0 21 4 30 13 28 6 -3 12
-15 12 -28z"/>
<path d="M1230 705 c-1 -5 -2 -18 -1 -27 1 -10 -3 -18 -9 -18 -6 0 -8 5 -4 12
4 7 3 8 -4 4 -17 -10 -15 -26 3 -26 8 0 15 -4 15 -10 0 -5 5 -10 11 -10 5 0 7
5 4 10 -3 6 0 10 7 10 9 0 10 2 2 8 -7 4 -14 18 -17 32 -2 14 -5 21 -7 15z"/>
<path d="M1365 670 c0 -43 11 -54 18 -17 l4 22 8 -22 c4 -13 14 -23 22 -23 12
0 12 2 -1 16 -21 20 -20 41 2 53 12 7 13 10 3 11 -8 0 -20 -8 -27 -17 -13 -17
-13 -17 -14 0 0 36 -15 15 -15 -23z"/>
<path d="M1985 670 c0 -22 5 -40 10 -40 6 0 10 18 10 40 0 22 -4 40 -10 40 -5
0 -10 -18 -10 -40z"/>
<path d="M1672 668 c2 -17 9 -33 16 -34 7 -1 8 0 2 3 -14 7 -13 40 2 45 7 3 5
7 -6 11 -15 6 -17 2 -14 -25z"/>
<path d="M444 679 c-4 -7 -3 -9 4 -5 6 3 13 2 16 -3 3 -5 -4 -11 -15 -14 -21
-6 -18 -27 4 -27 7 0 6 4 -3 10 -8 5 -10 10 -4 10 5 0 16 -6 23 -12 10 -11 12
-7 9 16 -3 32 -21 45 -34 25z"/>
<path d="M495 660 c0 -16 3 -30 8 -30 4 0 7 14 7 30 0 17 -3 30 -7 30 -5 0 -8
-13 -8 -30z"/>
<path d="M528 660 c2 -16 7 -30 11 -30 4 0 6 14 3 30 -2 17 -7 30 -11 30 -4 0
-6 -13 -3 -30z"/>
<path d="M595 645 c0 -29 4 -45 12 -45 7 0 10 6 7 14 -3 8 3 16 16 19 25 6 25
47 0 55 -13 5 -13 3 -2 -11 8 -9 11 -21 7 -27 -11 -18 -25 -11 -25 15 0 14 -3
25 -7 25 -5 0 -8 -20 -8 -45z"/>
<path d="M665 680 c-3 -6 1 -7 9 -4 9 3 16 2 16 -4 0 -5 -7 -12 -15 -16 -17
-6 -20 -26 -4 -26 5 0 7 5 4 10 -3 6 -1 10 4 10 6 0 11 -4 11 -10 0 -5 4 -10
8 -10 5 0 7 14 4 30 -4 29 -25 40 -37 20z"/>
<path d="M1445 681 c-3 -7 0 -8 9 -5 9 3 16 2 16 -4 0 -5 -7 -12 -15 -16 -17
-6 -20 -26 -4 -26 5 0 7 5 4 10 -3 6 -2 10 4 10 5 0 12 -6 15 -12 3 -7 4 0 3
16 -2 30 -20 45 -32 27z"/>
<path d="M1495 660 c0 -16 5 -30 11 -30 6 0 9 13 6 30 -2 17 -7 30 -11 30 -3
0 -6 -13 -6 -30z"/>
<path d="M1545 660 c0 -16 3 -30 8 -30 4 0 7 14 7 30 0 17 -3 30 -7 30 -5 0
-8 -13 -8 -30z"/>
<path d="M1578 660 c2 -16 7 -30 11 -30 4 0 6 14 3 30 -2 17 -7 30 -11 30 -4
0 -6 -13 -3 -30z"/>
<path d="M1615 680 c-3 -6 1 -7 9 -4 9 3 16 2 16 -4 0 -5 -7 -12 -15 -16 -23
-9 -18 -26 8 -24 19 2 22 7 19 30 -4 27 -25 38 -37 18z"/>
<path d="M1715 680 c-3 -6 1 -7 9 -4 9 3 16 2 16 -4 0 -5 -7 -12 -15 -16 -17
-6 -20 -26 -4 -26 5 0 7 5 4 10 -3 6 -1 10 4 10 6 0 11 -4 11 -10 0 -5 4 -10
8 -10 5 0 7 14 4 30 -4 29 -25 40 -37 20z"/>
<path d="M1835 680 c-3 -6 1 -7 9 -4 9 3 16 2 16 -4 0 -5 -7 -12 -15 -16 -23
-9 -18 -26 8 -24 19 2 22 7 19 30 -4 27 -25 38 -37 18z"/>
<path d="M2024 681 c4 -5 14 -7 23 -4 13 5 15 1 11 -20 -3 -15 -1 -27 4 -27 5
0 8 12 6 28 -2 20 -9 28 -27 30 -14 2 -21 0 -17 -7z"/>
<path d="M2097 683 c-4 -3 -7 -17 -7 -30 0 -18 5 -23 25 -23 14 0 25 5 25 11
0 6 -9 8 -20 4 -16 -5 -20 -2 -20 15 0 16 5 20 15 16 8 -3 15 -1 15 4 0 11
-23 13 -33 3z"/>
<path d="M2155 660 c0 -16 3 -30 8 -30 4 0 7 14 7 30 0 17 -3 30 -7 30 -5 0
-8 -13 -8 -30z"/>
<path d="M2195 681 c-3 -7 0 -8 9 -5 9 3 16 2 16 -4 0 -5 -7 -12 -15 -16 -17
-6 -20 -26 -4 -26 5 0 7 5 4 10 -3 6 -2 10 4 10 5 0 12 -6 15 -12 3 -7 4 0 3
16 -2 30 -20 45 -32 27z"/>
<path d="M2351 674 c0 -11 3 -14 6 -6 3 7 2 16 -1 19 -3 4 -6 -2 -5 -13z"/>
<path d="M2481 674 c0 -11 3 -14 6 -6 3 7 2 16 -1 19 -3 4 -6 -2 -5 -13z"/>
<path d="M2656 679 c2 -4 12 -5 21 -2 13 5 15 1 11 -20 -3 -15 -1 -27 4 -27 5
0 8 12 6 28 -2 20 -9 27 -25 28 -12 1 -20 -2 -17 -7z"/>
<path d="M2718 660 c2 -16 7 -30 11 -30 4 0 6 14 3 30 -2 17 -7 30 -11 30 -4
0 -6 -13 -3 -30z"/>
<path d="M2755 680 c-3 -6 1 -7 9 -4 9 3 16 2 16 -4 0 -5 -7 -12 -15 -16 -17
-6 -20 -26 -4 -26 5 0 7 5 4 10 -3 6 -1 10 4 10 6 0 11 -4 11 -10 0 -5 4 -10
8 -10 5 0 7 14 4 30 -4 29 -25 40 -37 20z"/>
<path d="M2810 660 c0 -16 4 -30 8 -30 5 0 7 14 4 30 -2 17 -6 30 -8 30 -2 0
-4 -13 -4 -30z"/>
<path d="M2882 660 c0 -19 2 -27 5 -17 2 9 2 25 0 35 -3 9 -5 1 -5 -18z"/>
<path d="M2911 648 c0 -27 3 -48 9 -48 5 0 7 6 4 14 -3 8 3 16 16 19 16 4 21
12 18 28 -2 12 -9 24 -16 25 -7 1 -8 0 -2 -3 15 -7 12 -43 -4 -43 -8 0 -17 12
-19 28 -2 16 -5 9 -6 -20z"/>
<path d="M2999 676 c7 -8 8 -16 2 -18 -5 -1 -3 -9 5 -16 11 -10 14 -10 14 2 0
23 -11 46 -22 46 -6 0 -6 -6 1 -14z"/>
<path d="M3115 681 c19 -9 19 -10 -2 -10 -13 -1 -23 -5 -23 -10 0 -4 11 -6 25
-3 29 5 28 26 -1 29 -18 3 -18 2 1 -6z"/>
<path d="M3224 660 c1 -19 7 -25 23 -26 12 -1 20 2 17 7 -2 4 -11 6 -19 3 -9
-4 -15 3 -18 18 -4 21 -4 21 -3 -2z"/>
<path d="M931 653 c-10 -26 -10 -27 4 -9 8 11 15 23 15 28 0 15 -7 8 -19 -19z"/>
<path d="M2392 655 c6 -14 13 -24 14 -22 6 6 -9 47 -17 47 -5 0 -3 -11 3 -25z"/>
<path d="M400 650 c0 -11 4 -20 9 -20 5 0 7 9 4 20 -3 11 -7 20 -9 20 -2 0 -4
-9 -4 -20z"/>
<path d="M2540 665 c0 -5 5 -17 10 -25 5 -8 10 -10 10 -5 0 6 -5 17 -10 25 -5
8 -10 11 -10 5z"/>
<path d="M2847 650 c-3 -11 -1 -20 4 -20 5 0 9 9 9 20 0 11 -2 20 -4 20 -2 0
-6 -9 -9 -20z"/>
<path d="M560 640 c0 -5 5 -10 11 -10 5 0 7 5 4 10 -3 6 -8 10 -11 10 -2 0 -4
-4 -4 -10z"/>
<path d="M2020 640 c0 -5 5 -10 11 -10 5 0 7 5 4 10 -3 6 -8 10 -11 10 -2 0
-4 -4 -4 -10z"/>
<path d="M2977 639 c7 -7 15 -10 18 -7 3 3 -2 9 -12 12 -14 6 -15 5 -6 -5z"/>
<path d="M3108 633 c7 -3 16 -2 19 1 4 3 -2 6 -13 5 -11 0 -14 -3 -6 -6z"/>
<path d="M405 535 c0 -25 3 -45 8 -45 4 0 7 20 7 45 0 25 -3 45 -7 45 -5 0 -8
-20 -8 -45z"/>
<path d="M340 531 c0 -23 4 -41 10 -41 5 0 7 6 4 14 -3 8 3 16 16 19 28 7 23
41 -8 45 -20 3 -22 -1 -22 -37z m40 14 c0 -8 -7 -15 -15 -15 -8 0 -15 7 -15
15 0 8 7 15 15 15 8 0 15 -7 15 -15z"/>
<path d="M790 562 c0 -4 9 -8 20 -8 11 0 20 4 20 8 0 4 -9 8 -20 8 -11 0 -20
-4 -20 -8z"/>
<path d="M865 560 c-3 -5 -1 -10 4 -10 6 0 11 5 11 10 0 6 -2 10 -4 10 -3 0
-8 -4 -11 -10z"/>
<path d="M963 563 c13 -3 16 -10 12 -21 -4 -10 -9 -26 -11 -37 -3 -12 -2 -14
2 -5 4 8 13 27 21 43 13 26 13 27 -14 26 -19 -1 -22 -3 -10 -6z"/>
<path d="M1015 551 c-9 -30 4 -63 23 -59 12 2 17 14 17 38 0 40 -29 55 -40 21z
m35 -21 c0 -31 -16 -41 -26 -15 -8 19 2 45 16 45 5 0 10 -13 10 -30z"/>
<path d="M1085 560 c-3 -6 1 -7 9 -4 21 8 21 -19 1 -36 -22 -18 -18 -30 10
-30 14 0 25 4 25 9 0 5 -10 7 -22 3 -22 -5 -22 -4 -5 15 9 11 17 27 17 36 0
18 -25 23 -35 7z"/>
<path d="M1170 536 c0 -19 -6 -37 -12 -39 -7 -3 -4 -6 7 -6 18 -1 20 4 17 39
-5 49 -12 52 -12 6z"/>
<path d="M1214 556 c-8 -20 3 -36 24 -36 15 -1 15 -2 -2 -15 -11 -8 -15 -15
-9 -15 18 0 35 28 31 52 -4 26 -35 37 -44 14z m36 -11 c0 -8 -7 -15 -15 -15
-8 0 -15 7 -15 15 0 8 7 15 15 15 8 0 15 -7 15 -15z"/>
<path d="M1284 556 c-10 -25 0 -61 18 -64 19 -4 32 29 23 58 -7 23 -33 27 -41
6z m31 -26 c0 -13 -6 -25 -12 -27 -9 -3 -13 6 -13 27 0 21 4 30 13 28 6 -3 12
-15 12 -28z"/>
<path d="M1356 554 c-18 -17 -19 -24 -10 -48 6 -17 44 -23 44 -7 0 5 -7 8 -16
7 -9 0 -19 5 -22 13 -3 10 1 12 17 8 11 -3 21 -1 21 4 0 5 -8 9 -17 9 -16 1
-16 2 1 15 11 8 15 15 9 15 -7 0 -19 -7 -27 -16z"/>
<path d="M1429 533 c-4 -38 -2 -43 16 -43 12 0 16 3 8 8 -6 4 -13 23 -15 42
l-3 35 -6 -42z"/>
<path d="M1485 560 c-3 -6 1 -7 9 -4 9 3 16 1 16 -5 0 -6 -5 -11 -12 -11 -6 0
-4 -6 7 -13 20 -15 5 -34 -17 -21 -7 4 -8 3 -4 -4 9 -15 33 -15 38 0 13 39
-18 88 -37 58z"/>
<path d="M1550 566 c0 -2 9 -6 20 -9 11 -3 20 -1 20 4 0 5 -9 9 -20 9 -11 0
-20 -2 -20 -4z"/>
<path d="M438 520 c2 -16 7 -30 11 -30 4 0 6 14 3 30 -2 17 -7 30 -11 30 -4 0
-6 -13 -3 -30z"/>
<path d="M474 536 c-9 -24 4 -48 23 -44 12 2 18 12 18 28 0 29 -32 41 -41 16z
m36 -16 c0 -11 -4 -20 -9 -20 -14 0 -23 18 -16 30 10 17 25 11 25 -10z"/>
<path d="M535 520 c0 -16 3 -30 8 -30 4 0 7 14 7 30 0 17 -3 30 -7 30 -5 0 -8
-13 -8 -30z"/>
<path d="M568 520 c2 -16 7 -30 11 -30 4 0 6 14 3 30 -2 17 -7 30 -11 30 -4 0
-6 -13 -3 -30z"/>
<path d="M604 536 c-9 -23 3 -46 23 -46 15 0 15 2 -3 15 -18 14 -18 14 4 15
14 0 22 5 20 13 -7 18 -37 21 -44 3z"/>
<path d="M734 536 c-8 -8 -7 -15 0 -22 8 -8 15 -7 22 0 8 8 7 15 0 22 -8 8
-15 7 -22 0z"/>
<path d="M790 528 c0 -4 7 -8 16 -8 14 0 14 -3 4 -15 -11 -13 -10 -14 4 -9 23
9 20 40 -4 40 -11 0 -20 -4 -20 -8z"/>
<path d="M1561 513 c-10 -26 -10 -27 4 -9 8 11 15 23 15 28 0 15 -7 8 -19 -19z"/>
<path d="M865 500 c-3 -5 3 -10 15 -10 12 0 18 5 15 10 -3 6 -10 10 -15 10 -5
0 -12 -4 -15 -10z"/>
<path d="M638 395 c2 -25 7 -45 11 -45 3 0 5 20 3 45 -2 25 -7 45 -11 45 -3 0
-5 -20 -3 -45z"/>
<path d="M890 395 c0 -25 5 -45 10 -45 6 0 10 11 10 25 0 14 5 25 10 25 6 0
10 -11 10 -25 0 -14 4 -25 8 -25 5 0 7 14 4 30 -2 17 -10 30 -18 30 -8 0 -14
7 -14 15 0 8 -4 15 -10 15 -5 0 -10 -20 -10 -45z"/>
<path d="M1311 428 c-1 -10 -7 -18 -15 -18 -8 0 -16 -7 -20 -15 -9 -24 4 -45
28 -45 19 0 22 4 18 38 -4 44 -10 64 -11 40z m-1 -48 c0 -11 -4 -20 -10 -20
-5 0 -10 9 -10 20 0 11 5 20 10 20 6 0 10 -9 10 -20z"/>
<path d="M1428 395 c3 -36 8 -45 22 -45 20 0 36 33 25 50 -12 19 -22 10 -17
-15 2 -15 0 -25 -7 -25 -6 0 -11 17 -11 40 0 22 -3 40 -8 40 -4 0 -6 -20 -4
-45z"/>
<path d="M1755 395 c0 -25 3 -45 8 -45 4 0 7 20 7 45 0 25 -3 45 -7 45 -5 0
-8 -20 -8 -45z"/>
<path d="M2538 395 c2 -25 7 -45 11 -45 3 0 5 20 3 45 -2 25 -7 45 -11 45 -3
0 -5 -20 -3 -45z"/>
<path d="M2691 428 c-1 -10 -7 -18 -15 -18 -8 0 -16 -7 -20 -15 -9 -24 4 -45
28 -45 19 0 22 4 18 38 -4 44 -10 64 -11 40z m-1 -48 c0 -11 -4 -20 -10 -20
-5 0 -10 9 -10 20 0 11 5 20 10 20 6 0 10 -9 10 -20z"/>
<path d="M340 390 c0 -36 3 -40 25 -40 14 0 25 4 25 9 0 5 -9 7 -20 4 -14 -4
-20 0 -20 10 0 9 8 18 18 20 16 4 16 5 0 6 -10 0 -18 6 -18 12 0 6 9 9 20 6
11 -3 20 -1 20 4 0 5 -11 9 -25 9 -22 0 -25 -4 -25 -40z"/>
<path d="M1662 418 c-14 -14 -16 -68 -3 -68 5 0 7 9 4 20 -7 26 14 50 41 49
20 -1 20 -2 1 -6 -43 -11 -48 -53 -6 -53 34 0 51 31 31 55 -15 18 -52 19 -68
3z m59 -41 c-8 -8 -11 -7 -11 4 0 20 13 34 18 19 3 -7 -1 -17 -7 -23z m-25 -4
c-10 -10 -19 5 -10 18 6 11 8 11 12 0 2 -7 1 -15 -2 -18z"/>
<path d="M450 378 c0 -16 4 -28 8 -28 5 0 8 10 8 21 -1 16 6 22 28 25 25 3 28
0 23 -22 -2 -13 0 -24 4 -24 5 0 9 13 9 29 0 28 -2 30 -40 28 -37 -1 -40 -4
-40 -29z"/>
<path d="M554 399 c-4 -7 -3 -9 4 -5 6 3 13 2 16 -3 3 -5 -4 -11 -15 -14 -21
-6 -18 -27 4 -27 7 0 6 4 -3 10 -8 5 -10 10 -4 10 5 0 16 -6 23 -12 10 -11 12
-7 9 16 -3 32 -21 45 -34 25z"/>
<path d="M605 380 c0 -16 3 -30 8 -30 4 0 7 14 7 30 0 17 -3 30 -7 30 -5 0 -8
-13 -8 -30z"/>
<path d="M730 381 c0 -17 5 -31 10 -31 6 0 10 11 10 25 0 14 5 25 11 25 7 0 9
-10 7 -25 -3 -14 -1 -25 4 -25 5 0 8 12 6 28 -2 19 -9 28 -25 30 -20 3 -23 -1
-23 -27z"/>
<path d="M798 380 c2 -16 7 -30 11 -30 4 0 6 14 3 30 -2 17 -7 30 -11 30 -4 0
-6 -13 -3 -30z"/>
<path d="M834 395 c-8 -21 3 -45 20 -45 16 0 31 34 21 50 -9 15 -35 12 -41 -5z
m31 -15 c0 -7 -6 -15 -12 -17 -8 -3 -13 4 -13 17 0 13 5 20 13 18 6 -3 12 -11
12 -18z"/>
<path d="M965 400 c-3 -6 1 -7 9 -4 9 3 16 1 16 -5 0 -6 -7 -11 -15 -11 -8 0
-15 -7 -15 -15 0 -8 5 -15 11 -15 5 0 7 5 4 10 -3 6 -2 10 4 10 5 0 12 -6 14
-12 3 -7 6 2 6 20 1 31 -20 45 -34 22z"/>
<path d="M1020 378 c0 -16 4 -28 9 -28 5 0 7 8 4 19 -3 10 0 22 6 25 7 5 11
-3 11 -18 0 -14 5 -26 10 -26 6 0 10 11 10 25 0 14 5 25 11 25 7 0 9 -10 7
-25 -3 -14 -1 -25 3 -25 5 0 9 13 9 29 0 28 -2 30 -40 28 -37 -1 -40 -4 -40
-29z"/>
<path d="M1120 378 c0 -16 4 -28 9 -28 5 0 7 8 4 19 -3 10 0 22 6 25 7 5 11
-3 11 -18 0 -14 5 -26 10 -26 6 0 10 11 10 25 0 14 5 25 11 25 7 0 9 -10 7
-25 -3 -14 -1 -25 3 -25 5 0 9 13 9 29 0 28 -2 30 -40 28 -37 -1 -40 -4 -40
-29z"/>
<path d="M1227 403 c-11 -10 -8 -41 4 -49 6 -3 16 -1 22 5 9 9 8 11 -5 6 -11
-4 -18 -2 -18 4 0 6 7 11 15 11 8 0 15 7 15 15 0 15 -21 21 -33 8z"/>
<path d="M1375 400 c-3 -6 1 -7 9 -4 9 3 16 1 16 -5 0 -6 -7 -11 -15 -11 -8 0
-15 -7 -15 -15 0 -8 5 -15 11 -15 5 0 7 5 4 10 -3 6 -2 10 4 10 5 0 12 -6 14
-12 3 -7 6 2 6 20 1 31 -20 45 -34 22z"/>
<path d="M1490 380 c0 -16 5 -30 10 -30 6 0 10 12 10 26 0 14 4 23 10 19 6 -3
10 -1 10 4 0 6 -9 11 -20 11 -16 0 -20 -7 -20 -30z"/>
<path d="M1545 400 c-3 -6 1 -7 9 -4 9 3 16 2 16 -4 0 -5 -7 -12 -15 -16 -17
-6 -20 -26 -4 -26 5 0 7 5 4 10 -3 6 -1 10 4 10 6 0 11 -4 11 -10 0 -5 4 -10
8 -10 5 0 7 14 4 30 -4 29 -25 40 -37 20z"/>
<path d="M1600 380 c0 -16 5 -30 10 -30 6 0 10 12 10 26 0 14 4 23 10 19 6 -3
10 -1 10 4 0 6 -9 11 -20 11 -16 0 -20 -7 -20 -30z"/>
<path d="M1797 403 c-11 -10 -8 -41 4 -49 6 -3 16 -1 22 5 9 9 8 11 -5 6 -11
-4 -18 -2 -18 4 0 6 7 11 15 11 8 0 15 7 15 15 0 15 -21 21 -33 8z"/>
<path d="M1850 400 c0 -6 5 -8 10 -5 6 3 10 2 10 -3 0 -6 -7 -13 -16 -16 -16
-6 -11 -26 7 -26 6 0 7 6 3 13 -5 7 -1 7 10 -2 16 -14 17 -13 14 14 -3 28 -38
51 -38 25z"/>
<path d="M1905 380 c0 -16 5 -30 11 -30 6 0 9 13 6 30 -2 17 -7 30 -11 30 -3
0 -6 -13 -6 -30z"/>
<path d="M1935 400 c4 -6 11 -7 17 -4 7 5 9 -2 6 -20 -3 -14 -1 -26 3 -26 5 0
9 14 9 30 0 24 -4 30 -21 30 -11 0 -17 -5 -14 -10z"/>
<path d="M1988 380 c2 -16 8 -30 13 -30 10 0 12 21 3 44 -10 27 -21 18 -16
-14z"/>
<path d="M2024 395 c-9 -23 3 -45 23 -44 17 1 17 2 1 6 -24 6 -23 23 2 23 13
0 18 5 14 15 -4 8 -13 15 -20 15 -8 0 -17 -7 -20 -15z"/>
<path d="M2080 380 c0 -16 5 -30 10 -30 6 0 10 12 10 26 0 14 4 23 10 19 6 -3
10 -1 10 4 0 6 -9 11 -20 11 -16 0 -20 -7 -20 -30z"/>
<path d="M2155 380 c0 -16 3 -30 8 -30 4 0 7 14 7 30 0 17 -3 30 -7 30 -5 0
-8 -13 -8 -30z"/>
<path d="M2188 379 c5 -32 19 -40 18 -9 -1 10 4 18 9 17 6 -1 10 -10 9 -19 0
-10 3 -18 8 -18 5 0 8 12 6 27 -2 22 -9 28 -29 30 -23 1 -25 -2 -21 -28z"/>
<path d="M2260 400 c0 -6 5 -8 10 -5 6 3 10 2 10 -3 0 -6 -7 -13 -16 -16 -16
-6 -11 -26 7 -26 6 0 7 6 3 13 -5 7 -1 7 10 -2 16 -14 17 -13 14 14 -3 28 -38
51 -38 25z"/>
<path d="M2315 380 c0 -16 3 -30 8 -30 4 0 7 11 7 25 0 14 5 25 10 25 6 0 10
-11 10 -25 0 -14 4 -25 8 -25 5 0 7 14 4 30 -3 23 -10 30 -26 30 -17 0 -21 -6
-21 -30z"/>
<path d="M2380 380 c0 -16 5 -30 10 -30 6 0 10 14 10 30 0 17 -4 30 -10 30 -5
0 -10 -13 -10 -30z"/>
<path d="M2418 374 l4 -35 -373 1 c-206 1 -590 0 -854 -2 -396 -2 -331 -4 370
-8 468 -3 933 -3 1035 0 l185 6 -180 3 c-99 2 -173 5 -163 8 36 9 31 63 -6 63
-19 0 -21 -4 -18 -36z m32 6 c0 -11 -4 -20 -10 -20 -5 0 -10 9 -10 20 0 11 5
20 10 20 6 0 10 -9 10 -20z"/>
<path d="M2485 400 c-3 -6 1 -7 9 -4 9 3 16 2 16 -4 0 -5 -7 -12 -15 -16 -17
-6 -20 -26 -4 -26 5 0 7 5 4 10 -3 6 -1 10 4 10 6 0 11 -4 11 -10 0 -5 4 -10
8 -10 5 0 7 14 4 30 -4 29 -25 40 -37 20z"/>
<path d="M2597 395 c-13 -32 21 -63 38 -35 3 6 -1 7 -9 4 -9 -3 -16 -1 -16 5
0 6 7 11 16 11 20 0 13 24 -8 28 -9 2 -18 -4 -21 -13z"/>
<path d="M2723 385 c2 -23 7 -30 25 -31 18 -1 22 4 22 27 0 16 -4 29 -8 29 -5
0 -8 -9 -8 -20 1 -27 -18 -26 -26 2 -6 19 -7 18 -5 -7z"/>
<path d="M485 360 c-3 -5 -1 -10 4 -10 6 0 11 5 11 10 0 6 -2 10 -4 10 -3 0
-8 -4 -11 -10z"/>
<path d="M1340 360 c0 -5 5 -10 10 -10 6 0 10 5 10 10 0 6 -4 10 -10 10 -5 0
-10 -4 -10 -10z"/>
</g>
</svg>
