<?xml version="1.0" encoding="UTF-8"?>
<svg id="Layer_2" xmlns="http://www.w3.org/2000/svg" width="13.855555in" height="5.504166in" version="1.1" viewBox="0 0 997.599976 396.299988">
  <!-- Generator: Adobe Illustrator 29.8.2, SVG Export Plug-In . SVG Version: 2.1.1 Build 3)  -->
  <polyline points="59.049999 128.669998 59.049999 143.589996 44.599998 143.589996 44.599998 128.669998 4.73 128.669998 4.73 243.320007 49.869999 243.320007 49.869999 248.050003 0 248.050003 0 123.940002 44.57 123.940002 44.57 109.010002 59.029999 109.010002 59.029999 123.940002" fill="#0a4376"/>
  <polyline points="940.099976 123.940002 940.099976 109.010002 954.52002 109.010002 954.52002 123.900002 997.599976 123.900002 997.599976 248.009995 948.630005 248.009995 948.630005 243.270004 992.840027 243.270004 992.840027 128.669998 954.580017 128.669998 954.580017 143.589996 940.130005 143.589996 940.130005 128.669998" fill="#0a4376"/>
  <path d="M282.200012,65.5v128.289993h-43.160004v-118.949997c0-3.290001-2.669998-5.949997-5.949997-5.949997h-31.979996c-3.289993,0-5.949997,2.660004-5.949997,5.949997v118.949997h-45.059998v-118.949997c0-3.290001-2.669998-5.949997-5.949997-5.949997h-35.619995c-3.279999,0-5.949997,2.660004-5.949997,5.949997v118.949997h-44.040001V65.510002c0-21.790001,17.659996-39.459999,39.450005-39.459999h144.759995c21.790009,0,39.450012,17.66,39.450012,39.449997h-.000031Z" fill="#5fb556"/>
  <polygon points="466.029999 193.789993 412.519989 193.789993 392.899994 128.669998 391.470001 123.940002 382.980011 95.760002 374.23999 123.940002 372.769989 128.669998 352.549988 193.789993 298.26001 193.789993 321.730011 128.669998 323.440002 123.940002 358.709991 26.049999 405.910004 26.049999 440.98999 123.940002 442.690002 128.669998 466.029999 193.789993" fill="#5fb556"/>
  <polygon points="638.280029 26.049999 606.349976 123.940002 604.799988 128.669998 583.559998 193.789993 528.549988 193.789993 505.799988 128.669998 504.140015 123.940002 469.929993 26.049999 523.140015 26.049999 554.530029 123.940002 554.700012 124.5 554.880005 123.940002 586.27002 26.049999 638.280029 26.049999" fill="#5fb556"/>
  <path d="M779.559998,193.789993h-91.049988c-17.780029,0-32.200012-14.419998-32.200012-32.199997V58.25c0-17.790001,14.419983-32.200001,32.200012-32.200001h91.039978v44.640003h-78.609985c-1.080017,0-1.950012.870003-1.950012,1.949997v13.379997c0,1.080002.869995,1.949997,1.950012,1.949997h78.609985v49.750008h-78.609985c-1.070007,0-1.950012.860001-1.950012,1.940002v11.130005c0,1.080002.880005,1.940002,1.950012,1.940002h78.609985v41.040009l.01001.019974Z" fill="#5fb556"/>
  <path d="M940.130005,70.25v123.540009h-46.890015v-124.5c0-1.470001-1.190002-2.660004-2.659973-2.660004h-37.529968c-1.469971,0-2.659973,1.190002-2.659973,2.660004v124.5h-51.440002V26.049999h96.969971c24.409973,0,44.210022,19.780003,44.210022,44.200001h-.000061Z" fill="#5fb556"/>
  <path id="Path_7" d="M355.779999,208.279999h-24.950012c-4.410004,0-7.98999,3.580002-7.98999,7.990005h0v22.839996c0,4.410004,3.579987,7.990005,7.98999,7.990005h24.950012c.470001,0,.850006.380005.850006.850006v21.5c0,.470001-.380005.850006-.850006.850006h-24.950012c-.470001,0-.850006-.380005-.850006-.850006v-5.339996h-7.100006v5.339996c0,4.410004,3.579987,7.980011,7.98999,7.980011h24.950012c4.410004,0,7.98999-3.570007,7.98999-7.980011v-21.470001c0-4.410004-3.579987-7.979996-7.98999-7.979996h-24.98999c-.470001,0-.850006-.380005-.850006-.850006v-22.880005c0-.470001.380005-.850006.850006-.850006h24.950012c.470001,0,.850006.380005.850006.850006v7.410004h7.109985v-7.440002c0-4.410004-3.579987-7.990005-7.98999-7.990005h0l.029999.029999Z" fill="#0a4376"/>
  <rect id="Rectangle_1" x="427.600006" y="209.470001" width="7.100006" height="68.160004" fill="#0a4376"/>
  <rect id="Rectangle_2" x="603.460022" y="209.470001" width="7.099976" height="68.160004" fill="#0a4376"/>
  <path id="Path_8" d="M506.089996,271.200012v-62.300003h-7.059998v62.300003c0,4.230011,3.429993,7.649994,7.649994,7.649994h34v-7.100006h-34.109985c-.279999,0-.51001-.230011-.51001-.51001l.029999-.040009v.000031Z" fill="#0a4376"/>
  <path id="Path_9" d="M707.330017,208.279999h-26.679993c-4.22998,0-7.650024,3.429993-7.650024,7.649994v55.160004c0,4.230011,3.429993,7.649994,7.650024,7.649994h26.679993c4.22998,0,7.650024-3.429993,7.650024-7.649994v-5.420013h-7.099976v5.420013c0,.320007-.25.579987-.570007.589996h-26.700012c-.320007,0-.580017-.26001-.580017-.579987h0v-55.139999c0-.320007.25-.580002.570007-.589996h26.679993c.320007,0,.580017.25.590027.570007v7.840012h7.099976v-7.820007c0-4.229996-3.429993-7.649994-7.650024-7.649994v-.029999l.01001-.000031Z" fill="#0a4376"/>
  <path id="Path_10" d="M817.349976,208.300003v-.020004h-31.200012c-4.22998,0-7.659973,3.429993-7.659973,7.660004v55.190002c0,4.220001,3.419983,7.660004,7.659973,7.660004h31.200012c4.219971,0,7.650024-3.429993,7.650024-7.660004v-55.179993c0-4.220001-3.419983-7.649994-7.650024-7.649994v-.000015ZM817.909973,271.200012c0,.309998-.25.559998-.559998.559998h-31.200012c-.320007,0-.570007-.25-.570007-.559998v-55.259995c0-.309998.25-.559998.570007-.559998h31.200012c.309998,0,.559998.25.559998.559998v55.259995Z" fill="#0a4376"/>
  <path id="Path_11" d="M930.219971,211.830002v51.939987l-35.190002-51.570007c-1.369995-2.020004-4.130005-2.550003-6.150024-1.179993-1.219971.830002-1.940002,2.199997-1.940002,3.669998v60.569992h7.099976v-51.929993l35.190002,51.570007c1.369995,2.019989,4.130005,2.549988,6.150024,1.179993,1.219971-.829987,1.950012-2.209991,1.940002-3.679993v-60.570007h-7.099976v.000015Z" fill="#0a4376"/>
  <circle cx="937.340027" cy="14.91" r="13.909986" fill="#0a4376"/>
  <path d="M939.679993,21.18l-2.940002-5.190001h-1.26001v5.190001h-2.669983V7.88h4.98999c1.030029,0,1.909973.18,2.630005.54s1.27002.85,1.630005,1.47.539978,1.31.539978,2.07c0,.88-.25,1.67-.76001,2.37-.51001.71-1.26001,1.190001-2.27002,1.46l3.179993,5.400001h-3.090027l.020081-.01ZM935.48999,13.99h2.22998c.719971,0,1.27002-.17,1.619995-.52s.530029-.83.530029-1.46-.179993-1.08-.530029-1.42c-.359985-.34-.900024-.5-1.619995-.5h-2.22998v3.91-.009999Z" fill="#0a4376"/>
  <path d="M24.75,380.230011v1.809998c0,6.799988-1.219999,14.25-10.9,14.25s-10.85-6.570007-10.85-14.429993v-27.230011c0-8.570007,3.68-13.290009,10.93-13.290009,8.98,0,10.59,6.380005,10.59,13.390015v2.089996h-5.780001v-2.51001c0-4.23999-.66-7.76001-4.889999-7.76001-4.01,0-5.030001,3.179993-5.030001,7.899994v27.790009c0,5.369995,1.17,8.899994,5.190001,8.899994s4.93-3.619995,4.93-8.660004v-2.23999h5.82l-.01-.009979Z" fill="#0a4376"/>
  <path d="M45.84,376.369995v6.670013c0,4.059998.810001,8.279999,4.829998,8.279999s4.580002-3.149994,4.580002-7.049988v-.329987h5.59v.290009c0,4.730011-1.099998,12-10.149998,12-8.510002,0-10.439999-5.589996-10.439999-13.869995v-15.190002c0-6.179993,2.16-13.01001,10.529999-13.01001,7.869999,0,10.170002,5.829987,10.170002,13.019989v9.190002h-15.110001l-.000004-.000031ZM55.439999,371.709991v-5.100006c0-3.799988-.610001-7.549988-4.700001-7.549988-3.849998,0-4.869999,3.179993-4.869999,7.589996v5.049988h9.560001l.009998.01001Z" fill="#0a4376"/>
  <path d="M77.400002,367.220001c0-8.190002,0-10.399994-.080002-12.420013h5.43c.120003.920013.230003,2.339996.230003,4.079987,1.199997-2.98999,3.629997-4.720001,7.470001-4.720001,4.470001,0,8.040001,2.549988,8.040001,10.040009v31.389984h-5.699997v-30.269989c0-3.950012-1.330002-5.940002-4.279999-5.940002-3.419998,0-5.419998,1.700012-5.419998,9.410004v26.799988h-5.699997v-28.369995l.009987.000031Z" fill="#0a4376"/>
  <path d="M112.419998,354.799988h4.68v-10.019989h5.650002v10.019989h5.75v5.049988h-5.75v27.390015c0,2.100006.370003,4.109985,2.940002,4.109985.760002,0,1.980003-.079987,2.559998-.23999v4.410004c-1.220001.5-3.040001.619995-4.419998.619995-3.959999,0-6.730003-1.640015-6.730003-7.869995v-28.420013h-4.68v-5.049988Z" fill="#0a4376"/>
  <path d="M143.029999,368.679993c0-6.579987.039993-10.26001-.080002-13.880005h5.429993c.080002,1.070007.199997,3.630005.199997,6.369995,1.509995-5.029999,5.020004-6.839996,8.589996-6.929993v7.040009c-5.039993.040009-8.449997,2.950012-8.449997,10.320007v23.98999h-5.699997v-26.910004h.01001Z" fill="#0a4376"/>
  <path d="M176.369995,376.369995v6.670013c0,4.059998.809998,8.279999,4.830002,8.279999s4.580002-3.149994,4.580002-7.049988v-.329987h5.589996v.290009c0,4.730011-1.100006,12-10.149994,12-8.509995,0-10.440002-5.589996-10.440002-13.869995v-15.190002c0-6.179993,2.160004-13.01001,10.529999-13.01001,7.869995,0,10.169998,5.829987,10.169998,13.019989v9.190002h-15.110001v-.000031ZM185.970001,371.709991v-5.100006c0-3.799988-.610001-7.549988-4.699997-7.549988-3.850006,0-4.869995,3.179993-4.869995,7.589996v5.049988h9.559998l.009995.01001Z" fill="#0a4376"/>
  <path d="M249.270004,366.369995v17.070007c0,8.850006-4.179993,12.790009-10.740005,12.790009s-10.529999-3.880005-10.529999-12.570007v-17.420013c0-7.850006,4.139999-12.079987,10.770004-12.079987s10.5,4.470001,10.5,12.209991ZM233.740005,366.200012v17.640015c0,4.440002,1.490005,7.290009,4.910004,7.290009,3.169998,0,4.880005-2.179993,4.880005-7.359985v-17.610016c0-4.01001-1.330002-6.920013-4.869995-6.920013s-4.919998,2.51001-4.919998,6.959991h-.000015Z" fill="#0a4376"/>
  <path d="M267.160004,395.589996v-35.73999h-4.309998v-5.049988h4.309998v-5.75c0-4.970001,1.869995-9.709991,8.369995-9.709991.980011,0,2.089996.079987,2.720001.279999v5.220001c-.679993-.119995-1.179993-.170013-1.839996-.170013-2.910004,0-3.549988,1.940002-3.549988,5.019989v5.109985h5.230011v5.049988h-5.230011v35.73999h-5.700012v.000031Z" fill="#0a4376"/>
  <path d="M331.089996,369.670013h-12v20.679993h13.630005l-.769989,5.23999h-18.549988v-53.519989h18.380005v5.269989h-12.690002v17.100006h12v5.23999l-.000031-.009979Z" fill="#0a4376"/>
  <path d="M352.630005,354.799988c2.940002,8.059998,4.5,12.220001,5.190002,14.429993h.079987c.929993-2.829987,2.929993-7.519989,5.399994-14.429993h5.929993l-8.190002,19.01001,8.299988,21.779999h-6.160004c-3.179993-8.730011-4.730011-13.920013-5.429993-16.079987h-.079987c-.820007,2.350006-2.769989,8.059998-5.519989,16.079987h-6l8.320007-21.089996-8.070007-19.700012h6.230011Z" fill="#0a4376"/>
  <path d="M402.140015,382.700012v.559998c0,7.040009-1.790009,12.959991-10.149994,12.959991s-9.910004-5.51001-9.910004-13.769989v-15.839996c0-6.899994,2.51001-12.459991,10.26001-12.459991,8.339996,0,9.790009,6.119995,9.790009,11.559998v1.649994h-5.670013v-1.410004c0-3.700012-.609985-6.899994-4.23999-6.899994-3.160004,0-4.410004,2.369995-4.410004,7.200012v17.5c0,3.690002.700012,7.549988,4.320007,7.549988,3.230011,0,4.329987-2.170013,4.329987-7.329987v-1.290009h5.670013l.009979.019989Z" fill="#0a4376"/>
  <path d="M423.089996,376.369995v6.670013c0,4.059998.809998,8.279999,4.829987,8.279999s4.579987-3.149994,4.579987-7.049988v-.329987h5.589996v.290009c0,4.730011-1.100006,12-10.149994,12-8.51001,0-10.440002-5.589996-10.440002-13.869995v-15.190002c0-6.179993,2.160004-13.01001,10.529999-13.01001,7.869995,0,10.170013,5.829987,10.170013,13.019989v9.190002h-15.109985v-.000031ZM432.690002,371.709991v-5.100006c0-3.799988-.609985-7.549988-4.700012-7.549988-3.850006,0-4.869995,3.179993-4.869995,7.589996v5.049988h9.559998l.01001.01001Z" fill="#0a4376"/>
  <path d="M454.809998,395.589996v-55.889984h5.700012v55.890015h-5.700012v-.000031Z" fill="#0a4376"/>
  <path d="M478.440002,395.589996v-55.889984h5.700012v55.890015h-5.700012v-.000031Z" fill="#0a4376"/>
  <path d="M506.5,376.369995v6.670013c0,4.059998.809998,8.279999,4.829987,8.279999s4.579987-3.149994,4.579987-7.049988v-.329987h5.590027v.290009c0,4.730011-1.099976,12-10.149994,12-8.51001,0-10.440002-5.589996-10.440002-13.869995v-15.190002c0-6.179993,2.160004-13.01001,10.529999-13.01001,7.869995,0,10.169983,5.829987,10.169983,13.019989v9.190002h-15.109985v-.000031ZM516.099976,371.709991v-5.100006c0-3.799988-.609985-7.549988-4.700012-7.549988-3.850006,0-4.869995,3.179993-4.869995,7.589996v5.049988h9.559998l.01001.01001Z" fill="#0a4376"/>
  <path d="M538.059998,367.220001c0-8.190002,0-10.399994-.080017-12.420013h5.429993c.119995.920013.22998,2.339996.22998,4.079987,1.200012-2.98999,3.630005-4.720001,7.469971-4.720001,4.469971,0,8.039978,2.549988,8.039978,10.040009v31.389984h-5.700012v-30.269989c0-3.950012-1.330017-5.940002-4.280029-5.940002-3.419983,0-5.419983,1.700012-5.419983,9.410004v26.799988h-5.700012v-28.369995l.010132.000031Z" fill="#0a4376"/>
  <path d="M595.969971,382.700012v.559998c0,7.040009-1.789978,12.959991-10.150024,12.959991s-9.909973-5.51001-9.909973-13.769989v-15.839996c0-6.899994,2.51001-12.459991,10.26001-12.459991,8.340027,0,9.789978,6.119995,9.789978,11.559998v1.649994h-5.669983v-1.410004c0-3.700012-.609985-6.899994-4.23999-6.899994-3.159973,0-4.409973,2.369995-4.409973,7.200012v17.5c0,3.690002.700012,7.549988,4.320007,7.549988,3.22998,0,4.330017-2.170013,4.330017-7.329987v-1.290009h5.669983l.009949.019989Z" fill="#0a4376"/>
  <path d="M616.919983,376.369995v6.670013c0,4.059998.809998,8.279999,4.830017,8.279999s4.580017-3.149994,4.580017-7.049988v-.329987h5.590027v.290009c0,4.730011-1.099976,12-10.150024,12-8.51001,0-10.440002-5.589996-10.440002-13.869995v-15.190002c0-6.179993,2.159973-13.01001,10.530029-13.01001,7.869995,0,10.169983,5.829987,10.169983,13.019989v9.190002h-15.109985l-.000061-.000031ZM626.52002,371.709991v-5.100006c0-3.799988-.609985-7.549988-4.700012-7.549988-3.849976,0-4.869995,3.179993-4.869995,7.589996v5.049988h9.559998l.01001.01001Z" fill="#0a4376"/>
  <path d="M669.710022,354.799988h5.700012v40.790009h-5.700012v-40.790009ZM669.75,339.700012h5.700012v8.279999h-5.700012v-8.279999Z" fill="#0a4376"/>
  <path d="M693.349976,367.220001c0-8.190002,0-10.399994-.080017-12.420013h5.429993c.119995.920013.22998,2.339996.22998,4.079987,1.200012-2.98999,3.630005-4.720001,7.469971-4.720001,4.469971,0,8.039978,2.549988,8.039978,10.040009v31.389984h-5.700012v-30.269989c0-3.950012-1.330017-5.940002-4.280029-5.940002-3.419983,0-5.419983,1.700012-5.419983,9.410004v26.799988h-5.700012v-28.369995l.010132.000031Z" fill="#0a4376"/>
  <path d="M756.669983,380.519989v3.100006c0,5.040009,1.73999,7.73999,5.48999,7.73999s5.349976-2.779999,5.349976-8.640015c0-6.26001-1.380005-8.700012-7.01001-13.089996-5.72998-4.480011-8.630005-7.179993-8.630005-15.070007,0-6.779999,2.030029-13.290009,10.429993-13.23999,7.969971.040009,10.070007,5.350006,10.070007,12.140015v2.480011h-5.659973v-2.329987c0-4.440002-.869995-7.309998-4.530029-7.309998s-4.619995,3.220001-4.619995,7.420013c0,4.980011.98999,6.859985,5.900024,10.579987,7.429993,5.619995,9.780029,8.75,9.780029,17.630005,0,7.519989-2.150024,14.380005-11.179993,14.380005s-11.090027-5.660004-11.090027-12.709991v-3.070007h5.700012v-.01004Z" fill="#0a4376"/>
  <path d="M794.72998,376.369995v6.670013c0,4.059998.809998,8.279999,4.830017,8.279999s4.580017-3.149994,4.580017-7.049988v-.329987h5.590027v.290009c0,4.730011-1.099976,12-10.150024,12-8.51001,0-10.440002-5.589996-10.440002-13.869995v-15.190002c0-6.179993,2.159973-13.01001,10.530029-13.01001,7.869995,0,10.169983,5.829987,10.169983,13.019989v9.190002h-15.109985l-.000061-.000031ZM804.330017,371.709991v-5.100006c0-3.799988-.609985-7.549988-4.700012-7.549988-3.849976,0-4.869995,3.179993-4.869995,7.589996v5.049988h9.559998l.01001.01001Z" fill="#0a4376"/>
  <path d="M826.280029,366.549988c0-7.399994,0-9.779999-.080017-11.75h5.429993c.200012,1.190002.200012,2.470001.22998,3.820007,1.219971-2.76001,3.469971-4.459991,6.97998-4.459991,3.140015,0,5.429993,1.299988,6.340027,4.709991,1.26001-2.51001,3.380005-4.709991,7.52002-4.709991s7.679993,1.790009,7.679993,9.660004v31.769989h-5.700012v-30.610016c0-3.200012-.630005-5.609985-3.799988-5.609985-3.820007,0-4.679993,3.410004-4.679993,7.809998v28.410004h-5.72998v-30.269989c0-4.390015-1.119995-5.940002-3.890015-5.940002-3.72998,0-4.599976,3.5-4.599976,8.140015v28.079987h-5.700012v-29.050018Z" fill="#0a4376"/>
  <path d="M878.289978,354.799988h5.700012v40.790009h-5.700012v-40.790009ZM878.320007,339.700012h5.700012v8.279999h-5.700012v-8.279999Z" fill="#0a4376"/>
  <path d="M920.809998,382.700012v.559998c0,7.040009-1.789978,12.959991-10.150024,12.959991s-9.909973-5.51001-9.909973-13.769989v-15.839996c0-6.899994,2.51001-12.459991,10.26001-12.459991,8.340027,0,9.789978,6.119995,9.789978,11.559998v1.649994h-5.669983v-1.410004c0-3.700012-.609985-6.899994-4.23999-6.899994-3.159973,0-4.409973,2.369995-4.409973,7.200012v17.5c0,3.690002.700012,7.549988,4.320007,7.549988,3.22998,0,4.330017-2.170013,4.330017-7.329987v-1.290009h5.669983l.009949.019989Z" fill="#0a4376"/>
  <path d="M957.450012,366.369995v17.070007c0,8.850006-4.179993,12.790009-10.73999,12.790009s-10.530029-3.880005-10.530029-12.570007v-17.420013c0-7.850006,4.140015-12.079987,10.77002-12.079987s10.5,4.470001,10.5,12.209991ZM941.919983,366.200012v17.640015c0,4.440002,1.48999,7.290009,4.909973,7.290009,3.169983,0,4.880005-2.179993,4.880005-7.359985v-17.610016c0-4.01001-1.330017-6.920013-4.869995-6.920013s-4.919983,2.51001-4.919983,6.959991Z" fill="#0a4376"/>
  <path d="M974.200012,367.220001c0-8.190002,0-10.399994-.080017-12.420013h5.429993c.119995.920013.22998,2.339996.22998,4.079987,1.200012-2.98999,3.630005-4.720001,7.469971-4.720001,4.469971,0,8.039978,2.549988,8.039978,10.040009v31.389984h-5.700012v-30.269989c0-3.950012-1.330017-5.940002-4.280029-5.940002-3.419983,0-5.419983,1.700012-5.419983,9.410004v26.799988h-5.700012v-28.369995l.010132.000031Z" fill="#0a4376"/>
  <metadata><?xpacket begin="﻿" id="W5M0MpCehiHzreSzNTczkc9d"?>
<x:xmpmeta xmlns:x="adobe:ns:meta/" x:xmptk="Adobe XMP Core 9.1-c003 1.000000, 0000/00/00-00:00:00        ">
   <rdf:RDF xmlns:rdf="http://www.w3.org/1999/02/22-rdf-syntax-ns#">
      <rdf:Description rdf:about=""/>
   </rdf:RDF>
</x:xmpmeta>
                                                                                                    
                                                                                                    
                                                                                                    
                                                                                                    
                                                                                                    
                                                                                                    
                                                                                                    
                                                                                                    
                                                                                                    
                                                                                                    
                                                                                                    
                                                                                                    
                                                                                                    
                                                                                                    
                                                                                                    
                                                                                                    
                                                                                                    
                                                                                                    
                                                                                                    
                                                                                                    
                                                                                                    
                                                                                                    
                                                                                                    
                                                                                                    
                                                                                                    
                                                                                                    
                                                                                                    
                                                                                                    
                                                                                                    
                                                                                                    
                                                                                                    
                                                                                                    
                                                                                                    
                                                                                                    
                                                                                                    
                                                                                                    
                                                                                                    
                                                                                                    
                                                                                                    
                                                                                                    
                                                                                                    
                                                                                                    
                                                                                                    
                                                                                                    
                                                                                                    
                                                                                                    
                                                                                                    
                                                                                                    
                                                                                                    
                                                                                                    
                                                                                                    
                                                                                                    
                                                                                                    
                                                                                                    
                                                                                                    
                                                                                                    
                                                                                                    
                                                                                                    
                                                                                                    
                                                                                                    
                                                                                                    
                                                                                                    
                                                                                                    
                                                                                                    
                                                                                                    
                                                                                                    
                                                                                                    
                                                                                                    
                                                                                                    
                                                                                                    
                                                                                                    
                                                                                                    
                                                                                                    
                                                                                                    
                                                                                                    
                                                                                                    
                                                                                                    
                                                                                                    
                                                                                                    
                                                                                                    
                                                                                                    
                                                                                                    
                                                                                                    
                                                                                                    
                                                                                                    
                                                                                                    
                                                                                                    
                                                                                                    
                                                                                                    
                                                                                                    
                                                                                                    
                                                                                                    
                                                                                                    
                                                                                                    
                                                                                                    
                                                                                                    
                                                                                                    
                                                                                                    
                                                                                                    
                                                                                                    
                                                                                                    
                                                                                                    
                                                                                                    
                                                                                                    
                                                                                                    
                                                                                                    
                                                                                                    
                                                                                                    
                                                                                                    
                                                                                                    
                                                                                                    
                                                                                                    
                                                                                                    
                                                                                                    
                                                                                                    
                                                                                                    
                                                                                                    
                                                                                                    
                                                                                                    
                            
<?xpacket end="w"?>
  </metadata>
</svg>