<?xml version="1.0" encoding="UTF-8"?>
<!DOCTYPE svg PUBLIC "-//W3C//DTD SVG 1.1//EN" "http://www.w3.org/Graphics/SVG/1.1/DTD/svg11.dtd">
<svg xmlns="http://www.w3.org/2000/svg" version="1.1" width="959px" height="720px" style="shape-rendering:geometricPrecision; text-rendering:geometricPrecision; image-rendering:optimizeQuality; fill-rule:evenodd; clip-rule:evenodd" xmlns:xlink="http://www.w3.org/1999/xlink">
<g><path style="opacity:1" fill="#fefefe" d="M -0.5,-0.5 C 319.167,-0.5 638.833,-0.5 958.5,-0.5C 958.5,239.5 958.5,479.5 958.5,719.5C 768.833,719.5 579.167,719.5 389.5,719.5C 511.882,709.421 605.715,652.754 671,549.5C 690.381,516.731 704.214,481.731 712.5,444.5C 678.833,444.5 645.167,444.5 611.5,444.5C 586.711,520.462 537.378,573.962 463.5,605C 438.218,614.657 412.218,620.491 385.5,622.5C 369.12,622.778 352.787,622.111 336.5,620.5C 254.217,607.682 191.717,565.682 149,494.5C 110.785,422.616 106.118,348.616 135,272.5C 176.802,180.494 247.969,128.328 348.5,116C 426.431,111.327 493.431,135.827 549.5,189.5C 571.507,166.159 593.174,142.492 614.5,118.5C 573.899,78.0139 525.899,49.5139 470.5,33C 350.232,0.344109 241.565,22.6774 144.5,100C 56.6208,176.968 15.1208,274.135 20,391.5C 28.7425,498.512 75.2425,584.678 159.5,650C 215.413,691.457 278.08,714.624 347.5,719.5C 231.5,719.5 115.5,719.5 -0.5,719.5C -0.5,479.5 -0.5,239.5 -0.5,-0.5 Z"/></g>
<g><path style="opacity:1" fill="#04446b" d="M 336.5,620.5 C 341.919,622.044 347.586,622.877 353.5,623C 364.341,623.825 375.008,623.659 385.5,622.5C 412.218,620.491 438.218,614.657 463.5,605C 537.378,573.962 586.711,520.462 611.5,444.5C 645.167,444.5 678.833,444.5 712.5,444.5C 704.214,481.731 690.381,516.731 671,549.5C 605.715,652.754 511.882,709.421 389.5,719.5C 375.5,719.5 361.5,719.5 347.5,719.5C 278.08,714.624 215.413,691.457 159.5,650C 75.2425,584.678 28.7425,498.512 20,391.5C 15.1208,274.135 56.6208,176.968 144.5,100C 241.565,22.6774 350.232,0.344109 470.5,33C 525.899,49.5139 573.899,78.0139 614.5,118.5C 593.174,142.492 571.507,166.159 549.5,189.5C 493.431,135.827 426.431,111.327 348.5,116C 247.969,128.328 176.802,180.494 135,272.5C 106.118,348.616 110.785,422.616 149,494.5C 191.717,565.682 254.217,607.682 336.5,620.5 Z"/></g>
<g><path style="opacity:1" fill="#f68714" d="M 806.5,71.5 C 807.922,71.7086 809.255,72.2086 810.5,73C 818.344,80.0113 826.01,87.178 833.5,94.5C 823.167,106.5 812.833,118.5 802.5,130.5C 813.5,141.167 824.5,151.833 835.5,162.5C 828.147,171.35 820.314,179.684 812,187.5C 800.696,177.698 789.529,167.698 778.5,157.5C 773.843,162.325 769.343,167.325 765,172.5C 755.693,165.026 746.859,157.026 738.5,148.5C 743.195,143.593 747.528,138.426 751.5,133C 739.854,122.022 728.188,111.022 716.5,100C 724.345,91.3228 732.345,82.8228 740.5,74.5C 752.167,85.1667 763.833,95.8333 775.5,106.5C 786.198,95.1362 796.532,83.4695 806.5,71.5 Z"/></g>
<g><path style="opacity:1" fill="#f6831c" d="M 631.5,191.5 C 634.167,191.5 636.833,191.5 639.5,191.5C 639.5,197.167 639.5,202.833 639.5,208.5C 644.5,208.5 649.5,208.5 654.5,208.5C 654.5,211.167 654.5,213.833 654.5,216.5C 649.5,216.5 644.5,216.5 639.5,216.5C 639.5,222.167 639.5,227.833 639.5,233.5C 636.833,233.5 634.167,233.5 631.5,233.5C 631.5,227.833 631.5,222.167 631.5,216.5C 626.5,216.5 621.5,216.5 616.5,216.5C 616.5,213.833 616.5,211.167 616.5,208.5C 621.5,208.5 626.5,208.5 631.5,208.5C 631.5,202.833 631.5,197.167 631.5,191.5 Z"/></g>
<g><path style="opacity:1" fill="#f6841f" d="M 722.5,191.5 C 724.451,191.227 725.951,191.893 727,193.5C 729.641,203.087 732.474,212.587 735.5,222C 745.075,219.783 754.741,217.617 764.5,215.5C 765.574,219.629 766.574,223.796 767.5,228C 767.415,229.107 767.081,230.107 766.5,231C 758.115,233.346 749.782,235.846 741.5,238.5C 741.214,241.929 741.214,245.263 741.5,248.5C 736.611,250.305 731.611,251.639 726.5,252.5C 725.833,249.5 725.167,246.5 724.5,243.5C 715.091,245.853 705.757,248.519 696.5,251.5C 694.028,246.418 692.361,241.084 691.5,235.5C 700.438,233.147 709.272,230.48 718,227.5C 716.617,216.965 714.117,206.632 710.5,196.5C 714.451,194.524 718.451,192.857 722.5,191.5 Z"/></g>
<g><path style="opacity:1" fill="#f68817" d="M 665.5,303.5 C 681.842,302.341 696.842,306.174 710.5,315C 716.43,319.022 718.93,324.522 718,331.5C 713.879,335.815 709.045,336.649 703.5,334C 697.781,327.133 690.447,322.8 681.5,321C 674.111,320.199 666.777,320.533 659.5,322C 647.864,327.136 646.53,334.136 655.5,343C 658.606,344.636 661.773,346.136 665,347.5C 680.042,350.736 694.542,355.569 708.5,362C 721.564,370.64 725.731,382.473 721,397.5C 715.765,407.385 707.598,413.552 696.5,416C 676.023,420.142 656.69,417.142 638.5,407C 633.412,403.917 628.912,400.083 625,395.5C 624.216,386.95 628.05,383.117 636.5,384C 645.049,391.942 655.049,397.276 666.5,400C 673.833,400.667 681.167,400.667 688.5,400C 702.51,396.183 705.176,388.516 696.5,377C 690.736,374.078 684.736,371.745 678.5,370C 663.997,367.946 650.663,362.946 638.5,355C 627.014,343.688 625.514,331.188 634,317.5C 643.058,309.384 653.558,304.717 665.5,303.5 Z"/></g>
<g><path style="opacity:1" fill="#f68816" d="M 780.5,303.5 C 792.737,302.65 804.404,304.817 815.5,310C 827.363,317.213 834.53,327.713 837,341.5C 837.667,365.167 837.667,388.833 837,412.5C 831.553,418.29 825.553,418.957 819,414.5C 818.581,413.328 817.915,412.328 817,411.5C 816.5,401.839 816.334,392.172 816.5,382.5C 797.5,382.5 778.5,382.5 759.5,382.5C 759.666,391.506 759.5,400.506 759,409.5C 756.752,416.711 751.918,419.211 744.5,417C 742.376,415.878 740.543,414.378 739,412.5C 738.048,387.125 738.381,361.792 740,336.5C 746.522,316.802 760.022,305.802 780.5,303.5 Z"/></g>
<g><path style="opacity:1" fill="#f68713" d="M 933.5,321.5 C 923.167,321.5 912.833,321.5 902.5,321.5C 902.5,350.5 902.5,379.5 902.5,408.5C 899.891,417.403 894.224,419.903 885.5,416C 883.513,414.681 882.346,412.848 882,410.5C 881.5,380.835 881.333,351.169 881.5,321.5C 869.829,321.667 858.162,321.5 846.5,321C 841.776,318.565 840.276,314.731 842,309.5C 843.214,307.951 844.714,306.785 846.5,306C 876.833,305.333 907.167,305.333 937.5,306C 942.224,308.435 943.724,312.269 942,317.5C 939.859,320.321 937.025,321.654 933.5,321.5 Z"/></g>
<g><path style="opacity:1" fill="#3b3738" d="M 175.5,305.5 C 191.34,303.92 204.34,309.254 214.5,321.5C 227.351,305.889 243.351,301.722 262.5,309C 275,314.849 282.167,324.682 284,338.5C 284.667,362.5 284.667,386.5 284,410.5C 282.006,418.789 276.839,421.622 268.5,419C 266.667,417.833 265.167,416.333 264,414.5C 263.667,389.167 263.333,363.833 263,338.5C 259.931,324.867 251.431,319.7 237.5,323C 230.618,325.907 226.452,331.074 225,338.5C 224.667,363.833 224.333,389.167 224,414.5C 217.667,421.167 211.333,421.167 205,414.5C 204.964,388.118 204.298,361.784 203,335.5C 199.83,326.162 193.33,321.829 183.5,322.5C 173.418,323.079 167.584,328.412 166,338.5C 165.667,363.833 165.333,389.167 165,414.5C 159.689,420.257 153.856,420.923 147.5,416.5C 146.066,414.78 145.233,412.78 145,410.5C 144.057,384.798 144.39,359.131 146,333.5C 147.823,326.352 151.323,320.185 156.5,315C 162.378,310.727 168.712,307.561 175.5,305.5 Z"/></g>
<g><path style="opacity:1" fill="#3a3637" d="M 583.5,384.5 C 564.341,383.503 545.007,383.17 525.5,383.5C 525.5,392.833 525.5,402.167 525.5,411.5C 523.38,418.398 518.713,420.898 511.5,419C 509.391,417.859 507.558,416.359 506,414.5C 505.333,390.5 505.333,366.5 506,342.5C 512.717,317.623 529.05,305.29 555,305.5C 581.515,305.237 597.849,317.904 604,343.5C 604.667,367.167 604.667,390.833 604,414.5C 597.667,421.167 591.333,421.167 585,414.5C 583.577,404.58 583.077,394.58 583.5,384.5 Z"/></g>
<g><path style="opacity:1" fill="#3a3637" d="M 323.5,329.5 C 322.508,337.316 322.174,345.316 322.5,353.5C 336.5,353.5 350.5,353.5 364.5,353.5C 371.652,354.5 374.152,358.5 372,365.5C 370.786,367.049 369.286,368.215 367.5,369C 352.504,369.5 337.504,369.667 322.5,369.5C 322.334,378.839 322.5,388.173 323,397.5C 324.167,398.667 325.333,399.833 326.5,401C 345.167,401.333 363.833,401.667 382.5,402C 387.904,404.083 389.737,407.916 388,413.5C 386.786,415.049 385.286,416.215 383.5,417C 362.167,417.667 340.833,417.667 319.5,417C 309.795,415.126 303.962,409.292 302,399.5C 301.333,374.5 301.333,349.5 302,324.5C 304.281,315.219 310.114,309.719 319.5,308C 339.833,307.333 360.167,307.333 380.5,308C 384.277,310.955 385.443,314.788 384,319.5C 382.786,321.049 381.286,322.215 379.5,323C 361.833,323.333 344.167,323.667 326.5,324C 324.393,325.264 323.393,327.097 323.5,329.5 Z"/></g>
<g><path style="opacity:1" fill="#3a3637" d="M 404.5,307.5 C 435.168,307.333 465.835,307.5 496.5,308C 501.689,310.913 502.856,315.08 500,320.5C 498.745,321.211 497.579,322.044 496.5,323C 484.838,323.5 473.171,323.667 461.5,323.5C 461.667,352.835 461.5,382.169 461,411.5C 458.752,418.711 453.918,421.211 446.5,419C 444.376,417.878 442.543,416.378 441,414.5C 440.5,384.168 440.333,353.835 440.5,323.5C 428.829,323.667 417.162,323.5 405.5,323C 400.776,320.565 399.276,316.731 401,311.5C 402.376,310.295 403.542,308.962 404.5,307.5 Z"/></g>
<g><path style="opacity:1" fill="#fffcfa" d="M 779.5,320.5 C 792.466,318.321 803.299,321.988 812,331.5C 813.618,335.068 814.951,338.735 816,342.5C 816.5,350.493 816.666,358.493 816.5,366.5C 797.5,366.5 778.5,366.5 759.5,366.5C 759.334,358.493 759.5,350.493 760,342.5C 762.138,331.201 768.638,323.868 779.5,320.5 Z"/></g>
<g><path style="opacity:1" fill="#fdfdfd" d="M 546.5,322.5 C 558.006,320.425 568.173,323.092 577,330.5C 580.09,334.682 582.09,339.349 583,344.5C 583.5,352.159 583.666,359.826 583.5,367.5C 564.5,367.5 545.5,367.5 526.5,367.5C 526.147,358.109 526.647,348.775 528,339.5C 531.215,330.445 537.382,324.778 546.5,322.5 Z"/></g>
<g><path style="opacity:1" fill="#fdecda" d="M 933.5,321.5 C 923.681,322.494 913.681,322.827 903.5,322.5C 903.831,351.338 903.498,380.005 902.5,408.5C 902.5,379.5 902.5,350.5 902.5,321.5C 912.833,321.5 923.167,321.5 933.5,321.5 Z"/></g>
<g><path style="opacity:1" fill="#c5c4c5" d="M 323.5,329.5 C 323.5,337.167 323.5,344.833 323.5,352.5C 337.344,352.171 351.01,352.504 364.5,353.5C 350.5,353.5 336.5,353.5 322.5,353.5C 322.174,345.316 322.508,337.316 323.5,329.5 Z"/></g>
<g><path style="opacity:1" fill="#8f8d8d" d="M 583.5,384.5 C 564.5,384.5 545.5,384.5 526.5,384.5C 526.827,393.682 526.493,402.682 525.5,411.5C 525.5,402.167 525.5,392.833 525.5,383.5C 545.007,383.17 564.341,383.503 583.5,384.5 Z"/></g>
<g><path style="opacity:1" fill="#5e86a0" d="M 336.5,620.5 C 352.787,622.111 369.12,622.778 385.5,622.5C 375.008,623.659 364.341,623.825 353.5,623C 347.586,622.877 341.919,622.044 336.5,620.5 Z"/></g>
</svg>
