<?xml version="1.0" encoding="utf-8"?>
<!-- Generator: Adobe Illustrator 22.0.1, SVG Export Plug-In . SVG Version: 6.00 Build 0)  -->
<svg version="1.1" id="Layer_1" xmlns="http://www.w3.org/2000/svg" xmlns:xlink="http://www.w3.org/1999/xlink" x="0px" y="0px"
	 viewBox="0 0 396.4 61" style="enable-background:new 0 0 396.4 61;" xml:space="preserve">
<style type="text/css">
	.st0{fill:#CF0A2C;}
	.st1{fill:#55565A;}
</style>
<path class="st0" d="M33.7,8c-1.5,0-3.1,0.2-4.5,0.4c-1.5-0.3-3-0.4-4.5-0.4C12.3,8,2.3,18.1,2.3,30.5S12.4,53,24.8,53
	c1.5,0,3-0.2,4.5-0.5c1.5,0.3,3,0.5,4.5,0.5c12.3,0,22.4-10.1,22.4-22.5C56.1,18.1,46.1,8,33.7,8 M11.2,30.5c0-10.9,7.7-19.9,18-22
	v44C18.9,50.4,11.2,41.3,11.2,30.5 M33.7,52.3c-1,0-2-0.1-2.9-0.2c9.4-2.7,16.4-11.3,16.4-21.6s-6.9-19-16.4-21.6
	c1-0.1,2-0.2,2.9-0.2c12,0,21.7,9.8,21.7,21.8C55.5,42.5,45.7,52.3,33.7,52.3"/>
<g>
	<path class="st1" d="M385.5,44.2v4.3h2v-4.3l3.8-6.3H389l-2.5,4.4l-2.5-4.4h-2.3L385.5,44.2z M371,39.6h3.5v8.9h2v-8.9h3.5v-1.8h-9
		V39.6z M366.1,48.5h2.1V37.8h-2.1V48.5z M354.3,46.5c0,1.2,1,2.2,2.2,2.2h3.8c1.2,0,2.2-1,2.2-2.2v-1.7c0-0.8-0.5-1.5-1.3-1.8
		l-4.5-1.2c-0.3-0.1-0.4-0.3-0.4-0.6v-1c0-0.4,0.3-0.7,0.7-0.7h2.8c0.4,0,0.7,0.3,0.7,0.7v0.9h2v-1.3c0-1.2-1-2.2-2.2-2.2h-3.8
		c-1.2,0-2.2,1-2.2,2.2v1.7c0,0.8,0.5,1.5,1.3,1.7l4.5,1.2c0.3,0.1,0.4,0.3,0.4,0.6v1c0,0.4-0.3,0.7-0.7,0.7H357
		c-0.4,0-0.7-0.3-0.7-0.7v-0.8h-1.9v1.3H354.3z M345.3,42.9v-3.3h2.5c0.5,0,0.9,0.4,0.9,0.9v1.6c0,0.5-0.4,0.9-0.9,0.9h-2.5V42.9z
		 M343.2,48.5h2v-3.9h1.4l2.7,3.9h2.3l-2.8-3.9h0.1c1-0.2,1.6-1,1.6-2.1V40c0-1.2-1-2.2-2.2-2.2H343v10.7H343.2z M332.6,48.5h7.4
		v-1.9h-5.3v-2.7h4v-1.7h-4v-2.6h5.2v-1.8h-7.3L332.6,48.5L332.6,48.5z M320,37.8l4.1,10.6h1.7l4.1-10.6h-2.2l-2.7,7.5l-2.7-7.5
		C322.3,37.8,320,37.8,320,37.8z M315.1,48.5h2.1V37.8h-2.1V48.5z M302.4,48.5h2v-7.6l4.7,4.7v2.9h2V37.8h-2v5.1l-5.1-5.1h-1.6V48.5
		z M290.2,46.5c0,1.2,1,2.2,2.2,2.2h4.1c1.2,0,2.2-1,2.2-2.2v-8.7h-2v8.3c0,0.4-0.3,0.7-0.7,0.7h-3c-0.4,0-0.7-0.3-0.7-0.7v-8.3h-2
		v8.7H290.2z M283,48.5v-1.9h-5.3v-8.7h-2v10.6C275.7,48.5,283,48.5,283,48.5z M266.5,44.1l1.4-3.7l1.4,3.7H266.5z M262.8,48.5h2.1
		l1-2.7h3.9l1,2.7h2.1l-4.1-10.6h-1.9L262.8,48.5z M252,46.5c0,1.2,1,2.2,2.2,2.2h4c1.2,0,2.2-1,2.2-2.2v-1.4h-2v1
		c0,0.4-0.3,0.7-0.7,0.7h-3c-0.4,0-0.7-0.3-0.7-0.7v-5.9c0-0.4,0.3-0.7,0.7-0.7h3c0.4,0,0.7,0.3,0.7,0.7v1h2v-1.4
		c0-1.2-1-2.2-2.2-2.2h-4c-1.2,0-2.2,1-2.2,2.2L252,46.5L252,46.5z M246.2,48.5h2.1V37.8h-2.1V48.5z M233.5,48.5h2v-7.6l4.7,4.7v2.9
		h2V37.8h-2v5.1l-5.1-5.1h-1.6L233.5,48.5L233.5,48.5z M221.2,48.5h2V44h4.4v4.5h2V37.8h-2v4.3h-4.4v-4.3h-2V48.5z M209.3,46.5
		c0,1.2,1,2.2,2.2,2.2h4c1.2,0,2.2-1,2.2-2.2v-1.4h-2v1c0,0.4-0.3,0.7-0.7,0.7h-3c-0.4,0-0.7-0.3-0.7-0.7v-5.9
		c0-0.4,0.3-0.7,0.7-0.7h3c0.4,0,0.7,0.3,0.7,0.7v1h2v-1.4c0-1.2-1-2.2-2.2-2.2h-4c-1.2,0-2.2,1-2.2,2.2V46.5z M198.8,48.5h7.4v-1.9
		h-5.4v-2.7h4v-1.7h-4v-2.6h5.2v-1.8h-7.3v10.7H198.8z M187,39.6h3.5v8.9h2v-8.9h3.5v-1.8h-9V39.6z M171.7,39.6h3.5v8.9h2v-8.9h3.5
		v-1.8h-9.1v1.8H171.7z M161.2,46.5c0,1.2,1,2.2,2.2,2.2h3.8c1.2,0,2.2-1,2.2-2.2v-1.7c0-0.8-0.5-1.5-1.3-1.8l-4.5-1.2
		c-0.3-0.1-0.4-0.3-0.4-0.6v-1c0-0.4,0.3-0.7,0.7-0.7h2.8c0.4,0,0.7,0.3,0.7,0.7v0.9h2v-1.3c0-1.2-1-2.2-2.2-2.2h-3.8
		c-1.2,0-2.2,1-2.2,2.2v1.7c0,0.8,0.5,1.5,1.3,1.7l4.5,1.2c0.3,0.1,0.4,0.3,0.4,0.6v1c0,0.4-0.3,0.7-0.7,0.7h-2.8
		c-0.4,0-0.7-0.3-0.7-0.7v-0.8h-1.9v1.3H161.2z M152.3,44.1l1.4-3.7l1.4,3.7H152.3z M148.5,48.5h2.1l1-2.7h3.9l1,2.7h2.1l-4.1-10.6
		h-1.9L148.5,48.5z M139,48.5h7.4v-1.9H141v-2.7h4v-1.7h-4v-2.6h5.2v-1.8H139V48.5z M123.7,48.5h7.4v-1.9h-5.4v-2.7h4v-1.7h-4v-2.6
		h5.2v-1.8h-7.3v10.7H123.7z M121,48.5v-1.9h-5.3v-8.7h-2v10.6C113.7,48.5,121,48.5,121,48.5z M103.4,46.6v-6.8h3.9
		c0.4,0,0.7,0.3,0.7,0.7V46c0,0.4-0.3,0.7-0.7,0.7h-3.9V46.6z M107.9,48.5c1.2,0,2.2-1,2.2-2.2V40c0-1.2-1-2.2-2.2-2.2h-6.6v10.6
		h6.6V48.5z M91,46.6v-6.8h3.9c0.4,0,0.7,0.3,0.7,0.7V46c0,0.4-0.3,0.7-0.7,0.7H91V46.6z M95.5,48.5c1.2,0,2.2-1,2.2-2.2V40
		c0-1.2-1-2.2-2.2-2.2H89v10.6h6.5V48.5z M83,48.5h2V37.8h-2V48.5z M68.5,48.5h1.9v-5.7l2.9,5.7h0.9l2.9-5.7v5.7H79V37.8h-1.5
		l-3.8,7.4L70,37.8h-1.5V48.5z"/>
	<path class="st1" d="M354.2,26.7h2.1V16h-2.1V26.7z M342.4,24.7c0,1.2,1,2.2,2.2,2.2h3.8c1.2,0,2.2-1,2.2-2.2V23
		c0-0.8-0.5-1.5-1.3-1.8l-4.5-1.2c-0.3-0.1-0.4-0.3-0.4-0.6v-1c0-0.4,0.3-0.7,0.7-0.7h2.8c0.4,0,0.7,0.3,0.7,0.7v0.9h2V18
		c0-1.2-1-2.2-2.2-2.2h-3.8c-1.2,0-2.2,1-2.2,2.2v1.7c0,0.8,0.5,1.5,1.3,1.7l4.5,1.2c0.3,0.1,0.4,0.3,0.4,0.6v1
		c0,0.4-0.3,0.7-0.7,0.7h-2.8c-0.4,0-0.7-0.3-0.7-0.7v-0.9h-1.9v1.4H342.4z M332.1,26.7h7.4v-1.9h-5.4v-2.7h4v-1.7h-4v-2.6h5.2V16
		H332L332.1,26.7L332.1,26.7z M320.3,17.8h3.5v8.9h2v-8.9h3.5V16h-9.1v1.8H320.3z M315.4,26.7h2.1V16h-2.1V26.7z M303.6,24.7
		c0,1.2,1,2.2,2.2,2.2h3.8c1.2,0,2.2-1,2.2-2.2V23c0-0.8-0.5-1.5-1.3-1.8L306,20c-0.3-0.1-0.4-0.3-0.4-0.6v-1c0-0.4,0.3-0.7,0.7-0.7
		h2.8c0.4,0,0.7,0.3,0.7,0.7v0.9h2V18c0-1.2-1-2.2-2.2-2.2h-3.8c-1.2,0-2.2,1-2.2,2.2v1.7c0,0.8,0.5,1.5,1.3,1.7l4.5,1.2
		c0.3,0.1,0.4,0.3,0.4,0.6v1c0,0.4-0.3,0.7-0.7,0.7h-2.8c-0.4,0-0.7-0.3-0.7-0.7v-0.9h-1.9v1.4H303.6z M294.5,21.1v-3.4h2.5
		c0.5,0,0.9,0.4,0.9,0.9v1.6c0,0.5-0.4,0.9-0.9,0.9H294.5z M292.5,26.7h2v-3.9h1.4l2.7,3.9h2.3l-2.8-3.9h0.1c1-0.2,1.6-1,1.6-2.1
		v-2.5c0-1.2-1-2.2-2.2-2.2h-5.4v10.7H292.5z M281.8,26.7h7.4v-1.9h-5.4v-2.7h4v-1.7h-4v-2.6h5.2V16h-7.3L281.8,26.7L281.8,26.7z
		 M269.3,16l4.1,10.6h1.7l4.1-10.6H277l-2.7,7.5l-2.7-7.5C271.6,16,269.3,16,269.3,16z M264.4,26.7h2.1V16h-2.1V26.7z M251.7,26.7h2
		v-7.6l4.7,4.7v2.9h2V16h-2v5.1l-5.1-5.1h-1.6L251.7,26.7L251.7,26.7z M239.5,24.7c0,1.2,1,2.2,2.2,2.2h4.1c1.2,0,2.2-1,2.2-2.2V16
		h-2v8.3c0,0.4-0.3,0.7-0.7,0.7h-3c-0.4,0-0.7-0.3-0.7-0.7V16h-2v8.7H239.5z M223.2,26.7h2v-4.5l4.4,4.5h2.6l-5.2-5.4l5.1-5.3h-2.4
		l-4.5,4.6V16h-2L223.2,26.7L223.2,26.7z M217.2,26.7h2.1V16h-2.1V26.7z M204.5,26.7h2v-7.6l4.7,4.7v2.9h2V16h-2v5.1l-5.1-5.1h-1.6
		L204.5,26.7L204.5,26.7z M192.8,26.7h2v-4.5l4.4,4.5h2.6l-5.2-5.4l5.1-5.3h-2.4l-4.5,4.6V16h-2L192.8,26.7L192.8,26.7z M182.1,26.7
		h7.4v-1.9h-5.4v-2.7h4v-1.7h-4v-2.6h5.2V16H182v10.7H182.1z M170.3,17.8h3.5v8.9h2v-8.9h3.5V16h-9.1v1.8H170.3z M154.6,24.7
		c0,1.2,1,2.2,2.2,2.2h4.1c1.2,0,2.2-1,2.2-2.2V16h-2v8.3c0,0.4-0.3,0.7-0.7,0.7h-3c-0.4,0-0.7-0.3-0.7-0.7V16h-2v8.7H154.6z
		 M142.7,24.7c0,1.2,1,2.2,2.2,2.2h4c1.2,0,2.2-1,2.2-2.2v-3.3h-3.9V23h2v1.3c0,0.4-0.3,0.7-0.7,0.7h-3c-0.4,0-0.7-0.3-0.7-0.7v-5.9
		c0-0.4,0.3-0.7,0.7-0.7h3c0.4,0,0.7,0.3,0.7,0.7v1h2V18c0-1.2-1-2.2-2.2-2.2h-4c-1.2,0-2.2,1-2.2,2.2v6.7H142.7z M136.6,17.7
		c0.4,0,0.7,0.3,0.7,0.7v5.9c0,0.4-0.3,0.7-0.7,0.7H133c-0.4,0-0.7-0.3-0.7-0.7v-5.9c0-0.4,0.3-0.7,0.7-0.7
		C133,17.7,136.6,17.7,136.6,17.7z M132.4,15.8c-1.2,0-2.2,1-2.2,2.2v6.7c0,1.2,1,2.2,2.2,2.2h4.7c1.2,0,2.2-1,2.2-2.2V18
		c0-1.2-1-2.2-2.2-2.2H132.4z M120.1,24.8V18h3.9c0.4,0,0.7,0.3,0.7,0.7v5.5c0,0.4-0.3,0.7-0.7,0.7h-3.9V24.8z M124.6,26.7
		c1.2,0,2.2-1,2.2-2.2v-6.3c0-1.2-1-2.2-2.2-2.2H118v10.6L124.6,26.7L124.6,26.7z M104.3,22.2l1.4-3.7l1.4,3.7H104.3z M100.6,26.7
		h2.1l1-2.8h3.9l1,2.8h2.1l-4.1-10.6h-1.9L100.6,26.7z M91.1,17.8h3.5v8.9h2v-8.9h3.5V16H91L91.1,17.8L91.1,17.8z M83.2,21.1v-3.4
		h2.5c0.5,0,0.9,0.4,0.9,0.9v1.6c0,0.5-0.4,0.9-0.9,0.9H83.2z M81.2,26.7h2v-3.9h1.4l2.7,3.9h2.3l-2.8-3.9H87c1-0.2,1.6-1,1.6-2.1
		v-2.5c0-1.2-1-2.2-2.2-2.2h-5.3L81.2,26.7L81.2,26.7z M74.8,17.7c0.4,0,0.7,0.3,0.7,0.7v5.9c0,0.4-0.3,0.7-0.7,0.7h-3.6
		c-0.4,0-0.7-0.3-0.7-0.7v-5.9c0-0.4,0.3-0.7,0.7-0.7C71.2,17.7,74.8,17.7,74.8,17.7z M70.7,15.8c-1.2,0-2.2,1-2.2,2.2v6.7
		c0,1.2,1,2.2,2.2,2.2h4.7c1.2,0,2.2-1,2.2-2.2V18c0-1.2-1-2.2-2.2-2.2H70.7z"/>
	<polygon class="st1" points="146.9,12.3 144.9,12.3 144.9,14.1 146.9,14.1 149,14.1 149,12.3 	"/>
	<polygon class="st1" points="218.2,12.3 217.2,12.3 217.2,14 218.2,14 219.3,14 219.3,12.3 	"/>
	<polygon class="st1" points="265.4,12.3 264.4,12.3 264.4,14 265.4,14 266.4,14 266.4,12.3 	"/>
	<polygon class="st1" points="241.6,12.3 240.6,12.3 240.6,14 241.6,14 242.7,14 242.7,12.3 	"/>
	<polygon class="st1" points="245.6,12.3 244.5,12.3 244.5,14 245.6,14 246.6,14 246.6,12.3 	"/>
	<polygon class="st1" points="316.4,12.3 315.4,12.3 315.4,14 316.4,14 317.4,14 317.4,12.3 	"/>
	<polygon class="st1" points="355.3,12.3 354.2,12.3 354.2,14 355.3,14 356.3,14 356.3,12.3 	"/>
</g>
</svg>
