<svg xmlns="http://www.w3.org/2000/svg" role="img" viewBox="10.81 173.81 477.88 151.88"><path fill="#2D88C9" d="M147.029 234.179c-5.503-6.787-12.657-10.181-21.553-10.181-12.382 0-21.462 6.237-27.3323 18.527-2.4764-6.053-5.9617-10.639-10.6393-13.849-4.5859-3.119-9.9055-4.769-15.8672-4.769-11.1896 0-19.7194 5.136-25.5893 15.408-.0917-.55-.1834-1.192-.2752-1.834-.4586-3.21-2.1095-5.962-4.3107-7.888-2.4764-2.109-5.6865-3.302-9.2635-3.118C25.3196 226.842 20 232.803 20 239.682v63.377c0 3.852 1.5592 7.338 4.0356 9.814 2.5681 2.568 6.0534 4.127 9.9972 4.036 7.7043-.092 13.7577-6.604 13.7577-14.308v-28.433c0-7.979 1.1924-14.125 3.577-18.527 2.3847-4.403 5.7783-6.695 10.2724-6.695 4.4025 0 7.5209 2.201 9.3553 6.512.4586 1.192.9171 2.384 1.284 3.76 1.8344 7.154 8.1629 12.29 15.5921 12.29 7.0622 0 13.3907-4.586 15.3167-11.373.459-1.651 1.101-3.21 1.835-4.586 2.292-4.402 5.686-6.695 10.18-6.695 4.586 0 7.704 2.201 9.539 6.512 1.834 4.311 2.751 10.18 2.751 17.518v30.083c0 3.853 1.56 7.246 4.036 9.814 2.568 2.568 6.053 4.128 9.997 4.036 7.613-.092 13.666-6.604 13.666-14.216v-39.439c.092-12.474-2.66-22.288-8.163-28.983zm298.443 2.569c-5.87 0-11.189 3.76-13.115 9.263l-3.761 10.639c-2.109 6.054-10.639 6.054-12.749.092l-21.095-57.782c-1.1-3.119-3.118-5.687-5.686-7.429-2.568-1.835-5.687-2.844-8.989-2.844-11.098 0-18.618 11.282-14.491 21.554l38.521 95.02c1.468 3.577 3.853 6.42 6.879 8.53 3.027 2.017 6.696 3.21 10.456 3.21 7.704 0 14.583-4.678 17.426-11.832l19.445-49.344c3.668-9.172-3.027-19.077-12.841-19.077zm-245.147-48.704c-3.302-3.393-7.245-5.044-11.648-5.044-4.678 0-8.621 1.651-11.832 4.953-3.21 3.302-4.861 7.337-4.861 12.015 0 4.586 1.651 8.53 4.861 11.831 3.302 3.302 7.154 4.953 11.74 4.953s8.438-1.651 11.74-4.953c3.302-3.301 4.861-7.245 4.861-11.831.184-4.494-1.467-8.53-4.861-11.924z"/><path fill="#2D88C9" d="M99.6123 288.109c-3.3018-3.393-7.2457-5.044-11.6482-5.044-4.6776 0-8.6214 1.651-11.8316 4.953-3.2101 3.301-4.861 7.337-4.861 12.015 0 4.585 1.6509 8.529 4.861 11.831 3.3019 3.302 7.154 4.953 11.7399 4.953 4.5859 0 8.4381-1.651 11.7399-4.953 3.3017-3.302 4.8607-7.246 4.8607-11.831.184-4.586-1.559-8.53-4.8607-11.924zm375.3907-94.195c-3.302-3.393-7.246-5.044-11.648-5.044-4.678 0-8.622 1.651-11.832 4.953-3.21 3.301-4.861 7.337-4.861 12.015 0 4.586 1.651 8.529 4.861 11.831 3.302 3.302 7.154 4.953 11.74 4.953s8.438-1.651 11.74-4.953c3.302-3.302 4.861-7.245 4.861-11.831.092-4.586-1.559-8.622-4.861-11.924zM198.85 230.603c-2.568-2.568-6.145-4.219-10.089-4.219-7.888 0-14.308 6.42-14.308 14.308v62.001c0 7.888 6.42 14.308 14.308 14.308s14.308-6.42 14.308-14.308v-62.001c0-3.944-1.559-7.521-4.219-10.089zm49.065-42.742c-2.569-2.568-6.146-4.219-10.089-4.219-7.888 0-14.308 6.42-14.308 14.308v104.742c0 7.888 6.42 14.308 14.308 14.308 7.887 0 14.308-6.42 14.308-14.308V197.95c0-3.944-1.651-7.521-4.219-10.089zM355.316 295.08l-21.829-33.11 21.554-23.939c4.035-4.494.825-11.648-5.137-11.648h-12.565c-2.843 0-5.595 1.284-7.429 3.394l-21.37 25.039c-2.385 2.843-7.063 1.1-7.063-2.568v-54.389c0-3.944-1.559-7.521-4.219-10.089-2.568-2.568-6.145-4.219-10.089-4.219-7.887 0-14.308 6.42-14.308 14.308v104.742c0 3.944 1.56 7.521 4.219 10.089 2.568 2.568 6.145 4.219 10.089 4.219 7.888 0 14.308-6.421 14.308-14.308v-2.477c0-1.742.642-3.485 1.835-4.769l6.603-7.246c2.293-2.476 6.329-2.109 8.163.734l13.575 21.37c1.284 2.018 3.026 3.669 5.136 4.77 2.018 1.1 4.402 1.742 6.787 1.742 11.189.275 17.977-12.29 11.74-21.645z"/></svg>