<?xml version="1.0" encoding="UTF-8" standalone="no"?>
<svg
   id="Layer_1"
   data-name="Layer 1"
   viewBox="0 0 1221 500"
   version="1.1"
   sodipodi:docname="mindgrove logo-07.svg"
   inkscape:version="1.2.1 (1:1.2.1+202210291243+9c6d41e410)"
   xmlns:inkscape="http://www.inkscape.org/namespaces/inkscape"
   xmlns:sodipodi="http://sodipodi.sourceforge.net/DTD/sodipodi-0.dtd"
   xmlns="http://www.w3.org/2000/svg"
   xmlns:svg="http://www.w3.org/2000/svg">
  <sodipodi:namedview
     id="namedview281"
     pagecolor="#ffffff"
     bordercolor="#000000"
     borderopacity="0.25"
     inkscape:showpageshadow="2"
     inkscape:pageopacity="0.0"
     inkscape:pagecheckerboard="0"
     inkscape:deskcolor="#d1d1d1"
     showgrid="false"
     inkscape:zoom="1.0819001"
     inkscape:cx="611.4243"
     inkscape:cy="250.94739"
     inkscape:window-width="1920"
     inkscape:window-height="1012"
     inkscape:window-x="1920"
     inkscape:window-y="32"
     inkscape:window-maximized="1"
     inkscape:current-layer="Layer_1" />
  <defs
     id="defs238">
    <style
       id="style227">
      .cls-1 {
        fill: url(#linear-gradient);
      }

      .cls-2 {
        fill: #050505;
      }

      .cls-3 {
        fill: #5e9556;
      }
    </style>
    <linearGradient
       id="linear-gradient"
       x1="160.07"
       y1="229.5"
       x2="395.98"
       y2="229.5"
       gradientUnits="userSpaceOnUse">
      <stop
         offset="0"
         stop-color="#3f583c"
         id="stop229" />
      <stop
         offset=".27"
         stop-color="#5d9556"
         id="stop231" />
      <stop
         offset=".67"
         stop-color="#a0d18e"
         id="stop233" />
      <stop
         offset="1"
         stop-color="#cdc66a"
         id="stop235" />
    </linearGradient>
  </defs>
  <g
     id="g258">
    <path
       class="cls-2"
       d="M469.87,273.58v-70.5h7.2l28.3,63.9h-2.9l28.3-63.9h7.2v70.5h-7.6v-59.8h3l-26.7,59.8h-5.5l-26.8-59.8h3v59.8h-7.5Z"
       id="path240" />
    <path
       class="cls-2"
       d="M555.57,273.58v-70.5h8.3v70.5h-8.3Z"
       id="path242" />
    <path
       class="cls-2"
       d="M581.46,273.58v-70.5h6.5l45.2,60h-2.3v-60h7.7v70.5h-6.4l-45.2-60h2.2v60h-7.7Z"
       id="path244" />
    <path
       class="cls-2"
       d="M656.16,273.58v-70.5h23.4c7.8,0,14.4,1.35,19.8,4.05,5.4,2.7,9.5,6.67,12.3,11.9,2.8,5.23,4.2,11.65,4.2,19.25s-1.4,13.93-4.2,19.2c-2.8,5.27-6.9,9.27-12.3,12-5.4,2.73-12,4.1-19.8,4.1h-23.4Zm8.3-7.1h14.5c9.6,0,16.73-2.35,21.4-7.05,4.67-4.7,7-11.75,7-21.15s-2.33-16.53-7-21.2c-4.67-4.67-11.8-7-21.4-7h-14.5v56.4Z"
       id="path246" />
    <path
       class="cls-2"
       d="M763.26,274.48c-7.73,0-14.2-1.43-19.4-4.3-5.2-2.87-9.1-7-11.7-12.4-2.6-5.4-3.9-11.87-3.9-19.4s1.37-13.9,4.1-19.3c2.73-5.4,6.67-9.57,11.8-12.5,5.13-2.93,11.33-4.4,18.6-4.4,5.13,0,9.58,.75,13.35,2.25,3.77,1.5,7.15,3.72,10.15,6.65l-3.1,6.5c-2.2-1.93-4.32-3.47-6.35-4.6-2.03-1.13-4.15-1.98-6.35-2.55-2.2-.57-4.77-.85-7.7-.85-8.33,0-14.72,2.52-19.15,7.55-4.43,5.03-6.65,12.15-6.65,21.35s2.15,16.37,6.45,21.3c4.3,4.93,10.98,7.4,20.05,7.4,3.33,0,6.52-.32,9.55-.95,3.03-.63,5.98-1.55,8.85-2.75l-1.8,4.5v-24.8h-18v-6.5h25.1v32.7c-2.87,1.53-6.48,2.77-10.85,3.7-4.37,.93-8.72,1.4-13.05,1.4Z"
       id="path248" />
    <path
       class="cls-2"
       d="M803.96,273.58v-70.5h28.8c7.4,0,13.13,1.75,17.2,5.25,4.07,3.5,6.1,8.38,6.1,14.65,0,4.13-.92,7.65-2.75,10.55-1.83,2.9-4.4,5.12-7.7,6.65-3.3,1.54-7.15,2.3-11.55,2.3l1.8-1.3h2c2.73,0,5.18,.67,7.35,2,2.17,1.33,3.88,3.57,5.15,6.7l10,23.7h-9.1l-9.6-23.3c-1.13-3-2.83-4.95-5.1-5.85-2.27-.9-5.1-1.35-8.5-1.35h-15.8v30.5h-8.3Zm8.3-37h19.3c5.33,0,9.38-1.15,12.15-3.45,2.77-2.3,4.15-5.62,4.15-9.95s-1.38-7.63-4.15-9.9c-2.77-2.27-6.82-3.4-12.15-3.4h-19.3v26.7Z"
       id="path250" />
    <path
       class="cls-2"
       d="M870.06,238.28c0-7.47,1.28-13.88,3.85-19.25,2.57-5.37,6.27-9.52,11.1-12.45,4.83-2.93,10.65-4.4,17.45-4.4s12.33,1.47,17.2,4.4c4.87,2.93,8.62,7.08,11.25,12.45,2.63,5.37,3.95,11.75,3.95,19.15s-1.33,13.9-4,19.3c-2.67,5.4-6.42,9.58-11.25,12.55-4.83,2.97-10.55,4.45-17.15,4.45s-12.6-1.48-17.4-4.45c-4.8-2.97-8.5-7.15-11.1-12.55-2.6-5.4-3.9-11.8-3.9-19.2Zm8.7,0c0,9.07,2,16.15,6,21.25,4,5.1,9.9,7.65,17.7,7.65s13.28-2.55,17.45-7.65c4.17-5.1,6.25-12.18,6.25-21.25s-2.07-16.22-6.2-21.25c-4.13-5.03-9.97-7.55-17.5-7.55s-13.7,2.52-17.7,7.55c-4,5.03-6,12.12-6,21.25Z"
       id="path252" />
    <path
       class="cls-2"
       d="M970.46,273.58l-30.7-70.5h8.9l27.3,63.9h-3.1l27.5-63.9h8.6l-30.9,70.5h-7.6Z"
       id="path254" />
    <path
       class="cls-2"
       d="M1018.06,273.58v-70.5h45v6.8h-36.9v24.5h34.7v6.9h-34.7v25.4h36.9v6.9h-45Z"
       id="path256" />
  </g>
  <path
     class="cls-2"
     d="M397.92,190.32v-44.7l-80.46-44.99-37.03,25.71-40.94-25.64-44.11,24.31v41l-34.36-18.28-42.28,24.29v88.17l36.26,26.99v91.68l87.23-48.53,38.15,26.26,41.31-24.35,37.02,24.4,39.21-25.76v-44.15l37.91-22.36v-48.49l-37.91-25.55Zm30.68,69.91l-37.91,22.36v44.38l-31.97,21.01-30.09-19.83,30.25-17.83-3.67-6.23-74.52,43.93-31.4-21.61,28.11-15.64-3.51-6.32-111.65,62.11v-83.02l-36.26-26.99v-80.35l35.18-20.21,75.7,40.27,3.4-6.38-37.64-20.02v-40.58l36.65-20.19,73.19,45.84,3.84-6.13-29.19-18.29,30.78-21.37,72.82,40.72v40.48l-35.52,24.47,4.1,5.95,35.06-24.15,34.27,23.1v40.51Z"
     id="path276" />
  <path
     class="cls-1"
     d="M395.98,243.5l-3.35-6.4-40.14,21.02-31.18-19.81v-40.68l37.59-22.5-3.71-6.2-37.55,22.48-76.06-42.69-3.54,6.3,33.99,19.08v41.8l-33.68,20.2-74.6-43.63-3.65,6.24,35.29,20.64v36.6l-31.63-18.75-3.69,6.22,37.04,21.96,31.48,19.61-31.46,19.13,3.76,6.18,36.43-22.16,38.31-21.68,38.77,22.48,39.69-23.49,41.9-21.95Zm-81.63,37.06l-38.69-22.43-40.09,22.69-32.96-20.53v-36.71l35.77,20.92,40.87-24.51v-41.84l34.83,19.55v44.59l31.32,19.89-31.05,18.38Z"
     id="path278" />
</svg>
