<?xml version="1.0" encoding="UTF-8" standalone="no"?>
<svg
   xmlns:ns0="http://ns.adobe.com/SaveForWeb/1.0/"
   xmlns:ns="http://ns.adobe.com/Variables/1.0/"
   xmlns:i="http://ns.adobe.com/AdobeIllustrator/10.0/"
   xmlns:dc="http://purl.org/dc/elements/1.1/"
   xmlns:cc="http://creativecommons.org/ns#"
   xmlns:rdf="http://www.w3.org/1999/02/22-rdf-syntax-ns#"
   xmlns:svg="http://www.w3.org/2000/svg"
   xmlns="http://www.w3.org/2000/svg"
   xmlns:sodipodi="http://sodipodi.sourceforge.net/DTD/sodipodi-0.dtd"
   xmlns:inkscape="http://www.inkscape.org/namespaces/inkscape"
   inkscape:export-ydpi="96"
   inkscape:export-xdpi="96"
   inkscape:export-filename="/home/a-wai/Projects/Perso/mobian/logo2.png"
   i:viewOrigin="251 467"
   i:rulerOrigin="0 0"
   i:pageBounds="0 792 612 0"
   width="720"
   height="128"
   viewBox="0 0 719.99999 128"
   overflow="visible"
   enable-background="new 0 0 108.758 144.133"
   xml:space="preserve"
   version="1.1"
   id="svg53"
   sodipodi:docname="mobian_logo.svg"
   inkscape:version="1.0rc1 (09960d6f05, 2020-04-09)"><defs
   id="defs57" /><sodipodi:namedview
   fit-margin-bottom="0"
   fit-margin-right="0"
   fit-margin-left="0"
   fit-margin-top="0"
   inkscape:document-rotation="0"
   pagecolor="#ffffff"
   bordercolor="#666666"
   borderopacity="1"
   objecttolerance="10"
   gridtolerance="10"
   guidetolerance="10"
   inkscape:pageopacity="0"
   inkscape:pageshadow="2"
   inkscape:window-width="2560"
   inkscape:window-height="1018"
   id="namedview55"
   showgrid="false"
   showborder="true"
   showguides="true"
   inkscape:guide-bbox="true"
   inkscape:snap-global="false"
   inkscape:zoom="2"
   inkscape:cx="332.25344"
   inkscape:cy="36.229753"
   inkscape:window-x="1920"
   inkscape:window-y="33"
   inkscape:window-maximized="1"
   inkscape:current-layer="g50" />
	<metadata
   id="metadata10">
		<ns:variableSets>
			<ns:variableSet
   varSetName="binding1"
   locked="none">
				<ns:variables />
				<ns:sampleDataSets />
			</ns:variableSet>
		</ns:variableSets>
		<ns0:sfw>
			<ns0:slices />
			<ns0:sliceSourceBounds
   y="322.867"
   x="251"
   width="108.758"
   height="144.133"
   bottomLeftOrigin="true" />
		</ns0:sfw>
	<rdf:RDF><cc:Work
     rdf:about=""><dc:format>image/svg+xml</dc:format><dc:type
       rdf:resource="http://purl.org/dc/dcmitype/StillImage" /><dc:title></dc:title></cc:Work></rdf:RDF></metadata>
	<g
   transform="translate(30.473,-107.697)"
   id="Layer_1"
   i:layer="yes"
   i:dimmedPercent="50"
   i:rgbTrio="#4F008000FFFF">
		<g
   id="g50">
			
			
			
			
			
			
			
			
			
			
			
			<g
   id="g96"
   transform="matrix(1.0460108,0,0,1.0451991,218.9992,139.44512)"><path
     id="path12"
     d="m 60.969,47.645 c -1.494,0.02 0.281,0.768 2.232,1.069 0.541,-0.422 1.027,-0.846 1.463,-1.26 -1.213,0.297 -2.449,0.304 -3.695,0.191"
     fill="#a80030"
     i:knockout="Off"
     inkscape:connector-curvature="0" /><path
     id="path14"
     d="m 68.986,45.646 c 0.893,-1.229 1.541,-2.573 1.77,-3.963 -0.201,0.99 -0.736,1.845 -1.244,2.749 -2.793,1.759 -0.264,-1.044 -0.002,-2.111 -3.002,3.783 -0.414,2.268 -0.524,3.325"
     fill="#a80030"
     i:knockout="Off"
     inkscape:connector-curvature="0" /><path
     id="path16"
     d="m 71.949,37.942 c 0.182,-2.691 -0.529,-1.839 -0.768,-0.814 0.278,0.146 0.499,1.898 0.768,0.814"
     fill="#a80030"
     i:knockout="Off"
     inkscape:connector-curvature="0" /><path
     id="path18"
     d="m 55.301,1.163 c 0.798,0.142 1.724,0.252 1.591,0.443 0.876,-0.193 1.073,-0.367 -1.591,-0.443"
     fill="#a80030"
     i:knockout="Off"
     inkscape:connector-curvature="0" /><path
     id="path20"
     d="M 56.893,1.606 56.332,1.723 56.855,1.675 56.893,1.606"
     fill="#a80030"
     i:knockout="Off"
     inkscape:connector-curvature="0" /><path
     id="path22"
     d="m 81.762,38.962 c 0.09,2.416 -0.705,3.59 -1.424,5.666 l -1.293,0.643 c -1.057,2.054 0.105,1.304 -0.652,2.937 -1.652,1.467 -5.006,4.589 -6.08,4.875 -0.785,-0.017 0.531,-0.926 0.703,-1.281 -2.209,1.516 -1.773,2.276 -5.152,3.199 L 67.766,54.78 c -8.33,3.92 -19.902,-3.847 -19.75,-14.443 -0.088,0.672 -0.253,0.504 -0.437,0.774 -0.43,-5.451 2.518,-10.926 7.49,-13.165 4.863,-2.406 10.564,-1.42 14.045,1.829 -1.912,-2.506 -5.721,-5.163 -10.232,-4.917 -4.421,0.072 -8.558,2.881 -9.938,5.932 -2.264,1.425 -2.528,5.496 -3.514,6.242 -1.329,9.76 2.497,13.975 8.97,18.936 1.016,0.686 0.286,0.791 0.422,1.313 -2.15,-1.006 -4.118,-2.526 -5.738,-4.387 0.86,1.257 1.787,2.479 2.986,3.439 -2.029,-0.685 -4.738,-4.913 -5.527,-5.085 3.495,6.258 14.178,10.975 19.775,8.634 -2.59,0.096 -5.879,0.053 -8.787,-1.022 -1.225,-0.629 -2.884,-1.93 -2.587,-2.173 7.636,2.851 15.522,2.158 22.128,-3.137 1.682,-1.31 3.518,-3.537 4.049,-3.567 -0.799,1.202 0.137,0.578 -0.477,1.639 1.672,-2.701 -0.729,-1.1 1.73,-4.664 l 0.908,1.25 c -0.34,-2.244 2.785,-4.966 2.467,-8.512 0.717,-1.084 0.799,1.168 0.039,3.662 1.055,-2.767 0.279,-3.212 0.549,-5.496 0.291,0.768 0.678,1.583 0.875,2.394 -0.688,-2.675 0.703,-4.503 1.049,-6.058 -0.342,-0.15 -1.061,1.182 -1.227,-1.976 0.025,-1.372 0.383,-0.719 0.52,-1.057 -0.268,-0.155 -0.975,-1.207 -1.404,-3.224 0.309,-0.475 0.832,1.229 1.256,1.298 -0.273,-1.603 -0.742,-2.826 -0.762,-4.057 -1.24,-2.59 -0.439,0.346 -1.443,-1.112 -1.32,-4.114 1.094,-0.955 1.258,-2.823 1.998,2.895 3.137,7.385 3.662,9.244 -0.4,-2.267 -1.045,-4.464 -1.834,-6.589 0.609,0.257 -0.979,-4.663 0.791,-1.405 C 87.189,15.552 81,9.062 75.305,6.018 76,6.655 76.879,7.455 76.565,7.581 73.731,5.896 74.229,5.763 73.823,5.051 71.518,4.112 71.364,5.128 69.839,5.053 65.489,2.745 64.651,2.99 60.648,1.546 L 60.83,2.398 C 57.949,1.438 57.473,2.76 54.36,2.4 54.171,2.253 55.358,1.864 56.336,1.723 53.55,2.091 53.68,1.173 50.954,1.824 51.625,1.353 52.337,1.04 53.053,0.64 50.782,0.778 47.629,1.962 48.602,0.884 44.897,2.538 38.316,4.859 34.623,8.322 L 34.507,7.546 c -1.692,2.031 -7.379,6.066 -7.832,8.699 l -0.453,0.105 c -0.879,1.491 -1.45,3.18 -2.148,4.713 -1.151,1.963 -1.688,0.756 -1.524,1.064 -2.265,4.592 -3.392,8.45 -4.363,11.616 0.692,1.035 0.017,6.232 0.278,10.391 -1.136,20.544 14.418,40.489 31.42,45.093 2.492,0.893 6.197,0.861 9.349,0.949 -3.718,-1.064 -4.198,-0.563 -7.822,-1.826 -2.613,-1.232 -3.185,-2.637 -5.037,-4.244 l 0.733,1.295 c -3.63,-1.285 -2.111,-1.59 -5.065,-2.525 l 0.783,-1.021 c -1.177,-0.09 -3.117,-1.982 -3.647,-3.033 l -1.288,0.051 c -1.546,-1.906 -2.371,-3.283 -2.31,-4.35 l -0.416,0.742 c -0.471,-0.809 -5.691,-7.158 -2.983,-5.68 -0.503,-0.458 -1.172,-0.747 -1.897,-2.066 l 0.551,-0.629 c -1.301,-1.677 -2.398,-3.826 -2.314,-4.542 0.695,0.938 1.177,1.114 1.655,1.275 -3.291,-8.164 -3.476,-0.449 -5.967,-8.31 l 0.526,-0.042 c -0.403,-0.611 -0.65,-1.27 -0.974,-1.919 l 0.23,-2.285 c -2.368,-2.736 -0.662,-11.645 -0.319,-16.53 0.235,-1.986 1.977,-4.101 3.3,-7.418 l -0.806,-0.138 c 1.542,-2.688 8.802,-10.799 12.166,-10.383 1.629,-2.046 -0.324,-0.008 -0.643,-0.522 3.579,-3.703 4.704,-2.616 7.119,-3.283 2.603,-1.545 -2.235,0.604 -1.001,-0.589 4.503,-1.149 3.19,-2.614 9.063,-3.197 0.62,0.352 -1.437,0.544 -1.953,1.001 3.75,-1.836 11.869,-1.417 17.145,1.018 6.117,2.861 12.994,11.314 13.266,19.267 l 0.309,0.083 c -0.156,3.162 0.484,6.819 -0.627,10.177 l 0.751,-1.591"
     fill="#a80030"
     i:knockout="Off"
     inkscape:connector-curvature="0" /><path
     id="path24"
     d="m 44.658,49.695 -0.211,1.047 c 0.983,1.335 1.763,2.781 3.016,3.821 -0.902,-1.759 -1.571,-2.486 -2.805,-4.868"
     fill="#a80030"
     i:knockout="Off"
     inkscape:connector-curvature="0" /><path
     id="path26"
     d="m 46.979,49.605 c -0.52,-0.576 -0.826,-1.268 -1.172,-1.956 0.33,1.211 1.006,2.252 1.633,3.312 l -0.461,-1.356"
     fill="#a80030"
     i:knockout="Off"
     inkscape:connector-curvature="0" /><path
     id="path28"
     d="m 88.063,40.675 -0.219,0.552 c -0.402,2.858 -1.273,5.686 -2.605,8.309 1.472,-2.767 2.421,-5.794 2.824,-8.861"
     fill="#a80030"
     i:knockout="Off"
     inkscape:connector-curvature="0" /><path
     id="path30"
     d="M 55.598,0.446 C 56.607,0.077 58.08,0.243 59.154,0 57.756,0.117 56.365,0.187 54.992,0.362 l 0.606,0.084"
     fill="#a80030"
     i:knockout="Off"
     inkscape:connector-curvature="0" /><path
     id="path32"
     d="m 20.127,19.308 c 0.233,2.154 -1.62,2.991 0.41,1.569 1.09,-2.454 -0.424,-0.677 -0.41,-1.569"
     fill="#a80030"
     i:knockout="Off"
     inkscape:connector-curvature="0" /><path
     id="path34"
     d="m 17.739,29.282 c 0.469,-1.437 0.553,-2.299 0.732,-3.132 -1.293,1.654 -0.596,2.007 -0.732,3.132"
     fill="#a80030"
     i:knockout="Off"
     inkscape:connector-curvature="0" /></g>
			
			
			
			
			
			
			
		<path
   style="stroke-width:2.80572"
   inkscape:connector-curvature="0"
   i:knockout="Off"
   d="m 356.37035,175.29872 c 0,12.09627 -2.20693,28.35843 -17.27958,28.35843 -2.08073,0 -4.67743,-0.39582 -6.36556,-0.7832 -0.26078,-4.68242 -0.26078,-12.74754 -0.26078,-22.11241 0,-11.18954 1.16655,-17.03415 2.08072,-19.90312 2.72569,-9.23291 8.83329,-9.35924 9.99983,-9.35924 9.87646,0 11.82538,13.65708 11.82538,23.79954 z m -37.29047,14.17923 c 0,9.62872 0,15.08875 -1.55913,19.24903 5.32801,2.08296 11.95155,3.25076 19.88188,3.25076 5.06722,0 19.75009,0 27.67481,-16.25658 3.76886,-7.54578 5.06721,-17.69383 5.06721,-25.36875 0,-4.68244 -0.52158,-14.95682 -4.28764,-21.46393 -3.63426,-6.10851 -9.48386,-9.23292 -15.71764,-9.23292 -12.47594,0 -16.11302,10.40633 -18.05914,15.74003 0,-6.63344 0.12619,-29.78731 1.16375,-41.62533 -8.4435,3.90484 -13.6453,4.5505 -19.22851,5.07264 5.06722,2.07732 5.06722,10.67018 5.06722,38.63844 v 31.99661"
   id="path40" /><path
   style="stroke-width:2.80572"
   inkscape:connector-curvature="0"
   i:knockout="Off"
   d="m 395.1246,211.20013 c -2.60231,-0.39019 -4.42504,-0.65127 -8.19391,-0.65127 -4.15024,0 -7.01614,0.26386 -9.99984,0.65127 1.29836,-2.47315 1.81713,-3.64656 2.20693,-12.09628 0.52158,-11.57973 0.65056,-42.54048 -0.25799,-49.04477 -0.65057,-4.94631 -1.81713,-5.7239 -3.63706,-7.02363 10.65321,-1.04149 13.6425,-1.81908 18.57792,-4.16029 -1.03475,5.71827 -1.17216,8.58726 -1.17216,17.29803 -0.25516,44.8845 -0.38698,49.69325 2.47612,55.02694"
   id="path42" /><path
   style="stroke-width:2.80572"
   inkscape:connector-curvature="0"
   i:knockout="Off"
   d="m 436.73355,174.38356 c -0.25797,8.19707 -0.38977,13.92097 -2.60231,18.47145 -2.72851,5.85586 -7.27413,7.5458 -10.65322,7.5458 -7.80413,0 -9.48666,-6.50153 -9.48666,-12.87389 0,-12.2254 10.91681,-13.14336 15.84943,-13.14336 z m -35.73691,16.00391 c 0,8.19705 2.4705,16.38851 9.75025,19.90313 3.24728,1.43167 6.49456,1.43167 7.53774,1.43167 11.95716,0 15.98122,-8.84832 18.45173,-14.31117 -0.13179,5.72391 0,9.23292 0.38979,13.78903 2.3387,-0.13206 4.67742,-0.39019 8.5781,-0.39019 2.20691,0 4.28764,0.25831 6.49455,0.39019 -1.43015,-2.20926 -2.20691,-3.51463 -2.60231,-8.58726 -0.25797,-4.94068 -0.25797,-9.88419 -0.25797,-16.7787 l 0.13178,-26.53656 c 0,-9.8898 -2.60231,-19.64486 -22.09441,-19.64486 -12.86014,0 -20.39506,3.90484 -24.16392,5.85583 1.56194,2.86337 2.86029,5.32809 4.02685,10.92848 5.07282,-4.42417 11.69918,-6.76539 18.45174,-6.76539 10.79061,0 10.79061,7.1556 10.79061,17.29804 -2.47051,-0.12624 -4.55124,-0.38458 -8.06212,-0.38458 -16.5084,0.003 -27.42241,6.36676 -27.42241,23.80234"
   id="path44" /><path
   style="stroke-width:2.80572"
   inkscape:connector-curvature="0"
   i:knockout="Off"
   d="m 511.57808,198.32347 c 0.13192,4.42416 0.13192,9.10658 1.94892,12.87946 -2.86312,-0.25831 -4.55125,-0.65127 -9.87365,-0.65127 -3.12109,0 -4.80924,0.26387 -7.27975,0.65127 0.51599,-1.68991 0.7824,-2.34121 1.04037,-4.55611 0.3898,-2.98686 0.65057,-13.00579 0.65057,-16.52041 v -14.0473 c 0,-6.1141 0,-14.96243 -0.39539,-18.08123 -0.25803,-2.20928 -0.90295,-8.19145 -8.44629,-8.19145 -7.40594,0 -9.87365,5.46002 -10.78501,9.8842 -1.03476,4.55048 -1.03476,9.49678 -1.03476,28.74583 0.12618,16.65238 0.12618,18.20756 1.42453,22.76367 -2.20691,-0.25831 -4.93541,-0.51651 -8.83327,-0.51651 -3.12109,0 -5.19903,0.12624 -7.79292,0.51651 0.90856,-2.08294 1.43016,-3.12442 1.68815,-10.40633 0.2636,-7.15558 0.78238,-42.27939 -0.3954,-50.59997 -0.64498,-5.07826 -1.94893,-6.24606 -3.37347,-7.54578 10.52702,-0.52216 13.9005,-2.21489 17.15338,-3.89921 v 13.78338 c 1.55635,-4.03677 4.80363,-13.0114 17.80118,-13.0114 16.2448,0 16.37099,11.838 16.50281,19.63924 v 39.16341"
   id="path46" /><path
   style="stroke-width:2.80572"
   inkscape:connector-curvature="0"
   i:knockout="Off"
   fill="#a80030"
   d="m 396.22106,120.46546 -10.7626,10.76846 -10.75696,-10.76846 10.75696,-10.76846 10.7626,10.76846"
   id="path48" /><path
   style="stroke-width:2.806;stroke-miterlimit:4;stroke-dasharray:none"
   inkscape:connector-curvature="0"
   id="path46-3"
   d="m 162.68089,138.74839 c -3.25289,1.68431 -6.62687,3.37615 -17.15389,3.8983 1.42454,1.29976 2.72884,2.46613 3.37381,7.54438 1.17777,8.32058 0.65795,43.44549 0.39435,50.60106 -0.25797,7.28189 -0.77836,8.32346 -1.68693,10.40642 2.5939,-0.39023 4.67266,-0.51538 7.79376,-0.51538 3.89786,0 6.62745,0.25724 8.83437,0.51538 -1.29835,-4.55612 -1.30329,-6.11238 -1.42947,-22.76473 0,-19.24903 3.8e-4,-24.19599 1.03514,-28.74647 0.91137,-4.42418 3.38371,-9.88007 10.78964,-9.88007 7.54334,0 8.18753,5.98209 8.44551,8.19137 0.3954,3.1188 0.39436,11.96278 0.39436,18.07689 v 14.04698 c 0,3.51463 -0.262,13.53839 -0.65176,16.52526 -0.258,2.21489 -0.52466,2.86632 -1.04064,4.55626 2.5939,-0.39021 4.67266,-0.52087 7.79375,-0.52087 3.89787,0 6.62746,0.2628 8.83438,0.52087 -0.006,-0.0186 -0.0106,-0.0346 -0.0166,-0.0548 0.184,0.0186 0.34898,0.0373 0.54222,0.0548 -1.09134,-2.26597 -1.50068,-4.8698 -1.70334,-7.53889 -0.15238,-3.03599 -0.18701,-7.38093 -0.24647,-15.22583 0,-19.24903 3.9e-4,-24.19603 1.03515,-28.74649 0.91137,-4.42418 3.37824,-9.88555 10.78417,-9.88555 7.54334,0 8.18752,5.98209 8.44551,8.19137 0.39539,3.1188 0.39433,11.96825 0.39433,18.08235 v 14.04703 c 0,3.51462 -0.26192,13.53288 -0.65176,16.51975 -0.25798,2.21489 -0.52464,2.86632 -1.04061,4.55626 2.47051,-0.3874 4.16327,-0.65249 7.28437,-0.65249 5.3224,0 7.00644,0.39421 9.86955,0.65249 -1.81714,-3.77291 -1.81803,-8.45503 -1.94983,-12.8792 v -39.16385 c -0.1318,-7.80125 -0.25743,-19.63953 -16.50214,-19.63953 -12.99754,0 -16.24386,8.97399 -17.8002,13.01076 l -0.46006,-0.95398 c -1.08782,-6.19004 -4.48305,-12.05678 -15.91065,-12.05678 -12.99754,0 -16.24387,8.97399 -17.8002,13.01076 z" /></g>
	</g>
</svg>
