<svg version="1.1" id="Layer_1" xmlns="http://www.w3.org/2000/svg" xmlns:xlink="http://www.w3.org/1999/xlink" x="0px" y="0px"
	 width="100%" viewBox="0 0 500 500" enable-background="new 0 0 500 500" xml:space="preserve">
<path fill="#010101" opacity="1.000000" stroke="none" 
	d="
M326.000000,501.000000 
	C217.333359,501.000000 109.166718,501.000000 1.000058,501.000000 
	C1.000039,334.333405 1.000039,167.666794 1.000019,1.000148 
	C167.666565,1.000098 334.333130,1.000098 500.999756,1.000049 
	C500.999847,167.666519 500.999847,334.333038 500.999939,500.999786 
	C442.833344,501.000000 384.666656,501.000000 326.000000,501.000000 
M184.846237,240.759766 
	C184.846237,240.759766 184.818970,240.468552 185.590607,240.312103 
	C186.101471,240.424484 186.612335,240.536880 187.243484,241.310669 
	C187.641602,241.830841 188.039719,242.350998 188.407837,243.470230 
	C188.895325,244.065552 189.382812,244.660873 189.992859,245.932938 
	C192.273926,249.595337 194.555008,253.257736 196.635529,257.635986 
	C196.025909,258.391846 195.416306,259.147736 194.353973,259.944122 
	C194.353973,259.944122 194.047546,260.279846 193.442749,260.270172 
	C192.675491,260.867310 191.908234,261.464417 190.468307,262.204865 
	C189.337448,262.970367 188.206589,263.735870 186.493195,264.481964 
	C185.922028,264.951294 185.350876,265.420624 184.106827,266.013367 
	C182.763565,266.851318 181.420288,267.689270 179.482895,268.464752 
	C178.877075,268.919769 178.271255,269.374786 177.046906,269.908875 
	C176.004517,270.550415 174.962112,271.191925 173.226135,271.964844 
	C173.499451,274.076324 173.772766,276.187805 174.046082,278.299316 
	C176.334656,277.756439 178.623230,277.213562 181.584747,276.639862 
	C184.040604,275.330902 186.496460,274.021973 189.637909,272.711975 
	C191.498093,271.511261 193.358276,270.310577 195.891830,269.002289 
	C197.235657,268.148193 198.579483,267.294128 200.663467,266.472137 
	C201.502945,266.821014 202.342438,267.169891 203.148331,267.782501 
	C203.148331,267.782501 203.403381,267.857513 203.396484,268.508423 
	C204.250580,269.700714 205.104691,270.893005 206.068115,272.770172 
	C208.169785,276.160126 210.271469,279.550079 212.381241,283.582886 
	C213.237396,284.756317 214.093552,285.929779 215.015137,287.611237 
	C215.147659,287.718872 215.280197,287.826538 215.418808,288.525970 
	C215.898682,289.110901 216.378555,289.695831 216.973038,290.893585 
	C217.443283,291.556183 217.913528,292.218750 218.374313,293.531769 
	C219.231613,294.724518 220.088928,295.917236 221.056213,297.799255 
	C223.173447,301.178314 225.290680,304.557343 227.384659,308.528198 
	C227.873581,309.116852 228.362503,309.705475 228.991501,310.913788 
	C229.486404,311.584595 229.981308,312.255371 230.507812,313.507690 
	C230.963287,314.088409 231.418762,314.669128 231.911438,315.678741 
	C231.911438,315.678741 232.239227,315.957855 232.250275,316.641968 
	C233.397308,318.213043 234.544342,319.784119 235.422440,320.986847 
	C234.380936,323.724823 233.361481,326.404816 232.164749,329.716187 
	C232.154633,330.152771 232.144516,330.589325 231.579102,331.546356 
	C230.787476,341.844482 236.310852,349.344391 245.857620,349.961304 
	C247.225586,349.927612 248.593552,349.893951 250.752243,350.022583 
	C258.384033,349.032471 262.526062,345.367218 264.027802,338.018677 
	C264.572235,335.354706 264.741119,332.613983 265.582886,329.090485 
	C268.288086,328.780060 271.453796,329.273682 273.624725,328.030365 
	C289.172455,319.125977 304.575348,309.961914 319.845184,300.588531 
	C321.506653,299.568665 322.028900,296.692841 323.079559,294.677856 
	C320.688232,294.601776 318.295898,294.459656 315.906342,294.496887 
	C315.322388,294.505951 314.743927,295.096252 314.169159,295.430054 
	C300.669861,303.269196 287.193817,311.148865 273.659729,318.927460 
	C269.362671,321.397125 264.374664,323.191589 265.517914,329.711945 
	C265.526093,329.758606 265.239624,329.856934 264.306976,330.138611 
	C261.882690,321.699310 257.917480,317.925537 250.085419,317.236115 
	C248.420853,317.293945 246.756287,317.351746 244.341309,317.196350 
	C242.022812,317.434204 239.704300,317.672089 237.807144,317.455353 
	C237.849747,317.253143 237.892349,317.050964 238.444336,316.677643 
	C238.754379,315.752472 239.064438,314.827332 239.542252,313.178406 
	C238.910492,312.138123 238.278717,311.097839 237.665588,309.409912 
	C236.797348,308.231903 235.929108,307.053894 235.006668,305.388489 
	C235.006668,305.388489 234.644379,305.058014 234.638885,304.457214 
	C234.152512,303.852631 233.666122,303.248016 233.007050,301.992157 
	C232.139725,300.689423 231.272400,299.386688 230.462891,297.519531 
	C229.997437,296.967865 229.531982,296.416199 229.020264,295.392975 
	C229.020264,295.392975 228.691879,295.051331 228.676651,294.401978 
	C227.818787,293.199432 226.960938,291.996918 225.941727,290.144226 
	C224.831238,288.449951 223.720749,286.755646 222.629013,284.417633 
	C221.773041,283.237030 220.917068,282.056427 219.997742,280.375336 
	C219.865311,280.271698 219.732864,280.168091 219.549057,279.476105 
	C219.085281,278.879761 218.621506,278.283417 218.006668,277.021667 
	C217.117081,275.710205 216.227478,274.398712 215.412720,272.530701 
	C214.960953,271.981323 214.509201,271.431976 214.007965,270.395538 
	C214.007965,270.395538 213.654526,270.056793 213.657501,269.456604 
	C213.163635,268.854675 212.669785,268.252777 211.985626,267.006500 
	C211.118301,265.699860 210.250961,264.393219 209.392120,262.276825 
	C209.705338,261.573151 210.018555,260.869507 210.968399,259.990631 
	C212.625595,258.868988 214.282776,257.747375 216.534317,256.640167 
	C217.123444,256.144440 217.712555,255.648682 218.915909,254.993744 
	C219.928345,254.238876 220.940781,253.484009 222.542892,252.714355 
	C223.250244,252.093872 223.957596,251.473389 224.859650,250.895050 
	C224.859650,250.895050 224.876358,250.696548 225.477341,250.683807 
	C226.034317,250.146805 226.591309,249.609802 227.825577,248.870895 
	C229.763382,247.217529 231.509842,245.517181 229.013550,242.272476 
	C225.617004,243.485840 222.220459,244.699203 218.135849,246.034714 
	C216.117889,247.210190 214.099915,248.385666 211.506897,249.573135 
	C210.931366,250.012070 210.355850,250.450989 209.155228,250.984619 
	C208.475830,251.448471 207.796432,251.912338 206.492996,252.355988 
	C206.047745,252.747009 205.602478,253.138016 204.406921,253.375916 
	C203.062057,251.612167 201.717209,249.848404 200.455429,247.523621 
	C199.992279,246.971085 199.529129,246.418564 199.020981,245.385696 
	C199.020981,245.385696 198.669998,245.054657 198.670639,244.452362 
	C198.173538,243.849533 197.676437,243.246704 196.998993,241.999695 
	C195.551453,239.685089 194.103912,237.370468 192.580246,234.256439 
	C192.287003,232.469711 191.993759,230.682983 192.219803,228.477158 
	C193.179916,226.717972 194.140030,224.958786 195.675980,222.913300 
	C196.338242,221.590073 197.000504,220.266846 198.122360,218.406967 
	C199.391266,216.161728 200.660172,213.916489 202.543381,211.394760 
	C203.016647,210.605408 203.489929,209.816055 204.761139,209.111496 
	C214.134338,213.915497 223.507523,218.719498 232.807663,223.486069 
	C230.363419,234.806824 232.611176,242.172928 239.565140,246.148636 
	C245.306076,249.430817 253.588791,248.588135 259.018250,244.082962 
	C259.722229,243.156967 260.426208,242.230988 261.766235,240.974319 
	C266.118927,233.355057 265.438110,225.425217 259.821869,219.563293 
	C259.528137,219.382980 259.234436,219.202652 258.792786,218.362640 
	C256.520416,217.339386 254.248062,216.316116 251.326324,215.066772 
	C250.871429,215.086136 250.416519,215.105484 249.547287,214.745132 
	C248.710251,214.865356 247.873230,214.985580 246.274887,215.008820 
	C245.522995,215.115906 244.771118,215.222992 243.284821,215.177521 
	C240.644775,216.352249 238.004730,217.526978 235.364685,218.701706 
	C235.663834,218.293610 235.962997,217.885498 236.262161,217.477402 
	C227.714966,210.944061 219.167755,204.410721 210.995956,197.176407 
	C219.986160,182.050568 229.001862,166.939804 237.954071,151.791519 
	C241.571594,145.670181 241.251511,145.043945 233.863052,142.977859 
	C223.726349,159.801666 213.547501,176.695419 202.763748,192.993011 
	C201.170944,192.145065 199.604752,191.241989 197.980881,190.458420 
	C189.526123,186.378723 181.060318,182.313843 170.863678,183.859833 
	C170.863678,183.859833 170.509659,183.515305 170.453201,182.718826 
	C172.331116,176.512100 172.574326,170.540039 167.980713,165.099335 
	C167.980713,165.099335 167.811310,165.077225 167.717667,164.415802 
	C164.158737,160.072769 159.734238,157.965363 153.277344,158.973923 
	C152.523605,159.119385 151.769882,159.264832 150.333801,159.314682 
	C148.742294,160.157745 147.150772,161.000809 145.179977,161.904297 
	C145.179977,161.904297 145.013168,162.250259 144.404022,162.321609 
	C143.669235,163.241882 142.934464,164.162155 142.064606,165.082382 
	C142.064606,165.082382 142.095795,165.213806 141.479630,165.486664 
	C140.740982,167.661713 140.002350,169.836746 139.083664,172.870499 
	C139.159912,174.908752 139.236176,176.947021 139.200226,179.623215 
	C139.528687,180.392700 139.857147,181.162201 140.122314,182.539352 
	C140.455383,183.013107 140.788437,183.486847 141.127319,184.584946 
	C141.773209,185.326645 142.419098,186.068344 143.266479,187.377853 
	C144.067749,187.961227 144.869003,188.544586 146.004486,189.725433 
	C147.675720,190.345093 149.346939,190.964737 151.880386,191.812241 
	C154.252747,191.727264 156.625122,191.642288 159.709442,191.685745 
	C162.838730,190.078094 165.968033,188.470459 168.645554,187.094910 
	C176.451004,195.652283 187.638458,198.723450 196.426941,205.482712 
	C196.269653,205.957443 196.112366,206.432159 195.377808,207.180252 
	C194.710220,208.493866 194.042618,209.807480 192.834000,211.544479 
	C191.504990,213.929138 190.175980,216.313797 188.206741,219.147476 
	C187.155869,220.505508 186.599747,223.068024 184.033676,220.370880 
	C184.033676,220.370880 183.680771,220.053284 183.679123,219.448151 
	C183.182541,218.839996 182.685974,218.231842 182.006302,216.975952 
	C179.539597,213.005295 177.072891,209.034637 174.594635,204.467941 
	C174.110153,203.885284 173.625687,203.302643 173.000412,202.120621 
	C172.547348,201.451309 172.094299,200.782013 171.675308,199.482498 
	C169.440414,195.784866 167.663681,198.070618 165.394089,199.970703 
	C165.394089,199.970703 165.049713,200.278732 164.460449,200.228821 
	C164.927826,201.910263 165.395187,203.591705 166.004013,205.876099 
	C166.457825,206.545959 166.911621,207.215820 167.361298,208.535995 
	C168.228165,209.717026 169.095032,210.898056 170.018326,212.579865 
	C170.135696,212.700058 170.253067,212.820236 170.354996,213.519180 
	C170.943390,214.238968 171.531784,214.958755 172.267838,216.372131 
	C174.029083,219.222061 175.790314,222.071991 177.472641,225.490143 
	C177.956848,226.043839 178.441071,226.597549 179.090393,227.789825 
	C179.589401,228.498337 180.088409,229.206863 180.616241,230.648529 
	C180.701889,231.130173 180.787552,231.611816 180.346970,232.529221 
	C180.197189,232.951675 180.047409,233.374146 179.358459,234.040878 
	C179.063675,234.740082 178.768890,235.439285 177.907608,236.550781 
	C176.203415,239.566010 174.499207,242.581238 172.252792,245.878250 
	C171.949234,246.604568 171.645676,247.330887 171.006027,248.396347 
	C171.006027,248.396347 170.935852,248.868637 170.399872,249.050842 
	C170.145416,249.731110 169.890945,250.411377 169.048370,251.504395 
	C167.672806,253.950470 166.297241,256.396515 164.450851,258.985504 
	C164.235306,259.675262 164.019760,260.365021 163.751740,262.043182 
	C166.146942,262.266083 168.542145,262.488983 171.408493,262.837616 
	C171.809570,262.203278 172.210648,261.568909 173.050446,260.474243 
	C173.400620,259.716431 173.750778,258.958588 174.647903,257.976135 
	C174.945450,257.292908 175.242996,256.609711 176.085602,255.496109 
	C177.070404,253.691696 178.055206,251.887299 179.597183,249.796631 
	C180.248688,248.507187 180.900208,247.217758 182.024841,245.497467 
	C182.388535,244.741791 182.752228,243.986115 183.677994,243.011810 
	C183.974030,242.289169 184.270065,241.566544 184.846237,240.759766 
M290.285278,197.430023 
	C280.479523,181.025635 270.680145,164.617416 260.864716,148.218796 
	C257.193024,142.084488 256.600494,142.034698 250.971558,147.442184 
	C261.789673,165.627213 272.647430,183.878922 282.905487,202.505585 
	C277.680481,206.616272 272.259705,210.512787 267.366150,214.986099 
	C266.120911,216.124374 266.550110,219.094360 266.209930,221.222717 
	C267.944092,221.475571 269.974731,222.438705 271.361755,221.859802 
	C277.793884,219.175262 284.047455,216.062943 290.686157,213.776230 
	C294.188629,219.624664 297.802826,225.411102 301.107391,231.369293 
	C301.845581,232.700226 302.184204,235.001511 301.529266,236.226440 
	C298.739777,241.443375 295.508179,246.423920 292.223511,251.844681 
	C289.942261,250.503265 288.024445,249.212952 285.969666,248.200699 
	C281.511383,246.004395 277.065674,243.731110 272.428589,241.983429 
	C271.183838,241.514297 268.480835,242.380905 267.886169,243.441269 
	C267.305084,244.477432 268.115875,246.944443 269.119293,248.061523 
	C270.510101,249.609940 272.619415,250.538803 274.478607,251.635513 
	C278.841187,254.208954 283.237915,256.724487 287.797821,259.365997 
	C276.920563,277.620911 266.318420,295.414032 255.643280,313.329681 
	C263.863922,315.517273 263.831726,315.498230 267.750366,308.874939 
	C271.984955,301.717682 276.288116,294.600952 280.560852,287.466248 
	C285.325165,279.510681 290.088837,271.554779 295.043457,263.280609 
	C298.677094,265.244232 301.821808,267.060852 305.068085,268.672943 
	C311.327972,271.781555 317.645264,274.774597 324.430969,278.609222 
	C324.437561,280.271118 324.363861,281.937866 324.464386,283.594055 
	C324.947296,291.549774 330.458191,298.007599 337.571991,299.019745 
	C346.357300,300.269714 353.204529,296.644470 356.191986,289.161469 
	C359.657104,280.482056 355.718628,269.667206 347.476654,267.043030 
	C338.592621,264.214417 329.116882,266.166077 325.393707,276.470398 
	C325.192291,277.027893 324.431702,277.383331 323.146515,277.353760 
	C324.391357,273.476837 323.288696,271.195679 319.419159,269.127441 
	C312.471222,265.413849 305.990540,260.826080 299.032043,256.424866 
	C301.984222,251.561447 304.587860,247.272232 307.632599,242.256317 
	C312.842804,250.818451 317.545074,258.545898 322.313324,266.381744 
	C328.073303,260.298584 328.073547,260.298431 324.219635,253.917938 
	C322.931152,251.784729 321.608185,249.671524 320.358887,247.515625 
	C317.786560,243.076462 313.270325,238.618591 313.261566,234.161118 
	C313.252777,229.703201 317.708496,225.201904 320.311646,220.781128 
	C324.743195,213.255325 329.256500,205.777740 333.893250,198.015747 
	C331.390228,196.521042 329.449707,195.362259 327.005859,193.902893 
	C320.548828,204.577606 314.295532,214.915573 307.529877,226.100510 
	C303.756805,219.676575 300.658295,214.401169 298.277710,208.853317 
	C305.042908,204.966263 311.886169,201.205795 318.523193,197.111008 
	C320.389526,195.959549 322.110748,194.040909 323.028473,192.069183 
	C323.649841,190.734222 323.279419,188.270584 322.353302,187.107330 
	C321.691010,186.275436 319.154114,186.218521 317.826843,186.749176 
	C308.761627,190.373444 299.795227,194.244812 290.285278,197.430023 
M353.641388,164.501785 
	C352.754852,163.755280 351.868286,163.008759 350.805908,161.913849 
	C350.805908,161.913849 350.422363,161.841675 350.037445,161.225891 
	C341.458740,156.688461 332.695526,158.218079 327.627686,165.327927 
	C327.402466,165.845978 327.177216,166.364014 326.343658,167.245041 
	C323.323517,173.589783 323.273834,179.688690 327.898621,185.786606 
	C327.898621,185.786606 328.231964,185.979553 328.311615,186.630432 
	C331.339233,188.790527 334.366852,190.950607 337.338196,193.070557 
	C337.338196,214.571762 337.338196,236.740906 337.338196,259.666046 
	C341.063110,259.123535 344.713593,258.591858 348.046021,258.106537 
	C348.046021,235.517303 348.046021,213.669144 348.046021,191.395325 
	C358.526031,183.599030 360.744446,174.553391 353.941376,165.154556 
	C353.941376,165.154556 353.685944,165.112610 353.641388,164.501785 
M169.942932,293.540222 
	C169.122269,297.224365 170.797440,299.533447 173.974197,301.148865 
	C176.041229,302.200012 177.979874,303.500397 180.010849,304.626251 
	C194.759537,312.802002 209.517090,320.961761 224.271820,329.126587 
	C224.808136,328.889496 225.344437,328.652374 225.880753,328.415283 
	C225.383591,326.267090 225.609833,323.017395 224.276794,322.141968 
	C211.659103,313.855225 198.867477,305.820251 185.923630,298.049805 
	C180.870667,295.016388 175.557709,291.942505 168.970154,292.456665 
	C175.991425,281.503418 169.055649,264.276794 153.379578,265.995941 
	C144.967773,266.918488 139.159744,272.487183 139.046753,281.385315 
	C138.913559,291.875244 144.293854,298.367401 153.121292,299.189087 
	C159.663406,299.798065 164.513229,296.815491 169.942932,293.540222 
M406.908600,460.980255 
	C410.021790,461.483124 412.496185,462.903076 411.954468,466.429749 
	C411.429413,469.848114 408.505310,469.916382 405.709320,469.890594 
	C399.885895,469.836945 394.058807,469.983215 388.238922,469.830139 
	C385.314606,469.753204 384.347870,471.089508 384.519287,473.725494 
	C384.667236,476.000214 384.208801,478.645508 387.845703,478.617310 
	C395.332520,478.559296 402.858276,479.039001 410.297180,478.430817 
	C419.521393,477.676727 424.491638,466.829376 419.151764,459.458496 
	C417.239319,456.818695 416.990570,454.949127 418.272583,451.931122 
	C421.450531,444.450012 416.803680,435.626984 409.371490,435.186066 
	C401.429535,434.714874 393.437927,435.079895 385.585236,435.079895 
	C383.179657,442.395996 384.096375,443.745239 391.136322,443.749359 
	C395.462646,443.751892 399.793427,443.869751 404.113861,443.710419 
	C407.323395,443.592041 409.962555,444.156494 410.001465,447.963409 
	C410.041595,451.893219 406.940948,452.266754 404.050659,452.336914 
	C398.895355,452.462097 393.730591,452.499969 388.578156,452.326050 
	C385.495453,452.221985 384.409363,453.493561 384.480804,456.439209 
	C384.548492,459.229767 384.847443,461.221710 388.545837,461.047852 
	C394.356873,460.774719 400.190247,460.976227 406.908600,460.980255 
M194.119003,470.437653 
	C192.348083,467.833649 190.577164,465.229645 188.721069,462.500397 
	C189.848404,461.491547 190.863663,460.651337 191.801514,459.732208 
	C196.410934,455.214508 197.739670,449.381897 195.470398,443.767426 
	C193.218323,438.195496 188.311050,435.065277 181.818573,435.062988 
	C176.658463,435.061127 171.463272,435.443207 166.346588,434.971832 
	C159.012436,434.296112 158.088409,437.182434 161.111084,443.745239 
	C167.791840,443.745239 174.602768,443.822968 181.410675,443.713379 
	C184.978485,443.655975 186.628189,445.609283 187.063095,448.742645 
	C187.553619,452.276886 185.501373,454.025940 182.215439,454.350616 
	C179.589294,454.610107 176.933884,454.677338 174.292862,454.655823 
	C170.968796,454.628754 167.641663,454.256714 164.324295,454.346283 
	C161.334503,454.427032 159.400299,455.652252 159.575119,459.269836 
	C159.823898,464.417938 159.814209,469.595001 159.580154,474.744476 
	C159.407318,478.546936 161.743576,478.654755 164.388367,478.682434 
	C167.152847,478.711334 169.296494,478.272949 169.035767,474.594574 
	C168.778854,470.970123 168.979691,467.313263 168.979691,463.748566 
	C175.950775,462.287170 181.061401,463.784637 183.392624,470.846649 
	C183.751053,471.932434 184.484116,472.898346 185.069748,473.904694 
	C188.184845,479.257629 190.947052,480.055298 197.595261,477.067566 
	C196.576050,475.045349 195.566330,473.041931 194.119003,470.437653 
M347.140137,452.480133 
	C345.883484,455.558899 344.500061,458.593994 343.419678,461.733429 
	C342.811249,463.501373 340.446136,466.193512 343.951355,466.960114 
	C346.270447,467.467285 349.179138,466.555573 351.447784,465.483368 
	C352.600189,464.938721 352.961456,462.652039 353.610138,461.123047 
	C355.331757,457.064850 357.015167,452.990448 359.162354,447.848175 
	C362.235077,455.857269 364.811279,462.572144 367.510956,469.608917 
	C366.241516,469.741943 365.619690,469.862701 364.997650,469.863861 
	C357.505188,469.877747 350.010529,469.982971 342.520935,469.835663 
	C337.668060,469.740234 338.470520,473.780151 337.586334,476.460541 
	C337.517120,476.670288 340.449982,478.491730 342.004242,478.516388 
	C353.489838,478.698730 364.980621,478.533142 376.467712,478.659668 
	C380.451080,478.703491 381.609619,477.584961 379.881500,473.686432 
	C375.300934,463.352905 370.947479,452.918854 366.479431,442.535248 
	C363.134735,434.762207 363.118011,434.769409 354.198120,435.368744 
	C351.972534,440.747345 349.693207,446.255859 347.140137,452.480133 
M478.808167,474.452850 
	C476.525330,468.740784 474.291473,463.008484 471.946716,457.321899 
	C469.284973,450.866486 466.683441,444.378052 463.748352,438.046448 
	C461.892120,434.042145 454.349152,433.434967 452.738220,437.171692 
	C448.612457,446.741852 444.893494,456.487396 441.022736,466.135681 
	C447.134552,468.930145 448.633118,468.443970 451.188232,463.217346 
	C453.382141,458.729584 455.592377,454.249725 458.246948,448.847351 
	C461.204285,456.541351 463.682556,462.989044 466.335022,469.889923 
	C463.555511,469.889923 461.567200,469.889740 459.578888,469.889893 
	C453.418793,469.890442 447.257904,469.951447 441.098877,469.871704 
	C436.592407,469.813354 437.187866,473.624481 436.390259,476.192169 
	C436.239716,476.676819 438.137604,478.509552 439.105988,478.522217 
	C451.590515,478.685760 464.079071,478.699829 476.561951,478.483521 
	C477.413055,478.468750 478.227081,476.312927 478.808167,474.452850 
M244.118774,140.711838 
	C256.925629,141.093994 263.223907,136.584763 264.375549,126.209129 
	C265.274536,118.109444 260.240326,109.966965 253.295181,108.287529 
	C243.868057,106.007919 235.507614,109.819550 232.687790,117.682716 
	C229.193680,127.426163 233.406250,136.531418 244.118774,140.711838 
M54.378754,462.489563 
	C54.378151,454.823608 54.491669,447.154419 54.276745,439.494476 
	C54.235748,438.033539 53.153778,435.619415 52.111237,435.349792 
	C48.738884,434.477661 45.387096,434.313873 42.972504,438.146515 
	C40.102425,442.702148 36.607204,446.863983 32.990158,451.724121 
	C29.764832,447.164825 27.022421,443.225677 24.214138,439.334106 
	C20.679949,434.436646 17.678576,433.708099 10.851125,436.759552 
	C18.193598,446.391785 25.370123,455.806305 33.290909,466.197174 
	C37.743755,460.697937 41.456432,456.112762 45.794933,450.754730 
	C45.794933,459.633759 45.875320,467.287537 45.754627,474.938080 
	C45.707581,477.920380 47.221062,478.643494 49.773193,478.632904 
	C52.325359,478.622253 54.487663,478.398468 54.395580,474.981262 
	C54.292370,471.151123 54.375992,467.315979 54.378754,462.489563 
M159.127396,200.614655 
	C159.095596,193.273880 158.808395,193.095459 148.917755,194.565323 
	C148.917755,216.371063 148.917755,238.234833 148.917755,260.809601 
	C152.424042,260.101227 155.576523,259.464325 159.127441,258.746948 
	C159.127441,239.487350 159.127441,220.538773 159.127396,200.614655 
M259.514069,450.111908 
	C256.060608,448.495239 255.540054,446.145111 259.060547,444.503174 
	C263.624176,442.374725 262.865540,439.025665 262.467896,435.446777 
	C254.428940,434.636536 248.973984,438.106537 247.499161,444.778717 
	C245.875717,452.123322 249.573410,457.078033 258.679382,459.615417 
	C262.678375,460.729736 266.791046,461.486115 270.701813,462.839325 
	C272.016510,463.294281 273.262573,464.957855 273.731873,466.342865 
	C273.916595,466.888031 271.962555,468.277618 270.846497,469.097656 
	C270.207184,469.567352 268.941711,469.426575 268.570709,469.975037 
	C267.405426,471.697723 265.522949,473.817261 265.838165,475.400970 
	C266.128815,476.861420 268.869263,478.784790 270.583557,478.839264 
	C276.551270,479.028992 282.105316,473.818756 283.034454,467.925995 
	C283.920288,462.307770 280.992432,457.413971 274.941040,455.153992 
	C270.123230,453.354645 265.142792,451.990906 259.514069,450.111908 
M190.862473,160.247299 
	C202.184753,153.281662 213.563400,146.404892 224.788727,139.286377 
	C227.515442,137.557251 232.304977,135.640060 229.567429,131.535965 
	C227.170334,127.942299 223.485138,131.251297 220.790359,132.788300 
	C206.073547,141.182220 191.536972,149.895294 176.745514,158.153076 
	C172.616196,160.458374 171.485687,162.719421 174.988220,167.706009 
	C179.903809,165.406906 185.057098,162.996613 190.862473,160.247299 
M318.822418,164.513916 
	C320.321503,164.427368 321.820587,164.340820 323.319672,164.254257 
	C322.729034,162.436859 322.688385,159.922684 321.440613,158.937775 
	C318.203003,156.382202 314.432434,154.502548 310.877899,152.347626 
	C299.509735,145.455673 288.220001,138.428375 276.718079,131.767487 
	C274.064270,130.230621 269.935120,127.959976 267.849884,131.797684 
	C265.632324,135.878922 270.128174,137.452667 272.830872,138.977631 
	C287.888336,147.473694 303.043640,155.796402 318.822418,164.513916 
M80.772247,470.849640 
	C80.107033,470.393158 79.496101,469.808746 78.768227,469.499939 
	C71.267845,466.317841 68.385109,461.049988 69.919373,453.275482 
	C70.908966,448.260925 74.712372,445.937714 78.847641,443.987762 
	C82.347389,442.337402 81.882820,439.222321 80.853348,436.773224 
	C80.441307,435.793030 77.157036,435.265015 75.480888,435.697296 
	C66.447281,438.027008 60.857056,445.554169 60.273487,455.561188 
	C59.727383,464.925873 65.034515,473.982666 73.060104,477.382050 
	C79.871162,480.266937 81.765526,478.878510 80.772247,470.849640 
M125.411949,478.026672 
	C127.519760,477.433502 130.794113,477.455627 131.497711,476.121765 
	C133.065125,473.150238 131.365875,470.786835 128.280243,468.920837 
	C125.477806,467.226135 122.434525,464.849335 121.106323,462.018402 
	C118.192856,455.808624 120.868767,446.388428 128.420868,444.462433 
	C132.599060,443.396912 132.664825,439.826874 131.251022,436.891541 
	C130.754898,435.861481 127.270691,435.529541 125.481194,436.038971 
	C122.859962,436.785156 120.192574,438.184265 118.141487,439.984772 
	C105.712807,450.895111 109.153427,470.455109 125.411949,478.026672 
M84.674026,436.230286 
	C82.763260,440.509125 84.626587,442.967621 88.394272,445.075409 
	C98.390701,450.667755 98.670746,463.363373 88.544395,468.669464 
	C83.678894,471.218933 84.168312,474.348602 84.539124,478.391510 
	C85.498810,478.459106 86.158310,478.607544 86.792458,478.534790 
	C95.564804,477.529053 101.102303,472.470551 103.599846,464.274750 
	C106.382744,455.142548 104.943504,446.645599 97.643913,440.030762 
	C94.253456,436.958313 90.290443,434.178497 84.674026,436.230286 
M143.280441,448.385773 
	C147.895508,456.030823 146.777649,464.589600 139.587677,468.330383 
	C134.721420,470.862213 134.598450,474.011047 135.253662,478.238464 
	C147.922668,477.774689 155.644760,468.977325 155.143417,455.747589 
	C154.685440,443.662476 146.204483,434.996613 135.028473,435.375519 
	C135.028473,437.984955 135.028473,440.598785 135.028473,442.703033 
	C137.898132,444.578308 140.353607,446.182892 143.280441,448.385773 
M301.696442,476.493408 
	C304.379547,477.129669 307.069946,478.172791 309.740875,478.125092 
	C310.435577,478.112701 311.610565,474.704193 311.642090,472.839966 
	C311.824768,462.037720 311.640259,451.229614 311.783936,440.426208 
	C311.830566,436.920532 311.385681,434.812927 307.018951,434.898560 
	C303.059784,434.976196 301.392944,435.901001 301.495575,440.244843 
	C301.774261,452.041107 301.604950,463.847961 301.696442,476.493408 
M227.420837,469.858002 
	C221.589172,469.857819 215.752350,470.004547 209.927902,469.799469 
	C206.704880,469.686005 204.912964,470.335297 205.010086,474.065643 
	C205.095978,477.364929 206.054337,478.813965 209.672989,478.708588 
	C217.996857,478.466095 226.336029,478.492584 234.661942,478.696838 
	C238.187515,478.783325 239.320816,477.527496 239.303040,474.077209 
	C239.286118,470.786865 238.132446,469.526825 234.881470,469.820984 
	C232.733002,470.015381 230.552704,469.857941 227.420837,469.858002 
M220.504242,435.050873 
	C215.594498,435.050873 210.684753,435.050873 205.946075,435.050873 
	C204.372635,441.874420 205.060287,443.672821 209.196854,443.725037 
	C217.986069,443.835968 226.780472,443.628143 235.567047,443.816437 
	C239.623734,443.903351 239.000000,441.102203 239.220230,438.779266 
	C239.474258,436.099823 238.294144,434.892059 235.431213,435.003387 
	C230.794128,435.183685 226.144897,435.051270 220.504242,435.050873 
M11.454001,455.548035 
	C11.458396,461.699890 11.457174,467.851746 11.469580,474.003601 
	C11.475673,477.024750 12.935087,478.662659 16.026697,478.672760 
	C19.169817,478.683014 21.090527,477.476959 20.970209,473.960144 
	C20.862255,470.804779 20.520626,467.571533 21.031696,464.497253 
	C22.481897,455.773865 16.911762,450.507080 11.454349,443.672028 
	C11.454349,448.081787 11.454349,451.326202 11.454001,455.548035 
M219.511887,452.355682 
	C216.862381,452.355682 214.212875,452.354492 211.563370,452.355896 
	C204.657928,452.359497 203.727585,453.780151 206.206497,460.985474 
	C215.027313,460.985474 223.955017,460.887329 232.878494,461.038971 
	C235.973648,461.091553 236.489700,459.523743 236.372574,457.041504 
	C236.261642,454.690063 236.507614,452.234070 232.921860,452.333435 
	C228.785217,452.448120 224.642899,452.357330 219.511887,452.355682 
M492.697021,453.233276 
	C485.719604,450.806366 483.946381,451.954346 483.944122,458.903564 
	C483.942444,464.035278 484.135376,469.176544 483.880829,474.295593 
	C483.693146,478.069580 485.640625,478.722534 488.729309,478.729218 
	C491.735168,478.735748 493.222290,477.880157 493.087952,474.448029 
	C492.822784,467.671051 492.980499,460.877502 492.697021,453.233276 
M261.192657,470.229034 
	C259.544495,469.215515 256.876404,468.529785 256.426941,467.131073 
	C254.598999,461.442810 250.558151,462.733002 246.629211,463.066833 
	C245.095383,471.855133 252.757492,479.492462 261.839966,478.338867 
	C261.839966,475.774414 261.839966,473.188049 261.192657,470.229034 
M266.042084,441.657745 
	C269.019562,444.482178 271.751129,447.665955 275.095245,449.954590 
	C276.437347,450.873077 279.372040,450.312561 281.088013,449.446594 
	C281.843231,449.065491 282.114685,445.641144 281.309967,444.637787 
	C278.725739,441.415619 275.953522,437.966614 272.477234,435.932007 
	C268.028290,433.328064 265.778076,435.375702 266.042084,441.657745 
M321.623169,469.881622 
	C319.532471,469.881622 317.441803,469.881622 315.492737,469.881622 
	C313.759644,477.757782 314.445251,478.645966 321.658325,478.651154 
	C323.968719,478.652802 326.295166,478.478271 328.585785,478.691132 
	C332.201935,479.027161 333.626678,477.647308 333.610840,473.946533 
	C333.594391,470.110840 331.529755,469.655121 328.512848,469.856873 
	C326.541351,469.988678 324.553864,469.881653 321.623169,469.881622 
M483.950500,439.721191 
	C483.950470,440.886932 483.950043,442.052643 483.950562,443.218384 
	C483.953766,450.708679 485.572876,451.787048 493.010284,449.061981 
	C493.010284,446.806091 493.010284,444.480377 493.010284,442.154663 
	C493.010284,439.909485 493.010284,437.664337 493.010284,434.817841 
	C489.253479,436.101318 484.454315,432.193207 483.950500,439.721191 
z"/>
<path fill="#EAEAEA" opacity="1.000000" stroke="none" 
	d="
M297.559814,209.125763 
	C300.658295,214.401169 303.756805,219.676575 307.529877,226.100510 
	C314.295532,214.915573 320.548828,204.577606 327.005859,193.902893 
	C329.449707,195.362259 331.390228,196.521042 333.893250,198.015747 
	C329.256500,205.777740 324.743195,213.255325 320.311646,220.781128 
	C317.708496,225.201904 313.252777,229.703201 313.261566,234.161118 
	C313.270325,238.618591 317.786560,243.076462 320.358887,247.515625 
	C321.608185,249.671524 322.931152,251.784729 324.219635,253.917938 
	C328.073547,260.298431 328.073303,260.298584 322.313324,266.381744 
	C317.545074,258.545898 312.842804,250.818451 307.632599,242.256317 
	C304.587860,247.272232 301.984222,251.561447 299.032043,256.424866 
	C305.990540,260.826080 312.471222,265.413849 319.419159,269.127441 
	C323.288696,271.195679 324.391357,273.476837 323.590210,277.624268 
	C324.033875,277.894745 323.938751,277.815552 323.938751,277.815552 
	C317.645264,274.774597 311.327972,271.781555 305.068085,268.672943 
	C301.821808,267.060852 298.677094,265.244232 295.043457,263.280609 
	C290.088837,271.554779 285.325165,279.510681 280.560852,287.466248 
	C276.288116,294.600952 271.984955,301.717682 267.750366,308.874939 
	C263.831726,315.498230 263.863922,315.517273 255.643280,313.329681 
	C266.318420,295.414032 276.920563,277.620911 287.797821,259.365997 
	C283.237915,256.724487 278.841187,254.208954 274.478607,251.635513 
	C272.619415,250.538803 270.510101,249.609940 269.119293,248.061523 
	C268.115875,246.944443 267.305084,244.477432 267.886169,243.441269 
	C268.480835,242.380905 271.183838,241.514297 272.428589,241.983429 
	C277.065674,243.731110 281.511383,246.004395 285.969666,248.200699 
	C288.024445,249.212952 289.942261,250.503265 292.223511,251.844681 
	C295.508179,246.423920 298.739777,241.443375 301.529266,236.226440 
	C302.184204,235.001511 301.845581,232.700226 301.107391,231.369293 
	C297.802826,225.411102 294.188629,219.624664 290.680786,213.207428 
	C292.970215,211.467667 295.265015,210.296707 297.559814,209.125763 
z"/>
<path fill="#EBEBEB" opacity="1.000000" stroke="none" 
	d="
M215.412735,287.934174 
	C215.280197,287.826538 215.147659,287.718872 215.014404,287.018524 
	C214.133499,285.263885 213.253326,284.101959 212.373154,282.940033 
	C210.271469,279.550079 208.169785,276.160126 206.041031,272.090393 
	C205.143753,270.226257 204.273575,269.041870 203.403381,267.857513 
	C203.403381,267.857513 203.148331,267.782501 203.161804,267.327942 
	C202.363342,264.687317 201.351181,264.003876 199.923309,266.440063 
	C198.579483,267.294128 197.235657,268.148193 195.193420,269.016663 
	C192.647446,270.258392 190.799881,271.485718 188.952332,272.713013 
	C186.496460,274.021973 184.040604,275.330902 181.011368,276.455688 
	C178.581299,276.677124 176.724609,277.082764 174.396118,277.591492 
	C174.210693,275.350372 174.065201,273.591919 173.919708,271.833466 
	C174.962112,271.191925 176.004517,270.550415 177.665894,269.934814 
	C178.882278,269.482941 179.479645,269.005066 180.077026,268.527222 
	C181.420288,267.689270 182.763565,266.851318 184.748077,265.992981 
	C185.951462,265.482208 186.513596,264.991791 187.075745,264.501343 
	C188.206589,263.735870 189.337448,262.970367 191.131271,262.159515 
	C192.545334,261.502716 193.296448,260.891296 194.047546,260.279846 
	C194.047546,260.279846 194.353973,259.944122 194.899170,259.962402 
	C195.908264,258.960480 196.372177,257.940308 196.836090,256.920135 
	C194.555008,253.257736 192.273926,249.595337 189.984802,245.279785 
	C189.463776,244.041473 188.950806,243.456314 188.437836,242.871170 
	C188.039719,242.350998 187.641602,241.830841 187.162170,240.684387 
	C186.326889,240.194916 185.572937,240.331741 184.818970,240.468567 
	C184.818970,240.468552 184.846237,240.759766 184.402344,240.892212 
	C183.677582,241.759933 183.396744,242.495178 183.115906,243.230438 
	C182.752228,243.986115 182.388535,244.741791 181.473267,245.785583 
	C180.294464,247.410095 179.667236,248.746490 179.040024,250.082901 
	C178.055206,251.887299 177.070404,253.691696 175.513626,255.783508 
	C174.661423,256.780884 174.381180,257.490814 174.100952,258.200745 
	C173.750778,258.958588 173.400620,259.716431 172.500946,260.776245 
	C171.613419,261.622772 171.275375,262.167328 170.937347,262.711884 
	C168.542145,262.488983 166.146942,262.266083 164.076691,261.384827 
	C164.574997,260.098511 164.748337,259.470551 164.921677,258.842590 
	C166.297241,256.396515 167.672806,253.950470 169.619873,251.211655 
	C170.439545,250.235489 170.687698,249.552063 170.935852,248.868637 
	C170.935852,248.868637 171.006027,248.396347 171.499603,248.152954 
	C172.260452,247.138519 172.527710,246.367493 172.794983,245.596466 
	C174.499207,242.581238 176.203415,239.566010 178.488983,236.253845 
	C179.346130,235.236816 179.621872,234.516708 179.897629,233.796600 
	C180.047409,233.374146 180.197189,232.951675 180.828217,232.225403 
	C181.068802,231.252838 180.828110,230.584106 180.587418,229.915390 
	C180.088409,229.206863 179.589401,228.498337 179.054657,227.171509 
	C178.529800,226.009430 178.040665,225.465683 177.551544,224.921936 
	C175.790314,222.071991 174.029083,219.222061 172.209564,215.716125 
	C171.557678,214.353561 170.964066,213.646988 170.370438,212.940430 
	C170.253067,212.820236 170.135696,212.700058 170.015320,211.991135 
	C169.130020,210.230179 168.247711,209.057938 167.365417,207.885696 
	C166.911621,207.215820 166.457825,206.545959 165.970978,205.208801 
	C165.641861,203.120575 165.345779,201.699661 165.049713,200.278732 
	C165.049713,200.278732 165.394089,199.970703 165.967789,199.975128 
	C168.241409,200.023941 169.941315,200.068329 171.641235,200.112701 
	C172.094299,200.782013 172.547348,201.451309 173.024582,202.736938 
	C173.567902,203.923508 174.087051,204.493744 174.606201,205.063980 
	C177.072891,209.034637 179.539597,213.005295 182.040100,217.629272 
	C182.609512,218.872803 183.145142,219.463043 183.680771,220.053284 
	C183.680771,220.053284 184.033676,220.370880 184.026550,220.963730 
	C184.770218,222.265671 185.521011,222.974747 186.271820,223.683823 
	C187.130188,222.022034 187.988571,220.360245 188.846954,218.698456 
	C190.175980,216.313797 191.504990,213.929138 193.422699,211.250214 
	C194.659286,209.606277 195.307205,208.256592 195.955109,206.906891 
	C196.112366,206.432159 196.269653,205.957443 196.964676,205.186493 
	C199.483246,206.138321 201.464081,207.386383 203.132874,208.832199 
	C202.523575,209.910385 202.226318,210.790817 201.929062,211.671249 
	C200.660172,213.916489 199.391266,216.161728 197.565552,218.741943 
	C196.372559,220.451157 195.736359,221.825378 195.100143,223.199600 
	C194.140030,224.958786 193.179916,226.717972 191.627121,228.775421 
	C188.808136,231.817947 190.249725,233.567734 192.656372,235.055862 
	C194.103912,237.370468 195.551453,239.685089 197.032776,242.649384 
	C197.601044,243.884277 198.135513,244.469467 198.669998,245.054657 
	C198.669998,245.054657 199.020981,245.385696 198.997406,245.916153 
	C199.440018,246.992615 199.906189,247.538635 200.372360,248.084641 
	C201.717209,249.848404 203.062057,251.612167 204.967926,253.611328 
	C206.058304,253.356552 206.587662,252.866379 207.117035,252.376205 
	C207.796432,251.912338 208.475830,251.448471 209.768036,250.984863 
	C210.947891,250.510437 211.514923,250.035797 212.081955,249.561157 
	C214.099915,248.385666 216.117889,247.210190 218.860519,245.998871 
	C222.825104,244.924179 226.065018,243.885361 229.304916,242.846527 
	C231.509842,245.517181 229.763382,247.217529 227.168793,248.944534 
	C225.966797,249.577637 225.421585,250.137100 224.876373,250.696564 
	C224.876358,250.696548 224.859650,250.895050 224.447388,250.867371 
	C223.341141,251.469498 222.647171,252.099304 221.953217,252.729126 
	C220.940781,253.484009 219.928345,254.238876 218.288132,255.014160 
	C217.086899,255.564957 216.513443,256.095367 215.939972,256.625732 
	C214.282776,257.747375 212.625595,258.868988 210.317749,260.027649 
	C209.572601,261.071991 209.478119,262.079285 209.383636,263.086578 
	C210.250961,264.393219 211.118301,265.699860 212.022430,267.655090 
	C212.590988,268.888062 213.122757,269.472412 213.654526,270.056793 
	C213.654526,270.056793 214.007965,270.395538 213.987183,270.925690 
	C214.423553,271.999634 214.880722,272.543457 215.337875,273.087250 
	C216.227478,274.398712 217.117081,275.710205 218.025848,277.673218 
	C218.563507,278.904694 219.081970,279.484619 219.600433,280.064514 
	C219.732864,280.168091 219.865311,280.271698 219.994232,280.964386 
	C220.863907,282.722748 221.737091,283.892059 222.610260,285.061371 
	C223.720749,286.755646 224.831238,288.449951 225.978638,290.815796 
	C226.907654,292.675354 227.799774,293.863342 228.691879,295.051331 
	C228.691879,295.051331 229.020264,295.392975 229.001694,295.921631 
	C229.457108,296.994812 229.931091,297.539398 230.405090,298.083954 
	C231.272400,299.386688 232.139725,300.689423 233.034698,302.642700 
	C233.589676,303.881500 234.117020,304.469757 234.644379,305.058014 
	C234.644379,305.058014 235.006668,305.388489 235.003464,305.972229 
	C235.882492,307.723145 236.764709,308.890350 237.646942,310.057556 
	C238.278717,311.097839 238.910492,312.138123 239.135254,313.690369 
	C238.463821,315.084473 238.199387,315.966644 237.934937,316.848816 
	C237.892349,317.050964 237.849747,317.253143 237.266663,317.683228 
	C235.230530,317.259979 233.734879,316.608917 232.239227,315.957855 
	C232.239227,315.957855 231.911438,315.678741 231.943573,315.155762 
	C231.475891,314.063904 230.976059,313.495026 230.476227,312.926147 
	C229.981308,312.255371 229.486404,311.584595 228.979019,310.285400 
	C228.446991,309.083496 227.927444,308.509949 227.407913,307.936401 
	C225.290680,304.557343 223.173447,301.178314 221.032120,297.115662 
	C220.133286,295.248505 219.258530,294.064911 218.383774,292.881348 
	C217.913528,292.218750 217.443283,291.556183 216.965820,290.271851 
	C216.443314,289.078156 215.928024,288.506165 215.412735,287.934174 
z"/>
<path fill="#F2F2F2" opacity="1.000000" stroke="none" 
	d="
M406.461365,460.978516 
	C400.190247,460.976227 394.356873,460.774719 388.545837,461.047852 
	C384.847443,461.221710 384.548492,459.229767 384.480804,456.439209 
	C384.409363,453.493561 385.495453,452.221985 388.578156,452.326050 
	C393.730591,452.499969 398.895355,452.462097 404.050659,452.336914 
	C406.940948,452.266754 410.041595,451.893219 410.001465,447.963409 
	C409.962555,444.156494 407.323395,443.592041 404.113861,443.710419 
	C399.793427,443.869751 395.462646,443.751892 391.136322,443.749359 
	C384.096375,443.745239 383.179657,442.395996 385.585236,435.079895 
	C393.437927,435.079895 401.429535,434.714874 409.371490,435.186066 
	C416.803680,435.626984 421.450531,444.450012 418.272583,451.931122 
	C416.990570,454.949127 417.239319,456.818695 419.151764,459.458496 
	C424.491638,466.829376 419.521393,477.676727 410.297180,478.430817 
	C402.858276,479.039001 395.332520,478.559296 387.845703,478.617310 
	C384.208801,478.645508 384.667236,476.000214 384.519287,473.725494 
	C384.347870,471.089508 385.314606,469.753204 388.238922,469.830139 
	C394.058807,469.983215 399.885895,469.836945 405.709320,469.890594 
	C408.505310,469.916382 411.429413,469.848114 411.954468,466.429749 
	C412.496185,462.903076 410.021790,461.483124 406.461365,460.978516 
z"/>
<path fill="#F4F4F4" opacity="1.000000" stroke="none" 
	d="
M194.337799,470.738098 
	C195.566330,473.041931 196.576050,475.045349 197.595261,477.067566 
	C190.947052,480.055298 188.184845,479.257629 185.069748,473.904694 
	C184.484116,472.898346 183.751053,471.932434 183.392624,470.846649 
	C181.061401,463.784637 175.950775,462.287170 168.979691,463.748566 
	C168.979691,467.313263 168.778854,470.970123 169.035767,474.594574 
	C169.296494,478.272949 167.152847,478.711334 164.388367,478.682434 
	C161.743576,478.654755 159.407318,478.546936 159.580154,474.744476 
	C159.814209,469.595001 159.823898,464.417938 159.575119,459.269836 
	C159.400299,455.652252 161.334503,454.427032 164.324295,454.346283 
	C167.641663,454.256714 170.968796,454.628754 174.292862,454.655823 
	C176.933884,454.677338 179.589294,454.610107 182.215439,454.350616 
	C185.501373,454.025940 187.553619,452.276886 187.063095,448.742645 
	C186.628189,445.609283 184.978485,443.655975 181.410675,443.713379 
	C174.602768,443.822968 167.791840,443.745239 161.111084,443.745239 
	C158.088409,437.182434 159.012436,434.296112 166.346588,434.971832 
	C171.463272,435.443207 176.658463,435.061127 181.818573,435.062988 
	C188.311050,435.065277 193.218323,438.195496 195.470398,443.767426 
	C197.739670,449.381897 196.410934,455.214508 191.801514,459.732208 
	C190.863663,460.651337 189.848404,461.491547 188.721069,462.500397 
	C190.577164,465.229645 192.348083,467.833649 194.337799,470.738098 
z"/>
<path fill="#F2F2F2" opacity="1.000000" stroke="none" 
	d="
M347.276978,452.122253 
	C349.693207,446.255859 351.972534,440.747345 354.198120,435.368744 
	C363.118011,434.769409 363.134735,434.762207 366.479431,442.535248 
	C370.947479,452.918854 375.300934,463.352905 379.881500,473.686432 
	C381.609619,477.584961 380.451080,478.703491 376.467712,478.659668 
	C364.980621,478.533142 353.489838,478.698730 342.004242,478.516388 
	C340.449982,478.491730 337.517120,476.670288 337.586334,476.460541 
	C338.470520,473.780151 337.668060,469.740234 342.520935,469.835663 
	C350.010529,469.982971 357.505188,469.877747 364.997650,469.863861 
	C365.619690,469.862701 366.241516,469.741943 367.510956,469.608917 
	C364.811279,462.572144 362.235077,455.857269 359.162354,447.848175 
	C357.015167,452.990448 355.331757,457.064850 353.610138,461.123047 
	C352.961456,462.652039 352.600189,464.938721 351.447784,465.483368 
	C349.179138,466.555573 346.270447,467.467285 343.951355,466.960114 
	C340.446136,466.193512 342.811249,463.501373 343.419678,461.733429 
	C344.500061,458.593994 345.883484,455.558899 347.276978,452.122253 
z"/>
<path fill="#EAA401" opacity="1.000000" stroke="none" 
	d="
M478.933258,474.802856 
	C478.227081,476.312927 477.413055,478.468750 476.561951,478.483521 
	C464.079071,478.699829 451.590515,478.685760 439.105988,478.522217 
	C438.137604,478.509552 436.239716,476.676819 436.390259,476.192169 
	C437.187866,473.624481 436.592407,469.813354 441.098877,469.871704 
	C447.257904,469.951447 453.418793,469.890442 459.578888,469.889893 
	C461.567200,469.889740 463.555511,469.889923 466.335022,469.889923 
	C463.682556,462.989044 461.204285,456.541351 458.246948,448.847351 
	C455.592377,454.249725 453.382141,458.729584 451.188232,463.217346 
	C448.633118,468.443970 447.134552,468.930145 441.022736,466.135681 
	C444.893494,456.487396 448.612457,446.741852 452.738220,437.171692 
	C454.349152,433.434967 461.892120,434.042145 463.748352,438.046448 
	C466.683441,444.378052 469.284973,450.866486 471.946716,457.321899 
	C474.291473,463.008484 476.525330,468.740784 478.933258,474.802856 
z"/>
<path fill="#E29F03" opacity="1.000000" stroke="none" 
	d="
M203.444916,208.634445 
	C201.464081,207.386383 199.483246,206.138321 197.170197,204.869553 
	C187.638458,198.723450 176.451004,195.652283 168.645554,187.094910 
	C165.968033,188.470459 162.838730,190.078094 159.441467,191.309341 
	C167.286362,187.567062 171.154221,181.614670 169.934143,172.786209 
	C169.581833,170.237015 168.626724,167.771103 167.947983,165.267014 
	C172.574326,170.540039 172.331116,176.512100 170.231354,183.315033 
	C170.100067,184.257187 170.190628,184.603134 170.281189,184.949097 
	C170.590195,184.704025 170.899185,184.458954 171.208176,184.213882 
	C181.060318,182.313843 189.526123,186.378723 197.980881,190.458420 
	C199.604752,191.241989 201.170944,192.145065 203.266388,193.421265 
	C206.052872,195.192139 208.336716,196.534760 210.620560,197.877380 
	C219.167755,204.410721 227.714966,210.944061 236.262161,217.477402 
	C235.962997,217.885498 235.663834,218.293610 235.364685,218.701706 
	C238.004730,217.526978 240.644775,216.352249 243.575195,215.576294 
	C243.652954,216.219193 243.488831,216.570877 243.220627,216.691818 
	C235.164398,220.325119 231.631973,226.580902 233.279297,234.343948 
	C234.990067,242.405960 240.084747,246.234070 249.353790,245.927582 
	C252.398941,245.826904 255.414108,244.820328 258.442993,244.227997 
	C253.588791,248.588135 245.306076,249.430817 239.565140,246.148636 
	C232.611176,242.172928 230.363419,234.806824 232.807663,223.486069 
	C223.507523,218.719498 214.134338,213.915497 204.269714,209.010468 
	C203.778305,208.909439 203.444916,208.634445 203.444916,208.634445 
z"/>
<path fill="#E09D01" opacity="1.000000" stroke="none" 
	d="
M353.934174,165.413330 
	C360.744446,174.553391 358.526031,183.599030 348.046021,191.395325 
	C348.046021,213.669144 348.046021,235.517303 348.046021,258.106537 
	C344.713593,258.591858 341.063110,259.123535 337.338196,259.666046 
	C337.338196,236.740906 337.338196,214.571762 337.338196,193.070557 
	C334.366852,190.950607 331.339233,188.790527 328.609924,186.351471 
	C329.828552,186.753632 330.718140,187.481659 331.674286,188.108124 
	C336.931549,191.552719 342.496033,192.061295 348.148773,189.347839 
	C353.441376,186.807281 355.997894,182.187393 355.885040,176.517471 
	C355.811127,172.804626 354.623169,169.113937 353.934174,165.413330 
z"/>
<path fill="#F6F6F6" opacity="1.000000" stroke="none" 
	d="
M243.704636,140.655884 
	C233.406250,136.531418 229.193680,127.426163 232.687790,117.682716 
	C235.507614,109.819550 243.868057,106.007919 253.295181,108.287529 
	C260.240326,109.966965 265.274536,118.109444 264.375549,126.209129 
	C263.223907,136.584763 256.925629,141.093994 243.704636,140.655884 
z"/>
<path fill="#EDA701" opacity="1.000000" stroke="none" 
	d="
M323.982635,277.863770 
	C324.431702,277.383331 325.192291,277.027893 325.393707,276.470398 
	C329.116882,266.166077 338.592621,264.214417 347.476654,267.043030 
	C355.718628,269.667206 359.657104,280.482056 356.191986,289.161469 
	C353.204529,296.644470 346.357300,300.269714 337.571991,299.019745 
	C330.458191,298.007599 324.947296,291.549774 324.464386,283.594055 
	C324.363861,281.937866 324.437561,280.271118 324.184875,278.212402 
	C323.938751,277.815552 324.033875,277.894745 323.982635,277.863770 
z"/>
<path fill="#EDA701" opacity="1.000000" stroke="none" 
	d="
M169.243927,293.093353 
	C164.513229,296.815491 159.663406,299.798065 153.121292,299.189087 
	C144.293854,298.367401 138.913559,291.875244 139.046753,281.385315 
	C139.159744,272.487183 144.967773,266.918488 153.379578,265.995941 
	C169.055649,264.276794 175.991425,281.503418 169.033005,292.757019 
	C169.095856,293.057373 169.243927,293.093353 169.243927,293.093353 
z"/>
<path fill="#EFA801" opacity="1.000000" stroke="none" 
	d="
M54.378536,462.986267 
	C54.375992,467.315979 54.292370,471.151123 54.395580,474.981262 
	C54.487663,478.398468 52.325359,478.622253 49.773193,478.632904 
	C47.221062,478.643494 45.707581,477.920380 45.754627,474.938080 
	C45.875320,467.287537 45.794933,459.633759 45.794933,450.754730 
	C41.456432,456.112762 37.743755,460.697937 33.290909,466.197174 
	C25.370123,455.806305 18.193598,446.391785 10.851125,436.759552 
	C17.678576,433.708099 20.679949,434.436646 24.214138,439.334106 
	C27.022421,443.225677 29.764832,447.164825 32.990158,451.724121 
	C36.607204,446.863983 40.102425,442.702148 42.972504,438.146515 
	C45.387096,434.313873 48.738884,434.477661 52.111237,435.349792 
	C53.153778,435.619415 54.235748,438.033539 54.276745,439.494476 
	C54.491669,447.154419 54.378151,454.823608 54.378536,462.986267 
z"/>
<path fill="#EDA601" opacity="1.000000" stroke="none" 
	d="
M167.964355,165.183167 
	C168.626724,167.771103 169.581833,170.237015 169.934143,172.786209 
	C171.154221,181.614670 167.286362,187.567062 159.085495,191.245117 
	C156.625122,191.642288 154.252747,191.727264 151.352798,191.376068 
	C149.106903,190.335922 147.388580,189.731934 145.670273,189.127960 
	C144.869003,188.544586 144.067749,187.961227 143.149750,186.762543 
	C142.395859,185.418350 141.758682,184.689468 141.121506,183.960602 
	C140.788437,183.486847 140.455383,183.013107 140.375397,182.039154 
	C140.189789,180.687729 139.751099,179.836502 139.312424,178.985275 
	C139.236176,176.947021 139.159912,174.908752 139.509018,172.353455 
	C140.654846,169.628891 141.375320,167.421341 142.095795,165.213806 
	C142.095795,165.213806 142.064606,165.082382 142.442474,165.026825 
	C143.551300,164.064285 144.282242,163.157272 145.013168,162.250259 
	C145.013168,162.250259 145.179977,161.904297 145.748291,161.902679 
	C147.883102,161.070801 149.449631,160.240540 151.016144,159.410294 
	C151.769882,159.264832 152.523605,159.119385 153.923965,159.306030 
	C158.984161,161.451157 163.397736,163.264191 167.811310,165.077225 
	C167.811310,165.077225 167.980713,165.099335 167.964355,165.183167 
z"/>
<path fill="#EDA701" opacity="1.000000" stroke="none" 
	d="
M353.937775,165.283936 
	C354.623169,169.113937 355.811127,172.804626 355.885040,176.517471 
	C355.997894,182.187393 353.441376,186.807281 348.148773,189.347839 
	C342.496033,192.061295 336.931549,191.552719 331.674286,188.108124 
	C330.718140,187.481659 329.828552,186.753632 328.570099,186.026031 
	C328.231964,185.979553 327.898621,185.786606 327.895813,185.178223 
	C324.986633,178.811859 325.945526,172.848221 326.951996,166.882065 
	C327.177216,166.364014 327.402466,165.845978 328.229553,165.136642 
	C333.161591,163.298691 337.382751,161.104202 341.863159,160.213120 
	C344.503815,159.687943 347.555511,161.229568 350.422363,161.841675 
	C350.422363,161.841675 350.805908,161.913849 350.929932,162.390625 
	C351.931274,163.615814 352.808594,164.364212 353.685944,165.112610 
	C353.685944,165.112610 353.941376,165.154556 353.937775,165.283936 
z"/>
<path fill="#E7A303" opacity="1.000000" stroke="none" 
	d="
M297.918762,208.989532 
	C295.265015,210.296707 292.970215,211.467667 290.520203,212.871216 
	C284.047455,216.062943 277.793884,219.175262 271.361755,221.859802 
	C269.974731,222.438705 267.944092,221.475571 266.209930,221.222717 
	C266.550110,219.094360 266.120911,216.124374 267.366150,214.986099 
	C272.259705,210.512787 277.680481,206.616272 283.533508,202.250153 
	C286.373322,200.675323 288.585144,199.355911 290.796967,198.036499 
	C299.795227,194.244812 308.761627,190.373444 317.826843,186.749176 
	C319.154114,186.218521 321.691010,186.275436 322.353302,187.107330 
	C323.279419,188.270584 323.649841,190.734222 323.028473,192.069183 
	C322.110748,194.040909 320.389526,195.959549 318.523193,197.111008 
	C311.886169,201.205795 305.042908,204.966263 297.918762,208.989532 
z"/>
<path fill="#F6AD01" opacity="1.000000" stroke="none" 
	d="
M258.730621,244.155487 
	C255.414108,244.820328 252.398941,245.826904 249.353790,245.927582 
	C240.084747,246.234070 234.990067,242.405960 233.279297,234.343948 
	C231.631973,226.580902 235.164398,220.325119 243.220627,216.691818 
	C243.488831,216.570877 243.652954,216.219193 243.942413,215.652557 
	C244.771118,215.222992 245.522995,215.115906 246.833969,215.293823 
	C248.249237,215.427490 249.105438,215.276154 249.961624,215.124832 
	C250.416519,215.105484 250.871429,215.086136 251.727417,215.505081 
	C254.399261,216.969696 256.669983,217.996017 258.940704,219.022339 
	C259.234436,219.202652 259.528137,219.382980 259.933594,220.188812 
	C264.090027,227.449539 263.427277,234.334015 261.130219,241.305008 
	C260.426208,242.230988 259.722229,243.156967 258.730621,244.155487 
z"/>
<path fill="#FFFFFF" opacity="1.000000" stroke="none" 
	d="
M249.961517,349.860291 
	C248.593552,349.893951 247.225586,349.927612 245.339417,349.570984 
	C238.044861,346.928223 233.599701,342.715515 232.948318,335.226105 
	C232.825424,333.813110 232.413132,332.425323 232.134399,331.025909 
	C232.144516,330.589325 232.154633,330.152771 232.575348,329.336060 
	C237.021194,325.107147 241.056458,321.258362 245.091721,317.409546 
	C246.756287,317.351746 248.420853,317.293945 250.585785,317.628540 
	C251.338654,318.232300 251.558334,318.522186 251.848495,318.643433 
	C260.141418,322.109497 263.365662,326.774261 263.027557,334.850830 
	C262.709869,342.439758 260.127899,345.344208 251.141098,348.386047 
	C250.639069,348.555939 250.349808,349.354370 249.961517,349.860291 
z"/>
<path fill="#EDA701" opacity="1.000000" stroke="none" 
	d="
M159.127411,201.102432 
	C159.127441,220.538773 159.127441,239.487350 159.127441,258.746948 
	C155.576523,259.464325 152.424042,260.101227 148.917755,260.809601 
	C148.917755,238.234833 148.917755,216.371063 148.917755,194.565323 
	C158.808395,193.095459 159.095596,193.273880 159.127411,201.102432 
z"/>
<path fill="#F3F3F3" opacity="1.000000" stroke="none" 
	d="
M259.874298,450.272827 
	C265.142792,451.990906 270.123230,453.354645 274.941040,455.153992 
	C280.992432,457.413971 283.920288,462.307770 283.034454,467.925995 
	C282.105316,473.818756 276.551270,479.028992 270.583557,478.839264 
	C268.869263,478.784790 266.128815,476.861420 265.838165,475.400970 
	C265.522949,473.817261 267.405426,471.697723 268.570709,469.975037 
	C268.941711,469.426575 270.207184,469.567352 270.846497,469.097656 
	C271.962555,468.277618 273.916595,466.888031 273.731873,466.342865 
	C273.262573,464.957855 272.016510,463.294281 270.701813,462.839325 
	C266.791046,461.486115 262.678375,460.729736 258.679382,459.615417 
	C249.573410,457.078033 245.875717,452.123322 247.499161,444.778717 
	C248.973984,438.106537 254.428940,434.636536 262.467896,435.446777 
	C262.865540,439.025665 263.624176,442.374725 259.060547,444.503174 
	C255.540054,446.145111 256.060608,448.495239 259.874298,450.272827 
z"/>
<path fill="#E9E9E9" opacity="1.000000" stroke="none" 
	d="
M265.090729,329.931152 
	C265.239624,329.856934 265.526093,329.758606 265.517914,329.711945 
	C264.374664,323.191589 269.362671,321.397125 273.659729,318.927460 
	C287.193817,311.148865 300.669861,303.269196 314.169159,295.430054 
	C314.743927,295.096252 315.322388,294.505951 315.906342,294.496887 
	C318.295898,294.459656 320.688232,294.601776 323.079590,294.677856 
	C322.028900,296.692841 321.506653,299.568665 319.845184,300.588531 
	C304.575348,309.961914 289.172455,319.125977 273.624725,328.030365 
	C271.453796,329.273682 268.288086,328.780060 265.296112,329.526947 
	C265.009338,329.963409 265.090729,329.931152 265.090729,329.931152 
z"/>
<path fill="#EAEAEA" opacity="1.000000" stroke="none" 
	d="
M190.536438,160.416809 
	C185.057098,162.996613 179.903809,165.406906 174.988220,167.706009 
	C171.485687,162.719421 172.616196,160.458374 176.745514,158.153076 
	C191.536972,149.895294 206.073547,141.182220 220.790359,132.788300 
	C223.485138,131.251297 227.170334,127.942299 229.567429,131.535965 
	C232.304977,135.640060 227.515442,137.557251 224.788727,139.286377 
	C213.563400,146.404892 202.184753,153.281662 190.536438,160.416809 
z"/>
<path fill="#EAE9E9" opacity="1.000000" stroke="none" 
	d="
M290.541138,197.733261 
	C288.585144,199.355911 286.373322,200.675323 283.833344,202.062668 
	C272.647430,183.878922 261.789673,165.627213 250.971558,147.442184 
	C256.600494,142.034698 257.193024,142.084488 260.864716,148.218796 
	C270.680145,164.617416 280.479523,181.025635 290.541138,197.733261 
z"/>
<path fill="#EAE9E9" opacity="1.000000" stroke="none" 
	d="
M210.808258,197.526886 
	C208.336716,196.534760 206.052872,195.192139 203.568848,193.719345 
	C213.547501,176.695419 223.726349,159.801666 233.863052,142.977859 
	C241.251511,145.043945 241.571594,145.670181 237.954071,151.791519 
	C229.001862,166.939804 219.986160,182.050568 210.808258,197.526886 
z"/>
<path fill="#E7E7E7" opacity="1.000000" stroke="none" 
	d="
M318.493958,164.346161 
	C303.043640,155.796402 287.888336,147.473694 272.830872,138.977631 
	C270.128174,137.452667 265.632324,135.878922 267.849884,131.797684 
	C269.935120,127.959976 274.064270,130.230621 276.718079,131.767487 
	C288.220001,138.428375 299.509735,145.455673 310.877899,152.347626 
	C314.432434,154.502548 318.203003,156.382202 321.440613,158.937775 
	C322.688385,159.922684 322.729034,162.436859 323.319672,164.254257 
	C321.820587,164.340820 320.321503,164.427368 318.493958,164.346161 
z"/>
<path fill="#E7E7E7" opacity="1.000000" stroke="none" 
	d="
M169.117828,293.130341 
	C175.557709,291.942505 180.870667,295.016388 185.923630,298.049805 
	C198.867477,305.820251 211.659103,313.855225 224.276794,322.141968 
	C225.609833,323.017395 225.383591,326.267090 225.880753,328.415283 
	C225.344437,328.652374 224.808136,328.889496 224.271820,329.126587 
	C209.517090,320.961761 194.759537,312.802002 180.010849,304.626251 
	C177.979874,303.500397 176.041229,302.200012 173.974197,301.148865 
	C170.797440,299.533447 169.122269,297.224365 169.593430,293.316772 
	C169.243927,293.093353 169.095856,293.057373 169.117828,293.130341 
z"/>
<path fill="#F4F4F4" opacity="1.000000" stroke="none" 
	d="
M80.887993,471.204834 
	C81.765526,478.878510 79.871162,480.266937 73.060104,477.382050 
	C65.034515,473.982666 59.727383,464.925873 60.273487,455.561188 
	C60.857056,445.554169 66.447281,438.027008 75.480888,435.697296 
	C77.157036,435.265015 80.441307,435.793030 80.853348,436.773224 
	C81.882820,439.222321 82.347389,442.337402 78.847641,443.987762 
	C74.712372,445.937714 70.908966,448.260925 69.919373,453.275482 
	C68.385109,461.049988 71.267845,466.317841 78.768227,469.499939 
	C79.496101,469.808746 80.107033,470.393158 80.887993,471.204834 
z"/>
<path fill="#F5F5F5" opacity="1.000000" stroke="none" 
	d="
M125.042557,477.950745 
	C109.153427,470.455109 105.712807,450.895111 118.141487,439.984772 
	C120.192574,438.184265 122.859962,436.785156 125.481194,436.038971 
	C127.270691,435.529541 130.754898,435.861481 131.251022,436.891541 
	C132.664825,439.826874 132.599060,443.396912 128.420868,444.462433 
	C120.868767,446.388428 118.192856,455.808624 121.106323,462.018402 
	C122.434525,464.849335 125.477806,467.226135 128.280243,468.920837 
	C131.365875,470.786835 133.065125,473.150238 131.497711,476.121765 
	C130.794113,477.455627 127.519760,477.433502 125.042557,477.950745 
z"/>
<path fill="#F3F3F3" opacity="1.000000" stroke="none" 
	d="
M84.883652,435.879150 
	C90.290443,434.178497 94.253456,436.958313 97.643913,440.030762 
	C104.943504,446.645599 106.382744,455.142548 103.599846,464.274750 
	C101.102303,472.470551 95.564804,477.529053 86.792458,478.534790 
	C86.158310,478.607544 85.498810,478.459106 84.539124,478.391510 
	C84.168312,474.348602 83.678894,471.218933 88.544395,468.669464 
	C98.670746,463.363373 98.390701,450.667755 88.394272,445.075409 
	C84.626587,442.967621 82.763260,440.509125 84.883652,435.879150 
z"/>
<path fill="#F5F5F5" opacity="1.000000" stroke="none" 
	d="
M143.044754,448.086639 
	C140.353607,446.182892 137.898132,444.578308 135.028473,442.703033 
	C135.028473,440.598785 135.028473,437.984955 135.028473,435.375519 
	C146.204483,434.996613 154.685440,443.662476 155.143417,455.747589 
	C155.644760,468.977325 147.922668,477.774689 135.253662,478.238464 
	C134.598450,474.011047 134.721420,470.862213 139.587677,468.330383 
	C146.777649,464.589600 147.895508,456.030823 143.044754,448.086639 
z"/>
<path fill="#EAA401" opacity="1.000000" stroke="none" 
	d="
M301.654816,476.072021 
	C301.604950,463.847961 301.774261,452.041107 301.495575,440.244843 
	C301.392944,435.901001 303.059784,434.976196 307.018951,434.898560 
	C311.385681,434.812927 311.830566,436.920532 311.783936,440.426208 
	C311.640259,451.229614 311.824768,462.037720 311.642090,472.839966 
	C311.610565,474.704193 310.435577,478.112701 309.740875,478.125092 
	C307.069946,478.172791 304.379547,477.129669 301.654816,476.072021 
z"/>
<path fill="#EDEDED" opacity="1.000000" stroke="none" 
	d="
M227.903748,469.858032 
	C230.552704,469.857941 232.733002,470.015381 234.881470,469.820984 
	C238.132446,469.526825 239.286118,470.786865 239.303040,474.077209 
	C239.320816,477.527496 238.187515,478.783325 234.661942,478.696838 
	C226.336029,478.492584 217.996857,478.466095 209.672989,478.708588 
	C206.054337,478.813965 205.095978,477.364929 205.010086,474.065643 
	C204.912964,470.335297 206.704880,469.686005 209.927902,469.799469 
	C215.752350,470.004547 221.589172,469.857819 227.903748,469.858032 
z"/>
<path fill="#EFEFEF" opacity="1.000000" stroke="none" 
	d="
M221.002518,435.050873 
	C226.144897,435.051270 230.794128,435.183685 235.431213,435.003387 
	C238.294144,434.892059 239.474258,436.099823 239.220230,438.779266 
	C239.000000,441.102203 239.623734,443.903351 235.567047,443.816437 
	C226.780472,443.628143 217.986069,443.835968 209.196854,443.725037 
	C205.060287,443.672821 204.372635,441.874420 205.946075,435.050873 
	C210.684753,435.050873 215.594498,435.050873 221.002518,435.050873 
z"/>
<path fill="#EDA701" opacity="1.000000" stroke="none" 
	d="
M11.454175,455.059326 
	C11.454349,451.326202 11.454349,448.081787 11.454349,443.672028 
	C16.911762,450.507080 22.481897,455.773865 21.031696,464.497253 
	C20.520626,467.571533 20.862255,470.804779 20.970209,473.960144 
	C21.090527,477.476959 19.169817,478.683014 16.026697,478.672760 
	C12.935087,478.662659 11.475673,477.024750 11.469580,474.003601 
	C11.457174,467.851746 11.458396,461.699890 11.454175,455.059326 
z"/>
<path fill="#EDEDED" opacity="1.000000" stroke="none" 
	d="
M220.007462,452.355713 
	C224.642899,452.357330 228.785217,452.448120 232.921860,452.333435 
	C236.507614,452.234070 236.261642,454.690063 236.372574,457.041504 
	C236.489700,459.523743 235.973648,461.091553 232.878494,461.038971 
	C223.955017,460.887329 215.027313,460.985474 206.206497,460.985474 
	C203.727585,453.780151 204.657928,452.359497 211.563370,452.355896 
	C214.212875,452.354492 216.862381,452.355682 220.007462,452.355713 
z"/>
<path fill="#F6F6F6" opacity="1.000000" stroke="none" 
	d="
M492.830200,453.662048 
	C492.980499,460.877502 492.822784,467.671051 493.087952,474.448029 
	C493.222290,477.880157 491.735168,478.735748 488.729309,478.729218 
	C485.640625,478.722534 483.693146,478.069580 483.880829,474.295593 
	C484.135376,469.176544 483.942444,464.035278 483.944122,458.903564 
	C483.946381,451.954346 485.719604,450.806366 492.830200,453.662048 
z"/>
<path fill="#F4F4F4" opacity="1.000000" stroke="none" 
	d="
M261.516296,470.415344 
	C261.839966,473.188049 261.839966,475.774414 261.839966,478.338867 
	C252.757492,479.492462 245.095383,471.855133 246.629211,463.066833 
	C250.558151,462.733002 254.598999,461.442810 256.426941,467.131073 
	C256.876404,468.529785 259.544495,469.215515 261.516296,470.415344 
z"/>
<path fill="#F2F2F2" opacity="1.000000" stroke="none" 
	d="
M265.970520,441.295105 
	C265.778076,435.375702 268.028290,433.328064 272.477234,435.932007 
	C275.953522,437.966614 278.725739,441.415619 281.309967,444.637787 
	C282.114685,445.641144 281.843231,449.065491 281.088013,449.446594 
	C279.372040,450.312561 276.437347,450.873077 275.095245,449.954590 
	C271.751129,447.665955 269.019562,444.482178 265.970520,441.295105 
z"/>
<path fill="#E7A201" opacity="1.000000" stroke="none" 
	d="
M322.098358,469.881592 
	C324.553864,469.881653 326.541351,469.988678 328.512848,469.856873 
	C331.529755,469.655121 333.594391,470.110840 333.610840,473.946533 
	C333.626678,477.647308 332.201935,479.027161 328.585785,478.691132 
	C326.295166,478.478271 323.968719,478.652802 321.658325,478.651154 
	C314.445251,478.645966 313.759644,477.757782 315.492737,469.881622 
	C317.441803,469.881622 319.532471,469.881622 322.098358,469.881592 
z"/>
<path fill="#F9F9F9" opacity="1.000000" stroke="none" 
	d="
M483.950745,439.258667 
	C484.454315,432.193207 489.253479,436.101318 493.010284,434.817841 
	C493.010284,437.664337 493.010284,439.909485 493.010284,442.154663 
	C493.010284,444.480377 493.010284,446.806091 493.010284,449.061981 
	C485.572876,451.787048 483.953766,450.708679 483.950562,443.218384 
	C483.950043,442.052643 483.950470,440.886932 483.950745,439.258667 
z"/>
<path fill="#CBCBCB" opacity="1.000000" stroke="none" 
	d="
M250.356873,349.941406 
	C250.349808,349.354370 250.639069,348.555939 251.141098,348.386047 
	C260.127899,345.344208 262.709869,342.439758 263.027557,334.850830 
	C263.365662,326.774261 260.141418,322.109497 251.848495,318.643433 
	C251.558334,318.522186 251.338654,318.232300 250.996796,317.703552 
	C257.917480,317.925537 261.882690,321.699310 264.698853,330.034882 
	C265.090729,329.931152 265.009338,329.963409 265.045349,329.935852 
	C264.741119,332.613983 264.572235,335.354706 264.027802,338.018677 
	C262.526062,345.367218 258.384033,349.032471 250.356873,349.941406 
z"/>
<path fill="#CBCBCB" opacity="1.000000" stroke="none" 
	d="
M244.716522,317.302948 
	C241.056458,321.258362 237.021194,325.107147 232.663986,329.020386 
	C233.361481,326.404816 234.380936,323.724823 235.422440,320.986847 
	C234.544342,319.784119 233.397308,318.213043 232.244751,316.299927 
	C233.734879,316.608917 235.230530,317.259979 237.055984,317.910522 
	C239.704300,317.672089 242.022812,317.434204 244.716522,317.302948 
z"/>
<path fill="#CBCBCB" opacity="1.000000" stroke="none" 
	d="
M231.856750,331.286133 
	C232.413132,332.425323 232.825424,333.813110 232.948318,335.226105 
	C233.599701,342.715515 238.044861,346.928223 244.933228,349.506042 
	C236.310852,349.344391 230.787476,341.844482 231.856750,331.286133 
z"/>
<path fill="#E09D01" opacity="1.000000" stroke="none" 
	d="
M350.229919,161.533783 
	C347.555511,161.229568 344.503815,159.687943 341.863159,160.213120 
	C337.382751,161.104202 333.161591,163.298691 328.486877,164.996521 
	C332.695526,158.218079 341.458740,156.688461 350.229919,161.533783 
z"/>
<path fill="#E29F03" opacity="1.000000" stroke="none" 
	d="
M261.448242,241.139664 
	C263.427277,234.334015 264.090027,227.449539 260.008606,220.444611 
	C265.438110,225.425217 266.118927,233.355057 261.448242,241.139664 
z"/>
<path fill="#E09D01" opacity="1.000000" stroke="none" 
	d="
M326.647827,167.063553 
	C325.945526,172.848221 324.986633,178.811859 327.869812,184.987427 
	C323.273834,179.688690 323.323517,173.589783 326.647827,167.063553 
z"/>
<path fill="#E29F03" opacity="1.000000" stroke="none" 
	d="
M167.764496,164.746521 
	C163.397736,163.264191 158.984161,161.451157 154.308197,159.380325 
	C159.734238,157.965363 164.158737,160.072769 167.764496,164.746521 
z"/>
<path fill="#CBCBCB" opacity="1.000000" stroke="none" 
	d="
M173.572922,271.899170 
	C174.065201,273.591919 174.210693,275.350372 174.396118,277.591492 
	C176.724609,277.082764 178.581299,276.677124 180.674896,276.471100 
	C178.623230,277.213562 176.334656,277.756439 174.046082,278.299316 
	C173.772766,276.187805 173.499451,274.076324 173.572922,271.899170 
z"/>
<path fill="#CBCBCB" opacity="1.000000" stroke="none" 
	d="
M229.159241,242.559509 
	C226.065018,243.885361 222.825104,244.924179 219.204544,245.937790 
	C222.220459,244.699203 225.617004,243.485840 229.159241,242.559509 
z"/>
<path fill="#CBCBCB" opacity="1.000000" stroke="none" 
	d="
M188.526855,218.922974 
	C187.988571,220.360245 187.130188,222.022034 186.271820,223.683823 
	C185.521011,222.974747 184.770218,222.265671 184.048401,221.200104 
	C186.599747,223.068024 187.155869,220.505508 188.526855,218.922974 
z"/>
<path fill="#E29F03" opacity="1.000000" stroke="none" 
	d="
M258.866760,218.692490 
	C256.669983,217.996017 254.399261,216.969696 252.052109,215.618134 
	C254.248062,216.316116 256.520416,217.339386 258.866760,218.692490 
z"/>
<path fill="#CBCBCB" opacity="1.000000" stroke="none" 
	d="
M171.658264,199.797607 
	C169.941315,200.068329 168.241409,200.023941 166.197830,199.953888 
	C167.663681,198.070618 169.440414,195.784866 171.658264,199.797607 
z"/>
<path fill="#CBCBCB" opacity="1.000000" stroke="none" 
	d="
M192.618317,234.656158 
	C190.249725,233.567734 188.808136,231.817947 191.367477,228.984970 
	C191.993759,230.682983 192.287003,232.469711 192.618317,234.656158 
z"/>
<path fill="#CBCBCB" opacity="1.000000" stroke="none" 
	d="
M189.295120,272.712494 
	C190.799881,271.485718 192.647446,270.258392 194.856735,269.070465 
	C193.358276,270.310577 191.498093,271.511261 189.295120,272.712494 
z"/>
<path fill="#E29F03" opacity="1.000000" stroke="none" 
	d="
M141.787720,165.350235 
	C141.375320,167.421341 140.654846,169.628891 139.599045,171.924103 
	C140.002350,169.836746 140.740982,167.661713 141.787720,165.350235 
z"/>
<path fill="#CBCBCB" opacity="1.000000" stroke="none" 
	d="
M164.755081,200.253784 
	C165.345779,201.699661 165.641861,203.120575 165.900238,204.907318 
	C165.395187,203.591705 164.927826,201.910263 164.755081,200.253784 
z"/>
<path fill="#E29F03" opacity="1.000000" stroke="none" 
	d="
M145.837372,189.426697 
	C147.388580,189.731934 149.106903,190.335922 150.921692,191.262146 
	C149.346939,190.964737 147.675720,190.345093 145.837372,189.426697 
z"/>
<path fill="#E29F03" opacity="1.000000" stroke="none" 
	d="
M150.674973,159.362488 
	C149.449631,160.240540 147.883102,161.070801 145.937927,161.872467 
	C147.150772,161.000809 148.742294,160.157745 150.674973,159.362488 
z"/>
<path fill="#CBCBCB" opacity="1.000000" stroke="none" 
	d="
M212.377197,283.261475 
	C213.253326,284.101959 214.133499,285.263885 214.981674,286.764526 
	C214.093552,285.929779 213.237396,284.756317 212.377197,283.261475 
z"/>
<path fill="#CBCBCB" opacity="1.000000" stroke="none" 
	d="
M222.619644,284.739502 
	C221.737091,283.892059 220.863907,282.722748 220.025909,281.214630 
	C220.917068,282.056427 221.773041,283.237030 222.619644,284.739502 
z"/>
<path fill="#CBCBCB" opacity="1.000000" stroke="none" 
	d="
M228.684265,294.726654 
	C227.799774,293.863342 226.907654,292.675354 226.059311,291.140869 
	C226.960938,291.996918 227.818787,293.199432 228.684265,294.726654 
z"/>
<path fill="#CBCBCB" opacity="1.000000" stroke="none" 
	d="
M195.388062,223.056458 
	C195.736359,221.825378 196.372559,220.451157 197.335754,219.010284 
	C197.000504,220.266846 196.338242,221.590073 195.388062,223.056458 
z"/>
<path fill="#CBCBCB" opacity="1.000000" stroke="none" 
	d="
M218.379044,293.206543 
	C219.258530,294.064911 220.133286,295.248505 220.977142,296.771027 
	C220.088928,295.917236 219.231613,294.724518 218.379044,293.206543 
z"/>
<path fill="#CBCBCB" opacity="1.000000" stroke="none" 
	d="
M237.656265,309.733734 
	C236.764709,308.890350 235.882492,307.723145 235.030548,306.215912 
	C235.929108,307.053894 236.797348,308.231903 237.656265,309.733734 
z"/>
<path fill="#CBCBCB" opacity="1.000000" stroke="none" 
	d="
M203.399933,268.182983 
	C204.273575,269.041870 205.143753,270.226257 205.986359,271.747955 
	C205.104691,270.893005 204.250580,269.700714 203.399933,268.182983 
z"/>
<path fill="#CBCBCB" opacity="1.000000" stroke="none" 
	d="
M195.666458,207.043579 
	C195.307205,208.256592 194.659286,209.606277 193.693207,211.038528 
	C194.042618,209.807480 194.710220,208.493866 195.666458,207.043579 
z"/>
<path fill="#CBCBCB" opacity="1.000000" stroke="none" 
	d="
M167.363358,208.210846 
	C168.247711,209.057938 169.130020,210.230179 169.987122,211.740738 
	C169.095032,210.898056 168.228165,209.717026 167.363358,208.210846 
z"/>
<path fill="#CBCBCB" opacity="1.000000" stroke="none" 
	d="
M179.318604,249.939758 
	C179.667236,248.746490 180.294464,247.410095 181.236710,246.001007 
	C180.900208,247.217758 180.248688,248.507187 179.318604,249.939758 
z"/>
<path fill="#CBCBCB" opacity="1.000000" stroke="none" 
	d="
M200.293396,266.456116 
	C201.351181,264.003876 202.363342,264.687317 203.178589,267.196106 
	C202.342438,267.169891 201.502945,266.821014 200.293396,266.456116 
z"/>
<path fill="#E29F03" opacity="1.000000" stroke="none" 
	d="
M144.708588,162.285934 
	C144.282242,163.157272 143.551300,164.064285 142.510010,165.026855 
	C142.934464,164.162155 143.669235,163.241882 144.708588,162.285934 
z"/>
<path fill="#E09D01" opacity="1.000000" stroke="none" 
	d="
M353.663666,164.807190 
	C352.808594,164.364212 351.931274,163.615814 351.017822,162.564835 
	C351.868286,163.008759 352.754852,163.755280 353.663666,164.807190 
z"/>
<path fill="#CBCBCB" opacity="1.000000" stroke="none" 
	d="
M196.735809,257.278076 
	C196.372177,257.940308 195.908264,258.960480 195.125519,259.942139 
	C195.416306,259.147736 196.025909,258.391846 196.735809,257.278076 
z"/>
<path fill="#E29F03" opacity="1.000000" stroke="none" 
	d="
M249.754456,214.934982 
	C249.105438,215.276154 248.249237,215.427490 247.214630,215.342316 
	C247.873230,214.985580 248.710251,214.865356 249.754456,214.934982 
z"/>
<path fill="#CBCBCB" opacity="1.000000" stroke="none" 
	d="
M209.387878,262.681702 
	C209.478119,262.079285 209.572601,261.071991 209.999451,260.115295 
	C210.018555,260.869507 209.705338,261.573151 209.387878,262.681702 
z"/>
<path fill="#E29F03" opacity="1.000000" stroke="none" 
	d="
M139.256317,179.304245 
	C139.751099,179.836502 140.189789,180.687729 140.407043,181.735321 
	C139.857147,181.162201 139.528687,180.392700 139.256317,179.304245 
z"/>
<path fill="#CBCBCB" opacity="1.000000" stroke="none" 
	d="
M238.189636,316.763245 
	C238.199387,315.966644 238.463821,315.084473 239.051361,314.052246 
	C239.064438,314.827332 238.754379,315.752472 238.189636,316.763245 
z"/>
<path fill="#CBCBCB" opacity="1.000000" stroke="none" 
	d="
M170.362717,213.229797 
	C170.964066,213.646988 171.557678,214.353561 172.135742,215.369339 
	C171.531784,214.958755 170.943390,214.238968 170.362717,213.229797 
z"/>
<path fill="#E29F03" opacity="1.000000" stroke="none" 
	d="
M141.124420,184.272766 
	C141.758682,184.689468 142.395859,185.418350 143.049011,186.478638 
	C142.419098,186.068344 141.773209,185.326645 141.124420,184.272766 
z"/>
<path fill="#CBCBCB" opacity="1.000000" stroke="none" 
	d="
M222.248047,252.721741 
	C222.647171,252.099304 223.341141,251.469498 224.350021,250.846298 
	C223.957596,251.473389 223.250244,252.093872 222.248047,252.721741 
z"/>
<path fill="#CBCBCB" opacity="1.000000" stroke="none" 
	d="
M193.745148,260.275024 
	C193.296448,260.891296 192.545334,261.502716 191.467606,262.087860 
	C191.908234,261.464417 192.675491,260.867310 193.745148,260.275024 
z"/>
<path fill="#CBCBCB" opacity="1.000000" stroke="none" 
	d="
M203.132874,208.832199 
	C203.444916,208.634445 203.778305,208.909439 203.870758,208.968063 
	C203.489929,209.816055 203.016647,210.605408 202.236221,211.533005 
	C202.226318,210.790817 202.523575,209.910385 203.132874,208.832199 
z"/>
<path fill="#CBCBCB" opacity="1.000000" stroke="none" 
	d="
M174.600418,204.765961 
	C174.087051,204.493744 173.567902,203.923508 173.094971,203.036621 
	C173.625687,203.302643 174.110153,203.885284 174.600418,204.765961 
z"/>
<path fill="#CBCBCB" opacity="1.000000" stroke="none" 
	d="
M183.679947,219.750717 
	C183.145142,219.463043 182.609512,218.872803 182.131638,217.953125 
	C182.685974,218.231842 183.182541,218.839996 183.679947,219.750717 
z"/>
<path fill="#CBCBCB" opacity="1.000000" stroke="none" 
	d="
M215.415771,288.230072 
	C215.928024,288.506165 216.443314,289.078156 216.908508,289.965454 
	C216.378555,289.695831 215.898682,289.110901 215.415771,288.230072 
z"/>
<path fill="#CBCBCB" opacity="1.000000" stroke="none" 
	d="
M174.374420,258.088440 
	C174.381180,257.490814 174.661423,256.780884 175.241089,255.998703 
	C175.242996,256.609711 174.945450,257.292908 174.374420,258.088440 
z"/>
<path fill="#CBCBCB" opacity="1.000000" stroke="none" 
	d="
M185.204788,240.390335 
	C185.572937,240.331741 186.326889,240.194916 187.102020,240.353668 
	C186.612335,240.536880 186.101471,240.424484 185.204788,240.390335 
z"/>
<path fill="#CBCBCB" opacity="1.000000" stroke="none" 
	d="
M183.396942,243.121124 
	C183.396744,242.495178 183.677582,241.759933 184.262268,240.934296 
	C184.270065,241.566544 183.974030,242.289169 183.396942,243.121124 
z"/>
<path fill="#CBCBCB" opacity="1.000000" stroke="none" 
	d="
M188.422836,243.170700 
	C188.950806,243.456314 189.463776,244.041473 189.923523,244.941422 
	C189.382812,244.660873 188.895325,244.065552 188.422836,243.170700 
z"/>
<path fill="#CBCBCB" opacity="1.000000" stroke="none" 
	d="
M198.670319,244.753510 
	C198.135513,244.469467 197.601044,243.884277 197.122955,242.971481 
	C197.676437,243.246704 198.173538,243.849533 198.670319,244.753510 
z"/>
<path fill="#CBCBCB" opacity="1.000000" stroke="none" 
	d="
M180.601837,230.281952 
	C180.828110,230.584106 181.068802,231.252838 181.091339,232.007507 
	C180.787552,231.611816 180.701889,231.130173 180.601837,230.281952 
z"/>
<path fill="#CBCBCB" opacity="1.000000" stroke="none" 
	d="
M172.523895,245.737366 
	C172.527710,246.367493 172.260452,247.138519 171.667648,247.983368 
	C171.645676,247.330887 171.949234,246.604568 172.523895,245.737366 
z"/>
<path fill="#CBCBCB" opacity="1.000000" stroke="none" 
	d="
M200.413895,247.804138 
	C199.906189,247.538635 199.440018,246.992615 199.019897,246.156326 
	C199.529129,246.418564 199.992279,246.971085 200.413895,247.804138 
z"/>
<path fill="#CBCBCB" opacity="1.000000" stroke="none" 
	d="
M170.667862,248.959747 
	C170.687698,249.552063 170.439545,250.235489 169.913940,251.005280 
	C169.890945,250.411377 170.145416,249.731110 170.667862,248.959747 
z"/>
<path fill="#CBCBCB" opacity="1.000000" stroke="none" 
	d="
M211.794434,249.567139 
	C211.514923,250.035797 210.947891,250.510437 210.080597,250.937500 
	C210.355850,250.450989 210.931366,250.012070 211.794434,249.567139 
z"/>
<path fill="#CBCBCB" opacity="1.000000" stroke="none" 
	d="
M225.176849,250.690186 
	C225.421585,250.137100 225.966797,249.577637 226.830154,249.045486 
	C226.591309,249.609802 226.034317,250.146805 225.176849,250.690186 
z"/>
<path fill="#CBCBCB" opacity="1.000000" stroke="none" 
	d="
M206.805023,252.366089 
	C206.587662,252.866379 206.058304,253.356552 205.343079,253.687866 
	C205.602478,253.138016 206.047745,252.747009 206.805023,252.366089 
z"/>
<path fill="#CBCBCB" opacity="1.000000" stroke="none" 
	d="
M216.237152,256.632935 
	C216.513443,256.095367 217.086899,255.564957 217.981018,255.093750 
	C217.712555,255.648682 217.123444,256.144440 216.237152,256.632935 
z"/>
<path fill="#CBCBCB" opacity="1.000000" stroke="none" 
	d="
M230.492020,313.216919 
	C230.976059,313.495026 231.475891,314.063904 231.924973,314.941315 
	C231.418762,314.669128 230.963287,314.088409 230.492020,313.216919 
z"/>
<path fill="#CBCBCB" opacity="1.000000" stroke="none" 
	d="
M164.686264,258.914062 
	C164.748337,259.470551 164.574997,260.098511 164.102936,260.890625 
	C164.019760,260.365021 164.235306,259.675262 164.686264,258.914062 
z"/>
<path fill="#CBCBCB" opacity="1.000000" stroke="none" 
	d="
M171.172913,262.774750 
	C171.275375,262.167328 171.613419,261.622772 172.281586,261.006409 
	C172.210648,261.568909 171.809570,262.203278 171.172913,262.774750 
z"/>
<path fill="#CBCBCB" opacity="1.000000" stroke="none" 
	d="
M186.784470,264.491638 
	C186.513596,264.991791 185.951462,265.482208 185.084534,265.931274 
	C185.350876,265.420624 185.922028,264.951294 186.784470,264.491638 
z"/>
<path fill="#CBCBCB" opacity="1.000000" stroke="none" 
	d="
M177.512085,225.206039 
	C178.040665,225.465683 178.529800,226.009430 178.972107,226.852203 
	C178.441071,226.597549 177.956848,226.043839 177.512085,225.206039 
z"/>
<path fill="#CBCBCB" opacity="1.000000" stroke="none" 
	d="
M179.779968,268.495972 
	C179.479645,269.005066 178.882278,269.482941 177.975159,269.895294 
	C178.271255,269.374786 178.877075,268.919769 179.779968,268.495972 
z"/>
<path fill="#CBCBCB" opacity="1.000000" stroke="none" 
	d="
M213.656006,269.756714 
	C213.122757,269.472412 212.590988,268.888062 212.117584,267.977264 
	C212.669785,268.252777 213.163635,268.854675 213.656006,269.756714 
z"/>
<path fill="#CBCBCB" opacity="1.000000" stroke="none" 
	d="
M215.375305,272.808960 
	C214.880722,272.543457 214.423553,271.999634 214.011917,271.169220 
	C214.509201,271.431976 214.960953,271.981323 215.375305,272.808960 
z"/>
<path fill="#CBCBCB" opacity="1.000000" stroke="none" 
	d="
M219.574738,279.770325 
	C219.081970,279.484619 218.563507,278.904694 218.101379,278.005920 
	C218.621506,278.283417 219.085281,278.879761 219.574738,279.770325 
z"/>
<path fill="#CBCBCB" opacity="1.000000" stroke="none" 
	d="
M179.628052,233.918732 
	C179.621872,234.516708 179.346130,235.236816 178.772247,236.047714 
	C178.768890,235.439285 179.063675,234.740082 179.628052,233.918732 
z"/>
<path fill="#CBCBCB" opacity="1.000000" stroke="none" 
	d="
M230.433990,297.801758 
	C229.931091,297.539398 229.457108,296.994812 229.024826,296.157410 
	C229.531982,296.416199 229.997437,296.967865 230.433990,297.801758 
z"/>
<path fill="#CBCBCB" opacity="1.000000" stroke="none" 
	d="
M234.641632,304.757629 
	C234.117020,304.469757 233.589676,303.881500 233.121033,302.968323 
	C233.666122,303.248016 234.152512,303.852631 234.641632,304.757629 
z"/>
<path fill="#CBCBCB" opacity="1.000000" stroke="none" 
	d="
M227.396286,308.232300 
	C227.927444,308.509949 228.446991,309.083496 228.908981,309.975586 
	C228.362503,309.705475 227.873581,309.116852 227.396286,308.232300 
z"/>
<path fill="#010101" opacity="1.000000" stroke="none" 
	d="
M171.035919,184.036865 
	C170.899185,184.458954 170.590195,184.704025 170.281189,184.949097 
	C170.190628,184.603134 170.100067,184.257187 170.259583,183.713257 
	C170.509659,183.515305 170.863678,183.859833 171.035919,184.036865 
z"/>
</svg>