<?xml version="1.0" encoding="utf-8"?>
<!-- Generator: Adobe Illustrator 23.0.2, SVG Export Plug-In . SVG Version: 6.00 Build 0)  -->
<svg version="1.1" id="图层_1" xmlns="http://www.w3.org/2000/svg" xmlns:xlink="http://www.w3.org/1999/xlink" x="0px" y="0px"
	 viewBox="0 0 841.89 595.28" style="enable-background:new 0 0 841.89 595.28;" xml:space="preserve">
<style type="text/css">
	.st0{fill:#036EB7;}
	.st1{fill:#2CA6E0;}
	.st2{clip-path:url(#SVGID_2_);fill:#2CA6E0;}
	.st3{clip-path:url(#SVGID_2_);fill:#036EB7;}
</style>
<rect x="74.59" y="70.34" class="st0" width="46.4" height="40.23"/>
<rect x="726.57" y="70.34" class="st0" width="46.4" height="40.23"/>
<rect x="75.28" y="131.85" class="st1" width="45.35" height="181.75"/>
<g>
	<defs>
		<rect id="SVGID_1_" width="841.89" height="595.28"/>
	</defs>
	<clipPath id="SVGID_2_">
		<use xlink:href="#SVGID_1_"  style="overflow:visible;"/>
	</clipPath>
	<path class="st2" d="M270.51,313.61V203.72c0-24.77-17.44-33.14-33.34-33.14c-15.89,0-33.72,8.37-33.72,33.14v109.89h-50.39V131.85
		h49.23v16.74c13.18-12.56,31.79-18.84,50.39-18.84c20.16,0,36.44,5.93,47.68,16.05c16.28,14.65,20.54,31.75,20.54,51.63v116.17
		H270.51z"/>
	<path class="st2" d="M645.76,313.61V202.67c0-24.07-16.74-32.09-32.33-32.09c-15.59,0-31.95,8.37-31.95,32.09v110.93h-49.45V65.22
		h49.45v83.38c13.31-12.56,30.05-18.84,47.54-18.84c43.36,0,66.18,27.91,66.18,66.28v117.56H645.76z"/>
	<rect x="727.27" y="131.85" class="st2" width="45.35" height="181.75"/>
	<path class="st2" d="M466.08,253.38l35.47,20.75c-5.58,12.94-14.39,22.75-26.43,29.45c-12.05,6.69-25.77,10.04-41.16,10.04
		c-15.39,0-29.78-3.51-43.17-10.54c-13.38-7.03-24.21-17.4-32.46-31.12c-8.26-13.72-12.38-30.06-12.38-49.02
		c0-19.18,4.13-35.64,12.38-49.36c8.25-13.72,19.07-24.09,32.46-31.12c13.38-7.03,27.77-10.54,43.17-10.54
		c15.39,0,29.11,3.35,41.16,10.04c12.05,6.69,20.86,16.51,26.43,29.45l-35.47,20.75c-7.81-12.93-18.52-19.41-32.12-19.41
		c-12.05,0-21.7,4.52-28.94,13.55c-7.25,9.03-10.88,21.25-10.88,36.64c0,15.17,3.68,27.33,11.04,36.47
		c7.36,9.15,16.95,13.72,28.78,13.72C447.34,273.12,458.05,266.54,466.08,253.38"/>
	<path class="st3" d="M163.51,495.81c10.58,12.17,30.39,20.6,59.44,25.27l-9.23,19.73c-16.52-3.48-29.91-8.04-40.17-13.69
		c-10.26-5.65-18.3-12.93-24.13-21.84c-5.83,7.72-14.28,14.7-25.35,20.95c-11.07,6.25-24.49,11.27-40.25,15.08l-9.23-19.07
		c16.2-3.15,29.02-6.87,38.47-11.17c9.45-4.29,16.17-9.37,20.17-15.24H74.59v-16.95h17.33v-39.61h46.81v-11.74h19.28v11.74h47.46
		v39.61h17.01v16.95H163.51z M130.47,432.07h-19.11v-12.07H76.69v-18.42h34.66v-11.9h19.11v11.9h36.12v-11.9h19.11v11.9h34.34v18.42
		H185.7v12.07h-19.11v-12.07h-36.12V432.07z M110.87,457.34v21.52h27.86v-1.79v-19.73H110.87z M186.19,457.34h-28.18v21.52h28.18
		V457.34z"/>
	<path class="st3" d="M336.32,523.69c8.74-6.74,15.82-13.26,21.22-19.56l11.5,11.57c-7.13,8.04-15.93,16.41-26.4,25.11l-10.69-13.86
		l1.46-0.98c-6.48,3.15-11.07,5.49-13.77,7.01l-6.48,3.91l-6.96-14.51c2.16-2.28,3.24-4.78,3.24-7.5v-42.88h-14.09v13.21h10.69
		v14.67h-10.69v15.16c1.4-0.87,3.51-2.06,6.31-3.59l1.62,15.81c-4.86,2.06-9.02,4.13-12.47,6.19c-1.73,0.98-3.51,2.12-5.35,3.43
		l-6.64-14.02c1.4-0.87,2.29-1.85,2.67-2.93c0.37-1.09,0.57-2.72,0.57-4.89v-43.04h-4.05c-0.11,15.54-0.78,27.8-2.02,36.76
		c-1.24,8.97-3.54,18.39-6.88,28.28l-15.06-8.15c3.56-9.35,6.08-18.77,7.53-28.28c1.46-9.51,2.18-21.93,2.18-37.25v-62.93h30.61
		c-1.3-3.48-2.7-6.95-4.21-10.43l17.17-3.75c3.35,7.94,5.29,12.66,5.83,14.18h23.32v16.95h-18.46v12.55h19.92v42.06H323.2v13.04
		h10.53v15H323.2v15.49l11.82-6.68L336.32,523.69z M286.43,417.4h-8.26v12.55h8.26V417.4z M278.17,444.13v12.39v1.14h8.26v-13.53
		H278.17z M298.58,429.95h7.45V417.4h-7.45V429.95z M298.58,457.66h7.45v-13.53h-7.45V457.66z M324.98,444.13h-6.97v13.53h6.97
		V444.13z M384.75,503.64c3.56,3.04,7.77,6.93,12.63,11.66c4.86,4.73,8.8,8.67,11.83,11.82l-11.18,12.06
		c-3.24-3.8-7.24-8.15-11.99-13.04c-4.75-4.89-8.69-8.7-11.82-11.41l10.2-11.09h-45.84v-17.12h7.94v-64.07h-7.13v-16.63h7.13v-16.14
		h16.04v16.14h18.63v-16.14h16.85v16.14h7.45v16.63h-7.45v64.07h8.75v17.12H384.75z M381.19,422.45h-18.63v10.92h18.63V422.45z
		 M381.19,449.19h-18.63v11.57h18.63V449.19z M381.19,476.57h-18.63v9.94h18.63V476.57z"/>
	<path class="st3" d="M511.24,468.75h60.74v70.75h-20.24v-6.52h-70.46v6.68h-20.09v-67.98c-4,1.96-8.05,3.81-12.15,5.54l-8.42-15.81
		c8.31-3.15,15.01-6.46,20.08-9.94c5.07-3.48,8.86-7.44,11.34-11.9h-29.48v-14.83h12.47l-12.63-9.13
		c7.99-9.02,14.04-18.47,18.14-28.37l17.17,3.1c-0.87,2.61-2.11,5.49-3.73,8.64h42.76v15.16H495.2l-0.65,9.62v0.98h25.59v14.83
		h-28.18v0.33c11.01,5.11,20.51,9.94,28.51,14.51L511.24,468.75z M476.41,424.73v-0.33c0.22-1.52,0.43-4.94,0.65-10.27h-11.82
		c-1.62,2.61-4.16,6.14-7.62,10.6H476.41z M466.69,468.75h43.57c-5.29-3.59-13.61-8.64-24.95-15.16
		C481.21,459.02,475.01,464.08,466.69,468.75 M481.27,493.53h70.46v-9.62h-70.46V493.53z M481.27,517.66h70.46v-9.95h-70.46V517.66z
		 M525.49,398.32h58.31v61.95h-58.31V398.32z M543.47,443.32h22.51v-28.69h-22.51V443.32z"/>
	<path class="st3" d="M710.04,456.28c-2.65-2.77-3.97-7.15-3.97-13.12v-8.8l-15.39,9.46c-1.41-2.61-3.3-5.81-5.67-9.62l-9.55,0.98
		c-11.88,1.09-23.06,2.34-33.53,3.75c-2.92,0.33-6.97,0.87-12.15,1.63l-4.86-18.42c2.81-0.54,5.07-1.57,6.8-3.1
		c3.13-3.15,6.94-8.04,11.42-14.67c4.48-6.63,8.02-12.72,10.61-18.26l18.95,6.85c-3.14,5-6.99,10.65-11.58,16.95
		c-4.59,6.31-8.13,10.82-10.61,13.53c10.04-1.2,18.79-2.12,26.24-2.77c-2.59-4.24-5.18-8.15-7.77-11.74l13.93-8.64
		c4.97,6.52,12.69,17.71,23.16,33.58v-44.5h18.95v21.03c6.48-2.61,12.85-5.41,19.11-8.39c6.26-2.99,11.29-5.68,15.07-8.07
		l9.39,15.65c-4.97,2.72-11.55,5.84-19.76,9.37c-8.21,3.53-16.15,6.71-23.81,9.54v8.48c0,2.61,0.43,4.29,1.3,5.05
		c0.86,0.76,2.59,1.25,5.18,1.47c1.62,0.11,3.94,0.16,6.96,0.16c3.13,0,5.51-0.05,7.13-0.16c2.48-0.21,4.29-0.54,5.43-0.98
		c1.13-0.43,1.92-1.11,2.35-2.04c0.43-0.92,0.81-2.42,1.13-4.48c0.43-5.87,0.65-10.05,0.65-12.55l17.17,4.89
		c-0.32,5.22-0.81,10.54-1.46,15.98c-0.76,6.09-2.48,10.24-5.18,12.47c-2.7,2.23-7.34,3.56-13.93,4c-4.64,0.32-9.34,0.49-14.09,0.49
		c-5.18,0-10.37-0.16-15.55-0.49C716.71,460.54,712.69,459.05,710.04,456.28 M631.4,538.36v-91.78h65.28v75.15
		c0,6.52-1.33,10.95-3.97,13.28c-2.64,2.34-7.26,3.51-13.85,3.51c-5.61,0-10.42-0.27-14.41-0.82l-2.59-16.95
		c4.96,0.76,9.18,1.14,12.63,1.14c1.51,0,2.51-0.51,3-1.55c0.49-1.03,0.73-3.02,0.73-5.95v-5.22h-28.83v29.18H631.4z M678.22,462.23
		h-28.83v9.13h28.83V462.23z M649.38,494.83h28.83v-9.13h-28.83V494.83z M772.97,501.19c-0.11,4.78-0.65,11.03-1.62,18.75
		c-0.76,6.3-2.62,10.62-5.59,12.96c-2.97,2.34-7.91,3.77-14.82,4.32c-4.54,0.33-8.96,0.49-13.28,0.49c-4.75,0-9.67-0.16-14.74-0.49
		c-5.62-0.33-9.78-1.93-12.47-4.81c-2.7-2.88-4.05-7.42-4.05-13.61v-52.66h18.63v17.44c15.44-6.63,26.94-12.5,34.5-17.61l9.23,15.32
		c-9.07,5.54-23.65,12.23-43.73,20.05v10.92c0,2.72,0.57,4.54,1.7,5.46c1.13,0.92,3.15,1.49,6.07,1.71
		c2.81,0.22,4.91,0.33,6.32,0.33c1.18,0,3.62-0.11,7.29-0.33c3.13-0.22,5.18-0.82,6.16-1.79c0.97-0.98,1.67-3.15,2.1-6.52
		c0.65-7.5,0.97-12.5,0.97-15L772.97,501.19z"/>
</g>
</svg>
