<?xml version="1.0" standalone="no"?>
<!DOCTYPE svg PUBLIC "-//W3C//DTD SVG 20010904//EN"
 "http://www.w3.org/TR/2001/REC-SVG-20010904/DTD/svg10.dtd">
<svg version="1.0" xmlns="http://www.w3.org/2000/svg"
 width="437.000000pt" height="114.000000pt" viewBox="0 0 437.000000 114.000000"
 preserveAspectRatio="xMidYMid meet">

<g transform="translate(0.000000,114.000000) scale(0.100000,-0.100000)"
fill="#000000" stroke="none">
<path d="M577 1123 c-3 -5 -26 -8 -51 -8 -25 1 -46 -2 -46 -7 0 -4 -13 -6 -30
-4 -16 2 -30 -1 -30 -6 0 -6 -7 -8 -15 -4 -8 3 -15 1 -15 -4 0 -6 -7 -10 -15
-10 -8 0 -15 -5 -15 -11 0 -5 -4 -7 -10 -4 -5 3 -19 -3 -31 -14 -12 -11 -26
-18 -31 -15 -4 3 -8 0 -8 -5 0 -6 -6 -11 -13 -11 -7 0 -19 -9 -27 -20 -8 -11
-20 -20 -28 -20 -7 0 -10 -4 -7 -10 3 -5 -1 -10 -9 -10 -9 0 -16 -6 -16 -13 0
-7 -9 -19 -20 -27 -11 -8 -20 -20 -20 -27 0 -7 -5 -13 -11 -13 -5 0 -7 -4 -4
-10 3 -5 -1 -10 -9 -10 -10 0 -13 -6 -10 -15 4 -8 1 -15 -5 -15 -6 0 -11 -7
-11 -15 0 -8 -4 -15 -10 -15 -5 0 -7 -7 -4 -15 4 -8 1 -15 -5 -15 -6 0 -8 -7
-5 -15 4 -8 1 -15 -5 -15 -6 0 -8 -7 -5 -15 4 -8 2 -15 -4 -15 -5 0 -8 -13 -6
-30 2 -16 0 -30 -5 -30 -4 0 -7 -12 -5 -27 1 -15 -3 -31 -9 -35 -9 -6 -9 -8 0
-8 7 0 10 -18 9 -50 -2 -27 0 -50 4 -50 4 0 6 -13 5 -30 -1 -16 2 -30 8 -30 5
0 7 -7 3 -15 -3 -8 -1 -15 5 -15 6 0 9 -7 5 -15 -3 -8 -1 -15 4 -15 6 0 10 -7
10 -15 0 -8 5 -15 11 -15 5 0 7 -5 4 -11 -4 -5 3 -19 15 -29 12 -10 19 -24 15
-29 -3 -6 1 -11 10 -11 9 0 14 -4 11 -9 -3 -5 1 -12 10 -15 8 -3 12 -10 9 -16
-3 -5 1 -10 10 -10 9 0 13 -4 10 -10 -3 -5 -1 -10 5 -10 15 0 40 -25 40 -40 0
-6 5 -8 11 -5 5 4 18 -3 28 -14 10 -12 23 -21 30 -21 6 0 11 -4 11 -10 0 -5 7
-7 15 -4 8 4 15 2 15 -3 0 -11 115 -53 151 -56 13 0 27 -6 31 -12 5 -6 8 -5 8
3 0 8 5 10 12 6 16 -10 78 -12 84 -3 2 4 18 6 34 4 17 -2 30 0 30 4 0 4 14 7
30 6 17 -1 30 2 30 8 0 5 7 7 15 3 8 -3 15 -1 15 4 0 6 7 10 15 10 8 0 15 5
15 11 0 5 5 7 10 4 6 -3 10 -1 10 5 0 7 7 10 15 6 9 -3 15 0 15 10 0 8 5 12
11 9 5 -4 18 3 28 14 10 12 22 21 27 21 5 0 16 9 24 20 8 11 20 20 27 20 7 0
12 6 10 12 -1 7 4 12 12 10 8 -2 11 3 8 13 -4 9 -1 15 9 15 8 0 12 5 9 10 -3
6 1 10 9 10 10 0 13 6 10 15 -4 8 -1 15 5 15 6 0 11 7 11 15 0 8 4 15 10 15 5
0 7 7 4 15 -4 8 -2 15 4 15 8 0 36 77 37 102 0 3 3 9 7 13 4 4 4 13 1 21 -3 8
-1 14 3 14 9 0 12 119 3 135 -3 6 -5 22 -4 38 0 15 -3 27 -8 27 -4 0 -6 4 -3
8 7 12 -15 82 -26 82 -5 0 -6 5 -3 10 3 6 -1 17 -9 26 -9 8 -16 22 -16 30 0 8
-4 14 -10 14 -5 0 -10 5 -10 11 0 7 -9 20 -21 30 -11 10 -18 23 -14 28 3 6 1
11 -5 11 -7 0 -25 14 -40 30 -15 17 -33 30 -39 30 -6 0 -11 5 -11 10 0 6 -7
10 -16 10 -8 0 -12 5 -9 10 3 6 -1 10 -9 10 -9 0 -16 4 -16 10 0 5 -7 7 -15 4
-8 -4 -15 -2 -15 4 0 6 -13 13 -30 17 -16 4 -30 11 -30 15 0 5 -7 7 -15 4 -8
-4 -15 -2 -15 4 0 5 -13 8 -30 6 -16 -2 -30 1 -30 6 0 5 -7 7 -15 4 -9 -4 -15
0 -15 7 0 11 -3 11 -10 -1 -8 -12 -11 -13 -19 -1 -6 10 -10 10 -16 1 -6 -10
-9 -10 -15 0 -4 7 -10 8 -13 3z m75 -88 c-2 -30 -2 -55 2 -55 9 0 46 39 46 49
0 5 7 11 15 15 19 7 20 -16 3 -45 -11 -17 -10 -22 5 -33 9 -7 17 -18 17 -25 0
-13 5 -14 -54 4 -65 20 -150 20 -166 0 -19 -23 -25 -18 -25 19 0 20 8 43 20
56 l20 22 5 -24 c5 -18 13 -24 43 -26 39 -3 44 5 38 62 -1 17 14 35 30 36 3 0
4 -25 1 -55z m-303 -56 c24 -43 42 -46 51 -10 5 22 5 22 26 3 24 -23 22 -82
-3 -82 -10 0 -13 6 -9 16 4 12 2 15 -9 10 -8 -3 -21 -8 -28 -11 -13 -6 -67 75
-67 100 0 26 16 16 39 -26z m-45 -46 l47 -46 -21 -22 c-11 -12 -20 -27 -20
-33 0 -7 -7 -12 -15 -12 -24 0 -73 -85 -67 -115 2 -15 0 -25 -7 -25 -6 0 -11
4 -11 10 0 5 -11 12 -25 16 -21 5 -25 12 -25 40 0 32 2 34 21 24 17 -9 23 -8
34 7 12 16 10 21 -13 40 -15 12 -33 22 -39 23 -12 0 -19 40 -7 40 3 0 23 -14
45 -32 43 -35 64 -29 43 12 -8 14 -14 19 -14 13 0 -7 -7 -13 -15 -13 -21 0
-19 9 6 31 20 17 24 17 51 3 16 -9 32 -13 36 -10 7 8 -38 56 -54 56 -7 0 -10
8 -7 20 3 11 6 20 8 20 1 0 23 -21 49 -47z m575 10 c0 -10 1 -33 2 -51 2 -29
4 -31 12 -15 15 25 34 43 46 43 16 0 14 -11 -6 -32 -13 -15 -14 -23 -4 -44 6
-14 9 -30 6 -35 -4 -5 -3 -13 0 -19 7 -11 61 13 67 30 2 7 12 8 28 2 24 -9 24
-10 -20 -32 -25 -12 -53 -29 -62 -37 -15 -13 -18 -12 -32 15 -8 16 -27 44 -42
61 -18 22 -23 35 -16 44 6 8 3 18 -11 32 l-20 20 12 -23 c11 -20 9 -23 -14
-32 -37 -14 -40 -13 -53 15 -12 26 -16 55 -8 55 2 0 11 3 19 6 12 4 14 0 10
-18 -5 -21 -4 -21 8 -6 12 15 51 36 71 37 4 1 7 -7 7 -16z m-214 -38 c220 -58
329 -298 225 -493 -137 -257 -486 -251 -621 10 -34 65 -38 194 -9 270 39 104
147 197 252 217 65 13 88 12 153 -4z m385 -125 c17 -10 18 -9 -42 -37 -38 -18
-46 -26 -41 -40 6 -16 5 -16 -10 -4 -27 21 -20 38 26 64 50 30 48 29 67 17z
m-870 -146 c0 -19 -5 -24 -24 -24 -29 0 -40 24 -20 44 20 20 44 9 44 -20z
m850 21 c16 -19 6 -45 -19 -45 -23 0 -35 28 -20 46 15 18 24 18 39 -1z m-24
-75 c16 0 28 -9 39 -31 12 -23 13 -30 3 -28 -37 5 -49 -2 -46 -23 2 -18 12
-25 46 -32 26 -6 42 -14 42 -24 0 -10 -7 -12 -25 -8 -14 3 -36 9 -49 12 -16 4
-25 0 -30 -12 -5 -14 -4 -15 8 -5 18 15 29 -10 20 -45 -7 -28 -19 -31 -33 -6
-9 15 -12 15 -20 2 -7 -10 -5 -20 5 -31 7 -8 14 -17 14 -20 0 -9 -60 -8 -65 2
-14 22 -14 57 0 75 14 19 14 19 15 -1 l1 -20 11 20 c7 11 13 25 14 30 21 94
22 111 8 126 -19 21 -18 33 2 25 9 -3 26 -6 40 -6z m-803 -64 c7 -73 32 -132
58 -139 27 -7 23 -20 -10 -35 -27 -12 -81 -8 -81 7 0 3 8 11 19 18 16 10 17
16 7 47 -12 40 -19 42 -59 21 -27 -14 -57 -11 -57 5 0 4 20 13 45 20 53 15 58
36 13 45 -18 4 -37 10 -42 12 -15 9 18 22 41 16 18 -4 23 -1 23 15 0 18 11 29
31 31 3 1 9 -28 12 -63z m692 -211 c15 -16 25 -37 25 -55 0 -35 -2 -35 -34
-14 -16 10 -26 11 -30 5 -8 -12 21 -61 35 -61 5 0 9 -9 9 -20 0 -30 -11 -24
-54 32 l-39 51 26 23 c15 13 27 32 27 44 0 26 4 25 35 -5z m-591 -12 c4 -10
-2 -26 -17 -42 -14 -14 -26 -32 -29 -40 -2 -8 -14 -16 -26 -18 -19 -2 -21 0
-13 15 5 9 21 28 35 41 14 14 26 33 26 43 0 23 16 24 24 1z m76 -66 c0 -5 4
-6 9 -2 5 3 24 -3 43 -14 18 -11 50 -23 71 -26 l38 -7 -7 -57 c-6 -50 -16 -70
-36 -71 -3 0 0 22 7 49 l12 48 -43 -5 c-40 -4 -44 -3 -44 17 0 16 -5 21 -17
19 -12 -3 -17 -12 -15 -27 1 -14 -2 -21 -10 -19 -7 3 -14 21 -16 41 -4 48 -27
49 -42 2 -6 -19 -18 -35 -26 -35 -16 0 -19 16 -4 25 6 3 10 14 9 23 0 12 -3
11 -9 -5 -5 -13 -16 -23 -25 -23 -22 0 -19 13 13 46 16 16 31 37 35 47 7 17 8
17 32 0 13 -10 25 -22 25 -26z m429 -34 c8 -21 20 -45 27 -54 13 -14 12 -18 0
-28 -11 -9 -17 -3 -32 34 -11 25 -22 45 -26 45 -5 0 -7 -3 -7 -7 2 -14 -1 -28
-11 -43 -8 -12 -14 -10 -40 15 l-31 30 48 21 c26 12 50 23 53 23 4 1 12 -16
19 -36z m-172 -5 c29 -27 29 -42 -2 -62 -30 -20 -35 -20 -35 0 0 10 6 14 15
10 19 -7 20 18 0 34 -21 17 -35 3 -32 -32 3 -39 -18 -48 -27 -12 -6 21 -1 33
20 55 15 16 30 29 33 29 2 0 15 -10 28 -22z"/>
<path d="M531 870 c0 -8 4 -22 9 -30 12 -18 12 -2 0 25 -6 13 -9 15 -9 5z"/>
<path d="M581 857 c-1 -36 23 -32 26 4 2 22 2 22 -6 4 l-8 -20 -5 20 c-4 15
-6 13 -7 -8z"/>
<path d="M622 857 c3 -24 21 -27 26 -4 2 8 -4 17 -13 21 -13 4 -16 1 -13 -17z"/>
<path d="M490 860 c0 -5 4 -10 10 -10 5 0 7 -7 4 -15 -5 -11 -2 -13 10 -9 12
5 13 10 5 25 -10 20 -29 26 -29 9z"/>
<path d="M663 855 c-3 -9 -3 -18 -1 -21 3 -3 8 4 11 16 6 23 -1 27 -10 5z"/>
<path d="M471 852 c-1 -7 -5 -10 -11 -7 -12 7 -13 -5 -2 -20 9 -12 32 -18 31
-7 -1 16 -18 46 -18 34z"/>
<path d="M696 848 c3 -4 0 -8 -5 -8 -6 0 -11 -7 -11 -15 0 -23 15 -18 27 8 9
19 8 24 -3 24 -7 0 -11 -4 -8 -9z"/>
<path d="M410 826 c0 -16 28 -42 36 -33 3 3 3 15 -1 26 -7 23 -35 29 -35 7z
m28 -21 c-3 -3 -9 2 -12 12 -6 14 -5 15 5 6 7 -7 10 -15 7 -18z"/>
<path d="M720 821 c-7 -14 -7 -22 2 -27 6 -4 8 -3 4 4 -3 6 1 18 10 26 8 9 11
16 5 16 -6 0 -15 -9 -21 -19z"/>
<path d="M750 809 c-10 -17 -9 -20 1 -14 9 6 11 3 6 -11 -7 -18 -7 -18 8 0 17
23 19 33 6 41 -6 3 -15 -4 -21 -16z"/>
<path d="M401 793 c7 -12 15 -20 18 -17 3 2 -3 12 -13 22 -17 16 -18 16 -5 -5z"/>
<path d="M360 792 c0 -4 9 -13 20 -20 19 -12 20 -11 8 8 -13 20 -28 27 -28 12z"/>
<path d="M790 774 c0 -8 -4 -12 -10 -9 -5 3 -10 1 -10 -4 0 -18 19 -12 30 9 7
14 7 20 0 20 -5 0 -10 -7 -10 -16z"/>
<path d="M340 761 c0 -16 25 -30 39 -22 11 7 9 11 -7 20 -25 13 -32 14 -32 2z"/>
<path d="M804 749 c-19 -22 -19 -22 4 -10 12 6 22 16 22 21 0 15 -5 12 -26
-11z"/>
<path d="M314 729 c-6 -10 11 -28 28 -29 17 0 17 20 -1 30 -14 7 -22 7 -27 -1z"/>
<path d="M824 725 c-20 -15 -11 -18 20 -6 11 4 15 10 9 14 -5 3 -19 0 -29 -8z"/>
<path d="M844 695 c-16 -12 -17 -14 -3 -15 9 0 19 7 23 15 7 19 5 19 -20 0z"/>
<path d="M546 691 c-4 -5 -2 -12 3 -15 5 -4 12 -2 15 3 4 5 2 12 -3 15 -5 4
-12 2 -15 -3z"/>
<path d="M284 669 c-3 -5 4 -9 15 -9 12 0 23 0 26 0 3 0 5 3 5 8 0 10 -39 11
-46 1z"/>
<path d="M412 664 c-38 -27 -29 -62 33 -120 50 -48 53 -53 33 -57 -21 -3 -22
-4 -4 -12 11 -5 26 -4 37 4 15 9 26 8 50 -5 17 -8 33 -14 35 -11 2 2 -14 12
-36 22 -37 17 -40 21 -40 57 0 25 5 41 15 44 21 9 19 24 -4 24 -21 0 -31 -19
-31 -58 l0 -26 -35 34 c-42 40 -47 81 -13 104 21 15 21 16 2 16 -11 0 -30 -7
-42 -16z"/>
<path d="M853 653 c-15 -5 -18 -33 -4 -33 21 0 41 13 41 26 0 14 -14 17 -37 7z
m22 -13 c-3 -5 -12 -10 -18 -10 -7 0 -6 4 3 10 19 12 23 12 15 0z"/>
<path d="M280 630 c18 -12 50 -13 50 -2 0 4 -15 9 -32 10 -25 2 -29 0 -18 -8z"/>
<path d="M270 595 c0 -9 9 -15 25 -15 16 0 25 6 25 15 0 8 -5 15 -11 15 -5 0
-7 -4 -4 -10 3 -5 -1 -10 -10 -10 -9 0 -13 5 -10 10 3 6 1 10 -4 10 -6 0 -11
-7 -11 -15z"/>
<path d="M852 605 c10 -11 48 -14 48 -4 0 5 -12 9 -27 9 -14 0 -24 -2 -21 -5z"/>
<path d="M613 545 c0 -33 2 -45 4 -27 2 18 2 45 0 60 -2 15 -4 0 -4 -33z"/>
<path d="M716 558 c-3 -13 -6 -44 -6 -70 0 -44 -2 -48 -25 -48 -14 0 -25 4
-25 9 0 4 -15 3 -34 -3 -50 -15 -36 -24 39 -23 l65 1 0 78 c0 81 -3 94 -14 56z"/>
<path d="M284 555 c-18 -14 -18 -14 7 -15 16 0 26 5 26 15 0 19 -8 19 -33 0z"/>
<path d="M851 553 c0 -10 3 -13 6 -5 2 6 11 12 19 12 9 0 12 -4 9 -10 -3 -5
-1 -10 5 -10 21 0 4 25 -18 28 -16 3 -22 -2 -21 -15z"/>
<path d="M844 518 c-7 -11 13 -28 34 -28 6 0 12 6 12 14 0 17 -38 28 -46 14z
m31 -16 c-3 -3 -11 0 -18 7 -9 10 -8 11 6 5 10 -3 15 -9 12 -12z"/>
<path d="M270 508 c0 -11 22 -10 40 2 11 8 9 9 -12 8 -16 -1 -28 -6 -28 -10z"/>
<path d="M295 490 c-13 -6 -15 -9 -5 -9 8 0 22 4 30 9 18 12 2 12 -25 0z"/>
<path d="M842 485 c4 -4 1 -13 -8 -20 -14 -9 -12 -13 11 -23 23 -11 27 -10 22
2 -3 8 -1 16 6 19 7 2 1 10 -13 17 -14 7 -22 9 -18 5z"/>
<path d="M326 466 c6 -16 4 -18 -14 -14 -12 4 -22 2 -22 -3 0 -13 37 -11 46 2
3 6 1 16 -5 22 -9 9 -10 7 -5 -7z"/>
<path d="M334 425 c-4 -8 -10 -12 -15 -9 -5 3 -9 0 -9 -5 0 -6 7 -11 15 -11 8
0 15 7 15 16 0 8 5 12 10 9 6 -3 10 -1 10 4 0 16 -20 13 -26 -4z"/>
<path d="M818 433 c6 -2 12 -11 12 -19 0 -16 16 -19 25 -5 5 10 -25 32 -42 30
-4 0 -2 -3 5 -6z"/>
<path d="M786 401 c-3 -4 4 -17 17 -27 21 -19 21 -19 7 0 -14 18 -13 19 4 13
16 -6 17 -5 6 8 -14 17 -26 19 -34 6z"/>
<path d="M365 389 c-6 -8 -4 -10 5 -4 8 5 11 3 8 -6 -3 -8 -13 -13 -23 -12
-12 1 -14 -2 -6 -10 8 -8 16 -7 28 6 12 12 14 20 6 28 -8 8 -13 7 -18 -2z"/>
<path d="M769 362 c13 -25 28 -35 34 -25 3 5 -6 16 -20 27 -25 18 -25 18 -14
-2z"/>
<path d="M384 349 c-10 -13 -14 -19 -7 -16 6 4 13 2 15 -4 2 -7 8 -7 15 3 7 7
8 19 4 26 -5 9 -13 7 -27 -9z"/>
<path d="M751 340 c14 -31 19 -36 19 -24 0 6 -7 19 -16 30 -14 18 -14 18 -3
-6z"/>
<path d="M422 330 c-18 -29 -15 -38 4 -12 9 13 14 25 12 27 -2 2 -9 -5 -16
-15z"/>
<path d="M446 324 c-4 -9 -2 -13 5 -8 7 4 10 1 7 -7 -3 -8 -12 -13 -19 -11
-11 3 -12 1 -1 -10 11 -11 14 -10 22 2 5 8 10 20 10 27 0 19 -17 24 -24 7z"/>
<path d="M720 332 c0 -7 -5 -10 -11 -6 -8 4 -8 0 0 -15 13 -23 31 -28 31 -8 0
17 -20 46 -20 29z"/>
<path d="M487 314 c-11 -11 -8 -44 3 -44 15 0 24 30 13 41 -5 5 -12 6 -16 3z"/>
<path d="M670 311 c0 -7 -4 -9 -10 -6 -13 8 -13 -1 1 -26 12 -23 30 -16 26 11
-4 23 -17 39 -17 21z"/>
<path d="M529 303 c0 -5 -2 -16 -4 -25 -2 -10 1 -18 6 -18 5 0 9 11 9 25 0 22
-9 37 -11 18z"/>
<path d="M612 281 c1 -16 6 -27 10 -25 11 7 10 42 -2 49 -6 4 -10 -5 -8 -24z"/>
<path d="M550 275 c0 -14 5 -25 10 -25 6 0 10 6 10 13 0 9 2 9 9 -1 6 -10 10
-7 13 12 4 22 2 26 -18 26 -19 0 -24 -5 -24 -25z"/>
<path d="M1182 678 c2 -94 7 -133 16 -136 9 -3 12 21 12 99 0 69 3 100 10 93
6 -6 34 -50 63 -100 29 -49 60 -90 70 -92 15 -3 17 9 17 132 0 113 -3 136 -15
136 -11 0 -15 -20 -17 -97 l-3 -98 -59 98 c-41 68 -64 97 -78 97 -17 0 -18 -8
-16 -132z"/>
<path d="M1653 799 c-7 -7 -13 -23 -13 -36 0 -13 -4 -23 -10 -23 -5 0 -10 -7
-10 -15 0 -8 5 -15 10 -15 6 0 10 -31 10 -73 0 -75 9 -97 42 -97 11 0 18 7 18
20 0 11 -7 20 -15 20 -12 0 -15 14 -15 65 0 51 3 65 15 65 8 0 15 7 15 15 0 8
-6 15 -14 15 -10 0 -16 13 -18 36 -2 28 -5 33 -15 23z"/>
<path d="M1742 793 c2 -10 10 -18 18 -18 8 0 16 8 18 18 2 12 -3 17 -18 17
-15 0 -20 -5 -18 -17z"/>
<path d="M2440 674 c0 -104 3 -135 13 -132 8 3 13 42 15 136 2 113 0 132 -13
132 -13 0 -15 -21 -15 -136z"/>
<path d="M2640 728 c0 -99 13 -152 43 -173 42 -30 116 -13 136 32 6 13 11 69
11 123 0 82 -3 100 -15 100 -12 0 -15 -17 -15 -90 0 -49 -5 -100 -11 -114 -13
-28 -49 -38 -81 -22 -22 11 -23 19 -26 119 -2 99 -4 107 -22 107 -18 0 -20 -7
-20 -82z"/>
<path d="M3100 795 c0 -8 7 -15 15 -15 8 0 15 7 15 15 0 8 -7 15 -15 15 -8 0
-15 -7 -15 -15z"/>
<path d="M3882 793 c5 -25 28 -28 28 -4 0 12 -6 21 -16 21 -9 0 -14 -7 -12
-17z"/>
<path d="M3993 799 c-7 -7 -13 -23 -13 -35 0 -12 -8 -25 -17 -29 -17 -6 -17
-7 0 -19 13 -10 17 -28 17 -83 0 -71 10 -93 42 -93 11 0 18 7 18 20 0 11 -7
20 -15 20 -12 0 -15 14 -15 65 0 51 3 65 15 65 8 0 15 7 15 15 0 8 -6 15 -14
15 -10 0 -16 13 -18 36 -2 28 -5 33 -15 23z"/>
<path d="M1480 743 c-24 -9 -50 -35 -50 -50 0 -19 23 -16 43 7 18 22 34 25 55
11 27 -17 9 -45 -32 -52 -40 -6 -76 -38 -76 -65 0 -21 37 -54 61 -54 11 0 30
5 41 11 14 8 23 8 31 0 22 -22 27 -9 27 69 0 73 -3 83 -25 105 -23 24 -44 29
-75 18z m60 -127 c0 -30 -22 -49 -52 -44 -15 2 -24 11 -26 25 -3 18 4 24 30
32 48 13 48 13 48 -13z"/>
<path d="M1870 737 c-55 -28 -60 -145 -7 -182 70 -49 148 36 117 129 -6 19
-16 39 -23 44 -22 18 -61 22 -87 9z m62 -34 c35 -31 18 -133 -22 -133 -31 0
-50 28 -50 75 0 34 5 47 22 59 28 20 27 20 50 -1z"/>
<path d="M2092 740 c-12 -5 -29 -7 -37 -4 -13 5 -15 -9 -15 -96 0 -77 3 -101
13 -98 7 3 13 30 15 73 3 76 13 95 47 95 29 0 35 -16 35 -102 0 -51 3 -69 13
-65 15 5 17 171 2 185 -17 16 -49 21 -73 12z"/>
<path d="M2273 740 c-12 -5 -27 -18 -33 -30 -17 -31 15 -39 39 -9 16 21 22 22
45 11 45 -20 28 -52 -28 -52 -55 0 -88 -67 -50 -104 17 -18 61 -21 84 -6 9 5
19 5 27 -1 7 -6 16 -9 20 -6 11 7 0 174 -12 186 -16 16 -67 22 -92 11z m77
-113 c0 -25 -31 -57 -56 -57 -51 0 -38 55 14 63 15 2 30 5 35 6 4 0 7 -5 7
-12z"/>
<path d="M2950 740 c-8 -5 -23 -7 -32 -4 -16 5 -18 -4 -18 -85 0 -50 0 -94 0
-98 0 -5 6 -8 13 -8 8 0 13 20 15 60 3 91 9 105 37 105 33 0 45 -31 45 -111 0
-44 3 -60 13 -57 8 3 13 31 15 81 3 71 1 79 -22 102 -27 27 -42 30 -66 15z"/>
<path d="M3410 737 c-48 -24 -65 -100 -35 -156 16 -31 33 -41 71 -41 25 0 74
40 74 60 0 17 -24 11 -43 -11 -23 -26 -58 -21 -74 11 l-12 25 64 3 65 3 0 30
c0 20 -10 40 -29 60 -33 32 -44 35 -81 16z m60 -37 c27 -27 17 -40 -31 -40
-32 0 -39 3 -39 20 0 17 23 39 43 40 4 0 16 -9 27 -20z"/>
<path d="M3620 740 c-6 -4 -21 -5 -31 -3 -19 5 -20 0 -17 -92 2 -68 7 -100 16
-103 9 -3 12 14 12 63 0 75 12 105 40 105 22 0 27 25 7 33 -8 3 -20 2 -27 -3z"/>
<path d="M3722 738 c-27 -13 -38 -49 -23 -75 5 -11 28 -25 50 -32 47 -13 58
-26 41 -46 -18 -21 -48 -18 -62 5 -15 23 -38 27 -38 5 0 -24 38 -55 68 -55 41
0 72 26 72 60 0 32 -24 54 -73 65 -34 9 -42 21 -27 40 16 19 35 19 54 -1 9 -8
23 -14 32 -12 15 3 14 5 -2 25 -23 27 -61 36 -92 21z"/>
<path d="M1742 643 c2 -79 6 -98 18 -98 12 0 16 19 18 98 3 92 2 97 -18 97
-20 0 -21 -5 -18 -97z"/>
<path d="M3100 645 c0 -78 3 -95 15 -95 12 0 15 17 15 95 0 78 -3 95 -15 95
-12 0 -15 -17 -15 -95z"/>
<path d="M3171 733 c0 -4 15 -48 32 -98 20 -56 37 -90 46 -90 9 0 26 36 47 98
27 81 30 98 17 95 -9 -2 -24 -26 -35 -58 -10 -30 -21 -62 -24 -70 -3 -9 -15
14 -28 55 -14 47 -27 71 -39 73 -9 2 -17 0 -16 -5z"/>
<path d="M3882 643 c2 -66 7 -98 16 -101 9 -3 12 21 12 97 0 84 -3 101 -15
101 -13 0 -15 -15 -13 -97z"/>
<path d="M4070 733 c0 -5 14 -49 31 -100 24 -73 28 -96 19 -112 -6 -12 -17
-21 -25 -21 -8 0 -15 -7 -15 -16 0 -11 8 -14 28 -12 25 3 30 11 69 128 48 145
47 140 28 140 -9 0 -22 -25 -36 -72 l-22 -73 -25 73 c-14 44 -29 72 -38 72 -8
0 -14 -3 -14 -7z"/>
<path d="M1206 458 c-26 -14 -37 -52 -25 -87 22 -63 99 -41 99 28 0 50 -37 80
-74 59z m49 -38 c10 -33 -4 -62 -28 -58 -22 3 -34 35 -23 64 8 21 44 17 51 -6z"/>
<path d="M3523 459 c-39 -14 -23 -69 19 -69 10 0 18 -7 18 -15 0 -17 -25 -20
-35 -5 -9 15 -25 12 -25 -5 0 -38 74 -40 86 -2 6 20 -1 29 -52 65 -17 11 -15
12 14 8 17 -3 32 -1 32 4 0 17 -34 28 -57 19z"/>
<path d="M1312 443 c-11 -22 -3 -103 9 -103 5 0 9 13 9 28 0 15 6 34 12 40 10
10 10 15 -1 21 -11 7 -10 11 5 20 18 10 18 10 -3 11 -12 0 -26 -8 -31 -17z"/>
<path d="M1432 448 c-7 -7 -12 -28 -12 -48 0 -20 5 -41 12 -48 23 -23 88 -9
88 20 0 4 -7 8 -15 8 -8 0 -15 -4 -15 -10 0 -5 -9 -10 -19 -10 -22 0 -35 30
-26 60 7 22 41 28 47 8 2 -6 10 -8 17 -4 9 6 9 11 0 22 -14 17 -61 18 -77 2z"/>
<path d="M2013 444 c-6 -10 -8 -38 -5 -61 4 -39 10 -47 29 -40 12 4 9 88 -3
105 -10 14 -12 13 -21 -4z"/>
<path d="M2550 446 c0 -9 -12 -16 -27 -18 -24 -3 -29 -8 -31 -38 -4 -40 15
-60 53 -52 23 4 25 8 25 63 0 33 -4 59 -10 59 -5 0 -10 -6 -10 -14z m-3 -52
c3 -8 -1 -23 -10 -32 -15 -14 -17 -14 -23 1 -8 21 1 47 16 47 6 0 13 -7 17
-16z"/>
<path d="M2650 400 l0 -60 45 0 c51 0 62 17 13 22 -42 4 -50 28 -9 28 37 0 42
17 6 22 -37 4 -35 22 3 26 48 5 39 22 -13 22 l-45 0 0 -60z"/>
<path d="M3185 450 c3 -5 10 -10 16 -10 5 0 9 5 9 10 0 6 -7 10 -16 10 -8 0
-12 -4 -9 -10z"/>
<path d="M3710 450 c0 -5 4 -10 9 -10 6 0 13 5 16 10 3 6 -1 10 -9 10 -9 0
-16 -4 -16 -10z"/>
<path d="M1552 418 c-24 -24 -12 -69 21 -81 19 -7 57 24 57 47 0 36 -53 59
-78 34z m46 -36 c2 -14 -2 -22 -12 -22 -19 0 -28 14 -20 35 9 21 28 14 32 -13z"/>
<path d="M1650 384 c0 -50 17 -60 22 -12 4 46 28 49 28 4 0 -44 18 -48 22 -4
4 46 28 49 28 4 0 -20 5 -36 11 -36 6 0 9 17 7 43 l-3 42 -57 1 -58 1 0 -43z"/>
<path d="M1800 364 c0 -36 4 -64 10 -64 6 0 10 9 10 21 0 12 5 19 13 16 23 -8
47 13 47 42 0 34 -16 49 -52 49 -28 0 -28 -1 -28 -64z m57 30 c8 -21 -13 -42
-28 -27 -13 13 -5 43 11 43 6 0 13 -7 17 -16z"/>
<path d="M1907 423 c-12 -12 -7 -61 7 -76 9 -8 26 -12 40 -10 23 5 26 10 26
49 0 54 -18 59 -22 7 -2 -21 -7 -38 -13 -38 -5 0 -11 17 -13 38 -3 35 -11 45
-25 30z"/>
<path d="M2077 423 c-4 -3 -7 -21 -7 -39 0 -42 28 -61 56 -38 18 15 18 15 -3
11 -32 -7 -39 9 -8 17 27 7 32 25 13 44 -13 13 -41 16 -51 5z m43 -23 c0 -5
-7 -10 -15 -10 -8 0 -15 5 -15 10 0 6 7 10 15 10 8 0 15 -4 15 -10z"/>
<path d="M2170 385 c0 -25 5 -45 10 -45 6 0 10 14 10 30 0 18 6 33 15 36 24 9
17 24 -10 24 -23 0 -25 -4 -25 -45z"/>
<path d="M2297 424 c-14 -14 -7 -25 13 -19 11 4 20 2 20 -4 0 -6 -6 -11 -14
-11 -7 0 -20 -7 -27 -16 -11 -14 -11 -18 4 -29 9 -7 28 -10 43 -7 23 4 25 8
22 46 -3 36 -6 41 -28 44 -14 2 -29 0 -33 -4z m29 -71 c-10 -10 -19 5 -10 18
6 11 8 11 12 0 2 -7 1 -15 -2 -18z"/>
<path d="M2390 384 c0 -50 17 -60 22 -12 4 46 28 49 28 4 0 -20 5 -36 11 -36
6 0 9 17 7 43 -3 40 -5 42 -35 44 -33 1 -33 1 -33 -43z"/>
<path d="M2760 384 c0 -32 4 -44 15 -44 10 0 15 11 15 35 0 19 5 35 10 35 6 0
10 -16 10 -35 0 -24 5 -35 15 -35 10 0 15 11 15 35 0 19 5 35 10 35 6 0 10
-16 10 -35 0 -24 5 -35 15 -35 19 0 21 63 3 78 -7 5 -37 10 -65 10 l-53 -1 0
-43z"/>
<path d="M2922 418 c-20 -20 -15 -66 9 -79 17 -9 25 -8 38 6 15 15 15 16 -4
15 -37 -4 -40 1 -9 13 27 10 30 15 23 35 -9 24 -38 29 -57 10z m38 -18 c0 -5
-7 -10 -16 -10 -8 0 -12 5 -9 10 3 6 10 10 16 10 5 0 9 -4 9 -10z"/>
<path d="M3010 385 c0 -25 5 -45 10 -45 6 0 10 11 10 24 0 14 7 31 15 40 21
20 19 26 -10 26 -23 0 -25 -4 -25 -45z"/>
<path d="M3081 407 c-11 -30 2 -61 28 -65 11 -2 21 -8 21 -14 0 -6 -10 -8 -26
-4 -19 5 -25 3 -22 -6 6 -18 46 -22 64 -8 9 8 14 31 14 65 l0 52 -35 1 c-29 1
-38 -3 -44 -21z m49 -22 c0 -16 -6 -25 -15 -25 -9 0 -15 9 -15 25 0 16 6 25
15 25 9 0 15 -9 15 -25z"/>
<path d="M3187 423 c-4 -3 -7 -24 -7 -45 0 -27 4 -38 15 -38 11 0 15 12 15 45
0 42 -7 54 -23 38z"/>
<path d="M3240 384 c0 -50 17 -60 22 -12 4 46 28 49 28 4 0 -20 5 -36 11 -36
6 0 9 17 7 43 -3 40 -5 42 -35 44 -33 1 -33 1 -33 -43z"/>
<path d="M3350 415 c-6 -8 -10 -26 -8 -42 2 -22 9 -29 31 -31 15 -2 25 -8 22
-13 -4 -5 -18 -6 -32 -3 -19 5 -24 3 -21 -7 6 -18 45 -24 64 -9 9 8 14 31 14
65 0 51 -1 52 -29 53 -16 0 -35 -6 -41 -13z m47 -21 c8 -21 -13 -42 -28 -27
-13 13 -5 43 11 43 6 0 13 -7 17 -16z"/>
<path d="M3622 418 c-17 -17 -15 -54 4 -72 18 -19 20 -19 45 -6 28 15 23 31
-8 28 -22 -2 -28 1 -28 17 0 16 6 19 29 17 26 -3 28 -1 17 12 -16 19 -42 21
-59 4z"/>
<path d="M3710 385 c0 -29 4 -45 13 -45 8 0 11 14 9 45 -2 25 -8 45 -13 45 -5
0 -9 -20 -9 -45z"/>
<path d="M3772 418 c-19 -19 -15 -66 7 -78 21 -11 51 -4 51 12 0 5 -8 8 -17 7
-35 -3 -37 3 -7 14 27 10 30 15 23 35 -9 24 -38 29 -57 10z m38 -18 c0 -5 -7
-10 -16 -10 -8 0 -12 5 -9 10 3 6 10 10 16 10 5 0 9 -4 9 -10z"/>
<path d="M3860 383 c0 -50 17 -59 22 -11 4 46 28 49 28 4 0 -25 4 -36 15 -36
10 0 15 10 15 33 0 44 -10 56 -48 55 -31 -1 -32 -2 -32 -45z"/>
<path d="M3972 418 c-17 -17 -15 -54 4 -72 18 -19 20 -19 45 -6 28 15 24 33
-5 26 -28 -7 -39 4 -30 28 4 12 13 14 33 9 23 -6 25 -5 12 10 -16 20 -42 22
-59 5z"/>
<path d="M4072 418 c-36 -36 5 -104 44 -72 18 15 18 15 -3 11 -32 -7 -38 9 -7
17 19 5 25 12 22 29 -3 25 -37 34 -56 15z m38 -18 c0 -5 -7 -10 -15 -10 -8 0
-15 5 -15 10 0 6 7 10 15 10 8 0 15 -4 15 -10z"/>
<path d="M4160 414 c-12 -14 -12 -18 4 -30 10 -7 24 -15 30 -17 6 -2 8 -8 4
-12 -4 -4 -14 -2 -22 4 -9 8 -16 8 -20 2 -11 -17 31 -33 54 -21 28 15 25 37
-7 55 -25 14 -25 15 -4 9 17 -4 22 -2 19 7 -7 21 -43 22 -58 3z"/>
</g>
</svg>
