<svg xmlns="http://www.w3.org/2000/svg" role="img" viewBox="146.56 146.56 1634.88 512.88"><path fill="#FFF" d="M1190 799H1V1h1926v798h-737M806.15765 547.5v26.79645c-16.44049-18.22711-31.82592-35.2821-47.20874-52.33954-16.94744-18.79245-33.67157-37.79273-50.91192-56.31253-12.68103-13.6222-27.51068-22.68369-47.43842-20.99408-11.58014.98187-23.3117.17865-34.9751.17865-3.78686 0-7.57379-.00003-11.46954-.00003v176.93402h33.87366V497.3288c1.98034 2.09787 3.33227 3.4714 4.62 4.90277 31.06469 34.52917 62.12829 69.05932 93.1781 103.60187 9.63421 10.7179 21.4024 16.5141 36.0379 16.3781 18.16003-.16875 36.32281-.0343 54.48443-.05389 1.27222-.0014 2.54425-.19409 3.93933-.30786V445.21195h-34.1297V547.5m243.34162-32.50165H944.5531v-45.07031h134.97107v-24.77246h-208.8999c-.21088.62186-.40326.92438-.40345 1.22699-.0282 43.65546-.39874 87.31488.08515 130.96478.26324 23.75183 11.56964 38.06268 34.1789 42.72608 13.23998 2.7309 27.0642 3.52355 40.6339 3.59375 39.79798.20593 79.60022-.39118 119.40076-.66047 5.76428-.039 11.52918-.00537 17.40259-.00537v-27.17022c-32.35315 0-64.4599.04516-96.56628-.04047-5.9812-.016-11.99372-.25958-17.93488-.91449-15.22797-1.67859-21.98016-8.92175-22.38257-24.09875-.26788-10.10407-.05084-20.22101-.05084-30.77576h122.61182v-25.0033h-18.1001m251.13623-49.22296c6.51843.96765 13.03698 1.9353 19.6162 2.91199v-25.70804c-15.65636-1.13617-31.062-2.50754-46.49682-3.32465-39.75525-2.10467-79.22888-.03903-118.04333 9.47284-27.08155 6.6366-47.54285 21.25367-56.28162 48.99701-6.76306 21.47092-7.1051 43.24857-1.8402 65.06388 5.64428 23.38696 19.13671 39.97912 41.90746 49.09619 20.64026 8.26397 42.01734 12.35382 64.0376 14.083 33.45422 2.62702 66.87427 2.45545 100.27747-.66687 6.38086-.5965 12.72985-1.53222 18.95166-2.29406v-29.17255c-4.67884.7865-9.09754 1.5824-13.53333 2.26636-27.9259 4.30548-55.90808 6.5227-83.9862 1.5138-24.32715-4.33985-41.9928-16.90992-49.76539-41.25013-3.38757-10.60852-4.18981-21.57342-3.41308-32.60211 1.71753-24.38046 13.39966-47.29349 42.9513-55.39994 28.05834-7.6968 56.32653-6.64721 85.61828-2.98672M316.0085 255.50745c-.30215-4.81066-.3012-9.66344-.96313-14.42406-2.00015-14.38506-12.56787-24.13872-26.7923-25.06192-17.31195-1.12357-29.3915 5.98514-33.10683 20.82988-3.55224 14.19324-3.48464 28.81927-.09773 43.03632 3.43445 14.41656 14.7872 21.73736 30.81772 21.29293 15.06354-.41757 25.96188-8.6156 28.7221-22.80679 1.38343-7.11273 1.0029-14.5686 1.42017-22.86636m568.81455 37.18566c9.8363 8.19367 19.87726 7.21882 30.03271.41096.45374 11.95352-2.76751 17.30493-11.59967 17.4053-3.99884.04547-8.3313-1.89957-11.93908-3.95023-2.62519-1.49218-4.04468-1.54312-5.89283.57178-1.20202 1.37546-2.5451 2.6336-3.88012 3.88544-2.1161 1.98416-1.74384 3.64938.44494 5.30578 10.38037 7.85538 21.76581 8.87131 33.42304 3.93485 10.40137-4.40463 13.3692-13.67282 13.41907-24.13599.07531-15.81396.01977-31.62854.01959-47.44285-.00006-7.53276-.0008-7.57769-7.52356-7.50702-3.05469.02868-7.14893-1.40244-6.4549 4.59176-10.20703-9.6741-26.90832-6.1152-32.52038 2.69141-5.77606 9.06404-6.52545 35.64827 2.47119 44.23881m-455.6645 4.34785c1.55543 5.5747 6.06007 2.1416 9.15333 2.89682 3.65655.89266 4.86877-.90479 4.77808-4.64591-.23813-9.82367-.12421-19.65717-.06125-29.4862.03222-5.0348 1.1536-9.70347 6.0473-12.30985 7.6966-4.09921 15.61395 1.22777 15.86252 10.84122.22812 8.82397-.0104 17.65893.06787 26.48806.09189 10.36533-1.64804 8.97425 9.3425 9.24509 3.51764.08667 4.62155-1.11667 4.56753-4.60474-.17795-11.49267.0199-22.99066-.08923-34.48504-.13235-13.94182-10.1322-22.81763-23.87625-20.75878-4.0438.60575-7.83054 2.92714-11.94165 4.5435 0-7.47108-.13123-15.40759.06317-23.33611.0803-3.27546-1.0029-4.65659-4.28204-4.29834-1.15244.1259-2.3513.1629-3.49277-.00518-4.74494-.69863-6.30216 1.10569-6.25455 6.01926.23581 24.3214.10788 48.64632.11545 73.8962m791.69849-55.65923c-16.06641-4.46396-27.85437 1.73714-30.24402 17.25316-1.26233 8.19745-.81409 16.95236.5293 25.18347 1.72143 10.54724 9.5625 16.48071 20.22082 16.1799 5.23279-.14764 10.41662-2.03494 15.5586-3.12146.78686 9.45072-2.92945 15.05634-11.31824 15.99973-5.48413.61667-10.76123-.18631-14.77405-4.35096-3.11548-3.2334-5.28125-1.3044-7.5426.83924-2.65027 2.51248-.99768 4.60003 1.00317 6.26382 2.01721 1.67752 4.18042 3.3685 6.5647 4.38553 18.5575 7.91617 35.79834-3.29538 35.97607-23.42273.14404-16.31036.11536-32.624-.07458-48.9334-.02503-2.14138-.92615-5.51917-2.3617-6.13584-2.91492-1.2521-6.47156-1.00443-7.75708 2.97525-1.88867-1.0285-3.48681-1.89873-5.7804-3.11571m306.7599 37.5641c1.89184 5.8439 3.52453 11.79355 5.83971 17.46466.65967 1.6164 3.28614 3.31928 5.03821 3.34851 1.7279.02887 4.5332-1.6466 5.07752-3.20068 5.87817-16.78525 11.44433-33.68082 16.94287-50.59595.42236-1.29951.23889-3.62423-.61682-4.3541-2.4668-2.10395-7.7771-.07379-8.87134 3.17174-1.48572 4.40606-2.79273 8.87198-4.21399 13.30013-2.57227 8.01404-5.17212 16.01923-8.16504 25.2797-4.57458-13.55167-8.7539-25.7732-12.80066-38.03846-.95727-2.9012-2.40393-4.29901-5.70093-4.28708-3.30395.01195-4.2788 1.86466-5.06823 4.3941-1.03797 3.32665-2.1244 6.63856-3.22449 9.94533-2.95593 8.88515-5.93018 17.76415-9.33386 27.953-2.26734-6.8779-4.08374-12.37614-5.89221-17.877-2.33594-7.10516-4.65564-14.21572-7.00184-21.31756-1.43469-4.3428-5.08227-3.03732-7.96728-2.62709-.57141.08124-1.39087 3.65274-.89001 5.23236 5.16699 16.2964 10.6704 32.48607 15.8573 48.77635 1.1123 3.49338 3.06603 5.46918 6.42333 4.31925 1.89954-.65064 3.95166-2.78485 4.64454-4.7142 4.31176-12.0065 8.25842-24.1441 12.8103-37.6774 2.5736 7.89743 4.6737 14.34188 7.11291 21.5044m-799.30792-36.91906c-11.05566-3.2289-21.91663-3.21805-32.5252 1.81755-2.80854 1.3331-3.8288 2.98717-1.83472 5.8003.85876 1.2114 1.2044 2.94875 2.29156 3.79107 1.1181.86638 2.93292 1.45782 4.30853 1.25572 4.98847-.73282 9.90418-2.54278 14.87781-2.66087 7.77454-.18462 10.69489 4.17178 8.99597 12.43362-2.87847 0-5.86157-.18454-8.81292.04254-4.62207.35556-9.36103.45899-13.80317 1.61747-8.81512 2.299-13.5595 9.85656-12.60986 18.93936.93176 8.91131 6.83582 14.95205 15.76886 15.90533 7.12995.7609 13.96082.02393 19.66724-5.0156 2.05816 4.61149 4.18036 5.15305 13.28918 3.43873 0-15.04642.28382-30.15512-.15204-45.24303-.1552-5.37312-3.59765-9.5351-9.46124-12.1222m-218.45276 58.73556c9.91822 1.2342 19.28894.07623 27.27112-6.57584 1.6316-1.35974 4.26666-2.62716 2.0603-5.60186-3.36303-4.53428-6.67859-5.35535-9.98724-3.9332-4.42969 1.90399-9.28162 3.83414-13.97327 3.88702-7.31149.0825-12.17657-6.5892-10.91873-13.27322.31824-.07752.63632-.22199.95477-.22278 8.16117-.02026 16.32352.06015 24.48331-.0523 14.31989-.1973 12.16547 2.45776 11.08814-12.6862-.8874-12.47553-9.8725-21.14895-21.74707-22.24815-13.88572-1.28537-25.26572 4.84268-27.66745 16.61586-1.62217 7.95178-1.60868 16.53714-.6493 24.6405 1.22687 10.36277 7.89643 16.91324 19.08542 19.45017m318.31916-.75147c3.383.31046 3.71447-1.79635 3.70037-4.43475-.05603-10.49118-.11847-20.98413.01569-31.47394.08887-6.94986 4.16907-11.46032 10.3161-11.87793 5.956-.40461 10.15479 3.37065 11.1502 10.3197.39875 2.78351.41895 5.63541.43372 8.45713.04956 9.45459.01886 18.90954.01886 29.00256 3.97944 0 7.4524.25116 10.84882-.1481 1.06311-.12497 2.74213-1.99963 2.74634-3.07877.0509-13.14584.3518-26.32434-.46045-39.42938-.65558-10.57818-9.02185-17.7394-19.56128-17.18056-5.2019.27582-10.30426 2.42916-15.36597 3.71125-.78222-5.45896-5.95099-1.96198-9.2934-2.67485-3.64141-.77666-4.86492.9307-4.81616 4.68863.19464 14.98532.0802 29.9747.0802 44.96255 0 9.15735 0 9.15735 10.18696 9.15646m-268.25965-1.27911c9.97016 3.22318 19.94171 4.03476 29.59046-.88122 7.06512-3.59968 10.5299-11.21723 9.34497-19.354-1.07434-7.37766-5.58094-11.978-13.87311-13.61692-4.55414-.90006-9.2251-1.19223-13.8205-1.90586-3.15783-.49038-6.08618-1.84915-6.02215-5.50283.06732-3.83963 3.06299-5.67762 6.4566-5.53035 4.22986.18348 8.62189.68185 12.58441 2.07031 6.82916 2.39296 6.60645 2.6425 11.1377-3.15874 1.75299-2.24424 1.80645-3.68895-.6645-5.19272-10.3001-6.26846-21.21538-7.74269-32.49407-3.42791-7.70044 2.94586-11.03143 9.60997-10.26477 18.6012.62103 7.28329 5.24524 12.42818 13.27453 14.1394 4.53815.96716 9.20789 1.31692 13.81855 1.94348 3.3797.45932 6.55462 1.7201 6.6386 5.51822.09193 4.1608-3.05126 5.97622-6.83782 6.6145-6.96198 1.17346-13.0647-.93665-18.86176-4.68304-1.21802-.78711-3.6856-1.25068-4.65246-.56296-8.04657 5.7232-7.81464 8.37997.79962 13.09451 1.01776.55704 2.10559.98605 3.8457 1.83493m1170.7561-58.1811c-14.9729-2.4404-25.2307 3.41673-27.36706 16.8549-1.23596 7.77478-1.406 15.99234-.38855 23.79321 1.91382 14.6746 10.13379 20.92056 24.81213 19.6493 4.29077-.37162 8.43152-2.4737 12.81702-3.83732.4248 3.90006 4.04944 3.61163 6.85999 2.69358 1.35803-.44367 2.63745-3.46772 2.65124-5.33292.17566-23.99353.06116-47.989.17273-71.98328.0177-3.78216-1.05933-5.49875-5.11487-5.3234-3.23645.13996-4.39245 1.3363-4.333 4.53106.1433 7.69962.0465 15.4037.0465 23.11896-3.58313-1.5049-6.46496-2.71526-10.15612-4.16408m-661.49878-15.9049c-.26807-3.35555 1.48242-7.65957-4.81055-7.5926-6.47778.06896-4.45105 4.63503-4.46814 7.7968-.12525 23.16286-.1272 46.32713.04468 69.48943.01391 1.87399 1.2229 4.91427 2.56067 5.36007 2.83276.944 6.41638 1.147 7.0498-3.68026 1.4226.9003 2.4983 1.64828 3.63428 2.28982 13.51611 7.63385 29.44385 1.15405 33.24182-13.77713 2.50366-9.84277 2.37878-19.8274-.44776-29.62436-2.73376-9.47505-9.67639-15.08037-19.4668-14.74304-5.73266.19753-11.4066 2.10072-17.33788 3.28265 0-5.28648 0-11.56009-.00012-18.80139m221.93908 40.1063c.00525 10.15496.08972 20.31088-.02942 30.46441-.03894 3.31589.974 4.90744 4.54627 4.87616 3.19922-.02801 5.04162-.7797 5.00915-4.43576-.10351-11.65231.27942-23.31741-.12744-34.95648-.48974-14.0079-9.13574-21.69545-23.1709-20.54904-4.53064.37007-8.91613 2.51779-13.46753 3.8821 0-7.08526-.11462-14.40829.05018-21.72505.07775-3.45198-.79517-5.25617-4.69153-5.26446-3.96546-.00844-5.17627 1.60892-5.15906 5.41405.10986 24.13841.09485 48.27768.01208 72.41632-.01184 3.4811.97034 5.17532 4.79505 5.23846 4.09253.06754 5.10974-1.73327 5.04907-5.45266-.1632-9.98584-.08667-19.97623-.04675-29.9646.03943-9.85946 4.92297-15.44878 13.57995-15.65395 8.62183-.20433 13.12586 4.70555 13.65088 15.7105m103.12158 20.60226c-3.01782-2.27551-4.43786.4224-6.22546 1.99478-5.55884 4.88928-14.34997 6.12982-20.53833 2.90387-5.48486-2.85922-8.12073-8.56543-7.33618-16.65848 8.53308 0 17.14331-.00003 25.75342 0 14.0188 0 14.85778-1.06573 11.87964-15.0913-2.46387-11.60389-11.44898-18.58912-23.82508-18.52224-12.1466.06564-21.04504 6.85703-22.91528 18.67632-1.07922 6.82006-1.22986 13.95434-.59888 20.83722.87708 9.5669 5.47644 17.3641 15.26343 20.22433 10.69312 3.1251 20.77441 1.58081 29.32056-6.28451 2.92224-2.68943 3.4115-5.20774-.77784-8.08m-410.1272 15.42051c7.266.83847 14.28059.221 20.64155-3.09332 2.58331 1.1579 5.21026 2.01544 7.83716 2.01504.80975-.00012 2.31048-2.33465 2.32214-3.61096.12103-13.32593.19324-26.65887-.1427-39.97922-.13294-5.27458-2.03882-10.11798-7.00494-13.08172-7.96167-4.75148-25.01471-3.9566-32.60303 1.47624-2.3653 1.69348-3.41394 3.30212-1.42359 6.16177 1.78186 2.56008 3.2812 2.80745 6.2019 1.62133 4.04914-1.64435 8.46577-3.13211 12.76753-3.26021 11.16998-.33261 14.65856 4.60307 11.9605 15.80818-6.61053.29257-13.3001.10281-19.84344.99084-10.0976 1.3704-15.43933 7.03876-15.83185 15.62003-.48285 10.55963 3.72815 16.19388 15.11878 19.332m-606.9069-52.01602c-7.01476 10.11328-6.4375 21.40796-4.6745 32.6955 1.42124 9.09933 6.65812 15.67385 15.62153 18.34454 9.95395 2.96594 19.4701 1.90854 27.61136-5.2398 1.00552-.88294 2.32647-3.14369 2.01892-3.50541-2.1254-2.49924-4.41965-5.02374-7.1623-6.73438-.91748-.57223-3.4978.92728-4.98391 1.96042-7.76428 5.39783-17.58096 2.30783-19.06815-6.76947-.97604-5.95736-.85483-12.36383.1958-18.31848 1.43998-8.16144 10.98087-12.14694 17.38208-6.95497 5.13395 4.1641 7.71222 2.44649 11.4954-1.1107 2.82983-2.66081 2.7189-4.27014-.01511-6.74503-10.3296-9.35054-27.77731-8.57765-38.42111 2.37778m1223.15579 51.32638c8.72302-2.44775 14.44214-8.3103 15.53918-17.02304 1.04163-8.27441 1.31128-16.97033-.06164-25.14816-2.04627-12.1899-11.41345-18.30405-24.4657-17.92403-11.68701.34028-20.44678 7.35204-22.2002 19.02913-1.02392 6.81833-1.31176 14.01264-.3435 20.81183 2.33313 16.38452 14.36267 24.03052 31.53186 20.25428m-1359.28395 7.67437c-.52876-2.38006-.6496-4.94827-1.64733-7.11209-15.5053-33.62741-31.12204-67.20346-46.71865-100.78877-3.00756-6.47634-5.92952-12.99725-9.16376-19.35892-.56273-1.10687-2.4902-1.5199-3.78732-2.25339-.46366 1.42185-1.0379 2.8212-1.33406 4.2771-.11153.54827.41395 1.23056.66145 1.84679 16.40002 40.8329 32.7852 81.67178 49.21814 122.49149 2.78354 6.91436 7.9823 7.51947 12.77153.8978m527.01594-21.87666v-33.62135c8.69916-.55147 8.6991-.55147 8.93274-3.53354.46588-5.94676.37323-6.03062-9.45917-8.36348 0-2.57956.01813-5.23051-.00323-7.88112-.08386-10.42666 1.36914-9.19958-9.85199-9.39827-3.36322-.05957-4.39954 1.37473-4.30023 4.49074.1372 4.30168.03442 8.61102.03442 12.81473-6.242 1.47128-6.9115 3.10664-4.87616 11.28891 1.4947.2463 3.05109.50273 4.87513.80328 0 5.77163-.04474 11.25511.0125 16.73754.05732 5.49194.00678 10.99688.37415 16.47128.77692 11.57797 9.3476 17.73611 20.82092 15.1027.83204-.19099 2.13715-1.00526 2.16364-1.57865.15271-3.30579.34326-6.70108-.32507-9.88867-.16437-.78412-3.50086-.83658-5.33917-1.36438-.92377-.26523-1.75806-.84229-3.05848-2.07972m-161.4256-33.91362c3.24592-.49511 4.30353.82524 4.23102 4.13271-.20428 9.31662-.18573 18.64255-.03802 27.96136.18054 11.39188 4.20978 15.65476 15.35187 16.6749 7.97973.7306 7.87579.6901 8.03802-7.37582.07227-3.59201-.47735-5.59305-4.79785-5.44468-1.47022.05048-4.2926-2.17718-4.33344-3.4342-.34893-10.7352-.19995-21.48657-.19995-32.7207h9.40473c-.21918-3.61948.62396-7.47795-.9228-9.56618-1.21948-1.64632-5.38207-1.1126-8.5459-1.59409 0-2.71876.02387-5.35577-.0042-7.99221-.11072-10.4071 1.77148-9.38758-10.21558-9.4892-2.75848-.02338-3.92004 1.01117-3.84186 3.8218.12824 4.61031.03473 9.22678.03473 12.526-2.59698 1.76153-5.27154 2.61906-5.54822 3.96816-.52801 2.57604.3103 5.43218 1.38746 8.53215m68.23321.97204c2.01264.66021 5.00623 2.48497 5.85828 1.76725 2.8131-2.36946 5.13403-5.50607 6.8841-8.7572.26165-.48614-3.28748-3.86392-5.52412-4.70229-7.73504-2.89929-14.92224-1.31465-19.87292 3.12847-2.96918-1.41371-4.80976-2.59024-6.82202-3.15097-1.54541-.43065-3.31842.03964-4.96991-.11219-3.09455-.28445-4.0547 1.1106-4.0398 4.0802.0863 17.15368.03528 34.308.06775 51.46203.00183.95993.3327 1.91919.50781 2.86456.62873.18259 1.09015.40933 1.56458.4408 11.64764.77243 11.57397.76806 11.67132-10.80784.0769-9.14074-.19458-18.33685.73114-27.40188.774-7.57921 5.53357-10.2861 13.9438-8.81094m-346.08177 14.5581c-.00003 7.98187-.03256 15.96393.00821 23.94562.04956 9.70181-1.14224 8.28625 8.41114 8.64978 4.32568.16458 5.84546-1.09146 5.7124-5.56879-.30118-10.13458-.27677-20.28888-.03217-30.42667.21994-9.11788 6.72522-14.3389 14.47449-10.89117 5.57279 2.4794 7.96439.54184 10.75488-3.58276 2.82141-4.1703 2.87131-5.30345-1.66287-7.49462-8.44629-4.08166-16.25387-2.72638-23.60113 3.88898.34875-3.89827-1.24079-5.17805-4.42093-4.89796-1.8151.15986-3.66266.12971-5.4834.00575-2.8746-.19574-4.27927.75313-4.21015 3.92163.15598 7.14702.04938 14.29979.04953 22.45021m1010.56034 32.37036c3.10144-5.83884 1.85473-8.41226-4.2389-8.74948-5.57946-.30875-6.99438-1.72507-7.09875-7.3089-.06836-3.65713-.01391-7.31656-.01404-10.97497-.00012-7.58802 0-15.17603 0-22.97765 3.4784 0 6.41468.4774 9.06568-.18567 1.5006-.37535 3.20898-2.45108 3.62048-4.06726.64758-2.54462-.63025-4.52588-3.76428-4.48178-2.90918.04095-5.81934.00871-8.92212.00871 0-4.89746-.12451-9.04457.03906-13.18026.1322-3.34116-1.06628-4.85445-4.57104-4.88842-3.5464-.0344-5.27552 1.14285-5.12781 4.8976.1676 4.25938.0387 8.53043.0387 12.6589-3.35303 1.11281-7.73707-.98274-8.02332 4.46502-.31555 6.00862 4.39258 4.44201 8.02344 5.07032 0 11.33906-.0973 22.43796.02612 33.5344.13489 12.11426 4.61548 16.46405 16.69397 16.54214 1.16162.00751 2.32385-.08224 4.2528-.3627M1154.0746 242.2218c-7.92481-3.58449-15.48682-3.15428-22.48682 1.27118-2.65967-1.1874-5.552-2.44063-8.08399-1.92482-1.19592.2436-2.38342 3.8686-2.41052 5.97647-.20068 15.64546-.05347 31.29503-.15124 46.94246-.0221 3.52573.61023 5.62079 4.87732 5.63644 4.33032.01584 4.8203-2.16922 4.81677-5.65274-.01111-10.81488-.19312-21.65213.42273-32.43893.62695-10.97926 8.58362-15.66653 18.39868-11.0781 3.71436 1.73643 5.50769.41138 7.3783-2.37217 2.03564-3.02937.17956-4.53676-2.76123-6.35979m267.7959 46.22788c.00097-7.97892-.1067-15.95969.02734-23.93634.22046-13.10894 7.57849-18.12903 19.51892-13.17402 3.79992 1.57685 5.13135-.75527 6.70971-3.11968 1.92212-2.87938-.1881-4.3623-2.2583-5.4816-8.10363-4.38123-15.91064-3.7591-23.58154 1.92616-1.20556-4.51022-4.90283-4.19342-7.87707-3.13925-1.27527.452-2.16065 3.71939-2.18311 5.71924-.17493 15.62345-.04309 31.25007-.13745 46.87492-.0216 3.586.28735 6.09369 4.96704 6.01059 4.28003-.07599 5.02393-2.25412 4.8302-5.7167-.09265-1.65711-.01587-3.32368-.01575-5.96332m-620.77404 11.50424c.63793-1.69254 1.81329-3.37991 1.8297-5.07846.14509-14.98783.14088-29.97794.06397-44.96677-.0503-9.79636 1.59564-8.46233-8.70245-8.85316-4.41486-.16756-5.26532 1.57722-5.21259 5.52258.18921 14.15398.07422 28.312.07422 42.46849 0 10.97693 0 10.97693 11.94715 10.90732m884.0719-76.25821c.09008-3.39125.59912-6.6878-4.74183-6.6525-5.4558.03608-4.58825 3.55469-4.58886 6.80756-.00354 20.97417-.11109 41.9494.07214 62.92206.08875 10.1733 5.40332 14.66638 15.35889 13.23031 1.25073-.18045 2.81909-2.29498 3.14758-3.75854.48926-2.18079.4939-5.23718-2.9945-5.00449-5.99122.39975-6.28724-3.28164-6.27576-7.66192.05175-19.64246.02246-39.28514.02234-59.88248m-54.33692 21.1689c-.0006 16.79158.08484 33.58394-.06763 50.3741-.03442 3.7828 1.37964 4.8963 4.98597 4.8508 3.72583-.047 4.29248-1.8823 4.3109-5.04035.06666-11.45602-.42297-22.99304.78101-34.34213 1.13917-10.7382 8.66102-14.31158 18.3672-9.68399 3.87914 1.84946 5.53149.05255 7.18505-2.70728 2.07935-3.47047-.56897-4.93168-2.96338-6.05984-8.06433-3.79935-15.76526-3.13152-22.01806 1.88458-2.0791-1.18802-3.69031-2.85914-5.22278-2.7898-1.81616.08218-3.56433 1.6642-5.35828 3.5139m-464.43616-.71336c-.00866 16.80591.03492 33.61213-.06762 50.41749-.02161 3.55798.69543 5.56942 4.93066 5.57934 4.43897.01038 4.69165-2.34338 4.67249-5.73416-.09021-15.97354.01843-31.94833-.12427-47.9211-.0155-1.73501-1.21875-4.94008-1.82898-4.92994-2.49109.04133-4.96594 1.06707-7.58228 2.58837m-366.39923-13.5855c.95587-.52784 2.69983-1.00466 2.73786-1.59188.2237-3.45863.7013-7.15568-.32874-10.30777-.38043-1.16437-4.61621-1.11793-7.1106-1.51819-.97357-.15623-2.1817-.36395-2.9497.05814-1.21863.6697-2.90619 1.72014-3.0971 2.83232-1.63557 9.52829-.6969 10.54414 8.8645 10.54035.333-.00014.66595-.00086 1.88378-.01298m365.76251-8.73155c.4922 2.9772-1.80932 7.38394 4.35523 7.26103 6.3617-.12687 6.719-.29742 6.50696-7.15927-.07654-2.4745-.23804-4.95251-3.51233-4.73835-2.89429.18931-7.17127-1.7807-7.34986 4.6366z"/><path fill="#1616A1" d="M806.15765 547V445.21195h34.1297v176.63784c-1.39508.11377-2.66711.30646-3.93933.30786-18.16162.0196-36.3244-.11486-54.48443.0539-14.6355.13598-26.40369-5.66022-36.0379-16.37811-31.04981-34.54255-62.11341-69.0727-93.1781-103.60187-1.28773-1.43137-2.63966-2.8049-4.62-4.90277v124.43414h-33.87366V444.82892c3.89575 0 7.68268.00003 11.46954.00003 11.6634 0 23.39496.80322 34.9751-.17865 19.92774-1.6896 34.75739 7.37189 47.43842 20.99408 17.24035 18.5198 33.96448 37.52008 50.91192 56.31253 15.38282 17.05743 30.76825 34.11243 47.20874 52.33954V547z"/><path fill="#1515A0" d="M1049.9989 514.99835h17.60046v25.0033H944.98756c0 10.55475-.21704 20.67169.05084 30.77576.4024 15.177 7.1546 22.42016 22.38257 24.09875 5.94116.6549 11.95367.8985 17.93487.91449 32.10639.08563 64.21314.04047 96.56629.04047v27.17022c-5.87341 0-11.6383-.03363-17.40259.00537-39.80054.2693-79.60278.8664-119.40076.66047-13.5697-.0702-27.39392-.86286-40.6339-3.59375-22.60926-4.6634-33.91566-18.97425-34.1789-42.72608-.48389-43.6499-.11334-87.30933-.08515-130.96478.00019-.30261.19257-.60513.40345-1.227h208.8999v24.77247H944.5531v45.07031h105.4458z"/><path fill="#1616A1" d="M1300.1969 465.69281c-28.85315-3.57791-57.12134-4.6275-85.17969 3.0693-29.55163 8.10645-41.23376 31.01948-42.9513 55.39994-.77672 11.02868.02552 21.99359 3.4131 32.60211 7.77258 24.34021 25.43823 36.91028 49.76537 41.25012 28.07813 5.00891 56.0603 2.79169 83.98621-1.5138 4.4358-.68395 8.8545-1.47985 13.53333-2.26635v29.17255c-6.2218.76184-12.5708 1.69757-18.95166 2.29406-33.4032 3.12232-66.82325 3.29389-100.27747.66688-22.02026-1.7292-43.39734-5.81904-64.0376-14.08301-22.77075-9.11707-36.26318-25.70923-41.90747-49.0962-5.2649-21.8153-4.92285-43.59295 1.84021-65.06387 8.73877-27.74335 29.20007-42.36041 56.28162-48.997 38.81445-9.51188 78.28808-11.57752 118.04333-9.47285 15.43482.81711 30.84046 2.18848 46.49683 3.32465v25.70804c-6.57922-.97669-13.09778-1.94434-20.05481-2.99457z"/><path fill="#052F65" d="M316.00851 256.00598c-.41726 7.79923-.03674 15.2551-1.42016 22.36783-2.76022 14.1912-13.65857 22.38922-28.7221 22.8068-16.03053.44442-27.38328-6.87638-30.81773-21.29294-3.38691-14.21705-3.45451-28.84308.09774-43.03632 3.71531-14.84474 15.79487-21.95345 33.10682-20.82988 14.22443.9232 24.79215 10.67686 26.7923 25.06192.66193 4.76062.66098 9.6134.96313 14.9226m-18.05346 25.23733c5.38873-13.005 3.68777-26.49634 2.023-39.76648-1.05666-8.42266-7.60189-12.71518-16.06383-12.46784-8.00199.2339-14.17469 4.97759-14.85166 13.30306-.84451 10.3855-.69174 20.89753-.25778 31.32533.28348 6.81162 3.92346 12.08362 10.9335 13.85193 6.94208 1.75116 13.21054.47073 18.21677-6.246z"/><path fill="#053065" d="M884.57526 292.43335c-8.74884-8.33078-7.99945-34.915-2.2234-43.97905 5.61207-8.80661 22.31336-12.3655 32.5204-2.6914-.69404-5.9942 3.4002-4.56309 6.45489-4.59177 7.52277-.07067 7.5235-.02574 7.52356 7.50702.00018 15.81431.05572 31.62889-.0196 47.44285-.04986 10.46317-3.0177 19.73136-13.41906 24.13599-11.65723 4.93646-23.04267 3.92053-33.42304-3.93485-2.18878-1.6564-2.56103-3.32162-.44494-5.30578 1.33502-1.25183 2.6781-2.50998 3.88012-3.88544 1.84815-2.1149 3.26764-2.06396 5.89283-.57178 3.60779 2.05066 7.94024 3.9957 11.93908 3.95023 8.83216-.10037 12.0534-5.45178 11.59967-17.4053-10.15545 6.80786-20.1964 7.78271-30.28051-.67072m15.09448-39.53885c-2.19507 2.31041-5.891 4.39227-6.2846 6.97702-.92652 6.08484-1.0099 12.5256-.04737 18.6027.859 5.42348 4.89532 7.59322 10.24933 7.52099 5.1883-.06998 9.20868-2.58106 10.0899-7.85797.88489-5.29914 1.11548-10.92667.35907-16.22858-1.09424-7.67102-5.87713-10.46924-14.36633-9.01416z"/><path fill="#052F65" d="M429.15494 296.57785c-.00394-24.78677.124-49.1117-.11182-73.43309-.0476-4.91357 1.50961-6.7179 6.25455-6.01926 1.14148.16808 2.34033.13108 3.49277.00518 3.27914-.35825 4.36233 1.02288 4.28204 4.29834-.1944 7.92852-.06317 15.86503-.06317 23.3361 4.11111-1.61635 7.89786-3.93774 11.94165-4.54349 13.74405-2.05885 23.7439 6.81696 23.87625 20.75878.10913 11.49438-.08871 22.99237.08923 34.48504.05402 3.48807-1.0499 4.69141-4.56753 4.60474-10.99054-.27084-9.25061 1.12024-9.3425-9.24509-.07828-8.82913.16025-17.66409-.06787-26.48806-.24857-9.61345-8.16593-14.94043-15.86252-10.84122-4.8937 2.60638-6.01508 7.27505-6.0473 12.30984-.06296 9.82905-.17688 19.66254.06125 29.48621.0907 3.74112-1.12153 5.53857-4.77808 4.6459-3.09326-.75521-7.5979 2.6779-9.15695-3.35992z"/><path fill="#EC7208" d="M1221.20483 241.55512c1.9458 1.04359 3.54395 1.91381 5.43262 2.94232 1.28552-3.97968 4.84216-4.22736 7.75708-2.97525 1.43555.61667 2.33667 3.99446 2.3617 6.13585.18994 16.3094.21862 32.62303.07458 48.9334-.17773 20.12734-17.41858 31.33889-35.97607 23.42272-2.38428-1.01703-4.54749-2.708-6.5647-4.38553-2.00086-1.66379-3.65344-3.75134-1.00318-6.26382 2.26136-2.14365 4.42713-4.07263 7.5426-.83924 4.01283 4.16465 9.28993 4.96762 14.77406 4.35096 8.38879-.9434 12.1051-6.54901 11.31823-15.99973-5.14197 1.08652-10.3258 2.97382-15.5586 3.12146-10.65832.30081-18.49938-5.63266-20.22082-16.1799-1.34338-8.23111-1.79162-16.98602-.5293-25.18347 2.38966-15.51602 14.17762-21.71712 30.5918-17.07977m-19.9193 14.59185c-2.92188 8.0619-2.94251 16.2999-1.11402 24.53485 1.49463 6.73114 6.13647 10.33594 12.73926 10.44638 6.92248.11585 11.95117-2.90753 13.02319-9.76617 1.08484-6.941.98999-14.1914.42248-21.22644-.46179-5.72261-4.13757-9.75546-10.1422-10.76805-6.05237-1.0206-11.21863.42602-14.92872 6.77943z"/><path fill="#EC7207" d="M1527.44751 278.5868c-2.26978-6.80347-4.36987-13.24793-6.94348-21.14536-4.55188 13.5333-8.49854 25.6709-12.8103 37.6774-.69288 1.92935-2.745 4.06356-4.64454 4.7142-3.3573 1.14993-5.31103-.82587-6.42334-4.31925-5.18688-16.29028-10.6903-32.47995-15.8573-48.77635-.50085-1.57962.3186-5.15112.89002-5.23236 2.885-.41023 6.5326-1.71571 7.96728 2.6271 2.3462 7.10183 4.6659 14.2124 7.00184 21.31756 1.80847 5.50085 3.62487 10.99908 5.8922 17.87698 3.4037-10.18884 6.37794-19.06784 9.33387-27.95299 1.1001-3.30677 2.18652-6.61868 3.22449-9.94532.78943-2.52945 1.76428-4.38216 5.06823-4.3941 3.297-.01194 4.74366 1.38587 5.70093 4.28707 4.04675 12.26526 8.22608 24.48679 12.80066 38.03845 2.99292-9.26047 5.59278-17.26565 8.16504-25.2797 1.42126-4.42814 2.72827-8.89406 4.21399-13.30012 1.09424-3.24553 6.40454-5.2757 8.87134-3.17173.85571.72985 1.03918 3.05458.61682 4.3541-5.49854 16.91512-11.0647 33.8107-16.94287 50.59594-.54431 1.55408-3.34961 3.22955-5.07752 3.20068-1.75207-.02923-4.37854-1.73211-5.0382-3.3485-2.3152-5.67112-3.94788-11.62077-6.00916-17.8237z"/><path fill="#052F65" d="M728.66284 242.17325c5.50977 2.44063 8.95221 6.6026 9.10742 11.97572.43586 15.0879.15204 30.19661.15204 45.24303-9.10882 1.71432-11.23102 1.17276-13.28918-3.43872-5.70642 5.03952-12.5373 5.77649-19.66724 5.0156-8.93304-.95329-14.8371-6.99403-15.76886-15.90534-.94964-9.0828 3.79474-16.64035 12.60987-18.93936 4.44213-1.15848 9.18109-1.2619 13.80316-1.61747 2.95135-.22708 5.93444-.04254 8.81292-.04254 1.69892-8.26184-1.22143-12.61824-8.99597-12.43362-4.97363.11809-9.88934 1.92805-14.8778 2.66087-1.37562.2021-3.19044-.38934-4.30854-1.25572-1.08716-.84232-1.4328-2.57967-2.29156-3.79106-1.99408-2.81314-.97382-4.46721 1.83471-5.80031 10.60858-5.0356 21.46955-5.04645 32.87903-1.67108m-15.7846 32.85104c-2.25342.52585-4.94294.46915-6.63929 1.7391-1.74566 1.30695-3.46667 3.91117-3.45892 5.94114.00769 2.03692 1.68396 5.03873 3.4654 5.91287 5.03735 2.4718 10.50042 2.10965 15.25701-.9899 4.46729-2.91104 3.92316-7.57767 3.31067-12.62655-3.77405 0-7.39862 0-11.93488.02334zm-203.42289 25.64948c-10.78808-2.44837-17.45764-8.99884-18.6845-19.3616-.95939-8.10337-.97288-16.68873.64929-24.6405 2.40173-11.77319 13.78173-17.90124 27.66744-16.61587 11.87458 1.0992 20.85969 9.77262 21.74708 22.24815 1.07733 15.14396 3.23175 12.4889-11.08814 12.6862-8.15979.11245-16.32214.03204-24.4833.0523-.31846.0008-.63654.14526-.95365.2275-1.25897 6.6793 3.60611 13.351 10.9176 13.2685 4.69165-.05289 9.54358-1.98303 13.97327-3.88702 3.30865-1.42215 6.6242-.60108 9.98724 3.9332 2.20636 2.9747-.4287 4.24212-2.0603 5.60186-7.98218 6.65207-17.3529 7.81003-27.67203 6.48728m17.98715-37.2908c-1.19628-8.74709-5.67956-12.42347-14.04779-11.5196-6.29681.68015-9.98123 5.35883-9.48812 12.1594 7.68905 0 15.38845 0 23.53591-.6398z"/><path fill="#063066" d="M827.71362 300.01123c-9.72516.00052-9.72516.00052-9.72516-9.15683 0-14.98785.11444-29.97723-.0802-44.96255-.04876-3.75794 1.17475-5.4653 4.81617-4.68863 3.3424.71287 8.51117-2.7841 9.2934 2.67485 5.0617-1.2821 10.16405-3.43543 15.36596-3.71125 10.53943-.55883 18.9057 6.60238 19.56128 17.18056.81225 13.10504.51135 26.28354.46045 39.42938-.00421 1.07914-1.68323 2.9538-2.74634 3.07877-3.39642.39926-6.86938.1481-10.84882.1481 0-10.09302.0307-19.54797-.01886-29.00256-.01477-2.82172-.03497-5.67362-.43371-8.45713-.99542-6.94905-5.19422-10.72431-11.1502-10.3197-6.14704.4176-10.22724 4.92807-10.31611 11.87793-.13416 10.48981-.07172 20.98276-.01569 31.47394.0141 2.6384-.31738 4.74521-4.16217 4.43512zm-268.14026-1.45975c-1.3977-.6686-2.48553-1.09762-3.5033-1.65466-8.61425-4.71454-8.84618-7.3713-.79961-13.09451.96686-.68772 3.43444-.22415 4.65246.56296 5.79706 3.7464 11.89978 5.8565 18.86176 4.68304 3.78656-.63828 6.92975-2.4537 6.83783-6.6145-.08399-3.79813-3.25891-5.0589-6.63861-5.51822-4.61066-.62656-9.2804-.97632-13.81855-1.94348-8.0293-1.71121-12.6535-6.85611-13.27453-14.1394-.76666-8.99123 2.56433-15.65534 10.26477-18.6012 11.27868-4.31478 22.19397-2.84055 32.49408 3.42791 2.47094 1.50377 2.41748 2.94848.66449 5.19272-4.53125 5.80124-4.30854 5.5517-11.1377 3.15874-3.96252-1.38846-8.35455-1.88683-12.5844-2.07031-3.39362-.14727-6.3893 1.69072-6.45661 5.53035-.06403 3.65368 2.86432 5.01245 6.02215 5.50284 4.5954.71362 9.26636 1.0058 13.8205 1.90585 8.29217 1.63891 12.79877 6.23926 13.8731 13.61691 1.18494 8.13678-2.27984 15.75433-9.34496 19.354-9.64875 4.91599-19.6203 4.1044-29.93287.70096z"/><path fill="#EB7105" d="M1731.07654 240.6699c3.2865 1.32958 6.16833 2.53994 9.75146 4.04484 0-7.71526.0968-15.41934-.0465-23.11896-.05945-3.19476 1.09655-4.3911 4.333-4.53105 4.05554-.17536 5.13257 1.54123 5.11487 5.3234-.11157 23.99427.00293 47.98974-.17273 71.98327-.0138 1.8652-1.29321 4.88925-2.65124 5.33292-2.81055.91805-6.43519 1.20648-6.85999-2.69358-4.3855 1.36362-8.52625 3.4657-12.81702 3.83731-14.67834 1.27127-22.89831-4.9747-24.81213-19.64929-1.01746-7.80087-.84741-16.01843.38855-23.79321 2.13635-13.43817 12.39416-19.2953 27.77173-16.73566m-18.76612 39.9787c2.61182 8.50577 7.07312 11.8421 15.15406 11.33264 7.43762-.46893 11.76233-4.6964 12.64953-13.4562.54749-5.40562.51111-10.96393-.06384-16.3685-.93445-8.7833-5.97656-13.17988-14.0337-13.14112-7.92394.03812-13.16112 4.74422-13.88915 13.36261-.48706 5.7662-.03015 11.6121.1831 18.27057zm-643.13732-55.51898c.00012 6.75744.00012 13.03105.00012 18.31753 5.93127-1.18193 11.60522-3.08512 17.33789-3.28265 9.7904-.33733 16.73303 5.26799 19.4668 14.74304 2.82653 9.79697 2.95141 19.78159.44775 29.62436-3.79797 14.93118-19.7257 21.41098-33.24182 13.77713-1.13599-.64154-2.21167-1.38952-3.63428-2.28982-.63342 4.82727-4.21704 4.62426-7.0498 3.68026-1.33777-.4458-2.54676-3.48608-2.56067-5.36007-.17188-23.1623-.16993-46.32657-.04468-69.48943.01709-3.16177-2.00964-7.72784 4.46814-7.7968 6.29297-.06697 4.54248 4.23705 4.81055 8.07645m11.11523 24.26025c-5.2456 1.11658-9.24085 4.34805-9.75903 9.46402-.77893 7.69013-.93335 15.59036-.0647 23.25522.72803 6.42246 6.28271 9.83536 13.12024 9.88702 7.06262.05338 12.07385-2.9977 13.27832-9.61926 1.11743-6.14325 1.32886-12.57263 1.00952-18.82855-.53857-10.55386-6.09155-14.98259-17.58435-14.15845z"/><path fill="#EC750C" d="M1291.06836 264.28955c-.4812-10.54245-4.98523-15.45233-13.60706-15.248-8.65698.20517-13.54052 5.7945-13.57995 15.65395-.03992 9.98837-.11646 19.97876.04675 29.9646.06067 3.71939-.95654 5.5202-5.04907 5.45266-3.8247-.06314-4.80689-1.75735-4.79505-5.23846.08277-24.13864.09778-48.27791-.01208-72.41632-.01721-3.80513 1.1936-5.42249 5.15906-5.41405 3.89636.00829 4.76928 1.81249 4.69152 5.26447-.16479 7.31675-.05017 14.63978-.05017 21.72505 4.5514-1.36432 8.9369-3.51204 13.46753-3.88211 14.03516-1.14641 22.68116 6.54113 23.1709 20.54904.40686 11.63907.02393 23.30417.12744 34.95648.03247 3.65607-1.80993 4.40775-5.00915 4.43576-3.57227.03128-4.5852-1.56027-4.54627-4.87616.11914-10.15353.03467-20.30945-.0144-30.9269z"/><path fill="#EC740A" d="M1394.48755 285.58356c3.93555 2.643 3.44629 5.16131.52405 7.85074-8.54615 7.86532-18.62745 9.4096-29.32056 6.28451-9.78699-2.86023-14.38635-10.65744-15.26343-20.22433-.63098-6.88288-.48034-14.01716.59888-20.83722 1.87024-11.8193 10.76868-18.61068 22.91528-18.67632 12.3761-.06688 21.3612 6.91835 23.82508 18.52223 2.97815 14.02558 2.13916 15.09131-11.87964 15.09131-8.61011-.00003-17.22034 0-25.75342 0-.78455 8.09305 1.85132 13.79926 7.33618 16.65848 6.18836 3.22595 14.9795 1.98541 20.53833-2.90387 1.7876-1.57239 3.20764-4.2703 6.47925-1.76553m-13.56494-35.44692c-12.54846-3.97307-21.3551 2.13918-20.89112 14.75457h28.59266c.22937-6.89472-1.45704-10.31011-7.70154-14.75457z"/><path fill="#EC7308" d="M983.69006 300.66574c-10.97412-3.02905-15.18512-8.6633-14.70227-19.22293.39252-8.58127 5.73426-14.24963 15.83185-15.62003 6.54334-.88803 13.23291-.69827 19.84345-.99084 2.69805-11.2051-.79053-16.1408-11.96051-15.80818-4.30176.1281-8.71839 1.61586-12.76752 3.2602-2.92072 1.18613-4.42005.93876-6.2019-1.62132-1.99036-2.85965-.94172-4.46829 1.42358-6.16177 7.58832-5.43283 24.64136-6.22772 32.60303-1.47624 4.96612 2.96374 6.872 7.80714 7.00494 13.08172.33594 13.32035.26373 26.6533.1427 39.97922-.01166 1.2763-1.51239 3.61084-2.32214 3.61096-2.6269.0004-5.25385-.85714-7.83716-2.01504-6.36096 3.31433-13.37555 3.9318-21.05805 2.98425m15.79169-27.08643c-4.62433.19062-9.2945.0453-13.85968.66874-4.34906.5938-7.20264 3.3655-7.39386 8.01513-.19434 4.7266 2.13715 7.76584 6.68457 9.22062 13.37738 4.27978 22.53308-3.68763 19.83057-17.67875-1.35834-.07196-2.8114-.14892-5.2616-.22573z"/><path fill="#063066" d="M377.43524 248.48795c10.40823-10.68459 27.85596-11.45748 38.18555-2.10694 2.734 2.47489 2.84494 4.08422.0151 6.74503-3.78317 3.55719-6.36145 5.2748-11.49539 1.1107-6.40121-5.19197-15.9421-1.20647-17.38208 6.95497-1.05063 5.95465-1.17184 12.36112-.1958 18.31848 1.48719 9.0773 11.30387 12.1673 19.06815 6.76947 1.48611-1.03314 4.06644-2.53265 4.98392-1.96042 2.74264 1.71064 5.0369 4.23514 7.16229 6.73438.30755.36172-1.0134 2.62247-2.01892 3.5054-8.14127 7.14835-17.65741 8.20575-27.61136 5.2398-8.96341-2.67068-14.20029-9.2452-15.62152-18.34453-1.763-11.28754-2.34027-22.58222 4.91006-32.96634z"/><path fill="#EC7207" d="M1599.9458 300.17703c-16.75952 3.68439-28.78906-3.9616-31.1222-20.34613-.96825-6.7992-.68041-13.9935.34351-20.81183 1.75342-11.67709 10.51319-18.68885 22.2002-19.02913 13.05225-.38002 22.41943 5.73414 24.4657 17.92403 1.37292 8.17783 1.10327 16.87375.06164 25.14816-1.09704 8.71274-6.81616 14.5753-15.94885 17.1149m-13.76465-9.44375c10.42334 3.13797 18.86646-.32367 20.38892-9.5282 1.14319-6.9111.91382-14.23914.07092-21.23392-.79736-6.61607-6.86865-10.7801-13.59607-10.9339-6.9248-.1583-13.00769 3.46848-13.96008 10.27863-1.03772 7.41897-.83057 15.17614.10364 22.62658.37732 3.00907 4.12036 5.5961 6.99267 8.7908z"/><path fill="#EC7208" d="M240.9943 308.11008c-4.71201 6.27115-9.91077 5.66604-12.69431-1.24832-16.43294-40.8197-32.81812-81.65859-49.21814-122.49149-.2475-.61623-.77298-1.29852-.66145-1.84679.29615-1.4559.8704-2.85525 1.33406-4.2771 1.29712.7335 3.22459 1.14652 3.78732 2.2534 3.23424 6.36166 6.1562 12.88258 9.16376 19.3589 15.59661 33.58532 31.21334 67.16137 46.71865 100.78878.99773 2.16382 1.11856 4.73203 1.5701 7.46262z"/><path fill="#0B3469" d="M768.3003 286.28357c1.08758.83676 1.92187 1.41382 2.84564 1.67905 1.83831.5278 5.1748.58026 5.33917 1.36438.66833 3.18759.47778 6.58288.32507 9.88867-.02649.5734-1.3316 1.38766-2.16363 1.57864-11.47333 2.63342-20.04401-3.52472-20.82093-15.10269-.36737-5.4744-.31683-10.97934-.37414-16.47128-.05725-5.48243-.01251-10.96591-.01251-16.73754l-4.87513-.80328c-2.03534-8.18227-1.36584-9.81763 4.87616-11.28891 0-4.2037.10279-8.51305-.03442-12.81473-.0993-3.11601.93701-4.5503 4.30023-4.49074 11.22113.19869 9.76813-1.0284 9.85199 9.39827.02136 2.6506.00323 5.30156.00323 7.88112 9.8324 2.33286 9.92505 2.41672 9.45917 8.36348-.23364 2.98207-.23358 2.98207-8.93274 3.53354 0 11.18706 0 22.4042.21283 34.02202z"/><path fill="#052F65" d="M606.25879 251.78923c-.67407-2.91992-1.5124-5.77606-.98438-8.3521.27668-1.3491 2.95124-2.20663 5.54822-3.96815 0-3.29923.0935-7.9157-.03473-12.52602-.07818-2.81062 1.08338-3.84517 3.84186-3.82179 11.98706.10162 10.10486-.9179 10.21558 9.4892.02807 2.63644.0042 5.27345.0042 7.99222 3.16383.48149 7.32642-.05224 8.5459 1.59408 1.54676 2.08823.70362 5.9467.9228 9.56618h-9.40473c0 11.23413-.14898 21.9855.19995 32.7207.04084 1.25702 2.86322 3.48468 4.33344 3.4342 4.3205-.14837 4.87012 1.85267 4.79785 5.44468-.16223 8.06591-.05829 8.10641-8.03802 7.37582-11.1421-1.02014-15.17133-5.28302-15.35187-16.6749-.1477-9.31881-.16626-18.64474.03802-27.96136.07251-3.30747-.9851-4.62782-4.6341-4.31276z"/><path fill="#093267" d="M674.46985 252.83824c-7.98499-1.37208-12.74457 1.33481-13.51856 8.91402-.92572 9.06503-.65423 18.26114-.73114 27.40188-.09735 11.5759-.02368 11.58027-11.67132 10.80784-.47443-.03147-.93585-.25821-1.56458-.4408-.1751-.94537-.50598-1.90463-.50781-2.86456-.03247-17.15403.01855-34.30835-.06775-51.46202-.0149-2.9696.94525-4.36466 4.0398-4.0802 1.65149.15182 3.4245-.31847 4.9699.11218 2.01227.56073 3.85285 1.73726 6.82203 3.15097 4.95068-4.44312 12.13788-6.02776 19.87292-3.12847 2.23664.83837 5.78577 4.21615 5.52411 4.70229-1.75006 3.25113-4.07098 6.38774-6.8841 8.7572-.85204.71771-3.84563-1.10704-6.2835-1.87033z"/><path fill="#052F65" d="M328.81335 266.99942c-.00018-7.65042.10642-14.8032-.04956-21.95021-.06912-3.1685 1.33555-4.11737 4.21015-3.92163 1.82074.12396 3.6683.15411 5.4834-.00575 3.18014-.2801 4.76968.9997 4.42093 4.89796 7.34726-6.61536 15.15484-7.97064 23.60113-3.88898 4.53418 2.19117 4.48428 3.32431 1.66287 7.49462-2.7905 4.1246-5.1821 6.06216-10.75488 3.58276-7.74927-3.44774-14.25455 1.77329-14.47449 10.89117-.2446 10.1378-.26901 20.29209.03217 30.42667.13306 4.47733-1.38672 5.73337-5.7124 5.56879-9.55338-.36353-8.36158 1.05203-8.41114-8.64978-.04077-7.9817-.00824-15.96375-.00818-24.44562z"/><path fill="#EC750C" d="M1338.99011 299.98773c-1.5454.1625-2.70764.25226-3.86926.24475-12.0785-.0781-16.55908-4.42788-16.69397-16.54214-.12341-11.09644-.02612-22.19534-.02612-33.5344-3.63086-.6283-8.339.9383-8.02344-5.07032.28625-5.44776 4.67029-3.3522 8.02331-4.46501 0-4.12848.12891-8.39953-.0387-12.65891-.1477-3.75475 1.58143-4.932 5.12782-4.8976 3.50476.03397 4.70324 1.54726 4.57104 4.88842-.16357 4.1357-.03906 8.2828-.03906 13.18026 3.10278 0 6.01294.03224 8.92212-.00871 3.13403-.0441 4.41186 1.93716 3.76428 4.48178-.4115 1.61618-2.11987 3.69191-3.62048 4.06726-2.651.66307-5.58728.18567-9.06568.18567 0 7.80162-.00012 15.38963 0 22.97765.00013 3.65841-.05432 7.31784.01404 10.97497.10437 5.58383 1.51929 7.00015 7.09876 7.3089 6.09362.33722 7.34033 2.91064 3.85534 8.86743z"/><path fill="#EC7308" d="M1154.39172 242.42963c2.62366 1.6152 4.47974 3.12259 2.4441 6.15196-1.87061 2.78355-3.66395 4.1086-7.3783 2.37218-9.81506-4.58844-17.77173.09883-18.39868 11.07809-.61585 10.7868-.43384 21.62405-.42273 32.43894.00354 3.48352-.48645 5.66857-4.81677 5.65274-4.2671-.01566-4.89942-2.11072-4.87732-5.63645.09777-15.64743-.04944-31.297.15124-46.94246.0271-2.10786 1.2146-5.73288 2.41052-5.97647 2.53199-.5158 5.42432.73741 8.08399 1.92482 7-4.42546 14.56201-4.85567 22.80395-1.06335z"/><path fill="#EC750C" d="M1421.87036 288.93835c0 2.15097-.07678 3.81754.01587 5.47464.19373 3.46259-.55017 5.64072-4.8302 5.71671-4.67969.0831-4.98865-2.4246-4.96704-6.01059.09436-15.62485-.03748-31.25146.13745-46.87492.02246-1.99985.90784-5.26723 2.1831-5.71924 2.97425-1.05417 6.67151-1.37097 7.87708 3.13925 7.6709-5.68526 15.4779-6.30739 23.58154-1.92616 2.0702 1.1193 4.18042 2.60222 2.2583 5.4816-1.57836 2.3644-2.90979 4.69653-6.70971 3.11969-11.94043-4.95502-19.29846.06507-19.51892 13.174-.13404 7.97666-.02637 15.95743-.02747 24.42502z"/><path fill="#053065" d="M800.63171 299.97943c-11.48242.0441-11.48242.0441-11.48242-10.93283 0-14.1565.115-28.31451-.07422-42.46849-.05273-3.94536.79773-5.69014 5.21259-5.52258 10.2981.39083 8.65216-.9432 8.70245 8.85316.0769 14.98883.08112 29.97894-.06396 44.96677-.01642 1.69855-1.19178 3.38592-2.29444 5.10397z"/><path fill="#EB7003" d="M1685.16846 224.17307c0 20.11998.0293 39.76266-.02246 59.40512-.01148 4.38028.28454 8.06167 6.27575 7.66192 3.4884-.2327 3.48377 2.8237 2.99451 5.00449-.3285 1.46356-1.89685 3.5781-3.14758 3.75854-9.95557 1.43607-15.27014-3.057-15.35889-13.23031-.18323-20.97266-.07568-41.9479-.07214-62.92206.0006-3.25287-.86695-6.77149 4.58886-6.80756 5.34095-.0353 4.83191 3.26125 4.74195 7.12986z"/><path fill="#EB7004" d="M1630.8396 244.40573c1.78577-1.39084 3.53393-2.97285 5.3501-3.05504 1.53247-.06933 3.14367 1.6018 5.22278 2.78981 6.2528-5.0161 13.95373-5.68393 22.01806-1.88458 2.39441 1.12816 5.04273 2.58937 2.96338 6.05984-1.65356 2.75983-3.3059 4.55674-7.18506 2.70728-9.70617-4.6276-17.22802-1.05421-18.36719 9.684-1.20398 11.34908-.71435 22.8861-.781 34.34212-.01843 3.15805-.58508 4.99335-4.31091 5.04035-3.60633.0455-5.02039-1.068-4.98597-4.8508.15247-16.79016.06702-33.58252.07581-50.83298z"/><path fill="#ED7913" d="M1166.46301 243.72214c2.54859-1.0922 5.02344-2.11794 7.51453-2.15927.61023-.01014 1.81348 3.19493 1.82898 4.92994.1427 15.97277.03406 31.94756.12427 47.9211.01916 3.39078-.23352 5.74454-4.67249 5.73416-4.23523-.00992-4.95227-2.02136-4.93066-5.57934.10254-16.80536.05896-33.61158.13537-50.8466z"/><path fill="#10386C" d="M799.55359 230.57158c-.7754.00627-1.10834.00699-1.44135.00713-9.5614.0038-10.50006-1.01206-8.8645-10.54035.19092-1.11218 1.87848-2.16261 3.0971-2.83232.76801-.42209 1.97614-.21437 2.94972-.05814 2.49438.40026 6.73016.35382 7.1106 1.5182 1.03002 3.15208.55242 6.84913.32873 10.30776-.03803.58722-1.78199 1.06404-3.1803 1.59772z"/><path fill="#EC750C" d="M1165.76148 221.42404c.17565-6.00715 4.45263-4.03714 7.34692-4.22645 3.27429-.21416 3.43579 2.26385 3.51233 4.73835.21203 6.86185-.14527 7.0324-6.50696 7.15928-6.16455.1229-3.86304-4.28383-4.3523-7.67118z"/><path fill="#FDFDFE" d="M297.76492 281.5686c-4.8161 6.39145-11.08456 7.67188-18.02664 5.92072-7.01004-1.76831-10.65002-7.04032-10.9335-13.85193-.43396-10.4278-.58673-20.93983.25778-31.32533.67697-8.32547 6.84967-13.06915 14.85165-13.30306 8.46195-.24734 15.00718 4.04518 16.06385 12.46784 1.66476 13.27014 3.36572 26.76147-2.21314 40.09176z"/><path fill="#FCFCFD" d="M900.0426 252.78438c8.11634-1.34496 12.89923 1.45326 13.99347 9.12428.75641 5.30191.52582 10.92944-.35907 16.22858-.88122 5.27691-4.9016 7.788-10.0899 7.85797-5.354.07223-9.39032-2.0975-10.24933-7.521-.96253-6.07709-.87915-12.51785.04736-18.60269.39362-2.58475 4.08954-4.66661 6.65747-7.08714z"/><path fill="#FFFDFC" d="M1201.49487 255.81998c3.50074-6.02642 8.667-7.47304 14.71936-6.45244 6.00464 1.01259 9.68042 5.04544 10.14221 10.76805.56751 7.03503.66236 14.28543-.42248 21.22644-1.07202 6.85864-6.1007 9.88202-13.0232 9.76617-6.60278-.11044-11.24462-3.71524-12.73925-10.44638-1.8285-8.23495-1.80786-16.47296 1.32336-24.86184z"/><path fill="#F9FAFB" d="M713.3341 275.01263c4.08039-.01168 7.70496-.01168 11.47901-.01168.61249 5.04888 1.15662 9.71551-3.31067 12.62655-4.75659 3.09955-10.21966 3.4617-15.25702.9899-1.78143-.87414-3.4577-3.87595-3.4654-5.91287-.00774-2.02997 1.71327-4.63419 3.45893-5.94113 1.69635-1.26996 4.38587-1.21326 7.09516-1.75077z"/><path fill="#EEF1F5" d="M527.2185 263.70288c-7.92346.31989-15.62286.31989-23.31191.31989-.4931-6.80057 3.19131-11.47925 9.48812-12.1594 8.36823-.90387 12.8515 2.77251 13.8238 11.83951z"/><path fill="#FFFDFC" d="M1712.22095 280.22449c-.12378-6.23438-.5807-12.08026-.09363-17.84647.72803-8.6184 5.9652-13.3245 13.88916-13.3626 8.05713-.03877 13.09924 4.35781 14.0337 13.1411.57494 5.40458.61132 10.9629.06383 16.3685-.8872 8.7598-5.21191 12.98728-12.64953 13.45621-8.08094.50946-12.54224-2.82687-15.24353-11.75674zm-631.52613-30.91507c11.0863-.7437 16.63929 3.68503 17.17786 14.23889.31934 6.25592.10791 12.6853-1.00952 18.82855-1.20447 6.62155-6.2157 9.67264-13.27832 9.61926-6.83753-.05166-12.39221-3.46456-13.12024-9.88702-.86865-7.66486-.71423-15.5651.0647-23.25522.51819-5.11597 4.51343-8.34744 10.16552-9.54446zm300.57789 1.00491c5.8944 4.26677 7.5808 7.68216 7.35144 14.57688h-28.59266c-.46399-12.6154 8.34266-18.72764 21.24122-14.57688zm-381.29236 23.2649c1.9516.0769 3.40466.15386 4.763.22582 2.70251 13.99112-6.45319 21.95853-19.83057 17.67874-4.54742-1.45477-6.8789-4.49401-6.68457-9.2206.19122-4.64963 3.0448-7.42133 7.39386-8.01514 4.56519-.62345 9.23535-.47812 14.35828-.66883zm585.87024 16.94622c-2.54175-2.98688-6.2848-5.57391-6.66211-8.58298-.9342-7.45044-1.14136-15.2076-.10364-22.62658.9524-6.81015 7.03528-10.43694 13.96008-10.27863 6.72742.1538 12.7987 4.31783 13.59607 10.9339.8429 6.99478 1.07227 14.32282-.07092 21.23392-1.52246 9.20453-9.96558 12.66617-20.71948 9.32037z"/></svg>