<svg xmlns="http://www.w3.org/2000/svg" viewBox="0 0 400.7 200"><defs><style>.cls-1{fill:#2f2f3a;}</style></defs><title>Full logo vertical-Black</title><g id="Layer_2" data-name="Layer 2"><g id="Layer_1-2" data-name="Layer 1"><g id="Artwork_86" data-name="Artwork 86"><g id="Artwork_3" data-name="Artwork 3"><g id="Artwork_3-2" data-name="Artwork 3"><g id="Artwork_1" data-name="Artwork 1"><polygon class="cls-1" points="147.67 56.36 111.07 40.06 200.92 0 290.74 40.04 254.15 56.36 200.92 32.63 147.67 56.36"/><polygon class="cls-1" points="301.83 45.16 301.83 77.77 200.35 123 98.88 77.77 98.88 45.16 200.35 90.39 301.83 45.16"/></g></g></g><path class="cls-1" d="M33,156.91v41.64H24.77L10.41,177.61v20.94H0V156.91H8.11l14.44,20.94V156.91Z"/><path class="cls-1" d="M69.39,189.87v8.68h-26V156.91h26v10.41H53.77v5.21H67.65v10.4H53.77v6.94Z"/><path class="cls-1" d="M103.07,198.55l-6.55-11.07L90,198.55H78l12.55-21.24L78.5,156.91h12l6.06,10.29,6.07-10.29h12l-12.07,20.46L115,198.55Z"/><path class="cls-1" d="M152.65,167.32H142.24v31.23H131.83V167.32h-10.4V156.91h31.22Z"/><path class="cls-1" d="M161.07,189.88l3.55-2.07c1.48,5,5.38,8.17,11.89,8.17,6.28,0,9.77-3,9.77-7.46,0-4.79-4.09-6.33-10.18-8.35-6.75-2.24-13.26-4-13.26-11.65,0-7.29,5.86-11.37,12.72-11.37a14.56,14.56,0,0,1,13.68,8.94L185.75,168a10.48,10.48,0,0,0-10.19-6.86c-5,0-8.58,2.6-8.58,7.16s3.56,5.92,9.18,7.75c7.51,2.49,14.26,4.62,14.26,12.31,0,7.1-5.68,11.6-14,11.6C168.82,200,163.2,196.15,161.07,189.88Z"/><path class="cls-1" d="M204.69,156.91v41.64h-3.47V156.91Z"/><path class="cls-1" d="M241.12,195.08v3.47H218.57V156.91H222v38.17Z"/><path class="cls-1" d="M256.73,156.91v41.64h-3.47V156.91Z"/><path class="cls-1" d="M268.31,178.58c0-11.84,9-21.43,21.72-21.43A20.4,20.4,0,0,1,308,167.33l-3.67,2.13A15.9,15.9,0,0,0,290,161.18c-10.48,0-17.58,7.75-17.58,17.4S279.55,196,290,196a15.91,15.91,0,0,0,14.26-8.29l3.67,2.07A20.29,20.29,0,0,1,290,200C277.3,200,268.31,190.41,268.31,178.58Z"/><path class="cls-1" d="M317.14,178.58A21.43,21.43,0,1,1,338.57,200,21.27,21.27,0,0,1,317.14,178.58Zm38.71,0A17.28,17.28,0,1,0,338.57,196,17.14,17.14,0,0,0,355.85,178.58Z"/><path class="cls-1" d="M400.7,156.91v41.64h-3.37l-22.65-33v33h-3.46V156.91h2.44l23.58,34.69V156.91Z"/></g></g></g></svg>