<svg xmlns="http://www.w3.org/2000/svg" role="img" xmlns:xlink="http://www.w3.org/1999/xlink" viewBox="-2.43 -2.30 119.73 28.73"><g transform="translate(-11.562 -11.124)"><path id="a" fill="none" stroke="#090" stroke-linecap="round" stroke-linejoin="round" stroke-width="5" d="M14.04784 32.7276V13.6629l19.0625 19.0647V13.6629"/><path fill="#090" d="M44.6875 11.1875L44 12.46875 38.6875 22.125 38 23.34375l.6875 1.21875L44 33.90625l.71875 1.28125H58.625l.6875-1.40625 3.96875-8 1.78125-3.625h-4.03125L50.875 22.1875c-1.32078-.01868-2.5356 1.17909-2.5356 2.5s1.21482 2.51868 2.5356 2.5L57 27.15625l-1.5 3.03125h-7.875l-3.90625-6.875 3.9375-7.125h8.37722l1.95313 4.00781h5.03125l-3.17188-7.60156-.6875-1.40625H46.1875zm25.32628-.03125c-1.30899.01639-2.48508 1.22226-2.46875 2.53125v6.5145h5v-6.5145c.0166-1.32982-1.20143-2.54784-2.53125-2.53125z"/><use width="744.094" height="1052.362" transform="matrix(-1 0 0 1 111.139 .048)" xlink:href="#a"/><g transform="translate(.106 .33)"><path id="b" fill="none" stroke="#090" stroke-linecap="round" stroke-linejoin="round" stroke-width="5" d="M104.90935 13.3742l19.08481 19.01787"/><use width="744.094" height="1052.362" transform="matrix(-1 0 0 1 228.926 0)" xlink:href="#b"/></g><path fill="#090" d="M70.01378 35.20407c-1.30899-.0164-2.48508-1.22226-2.46875-2.53125V22.20846h5v10.46436c.0166 1.32982-1.20143 2.54784-2.53125 2.53125z"/></g></svg>