<svg xmlns="http://www.w3.org/2000/svg" role="img" viewBox="-2.37 -2.49 174.98 38.61"><style>svg {enable-background:new 0 0 170.21 33.053}</style><path fill="#00509e" d="M24.697.914H8.957c-4.345 0-7.866 3.521-7.866 7.865V24.52c0 4.343 3.521 7.866 7.866 7.866h15.74c4.343 0 7.866-3.523 7.866-7.866V8.779c0-4.344-3.523-7.865-7.866-7.865zM8.957 8.779h15.74v15.742H8.957V8.779z"/><path fill="#00509e" d="M16.775 10.142c-3.566 0-6.456 2.891-6.456 6.456 0 3.566 2.89 6.456 6.456 6.456 3.565 0 6.454-2.89 6.454-6.456 0-3.565-2.889-6.456-6.454-6.456"/><path d="M49.677.946l15.329 22.282V6.084l-.045-4.075h-4.607V.946h9.879v1.063h-3.81l-.045 4.075v26.535l-.708.223L45.115 2.939V26.95l.044 4.207h4.74v1.064H39.666v-1.064h4.077l.043-4.207V6.084l-.043-4.075h-4.077V.946h10.011m51.122 0v10.01H99.47c-.131-1.55-.307-3.499-1.684-5.802-1.592-2.702-3.764-2.835-5.89-2.924h-2.483l-.043 3.987V26.64l.044 4.518h4.785v1.064h-14.53v-1.064h4.784l.045-4.518V6.217l-.045-3.987h-2.037c-2.569.044-4.519.044-6.379 3.013-1.461 2.348-1.595 4.208-1.685 5.713h-1.284V.946h27.731m12.581 0l15.329 22.282V6.084l-.046-4.075h-4.606V.946h9.88v1.063h-3.812l-.044 4.075v26.535l-.708.223-20.555-29.903V26.95l.043 4.207h4.741v1.064h-10.233v-1.064h4.076l.044-4.207V6.084l-.044-4.075h-4.076V.946h10.011m37.756 0v1.063h-4.385l-.045 3.764v16.923c.045 4.384.133 8.549 8.374 8.549 8.327 0 8.858-3.632 8.991-7.575V5.773l-.044-3.764h-4.475V.946h9.79v1.063h-3.852l-.045 3.764v16.126c-.047 5.803-.09 10.764-11.565 10.764-1.636 0-5.535-.175-8.017-1.195-3.942-1.684-4.03-5.139-4.075-9.391V5.773l-.044-3.764h-3.81V.946h13.202"/></svg>