<svg xmlns="http://www.w3.org/2000/svg" role="img" viewBox="-8.92 -8.92 437.84 88.34"><path d="M121.5 70h-9V18h8.7v8.7q2.8-4.2 7.1-7.05a17.205 17.205 0 0 1 9.202-2.841 20.858 20.858 0 0 1 .598-.009 20.994 20.994 0 0 1 4.417.44q2.986.642 5.268 2.223a13.128 13.128 0 0 1 .465.337 15.751 15.751 0 0 1 5.448 7.689 19.154 19.154 0 0 1 .102.311q3.1-4.6 7.35-7.8a15.669 15.669 0 0 1 6.791-2.884 21.446 21.446 0 0 1 3.759-.316 21.437 21.437 0 0 1 4.888.522q3.586.84 6.075 3.029a12.994 12.994 0 0 1 1.687 1.799 18.992 18.992 0 0 1 3.411 7.272q.739 3.05.739 6.678V70h-9V36.8a19.042 19.042 0 0 0-.337-3.689q-.436-2.206-1.435-3.95A10.982 10.982 0 0 0 177 28.05a7.974 7.974 0 0 0-5.813-3.296 10.678 10.678 0 0 0-1.087-.054 11.926 11.926 0 0 0-6.759 2.127 15.996 15.996 0 0 0-1.591 1.223Q157.9 31.4 155 35.9V70h-9V36.8a19.042 19.042 0 0 0-.337-3.689q-.436-2.206-1.435-3.95a10.982 10.982 0 0 0-.728-1.111 7.974 7.974 0 0 0-5.813-3.296 10.678 10.678 0 0 0-1.087-.054 12.02 12.02 0 0 0-6.319 1.828 16.244 16.244 0 0 0-1.981 1.422q-3.9 3.25-6.8 7.65V70zM9 70H0V18h8.7v8.7q2.8-4.2 7.15-7.05a17.316 17.316 0 0 1 7.106-2.625A22.629 22.629 0 0 1 26.2 16.8a23.225 23.225 0 0 1 5.065.518q5.094 1.138 8.085 4.782 4.125 5.026 4.338 13.109a33.764 33.764 0 0 1 .012.891V70h-9V37.1a19.265 19.265 0 0 0-.342-3.741q-.439-2.214-1.439-3.962a10.966 10.966 0 0 0-.869-1.297 8.579 8.579 0 0 0-6.277-3.353A12.061 12.061 0 0 0 24.7 24.7a13.122 13.122 0 0 0-6.849 1.964A17.353 17.353 0 0 0 16 27.95q-4.1 3.25-7 7.65V70zm379.7 0h-9.5V0h41.5v8.2h-32v21.4h26.7v7.8h-26.7V70zM246.1 47.7h-36.4a24.088 24.088 0 0 0 1.139 5.025q1.336 3.813 3.961 6.375 4.2 4.1 11.1 4.1 4.5 0 8.1-.95 3.6-.95 6.9-2.45l2.1 7.7a40.77 40.77 0 0 1-4.335 1.626 51.863 51.863 0 0 1-3.765 1.024 38.914 38.914 0 0 1-5.092.819 52.025 52.025 0 0 1-5.008.231 28.318 28.318 0 0 1-7.746-1.005 21.108 21.108 0 0 1-10.004-6.145 23.521 23.521 0 0 1-5.205-9.54Q200.5 49.845 200.5 44a35.359 35.359 0 0 1 .833-7.822 28.84 28.84 0 0 1 2.117-6.128 24.642 24.642 0 0 1 5.016-7.082 22.887 22.887 0 0 1 3.234-2.618 21.048 21.048 0 0 1 10.259-3.472A26.205 26.205 0 0 1 224 16.8q7.5 0 12.45 3.25 4.95 3.25 7.45 8.75a28.185 28.185 0 0 1 2.426 9.864 33.434 33.434 0 0 1 .074 2.236 75.204 75.204 0 0 1-.291 6.697 69.426 69.426 0 0 1-.009.103zM82.5 70h-9.4L52.2 20.4l8.2-3.4 17.7 42.8L95.8 17l7.7 3.4-21 49.6zM327 67.75a24.559 24.559 0 0 0 4.598 2.09q4.055 1.36 8.702 1.36 7.4 0 13.25-3.4t9.25-9.55a26.255 26.255 0 0 0 2.653-7.141 34.184 34.184 0 0 0 .747-7.309 34.542 34.542 0 0 0-.485-5.909 25.795 25.795 0 0 0-2.965-8.441q-3.45-6.05-9.3-9.35a24.848 24.848 0 0 0-4.641-2.027A27.738 27.738 0 0 0 340.3 16.8a31.325 31.325 0 0 0-1.58.039A26.169 26.169 0 0 0 327.1 20.1q-5.9 3.3-9.3 9.4a26.023 26.023 0 0 0-2.749 7.59A35.006 35.006 0 0 0 314.4 44a34.82 34.82 0 0 0 .265 4.354 27.451 27.451 0 0 0 3.085 9.796q3.35 6.15 9.25 9.6zm13.3-4.55q7.9 0 12.3-5.35a18.802 18.802 0 0 0 3.819-8.09A27.105 27.105 0 0 0 357 44q0-5.2-2.2-9.55a19.198 19.198 0 0 0-4.172-5.569 18.17 18.17 0 0 0-1.778-1.431q-3.75-2.65-8.55-2.65a19.249 19.249 0 0 0-5.226.672A14.037 14.037 0 0 0 328 30a17.878 17.878 0 0 0-3.674 7.374q-.726 2.932-.726 6.426 0 5.2 2.2 9.65a19.437 19.437 0 0 0 3.53 5.04 17.627 17.627 0 0 0 2.42 2.06q3.75 2.65 8.55 2.65zm-42.9-23.4h-34v-8.2h34v8.2zm-87.8.6h28.5a24.355 24.355 0 0 0-.404-4.585q-.496-2.584-1.6-4.608A12.422 12.422 0 0 0 234.3 28.7a12.488 12.488 0 0 0-6.961-3.776 18.395 18.395 0 0 0-3.539-.324 13.58 13.58 0 0 0-5.112.935 12.524 12.524 0 0 0-4.488 3.115q-3.8 4.05-4.6 11.75z" vector-effect="non-scaling-stroke" fill="#000" fill-rule="evenodd" stroke="#000" stroke-linecap="round" stroke-width=".25mm"/></svg>