<svg xmlns="http://www.w3.org/2000/svg" role="img" viewBox="61.13 62.13 278.98 130.48"><g fill-rule="evenodd" stroke="none"><path fill="#04accc" d="M197.555 67.726c0 .135-.275.245-.611.245-.336 0-.612.082-.612.183-.001.101-.496.387-1.1.635-.605.249-1.043.544-.974.655.069.112-.096.273-.367.359-.271.086-.492.314-.492.507s-.11.35-.245.35c-.134 0-.244.14-.244.31 0 .171-.277.716-.614 1.213-.462.681-.652 1.355-.769 2.739-.085 1.01-.228 1.791-.317 1.736-.09-.056-.189.35-.222.902-.032.551-.152 1.177-.265 1.391-.114.214-.287 1.353-.384 2.532-.098 1.178-.274 2.203-.393 2.276-.118.073-.215.628-.215 1.233 0 .689-.094 1.043-.251.946-.137-.086-.227-.065-.199.046.122.48-.354 4.725-.529 4.725-.107 0-.255.468-.33 1.039-.245 1.882-.434 2.99-.572 3.362-.075.202-.172.697-.215 1.1-.042.404-.2 1.504-.35 2.445-.149.942-.331 2.179-.404 2.75-.073.571-.22.985-.325.92-.106-.066-.182.017-.168.184.064.784-.403 4.581-.564 4.581-.1 0-.255.633-.345 1.406-.327 2.818-.765 5.407-.944 5.585-.1.1-.183.658-.183 1.241 0 .583-.11 1.059-.244 1.059-.135 0-.245.551-.245 1.223s-.11 1.222-.244 1.222c-.135 0-.245-.158-.245-.353 0-.654-2.846-3.314-3.546-3.314-.364 0-.574-.105-.488-.245.086-.138-.12-.244-.475-.244-.344 0-.625-.11-.625-.245 0-.608-5.57-.142-6.113.512-.067.08-.425.221-.794.311-.533.13-.671.304-.665.832.008.716.548 1.62.811 1.357.088-.087.173-.031.19.126.017.157.044.386.061.509.017.124.278.439.581.701.302.263.55.585.55.717s.217.491.484.798c.266.306.429.645.363.753-.067.107.102.266.375.353.273.086.433.259.356.384-.077.125-.017.227.133.227.15 0 .205.11.122.244-.083.135-.036.245.103.245.14 0 .479.44.753.978.275.538.607.978.739.978.131 0 .239.118.239.262 0 .144.138.415.306.603.725.809.917 1.085.917 1.325 0 .14.102.255.228.255.125 0 .289.192.365.428.075.235.413.747.75 1.138.337.391.613.808.613.927 0 .217.252.568 1.018 1.416.224.248.344.515.265.594-.078.078-.014.142.143.142s.285.12.285.265c0 .146.377.631.837 1.078.461.447.773.878.693.958-.079.079.027.144.237.144s.447.172.528.383c.081.21.257.313.393.23.135-.084.246-.036.246.106 0 .337 3.34.347 3.548.011.084-.137.257-.185.383-.107s.295-.03.376-.24c.08-.211.327-.386.548-.39.49-.01 1.747-2.01 1.747-2.779 0-.305.074-.629.164-.72.091-.091.19-.411.221-.713s.138-1.346.238-2.321c.099-.975.275-1.773.39-1.773.115 0 .209-.421.209-.937 0-.515.076-1.013.168-1.105.187-.188.191-.211.45-3.031.102-1.109.28-2.017.395-2.017.115 0 .21-.55.21-1.223 0-.672.101-1.222.226-1.222.124 0 .303-.993.398-2.206.095-1.213.269-2.265.385-2.337.117-.072.213-.627.213-1.232 0-.689.094-1.042.251-.945.137.085.229.064.203-.047-.115-.49.362-4.725.532-4.725.104 0 .253-.522.33-1.161.6-4.937.755-5.929.93-5.929.11 0 .199-.489.199-1.086 0-.597.11-1.154.245-1.237.134-.083.244-.639.244-1.237 0-.597.114-1.085.254-1.085s.25-.413.243-.917c-.02-1.641.289-3.97.51-3.833.119.073.216-.369.216-.982s.11-1.114.244-1.114.223-.083.196-.184c-.027-.101.047-1.118.163-2.261s.193-2.161.171-2.262c-.023-.101.069-.183.204-.183.134 0 .244-.551.244-1.223s.103-1.222.229-1.222.225-.193.22-.428c-.026-1.17.382-4.218.565-4.218.115 0 .208-.473.208-1.051s.099-1.156.22-1.284c.121-.128.298-1.14.393-2.249l.172-2.017h-2.226c-1.321 0-2.226.099-2.226.244m13.759 20.655c-1.16.64-1.779 1.188-1.779 1.577 0 .144-.103.262-.229.262s-.297.523-.379 1.161c-.083.639-.254 1.353-.382 1.586-.128.234-.232.866-.232 1.406 0 .54-.1.982-.222.982s-.286.632-.365 1.405c-.079.774-.201 1.736-.271 2.14-.07.403-.195 1.366-.276 2.139-.082.773-.224 1.406-.316 1.406-.091 0-.193.46-.226 1.022-.033.561-.109 1.1-.168 1.196-.06.096-.171.599-.248 1.117-.34 2.306-.892 5.419-1.163 6.567-.063.269-.195 1.287-.293 2.262-.097.975-.274 1.772-.393 1.772-.118 0-.216.503-.216 1.117s-.102 1.307-.227 1.541c-.125.234-.302 1.3-.393 2.368-.09 1.068-.263 1.979-.383 2.024-.121.045-.219.616-.219 1.269 0 .654-.098 1.249-.218 1.323-.121.074-.297 1.127-.393 2.339-.096 1.212-.273 2.264-.393 2.339-.12.074-.219.562-.219 1.084s-.094 1.007-.209 1.078c-.115.072-.275.711-.356 1.421-.08.71-.209 1.566-.286 1.902-.077.336-.208 1.302-.291 2.147-.084.845-.246 1.594-.361 1.665-.114.071-.208.617-.208 1.214 0 .598-.088 1.086-.196 1.086-.107 0-.204.248-.216.55-.06 1.592-.42 4.128-.602 4.24-.115.071-.208.563-.208 1.093s-.083.963-.184.963c-.101 0-.195.248-.21.55-.079 1.617-.433 4.096-.586 4.096-.096 0-.123.275-.058.611.097.509.256.611.944.611.455 0 .827.11.827.245 0 .134.282.244.626.244.344 0 .567-.095.495-.211-.072-.116.542-.272 1.364-.347.823-.074 1.563-.234 1.645-.355.082-.12.671-.575 1.31-1.01.639-.434 1.161-.906 1.161-1.048 0-.143.276-.475.612-.74.336-.264.611-.693.611-.952s.098-.471.217-.471c.255 0 .447-.852.815-3.607.148-1.109.362-2.017.474-2.017.113 0 .205-.605.205-1.344 0-.74.11-1.345.245-1.345.134 0 .244-.532.244-1.182 0-.65.076-1.257.168-1.35.185-.184.198-.265.458-2.664.098-.908.252-1.65.342-1.65.09 0 .19-.52.223-1.156.033-.635.136-1.213.229-1.283.094-.071.187-.403.207-.74.115-1.846.424-3.912.587-3.912.102 0 .246-.577.319-1.283.332-3.194.786-5.832.972-5.645.112.113.181.095.154-.04-.132-.654.034-2.581.213-2.47.112.069.207-.007.212-.169.045-1.507.419-4.224.59-4.288.119-.045.216-.616.216-1.27 0-.653.099-1.248.219-1.322.12-.074.297-1.126.393-2.337.095-1.212.272-2.203.392-2.203.121 0 .219-.543.219-1.208 0-.664.096-1.267.212-1.339.222-.137 1.988 1.449 1.988 1.784 0 .106.275.339.612.519.336.18.611.419.611.53 0 .112.22.203.489.203s.489.1.489.221c0 .21 1.755.643 3.753.925.518.073 1.178.018 1.467-.122.539-.261 2.336-.65 2.665-.576.101.023.183-.069.183-.203 0-.135.118-.245.262-.245.339 0 .961-.622.961-.96 0-.144-.11-.262-.245-.262-.134 0-.244-.115-.244-.255 0-.141-.275-.552-.611-.915-.337-.362-.612-.788-.612-.947 0-.158-.082-.324-.183-.369-.229-.101-1.528-1.829-1.528-2.031 0-.082-.227-.392-.505-.689-.278-.297-.665-.87-.86-1.273-.195-.404-.683-1.106-1.084-1.561-.401-.456-.73-.952-.73-1.103 0-.151-.22-.412-.489-.58-.269-.168-.49-.442-.491-.609-.001-.167-.385-.785-.852-1.372-.467-.588-.779-1.183-.693-1.322.09-.146.037-.179-.126-.078-.164.101-.283.025-.283-.181 0-.195-.165-.418-.366-.495-.202-.078-.367-.357-.367-.621 0-.266-.219-.55-.489-.636-.269-.085-.489-.298-.489-.472s-.328-.69-.73-1.145c-.401-.455-.731-.917-.733-1.025-.002-.109-.114-.13-.249-.047-.134.083-.244.034-.244-.108 0-.142-.214-.259-.475-.259s-.542-.11-.625-.244c-.288-.466-2.636-.238-3.723.361"/><path fill="#9da3a3" d="M170.416 174.674c0 8.934-.086 8.456 1.51 8.456 1.355 0 1.669-.832.507-1.342l-.55-.241v-14.554h-1.467v7.681m72.127.143v7.824H244.254v-1.337c0-1.155.1-1.438.734-2.086.403-.413.733-.857.733-.987 0-.49.511-.209.795.436.162.37.435.761.606.868.171.108.311.37.311.583 0 .213.195.565.433.782.239.218.566.698.729 1.068.259.591.428.673 1.4.673 1.118 0 1.515-.455.79-.905-.173-.108-.912-1.213-1.642-2.457-.731-1.244-1.414-2.262-1.519-2.262-.464 0-.12-.942.671-1.836.475-.537 1.049-1.278 1.276-1.648.227-.37.498-.672.604-.672.105 0 .192-.165.192-.367 0-.609-1.829-.483-2.436.168-.274.295-.498.624-.498.732 0 .108-.305.499-.677.87-.373.371-.82.95-.993 1.286-.174.336-.585.809-.913 1.051l-.596.439v-10.047H242.543v7.824m71.556-7.661c-.089.089-.163 3.563-.163 7.719 0 8.538-.043 8.339 1.77 8.208 1.197-.087 1.49-.857.492-1.295l-.55-.241v-7.129c0-6.275-.046-7.146-.387-7.277-.505-.194-.959-.188-1.162.015m-244.295 1.237c-.403.238-.806.543-.895.678-.09.134-.446.573-.792.975-1.868 2.17-1.914 8.742-.077 10.888.231.269.42.598.42.731s.165.242.366.242c.202 0 .367.108.367.24s.275.309.611.393c.337.085.612.252.612.372 0 .119.99.218 2.2.218 1.304 0 2.201-.1 2.201-.245 0-.134.173-.244.386-.244.853 0 3.037-2.708 3.037-3.767 0-.333.11-.674.244-.757.136-.084.245-1.22.245-2.567 0-1.347-.109-2.483-.245-2.567-.134-.083-.244-.475-.244-.87 0-.396-.11-.719-.245-.719-.134 0-.244-.15-.244-.333 0-.182-.551-.925-1.225-1.65l-1.224-1.318-2.382-.067c-1.926-.054-2.523.016-3.116.367m190.465-.255c-2.651.716-4.673 6.66-3.514 10.329.605 1.917 2.363 4.174 3.25 4.174.213 0 .386.11.386.244 0 .145.897.245 2.201.245 1.21 0 2.2-.102 2.2-.225 0-.124.315-.295.7-.379 1.269-.279 2.068-1.553 1.396-2.226-.499-.499-.908-.434-1.66.262-.362.337-.774.612-.914.612s-.255.11-.255.244c0 .135-.612.245-1.359.245-.844 0-1.302-.093-1.209-.245.084-.134-.029-.244-.249-.244-.804 0-2.301-1.96-2.47-3.233-.086-.648-.252-1.238-.369-1.311-.277-.171-.277-2.302.001-2.302.117 0 .286-.55.375-1.223.089-.672.268-1.222.398-1.222s.236-.147.236-.327c0-.365 1.326-1.629 1.71-1.629.135 0 .246-.11.246-.245 0-.496 2.479-.28 2.944.256.597.688 2.126.93 2.341.371.206-.537-.283-1.605-.736-1.605-.193 0-.397-.137-.453-.305-.106-.319-4.218-.526-5.196-.261m48.777.706c0 .48.158 1.03.35 1.222.4.401 1.117.468 1.117.105 0-.134.163-.244.363-.244.487 0 .75-1.133.368-1.593-.678-.817-2.198-.464-2.198.51m-190.22 6.584v7.213h1.458l.072-5.441c.044-3.294.153-5.223.278-4.889.113.302.291.55.395.55.104 0 .252.249.329.555.076.305.336.779.576 1.052.405.461.743 1.057 2.486 4.383.353.672.779 1.368.947 1.545.168.178.305.481.305.673 0 .192.11.349.245.349.134 0 .244.118.244.262 0 .523.718.961 1.576.961h.877l-.065-7.152-.065-7.152h-1.467l-.066 5.25c-.063 4.958-.281 6.643-.634 4.88-.086-.43-.369-.966-.629-1.192-.259-.225-.546-.705-.637-1.067-.091-.362-.25-.658-.355-.658-.104 0-.251-.192-.327-.428-.076-.235-.446-.94-.823-1.566-1.414-2.348-2.647-4.499-2.817-4.913-.12-.294-.446-.428-1.039-.428h-.864v7.213m60.881 0v7.213h1.702l.066-5.441c.043-3.578.143-5.272.292-4.951.125.269.29.544.367.612.077.067.331.534.564 1.039.233.504.535.917.672.917s.249.156.249.347c0 .397.707 1.791 1.161 2.287.168.184.306.492.306.684 0 .192.11.349.244.349.135 0 .245.22.245.489s.108.489.239.489c.132 0 .309.275.394.611.084.337.251.612.371.612s.218.165.218.366c0 .202.092.367.205.367.113 0 .331.275.484.611.23.505.45.612 1.266.612h.986l-.064-7.152-.065-7.152-.79-.076-.79-.076-.066 5.577-.066 5.578-.572-1.162c-.314-.638-.672-1.161-.794-1.161-.123 0-.227-.137-.231-.306-.01-.364-.95-2.359-.962-2.041-.004.121-.29-.32-.635-.978-.346-.659-.786-1.32-.978-1.47-.193-.149-.351-.388-.351-.53 0-.325-.755-1.755-1.161-2.2-.168-.183-.306-.479-.306-.657 0-.395-.539-.62-1.487-.62h-.713v7.213m23.96-4.768v1.467h-.733c-.652 0-.734.082-.734.734s.082.733.734.733h.733v3.793c0 5.107.352 5.743 3.179 5.743h1.711v-.734c0-.713-.033-.733-1.169-.733-1.777 0-2.009-.547-2.009-4.733v-3.311l1.406-.074c1.331-.069 1.41-.109 1.483-.745.077-.669.068-.673-1.406-.673h-1.483v-2.934h-1.712v1.467m-129.828-.978c0 .135.144.245.32.245.326 0 .946.522 1.667 1.405.219.267.516 1.079.659 1.802.144.724.337 1.626.429 2.006.092.379.05.93-.093 1.222-.143.293-.326 1.037-.407 1.653-.147 1.111-1.645 3.159-2.312 3.159-.145 0-.263.11-.263.244 0 1.492-4.223-.759-4.557-2.429-.083-.412-.246-.749-.364-.749s-.214-.324-.214-.719c0-.396-.11-.788-.244-.871-.135-.083-.245-.578-.245-1.1 0-.522.11-1.017.245-1.1.134-.083.244-.458.244-.833 0-1.313 1.642-3.69 2.549-3.69.212 0 .385-.11.385-.245 0-.134.495-.244 1.1-.244.606 0 1.101.11 1.101.244m10.032 2.335c-.387.212-.979.279-1.65.187l-1.047-.143V187.286H82.885v-2.323c0-2.247.3-2.976.856-2.078.083.135.915.245 1.848.245.968 0 1.697-.105 1.697-.245 0-.134.165-.244.367-.244.494 0 2.078-1.706 2.078-2.237 0-.233.11-.492.245-.575.137-.085.244-1.253.244-2.667 0-3.029-.282-3.746-2.056-5.218-.49-.407-3.512-.355-4.293.073m10.995-.134c0 .134-.196.244-.435.244-2.646 0-3.426 6.984-1.086 9.719.374.437.869.795 1.1.795.231 0 .421.11.421.244 0 .145.896.245 2.2.245 1.304 0 2.201-.1 2.201-.245 0-.134.275-.244.611-.244.536 0 .611-.106.611-.864 0-1.089-.486-1.302-1.435-.626-.761.541-3.21.745-3.21.267 0-.134-.109-.244-.242-.244-.43 0-1.225-.83-1.225-1.277 0-.239-.11-.435-.245-.435-.134 0-.244-.253-.244-.562 0-.31-.132-.695-.294-.856-.228-.228.56-.293 3.545-.293h3.839v-1.593c0-1.511-.225-2.247-.917-3-.168-.183-.305-.489-.305-.682 0-.192-.221-.349-.489-.349-.269 0-.489-.11-.489-.244 0-.143-.815-.245-1.956-.245s-1.956.102-1.956.245m10.586.07c-.942.95-1.296 1.097-1.296.541 0-.245-.244-.367-.733-.367h-.734v10.514h1.467v-7.542l.795-.797c1.206-1.21 3.149-1.342 3.633-.246.186.418.42.761.522.761.102 0 .185 1.76.185 3.912v3.912h1.467v-4.591c0-4.808-.079-5.206-1.211-6.098-.498-.393-3.706-.391-4.095.001m28.341.042c-.827.456-1.764 1.393-1.764 1.764 0 .178-.11.324-.244.324-.135 0-.245.269-.245.597 0 .328-.11.665-.244.748-.598.369-.097 5.257.538 5.257.107 0 .195.16.195.355 0 .461 1.14 1.601 1.601 1.601.195 0 .355.11.355.244 0 .145.897.245 2.201.245s2.2-.1 2.2-.245c0-.134.207-.244.459-.244.619 0 1.063-.583.966-1.268-.106-.743-.79-.844-1.463-.216-.872.812-2.869.71-3.839-.196-.413-.385-.81-.642-.882-.57-.072.072-.131-.108-.131-.399 0-.292-.098-.53-.217-.53-.12 0-.263-.385-.318-.856l-.1-.855h7.237l-.008-1.773c-.008-2.008-.634-3.375-1.827-3.994-.821-.426-3.691-.419-4.47.011m22.031-.016c-.201.233-.632.298-1.406.21l-1.117-.125v10.577H155.012v-3.404c0-4.374.674-5.887 2.622-5.887.942 0 1.611-.522 1.489-1.162-.107-.562-2.847-.735-3.299-.209m5.178.23c-1.128.613-1.351 1.326-.622 1.987.28.253.5.328.5.17 0-.156.156-.283.347-.283.19 0 .388-.127.44-.281.31-.932 3.614-.424 3.614.556 0 .252.11.459.245.459.134 0 .244.22.244.489 0 .407-.163.489-.978.489-.538 0-.978.095-.978.212 0 .117-.519.272-1.153.343-.635.072-1.194.251-1.243.399-.049.147-.319.268-.599.268-.28 0-.445.064-.367.143.079.078-.068.353-.326.611-.842.843-.673 3.873.263 4.707.817.728 4.004.995 4.218.353.066-.198.566-.279 1.487-.241l1.388.058v-4.253c0-4.567-.252-5.838-1.219-6.144-.271-.086-.493-.259-.493-.385 0-.485-3.739-.216-4.768.343m34.108-.326c0 .134-.138.248-.306.252-.746.02-2.139 1.722-2.139 2.614 0 .306-.11.557-.244.557-.144 0-.245.848-.245 2.055 0 2.496.724 4.201 2.099 4.941.459.247.835.535.835.639 0 .104.99.189 2.201.189 1.304 0 2.2-.1 2.2-.245 0-.134.275-.244.611-.244.537 0 .611-.106.611-.864 0-1.082-.5-1.311-1.37-.627-.693.545-3.275.756-3.275.268 0-.134-.12-.244-.266-.244-.336 0-1.182-.998-1.193-1.406-.004-.168-.106-.306-.226-.306-.119 0-.262-.385-.317-.856l-.1-.855h7.236v-1.834c0-1.06-.103-1.834-.244-1.834-.134 0-.245-.179-.245-.399 0-1.133-1.644-2.046-3.684-2.046-1.13 0-1.939.102-1.939.245m31.785 0c0 .134-.185.244-.411.244-.53 0-2.034 1.639-2.034 2.217 0 .244-.11.512-.245.595-.475.294-.262 4.807.266 5.623.26.404.538.917.616 1.142.079.224.461.539.85.7.389.162.656.376.594.476-.062.101.819.204 1.959.229 1.315.029 2.072-.048 2.072-.211 0-.142.16-.257.356-.257.461 0 1.6-1.14 1.6-1.601 0-.195.11-.355.245-.355.134 0 .244-.214.244-.475s.116-.546.257-.633c.31-.191.267-4.516-.044-4.516-.117 0-.213-.22-.213-.489s-.11-.489-.244-.489c-.135 0-.245-.16-.245-.356 0-.195-.28-.635-.622-.978-.342-.342-.782-.622-.978-.622-.196 0-.356-.11-.356-.244 0-.142-.774-.245-1.833-.245-1.06 0-1.834.103-1.834.245m11.293.254c-.294.274-.535.384-.535.244s-.385-.254-.856-.254h-.856v10.514h1.677l.079-3.831c.057-2.79.161-3.859.384-3.933.168-.055.305-.217.305-.358 0-.508 1.068-1.169 1.889-1.169.866 0 1.45-.387 1.387-.917-.02-.168-.05-.416-.067-.55-.061-.49-2.83-.284-3.407.254m33.206-.254c0 .134-.163.244-.361.244-2.523 0-3.522 6.781-1.386 9.413 1.115 1.374 5.414 2.442 5.414 1.345 0-.134.181-.244.402-.244.584 0 1.789-1.359 1.96-2.211.08-.404.242-.793.359-.865.279-.172.278-4.504-.001-4.504-.117 0-.278-.302-.356-.672-.18-.853-1.391-2.262-1.943-2.262-.232 0-.421-.11-.421-.244 0-.142-.774-.245-1.834-.245-1.059 0-1.833.103-1.833.245m11.063.409c-.639.507-.794.553-.794.233 0-.279-.219-.398-.734-.398h-.733v10.514h1.467v-7.542l.788-.789c1.461-1.46 3.857-1.152 3.857.496 0 .275.11.5.245.5.152 0 .244 1.385.244 3.667v3.668h1.467v-7.556l.893-.868c1.332-1.293 3.264-1.081 3.264.358 0 .252.11.525.244.608.145.09.245 1.633.245 3.805v3.653H294.621v-4.401c0-2.563-.095-4.401-.228-4.401-.126 0-.263-.303-.306-.673-.048-.415-.287-.764-.627-.913-.303-.133-.55-.326-.55-.428 0-.734-3.922.041-4.65.918-.259.312-.404.26-1.05-.372-1.046-1.022-3.514-1.063-4.753-.079m17.58-.29c-.337.186-.968.264-1.528.189l-.954-.128V187.286h1.467v-2.422c0-2.302.024-2.416.489-2.294.269.07.489.225.489.344 0 .118.825.216 1.834.216 1.059 0 1.833-.104 1.833-.245 0-.134.161-.244.356-.244 2.072 0 3.436-5.994 2.003-8.802-1.024-2.009-4.012-2.925-5.989-1.837m20.99-.175c0 .104-.365.386-.812.626-.886.477-1.633 1.541-1.633 2.326 0 .274-.11.566-.245.649-1.337.827.729 7.213 2.334 7.213.196 0 .356.11.356.244 0 .145.896.245 2.2.245 1.304 0 2.201-.1 2.201-.245 0-.134.275-.244.611-.244.537 0 .611-.106.611-.864 0-1.089-.486-1.302-1.435-.626-.76.541-3.21.745-3.21.267 0-.134-.12-.244-.267-.244-.326 0-1.181-.994-1.192-1.386-.004-.157-.101-.322-.214-.367-.113-.044-.275-.439-.36-.876l-.155-.794h7.322v-1.834c0-1.06-.103-1.834-.244-1.834-.135 0-.245-.165-.245-.367 0-1.108-1.735-2.078-3.718-2.078-1.048 0-1.905.085-1.905.189m10.427.411c-.454.42-.647.493-.647.244 0-.231-.255-.355-.734-.355h-.733v10.514h1.467v-3.326c0-4.457.723-5.949 2.89-5.962.643-.004 1.266-.526 1.266-1.06 0-.887-2.568-.927-3.509-.055m-189.156 4.176c0 4.48.215 5.656 1.164 6.377.471.358 3.971.475 3.971.133 0-.343 1.318-.852 1.419-.548.049.146.409.265.802.265h.713v-10.514H148.9v3.563c0 2.522-.089 3.653-.306 3.871-.168.17-.524.603-.791.961-.268.358-.625.652-.795.652-.17 0-.309.11-.309.244 0 .44-1.453.258-1.956-.244-.269-.269-.489-.764-.489-1.101 0-.336-.11-.611-.244-.611-.152 0-.245-1.385-.245-3.667v-3.668h-1.467v4.287m66.617-2.899c.095.783.274 1.528.397 1.656.123.128.223.485.223.795 0 .309.1.562.221.562s.297.66.391 1.467c.093.807.269 1.467.39 1.467.122 0 .221.308.221.685 0 .376.101.789.224.917.123.127.26.507.305.843.073.539.216.62 1.212.685 1.225.079 1.426-.162 1.434-1.724.002-.37.113-.672.248-.672.134 0 .244-.324.244-.719 0-.396.096-.779.213-.851.116-.072.288-.705.381-1.406.24-1.806 1.118-2.34 1.118-.68 0 .381.1.754.222.83.121.075.297.687.389 1.359.093.672.268 1.283.39 1.359.122.075.221.515.221.978 0 .462.11.841.245.841.134 0 .244.165.244.367 0 .276.298.367 1.211.367h1.21l.166-1.467c.091-.807.262-1.467.379-1.467.117 0 .213-.324.213-.719 0-.396.102-.783.227-.86.125-.077.303-.744.395-1.481.092-.738.265-1.341.384-1.341s.216-.385.216-.856.11-.856.245-.856c.134 0 .244-.33.244-.733 0-.671-.07-.734-.829-.734-.877 0-1.127.303-1.127 1.365 0 .325-.11.591-.244.591-.135 0-.245.385-.245.856s-.11.856-.244.856c-.135 0-.248.302-.253.672-.01.86-.841 3.286-1.053 3.074-.089-.088-.161-.466-.161-.839 0-.373-.107-.744-.238-.825-.13-.08-.31-.695-.398-1.364-.089-.67-.258-1.277-.374-1.35-.117-.072-.213-.448-.213-.835 0-.388-.11-.773-.244-.856-.135-.083-.245-.42-.245-.748 0-.553-.089-.597-1.222-.597-.672 0-1.204.083-1.18.184.106.461-.367 2.995-.56 2.995-.119 0-.216.323-.216.719 0 .395-.097.779-.216.852-.119.074-.277.438-.35.809-.074.372-.24 1.061-.37 1.532l-.237.855-.025-.78c-.013-.429-.135-.848-.269-.931-.135-.083-.245-.42-.245-.748s-.11-.597-.244-.597c-.135 0-.245-.317-.245-.705 0-.689-.593-2.964-.963-3.696-.103-.202-.546-.402-.986-.445l-.801-.079.174 1.423m100.131 3.869v5.257h1.467v-10.514h-1.467v5.257m-221.372-3.24c.684.763.712.89.707 3.152l-.005 2.357-1.005 1.005c-.987.986-3.019 1.498-3.019.76 0-.134-.129-.244-.286-.244-.944 0-1.181-.745-1.181-3.706 0-1.593.089-2.896.198-2.896.11 0 .417-.203.684-.452 1.167-1.087 2.92-1.076 3.907.024m10.841-.268c.27.289.432.619.362.733-.071.114-.012.208.131.208.142 0 .259.385.259.855v.856h-2.69c-2.542 0-2.689-.027-2.689-.497 0-2.086 3.272-3.61 4.627-2.155m39.1-.07c.29.251.527.581.527.734 0 .152.11.277.244.277.135 0 .245.385.245.855v.856h-5.624v-.611c0-.336.11-.611.245-.611.134 0 .244-.139.244-.308 0-1.383 2.924-2.228 4.119-1.192m61.098-.023c.417.361 1.036 1.885 1.041 2.562.001.101-1.264.183-2.81.183-3.221 0-3.449-.205-2.153-1.933 1.048-1.396 2.824-1.764 3.922-.812m31.634.239c2.375 2.22 1.142 7.641-1.737 7.641-.54 0-.982-.11-.982-.245 0-.134-.165-.244-.366-.244-.202 0-.367-.09-.367-.199 0-.109-.248-.464-.55-.789-.488-.523-.55-.845-.55-2.835v-2.244l.904-.879c1.187-1.152 2.554-1.229 3.648-.206m44.581-.05c.342.342.622.773.622.958 0 .184.128.377.284.429.404.135.42 3.909.017 4.044-.166.055-.301.252-.301.438 0 .72-1.411 1.822-2.335 1.822-.997 0-2.555-1.336-2.555-2.191 0-.258-.11-.538-.244-.621-.135-.083-.245-.743-.245-1.467 0-.724.11-1.384.245-1.467.134-.083.244-.353.244-.6 0-1.695 2.979-2.634 4.268-1.345m28.915.027c.307.357.558.83.558 1.051 0 .221.121.524.27.672.159.159.221.757.151 1.455-.398 3.966-2.324 5.499-4.827 3.842l-.973-.644v-2.901c0-1.596.089-2.902.198-2.902.11 0 .417-.203.684-.452 1.097-1.022 3.111-1.084 3.939-.121m20.843-.167c.371.321.597.85.681 1.589l.124 1.107h-5.442v-.611c0-.336.11-.611.244-.611.135 0 .245-.139.245-.308 0-1.405 2.925-2.227 4.148-1.166m-158.916 4.93c0 1.273-.086 1.413-1.64 2.663-.584.47-1.912.268-2.472-.376-.532-.611-.727-1.587-.317-1.587.118 0 .27-.208.337-.463.106-.405.933-.92 2.136-1.329.202-.069.725-.134 1.162-.145l.794-.019v1.256"/><path fill="#2c4c94" d="M247.922 87.531c0 .134-.275.244-.611.244-.337 0-.612.103-.612.228s-.243.305-.54.399c-.786.25-2.894 2.561-3.053 3.346-.074.37-.232.673-.349.673-.118 0-.214.323-.214.719 0 .395-.096.778-.213.85-.117.072-.29 1.124-.385 2.337-.095 1.213-.274 2.206-.399 2.206-.124 0-.226.55-.226 1.223 0 .672-.097 1.222-.215 1.222-.119 0-.294 1.045-.39 2.323-.095 1.277-.274 2.322-.396 2.322-.121 0-.221.551-.221 1.223s-.11 1.222-.245 1.222c-.134 0-.244.551-.244 1.223s-.1 1.222-.222 1.222-.3 1.046-.396 2.323c-.095 1.278-.271 2.323-.389 2.323-.119 0-.216.55-.216 1.222 0 .673-.11 1.223-.244 1.223-.135 0-.253.302-.264.672-.011.38-.078.513-.154.306-.15-.411-2.381-2.69-2.634-2.69-.089 0-.327-.165-.528-.366-.202-.202-.634-.367-.961-.367-.326 0-.594-.11-.594-.245 0-.134-.385-.244-.855-.244-.471 0-.856-.11-.856-.245 0-.134-.605-.244-1.345-.244s-1.345.11-1.345.244c0 .135-.385.245-.855.245-.471 0-.856.096-.856.213 0 .117-.428.282-.951.366-.535.085-1.017.322-1.101.54-.229.597-.176 1.326.096 1.326.134 0 .244.115.244.255 0 .24.192.516.917 1.325.168.188.306.418.306.513 0 .095.204.35.454.568.25.217.532.643.628.945.095.303.276.55.401.55.126 0 .228.118.228.262 0 .144.138.416.306.603.726.809.917 1.086.917 1.326 0 .14.085.254.189.254s.396.385.65.856c.253.471.553.856.666.856.114 0 .206.157.206.349 0 .192.275.565.612.83.336.264.611.661.611.881 0 .22.165.464.367.541.201.077.366.309.366.514 0 .205.205.551.454.768.25.218.531.638.624.933.093.296.384.606.646.689.262.083.477.367.477.631 0 .265.165.544.367.621.201.078.37.267.374.421.014.455.895 1.379 1.315 1.379.214 0 .389.11.389.245 0 .134.165.244.367.244.201 0 .366.11.366.245 0 .141.775.244 1.834.244 1.06 0 1.834-.103 1.834-.244 0-.135.221-.245.491-.245.6 0 1.954-1.246 1.954-1.799 0-.221.11-.401.244-.401.135 0 .245-.156.245-.347 0-.19.104-.383.232-.427.128-.045.309-1.1.402-2.344.093-1.243.264-2.261.379-2.261.115 0 .209-.55.209-1.223 0-.672.102-1.222.226-1.222.125 0 .304-.99.399-2.201.094-1.21.268-2.2.385-2.2.117 0 .213-.55.213-1.223 0-.672.11-1.222.244-1.222.135 0 .245-.489.245-1.086 0-.597.1-1.147.221-1.223.122-.075.301-1.182.396-2.459.096-1.277.271-2.323.39-2.323.118 0 .215-.495.215-1.1 0-.605.098-1.1.218-1.1s.297-1.1.394-2.445c.096-1.345.273-2.445.393-2.445s.218-.434.218-.964.101-1.026.225-1.102c.124-.077.303-1.239.398-2.582.095-1.343.269-2.442.386-2.442.117 0 .213-.441.213-.978 0-.538.098-.978.218-.978s.297-1.101.393-2.445c.097-1.345.274-2.445.394-2.445s.218-.496.218-1.101v-1.1h-2.445c-1.467 0-2.445.098-2.445.245m-134.23.453c0 .115-.743.275-1.65.356-1.678.149-3.24.61-3.24.956 0 .105-.275.191-.611.191-.336 0-.612.105-.612.233s-.385.306-.855.394c-.471.088-.856.258-.856.378 0 .119-.165.217-.367.217-.201 0-.367.098-.367.218s-.275.287-.611.371c-.336.085-.611.262-.611.394s-.142.24-.316.24c-.174 0-.724.385-1.223.855-.499.471-.973.856-1.053.856-.337 0-3.458 3.535-3.832 4.34-.141.302-.348.55-.461.55-.113 0-.205.165-.205.367 0 .201-.098.367-.218.367-.119 0-.289.385-.378.855-.088.471-.239.856-.336.856-.246 0-1.024 1.858-1.024 2.447 0 .268-.11.487-.245.487-.134 0-.244.376-.244.835 0 .46-.138.882-.306.938-.233.077-.306 1.46-.306 5.806 0 4.347.073 5.73.306 5.807.168.056.306.423.306.815 0 .393.095.713.213.713.117 0 .284.445.371.989.147.918.556 1.902.911 2.19.082.067.227.37.322.672.094.303.274.55.399.55.126 0 .229.22.229.489s.11.489.244.489.245.157.245.349c0 .192.275.566.611.83.336.265.611.606.611.76 0 .411 3.345 3.685 3.765 3.685.197 0 .428.22.514.488.085.269.422.556.75.638.327.082.594.247.594.367s.221.218.489.218c.269 0 .489.103.489.228 0 .126.248.306.551.4.302.094.605.239.672.322.288.355 1.272.764 2.19.911.544.087.988.254.988.371 0 .117.269.213.597.213.329 0 .665.11.748.245.083.134.585.244 1.115.244s.963.11.963.245c0 .153 1.503.244 4.02.244 2.416 0 4.08-.097 4.171-.244.083-.135.585-.245 1.115-.245s.963-.11.963-.244c0-.135.275-.245.612-.245.336 0 .611-.099.611-.221s.55-.297 1.222-.39c.673-.092 1.223-.245 1.223-.339 0-.095.495-.376 1.1-.626.605-.249 1.1-.547 1.1-.661 0-.114.165-.208.367-.208.202 0 .367-.11.367-.244 0-.135.16-.245.355-.245.196 0 .631-.275.967-.611.337-.336.688-.611.78-.611.249 0 3.765-3.559 3.77-3.816.002-.12.278-.479.614-.796.335-.318.681-.868.768-1.223.087-.354.367-.827.621-1.05.254-.223.525-.801.604-1.284.078-.483.211-.878.295-.878.084 0 .297-.357.473-.794.176-.437.422-.984.546-1.216.125-.231.298-1.194.386-2.139.088-.945.254-1.719.369-1.719.116 0 .21-1.65.21-3.667s-.095-3.668-.21-3.668c-.116 0-.273-.601-.349-1.337-.151-1.467-.65-3.064-.957-3.064-.108 0-.196-.268-.196-.596 0-.329-.101-.66-.225-.737-.125-.076-.298-.468-.387-.87-.088-.402-.261-.731-.385-.731s-.225-.22-.225-.488c0-.269-.098-.489-.218-.489s-.287-.276-.372-.612c-.084-.336-.261-.611-.393-.611s-.24-.125-.24-.277c0-.152-.363-.62-.806-1.039-.444-.419-1.009-1.105-1.256-1.524-.247-.419-.792-.961-1.21-1.205-.419-.244-.985-.699-1.259-1.011-.273-.312-.678-.567-.9-.567-.222 0-.474-.221-.559-.489-.086-.271-.37-.489-.635-.489-.264 0-.544-.165-.621-.367-.078-.202-.349-.367-.604-.367-.254 0-.463-.105-.463-.233 0-.129-.385-.306-.855-.394-.471-.089-.856-.259-.856-.378 0-.12-.275-.217-.611-.217-.337 0-.612-.11-.612-.245 0-.134-.266-.244-.59-.244-.325 0-.629-.115-.676-.254-.047-.14-.881-.321-1.854-.403-.973-.081-1.77-.242-1.77-.357 0-.115-1.485-.209-3.3-.209-1.816 0-3.301.094-3.301.209m43.521.036c0 .134-.197.244-.438.244-.94 0-2.25 1.865-2.414 3.437-.084.799-.246 1.453-.362 1.453-.115 0-.209.434-.209.964s-.098 1.024-.218 1.098c-.12.074-.297 1.236-.393 2.582-.097 1.345-.274 2.446-.394 2.446s-.218.441-.218.978c0 .538-.098.978-.218.978s-.297 1.101-.393 2.445c-.096 1.345-.273 2.445-.393 2.445s-.218.496-.218 1.101-.098 1.1-.218 1.1-.297 1.1-.394 2.445c-.096 1.345-.273 2.445-.393 2.445s-.218.495-.218 1.1c0 .605-.11 1.1-.244 1.1-.135 0-.245.551-.245 1.223s-.096 1.222-.213 1.222c-.117 0-.29.991-.385 2.201-.094 1.21-.274 2.2-.398 2.2s-.226.544-.226 1.208c0 .665-.096 1.268-.213 1.34-.117.072-.29 1.124-.385 2.337-.095 1.213-.274 2.206-.399 2.206-.124 0-.226.55-.226 1.222 0 .673-.11 1.223-.244 1.223-.135 0-.245.562-.245 1.249v1.249l2.854-.091c1.982-.063 2.884-.183 2.954-.393.056-.167.257-.303.447-.303.191 0 .347-.11.347-.244 0-.135.142-.245.316-.245.419 0 2.129-1.625 2.129-2.023 0-.173.217-.47.482-.661.342-.247.529-.761.643-1.766.088-.78.256-1.418.373-1.418.117 0 .213-.44.213-.978s.098-.978.218-.978.297-1.1.393-2.445c.097-1.344.274-2.445.394-2.445s.218-.495.218-1.1c0-.605.11-1.1.244-1.1.135 0 .245-.55.245-1.223 0-.672.096-1.222.213-1.222.117 0 .29-.989.385-2.197.094-1.209.273-2.261.398-2.337.124-.077.226-.684.226-1.348 0-.665.096-1.209.213-1.209.117 0 .291-.99.385-2.2.095-1.21.274-2.201.399-2.201.124 0 .226-.275.226-.611 0-.336.11-.611.244-.611.135 0 .245.16.245.356 0 .386 1.109 1.6 1.461 1.6.12 0 .287.22.372.488.086.269.423.556.75.638.327.082.595.248.595.367 0 .12.266.218.591.218.325 0 .635.132.688.293.262.783 7.034.209 7.034-.597 0-.101.275-.185.611-.185.517 0 .612-.114.612-.733 0-.403-.103-.734-.228-.734-.126 0-.307-.247-.402-.55-.096-.302-.362-.715-.593-.917-.23-.201-.497-.614-.593-.916-.095-.303-.276-.551-.401-.551-.126 0-.228-.117-.228-.261 0-.145-.138-.416-.306-.603-.676-.754-.917-1.079-.917-1.236 0-.091-.204-.343-.454-.56-.25-.218-.532-.643-.628-.946-.095-.302-.276-.55-.401-.55-.126 0-.228-.118-.228-.262 0-.144-.138-.415-.306-.603-.726-.809-.917-1.085-.917-1.325 0-.14-.085-.255-.189-.255s-.396-.385-.649-.856c-.254-.47-.554-.855-.667-.855-.114 0-.206-.139-.206-.309 0-.169-.275-.604-.612-.967-.336-.362-.611-.774-.611-.914 0-.141-.102-.255-.228-.255-.125 0-.306-.248-.402-.551-.095-.302-.378-.728-.627-.945-.25-.218-.454-.515-.454-.66 0-.366-1.546-1.512-2.041-1.512-.222 0-.404-.11-.404-.244 0-.143-.815-.245-1.956-.245s-1.956.102-1.956.245m122.005-.036c0 .115-.743.277-1.651.36-.907.084-2.09.323-2.628.534-.538.21-1.171.445-1.406.524-.235.078-.428.234-.428.346 0 .113-.385.278-.856.366-.47.088-.855.258-.855.378 0 .119-.165.217-.367.217-.202 0-.367.11-.367.245 0 .134-.223.244-.497.244-.273 0-.56.165-.637.367-.077.202-.268.367-.423.367-.155 0-.578.275-.941.611-.362.336-.736.611-.829.611-.147 0-1.14 1.015-3.61 3.692-.322.349-.661.872-.753 1.161-.092.289-.269.526-.395.526-.125 0-.228.118-.228.262 0 .144-.165.427-.367.629-.201.201-.366.579-.366.838s-.11.471-.245.471c-.134 0-.244.153-.244.339 0 .187-.165.654-.366 1.039-.2.386-.365.948-.366 1.251-.001.302-.112.55-.246.55-.135 0-.245.253-.245.562 0 .31-.137.7-.305.868-.228.228-.306 1.776-.306 6.027s.078 5.8.306 6.027c.168.168.305.614.305.99 0 .377.098.685.217.685.12 0 .293.399.384.886.157.835.565 1.776.89 2.048.08.067.213.399.296.738.083.339.347.84.588 1.114.486.553.965 1.263 1.219 1.807.248.534 4.421 4.654 4.713 4.654.138 0 .251.102.251.228 0 .125.239.304.531.397.292.092.76.382 1.039.644.279.262.81.537 1.18.612.37.075.673.232.673.35 0 .118.165.214.366.214.202 0 .367.097.367.217 0 .119.495.291 1.1.381.606.091 1.101.269 1.101.395s.323.229.719.229c.395 0 .787.11.87.245.083.134.585.244 1.115.244s.963.11.963.245c0 .153 1.503.244 4.02.244 2.416 0 4.08-.097 4.171-.244.083-.135.585-.245 1.114-.245.53 0 .964-.11.964-.244 0-.135.275-.245.611-.245.336 0 .612-.099.612-.221s.55-.297 1.222-.39c.672-.092 1.223-.268 1.223-.39 0-.121.165-.221.366-.221.202 0 .367-.11.367-.245 0-.134.212-.244.472-.244.259 0 .636-.165.838-.367.202-.202.484-.367.629-.367.144 0 .262-.11.262-.244 0-.135.16-.245.355-.245.196 0 .631-.275.967-.611.336-.336.686-.611.776-.611.229 0 3.28-3.072 3.28-3.302 0-.103.276-.442.612-.754.336-.311.611-.725.611-.919 0-.193.165-.415.367-.493.201-.077.366-.364.366-.637s.111-.497.245-.497.244-.165.244-.366c0-.202.098-.367.218-.367.119 0 .289-.385.378-.856.088-.471.252-.856.365-.856.113 0 .269-.192.347-.427.078-.236.309-.868.514-1.406.64-1.685.519-2.568-.355-2.568-.403 0-.733-.11-.733-.244 0-.135-.324-.245-.719-.245-.396 0-.778-.095-.85-.212-.073-.117-.904-.288-1.849-.382-.944-.093-1.716-.272-1.716-.398 0-.127-.469-.23-1.042-.23-1.198 0-1.546.377-1.797 1.945-.087.544-.254.989-.371.989-.118 0-.213.165-.213.367 0 .201-.103.366-.228.366-.126 0-.304.239-.397.53-.092.291-.429.791-.75 1.111-.32.32-.581.702-.581.848 0 .329-.955 1.179-1.325 1.179-.149 0-.477.275-.73.611-.252.336-.588.611-.745.611-.158 0-.518.216-.801.479-.283.264-.799.551-1.146.638-.348.087-.632.257-.632.377s-.266.218-.591.218c-.325 0-.637.137-.693.305-.076.228-1.118.306-4.095.306-2.978 0-4.02-.078-4.096-.306-.056-.168-.361-.305-.678-.305-.317 0-.639-.102-.716-.226-.077-.124-.468-.298-.87-.386-.402-.088-.731-.262-.731-.386 0-.123-.139-.225-.308-.225-.169 0-.605-.275-.967-.611-.363-.336-.727-.611-.81-.611-.327 0-2.071-1.75-2.071-2.079 0-.078-.275-.44-.612-.802-.336-.363-.611-.798-.611-.967 0-.17-.101-.309-.225-.309s-.297-.328-.385-.73c-.089-.402-.263-.794-.387-.87-.124-.077-.225-.399-.225-.716 0-.317-.138-.623-.306-.679-.228-.076-.306-1.118-.306-4.095 0-2.978.078-4.02.306-4.095.168-.056.306-.368.306-.693 0-.325.101-.591.225-.591s.297-.33.386-.734c.089-.403.244-.733.345-.733.101 0 .338-.303.526-.672.63-1.235 3.946-4.335 5.179-4.842.639-.262 1.161-.559 1.162-.66 0-.1.166-.183.367-.183.202 0 .367-.105.367-.232 0-.128.66-.307 1.467-.399.807-.091 1.467-.261 1.467-.379 0-.117.88-.212 1.956-.212 1.141 0 1.956.101 1.956.244 0 .134.22.245.489.245.326 0 .489-.163.489-.489 0-.269.11-.489.245-.489.134 0 .244-.551.244-1.223s.11-1.222.245-1.222c.134 0 .244-.541.244-1.203 0-.661.094-1.238.21-1.283.627-.244.558-3.138-.076-3.138-.342 0-.623-.11-.623-.244 0-.151-1.263-.245-3.301-.245-1.815 0-3.3.094-3.3.209m-160.392 9.047c0 .116.682.281 1.515.368.833.087 1.575.24 1.65.341.226.302 2.674 1.527 3.052 1.527.193 0 .422.22.507.489.085.268.245.488.355.488.259 0 2.212 1.954 2.212 2.213 0 .11.22.269.489.355.269.085.489.323.489.529 0 .335.669 1.729.978 2.038.26.259.978 2.664.978 3.272 0 .352.11.64.245.64.144 0 .244.856.244 2.078 0 1.223-.1 2.078-.244 2.078-.135 0-.245.373-.245.828 0 .456-.164 1.143-.365 1.528-.201.386-.366.948-.367 1.251 0 .302-.111.55-.246.55-.134 0-.244.165-.244.367 0 .201-.103.366-.228.366-.126 0-.304.239-.396.53-.093.291-.43.791-.75 1.111-.32.32-.582.702-.582.848 0 .329-.955 1.179-1.324 1.179-.149 0-.478.275-.731.611-.252.336-.588.611-.745.611-.158 0-.518.216-.801.479-.283.264-.798.551-1.146.638-.348.087-.632.257-.632.377s-.266.218-.591.218c-.325 0-.637.137-.693.305-.076.228-1.118.306-4.095.306-2.977 0-4.019-.078-4.095-.306-.056-.168-.362-.305-.679-.305-.317 0-.639-.102-.716-.226-.076-.124-.468-.298-.87-.386-.402-.088-.731-.262-.731-.386 0-.123-.114-.225-.254-.225-.24 0-.517-.191-1.326-.916-.187-.169-.408-.306-.491-.306-.334 0-2.085-1.74-2.085-2.071 0-.144-.253-.48-.917-1.221-.168-.187-.306-.459-.306-.603 0-.144-.105-.262-.233-.262s-.306-.385-.394-.855c-.088-.471-.258-.856-.378-.856-.119 0-.217-.266-.217-.591 0-.325-.138-.637-.306-.693-.385-.128-.442-7.927-.06-8.199.28-.2.752-1.139.978-1.947.085-.303.257-.551.382-.551.126 0 .228-.165.228-.366 0-.202.111-.367.245-.367s.244-.181.244-.403c0-.672 3.668-4.093 4.956-4.623.635-.261 1.156-.558 1.156-.659.001-.1.166-.183.368-.183.201 0 .366-.105.366-.232 0-.128.661-.307 1.467-.399.807-.091 1.467-.261 1.467-.379 0-.117.881-.212 1.956-.212 1.076 0 1.956.094 1.956.209m168.633 75.578c.227.265.461.432.521.372.146-.145-.453-.854-.721-.854-.117 0-.027.217.2.482"/></g></svg>