<svg version="1.2" xmlns="http://www.w3.org/2000/svg" viewBox="0 0 418 417" width="418" height="417">
	<title>Openchip_1200</title>
	<style>
		.s0 { opacity: 1;fill: #56368c } 
		.s1 { opacity: 1;fill: #d1cbd6 } 
		.s2 { opacity: 1;fill: #7e6790 } 
		.s3 { opacity: 1;fill: #a597bf } 
		.s4 { opacity: .2;fill: #f8f9f9 } 
		.s5 { opacity: 1;fill: #a498a7 } 
		.s6 { opacity: 1;fill: #a196a5 } 
		.s7 { opacity: .5;fill: #dfdce2 } 
		.s8 { opacity: 1;fill: #a79dab } 
		.s9 { opacity: 1;fill: #af9dcb } 
	</style>
	<g id="Background">
		<path id="Path 0" fill-rule="evenodd" class="s0" d="m84.2 156c1 0 2.3 0.9 2.8 2 0.7 1.5 0.6 2.5-0.5 3.8-1 1.2-1.5 4.2-1.5 19.2h3c2.9 0 3-0.2 3-4.5 0-2.5-0.5-5.3-1.1-6.2-0.7-1-0.9-2.6-0.5-3.5 0.3-1 1.3-2 2.1-2.3 0.8-0.3 2.2 0.1 3 0.8 0.9 0.6 1.6 2.2 1.5 3.5 0 1.2-0.5 2.2-1 2.2-0.5 0-1 2.3-1 5 0 4.5 0.2 5 2.2 5 1.3 0 3.1 0.8 4.1 1.8 1.5 1.5 1.8 3.6 1.8 16.7 0 13.1-0.3 15.2-1.8 16.6-1 1-2.7 1.9-3.8 2.1-1.3 0.2-2.1 1.2-2.3 2.8-0.2 1.4 0.2 2.9 0.8 3.5 0.6 0.6 1 2.2 1 3.8 0 1.9-0.6 2.9-2 3.2-1.1 0.3-2.7-0.1-3.5-0.8-0.9-0.6-1.6-2-1.5-3 0-0.9 0.4-1.9 1-2.2 0.5-0.3 1-2.1 1-4 0-3.2-0.2-3.5-5.5-3l-0.3 8.8c-0.1 5.3 0.2 8.7 0.8 8.7 0.5 0 1.2 0.8 1.4 1.8 0.2 0.9 0 2.5-0.5 3.5-0.5 0.9-2 1.7-3.4 1.7-1.9 0-2.6-0.6-3.1-2.8q-0.6-2.7 1-4.2c1.3-1.2 1.6-3.3 1.1-17.5h-3c-2.7 0-3 0.3-3.3 3.5-0.2 2.1 0.4 4.8 1.5 6.7 1.6 2.8 1.6 3.3 0.3 4.8-0.8 0.9-2.2 1.6-3 1.6-0.8-0.1-2.1-0.6-2.8-1.3-0.7-0.7-1.2-2-1.3-2.8 0-0.8 0.7-2.2 1.6-3 1.1-1 1.6-2.8 1.3-5.5-0.3-3.5-0.6-4-3.1-4.3-1.5-0.1-3.4-1.2-4.2-2.5-0.8-1.2-1.5-3-1.5-4 0-1.2-0.8-1.7-3-1.7-1.7 0-3.2 0.4-3.5 1-0.3 0.6-1.6 1-3 1-1.7 0-2.7-0.7-3.1-2.3-0.4-1.2-0.4-2.8 0-3.5 0.3-0.6 1.7-1.2 3.1-1.2 1.4 0 2.7 0.4 3 1 0.3 0.6 1.8 1 3.5 1 2.7 0 3-0.3 3-6h-8.5c-4.7 0-8.7 0.4-9 1-0.3 0.6-1.6 1-3 1-1.4 0-2.9-0.8-3.4-1.8-0.6-1-0.6-2.4 0-3.5 0.5-0.9 2-1.7 3.4-1.7 1.4 0 2.7 0.4 3 1 0.3 0.6 4.3 1 17.5 1v-3c0-2.9-0.2-3-4.3-3-2.4 0-4.7 0.5-5.3 1.1-0.5 0.5-2 0.9-3.4 0.7-2-0.2-2.5-0.8-2.5-3.3 0-2.5 0.5-3.1 2.5-3.3 1.4-0.2 2.9 0.2 3.5 0.8 0.5 0.6 2.8 1 5 1 3.6 0 4.1-0.3 5-3.2 0.8-2.5 1.8-3.6 4.5-4.4 2.5-0.8 3.6-1.8 3.8-3.5 0.1-1.3-0.4-3.1-1.3-3.9-0.9-0.8-1.5-2.4-1.3-3.5 0.2-1.5 1.2-2.1 3.6-2.3 2.6-0.2 3.3 0.2 3.8 2 0.3 1.4-0.1 2.9-1 3.8-0.9 0.8-1.6 2.7-1.6 4.3 0 2.4 0.3 2.7 6.5 2.2l0.3-8c0.3-6.4 0-8.3-1.3-9.5-0.9-0.8-1.7-2.2-1.7-3.1-0.1-0.8 0.4-2 1.2-2.7 0.8-0.7 2.2-1.2 3.2-1.2zm-7.7 42c-0.3 1.1 0 3 0.7 4.3 0.6 1.2 1.8 2.7 2.7 3.4 0.9 0.7 2.6 1.3 3.9 1.3 1.3 0 3.4-1.1 4.7-2.5 1.4-1.4 2.5-3.6 2.5-5 0-1.4-1.1-3.6-2.5-5-1.4-1.4-3.3-2.5-4.3-2.5-1.1 0-3.1 0.9-4.5 2-1.5 1.1-2.9 2.9-3.2 4z"/>
		<path id="Path 1" class="s1" d="m94.4 172.3c-0.3 0.6-0.4 2.8-0.2 4.7 0.3 3.2 0.4 3.1 0.8-1.2 0.3-2.7 0.4-4.8 0.2-4.8-0.1 0-0.5 0.6-0.8 1.2zm-33.7 20.5c2.4 0.3 3.2 1 3.5 2.9 0.3 2.1 0.3 2.1 0.3-0.3 0-2.5-0.4-2.8-3.5-2.9-3.3-0.1-3.3-0.1-0.3 0.3zm-13.1 9c-0.2 0.5 3.4 0.7 8 0.5 7.8-0.2 8.4-0.1 8.4 1.8 0 1.2-0.8 2.2-2 2.5-1.6 0.4-1.6 0.4 0.2 0.2 1.7-0.1 2.4-0.9 2.5-3l0.3-2.7c-13.1 0-17.1 0.3-17.4 0.7zm46.4 19.8c0 1.4 0.3 2.7 0.7 2.9 0.5 0.2 0.7-0.9 0.5-2.5-0.2-1.6-0.5-2.9-0.7-2.9-0.3 0-0.5 1.1-0.5 2.5z"/>
		<path id="Path 2" fill-rule="evenodd" class="s2" d="m82.7 167.5c0.2 2.2 0.2 6 0 8.5-0.2 2.5-0.4 0.7-0.4-4 0-4.7 0.2-6.7 0.4-4.5zm-9.5 7.5c0.3 0.4 0.6 1.8 0.4 3.1-0.1 1.9-0.3 1.7-0.6-0.8-0.3-1.7-0.2-2.8 0.2-2.3zm29.5 17c0.2 3.6 0.2 9.9 0 14-0.1 4.1-0.3 1.2-0.3-6.5 0-7.7 0.1-11.1 0.3-7.5zm-30.7 26.3c1 0.2 1.5 1.8 1.7 9.2l-0.4-4c-0.3-2.2-1-4.4-1.6-4.8q-1.2-0.9 0.3-0.4zm8 0.1c2.5 0.1 2.5 0.2 2.5 16.6l-0.3-8c-0.2-7.4-0.4-8-2.5-8.3-1.8-0.3-1.7-0.4 0.3-0.3z"/>
		<path id="Path 3" class="s3" d="m85.4 172l0.1 8.5c5.1 0 5.1 0 3-0.3-2.4-0.2-2.5-0.5-2.8-8.4l-0.3-8.3zm-8.4 2.3c-0.6 0.6-1 2.3-0.9 3.7 0.3 2 0.9 2.5 3.1 2.5 2.3 0 2.4 0 0.2-0.2-1.8-0.2-2.5-0.9-2.5-2.5 0-1.3 0.5-2.9 1.2-3.5 0.7-0.7 1-1.3 0.6-1.3-0.3 0-1.1 0.6-1.7 1.3zm-0.8 48.7c0 2.5 0.2 3.4 0.4 2 0.3-1.4 0.3-3.4 0-4.5-0.2-1.1-0.4 0-0.4 2.5zm9.1 4c0 4.7 0.2 6.5 0.4 4 0.2-2.5 0.2-6.3 0-8.5-0.2-2.2-0.4-0.2-0.4 4.5z"/>
		<path id="Path 4" class="s4" d="m176.3 134.9c-1.3 0.5-3.4 2.3-4.8 4-1.4 1.7-2.5 3.9-2.5 4.8 0.1 1.1 0.7 0.6 1.7-1.4 0.9-1.8 3-4.2 4.7-5.3 1.7-1.1 4.3-2 5.8-2 1.6 0 4.1 0.7 5.8 1.5 1.6 0.8 3.7 2.5 4.5 3.7 0.8 1.3 1.5 4.3 1.5 6.8 0 2.5-0.7 5.5-1.5 6.7-0.8 1.3-2.9 3-4.5 3.8-1.7 0.8-4.2 1.5-5.8 1.5-1.5 0-4.3-1-6.2-2.3-2.1-1.3-4-3.7-4.7-5.7-0.9-2.7-1.2-3-1.2-1.3-0.1 1.3 1.4 4 3.3 6 3.2 3.5 3.8 3.8 9.1 3.8 5.3 0 5.9-0.3 9.1-3.8 2.9-3.2 3.4-4.4 3.4-8.7 0-4.2-0.5-5.5-3.3-8.6-2.6-2.9-4.1-3.6-7.7-4-2.5-0.2-5.5 0-6.7 0.5zm208.2 104.9c1.6 1 3.5 3 4.2 4.3 0.6 1.3 1.4 3.1 1.6 3.9 0.4 0.9 0.6 0.6 0.6-0.8 0.1-1.2-1.4-3.7-3.1-5.7-1.8-1.9-4-3.4-4.8-3.5-0.8 0-0.1 0.8 1.5 1.8zm4.7 16.2c-0.7 1.6-2.7 3.9-4.4 5-1.8 1.1-2.7 2-1.9 2 0.7 0 2.8-1.6 4.7-3.5 1.9-1.9 3.4-4.2 3.4-5 0-0.8-0.1-1.5-0.3-1.5-0.2 0-0.9 1.3-1.5 3z"/>
		<path id="Path 5" fill-rule="evenodd" class="s0" d="m134.3 180.4c2.6 0.3 5.9 1.4 7.4 2.4 1.6 1.1 3.8 3.9 5 6.3q2.3 4.4 2.3 9.9c0 3.8-0.7 6.9-2.2 10-1.3 2.5-3.9 5.5-5.8 6.8-2.9 1.9-4.5 2.3-9.1 2-3.9-0.2-6.3-0.9-10-4.3l0.1 19.5h-11v-52h5c3.8 0 5 0.4 5 1.5 0 0.8 0.1 1.5 0.2 1.5 0.2 0 2.1-0.9 4.3-2.1 3.1-1.6 5.1-1.9 8.7-1.5zm-11.8 15.8c-0.3 1.3-0.3 3.6 0.1 5.3 0.3 1.6 1.4 3.8 2.3 4.8 1 1 3.1 1.8 5.2 1.8 2.1 0 4.2-0.8 5.2-1.8 0.9-1 2-3.2 2.3-4.8 0.4-1.7 0.4-4 0.1-5.3-0.3-1.2-1.6-3.1-2.9-4.2-1.2-1.1-3.4-2-5-2-1.5 0-3.6 0.9-4.7 2-1.1 1.1-2.3 3-2.6 4.2zm52.6-15.7c3.8 0.4 6.5 1.3 8.7 3 1.8 1.4 3.8 3.5 4.5 4.7 0.6 1.3 1.5 4.1 1.9 6.3 0.4 2.2 0.5 4.6 0.3 5.2-0.3 1-3.6 1.3-12.2 1.3-6.5 0-12.2 0.3-12.5 0.7-0.4 0.5-0.2 1.6 0.3 2.5 0.6 1 2.3 2.5 4 3.3 1.6 0.8 4.1 1.5 5.5 1.5 1.4 0 3.8-0.7 5.5-1.5 2.9-1.5 3-1.4 5.7 2.1 2.4 3 2.6 3.7 1.3 4.5-0.8 0.6-3 1.7-4.8 2.5-1.7 0.8-6 1.4-9.5 1.4-5.1 0-7-0.5-10.7-2.8-2.8-1.7-5.2-4.3-6.4-6.7-1.2-2.5-1.9-6.1-1.9-9.5 0-3.1 0.7-6.8 1.5-8.5 0.9-1.7 2.9-4.2 4.5-5.7 1.5-1.6 4.1-3.2 5.8-3.8 1.6-0.5 5.5-0.7 8.5-0.5zm-9 13.9c0.3 0.3 3.6 0.5 7.5 0.4l7-0.3c-3.5-3.5-5.7-4.5-7.4-4.5-1.6 0-3.9 0.9-5.2 1.9-1.3 1.1-2.2 2.2-1.9 2.5zm55.2-14.2c3.2 0.2 5.4 1 7.2 2.8 1.5 1.4 3.1 4.1 3.6 6 0.6 1.9 1 9.2 1 29h-11v-12.5c0-11.2-0.2-12.7-2-14.5-1.1-1.1-2.8-2-3.8-2-0.9-0.1-2.9 0.8-4.5 2-2.7 2-2.7 2-2.7 27h-11v-37h5c4.2 0 5.1 0.3 5.5 2 0.5 1.9 0.6 1.9 4.2-0.6 3.1-2.1 4.7-2.5 8.5-2.2z"/>
		<path id="Path 6" fill-rule="evenodd" class="s5" d="m281 162h5v11.8c0.1 10.7 0.2 11.5 1.6 9.7 0.8-1.1 2.7-2.8 4.2-3.7 1.7-1.1 4.7-1.8 8.2-1.8 4-0.1 6.2 0.5 8.3 2 1.5 1.1 2.5 2.4 2.2 3-0.3 0.6 0 1 0.6 1 0.6 0 0.3 0.7-0.5 1.5-0.9 0.8-1.6 3-1.7 4.8 0 3.2 0 3.1-1.7-1.3-1.4-3.6-2.5-4.7-5.2-5.7q-3.5-1.2-7-0.3c-1.9 0.5-4.6 2.1-6 3.5-2.4 2.6-2.5 3.2-3 31.5h-5zm46 0.3c1.9 0.2 2.6 0.8 2.7 3 0.2 1.5-0.1 2.5-0.7 2.2-0.6-0.3-1.8-0.1-2.8 0.5-1.1 0.6-2.1 0.5-3-0.3-0.7-0.7-1.3-1.9-1.4-2.9-0.1-0.9 0.5-1.9 1.3-2.2 0.7-0.2 2.5-0.4 3.9-0.3zm35.3 15.7c1.8 0.3 4.8 1.6 6.7 2.7 1.9 1.2 4.6 4.1 5.9 6.5 1.9 3.3 2.5 5.8 2.5 10.8 0 5.1-0.5 7.4-2.4 10.8-1.4 2.3-3.7 5.1-5.2 6.2-1.6 1.1-4.9 2.4-7.5 2.9-2.8 0.5-6.2 0.5-8 0-1.8-0.5-4.7-2-6.3-3.4-1.6-1.4-3.2-2.5-3.5-2.5-0.3 0-0.5 2.1-0.5 4.7 0 2.7-0.3 7.8-0.8 11.6-0.6 5.5-1 6.7-2.4 6.7-1.6 0-1.8-1.1-1.8-9 0-7.5 0.3-9.5 2-11.8 1.6-2.1 2.1-4.3 2.2-17.7l1.4 5c0.7 2.7 2.6 6.3 4.1 7.8 2.1 2.1 4.1 3 7.8 3.4 3.7 0.4 5.8 0.1 8-1.1 1.6-0.9 3.9-2.9 5-4.4 1.5-2.1 2-4.3 2-9.2 0-4.9-0.5-7.1-2-9.2-1.1-1.4-2.9-3.2-4-3.9-1.1-0.7-4-1.6-6.5-1.9-2.5-0.3-4.9-0.3-5.5 0.2-0.6 0.4-2.5 1.9-4.2 3.3-1.8 1.4-3.7 4-4.2 5.7-0.7 3-0.9 2.7-1.2-3-0.3-4.7-0.1-6.1 0.9-5.7 0.6 0.3 1.8-0.2 2.5-1.1 0.6-0.9 2.1-2.1 3.2-2.7 1.1-0.6 3.5-1.3 5.3-1.7 1.9-0.3 4.8-0.3 6.5 0zm-103 0c5.4 0 5.7 0.1 5.7 2.5 0 2.3-0.3 2.5-4 2.2-2.8-0.1-3.9-0.6-3.5-1.5 0.3-0.6 0.1-1.2-0.5-1.2-0.6 0-1.2 0.8-1.4 1.7-0.2 1-1.8 2.7-3.7 3.8-1.9 1.1-3.1 1.4-2.6 0.7 0.4-0.7 0.1-1.4-0.8-1.7-1-0.3-1.2-1.1-0.7-2.1 0.4-0.9 1.8-2.3 3.2-3 1.4-0.7 5.1-1.3 8.3-1.4zm84.6 0c0.4 0 0.9 0.9 1 2 0 1.1-0.3 2-0.9 2-0.6 0-1-0.9-1-2 0-1.1 0.4-2 0.9-2zm-75.9 1c0.6 0 2.4 1.2 4.1 2.7 2.9 2.6 3 3 0.4 7.2l-2.8-2.7c-1.5-1.5-2.7-3.7-2.7-5 0-1.2 0.5-2.2 1-2.2zm-18 29.5c1.1 1.1 2.6 3.3 3.3 4.8 0.6 1.5 1.8 3 2.5 3.2 0.6 0.3 1.4-0.4 1.7-1.5 0.3-1.2 1.3-2 2.5-2 1.5 0 2 0.7 2 2.5 0 2.2-0.4 2.5-4 2.5-2.2 0-5.3-0.7-7-1.5-1.6-0.8-3-2.3-3-3.3 0-0.9 0.5-2.3 1.2-3.1 1-1.1 1-1.3 0.1-0.7-0.8 0.3-1.3-0.1-1.3-1.2-0.1-1.5 0.1-1.5 2 0.3zm23.7 0.5c1.1 1.8 1 2.3-0.9 4.5-1.3 1.4-3.5 3-5 3.5-2.7 0.9-2.8 0.8-2.8-2q0-3 1.8-3.5c0.9-0.2 2.6-1.3 3.6-2.5 1.9-2 1.9-2 3.3 0z"/>
		<path id="Path 7" class="s6" d="m326 168c-1.2 0.8-1.1 1 0.8 1 1.2 0 2.2-0.4 2.2-1 0-0.6-0.3-1-0.8-1-0.4 0-1.4 0.5-2.2 1zm-3 30v20h6v-40h-6zm16-0.8c0.1 18.5 0.1 19.2 1.8 17.3 1.4-1.6 1.9-4.7 2.5-15.5 0.4-7.4 0.5-14.4 0.3-15.5-0.3-1.1-0.5-2.8-0.5-3.8-0.1-1-0.9-1.7-2.1-1.7-1.9 0-2 0.7-2 19.3zm-94.2-12.6c-1.3 1.6-3 5.2-3.6 8-0.9 4.1-0.9 6.5 0 10.5 0.6 3 2.3 6.5 3.7 8.1l2.6 2.8c2-4.3 2.2-5.2 1.8-4.8-0.4 0.4-1.4-0.9-2-3-0.7-2.1-1.3-5.8-1.3-8.3 0-2.5 0.9-6.4 2-8.8 1.7-3.6 1.8-4.3 0.5-4.7-0.8-0.3-1.3-0.9-1-1.5 0.2-0.6 0.3-1 0-1-0.2 0-1.4 1.2-2.7 2.8zm64.6 2c-0.4 0.9-0.8 8.3-1 16.4l-0.4 14.8h5c0-22.1-0.2-29.5-0.4-30.8-0.1-1.2-0.8-2.2-1.4-2.2-0.5 0-1.4 0.8-1.8 1.8zm-56.4 26.2c0.7 1.4 1.8 2.8 2.4 3.2 0.6 0.4 1.4 0.2 1.8-0.5 0.4-0.7 0.8-1.5 0.8-1.9 0-0.5-0.8-0.8-1.7-0.8-1 0-2.4-0.5-3.2-1.2-1.1-1.1-1.1-0.9-0.1 1.2zm9 2.5c0 1.6 0.6 2.5 1.5 2.5 0.9 0 1.5-0.9 1.5-2.5 0-1.6-0.6-2.5-1.5-2.5-0.9 0-1.5 0.9-1.5 2.5z"/>
		<path id="Path 8" class="s1" d="m281.5 161.7c1.1 0.2 2.7 0.2 3.5 0 0.8-0.3-0.1-0.5-2-0.5-1.9 0-2.6 0.2-1.5 0.5zm-84.1 37.8c0 10.5 0.2 14.5 0.3 9 0.2-5.5 0.2-14 0-19-0.1-4.9-0.3-0.4-0.3 10zm116 5c0 7.7 0.2 10.6 0.3 6.5 0.2-4.1 0.2-10.4 0-14-0.2-3.6-0.3-0.2-0.3 7.5zm-6 1c0 7.2 0.1 9.9 0.3 6 0.2-3.8 0.2-9.7 0-13-0.2-3.3-0.3-0.1-0.3 7zm-74 0.5c0 6.9 0.1 9.6 0.3 6 0.2-3.6 0.2-9.2 0-12.5-0.2-3.3-0.3-0.4-0.3 6.5zm-24 0.5c0 6.6 0.1 9.1 0.3 5.5 0.2-3.6 0.2-9 0-12-0.2-3-0.3-0.1-0.3 6.5zm134.8-8.5c0 1.9 0.2 2.8 0.5 2 0.2-0.8 0.2-2.4 0-3.5-0.3-1.1-0.5-0.4-0.5 1.5z"/>
		<path id="Path 9" class="s2" d="m190 199.8c0 0.9-3.2 1.3-12.3 1.4l-12.2 0.2c19 0.5 24.2 0.3 24.9-0.4 0.6-0.5 0.8-1.3 0.3-1.7-0.4-0.5-0.7-0.2-0.7 0.4z"/>
		<path id="Path 10" class="s3" d="m110.6 181.3c-0.2 0.7-0.3 12.3-0.2 25.7l0.1 24.5 0.5-50.5c8.8 0 10 0.4 10 1.5 0 0.8 0.5 1.5 1.1 1.5 0.9 0 0.9-0.5 0-2-0.9-1.6-2.1-2-6.1-2-3.2 0-5.2 0.5-5.4 1.3zm90.8-0.6c1.6 0.2 3.9 0.2 5 0 1.2-0.2-0.1-0.4-2.9-0.4-2.8 0-3.7 0.2-2.1 0.4z"/>
		<path id="Path 11" class="s7" d="m286.4 173c0 6.3 0.1 8.8 0.3 5.5 0.2-3.3 0.2-8.5 0-11.5-0.2-3-0.3-0.3-0.3 6zm52 33.5c0 15.9 0.2 22.3 0.3 14 0.2-8.3 0.2-21.3 0-29-0.1-7.7-0.3-0.9-0.3 15zm-52-1.5c0 7.4 0.1 10.3 0.3 6.5 0.2-3.8 0.2-9.9 0-13.5-0.2-3.6-0.3-0.4-0.3 7z"/>
		<path id="Path 12" class="s8" d="m280.4 190c0 15.7 0.2 22 0.3 14 0.2-8 0.2-20.8 0-28.5-0.1-7.7-0.3-1.2-0.3 14.5zm-15.6-9.2c-0.2 2.3 0.2 3.1 2.2 4.1 2 0.9 2.3 0.9 1.2-0.1-0.7-0.7-1.2-2.5-1.2-4.1 0-1.5-0.4-2.7-0.9-2.7-0.5 0-1.1 1.3-1.3 2.8zm79.4 35.7c-0.1 2.7-0.5 8.2-0.8 12-0.5 5.2-0.4 6.7 0.5 6 0.7-0.7 1-4.7 0.8-12-0.1-6.1-0.4-8.8-0.5-6z"/>
		<path id="Path 13" class="s9" d="m221.4 208c0 5.8 0.1 8 0.3 5 0.2-3 0.2-7.8 0-10.5-0.2-2.8-0.3-0.3-0.3 5.5zm-111.1 24c0.2 1 1.7 1.5 4.3 1.6 3.8 0.2 3.8 0.1 0.4-0.3-1.9-0.3-3.9-1-4.3-1.6q-0.9-1.2-0.4 0.3z"/>
		<path id="Path 14" class="s4" d="m373.5 236.7c1.1 0.2 2.7 0.2 3.5 0 0.8-0.3-0.1-0.5-2-0.5-1.9 0-2.6 0.2-1.5 0.5zm-228.6 8.2c-0.6 1.1-1 3.5-1 5.3 0.1 1.8 1 4.8 2.1 6.6 1.1 1.7 3 3.7 4.2 4.4 1.7 0.8 1.4 0.3-1-2-1.7-1.8-3.5-4.7-3.8-6.4-0.4-1.8-0.2-4.8 0.3-6.5 0.6-1.8 0.9-3.3 0.7-3.3-0.2 0-0.8 0.9-1.5 1.9z"/>
		<path id="Path 15" class="s2" d="m169 195.7c1.9 0.2 5.3 0.2 7.5 0 2.2-0.2 0.6-0.4-3.5-0.4-4.1 0-5.9 0.2-4 0.4z"/>
	</g>
</svg>