<?xml version="1.0" standalone="no"?>
<!DOCTYPE svg PUBLIC "-//W3C//DTD SVG 20010904//EN"
 "http://www.w3.org/TR/2001/REC-SVG-20010904/DTD/svg10.dtd">
<svg version="1.0" xmlns="http://www.w3.org/2000/svg"
 width="1800.000000pt" height="1800.000000pt" viewBox="0 0 1800.000000 1800.000000"
 preserveAspectRatio="xMidYMid meet">

<g transform="translate(0.000000,1800.000000) scale(0.100000,-0.100000)"
fill="#000000" stroke="none">
<path d="M6970 13419 c-41 -5 -163 -24 -270 -43 -163 -29 -231 -47 -419 -110
-344 -117 -569 -214 -821 -351 -278 -151 -421 -251 -590 -412 -200 -190 -332
-364 -577 -763 -309 -502 -343 -568 -482 -955 -154 -425 -304 -853 -321 -915
-10 -36 -32 -112 -48 -170 -67 -225 -120 -543 -143 -844 -30 -395 17 -925 116
-1311 230 -899 733 -1668 1432 -2191 383 -287 973 -543 1409 -613 339 -54 318
-53 1849 -22 1426 29 1635 29 2315 2 821 -31 2192 -82 2305 -84 90 -2 104 0
144 23 30 17 240 243 705 760 1169 1298 1398 1560 1445 1654 62 122 58 222
-14 352 -98 176 -1061 1830 -1205 2070 -301 498 -525 841 -596 908 l-44 43 14
69 c46 222 98 851 98 1189 1 260 -12 380 -58 554 -62 237 -199 504 -354 690
-135 163 -164 186 -278 235 -158 66 -250 86 -442 97 -373 20 -1420 54 -2845
94 -2215 61 -2177 60 -2325 44z m805 -409 c1620 -40 4011 -113 4022 -123 2 -2
-311 -126 -695 -275 l-697 -272 -85 29 c-156 54 -286 73 -610 90 -378 20 -822
23 -1550 12 -685 -10 -1201 -14 -1295 -9 -59 3 -579 -59 -730 -87 -289 -54
-508 -129 -780 -269 -191 -98 -326 -182 -475 -292 -61 -45 -110 -80 -110 -77
0 3 30 49 67 102 194 281 394 473 658 630 272 162 547 287 892 404 181 62 254
82 400 107 201 35 334 47 473 43 52 -2 284 -8 515 -13z m1725 -950 c426 -16
579 -34 707 -82 49 -18 56 -25 83 -78 83 -163 146 -411 239 -930 106 -589 120
-678 109 -716 -13 -48 -114 -195 -199 -289 -40 -44 -135 -145 -212 -225 -88
-91 -147 -161 -160 -189 -41 -93 -1 -208 90 -259 39 -21 55 -23 240 -26 223
-3 278 -14 340 -69 93 -81 273 -414 576 -1068 313 -673 297 -629 980 -2579 96
-272 174 -496 173 -496 -1 -1 -2269 84 -2274 85 -1 1 16 24 39 53 78 99 116
202 146 390 14 92 18 176 17 448 0 678 -58 1205 -225 2073 -73 378 -92 456
-130 528 -61 114 -150 176 -384 269 -167 66 -212 72 -280 41 -22 -10 -379
-317 -800 -689 -566 -500 -766 -682 -783 -714 -48 -89 -49 -86 280 -843 344
-793 473 -1079 608 -1352 54 -109 97 -199 96 -200 -4 -4 -1648 -35 -1651 -31
-2 2 -6 343 -10 758 -12 1303 -52 6175 -51 6177 3 3 1327 20 1731 21 242 1
559 -3 705 -8z m-2845 -60 c1 -14 5 -529 9 -1145 4 -616 9 -1181 11 -1255 3
-74 7 -601 10 -1170 3 -569 7 -1132 10 -1250 3 -118 8 -635 11 -1149 l6 -933
-83 6 c-135 11 -368 45 -454 65 -246 59 -642 228 -893 380 -474 288 -960 839
-1212 1375 -102 215 -215 528 -265 732 -169 688 -138 1464 86 2120 263 775
717 1374 1365 1804 183 121 451 254 630 313 150 49 385 98 579 121 164 20 188
18 190 -14z m2930 -3511 c41 -17 80 -39 88 -48 34 -38 194 -896 246 -1321 51
-413 76 -861 68 -1209 -8 -331 -26 -417 -104 -497 -59 -60 -116 -97 -286 -182
l-152 -77 -82 1 c-99 1 -119 12 -174 97 -53 82 -231 445 -372 757 -186 414
-599 1370 -595 1380 4 12 1271 1130 1281 1130 4 0 41 -14 82 -31z"/>
<path d="M9205 11666 c-33 -7 -87 -22 -120 -34 -58 -20 -705 -211 -1100 -325
-104 -30 -210 -58 -234 -61 -57 -9 -91 -27 -129 -70 -61 -70 -61 -46 -10 -835
26 -394 44 -730 42 -747 -14 -78 49 -178 131 -210 65 -25 144 -16 198 23 23
16 386 274 807 573 421 298 773 549 782 557 9 8 35 49 56 92 98 187 127 300
126 481 -2 278 -84 459 -242 536 -48 23 -72 28 -152 30 -52 2 -122 -3 -155
-10z m129 -418 c3 -13 9 -57 13 -99 7 -96 -9 -184 -50 -269 l-32 -64 -605
-429 c-563 -398 -605 -426 -611 -405 -13 42 -63 888 -53 897 5 5 151 50 324
101 341 99 860 254 925 275 60 20 82 18 89 -7z"/>
<path d="M5422 10536 c-141 -46 -256 -143 -365 -308 -323 -489 -438 -1403
-262 -2082 78 -302 228 -531 403 -620 140 -71 262 -73 407 -6 223 102 403 368
525 775 190 635 162 1435 -66 1888 -150 297 -396 432 -642 353z m198 -422 c82
-74 156 -267 201 -520 20 -113 23 -161 23 -399 0 -231 -3 -291 -22 -414 -42
-268 -98 -462 -183 -636 -71 -147 -174 -265 -230 -265 -33 0 -96 68 -137 148
-162 314 -199 885 -90 1417 60 295 203 598 323 684 42 30 69 26 115 -15z"/>
</g>
</svg>
