<svg xmlns="http://www.w3.org/2000/svg" role="img" viewBox="23.98 21.48 351.78 256.78"><g fill-rule="evenodd" stroke="none"><path fill="#64a7db" d="M160.61 59.025L134.687 74l-.01 35.875-.01 35.876 3.875 2.227c2.132 1.224 3.941 2.161 4.02 2.082.387-.387 44.403-106.066 44.165-106.035-.107.013-11.859 6.763-26.117 15m82.19 39.127c-8.653 8.794-16.135 16.245-16.626 16.557-2.278 1.446-1.53 1.778-23.125-10.261-10.683-5.956-19.468-10.784-19.522-10.73-.158.158 16.514 85.057 16.754 85.317.12.131 13.158-7.228 29.293-16.533l29.076-16.769.008-31.8c.005-17.49-.021-31.793-.058-31.785-.037.007-7.147 7.209-15.8 16.004"/><path fill="#1c1c1c" d="M250.797 76.867l-4.53 4.6 4.6-4.531c2.53-2.491 4.6-4.561 4.6-4.6 0-.19-.461.257-4.67 4.531m5.995 6.8l-1.725 1.8 1.8-1.726c.99-.949 1.8-1.759 1.8-1.8 0-.196-.272.054-1.875 1.726m-26.928 14.4L224.4 103.6l5.533-5.464c3.044-3.006 5.534-5.496 5.534-5.534 0-.189-.526.323-5.603 5.465m8.8 4L233.2 107.6l5.533-5.464c5.142-5.077 5.654-5.603 5.465-5.603-.038 0-2.528 2.49-5.534 5.534M52.667 231.889c-.44.063-1.757.244-2.927.403-22.794 3.09-25.979 31.186-4.289 37.823 8.977 2.746 20.591 1.438 27.403-3.086 11.453-7.606 10.406-25.431-1.867-31.79-4.982-2.581-13.192-4.082-18.32-3.35m206.133.913c-4.646 2.331-14.157 8.214-14.654 9.065-.568.97-.993 15.049-.546 18.078.277 1.875 1.198 2.604 8.855 7.01 9.42 5.421 7.785 5.433 17.346-.121 9.437-5.482 8.447-3.765 8.543-14.82.082-9.511.046-9.833-1.23-11.009-.604-.557-11.46-6.948-14.101-8.301-1.154-.592-2.92-.55-4.213.098m46.825-.359c-2.919 1.266-14.686 8.469-15.262 9.342-.68 1.032-.765 18.255-.097 19.548.944 1.824 14.706 9.734 16.934 9.733 2.218-.001 16.018-7.963 16.961-9.785.547-1.059.545-18.042-.002-19.094-1.487-2.858-16.37-10.682-18.534-9.744m-211.225.533c-1.409.564-1.333-.5-1.333 18.665 0 17.337.01 17.703.533 18.226.82.819 8.401.811 9.283-.011l.584-.543v-13.304c0-11.961.044-13.348.436-13.74.735-.736 16.387-.49 17.697.278 2.065 1.21 1.924 4.02-.257 5.12-1.104.556-1.546.6-6.133.608-5.973.01-5.49-.263-7.355 4.168-2.048 4.868-2.039 4.89 2.122 4.89h2.74l4.608 6.067c5.981 7.872 4.584 7 11.205 7 7.771 0 7.686.719.929-7.844-2.742-3.475-4.942-6.349-4.889-6.386.053-.037.92-.41 1.927-.828 4.605-1.915 6.868-5.32 6.914-10.409.058-6.241-3.148-9.875-10.161-11.519-1.823-.428-27.887-.823-28.85-.438m53.072.163c-1.36.695-1.342.421-1.271 18.951l.066 17.291.629.509c.605.49 1.29.51 17.62.51h16.991l.58-.617c.532-.567.58-.895.58-3.981 0-4.919 1.36-4.469-13.494-4.469-13.857 0-12.64.257-12.64-2.666 0-2.884-.767-2.667 9.447-2.667 10.486 0 9.472.347 11.212-3.839 2.201-5.297 2.853-4.961-9.63-4.961h-10.198l-.416-.593c-.634-.905-.56-3.529.119-4.207.516-.516.889-.533 11.558-.533 13.257 0 11.998.441 12.13-4.254.085-3.017.063-3.162-.577-3.907l-.665-.773-15.69-.066c-12.249-.051-15.835.008-16.351.272m48.595.063l-.6.428v18.065c0 13.695.077 18.142.32 18.385.535.535 24.689.446 27.358-.102 10.064-2.064 12.93-13.698 4.553-18.482l-1.297-.741.989-.644c6.608-4.305 3.993-14.259-4.386-16.696-2.312-.672-26.031-.86-26.937-.213m136.854.253c-.8.8-.894 2.463-.188 3.316.452.546.699.566 7.934.63l7.466.066.134 16.209c.151 18.354-.101 16.713 2.558 16.72 2.71.007 2.494 1.432 2.573-16.948l.069-15.981 7.543-.134c8.511-.15 8.046-.016 8.053-2.318.007-2.369 1.284-2.215-18.334-2.215h-17.153l-.655.655m-65.34 7.078l6.276 3.6-.062 7.566-.062 7.566-6.387 3.684c-3.514 2.026-6.522 3.601-6.685 3.5-.162-.1-3.08-1.791-6.482-3.757l-6.187-3.574.071-7.459.07-7.459 6.394-3.702c3.517-2.036 6.481-3.671 6.586-3.633.106.037 3.017 1.688 6.468 3.668m46.184.024l6.502 3.757-.002 7.376-.002 7.377-6.331 3.649c-3.483 2.007-6.455 3.687-6.605 3.733-.15.047-3.182-1.592-6.738-3.64l-6.464-3.725.071-7.438.071-7.438 6.4-3.699c3.52-2.034 6.444-3.701 6.498-3.704.053-.003 3.023 1.686 6.6 3.752m-92.631-2.854c5.567 1.31 6.586 7.762 1.613 10.204l-1.547.76-8.132.133-8.131.133-.507 1.067c-.279.587-.519 1.487-.535 2l-.028.933 8.933.15c10.056.169 10.47.239 12.643 2.152 4.215 3.71 1.569 9.739-4.672 10.641-2.653.384-19.791.33-20.184-.063-.462-.461-.462-27.698 0-28.16.483-.483 18.468-.44 20.547.05m-160.371 3.53c12.955 3.342 12.508 18.285-.63 21.034-11.567 2.42-21.347-5.201-18.016-14.041 2.231-5.918 10.62-9.064 18.646-6.993"/><path fill="#0c0c0c" d="M194.39 28.741c-5.711 2.934-67.837 39.202-68.326 39.888l-.597.838-.07 40.208c-.076 44.365-.201 41.067 1.603 42.409.785.584 65.298 37.896 67.422 38.994 2.522 1.304.018 2.575 37.093-18.821 38.361-22.139 35.241-20.255 35.942-21.704.539-1.112.543-1.436.543-39.555 0-24.799.093-38.49.261-38.595.164-.101.169-.331.015-.615-.136-.25-.321-.918-.412-1.484-.11-.681-.498-1.37-1.148-2.039-.784-.806-63.053-37.051-67.969-39.562-1.123-.574-3.202-.556-4.357.038m32.849 27.031c15.535 8.968 28.212 16.392 28.17 16.497-.042.105-7.341 7.538-16.22 16.518l-16.144 16.326-20.656-11.517C191.028 87.261 181.591 82 181.417 81.905c-.286-.157 17.105-42.438 17.455-42.438.067 0 12.832 7.337 28.367 16.305m-40.282-11.439c-.941 2.463-44.126 105.716-44.288 105.889-.113.122-2.02-.825-4.238-2.106l-4.031-2.327.002-35.895.003-35.894 26.197-15.128c27.851-16.082 26.703-15.449 26.355-14.539m71.497 101.586c-.929.929-58.454 33.796-58.454 33.397 0-.082-3.779-19.423-8.399-42.979-4.619-23.556-8.351-42.876-8.293-42.934.058-.058 8.488 4.567 18.732 10.277 21.484 11.976 20.625 11.52 21.677 11.52 1.964 0 2.438-.429 18.816-17.031l16-16.218.068 31.877c.037 17.532-.029 31.973-.147 32.091m-67.922 32.16c-.128.149-39.708-22.808-39.801-23.085-.078-.235 22.938-55.745 23.74-57.255.219-.413 2.009 8.287 8.205 39.867 4.359 22.217 7.894 40.43 7.856 40.473"/><path fill="#245d9e" d="M190.096 60.604c-6.463 15.492-8.625 20.938-8.4 21.157.167.162 9.531 5.43 20.809 11.708l20.505 11.415 16.028-16.212c8.816-8.916 16.059-16.287 16.097-16.379.063-.156-55.056-32.091-55.935-32.407-.312-.113-2.306 4.424-9.104 20.718m-55.566 49.263c0 19.726.031 27.796.07 17.933.039-9.863.039-26.003 0-35.867-.039-9.863-.07-1.793-.07 17.934m117.865-21.534l-2.662 2.734 2.734-2.662c1.503-1.464 2.733-2.694 2.733-2.733 0-.193-.333.123-2.805 2.661m-89.693 37.933c-6.506 15.606-11.838 28.471-11.848 28.588-.015.189 39.331 23.05 39.456 22.925.091-.091-15.382-78.964-15.583-79.434-.132-.31-3.967 8.596-12.025 27.921m67.826-15.799l-2.661 2.733 2.733-2.662c1.503-1.464 2.733-2.694 2.733-2.733 0-.193-.333.123-2.805 2.662"/><path fill="#214362" d="M240.798 86.867l-5.465 5.533 5.534-5.464c3.043-3.006 5.533-5.496 5.533-5.534 0-.189-.525.323-5.602 5.465m6.131 6.933l-2.796 2.867L247 93.871c2.663-2.596 2.988-2.938 2.795-2.938-.039 0-1.329 1.29-2.866 2.867m-23.346 10.533l-.783.867.867-.783c.476-.431.866-.821.866-.867 0-.206-.22-.025-.95.783"/></g></svg>