<svg xmlns="http://www.w3.org/2000/svg" role="img" viewBox="40.64 28.64 343.46 84.21"><style>svg {enable-background:new 0 0 425.2 141.7}</style><style>.st0{fill:#2b292a}.st2{fill:#c4d700}</style><path d="M192.3 48.8c-16.2 0-29.4 9.8-29.4 22s13.1 22 29.4 22c16.2 0 29.4-9.8 29.4-22s-13.1-22-29.4-22zm0 35.2c-9.7 0-17.6-5.9-17.6-13.2s7.9-13.2 17.6-13.2c9.7 0 17.6 5.9 17.6 13.2S202.1 84 192.3 84zm30.2-26.4h17.6v35.2h11.7V57.6h17.7v-8.8h-47zm120 26.4V48.8h-11.8v44h47V84zm-37.6-17.6h-11.7c-3.2 0-5.9-2-5.9-4.4s2.6-4.4 5.9-4.4h29.4v-8.8h-29.4c-9.7 0-17.6 5.9-17.6 13.2s7.9 13.2 17.6 13.2h11.7c3.2 0 5.9 2 5.9 4.4s-2.6 4.4-5.9 4.4h-29.4v8.8h29.4c9.7 0 17.6-5.9 17.6-13.2s-7.9-13.2-17.6-13.2z" class="st0"/><path fill="#00aec9" d="M128.9 46c-3-2.3-6.3-4.2-10-5.8-8.6 2-19.8 6.9-29.1 12.1 16.7-3.4 29.8-5.5 39.1-6.3zm-51.1 6.7c10.7-6.3 24.9-11.7 36.1-14.5-5.5-1.8-11.5-2.8-17.8-2.9-2.5 2.2-10.2 9.1-18.3 17.4z"/><path d="M119.9 53c-13.6 1-27.1 2.8-38.8 4.6-4.5 3.1-7.8 6-8.6 8-3 7.1 6.8 6.2 14.8 4.8 2.9-.5 6.1-1.1 9.6-1.7 2.3-1.7 4.7-3.5 7.2-5.3 6.4-4.5 11.1-7.4 15.8-10.4z" class="st2"/><path d="M133.9 76.5c-1.3 8.1-20.1 18.1-27 20.7-8.6 3.2-18 6.2-26.4 7.5 4.6 1.1 9.5 1.7 14.6 1.7 25.4 0 46.2-14.9 47.5-33.7-2.3.7-5.3 1.6-8.6 2.6-.1.5-.1.9-.1 1.2z" class="st0"/><path fill="#004190" d="M127.3 68.1c3.6 1.2 5.3 2.9 6.1 4.6 3.5-.8 6.6-1.5 9.2-2 0-6.1-2.1-11.8-5.8-16.8-7.2 1.9-17.6 6.5-28.6 13.1 6.8-.7 13.6-.7 19.1 1.1zm-23.2 12c5.5-1.5 11.3-3.1 16.9-4.5-2.8-2.7-10.5-3.7-24.1-1.4-5.1 3.5-10.1 7.4-14.8 11.5 5.7-1.2 12.9-3 22-5.6z"/><path d="M87.6 76.1c-10.2 2.3-22.3 3.7-26.7.6-.5-.3-.8-.7-1-1.1-2.6 6-1.6 9.1-.2 10.3 1.5 1.4 3.6 3.3 16.4.9 3.4-3.3 7.2-6.9 11.5-10.7z" class="st2"/><path d="M122.2 78.8c-5.1 1.5-10.5 3-15.9 4.5C84.1 89.5 71.4 97 67.9 100c1.6.9 3.4 1.6 5.2 2.3 7.6-.1 20.1-3.8 32-9.7 5.3-2.6 16.3-9.1 17.1-13.8z" class="st0"/><path fill="#e0428d" d="M48.5 63.4c-.7 2.4-1.1 4.9-1.1 7.5 0 3.3.6 6.5 1.8 9.6 1.4-4.9 5.2-10.8 13.4-19.8-6.2 1.1-11 2.1-14.1 2.7zM91 35.5C71.2 36.8 54.8 47.1 49.4 61c3.8-.9 9.6-2.2 16.4-3.7C73.7 48.8 85 39.9 91 35.5z"/><path fill="none" d="M0 0h425.2v141.7H0z"/></svg>