<svg xmlns="http://www.w3.org/2000/svg" role="img" viewBox="-34.30 -33.30 1783.60 1001.60"><path d="M851.5 2.4c-1.6.8-57.5 56-124.2 122.8C615.3 237.3 606 246.8 604.9 251c-2.4 9.2-2.8 8.7 39.1 50.5 33.5 33.5 37.8 37.5 36.9 34.1-.6-2.1-.7-5.7-.4-7.9.6-4 5.7-9.2 84.3-88 46.1-46.1 84.9-84.5 86.4-85.3 3.4-1.8 9.9-1.8 14.1 0 1.9.8 38 36.2 86.4 84.7 75.4 75.6 83.3 83.8 84.3 87.8.9 3.5.9 5.2-.3 8.9-1.4 4.2 1.1 1.9 35.9-32.9 20.7-20.6 38.2-38.7 39.1-40.3 2-3.8 2-11.4 0-15.2C1108.4 243 868 3.3 864.7 2c-3.8-1.4-9.6-1.2-13.2.4z"/><path d="M851.5 261.9c-5 2.3-114.9 112.2-116.5 116.4-1.4 4-1.2 10.4.5 14.1.8 1.7 10.3 11.9 21.1 22.6 10.8 10.7 18.9 18.4 18.1 17-.9-1.4-1.9-4.2-2.2-6.2-1.5-7.9-.7-8.8 38.9-48.6 20.7-21 38.5-38 40.3-38.8 3.8-1.7 9.1-1.8 13-.3 3.3 1.2 75.7 73 78 77.3 1.8 3.5 2 11.4.3 14.7-.7 1.3 7.4-6.2 18-16.6 10.6-10.5 19.8-20.4 20.6-22.2 1.9-4.5 1.7-9.7-.5-14.1-2.9-5.6-111.7-113.8-116.3-115.7-4.9-2-8.4-1.9-13.3.4z"/><path d="M850.4 392.6c-4.8 2.3-48 46.3-49.8 50.6-2 4.7-2 9.6-.2 13.9 1.4 3.3 44.3 46.8 49.6 50.3 3.1 2.1 12.1 2.1 16.4.1 1.8-.9 13.6-12 26.3-24.8 25.2-25.2 26.3-26.8 24.8-36.1-.6-3.7-2.9-6.3-24.9-28.4-13.2-13.4-25.3-25-26.8-25.8-3.5-1.8-11.5-1.8-15.4.2zM1459.5 582c-18.1 2.3-39 10.1-53.6 20.1-9 6.1-24.8 21.7-30.9 30.5-6.1 8.8-12.9 22.3-15.9 31.4-5.5 17.1-5.4 15.8-5.8 84-.3 59.3-.2 63.7 1.4 66.9 1 1.9 3.1 4.4 4.6 5.5 2.7 2 4.3 2.1 32 2.4 26.3.2 29.5.1 32.7-1.5 7.3-3.8 6.9-.5 7.3-72.4.3-72.7-.1-69.5 8.2-78.7 12.4-13.8 31.7-15 45.4-2.6 2.7 2.4 6 6.6 7.3 9.2l2.3 4.7.5 65c.5 63.3.6 65.1 2.6 68.5 1.1 1.9 3.5 4.5 5.4 5.7 3.2 2.3 3.9 2.3 31.4 2.3 31.5 0 33.2-.3 37.1-7 1.9-3.4 2-5.4 2.5-68.5l.5-65 2.4-5c11.8-23.8 44.3-24.7 57-1.5l3.6 6.5.5 65.7c.5 64.4.5 65.7 2.6 68.5 4.4 6 6.1 6.3 36.7 6.3 31.7 0 33.3-.3 36.7-7.1 1.9-3.7 2-6.3 2-65.2 0-66.6-.2-69.2-5.7-86.2-22.3-68.7-100.4-102.5-165.8-71.7l-10 4.7-7.5-3.7c-19.8-9.9-46.2-14.5-67.5-11.8zM109 584.6c-1.4.2-5.6.9-9.5 1.5-35.3 5.7-69.8 31.5-86.3 64.4-4.3 8.6-8.8 22.1-10.9 32.2C.6 690.9.5 700.1.5 808.5c0 110 .1 117.2 1.8 120.2 3.3 6.1 4.4 6.3 37.4 6.3 28.1 0 30-.1 33.1-2 6.2-3.8 6.2-3.8 6.2-58v-49h19.8c35.5 0 51.8-2.5 70.9-10.7 24.1-10.5 47.2-32.2 59-55.8 4.2-8.3 8.9-21.9 11-31.7 2.1-10.2 2.3-33 .4-43.8-8.8-48.8-46.3-87.2-95.1-97.5-7.2-1.6-30.9-2.8-36-1.9zm30.1 82.2c8.4 4.1 16 11.7 20.2 20.1 3 6.2 3.2 7.2 3.2 17.6 0 10.3-.2 11.4-3.2 17.7-5.6 11.9-15.4 20.1-27.7 23.4-3.4.9-11.1 1.4-23.6 1.4-20.9 0-23.8-.7-27.2-7.1-1.7-3.1-1.9-5.4-1.6-24.4l.3-21 3.1-6.6c5.2-10.9 13.8-19 24.7-23 4.1-1.5 7.3-1.9 15.3-1.7 8.9.3 10.7.7 16.5 3.6zM503 584.6c-24.6 2.8-46.3 10.7-62.5 22.9-44.9 33.7-61 90.4-40.6 143 9.1 23.6 28.3 45.7 51.1 58.9 26.7 15.6 60.4 20.3 90.1 12.7 16.8-4.3 36.1-13.9 45.5-22.7 3.9-3.6 4.4-4.5 4.4-8.6 0-6.1-1.7-8.3-26.8-33.2-19.7-19.5-21.2-20.8-23.9-20.1-1.5.3-3.5 1.3-4.3 2-.9.8-4.2 2.7-7.5 4.2-5.4 2.5-7 2.8-17 2.8-10.5 0-11.4-.2-17.8-3.3-16.8-8.3-26.6-26.7-23.7-44.4 3.3-20.5 21-35.8 41.5-35.8 7.4 0 17.4 2.9 22.7 6.5 8 5.5 6.7 6.3 32.9-20.2 25.4-25.7 26.3-26.9 23.5-33.8-2.4-5.7-18.8-16.3-35.1-22.8-14.6-5.8-39.3-9.6-52.5-8.1zm210 .1c-21.3 1.7-45 10.6-62 23.4-46.3 34.9-61.8 96.8-37.1 148.5 6.4 13.4 11.7 21 22 31.7 11.5 11.9 19.3 17.7 33.6 24.7 39.6 19.6 84.5 16.5 121.5-8.3 10.4-7 25.6-22.4 32.5-33.1 45.1-69.3 9.9-161.9-69.5-183-13.8-3.7-27.3-5-41-3.9zm27.4 82.1c8.8 4.1 16.7 12 20.9 20.9 3 6.3 3.2 7.6 3.2 17.3 0 9.7-.2 11-3.2 17.2-4.4 9.3-10.9 16-20 20.5-6.5 3.2-8.6 3.7-16.3 4.1-13.8.7-23.4-3.2-32.9-13.3-7.4-7.8-10.3-14.8-10.9-26.1-.7-13.9 3.5-24.2 13.3-33.3 8.8-8.1 17.6-11.2 30.1-10.7 7.7.3 10.2.8 15.8 3.4zm238.8-81.7c-48 5.9-86 36.7-101.4 81.9-4.1 12.1-5.8 23.3-5.8 38 0 20.7 3.7 36.8 12.7 54.5 16.4 32.7 46.9 56.1 82.8 63.6 27.1 5.6 53 2.3 78-10.1 22.9-11.3 29.8-18.9 25.1-27.8-1.9-3.5-46.8-48.2-48.5-48.2-.7 0-3.8 1.5-6.9 3.4-8.9 5.4-14.8 6.9-25.1 6.4-7.8-.4-9.9-.9-16.4-4.1-25.8-12.8-31.5-47-11.3-67.3 14.1-14 35.4-16.4 52.6-5.8 3.1 1.9 6.4 3.4 7.5 3.4 2 0 41.4-38.3 46.6-45.4 5.9-8 3.2-14.3-9.9-23-13.1-8.6-29.2-15.2-43.9-18-10.4-1.9-27.1-2.7-36.1-1.5zm215.8-.4c-46.6 3.7-88.3 35.9-103.8 80.3-5.1 14.6-6.6 23.9-6.5 40.5.1 32.3 10.9 59.4 32.8 82.4 23.7 24.9 53.1 37.5 87.5 37.5 20.9 0 34.3-3.1 53.6-12.4 12.6-6.1 23.7-14.3 34.1-25.4 21.7-22.9 32.7-50.6 32.7-82.6 0-8.7-.7-16.6-1.8-22.3-10.2-52.6-53.3-92.1-106.6-97.7-9.3-.9-13-1-22-.3zm28.2 82.6c9.2 4.5 15.7 11.2 20.1 20.5 3 6.2 3.2 7.5 3.2 17.2s-.2 11-3.2 17.2c-7.4 15.7-21.5 24.8-38.3 24.8-11.4 0-20.2-3.5-28.7-11.3-9.5-8.7-13.8-19.7-13.1-33.2.9-17.5 11.8-31.5 29.3-37.8 3.8-1.3 7.3-1.7 14.1-1.4 8.2.2 10 .7 16.6 4zm-936-76.3c-4.5 1-9 5.5-10.2 10.1-.7 2.4-.9 40.5-.8 107.6.3 102.3.3 103.9 2.3 107.3 3.9 6.7 5.6 7 37 7s33.1-.3 37-7c2-3.4 2-5 2.3-107 .2-75.4 0-104.6-.9-107.7-1.4-5.2-5.5-9.2-10.5-10.4-4.7-1-51.6-1-56.2.1z"/></svg>