<svg xmlns="http://www.w3.org/2000/svg" role="img" viewBox="-19.95 -19.95 3117.40 717.40"><g fill="#6fa6f6"><g xmlns="http://www.w3.org/2000/svg"><path d="M96.84989 510.98995c-2.09928-2.88965-4.1511-5.80778-6.14606-8.77014 1.97915 2.94973 4.04365 5.86782 6.14606 8.77014zm14.99518 19.07358c5.8299 6.80678 11.97596 13.4334 18.52984 19.76281 21.85891 21.51431 47.92583 39.59833 75.88967 53.27516 10.30347 4.82454 19.80709 9.82292 30.94204 14.12575 2.78216 1.06862 5.6244 2.21312 8.61201 3.24378 3.01295.95477 6.13658 1.90955 9.40244 2.85483 3.24691 1.0149 6.70882 1.73574 10.32877 2.48501 3.62312.72716 7.3854 1.55864 11.42582 1.9728-19.91772-4.19855-39.51296-10.5374-58.2799-18.93765-18.74796-8.44448-36.6644-18.90286-53.34473-31.11592-33.34796-24.42923-61.87138-55.79489-82.70595-91.64998-.85994-1.07171-2.16567-3.11409-3.73062-5.71609-.77143-1.30568-1.61871-2.7442-2.51662-4.26173-.80932-1.56812-1.66609-3.21844-2.5387-4.90355-1.68825-3.40183-3.63258-6.85424-5.12172-10.19912-1.53647-3.31963-2.9813-6.35792-4.1922-8.68794 6.47486 16.12702 13.94876 30.23382 22.31736 43.64825 3.84129 6.12077 7.88807 12.1024 12.232 18.01131-.607-.8188-1.23933-1.61553-1.84319-2.43752 4.57159 6.27881 9.40243 12.45644 14.5431 18.46658.01584.0158.03164.0411.05058.06322zm-14.6-18.53298c-.13278-.1802-.26557-.3604-.39518-.53746a33.56387 33.56387 0 0 1 .39519.53746zm-52.8104-136.06017c-.50268-4.0373-1.01171-8.11569-1.52702-12.25098.80935 7.47708 1.74832 15.833 3.46504 24.19847-.34464-1.9728-.68606-3.9551-1.03383-5.94057-.37307-1.98229-.6892-3.98352-.90419-6.00692zm267.07769 251.44704c21.03057 2.1277 43.0855 1.49224 64.68832-1.9254 21.6155-3.40496 42.75674-9.44353 62.41206-17.22724-36.19969 14.23641-74.61877 20.56899-112.2032 19.50986-5.03003-.07902-9.98727 0-14.89718-.35722z"/><path d="M186.99182 583.89514c-.2719-.17389-.54692-.34778-.81885-.52166.27507.17388.54378.3509.81885.52166zm-.81885-.52166c-2.69678-1.71354-5.33667-3.47771-7.94811-5.27031 2.59878 1.80209 5.26082 3.54728 7.94811 5.2703zm-7.94811-5.27031c-2.84224-1.96963-5.6813-3.94561-8.4097-5.99743 2.74424 2.04868 5.56114 4.04043 8.40966 5.99743zm39.27903 22.60187c17.1956 8.0082 35.5041 14.2459 54.13507 18.38756-30.62902-6.98703-59.4528-19.3139-84.64714-35.19746 9.67432 6.15551 19.845 11.85262 30.51207 16.8099zm382.3096-221.90872c.30985-4.99524.93579-10.23708 1.09391-12.7315 1.87794-16.0322 2.43439-29.72174 2.35536-43.45543-.34777-2.47549-1.34368-7.1135-1.73887-12.38695-.4837-5.28608-1.19506-10.46152-1.79574-15.56744-.91367-5.06164-1.70091-10.07268-2.7-14.98569 7.19252 36.72762 7.0724 73.59756.4553 108.38403.77454-3.2754 1.55229-6.38317 2.33004-9.25702z"/><path d="M43.01828 304.14595c2.68098-21.81464 8.38758-43.07914 13.81597-57.24607l-2.19732 10.36987c1.35631-3.0382 3.54728-10.09798 6.53494-17.5687.71135-1.87794 1.43533-3.79384 2.15618-5.69707.80618-1.8685 1.60604-3.72749 2.38062-5.52322 1.58079-3.57572 2.90863-6.96491 4.30918-9.5637-.9579 2.43757-1.88111 5.06482-2.99397 7.70152-1.09074 2.64624-2.31422 5.33353-3.48085 8.03667 2.38698-5.38094 2.38698-5.38094 4.78658-10.77773-4.14797 10.32564-8.67845 23.3006-12.4533 37.01222-3.58204 13.759-6.41478 28.21992-7.93867 41.2012-.4426 3.23743-.59751 6.39898-.8852 9.4151-.21185 3.0161-.57857 5.89312-.60704 8.61202-.1328 5.4347-.31617 10.19285-.22448 13.99935.33197 7.61614.79042 11.41316 1.45118 9.29176 1.29937-4.21436 1.27408-25.88672 5.80774-53.00959 2.42493-13.51878 5.90574-28.3464 10.6291-42.87368 4.6886-14.53995 10.83458-28.63727 17.19881-41.0748a2811.27304 2811.27304 0 0 0-1.87162 4.08474c-.57226 1.39737-1.1445 2.79796-1.72307 4.208-1.16663 2.8106-2.3427 5.64966-3.52826 8.5077-1.07176 2.90864-2.14987 5.83621-3.23743 8.78908-.54692 1.4733-1.09705 2.94974-1.64719 4.43253-.4837 1.50486-.97375 3.01608-1.45745 4.53362-4.17322 12.036-7.2937 24.7106-10.0126 37.48643l-1.76731 9.64906c-.6481 3.20578-.92317 6.4685-1.40373 9.6964-1.00536 6.45274-1.37212 12.95285-1.9317 19.37712-.62916 12.88014-.75564 25.60216.41099 37.7678-.04742-2.88964-.09483-5.45682-.05373-7.9418.12012-2.48179.2371-4.88457.36354-7.44543.15177-2.55768.12334-5.2703.36362-8.37808.2213-3.10778.42362-6.61078.60068-10.75557 1.2362-20.89148 4.96995-41.57432 10.77455-61.59004 5.53271-20.1011 12.05812-37.8026 21.77986-53.8411.85045-1.62185 1.6946-3.22794 2.53238-4.82453 1.71354-3.2374 3.13943-6.43054 4.95101-9.68695 2.0645-3.57254 4.04043-6.2472 5.64016-8.6974 1.6472-2.42493 3.0446-4.55577 4.64434-6.62344 3.06354-4.22381 6.25038-8.62782 11.6408-16.06694.23711-.02847-.06956.58488-.63232 1.49541 1.59973-2.29214 3.77489-5.12803 6.19343-7.87227 2.38701-2.76635 4.70441-5.70024 6.66773-8.122.46158-.02212.91053-.03478 1.96962-.79355 27.34739-29.0767 61.00198-52.77248 98.92787-67.71076 2.82008-1.09705 5.63072-2.1941 8.43186-3.28484 2.85169-.94846 5.69706-1.89692 8.53613-2.84224l4.24597-1.41636 4.29973-1.2014c2.86432-.7967 5.71919-1.58707 8.56774-2.38062 4.90042-1.17925 9.86401-2.3743 14.92565-3.44924 2.5482-.44578 5.11854-.89473 7.7047-1.34683 2.58929-.44577 5.19125-.94846 7.85325-1.19505 5.29242-.63547 9.90829-1.97598 12.39644-2.30477 13.81275-.78724 27.60025-.62916 43.78418.68288 1.25513.02212 3.209.13592 5.4758.25926 2.26686.12961 4.85928.19283 7.37273.42362 2.94656.66394 6.0923 1.32153 9.39294 1.96335 20.13588 3.12358 39.60465 8.70684 58.12813 16.13334l-.02212-.08852c2.30791.92 4.6759 1.86214 7.09448 2.8264 2.36486 1.09392 4.78344 2.20995 7.23994 3.34492 4.96681 2.1625 9.83245 4.92885 14.85926 7.53399 2.52294 1.28674 4.91304 2.85804 7.3917 4.28071 2.43439 1.49855 4.98258 2.82644 7.33477 4.4641 4.76763 3.16785 9.60161 6.19978 14.05621 9.5858 7.59407 5.44734 14.60317 11.08754 20.86622 16.4337.14542.13278.29719.25608.4426.3857a7.333 7.333 0 0 1 .13279.12015l4.60637 4.17954 4.40719 4.39774 4.41032 4.40087c1.46067 1.47643 2.81381 3.05719 4.22703 4.58107-.68292-1.10654-.65763-1.55232-.63234-1.99182-2.1783-2.08657-4.75496-4.55574-7.29997-6.98699 4.24592 3.8634 7.95125 7.35692 10.99263 10.20865 1.17298 1.49856 2.4534 2.97186 3.66744 4.58108 1.21718 1.60605 2.46596 3.25954 3.7496 4.95097 1.2962 1.67561 2.62722 3.3955 3.98667 5.15015 1.2931 1.8084 2.61776 3.65473 3.96776 5.53902 7.03758 8.97246 13.25004 18.5709 19.14946 28.35903 2.73157 5.02053 5.74452 9.8988 8.17577 15.09322l3.83494 7.70152 3.45241 7.89439c.9927 1.6851.607.06957.7303-.21499 3.8729 9.36447 6.98702 19.10205 9.8071 28.91543 5.34934 17.56558 8.97564 35.79819 10.77456 54.41336.71135 4.3566 1.01485 8.76378 1.64397 13.12987-.10432 2.48815-.2371 5.60542-.38888 9.2444-.00314 3.48715.18024 6.97435.03165 10.46783-.13279 3.49037-.26871 6.99334-.40468 10.51528-.05059 2.37117-.392 4.96046-.5912 7.77427-.26557 2.80745-.40467 5.83621-.80935 9.02936-.411 3.18684-.84732 6.56337-1.30255 10.09163-.41734 3.53779-1.22352 7.17354-1.84319 10.97373-2.79165 15.14378-7.26205 32.1529-13.6326 48.947-.76507 2.61145-1.35 4.69806-1.87162 5.86468-1.98229 4.74547-4.09737 9.33922-6.1397 13.86335-2.2858 4.40723-4.3819 8.81441-6.72463 12.98767-7.71733 14.6885-16.58543 28.06184-25.13109 39.13671-1.06227 1.38793-2.05186 2.79797-3.12044 4.10052-1.07494 1.29623-2.12775 2.56717-3.15523 3.81281-2.08661 2.46286-3.95192 4.92572-5.93104 7.06288-3.9551 4.2744-7.27472 8.23902-10.38885 11.22032-3.56622 3.7243-3.24692 3.8982-.77775 2.10242 1.2267-.90732 3.02562-2.27313 5.0838-3.98984 1.99492-1.79892 4.306-3.8824 6.70878-6.0512 2.45337-2.14038 4.80242-4.55578 7.06605-6.83208 2.23834-2.29215 4.47676-4.3819 6.20293-6.2725 3.48088-3.7654 5.76667-6.08916 5.27976-5.05532-5.61805 10.57536-15.84878 23.6199-30.8029 38.04919-7.62877 7.04075-16.2124 14.69168-26.3641 22.06754-4.95097 3.86027-10.45521 7.3917-16.06695 11.2488-5.79828 3.55038-11.723 7.43908-18.201 10.8915-14.17641 7.7205 10.63859-4.66328 11.30884-4.78026-1.91276 1.49224-4.44515 3.35755-7.515 5.18494-4.67277 2.48497-9.30443 5.04897-14.14477 7.1862-2.82957 1.29938-5.60855 2.7031-8.46973 3.91714l-8.62787 3.54724c1.52703-.60068 3.02876-1.18874 4.56528-1.79574 9.33286-3.7085 18.05554-8.07776 25.93095-12.39958-2.95919 1.78943-6.19661 3.86023-9.74385 5.72872-3.80337 1.96649-7.73949 4.11636-11.68823 6.0354-3.98357 1.85267-7.8849 3.6674-11.4606 5.33034 40.99888-14.89404 78.675-39.54143 108.501-71.67217 14.93197-16.01639 28.2484-33.6104 39.10515-52.64287 10.9231-18.98506 19.72485-39.17467 26.20284-60.06615-9.9715 31.3941-25.51682 60.23368-44.20152 84.61871 33.96762-45.86452 54.22048-102.09577 56.9046-160.0879-.00314 3.1963-.3193 6.37996-.53111 9.56366-.26244 3.18366-.38888 6.37999-.76195 9.55416-.81253 6.3389-1.39424 12.7126-2.61458 18.99773-1.9728 12.64618-5.17231 25.07419-8.79544 37.35364 7.15143-22.1972 11.42265-45.60211 13.10462-69.13982 1.7515-23.55665.29083-47.25558-3.34174-70.22103 6.24088 30.42038 7.27468 64.88754 1.95695 98.94999 3.73698-21.96959 4.6854-44.6157 3.2501-67.06894-.32252-8.57731-1.3342-17.0945-2.16567-24.9794-1.19192-7.82795-2.09293-15.05526-3.24692-20.90096 4.56845 21.5807 6.37054 39.9872 7.24947 57.33775-.84419-37.86581-8.68794-76.23113-24.09098-112.26955 8.40652 19.57312 15.30817 40.62899 19.52253 62.27609 4.23644 21.62495 5.99743 43.74943 4.99524 65.03292-.04745-2.49129.0569-4.97944-.08855-7.48022-.1138-2.50078-.22448-5.01419-.33828-7.55924.90736 34.30277-4.37558 68.302-14.8466 100.2747-5.2545 15.98474-11.74512 31.51739-19.60159 46.29762-7.85324 14.77706-16.91108 28.86806-27.06279 42.09911 11.61234-13.56302 23.87282-32.7346 33.65777-53.79365 9.74076-21.10332 16.9712-43.9265 21.94429-63.86002-7.31582 35.79497-21.8368 71.11573-42.9053 102.65845-21.01163 31.56802-48.53286 59.32322-80.37591 80.62569-31.80512 21.36886-67.891 36.15859-104.92216 43.46492-18.51396 3.67054-37.23984 5.57694-55.82336 5.71922-18.58039.10118-36.99637-1.54283-54.88756-4.78974l9.50043 1.80522c3.1679.60073 6.38003.93266 9.56683 1.4069 6.37368 1.02435 12.82006 1.41005 19.24433 2.00124 12.87696.72402 25.8235.96744 38.7289-.0158 12.92755-.68606 25.7729-2.61459 38.55818-4.96995 6.34207-1.44165 12.75998-2.6209 19.02302-4.4704 3.14257-.8789 6.3231-1.6472 9.44353-2.62408l9.34236-3.02876c-4.71704 1.4606-9.68064 3.39547-14.98256 4.81505-2.18779.64178-4.41354 1.29623-6.64239 1.95382 14.06884-3.77803 27.6161-8.46347 40.8155-14.2143 6.01642-2.62721 11.96961-5.4695 17.8659-8.55202-10.97687 5.81096-22.28889 10.97691-33.8728 15.40308-22.14974 8.28009-45.19425 13.9677-68.47901 17.01544-3.50932.5564-6.70879.7303-9.57628 1.03066-2.87071.28452-5.4189.53429-7.67627.75877-4.51785.35722-7.85328.51848-10.18649.77453-4.66959.4648-5.33353.8979-3.47453 1.25517 1.85582.35727 6.2314.64183 11.61234.79355 5.36513-.0316 11.72936-.3193 17.51812-.84731 58.16291-5.96583 111.56455-28.79218 154.35917-62.9653 42.82314-34.17942 75.62096-79.58236 93.90102-131.09967 1.14764-2.99087 2.0297-6.07653 2.98448-9.1369.92634-3.06985 1.95068-6.1081 2.78847-9.20642 1.55236-6.22822 3.3892-12.38377 4.57794-18.70686l1.957-9.43718 1.53965-9.52259.76195-4.76445.54378-4.79606 1.08124-9.59209c2.20677-25.65279 1.3342-51.5806-2.56717-77.02468-2.0866-14.39767-5.75401-31.49213-10.4805-46.71815-1.24882-3.78434-2.46917-7.47708-3.6358-11.01479-1.26458-3.49987-2.60827-6.80051-3.80332-9.90515-.61018-1.54915-1.19823-3.04143-1.761-4.47358-.63229-1.40373-1.23297-2.74738-1.80522-4.01832-1.16976-2.53239-2.21309-4.79288-3.10147-6.7151-9.90829-20.10427-22.35845-39.27903-36.93315-57.11327-14.5589-17.8406-31.28664-34.35967-50.14523-48.74468-2.36168-1.78947-4.72336-3.5852-7.09452-5.38412-2.44706-1.69142-4.90038-3.38602-7.35688-5.08376l-3.68639-2.54823-3.80332-2.3901c-2.54188-1.58711-5.08694-3.17418-7.64144-4.7676-10.41729-6.01958-21.08752-11.82105-32.33628-16.63287-11.13178-5.05215-22.78208-9.1527-34.64105-12.82006-5.99112-1.64401-11.95376-3.47775-18.09665-4.73916-3.0604-.66077-6.09547-1.46381-9.19062-2.01708-3.09515-.55014-6.19665-1.09705-9.30757-1.64719-22.25727-3.9171-45.40924-4.84975-68.5391-3.11087-23.11722 1.78625-46.3324 6.1745-68.59286 13.74954l-8.33068 2.88647c-2.7853.93901-5.46945 2.15618-8.21051 3.22159-2.7126 1.13501-5.48526 2.12775-8.1473 3.3797l-8.00502 3.7085c-2.69365 1.18875-5.2956 2.55455-7.8912 3.93612l-7.80588 4.10055-7.59403 4.4641c-2.52921 1.49223-5.0774 2.94973-7.4992 4.6095l-7.34739 4.83085c-2.4723 1.5713-4.76128 3.40818-7.14825 5.09638-2.3427 1.75154-4.77394 3.38288-7.03758 5.22921l-6.81945 5.49161c-2.30477 1.7863-4.4799 3.72427-6.64874 5.6655l-6.52227 5.78562-6.2314 6.067c-2.07398 2.02022-4.17008 4.01832-6.10175 6.16818-15.90576 16.74983-29.87977 35.02358-41.30873 54.35955-11.42896 19.33602-20.55955 39.54775-27.40112 59.9492-13.83178 40.84708-17.7995 82.2728-15.95313 119.68966-.39837-15.40304-.46476-37.49274 2.38062-59.29475zm446.19496 285.94898c9.60475-6.2156 18.86808-12.95285 27.71092-20.1991-8.9788 7.39484-18.20418 14.22375-27.71092 20.1991zm127.14779-171.6149c-.94532 2.84852-1.74519 5.66232-2.78847 8.34962-1.02121 2.69365-2.02657 5.34302-3.02562 7.97654l-1.4733 3.94565-1.62185 3.89184c-1.07176 2.60196-2.12453 5.22603-3.15205 7.90701-5.84253 14.56208-12.82956 28.71316-20.82508 42.2066-7.97028 13.51562-17.20831 26.18077-27.07864 38.06504-4.87508 6.00375-10.1865 11.5712-15.40939 17.1387-2.7284 2.66835-5.45047 5.33035-8.15992 7.97655-2.6778 2.68102-5.60856 5.07113-8.3844 7.60038-2.3269 2.02339-4.67277 4.0025-7.03445 5.95001 8.76379-7.21146 17.11344-14.91616 24.96356-23.11722-11.9791 12.39644-24.07832 22.77894-36.95528 32.2098-3.27535 2.28266-6.44007 4.72967-9.8419 6.87954-3.39233 2.1625-6.80678 4.33765-10.26555 6.54125-3.563 2.02653-7.1735 4.07521-10.84408 6.16182-3.68952 2.0487-7.58454 3.86972-11.48904 5.86468 2.26998-1.36262 5.24184-3.0098 8.48875-4.76763 3.22794-1.7926 6.61396-3.91081 9.92092-5.84883 3.33226-1.9001 6.36101-3.9867 8.87763-5.7319 2.51659-1.74514 4.48939-3.19315 5.51687-4.12898-1.46694.99591-2.95918 1.95069-4.4451 2.92126 1.59023-1.05277 3.18048-2.11504 4.76444-3.20895-.06639.0727-.2055.18655-.3193.2877 34.56195-23.60407 64.0054-54.622 86.06667-89.98385 22.15924-35.33025 36.57907-75.18463 42.55438-115.71562-1.29623 16.25663-4.2744 29.23795-8.0398 40.629zM595.3241 211.86678c-.92948-2.17512-1.8653-4.34397-2.91808-6.43058 1.06858 2.11194 1.99492 4.27126 2.91808 6.43058zm-26.7087-40.14525c9.56365 14.4356 17.77734 29.65212 24.57468 45.37442.79037 1.73574 1.53647 3.4967 2.27312 5.26086 15.69073 38.42536 22.82953 79.64562 21.78303 120.25246.26558-13.43655-.62598-26.86679-2.11504-40.18322-1.6851-15.34613-4.79924-30.50889-8.92822-45.33972-8.09989-29.74063-21.25506-57.92894-37.95433-83.62597 1.53338 2.11822 3.14892 4.41354 4.82136 6.84793 1.6946 2.42172 3.42394 4.99838 5.02685 7.78685l-2.01708-3.50614-2.1783-3.41131-4.3566-6.81628c-2.96553-4.50201-6.1808-8.83967-9.27595-13.25321-3.35755-4.2175-6.54125-8.5741-10.03472-12.68092-2.64306-3.01295-5.17549-6.12708-7.85647-9.10211 9.45933 9.97468 18.3401 20.67653 26.23767 32.39636zM346.5233 43.8561c4.63794.2466 9.28545.69868 13.93292 1.04646 3.8065.3193 7.59402.88206 11.34362 1.30572 1.12549.04746 2.31423.1233 3.80647.29087 1.48914.2055 3.26903.58802 5.59279 1.11917 17.29046 2.88334 33.06657 7.21782 44.26478 11.69454 21.49216 8.13467 41.4889 18.25477 59.62669 29.943 18.1441 11.6661 34.42602 24.93508 48.2009 39.42762 6.34838 6.88898 4.4957 5.38725.99587 2.04233a19816.46294 19816.46294 0 0 0 5.2545 5.57695c-2.32689-2.32054-4.61268-4.67273-6.9744-6.94271l-7.27468-6.60765c1.77044 1.54914 6.06382 5.25765 8.99458 7.97341-23.3606-23.83485-50.6669-43.62614-80.22415-58.18503-29.57937-14.55258-61.43195-23.54085-93.27186-27.12923 5.11536.56908 7.62563.69555 10.01578.75877-3.4303-.4015-6.87004-.9516-10.3509-1.26776-4.67593-.30668-9.34234-.72398-13.9835-.95164-4.64433-.11063-9.25384-.21812-13.78432-.32561 4.56527-.00318 9.19062.1233 13.83491.23079z"/><path d="M406.76965 624.11945c.4521-.13279.89473-.2624 1.34682-.39519-1.41004.37939-2.79796.7967-4.2175 1.1571.96113-.24025 1.9254-.47421 2.87068-.7619zm140.6318-121.8427c13.38913-17.66357 25.2196-38.77003 32.77252-56.95205l-.09169.01894c-19.16209 45.27964-50.24319 84.28678-89.02903 113.0062 7.51814-5.21654 14.3218-10.26869 20.29079-14.8687 8.52982-8.91556 22.8042-23.41442 36.0574-41.20443zm-395.4269 52.78194c22.6746 20.2718 50.0188 37.91322 80.45495 49.79745 11.86846 4.46727 23.9803 8.38127 36.36726 11.13813 6.14602 1.5871 12.4217 2.56718 18.64991 3.7338 3.12045.55327 6.282.85995 9.41824 1.30255 3.1426.40785 6.27885.86943 9.44357 1.05281-14.287-1.58397-28.46973-3.9551-42.27618-7.71419-13.79699-3.74642-27.32205-8.37808-40.36972-14.0657a307.93521 307.93521 0 0 1-37.60342-19.962c-11.9696-7.613-23.31958-16.11435-34.0846-25.28285zm279.88195 36.13956l-7.01546 2.75373-7.16405 2.39015c-4.74234 1.70723-9.63322 2.98448-14.51148 4.34075 4.90355-1.23297 9.83554-2.38375 14.61897-3.96454 2.41227-.73665 4.81818-1.47326 7.21778-2.20673 2.35854-.85995 4.70755-1.7199 7.05025-2.57667-.27185-.13914-1.87794.17389-.196-.73665zm-82.81348 17.98288c-3.66736.313-7.35374.28456-11.0464.32252-3.6927.04424-7.3917.12326-11.09385-.12016 1.78625.16758 3.45555.32562 4.98257.4679 1.52385.098 2.89597.21498 4.0942.35726 4.3661-.37307 8.70057-.47738 13.06348-1.02748zM202.84695 575.1756c4.23961 2.48815 8.74166 4.67908 13.20893 7.09452 1.11917.61331 3.14888 1.31204 5.69397 2.24152-5.44102-2.33638-10.65443-5.23235-15.95317-7.91969-2.62408-1.39423-5.15015-2.95604-7.72368-4.41032-2.56717-1.46698-5.12485-2.93075-7.55292-4.56845.9801.65759 1.96966 1.31835 2.9624 1.97912 1.0243.61335 2.05496 1.2267 3.0888 1.84637 2.0708 1.23297 4.16694 2.4818 6.27567 3.73693z"/></g><path d="M429.70326 194.17308H242.3862c-20.81603 13.39264-38.84544 31.42208-52.23812 52.23361v187.32155c13.39264 20.81153 31.42209 38.84544 52.23812 52.23812h187.31705c20.81152-13.39264 38.84543-31.42208 52.2336-52.23812V246.4067c-13.38817-20.81153-31.42208-38.84093-52.2336-52.2336zm25.46631 218.72566c0 .76078-.22062 1.50805-.62574 2.14734-11.04728 17.42619-26.10106 32.47996-43.52725 43.52725-.63925.40512-1.38655.62573-2.14733.62573H263.2022c-.75628 0-1.50358-.22061-2.14283-.62573-17.4307-11.04729-32.47997-26.10106-43.52275-43.52725-.40512-.63925-.62574-1.38656-.62574-2.14734V267.2317c0-.75627.21612-1.49457.62574-2.14283 11.04278-17.4307 26.09656-32.47997 43.52275-43.52275.63925-.40512 1.38205-.62573 2.14283-.62573h145.66705c.76078 0 1.50804.2161 2.14733.62573 17.4262 11.03828 32.47997 26.09656 43.52725 43.52275.40512.64826.62574 1.38205.62574 2.14283v145.66705z"/><path d="M381.58874 340.06972c0 7.04518 5.73072 12.78942 12.78942 12.78942 7.04075 0 12.78044-5.7397 12.78044-12.78942s-5.73523-12.78491-12.78044-12.78491c-7.0542 0-12.78942 5.73519-12.78942 12.78491zm-32.7591 58.33797c0-7.05423-5.7397-12.78942-12.78941-12.78942s-12.78492 5.73069-12.78492 12.78942c0 7.04067 5.7352 12.7804 12.78492 12.7804s12.78941-5.73973 12.78941-12.78044zm-25.57433-116.67144c0 7.04518 5.7352 12.78492 12.78492 12.78492s12.78941-5.73523 12.78941-12.78492c0-7.04521-5.7397-12.78044-12.78941-12.78044s-12.78492 5.73072-12.78492 12.78044zm-32.75913 58.33343c0-7.04518-5.7397-12.78491-12.78942-12.78491-7.04518 0-12.7804 5.73519-12.7804 12.7849s5.73522 12.78943 12.78044 12.78943c7.04968 0 12.78942-5.74424 12.78942-12.78942z"/><path d="M407.70777 228.931h-33.1102v25.57883l17.61528 17.60623c1.55308 1.56664 1.55308 4.0921 0 5.6587-.7878.7743-1.8097 1.16594-2.83159 1.16594-1.0264 0-2.04828-.39165-2.8181-1.16594l-18.77672-18.78121c-.19806-.1891-.36012-.38719-.50421-.61677-.07199-.0945-.10802-.19806-.16207-.30161-.07198-.13054-.14855-.2476-.21152-.38264-.04955-.13054-.08108-.26562-.11707-.40066-.03603-.12153-.07653-.22508-.10355-.34214-.0495-.25657-.08103-.52219-.08103-.7833v-27.23097h-26.56924v32.41699c9.55718 1.8727 16.78247 10.29543 16.78247 20.38385 0 11.46137-9.30957 20.77549-20.77099 20.77549-11.4569 0-20.78-9.31408-20.78-20.7755 0-10.09291 7.23427-18.51113 16.78248-20.38384v-32.41703h-26.56924v27.23097c0 .26561-.02252.53123-.07652.7833-.02252.10805-.06756.2116-.0945.32863-.04054.14405-.07207.27909-.13058.41417-.05405.12603-.12608.2476-.1891.36917-.06751.11252-.10354.22057-.17557.31508-.13504.2071-.2926.40065-.47268.58524-.009.0045-.01347.01351-.02252.03153l-18.77671 18.77671c-.7833.7788-1.8052 1.17044-2.82708 1.17044-1.0264 0-2.04829-.39165-2.82258-1.17044-1.5666-1.5666-1.5666-4.09207 0-5.65416l17.60627-17.6063v-25.57884h-33.11475c-15.70654 10.14692-29.31528 23.75563-39.46667 39.47117v33.11025h25.57883l17.60632-17.61074c1.56655-1.55762 4.09202-1.55762 5.65866 0 1.55759 1.56656 1.55759 4.09203 0 5.65867l-18.78126 18.77671c-.01347.009-.02252.01351-.03149.02252-.18458.17554-.37813.32413-.58524.46818-.0945.06752-.2071.11252-.31062.17103-.12152.07206-.23859.14409-.37363.1981-.13058.054-.27462.09004-.40966.13053-.11256.03153-.21157.07203-.33314.09455-.25657.054-.52219.07653-.7833.07653h-27.23093v26.56923h32.41695c1.87275-9.54817 10.29548-16.78247 20.38385-16.78247 11.46141 0 20.7755 9.31858 20.7755 20.78004 0 11.46137-9.31409 20.77095-20.7755 20.77095-10.09288 0-18.51114-7.22977-20.38385-16.78244h-32.41695v26.5692H252.155c.26562 0 .53123.02252.7833.08553.12157.02703.22962.06756.34214.09905.13504.0405.27008.06752.40066.11703.13504.06305.26558.13954.39165.2116.0945.05401.19806.0945.2926.16207.22058.13954.42318.30611.61673.50417l18.78126 18.7677c1.55759 1.56214 1.55759 4.0876 0 5.6587-.78334.7743-1.80523 1.16595-2.83163 1.16595-1.02185 0-2.04378-.39165-2.82707-1.16594l-17.60627-17.61528h-25.57884v33.1102c10.14692 15.70658 23.75563 29.3198 39.46667 39.46672h33.11475V425.6161l-17.6063-17.60632c-1.56656-1.57106-1.56656-4.09202 0-5.64515 1.56212-1.5711 4.0876-1.5711 5.6542 0l18.7677 18.7677c.18908.1936.36466.3872.5042.61678.06302.0945.10806.2071.16657.30611.07203.12603.14405.2431.1981.38264.05851.12157.09004.27463.13054.40516.03152.11256.07202.22508.0945.33314.05405.25657.07657.51768.07657.7833v27.23097h26.5692v-32.40798c-9.54813-1.8637-16.78244-10.29544-16.78244-20.38385 0-11.46137 9.31858-20.78446 20.78-20.78446 11.46141 0 20.77099 9.32309 20.77099 20.78446 0 10.08841-7.2208 18.52014-16.78248 20.38385v32.40798h26.56924v-27.23097c0-.26562.03153-.51772.08103-.7833.0315-.11702.07653-.23409.10356-.34214.0405-.13955.07198-.27459.11702-.40517a15.84918 15.84918 0 0 0 .21157-.3961c.05405-.0946.09454-.1936.16206-.28364.1441-.22963.31512-.42318.50421-.61673l18.77671-18.7677c1.55309-1.57115 4.07856-1.57115 5.6497 0 1.55308 1.55308 1.55308 4.07404 0 5.64515l-17.61528 17.60627v25.57433h33.1102c15.70208-10.14693 29.3198-23.75563 39.46672-39.46668v-33.11024H421.6047l-17.60631 17.61528c-.7833.77429-1.80519 1.16594-2.82708 1.16594-1.0264 0-2.04378-.39165-2.81807-1.16594-1.5711-1.5711-1.5711-4.09657 0-5.65867l18.7677-18.7677c.1891-.18909.38715-.36016.61677-.50421.0945-.07203.20256-.10806.2926-.16207.13054-.07202.25657-.14855.38715-.2116.13053-.05401.26562-.08104.40516-.11703.11702-.03603.22508-.07653.3421-.09905.25661-.06301.51773-.08553.78334-.08553h27.23097v-26.5692h-32.41699c-1.8547 9.54813-10.28647 16.78244-20.37484 16.78244-11.47038 0-20.78446-9.30958-20.78446-20.771 0-11.4569 9.31408-20.78 20.78446-20.78 10.08837 0 18.52015 7.23431 20.37484 16.78248h32.41699v-26.56923h-27.23097c-.26561 0-.51772-.02252-.78334-.07653-.11702-.02252-.22508-.06756-.3421-.10356-.13954-.0405-.27463-.06301-.40516-.12152-.13054-.05401-.2476-.13504-.37814-.1981-.09905-.05851-.2116-.10351-.3016-.16653-.22963-.1531-.42318-.31512-.61678-.5042l-18.7677-18.76771c-1.5711-1.56664-1.5711-4.09211 0-5.6587 1.55308-1.5576 4.07405-1.5576 5.64519 0l17.60627 17.61077h25.57433v-33.1102c-10.15143-15.70659-23.76464-29.3198-39.47118-39.47122zm-85.24923 115.12727h-11.9881c-2.20134 0-3.99306-1.7827-3.99306-3.99305s1.79172-3.99753 3.99306-3.99753h11.9881c2.20585 0 3.99753 1.78718 3.99753 3.99753s-1.79168 3.99301-3.99753 3.99301zm17.57475 21.57677c0 2.20585-1.78267 4.00207-3.99302 4.00207s-3.99753-1.79172-3.99753-4.00207v-11.9791c0-2.20584 1.78718-4.00202 3.99753-4.00202s3.99302 1.79168 3.99302 4.00203v11.9791zm0-39.15155c0 2.20585-1.78267 3.99302-3.99302 3.99302s-3.99753-1.78713-3.99753-3.99302v-11.9881c0-2.20585 1.78718-3.99306 3.99753-3.99306s3.99302 1.78721 3.99302 3.99306v11.9881zm21.5768 17.57474H349.631c-2.20584 0-4.00202-1.78266-4.00202-3.99301s1.79168-3.99753 4.00203-3.99753h11.9791c2.20584 0 4.00206 1.78718 4.00206 3.99753s-1.79622 3.99301-4.00207 3.99301zm-186.19164-82.49872h-30.67032c-2.20584 0-3.99752 1.78718-3.99752 3.99306 0 2.20585 1.79168 3.99753 3.99752 3.99753h30.67032c2.20584 0 3.99752-1.79168 3.99752-3.99753-.0045-2.20588-1.79168-3.99306-3.99752-3.99306zm0 29.80599h-30.67032c-2.20584 0-3.99752 1.78717-3.99752 3.99301s1.79168 3.99757 3.99752 3.99757h30.67032c2.20584 0 3.99752-1.78722 3.99752-3.99757s-1.79168-3.99301-3.99752-3.99301zm0 29.80594h-30.67032c-2.20584 0-3.99752 1.78721-3.99752 3.99756 0 2.20585 1.79168 3.99302 3.99752 3.99302h30.67032c2.20584 0 3.99752-1.78717 3.99752-3.99302s-1.79168-3.99756-3.99752-3.99756zm0 29.80598h-30.67032c-2.20584 0-3.99752 1.78717-3.99752 3.99302 0 2.20584 1.79168 4.00657 3.99752 4.00657h30.67032c2.20584 0 3.99752-1.79622 3.99752-4.00657-.0045-2.20585-1.79168-3.99302-3.99752-3.99302zm0 29.81045h-30.67032c-2.20584 0-3.99752 1.7827-3.99752 3.99305s1.79168 3.99302 3.99752 3.99302h30.67032c2.20584 0 3.99752-1.7827 3.99752-3.99302s-1.79168-3.99305-3.99752-3.99305zm0 29.80147h-30.67032c-2.20584 0-3.99752 1.78271-3.99752 3.99306 0 2.21482 1.79168 4.00203 3.99752 4.00203h30.67032c2.20584 0 3.99752-1.78271 3.99752-4.00203-.0045-2.21035-1.79168-3.99306-3.99752-3.99306zM496.662 269.5501h30.67932c2.20584 0 3.99302-1.79168 3.99302-3.99753 0-2.20588-1.78271-3.99306-3.99302-3.99306H496.662c-2.20585 0-3.99302 1.78718-3.99302 3.99306 0 2.20585 1.78717 3.99753 3.99302 3.99753zm30.67932 21.8154H496.662c-2.20585 0-3.99302 1.78717-3.99302 3.99301s1.7827 3.99757 3.99302 3.99757h30.67932c2.20584 0 3.99302-1.78722 3.99302-3.99757s-1.78271-3.99301-3.99302-3.99301zm0 29.80594H496.662c-2.20585 0-3.99302 1.78721-3.99302 3.99756 0 2.20585 1.7827 3.99302 3.99302 3.99302h30.67932c2.20584 0 3.99302-1.78717 3.99302-3.99302s-1.78271-3.99756-3.99302-3.99756zm0 29.80598H496.662c-2.20585 0-3.99302 1.78717-3.99302 3.99302 0 2.20584 1.7827 4.00657 3.99302 4.00657h30.67932c2.20584 0 3.99302-1.79622 3.99302-4.00657 0-2.20585-1.78271-3.99302-3.99302-3.99302zm0 29.81045H496.662c-2.20585 0-3.99302 1.7827-3.99302 3.99305s1.7827 3.99302 3.99302 3.99302h30.67932c2.20584 0 3.99302-1.7827 3.99302-3.99302s-1.78271-3.99305-3.99302-3.99305zm0 29.80147H496.662c-2.20585 0-3.99302 1.78271-3.99302 3.99306 0 2.21482 1.7827 4.00203 3.99302 4.00203h30.67932c2.20584 0 3.99302-1.78271 3.99302-4.00203 0-2.21035-1.78271-3.99306-3.99302-3.99306zm-265.81379 86.10914c-2.20584 0-3.99301 1.78271-3.99301 3.99302v30.67932c0 2.20585 1.78717 3.99302 3.99301 3.99302 2.20589 0 3.99757-1.78271 3.99757-3.99302V500.6915c0-2.21035-1.79168-3.99302-3.99757-3.99302zm29.80599 0c-2.20585 0-3.99302 1.78271-3.99302 3.99302v30.67932c0 2.20585 1.78717 3.99302 3.99302 3.99302s3.99752-1.78271 3.99752-3.99302V500.6915c-.00447-2.21035-1.79168-3.99302-3.99752-3.99302zm29.80598 0c-2.20585 0-3.99756 1.78271-3.99756 3.99302v30.67932c0 2.20585 1.7872 3.99302 3.99756 3.99302s3.99302-1.78271 3.99302-3.99302V500.6915c0-2.21035-1.78718-3.99302-3.99302-3.99302zm29.80144 0c-2.20135 0-3.99302 1.78271-3.99302 3.99302v30.67932c0 2.20585 1.78717 3.99302 3.99302 3.99302 2.20584 0 4.00657-1.78271 4.00657-3.99302V500.6915c-.0045-2.21035-1.80073-3.99302-4.00657-3.99302zm29.81048 0c-2.20584 0-3.99306 1.78271-3.99306 3.99302v30.67932c0 2.20585 1.78271 3.99302 3.99306 3.99302s3.99302-1.78271 3.99302-3.99302V500.6915c0-2.21035-1.78717-3.99302-3.99302-3.99302zm29.80148 0c-2.20589 0-3.99306 1.78271-3.99306 3.99302v30.67932c0 2.20585 1.78271 3.99302 3.99306 3.99302s4.00203-1.78271 4.00203-3.99302V500.6915c0-2.21035-1.79618-3.99302-4.00203-3.99302zM261.52754 183.44096c2.20589 0 3.99757-1.78717 3.99757-3.99752v-30.67032c0-2.21035-1.79168-3.99752-3.99757-3.99752-2.20584 0-3.99301 1.78717-3.99301 3.99752v30.67032c0 2.20584 1.78717 3.99752 3.99301 3.99752zm29.80599 0c2.20584 0 3.99752-1.78717 3.99752-3.99752v-30.67032c0-2.21035-1.78713-3.99752-3.99752-3.99752s-3.99302 1.78717-3.99302 3.99752v30.67032c-.0045 2.20584 1.7827 3.99752 3.99302 3.99752zm29.80598 0c2.20584 0 3.99302-1.78717 3.99302-3.99752v-30.67032c0-2.21035-1.78718-3.99752-3.99302-3.99752s-3.99756 1.78717-3.99756 3.99752v30.67032c0 2.20584 1.79171 3.99752 3.99756 3.99752zm29.80144 0c2.20584 0 4.00657-1.78717 4.00657-3.99752v-30.67032c0-2.21035-1.79622-3.99752-4.00657-3.99752-2.20135 0-3.99302 1.78717-3.99302 3.99752v30.67032c0 2.20584 1.79167 3.99752 3.99302 3.99752zm29.81048 0c2.20585 0 3.99302-1.78717 3.99302-3.99752v-30.67032c0-2.21035-1.7827-3.99752-3.99302-3.99752s-3.99306 1.78717-3.99306 3.99752v30.67032c0 2.20584 1.78722 3.99752 3.99306 3.99752zm29.80148 0c2.20585 0 4.00203-1.78717 4.00203-3.99752v-30.67032c0-2.21035-1.79168-3.99752-4.00203-3.99752s-3.99306 1.78717-3.99306 3.99752v30.67032c0 2.20584 1.78717 3.99752 3.99306 3.99752z"/><path d="M660.86372 196.02798h126.74002c68.08347 0 111.55217 51.84815 111.55217 116.26562 0 60.22765-44.51613 119.40795-113.64706 119.40795H670.8144v131.45348c0 5.23718-2.61861 7.85579-8.3795 7.85579h-26.70966c-5.76093 0-8.37954-2.61861-8.37954-7.85579V397.65978c0-5.23722 3.66603-8.90325 8.3795-8.90325l151.35483.52371c37.70777-2.61856 69.6546-37.70777 69.6546-74.89182 0-38.7552-32.47055-75.41554-72.27321-75.41554h-123.5977c-5.23717 0-8.3795-3.66603-8.3795-7.85578v-26.18596c0-5.23717 3.66604-8.9032 8.3795-8.9032zm348.32553 0h27.23342c6.80832 0 8.90321 3.66603 8.90321 8.3795v358.74751c0 5.23722-3.66603 7.85583-8.9032 7.85583h-27.23343c-5.23717 0-7.85578-2.61861-7.85578-7.85579V203.88376c0-4.71346 3.66604-7.85578 7.85578-7.85578zm351.99161 187.49142C1485.826 565.77364 1486.3497 567.34478 1486.3497 568.3922c0 1.57119-1.04743 2.0949-3.66604 2.0949h-37.70776c-5.23718 0-8.90321-2.6186-13.09296-8.3795l-97.41175-143.499-97.41174 143.499c-4.18979 5.7609-7.85582 8.3795-12.56928 8.3795h-38.23149c-2.6186 0-3.66603-.52371-3.66603-2.0949 0-1.04742.52371-2.61856 125.6926-185.39652-125.16885-182.77796-125.6926-184.34914-125.6926-185.39656s1.04743-2.09486 3.66603-2.09486h38.23153c4.71342 0 8.9032 2.61857 12.56924 8.3795l97.41174 143.499 97.41175-143.499c4.18975-5.76093 7.85578-8.3795 13.09296-8.3795h37.70776c2.61861 0 3.66604 1.04743 3.66604 2.09486s-.52371 2.6186-125.16884 185.92028zm235.20223-187.49142h27.23338c6.80835 0 8.90324 3.66603 8.90324 8.3795v358.74751c0 5.23722-3.66603 7.85583-8.90324 7.85583h-27.23338c-5.23718 0-7.85579-2.61861-7.85579-7.85579V203.88376c0-4.71346 3.66604-7.85578 7.85579-7.85578zm400.17372 374.98284h-218.91455c-5.23721 0-7.85578-2.61861-7.85578-7.85579V203.88376c0-5.76093 3.66604-7.85578 8.3795-7.85578h26.70966c5.23718 0 7.85579 3.14232 7.85579 7.85578v323.65836h183.82538c5.23722 0 7.85578 4.7135 7.85578 8.90325v26.70966c-.52371 4.71346-3.14232 7.33207-7.85578 7.85579zm117.88917-374.98284h27.23338c6.80835 0 8.90325 3.66603 8.90325 8.3795v358.74751c0 5.23722-3.66604 7.85583-8.90325 7.85583h-27.23338c-5.23717 0-7.85578-2.61861-7.85578-7.85579V203.88376c0-4.71346 3.66603-7.85578 7.85578-7.85578zm199.58935 279.66599c-8.3795-14.66414 8.3795 14.14038 0 0-23.04363-39.27895-30.89946-85.88993-23.56739-130.92977 10.9981-63.89376 54.99052-118.88424 115.2182-144.54648 62.32259-26.18595 134.5958-18.33017 189.0626 21.4725 5.7609 4.18974 6.80832 6.80831 4.18975 11.52181l-13.093 21.47245c-4.18974 6.28465-9.42692 7.85583-14.66413 3.14236-24.09106-18.85392-53.94305-26.70966-84.31875-28.80456-60.7514 0-118.36052 34.56545-143.499 91.1271-26.18596 59.18027-9.95068 130.92977 40.32633 172.30358 49.75334 41.89751 122.02656 45.03983 187.49142 3.66603 5.76093-3.66603 8.3795-4.18975 12.56928 2.6186 0 0 14.14043 23.56735 14.66414 24.61478 2.61857 4.7135-1.04747 8.3795-5.23722 11.52186-43.99237 32.47055-101.07777 43.46865-154.4971 31.42312-52.37191-11.52185-97.93546-44.51612-124.64513-90.60338zm568.81126-273.3814s153.9734 355.60525 153.9734 356.129c1.57118 3.66604 1.57118 4.71346 1.57118 6.2846 0 4.18975-3.14236 6.28465-8.90325 6.28465h-316.85005c-5.76088 0-9.95067-3.14233-9.95067-7.85579 0-1.57118 0-3.14232 1.04746-4.71346l156.0683-356.129c2.6186-5.23717 5.23717-6.8083 10.9981-6.8083h1.57118c6.80832 0 7.85574 1.57113 10.47435 6.8083zm-11.52182 74.89187L2765.00982 526.4947h212.1062z"/></g></svg>