<svg xmlns="http://www.w3.org/2000/svg" role="img" viewBox="-10.01 -10.01 520.52 135.52"><g fill="#eb1c26" fill-opacity="1" fill-rule="nonzero" stroke="none" transform="matrix(1.33333 0 0 -1.33333 0 116.027) scale(.1)"><path d="M3755.08 7.22266V147.563h-329.92l238.71 277.121c58.79 68.398 91.21 112.765 91.21 195.558 0 153.528-107.98 248.321-259.14 248.321-146.38 0-260.32-93.575-260.32-249.54h155.95c0 82.801 52.81 109.196 104.37 109.196 65.96 0 103.17-43.199 103.17-106.797 0-39.574-13.18-65.961-44.38-103.152l-319.11-370.707V7.22266zM3120.48 269.945h-169.16c-16.81-68.386-60.01-121.179-143.97-121.179-45.61 0-82.78 16.804-106.8 44.382-32.36 35.989-41.99 76.797-41.99 241.145 0 164.328 9.63 205.137 41.99 241.113 24.02 27.586 61.19 44.379 106.8 44.379 83.96 0 127.16-52.777 143.97-121.164h169.16c-30.03 178.758-154.79 269.942-314.35 269.942-93.59 0-170.37-33.579-230.31-93.575-86.41-86.367-83.99-193.14-83.99-340.695 0-147.559-2.42-254.316 83.99-340.7227C2635.76 33.6094 2712.54.0039 2806.13.0039c158.37 0 284.32 91.1719 314.35 269.9411M2416.09 7.22266V155.953h-387.5v705.395h-166.74V7.22266zM1554.77 595.055c0-69.606-48.02-116.379-123.58-116.379h-155.98v233.922h155.98c75.56 0 123.58-47.981 123.58-117.543m166.73 0c0 145.144-105.54 266.293-281.91 266.293h-331.11V7.22266h166.73V328.707h164.38c176.37 0 281.91 121.172 281.91 266.348"/><path d="M0 4.98438h865.211V870.199H0zM7.47656 862.723H857.75V12.457H7.47656v850.266"/><path d="M3.73047 652.039H218.168v214.43H3.73047v-214.43"/><path d="M0 648.301h221.91v221.898H0zm7.47656 214.422H214.43V655.77H7.47656v206.953"/><path d="M214.43 648.301h221.918v221.898H214.43zm7.48 214.422h206.961V655.77H221.91v206.953"/><path d="M428.871 648.301h221.906v221.898H428.871zm7.477 214.422h206.953V655.77H436.348v206.953"/><path d="M643.301 648.301h221.91v221.898h-221.91zm7.476 214.422h206.961V655.77H650.777v206.953"/><path d="M0 433.871h221.91v221.91H0zm7.47656 214.43H214.43V441.344H7.47656v206.957"/><path d="M436.348 433.871h-221.91v221.91h221.91zm-214.45 7.461h206.969v206.969H221.898V441.332"/><path d="M647.043 437.602H432.605v214.437h214.438V437.602"/><path d="M650.777 433.871H428.871v221.91h221.906zm-214.429 7.461h206.965v206.969H436.348V441.332"/><path d="M865.219 433.871H643.313v221.91h221.906zm-214.442 7.461h206.961v206.969H650.777V441.332"/><path d="M3.73047 223.168H218.168v214.434H3.73047V223.168"/><path d="M0 219.438h221.91v221.906H0zm7.47656 214.433H214.43V226.91H7.47656v206.961"/><path d="M436.348 219.438h-221.91v221.906h221.91zm-214.45 7.46h206.969v206.965H221.898V226.898"/><path d="M650.777 219.438H428.871v221.906h221.906zm-214.429 7.46h206.965v206.965H436.348V226.898"/><path d="M865.219 219.438H643.313v221.906h221.906zm-214.442 7.46h206.961v206.965H650.777V226.898"/><path d="M0 4.99609h221.91V226.91H0zM7.47656 219.438H214.43V12.4648H7.47656V219.438"/><path d="M214.43 4.99609h221.918V226.91H214.43zm7.48 214.44191h206.961V12.4648H221.91V219.438"/><path d="M428.871 4.99609h221.906V226.91H428.871zm7.477 214.44191h206.953V12.4648H436.348V219.438"/><path d="M647.043 8.72656H861.48V223.168H647.043V8.72656"/><path d="M643.301 4.99609h221.91V226.91h-221.91zm7.476 214.44191h206.961V12.4648H650.777V219.438"/></g></svg>