<?xml version="1.0" encoding="utf-8"?>
<!-- Generator: Adobe Illustrator 25.2.1, SVG Export Plug-In . SVG Version: 6.00 Build 0)  -->
<svg version="1.1" id="Warstwa_1" xmlns="http://www.w3.org/2000/svg" xmlns:xlink="http://www.w3.org/1999/xlink" x="0px" y="0px"
	 viewBox="0 0 293.4 114" style="enable-background:new 0 0 293.4 114;" xml:space="preserve">
<style type="text/css">
	.st0{fill:#00B6ED;}
	.st1{fill:#FFFFFF;}
</style>
<g>
	<g>
		<g>
			<polygon class="st0" points="29.4,50.3 29.4,45.9 26.5,45.9 22.1,45.9 22.1,68 26.5,68 29.4,68 29.4,63.7 26.5,63.7 26.5,50.3 
							"/>
		</g>
		<path d="M32,22.1h9.8c2.6,0,4.6,0.7,6,2.1c1.3,1.4,2.1,3.1,2.1,5.3c0,4.2-2.9,7.2-7.5,7.2h-5.3v7.5H32V22.1z M37.1,32.7h4.3
			c2.2,0,3.3-1.2,3.3-3.1c0-1.9-1.2-3.1-3.3-3.1h-4.4V32.7z"/>
		<path d="M51.9,33.2c0-6.7,4.3-11.6,11-11.6c6.7,0,11,4.9,11,11.6c0,6.7-4.3,11.6-11,11.6C56.2,44.8,51.9,39.9,51.9,33.2z
			 M68.7,33.2c0-4.2-1.9-7.5-5.8-7.5c-3.9,0-5.8,3.3-5.8,7.5c0,4.2,2,7.4,5.8,7.4C66.8,40.6,68.7,37.4,68.7,33.2z"/>
		<path d="M76.8,22.1h5.1v17.7h10.3v4.4H76.8V22.1z"/>
		<path d="M94.9,22.1h5.1v22.1h-5.1V22.1z"/>
		<path d="M32,45.9h18.4v4.4h-6.7V68h-5.1V50.3H32V45.9z"/>
		<path d="M53.2,45.9H70v4.3H58.3v4.4h10.1v4H58.3v5h11.8V68H53.2V45.9z"/>
		<path d="M71.4,57c0-6.7,4.3-11.6,10.9-11.6c2.5,0,4.6,0.6,6.1,1.7c2,1.5,3.2,3.7,3.4,6.2h-5.1c-0.3-2.1-2-3.7-4.5-3.7
			c-3.8,0-5.7,3.1-5.7,7.4c0,4.3,2.2,7.4,5.7,7.4c2.7,0,4.4-1.8,4.6-4.1h5.1c-0.2,2.2-1.2,4.3-2.7,5.8c-1.7,1.7-4,2.5-7.1,2.5
			C75.8,68.6,71.4,63.7,71.4,57z"/>
		<path d="M94.9,45.9h5.1v8.6h8.4v-8.6h5.1V68h-5.1v-9.2H100V68h-5.1V45.9z"/>
		<path d="M55.6,69.7h5.1v22.1h-5.1V69.7z"/>
		<g>
			<polygon class="st0" points="116.1,45.9 122.5,57 116.1,68 121.5,68 127.6,57 121.5,45.9 			"/>
		</g>
		<path d="M45.9,69.7v8.9c0,2.5,0.3,6.5,0.3,6.5h-0.1c0,0-1.7-3.6-3.1-5.9l-5.8-9.6H32v22.1h4.9V83c0-2.5-0.3-6.6-0.3-6.6h0.1
			c0,0,1.7,3.7,3.1,6l5.8,9.5h5.3V69.7H45.9z"/>
		<path d="M84.9,69.7h-6.1l-8.2,8.8c0.1-1.2,0.2-3.2,0.2-5.3v-3.6h-5.1v22.1h5.1V84l2-2.1l6.7,10h6l-9.1-13.2L84.9,69.7z"/>
		<path d="M95,69.7l-8,22.1h5.1l1.3-4.2h8.1l1.4,4.2h5.4l-8-22.1H95z M94.7,84l1.4-4.2c0.7-2.2,1.5-5.9,1.5-5.9h0.1
			c0,0,0.5,2.9,1.4,5.9l1.4,4.2H94.7z"/>
	</g>
	<g>
		<path d="M146.7,52.5V57h-2.5V44.5h4.8c1.4,0,2.6,0.4,3.4,1.1c0.8,0.7,1.2,1.7,1.2,2.9c0,1.2-0.4,2.1-1.2,2.9
			c-0.8,0.7-1.9,1.1-3.4,1.1H146.7z M146.7,50.6h2.3c0.7,0,1.2-0.2,1.6-0.6c0.4-0.4,0.5-0.9,0.5-1.4c0-0.6-0.2-1.1-0.5-1.5
			c-0.4-0.4-0.9-0.6-1.6-0.6h-2.3V50.6z"/>
		<path d="M155.1,52.3c0-1.4,0.4-2.5,1.2-3.4c0.8-0.9,1.8-1.3,3.2-1.3c1.4,0,2.4,0.4,3.2,1.3c0.8,0.9,1.2,2,1.2,3.4v0.2
			c0,1.4-0.4,2.5-1.2,3.4c-0.8,0.9-1.8,1.3-3.2,1.3c-1.4,0-2.4-0.4-3.2-1.3c-0.8-0.9-1.2-2-1.2-3.4V52.3z M157.5,52.5
			c0,0.8,0.1,1.5,0.4,2c0.3,0.5,0.8,0.8,1.4,0.8c0.6,0,1.1-0.3,1.4-0.8c0.3-0.5,0.4-1.2,0.4-2v-0.2c0-0.8-0.2-1.5-0.5-2
			c-0.3-0.5-0.8-0.8-1.4-0.8c-0.6,0-1.1,0.3-1.4,0.8c-0.3,0.5-0.4,1.2-0.4,2V52.5z"/>
		<path d="M168.4,57h-2.5V43.7h2.5V57z"/>
		<path d="M173.5,45.5H171v-1.9h2.5V45.5z M173.5,57H171v-9.2h2.5V57z"/>
		<path d="M179,45.5v2.3h1.6v1.8H179v4.7c0,0.4,0.1,0.6,0.2,0.8c0.2,0.2,0.3,0.2,0.6,0.2c0.1,0,0.2,0,0.3,0c0.1,0,0.2,0,0.3-0.1
			l0.2,1.8c-0.3,0.1-0.5,0.1-0.7,0.2c-0.2,0-0.5,0.1-0.8,0.1c-0.9,0-1.5-0.2-2-0.7c-0.5-0.5-0.7-1.2-0.7-2.2v-4.7h-1.3v-1.8h1.3
			v-2.3H179z"/>
		<path d="M186.5,57.2c-1.4,0-2.5-0.4-3.2-1.3c-0.8-0.8-1.2-1.9-1.2-3.3v-0.3c0-1.4,0.4-2.5,1.1-3.4c0.8-0.9,1.8-1.3,3.1-1.3
			c1.2,0,2.2,0.4,2.9,1.1c0.7,0.8,1,1.8,1,3.1v1.3h-5.5l0,0.1c0,0.6,0.2,1.1,0.6,1.5c0.3,0.4,0.9,0.6,1.5,0.6c0.6,0,1-0.1,1.4-0.2
			c0.4-0.1,0.8-0.3,1.2-0.5l0.7,1.5c-0.4,0.3-0.9,0.6-1.5,0.8C188,57.1,187.3,57.2,186.5,57.2z M186.4,49.5c-0.5,0-0.9,0.2-1.2,0.5
			c-0.3,0.3-0.4,0.8-0.5,1.4l0,0h3v-0.2c0-0.5-0.1-1-0.3-1.3C187.2,49.6,186.9,49.5,186.4,49.5z"/>
		<path d="M196,55.3c0.4,0,0.8-0.1,1-0.4c0.3-0.3,0.4-0.6,0.4-1h2.3l0,0.1c0,0.9-0.3,1.7-1,2.3s-1.6,0.9-2.7,0.9
			c-1.4,0-2.4-0.4-3.2-1.3c-0.7-0.9-1.1-2-1.1-3.4v-0.3c0-1.4,0.4-2.5,1.1-3.4c0.7-0.9,1.8-1.3,3.2-1.3c1.1,0,2,0.3,2.7,1
			s1,1.5,1,2.6l0,0.1h-2.3c0-0.5-0.1-0.9-0.4-1.2c-0.3-0.3-0.6-0.5-1.1-0.5c-0.6,0-1.1,0.3-1.4,0.8c-0.3,0.5-0.4,1.2-0.4,2v0.3
			c0,0.8,0.1,1.5,0.4,2C194.8,55,195.3,55.3,196,55.3z"/>
		<path d="M204,48.9c0.3-0.4,0.6-0.8,1.1-1c0.4-0.2,0.9-0.4,1.4-0.4c1,0,1.7,0.3,2.3,1c0.6,0.6,0.8,1.6,0.8,3V57h-2.5v-5.5
			c0-0.7-0.1-1.2-0.3-1.5c-0.2-0.3-0.6-0.4-1-0.4c-0.4,0-0.7,0.1-1,0.2s-0.5,0.3-0.7,0.5V57h-2.5V43.7h2.5V48.9z"/>
		<path d="M214.2,47.7l0.1,1.3c0.3-0.5,0.7-0.8,1.1-1.1c0.4-0.3,1-0.4,1.5-0.4c0.9,0,1.7,0.3,2.2,0.9c0.5,0.6,0.8,1.6,0.8,2.9V57
			h-2.5v-5.7c0-0.7-0.1-1.1-0.3-1.4c-0.2-0.3-0.6-0.4-1-0.4c-0.4,0-0.7,0.1-1,0.2c-0.3,0.1-0.5,0.3-0.7,0.6V57h-2.5v-9.2H214.2z"/>
		<path d="M224.8,45.5h-2.5v-1.9h2.5V45.5z M224.8,57h-2.5v-9.2h2.5V57z"/>
		<path d="M230.4,53.1h-0.6V57h-2.5V43.7h2.5v7.6h0.6l2.2-3.5h2.9l-3,4.2l3.4,5H233L230.4,53.1z"/>
		<path d="M242.6,57c-0.1-0.2-0.2-0.4-0.2-0.7c-0.1-0.2-0.1-0.5-0.1-0.7c-0.3,0.5-0.6,0.8-1,1.1c-0.4,0.3-0.9,0.4-1.5,0.4
			c-1,0-1.7-0.2-2.2-0.7c-0.5-0.5-0.8-1.2-0.8-2c0-0.9,0.3-1.6,1-2.1c0.7-0.5,1.7-0.7,3.1-0.7h1.4v-0.7c0-0.4-0.1-0.8-0.4-1
			c-0.2-0.2-0.6-0.4-1-0.4c-0.4,0-0.7,0.1-0.9,0.3c-0.2,0.2-0.3,0.5-0.3,0.8h-2.4l0-0.1c0-0.8,0.3-1.5,1-2c0.7-0.6,1.7-0.9,2.8-0.9
			c1.1,0,2,0.3,2.7,0.8c0.7,0.6,1,1.4,1,2.4v3.8c0,0.4,0,0.8,0.1,1.2c0.1,0.4,0.2,0.8,0.3,1.1H242.6z M240.3,55.3
			c0.4,0,0.8-0.1,1.2-0.3c0.3-0.2,0.6-0.5,0.7-0.8v-1.3h-1.4c-0.5,0-0.9,0.1-1.2,0.4c-0.3,0.3-0.4,0.6-0.4,1c0,0.3,0.1,0.6,0.3,0.7
			C239.7,55.2,239.9,55.3,240.3,55.3z"/>
	</g>
	<g>
		<path d="M153.5,70.4L153.5,70.4c0,1.4-0.4,2.4-1.2,3.2c-0.8,0.8-2,1.1-3.4,1.1c-1.5,0-2.7-0.5-3.6-1.4c-0.9-1-1.4-2.2-1.4-3.7V67
			c0-1.5,0.4-2.8,1.3-3.7c0.9-1,2.1-1.4,3.5-1.4c1.5,0,2.7,0.4,3.6,1.1c0.9,0.7,1.3,1.8,1.2,3.1l0,0.1h-2.4c0-0.8-0.2-1.4-0.6-1.8
			s-1-0.6-1.8-0.6c-0.7,0-1.3,0.3-1.7,0.9c-0.4,0.6-0.6,1.4-0.6,2.3v2.5c0,1,0.2,1.7,0.7,2.3c0.4,0.6,1.1,0.9,1.8,0.9
			c0.7,0,1.3-0.2,1.7-0.6c0.4-0.4,0.6-1,0.6-1.8H153.5z"/>
		<path d="M158.3,72.6h4.6v1.9h-7.7V73l4.4-5.8h-4.3v-1.9h7.4v1.4L158.3,72.6z"/>
		<path d="M168.8,74.7c-1.4,0-2.5-0.4-3.2-1.3c-0.8-0.8-1.2-1.9-1.2-3.3v-0.3c0-1.4,0.4-2.5,1.1-3.4c0.8-0.9,1.8-1.3,3.1-1.3
			c1.2,0,2.2,0.4,2.9,1.1c0.7,0.8,1,1.8,1,3.1v1.3H167l0,0.1c0,0.6,0.2,1.1,0.6,1.5c0.3,0.4,0.9,0.6,1.5,0.6c0.6,0,1-0.1,1.4-0.2
			c0.4-0.1,0.8-0.3,1.2-0.5l0.7,1.5c-0.4,0.3-0.9,0.6-1.5,0.8C170.2,74.6,169.5,74.7,168.8,74.7z M168.6,67c-0.5,0-0.9,0.2-1.2,0.5
			c-0.3,0.3-0.4,0.8-0.5,1.4l0,0h3v-0.2c0-0.5-0.1-1-0.3-1.3C169.5,67.1,169.1,67,168.6,67z M171.3,74.1c-0.3,0.3-0.5,0.6-0.7,0.8
			c-0.1,0.2-0.2,0.5-0.2,0.7c0,0.2,0,0.3,0.1,0.4c0.1,0.1,0.3,0.2,0.6,0.2c0.2,0,0.3,0,0.4-0.1c0.1,0,0.2-0.1,0.4-0.1l0.3,1.3
			c-0.2,0.1-0.4,0.2-0.7,0.3s-0.6,0.1-0.9,0.1c-0.6,0-1.1-0.2-1.5-0.5c-0.4-0.3-0.6-0.8-0.6-1.3c0-0.4,0.1-0.9,0.4-1.3
			c0.3-0.4,0.7-0.7,1.2-1.1L171.3,74.1z"/>
		<path d="M179.4,71.9c0-0.3-0.1-0.5-0.4-0.7c-0.3-0.2-0.8-0.4-1.5-0.5c-1.1-0.2-1.9-0.5-2.5-1c-0.6-0.4-0.8-1-0.8-1.8
			c0-0.8,0.3-1.5,1-2c0.7-0.6,1.6-0.8,2.7-0.8c1.2,0,2.1,0.3,2.8,0.8c0.7,0.6,1,1.3,1,2.1l0,0.1h-2.4c0-0.4-0.1-0.7-0.4-0.9
			c-0.2-0.2-0.6-0.4-1-0.4c-0.4,0-0.7,0.1-0.9,0.3c-0.2,0.2-0.3,0.4-0.3,0.7c0,0.3,0.1,0.5,0.4,0.7c0.2,0.2,0.7,0.3,1.5,0.5
			c1.1,0.2,2,0.6,2.5,1c0.6,0.4,0.8,1,0.8,1.8c0,0.8-0.4,1.5-1.1,2c-0.7,0.5-1.7,0.8-2.8,0.8c-1.2,0-2.2-0.3-2.9-0.9
			c-0.7-0.6-1.1-1.3-1-2.1l0-0.1h2.3c0,0.5,0.2,0.9,0.5,1.1s0.7,0.3,1.2,0.3c0.5,0,0.8-0.1,1.1-0.3S179.4,72.2,179.4,71.9z"/>
		<path d="M186.8,63v2.3h1.6V67h-1.6v4.7c0,0.4,0.1,0.6,0.2,0.8c0.2,0.2,0.3,0.2,0.6,0.2c0.1,0,0.2,0,0.3,0c0.1,0,0.2,0,0.3-0.1
			l0.2,1.8c-0.3,0.1-0.5,0.1-0.7,0.2c-0.2,0-0.5,0.1-0.8,0.1c-0.9,0-1.5-0.2-2-0.7c-0.5-0.5-0.7-1.2-0.7-2.2V67H183v-1.8h1.3V63
			H186.8z"/>
		<path d="M190,69.8c0-1.4,0.4-2.5,1.2-3.4c0.8-0.9,1.8-1.3,3.2-1.3c1.4,0,2.4,0.4,3.2,1.3c0.8,0.9,1.2,2,1.2,3.4V70
			c0,1.4-0.4,2.5-1.2,3.4c-0.8,0.9-1.8,1.3-3.2,1.3c-1.4,0-2.4-0.4-3.2-1.3c-0.8-0.9-1.2-2-1.2-3.4V69.8z M192.5,70
			c0,0.8,0.1,1.5,0.4,2c0.3,0.5,0.8,0.8,1.4,0.8c0.6,0,1.1-0.3,1.4-0.8s0.4-1.2,0.4-2v-0.2c0-0.8-0.2-1.5-0.5-2
			c-0.3-0.5-0.8-0.8-1.4-0.8c-0.6,0-1.1,0.3-1.4,0.8c-0.3,0.5-0.4,1.2-0.4,2V70z"/>
		<path d="M204.5,72.8c0.4,0,0.8-0.1,1-0.4c0.3-0.3,0.4-0.6,0.4-1h2.3l0,0.1c0,0.9-0.3,1.7-1,2.3s-1.6,0.9-2.7,0.9
			c-1.4,0-2.4-0.4-3.2-1.3c-0.7-0.9-1.1-2-1.1-3.4v-0.3c0-1.4,0.4-2.5,1.1-3.4c0.7-0.9,1.8-1.3,3.2-1.3c1.1,0,2,0.3,2.7,1
			s1,1.5,1,2.6l0,0.1H206c0-0.5-0.1-0.9-0.4-1.2c-0.3-0.3-0.6-0.5-1.1-0.5c-0.6,0-1.1,0.3-1.4,0.8c-0.3,0.5-0.4,1.2-0.4,2V70
			c0,0.8,0.1,1.5,0.4,2C203.4,72.5,203.9,72.8,204.5,72.8z"/>
		<path d="M212.6,66.4c0.3-0.4,0.6-0.8,1.1-1c0.4-0.2,0.9-0.4,1.4-0.4c1,0,1.7,0.3,2.3,1c0.6,0.6,0.8,1.6,0.8,3v5.5h-2.5V69
			c0-0.7-0.1-1.2-0.3-1.5c-0.2-0.3-0.6-0.4-1-0.4c-0.4,0-0.7,0.1-1,0.2s-0.5,0.3-0.7,0.5v6.8h-2.5V61.2h2.5V66.4z"/>
		<path d="M220.1,69.8c0-1.4,0.4-2.5,1.2-3.4c0.8-0.9,1.8-1.3,3.2-1.3c1.4,0,2.4,0.4,3.2,1.3c0.8,0.9,1.2,2,1.2,3.4V70
			c0,1.4-0.4,2.5-1.2,3.4c-0.8,0.9-1.8,1.3-3.2,1.3c-1.4,0-2.4-0.4-3.2-1.3c-0.8-0.9-1.2-2-1.2-3.4V69.8z M222.6,70
			c0,0.8,0.1,1.5,0.4,2c0.3,0.5,0.8,0.8,1.4,0.8c0.6,0,1.1-0.3,1.4-0.8s0.4-1.2,0.4-2v-0.2c0-0.8-0.2-1.5-0.5-2
			c-0.3-0.5-0.8-0.8-1.4-0.8c-0.6,0-1.1,0.3-1.4,0.8c-0.3,0.5-0.4,1.2-0.4,2V70z"/>
		<path d="M238.8,71.1L238.8,71.1l1.2-5.8h2.4l-2.3,9.2H238l-1.7-5.3h-0.1l-1.7,5.3h-2.1l-2.3-9.2h2.4l1.1,5.8h0.1l1.7-5.8h1.7
			L238.8,71.1z"/>
		<path d="M249.1,71.9c0-0.3-0.1-0.5-0.4-0.7c-0.3-0.2-0.8-0.4-1.5-0.5c-1.1-0.2-1.9-0.5-2.5-1c-0.6-0.4-0.8-1-0.8-1.8
			c0-0.8,0.3-1.5,1-2c0.7-0.6,1.6-0.8,2.7-0.8c1.2,0,2.1,0.3,2.8,0.8c0.7,0.6,1,1.3,1,2.1l0,0.1H249c0-0.4-0.1-0.7-0.4-0.9
			c-0.2-0.2-0.6-0.4-1-0.4c-0.4,0-0.7,0.1-0.9,0.3c-0.2,0.2-0.3,0.4-0.3,0.7c0,0.3,0.1,0.5,0.4,0.7c0.2,0.2,0.7,0.3,1.5,0.5
			c1.1,0.2,2,0.6,2.5,1c0.6,0.4,0.8,1,0.8,1.8c0,0.8-0.4,1.5-1.1,2c-0.7,0.5-1.7,0.8-2.8,0.8c-1.2,0-2.2-0.3-2.9-0.9
			c-0.7-0.6-1.1-1.3-1-2.1l0-0.1h2.3c0,0.5,0.2,0.9,0.5,1.1s0.7,0.3,1.2,0.3c0.5,0,0.8-0.1,1.1-0.3S249.1,72.2,249.1,71.9z"/>
		<path d="M256.7,70.6H256v3.9h-2.5V61.2h2.5v7.6h0.6l2.2-3.5h2.9l-3,4.2l3.4,5h-2.9L256.7,70.6z"/>
		<path d="M268.8,74.5c-0.1-0.2-0.2-0.4-0.2-0.7c-0.1-0.2-0.1-0.5-0.1-0.7c-0.3,0.5-0.6,0.8-1,1.1c-0.4,0.3-0.9,0.4-1.5,0.4
			c-1,0-1.7-0.2-2.2-0.7c-0.5-0.5-0.8-1.2-0.8-2c0-0.9,0.3-1.6,1-2.1c0.7-0.5,1.7-0.7,3.1-0.7h1.4v-0.7c0-0.4-0.1-0.8-0.4-1
			c-0.2-0.2-0.6-0.4-1-0.4c-0.4,0-0.7,0.1-0.9,0.3c-0.2,0.2-0.3,0.5-0.3,0.8h-2.4l0-0.1c0-0.8,0.3-1.5,1-2c0.7-0.6,1.7-0.9,2.8-0.9
			c1.1,0,2,0.3,2.7,0.8c0.7,0.6,1,1.4,1,2.4v3.8c0,0.4,0,0.8,0.1,1.2c0.1,0.4,0.2,0.8,0.3,1.1H268.8z M266.5,72.8
			c0.4,0,0.8-0.1,1.2-0.3c0.3-0.2,0.6-0.5,0.7-0.8v-1.3H267c-0.5,0-0.9,0.1-1.2,0.4c-0.3,0.3-0.4,0.6-0.4,1c0,0.3,0.1,0.6,0.3,0.7
			C265.9,72.7,266.2,72.8,266.5,72.8z"/>
	</g>
</g>
</svg>
