<svg inkscape:version="1.0.2 (e86c870879, 2021-01-15, custom)" sodipodi:docname="Kew the Angry Emu.svg" version="1.1" viewBox="0 0 352 112" xmlns="http://www.w3.org/2000/svg" xmlns:cc="http://creativecommons.org/ns#" xmlns:dc="http://purl.org/dc/elements/1.1/" xmlns:inkscape="http://www.inkscape.org/namespaces/inkscape" xmlns:rdf="http://www.w3.org/1999/02/22-rdf-syntax-ns#" xmlns:sodipodi="http://sodipodi.sourceforge.net/DTD/sodipodi-0.dtd" xmlns:xlink="http://www.w3.org/1999/xlink">
 <title>Kew the Angry Emu</title>
 <defs>
  <linearGradient id="cvfb" x1="143" x2="143" y1="832" y2="879" gradientUnits="userSpaceOnUse" inkscape:collect="always">
   <stop style="stop-color:#fff" offset="0"/>
   <stop style="stop-color:#fff;stop-opacity:0" offset="1"/>
  </linearGradient>
  <radialGradient id="cvfa" cx="117" cy="98.3" r="55.9" gradientTransform="matrix(.974 1.51 -.836 .54 79.6 -130)" gradientUnits="userSpaceOnUse" inkscape:collect="always">
   <stop offset="0"/>
   <stop style="stop-opacity:.897" offset="1"/>
  </radialGradient>
 </defs>
 <metadata>
  <rdf:RDF>
   <cc:Work rdf:about="">
    <dc:format>image/svg+xml</dc:format>
    <dc:type rdf:resource="http://purl.org/dc/dcmitype/StillImage"/>
    <dc:title>Kew the Angry Emu</dc:title>
    <dc:creator>
     <cc:Agent>
      <dc:title>Benoît Canet</dc:title>
     </cc:Agent>
    </dc:creator>
    <dc:rights>
     <cc:Agent>
      <dc:title>CC BY 3.0</dc:title>
     </cc:Agent>
    </dc:rights>
    <dc:publisher>
     <cc:Agent>
      <dc:title>QEMU Community</dc:title>
     </cc:Agent>
    </dc:publisher>
    <dc:date>2012-02-15</dc:date>
    <cc:license rdf:resource="http://creativecommons.org/licenses/by/3.0/"/>
    <dc:subject>
     <rdf:Bag>
      <rdf:li>QEMU logo</rdf:li>
      <rdf:li>QEMU mascot</rdf:li>
     </rdf:Bag>
    </dc:subject>
    <dc:source>http://lists.gnu.org/archive/html/qemu-devel/2012-02/msg01961.html</dc:source>
   </cc:Work>
   <cc:License rdf:about="http://creativecommons.org/licenses/by/3.0/">
    <cc:permits rdf:resource="http://creativecommons.org/ns#Reproduction"/>
    <cc:permits rdf:resource="http://creativecommons.org/ns#Distribution"/>
    <cc:requires rdf:resource="http://creativecommons.org/ns#Notice"/>
    <cc:requires rdf:resource="http://creativecommons.org/ns#Attribution"/>
    <cc:permits rdf:resource="http://creativecommons.org/ns#DerivativeWorks"/>
   </cc:License>
  </rdf:RDF>
 </metadata>
 <g transform="translate(-62.3 -55.9)" inkscape:groupmode="layer" inkscape:label="Layer 1">
  <path d="m118 55.9c-30.9 0-55.9 24.9-55.9 55.6 0 30.7 25 55.6 55.9 55.6 10.1 0 19.5-2.65 27.7-7.31l2.91 7.31h22.5l-8.81-21.8c7.22-9.36 11.5-21.1 11.5-33.8 0-30.7-25-55.6-55.8-55.6z" style="fill:url(#cvfa)" inkscape:connector-curvature="0"/>
  <ellipse transform="matrix(1.05 0 0 1.29 -31.6 -1017)" cx="142" cy="856" rx="35.4" ry="24.6" style="fill:url(#cvfb)"/>
  <circle transform="translate(7.67 -778)" cx="116" cy="856" r="6.57"/>
  <rect transform="matrix(.99 .143 -.19 .982 0 0)" x="125" y="65.3" width="37.6" height="5.5"/>
  <rect x="145" y="89" width="6.57" height="2.9"/>
  <path d="m103 65c-0.057 2.19-3.87 0.283-4.03 2.78-4.22-1.88 0.329 2.87-0.0937 3.31h-0.0312l-0.312-0.0312c-0.204-0.0728-0.5-0.199-0.938-0.469-2.95 2.35-3.02 7.23-6.06 9.94-1.99 4.31-2.48 8.98-3.94 13.5-0.718 4.3-1.35 8.6-0.281 12.9 0.321 3.5-0.689 8.26 2.5 10.7 4.73 3.88 8.66 8.8 12.6 13.5 6.22 7.65 11.7 15.9 16.6 24.4 0.324-2.12 1.11 4.26 2.53 4.69-0.492-3.19-1.13-8.26-1.44-12.2-1.58-10.3-6.65-19.6-8.56-29.8-0.0587-0.43-0.128-0.872-0.188-1.31v-1.28h-0.156c-0.626-5.04-0.85-10.5 2.81-14.4 3.74-3.77 9.31-4.72 13.8-7.34 1-0.591 2.05-1.07 3.12-1.41 9e-3 -3e-3 0.0228 3e-3 0.0312 0 3.12-0.963 6.45-0.933 9.69-0.406 0.0479 8e-3 0.108 0.0233 0.156 0.0312 0.295 0.0493 0.614 0.099 0.906 0.156 2.37 0.211 7.14 1.14 8-0.5-3.27-2.79-7.99-2.59-12-3.69-0.631-0.115-1.41-0.24-2.19-0.312l-3.91-0.875-0.969-0.25v0.0312l-14-2.72c-0.222-0.202-0.464-0.409-0.688-0.562l13.6 1.69v-0.0625c0.48 0.107 0.956 0.194 1.44 0.25v0.0312l9.62 1.78c1.66 0.62 3.43 1.08 5.09 1.19 2.74 0.399 6.23 4.49 7.12 4.69-0.441-4.31-4.74-6.24-8.31-7.5-4.17-2.03-10.4-1.95-11.1-7.56-0.176-0.391-0.349-0.781-0.562-1.16l-1.62-2.16 0.0625-0.0312c-2.22-2.62-5.34-4.52-8.66-5.25-3.29-1.14-6.99-2.27-10.5-2.72-1.18 3.48-2.5-2.76-5.34-0.906-2.49 0.295-2.15 0.953-4-0.625zm17.9 10.2c0.902-0.0238 1.93 0.142 2.97 0.5 2.76 0.954 4.56 2.97 4.03 4.5s-3.21 1.99-5.97 1.03-4.56-2.93-4.03-4.47c0.331-0.959 1.5-1.52 3-1.56z" style="fill:#f60" inkscape:connector-curvature="0"/>
 </g>
 <path style="transform: translate(135px, 30px);" d="M 129.2 10.2 L 106.8 69 L 106.3 69 A 0.645 0.645 0 0 0 106.069 69.07 Q 105.517 69.319 103.952 70.449 A 76.861 76.861 0 0 0 103.2 71 L 80.2 10.8 L 75.4 63.2 Q 75.2 64.8 76.9 65.9 Q 78.198 66.74 80.254 66.939 A 14.018 14.018 0 0 0 81.6 67 L 85.8 67 L 85.8 70 L 61.8 70 L 61.8 67 L 65 67 A 11.346 11.346 0 0 0 67.207 66.804 Q 70.884 66.072 71.2 62.6 L 76.2 7.4 A 4.066 4.066 0 0 0 76.223 6.974 Q 76.223 5.357 74.85 4.25 A 4.745 4.745 0 0 0 73.441 3.488 Q 72.149 3.031 70.257 3.002 A 16.886 16.886 0 0 0 70 3 L 66.8 3 L 66.8 0 L 85.6 0 L 107 56.4 L 128.6 0 L 146.6 0 L 146.6 2.8 L 142.6 2.8 A 9.131 9.131 0 0 0 140.848 2.953 Q 138.051 3.502 137.821 6.03 A 5.177 5.177 0 0 0 137.8 6.5 L 137.8 7.2 L 142.4 62.6 Q 142.6 64.9 143.55 65.95 Q 144.5 67 147 67 L 151 67 L 151 70 L 125.4 70 L 125.4 67 L 128.8 67 A 13.682 13.682 0 0 0 130.051 66.947 Q 131.842 66.782 132.6 66.1 A 3.695 3.695 0 0 0 133.149 65.493 Q 133.6 64.855 133.6 64.15 L 133.6 62.6 L 129.2 10.2 Z M 57 56.2 L 53.6 70 L 0 70 L 0 67.2 L 3.4 67.2 Q 6.3 67.2 7.25 66.1 Q 8.2 65 8.2 62.6 L 8.2 7.4 A 5.242 5.242 0 0 0 7.965 5.797 A 4.314 4.314 0 0 0 6.95 4.1 Q 5.76 2.862 3.618 2.803 A 7.877 7.877 0 0 0 3.4 2.8 L 0 2.8 L 0 0 L 52.8 0 L 53.6 13.8 L 50.8 14.4 A 9.303 9.303 0 0 0 49.551 9.804 A 13.454 13.454 0 0 0 47.9 7.5 A 9.483 9.483 0 0 0 42.265 4.408 A 13.974 13.974 0 0 0 39.8 4.2 L 21.6 4.2 A 12.351 12.351 0 0 0 20.388 4.255 Q 19.085 4.384 18.335 4.815 A 2.157 2.157 0 0 0 17.7 5.35 A 3.836 3.836 0 0 0 17.069 6.587 Q 16.901 7.127 16.838 7.779 A 8.526 8.526 0 0 0 16.8 8.6 L 16.8 31.4 L 36.8 31.4 Q 38.036 31.4 38.797 31.298 A 5.895 5.895 0 0 0 39.1 31.25 Q 39.794 31.12 40.375 30.426 A 4.006 4.006 0 0 0 40.55 30.2 Q 41.03 29.535 41.156 28.433 A 7.383 7.383 0 0 0 41.2 27.6 L 41.2 23 L 44.2 23 L 44.2 43.8 L 41.2 43.8 L 41.2 39.6 Q 41.2 37.643 40.526 36.758 A 1.834 1.834 0 0 0 40.1 36.35 Q 39 35.6 36.8 35.6 L 16.8 35.6 L 16.8 61.4 A 7.887 7.887 0 0 0 16.892 62.648 Q 16.996 63.296 17.218 63.821 A 3.624 3.624 0 0 0 17.7 64.65 Q 18.452 65.611 20.67 65.769 A 13.117 13.117 0 0 0 21.6 65.8 L 40.6 65.8 Q 45.9 65.8 49.95 62.4 A 19.024 19.024 0 0 0 51.83 60.608 Q 53.877 58.345 54.164 56.174 A 5.444 5.444 0 0 0 54.2 55.8 L 57 56.2 Z M 214.2 41.2 L 214.2 7.4 Q 214.2 3.688 209.787 3.108 A 13.753 13.753 0 0 0 208 3 L 204.8 3 L 204.8 0 L 228.8 0 L 228.8 3 L 225 3 A 14.065 14.065 0 0 0 223.274 3.099 Q 221.29 3.345 220.113 4.203 A 4.336 4.336 0 0 0 220.05 4.25 A 4.526 4.526 0 0 0 219.045 5.279 A 3.644 3.644 0 0 0 218.4 7.4 L 218.4 41.2 A 36.317 36.317 0 0 1 217.53 49.291 A 30.356 30.356 0 0 1 215.65 54.95 A 31.229 31.229 0 0 1 212.731 60.155 A 23.441 23.441 0 0 1 208.6 64.7 A 34.778 34.778 0 0 1 200.913 69.56 A 26.671 26.671 0 0 1 189.8 72 Q 179.9 72 172.25 65.8 Q 164.6 59.6 164.6 51.2 L 164.6 7.4 Q 164.6 6.052 164.439 5.27 A 4.193 4.193 0 0 0 164.4 5.1 Q 164.2 4.3 163.1 3.65 Q 162.072 3.042 160.083 3.003 A 14.175 14.175 0 0 0 159.8 3 L 156.4 3 L 156.4 0 L 182 0 L 182 3 L 178.2 3 Q 176.186 3 175.094 3.545 A 3.106 3.106 0 0 0 174.9 3.65 Q 174.245 4.037 173.909 4.478 A 1.708 1.708 0 0 0 173.6 5.1 A 5.22 5.22 0 0 0 173.497 5.652 Q 173.419 6.219 173.404 7.006 A 20.426 20.426 0 0 0 173.4 7.4 L 173.4 42.6 A 38.526 38.526 0 0 0 173.799 48.357 Q 174.82 55.092 178.45 58.65 A 15.807 15.807 0 0 0 184.527 62.284 Q 187.003 63.127 190.03 63.43 A 35.874 35.874 0 0 0 193.6 63.6 Q 198.3 63.6 202.2 62 Q 206.1 60.4 208.45 58.2 A 12.311 12.311 0 0 0 210.219 56.09 Q 211.477 54.227 212.5 51.55 A 24.886 24.886 0 0 0 213.826 46.413 Q 214.2 43.966 214.2 41.2 Z" vector-effect="non-scaling-stroke" />
</svg>

