<?xml version="1.0" encoding="UTF-8"?>
<svg id="Layer_1" data-name="Layer 1" xmlns="http://www.w3.org/2000/svg" viewBox="0 0 1057.557 289.99">
  <defs>
    <style>
      .cls-1 {
        fill: none;
      }

      .cls-1, .cls-2 {
        stroke-width: 0px;
      }

      .cls-2 {
        fill: #2d2d2d;
      }
    </style>
  </defs>
  <rect class="cls-1" x="468.282" y=".229" width="100" height="100"/>
  <rect class="cls-1" x="468.282" y="190.219" width="100" height="100"/>
  <rect class="cls-1" x="957.557" y="100.458" width="100" height="100"/>
  <rect class="cls-1" y="100.458" width="100" height="100"/>
  <g>
    <path class="cls-2" d="m116.679,153.564h-16.679v-16.679h16.679v16.679Z"/>
    <polygon class="cls-2" points="877.648 189.99 827.433 189.99 827.433 182.756 848.925 182.756 848.925 107.69 827.433 107.69 827.433 100.458 877.648 100.458 877.648 107.69 856.157 107.69 856.157 182.756 877.648 182.756 877.648 189.99"/>
    <path class="cls-2" d="m682.824,189.99h-12.137c-11.091,0-20.114-9.08-20.114-20.241v-69.291h7.233v69.291c0,7.103,5.778,12.881,12.881,12.881h12.137c7.102,0,12.88-5.778,12.88-12.881v-69.291h7.234v69.291c0,11.16-9.024,20.241-20.114,20.241Z"/>
    <polygon class="cls-2" points="511.615 189.99 504.381 189.99 504.381 107.69 482.89 107.69 482.89 100.458 533.106 100.458 533.106 107.69 511.615 107.69 511.615 189.99"/>
    <polygon class="cls-2" points="448.528 189.99 434.493 189.99 434.371 189.641 405.921 107.69 404.155 107.69 404.155 189.99 396.922 189.99 396.922 100.458 410.958 100.458 411.08 100.807 439.53 182.756 441.296 182.756 441.296 100.458 448.528 100.458 448.528 189.99"/>
    <polygon class="cls-2" points="358.588 189.99 308.372 189.99 308.372 182.756 329.864 182.756 329.864 107.69 308.372 107.69 308.372 100.458 358.588 100.458 358.588 107.69 337.097 107.69 337.097 182.756 358.588 182.756 358.588 189.99"/>
    <path class="cls-2" d="m251.944,189.99h-12.136c-11.09,0-20.114-9.08-20.114-20.241v-69.291h7.233v69.291c0,7.103,5.778,12.881,12.881,12.881h12.136c7.103,0,12.881-5.778,12.881-12.881v-69.291h7.233v69.291c0,11.16-9.023,20.241-20.114,20.241Z"/>
    <path class="cls-2" d="m612.057,189.99h-7.233v-24.398h-37.773v24.398h-7.233l.03-29.52,21.615-60.012h8.947l21.645,60.188v29.343Zm-43.775-31.505h35.311l-17.325-48.139h-.66l-17.326,48.139Z"/>
    <path class="cls-2" d="m796.14,189.99h-7.969l-18.962-41.845h-16.34v41.845h-7.233v-89.532h30.229c11.208,0,19.987,8.835,19.987,20.114v7.585c0,10.689-8.203,19.31-18.817,19.955l19.105,41.879Zm-43.271-49.079h22.996c7.153,0,12.754-5.602,12.754-12.754v-7.585c0-7.223-5.602-12.882-12.754-12.882h-22.996v33.221Z"/>
    <path class="cls-2" d="m933.43,138.908c-9.048-6.575-17.591-12.786-17.591-20.105,0-6.855,5.176-11.113,13.513-11.113h5.94c4.641,0,8.735,2.339,11.201,5.888h.018l3.707,5.172,5.915-4.141-3.561-5.132-.073.05c-3.786-5.452-10.052-9.069-17.208-9.069h-5.94c-12.29,0-20.873,7.544-20.873,18.345,0,11.298,10.949,19.293,21.539,27.024,10.377,7.576,20.179,14.732,20.179,24.554,0,7.171-5.736,12.375-13.64,12.375h-8.47c-4.51,0-8.485-2.263-10.943-5.701h-.046l-3.704-5.172-5.918,4.142,3.564,5.132.061-.043c3.783,5.344,9.957,8.875,16.986,8.875h8.47c11.974,0,21-8.431,21-19.609,0-13.935-12.819-23.252-24.127-31.473Z"/>
    <path class="cls-2" d="m187.204,196.316l-9.026-12.89c3.297-3.606,5.33-8.401,5.33-13.676v-49.051c0-11.16-9.023-20.241-20.114-20.241h-12.136c-11.09,0-20.113,9.08-20.113,20.241v15.647h7.232v-15.647c0-7.103,5.778-12.881,12.881-12.881h12.136c7.103,0,12.881,5.778,12.881,12.881v49.051c0,7.103-5.778,12.881-12.881,12.881h-12.136c-7.103,0-12.881-5.778-12.881-12.881v-15.668h-7.232v15.668c0,11.16,9.023,20.241,20.113,20.241h12.136c3.252,0,6.315-.798,9.036-2.183l8.858,12.651,5.916-4.142Z"/>
  </g>
</svg>