<svg xmlns="http://www.w3.org/2000/svg" role="img" viewBox="-191.30 54.20 561.60 269.10"><defs><path id="b" d="M-154.214 297.845h352.308v98.06h-352.308z"/><path id="a" d="M-3.024 137.961h379.488v122.842H-3.024z"/><path d="M-3.024 137.961h73.705v131.158H-3.024z"/><filter width="1.047" height="1.022" x="-.023" y="-.013" color-interpolation-filters="sRGB"><feGaussianBlur stdDeviation=".505"/></filter></defs><g fill="#259dd5" display="inline"><path stroke-width=".73" d="M-180.18932 64.9665h540.05695v247.78355h-540.05695z" display="inline" opacity="1" stop-color="#000" stop-opacity="1" vector-effect="none"/><path fill-opacity="1" stroke="#fff" stroke-dasharray="none" stroke-dashoffset="0" stroke-linecap="butt" stroke-linejoin="miter" stroke-miterlimit="4" stroke-opacity="1" stroke-width="2" d="M-87.3125 275.16666s30.99405-43.46726 43.84524-74.08333c12.85119-30.61607 27.97024-68.79167 27.97024-68.79167s-1.88989 52.16072-1.5119 83.91072c.37797 31.75 1.88987 49.51487 1.88987 49.51487z" opacity="1" stop-color="#000" stop-opacity="1" vector-effect="none"/><path fill-opacity="1" stroke="none" stroke-dasharray="none" stroke-dashoffset="0" stroke-linecap="butt" stroke-linejoin="miter" stroke-miterlimit="4" stroke-opacity="1" stroke-width="2.2" d="M-140.73063 279.96867s55.71369-61.53452 76.50238-95.2122c20.78869-33.67767 50.7244-77.33392 50.7244-77.33392s-18.29405 51.97172-22.45178 74.00773c-4.15774 22.03602-2.07887 59.87143-2.07887 59.87143s-15.38363 3.32619-44.07202 14.13631c-28.6884 10.81012-58.62411 24.53065-58.62411 24.53065z" display="inline" opacity="1" stop-color="#000" stop-opacity="1" vector-effect="none"/><path fill-opacity="1" stroke="#fff" stroke-dasharray="none" stroke-dashoffset="0" stroke-linecap="butt" stroke-linejoin="miter" stroke-miterlimit="4" stroke-opacity="1" stroke-width="2" d="M-134.9375 272.14285s50.64881-55.94047 69.54762-86.55654c18.8988-30.61607 46.1131-70.30357 46.1131-70.30357s-16.63096 47.24702-20.41072 67.27976c-3.77976 20.03274-1.88988 54.42857-1.88988 54.42857s-13.98512 3.02381-40.06548 12.85119c-26.08035 9.82738-53.29464 22.30059-53.29464 22.30059z" opacity="1" stop-color="#000" stop-opacity="1" vector-effect="none"/><path fill-opacity="1" stroke="none" stroke-dasharray="none" stroke-dashoffset="0" stroke-linecap="butt" stroke-linejoin="miter" stroke-miterlimit="4" stroke-opacity="1" stroke-width="2.2" d="M-168.51223 272.33625s28.27262-28.27262 73.17619-81.90743c44.90357-53.63482 83.15476-97.29107 83.15476-97.29107s-27.85684 63.61338-38.25119 86.48094c-10.39434 22.86756-19.1256 48.64555-19.1256 48.64555s-46.56666 19.95714-62.78183 28.68839c-16.21518 8.73125-36.17233 15.38362-36.17233 15.38362" display="inline" opacity="1" stop-color="#000" stop-opacity="1" vector-effect="none"/><path fill-opacity="1" stroke="#fff" stroke-dasharray="none" stroke-dashoffset="0" stroke-linecap="butt" stroke-linejoin="miter" stroke-miterlimit="4" stroke-opacity="1" stroke-width="2" d="M-161.39583 264.20536s25.70238-25.70238 66.5238-74.4613c40.82144-48.75893 75.59524-88.44643 75.59524-88.44643s-25.3244 57.83035-34.7738 78.61904C-63.5 200.70536-71.4375 224.13989-71.4375 224.13989s-42.33333 18.14286-57.0744 26.08036-32.88393 13.98511-32.88393 13.98511" display="inline" opacity="1" stop-color="#000" stop-opacity="1" vector-effect="none"/></g><g fill="#fff" stroke="#fff" display="inline"><g stroke-width=".541" display="inline" opacity="1" transform="matrix(1.35 0 0 1.35 7.376 -103.029)" style="shape-inside:url(#a)"><path d="M54.9039 155.24v14.91853q-5.8069-2.59658-11.33053-3.91847-5.52363-1.3219-10.43353-1.3219-6.51505 0-9.63095 1.794-3.1159 1.794-3.1159 5.57085 0 2.83263 2.07727 4.43779 2.12447 1.55795 7.6481 2.691l7.74254 1.55795q11.75542 2.36052 16.71253 7.176 4.9571 4.81548 4.9571 13.69106 0 11.661-6.93994 17.37348-6.89274 5.66527-21.10312 5.66527-6.7039 0-13.455-1.27469-6.75111-1.27468-13.50222-3.77684V204.4806q6.7511 3.588 13.03011 5.42921 6.32621 1.794 12.18032 1.794 5.94853 0 9.11164-1.98284 3.1631-1.98284 3.1631-5.66527 0-3.30473-2.17168-5.09873-2.12447-1.79401-8.5451-3.21032l-7.03438-1.55795q-10.57516-2.26611-15.48506-7.22321-4.86269-4.95711-4.86269-13.36059 0-10.52795 6.79832-16.19322 6.79832-5.66526 19.54517-5.66526 5.8069 0 11.94427.897 6.13737.84979 12.69963 2.59658z" stop-color="#000" stop-opacity="1" vector-effect="none"/><path d="M98.43203 199.71233q-5.28758 0-7.97858 1.79401-2.6438 1.794-2.6438 5.28758 0 3.21031 2.12448 5.05153 2.17169 1.794 5.99574 1.794 4.76827 0 8.0258-3.39916 3.25752-3.44637 3.25752-8.59232v-1.93564zm25.82417-6.37342v30.16754h-17.04301v-7.83695q-3.39916 4.81548-7.6481 7.03437-4.24895 2.17169-10.33912 2.17169-8.21463 0-13.36058-4.76827-5.09874-4.81547-5.09874-12.46358 0-9.30048 6.37342-13.64385 6.42064-4.34337 20.1117-4.34337h9.96142v-1.3219q0-4.01289-3.1631-5.85411-3.16311-1.88842-9.867-1.88842-5.42922 0-10.10307 1.08585-4.67384 1.08584-8.68674 3.25752v-12.88848q5.42922-1.32189 10.90564-1.98284 5.47642-.70816 10.95285-.70816 14.30479 0 20.63101 5.66527 6.37342 5.61805 6.37342 18.31769z" stop-color="#000" stop-opacity="1" vector-effect="none"/><path d="M139.97732 170.63064h16.90137v52.87581h-16.90137zm0-20.5838h16.90137v13.78548h-16.90137z" stop-color="#000" stop-opacity="1" vector-effect="none"/><path d="M173.11912 150.04684h16.90137v73.45961h-16.90137z" stop-color="#000" stop-opacity="1" vector-effect="none"/></g><g stroke-width=".73" display="inline" transform="translate(161.774 -83.155)" style="shape-inside:url(#b)" opacity="1"><path d="M-146.35484 313.39078q-2.49684 0-3.45975.57103-.9629.57103-.9629 1.94821 0 1.09726.71658 1.74666.72778.63821 1.9706.63821 1.71307 0 2.74316-1.20923 1.04128-1.22043 1.04128-3.23582v-.45906zm4.10914-.85094v7.15462h-2.06017v-1.90342q-.70538 1.14205-1.75786 1.69069-1.05248.53743-2.57522.53743-1.92581 0-3.06786-1.07487-1.13085-1.08607-1.13085-2.89992 0-2.11615 1.41077-3.19102 1.42196-1.07487 4.2323-1.07487h2.88872v-.20154q0-1.42197-.94051-2.19453-.92932-.78376-2.62-.78376-1.07487 0-2.09376.25752t-1.9594.77256v-1.90342q1.13085-.43666 2.19453-.6494 1.06367-.22393 2.07136-.22393 2.72077 0 4.06436 1.41077 1.34359 1.41077 1.34359 4.27709z"/><path d="M-122.46134 309.05771v-6.78513h2.06017v17.42188h-2.06017v-1.88103q-.6494 1.11966-1.6459 1.6683-.98529.53743-2.37367.53743-2.27291 0-3.70607-1.81385-1.42197-1.81384-1.42197-4.76974 0-2.9559 1.42197-4.76974 1.43316-1.81385 3.70607-1.81385 1.38838 0 2.37367.54863.9965.53744 1.6459 1.6571zm-7.02025 4.37786q0 2.27291.92931 3.57171.94051 1.28761 2.57522 1.28761 1.6347 0 2.57521-1.28761.94051-1.2988.94051-3.57171t-.94051-3.56051q-.94051-1.29881-2.57521-1.29881-1.63471 0-2.57522 1.29881-.92931 1.2876-.92931 3.56051z"/><path d="M-111.29835 308.59865q-1.65709 0-2.62 1.2988-.9629 1.28761-.9629 3.53812 0 2.25051.95171 3.54932.9629 1.2876 2.63119 1.2876 1.6459 0 2.60881-1.2988.9629-1.2988.9629-3.53812 0-2.22812-.9629-3.52692-.96291-1.31-2.60881-1.31zm0-1.74667q2.68718 0 4.22111 1.74667 1.53394 1.74666 1.53394 4.83692 0 3.07906-1.53394 4.83692-1.53393 1.74667-4.22111 1.74667-2.69837 0-4.2323-1.74667-1.52274-1.75786-1.52274-4.83692 0-3.09026 1.52274-4.83692 1.53393-1.74667 4.2323-1.74667z"/><path d="M-92.36492 309.56155q.77256-1.38837 1.84743-2.04897 1.07487-.6606 2.53043-.6606 1.9594 0 3.02308 1.37718 1.06367 1.36598 1.06367 3.89641v7.56889h-2.07137v-7.50171q0-1.80265-.6382-2.67598-.6382-.87334-1.9482-.87334-1.60112 0-2.53043 1.06368-.92932 1.06367-.92932 2.89991v7.08744h-2.07137v-7.50171q0-1.81385-.6382-2.67598-.6382-.87334-1.9706-.87334-1.57872 0-2.50804 1.07488-.92931 1.06367-.92931 2.88871v7.08744h-2.07137v-12.54017h2.07137v1.9482q.70538-1.15324 1.69068-1.70188.9853-.54863 2.34009-.54863 1.36598 0 2.31769.69419.9629.69419 1.42197 2.01538z"/><path d="M-74.0921 313.39078q-2.49684 0-3.45975.57103-.9629.57103-.9629 1.94821 0 1.09726.71658 1.74666.72778.63821 1.9706.63821 1.71307 0 2.74316-1.20923 1.04128-1.22043 1.04128-3.23582v-.45906zm4.10914-.85094v7.15462h-2.06017v-1.90342q-.70538 1.14205-1.75786 1.69069-1.05248.53743-2.57521.53743-1.92582 0-3.06787-1.07487-1.13085-1.08607-1.13085-2.89992 0-2.11615 1.41077-3.19102 1.42196-1.07487 4.2323-1.07487h2.88872v-.20154q0-1.42197-.94051-2.19453-.92932-.78376-2.62-.78376-1.07487 0-2.09376.25752-1.0189.25752-1.9594.77256v-1.90342q1.13085-.43666 2.19453-.6494 1.06367-.22393 2.07136-.22393 2.72077 0 4.06436 1.41077 1.3436 1.41077 1.3436 4.27709z"/><path d="M-65.73945 307.15429h2.06017v12.54017h-2.06017zm0-4.88171h2.06017v2.6088h-2.06017z"/><path d="M-48.94458 312.12557v7.56889h-2.06017v-7.50171q0-1.78026-.6942-2.66479-.69418-.88453-2.08256-.88453-1.66829 0-2.6312 1.06368-.9629 1.06367-.9629 2.89991v7.08744h-2.07137v-12.54017h2.07137v1.9482q.73898-1.13085 1.73547-1.69068 1.0077-.55983 2.3177-.55983 2.16093 0 3.2694 1.34359 1.10846 1.33239 1.10846 3.93z"/><path d="M-45.87672 312.49506h6.03496v1.83624h-6.03496z"/><path d="M-28.5668 307.52378v1.9482q-.87333-.44786-1.81385-.67179-.9405-.22394-1.9482-.22394-1.53393 0-2.3065.47026-.76137.47026-.76137 1.41077 0 .71658.54864 1.13085.54863.40308 2.20573.77257l.70538.15675q2.19453.47026 3.11265 1.33239.92932.85094.92932 2.38488 0 1.74666-1.38838 2.76555-1.37718 1.01889-3.79564 1.01889-1.0077 0-2.10496-.20154-1.08607-.19034-2.2953-.58222v-2.12735q1.14205.59342 2.25051.89573 1.10847.29111 2.19453.29111 1.45556 0 2.23932-.49265.78376-.50385.78376-1.41077 0-.83975-.57102-1.28761-.55983-.44786-2.47445-.86214l-.71658-.16794q-1.91462-.40308-2.76556-1.23163-.85094-.83974-.85094-2.2953 0-1.76906 1.25402-2.73196 1.25402-.96291 3.56051-.96291 1.14206 0 2.14975.16795t1.85863.50385z"/><path d="M-22.62142 317.81343v6.65077h-2.07137v-17.30991h2.07137v1.90342q.6494-1.11966 1.6347-1.6571.9965-.54863 2.37368-.54863 2.2841 0 3.70606 1.81385 1.43317 1.81384 1.43317 4.76974 0 2.9559-1.43317 4.76974-1.42196 1.81385-3.70606 1.81385-1.37718 0-2.37368-.53743-.9853-.54864-1.6347-1.6683zm7.00906-4.37786q0-2.27291-.94051-3.56051-.92932-1.29881-2.56402-1.29881t-2.57521 1.29881q-.92932 1.2876-.92932 3.56051 0 2.27291.92932 3.57171.9405 1.28761 2.5752 1.28761 1.63471 0 2.56403-1.28761.9405-1.2988.9405-3.57171z"/><path d="M.66748 312.90933v1.00769h-9.47231q.13436 2.12735 1.27641 3.24701 1.15325 1.10846 3.20222 1.10846 1.18684 0 2.2953-.29111 1.11966-.29111 2.21692-.87333v1.9482q-1.10846.47026-2.2729.71659-1.16445.24632-2.36248.24632-3.00068 0-4.75855-1.74667-1.74666-1.74666-1.74666-4.72495 0-3.07906 1.65709-4.88171 1.6683-1.81385 4.48983-1.81385 2.53043 0 3.99718 1.6347 1.47795 1.62351 1.47795 4.42265zm-2.06017-.60461q-.0224-1.69069-.95171-2.69838-.91812-1.00769-2.44086-1.00769-1.72427 0-2.76555.9741-1.03009.9741-1.18684 2.74316z"/><path d="M13.07328 307.63574v1.92581q-.87334-.48145-1.75787-.71658-.87333-.24632-1.76905-.24632-2.0042 0-3.11265 1.27641-1.10847 1.26521-1.10847 3.56051t1.10847 3.57171q1.10846 1.26521 3.11265 1.26521.89572 0 1.76906-.23512.88453-.24633 1.75786-.72778v1.90342q-.86214.40307-1.79145.60461-.91812.20154-1.9594.20154-2.83274 0-4.50103-1.78026-1.6683-1.78025-1.6683-4.80333 0-3.06786 1.6795-4.82573 1.69068-1.75786 4.62418-1.75786.95171 0 1.85864.20154.90692.19034 1.75786.58222z"/><path d="M16.6562 307.15429h2.06017v12.54017h-2.06018zm0-4.88171h2.06017v2.6088h-2.06018z"/><path d="M33.15995 307.15429v12.54017h-2.07137V308.7554h-5.65427v10.93906h-2.07137V308.7554h-1.9706v-1.60111h1.9706v-.87333q0-2.04898.9629-3.02308.97411-.9853 2.9783-.9853h2.07137v1.71308h-1.9706q-1.10846 0-1.54513.44786-.42547.44786-.42547 1.61231v1.10846zm-2.07137-4.85932h2.07137v2.60881h-2.07137z"/><path d="M46.49508 307.63574v1.92581q-.87334-.48145-1.75787-.71658-.87333-.24632-1.76906-.24632-2.00418 0-3.11265 1.27641-1.10846 1.26521-1.10846 3.56051t1.10846 3.57171q1.10847 1.26521 3.11265 1.26521.89573 0 1.76906-.23512.88453-.24633 1.75787-.72778v1.90342q-.86214.40307-1.79146.60461-.91811.20154-1.9594.20154-2.83273 0-4.50102-1.78026-1.6683-1.78025-1.6683-4.80333 0-3.06786 1.6795-4.82573 1.69068-1.75786 4.62418-1.75786.95171 0 1.85863.20154.90693.19034 1.75787.58222z"/><path d="M57.36696 302.27258h2.06018v17.42188h-2.06018z"/><path d="M69.43687 313.39078q-2.49683 0-3.45974.57103-.9629.57103-.9629 1.94821 0 1.09726.71658 1.74666.72777.63821 1.9706.63821 1.71307 0 2.74316-1.20923 1.04128-1.22043 1.04128-3.23582v-.45906zm4.10915-.85094v7.15462h-2.06017v-1.90342q-.70539 1.14205-1.75786 1.69069-1.05248.53743-2.57522.53743-1.92581 0-3.06786-1.07487-1.13086-1.08607-1.13086-2.89992 0-2.11615 1.41077-3.19102 1.42197-1.07487 4.23231-1.07487h2.88872v-.20154q0-1.42197-.94051-2.19453-.92932-.78376-2.62-.78376-1.07488 0-2.09377.25752-1.01888.25752-1.9594.77256v-1.90342q1.13086-.43666 2.19453-.6494 1.06368-.22393 2.07137-.22393 2.72077 0 4.06436 1.41077 1.34359 1.41077 1.34359 4.27709z"/><path d="M88.21354 312.12557v7.56889h-2.06017v-7.50171q0-1.78026-.69418-2.66479-.6942-.88453-2.08257-.88453-1.66829 0-2.6312 1.06368-.9629 1.06367-.9629 2.89991v7.08744h-2.07137v-12.54017h2.07137v1.9482q.73897-1.13085 1.73547-1.69068 1.00769-.55983 2.31769-.55983 2.16094 0 3.2694 1.34359 1.10846 1.33239 1.10846 3.93z"/><path d="M100.57456 313.27882q0-2.23932-.92931-3.47094-.91812-1.23163-2.58641-1.23163-1.6571 0-2.58641 1.23163-.91812 1.23162-.91812 3.47094 0 2.22812.91812 3.45974.92931 1.23163 2.5864 1.23163 1.6683 0 2.58642-1.23163.92931-1.23162.92931-3.45974zm2.06018 4.85932q0 3.20222-1.42197 4.75854-1.42197 1.56752-4.35547 1.56752-1.08607 0-2.04897-.16794-.96291-.15676-1.86983-.49265v-2.00419q.90692.49265 1.79145.72778.88453.23512 1.80265.23512 2.02658 0 3.03427-1.06367 1.00769-1.05248 1.00769-3.19103v-1.01889q-.6382 1.10847-1.6347 1.6571t-2.38487.54863q-2.3065 0-3.71726-1.75786-1.41077-1.75787-1.41077-4.65778 0-2.91111 1.41077-4.66898 1.41077-1.75786 3.71726-1.75786 1.38838 0 2.38487.54863.9965.54864 1.6347 1.6571v-1.90342h2.06018z"/><path d="M106.66552 314.74557v-7.59128h2.06017v7.5129q0 1.78026.69419 2.67599.69419.88453 2.08256.88453 1.66829 0 2.6312-1.06368.9741-1.06367.9741-2.89991v-7.10983h2.06017v12.54017h-2.06017v-1.92581q-.75017 1.14205-1.74666 1.70188-.9853.54863-2.2953.54863-2.16094 0-3.2806-1.34359t-1.11966-3.93zm5.18402-7.89359z"/><path d="M127.11046 313.39078q-2.49684 0-3.45975.57103-.9629.57103-.9629 1.94821 0 1.09726.71658 1.74666.72778.63821 1.9706.63821 1.71307 0 2.74316-1.20923 1.04128-1.22043 1.04128-3.23582v-.45906zm4.10914-.85094v7.15462h-2.06017v-1.90342q-.70538 1.14205-1.75786 1.69069-1.05248.53743-2.57521.53743-1.92582 0-3.06787-1.07487-1.13085-1.08607-1.13085-2.89992 0-2.11615 1.41077-3.19102 1.42196-1.07487 4.2323-1.07487h2.88872v-.20154q0-1.42197-.94051-2.19453-.92932-.78376-2.62-.78376-1.07487 0-2.09376.25752t-1.9594.77256v-1.90342q1.13085-.43666 2.19453-.6494 1.06367-.22393 2.07136-.22393 2.72077 0 4.06436 1.41077 1.34359 1.41077 1.34359 4.27709z"/><path d="M143.71501 313.27882q0-2.23932-.92932-3.47094-.91812-1.23163-2.58641-1.23163-1.65709 0-2.58641 1.23163-.91812 1.23162-.91812 3.47094 0 2.22812.91812 3.45974.92932 1.23163 2.58641 1.23163 1.66829 0 2.58641-1.23163.92932-1.23162.92932-3.45974zm2.06017 4.85932q0 3.20222-1.42197 4.75854-1.42196 1.56752-4.35547 1.56752-1.08607 0-2.04897-.16794-.96291-.15676-1.86983-.49265v-2.00419q.90692.49265 1.79145.72778.88453.23512 1.80265.23512 2.02658 0 3.03427-1.06367 1.0077-1.05248 1.0077-3.19103v-1.01889q-.63821 1.10847-1.6347 1.6571-.9965.54863-2.38488.54863-2.30649 0-3.71726-1.75786-1.41077-1.75787-1.41077-4.65778 0-2.91111 1.41077-4.66898 1.41077-1.75786 3.71726-1.75786 1.38838 0 2.38488.54863.99649.54864 1.6347 1.6571v-1.90342h2.06017z"/><path d="M160.74499 312.90933v1.00769h-9.47231q.13436 2.12735 1.27641 3.24701 1.15325 1.10846 3.20223 1.10846 1.18683 0 2.2953-.29111 1.11965-.29111 2.21692-.87333v1.9482q-1.10846.47026-2.27291.71659-1.16444.24632-2.36248.24632-3.00068 0-4.75854-1.74667-1.74667-1.74666-1.74667-4.72495 0-3.07906 1.65709-4.88171 1.6683-1.81385 4.48983-1.81385 2.53043 0 3.99718 1.6347 1.47795 1.62351 1.47795 4.42265zm-2.06017-.60461q-.0224-1.69069-.95171-2.69838-.91812-1.00769-2.44085-1.00769-1.72428 0-2.76556.9741-1.03008.9741-1.18684 2.74316z"/><path d="M-145.70544 333.14059v1.71308h-1.9706q-1.10846 0-1.54513.44786-.42547.44786-.42547 1.61231v1.10846h3.39257v1.60111h-3.39257v10.93906h-2.07137v-10.93906h-1.97059v-1.60111h1.97059v-.87333q0-2.09376.97411-3.04547.9741-.96291 3.09025-.96291z"/><path d="M-139.12185 339.46666q-1.6571 0-2.62 1.2988-.96291 1.28761-.96291 3.53812 0 2.25052.95171 3.54932.96291 1.28761 2.6312 1.28761 1.6459 0 2.6088-1.29881.96291-1.2988.96291-3.53812 0-2.22812-.96291-3.52692-.9629-1.31-2.6088-1.31zm0-1.74667q2.68718 0 4.22111 1.74667 1.53393 1.74667 1.53393 4.83692 0 3.07906-1.53393 4.83693-1.53393 1.74666-4.22111 1.74666-2.69838 0-4.23231-1.74666-1.52273-1.75787-1.52273-4.83693 0-3.09025 1.52273-4.83692 1.53393-1.74667 4.23231-1.74667z"/><path d="M-122.68527 339.94811q-.34709-.20154-.76137-.29111-.40307-.10077-.89572-.10077-1.74667 0-2.68718 1.14205-.92932 1.13086-.92932 3.25821v6.60598h-2.07137V338.0223h2.07137v1.94821q.6494-1.14206 1.69068-1.69069 1.04129-.55983 2.53043-.55983.21274 0 .47026.0336.25752.0224.57102.0784z"/><path d="M-113.23535 338.0223h2.06017v12.54017h-2.06017zm0-4.88171h2.06017v2.6088h-2.06017z"/><path d="M-96.44048 342.99358v7.56889h-2.06017v-7.50171q0-1.78025-.6942-2.66478-.69418-.88453-2.08256-.88453-1.66829 0-2.63119 1.06367-.96291 1.06368-.96291 2.89992v7.08743h-2.07137V338.0223h2.07137v1.94821q.73898-1.13086 1.73547-1.69069 1.00769-.55983 2.31769-.55983 2.16094 0 3.2694 1.34359 1.10847 1.3324 1.10847 3.93z"/><path d="M-84.33698 338.39179v1.9482q-.87333-.44786-1.81384-.67179-.94052-.22393-1.9482-.22393-1.53394 0-2.3065.47025-.76137.47026-.76137 1.41077 0 .71658.54863 1.13086.54863.40307 2.20573.77256l.70538.15675q2.19453.47026 3.11265 1.3324.92932.85094.92932 2.38487 0 1.74666-1.38838 2.76555-1.37718 1.01889-3.79564 1.01889-1.00769 0-2.10496-.20154-1.08606-.19034-2.2953-.58222v-2.12735q1.14206.59342 2.25052.89573 1.10846.29111 2.19453.29111 1.45555 0 2.23931-.49265.78376-.50385.78376-1.41077 0-.83974-.57102-1.28761-.55983-.44786-2.47445-.86213l-.71658-.16795q-1.91461-.40308-2.76555-1.23163-.85094-.83974-.85094-2.2953 0-1.76906 1.25401-2.73196 1.25402-.96291 3.56052-.96291 1.14205 0 2.14974.16795 1.0077.16795 1.85863.50385z"/><path d="M-78.3468 334.46179v3.56051h4.2435v1.60111h-4.2435v6.80752q0 1.53393.41427 1.9706.42547.43667 1.71307.43667h2.11616v1.72427h-2.11616q-2.38487 0-3.2918-.88453-.90691-.89572-.90691-3.24701v-6.80752h-1.51154v-1.60111h1.51154v-3.56051z"/><path d="M-64.12715 339.94811q-.3471-.20154-.76137-.29111-.40308-.10077-.89573-.10077-1.74666 0-2.68717 1.14205-.92932 1.13086-.92932 3.25821v6.60598h-2.07137V338.0223h2.07137v1.94821q.6494-1.14206 1.69068-1.69069 1.04128-.55983 2.53043-.55983.21274 0 .47026.0336.25752.0224.57102.0784z"/><path d="M-62.17894 345.61358v-7.59128h2.06017v7.51291q0 1.78025.69419 2.67598.69419.88453 2.08256.88453 1.6683 0 2.6312-1.06368.9741-1.06367.9741-2.89991v-7.10983h2.06017v12.54017h-2.06017v-1.92581q-.75017 1.14205-1.74666 1.70188-.9853.54863-2.2953.54863-2.16094 0-3.2806-1.34359t-1.11966-3.93zm5.18402-7.89359z"/><path d="M-38.4086 338.50375v1.92582q-.87333-.48146-1.75786-.71659-.87334-.24632-1.76906-.24632-2.0042 0-3.11265 1.27641-1.10847 1.26521-1.10847 3.56051t1.10847 3.57171q1.10846 1.26522 3.11265 1.26522.89572 0 1.76905-.23513.88454-.24633 1.75787-.72778v1.90342q-.86214.40308-1.79145.60461-.91812.20154-1.9594.20154-2.83274 0-4.50103-1.78025-1.6683-1.78026-1.6683-4.80334 0-3.06786 1.6795-4.82572 1.69068-1.75787 4.62418-1.75787.95171 0 1.85864.20154.90692.19034 1.75786.58222z"/><path d="M-32.78791 334.46179v3.56051h4.2435v1.60111h-4.2435v6.80752q0 1.53393.41427 1.9706.42547.43667 1.71308.43667h2.11615v1.72427h-2.11615q-2.38488 0-3.2918-.88453-.90692-.89572-.90692-3.24701v-6.80752h-1.51154v-1.60111h1.51154v-3.56051z"/><path d="M-25.83484 338.0223h2.06017v12.54017h-2.06017zm0-4.88171h2.06017v2.6088h-2.06017z"/><path d="M-14.60467 339.46666q-1.6571 0-2.62 1.2988-.9629 1.28761-.9629 3.53812 0 2.25052.9517 3.54932.96291 1.28761 2.6312 1.28761 1.6459 0 2.6088-1.29881.96291-1.2988.96291-3.53812 0-2.22812-.9629-3.52692-.96291-1.31-2.6088-1.31zm0-1.74667q2.68718 0 4.22111 1.74667 1.53394 1.74667 1.53394 4.83692 0 3.07906-1.53394 4.83693-1.53393 1.74666-4.2211 1.74666-2.69838 0-4.23231-1.74666-1.52274-1.75787-1.52274-4.83693 0-3.09025 1.52273-4.83692 1.53394-1.74667 4.23231-1.74667z"/><path d="M4.98935 342.99358v7.56889H2.92918v-7.50171q0-1.78025-.6942-2.66478-.69418-.88453-2.08256-.88453-1.66829 0-2.6312 1.06367-.9629 1.06368-.9629 2.89992v7.08743h-2.07137V338.0223h2.07137v1.94821q.73897-1.13086 1.73547-1.69069 1.0077-.55983 2.3177-.55983 2.16093 0 3.2694 1.34359 1.10846 1.3324 1.10846 3.93z"/><path d="M24.38183 338.39179v1.9482q-.87333-.44786-1.81385-.67179-.9405-.22393-1.9482-.22393-1.53393 0-2.3065.47025-.76136.47026-.76136 1.41077 0 .71658.54863 1.13086.54863.40307 2.20573.77256l.70538.15675q2.19453.47026 3.11265 1.3324.92932.85094.92932 2.38487 0 1.74666-1.38838 2.76555-1.37718 1.01889-3.79564 1.01889-1.0077 0-2.10496-.20154-1.08607-.19034-2.2953-.58222v-2.12735q1.14205.59342 2.25051.89573 1.10847.29111 2.19453.29111 1.45556 0 2.23932-.49265.78376-.50385.78376-1.41077 0-.83974-.57102-1.28761-.55983-.44786-2.47445-.86213l-.71658-.16795q-1.91461-.40308-2.76556-1.23163-.85094-.83974-.85094-2.2953 0-1.76906 1.25402-2.73196 1.25402-.96291 3.56051-.96291 1.14206 0 2.14975.16795 1.0077.16795 1.85863.50385z"/><path d="M39.06054 343.77734v1.0077h-9.4723q.13436 2.12735 1.2764 3.247 1.15325 1.10847 3.20223 1.10847 1.18684 0 2.2953-.29112 1.11966-.29111 2.21692-.87333v1.94821q-1.10846.47025-2.2729.71658-1.16445.24632-2.36248.24632-3.00069 0-4.75855-1.74666-1.74667-1.74667-1.74667-4.72496 0-3.07906 1.6571-4.88171 1.66829-1.81385 4.48983-1.81385 2.53042 0 3.99718 1.6347 1.47794 1.62351 1.47794 4.42265zm-2.06017-.60461q-.02239-1.69069-.9517-2.69838-.91813-1.00769-2.44086-1.00769-1.72427 0-2.76556.9741-1.03008.9741-1.18683 2.74316z"/><path d="M44.4797 334.46179v3.56051h4.2435v1.60111h-4.2435v6.80752q0 1.53393.41427 1.9706.42547.43667 1.71307.43667h2.11616v1.72427h-2.11616q-2.38487 0-3.2918-.88453-.90691-.89572-.90691-3.24701v-6.80752h-1.51154v-1.60111h1.51154v-3.56051z"/><path d="M-146.35484 375.12681q-2.49684 0-3.45975.57102-.9629.57103-.9629 1.94821 0 1.09726.71658 1.74667.72778.6382 1.9706.6382 1.71307 0 2.74316-1.20923 1.04128-1.22043 1.04128-3.23581v-.45906zm4.10914-.85094v7.15461h-2.06017v-1.90342q-.70538 1.14206-1.75786 1.69069-1.05248.53743-2.57522.53743-1.92581 0-3.06786-1.07487-1.13085-1.08607-1.13085-2.89991 0-2.11616 1.41077-3.19103 1.42196-1.07487 4.2323-1.07487h2.88872v-.20154q0-1.42196-.94051-2.19453-.92932-.78376-2.62-.78376-1.07487 0-2.09376.25752t-1.9594.77257v-1.90342q1.13085-.43667 2.19453-.6494 1.06367-.22394 2.07136-.22394 2.72077 0 4.06436 1.41077 1.34359 1.41077 1.34359 4.2771z"/><path d="M-130.73561 370.81612q-.3471-.20153-.76137-.29111-.40308-.10077-.89573-.10077-1.74666 0-2.68718 1.14205-.92931 1.13086-.92931 3.25821v6.60598h-2.07137v-12.54017h2.07137v1.94821q.6494-1.14205 1.69068-1.69069 1.04128-.55983 2.53043-.55983.21273 0 .47026.0336.25752.0224.57102.0784z"/><path d="M-120.05407 369.37176v1.92582q-.87334-.48146-1.75787-.71658-.87333-.24633-1.76906-.24633-2.00418 0-3.11265 1.27641-1.10846 1.26521-1.10846 3.56051t1.10846 3.57171q1.10847 1.26522 3.11265 1.26522.89573 0 1.76906-.23513.88453-.24633 1.75787-.72778v1.90342q-.86214.40308-1.79146.60462-.91812.20153-1.9594.20153-2.83273 0-4.50102-1.78025-1.66829-1.78026-1.66829-4.80334 0-3.06786 1.67948-4.82572 1.69069-1.75787 4.62419-1.75787.95171 0 1.85863.20154.90693.19034 1.75787.58222z"/><path d="M-106.04715 373.86159v7.56889h-2.06017v-7.50171q0-1.78025-.69419-2.66478-.69419-.88453-2.08256-.88453-1.66829 0-2.6312 1.06367-.9629 1.06368-.9629 2.89992v7.08743h-2.07137V364.0086h2.07137v6.82992q.73897-1.13086 1.73547-1.69069 1.00769-.55983 2.31769-.55983 2.16094 0 3.2694 1.34359 1.10846 1.3324 1.10846 3.93z"/><path d="M-101.93801 368.89031h2.06018v12.54017h-2.06018zm0-4.88171h2.06018v2.60881h-2.06018z"/><path d="M-93.52937 365.3298v3.56051h4.2435v1.60111h-4.2435v6.80752q0 1.53394.41427 1.9706.42547.43667 1.71308.43667h2.11615v1.72427h-2.11615q-2.38487 0-3.2918-.88453-.90692-.89572-.90692-3.24701v-6.80752h-1.51154v-1.60111h1.51154v-3.56051z"/><path d="M-75.84997 374.64535v1.0077h-9.4723q.13435 2.12735 1.2764 3.24701 1.15325 1.10846 3.20222 1.10846 1.18684 0 2.2953-.29111 1.11966-.29112 2.21693-.87334v1.94821q-1.10847.47025-2.27291.71658-1.16444.24632-2.36248.24632-3.00068 0-4.75855-1.74666-1.74666-1.74667-1.74666-4.72496 0-3.07906 1.6571-4.88171 1.66828-1.81385 4.48982-1.81385 2.53043 0 3.99718 1.6347 1.47795 1.62351 1.47795 4.42265zm-2.06017-.60461q-.0224-1.69068-.95171-2.69838-.91812-1.00769-2.44086-1.00769-1.72427 0-2.76555.9741-1.03009.97411-1.18684 2.74317z"/><path d="M-63.44415 369.37176v1.92582q-.87334-.48146-1.75787-.71658-.87333-.24633-1.76906-.24633-2.00419 0-3.11265 1.27641-1.10846 1.26521-1.10846 3.56051t1.10846 3.57171q1.10846 1.26522 3.11265 1.26522.89573 0 1.76906-.23513.88453-.24633 1.75787-.72778v1.90342q-.86214.40308-1.79146.60462-.91812.20153-1.9594.20153-2.83273 0-4.50103-1.78025-1.66829-1.78026-1.66829-4.80334 0-3.06786 1.6795-4.82572 1.69068-1.75787 4.62418-1.75787.9517 0 1.85863.20154.90693.19034 1.75787.58222z"/><path d="M-57.82347 365.3298v3.56051h4.2435v1.60111h-4.2435v6.80752q0 1.53394.41428 1.9706.42547.43667 1.71307.43667h2.11616v1.72427h-2.11616q-2.38487 0-3.2918-.88453-.90692-.89572-.90692-3.24701v-6.80752h-1.51153v-1.60111h1.51153v-3.56051z"/><path d="M-51.08313 376.48159v-7.59128h2.06017v7.51291q0 1.78025.69419 2.67598.69419.88453 2.08256.88453 1.6683 0 2.6312-1.06367.9741-1.06368.9741-2.89992v-7.10983h2.06017v12.54017h-2.06017v-1.92581q-.75017 1.14205-1.74666 1.70188-.9853.54863-2.2953.54863-2.16094 0-3.2806-1.34359t-1.11966-3.93zm5.18402-7.89359z"/><path d="M-29.07065 370.81612q-.3471-.20153-.76137-.29111-.40307-.10077-.89572-.10077-1.74667 0-2.68718 1.14205-.92932 1.13086-.92932 3.25821v6.60598h-2.07137v-12.54017h2.07137v1.94821q.6494-1.14205 1.69069-1.69069 1.04128-.55983 2.53042-.55983.21274 0 .47026.0336.25752.0224.57103.0784z"/><path d="M-16.68723 374.64535v1.0077h-9.4723q.13435 2.12735 1.2764 3.24701 1.15325 1.10846 3.20223 1.10846 1.18683 0 2.2953-.29111 1.11965-.29112 2.21692-.87334v1.94821q-1.10846.47025-2.2729.71658-1.16445.24632-2.36249.24632-3.00068 0-4.75854-1.74666-1.74667-1.74667-1.74667-4.72496 0-3.07906 1.6571-4.88171 1.66829-1.81385 4.48982-1.81385 2.53043 0 3.99718 1.6347 1.47795 1.62351 1.47795 4.42265zm-2.06017-.60461q-.02239-1.69068-.9517-2.69838-.91813-1.00769-2.44086-1.00769-1.72428 0-2.76556.9741-1.03008.97411-1.18684 2.74317z"/><path d="M-5.3115 369.2598v1.9482q-.87333-.44786-1.81384-.67179-.94052-.22393-1.9482-.22393-1.53394 0-2.3065.47025-.76137.47026-.76137 1.41077 0 .71658.54863 1.13086.54863.40307 2.20573.77256l.70538.15675q2.19453.47026 3.11265 1.3324.92932.85094.92932 2.38487 0 1.74667-1.38838 2.76555-1.37718 1.01889-3.79564 1.01889-1.0077 0-2.10496-.20153-1.08607-.19035-2.2953-.58223v-2.12735q1.14205.59342 2.25052.89573 1.10846.29111 2.19453.29111 1.45555 0 2.23931-.49265.78376-.50385.78376-1.41077 0-.83974-.57102-1.28761-.55983-.44786-2.47445-.86213l-.71658-.16795q-1.91461-.40308-2.76555-1.23162-.85094-.83975-.85094-2.2953 0-1.76906 1.25401-2.73197 1.25402-.96291 3.56052-.96291 1.14205 0 2.14974.16795 1.0077.16795 1.85863.50385z"/></g></g></svg>