<?xml version="1.0" encoding="UTF-8"?>
<svg id="Layer_1" data-name="Layer 1" xmlns="http://www.w3.org/2000/svg" version="1.1" viewBox="0 0 178.4 117.5">
  <defs>
    <style>
      .cls-1 {
        fill: #17a8e1;
      }

      .cls-1, .cls-2, .cls-3 {
        stroke-width: 0px;
      }

      .cls-2 {
        fill: #fff;
      }

      .cls-3 {
        fill: #632450;
      }
    </style>
  </defs>
  <g>
    <path class="cls-3" d="M13.1,103.7l-2.2,1.4c-1-1.4-2.6-2.1-4.3-2.1s-3,.6-3,2.1,1.6,1.9,3.6,2.3c3.2.7,6.1,1.6,6.1,4.9s-2.5,5.1-6.4,5.1-5.7-1.4-7-3.6l2.3-1.3c1.1,1.8,2.9,2.5,4.8,2.5s3.4-.9,3.4-2.4-1.8-2.1-4.1-2.5c-3-.6-5.7-1.6-5.7-4.8s2.5-4.8,5.9-4.8,4.9,1,6.4,3Z"/>
    <path class="cls-3" d="M28,111.5h-9.8c.1,2.4,1.7,3.7,3.9,3.7s2.8-.6,3.7-1.6l1.8,1.7c-1.3,1.4-3.1,2.3-5.6,2.3-4.3,0-6.7-2.9-6.7-6.7s2.4-6.8,6.5-6.8,6.3,2.8,6.3,6.5,0,.7,0,.9ZM25.3,109.5c-.2-2.2-1.7-3.3-3.5-3.3s-3.4,1.3-3.6,3.3h7.1Z"/>
    <path class="cls-3" d="M30.6,117.2v-12.9h2.7v1.8c1-1.4,2.4-2.1,4-2.1s3.2.9,3.7,2.5c1.1-1.6,2.7-2.5,4.5-2.5,2.8,0,4.3,1.9,4.3,4.7v8.5h-2.7v-7.8c0-1.4-.4-2.9-2.4-2.9s-3.2,1.3-3.2,3.4v7.3h-2.7v-7.8c0-1.4-.4-2.9-2.4-2.9s-3.2,1.3-3.2,3.4v7.3h-2.7Z"/>
    <path class="cls-3" d="M53.2,102.3v-2.5h2.7v2.5h-2.7ZM53.2,117.2v-12.9h2.7v12.9h-2.7Z"/>
    <path class="cls-3" d="M70.2,114.7c-1.1,1.6-2.8,2.8-5.4,2.8-3.9,0-6.4-2.9-6.4-6.7s2.5-6.7,6.4-6.7,4.2,1.2,5.3,2.9l-2,1.4c-.7-1.2-1.7-1.9-3.2-1.9-2.3,0-3.6,1.9-3.6,4.3s1.4,4.4,3.7,4.4,2.5-.8,3.2-1.9l2,1.4Z"/>
    <path class="cls-3" d="M78.1,117.5c-4,0-6.5-2.8-6.5-6.7s2.5-6.7,6.5-6.7,6.5,2.8,6.5,6.7-2.5,6.7-6.5,6.7ZM78.1,106.4c-2.3,0-3.7,1.9-3.7,4.4s1.3,4.4,3.7,4.4,3.6-1.9,3.6-4.4-1.3-4.4-3.6-4.4Z"/>
    <path class="cls-3" d="M87.3,117.2v-12.9h2.7v1.9c1.1-1.4,2.5-2.2,4.2-2.2,2.8,0,4.4,1.9,4.4,4.8v8.4h-2.7v-7.8c0-1.4-.4-2.9-2.5-2.9s-3.4,1.3-3.4,3.5v7.2h-2.7Z"/>
    <path class="cls-3" d="M111.4,117.2v-1.9c-1.2,1.5-2.7,2.2-4.3,2.2-3.7,0-5.9-2.9-5.9-6.7s2.3-6.7,5.9-6.7,3.2.6,4.3,2.2v-6.5h2.7v17.5h-2.7ZM107.6,106.5c-2.5,0-3.6,1.9-3.6,4.3s1.2,4.3,3.6,4.3,3.7-1.9,3.7-4.3-1.3-4.3-3.7-4.3Z"/>
    <path class="cls-3" d="M128.8,104.4v12.9h-2.7v-1.9c-1.1,1.4-2.5,2.2-4.2,2.2-2.8,0-4.4-1.9-4.4-4.8v-8.4h2.7v7.8c0,1.4.4,2.9,2.5,2.9s3.4-1.3,3.4-3.5v-7.2h2.7Z"/>
    <path class="cls-3" d="M143.2,114.7c-1.1,1.6-2.8,2.8-5.4,2.8-3.9,0-6.4-2.9-6.4-6.7s2.5-6.7,6.4-6.7,4.2,1.2,5.3,2.9l-2,1.4c-.7-1.2-1.7-1.9-3.2-1.9-2.3,0-3.6,1.9-3.6,4.3s1.4,4.4,3.7,4.4,2.5-.8,3.2-1.9l2,1.4Z"/>
    <path class="cls-3" d="M153.5,116.6c-.8.6-1.8,1-3.1,1s-2.8-.5-3.5-1.6c-.4-.7-.6-1.4-.6-2.7v-6.7h-2.2v-2.1h2.2v-3.5h2.7v3.5h4v2.1h-4v6.8c0,1.3.6,1.9,1.7,1.9s1.2-.3,1.6-.6l1.1,2Z"/>
    <path class="cls-3" d="M161.2,117.5c-4,0-6.5-2.8-6.5-6.7s2.5-6.7,6.5-6.7,6.5,2.8,6.5,6.7-2.5,6.7-6.5,6.7ZM161.2,106.4c-2.3,0-3.7,1.9-3.7,4.4s1.3,4.4,3.7,4.4,3.6-1.9,3.6-4.4-1.3-4.4-3.6-4.4Z"/>
    <path class="cls-3" d="M177.6,107.2c-.4-.2-.9-.4-1.5-.4-1.6,0-3.1,1.4-3.1,3.9v6.5h-2.7v-12.9h2.7v2.1c.9-1.3,2.1-2.3,3.6-2.3s1.3.2,1.7.4l-.8,2.6Z"/>
  </g>
  <g>
    <path class="cls-2" d="M140,22.7L88.9,5.8l-51.1,16.9s-6.2,47.2,51.1,65.8c57.3-18.6,51.1-65.8,51.1-65.8Z"/>
    <g>
      <path class="cls-1" d="M59.2,67.4c8.2,7.7,16.8,13.1,29.7,17.1,13.2-4.6,20.9-9,29.7-17.1h-59.5Z"/>
      <polygon class="cls-1" points="124 21.6 88.9 9.9 53.9 21.6 124 21.6"/>
    </g>
    <g>
      <path class="cls-3" d="M56.2,49.4c2.3,2.3,5.9,4.2,10.3,4.2s4.6-1.2,4.6-2.7-2.1-2.6-5.5-3.3c-5.3-1.1-12.7-2.4-12.7-10s4.6-10.1,12.8-10.1,9.6,1.5,13.1,4.5l-4.5,5.9c-2.7-2.2-6.2-3.3-9.1-3.3s-3.8,1.1-3.8,2.5,2,2.3,5.5,2.9c5.3,1.1,12.6,2.7,12.6,9.9s-4.8,10.7-13.4,10.7-11-2-14.3-5.1l4.4-6.2Z"/>
      <rect class="cls-3" x="113.1" y="28" width="8.3" height="32.1"/>
      <path class="cls-3" d="M97.7,53.4c-5,0-8.7-4-8.7-9.3s3.7-9.3,8.7-9.3,5.6,1.8,6.9,4.1l6.3-4.6s0,0,0,0c-2.4-3.6-6.4-6.8-13.2-6.8s-17.2,6.7-17.2,16.6,7.5,16.6,17.2,16.6,11.3-3.6,13.6-7.4l-6.4-4.6c-1.1,2.6-3.8,4.7-7.1,4.7Z"/>
    </g>
    <path class="cls-3" d="M88.9,5.8l51.1,16.9s6.2,47.2-51.1,65.8C31.6,69.9,37.8,22.7,37.8,22.7L88.9,5.8M88.9,0l-1.7.6-51.1,16.9-3.3,1.1-.5,3.4c0,.5-1.7,13.4,4.4,28.7,5.6,14,18.8,32.8,50.5,43.1l1.7.6,1.7-.6c31.6-10.3,44.9-29.1,50.5-43.1,6.1-15.3,4.5-28.1,4.4-28.7l-.5-3.4-3.3-1.1L90.7.6l-1.7-.6h0Z"/>
  </g>
</svg>