<?xml version="1.0" encoding="utf-8"?>
<!-- Generator: Adobe Illustrator 16.0.3, SVG Export Plug-In . SVG Version: 6.00 Build 0)  -->
<!DOCTYPE svg PUBLIC "-//W3C//DTD SVG 1.1//EN" "http://www.w3.org/Graphics/SVG/1.1/DTD/svg11.dtd">
<svg version="1.1" id="Layer_1" xmlns="http://www.w3.org/2000/svg" xmlns:xlink="http://www.w3.org/1999/xlink" x="0px" y="0px"
	 width="400px" height="260.114px" viewBox="0 0 400 260.114" enable-background="new 0 0 400 260.114" xml:space="preserve">
<g id="Layer_1_1_" display="none">
	<path display="inline" fill="#FFFFFF" d="M15.862,8.34c-4.148,0-7.523,3.717-7.523,8.284v166.828c0,4.568,3.375,8.285,7.523,8.285
		h368.563c4.124,0,7.479-3.717,7.479-8.285V16.624c0-4.567-3.355-8.284-7.479-8.284H15.862z"/>
	<g display="inline">
		<g>
			<path d="M384.425,200.077H15.862C7.115,200.077,0,192.618,0,183.452V16.624C0,7.457,7.115,0,15.862,0h368.563
				c8.722,0,15.819,7.457,15.819,16.624v166.828C400.244,192.618,393.146,200.077,384.425,200.077z M15.862,8.34
				c-4.148,0-7.523,3.717-7.523,8.284v166.828c0,4.568,3.375,8.285,7.523,8.285h368.563c4.124,0,7.479-3.717,7.479-8.285V16.624
				c0-4.567-3.355-8.284-7.479-8.284H15.862z"/>
		</g>
		<polygon fill="#1C63B7" points="20.861,66.697 45.897,100.038 20.861,133.377 		"/>
		<g>
			<path fill="#1C63B7" d="M58.047,36.917L99.732,91.1l0.022,0.217c1.07,1.397,2.75,2.544,4.638,2.544h266.806
				c3.22,0,5.846-2.78,5.846-6c0-3.22-2.626-6-5.846-6H107.25L67.324,29.882l-0.022-0.023c-1.069-1.398-2.749-2.326-4.638-2.326
				c-3.177,0-5.803,2.617-5.803,5.837c0,1.337,0.457,2.553,1.213,3.532L58.047,36.917z"/>
			<path fill="#1C63B7" d="M81.348,103.549c0.845-1.009,1.354-2.206,1.354-3.604s-0.51-2.635-1.354-3.643L31.484,29.86h-0.002
				c-1.069-1-2.758-2.339-4.658-2.339c-3.219,0-5.846,2.621-5.846,5.841c0,1.457,0.542,2.775,1.427,3.793l47.185,62.884
				l-47.186,62.887c-0.886,1.017-1.426,2.338-1.426,3.793c0,3.22,2.627,5.66,5.846,5.66c1.9,0,3.589-1.52,4.658-2.52h0.002
				L81.348,103.549z"/>
			<path fill="#1C63B7" d="M371.198,105.86H104.392c-1.888,0-3.568,1.321-4.638,2.719l-0.022,0.191l-41.686,54.285l0.027,0.074
				c-0.757,0.978-1.213,2.226-1.213,3.562c0,3.222,2.626,5.86,5.803,5.86c1.889,0,3.568-0.902,4.638-2.297l0.022-0.241
				l39.925-52.153h263.949c3.22,0,5.846-2.78,5.846-6C377.043,108.64,374.418,105.86,371.198,105.86z"/>
		</g>
		<path d="M141.767,142.274c0,1.102-0.381,1.949-1.144,2.584c-0.762,0.637-1.78,0.975-3.05,0.975c-1.61,0-3.22-0.848-4.746-2.584
			c-0.423-0.424-0.719-0.721-0.932-0.975c-0.805-0.805-1.821-1.396-3.05-1.822c-1.228-0.38-2.711-0.593-4.405-0.593
			c-2.458,0-4.364,0.425-5.719,1.229c-1.355,0.848-2.033,1.99-2.033,3.476c0,2.074,2.626,3.601,7.879,4.658
			c1.271,0.255,2.246,0.467,2.923,0.594c3.262,0.679,5.677,1.271,7.202,1.692c1.525,0.425,2.839,0.892,3.94,1.4
			c1.907,0.932,3.304,2.116,4.237,3.559c0.89,1.482,1.355,3.261,1.355,5.38c0,3.854-1.61,6.903-4.829,9.149
			c-3.178,2.289-7.583,3.391-13.133,3.391c-3.008,0-5.549-0.254-7.71-0.807c-2.161-0.549-4.279-1.44-6.313-2.668
			c-1.355-0.806-2.457-1.822-3.304-3.008c-0.805-1.188-1.187-2.289-1.187-3.433s0.381-2.075,1.144-2.839
			c0.805-0.719,1.822-1.102,3.092-1.102c1.652,0,3.22,0.934,4.618,2.754c0.551,0.721,0.974,1.229,1.313,1.609
			c0.932,0.934,2.034,1.652,3.389,2.119c1.313,0.465,2.923,0.677,4.787,0.677c2.923,0,5.125-0.424,6.651-1.271
			c1.482-0.848,2.245-2.119,2.245-3.771c0-2.33-3.855-4.236-11.565-5.719c-0.296-0.042-0.507-0.085-0.677-0.127
			c-5.931-1.145-9.956-2.586-12.031-4.279c-2.118-1.734-3.135-4.193-3.135-7.456c0-3.687,1.525-6.565,4.575-8.601
			c3.05-2.075,7.329-3.092,12.793-3.092c2.542,0,4.787,0.254,6.863,0.721c2.076,0.509,3.939,1.229,5.592,2.244
			c1.313,0.763,2.373,1.738,3.177,2.839C141.385,140.284,141.767,141.299,141.767,142.274z"/>
		<path d="M181.545,166.168c1.694,0,3.008,0.295,3.856,0.89c0.847,0.593,1.271,1.481,1.271,2.669s-0.424,2.076-1.313,2.669
			c-0.847,0.592-2.119,0.933-3.813,0.933h-24.232c-2.161,0-3.643-0.424-4.49-1.313c-0.848-0.849-1.229-2.457-1.229-4.787V140.54
			c0-2.414,0.381-4.023,1.229-4.871c0.847-0.849,2.33-1.271,4.49-1.271h23.046c1.652,0,2.923,0.296,3.813,0.848
			c0.847,0.594,1.271,1.439,1.271,2.584c0,1.102-0.424,1.907-1.271,2.5c-0.89,0.551-2.161,0.848-3.813,0.848h-19.445v8.262h17.454
			c1.694,0,2.965,0.296,3.813,0.846c0.805,0.553,1.228,1.399,1.228,2.543c0,1.06-0.423,1.865-1.271,2.457
			c-0.89,0.551-2.118,0.848-3.77,0.848h-17.454v10.041h20.63V166.168z"/>
		<path d="M225.139,158.922h-7.033c-1.187,0-2.16-0.338-2.881-0.973c-0.763-0.636-1.145-1.441-1.145-2.5
			c0-0.975,0.382-1.779,1.102-2.33c0.721-0.594,1.695-0.89,2.924-0.89h10.125c2.033,0,3.475,0.296,4.278,0.849
			c0.806,0.549,1.229,1.481,1.229,2.836v14.871c0,1.187-0.254,2.074-0.805,2.668c-0.552,0.551-1.356,0.848-2.5,0.848
			c-0.932,0-1.651-0.254-2.246-0.678c-0.592-0.467-1.016-1.102-1.229-1.99l-0.72-2.924c-1.737,1.947-3.687,3.39-5.847,4.322
			c-2.119,0.889-4.66,1.354-7.584,1.354c-6.438,0-11.649-1.864-15.588-5.636c-3.982-3.771-5.973-8.77-5.973-14.91
			c0-6.229,1.991-11.229,5.931-14.914c3.981-3.686,9.278-5.549,15.886-5.549c2.16,0,4.151,0.168,6.016,0.551
			c1.906,0.338,3.645,0.847,5.254,1.525c2.287,1.017,4.023,2.16,5.295,3.432c1.229,1.27,1.863,2.584,1.863,3.896
			c0,1.102-0.422,2.032-1.229,2.797c-0.762,0.721-1.736,1.102-2.924,1.102c-1.016,0-1.863-0.17-2.626-0.553
			c-0.72-0.338-1.608-1.059-2.669-2.158c-1.271-1.355-2.542-2.33-3.813-2.883c-1.355-0.551-2.924-0.846-4.744-0.846
			c-3.855,0-6.864,1.229-9.108,3.6c-2.204,2.416-3.305,5.72-3.305,9.957c0,4.193,1.143,7.496,3.432,9.912
			c2.288,2.414,5.464,3.602,9.403,3.602c3.009,0,5.467-0.764,7.499-2.246C223.4,163.583,224.629,161.508,225.139,158.922z"/>
		<path d="M274.703,158.922h-7.032c-1.187,0-2.161-0.338-2.924-0.973c-0.72-0.636-1.103-1.441-1.103-2.5
			c0-0.975,0.383-1.779,1.06-2.33c0.721-0.594,1.737-0.89,2.967-0.89h10.167c2.034,0,3.432,0.296,4.279,0.849
			c0.805,0.549,1.186,1.481,1.186,2.836v14.871c0,1.187-0.255,2.074-0.763,2.668c-0.552,0.551-1.397,0.848-2.542,0.848
			c-0.891,0-1.652-0.254-2.245-0.678c-0.55-0.467-0.974-1.102-1.187-1.99l-0.721-2.924c-1.736,1.947-3.687,3.39-5.846,4.322
			c-2.16,0.889-4.745,1.354-7.626,1.354c-6.438,0-11.649-1.864-15.633-5.636c-3.938-3.771-5.931-8.77-5.931-14.91
			c0-6.229,1.991-11.229,5.931-14.914c3.94-3.686,9.235-5.549,15.888-5.549c2.117,0,4.15,0.168,6.057,0.551
			c1.865,0.338,3.646,0.847,5.254,1.525c2.246,1.017,4.025,2.16,5.254,3.432c1.271,1.27,1.863,2.584,1.863,3.896
			c0,1.102-0.382,2.032-1.186,2.797c-0.807,0.721-1.78,1.102-2.967,1.102c-0.975,0-1.821-0.17-2.584-0.553
			c-0.721-0.338-1.609-1.059-2.711-2.158c-1.229-1.355-2.5-2.33-3.855-2.883c-1.313-0.551-2.922-0.846-4.744-0.846
			c-3.813,0-6.863,1.229-9.066,3.6c-2.201,2.416-3.303,5.72-3.303,9.957c0,4.193,1.145,7.496,3.432,9.912
			c2.287,2.414,5.423,3.602,9.404,3.602c2.965,0,5.465-0.764,7.498-2.246S274.236,161.508,274.703,158.922z"/>
		<path d="M322.361,166.168c1.695,0,3.008,0.295,3.854,0.89c0.849,0.593,1.271,1.481,1.271,2.669s-0.424,2.076-1.313,2.669
			c-0.848,0.592-2.117,0.933-3.813,0.933H298.13c-2.161,0-3.687-0.424-4.491-1.313c-0.846-0.849-1.27-2.457-1.27-4.787V140.54
			c0-2.414,0.424-4.023,1.27-4.871c0.807-0.849,2.33-1.271,4.491-1.271h23.004c1.694,0,2.966,0.296,3.854,0.848
			c0.848,0.594,1.271,1.439,1.271,2.584c0,1.102-0.424,1.907-1.271,2.5c-0.889,0.551-2.16,0.848-3.854,0.848h-19.444v8.262h17.496
			c1.694,0,2.965,0.296,3.771,0.846c0.847,0.553,1.271,1.399,1.271,2.543c0,1.06-0.424,1.865-1.271,2.457
			c-0.89,0.551-2.118,0.848-3.771,0.848h-17.496v10.041h20.672V166.168z"/>
		<path d="M343.502,141.088v10.338h11.1c2.414,0,4.193-0.424,5.295-1.271c1.145-0.805,1.736-2.119,1.736-3.896
			c0-1.693-0.55-2.967-1.693-3.854c-1.102-0.891-2.754-1.313-4.914-1.313h-11.523V141.088z M343.502,169.514
			c0,1.441-0.382,2.5-1.188,3.22c-0.763,0.722-1.947,1.062-3.559,1.062c-1.566,0-2.754-0.383-3.517-1.062
			c-0.806-0.72-1.187-1.778-1.187-3.22v-28.977c0-2.414,0.424-4.023,1.229-4.871c0.848-0.849,2.329-1.271,4.489-1.271h16.521
			c5.041,0,8.729,0.891,11.143,2.711s3.644,4.619,3.644,8.348c0,2.371-0.593,4.362-1.78,5.93c-1.185,1.611-2.88,2.67-5.082,3.263
			c1.736,0.466,3.051,1.271,3.939,2.329c0.889,1.061,1.439,2.458,1.609,4.238c0.084,0.72,0.17,1.649,0.211,2.795
			c0.043,1.186,0.084,1.947,0.213,2.371c0.086,0.467,0.254,1.145,0.466,1.992c0.213,0.889,0.339,1.524,0.339,1.862
			c0,1.103-0.424,1.992-1.271,2.627c-0.847,0.679-1.99,0.976-3.432,0.976c-1.992,0-3.389-0.465-4.236-1.439
			c-0.806-0.934-1.396-3.391-1.736-7.33c-0.213-3.134-0.848-5.04-1.779-5.803c-0.932-0.721-2.626-1.104-5.041-1.104h-9.997
			L343.502,169.514L343.502,169.514z"/>
	</g>
	<g display="inline">
		<path fill="#2C2C2C" d="M21.232,248.478v-35.972h7.399v35.972H21.232z"/>
		<path fill="#2C2C2C" d="M47.532,248.672c-0.651,0.017-1.428,0.045-2.332,0.086c-0.903,0.041-1.477,0.061-1.722,0.061
			c-2.719,0-4.579-0.507-5.58-1.525s-1.502-3.023-1.502-6.02v-14.359H32.88v-4.98h3.516v-7.253h7.033v7.253h4.103v4.98H43.43v14.701
			c0,0.699,0.155,1.159,0.464,1.381c0.309,0.219,0.943,0.328,1.905,0.328h1.733V248.672z"/>
		<path fill="#2C2C2C" d="M64.358,239.833h7.082c0.065,1.351,0.554,2.355,1.465,3.017c0.912,0.659,2.279,0.987,4.103,0.987
			c1.384,0,2.454-0.231,3.211-0.694c0.757-0.464,1.136-1.119,1.136-1.968c0-1.203-1.417-2.106-4.25-2.709
			c-1.156-0.244-2.076-0.455-2.759-0.635c-3.452-0.879-5.849-1.922-7.191-3.125c-1.343-1.205-2.015-2.834-2.015-4.886
			c0-2.719,0.981-4.872,2.943-6.458c1.961-1.589,4.619-2.382,7.973-2.382c3.55,0,6.337,0.79,8.364,2.368s3.105,3.802,3.236,6.667
			h-6.911c-0.049-1.124-0.477-1.994-1.283-2.613c-0.806-0.618-1.925-0.927-3.357-0.927c-1.352,0-2.356,0.203-3.016,0.609
			c-0.66,0.408-0.989,1.018-0.989,1.832c0,1.059,1.766,1.994,5.299,2.809c0.813,0.179,1.457,0.324,1.929,0.439
			c3.533,0.83,5.946,1.832,7.241,3.002c1.293,1.172,1.941,2.824,1.941,4.959c0,3.01-1.062,5.307-3.188,6.885
			c-2.124,1.58-5.213,2.369-9.268,2.369c-3.663,0-6.528-0.821-8.596-2.467c-2.067-1.644-3.101-3.906-3.101-6.787L64.358,239.833
			L64.358,239.833z"/>
		<path fill="#2C2C2C" d="M93.296,218.979v-6.473h7.106v6.473H93.296z M93.296,248.478v-26.545h7.106v26.545H93.296z"/>
		<path fill="#2C2C2C" d="M106.751,248.478v-26.545h6.74v2.931c0.993-1.222,2.1-2.142,3.321-2.76c1.221-0.619,2.572-0.93,4.054-0.93
			c1.676,0,3.109,0.314,4.297,0.941s2.222,1.615,3.102,2.967c0.928-1.303,2.027-2.278,3.297-2.932
			c1.27-0.65,2.686-0.977,4.249-0.977c2.67,0,4.787,0.781,6.35,2.345s2.344,3.696,2.344,6.397v18.561h-7.009v-17.096
			c0-1.285-0.346-2.283-1.037-2.991c-0.693-0.708-1.657-1.062-2.895-1.062c-1.384,0-2.483,0.451-3.296,1.354
			c-0.814,0.903-1.221,2.136-1.221,3.698v16.095h-6.935V231.43c0-1.303-0.338-2.313-1.014-3.027
			c-0.676-0.715-1.624-1.074-2.845-1.074c-1.383,0-2.479,0.455-3.284,1.366c-0.806,0.913-1.209,2.157-1.209,3.737v16.044h-7.009
			V248.478z"/>
		<path fill="#2C2C2C" d="M150.757,259.124v-37.19h6.764v3.589c1.025-1.563,2.169-2.702,3.431-3.418
			c1.261-0.716,2.747-1.074,4.457-1.074c3.272,0,5.926,1.29,7.961,3.869c2.035,2.581,3.052,5.973,3.052,10.172
			c0,4.249-1.018,7.696-3.052,10.344c-2.035,2.646-4.656,3.967-7.863,3.967c-1.693,0-3.204-0.358-4.53-1.074
			c-1.327-0.717-2.43-1.76-3.309-3.125v13.943h-6.911V259.124z M169.364,235.363c0-2.67-0.504-4.709-1.514-6.116
			c-1.009-1.408-2.475-2.111-4.396-2.111c-1.889,0-3.325,0.699-4.311,2.1c-0.985,1.4-1.477,3.441-1.477,6.129
			c0,2.508,0.517,4.443,1.551,5.813c1.034,1.367,2.495,2.052,4.383,2.052c1.791,0,3.199-0.699,4.225-2.101
			C168.852,239.728,169.364,237.807,169.364,235.363z"/>
		<path fill="#2C2C2C" d="M181.502,248.478v-35.972h7.106v35.972H181.502z"/>
		<path fill="#2C2C2C" d="M196.056,259.124v-5.738c0.228,0.031,0.464,0.058,0.708,0.074c0.244,0.016,0.562,0.022,0.952,0.022
			c1.4,0,2.45-0.328,3.15-0.987c0.7-0.66,1.05-1.648,1.05-2.967c0-0.1-0.018-0.221-0.05-0.367c-0.031-0.146-0.064-0.27-0.097-0.365
			l-9.574-26.862h7.814l5.594,19.146l5.445-19.146h7.473l-10.916,31.307c-0.813,2.345-1.832,3.944-3.054,4.798
			c-1.22,0.855-3.052,1.282-5.494,1.282c-0.439,0-0.912-0.016-1.416-0.049C197.139,259.238,196.609,259.189,196.056,259.124z"/>
		<path fill="#2C2C2C" d="M243.675,248.478l-10.305-35.972h7.668l6.153,25.371l5.203-25.371h7.887l5.201,25.371l6.154-25.371h7.594
			l-10.28,35.972h-7.058l-5.567-27.547l-5.593,27.547H243.675z"/>
		<path fill="#2C2C2C" d="M280.111,235.168c0-4.412,1.195-7.881,3.589-10.403s5.682-3.784,9.864-3.784
			c4.168,0,7.453,1.262,9.854,3.784s3.603,5.991,3.603,10.403c0,4.429-1.201,7.904-3.603,10.428s-5.687,3.785-9.854,3.785
			c-4.184,0-7.472-1.262-9.864-3.785C281.307,243.073,280.111,239.597,280.111,235.168z M287.314,235.168
			c0,2.639,0.541,4.674,1.625,6.104c1.08,1.433,2.625,2.147,4.625,2.147c1.972,0,3.498-0.717,4.58-2.147
			c1.082-1.433,1.623-3.467,1.623-6.104c0-2.621-0.537-4.645-1.609-6.069c-1.075-1.425-2.606-2.136-4.594-2.136
			c-2,0-3.545,0.711-4.625,2.136C287.855,230.524,287.314,232.547,287.314,235.168z"/>
		<path fill="#2C2C2C" d="M311.857,248.478v-26.545h6.593v4.543c0.929-1.824,2.01-3.163,3.247-4.019
			c1.236-0.854,2.711-1.283,4.422-1.283c0.275,0,0.49,0.006,0.646,0.014c0.153,0.01,0.279,0.021,0.377,0.037l0.024,7.203h-2.369
			c-1.938,0-3.396,0.505-4.371,1.515c-0.976,1.011-1.465,2.507-1.465,4.492v14.043H311.857L311.857,248.478z"/>
		<path fill="#2C2C2C" d="M331.197,248.478v-35.972h6.91v18.877l8.451-9.45h8.547l-9.256,9.841l9.816,16.704h-8.521l-6.351-11.308
			l-2.687,2.906v8.4L331.197,248.478L331.197,248.478z"/>
		<path fill="#2C2C2C" d="M357.277,239.833h7.082c0.064,1.351,0.555,2.355,1.466,3.017c0.911,0.659,2.278,0.987,4.102,0.987
			c1.384,0,2.455-0.231,3.212-0.694c0.758-0.464,1.137-1.119,1.137-1.968c0-1.203-1.418-2.106-4.25-2.709
			c-1.155-0.244-2.074-0.455-2.758-0.635c-3.453-0.879-5.851-1.922-7.192-3.125c-1.343-1.205-2.015-2.834-2.015-4.886
			c0-2.719,0.979-4.872,2.941-6.458c1.962-1.589,4.618-2.382,7.973-2.382c3.549,0,6.338,0.79,8.364,2.368
			c2.027,1.578,3.106,3.802,3.236,6.667h-6.911c-0.048-1.124-0.477-1.994-1.282-2.613c-0.806-0.618-1.927-0.927-3.358-0.927
			c-1.351,0-2.355,0.203-3.016,0.609c-0.66,0.408-0.988,1.018-0.988,1.832c0,1.059,1.767,1.994,5.299,2.809
			c0.813,0.179,1.457,0.324,1.931,0.439c3.53,0.83,5.944,1.832,7.239,3.002c1.295,1.172,1.941,2.824,1.941,4.959
			c0,3.01-1.062,5.307-3.188,6.885c-2.124,1.58-5.215,2.369-9.268,2.369c-3.662,0-6.527-0.821-8.597-2.467
			c-2.067-1.644-3.101-3.906-3.101-6.787V239.833L357.277,239.833z"/>
	</g>
	<g display="inline">
		<path d="M20.126,248.09v-35.241h7.25v35.241H20.126z"/>
		<path d="M45.894,248.282c-0.638,0.016-1.399,0.045-2.285,0.084c-0.885,0.039-1.447,0.061-1.687,0.061
			c-2.664,0-4.486-0.498-5.467-1.495s-1.472-2.964-1.472-5.897v-14.068h-3.445v-4.881h3.445v-7.105h6.891v7.105h4.02v4.881h-4.02
			v14.404c0,0.686,0.151,1.135,0.455,1.352c0.303,0.215,0.925,0.322,1.866,0.322h1.699V248.282L45.894,248.282z"/>
		<path d="M62.379,239.622h6.938c0.063,1.323,0.542,2.309,1.436,2.955c0.893,0.646,2.233,0.969,4.02,0.969
			c1.355,0,2.404-0.229,3.146-0.683c0.741-0.454,1.112-1.097,1.112-1.927c0-1.18-1.388-2.064-4.163-2.654
			c-1.133-0.24-2.034-0.447-2.704-0.623c-3.382-0.861-5.73-1.882-7.046-3.063c-1.315-1.182-1.974-2.775-1.974-4.785
			c0-2.664,0.961-4.773,2.883-6.328c1.922-1.557,4.526-2.333,7.812-2.333c3.477,0,6.208,0.772,8.195,2.321
			c1.985,1.547,3.042,3.724,3.17,6.531h-6.771c-0.048-1.102-0.466-1.955-1.256-2.562c-0.789-0.604-1.886-0.907-3.29-0.907
			c-1.324,0-2.309,0.198-2.955,0.598c-0.646,0.397-0.969,0.996-0.969,1.795c0,1.035,1.73,1.953,5.192,2.75
			c0.797,0.177,1.427,0.32,1.89,0.432c3.461,0.813,5.826,1.795,7.094,2.943s1.902,2.767,1.902,4.855c0,2.951-1.041,5.2-3.123,6.747
			c-2.081,1.548-5.108,2.32-9.08,2.32c-3.589,0-6.396-0.806-8.422-2.416s-3.039-3.828-3.039-6.651v-0.285H62.379z"/>
		<path d="M90.731,219.188v-6.34h6.962v6.34H90.731z M90.731,248.09v-26.008h6.962v26.008H90.731z"/>
		<path d="M103.914,248.09v-26.008h6.604v2.871c0.973-1.195,2.058-2.097,3.254-2.703c1.196-0.605,2.52-0.908,3.972-0.908
			c1.643,0,3.046,0.308,4.211,0.921c1.164,0.614,2.177,1.583,3.039,2.907c0.909-1.276,1.986-2.233,3.23-2.871
			c1.244-0.639,2.632-0.957,4.163-0.957c2.616,0,4.689,0.766,6.221,2.297c1.532,1.531,2.297,3.621,2.297,6.27v18.184h-6.867v-16.748
			c0-1.26-0.339-2.237-1.017-2.932c-0.678-0.693-1.624-1.041-2.835-1.041c-1.356,0-2.433,0.442-3.23,1.328
			c-0.798,0.885-1.196,2.094-1.196,3.625v15.768h-6.795v-16.7c0-1.276-0.331-2.265-0.993-2.968
			c-0.662-0.701-1.591-1.053-2.787-1.053c-1.356,0-2.429,0.446-3.218,1.34c-0.79,0.895-1.185,2.113-1.185,3.662v15.719h-6.868
			V248.09z"/>
		<path d="M147.028,258.522v-36.439h6.627v3.519c1.005-1.531,2.125-2.647,3.361-3.351c1.236-0.701,2.692-1.053,4.367-1.053
			c3.206,0,5.806,1.266,7.8,3.793c1.994,2.527,2.991,5.85,2.991,9.965c0,4.162-0.997,7.541-2.991,10.133
			c-1.994,2.593-4.562,3.888-7.704,3.888c-1.659,0-3.138-0.351-4.438-1.054c-1.3-0.7-2.381-1.723-3.242-3.063v13.662H147.028
			L147.028,258.522z M165.26,235.243c0-2.615-0.495-4.613-1.483-5.994c-0.989-1.379-2.425-2.068-4.307-2.068
			c-1.851,0-3.258,0.686-4.223,2.058s-1.447,3.373-1.447,6.007c0,2.455,0.506,4.354,1.52,5.692c1.013,1.34,2.444,2.01,4.294,2.01
			c1.754,0,3.134-0.687,4.139-2.057C164.757,239.518,165.26,237.635,165.26,235.243z"/>
		<path d="M177.151,248.09v-35.241h6.962v35.241H177.151z"/>
		<path d="M191.411,258.522v-5.623c0.223,0.032,0.455,0.057,0.694,0.072c0.239,0.015,0.55,0.023,0.933,0.023
			c1.372,0,2.4-0.322,3.087-0.97c0.686-0.646,1.028-1.614,1.028-2.905c0-0.097-0.016-0.217-0.048-0.359
			c-0.032-0.143-0.063-0.264-0.096-0.359l-9.379-26.318h7.656l5.479,18.758l5.336-18.758h7.319l-10.692,30.674
			c-0.799,2.298-1.795,3.863-2.993,4.701c-1.196,0.838-2.991,1.256-5.384,1.256c-0.43,0-0.893-0.016-1.387-0.047
			C192.471,258.633,191.953,258.586,191.411,258.522z"/>
		<path d="M235.291,248.09l-7.369-26.008h7.057l4.261,18.018l3.588-18.018h7.106l3.779,18.018l4.26-18.018h6.746l-7.297,26.008
			h-6.963l-4.162-18.613l-4.02,18.613H235.291z"/>
		<path d="M266.801,235.051c0-4.322,1.172-7.721,3.518-10.192c2.345-2.472,5.566-3.708,9.666-3.708c4.084,0,7.302,1.236,9.654,3.708
			c2.353,2.474,3.529,5.87,3.529,10.192c0,4.339-1.178,7.744-3.529,10.217c-2.354,2.473-5.57,3.708-9.654,3.708
			c-4.1,0-7.321-1.235-9.666-3.708C267.973,242.795,266.801,239.39,266.801,235.051z M273.859,235.051
			c0,2.584,0.529,4.578,1.592,5.98c1.061,1.404,2.57,2.105,4.533,2.105c1.93,0,3.426-0.701,4.486-2.105
			c1.061-1.402,1.59-3.396,1.59-5.98c0-2.567-0.525-4.549-1.578-5.945s-2.553-2.093-4.498-2.093c-1.963,0-3.473,0.696-4.533,2.093
			C274.389,230.502,273.859,232.483,273.859,235.051z"/>
		<path d="M297.904,248.09v-26.008h6.459v4.451c0.91-1.787,1.971-3.099,3.184-3.937c1.211-0.837,2.654-1.257,4.33-1.257
			c0.271,0,0.482,0.005,0.635,0.013c0.15,0.009,0.273,0.021,0.369,0.036l0.025,7.059h-2.322c-1.896,0-3.324,0.494-4.281,1.482
			s-1.436,2.457-1.436,4.402v13.758H297.904L297.904,248.09z"/>
		<path d="M316.854,248.09v-35.241h6.771v18.493l8.277-9.26h8.375l-9.068,9.644l9.619,16.364h-8.352l-6.222-11.077l-2.631,2.848
			v8.229H316.854z"/>
		<path d="M342.406,239.622h6.938c0.064,1.323,0.543,2.309,1.436,2.955c0.896,0.646,2.234,0.969,4.021,0.969
			c1.354,0,2.404-0.229,3.146-0.683c0.742-0.454,1.113-1.097,1.113-1.927c0-1.18-1.389-2.064-4.164-2.654
			c-1.133-0.24-2.033-0.447-2.703-0.623c-3.381-0.861-5.729-1.882-7.047-3.063c-1.313-1.182-1.973-2.775-1.973-4.785
			c0-2.664,0.961-4.773,2.883-6.328c1.922-1.557,4.525-2.333,7.812-2.333c3.479,0,6.209,0.772,8.194,2.321
			c1.986,1.547,3.043,3.724,3.17,6.531h-6.771c-0.047-1.102-0.465-1.955-1.256-2.562c-0.789-0.604-1.886-0.907-3.289-0.907
			c-1.324,0-2.31,0.198-2.955,0.598c-0.646,0.398-0.969,0.996-0.969,1.795c0,1.035,1.729,1.953,5.19,2.75
			c0.799,0.177,1.428,0.32,1.892,0.432c3.461,0.813,5.825,1.795,7.094,2.943s1.901,2.767,1.901,4.855c0,2.951-1.041,5.2-3.122,6.747
			c-2.08,1.548-5.107,2.32-9.08,2.32c-3.589,0-6.396-0.806-8.423-2.416c-2.024-1.61-3.036-3.828-3.036-6.651L342.406,239.622
			L342.406,239.622z"/>
		<path d="M373.844,238.282l-1.865-15.863v-9.569h7.369v9.569l-1.867,15.863H373.844z M372.074,248.09v-7.059h7.105v7.059H372.074z"
			/>
	</g>
</g>
<g id="Layer_2">
	<g>
		<g>
			<g>
				<path fill="#FFFFFF" d="M15.852,4.168h368.337c6.395,0,11.644,5.588,11.644,12.446V183.34c0,6.859-5.249,12.447-11.644,12.447
					H15.852c-6.435,0-11.685-5.588-11.685-12.447V16.614C4.167,9.756,9.417,4.168,15.852,4.168z"/>
				<path d="M384.189,199.956H15.852C7.112,199.956,0,192.502,0,183.34V16.614C0,7.453,7.112,0,15.852,0h368.337
					C392.908,0,400,7.453,400,16.614V183.34C400,192.502,392.908,199.956,384.189,199.956z M15.852,8.334
					c-4.145,0-7.518,3.715-7.518,8.28V183.34c0,4.566,3.373,8.281,7.518,8.281h368.337c4.123,0,7.477-3.715,7.477-8.281V16.614
					c0-4.565-3.354-8.28-7.477-8.28H15.852z"/>
			</g>
			<polygon fill="#1C63B7" points="20.848,66.657 45.869,99.978 20.848,133.299 			"/>
			<path fill="#1C63B7" d="M370.854,106.624H104.211c-1.888,0-3.565,0.908-4.635,2.305l-0.022-0.018l-41.661,54.15l0.029,0.021
				c-0.756,0.977-1.213,2.199-1.213,3.535c0,3.215,2.623,5.842,5.799,5.842c1.889,0,3.565-0.908,4.636-2.303l0.022,0.016
				l39.9-51.862h263.788c3.219,0,5.842-2.625,5.842-5.843C376.695,109.249,374.072,106.624,370.854,106.624z"/>
			<path fill="#1C63B7" d="M370.854,81.646H107.066l-39.9-51.863L67.144,29.8c-1.07-1.396-2.748-2.303-4.636-2.303
				c-3.176,0-5.799,2.624-5.799,5.843c0,1.335,0.457,2.558,1.213,3.535l-0.029,0.021l41.661,54.149l0.022-0.018
				c1.069,1.396,2.747,2.304,4.635,2.304h266.643c3.22,0,5.844-2.624,5.844-5.844C376.695,84.271,374.072,81.646,370.854,81.646z"/>
			<path fill="#1C63B7" d="M81.181,103.673c0.844-1.007,1.354-2.298,1.354-3.695s-0.51-2.688-1.354-3.695L31.347,29.824
				l-0.001,0.001c-1.068-1.411-2.756-2.329-4.656-2.329c-3.217,0-5.842,2.624-5.842,5.843c0,1.455,0.541,2.776,1.427,3.792
				L69.43,99.978l-47.157,62.851c-0.886,1.016-1.425,2.336-1.425,3.791c0,3.215,2.625,5.842,5.842,5.842
				c1.899,0,3.588-0.92,4.656-2.33l0.001,0.002L81.181,103.673z"/>
			<path d="M141.681,142.188c0,1.102-0.382,1.949-1.144,2.584c-0.763,0.635-1.778,0.975-3.049,0.975
				c-1.608,0-3.217-0.848-4.742-2.584c-0.423-0.424-0.719-0.719-0.931-0.975c-0.805-0.805-1.821-1.396-3.049-1.818
				c-1.228-0.382-2.71-0.594-4.402-0.594c-2.456,0-4.36,0.424-5.716,1.227c-1.355,0.849-2.032,1.992-2.032,3.474
				c0,2.073,2.625,3.599,7.875,4.657c1.27,0.254,2.243,0.467,2.921,0.594c3.26,0.676,5.672,1.271,7.197,1.691
				c1.524,0.424,2.837,0.89,3.938,1.397c1.904,0.933,3.303,2.117,4.233,3.558c0.89,1.481,1.354,3.26,1.354,5.377
				c0,3.852-1.608,6.899-4.827,9.145c-3.174,2.286-7.577,3.389-13.124,3.389c-3.005,0-5.545-0.255-7.705-0.807
				c-2.158-0.549-4.275-1.438-6.309-2.667c-1.354-0.806-2.455-1.819-3.303-3.005c-0.804-1.186-1.184-2.287-1.184-3.43
				c0-1.145,0.38-2.076,1.143-2.838c0.804-0.72,1.82-1.101,3.09-1.101c1.651,0,3.219,0.933,4.615,2.752
				c0.55,0.72,0.975,1.228,1.313,1.608c0.931,0.932,2.032,1.652,3.387,2.117c1.313,0.467,2.922,0.678,4.784,0.678
				c2.921,0,5.123-0.424,6.648-1.271c1.481-0.846,2.242-2.117,2.242-3.768c0-2.329-3.853-4.234-11.558-5.717
				c-0.296-0.043-0.508-0.084-0.677-0.127c-5.928-1.144-9.951-2.582-12.024-4.275c-2.117-1.736-3.134-4.191-3.134-7.451
				c0-3.684,1.525-6.563,4.573-8.595c3.049-2.075,7.324-3.091,12.785-3.091c2.541,0,4.784,0.254,6.859,0.72
				c2.074,0.507,3.938,1.228,5.589,2.243c1.312,0.762,2.37,1.736,3.176,2.837C141.299,140.2,141.681,141.215,141.681,142.188z"/>
			<path d="M181.435,166.068c1.693,0,3.006,0.294,3.854,0.888c0.847,0.592,1.27,1.481,1.27,2.668c0,1.186-0.423,2.074-1.313,2.666
				c-0.847,0.594-2.117,0.934-3.811,0.934h-24.217c-2.159,0-3.641-0.424-4.488-1.313c-0.846-0.848-1.228-2.455-1.228-4.785v-26.672
				c0-2.412,0.382-4.021,1.228-4.869c0.848-0.847,2.329-1.271,4.488-1.271h23.032c1.65,0,2.92,0.296,3.81,0.849
				c0.848,0.594,1.271,1.438,1.271,2.582c0,1.101-0.423,1.905-1.271,2.498c-0.89,0.549-2.159,0.848-3.81,0.848h-19.435v8.255h17.445
				c1.692,0,2.963,0.296,3.809,0.847c0.805,0.551,1.229,1.396,1.229,2.541c0,1.059-0.424,1.861-1.271,2.455
				c-0.889,0.551-2.116,0.846-3.767,0.846h-17.445v10.036h20.62V166.068z"/>
			<path d="M225.002,158.829h-7.029c-1.186,0-2.158-0.341-2.878-0.975c-0.764-0.637-1.146-1.439-1.146-2.499
				c0-0.976,0.382-1.776,1.102-2.329c0.721-0.592,1.694-0.889,2.922-0.889h10.119c2.031,0,3.473,0.297,4.275,0.848
				c0.805,0.551,1.228,1.48,1.228,2.836v14.861c0,1.186-0.253,2.074-0.803,2.667c-0.552,0.551-1.356,0.847-2.498,0.847
				c-0.933,0-1.651-0.254-2.245-0.678c-0.593-0.467-1.016-1.1-1.227-1.991l-0.721-2.919c-1.735,1.946-3.685,3.387-5.845,4.318
				c-2.114,0.889-4.655,1.354-7.575,1.354c-6.437,0-11.646-1.861-15.583-5.632c-3.979-3.769-5.969-8.763-5.969-14.901
				c0-6.225,1.989-11.221,5.927-14.904c3.979-3.682,9.272-5.545,15.876-5.545c2.16,0,4.149,0.17,6.012,0.551
				c1.906,0.338,3.641,0.847,5.25,1.523c2.287,1.017,4.021,2.16,5.293,3.43c1.228,1.27,1.861,2.582,1.861,3.896
				c0,1.1-0.423,2.031-1.228,2.793c-0.761,0.721-1.735,1.1-2.92,1.1c-1.019,0-1.863-0.168-2.626-0.549
				c-0.721-0.338-1.61-1.059-2.667-2.16c-1.271-1.354-2.54-2.327-3.812-2.879c-1.354-0.551-2.92-0.846-4.742-0.846
				c-3.852,0-6.857,1.227-9.103,3.6c-2.201,2.412-3.303,5.715-3.303,9.949c0,4.19,1.144,7.494,3.43,9.906
				c2.287,2.412,5.462,3.598,9.397,3.598c3.008,0,5.464-0.76,7.496-2.242C223.266,163.484,224.493,161.411,225.002,158.829z"/>
			<path d="M274.537,158.829h-7.029c-1.186,0-2.158-0.341-2.92-0.975c-0.721-0.637-1.102-1.439-1.102-2.499
				c0-0.976,0.381-1.776,1.059-2.329c0.719-0.592,1.734-0.889,2.963-0.889h10.161c2.031,0,3.431,0.297,4.276,0.848
				c0.804,0.551,1.185,1.48,1.185,2.836v14.861c0,1.186-0.253,2.074-0.763,2.667c-0.551,0.551-1.396,0.847-2.538,0.847
				c-0.892,0-1.652-0.254-2.244-0.678c-0.55-0.467-0.976-1.1-1.187-1.991l-0.721-2.919c-1.734,1.946-3.682,3.387-5.842,4.318
				c-2.159,0.889-4.743,1.354-7.621,1.354c-6.436,0-11.645-1.861-15.624-5.632c-3.937-3.769-5.926-8.763-5.926-14.901
				c0-6.225,1.989-11.221,5.926-14.904c3.938-3.682,9.231-5.545,15.878-5.545c2.118,0,4.148,0.17,6.053,0.551
				c1.865,0.338,3.643,0.847,5.252,1.523c2.244,1.017,4.021,2.16,5.25,3.43c1.271,1.27,1.861,2.582,1.861,3.896
				c0,1.1-0.381,2.031-1.186,2.793c-0.803,0.721-1.777,1.1-2.963,1.1c-0.975,0-1.82-0.168-2.582-0.549
				c-0.721-0.338-1.609-1.059-2.709-2.16c-1.229-1.354-2.498-2.327-3.854-2.879c-1.312-0.551-2.92-0.846-4.741-0.846
				c-3.811,0-6.857,1.227-9.061,3.6c-2.201,2.412-3.301,5.715-3.301,9.949c0,4.19,1.142,7.494,3.429,9.906
				c2.285,2.412,5.418,3.598,9.399,3.598c2.963,0,5.461-0.76,7.492-2.242C272.842,163.484,274.068,161.411,274.537,158.829z"/>
			<path d="M322.166,166.068c1.693,0,3.005,0.294,3.854,0.888c0.847,0.592,1.271,1.481,1.271,2.668c0,1.186-0.424,2.074-1.313,2.666
				c-0.848,0.594-2.117,0.934-3.811,0.934h-24.218c-2.16,0-3.685-0.424-4.488-1.313c-0.845-0.848-1.271-2.455-1.271-4.785v-26.672
				c0-2.412,0.426-4.021,1.271-4.869c0.806-0.847,2.328-1.271,4.488-1.271h22.989c1.692,0,2.963,0.296,3.853,0.849
				c0.849,0.594,1.271,1.438,1.271,2.582c0,1.101-0.422,1.905-1.271,2.498c-0.89,0.549-2.159,0.848-3.853,0.848h-19.434v8.255
				h17.486c1.691,0,2.963,0.296,3.769,0.847c0.845,0.551,1.271,1.396,1.271,2.541c0,1.059-0.426,1.861-1.271,2.455
				c-0.89,0.551-2.116,0.846-3.769,0.846h-17.486v10.036h20.662V166.068z"/>
			<path d="M343.293,141.002v10.33h11.093c2.412,0,4.191-0.422,5.29-1.27c1.143-0.807,1.738-2.115,1.738-3.895
				c0-1.694-0.55-2.965-1.693-3.854c-1.102-0.891-2.754-1.314-4.912-1.314h-11.516V141.002z M343.293,169.413
				c0,1.438-0.381,2.496-1.186,3.217c-0.764,0.721-1.948,1.061-3.558,1.061c-1.567,0-2.752-0.382-3.515-1.061
				c-0.805-0.721-1.186-1.777-1.186-3.217v-28.961c0-2.41,0.422-4.021,1.228-4.867c0.849-0.848,2.329-1.271,4.489-1.271h16.512
				c5.037,0,8.721,0.891,11.135,2.709c2.413,1.82,3.641,4.615,3.641,8.341c0,2.371-0.593,4.362-1.777,5.929
				c-1.184,1.608-2.879,2.666-5.081,3.26c1.737,0.467,3.048,1.271,3.938,2.328c0.889,1.06,1.438,2.455,1.606,4.236
				c0.086,0.717,0.171,1.648,0.213,2.793c0.043,1.187,0.083,1.946,0.211,2.37c0.085,0.466,0.254,1.144,0.468,1.989
				c0.211,0.891,0.338,1.525,0.338,1.863c0,1.102-0.424,1.988-1.271,2.625c-0.846,0.677-1.989,0.973-3.43,0.973
				c-1.989,0-3.387-0.465-4.233-1.439c-0.803-0.932-1.397-3.388-1.735-7.322c-0.211-3.135-0.848-5.038-1.778-5.801
				c-0.931-0.719-2.623-1.102-5.036-1.102h-9.992V169.413L343.293,169.413z"/>
		</g>
		<g>
			<path d="M12.813,239.445v-20.878H5.271v-4.539h20.257v4.539h-7.489v20.878H12.813z"/>
			<path d="M28.22,239.445v-25.417h4.987v8.729c0.678-0.85,1.487-1.489,2.423-1.92c0.937-0.435,1.987-0.647,3.149-0.647
				c1.104,0,2.103,0.188,2.995,0.567c0.891,0.382,1.614,0.92,2.166,1.623c0.378,0.474,0.647,1.013,0.803,1.621
				c0.153,0.611,0.232,1.588,0.232,2.935v0.347v12.163h-4.986v-9.819c0-2.321-0.213-3.779-0.64-4.371
				c-0.425-0.594-1.189-0.891-2.294-0.891c-1.184,0-2.122,0.354-2.813,1.061c-0.689,0.709-1.035,1.673-1.035,2.893v11.129
				L28.22,239.445L28.22,239.445z"/>
			<path d="M60.951,233.752h5.004c-0.505,1.979-1.525,3.527-3.063,4.647c-1.535,1.121-3.405,1.683-5.615,1.683
				c-2.716,0-4.865-0.91-6.455-2.732c-1.587-1.825-2.38-4.295-2.38-7.413c0-3.069,0.782-5.491,2.346-7.265
				c1.564-1.771,3.704-2.656,6.419-2.656c2.876,0,5.097,0.872,6.661,2.613c1.563,1.744,2.346,4.226,2.346,7.445
				c0,0.356-0.003,0.625-0.01,0.805c-0.005,0.177-0.02,0.347-0.041,0.506H53.637c0.068,1.475,0.429,2.582,1.078,3.332
				c0.649,0.746,1.584,1.121,2.803,1.121c0.862,0,1.571-0.17,2.123-0.51C60.193,234.991,60.629,234.463,60.951,233.752z
				 M53.637,228.09h7.384c-0.046-1.266-0.382-2.229-1.009-2.889c-0.627-0.66-1.527-0.994-2.699-0.994
				c-1.094,0-1.954,0.334-2.582,1.002C54.104,225.877,53.74,226.836,53.637,228.09z"/>
			<path d="M80.002,239.445v-25.417h18.461v4.418H85.16v5.417h12.163v4.351H85.16v6.539h13.925v4.692H80.002z"/>
			<path d="M102.639,239.445v-18.754h4.763v2.065c0.702-0.859,1.484-1.512,2.347-1.946c0.863-0.438,1.818-0.655,2.863-0.655
				c1.186,0,2.198,0.223,3.038,0.663c0.84,0.442,1.57,1.142,2.191,2.097c0.656-0.918,1.432-1.607,2.329-2.067
				c0.897-0.462,1.898-0.69,3.002-0.69c1.888,0,3.383,0.549,4.486,1.655c1.104,1.104,1.656,2.608,1.656,4.519v13.115h-4.951v-12.078
				c0-0.91-0.245-1.613-0.734-2.113c-0.488-0.502-1.169-0.752-2.044-0.752c-0.978,0-1.755,0.32-2.329,0.959
				c-0.575,0.639-0.862,1.51-0.862,2.615v11.369h-4.9V227.4c0-0.919-0.24-1.633-0.717-2.14c-0.478-0.506-1.147-0.76-2.011-0.76
				c-0.978,0-1.751,0.322-2.319,0.967c-0.569,0.646-0.854,1.523-0.854,2.641v11.337H102.639z"/>
			<path d="M133.732,214.028h4.883v8.989c0.622-0.976,1.4-1.718,2.338-2.218c0.938-0.498,2.004-0.748,3.2-0.748
				c2.267,0,4.12,0.935,5.557,2.802c1.438,1.869,2.156,4.301,2.156,7.293c0,2.966-0.718,5.365-2.156,7.194
				c-1.437,1.828-3.313,2.742-5.625,2.742c-1.207,0-2.258-0.254-3.148-0.762c-0.893-0.504-1.699-1.31-2.425-2.414v2.537h-4.779
				L133.732,214.028L133.732,214.028z M146.881,229.937c0-1.724-0.363-3.079-1.088-4.063c-0.724-0.982-1.72-1.475-2.984-1.475
				c-1.335,0-2.366,0.479-3.099,1.441c-0.73,0.961-1.095,2.326-1.095,4.097c0,1.909,0.349,3.36,1.044,4.349
				c0.695,0.989,1.712,1.484,3.046,1.484c1.356,0,2.392-0.499,3.105-1.492C146.523,233.282,146.881,231.834,146.881,229.937z"/>
			<path d="M166.844,233.752h5.004c-0.507,1.979-1.525,3.527-3.063,4.647c-1.535,1.121-3.407,1.683-5.616,1.683
				c-2.715,0-4.865-0.91-6.453-2.732c-1.588-1.825-2.38-4.295-2.38-7.413c0-3.069,0.78-5.491,2.346-7.265
				c1.564-1.771,3.704-2.656,6.419-2.656c2.875,0,5.096,0.872,6.659,2.613c1.565,1.744,2.348,4.226,2.348,7.445
				c0,0.356-0.003,0.625-0.009,0.805c-0.006,0.177-0.02,0.347-0.042,0.506H159.53c0.068,1.475,0.429,2.582,1.077,3.332
				c0.649,0.746,1.585,1.121,2.805,1.121c0.861,0,1.57-0.17,2.122-0.51C166.086,234.991,166.521,234.463,166.844,233.752z
				 M159.529,228.09h7.385c-0.048-1.266-0.383-2.229-1.011-2.889c-0.626-0.66-1.525-0.994-2.699-0.994
				c-1.093,0-1.953,0.334-2.579,1.002C159.997,225.877,159.633,226.836,159.529,228.09z"/>
			<path d="M192.658,214.028v25.417h-4.764v-2.538c-0.724,1.094-1.537,1.896-2.44,2.408c-0.903,0.51-1.966,0.768-3.185,0.768
				c-2.312,0-4.184-0.914-5.616-2.742c-1.432-1.828-2.147-4.229-2.147-7.193c0-2.992,0.716-5.424,2.147-7.293
				c1.433-1.867,3.281-2.803,5.547-2.803c1.208,0,2.287,0.254,3.236,0.76c0.948,0.507,1.734,1.24,2.354,2.207v-8.989
				L192.658,214.028L192.658,214.028z M179.525,229.937c0,1.897,0.357,3.347,1.07,4.341c0.713,0.993,1.742,1.492,3.089,1.492
				c1.335,0,2.353-0.495,3.055-1.484c0.701-0.988,1.052-2.438,1.052-4.349c0-1.771-0.368-3.136-1.104-4.097
				c-0.736-0.963-1.772-1.441-3.106-1.441c-1.253,0-2.242,0.491-2.968,1.475C179.889,226.857,179.525,228.213,179.525,229.937z"/>
			<path d="M214.398,214.028v25.417h-4.763v-2.538c-0.726,1.094-1.54,1.896-2.442,2.408c-0.903,0.51-1.965,0.768-3.184,0.768
				c-2.313,0-4.184-0.914-5.617-2.742c-1.432-1.828-2.147-4.229-2.147-7.193c0-2.992,0.716-5.424,2.147-7.293
				c1.434-1.867,3.283-2.803,5.548-2.803c1.209,0,2.287,0.254,3.234,0.76c0.95,0.507,1.734,1.24,2.355,2.207v-8.989L214.398,214.028
				L214.398,214.028z M201.268,229.937c0,1.897,0.356,3.347,1.07,4.341c0.712,0.993,1.742,1.492,3.088,1.492
				c1.335,0,2.354-0.495,3.055-1.484c0.701-0.988,1.053-2.438,1.053-4.349c0-1.771-0.368-3.136-1.104-4.097
				c-0.738-0.963-1.771-1.441-3.104-1.441c-1.253,0-2.243,0.491-2.97,1.475C201.631,226.857,201.268,228.213,201.268,229.937z"/>
			<path d="M230.463,233.752h5.004c-0.507,1.979-1.527,3.527-3.064,4.647c-1.534,1.121-3.404,1.683-5.614,1.683
				c-2.716,0-4.865-0.91-6.454-2.732c-1.588-1.825-2.379-4.295-2.379-7.413c0-3.069,0.779-5.491,2.346-7.265
				c1.563-1.771,3.703-2.656,6.418-2.656c2.877,0,5.098,0.872,6.659,2.613c1.565,1.744,2.349,4.226,2.349,7.445
				c0,0.356-0.004,0.625-0.009,0.805c-0.005,0.177-0.021,0.347-0.043,0.506h-12.526c0.068,1.475,0.429,2.582,1.078,3.332
				c0.648,0.746,1.584,1.121,2.805,1.121c0.861,0,1.57-0.17,2.121-0.51C229.703,234.991,230.139,234.463,230.463,233.752z
				 M223.146,228.09h7.386c-0.048-1.266-0.384-2.229-1.011-2.889s-1.526-0.994-2.699-0.994c-1.094,0-1.953,0.334-2.58,1.002
				C223.614,225.877,223.25,226.836,223.146,228.09z"/>
			<path d="M256.275,214.028v25.417h-4.762v-2.538c-0.728,1.094-1.539,1.896-2.443,2.408c-0.902,0.51-1.965,0.768-3.185,0.768
				c-2.311,0-4.183-0.914-5.614-2.742c-1.433-1.828-2.148-4.229-2.148-7.193c0-2.992,0.717-5.424,2.148-7.293
				c1.433-1.867,3.28-2.803,5.547-2.803c1.207,0,2.285,0.254,3.236,0.76c0.947,0.507,1.731,1.24,2.354,2.207v-8.989L256.275,214.028
				L256.275,214.028z M243.145,229.937c0,1.897,0.357,3.347,1.069,4.341c0.713,0.993,1.743,1.492,3.088,1.492
				c1.335,0,2.354-0.495,3.056-1.484c0.701-0.988,1.054-2.438,1.054-4.349c0-1.771-0.37-3.136-1.104-4.097
				c-0.736-0.963-1.771-1.441-3.105-1.441c-1.256,0-2.242,0.491-2.969,1.475C243.507,226.857,243.145,228.213,243.145,229.937z"/>
			<path d="M271.253,239.445v-25.417h18.46v4.418H276.41v5.417h12.16v4.351h-12.16v6.539h13.925v4.692H271.253z"/>
			<path d="M291.561,239.445l6.315-9.577l-6.04-9.177h5.729l3.315,5.64l3.293-5.64h5.54l-5.9,9.106l6.263,9.646h-5.866l-3.468-5.938
				l-3.415,5.938L291.561,239.445L291.561,239.445z"/>
			<path d="M312.23,246.967v-26.275h4.781v2.534c0.727-1.103,1.533-1.908,2.422-2.415c0.896-0.506,1.945-0.76,3.149-0.76
				c2.313,0,4.19,0.912,5.625,2.734c1.438,1.823,2.161,4.219,2.161,7.187c0,3.003-0.723,5.437-2.161,7.31
				c-1.435,1.868-3.288,2.803-5.554,2.803c-1.195,0-2.264-0.254-3.202-0.762c-0.938-0.504-1.716-1.238-2.336-2.207v9.852H312.23
				L312.23,246.967z M325.381,230.179c0-1.886-0.355-3.327-1.068-4.321s-1.75-1.492-3.108-1.492c-1.329,0-2.347,0.494-3.045,1.483
				c-0.694,0.987-1.041,2.433-1.041,4.33c0,1.771,0.364,3.141,1.096,4.106c0.729,0.967,1.763,1.448,3.097,1.448
				c1.267,0,2.263-0.493,2.985-1.483C325.02,233.263,325.381,231.905,325.381,230.179z"/>
			<path d="M345.346,233.752h5.004c-0.506,1.979-1.524,3.527-3.063,4.647c-1.532,1.121-3.404,1.683-5.615,1.683
				c-2.716,0-4.868-0.91-6.455-2.732c-1.584-1.825-2.378-4.295-2.378-7.413c0-3.069,0.78-5.491,2.346-7.265
				c1.565-1.771,3.705-2.656,6.42-2.656c2.873,0,5.093,0.872,6.658,2.613c1.564,1.744,2.346,4.226,2.346,7.445
				c0,0.356,0,0.625-0.01,0.805c-0.005,0.177-0.017,0.347-0.039,0.506h-12.527c0.068,1.475,0.429,2.582,1.078,3.332
				c0.648,0.746,1.584,1.121,2.806,1.121c0.86,0,1.571-0.17,2.121-0.51C344.584,234.991,345.021,234.463,345.346,233.752z
				 M338.029,228.09h7.385c-0.045-1.266-0.385-2.229-1.012-2.889s-1.523-0.994-2.696-0.994c-1.099,0-1.953,0.334-2.58,1.002
				C338.498,225.877,338.133,226.836,338.029,228.09z"/>
			<path d="M353.923,239.445v-18.754h4.658v3.205c0.655-1.286,1.421-2.233,2.292-2.836c0.875-0.604,1.918-0.905,3.127-0.905
				c0.193,0,0.348,0.004,0.455,0.008c0.107,0.008,0.197,0.016,0.266,0.026l0.02,5.089h-1.674c-1.366,0-2.396,0.355-3.086,1.07
				c-0.689,0.713-1.037,1.771-1.037,3.174v9.923H353.923z"/>
			<path d="M375.818,239.583c-0.461,0.012-1.012,0.031-1.646,0.062c-0.641,0.03-1.047,0.042-1.218,0.042
				c-1.922,0-3.233-0.359-3.942-1.077c-0.707-0.721-1.061-2.137-1.061-4.255v-10.146h-2.486v-3.517h2.486v-5.127h4.966v5.127h2.901
				v3.517h-2.901v10.389c0,0.496,0.114,0.82,0.329,0.977c0.217,0.153,0.669,0.231,1.345,0.231h1.228V239.583L375.818,239.583z"/>
			<path d="M377.663,233.336h5.004c0.049,0.955,0.392,1.666,1.036,2.133c0.646,0.464,1.611,0.695,2.9,0.695
				c0.975,0,1.73-0.162,2.27-0.492c0.531-0.325,0.798-0.789,0.798-1.387c0-0.852-0.997-1.49-2.999-1.916
				c-0.816-0.17-1.467-0.322-1.947-0.445c-2.44-0.625-4.133-1.358-5.084-2.211c-0.949-0.853-1.422-2.002-1.422-3.452
				c0-1.919,0.689-3.441,2.08-4.563c1.385-1.121,3.26-1.683,5.629-1.683c2.508,0,4.479,0.562,5.909,1.675
				c1.435,1.116,2.196,2.686,2.287,4.711h-4.881c-0.036-0.795-0.341-1.41-0.908-1.848c-0.565-0.438-1.36-0.657-2.372-0.657
				c-0.956,0-1.664,0.146-2.129,0.435c-0.469,0.287-0.699,0.717-0.699,1.293c0,0.748,1.245,1.408,3.745,1.983
				c0.572,0.127,1.028,0.229,1.36,0.312c2.496,0.588,4.201,1.295,5.117,2.123s1.371,1.996,1.371,3.502
				c0,2.129-0.75,3.75-2.252,4.865c-1.502,1.116-3.687,1.674-6.55,1.674c-2.586,0-4.61-0.582-6.073-1.742
				c-1.461-1.162-2.19-2.762-2.19-4.797V233.336L377.663,233.336z"/>
		</g>
	</g>
</g>
</svg>
