<svg xmlns="http://www.w3.org/2000/svg" role="img" viewBox="15.20 22.70 249.34 129.34"><g transform="translate(0 -87)"><path fill="none" stroke="#000" stroke-dasharray="none" stroke-linecap="butt" stroke-linejoin="miter" stroke-miterlimit="4" stroke-opacity="1" stroke-width="5" d="M30 117h219.99999m7.50001 7.5a7.5 7.5 0 0 0-7.5-7.5m7.5 107.5a7.5 7.5 0 0 1-7.5 7.5m7.49999-107.5v99.99999M22.5 124.5A7.5 7.5 0 0 1 30 117m-7.5 107.5A7.5 7.5 0 0 0 30 232m0-.00001h219.99999m-227.5-107.5v100"/><a fill="#2020a0" fill-opacity="1" stroke="none" stroke-width="1.017" transform="matrix(.96774 0 0 1 13.145 -82.5)"><path fill="#2020a0" fill-opacity="1" stroke="none" stroke-linecap="butt" stroke-linejoin="miter" stroke-opacity="1" stroke-width=".269" d="M20 277v-40l15.5 20z"/></a><g fill="none" stroke="#2020a0" stroke-dasharray="none" stroke-linecap="round" stroke-miterlimit="4" stroke-opacity="1" stroke-width="7" transform="translate(2.5)"><path stroke-linejoin="miter" d="M80 167h160.00001"/><path stroke-linejoin="miter" d="M80 182h160.00001"/><path stroke-linejoin="round" d="M33.5 214.5l30-40-30-40"/><path stroke-linejoin="miter" d="M55 214.5L80 182"/><path stroke-linejoin="miter" d="M80 167l-25-32.5"/></g><g stroke-width=".265" transform="scale(1.08578 .921)"><path d="M94.85913 212.2332v3.38974q-1.97878-.94637-3.73387-1.41096-1.7551-.46458-3.38974-.46458-2.83912 0-4.38773 1.10124-1.5314 1.10123-1.5314 3.13163 0 1.70347 1.0152 2.58102 1.0324.86034 3.88873 1.39375l2.09923.43017q3.88873.73989 5.72986 2.61543 1.85833 1.85833 1.85833 4.98997 0 3.73387-2.51219 5.66103-2.49498 1.92716-7.33009 1.92716-1.82392 0-3.88873-.41296-2.0476-.41297-4.25008-1.22168v-3.57902q2.11644 1.18727 4.14684 1.78951 2.0304.60224 3.99197.60224 2.97678 0 4.59422-1.17006 1.61743-1.17007 1.61743-3.33812 0-1.89275-1.17006-2.95957-1.15285-1.06682-3.8027-1.60023l-2.11643-.41296q-3.88874-.77431-5.62662-2.42616-1.73789-1.65185-1.73789-4.59421 0-3.40694 2.39174-5.36852 2.40896-1.96157 6.62462-1.96157 1.80671 0 3.68225.32693 1.87554.32693 3.83711.98078z"/><path d="M101.82788 211.39007h16.24321v2.92516h-12.76744v7.60539h12.23403v2.92516h-12.23403v9.30887h13.07716v2.92515h-16.55293z"/><path d="M141.60997 233.41476v-6.89992h-5.67824v-2.85633h9.1196v11.02955q-2.0132 1.42816-4.43935 2.16806-2.42616.72268-5.17924.72268-6.02238 0-9.42932-3.51018-3.38974-3.5274-3.38974-9.80787 0-6.29769 3.38974-9.80787 3.40694-3.52739 9.42932-3.52739 2.51219 0 4.76628.61944 2.27129.61945 4.18124 1.82392v3.69946q-1.92716-1.63464-4.09521-2.46057-2.16806-.82593-4.5598-.82593-4.71466 0-7.0892 2.63264-2.35732 2.63264-2.35732 7.8463 0 5.19645 2.35732 7.82909 2.37454 2.63263 7.0892 2.63263 1.84113 0 3.2865-.30972 1.44537-.32693 2.59822-.99799z"/><path d="M168.91714 233.41476v-6.89992h-5.67824v-2.85633h9.1196v11.02955q-2.01319 1.42816-4.43935 2.16806-2.42616.72268-5.17924.72268-6.02238 0-9.42932-3.51018-3.38974-3.5274-3.38974-9.80787 0-6.29769 3.38974-9.80787 3.40694-3.52739 9.42932-3.52739 2.51219 0 4.76628.61944 2.27129.61945 4.18124 1.82392v3.69946q-1.92716-1.63464-4.09521-2.46057-2.16806-.82593-4.5598-.82593-4.71466 0-7.08919 2.63264-2.35733 2.63264-2.35733 7.8463 0 5.19645 2.35733 7.82909 2.37453 2.63263 7.08919 2.63263 1.84113 0 3.2865-.30972 1.44537-.32693 2.59822-.99799z"/><path d="M178.7078 211.39007h16.24321v2.92516h-12.76744v7.60539h12.23403v2.92516h-12.23403v9.30887h13.07716v2.92515H178.7078z"/><path d="M213.15578 225.03505q1.11845.37855 2.16806 1.61744 1.06682 1.23889 2.13364 3.40694l3.52739 7.02037H217.251l-3.2865-6.5902q-1.2733-2.58101-2.47777-3.42415-1.18727-.84313-3.25209-.84313h-3.78549v10.85748h-3.47577v-25.68973h7.84629q4.40494 0 6.573 1.84113 2.16805 1.84112 2.16805 5.55779 0 2.42616-1.13565 4.02639-1.11844 1.60023-3.26929 2.21967zm-8.70663-10.78865v9.11959h4.37052q2.5122 0 3.7855-1.15285 1.29051-1.17006 1.29051-3.42415 0-2.25409-1.29051-3.38974-1.2733-1.15285-3.7855-1.15285z"/></g></g></svg>