<svg xmlns="http://www.w3.org/2000/svg" role="img" viewBox="-0.94 -3.44 334.62 80.62"><defs><style>.cls-1{fill:#fff}</style></defs><g id="g2092"><g id="layer1"><path id="rect1905" d="M0 0h333v74H0z" class="cls-1"/></g><path id="path27" d="M65.43 37.99H48.67c.06 2.64.77 4.69 2.13 6.14 1.36 1.44 3.23 2.15 5.61 2.15 2.67 0 5.13-.89 7.37-2.66v3.57c-2.09 1.5-4.84 2.25-8.27 2.25s-5.99-1.07-7.9-3.22c-1.92-2.16-2.87-5.2-2.87-9.11 0-3.69 1.04-6.7 3.13-9.01 2.1-2.32 4.7-3.48 7.81-3.48s5.51 1 7.21 3.01c1.7 2.01 2.55 4.8 2.55 8.37v1.99zm-3.89-3.22c-.01-2.19-.55-3.9-1.6-5.12-1.04-1.22-2.48-1.83-4.33-1.83-1.79 0-3.31.64-4.56 1.92-1.25 1.28-2.02 2.96-2.32 5.03h12.81zm43.38 14.14h-3.8V35.28c0-2.63-.41-4.53-1.23-5.7-.82-1.17-2.18-1.76-4.08-1.76-1.64 0-3.02.74-4.15 2.22-1.13 1.48-1.69 3.26-1.69 5.33V48.9h-3.8V34.81c0-4.67-1.8-7-5.4-7-1.67 0-3.04.7-4.13 2.11-1.08 1.39-1.62 3.21-1.62 5.44v13.53h-3.8V25.16h3.8v3.75h.09c1.68-2.87 4.14-4.31 7.37-4.31 1.64 0 3.05.46 4.24 1.37 1.2.9 2.03 2.08 2.48 3.55 1.77-3.27 4.4-4.91 7.88-4.91 5.22 0 7.83 3.22 7.83 9.66v14.62zm8.88-29.75c-.68 0-1.26-.23-1.74-.7-.48-.46-.72-1.05-.72-1.76s.24-1.3.72-1.76c.48-.48 1.06-.72 1.74-.72s1.27.24 1.76.72c.49.46.74 1.05.74 1.76 0 .68-.25 1.26-.74 1.74-.48.48-1.06.72-1.76.72zm1.85 23.13c0 2.18.84 3.27 2.53 3.27.68 0 1.29-.09 1.83-.26v3.43c-.29.08-.69.15-1.18.21-.48.08-.99.12-1.53.12-.76 0-1.47-.12-2.13-.37-.66-.25-1.24-.62-1.74-1.14-.48-.51-.86-1.14-1.16-1.9-.28-.77-.42-1.67-.42-2.69V25.19h3.8v17.1zm30.96 6.63h-7.33v-3.27h-.09c-1.67 2.56-4.12 3.85-7.37 3.85-2.97 0-5.35-1.04-7.16-3.13-1.81-2.1-2.71-5.03-2.71-8.78s1-7.06 2.99-9.41c1.99-2.36 4.6-3.55 7.83-3.55 3.06 0 5.19 1.1 6.4 3.29h.09V13.81h7.33l.02 35.12zm-7.16-11.54V35.6c0-1.55-.45-2.83-1.34-3.85-.9-1.02-2.06-1.53-3.48-1.53-1.64 0-2.9.64-3.8 1.92-.91 1.27-1.37 3.01-1.37 5.24 0 2.09.44 3.69 1.32 4.82.88 1.13 2.11 1.69 3.68 1.69 1.48 0 2.69-.59 3.62-1.78.95-1.19 1.43-2.76 1.43-4.71l-.06-.02zm35.95-12.19l-9.62 25.63c-2.32 6.17-5.81 9.25-10.48 9.25-1.78 0-3.24-.2-4.38-.6v-5.84c.97.57 2.03.86 3.18.86 1.89 0 3.2-.89 3.94-2.66l1.25-2.94-9.62-23.68h8.11l4.43 14.44c.28.9.49 1.95.65 3.18h.09c.14-.9.39-1.94.77-3.13l4.47-14.48h7.21zm25.91 23.72h-7.3V35.74c0-3.68-1.31-5.51-3.94-5.51-1.27 0-2.31.49-3.13 1.46-.82.97-1.23 2.21-1.23 3.71v13.53h-7.33V25.18h7.33v3.75h.09c1.75-2.89 4.29-4.33 7.62-4.33 5.25 0 7.88 3.26 7.88 9.78v14.53zm25.56 0h-6.93V45.5h-.09c-1.59 2.66-3.95 3.99-7.07 3.99-2.3 0-4.12-.65-5.44-1.94-1.31-1.31-1.97-3.06-1.97-5.24 0-4.6 2.73-7.26 8.18-7.97l6.44-.86c0-2.6-1.41-3.89-4.22-3.89s-5.51.84-8.06 2.53v-5.51c1.02-.53 2.41-.99 4.17-1.39 1.78-.4 3.39-.6 4.84-.6 6.77 0 10.15 3.38 10.15 10.13v14.18zm-6.89-9.62v-1.6l-4.31.56c-2.38.31-3.57 1.38-3.57 3.22 0 .83.29 1.52.86 2.06.59.53 1.37.79 2.36.79 1.38 0 2.5-.48 3.36-1.43.86-.96 1.3-2.16 1.3-3.62v.02zm50.4 9.62h-7.3V35.37c0-3.45-1.27-5.17-3.8-5.17-1.2 0-2.19.52-2.94 1.56-.76 1.04-1.14 2.33-1.14 3.89v13.3h-7.33V35.28c0-3.35-1.24-5.03-3.73-5.03-1.25 0-2.26.49-3.01 1.48-.74.99-1.11 2.33-1.11 4.03v13.19h-7.33V25.18h7.33v3.71h.09c.76-1.27 1.82-2.3 3.18-3.08 1.38-.82 2.87-1.23 4.5-1.23 3.35 0 5.65 1.48 6.88 4.43 1.81-2.95 4.46-4.43 7.97-4.43 5.16 0 7.74 3.18 7.74 9.55v14.79zm9.34-27.49c-1.24 0-2.25-.36-3.04-1.09-.79-.74-1.18-1.65-1.18-2.71s.39-1.99 1.18-2.69c.79-.68 1.8-1.02 3.04-1.02s2.26.34 3.04 1.02c.79.68 1.18 1.58 1.18 2.69s-.39 2.02-1.18 2.73c-.77.71-1.78 1.06-3.04 1.06zm3.55 19.45c0 1 .24 1.77.72 2.29.48.51 1.12.77 1.92.77.4 0 .81-.04 1.23-.12.4-.08.81-.15 1.23-.23v5.14c-.88.23-1.82.42-2.8.56-.97.15-1.99.23-3.06.23-.97 0-1.86-.16-2.66-.49-.79-.32-1.47-.79-2.04-1.39-.56-.62-.99-1.36-1.3-2.22s-.46-1.84-.46-2.92V25.18h7.28l-.05 15.69zm26.1 7.16c-1.65.96-4.04 1.44-7.16 1.44-3.65 0-6.6-1.1-8.85-3.31s-3.38-5.06-3.38-8.55c0-4.03 1.21-7.21 3.62-9.53 2.43-2.32 5.66-3.48 9.71-3.48 2.8 0 4.82.37 6.07 1.11v6.21c-1.53-1.14-3.24-1.71-5.12-1.71-2.1 0-3.77.62-5.01 1.85-1.22 1.22-1.83 2.91-1.83 5.07s.59 3.75 1.76 4.96c1.17 1.19 2.79 1.78 4.84 1.78 1.82 0 3.61-.57 5.35-1.71v5.87z"/><path id="path101" d="M309.19 31.83V25.9c1.23.73 2.41.96 3.6 1.32 1.1.34 2.25.52 3.41.53 1.3 0 2.32-.18 3.06-.53.76-.36 1.14-.9 1.14-1.62 0-.44-.18-.87-.51-1.16-.39-.34-.84-.62-1.32-.81-.53-.23-1.11-.44-1.74-.63l-1.83-.63c-.94-.36-1.78-.74-2.5-1.14-.71-.42-1.31-.9-1.81-1.44-.49-.55-.86-1.19-1.11-1.88-.25-.71-.37-1.56-.37-2.53 0-1.33.29-2.47.86-3.43.58-.95 1.37-1.75 2.32-2.34 1.02-.64 2.14-1.09 3.31-1.34 1.25-.29 2.55-.44 3.89-.44 1.05 0 2.12.09 3.2.26 1.08.15 2.15.39 3.2.7v5.65c-.93-.54-1.94-.95-2.99-1.21-1.05-.28-2.09-.42-3.11-.42-.46 0-.92.04-1.37.14-.42.08-.79.2-1.11.37-.31.14-.57.35-.77.63-.19.25-.28.55-.28.86 0 .41.14.8.42 1.11.28.31.64.58 1.09.81.48.23.98.43 1.48.6l1.65.53c.9.31 1.79.68 2.64 1.11.74.37 1.42.84 2.02 1.41.57.53 1.01 1.18 1.3 1.9.31.73.46 1.59.46 2.59 0 1.41-.31 2.61-.93 3.62-.61.99-1.44 1.83-2.43 2.43-1.02.62-2.17 1.06-3.48 1.34-1.31.29-2.66.44-4.1.44-2.61 0-4.91 0-7.14-.8l-.14-.09z"/><path id="path103" fill="#bd596e" fill-rule="evenodd" d="M42.1 70.85c-13.04 0-25.09-6.47-31.62-16.97-6.52-10.5-6.52-23.44 0-33.94C17 9.45 29.06 3 42.1 3"/><path id="path105" d="M24.78 48.32v-4.09c2.14 1.53 4.51 2.29 7.08 2.29 3.46 0 5.19-1.11 5.19-3.33 0-.63-.15-1.16-.46-1.6-.27-.45-.67-.84-1.2-1.18-.5-.34-1.09-.64-1.78-.9-.67-.28-1.4-.56-2.19-.86-1.09-.42-2.05-.83-2.88-1.23-.82-.43-1.5-.91-2.05-1.43-.55-.54-.95-1.15-1.23-1.83-.27-.68-.41-1.47-.41-2.38 0-1.11.26-2.09.79-2.94.53-.86 1.23-1.58 2.11-2.15.88-.59 1.88-1.03 3-1.32 1.14-.29 2.3-.44 3.51-.44 2.13 0 4.03.35 5.72 1.06v3.84c-1.81-1.14-3.89-1.71-6.24-1.71-.74 0-1.4.08-1.99.25-.59.15-1.1.38-1.53.67-.42.29-.74.65-.98 1.06-.22.4-.34.85-.34 1.34 0 .62.11 1.13.34 1.55.24.42.58.79 1.03 1.11.45.32.99.62 1.63.88.64.26 1.37.55 2.19.86 1.09.4 2.07.81 2.93 1.23.86.42 1.6.89 2.21 1.43.61.52 1.07 1.13 1.39 1.83.34.68.5 1.5.5 2.46 0 1.17-.27 2.19-.82 3.05-.53.86-1.24 1.58-2.14 2.15-.9.57-1.93.99-3.1 1.27-1.17.28-2.39.42-3.67.42-2.53 0-4.72-.48-6.58-1.43l-.05.06z" class="cls-1"/></g></svg>