<?xml version="1.0" encoding="UTF-8" standalone="no"?>
<!DOCTYPE svg PUBLIC "-//W3C//DTD SVG 1.1//EN" "http://www.w3.org/Graphics/SVG/1.1/DTD/svg11.dtd">
<!-- Generated by Microsoft Visio, SVG Export logo_Web.svg 赛昉源文件交付1 -->
<svg xmlns="http://www.w3.org/2000/svg" xmlns:xlink="http://www.w3.org/1999/xlink" xmlns:ev="http://www.w3.org/2001/xml-events"
		xmlns:v="http://schemas.microsoft.com/visio/2003/SVGExtensions/" width="9.04759in" height="3.54522in"
		viewBox="0 0 651.427 255.256" xml:space="preserve" color-interpolation-filters="sRGB" class="st4">
	<v:documentProperties v:langID="2052" v:viewMarkup="false"/>

	<style type="text/css">
	<![CDATA[
		.st1 {fill:#000000;stroke:none;stroke-linecap:butt;stroke-width:1.69637}
		.st2 {fill:#000000}
		.st3 {stroke:none;stroke-linecap:butt;stroke-width:1.69637}
		.st4 {fill:none;fill-rule:evenodd;font-size:12px;overflow:visible;stroke-linecap:square;stroke-miterlimit:3}
	]]>
	</style>

	<g v:mID="0" v:index="1" v:groupContext="foregroundPage">
		<title>赛昉源文件交付1</title>
		<v:pageProperties v:drawingScale="1" v:pageScale="1" v:drawingUnits="19" v:shadowOffsetX="9" v:shadowOffsetY="-9"/>
		<g id="shape1-1" v:mID="1" v:groupContext="shape" transform="translate(229.351,-31.8933)">
			<title>Sheet.1</title>
			<path d="M86.16 246.84 L48.75 240.06 L48.75 235.43 L38.69 235.43 L38.69 240.06 L1.7 246.84 L1.7 255.17 L43.53 247.52
						 L86.16 255.26 L86.16 246.84 ZM390.91 215.92 L390.91 205.74 L349.83 205.74 L349.83 197.05 L369.55 197.05
						 L369.55 187.37 L349.83 187.37 L349.83 178.66 L369.55 178.66 L369.55 173.15 L379.21 173.15 L379.21 178.66
						 L402.38 178.66 L402.38 187.37 L379.12 187.37 L379.12 197.05 L401.04 197.05 L401.04 220.9 L384.33 231.69
						 L402.29 243.26 L402.29 254.78 L375.39 237.44 L348.49 254.78 L348.49 243.26 L366.47 231.69 L349.83 220.9
						 L349.83 209.4 L375.47 225.93 L390.91 215.92 ZM48.96 172.29 L38.9 172.29 L38.9 175.98 L1.31 175.98 L1.31
						 187.47 L10.94 187.47 L10.94 183.64 L76.49 183.64 L76.49 187.47 L86.55 187.47 L86.55 175.98 L48.96 175.98
						 L48.96 172.29 ZM117.29 175.26 L107.24 175.26 L107.24 253.29 L136.76 253.29 A4.66502 4.66502 -180 0 0 141.43
						 248.62 L141.43 175.26 L117.29 175.26 ZM154.32 187.42 L152.52 227.64 L148.08 254.78 L158.14 254.78 L162.56
						 227.64 L163.6 204.72 L183.95 204.72 L183.95 246.18 L179.09 246.18 L179.09 254.78 L189.35 254.78 A4.66502
						 4.66502 -180 0 0 194.01 250.12 L194.01 196.63 L163.97 196.63 L164.38 187.47 L195.17 187.47 L195.17 179.33
						 L176.63 179.33 L176.63 173.2 L166.62 173.2 L166.62 179.33 L146.26 179.33 L146.26 187.47 L154.32 187.42 ZM131.35
						 207.21 L117.29 207.21 L117.29 183.47 L131.35 183.47 L131.35 207.21 ZM117.29 215.36 L131.35 215.36 L131.35
						 244.74 L117.29 244.74 L117.29 215.36 ZM321.63 254.78 L331.81 254.78 A4.66502 4.66502 -180 0 0 336.49 250.12
						 L336.49 224.08 L344.13 221.13 L344.13 211.44 L336.49 214.59 L336.49 195.24 L344.33 195.24 L344.33 186.57
						 L336.49 186.57 L336.49 173.15 L326.43 173.15 L326.43 186.57 L318.8 186.57 L318.8 195.24 L326.43 195.24 L326.43
						 217.95 L318.8 220.92 L318.8 230.79 L326.43 227.62 L326.43 246.18 L321.56 246.18 L321.63 254.78 ZM223.58
						 254.78 L224.87 209.84 L215.47 209.84 L214.12 254.78 L223.58 254.78 ZM259.21 203.89 L269.84 203.89 L281.46
						 223.55 L270.83 223.55 L259.21 203.89 ZM259.21 179.41 L269.84 179.41 L281.46 199.07 L270.83 199.07 L259.21
						 179.41 ZM246.62 254.8 L256.03 254.8 L255.74 245.15 C267.16 242.99 275.97 241.41 284.48 239.79 L284.48 254.8
						 L294.12 254.8 L294.12 237.83 L299.21 236.78 L299.21 227.54 L294.12 228.59 L294.12 174.58 L284.48 174.58
						 L284.48 230.56 C275.42 232.25 265.38 234.14 255.49 236 L254.83 209.84 L245.41 209.84 L246.62 254.8 ZM255.83
						 194.58 L255.83 203.41 L240.07 203.41 L240.07 254.8 L230.42 254.8 L230.42 203.41 L214.01 203.41 L214.01 194.58
						 L230.42 194.58 L230.42 182.89 L215.41 183.58 L215.41 175.1 L254.83 173.15 L254.83 181.21 L240.12 182.07
						 L240.12 194.56 L255.83 194.58 ZM17.71 241.06 L7.65 241.06 L7.65 230.98 L0 230.98 L11.67 219.94 L0.59 219.94
						 L0.59 212.27 L20.1 212.27 L20.1 208.5 L4.04 208.5 L4.04 201.21 L20.1 201.21 L20.1 197.38 L2.9 197.38 L2.9
						 190.13 L20.19 190.13 L20.19 186.74 L30.25 186.74 L30.25 190.13 L57.59 190.13 L57.59 186.74 L67.65 186.74
						 L67.65 190.13 L84.95 190.13 L84.95 197.38 L67.65 197.38 L67.65 201.21 L83.73 201.21 L83.73 208.5 L67.65
						 208.5 L67.65 212.32 L86.89 212.32 L86.89 219.99 L78.03 219.99 L87.7 229.78 L80.1 229.78 L80.1 241.11 L70.45
						 241.11 L70.45 233.1 L17.79 233.1 L17.71 241.06 ZM18.91 225.03 L70.38 225.03 L65.16 219.94 L24.61 219.94
						 L18.91 225.03 ZM57.51 212.27 L57.51 208.5 L30.25 208.5 L30.25 212.32 L57.51 212.27 ZM57.51 201.23 L57.51
						 197.39 L30.25 197.39 L30.25 201.23 L57.51 201.23 Z" class="st1"/>
		</g>
		<g id="shape2-3" v:mID="2" v:groupContext="shape" transform="translate(336.477,-131.352)">
			<title>Sheet.2</title>
			<path d="M84.02 230.05 L99.19 226.66 L99.19 235.29 L88.33 237.73 A4.73288 4.73288 -180 0 0 89.3 247.1 L103.56 247.1 A1.30621
						 1.30621 -180 0 0 104.87 245.79 L104.87 224.84 A4.73288 4.73288 -180 0 0 100.14 220.11 L79.78 220.11 L79.78
						 212.03 L101.83 212.03 A12.8076 12.8076 0 0 1 114.64 224.84 L114.64 248.23 A6.95512 6.95512 0 0 1 107.69
						 255.19 L87.53 255.19 A12.8076 12.8076 0 0 1 84.02 230.06 L84.02 230.05 ZM201.82 255.19 L192.06 255.19 L192.06
						 212.02 L201.82 212.02 L201.82 255.19 ZM233.57 255.19 L224.35 255.19 L207.38 212.03 L217.56 212.03 L229.09
						 241.26 L240.63 212.03 L250.72 212.03 L233.57 255.19 ZM285.87 237.16 L268.71 240.9 L268.71 232.27 L281.63
						 229.44 A4.73288 4.73288 -180 0 0 280.66 220.07 L267.47 220.07 A4.73288 4.73288 -180 0 0 262.73 224.81 L262.73
						 242.35 A4.73288 4.73288 -180 0 0 267.47 247.08 L291.76 247.08 L291.76 255.15 L265.8 255.15 A12.8076 12.8076
						 0 0 1 253 242.35 L253 224.84 A12.8076 12.8076 0 0 1 265.8 212.03 L282.36 212.03 A12.8076 12.8076 0 0 1 285.87
						 237.16 ZM185.21 222.21 L158.78 222.21 L158.78 205.08 L185.65 205.08 L185.65 197 L153.91 197 A4.7668 4.7668
						 -180 0 0 149.13 201.77 L149.13 255.19 L158.78 255.19 L158.78 230.29 L185.21 230.29 L185.21 222.21 ZM201.82
						 198.14 L192.06 198.14 L192.06 207.3 L201.82 207.3 L201.82 198.14 ZM59.83 242.38 A4.73288 4.73288 -180 0
						 0 64.56 247.11 L70.08 247.11 L70.08 255.19 L62.88 255.19 A12.8076 12.8076 0 0 1 50.08 242.38 L50.08 207.23
						 L59.83 204.09 L59.83 212.02 L72.96 212.02 L72.96 220.09 L59.83 220.09 L59.83 242.38 ZM130.15 224.84 A4.73288
						 4.73288 0 0 1 134.88 220.11 L143.67 220.11 L143.67 212.03 L133.2 212.03 A12.8076 12.8076 -180 0 0 120.39
						 224.84 L120.39 255.19 L130.15 255.19 L130.15 224.84 ZM40.83 196.99 L15.74 196.99 C7.38 196.99 0.47 203.99
						 0 212.95 C0 219.65 3.1 225.26 9.28 227.23 L9.41 227.23 L28.96 232.9 A5.9373 5.9373 0 0 1 33.42 238.78 A8.24437
						 8.24437 0 0 1 25.56 246.89 L1.02 246.89 L1.02 255.26 L27.82 255.26 C36.18 255.26 43.09 248.23 43.55 239.29
						 C43.55 232.51 40.46 226.98 34.28 225.01 L34.15 225.01 L14.54 219.39 A5.9373 5.9373 0 0 1 10.09 213.51 A8.24437
						 8.24437 0 0 1 18 205.48 L40.83 205.48 L40.83 196.99 Z" class="st2"/>
			<path d="M84.02 230.05 L99.19 226.66 L99.19 235.29 L88.33 237.73 A4.73288 4.73288 -180 0 0 89.3 247.1 L103.56 247.1 A1.30621
						 1.30621 -180 0 0 104.87 245.79 L104.87 224.84 A4.73288 4.73288 -180 0 0 100.14 220.11 L79.78 220.11 L79.78
						 212.03 L101.83 212.03 A12.8076 12.8076 0 0 1 114.64 224.84 L114.64 248.23 A6.95512 6.95512 0 0 1 107.69
						 255.19 L87.53 255.19 A12.8076 12.8076 0 0 1 84.02 230.06M201.82 255.19 L192.06 255.19 L192.06 212.02 L201.82
						 212.02 L201.82 255.19M233.57 255.19 L224.35 255.19 L207.38 212.03 L217.56 212.03 L229.09 241.26 L240.63
						 212.03 L250.72 212.03 L233.57 255.19M285.87 237.16 L268.71 240.9 L268.71 232.27 L281.63 229.44 A4.73288
						 4.73288 -180 0 0 280.66 220.07 L267.47 220.07 A4.73288 4.73288 -180 0 0 262.73 224.81 L262.73 242.35 A4.73288
						 4.73288 -180 0 0 267.47 247.08 L291.76 247.08 L291.76 255.15 L265.8 255.15 A12.8076 12.8076 0 0 1 253 242.35
						 L253 224.84 A12.8076 12.8076 0 0 1 265.8 212.03 L282.36 212.03 A12.8076 12.8076 0 0 1 285.87 237.16M185.21
						 222.21 L158.78 222.21 L158.78 205.08 L185.65 205.08 L185.65 197 L153.91 197 A4.7668 4.7668 -180 0 0 149.13
						 201.77 L149.13 255.19 L158.78 255.19 L158.78 230.29 L185.21 230.29 L185.21 222.21M201.82 198.14 L192.06
						 198.14 L192.06 207.3 L201.82 207.3 L201.82 198.14M59.83 242.38 A4.73288 4.73288 -180 0 0 64.56 247.11 L70.08
						 247.11 L70.08 255.19 L62.88 255.19 A12.8076 12.8076 0 0 1 50.08 242.38 L50.08 207.23 L59.83 204.09 L59.83
						 212.02 L72.96 212.02 L72.96 220.09 L59.83 220.09 L59.83 242.38M130.15 224.84 A4.73288 4.73288 0 0 1 134.88
						 220.11 L143.67 220.11 L143.67 212.03 L133.2 212.03 A12.8076 12.8076 -180 0 0 120.39 224.84 L120.39 255.19
						 L130.15 255.19 L130.15 224.84M40.83 196.99 L15.74 196.99 C7.38 196.99 0.47 203.99 0 212.95 C0 219.65 3.1
						 225.26 9.28 227.23 L9.41 227.23 L28.96 232.9 A5.9373 5.9373 0 0 1 33.42 238.78 A8.24437 8.24437 0 0 1 25.56
						 246.89 L1.02 246.89 L1.02 255.26 L27.82 255.26 C36.18 255.26 43.09 248.23 43.55 239.29 C43.55 232.51 40.46
						 226.98 34.28 225.01 L34.15 225.01 L14.54 219.39 A5.9373 5.9373 0 0 1 10.09 213.51 A8.24437 8.24437 0 0 1
						 18 205.48 L40.83 205.48 L40.83 196.99" class="st3"/>
		</g>
		<g id="shape3-6" v:mID="3" v:groupContext="shape" transform="translate(26.889,-19.6964)">
			<title>Sheet.3</title>
			<path d="M142.39 152.07 C131.79 146.23 121.05 140.19 110.65 134.42 C98.61 127.64 71.81 113.51 59.49 106.77 L59.29 106.67
						 C58.61 106.3 59.03 129.61 59.03 129.61 C60.34 130.35 74.08 137.77 75.62 138.63 C82.41 142.43 89.2 146.23
						 95.98 150.03 C107.36 156.41 119.15 162.99 130.79 169.35 C135.73 172.03 138.78 174.9 138.66 180.92 C138.58
						 186.64 135.68 189.4 131.01 191.93 C121.95 196.9 112.77 202.11 103.87 207.03 C90.89 214.31 77.47 221.82 64.16
						 228.96 A15.4709 15.4709 -180 0 0 58.64 233.63 A9.48272 9.48272 -180 0 0 55.45 230.23 C41.24 222.11 28.74
						 215.15 13.74 206.81 L0 199.14 L0 200.28 C0 202.09 0 203.86 0 205.59 C0 207.32 0 208.88 0 210.49 C0 213.78
						 0 216.99 0.14 220.18 A5.30964 5.30964 -180 0 0 2.73 223.7 C18.2 232.42 31.89 240.04 48.14 249.15 L58.51
						 254.93 L59.1 255.26 C59.1 255.26 85.29 241.24 95.42 235.6 C111.25 226.77 127.05 217.97 142.82 209.18 C153.18
						 203.45 158.42 193.92 158.42 180.75 L158.42 180.53 C158.42 167.43 153.01 157.85 142.5 152.08 L142.39 152.07
						 Z" class="st2"/>
			<path d="M142.39 152.07 C131.79 146.23 121.05 140.19 110.65 134.42 C98.61 127.64 71.81 113.51 59.49 106.77 L59.29 106.67
						 C58.61 106.3 59.03 129.61 59.03 129.61 C60.34 130.35 74.08 137.77 75.62 138.63 C82.41 142.43 89.2 146.23
						 95.98 150.03 C107.36 156.41 119.15 162.99 130.79 169.35 C135.73 172.03 138.78 174.9 138.66 180.92 C138.58
						 186.64 135.68 189.4 131.01 191.93 C121.95 196.9 112.77 202.11 103.87 207.03 C90.89 214.31 77.47 221.82 64.16
						 228.96 A15.4709 15.4709 -180 0 0 58.64 233.63 A9.48272 9.48272 -180 0 0 55.45 230.23 C41.24 222.11 28.74
						 215.15 13.74 206.81 L0 199.14 L0 200.28 C0 202.09 0 203.86 0 205.59 C0 207.32 0 208.88 0 210.49 C0 213.78
						 0 216.99 0.14 220.18 A5.30964 5.30964 -180 0 0 2.73 223.7 C18.2 232.42 31.89 240.04 48.14 249.15 L58.51
						 254.93 L59.1 255.26 C59.1 255.26 85.29 241.24 95.42 235.6 C111.25 226.77 127.05 217.97 142.82 209.18 C153.18
						 203.45 158.42 193.92 158.42 180.75 L158.42 180.53 C158.42 167.43 153.01 157.85 142.5 152.08" class="st3"/>
		</g>
		<g id="shape4-9" v:mID="4" v:groupContext="shape" transform="translate(122.038,-134.117)">
			<title>Sheet.4</title>
			<path d="M11.67 203.57 C28.06 212.69 43.55 221.33 59.17 230.13 A5.24179 5.24179 0 0 1 61.65 233.76 C61.8 238.5 61.78
						 243.35 61.76 248.45 C61.76 250.29 61.76 252.17 61.76 254.12 L61.76 255.26 L49.48 248.39 C33.4 239.38 18.2
						 230.88 2.95 222.19 A6.61585 6.61585 0 0 1 0.15 217.39 C0.03 214.63 0 211.85 0 208.91 C0 207.21 0 205.52
						 0 203.82 C0 202.13 0 200.06 0 198.04 L0 197.07 L11.67 203.57 Z" class="st1"/>
		</g>
		<g id="shape5-11" v:mID="5" v:groupContext="shape" transform="translate(19.6964,-86.6182)">
			<title>Sheet.5</title>
			<path d="M15.88 209.49 C26.48 215.31 37.22 221.36 47.62 227.11 C59.66 233.9 86.46 248.03 98.78 254.76 L98.98 254.88 C99.66
						 255.26 99.24 231.93 99.24 231.93 C97.93 231.2 84.19 223.77 82.65 222.92 C75.86 219.12 69.08 215.32 62.29
						 211.52 C50.91 205.15 39.12 198.55 27.46 192.2 C22.54 189.5 19.49 186.65 19.61 180.63 C19.61 174.92 22.6
						 172.15 27.26 169.62 C36.32 164.64 45.5 159.44 54.4 154.53 C67.38 147.25 80.8 139.72 94.11 132.57 A15.2673
						 15.2673 -180 0 0 99.78 127.96 A9.48272 9.48272 -180 0 0 102.97 131.35 C117.19 139.48 129.69 146.42 144.68
						 154.78 L158.42 162.43 L158.42 161.31 C158.42 159.5 158.42 157.71 158.42 155.98 C158.42 154.25 158.42 152.69
						 158.42 151.08 C158.42 147.79 158.42 144.58 158.29 141.4 A5.29268 5.29268 -180 0 0 155.69 137.88 C140.22
						 129.16 126.53 121.55 110.28 112.44 L99.92 106.64 L99.32 106.31 C99.32 106.31 73.13 120.33 63 125.99 C47.17
						 134.79 31.37 143.59 15.61 152.39 C5.24 158.14 0 167.66 0 180.82 L0 181.04 C0 194.15 5.41 203.72 15.93 209.5
						 L15.88 209.49 Z" class="st2"/>
			<path d="M15.88 209.49 C26.48 215.31 37.22 221.36 47.62 227.11 C59.66 233.9 86.46 248.03 98.78 254.76 L98.98 254.88 C99.66
						 255.26 99.24 231.93 99.24 231.93 C97.93 231.2 84.19 223.77 82.65 222.92 C75.86 219.12 69.08 215.32 62.29
						 211.52 C50.91 205.15 39.12 198.55 27.46 192.2 C22.54 189.5 19.49 186.65 19.61 180.63 C19.61 174.92 22.6
						 172.15 27.26 169.62 C36.32 164.64 45.5 159.44 54.4 154.53 C67.38 147.25 80.8 139.72 94.11 132.57 A15.2673
						 15.2673 -180 0 0 99.78 127.96 A9.48272 9.48272 -180 0 0 102.97 131.35 C117.19 139.48 129.69 146.42 144.68
						 154.78 L158.42 162.43 L158.42 161.31 C158.42 159.5 158.42 157.71 158.42 155.98 C158.42 154.25 158.42 152.69
						 158.42 151.08 C158.42 147.79 158.42 144.58 158.29 141.4 A5.29268 5.29268 -180 0 0 155.69 137.88 C140.22
						 129.16 126.53 121.55 110.28 112.44 L99.92 106.64 L99.32 106.31 C99.32 106.31 73.13 120.33 63 125.99 C47.17
						 134.79 31.37 143.59 15.61 152.39 C5.24 158.14 0 167.66 0 180.82 L0 181.04 C0 194.15 5.41 203.72 15.93 209.5"
					class="st3"/>
		</g>
		<g id="shape6-14" v:mID="6" v:groupContext="shape" transform="translate(21.0195,-62.903)">
			<title>Sheet.6</title>
			<path d="M50.13 248.69 C33.74 239.55 18.25 230.91 2.63 222.13 A5.24179 5.24179 0 0 1 0.15 218.5 C0 213.75 0.02 208.91
						 0.03 203.79 C0.03 201.97 0.03 200.09 0.03 198.14 L0.03 197 L12.32 203.87 C28.4 212.86 43.6 221.36 58.85
						 230.06 A6.59889 6.59889 0 0 1 61.63 234.87 C61.75 237.61 61.78 240.41 61.78 243.35 C61.78 245.04 61.78 246.64
						 61.78 248.33 C61.78 250.03 61.78 252.12 61.78 254.12 L61.78 255.26 L50.13 248.69 Z" class="st1"/>
		</g>
	</g>
</svg>
