<?xml version="1.0" encoding="UTF-8"?>
<svg version="1.1" xmlns="http://www.w3.org/2000/svg" width="1182" height="1182">
<path d="M0 0 C9.73614257 0.40378416 18.83105311 2.06991766 28.25 4.5 C28.94453278 4.67706482 29.63906555 4.85412964 30.35464478 5.03656006 C60.56875136 12.78359017 89.74164558 25.04204515 116 42 C116.65677734 42.42313477 117.31355469 42.84626953 117.99023438 43.28222656 C143.30212572 59.77034865 167.62256625 80.96797125 186 105 C186.7940625 106.0003125 187.588125 107.000625 188.40625 108.03125 C206.90435148 131.43393351 238 172.57081268 238 203 C269.02 203 300.04 203 332 203 C332 214.03050321 330.47956323 222.58170617 323 231 C312.82738035 239.89715358 303.26425439 243.10363624 289.78637695 243.1418457 C288.76037132 243.14705734 288.76037132 243.14705734 287.71363831 243.15237427 C286.23995574 243.15967883 284.76626254 243.16505216 283.2925663 243.16866493 C280.94887806 243.17590294 278.60539055 243.19162383 276.26176453 243.21000671 C269.6020283 243.26212682 262.94240643 243.31038038 256.2824707 243.32592773 C252.19576131 243.33608849 248.1095665 243.36561095 244.02306175 243.40724754 C242.47838444 243.41944404 240.93363412 243.42469989 239.38891029 243.42244911 C222.30337375 243.40368225 208.86710457 247.88047156 196.2890625 259.6796875 C184.71730352 271.40942271 180.57382091 284.45825025 180.63647461 300.65356445 C180.8993732 314.72506564 186.10591737 325.97351851 195.75 336.25 C206.89068636 346.72525037 220.07365777 352.10006829 235.29956055 352.1418457 C236.00453171 352.14532013 236.70950287 352.14879456 237.43583679 352.15237427 C238.95810354 352.15969166 240.48038069 352.16505829 242.00266075 352.16866493 C244.42160339 352.17588538 246.84034954 352.19159397 249.25923157 352.21000671 C256.13397487 352.26220716 263.00860777 352.31039079 269.88354492 352.32592773 C274.09876746 352.33607474 278.3134893 352.36556518 282.52851295 352.40724754 C284.12425746 352.41946508 285.72007296 352.42469592 287.31586266 352.42244911 C299.95329398 352.40903658 311.49061635 353.71104836 320.99609375 362.9375 C327.66493471 369.98566952 332.15766574 377.80611488 332.125 387.6875 C332.12757813 388.47511719 332.13015625 389.26273438 332.1328125 390.07421875 C332 392 332 392 331 393 C328.13987103 393.12525151 325.30271846 393.18609721 322.44116211 393.20532227 C321.54368759 393.21522186 320.64621307 393.22512146 319.72154236 393.23532104 C316.74017012 393.2670354 313.75878191 393.29173256 310.77734375 393.31640625 C308.71610589 393.33696721 306.65487234 393.35796344 304.59364319 393.37937927 C299.15700756 393.4346886 293.72033333 393.48405866 288.28363037 393.53222656 C282.74048408 393.58237706 277.19739414 393.63809672 271.65429688 393.69335938 C260.76957934 393.80104926 249.88481297 393.90247002 239 394 C238.72325439 394.72968491 238.44650879 395.45936981 238.16137695 396.21116638 C236.88198409 399.57834269 235.59727341 402.94346695 234.3125 406.30859375 C233.87744141 407.45598022 233.44238281 408.6033667 232.99414062 409.78552246 C215.96352853 454.30953472 186.62648384 496.23835345 150 527 C149.46938965 527.44972168 148.9387793 527.89944336 148.39208984 528.36279297 C127.58407685 545.92932813 104.68728775 560.4995012 80 572 C79.23558594 572.35803711 78.47117187 572.71607422 77.68359375 573.08496094 C60.15955448 581.19299356 41.8669087 586.97649337 23.125 591.5625 C22.44791992 591.73112549 21.77083984 591.89975098 21.07324219 592.07348633 C17.65408514 592.85715428 15.34156885 592.98561327 12 592 C12.75692139 591.74009277 13.51384277 591.48018555 14.29370117 591.21240234 C64.49185541 573.8095709 115.78168421 546.48226388 150.38671875 504.921875 C152.22706108 502.72950592 154.17434619 500.65725617 156.125 498.5625 C184.05411545 467.50380625 203.4933827 429.87816917 218 391 C217.44094971 390.9582666 216.88189941 390.9165332 216.3059082 390.87353516 C210.91147185 390.38597312 206.22308322 389.34759179 201.1875 387.375 C200.49809326 387.10776123 199.80868652 386.84052246 199.09838867 386.56518555 C175.60599668 377.16768413 157.06841874 358.04250224 146.625 335.125 C137.18050654 311.00397834 136.8617267 284.7930244 146.375 260.625 C156.46325918 238.14171506 173.74539377 218.39664544 197 209 C211.14225585 203.83383187 211.14225585 203.83383187 218 204 C209.89454065 182.51500649 209.89454065 182.51500649 199.97265625 161.83203125 C198.94869549 159.9033662 197.97202692 157.95531283 197 156 C180.47704226 123.17387648 155.20304492 91.65701421 127 68 C126.45875488 67.54496094 125.91750977 67.08992188 125.35986328 66.62109375 C88.21401468 35.52871633 46.45902205 14.44011459 0 1 C0 0.67 0 0.34 0 0 Z " fill="#00287F" transform="translate(709,320)"/>
<path d="M0 0 C1.22692566 -0.00137466 2.45385132 -0.00274933 3.71795654 -0.00416565 C5.06935144 -0.00062701 6.42074609 0.00300779 7.7721405 0.00672913 C9.20143125 0.00701133 10.63072215 0.00685261 12.06001282 0.00628662 C15.93357288 0.00599995 19.80710191 0.01187564 23.68065476 0.01886058 C27.73122389 0.02511579 31.78179374 0.02569963 35.83236694 0.02688599 C43.4997642 0.0299929 51.16714719 0.03819769 58.83453816 0.04823548 C67.56483671 0.05941645 76.29513594 0.06491207 85.02543986 0.06993091 C102.98162355 0.08038082 120.93779397 0.0979679 138.89396667 0.12025452 C138.91196097 1.72226398 138.92480573 3.32433184 138.93547058 4.92640686 C138.94317474 5.81854889 138.95087891 6.71069092 138.95881653 7.62986755 C138.75026392 15.63877836 134.44614837 23.50875465 128.89396667 29.12025452 C119.97816373 36.55507677 111.9692846 39.58018873 100.48991394 39.50502014 C98.97365921 39.5130793 98.97365921 39.5130793 97.42677307 39.52130127 C95.24374865 39.53104409 93.06068566 39.53403405 90.87764168 39.53094482 C87.4172342 39.52644846 83.95733315 39.54051896 80.49697876 39.55934143 C73.15014951 39.59604157 65.80337408 39.60981993 58.45646667 39.62025452 C49.94267947 39.63235271 41.42914033 39.65397152 32.9154644 39.70025635 C29.51599134 39.71378321 26.1168354 39.7096637 22.71734619 39.70484924 C20.62069806 39.71419425 18.52405339 39.72436417 16.42741394 39.73548889 C15.49051224 39.72934067 14.55361053 39.72319244 13.58831787 39.71685791 C6.25333854 39.78489659 -0.28189223 40.77681829 -6.04353333 45.55775452 C-10.37803936 50.94304989 -10.78181792 55.34095506 -10.10603333 62.12025452 C-8.36158242 67.35360725 -5.92439852 69.52575018 -1.10603333 72.12025452 C4.2140178 73.95248425 8.84567709 74.41012461 14.39274597 74.39149475 C15.62357658 74.39933487 15.62357658 74.39933487 16.87927246 74.40733337 C18.65087677 74.41752738 20.42251064 74.4233457 22.1941433 74.42521477 C25.00835268 74.42890088 27.82221667 74.44569054 30.63635254 74.4659729 C38.6341862 74.52115708 46.63207058 74.55197055 54.63005066 74.57655334 C59.53361019 74.59252818 64.43692496 74.6228519 69.34035683 74.66131783 C71.19764905 74.67288278 73.05498523 74.67889742 74.91231346 74.67899895 C92.65969338 74.68032045 109.25541269 76.82864228 122.73381042 89.67103577 C136.35629029 105.11641529 140.83328453 122.52030627 140.07316589 142.72962952 C139.04032062 156.50840457 129.94019544 168.85056118 119.99162292 177.83900452 C107.37466269 187.95321395 92.34451884 190.59408748 76.58830261 190.46083069 C75.19738788 190.4599822 73.80647182 190.46046388 72.41555786 190.4621582 C68.67866334 190.46301094 64.94206396 190.44550384 61.20523739 190.42443633 C57.28551713 190.40554761 53.36578841 190.40390956 49.44602966 190.40036011 C42.04088603 190.39107517 34.63587695 190.36651006 27.23079228 190.33631164 C18.79296687 190.30265634 10.35513468 190.28625378 1.91725874 190.27122533 C-15.42391614 190.23995688 -32.76496046 190.18726633 -50.10603333 190.12025452 C-50.15199799 188.23116365 -50.18450779 186.34174293 -50.21150208 184.45228577 C-50.23107971 183.40016907 -50.25065735 182.34805237 -50.27082825 181.26405334 C-49.884585 173.89567663 -46.21391595 166.42844626 -41.10603333 161.12025452 C-31.71737088 153.09226779 -21.62587204 149.4932639 -9.34553528 149.6219635 C-8.33265442 149.6164447 -7.31977356 149.6109259 -6.27619934 149.60523987 C-4.09813682 149.59598206 -1.92002014 149.59576267 0.2580471 149.60383415 C3.71010499 149.6165487 7.16137328 149.60509771 10.61340332 149.58779907 C16.69464342 149.56119311 22.77568736 149.55550005 28.85697937 149.55690002 C38.59948564 149.5591352 48.3417501 149.54494054 58.08416176 149.50131416 C61.47651649 149.4915049 64.86848714 149.50017582 68.26083374 149.51000977 C70.34777577 149.50386414 72.43471573 149.49695193 74.52165222 149.489151 C75.92532799 149.5007299 75.92532799 149.5007299 77.35736084 149.51254272 C84.13797992 149.46039069 90.25625046 148.75797073 95.26896667 143.74525452 C98.67940067 138.2360919 99.70165438 133.57005054 98.89396667 127.12025452 C97.5239951 124.24878458 97.5239951 124.24878458 95.89396667 122.12025452 C95.89396667 121.46025452 95.89396667 120.80025452 95.89396667 120.12025452 C95.17209167 119.83150452 94.45021667 119.54275452 93.70646667 119.24525452 C92.01482782 118.56859897 90.33674248 117.85382099 88.69302368 117.06788635 C85.19719733 115.8843605 81.94328425 115.82802056 78.29655457 115.83314514 C77.54778046 115.8263121 76.79900635 115.81947906 76.02754211 115.81243896 C74.40597581 115.79888382 72.78436715 115.78980947 71.16275215 115.784729 C68.58337966 115.77639713 66.00435405 115.7558467 63.42507935 115.73219299 C57.93559391 115.68403522 52.44607285 115.65113145 46.95646667 115.62025452 C40.62084738 115.58439305 34.28539487 115.54203813 27.94993401 115.48431396 C25.43215419 115.46451971 22.91450813 115.45597828 20.39666748 115.44801331 C2.64612464 115.33192148 -14.1462783 113.5590649 -29.10603333 103.12025452 C-30.13663879 102.40289124 -30.13663879 102.40289124 -31.18806458 101.67103577 C-42.06735567 93.15214313 -49.38590048 78.67616383 -51.10603333 65.12025452 C-52.4897271 41.97091402 -52.4897271 41.97091402 -47.10603333 32.12025452 C-46.65872864 31.26560608 -46.21142395 30.41095764 -45.75056458 29.53041077 C-37.68244581 15.1462312 -26.48590801 6.65552343 -11.10603333 1.12025452 C-7.34854893 0.20499771 -3.86266043 -0.00334429 0 0 Z " fill="#002880" transform="translate(166.1060333251953,522.8797454833984)"/>
<path d="M0 0 C1.31822754 0.00902344 2.63645508 0.01804687 3.99462891 0.02734375 C20.86482407 0.32640913 33.65629678 4.15086741 48.25 12.4375 C49.23613281 12.98277344 50.22226562 13.52804687 51.23828125 14.08984375 C72.72300511 26.80656163 87.23543286 48.47666801 93.55859375 72.3515625 C98.96137106 96.46565331 95.94199579 122.90063866 82.9375 144.0625 C68.31741947 166.02412958 47.61196342 183.27693641 21.50048828 189.35498047 C4.48492736 192.62211925 -14.30291934 191.95008271 -30.75 186.4375 C-31.80574219 186.086875 -32.86148438 185.73625 -33.94921875 185.375 C-57.6013521 176.47066745 -77.29030026 157.2606456 -87.68896484 134.37060547 C-97.56913854 111.00805464 -98.58914072 82.71421771 -89.01953125 59.0625 C-85.08825712 49.8932127 -80.18930478 42.07866133 -73.75 34.4375 C-73.0178125 33.55449219 -72.285625 32.67148437 -71.53125 31.76171875 C-53.42150861 10.75059274 -27.56259706 -0.22647403 0 0 Z M-41.0390625 59.07421875 C-51.88255234 73.30883743 -55.20450238 87.89047259 -53.75 105.4375 C-51.17986122 120.16578032 -41.9155781 133.34137482 -30 142.1875 C-16.4965054 151.10022002 -1.75529501 154.24364842 14.0625 151.3125 C29.31946273 147.76894737 41.69934507 139.20971982 50.53125 126.26953125 C58.89090836 112.49509418 61.24426115 98.34335851 58.59765625 82.54296875 C54.83523041 67.89695913 45.55430307 55.32364797 32.94921875 47.00390625 C8.0213199 32.53778839 -21.91453782 37.04511609 -41.0390625 59.07421875 Z " fill="#002880" transform="translate(433.75,522.5625)"/>
<path d="M0 0 C0.97690292 -0.00426498 1.95380585 -0.00852997 2.96031189 -0.01292419 C4.58172089 -0.01224442 4.58172089 -0.01224442 6.23588562 -0.0115509 C7.36767746 -0.01490952 8.4994693 -0.01826813 9.66555786 -0.02172852 C13.43339619 -0.03127968 17.20119021 -0.03318432 20.96903992 -0.03425598 C23.5844525 -0.03746788 26.1998649 -0.0408319 28.8152771 -0.04434204 C34.31420683 -0.05074917 39.81312453 -0.05222365 45.3120575 -0.05158997 C51.6437865 -0.05099197 57.97542953 -0.06148483 64.30713683 -0.07733363 C70.41266366 -0.09206592 76.51814981 -0.09557567 82.62369347 -0.09498024 C85.21228064 -0.0961565 87.80086852 -0.10055834 90.38944435 -0.10831261 C94.0271309 -0.11818099 97.66460135 -0.11520645 101.30229187 -0.10920715 C102.89030106 -0.11763641 102.89030106 -0.11763641 104.51039124 -0.12623596 C121.82302225 -0.05418901 135.56580173 4.32927762 148.16825867 16.44621277 C159.45911281 28.22882886 163.87523772 41.12970731 163.68778992 57.35246277 C162.82794417 73.05681528 157.1710093 86.87944575 145.56669617 97.65715027 C128.97092188 110.97578432 110.96929925 112.30022107 90.41435242 112.23136902 C88.76811771 112.22950092 87.12188244 112.22807887 85.47564697 112.2270813 C81.17014496 112.22328698 76.86467738 112.21348348 72.55918884 112.20237732 C68.15479498 112.19209643 63.75039548 112.18756945 59.34599304 112.18254089 C50.72423256 112.17185807 42.10249991 112.15481927 33.48075867 112.13371277 C33.4874205 112.74013107 33.49408234 113.34654938 33.50094604 113.97134399 C33.56760362 120.31471933 33.612685 126.65799423 33.64555359 133.00163269 C33.66058808 135.36528061 33.68102109 137.72890088 33.70707703 140.092453 C33.74369511 143.50080718 33.76053898 146.90879069 33.77372742 150.31730652 C33.78921127 151.36454391 33.80469513 152.41178131 33.82064819 153.49075317 C33.82326037 165.02293843 30.54699934 172.74133013 22.66435242 181.04777527 C14.98207244 188.3420613 6.0288901 191.22943084 -4.51924133 191.13371277 C-6.21444575 189.43850835 -5.64404331 187.32467497 -5.65298474 185.06257486 C-5.65075402 184.3307806 -5.64852329 183.59898633 -5.64622498 182.84501648 C-5.64778497 182.07307622 -5.64934496 181.30113597 -5.65095222 180.50580359 C-5.65496525 177.89933245 -5.65177142 175.29291879 -5.64863586 172.68644714 C-5.64998977 170.82587652 -5.65176964 168.96530617 -5.65394592 167.10473633 C-5.65852152 162.03670157 -5.65673018 156.96868707 -5.65356684 151.90065193 C-5.65104388 146.60931975 -5.65338059 141.31798935 -5.654953 136.0266571 C-5.65677489 127.1389993 -5.65436789 118.25134979 -5.64961243 109.36369324 C-5.64416977 99.07255498 -5.64593241 88.78143653 -5.65143883 78.49029875 C-5.65596942 69.67165059 -5.65662078 60.8530084 -5.65400016 52.03435946 C-5.65243709 46.75987199 -5.65224445 41.48539385 -5.65553665 36.21090698 C-5.65841458 31.25339513 -5.65644112 26.29590895 -5.6506424 21.33839989 C-5.64931438 19.51340465 -5.64970962 17.68840726 -5.65190506 15.86341286 C-5.65461494 13.38304859 -5.65123746 10.90276792 -5.64622498 8.42240906 C-5.6484557 7.69061479 -5.65068642 6.95882052 -5.65298474 6.20485067 C-5.63099914 0.6426958 -5.53226939 0.01086049 0 0 Z M33.48075867 36.13371277 C33.48075867 49.33371277 33.48075867 62.53371277 33.48075867 76.13371277 C47.37525749 76.25009455 47.37525749 76.25009455 61.26982117 76.32902527 C66.93859367 76.35291861 72.60710725 76.38115679 78.27568054 76.43547058 C82.84685475 76.4789945 87.41775121 76.50286381 91.98911667 76.51322174 C93.73142238 76.52060138 95.47371323 76.53501224 97.21590042 76.556633 C99.66014976 76.58575467 102.10325773 76.58966522 104.5476532 76.58781433 C105.62335823 76.60938599 105.62335823 76.60938599 106.72079468 76.63139343 C111.77008528 76.5901368 114.58975673 75.29293785 118.48075867 72.13371277 C123.41909022 65.96079832 125.03768755 59.42719784 124.85966492 51.62980652 C123.98916666 45.89528706 120.84600924 42.22034078 116.41825867 38.69621277 C111.59523939 36.13077698 107.44715048 35.99231922 102.0500946 36.02018738 C101.30823914 36.02004135 100.56638367 36.01989532 99.80204773 36.01974487 C97.35637969 36.02044008 94.91078836 36.02821411 92.46513367 36.03605652 C90.76691225 36.03792209 89.06869029 36.03934534 87.37046814 36.04034424 C82.90542611 36.04415845 78.44041672 36.05397938 73.97538757 36.06504822 C68.61558202 36.07708656 63.25576553 36.0816698 57.89595032 36.08750153 C49.75753042 36.09719171 41.6191821 36.11635594 33.48075867 36.13371277 Z " fill="#002880" transform="translate(567.5192413330078,521.8662872314453)"/>
<path d="M0 0 C0.99330322 0.00563965 1.98660645 0.0112793 3.01000977 0.01708984 C3.76854248 0.02434082 4.5270752 0.0315918 5.30859375 0.0390625 C5.40214018 21.37964058 5.47262346 42.72018473 5.51584244 64.06092644 C5.53644541 73.97037496 5.56452266 83.87969589 5.61035156 93.7890625 C5.65028872 102.42862254 5.67604302 111.06809016 5.68494773 119.70773995 C5.69015084 124.28008796 5.70233266 128.85217159 5.73151398 133.42443466 C5.75879191 137.73363679 5.7670139 142.04246724 5.76102448 146.35174751 C5.7621192 147.92787386 5.7699992 149.50401345 5.78541565 151.08006477 C5.87683372 160.9134841 5.36796045 169.36290307 -0.515625 177.58984375 C-9.9398565 186.50038548 -18.76905442 190.1020846 -31.69140625 190.0390625 C-31.76154605 168.68119474 -31.8144188 147.32334603 -31.84684277 125.96538639 C-31.8622992 116.04809273 -31.88336532 106.13087072 -31.91772461 96.21362305 C-31.94766443 87.56784705 -31.96699015 78.92212295 -31.97367173 70.27629656 C-31.97757623 65.70011909 -31.98672682 61.12409008 -32.00859642 56.54796028 C-32.029034 52.23634177 -32.03522541 47.92493216 -32.03072929 43.61326981 C-32.03155125 42.03511989 -32.03747349 40.45696262 -32.04902267 38.87885475 C-32.12658038 27.72963636 -31.78804264 18.3891204 -23.78515625 9.89453125 C-16.85202463 3.7504314 -9.28790611 -0.06834368 0 0 Z " fill="#002880" transform="translate(802.69140625,522.9609375)"/>
<path d="M0 0 C9.73614257 0.40378416 18.83105311 2.06991766 28.25 4.5 C28.94453278 4.67706482 29.63906555 4.85412964 30.35464478 5.03656006 C60.56875136 12.78359017 89.74164558 25.04204515 116 42 C116.65677734 42.42313477 117.31355469 42.84626953 117.99023438 43.28222656 C143.30212572 59.77034865 167.62256625 80.96797125 186 105 C186.7940625 106.0003125 187.588125 107.000625 188.40625 108.03125 C207.29572033 131.9290698 238 172.91793609 238 204 C231.73 204.33 225.46 204.66 219 205 C216.49063402 199.44435415 214.11543571 193.8605959 211.85522461 188.19946289 C207.97546286 178.50391513 203.821601 169.0745322 198.95751953 159.83398438 C198.02149138 158.0411635 197.11773567 156.23161022 196.21484375 154.421875 C179.96390162 122.23040692 154.65121445 91.19413294 127 68 C126.45875488 67.54496094 125.91750977 67.08992188 125.35986328 66.62109375 C88.21401468 35.52871633 46.45902205 14.44011459 0 1 C0 0.67 0 0.34 0 0 Z " fill="#FEAC00" transform="translate(709,320)"/>
<path d="M0 0 C0.79075928 0.04713135 1.58151855 0.0942627 2.39624023 0.14282227 C3.67724609 0.21533203 3.67724609 0.21533203 4.98413086 0.28930664 C5.88196289 0.34538086 6.77979492 0.40145508 7.70483398 0.45922852 C9.05738281 0.53753906 9.05738281 0.53753906 10.43725586 0.61743164 C12.67259948 0.74753101 14.90754288 0.88250788 17.14233398 1.02172852 C18.3723722 4.71184315 17.7736656 5.69343474 16.40405273 9.26391602 C16.0012207 10.31973877 15.59838867 11.37556152 15.18334961 12.46337891 C14.51335937 14.16288696 14.51335937 14.16288696 13.82983398 15.89672852 C13.37415039 17.06260498 12.9184668 18.22848145 12.44897461 19.4296875 C-5.25102102 64.06009256 -33.90612959 105.98707862 -70.85766602 137.02172852 C-71.38827637 137.4714502 -71.91888672 137.92117188 -72.46557617 138.38452148 C-93.27358917 155.95105664 -116.17037827 170.52122972 -140.85766602 182.02172852 C-141.62208008 182.37976563 -142.38649414 182.73780273 -143.17407227 183.10668945 C-160.69811154 191.21472207 -178.99075732 196.99822189 -197.73266602 201.58422852 C-198.40974609 201.752854 -199.08682617 201.92147949 -199.78442383 202.09521484 C-203.20358088 202.8788828 -205.51609717 203.00734178 -208.85766602 202.02172852 C-208.10074463 201.76182129 -207.34382324 201.50191406 -206.56396484 201.23413086 C-156.36581061 183.83129942 -105.07598181 156.50399239 -70.47094727 114.94360352 C-68.63060493 112.75123444 -66.68331983 110.67898468 -64.73266602 108.58422852 C-37.30237853 78.08025856 -17.83158817 41.10800388 -3.62280273 2.8815918 C-2.44911798 0.02864654 -2.44911798 0.02864654 0 0 Z " fill="#FEAC00" transform="translate(929.857666015625,709.978271484375)"/>
<path d="M0 0 C67.92595402 -1.4175472 131.13706461 20.7573482 181.58984375 66.8125 C183.92581254 68.93266617 186.30326875 70.9969731 188.6875 73.0625 C193.685595 77.49543938 198.1441589 82.30603711 201.9375 87.8125 C204.46139387 90.48935713 206.66672958 91.06550778 210.09765625 92.18359375 C213.64263738 93.70495116 215.33421342 96.66842685 217 100 C217.52657873 105.28305214 217.64191122 109.66862857 215.3125 114.5 C211.24765156 118.89443074 208.53610427 120.18657624 202.5625 120.4375 C197.61448843 120.29099091 194.72716917 119.44763149 191 116 C188.03625218 112.0140336 187.86939609 109.85079933 188.5 105 C188.66218131 98.14977039 186.13364912 94.62932211 181.69433594 89.81982422 C180.66148221 88.73954687 179.6198304 87.66761708 178.56982422 86.60400391 C177.02460125 85.02513689 175.53995503 83.40745526 174.06640625 81.76171875 C171.41690326 78.80262834 168.71958084 75.89489973 166 73 C165.07960938 72.01580078 165.07960938 72.01580078 164.140625 71.01171875 C159.16653016 65.85997767 153.60377691 61.44361997 148 57 C147.01 56.20464844 146.02 55.40929687 145 54.58984375 C102.71225121 21.23538189 53.15766221 5.20831492 0 1 C0 0.67 0 0.34 0 0 Z " fill="#FFAD00" transform="translate(588,376)"/>
</svg>
