<svg width="500" height="500" viewBox="0 0 500 500" fill="none" xmlns="http://www.w3.org/2000/svg">
<path d="M147.029 234.179C141.526 227.392 134.372 223.998 125.476 223.998C113.094 223.998 104.014 230.235 98.1437 242.525C95.6673 236.472 92.182 231.886 87.5044 228.676C82.9185 225.557 77.5989 223.907 71.6372 223.907C60.4476 223.907 51.9178 229.043 46.0479 239.315C45.9562 238.765 45.8645 238.123 45.7727 237.481C45.3141 234.271 43.6632 231.519 41.462 229.593C38.9856 227.484 35.7755 226.291 32.1985 226.475C25.3196 226.842 20 232.803 20 239.682V303.059C20 306.911 21.5592 310.397 24.0356 312.873C26.6037 315.441 30.089 317 34.0328 316.909C41.7371 316.817 47.7905 310.305 47.7905 302.601V274.168C47.7905 266.189 48.9829 260.043 51.3675 255.641C53.7522 251.238 57.1458 248.946 61.6399 248.946C66.0424 248.946 69.1608 251.147 70.9952 255.458C71.4538 256.65 71.9123 257.842 72.2792 259.218C74.1136 266.372 80.4421 271.508 87.8713 271.508C94.9335 271.508 101.262 266.922 103.188 260.135C103.647 258.484 104.289 256.925 105.023 255.549C107.315 251.147 110.709 248.854 115.203 248.854C119.789 248.854 122.907 251.055 124.742 255.366C126.576 259.677 127.493 265.546 127.493 272.884V302.967C127.493 306.82 129.053 310.213 131.529 312.781C134.097 315.349 137.582 316.909 141.526 316.817C149.139 316.725 155.192 310.213 155.192 302.601V263.162C155.284 250.688 152.532 240.874 147.029 234.179Z" fill="#2D88C9"/>
<path d="M445.472 236.748C439.602 236.748 434.283 240.508 432.357 246.011L428.596 256.65C426.487 262.704 417.957 262.704 415.847 256.742L394.752 198.96C393.652 195.841 391.634 193.273 389.066 191.531C386.498 189.696 383.379 188.687 380.077 188.687C368.979 188.687 361.459 199.969 365.586 210.241L404.107 305.261C405.575 308.838 407.96 311.681 410.986 313.791C414.013 315.808 417.682 317.001 421.442 317.001C429.146 317.001 436.025 312.323 438.868 305.169L458.313 255.825C461.981 246.653 455.286 236.748 445.472 236.748Z" fill="#2D88C9"/>
<path d="M200.325 188.044C197.023 184.651 193.08 183 188.677 183C183.999 183 180.056 184.651 176.845 187.953C173.635 191.255 171.984 195.29 171.984 199.968C171.984 204.554 173.635 208.498 176.845 211.799C180.147 215.101 183.999 216.752 188.585 216.752C193.171 216.752 197.023 215.101 200.325 211.799C203.627 208.498 205.186 204.554 205.186 199.968C205.37 195.474 203.719 191.438 200.325 188.044Z" fill="#2D88C9"/>
<path d="M99.6123 288.109C96.3105 284.716 92.3666 283.065 87.9641 283.065C83.2865 283.065 79.3427 284.716 76.1325 288.018C72.9224 291.319 71.2715 295.355 71.2715 300.033C71.2715 304.618 72.9224 308.562 76.1325 311.864C79.4344 315.166 83.2865 316.817 87.8724 316.817C92.4583 316.817 96.3105 315.166 99.6123 311.864C102.914 308.562 104.473 304.618 104.473 300.033C104.657 295.447 102.914 291.503 99.6123 288.109Z" fill="#2D88C9"/>
<path d="M475.003 193.914C471.701 190.521 467.757 188.87 463.355 188.87C458.677 188.87 454.733 190.521 451.523 193.823C448.313 197.124 446.662 201.16 446.662 205.838C446.662 210.424 448.313 214.367 451.523 217.669C454.825 220.971 458.677 222.622 463.263 222.622C467.849 222.622 471.701 220.971 475.003 217.669C478.305 214.367 479.864 210.424 479.864 205.838C479.956 201.252 478.305 197.216 475.003 193.914Z" fill="#2D88C9"/>
<path d="M198.85 230.603C196.282 228.035 192.705 226.384 188.761 226.384C180.873 226.384 174.453 232.804 174.453 240.692V302.693C174.453 310.581 180.873 317.001 188.761 317.001C196.649 317.001 203.069 310.581 203.069 302.693V240.692C203.069 236.748 201.51 233.171 198.85 230.603Z" fill="#2D88C9"/>
<path d="M247.915 187.861C245.346 185.293 241.769 183.642 237.826 183.642C229.938 183.642 223.518 190.062 223.518 197.95V302.692C223.518 310.58 229.938 317 237.826 317C245.713 317 252.134 310.58 252.134 302.692V197.95C252.134 194.006 250.483 190.429 247.915 187.861Z" fill="#2D88C9"/>
<path d="M355.316 295.08L333.487 261.97L355.041 238.031C359.076 233.537 355.866 226.383 349.904 226.383H337.339C334.496 226.383 331.744 227.667 329.91 229.777L308.54 254.816C306.155 257.659 301.477 255.916 301.477 252.248V197.859C301.477 193.915 299.918 190.338 297.258 187.77C294.69 185.202 291.113 183.551 287.169 183.551C279.282 183.551 272.861 189.971 272.861 197.859V302.601C272.861 306.545 274.421 310.122 277.08 312.69C279.648 315.258 283.225 316.909 287.169 316.909C295.057 316.909 301.477 310.488 301.477 302.601V300.124C301.477 298.382 302.119 296.639 303.312 295.355L309.915 288.109C312.208 285.633 316.244 286 318.078 288.843L331.653 310.213C332.937 312.231 334.679 313.882 336.789 314.983C338.807 316.083 341.191 316.725 343.576 316.725C354.765 317 361.553 304.435 355.316 295.08Z" fill="#2D88C9"/>
</svg>
