<svg xmlns="http://www.w3.org/2000/svg" role="img" viewBox="-5.92 -5.42 411.34 489.84"><title>Signaloid (member) logo</title><g fill-rule="evenodd" stroke="none"><path fill="#444" d="M146.54 86.101c-32.866 1.582-57.703 16.744-65.473 39.967-4.578 13.681-3.305 32.18 2.94 42.749 10.024 16.963 25.929 24.933 67.055 33.6 31.258 6.587 38.252 8.422 47.979 12.585 19.025 8.145 27.954 19.46 29.076 36.846 2.322 35.962-33.681 58.161-82.965 51.156-37.751-5.366-58.658-25.749-59.724-58.229l-.216-6.564-6.687.1-6.688.101.124 4.986c.916 36.853 22.877 61.899 61.003 69.572 66.682 13.42 116.104-18.073 108.018-68.833-1.699-10.663-5.611-18.336-13.281-26.045-12.004-12.065-26.696-17.792-66.667-25.991-39.948-8.194-52.859-13.617-62.64-26.315-8.847-11.485-8.717-32.145.285-45.278 12.126-17.689 39.73-26.257 69.897-21.695 31.175 4.715 51.194 23.342 53.574 49.848.128 1.422.321 3.209.431 3.971l.199 1.385h13.343l-.237-3.786c-2.394-38.194-31.329-62.52-76.145-64.018-3.047-.101-6.038-.227-6.648-.279-.609-.052-3.558.023-6.553.167m200.183 318.922c-10.17 3.127-15.222 14.621-10.686 24.314 6.093 13.02 25.325 13.256 31.685.388 6.852-13.863-6.224-29.246-20.999-24.702m10.93 3.761c11.719 5.483 10.436 23.139-1.949 26.816-7.877 2.339-16.041-3.071-17.353-11.5-1.752-11.248 9.284-20.005 19.302-15.316m-314.735 2.674c-8.026 2.103-12.435 7.204-12.443 14.396-.009 7.579 3.771 11.282 14.577 14.281 11.213 3.111 13.132 3.96 14.24 6.297 2.342 4.934-4.994 8.985-12.665 6.995-3.779-.98-6.738-4.281-6.738-7.516v-1.22H28.712l.187 2.677c.518 7.435 5.387 12.586 13.919 14.726 3.947.99 13.005.869 16.092-.215 8.308-2.916 11.825-7.367 11.814-14.953-.012-8.632-3.781-11.981-17.455-15.51-10.229-2.64-11.634-3.403-11.634-6.322 0-7.667 15.218-6.945 16.253.77l.196 1.467h10.983v-1.972c0-10.355-13.101-17.319-26.149-13.901m302.05 10.333v10.342h3.693V423.638h1.456c1.455 0 1.457.001 4.132 4.248l2.676 4.247h1.962c2.446 0 2.472.19-.623-4.565-2.972-4.566-2.953-4.503-1.453-4.803 3.539-.708 4.948-6.769 2.21-9.507-1.44-1.441-3.246-1.804-8.975-1.806l-5.078-.002v10.341m-269.252-5.54v4.432H86.057v-8.864H75.716v4.432m141.089 20.499v24.931h10.342v-49.862h-10.342v24.931m60.203-20.499v4.432h10.342v-8.864h-10.342v4.432m42.475 4.101v8.533l-1.366-1.199c-5.382-4.726-14.388-4.129-19.906 1.318-7.003 6.914-6.891 22.217.216 29.369 5.49 5.525 15.537 5.944 20.481.853l1.314-1.352v3.807h9.603v-49.862h-10.342v8.533m35.996-5.068c3.237 2.121.757 5.03-4.288 5.03h-2.53V414.299l2.968.203c1.754.121 3.328.44 3.85.782m-250.543 9.509c-13.951 2.317-17.296 27.438-4.558 34.228 5.344 2.848 12.958 2.203 16.768-1.421l1.5-1.428-.149 3.401c-.257 5.872-2.56 8.488-7.441 8.452-3.622-.027-6.14-1.518-6.764-4.004-.214-.853-.278-.863-5.348-.863h-5.131v1.405c0 10.65 21.817 14.84 30.752 5.906 3.802-3.802 3.967-4.924 3.967-26.937v-18.047h-9.972v3.807l-1.314-1.353c-2.857-2.942-7.064-4.017-12.31-3.146m48.838-.053c-2.729.578-5.244 1.897-6.766 3.548l-1.486 1.612v-4.415H135.549v36.196h10.673l.112-11.912.111-11.911.923-1.662c2.47-4.446 9.175-4.483 11.201-.061.744 1.624.797 2.406.923 13.634l.134 11.912h10.328l-.152-13.574c-.182-16.166-.534-18.016-3.981-20.916-2.386-2.008-8.38-3.227-12.047-2.451m36.069-.003c-7.93.989-12.554 4.633-13.486 10.628l-.245 1.569h5.388c5.341 0 5.388-.007 5.39-.831.009-5.597 11.803-5.928 11.949-.336.072 2.746-1.248 3.439-8.555 4.494-11.865 1.713-14.993 4.148-14.993 11.672 0 5.198 2.558 8.776 7.292 10.199 4.133 1.242 12.173.149 15.461-2.103l1.368-.937.243 1.294.243 1.295h10.714l-.24-.832c-.747-2.585-.95-6.011-.952-16.087-.002-12.361-.171-13.677-2.033-15.853-2.838-3.315-10.26-5.08-17.544-4.172m58.356.047c-19.354 2.862-20.339 33.408-1.207 37.462 13.368 2.833 23.754-5.247 23.732-18.464-.021-13.093-9.336-20.949-22.525-18.998M75.716 443.583v18.098H86.057v-36.196H75.716v18.098m201.292 0v18.098h10.342v-36.196h-10.342v18.098m-163.711-10.589c5.66 2.053 7.212 12.722 2.531 17.402-5.352 5.352-12.308 1.57-12.716-6.914-.382-7.93 4.208-12.656 10.185-10.488m142.237.405c4.502 2.328 6.336 11.307 3.476 17.017-3.478 6.943-13.149 5.265-14.906-2.586-2.238-10.003 4.222-18.159 11.43-14.431m59.751.086c6.337 3.242 5.983 17.896-.499 20.669-6.507 2.785-12.23-3.861-11.138-12.932.827-6.872 6.263-10.486 11.637-7.737M198.956 447.67c-.443 5.746-3.711 8.654-8.843 7.868-3.216-.492-4.333-1.572-4.333-4.188 0-3.032 2.036-4.348 8.283-5.353 1.997-.321 3.901-.742 4.23-.934.33-.192.665-.355.746-.361.081-.006.044 1.33-.083 2.968"/><path fill="#fbfbfb" d="M17.359 4.903C11.08 7.052 6.493 11.806 4.652 18.073c-.904 3.078-.904 361.145 0 364.224 1.888 6.427 6.993 11.532 13.421 13.42 3.078.905 361.145.905 364.224 0 6.427-1.888 11.532-6.993 13.42-13.42.905-3.079.905-361.146 0-364.224-1.888-6.428-6.993-11.533-13.42-13.421-1.825-.536-18.313-.588-182.272-.58l-180.265.01-2.401.821m146.999 81.335c39.223 3.52 63.225 21.628 70.164 52.937.73 3.293 1.858 11.686 1.858 13.824v1.018h-13.933l-.254-3.232c-2.567-32.702-28.958-52.909-69.1-52.909-35.264 0-58.342 15.931-60.79 41.964-1.97 20.951 8.762 34.886 33.459 43.445 7.593 2.632 12.315 3.762 42.105 10.076 23.58 4.999 34.587 8.344 44.506 13.528 17.856 9.331 27.207 22.2 29.192 40.177 5.207 47.158-38.441 76.533-100.423 67.583-43.624-6.299-68.933-32.201-69.257-70.882l-.048-5.725h13.666l.077 5.356c.527 36.776 26.436 58.459 72.315 60.521 45.518 2.046 74.761-22.035 69.457-57.197-3.152-20.896-19.784-32.089-60.593-40.781-2.438-.519-9.584-2.035-15.882-3.368-39.146-8.288-53.479-14.977-64.777-30.228-9.306-12.562-10.741-35.496-3.216-51.407 11.674-24.685 43.243-38.13 81.474-34.7m156.233 200.927v23.823h-48.754v-23.576c0-12.968.111-23.688.247-23.823.135-.136 11.105-.246 24.376-.246h24.131v23.822"/><path fill="#3cac44" d="M272.207 287.165v23.823h48.384V263.343h-48.384v23.822"/><path fill="#b8beb8" d="M146.172 85.949c.46.088 1.125.085 1.478-.007.353-.093-.023-.165-.836-.161-.812.004-1.101.08-.642.168m11.266.004c.562.085 1.393.083 1.847-.005.454-.088-.005-.157-1.021-.154-1.016.002-1.387.074-.826.159m59.721 21.249c1.531 1.631 1.862 1.924 1.862 1.647 0-.059-.789-.849-1.754-1.755l-1.755-1.646 1.647 1.754M78.032 144.414c0 .914.072 1.288.16.831.088-.457.088-1.205 0-1.662-.088-.457-.16-.083-.16.831m12.457 33.356c0 .064.541.604 1.201 1.201l1.2 1.084-1.085-1.2c-1.011-1.119-1.316-1.37-1.316-1.085m-15.235 60.363c1.879.067 4.954.067 6.833 0 1.879-.067.341-.122-3.417-.122s-5.295.055-3.416.122m10.17 2.126c.003 1.015.075 1.387.16.825.084-.561.082-1.392-.005-1.846-.088-.455-.158.005-.155 1.021m.005 4.986c0 1.117.069 1.574.154 1.015.085-.558.085-1.472 0-2.031-.085-.559-.154-.102-.154 1.016m186.583 42.105c0 13.102.046 18.463.102 11.911.057-6.551.057-17.271 0-23.822-.056-6.552-.102-1.192-.102 11.911m-46.362 6.925l-1.273 1.385 1.385-1.273c1.289-1.184 1.555-1.497 1.273-1.497-.062 0-.685.623-1.385 1.385m-64.888 9.96c.562.085 1.393.083 1.847-.005.454-.087-.005-.157-1.021-.154-1.016.003-1.387.075-.826.159m5.351-.004c.457.088 1.205.088 1.662 0 .457-.088.083-.16-.831-.16-.914 0-1.288.072-.831.16"/><path fill="#9c9c9c" d="M148.938 85.952c.559.085 1.473.085 2.032 0 .558-.084.101-.153-1.016-.153s-1.574.069-1.016.153m4.624.004c.663.082 1.661.08 2.216-.004.555-.084.011-.152-1.207-.15-1.219.002-1.673.071-1.009.154M150.6 97.777c.864.078 2.276.078 3.14 0 .863-.077.157-.141-1.57-.141s-2.433.064-1.57.141m-55.517 6.84l-1.085 1.2 1.201-1.085c1.118-1.011 1.37-1.316 1.084-1.316-.063 0-.603.541-1.2 1.201m141.014 48.292c0 .711.076 1.001.169.646.093-.356.093-.937 0-1.293-.093-.355-.169-.064-.169.647m-164.326 90.12c0 1.32.067 1.86.149 1.2.082-.66.082-1.741 0-2.401-.082-.66-.149-.12-.149 1.201m169.891 8.495c0 1.117.069 1.574.154 1.015.084-.558.084-1.473 0-2.031-.085-.559-.154-.102-.154 1.016m-13.642 2.77c.001 2.031.063 2.815.138 1.742.075-1.074.074-2.736-.002-3.694-.075-.958-.137-.08-.136 1.952m13.646 2.585c.002 1.219.071 1.673.153 1.009.082-.664.08-1.661-.004-2.216-.084-.555-.151-.012-.149 1.207M91.213 292.244c.905.965 1.695 1.754 1.754 1.754.277 0-.016-.331-1.647-1.862l-1.754-1.647 1.647 1.755m65.851 11.991c.558.085 1.472.085 2.031 0 .559-.085.102-.154-1.016-.154-1.117 0-1.574.069-1.015.154m-1.286 11.822c.663.082 1.661.081 2.216-.004.555-.084.012-.151-1.207-.149-1.219.002-1.673.071-1.009.153m14.213-.013c.355.093.937.093 1.292 0 .356-.093.065-.169-.646-.169-.711 0-1.002.076-.646.169"/></g></svg>