<svg xmlns="http://www.w3.org/2000/svg" role="img" viewBox="-5.92 -5.42 411.34 489.84"><g id="svgg" fill-rule="evenodd" stroke="none"><path id="path0" fill="#444" d="M146.540 86.101 C 113.674 87.683,88.837 102.845,81.067 126.068 C 76.489 139.749,77.762 158.248,84.007 168.817 C 94.031 185.780,109.936 193.750,151.062 202.417 C 182.320 209.004,189.314 210.839,199.041 215.002 C 218.066 223.147,226.995 234.462,228.117 251.848 C 230.439 287.810,194.436 310.009,145.152 303.004 C 107.401 297.638,86.494 277.255,85.428 244.775 L 85.212 238.211 78.525 238.311 L 71.837 238.412 71.961 243.398 C 72.877 280.251,94.838 305.297,132.964 312.970 C 199.646 326.390,249.068 294.897,240.982 244.137 C 239.283 233.474,235.371 225.801,227.701 218.092 C 215.697 206.027,201.005 200.300,161.034 192.101 C 121.086 183.907,108.175 178.484,98.394 165.786 C 89.547 154.301,89.677 133.641,98.679 120.508 C 110.805 102.819,138.409 94.251,168.576 98.813 C 199.751 103.528,219.770 122.155,222.150 148.661 C 222.278 150.083,222.471 151.870,222.581 152.632 L 222.780 154.017 229.451 154.017 L 236.123 154.017 235.886 150.231 C 233.492 112.037,204.557 87.711,159.741 86.213 C 156.694 86.112,153.703 85.986,153.093 85.934 C 152.484 85.882,149.535 85.957,146.540 86.101 M346.723 405.023 C 336.553 408.150,331.501 419.644,336.037 429.337 C 342.130 442.357,361.362 442.593,367.722 429.725 C 374.574 415.862,361.498 400.479,346.723 405.023 M357.653 408.784 C 369.372 414.267,368.089 431.923,355.704 435.600 C 347.827 437.939,339.663 432.529,338.351 424.100 C 336.599 412.852,347.635 404.095,357.653 408.784 M42.918 411.458 C 34.892 413.561,30.483 418.662,30.475 425.854 C 30.466 433.433,34.246 437.136,45.052 440.135 C 56.265 443.246,58.184 444.095,59.292 446.432 C 61.634 451.366,54.298 455.417,46.627 453.427 C 42.848 452.447,39.889 449.146,39.889 445.911 L 39.889 444.691 34.300 444.691 L 28.712 444.691 28.899 447.368 C 29.417 454.803,34.286 459.954,42.818 462.094 C 46.765 463.084,55.823 462.963,58.910 461.879 C 67.218 458.963,70.735 454.512,70.724 446.926 C 70.712 438.294,66.943 434.945,53.269 431.416 C 43.040 428.776,41.635 428.013,41.635 425.094 C 41.635 417.427,56.853 418.149,57.888 425.864 L 58.084 427.331 63.576 427.331 L 69.067 427.331 69.067 425.359 C 69.067 415.004,55.966 408.040,42.918 411.458 M344.968 421.791 L 344.968 432.133 346.814 432.133 L 348.661 432.133 348.661 427.886 L 348.661 423.638 350.117 423.638 C 351.572 423.638,351.574 423.639,354.249 427.886 L 356.925 432.133 358.887 432.133 C 361.333 432.133,361.359 432.323,358.264 427.568 C 355.292 423.002,355.311 423.065,356.811 422.765 C 360.350 422.057,361.759 415.996,359.021 413.258 C 357.581 411.817,355.775 411.454,350.046 411.452 L 344.968 411.450 344.968 421.791 M75.716 416.251 L 75.716 420.683 80.886 420.683 L 86.057 420.683 86.057 416.251 L 86.057 411.819 80.886 411.819 L 75.716 411.819 75.716 416.251 M216.805 436.750 L 216.805 461.681 221.976 461.681 L 227.147 461.681 227.147 436.750 L 227.147 411.819 221.976 411.819 L 216.805 411.819 216.805 436.750 M277.008 416.251 L 277.008 420.683 282.179 420.683 L 287.350 420.683 287.350 416.251 L 287.350 411.819 282.179 411.819 L 277.008 411.819 277.008 416.251 M319.483 420.352 L 319.483 428.885 318.117 427.686 C 312.735 422.960,303.729 423.557,298.211 429.004 C 291.208 435.918,291.320 451.221,298.427 458.373 C 303.917 463.898,313.964 464.317,318.908 459.226 L 320.222 457.874 320.222 459.777 L 320.222 461.681 325.023 461.681 L 329.825 461.681 329.825 436.750 L 329.825 411.819 324.654 411.819 L 319.483 411.819 319.483 420.352 M355.479 415.284 C 358.716 417.405,356.236 420.314,351.191 420.314 L 348.661 420.314 348.661 417.306 L 348.661 414.299 351.629 414.502 C 353.383 414.623,354.957 414.942,355.479 415.284 M104.936 424.793 C 90.985 427.110,87.640 452.231,100.378 459.021 C 105.722 461.869,113.336 461.224,117.146 457.600 L 118.646 456.172 118.497 459.573 C 118.240 465.445,115.937 468.061,111.056 468.025 C 107.434 467.998,104.916 466.507,104.292 464.021 C 104.078 463.168,104.014 463.158,98.944 463.158 L 93.813 463.158 93.813 464.563 C 93.813 475.213,115.630 479.403,124.565 470.469 C 128.367 466.667,128.532 465.545,128.532 443.532 L 128.532 425.485 123.546 425.485 L 118.560 425.485 118.560 427.388 L 118.560 429.292 117.246 427.939 C 114.389 424.997,110.182 423.922,104.936 424.793 M153.774 424.740 C 151.045 425.318,148.530 426.637,147.008 428.288 L 145.522 429.900 145.522 427.693 L 145.522 425.485 140.536 425.485 L 135.549 425.485 135.549 443.583 L 135.549 461.681 140.886 461.681 L 146.222 461.681 146.334 449.769 L 146.445 437.858 147.368 436.196 C 149.838 431.750,156.543 431.713,158.569 436.135 C 159.313 437.759,159.366 438.541,159.492 449.769 L 159.626 461.681 164.790 461.681 L 169.954 461.681 169.802 448.107 C 169.620 431.941,169.268 430.091,165.821 427.191 C 163.435 425.183,157.441 423.964,153.774 424.740 M189.843 424.737 C 181.913 425.726,177.289 429.370,176.357 435.365 L 176.112 436.934 181.500 436.934 C 186.841 436.934,186.888 436.927,186.890 436.103 C 186.899 430.506,198.693 430.175,198.839 435.767 C 198.911 438.513,197.591 439.206,190.284 440.261 C 178.419 441.974,175.291 444.409,175.291 451.933 C 175.291 457.131,177.849 460.709,182.583 462.132 C 186.716 463.374,194.756 462.281,198.044 460.029 L 199.412 459.092 199.655 460.386 L 199.898 461.681 205.255 461.681 L 210.612 461.681 210.372 460.849 C 209.625 458.264,209.422 454.838,209.420 444.762 C 209.418 432.401,209.249 431.085,207.387 428.909 C 204.549 425.594,197.127 423.829,189.843 424.737 M248.199 424.784 C 228.845 427.646,227.860 458.192,246.992 462.246 C 260.360 465.079,270.746 456.999,270.724 443.782 C 270.703 430.689,261.388 422.833,248.199 424.784 M75.716 443.583 L 75.716 461.681 80.886 461.681 L 86.057 461.681 86.057 443.583 L 86.057 425.485 80.886 425.485 L 75.716 425.485 75.716 443.583 M277.008 443.583 L 277.008 461.681 282.179 461.681 L 287.350 461.681 287.350 443.583 L 287.350 425.485 282.179 425.485 L 277.008 425.485 277.008 443.583 M113.297 432.994 C 118.957 435.047,120.509 445.716,115.828 450.396 C 110.476 455.748,103.520 451.966,103.112 443.482 C 102.730 435.552,107.320 430.826,113.297 432.994 M255.534 433.399 C 260.036 435.727,261.870 444.706,259.010 450.416 C 255.532 457.359,245.861 455.681,244.104 447.830 C 241.866 437.827,248.326 429.671,255.534 433.399 M315.285 433.485 C 321.622 436.727,321.268 451.381,314.786 454.154 C 308.279 456.939,302.556 450.293,303.648 441.222 C 304.475 434.350,309.911 430.736,315.285 433.485 M198.956 447.670 C 198.513 453.416,195.245 456.324,190.113 455.538 C 186.897 455.046,185.780 453.966,185.780 451.350 C 185.780 448.318,187.816 447.002,194.063 445.997 C 196.060 445.676,197.964 445.255,198.293 445.063 C 198.623 444.871,198.958 444.708,199.039 444.702 C 199.120 444.696,199.083 446.032,198.956 447.670"/><path id="path1" fill="#fbfbfb" d="M17.359 4.903 C 11.080 7.052,6.493 11.806,4.652 18.073 C 3.748 21.151,3.748 379.218,4.652 382.297 C 6.540 388.724,11.645 393.829,18.073 395.717 C 21.151 396.622,379.218 396.622,382.297 395.717 C 388.724 393.829,393.829 388.724,395.717 382.297 C 396.622 379.218,396.622 21.151,395.717 18.073 C 393.829 11.645,388.724 6.540,382.297 4.652 C 380.472 4.116,363.984 4.064,200.025 4.072 L 19.760 4.082 17.359 4.903 M164.358 86.238 C 203.581 89.758,227.583 107.866,234.522 139.175 C 235.252 142.468,236.380 150.861,236.380 152.999 L 236.380 154.017 229.414 154.017 L 222.447 154.017 222.193 150.785 C 219.626 118.083,193.235 97.876,153.093 97.876 C 117.829 97.876,94.751 113.807,92.303 139.840 C 90.333 160.791,101.065 174.726,125.762 183.285 C 133.355 185.917,138.077 187.047,167.867 193.361 C 191.447 198.360,202.454 201.705,212.373 206.889 C 230.229 216.220,239.580 229.089,241.565 247.066 C 246.772 294.224,203.124 323.599,141.142 314.649 C 97.518 308.350,72.209 282.448,71.885 243.767 L 71.837 238.042 78.670 238.042 L 85.503 238.042 85.580 243.398 C 86.107 280.174,112.016 301.857,157.895 303.919 C 203.413 305.965,232.656 281.884,227.352 246.722 C 224.200 225.826,207.568 214.633,166.759 205.941 C 164.321 205.422,157.175 203.906,150.877 202.573 C 111.731 194.285,97.398 187.596,86.100 172.345 C 76.794 159.783,75.359 136.849,82.884 120.938 C 94.558 96.253,126.127 82.808,164.358 86.238 M320.591 287.165 L 320.591 310.988 296.214 310.988 L 271.837 310.988 271.837 287.412 C 271.837 274.444,271.948 263.724,272.084 263.589 C 272.219 263.453,283.189 263.343,296.460 263.343 L 320.591 263.343 320.591 287.165"/><path id="path2" fill="#3cac44" d="M272.207 287.165 L 272.207 310.988 296.399 310.988 L 320.591 310.988 320.591 287.165 L 320.591 263.343 296.399 263.343 L 272.207 263.343 272.207 287.165"/><path id="path3" fill="#b8beb8" d="M146.172 85.949 C 146.632 86.037,147.297 86.034,147.650 85.942 C 148.003 85.849,147.627 85.777,146.814 85.781 C 146.002 85.785,145.713 85.861,146.172 85.949 M157.438 85.953 C 158.000 86.038,158.831 86.036,159.285 85.948 C 159.739 85.860,159.280 85.791,158.264 85.794 C 157.248 85.796,156.877 85.868,157.438 85.953 M217.159 107.202 C 218.690 108.833,219.021 109.126,219.021 108.849 C 219.021 108.790,218.232 108.000,217.267 107.094 L 215.512 105.448 217.159 107.202 M78.032 144.414 C 78.032 145.328,78.104 145.702,78.192 145.245 C 78.280 144.788,78.280 144.040,78.192 143.583 C 78.104 143.126,78.032 143.500,78.032 144.414 M90.489 177.770 C 90.489 177.834,91.030 178.374,91.690 178.971 L 92.890 180.055 91.805 178.855 C 90.794 177.736,90.489 177.485,90.489 177.770 M75.254 238.133 C 77.133 238.200,80.208 238.200,82.087 238.133 C 83.966 238.066,82.428 238.011,78.670 238.011 C 74.912 238.011,73.375 238.066,75.254 238.133 M85.424 240.259 C 85.427 241.274,85.499 241.646,85.584 241.084 C 85.668 240.523,85.666 239.692,85.579 239.238 C 85.491 238.783,85.421 239.243,85.424 240.259 M85.429 245.245 C 85.429 246.362,85.498 246.819,85.583 246.260 C 85.668 245.702,85.668 244.788,85.583 244.229 C 85.498 243.670,85.429 244.127,85.429 245.245 M272.012 287.350 C 272.012 300.452,272.058 305.813,272.114 299.261 C 272.171 292.710,272.171 281.990,272.114 275.439 C 272.058 268.887,272.012 274.247,272.012 287.350 M225.650 294.275 L 224.377 295.660 225.762 294.387 C 227.051 293.203,227.317 292.890,227.035 292.890 C 226.973 292.890,226.350 293.513,225.650 294.275 M160.762 304.235 C 161.324 304.320,162.155 304.318,162.609 304.230 C 163.063 304.143,162.604 304.073,161.588 304.076 C 160.572 304.079,160.201 304.151,160.762 304.235 M166.113 304.231 C 166.570 304.319,167.318 304.319,167.775 304.231 C 168.232 304.143,167.858 304.071,166.944 304.071 C 166.030 304.071,165.656 304.143,166.113 304.231"/><path id="path4" fill="#9c9c9c" d="M148.938 85.952 C 149.497 86.037,150.411 86.037,150.970 85.952 C 151.528 85.868,151.071 85.799,149.954 85.799 C 148.837 85.799,148.380 85.868,148.938 85.952 M153.562 85.956 C 154.225 86.038,155.223 86.036,155.778 85.952 C 156.333 85.868,155.789 85.800,154.571 85.802 C 153.352 85.804,152.898 85.873,153.562 85.956 M150.600 97.777 C 151.464 97.855,152.876 97.855,153.740 97.777 C 154.603 97.700,153.897 97.636,152.170 97.636 C 150.443 97.636,149.737 97.700,150.600 97.777 M95.083 104.617 L 93.998 105.817 95.199 104.732 C 96.317 103.721,96.569 103.416,96.283 103.416 C 96.220 103.416,95.680 103.957,95.083 104.617 M236.097 152.909 C 236.097 153.620,236.173 153.910,236.266 153.555 C 236.359 153.199,236.359 152.618,236.266 152.262 C 236.173 151.907,236.097 152.198,236.097 152.909 M71.771 243.029 C 71.771 244.349,71.838 244.889,71.920 244.229 C 72.002 243.569,72.002 242.488,71.920 241.828 C 71.838 241.168,71.771 241.708,71.771 243.029 M241.662 251.524 C 241.662 252.641,241.731 253.098,241.816 252.539 C 241.900 251.981,241.900 251.066,241.816 250.508 C 241.731 249.949,241.662 250.406,241.662 251.524 M228.020 254.294 C 228.021 256.325,228.083 257.109,228.158 256.036 C 228.233 254.962,228.232 253.300,228.156 252.342 C 228.081 251.384,228.019 252.262,228.020 254.294 M241.666 256.879 C 241.668 258.098,241.737 258.552,241.819 257.888 C 241.901 257.224,241.899 256.227,241.815 255.672 C 241.731 255.117,241.664 255.660,241.666 256.879 M91.213 292.244 C 92.118 293.209,92.908 293.998,92.967 293.998 C 93.244 293.998,92.951 293.667,91.320 292.136 L 89.566 290.489 91.213 292.244 M157.064 304.235 C 157.622 304.320,158.536 304.320,159.095 304.235 C 159.654 304.150,159.197 304.081,158.079 304.081 C 156.962 304.081,156.505 304.150,157.064 304.235 M155.778 316.057 C 156.441 316.139,157.439 316.138,157.994 316.053 C 158.549 315.969,158.006 315.902,156.787 315.904 C 155.568 315.906,155.114 315.975,155.778 316.057 M169.991 316.044 C 170.346 316.137,170.928 316.137,171.283 316.044 C 171.639 315.951,171.348 315.875,170.637 315.875 C 169.926 315.875,169.635 315.951,169.991 316.044"/></g></svg>