<svg xmlns="http://www.w3.org/2000/svg" role="img" viewBox="-7.99 -7.99 415.74 183.24"><g id="svgg" fill-rule="evenodd" stroke="none"><path id="path0" fill="#121221" d="M0.000 83.717 L 0.000 167.434 88.321 167.434 L 176.643 167.434 176.643 163.418 L 176.643 159.403 171.997 159.358 L 167.350 159.314 167.350 83.717 L 167.350 8.121 171.997 8.076 L 176.643 8.032 176.643 4.016 L 176.643 0.000 88.321 0.000 L 0.000 0.000 0.000 83.717 M194.558 4.018 L 194.558 8.037 201.256 8.037 L 207.953 8.037 207.953 4.018 L 207.953 0.000 201.256 0.000 L 194.558 0.000 194.558 4.018 M225.869 4.018 L 225.869 8.037 232.566 8.037 L 239.263 8.037 239.263 4.018 L 239.263 0.000 232.566 0.000 L 225.869 0.000 225.869 4.018 M257.179 4.018 L 257.179 8.037 263.876 8.037 L 270.573 8.037 270.573 4.018 L 270.573 0.000 263.876 0.000 L 257.179 0.000 257.179 4.018 M288.489 4.018 L 288.489 8.037 295.186 8.037 L 301.884 8.037 301.884 4.018 L 301.884 0.000 295.186 0.000 L 288.489 0.000 288.489 4.018 M319.799 4.018 L 319.799 8.037 326.496 8.037 L 333.194 8.037 333.194 4.018 L 333.194 0.000 326.496 0.000 L 319.799 0.000 319.799 4.018 M351.109 4.018 L 351.109 8.037 357.723 8.037 L 364.337 8.037 364.337 4.018 L 364.337 0.000 357.723 0.000 L 351.109 0.000 351.109 4.018 M382.419 4.016 L 382.419 8.032 387.149 8.076 L 391.879 8.121 391.924 12.851 L 391.968 17.581 395.984 17.581 L 400.000 17.581 400.000 8.790 L 400.000 0.000 391.210 0.000 L 382.419 0.000 382.419 4.016 M391.963 40.017 L 391.963 46.714 395.982 46.714 L 400.000 46.714 400.000 40.017 L 400.000 33.319 395.982 33.319 L 391.963 33.319 391.963 40.017 M141.920 58.341 C 142.013 58.584,141.842 58.924,140.024 62.118 C 139.473 63.085,138.833 64.215,138.601 64.630 C 138.370 65.044,138.019 65.666,137.822 66.011 C 137.625 66.356,137.305 66.921,137.111 67.267 C 136.917 67.612,136.681 67.989,136.588 68.104 C 136.452 68.271,128.233 68.305,96.128 68.272 L 55.839 68.229 55.795 63.376 C 55.770 60.706,55.787 58.427,55.831 58.311 C 55.961 57.973,141.790 58.003,141.920 58.341 M236.016 61.378 C 235.813 61.907,235.903 69.072,236.116 69.284 C 236.402 69.570,245.139 69.570,245.425 69.284 C 245.570 69.139,245.626 67.975,245.626 65.098 L 245.626 61.113 240.872 61.113 C 236.691 61.113,236.106 61.145,236.016 61.378 M391.963 69.150 L 391.963 75.848 395.982 75.848 L 400.000 75.848 400.000 69.150 L 400.000 62.453 395.982 62.453 L 391.963 62.453 391.963 69.150 M212.976 72.332 C 212.746 72.405,212.299 72.473,211.983 72.482 C 211.668 72.491,211.159 72.574,210.853 72.666 C 210.547 72.758,210.015 72.914,209.669 73.012 C 208.359 73.385,206.625 74.230,205.634 74.980 C 203.187 76.831,202.070 79.198,202.069 82.528 C 202.068 88.232,205.244 91.090,213.060 92.417 C 214.180 92.607,214.574 92.672,217.246 93.102 C 219.577 93.477,222.185 94.195,222.185 94.461 C 222.185 94.538,222.294 94.600,222.428 94.600 C 223.538 94.600,224.010 97.398,223.124 98.731 C 222.663 99.425,221.557 100.293,221.134 100.293 C 221.012 100.293,220.841 100.357,220.753 100.436 C 220.364 100.784,217.684 101.000,216.199 100.802 C 212.584 100.318,211.019 99.030,210.459 96.075 C 210.234 94.892,210.412 94.932,205.609 94.978 L 201.339 95.019 201.388 96.340 C 201.535 100.308,204.939 104.242,209.293 105.476 C 209.707 105.594,210.234 105.748,210.465 105.820 C 215.436 107.365,222.865 106.749,227.283 104.425 C 232.926 101.457,234.501 93.956,230.382 89.666 C 229.301 88.541,226.764 87.113,225.366 86.843 C 225.136 86.798,224.458 86.641,223.859 86.494 C 221.761 85.978,221.339 85.894,220.846 85.894 C 220.572 85.894,220.027 85.822,219.634 85.734 C 219.241 85.646,218.280 85.491,217.497 85.390 C 212.119 84.696,210.393 83.398,211.152 80.620 C 211.570 79.087,212.809 78.204,214.987 77.887 C 218.643 77.354,221.506 78.779,222.328 81.540 C 222.733 82.902,222.333 82.796,227.059 82.796 L 231.310 82.796 231.255 81.875 C 231.026 78.099,227.601 74.192,223.608 73.154 C 222.583 72.888,220.899 72.518,219.915 72.344 C 218.756 72.139,213.607 72.129,212.976 72.332 M266.220 72.361 C 265.898 72.450,265.333 72.606,264.964 72.707 C 264.596 72.809,264.223 72.954,264.136 73.030 C 264.048 73.106,263.874 73.169,263.750 73.169 C 263.324 73.169,261.531 74.521,260.366 75.721 C 258.993 77.136,258.902 77.076,259.134 74.910 C 259.371 72.698,259.669 72.834,254.595 72.834 C 251.270 72.834,250.315 72.882,250.170 73.057 C 250.038 73.216,249.988 77.887,249.996 89.475 L 250.007 105.670 250.423 105.828 C 250.919 106.016,258.791 106.019,259.272 105.831 C 259.601 105.702,259.607 105.545,259.607 96.090 C 259.607 88.586,259.655 86.315,259.829 85.726 C 259.951 85.312,260.133 84.671,260.234 84.303 C 261.494 79.663,265.860 77.527,268.481 80.269 C 268.980 80.792,269.390 81.729,269.714 83.092 C 269.951 84.090,269.964 95.875,269.733 101.465 C 269.572 105.359,269.574 105.403,269.923 105.693 C 270.329 106.030,278.015 106.140,278.854 105.821 L 279.288 105.656 279.242 96.152 C 279.197 86.761,279.201 86.630,279.572 85.224 C 280.835 80.444,283.938 77.992,286.893 79.438 C 287.763 79.863,288.824 81.013,288.824 81.531 C 288.824 81.631,288.892 81.843,288.976 82.003 C 289.499 82.998,289.544 84.224,289.433 94.219 C 289.372 99.724,289.277 104.465,289.223 104.755 C 289.008 105.915,289.279 105.986,293.920 105.986 C 296.173 105.986,298.204 105.912,298.440 105.822 L 298.870 105.659 298.870 95.292 C 298.870 82.308,298.651 79.740,297.334 77.290 C 296.605 75.933,296.407 75.649,295.521 74.692 C 295.032 74.163,293.617 73.169,293.354 73.169 C 293.254 73.169,293.042 73.102,292.882 73.021 C 291.693 72.416,290.345 72.164,288.299 72.164 C 283.965 72.164,281.526 73.518,278.808 77.434 C 278.183 78.334,278.191 78.337,277.421 76.885 C 275.743 73.717,272.839 72.162,268.648 72.187 C 267.635 72.193,266.542 72.271,266.220 72.361 M236.205 73.127 C 235.968 73.391,235.960 74.213,236.122 81.392 C 236.250 87.070,236.250 91.671,236.121 97.382 C 235.966 104.336,235.974 105.433,236.185 105.651 C 236.479 105.955,244.414 106.120,245.156 105.838 L 245.588 105.674 245.589 89.463 C 245.590 78.716,245.533 73.182,245.420 73.043 C 245.118 72.672,236.545 72.750,236.205 73.127 M320.546 73.011 C 320.448 73.171,320.566 73.605,320.977 74.592 C 321.054 74.776,321.277 75.416,321.473 76.015 C 321.670 76.614,321.894 77.254,321.972 77.438 C 322.049 77.622,322.382 78.564,322.711 79.531 C 323.039 80.498,323.728 82.495,324.240 83.968 C 324.752 85.442,325.358 87.212,325.587 87.903 C 325.815 88.594,326.075 89.289,326.165 89.449 C 326.255 89.609,326.329 89.855,326.329 89.996 C 326.329 90.136,326.401 90.382,326.489 90.542 C 326.576 90.702,326.807 91.323,327.002 91.921 C 327.196 92.520,327.423 93.160,327.505 93.344 C 327.587 93.529,327.842 94.244,328.071 94.935 C 328.300 95.626,328.986 97.622,329.597 99.372 C 330.207 101.122,330.921 103.181,331.183 103.948 C 331.941 106.166,331.377 105.986,337.547 105.986 C 343.535 105.986,343.189 106.063,343.639 104.634 C 343.768 104.226,344.263 102.800,344.740 101.465 C 345.217 100.130,345.719 98.698,345.855 98.284 C 345.992 97.869,346.170 97.380,346.251 97.195 C 346.332 97.011,346.495 96.559,346.612 96.191 C 346.729 95.823,346.884 95.450,346.958 95.362 C 347.031 95.275,347.091 95.045,347.091 94.851 C 347.091 94.658,347.151 94.428,347.224 94.341 C 347.297 94.253,347.453 93.880,347.570 93.512 C 347.687 93.144,347.848 92.692,347.928 92.507 C 348.008 92.323,348.234 91.683,348.430 91.084 C 348.627 90.486,348.853 89.845,348.934 89.661 C 349.015 89.477,349.394 88.422,349.776 87.317 C 350.479 85.285,351.392 82.667,352.199 80.368 C 352.442 79.678,352.705 78.962,352.785 78.778 C 352.864 78.594,353.090 77.953,353.286 77.355 C 353.482 76.756,353.708 76.116,353.788 75.931 C 353.868 75.747,354.029 75.295,354.146 74.927 C 354.263 74.558,354.419 74.185,354.492 74.098 C 354.565 74.010,354.625 73.689,354.625 73.383 L 354.625 72.828 350.411 72.873 L 346.197 72.918 345.903 73.420 C 345.741 73.696,345.603 74.055,345.596 74.217 C 345.589 74.380,345.516 74.644,345.434 74.803 C 345.351 74.963,345.050 75.848,344.764 76.769 C 344.166 78.695,343.074 82.159,341.889 85.894 C 341.436 87.321,340.754 89.468,340.375 90.666 C 339.995 91.863,339.627 92.993,339.558 93.177 C 339.199 94.129,338.384 96.780,338.384 96.993 C 338.384 97.262,337.925 97.713,337.789 97.577 C 337.743 97.531,337.513 96.823,337.278 96.005 C 337.043 95.186,336.700 93.989,336.514 93.344 C 336.329 92.700,336.109 91.928,336.025 91.628 C 335.836 90.954,335.587 90.082,335.380 89.368 C 335.293 89.069,335.079 88.334,334.905 87.735 C 334.730 87.137,334.545 86.534,334.492 86.396 C 334.439 86.258,334.346 85.956,334.286 85.726 C 334.143 85.184,333.746 83.777,333.352 82.419 C 333.265 82.120,333.123 81.630,333.036 81.331 C 332.949 81.032,332.805 80.523,332.715 80.201 C 331.527 75.920,330.661 73.233,330.411 73.049 C 330.028 72.770,320.718 72.734,320.546 73.011 M79.364 86.480 L 79.364 91.419 67.560 91.419 L 55.756 91.419 55.756 86.480 L 55.756 81.540 67.560 81.540 L 79.364 81.540 79.364 86.480 M96.241 82.252 C 96.813 83.359,97.666 84.914,98.056 85.559 C 98.251 85.881,98.597 86.484,98.825 86.898 C 99.054 87.313,99.413 87.953,99.623 88.321 C 99.833 88.690,100.195 89.330,100.426 89.745 C 100.658 90.159,101.464 91.591,102.219 92.926 C 102.973 94.261,103.779 95.693,104.011 96.107 C 104.242 96.522,104.604 97.162,104.814 97.530 C 105.274 98.336,105.834 99.344,106.419 100.419 C 107.183 101.822,107.160 101.828,108.214 99.921 C 108.737 98.975,109.399 97.786,109.684 97.279 C 109.969 96.773,110.365 96.057,110.564 95.689 C 110.763 95.320,110.963 94.981,111.009 94.935 C 111.055 94.889,111.249 94.550,111.440 94.182 C 111.889 93.316,112.243 92.696,112.348 92.591 C 112.394 92.545,112.591 92.206,112.785 91.838 C 113.316 90.828,114.166 89.287,114.861 88.070 C 115.204 87.472,115.672 86.643,115.901 86.229 C 116.288 85.532,116.497 85.162,117.348 83.675 C 117.519 83.376,117.850 82.792,118.085 82.378 L 118.510 81.624 124.083 81.580 C 130.148 81.532,130.120 81.527,129.581 82.480 C 129.378 82.838,129.023 83.470,128.793 83.884 C 128.563 84.299,127.757 85.730,127.001 87.066 C 126.246 88.401,125.439 89.833,125.207 90.247 C 124.804 90.967,124.504 91.495,123.709 92.884 C 123.511 93.229,123.125 93.926,122.850 94.433 C 122.575 94.939,122.217 95.580,122.054 95.856 C 121.695 96.465,121.265 97.238,120.450 98.739 C 120.111 99.364,119.778 99.950,119.709 100.042 C 119.553 100.250,118.941 101.330,118.476 102.219 C 118.283 102.587,118.087 102.926,118.041 102.972 C 117.995 103.018,117.799 103.357,117.606 103.725 C 117.413 104.094,117.093 104.678,116.895 105.023 C 116.026 106.536,115.786 106.960,115.306 107.828 C 115.027 108.334,114.247 109.719,113.573 110.906 C 112.899 112.092,112.348 113.128,112.348 113.208 C 112.348 113.288,112.291 113.353,112.220 113.353 C 112.150 113.353,111.962 113.654,111.802 114.023 L 111.512 114.692 107.263 114.692 C 104.065 114.692,102.971 114.641,102.843 114.483 C 102.663 114.262,102.367 113.744,101.363 111.893 C 101.024 111.269,100.687 110.681,100.615 110.586 C 100.542 110.492,100.263 110.002,99.995 109.498 C 99.727 108.994,99.345 108.298,99.147 107.953 C 98.799 107.347,98.519 106.859,97.758 105.525 C 97.561 105.180,97.210 104.558,96.978 104.144 C 96.747 103.730,96.090 102.562,95.519 101.549 C 93.929 98.727,93.574 98.088,93.193 97.363 C 93.000 96.995,92.786 96.668,92.717 96.637 C 92.648 96.607,92.591 96.516,92.591 96.435 C 92.591 96.355,92.353 95.890,92.063 95.403 C 91.772 94.915,91.331 94.140,91.082 93.679 C 90.832 93.219,90.328 92.315,89.960 91.670 C 89.593 91.026,89.103 90.159,88.872 89.745 C 88.641 89.330,88.280 88.690,88.068 88.321 C 87.857 87.953,87.526 87.350,87.333 86.982 C 87.140 86.614,86.944 86.275,86.898 86.229 C 86.852 86.183,86.657 85.843,86.464 85.475 C 86.271 85.107,85.950 84.523,85.752 84.177 C 85.554 83.832,85.234 83.267,85.041 82.922 C 84.848 82.576,84.622 82.222,84.538 82.135 C 84.001 81.571,84.294 81.540,90.130 81.540 L 95.873 81.540 96.241 82.252 M303.492 84.484 C 303.436 84.630,303.391 85.980,303.391 87.484 C 303.391 88.989,303.436 90.339,303.492 90.484 C 303.626 90.832,319.755 90.894,320.100 90.548 C 320.241 90.408,320.301 89.488,320.301 87.484 C 320.301 85.481,320.241 84.561,320.100 84.420 C 319.755 84.075,303.626 84.137,303.492 84.484 M391.963 98.368 L 391.963 104.981 395.982 104.981 L 400.000 104.981 400.000 98.368 L 400.000 91.754 395.982 91.754 L 391.963 91.754 391.963 98.368 M79.324 109.711 L 79.369 114.692 52.409 114.692 C 30.953 114.692,25.450 114.650,25.450 114.483 C 25.451 114.368,25.700 113.859,26.005 113.353 C 26.310 112.846,26.789 112.018,27.069 111.511 C 27.348 111.005,27.739 110.308,27.937 109.962 C 28.135 109.617,28.447 109.071,28.631 108.748 C 28.815 108.426,29.128 107.880,29.326 107.535 C 29.523 107.189,29.911 106.492,30.187 105.986 C 30.463 105.479,30.763 104.970,30.853 104.855 C 30.984 104.688,35.967 104.654,55.149 104.688 L 79.280 104.730 79.324 109.711 M391.963 127.501 L 391.963 134.115 395.982 134.115 L 400.000 134.115 400.000 127.501 L 400.000 120.887 395.982 120.887 L 391.963 120.887 391.963 127.501 M391.924 154.584 L 391.879 159.314 387.149 159.358 L 382.419 159.402 382.419 163.418 L 382.419 167.434 391.210 167.434 L 400.000 167.434 400.000 158.644 L 400.000 149.853 395.984 149.853 L 391.968 149.853 391.924 154.584 M194.558 163.416 L 194.558 167.434 201.256 167.434 L 207.953 167.434 207.953 163.416 L 207.953 159.397 201.256 159.397 L 194.558 159.397 194.558 163.416 M225.869 163.416 L 225.869 167.434 232.566 167.434 L 239.263 167.434 239.263 163.416 L 239.263 159.397 232.566 159.397 L 225.869 159.397 225.869 163.416 M257.179 163.416 L 257.179 167.434 263.876 167.434 L 270.573 167.434 270.573 163.416 L 270.573 159.397 263.876 159.397 L 257.179 159.397 257.179 163.416 M288.489 163.416 L 288.489 167.434 295.186 167.434 L 301.884 167.434 301.884 163.416 L 301.884 159.397 295.186 159.397 L 288.489 159.397 288.489 163.416 M319.799 163.416 L 319.799 167.434 326.496 167.434 L 333.194 167.434 333.194 163.416 L 333.194 159.397 326.496 159.397 L 319.799 159.397 319.799 163.416 M351.109 163.416 L 351.109 167.434 357.723 167.434 L 364.337 167.434 364.337 163.416 L 364.337 159.397 357.723 159.397 L 351.109 159.397 351.109 163.416"/><path id="path1" fill="#fbfbfb" d="M176.939 4.060 L 176.894 8.121 172.290 8.204 L 167.685 8.288 167.643 83.756 L 167.601 159.225 172.248 159.269 L 176.894 159.314 176.939 163.374 L 176.984 167.434 185.687 167.434 L 194.391 167.434 194.391 163.330 L 194.391 159.226 201.298 159.270 L 208.204 159.314 208.249 163.374 L 208.294 167.434 216.998 167.434 L 225.701 167.434 225.701 163.330 L 225.701 159.226 232.608 159.270 L 239.514 159.314 239.559 163.374 L 239.604 167.434 248.308 167.434 L 257.011 167.434 257.011 163.330 L 257.011 159.226 263.918 159.270 L 270.825 159.314 270.869 163.374 L 270.914 167.434 279.618 167.434 L 288.321 167.434 288.321 163.330 L 288.321 159.226 295.228 159.270 L 302.135 159.314 302.180 163.374 L 302.224 167.434 310.928 167.434 L 319.632 167.434 319.632 163.330 L 319.632 159.226 326.538 159.270 L 333.445 159.314 333.490 163.374 L 333.535 167.434 342.238 167.434 L 350.942 167.434 350.942 163.330 L 350.942 159.226 357.848 159.270 L 364.755 159.314 364.800 163.374 L 364.845 167.434 373.548 167.434 L 382.252 167.434 382.252 163.332 L 382.252 159.230 387.024 159.230 L 391.796 159.230 391.796 154.458 L 391.796 149.686 395.898 149.686 L 400.000 149.686 400.000 141.984 L 400.000 134.282 395.896 134.282 L 391.792 134.282 391.836 127.375 L 391.879 120.469 395.940 120.424 L 400.000 120.379 400.000 112.764 L 400.000 105.149 395.896 105.149 L 391.792 105.149 391.836 98.242 L 391.879 91.335 395.940 91.290 L 400.000 91.246 400.000 83.717 L 400.000 76.188 395.940 76.144 L 391.879 76.099 391.836 69.192 L 391.792 62.285 395.896 62.285 L 400.000 62.285 400.000 54.670 L 400.000 47.055 395.940 47.010 L 391.879 46.965 391.836 40.059 L 391.792 33.152 395.896 33.152 L 400.000 33.152 400.000 25.450 L 400.000 17.748 395.898 17.748 L 391.796 17.748 391.796 12.976 L 391.796 8.204 387.024 8.204 L 382.252 8.204 382.252 4.102 L 382.252 0.000 373.548 0.000 L 364.845 0.000 364.800 4.060 L 364.755 8.121 357.848 8.164 L 350.942 8.208 350.942 4.104 L 350.942 0.000 342.238 0.000 L 333.535 0.000 333.490 4.060 L 333.445 8.121 326.538 8.164 L 319.632 8.208 319.632 4.104 L 319.632 0.000 310.928 0.000 L 302.224 0.000 302.180 4.060 L 302.135 8.121 295.228 8.164 L 288.321 8.208 288.321 4.104 L 288.321 0.000 279.618 0.000 L 270.914 0.000 270.869 4.060 L 270.825 8.121 263.918 8.164 L 257.011 8.208 257.011 4.104 L 257.011 0.000 248.308 0.000 L 239.604 0.000 239.559 4.060 L 239.514 8.121 232.608 8.164 L 225.701 8.208 225.701 4.104 L 225.701 0.000 216.998 0.000 L 208.294 0.000 208.249 4.060 L 208.204 8.121 201.298 8.164 L 194.391 8.208 194.391 4.104 L 194.391 0.000 185.687 0.000 L 176.984 0.000 176.939 4.060 M56.132 58.545 C 55.781 58.687,55.834 67.741,56.188 67.877 C 56.570 68.023,136.175 67.997,136.375 67.850 C 136.467 67.782,136.644 67.547,136.768 67.327 C 137.111 66.718,137.592 65.870,137.989 65.174 C 138.187 64.828,138.515 64.244,138.719 63.876 C 139.175 63.055,139.681 62.152,140.782 60.200 C 141.246 59.376,141.590 58.641,141.544 58.568 C 141.456 58.425,56.485 58.403,56.132 58.545 M245.487 60.888 C 245.924 61.283,245.962 69.384,245.528 69.551 C 244.995 69.756,236.161 69.664,235.948 69.452 C 235.522 69.025,235.678 61.181,236.119 60.872 C 236.694 60.469,245.040 60.484,245.487 60.888 M220.722 72.173 C 222.447 72.511,223.382 72.759,224.445 73.162 C 225.123 73.418,226.847 74.313,227.041 74.509 C 227.087 74.556,227.388 74.792,227.710 75.034 C 228.634 75.729,228.952 76.042,229.611 76.910 C 230.244 77.744,231.059 79.358,231.059 79.777 C 231.059 79.907,231.124 80.054,231.204 80.103 C 231.284 80.153,231.397 80.515,231.454 80.909 C 231.512 81.302,231.606 81.873,231.664 82.177 C 231.852 83.162,231.667 83.203,227.025 83.209 C 222.478 83.215,222.509 83.222,222.268 82.126 C 221.187 77.193,212.418 76.294,211.307 81.002 C 210.744 83.389,212.391 84.413,218.083 85.215 C 220.927 85.615,221.787 85.754,222.372 85.905 C 222.705 85.991,223.209 86.061,223.492 86.061 C 223.775 86.061,224.054 86.136,224.111 86.229 C 224.167 86.321,224.431 86.396,224.697 86.396 C 224.962 86.396,225.226 86.471,225.283 86.563 C 225.339 86.656,225.533 86.731,225.713 86.731 C 225.893 86.731,226.397 86.890,226.833 87.085 C 227.270 87.280,227.868 87.546,228.164 87.676 C 229.345 88.195,231.172 89.851,231.601 90.791 C 231.716 91.044,231.867 91.252,231.937 91.252 C 232.007 91.252,232.064 91.387,232.064 91.553 C 232.064 91.719,232.126 91.926,232.202 92.013 C 232.982 92.911,233.173 96.536,232.550 98.619 C 231.680 101.526,227.595 105.506,225.502 105.486 C 225.346 105.485,225.178 105.550,225.127 105.631 C 225.077 105.712,224.828 105.828,224.573 105.890 C 224.319 105.951,223.809 106.078,223.441 106.172 C 221.713 106.615,220.666 106.705,217.162 106.712 C 211.634 106.723,209.852 106.323,205.799 104.160 C 204.379 103.402,201.591 99.833,201.591 98.772 C 201.591 98.607,201.523 98.429,201.441 98.378 C 201.296 98.289,201.205 97.815,200.987 96.004 C 200.819 94.616,200.871 94.600,205.741 94.600 C 210.530 94.600,210.799 94.695,210.799 96.385 C 210.799 96.951,211.416 98.184,212.031 98.850 C 212.516 99.375,213.188 99.751,214.615 100.296 C 215.300 100.558,219.961 100.585,220.435 100.330 C 220.615 100.233,221.045 100.031,221.390 99.880 C 223.430 98.993,224.099 95.960,222.477 94.947 C 221.520 94.349,220.964 94.098,220.599 94.098 C 220.377 94.098,220.154 94.031,220.103 93.948 C 220.052 93.866,219.690 93.751,219.298 93.693 C 218.418 93.563,216.924 93.330,215.488 93.099 C 212.636 92.640,211.337 92.389,210.213 92.082 C 209.845 91.981,209.355 91.858,209.125 91.810 C 206.565 91.272,203.239 88.607,202.473 86.480 C 202.373 86.203,202.233 85.827,202.161 85.643 C 200.472 81.320,203.021 75.534,207.493 73.541 C 209.387 72.697,211.532 72.170,214.064 71.926 C 215.179 71.819,219.786 71.990,220.722 72.173 M272.332 72.375 C 274.878 73.152,276.598 74.633,277.869 77.145 L 278.237 77.870 278.945 76.817 C 281.390 73.184,284.812 71.565,289.326 71.907 C 294.425 72.293,297.459 75.052,298.629 80.368 C 299.050 82.283,299.309 105.422,298.915 105.860 C 298.554 106.260,289.629 106.313,289.234 105.918 C 289.036 105.719,289.005 103.896,289.037 94.323 C 289.078 82.189,289.076 82.169,288.254 80.954 C 286.651 78.586,283.411 78.791,281.627 81.373 C 281.404 81.695,281.177 81.997,281.123 82.043 C 280.946 82.194,280.149 84.115,279.839 85.140 C 279.562 86.057,279.534 86.992,279.516 95.894 C 279.500 103.489,279.449 105.699,279.284 105.898 C 278.980 106.263,270.009 106.282,269.645 105.918 C 269.447 105.720,269.415 103.862,269.447 94.123 C 269.477 85.058,269.440 82.518,269.276 82.353 C 269.161 82.238,269.067 82.006,269.067 81.838 C 269.067 81.318,268.206 80.201,267.474 79.773 C 265.239 78.463,262.360 79.903,261.004 83.008 C 259.895 85.551,259.850 86.081,259.868 96.409 C 259.880 103.389,259.834 105.728,259.683 105.911 C 259.348 106.315,250.062 106.267,249.894 105.860 C 249.694 105.378,249.810 73.121,250.012 72.877 C 250.145 72.717,251.272 72.666,254.682 72.666 C 259.969 72.666,259.608 72.507,259.489 74.785 C 259.402 76.439,259.364 76.419,260.434 75.284 C 263.285 72.259,268.095 71.083,272.332 72.375 M245.707 72.830 C 245.911 73.159,245.816 105.673,245.610 105.921 C 245.284 106.314,236.392 106.258,236.048 105.860 C 235.766 105.535,235.686 73.308,235.966 72.876 C 236.136 72.613,245.546 72.569,245.707 72.830 M330.722 72.959 C 330.964 73.234,331.341 74.419,332.534 78.652 C 332.793 79.574,333.023 80.376,333.217 81.038 C 333.312 81.360,333.429 81.832,333.478 82.087 C 333.527 82.341,333.634 82.590,333.715 82.641 C 333.797 82.691,333.864 82.949,333.864 83.215 C 333.864 83.480,333.939 83.744,334.031 83.801 C 334.123 83.858,334.198 84.089,334.198 84.315 C 334.198 84.541,334.266 84.857,334.350 85.017 C 334.433 85.177,334.592 85.647,334.704 86.061 C 334.816 86.476,334.965 87.003,335.036 87.233 C 335.106 87.463,335.259 87.991,335.375 88.405 C 335.491 88.820,335.680 89.460,335.794 89.828 C 335.909 90.197,336.399 91.930,336.884 93.679 C 337.955 97.543,337.898 97.471,338.460 95.657 C 338.711 94.846,338.985 94.051,339.069 93.891 C 339.153 93.731,339.221 93.453,339.221 93.273 C 339.221 93.093,339.297 92.899,339.389 92.842 C 339.481 92.785,339.556 92.591,339.556 92.411 C 339.556 92.231,339.624 91.953,339.707 91.793 C 339.789 91.634,340.023 90.938,340.226 90.247 C 340.429 89.556,340.663 88.860,340.746 88.700 C 340.828 88.541,340.896 88.295,340.896 88.154 C 340.896 88.013,340.963 87.768,341.046 87.608 C 341.129 87.448,341.355 86.789,341.549 86.145 C 341.971 84.745,343.260 80.680,344.510 76.806 C 345.009 75.261,345.416 73.917,345.416 73.818 C 345.416 73.720,345.572 73.420,345.763 73.153 L 346.109 72.666 350.456 72.666 C 354.186 72.666,354.817 72.702,354.901 72.920 C 354.988 73.148,354.225 75.852,353.957 76.266 C 353.897 76.358,353.746 76.773,353.622 77.187 C 353.497 77.602,353.333 78.012,353.257 78.100 C 353.181 78.187,353.118 78.395,353.118 78.562 C 353.118 78.729,353.043 79.016,352.951 79.199 C 352.859 79.382,352.708 79.681,352.616 79.864 C 352.524 80.047,352.449 80.311,352.449 80.452 C 352.449 80.593,352.377 80.839,352.289 80.999 C 352.201 81.158,351.970 81.779,351.776 82.378 C 351.581 82.976,351.356 83.617,351.274 83.801 C 351.193 83.985,351.015 84.475,350.879 84.889 C 350.743 85.303,350.208 86.848,349.690 88.321 C 349.172 89.795,348.635 91.339,348.497 91.754 C 348.359 92.168,348.179 92.658,348.098 92.842 C 348.017 93.026,347.854 93.478,347.737 93.847 C 347.620 94.215,347.465 94.588,347.392 94.676 C 347.318 94.763,347.258 94.971,347.258 95.138 C 347.258 95.305,347.183 95.592,347.091 95.775 C 346.999 95.957,346.848 96.257,346.756 96.440 C 346.664 96.623,346.589 96.920,346.589 97.100 C 346.589 97.280,346.528 97.464,346.454 97.510 C 346.380 97.555,346.215 97.979,346.086 98.451 C 345.958 98.923,345.792 99.347,345.718 99.393 C 345.644 99.438,345.584 99.644,345.584 99.851 C 345.584 100.057,345.522 100.298,345.446 100.385 C 345.370 100.473,345.205 100.883,345.081 101.298 C 344.956 101.712,344.808 102.126,344.752 102.219 C 344.695 102.311,344.553 102.687,344.435 103.056 C 344.010 104.383,343.516 105.573,343.271 105.860 C 342.928 106.262,332.030 106.315,331.700 105.917 C 331.523 105.705,330.352 102.457,329.248 99.121 C 329.020 98.430,328.759 97.734,328.669 97.574 C 328.579 97.415,328.506 97.147,328.506 96.980 C 328.506 96.813,328.444 96.605,328.368 96.517 C 328.293 96.430,328.053 95.793,327.836 95.103 C 327.619 94.412,327.379 93.775,327.303 93.688 C 327.228 93.600,327.166 93.360,327.166 93.153 C 327.166 92.947,327.091 92.732,326.999 92.675 C 326.907 92.618,326.831 92.424,326.831 92.244 C 326.831 92.064,326.756 91.767,326.664 91.584 C 326.572 91.401,326.421 91.102,326.329 90.919 C 326.237 90.736,326.162 90.471,326.162 90.331 C 326.162 90.190,326.089 89.944,326.000 89.784 C 325.849 89.514,324.370 85.252,323.632 82.964 C 323.454 82.411,323.234 81.828,323.144 81.668 C 323.054 81.508,322.980 81.262,322.980 81.122 C 322.980 80.981,322.909 80.735,322.821 80.575 C 322.733 80.415,322.502 79.795,322.308 79.196 C 322.113 78.598,321.888 77.957,321.808 77.773 C 321.728 77.589,321.504 76.949,321.309 76.350 C 321.114 75.751,320.884 75.131,320.796 74.971 C 320.708 74.811,320.636 74.533,320.636 74.353 C 320.636 74.173,320.561 73.979,320.469 73.922 C 320.282 73.806,320.240 72.951,320.413 72.778 C 320.704 72.487,330.456 72.658,330.722 72.959 M55.923 86.480 L 55.923 91.252 67.560 91.252 L 79.196 91.252 79.196 86.480 L 79.196 81.708 67.560 81.708 L 55.923 81.708 55.923 86.480 M84.837 82.001 C 84.894 82.162,84.997 82.369,85.065 82.461 C 85.133 82.553,85.347 82.911,85.541 83.257 C 85.735 83.602,86.055 84.167,86.252 84.512 C 86.449 84.858,86.800 85.479,87.032 85.894 C 87.263 86.308,87.920 87.476,88.491 88.489 C 89.062 89.502,89.717 90.670,89.948 91.084 C 90.178 91.499,90.540 92.139,90.751 92.507 C 90.963 92.876,91.294 93.478,91.487 93.847 C 91.680 94.215,91.875 94.554,91.922 94.600 C 91.968 94.646,92.118 94.910,92.256 95.186 C 92.394 95.463,92.545 95.726,92.591 95.772 C 92.637 95.818,92.833 96.157,93.026 96.526 C 93.219 96.894,93.552 97.497,93.766 97.865 C 93.979 98.234,94.430 99.025,94.767 99.623 C 95.104 100.222,95.741 101.352,96.184 102.135 C 96.626 102.918,97.192 103.935,97.442 104.395 C 97.692 104.856,98.060 105.515,98.258 105.860 C 98.927 107.024,99.334 107.740,99.757 108.497 C 100.197 109.284,102.704 113.753,102.950 114.190 C 103.070 114.403,103.719 114.441,107.164 114.441 L 111.236 114.441 111.734 113.604 C 112.008 113.144,112.435 112.390,112.683 111.930 C 112.931 111.469,113.307 110.791,113.519 110.423 C 113.731 110.054,114.131 109.339,114.408 108.832 C 114.684 108.326,115.314 107.208,115.806 106.349 C 116.299 105.490,116.702 104.748,116.702 104.701 C 116.702 104.653,116.841 104.414,117.011 104.170 C 117.181 103.925,117.547 103.311,117.824 102.805 C 118.449 101.661,118.903 100.850,120.636 97.781 C 121.390 96.446,122.197 95.015,122.428 94.600 C 122.660 94.186,123.011 93.564,123.208 93.219 C 123.969 91.885,124.249 91.397,124.597 90.791 C 124.795 90.446,125.160 89.787,125.408 89.326 C 125.656 88.866,126.096 88.090,126.387 87.603 C 126.677 87.115,126.915 86.687,126.915 86.651 C 126.915 86.616,127.480 85.592,128.171 84.376 C 128.861 83.160,129.427 82.100,129.427 82.020 C 129.427 81.940,127.024 81.875,124.088 81.875 L 118.749 81.875 118.449 82.333 C 118.284 82.585,117.948 83.169,117.702 83.631 C 117.457 84.093,117.018 84.869,116.727 85.357 C 116.437 85.844,116.199 86.315,116.199 86.403 C 116.199 86.491,116.124 86.563,116.032 86.563 C 115.940 86.563,115.864 86.629,115.864 86.710 C 115.864 86.835,114.713 88.966,113.366 91.335 C 113.156 91.704,112.823 92.306,112.625 92.675 C 112.427 93.043,112.227 93.382,112.181 93.428 C 112.135 93.474,111.939 93.813,111.746 94.182 C 111.553 94.550,111.233 95.134,111.035 95.479 C 110.397 96.590,110.012 97.265,109.652 97.907 C 106.938 102.744,107.225 102.518,106.199 100.628 C 105.924 100.121,105.500 99.349,105.257 98.912 C 105.013 98.474,104.625 97.777,104.395 97.363 C 103.656 96.033,103.101 95.052,102.274 93.613 C 101.829 92.841,101.465 92.185,101.465 92.156 C 101.465 92.127,101.227 91.705,100.937 91.217 C 100.647 90.730,100.206 89.954,99.958 89.494 C 99.710 89.033,99.345 88.374,99.147 88.028 C 98.518 86.933,98.127 86.247,97.764 85.601 C 97.570 85.255,96.997 84.238,96.491 83.340 L 95.570 81.708 90.151 81.708 C 85.062 81.708,84.739 81.726,84.837 82.001 M320.042 84.079 L 320.469 84.273 320.469 87.493 C 320.469 90.275,320.433 90.727,320.204 90.815 C 319.393 91.126,303.402 90.917,303.229 90.593 C 303.129 90.406,303.056 89.071,303.056 87.444 C 303.056 84.573,303.125 84.215,303.725 84.001 C 304.267 83.807,319.607 83.880,320.042 84.079 M31.014 105.190 C 30.920 105.306,30.685 105.682,30.491 106.028 C 30.297 106.373,29.976 106.938,29.779 107.283 C 29.581 107.629,29.193 108.326,28.917 108.832 C 28.641 109.339,28.359 109.828,28.290 109.920 C 28.158 110.097,27.745 110.819,26.902 112.348 C 26.623 112.855,26.258 113.495,26.090 113.771 C 25.923 114.048,25.786 114.330,25.785 114.399 C 25.785 114.468,37.802 114.525,52.491 114.525 L 79.196 114.525 79.196 109.753 L 79.196 104.981 55.190 104.981 C 36.187 104.981,31.148 105.025,31.014 105.190"/><path id="path2" fill="#a0a1a2" d="M176.810 4.052 C 176.764 6.327,176.785 8.130,176.855 8.059 C 176.926 7.988,176.964 6.127,176.939 3.923 L 176.894 -0.084 176.810 4.052 M208.120 4.052 C 208.074 6.327,208.095 8.130,208.166 8.059 C 208.236 7.988,208.274 6.127,208.249 3.923 L 208.204 -0.084 208.120 4.052 M225.774 4.102 C 225.774 6.404,225.797 7.369,225.826 6.247 C 225.855 5.124,225.855 3.240,225.826 2.061 C 225.797 0.881,225.774 1.800,225.774 4.102 M239.430 4.052 C 239.385 6.327,239.405 8.130,239.476 8.059 C 239.546 7.988,239.584 6.127,239.559 3.923 L 239.514 -0.084 239.430 4.052 M257.084 4.102 C 257.084 6.404,257.107 7.369,257.136 6.247 C 257.165 5.124,257.165 3.240,257.136 2.061 C 257.108 0.881,257.084 1.800,257.084 4.102 M270.741 4.052 C 270.695 6.327,270.715 8.130,270.786 8.059 C 270.857 7.988,270.894 6.127,270.869 3.923 L 270.824 -0.084 270.741 4.052 M288.394 4.102 C 288.394 6.404,288.418 7.369,288.446 6.247 C 288.475 5.124,288.475 3.240,288.447 2.061 C 288.418 0.881,288.394 1.800,288.394 4.102 M302.051 4.052 C 302.005 6.327,302.025 8.130,302.096 8.059 C 302.167 7.988,302.204 6.127,302.180 3.923 L 302.134 -0.084 302.051 4.052 M319.704 4.102 C 319.704 6.404,319.728 7.369,319.757 6.247 C 319.786 5.124,319.786 3.240,319.757 2.061 C 319.728 0.881,319.704 1.800,319.704 4.102 M333.361 4.052 C 333.315 6.327,333.335 8.130,333.406 8.059 C 333.477 7.988,333.515 6.127,333.490 3.923 L 333.444 -0.084 333.361 4.052 M351.014 4.102 C 351.014 6.404,351.038 7.369,351.067 6.247 C 351.096 5.124,351.096 3.240,351.067 2.061 C 351.038 0.881,351.015 1.800,351.014 4.102 M364.671 4.052 C 364.625 6.327,364.646 8.130,364.716 8.059 C 364.787 7.988,364.825 6.127,364.800 3.923 L 364.755 -0.084 364.671 4.052 M382.325 4.102 C 382.324 6.404,382.348 7.369,382.377 6.247 C 382.406 5.124,382.406 3.240,382.377 2.061 C 382.348 0.881,382.325 1.800,382.325 4.102 M167.475 83.759 C 167.498 125.314,167.536 147.032,167.559 132.022 C 167.673 58.728,167.673 8.204,167.560 8.204 C 167.491 8.204,167.453 42.204,167.475 83.759 M393.857 33.277 C 395.036 33.306,396.920 33.306,398.042 33.277 C 399.165 33.248,398.200 33.224,395.898 33.225 C 393.596 33.225,392.677 33.248,393.857 33.277 M391.839 46.714 C 391.897 46.928,392.506 46.966,395.995 46.970 L 400.084 46.975 396.073 46.925 C 393.136 46.889,392.024 46.820,391.917 46.669 C 391.810 46.519,391.789 46.531,391.839 46.714 M55.867 58.546 C 55.653 58.760,55.739 67.727,55.956 67.945 C 56.183 68.172,136.045 68.244,136.401 68.018 C 136.507 67.950,118.613 67.915,96.635 67.941 C 74.658 67.966,56.507 67.946,56.300 67.896 L 55.923 67.804 55.923 63.217 C 55.923 59.704,55.972 58.610,56.132 58.545 C 56.249 58.498,56.261 58.455,56.160 58.448 C 56.060 58.440,55.929 58.485,55.867 58.546 M141.538 58.546 C 141.599 58.608,141.423 59.060,141.146 59.551 C 140.869 60.042,140.679 60.444,140.724 60.444 C 140.823 60.444,141.813 58.736,141.815 58.560 C 141.816 58.491,141.729 58.434,141.621 58.434 C 141.514 58.434,141.476 58.485,141.538 58.546 M236.119 60.872 C 235.752 61.129,235.747 61.187,235.747 65.192 C 235.747 69.349,235.794 69.667,236.409 69.642 C 236.568 69.635,236.522 69.573,236.291 69.480 C 235.741 69.259,235.692 61.245,236.238 60.952 C 236.978 60.556,245.240 60.733,245.533 61.151 C 245.676 61.355,245.793 61.442,245.793 61.344 C 245.793 61.246,245.655 61.041,245.487 60.888 C 245.040 60.484,236.694 60.469,236.119 60.872 M139.897 61.714 C 139.741 61.952,139.651 62.185,139.698 62.232 C 139.745 62.278,139.903 62.084,140.051 61.799 C 140.376 61.169,140.286 61.120,139.897 61.714 M139.221 62.955 C 139.079 63.231,138.999 63.458,139.045 63.458 C 139.091 63.458,139.246 63.231,139.389 62.955 C 139.532 62.679,139.611 62.453,139.565 62.453 C 139.519 62.453,139.364 62.679,139.221 62.955 M136.883 67.072 C 136.727 67.310,136.628 67.534,136.663 67.569 C 136.699 67.604,136.860 67.409,137.021 67.136 C 137.382 66.525,137.274 66.475,136.883 67.072 M245.639 69.114 C 245.632 69.232,245.456 69.397,245.249 69.480 C 245.039 69.564,244.983 69.635,245.123 69.639 C 245.514 69.652,245.844 69.380,245.743 69.128 C 245.675 68.957,245.649 68.953,245.639 69.114 M215.446 71.953 C 215.929 71.986,216.720 71.986,217.204 71.953 C 217.687 71.919,217.292 71.891,216.325 71.891 C 215.358 71.891,214.962 71.919,215.446 71.953 M268.271 71.949 C 268.524 71.988,268.939 71.988,269.192 71.949 C 269.445 71.911,269.238 71.879,268.732 71.879 C 268.225 71.879,268.018 71.911,268.271 71.949 M287.694 71.951 C 288.039 71.987,288.604 71.987,288.949 71.951 C 289.295 71.915,289.012 71.886,288.321 71.886 C 287.631 71.886,287.348 71.915,287.694 71.951 M213.105 72.118 C 213.406 72.155,213.858 72.154,214.109 72.116 C 214.361 72.078,214.115 72.048,213.562 72.049 C 213.010 72.049,212.804 72.081,213.105 72.118 M218.627 72.118 C 218.926 72.155,219.416 72.155,219.715 72.118 C 220.015 72.081,219.770 72.050,219.171 72.050 C 218.573 72.050,218.328 72.081,218.627 72.118 M266.513 72.115 C 266.720 72.155,267.059 72.155,267.267 72.115 C 267.474 72.075,267.304 72.042,266.890 72.042 C 266.476 72.042,266.306 72.075,266.513 72.115 M270.573 72.165 C 271.080 72.230,271.758 72.334,272.080 72.395 C 272.546 72.483,272.512 72.454,271.913 72.254 C 271.499 72.115,270.820 72.012,270.406 72.024 L 269.653 72.046 270.573 72.165 M285.936 72.115 C 286.143 72.155,286.482 72.155,286.689 72.115 C 286.896 72.075,286.727 72.042,286.312 72.042 C 285.898 72.042,285.728 72.075,285.936 72.115 M290.331 72.165 C 290.745 72.233,291.348 72.337,291.670 72.397 C 292.142 72.485,292.109 72.457,291.503 72.254 C 291.088 72.115,290.486 72.011,290.163 72.022 C 289.615 72.040,289.626 72.049,290.331 72.165 M220.678 72.323 C 221.096 72.465,222.135 72.554,222.004 72.437 C 221.965 72.402,221.557 72.331,221.097 72.278 C 220.532 72.213,220.396 72.227,220.678 72.323 M265.216 72.332 C 264.879 72.439,264.863 72.467,265.132 72.470 C 265.316 72.473,265.617 72.411,265.802 72.332 C 266.228 72.148,265.788 72.148,265.216 72.332 M284.213 72.480 C 283.273 72.819,282.629 73.138,282.629 73.264 C 282.629 73.310,282.798 73.256,283.005 73.145 C 283.213 73.033,283.872 72.771,284.470 72.563 C 285.069 72.354,285.446 72.182,285.308 72.180 C 285.170 72.178,284.677 72.313,284.213 72.480 M292.340 72.555 C 292.340 72.598,292.583 72.718,292.880 72.822 C 293.177 72.926,293.347 72.941,293.257 72.857 C 293.066 72.679,292.340 72.439,292.340 72.555 M209.293 72.841 C 209.109 72.966,209.177 72.981,209.544 72.899 C 210.159 72.761,210.293 72.666,209.865 72.669 C 209.688 72.670,209.431 72.748,209.293 72.841 M223.022 72.835 C 224.078 73.188,224.566 73.317,224.465 73.216 C 224.302 73.053,223.144 72.670,222.855 72.683 C 222.717 72.690,222.792 72.758,223.022 72.835 M236.026 72.789 C 235.982 72.860,238.099 72.896,240.731 72.871 C 244.472 72.834,245.549 72.870,245.667 73.038 C 245.783 73.201,245.802 73.192,245.750 73.001 C 245.675 72.727,236.192 72.520,236.026 72.789 M250.013 72.867 C 249.859 73.021,249.821 76.336,249.852 86.974 L 249.892 100.879 249.978 86.898 L 250.063 72.918 254.622 72.873 L 259.180 72.828 259.291 73.271 C 259.352 73.514,259.358 74.344,259.303 75.115 C 259.199 76.593,259.274 76.753,259.785 76.141 C 259.958 75.933,259.993 75.858,259.862 75.973 C 259.450 76.335,259.414 76.218,259.489 74.785 C 259.608 72.508,259.967 72.666,254.695 72.666 C 251.433 72.666,250.159 72.721,250.013 72.867 M263.580 72.909 C 263.059 73.197,262.895 73.381,263.295 73.228 C 263.919 72.991,264.462 72.668,264.211 72.684 C 264.073 72.692,263.789 72.794,263.580 72.909 M273.840 73.106 C 275.126 73.783,276.037 74.600,276.944 75.892 C 277.400 76.541,277.773 77.019,277.773 76.953 C 277.773 76.018,274.201 72.666,273.205 72.666 C 273.094 72.666,273.380 72.864,273.840 73.106 M320.413 72.778 C 320.257 72.934,320.273 73.801,320.434 73.901 C 320.507 73.946,320.536 73.723,320.499 73.406 L 320.432 72.829 325.514 72.873 L 330.596 72.918 330.895 73.504 C 331.100 73.906,331.160 73.958,331.086 73.671 C 330.821 72.647,330.931 72.666,325.494 72.666 C 322.761 72.666,320.474 72.717,320.413 72.778 M345.908 72.957 C 345.717 73.209,345.719 73.221,345.918 73.043 C 346.337 72.670,354.749 72.749,354.839 73.127 C 354.893 73.350,354.905 73.340,354.893 73.085 C 354.869 72.593,346.276 72.470,345.908 72.957 M294.268 73.566 C 294.727 73.877,295.246 74.291,295.422 74.487 C 295.597 74.683,295.808 74.843,295.890 74.843 C 295.972 74.843,295.866 74.671,295.654 74.460 C 295.199 74.007,293.761 73.001,293.568 73.001 C 293.493 73.001,293.808 73.255,294.268 73.566 M235.822 78.275 C 235.822 81.130,235.844 82.322,235.872 80.923 C 235.900 79.524,235.900 77.189,235.872 75.733 C 235.845 74.276,235.822 75.421,235.822 78.275 M225.031 73.555 C 225.587 73.844,226.036 74.011,226.036 73.929 C 226.036 73.828,225.005 73.336,224.796 73.337 C 224.695 73.338,224.801 73.436,225.031 73.555 M245.835 73.922 C 245.837 74.290,245.872 74.421,245.912 74.213 C 245.952 74.005,245.950 73.704,245.908 73.543 C 245.866 73.383,245.834 73.554,245.835 73.922 M280.883 74.526 C 280.368 74.997,279.789 75.619,279.596 75.908 C 279.361 76.259,279.448 76.199,279.859 75.726 C 280.197 75.337,280.826 74.716,281.258 74.346 C 281.690 73.976,281.992 73.673,281.931 73.672 C 281.869 73.671,281.397 74.056,280.883 74.526 M204.662 75.443 L 203.851 76.211 204.730 75.501 C 205.213 75.110,205.609 74.765,205.609 74.733 C 205.609 74.586,205.415 74.731,204.662 75.443 M260.556 75.064 C 260.040 75.613,260.104 75.784,260.629 75.259 C 260.869 75.019,261.032 74.790,260.992 74.750 C 260.952 74.710,260.756 74.851,260.556 75.064 M354.242 74.962 C 354.191 75.127,354.070 75.520,353.972 75.836 C 353.874 76.152,353.853 76.341,353.924 76.255 C 354.118 76.023,354.501 74.830,354.411 74.740 C 354.368 74.697,354.292 74.797,354.242 74.962 M296.659 75.913 C 297.000 76.409,297.303 76.793,297.333 76.766 C 297.415 76.691,296.291 75.017,296.156 75.013 C 296.091 75.012,296.317 75.416,296.659 75.913 M228.552 75.787 C 228.559 75.966,229.554 77.074,229.635 76.992 C 229.668 76.959,229.437 76.643,229.121 76.288 C 228.806 75.933,228.550 75.708,228.552 75.787 M391.839 75.848 C 391.897 76.062,392.506 76.099,395.995 76.104 L 400.084 76.108 396.073 76.059 C 393.136 76.022,392.024 75.954,391.917 75.803 C 391.810 75.653,391.789 75.665,391.839 75.848 M203.334 76.941 C 203.086 77.265,202.921 77.568,202.966 77.614 C 203.011 77.659,203.249 77.393,203.494 77.023 C 204.044 76.192,203.944 76.141,203.334 76.941 M331.859 76.852 C 331.859 76.990,331.932 77.216,332.022 77.355 C 332.166 77.578,332.184 77.578,332.184 77.355 C 332.184 77.216,332.111 76.990,332.022 76.852 C 331.877 76.629,331.859 76.629,331.859 76.852 M277.893 77.524 C 278.017 78.001,278.201 78.067,278.466 77.729 C 278.672 77.466,278.666 77.460,278.401 77.668 C 278.149 77.866,278.108 77.861,278.108 77.636 C 278.108 77.492,278.040 77.332,277.956 77.280 C 277.873 77.229,277.844 77.339,277.893 77.524 M297.753 77.857 C 297.823 78.126,298.086 78.966,298.357 79.782 C 298.508 80.235,298.514 80.219,298.420 79.615 C 298.363 79.247,298.175 78.644,298.003 78.275 C 297.830 77.907,297.718 77.719,297.753 77.857 M213.897 78.192 C 213.686 78.282,213.655 78.336,213.813 78.336 C 213.951 78.336,214.215 78.271,214.399 78.192 C 214.610 78.101,214.641 78.048,214.483 78.048 C 214.345 78.048,214.081 78.113,213.897 78.192 M218.083 78.192 C 218.267 78.271,218.531 78.336,218.669 78.336 C 218.827 78.336,218.796 78.282,218.585 78.192 C 218.401 78.113,218.137 78.048,217.999 78.048 C 217.841 78.048,217.872 78.101,218.083 78.192 M212.190 79.125 L 211.720 79.556 212.265 79.177 C 212.564 78.969,212.809 78.775,212.809 78.746 C 212.809 78.614,212.624 78.727,212.190 79.125 M220.518 79.063 C 220.514 79.128,220.680 79.354,220.887 79.565 C 221.095 79.777,221.392 80.138,221.548 80.368 C 221.705 80.599,221.836 80.712,221.841 80.620 C 221.845 80.527,221.551 80.113,221.187 79.699 C 220.823 79.284,220.522 78.998,220.518 79.063 M265.177 79.318 C 265.478 79.355,265.930 79.354,266.181 79.316 C 266.433 79.278,266.187 79.247,265.634 79.248 C 265.082 79.249,264.876 79.280,265.177 79.318 M284.766 79.318 C 285.067 79.355,285.520 79.354,285.771 79.316 C 286.023 79.278,285.776 79.247,285.224 79.248 C 284.671 79.249,284.466 79.280,284.766 79.318 M245.704 89.410 C 245.704 94.981,245.725 97.260,245.751 94.475 C 245.777 91.689,245.777 87.131,245.751 84.345 C 245.725 81.559,245.704 83.838,245.704 89.410 M202.030 79.789 C 201.972 79.938,201.932 80.187,201.940 80.340 C 201.948 80.494,202.021 80.397,202.102 80.126 C 202.260 79.597,202.204 79.336,202.030 79.789 M268.005 80.159 C 268.269 80.412,268.621 80.808,268.788 81.038 C 269.089 81.452,269.089 81.451,268.806 80.954 C 268.448 80.326,267.886 79.699,267.680 79.699 C 267.594 79.699,267.740 79.906,268.005 80.159 M282.697 80.059 L 282.378 80.420 282.838 80.124 C 283.313 79.818,283.403 79.699,283.157 79.699 C 283.079 79.699,282.872 79.861,282.697 80.059 M231.071 80.149 C 231.109 80.584,231.370 80.953,231.382 80.588 C 231.389 80.386,231.319 80.174,231.226 80.117 C 231.134 80.060,231.064 80.075,231.071 80.149 M287.652 80.095 C 287.652 80.151,287.763 80.330,287.900 80.492 C 288.036 80.654,288.267 80.938,288.414 81.122 C 288.601 81.357,288.590 81.291,288.375 80.900 C 288.081 80.362,287.652 79.885,287.652 80.095 M211.239 80.626 C 211.181 80.776,211.141 81.024,211.149 81.177 C 211.157 81.331,211.230 81.234,211.311 80.963 C 211.468 80.434,211.413 80.173,211.239 80.626 M298.574 80.787 C 298.574 81.063,298.632 81.515,298.702 81.792 C 298.880 82.488,298.887 81.803,298.712 80.954 C 298.596 80.391,298.574 80.365,298.574 80.787 M281.601 81.164 C 281.060 81.816,280.920 82.043,281.059 82.041 C 281.140 82.039,281.376 81.776,281.584 81.455 C 281.989 80.829,281.997 80.685,281.601 81.164 M201.721 81.918 C 201.677 82.310,201.696 82.969,201.762 83.383 C 201.864 84.015,201.887 83.901,201.905 82.671 C 201.927 81.091,201.850 80.775,201.721 81.918 M231.488 81.972 C 231.636 83.059,231.634 83.059,226.938 83.008 L 222.774 82.964 222.475 82.378 C 222.270 81.975,222.210 81.923,222.284 82.210 C 222.544 83.219,222.527 83.215,227.025 83.209 C 231.857 83.203,232.222 83.075,231.550 81.624 C 231.438 81.383,231.421 81.480,231.488 81.972 M67.683 81.665 L 79.191 81.710 79.240 86.272 L 79.288 90.833 79.284 86.229 L 79.280 81.624 67.727 81.622 L 56.174 81.621 67.683 81.665 M84.659 81.674 C 84.613 81.747,84.654 81.917,84.748 82.051 C 84.889 82.250,84.904 82.241,84.827 82.003 C 84.740 81.732,85.095 81.709,90.128 81.666 L 95.521 81.619 90.131 81.580 C 87.167 81.558,84.704 81.600,84.659 81.674 M269.078 81.824 C 269.072 82.025,269.142 82.237,269.234 82.294 C 269.432 82.416,269.432 82.252,269.234 81.792 C 269.095 81.469,269.090 81.470,269.078 81.824 M55.829 86.312 C 55.829 88.891,55.852 89.922,55.881 88.604 C 55.909 87.287,55.909 85.177,55.881 83.916 C 55.852 82.656,55.829 83.734,55.829 86.312 M95.654 81.833 C 96.588 83.538,97.667 85.391,97.725 85.391 C 97.767 85.391,97.770 85.335,97.732 85.266 C 96.798 83.562,95.719 81.708,95.661 81.708 C 95.619 81.708,95.616 81.764,95.654 81.833 M118.590 81.917 C 118.501 82.032,118.375 82.239,118.310 82.378 C 118.246 82.516,118.319 82.459,118.472 82.252 L 118.752 81.875 124.075 81.875 C 128.065 81.875,129.415 81.926,129.466 82.076 C 129.507 82.202,129.573 82.170,129.642 81.992 C 129.784 81.620,118.877 81.546,118.590 81.917 M128.331 84.094 C 127.801 85.038,127.337 85.866,127.299 85.936 C 127.261 86.005,127.266 86.061,127.309 86.061 C 127.353 86.061,127.593 85.703,127.843 85.266 C 128.825 83.546,129.443 82.378,129.371 82.378 C 129.329 82.378,128.861 83.150,128.331 84.094 M280.528 82.895 C 280.380 83.180,280.290 83.443,280.326 83.479 C 280.362 83.516,280.517 83.283,280.671 82.961 C 281.015 82.239,280.896 82.184,280.528 82.895 M333.540 82.661 C 333.578 83.095,333.840 83.464,333.852 83.099 C 333.858 82.897,333.788 82.686,333.696 82.629 C 333.604 82.572,333.534 82.586,333.540 82.661 M269.446 94.187 C 269.413 103.898,269.444 105.717,269.643 105.917 C 270.040 106.313,278.990 106.261,279.293 105.860 C 279.482 105.611,279.480 105.598,279.280 105.776 C 278.921 106.097,270.019 106.076,269.752 105.754 C 269.610 105.582,269.585 102.784,269.658 94.913 C 269.712 89.077,269.695 83.941,269.620 83.499 C 269.543 83.041,269.468 87.654,269.446 94.187 M289.038 94.198 C 289.007 103.849,289.039 105.722,289.235 105.919 C 289.629 106.313,298.557 106.259,298.911 105.860 C 299.145 105.598,299.158 104.375,299.037 94.182 L 298.901 82.796 298.949 94.210 C 298.982 102.206,298.942 105.679,298.816 105.805 C 298.551 106.070,289.629 106.054,289.363 105.788 C 289.213 105.638,289.188 102.993,289.258 94.863 C 289.310 88.963,289.290 83.815,289.213 83.423 C 289.133 83.011,289.059 87.563,289.038 94.198 M211.783 83.416 C 212.175 83.861,213.441 84.556,213.853 84.553 C 213.969 84.552,213.650 84.358,213.144 84.123 C 212.637 83.887,212.034 83.530,211.804 83.329 L 211.386 82.964 211.783 83.416 M85.804 84.010 C 85.950 84.309,86.105 84.554,86.149 84.554 C 86.316 84.554,86.208 84.287,85.880 83.884 L 85.539 83.466 85.804 84.010 M333.875 83.833 C 333.913 84.267,334.175 84.636,334.187 84.271 C 334.193 84.069,334.123 83.858,334.031 83.801 C 333.939 83.744,333.869 83.758,333.875 83.833 M117.114 84.429 L 116.849 84.973 117.190 84.554 C 117.519 84.151,117.626 83.884,117.459 83.884 C 117.416 83.884,117.260 84.129,117.114 84.429 M303.725 84.001 C 303.125 84.215,303.056 84.573,303.056 87.444 C 303.056 91.383,301.900 90.917,311.671 90.917 C 320.195 90.917,320.472 90.902,320.464 90.438 C 320.459 90.194,320.439 90.196,320.288 90.456 C 320.038 90.885,303.489 90.913,303.325 90.484 C 303.159 90.053,303.214 84.660,303.387 84.387 C 303.632 83.999,319.487 83.919,320.072 84.302 C 320.290 84.445,320.469 84.497,320.469 84.418 C 320.469 83.945,304.961 83.559,303.725 84.001 M86.474 85.182 C 86.620 85.481,86.775 85.726,86.819 85.726 C 86.985 85.726,86.878 85.460,86.550 85.057 L 86.208 84.638 86.474 85.182 M201.937 85.005 C 201.931 85.207,202.001 85.418,202.093 85.475 C 202.291 85.597,202.291 85.434,202.093 84.973 C 201.954 84.650,201.949 84.651,201.937 85.005 M279.699 85.224 C 279.635 85.513,279.618 85.785,279.661 85.828 C 279.703 85.870,279.786 85.665,279.845 85.370 C 279.985 84.673,279.849 84.537,279.699 85.224 M334.210 85.005 C 334.248 85.439,334.510 85.808,334.522 85.443 C 334.528 85.241,334.458 85.030,334.366 84.973 C 334.274 84.916,334.204 84.930,334.210 85.005 M116.450 85.559 C 116.308 85.835,116.228 86.061,116.274 86.061 C 116.320 86.061,116.475 85.835,116.618 85.559 C 116.761 85.283,116.840 85.057,116.794 85.057 C 116.748 85.057,116.593 85.283,116.450 85.559 M216.787 85.175 C 216.995 85.215,217.297 85.213,217.457 85.172 C 217.617 85.130,217.447 85.097,217.078 85.099 C 216.710 85.101,216.579 85.135,216.787 85.175 M235.987 89.410 C 235.987 91.758,236.011 92.719,236.040 91.545 C 236.068 90.370,236.068 88.449,236.040 87.275 C 236.011 86.101,235.987 87.062,235.987 89.410 M259.958 85.910 C 259.897 86.294,259.879 86.641,259.919 86.681 C 259.959 86.721,260.045 86.442,260.109 86.061 C 260.173 85.680,260.191 85.334,260.148 85.291 C 260.105 85.248,260.020 85.527,259.958 85.910 M218.850 85.452 C 218.889 85.485,219.372 85.554,219.925 85.606 C 220.549 85.664,220.771 85.647,220.511 85.562 C 220.097 85.426,218.715 85.335,218.850 85.452 M97.788 85.643 C 97.788 85.735,97.943 85.998,98.131 86.229 C 98.359 86.507,98.416 86.535,98.301 86.312 C 98.018 85.766,97.787 85.463,97.788 85.643 M221.027 85.786 C 221.065 85.819,221.473 85.890,221.934 85.943 C 222.472 86.005,222.652 85.988,222.436 85.895 C 222.116 85.756,220.882 85.661,221.027 85.786 M87.202 86.480 C 87.389 86.848,87.665 87.300,87.817 87.484 C 87.968 87.668,87.886 87.442,87.635 86.982 C 87.073 85.952,86.734 85.558,87.202 86.480 M334.635 86.312 C 334.773 86.928,334.869 87.062,334.866 86.633 C 334.864 86.457,334.787 86.199,334.693 86.061 C 334.569 85.878,334.553 85.945,334.635 86.312 M223.036 86.121 C 223.222 86.279,224.201 86.376,224.109 86.226 C 224.053 86.135,223.773 86.061,223.487 86.061 C 223.201 86.061,222.998 86.088,223.036 86.121 M98.458 86.815 C 98.458 86.907,98.613 87.170,98.801 87.401 C 99.028 87.679,99.085 87.707,98.970 87.484 C 98.688 86.938,98.456 86.635,98.458 86.815 M259.768 95.437 C 259.768 100.180,259.789 102.120,259.816 99.749 C 259.842 97.378,259.842 93.497,259.816 91.126 C 259.789 88.755,259.768 90.695,259.768 95.437 M279.357 94.684 C 279.357 98.920,279.379 100.629,279.405 98.482 C 279.432 96.334,279.432 92.868,279.405 90.780 C 279.379 88.691,279.357 90.448,279.357 94.684 M334.970 87.484 C 335.108 88.100,335.204 88.234,335.200 87.805 C 335.199 87.629,335.121 87.371,335.028 87.233 C 334.904 87.050,334.888 87.117,334.970 87.484 M228.213 87.815 C 228.213 87.859,228.437 88.010,228.712 88.152 C 228.986 88.294,229.721 88.878,230.344 89.450 C 230.967 90.021,231.289 90.267,231.059 89.995 C 230.116 88.881,228.213 87.424,228.213 87.815 M88.073 87.924 C 88.069 88.072,88.921 89.577,89.009 89.577 C 89.049 89.577,88.932 89.295,88.750 88.949 C 88.354 88.201,88.076 87.780,88.073 87.924 M114.782 88.503 C 114.626 88.742,114.536 88.975,114.583 89.021 C 114.630 89.068,114.788 88.873,114.935 88.588 C 115.261 87.959,115.171 87.909,114.782 88.503 M125.833 88.503 C 125.677 88.742,125.587 88.975,125.634 89.021 C 125.680 89.068,125.839 88.873,125.986 88.588 C 126.312 87.959,126.222 87.909,125.833 88.503 M325.505 88.321 C 325.494 88.545,325.904 89.710,326.042 89.848 C 326.102 89.908,326.086 89.740,326.006 89.474 C 325.796 88.774,325.514 88.127,325.505 88.321 M335.305 88.656 C 335.443 89.272,335.539 89.406,335.535 88.977 C 335.534 88.801,335.456 88.543,335.363 88.405 C 335.239 88.222,335.223 88.290,335.305 88.656 M203.851 88.725 C 204.201 89.129,205.442 90.156,205.442 90.042 C 205.442 90.006,205.008 89.608,204.479 89.157 C 203.949 88.707,203.667 88.512,203.851 88.725 M349.126 89.436 C 349.035 89.744,348.794 90.448,348.592 91.000 C 348.120 92.284,347.910 93.000,348.043 92.867 C 348.100 92.810,348.366 92.140,348.634 91.379 C 349.307 89.469,349.440 89.024,349.361 88.945 C 349.323 88.907,349.217 89.128,349.126 89.436 M114.086 89.787 C 113.932 90.086,113.696 90.519,113.562 90.749 C 113.327 91.151,113.329 91.154,113.599 90.833 C 113.930 90.441,114.570 89.242,114.449 89.242 C 114.403 89.242,114.240 89.487,114.086 89.787 M335.591 89.661 C 335.644 89.845,335.811 90.435,335.962 90.971 C 336.114 91.507,336.268 91.917,336.304 91.881 C 336.387 91.797,335.752 89.566,335.606 89.429 C 335.546 89.372,335.539 89.477,335.591 89.661 M89.079 89.870 C 89.081 89.939,89.236 90.184,89.424 90.414 L 89.765 90.833 89.499 90.289 C 89.247 89.772,89.071 89.596,89.079 89.870 M100.129 89.870 C 100.131 89.939,100.287 90.184,100.474 90.414 L 100.815 90.833 100.550 90.289 C 100.298 89.772,100.121 89.596,100.129 89.870 M205.609 90.155 C 205.609 90.201,205.835 90.355,206.111 90.498 C 206.388 90.641,206.614 90.720,206.614 90.674 C 206.614 90.628,206.388 90.474,206.111 90.331 C 205.835 90.188,205.609 90.109,205.609 90.155 M326.173 90.363 C 326.167 90.564,326.237 90.776,326.329 90.833 C 326.527 90.955,326.527 90.792,326.329 90.331 C 326.190 90.008,326.185 90.009,326.173 90.363 M101.046 91.419 C 101.189 91.695,101.344 91.921,101.390 91.921 C 101.436 91.921,101.357 91.695,101.214 91.419 C 101.071 91.143,100.916 90.917,100.870 90.917 C 100.824 90.917,100.904 91.143,101.046 91.419 M124.158 91.517 C 124.002 91.755,123.903 91.979,123.938 92.014 C 123.974 92.050,124.135 91.855,124.296 91.581 C 124.657 90.970,124.549 90.920,124.158 91.517 M61.754 91.377 C 65.006 91.403,70.281 91.402,73.474 91.377 C 76.667 91.352,74.006 91.331,67.560 91.331 C 61.113 91.331,58.501 91.352,61.754 91.377 M112.944 91.801 C 112.775 92.097,112.490 92.585,112.311 92.884 C 112.131 93.185,112.067 93.428,112.167 93.428 C 112.267 93.428,112.348 93.356,112.348 93.268 C 112.348 93.180,112.578 92.719,112.858 92.243 C 113.139 91.768,113.342 91.352,113.310 91.320 C 113.278 91.288,113.113 91.504,112.944 91.801 M391.907 91.363 C 391.846 91.425,391.797 91.556,391.798 91.656 C 391.800 91.766,391.853 91.756,391.932 91.631 C 392.028 91.480,393.124 91.412,396.073 91.377 L 400.084 91.329 396.051 91.290 C 393.834 91.269,391.969 91.302,391.907 91.363 M208.455 91.586 C 208.594 91.676,208.820 91.749,208.958 91.749 C 209.181 91.749,209.181 91.731,208.958 91.586 C 208.820 91.497,208.594 91.424,208.455 91.424 C 208.232 91.424,208.232 91.442,208.455 91.586 M209.627 91.921 C 209.766 92.011,209.992 92.084,210.130 92.084 C 210.353 92.084,210.353 92.066,210.130 91.921 C 209.992 91.832,209.766 91.759,209.627 91.759 C 209.404 91.759,209.404 91.777,209.627 91.921 M210.883 92.256 C 211.067 92.335,211.331 92.400,211.469 92.400 C 211.628 92.400,211.597 92.347,211.386 92.256 C 211.201 92.177,210.938 92.112,210.799 92.112 C 210.641 92.112,210.672 92.165,210.883 92.256 M336.404 92.340 C 336.401 92.524,336.463 92.825,336.542 93.010 C 336.726 93.436,336.726 92.996,336.542 92.424 C 336.435 92.087,336.407 92.071,336.404 92.340 M123.489 92.689 C 123.332 92.927,123.234 93.151,123.269 93.186 C 123.304 93.222,123.465 93.027,123.626 92.753 C 123.987 92.142,123.880 92.092,123.489 92.689 M212.474 92.589 C 212.612 92.679,212.907 92.755,213.130 92.756 C 213.667 92.759,213.531 92.664,212.809 92.532 C 212.396 92.456,212.297 92.473,212.474 92.589 M101.951 93.010 C 102.233 93.556,102.465 93.859,102.463 93.679 C 102.463 93.587,102.308 93.324,102.120 93.093 C 101.892 92.815,101.836 92.787,101.951 93.010 M214.399 92.926 C 214.584 93.005,214.960 93.066,215.237 93.062 L 215.739 93.054 215.237 92.926 C 214.960 92.856,214.584 92.794,214.399 92.790 L 214.064 92.782 214.399 92.926 M232.506 93.261 C 232.639 93.983,232.734 94.119,232.731 93.582 C 232.729 93.359,232.654 93.064,232.564 92.926 C 232.448 92.749,232.431 92.848,232.506 93.261 M216.492 93.252 C 216.630 93.346,216.963 93.424,217.232 93.426 C 217.875 93.429,217.741 93.332,216.911 93.193 C 216.431 93.113,216.312 93.129,216.492 93.252 M122.832 93.841 C 122.683 94.068,122.562 94.290,122.562 94.334 C 122.562 94.410,121.749 95.851,121.019 97.070 C 120.839 97.369,120.733 97.614,120.783 97.614 C 120.872 97.614,121.686 96.253,122.711 94.391 C 123.252 93.410,123.321 93.095,122.832 93.841 M218.669 93.588 C 218.807 93.681,219.064 93.759,219.241 93.761 C 219.669 93.764,219.536 93.668,218.920 93.530 C 218.553 93.448,218.485 93.464,218.669 93.588 M220.092 93.931 C 220.149 94.023,220.361 94.093,220.562 94.086 C 220.916 94.075,220.917 94.069,220.594 93.931 C 220.134 93.732,219.970 93.732,220.092 93.931 M338.998 93.875 C 338.937 93.936,338.891 94.143,338.897 94.335 C 338.907 94.656,338.921 94.652,339.068 94.283 C 339.232 93.873,339.198 93.675,338.998 93.875 M102.721 94.433 C 102.864 94.709,103.018 94.935,103.064 94.935 C 103.110 94.935,103.031 94.709,102.888 94.433 C 102.745 94.157,102.591 93.931,102.545 93.931 C 102.499 93.931,102.578 94.157,102.721 94.433 M111.254 94.810 L 110.989 95.354 111.330 94.935 C 111.658 94.532,111.766 94.265,111.599 94.265 C 111.555 94.265,111.400 94.510,111.254 94.810 M222.185 94.750 C 222.415 94.940,222.644 95.097,222.693 95.099 C 223.566 95.135,223.376 99.121,222.501 99.121 C 222.419 99.121,222.352 99.206,222.352 99.309 C 222.352 99.662,222.813 99.130,223.175 98.361 C 223.866 96.891,223.510 95.368,222.322 94.712 L 221.766 94.405 222.185 94.750 M232.787 95.856 C 232.788 97.226,232.801 97.289,232.935 96.551 C 233.019 96.085,233.019 95.444,232.934 95.044 C 232.808 94.453,232.786 94.573,232.787 95.856 M337.047 94.698 C 337.049 94.874,337.126 95.132,337.220 95.270 C 337.344 95.453,337.360 95.386,337.277 95.019 C 337.140 94.403,337.044 94.270,337.047 94.698 M201.293 94.861 C 200.896 95.139,200.791 96.170,201.089 96.861 C 201.179 97.069,201.198 96.802,201.138 96.154 C 201.044 95.139,201.053 95.108,201.494 94.940 C 202.107 94.707,209.700 94.711,210.183 94.944 C 210.536 95.115,210.537 95.112,210.223 94.861 C 209.739 94.473,201.847 94.473,201.293 94.861 M338.387 95.930 C 338.186 96.581,337.952 97.071,337.868 97.019 C 337.783 96.967,337.715 97.042,337.715 97.186 C 337.715 97.604,337.993 97.487,338.187 96.986 C 338.560 96.024,338.895 94.888,338.826 94.818 C 338.786 94.779,338.589 95.279,338.387 95.930 M347.110 95.047 C 347.100 95.155,347.042 95.381,346.982 95.549 C 346.898 95.787,346.921 95.813,347.082 95.664 C 347.196 95.559,347.254 95.333,347.210 95.162 C 347.166 94.991,347.121 94.939,347.110 95.047 M210.493 95.521 C 210.496 95.705,210.558 96.044,210.632 96.275 L 210.766 96.693 210.771 96.275 C 210.774 96.044,210.711 95.705,210.632 95.521 L 210.488 95.186 210.493 95.521 M235.822 100.460 C 235.822 103.361,235.845 104.548,235.872 103.098 C 235.900 101.647,235.900 99.274,235.872 97.823 C 235.845 96.373,235.822 97.560,235.822 100.460 M110.584 95.982 L 110.319 96.526 110.660 96.107 C 110.989 95.704,111.096 95.437,110.929 95.437 C 110.886 95.437,110.730 95.682,110.584 95.982 M103.648 96.023 C 103.649 96.116,103.803 96.379,103.992 96.609 C 104.219 96.887,104.276 96.916,104.161 96.693 C 103.879 96.147,103.647 95.844,103.648 96.023 M93.244 97.195 C 93.526 97.742,93.758 98.044,93.757 97.865 C 93.756 97.773,93.602 97.509,93.413 97.279 C 93.186 97.001,93.129 96.973,93.244 97.195 M104.314 97.133 C 104.310 97.281,105.162 98.786,105.250 98.786 C 105.290 98.786,105.174 98.504,104.991 98.158 C 104.595 97.409,104.318 96.989,104.314 97.133 M201.268 97.897 C 201.261 98.099,201.331 98.311,201.423 98.368 C 201.621 98.490,201.621 98.326,201.423 97.865 C 201.284 97.542,201.279 97.544,201.268 97.897 M232.589 97.893 C 232.576 98.093,232.523 98.394,232.470 98.563 C 232.378 98.853,232.383 98.854,232.564 98.572 C 232.669 98.408,232.723 98.107,232.683 97.902 C 232.612 97.531,232.612 97.531,232.589 97.893 M211.143 97.865 C 211.146 98.087,211.613 98.699,211.707 98.604 C 211.748 98.563,211.637 98.343,211.462 98.114 C 211.286 97.885,211.143 97.773,211.143 97.865 M94.199 98.870 C 94.450 99.330,94.727 99.782,94.814 99.874 C 95.062 100.137,94.324 98.742,94.017 98.368 C 93.866 98.183,93.948 98.409,94.199 98.870 M108.922 98.884 C 108.766 99.123,108.676 99.356,108.723 99.402 C 108.769 99.449,108.928 99.254,109.075 98.969 C 109.401 98.339,109.311 98.290,108.922 98.884 M119.967 98.954 C 119.824 99.230,119.744 99.456,119.790 99.456 C 119.837 99.456,119.991 99.230,120.134 98.954 C 120.277 98.677,120.356 98.451,120.310 98.451 C 120.264 98.451,120.109 98.677,119.967 98.954 M105.320 99.079 C 105.322 99.148,105.477 99.393,105.665 99.623 L 106.006 100.042 105.740 99.498 C 105.488 98.981,105.312 98.805,105.320 99.079 M212.641 99.525 C 212.641 99.672,213.669 100.158,213.768 100.059 C 213.819 100.009,213.650 99.888,213.394 99.790 C 213.138 99.693,212.863 99.573,212.785 99.525 C 212.706 99.476,212.641 99.476,212.641 99.525 M108.246 100.126 C 108.103 100.402,108.024 100.628,108.070 100.628 C 108.116 100.628,108.271 100.402,108.414 100.126 C 108.556 99.849,108.636 99.623,108.590 99.623 C 108.544 99.623,108.389 99.849,108.246 100.126 M119.297 100.126 C 119.154 100.402,119.075 100.628,119.121 100.628 C 119.167 100.628,119.321 100.402,119.464 100.126 C 119.607 99.849,119.686 99.623,119.640 99.623 C 119.594 99.623,119.440 99.849,119.297 100.126 M329.515 99.958 C 329.515 100.096,329.588 100.322,329.678 100.460 C 329.822 100.684,329.840 100.684,329.840 100.460 C 329.840 100.322,329.767 100.096,329.678 99.958 C 329.533 99.735,329.515 99.735,329.515 99.958 M94.941 100.209 C 94.942 100.301,95.097 100.565,95.285 100.795 C 95.512 101.073,95.569 101.101,95.454 100.879 C 95.172 100.333,94.940 100.030,94.941 100.209 M202.260 100.370 C 202.260 100.882,205.373 104.157,205.839 104.135 C 205.943 104.130,205.839 103.999,205.609 103.842 C 204.792 103.288,203.702 102.205,202.986 101.237 C 202.587 100.698,202.260 100.307,202.260 100.370 M216.468 100.669 C 217.145 100.748,218.199 100.749,218.812 100.672 C 219.782 100.549,219.623 100.531,217.581 100.529 C 215.443 100.526,215.345 100.539,216.468 100.669 M106.562 101.245 C 106.905 101.954,107.133 102.069,107.467 101.703 C 107.728 101.417,107.726 101.413,107.435 101.634 C 107.169 101.835,107.106 101.834,106.986 101.625 C 106.614 100.978,106.295 100.692,106.562 101.245 M230.406 102.154 C 229.909 102.712,229.099 103.437,228.606 103.764 C 227.619 104.419,227.440 104.627,228.202 104.233 C 228.793 103.927,230.598 102.280,231.075 101.611 C 231.597 100.877,231.400 101.037,230.406 102.154 M95.605 101.360 C 95.605 101.482,96.472 102.972,96.543 102.972 C 96.583 102.972,96.424 102.595,96.191 102.135 C 95.827 101.417,95.605 101.123,95.605 101.360 M118.298 101.898 C 118.142 102.136,118.052 102.369,118.099 102.416 C 118.146 102.463,118.304 102.268,118.452 101.983 C 118.777 101.353,118.687 101.304,118.298 101.898 M117.346 103.600 C 116.704 104.702,116.579 104.977,116.830 104.730 C 117.061 104.502,118.094 102.637,117.989 102.637 C 117.943 102.637,117.654 103.070,117.346 103.600 M249.684 104.144 C 249.640 106.303,249.260 106.153,254.778 106.153 C 259.442 106.153,259.868 106.105,259.853 105.576 C 259.850 105.479,259.771 105.532,259.677 105.693 C 259.453 106.078,250.323 106.149,250.007 105.768 C 249.908 105.648,249.801 104.914,249.769 104.136 L 249.712 102.721 249.684 104.144 M96.855 103.600 C 97.001 103.899,97.156 104.144,97.200 104.144 C 97.366 104.144,97.259 103.877,96.931 103.474 L 96.589 103.056 96.855 103.600 M279.501 104.479 C 279.501 105.077,279.531 105.322,279.569 105.023 C 279.606 104.724,279.606 104.234,279.569 103.935 C 279.531 103.635,279.501 103.880,279.501 104.479 M330.953 104.102 C 331.138 104.879,331.757 106.049,332.022 106.124 C 332.187 106.171,332.154 106.080,331.926 105.860 C 331.735 105.676,331.445 105.102,331.282 104.584 C 330.975 103.608,330.760 103.294,330.953 104.102 M206.423 104.469 C 206.640 104.659,206.898 104.814,206.995 104.814 C 207.201 104.814,207.191 104.805,206.530 104.418 L 206.028 104.124 206.423 104.469 M245.832 104.814 C 245.832 105.136,245.867 105.268,245.909 105.107 C 245.951 104.946,245.951 104.682,245.909 104.521 C 245.867 104.360,245.832 104.491,245.832 104.814 M30.829 105.177 C 30.221 106.150,29.780 107.075,30.123 106.656 C 30.311 106.425,30.467 106.173,30.469 106.095 C 30.471 106.017,30.629 105.735,30.819 105.468 L 31.165 104.982 55.222 104.939 L 79.280 104.896 55.168 104.855 L 31.056 104.814 30.829 105.177 M97.765 105.232 C 98.047 105.778,98.279 106.081,98.278 105.902 C 98.277 105.810,98.122 105.546,97.934 105.316 C 97.707 105.038,97.650 105.010,97.765 105.232 M115.606 106.697 C 115.076 107.641,114.612 108.470,114.574 108.539 C 114.536 108.608,114.539 108.665,114.581 108.665 C 114.639 108.665,115.718 106.811,116.652 105.107 C 116.690 105.038,116.687 104.981,116.645 104.981 C 116.604 104.981,116.136 105.753,115.606 106.697 M79.270 109.753 C 79.270 112.332,79.293 113.363,79.322 112.045 C 79.350 110.727,79.350 108.618,79.321 107.357 C 79.293 106.096,79.270 107.175,79.270 109.753 M245.520 105.824 C 245.407 105.936,243.742 105.980,240.731 105.949 C 238.191 105.923,236.149 105.959,236.191 106.028 C 236.357 106.294,245.400 106.174,245.626 105.902 C 245.862 105.618,245.784 105.560,245.520 105.824 M209.962 105.986 C 210.100 106.075,210.326 106.148,210.465 106.148 C 210.688 106.148,210.688 106.130,210.465 105.986 C 210.326 105.896,210.100 105.823,209.962 105.823 C 209.739 105.823,209.739 105.841,209.962 105.986 M98.434 106.404 C 98.717 106.950,98.948 107.253,98.947 107.074 C 98.947 106.982,98.792 106.718,98.604 106.488 C 98.376 106.210,98.319 106.182,98.434 106.404 M211.302 106.312 C 211.440 106.406,211.773 106.484,212.041 106.486 C 212.685 106.489,212.551 106.392,211.720 106.253 C 211.241 106.173,211.122 106.189,211.302 106.312 M222.269 106.321 C 221.805 106.439,221.799 106.450,222.185 106.466 C 222.415 106.475,222.717 106.410,222.855 106.321 C 223.140 106.136,222.992 106.136,222.269 106.321 M213.227 106.657 C 213.546 106.792,215.453 106.889,215.306 106.763 C 215.268 106.729,214.709 106.660,214.064 106.608 C 213.356 106.551,213.025 106.571,213.227 106.657 M219.841 106.656 L 218.920 106.768 219.841 106.793 C 220.347 106.807,220.875 106.745,221.013 106.656 C 221.301 106.469,221.360 106.469,219.841 106.656 M29.407 107.702 L 29.106 108.246 29.451 107.828 C 29.757 107.456,29.893 107.158,29.756 107.158 C 29.729 107.158,29.572 107.403,29.407 107.702 M99.104 107.576 C 99.386 108.123,99.618 108.425,99.617 108.246 C 99.616 108.154,99.462 107.890,99.273 107.660 C 99.046 107.382,98.989 107.354,99.104 107.576 M28.564 109.166 C 28.313 109.627,28.144 110.004,28.188 110.004 C 28.300 110.004,29.152 108.459,29.079 108.387 C 29.047 108.355,28.815 108.705,28.564 109.166 M99.927 109.083 C 100.114 109.452,100.390 109.904,100.542 110.088 C 100.693 110.272,100.611 110.046,100.360 109.586 C 99.798 108.555,99.459 108.162,99.927 109.083 M100.820 110.594 C 100.943 110.951,102.330 113.353,102.412 113.353 C 102.460 113.353,102.217 112.844,101.872 112.223 C 101.258 111.115,100.703 110.255,100.820 110.594 M113.108 111.107 C 112.952 111.345,112.862 111.578,112.909 111.625 C 112.955 111.672,113.114 111.477,113.261 111.192 C 113.587 110.562,113.497 110.513,113.108 111.107 M26.371 113.018 C 26.228 113.294,26.149 113.520,26.195 113.520 C 26.241 113.520,26.395 113.294,26.538 113.018 C 26.681 112.742,26.760 112.516,26.714 112.516 C 26.668 112.516,26.514 112.742,26.371 113.018 M111.619 113.775 C 111.386 114.192,111.267 114.488,111.356 114.434 C 111.531 114.325,112.232 113.018,112.115 113.018 C 112.075 113.018,111.852 113.359,111.619 113.775 M391.907 120.497 C 391.846 120.558,391.796 120.652,391.796 120.706 C 391.796 120.760,393.641 120.782,395.898 120.756 C 398.392 120.727,400.000 120.645,400.000 120.547 C 400.000 120.364,392.089 120.315,391.907 120.497 M393.857 149.811 C 395.036 149.840,396.920 149.840,398.042 149.811 C 399.165 149.782,398.200 149.759,395.898 149.759 C 393.596 149.759,392.677 149.782,393.857 149.811 M176.810 163.382 L 176.894 167.518 176.939 163.511 C 176.964 161.307,176.926 159.446,176.855 159.375 C 176.785 159.304,176.764 161.107,176.810 163.382 M208.120 163.382 L 208.204 167.518 208.249 163.511 C 208.274 161.307,208.236 159.446,208.166 159.375 C 208.095 159.304,208.074 161.107,208.120 163.382 M225.774 163.332 C 225.774 165.634,225.797 166.599,225.826 165.476 C 225.855 164.354,225.855 162.470,225.826 161.291 C 225.797 160.111,225.774 161.030,225.774 163.332 M239.218 159.351 C 239.369 159.458,239.438 160.570,239.474 163.507 L 239.524 167.518 239.519 163.430 C 239.515 159.940,239.478 159.331,239.263 159.273 C 239.081 159.223,239.068 159.244,239.218 159.351 M257.084 163.332 C 257.084 165.634,257.107 166.599,257.136 165.476 C 257.165 164.354,257.165 162.470,257.136 161.291 C 257.108 160.111,257.084 161.030,257.084 163.332 M270.528 159.351 C 270.679 159.458,270.748 160.570,270.784 163.507 L 270.834 167.518 270.829 163.430 C 270.825 159.940,270.788 159.331,270.573 159.273 C 270.391 159.223,270.378 159.244,270.528 159.351 M288.394 163.332 C 288.394 165.634,288.418 166.599,288.446 165.476 C 288.475 164.354,288.475 162.470,288.447 161.291 C 288.418 160.111,288.394 161.030,288.394 163.332 M301.839 159.351 C 301.990 159.458,302.058 160.570,302.095 163.507 L 302.144 167.518 302.139 163.430 C 302.135 159.940,302.098 159.331,301.884 159.273 C 301.701 159.223,301.689 159.244,301.839 159.351 M319.704 163.332 C 319.704 165.634,319.728 166.599,319.757 165.476 C 319.786 164.354,319.786 162.470,319.757 161.291 C 319.728 160.111,319.704 161.030,319.704 163.332 M333.149 159.351 C 333.300 159.458,333.368 160.570,333.405 163.507 L 333.454 167.518 333.450 163.430 C 333.446 159.940,333.408 159.331,333.194 159.273 C 333.011 159.223,332.999 159.244,333.149 159.351 M351.014 163.332 C 351.014 165.634,351.038 166.599,351.067 165.476 C 351.096 164.354,351.096 162.470,351.067 161.291 C 351.038 160.111,351.015 161.030,351.014 163.332 M364.459 159.351 C 364.610 159.458,364.678 160.570,364.715 163.507 L 364.765 167.518 364.760 163.430 C 364.756 159.940,364.718 159.331,364.504 159.273 C 364.321 159.223,364.309 159.244,364.459 159.351 M382.286 163.374 C 382.321 167.525,382.379 167.046,382.460 161.950 C 382.484 160.454,382.447 159.229,382.378 159.230 C 382.308 159.230,382.267 161.095,382.286 163.374"/><path id="path3" fill="#727475" d="M176.715 4.018 C 176.715 6.275,176.739 7.198,176.768 6.069 C 176.797 4.941,176.797 3.095,176.768 1.967 C 176.739 0.839,176.715 1.762,176.715 4.018 M208.026 4.018 C 208.026 6.275,208.049 7.198,208.078 6.069 C 208.107 4.941,208.107 3.095,208.078 1.967 C 208.049 0.839,208.026 1.762,208.026 4.018 M239.336 4.018 C 239.336 6.275,239.359 7.198,239.388 6.069 C 239.417 4.941,239.417 3.095,239.388 1.967 C 239.359 0.839,239.336 1.762,239.336 4.018 M270.646 4.018 C 270.646 6.275,270.670 7.198,270.699 6.069 C 270.728 4.941,270.728 3.095,270.699 1.967 C 270.670 0.839,270.646 1.762,270.646 4.018 M301.956 4.018 C 301.956 6.275,301.980 7.198,302.009 6.069 C 302.038 4.941,302.038 3.095,302.009 1.967 C 301.980 0.839,301.956 1.762,301.956 4.018 M333.266 4.018 C 333.266 6.275,333.290 7.198,333.319 6.069 C 333.348 4.941,333.348 3.095,333.319 1.967 C 333.290 0.839,333.266 1.762,333.266 4.018 M364.375 3.975 L 364.337 8.033 357.765 8.079 L 351.193 8.125 357.770 8.164 C 362.964 8.196,364.364 8.160,364.429 7.992 C 364.474 7.874,364.489 6.010,364.462 3.848 L 364.414 -0.084 364.375 3.975 M167.344 8.246 C 167.135 8.797,167.354 159.286,167.564 159.329 C 167.681 159.353,167.700 159.334,167.606 159.287 C 167.489 159.229,167.434 135.097,167.434 83.706 L 167.434 8.210 171.997 8.162 L 176.559 8.115 171.991 8.076 C 168.462 8.046,167.406 8.084,167.344 8.246 M197.949 8.162 C 199.768 8.189,202.744 8.189,204.563 8.162 C 206.381 8.135,204.893 8.113,201.256 8.113 C 197.618 8.113,196.130 8.135,197.949 8.162 M229.081 8.162 C 230.893 8.189,233.907 8.189,235.778 8.162 C 237.649 8.135,236.166 8.113,232.482 8.113 C 228.799 8.113,227.268 8.135,229.081 8.162 M260.391 8.162 C 262.203 8.189,265.217 8.189,267.088 8.162 C 268.959 8.135,267.476 8.113,263.792 8.113 C 260.109 8.113,258.578 8.135,260.391 8.162 M291.701 8.162 C 293.513 8.189,296.527 8.189,298.398 8.162 C 300.269 8.135,298.786 8.113,295.103 8.113 C 291.419 8.113,289.888 8.135,291.701 8.162 M323.011 8.162 C 324.824 8.189,327.837 8.189,329.708 8.162 C 331.579 8.135,330.096 8.113,326.413 8.113 C 322.729 8.113,321.198 8.135,323.011 8.162 M384.094 8.155 C 388.043 8.273,391.925 8.277,391.854 8.162 C 391.811 8.093,389.690 8.053,387.140 8.072 C 384.590 8.091,383.219 8.128,384.094 8.155 M55.865 58.225 C 55.822 58.294,75.152 58.332,98.820 58.308 L 141.853 58.266 141.749 58.727 C 141.662 59.112,141.675 59.138,141.828 58.885 C 142.334 58.051,144.997 58.100,98.885 58.100 C 75.267 58.100,55.908 58.156,55.865 58.225 M238.562 61.071 C 239.880 61.100,241.989 61.100,243.250 61.071 C 244.511 61.043,243.432 61.020,240.854 61.020 C 238.275 61.020,237.244 61.043,238.562 61.071 M136.525 67.979 C 136.413 68.091,122.871 68.133,96.072 68.104 C 73.916 68.081,55.822 68.118,55.865 68.188 C 56.034 68.460,136.399 68.335,136.626 68.062 C 136.860 67.780,136.785 67.719,136.525 67.979 M215.864 72.117 C 216.118 72.155,216.532 72.155,216.785 72.117 C 217.039 72.078,216.831 72.047,216.325 72.047 C 215.818 72.047,215.611 72.078,215.864 72.117 M212.306 72.332 C 211.975 72.438,211.958 72.466,212.223 72.466 C 212.407 72.466,212.746 72.405,212.976 72.332 C 213.308 72.225,213.325 72.197,213.060 72.197 C 212.876 72.197,212.537 72.258,212.306 72.332 M219.674 72.332 C 219.904 72.405,220.280 72.464,220.511 72.462 C 220.887 72.460,220.878 72.446,220.427 72.332 C 219.719 72.151,219.111 72.151,219.674 72.332 M265.969 72.332 C 265.758 72.422,265.727 72.475,265.885 72.475 C 266.023 72.475,266.287 72.411,266.471 72.332 C 266.682 72.241,266.713 72.188,266.555 72.188 C 266.417 72.188,266.153 72.252,265.969 72.332 M285.391 72.332 C 284.965 72.515,285.405 72.515,285.977 72.332 C 286.314 72.224,286.330 72.196,286.061 72.193 C 285.877 72.190,285.576 72.252,285.391 72.332 M221.766 72.666 C 221.951 72.746,222.214 72.810,222.352 72.810 C 222.511 72.810,222.480 72.757,222.269 72.666 C 222.085 72.587,221.821 72.522,221.683 72.522 C 221.524 72.522,221.555 72.576,221.766 72.666 M245.676 74.173 C 245.676 74.680,245.707 74.887,245.746 74.634 C 245.784 74.380,245.784 73.966,245.746 73.713 C 245.707 73.460,245.676 73.667,245.676 74.173 M259.234 74.341 C 259.234 74.755,259.266 74.925,259.306 74.717 C 259.346 74.510,259.346 74.171,259.306 73.964 C 259.266 73.757,259.234 73.926,259.234 74.341 M259.051 75.880 C 259.021 76.656,259.219 77.041,259.453 76.662 C 259.527 76.543,259.502 76.510,259.391 76.579 C 259.269 76.654,259.185 76.420,259.144 75.894 L 259.081 75.094 259.051 75.880 M228.541 76.057 C 229.234 76.796,229.385 76.929,229.385 76.803 C 229.385 76.777,229.027 76.419,228.589 76.008 L 227.794 75.262 228.541 76.057 M235.985 78.945 C 235.985 80.787,236.009 81.563,236.039 80.670 C 236.069 79.777,236.069 78.270,236.040 77.322 C 236.010 76.373,235.985 77.103,235.985 78.945 M204.008 76.392 L 203.516 76.936 204.060 76.444 C 204.568 75.986,204.681 75.848,204.552 75.848 C 204.523 75.848,204.278 76.093,204.008 76.392 M393.931 75.973 C 395.059 76.002,396.905 76.002,398.033 75.973 C 399.161 75.944,398.238 75.920,395.982 75.920 C 393.725 75.920,392.802 75.944,393.931 75.973 M278.697 77.372 C 278.360 77.842,278.163 78.177,278.261 78.117 C 278.465 77.991,279.503 76.517,279.388 76.517 C 279.346 76.517,279.035 76.902,278.697 77.372 M217.204 77.972 C 217.365 78.014,217.629 78.014,217.790 77.972 C 217.951 77.930,217.819 77.896,217.497 77.896 C 217.175 77.896,217.043 77.930,217.204 77.972 M220.511 78.914 C 220.511 78.943,220.756 79.188,221.055 79.458 L 221.599 79.950 221.107 79.406 C 220.649 78.898,220.511 78.784,220.511 78.914 M201.976 81.540 C 201.976 82.047,202.007 82.254,202.045 82.001 C 202.084 81.748,202.084 81.333,202.045 81.080 C 202.007 80.827,201.976 81.034,201.976 81.540 M281.424 81.164 C 281.129 81.507,280.908 81.875,280.997 81.875 C 281.031 81.875,281.226 81.649,281.430 81.373 C 281.834 80.827,281.830 80.691,281.424 81.164 M211.015 81.792 C 211.016 82.252,211.049 82.420,211.087 82.166 C 211.126 81.911,211.125 81.535,211.085 81.329 C 211.045 81.123,211.014 81.331,211.015 81.792 M231.265 81.540 C 231.265 81.863,231.300 81.995,231.342 81.833 C 231.384 81.672,231.384 81.409,231.342 81.247 C 231.300 81.086,231.265 81.218,231.265 81.540 M84.392 81.708 C 84.393 81.846,84.550 82.147,84.740 82.378 C 84.930 82.608,85.037 82.702,84.977 82.586 C 84.478 81.622,84.389 81.488,84.392 81.708 M95.871 81.959 C 96.022 82.189,96.173 82.378,96.207 82.378 C 96.240 82.378,96.182 82.189,96.077 81.959 C 95.972 81.729,95.821 81.540,95.742 81.540 C 95.662 81.540,95.721 81.729,95.871 81.959 M118.485 81.666 C 118.443 81.735,120.971 81.771,124.104 81.745 C 129.503 81.702,129.795 81.715,129.687 81.996 C 129.601 82.223,129.621 82.248,129.770 82.099 C 130.277 81.596,129.717 81.540,124.152 81.540 C 121.078 81.540,118.528 81.597,118.485 81.666 M96.281 82.629 C 96.282 82.721,96.436 82.985,96.624 83.215 C 96.852 83.493,96.909 83.521,96.794 83.298 C 96.511 82.752,96.280 82.450,96.281 82.629 M298.750 83.466 C 298.752 83.926,298.784 84.095,298.823 83.840 C 298.861 83.586,298.860 83.209,298.820 83.003 C 298.781 82.797,298.749 83.005,298.750 83.466 M201.973 83.633 C 201.975 84.094,202.007 84.262,202.046 84.008 C 202.084 83.753,202.083 83.377,202.043 83.171 C 202.004 82.965,201.972 83.173,201.973 83.633 M224.990 83.005 C 226.118 83.034,227.964 83.034,229.092 83.005 C 230.220 82.976,229.297 82.952,227.041 82.952 C 224.784 82.952,223.861 82.976,224.990 83.005 M269.696 89.290 C 269.719 92.717,269.760 96.312,269.786 97.279 C 269.812 98.246,269.843 95.571,269.856 91.335 C 269.869 87.099,269.829 83.504,269.766 83.346 C 269.704 83.187,269.672 85.862,269.696 89.290 M289.285 89.541 C 289.309 93.106,289.350 96.815,289.375 97.781 C 289.401 98.748,289.433 95.961,289.446 91.586 C 289.459 87.212,289.419 83.504,289.356 83.346 C 289.294 83.188,289.262 85.975,289.285 89.541 M236.158 89.410 C 236.158 92.863,236.180 94.276,236.207 92.549 C 236.235 90.823,236.235 87.997,236.207 86.270 C 236.180 84.544,236.158 85.956,236.158 89.410 M116.959 84.318 C 116.802 84.556,116.704 84.780,116.739 84.815 C 116.774 84.850,116.935 84.655,117.097 84.382 C 117.457 83.771,117.350 83.721,116.959 84.318 M303.328 84.477 C 303.270 84.627,303.239 86.005,303.257 87.540 L 303.292 90.331 303.383 87.317 C 303.482 84.059,303.482 84.075,303.328 84.477 M215.404 85.057 C 215.588 85.136,215.852 85.200,215.990 85.200 C 216.148 85.200,216.117 85.147,215.906 85.057 C 215.722 84.977,215.458 84.913,215.320 84.913 C 215.162 84.913,215.193 84.966,215.404 85.057 M116.289 85.490 C 116.133 85.728,116.034 85.952,116.069 85.987 C 116.104 86.022,116.265 85.827,116.427 85.554 C 116.788 84.943,116.680 84.893,116.289 85.490 M219.757 85.726 C 219.941 85.805,220.243 85.868,220.427 85.865 C 220.696 85.861,220.680 85.834,220.343 85.726 C 219.771 85.543,219.331 85.543,219.757 85.726 M245.530 89.410 C 245.530 91.482,245.554 92.329,245.583 91.293 C 245.613 90.257,245.613 88.562,245.583 87.526 C 245.554 86.490,245.530 87.338,245.530 89.410 M127.172 86.494 C 127.016 86.732,126.917 86.956,126.952 86.991 C 126.988 87.027,127.149 86.832,127.310 86.558 C 127.671 85.947,127.563 85.897,127.172 86.494 M115.133 87.610 L 114.832 88.154 115.177 87.735 C 115.483 87.364,115.619 87.066,115.482 87.066 C 115.456 87.066,115.299 87.311,115.133 87.610 M126.502 87.666 C 126.346 87.904,126.247 88.128,126.283 88.163 C 126.318 88.199,126.479 88.004,126.640 87.730 C 127.001 87.119,126.893 87.069,126.502 87.666 M259.598 93.093 C 259.598 96.086,259.620 97.311,259.648 95.814 C 259.676 94.318,259.676 91.869,259.648 90.373 C 259.620 88.876,259.598 90.100,259.598 93.093 M279.186 92.507 C 279.186 94.994,279.209 96.034,279.238 94.820 C 279.266 93.605,279.266 91.571,279.238 90.299 C 279.209 89.027,279.186 90.021,279.186 92.507 M114.290 89.074 C 114.040 89.535,113.870 89.912,113.914 89.912 C 114.026 89.912,114.878 88.367,114.806 88.295 C 114.773 88.263,114.541 88.613,114.290 89.074 M230.215 89.452 C 230.909 90.191,231.059 90.324,231.059 90.198 C 231.059 90.171,230.701 89.813,230.264 89.403 L 229.468 88.656 230.215 89.452 M89.326 90.582 C 89.469 90.858,89.624 91.084,89.670 91.084 C 89.716 91.084,89.636 90.858,89.494 90.582 C 89.351 90.306,89.196 90.080,89.150 90.080 C 89.104 90.080,89.183 90.306,89.326 90.582 M124.677 90.959 L 124.376 91.503 124.721 91.084 C 125.027 90.713,125.163 90.414,125.026 90.414 C 124.999 90.414,124.842 90.659,124.677 90.959 M90.080 91.921 C 90.267 92.290,90.459 92.591,90.505 92.591 C 90.551 92.591,90.435 92.290,90.247 91.921 C 90.059 91.553,89.868 91.252,89.822 91.252 C 89.776 91.252,89.892 91.553,90.080 91.921 M250.040 93.010 C 250.041 93.931,250.069 94.286,250.103 93.799 C 250.137 93.313,250.136 92.559,250.102 92.125 C 250.068 91.691,250.040 92.089,250.040 93.010 M393.931 91.712 C 395.059 91.740,396.905 91.740,398.033 91.712 C 399.161 91.683,398.238 91.659,395.982 91.659 C 393.725 91.659,392.802 91.683,393.931 91.712 M214.023 92.706 C 214.184 92.749,214.447 92.749,214.609 92.706 C 214.770 92.664,214.638 92.630,214.316 92.630 C 213.993 92.630,213.861 92.664,214.023 92.706 M102.721 94.098 C 102.864 94.374,103.018 94.600,103.064 94.600 C 103.110 94.600,103.031 94.374,102.888 94.098 C 102.745 93.822,102.591 93.596,102.545 93.596 C 102.499 93.596,102.578 93.822,102.721 94.098 M91.258 94.014 C 91.258 94.106,91.413 94.370,91.601 94.600 C 91.829 94.878,91.886 94.906,91.771 94.684 C 91.488 94.138,91.257 93.835,91.258 94.014 M232.626 95.772 C 232.626 96.647,232.655 97.005,232.689 96.568 C 232.723 96.130,232.723 95.414,232.689 94.977 C 232.655 94.540,232.626 94.897,232.626 95.772 M103.391 95.270 C 103.533 95.546,103.688 95.772,103.734 95.772 C 103.780 95.772,103.701 95.546,103.558 95.270 C 103.415 94.994,103.261 94.768,103.215 94.768 C 103.168 94.768,103.248 94.994,103.391 95.270 M121.982 95.703 C 121.826 95.941,121.727 96.165,121.762 96.200 C 121.797 96.235,121.958 96.041,122.120 95.767 C 122.480 95.156,122.373 95.106,121.982 95.703 M223.567 96.861 C 223.569 97.229,223.603 97.360,223.643 97.152 C 223.683 96.943,223.681 96.642,223.640 96.482 C 223.598 96.322,223.565 96.492,223.567 96.861 M235.985 99.958 C 235.985 101.846,236.010 102.618,236.039 101.674 C 236.069 100.730,236.069 99.186,236.039 98.242 C 236.010 97.298,235.985 98.070,235.985 99.958 M104.964 98.033 C 105.247 98.579,105.478 98.882,105.477 98.702 C 105.477 98.610,105.322 98.347,105.134 98.116 C 104.906 97.838,104.849 97.810,104.964 98.033 M108.916 98.619 C 108.773 98.895,108.694 99.121,108.740 99.121 C 108.786 99.121,108.940 98.895,109.083 98.619 C 109.226 98.342,109.305 98.116,109.259 98.116 C 109.213 98.116,109.059 98.342,108.916 98.619 M211.266 98.369 C 211.361 98.555,211.615 98.855,211.830 99.038 C 212.209 99.358,212.208 99.352,211.807 98.869 C 211.140 98.066,211.084 98.014,211.266 98.369 M119.983 99.288 C 119.732 99.748,119.563 100.126,119.607 100.126 C 119.719 100.126,120.571 98.581,120.498 98.509 C 120.466 98.476,120.234 98.827,119.983 99.288 M105.735 99.456 C 105.877 99.732,106.032 99.958,106.078 99.958 C 106.124 99.958,106.045 99.732,105.902 99.456 C 105.759 99.180,105.605 98.954,105.559 98.954 C 105.513 98.954,105.592 99.180,105.735 99.456 M108.246 99.791 C 108.103 100.067,108.024 100.293,108.070 100.293 C 108.116 100.293,108.271 100.067,108.414 99.791 C 108.556 99.514,108.636 99.288,108.590 99.288 C 108.544 99.288,108.389 99.514,108.246 99.791 M269.634 101.716 C 269.634 102.913,269.661 103.381,269.693 102.756 C 269.725 102.130,269.725 101.151,269.693 100.579 C 269.660 100.007,269.634 100.519,269.634 101.716 M289.223 102.470 C 289.223 103.621,289.250 104.092,289.283 103.516 C 289.315 102.941,289.315 101.999,289.283 101.423 C 289.250 100.848,289.223 101.319,289.223 102.470 M217.204 100.915 C 217.457 100.954,217.871 100.954,218.125 100.915 C 218.378 100.877,218.171 100.845,217.664 100.845 C 217.158 100.845,216.951 100.877,217.204 100.915 M95.421 101.381 C 95.703 101.927,95.935 102.230,95.933 102.051 C 95.933 101.959,95.778 101.695,95.590 101.465 C 95.362 101.187,95.306 101.159,95.421 101.381 M229.963 102.512 L 229.301 103.223 230.013 102.561 C 230.674 101.946,230.801 101.800,230.674 101.800 C 230.647 101.800,230.327 102.120,229.963 102.512 M204.102 102.553 C 204.415 102.876,204.708 103.139,204.754 103.139 C 204.800 103.139,204.582 102.876,204.270 102.553 C 203.957 102.231,203.664 101.967,203.618 101.967 C 203.572 101.967,203.790 102.231,204.102 102.553 M249.864 104.563 C 249.864 105.115,249.896 105.321,249.933 105.020 C 249.970 104.719,249.969 104.267,249.931 104.015 C 249.893 103.764,249.863 104.010,249.864 104.563 M227.794 104.144 C 227.518 104.327,227.367 104.475,227.459 104.474 C 227.627 104.471,228.537 103.819,228.380 103.814 C 228.334 103.813,228.070 103.961,227.794 104.144 M245.676 104.646 C 245.676 105.153,245.707 105.360,245.746 105.107 C 245.784 104.853,245.784 104.439,245.746 104.186 C 245.707 103.933,245.676 104.140,245.676 104.646 M298.918 104.563 C 298.919 105.023,298.951 105.192,298.990 104.937 C 299.028 104.682,299.027 104.306,298.988 104.100 C 298.948 103.894,298.916 104.102,298.918 104.563 M97.118 104.395 C 97.119 104.487,97.273 104.751,97.462 104.981 C 97.689 105.259,97.746 105.287,97.631 105.065 C 97.349 104.519,97.117 104.216,97.118 104.395 M30.851 104.856 C 30.598 105.174,30.283 105.818,30.379 105.818 C 30.426 105.818,30.582 105.592,30.725 105.315 L 30.985 104.811 55.158 104.854 C 68.454 104.878,79.297 104.841,79.254 104.772 C 79.109 104.537,31.037 104.620,30.851 104.856 M393.931 105.106 C 395.059 105.135,396.905 105.135,398.033 105.106 C 399.161 105.077,398.238 105.054,395.982 105.054 C 393.725 105.054,392.802 105.077,393.931 105.106 M209.641 105.711 C 209.680 105.744,209.937 105.822,210.213 105.884 C 210.580 105.966,210.648 105.950,210.465 105.826 C 210.239 105.673,209.473 105.566,209.641 105.711 M213.395 106.498 C 214.243 106.673,214.928 106.665,214.232 106.488 C 213.956 106.418,213.504 106.360,213.227 106.360 C 212.805 106.359,212.832 106.381,213.395 106.498 M220.092 106.488 C 219.396 106.665,220.081 106.673,220.929 106.498 C 221.492 106.381,221.519 106.359,221.097 106.360 C 220.820 106.360,220.368 106.418,220.092 106.488 M113.777 110.270 C 113.621 110.508,113.522 110.732,113.558 110.767 C 113.593 110.802,113.754 110.607,113.915 110.334 C 114.276 109.723,114.168 109.673,113.777 110.270 M27.549 110.605 C 27.393 110.843,27.294 111.067,27.329 111.102 C 27.364 111.137,27.525 110.942,27.687 110.669 C 28.048 110.058,27.940 110.008,27.549 110.605 M25.705 113.847 C 25.406 114.426,25.381 114.692,25.627 114.692 C 25.725 114.692,25.759 114.619,25.704 114.530 C 25.649 114.440,25.722 114.139,25.866 113.860 C 26.010 113.581,26.091 113.353,26.045 113.353 C 25.999 113.353,25.846 113.575,25.705 113.847 M102.303 113.618 C 102.304 113.702,102.498 113.997,102.735 114.274 L 103.167 114.776 102.789 114.190 C 102.304 113.438,102.302 113.436,102.303 113.618 M393.931 120.845 C 395.059 120.874,396.905 120.874,398.033 120.845 C 399.161 120.816,398.238 120.792,395.982 120.792 C 393.725 120.792,392.802 120.816,393.931 120.845 M176.715 163.416 C 176.715 165.672,176.739 166.595,176.768 165.467 C 176.797 164.339,176.797 162.493,176.768 161.365 C 176.739 160.237,176.715 161.159,176.715 163.416 M208.026 163.416 C 208.026 165.672,208.049 166.595,208.078 165.467 C 208.107 164.339,208.107 162.493,208.078 161.365 C 208.049 160.237,208.026 161.159,208.026 163.416 M239.336 163.416 C 239.336 165.672,239.359 166.595,239.388 165.467 C 239.417 164.339,239.417 162.493,239.388 161.365 C 239.359 160.237,239.336 161.159,239.336 163.416 M270.646 163.416 C 270.646 165.672,270.670 166.595,270.699 165.467 C 270.728 164.339,270.728 162.493,270.699 161.365 C 270.670 160.237,270.646 161.159,270.646 163.416 M301.956 163.416 C 301.956 165.672,301.980 166.595,302.009 165.467 C 302.038 164.339,302.038 162.493,302.009 161.365 C 301.980 160.237,301.956 161.159,301.956 163.416 M333.266 163.416 C 333.266 165.672,333.290 166.595,333.319 165.467 C 333.348 164.339,333.348 162.493,333.319 161.365 C 333.290 160.237,333.266 161.159,333.266 163.416 M364.409 163.416 C 364.409 165.672,364.433 166.595,364.462 165.467 C 364.491 164.339,364.491 162.493,364.462 161.365 C 364.433 160.237,364.409 161.159,364.409 163.416"/><path id="path4" fill="#7c7c7c" d="M364.504 4.052 C 364.458 6.327,364.478 8.130,364.549 8.059 C 364.620 7.988,364.657 6.127,364.632 3.923 L 364.587 -0.084 364.504 4.052 M194.425 4.050 C 194.406 6.232,194.447 8.052,194.517 8.095 C 194.586 8.138,194.623 6.993,194.599 5.552 C 194.517 0.589,194.460 0.093,194.425 4.050 M391.875 13.018 L 391.879 17.664 395.982 17.669 L 400.084 17.674 396.026 17.624 L 391.968 17.575 391.920 12.973 L 391.871 8.372 391.875 13.018 M391.872 39.933 C 391.872 43.617,391.894 45.100,391.921 43.229 C 391.948 41.358,391.948 38.344,391.921 36.531 C 391.894 34.719,391.872 36.249,391.872 39.933 M393.931 46.839 C 395.059 46.868,396.905 46.868,398.033 46.839 C 399.161 46.810,398.238 46.787,395.982 46.787 C 393.725 46.787,392.802 46.810,393.931 46.839 M55.865 58.393 C 55.795 58.506,84.719 58.506,126.329 58.392 C 134.893 58.368,122.560 58.331,98.922 58.308 C 75.283 58.286,55.908 58.324,55.865 58.393 M238.645 60.904 C 239.917 60.932,241.951 60.932,243.166 60.904 C 244.381 60.875,243.340 60.852,240.854 60.852 C 238.368 60.852,237.374 60.875,238.645 60.904 M245.698 65.216 C 245.698 67.334,245.722 68.177,245.751 67.090 C 245.780 66.003,245.780 64.270,245.751 63.239 C 245.721 62.208,245.697 63.098,245.698 65.216 M391.872 62.495 C 391.828 62.610,391.812 65.643,391.838 69.234 L 391.883 75.764 391.923 69.111 L 391.963 62.459 396.023 62.411 L 400.084 62.363 396.018 62.324 C 392.887 62.294,391.934 62.334,391.872 62.495 M238.635 69.610 C 239.810 69.639,241.731 69.639,242.905 69.610 C 244.079 69.581,243.118 69.558,240.770 69.558 C 238.422 69.558,237.461 69.581,238.635 69.610 M214.692 72.112 C 214.853 72.154,215.117 72.154,215.278 72.112 C 215.440 72.070,215.308 72.035,214.985 72.035 C 214.663 72.035,214.531 72.070,214.692 72.112 M217.371 72.112 C 217.532 72.154,217.796 72.154,217.957 72.112 C 218.118 72.070,217.987 72.035,217.664 72.035 C 217.342 72.035,217.210 72.070,217.371 72.112 M287.191 72.112 C 287.352 72.154,287.616 72.154,287.777 72.112 C 287.938 72.070,287.807 72.035,287.484 72.035 C 287.162 72.035,287.030 72.070,287.191 72.112 M245.691 77.187 C 245.691 78.430,245.718 78.939,245.750 78.317 C 245.782 77.696,245.782 76.679,245.750 76.057 C 245.718 75.435,245.691 75.944,245.691 77.187 M204.343 75.889 L 203.851 76.434 204.395 75.942 C 204.902 75.483,205.016 75.345,204.887 75.345 C 204.858 75.345,204.613 75.590,204.343 75.889 M215.697 77.977 C 215.950 78.015,216.365 78.015,216.618 77.977 C 216.871 77.938,216.664 77.907,216.157 77.907 C 215.651 77.907,215.444 77.938,215.697 77.977 M235.975 83.717 C 235.975 84.592,236.003 84.950,236.038 84.512 C 236.072 84.075,236.072 83.359,236.038 82.922 C 236.003 82.484,235.975 82.842,235.975 83.717 M307.881 84.177 C 310.120 84.204,313.737 84.204,315.918 84.177 C 318.099 84.151,316.266 84.129,311.846 84.129 C 307.426 84.129,305.641 84.151,307.881 84.177 M320.370 87.401 C 320.370 89.012,320.395 89.671,320.426 88.866 C 320.457 88.060,320.457 86.741,320.426 85.936 C 320.395 85.130,320.370 85.789,320.370 87.401 M393.931 91.544 C 395.059 91.573,396.905 91.573,398.033 91.544 C 399.161 91.515,398.238 91.491,395.982 91.491 C 393.725 91.491,392.802 91.515,393.931 91.544 M391.872 98.368 C 391.872 102.051,391.894 103.534,391.921 101.663 C 391.948 99.792,391.948 96.778,391.921 94.966 C 391.894 93.153,391.872 94.684,391.872 98.368 M235.975 95.103 C 235.975 95.977,236.003 96.335,236.038 95.898 C 236.072 95.460,236.072 94.745,236.038 94.307 C 236.003 93.870,235.975 94.228,235.975 95.103 M203.819 94.893 C 204.998 94.922,206.882 94.922,208.005 94.893 C 209.127 94.864,208.162 94.840,205.860 94.840 C 203.558 94.840,202.639 94.864,203.819 94.893 M269.621 98.702 C 269.622 99.255,269.653 99.461,269.690 99.160 C 269.727 98.859,269.727 98.407,269.688 98.155 C 269.650 97.904,269.620 98.150,269.621 98.702 M289.209 99.623 C 289.209 100.130,289.240 100.337,289.279 100.084 C 289.317 99.830,289.317 99.416,289.279 99.163 C 289.240 98.910,289.209 99.117,289.209 99.623 M245.691 101.632 C 245.691 102.876,245.718 103.384,245.750 102.763 C 245.782 102.141,245.782 101.124,245.750 100.502 C 245.718 99.881,245.691 100.389,245.691 101.632 M298.932 102.135 C 298.932 103.102,298.959 103.497,298.993 103.014 C 299.027 102.530,299.027 101.739,298.993 101.256 C 298.959 100.772,298.932 101.168,298.932 102.135 M249.871 102.219 C 249.871 103.047,249.899 103.407,249.934 103.019 C 249.969 102.630,249.970 101.952,249.935 101.512 C 249.900 101.072,249.872 101.390,249.871 102.219 M279.337 103.558 C 279.338 104.295,279.367 104.575,279.403 104.181 C 279.438 103.788,279.438 103.185,279.402 102.842 C 279.366 102.499,279.337 102.821,279.337 103.558 M259.738 104.730 C 259.739 105.190,259.772 105.359,259.810 105.104 C 259.849 104.850,259.848 104.473,259.808 104.267 C 259.768 104.061,259.737 104.270,259.738 104.730 M334.837 106.111 C 336.339 106.139,338.750 106.139,340.195 106.111 C 341.639 106.083,340.410 106.060,337.463 106.060 C 334.517 106.061,333.335 106.083,334.837 106.111 M216.199 106.779 C 216.729 106.812,217.595 106.812,218.125 106.779 C 218.654 106.746,218.221 106.719,217.162 106.719 C 216.103 106.719,215.670 106.746,216.199 106.779 M52.491 114.525 L 25.701 114.610 52.439 114.651 C 70.128 114.678,79.212 114.636,79.280 114.525 C 79.337 114.433,79.360 114.376,79.332 114.399 C 79.303 114.421,67.225 114.478,52.491 114.525 M105.107 114.650 C 106.235 114.679,108.081 114.679,109.209 114.650 C 110.337 114.621,109.414 114.597,107.158 114.597 C 104.902 114.597,103.979 114.621,105.107 114.650 M391.877 127.585 L 391.879 134.198 395.898 134.203 L 399.916 134.207 395.942 134.158 L 391.967 134.109 391.920 127.540 L 391.874 120.971 391.877 127.585 M391.869 154.458 C 391.869 157.036,391.893 158.068,391.921 156.750 C 391.949 155.432,391.949 153.323,391.921 152.062 C 391.892 150.801,391.869 151.879,391.869 154.458 M169.997 159.355 C 171.269 159.384,173.304 159.383,174.518 159.355 C 175.733 159.326,174.692 159.303,172.206 159.303 C 169.720 159.303,168.726 159.327,169.997 159.355 M194.466 159.443 C 194.421 159.560,194.406 161.424,194.433 163.587 L 194.481 167.518 194.520 163.459 L 194.558 159.401 201.298 159.355 L 208.037 159.310 201.292 159.270 C 195.963 159.238,194.531 159.274,194.466 159.443 M229.081 159.355 C 230.893 159.382,233.907 159.382,235.778 159.355 C 237.649 159.328,236.166 159.306,232.482 159.306 C 228.799 159.306,227.268 159.328,229.081 159.355 M260.391 159.355 C 262.203 159.382,265.217 159.382,267.088 159.355 C 268.959 159.328,267.476 159.306,263.792 159.306 C 260.109 159.306,258.578 159.328,260.391 159.355 M291.701 159.355 C 293.513 159.382,296.527 159.382,298.398 159.355 C 300.269 159.328,298.786 159.306,295.103 159.306 C 291.419 159.306,289.888 159.328,291.701 159.355 M323.011 159.355 C 324.824 159.382,327.837 159.382,329.708 159.355 C 331.579 159.328,330.096 159.306,326.413 159.306 C 322.729 159.306,321.198 159.328,323.011 159.355 M354.321 159.355 C 356.134 159.382,359.148 159.382,361.019 159.355 C 362.889 159.328,361.406 159.306,357.723 159.306 C 354.039 159.306,352.509 159.328,354.321 159.355 M384.805 159.355 C 386.072 159.383,388.144 159.383,389.410 159.355 C 390.676 159.327,389.640 159.303,387.108 159.303 C 384.575 159.303,383.539 159.327,384.805 159.355 M364.576 163.416 C 364.576 165.672,364.600 166.595,364.629 165.467 C 364.658 164.339,364.658 162.493,364.629 161.365 C 364.600 160.237,364.576 161.159,364.576 163.416"/></g></svg>