<svg xmlns="http://www.w3.org/2000/svg" role="img" viewBox="17.28 17.78 921.44 545.44"><path fill="#01874a" fill-opacity="1" d="M896.76748 35.48258c-1.36709-.01058-2.73481.10792-4.09655.34618-5.57932.97616-9.56481 3.08201-13.58788 7.15455-2.87263 2.90798-3.88004 4.35248-5.36591 7.78923-3.37187 7.79901-2.17164 17.39158 3.02914 24.3774 3.62112 4.86398 9.05062 8.26867 15.20342 9.49132 2.44818.48641 6.62611.4888 9.20283 0 9.63512-1.82778 17.02159-8.74989 19.61731-18.40566.38208-1.42122.49045-2.72322.49044-5.97174 0-4.5959-.29015-6.15408-1.81749-9.77981-3.7698-8.94922-13.10564-14.92739-22.67531-15.00147zm-684.6731 1.64439c-10.123.07027-20.59473.6502-30.17604 1.73094-36.22843 4.08649-66.51555 15.5986-89.57612 34.04181-17.03783 13.62651-30.67296 30.63441-38.6288 48.20666-6.97936 15.41552-11.18822 31.80981-12.86665 50.22609-.46527 5.10512-.60416 17.61783-.25964 23.0792 2.25977 35.8226 15.31936 66.86463 37.79218 89.89345 15.06512 15.43786 34.40525 29.50638 54.3515 39.49428 12.71732 6.368 23.36438 10.4438 46.33148 17.7421 7.42192 2.3584 15.60573 5.007 18.17486 5.8852 18.71135 6.3961 31.05367 12.4579 39.23463 19.2711 3.8087 3.172 5.7484 5.5289 8.597 10.501 3.66218 6.3921 4.71263 9.7375 4.90433 15.5208.35572 10.7324-2.93073 19.4775-9.92406 26.4546-4.41222 4.4019-9.62383 7.1953-15.95349 8.5681-2.92927.6352-9.17297.7659-12.26082.2596-5.01046-.8217-10.41841-2.9917-14.68414-5.914-2.4762-1.6964-6.41873-5.4499-8.07771-7.7028-3.70916-5.0369-7.10989-13.1886-8.68355-20.7712-1.18262-5.6984-1.32706-7.3234-1.32705-15.2611v-7.5873H35.6828l-.1731.6923c-.22823.9095.09748 15.8732.43274 20.1943 1.04107 13.4191 2.3278 21.891 4.93318 32.3109 4.27524 17.0986 10.74988 32.5088 19.64616 46.7066 10.65398 17.0029 25.6963 32.3441 42.89845 43.7927 27.21243 18.1107 61.11297 28.5285 100.68298 30.9262 5.1815.314 21.16137.3059 25.7333 0 54.50435-3.6475 102.35278-29.5647 132.50342-71.8052 3.39904-4.7621 8.06531-12.2043 10.18369-16.2131l1.55785-2.9138v81.3542h183.47958V427.3384h76.73831l76.73832-.0289-1.93288-.6635c-7.22161-2.4589-12.56208-6.9824-16.90551-14.3091l-1.5867-2.6541H557.56105v-19.7327h127.74333l-.17309-1.4713c-.08831-.8208-.22472-4.4009-.31734-7.9335l-.1731-6.4045h-127.0798v-67.79505c.01835-60.68345.08326-67.68607.43273-66.69886l.37504 1.09626h193.69212l-5.5967-2.30792c-10.78616-4.41081-20.10593-8.83534-27.31999-12.98205l-4.09656-2.36562H557.56105V203.3837h135.47486l-.49043-.72122c-.79243-1.12183-2.25134-4.17527-3.0003-6.26023-.87553-2.43735-1.47131-5.7685-1.4713-8.36621v-2.04828H525.82716l2.30792-2.39446c9.66888-10.11377 17.0055-23.99543 20.05005-37.96528 1.5122-6.93871 1.71085-9.10669 1.70209-17.77097-.00867-8.57069-.28086-11.17927-1.81749-18.03062-4.48814-20.01123-17.01493-38.04651-34.388-49.56257-19.02671-12.61213-42.2607-16.64778-64.50634-11.16456-30.31559 7.47249-53.76092 31.88163-60.0636 62.51576-1.18837 5.77608-1.58624 9.99661-1.58669 16.38623-.00042 6.19723.34842 10.16602 1.47129 15.92464 2.89949 14.8703 10.21786 29.02655 20.80013 40.24435l1.70209 1.81748h-23.82927l-.46158-3.83691c-1.16961-9.78364-3.63366-22.23833-6.11599-30.83958-5.01712-17.38435-14.75551-36.76779-25.90639-51.61084C326.8702 62.0098 284.28191 40.92002 229.66342 37.5597c-5.54672-.34124-11.49523-.47489-17.56904-.43273zm684.55771 1.03856c10.37986-.06705 19.50603 7.03185 21.78099 18.03062.50118 2.42295.35931 7.39806-.28849 9.77981-.64317 2.36451-2.53537 6.02106-4.15426 8.04887-2.75029 3.44508-6.48887 6.01484-10.76067 7.41419-2.16406.70881-2.89652.81548-5.97174.89432-3.59346.09222-5.56407-.17309-8.04887-1.09626-3.60166-1.33814-7.20479-3.77841-9.31823-6.31793-7.02753-8.4444-7.26582-19.7784-.60583-28.50281 2.47353-3.24022 5.901-5.63515 10.03945-7.0103 2.4589-.81709 4.93229-1.22504 7.32765-1.24051zm-179.20993 5.04858c-1.47607.01411-2.94594.04937-4.44275.08654-16.92456.42041-32.59161 2.63675-47.88932 6.75067-6.5006 1.74811-18.91729 6.00563-21.40596 7.35649-.54753.29717 11.44967.37504 76.82487.37504 69.38041 0 77.3885-.0513 76.73831-.40389-2.34245-1.27009-13.33217-5.10911-19.9058-6.95261-17.93624-5.02976-37.77844-7.42392-59.91935-7.21224zm169.43012 3.11569v27.55078h3.63497V62.19674h5.53901c5.34306 0 5.5542.03349 6.40447.60583 1.35038.90904 1.58644 1.63356 1.81749 6.11599.11512 2.23332.27564 4.2506.37504 4.50044.15207.3821.53315.46157 2.36561.46158 1.33553 0 2.16365-.09399 2.16368-.25964 0-.14844-.23954-.62122-.54813-1.03856-.48959-.66219-.57646-1.25241-.75008-4.64469-.15051-2.93983-.34465-4.1685-.72122-5.01972-.48071-1.08676-1.85379-2.53873-2.42332-2.53871-.1523 0 .25967-.41656.92317-.92317 1.89594-1.44771 2.36563-2.57708 2.36562-5.68325 0-2.90983-.3798-3.96397-1.99058-5.51016-1.68623-1.61868-2.3479-1.70864-11.19341-1.81749l-7.96232-.11539zm3.63497 3.17339h5.33707c5.83098 0 6.43076.12535 7.87577 1.67324.55177.59101.67539.98663.75007 2.68295.07672 1.74184.01236 2.09045-.51928 2.8849-.3343.49962-1.12407 1.17895-1.75979 1.50015-1.08544.54836-1.48886.57701-6.43332.57698h-5.25052v-9.31822zm-677.5474 4.2408c12.46177-.01706 24.72865.83886 35.91699 2.62526 25.82313 4.12296 48.13878 13.15423 66.61232 26.9161 19.7961 14.74705 34.99875 34.98353 45.23522 60.179 4.44167 10.93252 7.57235 23.21152 9.54902 37.47484.35605 2.56908.74408 5.49188.83662 6.49102.09257.99915.21896 2.0004.28849 2.25022l-103.65443.46159-.31733-2.53871c-.80611-6.56797-2.84466-14.79522-5.10628-20.54049-7.16115-18.19157-20.42537-29.91761-38.10951-33.66677-3.83589-.81331-11.46488-1.12291-15.665-.63468-16.01103 1.86139-30.46303 11.88062-38.02297 26.31028-3.69863 7.05956-5.30074 13.2319-5.53901 21.4925-.26593 9.21995 1.19498 16.21563 5.01972 24.11776 5.00139 10.33301 13.52183 19.38678 25.93525 27.60848 6.80762 4.50885 14.51241 8.70101 23.07919 12.49162 7.04777 3.11846 36.22793 14.51408 58.5346 22.87725 14.39333 5.39641 16.7198 6.35602 23.74272 9.86635 16.56956 8.28192 30.08597 17.76 41.13866 28.84899 8.84496 8.8739 14.03276 16.6674 19.81926 29.7145 6.54434 14.7558 9.25196 28.3155 9.66441 48.4374.35909 17.5178-1.75828 32.6276-6.69296 47.745-4.56387 13.9816-12.31061 27.415-23.68503 41.1099-3.38004 4.0695-13.94213 14.6098-18.05946 18.0306-9.60767 7.982-19.1297 14.2538-30.23375 19.8769-18.59343 9.4157-37.51282 14.8524-59.57316 17.1363-3.77709.3911-22.74774.7544-25.93525.4905-.64228-.0532-3.09743-.2239-5.45246-.3751-15.10072-.9684-31.19972-3.7533-45.14867-7.7892-18.57042-5.3731-36.01482-13.8538-50.2261-24.4351-9.595-7.1443-19.86227-17.4451-26.88725-26.9449-14.11952-19.0938-23.35303-42.468-26.31028-66.6989-.51483-4.2183-1.14977-11.9179-1.15396-13.8187v-1.4713l110.03005.3174c.01175.8016.8297 6.0091 1.32706 8.4816 1.85952 9.2438 5.90826 19.4047 10.38563 26.0795 8.18471 12.2017 22.45099 20.8908 37.3883 22.733 3.23112.3984 10.94407.1935 14.0783-.3751 3.32311-.6028 6.83596-1.6267 10.126-2.9425 18.6873-7.4738 30.75711-26.1287 30.75302-47.5144-.00123-6.4466-.92461-11.3769-3.11569-16.8766-5.44811-13.675-14.29297-23.5895-28.15661-31.5608-11.05276-6.3551-22.49373-10.943-46.07184-18.4633-27.20302-8.6766-37.19698-12.448-50.71653-19.21346-16.8366-8.42529-33.16177-20.21164-46.73537-33.69562-18.65185-18.52875-30.51234-43.95576-33.95526-72.786-1.32486-11.09408-1.3002-23.60274.1154-35.05153 2.58578-20.91288 9.63175-39.85739 20.42508-54.98617 20.20967-28.3274 48.56771-45.63702 87.3836-53.34179 14.7612-2.92999 31.11697-4.42081 47.13925-4.44274zm244.72599 9.66441c4.14189.00002 7.50074 3.42495 7.50074 7.61613.00001 4.19118-3.35885 7.58729-7.50074 7.58729-4.14188.00002-7.50074-3.39611-7.50074-7.58729 0-4.19119 3.35886-7.61613 7.50074-7.61613zm22.73301 0c4.14189.00002 7.50073 3.42495 7.50073 7.61613.00001 4.19118-3.35885 7.58729-7.50073 7.58729-4.14189.00002-7.50074-3.39611-7.50074-7.58729 0-4.19119 3.35885-7.61613 7.50074-7.61613zm-272.82491 5.33706c-3.00737.02564-5.66374.07329-7.55844.1731-27.20721 1.43321-48.1862 6.32164-66.52577 15.4919-16.25719 8.12905-28.83012 19.02983-39.8116 34.47455-9.77421 13.7468-15.95888 30.77427-18.14603 49.96645-4.22861 37.10627 6.98766 73.30902 29.74331 95.83635 12.43123 12.30651 26.68773 22.62285 42.09068 30.43568 11.52652 5.84661 19.74655 9.02089 44.91788 17.39591 23.17413 7.7105 29.09333 9.8521 38.05182 13.8187 15.29468 6.772 27.29229 14.7542 35.08038 23.3388 4.45588 4.9115 7.96233 10.2108 11.59729 17.5691 4.45722 9.0226 6.13622 15.603 6.40448 25.0697.31649 11.1686-1.80898 21.0082-6.69297 30.8684-7.25109 14.6392-19.27321 25.7368-34.61879 31.9936-12.27282 5.0038-26.67441 6.157-39.58081 3.1445-13.72705-3.2039-26.51009-10.4181-36.20549-20.3963-8.24504-8.4856-12.61322-16.7245-16.50162-31.2145-.57452-2.1409-1.09741-4.0624-1.15396-4.2409l-76.99796-.3173.1731 1.7598c.57653 5.8647 2.73243 15.1604 5.33706 22.9638 3.81161 11.4195 8.28785 20.5855 14.68413 30.176 8.52626 12.7843 18.97234 23.2076 32.02238 31.907 5.79802 3.8651 9.54603 5.9897 15.7227 8.972 18.98874 9.1689 41.20189 14.5358 66.41038 16.0401 5.29829.3161 17.60716.3333 21.80984.0288 19.7361-1.4298 37.25606-6.0052 53.97646-14.1072 20.03977-9.7102 36.7391-23.4289 49.93761-41.0231 10.33221-13.7735 16.14817-26.2995 19.70386-42.4369 1.97825-8.9784 2.65575-15.1056 2.8272-25.8775.3746-23.5348-2.54769-37.5633-11.62615-55.8517-3.46139-6.9729-7.61306-12.591-13.99176-18.9538-8.49774-8.47659-19.27566-16.30779-32.13777-23.33881-7.05013-3.85395-11.79496-5.95939-23.0215-10.15485-13.85656-5.17832-36.61237-14.11595-52.7071-20.71357-15.92655-6.52864-27.07268-12.42714-37.61909-19.9058-15.84477-11.23579-26.68429-24.62156-31.58964-38.97499-2.43083-7.11282-3.39193-12.76568-3.40419-20.42509-.01165-7.28739.89789-13.06951 3.0003-19.35767 7.60586-22.74851 27.45741-39.80483 51.4666-44.2255 14.23446-2.62097 28.74467-.46008 42.17723 6.26023 11.09096 5.54879 19.69125 13.11671 26.42567 23.28113 4.42318 6.67608 7.77311 14.62489 10.29909 24.3774l.72123 2.7695c23.06387-.28563 46.14757.41678 69.20873-.11539 0-.64963-1.78721-9.16384-2.62526-12.46277-3.94497-15.52888-12.58795-33.41934-22.35797-46.30263-9.22998-12.17122-20.71309-22.40428-33.23404-29.59906-16.93254-9.72982-35.69092-15.1936-60.1213-17.54019-4.34716-.4175-16.53809-.65389-25.5602-.57698zm402.76076 7.73153l-2.33677 1.87519c-5.23743 4.1909-11.65272 10.08776-14.88608 13.67442l-1.90403 2.10597h257.2753l-.54813-.75007c-1.60794-2.25807-11.58672-11.79319-16.44392-15.69385l-1.529-1.21166H610.3547zM434.95284 87.52616c4.14188.00001 7.50073 3.42495 7.50073 7.61613.00001 4.19117-3.35885 7.58728-7.50073 7.58728-4.14189.00002-7.50074-3.3961-7.50074-7.58728 0-4.1912 3.35885-7.61613 7.50074-7.61613zm22.733 0c4.14189.00001 7.50074 3.42495 7.50074 7.61613.00001 4.19117-3.35885 7.58728-7.50074 7.58728-4.14188.00002-7.50074-3.3961-7.50074-7.58728 0-4.1912 3.35886-7.61613 7.50074-7.61613zm22.73301 0c4.14189.00001 7.50073 3.42495 7.50073 7.61613.00001 4.19117-3.35885 7.58728-7.50073 7.58728-4.14189.00002-7.50074-3.3961-7.50074-7.58728 0-4.1912 3.35885-7.61613 7.50074-7.61613zm22.733 0c4.14189.00001 7.50074 3.42495 7.50074 7.61613.00001 4.19117-3.35885 7.58728-7.50074 7.58728-4.14188.00002-7.52959-3.3961-7.52959-7.58728 0-4.1912 3.38771-7.61613 7.52959-7.61613zm-90.93202 24.11775c4.14188-.00003 7.50074 3.39611 7.50074 7.58729-.00001 4.19119-3.35885 7.61613-7.50074 7.61613-4.14189-.00002-7.50074-3.42495-7.50074-7.61613-.00001-4.19118 3.35886-7.58729 7.50074-7.58729zm22.73301 0c4.14188-.00003 7.50073 3.39611 7.50073 7.58729.00001 4.19119-3.35885 7.61613-7.50073 7.61613-4.14189-.00002-7.50074-3.42495-7.50074-7.61613s3.35885-7.58729 7.50074-7.58729zm22.733 0c4.14189-.00003 7.50074 3.39611 7.50074 7.58729.00001 4.19119-3.35885 7.61613-7.50074 7.61613-4.14188-.00002-7.50074-3.42495-7.50074-7.61613s3.35886-7.58729 7.50074-7.58729zm22.73301 0c4.14189-.00003 7.50073 3.39611 7.50073 7.58729.00001 4.19119-3.35885 7.61613-7.50073 7.61613-4.14189-.00002-7.50074-3.42495-7.50074-7.61613s3.35885-7.58729 7.50074-7.58729zm22.733 0c4.14189-.00003 7.50074 3.39611 7.50074 7.58729.00001 4.19119-3.35885 7.61613-7.50074 7.61613-4.14188-.00002-7.52959-3.42495-7.52959-7.61613s3.38771-7.58729 7.52959-7.58729zm22.70416 0c4.14187-.00003 7.50073 3.39611 7.50073 7.58729.00002 4.19119-3.35885 7.61613-7.50073 7.61613-4.1419-.00002-7.50074-3.42495-7.50074-7.61613-.00001-4.19118 3.35885-7.58729 7.50074-7.58729zm50.74537 1.4136l-2.19252 3.72152c-2.01805 3.40658-7.22472 13.28163-7.2411 13.73212-.00389.10709 68.65743.20194 152.58231.20195 83.92488 0 152.58229-.07116 152.58232-.14425 0-.59738-5.36718-10.58437-8.597-16.01119l-.86547-1.4713H719.72123l-143.11985-.02885zm-164.38155 22.70416c4.14188-.00001 7.50074 3.3961 7.50074 7.58728-.00001 4.19121-3.35885 7.58729-7.50074 7.58729-4.14189-.00001-7.50074-3.39611-7.50074-7.58729-.00001-4.19116 3.35886-7.58728 7.50074-7.58728zm22.73301 0c4.14188-.00001 7.50073 3.3961 7.50073 7.58728.00001 4.19121-3.35885 7.58729-7.50073 7.58729-4.14189-.00001-7.50074-3.39611-7.50074-7.58729 0-4.19116 3.35885-7.58728 7.50074-7.58728zm22.733 0c4.14189-.00001 7.50074 3.3961 7.50074 7.58728.00001 4.19121-3.35885 7.58729-7.50074 7.58729-4.14188-.00001-7.50074-3.39611-7.50074-7.58729 0-4.19116 3.35886-7.58728 7.50074-7.58728zm22.73301 0c4.14189-.00001 7.50073 3.3961 7.50073 7.58728.00001 4.19121-3.35885 7.58729-7.50073 7.58729-4.14189-.00001-7.50074-3.39611-7.50074-7.58729 0-4.19116 3.35885-7.58728 7.50074-7.58728zm22.733 0c4.14189-.00001 7.50074 3.3961 7.50074 7.58728.00001 4.19121-3.35885 7.58729-7.50074 7.58729-4.14188-.00001-7.52959-3.39611-7.52959-7.58729 0-4.19116 3.38771-7.58728 7.52959-7.58728zm22.70416 0c4.14187-.00001 7.50073 3.3961 7.50073 7.58728.00002 4.19121-3.35885 7.58729-7.50073 7.58729-4.1419-.00001-7.50074-3.39611-7.50074-7.58729-.00001-4.19116 3.35885-7.58728 7.50074-7.58728zM214.48885 149.1476c5.41701 0 9.86819 1.02982 14.53989 3.37533 11.82191 5.93542 19.06049 17.88268 21.83869 36.06124.48481 3.17228.56276 4.89176.57697 10.96262l.02885 7.21225h122.60822c-.16617 38.40638.24808 76.81712-.08655 115.22286-.04352 0-.56458-1.0302-1.15396-2.2791-.5894-1.2488-1.93572-3.726-3.0003-5.5101-11.60194-19.4436-33.69453-37.94821-62.19842-52.0436-6.88906-3.40668-11.67041-5.40463-20.62703-8.68355-20.9246-7.66017-54.44186-20.73979-62.57346-24.40624-13.66237-6.16012-24.81635-13.39072-31.67619-20.56934-7.72873-8.08778-11.25111-16.266-11.25111-26.13718 0-8.31802 2.55926-15.34204 7.84693-21.63674 6.32978-7.53518 15.1002-11.56848 25.12747-11.56845zm665.54622.25964l-160.14075.0577-160.1119.0577-.72122 2.33677c-.75567 2.41906-2.7978 10.37659-3.43303 13.44363l-.34619 1.73093h137.63853l1.26936-1.99058c1.49694-2.37281 5.28704-6.30403 7.58728-7.84692 5.50784-3.69452 11.96667-5.43868 18.75185-5.10627 7.72365.37831 14.41029 3.07791 20.54048 8.30851 1.86464 1.59098 4.62177 4.55663 5.56785 6.00059l.40389.63467h69.00679c55.9927 0 69.00677-.04697 69.00678-.31733 0-.64096-2.09266-8.15649-3.54842-12.72241l-1.4713-4.58699zm-445.08223 10.47219c4.14188 0 7.50073 3.3961 7.50073 7.58728.00001 4.19116-3.35885 7.58728-7.50073 7.58728-4.14189.00001-7.50074-3.3961-7.50074-7.58728 0-4.1912 3.35885-7.58728 7.50074-7.58728zm22.733 0c4.14189 0 7.50074 3.3961 7.50074 7.58728.00001 4.19116-3.35885 7.58728-7.50074 7.58728-4.14188.00001-7.50074-3.3961-7.50074-7.58728 0-4.1912 3.35886-7.58728 7.50074-7.58728zm22.73301 0c4.14189 0 7.50073 3.3961 7.50073 7.58728.00001 4.19116-3.35885 7.58728-7.50073 7.58728-4.14189.00001-7.50074-3.3961-7.50074-7.58728 0-4.1912 3.35885-7.58728 7.50074-7.58728zm22.733 0c4.14189 0 7.50074 3.3961 7.50074 7.58728.00001 4.19116-3.35885 7.58728-7.50074 7.58728-4.14188.00001-7.52959-3.3961-7.52959-7.58728 0-4.1912 3.38771-7.58728 7.52959-7.58728zm251.93824 26.10833l.25964 1.09626c.62225 2.76941 1.01032 6.71558 1.15396 11.30881l.17309 4.99087h134.11896l-.17309-2.13482c-.22534-2.87872-1.38399-13.43968-1.5867-14.45335l-.14424-.80777H755.09009zm-364.39161 15.05918h151.02447V519.1936H390.69848V201.04694zm138.04243 14.53989l-124.16606.11539-.14425 287.91288h124.31031V215.58683zm279.34478 44.88903l-120.1849.05769-120.15605.0577 2.07713 3.25994c2.68598 4.19749 4.59424 6.8659 7.81808 10.93377l2.62525 3.31763h257.93883l-1.81748-1.2982c-6.5982-4.80962-13.99141-9.25364-22.32912-13.38594l-5.97174-2.94259zm-78.32502 37.35944l-129.27232.02885.92316.77892c3.52049 3.07443 12.12845 9.3534 18.75185 13.64553l4.96202 3.2023h246.48578l-.72122-1.2405c-2.31449-4.0122-7.60011-11.47727-10.55873-14.91495l-1.26936-1.50015H729.76067zm151.31296 37.3594l-108.35681.0289H664.33116l3.77922 1.5578c10.41891 4.3136 25.00493 9.4348 38.80189 13.6167l8.02002 2.4233 85.59496.0289c84.20358.012 85.56608-.0003 85.56611-.4904 0-1.096-1.80813-7.5437-3.69267-13.184l-1.32706-3.9812zM748.25288 372.583l.54813.8366c1.17624 1.7587 3.64956 7.1619 4.2985 9.4048.37165 1.2845.80014 3.2721.95201 4.4139.15192 1.1418.29672 2.216.34619 2.3945.07171.2583 13.84164.3173 67.70858.3173h67.62204v-5.7698c-.00066-3.1757-.08057-7.0779-.17309-8.6836l-.1731-2.9137H748.25288zm2.48101 37.0998l-.60583 1.2405c-1.22306 2.5273-4.01157 6.387-6.28908 8.7412-3.33301 3.4454-6.63761 5.6569-10.58758 7.0392l-1.70209.6058h76.19019l76.21903.0289.28849-1.0963c1.60659-6.0054 3.66382-15.238 3.66382-16.4439 0-.0619-30.87942-.1154-68.6029-.1154h-68.57405zm-190.57643 37.5037c0 .5489 5.11288 10.2433 7.84692 14.8572l1.5867 2.6541H866.3895l1.44245-2.2213c2.64871-4.1058 8.39506-14.5826 8.39505-15.29-105.35481.0293-210.71527-.5619-316.06954 0zm24.17545 37.4748c.04757.1313 1.69835 1.971 3.66382 4.0966 3.63888 3.9351 7.37507 7.5665 11.62615 11.251l2.39446 2.0484h229.55142l2.59641-2.0772c3.86117-3.1058 9.30662-8.0588 13.24169-12.0299l3.51958-3.5197c-88.85709.6454-177.73993-.9404-266.59353.2308zm49.85106 37.5615c1.53013.8294 8.69891 3.7805 12.7224 5.2504 16.5809 6.058 35.55254 9.9077 54.92848 11.1646 2.35504.1528 4.88306.3233 5.59671.375.71364.0518 6.64726.0703 13.21283.0289 11.93656-.0754 15.13528-.2505 23.36769-1.2983 13.87383-1.7655 28.48129-5.3514 41.36945-10.1548 4.55319-1.6969 11.008-4.3727 12.7224-5.2793l-163.91996-.0865z"/></svg>