<svg xmlns="http://www.w3.org/2000/svg" role="img" viewBox="204.10 1144.10 2256.80 374.30"><defs><clipPath id="a"><path d="M0 2000h2000V0H0z"/></clipPath></defs><g clip-path="url(#a)" transform="matrix(1.33333 0 0 -1.33333 0 2666.667)"><path fill="#1d6cb5" fill-opacity="1" fill-rule="evenodd" stroke="none" d="M511.39 940.014c9.38-4.39 15.88-13.91 15.88-24.946 0-3.95-.832-7.701-2.327-11.099 32.037 16.094 46.248 48.838 32.729 86.276-15.183 42.072-60.776 77.333-110.696 89.342-.266-2.343-1.006-4.545-2.12-6.506 39.095-8.9 75.038-36.379 86.897-69.258 9.709-26.897.871-50.648-20.363-63.809m-102.368 143.967c1.319.02 2.645.01 3.959-.014-.109-.789-.167-1.598-.167-2.415 0-1.941.322-3.809.917-5.547-46.536-2.139-72.489-34.947-58.189-74.569 14.647-40.585 65.968-72.946 114.631-72.283 2.055.024 4.066.116 6.043.26-2.555-4.181-4.029-9.088-4.029-14.345 0-8.703 4.034-16.462 10.333-21.51-1.553-.073-3.119-.131-4.707-.15-63.101-.862-129.652 41.107-148.65 93.735-18.995 52.618 16.754 95.981 79.859 96.838"/><path fill="#1d6cb5" fill-opacity="1" fill-rule="evenodd" stroke="none" d="M501.264 927.918c9.291 0 16.829-7.536 16.829-16.834 0-9.294-7.538-16.83-16.829-16.83-9.298 0-16.834 7.536-16.834 16.83 0 9.298 7.536 16.834 16.834 16.834"/><path fill="#1d6cb5" fill-opacity="1" fill-rule="evenodd" stroke="none" d="M429.957 1090.736c4.562 0 8.265-3.701 8.265-8.265s-3.703-8.267-8.265-8.267c-4.564 0-8.264 3.703-8.264 8.267s3.7 8.265 8.264 8.265"/><path fill="#1d6cb5" fill-opacity="1" fill-rule="evenodd" stroke="none" d="M1278.76 1101.59h48.189V899.743h-48.189zm-228.44-201.847l102.971 208.117h3.04l100.687-208.117h-50.416l-12.779 29.365h-81.916l-13.068-29.365zm75.556 64.148h53.03l-26.185 63.193zm-89.359 140.547V899.743l-38.209-5.982-1.656 9.738c-6.137-3.325-12.168-5.799-18.111-7.367-5.983-1.568-12.014-2.371-18.151-2.371-17.532 0-31.259 5.794-41.094 17.385-9.845 11.597-14.782 27.653-14.782 48.18 0 21.525 5.799 38.775 17.347 51.796 11.588 12.971 26.892 19.482 45.944 19.482 4.463 0 8.741-.432 12.826-1.332 4.085-.857 8.18-2.236 12.265-4.09v73.269zm-43.621-111.09c-2.613 1.471-5.082 2.57-7.463 3.185-2.372.663-4.705.997-7.029.997-8.266 0-15.256-3.47-20.909-10.406-5.653-6.889-8.509-15.635-8.509-26.133 0-9.835 2.478-18.054 7.463-24.612 4.986-6.559 11.017-9.836 18.199-9.836 2.76 0 5.703.571 8.694 1.757 3.039 1.142 6.224 2.948 9.554 5.368zm-201.691-93.605h-43.618v125.439h40.287v-21.001c6.661 8.223 13.786 14.351 21.288 18.388 7.512 4.041 15.682 6.035 24.472 6.035 13.31 0 23.378-3.799 30.222-11.404 6.893-7.599 10.31-18.673 10.31-33.305v-84.152h-43.33v71.892c0 6.607-1.336 11.549-4.046 14.874-2.653 3.369-6.651 5.034-11.975 5.034-7.551 0-13.398-2.565-17.483-7.648-4.085-5.135-6.127-12.545-6.127-22.289zm-125.761 125.439h43.334V899.743l-40.246-5.982v24.515c-6.791-8.364-13.872-14.54-21.336-18.533-7.41-3.988-15.532-5.982-24.371-5.982-13.257 0-23.329 3.795-30.265 11.398-6.893 7.653-10.363 18.771-10.363 33.451v86.572h43.62V950.87c0-6.606 1.331-11.597 4.041-14.966 2.658-3.374 6.651-5.082 11.97-5.082 7.604 0 13.398 2.561 17.487 7.74 4.086 5.135 6.129 12.545 6.129 22.192zm-478.187-68.421c12.4-7.599 22.947-12.875 31.642-15.963 8.65-3.04 17.108-4.56 25.375-4.56 8.316 0 15.015 1.849 20.099 5.508 5.034 3.659 7.554 8.364 7.554 14.114 0 8.219-8.979 17.532-26.987 27.798-2.899 1.66-5.133 2.991-6.701 3.897l-13.635 7.695c-13.258 7.507-23.093 16.012-29.46 25.469-6.416 9.453-9.599 20.194-9.599 32.168 0 16.249 6.131 29.551 18.389 39.959 12.209 10.406 28.034 15.586 47.42 15.586 7.175 0 14.919-.857 23.232-2.52 8.364-1.662 17.633-4.276 27.846-7.793v-47.279c-9.741 6.084-18.959 10.789-27.701 14.114-8.741 3.325-16.156 4.991-22.284 4.991-6.796 0-12.114-1.477-16.014-4.371-3.896-2.899-5.845-6.893-5.845-11.883 0-3.514 1.143-6.791 3.471-9.835 2.329-3.088 5.796-5.842 10.453-8.359l23.663-13.069c19.814-10.977 33.117-21.094 39.961-30.363 6.842-9.312 10.261-20.29 10.261-33.019 0-19.676-6.701-35.591-20.098-47.71-13.446-12.116-31.217-18.147-53.407-18.147-7.508 0-15.68.809-24.518 2.373-8.79 1.568-18.531 4.041-29.078 7.366z"/><path fill="#1d6cb5" fill-opacity="1" fill-rule="evenodd" stroke="none" d="M436.661 1056.687c32.567-7.952 61.212-38.388 63.98-67.981 2.771-29.588-21.384-47.129-53.951-39.181-32.565 7.952-61.212 38.392-63.981 67.981-2.77 29.588 21.385 47.133 53.952 39.181"/><path fill="#1d6cb5" fill-opacity="1" fill-rule="nonzero" stroke="none" d="M1551.452 993.058h-37.319v-17.225h37.319zm-101.581 0v-1.104c0-5.08-.222-10.379-.663-16.121h33.787v17.225zm64.703 70.664v-8.833h71.768v-26.72h-171.139v26.72h66.91v8.833h-81.486v26.942h81.486v15.677h32.461v-15.677h81.925v-26.942zm69.117-126.754h-32.239v12.145h-106.217c-4.417-19.653-13.029-39.307-28.71-53.66-4.857 5.961-18.328 17.665-25.173 21.64 24.511 21.862 26.72 52.999 26.72 75.302v26.5h165.619z"/><path fill="#1d6cb5" fill-opacity="1" fill-rule="nonzero" stroke="none" d="M1783.229 1063.059h-26.722v-32.019h26.722zm31.798-60.284h-88.329v88.33h88.329zm-52.114-66.029h-85.019v-7.949h85.019zm-85.018 22.745h85.019V967h-85.019zm-19.433 95.839v10.821h-6.846c-2.428-3.975-5.079-7.507-7.73-10.821zm41.074-61.61c-6.183 5.301-16.343 13.25-25.396 19.654-5.743-7.508-13.47-14.796-23.849-21.42h145.746v-95.176h-33.124v6.845h-85.018v-6.845h-31.58v92.747c-3.311-1.988-7.065-3.975-11.042-5.743-4.195 6.405-13.248 16.121-20.315 21.2 19.212 7.288 30.034 16.341 35.996 25.616h-33.124v24.732h15.236c-5.962 3.754-13.469 7.951-18.108 10.158 11.484 10.158 19.875 26.279 23.851 42.62l28.265-5.742c-1.105-3.974-2.209-7.949-3.754-11.702h51.893v-24.513h-26.499v-10.821h31.579v-24.732h-28.707c10.379-5.3 26.056-13.912 30.914-17.004z"/></g></svg>