<?xml version="1.0" encoding="UTF-8"?>
<svg version="1.1" xmlns="http://www.w3.org/2000/svg" width="974" height="129">
<path d="M0 0 C6.14154225 0.58490879 12.00679849 1.54066252 18 3 C17.34 5.31 16.68 7.62 16 10 C25.9 10 35.8 10 46 10 C46 15.28 46 20.56 46 26 C40.72 26 35.44 26 30 26 C30 27.65 30 29.3 30 31 C36.27 31 42.54 31 49 31 C49 36.28 49 41.56 49 47 C43.06 47.495 43.06 47.495 37 48 C41.62 50.64 46.24 53.28 51 56 C47.13448567 60.69383883 43.79274819 64.00604317 39 68 C57.48 68.33 75.96 68.66 95 69 C95 88.14 95 107.28 95 127 C88.07 127 81.14 127 74 127 C74 125.68 74 124.36 74 123 C57.5 123 41 123 24 123 C24 124.32 24 125.64 24 127 C17.4 127 10.8 127 4 127 C4 109.18 4 91.36 4 73 C2.02 73.99 2.02 73.99 0 75 C-2.78450995 74.81793589 -3.77832814 74.21681064 -5.78125 72.2578125 C-6.3484375 71.55398437 -6.915625 70.85015625 -7.5 70.125 C-9.31965759 67.8835127 -10.88712368 66.08306743 -13.21875 64.3671875 C-13.8065625 63.91601562 -14.394375 63.46484375 -15 63 C-15 62.34 -15 61.68 -15 61 C-14.05898438 60.56429687 -13.11796875 60.12859375 -12.1484375 59.6796875 C-10.89030739 59.07878954 -9.63251261 58.47718914 -8.375 57.875 C-7.75753906 57.59140625 -7.14007812 57.3078125 -6.50390625 57.015625 C-1.39328597 54.54100887 0.67843474 52.32156526 5 48 C-0.94 47.67 -6.88 47.34 -13 47 C-13 41.72 -13 36.44 -13 31 C-11.68 30.67 -10.36 30.34 -9 30 C-10.98 28.68 -12.96 27.36 -15 26 C-14.62488281 25.52691406 -14.24976563 25.05382812 -13.86328125 24.56640625 C-7.96288697 16.94196729 -3.74869566 8.85864951 0 0 Z M8 26 C6.28288757 28.44496043 6.28288757 28.44496043 5 31 C6.98 31 8.96 31 11 31 C11 29.35 11 27.7 11 26 C10.01 26 9.02 26 8 26 Z M19.2578125 59.64453125 C18.55398438 60.35996094 17.85015625 61.07539062 17.125 61.8125 C16.07699219 62.87404297 16.07699219 62.87404297 15.0078125 63.95703125 C14.34523438 64.63121094 13.68265625 65.30539063 13 66 C12.01 66.99 11.02 67.98 10 69 C18.25 69 26.5 69 35 69 C31.85621816 65.85621816 29.23325931 63.26005983 25.75 60.6875 C25.06421875 60.17574219 24.3784375 59.66398437 23.671875 59.13671875 C21.35371019 57.5453322 21.35371019 57.5453322 19.2578125 59.64453125 Z M24 85 C24 86.32 24 87.64 24 89 C40.5 89 57 89 74 89 C74 87.68 74 86.36 74 85 C57.5 85 41 85 24 85 Z M24 103 C24 104.32 24 105.64 24 107 C40.5 107 57 107 74 107 C74 105.68 74 104.36 74 103 C57.5 103 41 103 24 103 Z " fill="#1642DF" transform="translate(868,0)"/>
<path d="M0 0 C0.99 0 1.98 0 3 0 C6.36063491 6.84122344 9.71936225 13.68338117 13.0769043 20.52612305 C14.21385854 22.84273329 15.35121341 25.15914696 16.48901367 27.4753418 C22.76887009 40.25983076 29.00992277 53.06032776 35.13844299 65.91812134 C37.91393213 71.73894194 40.71443121 77.54652734 43.546875 83.33984375 C43.89948898 84.06176407 44.25210297 84.78368439 44.61540222 85.52748108 C46.01257765 88.38690963 47.41050393 91.24595415 48.81298828 94.1027832 C53.81419617 104.29649575 58.51046356 114.56946705 63 125 C52.44 125 41.88 125 31 125 C28.69 119.72 26.38 114.44 24 109 C8.16 109 -7.68 109 -24 109 C-26.31 114.28 -28.62 119.56 -31 125 C-41.23 125 -51.46 125 -62 125 C-56.34458196 112.90910625 -50.51394094 100.92828215 -44.48974609 89.01660156 C-40.87818722 81.84841247 -37.3839048 74.6318934 -33.9375 67.3828125 C-28.00841662 54.9278059 -21.8677046 42.58131426 -15.68945312 30.24853516 C-14.14791724 27.17130057 -12.6101344 24.09220637 -11.07328606 21.01262856 C-9.58985065 18.0413064 -8.10339834 15.07149743 -6.6171875 12.1015625 C-6.06626434 10.99769196 -5.51534119 9.89382141 -4.94772339 8.75650024 C-4.44274323 7.74969208 -3.93776306 6.74288391 -3.41748047 5.70556641 C-2.75110062 4.37400009 -2.75110062 4.37400009 -2.07125854 3.01553345 C-1 1 -1 1 0 0 Z M-1 52 C-2.83706934 56.19749205 -4.67003892 60.39674135 -6.49926758 64.59765625 C-7.12184688 66.02587876 -7.74553468 67.45361861 -8.37036133 68.88085938 C-9.26937537 70.93493123 -10.16436085 72.99071799 -11.05859375 75.046875 C-11.3377916 75.68244324 -11.61698944 76.31801147 -11.90464783 76.97283936 C-13.21402484 79.99383539 -14.19719224 82.78876897 -15 86 C-5.43 86 4.14 86 14 86 C13.12641997 81.63209985 11.98313283 78.24390687 10.27734375 74.16796875 C10.01240616 73.53135818 9.74746857 72.89474762 9.47450256 72.23884583 C8.63312896 70.21990579 7.78542409 68.20369644 6.9375 66.1875 C6.36351111 64.81332689 5.78993893 63.43897965 5.21679688 62.06445312 C3.81601516 58.70760648 2.40954545 55.35317771 1 52 C0.34 52 -0.32 52 -1 52 Z " fill="#1642DF" transform="translate(578,0)"/>
<path d="M0 0 C0 9.57 0 19.14 0 29 C-2.98507187 27.80597125 -5.91908628 26.61708751 -8.84765625 25.30859375 C-9.53537109 25.00373047 -10.22308594 24.69886719 -10.93164062 24.38476562 C-12.35692633 23.75116016 -13.78140246 23.11573053 -15.20507812 22.47851562 C-15.89150391 22.17494141 -16.57792969 21.87136719 -17.28515625 21.55859375 C-17.90269775 21.28329834 -18.52023926 21.00800293 -19.15649414 20.72436523 C-25.45006909 18.25144286 -32.72243131 17.88562664 -39.125 20.0625 C-41.26594792 21.98874223 -41.26594792 21.98874223 -42.0625 25.3125 C-41.98881904 29.65967668 -40.98065874 31.95776719 -38 35 C-34.66798564 37.2296658 -31.13806017 39.00724391 -27.5625 40.8125 C2.47464309 56.59248333 2.47464309 56.59248333 8 71 C10.62175733 80.25155786 10.3131666 92.71689839 6.44921875 101.54296875 C0.58668528 111.48241228 -8.00365233 118.18893368 -18.875 121.875 C-35.11246617 125.73887297 -52.70061838 122.96275026 -68 117 C-68.33699997 112.62527437 -68.66895367 108.25017987 -69 103.875 C-69.09539062 102.6375 -69.19078125 101.4 -69.2890625 100.125 C-69.42441406 98.32675781 -69.42441406 98.32675781 -69.5625 96.4921875 C-69.64628906 95.39245605 -69.73007813 94.29272461 -69.81640625 93.15966797 C-69.99430583 90.09799722 -70.03231628 87.06600693 -70 84 C-65.26327714 85.78744259 -60.82175962 88.08346033 -56.34765625 90.43359375 C-49.61946577 93.87901877 -43.47055906 95.36066497 -35.9375 95.375 C-34.9155957 95.41173828 -34.9155957 95.41173828 -33.87304688 95.44921875 C-28.76666314 95.47865036 -25.93296348 94.18072499 -22 91 C-20.29204373 88.69797199 -20 87.54005544 -20 84.6875 C-23.39709077 75.55781855 -32.07600644 71.66150302 -40.04394531 67.11865234 C-65.86308141 52.35289079 -65.86308141 52.35289079 -70.375 37.0625 C-72.2069193 27.67627431 -71.46927481 18.23802298 -66.78125 9.80859375 C-61.45603063 2.01306428 -52.95606218 -3.18426318 -43.875 -5.5546875 C-29.46567643 -7.78656642 -13.14682433 -6.57341217 0 0 Z " fill="#1642DF" transform="translate(71,6)"/>
<path d="M0 0 C0.02332916 16.01993537 0.04097926 32.03986526 0.05181217 48.0598135 C0.05697509 55.4976451 0.06401771 62.93546617 0.07543945 70.37329102 C0.08538641 76.85381342 0.09185346 83.33432819 0.09408849 89.81485802 C0.09539558 93.24830542 0.0984813 96.681731 0.10573006 100.11517143 C0.11374416 103.94193821 0.11399113 107.76868335 0.11352539 111.59545898 C0.11712067 112.74200455 0.12071594 113.88855011 0.12442017 115.06983948 C0.1230455 116.10615509 0.12167084 117.1424707 0.12025452 118.21018982 C0.12117631 119.11631232 0.1220981 120.02243483 0.12304783 120.95601559 C0 123 0 123 -1 124 C-2.36229604 124.29529699 -3.73629733 124.53718965 -5.11328125 124.75390625 C-6.3672168 124.95209961 -6.3672168 124.95209961 -7.64648438 125.15429688 C-8.52626953 125.28900391 -9.40605469 125.42371094 -10.3125 125.5625 C-11.18068359 125.70107422 -12.04886719 125.83964844 -12.94335938 125.98242188 C-16.7134178 126.56977557 -20.16728122 127 -24 127 C-24 125.35 -24 123.7 -24 122 C-24.73605469 122.27714844 -25.47210938 122.55429688 -26.23046875 122.83984375 C-27.69419922 123.38318359 -27.69419922 123.38318359 -29.1875 123.9375 C-30.63189453 124.47697266 -30.63189453 124.47697266 -32.10546875 125.02734375 C-41.84474769 128.30005692 -52.56256005 128.20858808 -62 124 C-70.62520753 119.19452723 -75.73403193 111.46624401 -78.4765625 102.109375 C-81.91973566 88.23390109 -80.40234786 72.75006503 -73.42578125 60.17578125 C-68.02158327 51.92882707 -59.64915709 46.42909811 -49.96484375 44.34765625 C-47.16072036 44.018846 -44.44743749 43.83319236 -41.625 43.8125 C-40.75101562 43.79832031 -39.87703125 43.78414062 -38.9765625 43.76953125 C-35.15377362 44.06552146 -31.71328033 45.04042295 -28 46 C-27.96241577 44.09939819 -27.96241577 44.09939819 -27.92407227 42.16040039 C-27.83018004 37.47702221 -27.72991565 32.7937987 -27.62768555 28.1105957 C-27.58426759 26.08035896 -27.54259774 24.05008408 -27.50268555 22.01977539 C-27.44514854 19.10811849 -27.38140722 16.19665486 -27.31640625 13.28515625 C-27.29133751 11.91485008 -27.29133751 11.91485008 -27.26576233 10.51686096 C-27.11387171 4.11387171 -27.11387171 4.11387171 -26 3 C-24.41810666 2.7027302 -22.82554249 2.46172222 -21.23046875 2.24609375 C-20.25916016 2.11396484 -19.28785156 1.98183594 -18.28710938 1.84570312 C-17.26423828 1.71099609 -16.24136719 1.57628906 -15.1875 1.4375 C-14.17623047 1.29892578 -13.16496094 1.16035156 -12.12304688 1.01757812 C-8.02517151 0.46776405 -4.14315431 0 0 0 Z M-48.61328125 72.13671875 C-52.296564 78.5798697 -53.06197927 84.69397595 -52 92 C-50.385644 97.761877 -48.1701563 101.73463813 -43 105 C-39.83350487 106.58324757 -36.42541806 106.64374236 -33 106 C-29.76306834 104.57130376 -29.76306834 104.57130376 -27 102 C-26.44938733 99.03576978 -26.29155845 96.89999482 -26.4140625 93.953125 C-26.42255219 93.18192322 -26.43104187 92.41072144 -26.43978882 91.6161499 C-26.47330705 89.15932903 -26.54857096 86.70582372 -26.625 84.25 C-26.65510221 82.58207875 -26.68247759 80.91410591 -26.70703125 79.24609375 C-26.77309155 75.16279019 -26.87659201 71.08195661 -27 67 C-35.15179 62.50930153 -43.1370168 64.88365179 -48.61328125 72.13671875 Z " fill="#1642DF" transform="translate(509,2)"/>
<path d="M0 0 C33 0 66 0 100 0 C100 16.5 100 33 100 50 C93.4 50 86.8 50 80 50 C80 47.69 80 45.38 80 43 C59.21 43 38.42 43 17 43 C16.01 46.96 15.02 50.92 14 55 C10.82250164 62.8265815 5.84847354 68.9882442 0 75 C-1.4540625 73.7315625 -1.4540625 73.7315625 -2.9375 72.4375 C-7.17152248 68.80214054 -11.57169222 65.39403181 -16 62 C-14.76193719 59.34297022 -13.66399601 57.61859006 -11.6875 55.375 C1.21762453 39.99544156 -0.72575081 18.86952094 0 0 Z M20 17 C20 19.97 20 22.94 20 26 C26.27 26 32.54 26 39 26 C39 23.03 39 20.06 39 17 C32.73 17 26.46 17 20 17 Z M58 17 C58 19.97 58 22.94 58 26 C65.26 26 72.52 26 80 26 C80 23.03 80 20.06 80 17 C72.74 17 65.48 17 58 17 Z " fill="#1642DF" transform="translate(736,53)"/>
<path d="M0 0 C8.91 0 17.82 0 27 0 C27.05607422 5.32705078 27.05607422 5.32705078 27.11328125 10.76171875 C27.15950108 14.20375709 27.21073322 17.64568689 27.26245117 21.08764648 C27.29569167 23.47852983 27.32372629 25.86949148 27.34643555 28.26049805 C27.37999683 31.69874419 27.43231524 35.13627329 27.48828125 38.57421875 C27.49467117 39.64210129 27.5010611 40.70998383 27.50764465 41.81022644 C27.52043964 48.95814715 27.52043964 48.95814715 31 55 C35.16243038 56.28074781 37.55768505 56.12532257 41.75 54.9375 C45.58797061 52.64947906 46.52804106 51.17055032 48 47 C49.09640979 41.81794432 49.21461781 36.71886752 49.31640625 31.4453125 C49.33718735 30.54376434 49.35796844 29.64221619 49.37937927 28.71334839 C49.4444458 25.8506386 49.50355914 22.98784181 49.5625 20.125 C49.60572607 18.17707456 49.64934164 16.22915771 49.69335938 14.28125 C49.80081144 9.52092096 49.90020319 4.76052024 50 0 C58.58 0 67.16 0 76 0 C76.02255176 9.89189783 76.04091552 19.7837787 76.05181217 29.67569637 C76.05704082 34.2684264 76.06413812 38.861138 76.07543945 43.45385742 C76.086269 47.88233688 76.09227698 52.31079856 76.09487724 56.73929024 C76.09673137 58.43265628 76.10035175 60.12602129 76.10573006 61.81937981 C76.1129414 64.18291232 76.1139909 66.54637045 76.11352539 68.90991211 C76.11712067 69.61697296 76.12071594 70.32403381 76.12442017 71.05252075 C76.11405216 75.88594784 76.11405216 75.88594784 75 77 C73.56448966 77.29602174 72.11763324 77.5375924 70.66796875 77.75390625 C69.78689453 77.88603516 68.90582031 78.01816406 67.99804688 78.15429688 C66.60682617 78.35635742 66.60682617 78.35635742 65.1875 78.5625 C64.27162109 78.70107422 63.35574219 78.83964844 62.41210938 78.98242188 C58.53404318 79.55579947 54.93372031 80 51 80 C50.67 76.37 50.34 72.74 50 69 C48.741875 70.0725 47.48375 71.145 46.1875 72.25 C37.98304457 78.57988502 29.33525451 81.25368472 19 80 C12.97005587 78.78277525 8.91372761 76.92011471 5 72 C1.1755259 66.23087805 -0.12771389 61.81352452 -0.11352539 54.94628906 C-0.11344986 53.72532532 -0.11337433 52.50436157 -0.11329651 51.24639893 C-0.10813522 49.93274353 -0.10297394 48.61908813 -0.09765625 47.265625 C-0.09579021 45.9037074 -0.09436718 44.54178912 -0.09336853 43.17987061 C-0.08955803 39.60258111 -0.07974032 36.02533248 -0.06866455 32.44805908 C-0.05841884 28.79480553 -0.05380929 25.14154515 -0.04882812 21.48828125 C-0.03864791 14.32548479 -0.01907255 7.16280042 0 0 Z " fill="#1642DF" transform="translate(237,49)"/>
<path d="M0 0 C5.64870394 5.32420393 8.70573176 10.05121247 9.17285156 17.90689087 C9.23129811 21.46959608 9.22463274 25.02677676 9.1953125 28.58984375 C9.1924826 29.88950577 9.18965271 31.18916779 9.18673706 32.5282135 C9.17914655 35.96249255 9.15953823 39.39659907 9.1373291 42.83081055 C9.11677122 46.34356308 9.10760417 49.85634466 9.09765625 53.36914062 C9.07735184 60.2462455 9.03819444 67.12287826 9 74 C0.09 74 -8.82 74 -18 74 C-18.02578125 70.50921875 -18.0515625 67.0184375 -18.078125 63.421875 C-18.11653238 60.04272377 -18.16169699 56.66372581 -18.20751953 53.28466797 C-18.23575288 50.93545848 -18.25695558 48.58615359 -18.27099609 46.23681641 C-18.29239224 42.86050482 -18.33902737 39.48534333 -18.390625 36.109375 C-18.39185364 35.05820496 -18.39308228 34.00703491 -18.39434814 32.92401123 C-18.41564088 27.25954152 -18.41564088 27.25954152 -20.90161133 22.33886719 C-24.51715148 20.03198851 -27.86995851 20.26986766 -32 21 C-36.11980131 23.36669437 -37.6549493 25.52003663 -39 30 C-39.32893512 33.36873449 -39.37234119 36.73027262 -39.4140625 40.11328125 C-39.43342865 41.08283249 -39.4527948 42.05238373 -39.4727478 43.05131531 C-39.53237436 46.13828828 -39.5788614 49.22529888 -39.625 52.3125 C-39.66319534 54.40952118 -39.70224798 56.50652694 -39.7421875 58.60351562 C-39.83967061 63.73559536 -39.91937398 68.86751709 -40 74 C-48.91 74 -57.82 74 -67 74 C-67 48.92 -67 23.84 -67 -2 C-58.75 -2 -50.5 -2 -42 -2 C-41.67 1.3 -41.34 4.6 -41 8 C-40.43152344 7.45730469 -39.86304688 6.91460937 -39.27734375 6.35546875 C-29.19470945 -2.98653799 -12.57017987 -9.2779899 0 0 Z " fill="#1642DF" transform="translate(403,51)"/>
<path d="M0 0 C6.6 0 13.2 0 20 0 C20 2.97 20 5.94 20 9 C36.17 9 52.34 9 69 9 C69 14.61 69 20.22 69 26 C52.83 26 36.66 26 20 26 C20 27.65 20 29.3 20 31 C34.19 31 48.38 31 63 31 C63 36.61 63 42.22 63 48 C29.01 48 -4.98 48 -40 48 C-40 42.39 -40 36.78 -40 31 C-26.8 31 -13.6 31 0 31 C0 29.35 0 27.7 0 26 C-16.17 26 -32.34 26 -49 26 C-49 20.39 -49 14.78 -49 9 C-32.83 9 -16.66 9 0 9 C0 6.03 0 3.06 0 0 Z " fill="#1642DF" transform="translate(774,1)"/>
<path d="M0 0 C7.68387678 7.08782563 14.13076866 16.61130532 14.9296875 27.24609375 C15.12222992 36.52866498 14.46597647 42.12408712 8.00390625 48.88671875 C0.45287836 53.87324661 -7.11257826 55.24791331 -15.96875 53.5703125 C-30.07586258 50.09809773 -41.95949346 42.10089893 -50.30859375 30.07421875 C-55.83898422 20.39603543 -58.46292914 10.80133537 -55.6953125 -0.41015625 C-53.06331944 -6.39301273 -48.21039828 -10.34907439 -42.2109375 -12.7734375 C-26.7120506 -17.02086386 -11.71369797 -9.77132504 0 0 Z " fill="#1642DF" transform="translate(174.30859375,42.92578125)"/>
<path d="M0 0 C9.57 0 19.14 0 29 0 C29 39.93 29 79.86 29 121 C19.43 121 9.86 121 0 121 C0 81.07 0 41.14 0 0 Z " fill="#1642DF" transform="translate(653,4)"/>
<path d="M0 0 C0 1.98 0 3.96 0 6 C-1.59328125 6.36351562 -1.59328125 6.36351562 -3.21875 6.734375 C-15.88978327 9.70478036 -25.18512013 12.88609396 -32.9296875 24.11328125 C-37.09222169 31.45088713 -36.6105377 39.35058828 -34.4375 47.25 C-28.8324045 64.29964588 -16.40962667 75.57548021 -0.80078125 83.65625 C11.93741769 89.80676499 24.07698377 91.69806779 38 93 C37.50113281 94.34384766 37.50113281 94.34384766 36.9921875 95.71484375 C35.66790255 100.0995825 35.83708571 103.59231085 37 108 C38.92393551 110.8874873 38.92393551 110.8874873 41 113 C41 113.66 41 114.32 41 115 C14.90837018 116.38539627 -10.49523716 106.85689487 -30.08862305 89.62548828 C-42.56555451 78.25899486 -52.85070523 63.32380099 -54.3359375 46.10546875 C-54.4645208 33.20856377 -52.11170364 23.54114869 -43 14 C-31.36290194 3.17651261 -15.4970831 -0.32752456 0 0 Z " fill="#1642DF" transform="translate(137,14)"/>
<path d="M0 0 C17.82 0 35.64 0 54 0 C54 17.82 54 35.64 54 54 C36.18 54 18.36 54 0 54 C0 36.18 0 18.36 0 0 Z M19 18 C19 23.94 19 29.88 19 36 C23.95 36 28.9 36 34 36 C34 30.06 34 24.12 34 18 C29.05 18 24.1 18 19 18 Z " fill="#1642DF" transform="translate(920,10)"/>
<path d="M0 0 C18.47261422 2.17586081 35.97121648 13.32939609 49 26 C49.70898438 26.64710937 50.41796875 27.29421875 51.1484375 27.9609375 C61.1127678 37.31442762 69.40650611 51.09546265 70.23828125 64.9765625 C70.44511644 73.712529 70.47459939 81.21202943 66 89 C65.401875 90.051875 64.80375 91.10375 64.1875 92.1875 C59.18704696 98.6166539 54.4882984 102.7156586 47 106 C47.03480469 105.27554688 47.06960937 104.55109375 47.10546875 103.8046875 C47.33341893 95.96717668 47.33341893 95.96717668 44 89 C41.44860147 86.65674336 41.44860147 86.65674336 39 85 C40.09644386 82.30872871 41.20313713 80.80235306 43.3125 78.75 C49.24262897 72.68196105 52.09818634 66.90852939 52.3125 58.4375 C52.16072265 45.93104634 45.79961628 34.91754545 37.4375 25.875 C26.68319155 15.72510035 12.9647078 9.34966309 -1 5 C-0.67 3.35 -0.34 1.7 0 0 Z " fill="#1642DF" transform="translate(156,17)"/>
<path d="M0 0 C2.64352348 2.30242368 2.98942604 3.95921471 3.875 7.375 C4.0221162 11.64136986 3.45096394 13.52121248 1 17 C-2.41234859 19.40415469 -4.38189691 20 -8.5625 20 C-12.86635918 18.74796824 -14.48577015 17.73325038 -17 14 C-17.70151907 10.52662508 -17.7182387 7.47148704 -17 4 C-12.17306403 -2.56999619 -7.1633473 -2.80437426 0 0 Z " fill="#1642DF" transform="translate(196,109)"/>
<path d="M0 0 C0.66 0.66 1.32 1.32 2 2 C1.625 5.625 1.625 5.625 1 9 C-5.42548263 10.33359073 -5.42548263 10.33359073 -7.9375 8.875 C-9.37604008 6.33639987 -9.50262362 4.87213496 -9 2 C-6.07557433 -1.24936186 -4.04996841 -1.38551551 0 0 Z " fill="#1642DF" transform="translate(150,11)"/>
</svg>
