<svg xmlns="http://www.w3.org/2000/svg" role="img" viewBox="-5.27 -5.27 261.04 82.79"><g id="svgGroup" fill="#000" fill-rule="evenodd" stroke="#000" stroke-linecap="round" stroke-width=".25mm"><path d="M 198.5 65.6 L 191.9 72.4 L 157.9 39 L 157.9 71.2 L 148.4 71.2 L 148.4 1.2 L 157.9 1.2 L 157.9 33.1 L 187.7 0.9 L 194.1 6.8 L 166.8 35.2 L 198.5 65.6 Z M 250.5 71.2 L 208.5 71.2 L 208.5 1.2 L 250.5 1.2 L 250.5 9.4 L 218 9.4 L 218 30.7 L 246 30.7 L 246 38.7 L 218 38.7 L 218 63 L 250.5 63 L 250.5 71.2 Z M 0 65.3 L 4.8 57.3 Q 8.4 60.3 12.9 62.2 A 23.348 23.348 0 0 0 18.27 63.71 A 32.118 32.118 0 0 0 23.4 64.1 A 27.981 27.981 0 0 0 27.947 63.754 Q 30.37 63.354 32.331 62.494 A 13.701 13.701 0 0 0 34.8 61.1 Q 38.848 58.209 38.995 53.366 A 12.116 12.116 0 0 0 39 53 A 11.94 11.94 0 0 0 38.663 50.107 A 9.816 9.816 0 0 0 37.8 47.85 A 8.097 8.097 0 0 0 36.6 46.194 Q 35.33 44.813 33.184 43.471 A 25.81 25.81 0 0 0 33.15 43.45 Q 30.034 41.508 24.265 39.28 A 118.584 118.584 0 0 0 23 38.8 Q 15.8 36 11.5 33.15 A 21.931 21.931 0 0 1 8.411 30.703 Q 6.694 29.053 5.638 27.188 A 13.303 13.303 0 0 1 5.35 26.65 Q 3.5 23 3.5 18 Q 3.5 13 6.25 8.95 Q 9 4.9 14.35 2.45 A 25.558 25.558 0 0 1 20.25 0.615 Q 23.493 0 27.3 0 Q 33.5 0 38.45 1.25 Q 43.4 2.5 48.1 4.8 L 44.6 12.9 A 31.496 31.496 0 0 0 40.474 10.881 A 41.686 41.686 0 0 0 36.65 9.55 Q 32.1 8.2 27.1 8.2 A 27.187 27.187 0 0 0 23.07 8.48 Q 20.938 8.8 19.2 9.487 A 12.616 12.616 0 0 0 16.7 10.8 A 9.902 9.902 0 0 0 14.537 12.765 A 7.359 7.359 0 0 0 12.9 17.5 A 10.464 10.464 0 0 0 13.192 20.022 A 8.562 8.562 0 0 0 14 22.1 Q 15.056 24.019 18.091 25.847 A 23.503 23.503 0 0 0 18.35 26 A 33.003 33.003 0 0 0 20.566 27.172 Q 22.835 28.275 26.046 29.523 A 130.016 130.016 0 0 0 28.1 30.3 A 81.228 81.228 0 0 1 33.078 32.329 Q 37.464 34.3 40.45 36.4 A 26.044 26.044 0 0 1 43.49 38.878 Q 45.713 41.006 46.9 43.35 A 17.579 17.579 0 0 1 48.641 49.213 A 22.155 22.155 0 0 1 48.8 51.9 A 21.71 21.71 0 0 1 48.133 57.401 A 17.105 17.105 0 0 1 45.55 63 Q 42.3 67.6 36.55 70 A 30.521 30.521 0 0 1 29.14 72.004 A 40.027 40.027 0 0 1 23.4 72.4 Q 16.1 72.4 10.1 70.45 A 38.206 38.206 0 0 1 4.733 68.268 A 28.433 28.433 0 0 1 0 65.3 Z M 72.3 71.2 L 62.8 71.2 L 62.8 1.4 Q 66.9 0.9 71.85 0.65 A 200.806 200.806 0 0 1 80.78 0.404 A 221.966 221.966 0 0 1 82.1 0.4 Q 89.67 0.4 95.272 2.482 A 26.011 26.011 0 0 1 96.9 3.15 A 24.606 24.606 0 0 1 101.982 6.179 A 19.374 19.374 0 0 1 106.2 10.7 Q 109.4 15.5 109.4 21.7 A 25.258 25.258 0 0 1 108.692 27.822 A 19.268 19.268 0 0 1 105.7 34.4 A 22.312 22.312 0 0 1 98.149 41.03 A 28.065 28.065 0 0 1 95.4 42.35 A 34.774 34.774 0 0 1 87.311 44.574 A 47.194 47.194 0 0 1 80.1 45.1 Q 75.9 45.1 72.3 44.8 L 72.3 71.2 Z M 130.4 71.2 L 120.9 71.2 L 120.9 1.2 L 130.4 1.2 L 130.4 71.2 Z M 72.3 8.8 L 72.3 36.7 Q 73.4 36.838 74.831 36.952 A 96.255 96.255 0 0 0 76.2 37.05 Q 78.5 37.2 81.3 37.2 A 31.831 31.831 0 0 0 86.68 36.775 Q 89.559 36.28 91.863 35.211 A 15.221 15.221 0 0 0 95.1 33.2 A 12.896 12.896 0 0 0 99.955 23.758 A 17.32 17.32 0 0 0 100 22.5 A 14.452 14.452 0 0 0 99.239 17.707 A 12.136 12.136 0 0 0 95.3 12.2 A 15.462 15.462 0 0 0 90.219 9.537 Q 87.993 8.826 85.3 8.56 A 34.58 34.58 0 0 0 81.9 8.4 A 131.125 131.125 0 0 0 78.642 8.439 A 109.939 109.939 0 0 0 76.8 8.5 A 91.274 91.274 0 0 0 73.917 8.664 A 75.041 75.041 0 0 0 72.3 8.8 Z" vector-effect="non-scaling-stroke"/></g></svg>