<svg xmlns="http://www.w3.org/2000/svg" role="img" viewBox="32.06 7.31 373.62 179.12"><g fill-rule="evenodd" stroke="none"><path fill="#d70506" d="M182.5 46.583v3.75h33.833v-7.5H182.5v3.75m10.077 5.625c-.044.115-.06 5.721-.037 12.459l.043 12.25 6.792.043 6.792.044V52h-6.756c-5.25 0-6.773.046-6.834.208m-4.66 28.693c-1.324 1.165-3.793 3.316-4.249 3.703-1.253 1.062-2.275 1.986-2.454 2.217-.381.491-.295 20.435.089 20.804.167.16.734.667 1.26 1.125.526.458 1.167 1.021 1.423 1.25.493.44 1.979 1.726 2.681 2.319.229.194.596.52.816.725 1.205 1.123 1.204 1.123 3.966 1.123H194v-34h-2.625l-2.625.001-.833.733M196 83.583V87h8.667v6.837l6.541-.043 6.542-.044.045-3.348.045-3.347-.878-.82c-.483-.451-1.203-1.083-1.6-1.403-.396-.32-.959-.807-1.25-1.082-.291-.275-1.005-.913-1.587-1.417-.582-.504-1.37-1.197-1.75-1.539l-.692-.623-7.041-.002-7.042-.002v3.416m-46.8 1.45c-.322.322-.243.8.133.8.299 0 .334.111.334 1.07 0 1.513.053 1.597 1.017 1.597h.816v-3.667h-1.05c-.594 0-1.137.087-1.25.2m4.505.266c-.53.474-.538.503-.538 1.966v1.485l.574.458c1.017.811 1.092.71 1.092-1.458v-1.917h.678c.641 0 .675-.024.625-.458-.083-.72-1.654-.769-2.431-.076m2.628 1.451v1.917h-.583c-.537 0-.583.039-.583.5 0 .742 1.566.758 2.335.023 1.112-1.063.512-4.357-.793-4.357-.368 0-.376.04-.376 1.917m-9.208-.323c-.751.586-.792.659-.792 1.429v.811h-.583c-.537 0-.583.039-.583.5 0 .498.003.5.968.5 1.529 0 1.894-.48 1.83-2.403l-.048-1.454-.792.617m-2.939 2.2c-.549.458-.549.461-.214.764.552.5.937.3.996-.517.06-.831-.043-.864-.782-.247m4.814.546v.506l1.625-.048 1.625-.048.053-.458.052-.458H149v.506m9.864-.049c.079.681.636.73.636.055 0-.407-.071-.512-.344-.512-.278 0-.335.089-.292.457m-20.083 5.343c-1.056 1.103-.39 4.572.844 4.396.364-.051.375-.109.375-1.958V95h.583c.537 0 .584-.04.584-.5 0-.741-1.685-.764-2.386-.033m2.663-.356c-.061.061-.111.924-.111 1.917v1.805h-.583c-.537 0-.583.04-.583.5 0 .794 1.683.76 2.467-.049.819-.845.809-2.951-.017-3.751-.527-.512-.936-.658-1.173-.422m2.931.367c-.834.743-.829 3.011.008 3.823 1.016.985 1.278.525 1.282-2.249l.002-1.031.541-.052c.453-.044.542-.121.542-.469 0-.68-1.618-.695-2.375-.022M147 95.917v1.916h-.573c-.646 0-.831.183-.677.668.181.571 1.692.47 2.38-.158 1.154-1.055.591-4.343-.745-4.343-.38 0-.385.025-.385 1.917m2.867-1.708c-.333.402-.287.677.133.783.394.1.419.177.465 1.39l.049 1.285H152V94h-.98c-.581 0-1.05.085-1.153.209m4.34-.016c-.325.325-.253.807.119.807.292 0 .332.137.375 1.292l.049 1.291H156.417v-3.5l-1.002-.048c-.635-.031-1.077.027-1.208.158m4.413.269c-.425.443-.453.568-.453 1.972 0 3.205 1.217 1.924 1.362-1.433.047-1.099-.221-1.258-.909-.539m-22.416.131c-.336.235-.371.398-.371 1.75v1.49h-.583c-.537 0-.583.04-.583.5 0 .721 1.376.746 2.259.042l.574-.458v-1.516c0-1.911-.384-2.447-1.296-1.808m-2.704 2.021c-.95.731-.993.956-.316 1.654.956.986 1.316.568 1.316-1.531 0-.766-.141-.783-1-.123m16.082 1.387c-.389.631.075.845 1.723.797l1.612-.048.052-.458.053-.459h-1.668c-.942 0-1.713.074-1.772.168m4.418.338v.506l1.625-.047 1.625-.048.053-.458.052-.459H154v.506m-22.917.073l-.5.409.625.006c.557.006.625-.039.625-.41 0-.52-.121-.521-.75-.005m73.584 6.419v2.502H196v6.834l7.042-.001 7.041-.001.761-.708c1-.93 2.613-2.334 3.239-2.819.275-.213.693-.575.927-.804.235-.23.862-.792 1.394-1.251.531-.458 1.072-.934 1.202-1.058.187-.178.227-.731.19-2.666l-.046-2.442-6.542-.044-6.541-.044v2.502m-76.225-1.359c-.26.287-.242.344.301.958l.576.653.007-.458c.007-.422.06-.458.674-.458.63 0 .667-.028.667-.5 0-.629-1.698-.777-2.225-.195m2.391 1.277v1.582l.688.498c.911.661.979.577.979-1.205 0-1.677-.407-2.457-1.281-2.457-.376 0-.386.039-.386 1.582m2.766-1.267c-.339.375-.231.685.237.685.28 0 .322.151.365 1.291l.049 1.292H135.917v-3.5l-1.01-.049c-.833-.04-1.061.009-1.308.281m4.522.145c-.741.774-.688 3.136.087 3.866.906.854 1.035.683 1.089-1.444l.047-1.863.62-.051c.536-.045.619-.108.619-.468 0-.685-1.816-.714-2.462-.04m2.676 1.415l-.047 1.875-.635.052c-.58.048-.631.091-.583.5.086.75 1.638.755 2.409.008.861-.835.862-3.229.002-3.885-1.009-.77-1.093-.664-1.146 1.45m2.812-1.571c-.392.434-.341.696.134.696.396 0 .411.044.458 1.291l.049 1.292.792.051.791.051v-3.685h-.974c-.732 0-1.043.075-1.25.304m4.506.163c-.729.761-.681 3.307.074 3.942.92.775 1.055.589 1.108-1.536l.047-1.873h.578c.531 0 .578-.041.578-.5 0-.742-1.684-.765-2.385-.033m2.663-.356c-.061.061-.111.923-.111 1.916V107h-.584c-.537 0-.583.04-.583.5 0 .817 1.643.638 2.708-.296.585-.513.413-2.855-.258-3.505-.527-.511-.936-.658-1.172-.421m2.764.138c-.349.396-.25.751.208.751.394 0 .417.049.417.922 0 1.051.122 1.059 1.125.072.447-.441.541-.661.541-1.264v-.73l-1.041.006c-.684.004-1.114.088-1.25.243m-20.209 3.891c0 .577.39.709 1.942.658 1.449-.047 1.475-.056 1.475-.465 0-.414-.01-.417-1.708-.464-1.588-.044-1.709-.025-1.709.271m10.031.151l.053.459 1.625.047 1.625.048V107h-3.356l.053.458m39.303 26.959V151.5h13.166v-34.167h-13.166v17.084m21.5 7.914v2.169h-6.334v7.003l9.125-.043 9.125-.043V140.25l-5.958-.044-5.958-.044v2.169"/><path fill="#040404" d="M104.417 15.014c-2.952.121-8.518.572-9.084.736-.137.04-1.525.269-3.083.508-1.558.24-3.471.585-4.25.766-.779.182-2.279.513-3.333.736-19.46 4.123-37.653 18.018-42.524 32.478-3.326 9.873-3.46 24.723-.312 34.679.377 1.191.8 2.541.94 3 .297.974 2.55 5.098 4.201 7.691.634.995 2.037 3.196 3.117 4.892 3.195 5.012 4.187 7.228 4.889 10.917.192 1.008.802 4.231 1.356 7.162.553 2.93 1.061 5.376 1.128 5.434.105.092 6.353 2.566 20.038 7.934 1.971.773 4.221 1.66 5 1.971l1.417.566.083 21.049c.091 22.963.022 21.397.991 22.424.977 1.035-1.077.96 26.259.96h24.833l.667-.349c.367-.191.892-.666 1.167-1.055l.5-.708.083-21.102.083-21.101 1.834-.724c1.008-.399 3.521-1.391 5.583-2.206 4.359-1.721 10.119-3.99 13.333-5.251 1.238-.486 3.112-1.221 4.165-1.634l1.914-.751.685-3.56c.377-1.958.964-5.059 1.305-6.893 1.433-7.706 1.803-8.605 6.709-16.298 8.027-12.588 11.457-32.116 7.643-43.509-.128-.381-.456-1.443-.728-2.359-2.053-6.9-7.922-14.989-14.758-20.34-2.656-2.08-2.988-2.315-5.518-3.924-5.948-3.783-14.749-7.533-21.417-9.126-2.864-.684-6.49-1.414-8.833-1.778-1.513-.235-2.862-.459-3-.497-2.28-.636-15.366-1.054-23.083-.738m1.982 9.25c.21.548.113 46.324-.099 46.536-.281.281-3.977.274-4.329-.008-.142-.115-.839-1.059-1.549-2.098-.709-1.039-2.107-3.056-3.106-4.483L95.5 61.616v-28.25l2.134-3.058c1.174-1.682 2.64-3.789 3.259-4.683L102.016 24h2.141c1.798 0 2.157.042 2.242.264m13.557.361c.267.344 1.074 1.488 1.793 2.542.72 1.054 1.971 2.866 2.78 4.026l1.471 2.11V43h-10.833v-9.5H108V24h11.472l.484.625M91.917 35.333v3.417H63.583l-.045-3.245c-.025-1.785-.008-3.342.037-3.459.066-.173 2.825-.206 14.212-.172l14.13.043v3.416m50.25 12.167v15.667h-11V31.833h11V47.5M83.5 51.75v11.417H72V40.333h11.5V51.75m185.667 1.583v2.334h5.666V51h-5.666v2.333m55.666 10.5v12.5h5.5v-25h-5.5v12.5M159 58v5.167h-15.333v-6.334H149v-1.889c0-1.038.05-1.938.111-2 .061-.061 2.311-.111 5-.111H159V58m97.5-2.667v2.5h-3V61.5h2.988l.058 6.125c.031 3.369.098 6.237.147 6.375.278.772.404.965.954 1.463.331.301.791.589 1.02.639.229.051.615.154.857.23.243.076 1.686.148 3.208.16l2.768.021v-3.674l-.792-.007c-1.499-.015-1.875-.06-1.875-.223 0-.091-.049-.115-.109-.055-.453.453-.533-.368-.55-5.647l-.019-5.407H265.5v-3.667h-3.333v-5H256.5v2.5M126 58.154v3.488l-3.179 4.595c-2.143 3.098-3.297 4.625-3.542 4.684-.199.049-2.8.068-5.779.042l-5.417-.046-.044-4.705-.044-4.705 3.544-.045 3.544-.045.045-3.375.046-3.375H126v3.487m91.325-.756c-.048.047-.347.124-.664.171-.974.143-1.568.301-1.79.477-.117.093-.256.124-.31.071-.117-.117-1.281.597-1.881 1.154-.235.218-.483.396-.552.396-.26 0-1.415 2.764-1.445 3.458l-.03.708h2.757c2.94 0 2.832.031 2.802-.79-.008-.214 1.189-1.532 1.413-1.557.069-.007.35-.061.625-.119.972-.207 2.581-.117 3.785.21.5.136 1.237 1.408 1.069 1.845-.052.136-.093.29-.091.341.009.195-.818.726-1.279.821-.774.16-.809.17-.987.281-.093.059-.463.078-.823.043-.359-.035-.733.002-.83.082-.098.08-.627.185-1.177.233-.55.048-1.488.17-2.084.272-.596.101-1.196.2-1.333.22-.138.019-.287.074-.333.122-.212.22-1.044.489-1.205.389-.107-.066-.132-.033-.061.082.066.107.023.193-.099.193-.197.002-2.031 1.465-2.088 1.666-.013.045-.116.308-.228.583-.112.275-.246.612-.297.75-.258.691-.096 3.92.221 4.393 1.02 1.525 2.873 2.687 4.59 2.879 1.922.215 3.949-.01 5.167-.573.32-.148.62-.274.666-.279.208-.024 1.167-.672 1.167-.789 0-.072.078-.131.174-.131.096 0 .373-.185.617-.411.526-.488.497-.504.601.329.19 1.528-.079 1.415 3.377 1.415 2.988 0 3.064-.008 3.064-.345 0-.359-.393-.872-.55-.716-.132.132-.481-.586-.371-.764.051-.083.022-.196-.065-.249-.094-.059-.164-2.547-.174-6.181-.01-3.763-.083-6.257-.19-6.539-.095-.251-.177-.493-.183-.539-.057-.502-1.122-1.987-1.43-1.995-.118-.003-.257-.117-.309-.254-.053-.137-.168-.205-.256-.15-.087.054-.305-.033-.482-.194-.178-.161-.323-.234-.323-.162 0 .071-.094.051-.208-.044-.115-.095-.266-.173-.336-.174-.302-.004-1.22-.242-1.373-.357-.091-.068-.335-.11-.541-.092-.207.018-.375-.017-.375-.077 0-.13-5.215-.231-5.342-.103m23.169-.004c-.049.05-.349.12-.667.156-.629.071-2.809.771-3.077.988-.092.074-.392.322-.667.55-.275.228-.623.453-.773.502-.637.204-2.318 3.202-2.557 4.56-.048.275-.154.672-.234.883-.207.546-.101 4.453.138 5.05.11.275.183.5.164.5-.108 0 .263.966.73 1.904.449.905 2.449 3.306 2.449 2.942 0-.065.214.034.475.22s.842.458 1.292.604c.449.146.929.311 1.066.365.628.249 4.87.373 5.917.174.686-.131 1.349-.33 1.859-.558.288-.129.577-.234.64-.234.064 0 .324-.148.577-.328.254-.181.492-.299.529-.262.037.037.584-.453 1.216-1.088s1.085-1.155 1.007-1.155c-.078 0-.011-.096.149-.213.161-.117.312-.324.337-.459.039-.211.217-.64.757-1.828.062-.138.11-.438.105-.667l-.009-.417-2.84-.045c-2.616-.042-2.841-.022-2.862.25-.085 1.099-1.076 2.48-2.009 2.8-.808.278-2.873.321-2.873.06 0-.112-.047-.157-.104-.099-.163.162-1.181-.319-1.634-.772-.224-.225-.363-.454-.307-.509.055-.056.022-.101-.075-.101-.646 0-1.214-3.972-.823-5.75.061-.275.151-.744.201-1.042.05-.298.162-.542.25-.542.087 0 .159-.115.159-.256 0-.294.661-1.244.865-1.244.074 0 .272-.137.439-.304.517-.517 2.14-.769 3.296-.512.976.217 2.542 1.452 2.312 1.824-.046.075-.008.183.085.241.093.057.17.25.17.428 0 .308.14.323 2.882.323h2.883l-.01-.541c-.006-.298-.066-.629-.133-.735-.068-.107-.14-.388-.159-.625-.02-.238-.103-.432-.184-.432-.082 0-.105-.113-.052-.25.052-.138.023-.25-.066-.25s-.161-.15-.161-.333c0-.184-.075-.334-.167-.334-.092 0-.167-.117-.167-.26 0-.142-.067-.218-.149-.167-.13.08-.422-.344-.393-.573.014-.115-.344-.431-.513-.452-.076-.009-.358-.212-.625-.45-.267-.239-.486-.394-.486-.345 0 .049-.207-.017-.459-.146-1.546-.793-7.202-1.56-7.714-1.046m46.478.023c-.046.046-.396.095-.778.11s-.694.072-.694.125c0 .054-.45.242-1 .418-.55.175-1 .394-1 .486 0 .091-.044.122-.098.069-.236-.236-2.659 2.181-3.15 3.143-.183.357-.377.686-.432.732-.093.078-.386 1.125-.629 2.25-.137.636-.132 4.505.007 5.167.25 1.196.681 2.284 1.221 3.087.32.475.581.887.581.917 0 .473 2.307 1.952 3.833 2.457 1.99.657 5.749.732 7.613.151.291-.091.572-.122.625-.069.053.052.096.016.096-.081s.199-.226.442-.287c.243-.061.787-.35 1.208-.641.422-.292.823-.512.891-.491.069.022.107-.054.084-.168-.023-.115.07-.184.208-.153.137.03.197.003.132-.062-.064-.065.086-.325.334-.579.629-.644 1.048-1.165.938-1.165-.051 0 .057-.21.24-.468.184-.258.384-.67.446-.917.062-.246.164-.448.227-.448s.133-.275.156-.611c.023-.336.08-.673.127-.75.048-.076-1.229-.139-2.837-.139h-2.923l-.101.458c-.055.252-.144.571-.197.709-.053.137-.103.287-.111.333-.106.602-1.576 1.803-1.936 1.58-.089-.055-.162-.036-.162.041 0 .119-.571.233-1.25.25-1.629.042-4.332-1.897-3.813-2.736.05-.082-.008-.27-.131-.418-.296-.357-.296-4.915.001-5.014.107-.035.149-.141.091-.233-.11-.179.239-.97.519-1.176.092-.067.11-.123.04-.125-.234-.005.766-1.006 1.243-1.244 2.049-1.022 4.959-.352 5.395 1.242.012.045.116.327.23.625l.208.541h5.758l-.134-.708c-.148-.79-.257-1.143-.578-1.875-.121-.275-.244-.612-.274-.749-.03-.138-.167-.341-.305-.453-.137-.112-.201-.206-.142-.209.059-.003-.166-.289-.5-.636-.334-.346-.664-.604-.733-.573-.068.031-.125-.018-.125-.109s-.168-.219-.375-.284c-.206-.065-.555-.236-.775-.38-.22-.144-.482-.28-.583-.303-.101-.022-.483-.125-.85-.228-1.474-.414-5.98-.708-6.278-.409m20.861.082c-1.006.183-1.789.409-2.541.734-.343.149-.645.251-.67.227-.177-.166-2.342 2.272-2.439 2.747-.044.211-.204.694-.363 1.093-.084.21-.153.641-.153.958v.575h5.307l.198-.599c.186-.564 1.136-1.718 1.439-1.748.076-.007.364-.061.639-.119 1.012-.215 2.745-.117 3.837.216.447.136 1.08 1.081 1.08 1.613 0 .906-2.095 1.966-3.392 1.716-.262-.05-.562-.026-.667.053-.105.08-.491.159-.858.176-.592.028-1.665.204-2.917.479-.229.05-.566.111-.75.135-1.208.157-4.124 2.197-3.958 2.768.023.079-.021.144-.097.144-.077 0-.147.093-.157.208-.009.115-.146.69-.305 1.278-.467 1.735.228 4.09 1.51 5.113.279.223.598.48.709.57.11.09.26.164.333.165.073.001.324.102.56.224.894.467 1.608.591 3.489.604 2.351.017 3.746-.443 5.637-1.861.98-.733 1.002-.734 1.093-.037.035.267.146.692.246.944l.182.458h3.004c3.372 0 3.627-.118 2.504-1.166-.355-.333-.503-.628-.51-1.026-.005-.307-.027-3.145-.047-6.308-.038-5.828-.059-6.114-.518-7.034-.142-.284-.258-.618-.258-.741 0-.124-.056-.225-.125-.226-.069-.001-.444-.307-.833-.68-.39-.372-.709-.619-.709-.548 0 .071-.09.039-.2-.071-.11-.11-.335-.2-.5-.2-.165 0-.3-.079-.3-.176 0-.097-.064-.137-.142-.089-.134.083-.854-.108-1.608-.425-.183-.077-.483-.144-.666-.149-3.884-.108-5.467-.106-6.084.005m-38.666 9.584v9.25h5.666v-18.5h-5.666v9.25m-46.059 1.542c-.177 2.115-.905 3.956-1.435 3.629-.076-.047-.184.034-.24.181-.059.152-.209.225-.351.171-.137-.053-.249-.041-.249.025 0 .716-3.584.864-4.32.179-.19-.178-.349-.264-.351-.191-.005.126-.39-.447-.416-.619-.007-.046-.072-.259-.145-.473-.411-1.207.737-2.616 2.399-2.946.046-.009.333-.076.638-.148.305-.073.718-.153.917-.178 1.027-.13 2.502-.462 2.984-.672.299-.13.574-.24.611-.243.036-.004.017.575-.042 1.285m90.885 1.37c-.47 2.138-1.959 3.208-4.505 3.238-1.443.017-2.87-.583-2.565-1.077.053-.086.009-.156-.099-.156-.137 0-.175-.325-.127-1.08.077-1.216.627-1.924 1.687-2.174.293-.069.57-.138.616-.154.285-.095 1.279-.303 1.647-.344.48-.054 2.172-.384 2.436-.475.092-.031.355-.133.584-.227.516-.21.665.908.326 2.449M156.226 81.826c2.738 2.667 3.897 6.887 3.456 12.591-.784 10.136-6.365 14.98-17.265 14.986-7.643.004-12.597-2.216-15.14-6.784-.607-1.091-.624-1.056 1.171-2.369.877-.642 7.117-5.306 13.865-10.366 6.749-5.06 12.372-9.203 12.496-9.208.125-.005.762.512 1.417 1.15m-88.393 2.033c.321.196.809.485 1.084.641.275.157 2.075 1.243 4 2.415 1.925 1.171 4.587 2.785 5.916 3.585 1.329.8 3.954 2.39 5.834 3.533 1.879 1.143 4.766 2.889 6.416 3.881 2.578 1.55 5.568 3.382 5.711 3.499.406.333-2.266 3.737-3.837 4.889-5.847 4.286-17.518 4.31-23.268.048-5.365-3.977-7.22-14.243-3.813-21.1.984-1.981.989-1.984 1.957-1.391m276 2.974v2.334h5.667V84.5h-5.667v2.333m-12.5 2V91.5h-3V95h3v6.146c0 6.49.025 6.724.796 7.621.51.593 2.051 1.184 3.192 1.224.406.014.803.066.882.115.08.049 1.041.036 2.137-.03l1.993-.119v-1.728c0-1.945.157-1.756-1.5-1.818-.907-.035-1.497-.175-1.737-.415-.118-.118-.197-2.023-.231-5.587L336.814 95h3.519v-3.5h-3.5v-5.333h-5.5v2.666m-100.519 1.739c-.101.104-2.287.424-3.189.467-.252.012-.458.083-.458.158s-.138.136-.306.136c-.168 0-.362.057-.43.125-.069.069-.194.135-.278.146-.084.012-.172.036-.195.055-.023.018-.168.058-.322.087-.155.03-.451.212-.657.404-.206.193-.439.35-.518.35-.446 0-2.805 2.902-2.729 3.358.01.059-.109.247-.263.418-.155.17-.321.497-.37.725-.049.229-.175.753-.281 1.166-.385 1.499-.288 3.679.258 5.833.132.519.592 1.481.758 1.583.094.059.128.177.076.262-.053.085-.022.155.069.155s.21.141.264.313c.114.356 2.089 2.484 2.093 2.254.001-.083.058-.072.125.024.261.37 2.234 1.313 2.539 1.213.046-.015.258.067.472.181 1.102.59 6.757.606 7.847.022.191-.102.348-.149.348-.105 0 .175 2.015-.726 2.205-.985.068-.092.124-.108.125-.035.004.16.352-.121 1.035-.836.283-.296.59-.49.683-.433.097.06.119.023.051-.087-.065-.106-.058-.193.016-.194.074 0 .312-.261.529-.58.217-.318.535-.741.708-.941.173-.199.314-.454.314-.567 0-.113.112-.421.249-.683.137-.263.25-.646.25-.853.001-.206.063-.375.138-.375.075 0 .145-.206.156-.458.027-.619.215-1.919.297-2.051.095-.155-.24-2.084-.549-3.155-.144-.502-.263-1.009-.263-1.125 0-.116-.062-.211-.139-.211-.076 0-.139-.112-.139-.25 0-.137-.081-.25-.18-.25-.1 0-.151-.089-.115-.198.036-.108-.051-.33-.194-.493-.143-.162-.523-.623-.844-1.024-.321-.401-.82-.911-1.109-1.132-.289-.222-.494-.454-.456-.516.039-.062-.1-.165-.308-.23-.207-.064-.578-.259-.824-.432-.247-.173-.509-.302-.584-.285-.075.016-.286-.027-.469-.095-.857-.323-1.22-.42-1.917-.515-2.896-.395-3.417-.445-3.519-.341m25.353.398c-.229.071-.586.116-.792.102-.206-.015-.375.032-.375.104s-.223.18-.496.24c-.272.06-.862.438-1.31.841-.448.403-.875.679-.948.613-.073-.066-.093-.045-.044.047.049.091-.052.311-.223.487-.306.314-.312.296-.312-.917V91.25l-2.75.049-2.75.05v18.484h5.848l-.024-6.415c-.029-7.76.022-7.923 2.583-8.265 3.682-.492 4.093.427 4.093 9.171v5.509h5.678l-.02-6.234c-.021-6.657-.034-6.532.798-7.403.116-.121.21-.302.21-.402 0-.101.046-.137.101-.082.056.056.251-.038.434-.209.558-.519 3.465-.646 3.465-.151 0 .082.107.148.238.148.266 0 1.271 1.143 1.241 1.412-.01.094-.009 3.04.002 6.546l.019 6.375h5.834l.041-3.041c.075-5.43.045-9.529-.074-10.125-.064-.321-.135-.902-.158-1.292-.023-.39-.087-.708-.143-.708-.056 0-.231-.293-.389-.65-.252-.571-.946-1.314-2.064-2.208-.189-.151-.577-.326-.862-.388-.285-.063-.518-.17-.518-.237 0-.143-.326-.176-2.541-.261-.893-.034-1.66-.003-1.704.069-.044.071-.27.109-.501.084-.231-.026-.421.015-.421.091 0 .075-.3.188-.666.25-.367.062-.667.185-.667.274 0 .089-.065.122-.144.073-.08-.049-.647.404-1.262 1.006-1.097 1.075-1.552 1.179-1.589.363-.018-.396-1.905-1.8-2.419-1.8-.139 0-.253-.06-.253-.133 0-.148-.116-.163-2.25-.277-.825-.044-1.687-.023-1.916.047m35.666 0c-.229.071-.585.116-.791.102-.207-.015-.375.03-.375.099 0 .103-.353.246-1 .406-.273.067-1.127.61-1.367.868-.156.168-.364.38-.462.472-.099.091-.328.347-.509.567l-.329.4v-2.717h-5.5v26h5.5l.005-4.792c.005-4.25.033-4.755.25-4.468.135.178.245.255.245.172 0-.083.358.21.796.65 1.35 1.358 5.321 2.133 7.2 1.404.231-.089.56-.191.731-.225.46-.093 1.838-.775 1.979-.98.067-.098.123-.122.125-.054.003.155.726-.452 1.385-1.163.598-.646 1.617-2.3 1.617-2.626 0-.128.075-.278.167-.335.092-.057.167-.286.167-.51 0-.224.063-.407.14-.407.176 0 .25-1.05.247-3.5-.004-2.283-.085-3.333-.26-3.333-.07 0-.127-.106-.127-.236s-.148-.581-.329-1.002c-.18-.422-.321-.784-.311-.806.027-.065-.898-1.133-1.569-1.811-.343-.347-.626-.579-.627-.513-.002.065-.058.041-.125-.053-.127-.176-1.058-.815-1.206-.827-.046-.004-.177-.067-.292-.139-.114-.073-.208-.082-.208-.019 0 .062-.094.04-.208-.051-.187-.147-.761-.341-1.459-.492-.634-.137-3.127-.195-3.5-.081m73.494-.077c-.049.05-.349.128-.666.173-.931.131-1.113.186-1.394.42-.147.122-.267.173-.267.114 0-.129-.785.361-1.24.774-.177.161-.384.293-.458.293-.074 0-.135.083-.135.184 0 .101-.188.407-.417.679l-.417.496v-2.693H355v18.5h5.679l-.02-5.708c-.012-3.14.036-5.933.105-6.208.338-1.346 1.566-2.629 2.694-2.814.252-.042.496-.089.542-.106 1.092-.395 3.13.204 3.833 1.128l.584.766.052 6.471.052 6.471H374.352l-.075-6.875c-.091-8.305-.275-9.403-1.727-10.337-.11-.07-.316-.245-.458-.387-.142-.142-.259-.21-.259-.151 0 .058-.225-.054-.5-.25-.275-.195-.5-.311-.5-.257 0 .054-.174-.016-.388-.156-.214-.14-.439-.204-.5-.143-.061.062-.112.038-.112-.052 0-.177-.041-.182-2.666-.327-.963-.054-1.791-.056-1.84-.005m20.173-.008c-.046.046-.323.121-.616.167-.706.11-1.761.452-1.959.635-.087.08-.259.146-.382.146-.25 0-.411.123-1.427 1.084-.799.756-1.683 1.847-1.593 1.968.033.044-.077.231-.244.416-.167.185-.325.437-.35.559-.045.223-.175.597-.426 1.223-.895 2.24-.519 6.875.701 8.625.175.252.265.459.199.459-.067 0 .041.14.238.311.198.171.359.387.359.481 0 .093.169.285.375.426.206.141.6.457.875.702.498.444 1.882 1.216 2.397 1.338 4.127.973 6.631.574 8.58-1.368l.81-.807-.093 1.8c-.097 1.876-.734 3.76-1.238 3.658-.113-.023-.206.017-.206.087 0 .229-1.058.681-2.05.876-1.813.356-4.54-.402-4.644-1.29-.061-.523-.204-.548-3.236-.548h-3.062l.102.542c.217 1.152 2.223 4.194 2.223 3.37 0-.055.211.049.469.233.258.183.67.384.916.446.247.062.449.167.449.233s.093.128.208.136c.115.009.433.068.708.133.275.065.632.112.792.106.16-.006.292.054.292.135 0 .08.131.145.291.144.161 0 1.454.014 2.875.033 1.421.019 2.921-.027 3.334-.101.412-.074.937-.149 1.166-.167.23-.018.417-.048.417-.067 0-.044.598-.189.875-.213.115-.01.208-.073.208-.139 0-.066.194-.169.43-.229.453-.113 1.595-.808 2.143-1.303.178-.16.384-.292.459-.292.074 0 .135-.096.135-.213 0-.117.146-.318.324-.447.179-.128.29-.29.248-.359-.043-.068-.001-.171.092-.229.093-.058.169-.244.169-.414 0-.171.064-.335.142-.365.512-.202.663-2.922.681-12.264l.018-9.375h-5.507v2.742l-.481-.579c-.83-1.001-1.331-1.497-1.511-1.497-.096 0-.175-.059-.175-.132 0-.072-.356-.233-.792-.358-.435-.124-.904-.259-1.041-.3-.388-.115-3.573-.252-3.667-.158m-79.665 5.74c.001 4.567.09 6.508.398 8.708.319 2.277 2.031 4.118 4.267 4.587 2.196.461 2.785.488 4.5.205 1.64-.27 3.933-1.474 4.364-2.292.202-.383.223-.321.268.792l.049 1.208h5.48l.045-9.333.044-9.333h-5.75l-.025 5.708c-.014 3.14-.04 5.783-.057 5.875-.245 1.328-.353 1.547-1.159 2.346-.963.956-.81.904-2.881.978-1.515.054-2.828-.25-2.609-.605.046-.074.006-.136-.089-.136-.231 0-.668-.686-.812-1.274-.064-.262-.116-3.269-.117-6.684l-.001-6.208h-5.917l.002 5.458m37.998 3.875v9.333h5.662l.044-9.333.044-9.333h-5.75v9.333m-110.208-5.259c.39.162.708.375.708.472 0 .097.047.129.103.073.143-.143 1.199 1.149 1.471 1.799.656 1.571.633 4.718-.044 5.998-.146.275-.249.557-.231.625.057.205-1.276 1.457-1.764 1.658-1.024.42-2.931.711-3.282.499-.147-.089-.425-.15-1.044-.228-.115-.014-.209-.088-.209-.165 0-.076-.15-.139-.333-.139-.183 0-.333-.087-.333-.194 0-.107-.051-.144-.113-.081-.135.135-1.387-1.209-1.387-1.489 0-.107-.115-.29-.254-.406-.14-.116-.218-.247-.173-.292.045-.045.002-.231-.096-.414-.3-.559-.236-4.297.084-4.915.15-.289.272-.607.272-.707 0-.101.074-.273.164-.384.09-.11.362-.448.604-.75.242-.301.475-.514.517-.472.042.042.217-.043.389-.19.824-.706 3.577-.872 4.951-.298m59.771.178c.331.138.646.245.7.237.183-.028 1.426 1.38 1.608 1.821 1.147 2.787.808 5.743-.864 7.537-.338.361-.664.606-.727.544-.062-.063-.113-.035-.113.061 0 .443-2.082.743-3.53.508-.861-.139-3.004-1.46-2.37-1.46.077 0-.031-.121-.241-.268-.219-.153-.342-.37-.289-.508.051-.133.028-.201-.052-.152-.24.148-.403-.889-.443-2.822-.036-1.731.172-3.084.475-3.084.075 0 .09-.075.033-.167-.144-.234.746-1.439 1.25-1.692.23-.115.548-.318.709-.451.16-.133.291-.188.291-.124 0 .065.132.041.292-.052.449-.262 2.584-.215 3.271.072m96.856.009c3.106 1.298 3.878 6.56 1.336 9.114-.433.435-.93.791-1.104.791-.175 0-.317.063-.317.139 0 .234-2.516.342-3.301.142-.805-.206-2.15-1.275-1.908-1.517.054-.053.019-.097-.078-.097-.176 0-.644-.86-.841-1.548-.393-1.374-.051-4.61.561-5.298.128-.145.233-.346.233-.448 0-.101.151-.231.336-.29.185-.059.297-.17.249-.248-.432-.698 3.495-1.299 4.834-.74m-276.78 13.78c2.144 2.765 1.816 2.387 5.445 6.278 1.558 1.671 2.858 3.108 2.889 3.193.033.094-3.936.154-10.125.154-5.6 0-10.181-.061-10.181-.136 0-.145 1.181-1.486 3.914-4.447 2.297-2.488 2.525-2.754 4.012-4.667 1.548-1.992 2.149-2.75 2.18-2.75.013 0 .853 1.069 1.866 2.375m127.695 28.959v12.5h5.5v-2.021l1.084.969c.596.532 1.177.975 1.291.984.114.009.429.106.7.217 1.226.502 4.297.504 6.091.004.981-.273 3.724-1.971 3.221-1.993-.076-.003.026-.097.227-.208.2-.111.365-.261.366-.333.001-.071.271-.573.6-1.114 1.312-2.16 1.727-4.722 1.322-8.172-.07-.596-.114-1.14-.098-1.208.016-.069-.046-.125-.138-.125-.091 0-.166-.102-.166-.227 0-.266-.934-2.072-1.269-2.453-.127-.145-.231-.333-.231-.419 0-.085-.233-.342-.518-.57-.284-.228-.622-.514-.75-.635s-.232-.178-.232-.127c0 .052-.132-.018-.292-.156-.16-.137-.347-.25-.415-.25-.069-.001-.372-.14-.676-.311-1.632-.917-5.315-1.005-7.246-.174-.391.168-.749.308-.795.31-.126.007-.526.36-1.194 1.053-.332.344-.665.625-.742.625-.077 0-.14-1.95-.14-4.333v-4.333h-5.5v12.5m-16.75-6.17c-3.736.723-5.768 2.627-6.012 5.632l-.045.546 2.779-.046c2.326-.038 2.781-.086 2.8-.296.012-.137.031-.339.042-.449.04-.421 1.116-1.373 1.686-1.492 1.04-.217 3.686-.129 3.849.128.08.127.147.17.148.096.002-.074.224-.004.494.155.27.16.456.346.414.415-.043.068-.001.171.092.229.265.164.198 1.199-.096 1.494-.307.306-1.235.812-1.235.673 0-.052-.136-.021-.302.068-.276.148-1.6.319-3.281.424-.367.023-.817.089-1 .147-.183.058-.596.144-.917.19-.321.046-.883.162-1.25.258-.366.096-.793.204-.947.241-.155.037-.455.163-.667.281-.212.118-.439.217-.505.22-.066.003-.272.136-.459.296-.186.159-.338.25-.338.201 0-.048-.212.121-.471.377s-.445.516-.414.578c.031.063-.02.161-.114.219-.948.587-1.24 3.771-.517 5.637.322.829 2.137 2.409 2.849 2.479.046.005.271.084.5.175.229.092.671.199.981.237.311.038.691.137.845.219.992.531 5.37-.668 6.475-1.773.123-.122.312-.223.421-.223.109 0 .293-.153.41-.339.252-.403.591-.268.45.178-.055.171.02.542.166.825.146.282.232.567.191.633-.041.066 1.344.098 3.077.071l3.151-.048v-.41c0-.254-.096-.41-.252-.41-.873 0-.912-.302-1.011-7.982l-.077-5.899-.426-.851c-.512-1.022-1.546-2.033-2.234-2.184-.275-.061-.5-.192-.5-.291 0-.1-.046-.136-.101-.081-.055.055-.299.021-.541-.076-.243-.097-.592-.204-.775-.238-3.37-.623-5.046-.677-7.333-.234m46.416-.05c-1.909.484-2.682.831-3.489 1.568-.292.267-.602.485-.688.485-.086 0-.156.115-.156.255 0 .141-.109.297-.242.348-.761.292-1.434 3.121-1.067 4.48.294 1.086.36 1.25.504 1.25.087 0 .112.075.055.167-.057.092-.042.167.032.167.074.001.374.226.667.5.293.275.58.5.637.5.058 0 .217.112.354.25.138.137.395.25.572.25.177 0 .321.075.321.166 0 .092.057.158.125.147.069-.011.163-.005.209.013.045.017.271.064.5.104.229.04.604.141.833.224.229.083 1.017.278 1.75.432.733.155 1.446.324 1.583.375.138.052.4.104.584.117.356.025 1.172.22 1.583.38.137.053.362.106.5.118 1.857.159 2.811 1.645 1.664 2.592-.276.228-.557.404-.625.39-.067-.014-.258.047-.424.136-.427.229-3.598.211-4.198-.023-.275-.107-.538-.198-.584-.203-.581-.058-1.61-.989-1.424-1.289.061-.099.031-.179-.066-.179s-.176-.188-.176-.417v-.417h-5.631l-.104.416c-.058.23.005.677.141 1.003.135.323.237.605.226.626-.179.338.968 1.81 2.237 2.872.507.424.48.408.922.524.207.054.375.16.375.236 0 .076.15.109.334.073.183-.035.333-.003.333.071 0 .075.319.187.708.249.741.12 1.152.197 1.917.363.72.156 4.597.204 4.876.061.139-.071.589-.149 1-.174.412-.025.824-.096.916-.159.145-.1 1.098-.372 1.206-.345.05.013 1.329-.672 1.853-.992.59-.36 1.357-1.1 1.357-1.307 0-.101.075-.183.167-.183.092 0 .167-.083.167-.183 0-.101.105-.42.234-.709.943-2.113.493-4.092-1.301-5.724-.421-.384-.767-.664-.767-.623 0 .041-.371-.119-.826-.357-.454-.237-.923-.45-1.041-.473-.119-.023-.554-.138-.966-.255-.413-.117-.9-.235-1.083-.262-.184-.028-.746-.14-1.25-.249-.505-.11-1.03-.219-1.167-.241-.826-.136-1.606-.315-1.75-.402-.092-.055-.279-.11-.417-.121-1.587-.133-3.015-1.753-1.917-2.174.137-.053.213-.154.168-.225-.251-.407 3.354-1.041 3.833-.675.091.07.335.112.541.094.207-.018.375.03.375.107 0 .076.057.129.125.119.425-.067 1.306.533 1.095.745-.06.059-.026.108.075.108.101 0 .279.262.395.583l.211.583h2.716c2.727 0 2.84-.024 2.721-.583-.02-.092-.065-.317-.1-.5-.148-.774-.487-1.75-.607-1.75-.072 0-.131-.075-.131-.167 0-.432-2.063-1.998-3.083-2.341-2.376-.798-6.389-1.058-8.417-.545M99 154.5v18.833h-4.667v-18.722c0-10.297.05-18.772.111-18.833.062-.061 1.112-.111 2.334-.111H99V154.5m14.667 0v18.833H109v-37.666h4.667V154.5m14.792.208l.042 18.959h-4.668v-38.01l2.292.047 2.292.046.042 18.958m124.333-18.47c.298.067.541.191.541.275 0 .085.138.154.307.154.168 0 .537.253.818.562.531.584 1.131 1.604.943 1.604-.06 0-.023.104.082.23.105.127.231.633.279 1.125.048.493.121.995.162 1.116.098.288-.252 2.563-.427 2.779-.075.092-.136.204-.138.25-.035 1.196-1.776 2.625-3.379 2.775-2.523.235-4.753-1.093-5.044-3.004-.016-.103-.091-.287-.167-.409-.249-.398-.246-3.647.003-4.127.124-.24.185-.503.134-.585-.051-.082 0-.15.112-.15s.156-.048.096-.108c-.142-.142.569-1.401.734-1.299.07.043.17-.055.222-.218.088-.278.641-.624 1.574-.985.451-.175 2.344-.166 3.148.015m-22.007 7.054c-.046.71-.115 1.404-.153 1.541-.196.71-.337 1-.486 1-.091 0-.134.057-.094.125.039.069-.107.297-.324.506-.217.21-.396.322-.397.25-.002-.072-.063-.036-.136.079-.489.77-3.588 1.182-4.744.63-1.114-.531-1.515-2.23-.772-3.274.364-.511 1.718-1.233 1.993-1.062.089.054.161.032.161-.049 0-.082.094-.152.209-.154.253-.007 1.367-.183 2.013-.318.43-.09.867-.167 1.65-.291.158-.025.34-.098.403-.16.52-.52.76-.103.677 1.177"/><path fill="#acabab" d="M105.667 14.657c-.871.051 1.716.093 5.75.093 4.033 0 6.62-.048 5.75-.106-1.888-.127-9.264-.119-11.5.013m-5.25.349c-.291.078.127.095 1 .042.825-.051 1.531-.12 1.569-.153.133-.117-2.072-.022-2.569.111m19.43-.109c.038.034.745.105 1.57.156 1.066.067 1.307.051.833-.053-.658-.146-2.538-.226-2.403-.103m-23.014.386c-2.233.249-5.622.84-4.969.866.246.01 1.328-.131 2.405-.312 1.077-.181 2.639-.38 3.47-.441.831-.061 1.661-.169 1.844-.241.458-.179-.336-.142-2.75.128m26.417-.135c.183.077 1.042.194 1.908.261.867.067 2.404.264 3.417.438 1.013.175 2.067.309 2.342.298.634-.024-2.494-.575-4.584-.806-2.656-.294-3.444-.343-3.083-.191m-32.708 1.134c.16.041.423.041.583 0 .16-.042.029-.077-.292-.077-.32 0-.452.035-.291.077m-1.625.218c-.446.113-.455.127-.084.127.23 0 .642-.057.917-.127.446-.113.455-.127.083-.127-.229 0-.641.057-.916.127m44.166 0c.275.07.688.127.917.127.372 0 .363-.014-.083-.127-.275-.07-.688-.127-.917-.127-.372 0-.363.014.083.127m-45.89.364c-.398.089-.69.195-.649.236.086.086 1.789-.26 1.789-.364 0-.095-.287-.063-1.14.128m47.557-.031c.183.079.483.141.667.139.268-.004.251-.031-.084-.139-.57-.182-1.008-.182-.583 0m-49.5.5c-.118.192.152.192.75 0 .398-.127.393-.134-.115-.15-.293-.009-.578.059-.635.15m51.583 0c.57.183 1.008.183.584 0-.184-.078-.484-.141-.667-.138-.268.004-.252.031.083.138m-53.25.335c-2.414.646-2.997.846-2.402.823.457-.018 3.73-.965 3.319-.961-.229.002-.642.064-.917.138m56.084.323c.962.27 1.862.488 2 .483.437-.013-2.192-.792-2.987-.885-.479-.056-.111.094.987.402m-61.084 1.176c-1.008.352-1.765.646-1.682.653.174.015 3.814-1.147 3.918-1.251.188-.187-.573.017-2.236.598m63.5-.5c.057.091.268.161.469.155.352-.012.353-.017.031-.155-.458-.197-.622-.197-.5 0m3.979 1.258c.63.22 1.894.707 2.808 1.082.915.375 1.695.651 1.733.612.072-.072-3.548-1.583-4.615-1.927-1.131-.365-1.068-.166.074.233m-72.359.948c-1.309.553-2.352 1.034-2.317 1.068.058.059.761-.193 1.781-.637.67-.292 1.01-.432 2.333-.957.688-.273 1.1-.493.917-.488-.184.005-1.405.461-2.714 1.014m77.63 1.072c.321.159 1.784.882 3.25 1.606 1.467.724 2.763 1.394 2.879 1.489.117.096.261.126.32.067s.076-.128.037-.154c-.296-.201-5.51-2.77-5.902-2.909-1.017-.359-1.153-.382-.584-.099M67.52 23.666c-7.023 3.594-14.62 9.317-17.812 13.417-.428.55-.819 1.038-.869 1.084-.719.665-4.839 6.658-4.839 7.04 0 .048-.454 1.045-1.009 2.216-.937 1.976-2.577 6.737-2.451 7.115.031.091.379-.874.773-2.144.395-1.271.965-2.873 1.268-3.561 1.003-2.28 1.598-3.58 1.754-3.833.085-.138.383-.625.663-1.083 4.042-6.613 9.346-11.977 16.169-16.351 3.422-2.195 3.625-2.311 6.908-3.97 1.737-.878 3.05-1.593 2.917-1.59-.133.004-1.696.751-3.472 1.66m33.685 1.709c-.453.665-1.327 1.921-1.943 2.792-1.955 2.765-3.651 5.333-3.573 5.411.041.041.485-.541.985-1.293.5-.753 1.003-1.481 1.117-1.618.262-.315 1.045-1.43 2.574-3.667.658-.963 1.295-1.849 1.416-1.97.12-.121.219-.29.219-.375 0-.087.912-.155 2.083-.155h2.084v46h-2.084c-1.171 0-2.083-.068-2.083-.155 0-.085-.094-.257-.208-.382-.115-.125-.284-.345-.375-.489-.467-.732-2.32-3.402-2.412-3.474-.106-.083-1.537-2.127-2.652-3.787-.322-.479-.619-.836-.662-.793-.069.069 1.634 2.72 2.052 3.193.096.107 1.111 1.551 2.257 3.208l2.083 3.012h4.25V24.167h-4.304l-.824 1.208M108 28.738c0 2.871.062 4.614.167 4.679.109.067.166-1.443.166-4.407V24.5h11.147l.712 1.083c.392.596.771 1.084.843 1.084.073 0 .132.107.132.238s.098.337.218.458c.121.121.696.933 1.278 1.804.582.87 1.11 1.62 1.171 1.666.062.046.529.708 1.038 1.472.509.763.966 1.323 1.015 1.243.049-.08-.058-.329-.237-.555-.18-.225-1.627-2.285-3.215-4.576l-2.887-4.167-5.774-.044-5.774-.044v4.576m50.75-3.033c.458.294 1.433.92 2.167 1.39.733.47 1.654 1.056 2.045 1.301.392.246.88.589 1.084.762.204.174 1.149.923 2.1 1.665 7.105 5.543 12.587 13.039 14.968 20.466.34 1.062.647 1.843.683 1.737.218-.654-2.256-6.591-3.796-9.109-1.914-3.131-4.938-7.206-5.965-8.036-.137-.111-1.12-1.049-2.185-2.083-1.064-1.035-2.526-2.331-3.25-2.881-.724-.55-1.699-1.302-2.167-1.67-1.002-.788-6.14-4.081-6.364-4.078-.084.001.222.242.68.536m-95.045 9.587l-.038 3.375h28.166v-3.334c0-2.111-.061-3.333-.166-3.333-.106 0-.167 1.194-.167 3.25v3.25H63.84l-.049-3.292-.048-3.291-.038 3.375m67.669 12.166L131.333 63H142l-.041-15.542-.041-15.541-.043 15.458-.043 15.458h-10.33l-.044-15.458-.043-15.458-.041 15.541m-16.207-9.416l.083 4.708 5.292.004 5.291.003-5.25-.047-5.25-.048v-4.664c0-2.566-.056-4.665-.125-4.665-.068 0-.087 2.119-.041 4.709m-43 13.625V63h11.166V40.333H72.167v11.334m10.833 0v11.166H72.5V40.5H83v11.167m107.971-1.209c4.705.025 12.355.025 17 0 4.645-.024.796-.044-8.554-.044s-13.151.02-8.446.044M149.231 55c0 1.146.027 1.615.059 1.042.033-.573.033-1.511 0-2.084-.032-.573-.059-.104-.059 1.042m9.436 2.917v4.916H144.008l-.05-2.958-.05-2.958-.037 3.041-.038 3.042h15v-5c0-2.75-.037-5-.083-5-.046 0-.083 2.212-.083 4.917m23.166-4.507c0 .079.111.526.245.992.135.466.314 1.223.397 1.681.126.688.156.738.172.285.022-.622-.451-2.702-.67-2.943-.079-.087-.144-.094-.144-.015m-66.585 1.465c-.132.366-.17 6.792-.04 6.792.069 0 .125-1.5.125-3.334V55h5.334c3.444 0 5.333-.059 5.333-.167 0-.266-10.656-.224-10.752.042m-74.967.355c-.063.164-.107.535-.098.825.017.515.021.511.171-.127.165-.704.114-1.187-.073-.698m142.404 2.103c-.002.23.098.867.222 1.417.185.821.227.895.235.417.006-.321-.094-.959-.221-1.417-.141-.506-.233-.67-.236-.417m36.607-.049c.206.04.543.04.75 0 .206-.039.037-.072-.375-.072-.413 0-.582.033-.375.072m22.752.002c.253.039.628.038.833-.002.205-.04-.002-.071-.46-.07-.459.002-.626.034-.373.072m46.581-.002c.206.04.544.04.75 0 .206-.039.037-.072-.375-.072-.413 0-.581.033-.375.072m21.752.002c.254.039.629.038.834-.002.205-.04-.003-.071-.461-.07-.458.002-.626.034-.373.072M39.758 58.424c-.064.425-.082.807-.041.849.042.042.128-.272.192-.697.064-.425.082-.807.04-.849-.041-.042-.128.272-.191.697m-.213 1.743c0 .412.033.581.073.375.039-.207.039-.544 0-.75-.04-.207-.073-.038-.073.375m143.651.5c.003.504.061 1.591.129 2.416l.122 1.5.015-2.083c.008-1.146-.05-2.233-.129-2.417-.102-.238-.141-.071-.137.584m127.179.615c.16.041.423.041.583 0 .161-.042.029-.077-.291-.077-.321 0-.452.035-.292.077m-185.28 1.071c-.361.559-.74 1.102-.844 1.207-.104.104-.665.902-1.248 1.773-.583.871-1.122 1.609-1.198 1.639-.076.031-.138.156-.138.278 0 .122-.057.247-.125.278-.069.03-.564.712-1.099 1.514l-.974 1.458h-11.136v-4.417c0-2.88-.059-4.416-.169-4.416-.112 0-.154 1.548-.125 4.541l.044 4.542h11.459l1.385-2c5.316-7.679 5.141-7.417 4.956-7.415-.073.001-.428.459-.788 1.018m-85.806 1.522c-.053 1.306-.041 3.387.025 4.625.103 1.929.122 1.59.133-2.375.007-2.544-.004-4.625-.025-4.625s-.081 1.069-.133 2.375m189.451 3.792c0 2.704.023 3.81.051 2.458.028-1.352.028-3.565 0-4.917-.028-1.352-.051-.246-.051 2.459m-45.372.666c-.021.779-.076 1.829-.124 2.334-.069.736-.051.837.09.513.102-.232.154-1.22.124-2.333-.046-1.69-.058-1.754-.09-.514m64.349 1.125c.806.03 2.081.03 2.833-.001.752-.031.092-.056-1.467-.055-1.558 0-2.173.025-1.366.056m45.058 0c-.042.069.797.106 1.865.082 3.585-.081 3.965-.142 1.078-.175-1.576-.017-2.9.025-2.943.093M39.558 73c0 .779.029 1.098.064.708.035-.389.035-1.027 0-1.416-.035-.39-.064-.071-.064.708m143.288.544c-.126.987-.192 1.833-.146 1.879.124.123.513-2.768.439-3.256-.035-.229-.167.391-.293 1.377m-143.14 1.789c0 .23.057.642.127.917.114.446.128.455.128.083 0-.229-.058-.641-.128-.916-.113-.446-.127-.455-.127-.084m142.814.417c-.014.092-.174.872-.356 1.734-.182.861-.328 1.649-.326 1.75.011.396.297-.359.405-1.067.062-.413.189-.993.281-1.289.091-.296.134-.709.094-.917-.04-.208-.084-.303-.098-.211M40.213 78.784c.004.385.069.798.145.917.171.27.156-.407-.025-1.118-.117-.458-.127-.441-.12.201m141.263 1.649c-1.19 4.266-2.642 8.157-4.382 11.734-.628 1.292-.778 1.666-.668 1.666.358 0 3.579-7.716 4.523-10.833.902-2.979.908-3.003.853-3.285-.029-.146-.175.176-.326.718m12.604 16.734c0 9.396.02 13.239.045 8.541.025-4.698.025-12.385 0-17.083-.025-4.698-.045-.854-.045 8.542M40.531 80.917c-.004.366.057.816.136 1l.143.333.002-.333c.001-.184-.06-.634-.136-1l-.138-.667-.007.667m111.552 1.816l-2.666 2.017 1.041.05 1.042.049V88.5h-.833c-.555 0-.835-.07-.836-.208-.002-.152-.036-.156-.125-.017-.068.105-.31.218-.539.25-.354.05-.417.146-.417.642v.583l1.875.047 1.875.047v-.672c0-.606-.041-.672-.417-.672h-.416v-3.816l-.858-.05-.857-.051 1.566-1.162c.861-.64 1.603-1.207 1.649-1.261.468-.552 1.71-1.166 1.966-.972 2.029 1.538 4.679 6.72 3.774 7.382-.392.287-.253 1.109.218 1.282.206.075.375.073.375-.005s-.15-.181-.333-.229c-.458-.119-.472-.951-.016-.951 1.285 0-1.951-6.244-3.962-7.645l-.439-.305-2.667 2.016m-111.188.256c.107.361.261.717.343.792.086.078.097-.005.027-.198-.067-.183-.163-.539-.214-.791-.051-.252-.15-.459-.221-.459-.07 0-.041.295.065.656m25.278 1.969c-.637 1.211-1.287 3.15-1.114 3.323.085.085.188-.227.367-1.114.166-.819 1.439-3.334 1.687-3.334.114 0 1.016.509 2.005 1.13.989.622 3.149 1.942 4.799 2.934 1.65.992 3.487 2.104 4.083 2.47.596.366 1.421.855 1.833 1.085.413.231.938.55 1.167.71.54.377 1.167.704 1.167.609 0-.08-3.967-2.604-4.092-2.604-.041 0-1.915-1.125-4.164-2.5-2.249-1.375-4.122-2.5-4.162-2.5-.039 0-.594-.338-1.231-.75-1.519-.983-1.546-.976-2.345.541m-24.823-.771c-.009.148.123.711.294 1.25.171.539.487 1.542.702 2.23.443 1.42 4.46 8.703 5.146 9.333.102.093.342.472.845 1.333.943 1.615 3.717 5.835 3.788 5.764.069-.068-.258-.613-1.706-2.847-1.142-1.762-4.291-6.686-4.502-7.041-.66-1.107-.975-1.673-1.832-3.292-.533-1.009-1.031-1.946-1.105-2.084-.075-.137-.468-1.3-.874-2.583-.407-1.283-.747-2.212-.756-2.063m112.183 1.029c-.826.852-.816 3.277.017 4.085.881.854 3.252.815 4.163-.07.954-.926.951-3.063-.005-3.969-.935-.886-3.335-.913-4.175-.046m-4.904.082l-.62.452-.005 1.51c-.005 1.954-.361 2.407-1.888 2.407-.944 0-.949-.003-.949-.5 0-.461.046-.5.583-.5.58 0 .583-.004.583-.75 0-.878-.013-.884-.761-.314-.499.381-.572.53-.572 1.172 0 .803-.326 1.103-.814.75-.148-.106-.358-.237-.467-.29-.109-.053-1.73 1.051-3.604 2.452l-3.406 2.548.396.312c.364.286.395.429.395 1.84v1.53l-.574.458c-.883.704-2.259.679-2.259-.042 0-.46.046-.5.583-.5h.583v-1.416c0-1.613-.012-1.624-.916-.819-.677.601-.549.612.299.024l.467-.323-.05 1.142-.05 1.142-.583.084c-.516.073-.589.146-.636.625-.081.848-1.416.264-1.719-.753-.124-.413-.812.269-.812.804 0 .455-.045.491-.625.493-.572.002-4.208 2.392-4.208 2.766 0 .156.84 1.797 1.008 1.969.092.094.271.046.46-.125.605-.548 2.199-.388 2.199.221 0 .472-.037.5-.667.5-1.032 0-.987.876.083 1.631l.75.528v-1.579c0-1.54.01-1.58.386-1.58.915 0 1.305.793 1.269 2.583l-.033 1.628.564.227c.507.204.532.202.241-.022-.178-.137-.366-.25-.417-.25-.051.001-.067-.712-.035-1.583l.058-1.584-.583-.583-.583-.583h-1.59c-.88 0-1.636.074-1.693.167-.204.329-.419.152-.852-.702l-.44-.869.391-.256c.214-.141.982-.703 1.706-1.248.951-.716 1.508-1.017 2.006-1.083.577-.077.698-.16.746-.509.113-.816.343-.852.973-.155l.592.655 1.522-.005c2.27-.007 2.606-.347 2.606-2.639 0-1.464-.038-1.674-.335-1.877-.313-.214-.121-.388 2.951-2.673 3.047-2.268 3.309-2.427 3.621-2.208.71.496 3.158.317 3.84-.282l.589-.517v-1.566c0-1.421.132-1.861.417-1.4.057.092.305.157.552.144.392-.02.401-.031.073-.095-.409-.078-.5-.523-.175-.849.327-.327.091-.217-.571.265m7.507.077c.05.434.016.458-.625.458h-.678v1.917c0 2.168-.075 2.269-1.092 1.458l-.574-.458v-1.485c0-1.463.008-1.492.538-1.966.777-.693 2.348-.644 2.431.076m1.406-.057c.719.762.694 3.17-.04 3.872-.769.735-2.335.719-2.335-.023 0-.461.046-.5.583-.5h.583V86.75c0-2.174.24-2.458 1.209-1.432m-1.375 1.932v1.25h-1V86h1v1.25m-10 .75c0 .444-.056.5-.5.5-.617 0-.635-.203-.061-.655.56-.44.561-.44.561.155m-81.396.868c-.057.21-.185 1.301-.283 2.424-.689 7.858 2.312 14.202 7.762 16.414.642.261 1.282.536 1.423.613.141.077.591.185 1 .24l.744.099-.75-.22c-7.518-2.213-11.147-9.005-9.84-18.414.187-1.346.159-1.939-.056-1.156m87.532.257l-.053.458-1.625.048-1.625.048v-1.012h3.355l-.052.458m7.197 2.958c0 1.411-.046 1.75-.24 1.75-1.241 0-2.008 3.292-1.009 4.334.413.432.289 1.69-.24 2.416-.066.092-.292.576-.502 1.075-.565 1.349-1.392 2.34-1.515 1.816-.119-.511-2.097-.68-2.558-.219-.395.394-.354 1.078.064 1.078.82 0 .451 1.733-.5 2.35-.864.56-1.112.81-.458.463 1.483-.788 1.625-.963 1.625-2.001 0-.932-.02-.978-.417-.978-.268 0-.417-.094-.417-.262 0-.516.448-.738 1.488-.738h1.012V104.56l.686-.905c1.51-1.994 2.618-4.994 2.003-5.425-.987-.691-.266-4.23.862-4.23.249 0 .283-.221.283-1.833 0-1.009-.038-1.834-.084-1.834-.046 0-.083.788-.083 1.75m127.556.417c0 .688.029.969.065.625.036-.344.036-.906 0-1.25s-.065-.062-.065.625m-204.638.502c.058.093.398.319.757.502.359.184 1.291.745 2.071 1.248.78.503 1.448.915 1.484.915.037 0 1.369.789 2.96 1.755 1.591.965 3.006 1.823 3.143 1.906.138.083.885.55 1.661 1.037.776.487 1.547.94 1.713 1.007.388.155.053.865-1.122 2.378-1.833 2.36-4.124 3.783-7.668 4.763-1.926.533-1.891.635.059.169 1.669-.398 4.257-1.524 5.024-2.186.321-.276.81-.66 1.087-.851.887-.615 3.328-3.988 3.052-4.218-.03-.026-.806-.497-1.722-1.047-2.772-1.663-10.952-6.625-11.705-7.101-.753-.475-.962-.548-.794-.277m56.197 1.299c-.665.694-.681 3.556-.024 4.18.231.219.454.363.497.32.043-.043-.11-.253-.339-.468-.663-.624-.629-3.233.052-3.885.74-.71 2.366-.674 2.366.052 0 .46-.047.5-.584.5H140v1.905c0 1.846-.012 1.907-.375 1.968-.206.035.278.078 1.075.097 1.407.033 1.468.018 2.042-.485l.591-.52v-1.533c0-2.219-.392-2.599-2.685-2.599-1.52 0-1.604.02-2.033.468m5.584.082c-.826.852-.816 3.277.017 4.084.813.788 3.223.806 4.076.03.821-.747.84-3.549.029-4.232-.86-.723-3.376-.651-4.122.118m5.41-.245c-.435.481-.36 1.029.141 1.029.407 0 .417.027.417 1.25 0 1.23-.007 1.25-.427 1.25-.391 0-.422.052-.375.625l.052.625h3.666v-.584c0-.498-.06-.59-.416-.631-.415-.048-.417-.055-.363-1.565.082-2.301.081-2.304-1.281-2.304-.891 0-1.198.067-1.414.305m4.325.01c-.382.422-.285.92.193.989.577.082.576 2.478-.002 2.56-.307.043-.375.158-.375.636v.584h3.667v-.584c0-.475-.069-.593-.37-.636-.353-.05-.372-.135-.417-1.916l-.047-1.864-1.176-.049c-.996-.041-1.222.002-1.473.28m-11.317.385c.826.8.836 2.906.017 3.751-.784.809-2.467.843-2.467.049 0-.46.046-.5.583-.5h.583v-1.805c0-.993.05-1.856.111-1.917.237-.236.646-.09 1.173.422m4.133-.033c0 .345-.1.434-.583.52l-.584.103.625.022.625.022v2.5h-.666c-.651 0-.667.014-.667.583 0 .756-.372.773-1.117.051-.837-.812-.842-3.08-.008-3.823.757-.673 2.375-.658 2.375.022m1.469-.033c.733.766.678 3.175-.089 3.876-.688.628-2.199.729-2.38.158-.154-.485.031-.668.677-.668H147v-1.916c0-2.168.248-2.463 1.219-1.45M152 95.833v1.834h-1.486l-.049-1.285c-.046-1.213-.071-1.29-.465-1.39-.42-.106-.466-.381-.133-.783.103-.124.572-.209 1.153-.209h.98v1.833m4.417 0v1.75H154.75l-.049-1.291c-.043-1.155-.083-1.292-.375-1.292-.203 0-.326-.113-.326-.3 0-.545.363-.716 1.415-.665l1.002.048v1.75m19.64-1.565c-.065.173-.247.503-.404.732-5.365 7.809-6.726 11-8.317 19.5-.472 2.521-.966 5.146-1.098 5.833-.132.688-.322 1.7-.423 2.25-.274 1.498-.29 1.534-.779 1.72-1.273.484-4.515 1.757-4.953 1.945-.275.118-1.686.681-3.135 1.251-1.449.57-2.603 1.068-2.563 1.108.063.064 1.276-.357 2.198-.763.184-.08 1.421-.574 2.75-1.097s2.567-1.012 2.75-1.087c.184-.075 1.067-.423 1.962-.773 1.184-.463 1.651-.728 1.711-.97.044-.184.673-3.446 1.398-7.25 1.425-7.485 1.971-9.859 2.578-11.212.216-.479.42-.949.455-1.043.094-.256 1.701-2.948 2.833-4.745 2.035-3.233 3.358-5.511 3.258-5.611-.057-.057-.156.038-.221.212m-34.89 2.149v1.25h-1v-2.5h1v1.25m11.802 1.875l-.052.458-1.612.048c-1.495.044-1.62.022-1.719-.291-.186-.585.046-.674 1.768-.674h1.668l-.053.459m4.334 0l-.053.458-1.625.048-1.625.047v-1.012h3.355l-.052.459m-23.763 4.902c-.334.334-.236.551.108.24.238-.216.552-.273 1.292-.235l.977.051v3.5H134.25l-.048-1.274c-.046-1.203-.071-1.277-.459-1.351-.225-.044-.41-.014-.41.065s.15.143.334.143c.546 0 .505 2.485-.042 2.533-.206.018.412.074 1.375.125 1.731.091 1.75.097 1.75.509 0 .404-.042.419-1.417.511-.779.051-1.263.108-1.075.125.188.017.413.098.5.18.087.082.496.192.909.245l.75.094-.75-.223-.75-.223 1-.063 1-.063.051-.625c.048-.571.016-.625-.369-.625h-.421l-.048-1.875-.047-1.875-1.168-.048c-.766-.031-1.24.023-1.375.159m4.492.247c-.833.69-.822 3.379.018 4.193.852.826 3.277.816 4.084-.017.818-.844.82-3.414.003-4.144-.781-.697-3.279-.716-4.105-.032m5.417-.143c-.441.486-.369 1.035.134 1.035.408 0 .417.028.417 1.25 0 1.223-.009 1.25-.417 1.25-.375 0-.416.067-.416.667v.667h3.666v-.667c0-.552-.056-.667-.328-.667-.303 0-.331-.137-.375-1.875l-.047-1.875-1.176-.048c-.977-.04-1.225.005-1.458.263m4.417.252c-.519.535-.533.587-.533 2.056v1.507l.579.527c.423.384.749.531 1.209.543.525.013.395.079-.788.4-1.723.469-1.524.539.281.1 1.878-.457 2.331-.659 1.511-.672-.581-.01-.625-.046-.625-.511 0-.459.047-.5.578-.5h.578l.047-1.873c.055-2.183.242-2.402 1.231-1.443.668.647.769.463.118-.217-.734-.766-3.414-.714-4.186.083m-7.283.117c0 .36-.083.423-.619.468l-.62.051-.047 1.863c-.054 2.127-.183 2.298-1.089 1.444-.775-.73-.828-3.092-.087-3.866.646-.674 2.462-.645 2.462.04m1.36-.075c.86.656.859 3.05-.002 3.885-.771.747-2.323.742-2.409-.008-.048-.409.003-.452.583-.5l.635-.052.047-1.875c.053-2.114.137-2.22 1.146-1.45m3.89 1.417v1.843l-.791-.051-.792-.051-.049-1.292c-.047-1.247-.062-1.291-.458-1.291-.475 0-.526-.262-.134-.696.207-.229.518-.304 1.25-.304h.974v1.842m4.667-1.342c0 .459-.047.5-.578.5h-.578l-.047 1.873c-.053 2.125-.188 2.311-1.108 1.536-.755-.635-.803-3.181-.074-3.942.701-.732 2.385-.709 2.385.033m-98.331.714c-.003.178.818 1.786.912 1.786.041 0 .025-.132-.036-.292-.17-.441-.874-1.643-.876-1.494m78.498.702c0 .831-.077.884-.625.426-.583-.485-.509-1.176.125-1.176.481 0 .5.028.5.75m9.833.5v1.25h-1v-1.139c0-1.257.046-1.361.611-1.361.373 0 .389.052.389 1.25m10 0v1.25h-1v-2.5h1v1.25m-96.907 1.75c.06.23.25.867.423 1.417.298.951.985 4.258 1.237 5.958.065.436.19.792.277.792.088 0 .121-.131.074-.292-.046-.16-.281-1.363-.522-2.673-.44-2.398-1.073-4.78-1.414-5.325-.155-.247-.167-.227-.075.123m57.633.127c-.196.251-.997 1.283-1.78 2.293-1.445 1.864-2.427 2.986-5.597 6.396-.971 1.045-1.864 2.038-1.983 2.208-.212.301.074.31 9.722.31 5.717 0 9.916-.063 9.884-.148-.056-.15-.502-.643-3.558-3.936-2.445-2.634-3.268-3.598-4.871-5.708-.783-1.031-1.432-1.874-1.442-1.873-.01 0-.178.207-.375.458m35.441.046v.506l-1.625-.048-1.625-.047-.053-.459-.053-.458h3.356v.506m-33.502 1.828c.595.779 1.233 1.597 1.417 1.819.458.551 1.773 2.056 1.991 2.278.097.1.964 1.035 1.927 2.078.962 1.042 1.964 2.109 2.225 2.371.262.261.442.508.402.549-.041.041-4.352.054-9.58.031l-9.506-.043 2.835-3.084c2.492-2.711 3.628-4.049 6.099-7.19.706-.898.513-1.003 2.19 1.191m23.668-.501c.23.074.567.134.75.134.264 0 .247-.028-.083-.134-.229-.073-.567-.133-.75-.133-.264 0-.247.028.083.133m-57.036.488c.85.053 2.2.052 3-.001 1.017-.067.552-.096-1.547-.095-2.207 0-2.591.025-1.453.096m61.036-.002c.871.054 2.259.054 3.084.001 1.062-.068.6-.096-1.584-.097-2.28-.001-2.671.024-1.5.096m106.709.638c.802.031 2.114.031 2.916 0 .802-.03.146-.055-1.458-.055-1.604 0-2.26.025-1.458.055m12.333 0c.802.031 2.115.031 2.917 0 .802-.03.146-.055-1.459-.055-1.604 0-2.26.025-1.458.055m12.325 0c.797.031 2.147.031 3 .001.852-.031.2-.056-1.45-.056s-2.348.025-1.55.055m48.842 0c.802.031 2.114.031 2.916 0 .802-.03.146-.055-1.458-.055-1.604 0-2.26.025-1.458.055m24.158 0c.797.031 2.147.031 3 .001.852-.031.2-.056-1.45-.056s-2.348.025-1.55.055m11 0c.797.031 2.147.031 3 .001.852-.031.2-.056-1.45-.056s-2.348.025-1.55.055m13.667 0c.797.031 2.147.031 3 .001.852-.031.2-.056-1.45-.056s-2.348.025-1.55.055m-314.358 5.89c.021.552.787 4.032.804 3.653.023-.493-.572-3.648-.715-3.791-.054-.054-.094.008-.089.138m.84 4.32c.003.137.11.737.239 1.333l.234 1.083-.096-1.083c-.086-.97-.392-2.052-.377-1.333m.591 3.166c.052.413.143.8.202.862.182.188 3.213 1.339 3.299 1.253.044-.044-.643-.361-1.528-.704-.884-.342-1.631-.706-1.659-.808-.347-1.244-.41-1.365-.314-.603m3.818 2.304c.252.217 6.409 2.585 6.496 2.498.043-.044-.652-.363-1.546-.71s-2.364-.922-3.267-1.278c-1.69-.666-1.956-.746-1.683-.51m6.834 2.675c.226.209 6.269 2.549 6.356 2.462.04-.04-.925-.46-2.146-.933-2.602-1.009-2.692-1.045-3.516-1.401-.702-.304-.932-.347-.694-.128m79.575 3.028c-3.163 1.271-5.882 2.314-6.042 2.319-.221.006-.463.341-.246.341.068 0 2.654-.985 3.038-1.157.513-.23 5.969-2.389 7.791-3.083 1.529-.583 1.903-.779 1.417-.745-.115.008-2.796 1.054-5.958 2.325m-72.986-.438c.038.037 1.044.457 2.236.932 1.191.475 2.316.93 2.5 1.011.911.399 2.134.826 2.195.765.037-.037-.741-.384-1.73-.771s-1.949-.769-2.132-.85c-1.395-.61-3.255-1.27-3.069-1.087m7.177 2.845c.194.194 2.475 1.054 2.475.933 0-.074-.356-.262-.791-.417-.436-.156-.922-.353-1.081-.44-.299-.161-.745-.218-.603-.076m58.1.621l-.791.34v20.844c0 20.801-.001 20.844-.349 21.562-.416.86-1.267 1.601-2.138 1.862-.872.261-48.8.271-49.739.01-.862-.239-2.028-1.342-2.335-2.206l-.246-.697-.014.542c-.007.298.062.542.154.542s.167.097.167.216.281.49.625.825c1.246 1.215-.861 1.125 26.543 1.125 27.912 0 25.184.138 26.636-1.343 1.08-1.102 1.042-.252 1.023-22.802l-.017-20.411.78-.296c.429-.163.822-.338.873-.389.194-.194-.412-.051-1.172.276M94.5 154.588v18.755l2.208-.046 2.209-.047.042-18.708.042-18.709H94.5v18.755m16.708-18.63l2.125.052V173h-2.083c-1.278 0-2.083.064-2.083.167 0 .102.833.166 2.166.166h2.167v-37.5l-2.208.037-2.209.036 2.125.052m12.625 18.792v18.917h4.5v-37.834h-4.5v18.917m-25.166-.25V173h-4v-37h4v18.5m29.333.167v18.666h-4V136h4v18.667m91.717-16.376c.806.03 2.081.03 2.833 0 .752-.031.092-.056-1.467-.056-1.558 0-2.173.025-1.366.056m45.983 6.5c.797.03 2.147.03 3 0 .852-.03.2-.055-1.45-.055-1.65-.001-2.348.024-1.55.055"/><path fill="#4e4d4d" d="M110.465 14.79c.576.033 1.476.033 2 0 .523-.033.052-.06-1.048-.06-1.1.001-1.529.028-.952.06m-6.083.167c.622.032 1.597.032 2.167 0 .569-.033.059-.059-1.132-.059-1.192 0-1.658.027-1.035.059m12 0c.622.032 1.597.032 2.167 0 .569-.033.059-.059-1.132-.059-1.192 0-1.658.027-1.035.059m-14.422.161c.208.04.508.038.667-.003.159-.042-.01-.075-.377-.073-.367.002-.497.036-.29.076m18.167 0c.207.04.507.038.667-.003.159-.042-.011-.075-.377-.073-.367.002-.497.036-.29.076m-31.794 1.723c-.182.123-.115.139.25.057.613-.137.746-.232.32-.229-.176.002-.432.079-.57.172m-21.541 7.42c-.436.227-.792.449-.792.495 0 .046.375-.107.833-.339.459-.233.834-.459.834-.503 0-.11.015-.116-.875.347m35.02.031c-.201.257-.198.267.032.088.165-.128 1.051-.222 2.417-.255l2.156-.053-2.188-.036c-1.913-.031-2.217.001-2.417.256m8.969-.167c1.575.027 4.2.027 5.833 0 1.633-.028.344-.05-2.864-.05-3.208 0-4.544.022-2.969.05M106.414 47.5c0 12.788.02 18.019.044 11.625.024-6.394.024-16.856 0-23.25-.024-6.394-.044-1.163-.044 11.625m35.666 0c0 8.663.02 12.206.045 7.875.025-4.331.025-11.419 0-15.75-.025-4.331-.045-.788-.045 7.875M63.578 35.375l.005 3.375h28.334l.005-3.375.005-3.375-.05 3.333-.051 3.334H63.674l-.051-3.334-.05-3.333.005 3.375m-9.172-2.667l-.489.542.541-.49c.505-.456.619-.593.49-.593-.029 0-.273.243-.542.541m114.844.959c.729.733 1.363 1.333 1.409 1.333.046 0-.513-.6-1.242-1.333-.729-.734-1.363-1.334-1.409-1.334-.046 0 .513.6 1.242 1.334M83.412 51.75c0 6.325.021 8.888.046 5.696.026-3.192.026-8.367 0-11.5-.025-3.133-.046-.521-.046 5.804m34.474-8.792c1.541.028 4.016.028 5.5 0 1.483-.028.222-.05-2.803-.05s-4.239.023-2.697.05M274.899 53.25c0 1.283.027 1.786.058 1.118.032-.669.032-1.719 0-2.334-.032-.614-.058-.067-.058 1.216m49.808 10.542l.041 12.625.044-12.538.043-12.538 2.791-.05 2.791-.05-2.875-.037-2.875-.037.04 12.625m-66.832-11.001c.802.03 2.115.03 2.917 0 .802-.031.146-.056-1.459-.056-1.604 0-2.26.025-1.458.056m-108.84 2.08L149 56.825l-2.542.05-2.541.051 2.547.037c2.98.043 2.734.249 2.661-2.224l-.054-1.822-.036 1.954M143.736 60c0 1.788.025 2.519.055 1.625.03-.894.03-2.356 0-3.25-.03-.894-.055-.163-.055 1.625m128.221-2.211l2.874.052.045 9.163.045 9.163-.002-9.209-.002-9.208-2.917-.006-2.917-.007 2.874.052m-6.394 1.878c0 1.054.027 1.485.06.958.033-.527.033-1.39 0-1.917-.033-.527-.06-.096-.06.959m30.604-.448c0 .029.243.272.541.541l.542.49-.49-.542c-.456-.505-.593-.618-.593-.489m-256.455.948c0 .412.033.581.072.375.04-.207.04-.544 0-.75-.039-.207-.072-.038-.072.375m143.336.75c.001.458.033.626.072.372.038-.253.037-.628-.003-.833-.039-.205-.071.002-.069.461m114.649.364c.294.692.509.881.291.257-.103-.296-.256-.581-.339-.632-.083-.052-.062.117.048.375m-55.403.17c.207.04.507.039.666-.003.16-.042-.01-.074-.377-.073-.366.002-.497.036-.289.076m46.666 0c.208.04.508.039.667-.003.159-.042-.01-.074-.377-.073-.367.002-.497.036-.29.076M39.548 62.917c.001.458.033.626.072.372.038-.253.037-.628-.003-.833-.039-.205-.071.002-.069.461m143.664.916c0 .413.033.582.072.375.04-.206.04-.543 0-.75-.039-.206-.072-.037-.072.375m68.684.209c.086.269-.132.294-2.86.329l-2.953.037 2.905.05c2.931.051 3.308-.007 2.989-.459-.146-.208-.16-.201-.081.043m42.304.415c.797.031 2.147.031 3 .001.852-.031.2-.056-1.45-.056s-2.348.025-1.55.055m-110.982 3.46c.001.55.032.755.069.455.038-.3.037-.75-.001-1s-.069-.005-.068.545m39.834.333c.001.55.032.755.069.455.037-.299.036-.749-.002-1-.038-.25-.068-.005-.067.545m-183.5.5c.001.55.032.755.069.455.037-.299.036-.749-.002-1-.038-.25-.068-.005-.067.545m63.573 2.207c.573.032 1.51.032 2.083 0 .573-.033.105-.059-1.041-.059s-1.615.026-1.042.059m7.739.001c1.53.027 4.08.028 5.667 0 1.587-.027.336-.05-2.781-.05s-4.415.023-2.886.05M39.72 72.667c0 .595.03.839.067.541.037-.298.037-.785 0-1.083-.037-.298-.067-.054-.067.542m279.989.416c.002.367.036.497.076.29.039-.207.038-.507-.004-.667-.042-.159-.074.011-.072.377m-54.145 1.5c0 1.1.027 1.529.06.952.032-.576.032-1.476-.001-2-.033-.523-.06-.052-.059 1.048m-83.46 2.271c-.139.695-.004.83.146.146.063-.288.08-.559.038-.601-.043-.042-.125.162-.184.455m79.938-.239c.16.042.423.042.583 0 .16-.042.029-.076-.292-.076s-.452.034-.291.076M40.814 81.797c-.055.331-.031.487.062.394.084-.084.124-.33.09-.547-.052-.333-.076-.31-.152.153m116.019.787c.32.366.648.741.729.833.08.091.068.016-.027-.167s-.423-.558-.729-.833l-.556-.5.583.667m192.733 4.249c0 1.329.026 1.873.058 1.209.031-.665.031-1.752 0-2.417-.032-.665-.058-.121-.058 1.208M64.762 88.262c-.061.244-.079.476-.04.515.039.04.121-.128.183-.372.061-.244.079-.476.04-.516-.039-.039-.122.129-.183.373m94.783.905c0 .412.033.581.073.375.039-.207.039-.544 0-.75-.04-.207-.073-.038-.073.375m-95.162 1.5c0 .504.032.71.07.458.038-.252.038-.665 0-.917s-.07-.046-.07.459m95.326.75c.002.366.036.497.076.289.039-.207.038-.507-.004-.666-.042-.16-.074.01-.072.377M311.742 97c0 3.162.022 4.456.049 2.875.028-1.581.028-4.169 0-5.75-.027-1.581-.049-.288-.049 2.875m13.503 3.583c0 5.134.021 7.258.047 4.721.025-2.538.025-6.738 0-9.334-.026-2.596-.047-.52-.047 4.613m3.797-9.127c.435.034 1.148.034 1.583 0 .435-.034.079-.063-.792-.063s-1.227.029-.791.063m8.672.001c.531.033 1.356.033 1.834-.001s.044-.061-.965-.06c-1.008 0-1.399.028-.869.061m11.864 9.126c0 5.134.021 7.258.047 4.721.026-2.538.026-6.738 0-9.334-.026-2.596-.047-.52-.047 4.613M159.709 92.75c.002.367.036.497.076.29.039-.208.038-.508-.004-.667-.042-.159-.074.01-.072.377m92.864-.042l-.49.542.542-.49c.505-.456.618-.593.49-.593-.029 0-.273.243-.542.541m-188.355.542c.001.55.032.755.069.455.038-.299.037-.749-.001-1-.038-.25-.069-.005-.068.545m210.449-.865c0 .029.243.273.541.542l.542.49-.49-.542c-.456-.505-.593-.618-.593-.49M159.55 95.333c0 .504.031.711.069.459.039-.252.039-.665 0-.917-.038-.252-.069-.046-.069.458m-95.165.584c.001.55.032.755.069.455.037-.3.036-.75-.002-1s-.068-.005-.067.545m212.34 2.916c0 .779.029 1.098.064.709.035-.39.035-1.027 0-1.417-.035-.39-.064-.071-.064.708m-18.15 5.25c0 3.209.022 4.498.05 2.865.027-1.633.027-4.258 0-5.834-.028-1.575-.05-.239-.05 2.969m-38.027-3.5c.001.459.033.626.072.373.038-.253.037-.628-.003-.833-.039-.205-.071.002-.069.46m56.183 5.25c0 1.146.027 1.615.059 1.042.033-.573.033-1.51 0-2.083-.032-.573-.059-.104-.059 1.041m-37.491 2.011c-.269.281-.377.465-.24.41.224-.091.935-.921.789-.921-.033 0-.28.23-.549.511m47.834 4.573c0 2.658.023 3.722.051 2.364.028-1.357.028-3.532 0-4.833-.029-1.301-.052-.19-.051 2.469m.522-4.209c.046.115.288.352.536.527.451.319.451.318-.038-.208-.535-.576-.628-.635-.498-.319m-208.138 1.243c.207.04.544.04.75 0 .207-.04.038-.072-.375-.072-.412 0-.581.032-.375.072m3 0c.207.04.544.04.75 0 .207-.04.038-.072-.375-.072-.412 0-.581.032-.375.072m58.086.002c.253.038.628.037.833-.002.205-.04-.002-.071-.46-.07-.459.001-.626.034-.373.072m2.914-.002c.207.04.544.04.75 0 .207-.04.038-.072-.375-.072-.412 0-.581.032-.375.072m-37.383 4.091l-.658.708.708-.659c.659-.613.785-.758.659-.758-.027 0-.346.319-.709.709m11.175.291c.358.367.688.667.734.667.046 0-.209-.3-.567-.667-.358-.366-.689-.666-.735-.666-.045 0 .21.3.568.666m270.877-.048c.207.039.507.038.667-.004.159-.042-.011-.074-.377-.072-.367.002-.497.036-.29.076m-284.136 2.007l-.574.625.625-.575c.343-.316.625-.597.625-.625 0-.127-.141-.007-.676.575m15.592.541c.358.367.689.667.735.667.045 0-.21-.3-.568-.667-.358-.366-.688-.666-.734-.666-.046 0 .209.3.567.666m1.594 1.763c.315.374.607.653.648.62.041-.033-.217-.339-.573-.68l-.648-.619.573.679M246.739 130c0 2.429.024 3.423.052 2.208.029-1.214.029-3.202 0-4.416-.028-1.215-.052-.221-.052 2.208m-108.162 4.708c-.044.115-.06 9.546-.037 20.959l.043 20.75.084-20.959c.046-11.527.062-20.958.036-20.958-.026 0-.082.094-.126.208M113.581 154.5c0 10.404.02 14.66.044 9.458.024-5.202.024-13.714 0-18.916s-.044-.946-.044 9.458m-19.167.083c0 10.359.02 14.572.044 9.363.025-5.21.025-13.685 0-18.834-.024-5.149-.044-.887-.044 9.471m34 .167c0 10.45.02 14.75.044 9.555.025-5.196.025-13.746 0-19-.024-5.255-.044-1.005-.044 9.445m107.993-12.667c0 2.75.023 3.899.051 2.552.028-1.346.028-3.596 0-5-.028-1.403-.051-.302-.051 2.448m25.302-.833c.002.367.036.497.076.29.039-.208.038-.508-.004-.667-.042-.159-.074.01-.072.377m-30.333 9.25c.057.211.563.251 3.221.256l3.153.006-3.076-.052c-2.189-.036-3.118-.11-3.221-.256-.105-.148-.126-.135-.077.046m11.174.291c.806.03 2.081.03 2.833 0 .752-.031.092-.056-1.466-.056-1.559 0-2.174.025-1.367.056m9.908.493c.207.04.544.04.75 0 .207-.039.038-.072-.375-.072-.412 0-.581.033-.375.072m-153.25 27.841c6.669.024 17.582.024 24.25 0 6.669-.024 1.213-.044-12.125-.044-13.337 0-18.793.02-12.125.044"/><path fill="#747474" d="M108.208 14.786c.252.038.665.038.917 0s.046-.069-.458-.069c-.505 0-.711.031-.459.069m5.5 0c.252.038.665.038.917 0s.046-.069-.458-.069c-.505 0-.711.031-.459.069M70.721 31.958c3.925.025 10.3.025 14.166 0 3.867-.025.655-.045-7.137-.045s-10.955.02-7.029.045m60.522.084c-.043.114-.06 7.146-.036 15.625l.043 15.416 5.333.004 5.334.003-5.292-.047-5.292-.048v-30.99l5.375-.047 5.375-.046-5.38-.039c-4.18-.031-5.398.007-5.46.169m-21.285 1.416c.94.029 2.477.029 3.417 0 .94-.03.171-.054-1.708-.054-1.88 0-2.648.024-1.709.054M95.58 47.5c0 7.746.02 10.915.045 7.042.025-3.873.025-10.211 0-14.084-.025-3.873-.045-.704-.045 7.042m30.327-9.333c0 2.612.023 3.681.051 2.375.028-1.307.028-3.444 0-4.75-.028-1.307-.051-.238-.051 2.375m-73.663-3.459l-.827.875.875-.827c.481-.455.875-.848.875-.875 0-.124-.155.014-.923.827M171.75 36c.358.367.688.667.734.667.046 0-.209-.3-.567-.667-.358-.367-.689-.667-.735-.667-.045 0 .21.3.568.667M72.082 51.667l.001 11.416 5.584.004 5.583.003-5.541-.047-5.54-.047-.045-11.373-.044-11.373.002 11.417M330.413 63.75c0 6.967.02 9.792.045 6.279.025-3.513.025-9.213 0-12.666-.025-3.454-.045-.58-.045 6.387M154 52.957l4.833.048v9.992l-7.541.046-7.542.046 7.583-.003 7.584-.003V52.917l-4.875-.004-4.875-.004 4.833.048m-28.097 5.21c0 1.787.025 2.518.055 1.625.03-.894.03-2.357 0-3.25-.03-.894-.055-.163-.055 1.625M39.545 61.5c0 .413.033.581.073.375.039-.206.039-.544 0-.75-.04-.206-.073-.038-.073.375m70.163.124c.986.03 2.598.03 3.584 0 .985-.029.179-.053-1.792-.053s-2.777.024-1.792.053m73.501.959c.002.367.036.497.076.29.039-.207.038-.507-.004-.667-.042-.159-.074.011-.072.377m.181 3.167c.001.733.03 1.013.066.621.035-.392.034-.992-.002-1.334-.035-.341-.064-.02-.064.713m-144.007-.083c0 .504.032.71.07.458.038-.252.038-.665 0-.917s-.07-.046-.07.459m143.831 3.916c.002.459.034.626.072.373.039-.253.038-.628-.002-.833-.04-.205-.071.002-.07.46M39.553 70.667c0 .595.031.839.068.541.037-.298.037-.785 0-1.083-.037-.298-.068-.054-.068.542m115.78 10.385c0 .029.244.273.542.542l.542.489-.49-.541c-.456-.505-.594-.619-.594-.49M336.9 88.833c0 1.421.026 2.002.057 1.292.031-.71.031-1.873 0-2.583-.031-.711-.057-.13-.057 1.291m-89.442 2.458c.757.031 1.994.031 2.75 0 .757-.031.138-.056-1.375-.056-1.512 0-2.131.025-1.375.056m107.453.08c-.044.117-.061 4.337-.036 9.379l.045 9.167.04-9.292.04-9.292h5.319l.059 1.209.06 1.208-.011-1.25-.01-1.25-2.712-.046c-2.078-.035-2.731.004-2.794.167M336.907 100c0 2.796.023 3.94.051 2.542.028-1.398.028-3.686 0-5.084-.028-1.398-.051-.254-.051 2.542m-60.187 8.833c0 .596.03.84.067.542.037-.298.037-.785 0-1.083-.037-.298-.067-.055-.067.541m-171.562 5.792l-.575.625.625-.574c.344-.316.625-.598.625-.625 0-.128-.141-.008-.675.574m12.842.094c0 .029.244.272.542.541l.541.49-.489-.542c-.456-.505-.594-.618-.594-.489m-14.76 1.989l-.49.542.542-.49c.505-.456.618-.593.489-.593-.029 0-.272.243-.541.541m8.343 1.959l-10 .087 10.042.04c6.61.026 10.042-.018 10.042-.127 0-.092-.019-.149-.042-.127-.023.022-4.542.079-10.042.127m-27.669 36.75c0 11.458.02 16.121.044 10.362.025-5.759.025-15.134 0-20.834-.024-5.699-.044-.987-.044 10.472m11.628-19.627c.618.032 1.631.032 2.25 0 .618-.032.112-.058-1.125-.058-1.238 0-1.744.026-1.125.058m13.535.085c-.044.115-.06 8.608-.036 18.875l.044 18.667.041-18.787.041-18.787 2.208-.052 2.208-.052-2.213-.036c-1.645-.027-2.234.017-2.293.172m15.965-.085c.618.032 1.631.032 2.25 0 .618-.032.112-.058-1.125-.058-1.238 0-1.744.026-1.125.058m102-.008c.16.041.423.041.583 0 .16-.042.029-.077-.292-.077s-.452.035-.291.077m52 2.175c.802.031 2.114.031 2.916 0 .802-.03.146-.055-1.458-.055-1.604 0-2.26.025-1.458.055"/></g></svg>