<svg version="1.1" id="Layer_1" xmlns="http://www.w3.org/2000/svg" xmlns:xlink="http://www.w3.org/1999/xlink" x="0px" y="0px"
	 width="100%" viewBox="0 0 864 864" enable-background="new 0 0 864 864" xml:space="preserve">
<path fill="#FFD15D" opacity="1.000000" stroke="none" 
	d="
M391.000000,1.000000 
	C418.354218,1.000000 445.708466,1.000000 473.193420,1.346577 
	C474.831329,2.128395 476.312256,2.766790 477.850006,2.965375 
	C486.741821,4.113670 495.724792,4.732488 504.528931,6.340810 
	C516.754944,8.574229 528.850098,11.523726 541.000732,14.622938 
	C541.979187,29.469934 542.682983,43.885822 543.995667,58.246059 
	C546.585022,86.573174 552.303284,114.409607 559.658508,141.795425 
	C567.497559,170.982941 576.872498,199.776108 590.475830,226.922089 
	C599.761841,245.452759 609.313782,263.856964 619.102295,282.127289 
	C630.663635,303.706787 645.390869,323.196167 660.102600,342.667358 
	C664.981445,349.124573 670.030151,355.453369 674.651245,361.947205 
	C669.283325,363.459198 667.784790,367.025879 667.793335,371.907288 
	C667.859131,409.378540 667.825439,446.849945 667.840210,484.321320 
	C667.840881,485.983276 667.503052,487.923523 668.224670,489.239685 
	C669.223145,491.060791 670.835938,493.333923 672.609802,493.800201 
	C679.183289,495.528259 683.693848,491.807953 683.811340,484.946045 
	C683.936707,477.620453 683.840027,470.291077 683.840149,462.963348 
	C683.840210,456.577789 683.840210,450.192261 683.840210,443.085205 
	C686.123230,444.640839 687.485352,445.931702 689.104248,446.607483 
	C695.156799,449.134094 701.125488,452.825592 707.430420,453.600464 
	C725.417969,455.811127 740.229675,449.096100 751.847839,434.982544 
	C765.410278,444.848267 778.239929,455.176392 791.979492,464.104187 
	C807.524536,474.205231 823.765747,483.264557 839.953369,492.332275 
	C846.229004,495.847656 853.186523,498.145874 859.908325,501.416046 
	C858.334900,509.915131 856.636230,517.986877 855.047180,526.080139 
	C848.757263,558.115906 837.627075,588.529114 823.947205,618.046204 
	C814.259521,638.949036 802.674011,658.831909 789.546753,677.744324 
	C782.520935,687.866272 774.571472,697.347107 767.027222,706.726746 
	C765.765137,704.601196 764.887329,702.210388 763.196777,701.249756 
	C757.287048,697.891846 750.982849,695.233215 745.035339,691.935852 
	C729.666504,683.415405 714.310364,674.863342 699.136230,666.003296 
	C686.655884,658.716064 674.093994,651.477844 662.202881,643.295593 
	C647.641479,633.275940 633.484802,622.618958 619.627930,611.638489 
	C605.846863,600.718140 592.577820,589.144348 579.234436,577.682190 
	C571.953735,571.427979 564.791809,565.007874 557.936768,558.294556 
	C552.653137,553.120117 547.931458,547.371948 543.137390,541.594055 
	C549.104126,536.300476 551.170410,519.392395 545.794556,514.192139 
	C545.496155,516.250366 545.131958,517.713562 545.100098,519.184021 
	C545.013855,523.164978 545.140564,527.150635 545.050537,531.131409 
	C544.924255,536.716736 542.807922,538.851746 536.907471,539.174927 
	C534.633423,536.528870 532.375671,534.263611 530.040405,531.536255 
	C529.951721,528.109802 530.187317,525.117249 529.853760,522.189575 
	C529.573486,519.730042 528.630188,517.346008 527.980469,514.928589 
	C527.345886,517.286316 526.711365,519.643982 525.718689,521.947021 
	C523.103149,520.560486 520.421387,519.635681 518.674316,517.814270 
	C514.713806,513.685242 511.189514,509.134644 507.531036,504.719666 
	C497.712006,492.870148 487.521729,481.301025 478.222290,469.055969 
	C469.106903,457.053253 460.969635,444.310699 452.221771,432.021912 
	C451.204224,430.592499 449.031433,429.985474 447.303802,428.536560 
	C447.201691,418.748566 447.073730,409.419098 447.238770,400.094818 
	C447.299957,396.639648 447.592865,393.060394 448.574188,389.774902 
	C451.025482,381.567902 459.197754,376.788635 467.712219,378.115021 
	C475.708435,379.360657 481.980164,386.344543 482.084900,394.848480 
	C482.277740,410.503052 482.147766,426.161560 482.151947,441.818451 
	C482.154144,450.088898 484.550659,453.841034 489.934753,454.001404 
	C495.516052,454.167694 498.173187,450.251709 498.175995,441.823700 
	C498.181152,426.499908 498.120148,411.175842 498.201019,395.852478 
	C498.244476,387.614197 503.108398,380.832214 510.072266,378.892761 
	C518.210266,376.626282 526.008911,379.312500 530.063904,386.754272 
	C531.908569,390.139740 532.787231,394.429199 532.864990,398.333313 
	C533.173340,413.817535 532.951660,429.311646 533.014160,444.801758 
	C533.036987,450.446625 535.949219,453.947815 540.341003,453.989777 
	C545.418335,454.038269 548.721802,450.394531 548.833435,444.515503 
	C548.899780,441.018951 548.897461,437.519226 548.837158,434.022430 
	C548.579163,419.075531 549.172302,404.046326 547.781067,389.204041 
	C546.110962,371.386810 526.813904,358.741028 509.351868,362.517639 
	C501.844330,364.141327 495.156067,367.027740 490.301880,373.498474 
	C477.214996,360.812805 462.780304,358.851379 446.809021,366.523621 
	C444.804993,361.970184 441.564758,359.713104 436.863037,361.137848 
	C432.090851,362.583893 431.072662,366.480621 431.112244,371.033417 
	C431.181671,379.021210 431.008484,387.011139 430.598938,394.935913 
	C428.452759,392.786011 426.180786,390.947845 424.913483,388.573456 
	C417.976288,375.575958 411.122345,362.528198 404.552460,349.341919 
	C396.665588,333.512299 388.365448,317.829193 381.573853,301.528656 
	C373.611755,282.418884 366.900970,262.776428 359.998779,243.240921 
	C356.140259,232.319931 352.824951,221.196671 349.576263,210.073593 
	C346.603027,199.893677 343.921173,189.623230 341.351532,179.332596 
	C339.426788,171.624695 337.772034,163.843994 336.198822,156.054977 
	C334.037781,145.355682 331.777954,134.663162 330.092224,123.884560 
	C328.199188,111.780365 326.724884,99.602577 325.389038,87.421638 
	C324.053101,75.239456 323.011139,63.021957 322.039124,50.804119 
	C321.473572,43.695671 321.451080,36.544170 320.892517,29.434959 
	C320.543304,24.990170 319.651245,20.588036 319.358582,15.992084 
	C331.141113,13.210908 342.496826,10.217360 354.014252,8.105519 
	C365.804749,5.943594 377.757080,4.668352 389.622223,2.895443 
	C390.163818,2.814521 390.544403,1.656405 391.000000,1.000000 
M582.520935,445.020355 
	C592.447571,453.574402 603.784424,455.669281 616.232422,452.184570 
	C631.072144,448.030243 641.399902,434.654266 641.821411,418.279114 
	C642.215576,402.964722 642.031677,387.633575 641.970703,372.310303 
	C641.946289,366.175262 639.017700,362.873169 634.063416,362.839142 
	C628.881958,362.803558 626.183350,366.145264 626.159729,372.686951 
	C626.104553,388.010315 626.283875,403.338562 625.946045,418.655487 
	C625.708069,429.447327 616.595764,437.950623 606.197998,437.820801 
	C595.367249,437.685547 586.982178,429.060272 586.862915,417.788544 
	C586.774841,409.460510 586.845337,401.130859 586.843872,392.801910 
	C586.842590,385.639038 586.972839,378.472809 586.794189,371.314331 
	C586.656738,365.802734 583.369019,362.664215 578.436157,362.835876 
	C573.765198,362.998413 570.913391,365.921814 570.890198,371.102753 
	C570.818481,387.092621 570.872742,403.083130 570.911499,419.073364 
	C570.935974,429.143799 574.727112,437.594147 582.520935,445.020355 
M700.044189,538.467834 
	C703.282043,534.796448 704.773438,530.573242 703.617432,525.732605 
	C701.439026,516.610474 692.165161,511.775391 682.884338,514.944641 
	C682.071838,515.222107 681.099792,516.555969 681.086121,517.413269 
	C680.951782,525.828613 681.005066,534.246948 681.005066,543.009460 
	C687.723083,542.489746 694.501404,545.084045 700.044189,538.467834 
M631.300354,538.268433 
	C631.388550,539.721130 631.476746,541.173767 631.560425,542.551636 
	C639.962219,543.884766 642.526733,543.478210 644.177917,540.076721 
	C641.028259,540.076721 638.166138,540.076721 635.059448,540.076721 
	C633.901062,531.354126 635.809387,522.899841 633.942627,514.855225 
	C633.061890,514.876221 632.181091,514.897278 631.300293,514.918274 
	C631.300293,522.383057 631.300293,529.847839 631.300354,538.268433 
M588.077454,540.975769 
	C588.604797,541.639404 589.132202,542.302979 589.659546,542.966614 
	C590.297302,542.331848 591.481506,541.704102 591.489807,541.061279 
	C591.594360,532.934814 591.590759,524.804810 591.399780,516.680786 
	C591.383179,515.976135 589.844666,515.307251 588.046570,513.825073 
	C588.046570,523.512085 588.046570,531.788635 588.077454,540.975769 
z"/>
<path fill="#FFCD4E" opacity="1.000000" stroke="none" 
	d="
M475.000000,865.000000 
	C447.312439,865.000000 419.624878,865.000000 391.805725,864.655396 
	C389.000946,863.870361 386.321686,863.463806 383.655670,862.983704 
	C368.969360,860.338684 354.251526,857.853149 339.609283,854.982544 
	C308.059723,848.797424 277.961243,838.080811 249.014313,824.323792 
	C234.272842,817.317993 220.015152,809.200500 205.944077,800.898682 
	C181.887314,786.705139 159.889908,769.591187 139.391022,750.701050 
	C121.558296,734.267822 105.204407,716.371643 90.480011,697.025269 
	C75.629974,677.513916 62.289448,657.054932 50.794373,635.395020 
	C36.580170,608.611511 25.162178,580.665833 17.123024,551.447632 
	C13.096599,536.813599 10.012914,521.894531 7.109660,506.986176 
	C5.182058,497.087891 4.364714,486.975220 2.921612,476.977112 
	C2.815360,476.240936 1.664965,475.655518 0.999998,475.000000 
	C1.000000,447.312439 1.000000,419.624878 1.362799,391.780823 
	C2.140357,390.940582 2.832330,390.292664 2.926053,389.567413 
	C3.679648,383.735779 4.087897,377.851135 5.044266,372.055756 
	C7.025511,360.049805 8.505011,347.884430 11.600214,336.156555 
	C16.453974,317.765472 21.567520,299.341309 28.252148,281.563263 
	C35.120983,263.295288 43.829708,245.702927 52.112122,227.992096 
	C54.748928,222.353622 58.598251,217.282181 62.164505,212.190338 
	C63.251743,214.414093 64.365776,216.332138 64.826584,218.396027 
	C66.193321,224.517517 67.046837,230.760971 68.578423,236.836380 
	C70.421974,244.149292 72.866867,251.308319 74.853287,258.588013 
	C78.125519,270.579895 81.252022,282.611725 84.412621,294.633850 
	C85.801720,299.917664 86.793503,305.331421 88.547829,310.488159 
	C91.765640,319.946777 95.506592,329.225922 98.862839,338.639282 
	C103.633873,352.020752 107.987610,365.556854 113.015213,378.839325 
	C117.922722,391.804565 123.461159,404.530762 128.704956,417.369080 
	C130.464005,421.675690 131.974777,426.094879 133.937347,430.304932 
	C138.556107,440.212982 143.294495,450.067627 148.140213,459.866913 
	C154.086227,471.891235 160.183167,483.841034 166.229950,495.815430 
	C169.503723,502.298401 172.808975,508.765533 176.074432,515.692627 
	C176.031967,523.759277 175.950912,531.374146 176.060638,538.986206 
	C176.079163,540.271912 176.825928,542.602966 177.395981,542.653625 
	C181.136276,542.986145 184.920456,542.824951 188.690308,542.824951 
	C188.712280,542.041199 188.734268,541.257446 188.756256,540.473694 
	C185.713715,540.136108 182.671173,539.798584 179.389404,539.434448 
	C179.389404,534.167236 179.389404,529.083313 179.734406,524.020630 
	C181.378235,525.171692 183.055923,526.068909 183.915085,527.468567 
	C189.953598,537.305786 195.719711,547.310730 201.794708,557.124817 
	C204.493179,561.484192 207.862732,565.423523 210.654663,569.730530 
	C217.184250,579.803528 223.279465,590.168030 230.058395,600.066650 
	C236.412476,609.344971 243.422867,618.173706 250.138077,627.204956 
	C255.442215,634.338501 260.613403,641.575317 266.076355,648.584839 
	C270.127625,653.783081 274.633301,658.624390 278.793549,663.741089 
	C286.773529,673.555603 294.426910,683.644775 302.636658,693.260742 
	C310.575989,702.559998 319.007141,711.441833 327.293396,720.441528 
	C333.377747,727.049683 339.383453,733.748596 345.779022,740.046753 
	C352.231201,746.400635 359.226166,752.199646 365.789307,758.445618 
	C372.245148,764.589478 378.290710,771.168884 384.818817,777.231384 
	C393.064697,784.889343 401.495300,792.360413 410.069489,799.649536 
	C419.422546,807.600708 428.878082,815.447937 438.563385,822.987793 
	C453.698669,834.770325 469.070953,846.248230 484.324585,857.879150 
	C485.945679,859.115234 487.444733,860.511353 488.569641,861.907715 
	C484.186035,862.334656 480.224976,862.622192 476.290558,863.120300 
	C475.789093,863.183838 475.426758,864.346497 475.000000,865.000000 
z"/>
<path fill="#FFD364" opacity="1.000000" stroke="none" 
	d="
M859.833374,500.998535 
	C853.186523,498.145874 846.229004,495.847656 839.953369,492.332275 
	C823.765747,483.264557 807.524536,474.205231 791.979492,464.104187 
	C778.239929,455.176392 765.410278,444.848267 751.994751,434.656158 
	C752.324707,433.318817 752.860168,432.475739 753.349609,431.606812 
	C762.905334,414.641846 762.753479,397.649689 751.577759,381.797760 
	C740.463501,366.033081 724.601929,359.245514 705.444763,363.052521 
	C698.022400,364.527527 691.085632,368.446869 684.082886,371.191772 
	C683.006958,364.404907 681.564880,362.810883 675.001221,361.840881 
	C670.030151,355.453369 664.981445,349.124573 660.102600,342.667358 
	C645.390869,323.196167 630.663635,303.706787 619.102295,282.127289 
	C609.313782,263.856964 599.761841,245.452759 590.475830,226.922089 
	C576.872498,199.776108 567.497559,170.982941 559.658508,141.795425 
	C552.303284,114.409607 546.585022,86.573174 543.995667,58.246059 
	C542.682983,43.885822 541.979187,29.469934 541.384766,14.677612 
	C568.142151,21.342733 593.850586,30.353067 618.407166,42.262501 
	C632.657715,49.173752 646.509155,56.997864 660.125244,65.107872 
	C684.413574,79.574478 706.700500,96.854263 727.398193,116.053703 
	C744.948975,132.334091 761.077942,150.000320 775.619812,169.080826 
	C790.378052,188.445282 803.600830,208.781204 815.035889,230.275604 
	C829.346069,257.174133 840.778259,285.263245 848.901062,314.613922 
	C852.518616,327.685181 855.362854,341.001343 857.898438,354.331787 
	C860.086609,365.835907 861.310486,377.522369 863.079102,389.110107 
	C863.187683,389.821228 864.335632,390.373718 865.000000,391.000000 
	C865.000000,418.687561 865.000000,446.375122 864.656616,474.192535 
	C863.875061,475.990509 863.287170,477.635468 863.024841,479.330780 
	C861.908447,486.545227 860.888550,493.774597 859.833374,500.998535 
z"/>
<path fill="#000000" opacity="1.000000" stroke="none" 
	d="
M865.000000,390.531342 
	C864.335632,390.373718 863.187683,389.821228 863.079102,389.110107 
	C861.310486,377.522369 860.086609,365.835907 857.898438,354.331787 
	C855.362854,341.001343 852.518616,327.685181 848.901062,314.613922 
	C840.778259,285.263245 829.346069,257.174133 815.035889,230.275604 
	C803.600830,208.781204 790.378052,188.445282 775.619812,169.080826 
	C761.077942,150.000320 744.948975,132.334091 727.398193,116.053703 
	C706.700500,96.854263 684.413574,79.574478 660.125244,65.107872 
	C646.509155,56.997864 632.657715,49.173752 618.407166,42.262501 
	C593.850586,30.353067 568.142151,21.342733 541.385315,14.221344 
	C528.850098,11.523726 516.754944,8.574229 504.528931,6.340810 
	C495.724792,4.732488 486.741821,4.113670 477.850006,2.965375 
	C476.312256,2.766790 474.831329,2.128395 473.662079,1.346577 
	C604.260315,1.000000 734.520569,1.000000 865.000000,1.000000 
	C865.000000,130.687485 865.000000,260.375092 865.000000,390.531342 
z"/>
<path fill="#000000" opacity="1.000000" stroke="none" 
	d="
M859.908325,501.416016 
	C860.888550,493.774597 861.908447,486.545227 863.024841,479.330780 
	C863.287170,477.635468 863.875061,475.990509 864.656616,474.661194 
	C865.000000,604.927063 865.000000,734.854187 865.000000,865.000000 
	C735.312500,865.000000 605.624939,865.000000 475.468628,865.000000 
	C475.426758,864.346497 475.789093,863.183838 476.290558,863.120300 
	C480.224976,862.622192 484.186035,862.334656 488.987610,861.980774 
	C493.497375,861.320923 497.191315,860.806763 500.813904,859.980103 
	C520.674622,855.447693 540.693787,851.479736 560.322449,846.093445 
	C584.840393,839.365540 608.134277,829.242798 631.021606,817.395630 
	C642.098755,811.051086 653.421143,805.674255 663.587585,798.629395 
	C681.043030,786.533447 698.472473,774.212830 714.615051,760.462891 
	C730.255066,747.141052 744.331787,731.971985 758.926575,717.444885 
	C762.006165,714.379578 764.353882,710.578979 767.038818,707.117249 
	C774.571472,697.347107 782.520935,687.866272 789.546753,677.744324 
	C802.674011,658.831909 814.259521,638.949036 823.947205,618.046204 
	C837.627075,588.529114 848.757263,558.115906 855.047180,526.080139 
	C856.636230,517.986877 858.334900,509.915131 859.908325,501.416016 
z"/>
<path fill="#000000" opacity="1.000000" stroke="none" 
	d="
M0.999998,475.468658 
	C1.664965,475.655518 2.815360,476.240936 2.921612,476.977112 
	C4.364714,486.975220 5.182058,497.087891 7.109660,506.986176 
	C10.012914,521.894531 13.096599,536.813599 17.123024,551.447632 
	C25.162178,580.665833 36.580170,608.611511 50.794373,635.395020 
	C62.289448,657.054932 75.629974,677.513916 90.480011,697.025269 
	C105.204407,716.371643 121.558296,734.267822 139.391022,750.701050 
	C159.889908,769.591187 181.887314,786.705139 205.944077,800.898682 
	C220.015152,809.200500 234.272842,817.317993 249.014313,824.323792 
	C277.961243,838.080811 308.059723,848.797424 339.609283,854.982544 
	C354.251526,857.853149 368.969360,860.338684 383.655670,862.983704 
	C386.321686,863.463806 389.000946,863.870361 391.337036,864.655396 
	C261.072937,865.000000 131.145844,865.000000 1.000000,865.000000 
	C1.000000,735.312500 1.000000,605.624939 0.999998,475.468658 
z"/>
<path fill="#000000" opacity="1.000000" stroke="none" 
	d="
M61.892746,211.951279 
	C58.598251,217.282181 54.748928,222.353622 52.112122,227.992096 
	C43.829708,245.702927 35.120983,263.295288 28.252148,281.563263 
	C21.567520,299.341309 16.453974,317.765472 11.600214,336.156555 
	C8.505011,347.884430 7.025511,360.049805 5.044266,372.055756 
	C4.087897,377.851135 3.679648,383.735779 2.926053,389.567413 
	C2.832330,390.292664 2.140357,390.940582 1.362799,391.312164 
	C1.000000,261.072937 1.000000,131.145844 1.000000,1.000000 
	C130.687485,1.000000 260.375092,1.000000 390.531342,1.000000 
	C390.544403,1.656405 390.163818,2.814521 389.622223,2.895443 
	C377.757080,4.668352 365.804749,5.943594 354.014252,8.105519 
	C342.496826,10.217360 331.141113,13.210908 318.964172,15.917600 
	C316.967010,16.344463 315.712036,16.643255 314.474396,17.001951 
	C291.653351,23.615931 269.459290,31.917858 247.960663,42.027084 
	C227.106628,51.833221 207.173965,63.319691 188.258209,76.450043 
	C178.136658,83.475899 168.655807,91.424744 158.569977,99.087692 
	C152.003708,104.481339 145.414001,109.396439 139.579514,115.085999 
	C129.974976,124.452011 120.349991,133.885284 111.660851,144.080429 
	C99.612694,158.216827 88.130272,172.865341 76.986572,187.730103 
	C71.301422,195.313644 66.883476,203.847153 61.892746,211.951279 
z"/>
<path fill="#FFCE56" opacity="1.000000" stroke="none" 
	d="
M158.885818,98.957047 
	C168.655807,91.424744 178.136658,83.475899 188.258209,76.450043 
	C207.173965,63.319691 227.106628,51.833221 247.960663,42.027084 
	C269.459290,31.917858 291.653351,23.615931 314.474396,17.001951 
	C315.712036,16.643255 316.967010,16.344463 318.608337,16.092278 
	C319.651245,20.588036 320.543304,24.990170 320.892517,29.434959 
	C321.451080,36.544170 321.473572,43.695671 322.039124,50.804119 
	C323.011139,63.021957 324.053101,75.239456 325.389038,87.421638 
	C326.724884,99.602577 328.199188,111.780365 330.092224,123.884560 
	C331.777954,134.663162 334.037781,145.355682 336.198822,156.054977 
	C337.772034,163.843994 339.426788,171.624695 341.351532,179.332596 
	C343.921173,189.623230 346.603027,199.893677 349.576263,210.073593 
	C352.824951,221.196671 356.140259,232.319931 359.998779,243.240921 
	C366.900970,262.776428 373.611755,282.418884 381.573853,301.528656 
	C388.365448,317.829193 396.665588,333.512299 404.552460,349.341919 
	C411.122345,362.528198 417.976288,375.575958 424.913483,388.573456 
	C426.180786,390.947845 428.452759,392.786011 430.692261,395.396423 
	C431.135376,412.367096 431.092987,428.813293 431.190033,445.258728 
	C431.221588,450.605988 434.674500,454.113220 439.346344,453.999298 
	C443.840118,453.889709 446.943634,450.578674 447.122955,445.422607 
	C447.313324,439.950928 447.311890,434.472595 447.394226,428.997162 
	C449.031433,429.985474 451.204224,430.592499 452.221771,432.021912 
	C460.969635,444.310699 469.106903,457.053253 478.222290,469.055969 
	C487.521729,481.301025 497.712006,492.870148 507.531036,504.719666 
	C511.189514,509.134644 514.713806,513.685242 518.674316,517.814270 
	C520.421387,519.635681 523.103149,520.560486 525.829712,522.396973 
	C526.319702,525.204895 526.322571,527.508362 526.364746,529.811218 
	C526.558899,540.417786 532.735535,544.905518 542.959900,541.878845 
	C547.931458,547.371948 552.653137,553.120117 557.936768,558.294556 
	C564.791809,565.007874 571.953735,571.427979 579.234436,577.682190 
	C592.577820,589.144348 605.846863,600.718140 619.627930,611.638489 
	C633.484802,622.618958 647.641479,633.275940 662.202881,643.295593 
	C674.093994,651.477844 686.655884,658.716064 699.136230,666.003296 
	C714.310364,674.863342 729.666504,683.415405 745.035339,691.935852 
	C750.982849,695.233215 757.287048,697.891846 763.196777,701.249756 
	C764.887329,702.210388 765.765137,704.601196 767.027222,706.726746 
	C764.353882,710.578979 762.006165,714.379578 758.926575,717.444885 
	C744.331787,731.971985 730.255066,747.141052 714.615051,760.462891 
	C698.472473,774.212830 681.043030,786.533447 663.587585,798.629395 
	C653.421143,805.674255 642.098755,811.051086 630.686157,817.158447 
	C619.557556,810.763794 608.779663,804.776306 598.573547,797.935913 
	C575.248962,782.303162 551.836975,766.755920 529.166992,750.206055 
	C512.423340,737.982544 496.197174,724.893372 480.812073,711.002930 
	C458.470032,690.831360 436.945801,669.741882 415.380005,648.728577 
	C407.059875,640.621521 399.326813,631.868164 391.779022,623.022949 
	C381.110870,610.520813 370.470001,597.959045 360.524567,584.884827 
	C344.636871,563.999023 328.873474,542.987671 313.931610,521.423706 
	C303.165680,505.886414 293.656372,489.463104 283.914337,473.238159 
	C279.220276,465.420441 275.282471,457.148621 271.257782,448.854004 
	C275.256744,445.625336 279.349487,442.959442 282.637787,439.523651 
	C285.490662,436.542816 285.164520,432.655243 282.243439,429.604034 
	C279.404144,426.638397 275.904388,425.994476 272.282074,428.295837 
	C270.179199,429.631836 268.272247,431.271851 266.218384,432.690002 
	C254.629364,440.691895 239.286362,439.690979 228.997147,430.076874 
	C223.946838,425.357910 220.502258,419.694824 220.018387,412.173676 
	C222.321869,412.173676 224.142990,412.173706 225.964127,412.173645 
	C245.957855,412.173035 265.951691,412.213226 285.945251,412.149719 
	C292.988617,412.127380 295.608612,409.295563 295.119781,402.287842 
	C294.422455,392.291534 290.524353,383.588623 283.684601,376.327820 
	C269.871490,361.664490 249.695694,358.202332 228.997116,366.358032 
	C228.626617,364.020355 228.544418,361.965912 227.838455,360.154541 
	C222.908340,347.505219 217.888077,334.890320 212.756653,322.321564 
	C212.350647,321.327118 210.885956,320.764923 209.735229,319.742249 
	C209.100357,318.319183 208.643539,317.155701 208.495880,315.883820 
	C208.843231,314.459106 209.243790,313.023987 208.857819,311.846741 
	C207.048462,306.327850 204.783676,300.951508 203.117889,295.393494 
	C197.588821,276.945129 192.074432,258.488861 186.894241,239.940720 
	C183.363937,227.300140 180.049606,214.577072 177.277054,201.752869 
	C174.019165,186.683853 171.229309,171.503265 168.649200,156.301025 
	C166.153351,141.595093 164.265808,126.786835 161.928925,112.052406 
	C161.228714,107.637459 159.917236,103.319458 158.885818,98.957047 
M395.851318,453.690033 
	C400.226440,452.013763 401.562439,448.663666 401.547333,444.206146 
	C401.465515,420.054993 401.509369,395.903442 401.502136,371.752014 
	C401.501831,370.754669 401.550537,369.732330 401.359680,368.764374 
	C400.552185,364.668915 398.041870,362.211243 393.860138,362.057129 
	C389.687439,361.903290 386.970337,364.115051 385.899994,368.180817 
	C385.572998,369.422943 385.446350,370.717804 385.110535,372.671692 
	C374.770447,364.848969 363.706451,360.931458 351.247986,362.184082 
	C338.766937,363.438965 328.373840,368.990051 320.253571,378.511749 
	C306.761932,394.331787 305.771210,417.286713 317.648956,434.043213 
	C323.935181,442.911377 332.260986,449.000793 342.659302,452.083405 
	C358.079620,456.654755 372.055389,453.004120 384.887573,443.592224 
	C386.961243,452.251373 388.498199,453.731140 395.851318,453.690033 
M469.822479,539.298096 
	C469.453400,545.092041 473.854614,542.660828 476.420959,542.945496 
	C481.471375,543.505554 485.792419,541.981812 487.580780,536.781555 
	C489.369507,531.580200 486.975952,527.835144 482.497986,525.291687 
	C484.105164,516.248657 480.096680,513.121277 469.821564,515.659546 
	C469.821564,523.151306 469.821564,530.744446 469.822479,539.298096 
M372.213623,515.717346 
	C365.867798,521.052185 366.588562,526.626038 374.026001,529.697937 
	C375.253632,530.204956 376.805420,530.375427 377.655457,531.242615 
	C378.909729,532.522034 380.461182,534.320129 380.397644,535.834900 
	C380.343018,537.137146 378.300873,539.227356 376.960785,539.376099 
	C375.404053,539.548828 373.442474,538.239502 372.061218,537.088074 
	C371.093628,536.281555 370.804077,534.661621 369.829163,532.593506 
	C368.916473,534.201477 368.071472,534.988892 368.134216,535.695862 
	C368.486145,539.664062 370.855957,542.194275 374.659424,542.856262 
	C378.733978,543.565491 381.825653,541.749634 383.404236,537.848572 
	C384.844635,534.288940 383.973114,531.184937 380.718689,529.157959 
	C378.628601,527.856140 376.044342,527.334900 373.992279,525.989807 
	C372.797424,525.206604 371.486298,523.446472 371.557068,522.201477 
	C371.632385,520.876160 373.016174,519.022766 374.287354,518.485657 
	C377.535767,517.113220 379.577179,518.808044 380.757172,521.972717 
	C381.056610,522.775696 382.177551,523.272278 382.921021,523.909668 
	C383.225342,522.902588 383.924042,521.828857 383.767181,520.899658 
	C382.994537,516.322815 378.866974,514.291382 372.213623,515.717346 
M329.040955,515.320618 
	C328.847168,517.080994 328.445496,518.859924 328.599640,520.589233 
	C328.640320,521.045288 330.397522,521.348328 331.366455,521.721619 
	C331.793152,519.219421 333.664703,516.370911 329.040955,515.320618 
z"/>
<path fill="#151412" opacity="1.000000" stroke="none" 
	d="
M447.303802,428.536560 
	C447.311890,434.472595 447.313324,439.950928 447.122955,445.422607 
	C446.943634,450.578674 443.840118,453.889709 439.346344,453.999298 
	C434.674500,454.113220 431.221588,450.605988 431.190033,445.258728 
	C431.092987,428.813293 431.135376,412.367096 431.030273,395.460663 
	C431.008484,387.011139 431.181671,379.021210 431.112244,371.033417 
	C431.072662,366.480621 432.090851,362.583893 436.863037,361.137848 
	C441.564758,359.713104 444.804993,361.970184 446.809021,366.523621 
	C462.780304,358.851379 477.214996,360.812805 490.301880,373.498474 
	C495.156067,367.027740 501.844330,364.141327 509.351868,362.517639 
	C526.813904,358.741028 546.110962,371.386810 547.781067,389.204041 
	C549.172302,404.046326 548.579163,419.075531 548.837158,434.022430 
	C548.897461,437.519226 548.899780,441.018951 548.833435,444.515503 
	C548.721802,450.394531 545.418335,454.038269 540.341003,453.989777 
	C535.949219,453.947815 533.036987,450.446625 533.014160,444.801758 
	C532.951660,429.311646 533.173340,413.817535 532.864990,398.333313 
	C532.787231,394.429199 531.908569,390.139740 530.063904,386.754272 
	C526.008911,379.312500 518.210266,376.626282 510.072266,378.892761 
	C503.108398,380.832214 498.244476,387.614197 498.201019,395.852478 
	C498.120148,411.175842 498.181152,426.499908 498.175995,441.823700 
	C498.173187,450.251709 495.516052,454.167694 489.934753,454.001404 
	C484.550659,453.841034 482.154144,450.088898 482.151947,441.818451 
	C482.147766,426.161560 482.277740,410.503052 482.084900,394.848480 
	C481.980164,386.344543 475.708435,379.360657 467.712219,378.115021 
	C459.197754,376.788635 451.025482,381.567902 448.574188,389.774902 
	C447.592865,393.060394 447.299957,396.639648 447.238770,400.094818 
	C447.073730,409.419098 447.201691,418.748566 447.303802,428.536560 
z"/>
<path fill="#141312" opacity="1.000000" stroke="none" 
	d="
M674.651245,361.947205 
	C681.564880,362.810883 683.006958,364.404907 684.082886,371.191772 
	C691.085632,368.446869 698.022400,364.527527 705.444763,363.052521 
	C724.601929,359.245514 740.463501,366.033081 751.577759,381.797760 
	C762.753479,397.649689 762.905334,414.641846 753.349609,431.606812 
	C752.860168,432.475739 752.324707,433.318817 751.663696,434.500305 
	C740.229675,449.096100 725.417969,455.811127 707.430420,453.600464 
	C701.125488,452.825592 695.156799,449.134094 689.104248,446.607483 
	C687.485352,445.931702 686.123230,444.640839 683.840210,443.085205 
	C683.840210,450.192261 683.840210,456.577789 683.840149,462.963348 
	C683.840027,470.291077 683.936707,477.620453 683.811340,484.946045 
	C683.693848,491.807953 679.183289,495.528259 672.609802,493.800201 
	C670.835938,493.333923 669.223145,491.060791 668.224670,489.239685 
	C667.503052,487.923523 667.840881,485.983276 667.840210,484.321320 
	C667.825439,446.849945 667.859131,409.378540 667.793335,371.907288 
	C667.784790,367.025879 669.283325,363.459198 674.651245,361.947205 
M741.966675,396.791840 
	C741.304321,395.455078 740.708435,394.080292 739.969299,392.787415 
	C732.633362,379.955414 716.603210,374.463470 702.779663,380.022522 
	C688.869202,385.616516 680.953430,400.823761 684.634277,414.882141 
	C689.059814,431.785248 706.072021,441.694794 722.439697,436.903778 
	C739.034790,432.046234 747.679810,414.800049 741.966675,396.791840 
z"/>
<path fill="#151412" opacity="1.000000" stroke="none" 
	d="
M582.270142,444.761475 
	C574.727112,437.594147 570.935974,429.143799 570.911499,419.073364 
	C570.872742,403.083130 570.818481,387.092621 570.890198,371.102753 
	C570.913391,365.921814 573.765198,362.998413 578.436157,362.835876 
	C583.369019,362.664215 586.656738,365.802734 586.794189,371.314331 
	C586.972839,378.472809 586.842590,385.639038 586.843872,392.801910 
	C586.845337,401.130859 586.774841,409.460510 586.862915,417.788544 
	C586.982178,429.060272 595.367249,437.685547 606.197998,437.820801 
	C616.595764,437.950623 625.708069,429.447327 625.946045,418.655487 
	C626.283875,403.338562 626.104553,388.010315 626.159729,372.686951 
	C626.183350,366.145264 628.881958,362.803558 634.063416,362.839142 
	C639.017700,362.873169 641.946289,366.175262 641.970703,372.310303 
	C642.031677,387.633575 642.215576,402.964722 641.821411,418.279114 
	C641.399902,434.654266 631.072144,448.030243 616.232422,452.184570 
	C603.784424,455.669281 592.447571,453.574402 582.270142,444.761475 
z"/>
<path fill="#322B1B" opacity="1.000000" stroke="none" 
	d="
M543.137390,541.594055 
	C532.735535,544.905518 526.558899,540.417786 526.364746,529.811218 
	C526.322571,527.508362 526.319702,525.204895 526.187744,522.451660 
	C526.711365,519.643982 527.345886,517.286316 527.980469,514.928589 
	C528.630188,517.346008 529.573486,519.730042 529.853760,522.189575 
	C530.187317,525.117249 529.951721,528.109802 529.974792,531.908691 
	C530.435608,536.911560 532.840515,539.088196 536.923828,539.555786 
	C542.807922,538.851746 544.924255,536.716736 545.050537,531.131409 
	C545.140564,527.150635 545.013855,523.164978 545.100098,519.184021 
	C545.131958,517.713562 545.496155,516.250366 545.794556,514.192139 
	C551.170410,519.392395 549.104126,536.300476 543.137390,541.594055 
z"/>
<path fill="#1B1914" opacity="1.000000" stroke="none" 
	d="
M699.784180,538.737183 
	C694.501404,545.084045 687.723083,542.489746 681.005066,543.009460 
	C681.005066,534.246948 680.951782,525.828613 681.086121,517.413269 
	C681.099792,516.555969 682.071838,515.222107 682.884338,514.944641 
	C692.165161,511.775391 701.439026,516.610474 703.617432,525.732605 
	C704.773438,530.573242 703.282043,534.796448 699.784180,538.737183 
M689.329956,517.837769 
	C687.729492,517.923950 686.129028,518.010193 684.594849,518.092834 
	C684.594849,525.547791 684.594849,532.581970 684.594849,539.565979 
	C695.135803,540.352478 700.015381,537.273315 700.781860,529.653564 
	C701.426697,523.242920 697.206787,518.527771 689.329956,517.837769 
z"/>
<path fill="#3E351F" opacity="1.000000" stroke="none" 
	d="
M631.300293,537.790527 
	C631.300293,529.847839 631.300293,522.383057 631.300293,514.918274 
	C632.181091,514.897278 633.061890,514.876221 633.942627,514.855225 
	C635.809387,522.899841 633.901062,531.354126 635.059448,540.076721 
	C638.166138,540.076721 641.028259,540.076721 644.177917,540.076721 
	C642.526733,543.478210 639.962219,543.884766 631.560425,542.551636 
	C631.476746,541.173767 631.388550,539.721130 631.300293,537.790527 
z"/>
<path fill="#3D341F" opacity="1.000000" stroke="none" 
	d="
M588.062012,540.520508 
	C588.046570,531.788635 588.046570,523.512085 588.046570,513.825073 
	C589.844666,515.307251 591.383179,515.976135 591.399780,516.680786 
	C591.590759,524.804810 591.594360,532.934814 591.489807,541.061279 
	C591.481506,541.704102 590.297302,542.331848 589.659546,542.966614 
	C589.132202,542.302979 588.604797,541.639404 588.062012,540.520508 
z"/>
<path fill="#FFCE56" opacity="1.000000" stroke="none" 
	d="
M536.907471,539.174927 
	C532.840515,539.088196 530.435608,536.911560 530.052368,532.370728 
	C532.375671,534.263611 534.633423,536.528870 536.907471,539.174927 
z"/>
<path fill="#FFCE51" opacity="1.000000" stroke="none" 
	d="
M158.569977,99.087685 
	C159.917236,103.319458 161.228714,107.637459 161.928925,112.052406 
	C164.265808,126.786835 166.153351,141.595093 168.649200,156.301025 
	C171.229309,171.503265 174.019165,186.683853 177.277054,201.752869 
	C180.049606,214.577072 183.363937,227.300140 186.894241,239.940720 
	C192.074432,258.488861 197.588821,276.945129 203.117889,295.393494 
	C204.783676,300.951508 207.048462,306.327850 208.857819,311.846741 
	C209.243790,313.023987 208.843231,314.459106 208.177856,315.687256 
	C204.964554,314.730408 202.384567,313.129425 199.791275,313.107605 
	C176.473434,312.911316 153.153259,312.990540 129.833771,312.997681 
	C128.669876,312.998047 127.445969,312.862091 126.353088,313.163483 
	C122.628578,314.190430 120.186836,316.572510 120.049088,320.563873 
	C119.913078,324.505310 121.870621,327.310181 125.747131,328.315155 
	C127.641510,328.806213 129.693069,328.811646 131.674820,328.823914 
	C139.934860,328.875153 148.195404,328.845490 156.825577,328.845490 
	C156.825577,331.313110 156.825577,333.117798 156.825577,334.922485 
	C156.825348,370.401428 156.822083,405.880341 156.832855,441.359283 
	C156.833450,443.355835 156.733673,445.388031 157.057098,447.341309 
	C157.707352,451.268372 160.268814,453.544189 164.146973,453.916992 
	C168.077240,454.294769 170.988113,452.428619 172.198547,448.642120 
	C172.787430,446.799896 172.819229,444.726562 172.821045,442.757568 
	C172.854340,406.612396 172.844849,370.467194 172.844406,334.321991 
	C172.844391,332.570892 172.844406,330.819824 172.844406,328.843445 
	C182.063324,328.843445 190.544327,328.858521 199.025253,328.838867 
	C206.324661,328.821991 208.417206,327.105194 209.913284,320.001831 
	C210.885956,320.764923 212.350647,321.327118 212.756653,322.321564 
	C217.888077,334.890320 222.908340,347.505219 227.838455,360.154541 
	C228.544418,361.965912 228.626617,364.020355 228.695190,366.539246 
	C227.405106,367.731293 226.404343,368.326569 225.431549,368.964508 
	C210.252670,378.918060 202.433517,392.985809 203.641342,411.103302 
	C204.836029,429.023438 214.388290,441.900757 230.474365,449.716248 
	C244.005371,456.290344 257.576935,454.752380 271.002197,449.082428 
	C275.282471,457.148621 279.220276,465.420441 283.914337,473.238159 
	C293.656372,489.463104 303.165680,505.886414 313.931610,521.423706 
	C328.873474,542.987671 344.636871,563.999023 360.524567,584.884827 
	C370.470001,597.959045 381.110870,610.520813 391.779022,623.022949 
	C399.326813,631.868164 407.059875,640.621521 415.380005,648.728577 
	C436.945801,669.741882 458.470032,690.831360 480.812073,711.002930 
	C496.197174,724.893372 512.423340,737.982544 529.166992,750.206055 
	C551.836975,766.755920 575.248962,782.303162 598.573547,797.935913 
	C608.779663,804.776306 619.557556,810.763794 630.411255,817.375732 
	C608.134277,829.242798 584.840393,839.365540 560.322449,846.093445 
	C540.693787,851.479736 520.674622,855.447693 500.813904,859.980103 
	C497.191315,860.806763 493.497375,861.320923 489.418396,861.906250 
	C487.444733,860.511353 485.945679,859.115234 484.324585,857.879150 
	C469.070953,846.248230 453.698669,834.770325 438.563385,822.987793 
	C428.878082,815.447937 419.422546,807.600708 410.069489,799.649536 
	C401.495300,792.360413 393.064697,784.889343 384.818817,777.231384 
	C378.290710,771.168884 372.245148,764.589478 365.789307,758.445618 
	C359.226166,752.199646 352.231201,746.400635 345.779022,740.046753 
	C339.383453,733.748596 333.377747,727.049683 327.293396,720.441528 
	C319.007141,711.441833 310.575989,702.559998 302.636658,693.260742 
	C294.426910,683.644775 286.773529,673.555603 278.793549,663.741089 
	C274.633301,658.624390 270.127625,653.783081 266.076355,648.584839 
	C260.613403,641.575317 255.442215,634.338501 250.138077,627.204956 
	C243.422867,618.173706 236.412476,609.344971 230.058395,600.066650 
	C223.279465,590.168030 217.184250,579.803528 210.654663,569.730530 
	C207.862732,565.423523 204.493179,561.484192 201.794708,557.124817 
	C195.719711,547.310730 189.953598,537.305786 183.915085,527.468567 
	C183.055923,526.068909 181.378235,525.171692 179.642609,523.579773 
	C179.189148,521.200745 179.498566,519.196960 179.020187,517.403259 
	C178.775986,516.487671 177.118622,515.948914 176.100006,515.239807 
	C172.808975,508.765533 169.503723,502.298401 166.229950,495.815430 
	C160.183167,483.841034 154.086227,471.891235 148.140213,459.866913 
	C143.294495,450.067627 138.556107,440.212982 133.937347,430.304932 
	C131.974777,426.094879 130.464005,421.675690 128.704956,417.369080 
	C123.461159,404.530762 117.922722,391.804565 113.015213,378.839325 
	C107.987610,365.556854 103.633873,352.020752 98.862839,338.639282 
	C95.506592,329.225922 91.765640,319.946777 88.547829,310.488159 
	C86.793503,305.331421 85.801720,299.917664 84.412621,294.633850 
	C81.252022,282.611725 78.125519,270.579895 74.853287,258.588013 
	C72.866867,251.308319 70.421974,244.149292 68.578423,236.836380 
	C67.046837,230.760971 66.193321,224.517517 64.826584,218.396027 
	C64.365776,216.332138 63.251743,214.414093 62.164501,212.190338 
	C66.883476,203.847153 71.301422,195.313644 76.986572,187.730103 
	C88.130272,172.865341 99.612694,158.216827 111.660851,144.080429 
	C120.349991,133.885284 129.974976,124.452011 139.579514,115.085999 
	C145.414001,109.396439 152.003708,104.481339 158.569977,99.087685 
M230.671844,517.927002 
	C234.138702,517.729675 237.605576,517.532349 241.072433,517.335022 
	C241.018799,516.671326 240.965164,516.007690 240.911530,515.343994 
	C235.984894,515.343994 231.058258,515.343994 225.785355,515.343994 
	C225.785355,524.424622 225.785355,533.465332 225.785355,543.040833 
	C230.283768,543.040833 234.405838,543.135681 238.516464,542.961121 
	C239.343277,542.926086 240.126663,541.868103 240.930069,541.281738 
	C240.041473,540.780151 239.176376,539.903503 238.259918,539.846069 
	C235.303299,539.660706 232.327759,539.776978 229.168808,539.776978 
	C229.168808,536.441528 229.168808,533.518494 229.168808,530.210876 
	C231.910904,530.210876 234.397278,530.322571 236.862885,530.145264 
	C237.639786,530.089417 238.360977,529.258789 239.107666,528.782715 
	C238.340561,528.175171 237.613434,527.115845 236.798950,527.043762 
	C234.232635,526.816650 231.633530,526.960144 228.448898,526.960144 
	C228.954224,523.463989 229.345520,520.756653 230.671844,517.927002 
M288.494171,517.967834 
	C290.418671,517.688416 292.343201,517.408936 294.267700,517.129517 
	C294.169586,516.374084 294.071472,515.618652 293.973358,514.863220 
	C288.072174,514.971924 282.132416,513.899048 276.281372,515.544739 
	C276.236725,516.053467 276.192078,516.562134 276.147430,517.070801 
	C278.375244,517.519104 280.603058,517.967407 283.044220,518.458618 
	C284.290497,526.522034 282.006378,535.040955 285.359161,543.000000 
	C286.534668,541.285095 286.843536,539.602600 286.912231,537.910461 
	C287.179993,531.317810 287.371582,524.722107 288.494171,517.967834 
z"/>
<path fill="#121211" opacity="1.000000" stroke="none" 
	d="
M176.074432,515.692627 
	C177.118622,515.948914 178.775986,516.487671 179.020187,517.403259 
	C179.498566,519.196960 179.189148,521.200745 179.297607,523.558472 
	C179.389404,529.083313 179.389404,534.167236 179.389404,539.434448 
	C182.671173,539.798584 185.713715,540.136108 188.756256,540.473694 
	C188.734268,541.257446 188.712280,542.041199 188.690308,542.824951 
	C184.920456,542.824951 181.136276,542.986145 177.395981,542.653625 
	C176.825928,542.602966 176.079163,540.271912 176.060638,538.986206 
	C175.950912,531.374146 176.031967,523.759277 176.074432,515.692627 
z"/>
<path fill="#131312" opacity="1.000000" stroke="none" 
	d="
M395.471985,453.792847 
	C388.498199,453.731140 386.961243,452.251373 384.887573,443.592224 
	C372.055389,453.004120 358.079620,456.654755 342.659302,452.083405 
	C332.260986,449.000793 323.935181,442.911377 317.648956,434.043213 
	C305.771210,417.286713 306.761932,394.331787 320.253571,378.511749 
	C328.373840,368.990051 338.766937,363.438965 351.247986,362.184082 
	C363.706451,360.931458 374.770447,364.848969 385.110535,372.671692 
	C385.446350,370.717804 385.572998,369.422943 385.899994,368.180817 
	C386.970337,364.115051 389.687439,361.903290 393.860138,362.057129 
	C398.041870,362.211243 400.552185,364.668915 401.359680,368.764374 
	C401.550537,369.732330 401.501831,370.754669 401.502136,371.752014 
	C401.509369,395.903442 401.465515,420.054993 401.547333,444.206146 
	C401.562439,448.663666 400.226440,452.013763 395.471985,453.792847 
M363.295715,437.068298 
	C365.152771,436.368073 367.078857,435.809814 368.855865,434.945099 
	C382.548645,428.281982 389.008789,412.200226 383.836945,397.795776 
	C378.791931,383.744659 363.220551,375.171417 349.060730,378.648712 
	C332.382751,382.744446 322.367706,398.592773 326.087494,415.002625 
	C329.691681,430.902496 345.737518,440.710022 363.295715,437.068298 
z"/>
<path fill="#141312" opacity="1.000000" stroke="none" 
	d="
M271.257782,448.854004 
	C257.576935,454.752380 244.005371,456.290344 230.474365,449.716248 
	C214.388290,441.900757 204.836029,429.023438 203.641342,411.103302 
	C202.433517,392.985809 210.252670,378.918060 225.431549,368.964508 
	C226.404343,368.326569 227.405106,367.731293 228.694794,366.934937 
	C249.695694,358.202332 269.871490,361.664490 283.684601,376.327820 
	C290.524353,383.588623 294.422455,392.291534 295.119781,402.287842 
	C295.608612,409.295563 292.988617,412.127380 285.945251,412.149719 
	C265.951691,412.213226 245.957855,412.173035 225.964127,412.173645 
	C224.142990,412.173706 222.321869,412.173676 220.018387,412.173676 
	C220.502258,419.694824 223.946838,425.357910 228.997147,430.076874 
	C239.286362,439.690979 254.629364,440.691895 266.218384,432.690002 
	C268.272247,431.271851 270.179199,429.631836 272.282074,428.295837 
	C275.904388,425.994476 279.404144,426.638397 282.243439,429.604034 
	C285.164520,432.655243 285.490662,436.542816 282.637787,439.523651 
	C279.349487,442.959442 275.256744,445.625336 271.257782,448.854004 
M261.493561,396.170044 
	C266.531250,396.170044 271.568970,396.170044 276.859772,396.170044 
	C272.181458,384.162933 260.412811,377.285736 247.000977,377.988007 
	C237.118637,378.505432 224.462936,386.828430 222.547745,396.170013 
	C235.223663,396.170013 247.859909,396.170013 261.493561,396.170044 
z"/>
<path fill="#151412" opacity="1.000000" stroke="none" 
	d="
M209.735229,319.742249 
	C208.417206,327.105194 206.324661,328.821991 199.025253,328.838867 
	C190.544327,328.858521 182.063324,328.843445 172.844406,328.843445 
	C172.844406,330.819824 172.844391,332.570892 172.844406,334.321991 
	C172.844849,370.467194 172.854340,406.612396 172.821045,442.757568 
	C172.819229,444.726562 172.787430,446.799896 172.198547,448.642120 
	C170.988113,452.428619 168.077240,454.294769 164.146973,453.916992 
	C160.268814,453.544189 157.707352,451.268372 157.057098,447.341309 
	C156.733673,445.388031 156.833450,443.355835 156.832855,441.359283 
	C156.822083,405.880341 156.825348,370.401428 156.825577,334.922485 
	C156.825577,333.117798 156.825577,331.313110 156.825577,328.845490 
	C148.195404,328.845490 139.934860,328.875153 131.674820,328.823914 
	C129.693069,328.811646 127.641510,328.806213 125.747131,328.315155 
	C121.870621,327.310181 119.913078,324.505310 120.049088,320.563873 
	C120.186836,316.572510 122.628578,314.190430 126.353088,313.163483 
	C127.445969,312.862091 128.669876,312.998047 129.833771,312.997681 
	C153.153259,312.990540 176.473434,312.911316 199.791275,313.107605 
	C202.384567,313.129425 204.964554,314.730408 207.868713,315.795654 
	C208.643539,317.155701 209.100357,318.319183 209.735229,319.742249 
z"/>
<path fill="#171513" opacity="1.000000" stroke="none" 
	d="
M469.822021,538.817871 
	C469.821564,530.744446 469.821564,523.151306 469.821564,515.659546 
	C480.096680,513.121277 484.105164,516.248657 482.497986,525.291687 
	C486.975952,527.835144 489.369507,531.580200 487.580780,536.781555 
	C485.792419,541.981812 481.471375,543.505554 476.420959,542.945496 
	C473.854614,542.660828 469.453400,545.092041 469.822021,538.817871 
M473.015259,538.113953 
	C475.836273,541.389709 479.458435,540.414124 482.031128,538.605957 
	C483.670441,537.453857 485.027100,533.785767 484.414978,531.941345 
	C482.600433,526.473755 477.625763,528.145691 472.996429,528.120789 
	C472.996429,531.306763 472.996429,534.252869 473.015259,538.113953 
M479.866882,522.186768 
	C479.958038,517.268555 476.620972,517.833557 473.206604,517.959656 
	C473.206604,520.246887 473.206604,522.330811 473.206604,525.636353 
	C475.700073,524.560547 477.610107,523.736450 479.866882,522.186768 
z"/>
<path fill="#262117" opacity="1.000000" stroke="none" 
	d="
M372.521545,515.522949 
	C378.866974,514.291382 382.994537,516.322815 383.767181,520.899658 
	C383.924042,521.828857 383.225342,522.902588 382.921021,523.909668 
	C382.177551,523.272278 381.056610,522.775696 380.757172,521.972717 
	C379.577179,518.808044 377.535767,517.113220 374.287354,518.485657 
	C373.016174,519.022766 371.632385,520.876160 371.557068,522.201477 
	C371.486298,523.446472 372.797424,525.206604 373.992279,525.989807 
	C376.044342,527.334900 378.628601,527.856140 380.718689,529.157959 
	C383.973114,531.184937 384.844635,534.288940 383.404236,537.848572 
	C381.825653,541.749634 378.733978,543.565491 374.659424,542.856262 
	C370.855957,542.194275 368.486145,539.664062 368.134216,535.695862 
	C368.071472,534.988892 368.916473,534.201477 369.829163,532.593506 
	C370.804077,534.661621 371.093628,536.281555 372.061218,537.088074 
	C373.442474,538.239502 375.404053,539.548828 376.960785,539.376099 
	C378.300873,539.227356 380.343018,537.137146 380.397644,535.834900 
	C380.461182,534.320129 378.909729,532.522034 377.655457,531.242615 
	C376.805420,530.375427 375.253632,530.204956 374.026001,529.697937 
	C366.588562,526.626038 365.867798,521.052185 372.521545,515.522949 
z"/>
<path fill="#3C331E" opacity="1.000000" stroke="none" 
	d="
M329.387817,515.116699 
	C333.664703,516.370911 331.793152,519.219421 331.366455,521.721619 
	C330.397522,521.348328 328.640320,521.045288 328.599640,520.589233 
	C328.445496,518.859924 328.847168,517.080994 329.387817,515.116699 
z"/>
<path fill="#FDD060" opacity="1.000000" stroke="none" 
	d="
M742.065613,397.172974 
	C747.679810,414.800049 739.034790,432.046234 722.439697,436.903778 
	C706.072021,441.694794 689.059814,431.785248 684.634277,414.882141 
	C680.953430,400.823761 688.869202,385.616516 702.779663,380.022522 
	C716.603210,374.463470 732.633362,379.955414 739.969299,392.787415 
	C740.708435,394.080292 741.304321,395.455078 742.065613,397.172974 
z"/>
<path fill="#F6CA5B" opacity="1.000000" stroke="none" 
	d="
M689.772095,517.841858 
	C697.206787,518.527771 701.426697,523.242920 700.781860,529.653564 
	C700.015381,537.273315 695.135803,540.352478 684.594849,539.565979 
	C684.594849,532.581970 684.594849,525.547791 684.594849,518.092834 
	C686.129028,518.010193 687.729492,517.923950 689.772095,517.841858 
z"/>
<path fill="#292418" opacity="1.000000" stroke="none" 
	d="
M230.204330,517.988159 
	C229.345520,520.756653 228.954224,523.463989 228.448898,526.960144 
	C231.633530,526.960144 234.232635,526.816650 236.798950,527.043762 
	C237.613434,527.115845 238.340561,528.175171 239.107666,528.782715 
	C238.360977,529.258789 237.639786,530.089417 236.862885,530.145264 
	C234.397278,530.322571 231.910904,530.210876 229.168808,530.210876 
	C229.168808,533.518494 229.168808,536.441528 229.168808,539.776978 
	C232.327759,539.776978 235.303299,539.660706 238.259918,539.846069 
	C239.176376,539.903503 240.041473,540.780151 240.930069,541.281738 
	C240.126663,541.868103 239.343277,542.926086 238.516464,542.961121 
	C234.405838,543.135681 230.283768,543.040833 225.785355,543.040833 
	C225.785355,533.465332 225.785355,524.424622 225.785355,515.343994 
	C231.058258,515.343994 235.984894,515.343994 240.911530,515.343994 
	C240.965164,516.007690 241.018799,516.671326 241.072433,517.335022 
	C237.605576,517.532349 234.138702,517.729675 230.204330,517.988159 
z"/>
<path fill="#342D1B" opacity="1.000000" stroke="none" 
	d="
M288.042847,518.047668 
	C287.371582,524.722107 287.179993,531.317810 286.912231,537.910461 
	C286.843536,539.602600 286.534668,541.285095 285.359161,543.000000 
	C282.006378,535.040955 284.290497,526.522034 283.044220,518.458618 
	C280.603058,517.967407 278.375244,517.519104 276.147430,517.070801 
	C276.192078,516.562134 276.236725,516.053467 276.281372,515.544739 
	C282.132416,513.899048 288.072174,514.971924 293.973358,514.863220 
	C294.071472,515.618652 294.169586,516.374084 294.267700,517.129517 
	C292.343201,517.408936 290.418671,517.688416 288.042847,518.047668 
z"/>
<path fill="#FDCD56" opacity="1.000000" stroke="none" 
	d="
M362.885315,437.155823 
	C345.737518,440.710022 329.691681,430.902496 326.087494,415.002625 
	C322.367706,398.592773 332.382751,382.744446 349.060730,378.648712 
	C363.220551,375.171417 378.791931,383.744659 383.836945,397.795776 
	C389.008789,412.200226 382.548645,428.281982 368.855865,434.945099 
	C367.078857,435.809814 365.152771,436.368073 362.885315,437.155823 
z"/>
<path fill="#FCCC53" opacity="1.000000" stroke="none" 
	d="
M260.994873,396.170044 
	C247.859909,396.170013 235.223663,396.170013 222.547745,396.170013 
	C224.462936,386.828430 237.118637,378.505432 247.000977,377.988007 
	C260.412811,377.285736 272.181458,384.162933 276.859772,396.170044 
	C271.568970,396.170044 266.531250,396.170044 260.994873,396.170044 
z"/>
<path fill="#F6C856" opacity="1.000000" stroke="none" 
	d="
M473.005859,537.656494 
	C472.996429,534.252869 472.996429,531.306763 472.996429,528.120789 
	C477.625763,528.145691 482.600433,526.473755 484.414978,531.941345 
	C485.027100,533.785767 483.670441,537.453857 482.031128,538.605957 
	C479.458435,540.414124 475.836273,541.389709 473.005859,537.656494 
z"/>
<path fill="#F0C354" opacity="1.000000" stroke="none" 
	d="
M479.693512,522.549561 
	C477.610107,523.736450 475.700073,524.560547 473.206604,525.636353 
	C473.206604,522.330811 473.206604,520.246887 473.206604,517.959656 
	C476.620972,517.833557 479.958038,517.268555 479.693512,522.549561 
z"/>
</svg>