<svg xmlns="http://www.w3.org/2000/svg" role="img" viewBox="-10.47 -9.97 518.44 139.44"><defs><style>.cls-1{fill:#06524c}.cls-3{fill:#492d21}</style></defs><g id="Layer_2" data-name="Layer 2"><g id="Layer_1-2" data-name="Layer 1"><path d="M124.67 89.77A64.44 64.44 0 0 0 129 73.33a50.14 50.14 0 0 1-34.85-14.95 46.43 46.43 0 0 0 30.52 31.39zm-30.28-2.69a46.48 46.48 0 0 0 16.44 23.49 64.89 64.89 0 0 0 6.69-8 61 61 0 0 1-23.13-15.49z" class="cls-1"/><path d="M75.07 86.64a60.35 60.35 0 0 1-44.42 19.53V91.75A46.57 46.57 0 0 0 75.32 58a50.14 50.14 0 0 1-35.65 15V60.79A38.76 38.76 0 0 0 78.4 22h12.17a38.88 38.88 0 0 0 38.49 38.9A64.57 64.57 0 0 0 62.38 0C27.93 1.21-.32 30.76 0 65.23a64.52 64.52 0 0 0 30.84 54.41 46.54 46.54 0 0 0 44.23-33zm107.09 1.14h-11.42V51.65a4.2 4.2 0 0 0-4.2-4.2H156l1.26-7.05H197l-1.26 7.05h-9.41a4.2 4.2 0 0 0-4.2 4.2v36.13zm45.72-3.59a20.76 20.76 0 0 1-3.57 2 23.45 23.45 0 0 1-3.64 1.31 24.47 24.47 0 0 1-3.56.68 30.46 30.46 0 0 1-3.37.19 23.26 23.26 0 0 1-7.47-1.12 15.63 15.63 0 0 1-5.66-3.22 13.94 13.94 0 0 1-3.61-5.12 18.58 18.58 0 0 1-1.24-7 19.87 19.87 0 0 1 1.55-8 17.92 17.92 0 0 1 4.16-6 18.24 18.24 0 0 1 6-3.75 20 20 0 0 1 7.18-1.31 17.24 17.24 0 0 1 6 1 12.87 12.87 0 0 1 7.81 7.81 18.78 18.78 0 0 1 1.1 6.68 22.72 22.72 0 0 1-.11 2.27 14.76 14.76 0 0 1-.27 1.71h-21.82a8.72 8.72 0 0 0 .8 3.88 7 7 0 0 0 2.26 2.67A10 10 0 0 0 214 80.4a20.49 20.49 0 0 0 4.62.48c.61 0 1.28 0 2-.06s1.52-.13 2.33-.24 1.63-.27 2.47-.45a18.6 18.6 0 0 0 2.49-.73v4.79zm-8.47-15.81a15 15 0 0 0-.43-3.85 8 8 0 0 0-1.21-2.66 5 5 0 0 0-1.85-1.56 5.77 5.77 0 0 0-4.87.08 5.73 5.73 0 0 0-2 1.68 8.14 8.14 0 0 0-1.28 2.68 13.31 13.31 0 0 0-.46 3.62h12.07zm17.92-14.88h9.48l1.36 10.06c.35-.62.7-1.26 1.05-1.91s.69-1.24 1-1.8.59-1 .84-1.44.43-.71.53-.9a12.17 12.17 0 0 1 1.41-1.86 9.12 9.12 0 0 1 1.71-1.47 8.25 8.25 0 0 1 2.1-1 8.76 8.76 0 0 1 2.59-.36 9.72 9.72 0 0 1 2.05.24 6.94 6.94 0 0 1 2.05.79L262.25 64a5.18 5.18 0 0 0-.78-.11l-1-.08-1-.05h-.89a13 13 0 0 0-5.89 1.24 12.14 12.14 0 0 0-4.16 3.23v19.55h-11.2zm51.12 29.33c-.65.54-1.38 1.13-2.2 1.78a22.62 22.62 0 0 1-2.69 1.83 16.47 16.47 0 0 1-3.1 1.42 10.6 10.6 0 0 1-3.49.57 8.28 8.28 0 0 1-6.71-3.1 9.9 9.9 0 0 1-1.68-3.14 11.18 11.18 0 0 1-.58-3.49 9.62 9.62 0 0 1 1.09-4.5 10.1 10.1 0 0 1 3.38-3.67 18.41 18.41 0 0 1 5.85-2.47 34.41 34.41 0 0 1 8.47-.9h1.26v-2a4.93 4.93 0 0 0-1.61-4 6.55 6.55 0 0 0-4.33-1.36 11.87 11.87 0 0 0-2.51.29 19.31 19.31 0 0 0-2.64.79 20.81 20.81 0 0 0-2.59 1.18 21.88 21.88 0 0 0-2.37 1.47l-.58-.33-1.91-6.82a36.94 36.94 0 0 1 7.89-2.73 35 35 0 0 1 7.31-.8 26.78 26.78 0 0 1 5.74.58 13.36 13.36 0 0 1 4.62 1.89 9.39 9.39 0 0 1 3.09 3.41 10.74 10.74 0 0 1 1.13 5.17v13.77a6.3 6.3 0 0 0 .1 1.15 3 3 0 0 0 .35 1 2.21 2.21 0 0 0 .71.75 2.14 2.14 0 0 0 1.16.29 6.54 6.54 0 0 0 .89-.06 4.81 4.81 0 0 0 1-.29v4.79a20.48 20.48 0 0 1-4.21 2.28 11.11 11.11 0 0 1-4.08.82A6.07 6.07 0 0 1 291 87a9.62 9.62 0 0 1-2.55-4.17zm-.39-11.73h-1.23a19.69 19.69 0 0 0-4.22.37 7.85 7.85 0 0 0-2.66 1 3.74 3.74 0 0 0-1.38 1.63 5.68 5.68 0 0 0-.38 2.15 5.6 5.6 0 0 0 .35 2.09 4.26 4.26 0 0 0 .95 1.42 3.56 3.56 0 0 0 1.39.82 5.34 5.34 0 0 0 1.66.26 7.58 7.58 0 0 0 2.57-.5A10.09 10.09 0 0 0 288 78.6v-7.5z" class="cls-1"/><path fill="#04514b" d="M335.11 87.78h-11.42V40.41h17a29.86 29.86 0 0 1 8.31 1.05 17.36 17.36 0 0 1 6.1 3 12.84 12.84 0 0 1 3.74 4.75 14.85 14.85 0 0 1 1.26 6.27 16.5 16.5 0 0 1-1.38 6.85 15.48 15.48 0 0 1-3.72 5.25 16.77 16.77 0 0 1-5.51 3.32 19.35 19.35 0 0 1-6.71 1.16h-1a11.23 11.23 0 0 1-1.13-.13l.55-6.47a3.48 3.48 0 0 0 .65.08h.71a5.53 5.53 0 0 0 2.83-.7 5.83 5.83 0 0 0 2-1.89 9 9 0 0 0 1.2-2.78 13.58 13.58 0 0 0 .4-3.39 12.86 12.86 0 0 0-.63-4.29 7.32 7.32 0 0 0-1.81-2.88 7 7 0 0 0-2.86-1.61 12.76 12.76 0 0 0-3.74-.52h-4.85v40.3z"/><path d="M389 53.5h9.48l1.36 5.63c.73-.65 1.56-1.33 2.47-2.07a26 26 0 0 1 3-2 18.82 18.82 0 0 1 3.41-1.55 11.72 11.72 0 0 1 3.79-.62 10.76 10.76 0 0 1 4.35.86 9.87 9.87 0 0 1 3.36 2.41 10.93 10.93 0 0 1 2.18 3.73 14.33 14.33 0 0 1 .77 4.84v23.05h-11.25V66.31a7.69 7.69 0 0 0-.4-2.56 5.54 5.54 0 0 0-1.1-1.85 4.51 4.51 0 0 0-1.63-1.11 5.36 5.36 0 0 0-2-.38 7 7 0 0 0-3.38.87 18.34 18.34 0 0 0-3.15 2.2v24.28H389V53.5zm73.88 30.69a20.76 20.76 0 0 1-3.57 2 23.45 23.45 0 0 1-3.64 1.31 24.47 24.47 0 0 1-3.56.68 30.46 30.46 0 0 1-3.37.19 23.26 23.26 0 0 1-7.47-1.12 15.63 15.63 0 0 1-5.66-3.22 13.94 13.94 0 0 1-3.61-5.12 18.58 18.58 0 0 1-1.24-7 19.87 19.87 0 0 1 1.55-8 17.92 17.92 0 0 1 4.16-6 18.24 18.24 0 0 1 6-3.75 20 20 0 0 1 7.18-1.31 17.24 17.24 0 0 1 6 1 12.87 12.87 0 0 1 7.81 7.81 18.78 18.78 0 0 1 1.1 6.68 22.72 22.72 0 0 1-.11 2.27 14.76 14.76 0 0 1-.27 1.71h-21.82a8.72 8.72 0 0 0 .8 3.88 7 7 0 0 0 2.26 2.67A10 10 0 0 0 449 80.4a20.49 20.49 0 0 0 4.62.48c.61 0 1.28 0 2-.06s1.52-.13 2.33-.24 1.63-.27 2.47-.45a18.6 18.6 0 0 0 2.49-.73v4.79zm-8.47-15.81a15 15 0 0 0-.43-3.85 8 8 0 0 0-1.21-2.66 5 5 0 0 0-1.85-1.56 5.77 5.77 0 0 0-4.87.08 5.73 5.73 0 0 0-2 1.68 8.14 8.14 0 0 0-1.28 2.68 13.31 13.31 0 0 0-.46 3.62h12.07zm17.3 10.35l.58-.32a27.15 27.15 0 0 0 5.56 2.26 19.56 19.56 0 0 0 5.27.81 8.22 8.22 0 0 0 2.3-.28 5.05 5.05 0 0 0 1.6-.73 3 3 0 0 0 .94-1 2.74 2.74 0 0 0 .31-1.24 2.29 2.29 0 0 0-.73-1.75 6.08 6.08 0 0 0-1.94-1.16 19.51 19.51 0 0 0-2.75-.85c-1-.25-2.07-.53-3.13-.84a29.32 29.32 0 0 1-3.14-1.12 10.51 10.51 0 0 1-2.75-1.68 7.56 7.56 0 0 1-1.94-2.57 8.75 8.75 0 0 1-.73-3.74 10.48 10.48 0 0 1 1-4.69 10.16 10.16 0 0 1 3.11-3.67 15.43 15.43 0 0 1 5.06-2.39 25.45 25.45 0 0 1 6.95-.86c.66 0 1.42 0 2.26.07s1.7.11 2.57.19 1.72.2 2.55.35 1.58.33 2.25.52l-1.65 7.27-.62.36a22.42 22.42 0 0 0-4.61-1.39 22 22 0 0 0-3.9-.42 8.67 8.67 0 0 0-2.26.26 4.56 4.56 0 0 0-1.52.69 2.75 2.75 0 0 0-.85 1 2.66 2.66 0 0 0-.28 1.21 2.36 2.36 0 0 0 .78 1.78 6.07 6.07 0 0 0 2 1.2 21.57 21.57 0 0 0 2.75.84q1.56.38 3.15.81a27.16 27.16 0 0 1 3.1 1.04 10 10 0 0 1 2.75 1.66 8.06 8.06 0 0 1 1.94 2.54 8.35 8.35 0 0 1 .74 3.7 11.09 11.09 0 0 1-.95 4.51 10.34 10.34 0 0 1-2.89 3.77 14.76 14.76 0 0 1-4.9 2.59 22.65 22.65 0 0 1-7 1c-1 0-2.06-.05-3.15-.14s-2.18-.24-3.27-.44a32.15 32.15 0 0 1-3.23-.74 22.32 22.32 0 0 1-3-1.07zm-93.72 9.05h-11.53l2.01-27.18h7.51l2.01 27.18z" class="cls-1"/><path d="M372.22 87.78h7c.45 0 .65-.35.32-.54a3.62 3.62 0 0 1-1.8-3zm0 0h-7c-.45 0-.65-.35-.32-.54a3.62 3.62 0 0 0 1.8-3z" class="cls-1"/><path d="M378.91 52.64a5.67 5.67 0 0 0 .24-4 4.35 4.35 0 0 0-1.46-2 7.64 7.64 0 0 0-1.1-.79 7.09 7.09 0 0 0-3.71-1 4.31 4.31 0 0 0-3.23 1.56c-.34.41-.65.85-1 1.28a2.16 2.16 0 0 0-.17.34c-.08.19 0 .26.15.33a6.91 6.91 0 0 0 3.77.27 3.43 3.43 0 0 0 1.79-1 .36.36 0 0 1 .53-.08 2.52 2.52 0 0 0 .29.12.64.64 0 0 1 .41.56.81.81 0 0 1 0 .16 3.93 3.93 0 0 0 1.06 2.82 9 9 0 0 0 2 1.72.18.18 0 0 0 .29-.08.39.39 0 0 1 .14-.21z" class="cls-3"/><path d="M378 44.27l-.94-.86a.34.34 0 0 0-.51.05 5.7 5.7 0 0 0-1.23 2.74.34.34 0 0 0 .59.24 10.21 10.21 0 0 1 2-1.61.35.35 0 0 0 .09-.56zm-7.82 13.82a.75.75 0 0 0 .24 0 9.67 9.67 0 0 0 1.33-.16 3.61 3.61 0 0 0 .81-.35.17.17 0 0 0 .09-.26 7.23 7.23 0 0 1-.47-1.77c-.05-.29-.1-.33-.39-.33a.75.75 0 0 1-.64-.29.24.24 0 0 0-.35-.07 7.05 7.05 0 0 1-1.67.78.23.23 0 0 0-.13.36 5.59 5.59 0 0 0 .37 1 7.74 7.74 0 0 0 .62.88 1 1 0 0 0 .19.21zm2.87-6.37a1.87 1.87 0 0 0 .47 0c.53-.12 1.05-.26 1.57-.42.25-.07.27-.14.13-.36a5 5 0 0 1-.69-2.09c0-.25-.06-.26-.26-.12a4.69 4.69 0 0 1-2.07.83c-.23 0-.27.09-.17.3.22.5.46 1 .7 1.48a1.85 1.85 0 0 0 .32.38zm-4.77-1.46a4.94 4.94 0 0 0-.45 1.36c-.05.25 0 .3.25.29a6.46 6.46 0 0 0 2.91-.85c.45-.24.44-.24.26-.71a5.05 5.05 0 0 1-.18-.55c0-.11-.08-.16-.19-.16a7 7 0 0 1-1.87-.29c-.15-.05-.24 0-.3.15a7.07 7.07 0 0 0-.43.76zm9.01 4.29v.19l-.53.91c-.15.25-.24.24-.41 0a7.48 7.48 0 0 1-1.31-3.13c0-.18 0-.25.2-.31l.51-.18c.28-.12.34-.12.55.11a6.18 6.18 0 0 0 1.33 1.12.29.29 0 0 1 .13.44c-.11.26-.23.51-.35.76l-.12.09zm-5.45-.22h.28a4.56 4.56 0 0 0 1.94-.58.21.21 0 0 0 .12-.27c-.05-.21-.09-.42-.15-.63a.29.29 0 0 0-.31-.23 2.34 2.34 0 0 0-.38 0 1.27 1.27 0 0 1-1.28-.65 2 2 0 0 0-.12-.19.23.23 0 0 0-.36-.07l-.57.33a.28.28 0 0 0-.15.35 5.1 5.1 0 0 0 .73 1.63c.07.15.17.23.25.31z" class="cls-3"/><path d="M375.41 56.2a.58.58 0 0 0-.05-.16c-.22-.4-.46-.8-.68-1.2-.09-.17-.19-.22-.37-.15l-1.08.4c-.16.06-.22.15-.16.37.16.6.34 1.2.52 1.79 0 .09.07.17.1.26s.1.11.18.05a7 7 0 0 0 1.46-1.26.22.22 0 0 0 .08-.1zm-7.23-3.29a3.89 3.89 0 0 0-.07.56v1.2c0 .28.09.33.36.27a5.55 5.55 0 0 0 1.84-.83.19.19 0 0 0 .07-.26c-.15-.37-.29-.75-.42-1.13a.21.21 0 0 0-.26-.16l-1.34.24a2 2 0 0 0-.18.11z" class="cls-3"/></g></g></svg>