<?xml version="1.0" encoding="UTF-8" standalone="no"?>
<!-- Creator: CorelDRAW 2018 (64-Bit) -->

<svg
   xml:space="preserve"
   width="54.6776mm"
   height="21.9601mm"
   version="1.1"
   style="shape-rendering:geometricPrecision; text-rendering:geometricPrecision; image-rendering:optimizeQuality; fill-rule:evenodd; clip-rule:evenodd"
   viewBox="0 0 3631.54 1458.53"
   id="svg40"
   sodipodi:docname="TeraPines.svg"
   xmlns:inkscape="http://www.inkscape.org/namespaces/inkscape"
   xmlns:sodipodi="http://sodipodi.sourceforge.net/DTD/sodipodi-0.dtd"
   xmlns="http://www.w3.org/2000/svg"
   xmlns:svg="http://www.w3.org/2000/svg"><sodipodi:namedview
   id="namedview42"
   pagecolor="#ffffff"
   bordercolor="#000000"
   borderopacity="0.25"
   inkscape:showpageshadow="2"
   inkscape:pageopacity="0.0"
   inkscape:pagecheckerboard="0"
   inkscape:deskcolor="#d1d1d1"
   inkscape:document-units="mm" />
 <defs
   id="defs4">
  <style
   type="text/css"
   id="style2">
   <![CDATA[
    .fil1 {fill:none}
    .fil2 {fill:#15499A}
    .fil4 {fill:#FEFEFE}
    .fil0 {fill:#50585D;fill-rule:nonzero}
    .fil3 {fill:#F08519;fill-rule:nonzero}
   ]]>
  </style>
 </defs>
 <g
   id="图层_x0020_1"
   inkscape:label="图层 1"
   inkscape:groupmode="layer">
  <metadata
   id="CorelCorpID_0Corel-Layer" />
  <path
   class="fil0"
   d="m 1095.13,895.75 8.46,486.77 h 64.84 l -0.76,-44.2 h 91.36 l 1.4,80.74 c 0.1,5.88 -1.18,11.09 -3.85,15.61 -2.67,4.52 -6.24,8.35 -10.71,11.5 -4.46,3.14 -9.33,5.5 -14.61,7.07 -5.28,1.57 -10.47,2.35 -15.58,2.35 h -156.8 c -5.11,0 -10.33,-0.78 -15.66,-2.35 -5.33,-1.57 -10.28,-3.93 -14.86,-7.07 -4.58,-3.15 -8.28,-6.97 -11.1,-11.5 -2.83,-4.52 -4.3,-9.72 -4.4,-15.61 l -9.09,-523.31 h 91.37 z m -165.07,-1.18 9.17,527.42 c 0.11,5.9 -1.18,11.01 -3.86,15.33 -2.67,4.32 -6.05,7.86 -10.13,10.61 -4.08,2.75 -8.76,4.72 -14.05,5.89 -5.29,1.18 -10.48,1.77 -15.59,1.77 H 712.87 l -1.27,-73.07 h 136.76 l -8.48,-487.94 h 90.19 z m 315.98,35.36 -33.69,164.42 42.61,213.33 h -91.37 l -42.61,-213.33 33.69,-164.42 z m -546.13,390.71 21.69,-210.38 h 91.36 l -22.28,210.38 H 699.9 Z m 83.95,-392.47 28.75,162.06 H 721.25 L 693.08,928.17 Z m 609.75,529.19 -7.33,-421.35 h -74.27 l -1.28,-73.07 H 1385 l -1.28,-73.66 h 92.55 l 1.28,73.66 h 76.04 l 1.27,73.07 h -76.04 l 7.33,421.35 h -92.55 z m 365,-332.96 -80.95,260.47 h 107.88 l -38.59,-151.45 86.99,-14.14 50.52,193.69 c 1.3,6.58 0.92,12.76 -1.15,18.36 -2.07,5.7 -5.13,10.41 -9.18,14.35 -4.06,3.93 -8.93,6.87 -14.59,9.03 -5.67,2.17 -11.44,3.24 -17.33,3.24 h -225.77 c -5.11,0 -10.33,-1.18 -15.69,-3.53 -5.34,-2.36 -10.01,-5.5 -14.01,-9.62 -4,-4.13 -7.03,-8.75 -9.09,-14.05 -2.06,-5.21 -2.34,-10.61 -0.87,-16.01 l 96,-309.78 85.82,19.45 z m -61.82,-232.77 -50.25,262.83 h -89.01 l 50.84,-262.83 z m 127.33,0 59.4,262.83 h -87.83 L 1735.7,891.63 Z m -314.96,565.74 -15.73,-396.01 h 53.05 l 15.14,396.01 z m -188.04,0 0.78,-396.01 h 52.46 l -1.37,396.01 z m 716.68,0 -6.27,-360.65 h -96.09 l -1.28,-73.07 h 96.09 l -0.94,-54.22 h -87.84 l -1.28,-73.08 h 265.26 l 1.28,73.08 h -86.06 l 0.94,54.22 h 93.73 l 1.27,73.07 h -93.73 l 6.27,360.65 h -91.36 z m 353.1,0.58 -2.17,-124.92 h -156.21 l -1.27,-73.08 h 156.21 l -6.44,-370.67 h 91.37 l 6.44,370.67 h 28.29 l 1.27,73.08 h -28.29 l 2.17,124.92 h -91.38 z m -233.44,-0.58 -18.13,-330.01 h 66.62 l 16.94,330.01 z m -215.16,0 6.64,-330.01 h 66.03 l -7.82,330.01 h -64.84 z m 326.61,-235.14 -34.81,-137.3 h 83.71 l 34.22,137.3 h -83.11 z m 12.36,-170.3 -35.39,-137.31 h 83.71 l 34.81,137.31 h -83.12 z m 791.28,52.44 c 4.72,0 9.54,0.79 14.48,2.36 4.94,1.57 9.5,3.83 13.68,6.78 4.18,2.94 7.68,6.67 10.51,11.19 2.83,4.52 4.29,9.53 4.38,15.03 l 1.71,98.41 c 0.21,11.78 -4.14,21.61 -13.04,29.46 l -85.97,73.07 112.84,116.1 h -116.12 l -59.46,-63.65 -62.15,53.04 c -9.29,8.25 -20.81,12.37 -34.56,12.37 h -82.53 l -11.89,-73.66 h 67.2 l 65.08,-54.02 -119.5,-126.9 h 108.46 l 72.64,75.44 68.55,-57.75 -0.76,-44.2 h -244.64 l -11.29,-73.07 h 126.15 l -1.39,-80.14 h -124.38 l -1.27,-73.08 h 124.37 l -1.07,-61.87 h 91.37 l 1.08,61.87 h 134.4 l 1.27,73.08 h -134.4 l 1.39,80.14 h 84.88 z m -511.09,101.06 54.69,-7.65 -2.68,-154.11 h -52.46 l -1.27,-73.07 h 52.46 l -1.41,-81.32 h 91.37 l 1.41,81.32 h 48.33 l 1.27,73.07 h -48.33 l 2.46,141.44 41.15,-5.9 9.5,71.9 -49.38,7.07 2.83,163.24 c 0.11,5.88 -1.18,11.09 -3.85,15.61 -2.67,4.52 -6.24,8.35 -10.71,11.5 -4.46,3.14 -9.34,5.5 -14.62,7.07 -5.27,1.57 -10.47,2.36 -15.57,2.36 h -87.25 l -1.28,-73.66 h 41.27 l -1.97,-112.95 -47.04,6.49 -8.93,-72.39 z"
   id="path7" />
  <path
   id="line9"
   class="fil1"
   style="fill:none"
   d="m 586.96002,364.85999 v 0" />
  <path
   id="line11"
   class="fil1"
   style="fill:none"
   d="m 3014.03,364.85999 v 0" />
  <path
   class="fil2"
   d="m 2169.69,216.12 h 149.19 v 197.49 l -149.19,12.35 z M 2318.88,502 V 646.5 H 2169.69 V 520.34 Z"
   id="path13" />
  <path
   class="fil2"
   d="m 534.61,215.66 v 0 c 109.41,0 198.93,89.52 198.93,198.93 v 33 c 0,5.19 -0.2,10.34 -0.6,15.44 h -111.3 -37.3 -22.74 -76.72 -37.3 v 1.77 c 0,4.52 0,-3.51 0,13.54 10.8,31.5 46.88,51.93 84.43,53.19 0.86,0.05 1.73,0.07 2.6,0.07 v 0 h 0.49 l 0.52,-0.01 h 0.02 c 27.2,0.01 54.76,-10.13 73.68,-33.48 h 117.65 c -3.4,12.87 -8.07,25.22 -13.85,36.94 L 397.35,591.23 C 359.41,554.95 335.68,503.9 335.68,447.59 v -33 c 0,-109.41 89.52,-198.93 198.93,-198.93 z m 122.32,388.51 c -33.79,26.49 -76.3,42.33 -122.32,42.33 v 0 c -26.5,0 -51.83,-5.26 -75.01,-14.78 65.7,-8.97 131.49,-18.17 197.33,-27.56 z M 584.34,391.44 h 37.3 v -0.92 -14.39 c -37.72,-80.41 -153.18,-60.94 -174.06,0 0,17.05 0,9.03 0,13.54 v 1.77 h 37.3 z"
   id="path15" />
  <path
   class="fil2"
   d="m 1376.73,215.9 h 116.17 v 180.43 l -130.38,23.19 c -1.9,-51.31 -44.44,-92.69 -96.19,-92.69 h -0.01 c -52.95,0 -96.27,43.32 -96.27,96.27 v 15.97 c 0,4.93 0.37,9.76 1.1,14.49 l -102.27,18.19 c -0.97,-7.92 -1.48,-15.99 -1.48,-24.17 v -33 c 0,-109.41 89.51,-198.93 198.92,-198.93 v 0 c 40.76,0 78.76,12.43 110.41,33.68 v -33.45 z m 116.18,263.77 v 166.61 h -116.17 v -33.45 c -31.64,21.25 -69.65,33.68 -110.41,33.68 v 0 c -75.94,0 -142.29,-43.13 -175.77,-106.11 42.02,-6.32 84.04,-12.65 126.04,-18.99 14.54,8.83 31.57,13.93 49.73,13.93 h 0.01 c 28.45,0 54.12,-12.51 71.78,-32.31 51.64,-7.8 103.23,-15.6 154.79,-23.36 z"
   id="path17" />
  <path
   class="fil2"
   d="m 2997.41,215.66 v 0 c 83.87,0 156.04,52.6 185.17,126.43 l -114.63,9.49 c -43.67,-46.67 -125.08,-32.05 -151.96,12.59 l -113.22,9.37 c 19.06,-89.89 99.28,-157.88 194.63,-157.88 z m 197.89,178.62 c 0.68,6.68 1.04,13.45 1.04,20.3 v 33 c 0,5.19 -0.21,10.34 -0.6,15.44 h -111.3 -37.29 -22.74 -76.73 -37.3 v 1.77 c 0,4.52 0,-3.51 0,13.54 10.8,31.5 46.88,51.93 84.43,53.19 0.86,0.05 1.73,0.07 2.6,0.07 v 0 h 0.49 l 0.52,-0.01 h 0.01 c 27.2,0.01 54.77,-10.13 73.69,-33.48 h 117.65 c -22.51,85.15 -100.41,148.4 -192.37,148.4 v 0 c -109.41,0 -198.93,-89.52 -198.93,-198.92 v -4.53 l 396.82,-48.77 z"
   id="path19" />
  <path
   id="polygon21"
   class="fil2"
   style="fill:#15499a"
   d="M 149.21,635.38 V 138.41 H 0 V 0 H 447.59 V 138.41 H 298.4 v 470.41 z" />
  <path
   class="fil2"
   d="M 770.61,216.13 H 919.8 v 12.91 c 22.22,-8.63 46.34,-13.38 71.51,-13.38 v 0 c 13.26,0 26.23,1.32 38.79,3.83 v 115.55 c -11.88,-5.27 -25.01,-8.22 -38.79,-8.22 v 0 c -28.31,0 -53.86,12.38 -71.51,31.99 V 498.27 L 770.61,524.81 V 216.12 Z M 919.8,565.9 v 80.61 H 770.61 V 587.8 c 49.71,-7.23 99.45,-14.54 149.19,-21.9 z"
   id="path23" />
  <path
   class="fil2"
   d="m 1691.83,0 h 149.19 v 0.02 l 1.5,-0.02 h 90.94 c 109.4,0 198.92,89.51 198.92,198.93 v 0 c 0,31.25 -7.31,60.86 -20.29,87.25 l -420.26,74.77 V 0.01 Z m 149.19,428.03 v 66.09 l -41.8,71.76 41.8,-5.13 v 85.76 H 1691.83 V 449.94 c 49.79,-7.38 99.53,-14.69 149.19,-21.9 z m 0,-322.06 v 185.92 c 7.97,2.16 16.34,3.31 24.96,3.31 H 1910 c 52.95,0 96.27,-43.32 96.27,-96.27 v -0.01 c 0,-52.95 -43.32,-96.27 -96.27,-96.27 h -44.02 c -8.62,0 -16.99,1.16 -24.96,3.31 z"
   id="path25" />
  <path
   class="fil2"
   d="m 2480.5,216.13 c 52.12,0 104.24,0 156.35,0 68.38,0 124.33,55.94 124.33,124.33 V 377 l -149.19,12.35 v -37.68 c -10.33,-7.13 -22.23,-11.2 -34.86,-11.2 h -1.37 -1.3 -1.22 -1.16 -1.08 -1.02 -0.95 -0.9 -0.84 -0.78 -0.72 -0.68 -0.62 -0.58 -0.54 -0.49 -0.45 -0.42 -0.39 -0.35 -0.33 -0.29 -0.27 -0.25 -0.23 -0.21 -0.2 -0.19 -0.17 -0.17 -0.17 -0.16 -0.16 -0.16 -0.17 -0.17 -0.19 -0.2 -0.21 -0.23 -0.25 -0.27 -0.29 -0.33 -0.35 -0.38 -0.42 -0.46 -0.48 -0.54 -0.58 -0.62 -0.67 -0.72 -0.78 -0.83 -0.89 -0.96 -1.02 -1.08 -1.16 -1.22 -1.3 -1.37 c -12.63,0 -24.52,4.07 -34.86,11.2 v 46.51 l -149.19,12.35 v -70.06 c 0,-68.38 55.95,-124.33 124.33,-124.33 z m 280.67,231.52 V 646.51 H 2611.98 V 465.98 Z m -255.81,31.44 V 646.51 H 2356.17 V 497.42 Z"
   id="path27" />
  <path
   class="fil2"
   d="m 3630.82,463.03 c -7.95,102.26 -94.11,183.48 -198.33,183.48 v 0 c -91.71,0 -169.42,-62.9 -192.17,-147.69 h 116.83 c 17.67,22.22 44.92,36.52 75.34,36.52 h 0.01 c 44.69,0 82.51,-30.85 93.23,-72.31 h -186.47 -105.09 -0.6 c 0,-24.18 -0.07,-47.28 1.36,-71.58 l 0.27,-2.06 113.77,-13.98 c -2.92,5.07 -5.39,10.44 -7.36,16.04 h 181.78 106.67 1.36 c 0,6.59 0.52,71.58 -0.6,71.58 z M 3249.64,336.54 c 30.49,-70.9 101.11,-120.88 182.85,-120.88 70.08,0 131.99,36.72 167.45,91.88 l -350.31,29 z m 368.13,5.82 c 1.71,4.36 3.29,8.79 4.7,13.29 h -112.84 z"
   id="path29" />
  <path
   id="line31"
   class="fil1"
   style="fill:none"
   d="m 3474.8201,215.66 v 0" />
  <path
   class="fil3"
   d="m 2244.28,24.86 c 41.88,0 75.84,33.95 75.84,75.84 0,41.89 -33.95,75.84 -75.84,75.84 -41.89,0 -75.84,-33.95 -75.84,-75.84 0,-41.88 33.95,-75.84 75.84,-75.84 z"
   id="path33" />
  <path
   class="fil4"
   d="m 2293.84,108.07 c -1.99,23.6 -23.52,42.35 -49.57,42.35 v 0 c -22.92,0 -42.34,-14.52 -48.03,-34.09 h 29.2 c 4.42,5.13 11.22,8.43 18.83,8.43 v 0 c 11.17,0 20.62,-7.12 23.31,-16.69 h -46.61 -26.27 -0.15 c 0,-5.59 -0.02,-10.91 0.34,-16.52 2.89,-22.77 23.99,-40.58 49.37,-40.58 22.22,0 41.17,13.65 47.48,32.32 h -30.35 c -4.37,-4.1 -10.44,-6.66 -17.13,-6.66 v 0 c -10.47,0 -19.42,6.25 -22.71,14.92 h 45.43 26.66 0.35 c 0,1.52 0.13,16.52 -0.15,16.52 z"
   id="path35" />
  <path
   id="polygon37"
   class="fil3"
   style="fill:#f08519;fill-rule:nonzero"
   d="M 1994.27,458.64 3615.65,324.39 1833.18,543.47 1917.5,398.72 144.96,654.5 2082.4,309.83 Z" />
 </g>
</svg>
