<?xml version="1.0" encoding="UTF-8"?>
<!DOCTYPE svg PUBLIC "-//W3C//DTD SVG 1.1//EN" "http://www.w3.org/Graphics/SVG/1.1/DTD/svg11.dtd">
<!-- Creator: CorelDRAW 2018 (64-Bit) -->
<svg xmlns="http://www.w3.org/2000/svg" xml:space="preserve" width="256.982mm" height="26.5079mm" version="1.1" style="shape-rendering:geometricPrecision; text-rendering:geometricPrecision; image-rendering:optimizeQuality; fill-rule:evenodd; clip-rule:evenodd"
viewBox="0 0 24713.46 2549.21"
 xmlns:xlink="http://www.w3.org/1999/xlink">
 <defs>
  <style type="text/css">
   <![CDATA[
    .fil4 {fill:#FEFEFE}
    .fil2 {fill:#15499A}
    .fil1 {fill:#2F318B}
    .fil3 {fill:#F08519;fill-rule:nonzero}
    .fil0 {fill:#50585D;fill-rule:nonzero}
   ]]>
  </style>
 </defs>
 <g id="图层_x0020_1">
  <metadata id="CorelCorpID_0Corel-Layer"/>
  <path class="fil0" d="M16783.44 340.37l32.96 1895.9 252.56 0 -2.97 -172.16 355.85 0 5.46 314.49c0.38,22.92 -4.61,43.2 -15,60.79 -10.41,17.62 -24.32,32.52 -41.71,44.79 -17.38,12.23 -36.34,21.42 -56.91,27.55 -20.56,6.1 -40.79,9.16 -60.68,9.16l-610.74 0c-19.89,0 -40.23,-3.06 -61,-9.16 -20.77,-6.14 -40.04,-15.32 -57.86,-27.55 -17.83,-12.26 -32.24,-27.17 -43.26,-44.79 -11.02,-17.59 -16.73,-37.87 -17.15,-60.79l-35.42 -2038.23 355.88 0zm-642.94 -4.58l35.7 2054.24c0.41,22.97 -4.61,42.86 -15.03,59.7 -10.4,16.82 -23.57,30.61 -39.45,41.31 -15.89,10.71 -34.12,18.37 -54.72,22.95 -20.59,4.61 -40.81,6.89 -60.74,6.89l-711.73 0 -4.94 -284.61 532.67 0 -33.03 -1900.48 351.27 0zm1230.71 137.72l-131.21 640.38 165.98 830.88 -355.88 0 -165.98 -830.88 131.21 -640.38 355.88 0zm-2127.12 1521.76l84.48 -819.4 355.85 0 -86.76 819.4 -353.57 0zm326.98 -1528.65l111.99 631.21 -355.85 0 -109.71 -631.21 353.57 0zm2374.91 2061.16l-28.53 -1641.12 -289.26 0 -4.96 -284.61 289.28 0 -4.99 -286.91 360.49 0 4.99 286.91 296.18 0 4.93 284.61 -296.17 0 28.53 1641.12 -360.49 0zm1421.63 -1296.83l-315.3 1014.5 420.17 0 -150.3 -589.89 338.83 -55.08 196.79 754.39c5.04,25.64 3.57,49.7 -4.48,71.5 -8.04,22.2 -19.96,40.56 -35.75,55.88 -15.81,15.28 -34.76,26.77 -56.81,35.18 -22.07,8.43 -44.54,12.63 -67.52,12.63l-879.34 0c-19.89,0 -40.25,-4.58 -61.1,-13.76 -20.8,-9.18 -38.99,-21.43 -54.58,-37.49 -15.6,-16.09 -27.37,-34.07 -35.39,-54.71 -8.02,-20.28 -9.14,-41.31 -3.39,-62.35l373.9 -1206.55 334.26 75.74zm-240.79 -906.62l-195.72 1023.68 -346.67 0 198 -1023.68 344.39 0zm495.94 0l231.34 1023.68 -342.09 0 -233.65 -1023.68 344.4 0zm-1226.76 2203.46l-61.26 -1542.43 206.65 0 58.95 1542.43 -204.34 0zm-732.4 0l3.02 -1542.43 204.34 0 -5.33 1542.43 -202.03 0zm2791.4 0l-24.42 -1404.71 -374.25 0 -4.96 -284.61 374.27 0 -3.67 -211.17 -342.12 0 -4.96 -284.64 1033.18 0 4.96 284.64 -335.21 0 3.67 211.17 365.06 0 4.94 284.61 -365.06 0 24.43 1404.71 -355.86 0zm1375.3 2.28l-8.46 -486.57 -608.41 0 -4.94 -284.64 608.41 0 -25.09 -1443.71 355.88 0 25.09 1443.71 110.21 0 4.93 284.64 -110.17 0 8.45 486.57 -355.9 0zm-909.21 -2.28l-70.6 -1285.37 259.46 0 65.96 1285.37 -254.83 0zm-838.03 0l25.84 -1285.37 257.16 0 -30.48 1285.37 -252.53 0zm1272.1 -915.84l-135.58 -534.79 326.03 0 133.27 534.79 -323.72 0zm48.14 -663.3l-137.86 -534.82 326.03 0 135.58 534.82 -323.75 0zm3081.97 204.26c18.37,0 37.17,3.08 56.39,9.18 19.24,6.13 37,14.93 53.27,26.41 16.27,11.46 29.93,25.99 40.95,43.59 11.02,17.59 16.7,37.12 17.07,58.54l6.67 383.3c0.81,45.89 -16.14,84.16 -50.81,114.76l-334.85 284.61 439.49 452.19 -452.29 0 -231.61 -247.9 -242.07 206.59c-36.2,32.13 -81.05,48.19 -134.63,48.19l-321.45 0 -46.3 -286.91 261.74 0 253.47 -210.4 -465.46 -494.27 422.44 0 282.94 293.82 266.99 -224.94 -2.98 -172.15 -952.82 0 -43.98 -284.61 491.35 0 -5.43 -312.14 -484.45 0 -4.94 -284.63 484.43 0 -4.16 -241 355.87 0 4.19 241 523.46 0 4.94 284.63 -523.46 0 5.43 312.14 330.61 0zm-1990.67 393.62l213.03 -29.8 -10.45 -600.23 -204.34 0 -4.93 -284.61 204.34 0 -5.51 -316.74 355.88 0 5.51 316.74 188.27 0 4.94 284.61 -188.28 0 9.6 550.88 160.31 -22.97 37 280.03 -192.36 27.55 11.05 635.8c0.41,22.92 -4.61,43.2 -15,60.79 -10.41,17.6 -24.32,32.52 -41.71,44.79 -17.38,12.23 -36.37,21.42 -56.93,27.52 -20.54,6.13 -40.78,9.18 -60.66,9.18l-339.82 0 -4.99 -286.92 160.73 0 -7.65 -439.92 -183.23 25.27 -34.77 -281.97z"/>
  <g id="_1968044793744">
   <line class="fil1" x1="2286.12" y1="1421.08" x2="2286.12" y2= "1421.08" />
   <line class="fil1" x1="11739.32" y1="1421.08" x2="11739.32" y2= "1421.08" />
   <g>
    <path class="fil2" d="M8450.71 841.79l581.1 0 0 769.18 -581.1 48.1 0 -817.28zm581.1 1113.49l0 562.81 -581.1 0 0 -491.4 581.1 -71.41z"/>
    <path class="fil2" d="M2082.28 839.99l0 0c426.13,0 774.8,348.66 774.8,774.8l0 128.52c0,20.23 -0.79,40.29 -2.35,60.16l-433.49 0 -145.27 0 -88.57 0 -298.82 0 -145.28 0 0 6.9c0,17.58 0,-13.67 0,52.74 42.06,122.71 182.59,202.25 328.85,207.16 3.35,0.17 6.73,0.26 10.14,0.26l0 0 1.91 -0.01 2.04 -0.03 0.06 0c105.94,0.06 213.31,-39.45 287.01,-130.38l458.24 0c-13.24,50.09 -31.44,98.22 -53.97,143.86l-1229.92 218.8c-147.79,-141.3 -240.17,-340.12 -240.17,-559.47l0 -128.52c0,-426.14 348.66,-774.8 774.8,-774.8zm476.41 1513.2c-131.62,103.2 -297.16,164.9 -476.41,164.9l0 0c-103.23,0 -201.88,-20.5 -292.16,-57.58 255.89,-34.93 512.12,-70.76 768.56,-107.32zm-282.71 -828.54l-387.39 0 -145.28 0 0 -6.9c0,-17.57 0,13.68 0,-52.74 81.34,-237.33 531.05,-313.18 677.95,0l0 56.08 0 3.57 -145.27 0z"/>
    <path class="fil2" d="M5362.24 840.89l452.47 0 0 702.77 -507.81 90.34c-7.4,-199.85 -173.09,-361.02 -374.67,-361.02l-0.01 0c-206.23,0 -374.96,168.73 -374.96,374.96l0 62.21c0,19.19 1.47,38.03 4.29,56.45l-398.34 70.87c-3.78,-30.88 -5.78,-62.3 -5.78,-94.16l0 -128.52c0,-426.14 348.64,-774.8 774.79,-774.8l0 0c158.76,0 306.77,48.43 430.02,131.19l0 -130.29zm452.47 1027.38l0 648.92 -452.47 0 0 -130.3c-123.26,82.78 -271.26,131.19 -430.02,131.19l0 0c-295.78,0 -554.21,-168.01 -684.63,-413.27 163.67,-24.61 327.33,-49.27 490.93,-73.98 56.62,34.41 122.96,54.27 193.7,54.27l0.01 0c110.83,0 210.81,-48.75 279.61,-125.83 201.12,-30.42 402.08,-60.78 602.88,-91z"/>
    <path class="fil2" d="M11674.59 839.99l0 0c326.64,0 607.76,204.87 721.22,492.46l-446.46 36.96c-170.09,-181.8 -487.21,-124.83 -591.87,49.02l-440.96 36.51c74.21,-350.11 386.69,-614.94 758.06,-614.94zm770.76 695.73c2.67,26.01 4.04,52.38 4.04,79.07l0 128.52c0,20.23 -0.79,40.29 -2.34,60.16l-433.5 0 -145.26 0 -88.58 0 -298.81 0 -145.28 0 0 6.9c0,17.58 0,-13.67 0,52.74 42.05,122.71 182.59,202.25 328.84,207.16 3.35,0.17 6.73,0.26 10.14,0.26l0 0 1.91 -0.01 2.04 -0.03 0.06 0c105.95,0.06 213.31,-39.45 287.01,-130.38l458.24 0c-87.67,331.62 -391.08,577.98 -749.26,577.98l0 0c-426.14,0 -774.8,-348.66 -774.8,-774.79l0 -17.63 1545.55 -189.96z"/>
    <polygon class="fil2" points="1162.21,539.13 1162.21,2371.34 581.1,2474.72 581.1,539.13 0.01,539.13 0.01,0.01 1743.29,0.01 1743.29,539.13 "/>
    <path class="fil2" d="M3001.44 841.81l581.09 0 0 50.28c86.54,-33.62 180.5,-52.09 278.54,-52.09l0 0c51.66,0 102.18,5.16 151.08,14.93l0 450.07c-46.28,-20.54 -97.4,-32 -151.08,-32l-0.01 0c-110.26,0 -209.77,48.24 -278.53,124.63l0 543.16 -581.09 103.37 0 -1202.33zm581.09 1362.31l0 313.98 -581.09 0 0 -228.65c193.63,-28.16 387.35,-56.62 581.09,-85.33z"/>
    <path class="fil2" d="M6589.48 0l581.1 0 0 0.09 5.86 -0.09 354.21 0c426.12,0 774.8,348.66 774.8,774.82l0 0c0,121.7 -28.48,237.05 -79.04,339.81l-1636.92 291.2 0 -1405.82zm581.1 1667.16l0 257.39 -162.81 279.49 162.81 -20.01 0 334.06 -581.1 0 0 -765.62c193.96,-28.74 387.68,-57.22 581.1,-85.31zm0 -1254.43c31.04,-8.4 63.64,-12.9 97.23,-12.9l171.44 0c206.24,0 374.96,168.74 374.96,374.96l0 0.03c0,206.21 -168.72,374.95 -374.96,374.95l-171.44 0c-33.58,0 -66.18,-4.5 -97.23,-12.9l0 -724.14z"/>
    <path class="fil2" d="M9661.33 841.81c202.98,0 405.97,0 608.95,0 266.34,0 484.24,217.91 484.24,484.24l0 142.29 -581.09 48.11 0 -146.76c-40.27,-27.76 -86.58,-43.64 -135.75,-43.64l-5.36 0 -5.04 0 -4.76 0 -4.49 0 -4.21 0 -3.96 0 -3.71 0 -3.48 0 -3.25 0 -3.03 0 -2.82 0 -2.64 0 -2.43 0 -2.24 0 -2.09 0 -1.91 0 -1.77 0 -1.63 0 -1.49 0 -1.37 0 -1.25 0 -1.13 0 -1.07 0 -0.96 0 -0.89 0 -0.82 0 -0.76 0 -0.74 0 -0.67 0 -0.64 0 -0.64 0 -0.63 0 -0.62 0 -0.63 0 -0.66 0 -0.67 0 -0.72 0 -0.77 0 -0.82 0 -0.89 0 -0.98 0 -1.04 0 -1.14 0 -1.25 0 -1.37 0 -1.5 0 -1.61 0 -1.79 0 -1.9 0 -2.09 0 -2.25 0 -2.42 0 -2.64 0 -2.82 0 -3.03 0 -3.24 0 -3.48 0 -3.72 0 -3.95 0 -4.23 0 -4.48 0 -4.74 0 -5.05 0 -5.35 0c-49.19,0 -95.5,15.85 -135.75,43.62l0 181.16 -581.1 48.11 0 -272.9c0,-266.34 217.91,-484.24 484.24,-484.24zm1093.2 901.73l0 774.56 -581.09 0 0 -703.13 581.09 -71.42zm-996.34 122.46l0 652.1 -581.1 0 0 -580.67 581.1 -71.42z"/>
    <path class="fil2" d="M14141.66 1803.47c-30.97,398.31 -366.57,714.62 -772.47,714.62l0 0c-357.21,0 -659.91,-244.99 -748.51,-575.22l455.06 0c68.85,86.51 174.97,142.23 293.46,142.23l0.02 0c174.04,0 321.37,-120.18 363.12,-281.64l-726.27 0 -409.32 0 -2.35 0c0,-94.2 -0.26,-184.13 5.32,-278.82l1.04 -8.02 443.11 -54.47c-11.38,19.78 -21.01,40.68 -28.66,62.49l707.99 0 415.49 0 5.3 0c0,25.66 2.03,278.82 -2.33,278.82zm-1484.67 -492.65c118.75,-276.16 393.82,-470.83 712.2,-470.83 272.94,0 514.08,143.04 652.21,357.86l-1364.41 112.97zm1433.82 22.67c6.67,16.98 12.79,34.24 18.27,51.76l-439.47 0 421.2 -51.76z"/>
   </g>
   <line class="fil1" x1="13534.08" y1="839.99" x2="13534.08" y2= "839.99" />
   <circle class="fil3" cx="8741.26" cy="392.24" r="295.39"/>
   <path class="fil4" d="M8934.26 420.97c-7.74,91.95 -91.62,164.98 -193.06,164.98l0 0c-89.27,0 -164.93,-56.56 -187.08,-132.8l113.74 0c17.2,19.97 43.72,32.84 73.34,32.84l0 0c43.5,0 80.32,-27.74 90.75,-65.02l-181.51 0 -102.3 0 -0.58 0c0,-21.74 -0.08,-42.51 1.32,-64.37 11.25,-88.67 93.43,-158.05 192.32,-158.05 86.55,0 160.31,53.15 184.91,125.87l-118.21 0c-17.02,-15.97 -40.66,-25.92 -66.7,-25.92l0 0c-40.77,0 -75.66,24.36 -88.47,58.1l176.94 0 103.84 0 1.33 0c0,5.92 0.51,64.37 -0.58,64.37z"/>
   <polygon class="fil3" points="564.59,2549.21 8110.75,1206.76 7767.43,1786.35 14082.58,1263.49 7140.01,2116.78 7468.42,1552.99 "/>
  </g>
 </g>
</svg>
