<svg width="325" height="144" fill="none" xmlns="http://www.w3.org/2000/svg"><path d="M69.8 69.8V48H48c0 12 9.8 21.8 21.8 21.8ZM96 96V74.2H74.2c0 12 9.7 21.8 21.8 21.8ZM69.8 74.2H48V96h21.8V74.2ZM85 69.8A10.9 10.9 0 1 0 85 48a10.9 10.9 0 0 0 0 21.8Zm40.4-9.8H120v24h18v-4.7h-12.7V60ZM149 74h12.3v-4.4H149v-5.1h12.8V60h-18v24H162v-4.5h-13V74Zm35.8 4.4c-2.6 1.8-7.2 1.7-9.3-1a9.3 9.3 0 0 1 0-11c2.8-3.6 10.3-2.5 11 2.5h5.4c-.4-8.2-10.2-11.6-17-8.6-7.4 3.4-8.7 14.1-3.8 20.2 5.9 7.4 20.3 4.6 21.1-5.5H187a5 5 0 0 1-2.1 3.4ZM204.5 60l-7.9 24h5.4l1.9-6h10l2 6h5.6l-8.3-24h-8.7Zm.8 13.6 3-9.2h1.2l3 9.2h-7.2Zm40.6-.8a8.2 8.2 0 0 0 1.2-5c.2-5.5-4.7-8.1-9.8-8H228V84h5.4v-7.7h3.9l5.2 7.7h6.3l-6.1-8.6a7.2 7.2 0 0 0 3.3-2.6Zm-8.2-.7h-4.4v-7.7h4.4c2.3-.1 4 1.6 4 3.8 0 2.3-1.7 4-4 3.9Zm34 2.9c-.6 4.2-5.8 5.5-9.2 4-2.8-1.1-4-4.1-4-7 0-3 1.1-6 3.9-7.1 3.3-1.5 8.4 0 9 4h5.4c-.5-8.2-10.3-11.6-17-8.5-7.4 3.4-8.7 14-3.8 20.1 5.9 7.4 20.3 4.6 21.1-5.5h-5.4Z" fill="#00BC6B"/></svg>