<svg xmlns="http://www.w3.org/2000/svg" role="img" viewBox="-7.36 -7.36 382.72 100.97"><g><path fill="#100f0d" d="M776.727 498.328v-177c0-18.769-9.547-21.711-18.758-24.648v-6.258h81.699v6.258c-9.199 2.937-18.781 5.879-18.781 24.648v177c0 10.676 3.324 13.242 17.297 13.242 38.269 0 57.039-.73 70.656-22.066l4.773 2.926-15.437 45.265H699.082l-15.449-45.265 4.785-2.926c16.562 20.965 29.441 22.066 71.016 22.066 13.984 0 17.293-2.566 17.293-13.242" transform="matrix(.13333 0 0 -.13333 0 86.36)"/><path fill="#100f0d" d="M869.836 472.938c12.129-3.309 18.394-6.25 18.394-24.645V321.328c0-18.769-6.265-21.711-18.394-24.648v-6.258h154.174l17.67 44.156-4.8 3.313c-15.44-20.227-31.64-25.032-52.985-25.032h-39.747c-12.507 0-15.437.383-15.437 12.524v52.984h48.191c18.782 0 21.711-4.414 24.668-15.445h7.36v52.984h-7.36c-2.957-11.043-5.886-15.828-24.668-15.828h-48.191v44.52c0 9.203 2.93 12.148 15.437 12.148h33.868c21.711 0 33.114-5.516 49.674-23.183l4.78 3.312-15.45 42.324H869.836v-6.261" transform="matrix(.13333 0 0 -.13333 0 86.36)"/><path fill="#100f0d" d="M1314.7 446.453l30.21-82.43h-61.64zm-246.54 4.777l47.12-66.621-44.55-63.281c-13.6-19.133-21.71-21.711-34.22-24.648v-6.258h71.4v6.258c-13.62 2.578-19.52 7.734-10.3 22.082l31.19 48.765 32.84-47.293c12.13-17.296-.75-22.089-11.79-23.554v-6.258h129.14v6.258c-12.87 2.199-18.76 6.621-12.13 24.289l8.41 22.078h77.33l8.09-22.078c5.15-14.36 3.31-22.09-11.78-24.289v-6.258h79.49v6.258c-9.2 2.937-17.67 10.672-21.71 21.336l-61.46 161.183h-41.95l-58.88-150.144c-6.28-15.598-11.98-22.934-18.21-27.16-4.86 3.066-9.33 7.753-15.26 16.121l-51.75 73.371 41.83 59.101c11.03 15.821 20.23 19.141 31.27 22.45v6.261h-67.35v-6.261c13.99-1.102 18.05-8.829 9.94-20.973l-29.19-43.254-26.36 39.582c-11.05 16.187-2.95 22.809 9.2 24.645v6.261h-89.42v-6.261c12.49-3.309 18.75-6.993 29.06-21.708M1445.68 290.422c0 2.945 2.96 9.195 6.62 9.195 8.46-4.043 22.83-12.508 49.31-12.508 44.53 0 75.82 22.09 75.82 59.61 0 35.332-19.52 49.676-57.05 58.144l-34.23 7.735c-19.5 4.406-25.75 9.929-25.75 22.07 0 13.992 11.04 23.184 35.33 23.184 27.22 0 48.57-12.891 64.02-30.539l4.79 3.312-13.99 48.574h-8.83c0-4.043-1.83-8.469-5.51-8.469-8.11 4.426-20.61 11.411-41.95 11.411-38.27 0-68.08-19.875-68.08-55.942 0-27.597 16.55-44.883 52.62-52.976l32.39-7.375c21.71-4.785 29.42-12.5 29.42-26.121 0-18.758-15.07-28.704-39.73-28.704-34.6 0-56.67 18.032-74.7 39.004l-4.78-3.308 15.07-56.297h9.21M756.172 244.348c11.406-3.325 20.594-6.262 20.594-24.66V34.2188c0-18.7696-9.188-21.6993-20.594-24.64849v-6.25h85.383v6.25C830.137 12.5195 820.93 15.4492 820.93 34.2188V219.688c0 18.398 9.207 21.335 20.625 24.66v6.25h-85.383v-6.25M990.555 185.84c11.045-3.32 17.305-6.25 17.305-24.649V83.9063h-1.1L911.816 192.09h-55.554v-6.25c11.035-4.785 18.386-8.477 18.386-24.649V34.2188c0-17.6563-6.261-21.6993-18.386-24.64849v-6.25h62.926v6.25c-9.95 2.94919-19.508 6.99219-19.508 24.64849V143.887h1.113L1026.26.74219h6.61V161.191c0 18.399 9.21 21.329 16.57 24.649v6.25h-58.885v-6.25M1155.04 117.754l-34.21 7.734c-19.51 4.414-25.77 9.922-25.77 22.071 0 13.984 11.04 23.183 35.33 23.183 27.24 0 48.56-12.871 64.03-30.527l4.79 3.301-13.99 48.574h-8.83c0-4.043-1.84-8.457-5.52-8.457-8.1 4.414-20.6 11.406-41.94 11.406-38.28 0-68.09-19.883-68.09-55.937 0-27.598 16.56-44.8832 52.63-52.9887l32.37-7.3633c21.73-4.7852 29.44-12.5 29.44-26.1328 0-18.75-15.08-28.6914-39.73-28.6914-34.59 0-56.67 18.0273-74.71 39.0039l-4.78-3.3008 15.09-56.30859h9.2c0 2.94922 2.93 9.19919 6.61 9.19919C1095.44 8.47656 1109.78 0 1136.29 0c44.51 0 75.8 22.0898 75.8 59.6289 0 35.3125-19.51 49.6681-57.05 58.1251M1223.12 192.09l-15.09-48.574 4.77-3.301c20.25 26.855 25.78 29.433 52.63 29.433 9.2 0 12.15-.742 12.15-12.148V34.2188c0-18.7696-5.52-21.6993-20.61-24.64849v-6.25h80.96v6.25c-14.72 2.94919-20.63 5.87889-20.63 24.64849V157.5c0 11.406 2.96 12.148 12.16 12.148 26.86 0 33.85-2.578 54.08-29.433l4.8 3.301-15.08 48.574h-150.14M1483.65 103.418h-32.4v50.039c0 12.129 2.96 15.449 12.16 15.449h20.97c22.81 0 36.05-8.828 36.05-30.918 0-23.164-15.07-34.57-36.78-34.57zm67.34-44.1602c-11.42 18.3985-23.2 26.4844-36.81 29.8047v1.0938c32.38 5.1562 50.77 22.0897 50.77 49.6877 0 36.797-29.42 52.246-76.9 52.246h-96.77v-6.25c12.15-3.32 18.4-6.25 18.4-24.649V34.2188c0-18.7696-6.25-21.6993-18.4-24.64849v-6.25h79.11v6.25c-11.41 2.94919-19.14 5.87889-19.14 24.64849v47.1093h19.51c22.81 0 26.13-9.1992 40.85-40.0976C1523.75 15.8203 1539.95 0 1570.49 0c15.45 0 21.71 2.94922 27.96 6.26953v5.15627c-24.65 3.6719-32.77 23.9062-47.46 47.832M1718.41 185.84c9.55-2.207 18.76-6.25 18.76-24.649V68.0859c0-30.8984-11.78-44.5312-46.74-44.5312-37.16 0-50.42 13.6328-50.42 44.5312v93.1051c0 18.399 7 22.442 18.4 24.649v6.25h-77.26v-6.25c11.4-1.836 18.75-6.25 18.75-24.649V65.1367C1599.9 14.7266 1643.7 0 1684.91 0c46 0 78.76 15.4492 78.76 68.0859v93.1051c0 18.399 5.52 22.071 16.93 24.649v6.25h-62.19v-6.25M1914.16 69.5508L1859.7 192.09H1792v-6.25c12.14-3.32 18.39-6.25 18.39-24.649V34.2188c0-16.543-6.99-20.9571-18.39-24.64849v-6.25h59.97v6.25c-12.51 3.32029-18.02 8.10549-18.02 24.64849V152.715L1902.01.3711h5.17l66.23 152.3439V34.2188c0-18.7696-8.11-22.0704-17.3-24.64849v-6.25h77.28v6.25c-12.15 2.94919-18.41 5.87889-18.41 24.64849V161.191c0 18.399 6.26 21.329 18.41 24.649v6.25h-66.6l-52.63-122.5392M2162.19 25.7617h-39.75c-12.52 0-15.46.3711-15.46 12.5196V91.25h48.21c18.77 0 21.7-4.3945 24.64-15.4297h7.37v52.9687h-7.37c-2.94-11.035-5.87-15.82-24.64-15.82h-48.21V157.5c0 9.199 2.94 12.148 15.46 12.148h33.86c21.69 0 33.09-5.527 49.67-23.183l4.78 3.301-15.47 42.324H2048.1v-6.25c12.13-3.32 18.41-6.25 18.41-24.649V34.2188c0-18.7696-6.28-21.6993-18.41-24.64849v-6.25h154.18l17.66 44.16019-4.77 3.3203c-15.46-20.2539-31.64-25.0391-52.98-25.0391M2358.69 185.84c11.04-3.32 17.29-6.25 17.29-24.649V83.9063h-1.12L2279.92 192.09h-55.56v-6.25c11.03-4.785 18.41-8.477 18.41-24.649V34.2188c0-17.6563-6.26-21.6993-18.41-24.64849v-6.25h62.92v6.25c-9.94 2.94919-19.51 6.99219-19.51 24.64849V143.887h1.1L2394.36.74219h6.64V161.191c0 18.399 9.2 21.329 16.55 24.649v6.25h-58.86v-6.25M2434.85 192.09l-15.1-48.574 4.77-3.301c20.25 26.855 25.78 29.433 52.64 29.433 9.2 0 12.14-.742 12.14-12.148V34.2188c0-18.7696-5.53-21.6993-20.6-24.64849v-6.25h80.97v6.25c-14.74 2.94919-20.63 5.87889-20.63 24.64849V157.5c0 11.406 2.95 12.148 12.14 12.148 26.87 0 33.87-2.578 54.1-29.433l4.78 3.301-15.08 48.574h-150.13M2704.21 117.754l-34.22 7.734c-19.51 4.414-25.77 9.922-25.77 22.071 0 13.984 11.03 23.183 35.32 23.183 27.22 0 48.57-12.871 64.03-30.527l4.79 3.301-14 48.574h-8.81c0-4.043-1.87-8.457-5.54-8.457-8.1 4.414-20.6 11.406-41.95 11.406-38.27 0-68.05-19.883-68.05-55.937 0-27.598 16.54-44.8832 52.61-52.9887L2695 78.75c21.7-4.7852 29.44-12.5 29.44-26.1328 0-18.75-15.08-28.6914-39.74-28.6914-34.6 0-56.68 18.0273-74.69 39.0039l-4.81-3.3008 15.08-56.30859h9.21c0 2.94922 2.95 9.19919 6.61 9.19919C2644.57 8.47656 2658.94 0 2685.42 0c44.52 0 75.82 22.0898 75.82 59.6289 0 35.3125-19.52 49.6681-57.03 58.1251" transform="matrix(.13333 0 0 -.13333 0 86.36)"/><path fill="#cd1e25" d="M439.238 615.449h-56.183l-10.75-54.23h56.179zm-63.828-323.41l48.738 245.734h-56.179l-48.723-245.734zm189.121 173.422v72.312H448.574l-14.601-72.96h41.711l-13.379-67.047h-41.719l-14.465-72.676c-1.113-4.934-1.933-8.488-2.461-11.914-3.406-22.231 6.32-21.137 37.52-21.137l-14.266-71.473h-54.578c-51.606 0-93.574.547-82.668 53.289 1.711 8.243 3.789 16.235 5.273 24.106l19.5 99.805h-40.105l13.406 67.047h40.09l14.617 72.96h-37.527v109.961H166.094V423.992H0c4.10156-58.008 55.457-66.433 74.1602-107.652 12.8789-28.402 24.1601-78.324 61.8088-78.781 28.844-.352 28.844 37.293 65.945 37.293 37.078 0 53.555-70.438 86.524-128.426 24.726-45.586 65.8-76.1135 103.015-78.6916 30.539-2.1289 45.324 8.2617 45.324 8.2617-8.242 16.582-12.363 33.1249-12.363 57.9879 0 37.305 28.84 74.532 61.805 99.403 45.324 33.207 94.777 45.636 111.261 49.726v116.02s-32.949 17.644-32.949 66.328" transform="matrix(.13333 0 0 -.13333 0 86.36)"/></g></svg>