<svg xmlns="http://www.w3.org/2000/svg" role="img" viewBox="14.47 24.47 391.56 352.81"><path d="M139.5 33.1C95.3 37.4 60 65.8 48.4 106.6c-1.3 4.5-1.8 11.5-2.1 29.6l-.5 23.8H22v210h255v-29.3l-.1-29.2-2.7 3.2c-1.5 1.7-5.8 6.8-9.6 11.2-3.8 4.5-7.2 8.1-7.6 8.1-.4 0-17.9-18.3-39-40.8-23.5-25-39-42.2-40.1-44.7-5.6-12.2 2.7-27.5 16.9-31.5 5.4-1.5 14.2-1.2 19.8.6 4.3 1.4 7.2 4 22.9 20.1l18.1 18.5 10.7-12.4 10.6-12.3.1-35.8V160h-22.8l-.4-23.3c-.5-21.5-.7-23.8-3.2-32-11.5-38-43.5-65.1-84.3-71.2-10.5-1.6-14.4-1.7-26.8-.4zm24.3 44.4c18.3 4.3 34.4 18.3 41.2 36 2.1 5.4 2.4 8 2.8 26.2l.4 20.3H91v-16.8c0-18.6 1.3-26.9 5.6-35.5 6.9-14.2 21.3-25.8 37.5-30.1 7.1-1.9 21.8-2 29.7-.1zm-12.3 152.6c8 2.2 14.4 9.8 14.5 17.2 0 4.3-2.7 9.9-6.4 13.2l-3.3 3L161 288c2.7 13.5 4.8 24.6 4.7 24.6-.8.7-38.7 1.5-38.6.8 0-.5 2.2-11.9 4.8-25.4l4.8-24.5-3-2.4c-3.5-2.9-6.7-9.3-6.7-13.6 0-3.9 3.1-10.4 6.3-13.3 2.6-2.5 8.8-5.1 12.2-5.2 1.1 0 3.8.5 6 1.1z"/><path d="M368 140.2c-3.6 1.9-14.5 13.8-55.8 61.3-28.3 32.4-52.6 60.5-54.1 62.3l-2.7 3.2-18.9-20.1c-20.8-22.2-23.1-23.8-32.9-23.9-7.2 0-14.6 3.6-17.8 8.9-3.1 5-3 11.9.4 16.3 1.4 1.8 17.5 19.3 35.8 38.8 18.3 19.5 33.5 35.8 33.9 36.3 1.1 1.1 139.2-158.5 141.4-163.3 2.3-5.2 1.4-10.1-2.7-14.8-6.3-7.2-17.9-9.4-26.6-5z"/></svg>