<svg xmlns="http://www.w3.org/2000/svg" role="img" viewBox="-7.99 -7.99 415.74 206.74"><g fill-rule="evenodd" stroke="none"><path fill="#5c5c5c" d="M7.443 112.214c0 13.486.065 20.42.191 20.42.112 0 .19.668.19 1.622 0 .954.079 1.622.191 1.622.105 0 .191.429.191.954 0 .525.086.954.191.954.105 0 .191.387.191.859s.086.859.191.859c.105 0 .19.257.19.572 0 .315.086.573.191.573.105 0 .191.257.191.572 0 .315.086.573.191.573.105 0 .191.172.191.382 0 .209.124.381.275.381.175 0 .248.143.2.391-.043.223.044.437.202.498.152.058.277.269.277.468 0 .198.086.361.191.361.105 0 .191.172.191.381 0 .21.086.382.191.382.105 0 .19.153.19.34 0 .186.172.463.382.614.21.152.382.384.382.517 0 .286.4.8 1.383 1.779.394.392.716.77.716.84 0 .208.921 1.063 1.145 1.063.216 0 1.145.851 1.145 1.05 0 .196 1.038 1.037 1.288 1.043.131.003.239.092.239.197 0 .105.129.191.286.191.157 0 .286.086.286.191 0 .105.172.19.382.19.21 0 .382.086.382.191 0 .105.152.191.339.191.187 0 .464.172.615.382.151.21.428.381.614.381.187 0 .34.086.34.191 0 .105.172.191.382.191.21 0 .381.086.381.191 0 .105.301.191.668.191.368 0 .668.086.668.191 0 .105.163.191.362.191.198 0 .41.128.471.286.06.157.322.286.581.286.26 0 .525.086.59.191.065.105.323.191.573.191.25 0 .507.086.572.191.065.105.457.19.87.19.414 0 .752.086.752.191 0 .105.344.191.764.191.419 0 .763.086.763.191 0 .108.541.191 1.24.191.7 0 1.241.083 1.241.191 0 .116.859.19 2.195.19 1.335 0 2.194.075 2.194.191 0 .121 1.364.191 3.71.191 2.268 0 3.756-.074 3.828-.191.066-.106.953-.191 2.004-.191 1.052 0 1.938-.084 2.004-.19.065-.105.628-.191 1.252-.191.628 0 1.134-.085 1.134-.191 0-.105.424-.191.942-.191.519 0 .996-.086 1.061-.191.065-.105.371-.191.68-.191.308 0 .561-.085.561-.19s.295-.191.656-.191c.362 0 .71-.086.775-.191.065-.105.285-.191.488-.191.204 0 .371-.129.371-.286 0-.2.201-.286.668-.286.367 0 .668-.086.668-.191 0-.105.172-.191.381-.191.21 0 .382-.086.382-.191 0-.105.172-.191.382-.191.21 0 .381-.086.381-.191 0-.105.172-.191.382-.191.21 0 .382-.085.382-.19s.215-.191.477-.191.477-.086.477-.191c0-.105.113-.191.25-.191.138 0 .435-.172.66-.382.226-.209.502-.381.615-.381.113 0 .498-.279.856-.62.837-.797 1.203-1.098 1.335-1.098.249 0 2.963-2.882 2.963-3.146 0-.159.086-.289.191-.289.105 0 .191-.11.191-.244s.172-.368.382-.519c.21-.152.381-.428.381-.615s.129-.339.287-.339c.159 0 .286-.17.286-.382 0-.21.07-.382.155-.382.196 0 .99-1.47.99-1.831 0-.147.086-.268.191-.268.105 0 .191-.258.191-.573 0-.314.086-.572.191-.572.104 0 .19-.258.19-.573 0-.315.086-.572.191-.572.105 0 .191-.258.191-.573 0-.315.086-.572.191-.572.105 0 .191-.387.191-.859s.086-.859.191-.859c.105 0 .19-.429.19-.954 0-.525.086-.954.191-.954.112 0 .191-.661.191-1.602 0-1.254.063-1.626.289-1.712.256-.098.283-2.433.238-20.393l-.05-20.282-8.349-.049c-4.592-.028-8.369-.028-8.393 0-.024.027-.103 8.508-.174 18.847-.126 18.357-.202 21.28-.561 21.651-.097.1-.175.464-.175.811 0 .346-.086.63-.191.63-.105 0-.191.3-.191.668 0 .367-.086.668-.191.668-.105 0-.191.171-.191.381s-.086.382-.191.382c-.105 0-.191.172-.191.382 0 .209-.085.381-.19.381s-.191.138-.191.305c0 .168-.258.546-.573.84-.315.294-.572.676-.572.849 0 .346-.822 1.25-1.137 1.25-.109 0-.199.086-.199.191 0 .105-.137.191-.305.191-.168 0-.546.258-.84.573-.294.315-.672.572-.84.572-.168 0-.305.086-.305.191 0 .105-.172.191-.382.191-.21 0-.382.086-.382.191 0 .105-.161.191-.358.191-.197 0-.468.132-.603.295-.135.162-.36.25-.5.196-.144-.055-.256.027-.256.186 0 .207-.128.252-.475.165-.339-.085-.51-.031-.593.187-.088.229-.378.306-1.147.306-.566 0-1.029.086-1.029.191 0 .12-1.241.191-3.34.191-2.099 0-3.34-.071-3.34-.191 0-.105-.349-.191-.777-.191-.449 0-.902-.125-1.074-.297-.163-.163-.43-.246-.591-.184-.162.062-.359.009-.437-.118-.079-.127-.343-.261-.588-.298-.245-.037-.474-.151-.509-.253-.035-.102-.228-.185-.429-.185-.201 0-.366-.086-.366-.191 0-.105-.196-.191-.435-.191s-.559-.172-.71-.382c-.151-.21-.388-.381-.525-.381-.318 0-3.292-2.985-3.292-3.304 0-.131-.171-.362-.381-.513-.21-.152-.382-.428-.382-.615s-.086-.339-.191-.339c-.105 0-.191-.172-.191-.382 0-.21-.086-.382-.19-.382-.105 0-.191-.3-.191-.668 0-.367-.086-.668-.191-.668-.105 0-.191-.343-.191-.763s-.086-.763-.191-.763c-.126 0-.191-6.934-.191-20.42v-20.42H7.443v20.42m78.435 12.404v32.825h17.557c11.578 0 17.557-.065 17.557-.191 0-.114.732-.191 1.813-.191 1.082 0 1.813-.077 1.813-.191 0-.105.43-.191.955-.191.524 0 .954-.085.954-.19s.338-.191.752-.191c.413 0 .805-.086.87-.191.065-.105.278-.191.475-.191.196 0 .485-.129.643-.286.157-.158.421-.286.586-.286.165 0 .3-.086.3-.191 0-.105.171-.191.381-.191s.382-.086.382-.191c0-.105.215-.191.477-.191.263 0 .477-.086.477-.191 0-.105.172-.191.382-.191.21 0 .382-.085.382-.19s.137-.191.305-.191c.168 0 .545-.258.84-.573.294-.315.636-.572.759-.572.294 0 2.485-2.192 2.485-2.485 0-.123.258-.465.572-.76.315-.294.573-.632.573-.752s.172-.402.382-.627c.21-.226.381-.566.381-.756 0-.19.086-.345.191-.345.105 0 .191-.258.191-.573 0-.382.095-.572.286-.572.159 0 .286-.17.286-.382 0-.21.086-.382.191-.382.105 0 .191-.252.191-.561 0-.309.086-.614.191-.679.105-.065.191-.543.191-1.061 0-.519.086-.943.191-.943.12 0 .191-1.3.191-3.519 0-2.141-.075-3.566-.191-3.638-.105-.064-.191-.494-.191-.954 0-.46-.086-.889-.191-.954-.105-.065-.191-.322-.191-.573 0-.25-.086-.507-.191-.572-.105-.065-.191-.285-.191-.488 0-.204-.128-.371-.286-.371-.178 0-.286-.18-.286-.477 0-.262-.086-.477-.191-.477-.105 0-.191-.172-.191-.382 0-.21-.086-.381-.191-.381-.105 0-.19-.138-.19-.305 0-.168-.258-.546-.573-.84-.315-.295-.572-.634-.572-.756 0-.297-1.797-2.107-2.093-2.107-.129 0-.476-.258-.77-.573-.294-.314-.653-.572-.798-.572-.144 0-.387-.172-.538-.382-.151-.21-.428-.381-.615-.381-.186 0-.339-.086-.339-.191 0-.105-.161-.191-.358-.191-.197 0-.465-.128-.595-.284-.129-.157-.302-.243-.383-.193-.081.05-.254-.037-.383-.193-.13-.156-.44-.284-.69-.284-.25 0-.454-.086-.454-.191 0-.105-.257-.191-.572-.191-.315 0-.573-.086-.573-.191 0-.105.172-.191.382-.191.21 0 .382-.086.382-.19 0-.105.137-.191.305-.191.168 0 .546-.258.84-.573.294-.315.64-.572.77-.572.312 0 2.474-2.211 2.474-2.53 0-.137.172-.372.382-.524.21-.151.381-.409.381-.572 0-.164.172-.422.382-.573.248-.179.382-.494.382-.901 0-.344.086-.626.191-.626.104 0 .19-.162.19-.361 0-.198.129-.41.287-.471.195-.075.286-.381.286-.963 0-.47.086-.907.191-.972.111-.069.191-1.147.191-2.587 0-1.52-.074-2.47-.191-2.47-.105 0-.191-.346-.191-.769 0-.508-.097-.807-.286-.88-.164-.062-.287-.347-.287-.661 0-.304-.086-.553-.19-.553-.105 0-.191-.171-.191-.381s-.086-.382-.191-.382c-.105 0-.191-.22-.191-.488 0-.277-.083-.438-.191-.371-.109.067-.191-.097-.191-.381 0-.285-.082-.449-.191-.382-.104.065-.19-.016-.19-.18 0-.163-.086-.297-.191-.297-.105 0-.191-.131-.191-.291 0-.321-1.977-2.381-2.286-2.381-.107 0-.195-.134-.195-.297 0-.164-.086-.245-.191-.18-.105.065-.191-.021-.191-.191s-.086-.256-.19-.191c-.105.065-.191-.016-.191-.179 0-.164-.153-.298-.34-.298-.187 0-.463-.172-.615-.381-.151-.21-.388-.382-.527-.382-.138 0-.436-.172-.662-.382-.225-.21-.565-.382-.755-.382-.19 0-.346-.085-.346-.19s-.171-.191-.381-.191-.382-.086-.382-.191c0-.105-.258-.191-.572-.191-.315 0-.573-.086-.573-.191 0-.105-.221-.191-.491-.191s-.619-.128-.777-.286c-.157-.157-.495-.286-.749-.286-.255 0-.464-.086-.464-.191 0-.105-.429-.191-.954-.191-.525 0-.954-.086-.954-.191 0-.112-.668-.19-1.622-.19-.955 0-1.623-.079-1.623-.191 0-.126-5.375-.191-15.744-.191H85.878v32.824m67.175 0v32.825h16.794V91.794h-16.794v32.824m30.726 0v32.825h50V144.656h-33.206V91.794h-16.794v32.824m59.16 0v32.825h16.794V91.794h-16.794v32.824m26.527-26.431v6.393h23.091v52.863h16.794V104.58h23.664V91.794h-63.549v6.393m72.837-6.266c-.07.07-.127 14.841-.127 32.825v32.697H391.031V144.656h-31.68v-14.885H388.55V117.366H359.351V104.58h30.916V91.794h-23.918c-13.156 0-23.976.057-24.046.127m-229.326 12.85c0 .105.253.191.561.191.309 0 .615.086.68.191.064.105.37.191.679.191.308 0 .561.092.561.204 0 .268.487.75.758.75.297 0 1.15.882 1.15 1.189 0 .139.172.377.382.528.21.152.382.461.382.687 0 .226.117.509.26.627.334.278.313 2.96-.026 3.3-.129.128-.234.455-.234.726 0 .273-.17.614-.382.767-.21.151-.382.388-.382.526 0 .348-1.258 1.573-1.615 1.573-.161 0-.293.086-.293.191 0 .105-.172.191-.382.191-.21 0-.381.086-.381.191 0 .105-.301.191-.668.191-.368 0-.668.086-.668.191 0 .122-1.845.19-5.153.19h-5.153V104.58h4.962c3.181 0 4.962.069 4.962.191m3.244 25.573c0 .104.335.19.743.19.485 0 .781.1.853.287.064.167.35.286.688.286.319 0 .579.086.579.191 0 .105.153.191.34.191.186 0 .463.171.614.381.151.21.389.382.528.382.304 0 1.19.852 1.19 1.145 0 .114.216.424.48.689.265.264.431.562.37.66-.061.099.023.232.187.295.2.077.299.36.299.857 0 .409.085.743.19.743s.191.258.191.573c0 .315-.086.572-.191.572-.105 0-.19.473-.19 1.05 0 .787-.069 1.049-.276 1.049-.168 0-.248.142-.204.367.038.202-.052.414-.202.471-.15.058-.273.2-.273.317 0 .116-.343.541-.763.945-.42.403-.763.831-.763.95 0 .12-.079.169-.176.109-.096-.06-.305.021-.463.179-.159.159-.423.288-.588.288-.165 0-.3.086-.3.191 0 .105-.301.191-.668.191-.367 0-.668.086-.668.191 0 .106-.509.191-1.145.191s-1.145.085-1.145.191c0 .123-2.195.19-6.202.19h-6.203v-14.503h6.584c4.262 0 6.584.067 6.584.191m11.88 36.54c-.185.214-.238 2.894-.238 11.996v11.721l.596.119c.751.151 2.038.15 2.602-.001l.43-.115-.049-11.953-.049-11.953-1.527-.045c-1.137-.033-1.587.025-1.765.231m7.777 11.722c0 10.768.031 12.014.302 12.118.166.064.803.116 1.415.116.613 0 1.25-.052 1.416-.116.435-.167.464-23.414.029-23.848-.188-.189-.719-.273-1.717-.273h-1.445v12.003m145.992 0c0 10.768.031 12.014.302 12.118.166.064.803.116 1.416.116.612 0 1.249-.052 1.415-.116.271-.104.302-1.35.302-12.118v-12.003h-3.435v12.003m17.939-7.804c0 2.671-.069 4.198-.191 4.198-.105 0-.191-.086-.191-.191 0-.105-.171-.191-.381-.191s-.382-.086-.382-.191c0-.104-.215-.19-.477-.19s-.477-.086-.477-.191c0-.117-.922-.191-2.386-.191-1.463 0-2.385.074-2.385.191 0 .105-.218.191-.484.191-.488 0-1.806 1.117-1.806 1.531 0 .115-.086.156-.191.091-.105-.065-.191.07-.191.3 0 .23-.175.57-.389.756-.214.185-.428.539-.475.785-.047.246-.173.477-.279.512-.106.035-.193.395-.193.8s-.086.79-.191.854c-.112.07-.19 1.207-.19 2.768 0 1.56.078 2.697.19 2.767.105.065.191.419.191.788 0 .369.13.8.288.958.159.159.24.367.18.464-.06.096.025.175.189.175.17 0 .297.163.297.382 0 .21.086.382.191.382.105 0 .191.088.191.195 0 .108.406.602.902 1.098l.902.901h3.042c2.264 0 3.063-.061 3.122-.238.043-.131.209-.239.368-.239.16 0 .53-.257.824-.572.691-.739.764-.723.764.17 0 .871.172.975 1.622.975 1.794 0 1.622 1.264 1.622-11.962 0-13.533.214-12.275-2.085-12.275h-1.541v4.199m-209.924-2.291c0 .105-.128.191-.286.191-.319 0-.442 21.215-.126 21.713.202.318 1.858.509 2.971.342l.877-.132v-9.9H102.29v9.876l.596.119c1.177.236 2.383.134 2.81-.237l.411-.356v-10.631c0-12.211.177-11.175-1.909-11.175-1.993 0-1.908-.217-1.908 4.852v4.308H93.321v-4.308c0-3.478-.053-4.36-.273-4.58-.321-.32-3.163-.394-3.163-.082m80.344 10.953c0 9.986.031 11.156.302 11.26.393.151 1.967.149 2.728-.004l.596-.119v-22.28h-3.626v11.143m24.284-10.858c-.331.376-.306 2.155.034 2.495.214.214.936.273 3.34.273h3.067v19.225l.716.118c.393.065 1.073.119 1.511.121 1.525.004 1.399.891 1.399-9.847v-9.617h6.87v-3.053l-8.349.007c-6.966.006-8.389.052-8.588.278m24.953.86c0 .636.084 1.145.19 1.145.105 0 .191.257.191.572 0 .315.086.573.191.573.105 0 .191.386.191.859 0 .472.086.858.191.858.105 0 .191.258.191.573 0 .315.086.572.191.572.104 0 .19.344.19.764 0 .42.086.763.191.763.105 0 .191.301.191.668 0 .367.086.668.191.668.105 0 .191.343.191.763s.086.764.191.764c.105 0 .19.25.19.556 0 .306.077.585.171.62.094.035.216.405.271.822.055.417.193.79.307.827.113.038.206.32.206.626s.085.556.19.556.191.344.191.764c0 .419.086.763.191.763.105 0 .191.301.191.668 0 .367.086.668.191.668.105 0 .191.343.191.763s.086.764.19.764c.105 0 .191.257.191.572 0 .315.086.573.191.573.105 0 .191.355.191.788 0 1.246.439 1.502 2.576 1.502 2.138 0 2.577-.256 2.577-1.502 0-.433.086-.788.191-.788.104 0 .19-.344.19-.764 0-.42.086-.763.191-.763.105 0 .191-.334.191-.743 0-.484.1-.781.286-.853.189-.072.287-.371.287-.879 0-.423.085-.769.19-.769s.191-.344.191-.764c0-.42.086-.763.191-.763.105 0 .191-.339.191-.752 0-.414.086-.805.191-.87.105-.065.191-.371.191-.679 0-.309.085-.562.19-.562s.191-.343.191-.763.086-.763.191-.763c.105 0 .191-.35.191-.777 0-.678.319-1.323.654-1.323.06 0 .109.301.109.668 0 .368.086.668.191.668.105 0 .191.337.191.748s.083.776.185.811c.101.035.206.352.233.706.026.353.158.684.292.736.134.051.244.385.244.741s.086.648.191.648c.105 0 .191.343.191.763s.086.763.191.763c.105 0 .191.258.191.573 0 .315.085.572.19.572s.191.387.191.859.086.859.191.859c.105 0 .191.257.191.572 0 .315.086.573.191.573.105 0 .191.343.191.763s.085.764.19.764.191.355.191.788c0 1.246.439 1.502 2.577 1.502 2.031 0 2.576-.278 2.576-1.311 0-.329.086-.598.191-.598.105 0 .191-.343.191-.763 0-.551.079-.763.286-.763.189 0 .286-.19.286-.562 0-.308.086-.614.191-.679.105-.065.191-.408.191-.763 0-.355.086-.699.191-.764.105-.064.19-.37.19-.679 0-.308.086-.561.191-.561.105 0 .191-.344.191-.763 0-.42.086-.764.191-.764.105 0 .191-.252.191-.561 0-.309.086-.614.191-.679.105-.065.191-.457.191-.87 0-.414.085-.752.19-.752s.191-.258.191-.573c0-.315.086-.572.191-.572.105 0 .191-.387.191-.859 0-.473.086-.859.191-.859.105 0 .191-.258.191-.572 0-.315.085-.573.19-.573s.191-.344.191-.763c0-.42.086-.764.191-.764.105 0 .191-.248.191-.552 0-.315.123-.599.286-.662.166-.063.286-.349.286-.677 0-.312.086-.62.191-.685.105-.065.191-.671.191-1.347v-1.229h-3.626v.572c0 .315-.086.573-.191.573-.105 0-.191.343-.191.763s-.085.763-.19.763-.191.387-.191.859-.086.859-.191.859c-.105 0-.191.343-.191.763 0 .494-.086.764-.245.764-.134 0-.263.232-.287.516-.023.284-.128.602-.232.706-.105.104-.19.516-.19.915s-.086.725-.191.725c-.105 0-.191.344-.191.764 0 .419-.086.763-.191.763-.105 0-.19.338-.19.752s-.086.805-.191.87c-.105.065-.191.456-.191.87s-.086.752-.191.752c-.105 0-.191.344-.191.764 0 .419-.086.763-.191.763-.105 0-.19.264-.19.586 0 .52-.354 1.132-.655 1.132-.06 0-.109-.339-.109-.753 0-.413-.086-.805-.191-.87-.105-.065-.191-.364-.191-.665 0-.301-.128-.677-.286-.834-.157-.158-.286-.507-.286-.777s-.086-.491-.191-.491c-.105 0-.191-.386-.191-.859 0-.472-.086-.858-.191-.858-.105 0-.19-.344-.19-.764 0-.42-.086-.763-.191-.763-.105 0-.191-.258-.191-.573 0-.314-.086-.572-.191-.572-.105 0-.191-.387-.191-.859s-.086-.859-.191-.859c-.105 0-.19-.343-.19-.763s-.086-.763-.191-.763c-.105 0-.191-.253-.191-.562 0-.308-.086-.614-.191-.679-.105-.065-.191-.456-.191-.87s-.086-.752-.191-.752c-.105 0-.19-.307-.19-.682 0-1.055-.307-1.226-2.195-1.226s-2.195.171-2.195 1.226c0 .375-.086.682-.191.682-.105 0-.19.386-.19.859 0 .552-.08.842-.222.811-.129-.028-.255.269-.302.716-.044.419-.159.791-.256.826-.096.035-.175.309-.175.609s-.086.599-.19.664c-.105.065-.191.456-.191.87 0 .413-.086.752-.191.752-.105 0-.191.343-.191.763s-.086.764-.191.764c-.105 0-.191.386-.191.858 0 .473-.086.859-.191.859-.104 0-.19.344-.19.764 0 .419-.086.763-.191.763-.105 0-.191.343-.191.763s-.086.764-.191.764c-.105 0-.191.343-.191.763s-.086.763-.191.763c-.105 0-.19.215-.19.477 0 .263-.086.478-.191.478-.105 0-.191-.295-.191-.655 0-.36-.129-.783-.286-.94-.158-.158-.287-.507-.287-.777s-.085-.491-.19-.491-.191-.344-.191-.763c0-.42-.086-.764-.191-.764-.105 0-.191-.386-.191-.859 0-.472-.086-.858-.191-.858-.105 0-.191-.258-.191-.573 0-.315-.086-.572-.19-.572-.105 0-.191-.344-.191-.764 0-.42-.086-.763-.191-.763-.105 0-.191-.387-.191-.859s-.086-.859-.191-.859c-.105 0-.191-.343-.191-.763s-.086-.763-.191-.763c-.104 0-.19-.258-.19-.573 0-.315-.086-.572-.191-.572-.105 0-.191-.387-.191-.859 0-.473-.086-.859-.191-.859-.105 0-.193-.279-.197-.62-.011-1.123-.301-1.288-2.257-1.288h-1.744v1.145m-104.771 4.58c0 .105-.215.191-.477.191-.263 0-.478.086-.478.19 0 .105-.135.191-.301.191-.46 0-2.37 2.078-2.37 2.579 0 .156-.086.284-.191.284-.105 0-.191.162-.191.361 0 .199-.116.406-.257.46-.141.054-.264.376-.274.714-.01.339-.109.708-.22.819-.325.325-.264 5.119.073 5.769.152.293.233.604.179.691-.054.087.037.21.201.273.167.064.298.338.298.624 0 .291.164.628.382.785.21.151.381.384.381.517 0 .31.596 1.01.859 1.01.111 0 .326.172.477.381.152.21.421.382.599.382s.359.108.403.239c.061.181 1.102.238 4.342.238 3.24 0 4.281-.057 4.341-.238.044-.131.223-.242.398-.245.753-.014.986-.458.986-1.876v-1.362h-1.05c-.577 0-1.049.086-1.049.191 0 .105-.251.191-.557.191-.306 0-.586.088-.622.197-.04.118-.877.204-2.083.213-2.159.016-2.527-.094-3.467-1.031-.29-.288-.612-.524-.716-.524-.104 0-.189-.172-.189-.382 0-.21-.086-.382-.191-.382-.105 0-.191-.472-.191-1.049v-1.05H123.681l.469-.468c.499-.499.741-3.921.277-3.921-.104 0-.19-.344-.19-.764 0-.42-.086-.763-.191-.763-.105 0-.191-.172-.191-.382 0-.21-.067-.381-.15-.381-.082 0-.313-.28-.514-.621-.465-.791-.77-1.097-1.093-1.097-.142 0-.382-.172-.533-.382-.151-.21-.428-.381-.615-.381s-.339-.086-.339-.191c0-.119-1.114-.191-2.958-.191-1.845 0-2.958.072-2.958.191m32.729 0c.067.108-.094.191-.371.191-.268 0-.488.086-.488.19 0 .105-.172.191-.382.191-.21 0-.381.086-.381.191 0 .105-.172.191-.382.191-.229 0-.382.127-.382.318 0 .175-.056.262-.124.194-.151-.151-.625.439-.633.79-.008.311-.475.797-.767.797-.119 0-.167.079-.107.176.059.096-.022.305-.18.463-.158.159-.288.509-.288.779s-.086.491-.191.491c-.12 0-.191 1.336-.191 3.626s.071 3.626.191 3.626c.105 0 .191.257.191.572 0 .315.086.573.191.573.105 0 .191.171.191.381s.092.382.204.382c.218 0 .75.468.75.661 0 .238 1.334 1.438 1.6 1.438.152 0 .312.108.356.239.06.18 1.025.238 3.96.238s3.9-.058 3.96-.238c.043-.131.204-.239.356-.239.315 0 1.6-1.221 1.6-1.52 0-.109.092-.197.204-.197.304 0 .75-.503.75-.846 0-.164.086-.299.191-.299.105 0 .191-.172.191-.382 0-.21.086-.382.191-.382.105 0 .19-.257.19-.572 0-.315.086-.573.191-.573.12 0 .191-1.272.191-3.435 0-2.163-.071-3.435-.191-3.435-.105 0-.191-.239-.191-.53 0-.312-.157-.644-.381-.806-.21-.151-.382-.391-.382-.533 0-.353-1.829-2.139-2.19-2.139-.16 0-.291-.086-.291-.191 0-.104-.257-.19-.572-.19-.315 0-.573-.086-.573-.191 0-.12-1.149-.191-3.065-.191-1.994 0-3.023.067-2.946.191m35.21 0c0 .105-.258.191-.573.191-.315 0-.572.086-.572.19 0 .105-.134.191-.298.191-.164 0-.244.086-.18.191.065.105-.062.191-.283.191-.39 0-1.339.776-1.339 1.094 0 .087-.171.281-.381.433-.21.151-.382.428-.382.614 0 .187-.086.34-.191.34-.105 0-.191.258-.191.572 0 .315-.086.573-.191.573-.105 0-.19.386-.19.859 0 .472-.086.859-.191.859-.117 0-.191.886-.191 2.278 0 1.314.081 2.329.191 2.397.105.065.191.456.191.87s.085.752.19.752.191.239.191.531c0 .311.158.644.382.805.21.151.382.384.382.517 0 .31.595 1.01.859 1.01.111 0 .325.172.477.381.151.21.463.382.694.382.23 0 .455.108.498.239.06.179.968.238 3.674.238s3.614-.059 3.674-.238c.043-.131.193-.239.331-.239.478 0 1.779-.815 2.02-1.266.133-.248.313-.451.4-.451.088 0 .159-.153.159-.34 0-.187.172-.463.382-.615.224-.161.381-.494.381-.805 0-.292.086-.53.191-.53.105 0 .191-.253.191-.562 0-.308.086-.614.191-.679.113-.07.191-1.242.191-2.874 0-1.71-.073-2.756-.191-2.756-.105 0-.191-.343-.191-.763s-.086-.763-.191-.763c-.105 0-.191-.153-.191-.34 0-.187-.172-.463-.381-.615-.21-.151-.382-.416-.382-.588 0-.379-.903-1.32-1.267-1.32-.143 0-.26-.086-.26-.191 0-.105-.129-.191-.286-.191-.158 0-.286-.086-.286-.191 0-.104-.258-.19-.573-.19-.315 0-.572-.086-.572-.191 0-.119-1.114-.191-2.958-.191-1.845 0-2.958.072-2.958.191m73.187 0c-.065.105-.352.191-.637.191-.301 0-.636.161-.795.381-.151.21-.413.382-.582.382-.169 0-.421.212-.559.471-.139.258-.325.425-.414.37-.089-.055-.162.034-.162.197 0 .164-.086.298-.191.298-.105 0-.191.172-.191.382 0 .223-.127.381-.307.381-.191 0-.266.106-.198.281.059.155.003.348-.124.43-.358.229-.707 1.415-.707 2.404 0 .491-.086.893-.191.893-.111 0-.19.636-.19 1.527 0 .89.079 1.526.19 1.526.108 0 .191.541.191 1.241 0 .7.083 1.24.191 1.24.105 0 .191.135.191.3 0 .165.129.43.288.588.158.158.239.367.179.463-.059.097-.011.176.108.176.227 0 .761.464.761.661 0 .238 1.334 1.438 1.6 1.438.152 0 .312.108.356.239.166.499 7.671.323 8.117-.191.205-.236.473-.43.596-.43.312 0 1.735-1.44 1.735-1.755 0-.143.172-.383.382-.535.21-.151.382-.427.382-.614s.086-.34.191-.34c.104 0 .19-.343.19-.763s.086-.763.191-.763c.119 0 .191-1.146.191-3.054s-.072-3.053-.191-3.053c-.105 0-.191-.258-.191-.573 0-.315-.086-.572-.19-.572-.105 0-.191-.172-.191-.382 0-.21-.086-.382-.191-.382-.105 0-.191-.139-.191-.308 0-.378-1.379-1.791-1.748-1.791-.147 0-.391-.172-.542-.382-.162-.224-.494-.381-.806-.381-.291 0-.53-.086-.53-.191 0-.119-1.109-.191-2.947-.191-1.758 0-2.994.077-3.064.191m14.265.094c-.183.208-.239 2.162-.239 8.366v8.095l.597.119c.76.153 2.335.155 2.727.004.265-.102.302-.749.302-5.302 0-4.966.016-5.197.382-5.46.21-.151.382-.387.382-.524 0-.348 1.643-1.957 1.998-1.957.161 0 .292-.086.292-.191 0-.105.214-.191.477-.191.262 0 .477.086.477.191 0 .105.429.191.954.191.817 0 .954-.053.954-.371 0-.203.086-.423.191-.488.404-.249.216-1.805-.277-2.299-.654-.653-4.038-.718-4.494-.086-.151.21-.428.381-.614.381-.213 0-.34.143-.34.382 0 .21-.086.382-.191.382-.105 0-.191-.227-.191-.504 0-.942-2.691-1.528-3.387-.738m-151.861 2.768c.065.105.285.191.489.191.203 0 .37.086.37.191 0 .105.135.191.3.191.165 0 .422.123.572.273.15.149.273.407.273.572 0 .165.086.3.191.3.105 0 .191.172.191.382 0 .21.086.381.191.381.104 0 .19.301.19.668v.668h-7.252v-.816c0-.598.103-.891.382-1.092.21-.152.382-.366.382-.477 0-.358 1.287-1.241 1.81-1.241.159 0 .289-.086.289-.191 0-.105.338-.19.752-.19s.805.085.87.19m32.443 0c.065.105.416.191.78.191.713 0 2.369 1.397 2.369 1.999 0 .16.086.291.191.291.105 0 .19.253.19.562 0 .308.086.614.191.679.106.065.191.928.191 1.931 0 1.16-.069 1.77-.191 1.695-.113-.07-.191.157-.191.561 0 .374-.085.679-.19.679s-.191.132-.191.293c0 .374-1.233 1.616-1.605 1.616-.154 0-.334.085-.399.19s-.8.191-1.633.191c-.883 0-1.516-.079-1.516-.191 0-.105-.129-.19-.286-.19-.158 0-.286-.086-.286-.191 0-.105-.172-.191-.382-.191-.239 0-.382-.127-.382-.34 0-.186-.172-.463-.381-.614-.225-.162-.382-.494-.382-.806 0-.292-.086-.53-.191-.53-.117 0-.191-.891-.191-2.29 0-1.4.074-2.29.191-2.29.105 0 .191-.239.191-.531 0-.311.157-.644.382-.805.209-.152.381-.428.381-.615 0-.212.143-.339.382-.339.21 0 .382-.086.382-.191 0-.105.128-.191.286-.191.157 0 .286-.086.286-.191 0-.105.344-.191.763-.191.42 0 .764-.086.764-.191 0-.105.081-.19.179-.19.099 0 .233.085.298.19m35.21 0c0 .105.257.191.572.191.315 0 .573.086.573.191 0 .105.137.191.305.191.375 0 1.452 1.118 1.305 1.355-.058.094-.015.172.096.172s.202.164.202.365c0 .202.095.398.211.436.115.039.238.495.273 1.014.035.519.155.974.267 1.011.271.09.261 1.048-.014 1.322-.119.12-.238.584-.263 1.033-.025.448-.142.847-.26.886-.117.039-.214.236-.214.437s-.086.366-.191.366c-.105 0-.19.133-.19.295 0 .162-.211.506-.469.763-.257.258-.601.469-.763.469-.162 0-.295.085-.295.19 0 .113-.668.191-1.622.191-.954 0-1.622-.078-1.622-.191 0-.105-.133-.19-.295-.19-.382 0-1.232-.85-1.232-1.232 0-.162-.086-.295-.191-.295-.105 0-.191-.172-.191-.382 0-.21-.086-.381-.191-.381-.105 0-.19-.506-.19-1.136 0-.865-.077-1.178-.321-1.315-.301-.168-.301-.2 0-.5.221-.222.321-.641.321-1.357 0-.57.085-1.036.19-1.036s.191-.172.191-.382c0-.21.086-.381.191-.381.105 0 .191-.133.191-.295 0-.163.211-.506.468-.764.258-.257.601-.468.764-.468.162 0 .295-.086.295-.191 0-.105.343-.191.763-.191s.763-.086.763-.191c0-.105.129-.19.287-.19.157 0 .286.085.286.19m73.091 0c0 .105.346.191.769.191.817 0 2.476 1.339 2.476 1.999 0 .16.086.291.191.291.105 0 .19.425.19.943 0 .519.086.996.191 1.061.105.065.191.537.191 1.05 0 .512-.086.984-.191 1.049-.105.065-.191.457-.191.87 0 .414-.085.753-.19.753s-.191.171-.191.381-.086.382-.191.382c-.105 0-.191.133-.191.295 0 .382-.85 1.232-1.232 1.232-.162 0-.295.085-.295.19 0 .113-.668.191-1.622.191-.954 0-1.622-.078-1.622-.191 0-.105-.176-.19-.39-.19-.459 0-1.327-.807-1.327-1.232 0-.162-.086-.295-.191-.295-.105 0-.191-.172-.191-.382 0-.21-.086-.381-.191-.381-.118 0-.191-1.018-.191-2.672 0-1.654.073-2.672.191-2.672.105 0 .191-.172.191-.382 0-.21.086-.381.191-.381.105 0 .191-.133.191-.295 0-.426.868-1.232 1.327-1.232.214 0 .39-.086.39-.191 0-.105.344-.191.763-.191.42 0 .764-.086.764-.191 0-.105.086-.19.191-.19.105 0 .19.085.19.19m37.978.382c0 .105.16.191.356.191.195 0 .84.465 1.431 1.033l1.075 1.033v2.784c0 1.728-.072 2.784-.191 2.784-.105 0-.191.132-.191.294 0 .382-.85 1.232-1.231 1.232-.163 0-.295.086-.295.191 0 .105-.134.191-.298.191-.163 0-.244.086-.179.191.065.105-.054.191-.264.191-.21 0-.435.085-.5.19s-.542.191-1.061.191c-.518 0-.943-.086-.943-.191 0-.105-.171-.19-.381-.19s-.382-.086-.382-.191c0-.105-.129-.191-.286-.191-.159 0-.286-.17-.286-.382 0-.21-.086-.381-.191-.381-.105 0-.191-.172-.191-.382 0-.21-.086-.382-.191-.382-.105 0-.191-.386-.191-.859 0-.472-.086-.858-.191-.858-.106 0-.19-.509-.19-1.145 0-.637.084-1.145.19-1.145.105 0 .191-.473.191-1.05 0-.577.086-1.05.191-1.05.105 0 .193-.15.195-.334.002-.183.313-.591.689-.906.377-.315.783-.677.903-.804.261-.278 2.412-.327 2.412-.055"/><path fill="#04b4f4" d="M148.807.129c-1.268.042-2.242.154-2.242.259 0 .103-.666.185-1.516.185-.833 0-1.568.085-1.633.19-.065.105-.714.191-1.443.191-.755 0-1.324.082-1.324.191 0 .105-.472.191-1.05.191-.577 0-1.049.086-1.049.191 0 .105-.424.191-.941.191-.582 0-1.05.109-1.227.286-.16.161-.627.286-1.063.286-.427 0-.777.086-.777.191 0 .105-.344.191-.763.191-.42 0-.764.086-.764.191 0 .105-.429.19-.954.19-.525 0-.954.086-.954.191 0 .105-.301.191-.668.191-.367 0-.668.086-.668.191 0 .105-.344.191-.763.191-.42 0-.764.086-.764.191 0 .105-.257.19-.572.19-.315 0-.573.086-.573.191 0 .105-.386.191-.859.191-.472 0-.858.086-.858.191 0 .105-.258.191-.573.191-.315 0-.572.086-.572.191 0 .105-.258.191-.573.191-.315 0-.572.085-.572.19s-.209.191-.464.191-.592.129-.75.286c-.157.158-.421.287-.586.287-.165 0-.3.086-.3.191 0 .105-.257.19-.572.19-.315 0-.573.086-.573.191 0 .105-.257.191-.572.191-.315 0-.573.086-.573.191 0 .105-.214.191-.477.191-.262 0-.477.086-.477.191 0 .105-.258.19-.572.19-.315 0-.573.086-.573.191 0 .105-.172.191-.382.191-.21 0-.381.086-.381.191 0 .105-.172.191-.382.191-.21 0-.382.086-.382.191 0 .105-.252.19-.561.19-.309 0-.614.086-.679.191-.065.105-.285.191-.488.191-.204 0-.371.066-.371.146 0 .08-.343.295-.763.476-.42.182-.764.417-.764.523 0 .105-.171.191-.381.191s-.382.086-.382.191c0 .105-.215.191-.477.191s-.477.086-.477.191c0 .105-.172.19-.382.19-.21 0-.382.086-.382.191 0 .105-.171.191-.381.191s-.382.086-.382.191c0 .105-.172.191-.382.191-.209 0-.381.086-.381.191 0 .105-.172.19-.382.19-.21 0-.382.086-.382.191 0 .105-.12.191-.268.191-.361 0-1.831.794-1.831.99 0 .085-.172.155-.382.155-.212 0-.381.127-.381.286 0 .158-.153.287-.34.287-.187 0-.463.171-.614.381-.152.21-.471.382-.71.382-.24 0-.435.086-.435.191 0 .105-.153.191-.34.191-.187 0-.463.171-.615.381-.151.21-.409.382-.572.382-.164 0-.421.172-.573.382-.151.21-.428.381-.614.381-.187 0-.34.086-.34.191 0 .105-.141.191-.315.191-.173 0-.606.301-.963.668-.357.367-.754.668-.884.668-.129 0-.358.172-.51.382-.151.21-.393.381-.538.381-.144 0-.503.258-.798.573-.294.315-.659.572-.811.572-.152 0-.547.258-.876.573-.33.315-.675.572-.767.572-.093 0-.425.301-.739.668-.314.368-.667.668-.785.668-.199 0-.759.448-1.848 1.479-.25.236-.547.43-.66.43-.238 0-1.529 1.247-1.529 1.478 0 .085-.172.279-.381.43-.877.632-.687.863 7.156 8.701 4.146 4.144 7.538 7.58 7.538 7.636 0 .182.539.648.75.648.112 0 .204.086.204.191 0 .455.585.115 1.477-.859.529-.577 1.064-1.05 1.189-1.05s.557-.343.96-.763c.404-.42.857-.763 1.007-.763.15 0 .542-.258.872-.573.329-.315.665-.573.745-.573.081 0 .404-.298.718-.663.314-.365.721-.666.905-.668.183-.003.334-.09.334-.195 0-.105.128-.191.286-.191.157 0 .286-.086.286-.191 0-.105.14-.191.312-.191.171 0 .45-.151.62-.335.17-.184.545-.457.833-.605.289-.148.525-.341.525-.428 0-.087.172-.158.382-.158.21 0 .381-.086.381-.191 0-.105.117-.191.259-.191.142 0 .49-.215.773-.477.283-.263.639-.477.791-.477.152 0 .277-.086.277-.191 0-.105.171-.191.381-.191s.382-.086.382-.191c0-.105.153-.191.34-.191.186 0 .463-.171.614-.381.152-.21.428-.382.615-.382s.339-.086.339-.191c0-.105.167-.191.371-.191s.423-.086.488-.191c.065-.105.285-.19.489-.19.203 0 .37-.086.37-.191 0-.105.172-.191.382-.191.21 0 .381-.086.381-.191 0-.105.172-.191.382-.191.21 0 .382-.086.382-.191 0-.105.171-.19.381-.19.212 0 .382-.128.382-.287 0-.2.202-.286.668-.286.367 0 .668-.086.668-.191 0-.105.172-.191.382-.191.21 0 .381-.086.381-.19 0-.105.172-.191.382-.191.21 0 .382-.086.382-.191 0-.105.257-.191.572-.191.315 0 .573-.086.573-.191 0-.105.166-.191.37-.191s.424-.086.488-.191c.065-.104.371-.19.68-.19.308 0 .561-.086.561-.191 0-.105.172-.191.382-.191.21 0 .381-.086.381-.191 0-.105.258-.191.573-.191.315 0 .572-.086.572-.191 0-.105.244-.19.541-.19.297 0 .6-.059.672-.131.211-.212 1.518-.627 1.984-.63.253-.002.429-.12.429-.289 0-.212.223-.286.859-.286.472 0 .859-.086.859-.191 0-.105.343-.191.763-.191s.764-.086.764-.191c0-.105.343-.191.763-.191s.763-.086.763-.19c0-.105.387-.191.859-.191s.859-.086.859-.191c0-.105.429-.191.954-.191.525 0 .954-.086.954-.191 0-.105.473-.191 1.05-.191.577 0 1.049-.086 1.049-.191 0-.109.573-.19 1.336-.19.764 0 1.336-.082 1.336-.191 0-.112.668-.191 1.622-.191.955 0 1.623-.079 1.623-.191 0-.118.986-.191 2.576-.191s2.576-.073 2.576-.191c0-.248 6.726-.258 6.975-.01.1.099 1.384.225 2.853.279 3.767.138 5.696.304 5.907.509.1.097.765.177 1.479.177.738 0 1.298.082 1.298.19 0 .105.429.191.954.191.525 0 .954.086.954.191 0 .105.472.191 1.05.191.577 0 1.049.086 1.049.191 0 .105.344.191.764.191.419 0 .763.086.763.191 0 .104.386.19.859.19.472 0 .859.086.859.191 0 .105.343.191.763.191s.763.086.763.191c0 .105.221.191.491.191s.62.129.777.286c.157.157.581.286.941.286.359 0 .654.086.654.191 0 .105.257.191.572.191.315 0 .573.086.573.191 0 .105.258.191.572.191.315 0 .573.085.573.19s.167.191.37.191c.204 0 .424.086.489.191.065.105.37.191.679.191.309 0 .561.086.561.191 0 .105.258.191.573.191.315 0 .572.086.572.19 0 .105.172.191.382.191.21 0 .382.086.382.191 0 .105.257.191.572.191.315 0 .573.086.573.191 0 .105.214.191.477.191.262 0 .477.086.477.191 0 .104.172.19.381.19.21 0 .382.086.382.191 0 .105.135.191.3.191.165 0 .429.129.586.286.158.158.452.287.655.287.202 0 .368.085.368.19s.166.191.37.191.423.086.488.191c.065.105.285.191.489.191.203 0 .37.086.37.191 0 .105.172.191.382.191.21 0 .381.085.381.19s.153.191.34.191c.187 0 .463.172.615.382.151.21.428.382.614.382.187 0 .34.086.34.19 0 .105.215.191.477.191s.477.086.477.191c0 .105.14.191.312.191.171 0 .45.156.62.348.17.191.607.513.971.715.364.203.831.519 1.038.702.206.184.512.334.679.334.167 0 .427.172.579.382.151.21.408.382.572.382.164 0 .421.171.573.381.151.21.409.382.572.382.164 0 .421.172.573.382.151.21.39.381.532.381.141 0 .54.301.887.668.346.368.735.668.864.668.13 0 .476.258.77.573.294.315.629.572.744.572.116 0 .564.344.996.764.433.419.912.763 1.064.763.275 0 .822.44.822.661 0 .292 1.366 1.438 1.714 1.438.401 0 16.607-16.015 16.607-16.411 0-.276-2.576-2.864-2.85-2.864-.126 0-.647-.429-1.158-.954-.511-.525-1.027-.954-1.146-.954s-.586-.386-1.039-.859c-.452-.472-.927-.859-1.055-.859-.128 0-.473-.257-.768-.572-.294-.315-.637-.573-.763-.573s-.469-.257-.763-.572c-.295-.315-.672-.573-.84-.573-.168 0-.305-.086-.305-.191 0-.104-.129-.19-.287-.19-.157 0-.286-.086-.286-.191 0-.105-.157-.191-.349-.191-.193 0-.465-.215-.605-.477-.141-.263-.412-.477-.603-.477-.192 0-.455-.172-.586-.382-.132-.21-.351-.382-.487-.382-.137 0-.433-.171-.658-.381-.225-.21-.546-.382-.713-.382-.167 0-.428-.172-.579-.382-.151-.21-.428-.381-.615-.381-.186 0-.339-.086-.339-.191 0-.105-.153-.191-.34-.191-.187 0-.463-.172-.614-.382-.152-.21-.419-.381-.595-.381-.175 0-.368-.129-.429-.287-.06-.157-.284-.286-.497-.286-.213 0-.388-.086-.388-.191 0-.105-.153-.191-.339-.191-.187 0-.464-.171-.615-.381-.151-.21-.428-.382-.615-.382-.186 0-.339-.086-.339-.191 0-.105-.112-.191-.248-.191-.352 0-1.276-.448-1.277-.62-.001-.079-.217-.143-.479-.143s-.477-.086-.477-.191c0-.105-.172-.191-.382-.191-.21 0-.382-.085-.382-.19s-.171-.191-.381-.191-.382-.086-.382-.191c0-.105-.162-.191-.361-.191-.199 0-.411-.129-.471-.286-.061-.158-.285-.286-.498-.286-.213 0-.387-.086-.387-.191 0-.105-.172-.191-.382-.191-.21 0-.382-.086-.382-.191 0-.105-.172-.191-.381-.191-.21 0-.382-.086-.382-.191 0-.105-.198-.191-.439-.191-.503 0-1.466-.406-1.468-.62-.001-.078-.216-.143-.479-.143-.262 0-.477-.086-.477-.191 0-.105-.257-.191-.572-.191-.315 0-.573-.085-.573-.19s-.172-.191-.381-.191c-.21 0-.382-.086-.382-.191 0-.105-.258-.191-.573-.191-.315 0-.572-.086-.572-.191 0-.105-.301-.191-.668-.191-.368 0-.668-.079-.668-.175 0-.097-.258-.233-.573-.302-.314-.069-.572-.205-.572-.301 0-.097-.167-.176-.371-.176-.203 0-.423-.086-.488-.191-.065-.105-.322-.19-.572-.19-.25 0-.508-.086-.573-.191-.065-.105-.456-.191-.87-.191s-.752-.086-.752-.191c0-.105-.258-.191-.573-.191-.314 0-.572-.086-.572-.191 0-.105-.258-.191-.573-.191-.315 0-.572-.085-.572-.19s-.387-.191-.859-.191-.859-.086-.859-.191c0-.105-.343-.191-.763-.191s-.763-.086-.763-.191c0-.105-.344-.191-.764-.191-.42 0-.763-.085-.763-.19s-.387-.191-.859-.191-.859-.086-.859-.191c0-.105-.432-.191-.96-.191-.677 0-.992-.084-1.07-.286-.077-.201-.39-.286-1.044-.286-.513 0-.933-.086-.933-.191 0-.105-.425-.191-.943-.191-.519 0-.996-.086-1.061-.191-.065-.105-.714-.191-1.443-.191-.756 0-1.324-.082-1.324-.191 0-.112-.663-.19-1.607-.19-1.046 0-1.631-.077-1.679-.221-.074-.222-18.068-.394-23.289-.223m3.006 29.833c-.065.105-.886.191-1.824.191-1.011 0-1.707.078-1.707.191 0 .108-.568.19-1.324.19-.729 0-1.371.075-1.427.167-.057.091-.552.209-1.101.262-.549.052-1.03.192-1.07.311-.04.12-.483.215-1.009.215-.517 0-.939.085-.939.19s-.343.191-.763.191-.764.086-.764.191c0 .105-.386.191-.858.191-.473 0-.859.086-.859.191 0 .105-.258.191-.573.191-.314 0-.572.085-.572.19s-.258.191-.573.191c-.315 0-.572.086-.572.191 0 .105-.339.191-.752.191-.414 0-.805.086-.87.191-.065.105-.371.191-.679.191-.309 0-.562.086-.562.19 0 .105-.171.191-.381.191s-.382.086-.382.191c0 .105-.21.191-.466.191s-.519.086-.584.191c-.065.105-.321.191-.57.191-.249 0-.581.128-.738.286-.158.157-.422.286-.586.286-.165 0-.3.086-.3.191 0 .105-.172.191-.382.191-.21 0-.382.086-.382.191 0 .105-.257.191-.572.191-.315 0-.573.085-.573.19s-.214.191-.477.191c-.262 0-.477.086-.477.191 0 .105-.172.191-.382.191-.21 0-.381.086-.381.191 0 .105-.172.191-.382.191-.21 0-.382.085-.382.19s-.171.191-.381.191-.382.086-.382.191c0 .105-.172.191-.382.191-.21 0-.381.069-.381.152 0 .084-.304.263-.674.397-.371.134-.882.451-1.136.706-.255.254-.596.462-.758.462-.162 0-.295.086-.295.191 0 .105-.172.191-.382.191-.21 0-.381.086-.381.191 0 .105-.133.191-.295.191-.161 0-.478.172-.704.382-.225.209-.546.381-.713.381-.167 0-.427.172-.578.382-.152.21-.369.382-.484.382-.114 0-.374.15-.578.334-.203.183-.606.455-.895.604-.288.149-.524.385-.524.525s-.181.254-.401.254c-.22 0-.641.258-.935.573-.294.315-.636.572-.76.572-.123 0-.554.344-.958.764-.403.419-.841.763-.972.763s-.692.472-1.247 1.05c-.555.577-1.141 1.049-1.303 1.049-.843 0-.27.993 1.709 2.963 1.102 1.096 2.004 2.08 2.004 2.185 0 .267 12.142 12.409 12.409 12.409.119 0 .546-.343.95-.763.403-.42.814-.763.912-.763.099 0 .341-.215.538-.477.197-.263.466-.478.599-.478.132 0 .241-.085.241-.19s.137-.191.305-.191c.168 0 .546-.258.84-.573.294-.315.653-.572.798-.572.144 0 .387-.172.538-.382.151-.21.428-.382.614-.382.187 0 .34-.085.34-.19s.156-.191.346-.191c.19 0 .512-.155.715-.344.204-.189.521-.401.704-.471.184-.07.334-.216.334-.324 0-.109.172-.197.382-.197.21 0 .382-.086.382-.191 0-.105.171-.191.381-.191s.382-.086.382-.191c0-.105.172-.191.382-.191.21 0 .381-.085.381-.19s.215-.191.477-.191c.263 0 .478-.086.478-.191 0-.105.171-.191.381-.191s.382-.086.382-.191c0-.105.172-.191.382-.191.21 0 .381-.085.381-.19s.258-.191.573-.191c.315 0 .572-.086.572-.191 0-.105.167-.191.371-.191.203 0 .423-.086.488-.191.065-.105.323-.191.573-.191.25 0 .507-.085.572-.19.065-.105.33-.191.59-.191.259 0 .521-.129.582-.287.062-.163.347-.286.662-.286.303 0 .552-.086.552-.191 0-.105.3-.19.668-.19.367 0 .667-.086.667-.191 0-.105.344-.191.764-.191.42 0 .763-.086.763-.191 0-.105.344-.191.764-.191.419 0 .763-.086.763-.191 0-.107.541-.191 1.24-.191.7 0 1.241-.083 1.241-.19 0-.108.541-.191 1.24-.191.7 0 1.241-.083 1.241-.191 0-.117.922-.191 2.385-.191 1.463 0 2.386-.074 2.386-.191 0-.115.795-.191 2.004-.191 1.208 0 2.003.076 2.003.191 0 .117.923.191 2.386.191s2.385.074 2.385.191c0 .108.541.191 1.241.191.7 0 1.24.083 1.24.191 0 .105.43.19.954.19.525 0 .955.086.955.191 0 .105.429.191.954.191.525 0 .954.086.954.191 0 .105.387.191.859.191s.859.086.859.191c0 .105.257.191.572.191.315 0 .573.085.573.19s.257.191.572.191c.315 0 .573.082.573.182 0 .101.3.239.668.308.367.069.668.202.668.295 0 .093.257.169.572.169.315 0 .573.086.573.191 0 .105.171.191.381.191s.382.086.382.191c0 .105.258.191.573.191.314 0 .572.086.572.191 0 .105.215.19.477.19.263 0 .477.086.477.191 0 .105.172.191.382.191.21 0 .382.086.382.191 0 .105.171.191.381.191s.382.086.382.191c0 .105.172.19.382.19.21 0 .381.086.381.191 0 .105.172.191.382.191.21 0 .382.086.382.191 0 .105.214.191.477.191.272 0 .477.11.477.256 0 .141.408.463.906.715.499.252 1.018.564 1.154.693.136.129.544.375.907.547.362.172.659.389.659.482 0 .093.153.169.339.169.187 0 .464.172.615.382.151.21.388.382.526.382.137 0 .536.279.886.62.35.341.879.792 1.175 1.002.297.21.907.747 1.357 1.193 1.052 1.044 1.407 1.025 2.545-.143.511-.525.984-.955 1.05-.955.153 0 .667-.507.667-.657 0-.202 2.851-2.969 3.06-2.969.112 0 2.09-1.889 4.396-4.198s4.256-4.199 4.334-4.199c.078 0 .313-.23.522-.511.208-.281.572-.707.808-.946.751-.758.199-2.55-.785-2.55-.172 0-.312-.086-.312-.191 0-.105-.09-.191-.199-.191-.21 0-1.137-.856-1.137-1.049 0-.204-.931-1.05-1.155-1.05-.12 0-.459-.258-.753-.573-.294-.315-.629-.572-.745-.572-.115 0-.209-.086-.209-.191 0-.105-.153-.191-.34-.191-.187 0-.463-.172-.615-.382-.151-.209-.396-.381-.545-.381-.149 0-.527-.301-.841-.668-.314-.367-.649-.668-.745-.668-.096 0-.359-.172-.584-.382-.226-.21-.547-.381-.714-.381-.167 0-.427-.172-.578-.382-.152-.21-.428-.382-.615-.382s-.339-.086-.339-.191c0-.105-.153-.19-.34-.19-.187 0-.463-.172-.615-.382-.151-.21-.428-.382-.614-.382-.187 0-.34-.086-.34-.191 0-.105-.196-.191-.435-.191s-.561-.175-.715-.39c-.155-.215-.754-.62-1.331-.899-.577-.28-1.078-.577-1.113-.66-.035-.082-.223-.15-.418-.15-.195 0-.408-.086-.473-.191-.064-.105-.284-.19-.488-.19-.204 0-.37-.086-.37-.191 0-.105-.172-.191-.382-.191-.21 0-.382-.086-.382-.191 0-.105-.172-.191-.381-.191-.21 0-.382-.086-.382-.191 0-.105-.258-.19-.573-.19-.315 0-.572-.086-.572-.191 0-.105-.167-.191-.371-.191-.203 0-.423-.086-.488-.191-.065-.105-.37-.191-.679-.191-.372 0-.561-.097-.561-.286 0-.159-.17-.286-.382-.286-.21 0-.382-.086-.382-.191 0-.105-.257-.191-.572-.191-.315 0-.573-.086-.573-.191 0-.105-.3-.191-.668-.191-.367 0-.668-.086-.668-.191 0-.104-.257-.19-.572-.19-.315 0-.573-.086-.573-.191 0-.105-.257-.191-.572-.191-.315 0-.573-.086-.573-.191 0-.105-.257-.191-.572-.191-.315 0-.573-.086-.573-.191 0-.105-.386-.19-.859-.19-.472 0-.858-.086-.858-.191 0-.105-.258-.191-.573-.191-.315 0-.572-.086-.572-.191 0-.105-.473-.191-1.05-.191-.577 0-1.05-.086-1.05-.191 0-.105-.336-.19-.747-.19s-.779-.095-.818-.211c-.038-.116-.582-.251-1.208-.301-.627-.05-1.167-.17-1.202-.267-.035-.096-.572-.176-1.193-.176-.626 0-1.129-.085-1.129-.19 0-.114-.732-.191-1.813-.191-1.082 0-1.813-.077-1.813-.191 0-.124-2.636-.191-7.527-.191-4.812 0-7.57.069-7.645.191m1.622 30.057c0 .229-.286.286-1.431.286-.827 0-1.431.081-1.431.191 0 .105-.344.191-.764.191-.42 0-.763.086-.763.191 0 .105-.387.191-.859.191s-.859.086-.859.191c0 .105-.343.19-.763.19s-.763.086-.763.191c0 .105-.258.191-.573.191-.315 0-.573.086-.573.191 0 .105-.257.191-.572.191-.315 0-.573.086-.573.191 0 .105-.214.19-.477.19-.262 0-.477.086-.477.191 0 .105-.257.191-.572.191-.315 0-.573.086-.573.191 0 .105-.172.191-.381.191-.21 0-.382.086-.382.191 0 .105-.172.19-.382.19-.21 0-.382.077-.382.171 0 .093-.214.224-.477.29-.262.065-.477.203-.477.306 0 .103-.171.188-.381.188s-.382.086-.382.19c0 .105-.172.191-.382.191-.21 0-.381.086-.381.191 0 .105-.153.191-.34.191-.187 0-.463.172-.615.382-.151.21-.428.381-.614.381-.187 0-.34.086-.34.191 0 .105-.129.191-.286.191-.158 0-.286.086-.286.191 0 .105-.153.191-.34.191-.187 0-.463.171-.615.381-.151.21-.371.382-.488.382-.117 0-.549.384-.96.854-.41.469-.896.856-1.08.858-.184.003-.334.092-.334.196 0 .105-.078.191-.173.191-.25 0-1.926 1.664-1.926 1.912 0 .114 1.138 1.362 2.528 2.772 1.391 1.411 2.701 2.739 2.911 2.953.209.213 1.047 1.024 1.86 1.801.814.778 1.482 1.484 1.486 1.57.004.086.398.5.876.92.477.42 1.158 1.042 1.513 1.383.802.771 1.307.783 1.994.048.294-.315.632-.572.752-.572s.451-.219.735-.486c.284-.268.795-.621 1.137-.786.341-.164.62-.418.62-.563 0-.146.172-.265.382-.265.209 0 .381-.086.381-.19 0-.105.172-.191.382-.191.21 0 .382-.086.382-.191 0-.105.171-.191.381-.191s.382-.086.382-.191c0-.105.215-.191.477-.191s.477-.086.477-.191c0-.104.172-.19.382-.19.21 0 .381-.086.381-.191 0-.105.258-.191.573-.191.315 0 .573-.086.573-.191 0-.105.257-.191.572-.191.315 0 .573-.086.573-.191 0-.105.386-.19.858-.19.473 0 .859-.086.859-.191 0-.105.43-.191.954-.191.525 0 .955-.086.955-.191 0-.121 1.459-.191 3.996-.191 2.458 0 4.042.074 4.114.191.065.105.542.191 1.061.191.519 0 .943.086.943.191 0 .105.344.191.763.191.42 0 .764.085.764.19s.257.191.572.191c.315 0 .573.086.573.191 0 .105.3.191.668.191.367 0 .668.086.668.191 0 .105.171.191.381.191s.382.086.382.19c0 .105.172.191.382.191.21 0 .381.086.381.191 0 .105.172.191.382.191.21 0 .382.086.382.191 0 .105.171.191.381.191s.382.086.382.191c0 .104.215.19.477.19.263 0 .477.092.477.205 0 .273.489.75.769.75.123 0 .464.257.758.572.294.315.628.573.742.573.218 0 .722.377 1.468 1.097.72.696 1.11.541 2.763-1.097.848-.84 1.622-1.527 1.719-1.527.098 0 .178-.088.178-.195 0-.249 2.029-2.286 2.277-2.286.47 0 6.12-5.886 6.12-6.375 0-.272-.078-.495-.174-.495-.096 0-.698-.516-1.337-1.145-.64-.63-1.248-1.145-1.352-1.145-.104 0-.508-.301-.898-.668-.389-.368-.784-.668-.878-.668-.093 0-.41-.258-.704-.573-.294-.315-.653-.572-.798-.572-.145 0-.387-.172-.538-.382-.152-.21-.428-.382-.615-.382s-.339-.086-.339-.19c0-.105-.172-.191-.382-.191-.21 0-.382-.086-.382-.191 0-.105-.129-.191-.286-.191-.157 0-.286-.086-.286-.191 0-.105-.172-.191-.382-.191-.21 0-.382-.086-.382-.191 0-.104-.164-.19-.365-.19-.202 0-.395-.073-.43-.162-.09-.23-1.835-1.174-2.169-1.174-.154 0-.28-.086-.28-.191 0-.105-.258-.191-.572-.191-.315 0-.573-.086-.573-.191 0-.105-.172-.191-.382-.191-.21 0-.381-.085-.381-.19s-.258-.191-.573-.191c-.315 0-.572-.086-.572-.191 0-.105-.301-.191-.668-.191-.368 0-.668-.086-.668-.191 0-.105-.344-.191-.764-.191-.419 0-.763-.085-.763-.19s-.343-.191-.763-.191-.764-.086-.764-.191c0-.105-.386-.191-.858-.191-.473 0-.859-.086-.859-.191 0-.109-.566-.191-1.316-.191-.993 0-1.342-.07-1.425-.286-.094-.246-.944-.286-6.032-.286-5.137 0-5.922.038-5.922.286M0 177.481v5.153h73.473v-10.306H0v5.153m319.466 0v5.153H400v-10.306h-80.534v5.153"/></g></svg>