<svg width="800" height="800" viewBox="0 0 211.667 211.667" xml:space="preserve" xmlns="http://www.w3.org/2000/svg"><defs><clipPath clipPathUnits="userSpaceOnUse" id="h"><path d="M0 283.465h283.465V0H0Z" transform="translate(-201.33 -165.773)"/></clipPath><clipPath clipPathUnits="userSpaceOnUse" id="g"><path d="M0 283.465h283.465V0H0Z" transform="translate(-180.897 -156.856)"/></clipPath><clipPath clipPathUnits="userSpaceOnUse" id="f"><path d="M0 283.465h283.465V0H0Z" transform="translate(-161.549 -150.24)"/></clipPath><clipPath clipPathUnits="userSpaceOnUse" id="e"><path d="M0 283.465h283.465V0H0Z"/></clipPath><clipPath clipPathUnits="userSpaceOnUse" id="d"><path d="M0 283.465h283.465V0H0Z" transform="translate(-135.438 -158.73)"/></clipPath><clipPath clipPathUnits="userSpaceOnUse" id="c"><path d="M0 283.465h283.465V0H0Z"/></clipPath><clipPath clipPathUnits="userSpaceOnUse" id="b"><path d="M0 283.465h283.465V0H0Z" transform="translate(-120.452 -155.246)"/></clipPath><clipPath clipPathUnits="userSpaceOnUse" id="a"><path d="M0 283.465h283.465V0H0Z" transform="translate(-105.407 -152.787)"/></clipPath></defs><g style="display:inline"><path style="fill:#241733;fill-opacity:1;stroke-width:.252362" d="M221.667 0h211.667v211.667H221.667z" transform="translate(-221.667)"/></g><path d="M0 0v12.982h4.713V-.029c0-5.826-3.864-9.075-8.87-9.075-4.977 0-8.841 3.249-8.841 9.075v13.011h4.714V0c0-3.25 1.639-4.889 4.127-4.889C-1.639-4.889 0-3.25 0 0" style="fill:#d92046;fill-opacity:1;fill-rule:nonzero;stroke:none" transform="matrix(1.10152 0 0 -1.10152 65.82 93.656)" clip-path="url(#a)"/><path d="M0 0c-2.166 0-3.776-1.669-3.776-3.864 0-2.196 1.61-3.864 3.776-3.864 2.137 0 3.747 1.668 3.747 3.864C3.747-1.669 2.137 0 0 0m-3.63 1.727c.849 1.142 2.518 2.108 4.538 2.108 4.01 0 7.26-3.308 7.26-7.699s-3.25-7.699-7.26-7.699c-2.02 0-3.689.966-4.538 2.107v-1.756h-4.45V10.55h4.45z" style="fill:#d92046;fill-opacity:1;fill-rule:nonzero;stroke:none" transform="matrix(1.10152 0 0 -1.10152 82.392 90.947)" clip-path="url(#b)"/><path d="M134.385 144.034h-4.45v14.695h4.45zm-4.889 20.346c0 1.463 1.2 2.634 2.664 2.634a2.642 2.642 0 0 0 2.635-2.634c0-1.464-1.2-2.635-2.635-2.635-1.464 0-2.664 1.171-2.664 2.635" style="fill:#d92046;fill-opacity:1;fill-rule:nonzero;stroke:none" transform="matrix(1.10152 0 0 -1.10152 -50.288 261.954)" clip-path="url(#c)"/><path d="M0 0h2.225v4.772h4.449V0h2.957v-3.835H6.674v-10.86H2.225v10.86H0Z" style="fill:#d92046;fill-opacity:1;fill-rule:nonzero;stroke:none" transform="matrix(1.10152 0 0 -1.10152 98.9 87.11)" clip-path="url(#d)"/><path d="M150.367 144.034h-4.45v14.695h4.45zm-4.889 20.346c0 1.463 1.2 2.634 2.664 2.634a2.642 2.642 0 0 0 2.635-2.634c0-1.464-1.2-2.635-2.635-2.635-1.464 0-2.664 1.171-2.664 2.635" style="fill:#d92046;fill-opacity:1;fill-rule:nonzero;stroke:none" transform="matrix(1.10152 0 0 -1.10152 -50.288 261.954)" clip-path="url(#e)"/><path d="M0 0v8.489h4.45V-.146c0-3.777-2.869-6.411-6.821-6.411-3.981 0-6.85 2.634-6.85 6.44v8.606h4.449V0c0-1.727.879-2.752 2.401-2.752C-.878-2.752 0-1.727 0 0" style="fill:#d92046;fill-opacity:1;fill-rule:nonzero;stroke:none" transform="matrix(1.10152 0 0 -1.10152 127.662 96.461)" clip-path="url(#f)"/><path d="M0 0c1.112 1.259 2.781 2.225 4.859 2.225 3.162 0 5.299-2.166 5.299-5.357v-9.69H5.709v8.431c0 1.551-.879 2.635-2.342 2.635-1.611 0-2.518-1.23-2.518-2.986v-8.08h-4.45v8.431c0 1.551-.849 2.635-2.342 2.635-1.61 0-2.517-1.23-2.517-2.986v-8.08h-4.45V1.874h4.45V.205c.849 1.142 2.312 2.02 4.186 2.02C-2.342 2.225-.878 1.376 0 0" style="fill:#d92046;fill-opacity:1;fill-rule:nonzero;stroke:none" transform="matrix(1.10152 0 0 -1.10152 148.974 89.174)" clip-path="url(#g)"/><path d="M0 0v-28.662h-119.197V0h-22.606v-49.323H22.606V0Z" style="fill:#d92046;fill-opacity:1;fill-rule:nonzero;stroke:none" transform="matrix(1.10152 0 0 -1.10152 171.482 79.352)" clip-path="url(#h)"/></svg>