<?xml version="1.0" encoding="UTF-8" standalone="no"?>
<!-- Created with Inkscape (http://www.inkscape.org/) -->

<svg
   xmlns:dc="http://purl.org/dc/elements/1.1/"
   xmlns:cc="http://creativecommons.org/ns#"
   xmlns:rdf="http://www.w3.org/1999/02/22-rdf-syntax-ns#"
   xmlns:svg="http://www.w3.org/2000/svg"
   xmlns="http://www.w3.org/2000/svg"
   xmlns:sodipodi="http://sodipodi.sourceforge.net/DTD/sodipodi-0.dtd"
   xmlns:inkscape="http://www.inkscape.org/namespaces/inkscape"
   version="1.1"
   id="svg2"
   xml:space="preserve"
   width="648.88"
   height="638.37335"
   viewBox="0 0 648.88 638.37335"
   sodipodi:docname="logotipo-ufabc-abaixo.svg"
   inkscape:export-filename="/home/boris/Desktop/logotipo-ufabc-abaixo.png"
   inkscape:export-xdpi="300"
   inkscape:export-ydpi="300"
   inkscape:version="0.92.3 (2405546, 2018-03-11)"><metadata
     id="metadata8"><rdf:RDF><cc:Work
         rdf:about=""><dc:format>image/svg+xml</dc:format><dc:type
           rdf:resource="http://purl.org/dc/dcmitype/StillImage" /><dc:title></dc:title></cc:Work></rdf:RDF></metadata><defs
     id="defs6" /><sodipodi:namedview
     pagecolor="#ffffff"
     bordercolor="#666666"
     borderopacity="1"
     objecttolerance="10"
     gridtolerance="10"
     guidetolerance="10"
     inkscape:pageopacity="0"
     inkscape:pageshadow="2"
     inkscape:window-width="1867"
     inkscape:window-height="1027"
     id="namedview4"
     showgrid="false"
     inkscape:zoom="0.36968962"
     inkscape:cx="324.44"
     inkscape:cy="297.5469"
     inkscape:window-x="53"
     inkscape:window-y="27"
     inkscape:window-maximized="1"
     inkscape:current-layer="g10" /><g
     id="g10"
     inkscape:groupmode="layer"
     inkscape:label="ink_ext_XXXXXX"
     transform="matrix(1.3333333,0,0,-1.3333333,0,638.37333)"><path
       inkscape:connector-curvature="0"
       id="path14"
       style="fill:#157a61;fill-opacity:1;fill-rule:nonzero;stroke:none;stroke-width:0.1"
       d="M 0,117.705 H 16.0953 V 49.6672 c 0,-12.3563 2.2481,-21.5012 6.7469,-27.4352 4.4976,-5.934 11.3519,-8.9011 20.566,-8.9011 9.3199,0 16.3391,3.1832 21.0531,9.5511 4.7149,6.3668 7.0723,15.7828 7.0723,28.2481 V 117.705 H 86.5719 V 50.8051 C 86.5719,33.8969 82.941,21.202 75.6793,12.7211 68.4172,4.23984 57.4977,0 42.9203,0 28.8297,0 18.1543,4.14609 10.8926,12.4371 3.63047,20.7281 0,32.975 0,49.1789 v 68.5261" /><path
       inkscape:connector-curvature="0"
       id="path16"
       style="fill:#157a61;fill-opacity:1;fill-rule:nonzero;stroke:none;stroke-width:0.1"
       d="m 117.5,117.705 h 59.747 V 105.106 H 133.676 V 68.1191 h 41.782 V 55.1141 H 133.676 V 2.19492 H 117.5 V 117.705" /><path
       inkscape:connector-curvature="0"
       id="path18"
       style="fill:#157a61;fill-opacity:1;fill-rule:nonzero;stroke:none;stroke-width:0.1"
       d="M 239.196,103.561 216.273,44.7891 h 45.115 z m -9.51,14.144 h 19.67 L 294.634,2.19492 H 277.157 L 266.021,31.8648 H 211.07 L 199.934,2.19492 H 183.595 L 229.686,117.705" /><path
       inkscape:connector-curvature="0"
       id="path20"
       style="fill:#157a61;fill-opacity:1;fill-rule:nonzero;stroke:none;stroke-width:0.1"
       d="M 323.666,55.7629 V 15.3641 h 12.274 c 9.375,0 16.461,1.7328 21.257,5.2019 4.796,3.468 7.195,8.561 7.195,15.282 0,6.5571 -2.223,11.5149 -6.666,14.8762 -4.445,3.359 -11.029,5.0387 -19.753,5.0387 z m 0,49.3431 V 68.282 h 11.787 c 8.345,0 14.739,1.6262 19.184,4.8782 4.443,3.25 6.666,7.8839 6.666,13.9 0,5.8519 -2.087,10.323 -6.26,13.4118 -4.173,3.089 -10.189,4.634 -18.046,4.634 z m -16.014,12.599 h 30.971 c 12.519,0 22.191,-2.547 29.02,-7.641 6.829,-5.095 10.243,-12.248 10.243,-21.4601 0,-6.3957 -1.817,-11.8008 -5.447,-16.2168 -3.631,-4.418 -8.915,-7.5473 -15.851,-9.3891 8.019,-1.9511 14.13,-5.3519 18.33,-10.2019 4.199,-4.85 6.3,-10.9609 6.3,-18.3301 0,-10.2418 -3.686,-18.1808 -11.055,-23.8168 -7.371,-5.63709 -17.83,-8.45428 -31.377,-8.45428 H 307.652 V 117.705" /><path
       inkscape:connector-curvature="0"
       id="path22"
       style="fill:#157a61;fill-opacity:1;fill-rule:nonzero;stroke:none;stroke-width:0.1"
       d="m 486.657,113.559 -0.65,-13.982 c -4.444,1.842 -8.793,3.224 -13.047,4.147 -4.255,0.92 -8.576,1.382 -12.966,1.382 -13.873,0 -24.888,-4.052 -33.043,-12.154 -8.157,-8.1008 -12.234,-19.0348 -12.234,-32.7989 0,-13.9281 4.064,-24.8742 12.193,-32.8402 8.129,-7.9668 19.211,-11.9488 33.247,-11.9488 4.443,0 8.78,0.4191 13.006,1.2589 4.228,0.8399 8.4,2.0739 12.519,3.6989 l 0.487,-14.46877 c -4.011,-1.30118 -8.291,-2.29024 -12.843,-2.96719 -4.553,-0.67891 -9.376,-1.0168 -14.47,-1.0168 -18.913,0 -33.83,5.13399 -44.749,15.40506 -10.92,10.268 -16.379,24.2637 -16.379,41.9848 0,17.9371 5.568,32.2172 16.705,42.839 11.136,10.62 26.106,15.933 44.912,15.933 5.039,0 9.847,-0.367 14.427,-1.098 4.58,-0.731 8.874,-1.857 12.885,-3.374" /><path
       inkscape:connector-curvature="0"
       id="path24"
       style="fill:#157a61;fill-opacity:1;fill-rule:nonzero;stroke:none;stroke-width:0.1"
       d="m 168.963,436.907 c -9.423,-16.334 -12.727,-34.504 -10.621,-51.875 l 19.645,-11.352 c -5.903,17.592 -4.529,37.522 5.475,54.85 18.501,32.047 59.465,43.017 91.516,24.519 32.039,-18.502 43.017,-59.472 24.522,-91.515 -10.004,-17.322 -26.583,-28.489 -44.761,-32.168 l 19.646,-11.343 c 16.101,6.868 30.19,18.819 39.621,35.137 23.118,40.058 9.393,91.266 -30.654,114.385 -40.055,23.135 -91.265,9.41 -114.389,-30.638" /><path
       inkscape:connector-curvature="0"
       id="path26"
       style="fill:#157a61;fill-opacity:1;fill-rule:nonzero;stroke:none;stroke-width:0.1"
       d="m 124.25,191.993 c 40.054,-23.136 91.269,-9.412 114.395,30.642 9.423,16.318 12.72,34.5 10.615,51.884 l -19.647,11.342 c 5.904,-17.579 4.531,-37.524 -5.474,-54.859 -18.497,-32.038 -59.472,-43.016 -91.522,-24.515 -32.039,18.502 -43.0115,59.465 -24.516,91.515 10.011,17.322 26.594,28.488 44.772,32.159 l -19.645,11.352 C 117.126,334.653 103.026,322.706 93.607,306.375 70.4766,266.322 84.2074,215.107 124.25,191.993" /><path
       inkscape:connector-curvature="0"
       id="path28"
       style="fill:#157a61;fill-opacity:1;fill-rule:nonzero;stroke:none;stroke-width:0.1"
       d="m 374.879,231.002 c -18.497,-32.05 -59.472,-43.023 -91.517,-24.533 -24.34,14.066 -36.527,41.099 -32.854,67.328 l -15.403,8.899 c -7.751,-34.765 7.416,-71.985 39.883,-90.726 40.055,-23.12 91.27,-9.4 114.39,30.653 18.401,31.857 13.472,70.77 -9.459,97.005 l -8.99,-15.555 c 15.186,-20.775 17.638,-49.361 3.95,-73.071 m -46.686,99.523 8.814,15.26 c -27.221,6.762 -56.186,-0.675 -76.781,-19.591 l 15.398,-8.881 c 14.832,11.563 33.985,16.395 52.569,13.212" /><path
       inkscape:connector-curvature="0"
       id="path30"
       style="fill:#fcd006;fill-opacity:1;fill-rule:nonzero;stroke:none;stroke-width:0.1"
       d="m 250.551,298.909 -2.483,1.44 -137.039,79.134 c 8.749,-10.265 11.965,-22.351 7.711,-29.588 l 131.574,-75.989 c 0.599,4.151 1.603,8.276 3.005,12.337 0.276,0.783 0.558,1.561 0.863,2.344 0.176,0.745 0.283,1.52 0.283,2.318 0,3.254 -1.539,6.147 -3.914,8.004" /><path
       inkscape:connector-curvature="0"
       id="path32"
       style="fill:#fcd006;fill-opacity:1;fill-rule:nonzero;stroke:none;stroke-width:0.1"
       d="m 94.048,422.17 c -5.6863,-10.07 0.0997,-22.718 9.266,-32.424 l 148.111,-85.536 0.539,-0.313 c 1.401,-0.737 3.01,-1.162 4.718,-1.162 3.075,0 5.826,1.373 7.699,3.538 0.181,0.235 0.37,0.472 0.557,0.707 3.204,3.89 6.79,7.344 10.656,10.345 L 94.048,422.17" /></g></svg>