<svg xmlns="http://www.w3.org/2000/svg" viewBox="0 0 298.75 82.59"><defs><style>.cls-1,.cls-2{fill:#920783;}.cls-1{fill-rule:evenodd;}</style></defs><g id="图层_1" data-name="图层 1"><path class="cls-1" d="M115.88,49.71a8.81,8.81,0,0,1-3.54,7.41q-3.57,2.64-11,2.64-8,0-11.5-2.84c-2.33-1.93-3.49-4.75-3.49-8.49V26h9.22V49.34A5.29,5.29,0,0,0,97,53.43c1,.9,2.76,1.36,5.23,1.36a8.55,8.55,0,0,0,5.1-1.23q1.68-1.22,1.68-4.36V26h6.83Z"/><rect class="cls-2" x="164.83" y="25.95" width="9.21" height="33.41"/><path class="cls-1" d="M260.35,42.51c0-4.16,1-7.13,3-8.93a11.31,11.31,0,0,1,7.95-2.75,17.67,17.67,0,0,1,4.9.6c1.43.4,2.61.77,3.55,1.13V27.2a17.81,17.81,0,0,0-3.47-1,27.14,27.14,0,0,0-5.79-.53q-9.16,0-14.26,4.5a14.92,14.92,0,0,0-5.06,11.66v2.34a14.93,14.93,0,0,0,5.06,11.67q5.08,4.48,14.26,4.5a27.14,27.14,0,0,0,5.79-.53,19.5,19.5,0,0,0,3.47-1V53.39c-.94.36-2.12.72-3.55,1.13a17.67,17.67,0,0,1-4.9.6,11.31,11.31,0,0,1-7.95-2.75q-2.93-2.68-3-8.93c0-.09,0-.17,0-.27v-.39C260.34,42.68,260.35,42.6,260.35,42.51Z"/><path class="cls-1" d="M68.66,36.78V67.46H37.79a6.06,6.06,0,0,1-6.05-6.06V56.67H37.9v4.62H62.43V36.81h-6V55.13H50.22L37.9,39.88V55.13H25.59a6.06,6.06,0,0,1-6.06-6.06V18.33H50.38a6,6,0,0,1,6,6v4.79H50.22V24.59H25.69V49.08h6V30.68H37.9L50.22,46V30.65h12.3A6.14,6.14,0,0,1,68.66,36.78Z"/><polygon class="cls-2" points="146.9 59.16 154.54 59.16 154.54 25.68 146.9 25.68 146.9 49.47 131.14 25.68 123.68 25.68 123.68 59.03 123.69 59.03 123.69 59.13 131.24 59.13 131.24 59.03 131.24 59.03 131.24 37.1 146.9 59.16"/><path class="cls-2" d="M243,29.48c-3-3.06-7.38-4.61-12.89-4.61s-9.84,1.55-12.89,4.61-4.58,7.42-4.58,13,1.54,9.92,4.59,13S224.6,60,230.11,60,240,58.42,243,55.38s4.58-7.4,4.58-12.94S246,32.54,243,29.48Zm-6.44,22.23a8.2,8.2,0,0,1-12.89,0c-1.49-2.11-2.24-5.23-2.24-9.27s.76-7.16,2.26-9.27a8.12,8.12,0,0,1,12.85,0c1.5,2.12,2.26,5.24,2.26,9.26S238,49.6,236.56,51.71Z"/><path class="cls-2" d="M205.78,27l-.42,5a41.84,41.84,0,0,0-4.55-1,25.33,25.33,0,0,0-4-.34,11.64,11.64,0,0,0-5.35,1,3.12,3.12,0,0,0-1.86,2.85A3.18,3.18,0,0,0,191,37a30.31,30.31,0,0,0,6.16,3.13l.73.3q10.35,4.43,10.35,9.59,0,4.44-4.42,7.19t-11.56,2.74a40.48,40.48,0,0,1-5.82-.42,34.79,34.79,0,0,1-5.29-1.15l.65-5.08a31.41,31.41,0,0,0,5.09,1.46,25.5,25.5,0,0,0,5,.49,11.22,11.22,0,0,0,5.52-1.15,3.43,3.43,0,0,0,2-3.06q0-3-7.53-6.14l-1.65-.7c-3.71-1.57-6.24-3-7.6-4.36a6.45,6.45,0,0,1-2-4.76q0-4.17,4.21-6.64t11.42-2.47a43.8,43.8,0,0,1,4.82.27A47.14,47.14,0,0,1,205.78,27Z"/></g></svg>