<?xml version="1.0" encoding="UTF-8"?>
<svg id="Layer_1" xmlns="http://www.w3.org/2000/svg" version="1.1" viewBox="0 0 283.5 96.04">
  <!-- Generator: Adobe Illustrator 30.0.0, SVG Export Plug-In . SVG Version: 2.1.1 Build 123)  -->
  <defs>
    <style>
      .st0 {
        fill: #840029;
      }
    </style>
  </defs>
  <path class="st0" d="M75.49,58.28c0,10.43-3.42,18.85-10.26,25.27-6.84,6.42-15.85,9.63-27.02,9.63s-20.04-3.21-26.83-9.63c-6.8-6.42-10.2-14.84-10.2-25.27V4.24h23.39v54.04c0,4.42,1.25,7.99,3.75,10.7,2.5,2.71,5.8,4.07,9.88,4.07s7.4-1.36,9.94-4.07c2.54-2.71,3.82-6.28,3.82-10.7V4.24h23.52v54.04Z"/>
  <polygon class="st0" points="162.53 91.8 144.39 91.8 111.24 45.14 111.24 91.8 87.85 91.8 87.85 4.24 106.11 4.24 139.14 50.15 139.14 4.24 162.53 4.24 162.53 91.8"/>
  <rect class="st0" x="176.44" y="4.24" width="23.39" height="87.57"/>
  <path class="st0" d="M279.69,10.74l-8.01,16.51c-7.25-4.17-15.05-6.26-23.39-6.26-7.42,0-11.13,2.29-11.13,6.88,0,3.5,2.75,6.21,8.26,8.13l10.76,3.63c8.59,2.92,15.09,6.42,19.51,10.51,4.42,4.09,6.63,9.55,6.63,16.39,0,8.34-3.19,14.87-9.57,19.58-6.38,4.71-15.11,7.07-26.21,7.07-6.92,0-13.55-.92-19.89-2.75-6.34-1.84-11.68-4.38-16.01-7.63l9.01-17.64c9.26,6.59,18.26,9.88,27.02,9.88,3.75,0,6.71-.69,8.88-2.06,2.17-1.38,3.25-3.19,3.25-5.44,0-3.84-2.92-6.71-8.76-8.63l-10.88-3.63c-9.09-3.17-15.6-6.8-19.51-10.88-3.92-4.09-5.88-9.13-5.88-15.14,0-8.09,3-14.51,9.01-19.26,6-4.75,14.18-7.13,24.52-7.13,11.93,0,22.73,2.63,32.4,7.88"/>
</svg>