<svg xmlns="http://www.w3.org/2000/svg" viewBox="0 0 894.87 269.75"><defs><style>.cls-1{fill:none;}.cls-2{fill:#e03127;}.cls-3{fill:#58595b;}</style></defs><title>Asset 1</title><g id="Layer_2" data-name="Layer 2"><g id="logo"><rect class="cls-1" width="894.87" height="269.75"/><rect class="cls-2" x="196.37" y="166.95" width="4.09" height="6.17"/><rect class="cls-2" x="186.41" y="154.31" width="4.12" height="8.54"/><rect class="cls-2" x="196.37" y="154.31" width="4.09" height="8.54"/><rect class="cls-2" x="186.41" y="147.48" width="14.06" height="2.73"/><rect class="cls-2" x="186.41" y="177.19" width="14.06" height="2.76"/><rect class="cls-2" x="186.41" y="166.95" width="4.12" height="6.17"/><rect class="cls-2" x="196.37" y="122.2" width="4.09" height="8.54"/><rect class="cls-2" x="186.41" y="115.34" width="14.06" height="2.76"/><path class="cls-2" d="M186.41,143.37h4.12v-6.5a2,2,0,0,0-2.07-2,2,2,0,0,0-2.05,2Z"/><rect class="cls-2" x="179.51" y="90.06" width="20.95" height="2.73"/><path class="cls-2" d="M198.42,134.84a2,2,0,0,0-2,2v6.5h4.1v-6.5A2,2,0,0,0,198.42,134.84Z"/><rect class="cls-2" x="186.41" y="122.2" width="4.12" height="8.54"/><path class="cls-2" d="M106.72,143.37h4.13v-6.5a2,2,0,0,0-2.08-2,2,2,0,0,0-2,2Z"/><rect class="cls-2" x="96.76" y="122.2" width="4.12" height="8.54"/><path class="cls-2" d="M160.64,76.18v1.38h0v.5h2.74V76.18A4.81,4.81,0,0,0,160,71.6V49.93h-2.74V74.15h1.35A2.07,2.07,0,0,1,160.64,76.18Z"/><rect class="cls-2" x="126.62" y="122.2" width="4.12" height="8.54"/><path class="cls-2" d="M96.76,143.37h4.12v-6.5a2,2,0,0,0-2.08-2,2,2,0,0,0-2,2Z"/><rect class="cls-2" x="96.76" y="166.95" width="4.12" height="6.17"/><path class="cls-2" d="M128.7,134.84a2,2,0,0,0-2.08,2v6.5h4.13v-6.5A2,2,0,0,0,128.7,134.84Z"/><rect class="cls-2" x="116.69" y="122.2" width="4.09" height="8.54"/><rect class="cls-2" x="106.72" y="122.2" width="4.12" height="8.54"/><path class="cls-2" d="M116.69,143.37h4.09v-6.5a2,2,0,0,0-4.09,0Z"/><polygon class="cls-2" points="92.63 122.2 89.89 122.2 89.89 179.94 130.75 179.94 130.75 177.19 92.63 177.19 92.63 150.2 130.75 150.2 130.75 147.48 92.63 147.48 92.63 122.2"/><rect class="cls-2" x="96.76" y="154.31" width="4.12" height="8.54"/><polygon class="cls-2" points="148.08 84.58 169.07 84.58 172.38 96.94 175.24 96.94 171.19 81.85 145.95 81.85 141.9 96.94 144.76 96.94 148.08 84.58"/><rect class="cls-2" x="126.62" y="154.31" width="4.12" height="8.54"/><path class="cls-2" d="M145.3,160.45v22H148v-22a6.17,6.17,0,0,0-6.17-6.14h-.14V157h.14A3.41,3.41,0,0,1,145.3,160.45Z"/><rect class="cls-2" x="126.62" y="166.95" width="4.12" height="6.17"/><rect class="cls-2" x="106.72" y="166.95" width="4.12" height="6.17"/><rect class="cls-2" x="106.72" y="154.31" width="4.12" height="8.54"/><rect class="cls-2" x="116.69" y="166.95" width="4.09" height="6.17"/><rect class="cls-2" x="116.69" y="154.31" width="4.09" height="8.54"/><path class="cls-2" d="M168.89,143.37H173v-6.5a2,2,0,0,0-2.08-2,2,2,0,0,0-2,2Z"/><polygon class="cls-2" points="99.61 92.78 137.64 92.78 137.64 90.06 97.5 90.06 89.92 118.09 130.75 118.09 130.75 115.34 93.52 115.34 99.61 92.78"/><polygon class="cls-2" points="179.51 181.47 182.28 179.94 182.28 102.37 179.51 102.37 179.51 181.47"/><path class="cls-2" d="M169.11,160.45v22h2.74v-22a3.42,3.42,0,0,1,3.43-3.41h.14v-2.73h-.14A6.17,6.17,0,0,0,169.11,160.45Z"/><path class="cls-2" d="M163.38,139.6a4.8,4.8,0,0,0-9.6,0v7.88H141.73v2.72h33.69v-2.72h-12Zm-2.74,7.88h-4.12V139.6a2.06,2.06,0,0,1,4.12,0Z"/><polygon class="cls-2" points="168.2 102.45 158.56 96.92 158.51 96.88 148.96 102.42 148.96 107.13 141.73 107.13 141.73 109.89 151.7 109.89 151.7 103.98 158.53 100.06 165.46 104.01 165.46 109.89 175.42 109.89 175.42 107.13 168.2 107.13 168.2 102.45"/><path class="cls-2" d="M144.14,143.37h4.13v-6.5a2,2,0,0,0-2.05-2,2,2,0,0,0-2.08,2Z"/><path class="cls-2" d="M164.76,182.48v-22a6.19,6.19,0,0,0-12.37,0v22h2.74v-22a3.45,3.45,0,0,1,6.89,0v22Z"/><polygon class="cls-2" points="134.87 179.94 137.64 181.47 137.64 102.37 134.87 102.37 134.87 179.94"/><path class="cls-2" d="M161.33,107.52a2.76,2.76,0,1,0-2.77,2.79A2.77,2.77,0,0,0,161.33,107.52Z"/><rect class="cls-2" x="144.14" y="122.2" width="4.12" height="8.54"/><path class="cls-2" d="M158.65,112.61a12.42,12.42,0,0,0-7.82,2.73h-9.1v2.75h10.12a9.79,9.79,0,0,1,13.61,0h10v-2.75h-8.94A12.53,12.53,0,0,0,158.65,112.61Z"/><path class="cls-2" d="M163.38,130.73v-6.5a4.8,4.8,0,0,0-9.6,0v6.5h2.74v-6.5a2.06,2.06,0,0,1,4.12,0v6.5Z"/><rect class="cls-2" x="168.89" y="122.2" width="4.12" height="8.54"/><polygon class="cls-2" points="145.35 186.57 141.73 184.52 141.73 187.68 144.61 189.3 172.54 189.3 175.42 187.68 175.42 184.52 171.81 186.57 145.35 186.57"/><rect class="cls-3" x="227.23" y="49.93" width="2.77" height="169.89"/><path class="cls-3" d="M261.46,177.16c-2.34-2.31-3.5-5.67-3.5-10.11V148.94h7v17.94q0,3.81,1.64,5.6t5.09,1.8q6.64,0,6.65-7.4V148.94h6.95v18.11c0,4.44-1.15,7.8-3.45,10.11s-5.69,3.45-10.15,3.45S263.79,179.46,261.46,177.16Z"/><path class="cls-3" d="M291.76,157.58h6.07v3.19a7.38,7.38,0,0,1,2.79-2.86,7.67,7.67,0,0,1,3.94-1c2.75,0,4.81.79,6.2,2.37s2.08,3.91,2.08,7V180h-6.51V167.1q0-4.56-3.81-4.56a4,4,0,0,0-3.1,1.22,4.51,4.51,0,0,0-1.15,3.25V180h-6.51Z"/><path class="cls-3" d="M318.87,147.87a3.77,3.77,0,0,1,2.74-1.15,3.64,3.64,0,0,1,2.68,1.15,3.78,3.78,0,0,1,0,5.41,3.64,3.64,0,0,1-2.66,1.15,3.73,3.73,0,0,1-2.74-1.15,3.76,3.76,0,0,1,0-5.41Zm-.53,9.71h6.51V180h-6.51Z"/><path class="cls-3" d="M328.26,157.58h7.49l4.91,13.06,5-13.06h7.49l-10.64,22.85h-3.63Z"/><path class="cls-3" d="M357.9,177.42a11.51,11.51,0,0,1-3.24-8.59,13.37,13.37,0,0,1,1.4-6.21,10.19,10.19,0,0,1,3.92-4.2,11,11,0,0,1,5.8-1.51c3.57,0,6.22,1.05,7.93,3.15s2.57,5,2.57,8.59v1.95H361.4a5,5,0,0,0,1.83,3.48,7.21,7.21,0,0,0,4.28,1.08,20,20,0,0,0,7.49-1.37v5.54a23.15,23.15,0,0,1-3.61,1,23.53,23.53,0,0,1-4.1.31Q361.13,180.61,357.9,177.42Zm11.91-11.25a5.59,5.59,0,0,0-1.24-3,3.65,3.65,0,0,0-2.79-1q-3.4,0-4.25,4Z"/><path class="cls-3" d="M381.37,157.58h6.07v4a7.18,7.18,0,0,1,2.42-3,5.94,5.94,0,0,1,3.48-1.06,9.16,9.16,0,0,1,1.77.17v6.21a8.55,8.55,0,0,0-2.35-.31,5,5,0,0,0-3.52,1.26,4.64,4.64,0,0,0-1.35,3.56V180h-6.52Z"/><path class="cls-3" d="M402.11,180.08a12.15,12.15,0,0,1-3.64-1.55V173a13.35,13.35,0,0,0,3.55,1.88,10.9,10.9,0,0,0,3.59.64c2.06,0,3.1-.57,3.1-1.73a1.67,1.67,0,0,0-.6-1.37,8.14,8.14,0,0,0-2.42-1.06l-2.34-.76a8.35,8.35,0,0,1-3.77-2.34,5.87,5.87,0,0,1-1.28-4,7.24,7.24,0,0,1,1-3.72,7,7,0,0,1,3-2.66,10.8,10.8,0,0,1,4.76-1,12.53,12.53,0,0,1,6.56,1.73v5.76a14.2,14.2,0,0,0-3.08-1.64,9.26,9.26,0,0,0-3.34-.58,3.49,3.49,0,0,0-2,.51,1.55,1.55,0,0,0-.78,1.35,1.65,1.65,0,0,0,.49,1.29,4.06,4.06,0,0,0,1.59.75l2.53.71a9.55,9.55,0,0,1,4.65,2.57,6.35,6.35,0,0,1,1.42,4.3,6.23,6.23,0,0,1-2.35,5,10,10,0,0,1-6.56,2A16.54,16.54,0,0,1,402.11,180.08Z"/><path class="cls-3" d="M420.27,147.87a3.78,3.78,0,0,1,2.75-1.15,3.67,3.67,0,0,1,2.68,1.15,3.76,3.76,0,0,1,1.13,2.71,3.7,3.7,0,0,1-1.16,2.7,3.62,3.62,0,0,1-2.65,1.15,3.74,3.74,0,0,1-2.75-1.15,3.76,3.76,0,0,1,0-5.41Zm-.53,9.71h6.51V180h-6.51Z"/><path class="cls-3" d="M432.76,172.68V162.62h-2.7v-5h2.7v-4.74l6.51-1.51v6.25h5.81v5h-5.81v9.13c0,2.22.89,3.32,2.66,3.32a7.34,7.34,0,0,0,1.57-.15,9.81,9.81,0,0,0,1.58-.51V180q-1.29.35-2.28.51a15.29,15.29,0,0,1-2.24.15Q432.76,180.61,432.76,172.68Z"/><path class="cls-3" d="M457.48,180.26l-10-22.68h7.35L460.4,173l5.5-15.37h7.31l-8.07,19q-1.86,4.43-3.36,7.31a54.58,54.58,0,0,1-3.59,5.84h-6.87A42.11,42.11,0,0,0,457.48,180.26Z"/><path class="cls-3" d="M491.08,179.13a10.24,10.24,0,0,1-4.23-4.17,12.63,12.63,0,0,1-1.46-6.13,12.92,12.92,0,0,1,1.46-6.21,10.32,10.32,0,0,1,4.21-4.2,15,15,0,0,1,13.18,0,10.44,10.44,0,0,1,4.23,4.23,13,13,0,0,1,1.46,6.25,12.41,12.41,0,0,1-1.46,6.09,10.26,10.26,0,0,1-4.21,4.12,13.61,13.61,0,0,1-6.56,1.48A13.86,13.86,0,0,1,491.08,179.13Zm2.53-5.65a5.17,5.17,0,0,0,4.09,1.68,5.08,5.08,0,0,0,4-1.68,6.73,6.73,0,0,0,1.46-4.56,7.21,7.21,0,0,0-1.49-4.81,5.06,5.06,0,0,0-4.09-1.75,5,5,0,0,0-4,1.73,7.08,7.08,0,0,0-1.47,4.74A6.78,6.78,0,0,0,493.61,173.48Z"/><path class="cls-3" d="M518.17,149.71a8.88,8.88,0,0,1,6.51-2.24,9.24,9.24,0,0,1,3.64.58v5.45a7.16,7.16,0,0,0-2.62-.53,3.34,3.34,0,0,0-2.41.82,3,3,0,0,0-.87,2.32v1.47h5.76v5h-5.76V180h-6.51V162.62h-3.14v-5h3.14V156.2C515.91,153.37,516.66,151.2,518.17,149.71Z"/><path class="cls-3" d="M542.4,148.94h7v25h13.29v6H542.4Z"/><path class="cls-3" d="M565.37,183.62a25.67,25.67,0,0,0,1-7.66V157.58h6.52v18a32.1,32.1,0,0,1-.87,8.26,16.34,16.34,0,0,1-2.94,5.82h-6.74A22.44,22.44,0,0,0,565.37,183.62Zm1.49-35.75a3.76,3.76,0,0,1,2.74-1.15,3.64,3.64,0,0,1,2.68,1.15,3.78,3.78,0,0,1,0,5.41,3.64,3.64,0,0,1-2.66,1.15,3.82,3.82,0,0,1-2.74-6.56Z"/><path class="cls-3" d="M580.39,178.24c-1.37-1.58-2.06-3.9-2.06-7V157.58h6.51v12.84q0,4.56,3.59,4.56a3.8,3.8,0,0,0,3-1.19,4.76,4.76,0,0,0,1.07-3.28V157.58H599V180H593v-3.06a7.74,7.74,0,0,1-2.73,2.75,7.39,7.39,0,0,1-3.83,1A7.51,7.51,0,0,1,580.39,178.24Z"/><path class="cls-3" d="M614.1,179.39a8.7,8.7,0,0,1-3.08-3.47v4H605v-31.9h6.52v8.86l-.31,4.12a8.12,8.12,0,0,1,3.07-3,8.61,8.61,0,0,1,4.32-1.09,10.36,10.36,0,0,1,5.16,1.31,9.48,9.48,0,0,1,3.73,4,14.16,14.16,0,0,1,1.39,6.58,14,14,0,0,1-1.39,6.56,9.49,9.49,0,0,1-3.73,4,10.26,10.26,0,0,1-5.16,1.31A8.19,8.19,0,0,1,614.1,179.39Zm-1.57-6a5.45,5.45,0,0,0,8.06,0,6.68,6.68,0,0,0,1.51-4.47,7.22,7.22,0,0,0-1.51-4.72,5.35,5.35,0,0,0-8.06,0,7,7,0,0,0-1.51,4.65A6.8,6.8,0,0,0,612.53,173.37Z"/><path class="cls-3" d="M633.75,148.05h6.51V180h-6.51Z"/><path class="cls-3" d="M645.24,183.62a25.64,25.64,0,0,0,1-7.66V157.58h6.51v18a32.1,32.1,0,0,1-.87,8.26,16.17,16.17,0,0,1-2.94,5.82h-6.73A22.69,22.69,0,0,0,645.24,183.62Zm1.49-35.75a3.77,3.77,0,0,1,2.74-1.15,3.64,3.64,0,0,1,2.68,1.15,3.78,3.78,0,0,1,0,5.41,3.64,3.64,0,0,1-2.66,1.15,3.73,3.73,0,0,1-2.74-1.15,3.76,3.76,0,0,1,0-5.41Z"/><path class="cls-3" d="M659.55,178.71a6.57,6.57,0,0,1-2.06-5.05q0-6.07,8.24-7a28.17,28.17,0,0,0,3-.46,3.6,3.6,0,0,0,1.39-.56,1.07,1.07,0,0,0,.38-.88,2,2,0,0,0-1.09-1.75,6,6,0,0,0-3.21-.69,13.25,13.25,0,0,0-7.49,2.61v-5.53a15.62,15.62,0,0,1,3.75-1.75,14.45,14.45,0,0,1,4.54-.69c3.25,0,5.68.81,7.31,2.44a9.23,9.23,0,0,1,2.43,6.82V180h-5.31l-.18-2.84a6.78,6.78,0,0,1-2.59,2.59,8.41,8.41,0,0,1-9.13-1Zm4.7-3.64a2.79,2.79,0,0,0,2.06.76,4,4,0,0,0,3-1.27,5.61,5.61,0,0,0,1.22-4v-1a9.14,9.14,0,0,1-3.5.88q-3.59.32-3.59,2.79A2.48,2.48,0,0,0,664.25,175.07Z"/><path class="cls-3" d="M682.26,157.58h6.07v3.19a7.38,7.38,0,0,1,2.79-2.86,7.67,7.67,0,0,1,3.94-1c2.75,0,4.81.79,6.2,2.37s2.08,3.91,2.08,7V180h-6.51V167.1q0-4.56-3.81-4.56a4,4,0,0,0-3.1,1.22,4.51,4.51,0,0,0-1.15,3.25V180h-6.51Z"/><path class="cls-3" d="M709.74,178.71a6.57,6.57,0,0,1-2.06-5.05q0-6.07,8.24-7a28.17,28.17,0,0,0,3-.46,3.53,3.53,0,0,0,1.39-.56,1.07,1.07,0,0,0,.38-.88,2,2,0,0,0-1.09-1.75,6,6,0,0,0-3.21-.69,13.25,13.25,0,0,0-7.49,2.61v-5.53a15.62,15.62,0,0,1,3.75-1.75,14.45,14.45,0,0,1,4.54-.69c3.25,0,5.68.81,7.31,2.44a9.23,9.23,0,0,1,2.43,6.82V180h-5.31l-.18-2.84a6.78,6.78,0,0,1-2.59,2.59,8.41,8.41,0,0,1-9.13-1Zm4.7-3.64a2.8,2.8,0,0,0,2.06.76,4,4,0,0,0,3-1.27,5.56,5.56,0,0,0,1.22-4v-1a9.09,9.09,0,0,1-3.5.88q-3.59.32-3.59,2.79A2.48,2.48,0,0,0,714.44,175.07Z"/><polygon class="cls-3" points="470.95 115.17 455.76 115.17 470.48 93.93 470.48 90.06 447.08 90.06 447.08 95.95 461.34 95.95 446.61 117.19 446.61 121.06 470.95 121.06 470.95 115.17"/><path class="cls-3" d="M285.24,108v-18h-7v17.82c0,4.19-1.86,7.44-6.66,7.44-4.19,0-6.67-2.17-6.67-7.44V90.06h-7v18c0,8.37,4.34,13.64,13.64,13.64C280,121.68,285.24,117.49,285.24,108Z"/><polygon class="cls-3" points="406.15 115.17 391.89 115.17 391.89 107.88 404.6 107.88 404.6 101.99 391.89 101.99 391.89 95.95 406 95.95 406 90.06 384.92 90.06 384.92 121.06 406.15 121.06 406.15 115.17"/><polygon class="cls-3" points="322.6 121.06 322.6 90.06 315.78 90.06 315.78 108.04 298.73 90.06 294.85 90.06 294.85 121.06 301.67 121.06 301.67 102.77 318.72 121.06 322.6 121.06"/><path class="cls-3" d="M422.12,110.36h2.48l4.49,5.89c3.1,4.19,5.43,5.59,9.93,5.43v-6.2c-1.86,0-3.26-1.4-5.43-4.34l-1.24-1.71c3.57-1.55,6.51-4.65,6.51-9.3,0-6.2-5-10.07-12.87-10.07H415.3v31h6.82Zm0-14.41h3.72c3.87,0,5.73,1.55,5.73,4.34s-1.86,4.49-5.73,4.49h-3.72Z"/><rect class="cls-3" x="332.52" y="90.06" width="6.98" height="31"/><polygon class="cls-3" points="362.28 110.36 354.07 90.06 346 90.06 359.8 121.06 364.61 121.06 378.4 90.06 370.5 90.06 362.28 110.36"/><path class="cls-3" d="M489.09,90.06h5.27l13.51,31h-8l-2-5.36h-12.4l-2,5.36h-8Zm6.64,20-4-10.67L487.62,110Z"/><path class="cls-3" d="M585.78,96h8.37v22.63c0,3.57-.31,8.53-2.33,11.78h7.29c1.7-3.41,2-7.44,2-12.25v-28H585.78Z"/><polygon class="cls-3" points="572.76 90.06 565.78 90.06 565.78 121.06 585.78 121.06 585.78 115.17 572.76 115.17 572.76 90.06"/><polygon class="cls-3" points="533.69 110.36 525.63 90.06 517.57 90.06 531.21 121.06 536.02 121.06 549.66 90.06 541.75 90.06 533.69 110.36"/><polygon class="cls-3" points="686.54 90.06 679.56 90.06 679.56 121.06 699.56 121.06 699.56 115.17 686.54 115.17 686.54 90.06"/><polygon class="cls-3" points="781.25 108.04 764.2 90.06 760.33 90.06 760.33 121.06 767.15 121.06 767.15 102.77 784.2 121.06 788.07 121.06 788.07 90.06 781.25 90.06 781.25 108.04"/><rect class="cls-3" x="797.99" y="90.06" width="6.98" height="31"/><path class="cls-3" d="M631,107.88c0,4.19-1.86,7.44-6.66,7.44-4.19,0-6.67-2.17-6.67-7.44V90.06h-7v18c0,8.37,4.34,13.64,13.64,13.64,8.37,0,13.64-4.19,13.64-13.64v-18h-7Z"/><path class="cls-3" d="M699.56,96h8.37v22.63c0,3.57-.31,8.53-2.32,11.78h7.28c1.71-3.41,2-7.44,2-12.25v-28H699.56Z"/><path class="cls-3" d="M665.61,104.39A6.65,6.65,0,0,0,669.33,98c0-5.27-3.87-7.9-10.69-7.9h-11v31h12.25c7,0,11.31-2.32,11.31-8.68C671.19,108.44,669.37,105.53,665.61,104.39Zm-10.85-8.75h2.79c3.1,0,4.65,1.08,4.65,3.41,0,2.48-1.55,3.56-4.65,3.56h-2.79ZM659,115.32h-4.19V108H659c3.41,0,5,1.24,5,3.72C663.91,114.08,662.36,115.32,659,115.32Z"/><path class="cls-3" d="M735.05,90.06h5.27l13.51,31h-8l-2-5.36h-12.4l-2,5.36h-8Zm6.64,20-4-10.67L733.59,110Z"/></g></g></svg>