<?xml version="1.0" encoding="UTF-8" standalone="no"?>
<!DOCTYPE svg PUBLIC "-//W3C//DTD SVG 1.1//EN" "http://www.w3.org/Graphics/SVG/1.1/DTD/svg11.dtd">
<svg xmlns="http://www.w3.org/2000/svg" xmlns:xlink="http://www.w3.org/1999/xlink" version="1.1" width="552.756pt" height="198.425pt" viewBox="0 0 552.756 198.425">
<g enable-background="new">
<clipPath id="cp0">
<path transform="matrix(1,0,0,-1,0,198.425)" d="M 0 0 L 552.756 0 L 552.756 198.425 L 0 198.425 Z "/>
</clipPath>
<g clip-path="url(#cp0)">
<path transform="matrix(1,0,0,-1,245.0037,100.498508)" d="M 0 0 L 17.159 0 C 25.199 0 30.379 4.046 30.379 11.329 C 30.379 15.59 28.383 18.665 24.876 20.338 C 28.167 22.01 29.894 24.977 29.894 28.591 C 29.894 35.335 24.929 39.381 16.943 39.381 L 0 39.381 Z M 16.728 17.425 C 22.178 17.425 24.498 15.159 24.498 11.437 C 24.498 7.768 21.8 5.395 17.159 5.395 L 5.774 5.395 L 5.774 17.425 Z M 16.943 34.04 C 21.584 34.04 24.012 31.99 24.012 28.591 C 24.012 25.301 21.854 22.873 17.105 22.873 L 5.774 22.873 L 5.774 34.04 Z M 38.797 0 L 44.624 0 L 44.624 16.4 C 44.624 21.632 47.268 23.682 51.423 23.682 C 53.096 23.682 54.283 23.359 55.093 22.819 L 57.359 28.43 C 56.226 29.131 54.445 29.562 52.449 29.562 C 48.725 29.562 45.758 27.728 44.516 24.06 L 44.516 29.131 L 38.797 29.131 Z M 74.734 -.593 C 81.047 -.593 85.256 2.212 88.062 6.42 L 83.259 9.279 C 81.533 6.474 78.835 4.585 74.734 4.585 C 69.392 4.585 65.722 7.714 64.859 12.408 L 89.357 12.408 L 89.357 14.835 C 89.357 23.467 82.989 29.724 74.41 29.724 C 65.83 29.724 59.247 23.035 59.247 14.458 C 59.247 5.988 65.453 -.593 74.734 -.593 M 74.41 24.599 C 79.212 24.599 82.612 21.956 83.475 17.371 L 65.075 17.371 C 66.208 21.578 69.769 24.599 74.41 24.599 M 97.18 0 L 103.008 0 L 103.008 16.292 C 103.008 21.794 105.652 24.599 109.969 24.599 C 114.394 24.599 116.39 21.902 116.39 17.479 L 116.39 0 L 122.272 0 L 122.272 16.561 C 122.272 21.902 124.97 24.599 129.125 24.599 C 133.711 24.599 135.708 21.632 135.708 17.101 L 135.708 0 L 141.697 0 L 141.697 17.425 C 141.697 24.923 137.974 29.724 129.988 29.724 C 125.671 29.724 122.326 27.674 120.491 24.599 C 118.926 27.782 115.851 29.724 111.21 29.724 C 107.487 29.724 104.735 28.214 102.954 25.786 L 102.954 29.131 L 97.18 29.131 Z M 164.306 -.593 C 170.619 -.593 174.828 2.212 177.634 6.42 L 172.832 9.279 C 171.105 6.474 168.407 4.585 164.306 4.585 C 158.964 4.585 155.295 7.714 154.431 12.408 L 178.929 12.408 L 178.929 14.835 C 178.929 23.467 172.562 29.724 163.982 29.724 C 155.403 29.724 148.82 23.035 148.82 14.458 C 148.82 5.988 155.025 -.593 164.306 -.593 M 163.982 24.599 C 168.785 24.599 172.184 21.956 173.047 17.371 L 154.647 17.371 C 155.78 21.578 159.342 24.599 163.982 24.599 M 186.753 0 L 192.58 0 L 192.58 16.076 C 192.58 21.309 195.98 24.599 200.405 24.599 C 205.261 24.599 207.851 21.417 207.851 16.454 L 207.851 0 L 213.733 0 L 213.733 16.885 C 213.733 24.869 209.146 29.724 201.754 29.724 C 197.707 29.724 194.469 27.89 192.472 25.085 L 192.472 29.131 L 186.753 29.131 Z " fill="#231f20"/>
<path transform="matrix(1,0,0,-1,260.0585,42.56331)" d="M 0 0 C 8.957 0 15.271 5.88 15.271 15.321 L 15.271 39.92 L 9.281 39.92 L 9.281 14.997 C 9.281 9.656 5.558 5.503 .054 5.503 C -5.45 5.503 -9.227 9.656 -9.227 14.997 L -9.227 39.92 L -15.217 39.92 L -15.217 15.321 C -15.217 5.88 -8.957 0 0 0 M 24.065 .539 L 29.893 .539 L 29.893 16.615 C 29.893 21.848 33.292 25.139 37.717 25.139 C 42.574 25.139 45.164 21.956 45.164 16.993 L 45.164 .539 L 51.045 .539 L 51.045 17.425 C 51.045 25.409 46.459 30.264 39.066 30.264 C 35.019 30.264 31.782 28.43 29.785 25.624 L 29.785 29.67 L 24.065 29.67 Z M 60.326 .539 L 66.208 .539 L 66.208 29.67 L 60.326 29.67 Z M 59.139 38.41 C 59.139 36.036 60.812 34.256 63.24 34.256 C 65.668 34.256 67.395 36.036 67.395 38.41 C 67.395 40.783 65.668 42.564 63.24 42.564 C 60.866 42.564 59.139 40.783 59.139 38.41 M 83.906 .539 L 89.625 .539 L 101.712 29.67 L 95.669 29.67 L 86.981 7.768 L 78.618 29.67 L 72.466 29.67 Z M 120.328 -.054 C 126.642 -.054 130.851 2.751 133.656 6.959 L 128.854 9.818 C 127.127 7.013 124.429 5.125 120.328 5.125 C 114.986 5.125 111.317 8.254 110.454 12.947 L 134.951 12.947 L 134.951 15.375 C 134.951 24.006 128.584 30.264 120.005 30.264 C 111.425 30.264 104.842 23.574 104.842 14.997 C 104.842 6.527 111.047 -.054 120.328 -.054 M 120.005 25.139 C 124.807 25.139 128.206 22.496 129.07 17.91 L 110.67 17.91 C 111.803 22.118 115.364 25.139 120.005 25.139 M 143.261 .539 L 149.088 .539 L 149.088 16.939 C 149.088 22.172 151.732 24.222 155.887 24.222 C 157.56 24.222 158.747 23.898 159.557 23.359 L 161.823 28.969 C 160.69 29.67 158.909 30.102 156.913 30.102 C 153.189 30.102 150.222 28.268 148.98 24.599 L 148.98 29.67 L 143.261 29.67 Z M 176.392 -.054 C 184.432 -.108 188.263 4.909 188.263 9.171 C 188.263 15.213 182.759 16.885 177.903 17.91 C 173.478 18.881 170.834 19.421 170.834 21.74 C 170.834 23.79 172.561 25.463 176.122 25.463 C 179.252 25.463 181.356 24.168 182.813 22.01 L 187.831 24.869 C 185.295 28.322 181.572 30.318 176.122 30.318 C 169.269 30.372 164.898 26.164 164.898 21.632 C 164.898 15.698 170.132 14.08 175.043 13.055 C 178.874 12.246 182.435 11.652 182.435 9.117 C 182.435 6.905 180.439 5.017 176.662 5.017 C 173.046 5.017 170.564 6.581 168.783 9.333 L 163.549 6.366 C 166.031 2.158 170.24 -.054 176.392 -.054 M 196.518 .539 L 202.40001 .539 L 202.40001 29.67 L 196.518 29.67 Z M 195.331 38.41 C 195.331 36.036 197.004 34.256 199.432 34.256 C 201.86 34.256 203.587 36.036 203.587 38.41 C 203.587 40.783 201.86 42.564 199.432 42.564 C 197.058 42.564 195.331 40.783 195.331 38.41 M 210.169 24.438 L 215.943 24.438 L 215.943 10.034 C 215.943 2.859 219.288 0 225.062 0 C 227.49 0 229.541 .647 231.213 1.78 L 228.461 6.635 C 227.544 5.826 226.627 5.503 225.494 5.503 C 223.227 5.503 221.663 6.905 221.663 10.088 L 221.663 24.438 L 229.81 24.438 L 229.81 29.67 L 221.663 29.67 L 221.663 39.704 L 215.943 35.982 L 215.943 29.67 L 210.169 29.67 Z M 246.484 -.054 C 251.34 -.054 255.603 2.212 257.923 5.664 L 257.923 .539 L 263.535 .539 L 263.535 18.557 C 263.535 25.624 258.787 30.264 250.423 30.264 C 244.164 30.264 239.685 27.459 236.825 23.628 L 242.005 20.607 C 243.678 23.467 246.538 25.301 250.369 25.301 C 255.549 25.301 257.923 22.603 257.923 18.719 L 257.923 18.234 L 249.29 18.234 C 241.142 18.234 236.178 14.565 236.178 8.577 C 236.178 3.668 239.739 -.054 246.484 -.054 M 247.725 5.017 C 243.84 5.017 242.113 6.527 242.113 9.063 C 242.113 11.922 244.272 13.594 249.668 13.594 L 257.923 13.594 L 257.923 11.167 C 256.035 7.337 251.88 5.017 247.725 5.017 M 241.142 36.845 C 241.142 34.687 242.599 33.177 244.811 33.177 C 246.97 33.177 248.48 34.687 248.48 36.845 C 248.48 39.003 246.97 40.514 244.811 40.514 C 242.653 40.514 241.142 39.003 241.142 36.845 M 252.312 36.845 C 252.312 34.687 253.822 33.177 255.981 33.177 C 258.139 33.177 259.704 34.687 259.704 36.845 C 259.704 39.003 258.139 40.514 255.981 40.514 C 253.876 40.514 252.312 39.003 252.312 36.845 M 269.795 24.438 L 275.568 24.438 L 275.568 10.034 C 275.568 2.859 278.914 0 284.688 0 C 287.116 0 289.166 .647 290.839 1.78 L 288.087 6.635 C 287.17 5.826 286.253 5.503 285.119 5.503 C 282.853 5.503 281.288 6.905 281.288 10.088 L 281.288 24.438 L 289.436 24.438 L 289.436 29.67 L 281.288 29.67 L 281.288 39.704 L 275.568 35.982 L 275.568 29.67 L 269.795 29.67 Z " fill="#231f20"/>
<path transform="matrix(1,0,0,-1,48.9577,101.9105)" d="M 0 0 C -.015 -26.851 22.257 -47.882 48.987 -47.882 C 75.938 -47.882 97.909 -26.819 97.909 0 L 97.909 99.319 L 73.441 99.319 L 73.441 0 C 73.441 -13.41 62.477 -23.574 48.987 -23.574 C 35.893 -23.574 24.486 -13.013 24.486 0 L 24.486 99.319 L 0 99.319 Z " fill="#d11b39"/>
<path transform="matrix(1,0,0,-1,171.348,2.5912019)" d="M 0 0 L 0 -99.324 C 0 -139.522 -32.997 -171.512 -73.456 -171.512 C -113.961 -171.512 -146.862 -139.522 -146.862 -99.324 L -146.862 0 L -171.348 0 L -171.348 -99.324 C -171.348 -152.931 -127.422 -195.834 -73.456 -195.834 C -19.504 -195.834 24.486 -152.931 24.486 -99.324 L 24.486 0 Z " fill="#d11b39"/>
</g>
</g>
</svg>
