<?xml version="1.0" encoding="UTF-8" standalone="no"?>
<svg
   xmlns:dc="http://purl.org/dc/elements/1.1/"
   xmlns:cc="http://creativecommons.org/ns#"
   xmlns:rdf="http://www.w3.org/1999/02/22-rdf-syntax-ns#"
   xmlns:svg="http://www.w3.org/2000/svg"
   xmlns="http://www.w3.org/2000/svg"
   viewBox="0 0 896.62665 819.12"
   height="819.12"
   width="896.62665"
   xml:space="preserve"
   id="svg2"
   version="1.1"><metadata
     id="metadata8"><rdf:RDF><cc:Work
         rdf:about=""><dc:format>image/svg+xml</dc:format><dc:type
           rdf:resource="http://purl.org/dc/dcmitype/StillImage" /></cc:Work></rdf:RDF></metadata><defs
     id="defs6" /><g
     transform="matrix(1.3333333,0,0,-1.3333333,0,819.12)"
     id="g10"><g
       transform="scale(0.1)"
       id="g12"><path
         id="path14"
         style="fill:#131213;fill-opacity:1;fill-rule:evenodd;stroke:none"
         d="m 4942.66,4966.24 h -1801.4 v -393.49 h 1798.58 c 90.76,0 164.6,-70.07 164.6,-160.73 0,-90.66 -73.84,-165.05 -164.6,-165.05 h -421.33 l -0.29,-393.28 h 223.82 l 362.19,-719.77 h 443.17 l -385.63,762.51 c 197.86,85.92 336.59,283.02 336.59,511.91 0,306.69 -249.03,556.34 -555.7,557.86 v 0.04" /><path
         id="path16"
         style="fill:#131213;fill-opacity:1;fill-rule:evenodd;stroke:none"
         d="M 4125,3853.79 H 1796.94 v 393.08 H 4125 v -393.08" /><path
         id="path18"
         style="fill:#131213;fill-opacity:1;fill-rule:evenodd;stroke:none"
         d="M 4522.72,3133.92 H 2161.03 V 3527 h 2361.69 v -393.08" /><path
         id="path20"
         style="fill:#131213;fill-opacity:1;fill-rule:evenodd;stroke:none"
         d="M 2747.27,4966.23 H 1177.11 v -262.16 h -0.08 V 3133.92 h 393.08 v 1439.23 h 1177.16 v 393.08" /><path
         id="path22"
         style="fill:#100f0d;fill-opacity:1;fill-rule:nonzero;stroke:none"
         d="m 1177.88,2437.41 v 78.19 h 14.28 v -78.87 c 0,-17.5 12.24,-28.38 30.59,-28.38 18.54,0 30.78,10.88 30.78,28.38 v 78.87 h 14.11 v -78.19 c 0,-26.01 -17.85,-42.16 -44.89,-42.16 -27.02,0 -44.87,16.15 -44.87,42.16" /><path
         id="path24"
         style="fill:#100f0d;fill-opacity:1;fill-rule:nonzero;stroke:none"
         d="m 1290.76,2515.6 h 16.49 l 61.36,-96.88 v 96.88 h 14.46 v -118.99 h -16.66 l -61.2,96.55 v -96.55 h -14.45 v 118.99" /><path
         id="path26"
         style="fill:#100f0d;fill-opacity:1;fill-rule:nonzero;stroke:none"
         d="m 1408.23,2515.6 h 14.46 v -118.99 h -14.46 v 118.99" /><path
         id="path28"
         style="fill:#100f0d;fill-opacity:1;fill-rule:nonzero;stroke:none"
         d="m 1436.46,2515.6 h 14.96 l 37.39,-102.16 37.73,102.16 h 14.79 l -45.04,-118.99 h -14.79 l -45.04,118.99" /><path
         id="path30"
         style="fill:#100f0d;fill-opacity:1;fill-rule:nonzero;stroke:none"
         d="m 1555.11,2515.6 h 74.45 v -13.09 h -60 v -37.9 h 48.78 v -13.1 h -48.78 v -41.81 h 61.87 v -13.09 h -76.32 v 118.99" /><path
         id="path32"
         style="fill:#100f0d;fill-opacity:1;fill-rule:nonzero;stroke:none"
         d="m 1665.78,2458.15 h 30.6 c 16.66,0 22.95,10.88 22.95,22.6 0,11.74 -6.29,21.93 -22.95,21.93 h -30.6 z m 65.61,-31.96 2.04,-29.58 h -13.94 l -2.04,28.73 c -0.68,11.56 -8.15,19.73 -19.37,19.73 h -32.3 v -48.46 h -14.45 v 118.99 h 45.05 c 23.45,0 37.9,-14.11 37.9,-34.85 0,-13.09 -7.48,-22.43 -18.69,-27.7 9.34,-5.1 14.95,-14.79 15.8,-26.86" /><path
         id="path34"
         style="fill:#100f0d;fill-opacity:1;fill-rule:nonzero;stroke:none"
         d="m 1754.52,2435.53 h 14.28 c 1.53,-16.48 12.41,-27.18 30.94,-27.18 16.49,0 28.39,6.29 28.39,20.73 0,30.6 -69.53,13.77 -69.53,56.26 0,18.87 16.49,31.62 40.29,31.62 23.8,0 40.29,-13.77 41.99,-35.19 h -14.29 c -1.36,13.43 -11.73,22.1 -27.7,22.1 -16.15,0 -25.67,-7.13 -25.67,-18.53 0,-30.42 70.03,-11.55 70.03,-56.26 0,-21.59 -18.69,-33.83 -43.51,-33.83 -26.69,0 -43.69,15.99 -45.22,40.28" /><path
         id="path36"
         style="fill:#100f0d;fill-opacity:1;fill-rule:nonzero;stroke:none"
         d="m 1862.13,2515.6 h 14.45 v -118.99 h -14.45 v 118.99" /><path
         id="path38"
         style="fill:#100f0d;fill-opacity:1;fill-rule:nonzero;stroke:none"
         d="m 1929.28,2502.51 h -38.08 v 13.09 h 90.6 v -13.09 h -37.9 v -105.9 h -14.62 v 105.9" /><path
         id="path40"
         style="fill:#100f0d;fill-opacity:1;fill-rule:nonzero;stroke:none"
         d="m 2026.68,2446.41 -42.15,69.19 h 16.49 l 32.97,-55.24 32.81,55.24 h 16.49 l -42.16,-69.19 v -49.8 h -14.45 v 49.8" /><path
         id="path42"
         style="fill:#100f0d;fill-opacity:1;fill-rule:nonzero;stroke:none"
         d="m 2233.56,2456.1 c 0,27.37 -18.52,47.77 -43.51,47.77 -24.98,0 -43.34,-20.4 -43.34,-47.77 0,-27.36 18.36,-47.75 43.34,-47.75 24.99,0 43.51,20.39 43.51,47.75 z m -101.81,0 c 0,35.02 24.81,60.86 58.3,60.86 33.49,0 58.48,-25.84 58.48,-60.86 0,-35.01 -24.99,-60.85 -58.48,-60.85 -33.49,0 -58.3,25.84 -58.3,60.85" /><path
         id="path44"
         style="fill:#100f0d;fill-opacity:1;fill-rule:nonzero;stroke:none"
         d="m 2268.09,2515.6 h 74.45 v -13.09 h -60 v -39.26 h 48.78 v -13.09 h -48.78 v -53.55 h -14.45 v 118.99" /><path
         id="path46"
         style="fill:#100f0d;fill-opacity:1;fill-rule:nonzero;stroke:none"
         d="m 2395.92,2409.7 72.75,92.81 h -68.84 v 13.09 h 85.5 v -13.09 l -71.39,-92.81 h 71.57 v -13.09 h -89.59 v 13.09" /><path
         id="path48"
         style="fill:#100f0d;fill-opacity:1;fill-rule:nonzero;stroke:none"
         d="m 2568.46,2441.66 -21.42,56.09 -21.59,-56.09 z m 5.09,-12.92 h -53.02 l -12.41,-32.13 h -15.13 l 47.42,118.99 h 13.09 l 47.43,-118.99 h -15.13 l -12.25,32.13" /><path
         id="path50"
         style="fill:#100f0d;fill-opacity:1;fill-rule:nonzero;stroke:none"
         d="m 2609.27,2456.1 c 0,40.64 27.88,60.86 57.45,60.86 27.2,0 48.45,-16.15 51.17,-38.93 h -15.3 c -2.72,15.13 -17.68,25.84 -36.04,25.84 -24.48,0 -42.5,-16.83 -42.5,-47.77 0,-30.76 18.02,-48.1 42.5,-48.1 19.55,0 36.89,11.05 36.89,28.22 0,5.44 -3.57,9 -9.35,9 h -26.85 v 12.59 h 29.4 c 8.67,0 21.07,-6.81 21.07,-20.4 v -40.8 h -13.42 v 20.74 c -5.61,-13.08 -20.4,-22.1 -37.9,-22.1 -29.42,0 -57.12,20.23 -57.12,60.85" /><path
         id="path52"
         style="fill:#100f0d;fill-opacity:1;fill-rule:nonzero;stroke:none"
         d="m 2753.26,2458.15 h 30.6 c 16.66,0 22.95,10.88 22.95,22.6 0,11.74 -6.29,21.93 -22.95,21.93 h -30.6 z m 65.61,-31.96 2.04,-29.58 h -13.94 l -2.04,28.73 c -0.68,11.56 -8.15,19.73 -19.37,19.73 h -32.3 v -48.46 h -14.45 v 118.99 h 45.05 c 23.45,0 37.9,-14.11 37.9,-34.85 0,-13.09 -7.48,-22.43 -18.69,-27.7 9.34,-5.1 14.95,-14.79 15.8,-26.86" /><path
         id="path54"
         style="fill:#100f0d;fill-opacity:1;fill-rule:nonzero;stroke:none"
         d="m 2848.63,2515.6 h 74.46 v -13.09 h -60 v -37.9 h 48.78 v -13.1 h -48.78 v -41.81 h 61.86 v -13.09 h -76.32 v 118.99" /><path
         id="path56"
         style="fill:#100f0d;fill-opacity:1;fill-rule:nonzero;stroke:none"
         d="m 2987.69,2409.7 c 17.51,0 26.52,7.65 26.52,21.76 0,14.28 -9.01,21.93 -26.52,21.93 h -28.38 v -43.69 z m -0.68,56.61 c 14.28,0 22.27,6.12 22.27,18.36 0,12.23 -7.99,18.19 -22.27,18.19 h -27.7 v -36.55 z m -42.16,49.29 h 42.5 c 22.61,0 36.38,-11.22 36.38,-30.59 0,-11.06 -7.82,-19.9 -15.81,-23.29 12.24,-4.08 21.07,-13.77 21.07,-30.42 0,-21.43 -14.44,-34.69 -38.92,-34.69 h -45.22 v 118.99" /><path
         id="path58"
         style="fill:#131213;fill-opacity:1;fill-rule:nonzero;stroke:none"
         d="m 1177.84,2146.53 h 158.19 v -32.41 h -121.55 v -73.63 h 98.29 v -32.41 h -98.29 v -108.16 h -36.64 v 246.61" /><path
         id="path60"
         style="fill:#131213;fill-opacity:1;fill-rule:nonzero;stroke:none"
         d="m 1477.3,1977.77 v 4.24 h -45.8 c -23.25,0 -38.4,-11.98 -38.4,-30.65 0,-16.21 13.39,-27.13 33.12,-27.13 32.42,0 51.08,20.78 51.08,53.54 z m 34.17,36.65 v -114.5 h -34.17 v 28.89 c -8.45,-19.03 -31,-31.71 -57.78,-31.71 -36.28,0 -60.24,21.85 -60.24,53.55 0,34.18 27.13,55.31 69.05,55.31 h 37 c 8.1,0 11.97,4.23 11.97,10.57 0,21.49 -15.49,36.29 -42.98,36.29 -24.66,0 -42.63,-15.51 -43.69,-33.47 h -31.7 c 2.81,34.88 34.52,60.95 76.45,60.95 45.8,0 76.09,-26.42 76.09,-65.88" /><path
         id="path62"
         style="fill:#131213;fill-opacity:1;fill-rule:nonzero;stroke:none"
         d="m 1534.37,1988.7 c 0,48.98 32.06,91.6 88.08,91.6 41.58,0 77.51,-24.66 82.44,-64.82 h -34.17 c -3.17,20.07 -23.61,34.87 -47.56,34.87 -35.58,0 -53.19,-27.48 -53.19,-61.65 0,-34.17 17.96,-61.65 53.19,-61.65 24.31,0 42.27,12.68 47.91,32.76 h 33.82 c -5.63,-37.34 -37.34,-62.71 -82.44,-62.71 -56.02,0 -88.08,42.63 -88.08,91.6" /><path
         id="path64"
         style="fill:#131213;fill-opacity:1;fill-rule:nonzero;stroke:none"
         d="m 1888.45,1899.92 h -34.18 v 31.35 c -9.51,-22.19 -30.65,-34.17 -57.07,-34.17 -40.16,0 -66.23,28.89 -66.23,71.16 v 109.22 h 34.17 v -102.52 c 0,-28.19 16.56,-47.21 41.57,-47.21 27.84,0 47.56,22.55 47.56,53.56 v 96.17 h 34.18 v -177.56" /><path
         id="path66"
         style="fill:#131213;fill-opacity:1;fill-rule:nonzero;stroke:none"
         d="m 1927.56,2151.81 h 34.18 v -251.89 h -34.18 v 251.89" /><path
         id="path68"
         style="fill:#131213;fill-opacity:1;fill-rule:nonzero;stroke:none"
         d="m 2055.1,2133.15 v -55.67 h 52.5 v -29.59 h -52.5 v -87.37 c 0,-19.03 10.22,-29.6 27.48,-29.6 h 25.02 v -31 h -27.83 c -35.94,0 -58.84,21.85 -58.84,58.13 v 89.84 h -36.29 v 29.59 h 36.29 v 55.67 h 34.17" /><path
         id="path70"
         style="fill:#131213;fill-opacity:1;fill-rule:nonzero;stroke:none"
         d="m 2213.99,1906.26 -26.76,-78.22 h -32.78 l 23.96,70.12 -65.88,179.32 h 35.23 l 46.51,-133.17 46.85,133.17 h 35.24 l -62.37,-171.22" /><path
         id="path72"
         style="fill:#131213;fill-opacity:1;fill-rule:nonzero;stroke:none"
         d="m 2508.18,1988.7 c 0,36.29 -22.9,61.65 -56.37,61.65 -33.82,0 -56.72,-25.36 -56.72,-61.65 0,-36.29 22.9,-61.65 56.72,-61.65 33.47,0 56.37,25.36 56.37,61.65 z m -147.97,0 c 0,53.2 38.4,91.6 91.6,91.6 53.19,0 91.25,-38.4 91.25,-91.6 0,-53.2 -38.06,-91.6 -91.25,-91.6 -53.2,0 -91.6,38.4 -91.6,91.6" /><path
         id="path74"
         style="fill:#131213;fill-opacity:1;fill-rule:nonzero;stroke:none"
         d="m 2590.63,2047.89 h -36.3 v 29.59 h 36.3 v 17.26 c 0,34.89 22.9,57.07 58.48,57.07 h 29.23 v -29.59 h -26.77 c -16.21,0 -26.78,-10.92 -26.78,-28.54 v -16.2 h 53.55 v -29.59 h -53.55 v -147.97 h -34.16 v 147.97" /><path
         id="path76"
         style="fill:#131213;fill-opacity:1;fill-rule:nonzero;stroke:none"
         d="m 2779.46,2146.53 h 158.19 v -32.41 H 2816.1 v -70.81 h 98.29 v -32.41 h -98.29 v -78.57 h 125.42 v -32.41 h -162.06 v 246.61" /><path
         id="path78"
         style="fill:#131213;fill-opacity:1;fill-rule:nonzero;stroke:none"
         d="m 2972.88,2151.81 h 34.18 v -251.89 h -34.18 v 251.89" /><path
         id="path80"
         style="fill:#131213;fill-opacity:1;fill-rule:nonzero;stroke:none"
         d="m 3070.12,2007.72 h 100.75 c -2.11,27.13 -20.42,45.1 -49.66,45.1 -27.84,0 -45.81,-15.51 -51.09,-45.1 z m 136.7,-50.02 c -6.35,-36.65 -38.41,-60.6 -82.09,-60.6 -54.96,0 -89.14,43.33 -89.14,92.66 0,49.68 31.01,90.54 85.62,90.54 54.96,0 84.2,-39.1 84.2,-84.2 0,-4.58 -0.35,-10.22 -0.71,-13.39 h -135.64 c 2.82,-33.46 24.67,-56.37 55.67,-56.37 26.07,0 42.98,11.27 47.92,31.36 h 34.17" /><path
         id="path82"
         style="fill:#131213;fill-opacity:1;fill-rule:nonzero;stroke:none"
         d="m 3223.73,1988.7 c 0,48.98 32.06,91.6 88.07,91.6 41.58,0 77.51,-24.66 82.44,-64.82 h -34.17 c -3.17,20.07 -23.61,34.87 -47.56,34.87 -35.58,0 -53.19,-27.48 -53.19,-61.65 0,-34.17 17.96,-61.65 53.19,-61.65 24.31,0 42.28,12.68 47.91,32.76 h 33.82 c -5.63,-37.34 -37.34,-62.71 -82.44,-62.71 -56.01,0 -88.07,42.63 -88.07,91.6" /><path
         id="path84"
         style="fill:#131213;fill-opacity:1;fill-rule:nonzero;stroke:none"
         d="m 3474.93,2133.15 v -55.67 h 52.5 v -29.59 h -52.5 v -87.37 c 0,-19.03 10.22,-29.6 27.48,-29.6 h 25.02 v -31 h -27.83 c -35.94,0 -58.84,21.85 -58.84,58.13 v 89.84 h -36.29 v 29.59 h 36.29 v 55.67 h 34.17" /><path
         id="path86"
         style="fill:#131213;fill-opacity:1;fill-rule:nonzero;stroke:none"
         d="m 3627.48,2047.89 c -32.41,0 -42.97,-28.89 -42.97,-67.65 v -80.32 h -34.18 v 177.56 h 34.18 v -34.17 c 8.1,23.6 22.18,34.17 47.2,34.17 h 21.49 v -29.59 h -25.72" /><path
         id="path88"
         style="fill:#131213;fill-opacity:1;fill-rule:nonzero;stroke:none"
         d="m 3675.05,2077.48 h 34.17 v -177.56 h -34.17 z m 36.64,74.7 v -44.4 h -38.75 v 44.4 h 38.75" /><path
         id="path90"
         style="fill:#131213;fill-opacity:1;fill-rule:nonzero;stroke:none"
         d="m 3735.99,1988.7 c 0,48.98 32.06,91.6 88.08,91.6 41.57,0 77.51,-24.66 82.44,-64.82 h -34.17 c -3.17,20.07 -23.61,34.87 -47.56,34.87 -35.58,0 -53.2,-27.48 -53.2,-61.65 0,-34.17 17.97,-61.65 53.2,-61.65 24.31,0 42.28,12.68 47.91,32.76 h 33.82 c -5.63,-37.34 -37.34,-62.71 -82.44,-62.71 -56.02,0 -88.08,42.63 -88.08,91.6" /><path
         id="path92"
         style="fill:#131213;fill-opacity:1;fill-rule:nonzero;stroke:none"
         d="m 4044.27,1977.77 v 4.24 h -45.8 c -23.26,0 -38.4,-11.98 -38.4,-30.65 0,-16.21 13.38,-27.13 33.11,-27.13 32.42,0 51.09,20.78 51.09,53.54 z m 34.17,36.65 v -114.5 h -34.17 v 28.89 c -8.45,-19.03 -31,-31.71 -57.79,-31.71 -36.27,0 -60.23,21.85 -60.23,53.55 0,34.18 27.12,55.31 69.05,55.31 h 36.99 c 8.11,0 11.98,4.23 11.98,10.57 0,21.49 -15.5,36.29 -42.99,36.29 -24.66,0 -42.62,-15.51 -43.68,-33.47 h -31.71 c 2.82,34.88 34.53,60.95 76.45,60.95 45.81,0 76.1,-26.42 76.1,-65.88" /><path
         id="path94"
         style="fill:#131213;fill-opacity:1;fill-rule:nonzero;stroke:none"
         d="m 4113.32,2151.81 h 34.17 v -251.89 h -34.17 v 251.89" /><path
         id="path96"
         style="fill:#131213;fill-opacity:1;fill-rule:nonzero;stroke:none"
         d="m 1177.84,1785.19 h 158.19 v -32.42 h -121.55 v -70.81 h 98.29 v -32.41 h -98.29 v -78.57 h 125.41 v -32.41 h -162.05 v 246.62" /><path
         id="path98"
         style="fill:#131213;fill-opacity:1;fill-rule:nonzero;stroke:none"
         d="m 1369.5,1716.13 h 34.18 v -31.35 c 9.5,22.2 30.65,34.17 57.07,34.17 40.16,0 66.23,-28.89 66.23,-71.16 v -109.22 h -34.17 v 102.52 c 0,28.18 -16.56,47.21 -41.58,47.21 -27.83,0 -47.55,-22.55 -47.55,-53.55 v -96.18 h -34.18 v 177.56" /><path
         id="path100"
         style="fill:#131213;fill-opacity:1;fill-rule:nonzero;stroke:none"
         d="m 1699.62,1627.35 c 0,37.34 -21.5,61.65 -54.61,61.65 -32.76,0 -54.26,-24.31 -54.26,-61.65 0,-37.34 21.5,-61.65 54.26,-61.65 33.11,0 54.61,24.31 54.61,61.65 z m 31.71,88.78 v -186.01 c 0,-37.35 -27.13,-63.43 -65.89,-63.43 h -85.61 v 28.54 h 82.08 c 20.44,0 35.24,15.51 35.24,37 v 28.89 c -8.45,-15.15 -31,-25.37 -56.01,-25.37 -54.61,0 -85.26,38.75 -85.26,91.6 0,52.85 30.65,91.6 84.9,91.6 23.6,0 45.46,-10.92 56.37,-26.42 v 23.6 h 34.18" /><path
         id="path102"
         style="fill:#131213;fill-opacity:1;fill-rule:nonzero;stroke:none"
         d="m 1770.08,1716.13 h 34.17 v -177.56 h -34.17 z m 36.64,74.7 v -44.4 h -38.75 v 44.4 h 38.75" /><path
         id="path104"
         style="fill:#131213;fill-opacity:1;fill-rule:nonzero;stroke:none"
         d="m 1841.25,1716.13 h 34.17 v -31.35 c 9.51,22.2 30.65,34.17 57.07,34.17 40.16,0 66.24,-28.89 66.24,-71.16 v -109.22 h -34.18 v 102.52 c 0,28.18 -16.56,47.21 -41.57,47.21 -27.83,0 -47.56,-22.55 -47.56,-53.55 v -96.18 h -34.17 v 177.56" /><path
         id="path106"
         style="fill:#131213;fill-opacity:1;fill-rule:nonzero;stroke:none"
         d="m 2060.39,1646.38 h 100.76 c -2.11,27.13 -20.43,45.09 -49.67,45.09 -27.84,0 -45.81,-15.5 -51.09,-45.09 z m 136.7,-50.03 c -6.34,-36.64 -38.4,-60.6 -82.09,-60.6 -54.96,0 -89.14,43.33 -89.14,92.66 0,49.68 31.01,90.54 85.62,90.54 54.96,0 84.2,-39.1 84.2,-84.2 0,-4.58 -0.35,-10.22 -0.71,-13.39 h -135.64 c 2.82,-33.46 24.67,-56.37 55.67,-56.37 26.07,0 42.99,11.27 47.92,31.36 h 34.17" /><path
         id="path108"
         style="fill:#131213;fill-opacity:1;fill-rule:nonzero;stroke:none"
         d="m 2248.53,1646.38 h 100.75 c -2.11,27.13 -20.42,45.09 -49.67,45.09 -27.83,0 -45.8,-15.5 -51.08,-45.09 z m 136.69,-50.03 c -6.34,-36.64 -38.4,-60.6 -82.09,-60.6 -54.95,0 -89.14,43.33 -89.14,92.66 0,49.68 31.01,90.54 85.62,90.54 54.97,0 84.2,-39.1 84.2,-84.2 0,-4.58 -0.35,-10.22 -0.7,-13.39 h -135.64 c 2.82,-33.46 24.66,-56.37 55.66,-56.37 26.07,0 42.99,11.27 47.92,31.36 h 34.17" /><path
         id="path110"
         style="fill:#131213;fill-opacity:1;fill-rule:nonzero;stroke:none"
         d="m 2489.51,1686.54 c -32.41,0 -42.99,-28.89 -42.99,-67.64 v -80.33 h -34.17 v 177.56 h 34.17 v -34.17 c 8.11,23.61 22.21,34.17 47.21,34.17 h 21.5 v -29.59 h -25.72" /><path
         id="path112"
         style="fill:#131213;fill-opacity:1;fill-rule:nonzero;stroke:none"
         d="m 2537.07,1716.13 h 34.18 v -177.56 h -34.18 z m 36.64,74.7 v -44.4 h -38.75 v 44.4 h 38.75" /><path
         id="path114"
         style="fill:#131213;fill-opacity:1;fill-rule:nonzero;stroke:none"
         d="m 2608.23,1716.13 h 34.18 v -31.35 c 9.51,22.2 30.65,34.17 57.07,34.17 40.17,0 66.24,-28.89 66.24,-71.16 v -109.22 h -34.18 v 102.52 c 0,28.18 -16.55,47.21 -41.57,47.21 -27.83,0 -47.56,-22.55 -47.56,-53.55 v -96.18 h -34.18 v 177.56" /><path
         id="path116"
         style="fill:#131213;fill-opacity:1;fill-rule:nonzero;stroke:none"
         d="m 2938.35,1627.35 c 0,37.34 -21.49,61.65 -54.6,61.65 -32.76,0 -54.26,-24.31 -54.26,-61.65 0,-37.34 21.5,-61.65 54.26,-61.65 33.11,0 54.6,24.31 54.6,61.65 z m 31.72,88.78 v -186.01 c 0,-37.35 -27.14,-63.43 -65.89,-63.43 h -85.62 v 28.54 h 82.09 c 20.44,0 35.23,15.51 35.23,37 v 28.89 c -8.45,-15.15 -31,-25.37 -56.01,-25.37 -54.61,0 -85.26,38.75 -85.26,91.6 0,52.85 30.65,91.6 84.91,91.6 23.61,0 45.45,-10.92 56.36,-26.42 v 23.6 h 34.19" /><path
         id="path118"
         style="fill:#131213;fill-opacity:1;fill-rule:nonzero;stroke:none"
         d="m 3195.2,1616.43 v 4.23 h -45.81 c -23.25,0 -38.4,-11.98 -38.4,-30.65 0,-16.21 13.39,-27.13 33.12,-27.13 32.41,0 51.09,20.78 51.09,53.55 z m 34.17,36.64 v -114.5 h -34.17 v 28.89 c -8.47,-19.03 -31.02,-31.71 -57.79,-31.71 -36.29,0 -60.25,21.85 -60.25,53.56 0,34.17 27.13,55.31 69.06,55.31 h 36.99 c 8.1,0 11.99,4.22 11.99,10.56 0,21.5 -15.51,36.29 -42.99,36.29 -24.66,0 -42.63,-15.5 -43.68,-33.47 h -31.72 c 2.82,34.88 34.53,60.95 76.46,60.95 45.8,0 76.1,-26.42 76.1,-65.88" /><path
         id="path120"
         style="fill:#131213;fill-opacity:1;fill-rule:nonzero;stroke:none"
         d="m 3262.48,1716.13 h 34.18 v -31.35 c 9.5,22.2 30.65,34.17 57.07,34.17 40.16,0 66.23,-28.89 66.23,-71.16 v -109.22 h -34.17 v 102.52 c 0,28.18 -16.56,47.21 -41.58,47.21 -27.82,0 -47.55,-22.55 -47.55,-53.55 v -96.18 h -34.18 v 177.56" /><path
         id="path122"
         style="fill:#131213;fill-opacity:1;fill-rule:nonzero;stroke:none"
         d="m 3590.84,1627.35 c 0,36.99 -21.5,61.65 -54.61,61.65 -32.77,0 -54.26,-24.66 -54.26,-61.65 0,-36.99 21.49,-61.65 54.26,-61.65 33.11,0 54.61,24.66 54.61,61.65 z m -143.75,0 c 0,52.85 30.66,91.6 84.91,91.6 24.31,0 45.81,-11.62 56.37,-28.89 v 100.41 h 34.17 v -251.9 h -34.17 v 26.42 c -10.56,-17.62 -32.41,-29.24 -56.02,-29.24 -54.6,0 -85.26,38.75 -85.26,91.6" /><path
         id="path124"
         style="fill:#131213;fill-opacity:1;fill-rule:nonzero;stroke:none"
         d="m 1166.56,1300.52 c 0,84.55 57.79,126.13 120.5,126.13 56.01,0 100.4,-33.82 107.1,-82.09 h -38.41 c -4.22,28.89 -33.11,49.68 -69.06,49.68 -47.9,0 -82.43,-32.78 -82.43,-93.72 0,-60.95 34.53,-93.72 82.43,-93.72 36.65,0 65.89,20.79 69.77,49.68 h 36.99 c -5.29,-48.27 -49.32,-82.09 -106.39,-82.09 -63.43,0 -120.5,41.57 -120.5,126.13" /><path
         id="path126"
         style="fill:#131213;fill-opacity:1;fill-rule:nonzero;stroke:none"
         d="m 1558.33,1265.99 c 0,36.3 -22.9,61.65 -56.37,61.65 -33.82,0 -56.72,-25.35 -56.72,-61.65 0,-36.28 22.9,-61.65 56.72,-61.65 33.47,0 56.37,25.37 56.37,61.65 z m -147.97,0 c 0,53.2 38.4,91.6 91.6,91.6 53.2,0 91.25,-38.4 91.25,-91.6 0,-53.2 -38.05,-91.6 -91.25,-91.6 -53.2,0 -91.6,38.4 -91.6,91.6" /><path
         id="path128"
         style="fill:#131213;fill-opacity:1;fill-rule:nonzero;stroke:none"
         d="m 1620.34,1354.77 h 34.17 v -31.7 c 7.4,20.08 26.42,34.52 52.5,34.52 28.89,0 50.38,-13.03 57.42,-36.29 7.05,20.09 30.3,36.29 57.78,36.29 38.41,0 62.36,-26.42 62.36,-67.64 v -112.74 h -34.17 v 103.23 c 0,28.19 -14.1,47.2 -37.7,47.2 -27.13,0 -43.34,-19.01 -43.34,-47.2 v -103.23 h -34.17 v 103.23 c 0,28.19 -14.1,47.2 -37.34,47.2 -27.13,0 -43.34,-19.01 -43.34,-47.2 v -103.23 h -34.17 v 177.56" /><path
         id="path130"
         style="fill:#131213;fill-opacity:1;fill-rule:nonzero;stroke:none"
         d="m 2064.25,1265.99 c 0,37 -21.84,61.65 -54.61,61.65 -33.12,0 -54.61,-24.65 -54.61,-61.65 0,-36.99 21.49,-61.65 54.61,-61.65 32.77,0 54.61,24.66 54.61,61.65 z m -140.57,88.78 h 34.18 v -26.42 c 10.56,17.62 32.06,29.24 56.72,29.24 53.55,0 84.19,-38.75 84.19,-91.6 0,-52.85 -32.06,-91.6 -85.95,-91.6 -23.61,0 -44.75,10.92 -54.96,27.84 v -96.89 h -34.18 v 249.43" /><path
         id="path132"
         style="fill:#131213;fill-opacity:1;fill-rule:nonzero;stroke:none"
         d="m 2283.39,1177.21 h -34.18 v 31.35 c -9.51,-22.19 -30.65,-34.17 -57.07,-34.17 -40.17,0 -66.24,28.89 -66.24,71.17 v 109.21 h 34.18 v -102.51 c 0,-28.19 16.55,-47.22 41.57,-47.22 27.83,0 47.56,22.55 47.56,53.56 v 96.17 h 34.18 v -177.56" /><path
         id="path134"
         style="fill:#131213;fill-opacity:1;fill-rule:nonzero;stroke:none"
         d="m 2375.35,1410.44 v -55.67 h 52.49 v -29.59 h -52.49 v -87.37 c 0,-19.02 10.22,-29.6 27.48,-29.6 h 25.01 v -31 h -27.83 c -35.93,0 -58.83,21.85 -58.83,58.13 v 89.84 h -36.29 v 29.59 h 36.29 v 55.67 h 34.17" /><path
         id="path136"
         style="fill:#131213;fill-opacity:1;fill-rule:nonzero;stroke:none"
         d="m 2450.75,1354.77 h 34.17 v -177.56 h -34.17 z m 36.64,74.7 v -44.4 h -38.75 v 44.4 h 38.75" /><path
         id="path138"
         style="fill:#131213;fill-opacity:1;fill-rule:nonzero;stroke:none"
         d="m 2521.91,1354.77 h 34.17 v -31.35 c 9.52,22.2 30.65,34.17 57.07,34.17 40.17,0 66.24,-28.89 66.24,-71.16 v -109.22 h -34.18 v 102.53 c 0,28.18 -16.55,47.2 -41.56,47.2 -27.84,0 -47.57,-22.55 -47.57,-53.54 v -96.19 h -34.17 v 177.56" /><path
         id="path140"
         style="fill:#131213;fill-opacity:1;fill-rule:nonzero;stroke:none"
         d="m 2852.03,1265.99 c 0,37.35 -21.49,61.65 -54.61,61.65 -32.77,0 -54.25,-24.3 -54.25,-61.65 0,-37.34 21.48,-61.65 54.25,-61.65 33.12,0 54.61,24.31 54.61,61.65 z m 31.71,88.78 v -186.01 c 0,-37.34 -27.13,-63.42 -65.89,-63.42 h -85.6 v 28.54 h 82.08 c 20.44,0 35.24,15.5 35.24,36.99 v 28.89 c -8.46,-15.15 -31.01,-25.37 -56.03,-25.37 -54.6,0 -85.25,38.75 -85.25,91.6 0,52.85 30.65,91.6 84.9,91.6 23.6,0 45.45,-10.92 56.38,-26.42 v 23.6 h 34.17" /></g></g></svg>