<?xml version="1.0" encoding="UTF-8"?>
<!DOCTYPE svg PUBLIC "-//W3C//DTD SVG 1.1//EN" "http://www.w3.org/Graphics/SVG/1.1/DTD/svg11.dtd">
<svg xmlns="http://www.w3.org/2000/svg" version="1.1" width="482px" height="241px" style="shape-rendering:geometricPrecision; text-rendering:geometricPrecision; image-rendering:optimizeQuality; fill-rule:evenodd; clip-rule:evenodd" xmlns:xlink="http://www.w3.org/1999/xlink">
<g><path style="opacity:1" fill="#fdfdfd" d="M -0.5,-0.5 C 160.167,-0.5 320.833,-0.5 481.5,-0.5C 481.5,79.8333 481.5,160.167 481.5,240.5C 320.833,240.5 160.167,240.5 -0.5,240.5C -0.5,160.167 -0.5,79.8333 -0.5,-0.5 Z"/></g>
<g><path style="opacity:1" fill="#090909" d="M 301.5,54.5 C 307.732,53.9386 313.732,54.772 319.5,57C 323.623,60.531 325.29,65.031 324.5,70.5C 321.5,70.5 318.5,70.5 315.5,70.5C 316.316,64.9802 313.983,61.6469 308.5,60.5C 302.357,61.8105 300.191,65.4772 302,71.5C 306.466,76.1628 311.633,79.9961 317.5,83C 325.069,89.9177 326.569,98.0844 322,107.5C 314.801,112.551 306.967,113.718 298.5,111C 293.417,107.196 291.084,102.029 291.5,95.5C 294.5,95.5 297.5,95.5 300.5,95.5C 301.527,105.889 306.36,108.223 315,102.5C 315.667,99.5 315.667,96.5 315,93.5C 309.445,88.9453 303.612,84.7786 297.5,81C 291.959,74.4244 291.125,67.2577 295,59.5C 297.326,57.9343 299.492,56.2676 301.5,54.5 Z"/></g>
<g><path style="opacity:1" fill="#070707" d="M 55.5,55.5 C 58.1667,55.5 60.8333,55.5 63.5,55.5C 63.3334,69.1707 63.5001,82.8374 64,96.5C 65.4628,105.382 70.2962,107.882 78.5,104C 79.4601,102.581 80.2935,101.081 81,99.5C 81.4999,84.8371 81.6666,70.1705 81.5,55.5C 84.5,55.5 87.5,55.5 90.5,55.5C 90.6666,69.1707 90.4999,82.8374 90,96.5C 89.2151,107.576 83.2151,112.909 72,112.5C 64.7473,113.048 59.7473,110.048 57,103.5C 55.5617,87.5573 55.0617,71.5573 55.5,55.5 Z"/></g>
<g><path style="opacity:1" fill="#030303" d="M 110.5,68.5 C 110.539,67.2438 110.039,66.2438 109,65.5C 108.5,80.8297 108.333,96.163 108.5,111.5C 106.167,111.5 103.833,111.5 101.5,111.5C 101.5,92.8333 101.5,74.1667 101.5,55.5C 105.884,55.1744 110.217,55.5078 114.5,56.5C 119.765,71.1289 124.932,85.7956 130,100.5C 130.5,85.5037 130.667,70.5037 130.5,55.5C 133.167,55.5 135.833,55.5 138.5,55.5C 138.5,74.1667 138.5,92.8333 138.5,111.5C 133.901,111.8 129.401,111.467 125,110.5C 120.06,96.514 115.227,82.514 110.5,68.5 Z"/></g>
<g><path style="opacity:1" fill="#0a0a0a" d="M 151.5,55.5 C 154.5,55.5 157.5,55.5 160.5,55.5C 160.5,74.1667 160.5,92.8333 160.5,111.5C 157.5,111.5 154.5,111.5 151.5,111.5C 151.5,92.8333 151.5,74.1667 151.5,55.5 Z"/></g>
<g><path style="opacity:1" fill="#060606" d="M 167.5,55.5 C 170.5,55.5 173.5,55.5 176.5,55.5C 179.49,70.9663 182.99,86.2996 187,101.5C 190.194,86.0879 193.694,70.7546 197.5,55.5C 200.167,55.5 202.833,55.5 205.5,55.5C 200.835,74.1603 196.168,92.827 191.5,111.5C 187.894,111.789 184.394,111.456 181,110.5C 176.339,92.1896 171.839,73.8562 167.5,55.5 Z"/></g>
<g><path style="opacity:1" fill="#090909" d="M 212.5,55.5 C 221.833,55.5 231.167,55.5 240.5,55.5C 240.5,57.8333 240.5,60.1667 240.5,62.5C 234.167,62.5 227.833,62.5 221.5,62.5C 221.5,68.1667 221.5,73.8333 221.5,79.5C 227.5,79.5 233.5,79.5 239.5,79.5C 239.5,81.5 239.5,83.5 239.5,85.5C 233.5,85.5 227.5,85.5 221.5,85.5C 221.5,91.8333 221.5,98.1667 221.5,104.5C 228.167,104.5 234.833,104.5 241.5,104.5C 241.5,106.833 241.5,109.167 241.5,111.5C 231.833,111.5 222.167,111.5 212.5,111.5C 212.5,92.8333 212.5,74.1667 212.5,55.5 Z"/></g>
<g><path style="opacity:1" fill="#0b0b0b" d="M 250.5,55.5 C 258.507,55.3336 266.507,55.5003 274.5,56C 277.937,57.1049 280.437,59.2716 282,62.5C 282.839,67.9212 282.506,73.2545 281,78.5C 279.442,80.3589 277.609,81.8589 275.5,83C 278.057,83.6853 279.891,85.1853 281,87.5C 282.054,95.1546 282.888,102.821 283.5,110.5C 280.232,111.487 276.898,111.82 273.5,111.5C 273.929,104.053 273.429,96.7194 272,89.5C 271.097,88.2986 269.931,87.4652 268.5,87C 265.518,86.502 262.518,86.3354 259.5,86.5C 259.5,94.8333 259.5,103.167 259.5,111.5C 256.5,111.5 253.5,111.5 250.5,111.5C 250.5,92.8333 250.5,74.1667 250.5,55.5 Z"/></g>
<g><path style="opacity:1" fill="#0a0a0a" d="M 335.5,55.5 C 338.5,55.5 341.5,55.5 344.5,55.5C 344.5,74.1667 344.5,92.8333 344.5,111.5C 341.5,111.5 338.5,111.5 335.5,111.5C 335.5,92.8333 335.5,74.1667 335.5,55.5 Z"/></g>
<g><path style="opacity:1" fill="#020202" d="M 351.5,55.5 C 362.833,55.5 374.167,55.5 385.5,55.5C 385.5,57.8333 385.5,60.1667 385.5,62.5C 381.167,62.5 376.833,62.5 372.5,62.5C 372.5,78.8333 372.5,95.1667 372.5,111.5C 369.833,111.5 367.167,111.5 364.5,111.5C 364.83,94.9915 364.496,78.6581 363.5,62.5C 359.702,61.5166 355.702,61.1832 351.5,61.5C 351.5,59.5 351.5,57.5 351.5,55.5 Z"/></g>
<g><path style="opacity:1" fill="#090909" d="M 387.5,55.5 C 390.898,55.1796 394.232,55.513 397.5,56.5C 400.373,64.619 403.54,72.619 407,80.5C 410.444,72.6122 413.61,64.6122 416.5,56.5C 419.428,55.5159 422.428,55.1826 425.5,55.5C 420.961,66.917 416.127,78.2504 411,89.5C 410.5,96.8258 410.334,104.159 410.5,111.5C 407.5,111.5 404.5,111.5 401.5,111.5C 401.666,103.493 401.5,95.4931 401,87.5C 396.212,76.9272 391.712,66.2606 387.5,55.5 Z"/></g>
<g><path style="opacity:1" fill="#515151" d="M 351.5,55.5 C 351.5,57.5 351.5,59.5 351.5,61.5C 355.702,61.1832 359.702,61.5166 363.5,62.5C 359.167,62.5 354.833,62.5 350.5,62.5C 350.198,59.9407 350.532,57.6074 351.5,55.5 Z"/></g>
<g><path style="opacity:1" fill="#fafafa" d="M 259.5,62.5 C 272.811,60.6347 276.811,65.8013 271.5,78C 267.637,79.3537 263.637,79.8537 259.5,79.5C 259.5,73.8333 259.5,68.1667 259.5,62.5 Z"/></g>
<g><path style="opacity:1" fill="#bdbdbd" d="M 110.5,68.5 C 109.833,82.8333 109.167,97.1667 108.5,111.5C 108.333,96.163 108.5,80.8297 109,65.5C 110.039,66.2438 110.539,67.2438 110.5,68.5 Z"/></g>
<g><path style="opacity:1" fill="#0d0d0d" d="M 66.5,127.5 C 74.0951,126.358 80.9284,128.025 87,132.5C 90.5346,139.892 92.0346,147.725 91.5,156C 91.8821,164.544 90.3821,172.71 87,180.5C 79.8299,185.695 71.9965,186.862 63.5,184C 58.8489,181.209 56.3489,177.042 56,171.5C 55.3333,161.167 55.3333,150.833 56,140.5C 57.5335,134.477 61.0335,130.144 66.5,127.5 Z"/></g>
<g><path style="opacity:1" fill="#070707" d="M 126.5,152.5 C 126.5,154.5 126.5,156.5 126.5,158.5C 120.974,158.179 115.64,158.512 110.5,159.5C 110.5,167.833 110.5,176.167 110.5,184.5C 107.5,184.5 104.5,184.5 101.5,184.5C 101.5,165.833 101.5,147.167 101.5,128.5C 110.167,128.5 118.833,128.5 127.5,128.5C 127.5,130.833 127.5,133.167 127.5,135.5C 121.833,135.5 116.167,135.5 110.5,135.5C 110.5,141.167 110.5,146.833 110.5,152.5C 115.833,152.5 121.167,152.5 126.5,152.5 Z"/></g>
<g><path style="opacity:1" fill="#070707" d="M 151.5,128.5 C 162.833,128.5 174.167,128.5 185.5,128.5C 185.5,130.833 185.5,133.167 185.5,135.5C 181.167,135.5 176.833,135.5 172.5,135.5C 172.5,151.833 172.5,168.167 172.5,184.5C 169.5,184.5 166.5,184.5 163.5,184.5C 163.5,168.167 163.5,151.833 163.5,135.5C 159.5,135.5 155.5,135.5 151.5,135.5C 151.5,133.167 151.5,130.833 151.5,128.5 Z"/></g>
<g><path style="opacity:1" fill="#090909" d="M 189.5,128.5 C 192.833,128.5 196.167,128.5 199.5,128.5C 201.754,143.531 204.254,158.531 207,173.5C 210.383,158.918 213.383,144.251 216,129.5C 219.73,128.54 223.563,128.207 227.5,128.5C 229.702,143.243 232.368,157.909 235.5,172.5C 238.553,157.901 241.22,143.234 243.5,128.5C 246.572,128.183 249.572,128.516 252.5,129.5C 248.177,147.775 244.177,166.108 240.5,184.5C 236.833,184.5 233.167,184.5 229.5,184.5C 227.503,169.349 224.67,154.349 221,139.5C 217.616,154.085 214.616,168.751 212,183.5C 208.333,184.833 204.667,184.833 201,183.5C 197.485,165.089 193.651,146.756 189.5,128.5 Z"/></g>
<g><path style="opacity:1" fill="#030303" d="M 259.5,128.5 C 268.5,128.5 277.5,128.5 286.5,128.5C 286.5,130.833 286.5,133.167 286.5,135.5C 280.167,135.5 273.833,135.5 267.5,135.5C 267.5,141.167 267.5,146.833 267.5,152.5C 273.5,152.5 279.5,152.5 285.5,152.5C 285.5,154.5 285.5,156.5 285.5,158.5C 279.575,158.192 273.741,158.525 268,159.5C 267.501,165.491 267.334,171.491 267.5,177.5C 274.167,177.5 280.833,177.5 287.5,177.5C 287.5,179.833 287.5,182.167 287.5,184.5C 278.167,184.5 268.833,184.5 259.5,184.5C 259.5,165.833 259.5,147.167 259.5,128.5 Z"/></g>
<g><path style="opacity:1" fill="#020202" d="M 325.5,173.5 C 325.369,174.376 325.702,175.043 326.5,175.5C 327.499,159.848 327.833,144.181 327.5,128.5C 329.833,128.5 332.167,128.5 334.5,128.5C 334.5,147.167 334.5,165.833 334.5,184.5C 329.901,184.8 325.401,184.467 321,183.5C 316.059,169.509 311.226,155.509 306.5,141.5C 306.291,140.078 305.791,138.745 305,137.5C 304.5,153.163 304.333,168.83 304.5,184.5C 302.167,184.5 299.833,184.5 297.5,184.5C 297.5,165.833 297.5,147.167 297.5,128.5C 301.884,128.174 306.217,128.508 310.5,129.5C 315.515,144.188 320.515,158.855 325.5,173.5 Z"/></g>
<g><path style="opacity:1" fill="#000000" d="M 341.5,128.5 C 352.833,128.5 364.167,128.5 375.5,128.5C 375.5,130.833 375.5,133.167 375.5,135.5C 371.167,135.5 366.833,135.5 362.5,135.5C 362.5,151.833 362.5,168.167 362.5,184.5C 359.833,184.5 357.167,184.5 354.5,184.5C 354.5,168.167 354.5,151.833 354.5,135.5C 350.167,135.5 345.833,135.5 341.5,135.5C 341.5,133.167 341.5,130.833 341.5,128.5 Z"/></g>
<g><path style="opacity:1" fill="#070707" d="M 391.5,177.5 C 397.645,178.49 403.978,178.823 410.5,178.5C 410.5,180.5 410.5,182.5 410.5,184.5C 401.167,184.5 391.833,184.5 382.5,184.5C 382.5,165.833 382.5,147.167 382.5,128.5C 391.833,128.5 401.167,128.5 410.5,128.5C 410.5,130.833 410.5,133.167 410.5,135.5C 404.167,135.5 397.833,135.5 391.5,135.5C 391.5,141.167 391.5,146.833 391.5,152.5C 397.5,152.5 403.5,152.5 409.5,152.5C 409.5,154.5 409.5,156.5 409.5,158.5C 403.5,158.5 397.5,158.5 391.5,158.5C 391.5,164.833 391.5,171.167 391.5,177.5 Z"/></g>
<g><path style="opacity:1" fill="#414141" d="M 327.5,128.5 C 327.833,144.181 327.499,159.848 326.5,175.5C 325.702,175.043 325.369,174.376 325.5,173.5C 326.167,158.5 326.833,143.5 327.5,128.5 Z"/></g>
<g><path style="opacity:1" fill="#fbfbfb" d="M 69.5,134.5 C 75.156,133.243 78.9893,135.243 81,140.5C 81.6667,150.833 81.6667,161.167 81,171.5C 79.381,178.167 75.2143,180.333 68.5,178C 66.683,176.2 65.5163,174.034 65,171.5C 64.3333,161.5 64.3333,151.5 65,141.5C 65.9042,138.767 67.4042,136.433 69.5,134.5 Z"/></g>
<g><path style="opacity:1" fill="#bcbcbc" d="M 306.5,141.5 C 305.833,155.833 305.167,170.167 304.5,184.5C 304.333,168.83 304.5,153.163 305,137.5C 305.791,138.745 306.291,140.078 306.5,141.5 Z"/></g>
<g><path style="opacity:1" fill="#414141" d="M 126.5,152.5 C 127.468,154.607 127.802,156.941 127.5,159.5C 121.833,159.5 116.167,159.5 110.5,159.5C 115.64,158.512 120.974,158.179 126.5,158.5C 126.5,156.5 126.5,154.5 126.5,152.5 Z"/></g>
<g><path style="opacity:1" fill="#414141" d="M 391.5,177.5 C 398.167,177.5 404.833,177.5 411.5,177.5C 411.802,180.059 411.468,182.393 410.5,184.5C 410.5,182.5 410.5,180.5 410.5,178.5C 403.978,178.823 397.645,178.49 391.5,177.5 Z"/></g>
<g><path style="opacity:1" fill="#101010" d="M 420.5,176.5 C 427.486,176.331 429.153,179.164 425.5,185C 418.416,185.475 416.749,182.642 420.5,176.5 Z"/></g>
</svg>
