<?xml version="1.0" encoding="UTF-8" standalone="no"?>
<!-- Created with Inkscape (http://www.inkscape.org/) -->
<!-- http://anahuac.info/admin/archivos_db/20_21_cine_110.pdf -->
<svg xmlns:svg="http://www.w3.org/2000/svg" xmlns="http://www.w3.org/2000/svg" version="1.0" width="250" height="230.667">
  <path d="M 123.883,69.7892 L 143.499,92.2109 L 151.344,85.4856 L 123.883,54.3759 L 123.883,69.7892 z M 123.883,110.426 L 123.883,100.616 L 128.641,106.223 L 123.883,110.426 z M 123.883,93.3328 L 123.883,77.9174 L 140.135,96.1345 L 132.007,102.862 L 123.883,93.3328 z M 107.344,51.0102 L 123.883,69.7892 L 123.883,54.3759 L 114.629,44.2849 L 107.344,51.0102 z M 123.883,77.9174 L 123.883,93.3328 L 96.1307,61.6611 L 103.422,54.9338 L 123.883,77.9174 z M 123.883,100.616 L 123.883,110.426 L 120.794,112.951 L 84.9219,71.752 L 92.2071,65.0227 L 123.883,100.616 z M 115.753,144.62 L 135.369,167.321 L 143.499,160.598 L 115.753,129.486 L 115.753,144.62 z M 115.753,185.538 L 115.753,175.732 L 120.794,181.333 L 115.753,185.538 z M 115.753,168.443 L 115.753,152.746 L 132.007,171.245 L 124.162,177.974 L 115.753,168.443 z M 99.4984,126.122 L 115.753,144.62 L 115.753,129.486 L 106.782,119.399 L 99.4984,126.122 z M 115.753,152.746 L 115.753,168.443 L 88.0026,136.775 L 95.5708,130.044 L 115.753,152.746 z M 115.753,175.732 L 115.753,185.538 L 112.947,188.063 L 76.7938,146.864 L 84.081,140.135 L 115.753,175.732 z" style="fill:#fc9a03;fill-opacity:1;fill-rule:nonzero;stroke:none;stroke-width:1;stroke-linecap:butt;stroke-linejoin:miter;marker:none;marker-start:none;marker-mid:none;marker-end:none;stroke-miterlimit:4;stroke-dasharray:none;stroke-dashoffset:0;stroke-opacity:1;visibility:visible;display:inline;overflow:visible;enable-background:accumulate"/>
  <path d="M 178.817,108.465 L 156.11,128.083 L 156.11,141.817 L 185.538,115.752 L 178.817,108.465 z M 156.11,121.077 L 156.11,107.624 L 168.16,97.2523 L 174.889,104.542 L 156.11,121.077 z M 156.11,100.616 L 164.799,93.0498 L 158.071,85.7625 L 156.11,87.4484 L 156.11,100.616 z M 156.11,128.083 L 137.893,144.339 L 144.621,152.47 L 156.11,141.817 L 156.11,128.083 z M 156.11,87.4484 L 156.11,100.616 L 123.6,129.769 L 116.871,121.92 L 156.11,87.4484 z M 156.11,107.624 L 156.11,121.077 L 133.689,140.98 L 126.959,133.129 L 156.11,107.624 z M 104.257,101.459 L 81.5562,121.077 L 81.5562,134.812 L 110.986,108.746 L 104.257,101.459 z M 81.5562,114.073 L 81.5562,100.616 L 93.61,89.9671 L 100.335,97.5353 L 81.5562,114.073 z M 81.5562,93.6117 L 90.2484,86.0455 L 83.5211,78.7563 L 81.5562,80.4361 L 81.5562,93.6117 z M 81.5562,121.077 L 63.0582,137.333 L 69.7875,145.461 L 81.5562,134.812 L 81.5562,121.077 z M 81.5562,80.4361 L 81.5562,93.6117 L 48.7667,122.757 L 42.0374,114.914 L 81.5562,80.4361 z M 81.5562,100.616 L 81.5562,114.073 L 58.8557,133.967 L 52.1324,126.122 L 81.5562,100.616 z M 220.012,129.769 C 221.413,130.044 222.256,130.887 222.534,132.007 C 223.094,133.129 223.094,134.531 222.817,135.653 C 222.256,136.775 221.413,137.616 220.293,138.172 C 219.169,138.736 218.049,138.736 216.933,138.172 C 215.811,137.897 214.968,137.05 214.408,135.932 C 213.85,134.531 213.85,133.407 214.127,132.288 C 214.689,131.168 215.526,130.327 216.652,129.769 C 217.772,129.207 218.892,129.207 220.012,129.769 M 11.2086,138.172 C 10.0888,138.736 8.68997,138.736 7.56604,138.172 C 6.44414,137.616 5.6073,136.775 5.32428,135.653 C 4.76232,134.531 4.76232,133.129 5.32428,132.007 C 5.88421,130.887 6.72716,130.044 7.84702,129.769 C 8.96689,129.207 10.0888,129.207 11.2086,129.769 C 12.6115,130.327 13.1735,131.168 13.7334,132.288 C 14.2933,133.407 14.2933,134.531 13.7334,135.932 C 13.1735,137.05 12.3326,137.897 11.2086,138.172 M 18.7769,116.035 C 18.7769,113.509 17.938,111.548 16.5371,110.149 C 15.4132,109.027 13.1735,108.182 10.0888,108.182 L 6.72716,108.182 L 3.92548,108.182 C 3.08253,108.182 2.24365,107.905 1.67965,107.905 L -0.00014324,107.905 L -0.00014324,108.465 L -0.00014324,109.306 L -0.00014324,109.868 L -0.00014324,110.709 C 1.11972,110.426 2.5226,110.426 3.64449,110.426 L 7.28709,110.426 L 10.9297,110.426 C 12.0516,110.426 13.1735,110.709 14.0103,110.988 C 14.8533,111.265 15.6942,111.831 15.9752,112.391 C 16.5371,112.951 16.8161,113.79 16.8161,114.914 C 16.8161,115.752 16.8161,116.593 16.5371,117.155 C 16.5371,117.994 15.9752,118.554 15.6942,118.837 C 15.1343,119.399 14.2933,119.674 13.1735,119.957 C 12.3326,120.236 10.9297,120.236 9.2499,120.236 L 4.76232,120.236 C 3.36147,120.236 1.67965,119.957 -0.00014324,119.957 L -0.00014324,121.077 L -0.00014324,122.199 L -0.00014324,123.04 L -0.00014324,124.162 L 1.96267,124.162 L 5.6073,124.162 L 7.00611,124.162 L 8.12801,124.162 L 9.80983,124.162 L 11.7706,124.162 C 12.8945,124.162 14.0103,123.878 14.8533,123.602 C 15.6942,123.04 16.5371,122.48 17.095,121.92 C 17.657,121.077 17.938,120.236 18.2149,119.399 C 18.4979,118.277 18.7769,117.155 18.7769,116.035 M 5.88421,100.337 C 7.28709,100.616 8.68997,100.899 10.0888,101.176 C 11.4917,101.459 12.8945,101.742 14.0103,102.019 C 15.4132,102.3 16.2562,102.3 17.095,102.581 C 17.938,102.862 18.4979,102.862 18.7769,102.862 L 18.7769,101.742 L 18.7769,101.176 C 19.0578,100.899 19.0578,100.616 19.0578,100.616 C 18.7769,100.616 18.4979,100.337 18.2149,100.337 L 17.095,100.337 C 16.5371,100.337 15.9752,100.054 15.1343,100.054 C 14.2933,100.054 13.4545,99.7791 12.3326,99.4961 L 9.52682,99.2171 C 8.96689,98.9341 8.40695,98.9341 7.84702,98.9341 C 7.28709,98.6572 6.72716,98.6572 6.44414,98.6572 C 11.2086,95.2915 15.9752,91.9279 20.7417,89.1282 C 20.7417,88.8452 21.0207,88.5683 21.0207,88.0063 C 21.0207,87.7233 21.0207,87.4484 21.2996,86.8864 L 17.938,86.6034 C 16.8161,86.3265 15.6942,86.0455 14.5743,86.0455 C 13.4545,85.7625 12.3326,85.4856 11.2086,85.2026 C 10.0888,85.2026 8.68997,84.9216 7.56604,84.6406 C 6.1652,84.3637 4.76232,84.0827 3.08253,83.8017 L 3.08253,84.9216 C 3.08253,85.2026 3.08253,85.4856 2.80154,86.0455 L 3.92548,86.0455 C 4.20442,86.3265 5.04534,86.3265 5.6073,86.3265 C 6.44414,86.6034 7.00611,86.6034 7.84702,86.6034 C 8.68997,86.8864 9.52682,86.8864 10.6487,87.1654 L 15.4132,88.0063 C 12.8945,89.4072 10.6487,91.0869 8.12801,92.7708 C 5.88421,94.1696 3.36147,95.8514 1.11972,97.2523 C 1.11972,97.8163 1.11972,98.0952 0.84077,98.6572 C 0.84077,98.9341 0.84077,99.2171 0.559787,99.7791 C 1.4007,99.7791 1.96267,99.7791 2.80154,100.054 C 3.64449,100.054 4.76232,100.337 5.88421,100.337 M 12.3326,78.1984 L 15.6942,79.3182 C 17.095,79.5972 18.4979,80.1591 19.6198,80.4361 C 20.4587,80.7191 21.5806,81.281 22.7025,81.5559 C 22.7025,81.281 22.7025,81.0021 22.9835,80.7191 C 22.9835,80.4361 22.9835,79.8782 23.2624,79.5972 C 23.2624,79.0393 23.5414,78.7563 23.5414,78.4732 C 23.8223,77.9174 23.8223,77.6364 23.8223,77.3534 C 22.9835,77.0765 21.8616,76.7934 20.7417,76.5145 C 19.6198,76.2315 18.2149,75.9546 16.8161,75.3926 L 13.4545,74.5517 C 12.0516,73.9918 10.6487,73.7128 9.80983,73.1488 C 8.68997,72.8719 7.56604,72.5889 6.44414,72.033 C 6.44414,72.3099 6.1652,72.5889 6.1652,73.1488 C 6.1652,73.4298 5.88421,73.7128 5.88421,74.2727 C 5.88421,74.5517 5.6073,75.1137 5.6073,75.3926 C 5.32428,75.6736 5.32428,75.9546 5.04534,76.2315 C 6.1652,76.5145 7.28709,76.7934 8.40695,77.0765 C 9.52682,77.3534 10.9297,77.6364 12.3326,78.1984 M 24.3823,63.0599 C 23.2624,63.0599 22.1405,62.783 20.7417,62.783 C 19.6198,62.783 18.4979,62.5 17.095,62.5 C 15.9752,62.221 14.8533,62.221 13.7334,61.94 C 12.6115,61.94 11.4917,61.6611 10.3718,61.6611 C 10.0888,61.94 10.0888,62.221 9.80983,62.783 C 9.80983,63.0599 9.52682,63.3429 9.52682,63.6239 C 9.2499,64.1797 8.96689,64.4628 8.96689,64.7458 C 8.68997,65.0227 8.40695,65.5847 8.40695,65.8656 L 10.9297,65.8656 C 12.0516,66.1426 13.1735,66.1426 14.2933,66.1426 C 15.4132,66.4256 16.8161,66.4256 17.938,66.4256 C 19.3388,66.7045 20.4587,66.7045 21.8616,66.7045 C 22.9835,66.9835 24.1033,66.9835 25.2232,66.9835 C 26.3451,67.2645 27.188,67.2645 28.0249,67.2645 C 28.0249,66.9835 28.3079,66.7045 28.3079,66.1426 C 28.5868,65.8656 28.8699,65.5847 28.8699,65.3037 C 27.748,64.1797 26.624,62.783 25.5042,61.6611 C 24.1033,60.2602 22.9835,58.8553 21.8616,57.4585 C 20.4587,56.3367 19.3388,54.9338 18.4979,53.8119 C 17.376,52.411 16.5371,51.5701 15.6942,50.7292 C 15.6942,51.0102 15.4132,51.5701 15.4132,51.8491 C 15.1343,52.1321 14.8533,52.411 14.5743,52.692 C 16.2562,54.3759 17.938,56.0536 19.6198,57.7334 C 21.2996,59.4193 22.9835,61.3801 24.3823,63.0599 M 25.2232,49.3304 L 28.0249,51.5701 C 29.4298,52.411 30.2707,53.2519 31.3885,53.8119 C 32.2315,54.6508 33.0724,55.4957 33.9113,56.0536 C 33.9113,56.0536 33.9113,55.7747 34.1923,55.7747 C 34.1923,55.4957 34.4712,55.2148 34.7542,54.9338 C 35.0332,54.6508 35.3141,54.0949 35.5951,53.535 C 36.153,53.2519 36.436,52.411 37.2749,51.5701 C 37.8369,50.4523 38.3968,49.8883 38.9567,49.3304 C 39.5187,48.7664 39.7956,48.2105 40.0786,47.9275 L 39.7956,47.6465 C 39.5187,47.6465 39.2377,47.3696 39.2377,47.3696 C 38.9567,47.0866 38.6798,47.0866 38.6798,46.8036 C 38.3968,46.8036 38.3968,46.5246 38.1199,46.5246 C 37.8369,47.3696 37.2749,48.2105 36.713,49.0474 C 36.153,49.8883 35.5951,50.7292 34.7542,51.5701 C 33.9113,51.0102 33.0724,50.4523 32.2315,49.6073 C 31.6695,49.3304 31.1075,49.0474 30.8286,48.4874 C 30.2707,48.2105 29.9897,47.9275 29.4298,47.6465 C 30.5476,45.9647 31.9525,44.2849 33.3513,42.882 C 33.0724,42.6011 32.7894,42.6011 32.7894,42.6011 C 32.5125,42.6011 32.5125,42.3201 32.2315,42.3201 L 31.9525,42.0432 C 31.6695,41.7622 31.6695,41.7622 31.3885,41.4812 C 30.8286,42.3201 30.2707,43.163 29.7067,44.0039 C 29.1468,44.5618 28.5868,45.4027 28.0249,46.5246 C 27.188,45.9647 26.3451,45.4027 25.5042,44.5618 C 24.9422,44.0039 24.1033,43.4399 23.2624,42.882 C 23.5414,42.6011 23.8223,42.3201 24.1033,42.0432 C 24.3823,41.7622 24.6653,41.1982 24.9422,40.9213 C 25.5042,40.3613 25.7852,40.0804 26.0661,39.5184 C 26.624,38.9605 26.9071,38.6795 27.188,38.1155 C 27.188,38.1155 26.9071,38.1155 26.9071,37.8386 C 26.624,37.8386 26.3451,37.8386 26.3451,37.5556 C 25.7852,37.2766 25.5042,36.9977 25.5042,36.7167 C 25.2232,36.9977 24.9422,37.8386 24.3823,38.6795 C 23.5414,39.2374 22.9835,40.3613 22.1405,41.4812 C 21.5806,42.0432 21.2996,42.6011 20.7417,43.163 C 20.1797,43.723 19.6198,44.5618 19.3388,45.1279 C 20.1797,45.6858 21.0207,46.2477 22.1405,47.0866 C 22.9835,47.6465 24.1033,48.4874 25.2232,49.3304 M 40.0786,29.1485 C 40.9175,30.2683 41.2005,31.1092 41.2005,31.9522 C 41.2005,32.7972 40.6386,33.634 39.7956,34.4729 L 39.5187,34.7559 L 39.2377,34.7559 C 38.9567,34.1919 38.3968,33.634 37.8369,33.0721 L 37.8369,38.9605 L 37.8369,39.2374 C 38.9567,40.3613 39.7956,41.1982 40.6386,42.0432 C 41.2005,42.882 42.0374,43.723 42.6014,44.8448 C 42.8803,44.5618 43.1613,44.2849 43.4403,44.0039 C 43.7212,43.723 44.0002,43.4399 44.2832,43.163 C 44.5622,42.882 44.8431,42.6011 45.1221,42.3201 C 45.4031,42.0432 45.6861,42.0432 45.963,41.7622 C 45.1221,40.9213 44.2832,40.0804 43.4403,39.5184 C 42.8803,38.6795 41.7605,37.5556 40.9175,36.4357 L 40.0786,35.5948 L 40.3556,35.5948 L 49.6076,38.6795 C 49.8866,38.3985 50.1676,38.1155 50.4506,37.8386 C 50.7275,37.5556 51.0105,37.2766 51.2895,36.9977 C 51.5705,36.7167 51.8494,36.4357 52.1324,36.1527 C 52.4093,35.8758 52.6923,35.5948 52.9713,35.3159 C 51.2895,35.0328 49.6076,34.4729 47.9258,33.917 C 46.246,33.634 44.5622,33.0721 42.8803,32.5121 C 43.7212,31.3923 44.0002,30.2683 44.0002,29.1485 C 44.0002,28.0266 43.4403,26.9047 42.6014,26.0658 C 42.0374,25.5079 41.4795,24.9439 40.9175,24.9439 C 40.3556,24.665 39.5187,24.384 38.9567,24.665 L 38.1199,24.665 C 38.1199,24.9439 38.1199,24.9439 37.8369,24.9439 L 37.8369,27.7497 C 38.1199,27.7497 38.3968,27.7497 38.6798,28.0266 C 38.9567,28.3096 39.5187,28.5885 40.0786,29.1485 M 37.8369,33.0721 C 36.713,31.9522 35.5951,30.5514 34.4712,29.4315 C 35.0332,28.8695 35.5951,28.5885 36.153,28.3096 C 36.436,28.0266 36.996,27.7497 37.2749,27.7497 L 37.8369,27.7497 L 37.8369,24.9439 C 37.8369,24.9439 37.5559,24.9439 37.2749,25.2249 C 36.996,25.2249 36.713,25.5079 36.153,25.7848 C 35.8741,26.0658 35.3141,26.6278 35.0332,26.9047 C 34.1923,27.4666 33.6323,28.0266 33.3513,28.5885 C 32.7894,29.1485 32.5125,29.4315 32.2315,29.7084 C 31.6695,29.9894 31.3885,30.2683 31.1075,30.5514 C 30.8286,30.8323 30.5476,30.8323 30.2707,31.1092 C 31.1075,31.9522 31.9525,32.7972 32.7894,33.634 C 33.6323,34.4729 34.4712,35.3159 35.5951,36.4357 L 37.8369,38.9605 L 37.8369,33.0721 z M 55.492,17.0988 L 55.775,16.8158 C 55.775,16.2579 55.492,15.6959 55.492,15.419 C 55.492,15.136 55.492,14.574 55.2151,14.2951 C 54.6511,14.012 54.0912,14.012 53.2523,14.2951 C 52.4093,14.574 51.5705,14.855 50.7275,15.136 C 50.1676,15.6959 49.6076,16.2579 49.0457,16.8158 C 48.4857,17.3777 48.2048,17.9377 47.9258,18.4996 C 47.6448,19.3405 47.6448,19.9005 47.6448,20.7393 C 47.6448,21.5823 47.9258,22.4252 48.4857,23.2641 C 49.0457,24.105 49.6076,24.665 50.1676,24.9439 C 51.0105,25.5079 51.5705,25.7848 52.4093,25.7848 L 54.6511,25.7848 L 56.6139,25.7848 C 57.4568,25.5079 58.0168,25.7848 58.5767,25.7848 C 59.1387,26.0658 59.6986,26.3448 59.9755,26.9047 C 60.2585,27.7497 60.2585,28.3096 60.2585,29.1485 C 59.9755,29.7084 59.4176,30.2683 58.5767,30.8323 C 58.0168,31.1092 57.7378,31.3923 57.1738,31.3923 C 56.8949,31.6712 56.3349,31.6712 56.054,31.3923 C 55.492,31.3923 55.2151,31.3923 54.9321,31.1092 C 54.3721,30.8323 54.0912,30.5514 53.8122,30.2683 L 53.5333,30.5514 C 53.8122,31.1092 53.8122,31.6712 54.0912,32.2311 C 54.0912,32.7972 54.3721,33.353 54.6511,33.917 C 54.9321,33.917 55.492,33.917 56.3349,33.634 C 57.1738,33.353 58.0168,33.0721 58.8557,32.5121 C 59.6986,32.2311 60.5395,31.3923 61.0994,30.8323 C 61.6594,30.2683 62.2213,29.4315 62.4983,28.5885 C 62.7813,28.0266 62.7813,27.1877 62.7813,26.3448 C 62.4983,25.5079 62.4983,24.665 61.9424,23.822 C 61.3804,22.9831 60.8225,22.4252 60.2585,22.1422 C 59.4176,21.8592 58.8557,21.5823 58.0168,21.3033 L 55.775,21.3033 C 54.9321,21.5823 54.3721,21.5823 53.5333,21.5823 C 52.9713,21.5823 52.4093,21.5823 51.8494,21.3033 C 51.2895,21.0203 50.7275,20.7393 50.4506,20.1794 C 50.1676,19.6195 49.8866,19.0596 50.1676,18.2186 C 50.4506,17.6546 51.0105,17.0988 51.5705,16.8158 C 52.9713,15.9748 54.3721,15.9748 55.492,17.0988 M 64.4631,17.0988 L 65.8639,20.4604 C 66.4239,21.8592 66.9858,22.9831 67.2628,24.105 C 67.8268,25.2249 68.1057,26.0658 68.3887,27.1877 C 68.6656,27.1877 68.9466,26.9047 69.5086,26.9047 C 69.7875,26.6278 70.0705,26.6278 70.6284,26.3448 C 70.9074,26.0658 71.1884,26.0658 71.4714,25.7848 C 72.0293,25.7848 72.3082,25.7848 72.5892,25.5079 C 72.0293,24.665 71.4714,23.5451 71.1884,22.4252 C 70.6284,21.5823 70.0705,20.1794 69.5086,18.7786 L 68.1057,15.419 C 67.8268,14.2951 67.2628,12.8942 66.7049,11.7703 C 66.4239,10.9314 66.1429,9.81154 65.583,8.68964 C 65.304,8.68964 65.023,8.97063 64.742,8.97063 C 64.4631,9.25161 64.1801,9.25161 63.6222,9.52852 C 63.3412,9.81154 62.7813,9.81154 62.4983,10.0905 C 62.2213,10.0905 61.9424,10.0905 61.6594,10.3715 C 62.2213,11.2103 62.4983,12.3363 63.0582,13.4501 C 63.6222,14.574 63.9032,15.6959 64.4631,17.0988 M 82.9612,5.60697 C 83.8021,5.88592 84.362,6.16487 85.2009,6.44585 C 85.7649,7.00985 86.3207,7.56571 86.8847,8.40662 C 87.4426,9.25161 87.7236,10.0905 88.0026,11.2103 C 88.5666,14.012 88.5666,15.9748 87.7236,17.6546 C 86.8847,19.3405 85.4839,20.1794 83.5211,20.7393 L 82.9612,20.7393 L 82.9612,22.4252 C 83.8021,22.1422 84.362,22.1422 85.2009,21.8592 C 86.6038,21.5823 87.4426,21.0203 88.5666,20.4604 C 89.4054,19.6195 90.2484,18.7786 91.0893,17.9377 C 91.6472,16.8158 91.9282,15.6959 92.2071,14.2951 C 92.4881,13.1752 92.4881,11.7703 91.9282,10.3715 C 91.6472,8.68964 91.0893,7.28473 90.5273,6.44585 C 89.6864,5.32395 88.8455,4.76402 87.7236,4.20206 C 86.6038,3.92718 85.4839,3.64416 84.362,3.64416 L 82.9612,3.64416 L 82.9612,5.60697 z M 79.8765,16.2579 L 78.1946,8.68964 C 78.1946,8.12971 77.9136,7.56571 77.9136,7.28473 C 77.9136,6.72887 77.6347,6.44585 77.6347,6.44585 C 78.1946,6.44585 78.4736,6.16487 78.7546,6.16487 C 79.3165,5.88592 79.8765,5.88592 80.4364,5.60697 L 82.9612,5.60697 L 82.9612,3.64416 C 82.1182,3.92718 80.9963,3.92718 80.1574,4.20206 C 79.0376,4.48508 77.9136,4.76402 77.3557,5.04704 C 76.5128,5.04704 75.9529,5.32395 75.3929,5.32395 C 75.112,5.60697 74.552,5.60697 74.2731,5.60697 C 73.9901,5.60697 73.4301,5.88592 73.1532,5.88592 C 73.7131,7.00985 73.9901,8.12971 74.2731,9.25161 C 74.552,10.0905 74.833,11.4913 75.112,12.8942 L 75.9529,16.5348 C 76.2339,17.9377 76.5128,19.0596 76.7938,20.4604 C 77.0748,21.5823 77.0748,22.4252 77.3557,23.5451 C 77.6347,23.5451 77.9136,23.5451 78.1946,23.2641 C 78.7546,23.2641 79.0376,23.2641 79.5975,22.9831 C 80.1574,22.9831 80.9963,22.7022 81.8393,22.7022 C 82.1182,22.4252 82.6802,22.4252 82.9612,22.4252 L 82.9612,20.7393 C 82.6802,21.0203 82.4012,21.0203 82.1182,21.0203 C 81.8393,21.0203 81.2793,21.3033 80.9963,21.3033 L 80.9963,20.4604 C 80.7194,19.9005 80.7194,19.6195 80.7194,19.0596 L 79.8765,16.2579 z M 102.298,12.0533 L 104.54,12.0533 C 104.257,10.9314 103.699,9.81154 103.139,8.97063 C 102.86,8.12971 102.577,7.56571 102.298,6.72887 L 102.298,0.842474 C 102.577,0.842474 102.577,0.561491 102.86,0.561491 L 103.139,0.561491 C 103.98,1.96437 104.823,3.64416 105.381,5.04704 C 106.224,6.72887 107.065,8.40662 107.904,10.0905 C 108.744,11.7703 109.589,13.1752 110.147,14.574 C 110.986,15.9748 111.548,17.3777 112.389,18.2186 L 110.986,18.2186 C 110.703,18.2186 110.424,18.4996 109.864,18.4996 L 108.744,18.4996 C 108.463,18.4996 107.904,18.4996 107.627,18.7786 C 107.344,17.9377 107.065,16.8158 106.499,15.9748 C 106.224,15.136 105.664,14.2951 105.381,13.4501 L 103.699,13.4501 C 103.139,13.4501 102.577,13.7331 102.298,13.7331 L 102.298,12.0533 z M 101.736,5.88592 C 101.461,7.00985 100.897,8.12971 100.614,8.97063 C 100.335,10.0905 100.056,11.2103 99.7774,12.3363 L 102.298,12.0533 L 102.298,13.7331 L 102.019,13.7331 L 100.614,13.7331 C 100.056,13.7331 99.7774,14.012 99.2175,14.012 C 98.9344,14.855 98.6555,15.9748 98.3745,16.8158 C 98.0935,17.6546 98.0935,18.4996 97.8146,19.6195 L 97.2547,19.6195 L 96.6927,19.6195 L 95.8518,19.6195 L 95.2959,19.6195 C 95.5708,19.3405 95.5708,18.4996 95.8518,17.6546 C 96.1307,16.8158 96.4137,15.9748 96.9757,14.855 C 97.2547,13.7331 97.5316,12.6132 97.8146,11.4913 C 98.3745,10.0905 98.6555,8.97063 99.2175,7.84873 C 99.4984,6.44585 99.7774,5.32395 100.335,3.92718 C 100.614,2.80325 100.897,1.68135 101.18,0.561491 C 101.461,0.561491 101.461,0.842474 101.736,0.842474 L 102.298,0.842474 L 102.298,6.72887 C 102.019,6.44585 101.736,6.16487 101.736,5.88592 M 124.162,2.24128 C 124.722,2.24128 125.28,2.5243 125.559,2.80325 C 126.402,3.0822 126.959,3.64416 127.521,4.20206 C 127.804,5.04704 128.366,5.60697 128.641,6.44585 C 128.641,7.56571 128.924,8.40662 128.641,9.52852 C 128.641,12.3363 127.804,14.2951 126.683,15.6959 C 125.842,16.2579 124.999,16.8158 124.162,17.0988 L 124.162,19.0596 C 124.999,18.7786 125.842,18.7786 126.683,18.4996 C 127.804,18.2186 128.924,17.6546 129.767,16.8158 C 130.606,15.9748 131.447,15.136 132.007,13.7331 C 132.567,12.6132 132.85,11.4913 132.85,9.81154 C 133.127,8.12971 132.85,6.72887 132.567,5.60697 C 132.007,4.48508 131.447,3.64416 130.606,2.80325 C 129.767,2.24128 128.641,1.68135 127.521,1.11939 C 126.402,0.842474 125.28,0.842474 124.162,0.561491 L 124.162,2.24128 z M 119.676,12.0533 L 120.236,4.20206 L 120.236,2.80325 C 120.236,2.5243 120.236,2.24128 120.517,1.96437 L 121.637,1.96437 L 123.038,1.96437 C 123.6,1.96437 123.883,2.24128 124.162,2.24128 L 124.162,0.561491 L 123.317,0.561491 C 122.199,0.561491 121.075,0.280508 120.517,0.561491 C 119.676,0.280508 119.112,0.280508 118.554,0.280508 L 117.435,0.280508 C 116.871,0.280508 116.59,-0.00047514 116.311,-0.00047514 L 116.311,3.64416 C 116.311,4.76402 116.032,5.88592 116.032,7.56571 L 115.753,10.9314 C 115.753,12.6132 115.474,13.7331 115.474,15.136 C 115.191,16.2579 115.191,17.3777 114.912,18.2186 L 116.032,18.2186 C 116.311,18.4996 116.871,18.4996 117.154,18.4996 L 119.676,18.4996 C 120.517,18.7786 121.637,18.7786 123.038,18.7786 C 123.317,19.0596 123.6,19.0596 124.162,19.0596 L 124.162,17.0988 C 123.317,17.3777 122.478,17.3777 121.637,17.3777 C 121.075,17.3777 120.517,17.3777 120.236,17.0988 L 119.395,17.0988 L 119.395,16.2579 L 119.395,14.855 L 119.676,12.0533 z M 152.749,10.3715 C 152.187,11.2103 151.625,12.0533 151.065,12.6132 L 151.065,9.52852 C 151.344,9.25161 151.904,8.68964 152.187,8.12971 C 153.03,7.28473 153.59,6.44585 154.429,5.60697 C 154.71,5.88592 154.71,5.88592 154.993,5.88592 L 155.551,5.88592 C 155.551,5.88592 155.829,5.88592 156.11,6.16487 C 156.11,7.56571 156.11,9.25161 156.391,11.2103 C 156.674,13.1752 156.674,14.855 156.949,16.5348 C 156.949,18.4996 157.232,20.1794 157.511,21.5823 C 157.511,23.2641 157.794,24.665 158.071,25.7848 C 157.511,25.7848 157.232,25.5079 156.949,25.5079 C 156.391,25.2249 156.11,25.2249 155.829,25.2249 C 155.551,24.9439 154.993,24.9439 154.71,24.9439 C 154.429,24.665 154.146,24.665 153.867,24.665 L 153.867,21.8592 C 153.59,20.7393 153.59,19.9005 153.59,18.7786 C 153.03,18.7786 152.466,18.4996 151.904,18.4996 C 151.625,18.2186 151.344,18.2186 151.065,18.2186 L 151.065,16.5348 L 153.309,17.0988 C 153.309,15.9748 153.309,14.855 153.03,13.7331 C 153.03,12.6132 153.03,11.4913 152.749,10.3715 M 151.065,12.6132 C 151.065,12.8942 150.79,12.8942 150.79,13.1752 C 149.945,14.012 149.385,14.855 148.825,15.6959 L 151.065,16.5348 L 151.065,18.2186 C 150.79,17.9377 150.507,17.9377 150.226,17.9377 C 149.945,17.6546 149.385,17.6546 148.825,17.3777 C 148.544,17.3777 147.982,17.3777 147.699,17.0988 C 147.141,17.9377 146.583,18.7786 146.019,19.6195 C 145.458,20.1794 144.898,21.0203 144.34,21.8592 C 144.061,21.8592 144.061,21.5823 143.778,21.5823 C 143.499,21.5823 143.499,21.5823 143.218,21.3033 L 142.66,21.3033 C 142.379,21.3033 142.098,21.0203 141.815,21.0203 C 142.098,20.7393 142.66,20.1794 143.218,19.6195 C 143.778,18.7786 144.34,17.9377 145.181,17.0988 C 145.741,16.2579 146.583,15.419 147.424,14.2951 C 148.261,13.4501 149.104,12.3363 149.662,11.2103 C 150.226,10.6484 150.507,10.0905 151.065,9.52852 L 151.065,12.6132 z M 167.883,16.2579 C 167.323,17.3777 166.478,18.4996 165.922,19.9005 C 165.077,21.0203 164.239,22.1422 163.679,23.2641 C 162.838,24.384 162.276,25.2249 161.993,26.0658 C 161.435,26.6278 161.158,27.1877 161.158,27.1877 C 161.435,27.4666 161.716,27.4666 161.993,27.7497 C 162.276,27.7497 162.559,28.0266 162.559,28.0266 C 162.838,28.3096 163.117,28.3096 163.117,28.3096 C 163.4,28.3096 163.4,28.0266 163.4,27.7497 C 163.679,27.4666 163.958,27.1877 164.239,26.6278 C 164.239,26.0658 164.799,25.5079 165.077,24.9439 C 165.363,24.384 165.922,23.5451 166.478,22.7022 L 167.883,19.9005 C 168.16,19.3405 168.441,19.0596 168.722,18.4996 C 169.005,18.2186 169.28,17.6546 169.567,17.0988 C 170.964,22.9831 172.088,28.5885 173.208,34.1919 C 173.489,34.4729 173.768,34.4729 174.049,34.7559 C 174.325,34.7559 174.606,35.0328 175.17,35.3159 L 176.571,32.5121 C 177.408,31.3923 177.972,30.2683 178.532,29.4315 C 179.092,28.3096 179.654,27.4666 180.214,26.3448 C 180.776,25.5079 181.619,24.384 182.177,23.2641 C 183.016,22.1422 183.578,21.0203 184.695,19.6195 C 184.135,19.3405 183.859,19.3405 183.578,19.0596 C 183.297,19.0596 183.016,18.7786 182.456,18.4996 C 182.456,18.4996 182.177,18.7786 182.177,19.3405 C 181.898,19.9005 181.619,20.4604 181.055,21.0203 C 180.776,21.5823 180.491,22.4252 179.935,22.9831 C 179.654,23.822 179.092,24.384 178.817,25.2249 L 176.29,29.4315 C 175.732,26.6278 174.889,23.822 174.325,21.0203 C 173.768,18.2186 173.208,15.6959 172.65,12.6132 C 172.088,12.6132 171.805,12.3363 171.528,12.3363 C 171.243,12.0533 170.964,11.7703 170.685,11.4913 C 170.125,12.0533 169.842,12.6132 169.567,13.4501 C 169.005,14.2951 168.722,15.136 167.883,16.2579 M 197.309,28.8695 L 197.309,29.1485 C 198.712,29.4315 199.834,29.7084 200.396,29.9894 C 201.231,29.9894 201.795,30.2683 202.357,30.2683 L 203.193,30.2683 C 203.193,29.9894 203.474,29.9894 203.474,29.9894 C 203.755,29.7084 204.038,29.4315 204.038,29.1485 C 204.038,28.8695 203.755,28.3096 203.474,28.0266 C 203.474,28.0266 203.193,28.0266 203.193,27.7497 L 202.078,27.7497 L 200.109,27.7497 C 199.27,27.7497 198.435,28.0266 197.309,28.0266 L 197.309,28.8695 z M 197.309,32.7972 L 197.309,30.5514 L 197.592,30.8323 C 197.875,30.8323 197.875,31.1092 198.15,31.1092 C 197.875,31.6712 197.592,32.2311 197.309,32.7972 M 196.47,28.0266 L 197.309,28.8695 L 197.309,28.0266 L 196.47,28.0266 z M 197.309,30.5514 L 197.309,32.7972 C 196.749,33.917 196.47,34.7559 195.91,35.8758 C 195.067,37.5556 194.509,39.2374 193.669,40.9213 C 193.105,42.3201 192.266,44.0039 191.706,45.4027 C 191.142,47.0866 190.586,48.2105 190.303,49.3304 C 190.02,49.3304 190.02,49.0474 189.745,49.0474 L 189.745,39.2374 L 190.303,39.5184 C 190.586,38.3985 191.142,37.2766 191.706,36.4357 C 191.983,35.3159 192.545,34.4729 193.105,33.353 C 191.983,33.634 190.865,34.1919 189.745,34.4729 L 189.745,32.5121 C 191.142,31.9522 192.266,31.6712 193.386,31.1092 C 194.509,30.5514 195.629,29.9894 196.749,29.7084 C 196.749,29.7084 196.749,29.9894 197.026,29.9894 C 197.026,30.2683 197.026,30.2683 197.309,30.5514 M 189.745,32.5121 L 189.745,34.4729 C 188.902,35.0328 187.784,35.5948 186.656,35.8758 L 189.745,39.2374 L 189.745,49.0474 C 189.745,48.7664 189.464,48.4874 189.464,48.4874 C 189.183,48.2105 188.902,47.9275 188.623,47.6465 C 188.34,47.3696 188.061,47.0866 187.784,46.8036 C 187.503,46.5246 187.22,46.2477 186.943,46.2477 C 187.503,45.4027 187.784,44.5618 188.34,43.723 C 188.623,42.882 189.183,41.7622 189.464,40.9213 C 189.183,40.6382 188.623,40.0804 188.34,39.7973 C 187.784,39.2374 187.503,38.9605 187.22,38.6795 C 186.656,38.1155 186.381,37.8386 186.098,37.5556 C 185.821,37.2766 185.538,36.9977 184.978,36.7167 C 184.135,36.9977 183.297,37.5556 182.456,37.8386 C 181.619,38.3985 180.776,38.6795 179.935,39.2374 C 179.935,38.9605 179.654,38.6795 179.654,38.6795 C 179.375,38.3985 179.375,38.3985 179.092,38.1155 L 178.817,37.8386 C 178.532,37.5556 178.532,37.5556 178.255,37.2766 C 178.532,37.2766 179.375,36.9977 180.214,36.4357 C 181.055,36.1527 181.898,35.8758 183.016,35.3159 C 183.859,35.0328 184.978,34.4729 186.381,34.1919 C 187.503,33.634 188.623,33.0721 189.745,32.5121 M 206.276,58.0164 L 204.879,58.8553 C 203.474,59.7003 202.357,60.2602 201.514,60.8181 C 200.396,61.3801 199.551,61.94 198.435,62.5 C 198.712,62.783 198.995,63.0599 198.995,63.3429 C 199.27,63.6239 199.551,63.9008 199.551,64.1797 C 199.834,64.7458 200.109,65.0227 200.396,65.3037 C 200.396,65.5847 200.675,65.8656 200.675,66.1426 C 201.795,65.5847 202.634,65.0227 203.474,64.4628 C 204.598,63.6239 205.716,63.0599 206.84,62.221 L 209.923,60.2602 C 211.326,59.7003 212.444,58.8553 213.288,58.2954 C 214.408,57.7334 215.526,57.1755 216.369,56.6156 C 216.369,56.6156 216.088,56.3367 215.811,56.0536 C 215.811,55.7747 215.526,55.2148 215.247,54.9338 C 214.968,54.6508 214.689,54.0949 214.689,53.8119 C 214.408,53.535 214.408,53.2519 214.127,52.971 C 213.288,53.535 212.444,54.3759 211.326,54.9338 C 210.485,55.4957 209.359,56.3367 207.96,56.8945 C 207.681,56.6156 207.398,56.0536 207.121,55.4957 C 206.84,54.9338 206.276,54.3759 205.999,53.535 C 205.435,52.692 204.879,52.1321 204.598,51.5701 C 204.317,51.0102 204.038,50.4523 203.755,49.8883 C 205.158,49.3304 206.276,48.4874 207.121,47.9275 C 208.241,47.3696 209.359,46.8036 210.204,46.5246 C 210.204,46.2477 209.923,45.9647 209.64,45.6858 C 209.359,45.4027 209.359,45.1279 209.082,44.5618 C 208.801,44.2849 208.524,44.0039 208.524,43.4399 C 208.241,43.163 208.241,42.882 207.96,42.6011 C 207.121,43.4399 205.999,44.0039 205.158,44.5618 C 204.038,45.1279 202.917,45.9647 201.795,46.5246 L 198.712,48.4874 C 197.309,49.3304 196.193,49.8883 195.346,50.4523 C 194.226,51.0102 193.386,51.5701 192.266,52.1321 C 192.545,52.411 192.545,52.692 192.828,52.971 C 193.105,53.2519 193.105,53.535 193.386,53.8119 C 193.669,54.3759 193.95,54.6508 193.95,54.9338 C 194.226,55.2148 194.509,55.4957 194.509,55.7747 C 195.346,55.2148 196.47,54.6508 197.309,54.0949 C 198.435,53.2519 199.551,52.692 200.675,51.8491 L 202.078,51.0102 C 202.357,51.5701 202.634,52.1321 203.193,52.692 C 203.474,53.2519 203.755,54.0949 204.317,54.6508 C 204.598,55.2148 204.879,55.7747 205.158,56.3367 C 205.435,56.8945 205.716,57.4585 206.276,58.0164 M 204.879,79.0393 C 205.716,81.5559 206.84,83.2418 208.524,84.0827 C 210.204,84.9216 212.444,84.9216 215.526,84.0827 C 216.652,83.8017 217.489,83.5208 218.613,83.2418 C 219.729,82.9608 220.574,82.6778 221.413,82.4009 C 222.256,82.1219 222.817,82.1219 223.656,81.8389 C 224.216,81.5559 224.776,81.5559 225.055,81.5559 C 225.055,81.281 225.055,81.0021 224.776,81.0021 C 224.776,80.7191 224.776,80.4361 224.497,80.1591 L 224.497,79.5972 C 224.497,79.3182 224.497,79.0393 224.216,79.0393 C 223.094,79.3182 221.977,79.8782 220.855,80.1591 C 219.729,80.4361 218.613,81.0021 217.489,81.281 C 216.088,81.5559 214.968,81.8389 213.85,82.1219 C 212.729,82.4009 211.884,82.6778 210.768,82.4009 C 209.923,82.4009 209.082,82.4009 208.524,81.8389 C 207.681,81.5559 207.121,80.7191 206.84,79.5972 C 206.561,78.7563 206.561,78.1984 206.561,77.3534 C 206.561,76.7934 206.561,76.2315 207.121,75.3926 C 207.398,74.8347 207.96,74.2727 208.801,73.7128 C 209.923,73.4298 211.043,72.8719 212.444,72.3099 C 214.127,72.033 215.526,71.469 216.933,71.1901 C 218.33,70.6301 220.012,70.3471 221.692,70.0682 C 221.413,69.7892 221.413,69.2252 221.134,68.9504 C 221.134,68.6673 220.855,68.3884 220.855,67.8285 C 220.855,67.5454 220.574,67.2645 220.574,66.9835 C 220.574,66.4256 220.293,66.1426 220.293,65.8656 C 220.012,65.8656 219.169,66.1426 218.33,66.4256 C 217.489,66.7045 216.369,66.9835 215.247,67.5454 C 214.689,67.5454 214.127,67.8285 213.85,67.8285 C 213.288,68.1054 213.005,68.1054 212.444,68.3884 C 211.884,68.3884 211.605,68.6673 211.043,68.6673 C 210.485,68.9504 209.923,69.2252 209.082,69.2252 C 207.96,69.7892 206.84,70.0682 206.276,70.9091 C 205.435,71.469 204.879,72.3099 204.598,73.1488 C 204.317,73.9918 204.317,74.8347 204.317,75.9546 C 204.317,77.0765 204.598,77.9174 204.879,79.0393 M 222.256,95.8514 C 221.134,95.5745 220.012,95.2915 219.169,95.0126 L 219.169,93.0498 C 219.452,93.3328 220.012,93.3328 220.293,93.3328 C 221.692,93.8886 222.817,94.1696 223.937,94.4526 C 225.336,94.7357 226.46,95.0126 227.582,95.2915 C 227.582,95.5745 227.299,95.5745 227.299,95.8514 C 227.299,96.1345 227.299,96.1345 227.582,96.4154 L 227.582,96.9733 L 227.582,97.2523 C 226.177,98.0952 224.776,98.9341 223.094,99.7791 C 221.692,100.337 220.293,101.176 219.169,102.019 L 219.169,97.8163 C 219.169,97.5353 219.169,97.5353 219.452,97.5353 C 220.293,96.9733 221.413,96.4154 222.256,95.8514 M 219.169,95.0126 L 219.169,95.0126 C 218.049,94.7357 216.933,94.4526 215.811,94.1696 L 216.369,99.2171 C 217.21,98.6572 218.049,98.0952 219.169,97.8163 L 219.169,102.019 C 218.892,102.019 218.613,102.3 218.33,102.3 C 216.652,103.139 215.247,103.982 213.85,104.825 C 212.444,105.663 211.326,106.223 210.204,107.064 L 210.204,105.663 C 210.204,105.385 210.204,105.101 209.923,104.542 L 209.923,103.42 C 209.923,103.139 209.923,102.862 209.64,102.3 C 210.485,102.019 211.326,101.459 212.163,101.176 C 213.005,100.616 213.85,100.337 214.968,99.7791 C 214.689,99.2171 214.689,98.6572 214.689,98.0952 C 214.689,97.5353 214.689,96.9733 214.408,96.4154 L 214.408,95.0126 C 214.127,94.7357 214.127,94.1696 214.127,93.6117 C 213.005,93.6117 212.163,93.3328 211.326,93.0498 C 210.204,92.7708 209.359,92.7708 208.524,92.4898 L 208.524,91.9279 L 208.524,91.3679 C 208.524,91.0869 208.241,90.806 208.241,90.806 L 208.241,89.9671 C 208.801,90.2481 209.359,90.2481 210.204,90.5311 C 211.043,90.806 212.163,91.0869 213.005,91.3679 C 214.127,91.6509 215.247,92.2109 216.652,92.4898 C 217.489,92.7708 218.33,92.7708 219.169,93.0498 L 219.169,95.0126 z M 213.288,124.162 L 213.563,123.878 C 213.005,123.602 212.729,123.319 212.729,122.757 C 212.444,122.48 212.163,121.92 211.884,121.637 C 211.884,121.077 211.605,120.798 211.605,120.236 C 211.605,119.957 211.326,119.399 211.326,119.114 C 211.326,118.277 211.605,117.434 211.884,116.593 C 212.163,116.035 212.444,115.192 213.288,114.63 C 213.85,114.073 214.689,113.509 215.526,113.23 C 216.652,112.951 217.772,112.67 219.169,112.67 C 220.574,112.67 221.692,112.951 222.817,113.23 C 223.656,113.509 224.497,114.073 225.336,114.63 C 225.898,115.192 226.46,115.752 226.739,116.593 C 227.02,117.434 227.299,117.994 227.299,118.837 C 227.299,119.674 227.02,120.519 226.739,121.36 C 226.177,121.92 225.619,122.757 224.776,123.319 L 224.776,123.602 C 225.336,123.602 225.898,123.878 226.177,123.878 C 226.739,123.878 227.02,124.162 227.582,124.442 C 227.861,123.878 227.861,123.602 228.14,123.319 C 228.14,122.757 228.419,122.199 228.419,121.92 C 228.702,121.36 228.702,120.798 228.702,120.236 C 228.983,119.957 228.983,119.399 228.983,118.837 C 228.983,117.434 228.702,116.035 228.419,114.914 C 227.861,113.509 227.299,112.391 226.46,111.548 C 225.619,110.426 224.776,109.585 223.375,109.027 C 221.977,108.465 220.574,108.182 218.613,108.182 C 217.489,108.182 216.369,108.465 215.247,109.027 C 214.127,109.306 213.005,110.149 212.444,110.988 C 211.605,111.831 211.043,112.67 210.485,114.073 C 210.204,115.192 209.923,116.593 209.923,117.994 C 209.923,120.236 210.204,122.199 211.043,123.602 C 211.326,123.602 211.605,123.602 212.163,123.878 C 212.444,123.878 212.729,123.878 213.288,124.162 M 5.6073,153.589 C 5.6073,153.589 5.6073,153.868 5.88421,154.149 L 5.88421,154.99 C 8.68997,155.271 11.7706,155.271 14.5743,155.831 C 17.657,156.11 20.4587,156.393 23.5414,156.67 C 23.2624,156.393 23.2624,156.11 23.2624,155.831 C 23.2624,155.831 22.9835,155.554 22.9835,155.271 C 22.4195,155.271 21.8616,154.99 21.0207,154.99 L 18.7769,154.99 C 17.657,154.99 16.8161,154.709 15.9752,154.709 C 14.8533,154.709 14.0103,154.709 13.1735,154.43 L 10.3718,154.43 C 9.52682,154.149 8.68997,154.149 8.12801,154.149 C 9.2499,153.31 10.0888,152.47 11.2086,151.627 C 12.3326,151.067 13.4545,150.23 14.5743,149.664 C 15.4132,148.825 16.5371,147.984 17.657,147.422 C 18.4979,146.864 19.6198,146.021 20.4587,145.461 C 20.4587,145.461 20.4587,145.182 20.1797,144.899 L 20.1797,144.62 C 20.1797,144.339 19.8988,144.062 19.8988,144.062 L 19.8988,143.496 C 18.7769,144.339 17.376,145.182 16.2562,146.021 C 14.8533,147.143 13.4545,147.984 12.3326,148.825 C 10.9297,149.664 9.80983,150.786 8.40695,151.35 C 7.28709,152.189 6.44414,153.029 5.6073,153.589 M 19.0578,161.72 L 15.1343,163.12 C 14.2933,163.68 13.1735,163.957 12.3326,164.24 C 11.2086,164.519 10.3718,165.079 9.52682,165.36 C 9.52682,165.643 9.80983,165.92 9.80983,166.199 C 10.0888,166.763 10.0888,167.042 10.0888,167.321 C 11.2086,167.042 12.0516,166.482 12.8945,166.199 C 14.0103,165.643 14.8533,165.36 15.6942,164.802 L 19.6198,163.397 C 20.7417,162.837 21.5806,162.561 22.4195,162.277 C 23.5414,161.72 24.3823,161.439 25.5042,161.156 C 25.5042,160.875 25.2232,160.875 25.2232,160.598 L 24.9422,160.315 L 24.9422,159.753 C 24.6653,159.476 24.6653,159.195 24.6653,159.195 C 23.8223,159.476 22.7025,160.034 21.8616,160.315 C 21.0207,160.875 19.8988,161.156 19.0578,161.72 M 18.2149,184.137 L 18.4979,184.42 C 18.4979,184.42 18.7769,184.42 19.0578,184.137 C 19.3388,183.858 19.8988,183.577 20.1797,183.577 C 20.7417,183.3 21.2996,183.017 21.8616,182.738 C 22.1405,182.455 22.7025,181.897 23.2624,181.616 C 23.8223,181.333 24.3823,181.057 24.9422,180.774 C 25.2232,180.493 25.7852,180.493 26.0661,180.216 C 26.3451,179.935 26.9071,179.654 27.748,179.373 C 28.3079,179.094 29.1468,178.534 29.7067,178.251 C 30.5476,177.974 31.1075,177.691 31.9525,177.412 C 32.5125,176.854 33.0724,176.854 33.3513,176.571 C 33.0724,176.288 32.7894,176.288 32.7894,176.013 C 32.7894,175.732 32.7894,175.732 32.5125,175.449 C 31.3885,176.013 29.9897,176.854 28.5868,177.691 C 27.188,178.534 25.7852,179.373 24.3823,179.935 L 21.5806,181.616 C 21.8616,180.774 22.1405,179.654 22.7025,178.251 C 23.2624,177.133 23.8223,175.732 24.3823,174.327 C 24.9422,172.649 25.5042,171.245 26.0661,169.848 C 26.624,168.443 27.188,167.042 27.4649,165.643 L 27.4649,165.36 C 26.9071,165.643 26.3451,166.199 25.2232,166.482 C 24.3823,167.042 23.2624,167.885 21.8616,168.443 C 21.2996,168.724 20.7417,169.003 20.1797,169.284 C 19.6198,169.848 19.0578,170.125 18.4979,170.404 C 17.657,170.687 17.095,170.968 16.5371,171.245 C 15.9752,171.528 15.1343,171.806 14.8533,172.087 C 14.2933,172.366 13.7334,172.649 13.4545,172.928 C 12.8945,172.928 12.6115,173.207 12.6115,173.207 C 12.6115,173.488 12.8945,173.488 12.8945,173.769 C 13.1735,174.05 13.1735,174.327 13.1735,174.608 C 13.4545,174.608 13.4545,174.327 14.0103,174.05 C 14.2933,174.05 14.5743,173.769 14.8533,173.488 C 15.4132,173.207 15.6942,172.928 16.2562,172.649 C 16.8161,172.366 17.376,172.087 17.657,171.806 C 18.2149,171.528 18.7769,171.245 19.0578,170.968 C 19.6198,170.968 19.8988,170.687 20.1797,170.404 C 21.2996,169.848 22.1405,169.284 22.9835,169.003 C 23.5414,168.724 24.1033,168.443 24.3823,168.162 C 23.5414,170.968 22.4195,173.769 21.2996,176.288 C 20.4587,179.094 19.3388,181.616 18.2149,184.137 M 31.6695,199.274 L 33.0724,198.435 L 33.0724,198.152 L 31.9525,198.152 C 31.6695,197.871 31.1075,197.871 30.8286,197.594 C 30.5476,197.594 29.9897,197.311 29.7067,197.03 C 29.1468,197.03 28.8699,196.472 28.5868,196.189 C 28.0249,195.631 27.4649,194.786 27.188,193.947 C 27.188,193.387 26.9071,192.55 27.188,191.705 C 27.188,190.864 27.4649,190.022 28.0249,189.185 C 28.5868,188.346 29.4298,187.505 30.2707,186.658 C 31.3885,185.821 32.2315,184.98 33.3513,184.697 C 34.1923,184.137 35.0332,184.137 35.8741,184.137 C 36.713,184.137 37.5559,184.137 38.3968,184.42 C 38.9567,184.98 39.5187,185.538 40.0786,186.102 C 40.6386,186.383 40.9175,186.941 40.9175,187.222 C 41.2005,187.78 41.2005,188.063 41.2005,188.623 C 41.4795,188.902 41.4795,189.466 41.4795,189.745 C 41.4795,190.022 41.4795,190.305 41.2005,190.588 L 41.4795,190.588 C 41.7605,190.588 42.0374,190.305 42.3204,190.022 C 42.6014,190.022 42.8803,189.745 43.1613,189.745 C 42.8803,189.185 42.6014,188.346 42.3204,187.78 C 42.0374,186.941 41.4795,186.102 40.9175,185.538 C 40.0786,184.697 39.2377,183.858 38.1199,183.3 C 37.2749,182.738 36.436,182.455 35.3141,182.455 C 34.1923,182.455 33.0724,182.738 32.2315,183.017 C 31.1075,183.3 29.9897,184.137 28.8699,184.98 C 28.0249,185.821 27.188,186.658 26.624,187.78 C 26.0661,188.902 25.7852,189.745 25.7852,190.864 C 25.5042,191.705 25.7852,192.827 26.0661,193.947 C 26.3451,194.786 26.9071,195.631 27.748,196.472 C 28.0249,197.03 28.5868,197.311 28.8699,197.594 C 29.4298,197.871 29.7067,198.152 29.9897,198.435 C 30.2707,198.714 30.8286,198.714 31.1075,198.995 C 31.3885,198.995 31.6695,198.995 31.6695,199.274 M 42.3204,196.189 L 39.5187,199.274 C 38.9567,200.115 38.1199,200.953 37.5559,201.796 C 36.996,202.358 36.153,203.195 35.5951,204.036 C 36.153,204.319 36.436,204.881 36.996,205.158 C 37.5559,205.72 38.1199,206.003 38.6798,206.561 C 38.9567,206.84 39.5187,207.4 40.0786,207.683 C 40.6386,208.241 41.2005,208.524 41.4795,209.084 C 41.4795,208.803 41.7605,208.803 41.7605,208.524 C 42.0374,208.524 42.0374,208.241 42.0374,208.241 C 42.3204,208.241 42.3204,207.964 42.3204,207.964 C 42.0374,207.964 41.7605,207.683 41.4795,207.4 C 40.9175,207.119 40.6386,206.84 40.0786,206.561 C 39.7956,206.003 39.2377,205.72 38.9567,205.441 C 38.3968,205.158 38.1199,204.881 37.8369,204.319 C 37.8369,204.319 38.1199,203.759 38.6798,203.478 C 38.9567,202.918 39.5187,202.358 40.0786,201.796 L 41.4795,199.834 C 41.7605,199.555 41.7605,199.555 42.0374,199.274 C 42.0374,199.274 42.0374,198.995 42.3204,198.995 C 42.3204,199.274 42.6014,199.274 43.1613,199.834 C 43.4403,200.115 43.7212,200.393 44.0002,200.676 C 44.5622,200.953 44.8431,201.234 45.1221,201.515 C 45.6861,202.075 45.963,202.358 46.246,202.639 C 46.246,202.358 46.525,202.075 46.525,202.075 C 46.8039,201.796 46.8039,201.515 47.0849,201.515 C 46.8039,201.234 46.525,200.953 46.246,200.953 C 45.963,200.676 45.6861,200.393 45.4031,200.115 C 45.1221,199.834 44.5622,199.555 44.2832,199.274 C 43.7212,198.995 43.4403,198.714 42.8803,198.152 C 43.1613,197.871 43.4403,197.594 43.7212,197.311 C 44.0002,196.751 44.5622,196.189 44.8431,195.91 C 45.4031,195.35 45.6861,195.069 45.963,194.511 C 46.246,194.226 46.525,193.947 47.0849,193.387 C 47.3659,193.947 47.9258,194.226 48.2048,194.786 C 48.7667,195.069 49.0457,195.35 49.3287,195.631 C 49.6076,195.91 49.8866,196.189 50.1676,196.472 C 50.4506,196.751 50.7275,197.03 51.2895,197.311 C 51.2895,197.311 51.2895,197.03 51.5705,196.751 C 51.8494,196.751 51.8494,196.472 52.1324,196.189 C 51.5705,195.91 51.0105,195.631 50.4506,195.069 C 50.1676,194.786 49.6076,194.226 49.0457,193.947 C 48.4857,193.387 47.9258,193.11 47.6448,192.55 C 47.0849,192.267 46.525,191.705 46.246,191.426 C 45.4031,192.267 44.8431,192.827 44.2832,193.67 C 43.7212,194.511 42.8803,195.35 42.3204,196.189 M 57.7378,207.119 L 55.775,210.765 C 55.2151,211.604 54.6511,212.445 54.0912,213.567 C 53.5333,214.406 53.2523,215.253 52.6923,216.09 C 52.9713,216.09 53.2523,216.367 53.5333,216.65 C 53.8122,216.65 54.3721,216.929 54.6511,217.212 C 54.9321,216.09 55.492,215.253 55.775,214.406 C 56.3349,213.284 56.8949,212.445 57.1738,211.604 L 59.1387,207.964 C 59.6986,206.84 60.2585,206.003 60.8225,205.158 C 61.0994,204.319 61.6594,203.478 62.2213,202.358 L 61.6594,202.358 L 61.3804,202.075 C 61.0994,202.075 61.0994,201.796 60.8225,201.796 L 60.5395,201.515 C 59.9755,202.358 59.4176,203.478 59.1387,204.319 C 58.5767,205.158 58.0168,206.003 57.7378,207.119 M 72.0293,224.776 L 72.3082,224.776 C 72.3082,224.776 72.3082,224.501 72.5892,224.218 C 72.5892,223.656 72.8702,223.379 72.8702,222.817 C 73.1532,222.257 73.4301,221.693 73.4301,221.137 C 73.7131,220.573 73.9901,220.013 74.2731,219.453 C 74.2731,218.892 74.552,218.334 74.833,218.053 C 74.833,217.489 75.112,216.929 75.112,216.65 C 75.3929,216.09 75.6719,215.528 75.9529,214.97 C 76.2339,214.129 76.5128,213.284 76.7938,212.724 C 77.0748,211.887 77.3557,211.325 77.6347,210.482 C 77.9136,209.925 78.1946,209.36 78.1946,209.084 L 77.6347,209.084 C 77.3557,209.084 77.0748,208.803 77.0748,208.524 C 76.5128,209.925 75.9529,211.325 75.6719,213.007 C 75.112,214.406 74.552,216.09 73.9901,217.489 L 72.8702,220.573 C 72.3082,219.732 72.0293,218.609 71.4714,217.212 C 70.9074,216.09 70.6284,214.689 70.0705,213.284 C 69.5086,211.887 68.9466,210.203 68.3887,208.803 C 67.8268,207.4 67.2628,206.003 66.9858,204.598 L 66.4239,204.598 C 66.4239,205.158 66.1429,205.72 65.583,206.84 C 65.304,207.964 65.023,209.084 64.4631,210.482 C 64.1801,211.044 63.9032,211.604 63.6222,212.168 C 63.6222,213.007 63.3412,213.567 63.0582,214.129 C 62.7813,214.97 62.4983,215.528 62.2213,216.09 C 61.9424,216.929 61.6594,217.489 61.3804,218.053 C 61.0994,218.609 61.0994,218.892 60.8225,219.453 C 60.5395,219.732 60.5395,220.013 60.2585,220.294 L 61.0994,220.294 C 61.3804,220.573 61.6594,220.573 61.9424,220.854 L 61.9424,220.013 C 62.2213,219.732 62.2213,219.173 62.4983,218.892 C 62.4983,218.334 62.7813,217.772 63.0582,217.212 C 63.0582,216.929 63.3412,216.367 63.6222,215.809 C 63.6222,215.253 63.9032,214.689 63.9032,214.406 C 64.1801,213.848 64.1801,213.567 64.4631,213.007 C 64.742,211.887 65.304,211.044 65.583,210.203 C 65.8639,209.644 65.8639,209.084 66.1429,208.524 C 67.2628,211.325 68.1057,214.129 69.2256,216.65 C 70.3475,219.453 71.1884,222.257 72.0293,224.776 M 91.3683,220.573 C 91.6472,220.573 91.9282,220.854 92.2071,220.854 C 92.7711,220.854 93.0501,221.137 93.61,221.693 C 93.893,221.974 94.1679,222.257 94.1679,222.817 C 94.4509,223.096 94.4509,223.656 94.4509,224.501 C 94.1679,225.059 94.1679,225.619 93.893,226.179 C 93.61,226.462 93.3331,227.02 92.7711,227.301 C 92.4881,227.584 92.2071,227.859 91.6472,227.859 L 91.3683,227.859 L 91.3683,228.704 L 91.9282,228.704 C 92.7711,228.704 93.3331,228.704 93.893,228.421 C 94.4509,227.859 95.0129,227.584 95.5708,227.02 C 95.8518,226.462 96.1307,225.619 96.4137,224.776 C 96.4137,223.379 96.4137,222.536 95.5708,221.693 C 95.0129,220.854 94.1679,220.573 92.7711,220.294 C 93.893,220.013 95.0129,219.732 95.5708,219.173 C 96.4137,218.609 96.9757,217.772 97.2547,216.65 C 97.2547,215.809 97.2547,215.253 96.9757,214.97 C 96.9757,214.406 96.6927,213.848 96.1307,213.567 C 95.8518,213.284 95.2959,213.007 94.7319,213.007 C 94.1679,212.724 93.61,212.445 93.0501,212.445 L 91.9282,212.445 C 91.6472,212.445 91.6472,212.168 91.3683,212.168 L 91.3683,213.007 C 91.6472,213.007 91.9282,213.007 92.2071,213.284 C 92.4881,213.284 93.0501,213.284 93.3331,213.567 C 93.61,213.567 94.1679,213.848 94.4509,214.129 C 94.7319,214.406 95.0129,214.689 95.0129,215.253 C 95.2959,215.528 95.2959,216.09 95.0129,216.65 C 95.0129,217.489 94.7319,218.053 94.4509,218.334 C 94.1679,218.609 93.893,218.892 93.3331,219.173 C 93.0501,219.453 92.4881,219.453 91.9282,219.453 C 91.6472,219.453 91.6472,219.732 91.3683,219.453 L 91.3683,220.573 z M 88.8455,222.536 L 89.1265,220.294 L 90.2484,220.294 C 90.5273,220.294 90.8083,220.573 91.3683,220.573 L 91.3683,219.453 L 90.5273,219.453 L 89.4054,219.453 L 89.6864,217.489 C 89.6864,216.65 89.9654,216.09 89.9654,215.253 C 90.2484,214.406 90.2484,213.848 90.5273,213.007 L 91.0893,213.007 L 91.3683,213.007 L 91.3683,212.168 L 90.8083,212.168 C 90.5273,212.168 89.9654,212.168 89.6864,211.887 C 89.4054,211.887 88.8455,211.887 88.5666,211.604 C 88.2836,212.724 88.2836,213.848 88.2836,214.689 C 88.0026,215.809 88.0026,216.929 87.7236,217.772 L 87.1657,221.974 C 86.8847,223.096 86.6038,223.939 86.6038,225.059 C 86.3207,225.898 86.0438,227.02 86.0438,228.142 L 86.8847,228.142 C 87.4426,228.142 87.7236,228.142 88.0026,228.421 L 89.1265,228.421 C 89.4054,228.704 89.6864,228.704 90.2484,228.704 L 91.3683,228.704 L 91.3683,227.859 L 90.2484,227.859 C 89.9654,227.859 89.4054,227.859 89.1265,227.584 C 88.8455,227.584 88.5666,227.584 88.2836,227.301 C 88.2836,226.739 88.2836,225.898 88.5666,225.059 C 88.5666,224.218 88.5666,223.379 88.8455,222.536 M 109.025,230.666 C 110.147,230.666 110.986,230.666 111.829,230.385 C 112.947,230.102 113.794,229.542 114.629,228.704 C 115.191,228.142 116.032,227.02 116.311,226.179 C 116.871,225.059 117.154,223.939 117.154,222.536 C 117.154,221.137 116.871,220.013 116.59,218.892 C 116.311,217.772 115.753,216.929 114.912,216.09 C 114.35,215.253 113.511,214.689 112.389,214.406 C 111.548,213.848 110.424,213.567 109.306,213.567 L 109.025,213.567 L 109.025,214.406 L 109.306,214.406 C 110.147,214.406 110.703,214.689 111.548,214.97 C 112.389,215.253 112.947,215.809 113.511,216.367 C 114.069,217.212 114.35,218.053 114.629,218.892 C 114.912,220.013 114.912,221.137 114.912,222.536 C 114.912,223.656 114.629,224.776 114.35,225.898 C 114.069,226.739 113.511,227.584 112.947,228.142 C 112.389,228.704 111.829,229.263 110.986,229.542 C 110.424,229.821 109.589,229.821 109.025,229.821 L 109.025,230.666 z M 100.614,221.974 C 100.614,223.379 100.897,224.501 101.18,225.619 C 101.461,226.739 102.019,227.584 102.86,228.421 C 103.422,228.98 104.257,229.542 105.381,230.102 C 106.224,230.385 107.344,230.666 108.744,230.666 L 109.025,230.666 L 109.025,229.821 L 108.744,229.821 C 107.904,229.821 107.065,229.821 106.224,229.263 C 105.664,228.98 104.823,228.421 104.54,227.859 C 103.98,227.301 103.422,226.462 103.139,225.338 C 102.86,224.501 102.86,223.379 102.86,221.974 C 102.86,220.573 103.139,219.453 103.422,218.609 C 103.699,217.489 104.257,216.929 104.823,216.09 C 105.381,215.528 105.941,215.253 106.782,214.97 C 107.344,214.689 108.184,214.406 109.025,214.406 L 109.025,213.567 C 107.904,213.567 106.782,213.848 105.941,214.129 C 104.823,214.406 103.98,214.97 103.139,215.528 C 102.577,216.367 102.019,217.212 101.461,218.334 C 100.897,219.453 100.897,220.573 100.614,221.974 M 133.972,229.821 L 134.251,229.821 L 134.251,228.98 C 134.251,228.421 133.972,228.142 133.972,227.584 L 133.972,225.898 C 133.689,225.338 133.689,224.776 133.689,224.218 C 133.689,223.656 133.689,223.096 133.408,222.536 L 133.408,220.854 L 133.408,219.173 C 133.127,218.334 133.127,217.489 133.127,216.65 L 133.127,214.406 L 133.127,213.007 L 132.29,213.007 L 131.726,213.007 C 131.726,214.406 132.007,216.09 132.007,217.489 C 132.29,219.173 132.567,220.854 132.567,222.536 L 132.85,225.619 C 132.29,225.059 131.166,224.218 130.329,223.379 C 129.201,222.257 128.366,221.137 127.242,220.294 C 126.123,219.173 124.999,218.053 123.883,216.929 C 122.755,215.809 121.637,214.689 120.794,213.567 L 120.517,213.848 L 120.517,216.09 C 120.794,217.212 120.794,218.609 121.075,220.013 L 121.075,221.974 C 121.075,222.536 121.358,223.379 121.358,223.939 L 121.358,226.179 L 121.358,228.142 L 121.358,229.542 L 121.358,230.666 C 121.637,230.385 121.92,230.385 122.199,230.385 L 123.038,230.385 L 123.038,229.542 C 122.755,229.263 122.755,228.98 122.755,228.421 C 122.755,227.859 122.755,227.301 122.478,226.739 L 122.478,225.338 C 122.478,224.776 122.199,224.218 122.199,223.656 L 122.199,222.536 C 121.92,221.137 121.92,220.013 121.92,219.453 L 121.92,217.489 C 123.883,219.453 125.842,221.693 128.085,223.656 C 130.046,225.898 132.007,227.859 133.972,229.821 M 146.019,227.584 C 146.864,227.301 147.424,227.301 147.982,227.301 C 149.104,227.02 150.226,226.462 151.065,225.898 C 152.187,225.338 152.749,224.501 153.309,223.656 C 153.867,222.817 154.146,221.974 154.429,220.854 C 154.429,219.453 154.429,218.334 154.146,216.929 C 153.867,215.809 153.309,214.689 152.749,213.567 C 152.187,212.724 151.344,211.887 150.507,211.325 C 149.662,210.765 148.544,210.482 147.424,210.203 L 146.019,210.203 L 146.019,211.044 C 146.303,211.325 146.583,211.325 146.864,211.325 C 147.699,211.325 148.261,211.604 149.104,212.168 C 149.662,212.724 150.226,213.284 150.79,214.129 C 151.344,215.253 151.625,216.09 151.904,217.489 C 152.187,218.892 152.466,220.013 152.466,220.854 C 152.187,221.974 151.904,222.817 151.625,223.656 C 151.344,224.218 150.79,225.059 150.226,225.338 C 149.385,225.898 148.825,226.179 147.982,226.462 L 146.019,226.462 L 146.019,227.584 z M 138.174,220.573 C 138.453,221.974 139.013,223.096 139.573,224.218 C 140.135,225.059 140.978,225.898 141.815,226.462 C 142.66,227.02 143.778,227.301 144.621,227.301 C 145.181,227.584 145.741,227.584 146.019,227.584 L 146.019,226.462 L 145.458,226.462 C 144.621,226.462 144.061,225.898 143.218,225.619 C 142.66,225.059 142.098,224.218 141.536,223.379 C 140.978,222.536 140.699,221.416 140.135,220.294 C 139.856,218.892 139.856,217.772 139.856,216.65 C 140.135,215.809 140.135,214.97 140.699,214.129 C 140.978,213.284 141.536,212.724 142.098,212.445 C 142.937,211.887 143.499,211.604 144.34,211.325 C 144.898,211.325 145.458,211.044 146.019,211.044 L 146.019,210.203 C 145.458,210.203 144.898,210.203 144.061,210.482 C 142.937,210.765 142.098,211.044 141.255,211.887 C 140.135,212.445 139.573,213.007 139.013,214.129 C 138.453,214.97 138.174,215.809 137.893,216.929 C 137.893,218.053 137.893,219.453 138.174,220.573 M 162.276,204.319 L 161.993,204.598 C 162.559,205.72 163.117,207.119 163.679,208.241 C 164.239,209.644 164.799,211.044 165.363,212.445 C 165.922,213.848 166.197,214.97 166.761,216.367 C 167.323,217.772 167.883,219.173 168.441,220.294 C 168.441,220.294 168.722,220.013 169.005,220.013 C 169.28,219.732 169.567,219.732 169.567,219.732 C 169.28,219.173 169.005,218.334 168.441,217.489 C 168.16,216.367 167.6,215.528 167.323,214.406 C 166.761,213.567 166.197,212.445 165.922,211.325 C 165.363,210.203 165.077,209.36 164.518,208.241 C 166.478,209.644 168.441,211.044 170.125,212.445 C 172.088,213.567 173.768,214.97 175.451,216.367 L 175.732,216.09 C 175.451,213.848 175.17,211.604 175.17,209.36 C 174.889,207.119 174.889,204.881 174.606,202.639 L 174.889,202.639 C 176.009,204.319 177.131,206.003 178.255,207.683 C 179.375,209.36 180.491,211.044 181.619,213.007 C 181.898,212.724 181.898,212.724 182.177,212.724 C 182.177,212.445 182.456,212.445 182.456,212.445 C 182.739,212.445 182.739,212.168 183.016,212.168 C 183.016,212.168 183.297,211.887 183.578,211.887 C 182.739,210.765 181.898,209.644 181.055,208.803 C 180.214,207.683 179.654,206.561 178.817,205.158 C 177.972,204.036 177.131,202.918 176.29,201.796 C 175.451,200.676 174.606,199.274 173.768,198.152 L 173.489,198.152 C 173.489,198.995 173.489,199.834 173.768,200.953 L 173.768,203.759 C 173.768,204.881 173.768,205.72 174.049,206.561 L 174.049,209.36 L 174.049,211.604 C 174.325,212.168 174.325,212.724 174.325,213.007 C 172.088,211.604 170.125,210.203 168.16,208.803 C 166.197,207.4 164.239,206.003 162.276,204.319 M 186.943,199.555 L 186.943,199.274 C 187.503,198.995 187.784,198.714 188.061,198.435 C 188.34,198.152 188.623,197.871 188.902,197.594 C 189.183,197.311 189.464,197.03 189.745,196.751 L 186.943,195.35 L 186.943,193.387 C 187.22,193.67 187.784,193.947 188.34,193.947 C 189.183,194.511 190.303,195.069 191.423,195.631 C 192.266,196.189 193.386,196.751 194.226,197.03 C 195.067,197.594 195.91,197.871 196.749,198.435 C 197.309,198.714 197.875,198.995 198.435,198.995 C 198.15,199.274 198.15,199.274 197.875,199.555 L 197.592,199.834 C 197.309,200.115 197.309,200.115 197.026,200.115 C 197.026,200.393 196.749,200.393 196.749,200.676 C 196.193,200.393 195.91,200.115 195.346,199.834 C 195.067,199.555 194.509,199.274 193.95,198.995 C 193.386,198.714 192.828,198.435 192.266,198.152 C 191.706,197.871 191.142,197.594 190.586,197.311 C 190.303,197.594 190.02,198.152 189.745,198.435 C 189.183,198.714 188.902,198.995 188.623,199.274 C 188.34,199.555 187.784,199.834 187.503,200.115 C 187.22,200.393 186.943,200.676 186.943,200.953 L 186.943,199.555 z M 186.943,204.598 L 186.943,201.515 C 187.22,202.639 187.784,203.759 188.061,204.598 C 188.623,205.72 188.902,206.561 189.183,207.4 C 189.183,207.4 188.902,207.683 188.623,207.683 C 188.34,207.964 188.34,208.241 188.061,208.241 C 187.784,207.119 187.22,206.003 186.943,204.598 M 186.098,200.115 C 186.381,199.834 186.656,199.555 186.943,199.555 L 186.943,200.953 C 186.656,200.953 186.656,200.953 186.656,201.234 C 186.656,201.234 186.656,201.515 186.943,201.515 L 186.943,204.598 C 186.098,202.918 185.538,201.515 184.978,199.834 C 184.135,197.03 183.016,194.226 181.898,191.143 L 182.177,190.864 C 183.016,191.426 184.135,191.986 184.978,192.55 C 185.538,192.827 186.098,193.11 186.943,193.387 L 186.943,195.35 L 183.859,193.947 L 186.098,200.115 z M 193.95,188.346 L 197.309,190.864 C 198.15,191.426 198.995,192.267 199.834,192.827 C 200.675,193.387 201.231,194.226 202.078,194.786 C 202.357,194.226 202.917,193.67 203.193,193.11 C 203.755,192.55 204.038,191.986 204.598,191.426 C 204.879,191.143 205.435,190.588 205.716,190.022 C 206.276,189.466 206.561,188.902 207.121,188.346 C 206.84,188.346 206.561,188.063 206.561,188.063 C 206.276,188.063 206.276,187.78 205.999,187.505 C 205.435,188.623 204.879,189.466 204.317,190.022 C 203.755,190.864 203.193,191.705 202.634,192.55 C 201.514,191.705 200.396,190.864 199.27,190.022 C 198.15,189.185 196.749,188.063 195.067,186.941 C 194.226,186.102 193.669,185.538 192.828,184.98 C 191.983,184.137 191.142,183.577 190.303,183.017 C 190.303,183.017 190.303,183.3 190.02,183.3 C 190.02,183.577 190.02,183.577 189.745,183.858 L 189.464,184.137 C 189.464,184.42 189.183,184.42 189.183,184.697 C 190.02,185.263 190.865,185.821 191.706,186.383 C 192.545,186.941 193.386,187.505 193.95,188.346 M 208.241,169.003 C 208.801,169.284 209.359,169.565 209.64,169.848 C 210.204,170.125 210.768,170.404 211.326,170.687 C 211.884,170.968 212.163,171.528 212.444,171.806 C 213.005,172.366 213.288,172.928 213.563,173.207 C 213.563,173.769 213.85,174.327 213.85,174.889 C 213.563,175.449 213.563,176.288 213.005,176.854 C 212.729,177.691 212.444,178.251 211.884,178.534 C 211.326,179.094 211.043,179.373 210.485,179.373 C 209.923,179.654 209.359,179.654 208.801,179.654 C 208.241,179.373 207.681,179.373 207.398,179.094 C 206.84,179.094 206.276,178.813 205.716,178.534 C 205.158,178.251 204.598,177.974 204.317,177.691 C 203.474,177.412 202.634,176.854 201.795,176.571 C 201.231,176.013 200.396,175.732 199.834,175.449 C 199.27,174.889 198.712,174.608 198.15,174.327 C 197.592,174.05 197.309,173.769 197.026,173.488 C 197.026,173.769 197.026,174.05 196.749,174.05 L 196.749,174.608 L 196.47,174.889 C 196.193,175.168 196.193,175.168 196.193,175.449 C 196.749,175.732 197.592,176.013 198.435,176.571 C 199.27,177.133 200.396,177.691 201.514,178.251 C 202.078,178.534 202.634,178.813 203.193,179.094 C 203.755,179.373 204.317,179.654 204.879,180.216 C 207.121,181.333 208.801,181.616 210.204,181.333 C 211.605,180.774 212.729,179.654 213.85,177.691 C 214.408,176.854 214.689,176.013 214.689,175.168 C 214.689,174.327 214.689,173.769 214.408,172.928 C 214.127,172.087 213.563,171.528 213.005,170.968 C 212.444,170.125 211.605,169.565 210.768,169.003 C 209.923,168.724 209.082,168.162 208.241,167.885 C 207.398,167.321 206.84,166.763 205.999,166.482 C 205.158,165.92 204.598,165.643 203.755,165.079 C 203.193,164.802 202.634,164.24 202.078,163.957 C 202.078,164.24 202.078,164.519 201.795,164.802 L 201.795,165.079 C 201.514,165.079 201.514,165.36 201.514,165.36 C 201.795,165.643 202.634,165.92 203.755,166.482 C 204.879,167.042 206.276,167.885 208.241,169.003 M 204.038,158.356 L 204.038,158.635 C 205.158,159.195 206.561,159.753 207.681,160.315 C 209.082,160.875 210.485,161.439 211.884,161.994 C 213.005,162.561 214.408,163.12 215.811,163.68 C 216.933,164.519 218.33,165.079 219.452,165.643 C 219.452,165.36 219.729,165.079 219.729,164.802 C 219.729,164.519 219.729,164.24 220.012,164.24 C 219.452,163.957 218.613,163.68 217.772,163.397 C 216.652,162.837 215.811,162.561 214.689,161.994 C 213.563,161.72 212.444,161.156 211.326,160.875 C 210.485,160.315 209.359,160.034 208.524,159.476 C 210.768,159.195 213.005,158.914 215.247,158.635 C 217.489,158.356 219.729,158.073 221.977,157.794 L 221.977,157.513 C 220.012,156.11 218.33,154.43 216.652,153.029 C 215.247,151.627 213.563,149.947 211.884,148.544 L 211.884,148.265 C 213.85,148.825 215.811,149.104 217.772,149.664 C 219.729,149.947 221.977,150.505 223.937,151.067 L 223.937,150.505 C 224.216,150.23 224.216,150.23 224.216,149.947 C 224.216,149.947 224.216,149.664 224.497,149.387 L 224.497,149.104 C 223.375,148.825 221.977,148.544 220.574,148.265 C 219.169,147.984 217.772,147.701 216.652,147.422 C 215.247,147.143 213.85,146.864 212.444,146.581 C 211.043,146.3 209.359,146.021 207.96,145.742 L 207.96,146.021 C 208.524,146.581 209.082,147.143 209.923,147.984 C 210.485,148.544 211.326,149.104 211.884,149.947 C 212.729,150.505 213.288,151.35 214.127,151.91 C 214.689,152.47 215.247,153.029 216.088,153.589 C 216.652,154.149 217.21,154.709 217.489,155.271 C 218.049,155.554 218.33,155.831 218.613,156.11 C 216.088,156.67 213.85,156.951 211.326,157.234 C 209.082,157.794 206.561,158.073 204.038,158.356 M 245.52,134.531 L 245.52,133.407 L 245.799,133.407 C 246.359,133.407 246.642,133.129 247.2,133.129 C 247.477,133.129 247.477,132.85 247.762,132.569 C 248.039,132.288 248.039,132.007 248.039,131.732 C 248.039,131.449 247.762,130.887 247.477,130.887 C 247.2,130.608 246.642,130.327 246.08,130.327 L 245.52,130.327 L 245.52,129.486 L 246.08,129.486 L 247.762,129.486 C 248.32,129.769 248.599,130.044 248.882,130.327 C 249.163,130.887 249.163,131.168 249.163,131.732 C 249.163,132.569 249.163,132.85 248.599,133.407 C 248.32,133.967 247.477,134.25 246.642,134.25 C 246.917,134.25 247.2,134.531 247.477,134.812 C 247.762,135.091 248.039,135.37 248.32,135.932 L 250,138.172 L 248.599,138.172 L 247.2,136.492 C 246.917,135.932 246.642,135.37 246.359,135.091 C 246.08,134.812 246.08,134.812 245.799,134.531 L 245.52,134.531 z M 231.501,138.172 L 231.501,129.486 L 233.468,129.486 L 235.431,135.653 C 235.708,136.213 235.987,136.775 235.987,137.05 C 235.987,136.775 236.268,136.213 236.549,135.653 L 238.508,129.486 L 240.192,129.486 L 240.192,138.172 L 239.072,138.172 L 239.072,130.887 L 236.549,138.172 L 235.431,138.172 L 232.623,130.608 L 232.623,138.172 L 231.501,138.172 z M 245.52,129.486 L 245.52,130.327 L 243.278,130.327 L 243.278,133.407 L 245.52,133.407 L 245.52,134.531 L 245.237,134.25 L 244.675,134.25 L 243.278,134.25 L 243.278,138.172 L 242.154,138.172 L 242.154,129.486 L 245.52,129.486 z" style="fill:#600209;fill-opacity:1;fill-rule:nonzero;stroke:none;stroke-width:1;stroke-linecap:butt;stroke-linejoin:miter;marker:none;marker-start:none;marker-mid:none;marker-end:none;stroke-miterlimit:4;stroke-dasharray:none;stroke-dashoffset:0;stroke-opacity:1;visibility:visible;display:inline;overflow:visible;enable-background:accumulate"/>
</svg>