<?xml version="1.0" standalone="no"?>
<!DOCTYPE svg PUBLIC "-//W3C//DTD SVG 20010904//EN"
 "http://www.w3.org/TR/2001/REC-SVG-20010904/DTD/svg10.dtd">
<svg version="1.0" xmlns="http://www.w3.org/2000/svg"
 width="1119.000000pt" height="118.000000pt" viewBox="0 0 1119.000000 118.000000"
 preserveAspectRatio="xMidYMid meet">

<g transform="translate(0.000000,118.000000) scale(0.100000,-0.100000)"
fill="#000000" stroke="none">
<path d="M428 1118 c-18 -19 -33 -28 -43 -24 -11 4 -14 2 -9 -6 5 -7 0 -9 -14
-6 -12 4 -20 2 -16 -3 3 -5 4 -9 2 -9 -2 0 -28 -4 -58 -9 -30 -5 -90 -6 -132
-2 l-77 6 2 -295 c1 -263 2 -272 4 -77 l3 217 375 0 375 0 3 -207 c2 -192 3
-186 5 75 1 193 -1 282 -9 282 -5 0 -8 -3 -6 -7 8 -12 -184 -6 -234 7 -42 11
-129 55 -129 66 0 3 6 2 13 -2 8 -5 8 -2 -2 9 -18 22 -21 22 -53 -15z m-120
-111 c18 3 32 1 32 -5 0 -10 -53 -20 -82 -14 -10 2 -18 10 -18 18 0 11 5 12
18 6 9 -5 32 -7 50 -5z m130 3 c1 -2 6 -3 11 -4 28 -4 19 -16 -12 -16 -23 0
-37 5 -38 13 0 10 -2 10 -6 0 -5 -15 -43 -18 -43 -4 0 13 74 22 88 11z m90 -4
c12 1 22 -3 22 -7 0 -12 -57 -12 -64 0 -7 11 6 24 13 13 3 -4 16 -7 29 -6z
m252 4 c0 -5 -4 -10 -10 -10 -5 0 -10 5 -10 10 0 6 5 10 10 10 6 0 10 -4 10
-10z m-620 -10 c0 -5 -9 -9 -20 -7 -31 5 -36 17 -7 17 15 0 27 -4 27 -10z m60
0 c0 -5 -7 -10 -15 -10 -8 0 -15 5 -15 10 0 6 7 10 15 10 8 0 15 -4 15 -10z
m460 3 c0 -5 -19 -9 -43 -10 -23 -1 -49 -3 -56 -5 -7 -2 -15 2 -18 8 -2 7 18
11 57 13 33 1 60 -2 60 -6z m70 -3 c0 -5 -13 -10 -30 -10 -16 0 -30 5 -30 10
0 6 14 10 30 10 17 0 30 -4 30 -10z m60 6 c0 -3 -4 -8 -10 -11 -5 -3 -10 -1
-10 4 0 6 5 11 10 11 6 0 10 -2 10 -4z m-650 -48 c0 -14 -22 -20 -30 -8 -6 10
-9 9 -13 -1 -4 -10 -6 -10 -6 2 -1 12 7 16 24 15 14 0 25 -4 25 -8z m27 -10
c-3 -8 -6 -5 -6 6 -1 11 2 17 5 13 3 -3 4 -12 1 -19z m59 0 c0 -11 -4 -14 -9
-9 -5 5 -16 7 -23 4 -13 -5 -20 8 -9 18 12 12 41 3 41 -13z m114 2 c0 -13 -17
-16 -61 -12 -50 5 -51 20 -1 24 42 4 62 0 62 -12z m63 6 c-3 -4 4 -5 16 -1 13
4 21 2 21 -5 0 -6 -4 -9 -9 -5 -5 3 -12 1 -15 -3 -9 -15 -51 -6 -54 10 -2 11
4 16 22 14 13 0 22 -5 19 -10z m195 3 c12 -1 25 -5 27 -9 9 -15 -118 -16 -132
-2 -10 10 -13 10 -13 1 0 -7 -3 -10 -6 -6 -14 14 8 23 53 20 26 -2 58 -4 71
-4z m113 1 c16 9 48 -4 37 -15 -7 -8 -87 -9 -94 -2 -13 12 8 27 24 18 10 -5
24 -6 33 -1z m79 -10 c0 -5 -4 -10 -10 -10 -5 0 -10 5 -10 10 0 6 5 10 10 10
6 0 10 -4 10 -10z"/>
<path d="M2660 605 c0 -243 4 -375 10 -375 6 0 10 132 10 375 0 243 -4 375
-10 375 -6 0 -10 -132 -10 -375z"/>
<path d="M2779 838 c43 -128 50 -143 72 -146 23 -3 27 5 68 130 24 73 46 139
49 146 3 10 -2 13 -19 10 -20 -3 -28 -17 -54 -98 -17 -52 -33 -102 -36 -110
-3 -8 -23 36 -43 98 -34 100 -40 112 -61 112 l-24 0 48 -142z"/>
<path d="M3763 966 c-37 -17 -51 -54 -37 -95 8 -21 23 -31 84 -51 59 -20 76
-30 78 -46 8 -57 -71 -72 -120 -23 -29 28 -58 33 -58 9 0 -7 13 -25 29 -41 26
-25 37 -29 88 -29 70 0 100 17 109 64 11 59 -12 80 -113 106 -64 16 -76 52
-26 79 26 13 70 0 79 -24 7 -16 39 -20 49 -6 3 5 -5 22 -18 36 -28 33 -96 43
-144 21z"/>
<path d="M5000 935 l0 -45 -44 6 c-41 6 -48 4 -75 -24 -27 -26 -31 -38 -31
-82 0 -41 5 -56 24 -75 22 -22 33 -24 95 -23 l71 1 0 144 c0 136 -1 143 -20
143 -17 0 -20 -7 -20 -45z m-4 -112 c10 -40 -8 -87 -39 -97 -37 -14 -59 10
-61 64 -1 54 31 86 70 68 13 -6 27 -22 30 -35z"/>
<path d="M5653 966 c-37 -17 -51 -54 -37 -95 8 -21 23 -31 84 -51 59 -20 76
-30 78 -46 8 -57 -71 -72 -120 -23 -29 28 -58 33 -58 9 0 -7 13 -25 29 -41 26
-25 37 -29 88 -29 70 0 100 17 109 64 11 59 -12 80 -113 106 -64 16 -76 52
-26 79 26 13 70 0 79 -24 7 -16 39 -20 49 -6 3 5 -5 22 -18 36 -28 33 -96 43
-144 21z"/>
<path d="M6110 965 c0 -9 9 -15 25 -15 16 0 25 6 25 15 0 9 -9 15 -25 15 -16
0 -25 -6 -25 -15z"/>
<path d="M6340 876 c0 -111 11 -161 40 -176 33 -17 115 -12 141 9 23 18 24 27
27 145 4 122 3 126 -17 126 -20 0 -21 -5 -21 -108 0 -122 -12 -152 -59 -152
-51 0 -61 24 -61 148 l0 112 -25 0 -25 0 0 -104z"/>
<path d="M6860 965 c0 -9 9 -15 25 -15 16 0 25 6 25 15 0 9 -9 15 -25 15 -16
0 -25 -6 -25 -15z"/>
<path d="M7770 965 c0 -9 9 -15 25 -15 16 0 25 6 25 15 0 9 -9 15 -25 15 -16
0 -25 -6 -25 -15z"/>
<path d="M8600 960 c-11 -11 -20 -29 -20 -40 0 -13 -7 -20 -20 -20 -11 0 -20
-7 -20 -15 0 -8 9 -15 20 -15 19 0 20 -7 20 -90 0 -83 2 -90 20 -90 17 0 19 8
22 88 3 82 4 87 26 90 31 5 28 32 -4 32 -21 0 -25 4 -22 23 2 16 11 23 31 25
15 2 27 9 27 18 0 21 -57 17 -80 -6z"/>
<path d="M8810 966 c0 -10 13 -16 38 -18 l37 -3 3 -127 c2 -119 4 -128 22
-128 18 0 20 9 22 128 l3 127 43 3 c28 2 42 8 42 18 0 11 -20 14 -105 14 -85
0 -105 -3 -105 -14z"/>
<path d="M9470 835 l0 -145 25 0 c24 0 25 2 25 66 0 36 4 73 10 83 14 28 40
34 61 15 15 -14 19 -32 19 -91 0 -66 2 -73 20 -73 18 0 20 7 20 85 0 72 -3 88
-20 105 -22 22 -60 26 -91 10 -18 -10 -19 -7 -19 40 0 47 -2 50 -25 50 l-25 0
0 -145z"/>
<path d="M10190 835 l0 -145 25 0 25 0 0 145 0 145 -25 0 -25 0 0 -145z"/>
<path d="M7890 930 c0 -23 -4 -30 -20 -30 -11 0 -20 -7 -20 -15 0 -8 9 -15 20
-15 18 0 20 -7 20 -78 0 -89 8 -102 62 -102 45 0 54 27 11 32 -27 3 -28 5 -31
76 -3 71 -3 72 23 72 16 0 25 6 25 15 0 9 -9 15 -25 15 -21 0 -25 5 -25 30 0
23 -4 30 -20 30 -16 0 -20 -7 -20 -30z"/>
<path d="M10669 911 c-7 -11 -19 -16 -30 -14 -26 7 -64 -4 -83 -23 -18 -17
-22 -79 -5 -89 7 -5 4 -14 -7 -27 -15 -15 -16 -23 -7 -38 10 -14 9 -21 -2 -30
-22 -18 -18 -47 7 -64 28 -20 146 -22 172 -3 20 15 25 62 8 79 -6 6 -40 13
-77 15 -53 5 -65 9 -63 22 2 11 16 17 45 19 32 2 48 10 63 30 20 25 21 42 4
85 -3 10 2 18 15 22 12 3 21 13 21 21 0 21 -48 17 -61 -5z m-28 -51 c29 -16
25 -58 -6 -66 -46 -11 -77 42 -37 65 21 13 20 13 43 1z m33 -176 c9 -3 16 -12
16 -19 0 -25 -73 -35 -111 -14 -46 24 40 54 95 33z"/>
<path d="M3034 890 c-51 -20 -70 -100 -39 -159 17 -34 33 -41 89 -41 32 0 48
6 65 24 37 39 9 64 -29 26 -33 -33 -85 -19 -92 25 -3 18 3 20 75 23 42 2 77 7
77 13 0 5 -7 25 -15 44 -20 49 -76 68 -131 45z m74 -36 c34 -24 26 -34 -28
-34 -27 0 -50 4 -50 9 0 10 39 41 50 41 3 0 16 -7 28 -16z"/>
<path d="M3264 890 c-51 -20 -70 -100 -39 -159 17 -34 33 -41 89 -41 32 0 48
6 65 24 37 39 9 64 -29 26 -33 -33 -85 -19 -92 25 -3 18 3 20 75 23 42 2 77 7
77 13 0 5 -7 25 -15 44 -20 49 -76 68 -131 45z m74 -36 c34 -24 26 -34 -28
-34 -27 0 -50 4 -50 9 0 10 39 41 50 41 3 0 16 -7 28 -16z"/>
<path d="M3460 795 c0 -105 0 -105 25 -105 23 0 24 3 27 72 3 70 4 74 35 93
52 33 35 63 -20 34 -16 -9 -22 -9 -25 0 -2 6 -12 11 -23 11 -18 0 -19 -8 -19
-105z"/>
<path d="M3990 831 c0 -78 14 -128 38 -135 10 -3 45 -5 80 -4 l62 1 0 103 c0
97 -1 104 -20 104 -18 0 -20 -7 -20 -70 0 -57 -4 -74 -20 -90 -46 -46 -70 -18
-70 82 0 77 0 78 -25 78 -24 0 -25 -2 -25 -69z"/>
<path d="M4230 795 c0 -105 0 -105 25 -105 23 0 24 3 27 72 3 70 4 74 35 93
52 33 35 63 -20 34 -16 -9 -22 -9 -25 0 -2 6 -12 11 -23 11 -18 0 -19 -8 -19
-105z"/>
<path d="M4424 890 c-51 -20 -70 -100 -39 -159 17 -34 33 -41 89 -41 32 0 48
6 65 24 37 39 9 64 -29 26 -33 -33 -85 -19 -92 25 -3 18 3 20 75 23 42 2 77 7
77 13 0 5 -7 25 -15 44 -20 49 -76 68 -131 45z m74 -36 c34 -24 26 -34 -28
-34 -27 0 -50 4 -50 9 0 10 39 41 50 41 3 0 16 -7 28 -16z"/>
<path d="M4620 795 l0 -105 25 0 c24 0 25 2 25 70 0 57 4 74 20 90 24 24 34
25 54 4 12 -11 16 -36 16 -90 0 -67 2 -74 20 -74 18 0 20 7 20 85 0 72 -3 88
-20 105 -22 22 -60 26 -93 9 -16 -9 -22 -9 -25 0 -2 6 -12 11 -23 11 -18 0
-19 -8 -19 -105z"/>
<path d="M5110 795 c0 -105 0 -105 25 -105 23 0 24 3 27 72 3 70 4 74 35 93
52 33 35 63 -20 34 -16 -9 -22 -9 -25 0 -2 6 -12 11 -23 11 -18 0 -19 -8 -19
-105z"/>
<path d="M5300 893 c-20 -7 -50 -34 -50 -45 0 -14 39 -9 66 8 20 14 30 15 49
6 42 -19 30 -39 -26 -45 -63 -8 -89 -29 -89 -73 0 -44 20 -54 112 -52 l74 2
-4 85 c-3 71 -7 89 -24 104 -20 16 -76 22 -108 10z m90 -120 c0 -42 -64 -70
-90 -38 -14 17 -6 33 24 45 36 15 66 12 66 -7z"/>
<path d="M5920 893 c-20 -7 -50 -34 -50 -45 0 -14 39 -9 66 8 20 14 30 15 49
6 42 -19 30 -39 -26 -45 -63 -8 -89 -29 -89 -73 0 -44 20 -54 112 -52 l74 2
-4 85 c-3 71 -7 89 -24 104 -20 16 -76 22 -108 10z m90 -120 c0 -42 -64 -70
-90 -38 -14 17 -6 33 24 45 36 15 66 12 66 -7z"/>
<path d="M6110 795 l0 -105 25 0 25 0 0 105 0 105 -25 0 -25 0 0 -105z"/>
<path d="M6610 795 l0 -105 25 0 c24 0 25 2 25 70 0 57 4 74 20 90 24 24 34
25 54 4 12 -11 16 -36 16 -90 0 -67 2 -74 20 -74 18 0 20 7 20 85 0 72 -3 88
-20 105 -22 22 -60 26 -93 9 -16 -9 -22 -9 -25 0 -2 6 -12 11 -23 11 -18 0
-19 -8 -19 -105z"/>
<path d="M6860 795 l0 -105 25 0 25 0 0 105 0 105 -25 0 -25 0 0 -105z"/>
<path d="M6950 892 c0 -9 33 -103 62 -174 7 -19 18 -28 33 -28 19 0 27 12 53
88 17 48 34 95 37 105 5 13 2 17 -13 17 -20 0 -38 -35 -67 -130 -7 -21 -11
-15 -35 50 -21 58 -32 76 -49 78 -11 2 -21 -1 -21 -6z"/>
<path d="M7214 890 c-51 -20 -70 -100 -39 -159 17 -34 33 -41 89 -41 32 0 48
6 65 24 37 39 9 64 -29 26 -33 -33 -85 -19 -92 25 -3 18 3 20 75 23 42 2 77 7
77 13 0 5 -7 25 -15 44 -20 49 -76 68 -131 45z m74 -36 c34 -24 26 -34 -28
-34 -27 0 -50 4 -50 9 0 10 39 41 50 41 3 0 16 -7 28 -16z"/>
<path d="M7400 795 c0 -105 0 -105 25 -105 23 0 24 3 27 72 3 70 4 74 35 93
52 33 35 63 -20 34 -16 -9 -22 -9 -25 0 -2 6 -12 11 -23 11 -18 0 -19 -8 -19
-105z"/>
<path d="M7578 890 c-59 -36 -38 -91 42 -110 53 -13 74 -35 49 -51 -24 -15
-58 -10 -80 12 -20 20 -49 20 -49 -1 0 -5 9 -19 20 -30 15 -15 33 -20 75 -20
42 0 60 5 75 20 41 41 18 79 -64 102 -55 15 -67 31 -36 48 17 9 26 8 46 -5 14
-9 34 -15 46 -13 20 3 20 3 1 26 -21 27 -96 40 -125 22z"/>
<path d="M7770 795 l0 -105 25 0 25 0 0 105 0 105 -25 0 -25 0 0 -105z"/>
<path d="M8000 890 c0 -5 16 -51 35 -102 32 -85 33 -94 19 -115 -8 -13 -23
-23 -34 -23 -11 0 -20 -7 -20 -15 0 -10 11 -15 35 -15 40 0 42 2 95 143 21 56
41 110 45 120 5 13 2 17 -13 17 -15 0 -25 -14 -42 -60 -12 -33 -26 -62 -30
-65 -3 -2 -17 25 -29 60 -18 49 -28 65 -42 65 -10 0 -19 -4 -19 -10z"/>
<path d="M8374 891 c-33 -14 -54 -51 -54 -94 0 -43 22 -92 45 -101 29 -11 90
-6 111 9 47 32 55 117 16 165 -19 24 -84 35 -118 21z m76 -41 c46 -46 13 -140
-45 -126 -49 12 -57 99 -12 131 28 19 33 19 57 -5z"/>
<path d="M9064 890 c-51 -20 -70 -100 -39 -159 17 -34 33 -41 89 -41 32 0 48
6 65 24 37 39 9 64 -29 26 -33 -33 -85 -19 -92 25 -3 18 3 20 75 23 42 2 77 7
77 13 0 5 -7 25 -15 44 -20 49 -76 68 -131 45z m74 -36 c34 -24 26 -34 -28
-34 -27 0 -50 4 -50 9 0 10 39 41 50 41 3 0 16 -7 28 -16z"/>
<path d="M9278 870 c-28 -29 -30 -35 -26 -87 6 -70 30 -93 93 -93 35 0 48 5
64 26 25 32 26 43 6 50 -9 4 -23 -4 -36 -20 -36 -46 -75 -29 -86 36 -4 27 0
41 19 63 21 23 27 26 45 17 11 -6 23 -18 27 -27 3 -8 15 -15 26 -15 24 0 24 3
5 39 -25 50 -93 55 -137 11z"/>
<path d="M9710 795 l0 -105 25 0 c24 0 25 2 25 70 0 57 4 74 20 90 24 24 34
25 54 4 12 -11 16 -36 16 -90 0 -67 2 -74 20 -74 18 0 20 7 20 85 0 72 -3 88
-20 105 -22 22 -60 26 -93 9 -16 -9 -22 -9 -25 0 -2 6 -12 11 -23 11 -18 0
-19 -8 -19 -105z"/>
<path d="M10004 891 c-33 -14 -54 -51 -54 -94 0 -43 22 -92 45 -101 29 -11 90
-6 111 9 47 32 55 117 16 165 -19 24 -84 35 -118 21z m76 -41 c46 -46 13 -140
-45 -126 -49 12 -57 99 -12 131 28 19 33 19 57 -5z"/>
<path d="M10344 891 c-33 -14 -54 -51 -54 -94 0 -43 22 -92 45 -101 29 -11 90
-6 111 9 47 32 55 117 16 165 -19 24 -84 35 -118 21z m76 -41 c46 -46 13 -140
-45 -126 -49 12 -57 99 -12 131 28 19 33 19 57 -5z"/>
<path d="M10740 890 c0 -5 16 -51 35 -102 32 -85 33 -94 19 -115 -8 -13 -23
-23 -34 -23 -11 0 -20 -7 -20 -15 0 -10 11 -15 35 -15 40 0 42 2 95 143 21 56
41 110 45 120 5 13 2 17 -13 17 -15 0 -25 -14 -42 -60 -12 -33 -26 -62 -30
-65 -3 -2 -17 25 -29 60 -18 49 -28 65 -42 65 -10 0 -19 -4 -19 -10z"/>
<path d="M626 851 c-6 -38 -8 -40 -48 -43 -23 -2 -43 -7 -45 -13 -1 -5 13 -21
32 -34 41 -28 46 -46 10 -37 -14 4 -25 2 -25 -4 0 -5 11 -10 25 -10 17 0 25
-6 25 -17 0 -13 -3 -14 -12 -5 -19 19 -28 14 -19 -12 12 -31 -2 -91 -30 -130
-12 -17 -16 -25 -8 -18 20 18 27 15 34 -18 5 -21 2 -39 -8 -54 -11 -16 -14
-36 -10 -65 l6 -42 -84 5 c-46 2 -122 -1 -169 -9 l-85 -13 -37 36 c-34 33 -76
53 -62 31 3 -5 9 -7 13 -5 4 3 23 -10 41 -29 l32 -33 -72 -22 -71 -21 15 -24
c21 -32 21 -32 -16 -51 -18 -9 -35 -18 -37 -20 -2 -2 11 -22 30 -46 18 -24 34
-44 34 -46 1 -1 41 10 88 25 71 23 86 31 81 45 -7 24 44 32 206 30 173 -2 226
-11 223 -39 -2 -16 7 -23 40 -33 23 -6 60 -21 82 -31 l40 -19 18 22 c9 13 27
35 38 50 l20 27 -33 17 c-18 9 -34 18 -36 19 -2 2 4 15 13 29 19 29 18 30 -76
57 -53 15 -71 27 -62 43 4 6 0 5 -9 -2 -12 -9 -31 -11 -65 -7 -73 10 -78 13
-79 40 -2 21 2 25 16 20 11 -4 22 0 27 10 8 13 15 12 51 -15 49 -35 74 -31
115 21 29 37 27 49 -8 49 -13 0 -27 5 -31 11 -4 7 6 10 32 7 l39 -3 1 58 c1
48 -2 57 -17 57 -10 0 -23 8 -28 18 -10 16 -10 16 -11 0 0 -27 -43 -16 -51 13
-7 22 -7 22 -8 -6 -2 -43 -17 -12 -24 48 -5 49 -5 49 23 45 21 -3 27 -1 23 10
-4 8 -15 12 -29 9 -34 -6 -30 7 11 34 43 30 40 43 -11 49 -35 4 -39 8 -42 35
-5 47 -19 50 -26 6z m-12 -78 c-4 -16 -8 -29 -9 -30 -1 -2 -14 11 -30 27 l-29
30 37 0 c36 0 37 -1 31 -27z m93 2 c-36 -32 -47 -31 -47 0 0 22 4 25 38 25
l37 -1 -28 -24z m-57 -21 c0 -15 -6 -24 -15 -24 -16 0 -19 17 -9 44 9 22 24
10 24 -20z m-23 -81 c-3 -10 -5 -4 -5 12 0 17 2 24 5 18 2 -7 2 -21 0 -30z
m32 -3 c-2 -21 0 -42 4 -46 11 -11 8 -36 -3 -29 -6 4 -8 11 -4 16 3 6 -2 9
-12 7 -12 -2 -19 3 -19 12 0 8 6 14 14 12 10 -2 12 5 7 33 -5 23 -3 35 4 35 7
0 10 -15 9 -40z m-59 -19 c0 -11 -3 -22 -7 -24 -5 -3 -8 6 -8 19 0 13 3 24 8
24 4 0 7 -9 7 -19z m35 -61 c8 0 17 -4 20 -10 3 -6 -4 -10 -17 -10 -18 0 -24
6 -25 23 0 12 1 16 4 10 3 -7 11 -13 18 -13z m113 -17 c-10 -2 -28 -2 -40 0
-13 2 -5 4 17 4 22 1 32 -1 23 -4z m-98 -29 c0 -2 -9 -4 -20 -4 -11 0 -20 4
-20 9 0 5 9 7 20 4 11 -3 20 -7 20 -9z m105 -4 c3 -5 1 -10 -4 -10 -6 0 -11 5
-11 10 0 6 2 10 4 10 3 0 8 -4 11 -10z m40 1 c3 -5 1 -12 -5 -16 -5 -3 -10 1
-10 9 0 18 6 21 15 7z m-191 -42 c-3 -5 -10 -7 -15 -3 -5 3 -7 10 -3 15 3 5
10 7 15 3 5 -3 7 -10 3 -15z m31 -19 c3 -5 -3 -10 -15 -10 -12 0 -18 5 -15 10
3 6 10 10 15 10 5 0 12 -4 15 -10z m-15 -24 c0 -2 -7 -9 -15 -16 -13 -11 -14
-10 -9 4 5 14 24 23 24 12z m46 -11 c-22 -17 -36 -19 -36 -7 0 14 12 22 34 22
21 -1 21 -1 2 -15z m64 6 c0 -6 -4 -13 -10 -16 -5 -3 -10 1 -10 9 0 9 5 16 10
16 6 0 10 -4 10 -9z m-60 -31 c0 -5 -4 -10 -10 -10 -5 0 -10 5 -10 10 0 6 5
10 10 10 6 0 10 -4 10 -10z m40 -21 c0 -11 -4 -18 -10 -14 -5 3 -7 12 -3 20 7
21 13 19 13 -6z m-293 -94 c0 -8 -4 -12 -9 -9 -4 3 -8 9 -8 15 0 5 4 9 8 9 5
0 9 -7 9 -15z m58 -2 c-1 -10 -8 -17 -14 -15 -6 1 -11 -8 -12 -20 0 -22 -1
-22 -9 -3 -6 15 -2 24 14 37 26 22 25 22 21 1z m-173 -21 c-7 -2 -12 -9 -12
-16 0 -7 -7 -13 -15 -13 -9 0 -15 10 -15 23 0 16 5 22 14 18 8 -3 18 0 22 7 6
10 9 10 12 -1 3 -8 0 -16 -6 -18z m210 -15 c-3 -12 -7 -16 -10 -9 -2 7 -8 10
-13 6 -5 -3 -9 0 -9 5 0 6 5 11 11 11 6 0 8 7 5 16 -5 14 -4 15 8 5 8 -7 12
-21 8 -34z m-275 11 c-3 -8 -6 -5 -6 6 -1 11 2 17 5 13 3 -3 4 -12 1 -19z
m128 12 c-3 -5 -11 -10 -16 -10 -6 0 -7 5 -4 10 3 6 11 10 16 10 6 0 7 -4 4
-10z m45 -24 c0 -3 -7 -6 -15 -6 -9 0 -15 9 -15 21 0 18 2 19 15 5 8 -8 15
-17 15 -20z m244 5 c-7 -8 -35 9 -29 19 4 6 11 5 20 -3 7 -6 11 -14 9 -16z
m-44 4 c0 -8 5 -15 10 -15 6 0 10 -4 10 -10 0 -5 -7 -7 -15 -4 -8 4 -15 12
-15 20 0 20 -17 17 -29 -3 -7 -14 -13 -15 -22 -6 -17 17 -2 33 32 33 19 0 29
-5 29 -15z m-240 -15 c3 0 -3 -5 -13 -11 -18 -10 -37 -5 -37 12 0 7 12 7 50
-1z m328 3 c-10 -2 -18 -9 -18 -14 0 -5 -7 -9 -16 -9 -14 0 -14 3 -4 15 7 8
22 14 34 14 17 -1 17 -2 4 -6z"/>
<path d="M390 816 c0 -2 14 -6 30 -8 17 -3 30 -1 30 4 0 4 -13 8 -30 8 -16 0
-30 -2 -30 -4z"/>
<path d="M1354 776 c-64 -64 -39 -121 86 -195 93 -55 107 -105 38 -138 -50
-25 -138 25 -138 78 0 11 -4 19 -10 19 -6 0 -10 -28 -10 -65 0 -58 12 -85 22
-54 3 9 17 9 56 -1 69 -16 115 -7 146 31 28 32 34 85 16 119 -6 11 -43 38 -83
61 -95 56 -107 67 -107 99 0 60 78 75 130 25 16 -16 30 -37 30 -46 0 -10 5
-21 10 -24 6 -4 10 18 10 59 0 59 -11 87 -22 54 -3 -9 -12 -9 -38 0 -61 22
-99 15 -136 -22z"/>
<path d="M1644 776 c-64 -64 -37 -125 82 -192 86 -48 107 -90 64 -129 -46 -42
-132 -11 -156 56 -12 33 -12 32 -13 -36 0 -43 3 -65 8 -56 7 11 17 11 60 1 68
-16 114 -7 145 31 29 34 35 93 13 123 -7 9 -51 41 -97 69 -74 46 -85 57 -88
83 -4 38 18 58 64 58 38 0 94 -45 94 -75 0 -10 5 -21 10 -24 6 -4 10 19 10 61
0 57 -2 65 -15 54 -11 -9 -22 -9 -46 -1 -60 21 -98 14 -135 -23z"/>
<path d="M917 790 c30 -12 41 -32 118 -213 37 -86 71 -159 75 -162 4 -3 38 71
76 163 41 101 79 178 95 195 l27 27 -60 0 c-60 0 -60 0 -37 -18 l22 -19 -47
-119 c-26 -65 -51 -122 -55 -127 -8 -8 -111 222 -111 248 0 9 10 20 23 25 16
6 -2 9 -63 9 -59 0 -78 -3 -63 -9z"/>
<path d="M1890 791 c25 -7 25 -8 31 -152 7 -157 15 -183 66 -210 38 -21 143
-18 177 4 45 30 56 72 56 210 0 123 6 147 37 147 9 0 13 -15 14 -42 0 -35 2
-39 9 -21 13 31 54 55 87 51 l28 -3 0 -165 0 -164 -25 -13 c-22 -11 -15 -13
60 -12 68 0 80 3 58 11 -35 12 -40 37 -36 208 l3 135 32 3 c41 4 71 -12 84
-45 14 -37 22 -21 14 26 l-7 41 -221 -1 c-122 -1 -211 -4 -197 -8 25 -7 25 -7
28 -148 2 -136 2 -142 -21 -169 -19 -22 -34 -28 -79 -32 -51 -4 -56 -2 -81 28
-27 32 -28 33 -25 168 3 134 3 137 28 149 22 11 15 13 -60 12 -50 -1 -75 -4
-60 -8z"/>
<path d="M280 765 c-7 -9 -11 -17 -9 -20 3 -2 10 5 17 15 14 24 10 26 -8 5z"/>
<path d="M468 763 c7 -3 16 -2 19 1 4 3 -2 6 -13 5 -11 0 -14 -3 -6 -6z"/>
<path d="M295 710 c-16 -16 -27 -31 -24 -33 2 -1 18 12 36 30 17 18 28 33 24
33 -4 0 -20 -13 -36 -30z"/>
<path d="M228 683 c6 -2 18 -2 25 0 6 3 1 5 -13 5 -14 0 -19 -2 -12 -5z"/>
<path d="M150 610 c-40 -4 -45 -8 -48 -32 -3 -21 1 -28 14 -28 13 0 15 -6 10
-31 -7 -36 13 -37 29 -1 5 12 13 22 17 22 12 0 9 -25 -4 -38 -18 -18 -3 -25
22 -10 17 10 20 20 17 44 -4 26 -1 33 19 43 27 12 34 37 8 27 -9 -4 -22 -3
-28 2 -6 4 -31 5 -56 2z"/>
<path d="M336 602 c-3 -6 -14 -8 -25 -5 -15 4 -19 -3 -25 -38 -6 -35 -4 -46
10 -56 17 -12 17 -13 1 -13 -21 0 -22 -14 -1 -31 18 -14 107 -13 112 2 2 5 15
9 28 9 35 0 30 26 -6 34 -18 3 -34 15 -40 28 -10 21 -10 21 -5 -4 5 -26 3 -28
-29 -28 -40 0 -43 3 -48 50 -3 31 -1 35 20 32 12 -2 22 2 22 8 0 8 9 10 28 5
35 -8 42 -16 53 -57 9 -33 9 -33 4 6 -2 22 -8 43 -12 47 -14 13 -80 21 -87 11z"/>
<path d="M216 494 c-4 -9 -4 -19 -1 -22 7 -7 55 19 55 30 0 15 -48 8 -54 -8z"/>
<path d="M2770 375 l0 -115 68 0 c54 0 72 4 85 18 23 25 21 67 -4 90 -17 17
-18 20 -5 25 10 4 16 18 16 36 0 42 -31 61 -102 61 l-58 0 0 -115z m114 79
c19 -18 19 -20 6 -45 -8 -14 -21 -19 -50 -19 -39 0 -40 1 -40 33 0 19 3 37 7
40 12 13 62 7 77 -9z m-3 -94 c21 -12 25 -50 7 -68 -7 -7 -29 -12 -50 -12 -37
0 -38 1 -38 38 0 21 3 42 7 45 10 10 52 8 74 -3z"/>
<path d="M3300 375 c0 -96 3 -115 15 -115 12 0 15 19 15 115 0 96 -3 115 -15
115 -12 0 -15 -19 -15 -115z"/>
<path d="M3780 462 c-26 -26 -30 -38 -30 -82 0 -55 19 -104 45 -114 9 -3 34
-6 55 -6 30 0 43 6 59 26 27 35 36 88 22 134 -14 47 -30 60 -80 67 -35 5 -44
2 -71 -25z m95 -17 c64 -63 0 -209 -65 -150 -49 45 -25 172 33 175 4 0 19 -11
32 -25z"/>
<path d="M4090 455 c0 -33 -1 -34 -29 -29 -40 8 -68 -10 -80 -51 -11 -39 -5
-72 17 -97 11 -14 29 -17 73 -16 l59 2 0 113 c0 106 -1 113 -20 113 -16 0 -20
-7 -20 -35z m-18 -62 c21 -19 25 -82 6 -101 -45 -45 -92 39 -52 96 18 26 22
27 46 5z"/>
<path d="M4180 480 c0 -5 7 -10 15 -10 8 0 15 5 15 10 0 6 -7 10 -15 10 -8 0
-15 -4 -15 -10z"/>
<path d="M4430 375 c0 -96 3 -115 15 -115 12 0 15 13 15 55 0 42 5 60 21 76
32 32 49 10 49 -67 0 -57 2 -64 20 -64 18 0 20 7 20 54 0 30 -4 66 -10 80 -11
30 -49 42 -79 26 -20 -10 -21 -8 -21 30 0 29 -4 40 -15 40 -12 0 -15 -19 -15
-115z"/>
<path d="M831 464 c0 -11 3 -14 6 -6 3 7 2 16 -1 19 -3 4 -6 -2 -5 -13z"/>
<path d="M246 451 c-3 -4 7 -19 22 -32 l27 -24 -23 26 c-12 14 -19 29 -15 32
3 4 4 7 0 7 -3 0 -8 -4 -11 -9z"/>
<path d="M309 413 c-12 -16 -12 -17 2 -5 9 7 25 10 35 6 16 -5 16 -4 4 5 -20
15 -25 14 -41 -6z"/>
<path d="M2980 356 c0 -49 4 -77 13 -85 7 -6 39 -10 70 -9 l57 2 0 83 c0 76
-2 83 -20 83 -18 0 -20 -7 -20 -64 0 -71 -17 -99 -48 -79 -13 7 -18 28 -20 77
-2 50 -6 66 -17 66 -12 0 -15 -16 -15 -74z"/>
<path d="M3180 343 c0 -67 3 -83 15 -83 12 0 15 13 15 60 0 57 2 62 30 78 41
23 38 30 -15 30 l-45 -1 0 -84z"/>
<path d="M3399 411 c-32 -26 -16 -39 21 -18 23 14 34 15 50 7 31 -16 25 -40
-9 -40 -68 0 -104 -36 -81 -80 9 -17 20 -20 75 -19 l65 2 0 68 c0 48 -5 72
-16 83 -21 22 -77 20 -105 -3z m91 -85 c0 -21 -28 -46 -51 -46 -28 0 -36 30
-14 46 25 18 65 18 65 0z"/>
<path d="M4180 345 c0 -69 3 -85 15 -85 12 0 15 16 15 85 0 69 -3 85 -15 85
-12 0 -15 -16 -15 -85z"/>
<path d="M4272 414 c-24 -17 -29 -46 -9 -62 6 -5 31 -15 55 -22 32 -8 42 -16
40 -28 -4 -22 -51 -27 -71 -8 -19 19 -37 21 -37 3 0 -25 24 -37 72 -37 39 0
50 4 63 24 24 36 6 63 -47 73 -27 5 -44 15 -46 25 -4 23 28 31 49 12 9 -9 26
-14 36 -12 16 3 16 5 -5 26 -26 26 -68 29 -100 6z"/>
<path d="M4639 411 c-32 -26 -16 -39 21 -18 23 14 34 15 50 7 31 -16 25 -40
-9 -40 -68 0 -104 -36 -81 -80 9 -17 20 -20 75 -19 l65 2 0 68 c0 48 -5 72
-16 83 -21 22 -77 20 -105 -3z m91 -85 c0 -21 -28 -46 -51 -46 -28 0 -36 30
-14 46 25 18 65 18 65 0z"/>
<path d="M455 403 c-31 -7 -40 -21 -11 -16 15 3 29 9 32 14 3 5 4 8 2 8 -2 -1
-12 -3 -23 -6z"/>
<path d="M769 363 c-13 -16 -12 -17 4 -4 16 13 21 21 13 21 -2 0 -10 -8 -17
-17z"/>
<path d="M3580 255 c0 -27 9 -32 28 -13 18 18 14 38 -8 38 -15 0 -20 -7 -20
-25z"/>
</g>
</svg>
