<?xml version="1.0" encoding="UTF-8"?>
<!-- Created by Paul A. Clarke for Ventana Micro Systems, 2025-05-07 -->
<svg height="920" width="920" xmlns="http://www.w3.org/2000/svg">
  <rect x="0" y="0" width="920" height="920" fill="#ffffff" />
  <!-- orangish V -->
  <polygon points="320,260 460,356 600,260 460,386" fill="#f98100" />
  <!-- bluish V -->
  <polygon points="310,291 460,418 610,291 460,449" fill="#004168" />
  <!-- V -->
  <polygon points="49,476 78,476 114,557 150,476 177,476 127,586 102,586" fill="#f98100" />
  <!-- E -->
  <rect x="227" y="476" width="47" height="19" fill="#f98100" />
  <path d="M227 476 Q 176 476 176 531 L205 531 L205 521 Q 205 495 231 495 Z" fill="#f98100" />
  <path d="M227 586 Q 176 586 176 531 L205 531 L205 541 Q 205 567 231 567 Z" fill="#f98100" />
  <rect x="227" y="567" width="47" height="19" fill="#f98100" />
  <rect x="181" y="521" width="93" height="20" fill="#f98100" />
  <!-- N -->
  <polygon points="293,476 325,476 373,554 373,476 398,476 398,586 368,586 318,505 318,586 293,586" fill="#f98100" />
  <!-- T -->
  <polygon points="409,476 512,476 512,495 474,495 474,586 448,586 448,495 409,495" fill="#f98100" />
  <!-- A -->
  <polygon points="493,586 543,476 571,476 621,586 594,586 557,499 520,586" fill="#f98100" />
  <polygon points="530,540 583,540 592,560 521,560" fill="#f98100" />
  <!-- N -->
  <polygon points="629,476 661,476 709,554 709,476 734,476 734,586 704,586 654,505 654,586 629,586" fill="#f98100" />
  <!-- A -->
  <polygon points="742,586 792,476 820,476 870,586 843,586 806,499 769,586" fill="#f98100" />
  <polygon points="779,540 832,540 841,560 770,560" fill="#f98100" />
</svg>
