<svg version="1.1" id="Layer_1" xmlns="http://www.w3.org/2000/svg" xmlns:xlink="http://www.w3.org/1999/xlink" x="0px" y="0px"
	 width="100%" viewBox="0 0 2583 911" enable-background="new 0 0 2583 911" xml:space="preserve">
<path fill="#FFFFFE" opacity="1.000000" stroke="none" 
	d="
M2584.000000,680.000000 
	C2584.000000,757.318054 2584.000000,834.636108 2584.000000,912.000000 
	C1983.633911,912.000000 1383.267822,912.000000 782.455505,911.648560 
	C831.283020,879.958252 872.209595,839.776672 906.355164,792.671448 
	C964.670288,712.223267 994.029785,621.681335 998.656250,522.853882 
	C1000.309875,487.532104 998.720642,452.318207 993.124878,417.297180 
	C985.299561,368.322327 970.524658,321.619141 948.248840,277.342346 
	C918.678101,218.565796 878.716492,167.828308 828.543213,125.313477 
	C744.998962,54.521515 648.710205,13.539413 539.617249,2.901643 
	C534.399292,2.392836 529.205200,1.639475 524.000000,1.000000 
	C1210.559204,1.000000 1897.118286,1.000000 2584.000000,1.000000 
	C2584.000000,169.699265 2584.000000,338.398743 2583.739746,507.256348 
	C2582.958008,504.468170 2582.578613,501.488312 2581.890625,498.581512 
	C2579.198242,487.211029 2576.297852,475.785614 2568.151611,466.913208 
	C2550.593018,447.789856 2528.180664,439.680908 2502.709229,440.373657 
	C2474.734375,441.134491 2450.329834,451.719727 2428.996094,469.638489 
	C2428.046143,470.436310 2426.988037,471.104858 2425.239746,472.369141 
	C2425.239746,463.816620 2425.239746,456.104095 2425.239746,448.243530 
	C2400.149170,448.243530 2375.573486,448.243530 2350.977539,448.243530 
	C2350.977539,525.563782 2350.977539,602.621948 2350.977539,679.696045 
	C2375.845459,679.696045 2400.413086,679.696045 2425.293213,679.696045 
	C2425.293213,677.902283 2425.289551,676.422485 2425.293701,674.942749 
	C2425.438965,624.792786 2425.582764,574.642822 2425.736084,524.492859 
	C2425.742188,522.494507 2426.029297,520.477661 2425.840820,518.502319 
	C2425.528564,515.227173 2426.984131,513.421448 2429.749756,511.777313 
	C2446.021973,502.103729 2463.408203,498.834625 2482.054932,502.036926 
	C2498.112549,504.794556 2503.543213,509.812500 2507.168213,526.034119 
	C2508.176758,530.547485 2508.903076,535.232849 2508.919189,539.842102 
	C2509.074951,584.501526 2509.051270,629.161499 2509.078857,673.821350 
	C2509.080078,675.764709 2509.078857,677.708130 2509.078857,680.000000 
	C2534.408447,680.000000 2559.204346,680.000000 2584.000000,680.000000 
M1317.312012,622.782593 
	C1320.067139,614.097473 1323.825684,605.587952 1325.383179,596.693115 
	C1329.503540,573.157959 1326.428833,550.837952 1310.656494,531.687988 
	C1299.447632,518.078613 1284.636475,509.595398 1268.580322,503.032776 
	C1245.146362,493.454651 1220.239624,489.819000 1195.633301,484.948547 
	C1182.923950,482.432922 1170.091675,480.170319 1158.763916,473.279938 
	C1145.437500,465.173859 1143.073608,449.626648 1154.052002,438.573853 
	C1158.282471,434.314758 1163.589966,429.801575 1169.145264,428.458099 
	C1180.687622,425.666718 1192.743164,423.443359 1204.552246,423.603973 
	C1238.876953,424.070740 1270.173950,435.104095 1298.480469,454.367493 
	C1303.687012,457.910706 1309.143921,458.110809 1315.300781,458.879974 
	C1315.300781,456.786316 1315.300659,455.157013 1315.300659,453.527740 
	C1315.300659,436.027740 1315.300659,418.527771 1315.300659,401.027771 
	C1315.300659,387.130737 1315.333252,387.043640 1302.046143,382.083893 
	C1283.690430,375.232147 1264.530029,372.021179 1245.162720,369.762207 
	C1218.151611,366.611664 1191.145142,364.439392 1164.062500,369.020599 
	C1135.818115,373.798279 1110.149414,384.087402 1090.204346,405.377869 
	C1068.168213,428.900513 1058.151001,456.469879 1067.367920,488.370972 
	C1075.405151,516.189575 1094.949219,534.832092 1121.421753,544.666504 
	C1143.130981,552.731384 1166.003906,557.667053 1188.368042,563.965027 
	C1202.419922,567.922180 1216.834473,570.902405 1230.448242,576.018860 
	C1244.982910,581.481567 1248.726318,599.955811 1238.883789,611.950806 
	C1229.612793,623.249084 1216.779785,626.810974 1203.040283,628.005493 
	C1184.115112,629.650635 1165.547852,626.855835 1147.080688,622.988281 
	C1120.849609,617.494629 1096.249756,608.359131 1075.746338,590.479919 
	C1071.771118,587.013489 1067.926270,586.997803 1063.074219,587.667664 
	C1063.074219,589.551086 1063.073853,591.185791 1063.074097,592.820496 
	C1063.077026,613.820435 1063.351074,634.826172 1062.906738,655.816650 
	C1062.784180,661.607422 1064.761353,663.897705 1069.935547,665.558228 
	C1098.026489,674.573242 1126.421997,682.056763 1155.978760,684.275391 
	C1184.851196,686.442749 1213.613037,685.891235 1241.845581,678.879578 
	C1274.410400,670.792053 1300.753662,653.878174 1317.312012,622.782593 
M2293.265625,523.218994 
	C2283.217041,487.755280 2262.138672,462.013367 2226.654785,450.020020 
	C2195.291748,439.419434 2163.000000,437.414459 2130.718506,444.982574 
	C2087.601562,455.090851 2059.583496,481.691772 2048.352295,524.864502 
	C2042.263550,548.269348 2043.186523,571.939697 2046.946411,595.710388 
	C2053.338867,636.123108 2075.735107,663.436218 2113.911865,677.181396 
	C2148.573975,689.661133 2184.483643,690.169556 2219.490967,680.296204 
	C2249.674805,671.783264 2273.485352,653.418091 2286.001465,623.045105 
	C2299.285400,590.808533 2302.311035,557.857056 2293.265625,523.218994 
M2012.005615,643.500000 
	C2012.005615,630.398438 2012.005615,617.296875 2012.005615,604.510132 
	C2004.910034,602.765503 1999.949829,604.844482 1995.015747,609.542175 
	C1989.528320,614.766663 1983.292480,619.640320 1976.559937,623.035645 
	C1960.014038,631.380310 1942.112915,633.615295 1923.709473,632.409363 
	C1903.678467,631.096985 1890.186157,620.548828 1880.942139,603.235657 
	C1870.529419,583.733398 1869.215942,563.361572 1873.759644,542.189575 
	C1880.317627,511.631470 1904.104492,492.472839 1935.442139,494.092621 
	C1958.111328,495.264343 1978.777100,502.875610 1995.308960,519.180054 
	C1999.927612,523.734985 2004.824341,524.452148 2011.003296,523.304565 
	C2011.003296,521.574646 2011.003174,519.940491 2011.003418,518.306335 
	C2011.005737,500.307129 2010.829590,482.304749 2011.145264,464.311035 
	C2011.217529,460.195038 2009.700684,458.538879 2006.279663,457.041260 
	C1963.521973,438.323547 1919.689819,436.181885 1875.062134,448.835846 
	C1838.295532,459.260864 1813.831421,483.259674 1800.631592,518.801086 
	C1792.382202,541.013245 1792.016846,564.009644 1795.024902,587.258850 
	C1799.366821,620.817566 1815.481323,646.934387 1843.911011,665.333862 
	C1863.571655,678.058167 1885.668579,682.762939 1908.578125,685.180603 
	C1943.454102,688.861084 1976.940552,684.761108 2008.681641,669.113892 
	C2011.146240,667.898987 2012.178345,666.795776 2012.079956,663.996582 
	C2011.851562,657.504883 2012.006104,650.999695 2012.005615,643.500000 
M1540.500244,357.996307 
	C1534.051636,357.996307 1527.603027,357.996307 1520.984741,357.996307 
	C1520.984741,465.533203 1520.984741,572.552246 1520.984741,679.756958 
	C1546.163696,679.756958 1571.063477,679.756958 1596.082520,679.756958 
	C1596.082520,572.479370 1596.082520,465.444916 1596.082520,357.996307 
	C1577.735840,357.996307 1559.617920,357.996307 1540.500244,357.996307 
M1716.500000,447.993713 
	C1699.761963,447.993713 1683.023926,447.993713 1666.344971,447.993713 
	C1666.344971,525.775452 1666.344971,602.820374 1666.344971,680.085693 
	C1691.332764,680.085693 1716.062134,680.085693 1741.041748,680.085693 
	C1741.041748,602.812622 1741.041748,525.632751 1741.041748,447.993713 
	C1733.078247,447.993713 1725.289185,447.993713 1716.500000,447.993713 
M1451.297241,612.500061 
	C1451.297241,557.772461 1451.297241,503.044830 1451.297241,448.288239 
	C1426.171509,448.288239 1401.607788,448.288239 1377.013672,448.288239 
	C1377.013672,525.950012 1377.013672,603.304199 1377.013672,680.702026 
	C1401.890259,680.702026 1426.457886,680.702026 1451.297363,680.702026 
	C1451.297363,658.103760 1451.297363,635.801941 1451.297241,612.500061 
M1379.626465,357.991913 
	C1377.867432,357.991913 1376.108521,357.991913 1374.401978,357.991913 
	C1374.401978,377.213409 1374.401978,395.771484 1374.401978,414.431580 
	C1400.786377,414.431580 1426.839355,414.431580 1453.107422,414.431580 
	C1453.107422,395.530304 1453.107422,376.947144 1453.107422,357.992004 
	C1428.816528,357.992004 1404.706665,357.992004 1379.626465,357.991913 
M1673.523560,357.995117 
	C1670.286621,357.995117 1667.049561,357.995117 1663.860107,357.995117 
	C1663.860107,376.999664 1663.860107,395.263367 1663.860107,413.717896 
	C1690.549683,413.717896 1717.060669,413.717896 1743.614746,413.717896 
	C1743.614746,395.052948 1743.614746,376.682861 1743.614746,357.995117 
	C1720.384399,357.995117 1697.450073,357.995117 1673.523560,357.995117 
z"/>
<path fill="#9B2924" opacity="1.000000" stroke="none" 
	d="
M523.531372,1.000000 
	C529.205200,1.639475 534.399292,2.392836 539.617249,2.901643 
	C648.710205,13.539413 744.998962,54.521515 828.543213,125.313477 
	C878.716492,167.828308 918.678101,218.565796 948.248840,277.342346 
	C970.524658,321.619141 985.299561,368.322327 993.124878,417.297180 
	C998.720642,452.318207 1000.309875,487.532104 998.656250,522.853882 
	C994.029785,621.681335 964.670288,712.223267 906.355164,792.671448 
	C872.209595,839.776672 831.283020,879.958252 782.004639,911.648560 
	C592.645752,912.000000 403.291534,912.000000 213.421234,911.660645 
	C185.762115,890.984741 161.282257,867.779236 138.853073,842.386902 
	C60.906994,754.143555 13.460855,652.423767 2.851176,534.430664 
	C2.446906,529.934631 1.626499,525.476013 1.000002,521.000000 
	C1.000000,499.979095 1.000000,478.958221 1.384564,457.288086 
	C3.132644,444.582214 4.182475,432.480408 5.913152,420.476746 
	C14.067704,363.918243 32.406044,310.732697 60.456432,261.041351 
	C114.484360,165.330750 191.756195,94.357018 290.829987,47.174282 
	C341.686188,22.954624 395.254211,8.010536 451.455536,2.865900 
	C455.989319,2.450882 460.486053,1.631487 465.000000,1.000000 
	C484.354218,1.000000 503.708466,1.000000 523.531372,1.000000 
M219.099472,470.391937 
	C201.456497,427.689240 183.771439,385.003784 166.253906,342.249695 
	C164.916229,338.984924 163.389206,337.795441 159.801712,337.822662 
	C136.640778,337.998230 113.477829,337.907532 90.315567,337.926239 
	C88.908371,337.927368 87.501328,338.117950 85.603462,338.256104 
	C88.576797,345.640198 91.336884,352.541504 94.131752,359.428680 
	C142.688034,479.081665 191.276260,598.721802 239.684189,718.434753 
	C241.254440,722.317871 243.147934,723.245544 246.946640,723.167480 
	C257.773315,722.945007 268.681061,722.313049 279.416779,723.326721 
	C288.853851,724.217834 293.197052,720.680603 297.184265,712.333557 
	C333.233032,636.866333 369.741058,561.618225 406.183472,486.339325 
	C449.285095,397.304596 492.458160,308.304474 535.590942,219.284821 
	C539.772644,210.654327 543.888855,201.992096 548.106384,193.196762 
	C547.137207,192.980133 546.663330,192.782028 546.189209,192.781464 
	C525.193481,192.756470 504.197021,192.674393 483.203583,192.886459 
	C481.594910,192.902695 479.403015,194.655243 478.496124,196.197083 
	C410.763428,311.355804 343.133850,426.575165 275.493073,541.787964 
	C270.389191,550.481384 265.263275,559.161865 259.734436,568.549988 
	C246.041183,535.478394 232.713821,503.290588 219.099472,470.391937 
M603.187561,677.758118 
	C611.570190,675.083496 619.933899,672.347168 628.345947,669.768616 
	C631.185059,668.898376 632.128540,667.338074 632.069031,664.340881 
	C631.873779,654.513367 631.996643,644.679565 631.996887,634.848145 
	C631.997131,626.094055 631.996948,617.339966 631.996948,608.139771 
	C631.025391,608.663635 630.582642,608.814453 630.248718,609.094849 
	C604.800537,630.465637 575.290283,639.553162 542.343994,637.836731 
	C528.902771,637.136414 515.965027,634.145935 504.476471,626.683411 
	C488.908386,616.570984 481.018616,601.905518 478.940552,583.138123 
	C531.636169,583.138123 583.883301,583.138123 636.335999,583.138123 
	C636.595764,581.403931 636.914124,580.123840 636.961548,578.833740 
	C637.550415,562.827332 637.105530,546.903931 634.073547,531.089966 
	C628.204163,500.476593 611.499939,478.708710 582.378967,466.888763 
	C551.682617,454.429321 520.372925,452.342987 488.670410,462.286469 
	C462.652893,470.446869 440.661560,484.562500 426.391754,508.551208 
	C409.388489,537.135071 404.719299,567.931091 411.607483,600.380676 
	C416.972107,625.653076 428.339050,647.162170 450.845703,661.653625 
	C476.453918,678.142090 504.484802,686.200500 534.790710,686.685852 
	C557.734985,687.053345 580.222168,683.691406 603.187561,677.758118 
M736.087280,651.500000 
	C736.087280,614.853760 736.147888,578.207214 735.996216,541.561584 
	C735.980469,537.772888 737.216736,536.066223 740.674133,534.667542 
	C756.763550,528.158752 773.478027,526.289062 790.598877,527.612671 
	C801.316223,528.441223 811.990051,529.832275 823.083313,531.013489 
	C823.083313,509.746857 823.140503,488.454895 822.919250,467.165833 
	C822.907837,466.066925 820.540833,464.081451 819.225037,464.042389 
	C795.222473,463.329681 771.995056,466.115326 751.866028,480.839020 
	C746.317749,484.897430 741.195251,489.537964 735.196045,494.471710 
	C735.196045,484.314880 735.196045,474.796783 735.196045,465.252075 
	C712.184021,465.252075 689.777222,465.252075 666.694580,465.252075 
	C666.694580,536.348145 666.694580,607.192017 666.694580,677.855103 
	C689.757202,677.855103 712.808350,677.855103 736.087280,677.855103 
	C736.087280,669.129211 736.087280,660.814636 736.087280,651.500000 
M864.500122,679.086731 
	C880.249451,679.086731 895.998840,679.086731 911.763794,679.086731 
	C911.763794,607.089355 911.763794,535.823425 911.763794,464.287537 
	C888.807495,464.287537 866.082397,464.287537 843.250244,464.287537 
	C843.250244,535.957764 843.250244,607.339966 843.250244,679.086792 
	C850.221375,679.086792 856.860779,679.086792 864.500122,679.086731 
M914.687256,429.026184 
	C914.687256,412.758087 914.687256,396.489990 914.687256,380.277283 
	C889.427246,380.277283 864.863159,380.277283 840.361450,380.277283 
	C840.361450,397.546265 840.361450,414.441711 840.361450,431.705017 
	C864.530823,431.705017 888.335022,431.723145 912.138794,431.629913 
	C912.976440,431.626648 913.809753,430.516876 914.687256,429.026184 
z"/>
<path fill="#FFFEFD" opacity="1.000000" stroke="none" 
	d="
M464.531342,1.000000 
	C460.486053,1.631487 455.989319,2.450882 451.455536,2.865900 
	C395.254211,8.010536 341.686188,22.954624 290.829987,47.174282 
	C191.756195,94.357018 114.484360,165.330750 60.456432,261.041351 
	C32.406044,310.732697 14.067704,363.918243 5.913152,420.476746 
	C4.182475,432.480408 3.132644,444.582214 1.384564,456.819397 
	C1.000000,305.072266 1.000000,153.144562 1.000000,1.000000 
	C155.354156,1.000000 309.708435,1.000000 464.531342,1.000000 
z"/>
<path fill="#9B2A24" opacity="1.000000" stroke="none" 
	d="
M2584.000000,679.531372 
	C2559.204346,680.000000 2534.408447,680.000000 2509.078857,680.000000 
	C2509.078857,677.708130 2509.080078,675.764709 2509.078857,673.821350 
	C2509.051270,629.161499 2509.074951,584.501526 2508.919189,539.842102 
	C2508.903076,535.232849 2508.176758,530.547485 2507.168213,526.034119 
	C2503.543213,509.812500 2498.112549,504.794556 2482.054932,502.036926 
	C2463.408203,498.834625 2446.021973,502.103729 2429.749756,511.777313 
	C2426.984131,513.421448 2425.528564,515.227173 2425.840820,518.502319 
	C2426.029297,520.477661 2425.742188,522.494507 2425.736084,524.492859 
	C2425.582764,574.642822 2425.438965,624.792786 2425.293701,674.942749 
	C2425.289551,676.422485 2425.293213,677.902283 2425.293213,679.696045 
	C2400.413086,679.696045 2375.845459,679.696045 2350.977539,679.696045 
	C2350.977539,602.621948 2350.977539,525.563782 2350.977539,448.243530 
	C2375.573486,448.243530 2400.149170,448.243530 2425.239746,448.243530 
	C2425.239746,456.104095 2425.239746,463.816620 2425.239746,472.369141 
	C2426.988037,471.104858 2428.046143,470.436310 2428.996094,469.638489 
	C2450.329834,451.719727 2474.734375,441.134491 2502.709229,440.373657 
	C2528.180664,439.680908 2550.593018,447.789856 2568.151611,466.913208 
	C2576.297852,475.785614 2579.198242,487.211029 2581.890625,498.581512 
	C2582.578613,501.488312 2582.958008,504.468170 2583.739746,507.707245 
	C2584.000000,565.020874 2584.000000,622.041809 2584.000000,679.531372 
z"/>
<path fill="#FFFEFD" opacity="1.000000" stroke="none" 
	d="
M1.000002,521.468628 
	C1.626499,525.476013 2.446906,529.934631 2.851176,534.430664 
	C13.460855,652.423767 60.906994,754.143555 138.853073,842.386902 
	C161.282257,867.779236 185.762115,890.984741 212.952576,911.660645 
	C142.384628,912.000000 71.769257,912.000000 1.000000,912.000000 
	C1.000000,781.979126 1.000000,651.958252 1.000002,521.468628 
z"/>
<path fill="#9B2A25" opacity="1.000000" stroke="none" 
	d="
M1317.150024,623.120178 
	C1300.753662,653.878174 1274.410400,670.792053 1241.845581,678.879578 
	C1213.613037,685.891235 1184.851196,686.442749 1155.978760,684.275391 
	C1126.421997,682.056763 1098.026489,674.573242 1069.935547,665.558228 
	C1064.761353,663.897705 1062.784180,661.607422 1062.906738,655.816650 
	C1063.351074,634.826172 1063.077026,613.820435 1063.074097,592.820496 
	C1063.073853,591.185791 1063.074219,589.551086 1063.074219,587.667664 
	C1067.926270,586.997803 1071.771118,587.013489 1075.746338,590.479919 
	C1096.249756,608.359131 1120.849609,617.494629 1147.080688,622.988281 
	C1165.547852,626.855835 1184.115112,629.650635 1203.040283,628.005493 
	C1216.779785,626.810974 1229.612793,623.249084 1238.883789,611.950806 
	C1248.726318,599.955811 1244.982910,581.481567 1230.448242,576.018860 
	C1216.834473,570.902405 1202.419922,567.922180 1188.368042,563.965027 
	C1166.003906,557.667053 1143.130981,552.731384 1121.421753,544.666504 
	C1094.949219,534.832092 1075.405151,516.189575 1067.367920,488.370972 
	C1058.151001,456.469879 1068.168213,428.900513 1090.204346,405.377869 
	C1110.149414,384.087402 1135.818115,373.798279 1164.062500,369.020599 
	C1191.145142,364.439392 1218.151611,366.611664 1245.162720,369.762207 
	C1264.530029,372.021179 1283.690430,375.232147 1302.046143,382.083893 
	C1315.333252,387.043640 1315.300659,387.130737 1315.300659,401.027771 
	C1315.300659,418.527771 1315.300659,436.027740 1315.300659,453.527740 
	C1315.300659,455.157013 1315.300781,456.786316 1315.300781,458.879974 
	C1309.143921,458.110809 1303.687012,457.910706 1298.480469,454.367493 
	C1270.173950,435.104095 1238.876953,424.070740 1204.552246,423.603973 
	C1192.743164,423.443359 1180.687622,425.666718 1169.145264,428.458099 
	C1163.589966,429.801575 1158.282471,434.314758 1154.052002,438.573853 
	C1143.073608,449.626648 1145.437500,465.173859 1158.763916,473.279938 
	C1170.091675,480.170319 1182.923950,482.432922 1195.633301,484.948547 
	C1220.239624,489.819000 1245.146362,493.454651 1268.580322,503.032776 
	C1284.636475,509.595398 1299.447632,518.078613 1310.656494,531.687988 
	C1326.428833,550.837952 1329.503540,573.157959 1325.383179,596.693115 
	C1323.825684,605.587952 1320.067139,614.097473 1317.150024,623.120178 
z"/>
<path fill="#9B2A25" opacity="1.000000" stroke="none" 
	d="
M2293.422852,523.595093 
	C2302.311035,557.857056 2299.285400,590.808533 2286.001465,623.045105 
	C2273.485352,653.418091 2249.674805,671.783264 2219.490967,680.296204 
	C2184.483643,690.169556 2148.573975,689.661133 2113.911865,677.181396 
	C2075.735107,663.436218 2053.338867,636.123108 2046.946411,595.710388 
	C2043.186523,571.939697 2042.263550,548.269348 2048.352295,524.864502 
	C2059.583496,481.691772 2087.601562,455.090851 2130.718506,444.982574 
	C2163.000000,437.414459 2195.291748,439.419434 2226.654785,450.020020 
	C2262.138672,462.013367 2283.217041,487.755280 2293.422852,523.595093 
M2202.558838,624.074036 
	C2209.218994,617.475586 2213.751221,609.568115 2215.949463,600.530945 
	C2221.389404,578.164246 2220.487305,555.659546 2216.510254,533.204346 
	C2210.767822,500.781250 2190.143066,491.324463 2162.186768,493.068268 
	C2145.269043,494.123535 2131.731934,506.520203 2126.141357,525.738464 
	C2120.437256,545.346558 2119.717773,565.372925 2122.494385,585.538330 
	C2124.052246,596.851318 2127.347656,607.656494 2133.620117,617.277954 
	C2146.979004,637.769226 2181.860352,641.407288 2202.558838,624.074036 
z"/>
<path fill="#9B2A25" opacity="1.000000" stroke="none" 
	d="
M2012.005615,644.000000 
	C2012.006104,650.999695 2011.851562,657.504883 2012.079956,663.996582 
	C2012.178345,666.795776 2011.146240,667.898987 2008.681641,669.113892 
	C1976.940552,684.761108 1943.454102,688.861084 1908.578125,685.180603 
	C1885.668579,682.762939 1863.571655,678.058167 1843.911011,665.333862 
	C1815.481323,646.934387 1799.366821,620.817566 1795.024902,587.258850 
	C1792.016846,564.009644 1792.382202,541.013245 1800.631592,518.801086 
	C1813.831421,483.259674 1838.295532,459.260864 1875.062134,448.835846 
	C1919.689819,436.181885 1963.521973,438.323547 2006.279663,457.041260 
	C2009.700684,458.538879 2011.217529,460.195038 2011.145264,464.311035 
	C2010.829590,482.304749 2011.005737,500.307129 2011.003418,518.306335 
	C2011.003174,519.940491 2011.003296,521.574646 2011.003296,523.304565 
	C2004.824341,524.452148 1999.927612,523.734985 1995.308960,519.180054 
	C1978.777100,502.875610 1958.111328,495.264343 1935.442139,494.092621 
	C1904.104492,492.472839 1880.317627,511.631470 1873.759644,542.189575 
	C1869.215942,563.361572 1870.529419,583.733398 1880.942139,603.235657 
	C1890.186157,620.548828 1903.678467,631.096985 1923.709473,632.409363 
	C1942.112915,633.615295 1960.014038,631.380310 1976.559937,623.035645 
	C1983.292480,619.640320 1989.528320,614.766663 1995.015747,609.542175 
	C1999.949829,604.844482 2004.910034,602.765503 2012.005615,604.510132 
	C2012.005615,617.296875 2012.005615,630.398438 2012.005615,644.000000 
z"/>
<path fill="#9B2924" opacity="1.000000" stroke="none" 
	d="
M1541.000122,357.996307 
	C1559.617920,357.996307 1577.735840,357.996307 1596.082520,357.996307 
	C1596.082520,465.444916 1596.082520,572.479370 1596.082520,679.756958 
	C1571.063477,679.756958 1546.163696,679.756958 1520.984741,679.756958 
	C1520.984741,572.552246 1520.984741,465.533203 1520.984741,357.996307 
	C1527.603027,357.996307 1534.051636,357.996307 1541.000122,357.996307 
z"/>
<path fill="#9B2A24" opacity="1.000000" stroke="none" 
	d="
M1717.000000,447.993713 
	C1725.289185,447.993713 1733.078247,447.993713 1741.041748,447.993713 
	C1741.041748,525.632751 1741.041748,602.812622 1741.041748,680.085693 
	C1716.062134,680.085693 1691.332764,680.085693 1666.344971,680.085693 
	C1666.344971,602.820374 1666.344971,525.775452 1666.344971,447.993713 
	C1683.023926,447.993713 1699.761963,447.993713 1717.000000,447.993713 
z"/>
<path fill="#9B2924" opacity="1.000000" stroke="none" 
	d="
M1451.297363,613.000122 
	C1451.297363,635.801941 1451.297363,658.103760 1451.297363,680.702026 
	C1426.457886,680.702026 1401.890259,680.702026 1377.013672,680.702026 
	C1377.013672,603.304199 1377.013672,525.950012 1377.013672,448.288239 
	C1401.607788,448.288239 1426.171509,448.288239 1451.297241,448.288239 
	C1451.297241,503.044830 1451.297241,557.772461 1451.297363,613.000122 
z"/>
<path fill="#9C2B25" opacity="1.000000" stroke="none" 
	d="
M1380.111572,357.991943 
	C1404.706665,357.992004 1428.816528,357.992004 1453.107422,357.992004 
	C1453.107422,376.947144 1453.107422,395.530304 1453.107422,414.431580 
	C1426.839355,414.431580 1400.786377,414.431580 1374.401978,414.431580 
	C1374.401978,395.771484 1374.401978,377.213409 1374.401978,357.991913 
	C1376.108521,357.991913 1377.867432,357.991913 1380.111572,357.991943 
z"/>
<path fill="#9B2A24" opacity="1.000000" stroke="none" 
	d="
M1674.019653,357.995117 
	C1697.450073,357.995117 1720.384399,357.995117 1743.614746,357.995117 
	C1743.614746,376.682861 1743.614746,395.052948 1743.614746,413.717896 
	C1717.060669,413.717896 1690.549683,413.717896 1663.860107,413.717896 
	C1663.860107,395.263367 1663.860107,376.999664 1663.860107,357.995117 
	C1667.049561,357.995117 1670.286621,357.995117 1674.019653,357.995117 
z"/>
<path fill="#FFFEFD" opacity="1.000000" stroke="none" 
	d="
M219.242981,470.747375 
	C232.713821,503.290588 246.041183,535.478394 259.734436,568.549988 
	C265.263275,559.161865 270.389191,550.481384 275.493073,541.787964 
	C343.133850,426.575165 410.763428,311.355804 478.496124,196.197083 
	C479.403015,194.655243 481.594910,192.902695 483.203583,192.886459 
	C504.197021,192.674393 525.193481,192.756470 546.189209,192.781464 
	C546.663330,192.782028 547.137207,192.980133 548.106384,193.196762 
	C543.888855,201.992096 539.772644,210.654327 535.590942,219.284821 
	C492.458160,308.304474 449.285095,397.304596 406.183472,486.339325 
	C369.741058,561.618225 333.233032,636.866333 297.184265,712.333557 
	C293.197052,720.680603 288.853851,724.217834 279.416779,723.326721 
	C268.681061,722.313049 257.773315,722.945007 246.946640,723.167480 
	C243.147934,723.245544 241.254440,722.317871 239.684189,718.434753 
	C191.276260,598.721802 142.688034,479.081665 94.131752,359.428680 
	C91.336884,352.541504 88.576797,345.640198 85.603462,338.256104 
	C87.501328,338.117950 88.908371,337.927368 90.315567,337.926239 
	C113.477829,337.907532 136.640778,337.998230 159.801712,337.822662 
	C163.389206,337.795441 164.916229,338.984924 166.253906,342.249695 
	C183.771439,385.003784 201.456497,427.689240 219.242981,470.747375 
z"/>
<path fill="#FEFEFC" opacity="1.000000" stroke="none" 
	d="
M602.788086,677.851746 
	C580.222168,683.691406 557.734985,687.053345 534.790710,686.685852 
	C504.484802,686.200500 476.453918,678.142090 450.845703,661.653625 
	C428.339050,647.162170 416.972107,625.653076 411.607483,600.380676 
	C404.719299,567.931091 409.388489,537.135071 426.391754,508.551208 
	C440.661560,484.562500 462.652893,470.446869 488.670410,462.286469 
	C520.372925,452.342987 551.682617,454.429321 582.378967,466.888763 
	C611.499939,478.708710 628.204163,500.476593 634.073547,531.089966 
	C637.105530,546.903931 637.550415,562.827332 636.961548,578.833740 
	C636.914124,580.123840 636.595764,581.403931 636.335999,583.138123 
	C583.883301,583.138123 531.636169,583.138123 478.940552,583.138123 
	C481.018616,601.905518 488.908386,616.570984 504.476471,626.683411 
	C515.965027,634.145935 528.902771,637.136414 542.343994,637.836731 
	C575.290283,639.553162 604.800537,630.465637 630.248718,609.094849 
	C630.582642,608.814453 631.025391,608.663635 631.996948,608.139771 
	C631.996948,617.339966 631.997131,626.094055 631.996887,634.848145 
	C631.996643,644.679565 631.873779,654.513367 632.069031,664.340881 
	C632.128540,667.338074 631.185059,668.898376 628.345947,669.768616 
	C619.933899,672.347168 611.570190,675.083496 602.788086,677.851746 
M554.489197,543.289368 
	C559.079773,543.289368 563.670349,543.289368 568.248901,543.289368 
	C567.995117,521.339539 557.763855,506.842499 539.352539,502.446167 
	C527.813416,499.690796 516.205322,500.196838 504.964874,504.200043 
	C488.993256,509.888184 478.086426,526.483948 479.312439,543.289490 
	C504.016510,543.289490 528.754578,543.289490 554.489197,543.289368 
z"/>
<path fill="#FFFEFD" opacity="1.000000" stroke="none" 
	d="
M736.087280,652.000000 
	C736.087280,660.814636 736.087280,669.129211 736.087280,677.855103 
	C712.808350,677.855103 689.757202,677.855103 666.694580,677.855103 
	C666.694580,607.192017 666.694580,536.348145 666.694580,465.252075 
	C689.777222,465.252075 712.184021,465.252075 735.196045,465.252075 
	C735.196045,474.796783 735.196045,484.314880 735.196045,494.471710 
	C741.195251,489.537964 746.317749,484.897430 751.866028,480.839020 
	C771.995056,466.115326 795.222473,463.329681 819.225037,464.042389 
	C820.540833,464.081451 822.907837,466.066925 822.919250,467.165833 
	C823.140503,488.454895 823.083313,509.746857 823.083313,531.013489 
	C811.990051,529.832275 801.316223,528.441223 790.598877,527.612671 
	C773.478027,526.289062 756.763550,528.158752 740.674133,534.667542 
	C737.216736,536.066223 735.980469,537.772888 735.996216,541.561584 
	C736.147888,578.207214 736.087280,614.853760 736.087280,652.000000 
z"/>
<path fill="#FFFFFD" opacity="1.000000" stroke="none" 
	d="
M864.000122,679.086792 
	C856.860779,679.086792 850.221375,679.086792 843.250244,679.086792 
	C843.250244,607.339966 843.250244,535.957764 843.250244,464.287537 
	C866.082397,464.287537 888.807495,464.287537 911.763794,464.287537 
	C911.763794,535.823425 911.763794,607.089355 911.763794,679.086731 
	C895.998840,679.086731 880.249451,679.086731 864.000122,679.086792 
z"/>
<path fill="#FEFCFA" opacity="1.000000" stroke="none" 
	d="
M914.666138,429.474487 
	C913.809753,430.516876 912.976440,431.626648 912.138794,431.629913 
	C888.335022,431.723145 864.530823,431.705017 840.361450,431.705017 
	C840.361450,414.441711 840.361450,397.546265 840.361450,380.277283 
	C864.863159,380.277283 889.427246,380.277283 914.687256,380.277283 
	C914.687256,396.489990 914.687256,412.758087 914.666138,429.474487 
z"/>
<path fill="#FEFEFC" opacity="1.000000" stroke="none" 
	d="
M2202.299805,624.322693 
	C2181.860352,641.407288 2146.979004,637.769226 2133.620117,617.277954 
	C2127.347656,607.656494 2124.052246,596.851318 2122.494385,585.538330 
	C2119.717773,565.372925 2120.437256,545.346558 2126.141357,525.738464 
	C2131.731934,506.520203 2145.269043,494.123535 2162.186768,493.068268 
	C2190.143066,491.324463 2210.767822,500.781250 2216.510254,533.204346 
	C2220.487305,555.659546 2221.389404,578.164246 2215.949463,600.530945 
	C2213.751221,609.568115 2209.218994,617.475586 2202.299805,624.322693 
z"/>
<path fill="#9C2B25" opacity="1.000000" stroke="none" 
	d="
M553.990906,543.289429 
	C528.754578,543.289490 504.016510,543.289490 479.312439,543.289490 
	C478.086426,526.483948 488.993256,509.888184 504.964874,504.200043 
	C516.205322,500.196838 527.813416,499.690796 539.352539,502.446167 
	C557.763855,506.842499 567.995117,521.339539 568.248901,543.289368 
	C563.670349,543.289368 559.079773,543.289368 553.990906,543.289429 
z"/>
</svg>