<svg xmlns="http://www.w3.org/2000/svg" role="img" viewBox="-4.10 125.65 330.20 106.45"><path d="M2.5 133.7c.3 1 4.7 9 9.7 17.8 5.1 8.8 9.6 16.9 10.2 18C28.5 181 50.5 219 51 219c.4 0 2.2-2.8 4-6.3 1.9-3.4 4.3-7.8 5.5-9.7 1.2-1.9 8.3-14.1 15.7-27 7.4-12.9 16-27.9 19.2-33.2 3.1-5.3 5.6-9.9 5.6-10.2 0-.4-3.5-.6-7.7-.6h-7.8l-5.4 9.8c-3 5.3-8 14.2-11.2 19.7-7.5 13.2-13.6 24.2-15.6 28.2-.9 1.8-2 3.3-2.3 3.3-.4 0-3.1-4.6-6-10.3-2.9-5.6-8.4-15.9-12.2-22.9-3.7-6.9-6.8-13.1-6.8-13.7 0-.7 3-1.1 8.4-1.1h8.4l3.7 6.5c2 3.6 4 6.5 4.4 6.5.6 0 12.5-18.9 15.8-25.3.2-.4-14.3-.7-32.2-.7-30.7 0-32.7.1-32 1.7zm263.8-.2c-3.8 1.6-6.3 6-6.3 11 0 3.1-.3 3.5-2.5 3.5s-2.5.4-2.5 3.4c0 2.8.4 3.5 2.3 3.8 2.2.3 2.2.6 2.5 16l.3 15.8h8.9v-32h10v-7h-5.5c-6 0-6.5-.7-4.3-5.5.9-2.1 1.8-2.5 5.5-2.5 4.2 0 4.3-.1 4.3-3.4 0-3-.4-3.4-3.1-4-4.4-.9-5.9-.7-9.6.9zM170 137v4h9v-8h-9v4zm49 6.5v10.6l-2.7-2.6c-5.7-5.2-13.4-5.6-20.5-.9-11.3 7.3-10.6 28.7 1.2 35.3 6.9 3.8 17.7 1.9 21-3.7.7-1.4.9-1 1 1.5 0 3.2.1 3.3 4.5 3.3h4.5v-54h-9v10.5zm-3.4 14.9c6.4 6.4 4.1 18.9-4.1 21.6-9.5 3.1-17.4-6.1-14.5-16.9 1.4-5.4 5.1-8.1 10.7-8.1 3.8 0 5 .5 7.9 3.4zM238 137v4h10v-8h-10v4zm-131.5 11.9c-8.1 3.6-12.1 11.3-11.2 21.3.7 7.5 4.2 12.9 10.4 15.9s15.1 2.4 21.2-1.5l4.4-2.8-2.6-2.5-2.5-2.6-3.5 2.2c-2.2 1.4-5.1 2.1-8.1 2.1-3.9 0-5.3-.5-7.7-2.9-1.6-1.6-2.9-3.9-2.9-5 0-2 .5-2.1 14.5-2.1H133v-2.8c0-15.2-13.7-25.2-26.5-19.3zm12.6 6.8c2.4 1.5 4.9 5.7 4.9 8.4 0 .5-4.5.9-10 .9-10.8 0-11-.1-9-5.5 1-2.6 5.8-5.4 9.3-5.5 1.1 0 3.2.8 4.8 1.7zm38.9-7.6c-1.4.5-4 2.6-5.7 4.7l-3.3 3.7V148h-8v39h8v-7.8c.1-13.9 2.7-19.8 9.6-21.8 3.7-1 3.9-1.3 4.2-5.7.3-5-.1-5.4-4.8-3.6zm12 19.4V187h9v-39h-9v19.5zm69 0V187h8v-39h-8v19.5zm42-19.1c0 .3 3.6 9.2 8 20l8 19.5-3.4 8.8c-4.4 11.1-8.6 22.4-8.6 23 0 .2 1.7.3 3.7.1l3.7-.3 13.8-34.9c7.6-19.2 13.8-35.3 13.8-35.8 0-.4-1.8-.8-4-.8-4.7 0-4.4-.4-10 16.3-2.4 7-4.7 12.4-5.1 12-.4-.4-2.8-6.2-5.2-12.8-2.5-6.6-4.8-12.8-5.2-13.8-.5-1.2-1.9-1.7-5.1-1.7-2.4 0-4.4.2-4.4.4zM99.7 198.2c-2.2 1.6-2.5 2.3-1.5 2.9 1.1.7 1 1.1-.2 1.9-1.3.8-1.1 1.2.8 3 1.6 1.6 2.2 1.7 2.2.6 0-.8-.4-1.6-.9-1.8-1.7-.6.1-5.6 2.5-6.8 1.9-1.1 2.6-1.1 3.9 0 .8.7 1.5.8 1.5.2 0-1-2.3-2.2-4.3-2.2-.7 0-2.5 1-4 2.2zm119.1-1.5c.7.3 1.6.2 1.9-.1.4-.3-.2-.6-1.3-.5-1.1 0-1.4.3-.6.6zm18.1 2.5c0 .2-.3 3.8-.5 8.1-.4 6.1-.1 8.4 1.1 10.3.9 1.4 2 2.2 2.6 1.8.6-.3.4-1.1-.6-1.8-1.4-1-1.6-2.6-1.2-9.9.3-5.1.2-8.7-.4-8.7-.5 0-.9.1-1 .2zm-112.7 5.4c-2.3 1.6-3 4.4-1 4.4.6 0 .8-.3.5-.7-1.2-1.1 2.5-4.3 4.9-4.3 1.4 0 3 1 4 2.5.9 1.4 1.9 2.3 2.2 2.1.2-.3-.3-1.7-1.2-3.1-1.9-2.9-6-3.3-9.4-.9zm25.2 1.1c-1.3 1.4-2.2 2.8-1.9 3.1.3.3.6.3.8.1.1-.2 1.3-1.6 2.6-3.2 3.1-3.5 1.8-3.6-1.5 0zm5.6-1.7c-1.2.7-1 .9.8.7 1.2 0 2.2-.5 2.2-.9 0-1.1-1.2-1-3 .2zm27.6 1.2c-.3 1.3-.1 2.7.4 3.2 1.3 1.3 1.3 2.9 0 2.1-.6-.4-1 .5-1 2.1 0 1.5-.8 3.7-1.7 4.8-1.8 2.1-1.8 2.1.2.5 1.1-.9 2.6-1.4 3.3-1.2 1 .4 1.2-1.1 1-6.2-.2-6.9-1.1-9.1-2.2-5.3zm1.1 10c-.3.8-.6.5-.6-.6-.1-1.1.2-1.7.5-1.3.3.3.4 1.2.1 1.9zm18.5-10.6c-1.7 1.2-2.2 1.2-2.3.2 0-.7-.5-.2-1 1.2-1.2 3-.9 13 .4 13 .5 0 .7-1.5.4-3.3-.2-1.7-.1-4.2.4-5.5.7-1.7.6-2.2-.4-1.7-.6.4-.1-.3 1.3-1.4 1.4-1.1 3.1-2.1 3.8-2.1 1.3 0 1.7-2 .4-2-.4 0-1.8.7-3 1.6zm17.4-.8c-.6 1-.4 15.2.3 15.2.3 0 .6-3.6.7-8 .1-7.9 0-8.7-1-7.2zm12.9.2c.3.5 1.2.7 2 .3 2.1-.7 1.9-1.3-.6-1.3-1.1 0-1.8.4-1.4 1zm7.5 0c0 .5.5 1 1 1 .6 0 1-.5 1-1 0-.6-.4-1-1-1-.5 0-1 .4-1 1zm13.1-.3c0 .4.4 1.7.9 2.8.8 1.9.9 1.9.9-.2.1-1.2-.3-2.5-.9-2.8-.5-.3-1-.3-.9.2zm-83.1 4.9c0 5.5 1.6 5 2.2-.6.2-2.8 0-4-.9-4s-1.3 1.5-1.3 4.6zm94.6-2.9c-.6 1.4-.5 1.5.5.6.7-.7 1-1.5.7-1.8-.3-.3-.9.2-1.2 1.2zM102 207.6c0 1.1.6 1.5 2 1.1 1.4-.4 2 0 2.1 1.1 0 1.3.2 1.4.6.3.3-.8-.2-2-1.3-2.8-2.4-1.7-3.4-1.7-3.4.3zm160.4 5.3c-2 5.5-3 5.7-4 .6-.5-3-3.4-5.9-3.4-3.5 0 .6.4 1 1 1 .5 0 .7.7.4 1.5-.4.8-.1 1.5.6 1.5s1 .7.6 1.5c-.3.8-.1 1.5.4 1.5.6 0 1 .7 1 1.5 0 .9.6 1.2 1.5.9.8-.4 1.5-1.4 1.5-2.3 0-.9.6-2.5 1.3-3.6 1.9-2.8 2.8-5.5 1.8-5.5-.5 0-1.7 2.2-2.7 4.9z"/><path d="M108.3 211.5c.5 3.6-5.3 7.8-9.3 6.8-1.6-.4-2.1-.3-1.6.6 1.3 2 7.9 1 10.4-1.6 2.4-2.6 2.5-2.9 1.1-5.8l-.9-2 .3 2zm12.7-.5c0 .5.5 1 1 1 .6 0 1-.5 1-1 0-.6-.4-1-1-1-.5 0-1 .4-1 1zm3 .2c0 .4 1.9.8 4.2.8 2.3 0 3.8-.3 3.4-.7-1-1-7.6-1.1-7.6-.1zm9.8-.5c.7.3 1.6.2 1.9-.1.4-.3-.2-.6-1.3-.5-1.1 0-1.4.3-.6.6zm13 3c.6 3.3 5.9 7 7.5 5.3.9-1 .9-1.2-.4-.7-.9.3-2.2-.3-2.9-1.3-.8-1.1-1.8-1.7-2.2-1.4-.5.3-.6-.5-.3-1.8.5-1.7.2-2.5-.8-2.5-.9 0-1.2.8-.9 2.4zm-25.1 1.4c1 3.6 4.6 5.2 9.5 4l4.3-1-4 .3c-4.3.3-8.5-1.7-8.5-4 0-.8-.4-1.4-.9-1.4s-.7.9-.4 2.1zm49.3.3c0 2.2 2.9 4.6 5.3 4.5 1.9 0 1.9-.2-.5-1.1-1.7-.6-2.8-1.7-2.8-2.9 0-1-.4-1.9-1-1.9-.5 0-1 .6-1 1.4zm11.8 3.3c.7.3 1.6.2 1.9-.1.4-.3-.2-.6-1.3-.5-1.1 0-1.4.3-.6.6zm59.7.3c-.3.5-.1 1 .4 1 .6 0 1.1-.5 1.1-1 0-.6-.2-1-.4-1-.3 0-.8.4-1.1 1zm17 3.4c-1.8 1.9-2.6 3.6-1.8 3.6.9 0 3.7-4 3.1-4.5-.2-.2-.8.2-1.3.9z"/></svg>