<svg xmlns="http://www.w3.org/2000/svg" xmlns:xlink="http://www.w3.org/1999/xlink" viewBox="0 0 180.7 70.29"><defs><style>.cls-1{fill:#333646;}.cls-2{fill:url(#Degradado_sin_nombre_9);}.cls-3{fill:url(#Degradado_sin_nombre_9-2);}</style><linearGradient id="Degradado_sin_nombre_9" x1="-5.09" y1="-25.03" x2="62.52" y2="103.3" gradientUnits="userSpaceOnUse"><stop offset="0" stop-color="#67c6e1"/><stop offset="0.01" stop-color="#67c6e1"/><stop offset="1" stop-color="#0cafdd"/></linearGradient><linearGradient id="Degradado_sin_nombre_9-2" x1="-3.48" y1="-25.88" x2="64.14" y2="102.45" xlink:href="#Degradado_sin_nombre_9"/></defs><g id="Capa_2" data-name="Capa 2"><g id="Capa_1-2" data-name="Capa 1"><path class="cls-1" d="M77.85,46.46a.71.71,0,0,0,.3.09h.09a.64.64,0,0,0,.29-.09.66.66,0,0,0,.3-.41L91.2,13.72a.6.6,0,0,0,0-.65.68.68,0,0,0-.54-.24h-.07a.64.64,0,0,0-.26.08.61.61,0,0,0-.31.39L78.55,43.09l-.36,1.34-.35-1.32L66.4,13.3a.63.63,0,0,0-.3-.39.69.69,0,0,0-.26-.08h-.07a.65.65,0,0,0-.53.24.66.66,0,0,0-.06.65L77.56,46.05C77.64,46.27,77.73,46.41,77.85,46.46Z"/><path class="cls-1" d="M78.24,46.65h-.09a.82.82,0,0,1-.34-.09.75.75,0,0,1-.35-.47L65.08,13.76a.72.72,0,0,1,.08-.75.75.75,0,0,1,.61-.29h.07a1,1,0,0,1,.3.09.77.77,0,0,1,.36.45L77.94,43.07l.25.94.25-.95,11.44-29.8a.77.77,0,0,1,.36-.45.81.81,0,0,1,.31-.09h.07a.77.77,0,0,1,.62.28.68.68,0,0,1,.06.76L78.93,46.09a.79.79,0,0,1-.35.47A.86.86,0,0,1,78.24,46.65ZM65.77,12.93a.54.54,0,0,0-.45.21.53.53,0,0,0,0,.54L77.66,46a.58.58,0,0,0,.24.36h0a.56.56,0,0,0,.25.07h.09a.62.62,0,0,0,.25-.07.63.63,0,0,0,.24-.35L91.11,13.68a.51.51,0,0,0,0-.54.57.57,0,0,0-.46-.21h-.07a.91.91,0,0,0-.22.08.54.54,0,0,0-.25.32L78.64,43.12l-.45,1.72-.45-1.7L66.3,13.33a.5.5,0,0,0-.25-.32.79.79,0,0,0-.21-.08Z"/><path class="cls-1" d="M99.85,46.3a1.2,1.2,0,0,0,.16-.66v-32a1.09,1.09,0,0,0-.16-.61.62.62,0,0,0-.55-.24.68.68,0,0,0-.59.24,1,1,0,0,0-.18.58v32a1.05,1.05,0,0,0,.19.66.7.7,0,0,0,.58.25A.62.62,0,0,0,99.85,46.3Z"/><path class="cls-1" d="M168.22,46.48a.78.78,0,0,0,.34-.46l12.06-32.19a.65.65,0,0,0-.13-.75.86.86,0,0,0-.59-.27,2.49,2.49,0,0,0-.36.12.72.72,0,0,0-.33.43L168.51,42l-.63,2.12-.61-2.09L160.5,24l3.83-10.12a.59.59,0,0,0-.11-.72,1.12,1.12,0,0,0-.61-.3.86.86,0,0,0-.34.09.79.79,0,0,0-.35.46L152.19,42l-.63,2.14L150.92,42,140.25,13.33a.68.68,0,0,0-.35-.44.82.82,0,0,0-.34-.08.72.72,0,0,0-.3.07.81.81,0,0,0-.29.19.66.66,0,0,0-.17.32.87.87,0,0,0,0,.44l12,32.19a.86.86,0,0,0,.32.46.71.71,0,0,0,.31.09h.14a.79.79,0,0,0,.31-.09.92.92,0,0,0,.33-.46l6.68-17.75.8-2.56.83,2.56L167.13,46a.87.87,0,0,0,.33.46.82.82,0,0,0,.33.09h.11A.87.87,0,0,0,168.22,46.48Z"/><path class="cls-1" d="M134.28,20.87a13.68,13.68,0,0,0-2.48-4.46,11.88,11.88,0,0,0-4-3.05,12,12,0,0,0-5.3-1.13,14.17,14.17,0,0,0-5.39,1,13.1,13.1,0,0,0-7.28,7.21A14.2,14.2,0,0,0,108.82,26v7.34a14.24,14.24,0,0,0,1.1,5.7,12.9,12.9,0,0,0,3,4.32,13.05,13.05,0,0,0,4.4,2.75,15,15,0,0,0,5.38,1,11.78,11.78,0,0,0,3-.4,13.59,13.59,0,0,0,2.83-1.13A14,14,0,0,0,131,43.84a11.45,11.45,0,0,0,2-2.22c.24-.37.31-.64.21-.83a1.84,1.84,0,0,0-.26-.38l0,0a.45.45,0,0,0-.41-.09c-.19,0-.38.18-.58.48a11.31,11.31,0,0,1-4.17,3.7,11.43,11.43,0,0,1-5.16,1.19,12.8,12.8,0,0,1-4.66-.85,11.67,11.67,0,0,1-6.61-6.33,12.57,12.57,0,0,1-1-5.12V26a12.56,12.56,0,0,1,1-5,11.73,11.73,0,0,1,2.63-3.88,12,12,0,0,1,3.89-2.53,12.41,12.41,0,0,1,4.76-.91,10.39,10.39,0,0,1,4.71,1,10.89,10.89,0,0,1,3.48,2.78,12.49,12.49,0,0,1,2.16,4,15.18,15.18,0,0,1,.74,4.72v1.05c-1.95-1.84-6.08-5-11.2-5-4.17,0-8.07,2.12-11.59,6.3a.74.74,0,0,0,.05,1,17.25,17.25,0,0,0,11.41,4.23,22.35,22.35,0,0,0,12.39-4.13.87.87,0,0,0,.14-.12.53.53,0,0,0,.1-.06.71.71,0,0,0,.19-.55V26.24A17,17,0,0,0,134.28,20.87ZM112.47,29c3.09-3.46,6.44-5.21,10-5.22h0c5.06,0,9.21,3.66,10.7,5.15C122.15,35.7,114.5,30.62,112.47,29Z"/><path class="cls-1" d="M122.19,32.22A4.18,4.18,0,1,1,126.36,28,4.18,4.18,0,0,1,122.19,32.22Zm0-6.86A2.68,2.68,0,1,0,124.87,28,2.69,2.69,0,0,0,122.19,25.36Z"/><path class="cls-1" d="M71.32,61.77c0,.07,0,.13,0,.16a.15.15,0,0,1-.13.06h-.71l-.12,0a.26.26,0,0,1-.08-.13l-.54-1.55h-3.3l-.53,1.55a.22.22,0,0,1-.09.13l-.11,0H65a.15.15,0,0,1-.13-.06s0-.09,0-.16l2.67-7.37a.2.2,0,0,1,.08-.13.27.27,0,0,1,.12,0h.72a.27.27,0,0,1,.12,0,.25.25,0,0,1,.09.13Zm-4.56-2.44H69.4l-1.2-3.44-.12-.6-.12.6Z"/><path class="cls-1" d="M75.37,54.46c0-.13.06-.2.18-.2h.78s.07.06.12.15l3.46,5.21.29.58,0-.59V54.46a.2.2,0,0,1,0-.14.17.17,0,0,1,.14-.06H81a.13.13,0,0,1,.12.05.16.16,0,0,1,0,.14V61.8A.17.17,0,0,1,81,62h-.56l-.12,0a.26.26,0,0,1-.11-.12l-3.6-5.41L76.32,56l.05.49v5.35c0,.13-.06.2-.17.2h-.65c-.12,0-.18-.07-.18-.2Z"/><path class="cls-1" d="M82.79,58A2.76,2.76,0,0,1,83,56.88,2.57,2.57,0,0,1,83.6,56a2.63,2.63,0,0,1,.9-.58,2.89,2.89,0,0,1,1.11-.21,2.56,2.56,0,0,1,1,.19,2.4,2.4,0,0,1,.81.56,2.77,2.77,0,0,1,.57.91,3.39,3.39,0,0,1,.21,1.24v.53a.27.27,0,0,1-.09.24.32.32,0,0,1-.25.06h-4v.41a1.94,1.94,0,0,0,.15.78,1.79,1.79,0,0,0,1,1,1.87,1.87,0,0,0,.71.13,1.8,1.8,0,0,0,.76-.17,1.69,1.69,0,0,0,.62-.55c0-.06.08-.09.11-.09a.16.16,0,0,1,.1,0l.54.29a.15.15,0,0,1,.06.09.25.25,0,0,1-.05.16,2.73,2.73,0,0,1-.38.46,2.56,2.56,0,0,1-1.08.61,2.39,2.39,0,0,1-.66.09,3.07,3.07,0,0,1-1.1-.2,2.47,2.47,0,0,1-.9-.57,2.58,2.58,0,0,1-.61-.87,2.78,2.78,0,0,1-.22-1.13Zm1,.18h3.47V58a2.67,2.67,0,0,0-.09-.69,2.11,2.11,0,0,0-.3-.6,1.46,1.46,0,0,0-.51-.44,1.54,1.54,0,0,0-.73-.17,1.79,1.79,0,0,0-.75.15,1.72,1.72,0,0,0-.58.4,1.9,1.9,0,0,0-.37.59,2,2,0,0,0-.14.73Z"/><path class="cls-1" d="M93.56,57.32l1,3,.12.57.13-.58,1.58-4.75a.22.22,0,0,1,.09-.13.28.28,0,0,1,.12,0h.66a.17.17,0,0,1,.14.07.23.23,0,0,1,0,.2l-2.32,6.22A.22.22,0,0,1,95,62a.25.25,0,0,1-.11,0h-.43a.28.28,0,0,1-.12,0s-.06-.07-.08-.13l-1-2.76-.16-.57-.15.57-1,2.76a.22.22,0,0,1-.09.13.21.21,0,0,1-.11,0h-.43a.28.28,0,0,1-.12,0,.26.26,0,0,1-.08-.13l-2.28-6.2a.22.22,0,0,1,0-.21.19.19,0,0,1,.16-.08h.63a.25.25,0,0,1,.12,0,.25.25,0,0,1,.09.13l1.59,4.75.11.6.12-.6,1.6-4.75c0-.06,0-.11.08-.13a.28.28,0,0,1,.12,0h.66a.17.17,0,0,1,.14.07.23.23,0,0,1,0,.2Z"/><path class="cls-1" d="M104.43,61.83a.25.25,0,0,1-.09.13l-.11,0h-.73a.23.23,0,0,1-.11,0,.25.25,0,0,1-.09-.13l-2.58-7.38a.14.14,0,0,1,.14-.21h.71a.27.27,0,0,1,.12,0,.23.23,0,0,1,.08.12l2,6,.09.48.1-.48,2-6a.19.19,0,0,1,.09-.12.27.27,0,0,1,.12,0h.7a.16.16,0,0,1,.13,0,.17.17,0,0,1,0,.16Z"/><path class="cls-1" d="M108.18,53.77a.32.32,0,0,1,0-.18.22.22,0,0,1,.19-.07h.65c.15,0,.22.09.22.25v.6a.22.22,0,0,1-.06.18.25.25,0,0,1-.16.05h-.64a.36.36,0,0,1-.19-.05.24.24,0,0,1-.06-.18Zm.06,1.76a.15.15,0,0,1,.05-.13.16.16,0,0,1,.13-.06h.64a.15.15,0,0,1,.13.06.22.22,0,0,1,0,.14v6.25c0,.13-.06.2-.18.2h-.64c-.12,0-.18-.07-.18-.2Z"/><path class="cls-1" d="M110.75,58a2.94,2.94,0,0,1,.21-1.12,2.75,2.75,0,0,1,.6-.88,2.63,2.63,0,0,1,.9-.58,2.89,2.89,0,0,1,1.11-.21,2.41,2.41,0,0,1,1.76.75,2.75,2.75,0,0,1,.56.91,3.19,3.19,0,0,1,.22,1.24v.53a.27.27,0,0,1-.09.24.32.32,0,0,1-.25.06h-4v.41a1.94,1.94,0,0,0,.15.78,1.9,1.9,0,0,0,.39.59,1.93,1.93,0,0,0,.59.38,1.87,1.87,0,0,0,.71.13,1.8,1.8,0,0,0,.76-.17,1.78,1.78,0,0,0,.62-.55c0-.06.08-.09.11-.09a.13.13,0,0,1,.09,0l.55.29a.2.2,0,0,1,.06.09.25.25,0,0,1,0,.16,2.73,2.73,0,0,1-.38.46,3.08,3.08,0,0,1-.5.37,3,3,0,0,1-.58.24,2.39,2.39,0,0,1-.66.09,3.17,3.17,0,0,1-1.11-.2,2.65,2.65,0,0,1-.9-.57,2.7,2.7,0,0,1-.6-.87,2.78,2.78,0,0,1-.22-1.13Zm1,.18h3.47V58a2.3,2.3,0,0,0-.1-.69,1.86,1.86,0,0,0-.29-.6,1.66,1.66,0,0,0-.51-.44,1.54,1.54,0,0,0-.73-.17,1.79,1.79,0,0,0-.75.15,1.73,1.73,0,0,0-1,1,2,2,0,0,0-.14.73Z"/><path class="cls-1" d="M121.52,57.32l1,3,.12.57.12-.58,1.59-4.75a.22.22,0,0,1,.09-.13.28.28,0,0,1,.12,0h.66a.17.17,0,0,1,.14.07.23.23,0,0,1,0,.2L123,61.83a.26.26,0,0,1-.08.13.28.28,0,0,1-.12,0h-.42a.28.28,0,0,1-.12,0,.17.17,0,0,1-.08-.13l-1-2.76L121,58.5l-.15.57-1,2.76a.22.22,0,0,1-.09.13.21.21,0,0,1-.11,0h-.44a.25.25,0,0,1-.11,0s-.06-.07-.08-.13l-2.28-6.2a.22.22,0,0,1,0-.21.19.19,0,0,1,.15-.08h.64a.28.28,0,0,1,.12,0,.2.2,0,0,1,.08.13l1.59,4.75.12.6.12-.6,1.6-4.75a.17.17,0,0,1,.08-.13.28.28,0,0,1,.12,0H122a.17.17,0,0,1,.14.07.23.23,0,0,1,0,.2Z"/><path class="cls-1" d="M129,57a2.79,2.79,0,0,1,.9-2.1,2.92,2.92,0,0,1,1-.6,3.42,3.42,0,0,1,1.21-.22,3.48,3.48,0,0,1,1.22.22,2.88,2.88,0,0,1,1,.6,2.76,2.76,0,0,1,.67.92,2.86,2.86,0,0,1,.24,1.18v2.19A2.78,2.78,0,0,1,135,60.4a2.66,2.66,0,0,1-.67.92,3,3,0,0,1-1,.6,3.65,3.65,0,0,1-2.44,0,3.15,3.15,0,0,1-1-.6,2.79,2.79,0,0,1-.9-2.09Zm1,2.1a2.09,2.09,0,0,0,.61,1.48,2.2,2.2,0,0,0,2.31.42,2,2,0,0,0,.67-.42A2.1,2.1,0,0,0,134,60a2,2,0,0,0,.17-.82v-2a2,2,0,0,0-.62-1.48,2,2,0,0,0-.67-.42,2.18,2.18,0,0,0-1.64,0,2,2,0,0,0-.67.42,2.09,2.09,0,0,0-.61,1.48Z"/><path class="cls-1" d="M137,56.27h-.83a.28.28,0,0,1-.13,0,.14.14,0,0,1-.05-.13v-.58a.14.14,0,0,1,.05-.13.2.2,0,0,1,.13,0H137v0a4.07,4.07,0,0,1,.11-1,1.54,1.54,0,0,1,.37-.68,1.4,1.4,0,0,1,.68-.36,2.81,2.81,0,0,1,1,0,.26.26,0,0,1,.19.08.27.27,0,0,1,0,.16v.39a.2.2,0,0,1-.06.15.17.17,0,0,1-.18,0,1.7,1.7,0,0,0-.56,0,.6.6,0,0,0-.36.21.92.92,0,0,0-.19.41,2.77,2.77,0,0,0-.06.62h1.18a.19.19,0,0,1,.13,0,.14.14,0,0,1,.06.12v.58a.15.15,0,0,1-.06.13.25.25,0,0,1-.13,0H138V61.8a.21.21,0,0,1,0,.14.16.16,0,0,1-.13.05h-.66c-.11,0-.17-.06-.17-.19Z"/><path class="cls-1" d="M143.12,60.61c-.09-.17-.08-.28,0-.33l.51-.28a.19.19,0,0,1,.13,0,.29.29,0,0,1,.14.15,1.61,1.61,0,0,0,.29.41,2,2,0,0,0,.42.34,2.5,2.5,0,0,0,.53.23,1.89,1.89,0,0,0,.58.08,2.37,2.37,0,0,0,.61-.07,1.53,1.53,0,0,0,.5-.23,1.24,1.24,0,0,0,.34-.38,1.07,1.07,0,0,0,.12-.51,1.05,1.05,0,0,0-.15-.57,1.55,1.55,0,0,0-.42-.43,3.47,3.47,0,0,0-.64-.34c-.24-.11-.51-.22-.8-.33a5.67,5.67,0,0,1-.89-.45,3,3,0,0,1-.63-.5,1.86,1.86,0,0,1-.38-.59,1.94,1.94,0,0,1-.12-.7,1.81,1.81,0,0,1,.2-.85,1.77,1.77,0,0,1,.53-.62,2.52,2.52,0,0,1,.79-.38,3.56,3.56,0,0,1,.94-.13,3.07,3.07,0,0,1,1.45.33,2.34,2.34,0,0,1,1,1,.25.25,0,0,1,.05.18.14.14,0,0,1-.09.13l-.45.23a.21.21,0,0,1-.29-.11,1.53,1.53,0,0,0-.61-.6,2,2,0,0,0-1-.22,3.26,3.26,0,0,0-.52.05,1.54,1.54,0,0,0-.48.18,1,1,0,0,0-.36.32.86.86,0,0,0-.14.52,1,1,0,0,0,.1.47,1.34,1.34,0,0,0,.32.36,2.44,2.44,0,0,0,.49.31c.19.09.4.18.65.27s.67.28,1,.42a3.71,3.71,0,0,1,.78.49,2.06,2.06,0,0,1,.52.66,1.86,1.86,0,0,1,.19.89,1.95,1.95,0,0,1-.73,1.57,2.59,2.59,0,0,1-.81.42,3.42,3.42,0,0,1-1,.15,2.85,2.85,0,0,1-.82-.11,3.09,3.09,0,0,1-.75-.3,2.93,2.93,0,0,1-.62-.48A2.79,2.79,0,0,1,143.12,60.61Z"/><path class="cls-1" d="M149.46,58a2.79,2.79,0,0,1,.21-1.09,2.51,2.51,0,0,1,.58-.87,2.65,2.65,0,0,1,.88-.58,2.58,2.58,0,0,1,1.08-.22,2.75,2.75,0,0,1,2.56,1.67A2.82,2.82,0,0,1,155,58v1.41a2.79,2.79,0,0,1-.21,1.09,2.83,2.83,0,0,1-.59.88,2.82,2.82,0,0,1-2,.78,2.75,2.75,0,0,1-1.09-.21,2.78,2.78,0,0,1-.88-.57,2.65,2.65,0,0,1-.58-.88,2.79,2.79,0,0,1-.21-1.09Zm1,1.43a1.94,1.94,0,0,0,.14.73,1.65,1.65,0,0,0,.37.58,1.73,1.73,0,0,0,.57.38,1.67,1.67,0,0,0,.71.14,1.7,1.7,0,0,0,.71-.14,1.73,1.73,0,0,0,.57-.38,1.85,1.85,0,0,0,.37-.58,1.94,1.94,0,0,0,.14-.73V58a2,2,0,0,0-.14-.74,1.88,1.88,0,0,0-.38-.58,1.59,1.59,0,0,0-.56-.38,1.91,1.91,0,0,0-.71-.14,1.83,1.83,0,0,0-.71.14,1.73,1.73,0,0,0-.57.38,1.85,1.85,0,0,0-.37.58,2,2,0,0,0-.14.74Z"/><path class="cls-1" d="M156.31,56.88a2.67,2.67,0,0,1,.59-.88,2.6,2.6,0,0,1,.87-.58,2.82,2.82,0,0,1,1.09-.21,2,2,0,0,1,.64.1,2.55,2.55,0,0,1,.59.25,2.69,2.69,0,0,1,.5.39,2.46,2.46,0,0,1,.37.48.35.35,0,0,1,0,.17.1.1,0,0,1-.06.08l-.52.26a.12.12,0,0,1-.1,0,.17.17,0,0,1-.11-.1,1.61,1.61,0,0,0-.59-.54,1.54,1.54,0,0,0-.77-.21,1.83,1.83,0,0,0-.71.14,1.61,1.61,0,0,0-.57.39,1.84,1.84,0,0,0-.37.6,2.11,2.11,0,0,0-.14.77v1.32a2.22,2.22,0,0,0,.14.79,1.86,1.86,0,0,0,.38.6,1.79,1.79,0,0,0,.56.38,1.87,1.87,0,0,0,.71.13,1.47,1.47,0,0,0,.76-.2,1.66,1.66,0,0,0,.6-.55c0-.06.08-.09.11-.09a.12.12,0,0,1,.1,0l.52.26a.22.22,0,0,1,.05.08.22.22,0,0,1,0,.16,2.18,2.18,0,0,1-.37.49,2.69,2.69,0,0,1-.5.39,2.55,2.55,0,0,1-.59.25,2.37,2.37,0,0,1-.65.09,3,3,0,0,1-1.08-.2,2.71,2.71,0,0,1-.87-.58,2.53,2.53,0,0,1-.59-.87,2.94,2.94,0,0,1-.21-1.12V58A2.89,2.89,0,0,1,156.31,56.88Z"/><path class="cls-1" d="M162.42,53.77a.32.32,0,0,1,.05-.18.22.22,0,0,1,.19-.07h.65c.15,0,.22.09.22.25v.6a.26.26,0,0,1-.05.18.29.29,0,0,1-.17.05h-.64a.3.3,0,0,1-.18-.05.21.21,0,0,1-.07-.18Zm.06,1.76a.15.15,0,0,1,.05-.13.16.16,0,0,1,.13-.06h.64a.15.15,0,0,1,.13.06.17.17,0,0,1,0,.14v6.25c0,.13-.06.2-.18.2h-.64c-.12,0-.18-.07-.18-.2Z"/><path class="cls-1" d="M165,58a2.94,2.94,0,0,1,.21-1.12,2.75,2.75,0,0,1,.6-.88,2.63,2.63,0,0,1,.9-.58,2.89,2.89,0,0,1,1.11-.21,2.6,2.6,0,0,1,.95.19,2.51,2.51,0,0,1,.81.56,2.94,2.94,0,0,1,.57.91,3.39,3.39,0,0,1,.21,1.24v.53a.27.27,0,0,1-.09.24.32.32,0,0,1-.25.06h-4v.41a1.94,1.94,0,0,0,.15.78,1.79,1.79,0,0,0,1,1,1.87,1.87,0,0,0,.71.13,1.8,1.8,0,0,0,.76-.17,1.78,1.78,0,0,0,.62-.55c0-.06.08-.09.11-.09a.13.13,0,0,1,.09,0l.55.29a.15.15,0,0,1,.06.09.25.25,0,0,1-.05.16,2.73,2.73,0,0,1-.38.46,3.08,3.08,0,0,1-.5.37,3,3,0,0,1-.58.24,2.39,2.39,0,0,1-.66.09,3.17,3.17,0,0,1-1.11-.2,2.65,2.65,0,0,1-.9-.57,2.7,2.7,0,0,1-.6-.87,2.78,2.78,0,0,1-.22-1.13Zm1,.18h3.47V58a2.67,2.67,0,0,0-.09-.69,2.11,2.11,0,0,0-.3-.6,1.66,1.66,0,0,0-.51-.44,1.54,1.54,0,0,0-.73-.17,1.79,1.79,0,0,0-.75.15,1.73,1.73,0,0,0-1,1A2,2,0,0,0,166,58Z"/><path class="cls-1" d="M173.11,56.28V61.8c0,.13-.05.19-.17.19h-.65c-.12,0-.18-.06-.18-.19V56.28h-.82a.18.18,0,0,1-.13,0,.2.2,0,0,1,0-.14v-.59a.17.17,0,0,1,0-.12.21.21,0,0,1,.13,0h.82V54.19a.21.21,0,0,1,.19-.22l.56-.19a.22.22,0,0,1,.18,0,.21.21,0,0,1,.07.18v1.34h1.16a.19.19,0,0,1,.13,0,.13.13,0,0,1,0,.12v.59a.16.16,0,0,1,0,.14.18.18,0,0,1-.13,0Z"/><path class="cls-1" d="M177.54,64.09a.19.19,0,0,1-.09.13.28.28,0,0,1-.12,0h-.55a.24.24,0,0,1-.19-.08.25.25,0,0,1,0-.24l.74-2L175,55.64c0-.1,0-.17,0-.22a.2.2,0,0,1,.16-.07h.66a.19.19,0,0,1,.12,0,.26.26,0,0,1,.08.13l1.68,4.69.15.72.15-.72,1.67-4.71a.15.15,0,0,1,.08-.12l.12,0h.69a.14.14,0,0,1,.13.07.23.23,0,0,1,0,.2Z"/><path class="cls-2" d="M51.32,17.42a27.5,27.5,0,0,0-5-9,23.92,23.92,0,0,0-8-6.16A24.22,24.22,0,0,0,27.68,0,28.57,28.57,0,0,0,16.81,2.05,26.32,26.32,0,0,0,2.14,16.59,28.59,28.59,0,0,0,0,27.79V42.6A28.51,28.51,0,0,0,2.22,54.09a26,26,0,0,0,14.9,14.25,29.92,29.92,0,0,0,10.84,2,23.13,23.13,0,0,0,6-.81,26.06,26.06,0,0,0,5.71-2.27,27,27,0,0,0,5-3.5,23.83,23.83,0,0,0,4-4.46c.48-.74.62-1.3.41-1.67a3.54,3.54,0,0,0-.52-.77l-.06-.06a.92.92,0,0,0-.83-.19c-.37,0-.76.38-1.17,1A22.56,22.56,0,0,1,38.14,65a23,23,0,0,1-10.4,2.41,25.83,25.83,0,0,1-9.4-1.72A23.52,23.52,0,0,1,5,52.92,25.37,25.37,0,0,1,3,42.6V27.74a25.21,25.21,0,0,1,1.94-10,23.82,23.82,0,0,1,5.3-7.83,24.08,24.08,0,0,1,7.85-5.1,25.15,25.15,0,0,1,9.59-1.83,20.68,20.68,0,0,1,9.49,2.11,21.51,21.51,0,0,1,7,5.6,24.91,24.91,0,0,1,4.35,8.07A30.39,30.39,0,0,1,50,28.24v2.12C46.1,26.65,37.77,20.21,27.45,20.21c-8.4,0-16.25,4.27-23.35,12.7a1.49,1.49,0,0,0,.09,2,34.91,34.91,0,0,0,23,8.51c7.08,0,15.54-2.08,25-8.32a1.55,1.55,0,0,0,.27-.24,1.28,1.28,0,0,0,.2-.11A1.42,1.42,0,0,0,53,33.67V28.24A33.83,33.83,0,0,0,51.32,17.42Zm-44,16.32c6.23-7,13-10.52,20.07-10.53h0C37.66,23.21,46,30.57,49,33.59,26.87,47.31,11.44,37.07,7.36,33.74Z"/><path class="cls-3" d="M27,40.29a8.41,8.41,0,1,1,8.41-8.41A8.42,8.42,0,0,1,27,40.29Zm0-13.81a5.4,5.4,0,1,0,5.4,5.4A5.4,5.4,0,0,0,27,26.48Z"/></g></g></svg>