<svg id="Camada_1" data-name="Camada 1" xmlns="http://www.w3.org/2000/svg" viewBox="0 0 384 128"><defs><style>.cls-1{fill:#37275d;}.cls-2{fill:#db1f1a;}.cls-3{fill:#7e6398;}.cls-4{fill:#c1bac8;}</style></defs><title>Prancheta 1</title><path class="cls-1" d="M43.11,61c-2.55-4.69-5-9.43-7.12-14.34a1.22,1.22,0,0,0-1.45-.85,5.15,5.15,0,0,1-3.46-.92,8.12,8.12,0,0,1,.93-.16c4.92-.28,7.37-2.75,7.54-7.63A11,11,0,0,1,39.72,36c1.83,3.16,1.37,5.67-1.7,8.91a131.13,131.13,0,0,0,6.42,12.86A9.8,9.8,0,0,0,46,60.6a49.66,49.66,0,0,0,3.55,6.19A130,130,0,0,0,60.46,82.42a9.58,9.58,0,0,0,1.82,2.35,81.61,81.61,0,0,0,12.19,12.6,27.66,27.66,0,0,0,8.27,5c4.14,1.46,6.83-.22,7.54-4.57a30.08,30.08,0,0,0-.56-10.94C87,73.51,81.36,61.3,74.81,49.45a21.77,21.77,0,0,1,.61-4.27C81.31,55.5,86.51,66.13,90,77.52c1.81,5.87,3.25,11.8,3.1,18a15.12,15.12,0,0,1-1.11,5.6c-1.68,4-5.54,5.37-10,3.77a34.13,34.13,0,0,1-10.47-6.61,114.15,114.15,0,0,1-10.68-11A9.89,9.89,0,0,0,59,85.08c-3.84-5.1-7.59-10.26-10.94-15.7-1.14-1.86-2.26-3.72-3.39-5.59Z"/><path class="cls-2" d="M62.28,84.76a9.58,9.58,0,0,1-1.82-2.35A108.17,108.17,0,0,0,73.67,27.24a12.67,12.67,0,0,0-.36-3.69A106.07,106.07,0,0,0,46,60.6a9.79,9.79,0,0,1-1.59-2.87A134.63,134.63,0,0,1,54,41.19c2.61-3.77,5.56-7.27,8.48-10.79l1.84-2c3.57-3.51,7.23-6.91,11.26-10.21a115.73,115.73,0,0,1-.19,27,21.76,21.76,0,0,0-.61,4.27c-1,4.12-1.84,8.29-3.05,12.36A132.53,132.53,0,0,1,62.28,84.76Z"/><path class="cls-1" d="M104.18,45.73c-.92,2.65-1.87,5.28-2.74,7.95a1.34,1.34,0,0,1-1.57,1.14c-1.53-.09-3.07,0-4.68,0L90.95,39.56h5.61l2,8.32c.95-2.72,1.76-4.95,2.49-7.21.28-.87.63-1.33,1.65-1.26,1.43.1,2.87,0,4.37,0l2.77,7.82.34,0,1.91-7.78h5.61l-4.21,15.29c-1.75,0-3.4-.06-5,0-.93,0-1-.6-1.21-1.17-.93-2.64-1.83-5.29-2.75-7.93Z"/><path class="cls-2" d="M43.11,61l1.58,2.82a110.08,110.08,0,0,0-6.6,21.45,96.31,96.31,0,0,0-2,22.6l-19.82,3.5c2.45-6.13,4.64-12.14,8-17.64a29.45,29.45,0,0,1,6.07-7.57,12.89,12.89,0,0,1,4.52-2.62A1.72,1.72,0,0,0,36.19,82,108.79,108.79,0,0,1,43.11,61ZM35,86.24C26.82,91.15,24,99.69,20.31,108l13.21-2.32A119.78,119.78,0,0,1,35,86.24Z"/><path class="cls-1" d="M298.91,46.59c.32.15.5.26.7.33,2.22.89,3.06,2,2.92,3.83a4.22,4.22,0,0,1-3.68,3.65c-4.6.79-9.23.19-13.94.43V39.42c4.44.15,8.85-.31,13.24.3A4,4,0,0,1,301.65,43C301.85,44.45,301,45.58,298.91,46.59Zm-8,4.91a22.85,22.85,0,0,0,4.15-.14c.78-.15,1.47-.51,1.48-1.41s-.67-1.25-1.47-1.38a16,16,0,0,0-4.16-.08Zm0-6.08c1.2,0,2.31.06,3.41,0,.78-.06,1.45-.43,1.44-1.38a1.25,1.25,0,0,0-1.34-1.29c-1.14-.08-2.3,0-3.51,0Z"/><path class="cls-2" d="M59,85.08a9.89,9.89,0,0,1,1.8,2.23c-.87,1.4-1.73,2.8-2.61,4.2a1.13,1.13,0,0,0-.16,1.3c1.82,3.4,1.87,7.08,1.33,10.75-1.15,7.88-4.47,15-7.69,22.45L40.19,109.57A101.9,101.9,0,0,0,59,85.08Zm-7.9,35.6a64.07,64.07,0,0,0,3.09-7.5c1.67-4.84,3.19-9.71,2.77-14.94a7.83,7.83,0,0,0-.91-3.43,105.06,105.06,0,0,1-12.52,15.1Z"/><path class="cls-1" d="M64.35,28.41l-1.84,2C57.3,23.22,51.61,16.47,44.59,11a21.72,21.72,0,0,0-7.21-4c-3.73-1.1-6.12.25-7,4.06a24.26,24.26,0,0,0-.12,8.58A78.42,78.42,0,0,0,33.4,32.92l-2.35,1a66.39,66.39,0,0,1-3.72-17.56,18.12,18.12,0,0,1,.75-6.78c1.55-4.71,5-6.55,9.83-5.18a24.69,24.69,0,0,1,8.46,4.65c6.56,5.19,12,11.47,17,18.09Z"/><path class="cls-1" d="M172.16,39.53v5.4a10.1,10.1,0,0,1,4.72-1.46c3.14.05,4.63,1.37,4.73,4.51.07,2.22,0,4.45,0,6.75h-5.38c0-1.76,0-3.5,0-5.23,0-1.27,0-2.56-1.77-2.65-1.42-.07-2.18.82-2.24,2.68,0,1.69,0,3.39,0,5.18H167V39.53Z"/><path class="cls-1" d="M335,43.74h5.38c0,2,0,4.09,0,6.14,0,.86.29,1.58,1.3,1.72a2.07,2.07,0,0,0,2.25-.84,3.6,3.6,0,0,0,.4-2c0-1.64,0-3.29,0-5h5.26V54.7h-4.86l-.14-1.53A7.22,7.22,0,0,1,338.94,55c-2.46-.19-3.86-1.5-3.94-3.94S335,46.32,335,43.74Z"/><path class="cls-1" d="M326.45,47.25a2.27,2.27,0,0,0-3.48-.84c-1.18,1.15-2.3.73-3.51.66L317,46.92a3.49,3.49,0,0,1,3-3,19.66,19.66,0,0,1,8.55-.06c2.23.47,3.17,1.78,3.27,4.08s-.34,4.47.48,6.87c-1.91-.31-3.91.75-5.75-1A8.86,8.86,0,0,1,320.88,55a8.15,8.15,0,0,1-2.18-.42,2.92,2.92,0,0,1-2.21-2.8,2.73,2.73,0,0,1,2.27-2.73c1.74-.47,3.54-.71,5.31-1.08A5.88,5.88,0,0,0,326.45,47.25Zm0,2.33c-1.35.36-2.57.67-3.77,1a1,1,0,0,0-.78,1.05c.05.57.46.76,1,.9C324.86,53.1,326.47,51.86,326.45,49.58Z"/><path class="cls-1" d="M257.72,43.77h4.85l.23,1.53a7,7,0,0,1,5.72-1.8,3.75,3.75,0,0,1,3.79,3.91c.06,2.39,0,4.78,0,7.27h-5.38c0-2,0-3.88,0-5.78,0-1.17-.37-2-1.66-2.07a1.93,1.93,0,0,0-2.23,2c-.06,1.91,0,3.82,0,5.86h-5.33Z"/><path class="cls-1" d="M367.5,54.75H362.2c0-1.8,0-3.59,0-5.38,0-1.25-.11-2.42-1.72-2.54-1.38-.1-2.18.73-2.26,2.48s0,3.5,0,5.37H353V43.76h4.72l.22,1.58a7.18,7.18,0,0,1,5.83-1.83c2.14.2,3.55,1.35,3.69,3.47C367.63,49.51,367.5,52.06,367.5,54.75Z"/><path class="cls-1" d="M154.4,54.73h-5.22v-11h4.6c.44.35,0,.92.36,1.35.13,0,.31,0,.41-.11a6,6,0,0,1,3.13-1.46c4.22-.58,6.09,1.06,6.09,5.32,0,1.91,0,3.81,0,5.82h-5.4c0-1.71,0-3.5,0-5.28,0-1.24-.07-2.43-1.69-2.57-1.38-.12-2.2.71-2.27,2.44S154.4,52.87,154.4,54.73Z"/><path class="cls-1" d="M199.85,52c-.48.51-.77.88-1.12,1.19-2.71,2.39-9.68,2.56-12.51.33a5.35,5.35,0,0,1,1.42-9.31,12.32,12.32,0,0,1,9,0c2.64,1,3.55,3.17,3.52,6H189.89c0,1.79,1.44,2.72,3.29,2.2C196.44,51.5,196.44,51.5,199.85,52Zm-10-3.81h4.79c-.05-1.58-1-2.14-2.34-2.18C190.65,46,190,46.62,189.81,48.22Z"/><path class="cls-1" d="M134.6,50.27H124.27c.27,1.8,1.78,3,3.32,2.08,2.22-1.26,4.34-.36,6.73-.5a5.65,5.65,0,0,1-3.79,2.8,16,16,0,0,1-7.29.06,5.53,5.53,0,0,1-4.55-4.9,5.27,5.27,0,0,1,3.87-5.71,12.66,12.66,0,0,1,8.31,0C133.65,45,134.87,47.11,134.6,50.27Zm-5.42-2A2.18,2.18,0,0,0,126.64,46a2.24,2.24,0,0,0-2.46,2.17Z"/><path class="cls-1" d="M247.28,43.49a9.34,9.34,0,0,1,4.78,1,5.15,5.15,0,0,1,3,4.55,4.88,4.88,0,0,1-2.81,4.81,10.59,10.59,0,0,1-10.38-.07c-3.63-2-3.69-6.6-.23-8.91A9.38,9.38,0,0,1,247.28,43.49Zm2.4,6c.06-1.85-.85-3-2.48-3a2.57,2.57,0,0,0-2.7,2.7,2.63,2.63,0,0,0,2.53,3A2.5,2.5,0,0,0,249.68,49.45Z"/><path class="cls-1" d="M222,43.89a2.46,2.46,0,0,1,.38-.17c5-.28,5-.28,6.78,4.42.25.64.5,1.28.77,1.92,0,.08.16.11.36.23.74-1.87,1.5-3.71,2.18-5.58a1.33,1.33,0,0,1,1.51-1c1.32.07,2.65,0,3.94,0,.37.55-.07.87-.25,1.2-1.53,2.92-3.13,5.8-4.61,8.74a2.14,2.14,0,0,1-1.94,1.21c-2.69.43-4.12-.68-5.14-3.11C224.84,49.05,223.33,46.54,222,43.89Z"/><path class="cls-3" d="M31.05,33.92l2.35-1c2.56.06,4.92.56,6.31,3a11,11,0,0,0-.15,1.09C39.4,41.94,37,44.41,32,44.69a8.12,8.12,0,0,0-.93.16,6.23,6.23,0,0,1-1.35-9.78C30.14,34.65,30.61,34.3,31.05,33.92Zm1.85,5.54a1.47,1.47,0,0,0,1.67-1.74,1.74,1.74,0,0,0-2-1.64A1.49,1.49,0,0,0,31,37.79C31,39,31.66,39.48,32.9,39.45Z"/><path class="cls-1" d="M202.74,43.76c.42,0,.68-.07.94-.07h3.74c.49.41.06,1,.48,1.41,1.53-2,3.46-1.92,5.72-1l-1.5,2.81c-.33.23-.63.08-.95,0a2.23,2.23,0,0,0-2.87,2c-.44,1.89-.16,3.81-.31,5.83a34.73,34.73,0,0,1-5.25.06Z"/><path class="cls-1" d="M142.48,45c1.69-1.93,3.56-1.73,5.66-1L146.59,47c-3-.33-3.8.33-3.92,3.3-.06,1.43,0,2.86,0,4.53h-5.29v-11C140.91,43.28,142,43.5,142.48,45Z"/><path class="cls-1" d="M310.71,54.73h-5.33v-11c1.37,0,2.74,0,4.11,0,1.06,0,.84.71.88,1.51.87-.84,1.58-1.64,2.73-1.68a6,6,0,0,1,3.11.59l-1.54,2.86c-3.06-.28-3.88.44-4,3.46C310.68,51.78,310.71,53.16,310.71,54.73Z"/><path class="cls-1" d="M164.88,56.32V67.56c-1.09-.23-2.37.73-3.16-.76-1.77,1.29-3.38,1.36-4.61.14a5.66,5.66,0,0,1-.58-6.25c1-1.59,2.66-1.89,5.1-.86v-3.5Zm-3.19,7.3c0-.93-.1-1.92-1.29-2s-1.33.85-1.35,1.74.07,1.92,1.28,2S161.63,64.52,161.69,63.62Z"/><path class="cls-1" d="M219.09,60.13c.76-1.41,2-.59,3.28-.8V70.63h-3.2V67.19c-2.87.91-4.36.59-5.33-1.06s-.65-4.85.74-6.11S217.28,58.91,219.09,60.13Zm.08,3.42c-.07-1-.27-2-1.41-2s-1.28,1-1.28,1.86,0,1.82,1.18,1.9S219,64.42,219.17,63.55Z"/><path class="cls-1" d="M182.8,70.79V59.47c1.11,0,2.3-.71,3.2.6,1.9-1.16,3.41-1.18,4.59,0a5.73,5.73,0,0,1,.66,6.12c-1,1.64-2.45,1.94-5.25,1v3.35C184.94,70.92,183.94,70.61,182.8,70.79Zm5.84-7.27c-.07-.92-.13-2-1.35-1.94-1.05,0-1.32.94-1.32,1.84s.19,1.89,1.39,1.91S188.51,64.34,188.63,63.51Z"/><path class="cls-1" d="M343.68,60.15V56.63h3.2V67.85c-1.14-.08-2.28.58-3.19-.57-2.28,1.17-3.68,1.11-4.83-.23a5.76,5.76,0,0,1-.31-6.15C339.63,59.38,341,59.15,343.68,60.15ZM341,63.85c.06.93.16,1.88,1.31,1.85s1.35-1,1.35-2-.32-1.79-1.36-1.8C341,61.93,341.08,63,341,63.85Z"/><path class="cls-1" d="M115.67,67.5v-8c1.14-.07,2.31-.64,3.32.66a11.38,11.38,0,0,1,1.14-.66c2-.93,4,.06,4.21,2.28.17,1.88,0,3.8,0,5.76h-3.17c0-1.48,0-2.91,0-4.33,0-.69-.1-1.45-1.08-1.46s-1.16.66-1.18,1.39c0,1.42,0,2.85,0,4.37Z"/><path class="cls-1" d="M311.91,67.55c0-1.58,0-3,0-4.44,0-.64-.14-1.33-1-1.37s-1.22.57-1.24,1.33c0,1.43,0,2.86,0,4.34a10.45,10.45,0,0,1-3.23.16V59.38c1.14.2,2.44-.79,3.18.87a10.69,10.69,0,0,1,1-.69c2.19-1.12,4.29,0,4.46,2.44.13,1.8,0,3.61,0,5.44A11.19,11.19,0,0,1,311.91,67.55Z"/><path class="cls-1" d="M325.89,62.06c-1.28-.1-2.48.93-3.62-.45-.45-.54-1.48-.34-2,.36a2.47,2.47,0,0,0,0,3.11c.52.69,1.54.88,2,.29,1.12-1.51,2.45-.68,3.8-.69-.37,1.82-1.6,2.61-3.29,3.08.77,1.09,1.31,2.19-.3,2.92-1.44.66-3.24.27-3.61-.75.86-.42,2,.43,2.77-.55-.37-1-1.25-.37-1.92-.71.23-.69,0-1.06-.8-1.38a3.79,3.79,0,0,1-2.3-4.15,4,4,0,0,1,3.1-3.79C322.56,58.6,325,59.57,325.89,62.06Z"/><path class="cls-1" d="M301.36,61.95a1.15,1.15,0,0,0-1.92-.65c-1.22,1.26-2.46.34-3.66.47,0-.18-.06-.23,0-.28.68-2,2.51-2.69,5.94-2.25,2,.25,2.78,1.2,2.84,3.36,0,1.59,0,3.18,0,4.9-1,0-2.17.56-3.16-.64a4.85,4.85,0,0,1-3.73.9,2.38,2.38,0,0,1-2.21-2.17c-.14-1.34.68-2,1.85-2.43C298.61,62.7,300.1,62.75,301.36,61.95Zm0,1.75c-1,.53-2.41.21-2.69,1.55-.11.52.47.75,1,.71C300.92,65.86,301.39,65.13,301.37,63.7Z"/><path class="cls-1" d="M224.31,59.41a9.82,9.82,0,0,1,3.15.07c0,1.47,0,2.9,0,4.32,0,.72.06,1.47,1,1.46s1.19-.68,1.21-1.4c.06-1.43,0-2.86,0-4.33a9.63,9.63,0,0,1,3.13-.17v8.21c-1.1-.23-2.42.75-3.14-.86a4.34,4.34,0,0,1-2.65,1.1,2.44,2.44,0,0,1-2.72-2.32C224.22,63.5,224.31,61.49,224.31,59.41Z"/><path class="cls-1" d="M333.17,62.26a1.17,1.17,0,0,0-1.93-.65c-1.22,1.29-2.46.39-3.72.43a2.46,2.46,0,0,1,2-2.27,9.87,9.87,0,0,1,4.58-.07,2.71,2.71,0,0,1,2.21,2.91,26.22,26.22,0,0,0,.26,5.3c-1.18-.2-2.48.6-3.35-.77a4.88,4.88,0,0,1-4.08.86,2.28,2.28,0,0,1-1.91-2.25,2.19,2.19,0,0,1,1.7-2.23C330.3,63,331.86,63.1,333.17,62.26Zm-.12,1.8c-.92.55-2.39.07-2.51,1.6,0,.65.58.67,1.07.61C332.77,66.12,333.27,65.46,333,64.06Z"/><path class="cls-1" d="M357.7,68c-1.13-.32-2.32.53-3.19-.68-.24-.33-.53.16-.78.28a4.76,4.76,0,0,1-3.4.43,2.25,2.25,0,0,1-1.89-2.25,2.09,2.09,0,0,1,1.7-2.2c.81-.24,1.66-.36,2.47-.62.58-.19,1.31-.08,1.7-.77a1.06,1.06,0,0,0-1.75-.59c-1.19,1.18-2.43.57-3.73.46,0-.17-.07-.33,0-.45.74-1.82,3-2.56,6.12-2,1.82.33,2.53,1.27,2.56,3.42,0,.8,0,1.6,0,2.39S357.62,67,357.7,68Zm-3.52-3.9c-.87.58-2.28.09-2.46,1.53-.09.7.63.75,1.17.66C354,66.07,354.49,65.41,354.18,64.06Z"/><path class="cls-1" d="M275.41,61.74c.69-2.25,2.68-3,6.07-2.49,1.87.29,2.64,1.25,2.69,3.32a21.33,21.33,0,0,0,.25,4.9c-2.46.3-2.46.3-3.35-.63a4.79,4.79,0,0,1-3.76.92,2.31,2.31,0,0,1-2.17-2.18c-.11-1.36.67-2,1.85-2.43,1.32-.45,2.82-.37,4.07-1.21a1.14,1.14,0,0,0-1.84-.68C278,62.49,276.78,61.75,275.41,61.74Zm5.51,2c-1,.49-2.37.06-2.51,1.55-.06.62.57.67,1.06.62C280.63,65.82,281.13,65.18,280.92,63.78Z"/><path class="cls-1" d="M255.45,66.84a4.76,4.76,0,0,1-3.93.86,2.26,2.26,0,0,1-2-2.17,2.19,2.19,0,0,1,1.73-2.35c1.34-.48,2.83-.43,4.14-1.2a1.1,1.1,0,0,0-1.83-.72c-1.21,1.26-2.45.47-3.7.46.44-2.16,1.87-2.79,5.56-2.51,2,.15,3,1.07,3.12,2.91s-.21,3.5.31,5.38C257.65,67.5,256.41,68.12,255.45,66.84Zm-.17-3.11c-.87.59-2.27.09-2.48,1.53-.1.72.61.76,1.15.68C255.11,65.76,255.56,65.08,255.28,63.73Z"/><path class="cls-1" d="M114.17,64.33H108c.31,1.32,1.11,2,2.08,1.41,1.27-.75,2.45-.29,3.71-.39-.63,2.05-3,3-5.86,2.29a4.13,4.13,0,0,1-3.19-4.8c.37-2.58,2.43-3.91,5.61-3.63C112.89,59.44,114.24,61.13,114.17,64.33Zm-3.26-1.65c-.18-1-.52-1.59-1.44-1.55a1.35,1.35,0,0,0-1.42,1.55Z"/><path class="cls-1" d="M169.71,64.24c.37,1.43,1.18,2.07,2.15,1.49,1.27-.76,2.43-.33,3.69-.33-.75,2.07-3.24,2.93-6.06,2.17a4.12,4.12,0,0,1-3-4.93c.49-2.5,2.5-3.73,5.61-3.44,2.58.24,3.91,1.94,3.83,5Zm3-1.55c-.24-1.06-.65-1.69-1.65-1.56a1.28,1.28,0,0,0-1.22,1.56Z"/><path class="cls-1" d="M202.25,65.4a5.53,5.53,0,0,1-7,2,4.31,4.31,0,0,1-2.1-5.15c.67-2.31,2.82-3.41,5.78-3,2.38.35,3.6,2,3.56,5h-6.22c.26,1.4,1,2.12,2.12,1.5C199.65,65,200.81,65.42,202.25,65.4Zm-6-2.72h2.88c0-.91-.34-1.51-1.26-1.56S196.43,61.64,196.24,62.68Z"/><path class="cls-1" d="M144.67,59.19c2.88,0,4.74,1.64,4.76,4.21s-1.92,4.42-4.78,4.41-4.73-1.83-4.72-4.33S141.88,59.2,144.67,59.19Zm1.58,4.26c-.13-.94-.24-2-1.53-2s-1.53,1-1.54,2,.19,2.17,1.58,2.12S146.15,64.47,146.25,63.45Z"/><path class="cls-1" d="M362,61.72c.74,1,1.73.79,2.56,1,1.92.39,3,1.21,3,2.53s-1.12,2.52-3,2.81a6.75,6.75,0,0,1-4.51-.53A2,2,0,0,1,359,65.65c1.29,0,2.62-.85,3.82.52a1.07,1.07,0,0,0,1.65-.33c.35-.89-.53-.81-1-.94-.82-.21-1.66-.36-2.47-.6a2.24,2.24,0,0,1-1.74-2.21,2.19,2.19,0,0,1,1.55-2.2,7.24,7.24,0,0,1,4.85-.05,2.25,2.25,0,0,1,1.6,1.88c-1.23-.08-2.47.76-3.62-.37C363.15,60.94,362.59,61.26,362,61.72Z"/><path class="cls-1" d="M268.23,61.39c-1.24,0-2.47.74-3.62-.37-.39-.37-1-.15-1.34.36,0,.49.31.65.71.71l1.89.31c1.8.32,2.8,1.22,2.81,2.53s-1,2.31-2.68,2.71c-2.86.68-5.11-.12-6-2.27,1.3.05,2.59-1,3.75.43.25.31.8.22,1.22.16a.71.71,0,0,0,.69-.55c.09-.48-.25-.65-.64-.74-1-.23-2-.41-2.94-.68a2.3,2.3,0,0,1-.08-4.46,7.45,7.45,0,0,1,4.55-.07A2.2,2.2,0,0,1,268.23,61.39Z"/><path class="cls-1" d="M206.56,61.38c.75,1,1.75.81,2.58,1,2,.4,3,1.17,3,2.53s-1.13,2.54-3.1,2.86c-2.82.46-4.71-.29-5.59-2.37,1.3,0,2.51-1,3.77.41a1.27,1.27,0,0,0,2-.56c-.67-.82-1.65-.69-2.48-.91a5.72,5.72,0,0,1-2.09-.74,2.32,2.32,0,0,1-.31-3.39c1.66-1.77,6.19-1.15,7.44,1.15-1.29,0-2.49.8-3.69-.32C207.7,60.62,207.15,61,206.56,61.38Z"/><path class="cls-1" d="M248,61.39c-1.29,0-2.51.77-3.66-.36-.41-.4-1-.12-1.42.26-.06.71.46.73.93.82a18.57,18.57,0,0,1,2.94.66,2.24,2.24,0,0,1,1.18,3.4c-1.17,1.8-3.07,1.69-4.88,1.6-1.54-.08-2.93-.54-3.49-2.41,1.36,0,2.59-.9,3.84.43a1.27,1.27,0,0,0,2-.53c-.54-.86-1.45-.64-2.16-.9s-1.37-.27-2-.55a2.19,2.19,0,0,1-.93-3.35c1.29-1.61,3.15-1.31,4.88-1.22A2.83,2.83,0,0,1,248,61.39Z"/><path class="cls-1" d="M103.5,64.69c-.7,2.44-2.63,3.49-5.56,3.08-2.45-.34-3.81-1.78-3.86-4.09a4.08,4.08,0,0,1,3.5-4.43c2.94-.52,4.93.41,5.76,2.75-1.24,0-2.44.93-3.65-.42-.5-.56-1.57-.26-2,.56a2.45,2.45,0,0,0,.15,3c.54.65,1.56.84,2,.24C100.9,63.8,102.22,64.74,103.5,64.69Z"/><path class="cls-1" d="M130.08,59.22l1.62.2a7.08,7.08,0,0,1,.12,2.21l-1.48.16c-.61,2.8-.34,3.6,1.31,3.74a4.43,4.43,0,0,1,.19,1.91,4.78,4.78,0,0,1-2.78.35A2.08,2.08,0,0,1,127,65.59c0-1,0-1.91-.08-2.87,0-.39.14-.84-.49-1-1.31-.34-.8-1.79-.56-2,1.27-1.17,1.81-3.3,4.21-3.1Z"/><path class="cls-1" d="M285.2,59.55c.22-.12.27-.16.31-.17,2.89-.24,2.89-.24,3.71,2.46l.71,2.29a7.46,7.46,0,0,0,1-2.55c.83-2.56.82-2.57,3.87-2-1.09,2.56-2.11,5.1-3.26,7.59-.42.91-2.89.64-3.3-.32C287.22,64.42,286.23,62,285.2,59.55Z"/><path class="cls-1" d="M136.64,67.53h-3.19v-8c2.21-.38,2.45-.33,3,.68a2.34,2.34,0,0,1,3.36-.51c-.52.9-.34,2.28-2.12,2.12-.79-.07-1,.89-1,1.58C136.59,64.71,136.64,66,136.64,67.53Z"/><path class="cls-1" d="M238,67.51a9.48,9.48,0,0,1-3,0V59.42h3Z"/><path class="cls-1" d="M238.08,56.36v2h-3v-2Z"/><path class="cls-4" d="M32.9,39.45C31.66,39.48,31,39,31,37.79a1.49,1.49,0,0,1,1.63-1.71,1.74,1.74,0,0,1,2,1.64A1.47,1.47,0,0,1,32.9,39.45Z"/></svg>