<svg id="svg" version="1.1" xmlns="http://www.w3.org/2000/svg" xmlns:xlink="http://www.w3.org/1999/xlink" width="400" height="282.8462003628301" viewBox="0, 0, 400,282.8462003628301"><g id="svgg"><path id="path0" d="M102.917 103.829 C 72.466 106.656,57.635 142.443,77.328 165.574 C 99.288 191.366,141.078 177.447,143.510 143.530 C 145.119 121.109,125.323 101.749,102.917 103.829 M94.983 111.807 C 89.661 114.916,86.456 119.466,86.208 124.261 C 86.048 127.377,86.488 128.889,89.287 134.833 C 89.697 135.704,90.169 136.717,90.336 137.083 C 92.621 142.101,93.566 144.159,94.202 145.500 C 94.572 146.279,95.191 147.629,95.579 148.500 C 95.966 149.371,96.738 151.058,97.293 152.250 C 99.410 156.795,100.545 159.263,100.682 159.625 C 100.823 159.994,100.804 160.000,99.538 159.997 C 93.034 159.982,84.754 154.564,77.892 145.833 C 74.028 140.917,73.728 139.499,75.263 133.385 C 77.712 123.626,84.705 115.704,94.359 111.751 C 96.171 111.009,96.325 111.023,94.983 111.807 M120.410 113.150 C 125.471 114.929,132.580 122.420,135.214 128.750 C 140.351 141.093,137.514 155.279,128.147 164.083 C 126.238 165.878,123.669 167.897,124.346 167.070 C 128.368 162.161,134.224 149.055,135.069 143.074 C 136.554 132.559,132.503 124.164,124.805 121.800 L 123.583 121.425 108.375 121.373 C 99.856 121.344,93.167 121.258,93.167 121.176 C 93.167 120.221,97.107 117.039,99.882 115.753 C 105.262 113.260,116.623 111.819,120.410 113.150 M119.493 127.846 C 119.303 128.220,118.709 129.514,118.174 130.721 C 117.639 131.929,116.472 134.492,115.580 136.417 C 114.688 138.342,113.715 140.479,113.418 141.167 C 113.121 141.854,112.427 143.392,111.875 144.583 C 110.656 147.218,108.348 152.264,107.529 154.083 C 107.199 154.817,106.684 155.787,106.386 156.240 L 105.843 157.064 105.573 156.407 C 105.425 156.046,104.868 154.813,104.335 153.667 C 103.802 152.521,102.711 150.158,101.911 148.417 C 101.111 146.675,99.968 144.200,99.372 142.917 C 98.775 141.633,98.178 140.321,98.043 140.000 C 97.909 139.679,97.292 138.329,96.671 137.000 C 96.050 135.671,95.336 134.133,95.084 133.583 C 94.832 133.033,94.213 131.683,93.708 130.583 C 92.912 128.850,92.333 127.438,92.333 127.229 C 92.333 127.195,98.522 127.167,106.087 127.167 L 119.840 127.167 119.493 127.846 M127.372 130.377 C 129.781 134.080,130.182 140.240,128.406 146.275 C 126.682 152.135,122.616 159.570,116.071 168.833 C 113.726 172.153,113.467 172.338,110.583 172.763 C 97.332 174.719,83.735 167.689,77.722 155.772 C 76.488 153.326,76.514 153.314,78.627 155.351 C 88.181 164.561,98.458 167.984,105.917 164.439 C 109.022 162.964,111.148 160.373,113.253 155.500 C 113.550 154.813,114.483 152.750,115.326 150.917 C 117.180 146.887,116.963 147.361,119.674 141.417 C 120.886 138.758,122.213 135.833,122.622 134.917 C 123.031 134.000,123.740 132.462,124.197 131.500 C 124.654 130.537,125.143 129.469,125.282 129.125 L 125.536 128.500 126.170 129.003 C 126.519 129.279,127.060 129.898,127.372 130.377 " stroke="none" fill="#fc1c3b" fill-rule="evenodd"></path><path id="path1" d="M194.799 109.905 C 186.186 111.433,180.899 119.318,182.434 128.346 C 185.010 143.498,206.563 145.300,211.854 130.805 C 216.047 119.314,206.653 107.802,194.799 109.905 M150.500 110.259 C 150.500 110.310,151.016 111.528,151.646 112.967 C 152.276 114.406,153.320 116.821,153.965 118.333 C 154.611 119.846,155.492 121.908,155.923 122.917 C 156.354 123.925,157.101 125.688,157.582 126.833 C 158.064 127.979,159.301 130.867,160.332 133.250 C 161.363 135.633,162.470 138.248,162.791 139.060 L 163.376 140.536 163.980 140.436 C 166.145 140.078,167.206 139.147,168.195 136.739 C 168.531 135.920,169.287 134.125,169.876 132.750 C 170.464 131.375,171.377 129.237,171.904 128.000 C 172.432 126.763,173.408 124.475,174.074 122.917 C 174.740 121.358,175.795 118.883,176.417 117.417 C 177.039 115.950,177.958 113.813,178.459 112.667 C 178.960 111.521,179.407 110.490,179.452 110.375 C 179.519 110.209,176.565 110.167,165.018 110.167 C 157.033 110.167,150.500 110.208,150.500 110.259 M219.833 125.222 L 219.833 140.278 220.729 140.156 C 221.827 140.007,222.143 139.845,222.810 139.084 L 223.333 138.488 223.333 133.578 L 223.333 128.667 227.576 128.667 C 231.784 128.667,231.820 128.670,232.088 129.042 C 232.636 129.802,239.815 139.432,240.164 139.875 C 240.540 140.352,244.667 140.625,244.667 140.173 C 244.667 140.084,242.649 137.328,240.182 134.048 C 237.716 130.767,235.721 128.060,235.749 128.031 C 235.777 128.002,236.268 127.869,236.841 127.735 C 244.585 125.929,246.243 115.916,239.480 111.800 C 237.107 110.355,235.644 110.170,226.625 110.168 L 219.833 110.167 219.833 125.222 M248.333 111.833 L 248.333 113.500 253.333 113.500 L 258.333 113.500 258.333 126.901 L 258.333 140.302 259.042 140.218 C 260.069 140.097,261.193 139.501,261.625 138.850 L 262.000 138.284 262.000 125.892 L 262.000 113.500 267.000 113.500 L 272.000 113.500 272.000 111.833 L 272.000 110.167 260.167 110.167 L 248.333 110.167 248.333 111.833 M278.167 125.250 L 278.167 140.333 287.477 140.333 C 296.970 140.333,298.222 140.264,298.993 139.694 C 299.504 139.316,300.156 138.069,300.162 137.458 L 300.167 137.000 291.000 137.000 L 281.833 137.000 281.833 131.833 L 281.833 126.667 290.000 126.667 L 298.167 126.667 298.167 125.083 L 298.167 123.500 290.000 123.500 L 281.833 123.500 281.833 118.417 L 281.833 113.333 290.917 113.333 L 300.000 113.333 300.000 111.750 L 300.000 110.167 289.083 110.167 L 278.167 110.167 278.167 125.250 M305.121 110.375 C 306.684 112.394,316.000 124.853,316.000 124.925 C 316.000 124.980,315.679 125.451,315.286 125.971 C 314.893 126.491,314.462 127.076,314.327 127.271 C 314.193 127.466,313.183 128.811,312.083 130.258 C 309.606 133.519,308.414 135.104,307.388 136.500 C 306.950 137.096,306.159 138.137,305.630 138.814 C 304.425 140.354,304.421 140.334,305.875 140.217 C 308.339 140.020,309.553 139.215,311.509 136.482 C 312.008 135.784,313.336 133.984,314.460 132.482 C 315.584 130.979,316.848 129.281,317.268 128.708 C 318.176 127.471,318.179 127.471,318.842 128.375 C 319.127 128.765,321.023 131.315,323.055 134.042 C 325.087 136.769,326.961 139.300,327.219 139.667 L 327.688 140.333 329.761 140.333 C 332.156 140.333,332.083 140.418,330.956 138.936 C 330.476 138.306,329.708 137.287,329.250 136.673 C 328.792 136.059,327.517 134.369,326.417 132.918 C 325.317 131.467,324.305 130.123,324.169 129.932 C 324.033 129.740,323.126 128.528,322.153 127.238 L 320.385 124.892 320.788 124.404 C 321.009 124.136,321.354 123.680,321.554 123.391 C 321.753 123.101,322.597 121.976,323.428 120.891 C 324.259 119.805,326.352 117.042,328.079 114.750 C 329.806 112.458,331.292 110.490,331.380 110.375 C 331.507 110.211,331.095 110.167,329.438 110.167 L 327.335 110.167 326.834 110.875 C 326.559 111.265,325.964 112.071,325.513 112.667 C 325.061 113.263,324.051 114.612,323.269 115.667 C 322.486 116.721,321.316 118.296,320.668 119.167 C 320.020 120.037,319.222 121.111,318.895 121.553 L 318.300 122.356 316.525 119.983 C 315.549 118.677,314.412 117.149,314.000 116.587 C 313.587 116.025,312.329 114.350,311.204 112.866 L 309.159 110.167 307.059 110.167 C 305.404 110.167,304.993 110.211,305.121 110.375 M199.917 113.201 C 209.002 115.148,212.319 127.363,205.587 134.085 C 198.059 141.601,185.833 136.082,185.833 125.167 C 185.833 117.258,192.483 111.607,199.917 113.201 M173.636 115.042 C 173.266 115.890,172.862 116.867,172.737 117.213 C 172.613 117.560,171.941 119.210,171.243 120.880 C 170.546 122.550,169.444 125.192,168.796 126.750 C 168.147 128.308,167.141 130.714,166.560 132.097 C 165.978 133.479,165.402 134.898,165.280 135.251 L 165.058 135.892 164.451 134.404 C 162.735 130.198,161.571 127.388,159.073 121.417 C 158.498 120.042,157.842 118.429,157.616 117.833 C 157.390 117.237,156.896 116.043,156.519 115.180 C 156.142 114.316,155.833 113.585,155.833 113.555 C 155.833 113.525,159.990 113.500,165.071 113.500 L 174.308 113.500 173.636 115.042 M236.039 113.954 C 241.681 116.075,241.443 123.009,235.660 125.013 C 234.649 125.363,234.240 125.390,228.958 125.463 L 223.333 125.541 223.333 119.511 L 223.333 113.481 229.208 113.538 C 234.739 113.592,235.139 113.616,236.039 113.954 M243.000 158.667 L 243.000 172.500 243.542 172.496 C 245.010 172.486,246.033 171.566,246.135 170.164 L 246.206 169.175 246.978 170.034 C 251.501 175.069,260.031 173.192,262.248 166.673 C 264.140 161.111,262.105 155.560,257.333 153.265 L 255.917 152.583 253.575 152.583 L 251.233 152.583 249.911 153.236 C 248.929 153.722,248.278 154.205,247.378 155.117 L 246.167 156.344 246.167 150.589 L 246.167 144.833 244.583 144.833 L 243.000 144.833 243.000 158.667 M161.083 145.737 C 154.513 147.250,150.108 153.283,150.558 160.154 C 151.315 171.748,164.163 177.023,173.293 169.488 C 174.684 168.340,174.748 168.136,173.830 167.768 C 172.683 167.309,171.217 167.411,170.333 168.010 C 162.944 173.019,153.819 168.183,153.836 159.265 C 153.854 149.811,163.869 145.035,171.066 151.047 C 171.701 151.577,172.264 151.989,172.318 151.963 C 172.603 151.828,174.358 149.828,174.309 149.696 C 174.002 148.884,170.381 146.671,168.250 145.993 C 166.759 145.520,162.664 145.373,161.083 145.737 M200.333 159.167 L 200.333 172.500 208.375 172.500 C 215.698 172.500,216.469 172.473,216.997 172.208 C 217.651 171.880,218.326 170.825,218.331 170.125 L 218.333 169.667 210.917 169.667 L 203.500 169.667 203.500 157.750 L 203.500 145.833 201.917 145.833 L 200.333 145.833 200.333 159.167 M184.345 152.678 C 176.705 154.041,173.805 164.656,179.574 170.137 C 186.382 176.603,197.619 171.294,196.949 161.927 C 196.496 155.589,190.928 151.504,184.345 152.678 M227.750 152.676 C 226.304 152.794,224.961 153.153,223.292 153.868 C 222.361 154.267,222.391 154.126,222.931 155.538 C 223.425 156.831,223.347 156.799,224.702 156.249 C 228.767 154.597,232.957 155.244,234.425 157.750 C 235.015 158.755,235.240 161.094,234.734 160.946 C 226.903 158.656,220.631 161.395,220.869 167.000 C 221.114 172.765,229.497 175.102,234.189 170.713 L 235.000 169.954 235.000 171.250 L 235.000 172.545 235.772 172.440 C 236.783 172.301,237.649 171.750,237.936 171.063 C 238.214 170.398,238.263 160.797,237.998 158.964 C 237.308 154.190,234.008 152.165,227.750 152.676 M189.333 155.688 C 196.561 159.019,194.578 170.083,186.754 170.083 C 178.504 170.083,176.856 157.998,184.750 155.390 C 185.853 155.026,188.231 155.180,189.333 155.688 M255.679 155.787 C 262.060 158.842,260.697 169.397,253.832 170.092 C 248.245 170.658,244.365 164.794,246.753 159.393 C 248.307 155.880,252.410 154.223,255.679 155.787 M233.333 163.076 C 235.394 163.514,235.225 163.342,235.116 164.893 C 234.863 168.476,232.693 170.334,228.743 170.349 C 222.879 170.372,222.023 164.051,227.724 162.829 C 228.694 162.621,231.842 162.760,233.333 163.076 " stroke="none" fill="#040404" fill-rule="evenodd"></path><path id="path2" d="" stroke="none" fill="#1001020" fill-rule="evenodd"></path><path id="path3" d="" stroke="none" fill="#1001020" fill-rule="evenodd"></path><path id="path4" d="" stroke="none" fill="#1001020" fill-rule="evenodd"></path></g></svg>