<svg xmlns="http://www.w3.org/2000/svg" role="img" viewBox="-52.85 -52.85 2748.20 790.70"><style>svg {shape-rendering:geometricPrecision;text-rendering:geometricPrecision;image-rendering:optimizeQuality;fill-rule:evenodd;clip-rule:evenodd}</style><defs><mask id="id0"><linearGradient id="id1" x1="2054.18" x2="2309.3" y1="161.41" y2="415.04" gradientUnits="userSpaceOnUse"><stop offset="0" stop-color="#fff"/><stop offset="1" stop-color="#fff" stop-opacity="0"/></linearGradient><path fill="url(#id1)" d="M2143.84 318.17H2382.2200000000003V406.88H2143.84z"/></mask><mask id="id2"><linearGradient id="id3" x1="1644.7" x2="1899.82" y1="161.41" y2="415.04" gradientUnits="userSpaceOnUse"><stop offset="0" stop-color="#fff"/><stop offset="1" stop-color="#fff" stop-opacity="0"/></linearGradient><path fill="url(#id3)" d="M1734.36 318.17H1972.7399999999998V406.88H1734.36z"/></mask><mask id="id4"><linearGradient id="id5" x1="1234.94" x2="1491.14" y1="160.65" y2="414.27" gradientUnits="userSpaceOnUse"><stop offset="0" stop-color="#fff"/><stop offset="1" stop-color="#fff" stop-opacity="0"/></linearGradient><path fill="url(#id5)" d="M1324.88 317.61H1563.2600000000002V406.88H1324.88z"/></mask><linearGradient id="id6" x1="369" x2="233.33" y1="583.22" y2="194.42" gradientUnits="userSpaceOnUse"><stop offset="0" stop-color="#fe2b75"/><stop offset="1" stop-color="#ffdf55"/></linearGradient><style>.fil2{fill:#666}</style></defs><g id="Layer_x0020_1"><path fill="#22192c" d="M0 0H2644.27V686.83H0z"/><path fill="#fff" fill-rule="nonzero" d="M934.11 510.52c-21.72-.14-32.51-9.09-32.3-26.85l1.46-269.13 107.97 0-1.09 178.53 168.75-146.96c23.51-20.48 51.54-31.57 79.74-31.57l64.48 0-308.94 269.13c-20.49 17.76-41.6 26.71-63.49 26.85l-16.58 0zM1629.53 356.71c-7.66 13.53-19.73 25.02-36.17 34.53-15.82 9.58-31.38 14.44-46.55 14.44l-77.32 0 71.41 104.84-110.73 0c-25.72 0-44.76-9.11-55.6-26.59l-48.49-78.25 53.32-86.87 182.66.56 11.15-19.16-207.92 0-121.34 210.31-95.79 0 146.8-254.49c6.3-10.92 15.46-20.29 27.54-28.32 13.91-8.81 27.02-13.17 39.44-13.17l295.14 0c15.09 0 25.12 4.72 30.21 14.23 3.74 7.04 4.08 15.07.99 24.16-1.13 3.31-2.67 6.7-4.67 10.29l-54.08 93.49zM2039.01 356.71c-7.66 13.53-19.73 25.02-36.17 34.53-15.82 9.58-31.38 14.44-46.55 14.44l-77.32 0 71.41 104.84-110.73 0c-25.72 0-44.76-9.11-55.6-26.59l-48.49-78.25 49.75-86.31 186.23 0 11.15-19.16-207.92 0-121.34 210.31-95.79 0 146.8-254.49c6.3-10.92 15.46-20.29 27.54-28.32 13.91-8.81 27.02-13.17 39.44-13.17l295.14 0c15.09 0 25.12 4.72 30.22 14.23 3.73 7.04 4.07 15.07.98 24.16-1.13 3.31-2.67 6.7-4.67 10.29l-54.08 93.49zM2145.04 405.68l49.75-86.31 186.23 0 10.84-18.95-207.84 0-71.66 124.21 207.84 0 11.08-18.95-186.24 0zm210.53 91.8c-13.4 8.67-26.35 13.04-38.77 13.04l-349.68 0 138.34-239.73c19.13-33.16 58.79-56.26 96.61-56.26l285.53 0c11.63 0 19.32 3.95 23.12 11.98 2.7 5.92 2.81 12.55.27 20.01-1.03 3.03-2.5 6.2-4.33 9.51l-48.31 83.8c-13.24 12.3-29.54 21.71-46.72 26.93 6.87 1.58 11.67 5.25 14.42 11.08 2.12 4.65 2.65 9.74 1.54 15.34l-43.73 75.84c-6.28 10.85-15.72 20.36-28.29 28.46z"/><path d="M2194.79 319.37l-49.75 86.31 235.98 -86.31 -186.23 0z" class="fil2" mask="url(#id0)"/><path d="M1785.31 319.37l-49.75 86.31 235.98 -86.31 -186.23 0z" class="fil2" mask="url(#id2)"/><path d="M1379.4 318.81l-53.32 86.87 235.98 -86.31 -182.66 -0.56z" class="fil2" mask="url(#id4)"/><path fill="url(#id6)" d="M439.36 119.4l334.53 0c57.84,0 81.44,49.69 54.55,98.58l-31.35 56.99 -37.34 -0.13 -99.89 -0.64 -157.21 188.62c-5.26,6.33 -12.34,9.65 -20.57,9.67l-58 0.15c-8.28,0.02 -15.38,-3.14 -21.05,-9.17 -5.67,-6.03 -8.33,-13.31 -7.88,-21.57l6.04 -110.09 -103.86 0 34.78 -63.22c31.46,0 85.31,0.06 126.5,0.09 8.3,0 15.45,3.08 21.15,9.11 5.7,6.03 8.38,13.33 7.93,21.62l-4.83 88.05 133.9 -164.9c4.88,-6.01 12.34,-8.09 20.08,-8.02l165.6 1.45 5.2 -9.45c19.18,-34.87 4,-63.4 -33.75,-63.4l-334.53 0c-37.75,0 -84.32,28.53 -103.5,63.4l-154.45 280.74c-19.18,34.86 -4,63.39 33.75,63.39l334.54 0c37.74,0 84.31,-28.53 103.49,-63.39l100.67 -182.99 27.06 0.07 -106.93 194.36c-22.78,41.41 -76.71,75.69 -124.29,75.69l-334.54 0c-57.84,0 -81.44,-49.69 -54.55,-98.58l154.45 -280.74c22.78,-41.41 76.71,-75.69 124.3,-75.69z"/></g></svg>