<svg xmlns="http://www.w3.org/2000/svg" role="img" viewBox="-25.04 -28.04 1666.08 338.08"><path fill="#FEFFFE" d="M1092.000000,285.000000 C728.047852,285.000000 364.595673,285.000000 1.071759,285.000000 C1.071759,190.393677 1.071759,95.787285 1.071759,1.090447 C539.000000,1.090447 1077.000000,1.090447 1614.965332,1.090447 C1614.965332,95.737755 1614.965332,190.368881 1614.965332,285.000000 C1440.787231,285.000000 1266.643555,285.000000 1092.000000,285.000000 M396.666382,174.499908 C396.666382,207.555603 396.666382,240.611298 396.666382,273.599487 C407.852661,273.599487 418.231171,273.599487 429.075378,273.599487 C429.075378,242.994507 429.075378,212.789307 429.075378,182.443146 C429.848053,182.647659 430.217102,182.637054 430.416199,182.815765 C431.651062,183.923996 432.866272,185.055725 434.054291,186.214264 C453.314362,204.996780 476.460388,208.766602 501.125549,201.315536 C535.674622,190.878632 553.111572,164.946991 559.962463,130.956741 C564.230286,109.782616 563.671143,88.585632 558.020691,67.642181 C554.345581,54.020523 548.787048,41.330956 539.510559,30.469843 C525.601074,14.184332 507.522522,6.680983 486.583923,5.097410 C463.361115,3.341087 444.104218,10.897839 429.460724,29.357786 C428.749481,30.254387 427.775391,30.942448 425.863220,32.705265 C425.863220,23.999006 425.863220,16.769430 425.863220,9.372292 C415.871399,9.372292 406.485931,9.372292 396.666260,9.372292 C396.666260,64.296402 396.666260,118.898148 396.666382,174.499908 M593.534790,78.114616 C590.176025,96.305771 589.788147,114.553886 593.102173,132.763885 C598.707336,163.562927 614.671753,186.584549 644.356079,198.500702 C661.371826,205.331345 679.226807,206.323624 697.339966,204.057114 C727.343445,200.302704 748.931396,185.035538 761.406982,157.341614 C763.406982,152.901871 764.790833,148.184586 766.633728,143.116470 C756.517273,141.887527 747.248108,141.048141 738.094604,139.517426 C734.075134,138.845276 732.358398,139.555771 730.788757,143.517181 C724.996460,158.135071 715.966553,170.013031 700.282593,175.060379 C663.471191,186.906906 625.036804,162.704758 625.263123,113.907196 C672.486084,113.907196 719.714233,113.907196 766.898926,113.907196 C771.521118,55.122044 741.967712,11.783373 691.030579,6.444534 C643.370422,1.449175 603.543091,27.970379 593.534790,78.114616 M1463.899292,185.624344 C1466.872925,187.755005 1469.666260,190.213196 1472.848267,191.965515 C1503.471680,208.829956 1535.132812,209.915329 1566.692505,195.769150 C1589.037964,185.753174 1601.317749,166.660599 1607.822021,143.156601 C1596.410645,141.735184 1585.406006,140.364426 1574.687744,139.029327 C1572.301392,143.923920 1570.317261,148.509171 1567.896240,152.850815 C1563.001709,161.628052 1556.408081,168.910553 1547.058716,172.959473 C1527.980591,181.221436 1509.297729,180.074936 1492.060181,168.339630 C1473.180786,155.486557 1467.608276,135.864685 1466.038940,113.752304 C1513.946777,113.752304 1561.306519,113.752304 1609.290527,113.752304 C1608.814819,104.352745 1608.791016,95.514793 1607.839355,86.777901 C1605.705933,67.193237 1599.635254,49.005901 1586.313477,34.001640 C1565.550415,10.616297 1539.016357,3.145306 1508.754517,6.922179 C1477.051758,10.878877 1454.519531,27.701008 1441.773315,56.844284 C1431.173828,81.079292 1430.517578,106.612961 1434.673828,132.350342 C1438.045410,153.229645 1446.950195,171.275864 1463.899292,185.624344 M1269.084229,164.543762 C1271.654907,158.781662 1274.901733,153.219528 1276.675415,147.221741 C1283.203491,125.146004 1284.136475,102.522430 1280.514893,79.933830 C1275.632568,49.482018 1259.826782,26.497057 1231.223511,13.573863 C1214.608521,6.067042 1196.980103,4.397690 1178.993286,6.966426 C1146.861938,11.555209 1123.222656,27.724941 1110.994873,58.409401 C1102.007080,80.963776 1101.496094,104.538948 1104.691895,128.284454 C1107.140015,146.473831 1113.291626,163.206802 1125.742310,177.068634 C1144.680176,198.152924 1169.069946,206.141434 1196.621704,204.877853 C1226.957275,203.486603 1251.848633,191.402176 1269.084229,164.543762 M239.444885,39.963776 C236.441559,31.505131 233.176804,23.126858 230.541824,14.554986 C229.159836,10.059288 226.878067,8.629280 222.304642,8.966416 C216.504883,9.393950 210.649734,9.070069 204.818481,9.070163 C201.267044,9.070221 197.715607,9.070173 193.721680,9.070173 C194.176270,10.728195 194.325974,11.522957 194.608063,12.267554 C217.572830,72.884102 240.508667,133.511703 263.600250,194.079910 C265.358154,198.690872 265.869659,202.809021 263.828064,207.416153 C261.474335,212.727676 259.401489,218.186798 257.571411,223.702850 C252.317947,239.537216 239.600616,248.944382 219.168243,245.987823 C215.306549,245.429062 211.456848,244.787643 206.718887,244.046219 C207.954224,254.103195 209.066879,263.471039 210.322983,272.819611 C210.427353,273.596313 211.372742,274.640503 212.144165,274.889984 C223.802902,278.659668 235.630432,279.742249 247.448563,275.883667 C259.264282,272.025909 268.054047,263.916138 273.807983,253.334717 C280.535065,240.963669 286.700745,228.153824 291.696564,214.997635 C315.182312,153.149033 338.186035,91.117386 361.352325,29.147522 C363.765015,22.693598 366.114929,16.216200 368.743927,9.070194 C358.775574,9.070194 349.801208,9.221647 340.836456,8.993172 C337.410065,8.905846 335.939209,10.091185 334.779114,13.318711 C326.683319,35.842522 318.184479,58.221844 310.134766,80.761749 C301.918365,103.768562 294.038849,126.896080 286.085846,149.996231 C284.794281,153.747787 283.886597,157.631485 282.691193,161.842590 C268.153198,120.786652 253.968399,80.728195 239.444885,39.963776 M1066.134521,132.320251 C1062.560791,131.919159 1058.987061,131.518082 1055.323608,131.106934 C1054.781982,133.777481 1054.372925,136.055023 1053.854492,138.307358 C1050.210449,154.138931 1042.899536,167.358078 1027.145386,174.007111 C1002.238281,184.519119 967.594788,175.564987 958.001709,139.923203 C952.135925,118.129753 952.257202,96.072617 957.277466,74.130600 C959.775146,63.213940 964.964722,53.627888 973.427551,45.956070 C1000.798828,21.143173 1040.816040,32.028885 1051.440063,67.226288 C1051.811401,68.456421 1052.274536,69.658875 1052.742310,71.011223 C1063.255371,69.356247 1073.521606,67.740135 1084.048096,66.083038 C1078.333862,38.662037 1063.891846,19.317101 1037.410034,10.403830 C1023.341187,5.668570 1008.751709,4.720867 994.043884,6.979187 C963.551819,11.661113 940.366943,26.412331 929.127686,56.158413 C917.746460,86.280365 917.220093,117.157928 926.326355,147.890213 C933.381104,171.698669 948.678406,188.998199 971.824829,198.500977 C989.673462,205.828766 1008.326111,206.945679 1027.168457,202.955292 C1058.051147,196.415085 1082.614136,170.879028 1086.684326,135.149948 C1080.128296,134.283905 1073.563599,133.416702 1066.134521,132.320251 M103.307693,136.797150 C100.692375,144.699905 98.077057,152.602661 95.140396,161.476425 C94.400269,159.396301 94.008263,158.348160 93.652893,157.287750 C88.420502,141.674438 83.413757,125.981339 77.918266,110.461273 C66.535172,78.313721 54.916962,46.249207 43.285381,14.190477 C42.708664,12.600952 41.122391,10.220490 39.947891,10.185859 C29.353050,9.873456 18.745176,10.003129 7.412728,10.003129 C31.803722,74.016808 55.953060,137.396255 80.189064,201.003174 C88.824699,201.003174 97.313293,200.779861 105.780861,201.104599 C109.578094,201.250229 111.172913,200.021729 112.512039,196.467545 C135.388031,135.751984 158.429764,75.098854 181.424515,14.428018 C181.931061,13.091545 182.314728,11.708504 182.868942,9.997622 C172.426193,9.997622 162.437027,9.873645 152.458298,10.140301 C151.069260,10.177419 148.987457,11.864747 148.478409,13.248698 C133.431458,54.156761 118.543060,95.123146 103.307693,136.797150 M1400.250122,40.969799 C1404.519897,42.594891 1408.789795,44.219978 1413.304688,45.938354 C1416.982300,36.014946 1420.595947,26.263863 1424.235107,16.443810 C1412.308960,9.164844 1400.049316,4.682889 1386.458008,6.218231 C1367.853882,8.319837 1359.122070,22.673336 1349.563232,36.664783 C1349.563232,27.840385 1349.563232,19.015987 1349.563232,10.289502 C1339.446045,10.289502 1330.020630,10.289502 1320.552979,10.289502 C1320.552979,73.974213 1320.552979,137.362122 1320.552979,200.617859 C1331.445923,200.617859 1342.005371,200.617859 1352.776489,200.617859 C1352.776489,198.414856 1352.776489,196.596008 1352.776489,194.777161 C1352.776489,163.948334 1352.807129,133.119461 1352.762085,102.290703 C1352.742676,89.049408 1354.134766,76.007805 1358.195435,63.366158 C1364.144287,44.845966 1380.731934,35.837597 1400.250122,40.969799 M814.565430,9.998818 C812.127808,9.998818 809.690125,9.998818 807.267212,9.998818 C807.267212,73.973648 807.267212,137.335541 807.267212,200.770416 C818.027954,200.770416 828.459045,200.770416 839.370361,200.770416 C839.370361,198.762955 839.370361,196.979965 839.370361,195.196991 C839.370361,164.712677 839.313110,134.228226 839.396240,103.744141 C839.434082,89.877930 840.696411,76.136894 845.098328,62.870266 C850.424316,46.818417 863.664368,37.914772 880.328186,40.018456 C886.919006,40.850502 893.282410,43.484581 900.210693,45.427525 C903.642517,36.222382 907.280518,26.464245 911.019531,16.435324 C897.600220,8.416526 883.742004,3.410919 868.180603,7.162722 C852.155212,11.026418 844.902771,24.639925 835.977112,36.836605 C835.977112,27.971527 835.977112,19.106445 835.977112,9.998818 C828.836182,9.998818 822.191772,9.998818 814.565430,9.998818 z"/><path fill="#61C102" d="M396.666321,173.999908 C396.666260,118.898148 396.666260,64.296402 396.666260,9.372292 C406.485931,9.372292 415.871399,9.372292 425.863220,9.372292 C425.863220,16.769430 425.863220,23.999006 425.863220,32.705265 C427.775391,30.942448 428.749481,30.254387 429.460724,29.357786 C444.104218,10.897839 463.361115,3.341087 486.583923,5.097410 C507.522522,6.680983 525.601074,14.184332 539.510559,30.469843 C548.787048,41.330956 554.345581,54.020523 558.020691,67.642181 C563.671143,88.585632 564.230286,109.782616 559.962463,130.956741 C553.111572,164.946991 535.674622,190.878632 501.125549,201.315536 C476.460388,208.766602 453.314362,204.996780 434.054291,186.214264 C432.866272,185.055725 431.651062,183.923996 430.416199,182.815765 C430.217102,182.637054 429.848053,182.647659 429.075378,182.443146 C429.075378,212.789307 429.075378,242.994507 429.075378,273.599487 C418.231171,273.599487 407.852661,273.599487 396.666382,273.599487 C396.666382,240.611298 396.666382,207.555603 396.666321,173.999908 M472.950806,177.691010 C478.392426,177.236115 484.118195,177.714371 489.224731,176.159164 C507.876556,170.478714 519.452698,157.431061 524.934692,138.996567 C530.442505,120.475227 530.542114,101.540352 527.919983,82.573502 C526.310608,70.932030 522.784058,59.930660 515.677979,50.259041 C504.203064,34.641273 487.095825,27.169283 469.029907,31.513128 C452.163055,35.568665 441.012848,47.569214 433.814941,63.061474 C426.914276,77.913933 425.744202,93.902817 425.965820,109.931694 C426.131561,121.918427 427.375092,133.927017 432.091705,145.157532 C439.601746,163.039337 451.749176,175.399261 472.950806,177.691010 z"/><path fill="#61C002" d="M593.642517,77.703568 C603.543091,27.970379 643.370422,1.449175 691.030579,6.444534 C741.967712,11.783373 771.521118,55.122044 766.898926,113.907196 C719.714233,113.907196 672.486084,113.907196 625.263123,113.907196 C625.036804,162.704758 663.471191,186.906906 700.282593,175.060379 C715.966553,170.013031 724.996460,158.135071 730.788757,143.517181 C732.358398,139.555771 734.075134,138.845276 738.094604,139.517426 C747.248108,141.048141 756.517273,141.887527 766.633728,143.116470 C764.790833,148.184586 763.406982,152.901871 761.406982,157.341614 C748.931396,185.035538 727.343445,200.302704 697.339966,204.057114 C679.226807,206.323624 661.371826,205.331345 644.356079,198.500702 C614.671753,186.584549 598.707336,163.562927 593.102173,132.763885 C589.788147,114.553886 590.176025,96.305771 593.642517,77.703568 M690.500000,86.998871 C704.611328,86.998871 718.722656,86.998871 732.844666,86.998871 C731.762207,53.293098 708.406860,30.973221 676.681396,33.110924 C641.791931,35.461819 626.017517,65.937157 627.120544,86.998871 C647.900085,86.998871 668.700073,86.998871 690.500000,86.998871 z"/><path fill="#3B7302" d="M1463.630493,185.390366 C1446.950195,171.275864 1438.045410,153.229645 1434.673828,132.350342 C1430.517578,106.612961 1431.173828,81.079292 1441.773315,56.844284 C1454.519531,27.701008 1477.051758,10.878877 1508.754517,6.922179 C1539.016357,3.145306 1565.550415,10.616297 1586.313477,34.001640 C1599.635254,49.005901 1605.705933,67.193237 1607.839355,86.777901 C1608.791016,95.514793 1608.814819,104.352745 1609.290527,113.752304 C1561.306519,113.752304 1513.946777,113.752304 1466.038940,113.752304 C1467.608276,135.864685 1473.180786,155.486557 1492.060181,168.339630 C1509.297729,180.074936 1527.980591,181.221436 1547.058716,172.959473 C1556.408081,168.910553 1563.001709,161.628052 1567.896240,152.850815 C1570.317261,148.509171 1572.301392,143.923920 1574.687744,139.029327 C1585.406006,140.364426 1596.410645,141.735184 1607.822021,143.156601 C1601.317749,166.660599 1589.037964,185.753174 1566.692505,195.769150 C1535.132812,209.915329 1503.471680,208.829956 1472.848267,191.965515 C1469.666260,190.213196 1466.872925,187.755005 1463.630493,185.390366 M1519.648193,33.004532 C1487.024658,34.310909 1468.101196,61.496567 1468.348389,86.633194 C1503.691040,86.633194 1539.032715,86.633194 1574.394653,86.633194 C1572.293579,52.796593 1552.313110,33.008163 1519.648193,33.004532 z"/><path fill="#3C7302" d="M1268.912231,164.865585 C1251.848633,191.402176 1226.957275,203.486603 1196.621704,204.877853 C1169.069946,206.141434 1144.680176,198.152924 1125.742310,177.068634 C1113.291626,163.206802 1107.140015,146.473831 1104.691895,128.284454 C1101.496094,104.538948 1102.007080,80.963776 1110.994873,58.409401 C1123.222656,27.724941 1146.861938,11.555209 1178.993286,6.966426 C1196.980103,4.397690 1214.608521,6.067042 1231.223511,13.573863 C1259.826782,26.497057 1275.632568,49.482018 1280.514893,79.933830 C1284.136475,102.522430 1283.203491,125.146004 1276.675415,147.221741 C1274.901733,153.219528 1271.654907,158.781662 1268.912231,164.865585 M1244.144653,139.487747 C1250.503174,117.539032 1251.028564,95.446907 1244.888916,73.436043 C1238.399170,50.169971 1218.622803,33.978817 1196.415039,33.040070 C1171.223267,31.975180 1150.746582,44.615128 1142.420288,68.308548 C1133.534424,93.593948 1133.522339,119.509575 1143.208374,144.622681 C1152.914917,169.788559 1179.301514,183.010345 1205.406860,176.617020 C1224.963501,171.827469 1237.285889,158.932449 1244.144653,139.487747 z"/><path fill="#62C103" d="M239.614243,40.316753 C253.968399,80.728195 268.153198,120.786652 282.691193,161.842590 C283.886597,157.631485 284.794281,153.747787 286.085846,149.996231 C294.038849,126.896080 301.918365,103.768562 310.134766,80.761749 C318.184479,58.221844 326.683319,35.842522 334.779114,13.318711 C335.939209,10.091185 337.410065,8.905846 340.836456,8.993172 C349.801208,9.221647 358.775574,9.070194 368.743927,9.070194 C366.114929,16.216200 363.765015,22.693598 361.352325,29.147522 C338.186035,91.117386 315.182312,153.149033 291.696564,214.997635 C286.700745,228.153824 280.535065,240.963669 273.807983,253.334717 C268.054047,263.916138 259.264282,272.025909 247.448563,275.883667 C235.630432,279.742249 223.802902,278.659668 212.144165,274.889984 C211.372742,274.640503 210.427353,273.596313 210.322983,272.819611 C209.066879,263.471039 207.954224,254.103195 206.718887,244.046219 C211.456848,244.787643 215.306549,245.429062 219.168243,245.987823 C239.600616,248.944382 252.317947,239.537216 257.571411,223.702850 C259.401489,218.186798 261.474335,212.727676 263.828064,207.416153 C265.869659,202.809021 265.358154,198.690872 263.600250,194.079910 C240.508667,133.511703 217.572830,72.884102 194.608063,12.267554 C194.325974,11.522957 194.176270,10.728195 193.721680,9.070173 C197.715607,9.070173 201.267044,9.070221 204.818481,9.070163 C210.649734,9.070069 216.504883,9.393950 222.304642,8.966416 C226.878067,8.629280 229.159836,10.059288 230.541824,14.554986 C233.176804,23.126858 236.441559,31.505131 239.614243,40.316753 z"/><path fill="#3C7302" d="M1066.566650,132.434875 C1073.563599,133.416702 1080.128296,134.283905 1086.684326,135.149948 C1082.614136,170.879028 1058.051147,196.415085 1027.168457,202.955292 C1008.326111,206.945679 989.673462,205.828766 971.824829,198.500977 C948.678406,188.998199 933.381104,171.698669 926.326355,147.890213 C917.220093,117.157928 917.746460,86.280365 929.127686,56.158413 C940.366943,26.412331 963.551819,11.661113 994.043884,6.979187 C1008.751709,4.720867 1023.341187,5.668570 1037.410034,10.403830 C1063.891846,19.317101 1078.333862,38.662037 1084.048096,66.083038 C1073.521606,67.740135 1063.255371,69.356247 1052.742310,71.011223 C1052.274536,69.658875 1051.811401,68.456421 1051.440063,67.226288 C1040.816040,32.028885 1000.798828,21.143173 973.427551,45.956070 C964.964722,53.627888 959.775146,63.213940 957.277466,74.130600 C952.257202,96.072617 952.135925,118.129753 958.001709,139.923203 C967.594788,175.564987 1002.238281,184.519119 1027.145386,174.007111 C1042.899536,167.358078 1050.210449,154.138931 1053.854492,138.307358 C1054.372925,136.055023 1054.781982,133.777481 1055.323608,131.106934 C1058.987061,131.518082 1062.560791,131.919159 1066.566650,132.434875 z"/><path fill="#62C102" d="M103.468582,136.438705 C118.543060,95.123146 133.431458,54.156761 148.478409,13.248698 C148.987457,11.864747 151.069260,10.177419 152.458298,10.140301 C162.437027,9.873645 172.426193,9.997622 182.868942,9.997622 C182.314728,11.708504 181.931061,13.091545 181.424515,14.428018 C158.429764,75.098854 135.388031,135.751984 112.512039,196.467545 C111.172913,200.021729 109.578094,201.250229 105.780861,201.104599 C97.313293,200.779861 88.824699,201.003174 80.189064,201.003174 C55.953060,137.396255 31.803722,74.016808 7.412728,10.003129 C18.745176,10.003129 29.353050,9.873456 39.947891,10.185859 C41.122391,10.220490 42.708664,12.600952 43.285381,14.190477 C54.916962,46.249207 66.535172,78.313721 77.918266,110.461273 C83.413757,125.981339 88.420502,141.674438 93.652893,157.287750 C94.008263,158.348160 94.400269,159.396301 95.140396,161.476425 C98.077057,152.602661 100.692375,144.699905 103.468582,136.438705 z"/><path fill="#3D7404" d="M1399.831543,40.893440 C1380.731934,35.837597 1364.144287,44.845966 1358.195435,63.366158 C1354.134766,76.007805 1352.742676,89.049408 1352.762085,102.290703 C1352.807129,133.119461 1352.776489,163.948334 1352.776489,194.777161 C1352.776489,196.596008 1352.776489,198.414856 1352.776489,200.617859 C1342.005371,200.617859 1331.445923,200.617859 1320.552979,200.617859 C1320.552979,137.362122 1320.552979,73.974213 1320.552979,10.289502 C1330.020630,10.289502 1339.446045,10.289502 1349.563232,10.289502 C1349.563232,19.015987 1349.563232,27.840385 1349.563232,36.664783 C1359.122070,22.673336 1367.853882,8.319837 1386.458008,6.218231 C1400.049316,4.682889 1412.308960,9.164844 1424.235107,16.443810 C1420.595947,26.263863 1416.982300,36.014946 1413.304688,45.938354 C1408.789795,44.219978 1404.519897,42.594891 1399.831543,40.893440 z"/><path fill="#61C001" d="M815.056396,9.998818 C822.191772,9.998818 828.836182,9.998818 835.977112,9.998818 C835.977112,19.106445 835.977112,27.971527 835.977112,36.836605 C844.902771,24.639925 852.155212,11.026418 868.180603,7.162722 C883.742004,3.410919 897.600220,8.416526 911.019531,16.435324 C907.280518,26.464245 903.642517,36.222382 900.210693,45.427525 C893.282410,43.484581 886.919006,40.850502 880.328186,40.018456 C863.664368,37.914772 850.424316,46.818417 845.098328,62.870266 C840.696411,76.136894 839.434082,89.877930 839.396240,103.744141 C839.313110,134.228226 839.370361,164.712677 839.370361,195.196991 C839.370361,196.979965 839.370361,198.762955 839.370361,200.770416 C828.459045,200.770416 818.027954,200.770416 807.267212,200.770416 C807.267212,137.335541 807.267212,73.973648 807.267212,9.998818 C809.690125,9.998818 812.127808,9.998818 815.056396,9.998818 z"/><path fill="#FEFFFE" d="M472.507874 177.641876C451.749176 175.399261 439.601746 163.039337 432.091705 145.157532 427.375092 133.927017 426.131561 121.918427 425.96582 109.931694 425.744202 93.902817 426.914276 77.913933 433.814941 63.061474 441.012848 47.569214 452.163055 35.568665 469.029907 31.513128 487.095825 27.169283 504.203064 34.641273 515.677979 50.259041 522.784058 59.93066 526.310608 70.93203 527.919983 82.573502 530.542114 101.540352 530.442505 120.475227 524.934692 138.996567 519.452698 157.431061 507.876556 170.478714 489.224731 176.159164 484.118195 177.714371 478.392426 177.236115 472.507874 177.641876zM690 86.998871C668.700073 86.998871 647.900085 86.998871 627.120544 86.998871 626.017517 65.937157 641.791931 35.461819 676.681396 33.110924 708.40686 30.973221 731.762207 53.293098 732.844666 86.998871 718.722656 86.998871 704.611328 86.998871 690 86.998871z"/><path fill="#FEFEFE" d="M1520.11853 33.003044C1552.31311 33.008163 1572.293579 52.796593 1574.394653 86.633194 1539.032715 86.633194 1503.69104 86.633194 1468.348389 86.633194 1468.101196 61.496567 1487.024658 34.310909 1520.11853 33.003044zM1244.045288 139.870361C1237.285889 158.932449 1224.963501 171.827469 1205.40686 176.61702 1179.301514 183.010345 1152.914917 169.788559 1143.208374 144.622681 1133.522339 119.509575 1133.534424 93.593948 1142.420288 68.308548 1150.746582 44.615128 1171.223267 31.97518 1196.415039 33.04007 1218.622803 33.978817 1238.39917 50.169971 1244.888916 73.436043 1251.028564 95.446907 1250.503174 117.539032 1244.045288 139.870361z"/></svg>