<svg xmlns="http://www.w3.org/2000/svg" role="img" viewBox="-9.27 -9.77 768.04 159.04"><path fill="#f60" d="M387.595 104.636c0 16.55182-13.41677 29.9708-29.9686 29.9708-16.55401 0-29.97079-13.41898-29.97079-29.9708s13.41678-29.9708 29.9708-29.9708c16.55182 0 29.96859 13.41898 29.96859 29.9708"/><path fill="#fc0" d="M446.872 62.676c0 16.54962-13.41677 29.9708-29.9686 29.9708-16.55401 0-29.97079-13.42118-29.97079-29.9708 0-16.55182 13.41678-29.97299 29.9708-29.97299 16.55182 0 29.96859 13.42117 29.96859 29.97299"/><path fill="#0089cc" d="M373.612 62.014c0 16.54962-13.41677 29.9708-29.9708 29.9708-16.54962 0-29.96859-13.42118-29.96859-29.9708 0-16.55182 13.41897-29.97299 29.9686-29.97299 16.55402 0 29.97079 13.42117 29.97079 29.97299"/><path fill="#009939" d="M433.55 104.636c0 16.55182-13.41677 29.9708-29.97299 29.9708-16.54962 0-29.9686-13.41898-29.9686-29.9708s13.41898-29.9708 29.9686-29.9708c16.55622 0 29.97299 13.41898 29.97299 29.9708"/><path fill="#bf0000" d="M410.242 35.372c0 16.55182-13.41897 29.9708-29.9708 29.9708s-29.97078-13.41898-29.97078-29.9708S363.71939 5.4012 380.2712 5.4012 410.242 18.82019 410.242 35.372"/><path fill="#fc0007" d="M386.933 62.676c0 .63052.05492 1.24787.09447 1.8696 13.29374-3.06694 23.21517-14.95244 23.21517-29.17769 0-.63052-.05492-1.25006-.09447-1.8718C396.85443 36.56525 386.933 48.45075 386.933 62.676"/><path fill="#1cd306" d="M390.89 77.516c5.16503 9.02946 14.87115 15.1304 26.01848 15.1304 4.5433 0 8.83393-1.04136 12.69398-2.85165-5.16284-9.02946-14.86896-15.1304-26.01848-15.1304-4.5433 0-8.83394 1.04136-12.69398 2.85165"/><path fill="#0f7504" d="M373.612 104.636c0 7.32243 2.63195 14.02313 6.99509 19.2277 4.35875-5.20457 6.9907-11.90527 6.9907-19.2277s-2.63195-14.02313-6.9907-19.2277c-4.36314 5.20457-6.99509 11.90527-6.99509 19.2277"/><path fill="#0c5e87" d="M331.774 89.529c3.64035 1.57302 7.64758 2.454 11.86573 2.454 11.03747 0 20.65352-5.9823 25.8559-14.86457-3.64034-1.57302-7.64978-2.4518-11.86573-2.4518-11.03747 0-20.65572 5.9823-25.8559 14.86237"/><path fill="#6b0001" d="M350.431 32.84c-.0703.83484-.12962 1.67408-.12962 2.52869 0 14.21427 9.90605 26.08878 23.18441 29.1689.0681-.83484.12743-1.67407.12743-2.52649 0-14.21426-9.90385-26.09317-23.18222-29.1711"/><path fill="#fff" d="M353.23 100.925h-4.6883c-4.13905 0-7.50477-3.35474-7.50477-7.48281V51.0059c0-4.12807 3.36572-7.485 7.50478-7.485h58.78818c4.13906 0 7.50259 3.35693 7.50259 7.485V93.4422c0 4.12807-3.36353 7.48281-7.50259 7.48281h-20.0274l-40.1822 19.69785L353.23 100.925z"/><g fill="#333"><path d="M86.72 107.6L70.215 46.386 53.501 107.6q-1.9499 6.9641-3.1338 10.028-1.1142 2.9946-3.9695 5.432-2.8553 2.3678-7.5908 2.3678-3.8302 0-6.3373-1.4625-2.4374-1.3928-3.9695-3.9695-1.5321-2.6464-2.5071-6.198-.97497-3.6213-1.741-6.6855L7.26 38.3763q-1.5321-5.9891-1.5321-9.123 0-3.9695 2.7856-6.6855t6.8944-2.716q5.6409 0 7.5909 3.6213 1.9499 3.6213 3.4124 10.516l13.371 59.613 14.973-55.782q1.6714-6.407 2.9946-9.7497 1.3232-3.3428 4.3177-5.7802 2.9946-2.4374 8.148-2.4374 5.2231 0 8.0783 2.5767 2.9249 2.5071 4.0392 5.5016 1.1143 2.9946 2.9946 9.889l15.112 55.782 13.371-59.613q.97497-4.6659 1.8107-7.3123.90533-2.6464 2.9946-4.7356 2.1589-2.0892 6.198-2.0892 4.0392 0 6.8248 2.716 2.8553 2.6464 2.8553 6.6855 0 2.8553-1.5321 9.123l-16.992 68.736q-1.741 6.9641-2.9249 10.237-1.1143 3.2035-3.8999 5.6409-2.716 2.4374-7.7301 2.4374-4.7356 0-7.5908-2.3678-2.8553-2.3678-3.9695-5.2927-1.1143-2.9946-3.1338-10.168zm109.684-16.16h-37.188q.06964 6.4766 2.5767 11.421 2.5767 4.9445 6.7552 7.4516 4.2481 2.5071 9.3319 2.5071 3.4124 0 6.198-.76605 2.8553-.83569 5.5016-2.5071 2.6464-1.741 4.8749-3.691 2.2285-1.9499 5.7802-5.2927 1.4625-1.2535 4.1785-1.2535 2.9249 0 4.7356 1.6017t1.8107 4.5266q0 2.5767-2.0196 6.0588-2.0196 3.4124-6.1284 6.6159-4.0392 3.1338-10.237 5.2231-6.1284 2.0892-14.137 2.0892-18.316 0-28.483-10.446-10.168-10.446-10.168-28.344 0-8.4266 2.5071-15.6 2.5071-7.2426 7.3123-12.396t11.839-7.8694q7.0337-2.7856 15.6-2.7856 11.143 0 19.082 4.7356 8.0087 4.6659 11.978 12.118 3.9695 7.4516 3.9695 15.182 0 7.173-4.1088 9.3319-4.1088 2.0892-11.56 2.0892zm-37.188-10.794h34.472q-.69641-9.7497-5.2927-14.555-4.5267-4.8749-11.978-4.8749-7.1034 0-11.7 4.9445-4.5267 4.8749-5.5016 14.485zm84.405-49.926v29.04q5.3623-5.5713 10.934-8.4962 5.5713-2.9946 13.789-2.9946 9.4712 0 16.575 4.5266 7.173 4.457 11.073 13.023 3.9695 8.4962 3.9695 20.196 0 8.6355-2.2285 15.878-2.1589 7.173-6.3373 12.466-4.1785 5.2927-10.168 8.2176-5.9195 2.8553-13.092 2.8553-4.3874 0-8.2873-1.0446-3.8302-1.0446-6.5462-2.716-2.716-1.741-4.6659-3.5517-1.8803-1.8107-5.0141-5.432v1.8803q0 5.3624-2.5767 8.148-2.5767 2.716-6.5462 2.716-4.0392 0-6.4766-2.716-2.3678-2.7856-2.3678-8.148v-83.012q0-5.7802 2.2981-8.7051 2.3678-2.9946 6.5462-2.9946 4.3874 0 6.7552 2.8553 2.3678 2.7856 2.3678 8.0087zm.90533 56.479q0 11.351 5.1534 17.48 5.2231 6.0588 13.65 6.0588 7.173 0 12.326-6.198 5.2231-6.2677 5.2231-17.898 0-7.5212-2.1589-12.953-2.1589-5.432-6.1284-8.3569-3.9695-2.9946-9.2622-2.9946-5.432 0-9.6801 2.9946-4.2481 2.9249-6.6855 8.5658-2.4374 5.5713-2.4374 13.301z"/></g><g fill="#333"><path d="M491.43 77.77h-7.6172v34.497q0 6.8115-3.0029 10.034-3.0029 3.2227-7.8369 3.2227-5.2002 0-8.0566-3.3691t-2.8564-9.8877v-82.617q0-7.0312 3.1494-10.181 3.1494-3.1494 10.181-3.1494h35.376q7.3242 0 12.524.65918 5.2002.58593 9.375 2.4902 5.0537 2.124 8.9356 6.0791 3.8818 3.9551 5.8594 9.2285 2.0508 5.2002 2.0508 11.06 0 12.012-6.8115 19.189-6.7383 7.1777-20.508 10.181 5.7861 3.0762 11.06 9.082 5.2734 6.0059 9.375 12.817 4.1748 6.7383 6.4453 12.231 2.3438 5.4199 2.3438 7.4707 0 2.124-1.3916 4.248-1.3184 2.0508-3.6621 3.2226-2.3438 1.2451-5.4199 1.2451-3.6621 0-6.1524-1.7578-2.4902-1.6846-4.3213-4.3213-1.7578-2.6367-4.834-7.7637l-8.7158-14.502q-4.6875-7.9834-8.4228-12.158-3.6621-4.1748-7.4707-5.7129t-9.5947-1.5381zm12.451-45.117h-20.068V62.17h19.482q7.8369 0 13.184-1.3184 5.3467-1.3916 8.1299-4.6143 2.8564-3.2959 2.8564-9.0088 0-4.4678-2.2705-7.8369-2.2705-3.4424-6.2988-5.127-3.8086-1.6113-15.015-1.6113zM632.57 34.26h-23.73v78.003q0 6.7383-3.0029 10.034-3.0029 3.2227-7.7637 3.2227-4.834 0-7.9102-3.2959-3.0029-3.2959-3.0029-9.9609v-78.003h-23.73q-5.5664 0-8.2764-2.417-2.71-2.4902-2.71-6.5186 0-4.1748 2.7832-6.5918 2.8564-2.417 8.2031-2.417h69.141q5.6396 0 8.3496 2.4902 2.7832 2.4902 2.7832 6.5186 0 4.0283-2.7832 6.5186-2.7832 2.417-8.3496 2.417zm111.7 55.52q0 5.127-2.5635 11.133-2.4902 5.9326-7.9102 11.719-5.4199 5.7129-13.843 9.3018-8.4228 3.5889-19.629 3.5889-8.4961 0-15.454-1.6113-6.958-1.6113-12.671-4.9805-5.6396-3.4424-10.4-9.0088-4.248-5.0537-7.251-11.279-3.0029-6.2988-4.541-13.403-1.4648-7.1045-1.4648-15.088 0-12.964 3.7354-23.218 3.8086-10.254 10.84-17.505 7.0312-7.3242 16.48-11.133 9.4482-3.8086 20.142-3.8086 13.037 0 23.218 5.2002t15.601 12.891q5.4199 7.6172 5.4199 14.429 0 3.7354-2.6367 6.5918t-6.3721 2.8564q-4.1748 0-6.2988-1.9775-2.0508-1.9775-4.6143-6.8115-4.248-7.9834-10.034-11.938-5.7129-3.9551-14.136-3.9551-13.403 0-21.387 10.181-7.9102 10.181-7.9102 28.931 0 12.524 3.5156 20.874 3.5156 8.2764 9.9609 12.378t15.088 4.1016q9.375 0 15.82-4.6143 6.5186-4.6875 9.8145-13.696 1.3916-4.248 3.4424-6.8848 2.0508-2.71 6.5918-2.71 3.8818 0 6.665 2.71t2.7832 6.7383z"/></g></svg>