<?xml version="1.0" encoding="UTF-8"?><svg id="body_1" xmlns="http://www.w3.org/2000/svg" xmlns:xlink="http://www.w3.org/1999/xlink" viewBox="0 0 519 123.67034"><defs><style>.cls-1{fill:url(#linear-gradient);}.cls-1,.cls-2,.cls-3,.cls-4,.cls-5{isolation:isolate;}.cls-1,.cls-2,.cls-3,.cls-4,.cls-5,.cls-6{stroke-width:0px;}.cls-2{fill:url(#linear-gradient-4);}.cls-3{fill:url(#linear-gradient-5);}.cls-4{fill:url(#linear-gradient-2);}.cls-5{fill:url(#linear-gradient-3);}.cls-6{fill:#060606;}</style><linearGradient id="linear-gradient" x1="214.88139" y1="63.51187" x2="214.88139" y2="22.53844" gradientUnits="userSpaceOnUse"><stop offset="0" stop-color="#cd1d2a"/><stop offset="1" stop-color="#e41b26"/></linearGradient><linearGradient id="linear-gradient-2" x1="344.98747" y1="63.62568" x2="344.98747" y2="22.51452" gradientUnits="userSpaceOnUse"><stop offset="0" stop-color="#e41b26"/><stop offset="1" stop-color="#cd1d2a"/></linearGradient><linearGradient id="linear-gradient-3" x1="484.09463" y1="63.47893" x2="484.09463" y2="22.5267" xlink:href="#linear-gradient-2"/><linearGradient id="linear-gradient-4" x1="433.89344" y1="63.46233" x2="433.89344" y2="22.51758" xlink:href="#linear-gradient-2"/><linearGradient id="linear-gradient-5" x1="141.69014" y1="15.33074" x2="158.59549" y2="15.33074" xlink:href="#linear-gradient"/></defs><g id="V7LQoQ.tif"><path class="cls-1" d="M225.66856,33.17545c-3.69972,0-7.13715,0-10.57459,0-10.72009.00003-21.44019-.00276-32.16028.00677-.68392.00061-1.38774.01255-2.047.16816-1.02426.24176-1.68202.98032-1.5341,2.02745.13875.98218,1.07387,1.00573,1.87675,1.00639,6.68776.00549,13.37555-.00565,20.06327.0095,2.41439.00547,4.81008.20127,7.14564.88508,10.03265,2.93738,10.69625,12.04347,5.75866,18.42378-4.05201,5.23601-9.83324,7.58783-16.25171,7.66303-17.1104.20047-34.22467.06985-51.33742.0676-.09183-.00001-.18368-.0464-.43882-.1151,2.25256-2.44173,2.59988-5.55574,3.17664-8.5542.28063-1.45895.79592-1.93957,2.36224-1.9322,15.39135.07239,30.78319.03835,46.17488.05082,1.84635.0015,3.61873-.25248,5.28457-1.0871.98825-.49515,1.7373-1.21117,1.69737-2.36771-.04047-1.17182-.99429-1.59815-1.94704-1.94255-1.22519-.44288-2.50523-.46374-3.78523-.46413-6.83528-.00206-13.67088.03739-20.50573-.01596-3.73934-.02918-7.31475-.71772-10.38948-3.08783-2.92461-2.25438-3.85052-5.22588-3.21135-8.74148.92898-5.10972,4.3088-8.22592,8.76298-10.35511,3.27977-1.5678,6.79102-2.27283,10.42478-2.2741,26.25931-.00918,52.51861-.01394,78.77792.00427,4.06828.00282,8.05461.6423,11.7346,2.43844,7.2643,3.54558,10.22885,10.00487,8.28606,18.13443-1.98773,8.31758-7.54652,13.6507-14.98942,17.28009-4.54081,2.21426-9.39057,3.13375-14.42424,3.03072-5.59905-.1146-11.21912.42878-16.79497-.35808-5.812-.82019-10.71651-3.30759-13.82585-8.46979-3.23759-5.37513-2.41842-10.89859-.19844-16.4016.69881-1.73226,1.88907-3.17741,2.88931-5.02962ZM250.13297,52.79128c.00009-.00177.0002-.00353.00031-.00529,2.65329,0,5.32809.21545,7.95526-.04601,5.06384-.50397,9.24612-2.63343,11.5741-7.4398,1.72227-3.5558,1.15713-7.10364-1.46959-9.60083-1.51175-1.43723-3.41627-2.10898-5.44609-2.36504-2.98491-.37654-5.9907-.14943-8.98649-.15669-2.7005-.00655-5.41021-.19541-8.10197.16523-5.92188.79338-10.52283,4.71786-11.68032,9.93558-.78242,3.52701.75918,6.81921,3.9584,8.33918,1.38035.65582,2.84503,1.1292,4.38405,1.15956,2.60319.05135,5.20814.0141,7.81235.0141Z"/><path class="cls-4" d="M402.15429,63.44353c-6.15007,0-11.95071-.01165-17.75113.01518-.70186.00325-1.06127-.4088-1.47197-.82127-2.8768-2.88927-5.7671-5.76536-8.61725-8.68061-.59754-.61118-1.21082-.85789-2.06807-.85149-4.91738.03674-9.83574.05454-14.75251-.01097-1.07074-.01426-1.44895.35083-1.63903,1.33805-.49989,2.59665-1.1207,5.17-1.63176,7.76471-.17661.89688-.48408,1.29785-1.50965,1.27553-3.44077-.07489-6.88445-.05409-10.3263-.01146-.91823.01137-1.21187-.19788-.99902-1.16277,1.38264-6.26776,2.75109-12.53908,4.0436-18.82574.23611-1.14856.96153-.90376,1.6467-.90431,11.50737-.00932,23.01474-.0102,34.52211-.00528,2.25538.00097,4.37996-.4051,6.27157-1.73387,1.55748-1.09403,2.28232-2.59146,2.03479-4.4338-.25012-1.86152-1.77407-2.45954-3.34974-2.86384-1.19616-.30692-2.42896-.35598-3.66114-.35598-12.63837.00004-25.27685.02003-37.91501-.03195-1.23247-.00506-1.70329.35223-1.93631,1.54048-.76341,3.89296-1.51912,7.79426-2.49455,11.63755-2.06141,8.12193-7.49921,13.11007-15.38006,15.31125-9.19714,2.56884-18.55845,2.57241-27.85726.48057-3.87078-.87077-7.24379-2.79008-9.24717-6.46988-1.82261-3.34772-1.67394-6.92849-.95908-10.47607,1.43222-7.10743,3.03898-14.1797,4.50535-21.28054.20744-1.00452.50944-1.39413,1.58931-1.37156,3.39173.07088,6.78659.06586,10.17865.00367,1.12744-.02067,1.25977.29401,1.03079,1.34313-1.56685,7.17721-3.06545,14.36928-4.57701,21.55846-.74794,3.55724.89202,6.17185,4.4871,6.77624,5.46057.91798,10.9563,1.05175,16.42522.01618,3.9605-.74994,6.47342-3.05964,7.3292-7.07005,1.52326-7.13897,3.09087-14.26863,4.5784-21.41493.18849-.9053.4897-1.20587,1.41632-1.2045,16.96596.02512,33.93199-.00543,50.89788.03948,3.55214.00941,7.04687.57754,10.39892,1.84446,6.89958,2.60774,9.64735,8.67698,7.01499,15.56901-1.96278,5.13895-5.86479,8.33535-10.73135,10.52574-1.54469.69526-1.57762.66549-.33013,1.92623,3.34884,3.38445,6.71094,6.75582,10.06508,10.13507.19534.19684.36669.41743.7695.87989Z"/><path class="cls-6" d="M59.82777,43.99492c3.15788-6.86056,6.20497-13.43119,9.19468-20.02771.45855-1.01175.96129-1.47655,2.16951-1.44881,4.07072.09344,8.14493.03556,12.31568.03556-.12458,1.02102-.6519,1.75191-1.03471,2.51109-5.64761,11.20033-11.33204,22.38216-16.98838,33.57811-1.19165,2.3587-3.08119,3.90966-5.47992,4.87336-3.75718,1.50943-7.05897.19086-8.7225-3.58581-1.3816-3.13662-2.59876-6.34557-3.88006-9.52597-1.48139-3.67705-2.95325-7.35792-4.4717-11.14297-1.25052.83054-1.95638,2.02389-2.80855,3.03961-4.85295,5.78434-9.60433,11.65361-14.46243,17.43357-1.99289,2.37106-4.31233,4.32948-7.69398,4.31487-3.39334-.01465-5.71816-1.99805-6.07293-5.34689-.3462-3.26794-.56763-6.5493-.82695-9.8261-.57169-7.22372-1.08401-14.45273-1.74597-21.66812-.1107-1.20665-.24214-2.41058-.29753-3.62437-.03317-.7268.15821-1.05183.97083-1.04484,3.98272.03425,7.96615.0393,11.94872-.00234.902-.00943,1.03339.3926,1.05508,1.14739.14638,5.0942.31453,10.18789.50562,15.28063.05593,1.4907.20914,2.97776.33551,4.70965,1.67985-1.43852,2.80068-3.03337,4.04283-4.50035,3.70649-4.37741,7.32201-8.83145,11.01495-13.22044,1.93094-2.29489,4.2243-3.9136,7.44887-3.79451,2.91092.1075,5.1479,1.59633,6.25061,4.30476,2.1971,5.39646,4.41396,10.78492,6.62525,16.17562.14474.35285.31146.69671.60748,1.35503Z"/><path class="cls-6" d="M137.38671,44.54855c2.03876-9.41458,4.10396-18.96915,6.1787-28.52165.66481-3.06087,1.35887-6.1154,2.0287-9.1752.09069-.41432-.00204-.86612.69051-.862,4.07031.02418,8.14084.01189,12.31088.01189-1.70479,7.85767-3.36815,15.5557-5.04616,23.25055-2.05481,9.4229-4.13104,18.84116-6.17785,28.26579-.57263,2.63674-1.40974,5.09484-4.34779,5.93131-3.1785.90492-5.96027-.05961-8.23692-2.30208-4.09271-4.03125-8.09156-8.15747-12.12561-12.24794-2.20597-2.23682-4.40084-4.48456-6.60901-6.71923-.26583-.26903-.49477-.7701-.90689-.64501-.46193.14021-.41223.6982-.50156,1.1166-1.37964,6.46238-2.79242,12.91794-4.12162,19.3906-.23399,1.13943-.68842,1.46628-1.83495,1.4368-3.29182-.08463-6.58751-.05273-9.88109-.01572-.96454.01084-1.40485-.07002-1.14009-1.27772,2.21143-10.08743,4.35236-20.19027,6.51145-30.28912.24548-1.1482.50267-2.29519.70198-3.45174,1.1346-6.58415,8.54421-7.41774,12.30918-3.7636,3.87596,3.76188,7.58545,7.69403,11.42706,11.49195,2.85513,2.82266,5.8049,5.54997,8.77107,8.37553Z"/><path class="cls-5" d="M504.08627,52.87539c-1.30891,1.77829-2.80224,2.9836-4.1052,4.3612-1.75408,1.85468-3.60988,3.61334-5.37275,5.46003-.56555.59245-1.16464.76242-1.95154.76104-11.2084-.01962-22.41698-.04024-33.6251.02116-1.37987.00756-1.45868-.38963-1.20502-1.55447,2.22991-10.24112,4.40687-20.49371,6.60202-30.74237.54365-2.5383,1.13021-5.06812,1.6247-7.61583.15129-.77961.44993-1.04072,1.24782-1.03944,14.2563.02281,28.51259.0187,42.76892.02375.09041.00003.18079.04736.4062.11028-1.22329,1.69877-2.83393,2.96173-4.20573,4.43824-1.53461,1.65176-3.17695,3.2039-4.70879,4.85809-.82663.89267-1.71795,1.25842-2.96454,1.24725-6.78352-.06079-13.56809.00144-20.35165-.0579-1.17491-.01028-1.60773.35409-1.8124,1.48747-.52507,2.90796-.57903,2.89827,2.40911,2.89826,8.25884,0,16.51772,0,24.77657,0,.48001,0,.96001,0,1.79489,0-1.2954,1.37449-2.36084,2.54218-3.46674,3.67033-2.06227,2.10366-4.17475,4.15902-6.20684,6.29101-.55997.58749-1.16133.61658-1.85591.61586-6.24329-.00639-12.48683.02563-18.72962-.02997-1.15917-.01031-1.71068.21191-1.9563,1.47512-.64855,3.33526-.7226,3.32091,2.72436,3.32091h28.16356Z"/><path class="cls-2" d="M438.07082,63.44217c-4.47347-.00189-8.94795.05779-13.42005-.01973-3.96807-.06879-7.8025-.8017-11.31156-2.79868-7.78305-4.42924-9.81582-11.60682-7.54099-19.61763,1.85922-6.54746,6.20486-11.11403,12.05639-14.36695,5.37203-2.98638,11.18992-4.11056,17.28243-4.10119,8.79944.01352,17.59898.02401,26.3982-.02031,1.2146-.00612,1.52679.27509,1.21871,1.48905-.66223,2.60957-1.23326,5.24466-1.75174,7.88686-.19617.99982-.59008,1.31482-1.63813,1.30929-9.04499-.04768-18.09044-.05416-27.13554-.01698-4.92102.02023-9.18233,1.64906-12.20905,5.68025-2.0363,2.71213-3.0556,5.79103-1.6011,9.08926,1.47157,3.33687,4.50023,4.49546,7.88434,4.80062,1.90313.17161,3.82928.11235,5.74513.11506,7.47216.01056,14.94428.00389,22.41644.00461,1.85087.00018,1.83758-.00096,1.43267,1.88585-.5443,2.53645-1.12128,5.06814-1.56703,7.62223-.15903.91107-.55331,1.07824-1.36409,1.07383-4.96489-.02706-9.93001-.01354-14.89504-.01543Z"/><path class="cls-6" d="M84.7991,63.44918c-1.57351,0-3.15316-.0855-4.71862.02651-1.2982.09288-1.66966-.20172-1.36659-1.5646,1.54051-6.92728,2.99205-13.87426,4.47609-20.81407,1.23805-5.78948,2.49787-11.57448,3.696-17.37218.1843-.89179.51012-1.20753,1.44377-1.19256,3.44116.05519,6.88396.04213,10.32568.00839.93535-.00917,1.26918.10699,1.0268,1.22114-2.67393,12.29163-5.2776,24.59848-7.90948,36.89925-.59729,2.79159-.61359,2.78812-3.43324,2.78812-1.18013,0-2.36027,0-3.5404,0Z"/><path class="cls-6" d="M329.94799,97.1476c.55349-2.51699,1.11281-5.02198,1.65366-7.53092.48422-2.24649.98285-4.4909,1.40285-6.7496.15532-.83525.49993-1.1087,1.35815-1.12281,3.50445-.05761,3.48183-.09288,2.75224,3.28015-1.28211,5.92736-2.54689,11.85857-3.78429,17.79535-.17502.83963-.44013,1.2202-1.41524,1.22386-3.96915.0149-3.96789.05555-5.99223-3.37006-2.24136-3.79287-4.48428-7.5848-6.72985-11.37518-.11944-.20154-.26961-.38494-.62715-.88979-.43232,1.9883-.79724,3.66718-1.16245,5.34599-.66569,3.05998-1.36755,6.11285-1.97384,9.1845-.16566.83903-.46898,1.09187-1.32652,1.09871-3.44758.02748-3.42049.06646-2.695-3.30671,1.24461-5.78694,2.47704-11.57679,3.65419-17.37762.24447-1.20489.7552-1.51066,2.00835-1.65851,2.69252-.31767,4.12162.72974,5.33648,3.08991,2.05834,3.99893,4.51014,7.79622,6.80006,11.67619.14246.24144.2256.54369.74061.68654Z"/><path class="cls-6" d="M404.88772,81.38658c2.35576-.03866,4.73033-.15645,6.85085,1.1868.58886.37301,1.12427.78931,1.51483,1.36387.66832.98308.93462,3.52404.44665,4.08649-.17509.20177-3.70073.36338-4.05182.17183-.11653-.06355-.28737-.17878-.29094-.27556-.07096-1.94828-1.64317-1.83793-2.88908-2.01362-2.29972-.32433-4.59799-.2539-6.87044.34009-1.36769.35749-1.99837,1.29507-1.93199,2.57798.06084,1.17584,1.13295,1.25377,2.06087,1.46183,1.93886.43474,3.91278.18539,5.86663.3982,3.8429.41857,5.77913,1.64127,6.29145,4.2337.5894,2.98282-1.33117,6.88394-4.22471,8.21535-4.35788,2.0052-8.87605,2.13636-13.41086.65897-2.29262-.74692-3.43306-2.57273-3.30789-4.81298.05403-.96599.341-1.58266,1.48105-1.42817.5309.07193,1.08342.05281,1.61944.00297.89629-.08332,1.57254.03599,1.78329,1.11121.12038.61434.70099.9426,1.27307,1.12362,2.70131.85477,5.42779.8123,8.12341.02552.90177-.2632,1.61022-.89574,1.91747-1.87645.60662-1.93635.23968-2.5345-1.73841-3.00534-2.22069-.52859-4.51345-.15926-6.73544-.61026-.47849-.09712-.96488-.15882-1.43941-.27156-3.7352-.88751-4.98971-3.13294-3.79704-6.78044,1.13648-3.47571,4.22882-5.62527,8.51127-5.87561.97936-.05725,1.96498-.00844,2.94776-.00844Z"/><path class="cls-6" d="M288.31471,104.61489c-1.60964.20238-3.12024-.09225-4.63951-.53276-2.94817-.85481-4.85721-2.65294-5.05131-5.76867-.29486-4.73345.77572-9.1447,3.7574-12.95351,1.44522-1.84611,3.43799-2.92171,5.6594-3.4922,3.18358-.81757,6.43418-.8173,9.6305-.13176,3.03259.65041,4.95448,2.7854,5.14269,5.84756.28089,4.57034-.77534,8.84825-3.52967,12.60176-1.09783,1.49608-2.55681,2.57437-4.29317,3.22143-2.15587.80339-4.33746,1.54243-6.67635,1.20816ZM291.95579,85.68306c-.54587.04257-1.32994.08506-2.10971.16792-2.66732.28346-4.57389,1.56696-5.51934,4.15364-.78025,2.13474-1.27661,4.312-1.18874,6.59827.06956,1.80992.70917,2.65129,2.51312,3.10499,2.67028.67154,5.3383.57182,7.97916-.1983,1.02654-.29935,1.85238-.89649,2.43249-1.79334,1.83106-2.83076,2.37412-5.96948,2.12441-9.26994-.07155-.94589-.67527-1.58694-1.534-2.00314-1.41677-.68669-2.93733-.70765-4.69739-.76011Z"/><path class="cls-6" d="M264.89784,94.85363c2.26764,2.24201,2.49048,5.23922,3.17407,8.07067.19442.80534.05063,1.09399-.86971,1.11391-3.68054.07967-3.67982.11356-4.57836-3.38251-.01219-.04746-.02093-.09581-.03323-.14323-1.17763-4.54643-1.53805-4.82837-6.17166-4.82835q-2.92658,0-3.57208,2.90228c-.3392,1.5298-.69543,3.05655-.99261,4.59456-.11298.58481-.35403.88493-.96552.83343-.14626-.01231-.29457-.00227-.44192.00019-3.27913.0548-3.31563.04722-2.65421-3.09944,1.24792-5.93692,2.56257-11.8599,3.79735-17.79947.20207-.97198.51484-1.4204,1.60971-1.3738,3.92212.16692,7.86228-.25458,11.77327.26666,3.14733.41944,5.00086,1.97501,5.13257,4.36401.18628,3.37835-.95178,6.14243-4.07186,7.84663-.33769.18445-.67198.37512-1.13581.63446ZM258.63171,91.65867c1.02827,0,2.05705.02035,3.08465-.00555,1.09538-.02761,2.12961-.26263,2.95646-1.05871.92709-.89256,1.2487-2.01936.95891-3.21556-.27921-1.15265-1.36483-1.30063-2.34779-1.37677-1.11984-.08672-2.2494-.11491-3.37211-.08132-1.40865.04214-3.159-.58827-4.13473.25489-1.00317.86689-.7764,2.70745-1.18375,4.09716-.0273.09314-.02224.19602-.0516.28822-.25031.78572-.08141,1.17663.85934,1.11533,1.07265-.06989,2.1534-.01617,3.23063-.0177Z"/><path class="cls-6" d="M114.35929,104.01452c-2.40937.00004-4.81909-.02355-7.22795.0117-.95664.014-1.3874-.0383-1.10801-1.28226,1.4911-6.63908,2.87674-13.30212,4.24274-19.96834.16798-.81971.50306-1.0246,1.26534-1.02118,4.96616.02218,9.93254.02535,14.89864-.00308.84996-.00486,1.10077.18643.93252,1.09243-.57336,3.08728-.53715,3.09391-3.59301,3.09402-2.80274.00009-5.60618.03577-8.40781-.01978-.91148-.01806-1.27509.28858-1.48497,1.16926-.88065,3.69534-.90929,3.68836,2.81286,3.68862,1.96683.00013,3.93396.02046,5.90035-.00874.71059-.01054.88352.12838.74526.9136-.55909,3.17563-.51869,3.1827-3.7865,3.18272-2.016.00002-4.03299.0369-6.04757-.01634-.92397-.02443-1.52907.13366-1.52003,1.22063.00318.38276-.15718.7657-.23319,1.15047q-.53196,2.69261,2.29765,2.69279c2.80274.00005,5.60607.03248,8.40789-.01804.92434-.01666,1.20331.229,1.03662,1.16887-.52282,2.94775-.49533,2.95261-3.52533,2.95261-1.86849,0-3.73699,0-5.60548.00004Z"/><path class="cls-6" d="M169.4739,104.01437c-2.4564-.00012-4.91326-.02637-7.36902.0135-.91353.01482-1.19054-.18909-.9723-1.17859,1.47483-6.68654,2.90082-13.38398,4.29695-20.08737.14927-.7166.39147-1.00631,1.12794-1.00366,5.011.01802,10.02222.02364,15.03311-.00608.89628-.00531,1.07423.31275.93755,1.14371-.49975,3.03831-.47777,3.04181-3.48424,3.04192-2.84944.00011-5.69949.0342-8.54794-.01877-.9199-.0171-1.34912.31324-1.48013,1.19336-.17203,1.15572-.93927,2.70221-.4594,3.35598.61872.84292,2.26137.26038,3.45959.29346,1.91453.05283,3.83164.0211,5.74758.01184.56898-.00276.82767.03216.72201.80454-.4486,3.27933-.40492,3.28515-3.6608,3.28532-2.16163.00011-4.32366.02362-6.48472-.01126-.77683-.01254-1.13936.1912-1.20394,1.04574-.07312.96708-.29657,1.93578-.56689,2.87148-.28031.97023.06046,1.16976.97806,1.15804,3.34016-.04269,6.68187.02034,10.02155-.03859,1.00749-.01778,1.24625.28903,1.0649,1.23614-.55239,2.88525-.53065,2.8894-3.55926,2.8894-1.86688,0-3.73374,0-5.60062-.00012Z"/><path class="cls-6" d="M375.847,81.33782c1.41232.08256,3.09432-.18418,4.73289.29571,1.42374.41696,2.54516,1.21908,3.31326,2.50716.36294.60865.40523,1.05533-.36485,1.37515-.6327.26278-1.23618.6008-1.837.93357-.89773.4972-1.5836.88478-2.62433-.09965-1.27941-1.21021-8.10406-.76798-9.54113.33141-.51754.39591-.89755.89756-1.16763,1.48715-1.34503,2.93634-2.06332,6.0205-2.0587,9.24677.00241,1.68338.69948,2.43708,2.37251,2.59689,2.10441.201,4.2196.2017,6.32527-.04091.38437-.04428.8669-.07604,1.11703-.31151,1.79983-1.6943,2.94693.09885,4.29686.75831.59952.29287.39068.66231.03941,1.03725-1.78369,1.9038-3.99746,2.97094-6.5741,3.18271-1.51307.12435-3.04689-.02863-4.56781.03173-6.15061.24414-8.04668-3.26792-7.61624-8.02067.27491-3.03534.91945-5.99219,2.14559-8.80684,1.9018-4.36564,5.12958-6.67605,9.99074-6.50704.58897.02048,1.17923.0028,2.01825.0028Z"/><path class="cls-6" d="M203.88445,81.33798c1.40483.09204,3.08471-.18422,4.7266.30876,1.33525.40091,2.33898,1.221,3.1202,2.33498.44139.62941.69053,1.21327-.36793,1.56202-.59673.19661-1.12511.59306-1.69616.87562-.92271.45654-1.86468,1.24573-2.70673-.15416-.10071-.16743-.42911-.24915-.66342-.27802-2.59036-.31916-5.18781-.47496-7.75532.12566-.88309.20658-1.57227.79828-1.99949,1.62833-1.62421,3.15571-2.38507,6.50229-2.24102,10.0537.05192,1.28016.69215,2.01801,1.95471,2.16424,2.30307.26672,4.61022.26057,6.91186-.02677.33486-.0418.6504-.22132.9848-.28659.61838-.12073.85157-1.15839,1.59185-.797.96471.47094,1.8562,1.09554,2.76209,1.68042.45976.29684.1454.584-.0835.83689-1.74671,1.92973-3.93961,3.05492-6.51249,3.26586-1.80717.14816-3.63641.01925-5.45571.03047-4.82234.02973-6.95972-2.83644-6.86194-6.75053.09012-3.60654.84957-7.09142,2.35002-10.38768,1.92966-4.23915,5.20531-6.36425,9.91513-6.1892.58926.0219,1.18003.00299,2.02643.00299Z"/><path class="cls-6" d="M231.86893,81.76536c2.89758.00004,5.79704.06138,8.69188-.02753,1.31728-.04045,1.45835.42825,1.18964,1.54928-.63322,2.64157-.59533,2.62674-3.35468,2.65963-1.66326.01983-3.69905-.64131-4.88673.25013-1.17966.88544-.91859,3.03986-1.28304,4.63571-.89285,3.90948-1.72314,7.83404-2.51027,11.76617-.20373,1.01773-.52638,1.47545-1.68928,1.44887-3.14778-.07194-3.15464-.00964-2.50948-3.05863.97231-4.59502,1.92438-9.19467,2.95267-13.77723.22561-1.00536.01416-1.31728-1.00934-1.28827-1.86472.05286-3.73239-.0068-5.5981.0241-.74744.01238-1.04052-.12984-.87666-.99321.60415-3.18308.57242-3.18907,3.81133-3.18907,2.35735,0,4.71472,0,7.07206.00005Z"/><path class="cls-6" d="M142.05166,104.01441c-2.55457-.00007-5.10971-.03059-7.66341.01647-.89512.0165-1.25296-.17234-1.03846-1.15141,1.4444-6.59289,2.87684-13.18864,4.24967-19.7966.20645-.99373.52737-1.36242,1.60084-1.34753,3.23822.04493,3.24497-.00735,2.58655,3.08714-.96734,4.54624-1.89021,9.10306-2.95021,13.6278-.31663,1.35157.08608,1.51296,1.28941,1.48662,3.38809-.07415,6.77974.01783,10.16808-.05038,1.12769-.02271,1.44971.21472,1.15888,1.37599-.68615,2.73984-.63749,2.75198-3.5062,2.75198-1.96505,0-3.9301,0-5.89515-.00008Z"/><path class="cls-6" d="M346.79861,104.01449c-2.40018-.00016-2.38188.00375-1.88635-2.30729,1.32065-6.15959,2.65239-12.31712,3.90846-18.48992.22833-1.12223.64404-1.50996,1.8169-1.48211,3.08568.07326,3.07995.01251,2.43616,3.03471-1.21129,5.6861-2.40879,11.37512-3.62166,17.06089-.46639,2.18642-.47839,2.18387-2.65351,2.18373Z"/></g><polygon class="cls-3" points="145.58099 5.98967 141.69014 24.67181 158.59549 6.00158 145.58099 5.98967"/></svg>