<svg xmlns="http://www.w3.org/2000/svg" role="img" viewBox="-3.86 79.39 408.46 80.46"><defs><style>.cls-2{fill:#1c1b1a}</style></defs><path fill="#fff" d="M26.20908 141.04364l14.78565-51.75705 1.37294 9.82041-14.87387 51.997-1.28471-10.06038m120.21281 11.00349h-5.46532l-38.345-59.75676v59.75676H98.3128v-64.595h6.0915l37.62778 58.77089zm-4.38982-11.00276V87.45207h4.38982v63.65271l-4.38982-10.06042M166.966 91.3053v56.7107h15.58964c9.1379 0 14.782-1.97216 19.35067-6.6301 4.65967-4.83829 7.16766-12.18477 7.16766-20.87505 0-9.40586-2.77786-17.64917-7.615-22.48745-4.39112-4.478-10.48262-6.71814-18.54632-6.71814zm-4.38916-3.85324h22.21695c17.47147 0 28.7604 13.08133 28.7604 33.50738 0 9.944-2.95732 17.82825-8.6925 23.47252-5.46336 5.28606-12.27208 7.61515-22.84378 7.61515h-19.4411v-64.595m149.36882 64.59505h-4.47956l-22.397-64.595h4.12127l20.42482 58.77084 2.3305 5.82413m-.545-11.00347l18.46246-53.59105h4.21231L312.26787 151.104l-.86721-10.06038m63.35884-23.78009c9.56825-.37486 15.79007-5.47489 15.79007-13.14736 0-7.34648-6.44979-12.99074-14.96086-12.99074h-21.86063v60.9209h-4.38982V87.45259h26.25045c11.46773 0 19.35065 6.80918 19.35065 16.75444a15.36672 15.36672 0 0 1-5.73323 12.09451c-2.32918 1.97011-3.94245 2.776-8.24253 4.031L397 152.04633h-4.38916l-15.8582-30.99867-1.99317-3.78413m-121.92891 0c9.56825-.37486 15.79008-5.47488 15.79008-13.14736 0-7.34648-6.45043-12.99074-14.96151-12.99074h-21.86062v60.9209h-4.38916V87.45259h26.24978c11.46774 0 19.35066 6.80918 19.35066 16.75444a15.36676 15.36676 0 0 1-5.7332 12.09451c-2.32852 1.97011-3.94179 2.776-8.24253 4.031l16.037 31.7138h-4.38982l-15.85754-30.99868-1.99316-3.78413m-225.628 34.78358h-4.65916L4 87.45206h4.1201zm36.67233-11.00276l15.24446-53.31594H83.329l-18.1697 63.37637zM41.47806 87.45207h4.38948l19.024 64.595H60.472l-18.994-64.595"/><path d="M26.20908 141.04364l14.78565-51.75705 1.37294 9.82041-14.87387 51.997-1.28471-10.06038m120.21281 11.00349h-5.46532l-38.345-59.75676v59.75676H98.3128v-64.595h6.0915l37.62778 58.77089zm-4.38982-11.00276V87.45207h4.38982v63.65271l-4.38982-10.06042M166.966 91.3053v56.7107h15.58964c9.1379 0 14.782-1.97216 19.35067-6.6301 4.65967-4.83829 7.16766-12.18477 7.16766-20.87505 0-9.40586-2.77786-17.64917-7.615-22.48745-4.39112-4.478-10.48262-6.71814-18.54632-6.71814zm-4.38916-3.85324h22.21695c17.47147 0 28.7604 13.08133 28.7604 33.50738 0 9.944-2.95732 17.82825-8.6925 23.47252-5.46336 5.28606-12.27208 7.61515-22.84378 7.61515h-19.4411v-64.595m149.36882 64.59505h-4.47956l-22.397-64.595h4.12127l20.42482 58.77084 2.3305 5.82413" class="cls-2"/><path fill="#6accba" d="M311.40069 141.04364l18.46246-53.59105h4.21231L312.26787 151.104l-.86721-10.06038"/><path d="M374.7595 117.26354c9.56825-.37486 15.79007-5.47489 15.79007-13.14736 0-7.34648-6.44979-12.99074-14.96086-12.99074h-21.86063v60.9209h-4.38982V87.45259h26.25045c11.46773 0 19.35065 6.80918 19.35065 16.75444a15.36672 15.36672 0 0 1-5.73323 12.09451c-2.32918 1.97011-3.94245 2.776-8.24253 4.031L397 152.04633h-4.38916l-15.8582-30.99867-1.99317-3.78413m-121.92891 0c9.56825-.37486 15.79008-5.47488 15.79008-13.14736 0-7.34648-6.45043-12.99074-14.96151-12.99074h-21.86062v60.9209h-4.38916V87.45259h26.24978c11.46774 0 19.35066 6.80918 19.35066 16.75444a15.36676 15.36676 0 0 1-5.7332 12.09451c-2.32852 1.97011-3.94179 2.776-8.24253 4.031l16.037 31.7138h-4.38982l-15.85754-30.99868-1.99316-3.78413m-225.628 34.78358h-4.65916L4 87.45206h4.1201zm36.67233-11.00276l15.24446-53.31594H83.329l-18.1697 63.37637zM41.47806 87.45207h4.38948l19.024 64.595H60.472l-18.994-64.595" class="cls-2"/></svg>