<svg xmlns="http://www.w3.org/2000/svg" role="img" viewBox="77.69 78.69 588.12 486.62"><path fill="#FFF" d="M503 642H1V1h742v641H503m-87.74344-522.20238s.13504-.04916-.04419-.65752c-.61291-.8397-1.22583-1.67941-1.9053-2.3847 0 0 .13904-.05623-.04831-.62177-.38626-.43157-.77252-.86314-1.198-1.20964 0 0 .09274-.0131-.08578-.694-.93314-1.11847-1.94208-2.1827-2.78742-3.36398-6.84744-9.56835-15.4356-16.84629-26.88022-20.27271-1.85241-.5546-3.88873-.49502-4.89886-.61114 2.80093 3.84987 6.40417 7.40984 8.30307 11.72056 3.31293 7.52094 5.57654 15.50412 8.20492 24.11492.67627 3.06882 1.35257 6.13762 1.93756 10.08016.7157 5.03387 1.43143 10.06775 1.99448 15.90716.17792 2.12859.3558 4.25719.37009 7.06314.11297.67794.22598 1.35585.1928 2.54694.07313.16212.14625.32423-.04977.98266.08951.54384.17902 1.08768.0135 2.4697.12014 2.02615.24026 4.05232.03591 6.92004.00232 2.39335.0046 4.78667-.22003 8.01343-.00858 1.7257-.01712 3.4514-.25055 6.03644-.05783 2.0684-.11566 4.13676-.4336 6.98552-.01583 1.08612-.0317 2.17223-.40154 3.94255-.24704 2.37157-.49408 4.74313-1.04648 7.77493-.35727 2.48755-.71457 4.9751-1.33133 8.20726-.42508 2.0789-.8502 4.15783-1.65103 6.78057-.7447 2.81837-1.48935 5.63673-2.71433 8.9082-.48135 1.4922-.96274 2.9844-1.96533 4.9194-1.15256 2.54657-2.30512 5.09314-4.03686 7.95082-1.14487 1.87906-2.28974 3.75812-3.99851 5.94384-1.45883 1.57302-2.91766 3.14607-4.94275 4.99414-1.35165.90645-2.70334 1.8129-4.47693 2.16856-4.69146-5.80366-9.38293-11.60734-14.02563-18.14227-1.57749-3.78421-3.15494-7.56842-4.72806-12.12833-.71848-2.38571-1.43698-4.77142-2.0918-7.95521-.64004-2.75695-1.28009-5.51387-1.81964-9.07497-.39032-2.05455-.7806-4.10909-1.01996-6.8465-.35092-.7821-.70184-1.5642-1.15017-3.22367-.03922-2.347-.07843-4.694.03717-7.83068-.10279-1.06405-.20557-2.12813-.18372-4.07327-.17718-2.35462-.3544-4.70923-.2944-7.68134-.13169-.85173-.26337-1.70346-.28403-3.41527-.0758-2.02206-.15161-4.04414-.10538-6.97277-.01574-3.07262-.03152-6.14522.07004-9.9479-.02508-.75016-.05014-1.50033.30615-2.92665.06952-2.3883.13904-4.7766.3155-7.94212.33618-1.74833.67239-3.49667 1.05636-6.0212.32443-1.74357.6489-3.48714 1.29828-5.94459.24365-2.10129.48733-4.20259 1.044-6.9794.56476-2.75072 1.12952-5.50143 2.22648-8.7407 1.13198-3.52495 2.26397-7.04992 3.94177-11.00857l9.08874-17.5733c-11.61157 2.76124-20.56936 8.86842-28.14535 18.4091-2.82605 4.20146-5.65207 8.40291-9.02295 13.00563-1.83527 3.52678-3.67053 7.05355-6.03711 11.00748-1.17307 2.8453-2.34613 5.69061-4.03073 8.99216-1.12445 2.86809-2.24887 5.73616-3.69019 9.23369-.57974 1.78175-1.15948 3.56352-2.23745 5.84733-.8703 2.80568-1.7406 5.61136-3.1416 8.9266-.45023 2.19212-.90046 4.38425-1.83155 7.1265-.55173 2.45586-1.10342 4.9117-2.1076 7.96-.8284 3.8236-1.65677 7.64721-2.92078 12.07774-.505 2.80586-1.01004 5.61174-1.84302 9.10078-.26172 1.75588-.52346 3.51175-1.19973 5.87482-.16306 1.47115-.32615 2.94229-.89936 5.06984-.55151 3.77426-1.10303 7.5485-2.038 11.99478-.21789 2.09972-.43581 4.19943-1.0475 6.97482-.1811 2.11908-.3622 4.23816-.9178 7.06195-.53167 5.44457-1.06335 10.88913-1.85516 16.86644-.00912.78124-.01822 1.56249-.8064 2.2673-2.35989 1.67693-4.71978 3.3539-7.7496 5.16143-3.72995 2.94842-7.45987 5.89685-11.81558 9.1225-2.81033 2.28177-5.62067 4.56354-9.02313 7.0752-1.50424 1.34966-3.00849 2.69936-5.13483 4.40798-3.07564 2.69663-6.15126 5.39325-9.8431 8.40354-2.84165 2.6401-5.68328 5.28024-9.10458 8.15368-1.43621 1.4723-2.87243 2.94458-4.9173 4.75751-1.97897 2.10342-3.95794 4.20685-6.45147 6.5123-.64638.7078-1.29274 1.41559-2.51875 2.45093-.85016.99624-1.70034 1.99249-2.53089 3.03186 0 0-.01819-.05524-.61032.24716-2.0388 2.35379-4.0776 4.70758-6.67833 7.39291-5.90008 7.92838-11.80015 15.85675-18.2687 24.21768-.80192 1.40116-1.60381 2.80228-2.99827 4.50312-.72796 1.59457-1.45593 3.18911-2.42762 4.98324 0 0 .0909.30164-.4716.7649-7.6649 15.51873-12.8208 31.2941-5.97954 47.71832 1.76574-4.36127 3.54653-8.98023 5.51335-13.51856.89836-2.07293 2.16359-3.9869 3.81262-6.10275.38123-.36237.76245-.72473 1.54114-1.3281 0 0 .12841-.44668-.10909-.65258 0 0 .20397.23916.7648-.0527.76253-.99488 1.52504-1.98972 2.90093-3.2439 3.0514-3.10315 6.10281-6.2063 9.72214-9.5666 5.2851-4.35839 10.57023-8.71676 16.49089-13.22222 1.71353-1.58316 3.42704-3.16632 5.88012-4.7493 2.39496-1.39502 4.78992-2.79004 7.84285-4.27414 1.45716-.94873 2.9143-1.89743 5.0688-2.95346 1.98078-1.26898 3.96155-2.53796 6.59296-3.74783 1.54033-.82886 3.08066-1.65775 5.29971-2.6009 2.7193-1.42996 5.4386-2.85992 8.72605-4.36102.87372-.44522 1.74746-.89044 3.31592-1.36361 1.78817-.93525 3.57638-1.87049 6.126-2.87577 2.73517-1.01083 5.47037-2.0217 8.94959-3.02896 2.07568-.68912 4.15136-1.37823 6.98596-2.0415 2.10867-.61365 4.21738-1.22733 7.11453-1.87393 1.74765-.3133 3.49533-.62659 6.09323-1.01193 2.0033-.06928 4.00656-.13853 6.88657-.13752 2.05096.00531 4.10193.0106 6.92557.13474 2.07156.31378 4.1431.62753 6.6719 1.45996 2.19507.81198 4.3901 1.624 6.46057 3.19732-1.85507 5.59757-3.71014 11.19513-5.53631 16.83527 0 0-.0253-.03653-.40543.38513-.54675.99631-1.09347 1.99265-2.11957 3.44074-.66678 1.07702-1.33352 2.15408-2.5954 3.58264-2.06841 2.56705-4.13687 5.1341-6.68438 7.89746-.54056.65433-1.08109 1.30869-2.23175 2.20029-1.1976 1.26153-2.39523 2.5231-4.19287 3.9931-1.37372 1.31143-2.74744 2.62286-4.7461 4.14142-1.8064 1.58179-3.61279 3.16357-5.9527 4.84164-.23116.26697-.4623.5339-1.32696.96549-1.56134 1.24652-3.12271 2.493-5.1614 3.81949-.35001.31616-.70002.63232-1.69376 1.12167-1.3982 1.05063-2.79642 2.10126-4.84043 3.31497-1.6471 1.16812-3.29416 2.33625-5.51938 3.61044-.97876.6677-1.95752 1.3354-3.62332 2.12583-2.34405 1.55154-4.6881 3.10309-7.61194 4.7145-1.25106.70567-2.5021 1.41132-4.43325 2.22062-1.78568.94604-3.57138 1.89212-6.02098 3.00876-1.7973.97857-3.59458 1.95715-6.07956 2.9581-1.41375.64007-2.82749 1.28015-4.94715 1.9883-1.7241.69675-3.4482 1.3935-5.90634 2.1518-3.10324 1.29334-6.20648 2.58664-10.11798 3.8902-4.38327 1.0097-8.76652 2.01941-13.97555 3.03995l-23.10413 2.32583c3.77942 2.832 6.6214 6.04743 10.17358 7.40613 8.40686 3.21564 17.1511 5.54929 26.69353 8.24164 5.6905-.00455 11.38101-.0091 17.98402-.00601 4.36092-.34464 8.72184-.68927 13.89696-1.01141 2.40262-.36136 4.80527-.72272 7.94467-1.10987 2.09717-.5416 4.19437-1.08322 7.10303-1.72366 2.38202-.42829 4.76407-.85657 7.89548-1.30219 2.78555-.76846 5.57107-1.5369 9.12536-2.49572 2.38227-.65967 4.7645-1.31934 7.93137-2.07395 2.39719-.7362 4.79434-1.47241 7.9374-2.22784 2.43089-.81278 4.86173-1.62555 8.06068-2.5839 2.79165-.95819 5.58334-1.9164 9.10754-3.04373 2.03037-.7778 4.06073-1.5556 6.72559-2.35397 1.14715-.45972 2.29428-.91947 4.18841-1.54022 2.41742-.96231 4.83484-1.9246 8.00376-3.0557 2.50161-1.08624 5.00326-2.17251 8.21276-3.3252 2.31595-1.03704 4.63187-2.07406 7.6781-3.16277 3.14237-1.43714 6.28473-2.87427 10.10016-4.47852.63782-.27054 1.27567-.54104 2.649-.60455 2.77514 1.1232 5.55025 2.2464 8.85232 3.8222 3.5506 1.43259 7.1012 2.86515 11.1691 4.76572 3.16299 1.17328 6.32601 2.34653 10.0244 3.97012 2.48564.85422 4.9713 1.70844 7.99686 3.02445 3.48954 1.17444 6.97907 2.34887 11.05082 3.9352 3.80703 1.18537 7.61404 2.37077 12.04626 3.92661 2.1185.5666 4.23697 1.13318 6.9426 2.13623 3.14532.81131 6.29062 1.62262 10.08178 2.75702 1.39939.3606 2.79874.72122 4.69864 1.65442 2.5491.3722 5.0982.74436 8.30591 1.49039 7.11603 1.16327 14.23209 2.32657 22.14447 3.73736 5.39557.30439 10.79114.60874 16.9032 1.13785 6.76471-.50946 13.52942-1.01895 21.09308-1.46603 12.1806-2.56561 23.42218-6.79862 31.09015-17.66608-8.52655 4.32346-17.22675 2.1647-26.60889.8252-3.38928-.7868-6.7785-1.57361-10.72534-2.78064-4.92072-1.63068-9.8415-3.26136-15.26208-5.25003-3.41294-1.36075-6.8259-2.72147-10.67438-4.6214-2.1887-.982-4.37741-1.96402-7.00843-3.34946-1.86682-.93423-3.73367-1.8685-6.10144-3.28992-2.09686-1.13275-4.19375-2.26547-6.66977-3.84439-1.20465-.6485-2.40933-1.29696-3.99682-2.51855-2.6474-1.61731-5.2948-3.23459-8.33392-5.29569-1.79923-1.16903-3.59848-2.33807-5.76096-3.98999-1.21399-.80392-2.42798-1.60788-3.99585-2.9314-1.51108-1.07205-3.02216-2.14407-4.86926-3.78054-1.53025-1.1778-3.06046-2.35562-4.95862-4.09491-2.92075-2.58707-5.84146-5.17413-8.92807-8.31076-.9517-.79166-1.90335-1.58335-2.92667-3.004-1.00348-1.30884-2.00696-2.61764-3.2781-4.55292-2.24216-3.16092-4.48435-6.3218-6.74701-10.19113-.6749-1.71722-1.3498-3.43442-2.02716-5.94943-.66459-3.20074-1.32917-6.40149-1.19703-9.82806 7.05768-1.1918 14.1154-2.38361 22.05707-3.34827 2.72379.26541 5.44754.53082 8.78061 1.07855 3.11487.63416 6.2297 1.26831 9.94672 2.31378 2.13516.57096 4.27032 1.14188 6.90335 2.18973 2.15979.71668 4.31958 1.43332 7.02124 2.51984.82126.2594 1.64252.5188 3.03406 1.25192 1.146.41232 2.29199.82461 3.85412 1.65616 1.0872.38882 2.17438.77765 3.7288 1.68643 1.3004.51077 2.60082 1.02155 4.34536 2.0325 2.5113 1.15488 5.02258 2.30975 7.8397 3.87253.46905.19083.9381.38165 1.86956 1.08664 2.27112 1.15698 4.54224 2.31396 7.27261 3.92123 1.13867.62744 2.27732 1.25492 3.85254 2.3549 2.86472 1.7001 5.72946 3.4002 8.93936 5.66302 1.85938 1.16705 3.7187 2.3341 5.9383 4.06903 2.24945 1.49453 4.49884 2.98904 6.87127 5.0918 1.30573 1.06909 2.6114 2.1382 4.2096 3.80725 2.2273 1.8073 4.45459 3.61465 6.98498 6.01412 3.24152 3.13788 6.48304 6.2758 9.79645 10.10526 3.81037 5.67026 7.62073 11.34049 12.37146 18.41016 3.09802-13.28724 1.83026-24.85215-3.52002-36.85715-2.62225-4.77762-5.2445-9.55524-7.9735-15.02442-2.31-3.42501-4.61994-6.85006-7.2054-10.89974-2.16448-2.21665-4.32897-4.4333-6.52257-7.3578-1.70582-2.38064-3.41169-4.76131-5.4112-7.71954-1.43-1.49646-2.86005-2.99292-4.61285-5.10293-3.27277-3.43945-6.5456-6.8789-10.20026-10.8798-1.6991-1.56713-3.3982-3.13427-5.58151-5.19332-1.59012-1.4159-3.18027-2.83182-4.96997-4.86557-.93817-.81067-1.87635-1.62131-3.20206-3.01514-3.58948-3.0946-7.17895-6.1892-10.97607-9.72702-.69052-.49579-1.38105-.9916-2.39856-2.07211-2.0355-1.59803-4.07102-3.19608-6.47904-5.35846-1.79098-1.3624-3.58197-2.7248-5.70288-4.66294-1.1575-.49282-2.31497-.98565-3.59811-2.16949-3.99482-3.1428-7.9896-6.28558-12.31845-9.9971-2.5842-1.78803-5.1684-3.57608-7.62476-6.14789-.19836-2.04626-.3967-4.09253-.68112-7.0571-.5791-5.022-1.15824-10.04402-1.6842-15.8633-.76957-4.3589-1.53913-8.7178-2.27976-13.9451-.25134-1.41827-.50266-2.83652-.70831-5.03638-.66788-3.24268-1.33579-6.48536-2.02622-10.64534-.80566-3.49703-1.61133-6.99407-2.45135-11.30184-.4541-1.74713-.9082-3.49426-1.32083-6.01753-.94156-3.40175-1.88312-6.80351-2.82209-10.986-.73956-2.4123-1.47912-4.8246-2.2116-7.99688-1.12165-3.37132-2.24326-6.74265-3.4882-10.85709-2.49194-6.12648-4.98385-12.25296-7.5262-19.09863-1.78575-3.4766-3.57148-6.95323-5.58647-11.08898-.92535-1.54402-1.85073-3.08804-3.12024-4.54842 0 0 .3251-.1404.11887-.67463-.34738-.43499-.69473-.86997-1.0949-1.1713m68.30224 432.84476c.48056.10816.96115.21637 2.18048.52631 3.08578-.06811 6.17157-.13629 10.03564-.14563.22446-.3919.44892-.78381.93839-2.0606v-29.95911h11.77765v-10.57642h-36.9787v11.01434h12.03668c0 10.4831 0 20.45447.00986 31.20111m-219.81995.52887c3.08652-.06805 6.173-.1361 10.06049-.1477.23376-.40015.46753-.8003.95126-2.08527v-29.95117h11.72159v-10.54175h-36.90863v10.8487h12.04596c0 10.4251 0 20.50995.00009 31.34662.46365.109.9273.21801 2.12924.53057m123.3451-42.20266v20.43472c-4.42344-6.0086-7.65027-12.17249-11.15375-18.17493-.77643-1.33023-2.4451-2.80633-3.84995-2.97256-3.5687-.42224-7.22073-.14032-10.89837-.14032v42.81705h12.2727V531.4317c3.23315 4.23377 6.27158 8.33234 7.96832 12.92645 3.04584 8.24695 8.70743 10.2785 17.25952 8.6786.16843-.35645.33686-.7129.77674-1.96894-.08502-13.01862-.17002-26.0373-.15448-39.92096-3.83084-.25674-7.66168-.51349-12.22074-.17825M99.66652 549.09802c1.08086 1.35913 2.01293 3.69959 3.27094 3.89038 3.53616.5362 7.20655.18708 10.78151.18708 1.44743-8.04804 2.79439-15.53742 4.14134-23.02686.3214.04382.64278.08759.96417.1314l4.14637 22.61335h13.04087l11.90906-42.60406h-13.06104l-5.02368 24.31537c-.2749-.02857-.54982-.05707-.82472-.08564a9751677.0811 9751677.0811 0 0 1-4.69576-24.22119h-11.68304l-4.74438 23.60431c-.31903-.0075-.63806-.01501-.9571-.02258l-4.80093-23.45258h-12.9768c3.47652 12.88056 6.85164 25.3855 10.51319 38.67102m542.56291-34.36438v16.1192c-4.26526-5.70654-7.42108-11.6527-10.76806-17.4892-.73621-1.2838-2.07001-2.9822-3.26935-3.10406-3.89325-.39554-7.85187-.14786-11.78028-.14786v42.75858h12.54407v-22.78033c4.237 7.55047 7.63849 13.7724 11.23047 19.88232.7508 1.27698 2.12073 2.91522 3.35101 3.04907 3.70056.40283 7.47296.1452 11.0274.1452v-43.05822c-3.20458 0-6.04412.19555-8.84423-.05307-3.01178-.26737-3.88196 1.04-3.49103 4.67837m-310.8479 22.15051h6.89472v-10.49877h-20.1579l.35571-5.40992h21.72092v-10.64474h-35.00522v42.49667h35.61023v-10.86944H318.5664v-5.07373c4.20205 0 8.0282 0 12.81512-.00007m207.13971-26.76992h-11.2995v42.8298h35.6994v-10.9201H540.4342v-5.10535h19.72498V526.4229h-19.95532l.25628-5.40667h21.79023V510.1142c-7.789 0-15.26282 0-23.72913.00003m-103.5505 14.53225c-1.15122-1.20733-2.30247-2.4146-3.45371-3.62188 1.69958-.73108 3.34543-1.71424 5.12018-2.09271.96676-.20618 2.67074.27667 3.15725 1.0244 3.86872 5.94697 9.31327 2.1858 14.2339 3.26283-.38624-6.29175-2.99198-10.2591-8.11427-12.31223-6.27765-2.5163-12.673-2.60654-18.94784.01996-5.62513 2.35446-8.37235 6.97067-8.1777 12.9954.1871 5.79052 3.90872 8.50225 8.76757 10.16607 4.0827 1.398 8.28794 2.45746 12.30826 4.0061 1.09964.42359 2.47409 2.14447 2.37372 3.13318-.11032 1.08685-1.60083 2.44488-2.79727 2.93542-4.04548 1.6587-7.19837-.16143-9.8068-5.15765H417.0572c.11826 4.91254 1.92014 8.62378 5.61685 11.37628 6.93134 5.16095 20.89151 5.11084 27.87772-.0625 8.18231-6.05902 7.0006-17.83795-2.38211-21.76873-3.95206-1.65565-8.25873-2.46479-13.19892-3.90394m-213.89996 5.9071v-9.33813h11.78076v-10.76931h-36.76538v11.04531h11.84464v31.32471h13.14029c0-7.32342 0-14.30108-.00031-22.26257m-43.41287 12.87v-33.07242H164.3921v42.61856h13.26625c0-3.00507 0-5.79017-.00044-9.54615m418.34259-5.92663v-27.0917h-13.00623v42.38485h13.00623v-15.29315z"/><path fill="#1D1C21" d="M99.5233 548.7077c-3.51833-12.8952-6.89345-25.40014-10.36996-38.2807h12.97679l4.80094 23.45258c.31903.00757.63806.01507.9571.02258 1.57454-7.83368 3.1491-15.66742 4.74437-23.6043h11.68303l4.69577 24.22118c.2749.02857.54982.05707.82472.08564l5.02368-24.31537h13.06104l-11.90906 42.60406h-13.04087l-4.14637-22.61334c-.32139-.04382-.64278-.08759-.96417-.1314-1.34695 7.48943-2.69391 14.97881-4.14134 23.02685-3.57496 0-7.24535.34912-10.7815-.18708-1.25802-.1908-2.19009-2.53125-3.41417-4.2807zm542.70607-34.4444c-.39087-3.16802.4793-4.4754 3.49109-4.20803 2.8001.24862 5.63965.05307 8.84424.05307v43.05822c-3.55445 0-7.32685.25763-11.0274-.1452-1.2303-.13385-2.60023-1.7721-3.35102-3.04907-3.59198-6.10992-6.99347-12.33185-11.23047-19.88232v22.78033h-12.54407v-42.75858c3.9284 0 7.88703-.24768 11.78028.14786 1.19934.12186 2.53314 1.82025 3.26935 3.10407 3.34698 5.83648 6.5028 11.78265 10.76806 17.4892 0-5.37305 0-10.74616-.00006-16.58954z"/><path fill="#1A191E" d="M399.20413 512.0119c.08502 13.01862.17002 26.0373-.12704 39.60529-.60916.81256-.83628 1.07574-1.06342 1.33893-7.88333 1.68054-13.54492-.35102-16.59076-8.59797-1.69674-4.59411-4.73517-8.69268-7.96832-12.92645v21.50086h-12.2727V510.1155c3.67764 0 7.32968-.28192 10.89837.14032 1.40485.16623 3.07352 1.64233 3.84995 2.97256 3.50348 6.00244 6.73031 12.16632 11.15374 18.17493 0-6.81158 0-13.62317.58994-20.33899 4.23672.37967 7.88348.66364 11.53024.94757z"/><path fill="#1C1A1F" d="M330.90115 536.88415c-4.30655.00007-8.13269.00007-12.33474.00007v5.07373h22.23358v10.86944h-35.61023v-42.49667h35.00522v10.64474h-21.72092l-.35571 5.40992h20.1579v10.49877h-7.3751z"/><path fill="#1A191E" d="M539.01752 510.1142h23.23285v10.90204h-21.79023l-.25628 5.40667h19.95532v10.49567H540.4342v5.10535h22.48694v10.9201h-35.6994v-42.8298c3.7627 0 7.53113 0 11.79578-.00003z"/><path fill="#1D1C21" d="M435.3681 524.76904c4.54282 1.3166 8.84949 2.12573 12.80155 3.78138 9.38272 3.93078 10.56442 15.70971 2.3821 21.76873-6.9862 5.17334-20.94637 5.22345-27.8777.0625-3.69673-2.7525-5.4986-6.46374-5.61686-11.37628h12.57684c2.60843 4.99622 5.76132 6.81635 9.8068 5.15765 1.19644-.49053 2.68695-1.84857 2.79727-2.93542.10037-.9887-1.27408-2.7096-2.37372-3.13318-4.02032-1.54864-8.22556-2.6081-12.30826-4.0061-4.85885-1.66382-8.58047-4.37555-8.76758-10.16608-.19464-6.02472 2.55258-10.64093 8.1777-12.9954 6.27485-2.62649 12.6702-2.53625 18.94785-.01995 5.12229 2.05313 7.72803 6.02048 8.11426 12.31223-4.92062-1.07703-10.36517 2.68414-14.23389-3.26282-.4865-.74774-2.19049-1.2306-3.15725-1.02442-1.77475.37848-3.4206 1.36164-5.12018 2.09272 1.15124 1.20727 2.30249 2.41455 3.85107 3.74444z"/><path fill="#051019" d="M435.99231 323.78458c-7.05768 1.1918-14.11539 2.3836-21.61172 3.44867-.43866-.12674-.85267-.3815-.84403-.84-1.47797-10.4241.6311-19.9273 3.9692-29.53122 1.60734-3.10403 2.96418-5.98148 4.56309-9.10245 1.58389-2.37137 2.92572-4.49924 4.53882-6.79236 1.32815-1.73147 2.38504-3.29763 3.74472-4.99188 1.73114-1.47473 3.15948-2.8214 4.60952-3.76233 2.26548 8.31113 4.95255 16.14756 4.03345 24.57263-.982 9.00174-2.00049 17.99946-3.00305 26.99894zm-79.12494-86.7825c4.69147 5.80368 9.38294 11.60736 14.25629 18.01336-.6153 1.32416-1.4125 2.04602-2.55048 2.86157-8.27176 5.62198-17.29394 8.20618-27.11615 9.78284-4.11972.0758-7.78784.21927-11.86807.23596-2.12494-.25567-3.8377-.38452-5.7586-.60882-.2081-.0954-.65833-.0123-.94865-.14514-1.4967-.44077-2.70312-.74872-3.69201-1.34143 1.7878-1.53498 3.87-2.47443 4.84732-4.08454 7.67566-12.64496 18.47265-21.01059 32.83035-24.7138z"/><path fill="#222125" d="M272.99838 552.9671c-3.08652.06806-6.173.13611-9.79083-.15375-.88687-.5468-1.24243-.73571-1.59802-.92456v-30.59472h-12.04596v-10.8487h36.90863v10.54175h-11.7216c0 10.1742 0 20.06268-.42584 30.5191-.72602.86554-1.02619 1.16321-1.32639 1.46088zm221.99826-.0028c-3.08578.06811-6.17157.13629-9.7984-.15827-.91043-.55469-1.27988-.74683-1.64929-.9389v-30.42585h-12.03668v-11.01434h36.9787v10.57642h-11.77765c0 10.16992 0 20.06451-.4242 30.523-.71359.85523-1.00305 1.14661-1.29248 1.43793z"/><path fill="#1A191E" d="M221.07092 531.04547c.00016 7.4696.00016 14.44727.00016 21.7707h-13.1403v-31.32472h-11.84463v-11.04531h36.76538v10.76931h-11.78076c0 3.43012 0 6.3841.00015 9.83002z"/><path fill="#94ACB2" d="M431.1611 361.43506c2.92072 2.5871 5.84143 5.17416 8.64469 8.2492-.71067 1.28055-1.19892 2.18607-1.91263 2.84882-12.0224 11.16525-25.68936 19.40265-41.72202 23.4678-5.14795 1.3053-10.23913 2.8345-15.35629 4.26127-2.77515-1.1232-5.55026-2.2464-8.64896-3.87781-.35019-2.4147-.37683-4.3212-.02005-6.40009 1.4983-.44125 2.60096-.86767 3.7299-.95544 17.96184-1.39615 34.21719-7.4624 48.47979-18.39157 2.91019-2.23001 4.56958-6.09232 6.80557-9.20218z"/><path fill="#C0CFD3" d="M418.0639 343.84592c2.2422 3.16089 4.48438 6.32177 6.58124 9.98843-12.71783 14.40735-28.6655 21.27942-47.0556 23.21857-2.6203.27624-5.15866 1.32916-7.9343 1.7781-.60907-1.43423-1.0188-2.6239-1.43985-4.20163-.83413-2.80923-1.65698-5.23043-2.45697-7.89343.02286-.24173.0983-.72146.52384-.76623 3.53988-.35047 6.64837-.74854 9.76956-.9465 17.02765-1.08005 31.31772-7.55198 42.01208-21.17731z"/><path fill="#0D333C" d="M196.77307 348.28345c5.90009-7.92835 11.80016-15.85672 17.9645-23.529 1.65617 7.2924 2.75459 14.4044 4.54502 21.33774 1.15848 4.48624 3.32914 8.71112 5.04624 13.0531-5.28513 4.35837-10.57026 8.71674-16.5446 13.05005-2.02033-1.78918-3.82905-3.3691-4.59351-5.35168-2.35367-6.10407-4.3081-12.36203-6.41765-18.56021z"/><path fill="#0E272E" d="M455.0015 326.99277c-3.11487-.63419-6.22971-1.26834-9.73334-2.47684-.53202-2.17563-1.12924-3.89536-.7472-5.35956 3.30924-12.68289 3.85944-25.56662 1.16572-38.2589-.95627-4.5058-1.15253-10.52833-6.75565-13.2855 1.24106-1.3677 2.35248-2.43146 3.76062-3.60385 1.9495-1.46332 3.6023-2.81803 5.5299-4.23096.77519-.30179 1.27558-.54532 1.77528-.36426 1.02676 4.53739 2.2193 8.61722 3.04657 12.76984 1.62646 8.16415 4.08877 16.34308 4.29174 24.56317.2483 10.05695-1.46728 20.16239-2.33365 30.24686z"/><path fill="#051019" d="M365.85672 366.0145s-.07544.47973-.43515.644c-2.16193-1.86452-3.94476-3.18005-6.9654-4.01693-8.87524-2.45892-17.73754-5.30048-24.7131-12.13852-2.4216-2.37393-6.2291-3.3341-9.4036-4.94 1.85508-5.59756 3.71015-11.19513 5.93128-17.18353.76807-.36454 1.17008-.3382 1.80872-.05256 10.8754 4.71702 18.69678 12.53473 25.648 21.8064 2.44337 4.62894 4.7999 8.9452 7.14399 13.55072.32016.96967.65271 1.65006.98526 2.33042z"/><path fill="#E0E8EA" d="M364.88391 363.3948c-2.35654-4.31625-4.71307-8.6325-7.0213-13.69705 1.548-1.30575 3.17001-2.55609 4.529-2.31628 19.05721 3.3631 34.09753-3.40393 46.35708-17.75934 1.12793-1.3207 3.16458-1.86536 4.77923-2.77038 0 0 .414.25476.45432.49441.70486 3.4404 1.36944 6.64114 1.6867 10.2814-.6579.55204-1.07113.5731-1.26434.79007-11.85089 13.30942-26.26602 20.83042-44.49243 19.5469-4.20688-.29623-5.24005 1.87412-5.02826 5.43028z"/><path fill="#222125" d="M177.65811 543.90906c.00023 3.2705.00023 6.0556.00023 9.06067h-13.26625v-42.61856h13.2658c0 10.97592 0 22.0242.00022 33.55789z"/><path fill="#94ACB2" d="M283.77152 262.8122c2.35989-1.67695 4.71978-3.35392 7.7316-5.10227 1.65096.48099 2.65002 1.03339 3.60781 2.03851-1.14334 3.8837-2.42178 7.26953-3.3133 10.75434-2.31796 9.06112-5.87988 18.10183-6.29427 27.2705-.43674 9.66187 2.1975 19.46256 3.49005 29.20261-2.07568.68909-4.15137 1.3782-6.76569 1.7348-1.11108-1.49682-2.03775-2.61435-2.19882-3.833-1.09973-8.3208-2.40714-16.6417-2.88846-25.00623-.28036-4.87152.35184-9.93912 1.46454-14.71072 1.3808-5.92133 3.80472-11.59253 5.50235-17.45166.42761-1.47596-.19556-3.25638-.33581-4.89688zm166.22598-3.82389c-.50037.24353-1.00077.48706-1.93323.50345-1.52939-1.67554-2.7366-3.05423-3.70688-4.58324-9.45215-14.89558-22.96567-24.90849-38.7923-32.02017-3.84585-1.72813-8.06521-2.62497-12.11288-3.90404.4251-2.07891.85022-4.15783 1.8349-6.60961 6.68365 1.68551 13.25214 2.93573 18.82333 5.9994 7.58777 4.17258 14.81803 9.25015 21.44669 14.83557 5.86557 4.94241 10.6983 11.11064 15.98703 16.73769.19833 2.04626.39667 4.09253.3906 6.7941-.78202 1.18582-1.35963 1.71633-1.93726 2.24685z"/><path fill="#081A23" d="M356.89175 236.63644c-14.38208 4.06885-25.17907 12.43448-32.85473 25.07944-.97733 1.6101-3.05951 2.54956-5.21762 4.13046-1.33042.29282-2.07303.25492-3.12888.03952-1.94086-.52905-3.56848-.88064-5.40646-1.43182-.56268-.3566-.91504-.51364-1.20233-.99173.6872-1.07501 1.40643-1.7688 1.91711-2.59195 9.12286-14.7039 21.42954-25.64749 37.54822-32.24217 1.47183-.60219 2.43652-2.4439 3.63669-3.71 1.57745 3.78422 3.1549 7.56843 4.708 11.71825z"/><path fill="#1B3338" d="M295.15216 259.29568c-.99902-.55236-1.99808-1.10476-3.25949-1.54754-.2533-.6716-.2442-1.45285.18729-2.39905 1.97033-1.33723 3.99594-2.19864 4.99252-3.72978 10.15301-15.59908 22.98862-27.96771 40.53546-35.03574 4.31378-1.73762 9.51291-2.78654 10.5682-8.66708.64005 2.75693 1.2801 5.51385 1.61393 8.87846-1.52927 1.8349-2.56702 3.38544-4.01706 4.21677-2.42352 1.38943-5.36185 1.95244-7.63919 3.51205-6.65357 4.55666-13.19418 9.29575-19.58048 14.22086-7.68475 5.9265-13.5635 13.3769-17.93743 22.24576-2.07538-.57749-3.76957-1.13608-5.46375-1.6947zm154.84467.11722c.5783-.9551 1.15591-1.48562 1.87402-2.2796 2.7247 1.52466 5.3089 3.31271 7.90955 5.73853.00293 2.18975-.30976 3.81012.02667 5.2821 1.63656 7.15991 3.66772 14.23611 5.09997 21.43335.68857 3.46008.75507 7.15918.42102 10.6854-.9125 9.63311-2.18753 19.23184-3.31894 28.8442-2.13516-.57095-4.27032-1.14187-6.70657-1.91845.5653-10.29013 2.28089-20.39557 2.0326-30.45252-.20298-8.2201-2.66529-16.39902-4.29175-24.56317-.82728-4.15262-2.01981-8.23245-3.04657-12.76984z"/><path fill="#839FA6" d="M283.43655 262.8775c.47522 1.5752 1.0984 3.35562.67078 4.83158-1.69763 5.85913-4.12155 11.53033-5.50235 17.45166-1.1127 4.7716-1.7449 9.8392-1.46454 14.71072.48132 8.36453 1.78873 16.68543 2.88846 25.00623.16107 1.21865 1.08774 2.33618 1.82678 3.8312-2.56854 1.34159-5.30374 2.35245-8.44153 2.98944-4.892-17.25253-6.35122-34.16507-1.58285-51.30096.7431-2.67044.08865-5.72977.0805-8.60928 3.72992-2.94846 7.45984-5.89688 11.52475-8.91059z"/><path fill="#1A191E" d="M596.00049 537.99634v14.79376h-13.00623v-42.38486h13.00623v27.5911z"/><path fill="#A6BAC0" d="M393.26434 219.25623c4.23554 1.00715 8.4549 1.90399 12.30075 3.63212 15.82663 7.11168 29.34015 17.12459 38.7923 32.02017.97028 1.52901 2.1775 2.9077 3.43204 4.6415-1.49548 1.64007-3.14829 2.99478-5.46686 4.3998-1.87082-1.25625-3.07623-2.56246-4.28085-3.8694-6.02606-6.53806-11.50281-13.71985-18.21832-19.44985-8.19846-6.99533-17.53067-12.5531-28.98093-12.64734.74466-2.81836 1.48932-5.63672 2.42187-8.727z"/><path fill="#839FA6" d="M451.5011 249.4882c-5.24567-5.16789-10.0784-11.33612-15.94397-16.27853-6.62866-5.58542-13.85892-10.663-21.44669-14.83557-5.5712-3.06367-12.13968-4.31389-18.69357-6.37172-.0726-2.48697.2847-4.97452 1.26172-7.76274 11.12277.77203 20.34476 5.4596 28.87988 11.04784 8.4903 5.5589 16.14255 12.39787 24.16226 18.67555.5791 5.022 1.15824 10.04402 1.78037 15.52517z"/><path fill="#E0E8EA" d="M331.84283 328.06763c-.402-.0263-.80401-.05265-1.50976-.06879-2.49884-.80182-4.69388-1.61383-7.15015-3.06366-7.18698-18.418-5.61499-35.37292 4.56546-51.551 1.01862-1.6187 1.51432-3.5665 2.25272-5.36157 3.66809-.14349 7.33621-.28695 11.47366.02393-.21686 1.6654-.67206 3.1117-1.62683 4.04928-6.18625 6.07499-10.00696 13.33912-11.91934 21.7883-2.3013 10.16746-.04443 19.57328 3.86133 28.88364.63284 1.50855.06549 3.52057.05291 5.29987z"/><path fill="#A6BAC0" d="M295.11093 259.74844c1.73541.10587 3.4296.66446 5.6908 1.41764 1.17141.50686 1.77581.81915 2.33304 1.5715-.39911 1.85776-.62568 3.32147-1.12552 4.685-1.81449 4.94998-4.30158 9.73504-5.45255 14.827-1.62411 7.18517-3.05899 14.58001-3.13516 21.9002-.07285 6.99368 1.69699 14.00653 2.65683 21.01096-2.10867.61364-4.21738 1.22732-6.7055 1.82803-1.672-9.75293-4.30625-19.55362-3.86951-29.21549.4144-9.16867 3.97631-18.20938 6.29428-27.2705.8915-3.4848 2.16995-6.87064 3.3133-10.75434z"/><path fill="#0E272E" d="M303.18195 262.29755c-.6044-.31232-1.2088-.6246-1.99903-1.11261 3.80692-9.0634 9.68567-16.51381 17.37042-22.44031 6.3863-4.92511 12.92692-9.6642 19.58048-14.22086 2.27734-1.55961 5.21567-2.12262 7.63919-3.51205 1.45004-.83133 2.4878-2.38187 3.98523-3.81773.99286 2.17709 1.71136 4.5628 2.42767 7.33636-1.20233 1.65395-2.16702 3.49565-3.63885 4.09784-16.11868 6.59468-28.42536 17.53827-37.54822 32.24217-.51068.82315-1.22992 1.51694-2.29245 2.58551-2.13507-.17639-3.82974-.66736-5.52444-1.15832z"/><path fill="#05242C" d="M324.35394 345.58435c3.16004 1.5846 6.96753 2.54477 9.38913 4.9187 6.97556 6.83805 15.83786 9.6796 24.7131 12.13852 3.02064.83688 4.80347 2.1524 6.94257 4.2587 1.15967 2.49869 1.98252 4.91989 2.36338 7.72644-5.4465-.4101-10.58753-.72366-15.42902-2.0947-12.62265-3.57452-23.16147-10.7878-32.49002-19.86941.66678-1.07703 1.33353-2.15409 2.58142-3.52637 1.02692-1.3859 1.47275-2.47653 1.91858-3.56714 0 0 .0253.03653.01086.01526z"/><path fill="#0D333C" d="M424.98975 138.00014c2.4919 6.1265 4.98382 12.25297 7.09765 18.71412-7.80172-1.7852-15.15286-4.23637-22.68014-5.88179-3.63297-.79413-7.69702-3.7502-11.40607.16695-.71573-5.03387-1.43146-10.06775-1.79709-15.7492 2.42035-.91027 4.56806-1.66195 6.54718-1.34867 7.44257 1.17813 14.83023 2.70337 22.23847 4.09859z"/><path fill="#072C34" d="M424.96454 137.64055c-7.38303-1.03563-14.7707-2.56087-22.21326-3.739-1.97912-.31328-4.12683.4384-6.50152.9118-.98072-2.85809-1.65702-5.9269-2.02-9.63786-.42318-4.57435-1.1597-8.50656-2.10827-13.57126l20.03201 3.30665s-.09274.0131-.06414.3078c.47128.68997.91403 1.08523 1.35675 1.4805 0 0-.13904.05622-.19171.35311.67724 1.09665 1.40722 1.89642 2.1372 2.69618 0-.00001-.13504.04915-.16418.33607.42398.66415.87713 1.04138 1.33029 1.41862 0 0-.3251.1404-.298.4683 1.12548 1.84515 2.22393 3.3624 3.32238 4.87966 1.78574 3.4766 3.57147 6.95323 5.38245 10.78943z"/><path fill="#273C42" d="M348.22638 207.5144c-1.10553 6.28263-6.30466 7.33155-10.61844 9.06917-17.54684 7.06803-30.38245 19.43666-40.53546 35.03574-.99658 1.53114-3.02219 2.39255-4.86246 3.4634.23938-5.54597.77106-10.99053 1.76575-16.61503 4.81363 2.94994 5.85077-1.89468 7.31906-3.62273 10.63089-12.5118 23.57013-21.48425 38.94855-27.13423 2.58847-.95095 6.15988-1.49862 5.86996-5.95236.41568-.42293.70404-.6163.99237-.80967.39032 2.05454.78061 4.10908 1.12067 6.56571z"/><path fill="#072C34" d="M319.54553 352.83838c9.6261 8.90582 20.16492 16.1191 32.78757 19.69363 4.8415 1.37104 9.98251 1.6846 15.44034 2.48273.863 1.19238 1.27273 2.38205 1.85077 4.18774.5107 2.03412.85315 3.45218 1.14535 5.18668-.06576.74158-.0813 1.16675-.43735 1.49768-3.08956-1.01825-5.77786-2.43985-8.59768-2.78415-16.30832-1.99103-30.2504-8.94955-42.676-19.4375-1.65567-1.39752-3.99377-1.98654-6.01587-2.94995 2.06845-2.56702 4.1369-5.13406 6.50287-7.87686z"/><path fill="#839FA6" d="M381.0783 400.48846c4.8537-1.65307 9.9449-3.18228 15.09284-4.48757 16.03266-4.06516 29.69962-12.30256 41.72202-23.4678.71371-.66276 1.20196-1.56828 2.09659-2.56806 1.8317.97055 3.3619 2.14837 4.76391 3.82287-1.4021 2.57712-2.25574 5.14582-4.01617 6.6607-14.1898 12.21049-30.3656 20.60401-48.7439 24.56385-3.55063-1.43255-7.10122-2.86511-10.91528-4.52399z"/><path fill="#273C42" d="M462.25806 329.35535c.88247-9.85083 2.1575-19.44956 3.07-29.08267.33405-3.52622.26755-7.22532-.42102-10.6854-1.43225-7.19724-3.4634-14.27344-5.09997-21.43335-.33643-1.47198-.02375-3.09235.14035-4.99774 4.14538 2.78937 8.14016 5.93216 11.80359 9.50482-.65229 2.36292-1.39942 4.33716-1.21732 6.22162.6504 6.7315 2.2627 13.43121 2.276 20.14542.01264 6.38-1.56705 12.7575-2.3613 19.1467-.5611 4.51382-.97976 9.04537-1.46203 13.569-2.1598-.71665-4.31958-1.4333-6.7283-2.3884z"/><path fill="#C0CFD3" d="M434.94022 271.80725c-1.42835 1.34668-2.8567 2.69336-4.72876 3.83508-3.7482-8.59079-9.63483-15.1434-16.18345-20.95303-8.27026-7.33705-17.91775-12.26424-29.08886-13.69385 1.15256-2.54657 2.30511-5.09314 3.97229-7.56929 21.52786 5.24394 36.7174 17.8462 46.99817 36.8352-.38767.681-.67856 1.11343-.9694 1.5459z"/><path fill="#072C34" d="M501.98932 433.0254c-5.39557-.3044-10.79114-.60874-16.54541-1.37336 3.0209-4.2317 6.63772-7.82108 9.71228-11.8267 2.97635-3.87768 8.39053-6.38512 7.63638-12.55477 4.92075 1.63064 9.84152 3.26132 15.11124 5.4683.36883 1.82848.9085 3.44619.32593 4.27477-4.43152 6.30243-8.47101 13.07617-16.24042 16.01175z"/><path fill="#567B83" d="M247.90118 291.63834c3.07561-2.69663 6.15123-5.39325 9.6004-7.77051.41135 1.3124.62104 2.33401.46134 3.29422-2.56633 15.43158-.58252 30.55877 3.1276 45.54263.33831 1.36643 1.78448 2.45856 2.71621 3.67804-2.71933 1.42993-5.43863 2.8599-8.54706 3.99435-1.67678-3.83666-3.71406-7.29498-4.11612-10.93399-1.38847-12.5676-2.20689-25.19815-3.24237-37.80474z"/><path fill="#CFDADD" d="M384.64954 241.15102c11.46072 1.27404 21.10821 6.20123 29.37847 13.53828 6.54862 5.80963 12.43525 12.36224 15.88065 21.08109-.91595 1.8992-1.97284 3.46536-3.64197 5.06051-2.1318-1.85354-3.87683-3.59784-5.13055-5.64325-4.6604-7.6033-10.01868-14.60232-18.17908-18.61816-7.18332-3.53499-14.67578-6.44164-22.0317-9.62573 1.14486-1.87908 2.28973-3.75814 3.72418-5.79274z"/><path fill="#94ACB2" d="M513.91919 355.0762c-2.86475-1.70007-5.7295-3.40017-8.75754-5.76272 2.19782-11.01749 4.46173-21.39634 6.9863-31.71134.65686-2.68411 2.12756-5.1691 3.22449-7.74554 3.27282 3.43948 6.54565 6.87894 9.58862 10.79013-1.1427 2.47256-2.30011 4.40002-2.92645 6.48688-2.78815 9.28927-5.42426 18.6242-8.11542 27.9426z"/><path fill="#081A23" d="M434.96188 272.21298c.26917-.8382.56006-1.27063 1.2255-2.05307 1.12106-.98132 1.86755-1.61264 2.61404-2.24396 5.73273 2.4532 5.92899 8.47571 6.88526 12.98151 2.69372 12.6923 2.14352 25.57602-1.16571 38.25891-.38205 1.4642.21518 3.18393.44253 5.21839-2.63965.16778-5.3634-.09763-8.52917-.47663.56054-9.11303 1.57904-18.11075 2.56103-27.11248.9191-8.42508-1.76797-16.26151-4.03348-24.57267z"/><path fill="#75949C" d="M449.74731 233.5644c-8.0463-5.87905-15.69854-12.71803-24.18884-18.27692-8.53512-5.58823-17.7571-10.2758-28.72717-11.37796-.22006-2.401.02698-4.77257.90277-7.50144 12.71606 2.55727 24.068 7.12451 34.40567 14.16783 4.96445 3.38242 10.20816 6.35498 15.32544 9.51317.76956 4.35887 1.53912 8.71777 2.28213 13.47531z"/><path fill="#0D333C" d="M502.54266 407.09155c1.00406 6.34867-4.41012 8.85611-7.38647 12.7338-3.07455 4.00561-6.69138 7.595-10.11044 11.70297-7.15552-.82684-14.27158-1.99014-21.4765-3.61691 1.82488-.4635 3.73864-.4635 5.34017-.4635 2.3491-2.02237 4.79734-3.73218 6.75263-5.88886 5.57147-6.14544 10.94217-12.4729 16.39184-18.72873 3.41294 1.36075 6.8259 2.72147 10.48877 4.26123z"/><path fill="#B2C4C9" d="M438.93103 267.612c-.8761.93527-1.62259 1.56659-2.64685 2.29935-10.65533-18.639-25.84488-31.24125-47.11212-36.7066.22735-1.78402.70874-3.2762 1.43024-4.99497 11.69043-.13231 21.02264 5.42546 29.2211 12.42079 6.71551 5.73 12.19226 12.91179 18.21832 19.44984 1.20462 1.30695 2.41003 2.61316 3.98416 3.97806-.74237 1.12204-1.8538 2.1858-3.09485 3.55353z"/><path fill="#E0E8EA" d="M368.91394 257.7833c.79721-.72184 1.59442-1.4437 2.42072-2.49247 1.3807-1.2334 2.73239-2.13984 4.44732-2.8052 1.33795.66577 2.30384 1.1122 3.28876 1.51165 6.95029 2.8187 14.35193 4.86664 20.74756 8.62671 8.57263 5.04001 14.03897 13.24222 18.23715 22.25006.62372 1.3382 2.48343 2.10038 3.7713 3.12906-1.35681 2.87744-2.71365 5.75489-4.72696 8.82431-1.47613-.78451-2.72397-1.63586-3.05142-2.75622-5.26263-18.0033-16.39618-29.6243-35.27783-33.18146-3.36133-.6332-6.57483-2.05096-9.8566-3.10645z"/><path fill="#75949C" d="M271.5989 271.9267c.32105 2.7409.9755 5.80023.2324 8.47067-4.76837 17.1359-3.30914 34.04843 1.20215 51.336-1.7663 1.34408-3.5545 2.27933-5.69587 2.84048-.4202-.8662-.38784-1.39862-.56857-1.8447-5.70236-14.07607-5.70892-28.63125-3.89416-43.40026.42025-3.42032.00885-6.94284-.01987-10.41834 2.81036-2.28174 5.6207-4.5635 8.74393-6.98385z"/><path fill="#DBE4E6" d="M422.06885 287.75958c-1.52997-.78515-3.38968-1.54733-4.0134-2.88553-4.19818-9.00784-9.66452-17.21005-18.23715-22.25006-6.39563-3.76007-13.79727-5.80801-20.74756-8.6267-.98492-.39945-1.9508-.8459-3.00565-1.64918 1.3787-1.95164 2.83753-3.52469 4.57828-5.25103 7.63791 3.03077 15.13037 5.93742 22.3137 9.4724 8.1604 4.01585 13.51867 11.01487 18.17907 18.61817 1.25372 2.04541 2.99875 3.7897 4.85928 5.80854-1.00085 2.26415-2.34268 4.39202-3.92657 6.7634z"/><path fill="#495E64" d="M295.86151 223.93881c.55151-3.77424 1.10303-7.54849 2.13065-11.47363 1.39947.14044 2.66305.96759 3.1893.63347 2.77047-1.75913 5.32696-3.8506 8.00851-5.75519 11.22919-7.97555 23.27902-14.22179 36.79892-17.34232.03919 2.347.0784 4.694-.24023 7.50313-17.43909 4.74636-32.1239 13.21701-44.49414 25.72959-1.61804 1.63667-3.15397 3.84468-5.393.70495z"/><path fill="#CFDADD" d="M316.00372 266.06332c.74265.03794 1.48526.07584 2.5982.06785 1.57667.26196 2.78309.56991 4.23618 1.44067.22345.84976.20017 1.13675-.09732 1.6563-1.1672 2.34312-1.91851 4.52787-2.97815 6.55113-4.29733 8.20532-7.1738 16.87027-6.64376 26.15927.42123 7.38266 1.88162 14.706 2.88067 22.05566-2.05096-.00528-4.10193-.01056-6.58877-.44247-4.63437-14.22641-4.74927-27.94199.43957-41.539 2.03171-5.32389 4.10114-10.63337 6.15338-15.9494z"/><path fill="#05242C" d="M196.48883 348.49976c2.3938 5.98187 4.34822 12.23983 6.70189 18.3439.76447 1.98257 2.57318 3.5625 4.30955 5.48025-2.64613 3.2568-5.69754 6.35996-9.42474 9.61542-1.37918 1.22934-2.08256 2.3064-2.78596 3.38345 0 0-.20397-.23916-.27321-.16662-.18884.10522-.30846.13788-.42807.17056l.20895.65051c-.38124.36234-.76246.7247-1.61062.85169-6.05074-4.95331-7.84194-12.64237-5.16195-19.02853 1.2477-2.97315 1.9147-6.18998 2.84496-9.29636-.00002 0-.09091-.30164.35867-.44745 1.15659-1.80957 1.86359-3.47336 2.57059-5.13715.80191-1.40112 1.6038-2.80224 2.68994-4.41967z"/><path fill="#65787E" d="M492.02445 342.20526c-2.5113-1.15488-5.02259-2.30975-7.7655-4.1344.59801-3.48126 1.63665-6.2504 2.21691-9.1124 1.54172-7.60415 3.37314-15.19876 4.1561-22.89218.64175-6.30545-.05817-12.74746-.16336-19.12893 3.5895 3.0946 7.17898 6.1892 10.53213 9.65317-1.15991 2.44473-2.56936 4.44198-2.91778 6.6098-1.13925 7.08877-1.76209 14.25928-2.83383 21.3606-.89179 5.90908-2.13636 11.76492-3.22467 17.64434z"/><path fill="#446A72" d="M433.00403 419.96637c-3.80704-1.18536-7.61405-2.37076-11.52127-4.03937 4.15399-2.98541 8.6482-5.15942 12.61227-8.05838 8.17969-5.98181 16.14737-12.26324 24.01111-18.6565 1.13907-.92605 1.22192-3.15118 1.79352-4.77517 2.64743 1.61728 5.29483 3.23456 7.83984 5.3284-8.69345 7.92056-17.27295 15.37802-25.88208 22.80115-2.91253 2.51135-5.90008 4.93576-8.8534 7.39987z"/><path fill="#CFDADD" d="M364.87146 363.68408c-.19934-3.84543.83383-6.01578 5.04071-5.71954 18.22641 1.2835 32.64154-6.23749 44.49243-19.5469.1932-.21699.60645-.23804 1.26557-.39115 1.02346 1.67657 1.69836 3.39377 2.38348 5.4652-10.68411 13.97956-24.97418 20.45149-42.00183 21.53153-3.12119.19797-6.22968.59604-9.76956.9465-.75809-.63558-1.09064-1.31597-1.4108-2.28564z"/><path fill="#B2C4C9" d="M370.8198 384.07275c-.34244-1.41809-.68488-2.83615-.99625-4.6257 2.60733-1.06497 5.14569-2.11789 7.76599-2.39413 18.3901-1.93915 34.33777-8.81122 47.18942-22.90534 1.28262 1.1163 2.2861 2.42511 3.20047 4.40915-1.62558 2.39737-3.00146 4.30264-4.7237 5.81296-14.99117 13.1467-32.86227 18.7089-52.43594 19.70306zm-67.68503-121.33517c1.74188.05093 3.43655.5419 5.50659 1.03934.72766.16348 1.08002.32052 1.31726.9024-3.06653 7.9433-7.01535 15.24112-8.73831 23.03125-2.66489 12.04874-1.92438 24.37604.88952 36.47733-1.74765.31329-3.49533.62658-5.63723.95636-1.35407-6.98795-3.1239-14.0008-3.05106-20.99448.07617-7.32019 1.51105-14.71503 3.13516-21.9002 1.15097-5.09196 3.63806-9.87702 5.45255-14.827.49984-1.36353.7264-2.82724 1.12552-4.685z"/><path fill="#C0CFD3" d="M302.53497 324.15186c-3.23904-12.06525-3.97955-24.39255-1.31466-36.44129 1.72296-7.79013 5.67178-15.08795 8.94864-22.83166 1.95309.1263 3.58071.4779 5.52154 1.00695-1.73901 5.4935-3.80844 10.80298-5.84015 16.12687-5.18884 13.59701-5.07394 27.31259-.87793 41.50387-2.00577.46073-4.00903.52997-6.43744.63526z"/><path fill="#1B3338" d="M312.80313 360.81342c2.26163.86523 4.59973 1.45425 6.2554 2.85177 12.4256 10.48795 26.36768 17.44647 42.676 19.4375 2.81982.3443 5.50811 1.7659 8.737 3.1633.5466 1.54437.61334 2.61536.22625 3.70252-15.9368-.01633-30.03915-4.84552-42.98895-12.94059-6.19513-3.87265-13.41015-6.80893-16.76687-14.15332.54055-.65432 1.08108-1.30868 1.86117-2.06118z"/><path fill="#567B83" d="M459.7038 384.21503c-.37574 1.84591-.4586 4.07104-1.59766 4.9971-7.86374 6.39325-15.83142 12.67468-24.0111 18.6565-3.96409 2.89895-8.4583 5.07296-12.90339 7.85244-3.68045-.89716-7.16998-2.0716-10.69821-3.753 1.07104-.80163 2.29574-.88705 3.27258-1.4237 9.07843-4.98742 18.57004-9.40448 26.99613-15.33136 5.28668-3.71866 8.95416-9.73922 13.34811-14.72699 1.79923 1.16904 3.59848 2.33808 5.59354 3.729z"/><path fill="#75949C" d="M392.25223 405.24646c18.11966-4.19385 34.29547-12.58737 48.48526-24.79785 1.76044-1.5149 2.61407-4.08359 4.1842-6.37848 1.80731.85754 3.3184 1.92956 4.95838 3.64404-1.24549 2.67194-2.2525 5.13461-4.05304 6.66168-13.0014 11.02665-27.48706 19.49817-43.82715 24.6244-3.163-1.17325-6.32602-2.3465-9.74765-3.75379z"/><path fill="#3D5258" d="M295.9737 375.99176c1.80639-1.58179 3.61279-3.16357 5.92468-4.58218 3.83334 2.61697 7.21252 5.00451 10.47992 7.53628 12.72961 9.86362 26.5982 17.0809 42.8243 19.25351 1.41459.18942 2.54499 2.50168 3.80738 3.82791-2.31592 1.03705-4.63184 2.07407-7.63382 2.92871-1.63525-.76715-2.51679-1.54626-3.54498-1.90435-5.55433-1.93445-11.55371-3.01865-16.63013-5.80036-8.21729-4.5028-15.76987-10.20373-23.73822-15.1825-3.6647-2.28973-7.6495-4.06722-11.48914-6.07702z"/><path fill="#33474E" d="M359.37512 402.00143c-1.62753-1.30038-2.75793-3.61264-4.17251-3.80206-16.2261-2.1726-30.0947-9.3899-42.82431-19.2535-3.2674-2.53178-6.64658-4.91932-10.16742-7.63984 1.18066-1.57819 2.55438-2.88962 4.55206-4.16034 4.04382 3.10309 7.35535 6.29776 10.9027 9.20462 13.98442 11.45932 30.39848 16.71506 48.09266 18.75876 1.2185.14075 2.27646 1.67102 3.40909 2.55512-3.14237 1.43716-6.28473 2.8743-9.79227 4.33724z"/><path fill="#446A72" d="M398.16534 184.97797c.00855-1.7257.0171-3.4514.46003-5.68573 2.03271-.94971 3.8244-2.08654 5.19442-1.70583 4.75122 1.32031 9.4362 2.97348 13.99878 4.8574 8.23087 3.39855 16.35523 7.05518 24.52405 10.60401.80563 3.49704 1.6113 6.99408 2.0494 10.76276-6.22075-3.00374-12.01601-6.38832-17.94063-9.52895-8.8834-4.70904-18.1587-8.3283-28.28605-9.30366zm-150.57228 106.8172c1.3436 12.44976 2.16202 25.08032 3.5505 37.64792.40205 3.639 2.43933 7.09732 3.77674 10.99111-1.49055 1.18152-3.03088 2.01041-5.30298 2.72168-2.0244-2.10052-4.13035-3.9534-4.47157-6.08838-1.64178-10.27172-2.72894-20.63082-4.20587-30.93127-.30798-2.14798-1.43193-4.17899-2.17984-6.26389 2.84163-2.6401 5.68326-5.28024 8.83302-8.07717z"/><path fill="#081A23" d="M412.06424 114.57044c-6.42734-.73524-12.94397-1.81093-19.94275-2.9662.94858 5.06469 1.68509 8.9969 2.14578 13.16058-2.97918-7.55798-5.2428-15.54116-8.55572-23.0621-1.8989-4.31072-5.50214-7.87069-8.30307-11.72056 1.01013.11612 3.04645.05654 4.89886.61114 11.44461 3.42642 20.03278 10.70436 26.88022 20.2727.84534 1.18129 1.85428 2.24552 2.87668 3.70444z"/><path fill="#213D43" d="M369.5039 397.58063c-1.46914-.80054-2.5271-2.33081-3.7456-2.47156-17.69418-2.0437-34.10825-7.29944-48.09265-18.75876-3.54736-2.90686-6.85889-6.10153-10.60272-9.30887.87369-1.40646 2.07132-2.66803 3.57397-4.04822 3.66178 7.22577 10.8768 10.16205 17.07193 14.0347 12.9498 8.09507 27.05216 12.92426 43.14505 12.98142.60996.02463.90854.14734.90854.14734.02664 1.90646.05328 3.81295.03574 6.12414-.68204.67523-1.31989.94574-2.29425 1.2998m1.07992-4.06487s-.11075.06692 0 0z"/><path fill="#567B83" d="M398.05289 185.40764c10.2398.5457 19.5151 4.16495 28.3985 8.874 5.92462 3.14062 11.71988 6.5252 17.95187 9.98762 1.04675 3.42965 1.71466 6.67233 2.04178 10.24249-5.72562-3.4301-10.84671-7.66109-16.5535-10.8408-10.02792-5.5874-20.1142-11.36954-32.12457-11.62849.05783-2.06839.11566-4.13676.28592-6.63482z"/><path fill="#84969B" d="M345.15411 167.9754c.0758 2.02205.15161 4.04413-.24212 6.5257-9.62119 3.93272-18.80588 7.32205-27.91144 10.912-5.10324 2.012-10.0755 4.35614-15.10678 6.5506.8284-3.8236 1.65677-7.64722 3.05179-11.61397 5.4292-1.77249 10.25824-3.5119 15.16186-5.00653 8.32413-2.53718 16.69531-4.92007 25.0467-7.3678z"/><path fill="#A6BAC0" d="M372.14584 389.98425c-.38342.17243-.682.04972-.8381.00891-.22287-1.11181-.28961-2.1828-.49573-3.63293-.12375-.80432-.10821-1.2295-.04245-1.97107 19.6239-1.31058 37.495-6.87277 52.48618-20.01947 1.72223-1.51031 3.09811-3.41559 4.75952-5.49847 1.0766.43097 2.02826 1.22265 3.0629 2.28906-2.15305 3.38464-3.81244 7.24695-6.72263 9.47696-14.2626 10.92917-30.51794 16.99542-48.4798 18.39157-1.12893.08777-2.2316.51419-3.72989.95544z"/><path fill="#DBDFE1" d="M316.38586 324.05365c-1.38537-7.40912-2.84576-14.73245-3.267-22.11511-.53002-9.289 2.34644-17.95395 6.64377-26.15927 1.05964-2.02326 1.81095-4.20801 3.24329-6.74945.7037-.83643.86813-1.24192 1.03253-1.6474 1.7128.12887 3.42557.25772 5.55048.5134-.32623 1.92187-.82193 3.86965-1.84055 5.48837-10.18045 16.17807-11.75244 33.133-4.79406 51.29165-2.039.06476-4.11054-.249-6.56846-.62219z"/><path fill="#E9EEF1" d="M215.00794 415.00732c4.38327-1.0097 8.76652-2.0194 13.59843-2.68603 4.78244 5.30734 9.19496 10.20627 13.40285 15.27509 1.29066 1.55465 2.0207 3.57473 3.00746 5.3817-5.6905.00459-11.38101.00913-17.57888-.34206-2.17332-2.97153-3.75811-5.64371-5.5258-8.18885-2.22313-3.20095-4.59588-6.29797-6.90407-9.43985z"/><path fill="#05242C" d="M502.34756 433.13776c7.41117-3.04795 11.45066-9.82169 15.88218-16.12412.58258-.82858.0429-2.44629-.04718-4.06466 3.31909.42062 6.7083 1.20742 10.55597 2.49804 2.01263 1.15668 3.56695 1.80951 5.5863 2.65765-.5788 1.36857-.95996 2.57108-1.56519 3.64768-2.3548 4.18903-5.28454 7.84335-9.7597 9.96933-6.76471.5095-13.52942 1.01898-20.65238 1.41608z"/><path fill="#2C535B" d="M438.16275 176.01428c.94153 3.40177 1.88309 6.80353 2.4567 10.53458-3.49787-1.31833-6.48871-3.34996-9.78327-4.5429-10.64007-3.85273-21.3919-7.39697-32.10064-11.0601-.12015-2.02614-.24027-4.0523-.073-6.47235.28741-.3939.59158-.28291.6452-.1021.20068.40383.40463.5447 1.1099.61013 7.14056 1.66935 13.89889 3.11964 20.514 5.0585 5.82681 1.7078 11.49365 3.96156 17.23111 5.97424z"/><path fill="#173E46" d="M397.92487 151.4022c3.78537-4.31992 7.84942-1.36386 11.48239-.56973 7.52728 1.64542 14.87842 4.0966 22.74179 6.25334 1.5614 3.40822 2.68301 6.77955 3.4212 10.52535-3.15219-.63928-5.90863-1.68819-8.6919-2.66037-9.26418-3.23598-18.18423-7.93713-28.49615-6.76006-.17789-2.12858-.35577-4.25718-.45733-6.78854z"/><path fill="#F5F7F9" d="M214.59506 415.01276c2.72106 3.13644 5.09381 6.23346 7.31694 9.43441 1.76769 2.54514 3.35248 5.21732 5.05852 8.18778-8.5678-2.33554-17.31203-4.6692-25.71889-7.88483-3.55218-1.3587-6.39416-4.57412-10.17358-7.40613 8.66983-.87277 15.88698-1.5993 23.51701-2.33123z"/><path fill="#173E46" d="M224.6466 359.07175c-2.03487-4.26844-4.20553-8.49332-5.364-12.97956-1.79044-6.93335-2.88886-14.04535-4.26408-21.50348 2.05552-2.7757 4.09432-5.12948 6.51183-7.2128 3.11067 12.47129 5.84262 24.67203 8.57457 36.8728-1.71352 1.58317-3.42703 3.16633-5.45833 4.82304z"/><path fill="#365D65" d="M433.31665 420.15161c2.64069-2.64935 5.62824-5.07376 8.54077-7.58511 8.60913-7.42313 17.18863-14.88059 26.07352-22.51462 1.49844.45853 2.70312 1.107 4.04178 2.40277-.58768 2.44742-.79761 4.87457-2.11255 5.9479-9.8357 8.02848-19.8898 15.78934-29.87549 23.63407-2.1185-.56659-4.23697-1.13318-6.66803-1.885z"/><path fill="#65868F" d="M402.26758 409.2254c16.07239-5.35138 30.55804-13.8229 43.55945-24.84955 1.80053-1.52706 2.80755-3.98974 4.22998-6.40191 1.26202.42132 2.47601 1.22528 3.87164 2.27063-4.21234 5.22922-7.87982 11.24978-13.1665 14.96844-8.42609 5.92688-17.9177 10.34394-26.99613 15.33136-.97684.53665-2.20154.62207-3.54257 1.19281-2.71689-.57815-5.20254-1.43237-7.95587-2.51178z"/><path fill="#8DA0A5" d="M345.21515 167.52211c-8.41242 2.90102-16.7836 5.2839-25.10773 7.8211-4.90362 1.49462-9.73266 3.23403-14.93564 4.71029.21134-2.60892.76303-5.06476 1.95761-7.78922 2.40485-.64827 4.24054-.82713 5.91602-1.44238 7.23065-2.65512 14.44302-5.36581 21.60309-8.20496 3.59195-1.42431 7.05762-3.16717 10.58038-4.76596.01575 3.07262.03153 6.14522-.01373 9.67113z"/><path fill="#DBDFE1" d="M245.47293 432.98193c-1.443-1.81082-2.17305-3.8309-3.46371-5.38555-4.20789-5.06882-8.62041-9.96775-12.99872-15.28022 3.05873-1.6415 6.16197-2.93481 9.66513-3.9125 5.6967 6.27087 11.02266 12.2005 16.27147 18.19769 1.4716 1.68143 2.71614 3.56152 4.06483 5.3505-4.36091.34463-8.72183.68926-13.539 1.03008z"/><path fill="#A6BAC0" d="M255.87271 400.81924c1.78565-.94607 3.57135-1.89215 5.89246-2.60006 9.54776 8.09045 18.5885 15.91073 27.52954 23.84338.9159.8126 1.23514 2.29767 1.83124 3.4707-2.78556.76847-5.57108 1.5369-8.7794 1.9823-1.76748-1.73779-3.08651-3.17794-4.46108-4.56298-7.32993-7.38538-14.67377-14.75696-22.01276-22.13334z"/><path fill="#8DA0A5" d="M266.24277 395.70056c2.34405-1.55154 4.6881-3.10309 7.5217-4.40689 10.0676 8.23163 19.69912 16.15295 29.17404 24.25742 1.69232 1.44754 2.73593 3.6535 4.07907 5.50927-2.39719.73618-4.79434 1.47238-7.59708 1.85746-.6629-1.11072-.68774-2.14466-1.21216-2.58905-9.09207-7.70466-18.20752-15.38334-27.43258-22.92737-1.1833-.96768-3.00632-1.15308-4.533-1.70084z"/><path fill="#2C535B" d="M440.27826 422.25485c9.6921-8.06295 19.74622-15.82382 29.5819-23.8523 1.31495-1.07333 1.52488-3.50048 2.3021-5.72482 2.15247.70856 4.24936 1.84128 6.59134 3.57373-.69226 2.08698-1.34976 3.89005-2.61291 5.00992-7.7595 6.87925-15.67426 13.58307-23.48475 20.40549-1.0358.90479-1.7728 2.1517-2.64819 3.24014-3.14532-.8113-6.29062-1.62262-9.7295-2.65216z"/><path fill="#768A8F" d="M324.19913 415.58258c-2.79166.95822-5.58335 1.91644-8.76834 2.52796-1.31916-1.5636-2.0253-3.0785-3.20636-3.94922-7.853-5.78937-15.82157-11.42163-23.72296-17.14582-3.70896-2.68695-7.35212-5.46478-11.0251-8.20144 1.6471-1.16815 3.29417-2.33628 5.4206-3.30048 4.27195 3.38007 7.85385 6.85993 11.90183 9.6679 7.95865 5.52073 16.20709 10.62202 24.26376 16.00443 1.86081 1.2431 3.43207 2.91959 5.13657 4.39667zm-22.52317-223.31543c5.24909-2.4979 10.22135-4.84205 15.32459-6.85405 9.10556-3.58995 18.29025-6.97928 27.8559-10.48198.54574.82228.67743 1.67401.39184 2.93544-2.41394 1.93868-4.21878 3.87126-6.44028 4.92725-10.01065 4.75859-20.15017 9.24524-30.2188 13.883-2.92368 1.34669-5.7663 2.8694-8.6461 4.31144.50501-2.8059 1.01005-5.61177 1.73285-8.7211z"/><path fill="#F0F4F5" d="M556.99097 366.99954c5.2757 11.28488 6.54345 22.8498 3.44543 36.13703-4.75073-7.06968-8.5611-12.7399-12.26495-19.0872.73443-2.17794 1.23315-3.75015 2.01495-5.1661 2.20606-3.99554 4.5282-7.927 6.80457-11.88373z"/><path fill="#E0E8EA" d="M556.95367 366.63946c-2.23907 4.3168-4.56121 8.24827-6.76727 12.24381-.7818 1.41595-1.28052 2.98816-2.0509 4.82028-3.38397-2.8066-6.62549-5.94452-9.70233-9.5378 1.21606-1.91557 2.54937-3.24977 3.268-4.8586 2.56238-5.73644 4.9159-11.56618 7.34845-17.36062 2.62225 4.77765 5.2445 9.55527 7.90405 14.69293z"/><path fill="#495E64" d="M295.70694 376.03992c4.10638 1.96164 8.09119 3.73913 11.75589 6.02887 7.96835 4.97876 15.52094 10.67968 23.73822 15.1825 5.07642 2.7817 11.0758 3.8659 16.63013 5.80035 1.0282.35809 1.90973 1.1372 3.19104 1.93759-2.16953 1.30185-4.67118 2.38812-7.57251 3.11917-1.29569-1.27277-2.03873-2.71924-3.11032-3.02905-17.83814-5.15677-32.9967-14.58606-45.59265-28.19043.23113-.26697.46228-.5339.9602-.849z"/><path fill="#94ACB2" d="M265.95288 395.73047c1.81656.51785 3.63959.70325 4.82288 1.67093 9.22506 7.54403 18.34051 15.22271 27.43258 22.92737.52442.4444.54926 1.47833.81986 2.63653-2.36902 1.05826-4.75125 1.71793-7.51789 2.47278-.98046-1.07785-1.2997-2.56293-2.2156-3.37552-8.94104-7.93265-17.98178-15.75293-27.18948-23.8952 1.05566-.9956 2.3067-1.70126 3.84765-2.4369z"/><path fill="#84969B" d="M277.18732 388.86707c3.96203 2.68365 7.6052 5.46148 11.31414 8.14843 7.9014 5.72419 15.86997 11.35645 23.72297 17.14582 1.18106.87072 1.8872 2.38562 2.82232 4.022-2.42157 1.23224-4.85241 2.04501-7.65625 2.8674-1.71606-1.84613-2.75967-4.0521-4.452-5.49963-9.4749-8.10447-19.10644-16.0258-28.83053-24.31879.83276-.9768 1.81152-1.6445 3.07935-2.36523z"/><path fill="#214951" d="M450.33069 425.06854c.55246-1.24997 1.28946-2.49688 2.32525-3.40167 7.8105-6.82242 15.72526-13.52625 23.48475-20.40549 1.26315-1.11987 1.92065-2.92294 2.8634-4.76632 1.87216.57812 3.73901 1.51239 5.80444 3.0624-.34387 1.7467-.6386 3.11805-1.46695 3.97147-8.53192 8.7902-15.87927 19.0906-28.48987 22.78302-1.39938-.36063-2.79873-.72125-4.52102-1.2434z"/><path fill="#495E64" d="M479.67798 336.18817c-1.08719-.38882-2.17438-.77765-3.45926-1.83008-.0687-1.47738-.01099-2.31024.20013-3.10214 2.77146-10.39676 4.97379-20.88266 4.55713-31.72519-.18765-4.88382-.80588-9.75613-.85632-14.63751-.01807-1.7493 1.05899-3.50989 1.63626-5.26532 2.0355 1.59802 4.07101 3.19608 5.84988 5.0918-1.03698 1.64053-2.45852 2.96716-2.49289 4.32882-.21212 8.40406.57502 16.88996-.32012 25.20328-.79783 7.4098-3.34159 14.6316-5.11481 21.93634z"/><path fill="#65868F" d="M262.55893 279.02551c.32477 3.36054.73618 6.88306.31592 10.30338-1.81476 14.76901-1.8082 29.32419 3.89416 43.40027.18073.44607.14838.97848.22122 1.85867-.86792.83328-1.74166 1.2785-2.89944 1.7593-1.21579-1.1839-2.66196-2.27602-3.00028-3.64245-3.7101-14.98386-5.69392-30.11105-3.12759-45.54263.1597-.9602-.04999-1.98181-.1503-3.4737 1.44178-1.8485 2.94602-3.1982 4.7463-4.66284z"/><path fill="#365D65" d="M238.47021 299.98901c1.03774 1.96823 2.16169 3.99924 2.46967 6.14722 1.47693 10.30045 2.56409 20.65955 4.20587 30.93127.34122 2.13498 2.44716 3.98786 4.14626 6.05881-1.57433 1.35703-3.5551 2.626-6.03899 3.61728-1.36038-2.03152-2.6631-3.70343-3.00278-5.5523-2.24176-12.2017-4.2764-24.44141-6.37852-36.66874 1.43622-1.47229 2.87244-2.94458 4.5985-4.53354z"/><path fill="#A6BAC0" d="M345.8609 147.02936c-.06952 2.3883-.13904 4.7766-.8403 7.54724-11.14282 3.64387-21.64395 6.93826-32.17822 10.12312-1.23792.37425-2.65796.14603-3.9936.1971.8703-2.80568 1.7406-5.61136 3.26804-8.65988 11.68613-3.23111 22.71512-6.21935 33.74408-9.20758z"/><path fill="#84969B" d="M501.01312 347.17078c-2.27105-1.15702-4.54217-2.314-6.73504-3.9555 5.0671-12.66142 7.11267-25.4178 7.83166-38.48222.0918-1.66763 1.65006-3.25458 2.52893-4.87893 1.59015 1.41592 3.1803 2.83184 4.5918 4.70416-.86106 3.43365-1.66358 6.38937-2.202 9.39245-1.26639 7.06354-2.36279 14.15744-3.6151 21.22364-.71147 4.01452-1.5945 7.9986-2.40025 11.9964z"/><path fill="#214951" d="M398.30041 158.52942c10.39371-1.51576 19.31376 3.1854 28.57795 6.42137 2.78326.97218 5.5397 2.02109 8.68835 3.04036 1.11948 2.4178 1.85904 4.8301 2.59732 7.63278-5.73874-1.62233-11.40558-3.8761-17.23239-5.5839-6.61511-1.93885-13.37344-3.38914-20.5821-5.23437-.63634-.42178-.83065-.56596-1.09542-.61506 0 0-.30417-.111-.46408-.13619-.2494-.56903-.3389-1.11287-.07324-1.97328.18368-.60413.01223-.8917-.15924-1.17924-.11298-.67794-.22599-1.35585-.25715-2.37247z"/><path fill="#2C535B" d="M233.5674 304.69287c2.40645 12.057 4.44108 24.29672 6.68284 36.49841.33968 1.84888 1.6424 3.52079 2.6541 5.60596-1.30272 1.2801-2.75985 2.2288-4.74035 2.93042-1.40705-1.58542-2.68625-2.81155-3.1035-4.28226-1.51389-5.33593-2.8404-10.73126-4.04558-16.1469-1.33908-6.01728-2.4682-12.08134-3.68874-18.125 1.97896-2.10346 3.95793-4.20689 6.24123-6.48063z"/><path fill="#173E46" d="M455.10199 426.59824c12.36032-3.9787 19.70767-14.27912 28.2396-23.0693.82833-.85343 1.12307-2.22477 1.68807-3.76975 2.21128.56793 4.4 1.54995 6.80646 2.80154-5.2319 6.52542-10.6026 12.85288-16.17407 18.99832-1.9553 2.15668-4.40354 3.86649-6.75263 5.88886-1.60153 0-3.51529 0-5.6695.27658-2.78948-.09561-5.33858-.46778-8.13793-1.12625z"/><path fill="#214951" d="M227.0689 311.27447c1.4778 5.9427 2.60693 12.00675 3.946 18.02402 1.2052 5.41565 2.5317 10.81098 4.04559 16.14691.41725 1.4707 1.69645 2.69684 2.7745 4.32682-2.2006 1.68664-4.59555 3.08166-7.36029 4.47659-3.10173-12.20087-5.83368-24.40161-8.64828-37.02408-.08265-.42169-.06446-.36645.31443-.3645 1.16315-1.11914 1.9474-2.24027 2.73163-3.36136.64638-.7078 1.29274-1.41559 2.19641-2.2244z"/><path fill="#65868F" d="M324.5654 415.49805c-2.07077-1.39255-3.64203-3.06903-5.50284-4.31214-8.05667-5.38241-16.30511-10.4837-24.26376-16.00442-4.04798-2.80798-7.62989-6.28784-11.57892-9.74945 1.24176-1.3361 2.63998-2.38672 4.53943-3.22916 10.173 10.93655 21.8053 18.94312 34.74923 25.2265 3.0368 1.47422 5.68647 3.74594 8.51423 5.6507-2.03037.7778-4.06073 1.5556-6.45737 2.41797z"/><path fill="#33474E" d="M345.986 201.98791c.41726 4.22419-3.15415 4.77186-5.74262 5.72281-15.37842 5.64998-28.31766 14.62242-38.94855 27.13423-1.4683 1.72805-2.50543 6.57267-7.1318 3.27038-.09467-2.2915.08642-4.41059.74755-6.6968 1.85382 1.77082 2.72525 1.32222 4.15943-.41717 9.87033-11.97084 22.72296-19.90425 36.63385-26.2254 3.19082-1.44994 6.84253-1.8856 10.28213-2.78805z"/><path fill="#65787E" d="M299.77911 201.32983c3.0438-1.78361 5.88642-3.30633 8.8101-4.65301 10.06863-4.63777 20.20815-9.12442 30.2188-13.88301 2.2215-1.05599 4.02634-2.98857 6.32169-4.6185.47586 2.25366.65308 4.60827.38354 7.40883-13.6217 3.86328-25.78552 9.39451-36.9678 17.23318-2.81723 1.97484-6.45486 2.77936-9.71548 4.1217.26171-1.75587.52346-3.51174.94915-5.60919z"/><path fill="#DBDFE1" d="M548.99622 351.60077c-2.37915 6.1402-4.73267 11.96994-7.29505 17.70639-.71863 1.60882-2.05194 2.94302-3.41955 4.5625-2.54352-1.64798-4.77082-3.45532-6.86866-5.76389 3.61963-9.3761 7.1098-18.25097 10.59998-27.12585 2.31 3.42502 4.61993 6.85007 6.98328 10.62085z"/><path fill="#365D65" d="M398.5733 171.36665c10.87097 3.24234 21.6228 6.78658 32.26288 10.63932 3.29456 1.19293 6.2854 3.22456 9.76251 4.93097.80133 1.80589 1.25544 3.55302 1.72675 5.70552-8.15164-3.14347-16.276-6.8001-24.50687-10.19866-4.56259-1.8839-9.24756-3.53708-13.99878-4.85739-1.37002-.3807-3.1617.75612-5.08096 1.28912-.32318-2.30142-.32547-4.69474-.16553-7.50888z"/><path fill="#3D5258" d="M481.56964 279.34576c-.39099 2.0376-1.46805 3.7982-1.44998 5.54749.05044 4.88138.66867 9.7537.85632 14.63751.41666 10.84253-1.78567 21.32843-4.55713 31.7252-.21112.7919-.26883 1.62475-.40823 2.89254-1.15634.04165-2.30234-.37064-3.73273-1.43244-.01522-2.27142.19861-3.90493.5333-5.5133 1.038-4.98856 3.0213-9.97016 3.00668-14.94974-.03366-11.482 2.11084-23.09451-1.2987-34.48141-.21512-.71845.96188-1.8538 1.49127-2.7952 1.79098 1.36237 3.58197 2.72476 5.5592 4.36935z"/><path fill="#65868F" d="M397.6369 192.43265c12.14044-.13124 22.22672 5.6509 32.25464 11.2383 5.70679 3.17971 10.82788 7.4107 16.53067 11.2316.56924 1.48158.82056 2.89983 1.05743 4.75233-5.13174-2.72399-10.37545-5.69655-15.3399-9.07897-10.33768-7.04332-21.6896-11.61056-34.2287-14.50993-.43588-1.07092-.42001-2.15703-.27414-3.63333z"/><path fill="#566A70" d="M294.43 376.97122c12.91268 13.52207 28.07125 22.95136 45.90939 28.10813 1.07159.30981 1.81463 1.75628 2.73455 3.11346-2.39343 1.40189-4.81085 2.36417-7.62127 2.98523-1.7512-1.78098-2.84195-3.8194-4.51032-4.56464-12.09384-5.40173-23.45749-11.80966-33.11374-21.0884-2.24374-2.15604-5.57083-3.18464-8.39947-4.73197 1.56137-1.2465 3.12274-2.49298 5.00085-3.8218z"/><path fill="#081A23" d="M190.58838 358.73566c-.649 2.87475-1.31601 6.09158-2.5637 9.06473-2.68 6.38616-.8888 14.07522 4.88682 19.0934-.90698 2.28635-2.17221 4.20033-3.07057 6.27326-1.96681 4.53833-3.7476 9.1573-5.51335 13.51856-6.84127-16.42423-1.68537-32.19959 6.2608-47.94995z"/><path fill="#B2C4C9" d="M530.09741 325.8555c1.70581 2.38065 3.41168 4.76132 4.93292 7.86542-2.81616 10.63919-5.44781 20.5549-8.0794 30.47064-2.24945-1.49454-4.49884-2.98904-6.6322-5.01535 1.31231-4.76087 2.46618-9.00247 3.71453-13.21607 1.98835-6.71136 4.0395-13.40405 6.06415-20.10464z"/><path fill="#E0E8EA" d="M328 120.99786c2.82605-4.20146 5.65207-8.40291 9.14856-12.74768 3.08691-.01995 5.50497.22704 7.91956.1967 3.30828-.04157 6.61398-.29364 9.92077-.4555-1.13196 3.52496-2.26395 7.04993-3.90478 10.55109-3.25089.3818-5.98276.88419-8.7371 1.17151-4.77502.49811-9.56393.86308-14.34701 1.28388z"/><path fill="#C0CFD3" d="M527.01245 364.49567c2.57007-10.21985 5.20172-20.13556 8.03241-30.42081 2.36365 1.8471 4.52814 4.06375 6.83038 6.59274-3.35247 9.1872-6.84265 18.06207-10.60852 27.13825-1.58142-.86786-2.88708-1.93698-4.25427-3.31018z"/><path fill="#DBDFE1" d="M327.7276 121.19849c5.05548-.62143 9.8444-.9864 14.61942-1.4845 2.75433-.28733 5.4862-.78973 8.47097-.92725-.32199 3.01879-.88675 5.7695-2.04956 8.86395-2.38962.53722-4.19311.65568-5.97067.93746-6.95392 1.10243-13.89963 2.25645-20.84839 3.39128 1.83527-3.52676 3.67053-7.05353 5.77823-10.78094z"/><path fill="#3D5258" d="M346.11334 201.75838c-3.56695 1.13199-7.21866 1.56764-10.40948 3.01758-13.9109 6.32115-26.76352 14.25456-36.63385 26.2254-1.43418 1.7394-2.3056 2.18799-3.96253.07934-.06524-2.27043.15268-4.37014.56229-6.80587 2.43078 2.8037 3.9667.5957 5.58475-1.04097 12.37024-12.51258 27.05505-20.98323 44.54284-25.2909.75748.75865 1.1084 1.54076 1.38385 2.6643-.36383.5348-.65219.72817-1.06787 1.15112z"/><path fill="#33474E" d="M475.84546 274.68854c-.36441 1.22928-1.54141 2.36462-1.3263 3.08307 3.40955 11.3869 1.26505 22.99942 1.29871 34.48141.01462 4.97958-1.96869 9.96118-3.00668 14.94974-.33469 1.60837-.54852 3.24188-.81842 5.27646-.82202.1532-1.64328-.1062-2.73548-.55054.21134-4.70856.63-9.24011 1.1911-13.75394.79425-6.38919 2.37394-12.76669 2.3613-19.1467-.0133-6.7142-1.6256-13.4139-2.276-20.14541-.1821-1.88446.56503-3.8587 1.28015-5.87613 1.5517.40848 2.70917.9013 4.03162 1.68204z"/><path fill="#65787E" d="M289.1905 380.833c3.06728 1.50736 6.39437 2.53596 8.63811 4.692 9.65625 9.27874 21.0199 15.68667 33.11374 21.0884 1.66837.74524 2.75913 2.78366 4.13681 4.64515-1.12762.8815-2.27475 1.34124-3.73913 1.81127-3.14502-1.8945-5.79468-4.16622-8.83148-5.64044-12.94394-6.28338-24.57624-14.28994-34.42737-25.3131.17062-.61094.52063-.9271 1.10931-1.28327z"/><path fill="#A6BAC0" d="M529.95056 325.56671c-1.8778 6.98938-3.92895 13.68207-5.9173 20.39343-1.24835 4.2136-2.40222 8.4552-3.89459 12.93213-2.15564-.91922-4.01495-2.08627-6.04687-3.5347 2.51855-9.59976 5.15466-18.93469 7.9428-28.22396.62635-2.08686 1.78376-4.01432 3.08784-6.18012 1.82123 1.33151 3.25128 2.82797 4.82812 4.61322z"/><path fill="#8DA0A5" d="M501.2428 347.3959c.57608-4.22293 1.4591-8.207 2.17056-12.22152 1.25232-7.0662 2.34873-14.1601 3.61511-21.22364.53842-3.00308 1.34094-5.9588 2.44412-9.14651 2.11982 1.35669 3.81891 2.92383 5.70893 4.77167-.906 2.85714-2.37671 5.34213-3.03357 8.02624-2.52457 10.315-4.78848 20.69385-7.2046 31.47507-1.1936-.20126-2.33224-.82874-3.70055-1.6813z"/><path fill="#E9EEF1" d="M355.26181 107.77454c-3.57971.3787-6.8854.63077-10.1937.67234-2.41458.03034-4.83264-.21665-7.6469-.38635 6.6329-9.20772 15.5907-15.3149 27.20226-18.07614-3.23303 6.25114-6.16089 11.91222-9.36166 17.79015z"/><path fill="#CFDADD" d="M321.68372 132.19302c7.21441-1.34842 14.16012-2.50244 21.11404-3.60487 1.77756-.28178 3.58105-.40024 5.81418-.5997.19787 2.09532-.0458 4.19662-.85126 6.70332-3.12122.93305-5.6774 1.47672-8.24057 1.98526-7.20556 1.42958-14.41397 2.84468-21.62128 4.26549 1.1731-2.8453 2.34617-5.69061 3.78489-8.7495z"/><path fill="#566A70" d="M479.9116 336.44815c1.5396-7.56473 4.08336-14.78653 4.88119-22.19632.89514-8.31332.108-16.79922.32012-25.20328.03437-1.36166 1.4559-2.68829 2.6564-4.03646 1.11063.49044 1.80115.98626 2.5955 1.70367.20898 6.60306.9089 13.04507.26715 19.35052-.78296 7.69342-2.61438 15.28803-4.1561 22.89219-.58026 2.862-1.6189 5.63113-2.439 8.86227-1.29083-.09107-2.59124-.60184-4.12527-1.37259z"/><path fill="#CFDADD" d="M259.41904 431.96307c-1.7558-1.8002-3.00034-3.6803-4.47194-5.36172-5.24881-5.9972-10.57477-11.92682-15.90444-18.22849 1.6912-1.04315 3.41529-1.7399 5.65358-2.1568 7.00379 6.85178 13.55056 13.36911 19.93047 20.04584 1.1536 1.20725 1.62237 3.06885 2.40732 4.62836-2.40262.36136-4.80527.72272-7.615 1.07281z"/><path fill="#081A23" d="M523.39941 431.75287c4.07569-2.15717 7.00544-5.8115 9.36023-10.00052.60523-1.0766.9864-2.27911 1.56519-3.64767-2.01935-.84815-3.57367-1.50098-5.22467-2.50293 8.56213.68097 17.26233 2.83972 25.78888-1.48374-7.66797 10.86746-18.90955 15.10046-31.48963 17.63486z"/><path fill="#566A70" d="M298.62268 207.24262c3.4679-1.64594 7.10553-2.45046 9.92276-4.4253 11.18228-7.83867 23.3461-13.3699 36.90552-16.79263.48715 1.05865.58993 2.12273.61532 3.58162-13.59729 3.51536-25.64712 9.7616-36.8763 17.73715-2.68156 1.90459-5.23804 3.99606-8.00852 5.75519-.52625.33412-1.78983-.49303-2.98426-.96169-.10794-1.64845.05515-3.1196.42548-4.89434z"/><path fill="#C0CFD3" d="M267.4024 430.87738c-1.15332-1.54663-1.6221-3.40823-2.7757-4.61548-6.3799-6.67673-12.92667-13.19406-19.5775-20.0799 1.25251-.95394 2.66625-1.59402 4.74575-2.10116 7.88858 7.06732 15.15937 13.95322 22.2807 20.99027 1.02979 1.01757 1.34232 2.76098 1.98673 4.16851-2.0972.54163-4.1944 1.08326-6.65998 1.63776z"/><path fill="#94ACB2" d="M308.58344 165.15161c1.60098-.30586 3.02102-.07764 4.25894-.45189 10.53427-3.18486 21.0354-6.47925 31.98755-9.78505.46612.70592.49118 1.45609.4576 2.57128-3.58141 1.96382-7.04708 3.70668-10.63903 5.131-7.16007 2.83913-14.37244 5.54983-21.60309 8.20495-1.67548.61525-3.51117.79411-5.67557 1.16731.0478-2.19858.49802-4.39072 1.2136-6.8376z"/><path fill="#C0CFD3" d="M317.64307 141.17064c7.46307-1.64893 14.67147-3.06403 21.87704-4.4936 2.56317-.50855 5.11935-1.05222 8.0781-1.62833.07489 1.6951-.24958 3.43867-.98615 5.61593-11.14075 3.40193-21.86942 6.37015-32.59805 9.33835 1.12445-2.86807 2.24887-5.73614 3.62906-8.83235z"/><path fill="#B2C4C9" d="M274.4681 429.19025c-1.05013-1.35816-1.36266-3.10157-2.39245-4.11914-7.12133-7.03705-14.39212-13.92295-21.93684-21.00147 1.47537-1.12268 3.27266-2.10126 5.40193-3.1651 7.67096 7.29108 15.0148 14.66266 22.34473 22.04804 1.37457 1.38504 2.6936 2.8252 4.0864 4.57162-2.33396.76004-4.71601 1.18832-7.50376 1.66605zm39.3875-278.87253c10.88705-3.28293 21.61571-6.25115 32.7326-9.26496.05203 1.70272-.28418 3.45105-.67383 5.58799-11.08243 3.37684-22.11142 6.36508-33.5484 9.34515.17169-1.78993.75143-3.5717 1.48962-5.66818z"/><path fill="#768A8F" d="M504.53888 299.54523c-.77908 1.93325-2.33734 3.5202-2.42914 5.18783-.719 13.06442-2.76456 25.8208-8.06286 38.22513-.7785.03662-1.24756-.1542-1.86951-.54898.9354-6.08337 2.17996-11.9392 3.07175-17.8483 1.07174-7.10131 1.69457-14.27182 2.83383-21.3606.34842-2.1678 1.75787-4.16506 3.11154-6.31823 1.36829.73291 2.30646 1.54355 3.34439 2.66315z"/><path fill="#051019" d="M399.2544 511.57938c-3.69703.14859-7.34379-.13538-11.21637-.81107 3.60498-.13495 7.43582.1218 11.21636.81107z"/><path fill="#081A23" d="M193.5026 353.06928c-.41071 1.51394-1.11771 3.17773-2.15243 4.88754.40024-1.54856 1.1282-3.1431 2.15244-4.88754zm225.96487-226.54773c-.98383-1.18769-2.08228-2.70495-3.0357-4.5919 1.07034 1.1743 1.99572 2.71831 3.0357 4.5919z"/><path fill="#173E46" d="M224.58267 313.66266c-.49443.9573-1.27867 2.07843-2.45163 3.17602.46147-1.01977 1.31165-2.01602 2.45163-3.17602z"/><path fill="#081A23" d="M195.56998 385.17685c.42299-.93112 1.12637-2.00818 2.19888-3.10788-.39342.97223-1.15593 1.96707-2.19888 3.10788z"/><path fill="#051019" d="M324.15301 345.7799c-.25576.8798-.7016 1.97044-1.48886 3.13044.20533-.92694.75205-1.92328 1.48886-3.13043z"/><path fill="#081A23" d="M415.302 119.44429c-.64038-.49558-1.37036-1.29535-2.01434-2.45921.69888.4756 1.3118 1.31531 2.01434 2.45921zm1.15259 1.79175c-.35004-.11012-.8032-.48735-1.20078-1.21833.40293.08125.75028.51623 1.20078 1.21833zm-3.10217-4.81964c-.34903-.1125-.79178-.50775-1.24347-1.24025.37729.09434.76355.5259 1.24347 1.24025z"/><path fill="#051019" d="M483.5539 552.25476c.36446-.19556.73391-.00342 1.27496.45044-.3089.15356-.7895.04535-1.27497-.45044zm-210.15503.7406c-.10029-.32593.19988-.6236.80093-1.04675.06708.27466-.16669.6748-.80093 1.04675zm124.94918.0011c-.10724-.30353.11988-.56671.59333-.92944.0779.25683-.09052.61328-.59333.92944z"/><path fill="#173E46" d="M398.4845 161.15846c.24453.03098.41598.31855.36688.67452-.29373-.0937-.36685-.25582-.36688-.67452z"/><path fill="#051019" d="M495.3858 552.99365c-.09973-.32068.18973-.61206.77082-1.02478.06723.27039-.15723.6623-.77082 1.02478zm-233.77624-.72888c.35556-.18713.71112.00177 1.22885.44678-.30148.14715-.76514.03814-1.22885-.44678z"/><path fill="#081A23" d="M194.99597 385.85672c-.26838-.09631-.33803-.31317-.40768-.53.11961-.03268.23923-.06534.54683-.06763.18798.03043.05957.47712-.13915.59763z"/><path fill="#E9EEF1" d="M368.57318 257.87701c3.62253.96177 6.83603 2.37952 10.19736 3.01273 18.88165 3.55716 30.0152 15.17816 35.27783 33.18146.32745 1.12036 1.57529 1.9717 2.8009 2.98282-2.6816 9.41192-4.79068 18.91513-3.31271 29.33926-1.6233 1.3635-3.65994 1.90814-4.78787 3.22885-12.25955 14.3554-27.29987 21.12244-46.35709 17.75934-1.35898-.2398-2.98099 1.01053-4.61584 2.0036-6.99951-8.52338-14.8209-16.3411-25.6963-21.0581-.22405-2.03864.3433-4.05066-.28954-5.5592-3.90576-9.31037-6.16263-18.7162-3.86133-28.88365 1.91238-8.44918 5.7331-15.71331 11.91934-21.7883.95477-.93759 1.40997-2.38387 2.07846-3.98162 9.35285-2.031 18.37503-4.6152 26.6468-10.23719m-5.74815 11.13117c-2.72274 1.22531-5.53314 2.28818-8.15362 3.70291-14.24863 7.69235-22.59162 25.99765-17.18115 40.71616 7.94726 21.61944 27.71127 30.22634 48.0824 22.56265 16.85885-6.34235 27.12545-28.2103 18.57061-46.90549-7.59647-16.6008-24.5886-24.17657-41.31824-20.07623z"/><path fill="#E0E8EA" d="M323.83035 267.28699c.0437.50091-.12072.9064-.55026 1.51022-.24182-.08862-.21854-.37561-.15167-1.09256.0436-.42996.49383-.51306.70193-.41766z"/><path fill="#1B3338" d="M370.52844 393.5492c-.05536.03347.0554-.03345 0 0z"/><path fill="#173E46" d="M399.30774 164.37141c.21115-.13171.40546.01247.59732.42757-.19269.11713-.39664-.02374-.59732-.42757z"/><path fill="#F0F4F5" d="M363.23956 268.96082c16.31513-4.05298 33.30725 3.5228 40.90372 20.1236 8.55484 18.69518-1.71176 40.56313-18.57062 46.90548-20.37112 7.6637-40.13513-.9432-48.0824-22.56265-5.41046-14.71851 2.93253-33.0238 17.18116-40.71616 2.62048-1.41473 5.43088-2.4776 8.56814-3.75027m-1.70425 8.79785c-2.00314 1.16674-4.18457 2.10904-5.98102 3.53598-13.5697 10.77856-15.74216 29.22574-3.01465 41.56167 9.6734 9.37577 26.4687 11.24253 37.25623 1.12073 12.4252-11.65848 11.31561-26.43933 4.0658-37.28686-6.73313-10.07434-19.43989-13.13364-32.32636-8.93152z"/><path fill="#F5F7F9" d="M361.88943 277.58331c12.53235-4.02676 25.23911-.96747 31.97223 9.10688 7.24982 10.84753 8.3594 25.62838-4.0658 37.28686-10.78753 10.1218-27.58282 8.25504-37.25622-1.12073-12.7275-12.33593-10.55505-30.7831 3.01465-41.56167 1.79645-1.42694 3.97788-2.36924 6.33515-3.71134z"/></svg>