<svg xmlns="http://www.w3.org/2000/svg" role="img" viewBox="-6.41 -6.41 333.58 257.83"><g fill-opacity="1" fill-rule="nonzero" stroke="none" transform="matrix(1.33333 0 0 -1.33333 0 245.107) scale(.1)"><path fill="#4dc4c9" d="M1326.4 1391.45c-.12 0-.25.03-.43.01-105.73-.05-191.47-85.76-191.41-191.54l-63.82-.01c-.06 140.99 114.23 255.37 255.23 255.41.18.01.27-.01.43-.03v-63.84"/><path fill="#4dc4c9" d="M1326.36 1519.15c-.12-.01-.28-.04-.39-.03-176.29 0-319.15-142.93-319.1-319.24l-63.839-.03c-.023 211.55 171.389 383.08 382.879 383.13.14-.03.28-.02.45-.03v-63.8"/><path fill="#4dc4c9" d="M1326.32 1646.8c-.1.02-.21.02-.38.02-246.8-.06-446.807-200.19-446.741-446.99l-63.828-.03c-.066 282.02 228.489 510.75 510.539 510.83.14 0 .25.01.38-.03l.03-63.8"/><path fill="#4dc4c9" d="M1326.32 1774.46c-.16.02-.33.03-.45.03-317.3-.14-574.429-257.4-574.339-574.68l-63.851-.04c-.098 352.54 285.625 638.43 638.15 638.54h.44l.05-63.85"/><path fill="#231f20" d="M2001.53 921.063s-8.42-2.297-21.85-6.704c-4.28-1.394.16 10.11.16 10.11-41.88-11.008-92.33-12.352-128.29 5.578-79.89 39.816-106.13 81.703-135.65 138.093-29.51 56.42-188.54 59.53-216.89 60.34-28.32.84-68.94 3.02-110.78 70.41 0 0 25.96-3.16 39.35 15.75 0 0-7.25 9.48-35.68 26.01-28.44 16.53-33.49 26.34-33.49 26.34s-24.03 33.06-35.4 34.2c-11.37 1.14-20.97-1.72-26.32 4.83-5.36 6.56-34.83 34.68-43 34.96-8.18.27-28.84-41.97-11.35-69.44 0 0-.81-8.13-8.23-5.74-7.43 2.39-21.95-11.47-2.93-23.78 19-12.31 37.79-32.25 39.79-45.02 1.99-12.8-12.92-52.34 7.09-103.6l4.63 7.76s5.57-37.22 24.02-60.41l2.65 4.65s12.02-43.88 34.33-72.396l3.35.773s18.56-33.05 37.4-52.453c18.85-19.406 22.36-27.969 23.5-38.488 1.14-10.496 22.66-123.176 21.7-137.856-.91-14.691-14.83-6.16-24.46-15.05-9.65-8.871-7.51-20.051 11.47-21.961 18.95-1.899 26.6 8.84 33.58 24.011 7 15.141 9.62 24.75 6.69 55.661-.87 9.257-1.78 20.98-2.5 33.218 15.18-32.937 28.8-63.281 30.03-69.621 2.82-14.418-12.8-9.699-19.88-20.738-7.08-10.988-2.19-21.27 16.64-18.328 18.82 2.957 23.5 15.269 26.44 31.687 2.95 16.442 3.05 26.379-7.58 55.59-10.04 27.61-32.21 98.504-33.7 118.34 14.61-1.926 65.43-5.945 151.91 15.066 0 0 9.54 1.458 15.79.825 6.25-.625-1.27-33.578 15.82-62.66 4.83-8.231 10.54-16.172 16.25-23.809 1.44-40.762 2.52-81.121 1.03-88.152-3.01-14.387-15.57-3.957-26.38-11.36-10.81-7.379-10.31-18.738 8.19-23.359 18.5-4.629 27.58 4.898 36.7 18.879 1.74 2.691 3.25 5.222 4.65 7.761-2.49-8.589-5.57-15.199-8.9-16.839-8.88-4.391-17.53-17.192-7.84-25.563 9.7-8.316 35.33-4.609 39.94 9.703 4.58 14.27 3.65 57.539 10.96 77.867 7.32 20.313-1.59 47.93 1.61 57.743 14.37 44.148 5.18 89.797 5.18 89.797s13.65-51.75 27.65-60.586l8.31 7.421s58.42-53.312 84.73-53.921l4.64 9.039s84.64-12.571 108.57 3.3l-9.62 5.028s48.02 26.972 45.97 67.094"/><path fill="#4dc4c9" d="M1711.23 430.48h-144.75v44.418c0 20.743-1.84 33.942-5.53 39.622-3.7 5.671-9.87 8.5-18.52 8.5-9.39 0-16.47-3.821-21.27-11.469-4.82-7.672-7.23-19.262-7.23-34.832 0-19.989 2.71-35.071 8.14-45.188 5.15-10.121 19.81-22.351 44.02-36.621 69.37-41.191 113.05-74.961 131.06-101.359 18.02-26.442 27.03-69 27.03-127.723 0-42.699-5-74.1678-15-94.3866-9.99-20.2422-29.3-37.2109-57.92-50.9023C1622.62 6.85156 1589.32 0 1551.31 0c-41.7 0-77.29 7.89063-106.77 23.6719-29.51 15.8086-48.82 35.9062-57.95 60.3476-9.12 24.4295-13.68 59.0895-13.68 104.0115v39.231h144.72V154.34c0-22.449 2.04-36.86 6.12-43.301 4.08-6.418 11.27-9.629 21.64-9.629 10.37 0 18.07 4.09 23.15 12.231 5.04 8.14 7.59 20.218 7.59 36.269 0 35.281-4.83 58.352-14.43 69.219-9.9 10.851-34.19 28.98-72.95 54.41-38.73 25.652-64.38 44.289-76.99 55.902-12.57 11.598-23 27.629-31.28 48.11-8.27 20.488-12.39 46.66-12.39 78.48 0 45.899 5.86 79.457 17.59 100.668 11.72 21.242 30.65 37.832 56.8 49.813 26.17 11.968 57.77 17.949 94.75 17.949 40.48 0 74.98-6.563 103.49-19.633 28.49-13.066 47.37-29.539 56.63-49.406 9.27-19.863 13.88-53.633 13.88-101.242v-23.7"/><path fill="#4dc4c9" d="M2103.45 430.48h-144.74v44.418c0 20.743-1.85 33.942-5.53 39.622-3.73 5.671-9.88 8.5-18.53 8.5-9.38 0-16.46-3.821-21.29-11.469-4.82-7.672-7.21-19.262-7.21-34.832 0-19.989 2.68-35.071 8.09-45.188 5.18-10.121 19.87-22.351 44.08-36.621 69.35-41.191 113.04-74.961 131.05-101.359 18.02-26.442 27.03-69 27.03-127.723 0-42.699-4.99-74.1678-14.97-94.3866-10.02-20.2422-29.33-37.2109-57.95-50.9023C2014.85 6.85156 1981.52 0 1943.53 0c-41.69 0-77.3 7.89063-106.77 23.6719-29.5 15.8086-48.83 35.9062-57.95 60.3476-9.13 24.4295-13.7 59.0895-13.7 104.0115v39.231h144.75V154.34c0-22.449 2.04-36.86 6.09-43.301 4.1-6.418 11.29-9.629 21.64-9.629 10.39 0 18.1 4.09 23.16 12.231 5.06 8.14 7.58 20.218 7.58 36.269 0 35.281-4.8 58.352-14.45 69.219-9.86 10.851-34.17 28.98-72.92 54.41-38.73 25.652-64.39 44.289-76.98 55.902-12.6 11.598-23.03 27.629-31.28 48.11-8.25 20.488-12.39 46.66-12.39 78.48 0 45.899 5.84 79.457 17.57 100.668 11.71 21.242 30.67 37.832 56.82 49.813 26.17 11.968 57.77 17.949 94.76 17.949 40.48 0 74.94-6.563 103.48-19.633 28.5-13.066 47.38-29.539 56.63-49.406 9.23-19.863 13.88-53.633 13.88-101.242v-23.7"/><path fill="#4dc4c9" d="M2311.27 611.879V132.512h94.76V12.5586h-250.58V611.879h155.82"/><path fill="#231f20" d="M508.008 501.289L448.816 14.1992H287.883c-8.789 59.5313-19.016 137.9418-30.758 235.3208-4.012-42.86-9.574-86.051-16.66-129.622l-16.27-105.6988H62.875L0 501.289h127.797c.98-12.73 11.805-105.719 32.433-278.969 1.61 17.801 12.723 110.801 33.293 278.969h122.782l30.023-278.969c4.742 81.442 16.074 174.418 34.02 278.969h127.66"/><path fill="#231f20" d="M719.082 366.949c0 24.942-1.352 40.68-4.047 47.16-2.695 6.5-8.437 9.743-17.238 9.743-8.82 0-14.692-3.243-17.625-9.743-2.922-6.48-4.41-22.218-4.41-47.16V147.07c0-23 1.488-37.968 4.41-44.949 2.933-6.9999 8.695-10.4726 17.238-10.4726 8.824 0 14.645 3.1797 17.457 9.5506 2.813 6.36 4.215 20.051 4.215 41.129zm148.305-36.699V210.93c0-43.809-2.207-75.899-6.617-96.34-4.415-20.4298-13.832-39.5197-28.266-57.2814-14.445-17.7383-32.961-30.8086-55.625-39.2578-22.617-8.42971-48.613-12.66017-77.996-12.66017-32.766 0-60.563 3.59765-83.317 10.82027-22.757 7.211-40.445 18.1094-53.039 32.6485-12.601 14.5898-21.609 32.1992-26.98 52.8906-5.379 20.66-8.086 51.68-8.086 93.051v124.801c0 45.269 4.91 80.636 14.703 106.066 9.77 25.48 27.383 45.891 52.848 61.332 25.433 15.391 58 23.078 97.64 23.078 33.282 0 61.844-4.918 85.715-14.808 23.86-9.95 42.278-22.84 55.242-38.75 12.957-15.899 21.84-32.309 26.61-49.192 4.765-16.887 7.168-42.578 7.168-77.078"/><path fill="#231f20" d="M1068.91 608.48V14.1992H916.195V608.48h152.715"/><path fill="#231f20" d="M1325.96 608.48v-75.25c-30.59 0-48.64-1.41-54.14-4.21-5.5-2.821-8.26-10.852-8.26-24.051v-15.418h62.4v-77.082h-35.23V14.1992h-148.3V412.469h-30.48v77.082h30.48c0 32.07 1.1 53.449 3.3 64.23 2.2 10.77 7.65 20.391 16.34 28.809 8.67 8.461 20.86 14.871 36.52 19.289 15.67 4.391 40.02 6.601 73.06 6.601h54.31"/></g></svg>