<svg xmlns="http://www.w3.org/2000/svg" viewBox="0 0 770.74 154.66"><defs><style>.cls-1{fill:#2d2d2d;}.cls-2{fill:#4166f6;}</style></defs><g id="Layer_1" data-name="Layer 1"><path class="cls-1" d="M547.83,40.77H522.36v87.46h25.47Z"/><path class="cls-1" d="M629.5,40.77V81q0,8.7-2.41,14.33a17,17,0,0,1-6.75,8.24,20.55,20.55,0,0,1-20.08,0,17.07,17.07,0,0,1-6.7-8.31q-2.41-5.67-2.41-14.36V40.77H565.74V87.72q0,14.64,6.83,23.77a37.17,37.17,0,0,0,17,12.94,58.81,58.81,0,0,0,20.87,3.8,60.13,60.13,0,0,0,15.39-2,45,45,0,0,0,14.38-6.66A33.39,33.39,0,0,0,650.94,107q4-8,4-19.24L654.5,40.8Z"/><path class="cls-1" d="M770.08,128.23V40.77h-23.4L721.36,72.55,697.8,40.77H672.73v87.46h24.45V73.87l23.6,31.9.4.49,24.21-29.69-.09,51.66Z"/><path class="cls-1" d="M152.88,40.73c-9.4.06-14.35,1.12-19.41,2.64A45.42,45.42,0,0,0,118,51.45a37.24,37.24,0,0,0-10.58,13.72,46,46,0,0,0-3.78,19.25,47,47,0,0,0,3.2,17.59,38.52,38.52,0,0,0,9.63,14,42.62,42.62,0,0,0,15.18,9.06,57.23,57.23,0,0,0,21.55,3.21h23.36V110.87H153.21c-5,0-23.61-3.3-23.61-26,0-21.62,17.19-26.33,22.25-26.33h24.7V40.71H152.88Z"/><path class="cls-1" d="M299.12,40.86H273.65v87.37h64.17V107.3h-38.7Z"/><path class="cls-1" d="M218.67,99.06h0v-7h35.47V74.48H218.68V70.93h0V58.47h37.19V40.94H193.2v87.37h63.69V110.72H218.67Z"/><path class="cls-1" d="M378.25,99h0V92h35.47V74.4H378.26V70.85h0V58.54h37.18V40.86H352.78v87.37h63.69V110.64H378.25Z"/><path class="cls-1" d="M489.08,92.87A25,25,0,0,0,504,77.75a28.63,28.63,0,0,0,1.62-9.49A29.66,29.66,0,0,0,504,58.61a25.66,25.66,0,0,0-5.21-8.74,26.09,26.09,0,0,0-9.72-6.55,37.81,37.81,0,0,0-14.42-2.52H432.49v87.46H458V95.35h4.79l18.67,32.88H505.7l-20.59-34.1a30.52,30.52,0,0,0,4-1.26ZM478.14,74.74a8,8,0,0,1-4.94,3,44.3,44.3,0,0,1-9.75.82H458V58.46h2.73v.07h2.64c6.13,0,10.39-.23,12.77,1.3s3.56,4.39,3.56,8.55a11.24,11.24,0,0,1-1.53,6.36Z"/><path class="cls-2" d="M52.92,64l-.13.17-1-1.54L33.57,40.94h-30L36.45,82.87-.66,128.31h32l20.74-25.06.67-.91L68.89,83Z"/><path class="cls-1" d="M103.07,40.94H70.52l-5.79,7.32c-2.31,2.94-5,6.43-7.9,10.39L73,77.87Z"/><path class="cls-1" d="M56.71,107.77c3.13,4.29,5.81,7.88,8,10.71l7.75,9.83H104.7L73,88.08Z"/><path class="cls-2" d="M535.09-.13a14.82,14.82,0,1,0,10.47,4.34A14.81,14.81,0,0,0,535.09-.13Z"/><path class="cls-1" d="M611,141.57h-.74a66.47,66.47,0,0,1-32.6-9,2,2,0,0,1,2-3.46,62.38,62.38,0,0,0,61.44.7,2,2,0,1,1,1.93,3.5A66.47,66.47,0,0,1,611,141.57Z"/><path class="cls-1" d="M611.33,154.53c-19.6,0-38.08-5-53.47-14.41a2,2,0,0,1,2.09-3.41c14.76,9,32.52,13.82,51.38,13.82,18,0,35.09-4.38,49.45-12.68a2,2,0,0,1,2,3.46C647.82,150,630,154.53,611.33,154.53Z"/></g></svg>