<svg xmlns="http://www.w3.org/2000/svg" role="img" viewBox="-16.36 307.64 1058.72 386.72"><path fill="#FEFEFE" d="M479.000000,1025.000000 C319.333344,1025.000000 160.166672,1025.000000 1.000000,1025.000000 C1.000000,683.666687 1.000000,342.333344 1.000000,1.000000 C342.333344,1.000000 683.666687,1.000000 1025.000000,1.000000 C1025.000000,342.333344 1025.000000,683.666687 1025.000000,1025.000000 C843.166687,1025.000000 661.333313,1025.000000 479.000000,1025.000000 M636.236694,400.829681 C631.951965,400.829681 627.667236,400.829681 622.788269,400.829681 C622.788269,392.117645 622.788269,384.215393 622.788269,376.174591 C616.443604,376.174591 610.703674,376.174591 604.346191,376.174591 C604.346191,384.308441 604.346191,392.197632 604.346191,400.560760 C598.482483,400.560760 593.223450,400.560760 587.808350,400.560760 C587.808350,407.090942 587.808350,413.112823 587.808350,419.720245 C592.906677,419.720245 597.627869,419.720245 602.970398,419.720245 C602.266968,422.137939 601.951172,423.940338 601.235107,425.566498 C597.023254,435.131653 592.699890,444.647736 588.463379,454.202209 C587.810425,455.674866 586.787720,457.352631 586.998840,458.778198 C588.177856,466.740540 589.683594,474.654510 591.344482,484.102844 C595.886108,475.298828 599.750793,467.806976 603.615479,460.315155 C603.975037,460.417755 604.334534,460.520355 604.694092,460.622925 C604.694092,478.673645 604.694092,496.724365 604.694092,514.644531 C610.983765,514.644531 616.719482,514.644531 623.116333,514.644531 C623.116333,494.494293 623.116333,474.695099 623.116333,454.095093 C625.350464,456.035767 626.793823,457.289581 628.558594,458.822571 C632.518066,454.390503 636.260559,450.201263 640.718384,445.869537 C641.276672,446.245300 641.834961,446.621063 642.337769,447.578491 C642.891846,447.969940 643.445984,448.361389 644.838867,448.919189 C646.224976,448.707611 647.611084,448.496033 649.608459,448.432373 C650.401550,448.277832 651.194641,448.123260 652.892212,448.090576 C655.594238,447.835846 658.296265,447.581116 661.884460,447.465790 C663.049194,447.979156 664.213928,448.492523 664.734924,449.286072 C652.939941,458.344208 641.144958,467.402374 629.271973,476.520447 C632.074951,479.587402 635.337585,482.706726 638.039062,486.253510 C640.261414,489.171204 642.032776,489.151276 645.033081,487.330109 C661.064270,477.599060 675.823425,466.304504 688.687195,452.624207 C698.280701,442.421783 706.687073,431.336273 713.664551,418.760925 C708.847168,415.878967 704.320618,413.170990 699.924866,409.874084 C699.971985,409.475067 700.019043,409.076019 700.961060,408.430573 C709.796082,408.328217 718.631165,408.225861 728.158386,407.784882 C727.895935,402.486481 727.633545,397.188049 726.394287,391.760345 C717.245300,391.752533 708.086670,391.496368 698.951721,391.850250 C694.880737,392.007965 692.925537,390.611267 691.671997,386.916046 C690.556885,383.628693 688.944031,380.477783 687.242554,377.439301 C686.648987,376.379333 685.018555,375.042572 684.059937,375.183228 C677.721375,376.113403 671.436768,377.411469 664.749084,378.661774 C666.671631,383.202698 668.368042,387.209503 670.407837,392.027283 C659.017578,392.027283 648.629028,392.027283 638.291138,392.027283 C638.046753,395.374084 637.842529,398.170227 637.385010,400.927399 C637.385010,400.927399 637.129944,400.952881 636.236694,400.829681 M773.485718,456.057404 C776.628052,458.781708 779.770386,461.506042 782.999146,464.672607 C783.169434,464.959564 783.421326,465.100006 783.986938,465.699615 C787.251282,465.631317 787.733459,467.802673 788.009827,470.405884 C788.460815,474.652679 789.138794,478.875366 789.776428,483.511292 C804.426697,482.367279 818.584961,481.261688 833.339966,480.109497 C833.339966,492.105743 833.339966,503.355560 833.339966,514.766296 C840.304321,514.766296 846.711914,514.766296 853.614990,514.766296 C853.614990,503.905396 853.747803,493.279907 853.539124,482.661133 C853.470886,479.189178 854.736145,477.973846 858.032532,477.788086 C863.432251,477.483734 868.814392,476.869965 874.462708,476.363495 C873.916199,470.146820 873.423340,464.541077 872.888550,458.458099 C866.528320,458.863190 860.444824,459.250641 853.671265,459.682037 C853.671265,431.627472 853.671265,403.919525 853.671265,376.223480 C846.576416,376.223480 840.166260,376.223480 833.148865,376.223480 C833.148865,386.053406 833.148865,395.579773 833.148865,406.086670 C824.474182,399.110077 816.652466,392.819489 808.552734,386.305298 C804.587708,390.788330 800.995850,394.849396 797.434143,398.876373 C804.467590,405.345947 811.907715,412.189575 819.465027,419.140961 C823.810059,415.026245 828.082031,410.980743 832.432983,406.860382 C832.898926,407.592834 833.203857,407.848663 833.204773,408.105530 C833.262085,424.922241 833.242798,441.739410 833.375183,458.555420 C833.400452,461.763611 831.533997,461.840729 829.208252,462.023315 C817.097229,462.974152 804.996887,464.064697 792.882202,464.963013 C791.483521,465.066742 790.018677,464.279572 789.242554,463.691895 C791.151550,462.097656 793.060486,460.503387 795.569214,458.760315 C795.430115,457.700684 795.290955,456.641083 794.880493,454.995056 C789.955017,450.309387 785.029541,445.623718 780.003357,440.842224 C777.627808,442.676910 775.632751,444.217682 773.234314,446.070068 C773.234314,442.040009 773.234314,438.793274 773.234314,435.044067 C777.442993,435.044067 781.444763,435.403229 785.353027,434.952179 C790.118469,434.402222 793.608643,436.204712 796.904541,439.309692 C802.717285,444.786011 808.678772,450.104553 814.824158,455.713928 C818.901794,451.320374 823.042847,446.858490 827.566895,441.983856 C819.936768,435.494568 811.911743,428.669403 803.035889,421.120636 C798.868286,425.341217 795.237671,429.017975 791.226135,433.080475 C791.226135,427.347198 791.226135,421.914734 791.226135,416.032288 C784.943359,416.032288 779.178101,416.032288 772.969421,416.032288 C772.969421,411.448700 773.117004,407.312439 772.919739,403.192749 C772.778748,400.246887 773.813843,399.054840 776.808228,398.807648 C782.243958,398.358948 787.647461,397.521271 793.674500,396.769897 C792.262573,392.156586 790.834778,388.121460 789.821594,383.984802 C788.984314,380.566498 787.384705,379.573944 783.821167,380.165070 C776.435486,381.390198 768.971680,382.169373 761.524719,382.993500 C752.480896,383.994324 743.421265,384.852295 734.146301,385.794647 C735.271790,391.527039 736.316711,396.849213 737.434937,402.544891 C743.009460,402.143646 748.401489,401.755554 754.145691,401.342072 C754.145691,406.535645 754.145691,411.091064 754.145691,416.358887 C747.420898,416.358887 740.872803,416.358887 734.456299,416.358887 C734.456299,423.007233 734.456299,428.941254 734.456299,435.462341 C740.796631,435.462341 746.831848,435.462341 753.458679,435.462341 C752.578674,437.707703 752.179504,439.340820 751.357971,440.722839 C746.011108,449.716705 740.518860,458.624451 735.216248,467.643921 C734.313538,469.179474 733.322327,471.307495 733.697510,472.836548 C735.200073,478.960052 737.224854,484.955444 738.983887,491.611542 C739.196777,491.959442 739.409668,492.307373 739.622559,492.655334 C740.060425,492.096436 740.498291,491.537537 741.492371,490.586029 C743.664062,486.730927 745.835754,482.875824 748.523560,478.710358 C748.909424,477.804321 749.295288,476.898285 750.140137,475.502350 C750.843445,473.900726 751.546753,472.299103 752.895142,470.217590 C753.549988,470.291687 754.204895,470.365784 754.606750,471.291992 C754.606750,485.721649 754.606750,500.151306 754.606750,514.609436 C760.968933,514.609436 766.845520,514.609436 772.676270,514.609436 C772.676270,494.926208 772.676270,475.634003 773.485718,456.057404 M491.904510,401.652710 C521.179626,401.652710 550.454773,401.652710 579.812134,401.652710 C579.812134,396.414307 579.812134,391.818268 579.812134,386.869690 C567.461731,386.869690 555.351990,386.869690 542.875366,386.869690 C541.984131,382.787689 541.148987,378.962799 540.252319,374.856201 C533.350647,375.185394 526.791931,375.498199 520.004761,375.821930 C520.876648,379.624451 521.632263,382.919617 522.540588,386.880798 C510.444794,386.880798 499.049377,386.880798 487.276855,386.880798 C487.276855,391.194672 487.276855,394.967712 487.276855,398.740784 C486.789764,398.417267 486.302673,398.093719 485.815582,397.770172 C483.086090,400.801239 480.356567,403.832306 476.953552,407.611328 C476.953552,396.241974 476.953552,385.851105 476.953552,375.331665 C471.147156,375.331665 465.795624,375.331665 459.974518,375.331665 C459.974518,395.934418 459.974518,416.130920 459.974518,436.327454 C459.712555,436.340424 459.450592,436.353394 459.188629,436.366364 C457.726624,424.385956 456.264648,412.405579 454.737427,399.890930 C450.235291,400.553558 446.363495,401.123413 442.395966,401.707367 C443.863403,416.945007 445.287079,431.728210 446.720276,446.610138 C451.285583,446.105652 455.329376,445.658813 459.695190,445.176361 C458.415070,465.299011 454.048248,483.805389 442.000488,499.870270 C446.405090,504.624512 450.510162,509.055420 455.824524,514.791626 C461.572845,502.819763 466.781281,491.972290 472.174835,480.739319 C475.355133,485.730194 478.763916,491.079651 482.293976,496.619415 C485.084015,494.401001 487.329163,492.615814 490.488342,490.103882 C490.488342,499.138245 490.488342,506.893280 490.488342,514.727905 C496.239319,514.727905 501.483398,514.727905 507.161163,514.727905 C507.161163,496.073914 507.161163,477.693970 507.161163,459.617950 C509.456268,460.614410 511.507477,461.504944 514.310791,462.722046 C514.310791,474.702820 514.310791,487.806641 514.310791,501.077820 C519.059753,501.077820 523.479614,501.077820 528.088684,501.077820 C528.307495,498.736908 528.502563,496.649597 528.736633,494.145630 C536.961792,494.145630 544.913879,494.145630 553.484680,494.145630 C553.484680,482.195282 553.484680,470.679108 553.484680,459.553925 C556.159180,460.158142 558.277710,460.636749 560.724121,461.189423 C560.724121,471.435242 560.880554,481.921356 560.658752,492.399414 C560.546021,497.722565 558.130554,499.629517 552.576965,499.575165 C549.467712,499.544708 546.360474,499.304962 542.819519,499.139252 C544.099976,504.694153 545.245789,509.665100 546.577209,515.441040 C552.990479,514.841431 559.305420,514.654419 565.456482,513.552429 C570.678284,512.616882 574.449829,509.083282 575.969055,503.898285 C576.938904,500.588257 577.585815,497.054108 577.605530,493.616028 C577.742615,469.625610 577.684204,445.634033 577.662659,421.642822 C577.661377,420.225006 577.437500,418.807404 577.287476,417.039917 C571.371643,417.039917 565.946899,417.039917 559.893982,417.039917 C561.741028,413.625916 563.285217,410.771790 565.153870,407.317963 C562.356506,406.602112 560.007141,405.958984 557.637573,405.401733 C547.239685,402.956360 547.068848,402.881470 542.353149,412.362701 C540.569641,415.948669 538.523560,417.367065 534.384033,417.368530 C529.820435,417.370117 526.795471,416.456787 525.542664,411.690491 C525.001770,409.632538 523.965088,407.621338 522.765381,405.852142 C522.071350,404.828613 520.528931,403.607117 519.498169,403.715027 C514.241333,404.265411 509.026886,405.220276 503.233459,406.121338 C505.156006,409.945801 506.812866,413.241760 508.680389,416.956848 C502.584778,416.956848 497.293335,416.956848 492.019836,416.407318 C492.043518,416.041534 492.067230,415.675751 492.371765,414.702087 C493.673553,413.493683 494.975342,412.285248 496.817017,410.951324 C496.637482,410.274750 496.457977,409.598175 495.668121,408.633423 C494.139984,406.996155 492.611877,405.358856 491.047638,403.113892 C491.029297,402.708405 491.010956,402.302887 491.904510,401.652710 M348.985718,516.467468 C348.751465,504.010498 349.622925,491.417175 348.106110,479.118378 C337.106018,389.925903 257.682159,323.994934 168.036118,329.140320 C65.766472,335.010223 -7.974169,425.081665 6.097508,526.942261 C17.672256,610.728271 92.079903,675.117004 177.164642,674.624573 C214.429459,674.408936 248.367249,663.300598 278.194397,640.855835 C319.359436,609.879456 342.606140,568.425964 348.985718,516.467468 M1011.788818,493.825989 C1003.728821,490.195221 995.668823,486.564453 987.469177,482.870789 C1001.092896,466.195465 1016.316406,451.699249 1011.741089,427.905029 C1001.795837,427.905029 991.732666,427.905029 981.894897,427.905029 C981.894897,422.763611 981.894897,418.187347 981.894897,413.170410 C993.431152,413.170410 1004.530945,413.170410 1015.581055,413.170410 C1015.581055,407.132660 1015.581055,401.570587 1015.581055,395.488678 C1004.166504,395.488678 993.088562,395.488678 981.440063,395.488678 C981.440063,388.405487 981.440063,381.829987 981.440063,375.216248 C974.260620,375.216248 967.669678,375.216248 960.534485,375.216248 C960.534485,382.056549 960.534485,388.623291 960.534485,395.740112 C949.918762,395.740112 939.838257,395.740112 929.808044,395.740112 C929.808044,401.873474 929.808044,407.418701 929.808044,413.560791 C940.242981,413.560791 950.295776,413.560791 960.356628,413.560791 C960.356628,418.731812 960.356628,423.283783 960.356628,428.233032 C949.883484,428.233032 939.783691,428.233032 929.551208,428.233032 C929.551208,434.367188 929.551208,440.087952 929.551208,446.265808 C935.442322,446.265808 941.001770,446.265808 946.561279,446.265808 C946.667847,446.592804 946.774414,446.919800 946.880981,447.246796 C942.316345,450.048737 937.751709,452.850677 932.410278,456.129425 C939.681946,465.050507 946.559387,473.487854 954.170837,482.825745 C942.878174,487.858002 931.747559,492.818085 920.304626,497.917297 C924.004272,503.992188 927.681702,510.030426 931.932556,517.010376 C943.762634,510.719818 955.307617,504.875244 966.515076,498.442383 C969.891846,496.504181 971.960266,496.183044 975.241211,498.509613 C985.148499,505.534943 995.943054,510.954651 1007.663696,515.133911 C1011.571777,508.780884 1015.279480,502.753448 1019.153015,496.456573 C1016.566772,495.528412 1014.540405,494.801208 1011.788818,493.825989 M746.143188,544.560913 C741.146667,544.561096 736.139893,544.755005 731.157349,544.491455 C727.982971,544.323547 726.496704,545.354614 725.443359,548.438049 C719.691467,565.275574 713.699402,582.031067 707.764221,598.805725 C707.484375,599.596741 706.960327,600.301392 706.394409,601.328674 C700.074524,583.442505 693.974548,566.025269 687.697327,548.672241 C687.127502,547.096924 685.472473,544.820312 684.230774,544.760803 C676.634460,544.396667 669.011963,544.578674 661.375977,544.578674 C661.375977,571.465271 661.375977,597.721252 661.375977,624.246094 C666.533203,624.246094 671.449768,624.246094 676.936401,624.246094 C676.936401,604.634583 676.936401,585.273499 676.936401,564.717773 C683.413574,582.523315 689.433594,599.080750 695.460205,615.635925 C698.718628,624.587036 698.726746,624.423462 708.183350,624.602783 C711.564636,624.666809 713.097778,623.678833 714.234497,620.394531 C720.161499,603.271423 726.380554,586.249329 732.510498,569.196655 C732.835938,568.291504 733.276001,567.427673 733.662720,566.544678 C733.897827,566.613098 734.132935,566.681580 734.368042,566.750061 C734.368042,585.833069 734.368042,604.916138 734.368042,624.198120 C740.045532,624.198120 745.443115,624.198120 750.716248,624.198120 C750.981018,623.592285 751.221375,623.298767 751.221924,623.004822 C751.267578,597.857605 751.248413,572.710144 751.375122,547.563416 C751.393250,543.967590 749.130615,544.622681 746.143188,544.560913 M924.531799,437.074493 C921.213013,437.839142 917.894165,438.603760 914.469727,439.392731 C914.469727,431.962280 914.469727,425.250183 914.469727,418.078003 C918.491150,418.078003 922.080872,418.078003 925.767578,418.078003 C925.767578,412.047180 925.767578,406.499695 925.767578,400.456512 C921.842651,400.456512 918.244263,400.456512 914.018799,400.456512 C914.018799,391.756470 914.018799,383.537231 914.018799,375.134766 C907.609558,375.134766 901.835632,375.134766 895.466309,375.134766 C895.466309,383.506134 895.466309,391.742249 895.466309,400.621948 C889.835571,400.621948 884.783081,400.621948 879.841797,400.621948 C879.841797,406.844513 879.841797,412.392090 879.841797,418.380341 C885.183960,418.380341 890.122803,418.380341 895.552246,418.380341 C895.552246,426.290558 895.674194,433.758179 895.404602,441.211639 C895.369141,442.190826 893.464050,443.616211 892.194458,443.944702 C887.600769,445.133392 882.908752,445.942261 878.102905,446.925385 C878.860168,453.871277 879.551819,460.215240 880.266357,466.769012 C885.535339,465.570892 890.170166,464.516968 895.249451,463.362000 C895.249451,473.154694 895.343445,482.252441 895.199402,491.346436 C895.147705,494.610870 892.847351,495.918213 889.791870,495.955200 C886.553284,495.994446 883.313782,495.964020 879.605652,495.964020 C881.267090,502.558441 882.794617,508.621094 884.304504,514.613953 C888.504883,514.613953 892.528625,515.040161 896.432739,514.537537 C910.673828,512.703979 914.000732,508.751648 914.026245,494.364410 C914.044556,484.039062 914.186279,473.710052 913.946167,463.390259 C913.860474,459.707184 914.814026,457.724823 918.688660,457.530365 C924.482361,457.239624 927.272217,454.561920 926.212341,448.371796 C925.574280,444.645355 925.628235,440.800415 924.531799,437.074493 M784.516174,544.567505 C780.061768,544.567505 775.607361,544.567505 771.041931,544.567505 C771.041931,571.483154 771.041931,597.839661 771.041931,624.360779 C782.921021,624.360779 794.412170,624.624512 805.879089,624.213501 C809.740662,624.075073 813.767456,622.710266 817.323792,621.056641 C825.875000,617.080383 830.463074,608.842651 829.718689,599.519714 C828.973511,590.186096 823.353394,584.894897 814.807129,582.199463 C814.260498,582.027039 813.709290,581.869324 812.624023,581.544128 C814.552795,580.449463 816.022278,579.711182 817.393066,578.820923 C823.591675,574.795288 827.124756,569.229431 826.473145,561.671326 C825.792358,553.774963 821.024963,548.888489 813.747253,546.657837 C809.821716,545.454529 805.615723,544.908142 801.499573,544.649841 C796.188843,544.316589 790.841492,544.568176 784.516174,544.567505 M502.675293,550.095825 C503.575775,548.542786 504.476227,546.989746 505.883331,544.562866 C502.655487,544.562866 500.145874,544.967712 497.816742,544.490967 C488.926971,542.671448 484.132874,546.717041 480.871338,554.663391 C478.213776,561.138245 474.378876,567.129822 470.878418,573.687195 C466.430847,564.596741 462.331635,556.056396 458.036743,547.615540 C457.397888,546.360107 455.876801,544.762634 454.697388,544.705933 C448.604279,544.412903 442.489594,544.569885 435.751923,544.569885 C436.707397,546.377991 437.257172,547.521484 437.896576,548.612488 C444.211151,559.386536 450.449554,570.207153 456.930267,580.880615 C458.540070,583.531921 458.492035,585.401428 456.776367,587.993164 C449.607697,598.822571 442.678040,609.810425 435.690491,620.759155 C435.048065,621.765747 434.616119,622.906616 433.826660,624.514099 C439.501984,624.514099 444.488922,624.286438 449.443054,624.591492 C452.945526,624.807190 454.832428,623.540955 456.416901,620.449402 C460.714539,612.064087 465.361084,603.857544 470.131165,595.099243 C474.978027,604.087341 479.466797,612.567993 484.148254,620.940857 C484.942108,622.360657 486.506775,624.247620 487.813477,624.328308 C493.731415,624.693420 499.684509,624.487976 506.369446,624.487976 C505.209015,622.402344 504.486450,620.986328 503.658691,619.634705 C497.134277,608.980896 490.683258,598.279968 483.985931,587.735657 C482.304779,585.088745 482.373871,583.169495 484.011658,580.567627 C490.222534,570.700378 496.201324,560.687134 502.675293,550.095825 M655.711121,511.173828 C665.132385,505.255188 674.716553,499.574493 683.888489,493.291870 C687.204834,491.020264 688.995361,491.081055 691.734924,493.866364 C698.932861,501.184387 706.426025,508.211945 714.038086,515.584229 C718.559326,510.700775 723.257446,505.626221 728.318604,500.159515 C719.691345,492.516113 711.390503,485.161896 703.283447,477.979340 C711.830322,467.571259 720.192566,457.388062 728.769165,446.943817 C725.168335,444.732971 722.626465,443.171967 720.084229,441.611633 C717.570435,440.068726 715.056213,438.526459 712.257385,436.809204 C691.899841,465.895203 664.259827,485.611053 633.026184,501.349640 C637.476746,506.576324 641.445190,511.236755 645.651062,516.176086 C648.872131,514.600281 651.975891,513.081787 655.711121,511.173828 M609.756165,588.615051 C605.598328,575.106934 601.484375,561.584839 597.213989,548.112427 C596.792664,546.783203 595.471680,544.810730 594.468750,544.748901 C589.062195,544.415466 583.624207,544.591064 577.692139,544.591064 C578.160034,546.194702 578.388855,547.112244 578.693726,548.003906 C585.843445,568.916992 592.973511,589.836975 600.179565,610.730713 C601.741760,615.260254 602.371033,621.537598 605.622009,623.673157 C609.145081,625.987427 615.242554,624.231628 620.194824,624.574951 C623.411560,624.797913 624.932556,623.599060 625.929749,620.568542 C629.414490,609.978455 633.146118,599.469543 636.789856,588.931824 C641.823792,574.373840 646.863037,559.817688 652.141663,544.562378 C647.763000,544.562378 643.950439,544.899292 640.223389,544.478638 C635.374573,543.931335 633.381470,545.756287 632.030762,550.479492 C626.834290,568.650452 621.117859,586.672668 615.152710,606.199219 C613.136230,599.707581 611.534607,594.551697 609.756165,588.615051 M993.197998,575.160522 C993.197998,569.718628 993.197998,564.276672 993.197998,558.324707 C1002.952209,558.324707 1012.043640,558.324707 1021.308350,558.324707 C1021.308350,553.555786 1021.308350,549.322693 1021.308350,544.881348 C1006.117126,544.881348 991.212585,544.881348 976.179077,544.881348 C976.179077,571.451416 976.179077,597.710327 976.179077,624.237915 C991.861206,624.237915 1007.286560,624.237915 1022.790161,624.237915 C1022.790161,619.642456 1022.790161,615.270508 1022.790161,610.468384 C1012.800354,610.468384 1003.208618,610.468384 993.499878,610.468384 C993.499878,603.786438 993.499878,597.552856 993.499878,590.913086 C1002.248535,590.913086 1010.679749,590.913086 1019.270996,590.913086 C1019.270996,586.103394 1019.270996,581.708679 1019.270996,577.060547 C1014.096680,577.060547 1009.269958,577.183044 1004.452759,577.021057 C1000.734131,576.896118 997.027527,576.414307 993.197998,575.160522 M572.379822,617.899292 C572.379822,613.986206 572.379822,610.073181 572.379822,605.886230 C554.210205,612.988586 541.480103,611.622559 533.863647,602.128784 C526.884338,593.429138 526.503540,578.259949 533.026733,568.786133 C540.483521,557.956360 552.118286,556.111877 572.373169,562.802856 C572.373169,558.033508 572.565918,553.405457 572.238892,548.814514 C572.156250,547.653809 570.594299,545.924011 569.409302,545.614319 C533.632385,536.263245 508.802399,557.174500 510.142578,588.937500 C510.835205,605.353699 519.862610,618.690125 534.480286,623.324951 C545.923218,626.953186 557.532043,626.392883 568.902222,622.714661 C570.337830,622.250305 571.231262,620.110474 572.379822,617.899292 M862.355408,572.077393 C858.833130,563.991577 855.379028,555.874634 851.720032,547.851196 C851.125916,546.548523 849.672302,544.790039 848.533264,544.726562 C842.798218,544.407166 837.035706,544.579956 830.588806,544.579956 C838.704163,561.229431 846.486755,577.018921 854.055298,592.910400 C855.219177,595.354248 855.855774,598.252319 855.944824,600.966309 C856.195007,608.596436 856.032043,616.240112 856.032043,624.100220 C861.925476,624.100220 867.436401,624.100220 873.229736,624.100220 C873.229736,616.545654 872.928101,609.382812 873.350952,602.263123 C873.578613,598.429260 874.437134,594.380005 876.070251,590.929260 C881.189514,580.112244 886.824097,569.539551 892.233521,558.859314 C894.515991,554.352905 896.734619,549.814087 899.342651,544.564697 C895.456665,544.564697 892.415955,545.009949 889.558167,544.476074 C882.693604,543.193604 879.558472,546.354797 877.246338,552.481323 C873.853027,561.472534 869.543823,570.118103 865.347534,579.533203 C864.265686,576.757507 863.485962,574.757080 862.355408,572.077393 M942.267578,594.500061 C942.267578,582.583923 942.267578,570.667786 942.267578,558.209961 C950.185486,558.209961 957.416992,558.209961 964.738037,558.209961 C964.738037,553.433228 964.738037,549.217468 964.738037,544.936279 C943.870972,544.936279 923.326599,544.936279 902.834229,544.936279 C902.834229,549.529480 902.834229,553.749084 902.834229,558.419434 C910.313843,558.419434 917.415588,558.419434 925.084106,558.419434 C925.084106,580.567566 925.084106,602.265137 925.084106,624.198975 C931.072754,624.198975 936.473511,624.198975 942.267639,624.198975 C942.267639,614.433594 942.267639,604.966858 942.267578,594.500061 z"/><path fill="#0A4AAF" d="M348.927887,516.915649 C342.606140,568.425964 319.359436,609.879456 278.194397,640.855835 C248.367249,663.300598 214.429459,674.408936 177.164642,674.624573 C92.079903,675.117004 17.672256,610.728271 6.097508,526.942261 C-7.974169,425.081665 65.766472,335.010223 168.036118,329.140320 C257.682159,323.994934 337.106018,389.925903 348.106110,479.118378 C349.622925,491.417175 348.751465,504.010498 348.927887,516.915649 M142.270782,478.121887 C162.742828,473.991058 183.214874,469.860260 204.140259,465.638000 C204.140259,472.747162 203.942856,479.069916 204.209290,485.373047 C204.388611,489.615295 202.429047,491.339966 198.575958,492.084167 C186.970184,494.325867 175.391891,496.710693 163.809265,499.071045 C155.902084,500.682434 148.005615,502.346405 140.055130,503.997070 C140.055130,505.656891 140.055145,506.650574 140.055130,507.644226 C140.054962,533.143372 140.070251,558.642517 140.043777,584.141663 C140.037170,590.518738 137.166000,592.316162 131.506500,589.285095 C127.407433,587.089722 123.574112,584.403442 119.567848,582.027832 C116.374023,580.133972 115.252090,577.531189 115.285080,573.752869 C115.458229,553.921692 115.366112,534.088257 115.366127,514.255554 C115.366127,512.471497 115.366112,510.687439 115.366112,508.330780 C91.669022,512.487549 68.657303,516.524109 45.220787,520.635132 C43.264668,507.519958 43.476494,495.125305 45.107574,482.713013 C54.839153,408.657043 128.242279,356.067017 201.333649,370.584930 C229.499069,376.179352 253.539078,389.041138 273.497375,409.670563 C274.726715,410.941223 276.867981,412.238708 278.447479,412.087585 C282.842987,411.666901 287.166016,410.489075 291.329376,409.648315 C291.462494,409.053497 291.577881,408.851624 291.519348,408.747528 C291.196716,408.173553 290.896545,407.567657 290.471680,407.073242 C263.211060,375.348663 228.854507,356.958191 187.054092,354.260376 C141.788696,351.338989 103.106812,366.792511 71.047234,398.946228 C27.463757,442.657745 16.631281,513.713989 45.240120,568.409729 C46.741798,571.280762 48.201317,572.040894 51.435413,571.305359 C62.310406,568.832336 73.299103,566.862671 84.192383,564.464600 C87.543793,563.726746 89.539337,564.408752 91.738953,567.255066 C137.106155,625.958313 224.837418,623.224670 266.535553,561.865173 C274.878387,549.588623 280.482422,536.119934 283.047333,521.471436 C283.966248,516.223389 282.274567,514.397949 277.337402,514.895264 C275.024139,515.128174 272.735168,515.617737 270.441193,516.024719 C259.989258,517.879211 249.539459,519.745728 238.835678,521.653015 C238.835678,535.899475 238.835342,549.714783 238.835785,563.530090 C238.836349,581.192261 238.836578,581.192200 222.927979,589.208862 C216.951889,592.220398 214.065659,590.540894 214.055405,583.953857 C214.028168,566.454468 214.045929,548.955017 214.045792,531.455627 C214.045776,529.744263 214.045792,528.032898 214.045792,526.031982 C192.297256,530.432861 171.359619,534.669678 149.981049,538.995728 C149.981049,532.312561 150.340759,526.301270 149.875092,520.354614 C149.449554,514.920349 151.935257,512.958801 156.793427,512.106628 C165.638046,510.555267 174.425995,508.676483 183.227371,506.884094 C193.448685,504.802582 203.659027,502.667175 214.045563,500.519714 C214.045563,498.226562 214.045563,496.408661 214.045563,494.590729 C214.045593,469.424896 214.026657,444.259064 214.059525,419.093292 C214.067352,413.104309 217.123917,411.105591 222.342422,413.898041 C226.736069,416.249146 230.832947,419.148590 235.125351,421.697266 C238.044846,423.430817 238.917175,425.862030 238.897232,429.203918 C238.774902,449.702484 238.836197,470.202179 238.836334,490.701477 C238.836349,492.429901 238.836334,494.158325 238.836334,496.171204 C262.682251,491.992004 285.730865,487.952576 309.102295,483.856537 C309.421204,486.036865 309.875275,487.505463 309.809937,488.950562 C309.225159,501.885925 309.924255,515.062622 307.667419,527.708130 C296.406921,590.802734 236.928604,637.697449 172.958389,634.918335 C136.605453,633.338989 105.828697,619.535889 80.423218,593.552734 C79.497864,592.606323 77.942268,591.471863 76.853935,591.628784 C72.199570,592.299988 67.610374,593.423035 62.495033,594.485718 C63.637836,596.056824 64.231590,597.043640 64.986374,597.886230 C96.245903,632.781799 135.113770,651.098633 182.143845,649.090820 C238.517136,646.684082 280.953461,619.837524 307.573151,570.433533 C331.061066,526.841797 330.808807,481.711090 309.877838,436.753021 C308.166901,433.078064 306.498444,431.630035 301.986908,432.764679 C291.348846,435.440033 280.466034,437.127045 269.755646,439.539642 C266.596436,440.251312 265.013092,439.366669 263.147614,436.922363 C217.176392,376.687164 127.446831,380.114777 86.234482,443.664459 C78.356804,455.811890 73.049110,469.047516 70.858246,483.407349 C70.050049,488.704620 72.125000,490.488342 77.405762,489.608856 C80.526283,489.089142 83.644325,488.553284 86.758270,487.995636 C96.206779,486.303528 105.652748,484.597229 115.366066,482.848541 C115.366066,468.167389 115.366440,454.023071 115.365982,439.878723 C115.365417,422.226166 115.365120,422.226166 131.248520,414.123688 C137.184921,411.095398 140.037415,412.807770 140.046234,419.489075 C140.070007,437.488434 140.022141,455.488037 140.111374,473.487000 C140.119156,475.058899 140.925613,476.626831 142.270782,478.121887 z"/><path fill="#0D4CB0" d="M492.001923,416.956848 C497.293335,416.956848 502.584778,416.956848 508.680389,416.956848 C506.812866,413.241760 505.156006,409.945801 503.233459,406.121338 C509.026886,405.220276 514.241333,404.265411 519.498169,403.715027 C520.528931,403.607117 522.071350,404.828613 522.765381,405.852142 C523.965088,407.621338 525.001770,409.632538 525.542664,411.690491 C526.795471,416.456787 529.820435,417.370117 534.384033,417.368530 C538.523560,417.367065 540.569641,415.948669 542.353149,412.362701 C547.068848,402.881470 547.239685,402.956360 557.637573,405.401733 C560.007141,405.958984 562.356506,406.602112 565.153870,407.317963 C563.285217,410.771790 561.741028,413.625916 559.893982,417.039917 C565.946899,417.039917 571.371643,417.039917 577.287476,417.039917 C577.437500,418.807404 577.661377,420.225006 577.662659,421.642822 C577.684204,445.634033 577.742615,469.625610 577.605530,493.616028 C577.585815,497.054108 576.938904,500.588257 575.969055,503.898285 C574.449829,509.083282 570.678284,512.616882 565.456482,513.552429 C559.305420,514.654419 552.990479,514.841431 546.577209,515.441040 C545.245789,509.665100 544.099976,504.694153 542.819519,499.139252 C546.360474,499.304962 549.467712,499.544708 552.576965,499.575165 C558.130554,499.629517 560.546021,497.722565 560.658752,492.399414 C560.880554,481.921356 560.724121,471.435242 560.724121,461.189423 C558.277710,460.636749 556.159180,460.158142 553.484680,459.553925 C553.484680,470.679108 553.484680,482.195282 553.484680,494.145630 C544.913879,494.145630 536.961792,494.145630 528.736633,494.145630 C528.502563,496.649597 528.307495,498.736908 528.088684,501.077820 C523.479614,501.077820 519.059753,501.077820 514.310791,501.077820 C514.310791,487.806641 514.310791,474.702820 514.310791,462.722046 C511.507477,461.504944 509.456268,460.614410 507.161163,459.617950 C507.161163,477.693970 507.161163,496.073914 507.161163,514.727905 C501.483398,514.727905 496.239319,514.727905 490.488342,514.727905 C490.488342,506.893280 490.488342,499.138245 490.488342,490.103882 C487.329163,492.615814 485.084015,494.401001 482.293976,496.619415 C478.763916,491.079651 475.355133,485.730194 472.174835,480.739319 C466.781281,491.972290 461.572845,502.819763 455.824524,514.791626 C450.510162,509.055420 446.405090,504.624512 442.000488,499.870270 C454.048248,483.805389 458.415070,465.299011 459.695190,445.176361 C455.329376,445.658813 451.285583,446.105652 446.720276,446.610138 C445.287079,431.728210 443.863403,416.945007 442.395966,401.707367 C446.363495,401.123413 450.235291,400.553558 454.737427,399.890930 C456.264648,412.405579 457.726624,424.385956 459.188629,436.366364 C459.450592,436.353394 459.712555,436.340424 459.974518,436.327454 C459.974518,416.130920 459.974518,395.934418 459.974518,375.331665 C465.795624,375.331665 471.147156,375.331665 476.953552,375.331665 C476.953552,385.851105 476.953552,396.241974 476.953552,407.611328 C480.356567,403.832306 483.086090,400.801239 485.815582,397.770172 C486.302673,398.093719 486.789764,398.417267 487.276855,398.740784 C487.276855,394.967712 487.276855,391.194672 487.276855,386.880798 C499.049377,386.880798 510.444794,386.880798 522.540588,386.880798 C521.632263,382.919617 520.876648,379.624451 520.004761,375.821930 C526.791931,375.498199 533.350647,375.185394 540.252319,374.856201 C541.148987,378.962799 541.984131,382.787689 542.875366,386.869690 C555.351990,386.869690 567.461731,386.869690 579.812134,386.869690 C579.812134,391.818268 579.812134,396.414307 579.812134,401.652710 C550.454773,401.652710 521.179626,401.652710 491.113190,401.760010 C490.575836,402.485413 490.829773,403.103485 491.083740,403.721588 C492.611877,405.358856 494.139984,406.996155 496.009827,409.135864 C496.326691,410.117798 496.301880,410.597321 496.277100,411.076813 C494.975342,412.285248 493.673553,413.493683 491.943604,415.112671 C491.361298,416.027283 491.207123,416.531342 490.717041,417.094849 C485.993134,421.453827 479.218079,425.067413 477.742096,430.203735 C475.121277,439.323853 473.699493,449.794373 475.625946,458.884033 C477.061218,465.656158 484.567932,471.141571 489.370697,477.200012 C490.530304,469.472260 490.479065,462.186035 490.541687,454.900757 C490.650360,442.252960 490.829407,429.605743 491.234802,417.041565 C491.661102,417.068817 491.831512,417.012817 492.001923,416.956848 M509.468872,445.648438 C512.966003,441.727234 516.463196,437.806030 520.568787,433.601044 C521.380493,433.396973 522.192261,433.192902 523.375366,433.553253 C526.434875,435.680786 529.494385,437.808350 532.771240,440.087006 C529.197449,444.081940 526.065002,447.583496 522.559692,451.501831 C531.503052,451.501831 539.596436,451.501831 548.476135,451.501831 C544.440491,447.226807 540.985779,443.567169 537.485718,439.859467 C540.360596,437.409637 542.749451,435.373962 545.778564,433.095154 C547.096741,433.404846 548.746826,433.318176 549.674011,434.094696 C553.174866,437.026550 556.440857,440.238922 560.522827,444.020813 C560.522827,439.329132 560.522827,435.690216 560.522827,431.910126 C555.146851,431.910126 550.063049,431.910126 544.067749,431.680511 C537.049316,431.766602 530.030823,431.852661 522.574097,431.627045 C521.707825,431.715912 520.841553,431.804779 519.066040,431.676239 C515.184998,431.676239 511.303894,431.676239 507.197906,431.676239 C507.197906,436.847443 507.197906,441.418243 507.152435,446.627197 C507.724030,446.403198 508.295624,446.179230 509.468872,445.648438 M528.274658,478.197845 C531.141968,482.859070 535.169312,479.397064 538.769348,480.254730 C538.769348,475.143646 538.769348,470.615479 538.769348,466.065735 C535.157410,466.065735 531.930420,466.065735 528.255310,466.065735 C528.255310,470.014587 528.255310,473.635834 528.274658,478.197845 z"/><path fill="#0A4AAF" d="M1012.151489 493.950012C1014.540405 494.801208 1016.566772 495.528412 1019.153015 496.456573 1015.27948 502.753448 1011.571777 508.780884 1007.663696 515.133911 995.943054 510.954651 985.148499 505.534943 975.241211 498.509613 971.960266 496.183044 969.891846 496.504181 966.515076 498.442383 955.307617 504.875244 943.762634 510.719818 931.932556 517.010376 927.681702 510.030426 924.004272 503.992188 920.304626 497.917297 931.747559 492.818085 942.878174 487.858002 954.170837 482.825745 946.559387 473.487854 939.681946 465.050507 932.410278 456.129425 937.751709 452.850677 942.316345 450.048737 946.880981 447.246796 946.774414 446.9198 946.667847 446.592804 946.561279 446.265808 941.00177 446.265808 935.442322 446.265808 929.551208 446.265808 929.551208 440.087952 929.551208 434.367188 929.551208 428.233032 939.783691 428.233032 949.883484 428.233032 960.356628 428.233032 960.356628 423.283783 960.356628 418.731812 960.356628 413.560791 950.295776 413.560791 940.242981 413.560791 929.808044 413.560791 929.808044 407.418701 929.808044 401.873474 929.808044 395.740112 939.838257 395.740112 949.918762 395.740112 960.534485 395.740112 960.534485 388.623291 960.534485 382.056549 960.534485 375.216248 967.669678 375.216248 974.26062 375.216248 981.440063 375.216248 981.440063 381.829987 981.440063 388.405487 981.440063 395.488678 993.088562 395.488678 1004.166504 395.488678 1015.581055 395.488678 1015.581055 401.570587 1015.581055 407.13266 1015.581055 413.17041 1004.530945 413.17041 993.431152 413.17041 981.894897 413.17041 981.894897 418.187347 981.894897 422.763611 981.894897 427.905029 991.732666 427.905029 1001.795837 427.905029 1011.741089 427.905029 1016.316406 451.699249 1001.092896 466.195465 987.469177 482.870789 995.668823 486.564453 1003.728821 490.195221 1012.151489 493.950012M953.295227 452.147003C958.798035 458.420471 964.300903 464.69397 969.964844 471.151123 978.557495 463.592072 984.884277 455.994354 989.34967 446.485229 975.7948 446.485229 963.009766 446.485229 949.60022 446.485229 950.938599 448.541687 951.914001 450.040466 953.295227 452.147003zM739.056396 490.99823C737.224854 484.955444 735.200073 478.960052 733.69751 472.836548 733.322327 471.307495 734.313538 469.179474 735.216248 467.643921 740.51886 458.624451 746.011108 449.716705 751.357971 440.722839 752.179504 439.34082 752.578674 437.707703 753.458679 435.462341 746.831848 435.462341 740.796631 435.462341 734.456299 435.462341 734.456299 428.941254 734.456299 423.007233 734.456299 416.358887 740.872803 416.358887 747.420898 416.358887 754.145691 416.358887 754.145691 411.091064 754.145691 406.535645 754.145691 401.342072 748.401489 401.755554 743.00946 402.143646 737.434937 402.544891 736.316711 396.849213 735.27179 391.527039 734.146301 385.794647 743.421265 384.852295 752.480896 383.994324 761.524719 382.9935 768.97168 382.169373 776.435486 381.390198 783.821167 380.16507 787.384705 379.573944 788.984314 380.566498 789.821594 383.984802 790.834778 388.12146 792.262573 392.156586 793.6745 396.769897 787.647461 397.521271 782.243958 398.358948 776.808228 398.807648 773.813843 399.05484 772.778748 400.246887 772.919739 403.192749 773.117004 407.312439 772.969421 411.4487 772.969421 416.032288 779.178101 416.032288 784.943359 416.032288 791.226135 416.032288 791.226135 421.914734 791.226135 427.347198 791.226135 433.080475 795.237671 429.017975 798.868286 425.341217 803.035889 421.120636 811.911743 428.669403 819.936768 435.494568 827.566895 441.983856 823.042847 446.85849 818.901794 451.320374 814.824158 455.713928 808.678772 450.104553 802.717285 444.786011 796.904541 439.309692 793.608643 436.204712 790.118469 434.402222 785.353027 434.952179 781.444763 435.403229 777.442993 435.044067 773.234314 435.044067 773.234314 438.793274 773.234314 442.040009 773.234314 446.070068 775.632751 444.217682 777.627808 442.67691 780.003357 440.842224 785.029541 445.623718 789.955017 450.309387 794.974609 455.703186 795.035645 457.243927 795.002563 458.076508 794.969421 458.909119 793.060486 460.503387 791.15155 462.097656 788.569702 463.888123 786.516174 464.420868 785.135559 464.757416 783.754944 465.093964 783.421326 465.100006 783.169434 464.959564 782.95813 464.090546 780.330566 460.586975 777.900574 457.502014 775.092957 454.811035 773.63031 453.409149 771.873596 453.278717 772.67627 456.341797 772.67627 475.634003 772.67627 494.926208 772.67627 514.609436 766.84552 514.609436 760.968933 514.609436 754.60675 514.609436 754.60675 500.151306 754.60675 485.721649 754.777466 470.469452 754.525452 468.907257 754.102661 468.167603 753.679932 467.427979 753.203308 468.517822 752.726685 469.607666 752.25 470.69751 751.546753 472.299103 750.843445 473.900726 749.592651 475.823425 748.69928 477.10321 748.353333 478.061951 748.007446 479.020691 745.835754 482.875824 743.664062 486.730927 740.901001 490.78595 739.891846 490.98996 739.474121 490.99411 739.056396 490.99823z"/><path fill="#0C4BB0" d="M746.594421,544.561157 C749.130615,544.622681 751.393250,543.967590 751.375122,547.563416 C751.248413,572.710144 751.267578,597.857605 751.221924,623.004822 C751.221375,623.298767 750.981018,623.592285 750.716248,624.198120 C745.443115,624.198120 740.045532,624.198120 734.368042,624.198120 C734.368042,604.916138 734.368042,585.833069 734.368042,566.750061 C734.132935,566.681580 733.897827,566.613098 733.662720,566.544678 C733.276001,567.427673 732.835938,568.291504 732.510498,569.196655 C726.380554,586.249329 720.161499,603.271423 714.234497,620.394531 C713.097778,623.678833 711.564636,624.666809 708.183350,624.602783 C698.726746,624.423462 698.718628,624.587036 695.460205,615.635925 C689.433594,599.080750 683.413574,582.523315 676.936401,564.717773 C676.936401,585.273499 676.936401,604.634583 676.936401,624.246094 C671.449768,624.246094 666.533203,624.246094 661.375977,624.246094 C661.375977,597.721252 661.375977,571.465271 661.375977,544.578674 C669.011963,544.578674 676.634460,544.396667 684.230774,544.760803 C685.472473,544.820312 687.127502,547.096924 687.697327,548.672241 C693.974548,566.025269 700.074524,583.442505 706.394409,601.328674 C706.960327,600.301392 707.484375,599.596741 707.764221,598.805725 C713.699402,582.031067 719.691467,565.275574 725.443359,548.438049 C726.496704,545.354614 727.982971,544.323547 731.157349,544.491455 C736.139893,544.755005 741.146667,544.561096 746.594421,544.561157 z"/><path fill="#0A4AAF" d="M642.393250,446.996826 C641.834961,446.621063 641.276672,446.245300 640.377563,445.623413 C640.051697,445.165985 640.066711,444.954681 640.380737,444.590820 C640.392456,443.014099 640.438965,441.399689 639.755920,440.200928 C637.580627,436.382507 638.932068,434.126953 641.730469,430.936890 C647.514709,424.343109 652.325928,416.895660 657.537292,409.799286 C657.176392,409.380646 656.815491,408.962036 656.454590,408.543396 C653.022705,408.543396 649.590759,408.543396 646.158875,408.543365 C638.368774,408.543243 638.368774,408.543243 637.638306,400.966400 C637.842529,398.170227 638.046753,395.374084 638.291138,392.027283 C648.629028,392.027283 659.017578,392.027283 670.407837,392.027283 C668.368042,387.209503 666.671631,383.202698 664.749084,378.661774 C671.436768,377.411469 677.721375,376.113403 684.059937,375.183228 C685.018555,375.042572 686.648987,376.379333 687.242554,377.439301 C688.944031,380.477783 690.556885,383.628693 691.671997,386.916046 C692.925537,390.611267 694.880737,392.007965 698.951721,391.850250 C708.086670,391.496368 717.245300,391.752533 726.920532,392.298706 C727.453308,397.932556 727.459778,403.028046 727.466187,408.123535 C718.631165,408.225861 709.796082,408.328217 700.062805,408.402710 C694.356018,408.349152 689.546265,408.256622 684.739807,408.343719 C683.504211,408.366119 681.726318,408.546844 681.136047,409.347046 C676.286987,415.921661 671.659546,422.659760 666.412720,430.134918 C671.578430,429.851013 675.553284,429.303497 679.487549,429.514191 C683.019592,429.703339 685.043152,428.117584 686.756897,425.438446 C689.525208,421.110718 692.203552,416.708252 695.273499,412.601624 C696.155579,411.421692 698.253540,411.150726 699.794067,410.463013 C704.320618,413.170990 708.847168,415.878967 713.664551,418.760925 C706.687073,431.336273 698.280701,442.421783 688.687195,452.624207 C675.823425,466.304504 661.064270,477.599060 645.033081,487.330109 C642.032776,489.151276 640.261414,489.171204 638.039062,486.253510 C635.337585,482.706726 632.074951,479.587402 629.271973,476.520447 C641.144958,467.402374 652.939941,458.344208 665.212769,448.882141 C664.811035,445.305420 663.174561,445.216309 660.998291,447.326385 C658.296265,447.581116 655.594238,447.835846 652.275146,447.797791 C650.771118,447.764771 649.884155,448.024567 648.997192,448.284424 C647.611084,448.496033 646.224976,448.707611 644.384155,448.570129 C643.417419,447.813019 642.905334,447.404907 642.393250,446.996826 z"/><path fill="#104EB1" d="M783.870972,465.396790 C785.135559,464.757416 786.516174,464.420868 788.240662,463.994873 C790.018677,464.279572 791.483521,465.066742 792.882202,464.963013 C804.996887,464.064697 817.097229,462.974152 829.208252,462.023315 C831.533997,461.840729 833.400452,461.763611 833.375183,458.555420 C833.242798,441.739410 833.262085,424.922241 833.204773,408.105530 C833.203857,407.848663 832.898926,407.592834 832.432983,406.860382 C828.082031,410.980743 823.810059,415.026245 819.465027,419.140961 C811.907715,412.189575 804.467590,405.345947 797.434143,398.876373 C800.995850,394.849396 804.587708,390.788330 808.552734,386.305298 C816.652466,392.819489 824.474182,399.110077 833.148865,406.086670 C833.148865,395.579773 833.148865,386.053406 833.148865,376.223480 C840.166260,376.223480 846.576416,376.223480 853.671265,376.223480 C853.671265,403.919525 853.671265,431.627472 853.671265,459.682037 C860.444824,459.250641 866.528320,458.863190 872.888550,458.458099 C873.423340,464.541077 873.916199,470.146820 874.462708,476.363495 C868.814392,476.869965 863.432251,477.483734 858.032532,477.788086 C854.736145,477.973846 853.470886,479.189178 853.539124,482.661133 C853.747803,493.279907 853.614990,503.905396 853.614990,514.766296 C846.711914,514.766296 840.304321,514.766296 833.339966,514.766296 C833.339966,503.355560 833.339966,492.105743 833.339966,480.109497 C818.584961,481.261688 804.426697,482.367279 789.776428,483.511292 C789.138794,478.875366 788.460815,474.652679 788.009827,470.405884 C787.733459,467.802673 787.251282,465.631317 783.870972,465.396790 z"/><path fill="#0B4BAF" d="M640.081665,444.743347 C640.066711,444.954681 640.051697,445.165985 640.019897,445.694672 C636.260559,450.201263 632.518066,454.390503 628.558594,458.822571 C626.793823,457.289581 625.350464,456.035767 623.116333,454.095093 C623.116333,474.695099 623.116333,494.494293 623.116333,514.644531 C616.719482,514.644531 610.983765,514.644531 604.694092,514.644531 C604.694092,496.724365 604.694092,478.673645 604.694092,460.622925 C604.334534,460.520355 603.975037,460.417755 603.615479,460.315155 C599.750793,467.806976 595.886108,475.298828 591.344482,484.102844 C589.683594,474.654510 588.177856,466.740540 586.998840,458.778198 C586.787720,457.352631 587.810425,455.674866 588.463379,454.202209 C592.699890,444.647736 597.023254,435.131653 601.235107,425.566498 C601.951172,423.940338 602.266968,422.137939 602.970398,419.720245 C597.627869,419.720245 592.906677,419.720245 587.808350,419.720245 C587.808350,413.112823 587.808350,407.090942 587.808350,400.560760 C593.223450,400.560760 598.482483,400.560760 604.346191,400.560760 C604.346191,392.197632 604.346191,384.308441 604.346191,376.174591 C610.703674,376.174591 616.443604,376.174591 622.788269,376.174591 C622.788269,384.215393 622.788269,392.117645 622.788269,400.829681 C627.667236,400.829681 631.951965,400.829681 636.602173,401.357178 C636.967712,407.474243 636.967712,413.063751 636.967712,419.251587 C631.864746,419.251587 627.488098,419.251587 623.315796,419.251587 C621.505920,426.275574 622.915771,431.235901 628.911011,435.051819 C633.024353,437.669952 636.384705,441.471039 640.081665,444.743347 z"/><path fill="#0A4AAF" d="M924.951416 437.041626C925.628235 440.800415 925.57428 444.645355 926.212341 448.371796 927.272217 454.56192 924.482361 457.239624 918.68866 457.530365 914.814026 457.724823 913.860474 459.707184 913.946167 463.390259 914.186279 473.710052 914.044556 484.039062 914.026245 494.36441 914.000732 508.751648 910.673828 512.703979 896.432739 514.537537 892.528625 515.040161 888.504883 514.613953 884.304504 514.613953 882.794617 508.621094 881.26709 502.558441 879.605652 495.96402 883.313782 495.96402 886.553284 495.994446 889.79187 495.9552 892.847351 495.918213 895.147705 494.61087 895.199402 491.346436 895.343445 482.252441 895.249451 473.154694 895.249451 463.362 890.170166 464.516968 885.535339 465.570892 880.266357 466.769012 879.551819 460.21524 878.860168 453.871277 878.102905 446.925385 882.908752 445.942261 887.600769 445.133392 892.194458 443.944702 893.46405 443.616211 895.369141 442.190826 895.404602 441.211639 895.674194 433.758179 895.552246 426.290558 895.552246 418.380341 890.122803 418.380341 885.18396 418.380341 879.841797 418.380341 879.841797 412.39209 879.841797 406.844513 879.841797 400.621948 884.783081 400.621948 889.835571 400.621948 895.466309 400.621948 895.466309 391.742249 895.466309 383.506134 895.466309 375.134766 901.835632 375.134766 907.609558 375.134766 914.018799 375.134766 914.018799 383.537231 914.018799 391.75647 914.018799 400.456512 918.244263 400.456512 921.842651 400.456512 925.767578 400.456512 925.767578 406.499695 925.767578 412.04718 925.767578 418.078003 922.080872 418.078003 918.49115 418.078003 914.469727 418.078003 914.469727 425.250183 914.469727 431.96228 914.469727 439.392731 917.894165 438.60376 921.213013 437.839142 924.951416 437.041626zM785.013062 544.567688C790.841492 544.568176 796.188843 544.316589 801.499573 544.649841 805.615723 544.908142 809.821716 545.454529 813.747253 546.657837 821.024963 548.888489 825.792358 553.774963 826.473145 561.671326 827.124756 569.229431 823.591675 574.795288 817.393066 578.820923 816.022278 579.711182 814.552795 580.449463 812.624023 581.544128 813.70929 581.869324 814.260498 582.027039 814.807129 582.199463 823.353394 584.894897 828.973511 590.186096 829.718689 599.519714 830.463074 608.842651 825.875 617.080383 817.323792 621.056641 813.767456 622.710266 809.740662 624.075073 805.879089 624.213501 794.41217 624.624512 782.921021 624.360779 771.041931 624.360779 771.041931 597.839661 771.041931 571.483154 771.041931 544.567505 775.607361 544.567505 780.061768 544.567505 785.013062 544.567688M801.747314 590.360718C797.312256 590.360718 792.877197 590.360718 788.260254 590.360718 788.260254 597.401367 788.260254 604.295471 788.260254 611.521484 790.128723 611.604858 791.756165 611.773438 793.377625 611.728027 796.033936 611.653748 798.717102 611.643066 801.334167 611.245056 807.572632 610.296204 811.062805 606.762207 811.433716 601.347961 811.813904 595.799622 809.176819 592.59137 801.747314 590.360718M798.800903 576.834839C799.761047 576.565063 800.750854 576.371582 801.676453 576.012634 806.470825 574.153442 808.621887 570.634033 808.117859 565.4776 807.64679 560.658936 804.412354 558.584473 800.116394 558.016663 796.249268 557.505615 792.321594 557.451904 788.275879 557.187012 788.275879 564.210266 788.275879 570.439636 788.275879 576.918457 791.689636 576.918457 794.812927 576.918457 798.800903 576.834839z"/><path fill="#0B4BAF" d="M502.471100,550.412109 C496.201324,560.687134 490.222534,570.700378 484.011658,580.567627 C482.373871,583.169495 482.304779,585.088745 483.985931,587.735657 C490.683258,598.279968 497.134277,608.980896 503.658691,619.634705 C504.486450,620.986328 505.209015,622.402344 506.369446,624.487976 C499.684509,624.487976 493.731415,624.693420 487.813477,624.328308 C486.506775,624.247620 484.942108,622.360657 484.148254,620.940857 C479.466797,612.567993 474.978027,604.087341 470.131165,595.099243 C465.361084,603.857544 460.714539,612.064087 456.416901,620.449402 C454.832428,623.540955 452.945526,624.807190 449.443054,624.591492 C444.488922,624.286438 439.501984,624.514099 433.826660,624.514099 C434.616119,622.906616 435.048065,621.765747 435.690491,620.759155 C442.678040,609.810425 449.607697,598.822571 456.776367,587.993164 C458.492035,585.401428 458.540070,583.531921 456.930267,580.880615 C450.449554,570.207153 444.211151,559.386536 437.896576,548.612488 C437.257172,547.521484 436.707397,546.377991 435.751923,544.569885 C442.489594,544.569885 448.604279,544.412903 454.697388,544.705933 C455.876801,544.762634 457.397888,546.360107 458.036743,547.615540 C462.331635,556.056396 466.430847,564.596741 470.878418,573.687195 C474.378876,567.129822 478.213776,561.138245 480.871338,554.663391 C484.132874,546.717041 488.926971,542.671448 497.816742,544.490967 C500.145874,544.967712 502.655487,544.562866 505.883331,544.562866 C504.476227,546.989746 503.575775,548.542786 502.471100,550.412109 z"/><path fill="#0B4BB0" d="M655.395386 511.368591C651.975891 513.081787 648.872131 514.600281 645.651062 516.176086 641.44519 511.236755 637.476746 506.576324 633.026184 501.34964 664.259827 485.611053 691.899841 465.895203 712.257385 436.809204 715.056213 438.526459 717.570435 440.068726 720.084229 441.611633 722.626465 443.171967 725.168335 444.732971 728.769165 446.943817 720.192566 457.388062 711.830322 467.571259 703.283447 477.97934 711.390503 485.161896 719.691345 492.516113 728.318604 500.159515 723.257446 505.626221 718.559326 510.700775 714.038086 515.584229 706.426025 508.211945 698.932861 501.184387 691.734924 493.866364 688.995361 491.081055 687.204834 491.020264 683.888489 493.29187 674.716553 499.574493 665.132385 505.255188 655.395386 511.368591zM609.844604 589.005432C611.534607 594.551697 613.13623 599.707581 615.15271 606.199219 621.117859 586.672668 626.83429 568.650452 632.030762 550.479492 633.38147 545.756287 635.374573 543.931335 640.223389 544.478638 643.950439 544.899292 647.763 544.562378 652.141663 544.562378 646.863037 559.817688 641.823792 574.37384 636.789856 588.931824 633.146118 599.469543 629.41449 609.978455 625.929749 620.568542 624.932556 623.59906 623.41156 624.797913 620.194824 624.574951 615.242554 624.231628 609.145081 625.987427 605.622009 623.673157 602.371033 621.537598 601.74176 615.260254 600.179565 610.730713 592.973511 589.836975 585.843445 568.916992 578.693726 548.003906 578.388855 547.112244 578.160034 546.194702 577.692139 544.591064 583.624207 544.591064 589.062195 544.415466 594.46875 544.748901 595.47168 544.81073 596.792664 546.783203 597.213989 548.112427 601.484375 561.584839 605.598328 575.106934 609.844604 589.005432z"/><path fill="#094AAF" d="M993.256775,575.625854 C997.027527,576.414307 1000.734131,576.896118 1004.452759,577.021057 C1009.269958,577.183044 1014.096680,577.060547 1019.270996,577.060547 C1019.270996,581.708679 1019.270996,586.103394 1019.270996,590.913086 C1010.679749,590.913086 1002.248535,590.913086 993.499878,590.913086 C993.499878,597.552856 993.499878,603.786438 993.499878,610.468384 C1003.208618,610.468384 1012.800354,610.468384 1022.790161,610.468384 C1022.790161,615.270508 1022.790161,619.642456 1022.790161,624.237915 C1007.286560,624.237915 991.861206,624.237915 976.179077,624.237915 C976.179077,597.710327 976.179077,571.451416 976.179077,544.881348 C991.212585,544.881348 1006.117126,544.881348 1021.308350,544.881348 C1021.308350,549.322693 1021.308350,553.555786 1021.308350,558.324707 C1012.043640,558.324707 1002.952209,558.324707 993.197998,558.324707 C993.197998,564.276672 993.197998,569.718628 993.256775,575.625854 z"/><path fill="#0C4CB0" d="M572.377869,618.323120 C571.231262,620.110474 570.337830,622.250305 568.902222,622.714661 C557.532043,626.392883 545.923218,626.953186 534.480286,623.324951 C519.862610,618.690125 510.835205,605.353699 510.142578,588.937500 C508.802399,557.174500 533.632385,536.263245 569.409302,545.614319 C570.594299,545.924011 572.156250,547.653809 572.238892,548.814514 C572.565918,553.405457 572.373169,558.033508 572.373169,562.802856 C552.118286,556.111877 540.483521,557.956360 533.026733,568.786133 C526.503540,578.259949 526.884338,593.429138 533.863647,602.128784 C541.480103,611.622559 554.210205,612.988586 572.379822,605.886230 C572.379822,610.073181 572.379822,613.986206 572.377869,618.323120 z"/><path fill="#0B4BAF" d="M862.530823,572.416992 C863.485962,574.757080 864.265686,576.757507 865.347534,579.533203 C869.543823,570.118103 873.853027,561.472534 877.246338,552.481323 C879.558472,546.354797 882.693604,543.193604 889.558167,544.476074 C892.415955,545.009949 895.456665,544.564697 899.342651,544.564697 C896.734619,549.814087 894.515991,554.352905 892.233521,558.859314 C886.824097,569.539551 881.189514,580.112244 876.070251,590.929260 C874.437134,594.380005 873.578613,598.429260 873.350952,602.263123 C872.928101,609.382812 873.229736,616.545654 873.229736,624.100220 C867.436401,624.100220 861.925476,624.100220 856.032043,624.100220 C856.032043,616.240112 856.195007,608.596436 855.944824,600.966309 C855.855774,598.252319 855.219177,595.354248 854.055298,592.910400 C846.486755,577.018921 838.704163,561.229431 830.588806,544.579956 C837.035706,544.579956 842.798218,544.407166 848.533264,544.726562 C849.672302,544.790039 851.125916,546.548523 851.720032,547.851196 C855.379028,555.874634 858.833130,563.991577 862.530823,572.416992 z"/><path fill="#0849AF" d="M942.267578,595.000122 C942.267639,604.966858 942.267639,614.433594 942.267639,624.198975 C936.473511,624.198975 931.072754,624.198975 925.084106,624.198975 C925.084106,602.265137 925.084106,580.567566 925.084106,558.419434 C917.415588,558.419434 910.313843,558.419434 902.834229,558.419434 C902.834229,553.749084 902.834229,549.529480 902.834229,544.936279 C923.326599,544.936279 943.870972,544.936279 964.738037,544.936279 C964.738037,549.217468 964.738037,553.433228 964.738037,558.209961 C957.416992,558.209961 950.185486,558.209961 942.267578,558.209961 C942.267578,570.667786 942.267578,582.583923 942.267578,595.000122 z"/><path fill="#EEF3F9" d="M640.380737,444.590820 C636.384705,441.471039 633.024353,437.669952 628.911011,435.051819 C622.915771,431.235901 621.505920,426.275574 623.315796,419.251587 C627.488098,419.251587 631.864746,419.251587 636.967712,419.251587 C636.967712,413.063751 636.967712,407.474243 637.048828,401.418793 C637.129944,400.952881 637.385010,400.927399 637.511658,400.946899 C638.368774,408.543243 638.368774,408.543243 646.158875,408.543365 C649.590759,408.543396 653.022705,408.543396 656.454590,408.543396 C656.815491,408.962036 657.176392,409.380646 657.537292,409.799286 C652.325928,416.895660 647.514709,424.343109 641.730469,430.936890 C638.932068,434.126953 637.580627,436.382507 639.755920,440.200928 C640.438965,441.399689 640.392456,443.014099 640.380737,444.590820 z"/><path fill="#E9EEF8" d="M699.859497 410.168518C698.25354 411.150726 696.155579 411.421692 695.273499 412.601624 692.203552 416.708252 689.525208 421.110718 686.756897 425.438446 685.043152 428.117584 683.019592 429.703339 679.487549 429.514191 675.553284 429.303497 671.57843 429.851013 666.41272 430.134918 671.659546 422.65976 676.286987 415.921661 681.136047 409.347046 681.726318 408.546844 683.504211 408.366119 684.739807 408.343719 689.546265 408.256622 694.356018 408.349152 699.615356 408.52594 700.019043 409.076019 699.971985 409.475067 699.859497 410.168518zM727.812256 407.954224C727.459778 403.028046 727.453308 397.932556 727.408997 392.363342 727.633545 397.188049 727.895935 402.486481 727.812256 407.954224z"/><path fill="#104EB1" d="M773.080994,456.199585 C771.873596,453.278717 773.630310,453.409149 775.092957,454.811035 C777.900574,457.502014 780.330566,460.586975 782.914978,463.869446 C779.770386,461.506042 776.628052,458.781708 773.080994,456.199585 z"/><path fill="#0B4BAF" d="M661.441406,447.396088 C663.174561,445.216309 664.811035,445.305420 665.534668,448.742004 C664.213928,448.492523 663.049194,447.979156 661.441406,447.396088 z"/><path fill="#104EB1" d="M752.572632,470.457550 C752.726685,469.607666 753.203308,468.517822 753.679932,467.427979 C754.102661,468.167603 754.525452,468.907257 754.903992,470.043396 C754.204895,470.365784 753.549988,470.291687 752.572632,470.457550 z"/><path fill="#0B4BAF" d="M649.302856,448.358398 C649.884155,448.024567 650.771118,447.764771 651.822937,447.736847 C651.194641,448.123260 650.401550,448.277832 649.302856,448.358398 z"/><path fill="#104EB1" d="M748.265503 478.86554C748.353333 478.061951 748.69928 477.10321 749.363159 476.068359 749.295288 476.898285 748.909424 477.804321 748.265503 478.86554zM795.269287 458.834717C795.002563 458.076508 795.035645 457.243927 795.110291 455.996399 795.290955 456.641083 795.430115 457.700684 795.269287 458.834717zM739.020142 491.304901C739.474121 490.99411 739.891846 490.98996 740.622925 490.982239 740.498291 491.537537 740.060425 492.096436 739.622559 492.655334 739.409668 492.307373 739.196777 491.959442 739.020142 491.304901z"/><path fill="#F6F8FC" d="M496.547058,411.014069 C496.301880,410.597321 496.326691,410.117798 496.314972,409.279968 C496.457977,409.598175 496.637482,410.274750 496.547058,411.014069 z"/><path fill="#0B4BAF" d="M642.365479,447.287659 C642.905334,447.404907 643.417419,447.813019 643.964783,448.487000 C643.445984,448.361389 642.891846,447.969940 642.365479,447.287659 z"/><path fill="#F6F8FC" d="M491.065674 403.417725C490.829773 403.103485 490.575836 402.485413 490.657227 401.882355 491.010956 402.302887 491.029297 402.708405 491.065674 403.417725zM492.010864 416.682068C491.831512 417.012817 491.661102 417.068817 491.250854 417.063202 491.011017 417.001556 491.052979 417.03537 491.052979 417.03537 491.207123 416.531342 491.361298 416.027283 491.803192 415.416626 492.06723 415.675751 492.043518 416.041534 492.010864 416.682068z"/><path fill="#FBFCFD" d="M141.815948,478.159241 C140.925613,476.626831 140.119156,475.058899 140.111374,473.487000 C140.022141,455.488037 140.070007,437.488434 140.046234,419.489075 C140.037415,412.807770 137.184921,411.095398 131.248520,414.123688 C115.365120,422.226166 115.365417,422.226166 115.365982,439.878723 C115.366440,454.023071 115.366066,468.167389 115.366066,482.848541 C105.652748,484.597229 96.206779,486.303528 86.758270,487.995636 C83.644325,488.553284 80.526283,489.089142 77.405762,489.608856 C72.125000,490.488342 70.050049,488.704620 70.858246,483.407349 C73.049110,469.047516 78.356804,455.811890 86.234482,443.664459 C127.446831,380.114777 217.176392,376.687164 263.147614,436.922363 C265.013092,439.366669 266.596436,440.251312 269.755646,439.539642 C280.466034,437.127045 291.348846,435.440033 301.986908,432.764679 C306.498444,431.630035 308.166901,433.078064 309.877838,436.753021 C330.808807,481.711090 331.061066,526.841797 307.573151,570.433533 C280.953461,619.837524 238.517136,646.684082 182.143845,649.090820 C135.113770,651.098633 96.245903,632.781799 64.986374,597.886230 C64.231590,597.043640 63.637836,596.056824 62.495033,594.485718 C67.610374,593.423035 72.199570,592.299988 76.853935,591.628784 C77.942268,591.471863 79.497864,592.606323 80.423218,593.552734 C105.828697,619.535889 136.605453,633.338989 172.958389,634.918335 C236.928604,637.697449 296.406921,590.802734 307.667419,527.708130 C309.924255,515.062622 309.225159,501.885925 309.809937,488.950562 C309.875275,487.505463 309.421204,486.036865 309.102295,483.856537 C285.730865,487.952576 262.682251,491.992004 238.836334,496.171204 C238.836334,494.158325 238.836349,492.429901 238.836334,490.701477 C238.836197,470.202179 238.774902,449.702484 238.897232,429.203918 C238.917175,425.862030 238.044846,423.430817 235.125351,421.697266 C230.832947,419.148590 226.736069,416.249146 222.342422,413.898041 C217.123917,411.105591 214.067352,413.104309 214.059525,419.093292 C214.026657,444.259064 214.045593,469.424896 214.045563,494.590729 C214.045563,496.408661 214.045563,498.226562 214.045563,500.519714 C203.659027,502.667175 193.448685,504.802582 183.227371,506.884094 C174.425995,508.676483 165.638046,510.555267 156.793427,512.106628 C151.935257,512.958801 149.449554,514.920349 149.875092,520.354614 C150.340759,526.301270 149.981049,532.312561 149.981049,538.995728 C171.359619,534.669678 192.297256,530.432861 214.045792,526.031982 C214.045792,528.032898 214.045776,529.744263 214.045792,531.455627 C214.045929,548.955017 214.028168,566.454468 214.055405,583.953857 C214.065659,590.540894 216.951889,592.220398 222.927979,589.208862 C238.836578,581.192200 238.836349,581.192261 238.835785,563.530090 C238.835342,549.714783 238.835678,535.899475 238.835678,521.653015 C249.539459,519.745728 259.989258,517.879211 270.441193,516.024719 C272.735168,515.617737 275.024139,515.128174 277.337402,514.895264 C282.274567,514.397949 283.966248,516.223389 283.047333,521.471436 C280.482422,536.119934 274.878387,549.588623 266.535553,561.865173 C224.837418,623.224670 137.106155,625.958313 91.738953,567.255066 C89.539337,564.408752 87.543793,563.726746 84.192383,564.464600 C73.299103,566.862671 62.310406,568.832336 51.435413,571.305359 C48.201317,572.040894 46.741798,571.280762 45.240120,568.409729 C16.631281,513.713989 27.463757,442.657745 71.047234,398.946228 C103.106812,366.792511 141.788696,351.338989 187.054092,354.260376 C228.854507,356.958191 263.211060,375.348663 290.471680,407.073242 C290.896545,407.567657 291.196716,408.173553 291.519348,408.747528 C291.577881,408.851624 291.462494,409.053497 291.329376,409.648315 C287.166016,410.489075 282.842987,411.666901 278.447479,412.087585 C276.867981,412.238708 274.726715,410.941223 273.497375,409.670563 C253.539078,389.041138 229.499069,376.179352 201.333649,370.584930 C128.242279,356.067017 54.839153,408.657043 45.107574,482.713013 C43.476494,495.125305 43.264668,507.519958 45.220787,520.635132 C68.657303,516.524109 91.669022,512.487549 115.366112,508.330780 C115.366112,510.687439 115.366127,512.471497 115.366127,514.255554 C115.366112,534.088257 115.458229,553.921692 115.285080,573.752869 C115.252090,577.531189 116.374023,580.133972 119.567848,582.027832 C123.574112,584.403442 127.407433,587.089722 131.506500,589.285095 C137.166000,592.316162 140.037170,590.518738 140.043777,584.141663 C140.070251,558.642517 140.054962,533.143372 140.055130,507.644226 C140.055145,506.650574 140.055130,505.656891 140.055130,503.997070 C148.005615,502.346405 155.902084,500.682434 163.809265,499.071045 C175.391891,496.710693 186.970184,494.325867 198.575958,492.084167 C202.429047,491.339966 204.388611,489.615295 204.209290,485.373047 C203.942856,479.069916 204.140259,472.747162 204.140259,465.638000 C183.214874,469.860260 162.742828,473.991058 141.815948,478.159241 z"/><path fill="#F6F8FC" d="M490.994995,416.979919 C490.829407,429.605743 490.650360,442.252960 490.541687,454.900757 C490.479065,462.186035 490.530304,469.472260 489.370697,477.200012 C484.567932,471.141571 477.061218,465.656158 475.625946,458.884033 C473.699493,449.794373 475.121277,439.323853 477.742096,430.203735 C479.218079,425.067413 485.993134,421.453827 490.717041,417.094849 C491.052979,417.035370 491.011017,417.001556 490.994995,416.979919 z"/><path fill="#F2F5FB" d="M545.138367 433.338257C542.749451 435.373962 540.360596 437.409637 537.485718 439.859467 540.985779 443.567169 544.440491 447.226807 548.476135 451.501831 539.596436 451.501831 531.503052 451.501831 522.559692 451.501831 526.065002 447.583496 529.197449 444.08194 532.77124 440.087006 529.494385 437.80835 526.434875 435.680786 523.194214 433.008545 523.012878 432.288818 523.012634 432.11377 523.01239 431.938721 530.030823 431.852661 537.049316 431.766602 544.554565 432.15332 545.073669 432.863525 545.106018 433.100891 545.138367 433.338257zM528.265015 477.727478C528.25531 473.635834 528.25531 470.014587 528.25531 466.065735 531.93042 466.065735 535.15741 466.065735 538.769348 466.065735 538.769348 470.615479 538.769348 475.143646 538.769348 480.25473 535.169312 479.397064 531.141968 482.85907 528.265015 477.727478zM519.960327 433.884827C516.463196 437.80603 512.966003 441.727234 508.889832 445.807739 507.939819 445.974365 507.568878 445.98172 507.197906 445.989075 507.197906 441.418243 507.197906 436.847443 507.197906 431.676239 511.303894 431.676239 515.184998 431.676239 519.523132 432.116852 519.973572 432.999908 519.96698 433.442383 519.960327 433.884827z"/><path fill="#E9EEF8" d="M545.458496 433.216705C545.106018 433.100891 545.073669 432.863525 545.010315 432.268127 550.063049 431.910126 555.146851 431.910126 560.522827 431.910126 560.522827 435.690216 560.522827 439.329132 560.522827 444.020813 556.440857 440.238922 553.174866 437.02655 549.674011 434.094696 548.746826 433.318176 547.096741 433.404846 545.458496 433.216705zM520.264526 433.74292C519.96698 433.442383 519.973572 432.999908 519.977783 432.225525 520.841553 431.804779 521.707825 431.715912 522.793213 431.782898 523.012634 432.11377 523.012878 432.288818 523.008545 432.726318 522.192261 433.192902 521.380493 433.396973 520.264526 433.74292zM507.175171 446.308136C507.568878 445.98172 507.939819 445.974365 508.588989 445.961121 508.295624 446.17923 507.72403 446.403198 507.175171 446.308136z"/><path fill="#F6F8FC" d="M953.092285,451.843140 C951.914001,450.040466 950.938599,448.541687 949.600220,446.485229 C963.009766,446.485229 975.794800,446.485229 989.349670,446.485229 C984.884277,455.994354 978.557495,463.592072 969.964844,471.151123 C964.300903,464.693970 958.798035,458.420471 953.092285,451.843140 z"/><path fill="#F7F9FC" d="M802.159363,590.463379 C809.176819,592.591370 811.813904,595.799622 811.433716,601.347961 C811.062805,606.762207 807.572632,610.296204 801.334167,611.245056 C798.717102,611.643066 796.033936,611.653748 793.377625,611.728027 C791.756165,611.773438 790.128723,611.604858 788.260254,611.521484 C788.260254,604.295471 788.260254,597.401367 788.260254,590.360718 C792.877197,590.360718 797.312256,590.360718 802.159363,590.463379 z"/><path fill="#F6F8FC" d="M798.368530,576.876648 C794.812927,576.918457 791.689636,576.918457 788.275879,576.918457 C788.275879,570.439636 788.275879,564.210266 788.275879,557.187012 C792.321594,557.451904 796.249268,557.505615 800.116394,558.016663 C804.412354,558.584473 807.646790,560.658936 808.117859,565.477600 C808.621887,570.634033 806.470825,574.153442 801.676453,576.012634 C800.750854,576.371582 799.761047,576.565063 798.368530,576.876648 z"/></svg>