<?xml version="1.0" encoding="UTF-8"?>
<svg id="_图层_2" data-name="图层 2" xmlns="http://www.w3.org/2000/svg" viewBox="0 0 97.84 32.35">
  <defs>
    <style>
      .cls-1 {
        fill: #0085d0;
      }

      .cls-2 {
        fill: #8fc31f;
      }
    </style>
  </defs>
  <g id="_图层_1-2" data-name="图层 1">
    <g>
      <g>
        <g id="SPLINE">
          <path class="cls-2" d="M15.58,8.36c.7,0,1.28-.41,1.51-1.08,.23-.88,.46-1.76,.68-2.64h-3.65c-.76,0-1.35,.46-1.54,1.2-.22,.84-.43,1.68-.65,2.52h3.65Z"/>
        </g>
        <g>
          <path class="cls-1" d="M8.97,7.17c.22-.84,.43-1.68,.65-2.52H3.17c-.76,0-1.35,.46-1.54,1.2-.22,.84-.43,1.68-.65,2.52H7.42c.76,0,1.35-.46,1.54-1.2Z"/>
          <path class="cls-1" d="M13.2,3.45c.3-1.15,.59-2.3,.89-3.45h-2.04c-.76,0-1.35,.46-1.54,1.2l-.89,3.45h2.04c.76,0,1.35-.46,1.54-1.2Z"/>
          <path class="cls-1" d="M7.97,11.01h-3.82C2.63,16.89,1.28,22.1,.11,26.64c-.25,.95-.09,1.83,.48,2.63,.56,.8,1.34,1.25,2.31,1.34,.6-2.31,1.2-4.62,1.79-6.94,.92-3.55,2.01-7.77,3.27-12.66Z"/>
          <path class="cls-1" d="M16.13,11.01c-.82,0-1.21,0-1.18,0-2.47,0-4.01,1.2-4.63,3.59-1.13,4.37-1.91,7.4-2.35,9.08h-2c-.6,2.32-1.2,4.63-1.8,6.95h1.54c2.47,0,4.01-1.2,4.63-3.59,.84-3.27,1.69-6.53,2.54-9.8h1.64c.54-2.07,1.07-4.15,1.61-6.22Z"/>
          <path class="cls-1" d="M19.4,11.03c-.54,2.07-1.07,4.14-1.61,6.21-1.3,5.04-2.61,10.08-3.91,15.11,1.27,0,2.55,0,3.82,0,1.5-5.78,2.99-11.57,4.49-17.35,.25-.95,.09-1.83-.48-2.63-.56-.8-1.34-1.25-2.31-1.34Z"/>
          <path class="cls-1" d="M22.28,4.64c-.7,0-1.28,.41-1.51,1.08-.23,.88-.46,1.76-.69,2.64h6.43c.76,0,1.35-.46,1.54-1.2,.22-.84,.43-1.68,.65-2.52h-6.43Z"/>
          <path class="cls-1" d="M21.33,3.57c.02-.08,.05-.17,.07-.26,.29-1.1,.57-2.21,.86-3.31h-2.04c-.76,0-1.35,.46-1.54,1.2l-.89,3.45h2.04c.7,0,1.28-.41,1.51-1.08Z"/>
        </g>
      </g>
      <g>
        <path class="cls-1" d="M50.68,17.39c1.41,0,2.39-.06,2.96-.18,.52-.13,.88-.37,1.08-.74,.53-.9,.89-1.93,1.09-3.07h3.74v3.87h2.66v-3.87h2.53v-.55h-2.53v-3.25h-2.66v3.25h-3.74v-1.91h.6c1.17-.04,1.89-.49,2.17-1.35h-2.78c-.08,.57-.53,.84-1.33,.79h-3.02v.55h1.75v1.72c0,.08-.02,.14-.06,.18h-2.9v.55h2.83c-.6,2.21-1.41,3.54-2.41,3.99Z"/>
        <polygon class="cls-1" points="79.87 17.51 79.87 14.69 81.14 14.56 81.14 14.08 79.87 14.13 79.87 2.89 77.58 2.89 77.58 14.26 73.65 14.5 73.65 15.06 77.58 14.81 77.58 17.51 79.87 17.51"/>
        <path class="cls-1" d="M97.84,17.33c-.81-.73-1.65-1.56-2.54-2.46-.28-.25-.54-.53-.78-.86,.52-.66,1.25-1.6,2.17-2.83,.12-.2,.22-.35,.31-.43,.16-.33,.24-.68,.24-1.04,0-.86-.46-1.29-1.39-1.29h-1.69v-2.33h3.38v-.62h-3.38V2.89h-2.41v2.58h-3.14v.62h3.14v2.33h-3.02v.68h5.68c.52,0,.76,.15,.72,.43-.04,.29-.68,1.19-1.93,2.7l-1.51-2.09h-2.53c.84,1.35,1.73,2.58,2.65,3.69-.64,.7-1.2,1.29-1.69,1.78-.97,.94-1.83,1.58-2.6,1.91,1.61,0,2.65-.06,3.14-.18,.61-.12,1.06-.38,1.51-.8l1.03-.92c.08,.1,.12,.14,.16,.19,.21,.28,.38,.45,.5,.6,.64,.76,1.85,1.13,3.99,.92Z"/>
        <path class="cls-1" d="M84.86,11.68v3.87c.04,.41-.18,.59-.66,.55-.36,0-.73-.06-1.09-.18,.53,1.02,1.37,1.56,2.54,1.6,1.13,.08,1.67-.61,1.63-2.09v-4.17c.76-.29,1.35-.78,1.75-1.48-.64,.37-1.23,.66-1.75,.86v-3.69h1.63v-.61h-1.63V2.89h-2.41v3.44h-1.75v.61h1.75v4.06c-.56,.08-1.17,.1-1.81,.06v.68h.78c.24-.04,.58-.06,1.03-.06Z"/>
        <polygon class="cls-1" points="36.64 7.25 39.35 7.25 39.35 5.47 43.16 5.47 43.16 7.25 45.93 7.25 45.93 5.47 48.29 5.47 48.29 4.8 45.93 4.8 45.93 2.89 43.16 2.89 43.16 4.8 39.35 4.8 39.35 2.89 36.64 2.89 36.64 4.8 33.86 4.8 33.86 5.47 36.64 5.47 36.64 7.25"/>
        <path class="cls-1" d="M37.66,8.11v7.56c-.12,1.19,.72,1.76,2.53,1.72h2.72c1.65,.2,2.41-.65,2.29-2.58-.4,1.35-1.17,1.96-2.29,1.84h-1.39c-1.05,.12-1.51-.31-1.39-1.29v-7.25h-2.48Z"/>
        <rect class="cls-1" x="39.79" y="20.86" width="1.24" height="1.24"/>
        <path class="cls-1" d="M91.19,27.54s0,0,0,0c-.71,0-1.22-.66-1.22-1.68s.51-1.7,1.25-1.7c.06,0,.11,0,.16,.02,.21,.04,.39,.15,.59,.34l.3-1.17c-.31-.21-.67-.35-1.12-.35-.03,0-.05,0-.08,0-1.3,.04-2.43,1.08-2.43,2.86s.96,2.75,2.25,2.83c.05,0,.1,.01,.15,.01,.46,0,.96-.16,1.39-.48l-.29-1.12c-.27,.25-.6,.43-.95,.44Z"/>
        <path class="cls-1" d="M61.15,22.99c-1.18,0-2.29,1.1-2.29,2.87s1.07,2.85,2.44,2.85c.54,0,1.09-.19,1.54-.49l-.25-.98h0c-.35,.24-.7,.37-1.11,.37-.73,0-1.25-.47-1.36-1.36h3.03c.03-.13,.06-.39,.06-.65,0-1.51-.7-2.6-2.05-2.6Zm-1.05,2.31c.1-.8,.55-1.2,1.07-1.2,.63,0,.93,.47,.93,1.2h-2Z"/>
        <path class="cls-1" d="M85.84,22.99c-1.18,0-2.29,1.1-2.29,2.87s1.07,2.85,2.44,2.85c.54,0,1.09-.19,1.54-.49l-.25-.98h0c-.35,.24-.7,.37-1.11,.37-.73,0-1.25-.47-1.36-1.36h3.03c.03-.13,.06-.39,.06-.65,0-1.51-.7-2.6-2.05-2.6Zm-1.05,2.31c.1-.8,.55-1.2,1.07-1.2,.63,0,.93,.47,.93,1.2h-2Z"/>
        <path class="cls-1" d="M50.96,24.57l-.87-.41c-.67-.3-.81-.56-.81-.89,0-.49,.39-.81,.99-.81,.47,0,.9,.2,1.27,.57l.34-1.29c-.48-.32-1.03-.5-1.6-.5-1.27,0-2.2,.85-2.2,2.02,0,1.3,1.11,1.8,1.51,1.99l.86,.4c.67,.31,.79,.53,.79,.91,0,.56-.41,.9-1.1,.9-.54,0-1.12-.27-1.57-.73l-.34,1.3c.58,.41,1.24,.64,1.9,.64,1.36,0,2.32-.87,2.32-2.11,0-1.17-.75-1.67-1.49-2.01Z"/>
        <rect class="cls-1" x="39.83" y="23.13" width="1.21" height="5.44"/>
        <polygon class="cls-1" points="38.78 20.86 37.32 20.86 36.09 23.2 34.85 20.86 33.39 20.86 35.36 24.58 33.25 28.57 34.71 28.57 36.09 25.96 37.46 28.57 38.92 28.57 36.82 24.58 38.78 20.86"/>
        <polygon class="cls-1" points="83.63 20.86 78.67 20.86 78.67 22.07 80.55 22.07 80.55 28.57 81.76 28.57 81.76 22.07 83.63 22.07 83.63 20.86"/>
        <path class="cls-1" d="M46,23.32c-.46-.29-1.02-.33-1.51-.1l-.79,.37v-.47s-1.21,0-1.21,0v5.44s1.22,0,1.22,0v-3.63s1.3-.61,1.3-.61c.16-.08,.3,0,.35,.02,.05,.03,.17,.13,.17,.31v3.92s1.21,0,1.21,0v-3.92c0-.54-.28-1.04-.73-1.33Z"/>
        <path class="cls-1" d="M67.77,23.32c-.46-.29-1.02-.33-1.51-.1l-.79,.37v-.47s-1.21,0-1.21,0v5.57s1.22,0,1.22,0v-3.77s1.3-.61,1.3-.61c.16-.08,.3,0,.35,.02,.05,.03,.17,.13,.17,.31v4.05s1.21,0,1.21,0v-4.05c0-.54-.28-1.04-.73-1.33Z"/>
        <path class="cls-1" d="M57.1,23.47c-.46-.29-1.02-.33-1.51-.1l-.79,.37v-.47s0-2.31,0-2.31h-1.21v7.75h1.21s0,0,0,0v-3.63s1.3-.61,1.3-.61c.16-.08,.3,0,.35,.02,.05,.03,.17,.13,.17,.31v3.92s1.21,0,1.21,0v-3.92c0-.54-.28-1.04-.73-1.33Z"/>
        <path class="cls-1" d="M97.11,23.47c-.46-.29-1.02-.33-1.51-.1l-.79,.37v-.47s0-2.31,0-2.31h-1.21v7.75h1.21s0,0,0,0v-3.63s1.3-.61,1.3-.61c.16-.08,.3,0,.35,.02,.05,.03,.17,.13,.17,.31v3.92s1.21,0,1.21,0v-3.92c0-.54-.28-1.04-.73-1.33Z"/>
        <path class="cls-1" d="M72.87,23.36c-.31-.2-.67-.29-1.01-.29-.83,0-1.99,.64-1.99,2.06v1.4c0,1.42,1.17,2.06,1.99,2.06,.34,0,.69-.09,1.01-.29,0,.53-.11,.94-.28,1.11-.12,.12-.34,.18-.66,.18-.83,0-.84-.22-.84-.64l-1.21,.02c.02,1.23,.7,1.83,2.06,1.83,.66,0,1.17-.18,1.53-.54,.44-.44,.64-1.14,.63-2.11v-5.11h-1.21v.33Zm-.36,3.09c0,.62-.21,.92-.65,.92,0,0-.78-.02-.78-.85v-1.4c0-.82,.77-.85,.78-.85,.43,0,.65,.3,.65,.92v1.25Z"/>
        <path class="cls-1" d="M34.77,9.9c-.06,.77-.11,1.46-.16,2.09-.01,.17-.03,.33-.04,.49l-.39,4.4c.85-.04,1.42-.18,1.68-.41,.4-.24,.66-.84,.78-1.78,.08-1.27,.16-2.32,.24-3.13,.04-.86,.1-1.78,.19-2.77h-2.17c-.04,.37-.08,.74-.12,1.11Z"/>
        <path class="cls-1" d="M47.32,8.3h-2.29c.04,.82,.12,1.91,.24,3.26,.12,1.23,.24,2.29,.36,3.2,.03,1.28,.82,1.94,2.35,1.98l-.28-3.6c-.14-2.04-.27-3.55-.37-4.84Z"/>
        <path class="cls-1" d="M43.93,15.18l-.3-4.13-.23-3.15c0-.11,0-.23-.01-.34h-2.24c0,.5,.04,1.21,.12,2.15,.04,.9,.12,2,.24,3.32-.14,1.37,.66,2.09,2.41,2.14Z"/>
        <path class="cls-1" d="M68.52,10v-1.33h-1.51v6.45c0,.62-.1,1.17-.3,1.66,1.33,.04,1.93-.59,1.81-1.9v-4.87Z"/>
        <path class="cls-1" d="M69.06,8.79v8.73h2.11V6.89h2.3v-.55h-2.3v-2.03h.31c1.12,0,1.93-.45,2.41-1.35h-2.9c-.08,.57-.56,.84-1.45,.79h-2.78v.55h2.29v2.03h-2.35v.55h2.35v1.9Z"/>
        <path class="cls-1" d="M71.72,8.69v6.49c-.08,.94,.54,1.45,1.87,1.54-.28-.49-.4-1.07-.36-1.72v-4.79c.03-.92-.47-1.43-1.51-1.52Z"/>
        <path class="cls-1" d="M74.47,11.61c-.04,1.02,.73,1.53,2.28,1.55l-.29-1.79h0s-.12-.71-.12-.71l-.3-1.87h-1.99c.08,.45,.18,1.15,.3,2.09,.04,.2,.08,.45,.12,.73Z"/>
        <path class="cls-1" d="M74.93,6.58c-.04,1.02,.73,1.53,2.28,1.55l-.29-1.79h0s-.12-.71-.12-.71l-.3-1.87h-1.99c.08,.45,.18,1.15,.3,2.09,.04,.2,.08,.45,.12,.73Z"/>
        <path class="cls-1" d="M54.06,8.85h7.73c1.25,.17,1.81-.41,1.69-1.72v-2.09c.04-1.15-.54-1.7-1.75-1.66h-10.27v5.59h2.6v-.12Zm0-4.43v-.43h5.98c.56,0,.85,.33,.85,.98v.86h-6.82v-1.42Zm0,3.38v-1.35h6.82v.86c0,.7-.28,1.03-.85,.98h-5.98v-.49Z"/>
      </g>
    </g>
  </g>
</svg>