<svg version="1.1" id="Layer_1" xmlns="http://www.w3.org/2000/svg" xmlns:xlink="http://www.w3.org/1999/xlink" x="0px" y="0px"
	 width="100%" viewBox="0 0 4811 2070" enable-background="new 0 0 4811 2070" xml:space="preserve">
<path fill="#FFFFFF" opacity="1.000000" stroke="none" 
	d="
M2976.000000,2072.000000 
	C1984.000244,2072.000000 993.000610,2072.000000 2.000665,2072.000000 
	C2.000443,1382.000488 2.000443,692.000977 2.000221,2.001128 
	C1605.999023,2.000752 3209.998047,2.000752 4813.998047,2.000376 
	C4813.998535,691.998779 4813.998535,1381.997559 4813.999023,2071.998047 
	C4201.666504,2072.000000 3589.333252,2072.000000 2976.000000,2072.000000 
M1009.379456,802.290955 
	C995.341553,778.515991 981.307251,754.739014 967.265076,730.966553 
	C933.425842,673.678833 899.503845,616.439697 865.874023,559.029297 
	C862.784485,553.755066 859.505066,551.654968 853.384216,551.665405 
	C753.427185,551.835022 653.469788,551.781677 553.512512,551.814758 
	C551.417786,551.815430 549.323120,552.245422 546.458496,552.559509 
	C547.766602,555.007263 548.396484,556.519897 549.307068,557.838745 
	C559.515442,572.624329 569.833679,587.334290 579.994385,602.152405 
	C608.034790,643.045593 636.009827,683.983704 664.018982,724.898376 
	C703.306274,782.287720 742.574158,839.690491 781.903076,897.051392 
	C804.295959,929.711426 826.874451,962.244629 849.163879,994.974854 
	C852.831055,1000.359619 855.436646,1006.467346 857.892334,1013.478455 
	C839.641479,1040.101440 821.457153,1066.770264 803.126526,1093.338135 
	C760.025330,1155.807251 716.849670,1218.224976 673.713562,1280.669922 
	C650.819702,1313.811646 627.959106,1346.976440 605.059326,1380.114258 
	C570.238831,1430.501831 535.389343,1480.869507 500.597717,1531.277100 
	C499.389557,1533.027466 498.668579,1535.114136 497.327423,1537.844238 
	C600.614197,1537.844238 702.809082,1537.844238 805.471558,1537.844238 
	C807.381042,1534.970337 809.438477,1531.966797 811.402588,1528.903442 
	C843.920837,1478.185059 876.434204,1427.463501 908.934265,1376.733521 
	C929.942627,1343.941162 950.879333,1311.102905 971.941162,1278.344971 
	C984.900574,1258.188965 998.035645,1238.145752 1012.035217,1219.474609 
	C1080.269775,1325.821777 1148.504272,1432.168945 1216.172852,1537.633911 
	C1319.660400,1537.633911 1421.721436,1537.633911 1525.227783,1537.633911 
	C1522.090088,1532.676270 1519.791138,1528.742798 1517.207275,1525.006348 
	C1477.464966,1467.532959 1437.662964,1410.100586 1397.921509,1352.626587 
	C1364.235474,1303.909790 1330.614258,1255.148193 1296.955688,1206.412598 
	C1251.764038,1140.977905 1206.563721,1075.549194 1162.024292,1008.847717 
	C1168.149170,999.728210 1174.197998,990.556519 1180.411133,981.497498 
	C1224.461670,917.270325 1268.562622,853.077820 1312.611938,788.849854 
	C1334.638306,756.733459 1356.562378,724.546875 1378.582031,692.425720 
	C1409.068237,647.953918 1439.611206,603.521179 1470.077759,559.035950 
	C1471.436646,557.051819 1472.278809,554.713928 1473.775757,551.709717 
	C1469.511597,551.709717 1466.526733,551.709717 1463.541870,551.709717 
	C1365.250244,551.709717 1266.958496,551.709656 1168.666870,551.709778 
	C1167.334106,551.709778 1165.989502,551.826843 1164.670776,551.691589 
	C1160.567627,551.270691 1157.988403,552.892700 1155.841797,556.562500 
	C1128.291260,603.661682 1100.627197,650.694580 1072.925293,697.705078 
	C1052.153076,732.955811 1031.284912,768.150024 1009.379456,802.290955 
M1954.135620,1254.854248 
	C1958.053467,1263.654419 1961.966431,1272.456909 1965.890015,1281.254517 
	C2005.423950,1369.901611 2044.948120,1458.552856 2084.510498,1547.187256 
	C2089.126953,1557.529907 2093.958008,1567.776733 2099.484375,1579.796509 
	C2205.522217,1343.304077 2310.716553,1108.692993 2415.910889,874.081848 
	C2416.773682,874.138428 2417.636475,874.195007 2418.499268,874.251587 
	C2428.173828,918.091492 2435.640625,962.387146 2444.152344,1006.465759 
	C2452.711670,1050.790283 2461.219238,1095.124878 2469.631104,1139.477539 
	C2477.982178,1183.508545 2486.135254,1227.576904 2494.468262,1271.611328 
	C2502.861328,1315.964233 2511.386719,1360.292236 2519.822021,1404.637207 
	C2528.246094,1448.921021 2536.630127,1493.212402 2545.056152,1537.629761 
	C2583.058105,1537.629761 2620.469238,1537.629761 2658.444336,1537.629761 
	C2656.540771,1527.405884 2654.833252,1517.954102 2653.016602,1508.523438 
	C2642.781738,1455.390747 2632.448242,1402.276733 2622.286621,1349.129883 
	C2609.880615,1284.244873 2597.676758,1219.320923 2585.263672,1154.437134 
	C2573.536377,1093.139404 2561.632080,1031.875732 2549.840576,970.590271 
	C2538.677246,912.569458 2527.552490,854.541260 2516.423584,796.513855 
	C2507.669434,750.869568 2498.897217,705.228699 2490.201904,659.573242 
	C2480.636963,609.354248 2471.190918,559.112549 2461.533203,508.911530 
	C2460.933838,505.796478 2458.939941,502.949768 2456.631836,497.851257 
	C2337.071045,773.568787 2218.569336,1046.843628 2099.495605,1321.438354 
	C2097.698486,1317.586182 2096.668213,1315.508057 2095.746826,1313.382812 
	C2073.533203,1262.146973 2051.275879,1210.929932 2029.138550,1159.661133 
	C1977.752197,1040.653198 1926.452026,921.608093 1875.064575,802.600708 
	C1840.937500,723.566467 1806.722656,644.570007 1772.539917,565.559814 
	C1763.829224,545.425720 1755.125366,525.288452 1746.315552,505.197693 
	C1745.403320,503.117523 1743.788208,501.345551 1742.499268,499.430573 
	C1741.749268,499.637054 1740.999390,499.843567 1740.249390,500.050079 
	C1674.013306,845.761169 1607.777222,1191.472168 1541.444580,1537.687500 
	C1579.779297,1537.687500 1617.244995,1537.687500 1654.891357,1537.687500 
	C1696.980835,1316.002686 1738.958008,1094.910400 1781.001099,873.470093 
	C1782.817505,874.325745 1783.729858,874.449097 1783.928589,874.892273 
	C1840.501953,1001.065063 1897.025757,1127.260010 1954.135620,1254.854248 
M3641.223145,1274.117310 
	C3643.336182,1269.599609 3645.439941,1265.077515 3647.564453,1260.565186 
	C3673.607910,1205.253906 3688.806152,1146.952637 3693.380127,1086.143677 
	C3695.572510,1057.003052 3695.216309,1027.679321 3692.495361,998.401917 
	C3688.536865,955.807068 3679.484619,914.457581 3664.932373,874.290527 
	C3633.757324,788.242493 3583.009277,715.736267 3513.388672,656.467407 
	C3476.698975,625.233154 3436.263428,599.860107 3392.368408,579.850525 
	C3331.099854,551.921143 3266.703125,537.432312 3199.666260,534.457825 
	C3175.102051,533.367859 3150.547852,534.843994 3126.027588,537.494080 
	C3089.869873,541.401978 3054.571289,548.906433 3020.114746,560.393311 
	C2948.333008,584.323181 2884.759766,622.241699 2829.637451,673.971741 
	C2782.075439,718.606750 2744.277588,770.515930 2716.318604,829.579712 
	C2688.101318,889.189941 2672.408936,952.012085 2668.602783,1017.660400 
	C2667.318604,1039.809204 2668.773438,1062.161133 2669.744873,1084.386597 
	C2671.362793,1121.406860 2678.769043,1157.454468 2689.444580,1192.874146 
	C2717.023193,1284.374146 2767.076172,1361.614746 2838.038574,1425.253296 
	C2878.946289,1461.938843 2924.949707,1490.980591 2975.411377,1512.902222 
	C3040.603027,1541.222656 3108.854736,1554.856689 3179.775391,1555.607056 
	C3189.715332,1555.712280 3199.662354,1554.557617 3209.612793,1554.383545 
	C3231.932373,1553.992432 3253.938721,1550.849365 3275.817383,1546.858032 
	C3327.207031,1537.482666 3375.993652,1520.497559 3422.227051,1496.141968 
	C3476.360596,1467.624512 3524.031494,1430.708740 3564.987305,1385.336914 
	C3594.990234,1352.098145 3620.139404,1315.367676 3641.223145,1274.117310 
M3857.228271,977.784180 
	C3877.768311,990.062561 3897.569092,1003.857483 3919.002930,1014.301941 
	C3962.919434,1035.701904 4007.685791,1055.361694 4052.153809,1075.625000 
	C4078.515625,1087.637695 4104.507324,1100.365356 4128.696289,1116.387817 
	C4151.046875,1131.192261 4171.071289,1148.490601 4185.799316,1171.361694 
	C4201.906738,1196.374634 4209.477539,1223.718994 4210.427246,1253.333984 
	C4211.463379,1285.628052 4205.139160,1316.148560 4190.273438,1344.803955 
	C4150.892090,1420.718262 4062.569580,1462.193726 3982.165527,1450.394653 
	C3936.932129,1443.756836 3899.207031,1423.500488 3868.380371,1389.893433 
	C3838.738281,1357.578613 3821.124512,1319.539185 3813.631836,1276.557373 
	C3813.248291,1274.355469 3812.373291,1272.239136 3811.547119,1269.481812 
	C3793.118896,1274.545288 3775.129639,1279.077393 3757.403564,1284.473999 
	C3739.551758,1289.908936 3721.069580,1293.481445 3703.826660,1300.574951 
	C3704.832764,1304.338379 3705.577393,1306.855713 3706.176514,1309.407227 
	C3712.971680,1338.333374 3722.751953,1366.173462 3736.455078,1392.580322 
	C3753.014404,1424.491211 3774.180664,1453.030029 3800.791260,1477.177124 
	C3857.968262,1529.060791 3926.265137,1553.267090 4002.644287,1555.400269 
	C4022.451904,1555.953491 4042.604980,1554.561768 4062.172607,1551.411621 
	C4135.299316,1539.639038 4197.345703,1506.850830 4246.614746,1450.905762 
	C4296.211426,1394.588623 4319.783691,1328.282837 4321.441406,1253.909546 
	C4321.808594,1237.410767 4319.964844,1220.748901 4317.827148,1204.332886 
	C4314.010254,1175.016724 4304.267090,1147.553101 4289.296875,1121.992310 
	C4269.039062,1087.402954 4240.643555,1060.684326 4208.118652,1037.953979 
	C4172.485840,1013.051453 4133.543457,994.272705 4094.102539,976.427734 
	C4054.129395,958.341858 4013.859863,940.882507 3974.237305,922.060120 
	C3947.750977,909.477905 3923.062744,893.855042 3902.074463,872.764832 
	C3873.021484,843.570923 3861.125977,809.195190 3867.597900,768.349121 
	C3876.159668,714.314514 3906.536865,676.979736 3955.053955,653.656128 
	C3990.485352,636.623169 4027.975342,634.249329 4066.166504,640.499512 
	C4100.667969,646.145752 4130.375000,661.741272 4155.001953,686.576538 
	C4170.303223,702.006958 4182.740723,719.695129 4193.927734,738.281128 
	C4195.233398,740.449524 4196.894043,742.403870 4198.595703,744.739441 
	C4228.232910,725.668091 4257.213379,707.019409 4286.364746,688.260681 
	C4284.780762,685.255920 4283.770508,683.185730 4282.625977,681.192627 
	C4266.615234,653.303528 4247.176270,628.210815 4223.219727,606.574890 
	C4171.941406,560.264343 4111.208008,537.693054 4042.859131,534.428711 
	C4019.591553,533.317444 3996.416504,535.289368 3973.456055,539.612610 
	C3910.395264,551.486511 3855.848389,578.937500 3813.056396,627.575256 
	C3791.021729,652.620239 3775.260986,681.278748 3765.579834,713.309143 
	C3754.608643,749.607239 3753.165283,786.546265 3757.835938,823.845886 
	C3762.084229,857.771484 3774.128418,888.798096 3794.110107,916.665161 
	C3811.172119,940.460754 3832.410645,959.934631 3857.228271,977.784180 
z"/>
<path fill="#4A4A49" opacity="1.000000" stroke="none" 
	d="
M1953.843262,1254.154297 
	C1897.025757,1127.260010 1840.501953,1001.065063 1783.928589,874.892273 
	C1783.729858,874.449097 1782.817505,874.325745 1781.001099,873.470093 
	C1738.958008,1094.910400 1696.980835,1316.002686 1654.891357,1537.687500 
	C1617.244995,1537.687500 1579.779297,1537.687500 1541.444580,1537.687500 
	C1607.777222,1191.472168 1674.013306,845.761169 1740.249390,500.050079 
	C1740.999390,499.843567 1741.749268,499.637054 1742.499268,499.430573 
	C1743.788208,501.345551 1745.403320,503.117523 1746.315552,505.197693 
	C1755.125366,525.288452 1763.829224,545.425720 1772.539917,565.559814 
	C1806.722656,644.570007 1840.937500,723.566467 1875.064575,802.600708 
	C1926.452026,921.608093 1977.752197,1040.653198 2029.138550,1159.661133 
	C2051.275879,1210.929932 2073.533203,1262.146973 2095.746826,1313.382812 
	C2096.668213,1315.508057 2097.698486,1317.586182 2099.495605,1321.438354 
	C2218.569336,1046.843628 2337.071045,773.568787 2456.631836,497.851257 
	C2458.939941,502.949768 2460.933838,505.796478 2461.533203,508.911530 
	C2471.190918,559.112549 2480.636963,609.354248 2490.201904,659.573242 
	C2498.897217,705.228699 2507.669434,750.869568 2516.423584,796.513855 
	C2527.552490,854.541260 2538.677246,912.569458 2549.840576,970.590271 
	C2561.632080,1031.875732 2573.536377,1093.139404 2585.263672,1154.437134 
	C2597.676758,1219.320923 2609.880615,1284.244873 2622.286621,1349.129883 
	C2632.448242,1402.276733 2642.781738,1455.390747 2653.016602,1508.523438 
	C2654.833252,1517.954102 2656.540771,1527.405884 2658.444336,1537.629761 
	C2620.469238,1537.629761 2583.058105,1537.629761 2545.056152,1537.629761 
	C2536.630127,1493.212402 2528.246094,1448.921021 2519.822021,1404.637207 
	C2511.386719,1360.292236 2502.861328,1315.964233 2494.468262,1271.611328 
	C2486.135254,1227.576904 2477.982178,1183.508545 2469.631104,1139.477539 
	C2461.219238,1095.124878 2452.711670,1050.790283 2444.152344,1006.465759 
	C2435.640625,962.387146 2428.173828,918.091492 2418.499268,874.251587 
	C2417.636475,874.195007 2416.773682,874.138428 2415.910889,874.081848 
	C2310.716553,1108.692993 2205.522217,1343.304077 2099.484375,1579.796509 
	C2093.958008,1567.776733 2089.126953,1557.529907 2084.510498,1547.187256 
	C2044.948120,1458.552856 2005.423950,1369.901611 1965.890015,1281.254517 
	C1961.966431,1272.456909 1958.053467,1263.654419 1953.843262,1254.154297 
z"/>
<path fill="#4A4A49" opacity="1.000000" stroke="none" 
	d="
M3640.846191,1274.762451 
	C3620.139404,1315.367676 3594.990234,1352.098145 3564.987305,1385.336914 
	C3524.031494,1430.708740 3476.360596,1467.624512 3422.227051,1496.141968 
	C3375.993652,1520.497559 3327.207031,1537.482666 3275.817383,1546.858032 
	C3253.938721,1550.849365 3231.932373,1553.992432 3209.612793,1554.383545 
	C3199.662354,1554.557617 3189.715332,1555.712280 3179.775391,1555.607056 
	C3108.854736,1554.856689 3040.603027,1541.222656 2975.411377,1512.902222 
	C2924.949707,1490.980591 2878.946289,1461.938843 2838.038574,1425.253296 
	C2767.076172,1361.614746 2717.023193,1284.374146 2689.444580,1192.874146 
	C2678.769043,1157.454468 2671.362793,1121.406860 2669.744873,1084.386597 
	C2668.773438,1062.161133 2667.318604,1039.809204 2668.602783,1017.660400 
	C2672.408936,952.012085 2688.101318,889.189941 2716.318604,829.579712 
	C2744.277588,770.515930 2782.075439,718.606750 2829.637451,673.971741 
	C2884.759766,622.241699 2948.333008,584.323181 3020.114746,560.393311 
	C3054.571289,548.906433 3089.869873,541.401978 3126.027588,537.494080 
	C3150.547852,534.843994 3175.102051,533.367859 3199.666260,534.457825 
	C3266.703125,537.432312 3331.099854,551.921143 3392.368408,579.850525 
	C3436.263428,599.860107 3476.698975,625.233154 3513.388672,656.467407 
	C3583.009277,715.736267 3633.757324,788.242493 3664.932373,874.290527 
	C3679.484619,914.457581 3688.536865,955.807068 3692.495361,998.401917 
	C3695.216309,1027.679321 3695.572510,1057.003052 3693.380127,1086.143677 
	C3688.806152,1146.952637 3673.607910,1205.253906 3647.564453,1260.565186 
	C3645.439941,1265.077515 3643.336182,1269.599609 3640.846191,1274.762451 
M2787.433105,960.404053 
	C2780.594727,995.689636 2776.631348,1031.078491 2779.375977,1067.209473 
	C2781.014893,1088.786255 2783.251465,1110.167969 2787.965820,1131.241211 
	C2806.810059,1215.476929 2847.822998,1286.989624 2911.154541,1345.751587 
	C2949.940430,1381.739014 2994.072754,1409.017578 3043.545166,1427.517090 
	C3104.094727,1450.158691 3166.677246,1457.443115 3230.752441,1449.445435 
	C3281.723877,1443.083374 3329.752686,1427.055176 3374.650635,1401.916992 
	C3414.181641,1379.783691 3448.998291,1351.696533 3479.219727,1318.041748 
	C3507.402588,1286.657104 3530.166504,1251.627197 3547.683350,1213.199341 
	C3568.437744,1167.669189 3580.127441,1119.830444 3583.557617,1070.039795 
	C3586.011719,1034.417358 3583.150146,999.047546 3576.098145,964.007996 
	C3560.825195,888.123840 3526.871582,821.716370 3474.319824,765.039062 
	C3438.416992,726.317810 3396.245117,696.011353 3348.197021,673.773315 
	C3304.877930,653.724121 3259.377441,642.242065 3212.011719,638.541199 
	C3182.500732,636.235413 3152.931396,637.268372 3123.503174,641.613220 
	C3073.254150,649.031982 3026.099121,665.239685 2982.105957,690.514221 
	C2931.451172,719.615906 2889.202881,758.192017 2855.230957,805.623779 
	C2822.092773,851.891296 2799.374023,902.909180 2787.433105,960.404053 
z"/>
<path fill="#4A4A49" opacity="1.000000" stroke="none" 
	d="
M3856.663330,977.341858 
	C3832.410645,959.934631 3811.172119,940.460754 3794.110107,916.665161 
	C3774.128418,888.798096 3762.084229,857.771484 3757.835938,823.845886 
	C3753.165283,786.546265 3754.608643,749.607239 3765.579834,713.309143 
	C3775.260986,681.278748 3791.021729,652.620239 3813.056396,627.575256 
	C3855.848389,578.937500 3910.395264,551.486511 3973.456055,539.612610 
	C3996.416504,535.289368 4019.591553,533.317444 4042.859131,534.428711 
	C4111.208008,537.693054 4171.941406,560.264343 4223.219727,606.574890 
	C4247.176270,628.210815 4266.615234,653.303528 4282.625977,681.192627 
	C4283.770508,683.185730 4284.780762,685.255920 4286.364746,688.260681 
	C4257.213379,707.019409 4228.232910,725.668091 4198.595703,744.739441 
	C4196.894043,742.403870 4195.233398,740.449524 4193.927734,738.281128 
	C4182.740723,719.695129 4170.303223,702.006958 4155.001953,686.576538 
	C4130.375000,661.741272 4100.667969,646.145752 4066.166504,640.499512 
	C4027.975342,634.249329 3990.485352,636.623169 3955.053955,653.656128 
	C3906.536865,676.979736 3876.159668,714.314514 3867.597900,768.349121 
	C3861.125977,809.195190 3873.021484,843.570923 3902.074463,872.764832 
	C3923.062744,893.855042 3947.750977,909.477905 3974.237305,922.060120 
	C4013.859863,940.882507 4054.129395,958.341858 4094.102539,976.427734 
	C4133.543457,994.272705 4172.485840,1013.051453 4208.118652,1037.953979 
	C4240.643555,1060.684326 4269.039062,1087.402954 4289.296875,1121.992310 
	C4304.267090,1147.553101 4314.010254,1175.016724 4317.827148,1204.332886 
	C4319.964844,1220.748901 4321.808594,1237.410767 4321.441406,1253.909546 
	C4319.783691,1328.282837 4296.211426,1394.588623 4246.614746,1450.905762 
	C4197.345703,1506.850830 4135.299316,1539.639038 4062.172607,1551.411621 
	C4042.604980,1554.561768 4022.451904,1555.953491 4002.644287,1555.400269 
	C3926.265137,1553.267090 3857.968262,1529.060791 3800.791260,1477.177124 
	C3774.180664,1453.030029 3753.014404,1424.491211 3736.455078,1392.580322 
	C3722.751953,1366.173462 3712.971680,1338.333374 3706.176514,1309.407227 
	C3705.577393,1306.855713 3704.832764,1304.338379 3703.826660,1300.574951 
	C3721.069580,1293.481445 3739.551758,1289.908936 3757.403564,1284.473999 
	C3775.129639,1279.077393 3793.118896,1274.545288 3811.547119,1269.481812 
	C3812.373291,1272.239136 3813.248291,1274.355469 3813.631836,1276.557373 
	C3821.124512,1319.539185 3838.738281,1357.578613 3868.380371,1389.893433 
	C3899.207031,1423.500488 3936.932129,1443.756836 3982.165527,1450.394653 
	C4062.569580,1462.193726 4150.892090,1420.718262 4190.273438,1344.803955 
	C4205.139160,1316.148560 4211.463379,1285.628052 4210.427246,1253.333984 
	C4209.477539,1223.718994 4201.906738,1196.374634 4185.799316,1171.361694 
	C4171.071289,1148.490601 4151.046875,1131.192261 4128.696289,1116.387817 
	C4104.507324,1100.365356 4078.515625,1087.637695 4052.153809,1075.625000 
	C4007.685791,1055.361694 3962.919434,1035.701904 3919.002930,1014.301941 
	C3897.569092,1003.857483 3877.768311,990.062561 3856.663330,977.341858 
z"/>
<path fill="#1CA8E1" opacity="1.000000" stroke="none" 
	d="
M1011.091919,1218.052002 
	C998.035645,1238.145752 984.900574,1258.188965 971.941162,1278.344971 
	C950.879333,1311.102905 929.942627,1343.941162 908.934265,1376.733521 
	C876.434204,1427.463501 843.920837,1478.185059 811.402588,1528.903442 
	C809.438477,1531.966797 807.381042,1534.970337 805.471558,1537.844238 
	C702.809082,1537.844238 600.614197,1537.844238 497.327423,1537.844238 
	C498.668579,1535.114136 499.389557,1533.027466 500.597717,1531.277100 
	C535.389343,1480.869507 570.238831,1430.501831 605.059326,1380.114258 
	C627.959106,1346.976440 650.819702,1313.811646 673.713562,1280.669922 
	C716.849670,1218.224976 760.025330,1155.807251 803.126526,1093.338135 
	C821.457153,1066.770264 839.641479,1040.101440 859.109375,1012.772766 
	C910.347473,1011.994263 960.368469,1011.921448 1010.715088,1012.737671 
	C1011.057678,1081.768555 1011.074829,1149.910278 1011.091919,1218.052002 
z"/>
<path fill="#A7DD01" opacity="1.000000" stroke="none" 
	d="
M1011.563599,1218.763306 
	C1011.074829,1149.910278 1011.057678,1081.768555 1011.045532,1012.723938 
	C1011.050537,1011.821106 1011.664185,1011.573975 1012.623657,1011.698425 
	C1054.314941,1011.861572 1095.047119,1012.003418 1135.778320,1011.855286 
	C1144.309937,1011.824280 1152.837646,1010.725037 1161.367188,1010.117981 
	C1206.563721,1075.549194 1251.764038,1140.977905 1296.955688,1206.412598 
	C1330.614258,1255.148193 1364.235474,1303.909790 1397.921509,1352.626587 
	C1437.662964,1410.100586 1477.464966,1467.532959 1517.207275,1525.006348 
	C1519.791138,1528.742798 1522.090088,1532.676270 1525.227783,1537.633911 
	C1421.721436,1537.633911 1319.660400,1537.633911 1216.172852,1537.633911 
	C1148.504272,1432.168945 1080.269775,1325.821777 1011.563599,1218.763306 
z"/>
<path fill="#67C7F2" opacity="1.000000" stroke="none" 
	d="
M1010.720032,1011.834839 
	C960.368469,1011.921448 910.347473,1011.994263 859.429626,1012.154053 
	C855.436646,1006.467346 852.831055,1000.359619 849.163879,994.974854 
	C826.874451,962.244629 804.295959,929.711426 781.903076,897.051392 
	C742.574158,839.690491 703.306274,782.287720 664.018982,724.898376 
	C636.009827,683.983704 608.034790,643.045593 579.994385,602.152405 
	C569.833679,587.334290 559.515442,572.624329 549.307068,557.838745 
	C548.396484,556.519897 547.766602,555.007263 546.458496,552.559509 
	C549.323120,552.245422 551.417786,551.815430 553.512512,551.814758 
	C653.469788,551.781677 753.427185,551.835022 853.384216,551.665405 
	C859.505066,551.654968 862.784485,553.755066 865.874023,559.029297 
	C899.503845,616.439697 933.425842,673.678833 967.265076,730.966553 
	C981.307251,754.739014 995.341553,778.515991 1009.889404,803.559692 
	C1010.689270,811.810242 1011.222717,818.791870 1011.230774,825.774109 
	C1011.298279,884.055969 1011.262024,942.338013 1011.286011,1000.619995 
	C1011.287476,1004.271362 1011.532471,1007.922668 1011.664185,1011.573975 
	C1011.664185,1011.573975 1011.050537,1011.821106 1010.720032,1011.834839 
z"/>
<path fill="#C3E828" opacity="1.000000" stroke="none" 
	d="
M1012.623657,1011.698425 
	C1011.532471,1007.922668 1011.287476,1004.271362 1011.286011,1000.619995 
	C1011.262024,942.338013 1011.298279,884.055969 1011.230774,825.774109 
	C1011.222717,818.791870 1010.689270,811.810242 1010.429382,804.098877 
	C1031.284912,768.150024 1052.153076,732.955811 1072.925293,697.705078 
	C1100.627197,650.694580 1128.291260,603.661682 1155.841797,556.562500 
	C1157.988403,552.892700 1160.567627,551.270691 1164.670776,551.691589 
	C1165.989502,551.826843 1167.334106,551.709778 1168.666870,551.709778 
	C1266.958496,551.709656 1365.250244,551.709717 1463.541870,551.709717 
	C1466.526733,551.709717 1469.511597,551.709717 1473.775757,551.709717 
	C1472.278809,554.713928 1471.436646,557.051819 1470.077759,559.035950 
	C1439.611206,603.521179 1409.068237,647.953918 1378.582031,692.425720 
	C1356.562378,724.546875 1334.638306,756.733459 1312.611938,788.849854 
	C1268.562622,853.077820 1224.461670,917.270325 1180.411133,981.497498 
	C1174.197998,990.556519 1168.149170,999.728210 1161.695801,1009.482849 
	C1152.837646,1010.725037 1144.309937,1011.824280 1135.778320,1011.855286 
	C1095.047119,1012.003418 1054.314941,1011.861572 1012.623657,1011.698425 
z"/>
<path fill="#FFFFFF" opacity="1.000000" stroke="none" 
	d="
M2787.591553,959.570801 
	C2799.374023,902.909180 2822.092773,851.891296 2855.230957,805.623779 
	C2889.202881,758.192017 2931.451172,719.615906 2982.105957,690.514221 
	C3026.099121,665.239685 3073.254150,649.031982 3123.503174,641.613220 
	C3152.931396,637.268372 3182.500732,636.235413 3212.011719,638.541199 
	C3259.377441,642.242065 3304.877930,653.724121 3348.197021,673.773315 
	C3396.245117,696.011353 3438.416992,726.317810 3474.319824,765.039062 
	C3526.871582,821.716370 3560.825195,888.123840 3576.098145,964.007996 
	C3583.150146,999.047546 3586.011719,1034.417358 3583.557617,1070.039795 
	C3580.127441,1119.830444 3568.437744,1167.669189 3547.683350,1213.199341 
	C3530.166504,1251.627197 3507.402588,1286.657104 3479.219727,1318.041748 
	C3448.998291,1351.696533 3414.181641,1379.783691 3374.650635,1401.916992 
	C3329.752686,1427.055176 3281.723877,1443.083374 3230.752441,1449.445435 
	C3166.677246,1457.443115 3104.094727,1450.158691 3043.545166,1427.517090 
	C2994.072754,1409.017578 2949.940430,1381.739014 2911.154541,1345.751587 
	C2847.822998,1286.989624 2806.810059,1215.476929 2787.965820,1131.241211 
	C2783.251465,1110.167969 2781.014893,1088.786255 2779.375977,1067.209473 
	C2776.631348,1031.078491 2780.594727,995.689636 2787.591553,959.570801 
z"/>
</svg>