<svg xmlns="http://www.w3.org/2000/svg" role="img" viewBox="-6.86 -6.86 343.72 109.47"><path d="M206.3 74h-9V0h9v30.3q2.8-4.1 7.1-6.8a17.572 17.572 0 0 1 7.125-2.509 22.595 22.595 0 0 1 2.975-.191 23.225 23.225 0 0 1 5.065.518q5.094 1.138 8.085 4.782 4.125 5.026 4.338 13.109a33.764 33.764 0 0 1 .012.891V74h-9V41.1q0-5.6-2.6-9a8.42 8.42 0 0 0-6.158-3.347 11.979 11.979 0 0 0-1.142-.053 13.23 13.23 0 0 0-6.713 1.866 17.586 17.586 0 0 0-2.037 1.384q-4.15 3.25-7.05 7.65V74zM40.2 74H0v-7.1l28.7-37.1H.6V22h39.1v6.9L11.1 66h29.1v8zm252.2 22h-9V35.3a11.015 11.015 0 0 0-.127-1.736q-.331-2.066-1.523-3.114a5.718 5.718 0 0 0-2.79-1.322A7.991 7.991 0 0 0 277.5 29l1.9-7q5.862 0 8.922 2.964A10.15 10.15 0 0 1 290.9 29.3q.955-1.433 3.052-3.323a38.58 38.58 0 0 1 .198-.177 18.902 18.902 0 0 1 2.701-1.984 25.569 25.569 0 0 1 2.899-1.516 16.955 16.955 0 0 1 4.559-1.289 21.886 21.886 0 0 1 3.091-.211q6 0 11.25 3.15a22.329 22.329 0 0 1 7.178 6.967 27.464 27.464 0 0 1 1.272 2.133q3.2 5.95 3.2 14.45 0 8.3-3.2 14.55a27.846 27.846 0 0 1-3.934 5.832 23.029 23.029 0 0 1-4.416 3.868q-5.15 3.45-11.15 3.45-4.6 0-8.6-1.85a30.352 30.352 0 0 1-3.416-1.839q-1.793-1.127-3.184-2.411V96zM53.7 56.1V31.7h-9v-7.8h9.2l1.9-16.4h6.9v16.4h14.4v7.8H62.7v25.1a21.559 21.559 0 0 0 .168 2.796q.473 3.606 2.282 5.304 2.45 2.3 5.85 2.3 2.5 0 4.75-.8t4.15-1.9l2.5 7.2a18.546 18.546 0 0 1-1.618.856q-.802.379-1.748.752A43.365 43.365 0 0 1 77 74.05q-3.4 1.15-7.1 1.15-7.5 0-11.85-4.95a16.116 16.116 0 0 1-3.228-5.902q-.763-2.431-1.007-5.368a34.777 34.777 0 0 1-.115-2.88zM186 23.9l-2.7 7.6a30.422 30.422 0 0 0-2.904-1.276 23.42 23.42 0 0 0-2.446-.774 20.543 20.543 0 0 0-3.043-.526 26.355 26.355 0 0 0-2.607-.124 15.889 15.889 0 0 0-7.253 1.643 16.132 16.132 0 0 0-4.497 3.407q-4.75 5.05-4.75 13.95a25.192 25.192 0 0 0 .705 6.06 21.45 21.45 0 0 0 1.295 3.74 18.564 18.564 0 0 0 2.91 4.577 16.275 16.275 0 0 0 2.64 2.423q3.55 2.6 8.35 2.6 3.165 0 5.568-.59a15.08 15.08 0 0 0 .932-.26q2.689-.847 5.776-2.438A49.095 49.095 0 0 0 184 63.9l2.8 7.6q-3.1 1.7-6.95 2.7-3.85 1-8.75 1a26.803 26.803 0 0 1-7.039-.89 22.074 22.074 0 0 1-5.911-2.56q-5.55-3.45-8.55-9.6-3-6.15-3-14.15 0-7.5 3.05-13.7 3.05-6.2 8.75-9.85a23.067 23.067 0 0 1 9.668-3.421 29.608 29.608 0 0 1 3.732-.229q4.4 0 7.75.8 3.35.8 6.45 2.3zm-61 2.3V22h8.2v39.4a12.15 12.15 0 0 0 .102 1.636q.332 2.434 1.748 3.314 1.85 1.15 4.05 1.15l-1.9 7a17.722 17.722 0 0 1-4.265-.472q-5.637-1.4-7.232-6.948a13.59 13.59 0 0 1-.103-.38 21.307 21.307 0 0 1-3.11 3.426 28.498 28.498 0 0 1-3.14 2.424q-3.95 2.65-10.05 2.65-6.5 0-11.8-3.3a22.947 22.947 0 0 1-7.413-7.527 27.923 27.923 0 0 1-1.037-1.823 27.228 27.228 0 0 1-2.63-7.942 36.644 36.644 0 0 1-.52-6.308 33.142 33.142 0 0 1 .997-8.269A27.968 27.968 0 0 1 89.05 34.3q3.15-6.2 8.7-9.85a22.297 22.297 0 0 1 11.195-3.606 27.388 27.388 0 0 1 1.555-.044 22.584 22.584 0 0 1 4.794.49 18.703 18.703 0 0 1 3.356 1.06 26.002 26.002 0 0 1 4.287 2.294A22.103 22.103 0 0 1 125 26.2zM265.5 74h-9V22h9v52zM124.2 60.7V32.8q-2.7-1.9-5.95-3.05t-6.85-1.15a15.924 15.924 0 0 0-4.971.754 14.024 14.024 0 0 0-3.479 1.696 16.301 16.301 0 0 0-5.019 5.424 19.962 19.962 0 0 0-.731 1.376 20.663 20.663 0 0 0-1.753 5.677A27.678 27.678 0 0 0 95.1 48q0 5.6 2.1 9.95a17.602 17.602 0 0 0 3.106 4.546A15.697 15.697 0 0 0 103 64.75q3.7 2.45 8.3 2.45 3.8 0 7.2-1.85 3.4-1.85 5.7-4.65zm168.2-25.3V61q2.6 2.7 6 4.45t7.4 1.75q6.694 0 10.917-5.184a17.38 17.38 0 0 0 .133-.166 18.792 18.792 0 0 0 3.494-7.306q.661-2.689.744-5.836a34.555 34.555 0 0 0 .012-.908q0-6-2.15-10.3-2.15-4.3-5.7-6.6-3.55-2.3-7.85-2.3a14.741 14.741 0 0 0-5.627 1.063 14.054 14.054 0 0 0-2.123 1.087q-3.45 2.15-5.25 4.65zm-35.763-24.112A5.973 5.973 0 0 0 261 13.1a8.175 8.175 0 0 0 1.496-.131 5.647 5.647 0 0 0 3.104-1.619q1.7-1.75 1.7-4.55a7.26 7.26 0 0 0 0-.081 6.06 6.06 0 0 0-1.85-4.369 7.395 7.395 0 0 0-.058-.057A6.059 6.059 0 0 0 261 .5a8.264 8.264 0 0 0-1.656.158A5.661 5.661 0 0 0 256.4 2.2a5.588 5.588 0 0 0-1.471 2.632A7.987 7.987 0 0 0 254.7 6.8a5.992 5.992 0 0 0 .492 2.419 6.643 6.643 0 0 0 1.358 1.981 7.466 7.466 0 0 0 .087.088z" vector-effect="non-scaling-stroke" fill="#000" fill-rule="evenodd" stroke="#000" stroke-linecap="round" stroke-width=".25mm"/></svg>