<svg xmlns="http://www.w3.org/2000/svg" role="img" viewBox="-5.93 -5.93 295.36 104.86"><path d="M8.1 93.2H0v-74h8.6v33.1q0 3.921 1.238 6.509A8.301 8.301 0 0 0 11.9 61.55q3.3 2.85 7.6 2.85a17.535 17.535 0 0 0 4.77-.685 21.795 21.795 0 0 0 2.23-.765 21.546 21.546 0 0 0 4.596-2.57A26.914 26.914 0 0 0 33.4 58.5V19.2H42v52h-8.3v-5.9q-3.4 3.4-7.45 5.25-4.05 1.85-8.15 1.85a20.48 20.48 0 0 1-2.542-.148q-1.274-.16-2.346-.491A10.028 10.028 0 0 1 12 71.3a10.95 10.95 0 0 1-2.648-1.687A9.739 9.739 0 0 1 8.1 68.3v24.9zm172.5-26.8l4.1-7.5a29.424 29.424 0 0 0 3.852 2.43 36.526 36.526 0 0 0 2.648 1.27 18.21 18.21 0 0 0 3.82 1.149q1.847.353 3.97.43a33.313 33.313 0 0 0 1.21.021q6.6 0 10.45-3.5a11.476 11.476 0 0 0 3.19-4.685A11.929 11.929 0 0 0 214.5 52q0-3.7-2-6.75-1.945-2.966-5.925-4.845a21.187 21.187 0 0 0-.225-.105q-3.207-1.468-7.876-1.801a40.356 40.356 0 0 0-2.874-.099H190v-7.3h5.2a31.908 31.908 0 0 0 4.056-.242q3.258-.419 5.694-1.558a16.484 16.484 0 0 0 2.901-1.714A11.823 11.823 0 0 0 210.7 24.6q1.9-2.9 1.9-6.1a10.072 10.072 0 0 0-.729-3.889 9.418 9.418 0 0 0-2.821-3.711 12.755 12.755 0 0 0-6.554-2.761A16.888 16.888 0 0 0 200.3 8q-4.7 0-8.35 1.55Q188.3 11.1 186 13l-3.7-7.1a32.63 32.63 0 0 1 2.489-1.493q1.421-.774 3.101-1.54A66.563 66.563 0 0 1 190 1.95a24.597 24.597 0 0 1 5.445-1.521Q198.047 0 201 0q5.984 0 10.324 1.973a17.976 17.976 0 0 1 .876.427 19.376 19.376 0 0 1 4.281 2.988 16.398 16.398 0 0 1 2.769 3.362q2.45 3.95 2.45 8.55a19.531 19.531 0 0 1-.525 4.64 14.587 14.587 0 0 1-2.425 5.26 19.553 19.553 0 0 1-4.367 4.257A26.455 26.455 0 0 1 210.4 33.8a24.812 24.812 0 0 1 5.458 2.853 19.796 19.796 0 0 1 4.392 4.197 17.3 17.3 0 0 1 3.547 10.464 21.406 21.406 0 0 1 .003.386q0 5.2-2.55 9.95a18.802 18.802 0 0 1-5.632 6.354 23.697 23.697 0 0 1-2.168 1.396q-4.509 2.577-11.121 2.941a40.608 40.608 0 0 1-2.229.059 40.712 40.712 0 0 1-5.362-.335q-3.238-.43-5.938-1.415-4.8-1.75-8.2-4.25zm-33 4.8h-10.7L111.2 3.7l9.3-3.6 22 60.7L164.6.4l8.6 3.3-25.6 67.5zm136 0H243q-.3-1.8-.3-3.7a32.192 32.192 0 0 1 .635-6.525 25.813 25.813 0 0 1 1.615-5.125q2.25-5.15 5.85-9.4 3.6-4.25 7.65-7.9 4.05-3.65 7.6-7a46.218 46.218 0 0 0 3.419-3.573A35.601 35.601 0 0 0 271.9 24.8q2.3-3.4 2.3-7.1a9.278 9.278 0 0 0-.824-3.945 9.139 9.139 0 0 0-2.276-3.005 10.723 10.723 0 0 0-5.318-2.52A15.011 15.011 0 0 0 263.1 8a18.533 18.533 0 0 0-4.957.645 16.281 16.281 0 0 0-2.693 1.005 25.364 25.364 0 0 0-5.788 3.852 28.825 28.825 0 0 0-.662.598L244 8q4-3.6 8.85-5.8a24.132 24.132 0 0 1 6.306-1.837A32.297 32.297 0 0 1 264.1 0a26.13 26.13 0 0 1 5.202.495A19.778 19.778 0 0 1 274.4 2.25a17.784 17.784 0 0 1 4.886 3.612A16.365 16.365 0 0 1 281.25 8.4q2.45 3.9 2.45 8.7 0 4.8-2.1 8.9a34.778 34.778 0 0 1-4.992 7.248 38.693 38.693 0 0 1-.408.452q-3.3 3.6-7.1 6.95t-7.3 6.85a45.932 45.932 0 0 0-4.574 5.303 40.289 40.289 0 0 0-1.376 1.997q-2.45 3.8-3.05 8.2h30.8v8.2zm-173.9-3l-8.9 4.2-8.7-19a30.586 30.586 0 0 0-2.591-4.573Q87.003 45.222 83.8 43.3q-4.355-2.613-10.836-2.95A37.847 37.847 0 0 0 71 40.3h-1.5v30.9H60V1.4Q65.3.9 70.15.65a187.94 187.94 0 0 1 6.316-.214A226.267 226.267 0 0 1 80.5.4q12.8 0 19.25 5.2a17.414 17.414 0 0 1 4.63 5.535q1.82 3.509 1.82 7.865a19.88 19.88 0 0 1-.651 5.22 14.672 14.672 0 0 1-3.699 6.53Q97.5 35.2 89.3 37.4a23.656 23.656 0 0 1 3.429 1.863 20.427 20.427 0 0 1 1.371.987q1.969 1.547 3.805 4.061a29.29 29.29 0 0 1 .245.339q1.95 2.75 3.95 7.15l7.6 16.4zM69.5 8.8v23.5h11a26.489 26.489 0 0 0 4.923-.431q3.929-.744 6.777-2.769 4.5-3.2 4.5-9.2a9.811 9.811 0 0 0-3.273-7.464 13.272 13.272 0 0 0-.927-.786 13.923 13.923 0 0 0-4.364-2.221q-1.929-.611-4.259-.859A31.944 31.944 0 0 0 80.5 8.4q-3.174 0-5.738.088a118.974 118.974 0 0 0-.362.012q-2.7.1-4.9.3z" vector-effect="non-scaling-stroke" fill="#000" fill-rule="evenodd" stroke="#000" stroke-linecap="round" stroke-width=".25mm"/></svg>