<svg xmlns="http://www.w3.org/2000/svg" role="img" viewBox="14.00 176.50 624.00 298.50"><title>Agile Analog (member) logo</title><style>svg {enable-background:new 0 0 652 652}</style><path fill="#339" d="M40.3 326c0 11.7 6.6 20.4 17.8 20.4 11.5 0 18.1-9.6 18.1-20.3 0-14-9.7-20.2-18.1-20.2-9.3 0-17.8 6.8-17.8 20.1zm35.4-27.2h9.4v54.4h-9.4v-7.6c-3.1 4.1-9 9.2-18.6 9.2-13.8 0-26.5-9.7-26.5-28.8 0-18.7 12.6-28.4 26.5-28.4 10.5 0 16.1 5.8 18.6 9v-7.8m35.4 12.2c-4.6 4.7-5.5 10.5-5.5 14.9 0 4.7.9 11.1 6.2 16 3 2.8 6.7 4.5 11.7 4.5 5 0 8.9-1.6 11.9-4.6 3.7-3.5 6.2-9.3 6.2-15.7 0-6.4-2.4-12.1-5.8-15.3-3-3-7.5-4.8-12.3-4.8-5.9-.1-9.8 2.4-12.4 5zm29.9-12.2h9.4v53.1c0 5.9 0 14.3-5.2 21.4-4.1 5.5-11.5 10.1-21.8 10.1-9.3 0-15.7-3.7-19.4-7.3-3.7-3.7-7.1-9.6-7.1-17.6h9.3c0 4.6 1.8 8.7 4.2 11.3 3.9 4.3 8.9 5.2 13.1 5.2 6.7 0 11.3-2.4 14.4-7.6 2.8-4.5 3-9.3 3-13.9v-7.9c-3.1 4.1-9 9.2-18.6 9.2-8 0-14.4-3.1-18.6-7.3-3.7-3.7-7.9-10.5-7.9-21.5 0-10.6 3.9-17.2 7.9-21.1 4.6-4.5 11.3-7.3 18.6-7.3 8 0 14.3 3.4 18.6 9l.1-7.8m33 0v54.4h-9.4v-54.4h9.4zm-4.7-27.2c3.7 0 6.7 3 6.7 6.7s-3 6.7-6.7 6.7-6.7-3-6.7-6.7 3-6.7 6.7-6.7m28.3-13.9v95.6h-9.4v-95.6h9.4m53.1 62.4c-1.6-8.5-8-14.2-16-14.2s-14.5 6-16 14.2h32zm9.3 19.2c-1.6 3-3.9 6.3-6.7 8.8-5 4.5-11.1 6.7-18.1 6.7-13.1 0-26.9-8.3-26.9-28.4 0-16.3 10-28.8 26.3-28.8 10.6 0 17.3 5.2 20.6 10 3.4 4.9 5.4 13.2 5.1 20.4H218c.1 11.3 7.9 18.5 17.3 18.5 4.5 0 8-1.3 11.1-3.9 2.5-2.1 4.5-4.9 5.6-7.5l8 4.2m44.3-13.3c0 11.7 6.6 20.4 17.8 20.4 11.5 0 18.1-9.6 18.1-20.3 0-14-9.7-20.2-18.1-20.2-9.3 0-17.8 6.8-17.8 20.1zm35.4-27.2h9.4v54.4h-9.4v-7.6c-3.1 4.1-9 9.2-18.6 9.2-13.8 0-26.5-9.7-26.5-28.8 0-18.7 12.6-28.4 26.5-28.4 10.5 0 16.1 5.8 18.6 9v-7.8m23.6 0h9.4v6.3c1.7-2.2 6.6-7.6 15.6-7.6 6.4 0 12.3 2.6 15.6 7.5 2.8 4.1 3.1 8.5 3.1 14.5v33.7h-9.4v-33.4c0-3.3-.3-7.1-2.5-10-1.8-2.4-4.7-3.9-8.9-3.9-3.3 0-6.8.9-9.6 4.2-3.7 4.3-3.9 10.7-3.9 14.7v28.4h-9.4v-54.4m64.2 27.2c0 11.7 6.6 20.4 17.8 20.4 11.5 0 18.1-9.6 18.1-20.3 0-14-9.7-20.2-18.1-20.2-9.3 0-17.8 6.8-17.8 20.1zm35.4-27.2h9.4v54.4h-9.4v-7.6c-3.1 4.1-9 9.2-18.6 9.2-13.8 0-26.5-9.7-26.5-28.8 0-18.7 12.6-28.4 26.5-28.4 10.5 0 16.1 5.8 18.6 9v-7.8m33-41.1v95.6h-9.4v-95.6h9.4m20.4 68.5c0 13.4 9.4 20.2 19.1 20.2 9.8 0 19.1-6.9 19.1-20.2 0-13.4-9.2-20.3-19.1-20.3-9.9 0-19.1 7.1-19.1 20.3zm-9.7 0c0-16.5 12.2-28.7 28.8-28.7s28.8 12.2 28.8 28.7-12.3 28.6-28.8 28.6c-16.4 0-28.8-12.1-28.8-28.6m80.2-15.2c-4.6 4.7-5.5 10.5-5.5 14.9 0 4.7.9 11.1 6.2 16 3 2.8 6.7 4.5 11.7 4.5s8.9-1.6 11.9-4.6c3.7-3.5 6.2-9.3 6.2-15.7 0-6.4-2.4-12.1-5.8-15.3-3-3-7.5-4.8-12.3-4.8-5.8-.1-9.7 2.4-12.4 5zm29.9-12.2h9.4v53.1c0 5.9 0 14.3-5.2 21.4-4.1 5.5-11.5 10.1-21.8 10.1-9.3 0-15.7-3.7-19.4-7.3-3.7-3.7-7.1-9.6-7.1-17.6h9.3c0 4.6 1.8 8.7 4.2 11.3 3.9 4.3 8.9 5.2 13.1 5.2 6.7 0 11.3-2.4 14.4-7.6 2.8-4.5 3-9.3 3-13.9v-7.9c-3.1 4.1-9 9.2-18.6 9.2-8 0-14.4-3.1-18.6-7.3-3.7-3.7-7.9-10.5-7.9-21.5 0-10.6 3.9-17.2 7.9-21.1 4.6-4.5 11.3-7.3 18.6-7.3 8 0 14.3 3.4 18.6 9v-7.8m-468.8-92.7c52 0 97.4 28.3 121.6 70.4-17-51-65-87.7-121.6-87.7-56.7 0-104.7 36.8-121.6 87.7 24.2-42.1 69.6-70.4 121.6-70.4m297.6 240.1c-52 0-97.4-28.3-121.6-70.4 17 51 65 87.7 121.6 87.7s104.7-36.8 121.6-87.7c-24.2 42-69.5 70.4-121.6 70.4"/></svg>