<svg xmlns="http://www.w3.org/2000/svg" role="img" viewBox="29.51 203.51 805.48 211.48"><title>Alfabetico Digital (member) logo</title><path fill="#FFF" d="M527 597H1V1h842v596H527m26.5-196.9983h266.16895V219.30798H45.33096V400.0017H553.5z"/><path fill="#611E85" d="M553 400.0017H45.33096V219.30798h774.33799V400.0017H553m-401.50001-5.15659h68.32539V224.70343H50.32472v170.14163c33.6085 0 66.89188 0 101.17526.00006m519.55575-53.65283c-1.81635 1.84775-3.35053 4.75525-5.50599 5.32916-4.93713 1.31458-4.04925 4.08768-3.25177 7.38178 9.10608-.93619 15.16004-6.12598 15.87195-14.64404.6056-7.24558.66272-14.649-.10235-21.86973-1.03748-9.79107-10.60297-16.16787-19.85254-14.08352-9.73883 2.1946-15.52967 12.49042-12.37982 22.01074 3.1621 9.55756 13.16009 14.16013 22.48834 10.3476 1.11474-.4556 2.21673-.9425 3.94653-1.68003-.36902 2.60553-.64386 4.54648-1.21435 7.20804m-55.0686-37.39673c-.96198 4.40873-3.00501.62216-4.02229.25766-9.29296-3.33026-19.03259 1.25125-22.135 10.65873-3.09357 9.38067 2.41058 19.40157 12.00958 21.8648 8.98584 2.30588 19.38043-3.73486 20.04126-13.12887.91687-13.03284.23046-26.17841.23046-39.31226h-6.122c0 6.49423 0 12.64114-.00202 19.65994M386.18027 332.3394c7.55377 5.93298 15.69912 6.2177 22.28146.77893 5.78735-4.78193 8.00232-13.60971 4.27368-20.31513-1.74887-3.14508-4.74603-5.95135-7.8104-7.9318-5.48943-3.54769-11.35976-1.77676-17.4305.9051v-21.71582h-6.50418c0 11.80551-.41404 23.4281.21402 34.99408.23474 4.32272 2.89914 8.51349 4.97592 13.28464m52.18988-1.93836c-4.27771-.06802-7.5922-1.62652-9.8556-6.57626h25.52048c1.93024-8.6716-2.1647-16.45221-9.83447-19.63388-7.2696-3.0156-15.89624-.36307-20.27829 6.2352-4.66968 7.03137-3.71603 16.2446 2.2716 21.94567 5.98106 5.69483 14.40373 6.17405 21.3786 1.23832-1.84594-3.49704-4.43093-5.15656-9.20232-3.20905m322.43558-15.3507c-4.47791-10.73337-14.30634-14.94687-23.66767-10.14652-8.73218 4.47772-11.77081 15.37485-6.69672 24.01532 4.68708 7.98144 13.451 9.95343 23.71662 6.71606l6.83728 1.88123c0-7.79575 0-14.73468-.18951-22.4661m-389.25178 13.40815c-.1236-3.81638.1424-7.6941-.44674-11.4372-1.5256-9.6923-11.03116-15.92877-20.24018-13.60693-9.74148 2.45614-15.27606 12.8031-11.91406 22.27359 3.68299 10.37463 13.86402 13.83273 25.13217 10.06198 2.29737.51965 4.59473 1.03927 7.46842 1.68927 0-3.40521 0-5.71591.0004-8.98071m-92.25849 7.58603l4.06009-1.79346c-.09366.49704-.18732.99408-.28095 1.49112l7.41752 1.68643c0-6.89343.30826-12.72357-.07142-18.50855-.58618-8.93066-7.26293-15.54269-15.69287-15.8815-6.9421-.27902-12.3128 2.66495-15.62924 8.78006-3.41505 6.2969-2.9717 12.68885 1.25778 18.36203 4.50727 6.04584 10.75037 8.10236 18.9391 5.86386m259.17693-1.87252c7.75904 4.2374 14.96485 3.66507 20.66083-1.6409 5.27704-4.91562 6.84454-12.9927 3.81836-19.67456-2.98932-6.6004-9.75317-10.63706-16.91632-9.7543-7.06152.8702-11.9983 4.77178-14.1474 11.5793-2.4046 7.61653-.17554 14.02296 6.58453 19.49046M321.55344 323.4917V309.713h10.03418v-6.72595c-1.71592 0-3.1756-.00003-4.63529-.00003-1.64285 0-3.2857.00003-4.88464.00003-.80704-7.38608.94912-9.72974 9.4538-13.05643v-5.71435c-9.62946.48126-16.27427 6.99057-16.49097 16.208-.18778 7.9867-.0422 15.9813-.0434 23.97239-.00064 4.09283-.00009 8.18567-.00009 12.20843h6.56607c0-4.19268 0-8.15747.00034-13.1134M705.476 294.05954v8.86539c-2.51281.17965-4.28411.3063-6.14593.43942v6.4609c2.11474.15507 3.89496.28559 5.18902.3805 1.01642 6.20111 1.13 12.33426 3.1507 17.75674 2.20727 5.92322 7.62018 8.72187 14.21057 8.8899v-5.98255c-9.38171-3.08285-11.40784-7.66348-9.2779-20.91287h9.20478v-7.02246h-9.93445v-11.15213c-2.42462.54846-4.35077.98416-6.39679 2.27716M473.5489 310.00958h5.41095v-6.8183h-10.00186v-10.67825h-6.59836v10.2846c-2.31906.27674-4.224.50404-6.12857.7313v6.2168c2.13086.21447 4.04947.40762 5.31695.53521.96598 6.14801 1.04963 12.12815 2.96769 17.44675 2.17514 6.03153 7.67569 8.74875 14.34274 9.30805.68686-3.75644.93558-6.22019-3.68607-7.73542-2.52795-.82885-4.72058-4.50671-5.80499-7.37585-.99643-2.6363-.13458-5.92606-.40362-8.89969-.27515-3.04071 1.43334-3.22232 4.58514-3.0152m35.92157 1.75284c2.81683-.63812 5.9242-2.34433 8.38537-1.67487 4.13855 1.12565 6.16785-.33273 7.95423-3.47845-7.40998-5.41412-16.53147-4.66263-22.4029 1.82144-5.91903 6.53665-5.90188 16.67017.03922 23.18067 5.90549 6.47146 15.13846 7.19503 23.3395.97024-2.7202-1.12118-5.00841-2.98556-7.01781-2.7222-6.37683.83585-10.02417-.06607-12.64786-4.3182-2.55686-4.1439-1.97736-8.49274 2.35025-13.77863m-207.80063-27.74326c-.5559 1.30533-1.56549 2.60123-1.59274 3.91752-.15491 7.47988-.07526 14.96466-.07529 22.44775-.00006 8.76211 0 17.52423 0 26.24203h6.40506c0-16.65875-.07617-32.95053.0669-49.24041.0273-3.1058-1.30274-3.70804-4.80393-3.36689m474.73929 40.473v-40.27524h-6.02228v52.82724c2.16351-.09625 3.93286-.17499 6.02265-.26794 0-4.02033 0-7.65467-.00037-12.28406m-83.0028 9.76364v-30.95142h-6.00984v34.40564c2.4474-1.03195 4.20533-1.77322 6.00983-3.45422m-57.99151-22.7259v-8.3062h-6.10169v33.33605h6.10199c0-8.1839 0-16.10919-.0003-25.02984m-143.99998-1.97571v-6.33655h-6.10665v33.3465h6.10696c0-8.8426 0-17.43042-.0003-27.00995m-48.38413-13.76721c3.18546-3.02057-.60452-3.51325-1.68182-5.41532l-7.62528 6.88031c1.4524 1.31223 2.57349 2.3251 3.85822 3.48587 2.02057-1.87817 3.45648-3.21289 5.44888-4.95086m42.36493.9378c1.55417.36194 3.13446 1.0359 4.64764.90897.49973-.04187 1.45997-2.46369 1.07743-3.23785-.52292-1.0582-2.75766-2.45618-3.15158-2.1723-1.22724.8844-1.93296 2.49248-2.57349 4.50118m146.90173 1.72367c1.03107-1.25086 2.37848-2.38584 2.9046-3.82172.16248-.44351-1.82354-2.2223-2.99224-2.42352-.8584-.1478-2.92432 1.47473-2.82141 1.96835.31115 1.4928 1.41687 2.81998 2.90905 4.27689m56.58112-6.12745c-.44238 1.54502-1.17438 3.09421-1.15204 4.63248.00677.46661 2.37964 1.54352 3.16748 1.198 1.09076-.47845 2.61676-2.63022 2.3598-3.02438-.82922-1.27164-2.38946-2.0665-4.37524-2.8061z"/><path fill="#FEFEFE" d="M150.99997 394.8451c-33.78337-.00004-67.06674-.00004-100.67525-.00004V224.70343h169.50066v170.1417c-22.82211 0-45.57375 0-68.82541-.00004M95.64743 272.1395c-17.7731 17.8408-20.86507 43.92646-7.59486 64.49524 6.56276 10.17225 15.64553 17.2482 27.14394 20.92164 16.60111 5.30358 32.121 2.26986 47.10763-7.78351v9.81741h19.67728c0-18.56958.00767-36.72833-.01803-54.88708-.00163-1.15601-.19735-2.3238-.41204-3.46558-3.68107-19.57513-14.53353-33.5333-33.36385-40.21466-19.20036-6.8127-36.69971-2.79007-52.54007 11.11655z"/><path fill="#F1F0F4" d="M671.2035 340.83197c.42272-2.30124.69756-4.24219 1.06658-6.84772-1.7298.73752-2.83179 1.22443-3.94653 1.68003-9.32825 3.81253-19.32624-.79004-22.48834-10.3476-3.14985-9.52032 2.64099-19.81613 12.37982-22.01074 9.24957-2.08435 18.81506 4.29245 19.85254 14.08352.76507 7.22074.70794 14.62415.10235 21.86973-.71191 8.51806-6.76587 13.70785-15.87195 14.64404-.79748-3.2941-1.68536-6.0672 3.25177-7.38178 2.15546-.57391 3.68964-3.48141 5.65375-5.68948m-14.61218-29.88144c-4.95526 4.24002-6.33118 8.77017-4.1054 13.5167 1.93926 4.13552 6.27007 6.56076 10.54174 5.90325 6.19714-.95385 10.1452-6.81231 8.64996-12.83542-1.60876-6.47998-7.2685-9.20715-15.0863-6.58453z"/><path fill="#F2F1F4" d="M615.98816 303.35962c.00098-6.58286.00098-12.72977.00098-19.224h6.122c0 13.13385.6864 26.27942-.23046 39.31226-.66083 9.394-11.05542 15.43475-20.04126 13.12887-9.599-2.46323-15.10315-12.48413-12.00959-21.8648 3.10242-9.40748 12.84204-13.98899 22.13501-10.65873 1.01728.3645 3.0603 4.15107 4.02332-.6936m-.15247 14.64923c-3.02777-8.26706-10.82287-11.09189-16.64544-6.03198-3.66517 3.18506-4.72876 8.39444-2.59223 12.69699 2.12866 4.2869 6.66791 6.5567 11.14063 5.5707 5.29535-1.16732 7.93695-4.84603 8.09704-12.23571zm-229.91552 14.07044c-1.81669-4.51105-4.48108-8.70182-4.71582-13.02454-.62806-11.56598-.21402-23.18857-.21402-34.99408h6.50418v21.71582c6.07074-2.68186 11.94107-4.45279 17.4305-.9051 3.06437 1.98045 6.06153 4.78672 7.8104 7.9318 3.72864 6.70542 1.51367 15.5332-4.27368 20.31513-6.58234 5.43878-14.7277 5.15405-22.54156-1.03903m3.9028-5.49128c4.68713 4.42554 9.0318 5.1623 13.42663 2.27692 4.01502-2.63605 5.75672-7.77173 4.17545-12.31207-1.93924-5.56824-7.97528-8.466-13.2944-6.38233-6.25422 2.45001-8.17356 8.807-4.30768 16.41748z"/><path fill="#EEECF2" d="M438.77801 330.35053c4.36353-1.897 6.94852-.2375 8.79447 3.25955-6.97488 4.93573-15.39755 4.4565-21.3786-1.23832-5.98764-5.70108-6.94129-14.9143-2.2716-21.94567 4.38204-6.59827 13.00869-9.2508 20.27828-6.2352 7.66977 3.18167 11.76471 10.96228 9.83447 19.63388h-25.52047c2.2634 4.94974 5.57788 6.50824 10.26345 6.52576m-7.35488-18.51627c-1.1015 1.51239-2.20298 3.02481-3.6142 4.96252h19.24442c-2.49644-7.10302-7.7695-8.89825-15.63022-4.96252z"/><path fill="#F1F0F4" d="M760.90051 315.4466c.09473 7.33514.09473 14.27407.09473 22.06982l-6.83728-1.88123c-10.26563 3.23737-19.02954 1.26538-23.71662-6.71606-5.0741-8.64047-2.03546-19.5376 6.69672-24.01532 9.36133-4.80036 19.18976-.58685 23.76245 10.54278m-8.4143-2.30331c-3.65613-3.83597-7.93567-4.83337-12.62159-2.26062-4.0246 2.20972-5.84722 5.88757-5.22515 10.45291.61584 4.51868 3.17773 7.58453 7.69427 8.80124 4.16669 1.1225 7.64203-.24985 10.22186-3.45602 3.3014-4.10285 3.27155-8.53363-.0694-13.53751zm-380.93244 15.79227c-.00021 2.78772-.00021 5.09842-.00021 8.50363-2.87369-.65-5.17105-1.16962-7.46842-1.68927-11.26815 3.77075-21.44918.31265-25.13217-10.06198-3.362-9.4705 2.17258-19.81745 11.91406-22.2736 9.20902-2.32183 18.71457 3.91465 20.24018 13.60694.58914 3.7431.32315 7.62082.44656 11.91428m-26.85168-10.79508c-1.58332 6.95581 5.04828 13.29865 11.32718 12.28122 4.99194-.80884 8.70373-4.85412 8.9558-9.89978.25321-5.068-3.0556-9.50775-7.94747-10.664-5.45221-1.2887-9.58826 1.27445-12.33551 8.28256zm-65.79615 18.0368c-7.79919 2.10572-14.0423.0492-18.54956-5.99664-4.22949-5.67318-4.67283-12.06512-1.25778-18.36203 3.31644-6.1151 8.68714-9.05908 15.62924-8.78006 8.42994.33881 15.1067 6.95084 15.69287 15.8815.37968 5.78498.07142 11.61512.07142 18.50855l-7.41751-1.68643c.09362-.49704.18728-.99408.28094-1.49112-1.35336.5978-2.70673 1.19565-4.44962 1.92624m-14.87734-19.49405c-2.61902 6.87774 3.55825 14.83029 11.00299 13.72409 4.81304-.71515 8.45306-4.55649 8.92746-9.39176.47009-4.79074-2.49585-9.46368-6.95038-10.95065-5.09201-1.6997-9.17337.18772-12.98007 6.61832z"/><path fill="#F0EFF3" d="M538.1576 333.975c-6.44526-5.27053-8.67432-11.67696-6.26972-19.29348 2.1491-6.80753 7.08587-10.7091 14.1474-11.57932 7.16315-.88275 13.927 3.1539 16.91632 9.7543 3.02618 6.68186 1.45868 14.75895-3.81836 19.67457-5.69598 5.30597-12.9018 5.8783-20.97565 1.44394m14.41388-23.18845c-7.14886-2.49554-12.90619.01776-14.65686 6.39816-1.64416 5.99256 2.10297 12.03006 8.17297 13.16852 4.20246.78815 8.75532-1.55637 10.76032-5.54108 2.39813-4.76605 1.22375-9.21362-4.27643-14.0256z"/><path fill="#F1F0F4" d="M321.55328 323.98724c-.00018 4.4604-.00018 8.42518-.00018 12.61786h-6.56607c0-4.02276-.00055-8.1156.0001-12.20843.00118-7.9911-.14439-15.98569.04339-23.97238.2167-9.21744 6.8615-15.72675 16.49096-16.20801 0 1.9119 0 3.8131-.00213 5.71686-8.50253 3.32418-10.2587 5.66784-9.45166 13.05392 1.59894 0 3.24179-.00003 4.88464-.00003 1.45969 0 2.91937.00003 4.63529.00003v6.72595h-10.03418c0 4.9292 0 9.35395-.00016 14.27423z"/><path fill="#F2F1F4" d="M705.53595 293.63089c1.98608-.86435 3.91223-1.30005 6.33685-1.84851v11.15213h9.93445v7.02246h-9.20477c-2.12995 13.24939-.10382 17.83002 9.2779 20.91287v5.98255c-6.5904-.16803-12.0033-2.96668-14.21058-8.8899-2.0207-5.42248-2.13428-11.55563-3.1507-17.75674-1.29406-.09491-3.07428-.22543-5.18902-.3805v-6.4609c1.86182-.13312 3.63312-.25977 6.14593-.43942 0-3.00748 0-5.93644.05994-9.29404zM473.07932 310.0097c-2.68223-.20724-4.39072-.02563-4.11557 3.01508.26904 2.97363-.5928 6.2634.40362 8.89969 1.08441 2.86914 3.27704 6.547 5.805 7.37585 4.62164 1.51523 4.37292 3.97898 3.68606 7.73542-6.66705-.5593-12.1676-3.27652-14.34274-9.30805-1.91806-5.3186-2.00171-11.29874-2.96769-17.44675-1.26748-.12759-3.1861-.32074-5.31695-.53521v-6.2168c1.90457-.22726 3.8095-.45456 6.12857-.7313v-10.2846h6.59836v10.67825h10.00186v6.8183c-1.84683 0-3.62888 0-5.88052.00012z"/><path fill="#EFEDF2" d="M509.17706 312.03473c-4.0342 5.01358-4.6137 9.36243-2.05685 13.50632 2.62369 4.25213 6.27103 5.15405 12.64786 4.3182 2.0094-.26336 4.2976 1.60102 7.01782 2.7222-8.20105 6.2248-17.43402 5.50122-23.3395-.97024-5.94111-6.5105-5.95826-16.64402-.03922-23.18067 5.87142-6.48407 14.99291-7.23556 22.40289-1.82144-1.78638 3.14572-3.81568 4.6041-7.95423 3.47845-2.46118-.66946-5.56854 1.03675-8.67877 1.94718z"/><path fill="#F6F6F7" d="M302.1405 284.01178c3.03052-.33377 4.36057.26846 4.33326 3.37427-.14307 16.28988-.0669 32.58166-.0669 49.24041h-6.40506c0-8.7178-.00006-17.47992 0-26.24203.00003-7.4831-.07962-14.96787.07529-22.44775.02725-1.31629 1.03683-2.61219 2.06341-3.9249zm474.2688 40.9779c.00018 4.13187.00018 7.76621.00018 11.78653-2.08978.09296-3.85913.1717-6.02264.26795v-52.82724h6.02228c0 13.49978 0 26.88751.00018 40.77276z"/><path fill="#F5F4F6" d="M693.38306 334.72565c-1.78125 1.21115-3.53919 1.95242-5.98658 2.98437v-34.40564h6.00983c0 10.43982 0 20.69562-.02325 31.42127zm-57.96814-22.69806c.00018 8.42297.00018 16.34826.00018 24.53216h-6.10199V303.2237h6.10168c0 2.80832 0 5.55725.00013 8.8039zm-143.99994-1.97754c.00015 9.08368.00015 17.6715.00015 26.5141h-6.10696v-33.3465h6.10665c0 2.17368 0 4.2551.00016 6.8324z"/><path fill="#FAF8FB" d="M442.75244 295.98862c-1.71414 1.53634-3.15005 2.87106-5.17062 4.74923-1.28473-1.16076-2.40582-2.17364-3.85822-3.48587 2.99622-2.70349 5.16266-4.6583 7.62528-6.8803 1.0773 1.90206 4.86728 2.39474 1.40356 5.61694z"/><path fill="#F0EFF3" d="M485.2619 296.38416c.77426-1.66807 1.47998-3.27616 2.70722-4.16056.39392-.28387 2.62866 1.1141 3.15158 2.1723.38254.77417-.5777 3.19599-1.07743 3.23786-1.51318.12692-3.09347-.54703-4.78137-1.2496zm146.68744 2.0317c-1.14416-1.42431-2.24988-2.7515-2.56103-4.24429-.10291-.49362 1.963-2.11615 2.8214-1.96835 1.1687.20123 3.15473 1.98 2.99226 2.42352-.52613 1.43588-1.87354 2.57086-3.25263 3.78912zm57.28278-6.21438c1.63214.85913 3.19238 1.65399 4.0216 2.92563.25696.39416-1.26904 2.54593-2.3598 3.02438-.78784.34552-3.1607-.73139-3.16748-1.198-.02234-1.53827.70966-3.08746 1.50568-4.75201z"/><path fill="#F0973F" d="M95.90027 271.8866c15.58751-13.65372 33.08687-17.67635 52.28723-10.86365 18.83032 6.68137 29.68278 20.63953 33.36385 40.21466.21469 1.14178.41041 2.30957.41204 3.46558.0257 18.15875.01802 36.3175.01802 54.88708h-19.67727v-9.81741c-14.98663 10.05337-30.50652 13.0871-47.10763 7.7835-11.49841-3.67343-20.58118-10.74938-27.14394-20.92163-13.2702-20.56878-10.17824-46.65444 7.8477-64.74813m5.88543 26.64831c-.35514 1.27664-.76289 2.54132-1.05727 3.83182-2.79408 12.24878 2.36556 25.28867 12.7676 32.31747 10.61576 7.17325 24.8186 7.1365 35.20925-.09106 10.43966-7.26166 15.46171-20.19342 12.57988-32.39322-3.09375-13.0969-13.81173-22.77869-26.701-24.11954-14.16287-1.47335-26.08652 5.74451-32.79846 20.45453z"/><path fill="#642488" d="M656.91553 310.76431c7.49359-2.4364 13.15332.29077 14.76208 6.77075 1.49524 6.0231-2.45282 11.88157-8.64996 12.83542-4.27167.6575-8.60248-1.76773-10.54175-5.90326-2.22577-4.74652-.84985-9.27667 4.42963-13.7029zm-41.02155 7.64331c-.21838 6.9909-2.85998 10.66962-8.15533 11.83695-4.47272.98599-9.01197-1.28382-11.14063-5.57071-2.13653-4.30255-1.07294-9.51193 2.59223-12.697 5.82257-5.0599 13.61767-2.23507 16.70373 6.43076zm-226.30792 7.89005c-3.62897-7.32013-1.70963-13.67713 4.54459-16.12714 5.31912-2.08368 11.35516.81409 13.2944 6.38233 1.58127 4.54034-.16043 9.67602-4.17545 12.31207-4.39483 2.88538-8.7395 2.14862-13.66354-2.56726z"/><path fill="#642589" d="M431.7143 311.5957c7.56954-3.69717 12.84262-1.90194 15.33904 5.20108h-19.24441c1.41122-1.93771 2.5127-3.45013 3.90536-5.20108z"/><path fill="#642488" d="M752.72241 313.44098c3.10474 4.70618 3.13459 9.13696-.1668 13.2398-2.57984 3.20618-6.05518 4.57853-10.22187 3.45603-4.51654-1.2167-7.07843-4.28256-7.69428-8.80124-.62207-4.56534 1.20057-8.2432 5.22516-10.45291 4.68592-2.57275 8.96546-1.57535 12.8578 2.55832zm-407.94092 4.33127c2.66785-6.6399 6.8039-9.20304 12.2561-7.91434 4.89188 1.15625 8.2007 5.596 7.94749 10.664-.25208 5.04566-3.96387 9.09094-8.95581 9.89978-6.2789 1.01743-12.9105-5.3254-11.24778-12.64944zm-80.64184-1.44821c3.69565-6.07142 7.777-7.95884 12.86902-6.25913 4.45453 1.48697 7.42047 6.15991 6.95038 10.95065-.4744 4.83527-4.11442 8.6766-8.92746 9.39176-7.44474 1.1062-13.62201-6.84635-10.89194-14.08328zm288.76385-5.36481c5.16815 4.63931 6.34253 9.08688 3.9444 13.85293-2.005 3.98471-6.55786 6.32923-10.76031 5.54108-6.07001-1.13846-9.81714-7.17596-8.17298-13.16852 1.75067-6.3804 7.508-8.8937 14.9889-6.2255z"/><path fill="#FFFEFE" d="M101.9061 298.1619c6.59154-14.33701 18.51519-21.55487 32.67805-20.08152 12.88928 1.34085 23.60726 11.02265 26.701 24.11954 2.88184 12.1998-2.1402 25.13156-12.57987 32.39322-10.39064 7.22757-24.59349 7.26431-35.20925.09106-10.40204-7.0288-15.56168-20.0687-12.7676-32.31747.29438-1.2905.70213-2.55518 1.17767-4.20483z"/></svg>