<svg xmlns="http://www.w3.org/2000/svg" role="img" viewBox="-5.80 -5.80 301.34 44.34"><title>Anlogic logo</title><path fill="#1C2C4E" d="M68.3753 12.5685v2.2929H53.7549v-2.2929h5.5487V.95898h2.4954v4.32455h5.4606v2.29288H61.799v4.99209h6.5763zm4.9323-3.80234c-.5284-.55145-1.7027-1.30607-2.5835-1.79948l1.2624-1.53826c.8808.40633 2.0845 1.1029 2.6716 1.62533l-1.3505 1.71241zm-2.1725 5.42744c.6459-1.219 1.5267-3.1636 2.2019-5.02111l1.7615 1.24801c-.5872 1.6834-1.2918 3.4248-1.967 4.9921l-1.9964-1.219zm3.2882-9.81004c-.5872-.52243-1.8496-1.30607-2.7597-1.8285L72.926 1.0168c.9101.43536 2.1725 1.13193 2.8477 1.65436l-1.3504 1.7124zm10.1285 5.71774c-.0293.4643-.0587.8707-.1174 1.248h.9101v1.9155h-1.145c-.1174.6966-.2936 1.132-.4697 1.3642-.3817.5514-.822.7256-1.3798.8417-.4991.087-1.2331.087-1.9964.058-.0294-.5224-.2642-1.3351-.5578-1.8575.6459.058 1.1743.058 1.4973.058.2642 0 .3816-.058.5578-.2612.0587-.058.088-.1161.1174-.2322h-6.312c.1761-.8997.3523-2.0026.5284-3.1636h-1.3798V8.01154h1.6441c.088-.6095.1468-1.18998.2055-1.77045-.0881.11609-.1468.23219-.2349.31926-.4404-.34829-1.4385-.95779-1.967-1.24803 1.0275-1.1029 1.9377-2.87335 2.4661-4.58576l2.2312.55145c-.0881.31927-.2348.6095-.3229.92877h6.4588v2.03166h-7.3689c-.1175.26122-.2643.52243-.4404.75462h7.3102s-.0294.63853-.0294.89974c-.0293.75462-.0587 1.45119-.088 2.08972h1.0862v2.06068h-1.2037v.0581zm-6.3707 1.219h1.6734c-.3229-.3193-.7046-.6386-1.0275-.8998l.5284-.3192h-1.0275l-.1468 1.219zm.411-3.27974h1.4386c-.2643-.26121-.5285-.55145-.7927-.78364l.4697-.29024h-.9982l-.1174 1.07388zM82.35 11.3203c.0587-.3483.088-.7547.1174-1.2481h-1.8789c.411.3483.8514.6966 1.0862.9868l-.3523.2613H82.35zm-1.4679-4.35362c.3522.31926.6752.63853.8807.87072l-.2936.20316h1.1156l.0587-1.07388h-1.7614zm19.6989 8.82322c-1.0861-.7256-2.7301-1.5673-4.5797-2.409-1.7615 1.132-3.9634 1.8285-6.5469 2.2929-.2348-.5514-.9101-1.5963-1.3211-2.1187 2.0551-.2322 3.8166-.6385 5.2551-1.2771-1.2037-.4934-2.4367-.9287-3.523-1.306l.0294-.0291c.4404-.5514.9101-1.24798 1.3505-1.97358h-3.0826V6.82156h4.3156c.3817-.72559.7046-1.48021.9688-2.17678l2.6129.52242c-.2349.55146-.4697 1.10291-.7339 1.65436h7.0459v2.14776h-2.6716c-.4697 1.07388-1.0569 1.94458-1.7321 2.72828 1.7321.7256 3.3467 1.4802 4.4917 2.1477l-1.879 1.9446zm-9.8055-9.69393h-2.3486V2.40994h5.3725c-.1468-.37731-.3523-.81266-.4991-1.13193l2.4368-.55145c.2642.52243.6165 1.16095.8514 1.71241h5.5785v3.657h-2.4666V4.49966h-8.8955v1.59631h-.0294zm3.4056 2.87335c-.2349.34829-.4404.7256-.6459 1.04488.7046.2322 1.4385.4934 2.1431.7546.5285-.5224.9689-1.1029 1.3212-1.8285h-2.8184v.02902zm25.0429-6.23984c-.47 1.65436-1.175 3.0475-2.114 4.23747.88.6095 1.879 1.13193 3.082 1.45119-.352.34829-.88 1.01584-1.203 1.53827V15.587h-2.202v-.4934h-2.437v.4934h-2.114v-5.0501l-.029.029c-.176-.3483-.47-.78364-.793-1.16095v.92875h-1.585v1.6834c.587-.1161 1.174-.2612 1.732-.3773l.235 2.0026c-2.29.5515-4.756 1.1029-6.635 1.5383l-.382-2.1768.646-.1161V7.66353h1.85v4.87597l.528-.1161V6.73476h-2.202V1.33634h5.666v3.71504c1.087-1.07388 2.026-2.64116 2.496-4.29552l2.172.52243c-.088.29024-.205.6095-.323.89974h1.733l.381-.08708 1.498.63853zm-11.656 2.08971h1.586V3.25191h-1.586v1.56728zm3.846 3.86017c.998-.40633 1.909-.98681 2.731-1.68338-.265-.31926-.5-.63853-.705-.95779-.206.26122-.44.52243-.646.7256-.323-.34829-1.027-.92876-1.527-1.30607v1.30607h-1.438V8.3601h1.585v.31926zm5.989 1.04486c-.646-.34829-1.233-.75462-1.761-1.219-.529.43535-1.086.84169-1.703 1.219h3.464zm-.616 3.45388v-1.5673h-2.437v1.5382h2.437v.0291zm-2.055-9.05548l-.118.17414c.265.40634.558.81267.91 1.219.323-.46438.617-.89973.881-1.42216h-1.673v.02902zm12.418-2.67046c-.293.84169-.675 1.7124-1.086 2.55409V15.6738h-2.084V7.54716c-.323.43535-.646.84169-.969 1.219-.176-.52243-.764-1.71241-1.145-2.26386 1.291-1.36412 2.525-3.5409 3.229-5.68867l2.055.63853zm9.747 1.68338v1.8285h-10.334v-1.8285h4.404c-.235-.55145-.587-1.18998-.881-1.68338l1.938-.7256c.44.66755.91 1.53826 1.145 2.11874l-.734.31926h4.462v-.02902zm-9.512 7.11086h8.631v5.3113h-2.025v-.3483h-4.668v.4064h-1.938v-5.3694zm8.397-2.93143h-8.133V5.57354h8.133v1.74143zm-8.133.55145h8.133v1.74143h-8.133V7.86642zm1.674 4.17938V13.41h4.668v-1.3642h-4.668zm9.688 1.7994c.529-.8997 1.116-2.2058 1.468-3.3377l2.055.8417c-.381 1.1029-.881 2.5541-1.35 3.5118l-2.173-1.0158zm7.076-3.86016h-4.668V2.11959h3.64c.147-.4934.264-1.07388.323-1.50924l2.848.31926c-.235.46438-.441.84169-.676 1.219h4.14v7.86549h-4.257c.587.6095 1.145 1.3351 1.409 1.8865l-1.879 1.0739c-.293-.6966-1.057-1.7414-1.761-2.467l.881-.52246zm5.724 4.61476c-.117-.4934-.352-1.1609-.645-1.8285-.294 2.1188-.94 2.6412-2.819 2.6412h-2.671c-2.467 0-3.083-.6385-3.083-2.5541v-1.9446h2.319v1.9156c0 .4934.147.5224 1.028.5224h2.231c.705 0 .851-.2032.939-1.6253.441.3192 1.292.6095 1.909.7546-.235-.4934-.499-1.0158-.764-1.4512l2.055-.8417c.705 1.0739 1.468 2.467 1.703 3.4538l-2.202.9578zM143.65 4.26735h5.695V3.832h-5.695v.43535zm0 2.00265h5.695v-.43536h-5.695V6.27zm0 2.00264h5.695v-.43536h-5.695v.43536zm17.702 2.87376c-.146-.3483-.381-.8417-.675-1.30609v5.80479h-2.231v-4.818c-.44.9578-.881 1.8285-1.38 2.467-.205-.6675-.704-1.6253-1.057-2.2058.822-.9577 1.586-2.43796 2.143-3.80208h-1.937V5.16748h2.26V3.71629c-.528.08707-1.057.14512-1.556.20316-.088-.4934-.352-1.27704-.616-1.74142 1.82-.26122 3.758-.75462 5.138-1.30608l1.262 1.85753c-.646.23219-1.321.40633-2.026.55145v1.88655h1.938v2.11874h-1.938v.05804c.441.34829 1.674 1.71241 1.967 2.03167l-1.292 1.77047zm8.162.6095v3.8892h-2.261v-3.4829l-4.579.8417-.353-2.1768 4.932-.87069V.75586h2.261v8.79421l1.439-.26121.352 2.14774-1.791.3193zm-5.402-6.00795c.852.66755 1.967 1.62534 2.496 2.32191l-1.586 1.45119c-.47-.69657-1.526-1.74143-2.378-2.46702l1.468-1.30608zm1.351-.37731c-.411-.69657-1.439-1.74142-2.261-2.46702l1.497-1.27705c.822.66755 1.909 1.62534 2.378 2.32191l-1.614 1.42216zm13.534 4.09264c-.529.14511-1.057.26121-1.585.40633v3.33769c0 1.0449-.177 1.5673-.764 1.9156-.587.3483-1.438.4064-2.554.4064-.088-.5805-.352-1.4803-.646-2.0607.558.029 1.204.029 1.409.029.235 0 .294-.0871.294-.2903v-2.7862l-1.351.3192-.557-2.17676c.557-.08707 1.203-.23219 1.908-.37731V5.77725h-1.703V3.68754h1.703V.78516h2.261V3.6585h1.467v2.08972h-1.467V7.6638l1.321-.29024.264 2.08972zm9.013-2.37996c-.558 2.20581-1.527 3.91818-2.819 5.25328.969.5805 2.114 1.0739 3.435 1.3642-.499.4643-1.145 1.3641-1.468 1.9445-1.497-.4353-2.73-1.0448-3.816-1.8285-1.145.7547-2.496 1.3351-3.963 1.7415-.235-.6095-.793-1.5673-1.233-2.0607 1.321-.2903 2.495-.7256 3.493-1.3061-.822-.9578-1.497-2.0897-2.055-3.39577l.734-.20317h-1.028V6.53187h2.966V4.90654h-3.23V2.90389h3.23V.78516h2.29v2.11873h3.435v2.08972h-3.435v1.62533h1.556l.381-.08707 1.527.55145zm-6.165 1.56729c.411.84169.939 1.62529 1.585 2.29289.705-.6676 1.262-1.42218 1.673-2.29289h-3.258zm23.016-.66752c-.469 2.00265-1.262 3.51191-2.348 4.67281.91.4644 1.937.7837 3.082 1.0159-.469.4643-1.057 1.4221-1.321 2.0026-1.35-.3483-2.525-.8707-3.552-1.5383-1.028.6386-2.173 1.1029-3.464 1.4512-.177-.4934-.529-1.219-.852-1.7414-.058.6095-.235 1.0158-.616 1.2771-.499.3482-1.145.4353-2.055.4353-.059-.5805-.294-1.5673-.529-2.1187.352.029.793.029.94.029.146 0 .205-.0581.205-.2322v-2.6702h-1.321c-.117 1.8285-.352 3.7441-.851 5.1372-.411-.3192-1.351-.8417-1.85-1.0158.734-2.1478.763-5.31136.763-7.60424V1.30762h5.314v4.38259c1.38-.75462 1.527-1.74143 1.527-2.67019V1.33664h5.725v3.30872c0 .46438.029.66754.176.66754h.44c.235 0 .587-.05804.793-.11609.029.55145.088 1.33509.147 1.85752-.265.1161-.617.14512-.94.14512h-.675c-1.703 0-2.026-.78364-2.026-2.55409V3.45538H199.9c-.059 1.50924-.558 3.13457-2.437 4.09236-.205-.34829-.704-.92877-1.086-1.3351v7.34306c.939-.1742 1.82-.4934 2.583-.8707-.704-.7547-1.291-1.6254-1.79-2.6412l1.115-.37733h-1.526V7.54774h6.4l.352-.08707 1.35.52242zm-10.51.43536V6.88019h-1.233v.14512c0 .43536 0 .89974-.029 1.36412h1.262v.02902zm-1.204-5.05014v1.48021h1.234V3.36831h-1.234zm6.019 6.26914c.382.69655.91 1.30605 1.527 1.85755.557-.5225 1.027-1.132 1.379-1.85755h-2.906zm13.651-8.1274c-.381 1.04486-.88 2.11874-1.438 3.13457V15.6156h-2.29V8.12748c-.235.29024-.47.55145-.675.78364-.206-.55145-.822-1.8285-1.204-2.40898 1.35-1.36411 2.672-3.51188 3.435-5.68866l2.172.69657zm6.812-.40634c.616 2.75727 1.467 4.23748 3.229 5.45648-.558.49341-1.233 1.24803-1.527 1.9446-.146-.1161-.293-.23219-.411-.34829-.147 4.2375-.323 5.9209-.792 6.5304-.382.5224-.822.6965-1.351.8126-.47.0871-1.174.0871-1.967.0871-.029-.6385-.293-1.5092-.646-2.0897.587.058 1.116.058 1.409.058.235 0 .382-.058.529-.2322.235-.3192.382-1.5382.499-4.5567h-1.644c-.382 3.4248-1.468 5.6306-3.934 6.9947-.264-.4353-1.057-1.306-1.527-1.6833 2.085-.9578 2.965-2.6993 3.171-5.28237h-1.086v-.95779c-.294.31926-.558.6095-.881.84169-.235-.52243-.91-1.62533-1.321-2.08971 1.526-1.16096 2.583-3.13458 3.112-5.36941l2.26.4934c-.499 1.79948-1.233 3.51189-2.172 4.93405h4.991c-.969-1.33509-1.556-2.9314-1.997-5.16624l2.056-.37731zm11.185 3.62841c-.147.31926-.323.6095-.47.89974h7.193v7.66224c0 1.0449-.176 1.6544-.91 2.0027-.705.3483-1.615.3773-2.877.3773-.088-.6385-.382-1.5963-.675-2.2058.675.058 1.585.058 1.849.058s.352-.087.352-.2902v-.5515h-5.255v2.9314h-2.29V9.17276c-.528.55146-1.115 1.07384-1.761 1.50924-.352-.4934-1.086-1.33509-1.527-1.74143 1.586-1.01583 2.819-2.52507 3.729-4.20845h-3.2V2.58436h4.169c.235-.6095.411-1.24802.557-1.8285l2.378.52243c-.146.43536-.293.87071-.44 1.30607h7.633V4.7031h-8.455v.02902zm4.462 2.87336h-5.255v.66755h5.255v-.66755zm0 3.22162v-.6675h-5.255v.6675h5.255zm12.713-8.70736c-.382 1.33509-.852 2.9314-1.263 4.12138.852 1.219 1.028 2.29288 1.028 3.19262 0 1.10286-.235 1.79946-.763 2.20576-.265.2032-.588.3193-.94.3774-.264.058-.646.058-1.027.058 0-.5514-.177-1.3931-.47-1.9446.235.029.381.029.558.029.146 0 .293-.029.381-.1161.147-.11606.235-.43532.235-.87067 0-.69658-.147-1.68339-.91-2.69922.235-.87071.528-2.08971.734-3.10555h-1.145V15.5578h-1.996V1.33609h3.757l.323-.08707 1.498.87072zm8.514 8.21376c-.646.4934-1.351 1.0158-1.938 1.4221.616.8127 1.35 1.4512 2.29 1.8866-.499.4354-1.204 1.3351-1.527 1.9446-1.292-.7546-2.231-1.8285-2.906-3.1926-.03.6385.029 1.5382.088 2.0607-3.024.7256-3.699.9577-4.11 1.248-.147-.4934-.646-1.3641-.969-1.7414.382-.2322.822-.7256.822-1.5093V1.36512h7.339v7.40107h-.528l1.439 1.56731zm-6.019-7.02379v.8417h2.848v-.8417h-2.848zm0 3.54091h2.848v-.87071h-2.848v.87071zm1.908 5.57258c-.528-1.0739-.939-2.2929-1.262-3.62798h-.617v4.00528l1.879-.3773zm.705-3.65701c.147.46438.294.89974.499 1.33511.499-.43537 1.028-.92877 1.38-1.33511h-1.879zm12.33-6.99454c-1.027 2.5541-2.73 5.05014-4.345 6.58841-.47-.46439-1.556-1.27705-2.172-1.65436 1.673-1.27705 3.17-3.45383 3.963-5.65964l2.554.72559zm4.463 7.22693c1.291 1.74142 2.73 4.00532 3.493 5.48552l-2.319 1.248c-.235-.5224-.558-1.1609-.94-1.8285-7.339.6966-8.543.7546-9.423 1.1029-.118-.4934-.558-1.7414-.881-2.409.558-.1451.91-.4934 1.526-1.1899.676-.6966 2.584-3.39583 3.729-6.037l2.583 1.07388c-1.086 2.06069-2.495 4.03432-3.904 5.65962l5.079-.3483c-.382-.6385-.793-1.248-1.145-1.79944l2.202-.95778zm-.294-8.0396c.91 1.8285 2.73 4.03431 4.286 5.42746-.616.46438-1.468 1.33509-1.908 1.94459-1.585-1.7124-3.435-4.17943-4.639-6.47231l2.261-.89974zM290 12.9168c0 1.219-.205 1.8865-.939 2.2929-.734.3773-1.732.4643-3.2.4353-.059-.6675-.411-1.8285-.734-2.467.793.058 1.82.058 2.114.058.293 0 .381-.087.381-.3482V3.83233h-10.921V1.68457H290V12.9168zm-3.845-6.26916h-9.278V4.67402h9.278v1.97362zm-6.313 6.35626v1.1319h-2.26V7.48933h7.897v5.48547h-5.637v.0291zm0-3.56997v1.62537h3.377V9.43393h-3.377zM55.4282 29.7501l1.0276-1.248c.5578.4644 1.2624.7836 1.8495.7836.6753 0 .9982-.2612.9982-.6675 0-.4354-.411-.5805-1.0863-.8417l-.9688-.4063c-.7926-.3193-1.556-.9868-1.556-2.0607 0-1.2771 1.145-2.2929 2.7597-2.2929.8808 0 1.8202.3483 2.4661.9868l-.9101 1.1319c-.4991-.3773-.9688-.5804-1.556-.5804-.5578 0-.9101.2322-.9101.6385s.4697.5805 1.145.8417l.9394.3773c.9395.3773 1.4973 1.0158 1.4973 2.0607 0 1.248-1.0569 2.3509-2.9065 2.3509-.9101 0-1.9963-.3483-2.789-1.0739zm7.8682-6.589h1.8202v2.8734h2.5248v-2.8734h1.8202v7.5462h-1.8202v-3.1055h-2.5248v3.1055h-1.8202v-7.5462zm12.3303 5.8048h-2.2312l-.4404 1.7414h-1.8789l2.378-7.5462h2.2019l2.378 7.5462h-1.9377l-.4697-1.7414zm-.3229-1.3931l-.1762-.6386c-.2055-.7546-.411-1.6543-.6165-2.4089h-.0294c-.1761.7836-.3816 1.6833-.5871 2.4089l-.1762.6386h1.5854zm4.3153-4.4117h1.879l1.9082 3.599.734 1.6834h.0587c-.0881-.8127-.2349-1.8866-.2349-2.7863v-2.4961h1.7322v7.5462h-1.8789l-1.879-3.628-.7339-1.6543h-.0587c.088.8417.2348 1.8865.2348 2.7863v2.496h-1.7321v-7.5462h-.0294zm8.3086 3.8027c0-2.525 1.7028-3.9472 3.7579-3.9472 1.1156 0 1.9083.4644 2.4367.9868l-.9688 1.161c-.3817-.3483-.7633-.5805-1.4092-.5805-1.1156 0-1.9376.8707-1.9376 2.3509 0 1.5093.6752 2.38 2.0844 2.38.2642 0 .5578-.0581.7339-.2032v-1.248h-1.2036v-1.4802h2.8477v3.5118c-.5284.4934-1.4679.9288-2.5542.9288-2.1137 0-3.7872-1.3061-3.7872-3.8602zm8.69-3.8027h1.8202v2.8734h2.5251v-2.8734h1.82v7.5462h-1.82v-3.1055h-2.5251v3.1055h-1.8202v-7.5462zm12.3303 5.8048h-2.261l-.44 1.7414h-1.879l2.378-7.5462h2.202l2.378 7.5462h-1.938l-.44-1.7414zm-.323-1.3931l-.176-.6386c-.206-.7546-.411-1.6543-.617-2.4089h-.029c-.176.7836-.382 1.6833-.587 2.4089l-.176.6386h1.585zm4.316-4.4117h1.82v7.5462h-1.82v-7.5462zm11.185 5.8048h-2.26l-.441 1.7414h-1.879l2.378-7.5462h2.202l2.378 7.5462h-1.937l-.441-1.7414zm-.352-1.3931l-.176-.6386c-.206-.7546-.411-1.6543-.617-2.4089h-.029c-.176.7836-.382 1.6833-.587 2.4089l-.176.6386h1.585zm4.345-4.4117h1.879l1.908 3.599.734 1.6834h.059c-.088-.8127-.235-1.8866-.235-2.7863v-2.4961h1.732v7.5462h-1.879l-1.879-3.628-.734-1.6543h-.058c.088.8417.235 1.8865.235 2.7863v2.496h-1.732v-7.5462h-.03zm8.631 0h1.821v6.008h2.965v1.5092h-4.786v-7.5172zm6.166 3.7157c0-2.4671 1.409-3.8602 3.493-3.8602 2.085 0 3.494 1.4222 3.494 3.8602 0 2.467-1.409 3.9472-3.494 3.9472-2.084 0-3.493-1.4512-3.493-3.9472zm5.108 0c0-1.4512-.617-2.3219-1.644-2.3219-.998 0-1.615.8707-1.615 2.3219 0 1.4802.617 2.3799 1.615 2.3799 1.027.029 1.644-.8997 1.644-2.3799zm3.758.087c0-2.525 1.703-3.9472 3.758-3.9472 1.115 0 1.908.4644 2.436.9868l-.968 1.161c-.382-.3483-.764-.5805-1.41-.5805-1.115 0-1.937.8707-1.937 2.3509 0 1.5093.675 2.38 2.084 2.38.264 0 .558-.0581.734-.2032v-1.248h-1.204v-1.4802h2.848v3.5118c-.528.4934-1.468.9288-2.554.9288-2.114 0-3.787-1.3061-3.787-3.8602zm8.69-3.8027h1.82v7.5462h-1.82v-7.5462zm4.051 3.8027c0-2.525 1.703-3.9472 3.641-3.9472.998 0 1.791.4644 2.319.9868l-.969 1.161c-.381-.3483-.792-.5805-1.321-.5805-.998 0-1.791.8707-1.791 2.3509 0 1.5093.705 2.38 1.762 2.38.616 0 1.086-.2903 1.468-.6966l.969 1.1319c-.646.7256-1.498 1.1029-2.496 1.1029-1.938-.029-3.582-1.3351-3.582-3.8892zm11.185-3.8027h1.821v7.5462h-1.821v-7.5462zm4.404 0h1.879l1.909 3.599.733 1.6834h.059c-.088-.8127-.235-1.8866-.235-2.7863v-2.4961h1.732v7.5462h-1.878l-1.879-3.628-.734-1.6543h-.059c.088.8417.235 1.8865.235 2.7863v2.496h-1.732v-7.5462h-.03zm8.632 0h4.873v1.5093h-3.024v1.6543h2.613v1.5093h-2.613v2.8733h-1.82v-7.5462h-.029zm6.547 3.7157c0-2.4671 1.409-3.8602 3.493-3.8602 2.085 0 3.494 1.4222 3.494 3.8602 0 2.467-1.409 3.9472-3.494 3.9472-2.084 0-3.493-1.4512-3.493-3.9472zm5.137 0c0-1.4512-.616-2.3219-1.644-2.3219-.998 0-1.615.8707-1.615 2.3219 0 1.4802.617 2.3799 1.615 2.3799.998.029 1.644-.8997 1.644-2.3799zm5.226-2.2064h-2.055v-1.5093h5.96v1.5093h-2.085v6.0369h-1.82v-6.0369zm5.901-1.5093h4.844v1.5093h-2.994v1.3931h2.554v1.5092h-2.554v1.5964h3.112v1.5092h-4.962v-7.5172zm6.928 3.8027c0-2.525 1.703-3.9472 3.641-3.9472.998 0 1.791.4644 2.319.9868l-.969 1.161c-.381-.3483-.792-.5805-1.321-.5805-.998 0-1.791.8707-1.791 2.3509 0 1.5093.705 2.38 1.762 2.38.616 0 1.086-.2903 1.468-.6966l.969 1.1319c-.646.7256-1.498 1.1029-2.496 1.1029-1.938-.029-3.582-1.3351-3.582-3.8892zm8.016-3.8027h1.82v2.8734h2.525v-2.8734h1.82v7.5462h-1.82v-3.1055h-2.525v3.1055h-1.82v-7.5462zm11.566 3.8027c0-2.525 1.703-3.9472 3.641-3.9472.998 0 1.791.4644 2.319.9868l-.969 1.161c-.381-.3483-.792-.5805-1.321-.5805-.998 0-1.791.8707-1.791 2.3509 0 1.5093.705 2.38 1.762 2.38.616 0 1.086-.2903 1.468-.6966l.969 1.1319c-.646.7256-1.498 1.1029-2.496 1.1029-1.938-.029-3.582-1.3351-3.582-3.8892zm7.223-.087c0-2.4671 1.409-3.8602 3.493-3.8602 2.085 0 3.494 1.4222 3.494 3.8602 0 2.467-1.409 3.9472-3.494 3.9472-2.084 0-3.493-1.4512-3.493-3.9472zm5.108 0c0-1.4512-.617-2.3219-1.644-2.3219-.998 0-1.615.8707-1.615 2.3219 0 1.4802.617 2.3799 1.615 2.3799 1.027.029 1.644-.8997 1.644-2.3799zm3.934 2.8443c0-.6095.44-1.1029 1.086-1.1029.617 0 1.087.4934 1.087 1.1029 0 .6385-.47 1.1319-1.087 1.1319-.616-.029-1.086-.5224-1.086-1.1319zm5.519.8994c-.557 0-1.086-.3773-1.086-1.0158 0-.6095.499-1.0158 1.145-1.0158.793 0 1.233.6385 1.233 1.6833 0 1.3061-.763 2.2929-2.172 2.7283l-.382-.9578c.881-.2902 1.35-.8417 1.35-1.4222h-.088zm6.665-7.4594h1.82v6.008h2.965v1.5092h-4.785v-7.5172zm7.016 1.5093h-2.055v-1.5093h5.96v1.5093h-2.085v6.0369h-1.82v-6.0369zm5.901-1.5093h2.202c2.319 0 3.875 1.1029 3.875 3.7151 0 2.6121-1.526 3.8021-3.758 3.8021h-2.289v-7.5172h-.03zm2.085 6.066c1.233 0 2.113-.5514 2.113-2.3509s-.88-2.2929-2.113-2.2929h-.265v4.6438h.265zm6.047.494c0-.6095.441-1.1029 1.087-1.1029.616 0 1.086.4934 1.086 1.1029 0 .6385-.47 1.1319-1.086 1.1319-.646-.029-1.087-.5224-1.087-1.1319zM0 30.3879h20.0223l-3.0239-5.6886H9.74691l5.48999-11.0001 9.0423 16.6887h6.8111L15.413 0 0 30.3879z"/><path fill="#ED1B23" d="M47.7658 0H17.0571l.8808 1.77045H46.885L47.7658 0zm-2.7302 5.36909l.9101-1.77046H18.8481l.8808 1.77046h25.3067zM20.6387 7.16895l.8807 1.77045h21.6957l.9101-1.77045H20.6387zm2.6717 5.33975h18.0847l.9101-1.7704H22.4297l.8807 1.7704zm1.791 3.5713H39.575l.9101-1.7704H24.2207l.8807 1.7704zm1.7906 3.5694h10.8625l.8807-1.7705h-12.624l.8808 1.7705zm1.791 3.5693h7.2221l.9101-1.7705h-9.013l.8808 1.7705zm1.7906 3.5996h3.611l.9101-1.7704h-5.4312l.9101 1.7704zm1.791 3.5693l.9101-1.7704h-1.8202l.9101 1.7704z"/></svg>