<svg xmlns="http://www.w3.org/2000/svg" role="img" viewBox="-5.94 -3.69 308.62 226.12"><title>anttec (member) logo</title><path d="M238.4 3.6c-.4 1-1.3 3.4-2 5.3-.8 1.8-1.4 5.5-1.4 8.1v4.7l-9.2 4.1c-5.1 2.2-10.5 4.4-12 4.7-5.6 1.4-1.4 2.5 9.8 2.5H235v3.2c0 3.2-.4 3.5-9.5 7.5-5.2 2.4-11.5 4.8-14 5.5-2.5.7-4.5 1.6-4.5 2 0 .4 6.2.9 13.8 1l13.7.3.3 3.8c.3 2.9-.1 3.9-1.5 4.3-1 .4-5.6 2.3-10.3 4.4-4.7 2.1-10.2 4.3-12.2 5-6.9 2.1-4 3 10.2 3h14v5.3c0 4.1-1.9 10.3-8.6 28.7-12.7 34.6-15.5 42.4-15.7 43.5-.1.6 9.9 1.2 27.8 1.5l28 .5.2 2.5c.3 2.1-.5 2.9-3.9 4.5-7.7 3.6-11.3 12-10.6 24 1.1 16.4 11.7 25.2 27.8 23 6.6-.9 10.9-4 14.2-10 1.5-2.8 2.8-5.2 2.8-5.6 0-.6-8.9-3.9-10.7-3.9-.6 0-2 1.7-3 3.7-3.6 6.9-12.9 6.8-15.8-.2-2.9-6.9-.9-21.5 3-21.5.8 0 2.7 4 4.5 9.5 1.7 5.2 3.6 9.7 4.1 10 1.4.9 1.1-.5-2.1-10.1-3.8-11.4-3.8-11.8.3-11 2.9.5 6 3 6.9 5.5.3.9 10.1-.8 11.2-2 .4-.3 0-2.2-.9-4.1-2.9-7.1-10.9-11.2-20.3-10.7l-4.7.3-3.7-10.9c-2-6.1-7.7-22.7-12.5-37-7.4-21.6-8.8-26.8-8.5-30.8l.4-4.7h12.5c8.2 0 12.3-.4 12.1-1-.2-.6-4-2.4-8.5-4-9.2-3.2-16-6.7-16.7-8.6-.3-.7-.1-2.5.3-4.1l.7-2.8 12.2-.3c6.7-.1 12.2-.6 12.2-1 0-.5-3.3-1.9-7.2-3.1-8.3-2.7-15.9-6.3-17.4-8.3-.6-.7-1-2.4-1-3.8.1-2.5.2-2.5 10.4-2.8 9.5-.2 12.9-1.4 8.5-2.8-7.9-2.6-17.5-6.9-18.1-8.3-.5-.9-.8-3-.7-4.6.2-3-3-13.2-4.6-14.9-.5-.6-1.1-.1-1.5 1zm4.2 75.4c.1 3 .9 7.5 1.8 9.9 2.6 6.9 2.4 7.1-4.9 7.1-3.6 0-6.5-.4-6.5-.9s.9-3 2-5.6c1.3-2.9 2-6.9 2-10.6 0-6 0-6 2.8-5.7 2.6.3 2.7.6 2.8 5.8zm4.6 37c3.4 4.4 6.5 8.5 6.6 9 .2.6-5.2 1-14.2 1-8.1 0-14.6-.4-14.6-.9 0-1 14.2-17 15.2-17 .3-.1 3.5 3.5 7 7.9zm-18.3 16.9l7.3 3.8-10.8 5.7c-5.9 3.1-10.9 5.4-11.1 5.2-.6-.6 5.8-18.6 6.6-18.6.3 0 3.9 1.7 8 3.9zm32.4 5.4c1.6 4.9 2.7 9 2.5 9.2-.6.6-21-9.9-21.2-10.8-.2-1 12.6-7.6 14.3-7.4.8.1 2.6 3.8 4.4 9zm-11.9 4.9c5.8 2.9 10.3 5.5 10 5.9-.6 1-41.4 1.1-41.4.1 0-.6 18.4-10.7 20.2-11.1.4 0 5.5 2.2 11.2 5.1zM30.5 88.1c-.9 1.4.1 10.8 2.1 21.4 3 14.9 11.2 34.7 19.8 47.4l3.6 5.3V206h13v-13c0-7.2.3-13 .8-13 .4 0 4.5 5.9 9.1 13l8.4 13h7.9c6.5 0 8.8.4 13.1 2.6 12.8 6.6 27.6 9.5 37.7 7.5 8.3-1.7 16.3-5.5 20-9.7 3.3-3.8 4-4.1 4-1.9 0 1.2 1.4 1.5 7 1.5h7v-36.9l7.3-.3 7.2-.3.3-5.8.3-5.7h-32l-3.2-6.3c-3.6-7.4-13-20.8-21.9-31.3-5-6-6-7.8-5.4-9.6.6-2.1.5-2.1-1-.9-1.5 1.3-2.5.7-8.9-5.5C112.4 89.5 110.4 88 106.3 88c-3.6.1-3.7.1-1.8 1.6 6.8 5.1 22.5 20.1 23.3 22.3.1.4-4.9 3.2-11.3 6.2-6.3 3-11.5 5.7-11.5 6 0 .4 3 1.2 6.7 1.9 5.4 1.1 7.4 2 10.8 5.1 2.3 2.2 4.6 3.9 5.1 3.9s2-3.4 3.4-7.6c1.3-4.1 2.8-7.8 3.2-8 1.6-1 24.8 33 24.8 36.3 0 .7-.9 1.3-2 1.3-1.9 0-2.1.5-1.8 5.7l.3 5.8 5.2.3c5.8.3 5.8.4 6.9 11.1 1.3 11.7-3.4 21.5-11.4 24.2-3.8 1.3-17.2 1.6-19.1.5-.7-.5-1.1-6.7-1.1-18.2V169h15v-12l-21.7.2-21.8.3v11l7.3.3 7.2.3V184c0 8.3-.4 15-.8 15s-5.3-3-10.7-6.8l-10-6.7-.1-13c-.1-7.2-.2-13.6-.3-14.3-.1-.9-1.8-1.2-6.3-1l-6.3.3-.5 8-.5 8-6.9-8C61.9 144.9 49.9 120 45.6 95l-1.2-7.5-6.6-.3c-4.2-.2-6.9.1-7.3.9zm-17.9 82.6c-2.7 7.6-6.6 18.2-8.7 23.7-2.2 5.4-3.9 10.2-3.9 10.7 0 .6 3.2.9 7.2.7l7.2-.3.9-3.8.9-3.7h17.4l1 3.7.9 3.8 7.3.3c4.1.2 7.2-.1 7.2-.7 0-.5-3.6-11-8-23.3-4.5-12.3-8.3-22.9-8.5-23.6-.3-.8-2.9-1.2-8.2-1.2h-7.8l-4.9 13.7z"/><path d="M206 181.5V206h39v-11h-25v-10h23v-4.5c0-2.5-.3-4.5-.7-4.5-.5-.1-5.5-.2-11.3-.3l-10.5-.2-.3-4.2-.3-4.2 12.3-.3 12.3-.3v-9l-19.2-.3-19.3-.2v24.5z"/></svg>