<svg xmlns="http://www.w3.org/2000/svg" role="img" xmlns:xlink="http://www.w3.org/1999/xlink" viewBox="33.41 236.91 732.68 325.68"><title>Apache logo</title><path fill="#DE0104" d="M209.797 441.928l42.955-102.687h8.244l42.955 102.687h-10.849l-13.305-32.107H233.66l-13.16 32.107h-10.703zm47.149-90.827l-21.116 50.765h41.653l-20.537-50.765zm58.095 90.827V339.241h42.521c17.645 0 30.371 16.343 30.371 32.252 0 16.777-11.858 32.542-29.504 32.542H325.02v37.893h-9.979zm9.979-46.86h32.831c12.148 0 19.958-11.137 19.958-23.575 0-12.872-9.545-23.284-20.826-23.284H325.02v46.859zm57.299 46.86l42.955-102.687h8.243l42.955 102.687h-10.848L452.32 409.82h-46.137l-13.162 32.107h-10.702zm47.15-90.827l-21.117 50.765h41.654l-20.537-50.765zm95.595-12.439c18.223 0 31.529 9.257 37.893 22.417l-8.1 4.918c-6.508-13.595-19.234-18.223-30.371-18.223-24.588 0-38.037 21.982-38.037 42.665 0 22.707 16.631 43.244 38.471 43.244 11.57 0 25.165-5.785 31.674-19.091l8.389 4.338c-6.652 15.331-24.876 23.865-40.641 23.865-28.202 0-48.017-26.901-48.017-52.935 0-24.73 17.789-51.198 48.739-51.198m135.025.579v102.687h-10.124v-48.017h-60.889v48.017h-9.978V339.241h9.978v45.703h60.889v-45.703zm92.185 93.72v8.967h-68.988V339.241h67.686v8.968h-57.706v37.024h50.33v8.534h-50.33v39.194z"/><defs><path id="a" d="M180.038 267.03c-.238.253-.478.513-.716.769.471-.521.716-.769.716-.769m-.823-15.772c-1.557.007-3.193.421-4.872 1.413-4.668 2.756-12.419 10.551-21.671 21.852l8.504 16.051c5.967-8.537 12.029-16.217 18.146-22.774-1.977 2.18-7.979 9.183-17.039 23.096 8.721-.433 22.124-2.219 33.057-4.087 3.254-18.218-3.188-26.556-3.188-26.556s-5.54-8.96-12.852-8.994h-.085z"/></defs><clipPath id="c"><use overflow="visible" xlink:href="#a"/></clipPath><linearGradient id="b" x1="-3159.034" x2="-3158.931" y1="1843.4" y2="1843.4" gradientTransform="scale(628.0676 -628.0676) rotate(15.537 5178.476 12500.61)" gradientUnits="userSpaceOnUse"><stop offset="0" stop-color="#fd8709"/><stop offset=".312" stop-color="#fe8809"/><stop offset=".838" stop-color="#f35806"/><stop offset="1" stop-color="#f35806"/></linearGradient><path fill="url(#b)" d="M142.442 254.101l52.858-14.695 13.523 48.644-52.856 14.695z" clip-path="url(#c)"/><defs><path id="d" d="M150.738 276.908c-2.451 3.055-4.998 6.341-7.609 9.827-2.943 3.929-5.971 8.12-9.043 12.524-2.838 4.068-5.712 8.323-8.595 12.735-2.453 3.754-4.91 7.613-7.354 11.575-.091.147-.181.297-.271.444l11.063 21.856c2.361-4.688 4.754-9.311 7.177-13.837 2.584-4.828 5.202-9.551 7.847-14.146 2.748-4.771 5.525-9.403 8.331-13.869.165-.264.329-.53.495-.792 2.774-4.393 5.574-8.618 8.396-12.653l-8.504-16.051c-.636.78-1.281 1.576-1.933 2.387"/></defs><clipPath id="f"><use overflow="visible" xlink:href="#d"/></clipPath><linearGradient id="e" x1="-3161.079" x2="-3160.977" y1="1845.133" y2="1845.133" gradientTransform="scale(2912.32 -2912.32) rotate(65 -132.247 3403.429)" gradientUnits="userSpaceOnUse"><stop offset="0" stop-color="#92014a"/><stop offset=".323" stop-color="#92014a"/><stop offset=".63" stop-color="#d00015"/><stop offset=".751" stop-color="#d50613"/><stop offset="1" stop-color="#f35806"/></linearGradient><path fill="url(#e)" d="M90.539 333.128l35.064-75.193 62.901 29.332-35.064 75.192z" clip-path="url(#f)"/><defs><path id="g" d="M95.486 451.924l-8.948.979c-.275.755-.551 1.506-.827 2.268-1.463 4.024-2.934 8.124-4.414 12.309-.021.061-.043.122-.064.184-.208.59-.417 1.184-.626 1.775-.995 2.824-1.855 5.361-3.837 11.14 3.26 1.488 5.876 5.4 8.353 9.84-.263-4.599-2.166-8.917-5.78-12.265 16.072.725 29.916-3.336 37.068-15.086.638-1.047 1.227-2.148 1.755-3.319-3.255 4.125-7.284 5.874-14.879 5.451-.017.007-.032.015-.049.021.017-.007.032-.015.049-.021 11.178-5.005 16.784-9.805 21.744-17.766 1.176-1.886 2.315-3.947 3.484-6.234-9.773 10.034-21.099 12.894-33.029 10.724"/></defs><clipPath id="i"><use overflow="visible" xlink:href="#g"/></clipPath><linearGradient id="h" x1="-3160.638" x2="-3160.536" y1="1844.694" y2="1844.694" gradientTransform="scale(1735.4597 -1735.4597) rotate(65 -132.261 3402.828)" gradientUnits="userSpaceOnUse"><stop offset="0" stop-color="#0a0344"/><stop offset=".096" stop-color="#4b067a"/><stop offset=".788" stop-color="#94014b"/><stop offset=".949" stop-color="#d5000f"/><stop offset="1" stop-color="#d5000f"/></linearGradient><path fill="url(#h)" d="M57.918 481.628l28.094-60.248 61.354 28.611-28.094 60.246z" clip-path="url(#i)"/><defs><path id="j" d="M117.325 324.903c-2.579 4.21-5.142 8.516-7.662 12.912-2.547 4.44-5.046 8.97-7.486 13.556-2.059 3.87-4.077 7.778-6.029 11.722-.396.799-.783 1.592-1.167 2.384-2.411 4.966-4.591 9.758-6.558 14.364-2.231 5.224-4.192 10.209-5.915 14.94-1.133 3.111-2.163 6.114-3.1 9.001-.775 2.467-1.512 4.931-2.213 7.392-1.65 5.795-3.077 11.571-4.244 17.327l11.108 21.945c1.469-3.925 2.976-7.906 4.524-11.938.431-1.12.868-2.249 1.305-3.375 1.934-4.995 3.925-10.053 5.971-15.151 1.959-4.884 3.968-9.802 6.022-14.737 2.057-4.938 4.158-9.892 6.304-14.842 2.186-5.039 4.413-10.071 6.684-15.076 2.246-4.951 4.53-9.876 6.853-14.75.838-1.759 1.681-3.51 2.528-5.255 1.465-3.017 2.945-6.008 4.438-8.974.08-.16.163-.316.243-.477l-11.063-21.856c-.181.298-.362.593-.543.888"/></defs><clipPath id="l"><use overflow="visible" xlink:href="#j"/></clipPath><linearGradient id="k" x1="-3161.13" x2="-3161.027" y1="1845.124" y2="1845.124" gradientTransform="scale(2912.32 -2912.32) rotate(65 -132.282 3403.468)" gradientUnits="userSpaceOnUse"><stop offset="0" stop-color="#92014a"/><stop offset=".323" stop-color="#92014a"/><stop offset=".63" stop-color="#d00015"/><stop offset=".751" stop-color="#d50613"/><stop offset="1" stop-color="#f35806"/></linearGradient><path fill="url(#k)" d="M24.525 427.865l58.424-125.292 94.407 44.024-58.424 125.291z" clip-path="url(#l)"/><defs><path id="m" d="M72.789 429.273c-1.396 7.025-2.389 14.018-2.887 20.975-.017.242-.039.485-.055.729-3.469-5.56-12.762-10.99-12.74-10.937 6.652 9.641 11.698 19.215 12.449 28.612-3.561.729-8.443-.325-14.078-2.397 5.876 5.4 10.291 6.894 12.011 7.294-5.399.336-11.025 4.044-16.688 8.318 8.288-3.381 14.978-4.717 19.774-3.63-7.605 21.523-15.224 45.281-22.85 70.504 2.338-.693 3.73-2.258 4.515-4.387 1.358-4.567 10.372-34.54 24.5-73.931.402-1.121.807-2.247 1.218-3.381.113-.313.229-.633.342-.946 1.495-4.13 3.041-8.351 4.639-12.65.363-.975.73-1.957 1.1-2.941.007-.02.014-.039.021-.06L72.952 428.5c-.053.26-.112.517-.163.773"/></defs><clipPath id="o"><use overflow="visible" xlink:href="#m"/></clipPath><linearGradient id="n" x1="-3160.47" x2="-3160.367" y1="1844.352" y2="1844.352" gradientTransform="scale(1530.5115 -1530.5115) rotate(65 -132.423 3402.502)" gradientUnits="userSpaceOnUse"><stop offset="0" stop-color="#0a0344"/><stop offset=".096" stop-color="#4b067a"/><stop offset=".788" stop-color="#94014b"/><stop offset=".949" stop-color="#d5000f"/><stop offset="1" stop-color="#d5000f"/></linearGradient><path fill="url(#n)" d="M1.671 527.268l52.544-112.683 75.899 35.393L77.57 562.66z" clip-path="url(#o)"/><g><defs><path id="p" d="M172.479 339.974c-3.012 1.804-8.183 3.438-12.343 4.203-.062.012-.126.024-.187.035-.417.067-.836.135-1.257.201.074-.034.143-.067.216-.102l-28.105 3.08c-.052.107-.104.21-.155.316-.318.649-.637 1.304-.957 1.962-.96 1.976-1.931 3.993-2.912 6.055-1.061 2.23-2.135 4.514-3.218 6.846-.546 1.173-1.094 2.359-1.646 3.56-1.653 3.598-3.332 7.313-5.035 11.15-2.093 4.716-4.222 9.614-6.384 14.7-2.061 4.848-4.152 9.867-6.271 15.061-2.012 4.928-4.047 10.013-6.107 15.263-1.836 4.678-3.69 9.483-5.563 14.422-.09.237-.18.479-.27.717-1.856 4.904-3.729 9.942-5.617 15.108-.043.117-.087.235-.13.353l8.948-.979c-.178-.033-.354-.056-.534-.09 10.697-1.335 24.919-9.324 34.11-19.196 4.233-4.547 8.079-9.91 11.634-16.189 2.645-4.673 5.13-9.857 7.496-15.59 2.069-5.015 4.052-10.437 5.969-16.324-2.459 1.296-5.271 2.245-8.378 2.907-.544.115-1.098.223-1.659.321-.563.099-1.133.188-1.712.271.008-.003.015-.006.022-.01 9.977-3.836 16.268-11.245 20.838-20.321-2.624 1.788-6.891 4.131-12.004 5.256-.694.152-1.405.277-2.128.383-.179.025-.355.058-.537.079.005-.002.011-.004.016-.007.003-.001.007-.002.01-.004 3.462-1.446 6.384-3.071 8.92-4.986.543-.41 1.07-.833 1.58-1.271.774-.668 1.51-1.372 2.212-2.113.449-.473.886-.96 1.308-1.466.993-1.186 1.922-2.457 2.795-3.841.267-.423.528-.854.785-1.297.333-.643.651-1.271.956-1.884 1.395-2.801 2.509-5.301 3.396-7.492.443-1.096.829-2.114 1.164-3.053.134-.377.26-.739.379-1.091.354-1.052.639-1.991.864-2.814.338-1.234.544-2.21.654-2.92-.336.264-.728.53-1.163.791"/></defs><clipPath id="r"><use overflow="visible" xlink:href="#p"/></clipPath><linearGradient id="q" x1="-3161.13" x2="-3161.028" y1="1845.217" y2="1845.217" gradientTransform="scale(2912.3196 -2912.3196) rotate(65 -132.201 3403.52)" gradientUnits="userSpaceOnUse"><stop offset="0" stop-color="#92014a"/><stop offset=".323" stop-color="#92014a"/><stop offset=".63" stop-color="#d00015"/><stop offset=".751" stop-color="#d50613"/><stop offset="1" stop-color="#f35806"/></linearGradient><path fill="url(#q)" d="M42.98 432.592l59.116-126.773L217.2 359.493l-59.115 126.773z" clip-path="url(#r)"/></g><g><defs><path id="s" d="M162.283 290.895c-2.497 3.835-5.226 8.193-8.168 13.124-.152.256-.31.523-.463.782-2.537 4.271-5.229 8.962-8.063 14.099-2.446 4.434-4.994 9.188-7.645 14.306-2.308 4.458-4.691 9.186-7.143 14.187l28.105-3.08c8.188-3.766 11.847-7.17 15.398-12.103.944-1.356 1.893-2.78 2.834-4.25 2.888-4.507 5.718-9.47 8.247-14.4 2.441-4.763 4.599-9.491 6.248-13.746 1.05-2.71 1.896-5.229 2.476-7.438.513-1.951.913-3.803 1.229-5.567-10.931 1.867-24.334 3.653-33.055 4.086"/></defs><clipPath id="u"><use overflow="visible" xlink:href="#s"/></clipPath><linearGradient id="t" x1="-3161.075" x2="-3160.972" y1="1845.213" y2="1845.213" gradientTransform="scale(2912.3196 -2912.3196) rotate(65 -132.174 3403.468)" gradientUnits="userSpaceOnUse"><stop offset="0" stop-color="#92014a"/><stop offset=".323" stop-color="#92014a"/><stop offset=".63" stop-color="#d00015"/><stop offset=".751" stop-color="#d50613"/><stop offset="1" stop-color="#f35806"/></linearGradient><path fill="url(#t)" d="M107.598 336.571l34.732-74.482 76.215 35.54-34.732 74.482z" clip-path="url(#u)"/></g><g><defs><path id="v" d="M142.412 388.033c.502-.07.998-.147 1.487-.231-.489.084-.985.161-1.487.231m1.487-.231c.075-.013.149-.025.225-.039-.075.013-.149.026-.225.039"/></defs><clipPath id="x"><use overflow="visible" xlink:href="#v"/></clipPath><linearGradient id="w" x1="-3161.155" x2="-3161.012" y1="1845.246" y2="1845.246" gradientTransform="scale(2912.3194 -2912.3194) rotate(65 -132.177 3403.535)" gradientUnits="userSpaceOnUse"><stop offset="0" stop-color="#92014a"/><stop offset=".323" stop-color="#92014a"/><stop offset=".63" stop-color="#d00015"/><stop offset=".751" stop-color="#d50613"/><stop offset="1" stop-color="#f35806"/></linearGradient><path fill="url(#w)" d="M142.308 387.985l.41-.878 1.51.705-.41.877z" clip-path="url(#x)"/></g><g><defs><path id="y" d="M148.604 373.42c.102-.012.201-.027.301-.043-.1.016-.2.03-.301.043m.3-.043c.079-.013.157-.025.236-.036-.078.011-.157.023-.236.036"/></defs><clipPath id="A"><use overflow="visible" xlink:href="#y"/></clipPath><linearGradient id="z" x1="-3161.061" x2="-3161.061" y1="1845.242" y2="1845.242" gradientTransform="scale(2912.3194 -2912.3194) rotate(65 -132.18 3403.533)" gradientUnits="userSpaceOnUse"><stop offset="0" stop-color="#92014a"/><stop offset=".323" stop-color="#92014a"/><stop offset=".63" stop-color="#d00015"/><stop offset=".751" stop-color="#d50613"/><stop offset="1" stop-color="#f35806"/></linearGradient><path fill="url(#z)" d="M148.573 373.406l.126-.272.473.22-.127.272z" clip-path="url(#A)"/></g><g><defs><path id="B" d="M148.619 373.413c.003-.001.007-.002.01-.004-.003.002-.007.003-.01.004m.01-.004"/></defs><clipPath id="D"><use overflow="visible" xlink:href="#B"/></clipPath><linearGradient id="C" x1="-3160.294" x2="-3160.294" y1="1842.568" y2="1842.568" gradientTransform="scale(643.718 -643.718) rotate(65 -133.45 3401.51)" gradientUnits="userSpaceOnUse"><stop offset="0" stop-color="#92014a"/><stop offset=".323" stop-color="#92014a"/><stop offset=".63" stop-color="#d00015"/><stop offset=".751" stop-color="#d50613"/><stop offset="1" stop-color="#f35806"/></linearGradient><path fill="url(#C)" d="M148.618 373.407h.012v.008h-.012z" clip-path="url(#D)"/></g></svg>