<svg xmlns="http://www.w3.org/2000/svg" role="img" xmlns:xlink="http://www.w3.org/1999/xlink" viewBox="62.74 142.49 234.52 74.77"><title>Aril (member) logo</title><path fill="#D91F2B" d="M101.157 157.23l2.928-5.07-2.928-5.073h-5.856l-2.928 5.073 2.928 5.07zm-.872 12.662l2.056-3.561-2.056-3.56h-4.111l-2.056 3.56 2.056 3.561zm-5.275 5.037l-3.218 5.575 3.218 5.575h6.437l3.22-5.575-3.22-5.575zm.291 14.675l-2.927 5.072 2.927 5.071h5.856l2.928-5.071-2.928-5.072zm.582 15.18l-2.347 4.064 2.347 4.064h4.693l2.346-4.064-2.346-4.064zm-6.72-39.964l3.219-5.575-3.219-5.575h-6.437l-3.219 5.575 3.219 5.575zm-.872 12.662l2.346-4.064-2.346-4.064h-4.693l-2.348 4.064 2.348 4.064zm.29 14.675l2.637-4.567-2.637-4.569h-5.274l-2.638 4.569 2.638 4.567zm0 5.037h-5.274l-2.638 4.568 2.638 4.568h5.274l2.637-4.568zm-11.704-25.287l3.219-5.575-3.219-5.575H70.44l-3.219 5.575 3.219 5.575zm0 14.172l3.219-5.576-3.219-5.574H70.44l-3.219 5.574 3.219 5.576zm-.291 3.525H70.73l-2.928 5.072 2.928 5.071h5.856l2.928-5.071zm31.262-34.927l-2.637 4.568 2.637 4.568h5.274l2.638-4.568-2.638-4.568zm4.402 21.798l1.765-3.058-1.765-3.057h-3.53l-1.765 3.057 1.765 3.058zm-4.402 6.546l-2.637 4.569 2.637 4.567h5.274l2.638-4.567-2.638-4.569zm.581 15.18l-2.056 3.561 2.056 3.56h4.111l2.056-3.56-2.056-3.561zm16.577-27.805l2.347-4.064-2.347-4.064h-4.693l-2.346 4.064 2.346 4.064zm-.291 6.547h-4.111l-2.056 3.561 2.056 3.56h4.111l2.056-3.56zm-3.82 14.676l-1.766 3.057 1.766 3.056h3.529l1.765-3.056-1.765-3.057z"/><defs><path id="a" d="M0 0h360v360H0z"/></defs><clipPath id="b"><use overflow="visible" xlink:href="#a"/></clipPath><path fill="#751012" d="M165.201 167.534c.871-1.005 1.944-1.207 2.815-1.207.939 0 1.677.269 2.48 1.207l22.931 27.421c.402.47.536.805.536 1.072 0 1.073-1.207 1.878-2.481 1.878-.871 0-1.407-.269-1.943-.871L167.95 171.02l-21.79 26.015c-.537.603-1.073.871-1.945.871-1.273 0-2.481-.805-2.481-1.878 0-.268.136-.603.537-1.072l22.93-27.422zm34.668 9.185c0-6.704 5.631-10.056 16.827-10.056h6.17c1.474 0 2.278.602 2.278 1.743 0 1.14-.805 1.743-2.278 1.743h-6.17c-7.978 0-12.068 2.145-12.068 6.436v19.577c0 1.14-.805 1.744-2.345 1.744-1.543 0-2.414-.604-2.414-1.744v-19.443zm35.667-16.359c-1.877 0-2.749-.805-2.749-2.346 0-1.543.872-2.347 2.749-2.347 1.81 0 2.75.804 2.75 2.347 0 1.541-.94 2.346-2.75 2.346m-2.412 7.71c0-1.139.871-1.743 2.345-1.743 1.609 0 2.414.604 2.414 1.743v28.092c0 1.14-.805 1.743-2.347 1.743-1.541 0-2.412-.604-2.412-1.743V168.07zm19.044-15.755c0-1.14.872-1.744 2.348-1.744 1.609 0 2.414.604 2.414 1.744v43.847c0 1.14-.805 1.743-2.348 1.743-1.542 0-2.414-.604-2.414-1.743v-43.847zm17.911 39.442c-.427 0-.636-.175-.636-.525 0-.35.209-.525.636-.525.415 0 .634.176.634.525 0 .35-.219.525-.634.525m-.58 1.235c0-.295.196-.458.58-.458.382 0 .58.163.58.458v4.51c0 .307-.198.46-.58.46-.384 0-.58-.153-.58-.46v-4.51zm9.841 1.336c0-.568-.547-.842-1.631-.842h-2.188c-1.072 0-1.622.273-1.622.842v3.174c0 .307-.196.46-.579.46s-.579-.153-.579-.46v-3.174c0-1.16.94-1.739 2.823-1.739h2.113c1.881 0 2.823.579 2.823 1.739v3.174c0 .307-.197.46-.581.46s-.58-.153-.58-.46v-3.174zm6.026 3.579c-1.893 0-2.835-.58-2.835-1.729v-1.85c0-1.16.942-1.739 2.835-1.739h3.785c.374 0 .569.152.569.449 0 .295-.195.448-.569.448h-3.829c-1.074 0-1.621.273-1.621.832v1.871c0 .547.547.83 1.621.83h3.829c.374 0 .569.144.569.439 0 .295-.195.448-.569.448h-3.785zm6.758.055c-.427 0-.647-.175-.647-.537 0-.359.221-.535.657-.535.427 0 .646.176.646.535-.001.362-.219.537-.656.537" clip-path="url(#b)"/></svg>