<svg xmlns="http://www.w3.org/2000/svg" role="img" viewBox="-9.82 -9.82 510.64 115.14"><title>Ashling logo</title><path fill="#fab70a" d="M120.59179 2.84452l.93117-.2656 2.02502-1.2609.79784-.22706.99998-.85624.1188.30932.67958-.53638.1048.65571 1.99208.57386 3.24779 3.07232 1.07237 1.63596c1.6581 1.2401 2.16208 1.78169 3.61804 3.65097l.292.37386.24799 1.4141c.076 1.34783-2.3626 3.06966-5.59546 3.87643l-4.46962 1.04425c-.13387.038-.83852.12453-1.80942.28652-.43906.0104-1.54317.21093-2.8738.58999l-3.9379.89277-1.31623.03227-1.20824-.45572-8.41912 1.14104-11.33252 1.62756-3.92377.54638-2.64633.41093-5.99932.9089-1.36983.276-2.953.38386-1.1973.34052-9.37896 2.09955-15.70948 2.53114-2.87286.59011c-1.06464.30253-1.5037.31346-2.42087.23226l-.02493-.44998 7.51594-1.56876 5.29413-.82185 4.2827-.76292.41359-.45998 2.15461-.1572 1.42436-.51932-.51812-.1948-.70464.08654-.43853.0104-1.1985.34105-.91664-.0812-.74479-.0172c-.70464.08694-1.1041.20053-1.37023.276l-1.2765.13546c-.1328.038-.43852.0104-.97078.16253l-8.16752 1.41143-.38493-.2324 2.74113-.55251.63945-.63905.21253.1688 2.927-.83385-.23693-.61719-2.12968.60572-1.18277-.00573-.11867-.30893-.47812-.09213-3.10045.76878-1.36717-.86718-2.27288-.15212 4.68269-.87652 2.43434-.57865 6.77223-1.58596 3.8983-.99517-2.23328-.04947-5.042 1.09317-1.10424.20053-2.42074.23226 1.86355-.53078.69425-.88278-5.1212.88758 2.92699-.83385.0396.10253.79838-.22706-.26613.076.70465-.0864.49265-.25466 1.14424-.09693 4.46976-1.04424 3.8447-.75198 4.81548-.91465 2.34114-.43852 9.90855-1.1077 1.38384-.62239.36039-.21666-.25213-.27093-.79838.22706-1.68636-.54732-8.72538 1.11398-6.45144 1.26623-1.37076.27493c-1.14371.09786-1.14371.09786-2.91287.48692-.66571.1896-1.19743.34172-2.43433.57972l-.79892.22706-.30519-.02707-.66572.18906-.11866-.30839-.70465.08653 8.04873-1.72022 4.52376-1.2885 15.92106-2.36354 1.01091-.0588 4.3227-.66052 10.01548-1.59476 9.43363-2.34314-.56879-1.09424.53279-.152-.07973-.20572 1.10424-.19946.98584-.50946-1.46036-.72598s10.5424-1.75049 9.3503-1.40623"/><path fill="#be2519" d="M118.31784 70.44176c4.56869.50786 2.56034-6.60663 6.63744-4.85668 4.0775 1.74996 5.1832 3.67338 7.45181 8.51032 2.26954 4.83842-2.01822 6.17425-2.01822 6.17425l-5.45453.48599-16.88544 1.7145-13.3482 1.37653-10.4252 1.20049-.4844-.22656-6.38517.84738-20.99854 3.02857-8.22793 1.3307 3.48018-.91145 22.33851-3.4973 5.1004-1.10153-12.97514 1.75152L43.9901 89.7111l-5.28747.91404-2.02901.29686-10.6664 1.73433-3.46192.67186-7.22328 1.3031c-.20413.05364-.61399.16145-1.22864.32186-1.73066.33593-3.0525.5651-3.853.53905l-1.713.09479c-.29737-.0401-1.00517.0276-1.3963-.1052l5.17487-.76717 6.12426-1.36976 10.48-1.92027.2052-.05468c.40932-.10677.52078-.25417.42758-.34791-.09373-.09375-.8937-.11979-1.80622.0026l-5.2868.91404-5.19307 1.00675-1.11717.17551-.2052.05364-7.81807 1.22394-4.67228.75258L0 95.5818l6.92327-2.639 1.74943-.57707 16.60427-3.29001 5.23013-1.48851.53906-.49477-1.11717.17447-2.40154-.07813 6.34677-1.66245 1.6197-.18906c.31665-.20052.72597-.30833 1.13543-.4151.81918-.2151 1.32183-.22915 2.64313-.45728l1.4333-.37603.48492.22655 2.15875-.68383 7.51954-1.26299 3.35152-.52444L76.2429 78.5473l16.92145-2.19528 2.32754-.25666-10.10908.99998-6.4785.75411-5.2864.91398-4.26337.64585-6.88783.86305-2.5318.30986-5.08214.8593-6.4961.99637-1.22864.32135-8.005 1.03799-4.98894.9531-3.01606.08334 3.46178-.67186 4.39323-1.0328 12.0809-1.86975 11.09505-2.08328.12973-.38799-1.84275.48332-15.41362 2.15462-2.64367.45732-1.80568.00107 18.50313-3.199 1.6197-.18905.18652.1876 5.76906-1.98436 4.67228-.75265 23.49422-2.8566 20.21776-1.99847.40265-.08587 2.87953-.56412"/><path fill="#164f84" d="M78.24751 15.21554l-1.61556 2.33954-4.75401 7.35249-3.73231 5.82265-2.767 4.61295-.46465.06613-1.5593 2.88593-4.84414 9.61016-1.72556 3.8415.31413-1.80715 4.8248-10.368.74066-2.52541-3.13632 5.87532-4.80668 10.26228-1.03851 2.4994-.46412.92958-2.22648 4.98534-.59319 1.6745-1.3541 3.44257c-.01826.1068-.0552.31933-.1104.63799-.29745.83744-.55678 1.4625-.90997 1.75515l-.57599.70465c-.1672.09387-.37185.39852-.68745.47919l1.16918-2.38007.8333-3.05726 1.9281-5.01028.01933-.1068c.03693-.21252-.0932-.33225-.24227-.34532-.14946-.01306-.50198.27866-.72438.69172l-1.03904 2.49834-.8901 2.513-.2416.51812-.01827.10573-1.68849 3.63018-.9833 2.17954-.87292 1.5417-.3584-4.0259.01774-.97038 2.7614-8.06846.33226-2.77753-.37293-.46466-.24106.51825-1.0589.87758.57185-3.29578.42719-.71772c-.112-.226-.07507-.43892-.0376-.65091.07346-.42613.26-.62559.51932-1.24997l.1292-.74425.46452-.06667.05466-1.18277 1.5213-3.5359.72345-1.55517 4.9368-10.14295 4.19524-7.617.63185-1.02345-2.8786 4.38683-1.70836 2.8714-1.03904 2.4994-.9457 1.96755-1.7453 3.08379-.64998 1.13024-1.02037 2.39207-1.42864 3.00459-.11133.63812-1.98648 3.6019-.87078 2.40621-1.11464 1.19637.59332-1.67449.53586-2.21914 2.63593-5.5968 1.98435-5.33-.41052-.25212-.16613.95677-3.63791 7.0185-.51919 1.24943-.72505.69225 3.63645-8.74671.42705-.71772.29733.02613-.04107-3.24218.98331-2.18062 6.05238-10.47533 5.75666-8.77418 1.52343-1.80836s4.28002-6.17371 8.24872-6.66957c3.9687-.49638 9.42577-1.98435 12.40223.99211 2.97659 2.9766.99224 2.9766.99224 2.9766s-4.66135-.07454-6.05145 3.43524"/><path fill="#be2519" d="M130.28794 5.43819c2.97646 0 4.03804 3.27232 3.15672 9.02017l-1.08704.52799-2.81193 9.4795-4.0119 10.96385-1.05517 2.16288-2.7686 2.5698.25986.1072-.26506.75625-4.48068 8.54405.0052-.86344.64011-1.2209 3.02073-7.1665.67558-.8353-.54012.02493-2.915 5.1072-2.62086 5.59986-1.44423 2.00209-.93998 1.59156.12027-1.4349 1.3353-2.29474 1.4553-3.7295.44945-.5568 1.39516-3.01245 1.2053-2.34834.43533-1.18117 1.21037-3.21246.90464-1.97702 1.28077-2.44167 1.05984-3.02646 1.40623-4.73948-.35986 1.0885-3.08125 7.88421-4.62122 10.21855-.73478 1.55196-1.77036 3.47658-.9541.96664.31399.25413-.5244.64945c-.32038.60985-.34065.84944-.6401 1.2197-.15054.18653-.3.37186-.58026.50372l-.26506.75718-2.32434 2.8766-.10427-1.15677.2448-.51772-.68959.21039-2.08008 2.35874-4.60455 7.62754-.80464.78118-3.68431 3.0582.60572-1.60663 1.05517-2.16248 1.71449-3.62231.07506-.09266.24573-.51826 1.40997-2.38794 1.27956-2.44007c.1704-.42546.13493-.81038.0052-.86451-.1296-.0532-.33425-.0136-.48478.17186l-.07507.09266-2.69006 4.82908-1.91449 2.79833-1.07544 2.40101c-.18386-.19946-.0896-.53132-.14426-.67865l.13533-.80985c-.03534-.38545.28492-.99584.75518-1.79168.22453-.27866.37506-.46346.44945-.55572l1.82502-3.33059.94011-1.59116 2.43008-4.93627.41559-.94278 1.28023-2.44047 4.82481-10.25761 2.45568-6.03892-1.53957 2.3338-4.9008 10.35028-1.2745 1.57703 1.86501-3.80764 4.24576-9.75455 1.19117-2.97286-.31519-.2536 1.68543-4.8712 1.93635-6.25292 2.4114-7.91287.68545-2.563s3.81244-3.34672 6.62117-2.22341c2.25461.90158 4.05883.90158 4.05883.90158"/><path fill="#007e45" d="M112.92784 48.91003l-1.1457 4.65975-2.67127 3.70564-2.2162 1.11611-6.42892 3.53124-3.03219 1.71716-7.47074 2.7394-1.6109-.54425 1.4865-.92438 3.83737-1.4453 3.53165-1.21877L99.8319 60.83l4.39936-2.90086 3.8415-3.52858 1.33544-1.85368-3.8739 2.86046-3.78791 2.44887-6.87996 4.0379-7.47075 2.73953-3.30138.52865-5.6676.71612-1.00984-.1224-.9333.34213-.95052.00786-.46718.17187-2.14688.37132-1.7129-.47025-1.50262.58851-1.2557.23333-5.228 1.08424-1.6801.20053-4.26763.20213-3.88163-1.64316-3.84377.23533-4.64882-.0364 2.57127-.33693.3-1.4349c-1.7129-.47025-2.45875-.61358-3.45245-.39999l-.72972.1916c-.26293.02093-.68692-.01293-1.2129.02867l.61132-.452 3.15618-.24852.02667-.53905-3.49471-.1952 5.72799-.58598.47652-1.04584 3.8275-.57132-.1344-.59372-.12452-1.46877 4.63228-.29839 5.5988.02867 3.8863-.44012 7.87433-.95678 5.31387-1.49476L81.78076 55.6l4.0843-1.80102 1.51916-.2536 4.02443-1.93075 4.33109-2.15621 3.64324-2.16861s.23853-.81198 7.45448-3.0666c2.50927-.78437 3.60711.90145 3.60711.90145s1.3589-.99944 2.48327 3.78537"/><path fill="#007e45" d="M50.31648 70.56576l1.4109.2968 1.1661-.552 3.40098-.11466 3.20099-.24733 10.54493-1.03637 4.2499-.35946 5.13893-.75145 4.16657-.9297 1.41983-.32813 1.0885-.2588.40933-.36199 1.2885-.1276.88798-.39065c.23906-.0156.57038-.08333 1.04904-.1136l-.07813.29333-1.1657.55199-3.72752 1.0469-.58585-.15626-2.26927.57292-3.37125.59372-3.61085.60678-1.60516.43586-3.62537.36879-4.29003.50519-4.85974.58958-.71665.04427-3.17179.72545-.08333-.57186-1.96662.02614-2.777.12386-2.15208.13386.63386-.61558m35.24645-16.81518l6.02025-2.00515 2.3858-1.01198-3.10245 1.05624-.84905.2448-3.47378 1.2713-4.48428 1.23797-.5172.176 4.0207-.96918"/><path fill="#231f20" d="M92.90288 33.43229l.24746-.214-.75785.2932-.088-.02974-.49532.26306-.0588-.05786-.49532.2052-.26252-.14574-.08694.088-.32185-.1464-.29066.1172.1448-.14586.20465-.08747.02867-.20466-.1756.1172v-.11613l.11667-.23386-.14573-.0876.37852-.37906v-.05893l.61199-.61292.08706-.1464-.78705.264c.08707-.14573.1448-.26293.17453-.29266.08693-.08693.2916-.23333.61199-.43799l1.10717-.75931.2324-.4672-.20373.08747-.14573-.08746-.14587.088-.05893-.0584-.2328.1172-.14572.14533-.0876-.262 2.3026-1.48996 1.16558-.70212-.02973-.2036.32092-.20519.1452-.32092-.55412.14693-.08693.02866v.11667l-.37973-.08653-.75771.35052.2624-.26253.34945-.23372-.088-.14533 7.8702-3.86137.93225-.52612.1468.26252-.14573.0292.14626.26253v.17493l.1464.20413h.05786l1.28424.58132 1.1385.61145.35.34945 1.54689.72652.52492-.23386.05893.46665.0588.0584-.52492.23426-.11613.35-1.1661.52611-1.89476.79052-3.17752 1.1417-2.3614 1.0817-2.71087 1.14171.02866.02907c-.49532.1464-.36359.224-1.23863.63292l-2.56447 1.21917"/><path fill="#231f20" d="M104.14273 24.27838s-1.34423-.90984-.82758-1.4865c.27346-.30465 3.32952-1.73475 4.2171-2.00821 2.13327-.65785 3.7123.19266 4.20136.82291.48905.63012-.17707.91345-.17707.91345l.1896.2016-.84478 1.57969-2.09728 3.31605-1.3281 2.06088-.85465 1.48743-1.1089 1.70262-.74892 1.4385-.93797 1.2369-1.03744.67345-.24893.43586-1.1797 1.89582-.10573.04893.30879-.72132.0672-.06306-.06294-.06707.66705-1.33756-.24266-.17707.19893-.54158-.1156-.0428-.02346-.53585c-.35626.1328-.47652.22079-.65665.59318l.52852-1.0801-.2364.04466-.0104-.0916-.21146.0984.0276-.0776-.23546.0448-.18746.15106.40679-.50932.0468-.2464-.58065-.21359.42239-1.03117-.24693-.04693-.05627.15533.0324-.20786-.20373-.16307.00107-.48278.81985-1.63223-.14067-.09586c.0708-.1932.114-.30986.14213-.38746l.35573-.96771c.02866-.0776.1-.2708.22453-.48906l.64425-1.0369.81558-1.5021-.112-.17293-.48479.48079-.33546.3156.4396-.71719c.014-.03853.09532-.14066.20519-.31973.18066-.37292.27652-.51358.42919-.80944l.24839-.43586-.20213.1896-.17706.24213.00413-.13013.13493-.12667-.26146-.00773"/><path fill="#231f20" d="M104.09006 30.40743l-.72811.69212-2.20355 2.20567-1.73635 1.75103-1.32664 1.4041-.12906-.0192-.78598.89424-2.52647 3.0134-.9557 1.22503.32078-.62399 2.62234-3.28898.52705-.84211-1.5901 1.82595-2.60353 3.25192-.59998.80478-.24266.29212-1.23704 1.59063-.37599.54839-.80625 1.1161c-.01866.03654-.05666.10987-.11346.21986-.1876.27386-.3376.47546-.46719.54732l-.24226.2c-.05613.01827-.14946.10933-.2416.1084l.61772-.74905.62132-1.02598 1.16344-1.62809.0188-.0364c.03747-.07346.02027-.12866-.0172-.148-.0364-.01866-.1656.05374-.27866.18134l-.59945.80464-.56345.82345-.13133.16453-.01867.0364-.91771 1.15103-.54372.69479-.42972.47452.44212-1.4885.13333-.34906 1.78436-2.65406.45465-.97238-.0348-.20306-.1308.164-.39052.21666.58585-1.13637.20573-.2188c.00053-.09266.03853-.1656.076-.23906.0756-.14626.15053-.20106.3-.40199l.13239-.2568.12906.02027.17133-.42292.86198-1.1333.39372-.4932 2.62087-3.19725 2.09475-2.35474.2984-.30986-1.32544 1.3125-.82198.87545-.60039.80478-.50532.62132-.85984.9489-.31813.3464-.58132.76811-.76718.94998-.11346.21986-.99171 1.11344-.54425.78705-.44626.32705.37546-.54945.43332-.75105 1.42343-1.77235 1.22024-1.73796-.0724-.13026-.17026.33026-1.87129 2.191-.2996.40266-.27905.18067 2.09995-2.81553.20572-.2192.07294.03853.42025-1.1761.54319-.69425 2.95312-3.21192 2.65087-2.62487.63332-.50878M173.265 52.87927l-8.76645-20.86148-7.4678 20.86148zm-35.30978 20.37496c5.6012-.32546 7.14249-1.13638 11.60637-12.0137l17.85822-43.1032h1.3813l21.99812 49.10918c2.10928 4.70828 4.05857 6.00771 8.2798 6.00771v2.43488c-5.60253-.0808-9.17311-.24333-12.4197-.24333-3.24792 0-6.7385.16253-12.41969.24333v-2.43488c4.54522 0 5.84386-.8125 5.84386-3.00352 0-.89331-.56799-2.59793-2.27328-6.6561l-3.24658-7.63008h-18.58887l-2.35328 6.57384c-2.02928 5.68372-2.19194 6.81903-2.19194 7.63154 0 2.11035.9733 3.0026 6.00651 3.08432v2.43488c-6.98115-.24333-7.79313-.24333-9.73975-.24333-2.02929 0-2.84126 0-9.7411.24333v-2.43488m65.17438-11.65077h2.84126c1.74796 8.45032 8.88778 12.2393 13.91432 12.2393 7.13982 0 10.63707-4.5895 10.63707-8.5962 0-11.6569-26.59134-11.07411-26.59134-27.24771 0-3.7155 2.11195-15.15322 18.3582-15.15322 3.93458 0 9.39844.43639 13.47834 1.89368l.43732 12.89555h-2.69593c-.80131-7.43168-5.6092-12.02117-13.33167-12.02117-5.90118 0-9.39843 3.78857-9.39843 7.72221 0 10.63733 27.02866 11.58358 27.02866 27.8301 0 8.59766-6.11985 15.44495-18.21421 15.44495-4.66122 0-10.70907-.94638-15.88094-2.40367l-.58265-12.60382m40.50832 11.87477c4.73455-.07293 6.04518-1.82129 6.04518-5.90092V31.87926c0-4.07963-1.31063-5.82799-6.04518-5.90092v-2.18595c5.82652.14533 8.30512.21827 10.63573.21827 2.33194 0 4.80788-.07294 10.63707-.21827v2.18595c-4.73588.07293-6.04785 1.82129-6.04785 5.90092v14.7163h27.32065v-14.7163c0-4.07963-1.31063-5.82799-6.04651-5.90092v-2.18595c5.82785.14533 8.30512.21827 10.63706.21827 2.33061 0 4.80788-.07294 10.63574-.21827v2.18595c-4.73588.07293-6.04652 1.82129-6.04652 5.90092V67.5773c0 4.07963 1.31064 5.82799 6.04652 5.90092v2.18634c-5.82786-.14586-8.30513-.21879-10.63574-.21879-2.33194 0-4.8092.07293-10.63706.2188v-2.18635c4.73588-.07293 6.04651-1.82129 6.04651-5.90092V49.65535h-27.32065V67.5773c0 4.07963 1.31197 5.82799 6.04785 5.90092v2.18634c-5.82919-.14586-8.30513-.21879-10.63707-.21879-2.3306 0-4.80921.07293-10.63573.2188v-2.18635m62.13845 0c4.73454-.07293 6.04651-1.82129 6.04651-5.90092V31.87926c0-4.07963-1.31197-5.82799-6.04651-5.90092v-2.18595c5.82785.14533 8.30512.21827 10.63573.21827 2.33194 0 4.80788-.07294 10.63707-.21827v2.18595c-4.73588.07293-6.04785 1.82129-6.04785 5.90092V67.5773c0 3.78897 2.11328 5.02747 8.16113 5.02747 9.61576 0 14.42497-1.2385 15.88227-10.2732h2.47594l-1.1653 13.333c-7.35716-.07294-21.27281-.2188-35.1898-.2188-2.18394 0-4.07856.07293-5.3892.2188v-2.18635m45.96686 0c4.73588-.07293 6.04651-1.82129 6.04651-5.90092V31.87926c0-4.07963-1.31063-5.82799-6.04651-5.90092v-2.18595c5.82785.14533 8.30646.21827 10.63706.21827 2.33195 0 4.80788-.07294 10.63574-.21827v2.18595c-4.73588.07293-6.04652 1.82129-6.04652 5.90092V67.5773c0 4.07963 1.31064 5.82799 6.04652 5.90092v2.18634c-5.82786-.14586-8.3038-.21879-10.63574-.21879-2.3306 0-4.8092.07293-10.63706.2188v-2.18635m25.1247 0c4.73588-.07293 6.04652-1.82129 6.04652-5.90092V31.87926c0-4.07963-1.31064-5.82799-6.04652-5.90092v-2.18595c2.9866.07294 5.82786.21827 7.8678.21827 1.60263 0 3.71458-.14533 5.82786-.21827l34.31514 38.39438-.21866-29.94299c0-4.37175-1.01997-6.26544-6.26651-6.26544v-2.18595c2.69593.07294 5.6092.21827 7.86914.21827 2.3306 0 5.2452-.14533 8.08646-.21827v2.18595c-4.73588.07293-6.04651 1.82129-6.04651 5.90092v44.29423h-2.9146L385.97435 32.6807l.58265 34.24034c.07333 5.392 1.4573 6.11958 6.04785 6.55717v2.18634c-2.18661-.14586-6.11985-.21879-7.86914-.21879-1.74795 0-5.68252.07293-7.8678.2188v-2.18635m108.41062-34.45914h-1.89328c-.50932-7.6498-6.77583-13.11367-18.14088-13.11367-13.76899 0-19.59684 9.76229-19.59684 20.83588 0 16.46532 10.1984 26.80986 21.85545 26.80986 3.49724 0 6.84783-1.2381 9.47176-3.20565V59.78216c0-3.6431-1.0933-4.73588-5.5372-4.73588V52.861c2.40395.07293 5.31854.2916 9.9811.2916 4.58921 0 7.5038-.21867 9.90774-.2916v2.18528c-4.29856 0-5.46386 2.25941-5.46386 5.46506V71.8756c-3.42391 1.67556-11.9477 4.73535-22.07545 4.73535-25.20603 0-28.92194-19.52404-28.92194-27.46545 0-11.80237 8.37846-26.29987 31.03522-26.29987 8.59579 0 15.59161 1.89368 19.37818 3.05979v13.11367"/></svg>