<svg xmlns="http://www.w3.org/2000/svg" role="img" xmlns:xlink="http://www.w3.org/1999/xlink" viewBox="-4.05 1.95 249.60 53.85"><title>Axiomise (member) logo</title><defs><path d="M26.66016-17.63672L20.125-36.64844l-6.9414 19.01172zm-9.58204-25.40234h6.59376L39.28905 0h-6.39062l-4.36328-12.89063H11.51562L6.85548 0H.8789zm0 0" id="a"/><path d="M.8789-31.375h6.82423l7.21093 11.04297L22.20703-31.375l6.41797.14453-10.57813 15.14453L29.09376 0h-6.74219L14.5625-11.77734 7 0H.32031L11.3672-16.08594zm0 0" id="b"/><path d="M3.86719-31.23047h5.35937V0H3.8672zm0-11.8086h5.35937v5.97657H3.8672zm0 0" id="c"/><path d="M16.32031-3.39844c3.4961 0 5.89063-1.32422 7.1914-3.96875 1.29688-2.64844 1.94923-5.59375 1.94923-8.83594 0-2.92968-.46875-5.3125-1.40625-7.14843C22.5703-26.2422 20.0078-27.6875 16.375-27.6875c-3.22266 0-5.5625 1.23438-7.03125 3.69531-1.46484 2.46094-2.19531 5.42969-2.19531 8.90625 0 3.33985.73437 6.1211 2.19531 8.34766 1.46484 2.22656 3.78906 3.33984 6.97656 3.33984zm.20313-28.88672c4.04297 0 7.46093 1.34766 10.2539 4.04297 2.79297 2.69532 4.19141 6.66016 4.19141 11.89453 0 5.0586-1.23438 9.23829-3.69531 12.53907C24.8125-.50781 20.99609 1.14063 15.8203 1.14063c-4.3164 0-7.74218-1.45704-10.28125-4.37891C3-6.15625 1.72656-10.07813 1.72656-15c0-5.27344 1.33985-9.47266 4.01563-12.59766 2.67578-3.125 6.26953-4.6875 10.78125-4.6875zm0 0" id="d"/><path d="M3.86719-31.375h5.21484v4.45313c1.25-1.54297 2.38281-2.66797 3.39844-3.3711 1.73828-1.1914 3.71094-1.78515 5.91797-1.78515 2.5 0 4.51172.61328 6.03515 1.84374.85938.70313 1.64063 1.73829 2.34375 3.10547 1.17188-1.67968 2.55079-2.92578 4.12891-3.73437 1.58203-.8125 3.35938-1.21485 5.33594-1.21485 4.21875 0 7.08593 1.52344 8.60937 4.57032.82032 1.64062 1.23438 3.84375 1.23438 6.61718V0h-5.48047v-21.79688c0-2.08984-.52344-3.52343-1.5664-4.30468-1.04688-.78125-2.32032-1.17188-3.82423-1.17188-2.0703 0-3.85156.6914-5.34765 2.07813C28.375-23.8086 27.625-21.4922 27.625-18.25V0h-5.35938v-20.47656c0-2.1289-.2539-3.6836-.76171-4.66016-.80079-1.46484-2.29297-2.19922-4.48047-2.19922-1.99219 0-3.80469.77344-5.4375 2.3164-1.6289 1.54298-2.44532 4.33595-2.44532 8.37891V0H3.8672zm0 0" id="e"/><path d="M7-9.84375c.15625 1.75781.59766 3.10547 1.32031 4.04297C9.64844-4.10156 11.95313-3.25 15.23438-3.25c1.95312 0 3.67187-.42578 5.15625-1.27734C21.875-5.375 22.61718-6.6875 22.61718-8.46875c0-1.34766-.59375-2.3711-1.78907-3.07422-.76171-.42969-2.26562-.92578-4.5078-1.4961l-4.19141-1.05468C9.45313-14.75781 7.48047-15.5 6.21094-16.32031 3.9453-17.7461 2.8125-19.71875 2.8125-22.23438c0-2.96874 1.07031-5.375 3.20703-7.21093 2.14063-1.83594 5.01563-2.75 8.6289-2.75 4.72657 0 8.13282 1.38281 10.22657 4.15625 1.3086 1.75781 1.9414 3.65625 1.90234 5.6875h-4.98046c-.09766-1.1914-.51563-2.27735-1.25782-3.2539-1.21093-1.38673-3.3125-2.08204-6.30078-2.08204-1.99219 0-3.5.38281-4.52734 1.14453-1.02344.76172-1.53907 1.76953-1.53907 3.01953 0 1.36719.67579 2.46094 2.02344 3.28125.78125.48828 1.9336.91407 3.45703 1.28907l3.48828.84765c3.78907.91797 6.32813 1.8086 7.6172 2.66797 2.05077 1.34766 3.07421 3.46484 3.07421 6.35547 0 2.79297-1.0586 5.20703-3.17969 7.23828C22.53516.1875 19.3047 1.20313 14.96875 1.20313c-4.66797 0-7.97266-1.0625-9.91406-3.1797-1.94531-2.12109-2.98438-4.74218-3.1211-7.86718zm0 0" id="f"/><path d="M16.9336-32.07813c2.22656 0 4.38671.51954 6.47265 1.56641 2.08984 1.04297 3.6836 2.39453 4.77734 4.0586 1.0547 1.58203 1.75782 3.42578 2.10938 5.53515.3125 1.44531.46875 3.75.46875 6.91406H7.76562c.09766 3.1836.84766 5.73828 2.25391 7.66016 1.40625 1.92578 3.58203 2.88672 6.53516 2.88672 2.7539 0 4.94922-.91016 6.58984-2.72266.9375-1.05469 1.60156-2.27734 1.99219-3.66406h5.1836c-.13673 1.15234-.58985 2.4375-1.35938 3.85156-.77344 1.41797-1.63672 2.57422-2.59375 3.47266C24.76562-.95703 22.78125.09766 20.42187.64453c-1.26953.3125-2.70703.46875-4.30859.46875-3.90625 0-7.21484-1.42187-9.9336-4.26172-2.71484-2.84375-4.0703-6.82031-4.0703-11.9375 0-5.03906 1.36718-9.13281 4.10156-12.27734 2.73437-3.14453 6.3086-4.71485 10.72265-4.71485zm8.41015 13.88282c-.21484-2.28516-.71484-4.10938-1.4961-5.47657-1.4453-2.53906-3.85546-3.80859-7.23828-3.80859-2.42187 0-4.45312.875-6.09374 2.6211-1.64063 1.75-2.50782 3.96874-2.60547 6.66406zm0 0" id="g"/></defs><use y="50" xlink:href="#a"/><use x="40.02" y="50" xlink:href="#b"/><use x="70.02" y="50" xlink:href="#c"/><use x="83.35" y="50" xlink:href="#d"/><use x="116.719" y="50" xlink:href="#e"/><use x="166.699" y="50" xlink:href="#c"/><use x="180.029" y="50" xlink:href="#f"/><use x="210.029" y="50" xlink:href="#g"/></svg>