<svg xmlns="http://www.w3.org/2000/svg" role="img" viewBox="194.44 -6.56 1537.12 523.12"><title>Axiomise (member) logo</title><style>svg {enable-background:new 0 0 1920 500}</style><style>.st1{fill:#555574}.st2{fill:#9d2626}.st4{enable-background:new}.st5{fill:#323232}</style><path id="Artboard1" fill="none" d="M209.1 0h1501.7v499.9H209.1z"/><path d="M445.4 461.8c-59.1 0-114.7-22.8-156.5-64.2C247 356.1 224 301 224 242.4c0-58.6 23-113.7 64.9-155.1C330.7 45.9 386.3 23 445.4 23c59.1 0 114.7 22.8 156.5 64.2 41.8 41.4 64.9 96.5 64.9 155.1 0 58.6-23 113.7-64.9 155.1-41.8 41.6-97.4 64.4-156.5 64.4zm0-426.8C329.9 35 236 128 236 242.4s93.9 207.4 209.4 207.4 209.4-93.1 209.4-207.4C654.8 128 560.8 35 445.4 35z" class="st1"/><path d="M445.7 461.9c-113.9 0-206.6-90-206.6-200.6S331.8 60.7 445.7 60.7s206.6 90 206.6 200.6-92.7 200.6-206.6 200.6zm0-389.3c-107.3 0-194.6 84.6-194.6 188.7S338.4 450 445.7 450s194.6-84.6 194.6-188.7S553 72.6 445.7 72.6z" class="st1"/><path d="M445.6 461.9c-102.6 0-186-82.1-186-183.1S343 95.7 445.6 95.7s186 82.1 186 183.1c0 100.9-83.4 183.1-186 183.1zm0-354.3c-96 0-174.1 76.8-174.1 171.2 0 94.4 78.1 171.2 174.1 171.2s174.1-76.8 174.1-171.2c0-94.4-78.1-171.2-174.1-171.2z" class="st1"/><path d="M527.6 213.8H363c-3.3 0-6-2.7-6-6s2.7-6 6-6h164.6c3.3 0 6 2.7 6 6s-2.7 6-6 6zm.8 52.5H363.8c-3.3 0-6-2.7-6-6s2.7-6 6-6h164.6c3.3 0 6 2.7 6 6s-2.7 6-6 6zm-.6 57.6H363.2c-3.3 0-6-2.7-6-6s2.7-6 6-6h164.6c3.3 0 6 2.7 6 6s-2.7 6-6 6z" class="st2"/><path fill="#555574" fill-rule="evenodd" stroke="#555574" stroke-linecap="round" stroke-linejoin="round" stroke-miterlimit="10" stroke-width="7.427" d="M438.3 457.9l5.5-4.2H794l-16-23.4 77.5 26.6-77.5 26.5 15.9-23.4-355.6-2.1h0z" clip-rule="evenodd"/><g class="st4"><path d="M855.996 336.6225h-19.0625v-18.75h-.3125c-8.4375 14.375-20.625 21.5625-36.875 21.5625-11.875 0-21.25-3.125-27.8125-9.375-6.875-6.25-10-14.6875-10-25 0-22.1875 13.125-35.3125 39.375-39.0625l35.9375-5c0-20.3125-8.125-30.3125-24.6875-30.3125-14.375 0-27.5 5-39.0625 14.6875V225.685c11.875-7.5 25.3125-11.25 40.625-11.25 28.125 0 42.1875 15 42.1875 44.375v77.8125zm-19.375-60.625l-28.75 4.0625c-8.75 1.25-15.625 3.4375-20 6.5625s-6.875 8.75-6.875 16.875c0 5.9375 2.1875 10.625 6.25 14.375s9.6875 5.625 16.5625 5.625c9.375 0 17.1875-3.4375 23.4375-10s9.375-15 9.375-25.3125v-12.1875zm142.5-58.75l-40 60.3125 39.375 59.0625h-22.1875l-23.4375-38.75c-1.5625-2.5-3.125-5.3125-5.3125-9.0625h-.3125c-.3125.625-2.1875 3.75-5.625 9.0625l-23.75 38.75h-21.875l40.625-58.4375-39.0625-60.9375h22.1875l23.125 40.9375c1.5625 3.125 3.4375 6.25 5 9.375h.3125l29.6875-50h21.25zm32.1875-30.3125c-3.4375 0-6.25-1.25-8.75-3.4375s-3.75-5.3125-3.75-8.75 1.25-6.5625 3.75-9.0625 5.3125-3.4375 8.75-3.4375 6.5625 1.25 9.0625 3.4375c2.5 2.5 3.75 5.3125 3.75 9.0625 0 3.4375-1.25 6.25-3.75 8.75-2.5 2.1875-5.625 3.4375-9.0625 3.4375zm9.375 149.6875h-19.0625v-119.375h19.0625v119.375zm88.4375 2.8125c-17.5 0-31.875-5.625-42.1875-16.875-10.625-11.25-15.9375-25.9375-15.9375-44.375 0-20 5.625-35.625 16.5625-46.875s25.625-16.875 44.375-16.875c17.8125 0 31.5625 5.625 41.5625 16.5625s15 26.25 15 45.625c0 19.0625-5.3125 34.375-16.25 45.625-10.625 11.25-25 17.1875-43.125 17.1875zm1.5625-109.0625c-12.1875 0-21.875 4.0625-29.0625 12.5s-10.625 20-10.625 34.6875c0 14.0625 3.75 25.3125 10.9375 33.4375s16.875 12.1875 29.0625 12.1875c12.5 0 21.875-4.0625 28.4375-11.875 6.5625-8.125 10-19.375 10-34.0625 0-15-3.4375-26.5625-10-34.375-6.875-8.4375-16.5625-12.5-28.75-12.5zm258.125 106.25h-19.0625V268.185c0-13.125-2.1875-22.8125-6.25-28.75s-10.9375-8.75-20.625-8.75c-8.125 0-15 3.75-20.9375 11.25s-8.4375 16.25-8.4375 26.875v68.125h-19.0625v-70.9375c0-23.4375-9.0625-35.3125-27.1875-35.3125-8.4375 0-15.3125 3.4375-20.625 10.625s-8.125 16.25-8.125 27.5v68.125h-19.0625V217.56h19.0625v18.75h.3125c8.4375-14.375 20.9375-21.5625 37.1875-21.5625 8.125 0 15.3125 2.1875 21.25 6.875s10.3125 10.625 12.5 17.8125c8.75-16.5625 22.1875-24.6875 39.6875-24.6875 26.25 0 39.375 16.25 39.375 48.75v73.125z" class="st5"/></g><g class="st4"><path d="M1417.246 186.935c-3.4375 0-6.25-1.25-8.75-3.4375s-3.75-5.3125-3.75-8.75 1.25-6.5625 3.75-9.0625 5.3125-3.4375 8.75-3.4375 6.5625 1.25 9.0625 3.4375c2.5 2.5 3.75 5.3125 3.75 9.0625 0 3.4375-1.25 6.25-3.75 8.75-2.5 2.1875-5.625 3.4375-9.0625 3.4375zm9.375 149.6875h-19.0625v-119.375h19.0625v119.375z" class="st2"/></g><g class="st4"><path d="M1460.6835 332.2475v-20.625c10.3125 7.8125 21.875 11.5625 34.375 11.5625 16.875 0 25.3125-5.625 25.3125-16.875 0-3.125-.625-5.9375-2.1875-8.125s-3.4375-4.0625-5.9375-5.9375c-2.5-1.5625-5.3125-3.125-8.75-4.6875-3.4375-1.25-6.875-2.8125-10.625-4.375-5.3125-2.1875-10-4.0625-14.0625-6.25s-7.1875-4.6875-10-7.1875c-2.8125-2.8125-4.6875-5.625-5.9375-9.0625s-2.1875-7.5-2.1875-11.875c0-5.625 1.25-10.625 3.75-15s5.9375-7.8125 10.3125-10.9375c4.375-2.8125 9.0625-5 14.6875-6.5625s11.25-2.1875 16.875-2.1875c10.3125 0 19.6875 1.875 27.8125 5.3125v19.375c-8.75-5.625-18.75-8.75-30.3125-8.75-3.4375 0-6.875.3125-9.6875 1.25s-5.3125 1.875-7.5 3.4375-3.75 3.125-4.6875 5.3125c-1.25 2.1875-1.5625 4.375-1.5625 6.875 0 3.125.625 5.625 1.5625 7.8125 1.25 2.1875 2.8125 4.0625 5 5.625s4.6875 3.125 7.8125 4.375 6.5625 2.8125 10.625 4.375c5.3125 1.875 10 4.0625 14.375 6.25 4.0625 2.1875 7.8125 4.6875 10.625 7.1875 2.8125 2.8125 5.3125 5.625 6.875 9.375 1.5625 3.4375 2.5 7.5 2.5 12.5 0 5.9375-1.25 10.9375-3.75 15.3125s-5.9375 7.8125-10.3125 10.9375c-4.375 2.8125-9.375 5-15 6.5625-5.625 1.25-11.5625 2.1875-17.8125 2.1875-12.5 0-23.125-2.5-32.1875-7.1875zm204.6875-50.625h-84.375c.3125 13.4375 3.75 23.4375 10.625 30.625s16.25 10.9375 28.125 10.9375c13.4375 0 25.9375-4.375 37.1875-13.4375V327.56c-10.625 7.5-24.375 11.5625-41.5625 11.5625-16.875 0-30-5.3125-39.6875-16.25s-14.375-25.9375-14.375-45.625c0-18.4375 5.3125-33.75 15.9375-45.3125s23.75-17.5 39.375-17.5 27.8125 5 36.25 15 12.8125 24.0625 12.8125 42.1875v10zm-19.6875-16.25c0-10.9375-2.8125-19.6875-8.125-25.625-5.3125-6.25-12.5-9.0625-21.875-9.0625-9.0625 0-16.5625 3.125-22.8125 9.6875s-10.3125 15-11.5625 25.3125h64.375z" class="st5"/></g><g><g class="st4"><path d="M880.5707 466.5h-.1l-4.82308 18h-4.8l11.68258-43.6h4.8l-1.39333 5.2h.1c3.4718-4 7.3809-5.9 11.8809-5.9 3.8 0 6.45166 1.3 7.9282 4s1.51192 6.3.33294 10.7c-1.33974 5-3.61154 9-6.81539 12-3.20385 3-7.00577 4.5-11.20577 4.5-3.8268.1-6.37128-1.6-7.58705-4.9zm3.14219-12.1l-1.12539 4.2c-.66987 2.5-.43257 4.6.71192 6.3 1.14449 1.7 2.90333 2.6 5.40333 2.6 2.9 0 5.49475-1.1 7.68423-3.3s3.92014-5.3 4.96514-9.2c.88423-3.3.7809-5.9-.21-7.8-.9909-1.9-2.84974-2.8-5.44974-2.8-2.8 0-5.26795 1-7.47705 2.9-2.18231 1.8-3.72539 4.2-4.50244 7.1zm48.20436-8.6c-.63923-.6-1.73205-1-3.33205-1-2 0-3.96795 1-5.87705 2.9-1.9091 1.9-3.30577 4.5-4.2168 7.9l-4.07283 15.2h-4.8l7.98489-29.8h4.8l-1.6345 6.1h.1c1.2627-2.1 2.69142-3.7 4.41296-4.9 1.72154-1.2 3.4823-1.8 5.1823-1.8 1.2 0 2.17321.1 2.79283.4l-1.33975 5z" class="st5"/></g><g class="st4"><path d="M957.28942 457.1h-21.1c-.78423 3.3-.5809 5.9.6368 7.7 1.21769 1.8 3.37653 2.7 6.37653 2.7 3.4 0 6.69475-1.1 10.18423-3.3l-1.20577 4.5c-3.1091 1.9-6.87705 2.9-11.17705 2.9-4.2 0-7.12487-1.4-8.8014-4.1-1.67654-2.7-1.85834-6.5-.54539-11.4 1.23257-4.6 3.55078-8.4 6.95462-11.4 3.37706-2.9 7.07898-4.4 10.97898-4.4s6.55167 1.3 8.0818 3.8c1.43012 2.5 1.5923 6 .38653 10.5l-.76988 2.5zm-3.8014-4.1c.75025-2.8.61295-4.9-.28513-6.4s-2.48372-2.3-4.88372-2.3c-2.3 0-4.41436.8-6.34307 2.4-2.02872 1.6-3.49142 3.7-4.58808 6.3h16.1z" class="st5"/></g><g class="st4"><path d="M986.31852 470.8h-4.8l1.36654-5.1h-.1c-3.2182 3.8-7.1541 5.8-11.8541 5.8-3.8 0-6.35167-1.3-7.9282-4-1.47654-2.7-1.71193-6.3-.47936-10.9 1.31295-4.9 3.58475-8.9 6.8886-11.9 3.30384-3 7.00577-4.5 11.10577-4.5s6.67128 1.6 7.61384 4.8h.1l4.95706-18.5h4.8l-11.87015 44.3zm-1.18269-13.5l1.17898-4.4c.64308-2.4.37898-4.4-.7655-6.1-1.1445-1.7-2.93014-2.5-5.43014-2.5-2.9 0-5.49474 1.1-7.75743 3.2-2.2627 2.1-3.86654 5.1-4.88475 8.9-.91103 3.4-.86129 6.2.22961 8.1 1.0641 2 2.99615 3 5.69615 3s5.06795-1 7.27706-2.9c2.2091-1.9 3.67897-4.4 4.45602-7.3z" class="st5"/></g><path d="M1000.71852 470.8h-4.8l7.98489-29.8h4.8l-7.98489 29.8zm7.7213-37.4c-.9 0-1.51962-.3-1.95885-.9s-.55166-1.3-.3105-2.2c.24115-.9.72871-1.6 1.48948-2.2.76077-.6 1.54115-.9 2.44115-.9.9 0 1.51962.3 1.95885.9.43923.6.55167 1.3.31051 2.2-.24115.9-.72872 1.6-1.48949 2.2-.76077.6-1.54115.9-2.44115.9zm22.65383 36c-2.67513 1.4-5.5627 2.1-8.7627 2.1-4.3 0-7.32487-1.4-9.1746-4.2-1.84975-2.8-2.18513-6.4-1.00616-10.8 1.31295-4.9 3.78475-8.9 7.3618-11.8 3.60385-3 7.80578-4.5 12.50578-4.5 2.6 0 4.76602.5 6.49807 1.5l-1.31295 4.9c-1.77128-1.6-3.98372-2.3-6.48372-2.3-3 0-5.89474 1.1-8.38423 3.3-2.58949 2.2-4.26654 5.1-5.20436 8.6-.93782 3.5-.78808 6.3.57602 8.3 1.2641 2 3.49615 3 6.59615 3 2.6 0 5.24116-.9 7.99667-2.6l-1.20577 4.5zm20.80525 1.1c-1.26076.6-2.84115.9-4.74115.9-5.2 0-7.02295-2.9-5.46884-8.7l4.7427-17.7h-5.1l1.0986-4.1h5.1l1.95602-7.3 5.20192-1.5-2.35795 8.8h7.5l-1.0986 4.1h-7.5l-4.50154 16.8c-.5359 2-.61102 3.4-.15218 4.3.45885.9 1.45167 1.3 3.05167 1.3 1.2 0 2.28038-.3 3.36795-1l-1.0986 4.1zm27.71962.3h-4.8l1.25936-4.7h-.1c-3.06462 3.6-6.54692 5.4-10.64692 5.4-3 0-5.08564-.8-6.35693-2.4-1.27128-1.6-1.50858-3.7-.81192-6.3 1.50052-5.6 5.65796-8.8 12.39911-9.7l9.24833-1.3c1.36655-5.1.03642-7.6-4.06358-7.6-3.6 0-7.12154 1.2-10.69141 3.7l1.31295-4.9c3.4091-1.9 7.05026-2.8 10.85026-2.8 7 0 9.50858 3.7 7.52576 11.1l-5.12501 19.5zm-.75397-15.1l-7.46795 1c-2.28038.3-4.14115.9-5.42871 1.6-1.31436.8-2.2895 2.2-2.8254 4.2-.40192 1.5-.19666 2.6.6354 3.6.75884.9 2.02486 1.4 3.82486 1.4 2.4 0 4.51436-.8 6.56988-2.5s3.3182-3.8 3.98808-6.3l.70384-3zm15.80615 10.8h-.1l-1.15218 4.3h-4.8l11.84335-44.2h4.8l-5.2518 19.6h.1c3.4718-4 7.3809-5.9 11.8809-5.9 3.8 0 6.45167 1.3 7.9282 4 1.47654 2.7 1.51192 6.3.33295 10.7-1.33975 5-3.61155 9-6.8154 12-3.20384 3-7.00576 4.5-11.20576 4.5-3.9 0-6.4445-1.7-7.56026-5zm3.04219-12.1l-1.12539 4.2c-.66987 2.5-.43257 4.6.71192 6.3 1.14449 1.7 2.90333 2.6 5.40333 2.6 2.9 0 5.49475-1.1 7.68423-3.3s3.92014-5.3 4.96514-9.2c.88423-3.3.7809-5.9-.21-7.8-.9909-1.9-2.84974-2.8-5.44974-2.8-2.8 0-5.26795 1-7.47705 2.9-2.18231 1.8-3.72539 4.2-4.50244 7.1zm30.70563 16.4h-4.8l11.84335-44.2h4.8l-11.84335 44.2zm37.3709-13.7h-21.1c-.78423 3.3-.5809 5.9.6368 7.7 1.21769 1.8 3.37653 2.7 6.37653 2.7 3.4 0 6.69475-1.1 10.18423-3.3l-1.20577 4.5c-3.1091 1.9-6.87705 2.9-11.17705 2.9-4.2 0-7.12487-1.4-8.8014-4.1-1.67654-2.7-1.85834-6.5-.54539-11.4 1.23257-4.6 3.55078-8.4 6.95462-11.4 3.37706-2.9 7.07898-4.4 10.97898-4.4s6.55167 1.3 8.0818 3.8c1.43012 2.5 1.5923 6 .38653 10.5l-.76988 2.5zm-3.8014-4.1c.75025-2.8.61295-4.9-.28513-6.4s-2.48372-2.3-4.88372-2.3c-2.3 0-4.41436.8-6.34307 2.4-2.02872 1.6-3.49142 3.7-4.58808 6.3h16.1zm49.14847-22.2c-.76603-.5-1.78564-.8-2.98564-.8-3.3 0-5.5627 2.1-6.68808 6.3l-1.23257 4.6h7l-1.0986 4.1h-7l-6.91308 25.8h-4.8l6.91309-25.8h-5.1l1.0986-4.1h5.1l1.28615-4.8c.83064-3.1 2.40051-5.6 4.68282-7.4 2.28231-1.8 4.82346-2.7 7.52346-2.7 1.5 0 2.54641.2 3.36603.5l-1.15218 4.3zm5.49447 40.7c-4.4 0-7.52488-1.4-9.47462-4.2-1.84974-2.8-2.15833-6.5-.92576-11.1 1.33974-5 3.78475-8.9 7.235-11.7 3.45026-2.8 7.5254-4.2 12.2254-4.2 4.4 0 7.52486 1.4 9.3014 4.1 1.77654 2.7 1.95833 6.5.64538 11.4-1.28616 4.8-3.60436 8.6-7.05462 11.4-3.47706 2.9-7.45218 4.3-11.95218 4.3zm7.68821-27.2c-3.1 0-5.76795 1-8.13064 3.1-2.3627 2.1-4.03974 5-5.00436 8.6-.93782 3.5-.78808 6.3.44923 8.4 1.2641 2 3.36935 3.1 6.46935 3.1 3.1 0 5.76795-1 7.90385-3 2.2359-2 3.78616-4.8 4.77757-8.5.99141-3.7.96846-6.6-.19564-8.6-1.1373-2.1-3.16936-3.1-6.26936-3.1zm37.29808 1.5c-.63923-.6-1.73205-1-3.33205-1-2 0-3.96795 1-5.87705 2.9-1.9091 1.9-3.30577 4.5-4.2168 7.9l-4.07283 15.2h-4.8l7.98489-29.8h4.8l-1.6345 6.1h.1c1.2627-2.1 2.69142-3.7 4.41296-4.9 1.72154-1.2 3.4823-1.8 5.1823-1.8 1.2 0 2.17321.1 2.79283.4l-1.33975 5z" class="st5"/><g class="st4"><path d="M1303.71852 470.8h-4.8l4.58193-17.1c.88423-3.3 1.02731-5.7.42924-7.2-.59808-1.5-2.11052-2.2-4.51052-2.2-2 0-4.04115.9-5.95025 2.8-1.9091 1.9-3.1986 4.1-3.89526 6.7l-4.55514 17h-4.8l4.7427-17.7c1.5809-5.9.05795-8.8-4.44205-8.8-2.1 0-4.04115.9-5.89666 2.6-1.88231 1.8-3.0718 4-3.84885 6.9l-4.55514 17h-4.8l7.98489-29.8h4.8l-1.25937 4.7h.1c3.06462-3.6 6.64693-5.4 10.74693-5.4 2 0 3.63923.6 4.84449 1.7 1.20525 1.1 1.90333 2.6 1.89423 4.5 3.29859-4.1 7.16128-6.2 11.56128-6.2 6.6 0 8.7014 4.1 6.53102 12.2l-4.90347 18.3z" class="st5"/></g><g class="st4"><path d="M1334.11852 470.8h-4.8l1.25936-4.7h-.1c-3.06462 3.6-6.54692 5.4-10.64692 5.4-3 0-5.08564-.8-6.35693-2.4-1.27128-1.6-1.50858-3.7-.81192-6.3 1.50052-5.6 5.65796-8.8 12.39911-9.7l9.24833-1.3c1.36655-5.1.03642-7.6-4.06358-7.6-3.6 0-7.12154 1.2-10.69141 3.7l1.31295-4.9c3.4091-1.9 7.05026-2.8 10.85026-2.8 7 0 9.50858 3.7 7.52576 11.1l-5.12501 19.5zm-.75397-15.1l-7.46795 1c-2.28038.3-4.14115.9-5.42871 1.6-1.31436.8-2.2895 2.2-2.8254 4.2-.40192 1.5-.19666 2.6.6354 3.6.75884.9 2.02486 1.4 3.82486 1.4 2.4 0 4.51436-.8 6.56988-2.5s3.3182-3.8 3.98808-6.3l.70384-3z" class="st5"/></g><path d="M1347.81852 470.8h-4.8l11.84335-44.2h4.8l-11.84335 44.2zm57.51168-29.9l-19.88488 29.8h-4.7l-3.31512-29.8h5.2l1.7855 21.7c.17128 1.6.09616 3-.12538 4.2h.1c.60192-1.5 1.25025-2.8 1.99859-4.1l13.7413-21.8h5.2z" class="st5"/><g class="st4"><path d="M1430.48942 457.1h-21.1c-.78423 3.3-.5809 5.9.6368 7.7 1.21769 1.8 3.37653 2.7 6.37653 2.7 3.4 0 6.79475-1.1 10.18423-3.3l-1.20577 4.5c-3.1091 1.9-6.87705 2.9-11.17705 2.9-4.2 0-7.12487-1.4-8.8014-4.1-1.67654-2.7-1.85834-6.5-.54539-11.4 1.23257-4.6 3.55078-8.4 6.95462-11.4 3.37706-2.9 7.07898-4.4 10.97898-4.4s6.55167 1.3 8.0818 3.8c1.43012 2.5 1.5923 6 .38653 10.5l-.76988 2.5zm-3.8014-4.1c.75025-2.8.61295-4.9-.28513-6.4s-2.48372-2.3-4.88372-2.3c-2.3 0-4.41436.8-6.34307 2.4-2.02872 1.6-3.49142 3.7-4.58808 6.3h16.1z" class="st5"/></g><g class="st4"><path d="M1456.21725 445.8c-.63923-.6-1.73205-1-3.33205-1-2 0-3.96795 1-5.87705 2.9-1.9091 1.9-3.30577 4.5-4.2168 7.9l-4.07283 15.2h-4.8l7.98489-29.8h4.8l-1.6345 6.1h.1c1.2627-2.1 2.69142-3.7 4.41296-4.9 1.72154-1.2 3.4823-1.8 5.1823-1.8 1.2 0 2.17321.1 2.79283.4l-1.33975 5z" class="st5"/></g><path d="M1459.51852 470.8h-4.8l7.98489-29.8h4.8l-7.98489 29.8zm7.7213-37.4c-.9 0-1.51962-.3-1.95885-.9-.43923-.6-.55166-1.3-.3105-2.2.24115-.9.72871-1.6 1.48948-2.2.76077-.6 1.54115-.9 2.44115-.9.9 0 1.51962.3 1.95885.9.43923.6.55167 1.3.31051 2.2-.24115.9-.72872 1.6-1.48949 2.2-.76077.6-1.54115.9-2.44115.9zm27.39667-2.6c-.76603-.5-1.78564-.8-2.98564-.8-3.3 0-5.5627 2.1-6.68808 6.3l-1.23257 4.6h7l-1.0986 4.1h-7l-6.91308 25.8h-4.8l6.91309-25.8h-5.1l1.0986-4.1h5.1l1.28615-4.8c.83064-3.1 2.40051-5.6 4.68282-7.4 2.28231-1.8 4.82346-2.7 7.52346-2.7 1.5 0 2.54641.2 3.36603.5l-1.15218 4.3zm-1.91797 40h-4.8l7.98489-29.8h4.8l-7.98489 29.8zm7.7213-37.4c-.9 0-1.51962-.3-1.95885-.9s-.55166-1.3-.3105-2.2c.24115-.9.72871-1.6 1.48948-2.2.76077-.6 1.54115-.9 2.44115-.9.9 0 1.51962.3 1.95885.9.43923.6.55167 1.3.31051 2.2-.24115.9-.72872 1.6-1.48949 2.2-.76077.6-1.64115.9-2.44115.9zm22.55383 36c-2.67513 1.4-5.5627 2.1-8.7627 2.1-4.3 0-7.32487-1.4-9.1746-4.2-1.84975-2.8-2.18513-6.4-1.00616-10.8 1.31295-4.9 3.78475-8.9 7.3618-11.8 3.60385-3 7.80578-4.5 12.50578-4.5 2.6 0 4.76602.5 6.49807 1.5l-1.31295 4.9c-1.77128-1.6-3.98372-2.3-6.48372-2.3-3 0-5.89474 1.1-8.38423 3.3-2.58949 2.2-4.26654 5.1-5.20436 8.6-.93782 3.5-.78808 6.3.57602 8.3 1.2641 2 3.49615 3 6.59615 3 2.6 0 5.34116-.9 7.99667-2.6l-1.20577 4.5zm28.22487 1.4h-4.8l1.25936-4.7h-.1c-3.06462 3.6-6.54692 5.4-10.64692 5.4-3 0-5.08564-.8-6.35693-2.4-1.27128-1.6-1.50858-3.7-.81192-6.3 1.50052-5.6 5.65796-8.8 12.39911-9.7l9.24833-1.3c1.36655-5.1.03642-7.6-4.06358-7.6-3.6 0-7.12154 1.2-10.69141 3.7l1.31295-4.9c3.4091-1.9 7.05026-2.8 10.85026-2.8 7 0 9.50858 3.7 7.52576 11.1l-5.12501 19.5zm-.75397-15.1l-7.46795 1c-2.28038.3-4.14115.9-5.42871 1.6-1.31436.8-2.2895 2.2-2.8254 4.2-.40192 1.5-.19666 2.6.6354 3.6.75884.9 2.02486 1.4 3.82486 1.4 2.4 0 4.51436-.8 6.56988-2.5s3.3182-3.8 3.98808-6.3l.70384-3zm23.73435 14.8c-1.26076.6-2.84115.9-4.74115.9-5.2 0-7.02295-2.9-5.46884-8.7l4.7427-17.7h-5.1l1.0986-4.1h5.1l1.95602-7.3 5.20192-1.5-2.35795 8.8h7.5l-1.0986 4.1h-7.5l-4.50154 16.8c-.5359 2-.61102 3.4-.15218 4.3.45885.9 1.45167 1.3 3.05167 1.3 1.2 0 2.28038-.3 3.36795-1l-1.0986 4.1zm11.01962.3h-4.8l7.98489-29.8h4.8l-7.98489 29.8zm7.7213-37.4c-.9 0-1.51962-.3-1.95885-.9-.43923-.6-.55166-1.3-.3105-2.2.24115-.9.72871-1.6 1.48948-2.2.76077-.6 1.54115-.9 2.44115-.9.9 0 1.51962.3 1.95885.9.43923.6.55167 1.3.31051 2.2-.24115.9-.72872 1.6-1.48949 2.2-.76077.6-1.54115.9-2.44115.9zm14.29114 38.1c-4.4 0-7.52488-1.4-9.47462-4.2-1.84974-2.8-2.15833-6.5-.92576-11.1 1.33974-5 3.78475-8.9 7.235-11.7 3.45026-2.8 7.5254-4.2 12.2254-4.2 4.4 0 7.52486 1.4 9.3014 4.1 1.77654 2.7 1.95833 6.5.64538 11.4-1.28616 4.8-3.60436 8.6-7.05462 11.4-3.47706 2.9-7.45218 4.3-11.95218 4.3zm7.58821-27.2c-3.1 0-5.76795 1-8.13064 3.1-2.3627 2.1-4.03974 5-5.00436 8.6-.93782 3.5-.78808 6.3.44923 8.4 1.2641 2 3.36935 3.1 6.46935 3.1 3.1 0 5.76795-1 7.90385-3 2.2359-2 3.78616-4.8 4.77757-8.5.99141-3.7.96846-6.6-.19564-8.6-1.0373-2.1-3.16936-3.1-6.26936-3.1zm39.79935 26.5h-4.8l4.55514-17c1.68808-6.3.24551-9.5-4.35449-9.5-2.4 0-4.64115.9-6.62346 2.7-2.0823 1.8-3.3986 4.1-4.12205 6.8l-4.55514 17h-4.8l7.98489-29.8h4.8l-1.33975 5h.1c3.3182-3.8 7.02731-5.7 11.32731-5.7 3.3 0 5.50526 1.1 6.64256 3.2 1.13731 2.1 1.20667 5.2.16167 9.1l-4.97668 18.2z" class="st5"/></g><g><path d="M1685.08507 173.5c2.85305 0 5.7061.8 8.46713 2.4 2.76102 1.6 4.8778 3.9 6.44238 6.9 1.56458 3 2.30085 6.1 2.30085 9.4 0 3.2-.73627 6.3-2.30085 9.3s-3.68136 5.3-6.35035 6.9c-2.76102 1.6-5.61407 2.5-8.55916 2.5-2.94509 0-5.89018-.8-8.55916-2.5-2.76102-1.6-4.8778-4-6.35035-6.9-1.56458-3-2.30085-6.1-2.30085-9.3 0-3.3.73627-6.4 2.30085-9.4s3.68136-5.3 6.44238-6.9c2.76102-1.6 5.61408-2.4 8.46713-2.4zm0 3.1c-2.39288 0-4.78577.7-7.08662 2-2.30085 1.3-4.0495 3.3-5.33797 5.8s-1.93271 5.1-1.93271 7.8.64423 5.3 1.93271 7.8c1.28848 2.5 3.03712 4.4 5.33797 5.8 2.30085 1.4 4.69374 2.1 7.17865 2.1 2.48492 0 4.8778-.7 7.17866-2.1 2.30085-1.4 4.0495-3.3 5.33797-5.8 1.28847-2.5 1.93271-5.1 1.93271-7.8s-.64424-5.3-1.93271-7.8-3.03712-4.4-5.33797-5.8c-2.48492-1.4-4.78577-2-7.27069-2zm-7.54679 26v-20.2h6.35035c2.20881 0 3.7734.2 4.69373.6 1.01238.4 1.74865 1 2.30085 1.9.5522.9.8283 1.9.8283 3 0 1.5-.46016 2.8-1.47254 3.8-1.01237 1.1-2.20881 1.7-3.86542 1.8.64423.3 1.19644.7 1.56457 1.1.73628.8 1.65662 2.1 2.76102 4L1693 202.5h-3.68136l-1.6566-3.2c-1.28848-2.5-2.30086-4.1-3.12916-4.7-.5522-.5-1.38051-.7-2.39289-.7h-1.74864v8.6h-2.85306zm3.03712-11.4h3.58933c1.74865 0 2.94509-.3 3.58933-.8s.92034-1.3.92034-2.2c0-.6-.18407-1.1-.46017-1.6s-.73628-.8-1.28848-1.1c-.5522-.2-1.56458-.3-3.03712-.3h-3.40526v6z" class=""/></g></svg>