<svg xmlns="http://www.w3.org/2000/svg" role="img" viewBox="-23.98 -23.98 1246.96 1246.96"><title>Bao Project logo</title><path d="M0 0v1200h1200V0H0z"/><path fill="#30aac6" d="M294 522h143c3.993-48.882 45.582-88.59 92-98.49 10.48-2.235 21.355-1.51 32-1.51h49c30.682 0 61.646-2.807 90 11.37 24.427 12.214 44.509 33.375 54.988 58.63 3.112 7.498 5.115 15.105 6.892 23 .681 3.021.396 7.906 2.299 10.412 2.617 3.447 10.891 4.143 14.821 5.539 12.12 4.304 23.729 9.15 35 15.355 14.845 8.171 29.345 19.298 40.911 31.694 6.508 6.976 11.722 16.003 19.089 22 47.084-69.794 40.338-163.522-16.17-226-13.449-14.87-30.239-27.161-47.83-36.691-21.099-11.431-46.061-18.58-70-20.22-13.544-.927-27.424-.089-41-.089H510c-24.69 0-49.711-1.596-74 3.662-45.102 9.764-85.329 37.003-110.999 75.338-9.696 14.48-17.67 30.226-22.577 47-7.63 26.087-8.424 52.022-8.424 79z"/><path fill="#71c5d8" d="M535.667 422.333c-.445.445.611.389.666.334.445-.445-.611-.389-.666-.334z"/><path fill="#98d5e3" d="M537.667 422.333c-.445.445.611.389.666.334.445-.445-.611-.389-.666-.334z"/><path fill="#cbeaf1" d="M539 422c1.506.683 2.315.826 4 1-1.506-.683-2.315-.826-4-1z"/><path fill="#fff" d="M437 778h155c27.99 0 58.631 3.427 86-3.375 53.847-13.382 90.075-65.558 84.83-120.625-1.19-12.495-4.317-24.455-9.257-36-2.311-5.399-7.814-11.284-8.788-17-.746-4.371 3.95-9.369 5.906-13 4.159-7.723 7.331-16.48 9.411-25 7.555-30.953 1.904-65.718-16.307-92-5.111-7.376-11.104-14.193-17.799-20.155-13.133-11.696-28.855-20.645-45.996-24.95-23.638-5.937-48.841-3.895-73-3.895-42.264 0-86.479-4.856-123 20.721-7.804 5.466-14.61 12.107-20.841 19.279-7.03 8.092-12.4 17.281-16.85 27C432.113 520.003 437 556.815 437 590v188z"/><path fill="#cbeaf1" d="M657 422c1.506.683 2.315.826 4 1-1.506-.683-2.315-.826-4-1z"/><path fill="#98d5e3" d="M661.667 422.333c-.445.445.611.389.666.334.445-.445-.611-.389-.666-.334z"/><path fill="#64bfd4" d="M663.667 422.333c-.445.445.611.389.666.334.445-.445-.611-.389-.666-.334m-135 1c-.445.445.611.389.666.334.445-.445-.611-.389-.666-.334z"/><path fill="#b1dfea" d="M530 423c1.248.685 1.549.749 3 1-1.248-.685-1.549-.749-3-1m137 0c1.248.685 1.549.749 3 1-1.248-.685-1.548-.749-3-1z"/><path fill="#cbeaf1" d="M525.667 424.333c-.445.445.611.389.666.334.445-.445-.611-.389-.666-.334z"/><path fill="#98d5e3" d="M673.667 424.333c-.445.445.611.389.666.334.445-.445-.611-.389-.666-.334z"/><path fill="#a4dae6" d="M520.667 425.333c-.445.445.611.389.666.334.445-.445-.611-.389-.666-.334z"/><path fill="#71c5d8" d="M678.667 425.333c-.445.445.611.389.666.334.445-.445-.611-.389-.666-.334z"/><path fill="#cbeaf1" d="M517.667 426.333c-.445.445.611.389.666.334.445-.445-.611-.389-.666-.334z"/><path fill="#d8eff4" d="M514.667 427.333c-.445.445.611.389.666.334.445-.445-.611-.389-.666-.334z"/><path fill="#a4dae6" d="M685 427l1 1-1-1z"/><path fill="#8bcfdf" d="M511 428l1 1-1-1z"/><path fill="#7ecadb" d="M508 429l1 1-1-1m183 0l1 1-1-1z"/><path fill="#a4dae6" d="M506 430l1 1-1-1m187 0l1 1-1-1z"/><path fill="#7ecadb" d="M501 432l1 1-1-1m197 0l1 1-1-1m-199 1l1 1-1-1m201 0l1 1-1-1m-203 1l1 1-1-1m205 0l1 1-1-1z"/><path fill="#a4dae6" d="M492 437l1 1-1-1z"/><path fill="#b1dfea" d="M707 437l1 1-1-1z"/><path fill="#7ecadb" d="M490 438l1 1-1-1z"/><path fill="#8bcfdf" d="M709 438l1 1-1-1z"/><path fill="#98d5e3" d="M487 440l1 1-1-1m225 0l1 1-1-1z"/><path fill="#8bcfdf" d="M484 442l1 1-1-1m231 0l1 1-1-1z"/><path fill="#98d5e3" d="M480 445l1 1-1-1m239 0l1 1-1-1z"/><path fill="#7ecadb" d="M475 449l1 1-1-1m249 0l1 1-1-1z"/><path fill="#98d5e3" d="M474 450l1 1-1-1z"/><path fill="#a4dae6" d="M725 450l1 1-1-1z"/><path fill="#b1dfea" d="M473 451l1 1-1-1m253 0l1 1-1-1m-254 1l1 1-1-1m255 0l1 1-1-1m-260 5l1 1-1-1m265 0l1 1-1-1m-266 1l1 1-1-1m267 0l1 1-1-1m-268 1l1 1-1-1m269 0l1 1-1-1z"/><path fill="#7ecadb" d="M464 460l1 1-1-1z"/><path fill="#8bcfdf" d="M735 460l1 1-1-1z"/><path fill="#7ecadb" d="M463 461l1 1-1-1m273 0l1 1-1-1z"/><path fill="#b1dfea" d="M460 465l1 1-1-1m279 0l1 1-1-1z"/><path fill="#7ecadb" d="M459 466l1 1-1-1m281 0l1 1-1-1z"/><path fill="#a4dae6" d="M457 469l1 1-1-1m285 0l1 1-1-1m-289 6l1 1-1-1z"/><path fill="#cbeaf1" d="M562.667 475.333c-.445.445.611.389.666.334.445-.445-.611-.389-.666-.334z"/><path fill="#98d5e3" d="M564.667 475.333c-.445.445.611.389.666.334.445-.445-.611-.389-.666-.334z"/><path fill="#64bfd4" d="M566 475c1.769.779 3.036.912 5 1-1.769-.779-3.036-.912-5-1z"/><path fill="#30aac6" d="M501 522h198c-2.558-6.143-5.908-11.759-10.015-17-22.579-28.816-55.478-30-88.985-30-13.51 0-27.652-.895-41 1.464-25.331 4.476-48.054 21.652-58 45.536z"/><path fill="#64bfd4" d="M629 475c1.769.779 3.036.912 5 1-1.769-.779-3.036-.912-5-1z"/><path fill="#98d5e3" d="M634.667 475.333c-.445.445.611.389.666.334.445-.445-.611-.389-.666-.334z"/><path fill="#cbeaf1" d="M636.667 475.333c-.445.445.611.389.666.334.445-.445-.611-.389-.666-.334z"/><path fill="#a4dae6" d="M746 475l1 1-1-1z"/><path fill="#98d5e3" d="M557.667 476.333c-.445.445.611.389.666.334.445-.445-.611-.389-.666-.334z"/><path fill="#64bfd4" d="M639.667 476.333c-.445.445.611.389.666.334.445-.445-.611-.389-.666-.334z"/><path fill="#bee4ed" d="M641.667 476.333c-.445.445.611.389.666.334.445-.445-.611-.389-.666-.334z"/><path fill="#71c5d8" d="M553.667 477.333c-.445.445.611.389.666.334.445-.445-.611-.389-.666-.334z"/><path fill="#a4dae6" d="M645.667 477.333c-.445.445.611.389.666.334.445-.445-.611-.389-.666-.334z"/><path fill="#7ecadb" d="M451 478l1 1-1-1z"/><path fill="#8bcfdf" d="M549.667 478.333c-.445.445.611.389.666.334.445-.445-.611-.389-.666-.334z"/><path fill="#bee4ed" d="M649.667 478.333c-.445.445.611.389.666.334.445-.445-.611-.389-.666-.334z"/><path fill="#7ecadb" d="M748 478l1 1-1-1m-96 1l1 1-1-1z"/><path fill="#98d5e3" d="M450 480l1 1-1-1m94 0l1 1-1-1m111 0l1 1-1-1m94 0l1 1-1-1z"/><path fill="#b1dfea" d="M449 482l1 1-1-1m90 0l1 1-1-1m121 0l1 1-1-1m90 0l1 1-1-1m-213 1l1 1-1-1m125 0l1 1-1-1m-214 1l1 1-1-1m303 0l1 1-1-1m-304 2l1 1-1-1z"/><path fill="#7ecadb" d="M532 486l1 1-1-1m135 0l1 1-1-1z"/><path fill="#b1dfea" d="M752 486l1 1-1-1m-222 1l1 1-1-1m139 0l1 1-1-1z"/><path fill="#98d5e3" d="M446 488l1 1-1-1m307 0l1 1-1-1z"/><path fill="#7ecadb" d="M445 490l1 1-1-1m81 0l1 1-1-1m147 0l1 1-1-1m81 0l1 1-1-1z"/><path fill="#b1dfea" d="M523 492l1 1-1-1m153 0l1 1-1-1m-232 1l1 1-1-1z"/><path fill="#98d5e3" d="M522 493l1 1-1-1m155 0l1 1-1-1z"/><path fill="#b1dfea" d="M755 493l1 1-1-1z"/><path fill="#7ecadb" d="M521 494l1 1-1-1m157 0l1 1-1-1m-235 1l1 1-1-1m313 0l1 1-1-1z"/><path fill="#8bcfdf" d="M442 498l1 1-1-1m315 0l1 1-1-1m-316 3l1 1-1-1m317 0l1 1-1-1z"/><path fill="#7ecadb" d="M512 503l1 1-1-1m175 0l1 1-1-1z"/><path fill="#b1dfea" d="M440.333 504.667c-.055.055-.111 1.111.334.666.055-.055.111-1.111-.334-.666M511 504l1 1-1-1m177 0l1 1-1-1m71.333.667c-.055.055-.111 1.111.334.666.055-.055.111-1.111-.334-.666z"/><path fill="#7ecadb" d="M439 507v3c.696-1.554.696-1.446 0-3z"/><path fill="#a4dae6" d="M508 508l1 1-1-1m183 0l1 1-1-1z"/><path fill="#b1dfea" d="M760.333 508.667c-.055.055-.111 1.111.334.666.055-.055.111-1.111-.334-.666z"/><path fill="#98d5e3" d="M506 511l1 1-1-1m187 0l1 1-1-1z"/><path fill="#bee4ed" d="M438.333 513.667c-.055.055-.111 1.111.334.666.055-.055.111-1.111-.334-.666m323 0c-.055.055-.111 1.111.334.666.055-.055.111-1.111-.334-.666z"/><path fill="#98d5e3" d="M503 516l1 1-1-1m193 0l1 1-1-1z"/><path fill="#71c5d8" d="M437.333 517.667c-.055.055-.111 1.111.334.666.055-.055.111-1.111-.334-.666m325 0c-.055.055-.111 1.111.334.666.055-.055.111-1.111-.334-.666z"/><path fill="#98d5e3" d="M502 518l1 1-1-1m195 0l1 1-1-1z"/><path fill="#b1dfea" d="M437.333 519.667c-.055.055-.111 1.111.334.666.055-.055.111-1.111-.334-.666m325 0c-.055.055-.111 1.111.334.666.055-.055.111-1.111-.334-.666z"/><path fill="#98d5e3" d="M501 520l1 1-1-1m197 0l1 1-1-1z"/><path fill="#23889f" d="M294 522c4.215 1.769 9.464 1 14 1h129c-4.215-1.769-9.465-1-14-1H294z"/><path fill="#abced6" d="M500 522l1 1-1-1z"/><path fill="#23889f" d="M501 522c5.462 2.292 13.113 1 19 1h179c-5.462-2.292-13.113-1-19-1H501z"/><path fill="#9ec9d2" d="M699 522l1 1-1-1z"/><path fill="#156577" d="M294 523v154h142V576c0-17.208-2.145-36.06 1-53H294m206 0c-2.373 8.696-4.964 16.939-5.83 26-1.441 15.076-.17 30.854-.17 46v82h206c4.879-17.883 7.732-33.555 3.346-52-1.323-5.564-3.555-10.894-6.105-16-1.35-2.703-3.843-5.868-3.843-9 0-3.132 2.493-6.297 3.843-9 2.55-5.106 4.782-10.436 6.105-16 4.386-18.445 1.533-34.117-3.346-52H500z"/><path fill="#b6cfd5" d="M499 524l1 1-1-1m201 0l1 1-1-1z"/><path fill="#508c99" d="M436 525v4c.71-1.759.71-2.24 0-4z"/><path fill="#5e95a2" d="M499 525l1 1-1-1m201 0l1 1-1-1z"/><path fill="#6d9faa" d="M763 525v4c.71-1.759.71-2.24 0-4z"/><path fill="#99bcc4" d="M498 527l1 1-1-1m203 0l1 1-1-1z"/><path fill="#156577" d="M764 527c0 16.452-1.566 32.478-7.425 48-2.075 5.498-4.536 10.892-7.448 16-1.541 2.705-4.289 5.725-4.289 9 0 6.053 7.314 14.34 9.735 20 6.621 15.483 12.433 36.173 8.427 53 32.963-6.804 64.15-23.186 88-47 5.726-5.717 11.18-11.573 16.113-18 1.712-2.231 4.463-5.035 4.646-8 .207-3.355-3.059-6.57-4.97-9-4.886-6.212-10.013-12.504-15.79-17.911C826.798 550.438 796.725 533.35 764 527z"/><path fill="#23889f" d="M766 527c1.248.685 1.548.749 3 1-1.248-.685-1.548-.749-3-1z"/><path fill="#8ab2bb" d="M436 529v148c1.552-3.699 1-8.017 1-12V542c0-4.26.661-9.041-1-13m327 0v13c1.591-3.791 1.591-9.209 0-13z"/><path fill="#2690a8" d="M774.667 529.333c-.445.445.611.389.666.334.445-.445-.611-.389-.666-.334z"/><path fill="#99bcc4" d="M497 530l1 1-1-1m205 0l1 1-1-1z"/><path fill="#a7c5cc" d="M496 533l1 1-1-1m207 0l1 1-1-1z"/><path fill="#6d9faa" d="M496 534l1 1-1-1m207 0l1 1-1-1z"/><path fill="#7ba8b3" d="M495 537v3c.696-1.554.696-1.446 0-3z"/><path fill="#b6cfd5" d="M704 537l1 1-1-1z"/><path fill="#508c99" d="M704.333 538.667c-.055.055-.111 1.111.334.666.055-.055.111-1.111-.334-.666z"/><path fill="#c5d9dd" d="M494 542l1 1-1-1m211 0l1 1-1-1z"/><path fill="#508c99" d="M763 542v3c.696-1.554.696-1.446 0-3z"/><path fill="#8ab2bb" d="M494.333 543.667c-.055.055-.111 1.111.334.666.055-.055.111-1.111-.334-.666m211 0c-.055.055-.111 1.111.334.666.055-.055.111-1.111-.334-.666z"/><path fill="#508c99" d="M494.333 545.667c-.055.055-.111 1.111.334.666.055-.055.111-1.111-.334-.666m211 0c-.055.055-.111 1.111.334.666.055-.055.111-1.111-.334-.666z"/><path fill="#c5d9dd" d="M762.333 548.667c-.055.055-.111 1.111.334.666.055-.055.111-1.111-.334-.666z"/><path fill="#8ab2bb" d="M762.333 550.667c-.055.055-.111 1.111.334.666.055-.055.111-1.111-.334-.666z"/><path fill="#c5d9dd" d="M493 551v126c3.306-7.879 1-20.466 1-29v-86c0-3.702.441-7.565-1-11m213 0v7c1.059-2.534 1.059-4.466 0-7z"/><path fill="#a7c5cc" d="M761.333 555.667c-.055.055-.111 1.111.334.666.055-.055.111-1.111-.334-.666z"/><path fill="#508c99" d="M761.333 557.667c-.055.055-.111 1.111.334.666.055-.055.111-1.111-.334-.666z"/><path fill="#99bcc4" d="M760 561l1 1-1-1z"/><path fill="#508c99" d="M705.333 562.667c-.055.055-.111 1.111.334.666.055-.055.111-1.111-.334-.666z"/><path fill="#5e95a2" d="M760 562l1 1-1-1z"/><path fill="#8ab2bb" d="M705.333 564.667c-.055.055-.111 1.111.334.666.055-.055.111-1.111-.334-.666z"/><path fill="#99bcc4" d="M759 565l1 1-1-1z"/><path fill="#d3e2e6" d="M705.333 566.667c-.055.055-.111 1.111.334.666.055-.055.111-1.111-.334-.666z"/><path fill="#508c99" d="M759 566l1 1-1-1z"/><path fill="#b6cfd5" d="M758 568l1 1-1-1z"/><path fill="#7ba8b3" d="M704 569v3c.696-1.554.696-1.446 0-3z"/><path fill="#6d9faa" d="M758 569l1 1-1-1z"/><path fill="#b6cfd5" d="M757 571l1 1-1-1z"/><path fill="#6d9faa" d="M757 572l1 1-1-1z"/><path fill="#5e95a2" d="M703 574l1 1-1-1z"/><path fill="#a7c5cc" d="M756 574l1 1-1-1m-53 1l1 1-1-1z"/><path fill="#5e95a2" d="M756 575l1 1-1-1z"/><path fill="#8ab2bb" d="M755 577l1 1-1-1z"/><path fill="#7ba8b3" d="M702 578l1 1-1-1z"/><path fill="#b6cfd5" d="M754 579l1 1-1-1z"/><path fill="#508c99" d="M754 580l1 1-1-1z"/><path fill="#8ab2bb" d="M701 581l1 1-1-1z"/><path fill="#6d9faa" d="M753 582l1 1-1-1z"/><path fill="#508c99" d="M700 583l1 1-1-1z"/><path fill="#a7c5cc" d="M700 584l1 1-1-1z"/><path fill="#8ab2bb" d="M752 584l1 1-1-1m-53 2l1 1-1-1m52 0l1 1-1-1z"/><path fill="#6d9faa" d="M698 588l1 1-1-1m52 0l1 1-1-1m-53 2l1 1-1-1m52 0l1 1-1-1z"/><path fill="#c5d9dd" d="M748 591l1 1-1-1z"/><path fill="#8ab2bb" d="M696 592l1 1-1-1z"/><path fill="#508c99" d="M748 592l1 1-1-1z"/><path fill="#a7c5cc" d="M747 593l1 1-1-1z"/><path fill="#99bcc4" d="M695 594l1 1-1-1z"/><path fill="#6d9faa" d="M746 595l1 1-1-1z"/><path fill="#c5d9dd" d="M694 596l1 1-1-1m51 0l1 1-1-1z"/><path fill="#7ba8b3" d="M693 597l1 1-1-1m51 1l1 1-1-1z"/><path fill="#c5d9dd" d="M692.333 599.667c-.055.055-.111 1.111.334.666.055-.055.111-1.111-.334-.666m51 0c-.055.055-.111 1.111.334.666.055-.055.111-1.111-.334-.666z"/><path fill="#45c494" d="M872 600c-15.872 25.487-42.836 47.211-70 59.691-7.802 3.585-15.839 6.752-24 9.423-3.917 1.282-9.157 1.767-12.566 4.188-3.09 2.195-2.588 7.351-3.319 10.698-1.876 8.592-4.413 16.838-7.719 25-8.238 20.337-23.37 37.674-41.396 49.971-14.812 10.104-33.1 17.069-51 18.858-17.658 1.766-36.251.171-54 .171H436V678H294v205h400c14.238 0 28.797.883 43-.089 17.773-1.218 35.295-5.537 52-11.606 16.13-5.86 31.27-14.718 45-24.935 44.828-33.356 72.391-88.4 71.995-144.37-.256-36.312-11.747-71.987-31.995-102h-2z"/><path fill="#7ba8b3" d="M744 601l1 1-1-1m-51 1l1 1-1-1z"/><path fill="#c5d9dd" d="M694 603l1 1-1-1m51 0l1 1-1-1z"/><path fill="#6d9faa" d="M746 604l1 1-1-1z"/><path fill="#99bcc4" d="M695 605l1 1-1-1z"/><path fill="#a7c5cc" d="M747 606l1 1-1-1z"/><path fill="#8ab2bb" d="M696 607l1 1-1-1z"/><path fill="#508c99" d="M748 607l1 1-1-1z"/><path fill="#c5d9dd" d="M748 608l1 1-1-1z"/><path fill="#6d9faa" d="M697 609l1 1-1-1m52 0l1 1-1-1m-51 2l1 1-1-1z"/><path fill="#7ba8b3" d="M750 611l1 1-1-1z"/><path fill="#8ab2bb" d="M699 613l1 1-1-1m52 0l1 1-1-1z"/><path fill="#a7c5cc" d="M700 615l1 1-1-1z"/><path fill="#8ab2bb" d="M752 615l1 1-1-1z"/><path fill="#508c99" d="M700 616l1 1-1-1z"/><path fill="#6d9faa" d="M753 617l1 1-1-1z"/><path fill="#8ab2bb" d="M701 618l1 1-1-1z"/><path fill="#508c99" d="M754 619l1 1-1-1z"/><path fill="#b6cfd5" d="M754 620l1 1-1-1z"/><path fill="#7ba8b3" d="M702 621l1 1-1-1z"/><path fill="#99bcc4" d="M755 622l1 1-1-1z"/><path fill="#a7c5cc" d="M703 624l1 1-1-1z"/><path fill="#5e95a2" d="M756 624l1 1-1-1m-53 1l1 1-1-1z"/><path fill="#b6cfd5" d="M756 625l1 1-1-1z"/><path fill="#6d9faa" d="M757 627l1 1-1-1z"/><path fill="#7ba8b3" d="M704 628v3c.696-1.554.696-1.446 0-3z"/><path fill="#b6cfd5" d="M757 628l1 1-1-1z"/><path fill="#6d9faa" d="M758 630l1 1-1-1z"/><path fill="#b6cfd5" d="M758 631l1 1-1-1z"/><path fill="#c5d9dd" d="M705.333 632.667c-.055.055-.111 1.111.334.666.055-.055.111-1.111-.334-.666z"/><path fill="#5e95a2" d="M759 633l1 1-1-1z"/><path fill="#7ba8b3" d="M705.333 634.667c-.055.055-.111 1.111.334.666.055-.055.111-1.111-.334-.666z"/><path fill="#99bcc4" d="M759 634l1 1-1-1z"/><path fill="#508c99" d="M705.333 636.667c-.055.055-.111 1.111.334.666.055-.055.111-1.111-.334-.666z"/><path fill="#5e95a2" d="M760 637l1 1-1-1z"/><path fill="#99bcc4" d="M760 638l1 1-1-1z"/><path fill="#7ba8b3" d="M761 641v3c.696-1.554.696-1.446 0-3z"/><path fill="#c5d9dd" d="M706 642v7c1.059-2.534 1.059-4.466 0-7z"/><path fill="#508c99" d="M762.333 646.667c-.055.055-.111 1.111.334.666.055-.055.111-1.111-.334-.666z"/><path fill="#99bcc4" d="M762.333 648.667c-.055.055-.111 1.111.334.666.055-.055.111-1.111-.334-.666z"/><path fill="#c5d9dd" d="M762.333 650.667c-.055.055-.111 1.111.334.666.055-.055.111-1.111-.334-.666z"/><path fill="#508c99" d="M705.333 653.667c-.055.055-.111 1.111.334.666.055-.055.111-1.111-.334-.666z"/><path fill="#99bcc4" d="M705.333 655.667c-.055.055-.111 1.11.334.666.055-.055.111-1.111-.334-.666z"/><path fill="#508c99" d="M763 655v3c.696-1.554.696-1.446 0-3z"/><path fill="#8ab2bb" d="M763 658v14c1.667-3.972 1.667-10.028 0-14z"/><path fill="#7ba8b3" d="M704.333 660.667c-.055.055-.111 1.111.334.666.055-.055.111-1.111-.334-.666z"/><path fill="#6d9faa" d="M703 665l1 1-1-1z"/><path fill="#a7c5cc" d="M703 666l1 1-1-1z"/><path fill="#99bcc4" d="M702 669l1 1-1-1z"/><path fill="#309a87" d="M776.667 669.333c-.445.445.611.389.666.334.445-.445-.611-.389-.666-.334m-7 2c-.445.445.611.389.666.334.445-.445-.611-.389-.666-.334z"/><path fill="#99bcc4" d="M701 672l1 1-1-1z"/><path fill="#33a089" d="M765.667 672.333c-.445.445.611.389.666.334.445-.445-.611-.389-.666-.334z"/><path fill="#74d3af" d="M763.333 673.667c-.055.055-.111 1.111.334.666.055-.055.111-1.111-.334-.666z"/><path fill="#6d9faa" d="M700 674l1 1-1-1z"/><path fill="#c5d9dd" d="M700 675l1 1-1-1z"/><path fill="#39ac8d" d="M294 677c4.215 1.769 9.464 1 14 1h128c-4.215-1.769-9.465-1-14-1H294z"/><path fill="#a2e2ca" d="M436 677v101c2.701-6.436 1-16.049 1-23v-52c0-7.744 2.004-18.841-1-26z"/><path fill="#d1f0e4" d="M493 677v48c1.552-3.699 1-8.017 1-12v-23c0-4.26.661-9.041-1-13z"/><path fill="#39ac8d" d="M494 677c5.707 2.395 13.846 1 20 1h185c-5.462-2.292-13.113-1-19-1H494z"/><path fill="#b3ddd3" d="M699 677l1 1-1-1z"/><path fill="#d1f0e4" d="M762.333 677.667c-.055.055-.111 1.111.334.666.055-.055.111-1.111-.334-.666z"/><path fill="#45c494" d="M494 678v47h99c35.334 0 70.426.901 95.076-29 4.539-5.505 8.181-11.414 10.924-18H494z"/><path fill="#a2e2ca" d="M698 679l1 1-1-1m64.333.667c-.055.055-.111 1.111.334.666.055-.055.111-1.111-.334-.666M697 681l1 1-1-1z"/><path fill="#74d3af" d="M762.333 681.667c-.055.055-.111 1.111.334.666.055-.055.111-1.111-.334-.666z"/><path fill="#a2e2ca" d="M696 683l1 1-1-1m65.333 2.667c-.055.055-.111 1.111.334.666.055-.055.111-1.111-.334-.666M693 688l1 1-1-1z"/><path fill="#8bdabc" d="M760.333 690.667c-.056.056-.111 1.111.334.666.055-.055.111-1.111-.334-.666z"/><path fill="#aee5d0" d="M691 691l1 1-1-1z"/><path fill="#8bdabc" d="M759.333 694.667c-.055.055-.111 1.111.334.666.055-.055.111-1.111-.334-.666z"/><path fill="#b9e9d7" d="M688 695l1 1-1-1z"/><path fill="#96dec3" d="M687 696l1 1-1-1z"/><path fill="#8bdabc" d="M686 697l1 1-1-1m-8 8l1 1-1-1z"/><path fill="#a2e2ca" d="M677 706l1 1-1-1z"/><path fill="#b9e9d7" d="M755 706l1 1-1-1z"/><path fill="#8bdabc" d="M673 709l1 1-1-1z"/><path fill="#a2e2ca" d="M753 711l1 1-1-1z"/><path fill="#96dec3" d="M667 713l1 1-1-1z"/><path fill="#b9e9d7" d="M752 713l1 1-1-1m-1 2l1 1-1-1m-89 1l1 1-1-1m-2 1l1 1-1-1m90 0l1 1-1-1z"/><path fill="#8bdabc" d="M657 718l1 1-1-1z"/><path fill="#a2e2ca" d="M655 719l1 1-1-1m94 0l1 1-1-1z"/><path fill="#8bdabc" d="M652 720l1 1-1-1z"/><path fill="#96dec3" d="M649 721l1 1-1-1z"/><path fill="#8bdabc" d="M748 721l1 1-1-1z"/><path fill="#b9e9d7" d="M645.667 722.333c-.445.445.611.389.666.334.445-.445-.611-.389-.666-.334z"/><path fill="#7fd6b5" d="M639.667 723.333c-.445.445.611.389.666.334.445-.445-.611-.389-.666-.334z"/><path fill="#c5edde" d="M641.667 723.333c-.445.445.611.389.666.334.445-.445-.611-.389-.666-.334z"/><path fill="#74d3af" d="M628 724c1.769.779 3.036.912 5 1-1.769-.779-3.036-.912-5-1z"/><path fill="#a2e2ca" d="M633 724c1.248.685 1.548.749 3 1-1.248-.685-1.548-.749-3-1z"/><path fill="#dcf4eb" d="M636.667 724.333c-.445.445.611.389.666.334.445-.445-.611-.389-.666-.334z"/><path fill="#aee5d0" d="M746 724l1 1-1-1m-4 6l1 1-1-1z"/><path fill="#8bdabc" d="M740 733l1 1-1-1z"/><path fill="#b9e9d7" d="M739 734l1 1-1-1z"/><path fill="#8bdabc" d="M736 738l1 1-1-1m-1 1l1 1-1-1z"/><path fill="#b9e9d7" d="M734 740l1 1-1-1m-1 1l1 1-1-1m-1 1l1 1-1-1m-5 5l1 1-1-1m-1 1l1 1-1-1z"/><path fill="#a2e2ca" d="M725 749l1 1-1-1z"/><path fill="#8bdabc" d="M724 750l1 1-1-1z"/><path fill="#a2e2ca" d="M719 754l1 1-1-1z"/><path fill="#96dec3" d="M715 757l1 1-1-1z"/><path fill="#a2e2ca" d="M712 759l1 1-1-1z"/><path fill="#96dec3" d="M709 761l1 1-1-1z"/><path fill="#aee5d0" d="M707 762l1 1-1-1z"/><path fill="#8bdabc" d="M702 765l1 1-1-1m-2 1l1 1-1-1m-2 1l1 1-1-1z"/><path fill="#aee5d0" d="M693 769l1 1-1-1z"/><path fill="#8bdabc" d="M691 770l1 1-1-1z"/><path fill="#aee5d0" d="M685 772l1 1-1-1z"/><path fill="#7fd6b5" d="M678.667 774.333c-.444.444.611.389.666.334.445-.445-.611-.389-.666-.334z"/><path fill="#74d3af" d="M674.667 775.333c-.445.445.611.389.666.334.445-.445-.611-.389-.666-.334z"/><path fill="#b9e9d7" d="M667 776c1.248.685 1.548.749 3 1-1.248-.685-1.548-.749-3-1z"/><path fill="#d1f0e4" d="M658 777c1.248.685 1.548.749 3 1-1.248-.685-1.548-.749-3-1z"/><path fill="#a2e2ca" d="M661.667 777.333c-.445.445.611.389.666.334.445-.445-.611-.389-.666-.334z"/><path fill="#74d3af" d="M663.667 777.333c-.445.445.611.389.666.334.445-.445-.611-.389-.666-.334z"/></svg>