<svg xmlns="http://www.w3.org/2000/svg" role="img" viewBox="-6.88 -6.88 1605.76 519.76"><title>BEIJING SMARTCHIP MICROELECTRONICS TECHNOLOGY COMPANY LIMITED (member) logo</title><defs><style>.cls-13,.cls-15,.cls-2{stroke-width:0}.cls-2{fill:#003f97}.cls-13{fill:#014097}.cls-15{fill:#014098}</style></defs><path d="M668.1178 24.8043c-151.32739-.21716-302.65521-.11707-453.98291-.12598-40.6994-.00244-51.52704 7.73175-64.32178 46.74011C109.6546 193.85306 69.60138 316.32218 29.42493 438.75095c-10.66571 32.50134-3.08545 43.36688 31.21985 43.41412 77.39124.10651 154.78265.03345 232.17401.03284 72.55444-.00055 145.10883-.00146 217.66327-.00024 50.21045.00079 52.35767-2.40375 69.52002-49.53278 6.2951-17.2868 1.27783-18.84302-14.32928-18.78864-139.57916.48663-279.16077.3017-418.74158.24823-28.49475-.01086-36.31012-10.29492-27.53094-37.13971 26.55402-81.19672 53.22601-162.3562 80.25653-243.39551 10.69-32.04932 24.42944-41.32159 58.24744-41.3269 137.50787-.02161 275.01587.02393 412.5235-.10944 6.7337-.00653 14.0675 2.29614 20.15692-2.07294 6.05786-4.3465 14.9325-45.62982 11.68982-53.22186-6.93774-16.24371-21.71039-12.03595-34.15668-12.05383z" class="cls-2"/><path fill="#7ebd25" stroke-width="0" d="M647.92542 121.09958c-5.3056 6.4729-12.69171 4.15784-19.27258 4.16516a154289.59079 154289.59079 0 0 1-342.65326-.00018c-6.61578-.00739-13.91986 2.22534-19.52588-3.68811-20.41028 2.36255-31.58575 15.61237-37.85858 33.48419-10.04669 28.62396-19.35864 57.50641-28.8761 86.31427-9.50665 28.77539-.21814 41.3006 30.80267 41.32867 76.68689.06946 153.3739.04987 230.06079-.00824 13.64972-.01038 27.08618 1.159 40.07123-6.57599 7.54797-4.49615 17.88867-4.09717 24.07025 5.03705 5.80774 8.58179 3.97821 17.21881-2.15912 24.85504-9.91541 12.33698-21.63794 20.17218-37.1687 9.60272-5.74243-3.90802-11.46692-4.11578-17.62244-4.11792-91.88611-.03162-183.77228-.0636-275.65833.05414-4.6756.00598-12.5296.0069-13.51575 2.31134-7.19916 16.82275-18.64166 33.73602-14.052 52.56262 4.37897 17.96234 21.09644 19.13202 37.07019 19.11432 113.99402-.12653 227.98816-.04919 341.9823-.0777 35.92749-.00903 55.10071-12.98901 67.07257-46.73285 8.75732-24.68353 16.79395-49.64661 24.33362-74.73053 9.22656-30.69574.26886-42.22339-32.26831-42.27856-71.85065-.1217-143.7019-.14661-215.55225.0368-18.33337.04681-36.99304-2.9057-54.24377 7.50952-7.85132 4.74036-16.2691 2.30682-22.15771-5.16113-5.38293-6.82666-4.05194-14.28613-.63049-21.45978 7.45667-15.63391 24.65582-22.55011 39.28497-14.16504 7.99908 4.5849 15.73926 4.30597 23.85608 4.31488 82.21381.09033 164.42773.05542 246.64166.05573q41.85779.00018 51.16486-40.27002c4.61932-19.98651-1.43671-28.20538-23.19592-31.48041z"/><path d="M1149.32227 206.60685c-44.19812.66766-88.41272.25818-132.62103.24335-46.28058-.01483-92.56299.20007-138.84033-.18604-9.91528-.0827-14.90619 1.41565-14.56915 13.24579.84491 29.64862.59674 59.34326.07733 89.00702-.16443 9.39386 1.93762 13.61224 12.32867 13.56305 87.72253-.41602 175.44751-.28253 263.17041-.64569 19.55005-.08087 28.48291-10.63361 27.9563-30.35626-.60767-22.75586-1.11621-45.59808.21997-68.29187.86011-14.6076-5.03296-16.771-17.72217-16.57935zm-55.26038 88.9386c-27.57336.12476-55.14758.0553-82.72162.05511-26.19525-.00024-52.39355.20789-78.58319-.17645-5.21729-.0766-13.56525 3.63544-14.0426-6.76776-.42944-9.35968 6.41711-8.9248 12.78491-8.92511 54.45856-.00269 108.91711-.01971 163.37561-.01239 5.53491.00073 11.70789-.5733 12.13354 7.43036.52783 9.91913-7.03955 8.36951-12.94666 8.39624zm3.07971-43.3415c-55.77905-.00769-111.55817-.01044-167.33722-.03271-5.83789-.00232-11.44495-.53162-11.13776-8.5014.35248-9.14246 7.59882-6.27911 12.31409-6.32721 27.54248-.28137 55.08923-.138 82.63452-.13446 27.54529.00348 55.09155-.10968 82.63501.1106 4.80566.03839 11.69727-2.5282 11.953 6.66254.23157 8.31781-5.3429 8.22345-11.06165 8.22266z" class="cls-2"/><path d="M924.34479 179.05961c5.13489-4.08502 9.81348-11.87305 17.04333-4.06488 18.31677 19.7818 42.16699 12.17798 64.24585 14.1059 13.00739 1.13586 14.56366-5.19464 14.52295-15.86652-.04028-10.52563-1.31104-17.33551-14.41187-16.16608-11.48401 1.02521-23.42865 1.29803-31.86774-10.3078 8.0639-4.85156 16.39954-2.50201 24.19513-2.41821 11.92078.12817 20.56934.7948 20.46735-16.58881-.09833-16.7735-8.77972-15.32471-19.42303-14.91882-6.20746.23669-12.50562.62964-18.62494-.14117-5.15771-.64966-14.56573 3.89978-14.00293-6.06256.51953-9.19653 9.63379-5.17114 15.07758-5.52087 9.63092-.61871 19.33759-.45068 28.99701-.13708 11.33136.36786 9.71967-7.77319 9.14777-14.25189-.58173-6.58838 4.59821-17.3772-7.6156-17.867-35.3291-1.41675-70.64215 2.48175-105.58612-9.4696-18.5188-6.33374-37.55145 2.62469-56.40106 9.90033-15.33606 5.91943-8.10547 14.94525-9.61578 22.74646-2.05902 10.63458 4.86194 12.84674 13.77533 12.0282 11.6319-1.0683 23.26923-2.65875 34.91364-2.74359 5.22272-.03802 14.32825-4.58221 15.26636 4.95123 1.05267 10.69849-8.60901 6.03986-13.59943 6.37604-11.00159.74121-22.10339.60327-33.1344.12848-10.57617-.45526-18.13684-.53821-18.00116 14.48914.1272 14.0885 4.59204 18.21558 17.93372 17.13422 12.26239-.9939 24.66901-.21124 40.28705-.21124-13.39874 19.00873-29.72638 12.75964-44.03906 14.04382-5.23303.46954-12.37-1.45905-11.44794 7.37585.79907 7.65625-3.73077 21.95697 4.04016 21.82581 25.99994-.43884 53.86255 10.71997 77.85785-8.36932z" class="cls-13"/><path d="M1029.58936 176.6547c-.17627 10.59827 3.93457 12.52771 13.3291 12.42804 40.04761-.42468 80.10205-.23553 120.15405-.2157 16.71021.0083 25.68787-7.18604 25.45801-24.92847-.39331-30.34869-.67212-60.72284.19385-91.05225.35547-12.44928-4.44629-14.90045-15.58887-14.5025-21.37976.76361-42.8064.22223-64.21338.2442-22.0979.02191-44.20361.37286-66.28931-.14209-9.50549-.22168-13.36523 2.25464-13.17554 12.63275.64307 35.17053.71729 70.36517.13208 105.53601zm56.02746-76.59973c.04749-4.01617 3.31348-5.76514 7.0686-6.02362 3.42883-.23602 6.88-.25067 10.31946-.21313 39.97058.43616 31.43237-3.63 32.38501 30.68738.00098 1.37549.16382 2.77374-.02539 4.12274-1.29285 9.22534 4.83142 22.39496-4.25232 26.90826-12.06213 5.99298-26.96008 2.25171-40.64893 1.7182-3.16736-.12341-4.78442-2.77875-4.80945-5.68323-.14868-17.17169-.23999-34.34656-.03699-51.5166z" class="cls-2"/><path d="M1568.85498 91.27073c-.56641-11.3833 1.59009-22.40436-16.24414-20.27728-6.34241.75641-17.62488 4.97479-19.16931-5.21051-1.73328-11.43073-7.83508-10.58356-15.55334-10.46094-11.72571.18622-23.45679.00269-35.18481.07941-4.6311.03027-10.87524-1.19421-10.81592 5.89532.10925 13.06848-8.67847 11.4834-16.98633 11.47455-41.3949-.04431-82.79004.03027-124.18457-.10071-4.70898-.01489-13.06006-.0155-13.5647-1.78003-5.80359-20.29535-22.28015-9.65173-33.75635-12.29297-24.73755-8.88837-39.43872 22.6192-63.7583 15.63867-.34705-.09961-2.46753 4.3175-3.00537 6.79047-4.71045 21.65912-.02515 27.54755 22.2334 28.26276 3.4458.11078 9.11414-1.06445 10.00439.49365 13.19995 23.1004 35.0376 8.18018 52.43127 12.16187 4.31482.98767 11.29688 1.84503 12.22913-4.28015 1.64673-10.81976 9.21021-8.27734 15.53442-8.29877 42.77441-.14508 85.54956-.14917 128.32385-.00726 6.32971.021 13.32593-2.42188 16.26294 7.80524 1.60461 5.58765 55.10608 7.29816 56.07617 2.12598 3.07776-16.41089 15.01367-11.60297 23.83362-10.96088 13.97546 1.0174 15.87891-5.3017 15.29395-17.05841z" class="cls-15"/><path fill="#013f97" stroke-width="0" d="M1485.83569 304.05448c.3457-10.14941 1.14648-18.43756-14.26831-17.84845-32.39661 1.23804-64.88354-.08252-97.31299.60693-13.37256.28436-18.49927-4.19806-18.18689-17.82159.69519-30.3269.21301-60.68073.21252-91.02356-.00073-45.91235.01782-45.56543-45.2135-43.21149-9.90491.5155-13.22644 3.42407-13.00635 13.23309.52539 23.435.16943 46.88971.16809 70.33649-.00146 21.37787-.0946 42.75629.02087 64.13361.16187 29.93262 8.06873 39.02356 37.4873 39.49823 45.54822.7348 91.13-.35602 136.6676.66284 16.19373.36237 13.11548-9.27661 13.43164-18.5661z"/><path d="M1281.53894 179.48008c.00037-47.02374.01575-46.64606-47.87024-44.72998-10.87085.43494-14.14404 3.59308-13.85303 14.34729.70886 26.19153.23096 52.4151.23682 78.62579.00574 15.86438.00574 31.7287.00574 47.59308 0 46.96906-.00867 46.54883 46.46545 45.59473 11.63538-.23883 15.43945-3.37775 15.26196-15.20953-.63184-42.06555-.24707-84.14636-.2467-126.22137z" class="cls-13"/><path d="M1551.49536 145.77323c-.61682-11.58484-8.14465-11.89044-15.64197-10.53516-14.64697 2.64777-31.15039-7.41205-43.93689 6.18475-1.2832 1.36462.22754 5.30768.36646 8.05792 1.04248 20.63348 2.06567 41.26788 2.80176 56.02399 2.47156 38.16663 4.77222 70.44781 6.50317 102.7594.42102 7.86182 1.36963 14.15771 11.15601 12.23199 15.97009-3.14258 33.53687 7.28925 48.20251-5.74695.70349-.62531.25842-2.66022.17737-4.02863-3.24707-54.98053-6.69946-109.95001-9.62842-164.94733z" class="cls-15"/><path d="M1434.1012 134.70768c-48.20251-2.0708-48.18469-2.48541-48.18445 45.72229 0 3.43896 0 6.87805.01929 10.31702.01941 15.13165.05273 30.26337.01013 45.3949-.04309 15.19452 7.10461 22.86005 22.6958 22.6745 19.96301-.23755 39.95886-.64636 59.88757.2265 12.48962.54706 19.54492-1.65967 17.45984-16.36981-1.64844-11.62958 5.46277-28.09595-17.42371-24.87103-15.72961 2.21649-22.71704-4.20966-21.31409-20.97693 1.31445-15.70978-.20789-31.63611.45813-47.42761.43384-10.28638-2.36682-14.20691-13.60852-14.68982z" class="cls-13"/><path fill="#033f96" stroke-width="0" d="M1008.46448 365.41337c-11.32611-1.04211-19.72998.20569-22.16315 14.4696-2.17627 12.75818-7.57263 24.96808-13.26471 42.79645-5.89648-19.23621-10.7226-33.52808-14.59546-48.07324-3.11005-11.68011-11.92389-8.87207-19.85883-9.22412-10.03375-.44519-8.53595 6.70679-8.55756 12.72565-.07178 20.01624.07611 40.03357-.06378 60.04901-.04633 6.62836-.14758 12.6109 9.13226 12.48553 10.49072-.14166 7.4707-7.8634 7.6308-13.41467.31671-10.9837.09357-21.98285.09357-32.97565 6.95667 11.51678 10.87683 23.14642 14.40167 34.89441 1.84314 6.14313 3.17578 11.85089 11.64374 11.74561 7.94385-.09875 10.33405-4.5553 12.18652-11.25433 3.17462-11.47992 7.27515-22.70428 10.98688-34.03601 3.5672 11.59821 3.44336 22.33221 3.62042 33.06128.0863 5.22797-1.46002 11.60052 7.24219 11.99066 8.84467.39655 9.93329-4.77771 9.83734-11.9024-.25092-18.63287.3277-37.28607-.32806-55.89935-.22333-6.33569 4.96411-16.25085-7.94385-17.43842z"/><path fill="#094299" stroke-width="0" d="M901.37439 399.59727c-8.95636.45593-17.96503.32019-26.93207-.02612-5.6601-.21869-13.80426 2.26129-13.22308-7.95148.47137-8.28284 7.34753-6.6438 12.55536-6.73346 11.04901-.19019 22.10559-.17737 33.15527-.00348 7.5899.11945 13.60907-.55347 13.50366-10.73651-.10168-9.83008-6.54047-8.76251-12.71149-8.80792-8.28882-.06104-16.57965-.11261-24.86743-.00659-39.22394.50195-39.05927-8.75092-39.03125 41.28821.00555 9.93536 3.30701 13.47449 13.19763 12.93414 12.39697-.67731 24.85944-.23761 37.29242-.13342 3.96558.03326 8.71771-.61993 9.25452 5.32489.69727 7.72357-5.14581 6.75586-9.76263 6.82465-11.74078.17499-23.4928-.14685-35.22522.21759-6.20544.19275-14.4104-2.92981-14.6745 8.7746-.2876 12.74567 8.5296 9.987 15.63654 10.22699 7.58978.25629 15.19501.05774 22.79346.04858 40.21399-.00903 39.66394.01355 38.2829-33.54572-.565-13.72821-6.50684-18.34338-19.24408-17.69495z"/><path fill="#044097" stroke-width="0" d="M1154.2179 365.35483c-8.9679.0033-17.94165.20551-26.90149-.06177-6.96265-.2077-11.76855.56464-11.56934 9.6803.19666 8.98657 5.13013 9.90289 12.03223 9.81256 11.03516-.14435 22.0874-.33789 33.10535.12585 5.43298.2287 13.81018-3.17664 14.18713 6.77155.44824 11.82831-9.18799 7.44562-15.03235 7.86914-8.9209.64642-17.93054.39935-26.88928.11346-12.03674-.38409-18.15576 4.60284-17.26611 17.17365.38794 5.48535-.64282 11.1347.23071 16.50519 1.02466 6.30206-5.17212 16.65723 7.98291 17.19189 13.26904.53931 9.13086-9.98523 8.77173-16.2312-.64307-11.18579 2.41028-14.72296 14.45264-15.54993 16.79919-1.15369 16.69983 10.64313 20.02979 20.44049 2.37012 6.97363 5.10107 13.59406 14.04004 11.3161 11.59253-2.9541 2.0625-9.68127 1.60767-14.40125-.72791-7.552-9.82275-17.54852 7.17627-18.23456.83569-.03369 1.73755-4.78052 2.1731-7.40485 6.70825-40.41431 2.71631-45.11664-38.13098-45.11664z"/><path fill="#054198" stroke-width="0" d="M1547.70801 365.18387c-16.51819.57568-33.07141.07172-49.6084.2121-5.87915.04987-12.56799-1.69867-12.61401 8.55322-.04419 9.81879 4.8667 11.35797 12.89258 11.13647 12.39429-.3421 24.80396-.21808 37.20605-.15057 4.45471.02429 7.99365 1.24786 7.95862 6.90625-.03577 5.7489-3.60046 6.62073-8.10974 6.61908-11.02539-.00397-22.05103.05194-33.07593-.01685-8.23267-.05139-15.7782 1.44952-16.38257 11.42999-.66479 10.97473-.16406 22.01605-.33618 33.02576-.10339 6.61798 3.73706 7.9093 9.31653 7.80566 5.10132-.09491 8.38342-2.54352 7.51038-7.38458-4.57251-25.35553 9.22302-28.94501 25.90857-25.37622q32.42773.00208 32.42542-29.84436c-.00024-3.44196-.3606-6.92792.05933-10.31763 1.27344-10.27441-3.66003-12.92914-13.15063-12.59833z"/><path fill="#084097" stroke-width="0" d="M1447.06641 428.83182c1.39685-5.8642.28101-12.32574.28101-18.52203l.15039.00018c0-11.01904-.09497-22.03918.03503-33.0567.08093-6.85913-.77161-12.20282-9.84241-11.82611-9.09595.37775-7.4292 7.01343-6.94958 11.84827 1.26965 12.8017-2.27698 18.1651-16.71228 17.86005-13.30664-.28119-18.85498-3.55804-17.00244-17.22424.82935-6.11719.89795-12.74731-8.85254-12.44537-10.13013.31366-7.88306 7.59515-7.94727 13.28601-.21021 18.59296-.30847 37.19324.0116 55.78278.11584 6.71893-3.84436 16.85107 9.1333 16.16156 11.02014-.58557 7.82532-9.5957 7.73157-15.74689-.18652-12.19385-1.60132-22.90472 17.22192-21.48187 12.35596.93402 16.89893 3.5993 16.68506 16.42273-.11707 7.00616-7.09607 20.88873 8.34937 20.23273 14.54114-.61755 5.94092-13.87518 7.70728-21.29108z"/><path fill="#084197" stroke-width="0" d="M1358.09375 431.61216c-6.21692.16864-12.57068-.72815-18.63818.24701-18.9801 3.0506-23.49268-4.50049-24.02002-23.27899-.58984-21.01404 6.46082-26.90967 25.59424-23.89502 5.39319.84967 11.03955.02759 16.56812.10376 7.70081.10608 8.63208-4.69897 8.7373-10.91577.10425-6.17407-2.28735-8.83191-8.46106-8.58301-5.52051.22266-11.05798-.00128-16.58752.03693-46.80945.3233-41.38647-5.43341-41.67261 42.35785-.00159 7.59595.1626 15.19635-.04175 22.7868-.27515 10.22223-.29944 20.16022 13.90967 20.28284 15.20557.13129 30.4137-.00226 45.61938.13184 7.14648.06305 9.34094-3.34387 9.40503-10.25311.073-7.87048-4.08313-9.19281-10.4126-9.02112z"/><path fill="#074198" stroke-width="0" d="M1064.65369 364.98179c-9.50891-.0528-11.52625 5.70673-13.74451 12.15222-6.94128 20.16882-13.81909 40.36285-20.34521 60.66785-1.27002 3.95129-6.29041 9.45746.51636 12.36108 5.11658 2.18262 10.14697.86792 14.04028-4.99286 12.73926-19.17719 26.03442-19.05115 39.24829.21173 3.29272 4.79999 7.09131 6.02655 12.19446 5.34576 4.38904-.58551 5.58813-3.23395 5.73926-2.71918-8.948-26.66571-16.38062-48.83069-23.82507-70.9917-2.24158-6.67267-4.47461-11.98297-13.82385-12.03491zm3.85681 46.59906c-1.17834 1.37921-6.27209 1.6369-7.50537.38831-7.35132-7.44281.69421-13.17017 3.49268-23.8595 3.49854 10.14539 10.40454 15.98853 4.0127 23.47119z"/><path fill="#094398" stroke-width="0" d="M1257.2063 365.26884c-7.58057.24951-15.17554.05634-22.76416.05463-7.58887-.00165-15.17932-.10083-22.76575.03003-5.96423.10284-12.50818-1.55695-12.73743 8.55951-.22583 9.96643 4.86877 11.9328 12.78796 10.90918 11.4729-1.48291 14.06702 4.17279 13.52942 14.36578-.68896 13.06042-.14746 26.18176-.33228 39.27411-.09473 6.70416.18945 12.55579 9.35815 12.40845 8.64941-.13904 7.55005-6.24384 7.59778-11.61847.10388-11.71533.69812-23.47992-.14136-35.1358-.93298-12.95428 1.0282-21.76709 17.1698-19.32233 6.72827 1.01904 9.73547-2.55511 9.98145-9.65259.31042-8.95636-4.62134-10.10492-11.68359-9.8725z"/><path fill="#75ba09" stroke-width="0" d="M285.99957 125.26456c114.21771.12683 228.43561.12701 342.65326.00018 6.58087-.00732 13.96698 2.30774 19.27258-4.16516-99.69019-.30188-199.38031-.71851-299.07074-.83075-27.45972-.03088-54.92053.8468-82.38098 1.30762 5.60602 5.91345 12.9101 3.68073 19.52588 3.68811z"/><path fill="#0c3e93" stroke-width="0" d="M1473.95129 375.00052c-.00232-4.99396-.0448-9.66595-7.25476-9.54535-5.60083.09363-9.3916 1.5213-9.39941 7.88086-.02844 23.35168-.05737 46.70337-.08179 70.05499-.00732 6.91754 5.01392 7.03601 9.94983 7.42761 5.89917.4679 6.74988-3.47717 6.79224-7.82233.11353-11.67505.0387-23.35193.01709-35.02808-.02161-10.98926-.01819-21.97845-.02319-32.96771z"/></svg>