<svg xmlns="http://www.w3.org/2000/svg" role="img" viewBox="-8.20 -8.20 426.40 138.65"><title>Beijing Smartchip (member) logo</title><defs><style>.cls-2{fill:#004098}</style></defs><g id="_图层_1" data-name="图层 1"><path d="M384.637 22.66v3.325h15.548V22.35h9.836v-9.708h-9.413V8.397h-16.394v4.556h-41.753V9.006h-16.388v3.947h-9.419v9.707h9.836v3.636h15.971V22.66h42.176zm-67.122 6.995h16.263v49.461h-16.263zm71.953 0l2.956 49.461h15.856l-2.956-49.461h-15.856zm-1.4218 50.00608v-9.54763h-30.41369c-2.65375 0-3.97024-.35751-3.97024-2.77092v-37.6879h-15.43915v41.09723c0 6.15545 3.38097 8.90922 11.02219 8.90922h38.80088z" class="cls-2"/><path d="M388.0462 62.78512V51.75368h-6.17093c-2.65981 0-3.96389-.94198-3.96389-2.20776V29.65463h-16.33287v25.57082c0 5.46455.75189 7.55967 7.09303 7.55967h19.37466z" class="cls-2"/><path d="M267.09058 9.10857v35.02308h34.80352c5.16692 0 7.37256-1.98345 7.37256-6.68143V9.10857h-42.17608zm27.85055 9.5507v15.61091c0 .63698-.36799 1.26274-1.24059 1.26274H281.8357V18.65927h13.10543zm-72.02734 29.97362v31.01768h71.08868c6.55127.19756 9.69387-2.3898 9.41915-7.75688v-23.2608h-80.50783zm64.53712 22.6848c0 .97456-.12709 1.15364-1.2227 1.15364h-48.56613v-4.0208h49.78882v2.86716zm.41988-10.62677h-50.2087v-3.72351h50.2087v3.72351zm-30.49836-25.24496c-1.37969 0-2.46358-.30509-3.28487-.92499l-3.68628-2.47164h13.52242v-8.36969h-13.92701V20.571h14.33159v-8.67154h-25.81002l.82418-2.79088h-15.15259l-2.04399 2.48727c-.42963.50594-1.22559.62108-2.0437.62108h-3.28487v8.97721h6.97115c2.45146 0 4.08798-.19897 4.90898-.62314h5.33175v3.10864h-17.21188v8.36969h16.39059l-3.68628 2.78764c-.66142.52396-1.36468.92676-2.46358.92676h-9.81796v8.36793h14.72377c2.46675 0 4.136-.23057 4.93033-.94061l4.90609-4.334 6.13428 4.65324c.81281.52664 2.32795.62137 4.51074.62137h11.88302v-8.68569h-6.95586z" class="cls-2"/><path d="M380.558 91.181h4.465v22.742h-4.465zm-7.219 0v7.776h-8.871v-7.776h-4.465v22.742h4.465v-9.869h8.871v9.869h4.464V91.181h-4.464zm34.57382.02967v-.07061H388.0733v5.09689h15.43734v3.72583h-12.58767c-1.57383 0-2.84967 1.27584-2.84967 2.84967v11.1108h4.46448v-8.86381h15.43734V91.21067h-.0623zm-64.78376 17.61569V96.20765h13.26402v-5.09689h-14.87882c-1.57383 0-2.84967 1.27584-2.84967 2.84967v17.11313c0 1.57383 1.27584 2.84967 2.84967 2.84967h15.38531v-5.09689h-13.77051z" class="cls-2"/><g><path d="M256.737 91.14l-4.734 15.482-4.733-15.482h-6.697v22.783h4.464V98.441l4.734 15.482h4.465l4.733-15.482v15.482h4.465V91.14h-6.697zm73.679 0h-18.468v5.097h7.002v17.686h4.464V96.237h7.002V91.14zm-92.44608 5.07782v-5.09689h-17.29348c-1.57383 0-2.84967 1.27584-2.84967 2.84967v11.4328h15.67868v3.42306h-15.67868v5.09689h20.14315v-10.76716c0-1.57383-1.27584-2.84967-2.84967-2.84967h-12.82878v-4.0887h15.67846zm51.93552-5.09689v5.09689h15.91017v4.0887h-13.0605c-1.57383 0-2.84967 1.27584-2.84967 2.84967v10.76716h4.46469v-8.51995h7.41711l2.86585 8.51995h4.46448l-2.86585-8.51995h4.02837V91.12092h-20.37465zm-7.80229 22.80243h4.46448l-7.74195-22.78363h-5.02344l-7.74217 22.78363h4.46448l1.75755-5.1723h8.06351l1.75755 5.1723zm-8.08909-10.26919l2.29989-6.76765 2.29968 6.76765h-4.59957z" class="cls-2"/></g><g><path fill="#7fbe26" d="M165.43897 25.46226s-98.64281-.00129-98.7585 0c-9.25437.37978-11.95663 8.37603-11.95663 8.37603s-5.86263 17.81693-8.52959 25.88996c-2.66722 8.07173 5.10255 9.21288 5.10255 9.21288l72.30891-.00129c1.53973-1.4444 3.54762-2.38792 5.54056-2.38792 3.48217 0 5.55061 2.82181 4.61456 6.30167-.9309 3.48114-4.50892 6.30296-7.99135 6.30296-2.02283 0-3.54272-.96877-4.29739-2.44821H40.94046L37.53352 86.8547c-2.45569 8.16733 5.71164 9.48084 5.71164 9.48084h99.14086c9.04309-.36226 13.13436-11.63971 13.13436-11.63971s4.47362-12.95297 7.21633-22.14833c2.74245-9.19253-5.73174-9.72973-5.73174-9.72973l-71.35766.00231c-1.55004 1.48331-3.59322 2.45466-5.61605 2.45466-3.48243 0-5.54571-2.82181-4.61456-6.30296.93579-3.47986 4.50892-6.30167 7.9911-6.30167 2.01794 0 3.53267.96362 4.29249 2.43688h80.67747s.87061-2.58787 3.45718-10.81188c2.45594-8.71845-6.39597-8.83285-6.39597-8.83285z"/><path d="M145.66722 114.81153c.86056-2.60667 2.54638-7.74477 3.53757-10.76652H29.82404c-7.08029 0-5.02706-7.99496-5.02706-7.99496s19.1879-59.39614 22.38847-68.53353c3.19567-9.13739 11.42329-9.3662 11.42329-9.3662h118.50525c1.01129-3.12892 1.97259-6.09425 2.86329-8.85062.0049-.00876.0049-.01752.01005-.02628 2.96892-9.59421-5.28395-9.27215-5.28395-9.27215H45.39914c-8.39406.50089-11.23726 10.38161-11.23726 10.38161S3.55061 105.18718.58158 113.41119c-2.96906 8.22401 6.39615 8.90963 6.39615 8.90963h128.15692c7.508 0 9.8784-5.52665 10.53258-7.50929z" class="cls-2"/></g></g></svg>