<svg xmlns="http://www.w3.org/2000/svg" role="img" viewBox="-4.05 -2.30 405.60 77.10"><title>Beijing Academy of Blockchain and Edge Computing (member) logo</title><g fill-rule="evenodd"><path fill="#5c3b91" d="M57.167 40.064c0 .064.15.278.333.474.183.197.333.281.333.186 0-.095-.15-.308-.333-.474-.183-.166-.333-.249-.333-.186m127.892 1.768c-.553.223-.892.84-.892 1.622 0 .703-.008.713-.584.713-.511 0-.583.051-.583.416s.072.417.583.417h.584v6h1v-6h.75c.689 0 .75-.034.75-.417 0-.382-.061-.416-.75-.416-.67 0-.75-.041-.75-.38 0-.564.459-1.12.926-1.12.341 0 .407-.081.407-.5 0-.539-.593-.677-1.441-.335m-101.916.403c-.263.578.065.966.759.899.467-.046.515-.104.515-.634 0-.783-.948-.98-1.274-.265m3.089-.164c-.236.613.003 1.011.637 1.064.693.057 1.052-.544.629-1.054-.262-.316-1.146-.323-1.266-.01m3.003-.01c-.252.658-.009 1.022.682 1.022.65 0 .666-.014.666-.583 0-.651-1.125-1.018-1.348-.439m158.433.02c-.118.142-.16.427-.1.667.176.702 1.599.515 1.599-.21 0-.621-1.087-.953-1.499-.457m127.912-.124c-.348.259-.225 1.042.18 1.144.728.182.99.023.99-.603 0-.592-.68-.907-1.17-.541M142 43.417c0 .833-.069 1.416-.167 1.416-.091 0-.166-.068-.166-.153 0-.703-2.905-.841-3.832-.181-1.905 1.356-1.796 5.167.175 6.173.97.494 2.591.454 3.383-.084l.607-.411v.411c0 .369.069.412.667.412h.666v-9H142v1.417m57.539 3.041l.044 4.459.625.051.625.052V42h-1.338l.044 4.458m18.628.042V51h1v-2.734l1.269 1.367c1.169 1.259 1.32 1.367 1.916 1.367.93 0 .84-.214-.825-1.956l-1.471-1.539 1.472-1.506c1.684-1.723 1.73-1.832.766-1.832-.665 0-.774.073-1.911 1.291l-1.205 1.292-.006-2.375-.005-2.375h-1v4.5m13.5 0V51H233v-2.156c0-3.443 1.027-4.736 2.673-3.363l.577.482.054 2.518.053 2.519h1.339l-.056-2.655c-.062-2.884-.132-3.118-1.185-3.904-.674-.503-2.124-.571-2.865-.133l-.59.347V42h-1.333v4.5m51.995-2.958c-.004 1.081-.054 1.458-.168 1.263-.848-1.454-4.102-.893-4.975.858-1.622 3.251 1.7 6.853 4.541 4.925l.607-.411v.411c0 .36.074.412.583.412h.583v-9h-1.166l-.005 1.542m18.671.073v1.614l-.458-.437c-2.737-2.611-6.616 1.062-4.875 4.617.754 1.539 3.325 2.106 4.721 1.041l.612-.467v.509c0 .453.054.508.5.508h.5v-9h-1v1.615m25.908-1.129c-5.029.826-4.333 8.513.77 8.514 2.031 0 3.985-1.204 3.988-2.458.002-.533-1.235-.217-1.681.43-1.203 1.741-4.334 1.117-5.141-1.025-1.205-3.196 2.733-6.026 5.097-3.661.514.513 1.727.81 1.725.422-.005-1.004-2.754-2.626-3.988-2.354-.052.012-.399.071-.77.132M68 46.75V51l1.708-.001c3.008-.002 4.209-.691 4.209-2.416 0-.876-.044-.982-.628-1.517-.476-.436-.567-.598-.378-.67.493-.189.969-1.21.878-1.884-.2-1.492-1.199-2.012-3.867-2.012H68v4.25m46.828-3.208c-.208.573-.551 1.428-.761 1.901-.447 1.007-1.9 5.12-1.9 5.379 0 .777 1.131.121 1.416-.822l.303-1h3.575l.311.958c.3.924 1.561 1.627 1.561.87 0-.273-.874-2.728-1.006-2.828-.061-.046-.49-1.171-.954-2.5-.464-1.329-.896-2.548-.96-2.708-.308-.777-1.179-.365-1.585.75m77.339 3.228v4.27l2.041-.072c2.119-.075 2.719-.243 3.348-.938.673-.744.491-2.54-.324-3.181-.394-.31-.398-.331-.097-.544 1.107-.786.83-2.864-.468-3.513-.456-.228-1.011-.292-2.542-.292h-1.958v4.27m98.666-.02V51h4.5v-1h-3.5v-2.833H295v-1h-3.167V43.5h3.5v-1h-4.5v4.25m80.485-4.125c-.009.069-.003.444.012.833.028.686.012.709-.484.709-.436 0-.513.062-.513.416 0 .352.078.417.5.417h.5v2.491c0 3.096.134 3.354 1.809 3.475l1.025.074v-.52c0-.491-.036-.52-.634-.52-.983 0-1.033-.132-1.033-2.7V45h.833c.778 0 .834-.028.834-.417 0-.389-.056-.416-.834-.416h-.833V42.5h-.583c-.321 0-.591.056-.599.125M72.091 43.909c1.049 1.049.229 2.135-1.685 2.232l-1.239.062V43.5h1.257c1.113 0 1.305.047 1.667.409m124.259.07c.877 1.084.101 2.031-1.762 2.151l-1.255.081v-2.746l1.35.061c1.175.053 1.391.112 1.667.453m-119.224.258c-2.541.907-2.594 5.633-.073 6.586 1.706.645 4.28-.359 4.28-1.669 0-.495-1.03-.45-1.252.054-.712 1.623-3.748.762-3.748-1.062 0-.08 1.148-.146 2.55-.146 1.761 0 2.612-.062 2.75-.2.23-.23.273-1.133.055-1.133-.081 0-.188-.207-.238-.459-.355-1.764-2.352-2.674-4.324-1.971m17.078.087c-.652.409-.704.416-.704.093 0-.175-.176-.25-.583-.25h-.584V51h1.142l.054-2.409.054-2.409.646-.591C95.93 44.035 97 45.252 97 48.742V51h1.333v-2.378c0-2.611-.249-3.461-1.23-4.195-.653-.487-2.199-.542-2.899-.103m7.419-.086c-2.625.937-2.584 5.842.055 6.599 1.315.377 2.466.179 3.303-.566l.398-.354-.113.916c-.275 2.246-2.545 2.976-3.9 1.254-.36-.458-1.366-.608-1.366-.204 0 2.034 4.039 3.053 5.45 1.375 1.123-1.336 1.05-.973 1.05-5.209v-3.882h-.583c-.546 0-.584.034-.584.537v.537l-.271-.388c-.56-.799-2.135-1.08-3.439-.615m20.606.179c-2.293 1.143-2.252 5.372.061 6.339 1.769.739 4.543-.337 4.543-1.762 0-.531-1.123-.463-1.33.081-.798 2.099-3.841.813-3.837-1.622.004-2.249 2.792-3.307 3.763-1.428.198.382.358.475.815.475.964 0 .931-.433-.121-1.568-.973-1.05-2.434-1.243-3.894-.515m7.945-.256c-2.477.62-2.713 5.362-.329 6.595.792.41 2.495.321 3.215-.168l.607-.411v.411c0 .369.069.412.666.412H135v-6.833h-.667c-.563 0-.666.053-.666.344 0 .342-.005.342-.531-.033-.589-.419-1.964-.567-2.962-.317m16.463.064c-2.465.915-2.6 5.541-.192 6.548.881.368 2.528.292 3.252-.149.621-.378 1.523-1.515 1.344-1.694-.215-.215-1.374-.096-1.374.141 0 .131-.191.388-.425.572-1.237.973-2.81.372-3.315-1.268l-.116-.375h5.562l-.07-.971c-.051-.703-.171-1.081-.437-1.365-.201-.217-.367-.473-.367-.57-.005-.774-2.567-1.35-3.862-.869m7.815.09c-.489.249-.619.267-.619.084 0-.154-.196-.232-.583-.232h-.583V51h1.142l.054-2.421.054-2.422.614-.578c.723-.682 1.343-.744 1.989-.198.729.616.813.962.813 3.358V51h1.167v-2.242c0-2.515.115-2.93.953-3.424.588-.347 1.38-.449 1.38-.179 0 .086.151.204.335.262.657.209.832.91.832 3.325V51h1.202l-.068-2.542c-.078-2.918-.298-3.619-1.298-4.15-1.08-.573-2.981-.206-3.536.684-.192.307-.204.305-.376-.046-.435-.883-2.309-1.224-3.472-.631m23.103-.142c-.496.153-1.272.961-1.692 1.764-.233.445-.52 2.23-.359 2.23.066 0 .168.298.226.662.43 2.691 4.948 3.016 6.118.44 1.378-3.033-1.171-6.059-4.293-5.096m26.732.082c-2.402.882-2.717 5.232-.46 6.37 2.495 1.258 5.149-.277 5.166-2.989.017-2.74-2.171-4.312-4.706-3.381m7.629.055c-2.037.926-2.38 4.835-.543 6.193.729.539 2.769.66 3.624.216.623-.325 1.591-1.609 1.42-1.885-.161-.261-1.25-.209-1.25.06 0 .355-.807 1.074-1.338 1.19-2.357.518-3.545-3.47-1.409-4.731 1.043-.615 2.339-.208 2.671.838.149.468 1.409.446 1.409-.024 0-.184-.061-.334-.136-.334-.074 0-.263-.266-.418-.592-.535-1.121-2.574-1.592-4.03-.931m13.834-.062c-.658.309-1.083.66-1.083.895 0 .105-.067.19-.148.19-.996 0-.886 3.539.148 4.731 1.515 1.749 5.5.862 5.5-1.224 0-.407-1.171-.186-1.337.252-.213.559-1.487 1.14-2.17.99-2.319-.51-1.932-5.082.43-5.082.662 0 1.661.645 1.831 1.181.185.582 1.313.447 1.17-.139-.389-1.603-2.709-2.561-4.341-1.794m15.167.045c-2.586 1.068-2.539 5.647.066 6.518 1.24.414 2.758.154 3.362-.576.219-.264.245-.248.322.197.07.403.175.493.625.537l.541.052v-6.854h-.583c-.546 0-.583.034-.583.537v.537l-.272-.388c-.58-.828-2.199-1.089-3.478-.56m11.833-.115c-.275.082-.593.277-.708.434-.19.26-.209.253-.209-.08 0-.295-.096-.365-.5-.365h-.5V51h1l.008-1.792c.015-3.79 1.314-5.355 3.001-3.616l.575.593.057 2.407.057 2.408h.969v-2.542c-.001-3.917-1.029-5.091-3.75-4.28m11.136.146c-2.286 1.038-2.312 5.257-.041 6.432.792.41 2.495.321 3.215-.168l.607-.411v.411c0 .36.074.412.583.412h.583v-6.833h-.583c-.511 0-.583.051-.583.416V45l-.34-.34c-.731-.731-2.245-.879-3.441-.336m8.895-.155c-.258.078-.577.231-.708.34-.192.159-.24.144-.24-.072 0-.189-.15-.27-.5-.27h-.5V51h1l.008-1.792c.015-3.809 1.214-5.278 2.962-3.629l.614.579.057 2.421.057 2.421h.969v-2.497c0-3.972-1.008-5.147-3.719-4.334m33.962.144c-1.735.788-2.424 3.119-1.498 5.069.73 1.539 3.037 2.114 4.596 1.145.807-.502.826-.505.822-.145-.026 2.36-2.214 3.434-3.789 1.858-.973-.972-2.004-.797-1.463.248.91 1.761 3.805 2.241 5.309.881.862-.78.947-1.261.947-5.362v-3.84h-.5c-.451 0-.5.052-.5.531v.531l-.459-.437c-.885-.845-2.246-1.032-3.465-.479m8.485-.132c-2.299.667-2.821 4.714-.806 6.251 1.613 1.23 5.072.283 5.077-1.39.002-.403-1.132-.248-1.422.194-.917 1.4-3.182.948-3.512-.702l-.107-.534h5.209v-.944c0-2.242-2.047-3.568-4.439-2.875m21.172.126c-1.156.543-1.9 1.932-1.9 3.547 0 .538.06.979.133.979.073 0 .228.263.344.583.891 2.465 5.626 1.954 6.116-.66.629-3.35-1.91-5.756-4.693-4.449m8.433-.189c-.137.051-.381.207-.541.346-.263.229-.292.227-.292-.022 0-.207-.155-.275-.625-.275h-.625l.034 3.375.033 3.375.592.051.591.052v-2.271c0-2.406.083-2.752.813-3.368 1.543-1.303 2.687.159 2.687 3.436V51h1.167v-4.877l.595-.562c.798-.752 1.396-.747 2.207.018l.614.578.054 2.422.054 2.421h.976v-2.509c0-3.063-.226-3.778-1.332-4.221-1.247-.499-2.821-.239-3.379.558l-.254.362-.239-.342c-.462-.658-2.213-1.067-3.13-.73m12.667.002c-.137.052-.456.239-.708.415-.456.319-.459.319-.459-.024 0-.282-.104-.344-.583-.344h-.583V54h1.166v-3.823l.607.411c1.579 1.072 4.102.229 4.704-1.571 1.004-3.005-1.452-5.908-4.144-4.897m22.875.202c-.438.274-.542.292-.542.092 0-.177-.188-.247-.666-.247h-.667V51h1.333v-2.156c0-2.772.445-3.819 1.631-3.838 1.275-.02 1.703.918 1.703 3.736V51h1.362l-.056-2.655c-.061-2.886-.132-3.118-1.189-3.907-.665-.497-2.205-.558-2.909-.116m7.375-.007c-1.664.768-2.296 2.515-1.671 4.62.62 2.088 3.414 2.834 5.046 1.348l.375-.341-.004.404c-.025 2.528-2.504 3.596-3.983 1.716-.32-.406-1.346-.574-1.346-.22 0 1.532 2.82 2.832 4.547 2.096 1.77-.756 1.951-1.304 1.952-5.907l.001-3.885-.542.052c-.457.044-.55.126-.596.529l-.055.477-.259-.37c-.578-.825-2.257-1.077-3.465-.519M83.167 47.583V51h1.166v-6.833h-1.166v3.416m3.166.828c0 4.68.021 4.589-1.072 4.589-.364 0-.428.074-.428.5 0 .493.013.5.875.495 1.595-.01 1.535.184 1.591-5.169l.049-4.659h-1.015v4.244m3-.828V51H90.5v-6.833h-1.167v3.416m27.062-1.566c.333.972.605 1.816.605 1.875 0 .059-.568.108-1.262.108-.928 0-1.248-.055-1.207-.208.123-.466 1.205-3.611 1.23-3.578.016.02.3.831.634 1.803m48.021-1.559c.065.161.179.48.253.709.073.229.58 1.562 1.125 2.961l.991 2.545-.554 1.455c-.694 1.826-.695 1.872-.003 1.872.524 0 .576-.051.772-.75.115-.413.26-.75.322-.75.116 0 .411-.708 2.161-5.187 1.199-3.07 1.217-3.187.475-3.115-.487.047-.569.135-.818.885-.152.459-.568 1.592-.923 2.52-.749 1.953-.612 2.027-1.74-.936-.366-.963-.734-1.919-.818-2.125-.118-.292-.286-.375-.757-.375-.51 0-.586.045-.486.291m83.251 3.125V51h1.166v-6.833h-1.166v3.416m115.833-.825c0 3.881 1.223 5.128 3.922 4.001.505-.211.578-.211.578 0 0 .164.185.241.583.241h.584v-6.833h-1.143l-.054 2.514-.053 2.515-.468.402c-.334.288-.668.402-1.171.402-1.46 0-1.776-.674-1.777-3.792l-.001-2.041h-1v2.591m12.167.825V51h1v-6.833h-1v3.416m-296.5-2.444c0 .076.184.237.409.357.344.184.924 1.065.924 1.404 0 .055-.943.1-2.095.1h-2.094l.117-.375c.293-.94 1.15-1.594 2.114-1.613.343-.007.625.05.625.127m24.5.001c0 .077.187.225.417.33 1.92.875 1.144 4.53-.963 4.53-2.343 0-3.168-3.257-1.158-4.574.596-.39 1.704-.576 1.704-.286m28.5-.009c0 .072.216.258.479.414 1.97 1.163.982 4.601-1.268 4.416-2.236-.183-2.873-3.167-.96-4.49.62-.429 1.749-.648 1.749-.34m8.623.305c2.116 1.614 1.221 4.796-1.271 4.516-1.816-.205-2.634-2.836-1.278-4.11.988-.929 1.713-1.044 2.549-.406m8.233-.061c.489.36.977 1.084.977 1.45 0 .113-.74.175-2.083.175-1.146 0-2.084-.041-2.084-.092 0-1.303 2.119-2.321 3.19-1.533m31.215.285c1.91 1.877.001 5.348-2.331 4.241-.443-.21-.695-.49-.925-1.026-1.129-2.634 1.353-5.085 3.256-3.215m26.281-.368c1.12.918 1.476 1.833 1.149 2.951-.765 2.615-3.75 2.406-4.257-.298-.34-1.814 1.85-3.685 3.108-2.653m36.595-.084c2.719 2.128.976 6.26-1.863 4.417-1.545-1.003-1.262-4.239.374-4.286.115-.003.208-.081.208-.172 0-.238.964-.207 1.281.041m23.053-.077c0 .072.216.258.479.414 1.885 1.113 1.007 4.455-1.17 4.455-1.97 0-2.98-2.919-1.456-4.205.31-.261.638-.543.73-.627.205-.186 1.417-.218 1.417-.037m16.29.305c1.205.919 1.484 1.98.873 3.32-.885 1.945-3.415 1.569-3.998-.593-.309-1.15.446-2.83 1.274-2.83.125 0 .227-.075.227-.166 0-.338 1.058-.163 1.624.269m18.527.016c.769.58 1.075.881.903.884-.075.001-.03.07.101.153.414.262.326 1.691-.147 2.382-1.078 1.574-2.792 1.512-3.758-.136-1.224-2.089 1.06-4.673 2.901-3.283m8.664.348c1.61 1.512.779 4.2-1.299 4.2-2.133 0-3.074-2.593-1.508-4.159 1.139-1.139 1.63-1.146 2.807-.041m7.519-.633c0 .091.08.166.177.166.211 0 1.023.926 1.192 1.361.113.287-.009.306-1.976.306h-2.096l.106-.458c.225-.977 2.597-2.232 2.597-1.375m21.739.205c2.347 1.539.74 5.626-1.795 4.567-1.612-.674-1.87-3.782-.371-4.465.235-.107.427-.257.427-.334 0-.287 1.189-.128 1.739.232m20.309-.213c1.389 1.1 1.646 1.671 1.382 3.076-.392 2.089-3.222 2.435-4.034.492-.489-1.171-.124-2.642.791-3.182.263-.156.479-.342.479-.414 0-.186 1.141-.163 1.382.028m30.618-.019c0 .077.188.225.417.33 1.909.869 1.157 4.53-.93 4.53-2.325 0-3.255-3.597-1.168-4.52.283-.125.515-.285.515-.354s.262-.126.583-.126c.321 0 .583.063.583.14M72.136 47.45c1.425 1.059.376 2.55-1.794 2.55h-1.175v-3.044l1.261.081c.905.058 1.387.175 1.708.413m124.185.014c1.407 1.046.342 2.536-1.813 2.536h-1.175v-3.048l1.28.097c.881.066 1.412.195 1.708.415m-145.654.694c.32.275.681.502.801.504.12.003.175.075.122.161-.054.086.054.145.24.131.445-.033.482.003-.705-.689-.996-.58-1.016-.585-.458-.107m-.401 2.259c-.879.687-1.638 1.25-1.687 1.25-.146 0-1.746 1.23-1.746 1.342 0 .119-1.948 1.658-2.099 1.658-.138 0-3.138 2.365-3.204 2.526-.03.071-.63.541-1.334 1.044-1.807 1.291-3.873 2.863-4.363 3.32-.684.64-3.479 2.776-3.631 2.776-.077 0-.584.407-1.127.904-.879.805-1.471 1.067-1.742.771-.136-.149-1.166-.7-1.166-.623 0 .129 1.406 1.004 1.614 1.004.113 0 .246.108.297.239.051.135.204.197.349.141.158-.061.214-.03.146.081-.433.7 2.015-.461 4.927-2.338.229-.148.81-.449 1.292-.669.481-.22.875-.462.875-.538 0-.076.056-.122.125-.101.136.04 2.22-1.107 4.208-2.315.688-.418 1.775-1.025 2.417-1.35 1.566-.791 3.426-1.883 3.821-2.243.176-.161.476-.341.666-.401.19-.06 1.171-.574 2.179-1.142 1.009-.568 2.271-1.251 2.805-1.518.534-.266 1.106-.61 1.27-.763.164-.153.721-.516 1.237-.808.516-.291.936-.578.934-.638-.005-.123-3.957-2.407-4.031-2.331-.027.027-.233-.081-.46-.24-.646-.452-.87-.369-2.572.962"/><path fill="#5468ad" d="M50.56 17.048c-.391.417-1.482 1.199-1.612 1.156-.343-.113.237.549.686.783.278.145.933.525 1.454.846.521.321 1.287.779 1.701 1.018.567.327.81.597.976 1.084.766 2.243 4.039 1.93 4.354-.416.201-1.499-.871-2.553-2.536-2.491-.881.032-1.534-.148-1.917-.528-.116-.116-1.469-.849-2.124-1.152-.298-.138-.542-.31-.542-.383 0-.192-.221-.15-.44.083m-8.516 6.578l-.867.793.926.666c.51.366.995.646 1.078.623.084-.023.152.023.152.102 0 .079.338.323.75.542.561.297.75.496.75.786 0 1.27 2.177 2.106 3.4 1.305.574-.376 1.179-1.607 1.048-2.131-.055-.217-.103-.451-.108-.52-.015-.239-.76-.992-1.216-1.23-.415-.216-.762-.247-2.129-.194-.243.01-.624-.171-.899-.426-.467-.432-.639-.507-1.045-.456-.11.013-.281-.128-.381-.314-.266-.497-.497-.425-1.459.454m207.026 6.291c0 1.833.024 2.606.054 1.717.03-.889.03-2.389 0-3.333-.029-.945-.054-.218-.054 1.616M35.561 28.792c.077.127.034.208-.111.208-.129 0-.589.27-1.022.601l-.787.6.364.34c.2.186 1.125.748 2.055 1.249.929.5 1.765 1.002 1.857 1.114.091.113.766.53 1.5.928.733.398 1.597.888 1.919 1.089.322.202.997.574 1.5.828s.952.508.997.565c.188.232 1.207.681 1.348.594.084-.052.152-.031.152.046 0 .409.846.161 1.401-.411.54-.556.808-1.025.464-.813-.074.046-.317-.137-.539-.406-.223-.27-.464-.491-.536-.491-.072 0-1.873-1.041-4.002-2.314-2.129-1.273-4.38-2.579-5.003-2.902-.622-.323-1.255-.688-1.407-.811-.195-.158-.239-.162-.15-.014m-5.639 8.648c-1.585.928-1.696.725 1.356 2.477 1.436.825 2.855 1.65 3.151 1.833 1.555.96 2.503 1.457 2.856 1.496.216.023.446.102.512.175s-.03.078-.214.012c-.257-.092-.288-.074-.136.08.153.153.398.024 1.081-.574.486-.425.974-.772 1.084-.772.111 0 .247-.074.303-.165.059-.094-.007-.123-.152-.067-.258.099-.763-.279-.763-.57 0-.087-.223-.25-.494-.363-.272-.112-.577-.304-.678-.425-.1-.121-.571-.421-1.047-.667-.475-.246-.977-.533-1.114-.637-.286-.216-.452-.313-2.787-1.617l-1.703-.951-1.255.735M7.604 50.289c.063.26-.548.599-.8.443-.108-.067-.143-.043-.082.057.138.223-.318.608-.551.464-.097-.06-.126-.191-.065-.29.069-.111.034-.133-.088-.057-.14.086-.149.186-.029.331.123.147.077.308-.159.562-.354.38-.03.778.538.662.119-.025.198.045.177.154-.033.172.445.436.836.46.072.005.202.121.289.258.087.138.159.18.161.093.001-.086.096-.033.211.117.114.151 1.67 1.098 3.458 2.104 1.787 1.007 3.437 1.965 3.665 2.13.228.164.517.314.643.332.125.018.367.183.537.365.197.211.435.299.656.241.226-.059.33-.019.298.118-.027.115.055.247.183.293.153.056.187.013.101-.126-.085-.139-.051-.182.102-.129.127.044.692-.283 1.255-.728.563-.446 1.111-.81 1.218-.81.107 0 .146-.08.085-.177-.06-.098-.142-.146-.182-.106-.04.04-.284-.124-.541-.364-.258-.24-.935-.699-1.506-1.019-.57-.321-1.139-.677-1.264-.792-.124-.115-.278-.208-.341-.208-.119 0-1.139-.595-3.576-2.085-2.53-1.547-3.913-2.324-4.059-2.28-.078.024-.247-.044-.375-.15-.176-.146-.289-.146-.466.001-.129.107-.266.135-.306.062-.04-.072-.05-.039-.023.074"/><path fill="#4c7dbc" d="M31.997 7.053c-.952.722-1.896 1.614-1.708 1.614.06 0-.038.108-.215.241-.314.234-.312.239.046.149.204-.051.552-.262.774-.467.288-.267.479-.331.671-.224.148.083.268.106.268.052s.169.061.375.256c.412.387 1.695 1.169 3.625 2.206.688.37 1.738.993 2.334 1.386.595.393 2.358 1.428 3.916 2.3 1.559.873 3.396 1.944 4.084 2.381.687.437 1.287.797 1.333.8.046.003.365.179.709.393l.625.388.773-.681c.425-.374.838-.68.916-.68.325 0 .111-.461-.315-.681-.252-.13-.597-.361-.766-.514-.17-.152-.507-.327-.75-.387s-.592-.245-.775-.41c-.184-.165-1.196-.789-2.25-1.385-1.055-.597-2.405-1.388-3-1.759-1.444-.899-3.781-2.258-5.403-3.143-.726-.396-1.457-.845-1.625-.997-.168-.152-.306-.227-.306-.167s-.148-.039-.329-.22c-.181-.181-.518-.376-.75-.434-.231-.059-.421-.173-.421-.255 0-.081-.15-.148-.333-.148-.183 0-.333-.075-.333-.167 0-.275-.206-.178-1.17.553M29 9.333c-.202.131-.178.162.125.164.206.002.375-.072.375-.164 0-.208-.177-.208-.5 0m-5.875 3.596c-.623.338-.585.478.042.154.275-.142.5-.294.5-.337 0-.108-.018-.101-.542.183m6.958 3.763c-.641.371-1.766.995-2.5 1.387-.733.392-2.196 1.221-3.25 1.842-1.054.621-3.079 1.766-4.5 2.544-1.421.777-2.621 1.468-2.666 1.535-.046.067-.252.174-.459.239-.206.064-.375.187-.375.272 0 .086-.075.156-.167.156-.093 0-1.039.494-2.104 1.099-1.065.604-2.321 1.303-2.791 1.552-1.323.702-2.164 1.195-2.438 1.43-.137.118-.709.444-1.27.725l-1.021.511-.077-1.326c-.095-1.636-.117-1.659-.999-.981-1.22.94-1.213.935-1.057.656.095-.169.085-.196-.03-.083-.191.187-.441 16.083-.253 16.083.118 0 5.266-2.871 6.541-3.647.412-.251 1.575-.893 2.583-1.427 1.008-.533 1.946-1.06 2.083-1.169.32-.256 3.301-1.949 5.584-3.171.641-.343 1.365-.766 1.609-.938.243-.173.49-.314.548-.314.058 0 .496-.263.972-.584.476-.321.927-.583 1.001-.583.157 0 4.971-2.721 5.687-3.215.378-.26.543-.292.75-.146.147.104.595.346.997.539.402.193.885.494 1.073.67.188.175.417.319.509.319.092 0 .03-.101-.139-.224-.32-.234.946-1.443 1.511-1.443.128 0 .181-.105.125-.25-.052-.137-.166-.25-.251-.25-.086 0-.545-.262-1.022-.583-.476-.321-.927-.584-1.001-.584-.074 0-.548-.264-1.053-.587l-.918-.587-1.116.612c-.614.337-1.378.777-1.699.978-.808.506-4.189 2.398-5.5 3.077-.596.308-1.393.771-1.77 1.027-.378.257-1.016.646-1.417.865-4.4 2.397-6.181 3.392-6.813 3.806-.412.27-2.025 1.194-3.583 2.053L6.583 40.14l-.045-3.524c-.054-4.214-.207-3.738 1.488-4.616 1.458-.756 4.082-2.234 6.057-3.413.642-.384 1.842-1.058 2.667-1.499.825-.442 2.813-1.567 4.417-2.5 1.604-.933 3.591-2.057 4.416-2.498.825-.44 1.8-1.003 2.167-1.249.367-.247 1.324-.8 2.127-1.23l1.461-.782.67.342c.369.188 1.887 1.076 3.373 1.974 1.486.898 3.227 1.92 3.869 2.271.642.352 1.32.738 1.507.858.309.198.431.136 1.301-.661l.961-.88-.468-.234c-1-.501-3.652-2.076-3.978-2.363-.19-.166-.394-.303-.454-.303s-1.064-.569-2.231-1.264c-1.168-.695-2.427-1.418-2.797-1.606-.371-.188-.853-.482-1.072-.653-.527-.411-.583-.4-1.936.382m129.158 12.225c.001 3.116.023 4.368.05 2.781.028-1.587.028-4.137 0-5.667-.027-1.53-.05-.231-.05 2.886m70.717-4.126c1.307.028 3.444.028 4.75 0 1.307-.028.238-.051-2.375-.051-2.612 0-3.681.023-2.375.051M7.8 50.042c-.124.114-.335.233-.471.263-.518.115-1.329.728-1.215.918.087.145.056.147-.124.007-.186-.146-.328-.103-.635.19-.382.366-.384.382-.063.483.334.107 1.505-.793 1.418-1.089-.021-.075.065-.095.193-.046s.483-.139.79-.418c.306-.279.506-.509.444-.512-.062-.002-.214.089-.337.204"/><path fill="#34a3d3" d="M31 5.726c-.229.124-1.122.611-1.983 1.083-.862.472-1.627.858-1.7.858-.074 0-.194.101-.267.225-.073.124-.883.619-1.8 1.101s-1.742.934-1.833 1.006c-.092.071-.767.449-1.5.84-.734.391-1.452.812-1.597.936-.145.124-.312.177-.371.118s-.155.016-.213.166c-.058.151-.165.274-.239.274-.074 0-.647.289-1.274.642-.627.353-1.815 1-2.64 1.438-.825.439-1.699.937-1.942 1.109-.243.171-.525.311-.625.311-.1 0-.183.08-.183.177 0 .097-.075.13-.166.073-.092-.056-.167-.021-.167.078s-.19.253-.421.341c-.232.088-1.189.595-2.125 1.127-.937.532-1.929 1.077-2.204 1.211-.275.133-.538.28-.583.326-.137.137-.721.489-1.167.703-.229.109-.735.422-1.125.693l-.708.495v3.628c0 4.112-.034 4.017 1.121 3.136 1.006-.767 1.001-.765 1.094-.279.04.206.083-.873.095-2.398.021-2.48.054-2.782.315-2.867.292-.096.519-.224 3.291-1.857.825-.486 1.909-1.098 2.408-1.36.499-.262 1.01-.57 1.137-.685.126-.115.311-.208.41-.208.1 0 .786-.384 1.526-.854.739-.469 1.432-.866 1.54-.882.108-.016.297-.11.421-.209.331-.264 3.83-2.222 3.971-2.222.066 0 .291-.148.5-.33.209-.181.446-.289.526-.24.079.049.145.012.145-.083 0-.094.225-.288.5-.43.275-.143.5-.206.5-.142s.168-.037.375-.224c.206-.188.572-.445.813-.571.241-.127.86-.448 1.375-.715.515-.267.937-.537.937-.6 0-.063.337-.254.75-.424.412-.17.75-.369.75-.442 0-.073.168-.138.375-.144.343-.011.348-.022.054-.138-.422-.165.037-.372.536-.241.182.047.388-.007.458-.121.088-.142.055-.168-.106-.085-.129.067-.088.003.09-.141.177-.144.274-.262.213-.262-.197 0 1.014-1.128 1.767-1.647.405-.279.788-.456.85-.394.063.063.069-.003.014-.146-.081-.212-1.216-.983-1.441-.979-.033.001-.248.102-.477.225m66.042 15.315c-.647.208-.66.329-.133 1.251l.405.708h-6.647v1.5h14.666V23h-3.083c-2.079 0-3.083-.058-3.083-.178 0-.21-.981-1.683-1.239-1.861-.207-.143-.185-.145-.886.08m265.906-.087c-.592.089-.694.355-.372.974.141.269.256.545.256.614.001.068-1.386.125-3.082.125h-3.083v3.166h1.5V24h11.148l.051.792.051.791.708.052.708.051v-3.019l-2.958-.001h-2.958l-.479-.916c-.303-.581-.578-.908-.75-.892-.149.014-.482.057-.74.096m24.757.086c-.523.17-.63.665-.207.96.133.093.502.759.502.906 0 .052-.9.094-2 .094h-2v3.167h.583c.556 0 .584.027.584.583v.583h7.166v-.583c0-.556.028-.583.584-.583h.583V23l-1.875-.011-1.875-.011-.517-1.031c-.553-1.103-.684-1.18-1.528-.907m-272.952.455c-.141.272-.406.575-.588.673-.182.097-.332.243-.332.324 0 .081-.378.524-.841.984-.889.884-.907 1.052-.202 1.82.314.341 2.146-1.358 3.236-3.001.588-.885.587-.89-.051-1.112-.781-.272-.941-.231-1.222.312M119 23.167v2.166h-1.167v-3h-1.166v1.084c0 1.044-.256 1.446-.584.916-.246-.398-.684-.115-1.059.685-.216.46-.554 1.014-.75 1.23-.197.216-.507.599-.691.85-.183.251-.408.538-.5.638-.091.099-.378.464-.636.809l-.47.629.359.58c.457.74.655.729 1.257-.073l.49-.652.084 3.61.083 3.611.708.051.709.051.003-4.717.002-4.718.495-.834.494-.833.003.625.003.625h5.5v-4.167H121v1.5c0 1.489-.003 1.5-.417 1.5h-.416V21H119v2.167m4.61-1.98c-.035.126-.223 1.233-.418 2.458-.211 1.325-.503 2.525-.72 2.959l-.364.729h-5.775v1.5h3.006c2.517 0 3.02.041 3.101.25.143.374.521.302.657-.125.091-.282.232.076.573 1.459l.454 1.833-.604.915c-.353.535-.964 1.157-1.472 1.5-.989.666-1.015.741-.481 1.393l.388.475.658-.416c.362-.228 1.011-.808 1.444-1.289.432-.481.808-.845.835-.809.027.035.223.315.435.622 1.104 1.598 1.717 1.912 2.37 1.213l.483-.516-1.009-.987c-1.65-1.614-1.678-1.789-.671-4.101.211-.485.634-2.358.767-3.397.087-.674.192-.917.424-.978.242-.063.309-.24.309-.811v-.731h-1.753c-1.732 0-1.752-.004-1.668-.375.181-.795.431-2.67.365-2.736-.217-.218-1.277-.245-1.334-.035m14.91-.062c.011.069.011.519 0 1l-.02.875H135v1.5h3.5v.736c0 1.129.1 1.264.934 1.264h.733v-2h4.333v2h1.5v-2h3.667V23H146v-2h-1.5v2h-4.333v-2h-.834c-.458 0-.824.056-.813.125m63.826.721c-.123.481-.499 1.421-.834 2.089l-.611 1.215.303.592c.167.325.377.591.467.591.089 0 .162.188.162.417 0 .352.078.417.5.417h.5v2h-1.666V30.5h1.666v1.769c0 1.502-.054 1.865-.358 2.407-.476.846.278 2.129.776 1.322.058-.093.531-.452 1.052-.798 1.385-.92 1.489-.972 1.132-.565-.31.354-.309.369.083.944.515.756.651.74 1.39-.162.725-.885.985-.917 2.039-.248 1.163.737 1.686.829 4.734.83 2.087.001 2.77-.05 2.788-.207.014-.115.071-.444.128-.731l.102-.522-2.975.022c-2.942.022-2.983.017-3.807-.432-1.525-.831-1.417-.511-1.417-4.189v-3.273h-2.667v.666c0 .651.014.667.584.667H207v2.69c0 2.366-.035 2.717-.292 2.911-.428.326-.496.291-.71-.358l-.195-.59-.735.43-.735.431V30.5H206v-1.333h-1.667v-2h.584c.569 0 .583-.016.583-.667v-.667h-3.32l.419-.833.419-.833H206v-1.334h-2.454l.178-.665c.204-.764.096-.946-.652-1.095-.488-.098-.508-.076-.726.773m8.82-.638c-.001.115-.079.49-.175.834l-.173.625h-2.151V24h1.808l-.406 1.042c-.224.573-.564 1.257-.758 1.52-.427.582-.161 1.883.343 1.678.144-.059.731-.148 1.304-.197l1.042-.089v2.213h-3.333V31.5h3.32l.048 1.375.048 1.375h1.5l.049-1.368.048-1.369 1.368-.048 1.369-.048.051-.625.052-.625h-2.853V28H216v-1.167h-2.333v-2H212v2h-1.171l.271-.625c.149-.343.39-.981.534-1.416l.263-.792h4.27v-1.333h-1.851c-1.625 0-1.839-.033-1.75-.266.276-.719.302-1.11.082-1.25-.36-.227-1.481-.184-1.482.057m59.515.167c-.706 1.834-1.984 4.107-2.801 4.985-.918.985-.282 1.762 1.215 1.485 1.086-.201 1.245-.146.848.292-.152.168-.276.363-.276.432 0 .137-.764 1.017-1.618 1.864-.5.496-.521.564-.333 1.061.23.612.003.629 3.034-.224l2-.564-.047-.552c-.063-.749-.066-.751-1.263-.464l-1.053.252 1.098-1.711c.997-1.553 1.103-1.666 1.15-1.227l.052.485 1.69.047 1.691.047-1.359.709c-.747.389-1.471.708-1.607.708-.432 0-.469.318-.097.841.411.577.503.569 2.098-.193 1.003-.48 1.564-.499 1.564-.055 0 .263-1.792 1.299-2.898 1.676-.894.305-.902.326-.351.967l.418.486.866-.403c.476-.221 1.272-.646 1.768-.944 1.265-.758 1.951-.352.847.5-.268.206-.8.625-1.184.931-.738.587-2.477 1.526-2.837 1.53-.578.007-.684.286-.308.813.546.768 1.922.288 4.304-1.502.957-.72 1.037-.655.697.569-.207.746-.738 1.023-1.715.895-.641-.084-.643-.082-.542.423.056.279.101.573.101.654 0 .373 2.299.153 2.801-.269.798-.672 1.068-2.295.681-4.098-.147-.687-.14-.89.034-.997.29-.179.484-.043.484.339 0 .474.978 3.246 1.167 3.309.092.031.167.148.167.261 0 .112.237.38.528.595l.528.391.388-.485c.497-.621.505-.575-.28-1.606-.559-.732-1.65-3.385-1.461-3.547.026-.022.352-.194.724-.382 1.057-.532 1.17-.753.649-1.274-.425-.425-1.064-.462-1.215-.07-.031.08-.156.145-.278.145-.122 0-.247.061-.278.135-.096.233-1.972 1.232-1.972 1.049 0-.095-.27-.443-.6-.773-.33-.33-.574-.614-.542-.631.032-.017.299-.2.594-.406.49-.343.722-.374 2.791-.374H283v-1.333h-1.25c-1.467 0-1.396.181-.917-2.334.184-.962.334-1.768.334-1.791 0-.023-1.097-.042-2.438-.042h-2.437l.1-.5c.098-.494.091-.5-.623-.5h-.722l-.444 1.875c-.244 1.031-.488 2.044-.543 2.25l-.099.375h2.587c2.487 0 2.584.013 2.502.326-.08.308-.269.33-3.226.375l-3.142.049.243-.369c.353-.539.299-.764-.257-1.08-.59-.336-.762-.219-1.24.841-.249.552-.399.692-.745.694-.238.001-.62.05-.85.109-.415.107-.415.106-.098-.253.353-.4.363-.417 1.453-2.481 1.113-2.109 1.119-2.148.384-2.455-.767-.32-.72-.327-.891.119m28.652 2.375v2.75h-4.166V28h4.166v8.5h1.5V28h4.334v-1.5h-4.334V21h-1.5v2.75m14.445-2.208c-.125.298-.652 1.066-1.17 1.708l-.944 1.167.504.458c.674.613.717.599 1.499-.458.792-1.073 1.265-1.192 1.714-.433.438.741.368.849-.548.849H314v6.334h2.333v1.166H312v1.323l1.875.047 1.875.047-.913.536c-.502.295-1.271.628-1.709.74-.899.231-.951.36-.409 1.037l.383.479 1.122-.379c1.462-.494 2.536-1.187 2.965-1.913l.344-.583h4.134v2.666h1.666v-2.666h3.854l-.052-.625-.052-.625-1.875-.047-1.875-.048v-1.155h2v-6.334l-.625-.002c-.455-.002-.557-.045-.377-.159.203-.129.213-.249.056-.665l-.191-.507H327v-1.333h-5.158l.095-.477c.173-.865-1.255-1-1.572-.148-.111.298-.349.729-.529.958l-.329.417-.003-.375c-.004-.369-.039-.375-2.083-.375h-2.079l.095-.477c.174-.87-1.302-1.002-1.659-.148M181 23.083V25h-2v1.333h2v4.948l-1.177.462c-.937.367-1.155.517-1.067.734.061.15.186.479.277.731.224.619.361.595 2.514-.444 1.028-.497 2.152-1.019 2.498-1.16.613-.25.625-.273.52-.93l-.108-.674h1.522c.836 0 1.521.049 1.521.108 0 1.22-2.075 3.919-3.614 4.7-.928.471-.952.546-.378 1.174l.492.539.875-.464c1.346-.713 3.158-2.644 3.661-3.903l.416-1.039.441.963c.242.529.44.994.44 1.032 0 .117.718 1.111 1.155 1.6.226.253.893.774 1.481 1.158l1.07.697.476-.574c.626-.755.611-.841-.223-1.289-.893-.479-2.087-1.564-2.484-2.255-.606-1.056-.934-1.704-1.048-2.072l-.116-.375h4.189v-.75c0-.746-.003-.75-.583-.75h-.583v-4.833h-3.834v-2.5H188v2.487l-1.542.048-1.541.048v1.5l1.548.048 1.547.048-.047 1.535-.048 1.536-1.792.047-1.792.047v.745c0 .409-.034.744-.077.744-.042 0-.455.149-.916.331l-.84.331v-4.329h2V25h-2v-3.833H181v1.916m65.422-1.519l-.495.396.963 1.04c.53.573 1.123 1.257 1.318 1.52.433.585.434.585 1.093.039.725-.6.71-.64-.763-2.105-1.452-1.444-1.434-1.436-2.116-.89m7.411.936v1.333h-3.5V25.5h3.363l-.109.708c-.06.39-.214 1.084-.341 1.542-.127.458-.228.9-.224.981.003.082-.056.194-.133.25-.076.056-.289.398-.472.758-.41.807-1.819 2.374-2.259 2.514-.44.139-.399.394.166 1.055l.478.559.57-.392c1.94-1.332 3.182-3.593 3.649-6.644l.203-1.331h3.432l-.088 1.375c-.326 5.062-.386 5.201-2.237 5.231-.778.012-1.41.087-1.406.166.086 1.426.535 1.699 2.468 1.499 2.12-.219 2.346-.872 2.704-7.813l.11-2.125h-4.874v-2.666h-1.5V22.5m37.759-.843l-.47.491 1.445 1.387 1.444 1.386.494-.51c.699-.721.701-.717-1.356-2.455-1.106-.934-.973-.908-1.557-.299m-218.814-.213c-.061.062-.111.924-.111 1.917v1.806H68.5v1.5h4.167v4.454l-1.894.69c-1.041.379-1.979.689-2.083.689-.105 0-.19.079-.19.177 0 .097-.076.129-.168.072-.328-.202-.37.445-.065 1.01.346.643.41.661 1.233.347.321-.123.833-.318 1.138-.435.305-.117.886-.38 1.291-.586l.738-.373v3.455h1.666V21.333h-.722c-.397 0-.772.05-.833.111m3.893 6.264c.005 8.746-.218 8.184 3.285 8.263 3.27.074 3.61-.188 3.821-2.938l.098-1.283-.748-.362-.749-.362-.085 1.486c-.111 1.959-.141 1.988-2.058 1.988-1.971 0-1.902.123-1.902-3.378v-2.734l2.309-1.362c2.899-1.71 3.056-1.866 2.512-2.486-.808-.921-.791-.919-1.717-.11-.469.411-1.341 1.076-1.937 1.479l-1.083.732-.046-2.654-.046-2.654h-1.658l.004 6.375m150.089-6.166c-.035.114-.148.696-.25 1.291-.102.596-.42 2.107-.706 3.358-.713 3.121-1.252 2.809 4.847 2.809h5.161l-.082.625c-.684 5.175-.778 5.312-3.513 5.158-.944-.054-1.717-.052-1.717.004 0 .055.127.389.282.74l.282.64h2.039c3.067 0 3.661-.832 4.227-5.917.092-.825.21-1.819.262-2.208l.095-.709h-10.559l.1-.375c.055-.206.186-.806.291-1.333l.191-.958h9.623v-1.5h-9.339l.076-.375c.042-.207.117-.574.168-.816.065-.309.015-.471-.169-.542-.455-.174-1.243-.109-1.309.108m-20.468.24c-.406.106-.372.329.267 1.736.308.678.605 1.363.661 1.523.088.25.167.263.566.094 1.016-.43 1.024-.508.21-2.051-.759-1.439-.867-1.521-1.704-1.302M378.667 29v7.333h1.666V23h.834c.458 0 .833.04.833.088 0 .048-.267.868-.593 1.822l-.592 1.734.589.887c1.217 1.834 1.126 3.508-.197 3.604-.775.056-.79.078-.524.84.368 1.056 2.791.467 2.812-.683.003-.161.069-.292.147-.292.078 0 .145-.413.15-.917.004-.504-.059-.916-.142-.916-.082 0-.15-.153-.15-.34 0-.379-.57-1.589-.955-2.028-.262-.298.376-2.5 1.149-3.964.517-.979.092-1.16-2.736-1.165l-2.291-.003V29m-221-.083V36h14.5v-1.5h-13V23.337l6.291-.043 6.292-.044.051-.708.051-.709h-14.185v7.084M334 22.5v.667h2.173l-.109.458c-.7 2.927-1.097 3.989-2.014 5.39-.367.559-.375.629-.139 1.083.14.267.254.579.255.694.002.381.586.214.874-.25.275-.444.285-.367.289 2.333l.004 2.792h.584c.569 0 .583-.016.583-.667v-.667h3.5V27h-1.684c-1.537 0-1.675-.026-1.571-.292.118-.303.455-1.637.705-2.791l.145-.667 1.286-.049 1.286-.048v-1.32H334v.667m6.833.083v.75h1.334v4.5h-1.834v1.5h1.863l-.094.625c-.051.344-.144 1-.205 1.459-.164 1.216-.623 2.436-1.288 3.424l-.584.868.47.395c.613.517.742.501 1.228-.146 1.133-1.508 1.935-3.883 1.941-5.75l.003-.875H346v7h1.667v-7h1.833v-1.5h-1.833v-4.5h1.5v-1.5h-8.334v.75m-61.333.82c0 .712-.137.764-2.009.764h-1.807l.174-.5.175-.5h1.733c1.386 0 1.734.047 1.734.236m66.5 2.18v2.25h-2.333v-4.5H346v2.25m-27.333-1.744c-.39.31-.398.346-.125.556.463.357.351.438-.602.438-.852 0-.89-.018-.818-.397.042-.218-.006-.448-.106-.51-.442-.273-.101-.426.942-.422l1.125.003-.416.332m3.698-.131c.144.115.392.415.551.667l.289.458h-1.623c-1.781 0-1.737.051-.853-.958.369-.42 1.21-.506 1.636-.167m-154.456.702c-.151.316-.437.748-.636.958-.2.21-.656.757-1.013 1.215-.932 1.195-.925 1.188-1.059.988-.395-.589-3.738-3.082-4.015-2.994-.803.255-.974.751-.422 1.23.783.681 3.16 2.671 3.569 2.989.127.099-1.496 1.537-2.582 2.287-.53.367-1.186.857-1.458 1.089l-.493.423.553.54c.303.297.649.503.767.457.307-.117 2.047-1.516 3.252-2.613l1.03-.938 1.303 1.188c.716.653 1.498 1.469 1.738 1.813.24.343.486.625.548.625.185 0 1.191-1.04 1.14-1.178-.123-.332-2.079-2.374-2.801-2.925-.936-.713-.927-.792.235-2.064 1.698-1.859 2.313-3.149 1.649-3.458-.719-.336-1.01-.253-1.305.368m193.329.406c-.922.672-3.63 2.017-4.062 2.017-.31 0-.189.43.231.825.595.558 2.522-.148 4.725-1.732.98-.705 1.001-.802.27-1.266l-.509-.322-.655.478m4.026-.13c-.66.518-.545.683 1.013 1.456.794.394 1.846.973 2.337 1.287 1.056.676 1.213.693 1.69.185.551-.586.189-.899-2.637-2.275-.78-.379-1.542-.757-1.695-.84-.197-.107-.404-.053-.708.187m26.903.481V26h-6.834v-1.667h6.834v.834M191.5 26.917V28.5h-2.167v-3.167h2.167v1.584m-98.833 1.25v2.5h4.5V35h-1.353c-1.326 0-1.351.007-1.237.375.064.206.159.554.21.773.092.391.12.397 1.529.304 2.61-.17 2.684-.268 2.684-3.546v-2.239h4.5v-5H92.667v2.5m48.875-2.252c-.657.285-.665.397-.097 1.297.245.387.792 1.389 1.215 2.225l.77 1.521.618-.247c.914-.364.634-1.47-.993-3.919-.826-1.244-.758-1.205-1.513-.877m-15.709.221c0 .475-.326 2.183-.625 3.276l-.273.995-.294-1.162c-.162-.639-.344-1.668-.406-2.287l-.111-1.125h.854c.715 0 .855.05.855.303m198 .031c0 .324-.111.333-4.166.333-4.056 0-4.167-.009-4.167-.333 0-.325.111-.334 4.167-.334 4.055 0 4.166.009 4.166.334m-34.166.486c0 .945.096 1.014 1.434 1.014h1.232v3.07c0 3.059-.001 3.073-.43 3.583l-.431.512.376.625c.207.345.402.658.433.698.031.039.261-.12.512-.354.252-.234 1.02-.811 1.707-1.284 2.026-1.393 1.885-1.222 1.651-2.002-.256-.857-.61-.818-1.722.19-.44.399-.415.58-.436-3.171l-.018-3.367h-4.308v.486m-44.334.597V28h2.167v2.494c0 2.395-.014 2.502-.365 2.689-.622.333-1.968 1.681-1.968 1.971 0 .151.22.535.489.852l.49.577.295-.416c.163-.229.608-.75.991-1.158l.695-.741 1.061.691c1.631 1.061 2.448 1.208 6.743 1.208 4.63 0 4.622.001 4.859-.889.238-.89.536-.829-3.066-.62-4.622.269-6.245.059-7.92-1.026l-.804-.521V26.5h-3.667v.75m-143.5.917v1.166h-7.5V27h7.5v1.167m260 0V29h-4.5v1.333h2.167c2.48 0 2.448-.026 1.775 1.417-.623 1.334-2.539 2.725-4.396 3.191-.563.141-.603.328-.189.889.44.594.673.615 1.845.166 2.769-1.06 4.271-2.661 4.568-4.871l.107-.792h3.123v2.552c0 3.297-.08 3.181 2.242 3.255 2.154.07 2.431-.063 2.837-1.351.419-1.334.305-1.975-.412-2.313-.751-.354-.769-.336-.876.841-.119 1.306-.158 1.35-1.217 1.35H368V29h-4.833v-1.667h-1.334v.834m-38-.334c0 .325-.111.334-4.166.334-4.056 0-4.167-.009-4.167-.334 0-.324.111-.333 4.167-.333 4.055 0 4.166.009 4.166.333m-185.055.445c-.061.061-.111 1.542-.111 3.291.001 4.539.052 4.596 4.083 4.596 3.452 0 3.885-.267 4.045-2.498l.077-1.087-.608-.29c-.335-.159-.635-.29-.667-.29-.032 0-.11.488-.174 1.085-.165 1.538-.237 1.582-2.588 1.582-2.758 0-2.502.344-2.502-3.351v-3.149h-.722c-.397 0-.772.05-.833.111M338.5 30.667V33h-2v-4.667h2v2.334m-191.353-1.622l-.603.17.555 1.201c.305.66.747 1.863.982 2.674.234.81.462 1.508.505 1.552.113.113 1.414-.298 1.414-.448 0-.882-1.737-5.377-2.064-5.34-.102.012-.457.098-.789.191m-10.722.163c-.035.115-.226.765-.424 1.444-.198.68-.58 1.699-.847 2.266-.612 1.294-.612 1.294.122 1.644.752.359.854.272 1.442-1.229.431-1.097 1.115-3.413 1.115-3.772 0-.372-1.301-.698-1.408-.353M384 29.667v.666h2.212l-.102.709c-.287 1.986-1.116 3.151-2.699 3.794-.779.316-1.247.831-.756.831.086 0 .206.158.268.352.268.847 2.726-.288 3.597-1.661.503-.792.884-1.945 1.07-3.233l.115-.792h1.432l.057 2.642c.071 3.328-.025 3.192 2.239 3.192 2.035 0 2.201-.128 2.353-1.805.089-.978.086-.985-.457-1.256-.784-.391-.807-.372-.862.686l-.05.958-.875.05-.875.051v-4.518h3V29H384v.667m-60.167.166c0 .325-.111.334-4.166.334-4.056 0-4.167-.009-4.167-.334 0-.324.111-.333 4.167-.333 4.055 0 4.166.009 4.166.333M117.11 31.375c-.123 1.949-.307 2.741-.779 3.34-.576.732.103 1.99.774 1.434.333-.275 1.058-1.773 1.06-2.191.001-.16.072-.291.158-.291.086 0 .154-.132.152-.292-.003-.16.05-.798.117-1.417l.123-1.125h1.618v1.217c0 .669-.083 1.3-.184 1.401-.22.22.103 1.382.384 1.382.095 0 .413-.206.707-.458s.89-.704 1.324-1.004c1.054-.728.843-2.009-.239-1.45-.674.348-.658.371-.658-1.004v-1.25h-4.45l-.107 1.708m106.223.206v.752h10.853l-.051-.708-.052-.708-5.375-.044-5.375-.044v.752m98.334.169v.583h-4v-1.166h4v.583m-228.651.477c-.275.4-.966 1.188-1.535 1.752l-1.035 1.025.389.415c.661.704 1.107.46 2.915-1.593 1.413-1.604 1.501-1.907.625-2.151-.857-.237-.8-.26-1.359.552m8.401-.448c-.275.146-.533.294-.574.33-.04.036.266.42.68.853.415.433 1.119 1.238 1.566 1.788.446.55.866 1.066.933 1.146.154.187 1.311-.52 1.311-.8 0-.383-2.888-3.601-3.221-3.589-.108.003-.42.126-.695.272m170.833.344c-.183.046-.481.187-.662.314-.181.126-.462.23-.625.23-.163 0-.296.064-.296.142 0 .078-.619.341-1.375.584-1.829.588-1.847.602-1.665 1.29.219.832.31.816 4.317-.788 1.158-.464 1.192-.494 1.111-.978-.164-.98-.145-.961-.805-.794M3.899 42c0 1.237.026 1.744.058 1.125s.032-1.631 0-2.25-.058-.113-.058 1.125"/><path fill="#5c54a4" d="M46.821 35.477c.108.201.267.322.354.268.365-.226.116.225-.441.798-.555.572-1.401.82-1.401.411 0-.077-.084-.088-.188-.024-.163.101.213.453.522.487.08.009 1.607.978 2.535 1.609.248.169.504.307.568.307.126 0 2.759 1.508 2.897 1.659.045.05.457.292.913.537.606.325.864.577.956.931.607 2.342 4.427 1.939 4.366-.46-.028-1.091-.02-1.068-.622-1.707-.621-.658-1.671-.952-2.266-.634-.339.182-.521.124-1.514-.483-.656-.4-2.818-1.634-3.375-1.925-.344-.18-.625-.393-.625-.473 0-.081-.113-.104-.25-.051-.138.053-.25.023-.25-.066 0-.088-.109-.161-.242-.161s-.301-.1-.375-.223c-.264-.444-1.789-1.224-1.562-.8M39 41.434c0 .159.47.566.655.566.098 0 .178-.079.178-.177 0-.097-.075-.13-.166-.073-.092.057-.167.032-.167-.056 0-.087-.113-.202-.25-.254-.138-.053-.25-.056-.25-.006m.732.642c-.173.095-.659.448-1.078.784-.54.433-.833.568-1 .462-.317-.201-.487-.193-.487.021 0 .097.07.133.156.08.087-.053.293.042.459.213.166.17.751.56 1.301.867.55.307 1.038.601 1.084.653.045.052.271.2.5.33.229.13.791.448 1.25.708.458.26 1.264.715 1.791 1.011 1.114.626 1.137.681.424.976-.294.122-.669.356-.833.52-.165.165-.387.299-.494.299-.108 0-.314.102-.459.227-.144.124-.675.452-1.179.727-.505.275-1.723.961-2.708 1.523-.984.563-1.866 1.023-1.958 1.023-.092 0-.168.07-.168.155 0 .086-.168.209-.375.274-.206.066-.6.286-.875.49-.417.31-2.542 1.533-5.24 3.016-.315.173-.72.444-.9.601-.18.157-.39.246-.468.198-.078-.048-.142-.008-.142.089 0 .098-.078.177-.173.177-.095 0-.377.139-.625.309-.248.17-1.005.62-1.682 1l-1.231.691-1.866-1.083c-1.026-.596-1.919-1.084-1.984-1.084-.066 0-.261-.131-.434-.291-.173-.161-.563-.436-.868-.611l-.553-.32.5.493c.275.271.551.469.613.441.063-.028.161.026.218.119.058.093.017.169-.09.169s-.655.364-1.218.81c-.563.445-1.124.773-1.248.73-.712-.249.28.64 1.335 1.196.673.354 1.56.869 1.973 1.144 1.346.896 7.95 4.62 8.194 4.62.076 0 .139.066.139.146 0 .431.866.06 1.75-.75.538-.493 1.042-.896 1.119-.896.152 0 2.947-2.136 3.631-2.776.49-.457 2.556-2.029 4.363-3.32.704-.503 1.304-.973 1.334-1.044.066-.161 3.066-2.526 3.204-2.526.151 0 2.099-1.539 2.099-1.658 0-.112 1.6-1.342 1.746-1.342.049 0 .808-.563 1.687-1.25.88-.688 1.747-1.25 1.927-1.25.179 0 .284-.07.231-.155-.053-.086-.288-.121-.523-.078-.268.048-.388.013-.321-.095.058-.095.021-.172-.083-.172-.104 0-.628-.338-1.164-.75-.536-.413-1.025-.75-1.088-.75-.098 0-.993-.491-3.412-1.873-.321-.183-.958-.576-1.416-.872-2.91-1.882-4.28-2.568-4.685-2.346m331.48 1.424c0 .413.033.581.072.375.04-.206.04-.544 0-.75-.039-.206-.072-.038-.072.375m-28.476 4c0 1.788.025 2.519.055 1.625.03-.894.03-2.356 0-3.25-.03-.894-.055-.163-.055 1.625m28.496-.25c.001 1.283.027 1.786.059 1.118.031-.669.031-1.719-.001-2.334-.032-.614-.058-.067-.058 1.216m-195.86.25c0 .321.034.452.076.292.042-.161.042-.423 0-.584-.042-.16-.076-.029-.076.292"/></g></svg>