<svg xmlns="http://www.w3.org/2000/svg" role="img" viewBox="-16.03 -16.03 833.56 332.56"><title>Beijing Haawking Technology Co., Ltd. logo</title><g fill="#2159b0"><path d="M0 0h802v301H0V0m111.65 23.52c-7.42 3.93-14.54 8.38-21.81 12.58.07 8.9-.03 17.81.06 26.71 4.53 2.5 8.96 5.18 13.5 7.65.13 9.23.02 18.46.07 27.7-11.07 9.03-22.09 18.14-33.16 27.18-5.39-4.48-10.9-8.81-16.25-13.34.15-4.64-.21-9.3.16-13.94 4-3.51 9.14-5.49 13.56-8.45-.12-8.85-.07-17.7-.03-26.55-7.69-4.31-15.12-9.11-22.94-13.16-7.96 3.87-15.28 8.97-23.13 13.09-.03 8.88.03 17.76-.03 26.63 4.72 2.77 9.44 5.53 14.14 8.33-.15 7.67-.06 15.35-.07 23.02 6.69 5.42 13.24 11 19.98 16.34-6.71 5.48-13.44 10.95-20.04 16.56.18 18-.11 36 .15 54-4.66 2.85-9.41 5.54-14.14 8.29 0 8.83-.01 17.67.01 26.5 7.74 4.41 15.33 9.07 23.15 13.35 7.66-4.43 15.3-8.89 22.91-13.4-.04-8.81-.04-17.62 0-26.43-4.57-2.73-9.21-5.34-13.73-8.13.23-14.38.02-28.76.09-43.13-.35-3.3 3.27-4.69 5.26-6.63 14.67-12.1 29.59-23.92 44.05-36.27.11 37.7.03 75.41.04 113.11-4.56 2.54-9.11 5.11-13.63 7.73.09 8.96.02 17.91.04 26.88 7.62 4.46 15.41 8.64 22.95 13.23 7.57-4.61 15.37-8.8 23-13.3 0-8.91-.05-17.82.05-26.72-4.55-2.69-9.15-5.29-13.78-7.83.01-9.22.05-18.43-.02-27.64 11.09-9.02 22.18-18.05 33.18-27.18 5.52 4.51 11.03 9.04 16.49 13.63-.12 4.67-.13 9.35.03 14.03-4.6 2.82-9.31 5.47-14 8.14.01 8.84-.01 17.67.01 26.51 7.71 4.46 15.34 9.05 23.11 13.41 7.72-4.38 15.34-8.93 23.01-13.41 0-8.83-.04-17.67.02-26.51-4.64-2.73-9.32-5.39-13.91-8.19.13-7.7.02-15.39.09-23.09-6.83-5.39-13.46-11.03-20.28-16.43 6.73-5.56 13.54-11.01 20.26-16.58-.06-17.98.1-35.97-.09-53.95 4.62-2.81 9.31-5.52 13.97-8.27-.15-8.85-.04-17.7-.07-26.55-7.74-4.24-15.13-9.16-23.01-13.12-7.94 3.9-15.28 8.96-23.1 13.11-.03 8.86.02 17.71-.03 26.57 4.68 2.74 9.36 5.48 14 8.3-.19 14.96-.08 29.92-.06 44.88-16.43 13.7-33.02 27.2-49.58 40.72-.04-37.64.05-75.28-.04-112.92 4.6-2.59 9.14-5.29 13.74-7.87.03-8.87-.04-17.73.04-26.6-6.75-3.92-13.49-7.89-20.27-11.77-1.2-.52-2.6-1.68-3.92-.82m437.83 35.02c-3.98 1.09-7.55-2.18-11.56-1.6-3.25.28-8.73 1.44-7.15 5.9 2.79 4.44 8.14 7.7 8.47 13.38-.51 6.49-3.36 12.47-4.67 18.79-.62 2.03.31 4.3 2.46 4.85 4.66.91 8.85-2.13 13.4-2.56 6.56-.41 13.07-1.41 19.66-1.44 7.93-1.13 16.01-1.19 23.99-.56 5.02.86 11.25 1.88 15.01-2.47 1.61-2.73-.52-5.3-2.25-7.27 1.45-4.35 2.82-8.76 4.8-12.9 1.44-3.07 4.36-5.01 6.19-7.78 1.11-3.17.34-6.61.12-9.87-4.09-.44-8 .66-11.87 1.78-7.69-.24-15.28-2.39-23.03-1.81-11.3-.49-22.56 1.15-33.57 3.56m142.84-3.41c-4.13.79-4.14 5.44-4.79 8.71-6.74 3.19-14.35 3.74-21.11 6.91-1.96-.38-3.93-.76-5.87-1.17-2.75 4.4-2.33 10.22.5 14.48 9.24.82 18.03-2.33 26.93-4.24.81 2.82 1.23 5.86 2.84 8.38 1.81 2.4 5.56 2.35 7.43.03 2.6-3.26 3.67-7.42 5.47-11.12 6.29-.87 13.38-2.69 19.3.4-2.1 4.26-6.2 8.3-5.27 13.42 1.58 2.53 5.16 2.65 7.62 1.46 5.26-2.53 8.65-7.5 11.76-12.24 1.13-1.52 2.45-3.87 4.72-2.99 8.46 1.5 18.46 4.31 26.02-1.29 2.7-1.78 6.02-4.97 4.06-8.46-2.78-3.14-7.39.35-10.97-.38-6.14-.84-12.29-1.81-18.38-2.98-.33-2.41-.33-4.96-1.41-7.18-1.56-2.08-4.5-2.27-6.82-1.69-3.9 1.25-5.04 6.04-8.82 7.46-4.92 2.03-10.35 1.23-15.52 1.41-2.91-.05-6.73.52-8.29-2.62-1.88-3.45-4.86-7.55-9.4-6.3m-404.24 2.85c-2.02 2.8-2.83 7.77-7.01 7.93-9.76.83-19.5 2.01-29.1 4.03-6.37 1.41-12.95 1.64-19.27 3.33.26 2.48-.21 5.35 1.56 7.38 2.44 3.06 6.77 3.75 9.21 6.78 2.42 4.11 1.23 9.2-.04 13.49-1.6 5.13-7.02 7.51-9.42 12.13-1.85 2.94-1.77 6.5-1.89 9.84 3.2.1 6.63.52 9.52-1.23 8.8-4.59 18.54-6.98 28.29-8.56 4.58-.71 9.31-1.89 13.94-.93.55 1.51.44 3.15.42 4.73-.57 10.37-.94 20.75-.99 31.13.04 2.53-.12 5.17.83 7.57 4.6 1.28 11.58.22 13.07-5.06.95-7.44.5-14.99.63-22.48.19-5.64-1.04-11.51 1-16.95 4.21.01 8.39-1.23 12.6-.52 4.53.56 9.12.3 13.62 1.12 4.93.45 10.76 1.49 14.51-2.59-.5-2.93-1.37-5.85-1.21-8.85 1-4.2 3.07-8.08 5.13-11.85 2.23-4.06 6.16-7.03 7.73-11.47.78-2.44.68-6.14-2.29-6.99-3.09-1.85-6.49-.4-9.49.8-.33-.13-1-.38-1.33-.5-5.29-.97-10.39-2.78-15.68-3.7-4.31-.83-8.73-.31-13.05-.94-3.41-.57-6.87-.71-10.32-.68-1.41-2.45-2.93-4.84-4.76-7.01-2.07.02-4.14.03-6.21.05m171.69 7.73c-1.62 6.08 1.65 12.16.39 18.26-.69 4.26-.74 8.64-1.8 12.83-.18-.73-.53-2.19-.71-2.92-4.74-1.49-9.58-2.99-14.61-2.95-6.06-.47-11.83 1.67-17.74 2.59-2.01 4.33-3.8 12.18 2.1 14.21 4.48.8 9.13.26 13.52-.87 4.84-1.27 9.89-2.81 13.58-6.39 1.16-.94 2.02-2.4 3.55-2.8 1.2 1.41.43 3.6.74 5.32-.22 2.14.51 4.89-1.12 6.59-10.13.96-20.37 1.92-30.22 4.71-4.25 1.31-8.15 3.77-12.68 4.05-.58 3.59-.67 7.24-.3 10.86.5.46 1.51 1.4 2.01 1.86 8.13.51 15.56-3.29 23.07-5.8 5.11-1.34 10.24-2.87 15.53-3.26 1.28-.26 3.25.27 3.13 1.91.54 9.68-.4 19.42.67 29.08 3.67.13 7.45.23 10.92-1.19 1.55-9.01.22-18.16.44-27.24 6.3 2.85 14.44 5.85 20.64 1.22 4.43-4.07 7.71-9.8 8.12-15.89-1.8.13-3.59.27-5.37.44-2.57-.24-5.15-.52-7.72-.28-3.06.33-5.85 2.24-8.99 1.93-2.46-.56-4.62-1.92-6.83-3.08-.04-9.56-.16-19.14.74-28.66.54-5.85 3.35-11.36 2.9-17.33.21-2.95-3.39-4.09-5.76-3.99-4.03-.4-7.15 3.26-8.2 6.79m-72.66-2.6c-2.76 1.17-5.84.68-8.72 1.31-2.37 1.2-2.53 4.23-2.72 6.56-.1 2.96-.18 6.96 2.85 8.56 7.53 1.73 15.2-.4 22.36-2.72-.17 1.49-.14 3.42-1.82 4.07-4.22 1.79-8.89 2.18-13.14 3.91-3.56 1.45-7.43 1.85-11.05 3.05-2.35 2.34-2.5 6.05-2.38 9.17-.03 2.18 1.16 4.61 3.54 4.89 7.63 1.12 14.67-2.75 22.08-3.8l1.08 1.88c-5.98 5.81-13.11 11.93-21.86 12.22-.37-.55-1.11-1.66-1.48-2.22-1.37.01-2.73.03-4.1.04-.61 5.96-.6 12.76 4.23 17.08 3.56-.2 7.45.48 10.67-1.46 4.4-2.32 8.48-5.17 12.69-7.8.42 8.7-2.51 17.53-.27 26.1 1.24 3.85 5.53 4.39 9 4.11 1.69-11.36-.01-22.87 1.06-34.27 4.62.31 9.83 2.34 14.01-.66 1.79-2.9-.03-6.86-2.99-8.27-3.43-1.7-7.06-3.04-10.09-5.46.08-.47.24-1.42.32-1.9.46-.3 1.4-.91 1.86-1.22 3.34-.86 6.96-1.45 9.73-3.65 2.17-3.47 1.53-7.77 1.33-11.65-4.84.04-9.98.71-14.33-1.94 1.76-4.01 6.46-3.69 10.1-4.29 3.76-.53 6.45-3.78 8.13-6.95.27-1.55.89-4.09-1.14-4.69-8.23-3.46-17.35-3.37-26.11-3.05-4.44.16-8.76 1.35-12.84 3.05m50.64 8.05c-.38.18-1.16.55-1.55.73-3.69-1.46-8.55-1.39-10.64 2.55-.68 2.77-.72 5.9.36 8.59 1.36 3.09 4.98 4.18 8.11 4.04 9.01.57 17.72-3.11 24.92-8.27.09-1.18.19-2.36.29-3.54-3.8-2.25-7.78-4.48-12.2-5.17-3.15-.35-6.23.53-9.29 1.07M683.2 92.35c-1.85 4.87-.48 10.21.54 15.12-3.19 4.14-6.39 8.91-11.61 10.64-1.61-1.3-2.98-2.86-4.42-4.34-2.06.37-4.94-.08-5.63 2.5-2.24 5.89-2.04 12.6-.12 18.55.69 1.78 1.61 4.37 3.96 4.18 2.99.24 6.67.42 8.59-2.39 4.73-6.92 8.72-14.49 14.5-20.63 1.9-.15 3.08 1.62 4.43 2.67 7.82 7.52 15.63 15.04 23.37 22.63 5.41 5.28 10.87 10.61 17.16 14.85 4.18 2.75 8.94 5.09 14.07 4.96 11.53.7 21.2-6.77 29.92-13.3 2.4-1.48 2.17-4.48 2.55-6.92-5.69-.5-10.87 2.56-16.52 2.23-5.1-.08-10.14-.94-15.12-1.93-8.45-1.72-15.63-6.74-22.81-11.21-3.96-2.43-7.77-5.1-11.27-8.15 3.24-3.88 7.1-7.2 11.62-9.5 3.45-1.55 3.57-6.02 2.42-9.12-1.27-3.11-3.51-5.83-6.28-7.71-3.32-2.24-7.5-1.34-11.24-1.49.03 1.18.07 2.35.12 3.53.61 1.45 2.3 2.75 1.89 4.43-1.49 4.52-4.48 8.31-7.47 11.93-7.79-5.52-9.45-15.65-16.18-22.03-2.17.11-4.34.12-6.47.5m58.54 5.73c-.26 2.66-.28 5.35.03 8.01-3.1 3.5-6.61 6.57-10.15 9.6-1.74 1.28-2.43 3.35-3.06 5.31 6.06 1.59 12.76 1.74 18.55-.93 3.18-1.46 7.05-2.9 8.5-6.38 1.38-5.95-1.77-11.53-5.7-15.73-2.73.03-5.46.06-8.17.12m-188.31 2.25c-6.94.95-13.67 3.64-20.8 2.61-1.05 3.35-2.44 7.99.72 10.63 3 1.03 6.25.32 9.31-.06 4.42-.84 9.05-.01 13.38-1.46 3.24-1.06 6.7-1.42 10.09-.91.65 2.82-3.18 3.19-5.12 3.73-9.68 1.27-19.36 2.81-29.11 3.34-4.88.37-5.21 8.41-.8 9.76 4.94 1.96 10.48 1.13 15.52-.04l.81-.77c4.73-1.12 9.49-2.26 14.38-2.23-5.89 10.01-17.97 13.06-28.69 14.49-6.27 1.45-12.6-.03-18.88-.57.1 5.44-.93 11.54 2.56 16.22 3.92-.08 7.87.14 11.77-.38 7.64-1.33 14.9-4.19 22.01-7.18 4.22-1.83 8.54-3.69 12.02-6.76 3.85-3.41 6.45-7.92 9.53-11.98 10.33 10.19 21.55 19.48 33.74 27.37 3.35 2.06 6.99 4.23 11.08 3.95 4.53.36 8.82-2.02 11.56-5.52 3.3-4.23 7.27-8.34 8.33-13.8-3.62.57-7.24 1.57-10.93 1.1-10.13-1.4-19.97-4.46-29.39-8.39-4.27-1.75-8.05-4.46-11.48-7.51 7.94 1.11 15.95 2.8 24 1.85 2.37-.43 4.91-1.68 5.74-4.12.58-1.92.63-3.94.88-5.91-11.6-5.73-24.96-3.16-37.4-3.87.84-1.32 1.7-2.64 2.57-3.95 10.23-.79 20.48 2.53 30.62.49 4.15-.98 3.92-7.62.18-8.95-4.29-1.63-8.95-1.32-13.42-1.9-8.02-1.21-16.15-.35-24.22-.63-6.9-.38-13.7.99-20.56 1.35m-310.49 92.1c0 2.63-.02 5.27-.08 7.91 2.67.01 5.34-.01 8.01-.01-1.15.99-2.31 1.97-3.46 2.96.09 17.58.02 35.17.03 52.75 2.61-.06 5.21-.1 7.82-.16-.07-9.18-.06-18.37-.02-27.55 4.72.06 9.43.07 14.16.07-.04 9.2-.02 18.4-.03 27.6h7.47c0-21.2.01-42.4 0-63.6-2.49 0-4.97-.01-7.46-.02 0 9.41-.04 18.82.04 28.24-4.74.05-9.48.07-14.21.09-.11-9.45.31-18.91-.25-28.35-4.01.04-8.02.06-12.02.07m82.27.76c-.3.88-.52 1.79-.66 2.72-2.9 20.05-6.14 40.06-9.11 60.1 2.68-.01 5.37-.01 8.06-.01.78-5.27 1.61-10.53 2.34-15.81 4.58-.07 9.17-.03 13.76-.09.84 5.29 1.67 10.59 2.36 15.9h8.16c-3.28-21.04-6.46-42.1-9.69-63.16-5.07.16-10.2-.48-15.22.35m67.37-.01c-3.2 20.93-6.23 41.89-9.37 62.82h7.88c.67-5.31 1.47-10.6 2.33-15.88 4.39.05 8.78.06 13.18.03.81 5.28 1.61 10.56 2.31 15.86 2.63-.01 5.25-.01 7.88 0-3.16-20.94-6.19-41.89-9.37-62.82-4.95.03-9.9.03-14.84-.01m57.61.03c1.86 20.88 3.95 41.74 5.73 62.63 4.52.04 9.05.03 13.58 0 2.63-14.05 3.26-28.36 5.49-42.46 1.73 14.16 2.6 28.44 5.34 42.46 4.33-.01 8.67.22 13-.07.78-3.5.95-7.1 1.26-10.66 1.65-17.3 3.2-34.62 4.9-51.91-2.59 0-5.18 0-7.76.01-1.59 18.8-2.86 37.65-4.75 56.42-1.47-5.38-1.95-10.96-2.77-16.45-1.69-11.33-3.28-22.66-4.98-33.98-2.93 0-5.86.01-8.79.02-2.7 16.78-4.46 33.73-7.51 50.45-1.38-5.8-1.29-11.8-1.88-17.7-1.12-12.93-2.14-25.86-3.28-38.78-2.53 0-5.06.01-7.58.02m88.03-.09v62.5c2.49 0 4.98.01 7.48.02.01-9.93 0-19.86.01-29.79 1.36-.01 2.72-.01 4.1-.01 4.65 9.93 9.23 19.88 13.91 29.79 2.78-.01 5.55-.02 8.34-.02-5.22-11.19-10.42-22.38-15.73-33.53 4.64-9.64 9.22-19.3 13.73-29.01-2.82.05-5.64.07-8.45.11-3.86 8.39-7.87 16.71-11.81 25.07h-4.1c.01-8.38.01-16.77 0-25.15-2.5 0-4.99.01-7.48.02m74.01.01c-.29 20.85-.54 41.71-.89 62.57 2.5-.01 5.01-.01 7.52-.01.41-20.86.51-41.72.88-62.57-2.51 0-5.01 0-7.51.01m50.53-.29c-.01 20.78 0 41.56 0 62.34 2.57 0 5.14 0 7.72.01-.01-9.74.02-19.49-.01-29.23-.02-6.76-.87-13.49-.9-20.25 5 16.54 10.21 33.02 15.53 49.47 2.73 0 5.47 0 8.22.01-.01-20.79.01-41.57-.01-62.35-2.57 0-5.12-.01-7.67-.01.13 10.46-.4 20.95.55 31.38.39 4.72.67 9.46.49 14.2-3.99-15.35-8.56-30.53-13.57-45.58-3.45.01-6.9.01-10.35.01m70.56 9.39c.07 14.4.01 28.79.03 43.19 3.08 3.03 5.65 6.59 9.01 9.32 4.12.98 8.5.26 12.73.43 3.14-3.25 6.26-6.53 9.29-9.89-.12-8.02-.04-16.05-.05-24.07-5.31.03-10.61.02-15.9 0-.01 2.5-.02 5.01-.01 7.51 2.78-.01 5.56-.02 8.35-.02-.03 4.59-.03 9.18-.04 13.77-1.66 1.77-3.31 3.54-4.94 5.32-1.98.01-3.95.03-5.92.07-1.92-2.37-5.22-4.35-5.03-7.77-.04-11.63.01-23.27.01-34.9 1.69-1.67 3.38-3.35 5.08-5.03 1.96.03 3.94.06 5.92.08 1.63 1.67 3.28 3.34 4.93 5.01-.03 2.74-.05 5.49-.07 8.24 2.54 0 5.09-.01 7.64 0-.03-3.78-.03-7.55-.03-11.32-3.1-3.11-6.19-6.22-9.31-9.3-4.02.03-8.06-.3-12.05.18-3.75 2.41-6.42 6.14-9.64 9.18z"/><path d="M108.09 46.92c1.58-.95 3.15-1.9 4.73-2.84 1.51.92 3.03 1.84 4.54 2.77.03 1.66.07 3.32.11 4.98-1.54.93-3.07 1.86-4.6 2.79-1.63-.93-3.25-1.86-4.87-2.79.03-1.63.06-3.27.09-4.91zm444.84 22.02c9.16-2.29 18.66-2.69 28.02-3.8 6.56-.33 13.24-.53 19.69.98.88.86 1.77 1.72 2.66 2.58-1.98 1.03-4.16 1.71-6.39 1.13-6.88-1.36-13.92-.7-20.88-.85-9.35.02-18.34 2.91-27.53 4.17 1.1-1.73 2.13-3.9 4.43-4.21zM44.69 71.13c1.51.89 3.02 1.77 4.52 2.67l-.15 5.28c-1.47.86-2.93 1.74-4.38 2.62-1.42-.95-2.97-1.75-4.17-2.97-.21-1.69-.2-3.38-.25-5.08 1.48-.83 2.95-1.67 4.43-2.52zm131.7 2.57c1.5-.87 3-1.73 4.5-2.6 1.49.92 2.99 1.84 4.48 2.77-.05 1.72-.09 3.45-.13 5.17-1.45.85-2.9 1.7-4.34 2.55-1.47-.82-2.94-1.64-4.42-2.46-.03-1.81-.07-3.62-.09-5.43zm122.44 8.27c.11-1.19.87-2.8 2.24-2.81 5.96-.42 11.99-.36 17.92.49 4.42.52 9.8-.05 12.78 4.02-1.85 5.04-3.97 10.01-6.84 14.56-8.04-2.14-16.38-.68-24.54-1.44-.39-.28-1.19-.82-1.59-1.1-.52-4.55-.44-9.18.03-13.72zm-37.38 2.48c7.29-2.34 14.98-3.21 22.52-4.38 1.68-.46 2.53 1.56 2.42 2.92.23 3.97.25 8.01-.38 11.95-1.08 2.17-3.68 2.88-5.93 3-7.72.49-15.35 1.88-22.98 3.15.71-5.51-1.79-13.53 4.35-16.64zm288.82.75c12.76-5.82 27.09-5.49 40.8-5.13 2.58.2 5.04 1.07 7.52 1.78-2.37 3.19-6.29 1.97-9.54 1.42-4.03-.85-8.01.55-12.02.66-10.89.16-21.43 3.26-31.82 6.2 1.41-1.88 2.77-4.01 5.06-4.93zM330.15 212.02c.68-4.21.78-8.65 2.9-12.48 2.45 10.84 3.43 21.96 5.46 32.88-3.82 0-7.63 0-11.45-.01.98-6.8 2.07-13.59 3.09-20.39zm67.17 1.05c.72-4.49.92-9.14 2.67-13.39.67 2.07 1.3 4.17 1.62 6.34 1.23 8.8 2.57 17.59 3.97 26.37h-11.17c1.05-6.43 1.93-12.88 2.91-19.32zm-356.98 13.5c1.46-.82 2.91-1.65 4.35-2.48 1.45.81 2.89 1.61 4.35 2.4.04 1.83.08 3.67.11 5.51-1.44.86-2.87 1.73-4.31 2.61-1.48-.81-2.95-1.62-4.43-2.42-.03-1.88-.05-3.75-.07-5.62zm136.1.06c1.48-.86 2.96-1.73 4.43-2.61 1.52.96 3.04 1.9 4.56 2.85-.07 1.7-.14 3.41-.2 5.12-1.45.89-2.91 1.79-4.36 2.69-1.5-.94-3.01-1.87-4.51-2.81.03-1.75.05-3.49.08-5.24zm-68.45 27.36c1.62-.97 3.23-1.94 4.85-2.9 1.55.94 3.09 1.88 4.63 2.84l-.15 4.86c-1.49.89-2.99 1.78-4.47 2.68-1.56-.9-3.12-1.8-4.67-2.7-.07-1.6-.13-3.19-.19-4.78z"/></g><g fill="#77f2f0"><path d="M111.65 23.52c1.32-.86 2.72.3 3.92.82 6.78 3.88 13.52 7.85 20.27 11.77-.08 8.87-.01 17.73-.04 26.6-4.6 2.58-9.14 5.28-13.74 7.87.09 37.64 0 75.28.04 112.92 16.56-13.52 33.15-27.02 49.58-40.72-.02-14.96-.13-29.92.06-44.88-4.64-2.82-9.32-5.56-14-8.3.05-8.86 0-17.71.03-26.57 7.82-4.15 15.16-9.21 23.1-13.11 7.88 3.96 15.27 8.88 23.01 13.12.03 8.85-.08 17.7.07 26.55-4.66 2.75-9.35 5.46-13.97 8.27.19 17.98.03 35.97.09 53.95-6.72 5.57-13.53 11.02-20.26 16.58 6.82 5.4 13.45 11.04 20.28 16.43-.07 7.7.04 15.39-.09 23.09 4.59 2.8 9.27 5.46 13.91 8.19-.06 8.84-.02 17.68-.02 26.51-7.67 4.48-15.29 9.03-23.01 13.41-7.77-4.36-15.4-8.95-23.11-13.41-.02-8.84 0-17.67-.01-26.51 4.69-2.67 9.4-5.32 14-8.14-.16-4.68-.15-9.36-.03-14.03-5.46-4.59-10.97-9.12-16.49-13.63-11 9.13-22.09 18.16-33.18 27.18.07 9.21.03 18.42.02 27.64 4.63 2.54 9.23 5.14 13.78 7.83-.1 8.9-.05 17.81-.05 26.72-7.63 4.5-15.43 8.69-23 13.3-7.54-4.59-15.33-8.77-22.95-13.23-.02-8.97.05-17.92-.04-26.88 4.52-2.62 9.07-5.19 13.63-7.73-.01-37.7.07-75.41-.04-113.11-14.46 12.35-29.38 24.17-44.05 36.27-1.99 1.94-5.61 3.33-5.26 6.63-.07 14.37.14 28.75-.09 43.13 4.52 2.79 9.16 5.4 13.73 8.13-.04 8.81-.04 17.62 0 26.43-7.61 4.51-15.25 8.97-22.91 13.4-7.82-4.28-15.41-8.94-23.15-13.35-.02-8.83-.01-17.67-.01-26.5 4.73-2.75 9.48-5.44 14.14-8.29-.26-18 .03-36-.15-54 6.6-5.61 13.33-11.08 20.04-16.56-6.74-5.34-13.29-10.92-19.98-16.34.01-7.67-.08-15.35.07-23.02-4.7-2.8-9.42-5.56-14.14-8.33.06-8.87 0-17.75.03-26.63 7.85-4.12 15.17-9.22 23.13-13.09 7.82 4.05 15.25 8.85 22.94 13.16-.04 8.85-.09 17.7.03 26.55-4.42 2.96-9.56 4.94-13.56 8.45-.37 4.64-.01 9.3-.16 13.94 5.35 4.53 10.86 8.86 16.25 13.34 11.07-9.04 22.09-18.15 33.16-27.18-.05-9.24.06-18.47-.07-27.7-4.54-2.47-8.97-5.15-13.5-7.65-.09-8.9.01-17.81-.06-26.71 7.27-4.2 14.39-8.65 21.81-12.58m-3.56 23.4c-.03 1.64-.06 3.28-.09 4.91 1.62.93 3.24 1.86 4.87 2.79 1.53-.93 3.06-1.86 4.6-2.79-.04-1.66-.08-3.32-.11-4.98-1.51-.93-3.03-1.85-4.54-2.77-1.58.94-3.15 1.89-4.73 2.84m-63.4 24.21c-1.48.85-2.95 1.69-4.43 2.52.05 1.7.04 3.39.25 5.08 1.2 1.22 2.75 2.02 4.17 2.97 1.45-.88 2.91-1.76 4.38-2.62l.15-5.28c-1.5-.9-3.01-1.78-4.52-2.67m131.7 2.57c.02 1.81.06 3.62.09 5.43 1.48.82 2.95 1.64 4.42 2.46 1.44-.85 2.89-1.7 4.34-2.55.04-1.72.08-3.45.13-5.17-1.49-.93-2.99-1.85-4.48-2.77-1.5.87-3 1.73-4.5 2.6M40.34 226.57c.02 1.87.04 3.74.07 5.62 1.48.8 2.95 1.61 4.43 2.42 1.44-.88 2.87-1.75 4.31-2.61-.03-1.84-.07-3.68-.11-5.51-1.46-.79-2.9-1.59-4.35-2.4-1.44.83-2.89 1.66-4.35 2.48m136.1.06c-.03 1.75-.05 3.49-.08 5.24 1.5.94 3.01 1.87 4.51 2.81 1.45-.9 2.91-1.8 4.36-2.69.06-1.71.13-3.42.2-5.12-1.52-.95-3.04-1.89-4.56-2.85-1.47.88-2.95 1.75-4.43 2.61m-68.45 27.36c.06 1.59.12 3.18.19 4.78 1.55.9 3.11 1.8 4.67 2.7 1.48-.9 2.98-1.79 4.47-2.68l.15-4.86c-1.54-.96-3.08-1.9-4.63-2.84-1.62.96-3.23 1.93-4.85 2.9zM549.48 58.54c11.01-2.41 22.27-4.05 33.57-3.56 7.75-.58 15.34 1.57 23.03 1.81 3.87-1.12 7.78-2.22 11.87-1.78.22 3.26.99 6.7-.12 9.87-1.83 2.77-4.75 4.71-6.19 7.78-1.98 4.14-3.35 8.55-4.8 12.9 1.73 1.97 3.86 4.54 2.25 7.27-3.76 4.35-9.99 3.33-15.01 2.47-7.98-.63-16.06-.57-23.99.56-6.59.03-13.1 1.03-19.66 1.44-4.55.43-8.74 3.47-13.4 2.56-2.15-.55-3.08-2.82-2.46-4.85 1.31-6.32 4.16-12.3 4.67-18.79-.33-5.68-5.68-8.94-8.47-13.38-1.58-4.46 3.9-5.62 7.15-5.9 4.01-.58 7.58 2.69 11.56 1.6m3.45 10.4c-2.3.31-3.33 2.48-4.43 4.21 9.19-1.26 18.18-4.15 27.53-4.17 6.96.15 14-.51 20.88.85 2.23.58 4.41-.1 6.39-1.13-.89-.86-1.78-1.72-2.66-2.58-6.45-1.51-13.13-1.31-19.69-.98-9.36 1.11-18.86 1.51-28.02 3.8m-2.66 16.26c-2.29.92-3.65 3.05-5.06 4.93 10.39-2.94 20.93-6.04 31.82-6.2 4.01-.11 7.99-1.51 12.02-.66 3.25.55 7.17 1.77 9.54-1.42-2.48-.71-4.94-1.58-7.52-1.78-13.71-.36-28.04-.69-40.8 5.13zm142.05-30.07c4.54-1.25 7.52 2.85 9.4 6.3 1.56 3.14 5.38 2.57 8.29 2.62 5.17-.18 10.6.62 15.52-1.41 3.78-1.42 4.92-6.21 8.82-7.46 2.32-.58 5.26-.39 6.82 1.69 1.08 2.22 1.08 4.77 1.41 7.18 6.09 1.17 12.24 2.14 18.38 2.98 3.58.73 8.19-2.76 10.97.38 1.96 3.49-1.36 6.68-4.06 8.46-7.56 5.6-17.56 2.79-26.02 1.29-2.27-.88-3.59 1.47-4.72 2.99-3.11 4.74-6.5 9.71-11.76 12.24-2.46 1.19-6.04 1.07-7.62-1.46-.93-5.12 3.17-9.16 5.27-13.42-5.92-3.09-13.01-1.27-19.3-.4-1.8 3.7-2.87 7.86-5.47 11.12-1.87 2.32-5.62 2.37-7.43-.03-1.61-2.52-2.03-5.56-2.84-8.38-8.9 1.91-17.69 5.06-26.93 4.24-2.83-4.26-3.25-10.08-.5-14.48 1.94.41 3.91.79 5.87 1.17 6.76-3.17 14.37-3.72 21.11-6.91.65-3.27.66-7.92 4.79-8.71zm-404.24 2.85c2.07-.02 4.14-.03 6.21-.05 1.83 2.17 3.35 4.56 4.76 7.01 3.45-.03 6.91.11 10.32.68 4.32.63 8.74.11 13.05.94 5.29.92 10.39 2.73 15.68 3.7.33.12 1 .37 1.33.5 3-1.2 6.4-2.65 9.49-.8 2.97.85 3.07 4.55 2.29 6.99-1.57 4.44-5.5 7.41-7.73 11.47-2.06 3.77-4.13 7.65-5.13 11.85-.16 3 .71 5.92 1.21 8.85-3.75 4.08-9.58 3.04-14.51 2.59-4.5-.82-9.09-.56-13.62-1.12-4.21-.71-8.39.53-12.6.52-2.04 5.44-.81 11.31-1 16.95-.13 7.49.32 15.04-.63 22.48-1.49 5.28-8.47 6.34-13.07 5.06-.95-2.4-.79-5.04-.83-7.57.05-10.38.42-20.76.99-31.13.02-1.58.13-3.22-.42-4.73-4.63-.96-9.36.22-13.94.93-9.75 1.58-19.49 3.97-28.29 8.56-2.89 1.75-6.32 1.33-9.52 1.23.12-3.34.04-6.9 1.89-9.84 2.4-4.62 7.82-7 9.42-12.13 1.27-4.29 2.46-9.38.04-13.49-2.44-3.03-6.77-3.72-9.21-6.78-1.77-2.03-1.3-4.9-1.56-7.38 6.32-1.69 12.9-1.92 19.27-3.33 9.6-2.02 19.34-3.2 29.1-4.03 4.18-.16 4.99-5.13 7.01-7.93m10.75 23.99c-.47 4.54-.55 9.17-.03 13.72.4.28 1.2.82 1.59 1.1 8.16.76 16.5-.7 24.54 1.44 2.87-4.55 4.99-9.52 6.84-14.56-2.98-4.07-8.36-3.5-12.78-4.02-5.93-.85-11.96-.91-17.92-.49-1.37.01-2.13 1.62-2.24 2.81m-37.38 2.48c-6.14 3.11-3.64 11.13-4.35 16.64 7.63-1.27 15.26-2.66 22.98-3.15 2.25-.12 4.85-.83 5.93-3 .63-3.94.61-7.98.38-11.95.11-1.36-.74-3.38-2.42-2.92-7.54 1.17-15.23 2.04-22.52 4.38zm198.32-18.74c1.05-3.53 4.17-7.19 8.2-6.79 2.37-.1 5.97 1.04 5.76 3.99.45 5.97-2.36 11.48-2.9 17.33-.9 9.52-.78 19.1-.74 28.66 2.21 1.16 4.37 2.52 6.83 3.08 3.14.31 5.93-1.6 8.99-1.93 2.57-.24 5.15.04 7.72.28 1.78-.17 3.57-.31 5.37-.44-.41 6.09-3.69 11.82-8.12 15.89-6.2 4.63-14.34 1.63-20.64-1.22-.22 9.08 1.11 18.23-.44 27.24-3.47 1.42-7.25 1.32-10.92 1.19-1.07-9.66-.13-19.4-.67-29.08.12-1.64-1.85-2.17-3.13-1.91-5.29.39-10.42 1.92-15.53 3.26-7.51 2.51-14.94 6.31-23.07 5.8-.5-.46-1.51-1.4-2.01-1.86-.37-3.62-.28-7.27.3-10.86 4.53-.28 8.43-2.74 12.68-4.05 9.85-2.79 20.09-3.75 30.22-4.71 1.63-1.7.9-4.45 1.12-6.59-.31-1.72.46-3.91-.74-5.32-1.53.4-2.39 1.86-3.55 2.8-3.69 3.58-8.74 5.12-13.58 6.39-4.39 1.13-9.04 1.67-13.52.87-5.9-2.03-4.11-9.88-2.1-14.21 5.91-.92 11.68-3.06 17.74-2.59 5.03-.04 9.87 1.46 14.61 2.95.18.73.53 2.19.71 2.92 1.06-4.19 1.11-8.57 1.8-12.83 1.26-6.1-2.01-12.18-.39-18.26z"/><path d="M387.11 63.11c4.08-1.7 8.4-2.89 12.84-3.05 8.76-.32 17.88-.41 26.11 3.05 2.03.6 1.41 3.14 1.14 4.69-1.68 3.17-4.37 6.42-8.13 6.95-3.64.6-8.34.28-10.1 4.29 4.35 2.65 9.49 1.98 14.33 1.94.2 3.88.84 8.18-1.33 11.65-2.77 2.2-6.39 2.79-9.73 3.65-.46.31-1.4.92-1.86 1.22-.08.48-.24 1.43-.32 1.9 3.03 2.42 6.66 3.76 10.09 5.46 2.96 1.41 4.78 5.37 2.99 8.27-4.18 3-9.39.97-14.01.66-1.07 11.4.63 22.91-1.06 34.27-3.47.28-7.76-.26-9-4.11-2.24-8.57.69-17.4.27-26.1-4.21 2.63-8.29 5.48-12.69 7.8-3.22 1.94-7.11 1.26-10.67 1.46-4.83-4.32-4.84-11.12-4.23-17.08 1.37-.01 2.73-.03 4.1-.04.37.56 1.11 1.67 1.48 2.22 8.75-.29 15.88-6.41 21.86-12.22l-1.08-1.88c-7.41 1.05-14.45 4.92-22.08 3.8-2.38-.28-3.57-2.71-3.54-4.89-.12-3.12.03-6.83 2.38-9.17 3.62-1.2 7.49-1.6 11.05-3.05 4.25-1.73 8.92-2.12 13.14-3.91 1.68-.65 1.65-2.58 1.82-4.07-7.16 2.32-14.83 4.45-22.36 2.72-3.03-1.6-2.95-5.6-2.85-8.56.19-2.33.35-5.36 2.72-6.56 2.88-.63 5.96-.14 8.72-1.31z"/><path d="M437.75 71.16c3.06-.54 6.14-1.42 9.29-1.07 4.42.69 8.4 2.92 12.2 5.17-.1 1.18-.2 2.36-.29 3.54-7.2 5.16-15.91 8.84-24.92 8.27-3.13.14-6.75-.95-8.11-4.04-1.08-2.69-1.04-5.82-.36-8.59 2.09-3.94 6.95-4.01 10.64-2.55.39-.18 1.17-.55 1.55-.73zM683.2 92.35c2.13-.38 4.3-.39 6.47-.5 6.73 6.38 8.39 16.51 16.18 22.03 2.99-3.62 5.98-7.41 7.47-11.93.41-1.68-1.28-2.98-1.89-4.43-.05-1.18-.09-2.35-.12-3.53 3.74.15 7.92-.75 11.24 1.49 2.77 1.88 5.01 4.6 6.28 7.71 1.15 3.1 1.03 7.57-2.42 9.12-4.52 2.3-8.38 5.62-11.62 9.5 3.5 3.05 7.31 5.72 11.27 8.15 7.18 4.47 14.36 9.49 22.81 11.21 4.98.99 10.02 1.85 15.12 1.93 5.65.33 10.83-2.73 16.52-2.23-.38 2.44-.15 5.44-2.55 6.92-8.72 6.53-18.39 14-29.92 13.3-5.13.13-9.89-2.21-14.07-4.96-6.29-4.24-11.75-9.57-17.16-14.85-7.74-7.59-15.55-15.11-23.37-22.63-1.35-1.05-2.53-2.82-4.43-2.67-5.78 6.14-9.77 13.71-14.5 20.63-1.92 2.81-5.6 2.63-8.59 2.39-2.35.19-3.27-2.4-3.96-4.18-1.92-5.95-2.12-12.66.12-18.55.69-2.58 3.57-2.13 5.63-2.5 1.44 1.48 2.81 3.04 4.42 4.34 5.22-1.73 8.42-6.5 11.61-10.64-1.02-4.91-2.39-10.25-.54-15.12z"/><path d="M741.74 98.08c2.71-.06 5.44-.09 8.17-.12 3.93 4.2 7.08 9.78 5.7 15.73-1.45 3.48-5.32 4.92-8.5 6.38-5.79 2.67-12.49 2.52-18.55.93.63-1.96 1.32-4.03 3.06-5.31 3.54-3.03 7.05-6.1 10.15-9.6-.31-2.66-.29-5.35-.03-8.01zm-188.31 2.25c6.86-.36 13.66-1.73 20.56-1.35 8.07.28 16.2-.58 24.22.63 4.47.58 9.13.27 13.42 1.9 3.74 1.33 3.97 7.97-.18 8.95-10.14 2.04-20.39-1.28-30.62-.49-.87 1.31-1.73 2.63-2.57 3.95 12.44.71 25.8-1.86 37.4 3.87-.25 1.97-.3 3.99-.88 5.91-.83 2.44-3.37 3.69-5.74 4.12-8.05.95-16.06-.74-24-1.85 3.43 3.05 7.21 5.76 11.48 7.51 9.42 3.93 19.26 6.99 29.39 8.39 3.69.47 7.31-.53 10.93-1.1-1.06 5.46-5.03 9.57-8.33 13.8-2.74 3.5-7.03 5.88-11.56 5.52-4.09.28-7.73-1.89-11.08-3.95-12.19-7.89-23.41-17.18-33.74-27.37-3.08 4.06-5.68 8.57-9.53 11.98-3.48 3.07-7.8 4.93-12.02 6.76-7.11 2.99-14.37 5.85-22.01 7.18-3.9.52-7.85.3-11.77.38-3.49-4.68-2.46-10.78-2.56-16.22 6.28.54 12.61 2.02 18.88.57 10.72-1.43 22.8-4.48 28.69-14.49-4.89-.03-9.65 1.11-14.38 2.23l-.81.77c-5.04 1.17-10.58 2-15.52.04-4.41-1.35-4.08-9.39.8-9.76 9.75-.53 19.43-2.07 29.11-3.34 1.94-.54 5.77-.91 5.12-3.73-3.39-.51-6.85-.15-10.09.91-4.33 1.45-8.96.62-13.38 1.46-3.06.38-6.31 1.09-9.31.06-3.16-2.64-1.77-7.28-.72-10.63 7.13 1.03 13.86-1.66 20.8-2.61zm-310.49 92.1c4-.01 8.01-.03 12.02-.07.56 9.44.14 18.9.25 28.35 4.73-.02 9.47-.04 14.21-.09-.08-9.42-.04-18.83-.04-28.24 2.49.01 4.97.02 7.46.02.01 21.2 0 42.4 0 63.6h-7.47c.01-9.2-.01-18.4.03-27.6-4.73 0-9.44-.01-14.16-.07-.04 9.18-.05 18.37.02 27.55-2.61.06-5.21.1-7.82.16-.01-17.58.06-35.17-.03-52.75 1.15-.99 2.31-1.97 3.46-2.96-2.67 0-5.34.02-8.01.01.06-2.64.08-5.28.08-7.91zm82.27.76c5.02-.83 10.15-.19 15.22-.35 3.23 21.06 6.41 42.12 9.69 63.16h-8.16c-.69-5.31-1.52-10.61-2.36-15.9-4.59.06-9.18.02-13.76.09-.73 5.28-1.56 10.54-2.34 15.81-2.69 0-5.38 0-8.06.01 2.97-20.04 6.21-40.05 9.11-60.1.14-.93.36-1.84.66-2.72m4.94 18.83c-1.02 6.8-2.11 13.59-3.09 20.39 3.82.01 7.63.01 11.45.01-2.03-10.92-3.01-22.04-5.46-32.88-2.12 3.83-2.22 8.27-2.9 12.48zm62.43-18.84c4.94.04 9.89.04 14.84.01 3.18 20.93 6.21 41.88 9.37 62.82-2.63-.01-5.25-.01-7.88 0-.7-5.3-1.5-10.58-2.31-15.86-4.4.03-8.79.02-13.18-.03-.86 5.28-1.66 10.57-2.33 15.88h-7.88c3.14-20.93 6.17-41.89 9.37-62.82m4.74 19.89c-.98 6.44-1.86 12.89-2.91 19.32h11.17c-1.4-8.78-2.74-17.57-3.97-26.37-.32-2.17-.95-4.27-1.62-6.34-1.75 4.25-1.95 8.9-2.67 13.39zm52.87-19.86c2.52-.01 5.05-.02 7.58-.02 1.14 12.92 2.16 25.85 3.28 38.78.59 5.9.5 11.9 1.88 17.7 3.05-16.72 4.81-33.67 7.51-50.45 2.93-.01 5.86-.02 8.79-.02 1.7 11.32 3.29 22.65 4.98 33.98.82 5.49 1.3 11.07 2.77 16.45 1.89-18.77 3.16-37.62 4.75-56.42 2.58-.01 5.17-.01 7.76-.01-1.7 17.29-3.25 34.61-4.9 51.91-.31 3.56-.48 7.16-1.26 10.66-4.33.29-8.67.06-13 .07-2.74-14.02-3.61-28.3-5.34-42.46-2.23 14.1-2.86 28.41-5.49 42.46-4.53.03-9.06.04-13.58 0-1.78-20.89-3.87-41.75-5.73-62.63zm88.03-.09c2.49-.01 4.98-.02 7.48-.02.01 8.38.01 16.77 0 25.15h4.1c3.94-8.36 7.95-16.68 11.81-25.07 2.81-.04 5.63-.06 8.45-.11-4.51 9.71-9.09 19.37-13.73 29.01 5.31 11.15 10.51 22.34 15.73 33.53-2.79 0-5.56.01-8.34.02-4.68-9.91-9.26-19.86-13.91-29.79-1.38 0-2.74 0-4.1.01-.01 9.93 0 19.86-.01 29.79-2.5-.01-4.99-.02-7.48-.02v-62.5zm74.01.01c2.5-.01 5-.01 7.51-.01-.37 20.85-.47 41.71-.88 62.57-2.51 0-5.02 0-7.52.01.35-20.86.6-41.72.89-62.57zm50.53-.29c3.45 0 6.9 0 10.35-.01 5.01 15.05 9.58 30.23 13.57 45.58.18-4.74-.1-9.48-.49-14.2-.95-10.43-.42-20.92-.55-31.38 2.55 0 5.1.01 7.67.01.02 20.78 0 41.56.01 62.35-2.75-.01-5.49-.01-8.22-.01-5.32-16.45-10.53-32.93-15.53-49.47.03 6.76.88 13.49.9 20.25.03 9.74 0 19.49.01 29.23-2.58-.01-5.15-.01-7.72-.01 0-20.78-.01-41.56 0-62.34zm70.56 9.39c3.22-3.04 5.89-6.77 9.64-9.18 3.99-.48 8.03-.15 12.05-.18 3.12 3.08 6.21 6.19 9.31 9.3 0 3.77 0 7.54.03 11.32-2.55-.01-5.1 0-7.64 0 .02-2.75.04-5.5.07-8.24-1.65-1.67-3.3-3.34-4.93-5.01-1.98-.02-3.96-.05-5.92-.08-1.7 1.68-3.39 3.36-5.08 5.03 0 11.63-.05 23.27-.01 34.9-.19 3.42 3.11 5.4 5.03 7.77 1.97-.04 3.94-.06 5.92-.07 1.63-1.78 3.28-3.55 4.94-5.32.01-4.59.01-9.18.04-13.77-2.79 0-5.57.01-8.35.02-.01-2.5 0-5.01.01-7.51 5.29.02 10.59.03 15.9 0 .01 8.02-.07 16.05.05 24.07-3.03 3.36-6.15 6.64-9.29 9.89-4.23-.17-8.61.55-12.73-.43-3.36-2.73-5.93-6.29-9.01-9.32-.02-14.4.04-28.79-.03-43.19z"/></g></svg>