<svg xmlns="http://www.w3.org/2000/svg" role="img" viewBox="5130.10 4380.10 4734.80 6234.80"><title>Beijing Vcore Technology Co.,Ltd. (member) logo</title><style>svg {shape-rendering:geometricPrecision;text-rendering:geometricPrecision;image-rendering:optimizeQuality;fill-rule:evenodd;clip-rule:evenodd}</style><defs><style>.fil2{fill:#87bbde}.fil1{fill:#578fab}</style></defs><g id="图层_x0020_1"><g id="_2494398796880"><path fill="#332c2b" d="M7250 6750h500v2250h-500z"/><path d="M6750 6000v2250l-500-500V5500z" class="fil1"/><path d="M5750 5000v2250l-500-500V4500z" class="fil2"/><path d="M8750 5500v2250l-500 500V6000z" class="fil1"/><path d="M9750 4500v2250l-500 500V5000z" class="fil2"/><path fill="#332c2b" fill-rule="nonzero" d="M5858 10500h-318l-290-782h203l239 630h14l239-630h203l-290 782zm834-811c30 0 61 3 92 8 31 6 61 13 89 22 29 9 55 20 80 34 24 13 46 28 64 45l-58 87c-39-30-80-53-121-70-41-16-85-24-132-24-35 0-67 5-96 16-28 11-54 29-75 54-21 24-38 56-50 95-12 38-18 85-18 139s6 100 18 139c12 38 29 70 52 94 22 25 49 43 80 54s66 17 103 17c48 0 92-9 133-25s81-40 121-69l58 86c-19 17-40 32-65 45-24 14-51 25-79 34-29 9-58 17-89 22s-62 8-93 8c-69 0-131-9-187-27-57-18-105-44-145-78-39-34-70-76-91-127-22-50-33-108-33-173s11-123 33-173c21-51 51-93 90-128 39-34 85-60 139-78s114-27 180-27zm898 717c31 0 60-6 87-17 27-12 51-30 71-55 21-24 37-56 49-96s18-87 18-143-6-104-18-144c-12-39-28-71-49-96-20-25-44-43-71-54-27-12-56-18-87-18-30 0-59 6-86 18-27 11-51 29-71 54-21 25-37 57-49 96-12 40-18 88-18 144s6 103 18 143 28 72 49 96c20 25 44 43 71 55 27 11 56 17 86 17zm0-717c65 0 125 9 179 27 55 18 101 44 140 78 39 35 69 77 90 128 22 50 33 108 33 173s-11 123-33 173c-21 51-51 93-90 127s-85 60-140 78c-54 18-114 27-179 27s-125-9-179-27-100-44-139-78-69-76-90-127c-22-50-33-108-33-173s11-123 33-173c21-51 51-93 90-128 39-34 85-60 139-78s114-27 179-27zm1239 131h-174c-65 0-115 17-150 52-35 36-52 88-52 158v470h-203v-470c0-99 31-175 93-230 63-54 152-82 269-82h217v102zm552 579c47 0 91-9 132-25s82-40 121-69l58 86c-18 17-40 32-64 45-25 14-51 25-80 34-28 9-58 17-89 22s-62 8-93 8c-68 0-131-9-187-27-57-18-105-44-144-78-40-34-70-76-92-127-22-50-33-108-33-173s11-123 31-173c21-51 50-93 87-128 38-34 82-60 133-78s107-27 169-27c58 0 113 9 164 26 51 18 95 43 133 76 38 34 68 74 90 121 22 48 33 101 33 161v101h-618c11 80 39 138 83 173 44 34 99 52 166 52zm-51-616c-28 0-54 6-78 16-24 11-45 28-63 51s-32 53-43 90c-11 36-18 81-18 133h405c0-50-6-94-17-130-12-37-27-67-46-91-19-23-41-41-65-52-25-11-50-17-75-17z"/></g></g></svg>