<svg xmlns="http://www.w3.org/2000/svg" role="img" xmlns:xlink="http://www.w3.org/1999/xlink" viewBox="-0.57 1.93 250.64 65.14"><title>Bluespec (member) logo</title><defs><path d="M20.74219-24.84375c2.46093 0 4.375-.34375 5.74218-1.02344 2.14844-1.07422 3.22266-3.00781 3.22266-5.80468 0-2.8125-1.14453-4.70313-3.42578-5.6797-1.28906-.54687-3.20313-.8203-5.74219-.8203H10.13672v13.32812zm1.96093 19.86328c3.57422 0 6.125-1.03515 7.64844-3.10547.95703-1.3086 1.4375-2.89062 1.4375-4.7461 0-3.125-1.39843-5.2539-4.1914-6.38671-1.48438-.60547-3.44922-.90625-5.88672-.90625H10.13672v15.14453zM4.42188-43.03907h18.48828c5.03906 0 8.62109 1.50782 10.7539 4.51563 1.25 1.77735 1.875 3.82813 1.875 6.14844 0 2.71484-.77343 4.94531-2.3164 6.67969-.80078.91797-1.95313 1.75781-3.45703 2.52343 2.20703.83985 3.85937 1.78516 4.95312 2.83985 1.9336 1.875 2.89844 4.46484 2.89844 7.76172 0 2.77343-.86719 5.28515-2.60938 7.53125C32.41016-1.6797 28.28125 0 22.6172 0H4.42187zm0 0" id="a"/><path d="M4.01563-43.03906h5.27343V0H4.01563zm0 0" id="b"/><path d="M9.14063-31.375v20.82813c0 1.60156.2539 2.91015.76171 3.92578.9375 1.875 2.6836 2.8125 5.2461 2.8125 3.67187 0 6.17187-1.64063 7.5-4.92188.72265-1.75781 1.08203-4.16797 1.08203-7.23828V-31.375h5.27344V0h-4.98047l.0586-4.6289c-.6836 1.1914-1.53516 2.19921-2.55079 3.01952C19.51953.03126 17.07812.85156 14.21094.85156c-4.47266 0-7.52344-1.4961-9.14063-4.48437C4.19141-5.23437 3.75-7.375 3.75-10.04688V-31.375zm0 0" id="c"/><path d="M16.9336-32.07813c2.22656 0 4.38671.51954 6.47265 1.56641 2.08984 1.04297 3.6836 2.39453 4.77734 4.0586 1.0547 1.58203 1.75782 3.42578 2.10938 5.53515.3125 1.44531.46875 3.75.46875 6.91406H7.76562c.09766 3.1836.84766 5.73828 2.25391 7.66016 1.40625 1.92578 3.58203 2.88672 6.53516 2.88672 2.7539 0 4.94922-.91016 6.58984-2.72266.9375-1.05469 1.60156-2.27734 1.99219-3.66406h5.1836c-.13673 1.15234-.58985 2.4375-1.35938 3.85156-.77344 1.41797-1.63672 2.57422-2.59375 3.47266C24.76562-.95703 22.78125.09766 20.42187.64453c-1.26953.3125-2.70703.46875-4.30859.46875-3.90625 0-7.21484-1.42187-9.9336-4.26172-2.71484-2.84375-4.0703-6.82031-4.0703-11.9375 0-5.03906 1.36718-9.13281 4.10156-12.27734 2.73437-3.14453 6.3086-4.71485 10.72265-4.71485zm8.41015 13.88282c-.21484-2.28516-.71484-4.10938-1.4961-5.47657-1.4453-2.53906-3.85546-3.80859-7.23828-3.80859-2.42187 0-4.45312.875-6.09374 2.6211-1.64063 1.75-2.50782 3.96874-2.60547 6.66406zm0 0" id="d"/><path d="M7-9.84375c.15625 1.75781.59766 3.10547 1.32031 4.04297C9.64844-4.10156 11.95313-3.25 15.23438-3.25c1.95312 0 3.67187-.42578 5.15625-1.27734C21.875-5.375 22.61718-6.6875 22.61718-8.46875c0-1.34766-.59375-2.3711-1.78907-3.07422-.76171-.42969-2.26562-.92578-4.5078-1.4961l-4.19141-1.05468C9.45313-14.75781 7.48047-15.5 6.21094-16.32031 3.9453-17.7461 2.8125-19.71875 2.8125-22.23438c0-2.96874 1.07031-5.375 3.20703-7.21093 2.14063-1.83594 5.01563-2.75 8.6289-2.75 4.72657 0 8.13282 1.38281 10.22657 4.15625 1.3086 1.75781 1.9414 3.65625 1.90234 5.6875h-4.98046c-.09766-1.1914-.51563-2.27735-1.25782-3.2539-1.21093-1.38673-3.3125-2.08204-6.30078-2.08204-1.99219 0-3.5.38281-4.52734 1.14453-1.02344.76172-1.53907 1.76953-1.53907 3.01953 0 1.36719.67579 2.46094 2.02344 3.28125.78125.48828 1.9336.91407 3.45703 1.28907l3.48828.84765c3.78907.91797 6.32813 1.8086 7.6172 2.66797 2.05077 1.34766 3.07421 3.46484 3.07421 6.35547 0 2.79297-1.0586 5.20703-3.17969 7.23828C22.53516.1875 19.3047 1.20313 14.96875 1.20313c-4.66797 0-7.97266-1.0625-9.91406-3.1797-1.94531-2.12109-2.98438-4.74218-3.1211-7.86718zm0 0" id="e"/><path d="M17.10938-3.54688c2.46093 0 4.5078-1.02734 6.13671-3.08984 1.63282-2.0586 2.44922-5.14062 2.44922-9.24219 0-2.5-.36328-4.64843-1.08593-6.4453-1.3672-3.45704-3.8672-5.1836-7.5-5.1836-3.65235 0-6.15235 1.82422-7.5 5.47656-.72266 1.95313-1.08594 4.4336-1.08594 7.4414 0 2.42188.36328 4.48048 1.08593 6.1836 1.3672 3.24219 3.8672 4.85938 7.5 4.85938zM3.45702-31.23046h5.1289v4.16016c1.0547-1.42578 2.20313-2.53125 3.45313-3.3125 1.77735-1.17188 3.86719-1.75782 6.27344-1.75782 3.55469 0 6.57031 1.36329 9.05078 4.08985 2.48047 2.72265 3.72266 6.61328 3.72266 11.67578 0 6.83594-1.78907 11.71875-5.36328 14.64844C23.45703.1289 20.8203 1.05469 17.8125 1.05469c-2.36328 0-4.34375-.51563-5.94531-1.55469-.9375-.58594-1.98438-1.58984-3.13672-3.01563v16.02344H3.45703zm0 0" id="f"/><path d="M15.96875-32.28516c3.53516 0 6.41016.85938 8.625 2.57813 2.21875 1.71875 3.55078 4.67578 4 8.8789h-5.125c-.3125-1.93359-1.02734-3.54296-2.14063-4.8203-1.11328-1.28126-2.89843-1.92188-5.35937-1.92188-3.35938 0-5.76563 1.64062-7.21094 4.92187-.9375 2.1289-1.40625 4.75782-1.40625 7.88282 0 3.14453.66406 5.78906 1.99219 7.9375 1.32813 2.14843 3.42188 3.22656 6.27344 3.22656 2.1875 0 3.91797-.67188 5.19922-2.00781 1.27734-1.33985 2.16015-3.17188 2.65234-5.4922h5.125c-.58594 4.16016-2.05078 7.19923-4.39453 9.125C21.85547-.05468 18.85937.90626 15.20312.90626c-4.10156 0-7.37109-1.4961-9.8125-4.4961-2.4414-2.99609-3.66406-6.74218-3.66406-11.23437 0-5.50781 1.33985-9.79297 4.01563-12.86328 2.67578-3.0664 6.08594-4.59766 10.22656-4.59766zm0 0" id="g"/></defs><use y="50" xlink:href="#a"/><use x="40.02" y="50" xlink:href="#b"/><use x="53.35" y="50" xlink:href="#c"/><use x="86.719" y="50" xlink:href="#d"/><use x="120.088" y="50" xlink:href="#e"/><use x="150.088" y="50" xlink:href="#f"/><use x="183.457" y="50" xlink:href="#d"/><use x="216.826" y="50" xlink:href="#g"/></svg>