<svg xmlns="http://www.w3.org/2000/svg" role="img" viewBox="87.40 203.40 1071.20 499.20"><title>Bluespec (member) logo</title><path fill="#d39329" d="M123.596 599.4h1002.212v82.751H123.67l-.074-82.751z"/><path fill="#fff" d="M295.93848 663.07031v-44.70117h46.75928v5.27441h-37.58691v13.84375h32.52832v5.27539h-32.52832v20.30762h-9.17236zm82.78662-21.77148c0-7.41992 3.08887-13.22852 9.2666-17.42676 6.17773-4.19727 14.15234-6.2959 23.92383-6.2959 6.39844 0 12.16602.98633 17.30371 2.95703 5.1377 1.97266 9.05469 4.72168 11.74902 8.24902 2.69531 3.52637 4.04297 7.52637 4.04297 11.99805 0 4.5332-1.41895 8.58887-4.25586 12.16699-2.83594 3.57812-6.85547 6.28613-12.05566 8.12598-5.20117 1.83984-10.81152 2.75977-16.83203 2.75977-6.52441 0-12.35547-1.0166-17.49316-3.0498-5.1377-2.03223-9.03027-4.80664-11.67773-8.32422-2.64746-3.5166-3.97168-7.23633-3.97168-11.16016zm9.45605.0918c0 5.38672 2.24609 9.63086 6.7373 12.73047s10.125 4.64941 16.90234 4.64941c6.90234 0 12.58398-1.56445 17.04395-4.69531 4.45996-3.12988 6.69043-7.57227 6.69043-13.3252 0-3.63867-.9541-6.81543-2.86035-9.5293-1.90723-2.71289-4.69727-4.81738-8.36914-6.31152s-7.79297-2.24121-12.36328-2.24121c-6.49316 0-12.08008 1.43848-16.76074 4.31445-4.68066 2.87695-7.02051 7.67969-7.02051 14.4082zm141.03418-23.02149h9.17188v25.82617c0 4.49316-.78809 8.06055-2.36328 10.70312-1.57715 2.64258-4.4209 4.79199-8.53418 6.44922s-9.51172 2.48535-16.19336 2.48535c-6.49316 0-11.80469-.72266-15.93359-2.16504-4.12891-1.44336-7.07617-3.53223-8.84082-6.2666-1.76562-2.7334-2.64746-6.46875-2.64746-11.20605v-25.82617h9.17188v25.7959c0 3.88281.55957 6.74414 1.67871 8.58398 1.11816 1.83984 3.04102 3.25781 5.76758 4.25293 2.72656.99707 6.05957 1.49414 10 1.49414 6.74414 0 11.55176-.98535 14.41992-2.95703s4.30273-5.76367 4.30273-11.37402v-25.7959zm51.25098 44.70117v-44.70117h9.4082l36.40576 35.0957v-35.0957h8.79395v44.70117h-9.4082l-36.40576-35.12695v35.12695h-8.79395zm96.92334 0v-44.70117h23.87695c5.38965 0 9.50293.21289 12.33984.63965 3.9707.58984 7.35938 1.65723 10.16504 3.20215 3.65625 1.99219 6.38965 4.53809 8.20312 7.6377 1.81152 3.10059 2.71777 6.64258 2.71777 10.62695 0 3.39551-.61426 6.40332-1.84375 9.02539-1.22949 2.62305-2.80566 4.79297-4.72754 6.51074-1.92285 1.71777-4.02734 3.06934-6.31152 4.05469-2.28613.98633-5.04395 1.7334-8.27441 2.24121-3.23145.50879-6.94238.7627-11.13379.7627h-25.01172zm9.17283-5.27539h14.79787c4.57031 0 8.15625-.27441 10.75684-.82324 2.59961-.54883 4.67188-1.32129 6.2168-2.31738 2.1748-1.40234 3.86914-3.28809 5.08301-5.65625 1.21289-2.36816 1.82031-5.23926 1.82031-8.61426 0-4.6748-1.19043-8.26758-3.57031-10.77832s-5.27148-4.19336-8.67578-5.04688c-2.45801-.60938-6.41406-.91504-11.86719-.91504h-14.56154v34.15137zm89.21584 5.27539v-44.70117h9.17188v44.70117h-9.17188zm52.14941 0v-44.70117h9.4082l36.40527 35.0957v-35.0957h8.79395v44.70117h-9.4082l-36.40527-35.12695v35.12695h-8.79395zm129.35645-17.5332v-5.24414l29.36035-.03125v16.58789c-4.50781 2.31738-9.15723 4.06055-13.94727 5.22949-4.79199 1.16895-9.70898 1.75391-14.75195 1.75391-6.80762 0-12.99414-.94043-18.55664-2.82129-5.56348-1.87988-9.76367-4.59863-12.60059-8.15625-2.83594-3.55762-4.25488-7.53125-4.25488-11.92285 0-4.34961 1.41016-8.41016 4.23145-12.18164 2.82031-3.77051 6.87891-6.57031 12.1748-8.40039 5.29492-1.8291 11.39453-2.74414 18.29688-2.74414 5.01172 0 9.54199.52344 13.59277 1.57031 4.0498 1.04688 7.22559 2.50586 9.52734 4.37598 2.2998 1.87012 4.0498 4.30957 5.24805 7.31738l-8.27441 1.46387c-1.04004-2.27637-2.33301-4.06543-3.87695-5.36621-1.54492-1.30078-3.75098-2.34277-6.61914-3.12598-2.86816-.78223-6.05176-1.17383-9.5498-1.17383-4.19238 0-7.81738.41211-10.875 1.23535s-5.52441 1.90527-7.39941 3.24707-3.33301 2.81543-4.37305 4.42188c-1.76562 2.76465-2.64746 5.7627-2.64746 8.99512 0 3.98438 1.06348 7.31738 3.19141 10.00098s5.22461 4.67578 9.29004 5.97656c4.06641 1.30078 8.38477 1.95117 12.95508 1.95117 3.97168 0 7.84863-.49219 11.63086-1.47852 3.78223-.98535 6.64941-2.03809 8.60449-3.15625v-8.32422H957.2842z"/><g data-name="Layer 1-2"><path fill="#10113d" d="M144.45041 286.27765c7.01479-8.21588 15.23093-11.64008 25.84094-11.64008 22.93259 0 39.02003 19.85392 39.02003 46.89481 0 26.5255-11.29342 47.91795-40.55971 47.91795-14.88887 0-23.10478-6.6739-27.55443-15.23092h-.34205v12.66347h-32.00385V243.66033h35.59907v42.61732m29.26282 36.45118c0-9.5857-3.5929-20.53707-15.05966-20.53707-10.78127 0-15.06083 10.60909-15.06083 19.85275 0 9.58362 3.4242 21.73473 15.06083 21.73473 11.63778 0 15.05966-11.29689 15.05966-21.05043zM215.985 243.66h35.596v123.223h-35.596zm142.72866 123.22287h-33.0293v-13.17793c-8.89813 12.32119-17.62736 15.74539-32.34496 15.74539-19.51047 0-32.17604-11.98122-32.17604-37.6523v-54.59301h35.59698v48.43357c0 12.32351 4.28072 16.25754 12.83776 16.25754 10.26796 0 13.51881-7.70051 13.51881-21.56487v-43.12624h35.59676v89.67785zm43.29726-36.79346c0 10.60792 8.21475 17.62851 17.62968 17.62851 5.64614 0 10.78127-2.57001 13.34756-7.87504h34.05825c-6.16177 22.24921-28.75415 29.60744-49.63121 29.60744-28.75299 0-51.00103-16.42972-51.00103-46.55137 0-29.43524 22.07677-48.26138 50.82884-48.26138 33.2015 0 53.22644 22.93236 52.71199 55.45184h-67.94407m32.34729-18.14066c0-8.21593-7.35938-15.57761-15.74655-15.57761-10.61002 0-16.60074 5.99073-16.60074 15.57761h32.34729zm74.44322 27.03996c0 3.59174 1.37004 6.33162 3.76647 8.21474 2.22423 1.70862 5.30269 2.73987 8.7269 2.73987 5.47741 0 11.29572-1.71327 11.29572-8.0472 0-14.37441-54.93504-2.90741-54.93504-37.65113 0-22.93236 23.78773-29.60742 42.44167-29.60742 19.51049 0 42.44307 4.44965 44.49724 28.23969h-32.34613c-.34206-2.90974-1.54083-4.96504-3.42305-6.50613-1.88081-1.53762-4.45059-2.2254-7.18811-2.2254-6.16061 0-10.09695 1.88336-10.09695 6.33278 0 12.49685 56.64831 4.1076 56.64831 37.65114 0 18.65745-15.40196 31.32069-48.26234 31.32069-20.53591 0-43.12739-6.33162-45.01053-30.46161h33.88584zm98.57572-61.78369v13.34896h.34226c4.96412-10.95137 17.79955-15.91642 28.06749-15.91642 27.03995 0 40.04757 22.07909 40.04757 46.72031 0 35.25912-21.90692 48.09245-41.92838 48.09245-9.75581 0-16.9442-3.93635-22.93374-11.46676v39.36324h-35.5991V277.20503h32.00387m32.86058 44.66731c0-14.20431-6.16177-20.87937-15.5732-20.87937-8.55703 0-14.37883 8.2159-14.37883 20.19713 0 12.49105 5.30754 21.04807 14.5489 21.04807 9.41355 0 15.40309-8.04256 15.40309-20.36583h.00004zm76.66868 8.21707c0 10.60792 8.21497 17.62851 17.62852 17.62851 5.64728 0 10.78243-2.57001 13.3478-7.87504h34.05803c-6.15945 22.24921-28.75069 29.60744-49.63119 29.60744-28.75069 0-50.99987-16.42972-50.99987-46.55137 0-29.43524 22.07699-48.26138 50.83-48.26138 33.20148 0 53.22294 22.93236 52.71081 55.45184h-67.94407m32.34729-18.14066c0-8.21593-7.36055-15.57761-15.74539-15.57761-10.61 0-16.6019 5.99073-16.6019 15.57761h32.34729zm104.56511-.51656c-.17215-3.93426-1.54087-7.01502-3.76627-9.24043-2.22307-2.39759-5.30498-3.5929-9.24132-3.5929-13.35012 0-15.57528 13.85971-15.57528 24.47228 0 13.51975 5.13491 22.41906 15.57528 22.41906 9.24132 0 12.83543-6.3293 13.86434-13.34988h35.93676c-3.07958 27.21424-24.98442 37.31002-49.80101 37.31002-28.92308 0-51.16998-16.25521-51.16998-46.55137 0-30.63171 21.56253-48.26138 51.16998-48.26138 23.95776 0 46.55136 10.26796 49.11673 36.79463h-36.10923zm155.75456 15.08066c10.09951 8.00739 16.59793 20.35888 16.59793 34.24867 0 .31213-.04039.61397-.0468.92456h19.18518v-35.75326h-35.73631v.58003zm0 68.49732v5.77209c10.55377 3.85946 21.99716 5.99321 33.96638 5.99321.59364 0 1.17886-.03266 1.76993-.04294v-26.95681h-23.53651c-2.88731 5.95798-7.06281 11.1616-12.1998 15.23446zm-18.09762-122.91151h-31.82081c-1.42771 2.52995-2.73768 5.13034-3.91606 7.79682v27.96518h35.73679v-35.762h.00008zm0-33.09914c-6.80105 4.25952-13.01223 9.31093-18.45811 15.04779h18.45811v-15.04779zm135.94897 33.09914h-10.17453v35.762h21.23843c-1.10761-12.85877-4.97197-24.96756-11.0639-35.762zm-64.00869-18.05135h35.72782v-12.71787c-10.51138-7.24995-22.61604-12.50525-35.72782-15.17121v27.88909zm-.00004 18.05169h35.728v35.762h-35.728zm53.8342 89.58708h8.47176c6.57841-10.7132 10.93743-22.82018 12.47903-35.75326h-20.95079v35.75326zM1063.416 325.933h35.728v35.753h-35.728zm.00004 78.83933c13.11177-2.66595 25.21644-7.92126 35.72782-15.17121v-9.8254h-35.72782v24.99661zm-53.84266-174.62403v23.89901h35.73631v-29.84927c-.59107-.01028-1.17629-.04294-1.76993-.04294-11.96914 0-23.41253 2.13374-33.96638 5.9932z"/><circle cx="982.456" cy="360.762" r="39.3" fill="#4980ec"/></g></svg>