<svg xmlns="http://www.w3.org/2000/svg" role="img" viewBox="-2.72 -2.72 141.18 97.93"><title>Brandenburg University of Technology (member) logo</title><path d="M13.87885 30.16256c-4.15565 0-7.52693-3.36712-7.52693-7.52581 0-4.15616 3.37128-7.52328 7.52693-7.52328 4.15563 0 7.52421 3.36712 7.52421 7.52328 0 4.1587-3.36858 7.52581-7.5242 7.52581zm23.39368-12.97888c-1.58222 0-2.95979.73705-3.67444 1.45317-1.22863 1.02344-2.4634 1.02344-2.79153 1.02344-1.1193 0-2.04941-.41412-2.7594-.98704-.70931-.57292-1.64942-2.15355-1.64942-2.15355-.77905-1.5833-2.80513-3.74737-4.94668-5.18734-2.48753-1.67449-5.1728-2.5994-7.55554-2.5994-2.6255 0-5.34885.79732-7.37224 2.36754V3.26737c0-1.7973-1.46351-3.26139-3.2619-3.26139C1.46298.00598 0 1.47008 0 3.26737v19.35898C0 30.28909 6.23266 36.5192 13.89552 36.5192c3.19619 0 5.95132-1.4453 7.6982-2.6614 2.08542-1.4489 3.74258-3.43485 4.76602-5.12494.57025-.94264 1.12397-1.66129 1.68743-2.1926.75158-.63906 1.72289-.98692 2.787-.98692 1.1401 0 2.17287.44532 2.94419 1.16917.94264.80105 2.1582 1.28904 3.49417 1.28904 2.98686 0 5.4124-2.42434 5.4124-5.41653 0-2.98953-2.42554-5.41134-5.4124-5.41134m53.246-8.44872c-1.79675 0-3.26031 1.46197-3.26031 3.26139v10.63c0 4.06496-3.30872 7.37368-7.37382 7.37368-4.06336 0-7.37061-3.30872-7.37061-7.37368v-10.63c0-1.79942-1.46343-3.26139-3.25872-3.26139-1.79836 0-3.26192 1.46197-3.26192 3.26139v10.63c0 7.66274 6.23158 13.89285 13.89125 13.89285 7.66034 0 13.89299-6.23011 13.89299-13.89285v-10.63c0-1.79942-1.46196-3.26139-3.25885-3.26139m-30.63977 6.51917c1.79942 0 3.26032-1.4609 3.26032-3.25778 0-1.79942-1.4609-3.26139-3.26032-3.26139h-7.37222v-5.4676c0-1.79728-1.45996-3.26138-3.25778-3.26138-1.79942 0-3.26245 1.4641-3.26245 3.26139v19.35898c0 7.66274 6.23117 13.89285 13.89245 13.89285 1.79942 0 3.26032-1.4609 3.26032-3.26032 0-1.79795-1.4609-3.25885-3.26032-3.25885-4.0651 0-7.37222-3.30872-7.37222-7.37368v-7.36968l7.37222-.00254M16.63918 58.92224c-.52972.54532-1.19477.89225-1.88595.89225-.59892 0-.9437-.33653-.9437-.85052 0-.65105.49278-1.29063 2.82965-1.5141zm-1.1005-4.72895c-.98278 0-1.70263.22546-2.45827.53372l.15989 1.02344c.69109-.30826 1.42027-.54678 2.18998-.54678.73238 0 1.2089.28012 1.2089 1.07437v.26666c-2.64313.27866-3.99783.90518-3.99783 2.487 0 1.07544.71818 1.76396 1.85989 1.76396 1.03744 0 1.72809-.46305 2.23274-.98117l.13067.84997h.9573v-4.43842c0-1.40623-.74478-2.03275-2.28327-2.03275m15.22255 4.43576c-.50519.68025-1.06464 1.1161-1.79422 1.1161-.84998 0-1.4729-.73171-1.4729-2.12594 0-1.56663.71558-2.37501 1.71303-2.37501.67705 0 1.05984.1052 1.5541.35946zm0-7.37062v3.26965c-.39799-.16146-.96984-.28279-1.59476-.28279-1.53956 0-2.8698 1.11984-2.8698 3.42805 0 2.12648 1.13024 3.12232 2.49741 3.12232.93118 0 1.58023-.48119 2.05928-1.0505l.1464.9193h.94424v-9.59202l-1.18277.186M9.69454 56.91708c.42343-.83584 1.313-1.53903 2.3635-1.5937l-.18594-1.1301c-1.03592.052-1.76558.70719-2.21817 1.4233l-.20105-1.28903h-.94216v6.3369h1.18382V56.9171m11.14507-.63905c.56919-.61092 1.20717-1.02237 1.83116-1.02237.69065 0 .9713.44012.9713 1.09117v4.31762h1.1813v-4.61188c0-1.13904-.63704-1.85929-1.83381-1.85929-.90211 0-1.64796.50519-2.24688 1.05091l-.14426-.91664h-.94051v6.3369h1.1817v-4.38642m-17.1121 3.32232H2.6666V56.3703h1.02393c1.36768 0 2.11192.57545 2.11192 1.63795 0 1.05878-.75987 1.5921-2.07494 1.5921zm-1.06091-7.0409h.96872c1.24945 0 1.76766.51813 1.76766 1.3541 0 .90625-.64998 1.43584-1.8614 1.43584H2.6666zm2.6442 3.2134c.82186-.34426 1.31351-.96505 1.31351-1.89996 0-1.40516-.94164-2.37487-2.96085-2.37487H1.4437v9.16643h2.19161c2.11402 0 3.38846-.84997 3.38846-2.68326 0-1.2109-.6906-1.89995-1.71298-2.20835m29.369.95931c.1844-1.0765.80998-1.61036 1.53863-1.61036.9181 0 1.3713.58705 1.51556 1.61036zm4.2499.63812c0-1.75369-.85039-3.17699-2.6962-3.17699-1.59477 0-2.79167 1.2489-2.79167 3.28272 0 2.3238 1.28957 3.31965 2.93793 3.31965 1.05104 0 1.86102-.31772 2.53593-.85251l-.1708-1.0573c-.69117.54158-1.35462.90104-2.27234.90104-1.1037 0-1.80888-.69172-1.84835-2.16768h4.3055v-.24893m10.95759 2.36607c-.58439 0-.87652-.0704-1.27704-.21612v-3.24219c.47919-.59785 1.06357-1.03384 1.7265-1.03384.85104 0 1.47702.74478 1.47702 2.12608 0 1.6301-.69318 2.36607-1.92648 2.36607zm.62345-5.54306c-.86305 0-1.47343.44106-1.90049.87758v-3.99843l-1.1817.186v9.0867c.83851.24893 1.51556.39999 2.46967.39999 1.83489 0 3.11085-1.1145 3.11085-3.42965 0-2.11181-1.12917-3.12219-2.49833-3.12219m-8.89671 2.08475c.57092-.61092 1.20783-1.02237 1.83075-1.02237.69212 0 .97291.44012.97291 1.09117v4.31762h1.1817v-4.61188c0-1.13904-.63745-1.85929-1.83328-1.85929-.90318 0-1.64743.50519-2.24688 1.05091l-.14426-.91664h-.94211v6.3369h1.18117v-4.38642m21.03907-.66145l-.2016-1.28903h-.94517v6.3369h1.18477V56.9171c.42559-.83584 1.3141-1.53903 2.3646-1.5937l-.18492-1.1301c-1.03638.052-1.76662.70719-2.21768 1.4233m7.42488 2.97753c-.47705.59798-1.0657 1.03904-1.72702 1.03904-.85265 0-1.47757-.74478-1.47757-2.06235 0-1.5537.69265-2.31248 1.92796-2.31248.58238 0 .87664.07813 1.27663.22546zm-1.29063-4.34883c-1.8317 0-3.11193 1.13277-3.11193 3.36458 0 2.07702 1.13438 3.0686 2.50154 3.0686.86825 0 1.47757-.43586 1.90102-.85878v.80824c0 .85411-.43905 1.4469-1.5797 1.4469-.86877 0-1.62489-.22293-2.277-.59279l-.16986 1.11464c.66571.29266 1.4729.4896 2.36514.4896 1.98115 0 2.84206-1.01145 2.84206-2.54061v-5.89932c-.83331-.2516-1.51196-.40106-2.47127-.40106M58.5636 59.74515l.14333.91931h.93998v-6.3369h-1.18064v4.38482c-.57292.60985-1.2057 1.02397-1.83129 1.02397-.69371 0-.9713-.44172-.9713-1.0937v-4.3151H54.4789v4.60936c0 1.14157.62546 1.85875 1.8333 1.85875.8937 0 1.65088-.49159 2.2514-1.0505M5.34675 90.4892c-2.40672 0-4.10668-1.91246-4.10668-4.7431 0-2.79057 1.7286-4.77073 4.21397-4.77073.98277 0 1.85932.3177 2.55201.79426l-.12031.66769c-.7578-.5453-1.55464-.89216-2.44629-.89216-2.16557 0-3.53376 1.73067-3.53376 4.17332 0 2.46088 1.3812 4.19885 3.49262 4.19885.99997 0 1.91505-.3979 2.6593-.98121l.09375.6104c-.69061.53124-1.67288.94268-2.80461.94268m6.86961-6.00506c-1.35518 0-2.09943 1.10414-2.09943 2.70982 0 1.56716.7578 2.71192 2.09943 2.71192 1.35463 0 2.11395-1.09112 2.11395-2.71192 0-1.56767-.75932-2.70982-2.11395-2.70982zm0 5.966c-1.55308 0-2.75045-1.19424-2.75045-3.25618 0-2.07025 1.23486-3.25512 2.75045-3.25512 1.5677 0 2.765 1.18487 2.765 3.25512 0 2.06194-1.2369 3.25617-2.765 3.25617m6.32438-.02448c-.89171 0-1.47343-.37237-1.47343-1.42496v-4.40093h-.97238v-.52967h.97238v-2.21713l.62291-.13594v2.35307h1.52863l.0796.52967h-1.60823v4.2973c0 .73017.2932.98278.98278.98278.19946 0 .47865-.05313.62545-.09374l.09227.50518c-.15893.0677-.50573.13437-.84998.13437m4.30402 0c-.88958 0-1.47236-.37237-1.47236-1.42496v-4.40093h-.97131v-.52967h.9713v-2.21713l.6224-.13594v2.35307h1.52756l.08173.52967h-1.6093v4.2973c0 .73017.29373.98278.98331.98278.2 0 .47972-.05313.62599-.09374l.09266.50518c-.15986.0677-.50519.13437-.85198.13437m5.11707-5.91963c-.74424 0-1.33023.44321-1.95261 1.14631v3.9072c.39745.16146.91557.29427 1.59422.29427 1.2469 0 2.27181-.87759 2.27181-2.80566 0-1.6458-.79571-2.54212-1.91342-2.54212zm-.43905 5.88943c-.81038 0-1.54063-.1849-2.14008-.42446v-9.02166l.62652-.1328v4.1452c.47705-.54634 1.08957-1.02289 1.96608-1.02289 1.3813 0 2.5526.98175 2.5526 3.08274 0 2.27494-1.3437 3.37387-3.00512 3.37387m9.07684-.07551l-.16093-.94686c-.75572.66665-1.4489 1.07705-2.27234 1.07705-1.28904 0-1.89942-.72914-1.89942-1.97807V84.0701h.62491v4.34884c0 .94164.44946 1.46091 1.34117 1.46091.69158 0 1.4093-.39843 2.19315-1.13018v-4.67957h.62398v6.24985h-.45052m4.40975.10571c-.83637 0-1.66142-.25311-2.22127-.55728l.1224-.61247c.58438.33124 1.34063.61247 2.165.61247.93078 0 1.54277-.41404 1.54277-1.14631 0-.6505-.38706-.98123-1.72756-1.35518-1.3177-.35937-1.91515-.80988-1.91515-1.76715 0-.95675.82611-1.65047 2.05981-1.65047.70572 0 1.3281.17447 1.8329.4281l-.1068.59479c-.5704-.28906-1.15318-.44739-1.7521-.44739-.9833 0-1.4213.46354-1.4213 1.0359 0 .5849.37133.87656 1.48744 1.18123 1.42036.3854 2.1526.8776 2.1526 1.9286 0 1.12758-.9161 1.75516-2.21874 1.75516m6.8389-3.52335v-.663h3.18952v.663h-3.18952m10.3544 3.52335c-.98437 0-1.78475-.25311-2.341-.5458l.09-.6526c.51985.31927 1.34276.62655 2.29167.62655 1.16504 0 2.09728-.71874 2.09728-1.86038 0-.95725-.53065-1.50256-1.92701-2.1015-1.78063-.75519-2.41141-1.36716-2.41141-2.61609 0-1.30205 1.10837-2.23432 2.5042-2.23432.84998 0 1.52703.1849 1.98009.45051l-.0948.63801c-.52759-.30728-1.12597-.51665-1.91035-.51665-1.10517 0-1.82396.7328-1.82396 1.63381 0 .92966.52092 1.38278 1.95675 1.9937 1.63436.69009 2.38794 1.39267 2.38794 2.71192 0 1.55464-1.28903 2.47284-2.7994 2.47284m4.92695-3.7499h3.7359c-.04066-1.22132-.65264-2.22025-1.74315-2.22025-1.17864 0-1.86195.91768-1.99275 2.22025zm2.08488 3.77438c-1.64209 0-2.74993-1.22289-2.74993-3.25617 0-1.9937 1.14064-3.25512 2.6578-3.25512 1.5973 0 2.39154 1.39527 2.39154 3.12075v.13437h-4.40975c0 1.59736.74318 2.71192 2.139 2.71192.75786 0 1.55624-.39843 2.16822-.95675l.09213.58436c-.57292.51979-1.39836.91664-2.289.91664m8.25339-.1302V85.9711c0-.94113-.45253-1.46507-1.3437-1.46507-.69212 0-1.40823.40258-2.19528 1.13434v4.67958h-.62225v-6.24985h.45359l.15826.94425c.75838-.66301 1.44943-1.0755 2.27234-1.0755 1.28757 0 1.89942.73176 1.89942 1.98015v4.40095h-.62238m4.74108-8.9451c-.63545 0-1.02491.31926-1.02491 1.08696v1.6083h1.31917l.09213.52966h-1.4113v5.72018h-.60945v-5.72018h-.96864v-.52967h.96864v-1.63277c0-1.0781.57038-1.63799 1.60836-1.63799.19946 0 .2916 0 .41239.0172l.0928.59894c-.12133-.02864-.22653-.04063-.4792-.04063m3.72125 9.05081c-.88958 0-1.4749-.37237-1.4749-1.42496v-4.40093h-.97184v-.52967h.97184v-2.21713l.62332-.13594v2.35307h1.52716l.08227.52967h-1.60943v4.2973c0 .73017.29533.98278.9829.98278.2004 0 .47906-.05313.62653-.09374l.0896.50518c-.15467.0677-.5052.13437-.84745.13437m2.73433-3.7499h3.73684c-.03907-1.22132-.65092-2.22025-1.73956-2.22025-1.18223 0-1.86448.91768-1.99728 2.22025zm2.09008 3.77438c-1.6489 0-2.75313-1.22289-2.75313-3.25617 0-1.9937 1.14224-3.25512 2.66033-3.25512 1.59383 0 2.38901 1.39527 2.38901 3.12075v.13437h-4.41336c0 1.59736.74479 2.71192 2.14262 2.71192.75944 0 1.55462-.39843 2.16554-.95675l.0928.58436c-.56932.51979-1.3937.91664-2.2838.91664m8.25085-.1302V85.9711c0-.94113-.45319-1.46507-1.34276-1.46507-.69212 0-1.40984.40258-2.19368 1.13434v4.67958h-.62492v-6.24985h.45305l.15627.94425c.76038-.66301 1.4505-1.0755 2.27447-1.0755 1.2905 0 1.89996.73176 1.89996 1.98015v4.40095h-.62239m5.32693-5.81392c-.74638 0-1.3313.44321-1.95728 1.14631v3.9072c.39946.16146.92024.29427 1.59636.29427 1.24997 0 2.27434-.87759 2.27434-2.80566 0-1.6458-.79784-2.54212-1.91342-2.54212zm-.44012 5.88943c-.80878 0-1.5421-.1849-2.13954-.42446v-9.02166l.62238-.1328v4.1452c.47919-.54634 1.0901-1.02289 1.96968-1.02289 1.38077 0 2.55367.98175 2.55367 3.08274 0 2.27494-1.34476 3.37387-3.00619 3.37387m5.0748-3.7197h3.73432c-.04014-1.22132-.65105-2.22025-1.73956-2.22025-1.18224 0-1.86289.91768-1.99475 2.22025zm2.09009 3.77438c-1.65103 0-2.75513-1.22289-2.75513-3.25617 0-1.9937 1.14424-3.25512 2.6598-3.25512 1.59383 0 2.3922 1.39527 2.3922 3.12075v.13437h-4.41402c0 1.59736.74745 2.71192 2.14328 2.71192.75518 0 1.55196-.39843 2.16128-.95675l.09387.58436c-.57039.51979-1.39584.91664-2.28128.91664m4.71242-4.23948v4.10929h-.62546v-6.24985h.41293l.19693 1.30309c.48118-.70258 1.21197-1.42392 2.24834-1.43434l.1052.58592c-1.02184.06459-1.91395.84842-2.33794 1.6859m6.20557 3.62856c.74479.00155 1.3265-.43854 1.95569-1.14164l-.0032-3.9098c-.402-.15625-.91865-.29062-1.5973-.28906-1.24836-.00156-2.27074.87602-2.27074 2.80567 0 1.64734.80052 2.53483 1.91555 2.53483zm.4344-5.88892c.8125-.00104 1.54475.18646 2.14047.42812 0 0 .0032 4.74467.0032 5.59776 0 .7849-.1224 2.35308-1.89995 2.58432-.83491.10573-2.74633-.50728-2.74633-.50728l.2084-.5302s1.4505.44687 2.25927.46093c1.61716.02188 1.55623-1.61453 1.55623-1.61453v-.97915c-.48332.5406-1.09264 1.02341-1.97129 1.02341-1.38596.00156-2.551-.98435-2.551-3.08586 0-2.27338 1.34117-3.37752 3.001-3.37752M7.32898 71.85578c0 1.6609-.78437 2.6182-2.339 2.6182-1.58018 0-2.29735-1.06357-2.29735-2.65726v-5.54306H1.4437v5.70199c0 2.23168 1.32914 3.6415 3.54627 3.6415 2.2213 0 3.58845-1.39836 3.58845-3.70817v-5.63532H7.32899v5.58212m6.52333-2.88326c-.9042 0-1.64741.5052-2.24532 1.05104l-.14635-.9177h-.9432v6.33837h1.18122V71.0558c.57238-.60878 1.21038-1.02184 1.83432-1.02184.69119 0 .97025.44266.97025 1.09118v4.31909h1.18183v-4.61189c0-1.1405-.63651-1.85982-1.83275-1.85982m4.3587-2.64526c-.4104 0-.75786.34999-.75786.76038 0 .40732.34746.74478.75785.74478.41306 0 .74425-.33746.74425-.74478 0-.4104-.3312-.76038-.74425-.76038m-.59945 9.11697h1.1853v-6.33838h-1.1853v6.33838m5.36907-1.42183l-1.6457-5.00761-1.18237.18333 2.24328 6.27064h1.12904l2.25888-6.3629h-1.20784l-1.5953 4.91654m4.68802-2.51194c.188-1.07384.81091-1.6093 1.54423-1.6093.91238 0 1.36663.58746 1.51236 1.6093zm4.25456.63958c0-1.75409-.85104-3.17752-2.69993-3.17752-1.5933 0-2.78793 1.24797-2.78793 3.28272 0 2.32448 1.28583 3.32285 2.9358 3.32285 1.04943 0 1.85981-.32186 2.53686-.85411l-.1724-1.06357c-.6921.54692-1.3561.9073-2.27234.9073-1.1025 0-1.80768-.69264-1.84622-2.1666h4.30616v-.25107m2.641-1.75409l-.2-1.2901h-.94157v6.33838h1.18117v-3.74724c.42706-.83745 1.31464-1.54063 2.3646-1.59116l-.18439-1.1333c-1.0349.05106-1.76715.7021-2.2198 1.42342m5.64572 1.21877c-.99424-.24999-1.31397-.48958-1.31397-.9177 0-.44946.37186-.72812 1.08944-.72812.66305 0 1.36983.22813 1.92609.54158l.188-1.1145c-.6-.26306-1.30318-.42346-2.08742-.42346-1.38184 0-2.23235.74265-2.23235 1.75316 0 1.1301.59639 1.5801 2.08755 1.95248 1.1421.2792 1.49943.4948 1.49943 1.07598 0 .53385-.47812.83704-1.2885.83704-.86251 0-1.63276-.31772-2.23275-.72758l-.1724 1.11717c.54533.302 1.47704.59732 2.31235.59732 1.63383 0 2.49634-.74478 2.49634-1.90102 0-1.20823-.70358-1.66142-2.27181-2.06235m4.41189-5.28746c-.41253 0-.75892.34999-.75892.76038 0 .40732.3464.74478.75892.74478.41145 0 .74371-.33746.74371-.74478 0-.4104-.33226-.76038-.74371-.76038m-.59745 9.11697h1.1829v-6.33838h-1.1829v6.33838m5.47133-.94531c-.66359 0-.87718-.3176-.87718-.83851v-3.55458h1.5281l-.15774-.99998h-1.37036v-2.28634l-1.1561.17026v2.11608h-.95678v.99998h.95677v3.76924c0 1.27237.73225 1.67436 1.84836 1.67436.40985 0 .68958-.04.88797-.08067l-.15826-1.00677c-.148.02506-.33239.03693-.54478.03693m4.99614 1.52343c-.52866 1.4281-1.1833 1.80209-2.20048 1.80209-.15626 0-.28066-.02507-.3968-.05214l-.15625-1.0041c.19426.0536.42345.09013.64585.09013.47239 0 .79678-.23333.9749-.71932l.23333-.63118-2.24007-6.07118 1.1333-.18133 1.67036 4.89054 1.63436-4.79935h1.16757l-2.46607 6.67584m8.9607-5.84092c-1.10677 0-1.65982.9541-1.65982 2.24154 0 1.2593.58172 2.23741 1.65983 2.23741 1.13184 0 1.69795-.95304 1.69795-2.23741 0-1.26503-.59225-2.24154-1.69795-2.24154zm0 5.42693c-1.63115 0-2.81766-1.16824-2.81766-3.18539 0-2.02022 1.1865-3.20779 2.81767-3.20779 1.64849 0 2.85726 1.18757 2.85726 3.20779 0 2.01715-1.20877 3.18539-2.85726 3.18539m6.6197-8.28006c-.52612 0-.84745.21613-.84745.78544v1.23277h1.23437l.138.96451H69.2248v5.17334h-1.11717v-5.17334h-.92704v-.9645h.92704v-1.34997c0-1.22024.80731-1.68383 1.90262-1.68383.1792 0 .3344.0104.48959.02347l.16666 1.04264c-.1308-.02867-.36092-.05053-.59425-.05053m8.07526.38545v7.77061h-1.2093v-7.7706h-2.82966v-1.10678h6.76543l.18133 1.10677h-2.9078m3.36445 3.96084h2.95993c-.14066-.99118-.57559-1.5557-1.46517-1.5557-.70571 0-1.3109.514-1.49476 1.5557zm1.64743 3.93377c-1.5937 0-2.84113-.95998-2.84113-3.21246 0-1.96968 1.1589-3.18072 2.699-3.18072 1.79049 0 2.6134 1.3777 2.6134 3.07806v.24333H81.4641c.03746 1.42703.71878 2.09621 1.78742 2.09621.88598 0 1.53276-.34626 2.19941-.87651l.16413 1.0317c-.65358.51573-1.4385.82039-2.45567.82039m6.48157 0c-1.64583 0-2.85673-1.14117-2.85673-3.18539 0-2.09835 1.28903-3.20779 2.8838-3.20779.89997 0 1.54329.23293 2.00674.56879l-.16666 1.11984c-.56918-.46199-1.14584-.68332-1.85408-.68332-1.00265 0-1.7109.76038-1.7109 2.18581 0 1.49477.76039 2.20208 1.8385 2.20208.61824 0 1.1573-.1412 1.79008-.68225l.16813 1.02704c-.63172.47813-1.27437.65519-2.09888.65519m7.38008-.124V71.3038c0-.63185-.26826-1.05624-.93744-1.05624-.60425 0-1.22144.39572-1.7745.99104v4.24576h-1.14476V66.3742l1.14477-.17866v3.9635c.49999-.4532 1.20784-.94385 2.08435-.94385 1.15517 0 1.77075.69639 1.77075 1.80156v4.46762h-1.14317m6.77583 0V71.3038c0-.63185-.2708-1.05624-.9401-1.05624-.60573 0-1.22131.39572-1.77236.99104v4.24576h-1.1457v-6.13785h.91144l.14213.88532c.57918-.526 1.29943-1.01665 2.1734-1.01665 1.15825 0 1.77436.69639 1.77436 1.80156v4.46762h-1.14317m5.3864-5.30293c-1.10677 0-1.65996.9541-1.65996 2.24154 0 1.2593.57972 2.23741 1.65996 2.23741 1.1317 0 1.69516-.95304 1.69516-2.23741 0-1.26503-.58945-2.24154-1.69516-2.24154zm0 5.42693c-1.63383 0-2.81766-1.16824-2.81766-3.18539 0-2.02022 1.18383-3.20779 2.81766-3.20779 1.6457 0 2.853 1.18757 2.853 3.20779 0 2.01715-1.2073 3.18539-2.853 3.18539m4.39722-.124V66.3742l1.13958-.17866v9.28883h-1.13958m5.50253-5.30293c-1.10784 0-1.65889.9541-1.65889 2.24154 0 1.2593.57652 2.23741 1.6589 2.23741 1.13276 0 1.69622-.95304 1.69622-2.23741 0-1.26503-.58959-2.24154-1.69623-2.24154zm0 5.42693c-1.63542 0-2.8166-1.16824-2.8166-3.18539 0-2.02022 1.18118-3.20779 2.8166-3.20779 1.64676 0 2.85513 1.18757 2.85513 3.20779 0 2.01715-1.20837 3.18539-2.85513 3.18539m14.23765.41399c-.52812 1.4281-1.18437 1.80209-2.19888 1.80209-.15733 0-.28386-.02507-.39852-.05214l-.1552-1.0041c.19266.0536.42186.09013.64118.09013.47652 0 .79945-.23333.97865-.71932l.23426-.63118-2.23941-6.07118 1.12903-.18133 1.6745 4.89054 1.63302-4.79935h1.1693l-2.46793 6.67584m-5.6348-2.38008c-.47812.59626-1.06304 1.03224-1.72969 1.03224-.84997 0-1.47383-.74318-1.47383-2.05461 0-1.5589.69159-2.31408 1.92702-2.31408.58479 0 .87811.08227 1.2765.22453zm-1.28956-4.34789c-1.83582 0-3.11033 1.1265-3.11033 3.36458 0 2.07022 1.13024 3.06753 2.49994 3.06753.86305 0 1.4729-.44 1.89995-.86451v.8141c0 .84892-.43745 1.44517-1.58329 1.44517-.86251 0-1.62023-.22386-2.27074-.59625l-.1724 1.11397c.66145.29586 1.47543.4948 2.3634.4948 1.98076 0 2.84634-1.01252 2.84634-2.54008v-5.89932c-.83745-.2552-1.51663-.39999-2.47287-.39999" fill="#47494c"/></svg>