<svg xmlns="http://www.w3.org/2000/svg" role="img" viewBox="4.64 -1.86 289.96 304.46"><title>Buildbot logo</title><defs><linearGradient id="a" x1="61" x2="61" y1="32" y2="194" gradientTransform="translate(2 1)" gradientUnits="userSpaceOnUse"><stop offset="0%" stop-color="#8da6d8"/><stop offset="100%" stop-color="#2e5cb8"/></linearGradient></defs><path fill="#24478f" d="M10.7 205.4v-43l101.9 91.5v42.5z"/><path fill="#2e5cb8" d="M112.7 254l139-33.7v43.2l-139 33.5v-43z"/><path fill="#193366" d="M251.8 220.3v43.2l37.2-125v-43z"/><path fill="#8da6d8" d="M187.2 4L289 95.5l-37.2 124.8-139.2 33.5-101.8-91.4L48 37.5zm-3.5 72.6c32 16.7 43 53.6 24.4 82.5-18.4 28.8-59.6 38.7-91.8 22-32-16.5-43-53.6-24.4-82.4 18.3-28.9 59.4-38.9 91.7-22.2z"/><path fill="url(#a)" d="M85.5 146a54.8 54.8 0 0 1 6-47.3c19-29 60-39 92-22 27.5 14.3 39.6 43.4 30.7 69.5a61.8 61.8 0 0 0-30.6-35c-32-16-73-7-92 22.2a57.4 57.4 0 0 0-6 12.8z"/></svg>