<svg xmlns="http://www.w3.org/2000/svg" role="img" viewBox="-2.09 -2.09 108.68 20.43"><title>CA/Meme Forum (member) logo</title><path fill="#115a75" stroke="#3cb7ea" stroke-miterlimit="10" stroke-width="1.12" d="M.56.56h37.66v15.15H.56z"/><path fill="#fff" d="M7.39 4.09a2.17 2.17 0 0 0-2 1.12 5.77 5.77 0 0 0-.68 3 5.62 5.62 0 0 0 .66 3 2.24 2.24 0 0 0 2.05 1.06 4.82 4.82 0 0 0 1.31-.18 13.65 13.65 0 0 0 1.36-.46v2.09a7 7 0 0 1-2.94.6 4.84 4.84 0 0 1-2.75-.74 4.54 4.54 0 0 1-1.66-2.12 8.92 8.92 0 0 1-.55-3.25A7.93 7.93 0 0 1 2.81 5a4.81 4.81 0 0 1 1.73-2.18A4.79 4.79 0 0 1 7.34 2a7 7 0 0 1 3.19.8l-.77 2a7.65 7.65 0 0 0-1.17-.53 3.6 3.6 0 0 0-1.2-.18zM19 14.12l-.77-2.85h-3.77l-.79 2.85h-2.62l3.72-12h3l3.76 12zM17.66 9.2l-.78-2.91-.29-1.15c-.12-.45-.21-.83-.28-1.15 0 .21-.09.46-.16.75s-.14.57-.22.85l-.17.68L15 9.2zm11.24 4.92L26.23 5h-.07c0 .28 0 .62.05 1s.05.81.06 1.23 0 .8 0 1.14v5.76h-2.19V2.2h3.34L30 11h.05l2.71-8.8h3.34v11.92h-2.3V4.99h-.06L31 14.12z"/><path fill="none" stroke="#fff" stroke-miterlimit="10" stroke-width=".25" d="M22.78 2.12v12"/><path fill="#515151" d="M45.89 9.52v.22c0 .65-.11 1.57-1.32 1.57s-1.28-.66-1.28-1.54V6.89c0-.88.4-1.47 1.3-1.47 1.07 0 1.28.71 1.28 1.51v.25H45v-.36c0-.38-.09-.59-.39-.59s-.4.2-.4.6v3c0 .37.07.66.41.66s.4-.25.4-.67v-.3zm3 .17l-.2 1.53h-.9l.92-5.71H50l1 5.71h-1l-.22-1.53zm.77-.81c-.13-1-.25-1.89-.32-2.54 0 .48-.2 1.7-.31 2.54zm3.18 2.6l1.33-6h.66l-1.32 6zM60 9.1V6.26c-.14 1-.45 3.31-.7 5h-.83c-.19-1.48-.51-3.92-.64-5v4.95h-.8v-5.7h1.32c.22 1.45.45 3.08.52 3.88.1-.81.41-2.51.63-3.88h1.27v5.71H60zm5.44-.49h-1.25v1.8h1.44l-.11.81H63.3V5.51h2.21v.82h-1.32V7.8h1.25zm5.28.49V6.26c-.13 1-.45 3.31-.7 5h-.83c-.18-1.48-.5-3.92-.63-5v4.95h-.8v-5.7h1.32c.22 1.45.45 3.08.53 3.88.09-.81.4-2.51.63-3.88h1.27v5.71h-.84zm5.46-.49h-1.26v1.8h1.45l-.11.81H74V5.51h2.2v.82h-1.28V7.8h1.26zm5.19-3.1h2.23v.82h-1.35v1.5h1.28v.82h-1.28v2.57h-.88zM88.45 7v2.69c0 1.1-.46 1.62-1.43 1.62s-1.35-.53-1.35-1.6V7c0-1.1.55-1.6 1.41-1.6s1.37.52 1.37 1.6zm-1.88-.08v2.89c0 .48.17.7.49.7s.5-.21.5-.71V6.93c0-.45-.14-.7-.5-.7s-.49.22-.49.71zm5.13 1.75v2.55h-.88V5.51H92c.87 0 1.38.35 1.38 1.37v.22c0 .88-.36 1.1-.58 1.2.34.15.53.39.53 1.17a15.93 15.93 0 0 0 0 1.75h-.85a11.65 11.65 0 0 1-.06-1.7c0-.69-.09-.85-.6-.85zm0-.73h.2c.47 0 .64-.18.64-.8V7c0-.45-.09-.72-.59-.72h-.25zm4.89-2.43v4.35c0 .41.14.65.48.65s.46-.27.46-.65V5.51h.88v4.33c0 .9-.4 1.47-1.36 1.47s-1.34-.49-1.34-1.47V5.51zm7.19 3.59V6.26c-.13 1-.45 3.31-.69 5h-.84c-.18-1.48-.5-3.92-.63-5v4.95h-.8v-5.7h1.31c.22 1.45.45 3.08.53 3.88.09-.81.4-2.51.63-3.88h1.27v5.71h-.84z"/></svg>