<svg xmlns="http://www.w3.org/2000/svg" role="img" viewBox="-9.86 -9.86 512.72 455.22"><title>California School Inc. (member) logo</title><defs><style>.cls-1{fill:#33a6c1}.cls-2{fill:#fff}.cls-3{fill:#f36f26}</style></defs><path d="M240.51 160.56c18.94 7.77 30.46-5.17 40.55-19.17C263.93 140.52 246.35 142.25 240.51 160.56zm-1.19-49c-9.43 14.33-16.86 30.34-4 44.65C251.57 143.87 246.27 127.37 239.32 111.59zm19.59 20.15c14.66 10.22 26.93 1.39 38.16-8.6C282.66 119.15 267.38 117.27 258.91 131.74zm8.31-41.9c-10.75 10.39-20.12 22.61-11.93 37.24C271.51 119.63 270.13 104.59 267.22 89.84zm16.39 20.87c12.38 12.86 26.12 6.57 39.08-1C309.32 102.94 294.7 98.16 283.61 110.71zm-2.68-5.29c17.36-4.16 18.93-19.17 18.95-34.22C287.3 79.33 275.74 89.48 280.93 105.42zm32.75-11.08c8.83 11.67 20.63 7.9 31.91 3C335.37 90.54 324 85.2 313.68 94.34zM312 89.79c14.52-1.7 17.26-13.78 18.73-26C319.75 69.16 309.37 76.31 312 89.79zm31.54-8.26c6.1 10.93 16.53 9.14 26.68 6.3C362.41 80.88 353.35 75 343.58 81.53zm-.85-4c12.5.28 16.25-9.61 18.95-19.81C351.7 60.94 342.06 65.75 342.73 77.48zM259.24 295.23a109.38 109.38 0 0 0-8.7 20.1h17.92C266.33 308.61 262.9 301.85 259.24 295.23zm-10.62-29.88c-12.62 15-23.26 32.08-12.09 50h4C258.14 303 254.3 283.88 248.62 265.35zM190.83 283.3c4.64 13.12 10.69 25.91 21.35 32h17.56C227.89 294.12 209.6 287.8 190.83 283.3zm32.56-7.72c23.62-5 26.26-25.28 26.78-45.61C232.89 240.49 216.91 253.86 223.39 275.58zm-33.7-46.95c.31 20.23 3.71 40.78 25.72 46.23C223.06 252 206.94 239.4 189.69 228.63zm35.3 2.56c23.45-2 28.43-21.3 31.4-40.9C238.4 198.41 221.35 209.39 225 231.19zm-26.93-49.48c-2.13 19.62-1.34 39.89 19.29 47.82C227.52 208.3 213.45 194.21 198.06 181.71zm29.67 12c20.14 3.69 28.74-11.34 35.74-27.1C246.52 169.29 229.69 174.6 227.73 193.72zM216.49 146c-6.29 16-10.27 33.16 5.24 44.53C235.12 175.1 226.54 160.06 216.49 146zM358.2 75.31c10.25 7.18 18.85 1 26.75-5.94C374.86 66.53 364.16 65.19 358.2 75.31zM471.52 109.66c13 7.62 26.7 13.91 39.09 1C499.51 98.14 484.89 102.94 471.52 109.66zM494.33 71.2c0 15 1.59 30.06 18.95 34.22C518.45 89.48 506.9 79.33 494.33 71.2zM448.61 97.29c11.29 4.95 23.09 8.72 31.92-3C470.26 85.2 458.84 90.54 448.61 97.29zm14.82-33.5c1.48 12.22 4.22 24.3 18.75 26C484.84 76.31 474.46 69.16 463.43 63.79zm49.72 77.6c10.09 14 21.61 26.92 40.55 19.17C547.86 142.25 530.28 140.52 513.15 141.39zm41.75-29.8c-7 15.78-12.26 32.28 4 44.65C571.75 141.93 564.33 125.92 554.9 111.59zm-57.76 11.55c11.23 10 23.5 18.82 38.14 8.6C526.83 117.27 511.55 119.15 497.14 123.14zM527 89.84c-2.9 14.75-4.29 29.79 11.93 37.24C547.11 112.45 537.74 100.23 527 89.84zm-103-2c10.15 2.84 20.58 4.63 26.68-6.3C440.86 75 431.8 80.88 424 87.83zm8.58-30.16c2.7 10.2 6.45 20.09 19 19.8C452.15 65.75 442.51 60.94 432.53 57.67zm-23.28 11.7c7.9 7 16.51 13.12 26.76 5.94C430.05 65.19 419.35 66.53 409.25 69.37zM535 295.23c-3.66 6.62-7.09 13.38-9.22 20.1h17.92A108.71 108.71 0 0 0 535 295.23zm10.62-29.88c-5.68 18.52-9.51 37.6 8.11 50h4C568.83 297.43 558.21 280.33 545.59 265.35zm18.88 50H582c10.66-6.12 16.71-18.91 21.35-32C584.61 287.8 566.32 294.12 564.47 315.33zM544 230c.52 20.33 3.17 40.6 26.78 45.61C577.3 253.86 561.31 240.49 544 230zm34.76 44.89c22-5.47 25.41-26 25.72-46.23C587.27 239.4 571.15 252 578.8 274.86zm-41-84.57c3 19.6 7.95 38.89 31.4 40.9C572.86 209.39 555.81 198.41 537.82 190.29zm58.33-8.58c-15.39 12.5-29.46 26.59-19.31 47.82C597.47 221.6 598.29 201.33 596.15 181.71zm-65.41-15.09c7 15.76 15.61 30.79 35.72 27.1C564.52 174.6 547.7 169.29 530.74 166.62zm47-20.58c-10.05 14-18.63 29.06-5.23 44.53C588 179.2 584 162 577.72 146z" class="cls-1" transform="translate(-144.13 -57.67)"/><path d="M477.9,238.24a80.83,80.83,0,0,1-56.56,77.09H372.87a80.81,80.81,0,0,1,23-157.89h1.24c.65,0,1.3,0,1.95,0,1.1,0,2.19.07,3.28.13.66,0,1.31.1,2,.17.9.06,1.78.16,2.68.27s1.76.23,2.64.36A80.83,80.83,0,0,1,477.9,238.24Z" class="cls-2" transform="translate(-144.13 -57.67)"/><path d="M397.11,138.87a99.31,99.31,0,0,0-62.6,176.46H459.69a99.31,99.31,0,0,0-62.58-176.46ZM410.5,299c-.88.2-1.76.38-2.66.52s-1.76.3-2.66.41a63,63,0,0,1-16.15,0c-.9-.11-1.78-.24-2.66-.41s-1.78-.32-2.66-.52A62.23,62.23,0,0,1,368.63,182.9c1.44-.73,2.9-1.42,4.4-2.05s3.09-1.23,4.67-1.75h0a60.94,60.94,0,0,1,9.74-2.35c1.06-.18,2.15-.31,3.23-.42,1.34-.13,2.69-.23,4.07-.28.78,0,1.56-.05,2.35-.05h.36a61,61,0,0,1,11.21,1.09h0c1.53.28,3,.62,4.49,1,1.81.49,3.57,1.05,5.3,1.69a62.23,62.23,0,0,1-8,119.22Z" class="cls-1" transform="translate(-144.13 -57.67)"/><path d="M396.62,241.73c-.77,0-1.53,0-2.26-.1a26.73,26.73,0,0,1-7-1.64,29.5,29.5,0,0,1-5.79-3,34.32,34.32,0,0,1-8.26-7.94c-.53-.72-1-1.45-1.55-2.25s-.94-1.54-1.44-2.48l-.56-1.12-.54-1.16-.08-.19c-.32-.73-.64-1.49-.92-2.28a43.13,43.13,0,0,1,1.72-33.41,41.36,41.36,0,0,1,7.36-10.56,43.55,43.55,0,0,1,7.23-6.1l.14-.09c1-.67,1.94-1.26,2.87-1.75s1.66-.91,2.25-1.18l1.77-.8a2.7,2.7,0,0,1,1.1-.24,2.66,2.66,0,0,1,2,.93c.07.08.14.18.21.27a23.4,23.4,0,0,1,.92-3.15,23.65,23.65,0,0,1,2.05-4.24,28.25,28.25,0,0,1,3.71-4.79l.13-.14a.8.8,0,0,0,.13-.13l1.43-1.35a2.69,2.69,0,0,1,1.82-.72,2.62,2.62,0,0,1,1.38.39,2.67,2.67,0,0,1,1.19,3l-.52,1.82-.08.35a32.46,32.46,0,0,0-.83,4.36c0,.19-.11.39-.12.59s-.12.59-.12.83v.12l.05.8.06.83a15.89,15.89,0,0,0,.56,3.19,15.31,15.31,0,0,0,1.41,3.26,28.18,28.18,0,0,0,2.46,3.51c.9,1.1,2,2.3,3.22,3.56l.38.4c.43.46.9.93,1.37,1.42,1,1.06,2.11,2.16,3.25,3.44.4.44.87,1,1.34,1.55l.77.94a.64.64,0,0,1,.1.13l.41.54A35,35,0,0,1,424,191a31.81,31.81,0,0,1,2.25,4.48,31.43,31.43,0,0,1,2.12,16.64,33.29,33.29,0,0,1-3.86,11.1,39.52,39.52,0,0,1-6.72,8.75c-.59.6-1.18,1.14-1.9,1.79l-1.08.93-.85.69a31.53,31.53,0,0,1-5.41,3.51,27,27,0,0,1-6.69,2.35,25.35,25.35,0,0,1-5.2.53ZM398,197.64c0,1.16,0,2.25,0,3.35.11,1.33.2,2.43.35,3.44s.39,2.19.66,3.28a30.44,30.44,0,0,0,1.11,3.13,7.58,7.58,0,0,0,1.39,2.95h0c.89-1,1.89-2,2.61-3.06A10.38,10.38,0,0,0,406.2,204a15.17,15.17,0,0,0-.84-4.12c-.26-.77-.58-1.53-.92-2.29,0,0-.18-.38-.18-.4l-.43-.81-.21-.4c-.13-.26-.27-.53-.44-.82-.53-1-1.07-1.92-1.63-2.88-.88-1.55-1.78-3.12-2.63-4.75-.07.34-.13.74-.2,1.15-.25,1.62-.53,3.5-.68,5.53v.1c-.07.7,0,1.48-.06,2.31,0,.31,0,.61,0,.92Zm-4.17-26.45c-.69,1-1.59,2.48-2.75,4.46a56.44,56.44,0,0,0-3.29,6.81,41.78,41.78,0,0,0-1.42,4.16,43.48,43.48,0,0,0-1,4.55.28.28,0,0,0,0,.09,21.07,21.07,0,0,1,1.47-1.92,21.44,21.44,0,0,1,3.14-3,19.13,19.13,0,0,1,2.88-1.86,9.8,9.8,0,0,1,1.73-.77l.26-.09.11,0c.54-.19.86-.27.86-.27a2.39,2.39,0,0,1,.66-.09,2.56,2.56,0,0,1,.39,0l-.08-.21a29.31,29.31,0,0,1-2.41-12.69Z" class="cls-3" transform="translate(-144.13 -57.67)"/><path d="M405.09,154.77s-.17.65-.52,1.87a36,36,0,0,0-1,5.16c0,.55-.12,1.11-.11,1.7,0,.29,0,.59,0,.89l0,.92a20,20,0,0,0,.63,3.8,18.69,18.69,0,0,0,1.65,3.84,29.86,29.86,0,0,0,2.71,3.88c1.08,1.31,2.36,2.66,3.73,4.12s2.95,3,4.57,4.8c.39.43.84.95,1.28,1.48l.56.68.14.17.07.08h0l.07.11,0,.05.32.41a36.69,36.69,0,0,1,2.42,3.58,29.36,29.36,0,0,1,2.07,4.12,28.6,28.6,0,0,1,1.52,4.69,28,28,0,0,1,.43,10.56,30.37,30.37,0,0,1-3.54,10.18,37,37,0,0,1-6.26,8.16c-.59.6-1.18,1.14-1.83,1.71l-1,.89-.78.63a29.06,29.06,0,0,1-4.91,3.2,25.19,25.19,0,0,1-6,2.14,23.49,23.49,0,0,1-4.67.47c-.68,0-1.35,0-2-.09a23.92,23.92,0,0,1-6.28-1.47,27.27,27.27,0,0,1-5.27-2.74,31.67,31.67,0,0,1-7.6-7.33c-.51-.68-1-1.37-1.44-2.08s-.86-1.41-1.34-2.31l-.51-1-.53-1.11c-.31-.74-.63-1.47-.88-2.21a40.38,40.38,0,0,1,1.58-31.38,39.2,39.2,0,0,1,6.88-9.87A41.64,41.64,0,0,1,386,171.7c1-.67,1.92-1.25,2.77-1.7s1.51-.84,2.09-1.1l1.79-.81s-.38.57-1.07,1.64-1.66,2.6-2.82,4.57a61.17,61.17,0,0,0-3.48,7.17c-.55,1.39-1.06,2.87-1.51,4.43a48.35,48.35,0,0,0-1,4.88,38.87,38.87,0,0,0-.37,5.22,36.72,36.72,0,0,0,.43,5.4,32.3,32.3,0,0,0,.87,3.94,23.42,23.42,0,0,1,2.59-10.43,22.26,22.26,0,0,1,2.59-3.83,20.08,20.08,0,0,1,2.77-2.67,16.87,16.87,0,0,1,2.5-1.61,12.19,12.19,0,0,1,1.74-.74c.41-.15.64-.21.64-.21s0,.24-.1.67-.21,1.08-.32,1.81c-.24,1.46-.55,3.51-.7,5.74-.12,1.1-.12,2.29-.17,3.47s0,2.41.11,3.64.21,2.43.39,3.64.43,2.38.72,3.54a35.14,35.14,0,0,0,1.07,3.39c.4,1.11.9,2.17,1.41,3.25s1,1.94,1.59,2.87l1.07-.82c.34-.27.74-.59,1.08-.9a22.52,22.52,0,0,0,3.54-3.88,13.08,13.08,0,0,0,2.6-8.32,18,18,0,0,0-.95-4.88c-.28-.83-.61-1.68-1-2.53l-.14-.32,0,0,.05.06,0,0h0l-.05-.1-.1-.19-.39-.74c-.21-.41-.41-.82-.68-1.3-2-3.68-4.55-7.64-6.23-11.86a26.07,26.07,0,0,1-2.13-12.51,20,20,0,0,1,1.18-5.1,20.62,20.62,0,0,1,1.85-3.82,25.77,25.77,0,0,1,3.5-4.47l1.42-1.35Zm0-5.32a5.31,5.31,0,0,0-3.65,1.45L400,152.24l-.25.26-.13.14a30.77,30.77,0,0,0-4,5.18l0,.07a25.64,25.64,0,0,0-2.28,4.72l-.06.18-.58,0a5.32,5.32,0,0,0-2.2.48l-1.78.81c-.79.36-1.65.83-2.46,1.28-1,.54-2,1.17-3,1.84l-.09.06-.08.05a46.2,46.2,0,0,0-7.68,6.49A44.09,44.09,0,0,0,367.55,185a45.89,45.89,0,0,0-1.83,35.52c.3.87.66,1.69,1,2.42l.05.12.06.13.52,1.11,0,.1.52,1c0,.06.05.11.07.16.55,1,1,1.84,1.57,2.68s1.07,1.62,1.64,2.39a37,37,0,0,0,8.9,8.55,32.76,32.76,0,0,0,6.32,3.29,29,29,0,0,0,7.71,1.81q1.25.12,2.52.12a28.53,28.53,0,0,0,5.74-.59,29.72,29.72,0,0,0,7.36-2.59,33.32,33.32,0,0,0,5.78-3.74l.1-.08.79-.64.12-.09,1-.88.11-.1c.74-.66,1.35-1.22,2-1.89a42.39,42.39,0,0,0,7.14-9.31,35.85,35.85,0,0,0,4.17-12,33.4,33.4,0,0,0-.52-12.59,32.8,32.8,0,0,0-1.78-5.51,35.31,35.31,0,0,0-2.41-4.8,39.81,39.81,0,0,0-2.78-4.1l-.29-.39s0-.05-.06-.07h0a2.56,2.56,0,0,0-.2-.26l-.07-.09-.15-.18-.57-.68c-.46-.56-.95-1.14-1.41-1.65-1.17-1.31-2.31-2.48-3.32-3.51-.46-.48-.92-.94-1.35-1.4l-.36-.38c-1.16-1.23-2.25-2.39-3.1-3.44a24.36,24.36,0,0,1-2.21-3.13,13.45,13.45,0,0,1-1.15-2.67,13.26,13.26,0,0,1-.43-2.63l0-.55v-.12l0-.71v-.25c0-.09,0-.34,0-.53s.05-.4.06-.6a30.45,30.45,0,0,1,.76-4l.08-.3.5-1.77a5.32,5.32,0,0,0-5.13-6.78ZM390.55,182.7c.65-1.55,1.35-3,2-4.18.23.93.49,1.87.79,2.79a15,15,0,0,0-1.73.8c-.34.18-.7.37-1.05.59Zm10.11,14.92c0-.3,0-.6,0-.89s0-.48,0-.7c.08.14.15.28.22.42s0,0,0,.06c.15.26.26.49.38.72s.14.28.22.42l.37.72.13.3,0,.06c.3.67.58,1.36.81,2a13,13,0,0,1,.66,3.38,7.43,7.43,0,0,1-1.35,4.63c-.18-.55-.36-1.13-.51-1.72-.25-1-.46-2-.63-3.06s-.19-2-.29-3.23c-.07-1,0-2,0-3.15Z" class="cls-2" transform="translate(-144.13 -57.67)"/><path d="M424,228.27a3.92,3.92,0,0,1-.05.59h0a40.52,40.52,0,0,1-1.58,9.08h0c-1.58,5.46-4.09,9.76-6.56,14-4,6.82-7.76,13.3-8,24.62,0,.4,0,.8,0,1.21,0,3.05,0,6.1.05,9.11v.59c0,4.22.07,8.27,0,12a143.57,143.57,0,0,1-.75,15.8h-20a143.57,143.57,0,0,1-.75-15.8c0-3.78,0-7.83,0-12v-.61c0-3,.05-6,.05-9.09,0-.41,0-.8,0-1.19-.23-11.33-4-17.8-8-24.64-2.38-4.1-4.83-8.29-6.41-13.5a40.12,40.12,0,0,1-1.7-9c0-.38-.07-.76-.08-1.13a2.61,2.61,0,0,1,.73-2,1.2,1.2,0,0,1,.33-.28,2.46,2.46,0,0,1,1.6-.56h48.43a2.61,2.61,0,0,1,1.46.44h0a2.91,2.91,0,0,1,.48.4A2.67,2.67,0,0,1,424,228.27Z" class="cls-1" transform="translate(-144.13 -57.67)"/><path fill="none" d="M426.07,225.71a5.05,5.05,0,0,0-1.88-2.06,5.23,5.23,0,0,0-2.59-.83,1.23,1.23,0,0,0-.28,0H372.89a1.83,1.83,0,0,0-.33,0,5.32,5.32,0,0,0-2.56.83,5,5,0,0,0-1,.8,5.58,5.58,0,0,0-.91,1.36,5,5,0,0,0-.54,2.59,44.64,44.64,0,0,0,1.14,8.11c1.58,6.77,4.54,11.83,7.41,16.78,3.95,6.75,7.67,13.13,7.67,24.49,0,.88,0,1.78,0,2.68V283c0,1.49,0,3,0,4.44,0,4.13-.07,8,0,11.55a152.59,152.59,0,0,0,.75,16.32h5.35a140.9,140.9,0,0,1-.78-15.39c0-3.57,0-7.36,0-11.24,0-3.59.06-7.25.06-10.92,0-1,0-2-.09-3-.92-16.83-9.6-23.53-13.84-35.22a38,38,0,0,1-2.27-11.06v0a2,2,0,0,1,0-.36h48.43a39.78,39.78,0,0,1-.47,4.44,37.79,37.79,0,0,1-1.73,6.73c-4.23,11.84-13,18.53-13.94,35.49-.06,1-.09,2-.09,3,0,3.67,0,7.35.06,10.94,0,3.88.06,7.65,0,11.22a140.9,140.9,0,0,1-.78,15.39h5.35A152.59,152.59,0,0,0,410.5,299c0-3.57,0-7.42,0-11.55q0-2.2,0-4.44v-2.56c0-.9,0-1.8,0-2.68,0-11.36,3.72-17.74,7.67-24.49,3-5.16,6.07-10.45,7.6-17.66v0a46.72,46.72,0,0,0,.94-7c0-.16,0-.31,0-.46A5.17,5.17,0,0,0,426.07,225.71Z" transform="translate(-144.13 -57.67)"/><path d="M379.35,240.06H414a17.76,17.76,0,0,0,17.75-17.76H361.59a17.76,17.76,0,0,0,17.76,17.76Z" class="cls-1" transform="translate(-144.13 -57.67)"/><path fill="none" stroke="#fff" stroke-linecap="round" stroke-linejoin="round" stroke-width="3.34" d="M379.35,240.06H414a17.76,17.76,0,0,0,17.75-17.76H361.59A17.76,17.76,0,0,0,379.35,240.06Z" transform="translate(-144.13 -57.67)"/><path d="M404.25,288.84H390c-3.76,0-6.81-7.1-6.81-7.1s3.05-7.1,6.81-7.1h14.29c3.77,0,6.81,7.1,6.81,7.1s-3,7.1-6.81,7.1Z" class="cls-3" transform="translate(-144.13 -57.67)"/><path fill="none" stroke="#fff" stroke-miterlimit="10" stroke-width="3.34" d="M404.25,288.84H390c-3.76,0-6.81-7.1-6.81-7.1s3.05-7.1,6.81-7.1h14.29c3.77,0,6.81,7.1,6.81,7.1S408,288.84,404.25,288.84Z" transform="translate(-144.13 -57.67)"/><path d="M397.11,110.79A127.43,127.43,0,0,0,295.65,315.33h17.17a114.24,114.24,0,1,1,168.57,0h17.17A127.43,127.43,0,0,0,397.11,110.79Z" class="cls-3" transform="translate(-144.13 -57.67)"/><path d="M193.81 394.29c-3.11 1.6-9.33 3.2-17.3 3.2-18.47 0-32.38-12-32.38-34.05 0-21.06 13.91-35.34 34.22-35.34 8.17 0 13.32 1.8 15.56 3l-2 7.09a30.1 30.1 0 0 0-13.22-2.8c-15.36 0-25.57 10.08-25.57 27.75 0 16.48 9.23 27.06 25.18 27.06a33.18 33.18 0 0 0 13.8-2.79zM215.39 375.33l-6.81 21.16h-8.74L222.1 329.2h10.2l22.36 67.29h-9l-7-21.16zm21.48-6.79l-6.41-19.37c-1.46-4.4-2.43-8.39-3.4-12.28h-.2c-1 4-2 8.08-3.3 12.18l-6.42 19.47zM264.29 329.2h8.45v60h28v7.29H264.29zM318.63 329.2v67.29h-8.46V329.2zM333.4 329.2h35.29v7.29H341.86v22.36h24.79V366H341.86v30.45H333.4zM436.74 362.15c0 23.16-13.71 35.44-30.43 35.44-17.3 0-29.46-13.78-29.46-34.15 0-21.36 12.93-35.34 30.43-35.34C425.17 328.1 436.74 342.18 436.74 362.15zm-50.85 1.09c0 14.38 7.59 27.26 20.91 27.26s21-12.68 21-27.95c0-13.38-6.8-27.36-20.9-27.36S385.89 348.47 385.89 363.24zM447.72 330.1A85.69 85.69 0 0 1 464 328.7c9 0 14.88 1.7 19 5.49 3.31 3 5.15 7.59 5.15 12.78 0 8.89-5.44 14.78-12.34 17.17v.3c5 1.8 8.07 6.59 9.62 13.58 2.14 9.39 3.7 15.88 5.06 18.47h-8.75c-1.07-1.9-2.53-7.69-4.38-16.07-1.94-9.29-5.44-12.78-13.12-13.08h-8v29.15h-8.46zm8.46 30.65h8.65c9 0 14.78-5.09 14.78-12.78 0-8.69-6.13-12.48-15.07-12.58a33.81 33.81 0 0 0-8.36.8zM500 396.49V329.2h9.23l21 34A192.19 192.19 0 0 1 542 385.11l.2-.1c-.78-9-1-17.17-1-27.66V329.2h8v67.29h-8.56l-20.8-34.14a216.12 216.12 0 0 1-12.25-22.47l-.29.1c.49 8.49.68 16.58.68 27.76v28.75zM572.44 329.2v67.29H564V329.2zM597.81 375.33L591 396.49h-8.75l22.26-67.29h10.21l22.36 67.29H628l-7-21.16zm21.49-6.79l-6.42-19.37c-1.46-4.4-2.43-8.39-3.4-12.28h-.2c-1 4-2 8.08-3.3 12.18l-6.42 19.47z" class="cls-1" transform="translate(-144.13 -57.67)"/><path fill="#f36f26" stroke="#f36f27" stroke-miterlimit="10" stroke-width="5.4" d="M156.19 476.56a46.2 46.2 0 0 0 21.39 5.38c12.2 0 19.33-5.75 19.33-14.07 0-7.71-4.94-12.11-17.41-16.39-15.08-4.78-24.4-11.75-24.4-23.37 0-12.85 11.92-22.39 29.88-22.39 9.46 0 16.31 2 20.43 4l-3.29 8.68a40.31 40.31 0 0 0-17.55-3.91c-12.61 0-17.41 6.73-17.41 12.35 0 7.71 5.62 11.5 18.37 15.91 15.63 5.38 23.58 12.11 23.58 24.22 0 12.73-10.56 23.74-32.35 23.74-8.91 0-18.65-2.33-23.58-5.26zM290 486.83c-4.39 2-13.16 3.92-24.41 3.92-26 0-45.64-14.68-45.64-41.72 0-25.82 19.6-43.31 48.25-43.31 11.51 0 18.78 2.2 21.93 3.67l-2.88 8.68a48 48 0 0 0-18.64-3.42c-21.66 0-36.05 12.36-36.05 34 0 20.19 13 33.16 35.5 33.16 7.27 0 14.67-1.35 19.47-3.43zM316.85 407.06v34.5h44.69v-34.5H373.6v82.46H361.54V450.86H316.85v38.66H304.93V407.06zM473.26 447.44c0 28.38-19.33 43.43-42.91 43.43-24.4 0-41.53-16.88-41.53-41.84 0-26.18 18.23-43.31 42.91-43.31C457 405.72 473.26 423 473.26 447.44zm-71.69 1.34c0 17.62 10.69 33.4 29.47 33.4s29.61-15.53 29.61-34.25c0-16.4-9.6-33.53-29.47-33.53S401.57 430.68 401.57 448.78zM567.71 447.44c0 28.38-19.33 43.43-42.91 43.43-24.4 0-41.53-16.88-41.53-41.84 0-26.18 18.23-43.31 42.9-43.31C551.4 405.72 567.71 423 567.71 447.44zM496 448.78c0 17.62 10.69 33.4 29.47 33.4s29.61-15.53 29.61-34.25c0-16.4-9.6-33.53-29.47-33.53S496 430.68 496 448.78zM583.2 407.06h11.93v73.53h39.48v8.93H583.2z" transform="translate(-144.13 -57.67)"/></svg>