<svg xmlns="http://www.w3.org/2000/svg" role="img" xmlns:xlink="http://www.w3.org/1999/xlink" viewBox="-3.38 -3.26 169.52 55.65"><title>CAST, Inc. logo</title><defs><path id="a" d="M.44.597h41.351v48.609H.44z"/></defs><g fill="none" fill-rule="evenodd"><path fill="#900" d="M147.4667 10.20408h9.38663c2.84509 0 5.14667-1.59528 5.14667-4.5915 0-2.99483-2.30158-4.59217-5.14667-4.59217h-28.70536C125.30224 1.0204 123 2.61775 123 5.61259c0 2.99621 2.30223 4.5915 5.14797 4.5915h19.31873z"/><path fill="#626262" d="M128.89902 1.8441c-2.03882 0-4.2177.99043-4.2177 3.76885 0 2.77771 2.17888 3.76745 4.2177 3.76745h28.20388c2.03818 0 4.21578-.98974 4.21578-3.76745 0-2.77842-2.1776-3.76886-4.21578-3.76886h-28.20388zm0 9.38039c-3.52829 0-5.89902-2.25514-5.89902-5.61154C123 2.25514 125.37073 0 128.89902 0h28.20388C160.6299 0 163 2.25514 163 5.61295c0 3.3564-2.3701 5.61154-5.8971 5.61154h-28.20388z"/><path fill="#900" d="M142.42076 12.2449c3.9304 0 4.57924 2.96383 4.57924 5.24313v25.22503c0 2.52712-1.95242 4.22572-5.00197 4.22572-3.04627 0-4.99803-1.6986-4.99803-4.22572V17.48803c0-2.0268.75895-5.24313 5.42076-5.24313"/><path fill="#626262" d="M141.89479 12.9989c-2.83855 0-4.27812 1.47878-4.27812 4.39652v25.41806c0 2.07947 1.48753 3.3713 3.88148 3.3713 2.39642 0 3.88518-1.29183 3.88518-3.3713V17.39542c0-2.99941-1.10873-4.39653-3.48854-4.39653m-.39664 34.9603c-3.28868 0-5.49815-2.06733-5.49815-5.14571V17.39542c0-1.8554.57435-6.17093 5.89479-6.17093 3.29237 0 5.10521 2.19151 5.10521 6.17093v25.41806c0 3.07838-2.2107 5.1457-5.50185 5.1457"/><path fill="#900" d="M41 12.47082c0 2.79975-1.55525 4.50375-4.60291 4.50375-5.9121 0-4.1683-7.91506-13.50116-7.91506-6.40557 0-11.69383 5.41909-11.69383 14.92008 0 7.97808 3.23621 14.91943 12.0696 14.91943 8.02367 0 7.83779-8.40325 12.75028-8.40325 2.48935 0 4.97802 1.40087 4.97802 3.83515 0 6.1467-4.8889 12.24892-14.35897 12.60786-.29232.01107-3.07317 0-3.36933 0C9.27307 46.93878 1 39.08408 1 23.97959 1 11.6165 8.46402 1.02041 22.89593 1.02041 34.59043 1.0204 41 8.20519 41 12.4708z"/><path fill="#626262" d="M22.70767 2.29365c-14.47534 0-20.95534 11.2217-20.95534 22.34275 0 14.40738 7.57534 22.34207 21.33 22.34207 7.93 0 16.79934-5.07643 16.79934-11.87117 0-1.94778-2.10534-2.99782-4.08667-2.99782-1.61867 0-2.54533 1.18155-3.92267 3.1092-1.71666 2.402-3.85333 5.3911-8.79 5.3911-8.20533 0-12.91066-5.82253-12.91066-15.97338 0-9.40542 5.15533-15.97473 12.536-15.97473 5.63333 0 7.616 2.8019 9.20933 5.05295 1.214 1.71496 2.09133 2.95354 4.252 2.95354 2.46333 0 3.71267-1.2359 3.71267-3.67347 0-3.73453-5.898-10.70104-17.174-10.70104m.37466 46.44876c-14.66933 0-23.08266-8.7868-23.08266-24.10601 0-11.99933 7.022-24.10668 22.708-24.10668 12.602 0 18.92666 7.99105 18.92666 12.46497 0 3.40442-2.04333 5.4374-5.46533 5.4374-3.064 0-4.39333-1.878-5.67933-3.69426-1.50067-2.11955-3.052-4.31222-7.782-4.31222-6.45 0-10.78334 5.71115-10.78334 14.21079 0 12.36366 6.99067 14.20945 11.158 14.20945 4.03867 0 5.73067-2.36712 7.36667-4.65709 1.35067-1.8894 2.74667-3.84322 5.346-3.84322 2.83067 0 5.83933 1.66866 5.83933 4.76176 0 7.26374-8.66933 13.63511-18.552 13.63511"/><path fill="#900" d="M63 17c.87713 0 2.96492 5.7075 3.79361 7.93912C67.6785 27.32339 72.73697 37.67239 72 39c-.60262 1.08905-3.89452 1.07005-7 1-3.88185-.09186-4.85554 0-5.1843 0-2.65142 0-4.2872.44415-4.2872 3.10002C55.5285 46.05392 59 48 59 48h19c5 0 5-3.0219 5-5.4326 0-1.08377-1.59875-2.831-1.96045-3.79581L69.1408 7.33199c-1.0806-3.07352-2.20252-6.31158-6.32206-6.31158-4.12277 0-5.27634 3.47794-6.11666 5.70956L43.9637 38.7716c-.36109.9648-.9637 2.71203-.9637 3.79579C43 45.2193 45.29498 48 48 48c2.34461 0 4.34054-1.73178 5-3.6614l4.66642-16.44558s1.18522-3.7535 2.35559-6.6453C61.01928 18.78482 62.11835 17 63 17z"/><g transform="translate(42)"><mask id="b" fill="#fff"><use xlink:href="#a"/></mask><path fill="#626262" d="M28.91647 47.43431c1.90904 0 3.27338-.01011 4.48613-.0182.9719-.00742 1.84669-.0135 2.82516-.0135 2.1164 0 3.8384-1.5888 3.8384-3.5431 0-.69527-.33534-1.9914-.9194-3.55593L27.05863 8.2227c-1.113-3.17828-2.05669-5.8744-5.61947-5.8744-3.45056 0-4.48678 2.78176-5.3189 5.0166l-.09057.2421L3.08123 40.31976c-.79604 2.1364-.91547 3.1358-.91547 3.53975 0 2.18494 1.44768 3.5431 3.77737 3.5431 2.40975 0 3.19922-.86925 3.6435-2.17414l5.80584-16.64265c.0407-.1315 1.21932-3.87153 2.40844-6.8212 1.42275-3.52828 2.38744-5.67074 3.78985-5.67074 1.0933 0 1.87228 1.49372 4.16718 7.9892.20475.57928.38457 1.08843.52697 1.47282.16669.4525.44888 1.1599.79144 2.02174 3.29831 8.2893 4.11403 11.16074 3.48862 12.29165-.74221 1.3467-2.59021 1.25567-5.14828 1.12889-.59653-.02968-1.23506-.06137-1.90246-.0762-3.18807-.07554-4.44872-.029-4.9875-.00877-.13847.0054-.23429.00876-.30385.00876-2.75034 0-3.32784 1.89294-3.32784 3.48175 0 2.04332 1.8165 2.85863 2.27062 3.0306h11.75081zm0 1.7721H16.90054l-.11878-.03572c-1.2495-.3768-3.612-1.85838-3.612-4.7656 0-3.2402 1.93659-5.25227 5.05312-5.25227.05513 0 .13125-.00337.2415-.00742.55453-.0209 1.85194-.06808 5.08856.00742.6825.0155 1.33613.04786 1.9471.07819 1.29347.06403 3.2294.15975 3.54112-.19952.2054-1.3124-2.52656-8.17432-3.56147-10.77417-.34978-.8783-.63722-1.6009-.80784-2.06262-.14438-.39028-.32747-.90729-.5355-1.49642-.60178-1.702-1.92675-5.45044-2.65584-6.62465-.63591.78595-1.63013 3.25166-2.08557 4.38004-1.16287 2.88362-2.3579 6.67386-2.36971 6.7116l-5.81241 16.65535c-.77831 2.2864-2.45372 3.35412-5.26969 3.35412-3.2911 0-5.50265-2.13542-5.50265-5.31362 0-.93492.34846-2.3437 1.03621-4.1886l13.03247-32.9231c.85707-2.30123 2.29294-6.15281 6.93-6.15281 4.77619 0 6.13266 3.8745 7.22269 6.98798l12.09469 32.08456c.68643 1.8395 1.03425 3.24896 1.03425 4.19197 0 2.93014-2.49507 5.31362-5.56303 5.31362-.97454 0-1.84538.00674-2.81335.01348-1.21537.00809-2.58365.0182-4.49793.0182" mask="url(#b)"/></g><path fill="#900" d="M110.66153 20.50871C119.7069 22.57971 122 28.00133 122 33.11523 122 41.03153 116.08901 48 104.14972 48 91.60766 48 86 40.60718 86 35.85635c0-2.4367 1.74802-4.1433 4.15908-4.1433 5.36656 0 3.98279 7.91827 13.99064 7.91827 5.12545 0 7.9604-2.86236 7.9604-5.78469 0-1.76723-.84518-3.715-4.22066-4.5683l-11.15764-2.86237c-8.9838-2.31414-10.61321-7.30746-10.61321-11.99899 0-9.74415 8.92546-13.39656 17.3052-13.39656 7.72058 0 16.82623 4.38381 16.82623 10.23044 0 2.49731-2.11227 3.9588-4.52334 3.9588-4.58231 0-3.73714-6.5174-12.9627-6.5174-4.58555 0-7.11651 2.13161-7.11651 5.17913 0 3.04225 3.61853 4.01746 6.75356 4.74754l8.26048 1.8898z"/><path fill="#626262" d="M90.05016 33.3297c-1.96232 0-3.33346 1.38509-3.33346 3.36825 0 7.24314 10.19504 10.50167 17.4342 10.50167 10.72743 0 17.1324-4.97957 17.1324-13.31928 0-6.35518-3.62023-10.42242-10.75813-12.08996h.00065l-8.32548-1.94184c-2.79912-.66512-7.47759-1.77658-7.47759-5.749 0-3.77464 3.15252-6.21363 8.03153-6.21363 5.84188 0 8.06092 2.60764 9.68225 4.51223 1.0798 1.26928 1.86042 2.18703 3.38245 2.18703 1.78203 0 3.69993-.99497 3.69993-3.17929 0-5.33177-8.80757-9.62523-16.09964-9.62523-12.2266 0-16.58303 6.6532-16.58303 12.88038 0 4.11126 1.14251 9.13012 10.04938 11.47022l11.24413 2.94223c4.05202 1.04441 4.90319 3.59922 4.90319 5.55868 0 3.3967-3.05061 6.83675-8.88204 6.83675-6.2482 0-8.43327-2.96932-10.19047-5.35616-1.18889-1.61538-2.04855-2.78306-3.91027-2.78306m14.10074 15.6499C90.1991 48.9796 85 41.4459 85 36.69795c0-2.98355 2.12432-5.1489 5.05016-5.1489 2.71093 0 4.01479 1.77116 5.27553 3.48407 1.6847 2.28863 3.42687 4.65515 8.8252 4.65515 4.7033 0 7.1647-2.5433 7.1647-5.05611 0-1.95336-1.17844-3.20706-3.60325-3.83154l-11.24806-2.9429c-10.16957-2.67199-11.3454-8.81112-11.3454-13.1967C85.11889 3.83967 94.97687 0 103.41929 0c8.4104 0 17.81699 4.87798 17.81699 11.40588 0 2.87382-2.27784 4.95993-5.41729 4.95993-2.29677 0-3.5033-1.41828-4.67063-2.78983-1.55992-1.8328-3.32758-3.9101-8.39407-3.9101-3.95338 0-6.31417 1.65805-6.31417 4.43366 0 2.35839 2.90494 3.24363 6.14041 4.01238l8.32222 1.94184C116.42127 21.342 123 24.78747 123 33.88034c0 9.31368-7.22217 15.09925-18.8491 15.09925"/></g></svg>