<svg xmlns="http://www.w3.org/2000/svg" role="img" xmlns:xlink="http://www.w3.org/1999/xlink" viewBox="-0.79 2.33 177.71 52.09"><title>CATIE (member) logo</title><defs><path d="M22.70313-44.21094c5.44921 0 9.67968 1.4375 12.6875 4.3086 3.0078 2.87109 4.67968 6.1328 5.0078 9.78515h-5.67968c-.64453-2.77343-1.92969-4.96875-3.85547-6.59375-1.92187-1.6211-4.6211-2.42968-8.09765-2.42968-4.23829 0-7.66407 1.48828-10.26954 4.46874-2.60937 2.97657-3.91015 7.54297-3.91015 13.69532 0 5.03906 1.17578 9.125 3.52734 12.26172 2.35547 3.1328 5.86328 4.69922 10.53516 4.69922 4.29687 0 7.5664-1.64844 9.8125-4.94922 1.1914-1.73828 2.07812-4.02344 2.66406-6.85547h5.6875c-.50781 4.53125-2.1875 8.32812-5.03906 11.39843-3.41797 3.69141-8.03125 5.53516-13.82813 5.53516-5 0-9.20312-1.51172-12.60156-4.54297-4.47266-4.0039-6.70703-10.1836-6.70703-18.54297 0-6.34765 1.67969-11.55078 5.03906-15.61328 3.63281-4.41406 8.64453-6.625 15.02735-6.625zm0 0" id="a"/><path d="M26.66016-17.63672L20.125-36.64844l-6.9414 19.01172zm-9.58204-25.40234h6.59376L39.28905 0h-6.39062l-4.36328-12.89063H11.51562L6.85548 0H.8789zm0 0" id="b"/><path d="M35.89063-43.03906v5.1289H21.38672V0h-5.91797v-37.91016h-14.5v-5.1289zm0 0" id="c"/><path d="M5.89063-43.03906h5.88671V0H5.89062zm0 0" id="d"/><path d="M5.125-43.03906h31.3789v5.27343H10.8125v13.07032h23.75781v4.97656H10.8125V-5.125h26.13281V0H5.125zm0 0" id="e"/></defs><use y="50" xlink:href="#a"/><use x="43.33" y="50" xlink:href="#b"/><use x="83.35" y="50" xlink:href="#c"/><use x="120" y="50" xlink:href="#d"/><use x="136.67" y="50" xlink:href="#e"/></svg>