<svg xmlns="http://www.w3.org/2000/svg" role="img" xmlns:xlink="http://www.w3.org/1999/xlink" viewBox="-0.88 2.24 157.01 182.39"><title>Coleg Sir Gar (member) logo</title><defs><path d="M22.70313-44.21094c5.44921 0 9.67968 1.4375 12.6875 4.3086 3.0078 2.87109 4.67968 6.1328 5.0078 9.78515h-5.67968c-.64453-2.77343-1.92969-4.96875-3.85547-6.59375-1.92187-1.6211-4.6211-2.42968-8.09765-2.42968-4.23829 0-7.66407 1.48828-10.26954 4.46874-2.60937 2.97657-3.91015 7.54297-3.91015 13.69532 0 5.03906 1.17578 9.125 3.52734 12.26172 2.35547 3.1328 5.86328 4.69922 10.53516 4.69922 4.29687 0 7.5664-1.64844 9.8125-4.94922 1.1914-1.73828 2.07812-4.02344 2.66406-6.85547h5.6875c-.50781 4.53125-2.1875 8.32812-5.03906 11.39843-3.41797 3.69141-8.03125 5.53516-13.82813 5.53516-5 0-9.20312-1.51172-12.60156-4.54297-4.47266-4.0039-6.70703-10.1836-6.70703-18.54297 0-6.34765 1.67969-11.55078 5.03906-15.61328 3.63281-4.41406 8.64453-6.625 15.02735-6.625zm0 0" id="a"/><path d="M16.32031-3.39844c3.4961 0 5.89063-1.32422 7.1914-3.96875 1.29688-2.64844 1.94923-5.59375 1.94923-8.83594 0-2.92968-.46875-5.3125-1.40625-7.14843C22.5703-26.2422 20.0078-27.6875 16.375-27.6875c-3.22266 0-5.5625 1.23438-7.03125 3.69531-1.46484 2.46094-2.19531 5.42969-2.19531 8.90625 0 3.33985.73437 6.1211 2.19531 8.34766 1.46484 2.22656 3.78906 3.33984 6.97656 3.33984zm.20313-28.88672c4.04297 0 7.46093 1.34766 10.2539 4.04297 2.79297 2.69532 4.19141 6.66016 4.19141 11.89453 0 5.0586-1.23438 9.23829-3.69531 12.53907C24.8125-.50781 20.99609 1.14063 15.8203 1.14063c-4.3164 0-7.74218-1.45704-10.28125-4.37891C3-6.15625 1.72656-10.07813 1.72656-15c0-5.27344 1.33985-9.47266 4.01563-12.59766 2.67578-3.125 6.26953-4.6875 10.78125-4.6875zm0 0" id="b"/><path d="M4.01563-43.03906h5.27343V0H4.01563zm0 0" id="c"/><path d="M16.9336-32.07813c2.22656 0 4.38671.51954 6.47265 1.56641 2.08984 1.04297 3.6836 2.39453 4.77734 4.0586 1.0547 1.58203 1.75782 3.42578 2.10938 5.53515.3125 1.44531.46875 3.75.46875 6.91406H7.76562c.09766 3.1836.84766 5.73828 2.25391 7.66016 1.40625 1.92578 3.58203 2.88672 6.53516 2.88672 2.7539 0 4.94922-.91016 6.58984-2.72266.9375-1.05469 1.60156-2.27734 1.99219-3.66406h5.1836c-.13673 1.15234-.58985 2.4375-1.35938 3.85156-.77344 1.41797-1.63672 2.57422-2.59375 3.47266C24.76562-.95703 22.78125.09766 20.42187.64453c-1.26953.3125-2.70703.46875-4.30859.46875-3.90625 0-7.21484-1.42187-9.9336-4.26172-2.71484-2.84375-4.0703-6.82031-4.0703-11.9375 0-5.03906 1.36718-9.13281 4.10156-12.27734 2.73437-3.14453 6.3086-4.71485 10.72265-4.71485zm8.41015 13.88282c-.21484-2.28516-.71484-4.10938-1.4961-5.47657-1.4453-2.53906-3.85546-3.80859-7.23828-3.80859-2.42187 0-4.45312.875-6.09374 2.6211-1.64063 1.75-2.50782 3.96874-2.60547 6.66406zm0 0" id="d"/><path d="M14.9414-31.9336c2.46094 0 4.60938.60547 6.44532 1.81641.9961.6836 2.01172 1.67969 3.04687 2.98828v-3.95703h4.86329v28.53907c0 3.98437-.58594 7.125-1.75782 9.42968-2.1875 4.25781-6.32031 6.39063-12.39062 6.39063-3.3789 0-6.22266-.75782-8.52735-2.27344-2.30468-1.51172-3.59375-3.88281-3.86718-7.10156h5.36328c.2539 1.40625.75781 2.48828 1.52343 3.25 1.19141 1.17187 3.0625 1.75781 5.625 1.75781 4.04297 0 6.6875-1.42578 7.9375-4.27734.7422-1.6797 1.08594-4.67579 1.02344-8.9961-1.05468 1.60156-2.32031 2.79688-3.80468 3.57813C18.9375-.00781 16.97265.3828 14.53125.3828c-3.39844 0-6.3711-1.20703-8.92188-3.6211-2.54687-2.41015-3.8203-6.40233-3.8203-11.96483 0-5.25391 1.28124-9.35938 3.85156-12.3047 2.5664-2.94921 5.66796-4.42577 9.30078-4.42577zm9.4922 16.11329c0-3.88672-.80079-6.76563-2.40235-8.64063s-3.64063-2.8125-6.125-2.8125c-3.71094 0-6.25 1.73438-7.61719 5.21094-.72265 1.85547-1.08203 4.28906-1.08203 7.29688 0 3.53515.71875 6.22656 2.15235 8.0703 1.4375 1.84766 3.36718 2.76954 5.78906 2.76954 3.78906 0 6.45312-1.70703 7.9961-5.1289.85937-1.9336 1.28905-4.1875 1.28905-6.76563zm0 0" id="e"/><path d="M8.3789-13.88672c.13673 2.4414.71485 4.42578 1.73048 5.94922 1.93359 2.85156 5.33984 4.27344 10.22265 4.27344 2.1875 0 4.17969-.3125 5.97656-.9375 3.47657-1.21094 5.21485-3.375 5.21485-6.5 0-2.34375-.73438-4.01563-2.19532-5.01172-1.48437-.97656-3.8125-1.82422-6.97656-2.55078l-5.82812-1.3164c-3.8086-.85938-6.5039-1.8086-8.08594-2.83985-2.73438-1.79688-4.10156-4.48438-4.10156-8.0586 0-3.86718 1.33594-7.04296 4.01562-9.51953 2.67578-2.48047 6.46094-3.72265 11.36719-3.72265 4.51172 0 8.34375 1.08984 11.4961 3.26562 3.15624 2.17969 4.73046 5.66016 4.73046 10.44531h-5.47656c-.29297-2.30468-.91797-4.07421-1.875-5.30078-1.77734-2.2461-4.79688-3.3711-9.05469-3.3711-3.4375 0-5.90625.72266-7.41015 2.16798C10.625-35.46875 9.875-33.78906 9.875-31.875c0 2.10938.875 3.65234 2.63281 4.6289 1.15235.625 3.76172 1.40626 7.82422 2.34376l6.03516 1.3789c2.91015.66407 5.15625 1.57032 6.73828 2.72266 2.73437 2.01172 4.10156 4.9336 4.10156 8.76172 0 4.76562-1.73437 8.17187-5.19922 10.22265-3.46875 2.05079-7.4961 3.07422-12.08593 3.07422-5.35157 0-9.53907-1.36719-12.57032-4.10156-3.02734-2.71484-4.50781-6.39453-4.45312-11.04297zm0 0" id="f"/><path d="M3.86719-31.23047h5.35937V0H3.8672zm0-11.8086h5.35937v5.97657H3.8672zm0 0" id="g"/><path d="M4.01563-31.375h5.0078v5.41797c.41016-1.05469 1.41407-2.33985 3.01563-3.85156 1.60157-1.51563 3.44922-2.26954 5.53907-2.26954.09765 0 .26562.00782.5.02735.23437.01953.6328.0586 1.19921.11719v5.5664c-.3125-.0586-.60156-.09765-.86328-.11718-.26562-.01954-.55468-.03126-.86718-.03126-2.65626 0-4.69532.85547-6.1211 2.56641C10-22.24219 9.28906-20.27344 9.28906-18.04687V0H4.01563zm0 0" id="h"/><path d="M23.17188-44.14844c4.04296 0 7.53906.78125 10.49218 2.34375C37.94141-39.55859 40.5547-35.625 41.51563-30h-5.77344c-.70313-3.14453-2.15625-5.4336-4.36719-6.8711-2.20703-1.43359-4.98828-2.15234-8.34766-2.15234-3.98437 0-7.33984 1.49219-10.0625 4.48438C10.23828-31.55078 8.875-27.10156 8.875-21.1797c0 5.11719 1.125 9.28125 3.3711 12.49219 2.24609 3.21484 5.91015 4.82031 10.98827 4.82031 3.88672 0 7.10157-1.1289 9.65235-3.38281 2.54687-2.25781 3.85156-5.90625 3.91016-10.94531H23.3203v-4.83203h18.89844V0h-3.75L37.0625-5.53906c-1.97266 2.16797-3.72266 3.67187-5.2461 4.51562-2.55859 1.44531-5.80859 2.16406-9.7539 2.16406-5.09766 0-9.48438-1.64843-13.15625-4.94921-4.0039-4.14063-6.00781-9.82422-6.00781-17.05079 0-7.20703 1.95312-12.9375 5.85937-17.1953 3.71094-4.0625 8.51563-6.09376 14.41407-6.09376zm0 0" id="i"/><path d="M7.91016-8.35156c0 1.52343.55859 2.72656 1.66796 3.60547 1.11329.8789 2.4336 1.3164 3.95704 1.3164 1.85547 0 3.65234-.42969 5.39062-1.28906 2.92969-1.42578 4.39453-3.75781 4.39453-7v-4.25c-.64453.41016-1.47656.7539-2.49218 1.02734-1.01563.27344-2.00782.46875-2.98438.58594l-3.19531.41016c-1.91407.2539-3.35157.65625-4.30469 1.20312-1.6211.91797-2.4336 2.38282-2.4336 4.39063zm12.77343-10.66407c1.21094-.15624 2.01954-.66406 2.4336-1.52343.23437-.46875.35156-1.14063.35156-2.01953 0-1.79688-.64063-3.10157-1.92188-3.91016-1.27734-.8125-3.10937-1.21875-5.49218-1.21875-2.7539 0-4.70703.74219-5.85938 2.22656-.64453.82032-1.0625 2.04297-1.25781 3.66407H4.01562c.09766-3.8672 1.35157-6.5586 3.76172-8.07032 2.41407-1.51562 5.21094-2.27343 8.39454-2.27343 3.6914 0 6.6875.70312 8.99218 2.10937 2.28516 1.40625 3.42969 3.59375 3.42969 6.5625v18.07813c0 .54687.11328.98437.33594 1.3203.22656.33204.69922.4961 1.42187.4961.23438 0 .5-.01562.78907-.04297.29296-.03125.60937-.07422.9375-.13281V.14844c-.82032.23437-1.44532.3789-1.875.4375-.4297.0586-1.01563.08593-1.75782.08593-1.8164 0-3.13281-.64062-3.95312-1.92968-.42969-.6836-.73438-1.65235-.90625-2.90235C22.51172-2.7539 20.96875-1.53125 18.95312-.5 16.94141.53516 14.72657 1.05469 12.3047 1.05469c-2.91016 0-5.28907-.88281-7.13282-2.65235-1.84765-1.76562-2.76953-3.98046-2.76953-6.63671 0-2.91016.91016-5.16407 2.72266-6.76563 1.8164-1.60156 4.20313-2.58594 7.14844-2.96094zm0 0" id="j"/></defs><use y="50" xlink:href="#a"/><use x="43.33" y="50" xlink:href="#b"/><use x="76.699" y="50" xlink:href="#c"/><use x="90.029" y="50" xlink:href="#d"/><use x="123.398" y="50" xlink:href="#e"/><g><use y="120" xlink:href="#f"/><use x="40.02" y="120" xlink:href="#g"/><use x="53.35" y="120" xlink:href="#h"/></g><g><use y="180" xlink:href="#i"/><use x="46.67" y="180" xlink:href="#j"/><use x="80.039" y="180" xlink:href="#h"/></g></svg>