<svg xmlns="http://www.w3.org/2000/svg" role="img" viewBox="29.49 13.49 540.52 572.52"><title>Confidential Computing Consortium (member) logo</title><path fill-opacity="0" d="M0 0h600v600H0z"/><defs><linearGradient id="a" x1="-74.038" x2="393.891" y1="95.617" y2="349.384" gradientTransform="scale(-2 2)" gradientUnits="userSpaceOnUse"><stop offset="0" stop-color="#ED1846"/><stop offset=".087" stop-color="#E4274C"/><stop offset=".243" stop-color="#CF3E59"/><stop offset=".45" stop-color="#AB556F"/><stop offset=".7" stop-color="#75678F"/><stop offset=".984" stop-color="#0075B8"/><stop offset="1" stop-color="#0076BB"/></linearGradient><linearGradient id="b" x1="-85.981" x2="381.948" y1="222.739" y2="476.506" gradientTransform="scale(-2 2)" gradientUnits="userSpaceOnUse"><stop offset="0" stop-color="#ED1846"/><stop offset=".087" stop-color="#E4274C"/><stop offset=".243" stop-color="#CF3E59"/><stop offset=".45" stop-color="#AB556F"/><stop offset=".7" stop-color="#75678F"/><stop offset=".984" stop-color="#0075B8"/><stop offset="1" stop-color="#0076BB"/></linearGradient><linearGradient id="c" x1="-402" x2="65.929" y1="1.505" y2="255.272" gradientTransform="scale(-2 2)" gradientUnits="userSpaceOnUse"><stop offset="0" stop-color="#ED1846"/><stop offset=".087" stop-color="#E4274C"/><stop offset=".243" stop-color="#CF3E59"/><stop offset=".45" stop-color="#AB556F"/><stop offset=".7" stop-color="#75678F"/><stop offset=".984" stop-color="#0075B8"/><stop offset="1" stop-color="#0076BB"/></linearGradient><linearGradient id="d" x1="-393.548" x2="74.381" y1="117.208" y2="370.975" gradientTransform="scale(-2 2)" gradientUnits="userSpaceOnUse"><stop offset="0" stop-color="#ED1846"/><stop offset=".087" stop-color="#E4274C"/><stop offset=".243" stop-color="#CF3E59"/><stop offset=".45" stop-color="#AB556F"/><stop offset=".7" stop-color="#75678F"/><stop offset=".984" stop-color="#0075B8"/><stop offset="1" stop-color="#0076BB"/></linearGradient><linearGradient id="e" x1="-217.044" x2="250.885" y1="109.088" y2="362.855" gradientTransform="scale(-2 2)" gradientUnits="userSpaceOnUse"><stop offset="0" stop-color="#ED1846"/><stop offset=".087" stop-color="#E4274C"/><stop offset=".243" stop-color="#CF3E59"/><stop offset=".45" stop-color="#AB556F"/><stop offset=".7" stop-color="#75678F"/><stop offset=".984" stop-color="#0075B8"/><stop offset="1" stop-color="#0076BB"/></linearGradient><linearGradient id="f" x1="-209.445" x2="258.484" y1="109.09" y2="362.857" gradientTransform="scale(-2 2)" gradientUnits="userSpaceOnUse"><stop offset="0" stop-color="#ED1846"/><stop offset=".087" stop-color="#E4274C"/><stop offset=".243" stop-color="#CF3E59"/><stop offset=".45" stop-color="#AB556F"/><stop offset=".7" stop-color="#75678F"/><stop offset=".984" stop-color="#0075B8"/><stop offset="1" stop-color="#0076BB"/></linearGradient><linearGradient id="g" x1="-233.341" x2="234.588" y1="109.082" y2="362.85" gradientTransform="scale(-2 2)" gradientUnits="userSpaceOnUse"><stop offset="0" stop-color="#ED1846"/><stop offset=".087" stop-color="#E4274C"/><stop offset=".243" stop-color="#CF3E59"/><stop offset=".45" stop-color="#AB556F"/><stop offset=".7" stop-color="#75678F"/><stop offset=".984" stop-color="#0075B8"/><stop offset="1" stop-color="#0076BB"/></linearGradient><linearGradient id="h" x1="-233.137" x2="234.792" y1="109.074" y2="362.841" gradientTransform="scale(-2 2)" gradientUnits="userSpaceOnUse"><stop offset="0" stop-color="#ED1846"/><stop offset=".087" stop-color="#E4274C"/><stop offset=".243" stop-color="#CF3E59"/><stop offset=".45" stop-color="#AB556F"/><stop offset=".7" stop-color="#75678F"/><stop offset=".984" stop-color="#0075B8"/><stop offset="1" stop-color="#0076BB"/></linearGradient></defs><path fill="#FFF" d="M0 0h600v600H0V0z"/><path fill="url(#a)" d="M163.9 166.3c-9 0-16.4 7.4-16.4 16.4 0 9 7.4 16.4 16.4 16.4 9 0 16.4-7.4 16.4-16.4 0-9.2-7.4-16.4-16.4-16.4z"/><path fill="url(#b)" d="M106.9 464.3c-9 0-16.4 7.4-16.4 16.4 0 9 7.4 16.4 16.4 16.4 9 0 16.4-7.4 16.4-16.4.2-9-7.2-16.4-16.4-16.4z"/><path fill="url(#c)" d="M542.9 128.1c-9 0-16.4 7.4-16.4 16.4 0 9 7.4 16.4 16.4 16.4 9 0 16.4-7.4 16.4-16.4 0-9-7.4-16.4-16.4-16.4z"/><path fill="url(#d)" d="M471.7 389.1c-9 0-16.4 7.4-16.4 16.4 0 9 7.4 16.4 16.4 16.4 9 0 16.4-7.4 16.4-16.4 0-9-7.4-16.4-16.4-16.4z"/><path fill="url(#e)" d="M315.9 491.5c31 0 62-7.6 89.4-22.2 20.6-10.8 39-25.6 54.4-43-7.2-4.2-12-12-12-20.8 0-5.4 1.8-10.4 4.8-14.4l-19.2-13.6-2.6 3.6c-26.4 37.4-69.4 59.6-114.8 59.6-77.6 0-140.6-63.2-140.6-140.6 0-77.6 63.2-140.8 140.6-140.8 45.4 0 88.2 22.2 114.8 59.6l2.6 3.6 41.6-29.4-2.6-3.6c-17.4-24.6-40.6-44.8-67-58.8-27.4-14.4-58.2-22.2-89.4-22.2-53 0-101.2 21.6-135.8 56.6 4.8 4.4 7.8 10.6 7.8 17.6 0 13.2-10.8 24-24 24-4.8 0-9.2-1.4-13-3.8-16.8 28.6-26.6 61.8-26.6 97.2.2 105.6 86 191.4 191.6 191.4z"/><path fill="url(#f)" d="M501.7 174.1l21.8-15.4c-3-4-4.6-8.8-4.6-14.2 0-7.8 3.8-14.8 9.6-19.2-23.2-28.2-52-51.8-84.2-68.8-19.4-10.2-40-18.2-61.2-23.6-21.8-5.4-44.4-8.2-67.2-8.2-151.8 0-275.2 123.4-275.2 275.2 0 60.2 19.4 116 52.4 161.4 4-2.8 8.8-4.4 14-4.4 13.2 0 24 10.8 24 24 0 6.4-2.6 12.2-6.6 16.6 49.6 48.2 117.2 77.8 191.6 77.8 22.8 0 45.4-2.8 67.2-8.4 21.2-5.4 41.8-13.2 61.2-23.6 38-20.2 71.4-49.4 96.2-84.6l2.6-3.6-41.6-29.4-2.6 3.6c-42.2 59.4-110.6 95-183.2 95-123.8 0-224.4-100.6-224.4-224.4 0-123.8 100.6-224.4 224.4-224.4 72.6 0 141 35.4 183.2 95l2.6 3.6z"/><path fill="url(#g)" d="M315.9 276.1c-13.2 0-24 10.8-24 24s10.8 24 24 24 24-10.8 24-24c0-13.4-10.8-24-24-24z"/><path fill="url(#h)" d="M367.1 394.7c34.8-18.8 56.4-55.2 56.4-94.8 0-28.8-11.2-55.8-31.6-76.2-20.4-20.4-47.4-31.6-76.2-31.6-28.8 0-55.8 11.2-76.2 31.6-20.4 20.4-31.6 47.4-31.6 76.2 0 39.6 21.6 75.8 56.4 94.8l4 2.2 24.2-44.8-4-2.2c-18.4-10-29.8-29.2-29.8-50 0-31.4 25.4-56.8 56.8-56.8s56.8 25.4 56.8 56.8c0 20.8-11.4 40-29.8 50l-4 2.2 24.2 44.8 4.4-2.2z"/></svg>