<svg xmlns="http://www.w3.org/2000/svg" role="img" viewBox="31.06 4.06 1036.88 315.88"><title>Confidential Computing Consortium (member) logo</title><path fill="#FFF" d="M0 0h1100v325H0z"/><defs><linearGradient id="a" x1="120.912" x2="588.841" y1="108.117" y2="361.884" gradientUnits="userSpaceOnUse"><stop offset="0" stop-color="#ED1846"/><stop offset=".087" stop-color="#E4274C"/><stop offset=".243" stop-color="#CF3E59"/><stop offset=".45" stop-color="#AB556F"/><stop offset=".7" stop-color="#75678F"/><stop offset=".984" stop-color="#0075B8"/><stop offset="1" stop-color="#0076BB"/></linearGradient><linearGradient id="b" x1="51.971" x2="519.9" y1="235.239" y2="489.006" gradientUnits="userSpaceOnUse"><stop offset="0" stop-color="#ED1846"/><stop offset=".087" stop-color="#E4274C"/><stop offset=".243" stop-color="#CF3E59"/><stop offset=".45" stop-color="#AB556F"/><stop offset=".7" stop-color="#75678F"/><stop offset=".984" stop-color="#0075B8"/><stop offset="1" stop-color="#0076BB"/></linearGradient><linearGradient id="c" x1="171.95" x2="639.88" y1="14.005" y2="267.772" gradientUnits="userSpaceOnUse"><stop offset="0" stop-color="#ED1846"/><stop offset=".087" stop-color="#E4274C"/><stop offset=".243" stop-color="#CF3E59"/><stop offset=".45" stop-color="#AB556F"/><stop offset=".7" stop-color="#75678F"/><stop offset=".984" stop-color="#0075B8"/><stop offset="1" stop-color="#0076BB"/></linearGradient><linearGradient id="d" x1="109.202" x2="577.131" y1="129.708" y2="383.475" gradientUnits="userSpaceOnUse"><stop offset="0" stop-color="#ED1846"/><stop offset=".087" stop-color="#E4274C"/><stop offset=".243" stop-color="#CF3E59"/><stop offset=".45" stop-color="#AB556F"/><stop offset=".7" stop-color="#75678F"/><stop offset=".984" stop-color="#0075B8"/><stop offset="1" stop-color="#0076BB"/></linearGradient><linearGradient id="e" x1="113.606" x2="581.535" y1="121.588" y2="375.355" gradientUnits="userSpaceOnUse"><stop offset="0" stop-color="#ED1846"/><stop offset=".087" stop-color="#E4274C"/><stop offset=".243" stop-color="#CF3E59"/><stop offset=".45" stop-color="#AB556F"/><stop offset=".7" stop-color="#75678F"/><stop offset=".984" stop-color="#0075B8"/><stop offset="1" stop-color="#0076BB"/></linearGradient><linearGradient id="f" x1="113.605" x2="581.534" y1="121.59" y2="375.357" gradientUnits="userSpaceOnUse"><stop offset="0" stop-color="#ED1846"/><stop offset=".087" stop-color="#E4274C"/><stop offset=".243" stop-color="#CF3E59"/><stop offset=".45" stop-color="#AB556F"/><stop offset=".7" stop-color="#75678F"/><stop offset=".984" stop-color="#0075B8"/><stop offset="1" stop-color="#0076BB"/></linearGradient><linearGradient id="g" x1="113.609" x2="581.538" y1="121.582" y2="375.35" gradientUnits="userSpaceOnUse"><stop offset="0" stop-color="#ED1846"/><stop offset=".087" stop-color="#E4274C"/><stop offset=".243" stop-color="#CF3E59"/><stop offset=".45" stop-color="#AB556F"/><stop offset=".7" stop-color="#75678F"/><stop offset=".984" stop-color="#0075B8"/><stop offset="1" stop-color="#0076BB"/></linearGradient><linearGradient id="h" x1="113.613" x2="581.543" y1="121.574" y2="375.341" gradientUnits="userSpaceOnUse"><stop offset="0" stop-color="#ED1846"/><stop offset=".087" stop-color="#E4274C"/><stop offset=".243" stop-color="#CF3E59"/><stop offset=".45" stop-color="#AB556F"/><stop offset=".7" stop-color="#75678F"/><stop offset=".984" stop-color="#0075B8"/><stop offset="1" stop-color="#0076BB"/></linearGradient><linearGradient id="i" x1="166.043" x2="633.972" y1="25.408" y2="279.175" gradientUnits="userSpaceOnUse"><stop offset="0" stop-color="#ED1846"/><stop offset=".087" stop-color="#E4274C"/><stop offset=".243" stop-color="#CF3E59"/><stop offset=".45" stop-color="#AB556F"/><stop offset=".7" stop-color="#75678F"/><stop offset=".984" stop-color="#0075B8"/><stop offset="1" stop-color="#0076BB"/></linearGradient><linearGradient id="j" x1="174.198" x2="642.127" y1="10.371" y2="264.138" gradientUnits="userSpaceOnUse"><stop offset="0" stop-color="#ED1846"/><stop offset=".087" stop-color="#E4274C"/><stop offset=".243" stop-color="#CF3E59"/><stop offset=".45" stop-color="#AB556F"/><stop offset=".7" stop-color="#75678F"/><stop offset=".984" stop-color="#0075B8"/><stop offset="1" stop-color="#0076BB"/></linearGradient><linearGradient id="k" x1="175.25" x2="657.478" y1="-9.712" y2="251.809" gradientUnits="userSpaceOnUse"><stop offset="0" stop-color="#ED1846"/><stop offset=".087" stop-color="#E4274C"/><stop offset=".243" stop-color="#CF3E59"/><stop offset=".45" stop-color="#AB556F"/><stop offset=".7" stop-color="#75678F"/><stop offset=".984" stop-color="#0075B8"/><stop offset="1" stop-color="#0076BB"/></linearGradient><linearGradient id="l" x1="181.127" x2="663.354" y1="-26.54" y2="234.982" gradientUnits="userSpaceOnUse"><stop offset="0" stop-color="#ED1846"/><stop offset=".087" stop-color="#E4274C"/><stop offset=".243" stop-color="#CF3E59"/><stop offset=".45" stop-color="#AB556F"/><stop offset=".7" stop-color="#75678F"/><stop offset=".984" stop-color="#0075B8"/><stop offset="1" stop-color="#0076BB"/></linearGradient><linearGradient id="m" x1="187.45" x2="669.678" y1="-36.725" y2="224.796" gradientUnits="userSpaceOnUse"><stop offset="0" stop-color="#ED1846"/><stop offset=".087" stop-color="#E4274C"/><stop offset=".243" stop-color="#CF3E59"/><stop offset=".45" stop-color="#AB556F"/><stop offset=".7" stop-color="#75678F"/><stop offset=".984" stop-color="#0075B8"/><stop offset="1" stop-color="#0076BB"/></linearGradient><linearGradient id="n" x1="190.49" x2="672.718" y1="-46.669" y2="214.852" gradientUnits="userSpaceOnUse"><stop offset="0" stop-color="#ED1846"/><stop offset=".087" stop-color="#E4274C"/><stop offset=".243" stop-color="#CF3E59"/><stop offset=".45" stop-color="#AB556F"/><stop offset=".7" stop-color="#75678F"/><stop offset=".984" stop-color="#0075B8"/><stop offset="1" stop-color="#0076BB"/></linearGradient><linearGradient id="o" x1="198.035" x2="680.262" y1="-64.515" y2="197.006" gradientUnits="userSpaceOnUse"><stop offset="0" stop-color="#ED1846"/><stop offset=".087" stop-color="#E4274C"/><stop offset=".243" stop-color="#CF3E59"/><stop offset=".45" stop-color="#AB556F"/><stop offset=".7" stop-color="#75678F"/><stop offset=".984" stop-color="#0075B8"/><stop offset="1" stop-color="#0076BB"/></linearGradient><linearGradient id="p" x1="207.445" x2="688.44" y1="-79.826" y2="181.026" gradientUnits="userSpaceOnUse"><stop offset="0" stop-color="#ED1846"/><stop offset=".087" stop-color="#E4274C"/><stop offset=".243" stop-color="#CF3E59"/><stop offset=".45" stop-color="#AB556F"/><stop offset=".7" stop-color="#75678F"/><stop offset=".984" stop-color="#0075B8"/><stop offset="1" stop-color="#0076BB"/></linearGradient><linearGradient id="q" x1="218.988" x2="699.983" y1="-97.32" y2="163.533" gradientUnits="userSpaceOnUse"><stop offset="0" stop-color="#ED1846"/><stop offset=".087" stop-color="#E4274C"/><stop offset=".243" stop-color="#CF3E59"/><stop offset=".45" stop-color="#AB556F"/><stop offset=".7" stop-color="#75678F"/><stop offset=".984" stop-color="#0075B8"/><stop offset="1" stop-color="#0076BB"/></linearGradient><linearGradient id="r" x1="225.442" x2="706.436" y1="-105.429" y2="155.423" gradientUnits="userSpaceOnUse"><stop offset="0" stop-color="#ED1846"/><stop offset=".087" stop-color="#E4274C"/><stop offset=".243" stop-color="#CF3E59"/><stop offset=".45" stop-color="#AB556F"/><stop offset=".7" stop-color="#75678F"/><stop offset=".984" stop-color="#0075B8"/><stop offset="1" stop-color="#0076BB"/></linearGradient><linearGradient id="s" x1="233.301" x2="714.296" y1="-114.235" y2="146.618" gradientUnits="userSpaceOnUse"><stop offset="0" stop-color="#ED1846"/><stop offset=".087" stop-color="#E4274C"/><stop offset=".243" stop-color="#CF3E59"/><stop offset=".45" stop-color="#AB556F"/><stop offset=".7" stop-color="#75678F"/><stop offset=".984" stop-color="#0075B8"/><stop offset="1" stop-color="#0076BB"/></linearGradient><linearGradient id="t" x1="243.812" x2="724.807" y1="-127.93" y2="132.923" gradientUnits="userSpaceOnUse"><stop offset="0" stop-color="#ED1846"/><stop offset=".087" stop-color="#E4274C"/><stop offset=".243" stop-color="#CF3E59"/><stop offset=".45" stop-color="#AB556F"/><stop offset=".7" stop-color="#75678F"/><stop offset=".984" stop-color="#0075B8"/><stop offset="1" stop-color="#0076BB"/></linearGradient><linearGradient id="u" x1="261.574" x2="729.504" y1="-143.37" y2="110.397" gradientUnits="userSpaceOnUse"><stop offset="0" stop-color="#ED1846"/><stop offset=".087" stop-color="#E4274C"/><stop offset=".243" stop-color="#CF3E59"/><stop offset=".45" stop-color="#AB556F"/><stop offset=".7" stop-color="#75678F"/><stop offset=".984" stop-color="#0075B8"/><stop offset="1" stop-color="#0076BB"/></linearGradient><linearGradient id="v" x1="269.718" x2="737.647" y1="-158.407" y2="95.361" gradientUnits="userSpaceOnUse"><stop offset="0" stop-color="#ED1846"/><stop offset=".087" stop-color="#E4274C"/><stop offset=".243" stop-color="#CF3E59"/><stop offset=".45" stop-color="#AB556F"/><stop offset=".7" stop-color="#75678F"/><stop offset=".984" stop-color="#0075B8"/><stop offset="1" stop-color="#0076BB"/></linearGradient><linearGradient id="w" x1="262.244" x2="744.471" y1="-185.888" y2="75.634" gradientUnits="userSpaceOnUse"><stop offset="0" stop-color="#ED1846"/><stop offset=".087" stop-color="#E4274C"/><stop offset=".243" stop-color="#CF3E59"/><stop offset=".45" stop-color="#AB556F"/><stop offset=".7" stop-color="#75678F"/><stop offset=".984" stop-color="#0075B8"/><stop offset="1" stop-color="#0076BB"/></linearGradient><linearGradient id="x" x1="269.316" x2="751.544" y1="-203.211" y2="58.311" gradientUnits="userSpaceOnUse"><stop offset="0" stop-color="#ED1846"/><stop offset=".087" stop-color="#E4274C"/><stop offset=".243" stop-color="#CF3E59"/><stop offset=".45" stop-color="#AB556F"/><stop offset=".7" stop-color="#75678F"/><stop offset=".984" stop-color="#0075B8"/><stop offset="1" stop-color="#0076BB"/></linearGradient><linearGradient id="y" x1="288.463" x2="763.895" y1="-217.412" y2="40.424" gradientUnits="userSpaceOnUse"><stop offset="0" stop-color="#ED1846"/><stop offset=".087" stop-color="#E4274C"/><stop offset=".243" stop-color="#CF3E59"/><stop offset=".45" stop-color="#AB556F"/><stop offset=".7" stop-color="#75678F"/><stop offset=".984" stop-color="#0075B8"/><stop offset="1" stop-color="#0076BB"/></linearGradient><linearGradient id="z" x1="289.698" x2="771.926" y1="-236.817" y2="24.705" gradientUnits="userSpaceOnUse"><stop offset="0" stop-color="#ED1846"/><stop offset=".087" stop-color="#E4274C"/><stop offset=".243" stop-color="#CF3E59"/><stop offset=".45" stop-color="#AB556F"/><stop offset=".7" stop-color="#75678F"/><stop offset=".984" stop-color="#0075B8"/><stop offset="1" stop-color="#0076BB"/></linearGradient><linearGradient id="A" x1="297.058" x2="778.052" y1="-244.064" y2="16.789" gradientUnits="userSpaceOnUse"><stop offset="0" stop-color="#ED1846"/><stop offset=".087" stop-color="#E4274C"/><stop offset=".243" stop-color="#CF3E59"/><stop offset=".45" stop-color="#AB556F"/><stop offset=".7" stop-color="#75678F"/><stop offset=".984" stop-color="#0075B8"/><stop offset="1" stop-color="#0076BB"/></linearGradient><linearGradient id="B" x1="299.882" x2="782.11" y1="-257.544" y2="3.978" gradientUnits="userSpaceOnUse"><stop offset="0" stop-color="#ED1846"/><stop offset=".087" stop-color="#E4274C"/><stop offset=".243" stop-color="#CF3E59"/><stop offset=".45" stop-color="#AB556F"/><stop offset=".7" stop-color="#75678F"/><stop offset=".984" stop-color="#0075B8"/><stop offset="1" stop-color="#0076BB"/></linearGradient><linearGradient id="C" x1="325.201" x2="793.13" y1="-262.538" y2="-8.771" gradientUnits="userSpaceOnUse"><stop offset="0" stop-color="#ED1846"/><stop offset=".087" stop-color="#E4274C"/><stop offset=".243" stop-color="#CF3E59"/><stop offset=".45" stop-color="#AB556F"/><stop offset=".7" stop-color="#75678F"/><stop offset=".984" stop-color="#0075B8"/><stop offset="1" stop-color="#0076BB"/></linearGradient><linearGradient id="D" x1="137.388" x2="607.328" y1="75.671" y2="330.528" gradientUnits="userSpaceOnUse"><stop offset="0" stop-color="#ED1846"/><stop offset=".087" stop-color="#E4274C"/><stop offset=".243" stop-color="#CF3E59"/><stop offset=".45" stop-color="#AB556F"/><stop offset=".7" stop-color="#75678F"/><stop offset=".984" stop-color="#0075B8"/><stop offset="1" stop-color="#0076BB"/></linearGradient><linearGradient id="E" x1="154.631" x2="624.571" y1="43.876" y2="298.734" gradientUnits="userSpaceOnUse"><stop offset="0" stop-color="#ED1846"/><stop offset=".087" stop-color="#E4274C"/><stop offset=".243" stop-color="#CF3E59"/><stop offset=".45" stop-color="#AB556F"/><stop offset=".7" stop-color="#75678F"/><stop offset=".984" stop-color="#0075B8"/><stop offset="1" stop-color="#0076BB"/></linearGradient><linearGradient id="F" x1="161.912" x2="645.286" y1="5.154" y2="267.296" gradientUnits="userSpaceOnUse"><stop offset="0" stop-color="#ED1846"/><stop offset=".087" stop-color="#E4274C"/><stop offset=".243" stop-color="#CF3E59"/><stop offset=".45" stop-color="#AB556F"/><stop offset=".7" stop-color="#75678F"/><stop offset=".984" stop-color="#0075B8"/><stop offset="1" stop-color="#0076BB"/></linearGradient><linearGradient id="G" x1="187.688" x2="657.627" y1="-22.633" y2="232.224" gradientUnits="userSpaceOnUse"><stop offset="0" stop-color="#ED1846"/><stop offset=".087" stop-color="#E4274C"/><stop offset=".243" stop-color="#CF3E59"/><stop offset=".45" stop-color="#AB556F"/><stop offset=".7" stop-color="#75678F"/><stop offset=".984" stop-color="#0075B8"/><stop offset="1" stop-color="#0076BB"/></linearGradient><linearGradient id="H" x1="205.832" x2="675.771" y1="-54.238" y2="200.619" gradientUnits="userSpaceOnUse"><stop offset="0" stop-color="#ED1846"/><stop offset=".087" stop-color="#E4274C"/><stop offset=".243" stop-color="#CF3E59"/><stop offset=".45" stop-color="#AB556F"/><stop offset=".7" stop-color="#75678F"/><stop offset=".984" stop-color="#0075B8"/><stop offset="1" stop-color="#0076BB"/></linearGradient><linearGradient id="I" x1="207.697" x2="691.07" y1="-91.564" y2="170.579" gradientUnits="userSpaceOnUse"><stop offset="0" stop-color="#ED1846"/><stop offset=".087" stop-color="#E4274C"/><stop offset=".243" stop-color="#CF3E59"/><stop offset=".45" stop-color="#AB556F"/><stop offset=".7" stop-color="#75678F"/><stop offset=".984" stop-color="#0075B8"/><stop offset="1" stop-color="#0076BB"/></linearGradient><linearGradient id="J" x1="225.614" x2="708.988" y1="-128.372" y2="133.771" gradientUnits="userSpaceOnUse"><stop offset="0" stop-color="#ED1846"/><stop offset=".087" stop-color="#E4274C"/><stop offset=".243" stop-color="#CF3E59"/><stop offset=".45" stop-color="#AB556F"/><stop offset=".7" stop-color="#75678F"/><stop offset=".984" stop-color="#0075B8"/><stop offset="1" stop-color="#0076BB"/></linearGradient><linearGradient id="K" x1="238.361" x2="721.734" y1="-150.167" y2="111.976" gradientUnits="userSpaceOnUse"><stop offset="0" stop-color="#ED1846"/><stop offset=".087" stop-color="#E4274C"/><stop offset=".243" stop-color="#CF3E59"/><stop offset=".45" stop-color="#AB556F"/><stop offset=".7" stop-color="#75678F"/><stop offset=".984" stop-color="#0075B8"/><stop offset="1" stop-color="#0076BB"/></linearGradient><linearGradient id="L" x1="261.291" x2="737.853" y1="-174.953" y2="83.496" gradientUnits="userSpaceOnUse"><stop offset="0" stop-color="#ED1846"/><stop offset=".087" stop-color="#E4274C"/><stop offset=".243" stop-color="#CF3E59"/><stop offset=".45" stop-color="#AB556F"/><stop offset=".7" stop-color="#75678F"/><stop offset=".984" stop-color="#0075B8"/><stop offset="1" stop-color="#0076BB"/></linearGradient><linearGradient id="M" x1="266.92" x2="750.293" y1="-214.988" y2="47.155" gradientUnits="userSpaceOnUse"><stop offset="0" stop-color="#ED1846"/><stop offset=".087" stop-color="#E4274C"/><stop offset=".243" stop-color="#CF3E59"/><stop offset=".45" stop-color="#AB556F"/><stop offset=".7" stop-color="#75678F"/><stop offset=".984" stop-color="#0075B8"/><stop offset="1" stop-color="#0076BB"/></linearGradient></defs><path fill="#FFF" d="M0 0h1100v325H0V0z"/><path fill="url(#a)" d="M113 95.65c-4.5 0-8.2 3.7-8.2 8.2 0 4.5 3.7 8.2 8.2 8.2 4.5 0 8.2-3.7 8.2-8.2 0-4.6-3.7-8.2-8.2-8.2z"/><path fill="url(#b)" d="M84.5 244.65c-4.5 0-8.2 3.7-8.2 8.2 0 4.5 3.7 8.2 8.2 8.2 4.5 0 8.2-3.7 8.2-8.2.1-4.5-3.6-8.2-8.2-8.2z"/><path fill="url(#c)" d="M302.5 76.55c-4.5 0-8.2 3.7-8.2 8.2 0 4.5 3.7 8.2 8.2 8.2 4.5 0 8.2-3.7 8.2-8.2 0-4.5-3.7-8.2-8.2-8.2z"/><path fill="url(#d)" d="M266.9 207.05c-4.5 0-8.2 3.7-8.2 8.2 0 4.5 3.7 8.2 8.2 8.2 4.5 0 8.2-3.7 8.2-8.2 0-4.5-3.7-8.2-8.2-8.2z"/><path fill="url(#e)" d="M189 258.25c15.5 0 31-3.8 44.7-11.1 10.3-5.4 19.5-12.8 27.2-21.5-3.6-2.1-6-6-6-10.4 0-2.7.9-5.2 2.4-7.2l-9.6-6.8-1.3 1.8c-13.2 18.7-34.7 29.8-57.4 29.8-38.8 0-70.3-31.6-70.3-70.3 0-38.8 31.6-70.4 70.3-70.4 22.7 0 44.1 11.1 57.4 29.8l1.3 1.8 20.8-14.7-1.3-1.8c-8.7-12.3-20.3-22.4-33.5-29.4-13.7-7.2-29.1-11.1-44.7-11.1-26.5 0-50.6 10.8-67.9 28.3 2.4 2.2 3.9 5.3 3.9 8.8 0 6.6-5.4 12-12 12-2.4 0-4.6-.7-6.5-1.9-8.4 14.3-13.3 30.9-13.3 48.6.1 52.8 43 95.7 95.8 95.7z"/><path fill="url(#f)" d="M281.9 99.55l10.9-7.7c-1.5-2-2.3-4.4-2.3-7.1 0-3.9 1.9-7.4 4.8-9.6-11.6-14.1-26-25.9-42.1-34.4-9.7-5.1-20-9.1-30.6-11.8-10.9-2.7-22.2-4.1-33.6-4.1-75.9 0-137.6 61.7-137.6 137.6 0 30.1 9.7 58 26.2 80.7 2-1.4 4.4-2.2 7-2.2 6.6 0 12 5.4 12 12 0 3.2-1.3 6.1-3.3 8.3 24.8 24.1 58.6 38.9 95.8 38.9 11.4 0 22.7-1.4 33.6-4.2 10.6-2.7 20.9-6.6 30.6-11.8 19-10.1 35.7-24.7 48.1-42.3l1.3-1.8-20.8-14.7-1.3 1.8c-21.1 29.7-55.3 47.5-91.6 47.5-61.9 0-112.2-50.3-112.2-112.2 0-61.9 50.3-112.2 112.2-112.2 36.3 0 70.5 17.7 91.6 47.5l1.3 1.8z"/><path fill="url(#g)" d="M189 150.55c-6.6 0-12 5.4-12 12s5.4 12 12 12 12-5.4 12-12c0-6.7-5.4-12-12-12z"/><path fill="url(#h)" d="M214.6 209.85c17.4-9.4 28.2-27.6 28.2-47.4 0-14.4-5.6-27.9-15.8-38.1-10.2-10.2-23.7-15.8-38.1-15.8-14.4 0-27.9 5.6-38.1 15.8-10.2 10.2-15.8 23.7-15.8 38.1 0 19.8 10.8 37.9 28.2 47.4l2 1.1 12.1-22.4-2-1.1c-9.2-5-14.9-14.6-14.9-25 0-15.7 12.7-28.4 28.4-28.4s28.4 12.7 28.4 28.4c0 10.4-5.7 20-14.9 25l-2 1.1 12.1 22.4 2.2-1.1z"/><path fill="url(#i)" d="M343 144.15h3.1c7 0 12.4-5.3 12.4-12.3v-2.2l-7.7-.7v2.9c0 2.8-2.1 5-4.9 5h-2.8c-2.8 0-4.9-2.2-4.9-5v-19.3c0-2.8 2.1-5 4.9-5h2.8c2.8 0 4.9 2.2 4.9 5v2.9l7.7-.7v-2.2c0-7-5.4-12.3-12.4-12.3H343c-7 0-12.4 5.3-12.4 12.3v19.3c0 7 5.4 12.3 12.4 12.3z"/><path fill="url(#j)" d="M382 100.25h-3.1c-7 0-12.4 5.3-12.4 12.3v19.3c0 7 5.4 12.3 12.4 12.3h3.1c7 0 12.4-5.3 12.4-12.3v-19.3c0-7-5.4-12.3-12.4-12.3zm4.7 31.6c0 2.8-2.1 5-4.9 5H379c-2.8 0-4.9-2.2-4.9-5v-19.3c0-2.8 2.1-5 4.9-5h2.8c2.8 0 4.9 2.2 4.9 5v19.3z"/><path fill="url(#k)" d="M410.5 114.15l.4 1.9 16.7 28.2h7v-44h-7.9v30.1l-.4-1.9-16.8-28.2h-6.9v44h7.9z"/><path fill="url(#l)" d="M441.4 144.25h8v-18.2h16.2v-7.6h-16.2v-10.7h20.1v-7.5h-28.1z"/><path fill="url(#m)" d="M476.6 100.25h7.9v44h-7.9z"/><path fill="url(#n)" d="M521.1 131.55v-18.6c0-7.2-5.6-12.7-12.8-12.7h-16v44h16c7.2 0 12.8-5.5 12.8-12.7zm-20.9 5.2v-29h7.9c2.9 0 5 2.3 5 5.2v18.6c0 2.9-2.1 5.2-5 5.2h-7.9z"/><path fill="url(#o)" d="M528.4 144.25h28.1v-7.5h-20.2v-10.7h16.2v-7.6h-16.2v-10.7h20.2v-7.5h-28.1z"/><path fill="url(#p)" d="M571.9 114.15l.4 1.8 16.7 28.2h7v-43.9h-7.9v30l-.4-1.8-16.8-28.2H564v43.9h7.9z"/><path fill="url(#q)" d="M604.3 107.75h10.3v36.4h7.9v-36.4h10.4v-7.5h-28.6z"/><path fill="url(#r)" d="M641.2 100.25h7.9v43.9h-7.9z"/><path fill="url(#s)" d="M670.1 100.25l-12.2 43.9h8.5l2.3-8.7h13.5l2.3 8.7h8.5l-12.3-43.9h-10.6zm.2 28.4l5-19.1.1-1.7.1 1.6 4.9 19.1h-10.1z"/><path fill="url(#t)" d="M709 100.25h-7.9v43.9h24.1v-7.5H709z"/><path fill="url(#u)" d="M752.8 100.25h-3.1c-7 0-12.4 5.3-12.4 12.3v19.3c0 7 5.4 12.3 12.4 12.3h3.1c7 0 12.4-5.3 12.4-12.3v-2.2l-7.7-.7v2.9c0 2.8-2.1 5-4.9 5h-2.8c-2.8 0-4.9-2.2-4.9-5v-19.3c0-2.8 2.1-5 4.9-5h2.8c2.8 0 4.9 2.2 4.9 5v2.9l7.7-.7v-2.2c.1-7-5.4-12.3-12.4-12.3z"/><path fill="url(#v)" d="M801.1 131.85v-19.3c0-7-5.4-12.3-12.4-12.3h-3.1c-7 0-12.4 5.3-12.4 12.3v19.3c0 7 5.4 12.3 12.4 12.3h3.1c7 0 12.4-5.3 12.4-12.3zm-7.7 0c0 2.8-2.1 5-4.9 5h-2.8c-2.8 0-4.9-2.2-4.9-5v-19.3c0-2.8 2.1-5 4.9-5h2.8c2.8 0 4.9 2.2 4.9 5v19.3z"/><path fill="url(#w)" d="M830.6 133.75l-.2 1.6-.1-1.6-9.7-33.5h-11.5v44h7.9v-34.3l.2 1.9 9.4 32.4h7.7l9.3-32.4.3-1.9v34.3h7.9v-44h-11.6z"/><path fill="url(#x)" d="M875.9 100.25h-16.4v44h7.9v-14.4h8.4c7.2 0 12.8-5.5 12.8-12.7v-4.2c.1-7.2-5.5-12.7-12.7-12.7zm4.9 16.9c0 2.9-2.1 5.2-5 5.2h-8.3v-14.6h8.3c2.9 0 5 2.3 5 5.2v4.2z"/><path fill="url(#y)" d="M924.4 131.75v-31.5h-7.8v31.5c0 2.9-2.1 5.1-5 5.1h-2.9c-2.9 0-5-2.2-5-5.1v-31.5h-7.8v31.5c0 7.1 5.5 12.5 12.6 12.5h3.1c7.2 0 12.8-5.4 12.8-12.5z"/><path fill="url(#z)" d="M932.3 107.75h10.4v36.5h7.9v-36.5H961v-7.5h-28.7z"/><path fill="url(#A)" d="M968.5 100.25h7.9v43.9h-7.9z"/><path fill="url(#B)" d="M992.1 114.15l.4 1.9 16.8 28.2h6.9v-44h-7.9v30.1l-.4-1.9-16.7-28.2h-7v44h7.9z"/><path fill="url(#C)" d="M1048.6 114.75v-2.2c0-7-5.4-12.3-12.4-12.3h-3.1c-7 0-12.4 5.3-12.4 12.3v19.3c0 7 5.4 12.3 12.4 12.3h1.8c3.5 0 6.5-1.5 8.5-4l2.2 3.4h3v-23.7h-14v7.3h6.3v4.6c0 2.8-2.1 5-4.9 5h-2.8c-2.8 0-4.9-2.2-4.9-5v-19.2c0-2.8 2.1-5 4.9-5h2.8c2.8 0 4.9 2.2 4.9 5v2.9l7.7-.7z"/><path fill="url(#D)" d="M353.6 159.05h-4.5c-10.4 0-18.5 7.9-18.5 18.3v28.6c0 10.4 8.1 18.3 18.5 18.3h4.5c10.4 0 18.5-7.9 18.5-18.3v-3.3l-11.4-1.1v4.3c0 4.2-3.1 7.4-7.2 7.4h-4.2c-4.2 0-7.2-3.3-7.2-7.4v-28.6c0-4.2 3.1-7.4 7.2-7.4h4.2c4.2 0 7.2 3.3 7.2 7.4v4.3l11.4-1.1v-3.3c-.1-10.2-8.1-18.1-18.5-18.1z"/><path fill="url(#E)" d="M429.4 159.05h-4.5c-10.4 0-18.5 7.9-18.5 18.3v28.6c0 10.4 8.1 18.3 18.5 18.3h4.5c10.4 0 18.5-7.9 18.5-18.3v-28.6c0-10.4-8.1-18.3-18.5-18.3zm7.1 46.9c0 4.2-3.1 7.4-7.2 7.4h-4.2c-4.2 0-7.2-3.3-7.2-7.4v-28.6c0-4.2 3.1-7.4 7.2-7.4h4.2c4.2 0 7.2 3.3 7.2 7.4v28.6z"/><path fill="url(#F)" d="M517.9 203.65l-.6-2.7-24.9-41.9h-10.3v65.2h11.7v-44.6l.6 2.8 24.9 41.8h10.3v-65.2h-11.7z"/><path fill="url(#G)" d="M574.5 177.95v-.5c0-4.2 3.1-7.4 7.2-7.4h2.8c4.2 0 7.2 3.3 7.2 7.4v3.2l11.4-1.1v-2.1c0-10.4-8.1-18.3-18.5-18.3h-3.2c-10.4 0-18.5 7.9-18.5 18.3v.5c0 24.4 29.2 13.8 29.2 27.3v.8c0 4.2-3.1 7.4-7.2 7.4h-3.7c-4.2 0-7.2-3.3-7.2-7.4v-3.2l-11.4 1.1v2.1c0 10.4 8.1 18.3 18.5 18.3h4.1c10.4 0 18.5-7.9 18.5-18.3v-.8c-.1-23.6-29.2-14.6-29.2-27.3z"/><path fill="url(#H)" d="M661.6 159.05h-4.5c-10.4 0-18.5 7.9-18.5 18.3v28.6c0 10.4 8.1 18.3 18.5 18.3h4.5c10.4 0 18.5-7.9 18.5-18.3v-28.6c-.1-10.4-8.1-18.3-18.5-18.3zm7 46.9c0 4.2-3.1 7.4-7.2 7.4h-4.2c-4.2 0-7.2-3.3-7.2-7.4v-28.6c0-4.2 3.1-7.4 7.2-7.4h4.2c4.2 0 7.2 3.3 7.2 7.4v28.6z"/><path fill="url(#I)" d="M758.5 181.35v-3.5c0-10.7-8.3-18.8-19-18.8h-24.2v65.2H727v-24.1h7.6l12.4 24.1h12.9l-13.3-25.4c7.1-2.7 11.9-9.3 11.9-17.5zm-19.1 7.6h-12.3v-18.7h12.3c4.3 0 7.5 3.4 7.5 7.6v3.4c-.1 4.4-3.3 7.7-7.5 7.7z"/><path fill="url(#J)" d="M786.9 170.25h15.3v54H814v-54h15.3v-11.2h-42.4z"/><path fill="url(#K)" d="M862.8 159.05h11.7v65.2h-11.7z"/><path fill="url(#L)" d="M939.9 205.75c0 4.2-3.1 7.5-7.3 7.5h-4.2c-4.2 0-7.3-3.3-7.3-7.5v-46.6h-11.6v46.6c0 10.6 8.2 18.5 18.7 18.5h4.6c10.6 0 18.7-8 18.7-18.5v-46.6h-11.6v46.6z"/><path fill="url(#M)" d="M1017 208.75l-.2 2.4-.2-2.4-14.3-49.7h-17.2v65.2h11.8v-50.7l.3 2.8 13.9 47.9h11.4l13.8-47.9.4-2.8v50.7h11.8v-65.2h-17.2z"/></svg>