<svg xmlns="http://www.w3.org/2000/svg" role="img" xmlns:xlink="http://www.w3.org/1999/xlink" viewBox="-0.81 2.31 178.75 122.25"><title>Cortus S.A.S. (member) logo</title><defs><path d="M22.70313-44.21094c5.44921 0 9.67968 1.4375 12.6875 4.3086 3.0078 2.87109 4.67968 6.1328 5.0078 9.78515h-5.67968c-.64453-2.77343-1.92969-4.96875-3.85547-6.59375-1.92187-1.6211-4.6211-2.42968-8.09765-2.42968-4.23829 0-7.66407 1.48828-10.26954 4.46874-2.60937 2.97657-3.91015 7.54297-3.91015 13.69532 0 5.03906 1.17578 9.125 3.52734 12.26172 2.35547 3.1328 5.86328 4.69922 10.53516 4.69922 4.29687 0 7.5664-1.64844 9.8125-4.94922 1.1914-1.73828 2.07812-4.02344 2.66406-6.85547h5.6875c-.50781 4.53125-2.1875 8.32812-5.03906 11.39843-3.41797 3.69141-8.03125 5.53516-13.82813 5.53516-5 0-9.20312-1.51172-12.60156-4.54297-4.47266-4.0039-6.70703-10.1836-6.70703-18.54297 0-6.34765 1.67969-11.55078 5.03906-15.61328 3.63281-4.41406 8.64453-6.625 15.02735-6.625zm0 0" id="a"/><path d="M16.32031-3.39844c3.4961 0 5.89063-1.32422 7.1914-3.96875 1.29688-2.64844 1.94923-5.59375 1.94923-8.83594 0-2.92968-.46875-5.3125-1.40625-7.14843C22.5703-26.2422 20.0078-27.6875 16.375-27.6875c-3.22266 0-5.5625 1.23438-7.03125 3.69531-1.46484 2.46094-2.19531 5.42969-2.19531 8.90625 0 3.33985.73437 6.1211 2.19531 8.34766 1.46484 2.22656 3.78906 3.33984 6.97656 3.33984zm.20313-28.88672c4.04297 0 7.46093 1.34766 10.2539 4.04297 2.79297 2.69532 4.19141 6.66016 4.19141 11.89453 0 5.0586-1.23438 9.23829-3.69531 12.53907C24.8125-.50781 20.99609 1.14063 15.8203 1.14063c-4.3164 0-7.74218-1.45704-10.28125-4.37891C3-6.15625 1.72656-10.07813 1.72656-15c0-5.27344 1.33985-9.47266 4.01563-12.59766 2.67578-3.125 6.26953-4.6875 10.78125-4.6875zm0 0" id="b"/><path d="M4.01563-31.375h5.0078v5.41797c.41016-1.05469 1.41407-2.33985 3.01563-3.85156 1.60157-1.51563 3.44922-2.26954 5.53907-2.26954.09765 0 .26562.00782.5.02735.23437.01953.6328.0586 1.19921.11719v5.5664c-.3125-.0586-.60156-.09765-.86328-.11718-.26562-.01954-.55468-.03126-.86718-.03126-2.65626 0-4.69532.85547-6.1211 2.56641C10-22.24219 9.28906-20.27344 9.28906-18.04687V0H4.01563zm0 0" id="c"/><path d="M4.92188-40.13672h5.33203v8.76172h5.01172v4.30469H10.2539v20.47656c0 1.09375.37109 1.82813 1.11328 2.19922.41015.21484 1.09375.32422 2.05078.32422.2539 0 .52734-.00781.82031-.01563.29297-.01172.63672-.03515 1.02735-.07422V0c-.60547.17578-1.23829.30469-1.89063.38281C12.71875.46094 12.01172.5 11.25.5 8.78906.5 7.11719-.13281 6.24219-1.39063c-.8789-1.26171-1.32031-2.89843-1.32031-4.90625V-27.0703h-4.25V-31.375h4.25zm0 0" id="d"/><path d="M9.14063-31.375v20.82813c0 1.60156.2539 2.91015.76171 3.92578.9375 1.875 2.6836 2.8125 5.2461 2.8125 3.67187 0 6.17187-1.64063 7.5-4.92188.72265-1.75781 1.08203-4.16797 1.08203-7.23828V-31.375h5.27344V0h-4.98047l.0586-4.6289c-.6836 1.1914-1.53516 2.19921-2.55079 3.01952C19.51953.03126 17.07812.85156 14.21094.85156c-4.47266 0-7.52344-1.4961-9.14063-4.48437C4.19141-5.23437 3.75-7.375 3.75-10.04688V-31.375zm0 0" id="e"/><path d="M7-9.84375c.15625 1.75781.59766 3.10547 1.32031 4.04297C9.64844-4.10156 11.95313-3.25 15.23438-3.25c1.95312 0 3.67187-.42578 5.15625-1.27734C21.875-5.375 22.61718-6.6875 22.61718-8.46875c0-1.34766-.59375-2.3711-1.78907-3.07422-.76171-.42969-2.26562-.92578-4.5078-1.4961l-4.19141-1.05468C9.45313-14.75781 7.48047-15.5 6.21094-16.32031 3.9453-17.7461 2.8125-19.71875 2.8125-22.23438c0-2.96874 1.07031-5.375 3.20703-7.21093 2.14063-1.83594 5.01563-2.75 8.6289-2.75 4.72657 0 8.13282 1.38281 10.22657 4.15625 1.3086 1.75781 1.9414 3.65625 1.90234 5.6875h-4.98046c-.09766-1.1914-.51563-2.27735-1.25782-3.2539-1.21093-1.38673-3.3125-2.08204-6.30078-2.08204-1.99219 0-3.5.38281-4.52734 1.14453-1.02344.76172-1.53907 1.76953-1.53907 3.01953 0 1.36719.67579 2.46094 2.02344 3.28125.78125.48828 1.9336.91407 3.45703 1.28907l3.48828.84765c3.78907.91797 6.32813 1.8086 7.6172 2.66797 2.05077 1.34766 3.07421 3.46484 3.07421 6.35547 0 2.79297-1.0586 5.20703-3.17969 7.23828C22.53516.1875 19.3047 1.20313 14.96875 1.20313c-4.66797 0-7.97266-1.0625-9.91406-3.1797-1.94531-2.12109-2.98438-4.74218-3.1211-7.86718zm0 0" id="f"/><path d="M8.3789-13.88672c.13673 2.4414.71485 4.42578 1.73048 5.94922 1.93359 2.85156 5.33984 4.27344 10.22265 4.27344 2.1875 0 4.17969-.3125 5.97656-.9375 3.47657-1.21094 5.21485-3.375 5.21485-6.5 0-2.34375-.73438-4.01563-2.19532-5.01172-1.48437-.97656-3.8125-1.82422-6.97656-2.55078l-5.82812-1.3164c-3.8086-.85938-6.5039-1.8086-8.08594-2.83985-2.73438-1.79688-4.10156-4.48438-4.10156-8.0586 0-3.86718 1.33594-7.04296 4.01562-9.51953 2.67578-2.48047 6.46094-3.72265 11.36719-3.72265 4.51172 0 8.34375 1.08984 11.4961 3.26562 3.15624 2.17969 4.73046 5.66016 4.73046 10.44531h-5.47656c-.29297-2.30468-.91797-4.07421-1.875-5.30078-1.77734-2.2461-4.79688-3.3711-9.05469-3.3711-3.4375 0-5.90625.72266-7.41015 2.16798C10.625-35.46875 9.875-33.78906 9.875-31.875c0 2.10938.875 3.65234 2.63281 4.6289 1.15235.625 3.76172 1.40626 7.82422 2.34376l6.03516 1.3789c2.91015.66407 5.15625 1.57032 6.73828 2.72266 2.73437 2.01172 4.10156 4.9336 4.10156 8.76172 0 4.76562-1.73437 8.17187-5.19922 10.22265-3.46875 2.05079-7.4961 3.07422-12.08593 3.07422-5.35157 0-9.53907-1.36719-12.57032-4.10156-3.02734-2.71484-4.50781-6.39453-4.45312-11.04297zm0 0" id="g"/><path d="M5.125-6.38672h6.125V0H5.125zm0 0" id="h"/><path d="M26.66016-17.63672L20.125-36.64844l-6.9414 19.01172zm-9.58204-25.40234h6.59376L39.28905 0h-6.39062l-4.36328-12.89063H11.51562L6.85548 0H.8789zm0 0" id="i"/></defs><use y="50" xlink:href="#a"/><use x="43.33" y="50" xlink:href="#b"/><use x="76.699" y="50" xlink:href="#c"/><use x="96.68" y="50" xlink:href="#d"/><use x="113.35" y="50" xlink:href="#e"/><use x="146.719" y="50" xlink:href="#f"/><g><use y="120" xlink:href="#g"/><use x="40.02" y="120" xlink:href="#h"/><use x="56.689" y="120" xlink:href="#i"/><use x="96.709" y="120" xlink:href="#h"/><use x="113.379" y="120" xlink:href="#g"/><use x="153.398" y="120" xlink:href="#h"/></g></svg>