<svg xmlns="http://www.w3.org/2000/svg" role="img" viewBox="108.25 327.75 611.00 138.50"><title>Country Garden Venture Capital logo</title><defs><style>.cls-2{fill-rule:evenodd;fill:#949fad}</style></defs><path fill="#1a6bb4" fill-rule="evenodd" d="M223.51 397.41a46 46 0 0 1-44.7 45.94v11.59a57.62 57.62 0 0 0 56.29-57.53 46 46 0 0 1 44.69-45.94v-11.59a57.62 57.62 0 0 0-56.28 57.53zm115.09 0v-5.8h-56.28v11.59h44.34l-.23 1.46a46.33 46.33 0 0 1-44.12 38.69v11.59a57.61 57.61 0 0 0 56.29-57.53zm-206.37 5.8a45.68 45.68 0 0 1 44.06-51.47v-11.86A57.61 57.61 0 0 0 120 397.41c0 1.87.1 3.82.3 5.8z"/><path d="M384.66 442.36A6.52 6.52 0 0 0 387 444a7.89 7.89 0 0 0 3.11.59 8.36 8.36 0 0 0 2.49-.36 6 6 0 0 0 2-1.06 5.28 5.28 0 0 0 1.38-1.69 6.18 6.18 0 0 0 .65-2.28h-2.19a4.14 4.14 0 0 1-.41 1.51 3.48 3.48 0 0 1-.9 1.12 3.74 3.74 0 0 1-1.34.69 5.89 5.89 0 0 1-1.72.24 5.25 5.25 0 0 1-2.17-.44 4.53 4.53 0 0 1-1.65-1.26 5.7 5.7 0 0 1-1.07-2 9.93 9.93 0 0 1-.36-2.78 9.44 9.44 0 0 1 .37-2.78 5.79 5.79 0 0 1 1.07-2 4.39 4.39 0 0 1 1.67-1.25 5.59 5.59 0 0 1 2.2-.42 5.73 5.73 0 0 1 1.65.23 4.19 4.19 0 0 1 1.34.67 3.35 3.35 0 0 1 .93 1.05 3.2 3.2 0 0 1 .4 1.38h2.19A5.38 5.38 0 0 0 396 431a5.66 5.66 0 0 0-1.44-1.63 6.4 6.4 0 0 0-2-1.05 7.93 7.93 0 0 0-2.42-.37 7.85 7.85 0 0 0-3.09.59 6.63 6.63 0 0 0-2.38 1.68 7.52 7.52 0 0 0-1.51 2.63 11.65 11.65 0 0 0 0 6.9 7.51 7.51 0 0 0 1.5 2.61zm23.41-8.36a4.64 4.64 0 0 0-1.72-1.19 6.4 6.4 0 0 0-4.53 0 4.68 4.68 0 0 0-1.72 1.19 5.39 5.39 0 0 0-1.11 1.93 8.6 8.6 0 0 0 0 5.18 5.55 5.55 0 0 0 1.12 1.92 4.71 4.71 0 0 0 1.73 1.19 6.29 6.29 0 0 0 4.47 0 4.73 4.73 0 0 0 1.73-1.19 5.51 5.51 0 0 0 1.1-1.92 7.81 7.81 0 0 0 .4-2.59 8 8 0 0 0-.38-2.57 5.39 5.39 0 0 0-1.1-1.92zm-.92 6.44a4.16 4.16 0 0 1-.67 1.41 2.74 2.74 0 0 1-1 .84 3.38 3.38 0 0 1-2.71 0 2.74 2.74 0 0 1-1-.84 4.06 4.06 0 0 1-.69-1.41 7.74 7.74 0 0 1 0-3.89 4.07 4.07 0 0 1 .69-1.41 2.81 2.81 0 0 1 1-.84 3.45 3.45 0 0 1 2.71 0 2.81 2.81 0 0 1 1 .84 4.17 4.17 0 0 1 .67 1.41 7.74 7.74 0 0 1 0 3.89zm34.65-7.75v11.77h.8s1.26.17 1.26-1.84v-6.52a4.42 4.42 0 0 1 1.25-1.24 2.75 2.75 0 0 1 1.48-.42 4.44 4.44 0 0 1 1.26.14v-2.08l-.5-.07h-.44a3.74 3.74 0 0 0-3.06 1.89v-1.61zm59.82 9.8V436a4.48 4.48 0 0 1 1.25-1.24 2.79 2.79 0 0 1 1.49-.42 4.32 4.32 0 0 1 1.25.15v-2.09l-.49-.07h-.44a3.74 3.74 0 0 0-3.06 1.89v-1.77h-2.06v11.93h.79s1.27.12 1.27-1.89zm26.27 1.16a3.82 3.82 0 0 0 1.11-1.18 4.17 4.17 0 0 0 .57-1.61h-2.18a1.69 1.69 0 0 1-.27.92 2.29 2.29 0 0 1-.66.67 3.26 3.26 0 0 1-.93.4 4 4 0 0 1-1 .14 3.59 3.59 0 0 1-1.32-.24 3.12 3.12 0 0 1-1.08-.73 3.89 3.89 0 0 1-.76-1.24A6.2 6.2 0 0 1 521 439a6.15 6.15 0 0 1 0-1.63 5.12 5.12 0 0 1 .42-1.48 3.37 3.37 0 0 1 .73-1s.08-.06.12-.11l.1-.09a2.51 2.51 0 0 1 .73-.43 3.34 3.34 0 0 1 1.18-.2 3.24 3.24 0 0 1 1.18.21 2.9 2.9 0 0 1 1 .63 3.4 3.4 0 0 1 .72 1 6.29 6.29 0 0 1 .41 1.46H522a5.4 5.4 0 0 0 0 1.63h7.77v-.5a8.16 8.16 0 0 0-.38-2.57 5.33 5.33 0 0 0-1.09-1.91 4.77 4.77 0 0 0-1.73-1.21 5.9 5.9 0 0 0-2.27-.42 5.77 5.77 0 0 0-2.22.43 4.91 4.91 0 0 0-1.73 1.21 5.52 5.52 0 0 0-1.12 1.91 8.33 8.33 0 0 0 0 5.15 5.53 5.53 0 0 0 1.16 1.92 5 5 0 0 0 1.8 1.19 6.35 6.35 0 0 0 2.32.41 7 7 0 0 0 1.86-.25 5 5 0 0 0 1.52-.7zm-78.46-10.96l3.83 10.16.94-2.64-2.54-7.52h-2.23z" class="cls-2"/><path d="M451.29 447.16a3.62 3.62 0 0 1-.49 0 2.19 2.19 0 0 1-.5-.14v1.92a3.17 3.17 0 0 0 .63.13h.73a2.65 2.65 0 0 0 1.4-.35 3.39 3.39 0 0 0 1-1 8.06 8.06 0 0 0 .82-1.5c.25-.58.5-1.22.76-1.91l4.4-11.65h-2.23l-4 11.65q-.98 2.85-2.52 2.85z" class="cls-2"/><path fill="#949fad" d="M423.45 432.69h2.06v11.94h-2.06zm108.63 0h2.06v11.94h-2.06z"/><path d="M439.06 442.88a1.59 1.59 0 0 1-.47-.06.73.73 0 0 1-.37-.25 1.7 1.7 0 0 1-.22-.57 4.73 4.73 0 0 1-.08-1v-6.7h1c.32-.07.8-.33.93-1.27v-.33h-1.91v-2.91h-2.06v2.91h-1.92v1.6h1.92v6.63a11.15 11.15 0 0 0 .08 1.56 2.73 2.73 0 0 0 .36 1.12 1.86 1.86 0 0 0 .83.67 4 4 0 0 0 1.47.22 6.62 6.62 0 0 0 1.48-.15v-1.55l-.5.06zm176.63-10.45a3.75 3.75 0 0 0-3.05 1.89v-1.77h-2.06v11.94h.8s1.26.17 1.26-1.84v-6.52a4.45 4.45 0 0 1 1.26-1.24 2.75 2.75 0 0 1 1.48-.41 4.39 4.39 0 0 1 1.26.14v-2.08a4.66 4.66 0 0 0-.5-.07zm26.21-.82a4.46 4.46 0 0 1 1.67-1.25 5.46 5.46 0 0 1 2.2-.43 5.66 5.66 0 0 1 1.64.24 4.23 4.23 0 0 1 1.35.67 3.33 3.33 0 0 1 .92 1.05 3.11 3.11 0 0 1 .41 1.38h2.19a5.29 5.29 0 0 0-.67-2.13 5.54 5.54 0 0 0-1.42-1.63 6.65 6.65 0 0 0-2-1.05 7.8 7.8 0 0 0-2.41-.37 8 8 0 0 0-3.1.59 6.69 6.69 0 0 0-2.36 1.68 7.33 7.33 0 0 0-1.51 2.63 10.51 10.51 0 0 0-.53 3.45 10.72 10.72 0 0 0 .53 3.46 7.41 7.41 0 0 0 1.5 2.63 6.49 6.49 0 0 0 2.36 1.68 7.84 7.84 0 0 0 3.11.59 8.18 8.18 0 0 0 2.49-.37 6.16 6.16 0 0 0 2-1.05 5.35 5.35 0 0 0 1.38-1.69 6 6 0 0 0 .65-2.28h-2.19a4.14 4.14 0 0 1-.41 1.51 3.35 3.35 0 0 1-.9 1.12 3.8 3.8 0 0 1-1.34.69 5.91 5.91 0 0 1-1.73.24 5.2 5.2 0 0 1-2.16-.44 4.66 4.66 0 0 1-1.66-1.26 5.92 5.92 0 0 1-1.06-2 9.71 9.71 0 0 1-.36-2.78 9.44 9.44 0 0 1 .37-2.78 5.77 5.77 0 0 1 1.04-2.1zm64.1-1.38v14.25h.9c.3 0 1.16-.18 1.16-1.84v-14.25h-.9c-.32.01-1.16.17-1.16 1.84zM558.77 440.8l.99 2.64 5.84-15.05h-2.27l-4.56 12.41zm-7.91-12.41l6.27 16.1h1.92l-6.05-16.1h-2.14zm30.48 4.45h-2.06v11.65h2.06v-11.65zm-5.6 1.04a4.6 4.6 0 0 0-1.73-1.2 5.81 5.81 0 0 0-2.27-.42 5.66 5.66 0 0 0-2.22.43 4.92 4.92 0 0 0-1.73 1.21 5.48 5.48 0 0 0-1.12 1.91 7.53 7.53 0 0 0-.4 2.56 7.61 7.61 0 0 0 .41 2.59 5.4 5.4 0 0 0 1.16 1.92 4.83 4.83 0 0 0 1.79 1.19 6.26 6.26 0 0 0 2.33.41 6.75 6.75 0 0 0 1.86-.25 4.89 4.89 0 0 0 1.53-.73 4.12 4.12 0 0 0 1.11-1.18 4.2 4.2 0 0 0 .57-1.61h-2.18a1.79 1.79 0 0 1-.27.91 2.34 2.34 0 0 1-.67.67 3.21 3.21 0 0 1-.93.4 4 4 0 0 1-1 .14 3.49 3.49 0 0 1-1.33-.24 3 3 0 0 1-1.08-.73 3.63 3.63 0 0 1-.76-1.24 6.14 6.14 0 0 1-.37-1.76 6.15 6.15 0 0 1 0-1.62 5 5 0 0 1 .41-1.48 3.54 3.54 0 0 1 .73-1l.12-.1.11-.1a2.75 2.75 0 0 1 .73-.43 3.3 3.3 0 0 1 1.17-.2 3.24 3.24 0 0 1 1.18.21 3 3 0 0 1 1 .63 3.37 3.37 0 0 1 .72 1 5.67 5.67 0 0 1 .41 1.46h-5.41a5.42 5.42 0 0 0 0 1.62h7.64v-.5a8 8 0 0 0-.38-2.57 5.38 5.38 0 0 0-1.13-1.9zm51.04 0a4.61 4.61 0 0 0-1.72-1.2 5.81 5.81 0 0 0-2.28-.42 5.65 5.65 0 0 0-2.22.43 5 5 0 0 0-1.74 1.21 5.49 5.49 0 0 0-1.12 1.91 7.53 7.53 0 0 0-.41 2.56 7.34 7.34 0 0 0 .42 2.59 5.3 5.3 0 0 0 1.16 1.92 4.84 4.84 0 0 0 1.8 1.19 6.22 6.22 0 0 0 2.32.41 6.73 6.73 0 0 0 1.86-.25 4.88 4.88 0 0 0 1.53-.73 4 4 0 0 0 1.67-2.79h-2.17a1.63 1.63 0 0 1-.27.91 2.2 2.2 0 0 1-.67.67 3 3 0 0 1-.92.4 4 4 0 0 1-1 .14 3.49 3.49 0 0 1-1.33-.24 3 3 0 0 1-1.08-.73 3.61 3.61 0 0 1-.76-1.24 6.14 6.14 0 0 1-.37-1.76 6.16 6.16 0 0 1 0-1.62 5.44 5.44 0 0 1 .42-1.48 3.77 3.77 0 0 1 .72-1s.09-.07.14-.1l.1-.1a2.57 2.57 0 0 1 .73-.43 3.29 3.29 0 0 1 1.17-.2 3.26 3.26 0 0 1 1.18.21 3 3 0 0 1 1 .63 3.37 3.37 0 0 1 .71 1 5.67 5.67 0 0 1 .43 1.46h-5.48a5.4 5.4 0 0 0 0 1.62h7.7v-.5a7.88 7.88 0 0 0-.38-2.57 5.3 5.3 0 0 0-1.14-1.9zm63.03 9.12a1.85 1.85 0 0 1-.47-.06.7.7 0 0 1-.36-.26 1.34 1.34 0 0 1-.23-.56 4.9 4.9 0 0 1-.07-1v-6.73h1c.33-.07.8-.33.93-1.27v-.34h-1.9v-2.91h-2.07v2.91h-1.94v1.61h1.91v6.63a13.34 13.34 0 0 0 .08 1.56 2.62 2.62 0 0 0 .37 1.12 1.7 1.7 0 0 0 .83.68 3.92 3.92 0 0 0 1.47.23 6.32 6.32 0 0 0 1.49-.16v-1.55l-.5.05zm-94.59 0a1.93 1.93 0 0 1-.47-.06.71.71 0 0 1-.35-.26 1.34 1.34 0 0 1-.23-.56 4.89 4.89 0 0 1-.07-1v-6.73h1c.32-.07.79-.33.93-1.27v-.34h-1.9v-2.91H592v2.91h-1.9v1.61h1.9v6.63a13.36 13.36 0 0 0 .08 1.56 2.63 2.63 0 0 0 .37 1.12 1.75 1.75 0 0 0 .83.68 3.9 3.9 0 0 0 1.47.23 6.26 6.26 0 0 0 1.48-.16v-1.55l-.49.05zm-10.41-10.45a4.08 4.08 0 0 0-1.81.45 4.9 4.9 0 0 0-.69.44v1.78a3.57 3.57 0 0 1 2.23-.93 2 2 0 0 1 1.65.62 3.28 3.28 0 0 1 .51 2.07v7.52h.93c.3 0 1.16-.18 1.16-1.84v-5.79c-.01-2.87-1.34-4.32-3.98-4.32zm20.64 11.94h.91c.3 0 1.15-.18 1.15-1.84v-10.1h-2.06zm-4.17-1.88a1.43 1.43 0 0 1-.67-.47 2.1 2.1 0 0 1-.38-.83 5.26 5.26 0 0 1-.12-1.24v-7.52H598v7.63c0 2.87 1.31 4.31 3.94 4.31a4.17 4.17 0 0 0 2.49-.84v-1.72a3.48 3.48 0 0 1-2.18.83 3 3 0 0 1-.97-.15zm62.4-9.18a3.43 3.43 0 0 0-1.49-.69 9.53 9.53 0 0 0-2-.19q-4.85 0-5.07 3.62h2.1q.1-2 2.85-2a5 5 0 0 1 1.61.21 1.61 1.61 0 0 1 .83.61 2 2 0 0 1 .31 1v1.33h-1q-7 0-7 4.1a3.17 3.17 0 0 0 .3 1.38 3.28 3.28 0 0 0 .84 1.06 4.08 4.08 0 0 0 1.25.68 4.88 4.88 0 0 0 1.57.25 6.24 6.24 0 0 0 3.12-.79v-1.65a4.78 4.78 0 0 1-.55.34 5.12 5.12 0 0 1-1 .34 4.57 4.57 0 0 1-1 .12 3 3 0 0 1-1.77-.48 1.58 1.58 0 0 1-.67-1.37q0-2.46 4.52-2.45h1.44v5.66h.92c.3 0 1.15-.18 1.15-1.84V437a6 6 0 0 0-.33-2.18 3.18 3.18 0 0 0-.93-1.39zm12.75.77a4.17 4.17 0 0 0-1.51-1.22 4.73 4.73 0 0 0-2.06-.43 4 4 0 0 0-1.79.41 4.8 4.8 0 0 0-1.54 1.26v-1.38h-2.06V449h.9c.29 0 1.15-.18 1.15-1.84v-10.94a4 4 0 0 1 3.17-2 2.34 2.34 0 0 1 2.07 1.12 5.84 5.84 0 0 1 .74 3.26 8.67 8.67 0 0 1-.21 2 4.66 4.66 0 0 1-.58 1.42 2.43 2.43 0 0 1-2.12 1.15 3.79 3.79 0 0 1-2.06-.61v1.75a3.65 3.65 0 0 0 .43.22 5.15 5.15 0 0 0 1.76.29 4.46 4.46 0 0 0 2-.44 4.77 4.77 0 0 0 1.57-1.25 6.21 6.21 0 0 0 1-2 8.24 8.24 0 0 0 .37-2.56 8.88 8.88 0 0 0-.32-2.46 5.79 5.79 0 0 0-.91-1.91zm25.4-.77a3.49 3.49 0 0 0-1.49-.69 9.57 9.57 0 0 0-2-.19q-4.85 0-5.07 3.62h2.1c.06-1.32 1-2 2.85-2a5 5 0 0 1 1.61.21 1.64 1.64 0 0 1 .83.61 2 2 0 0 1 .31 1v1.33h-1q-7 0-7 4.1a3.08 3.08 0 0 0 .3 1.38 3.13 3.13 0 0 0 .84 1.06 3.88 3.88 0 0 0 1.25.68 4.79 4.79 0 0 0 1.57.25 6.15 6.15 0 0 0 3.15-.8v-1.66a4.77 4.77 0 0 1-.57.37 5.09 5.09 0 0 1-1 .34 4.5 4.5 0 0 1-1 .12 3 3 0 0 1-1.77-.48 1.56 1.56 0 0 1-.67-1.37q0-2.46 4.51-2.45H701v5.66h.91c.3 0 1.16-.18 1.16-1.84V437a6 6 0 0 0-.33-2.18 3.28 3.28 0 0 0-.91-1.39zm-164.22-1.02a4.07 4.07 0 0 0-1.83.43 4.36 4.36 0 0 0-.73.48v1.79a3.55 3.55 0 0 1 2.27-1 2 2 0 0 1 1.65.62 3.28 3.28 0 0 1 .51 2.07v7.81h.93c.3 0 1.16-.18 1.16-1.84v-6.07c.01-2.86-1.32-4.29-3.96-4.29zm-21.11-4.17h-2.07v5.34a4.69 4.69 0 0 0-3.21-1.18 4.43 4.43 0 0 0-2 .43 4.49 4.49 0 0 0-1.55 1.22 6 6 0 0 0-1 2 8.2 8.2 0 0 0-.38 2.59 9.21 9.21 0 0 0 .31 2.47 5.82 5.82 0 0 0 .92 1.9 4.18 4.18 0 0 0 1.48 1.19 4.71 4.71 0 0 0 2.07.43 4 4 0 0 0 2.35-.78v-1.76a4 4 0 0 1-.53.4 3.11 3.11 0 0 1-1.66.5 2.37 2.37 0 0 1-2.07-1.11 5.85 5.85 0 0 1-.76-3.27 9 9 0 0 1 .21-2 4.84 4.84 0 0 1 .59-1.43 2.68 2.68 0 0 1 .92-.86 2.54 2.54 0 0 1 1.21-.28 4.22 4.22 0 0 1 3.08 1.42v8.89h.91c.3 0 1.16-.18 1.16-1.85zm-30.13 13.02a3 3 0 0 0 .3 1.38 3.16 3.16 0 0 0 .84 1.06 4.1 4.1 0 0 0 1.26.69 4.86 4.86 0 0 0 1.57.24 6.18 6.18 0 0 0 3.16-.81v-1.67a4.72 4.72 0 0 1-.59.38 5.34 5.34 0 0 1-1 .34 4.58 4.58 0 0 1-1 .12 3 3 0 0 1-1.78-.48 1.55 1.55 0 0 1-.67-1.37q0-2.45 4.51-2.45h1.44v5.66h.92c.3 0 1.16-.18 1.16-1.85v-5.67a6.17 6.17 0 0 0-.34-2.18 3.18 3.18 0 0 0-1-1.35 3.53 3.53 0 0 0-1.49-.69 9.43 9.43 0 0 0-2-.19q-4.84 0-5.08 3.62h2.1c.07-1.32 1-2 2.86-2a4.77 4.77 0 0 1 1.6.21 1.64 1.64 0 0 1 .84.61 2 2 0 0 1 .31 1v1.33h-1q-6.92-.03-6.92 4.07zm-3.37 2.8c.33 0 1.11-.25 1.11-1.84v-6.38h-7v1.93H482v6.3z" class="cls-2"/><path d="M473.64 443.74a8.14 8.14 0 0 0 3.19.6A7.77 7.77 0 0 0 481 443v-2a4.92 4.92 0 0 1-1.17.74 7.39 7.39 0 0 1-3.06.76 5.58 5.58 0 0 1-2.25-.44 5 5 0 0 1-1.75-1.28 6 6 0 0 1-1.13-2.05 9.62 9.62 0 0 1 0-5.5 6 6 0 0 1 1.13-2 4.64 4.64 0 0 1 1.74-1.25 5.66 5.66 0 0 1 2.25-.43 7.48 7.48 0 0 1 1.89.22 4.54 4.54 0 0 1 1.47.66 3.23 3.23 0 0 1 1 1 3.16 3.16 0 0 1 .43 1.4h2.21a4.85 4.85 0 0 0-.67-2.13 5.54 5.54 0 0 0-1.49-1.63 7.18 7.18 0 0 0-2.17-1 9.3 9.3 0 0 0-2.67-.37 8.14 8.14 0 0 0-3.13.59 6.86 6.86 0 0 0-2.43 1.67 7.53 7.53 0 0 0-1.59 2.62 10.76 10.76 0 0 0 0 6.86 7.47 7.47 0 0 0 1.58 2.64 7.1 7.1 0 0 0 2.45 1.66zm-42.78-6.92v7.81h.93c.29 0 1.16-.18 1.16-1.84v-6.07q0-4.31-4-4.31a4 4 0 0 0-1.82.43 4.83 4.83 0 0 0-.78.51v1.78a3.63 3.63 0 0 1 2.32-1 2 2 0 0 1 1.65.62 3.36 3.36 0 0 1 .54 2.07zm-12.28 7.81h.91c.29 0 1.16-.18 1.16-1.84v-10.1h-2.07zm-7.45-11.94v7.63q0 4.31 4 4.31a4.2 4.2 0 0 0 2.55-.9V442a3.44 3.44 0 0 1-2.25.89 3 3 0 0 1-1-.14 1.48 1.48 0 0 1-.67-.47 2 2 0 0 1-.38-.83 5.26 5.26 0 0 1-.12-1.24v-7.52zm54.02-39.86c0 1.51 1.58 2.25 3.1 2.85.53 0 1.18 0 1.4-.25 0-.09.14-.24.14-.35a3.17 3.17 0 0 0-.18-2.6 13.65 13.65 0 0 0-4.54-4.87c-.05-3 .28-5 .23-8 1.25-.37 2.93-.46 4-.82a3.88 3.88 0 0 0 2.25-2.26c1.63-1.47-.21-4.07-2.39-5.56a5.77 5.77 0 0 0-2.93-1l-.64.21c0-1.77.57-3.92.56-5.43 1.42-4.35-3.25-10.31-6.3-10.31a10.08 10.08 0 0 1-1.38 0c-.63 0-.78 1.56-.77 3.5v14c-1.63 1.7-8.91 1.77-10.92 2.44-2.22 3.73 3.41 8.9 6.46 8.9 2 0 2.72-.7 4.26-.7-.71 3.61-14 19.15-14.77 20.65 0 0-.43 1-.19 1.23.69.89 2.54 1 2.54 1 1.64-.6 3.68-2.93 5.71-4.76 2.84-2.53 5.57-4.75 6.55-5.84v7.76l-.34 7.58v-.08a10 10 0 0 0 1.82 5.57c.77.76 1.56 1.5 2.19 1.5h.76c2.25-1.44 2.11-9.47 2-13.81l.77-10.55z" class="cls-2"/><path d="M470.5 415.46a3.7 3.7 0 0 0 2.59.24l3-1.45c5.28-1.49 10.6-1.42 16.25-1.81 3.23-.07 10.58 1.5 12.07 0 3.66-2.21-2.81-7.64-5.14-8.36-1.39-.44-3 .36-4.54 1.08l-5.36.34c0-2.19-.38-3.89-.25-5.38 1.78-.51 7.8-.47 8.52-2.68.68-1.32 1.34-3.91.42-4.31-2.15-.9-5.59-.7-8.76-.74 0 0-.08-3.78-.08-5.26a2.4 2.4 0 0 0-1.95-2.06h1.9l8.11-.71c.76 0 3 .73 3.81 0 2.87-2.23-.18-7.23-3-7.35-3.46.17-5.11.76-8.83.72V372s6.19-.75 9.64-1.44c1.55-6.52-3.2-8.61-9.35-7.35 0-8.78-2.09-12.57-5.85-10.49-2.9 2.19-2 7.64-2 11.45-1.29.51-5.28.42-7.5 1-.92.22-.77.37-1.2 1-1.48 2.2 2.41 6.62 4 7.35h4.59l.08 5c-2.28.74-9.38 1.62-11.29 2.22-3 1.42 2.57 6.52 4.11 6.52 1.54.73 4.5-.91 7-1.42 0 0 .14 5.5.18 7.71-2.3.75-5.81-.46-7.31.3s-.58 2.45.06 4.3c1.58 3 3.11 3 6.9 3l.11 5.11a57.82 57.82 0 0 1-10.93 1.41c-.74.25-2 .06-2.65.29-2.43.35 0 6.15 2.65 7.5zm85.6-63.17c-1.48 0-1.48.72-2.21.7 0 0-28 4.51-32.49 4.41-.54 0-1 .75-1.14 1.12-1 2.44 1.06 4.49 3 5.93s1.76 1.18 4.21.56c2.06-.53 4.08-1.34 6.13-1.78a2.88 2.88 0 0 1 .15 1.91c-.49 1.45-6.86.92-7.66 2.64-.8 2.17 1.21 4.2 3.45 5a22.3 22.3 0 0 0 4.79-1.37c.16 1 .27 1.72-.07 2.2-4.44 1.9-12 1.41-13.13 3.1-.73 2.19 1.09 5.5 2.53 5.4 1.67-.08 4.3-.53 7.25-1-1.24 2-2.28 2.85-3 4.19-1.16 1.79 2.83 3.29 4.34 4.07a19.61 19.61 0 0 1-3.53 4.59c-1.09 1.08-2.87 2.65-3.95 3.76-1.8 1.89-3.52 3.3-4 4.35 0 0 1.08 2.48 2.75 1.39a29.29 29.29 0 0 0 3.52-2.51c1.1-.86 2.33-1.37 3.33-2.23 1.66-1.42 3-2.64 3.55-3 0 1.11 0 5.62-.07 7.91 0 .82-.73 1.41-1.77 1.51-2.52.21-7.1.6-8.66.58-.31-.27-3.56.71-3.56-1.22 0-2.77.17-9.52.15-11.21l.05-16.66 1.19-9.28c.7-3.68-3.86-11.41-6.53-10.29-.75.33-2 1-2 2.28 0 4.45.89 8.1 1.07 17.1.2 9.15-.31 19.21-.31 22.66 0 4.33-.31 5.41 0 8.92.36 4.41 4.41 7.78 4.41 7.78s2.2 1 2.2-3.53c0-3.26 1.79-.61 2.62-.19s4.72-1 6.19-1.22c3.71-.64 24.75 0 24.75 0s-.85 8.75 1.28 8.73 4.21-1.25 6.18-5.29c1.39-2.85 1.35-6 1.42-8.81 0-10.42.19-21.89-.53-31.51 0-3.59 1.82-9.1 1.07-12.85-.76-2.86-4.74-8-7-8.83zm-7.2 8.76c1.5 0 3 0 3.54.59 1.58 1.61 1.51 13.88 1.51 13.88-1.26-2.62-1.39-5.18-4.83-5.24l-1.34.57-1.55.51a15.75 15.75 0 0 1-2.23.64l-1.6.27a6.87 6.87 0 0 1-1.49.21v-2.09c.48-.11 1-.34 1.47-.46a39.73 39.73 0 0 1 5.43-.89c1.16-.17 1.21.3 1.34-.91a6.53 6.53 0 0 0-1.17-4 1.92 1.92 0 0 0-1.92-1.14s-1.64.15-2.44.28a12.44 12.44 0 0 1-2 .37c-.74 0-.74 0-.76-.73 0-2 7.19-1.81 8.14-1.81zm-13.76 22.53c-.15-.62 1.54-2.15 2.68-4l2.39-.8 2.51-.46-2 2.61-.25.25-2.82 3.26s-2.3-.18-2.46-.81zm9.53 21.42l-5-.12V398l7.07 7.1-2.07-.05zm9.28 0l-3.39-.05s0-4.17-1.36-5.86-2.45-.51-4.36-2.68l-.59-.22c.49-.5 2.54-1 3.79-1.16a6.37 6.37 0 0 0 1.84-.48c2.82-2-.71-7.94-1.26-8.4s-.81-.4-1.12-.21c-1.06.69-2.31 2.84-3.89 4.71a36.31 36.31 0 0 1-3.72 3.73h-.26v-3a10.75 10.75 0 0 1 2.2-2.72 11.52 11.52 0 0 1 2.21-1.62c2.21-2.17 4.4-4.24 1.39-8.73a7.83 7.83 0 0 1 2.47-.18c2.21.14 4.59.52 6.09-.42.01 7.29.36 19.52.01 27.29zM423 382.81c.72 1.27 2.9 3.67 4.65 3.63 3.23-.07 4.85-4.7 5.51-7.58l.69-3.69 1.25-6.71c1-2.53-2.67-9.84-5.13-9.74-1.61 0-2.84.89-4.43 1.63l-6.38.58s4.77-3.35 5.19-4.34c.61-1.44-.43-3.22-2.15-4.62-.82-.67-.82-.67-1.64-.67l-2.43.06c-1.48 2.85-2.61 9.11-5.18 9.93l-3.06.81c0-.74 2-3-1.1-5.66l-.44-.35c-1.54-1.16-2.58-2.06-4-1.32l-6.8 1.24c-2.38.76-8.88.92-9.46 2.36-1.47 3.56 1.81 7 5.88 6.93.11 1 .11 2.3.12 2.87 0 1.44-3.82 1.54-6.22 2.15a4.57 4.57 0 0 0 1.73 5.43c1.45 1 3.5.61 5.35.89a4.33 4.33 0 0 1 0 2.64c-.68 2-9.92-.65-9.66 4.31.12 2.12 4.4 6.16 6.67 6.1 1.61 0 3.14-2.19 3.92-2.81l7-3 4.78-2.25c1.11-.56 1.18-.87.74-1.44l-2.52-2.06c-.85-.72-1.61 0-3.3.33-.12-1.32-.37-2.33.14-3 1.14-1.49 6.55-2.81 6.55-2.81.6-.21.76-1.05-.15-3.07s-1.62-3.36-3-3.23l-3.19.67c-.53-.08-.61-3 .06-3.22l6.93-1.48a7.9 7.9 0 0 0-.36 3c0 .71 1.27 4.46 1.8 8a36.55 36.55 0 0 1 .31 6.75s.6 4.77 2.78 4.37c0 1.34-7.15 1.95-8.34 2.11-6.08.82-13.86 1.37-9.89 6.16a2.61 2.61 0 0 0 3.48 1c1.44-.56-9 10.35-15.74 16a1.88 1.88 0 0 0 .92 2.31c.83.54 2.05-.2 2.05-.2 1.57-.76 9.32-6 10.42-7.72 0 0 3.1 16.65 7.43 15.52l1.44-4.2 8.35-1.53c1.84-.63 6.21.37 9 .51a9.26 9.26 0 0 0 1.89-.15c2.28-.76-.15-2.82.54-5l3.62-6.32c1.68-4.16-6.87-9.69-6.87-9.69a.53.53 0 0 1-.27-.12c-2.32-.4-2.95 1.15-4.52 1.93-3.75.8-12.32 1.41-12.32 1.41 0-.7 4.27-4.35 5.86-4.75 3.16-.93 8-.77 11.25-1.19a1.88 1.88 0 0 0 1.06-3.27 22.92 22.92 0 0 0-2.16-1.9 7.29 7.29 0 0 0-2.32-1.1 12.61 12.61 0 0 0 3.08-1c.39-.25.36-.37.62-.59zm-11.11 19.86a23.44 23.44 0 0 0 6.34-2l.1.24c-.61 4.23.19 6.46-4.58 6.74 0 0-7.85.9-8.89.64s-2-4.85-2.09-6.26c0-.37.5.14 2.77 1.51 1.29.61 3.21-.39 6.35-.83zm4.54-37.3a13.58 13.58 0 0 0 2.61 2c.89.28 6.52-1.49 7-.81.31.43.22 5.25-.47 6.41-.43.69-.69 0-.69 0a6.57 6.57 0 0 0-1.77-2.78 2.85 2.85 0 0 0-1.94-.91c-.4 0-4.53 1.08-4.53 1.08-.88-1.42-1.16-5.41-.25-5zm2.57 14.11l-1.27-3.31 6-1h.8c.82 0-.25 2.52-1 3.24a9.19 9.19 0 0 0-1.87.52c-1.02.23-2.26.53-2.66.55zm152.83 2.72a1.49 1.49 0 0 1-1.11-.37l-.06-.25h-.08c-.43-.86.14-2.55 3-4.74 4.75-3.56 10-10 14.17-15.25 3.54-4.39 6.1-7.56 7.17-7.56a2.7 2.7 0 0 1 .83.15l.21.12a11.88 11.88 0 0 1 3 4l.08.15v.21c0 .38-.1.71-2 2.64.38.17 9.83 2 11.32 2.2l.24.07a1.88 1.88 0 0 1 1.07 1.41 1 1 0 0 1 .1.66 1.46 1.46 0 0 1-.85 1l-1.8 1.2a15.48 15.48 0 0 1-1.86 1.25l-.21.21c-1.74 1.24-2.9 1.78-3.75 1.78a1.51 1.51 0 0 1-1.14-.46l-.15-.13c-2-1.75-5.31-4.67-6.39-4.7h-.3a5 5 0 0 0-1.51.21l-.34.08c-2.12 1.19-4 4.09-5.8 6.89-2 3.06-4 6.22-6.42 7.13-3.81 1.43-6.25 2.1-7.42 2.1z" class="cls-2"/><path d="M589.13 378.07a1.76 1.76 0 0 1-.8-.17l-.46-.33c-.32-.4-.34-1-.09-2.22.19-1 .3-2.65.3-2.67.22-2.28 1-3.43 2.23-3.43a2.18 2.18 0 0 1 .79.16 30.54 30.54 0 0 1 6.74 2.9l.19.13.11.25c.43 1.06.31 2.59-2.62 3.88l-.23.07a21.42 21.42 0 0 0-4.83 1.21 5.12 5.12 0 0 1-1.33.22zm24.35 19.05c-1.26-.34-1.84-2.06-2.06-5.79q-.28-5-.56-10.35a6.09 6.09 0 0 1 .79-3.48 1.9 1.9 0 0 1 1.63-.84h.2a23.88 23.88 0 0 0 3.68 1.24h.19l.23.14c.85.65 1 1.81.56 3.45-.53 1.4-.7 4.14-.52 8.17-.21 4.95-1.58 7.45-4.08 7.45z" class="cls-2"/><path d="M622.58 354.7a6 6 0 0 0-.76 0 2.25 2.25 0 0 0-2.57 2.4 466.88 466.88 0 0 1 1.57 49.38c-.18 1.12-.67 1.28-1.16 1.28a25.44 25.44 0 0 1-9.5-1.85 2.39 2.39 0 0 0-.75-.14 1.09 1.09 0 0 0-1.15 1.15c0 1.28 4.44 4.5 7.57 6.58a38.15 38.15 0 0 0 9.9 4.16 3.66 3.66 0 0 0 1 .15c.64 0 2.13-.27 2.13-2.82-1-8.89-1.57-25.54-1.57-49.47a12.29 12.29 0 0 1 1.8-5.61l.07-.12v-.13c.36-2.58-3.52-4.05-6.58-4.96zM602 392.94a6.21 6.21 0 0 0-.37-1.21l1.95-3.73v-4.21c0-.35.34-2.86.35-3l-1.25-1.79-3.31-.68-4.07-.53v-.19s4.43-.61 5.4-.78l.33-.18a4.73 4.73 0 0 1 2.15-.8c.64 0 1.24.67 1.64 1.24 1.09 1.55 2 4.19 1.58 5.39l-.41 2.89-.44 2.49c-.41 1.91-1.41 5.12-3.5 5.2H602zm-14.33 15.13c2.1-.18 6.81-.72 6.86-.72 3.29-.19 3.4-1.44 3.64-3.94 0-.54.1-1.12.2-1.76l-.08-.15a15.34 15.34 0 0 1-5.31 1.8c-1 .14-1.83.34-2.57.52a9.43 9.43 0 0 1-2.06.36 2 2 0 0 1-.87-.18c-.66-.39-1.13-.7-1.48-.93a3.5 3.5 0 0 0-.77-.44l-.17-1.17 2.52-3.55c.15 0 7.36-.56 10.52-1.24a6.25 6.25 0 0 0 1.07-.74 3.29 3.29 0 0 1 2.21-1 3.49 3.49 0 0 1 .63.06.54.54 0 0 0 .21.09c.35.21 7.41 4.85 6 8.45l-3.1 5.44a3.74 3.74 0 0 0 .18 2.15c.27.92.51 1.77-.7 2.17a7.43 7.43 0 0 1-1.64.13c-.83 0-1.8-.17-2.77-.29a30.23 30.23 0 0 0-3.54-.32 4.39 4.39 0 0 0-1.4.17l-5.08.93z" class="cls-2"/><path d="M587.4 415.52c-1.19 0-2.18-.92-3-2.81a29.86 29.86 0 0 1-1.62-5.19l-.11-.64c-3.64 3.46-7.6 5.77-9.89 5.77a6.49 6.49 0 0 1-1.37-.94c-.32-.32.52-1.46 2.45-4s4.64-6.09 5.87-8.95a27.89 27.89 0 0 0 2.41-11 5 5 0 0 0-.49-2.65c-.18-.11-.37-.22-.63-.35a2 2 0 0 1-1-1.29 2 2 0 0 1 .36-1.48c.18-.38.41-.86 9.88-3.49a60.3 60.3 0 0 1 10.56-1.66 18.93 18.93 0 0 1 2.18.16 1.16 1.16 0 0 1 .77.48c1.63 2.09 1.09 10.3 1 11.39a13.07 13.07 0 0 1-1.38 3.82 3 3 0 0 1-2.06 1.29h-1.14c-1.1.2-2.25.41-3.29.61a54.62 54.62 0 0 0-8.84 1.5 23.49 23.49 0 0 0-2.75 1.62 1.48 1.48 0 0 0 .1.6 9.84 9.84 0 0 1 3.3-.56l1-.07-.2 4.45-.15.17c-.61.46-.67.68-.68.69l.07.09c0 2.31.33 4.66 1.05 4.66h.38l1.41 5.84c-1.28.61-2.29 1.1-3.25 1.68a2.28 2.28 0 0 1-1 .24zm8.7-32.93l.29.24a3.28 3.28 0 0 1 1.11 2.42 3.67 3.67 0 0 1-1.47 2.56l-.28.06v.09a40.24 40.24 0 0 1-8.33 2.25c-.25.06-.36.66-.28 1.57.35-.14 7.28-1.62 7.35-1.64a4.58 4.58 0 0 0 2.57-1 5.51 5.51 0 0 0 1.34-3.29c.64-3 .58-4 .52-4.31h-.54c-1 0-4.79.77-6.85 1.18l-1.26.25c-1.06.38-1.66.92-1.81 1.67 5.59-1.84 6.86-2.06 7.32-2.06zm105.4 28.16c-1.5-.91-16.8-11.31-20.24-13.67.56-.85 1.51-2.4 2.83-4.57 1.55-2.56 3.31-5.44 4.15-6.63a1.38 1.38 0 0 0 .85-1.3c-.5-2.15-2.82-3.51-7.23-4.18a11.84 11.84 0 0 0-4.59.94c-1.19.4-2.61.77-4.3 1.2-5.51 1.38-4 2.67-4 2.67s2.71 3.72 4 3.72a2.39 2.39 0 0 0 1-.24l.4-.83c.37-1.09 1.49-1.78 3.31-2.12.6 0 1.23.17 1.45 1.39a20.85 20.85 0 0 1-2.49 6.75 23 23 0 0 1-6.21-5.11c-1.44-1.39-2.46-2-3.31-2H667l-.17.09a5.68 5.68 0 0 0-3 3.3 5.52 5.52 0 0 0 .84 4.31l.05.08.07.07a1.23 1.23 0 0 0 .9.37 2.06 2.06 0 0 0 .87-.22 2.19 2.19 0 0 1 .61-.23h.2c.06 0 4.39 3.32 5.14 3.79-2.52 2.8-9.23 6.23-13.35 8.34-3.63 1.86-3.9 2-3.9 2.62 0 1.41 2.15 1.76 3.76 1.91 1.38.12 2.42.18 3.34.18 4.54 0 7.49-1.53 11.26-5.87l.58-.66a20.08 20.08 0 0 1 3.09-3.2c3.52 2.54 5.8 8.17 6 9 .47 2.94 13.55 5.19 16.19 5.43h.06c2.59 0 4.13-.52 4.74-1.74.46-1.84-2.01-3.17-2.78-3.59z" class="cls-2"/><path d="M664.15 382.51c-1.65 0-2.07-.82-2.17-1.31-.43-1.16.46-2.54 2.06-4.34a8.28 8.28 0 0 0 3.07-5.82 23.27 23.27 0 0 0-.3-8.81 2 2 0 0 1 .4-2.47c2.38-2.87 12.56-4.77 15.54-4.77 2.46 0 4 .46 4.85 1.38a3 3 0 0 1 .51 2.51v.28a4.54 4.54 0 0 1-1 2.25 6.21 6.21 0 0 0-.46.79c-1.35 3.52-2 6.17-2 8v.48c0 .43 0 1 .14 1.15a1.09 1.09 0 0 0 .76.19l.41-.08a23.9 23.9 0 0 1 4-.48 3.25 3.25 0 0 1 2.59.79 1.51 1.51 0 0 1 .35 1.26 9.39 9.39 0 0 1-.47 2.63 7.27 7.27 0 0 1-.76 1.85l-.93.52c-2.19 1.22-7.17 1.83-8.08 1.83a5.08 5.08 0 0 1-3.65-1.85c-1.11-1.29-.91-5-.23-10.68.06-.48.11-.89.14-1.19.52-2.47.08-2.87.08-2.87h-.2l-.43.09c-.74.15-3 .63-3.28 1.07a20.94 20.94 0 0 0 0 3.37c.11 3.35.24 7.52-1.69 9.6-.17.17-3.72 3.72-6.76 4.46a19.76 19.76 0 0 1-2.49.17zm-21.77 21.17c.77-.11 2.31-.92 7.4-6.11 2.61-2.72 8.39-9.83 9.28-11.08 1.7-2.38 1.39-3.15 1.3-3.41a2.77 2.77 0 0 0-2.16-.85c-.5.19-5.39 2.31-7.44 4-.47.44-1.21 1.1-2.33 2l-.79.66-1.47 1.29c-1.57 1.21-3.29 2.64-5.06 4.21-4.69 3.59-4.7 3.78-4.72 4.16s4.05 5 5.48 5.09a3.18 3.18 0 0 0 .51.04z" class="cls-2"/><path d="M656.54 368c.17-1.48.43-5 .4-5.64a5.42 5.42 0 0 0-1-2.87c-.61-.84-4.44-4.59-7-3.63-1.5.55-.31 5.49-.25 5.95.29 2.57 1 7.05.6 9.85a97 97 0 0 1 0 10.74v5s.41 15.56.51 17.52h-.06c-.57 0-4.67-2.88-4.93-3-2.65-1.59-3 .58-2.45 1.75a1.28 1.28 0 0 0 .11.27.25.25 0 0 0 .05.08c.17.27 6.89 13 11.44 13 1.09 0 2.25-4.34 2.22-7.77 0-1.86-.49-29.64-.19-30.89-.25-2.89.8-7.86.55-10.36z" class="cls-2"/><path d="M660.37 369.55a5.71 5.71 0 0 0-2.93-1l-.63.21s-7.32 1.9-9.41 2.51a13.92 13.92 0 0 1-1.73.44 13.42 13.42 0 0 1-1.45.25c-2.46.37-5.13.56-6.24.93-2.21 3.72 3.42 8.9 6.46 8.9a12.94 12.94 0 0 0 3.27-.6s7.62-2.8 9.11-3.09c1.22-.3 2.7-.41 3.72-.74a3.88 3.88 0 0 0 2.25-2.26c1.62-1.46-.23-4.1-2.42-5.55zm19.89 64.98v10.16h.93c.31 0 1.21-.18 1.21-1.91v-10.16h-.93c-.31.01-1.21.18-1.21 1.91zm1.07-6.53a1.28 1.28 0 1 0 1.28 1.28 1.28 1.28 0 0 0-1.28-1.28z" class="cls-2"/></svg>