<svg xmlns="http://www.w3.org/2000/svg" role="img" xmlns:xlink="http://www.w3.org/1999/xlink" viewBox="-0.70 2.42 173.03 122.03"><title>CSEM SA (member) logo</title><defs><path d="M22.70313-44.21094c5.44921 0 9.67968 1.4375 12.6875 4.3086 3.0078 2.87109 4.67968 6.1328 5.0078 9.78515h-5.67968c-.64453-2.77343-1.92969-4.96875-3.85547-6.59375-1.92187-1.6211-4.6211-2.42968-8.09765-2.42968-4.23829 0-7.66407 1.48828-10.26954 4.46874-2.60937 2.97657-3.91015 7.54297-3.91015 13.69532 0 5.03906 1.17578 9.125 3.52734 12.26172 2.35547 3.1328 5.86328 4.69922 10.53516 4.69922 4.29687 0 7.5664-1.64844 9.8125-4.94922 1.1914-1.73828 2.07812-4.02344 2.66406-6.85547h5.6875c-.50781 4.53125-2.1875 8.32812-5.03906 11.39843-3.41797 3.69141-8.03125 5.53516-13.82813 5.53516-5 0-9.20312-1.51172-12.60156-4.54297-4.47266-4.0039-6.70703-10.1836-6.70703-18.54297 0-6.34765 1.67969-11.55078 5.03906-15.61328 3.63281-4.41406 8.64453-6.625 15.02735-6.625zm0 0" id="a"/><path d="M8.3789-13.88672c.13673 2.4414.71485 4.42578 1.73048 5.94922 1.93359 2.85156 5.33984 4.27344 10.22265 4.27344 2.1875 0 4.17969-.3125 5.97656-.9375 3.47657-1.21094 5.21485-3.375 5.21485-6.5 0-2.34375-.73438-4.01563-2.19532-5.01172-1.48437-.97656-3.8125-1.82422-6.97656-2.55078l-5.82812-1.3164c-3.8086-.85938-6.5039-1.8086-8.08594-2.83985-2.73438-1.79688-4.10156-4.48438-4.10156-8.0586 0-3.86718 1.33594-7.04296 4.01562-9.51953 2.67578-2.48047 6.46094-3.72265 11.36719-3.72265 4.51172 0 8.34375 1.08984 11.4961 3.26562 3.15624 2.17969 4.73046 5.66016 4.73046 10.44531h-5.47656c-.29297-2.30468-.91797-4.07421-1.875-5.30078-1.77734-2.2461-4.79688-3.3711-9.05469-3.3711-3.4375 0-5.90625.72266-7.41015 2.16798C10.625-35.46875 9.875-33.78906 9.875-31.875c0 2.10938.875 3.65234 2.63281 4.6289 1.15235.625 3.76172 1.40626 7.82422 2.34376l6.03516 1.3789c2.91015.66407 5.15625 1.57032 6.73828 2.72266 2.73437 2.01172 4.10156 4.9336 4.10156 8.76172 0 4.76562-1.73437 8.17187-5.19922 10.22265-3.46875 2.05079-7.4961 3.07422-12.08593 3.07422-5.35157 0-9.53907-1.36719-12.57032-4.10156-3.02734-2.71484-4.50781-6.39453-4.45312-11.04297zm0 0" id="b"/><path d="M5.125-43.03906h31.3789v5.27343H10.8125v13.07032h23.75781v4.97656H10.8125V-5.125h26.13281V0H5.125zm0 0" id="c"/><path d="M4.42188-43.03906h8.35156L25.13672-6.64844l12.27734-36.39062h8.25782V0h-5.53516v-25.39844c0-.8789.01953-2.33593.0586-4.36718.03905-2.03126.05859-4.21094.05859-6.53126L27.97656 0h-5.76953L9.84375-36.29688v1.31641c0 1.05469.02344 2.66016.07422 4.82031.04687 2.15625.07422 3.7461.07422 4.76172V0H4.42187zm0 0" id="d"/><path d="M26.66016-17.63672L20.125-36.64844l-6.9414 19.01172zm-9.58204-25.40234h6.59376L39.28905 0h-6.39062l-4.36328-12.89063H11.51562L6.85548 0H.8789zm0 0" id="e"/></defs><use y="50" xlink:href="#a"/><use x="43.33" y="50" xlink:href="#b"/><use x="83.35" y="50" xlink:href="#c"/><use x="123.369" y="50" xlink:href="#d"/><g><use y="120" xlink:href="#b"/><use x="40.02" y="120" xlink:href="#e"/></g></svg>