<svg xmlns="http://www.w3.org/2000/svg" role="img" viewBox="138.30 371.05 335.66 117.91"><title>Cyber Physical Security Research Center of AIST (member) logo</title><g fill-opacity="1" fill-rule="nonzero" stroke="none"><path fill="#45bed8" d="M441.20313 401.82813c-5.85938 0-10.80079 3.91796-12.36329 9.27343l-231.65234 1.40625c-1.05078-6.0625-6.32422-10.67969-12.6836-10.67969-7.11718 0-12.89062 5.77344-12.89062 12.88672 0 7.1172 5.77344 12.88672 12.89063 12.88672 5.79297 0 10.6953-3.82422 12.3125-9.08984l231.73047-1.41016c1.11718 5.97656 6.35156 10.5 12.65625 10.5 7.11718 0 12.88671-5.76953 12.88671-12.88672 0-7.11328-5.76953-12.88671-12.88671-12.88671"/><path fill="#110f0d" d="M199.50781 449.8086c-4.65234 2.12109-10.01172 3.18359-16.08203 3.18359-5.53125 0-10.63672-.91016-15.32422-2.73047s-8.75-4.39844-12.1875-7.73828c-3.4414-3.33594-6.14062-7.33203-8.09375-11.98438-1.95703-4.65234-2.9336-9.77734-2.9336-15.375 0-5.73047.9961-10.92578 2.98438-15.57812 1.98828-4.65235 4.73828-8.61328 8.2422-11.88672 3.5078-3.26953 7.62108-5.78125 12.34374-7.53516 4.71875-1.7539 9.8086-2.6289 15.27344-2.6289 5.0586 0 10.02734.89453 14.91797 2.67968 4.89062 1.78907 8.85156 4.39844 11.88672 7.83985l-11.73438 11.73437c-1.61719-2.22656-3.74219-3.8789-6.3711-4.95703-2.6289-1.07812-5.32812-1.61719-8.09374-1.61719-3.03516 0-5.8164.5547-8.34375 1.66797-2.53125 1.11328-4.70313 2.64844-6.52344 4.60156-1.82422 1.95704-3.23828 4.26563-4.25 6.9297-1.01172 2.66406-1.51563 5.57812-1.51563 8.75 0 3.23437.50391 6.20312 1.51563 8.90234 1.01172 2.6953 2.41016 5.0039 4.19922 6.92578 1.78516 1.92187 3.92578 3.42578 6.42187 4.5 2.4961 1.08203 5.22657 1.6211 8.19532 1.6211 3.4375 0 6.4375-.67579 9-2.02345 2.5625-1.34765 4.62109-3.10156 6.17187-5.2578l12.03516 11.32812c-3.16797 3.64062-7.07813 6.52343-11.73438 8.64843"/><path fill="#110f0d" d="M255.64844 401.60938c0-1.6875-.33985-3.07032-1.01172-4.14844-.67578-1.07813-1.58594-1.92188-2.73047-2.52735-1.14844-.60937-2.44531-1.01171-3.89453-1.21484-1.44922-.20313-2.94922-.30469-4.5-.30469h-7.58594v16.89453h7.28125c1.6211 0 3.16797-.13671 4.65234-.40625 1.48438-.26562 2.81641-.73828 3.9961-1.41406 1.17969-.67578 2.10547-1.57031 2.78125-2.67969.67187-1.11328 1.01172-2.51171 1.01172-4.19921m17.29687-.10157c0 4.1836-.77344 7.70313-2.32422 10.57031-1.55468 2.8672-3.64453 5.17579-6.27343 6.9297-2.62891 1.7539-5.66407 3.03515-9.10157 3.84374-3.4414.8086-7.01562 1.21485-10.72265 1.21485h-8.59766v27.0039h-17.29687v-71.61328h26.29687c3.91016 0 7.57031.38672 10.97656 1.16406 3.40235.77344 6.3711 2.02344 8.90235 3.7422 2.52734 1.71874 4.51562 3.98046 5.96484 6.77733 1.44922 2.79688 2.17578 6.25391 2.17578 10.3672"/><path fill="#110f0d" d="M321.19531 398.07031c-1.48437-1.88672-3.42187-3.39062-5.8164-4.5039-2.39454-1.11329-4.70313-1.66797-6.9297-1.66797-1.14843 0-2.30858.10156-3.48827.30469-1.17969.19921-2.24219.58984-3.1875 1.16015-.94531.57422-1.73438 1.3164-2.375 2.22656-.64063.91016-.96094 2.07422-.96094 3.48829 0 1.21484.25 2.22656.75781 3.03515.50781.8086 1.2461 1.51953 2.22656 2.125.97657.60938 2.13672 1.16406 3.48829 1.66797 1.34765.50781 2.86328 1.03125 4.55078 1.57031 2.42969.8086 4.95703 1.70313 7.58984 2.67969 2.6289.98047 5.01953 2.27734 7.17969 3.89453 2.15625 1.61719 3.94531 3.625 5.35937 6.01953 1.41797 2.39453 2.125 5.3789 2.125 8.94922 0 4.11719-.7578 7.67188-2.27734 10.67188-1.51563 3.0039-3.55469 5.48046-6.11719 7.43359-2.5625 1.95703-5.4961 3.40625-8.80078 4.35156-3.30469.94531-6.71094 1.41406-10.21484 1.41406-5.1289 0-10.08594-.89453-14.8711-2.67968-4.78906-1.78516-8.76562-4.33203-11.93359-7.63672l11.32813-11.53125c1.7539 2.16015 4.05859 3.96484 6.92968 5.41406 2.86328 1.44922 5.71094 2.17188 8.54688 2.17188 1.27734 0 2.52734-.13282 3.74219-.40235 1.21093-.26953 2.27734-.71094 3.18359-1.3164.91015-.60547 1.63672-1.41407 2.17578-2.42579.53906-1.01171.8086-2.22656.8086-3.64062 0-1.35156-.33594-2.4961-1.00782-3.4414-.67578-.94141-1.63672-1.80079-2.88281-2.57813-1.25-.77735-2.80078-1.48438-4.65625-2.125-1.85547-.64063-3.96094-1.33203-6.32031-2.07422-2.29297-.74219-4.53907-1.61719-6.72657-2.6289-2.1953-1.01173-4.14843-2.3086-5.86718-3.89454-1.71875-1.58203-3.10547-3.5039-4.14844-5.76562-1.04688-2.25781-1.5664-5.00781-1.5664-8.24219 0-3.98047.80859-7.38672 2.42577-10.21875 1.6211-2.83203 3.7422-5.16016 6.375-6.98047 2.62891-1.82031 5.59375-3.15234 8.90235-3.99219 3.30078-.84375 6.64062-1.26562 10.01172-1.26562 4.04687 0 8.17578.74219 12.39062 2.22265 4.21485 1.48438 7.90625 3.6797 11.07813 6.57813zm0 0"/><path fill="#110f0d" d="M343.14453 451.07031v-71.61328h48.14844v14.5664h-31.45703v13.5547h29.73828v13.85546h-29.73828v14.8672h33.27734v14.76952zm0 0"/><path fill="#110f0d" d="M455.82813 449.8086c-4.65235 2.12109-10.01563 3.18359-16.08204 3.18359-5.53125 0-10.64062-.91016-15.32421-2.73047-4.6875-1.82031-8.75-4.39844-12.19141-7.73828-3.4375-3.33594-6.13672-7.33203-8.08985-11.98438-1.95703-4.65234-2.93359-9.77734-2.93359-15.375 0-5.73047.99219-10.92578 2.98438-15.57812 1.98828-4.65235 4.73437-8.61328 8.24218-11.88672 3.50391-3.26953 7.6211-5.78125 12.33985-7.53516 4.71875-1.7539 9.8125-2.6289 15.27734-2.6289 5.05469 0 10.02735.89453 14.91797 2.67968 4.88672 1.78907 8.85156 4.39844 11.88672 7.83985l-11.73438 11.73437c-1.61718-2.22656-3.74218-3.8789-6.37109-4.95703-2.63281-1.07812-5.32813-1.61719-8.09375-1.61719-3.03516 0-5.8164.5547-8.34766 1.66797-2.52734 1.11328-4.70312 2.64844-6.52343 4.60156-1.82032 1.95704-3.23438 4.26563-4.2461 6.9297-1.01172 2.66406-1.51953 5.57812-1.51953 8.75 0 3.23437.50781 6.20312 1.51953 8.90234 1.01172 2.6953 2.41016 5.0039 4.19531 6.92578 1.78516 1.92187 3.9297 3.42578 6.42579 4.5 2.49218 1.08203 5.22265 1.6211 8.1914 1.6211 3.4414 0 6.4414-.67579 9.0039-2.02345 2.5625-1.34765 4.6172-3.10156 6.16798-5.2578l12.03906 11.32812c-3.17188 3.64062-7.08203 6.52343-11.73438 8.64843"/><path fill="#211d1d" d="M156.46875 475.16797c-.29297 1.24219-.85156 2.19531-1.67578 2.85937-.85156.66016-1.85547.9922-3.01563.9922-1.05468-.02345-1.93359-.28126-2.6328-.76954-.71876-.47266-1.23829-1.01563-1.5625-1.63281-.09376-.20313-.1836-.39453-.26563-.57813-.07422-.1875-.13282-.42578-.1836-.71484-.08984-.53906-.13672-1.57031-.13672-3.09766 0-1.55469.04688-2.59375.13672-3.1211.09766-.52343.25-.94921.44922-1.27343.32422-.61719.84375-1.16797 1.5625-1.65234.69922-.48828 1.57813-.73828 2.63281-.75 1.28907.01172 2.33985.39453 3.15235 1.14453.8125.75781 1.32422 1.69922 1.53906 2.8164h-2.14453c-.16406-.53906-.46484-.99609-.89844-1.375-.45312-.35937-1.0039-.54687-1.64844-.55859-.48047.01172-.89062.10547-1.23047.28125-.34765.1836-.6328.41406-.84375.6914-.26562.28516-.4375.65626-.52343 1.10938-.09766.47656-.14844 1.3711-.14844 2.6875 0 1.3125.05078 2.20313.14844 2.66797.08594.46094.25781.83985.52344 1.1289.21093.27344.49609.4961.84375.66407.33984.20313.75.30469 1.23046.30469 1.13672 0 1.98438-.60938 2.54688-1.82422zm0 0"/><path fill="#211d1d" d="M156.35938 469.39063h2.02734l2.25781 6.66796h.03516l2.2461-6.66796h2.03515l-4.09766 11.49218c-.26172.71485-.625 1.21094-1.08984 1.48438-.47266.26172-1.0039.39453-1.59766.39453h-.63281v-1.80469h.5586c.2539 0 .48437-.07031.69921-.20312.21484-.14063.36328-.34766.44922-.625l.52344-1.59375zm0 0"/><path fill="#211d1d" d="M169.85938 471.1875c-.42579 0-.76563.08984-1.01563.26563-.26563.17968-.45703.41015-.57813.69921-.11718.28516-.1953.59766-.23046.9336s-.0547.6875-.0547 1.05469c0 .33593.01954.67968.0547 1.02734.03515.35547.11328.67578.23047.96484.12109.28516.3125.51953.57812.69531.25.1836.58984.27735 1.01563.27735.45312 0 .8125-.08594 1.07421-.25781.26172-.1797.44922-.40625.5586-.6797.1211-.28515.20312-.60937.2461-.97265.01562-.33984.01952-.69531.01952-1.05469 0-.3789-.0039-.74609-.01953-1.10937-.04297-.33594-.125-.64844-.2461-.9336-.10937-.28906-.29687-.51562-.55859-.67968-.26172-.15235-.62109-.23047-1.07422-.23047m-3.79687-5.64844h1.91797v4.85938c.34766-.33594.73047-.60938 1.14844-.82422.3828-.20313.8203-.30078 1.30859-.30078 1.16797.02734 2.01953.44531 2.5586 1.2461.26171.30077.4453.6914.54296 1.18358.08985.48047.13672 1.29297.13672 2.4375 0 1.125-.04687 1.9336-.13672 2.42188-.09765.51172-.28125.92188-.54297 1.21875-.26172.36719-.60937.66016-1.03515.88281-.42188.22656-.92969.34375-1.52344.35547-1-.02344-1.82031-.39453-2.45703-1.10937v1h-1.91797zm0 0"/><path fill="#211d1d" d="M181.27734 473.29688c-.02343-.73829-.22265-1.29688-.59765-1.67579-.36719-.36328-.83594-.54296-1.41016-.54296-.57422 0-1.04687.17968-1.41406.54296-.35938.37891-.5586.9375-.59375 1.67579zm-4.01562 1.57812c0 .76563.21875 1.34375.66016 1.74219.40625.40234.9453.60547 1.61328.60547.77343 0 1.46875-.3086 2.08203-.92579L183 477.48048c-.96875 1.03906-2.11328 1.55078-3.42969 1.53906-.5 0-.98828-.07422-1.46484-.21875-.24219-.08203-.47266-.1875-.69922-.32031-.23828-.11719-.46094-.26172-.66797-.4336-.40234-.35546-.73047-.84765-.98047-1.48437-.27734-.61328-.41406-1.40625-.41406-2.38672 0-.9414.1211-1.72265.35547-2.34765.24219-.63672.54687-1.13672.91797-1.50391.3789-.3711.80469-.64063 1.27734-.80469.46484-.16406.92188-.2461 1.375-.2461 1.08594.01173 2.00781.3672 2.76172 1.07032.76172.71484 1.14844 1.69922 1.16406 2.95313v1.57812zm0 0"/><path fill="#211d1d" d="M185.20313 469.39063h1.91406v1.0078h.03906c.6289-.75 1.45313-1.125 2.47656-1.125.76172.01173 1.42969.25391 1.9961.73048l-1.39453 1.66015c-.40235-.3164-.82032-.47656-1.25391-.47656-.48828 0-.91016.16016-1.25781.47656-.39063.3125-.58985.8164-.60547 1.51563v5.73047h-1.91406zm0 0"/><path fill="#211d1d" d="M199.21484 471.77344h3c.75-.01172 1.31641-.24219 1.69532-.69531.35937-.44141.53906-.9297.53906-1.46875 0-.44532-.07031-.82032-.21875-1.125-.15234-.27735-.36719-.4922-.64063-.65235-.41797-.26172-.89843-.38672-1.44922-.375h-2.92578zm-2.02734-6.23438h4.84375c.52344 0 1.03125.04688 1.51953.14844.48828.125.98438.39063 1.48828.78516.42188.30078.76172.73046 1.02735 1.28515.27343.53906.41015 1.17578.41015 1.90625 0 .99219-.34765 1.89453-1.04297 2.70703-.71875.85547-1.76172 1.29688-3.13672 1.32032h-3.08203v5.21875h-2.02734zm0 0"/><path fill="#211d1d" d="M208.14453 465.53906h1.91797v4.85938h.03906c.6289-.75 1.45313-1.125 2.47266-1.125.78906 0 1.51172.27734 2.16406.83203.64844.5625.98828 1.38672 1.01953 2.47656v6.32813h-1.91797v-5.66797c0-.66797-.17578-1.17188-.53125-1.52344-.34765-.35156-.79687-.53125-1.34765-.53125s-1.0039.17969-1.35547.53125c-.36328.35156-.54297.85547-.54297 1.52344v5.66797h-1.91797zm0 0"/><path fill="#211d1d" d="M216.86719 469.39063h2.02734l2.25781 6.66796h.03516l2.2461-6.66796h2.03515l-4.09766 11.49218c-.26562.71485-.6289 1.21094-1.08984 1.48438-.47266.26172-1.0039.39453-1.59766.39453h-.6328v-1.80469h.55858c.25 0 .48438-.07031.69922-.20312.21094-.14063.36328-.34766.44922-.625l.52344-1.59375zm0 0"/><path fill="#211d1d" d="M229.86328 477.22266c.54688 0 .9961-.10547 1.34766-.32032.34765-.21484.52344-.51562.52344-.89843 0-.34375-.10547-.58204-.3125-.71875-.21485-.13672-.5-.21485-.85547-.22657l-1.6875-.14843c-.80078-.07422-1.44922-.33985-1.95313-.8047-.51172-.45312-.77344-1.08593-.78516-1.89843.01172-.98047.35547-1.71484 1.03516-2.20312.66016-.48829 1.4961-.73047 2.51172-.73047.4375 0 .83594.02734 1.1836.08203.34765.0586.67577.14453.98046.2539.58594.23829 1.11328.5625 1.57813.96485l-1.1836 1.38281c-.36718-.26172-.7578-.47656-1.16406-.64844-.40625-.15234-.8711-.23046-1.39453-.23046-.60156 0-1.01953.10937-1.25781.3203-.25.21485-.375.48829-.375.82813-.01172.21094.08203.39844.28515.5586.1836.17578.50782.28906.97266.33984l1.57813.11719c.98828.07422 1.70312.3711 2.14453.89844.41015.51562.61328 1.16406.61328 1.95312-.01172.92578-.38672 1.63672-1.1289 2.13672-.73048.51172-1.67188.77734-2.8125.78906-1.5547 0-2.95313-.57031-4.19142-1.70703l1.33985-1.3086c.77344.8125 1.77734 1.21876 3.00781 1.21876"/><path fill="#211d1d" d="M235.64063 469.39063h1.91406v9.51953h-1.91406zm0-3.85157h1.91406v1.91797h-1.91406zm0 0"/><path fill="#211d1d" d="M247.08984 477.36719c-.41406.48047-.90234.86719-1.46484 1.16797-.5625.3125-1.21484.47265-1.95313.48437-1.125 0-2.11328-.38281-2.96484-1.14453-.8789-.76563-1.33203-2.0039-1.35547-3.71484.02344-1.73047.47656-2.98438 1.35547-3.76172.85156-.76172 1.83984-1.13672 2.96484-1.125.73829.01172 1.39063.16406 1.95313.45703.5625.30078 1.05078.69922 1.46484 1.19922l-1.41015 1.25781c-.48438-.64063-1.1289-.97656-1.9336-1-1.6289-.02344-2.45312.96484-2.47656 2.97266.02344 1.99218.84766 2.97265 2.47656 2.9453.8047-.01562 1.44922-.34374 1.9336-.99218zm0 0"/><path fill="#211d1d" d="M253.41797 474.875h-2.28906c-1.11328.02344-1.66407.40625-1.65235 1.14453 0 .32422.14453.60156.4336.82813.27343.25.72656.375 1.36328.375.80078.01171 1.36719-.08204 1.69531-.28516.30078-.19922.44922-.66016.44922-1.375zm0 3.1914h-.03516c-.17578.32423-.45312.5625-.82422.71485-.36718.15625-.875.23828-1.52343.23828-1.0625-.01172-1.88282-.29297-2.45703-.84375-.60547-.53906-.90625-1.22656-.90625-2.0625 0-.80078.26171-1.46484.78515-1.99219.52734-.53515 1.29688-.8125 2.3125-.82421h2.64844v-1c.01562-.83594-.63672-1.2422-1.95313-1.21875-.47656 0-.85156.04687-1.125.14843-.28906.11328-.51562.3086-.67968.58594l-1.50391-1.14844c.72656-.95312 1.80078-1.41797 3.21875-1.39453 1.19922-.00781 2.15625.21485 2.8711.67969.71484.47656 1.07812 1.29687 1.08984 2.46094v6.5h-1.91797zm0 0"/><path fill="#211d1d" d="M257.8125 465.53906h1.91797v10.91406c0 .4336.23828.64844.71484.64844h.66016v1.8086h-.85156c-.69922 0-1.27344-.17579-1.72657-.52344-.47656-.35547-.71484-.95313-.71484-1.78906zm0 0"/><path fill="#211d1d" d="M271.29297 476.99219c1.73437-.02344 2.61719-.64453 2.64062-1.85938.01172-.9961-.5703-1.59765-1.74218-1.80078-.53907-.07031-1.12891-.15234-1.76954-.2461-1.14843-.1875-2.02343-.61327-2.62109-1.27343-.6211-.67969-.92969-1.5039-.92969-2.47656 0-1.16797.39063-2.10938 1.16407-2.82422.7539-.71094 1.8203-1.07031 3.20312-1.08203 1.66406.03515 3.10938.5 4.33594 1.38281l-1.125 1.67188c-1.0039-.66016-2.10938-1.00391-3.3125-1.02735-.6211 0-1.14453.15625-1.5586.46485-.43359.32421-.65625.80859-.66796 1.44921 0 .38672.14843.73438.4453 1.04688.30079.3164.78126.53906 1.44142.66015.36718.0625.86718.13282 1.5039.21094 1.2539.17188 2.17969.6211 2.77735 1.34766.59375.71484.89062 1.54687.89062 2.4961-.0664 2.55468-1.63281 3.85156-4.69531 3.88671-1.98047 0-3.6836-.60937-5.10938-1.83594l1.33203-1.51953c1.0625.875 2.32813 1.3164 3.79688 1.32813"/><path fill="#211d1d" d="M283.39844 473.29688c-.02735-.73829-.22266-1.29688-.59766-1.67579-.36719-.36328-.83594-.54296-1.41015-.54296-.57422 0-1.04688.17968-1.41407.54296-.35937.37891-.5586.9375-.59375 1.67579zm-4.01563 1.57812c0 .76563.21875 1.34375.66016 1.74219.40625.40234.94531.60547 1.61328.60547.77344 0 1.46875-.3086 2.08203-.92579l1.38281 1.1836c-.97265 1.03906-2.11718 1.55078-3.42968 1.53906-.5 0-.98829-.07422-1.46485-.21875-.24219-.08203-.47265-.1875-.69922-.32031-.23828-.11719-.46093-.26172-.66796-.4336-.40625-.35546-.73438-.84765-.98047-1.48437-.27735-.61328-.41407-1.40625-.41407-2.38672 0-.9414.1211-1.72265.35547-2.34765.23828-.63672.54688-1.13672.91797-1.50391.3789-.3711.80469-.64063 1.27344-.80469.46484-.16406.92578-.2461 1.3789-.2461 1.08594.01173 2.00782.3672 2.75782 1.07032.76562.71484 1.15234 1.69922 1.16406 2.95313v1.57812zm0 0"/><path fill="#211d1d" d="M294.32813 477.36719c-.41797.48047-.90625.86719-1.46875 1.16797-.5625.3125-1.21094.47265-1.95313.48437-1.125 0-2.10938-.38281-2.96094-1.14453-.8789-.76563-1.33203-2.0039-1.35547-3.71484.02344-1.73047.47657-2.98438 1.35547-3.76172.85156-.76172 1.83594-1.13672 2.96094-1.125.74219.01172 1.39063.16406 1.95313.45703.5625.30078 1.05078.69922 1.46875 1.19922l-1.41016 1.25781c-.48438-.64063-1.1289-.97656-1.9375-1-1.625-.02344-2.44922.96484-2.47656 2.97266.02734 1.99218.85156 2.97265 2.47656 2.9453.8086-.01562 1.45312-.34374 1.9375-.99218zm0 0"/><path fill="#211d1d" d="M295.65625 469.39063h1.91797v5.66796c0 .64063.17969 1.14454.54297 1.50391.35547.35938.80469.54297 1.35547.54297.55078 0 1-.1836 1.34765-.54297.35547-.35938.53516-.86328.53516-1.5039v-5.66798h1.91406v9.51954h-1.91406v-1.01954h-.03906c-.62891.75391-1.45313 1.12891-2.46875 1.12891-.78516-.01172-1.5-.30078-2.13282-.86328-.6914-.55078-1.04296-1.36328-1.05859-2.4375zm0 0"/><path fill="#211d1d" d="M305.7461 469.39063h1.91796v1.0078h.03516c.6289-.75 1.45703-1.125 2.47656-1.125.76563.01173 1.42969.25391 2 .73048l-1.39453 1.66015c-.40234-.3164-.82422-.47656-1.25781-.47656-.48828 0-.90625.16016-1.2539.47656-.39454.3125-.59376.8164-.60548 1.51563v5.73047h-1.91797zm0 0"/><path fill="#211d1d" d="M313.10938 469.39063h1.91796v9.51953h-1.91796zm0-3.85157h1.91796v1.91797h-1.91796zm0 0"/><path fill="#211d1d" d="M317.66797 466.49219h1.91797v2.89844h1.39453v1.45703h-1.39453v5.55078c-.01563.48047.21484.71875.67969.70703h.71484v1.80469h-1c-.67578 0-1.22266-.20704-1.65235-.625-.4414-.39844-.66015-.97266-.66015-1.72266v-5.71484h-.95313v-1.45704h.95313zm0 0"/><path fill="#211d1d" d="M321.41016 469.39063h2.02734l2.2539 6.66796h.03907l2.2461-6.66796h2.03515l-4.09766 11.49218c-.26562.71485-.6289 1.21094-1.09375 1.48438-.46875.26172-1 .39453-1.59375.39453h-.63281v-1.80469h.5586c.25 0 .48437-.07031.6953-.20312.21485-.14063.3672-.34766.45313-.625l.51953-1.59375zm0 0"/><path fill="#211d1d" d="M337.8164 471.39844h3.0625c.75782-.01172 1.32813-.23047 1.70704-.66016.3711-.39453.5586-.88672.5586-1.46484-.01173-.69922-.23438-1.20313-.67188-1.51563-.33985-.27344-.83594-.41015-1.48047-.41015h-3.17578zm-2.02734-5.85938h5.21875c1.11328 0 2.01953.29297 2.72266.8789.85156.66798 1.29687 1.6172 1.33203 2.85548-.02734 1.8125-.89063 3.05078-2.58984 3.70312l3.10156 5.9336h-2.41016l-2.76172-5.71485h-2.58593v5.71485h-2.02735zm0 0"/><path fill="#211d1d" d="M352.53516 473.29688c-.02344-.73829-.22266-1.29688-.59766-1.67579-.36719-.36328-.83594-.54296-1.41016-.54296-.57421 0-1.04687.17968-1.41406.54296-.35937.37891-.5586.9375-.59375 1.67579zm-4.01563 1.57812c0 .76563.21875 1.34375.66016 1.74219.41015.40234.94531.60547 1.61328.60547.77734 0 1.47265-.3086 2.08203-.92579l1.38281 1.1836c-.96875 1.03906-2.11328 1.55078-3.42578 1.53906-.5039 0-.99219-.07422-1.46875-.21875-.23828-.08203-.47265-.1875-.69531-.32031-.24219-.11719-.46485-.26172-.67188-.4336-.40234-.35546-.73046-.84765-.98046-1.48437-.27735-.61328-.41407-1.40625-.41407-2.38672 0-.9414.1211-1.72265.35938-2.34765.23828-.63672.54297-1.13672.91406-1.50391.38281-.3711.80469-.64063 1.27734-.80469.46485-.16406.92188-.2461 1.375-.2461 1.08594.01173 2.00782.3672 2.76172 1.07032.76172.71484 1.15235 1.69922 1.16406 2.95313v1.57812zm0 0"/><path fill="#211d1d" d="M359.7539 477.22266c.55079 0 .9961-.10547 1.34766-.32032.34766-.21484.52344-.51562.52344-.89843 0-.34375-.10547-.58204-.3125-.71875-.21484-.13672-.5-.21485-.85547-.22657l-1.6875-.14843c-.80078-.07422-1.44922-.33985-1.95312-.8047-.51172-.45312-.77344-1.08593-.78907-1.89843.01563-.98047.35938-1.71484 1.03907-2.20312.66015-.48829 1.49609-.73047 2.51171-.73047.44141 0 .83594.02734 1.1836.08203.34765.0586.67578.14453.98047.2539.58594.23829 1.11328.5625 1.57812.96485l-1.1836 1.38281c-.36718-.26172-.7539-.47656-1.16405-.64844-.40625-.15234-.8672-.23046-1.39454-.23046-.59765 0-1.01562.10937-1.2578.3203-.25.21485-.375.48829-.375.82813-.01173.21094.08202.39844.28515.5586.1836.17578.50781.28906.97265.33984l1.57813.11719c.98828.07422 1.70313.3711 2.14453.89844.41016.51562.61328 1.16406.61328 1.95312-.01172.92578-.38672 1.63672-1.1289 2.13672-.73047.51172-1.67188.77734-2.8125.78906-1.5547 0-2.94922-.57031-4.19141-1.70703l1.33984-1.3086c.77735.8125 1.77735 1.21876 3.00782 1.21876"/><path fill="#211d1d" d="M370.9414 473.29688c-.02734-.73829-.22656-1.29688-.59765-1.67579-.36719-.36328-.83594-.54296-1.41406-.54296-.57031 0-1.04297.17968-1.41016.54296-.35937.37891-.5586.9375-.59765 1.67579zm-4.01952 1.57812c0 .76563.22265 1.34375.66406 1.74219.40625.40234.94531.60547 1.61328.60547.77344 0 1.46875-.3086 2.08203-.92579l1.38281 1.1836c-.97265 1.03906-2.11719 1.55078-3.42969 1.53906-.5 0-.98828-.07422-1.46875-.21875-.23828-.08203-.46875-.1875-.6953-.32031-.23829-.11719-.46094-.26172-.66798-.4336-.40625-.35546-.73437-.84765-.98437-1.48437-.27344-.61328-.41016-1.40625-.41016-2.38672 0-.9414.1211-1.72265.35547-2.34765.23828-.63672.54688-1.13672.91797-1.50391.3789-.3711.80469-.64063 1.27344-.80469.46484-.16406.92578-.2461 1.375-.2461 1.08984.01173 2.01172.3672 2.76172 1.07032.76562.71484 1.15234 1.69922 1.16406 2.95313v1.57812zm0 0"/><path fill="#211d1d" d="M379.86328 474.875h-2.29297c-1.11328.02344-1.66406.40625-1.64844 1.14453 0 .32422.14063.60156.4297.82813.27343.25.73046.375 1.36718.375.80078.01171 1.36328-.08204 1.69531-.28516.30078-.19922.44922-.66016.44922-1.375zm0 3.1914h-.03515c-.1797.32423-.45313.5625-.82813.71485-.36719.15625-.8711.23828-1.52344.23828-1.0625-.01172-1.88281-.29297-2.45703-.84375-.60156-.53906-.90625-1.22656-.90625-2.0625 0-.80078.26172-1.46484.78906-1.99219.52344-.53515 1.29688-.8125 2.3086-.82421h2.65234v-1c.01172-.83594-.64062-1.2422-1.95312-1.21875-.47657 0-.85547.04687-1.12891.14843-.28516.11328-.51172.3086-.67969.58594l-1.5039-1.14844c.73046-.95312 1.80078-1.41797 3.21875-1.39453 1.19921-.00781 2.15625.21485 2.87109.67969.71484.47656 1.07813 1.29687 1.09375 2.46094v6.5h-1.91797zm0 0"/><path fill="#211d1d" d="M384.2539 469.39063h1.91798v1.0078h.03515c.63281-.75 1.45703-1.125 2.48047-1.125.76172.01173 1.42969.25391 1.9961.73048l-1.39454 1.66015c-.40234-.3164-.82031-.47656-1.25781-.47656-.48828 0-.90625.16016-1.2539.47656-.39063.3125-.59376.8164-.60548 1.51563v5.73047h-1.91796zm0 0"/><path fill="#211d1d" d="M398.57031 477.36719c-.41406.48047-.90234.86719-1.46875 1.16797-.5586.3125-1.21094.47265-1.94922.48437-1.125 0-2.11328-.38281-2.96484-1.14453-.8789-.76563-1.33203-2.0039-1.35547-3.71484.02344-1.73047.47656-2.98438 1.35547-3.76172.85156-.76172 1.83984-1.13672 2.96484-1.125.73829.01172 1.39063.16406 1.94922.45703.5664.30078 1.05469.69922 1.46875 1.19922l-1.41015 1.25781c-.48438-.64063-1.12891-.97656-1.9375-1-1.625-.02344-2.44922.96484-2.47266 2.97266.02344 1.99218.84766 2.97265 2.47266 2.9453.80859-.01562 1.45312-.34374 1.9375-.99218zm0 0"/><path fill="#211d1d" d="M399.90234 465.53906h1.91797v4.85938h.03516c.6289-.75 1.45312-1.125 2.47656-1.125.78906 0 1.50781.27734 2.16406.83203.64844.5625.98438 1.38672 1.01563 2.47656v6.32813h-1.91406v-5.66797c0-.66797-.17579-1.17188-.53516-1.52344-.34766-.35156-.79688-.53125-1.34766-.53125-.54687 0-1 .17969-1.35546.53125-.35938.35156-.53907.85547-.53907 1.52344v5.66797h-1.91797zm0 0"/><path fill="#211d1d" d="M423.67969 475.16797c-.29297 1.24219-.85156 2.19531-1.67969 2.85937-.84766.66016-1.85156.9922-3.01563.9922-1.05078-.02345-1.92578-.28126-2.6289-.76954-.71875-.47266-1.23828-1.01563-1.5625-1.63281-.09766-.20313-.1836-.39453-.26563-.57813-.07421-.1875-.1328-.42578-.18359-.71484-.08984-.53906-.13672-1.57031-.13672-3.09766 0-1.55469.04688-2.59375.13672-3.1211.09766-.52343.25-.94921.44922-1.27343.32422-.61719.84375-1.16797 1.5625-1.65234.70312-.48828 1.57812-.73828 2.6289-.75 1.28907.01172 2.34375.39453 3.15625 1.14453.8125.75781 1.32422 1.69922 1.53907 2.8164h-2.14453c-.16407-.53906-.46485-.99609-.89844-1.375-.45313-.35937-1.0039-.54687-1.65235-.55859-.47656.01172-.88671.10547-1.23046.28125-.34375.1836-.62891.41406-.84375.6914-.26172.28516-.4336.65626-.51954 1.10938-.09765.47656-.14843 1.3711-.14843 2.6875 0 1.3125.05078 2.20313.14844 2.66797.08593.46094.2578.83985.51953 1.1289.21484.27344.5.4961.84375.66407.34375.20313.7539.30469 1.23046.30469 1.13672 0 1.98829-.60938 2.55079-1.82422zm0 0"/><path fill="#211d1d" d="M430.40234 473.29688c-.02343-.73829-.22265-1.29688-.59765-1.67579-.36719-.36328-.83594-.54296-1.41016-.54296-.57422 0-1.04687.17968-1.41406.54296-.35938.37891-.5586.9375-.59375 1.67579zm-4.01562 1.57812c0 .76563.21875 1.34375.66015 1.74219.40625.40234.94532.60547 1.61329.60547.77343 0 1.46875-.3086 2.08203-.92579l1.38281 1.1836c-.96875 1.03906-2.11719 1.55078-3.42969 1.53906-.5 0-.98828-.07422-1.46484-.21875-.23828-.08203-.47266-.1875-.69922-.32031-.23828-.11719-.46094-.26172-.66797-.4336-.40234-.35546-.73437-.84765-.98047-1.48437-.27734-.61328-.41406-1.40625-.41406-2.38672 0-.9414.1211-1.72265.35547-2.34765.24219-.63672.54687-1.13672.91797-1.50391.3789-.3711.80469-.64063 1.27344-.80469.46484-.16406.92578-.2461 1.3789-.2461 1.08594.01173 2.00781.3672 2.76172 1.07032.76172.71484 1.14844 1.69922 1.16406 2.95313v1.57812zm0 0"/><path fill="#211d1d" d="M434.32813 469.39063h1.91406v1.0078h.03906c.6289-.75 1.45313-1.125 2.47656-1.125.78906 0 1.50781.27735 2.16406.83204.64454.5625.98438 1.38672 1.01563 2.47656v6.32813h-1.91797v-5.66797c0-.66797-.17578-1.17188-.53125-1.52344-.34765-.35156-.79687-.53125-1.34765-.53125-.55079 0-1 .17969-1.35547.53125-.36329.35156-.54297.85547-.54297 1.52344v5.66797h-1.91406zm0 0"/><path fill="#211d1d" d="M444.52344 466.49219h1.91797v2.89844h1.39453v1.45703h-1.39453v5.55078c-.01172.48047.21484.71875.67968.70703h.71485v1.80469h-1c-.67188 0-1.22266-.20704-1.65235-.625-.4375-.39844-.66015-.97266-.66015-1.72266v-5.71484h-.95313v-1.45704h.95313zm0 0"/><path fill="#211d1d" d="M455.09766 473.29688c-.02344-.73829-.22266-1.29688-.59375-1.67579-.3672-.36328-.83985-.54296-1.41407-.54296-.57421 0-1.04687.17968-1.41406.54296-.35937.37891-.5586.9375-.59375 1.67579zm-4.01563 1.57812c0 .76563.21875 1.34375.66016 1.74219.41015.40234.94922.60547 1.61328.60547.77734 0 1.47265-.3086 2.08203-.92579l1.38672 1.1836c-.97266 1.03906-2.11719 1.55078-3.42969 1.53906-.5039 0-.99219-.07422-1.46875-.21875-.23828-.08203-.47265-.1875-.69531-.32031-.24219-.11719-.46485-.26172-.67188-.4336-.40234-.35546-.73046-.84765-.98046-1.48437-.27735-.61328-.41407-1.40625-.41407-2.38672 0-.9414.1211-1.72265.35938-2.34765.23828-.63672.54297-1.13672.91797-1.50391.3789-.3711.80078-.64063 1.27343-.80469.46485-.16406.92188-.2461 1.375-.2461 1.08985.01173 2.00782.3672 2.76172 1.07032.76172.71484 1.15235 1.69922 1.16406 2.95313v1.57812zm0 0"/><path fill="#211d1d" d="M459.02344 469.39063h1.91797v1.0078h.03515c.6289-.75 1.45313-1.125 2.47656-1.125.76172.01173 1.4297.25391 2 .73048l-1.39453 1.66015c-.40234-.3164-.82421-.47656-1.2578-.47656-.48829 0-.90626.16016-1.25392.47656-.39062.3125-.59375.8164-.60546 1.51563v5.73047h-1.91797zm0 0"/></g></svg>