<svg xmlns="http://www.w3.org/2000/svg" role="img" xmlns:xlink="http://www.w3.org/1999/xlink" viewBox="-1.61 1.64 213.46 123.21"><title>Cycuity, Inc. (member) logo</title><defs><path d="M22.70313-44.21094c5.44921 0 9.67968 1.4375 12.6875 4.3086 3.0078 2.87109 4.67968 6.1328 5.0078 9.78515h-5.67968c-.64453-2.77343-1.92969-4.96875-3.85547-6.59375-1.92187-1.6211-4.6211-2.42968-8.09765-2.42968-4.23829 0-7.66407 1.48828-10.26954 4.46874-2.60937 2.97657-3.91015 7.54297-3.91015 13.69532 0 5.03906 1.17578 9.125 3.52734 12.26172 2.35547 3.1328 5.86328 4.69922 10.53516 4.69922 4.29687 0 7.5664-1.64844 9.8125-4.94922 1.1914-1.73828 2.07812-4.02344 2.66406-6.85547h5.6875c-.50781 4.53125-2.1875 8.32812-5.03906 11.39843-3.41797 3.69141-8.03125 5.53516-13.82813 5.53516-5 0-9.20312-1.51172-12.60156-4.54297-4.47266-4.0039-6.70703-10.1836-6.70703-18.54297 0-6.34765 1.67969-11.55078 5.03906-15.61328 3.63281-4.41406 8.64453-6.625 15.02735-6.625zm0 0" id="a"/><path d="M23.46875-31.375h5.82813c-.7422 2.01172-2.39063 6.60156-4.95313 13.76563-1.91406 5.39062-3.51563 9.78906-4.80469 13.1875-3.04687 8.0078-5.19531 12.89062-6.44531 14.64843-1.25 1.75782-3.39844 2.63282-6.44531 2.63282-.74219 0-1.3125-.02735-1.71094-.08594-.40234-.0586-.89453-.16407-1.48047-.32032V7.64844c.91797.2539 1.58203.40625 1.99219.46875.41015.0586.76953.08593 1.08203.08593.97656 0 1.69531-.16015 2.15625-.48437.45703-.32031.84375-.71875 1.15625-1.1875.09766-.15625.44922-.95313 1.05469-2.39844.60547-1.44531 1.04687-2.52344 1.32031-3.22656L.61719-31.375h5.97656L15-5.82812zm0 0" id="b"/><path d="M15.96875-32.28516c3.53516 0 6.41016.85938 8.625 2.57813 2.21875 1.71875 3.55078 4.67578 4 8.8789h-5.125c-.3125-1.93359-1.02734-3.54296-2.14063-4.8203-1.11328-1.28126-2.89843-1.92188-5.35937-1.92188-3.35938 0-5.76563 1.64062-7.21094 4.92187-.9375 2.1289-1.40625 4.75782-1.40625 7.88282 0 3.14453.66406 5.78906 1.99219 7.9375 1.32813 2.14843 3.42188 3.22656 6.27344 3.22656 2.1875 0 3.91797-.67188 5.19922-2.00781 1.27734-1.33985 2.16015-3.17188 2.65234-5.4922h5.125c-.58594 4.16016-2.05078 7.19923-4.39453 9.125C21.85547-.05468 18.85937.90626 15.20312.90626c-4.10156 0-7.37109-1.4961-9.8125-4.4961-2.4414-2.99609-3.66406-6.74218-3.66406-11.23437 0-5.50781 1.33985-9.79297 4.01563-12.86328 2.67578-3.0664 6.08594-4.59766 10.22656-4.59766zm0 0" id="c"/><path d="M9.14063-31.375v20.82813c0 1.60156.2539 2.91015.76171 3.92578.9375 1.875 2.6836 2.8125 5.2461 2.8125 3.67187 0 6.17187-1.64063 7.5-4.92188.72265-1.75781 1.08203-4.16797 1.08203-7.23828V-31.375h5.27344V0h-4.98047l.0586-4.6289c-.6836 1.1914-1.53516 2.19921-2.55079 3.01952C19.51953.03126 17.07812.85156 14.21094.85156c-4.47266 0-7.52344-1.4961-9.14063-4.48437C4.19141-5.23437 3.75-7.375 3.75-10.04688V-31.375zm0 0" id="d"/><path d="M3.86719-31.23047h5.35937V0H3.8672zm0-11.8086h5.35937v5.97657H3.8672zm0 0" id="e"/><path d="M4.92188-40.13672h5.33203v8.76172h5.01172v4.30469H10.2539v20.47656c0 1.09375.37109 1.82813 1.11328 2.19922.41015.21484 1.09375.32422 2.05078.32422.2539 0 .52734-.00781.82031-.01563.29297-.01172.63672-.03515 1.02735-.07422V0c-.60547.17578-1.23829.30469-1.89063.38281C12.71875.46094 12.01172.5 11.25.5 8.78906.5 7.11719-.13281 6.24219-1.39063c-.8789-1.26171-1.32031-2.89843-1.32031-4.90625V-27.0703h-4.25V-31.375h4.25zm0 0" id="f"/><path d="M4.98047 6.125c1.34765-.23438 2.29297-1.1836 2.83984-2.84375.29297-.8789.4414-1.72656.4414-2.54688 0-.13671-.0039-.26171-.01562-.36718C8.2383.2578 8.21094.13672 8.17187 0h-3.1914v-6.38672H11.25v5.91797c0 2.32422-.46875 4.36719-1.40625 6.125s-2.5586 2.83984-4.86328 3.25zm0 0" id="g"/><path d="M5.89063-43.03906h5.88671V0H5.89062zm0 0" id="h"/><path d="M3.86719-31.375H8.875v4.45313c1.48438-1.83594 3.0586-3.15626 4.71875-3.95704 1.66016-.80078 3.50781-1.19921 5.53906-1.19921 4.45313 0 7.46094 1.55078 9.02344 4.65624.85938 1.69922 1.28906 4.13282 1.28906 7.29688V0h-5.36328v-19.77344c0-1.91406-.28515-3.46093-.84765-4.63281-.9375-1.95313-2.64063-2.92969-5.10157-2.92969-1.25 0-2.27343.1289-3.07422.38282-1.4453.42968-2.71484 1.28906-3.80859 2.57812-.8789 1.03516-1.44922 2.10547-1.71484 3.20703-.26172 1.10547-.39453 2.6836-.39453 4.73047V0H3.86719zm0 0" id="i"/><path d="M5.125-6.38672h6.125V0H5.125zm0 0" id="j"/></defs><use y="50" xlink:href="#a"/><use x="43.33" y="50" xlink:href="#b"/><use x="73.33" y="50" xlink:href="#c"/><use x="103.33" y="50" xlink:href="#d"/><use x="136.699" y="50" xlink:href="#e"/><use x="150.029" y="50" xlink:href="#f"/><use x="166.699" y="50" xlink:href="#b"/><use x="196.699" y="50" xlink:href="#g"/><g><use y="120" xlink:href="#h"/><use x="16.67" y="120" xlink:href="#i"/><use x="50.039" y="120" xlink:href="#c"/><use x="80.039" y="120" xlink:href="#j"/></g></svg>