<svg xmlns="http://www.w3.org/2000/svg" role="img" viewBox="-2.08 -1.83 211.90 33.40"><title>DeepComputing (member) logo</title><defs><style>.b{fill:#2b2d42}</style></defs><path d="M2 5.19h7.59c5.64 0 9.48 3.47 9.48 8.69s-3.85 8.69-9.48 8.69H2V5.19zm7.45 14.64c3.87 0 6.38-2.36 6.38-5.96s-2.51-5.96-6.38-5.96H5.23v11.91h4.22zm25.16-2.9h-10.4c.37 1.94 1.99 3.18 4.29 3.18 1.49 0 2.66-.47 3.6-1.44l1.66 1.91c-1.19 1.41-3.05 2.16-5.34 2.16-4.44 0-7.32-2.85-7.32-6.8s2.9-6.78 6.85-6.78 6.7 2.71 6.7 6.85c0 .25-.03.62-.05.92zm-10.43-2.06h7.52c-.25-1.91-1.71-3.23-3.75-3.23s-3.48 1.29-3.77 3.23zm26.01 2.06h-10.4c.37 1.94 1.99 3.18 4.29 3.18 1.49 0 2.66-.47 3.6-1.44l1.66 1.91c-1.19 1.41-3.05 2.16-5.34 2.16-4.44 0-7.32-2.85-7.32-6.8s2.9-6.78 6.85-6.78 6.7 2.71 6.7 6.85c0 .25-.02.62-.05.92zm-10.42-2.06h7.52c-.25-1.91-1.71-3.23-3.75-3.23s-3.47 1.29-3.77 3.23zm26.58 1.07c0 4.12-2.85 6.8-6.73 6.8-1.69 0-3.18-.57-4.24-1.79v6.43h-3.1V9.31h2.95v1.74c1.04-1.27 2.58-1.89 4.39-1.89 3.87 0 6.73 2.68 6.73 6.78zm-3.15 0c0-2.53-1.69-4.15-3.92-4.15s-3.95 1.61-3.95 4.15 1.71 4.15 3.95 4.15 3.92-1.61 3.92-4.15zm5.18-2.06c0-5.19 3.97-8.94 9.31-8.94 2.83 0 5.26 1.02 6.88 2.9L82.48 9.8c-1.27-1.37-2.83-2.04-4.64-2.04-3.6 0-6.21 2.53-6.21 6.11s2.61 6.11 6.21 6.11c1.81 0 3.38-.67 4.64-2.06l2.09 1.98c-1.61 1.89-4.05 2.9-6.9 2.9-5.31 0-9.28-3.75-9.28-8.94zm18.21 2.06c0-3.97 2.98-6.78 7.05-6.78s7.07 2.8 7.07 6.78-2.95 6.8-7.07 6.8-7.05-2.83-7.05-6.8zm11 0c0-2.53-1.69-4.15-3.95-4.15s-3.92 1.61-3.92 4.15 1.69 4.15 3.92 4.15 3.95-1.61 3.95-4.15zm27.32-.97v7.6h-3.1v-7.2c0-2.36-1.09-3.5-2.98-3.5-2.04 0-3.45 1.34-3.45 3.97v6.73h-3.1v-7.2c0-2.36-1.09-3.5-2.98-3.5-2.06 0-3.45 1.34-3.45 3.97v6.73h-3.1V9.31h2.95V11c.99-1.19 2.53-1.84 4.34-1.84 1.94 0 3.55.72 4.47 2.21 1.07-1.37 2.85-2.21 4.96-2.21 3.2 0 5.44 1.81 5.44 5.81zm16.11.97c0 4.12-2.85 6.8-6.73 6.8-1.69 0-3.18-.57-4.24-1.79v6.43h-3.1V9.31h2.95v1.74c1.04-1.27 2.58-1.89 4.39-1.89 3.87 0 6.73 2.68 6.73 6.78zm-3.15 0c0-2.53-1.69-4.15-3.92-4.15S130 13.4 130 15.94s1.71 4.15 3.95 4.15 3.92-1.61 3.92-4.15zm18.11-6.63v13.25h-2.95v-1.69c-.99 1.22-2.56 1.86-4.27 1.86-3.4 0-5.71-1.86-5.71-5.86V9.3h3.1v7.15c0 2.41 1.14 3.55 3.1 3.55 2.16 0 3.62-1.34 3.62-4V9.3h3.1zm11.76 12.54c-.74.6-1.86.89-2.98.89-2.9 0-4.57-1.54-4.57-4.47v-6.38h-2.18V9.41h2.18V6.38h3.1v3.03h3.55v2.48h-3.55v6.3c0 1.29.65 1.99 1.84 1.99.65 0 1.26-.17 1.74-.55l.87 2.21zm2.9-12.54h3.1v13.25h-3.1V9.31z" class="b"/><path fill="#d81f2b" d="M169.77 4.72c0-1.28 1.03-2.28 2.43-2.28s2.43.94 2.43 2.19c0 1.34-1 2.37-2.43 2.37s-2.43-1-2.43-2.28z"/><path d="M189.72 14.97v7.6h-3.1v-7.2c0-2.36-1.17-3.5-3.15-3.5-2.21 0-3.7 1.34-3.7 4v6.7h-3.1V9.31h2.95v1.71c1.02-1.22 2.63-1.86 4.57-1.86 3.18 0 5.53 1.81 5.53 5.81zM206 9.31v11.24c0 4.81-2.51 7-7.15 7-2.48 0-4.94-.65-6.45-1.89l1.39-2.33c1.17.97 3.05 1.59 4.89 1.59 2.93 0 4.22-1.34 4.22-4.02v-.69c-1.09 1.19-2.66 1.76-4.44 1.76-3.8 0-6.7-2.58-6.7-6.43s2.9-6.38 6.7-6.38c1.86 0 3.5.6 4.59 1.91V9.31H206zm-3.05 6.23c0-2.23-1.69-3.75-4.02-3.75s-4.04 1.51-4.04 3.75 1.69 3.8 4.04 3.8 4.02-1.54 4.02-3.8z" class="b"/></svg>