<svg xmlns="http://www.w3.org/2000/svg" role="img" viewBox="316.80 91.80 556.40 357.40"><title>DFRobot (member) logo</title><style>svg {enable-background:new 0 0 1190.5 541.5}</style><path d="M426.1 421.2c1.7 0 3.1.1 4.2.3 1.1.2 2.1.6 2.8 1 1.2.8 2.1 1.8 2.8 3.1.7 1.3 1 2.7 1 4.3 0 3-.9 5.2-2.7 6.7-1.8 1.5-4.5 2.2-8.2 2.2h-10.2v-17.6h10.3zm-.4 2.6h-6.5v12.3h6.5c2.9 0 4.9-.5 6.1-1.5 1.2-1 1.8-2.6 1.8-4.8 0-2.2-.6-3.7-1.8-4.7-1.2-.8-3.2-1.3-6.1-1.3zm16.7 15v-17.6h14.2c1.3 0 2.3.3 2.8.8.6.5.9 1.4.9 2.6v3.9c0 1.2-.3 2.1-.9 2.6-.6.5-1.5.8-2.8.8h-2.3l7.8 6.9h-4.4l-7-6.9h-4.8v6.9h-3.5zm12.7-15h-9.4v5.7h9.4c.7 0 1.2-.1 1.5-.4.3-.2.4-.7.4-1.4v-2.1c0-.6-.1-1.1-.4-1.4-.3-.3-.8-.4-1.5-.4zm13.5 15h-3.3v-17.6h3.3v17.6zm12.6 0L471 421.2h3.6l7.9 14.2 7.6-14.2h3.3l-9.6 17.6h-2.6zm14.7 0v-17.6h17.8v2.6h-14.4v4.5h8.7v2.6h-8.7v5.3h14.6v2.6h-18zm43.2-15v15h-3.3v-15h-8.3v-2.6h20v2.6h-8.4zm10.9 15v-17.6h3.3v7.1h14.1v-7.1h3.3v17.6h-3.3V431h-14.1v7.9H550zm26.3 0v-17.6h17.8v2.6h-14.4v4.5h8.7v2.6h-8.7v5.3h14.6v2.6h-18zm34.8 0v-17.6h17.5v2.6h-14.2v5.4h8v2.6h-8v7h-3.3zm23.4-17.6v15h12.9v-15h3.4v13.5c0 1.6-.3 2.7-.9 3.3-.6.6-1.7.9-3.4.9h-10.9c-1.7 0-2.8-.3-3.4-.9-.6-.6-.9-1.7-.9-3.3v-13.5h3.2zm30.4 2.6v15h-3.3v-15h-8.3v-2.6h20v2.6h-8.4zm14.2-2.6v15H692v-15h3.4v13.5c0 1.6-.3 2.7-.9 3.3-.6.6-1.7.9-3.4.9h-10.9c-1.7 0-2.8-.3-3.4-.9-.6-.6-.9-1.7-.9-3.3v-13.5h3.2zm21.9 17.6v-17.6h14.2c1.3 0 2.3.3 2.8.8.6.5.9 1.4.9 2.6v3.9c0 1.2-.3 2.1-.9 2.6-.6.5-1.5.8-2.8.8h-2.3l7.8 6.9h-4.4l-7-6.9h-4.8v6.9H701zm12.7-15h-9.4v5.7h9.4c.7 0 1.2-.1 1.5-.4.3-.2.4-.7.4-1.4v-2.1c0-.6-.1-1.1-.4-1.4-.3-.3-.8-.4-1.5-.4zm10.3 15v-17.6h17.8v2.6h-14.4v4.5h8.7v2.6h-8.7v5.3H742v2.6h-18zm-45.4-278.7c-3.1-5.3-9.9-7.1-15.2-4.1-4 2.3-6 6.7-5.5 11l-14.8 8.5c-.1-.1-.2-.1-.3-.2-.5-.3-1-.6-1.6-.9l-57-32.9-.2-.1c-.3-.1-.6-.3-.9-.4v-17c4-1.7 6.8-5.6 6.8-10.2 0-6.1-5-11.1-11.1-11.1s-11.1 5-11.1 11.1c0 4.6 2.8 8.5 6.8 10.2v17c-.3.1-.6.3-.9.4l-58.5 33.8-.1.1c-.2.1-.4.3-.6.4l-14.6-8.4c.5-4.3-1.5-8.7-5.5-11-5.3-3.1-12.1-1.2-15.2 4.1-3.1 5.3-1.2 12.1 4.1 15.2 4 2.3 8.8 1.9 12.3-.7l14.8 8.5c0 .3-.1.7-.1 1V251c0 3.9 2.1 7.6 5.5 9.5l57.8 33.4.1.1c1.6.9 3.4 1.3 5.2 1.3 1.8 0 3.6-.5 5.3-1.3l57.7-33.3h.1c3.5-1.9 5.7-5.6 5.7-9.6v-66.7c0-.4 0-.9-.1-1.3l14.8-8.5c3.5 2.6 8.3 3.1 12.3.8 5.3-3.2 7.1-10 4-15.3zm-39.7 76.5c0 2.3-2 4.3-5.3 5.3l-50.4 15.8c-1.3.4-2.8.6-4.2.6-1.5 0-2.9-.2-4.2-.6h-.1l-50.5-15.8c-3.2-1-5.1-3-5.1-5.3v-24.7H639v24.7z"/><path d="M525.1 238.9l50.5 15.8c2.1.6 4.7.6 6.7 0l50.4-15.8c2-.6 3-1.6 3-2.3v-21.5H522.2v21.5c0 .7.9 1.6 2.9 2.3zm2.4-18.9h102.8v12.1c0 1.4-1.5 2.7-3.6 3.3h-.1l-44.3 13.9h-.1c-1 .3-2.1.5-3.3.5-1.2 0-2.3-.2-3.3-.5h-.1l-44.3-13.9-.2-.1c-2.1-.7-3.5-1.9-3.5-3.3v-12z"/><path fill="#ff5a00" d="M403.3 373.5c0 11.3-4.7 19.6-14.1 25.1-5.2 3-13.6 4.5-25.2 4.5h-36.4v-58.6h40c10.5 0 18.9 2.2 25.1 6.5 7.1 5.1 10.6 12.6 10.6 22.5zm-18.6-.2c0-9.8-5.7-14.8-17-14.8h-21.9v30.2h15.3c7.3 0 12.7-.8 16.1-2.4 5-2.2 7.5-6.6 7.5-13zm90.2-15h-45.6v10.1H465v14.1h-35.7v20.7h-18.2v-58.6h63.8v13.7z"/><path d="M482.6 403.2v-58.6h47.2c4.4 0 7.6.9 9.5 2.7 1.9 1.8 2.9 4.7 2.9 8.7v13c0 4-1 6.8-2.9 8.6-1.9 1.8-5.1 2.7-9.5 2.7h-8.6l26.8 22.8h-14.5l-23.8-22.8h-17.2v22.8h-9.9zm43.4-51h-33.6v20.6H526c2.4 0 4.1-.4 5-1.3.9-.9 1.3-2.4 1.3-4.7v-8.5c0-2.2-.5-3.8-1.4-4.7-.9-1-2.5-1.4-4.9-1.4zm24.1 6.2c0-5.3 1-9 2.9-10.9 1.9-2 5.5-2.9 10.9-2.9h40.5c5.3 0 8.9 1 10.8 2.9 1.9 1.9 2.9 5.6 2.9 10.9v30.9c0 5.4-1 9.1-2.9 11-1.9 1.9-5.5 2.9-10.8 2.9h-40.5c-5.4 0-9-1-10.9-2.9-1.9-2-2.9-5.6-2.9-10.9v-31zm9.8 36.6h48.5v-42.4h-48.5V395zm66.3 8.2v-58.6h47.2c4.4 0 7.6.9 9.5 2.7 1.9 1.8 2.9 4.7 2.9 8.7v6.8c0 3.1-.8 5.5-2.4 7-1.6 1.6-4 2.5-7.4 2.9 3.3.4 5.8 1.6 7.5 3.5 1.7 1.9 2.6 4.6 2.6 8v7.5c0 3.9-1.3 6.8-4 8.6-2.7 1.9-6.8 2.8-12.2 2.8h-43.7zm49.6-39.8v-5.9c0-1.9-.4-3.2-1.2-4-.8-.7-2.4-1.1-4.7-1.1H636v16.2h33.8c2.3 0 3.8-.4 4.7-1.2.8-.7 1.3-2 1.3-4zm.5 24.8v-4.9c0-2.7-.5-4.5-1.4-5.5-.9-1-2.6-1.5-5.1-1.5H636v18.8h33.8c2.5 0 4.2-.5 5.1-1.5.9-1 1.4-2.8 1.4-5.4zm17.6-29.8c0-5.3 1-9 2.9-10.9 1.9-2 5.5-2.9 10.9-2.9h40.5c5.3 0 8.9 1 10.8 2.9 1.9 1.9 2.9 5.6 2.9 10.9v30.9c0 5.4-1 9.1-2.9 11-1.9 1.9-5.5 2.9-10.8 2.9h-40.5c-5.4 0-9-1-10.9-2.9-1.9-2-2.9-5.6-2.9-10.9v-31zm9.7 36.6h48.5v-42.4h-48.5V395zm99.7-42.4v50.6h-9.8v-50.6h-26.8v-8h63.4v8h-26.8zm49.5 12.2c-5.6 0-10.1-4.5-10.1-10.1s4.5-10.1 10.1-10.1 10.1 4.5 10.1 10.1-4.5 10.1-10.1 10.1zm0-18.1c-4.4 0-8 3.6-8 8s3.6 8 8 8 8-3.6 8-8-3.6-8-8-8z"/><path d="M858 359.1h-2l-3.1-3.9h-1.8v3.9h-1.5V350h4.3c2.1.1 3.1.9 3.2 2.6 0 1.5-.8 2.4-2.4 2.6l3.3 3.9zm-6.9-7.7v2.6h2.5c1.3 0 2-.5 1.9-1.4 0-.8-.7-1.2-1.9-1.2h-2.5z"/></svg>