<svg xmlns="http://www.w3.org/2000/svg" role="img" viewBox="-6.26 -6.26 312.26 70.51"><title>Efinix Inc (member) logo</title><path d="M.1 26.2c.2 14.5.5 25 .8 23.5l.6-2.8 2.9 3c4.4 4.6 8 4 12-1.9 2.5-3.8 1.9-4.5-1-1.1-3.1 3.8-9 4.3-11.8 1.2-3.2-3.5-.3-7.8 6.2-9.2l3.7-.8-4.3.3c-2.9.3-4.9 1.2-6.3 2.8-1.6 1.8-1.8 1.9-1 .3 1.4-2.8 8.3-38.2 7.8-40.3C9.5.3 8.8 2 8.2 5l-1.1 5.5.4-5.3.4-5.2h-8l.2 26.2zm4.4-.6C3.2 32.1 2 37.9 2 38.4s-.3.7-.6.3c-.3-.3.7-6.7 2.3-14.2 1.5-7.6 2.9-13.1 3.1-12.3.1.8-.9 6.8-2.3 13.4zm6.8 26.1c-.7.2-2.1.2-3 0-1-.3-.4-.5 1.2-.5 1.7 0 2.4.2 1.8.5zM49 .7c0 .6-1.8 1.3-4 1.6C39.3 3 33.8 6 31.3 9.8 29.2 13 24.1 25.4 22.6 31c-.4 1.4.6.2 2.1-2.5C29 21 33.4 14.9 37.3 11.1c6.2-5.8 14.9-5.4 22.7 1.3l2.5 2.1-2.4-2.7C56.8 8.1 52 6 46.7 6c-5.9 0-7-1.8-1.7-2.6 3.9-.6 5.8-1.9 4.6-3.1-.3-.4-.6-.2-.6.4zm-8.6 4.9c1.2.5.7 1.2-2.2 3.4-2.2 1.5-5.8 5.6-8 9-2.3 3.4-4.2 5.9-4.2 5.6 0-.4 1.4-3.7 3-7.3C32.2 9.3 34.6 6 36.4 6c.6 0 0 .7-1.2 1.6-1.2.8-2.2 2.2-2.2 3 0 1.1 1 .7 3.5-1.3 2.3-1.9 3-3 2.2-3.5-1.4-.9-.5-1 1.7-.2z"/><path d="M31 14c-.6 1.1-.8 2-.6 2 .3 0 1-.9 1.6-2 .6-1.1.8-2 .6-2-.3 0-1 .9-1.6 2zM50.3 1.8C49.6 2.9 48 4 46.8 4.3c-1.4.3-.9.5 1.5.6 4.8.1 7.2 1.3 12.3 6.3l4.1 3.9-1.9 9.7c-1.9 9.5-4.9 16.4-8.4 19.3-.9.8-.3-.7 1.5-3.2 2.4-3.4 3.8-7.2 5.5-15.2 1.3-5.9 2-10.9 1.7-11.2-.4-.2-1.7 4.7-2.9 10.8C57.8 37.8 55 42.9 49 46.2c-4.3 2.4-10.9 1.9-21.1-1.5-3.7-1.3-6.6-2-6.3-1.6.9 1.5 13.4 5.8 15 5.2 1.2-.4 1.5-.3 1 .5-1 1.6 8.1.4 11.1-1.4 2.8-1.7 3.4-1.8 3.1-.2-.2.7-2.8 1.8-5.8 2.4-4.6 1-4.9 1.2-2 1.2 3.1.1 6.3-.8 12.4-3.3 1.7-.8 1.8-.5 1.2 3.1-.4 2.1-.9 4.8-1.2 5.9-.4 1.5-.3 1.6.4.6.8-1.1 1-1.1 1.5 0 .3.8.3-.4.1-2.6-.3-3.1-.2-3.5.5-1.5.7 2.3.8 2.3 1.3.5.3-1.1.4-.4.2 1.5-.8 8.5 1.6-1.1 5.7-22.5 2.4-12.6 4.5-22.3 4.7-21.4.3 1.6-3.7 26.7-6.2 38.4l-1.3 6.3 5.9 1.2c4.7 1 7.3 1 12.8.1 3.7-.7 9.7-1.1 13.1-1 6 .3 6.4.1 7-2.2 1.7-5.9 1.8-5.9-9.3-6-5.7 0-11.2-.4-12.3-.9-1.3-.5 3-.9 11.3-.9l13.4-.1-.7 4.2c-.3 2.4-.8 5-1.1 5.9-.3.9.2 1.6 1.1 1.6 1.2 0 1.4-.8 1-3.6-.4-2.7-.3-3.1.4-1.6l1 2-.1-2c0-1.1-.3-3.1-.7-4.5-.7-2.5-.8-2.5-14.1-3l-13.5-.6 13.1-.2c15.3-.2 15.8 0 15.8 8.4 0 2.9.2 5.2.4 5 .2-.2 2.5-11.3 5.2-24.7 2.7-13.4 4.7-21.9 4.4-18.9-.6 5.8-3.4 22.5-5.7 34.7l-1.4 7.2 4.9 1c2.7.6 11.1 1.1 18.8 1.1h13.9l1.1-5.8c.6-3.1 1.3-6.2 1.6-6.7.5-1.2-.5 7.1-1.3 10.5-.3 1.4-.3 2.2.1 1.9.4-.4 1.7-6 3.1-12.5 1.3-6.6 2.4-10.8 2.4-9.4.1 2.9-1.7 15.6-2.5 18.2-.8 2.5 3.8 4.5 6.9 3.1 1.9-.9 2.6-2.4 3.6-7.9.6-3.8 2.7-14.1 4.6-22.9 1.9-8.8 3.7-18.1 4.1-20.8l.6-4.7h-4.6c-4.2 0-4.6.2-5.2 2.7-.3 1.6-1.4 5.5-2.3 8.8l-1.8 6 .1-5.2c.1-2.8.4-4.9.7-4.7.8.5 2.2-7.7 1.4-8.4-.9-1-1.7.6-2.9 6l-1.1 5.3-13.2.3c-12.6.2-13.1.3-13.7 2.5-1.2 4.4-.4 6.2.9 2.2l1.4-4-.6 3.7-.5 3.8h9.9c5.5 0 10.2.2 10.5.5.5.5-1.9 12.6-2.7 13.3-.7.7-21.5.7-21.5-.1 0-.8 6.2-1.2 14.1-.8 6.3.3 6.3.2 7.3-5.2l.7-3.7H126.8l.7-4.8c1.4-10.1.1-9.2 14.5-9.2h12.9l.9-4.3c.5-2.3.8-4.3.8-4.3-.1-.1-9.4-.4-20.8-.7-19.1-.6-20.8-.5-20.9 1.1 0 1.4-.2 1.3-.8-.3-.9-2.1-.8-2.4-2.7 7.5l-.6 3H83.1l-.8 4.2-.9 4.3 12.6.3 12.6.3-1.1 6.2-1.1 6.2-12.8.3c-8.6.2-12.5-.1-12.1-.8.4-.6 5.3-1 12-1h11.3l.6-2.7c.4-1.6.9-3.6 1.2-4.6.5-1.6-.5-1.7-12.1-1.7H79.8l.6-3.8c.4-2 .9-4.9 1.2-6.4l.5-2.7 13.7-.3 13.6-.3.8-3.9c.5-2.1.7-4 .6-4.1-.2-.2-13.6-.6-29.8-1-28.9-.7-29.5-.6-30.7 1.3zm68.6 3.5c0 .9-.2.8-.6-.1-.2-.6-1-.9-1.5-.6-.7.4-.8.2-.4-.5.9-1.3 2.6-.5 2.5 1.2zm-5.2 1.9c-.3.7-.5.2-.5-1.2s.2-1.9.5-1.3c.2.7.2 1.9 0 2.5zm-44 1c-.3.7-.5.2-.5-1.2s.2-1.9.5-1.3c.2.7.2 1.9 0 2.5zm-3.6 17.3c-1.6 7.7-2.9 13.1-3 12-.1-2.5 5.2-28.1 5.6-26.9.2.5-1 7.2-2.6 14.9zm47.5-3.4c-1.3 6.3-2.4 10.7-2.5 9.8-.1-.9.8-6.1 1.9-11.4 1.1-5.3 2-10 2-10.3 0-.3.2-.3.5 0 .3.2-.6 5.6-1.9 11.9zm43.8-7.4c-.8 4.6-2.2 6.6-1.6 2.4l.4-3-11.3-.4-11.4-.3h11.8c8.7.1 11.7-.2 11.7-1.2 0-.6.2-1.2.5-1.2s.3 1.7-.1 3.7zM84.5 16l-.6 2.9 11.3.4 11.3.3-11.7.2c-11 .2-11.8.1-11.8-1.7 0-2.2 1-5.1 1.7-5.1.2 0 .2 1.3-.2 3zm19.8-2.3c-3.5.2-9.1.2-12.5 0-3.5-.2-.7-.3 6.2-.3s9.7.1 6.3.3zm3.6 12.5c-1.4 6.2-2 7-1.3 1.8.4-2.5.8-4.8 1.1-5.3 1-1.6 1-.5.2 3.5zm45.3-.3c.3 1.8 0 2.7-.5 2.4-.6-.4-.8 1.2-.5 3.8.3 2.4.3 3.6.1 2.6-.3-.9-.9-1.4-1.5-1.1-.8.5-.9.1-.5-1 .4-1 1-3.5 1.3-5.7.4-2.1.8-3.9.9-3.9.2 0 .5 1.3.7 2.9zm-52.7 9.8c-9.6.7-20.5.7-20.5 0 0-.4 5.5-.6 12.3-.5 6.7.1 10.4.3 8.2.5zm9.4 7.2c-.7 3.9-1.4 6.9-1.7 6.7-.2-.3.2-3.7.9-7.5.7-3.9 1.4-6.9 1.7-6.7.2.3-.2 3.7-.9 7.5zm33.9-6.2c-2.6.2-7.1.2-10 0-2.9-.2-.8-.3 4.7-.3s7.9.1 5.3.3zm7.9 5c-.3 1-.5.4-.5-1.2 0-1.7.2-2.4.5-1.8.2.7.2 2.1 0 3zm-89 2.5c-.3.7-.5.2-.5-1.2s.2-1.9.5-1.3c.2.7.2 1.9 0 2.5zm-3.9 2c.7.7 1.2 2.1 1.1 3.2-.1 1.8-.2 1.7-.8-.4-.7-2.5-1.9-2.8-5.6-1.5-1.3.4-1.2.1.5-.9 3.1-1.9 3.3-1.9 4.8-.4zm2.9 3.5c-.3 1-.5.4-.5-1.2 0-1.7.2-2.4.5-1.8.2.7.2 2.1 0 3zm107.3-22c-2.9 15.3-5.5 28.3-5.7 28.8-.2.6.6 1.1 1.7 1.2 1.6.1 2-.4 1.9-2.5l-.1-2.7-.8 2.5c-1.6 4.9-1-1.2 1-10 1.4-6.3 1.9-7.6 2-5 .1 2.3 1.1-.7 3-9 1.5-6.9 2.9-11.7 2.9-10.8.1 1-1.5 9.3-3.4 18.5-2 9.2-3.4 17.4-3.2 18.3.1.8 2.9-11.1 6-26.5 7-34.7 6.4-25.7-1.1 15.2l-1.9 10.1 3.6.7c2 .3 4.6.9 5.8 1.2 1.5.3 2.3-.1 2.6-1.4.4-1.7.5-1.7.6 0 .1 1.6 1 1.8 8.4 1.6l8.4-.2-5.1-15.7c-3.2-9.9-5.3-15.2-5.8-14.1-.3.9-.6.2-.6-1.9.1-1.9-.2-4.6-.6-6-1.6-6.1 4 7.8 8.6 21.2l5 14.6 4.9.4c4.3.3 5 0 5.4-1.7 2.6-11.6 4.8-22.4 7-34.5 1.4-8 2.7-15.5 3-16.8.5-2 .2-2.2-3.9-2.2-4 0-4.5.2-5 2.7-.3 1.6-2 10.2-3.7 19.3-1.7 9.1-3.3 16.7-3.6 17-.9.9-2.4-2.9-7.8-20-3.1-9.6-6.4-18.1-7.3-18.8-.9-.6-4.4-1.2-7.9-1.2-6.1 0-6.3.1-5.8 2.2.3 1.3-.1 5.2-.9 8.8l-1.5 6.5.4-5.5c.3-4-.3-2.3-2.2 6.4-1.5 6.6-2.9 11.4-3.1 10.8-.3-.9 3.8-21.9 5.4-27.5.3-.9.1-1.7-.3-1.7-.5 0-3.3 12.5-6.3 27.7zm.7 7c-.3 1-.5.4-.5-1.2 0-1.7.2-2.4.5-1.8.2.7.2 2.1 0 3zm29.2 21.7c0 1.7-7.9-20.5-7.9-22.3 0-.9 1.8 3.5 4 9.8 2.2 6.3 4 11.9 3.9 12.5zm-14.2-4.2c-.3.7-.5.2-.5-1.2s.2-1.9.5-1.3c.2.7.2 1.9 0 2.5z"/><path d="M194.4 1.6c3.8 12.4 11.5 34.5 11.5 33.3.1-.9-.8-4.2-1.9-7.4-2.1-6.2-2.1-8.8.1-3.3.7 1.8 1.5 4.2 1.9 5.3.3 1.1 1.8-4.5 3.4-13.3C211 7.8 212 .7 211.7.4c-.2-.3-1.3 3.9-2.3 9.2-1 5.3-2 9.2-2.2 8.5-.2-.6.4-4.5 1.2-8.7.9-4.2 1.6-8 1.6-8.5s-3.1-.9-7-.9c-3.8 0-7 .2-7 .4s1.1 3.4 2.5 7c1.4 3.7 2.5 7.4 2.5 8.4 0 .9-1.4-2.1-3-6.7s-3.3-8.7-3.6-9c-.4-.3-.4.3 0 1.5zm12.3 23.1c-.3 1-.5.4-.5-1.2 0-1.7.2-2.4.5-1.8.2.7.2 2.1 0 3zM225 .2c0 .2-2.5 12.9-5.5 28.2-3 15.4-5.5 28.4-5.5 28.9 0 2.1 1.3-.4 2.1-4 .8-3.7.8-3.7.4.7-.5 6.3 1 3 2.5-5.5.7-3.9 1.5-6.4 1.8-5.7.3 1.1-.8 7.2-2.5 13.7-.3 1.1-.2 1.6.3 1.2.5-.5 1.9-5.4 3-11 2.3-10.9 3.2-9.2 1.2 2.4-.9 5.9-.9 7.2.3 8 1.2.8 6.6.5 7.5-.4.2-.2 1.3-5.2 2.4-11.3 1.2-6 3.4-17 5-24.4 1.5-7.4 3.1-15 3.4-16.8L242 1h-4.9c-4.8 0-4.9 0-5.6 3.7-.9 5.5-3.6 14.5-4.1 14-.2-.2.4-4.4 1.4-9.3 1.8-8.6 1.8-9 .1-9.1-1.3-.1-2.1 1-2.8 4L225 8.5l.5-4.3c.3-2.3.3-4.2 0-4.2s-.5.1-.5.2zm2.2 11.9c-1.1 4.6-2.3 8.3-2.8 8.2-.6-.1-2 5-3.3 11.3-1.3 6.3-2.6 11.2-2.8 11-.3-.2 1-7.7 2.9-16.7 2.3-11.4 3.5-15.3 3.8-13.3.4 2.3.8 1.4 2-4.6.8-4.1 1.6-6.8 1.8-5.9.1.8-.6 5.3-1.6 10zm-2.8 13.8c-.4 1.7-.9 3-1.1 2.7-.3-.2-.2-1.9.2-3.6.9-4.1 1.7-3.3.9.9zm-2.7 14.3c-.3.7-.5.2-.5-1.2s.2-1.9.5-1.3c.2.7.2 1.9 0 2.5zm-4 7.5c-.3 1-.5.4-.5-1.2 0-1.7.2-2.4.5-1.8.2.7.2 2.1 0 3z"/><path d="M224.2 17.5c0 1.6.2 2.2.5 1.2.2-.9.2-2.3 0-3-.3-.6-.5.1-.5 1.8zm19.4-15.8c-.8 2.9-10.6 53.9-10.6 55.4 0 .8 1.6-.4 3.5-2.6s3.4-4.5 3.4-5c0-.6-.6-.1-1.4.9-.8 1.1-1.5 1.6-1.5 1.2 0-.7 4.1-6.4 7-9.9.4-.5 1-.2 1.3.7.3.8-1.1 4-3.3 7.3-5 7.3-4.6 7.5 11.4 8.1l11.9.5-.7-2.4c-1.5-5.4-1.5-8 0-3.2 2.8 9 3.2 5.8.5-3.6-2-6.9-2.9-8.7-3.8-7.9-.7.6-1.3 1.6-1.3 2.2 0 .6.4.5.9-.3.7-1.1 1-.9 1.6.8.4 1.3.4 2.5.1 2.8-.3.4-.6-.2-.6-1.2 0-1.5-.6-1.2-2.8 1.5-4.3 5.1-4.6 2.1-.5-4.4 4.1-6.7 4.2-6.7 7.9 5.1l2.6 8.1 5.9.4c3.2.1 5.9.2 5.9.1s-2.5-6.5-5.5-14.4L270 27.7l2.4-3.1c1.3-1.7 5.8-7.4 10-12.6 4.2-5.2 7.6-9.8 7.6-10.3 0-.4-2.2-.7-5-.7-5.4 0-4-1.3-15.7 14.9l-3.2 4.3-2.9-9.3c-2.7-8.8-3-9.4-6.1-10.2-5.2-1.3-10.6-.5-10.5 1.5.1 1-.2 1.6-.6 1.3-.4-.3-1.1 1.6-1.5 4.1-.3 2.5-.9 4.3-1.2 4.1-.3-.3 0-2.9.6-5.8 1.1-4.9.9-8.1-.3-4.2zm-.9 14.5c-.3.7-.5.2-.5-1.2s.2-1.9.5-1.3c.2.7.2 1.9 0 2.5zm11.9 6c-.6-3 0-2.8 1.8 1 2 3.9 2 6.2.1 7.8-1.1.9-1.5.9-1.5.1 0-.7-.4-.9-1-.6-.6.3-.7-.1-.3-1 .4-1.2.8-1.3 1.3-.5 1.2 2 2.1-.6 1.1-3.2-.9-2.1-1-2.1-1.1-.3-.1 1.5-.4 1.3-1.4-1.1-2.3-5.2-2.7-8.1-.6-3.9 1.1 2.2 1.8 3 1.6 1.7zm-12.9-1c-.3.7-.5.2-.5-1.2s.2-1.9.5-1.3c.2.7.2 1.9 0 2.5zm-3.2 18.2c-1.4 6.5-2.3 12.1-2 12.6.3.4-.1 1.3-.9 1.9-1.1.9-1.2.5-.6-2.6 4.2-21.7 5.5-27.5 5.8-25.7.2 1.1-.9 7.3-2.3 13.8zm13.5-6c0 .3-.4.8-1 1.1-.5.3-1 .1-1-.4 0-.6.5-1.1 1-1.1.6 0 1 .2 1 .4z"/><path d="M262.2 1.5c1.6 6.1 4.4 14.5 4.8 14.5.4-.1 10.1-13.5 10.8-15.1.1-.3-2.8-.7-6.6-.8l-6.9-.2.3 2.8c.2 1.6.1 1.9-.2.8-.8-2.7-2.8-4.7-2.2-2zm9.6 6.5l-4.3 6.2-1.2-2.9c-.7-1.5-1.2-3.5-1.2-4.3 0-.8.6 0 1.3 1.9l1.2 3.5 4-5.7c2.1-3 4-5.4 4.2-5.3.1.2-1.7 3.1-4 6.6zm11 6L272 27.8l5.1 13.4c6.6 17 7.1 18.2 6.5 14.3l-.5-3 1.2 2.7c1 2.7 1.4 2.8 8.4 2.8h7.3V29c0-35.3.5-34.6-12.6-17.8-4.8 6.2-9.8 12.5-11.1 13.9l-2.4 2.6 4 9.9c3.8 9.6 6.3 17.4 4.2 12.9-.6-1.1-2.8-6.6-5-12.2L273 28l11-14c6.1-7.7 10.7-14 10.3-14-.5.1-5.6 6.3-11.5 14zM176.2 4.5c0 1.6.2 2.2.5 1.2.2-.9.2-2.3 0-3-.3-.6-.5.1-.5 1.8zm-42.4 17.2c3.4.2 8.8.2 12 0 3.1-.2.3-.3-6.3-.3s-9.2.1-5.7.3zM33.2 27.1c-2.3 1.7-4.2 3.3-4.2 3.6 0 .2 1.4-.6 3.1-1.8 1.8-1.2 4.8-2.8 6.8-3.5 3.1-1.1 3.3-1.3 1-1.4-1.4 0-4.4 1.4-6.7 3.1zM15 40c.8.5 2 1 2.5 1 .6 0 .3-.5-.5-1s-1.9-1-2.5-1c-.5 0-.3.5.5 1zm153.2 5c0 1.4.2 1.9.5 1.2.2-.6.2-1.8 0-2.5-.3-.6-.5-.1-.5 1.3zm74.6-.3c-1.9 2.3-3.1 4.3-2.4 4.3.2 0 1.4-1.4 2.6-3 2.3-3.3 2.2-4-.2-1.3zm15.5.5c-2 2.6-2.6 4.1-1.5 3.4 1.2-.7 3.6-4.6 2.9-4.6-.3 0-.9.6-1.4 1.2zM167.2 50c0 1.4.2 1.9.5 1.2.2-.6.2-1.8 0-2.5-.3-.6-.5-.1-.5 1.3z"/></svg>