<svg xmlns="http://www.w3.org/2000/svg" role="img" viewBox="-4.48 -4.48 232.70 68.70"><title>Eldorado Research Institute (member) logo</title><path d="M54 38h1v1h-1zm36 0h1v1h-1zm71 0h1v1h-1zm36 0h1v1h-1zM2 39h1v1H2zm102 0h1v1h-1zM1 40h1v1H1zm102 0h1v1h-1zm21 0h1v1h-1zm60 1h1v1h-1zm21 1h1v1h-1zM84 43h1v1h-1zm95 0h1v1h-1zM75 45h1v1h-1zM5 52h1v1H5zm62 0h1v1h-1zm115 0h1v1h-1zM46 54h1v1h-1zm30 0h1v1h-1zM0 55h1v1H0zm204 1h1v1h-1zm-28 1h1v1h-1zm-21 1h1v1h-1z" fill="#e2e2e2"/><path d="M121 38h1v1h-1zm38 0h1v1h-1zm30 0h1v1h-1zM8 43h14v1H8zm14 0h1v1h-1zm35 0h4v1h-4zm4 0h1v1h-1zm1 0h1v1h-1zm25 0h1v1h-1zm23 0h6v1h-6zm6 0h1v1h-1zm25 0h1v1h-1zm1 0h1v1h-1zm22 0h3v1h-3zm3 0h1v1h-1zm2 0h1v1h-1zm25 0h1v1h-1zm13 3h1v1h-1zm-90 1h1v1h-1zm84 1h1v1h-1zm-100 4h1v1h-1zm89 1h1v1h-1zM2 58h1v1H2zm99 0h1v1h-1zM9 59h12v1H9zm12 0h1v1h-1zm12 0h12v1H33zm12 0h1v1h-1zm4 0h12v1H49zm12 0h1v1h-1zm26 0h1v1h-1zm2 0h1v1h-1zm14 0h3v1h-3zm3 0h1v1h-1zm17 0h3v1h-3zm3 0h1v1h-1zm3 0h3v1h-3zm3 0h1v1h-1zm17 0h3v1h-3zm3 0h1v1h-1zm1 0h1v1h-1zm3 0h11v1h-11zm11 0h1v1h-1zm27 0h1v1h-1zm2 0h1v1h-1z" fill="#e5e5e6"/><path d="M29 39h1v12h-1zm38 5h1v1h-1zm54 0h1v1h-1zm-14 4h9v1h-9zm9 0h1v1h-1zm-87 3h1v1h-1zm171 2h1v1h-1zM98 54h1v1h-1zm89 3h1v1h-1zM7 58h1v1H7zm25 0h1v1h-1zm30 0h1v1h-1zm24 0h1v1h-1zm40 0h1v1h-1zm43 0h1v1h-1z" fill="#f9f9fa"/><path d="M176 40h1v1h-1zm-46 2h1v1h-1zm57 9h1v1h-1zm19 1h1v1h-1zm-33 1h1v1h-1zM71 55h1v1h-1zm-1 1h1v1h-1z" fill="#eee"/><path d="M55 38h1v1h-1zm141 0h1v1h-1zm-16 8h1v1h-1zM9 54h12v1H9zm12 0h1v1h-1zm12 0h11v1H33zm11 0h1v1h-1zm11 0h6v1h-6zm6 0h1v1h-1zm26 0h1v1h-1zm75 0h5v1h-5zm5 0h1v1h-1zm27 0h1v1h-1z" fill="#e3e3e3"/><path d="M89 38h1v1h-1zm50 0h1v1h-1zm23 0h1v1h-1zm42 3h1v1h-1zm-52 2h1v1h-1zM48 44h1v1h-1zm46 1h1v1h-1zM5 47h1v1H5zm103 5h1v1h-1zM8 54h1v1H8zm126 0h1v1h-1zm13 0h1v1h-1zm21 0h1v1h-1zm15 0h1v1h-1zM25 55h1v1h-1zm175 3h1v1h-1z" fill="#e9e9ea"/><path d="M78 40h1v1h-1zm-7 1h1v1h-1zm76 4h1v1h-1zm-53 1h1v1h-1zm6 2h1v1h-1zm-27 4h1v1h-1zm132 3h1v1h-1z" fill="#d4d4d4"/><path d="M151 41h1v1h-1zm31 3h1v1h-1zM67 45h1v1h-1zm112 9h1v1h-1zm-51 4h1v1h-1z" fill="#d3d3d5"/><path d="M86 42h1v1h-1zm31 0h1v1h-1zm46 0h1v1h-1zm26 1h1v1h-1zM0 44h1v1H0zm133 10h1v1h-1zm-27 4h1v1h-1z" fill="#fcfcfd"/><path d="M65 38h1v1h-1zm107 0h1v1h-1zm5 2h1v1h-1zm-59 3h1v1h-1zm74 0h1v1h-1zm15 7h1v1h-1zM6 52h1v1H6zm16 0h1v1h-1zm161 3h1v1h-1zm-89 3h1v1h-1z" fill="#d7d7d8"/><path d="M51 39h1v1h-1zm83 0h1v1h-1zm-38 1h1v1h-1zm-3 4h1v1h-1zm62 1h1v12h-1zm-82 1h1v1h-1zm80 0h2v1h-2zm34 0h1v1h-1zm-39 1h1v1h-1zm-66 6h1v1h-1zm3 1h1v1h-1zm70 3h1v1h-1zm-73 1h1v1h-1z" fill="#e8e8e9"/><path d="M135 39h1v1h-1zm38 0h1v1h-1zM50 40h1v1h-1zm29 0h1v1h-1zm52 1h1v1h-1zm-6 1h1v1h-1zm53 0h1v1h-1zM0 43h1v1H0zm92 0h1v1h-1zm10 0h1v1h-1zm18 0h1v1h-1zm63 0h1v1h-1zM81 44h1v1h-1zm39 3h1v1h-1zm13 0h1v1h-1zm-60 1h1v1h-1zm2 0h1v1h-1zm50 0h1v1h-1zm28 1h1v8h-1zm-18 1h11v1h-11zm11 0h1v1h-1zm2 0h1v1h-1zm34 0h1v1h-1zM80 51h1v1h-1zM0 54h1v1H0zm148 0h1v1h-1zm57 0h1v1h-1zM77 55h1v1h-1zm-9 2h1v1h-1zm85 0h1v1h-1zm22 0h1v1h-1zM30 58h1v1h-1zm34 0h1v1h-1zm19 0h1v1h-1zm1 0h1v1h-1zm18 0h1v1h-1zm88 0h1v1h-1zm1 0h1v1h-1zm6 0h1v1h-1z" fill="#f6f6f6"/><path d="M156 40h1v1h-1zm-84 2h1v1h-1zm80 0h1v1h-1zm54 1h1v1h-1zm-53 1h1v1h-1zm-19 2h1v1h-1zm40 5h1v1h-1zm-53 3h1v1h-1z" fill="#cccccd"/><g fill="#fff"><path d="M5 39h16v2H5zm16 0h1v2h-1zm4 0h3v13h-3zm3 0h1v18h-1zm25 0h1v1h-1zm1 0h10v2H54zm10 0h1v3h-1zm20 0h7v2h-7zm7 0h1v3h-1zm16 0h12v2h-12zm12 0h1v3h-1zm1 0h1v1h-1zm17 0h7v2h-7zm7 0h1v3h-1zm16 0h1v1h-1zm1 0h10v2h-10zm10 0h1v3h-1zm19 0h1v1h-1zm1 0h6v2h-6zm6 0h1v3h-1zm1 0h1v1h-1z"/><path d="M2 40h19v1H2zm49 0h17v1H51zm17 0h1v5h-1zm12 0h1v4h-1zm1 0h13v1H81zm13 0h1v4h-1zm10 0h19v1h-19zm19 0h1v17h-1zm10 0h1v1h-1zm1 0h14v1h-14zm14 0h1v5h-1zm10 0h17v1h-17zm17 0h1v5h-1zm12 0h12v1h-12zm12 0h2v2h-2zm2 0h1v4h-1zM1 41h20v1H1zm20 0h1v1h-1zm29 0h18v1H50zm19 0h1v1h-1zm9 0h1v1h-1z"/><path d="M79 41h15v1H79zm16 0h1v1h-1zm1 0h1v1h-1zm7 0h21v1h-21zm21 0h1v16h-1zm8 0h17v1h-17zm17 0h1v16h-1zm8 0h19v1h-19zm19 0h1v15h-1zm9 0h18v1h-18zm18 0h1v14h-1zM1 42h5v1H1zm5 0h1v1H6zm44 0h4v1h-4zm4 0h1v1h-1zm1 0h1v1h-1zm9 0h6v1h-6zm6 0h1v13h-1zm8 0h6v1h-6zm6 0h1v1h-1zm6 0h1v1h-1zm1 0h6v1h-6zm6 0h1v13h-1zm6 0h5v1h-5zm5 0h1v1h-1zm11 0h5v1h-5zm12 0h6v1h-6zm6 0h1v1h-1zm1 0h1v1h-1z"/><path d="M144 42h6v1h-6zm6 0h1v15h-1zm6 0h1v1h-1zm1 0h4v1h-4zm4 0h1v1h-1zm10 0h6v1h-6zm6 0h1v13h-1zm7 0h7v1h-7zm7 0h1v1h-1zm6 0h7v1h-7zm7 0h1v12h-1zM1 43h3v12H1zm3 0h1v1H4zm45 0h4v14h-4zm4 0h1v1h-1zm14 0h4v1h-4zm4 0h1v11h-1zm6 0h4v1h-4zm4 0h1v1h-1zm12 0h5v1h-5zm5 0h1v7h-1zm5 0h3v14h-3zm3 0h1v2h-1zm15 0h4v1h-4zm4 0h1v4h-1zm5 0h5v1h-5zm5 0h1v1h-1z"/><path d="M147 43h4v1h-4zm4 0h1v14h-1zm5 0h4v14h-4zm4 0h1v1h-1zm13 0h1v1h-1zm1 0h4v1h-4zm4 0h1v11h-1zm6 0h4v1h-4zm4 0h1v1h-1zm12 0h4v1h-4zM4 44h1v1H4zm65 0h2v11h-2zm7 0h4v8h-4zm4 0h1v1h-1zm14 0h4v1h-4zm28 0h3v9h-3zm8 0h4v1h-4zm4 0h1v1h-1zm49 0h4v8h-4zm4 0h1v1h-1zm14 0h4v1h-4zm4 0h1v9h-1zM4 45h1v2H4z"/><path d="M68 45h4v1h-4zm4 0h1v3h-1zm23 0h3v1h-3zm11 0h1v1h-1zm24 0h3v12h-3zm3 0h1v1h-1zm15 0h4v1h-4zm4 0h1v12h-1zm23 0h4v1h-4zm4 0h1v6h-1zm23 0h3v1h-3zM95 46h3v1h-3zm11 0h1v1h-1zm1 0h1v1h-1z"/><path d="M129 46h3v11h-3zm73 0h3v1h-3zM4 47h1v1H4zm92 0h3v3h-3zm3 0h1v3h-1zm7 0h1v1h-1zm15 0h4v5h-4zm4 0h1v1h-1zM4 48h17v2H4zm17 0h1v3h-1zm51 0h1v4h-1zm34 0h1v3h-1z"/><path d="M119 48h5v3h-5zm87 0h1v1h-1zm1 0h1v1h-1z"/><path d="M107 49h17v2h-17zm99 0h1v1h-1zM4 50h17v1H4zm92 0h3v3h-3zm3 0h1v1h-1zm103 0h3v4h-3zM4 51h1v6H4zm1 0h15v1H5zm15 0h1v1h-1zm1 0h1v1h-1z"/><path d="M95 51h2v4h-2zm11 0h19v1h-19zm19 0h1v6h-1zm8 0h19v2h-19zm46 0h1v1h-1zM25 52h3v1h-3zm43 0h4v2h-4zm4 0h1v1h-1zm4 0h4v1h-4zm4 0h1v4h-1zm26 0h1v1h-1zm15 0h4v1h-4zm54 0h3v3h-3zm8 0h4v1h-4zm4 0h1v4h-1zM26 53h3v2h-3zm3 0h1v4h-1z"/><path d="M67 53h4v2h-4zm10 0h4v1h-4zm4 0h1v4h-1zm13 0h4v2h-4zm4 0h1v1h-1zm8 0h1v4h-1zm1 0h1v4h-1zm15 0h3v1h-3zm11 0h19v1h-19zm41 0h4v2h-4zm9 0h1v1h-1zm1 0h3v1h-3zm17 0h4v1h-4zm4 0h1v1h-1z"/><path d="M66 54h5v1h-5zm5 0h1v1h-1zm6 0h5v1h-5zm5 0h1v3h-1zm10 0h1v1h-1zm1 0h4v1h-4zm80 0h5v1h-5zm5 0h1v1h-1zm6 0h5v1h-5zm5 0h1v3h-1zm10 0h5v1h-5zm5 0h1v1h-1zM1 55h20v1H1zm20 0h1v2h-1zm5 0h19v1H26zm19 0h1v2h-1zm1 0h1v2h-1zm7 0h10v2H53zm10 0h7v1h-7zm7 0h1v1h-1z"/><path d="M78 55h10v1H78zm10 0h9v1h-9zm9 0h1v1h-1zm63 0h17v1h-17zm17 0h1v1h-1zm8 0h18v1h-18zm18 0h1v1h-1zM2 56h19v1H2zm25 0h18v1H27zm36 0h6v1h-6zm6 0h1v1h-1zm10 0h16v1H79zm16 0h1v1h-1zm65 0h16v1h-16zm16 0h1v1h-1zm10 0h16v1h-16zm16 0h1v1h-1zM3 57h18v1H3zm18 0h1v1h-1zm7 0h17v1H28zm17 0h1v1h-1zm1 0h1v1h-1zm3 0h18v1H49zm18 0h1v1h-1zm14 0h12v1H81zm12 0h1v1h-1zm10 0h2v1h-2zm2 0h1v1h-1zm1 0h1v1h-1zm1 0h1v1h-1zm16 0h2v1h-2zm2 0h1v1h-1zm4 0h3v1h-3zm3 0h1v1h-1zm17 0h3v1h-3zm3 0h1v1h-1zm4 0h18v1h-18zm18 0h1v1h-1zm14 0h12v1h-12zm12 0h1v1h-1zm-44 1h1v1h-1z"/></g><path d="M66 39h1v1h-1zm29 9h1v1h-1zm-1 4h1v1h-1zm26 0h1v1h-1zm-48 1h1v1h-1zm-19 1h1v1h-1zm38 0h1v1h-1zM2 57h1v1H2zm88 1h1v1h-1z" fill="#f8f8f8"/><path d="M112 0h1v1h-1zM97 3h1v1h-1zm15 4h1v1h-1zm1 0h1v1h-1zM80 9h1v1h-1zm94 0h1v1h-1zm-96 1h1v1h-1zm17 0h1v1h-1zm69 2h1v1h-1zm-82 2h1v1h-1zm88 0h1v1h-1zm3 1h1v1h-1zm15 1h1v1h-1zM69 20h1v1h-1zm-2 1h1v1h-1zm119 0h1v1h-1zM64 23h1v1h-1zm127 1h1v1h-1zm11 2h1v1h-1zM57 28h1v1h-1zm144 3h1v1h-1zM44 36h1v1h-1zm171 5h1v1h-1zM37 51h1v1h-1zm1 0h1v1h-1zm185 5h1v1h-1z" fill="#ff890a"/><path d="M8 38h1v1H8zm53 0h1v1h-1zm49 0h1v1h-1zm30 0h1v1h-1zm28 0h1v1h-1zm-31 5h1v1h-1zm-89 2h1v1h-1zm32 2h1v1h-1zm8 7h1v1h-1zm105 0h1v1h-1zM93 58h1v1h-1z" fill="#e6e6e7"/><path d="M30 39h1v12h-1zm101 1h1v1h-1zm48 2h1v1h-1zM54 44h1v1h-1zm126 0h1v1h-1zm-6 2h1v1h-1zm-65 1h7v1h-7zm7 0h1v1h-1zm-86 4h1v1h-1zm46 4h1v1h-1zm-5 1h1v1h-1z" fill="#c6c6c8"/><path d="M23 38h1v1h-1zm7 0h1v1h-1zm36 0h1v1h-1zm80 0h1v1h-1zm3 1h1v1h-1zm8 0h1v1h-1zm45 0h1v1h-1zm-76 3h1v1h-1zm-53 2h1v1h-1zm116 0h1v1h-1zm-89 1h1v1h-1zm1 1h1v1h-1zm19 0h1v1h-1zm-12 1h1v1h-1zm-14 1h1v1h-1zm32 0h1v1h-1zm-32 2h1v1h-1zm-1 2h1v1h-1zm-28 1h1v1h-1zm62 0h1v1h-1zm71 0h1v1h-1zM23 54h1v1h-1zm180 3h1v1h-1zM68 58h1v1h-1zM6 59h1v1H6zm42 0h1v1h-1zm80 0h1v1h-1zm42 0h1v1h-1z" fill="#d2d2d3"/><path d="M4 39h1v1H4zm18 0h1v2h-1zm84 0h1v1h-1zm30 0h1v1h-1zm36 0h1v1h-1zM22 41h1v1h-1zm48 0h1v1h-1zm80 0h1v1h-1zM7 42h1v1H7zm82 0h1v1h-1zm20 0h1v1h-1zm83 0h1v1h-1zm4 0h1v1h-1zM82 43h1v1h-1zm64 0h1v1h-1zm59 0h1v1h-1zm-53 1h1v1h-1zm22 0h1v1h-1zm-94 1h1v1h-1zm53 1h1v1h-1zm69 1h1v1h-1zM95 50h1v1h-1zm111 0h1v1h-1zM99 51h1v1h-1zm76 0h1v1h-1zM25 53h1v1h-1zm163 0h1v1h-1zM5 54h1v1H5zm25 0h1v1h-1zm35 0h1v1h-1zm57 0h1v1h-1zm50 0h1v1h-1zM22 55h1v2h-1zm182 0h1v1h-1zM22 57h1v1h-1zm72 0h1v1h-1zm107 0h1v1h-1zM45 58h1v1h-1zm58 0h1v1h-1zm29 0h1v1h-1zm20 0h1v1h-1z" fill="#fdfdfd"/><path d="M186 39h1v1h-1zM23 42h1v1h-1zm65 1h1v1h-1zm52 0h1v1h-1zm28 0h1v1h-1zm27 0h1v1h-1zm-94 10h1v4h-1zm0 4h1v1h-1zm84 0h1v1h-1zM7 59h1v1H7zm25 0h1v1h-1zm14 0h1v1h-1zm16 0h1v1h-1zm24 0h1v1h-1zm47 0h1v1h-1zm36 0h1v1h-1zm24 0h1v1h-1z" fill="#dadadb"/><path d="M53 45h1v8h-1zm0 8h1v1h-1zm-7 5h1v1h-1z" fill="#f7f7f8"/><path d="M5 38h1v1H5zm59 0h1v1h-1zm21 0h1v1h-1zm22 0h1v1h-1zm11 0h1v1h-1zm26 0h1v1h-1zm27 0h1v1h-1zm21 0h1v1h-1zm-5 1h1v1h-1zm-32 4h1v1h-1zm16 0h1v1h-1zM21 47h1v1h-1zm86 0h1v1h-1zm21 1h1v1h-1zm59 0h1v1h-1zM80 49h1v1h-1zm20 0h1v1h-1zm87 0h1v1h-1zM22 54h1v1h-1zm32 0h1v1h-1zm107 0h1v1h-1zm-92 3h1v1h-1zM3 58h1v1H3zm64 0h1v1h-1z" fill="#e3e3e4"/><path d="M123 39h1v1h-1zm-21 2h1v1h-1zm-26 1h1v1h-1zm-1 2h1v1h-1zm71 0h1v1h-1zM25 56h1v1h-1z" fill="#d0d0d1"/><path d="M76 43h1v1h-1zm99 7h1v1h-1zm-42 8h1v1h-1z" fill="#f2f2f2"/><path d="M52 38h1v1h-1zm30 0h1v1h-1zm-3 1h1v1h-1zm18 1h1v1h-1zm1 1h1v1h-1zm84 2h1v1h-1zm-81 1h1v1h-1zm98 0h1v1h-1zm-98 1h1v1h-1zm-7 4h1v1h-1zm7 2h1v1h-1zm106 0h1v1h-1zM73 53h1v1h-1zm-49 1h1v1h-1zm182 0h1v1h-1zM78 57h1v1h-1zm2 1h1v1h-1zm-49 1h1v1h-1zm32 0h1v1h-1zm22 0h1v1h-1zm63 0h1v1h-1zm7 0h1v1h-1zm37 0h1v1h-1z" fill="#d3d3d4"/><path d="M52 39h1v1h-1zm30 0h1v1h-1zm39 0h1v1h-1zm25 0h1v1h-1zm13 0h1v1h-1zm30 0h1v1h-1zm-32 1h1v1h-1zm29 0h1v1h-1zM22 42h1v1h-1zM5 43h1v1H5zm102 0h1v1h-1zm92 0h1v1h-1zM53 44h1v1h-1zm49 0h1v1h-1zm45 0h1v1h-1zm32 0h1v1h-1zm-80 1h1v1h-1zm88 0h1v1h-1zm-12 1h1v1h-1zm7 1h1v1h-1zm-87 2h1v1h-1zm-27 2h1v1h-1zm138 0h1v1h-1zM93 53h1v1h-1zm-68 1h1v1h-1zm173 0h1v1h-1zm-14 1h1v1h-1zM1 56h1v1H1zm184 0h1v1h-1zM80 57h1v1h-1zM6 58h1v1H6zm16 0h1v1h-1zm9 0h1v1h-1zm32 0h1v1h-1zm22 0h1v1h-1zm4 0h1v1h-1zm33 0h1v1h-1zm48 0h1v1h-1zm22 0h1v1h-1zm4 0h1v1h-1z" fill="#f9f9f9"/><path d="M65 39h1v1h-1zm18 0h1v1h-1zm62 0h1v1h-1zm-50 1h1v1h-1zm107 0h1v1h-1zM63 42h1v1h-1zm14 0h1v1h-1zm8 0h1v1h-1zm33 0h1v1h-1zm21 0h1v1h-1zm4 0h1v1h-1zm19 0h1v1h-1zm8 0h1v1h-1zM66 43h1v1h-1zM0 45h1v7H0zm99 1h1v1h-1zm107 1h1v1h-1zm-88 1h1v1h-1zm84 1h1v1h-1zM0 52h1v1H0zm179 0h1v1h-1zm-53 2h1v3h-1zm-4 1h1v2h-1zm-96 1h1v1h-1zm70 0h1v1h-1zm107 0h1v1h-1zm-81 1h1v1h-1zm4 0h1v1h-1zM21 58h1v1h-1zm28 0h1v1h-1zm74 0h2v1h-2zm2 0h1v1h-1zm4 0h1v1h-1zm20 0h1v1h-1z" fill="#fefefe"/><path d="M67 39h1v1h-1zm65 1h1v1h-1zm-83 1h1v1h-1zM0 42h1v1H0zm98 0h1v1h-1zm4 0h1v1h-1zm-30 1h1v1h-1zm11 0h1v1h-1zm16 1h1v1h-1zm101 0h1v1h-1zm-18 1h1v1h-1zm-7 4h1v1h-1zM73 50h1v1h-1zm2 1h1v1h-1zm44 1h1v1h-1zm59 3h1v1h-1zm-1 1h1v1h-1zm25 1h1v1h-1zm-3 1h1v1h-1z" fill="#ebebeb"/><path d="M92 38h1v1h-1zm47 5h1v1h-1zm-11 2h1v1h-1zm73 4h1v1h-1zM67 51h1v1h-1zm33 0h1v1h-1zm-70 1h1v1h-1zm97 2h1v1h-1zm0 4h1v1h-1z" fill="#d1d1d2"/><path d="M156 41h1v1h-1zm16 2h1v1h-1zm-43 1h1v1h-1zm-22 1h1v1h-1zM5 46h1v1H5zm202 3h1v1h-1zm-25 2h1v1h-1zm-98 3h1v1h-1zm23 4h1v1h-1z" fill="#efeff0"/><path d="M7 38h1v1H7zm49 0h1v1h-1zm6 0h1v1h-1zm24 0h2v1h-2zm2 0h1v1h-1zm21 0h1v1h-1zm8 0h1v1h-1zm25 0h1v1h-1zm21 0h1v1h-1zm6 0h1v1h-1zm24 0h2v1h-2zm2 0h1v1h-1zm-73 1h1v1h-1zm25 0h1v1h-1zm13 6h1v8h-1zm-92 2h1v1h-1zm5 0h1v1h-1zm80 0h1v1h-1zm-85 3h1v1h-1zm39 2h1v1h-1zm2 0h8v1h-8zm8 0h1v1h-1zm-51 1h1v1h-1zm94 0h1v1h-1zm-97 1h1v1h-1zm23 0h1v1h-1zm4 0h1v1h-1zm105 0h1v1h-1zm2 0h1v1h-1zM4 58h1v1H4zm88 0h1v1h-1z" fill="#eeeeef"/><path d="M9 38h12v1H9zm12 0h1v1h-1zm4 0h2v1h-2zm2 0h1v1h-1zm30 0h3v1h-3zm3 0h1v1h-1zm51 0h4v1h-4zm4 0h1v1h-1zm49 0h3v1h-3zm3 0h1v1h-1zm7 7h1v1h-1zM48 46h1v11h-1zm100 3h1v1h-1zm-67 3h1v1h-1zm-9 2h1v1h-1zm76 1h1v2h-1zM48 57h1v1h-1zm100 0h1v1h-1z" fill="#dbdbdd"/><path d="M83 38h1v1h-1zm62 0h1v1h-1zm-50 1h1v1h-1zm-32 4h1v1h-1zm22 0h1v1h-1zm58 0h1v1h-1zm-43 3h1v1h-1zm18 1h1v1h-1zm83 0h1v1h-1zm6 0h1v1h-1zM24 53h1v1h-1zm148 0h1v1h-1z" fill="#dcdcdd"/><path d="M138 38h1v1h-1zm-58 1h1v1h-1zm105 1h1v1h-1zM64 43h1v1h-1zm55 0h1v1h-1zm25 0h1v1h-1zm-18 1h1v2h-1zm47 0h1v1h-1zm-47 2h1v1h-1zm2 1h1v1h-1zm59 0h1v1h-1zM80 48h1v1h-1zm100 3h1v1h-1zM26 57h1v1h-1zm162 1h1v1h-1z" fill="#e1e1e2"/><path d="M93 39h1v1h-1zm-24 1h1v1h-1zm80 0h1v1h-1zm-13 3h1v1h-1zm24 1h1v1h-1zm28 0h1v1h-1zm-67 1h1v1h-1zm85 0h1v1h-1zM68 46h1v1h-1zm114 0h1v1h-1zM75 47h1v1h-1zm-53 1h1v2h-1zm111 0h1v1h-1zm-58 1h1v1h-1zm58 0h1v1h-1zM22 50h1v1h-1zm77 2h1v1h-1zm61 2h1v1h-1zm11 0h1v1h-1zm-38 1h1v2h-1zm-55 1h1v1h-1zm55 1h1v1h-1zM5 58h1v1H5zm166 0h1v1h-1z" fill="#f4f4f4"/><path d="M188 39h1v1h-1zm-35 9h1v1h-1zm-19 2h1v1h-1zm13 0h1v1h-1zM31 54h1v1h-1zm160 0h1v1h-1zM29 58h1v1h-1zm36 0h1v1h-1z" fill="#f3f3f4"/><path d="M199 39h1v1h-1zM49 42h1v1h-1zm13 0h1v1h-1zm89 0h1v1h-1zm-22 3h1v1h-1zm77 1h1v1h-1zM76 53h1v1h-1zm7 1h1v1h-1zM8 58h1v1H8zm25 0h1v1h-1zm28 0h1v1h-1zm26 0h1v1h-1zm81 0h1v1h-1z" fill="#fbfbfb"/><path d="M28 38h1v1h-1zm88 0h1v1h-1zm25 0h1v1h-1zm7 10h1v1h-1zM45 54h1v1h-1z" fill="#dfdfe0"/><path d="M135 38h1v1h-1zm38 0h1v1h-1zM69 39h1v1h-1zm135 1h1v1h-1zm1 1h1v1h-1zM92 44h1v1h-1zm108 1h1v1h-1zm-99 2h1v1h-1zm33 0h1v1h-1zm-33 3h1v1h-1zm25 0h1v1h-1zm-45 1h1v1h-1zm10 2h1v1h-1zm29 0h1v1h-1zm-48 2h1v1h-1zm106 1h1v1h-1zM70 57h1v1h-1zm105 1h1v1h-1zM23 59h1v1h-1zm67 0h1v1h-1zm17 0h1v1h-1zm14 0h1v1h-1zm6 0h1v1h-1zm64 0h1v1h-1zm6 0h1v1h-1z" fill="#cececf"/><path d="M3 39h1v1H3zm102 0h1v1h-1zm95 0h1v1h-1zM97 41h1v1h-1zm104 4h1v1h-1zm-53 1h1v1h-1zm-73 4h1v1h-1zm-53 1h1v1h-1zm104 1h1v1h-1zm53 1h1v1h-1zM64 54h1v1h-1zm27 4h1v1h-1zm107 0h1v1h-1z" fill="#f2f2f3"/><path d="M24 39h1v3h-1zm109 0h1v1h-1zm-63 1h1v1h-1zm108 1h1v1h-1zM24 42h1v1h-1zm131 0h1v1h-1zm-74 3h1v1h-1zm-59 2h1v1h-1zm-1 5h1v1h-1zm179 0h1v1h-1zm-18 1h1v1h-1z" fill="#d4d4d5"/><path d="M22 38h1v1h-1zm2 0h1v1h-1zm113 0h1v1h-1zm62 0h1v1h-1zM23 39h1v2h-1zm27 0h1v1h-1zm125 0h1v1h-1zM0 41h1v1H0zm23 0h1v1h-1zm33 2h1v1h-1zm30 0h1v1h-1zm13 0h1v1h-1zm18 0h1v1h-1zm46 0h1v1h-1zm30 0h1v1h-1zm4 0h1v1h-1zM66 44h1v1h-1zm114 1h1v1h-1zm-52 1h1v1h-1zM7 47h13v1H7zm13 0h1v1h-1zm74 0h1v1h-1zm6 0h1v1h-1zm87 3h1v1h-1zm-93 1h1v1h-1zm32 0h1v1h-1zm-51 1h1v1h-1zM5 53h1v1H5zm78 0h1v1h-1zm14 3h1v1h-1zm51 2h1v1h-1zm39 0h1v1h-1zM8 59h1v1H8zm14 0h1v1h-1zm66 0h1v1h-1zm14 0h1v1h-1zm20 0h1v1h-1zm46 0h1v1h-1zm27 0h1v1h-1z" fill="#dbdbdc"/><path d="M29 38h1v1h-1zm48 3h1v1h-1zm48 0h1v1h-1zm-18 3h1v1h-1zm46 1h1v1h-1zm48 1h1v1h-1zm-76 3h1v1h-1zm3 0h1v3h-1zm0 3h1v1h-1zm-98 1h1v1h-1zm176 0h1v1h-1zM48 58h1v1h-1z" fill="#d8d8d9"/><path d="M94 39h1v1h-1zm64 0h1v1h-1zm16 0h1v1h-1zm-13 4h1v1h-1zm29 0h1v1h-1zm-35 1h1v1h-1zm-21 1h1v1h-1zm46 2h1v1h-1zM68 48h1v1h-1zm107 0h1v1h-1zM68 49h1v1h-1zm50 3h1v1h-1zm3 1h1v1h-1zm-32 1h1v1h-1zm81 0h1v1h-1zm26 0h1v1h-1zm-23 4h1v1h-1zm16 0h1v1h-1z" fill="#ebebec"/><path d="M201 39h1v1h-1zm2 1h1v1h-1zM91 43h1v1h-1zm107 0h1v1h-1zm-63 1h1v1h-1zm71 0h1v1h-1zm-26 4h1v1h-1zm0 1h1v1h-1zM80 50h1v1h-1zm100 0h1v1h-1zM73 51h1v1h-1zm128 0h1v1h-1zM99 53h1v1h-1zm90 0h1v1h-1zM7 54h1v1H7zm25 0h1v1h-1zm30 0h1v1h-1zm107 0h1v1h-1zm23 0h1v1h-1zM79 57h1v1h-1zm107 0h1v1h-1zM28 58h1v1h-1zm38 0h1v1h-1z" fill="#e7e7e7"/><g fill="#ff890b"><path d="M111 0h1v1h-1zm2 0h1v1h-1zm1 0h1v1h-1zm1 0h1v1h-1zm1 0h1v1h-1zm1 0h1v1h-1zm1 0h1v1h-1zm1 0h1v1h-1zm1 0h1v1h-1zm1 0h1v1h-1zm1 0h1v1h-1zm1 0h1v1h-1zm1 0h2v1h-2zm2 0h1v1h-1zm1 0h1v1h-1zm1 0h1v1h-1zm1 0h1v1h-1zm1 0h1v1h-1zm1 0h1v1h-1zm1 0h1v1h-1zm1 0h1v1h-1zm1 0h1v1h-1zm1 0h1v1h-1zm1 0h1v1h-1zm1 0h1v1h-1zm1 0h1v1h-1zm1 0h1v1h-1zm-34 1h1v1h-1zm1 0h1v1h-1zm1 0h1v1h-1zm1 0h1v1h-1zm1 0h1v1h-1zm1 0h1v1h-1zm1 0h1v1h-1zm1 0h1v1h-1zm1 0h23v4h-23zm23 0h1v4h-1zm1 0h1v1h-1zm1 0h1v1h-1zm1 0h1v1h-1zm1 0h1v1h-1zm1 0h1v1h-1zm1 0h1v1h-1zm1 0h1v1h-1zm1 0h1v1h-1zm1 0h1v1h-1zm-44 1h1v1h-1zm1 0h1v1h-1zm1 0h1v1h-1zm1 0h1v1h-1zm1 0h1v1h-1zm1 0h1v1h-1z"/><path d="M107 2h37v3h-37zm37 0h1v4h-1zm1 0h1v1h-1zm1 0h1v1h-1zm1 0h1v1h-1zm1 0h1v1h-1zm1 0h1v1h-1zm1 0h1v1h-1zm1 0h1v1h-1zM98 3h1v1h-1zm1 0h1v1h-1zm1 0h1v1h-1zm1 0h1v1h-1z"/><path d="M102 3h47v2h-47zm47 0h1v4h-1zm1 0h1v1h-1zm1 0h1v1h-1zm1 0h1v1h-1zm1 0h1v1h-1zm1 0h1v1h-1zm1 0h1v1h-1zM94 4h1v1h-1zm1 0h1v1h-1zm1 0h1v1h-1zm1 0h1v1h-1z"/><path d="M98 4h56v1H98zm56 0h1v4h-1zm1 0h1v1h-1zm1 0h1v1h-1zm1 0h1v1h-1zm1 0h1v1h-1zm1 0h1v1h-1zM91 5h1v1h-1zm1 0h1v1h-1zm1 0h1v1h-1zm1 0h1v1h-1z"/><path d="M95 5h63v1H95zm63 0h1v4h-1zm1 0h1v1h-1zm1 0h1v1h-1zm1 0h1v1h-1zm1 0h1v1h-1zm1 0h1v1h-1zM88 6h1v1h-1zm1 0h1v1h-1zm1 0h1v1h-1zm1 0h1v1h-1zm1 0h18v1H92zm18 0h1v1h-1zm1 0h1v1h-1zm1 0h1v1h-1zm1 0h1v1h-1zm1 0h1v1h-1zm1 0h1v1h-1zm1 0h1v1h-1zm1 0h1v1h-1zm1 0h1v1h-1zm1 0h1v1h-1zm1 0h1v1h-1zm1 0h1v1h-1zm1 0h1v1h-1zm1 0h1v1h-1zm1 0h3v1h-3zm3 0h1v1h-1zm1 0h1v1h-1zm1 0h1v1h-1zm1 0h1v1h-1zm1 0h1v1h-1zm1 0h1v1h-1zm1 0h1v1h-1zm1 0h1v1h-1zm1 0h1v1h-1zm1 0h1v1h-1zm1 0h1v1h-1zm1 0h1v1h-1zm1 0h1v1h-1z"/><path d="M140 6h21v1h-21zm21 0h1v3h-1zm1 0h1v1h-1zm1 0h1v1h-1zm1 0h1v1h-1zm1 0h1v1h-1zm1 0h1v1h-1zM85 7h1v1h-1zm1 0h1v1h-1zm1 0h1v1h-1zm1 0h1v1h-1zm1 0h14v1H89zm14 0h1v1h-1zm1 0h1v1h-1zm1 0h1v1h-1zm1 0h1v1h-1zm1 0h1v1h-1zm1 0h1v1h-1zm1 0h1v1h-1zm1 0h1v1h-1zm1 0h1v1h-1zm3 0h1v1h-1zm23 0h1v1h-1zm1 0h1v1h-1zm1 0h1v1h-1zm1 0h1v1h-1zm1 0h1v1h-1zm1 0h1v1h-1zm1 0h1v1h-1zm1 0h1v1h-1zm1 0h1v1h-1zm1 0h1v1h-1zm1 0h1v1h-1z"/><path d="M148 7h17v1h-17zm17 0h1v4h-1zm1 0h1v1h-1zm1 0h1v1h-1zm1 0h1v1h-1zm1 0h1v1h-1zM83 8h1v1h-1zm1 0h1v1h-1zm1 0h1v1h-1zm1 0h12v1H86zm12 0h1v1h-1zm1 0h1v1h-1zm1 0h1v1h-1zm1 0h1v1h-1zm1 0h1v1h-1zm1 0h1v1h-1zm1 0h1v1h-1zm1 0h1v1h-1zm41 0h1v1h-1zm1 0h1v1h-1zm1 0h1v1h-1zm1 0h1v1h-1zm1 0h1v1h-1zm1 0h1v1h-1zm1 0h1v1h-1zm1 0h1v1h-1z"/><path d="M154 8h14v1h-14zm14 0h1v4h-1zm1 0h1v1h-1zm1 0h1v1h-1zm1 0h1v1h-1zM81 9h1v1h-1zm1 0h1v1h-1zm1 0h10v1H83zm10 0h1v1h-1zm1 0h1v1h-1zm1 0h1v1h-1zm1 0h1v1h-1zm1 0h1v1h-1zm1 0h1v1h-1zm1 0h1v1h-1zm53 0h1v1h-1zm1 0h1v1h-1zm1 0h1v1h-1zm1 0h1v1h-1zm1 0h1v1h-1zm1 0h1v1h-1z"/><path d="M158 9h12v1h-12zm12 0h1v3h-1zm1 0h1v1h-1zm1 0h1v1h-1zm1 0h1v1h-1zm-94 1h1v1h-1zm1 0h1v1h-1zm1 0h9v1h-9zm9 0h1v1h-1zm1 0h1v1h-1zm1 0h1v1h-1zm1 0h1v1h-1zm1 0h1v1h-1zm62 0h1v1h-1zm1 0h1v1h-1zm1 0h1v1h-1zm1 0h1v1h-1zm1 0h1v1h-1zm1 0h1v1h-1z"/><path d="M162 10h11v1h-11zm11 0h1v3h-1zm1 0h1v1h-1zm1 0h1v1h-1zm1 0h1v1h-1zM76 11h1v1h-1zm1 0h1v1h-1zm1 0h1v1h-1zm1 0h7v1h-7zm7 0h1v1h-1zm1 0h1v1h-1zm1 0h1v1h-1zm1 0h1v1h-1zm1 0h1v1h-1zm1 0h1v1h-1zm70 0h1v1h-1zm1 0h1v1h-1zm1 0h1v1h-1zm1 0h1v1h-1z"/><path d="M165 11h10v1h-10zm10 0h1v3h-1zm1 0h1v1h-1zm1 0h1v1h-1zm1 0h1v1h-1zM74 12h1v1h-1zm1 0h1v1h-1zm1 0h1v1h-1zm1 0h7v1h-7zm7 0h1v1h-1zm1 0h1v1h-1zm1 0h1v1h-1zm1 0h1v1h-1zm1 0h1v1h-1zm77 0h1v1h-1zm1 0h1v1h-1zm1 0h1v1h-1z"/><path d="M168 12h10v1h-10zm10 0h1v3h-1zm1 0h1v1h-1zm1 0h1v1h-1zM72 13h1v1h-1zm1 0h1v1h-1zm1 0h1v1h-1zm1 0h6v1h-6zm6 0h1v1h-1zm1 0h1v1h-1zm1 0h1v1h-1zm1 0h1v1h-1zm1 0h1v1h-1zm82 0h1v1h-1zm1 0h1v1h-1zm1 0h1v1h-1zm1 0h1v1h-1z"/><path d="M171 13h9v1h-9zm9 0h1v3h-1zm1 0h1v1h-1zm1 0h1v1h-1zM70 14h1v1h-1zm1 0h1v1h-1zm1 0h1v1h-1zm1 0h5v1h-5zm5 0h1v1h-1zm1 0h1v1h-1zm1 0h1v1h-1zm1 0h1v1h-1zm90 0h1v1h-1zm1 0h1v1h-1zm1 0h1v1h-1z"/><path d="M174 14h8v1h-8zm8 0h1v3h-1zm1 0h1v1h-1zm1 0h1v1h-1zM69 15h1v1h-1zm1 0h1v1h-1zm1 0h5v1h-5zm5 0h1v1h-1zm1 0h1v1h-1zm1 0h1v1h-1zm1 0h1v1h-1zm95 0h1v1h-1zm1 0h1v1h-1z"/><path d="M176 15h8v1h-8zm8 0h1v3h-1zm1 0h1v1h-1zm1 0h1v1h-1zM67 16h1v1h-1zm1 0h1v1h-1zm1 0h5v1h-5zm5 0h1v1h-1zm1 0h1v1h-1zm1 0h1v1h-1zm1 0h1v1h-1zm98 0h1v1h-1zm1 0h1v1h-1zm1 0h1v1h-1zm1 0h1v1h-1z"/><path d="M179 16h6v1h-6zm6 0h1v3h-1zm1 0h1v1h-1zm1 0h1v1h-1zM65 17h1v1h-1zm1 0h1v1h-1zm1 0h1v1h-1zm1 0h4v1h-4zm4 0h1v1h-1zm1 0h1v1h-1zm1 0h1v1h-1zm1 0h1v1h-1zm103 0h1v1h-1zm1 0h1v1h-1zm1 0h1v1h-1z"/><path d="M181 17h6v1h-6zm6 0h1v3h-1zm1 0h1v1h-1zm1 0h1v1h-1zm1 0h1v1h-1zM64 18h1v1h-1zm1 0h1v1h-1zm1 0h4v1h-4zm4 0h1v1h-1zm1 0h1v1h-1zm1 0h1v1h-1zm108 0h1v1h-1zm1 0h1v1h-1zm1 0h1v1h-1z"/><path d="M183 18h6v1h-6zm6 0h1v3h-1zm1 0h1v1h-1zm1 0h1v1h-1zM62 19h1v1h-1zm1 0h1v1h-1zm1 0h4v1h-4zm4 0h1v1h-1zm1 0h1v1h-1zm1 0h1v1h-1zm1 0h1v1h-1zm111 0h1v1h-1zm1 0h1v1h-1zm1 0h1v1h-1z"/><path d="M185 19h5v1h-5zm5 0h1v3h-1zm1 0h1v1h-1zm1 0h1v1h-1zm1 0h1v1h-1zM61 20h1v1h-1zm1 0h1v1h-1zm1 0h3v1h-3zm3 0h1v1h-1zm1 0h1v1h-1zm1 0h1v1h-1zm116 0h1v1h-1zm1 0h1v1h-1zm1 0h1v1h-1z"/><path d="M187 20h5v1h-5zm5 0h1v3h-1zm1 0h1v1h-1zm1 0h1v1h-1zM59 21h1v1h-1zm1 0h1v1h-1zm1 0h3v1h-3zm3 0h1v1h-1zm1 0h1v1h-1zm1 0h1v1h-1zm121 0h1v1h-1zm1 0h1v1h-1z"/><path d="M189 21h4v1h-4zm4 0h1v2h-1zm1 0h1v1h-1zm1 0h1v1h-1zM58 22h1v1h-1zm1 0h1v1h-1zm1 0h3v1h-3zm3 0h1v1h-1zm1 0h1v1h-1zm1 0h1v1h-1zm123 0h1v1h-1zm1 0h1v1h-1z"/><path d="M190 22h5v1h-5zm5 0h1v3h-1zm1 0h1v1h-1zm1 0h1v1h-1zM57 23h1v1h-1zm1 0h1v1h-1zm1 0h2v1h-2zm2 0h1v1h-1zm1 0h1v1h-1zm1 0h1v1h-1zm127 0h1v1h-1zm1 0h1v1h-1z"/><path d="M192 23h4v1h-4zm4 0h1v2h-1zm1 0h1v1h-1zm1 0h1v1h-1zM56 24h1v1h-1zm1 0h1v1h-1zm1 0h2v1h-2zm2 0h1v1h-1zm1 0h1v1h-1zm1 0h1v1h-1zm130 0h1v1h-1zm1 0h1v1h-1z"/><path d="M194 24h3v1h-3zm3 0h1v2h-1zm1 0h1v1h-1zm1 0h1v1h-1zM55 25h1v1h-1zm1 0h3v1h-3zm3 0h1v1h-1zm1 0h1v1h-1zm1 0h1v1h-1zm132 0h1v1h-1zm1 0h1v1h-1z"/><path d="M195 25h4v1h-4zm4 0h1v3h-1zm1 0h1v1h-1zM53 26h1v1h-1zm1 0h1v1h-1zm1 0h2v1h-2zm2 0h1v1h-1zm1 0h1v1h-1zm1 0h1v1h-1zm135 0h1v1h-1zm1 0h1v1h-1zm1 0h1v1h-1z"/><path d="M197 26h3v1h-3zm3 0h1v2h-1zm1 0h1v1h-1zM52 27h1v1h-1zm1 0h1v1h-1zm1 0h2v1h-2zm2 0h1v1h-1zm1 0h1v1h-1zm1 0h1v1h-1zm138 0h1v1h-1zm1 0h1v1h-1z"/><path d="M198 27h3v1h-3zm3 0h1v2h-1zm1 0h1v1h-1zm1 0h1v1h-1zM51 28h1v1h-1zm1 0h1v1h-1zm1 0h2v1h-2zm2 0h1v1h-1zm1 0h1v1h-1zm141 0h1v1h-1zm1 0h1v1h-1z"/><path d="M199 28h3v1h-3zm3 0h1v2h-1zm1 0h1v1h-1zm1 0h1v1h-1zM50 29h1v1h-1zm1 0h1v1h-1zm1 0h2v1h-2zm2 0h1v1h-1zm1 0h1v1h-1zm144 0h1v1h-1zm1 0h1v1h-1z"/><path d="M201 29h2v1h-2zm2 0h1v2h-1zm1 0h1v1h-1zm1 0h1v1h-1zM49 30h1v1h-1zm1 0h1v1h-1zm1 0h1v1h-1zm1 0h1v1h-1zm1 0h1v1h-1zm1 0h1v1h-1zm146 0h1v1h-1zm1 0h1v1h-1z"/><path d="M202 30h2v1h-2zm2 0h1v2h-1zm1 0h1v1h-1zm1 0h1v1h-1zM48 31h1v1h-1zm1 0h1v1h-1zm1 0h1v1h-1zm1 0h1v1h-1zm1 0h1v1h-1zm1 0h1v1h-1zm149 0h1v1h-1z"/><path d="M203 31h2v1h-2zm2 0h1v2h-1zm1 0h1v1h-1zm1 0h1v1h-1zM48 32h1v1h-1zm1 0h1v1h-1zm1 0h1v1h-1zm1 0h1v1h-1zm1 0h1v1h-1zm150 0h1v1h-1zm1 0h1v1h-1z"/><path d="M204 32h2v1h-2zm2 0h1v2h-1zm1 0h1v1h-1zm1 0h1v1h-1zM47 33h1v1h-1zm1 0h1v1h-1zm1 0h1v1h-1zm1 0h1v1h-1zm1 0h1v1h-1zm153 0h1v1h-1z"/><path d="M205 33h2v1h-2zm2 0h1v1h-1zm1 0h1v1h-1zm1 0h1v1h-1zM46 34h1v1h-1zm1 0h1v1h-1zm1 0h1v1h-1zm1 0h1v1h-1zm1 0h1v1h-1zm155 0h1v1h-1zm1 0h2v1h-2zm2 0h1v1h-1zm1 0h1v1h-1zM45 35h1v1h-1zm1 0h2v1h-2zm2 0h1v1h-1zm1 0h1v1h-1zm157 0h1v1h-1zm1 0h1v1h-1zm1 0h1v1h-1zm1 0h1v1h-1zm1 0h1v1h-1zM45 36h1v1h-1zm1 0h1v1h-1zm1 0h1v1h-1zm1 0h1v1h-1zm159 0h1v1h-1zm1 0h1v1h-1zm1 0h1v1h-1zm1 0h1v2h-1zm1 0h1v1h-1zM44 37h1v1h-1zm1 0h1v1h-1zm1 0h1v1h-1zm1 0h1v1h-1zm161 0h1v1h-1zm1 0h1v1h-1zm2 0h1v1h-1zm1 0h1v1h-1zM43 38h1v1h-1zm1 0h1v1h-1zm1 0h1v1h-1zm1 0h1v1h-1zm163 0h1v1h-1zm1 0h1v1h-1zm1 0h1v1h-1zm1 0h1v1h-1zm1 0h1v1h-1zM42 39h1v1h-1zm1 0h1v1h-1zm1 0h1v1h-1zm1 0h1v1h-1zm165 0h1v1h-1zm1 0h1v1h-1zm1 0h1v1h-1zm1 0h1v1h-1zM42 40h1v1h-1zm1 0h1v1h-1zm1 0h1v1h-1zm1 0h1v1h-1zm166 0h1v1h-1zm1 0h1v1h-1zm1 0h1v1h-1zm1 0h1v1h-1zM41 41h1v1h-1zm1 0h1v1h-1zm1 0h1v1h-1zm1 0h1v1h-1zm168 0h1v1h-1zm1 0h1v1h-1zm1 0h1v1h-1zM41 42h1v1h-1zm1 0h1v1h-1zm1 0h1v1h-1zm169 0h1v1h-1zm1 0h1v1h-1zm1 0h1v1h-1zm1 0h1v1h-1zM40 43h1v1h-1zm1 0h1v1h-1zm1 0h1v1h-1zm171 0h1v1h-1zm1 0h1v1h-1zm1 0h1v1h-1zm1 0h1v1h-1zM40 44h1v1h-1zm1 0h1v1h-1zm1 0h1v1h-1zm172 0h1v1h-1zm1 0h1v1h-1zm1 0h1v1h-1zm1 0h1v1h-1zM39 45h1v1h-1zm1 0h1v1h-1zm1 0h1v1h-1zm174 0h1v1h-1zm1 0h1v1h-1zm1 0h1v1h-1zM39 46h1v1h-1zm1 0h1v1h-1zm176 0h1v1h-1zm1 0h1v1h-1zm1 0h1v1h-1zM38 47h1v1h-1zm1 0h1v1h-1zm1 0h1v1h-1zm176 0h1v1h-1zm1 0h1v1h-1zm1 0h1v1h-1zM38 48h1v1h-1zm1 0h1v1h-1zm178 0h1v1h-1zm1 0h1v1h-1zm1 0h1v1h-1zM37 49h1v1h-1zm1 0h1v1h-1zm1 0h1v1h-1zm179 0h1v1h-1zm1 0h1v1h-1zM37 50h1v1h-1zm1 0h1v1h-1zm180 0h1v1h-1zm1 0h1v1h-1zm1 0h1v1h-1zm-1 1h1v1h-1zm1 0h1v1h-1zm-1 1h1v1h-1zm1 0h1v1h-1zm1 0h1v1h-1zm-1 1h1v1h-1zm1 0h1v1h-1zm0 1h1v1h-1zm1 0h1v1h-1zm-1 1h1v1h-1zm1 0h1v1h-1zm0 1h1v1h-1zm0 1h1v1h-1zm1 0h1v1h-1zm-1 1h1v1h-1zm1 0h1v1h-1zm0 1h1v1h-1z"/></g><path d="M146 1h1v1h-1zM90 5h1v1h-1zm-8 3h1v1h-1zm18 1h1v1h-1zm60 2h1v1h-1zm19 0h1v1h-1zm2 1h1v1h-1zm2 1h1v1h-1zM68 15h1v1h-1zm5 3h1v1h-1zm119 7h1v1h-1zm9 0h1v1h-1zM76 41h1v1h-1zm53 1h1v1h-1zm17 3h1v1h-1zm-79 2h1v1h-1zm34 1h1v1h-1zm0 1h1v1h-1zm99 0h1v1h-1zM37 52h1v1h-1zm38 3h1v1h-1zm1 1h1v1h-1zm145 0h1v1h-1zM30 59h1v1h-1zm54 0h1v1h-1zm17 0h1v1h-1z" fill="#f49c47"/><path d="M4 38h1v1H4zm80 0h1v1h-1zm22 0h1v1h-1zm13 0h1v1h-1zm17 0h1v1h-1zm24 0h1v1h-1zm31 0h1v1h-1zm7 0h1v1h-1zM68 39h1v1h-1zm80 0h1v1h-1zM7 43h1v1H7zm41 0h1v1h-1zm7 0h1v1h-1zm34 0h1v1h-1zm20 0h1v1h-1zm29 0h1v1h-1zm53 0h1v1h-1zm5 0h1v1h-1zM5 45h1v1H5zm95 5h1v1h-1zm-8 3h1v1h-1zm-69 2h1v3h-1zm98 0h1v3h-1zm-98 3h1v1h-1zm4 0h1v1h-1zm54 0h1v1h-1zm40 0h1v1h-1zm80 0h1v1h-1z" fill="#e0e0e1"/><path d="M6 38h1v1H6zm57 0h1v1h-1zm45 0h1v1h-1zm35 0h1v1h-1zm27 0h1v1h-1zM6 43h1v1H6zm102 0h1v1h-1zm-35 2h1v1h-1zm46 2h1v1h-1zm80 6h1v1h-1z" fill="#e4e4e4"/><path d="M53 38h1v1h-1zm38 0h1v1h-1zm29 0h1v1h-1zm70 0h1v1h-1zm-40 2h1v1h-1zM24 43h1v9h-1zm66 0h1v1h-1zm36 0h1v1h-1zm36 0h1v1h-1zm8 0h1v1h-1zm-88 1h1v1h-1zM6 47h1v1H6zm120 0h1v1h-1zm75 3h1v1h-1zM7 52h13v1H7zm13 0h1v1h-1zm4 0h1v1h-1zm156 0h1v1h-1zm4 4h1v1h-1zM1 57h1v1H1zm95 0h1v1h-1zm78 1h1v1h-1z" fill="#d9d9da"/><path d="M92 39h1v1h-1zm85 2h1v1h-1zM8 42h1v1H8zm1 0h11v1H9zm11 0h1v1h-1zm1 0h1v1h-1zm35 0h1v1h-1zm1 0h4v1h-4zm4 0h1v1h-1zm26 0h1v1h-1zm1 0h1v1h-1zm22 0h1v1h-1zm1 0h5v1h-5zm5 0h1v1h-1zm24 0h1v1h-1zm1 0h1v1h-1zm1 0h1v1h-1zm22 0h4v1h-4zm4 0h1v1h-1zm1 0h1v1h-1zm25 0h1v1h-1zm1 0h1v1h-1zM72 44h1v1h-1zm30 1h1v1h-1zm0 1h1v6h-1zm15 2h1v1h-1zm65 0h1v1h-1zm20 0h1v1h-1zm-20 1h1v1h-1zm-49 1h1v1h-1zM29 52h1v1h-1zm73 0h1v1h-1zM0 53h1v1H0zm102 0h1v4h-1zm24 0h1v1h-1zm64 1h1v1h-1zM27 57h1v1h-1zm75 0h1v1h-1zM9 58h11v1H9zm11 0h1v1h-1zm14 0h10v1H34zm10 0h1v1h-1zm6 0h10v1H50zm10 0h1v1h-1zm44 0h1v1h-1zm1 0h1v1h-1zm25 0h1v1h-1zm1 0h1v1h-1zm19 0h1v1h-1zm1 0h1v1h-1zm6 0h10v1h-10zm10 0h1v1h-1z" fill="#fcfcfc"/><path d="M183 42h1v1h-1zm-54 1h1v1h-1zM5 44h1v1H5zm183 8h1v1h-1zm-60 1h1v4h-1zm-30 2h1v1h-1zm30 2h1v1h-1z" fill="#d6d6d7"/><path d="M54 43h1v1h-1zm26 3h1v1h-1zm45 4h1v1h-1zm49 2h1v1h-1zm-39 2h11v1h-11zm11 0h1v1h-1z" fill="#eaeaeb"/><path d="M81 39h1v1h-1zm-16 4h1v1h-1zm80 0h1v1h-1zm-70 3h1v1h-1zm100 1h1v1h-1zM73 49h1v1h-1zM6 54h1v1H6zm89 3h1v1h-1zm58 1h1v1h-1zm19 0h1v1h-1z" fill="#f1f1f1"/><path d="M49 40h1v1h-1zm81 1h1v1h-1zm-82 1h1v1h-1zm72 2h1v1h-1zm68 1h1v1h-1zM75 53h1v1h-1zm24 1h1v1h-1zm28 1h1v2h-1zM0 56h1v1H0zm77 0h1v1h-1zm50 1h1v1h-1z" fill="#c7c7c8"/><path d="M71 42h1v1h-1zm122 0h1v1h-1zm-72 4h1v1h-1zm-26 1h1v1h-1zm106 5h1v1h-1zM88 58h1v1h-1zm105 0h2v1h-2zm2 0h1v1h-1z" fill="#fafafb"/></svg>