<svg xmlns="http://www.w3.org/2000/svg" role="img" viewBox="-10.38 -9.88 513.76 217.76"><title>Embecosm (member) logo</title><path fill="#25227e" fill-rule="evenodd" d="M180.70006 99.20492c0 54.78958-44.41573 99.20531-99.20531 99.20531-33.75674 0-63.57557-16.86015-81.49489-42.61887 0-5.86263.0003-111.1939.0003-113.17332C17.91952 16.85957 47.73821-.0004 81.49475-.0004c54.78958 0 99.20531 44.41574 99.20531 99.20532z"/><path fill="#fff" d="M145.498 115.829v-10.375h9c3.25 0 6.1875 2.125 6.1875 5s-1.5 5.4375-6.25 5.4375-8.9375-.0625-8.9375-.0625zm-16.125-40.375v51.375s19.25-.375 29.5-.375 17.75-2.625 17.75-14.125-10.375-12.875-10.375-12.875 8.625-3.625 8.625-11.125-6.25-12.75-15.375-12.75-30.125-.125-30.125-.125zm16.0625 10.84375h8.5c2.78125 0 4.84375 1.28125 4.84375 4.65625s-1.5625 4.90625-4.8125 4.90625h-8.53125zM60.998 126.704V75.579h20.625l8.25 30.125 8.5-30h20.375v51h-12.875V86.579l-10 40.25H83.998L73.873 86.954v39.875zm-51.5 0V75.579h41.875v10.75h-26.25v8.25h24.25v10.75H25.248v9.875h27v11.75z"/><path fill="#25227e" d="M402.873 126.829V75.204h20.75l8.125 32.375 8.625-32.375h20.25v51.625h-12.5v-40.5l-10.625 40.375h-11.375l-10.25-40.875v41zm-38.6875-17.4375c.91693 10.59571 16.44262 10.11427 16.5625 3.5.0817-4.50628-5.0625-5.375-13.1875-7.75-7.13146-2.08458-16-5.625-16-14.5 0-10.4375 9.0625-16.125 21.3125-16.125s20.125 4.75 21.25 15.3125h-14.8125c-1.8689-7.6396-13.27634-7.01223-13.0625-1.875.1406 3.37767 4.625 4.125 14.5625 6.6875s15.1875 6.875 15.1875 15.6875-6.9375 17.625-22.375 17.625-23.75-6.25-23.75-17.9375zM316.873 74.454c-11.375 0-26.375 5.1875-26.375 26.8125 0 22.03684 16.25 26.4375 27.125 26.4375s25.75-4.375 25.75-26.125-15.125-27.125-26.5-27.125zm.0625 11.8125c4.4375 0 10.625 2.375 10.625 14.5625 0 12.75-5.5625 14.9375-10.4375 14.9375-4.625 0-11.1875-1.89747-11.1875-13.9375 0-13.3125 6.625-15.5625 11-15.5625zm-46.9375 7.125s-1.3125-7.1875-9.0625-7.1875-10.5625 6.25-10.5625 15.125 1.875 14.625 9.625 14.625 10.5625-9.6875 10.5625-9.6875l13.75 4s-2.0625 17.5625-23.25 17.5625-26.625-14.375-26.625-25.8125 5.125-27.5625 25.875-27.5625 23.125 16.0625 23.125 16.0625zm-85.4375 33.4375V75.5165h41.6875V86.204h-26v8.25h23.9375v10.875H200.373v10.0625h26.9375v11.4375z"/><path d="M479.52534 52.1992c-1.57554.00002-3.04038.28648-4.39453.85937-1.35418.55992-2.59767 1.40627-3.73047 2.53906-1.13282 1.13283-1.98569 2.37632-2.55859 3.73047-.55991 1.34116-.83986 2.806-.83985 4.39453-.00001 1.57553.27994 3.04038.83985 4.39453.5729 1.34116 1.42577 2.57813 2.55859 3.71094 1.11978 1.1198 2.35676 1.95964 3.71094 2.51953 1.36717.5599 2.83852.83985 4.41406.83984 1.60154 0 3.07289-.27343 4.41406-.8203 1.34112-.5599 2.5781-1.40625 3.71094-2.53907 1.13278-1.1328 1.97914-2.36978 2.53906-3.71094.57289-1.35415.85935-2.819.85938-4.39453-.00003-1.58852-.28649-3.05337-.85938-4.39453-.55992-1.35415-1.40628-2.59764-2.53906-3.73047-1.14586-1.1458-2.39586-1.99867-3.75-2.5586-1.34117-.55986-2.7995-.83981-4.375-.83984m-1.11328 5.76172h-.6836v4.04297h.6836c1.0156.00002 1.77732-.16925 2.28515-.50781.52082-.35155.78123-.86587.78125-1.54297-.00002-.67706-.25392-1.17837-.76171-1.5039-.49482-.3255-1.26304-.48827-2.30469-.48829m.72265-2.69531c2.29165.00002 4.00389.39065 5.13672 1.17187 1.13279.76825 1.6992 1.94013 1.69922 3.51563-.00002 1.1198-.34508 2.04429-1.03515 2.77344-.67711.72918-1.64065 1.20444-2.89063 1.42578.53383.28647 1.02862.69012 1.48438 1.21094.46872.52084.8919 1.15886 1.26953 1.91406l2.16797 4.3164h-4.47266l-2.08984-4.16015c-.49482-1.01562-.93101-1.73176-1.3086-2.14844-.37762-.42967-.75522-.64452-1.13281-.64453h-.23438v6.95312h-4.16015V55.2656h5.5664m.39063-6.07422c1.97914.00003 3.82159.3581 5.52734 1.07422 1.71873.71617 3.28774 1.78388 4.70703 3.20312 1.41924 1.4193 2.48044 2.9818 3.1836 4.6875.70309 1.70575 1.05465 3.56122 1.05469 5.56641-.00004 1.97918-.3516 3.82163-1.05469 5.52734-.70316 1.69272-1.76436 3.2487-3.1836 4.66797-1.41929 1.41928-2.9883 2.48698-4.70703 3.20313-1.70575.71614-3.5482 1.07422-5.52734 1.07422-1.97918 0-3.82814-.35808-5.54688-1.07422-1.70574-.71615-3.26824-1.78385-4.6875-3.20313-1.41927-1.41926-2.48047-2.97525-3.18359-4.66797-.70313-1.70571-1.05469-3.54816-1.05469-5.52734 0-2.0052.35156-3.86066 1.05469-5.5664.70312-1.70571 1.76432-3.26821 3.18359-4.6875 1.41926-1.41925 2.98176-2.48696 4.6875-3.20313 1.71874-.71612 3.5677-1.0742 5.54688-1.07422" style="text-align:start" fill="#25227e"/></svg>