<svg xmlns="http://www.w3.org/2000/svg" role="img" xmlns:xlink="http://www.w3.org/1999/xlink" viewBox="0.59 1.84 229.58 64.83"><title>Emproof (member) logo</title><defs><path d="M5.125-43.03906h31.3789v5.27343H10.8125v13.07032h23.75781v4.97656H10.8125V-5.125h26.13281V0H5.125zm0 0" id="a"/><path d="M3.86719-31.375h5.21484v4.45313c1.25-1.54297 2.38281-2.66797 3.39844-3.3711 1.73828-1.1914 3.71094-1.78515 5.91797-1.78515 2.5 0 4.51172.61328 6.03515 1.84374.85938.70313 1.64063 1.73829 2.34375 3.10547 1.17188-1.67968 2.55079-2.92578 4.12891-3.73437 1.58203-.8125 3.35938-1.21485 5.33594-1.21485 4.21875 0 7.08593 1.52344 8.60937 4.57032.82032 1.64062 1.23438 3.84375 1.23438 6.61718V0h-5.48047v-21.79688c0-2.08984-.52344-3.52343-1.5664-4.30468-1.04688-.78125-2.32032-1.17188-3.82423-1.17188-2.0703 0-3.85156.6914-5.34765 2.07813C28.375-23.8086 27.625-21.4922 27.625-18.25V0h-5.35938v-20.47656c0-2.1289-.2539-3.6836-.76171-4.66016-.80079-1.46484-2.29297-2.19922-4.48047-2.19922-1.99219 0-3.80469.77344-5.4375 2.3164-1.6289 1.54298-2.44532 4.33595-2.44532 8.37891V0H3.8672zm0 0" id="b"/><path d="M17.10938-3.54688c2.46093 0 4.5078-1.02734 6.13671-3.08984 1.63282-2.0586 2.44922-5.14062 2.44922-9.24219 0-2.5-.36328-4.64843-1.08593-6.4453-1.3672-3.45704-3.8672-5.1836-7.5-5.1836-3.65235 0-6.15235 1.82422-7.5 5.47656-.72266 1.95313-1.08594 4.4336-1.08594 7.4414 0 2.42188.36328 4.48048 1.08593 6.1836 1.3672 3.24219 3.8672 4.85938 7.5 4.85938zM3.45702-31.23046h5.1289v4.16016c1.0547-1.42578 2.20313-2.53125 3.45313-3.3125 1.77735-1.17188 3.86719-1.75782 6.27344-1.75782 3.55469 0 6.57031 1.36329 9.05078 4.08985 2.48047 2.72265 3.72266 6.61328 3.72266 11.67578 0 6.83594-1.78907 11.71875-5.36328 14.64844C23.45703.1289 20.8203 1.05469 17.8125 1.05469c-2.36328 0-4.34375-.51563-5.94531-1.55469-.9375-.58594-1.98438-1.58984-3.13672-3.01563v16.02344H3.45703zm0 0" id="c"/><path d="M4.01563-31.375h5.0078v5.41797c.41016-1.05469 1.41407-2.33985 3.01563-3.85156 1.60157-1.51563 3.44922-2.26954 5.53907-2.26954.09765 0 .26562.00782.5.02735.23437.01953.6328.0586 1.19921.11719v5.5664c-.3125-.0586-.60156-.09765-.86328-.11718-.26562-.01954-.55468-.03126-.86718-.03126-2.65626 0-4.69532.85547-6.1211 2.56641C10-22.24219 9.28906-20.27344 9.28906-18.04687V0H4.01563zm0 0" id="d"/><path d="M16.32031-3.39844c3.4961 0 5.89063-1.32422 7.1914-3.96875 1.29688-2.64844 1.94923-5.59375 1.94923-8.83594 0-2.92968-.46875-5.3125-1.40625-7.14843C22.5703-26.2422 20.0078-27.6875 16.375-27.6875c-3.22266 0-5.5625 1.23438-7.03125 3.69531-1.46484 2.46094-2.19531 5.42969-2.19531 8.90625 0 3.33985.73437 6.1211 2.19531 8.34766 1.46484 2.22656 3.78906 3.33984 6.97656 3.33984zm.20313-28.88672c4.04297 0 7.46093 1.34766 10.2539 4.04297 2.79297 2.69532 4.19141 6.66016 4.19141 11.89453 0 5.0586-1.23438 9.23829-3.69531 12.53907C24.8125-.50781 20.99609 1.14063 15.8203 1.14063c-4.3164 0-7.74218-1.45704-10.28125-4.37891C3-6.15625 1.72656-10.07813 1.72656-15c0-5.27344 1.33985-9.47266 4.01563-12.59766 2.67578-3.125 6.26953-4.6875 10.78125-4.6875zm0 0" id="e"/><path d="M5.1875-36.15234c.07813-2.1875.45703-3.78907 1.14063-4.8047 1.23046-1.79687 3.60156-2.6953 7.11718-2.6953.33203 0 .67578.01172 1.02735.02734.35156.01953.7539.05078 1.19922.08984v4.8047c-.54688-.03907-.94141-.0625-1.1836-.07423-.2461-.00781-.47265-.01562-.6914-.01562-1.60157 0-2.5547.41797-2.8672 1.2461-.3125.83202-.46874 2.9453-.46874 6.34374h5.21093v4.16016h-5.27343V0H5.1875v-27.07031H.82031v-4.16016H5.1875zm0 0" id="f"/></defs><use y="50" xlink:href="#a"/><use x="40.02" y="50" xlink:href="#b"/><use x="90" y="50" xlink:href="#c"/><use x="123.369" y="50" xlink:href="#d"/><use x="143.35" y="50" xlink:href="#e"/><use x="176.719" y="50" xlink:href="#e"/><use x="210.088" y="50" xlink:href="#f"/></svg>