<svg xmlns="http://www.w3.org/2000/svg" role="img" viewBox="102.96 220.96 1042.08 481.08"><title>ETH Zurich (member) logo</title><path fill="#d39329" d="M123.596 599.4h1002.212v82.751H123.67l-.074-82.751z"/><path fill="#fff" d="M295.93848 663.07031v-44.70117h46.75928v5.27441h-37.58691v13.84375h32.52832v5.27539h-32.52832v20.30762h-9.17236zm82.78662-21.77148c0-7.41992 3.08887-13.22852 9.2666-17.42676 6.17773-4.19727 14.15234-6.2959 23.92383-6.2959 6.39844 0 12.16602.98633 17.30371 2.95703 5.1377 1.97266 9.05469 4.72168 11.74902 8.24902 2.69531 3.52637 4.04297 7.52637 4.04297 11.99805 0 4.5332-1.41895 8.58887-4.25586 12.16699-2.83594 3.57812-6.85547 6.28613-12.05566 8.12598-5.20117 1.83984-10.81152 2.75977-16.83203 2.75977-6.52441 0-12.35547-1.0166-17.49316-3.0498-5.1377-2.03223-9.03027-4.80664-11.67773-8.32422-2.64746-3.5166-3.97168-7.23633-3.97168-11.16016zm9.45605.0918c0 5.38672 2.24609 9.63086 6.7373 12.73047s10.125 4.64941 16.90234 4.64941c6.90234 0 12.58398-1.56445 17.04395-4.69531 4.45996-3.12988 6.69043-7.57227 6.69043-13.3252 0-3.63867-.9541-6.81543-2.86035-9.5293-1.90723-2.71289-4.69727-4.81738-8.36914-6.31152s-7.79297-2.24121-12.36328-2.24121c-6.49316 0-12.08008 1.43848-16.76074 4.31445-4.68066 2.87695-7.02051 7.67969-7.02051 14.4082zm141.03418-23.02149h9.17188v25.82617c0 4.49316-.78809 8.06055-2.36328 10.70312-1.57715 2.64258-4.4209 4.79199-8.53418 6.44922s-9.51172 2.48535-16.19336 2.48535c-6.49316 0-11.80469-.72266-15.93359-2.16504-4.12891-1.44336-7.07617-3.53223-8.84082-6.2666-1.76562-2.7334-2.64746-6.46875-2.64746-11.20605v-25.82617h9.17188v25.7959c0 3.88281.55957 6.74414 1.67871 8.58398 1.11816 1.83984 3.04102 3.25781 5.76758 4.25293 2.72656.99707 6.05957 1.49414 10 1.49414 6.74414 0 11.55176-.98535 14.41992-2.95703s4.30273-5.76367 4.30273-11.37402v-25.7959zm51.25098 44.70117v-44.70117h9.4082l36.40576 35.0957v-35.0957h8.79395v44.70117h-9.4082l-36.40576-35.12695v35.12695h-8.79395zm96.92334 0v-44.70117h23.87695c5.38965 0 9.50293.21289 12.33984.63965 3.9707.58984 7.35938 1.65723 10.16504 3.20215 3.65625 1.99219 6.38965 4.53809 8.20312 7.6377 1.81152 3.10059 2.71777 6.64258 2.71777 10.62695 0 3.39551-.61426 6.40332-1.84375 9.02539-1.22949 2.62305-2.80566 4.79297-4.72754 6.51074-1.92285 1.71777-4.02734 3.06934-6.31152 4.05469-2.28613.98633-5.04395 1.7334-8.27441 2.24121-3.23145.50879-6.94238.7627-11.13379.7627h-25.01172zm9.17283-5.27539h14.79787c4.57031 0 8.15625-.27441 10.75684-.82324 2.59961-.54883 4.67188-1.32129 6.2168-2.31738 2.1748-1.40234 3.86914-3.28809 5.08301-5.65625 1.21289-2.36816 1.82031-5.23926 1.82031-8.61426 0-4.6748-1.19043-8.26758-3.57031-10.77832s-5.27148-4.19336-8.67578-5.04688c-2.45801-.60938-6.41406-.91504-11.86719-.91504h-14.56154v34.15137zm89.21584 5.27539v-44.70117h9.17188v44.70117h-9.17188zm52.14941 0v-44.70117h9.4082l36.40527 35.0957v-35.0957h8.79395v44.70117h-9.4082l-36.40527-35.12695v35.12695h-8.79395zm129.35645-17.5332v-5.24414l29.36035-.03125v16.58789c-4.50781 2.31738-9.15723 4.06055-13.94727 5.22949-4.79199 1.16895-9.70898 1.75391-14.75195 1.75391-6.80762 0-12.99414-.94043-18.55664-2.82129-5.56348-1.87988-9.76367-4.59863-12.60059-8.15625-2.83594-3.55762-4.25488-7.53125-4.25488-11.92285 0-4.34961 1.41016-8.41016 4.23145-12.18164 2.82031-3.77051 6.87891-6.57031 12.1748-8.40039 5.29492-1.8291 11.39453-2.74414 18.29688-2.74414 5.01172 0 9.54199.52344 13.59277 1.57031 4.0498 1.04688 7.22559 2.50586 9.52734 4.37598 2.2998 1.87012 4.0498 4.30957 5.24805 7.31738l-8.27441 1.46387c-1.04004-2.27637-2.33301-4.06543-3.87695-5.36621-1.54492-1.30078-3.75098-2.34277-6.61914-3.12598-2.86816-.78223-6.05176-1.17383-9.5498-1.17383-4.19238 0-7.81738.41211-10.875 1.23535s-5.52441 1.90527-7.39941 3.24707-3.33301 2.81543-4.37305 4.42188c-1.76562 2.76465-2.64746 5.7627-2.64746 8.99512 0 3.98438 1.06348 7.31738 3.19141 10.00098s5.22461 4.67578 9.29004 5.97656c4.06641 1.30078 8.38477 1.95117 12.95508 1.95117 3.97168 0 7.84863-.49219 11.63086-1.47852 3.78223-.98535 6.64941-2.03809 8.60449-3.15625v-8.32422H957.2842z"/><path fill="#0d0d0d" fill-rule="evenodd" d="M156.95333 242.66141c-.31576 1.0617-7.08407 34.00172-8.66289 42.13834-.20136 1.05254-2.59932 13.06526-5.33136 26.69798-2.72746 13.63272-6.07729 30.45053-7.43645 37.36986-5.26729 26.79866-6.61272 33.46629-8.4295 41.73104-1.03424 4.70441-1.88085 9.25322-1.88085 10.11356q0 1.55593 60.81411 1.35916l60.81868-.1922 1.62458-8.39289c.89695-4.61288 2.53068-12.79068 3.63356-18.17239 1.10288-5.38628 2.00441-10.44764 2.00441-11.25306 0-1.42323-1.0022-1.46441-35.42036-1.46441-21.11493 0-35.59884-.2883-35.85969-.70932-.35695-.57661 1.51475-10.64899 3.79373-20.45595l.39814-1.7161h72.09921l3.29034-16.58899c1.80763-9.12051 3.44594-17.18849 3.64729-17.92069.33865-1.25847-1.74356-1.33627-35.97409-1.33627-34.24426 0-36.30816-.0778-35.92376-1.33627.45306-1.49187 4.27424-20.32323 4.27424-21.06917 0-.26084 25.91087-.47593 57.58326-.47593 36.97631 0 57.58326.26543 57.58326.74593 0 .40729-1.23102 6.84611-2.73661 14.30086-1.51018 7.45475-3.54203 17.78797-4.52135 22.95917-.97933 5.17119-2.16458 11.00593-2.63136 12.96459s-3.05695 14.7173-5.75695 28.35002c-2.7 13.6373-5.60593 28.17154-6.45255 32.29934-.85119 4.13238-1.54221 7.99017-1.54221 8.58051 0 1.30881 48.38037 1.62915 49.18123.32491.25627-.41187 1.64746-6.67221 3.08898-13.92103 1.44611-7.24424 3.01577-15.06052 3.48713-17.36695.47593-2.30645 4.60373-23.03239 9.18001-46.05562 4.57627-23.02324 8.50273-42.15664 8.72696-42.52274.83288-1.35 42.26647-.80543 42.26647.55373 0 .66814-5.31763 27.76883-11.82052 60.22378-6.50289 32.45036-11.82509 59.18952-11.82509 59.41835 0 .81458 48.7053.4439 49.21326-.37068.53084-.86034 7.76593-36.18918 10.31034-50.31613.86493-4.8234 1.75273-9.37221 1.9678-10.10441.41185-1.40491 36.90309-2.16 36.89852-.76424-.00915 1.40491-8.64916 45.32342-10.68102 54.27919-.80086 3.53288-1.27678 6.70424-1.06171 7.05661.21507.3478 11.34918.6361 24.73933.6361h24.35035l.39813-1.7161c.21965-.94272 1.04338-4.97442 1.83052-8.96035 6.94677-35.19154 11.03799-55.61546 12.31019-61.39987.8283-3.77543 2.18744-10.47052 3.02036-14.87289.8283-4.40695 3.06152-15.55933 4.96068-24.78968 3.07524-14.92323 8.04968-39.95087 9.28526-46.71461l.45762-2.48034h-49.4604l-1.63831 8.20068c-.90152 4.50763-3.72053 18.30052-6.26036 30.65189-2.54441 12.34679-4.62205 22.73036-4.62205 23.069 0 .34322-8.23731.62237-18.3051.62237-14.45644 0-18.3051-.20593-18.3051-.9839 0-1.15322 2.13713-12.03102 7.97646-40.5824 2.32019-11.32628 4.21474-20.68018 4.21931-20.78544.0412-1.16237-306.55089-.0183-306.8941 1.14407m549.80275-.37983c-.38441 1.02051-3.40934 17.22967-3.40934 18.25933 0 .33864 3.37275.6178 7.4959.6178h7.49133l1.652-8.20068c.90609-4.50763 1.86253-8.9695 2.12795-9.91679.56743-2.03187-14.60287-2.78237-15.35799-.75966m42.78819.75966c-2.02726 9.7795-3.48709 17.12442-3.48709 17.56832 0 .48509 15.2161.83746 15.2802.35695.01376-.10526.81001-4.40238 1.76645-9.55068 2.05931-11.08831 2.6634-10.09068-6.10014-10.09068-6.75003 0-7.12068.08695-7.45935 1.7161m156.38958-.37983c-.38441 1.29966-3.51914 17.46764-3.51914 18.15408 0 .18763 3.41845.34322 7.59202.34322h7.59202l.4851-2.86017c.27003-1.57424 1.13946-5.72034 1.94032-9.21204.80086-3.49627 1.45983-6.67221 1.45983-7.05661 0-1.45525-15.11087-.84203-15.55016.63152m150.92551-.37983c-.47134 1.33627-31.64952 157.35062-31.64952 158.37572 0 .55372 2.54441.83745 7.43645.83745h7.43645l1.72986-8.20068c.95183-4.50763 4.11408-20.20883 7.02914-34.88952 5.81643-29.29274 6.97879-33.44342 11.12031-39.68087 9.55986-14.40612 31.69525-19.10595 41.07209-8.72695 7.3632 8.15035 7.05665 11.73356-6.74542 78.15361-1.04338 5.03389-2.11426 10.26458-2.37053 11.62831l-.47134 2.48034h15.22071l1.231-5.52814c.67727-3.04323 2.0776-9.82068 3.11183-15.06509s3.44596-17.08324 5.35884-26.31358c6.97879-33.72714 7.26711-38.79766 2.73204-48.0097-9.03356-18.34628-37.68101-22.33222-54.8375-7.62865-1.80304 1.54678-3.48255 2.6039-3.73421 2.35678-.38901-.38898 3.73421-21.73273 9.6697-50.06444 2.39798-11.44526 2.80529-10.68103-5.7341-10.68103-5.1254 0-7.3678.28373-7.60578.95644M837.20278 292.0074c-7.11607 1.81678-13.04241 5.19865-17.33036 9.88475-2.78692 3.0478-3.07524 2.42543-1.86253-4.00424l1.03423-5.4595h-14.89119l-.8695 4.00424c-.47595 2.20119-1.89458 9.32187-3.15303 15.82476-1.25391 6.50288-3.28117 16.79951-4.49849 22.88137-1.21732 6.08186-3.9585 20.15391-6.08645 31.27426-2.13256 11.11577-4.34745 22.26816-4.92409 24.7851s-1.28135 6.03611-1.56967 7.82085l-.51715 3.24h7.28541c9.02441 0 7.62868 2.78238 13.39016-26.69341 9.83442-50.32529 10.63068-52.89716 19.11965-61.56462 10.15019-10.36068 27.15103-12.37882 34.62867-4.1095 2.08675 2.30187 2.51236 2.12339 8.84593-3.77085l5.72034-5.31763-2.97001-2.64967c-7.27172-6.48001-20.15848-9.00611-31.35205-6.14594m135.7643.06407c-32.91711 7.07034-55.83968 58.5214-40.99884 92.01515 9.5232 21.49018 44.23888 25.64087 66.02646 7.88949l4.3612-3.55119-1.70696-2.42542c-.94268-1.33627-2.35678-3.11187-3.14388-3.95389-.79171-.83745-1.96776-2.3156-2.61766-3.28118l-1.18066-1.76186-1.98152 2.16458c-10.5575 11.54136-31.22391 13.75171-40.87531 4.37035-14.30086-13.90273-6.4754-57.43224 12.98292-72.21819 12.85932-9.77035 32.05682-8.34255 39.66714 2.9517l1.56967 2.32933 5.30389-4.5717c6.53035-5.62882 6.36563-5.11627 2.89676-8.95119-9.1434-10.12272-24.67526-14.36035-40.30328-11.00594m-389.34943 5.50525c-.50339 2.83271-1.08 5.7478-1.28135 6.48458-.34321 1.24933 1.29965 1.3317 26.76205 1.3317 15.12459 0 27.12816.29746 27.12816.67271 0 .37068-4.54422 5.79814-10.10441 12.06306-20.41933 23.00952-58.88752 66.81818-60.89191 69.34429-1.86253 2.34306-3.74797 9.13883-3.74797 13.51373 0 1.43695 75.72363 2.01815 76.60682.58576.32034-.52169 2.71374-11.8434 2.71374-12.85017 0-.10525-12.89594-.1922-28.65663-.1922-24.08036 0-28.62001-.16932-28.40951-1.06169.20592-.8878 5.74321-7.37238 16.90476-19.79239 1.18984-1.32255 14.05831-15.88425 28.60171-32.34968 27.86949-31.56714 27.1556-30.58324 28.70698-39.74495l.53084-3.15305H584.5373l-.91981 5.14831m99.20448 4.57627c-.96559 5.34967-2.39798 12.63967-3.18051 16.20916-12.20492 55.75274-12.29643 65.55971-.68645 76.98667 11.66033 11.48187 36.68798 10.4339 49.73954-2.08221 3.4734-3.3361 4.03168-2.93796 2.94711 2.11425-1.56053 7.2717-1.85799 6.96509 6.56694 6.71339l7.39986-.21509 1.32255-6.48458c.72307-3.56491 2.20574-11.11577 3.29492-16.7812 1.08918-5.66085 2.84188-14.41527 3.8944-19.44917 1.05713-5.03389 4.32461-21.33459 7.26711-36.22579 2.93796-14.89578 5.53732-27.86036 5.77523-28.82138l.43014-1.74356-8.28305.21966-8.28305.21509-.64528 3.81661c-.54913 3.24458-10.20968 52.51276-12.78614 65.21191-6.43427 31.70444-51.7897 38.82512-51.7897 8.12747 0-4.89204 11.84339-68.51141 14.18644-76.19954.37068-1.21271-.32491-1.33627-7.50051-1.33627h-7.90747l-1.76188 9.72458m212.67323-6.48458c-.48049 1.78474-1.65661 7.36322-2.61305 12.39713-.95183 5.0339-4.56252 23.0507-8.01763 40.04241-5.11626 25.14205-10.62614 53.02528-10.66273 53.95885-.00461.10525 3.39562.1922 7.55997.1922h7.56458l.47595-2.48034c.26088-1.36373 1.30425-6.42509 2.31558-11.24848s4.78681-23.87442 8.38828-42.33054c3.60154-18.45612 7.39071-37.40647 8.42494-42.11088 2.75948-12.59848 3.18969-11.66035-5.34509-11.66035h-7.21223l-.87865 3.24"/></svg>