<svg xmlns="http://www.w3.org/2000/svg" role="img" viewBox="668.10 668.10 2048.80 788.80"><title>European Space Agency (member) logo</title><path d="M1032 710.1c-52.4 4.5-107.6 22.7-153.5 50.6-39.7 24.1-78.3 60.3-105.1 98.3-22 31.2-39.7 67.9-50.4 104.6-9.2 31.5-13 56.9-13.7 92.1-.8 37.5 2 63.4 10.3 95.6 37.2 144.6 158.6 249.5 306.9 265.2 16.3 1.7 55.4 2 70.6.5 78.1-7.8 148.9-39.6 207.6-93 10.2-9.3 29.6-30 28.9-30.8-.3-.2-5.3.8-11.3 2.2-25.1 5.9-51.1 7.9-73.8 5.7-55.6-5.6-113.5-32.2-153.2-70.4-41.5-40-64.9-93.4-67-152.7-2-57 15.7-110.8 48.2-146.7 43.5-48.1 114.2-71.5 176-58.4 35.6 7.6 64.8 24 91 51.2 30.2 31.3 49.2 71.9 57.4 122.7 2.4 14.6 4.4 39 3.9 48.7l-.3 7-123.2.3-123.3.2v-70h144.3l-.6-8.3c-.8-11.7-2.2-16.7-7.9-28.7-4.7-9.6-6-11.4-15.7-21-11.7-11.6-20.3-17.1-33.2-21.4-29-9.7-63.9-3-83.1 15.7-34.7 33.8-47.9 105.3-29.6 160.2 15.4 46.2 53.3 77.1 106.4 86.6 16.8 3 45 3 61.4.1 21.2-3.8 38.5-10.7 55.1-21.7 34.4-22.9 55.4-58.7 61.5-104.9 2-14.8 1.4-52.7-1.1-70.6-8.5-62.8-31.5-119.2-68.4-168.5C1286 769.2 1194.6 718.9 1092 710c-13.4-1.1-46.2-1.1-60 .1zm-136.7 321.6c17.9 8.4 27.2 27.6 22.2 45.9-6.7 24.7-33.5 37-55.9 25.7-11.6-5.9-20.8-18.9-22.1-31.6-1.7-15.5 7.4-32.1 21.4-39.2 7.1-3.6 11.5-4.5 20.2-4.1 6 .2 8.9.9 14.2 3.3zm793-162.7c-41.8 2.9-80.4 19.6-109.1 47.4-24.2 23.4-40.9 51.3-52.5 87.3-7.9 24.4-10.7 42.5-10.7 69 0 65 25 122.8 69.3 160 36.5 30.6 83.6 48.3 128.7 48.3 47.3 0 98.3-19 128.2-47.8 25.5-24.6 46.9-62.4 51.3-91l.7-4.2h-101.8l-1.2 4.6c-1.9 7-7.6 18.1-13.3 25.7-9.3 12.3-24.2 22.2-40.5 26.9-11.3 3.2-30.2 3.2-42.8-.1-43.3-11.3-67.2-38.8-75.7-87.1-2.6-14.7-3.7-49.1-2-63.5 6.9-58.7 36.3-91.5 84.3-94.2 28.3-1.6 53 9.2 70.5 30.7 10.1 12.4 17.3 31 17.3 44.7v6.3h-142v72h246.7l.6-8.8c.8-11.2-.7-33.3-3.3-48.2-8.9-50.7-34.1-101.7-64.8-131.2-28.7-27.5-67.6-43.8-111.6-46.8-7.8-.5-14.3-.9-14.6-.8-.3 0-5.6.4-11.7.8zm791.2-.3c-71 4.4-116.5 33.4-133.9 85.5-3.6 10.7-6.7 26.8-7.3 38.5l-.6 10.3h91l.6-7.8c1.6-20.3 13.3-37.6 31.1-46.2 12.8-6.1 19.7-7.4 37.1-7.3 11.9 0 16.6.5 23 2.2 19 5.1 33.5 15.2 39.7 27.9 3.1 6.2 3.3 7.4 3.3 16.7 0 8.8-.3 10.6-2.7 15.5-6.8 13.9-23.1 22.7-52.9 28.5-6.8 1.3-24.5 3.8-39.4 5.5-14.8 1.7-32.6 4.2-39.5 5.6-57.7 11.8-96.5 42.1-110.4 86.1-9.2 29.3-3.4 66.4 14.7 93.5 18.2 27.3 50.8 47.1 88.2 53.4 12.9 2.2 39.8 2.9 52.5 1.5 33.3-3.8 65.1-16.3 89.7-35.2 4.2-3.2 8-5.9 8.3-5.9.3 0 1.7 4.4 3.2 9.8 1.4 5.4 3.8 12.4 5.2 15.5l2.5 5.7h48c26.5 0 48.1-.1 48.1-.3 0-.2-1.1-3-2.4-6.3-3.5-8.6-6.3-20.1-8.1-33.9-1.4-10.3-1.7-23.3-1.6-93.5.2-99.8-1.2-133.3-6.9-168.5-2.3-14.2-4.5-20.9-10.4-32.1-17.1-32.2-50.1-54.4-91.3-61.4-18.1-3.1-56.4-4.7-78.8-3.3zm88.6 257.3c-1.3 22-2.4 27.6-6.8 37-4.7 9.9-16.6 21.9-26.9 27.3-16.5 8.5-36.5 13.1-56.9 13-15.3-.1-24.7-2.2-35.6-7.9-14.9-7.8-23.6-20-24.6-34.1-1-13.5 4.9-28.7 14.9-38.7 12.6-12.6 26.5-17.8 70.4-26.5 38-7.6 50.7-11.6 61.9-19.8l4-3 .3 17.6c.2 9.7-.2 25.5-.7 35.1zM2083 870c-42 3.2-77.6 17.3-102 40.7-20.6 19.6-31.1 41.7-34.1 71.8-3.2 31.7 7.2 62.7 28 83.6 21.2 21.1 57.7 34.8 126.6 47.4 50.5 9.3 59.8 12.1 69.8 21.4 5 4.7 7.3 9.3 8.7 17.4 1.5 8.2 0 19-3.5 26.3-5.8 11.8-20.6 22.1-39.3 27.2-8.9 2.4-11.2 2.6-28.7 2.6-17.3 0-19.9-.3-28.7-2.7-24.4-6.5-39.1-20.4-47.6-44.8-1.7-4.7-3.6-11.4-4.3-14.8l-1.2-6.1H1938v4.7c0 12.9 5.7 35.1 13 50.8 7.4 16 20 33.9 30.7 43.5 8.2 7.3 24.9 18.3 35.9 23.6 28.6 13.7 59.5 19.3 100.8 18.1 44.8-1.3 74.9-9.5 101.8-27.9 27.4-18.7 45.5-47.7 51.4-82.3 2.5-14.5 1.6-39.6-1.9-52.7-2.9-10.8-8.6-23.7-14.3-32.4-8.2-12.4-24.2-25.3-40.7-32.9-22.5-10.3-37.4-13.9-118.7-28-35.2-6.2-49.8-13.2-56.7-27.4-2.3-4.6-2.7-6.9-2.8-13.6 0-7.1.4-8.8 3.3-14.7 8.5-17.2 29.4-27.9 57.7-29.4 32.3-1.7 56.9 9.5 70 32 3.5 6 7.4 18.4 8.2 26.3l.8 6.8 42.3.3 42.2.2v-6.2c0-31.1-16.6-69.2-38.3-88.1-33-28.8-87.1-44.6-139.7-40.7z"/></svg>