<svg xmlns="http://www.w3.org/2000/svg" role="img" viewBox="-30.24 -30.24 1572.48 457.48"><title>Flow Computing (member) logo</title><g fill="#100f0d" fill-opacity="1" fill-rule="nonzero" stroke="none" transform="matrix(1.33333 0 0 -1.33333 0 398) scale(.1)"><path d="M2767.4 450.199h1517.5V45.8008H2321.3V2939.2h446.1V450.199"/><path d="M0 2939.2h1984.5v-391.9H446.102v-854.7H1796.9v-387.7H446.102V45.8008H0V2939.2"/><path d="M11346.4 2939.2l-763-2893.3992h-575.3L9332.7 2484.7 8661.5 45.8008h-575.3L7319.1 2939.2h458.6L8403 512.801 9070.1 2939.2h533.6l667.1-2430.598 629.5 2430.598h446.1"/><path d="M5794.1 383.5c-537.8 0-942.2 421.102-942.2 1109 0 687.9 404.4 1109 942.2 1109 537.8 0 946.4-421.1 946.4-1109 0-687.898-408.6-1109-946.4-1109zm0 2601.5c-854.7 0-1413.3-596.2-1413.3-1492.5C4380.8 596.199 4939.4 0 5794.1 0c854.6 0 1413.3 596.199 1413.3 1492.5 0 896.3-558.7 1492.5-1413.3 1492.5"/></g></svg>