<svg xmlns="http://www.w3.org/2000/svg" role="img" viewBox="-16.99 -16.99 883.48 173.48"><title>Fraunhofer-Gesellschaft (member) logo</title><defs><clipPath id="a"><path d="M696.33333 529H3212.3333V142H696.33333z"/></clipPath></defs><path fill="#179c7d" d="M0 138.46234c32.71973-16.84493 80.7851-44.18486 137.75799-84.04825V41.00871C87.66417 73.81663 36.60023 100.18643 0 117.6487zm0-39.95158c36.51204-14.90467 87.48779-37.92313 137.75799-67.82067v-6.6145C90.48636 47.535 41.45087 62.2633 0 71.3472zm137.75799 40.03977v-67.3797c-31.30864 26.458-62.44088 49.38826-88.54611 67.3797zm-106.09658 0C56.44373 123.82225 86.51766 104.5961 116.4152 82.195c7.05547-5.2916 14.19913-10.67139 21.34279-16.22757v-8.37837c-44.27306 33.24889-89.60443 60.9416-124.96996 80.96148zM0 61.55775c40.30435-7.05546 89.60443-19.8435 137.75799-42.68557v-7.58463C89.25165 33.1595 40.65713 42.33161 0 45.68295z"/><path fill="#179c7d" d="M0-.0012V38.6275c2.99857-.17639 6.08534-.44097 9.1721-.70555 33.51347-2.5576 79.28581-8.46656 128.58589-29.80935V-.00119z"/><path fill="#fff" d="M0 38.62749v7.05546c40.65713-3.35134 89.25165-12.52345 137.75799-34.3954V8.1126C88.4579 29.45538 42.68557 35.36433 9.1721 37.92194c-3.08677.26458-6.17354.52916-9.17211.70555zM0 71.3472c41.45087-9.08391 90.48636-23.8122 137.75799-47.27162v-5.20341C89.60443 41.71425 40.30435 54.50228 0 61.55775zm0 46.3015c36.60023-17.46228 87.66417-43.83208 137.75799-76.64V30.69009C87.48779 60.58763 36.51204 83.60609 0 98.51076zm31.6614 20.90182h17.55048c26.10523-17.99144 57.23747-40.9217 88.5461-67.3797v-5.20341c-7.14365 5.55618-14.28731 10.93597-21.34278 16.22757-29.89754 22.40111-59.97147 41.62726-84.7538 56.35554zm-31.6614 0h12.78803c35.36553-20.01988 80.6969-47.71259 124.96996-80.96148V54.4141C80.78509 94.27748 32.71973 121.61741 0 138.46234z"/><path d="M3061 523h67v-94.66667c0-37 0-105 54.3333-105 12 0 24 2 30 5.66667v-67.66667c-7-2-14-2-20.3333-2-40 0-67.6667 40.66667-70.6667 64.66667h-1v-58.66667H3061zm-67-69c-25 14-53 26-85.6667 26C2867 480 2838 456.33333 2835 415h178c0-90-27-155.66667-122.6667-155.66667-80 0-119.3333 61.66667-119.3333 136C2771 480 2820.3333 529 2905.3333 529c36.3334 0 64-7 88.6667-20.66667zm-159-85c3-34.66667 22-60.66667 59.3333-60.66667 37.6667 0 52.6667 28 54.6667 60.66667zm-214 154h67V314.33333h58.3333v-49H2688v-32c0-20 7-39.33333 29.3333-39.33333 14.6667 0 23 5.33333 29 9L2752 147.33333c-13-3-32-5.33333-49-5.33333-53 0-82 36-82 87.33333v36h-49.6667v49H2621zm-266.6667-135c0-38.66667 21-76.66667 64.6667-76.66667 44 0 65 37 65 76.66667 0 43-13.6667 89-65 89-51 0-64.6667-46.66667-64.6667-89m-70 8c0 74 49.6667 133 134.6667 133 85.3333 0 135-59 135-133 0-85-58.6667-136.66667-135-136.66667-76 0-134.6667 51.66667-134.6667 136.66667m-279 127h67V397c0-33 10.6667-85.66667 59-85.66667 43 0 43.6667 42.66667 43.6667 74V523h67V360.33333c0-58-26.6667-101-87.6667-101-35 0-64 16-81 41h-1V148h-67zM1700 523h67V397c0-33 10.3333-85.66667 59-85.66667 42.6667 0 43.3333 42.66667 43.3333 74V523h67V360.33333c0-58-26.3333-101-87.3333-101-35 0-63.6667 11.66667-84.6667 41h-1v-35H1700zm-69-257.66667h-67.3333v126c0 33-10.3334 85.66667-59 85.66667-43 0-43.3334-42.66667-43.3334-74V265.33333h-67V428c0 58 26.3334 101 87.3334 101 35 0 64-16 84.6666-41h1v35H1631zm-457.3333 183C1173.6667 409 1218.3333 404 1248.3333 404h29c0 20-3 38.33333-14 53-10.6666 14-26.6666 23-47 23-24 0-42.6666-9.66667-42.6666-31.66667m-34-112c22.6666-17 51-28 79.6666-28 39.3334 0 58 14 58 55.66667h-37c-28 0-61 2.33333-86.6666 15-25.3334 12.33333-44 35-44 73.33333 0 49 44.6666 76.66667 90 76.66667 30.6666 0 64-16 79.6666-44.66667h1c.3334 8 .3334 25 3 38.66667h59c-1.6666-20-2.6666-38-3-57.66667-.6666-19-1-38.33333-1-64.33333v-33c0-76-32.6666-108.66667-111-108.66667-28.6666 0-63.6666 7.66667-89.6666 19.66667zM938.33333 523h66.99997v-94.66667c0-37 0-105 54.3334-105 12 0 24 2 30 5.66667v-67.66667c-7-2-14-2-20.3334-2-40 0-67.6666 40.66667-70.66663 64.66667h-1v-58.66667h-59.33334zm-242 0h70V370h118v-55h-118v-86h124v-55h-194z" clip-path="url(#a)" transform="translate(0 .087) scale(.26458)"/></svg>