<svg xmlns="http://www.w3.org/2000/svg" role="img" viewBox="21.01 13.26 207.74 73.24"><title>FreeRTOS logo</title><g data-name="Layer 2"><g data-name="Layer 1"><path d="M29.53 69.76a5.45 5.45 0 0 0-.41 2c0 1.73.94 2.59 2.81 2.59h1.86v-4h4v4h13.45v5.37H37.76v2.93h-4v-2.94h-2.13a6.31 6.31 0 0 1-4.81-1.94A7.45 7.45 0 0 1 25 72.48a9.11 9.11 0 0 1 .34-2.72zm9.12-14.08a4.73 4.73 0 0 0-.53 2.32 3.26 3.26 0 0 0 1.29 2.74 5.58 5.58 0 0 0 3.5 1h8.33v5.39H33.79v-5.45H37v-.07q-3.54-1.28-3.54-4.6a3.41 3.41 0 0 1 .2-1.33zm5.4-18.74v11.38q3.8-.27 3.8-4.79a9.35 9.35 0 0 0-1.36-5.06h3.88a13.24 13.24 0 0 1 1.3 6.29 8.82 8.82 0 0 1-2.35 6.56 8.83 8.83 0 0 1-6.53 2.34 9.33 9.33 0 0 1-6.89-2.53 8.39 8.39 0 0 1-2.53-6.2A7.62 7.62 0 0 1 35.63 39a8.73 8.73 0 0 1 6.15-2.09zm-3.31 5Q37 41.93 37 45a2.88 2.88 0 0 0 1.07 2.24 4.89 4.89 0 0 0 2.67 1.15zm3.31-24.58v11.38q3.8-.27 3.8-4.78a9.32 9.32 0 0 0-1.36-5.06h3.88a13.17 13.17 0 0 1 1.3 6.28 8.81 8.81 0 0 1-2.35 6.56 8.83 8.83 0 0 1-6.53 2.34 9.36 9.36 0 0 1-6.89-2.52 8.42 8.42 0 0 1-2.53-6.21 7.62 7.62 0 0 1 2.26-5.9 8.73 8.73 0 0 1 6.15-2.09zm-3.31 5c-2.49 0-3.74 1-3.74 3a2.88 2.88 0 0 0 1.07 2.24 4.89 4.89 0 0 0 2.67 1.15z"/><path fill="#8bc652" d="M99.18 67.06H86.7l-7.51-12.42c-.56-1-1.1-1.79-1.62-2.53a14.28 14.28 0 0 0-1.57-1.9A6.23 6.23 0 0 0 74.36 49a4.2 4.2 0 0 0-1.87-.42h-2.93v18.48H58.69V18.79h17.23q17.58 0 17.57 13.13a13.52 13.52 0 0 1-.77 4.66 12.86 12.86 0 0 1-2.19 3.85 13.55 13.55 0 0 1-3.41 3 17.45 17.45 0 0 1-4.46 2v.13a7 7 0 0 1 2.08 1.1 14.49 14.49 0 0 1 2 1.76c.62.68 1.22 1.4 1.8 2.17s1.09 1.54 1.56 2.28zM69.56 26.93v13.44h4.71a7.86 7.86 0 0 0 5.63-2 6.78 6.78 0 0 0 2.15-5.09q0-6.33-7.57-6.33zm66.65.71h-13.77v39.42h-10.9V27.64h-13.7v-8.85h38.37zm24.33 40.26q-10.36 0-16.89-6.75t-6.53-17.59q0-11.45 6.63-18.51T161.32 18q10.34 0 16.71 6.77t6.38 17.84q0 11.37-6.61 18.34t-17.26 6.95zm.46-40.56a10.94 10.94 0 0 0-9.09 4.29q-3.37 4.29-3.37 11.36t3.37 11.34a10.76 10.76 0 0 0 8.82 4.18 10.89 10.89 0 0 0 8.92-4.06Q173 50.4 173 43.19q0-7.5-3.2-11.68a10.43 10.43 0 0 0-8.8-4.17zm29.2 37.87V54.44a20.81 20.81 0 0 0 6.36 3.68 20.43 20.43 0 0 0 6.93 1.23 15.24 15.24 0 0 0 3.59-.37 8.5 8.5 0 0 0 2.56-1 4.44 4.44 0 0 0 1.53-1.55 3.78 3.78 0 0 0 .5-1.93 4.19 4.19 0 0 0-.8-2.53 8.8 8.8 0 0 0-2.21-2 23.88 23.88 0 0 0-3.31-1.82c-1.28-.58-2.66-1.17-4.14-1.78a21.19 21.19 0 0 1-8.44-5.76 12.55 12.55 0 0 1-2.77-8.29 13.1 13.1 0 0 1 1.51-6.48 13 13 0 0 1 4.13-4.46 18.53 18.53 0 0 1 6-2.57A31 31 0 0 1 209 18a42.8 42.8 0 0 1 6.68.46 26 26 0 0 1 5.32 1.37V29.9a16.05 16.05 0 0 0-2.64-1.48 20.75 20.75 0 0 0-3-1.06 23.38 23.38 0 0 0-3-.63 22.18 22.18 0 0 0-2.85-.2 15.14 15.14 0 0 0-3.36.35 8.71 8.71 0 0 0-2.56 1 4.88 4.88 0 0 0-1.59 1.53 3.62 3.62 0 0 0-.57 2 3.79 3.79 0 0 0 .64 2.17 7.29 7.29 0 0 0 1.82 1.82 19.31 19.31 0 0 0 2.86 1.68c1.12.55 2.39 1.12 3.8 1.7a42 42 0 0 1 5.2 2.58 18.32 18.32 0 0 1 4 3.08 11.87 11.87 0 0 1 2.52 3.92 13.71 13.71 0 0 1 .88 5.13 13.78 13.78 0 0 1-1.53 6.79 12.47 12.47 0 0 1-4.16 4.44 18 18 0 0 1-6.11 2.44 35.5 35.5 0 0 1-7.35.74 41.7 41.7 0 0 1-7.56-.67 23.11 23.11 0 0 1-6.24-2.02z"/><path d="M58.58 74.34H225v5.37H58.58z"/><path fill="none" d="M0 0h250v100H0z"/></g></g></svg>