<svg xmlns="http://www.w3.org/2000/svg" role="img" viewBox="98.69 62.69 640.12 184.62"><title>Fundacion Instituto Ricardo Valle de Innovacion (INNOVA IRV) (member) logo</title><style>svg {enable-background:new 0 0 841.89 297.64}</style><style>.st0{fill:#ee7444}</style><path d="M555.39 83.32c0-2.24.73-4.14 2.2-5.74 1.46-1.54 3.21-2.31 5.27-2.31h1.1c2.05 0 3.8.77 5.26 2.31 1.46 1.59 2.2 3.5 2.2 5.74 0 2.23-.73 4.11-2.2 5.66-1.46 1.59-3.22 2.39-5.26 2.39h-1.1c-2.05 0-3.8-.8-5.27-2.39-1.47-1.55-2.2-3.43-2.2-5.66m8.11 23.97c2.05 0 3.8.77 5.27 2.31 1.41 1.59 2.12 3.5 2.12 5.73v68.52c0 2.23-.71 4.14-2.12 5.74-1.46 1.6-3.22 2.39-5.27 2.39-2.05 0-3.78-.79-5.19-2.39-1.46-1.59-2.19-3.51-2.19-5.74v-68.52c0-2.23.73-4.14 2.19-5.73 1.42-1.53 3.15-2.31 5.19-2.31m68.21.65c2.36.37 4.23 1.48 5.62 3.34 1.38 1.86 1.84 3.88 1.38 6.06-.46 2.18-1.67 3.9-3.63 5.18-2.02 1.27-4.21 1.7-6.57 1.27-1.38-.26-2.77-.39-4.15-.39-6.97 0-12.93 2.58-17.89 7.73-4.95 5.1-7.46 11.26-7.52 18.48v34.34c0 2.23-.83 4.11-2.5 5.66-1.73 1.6-3.8 2.39-6.22 2.39s-4.46-.79-6.13-2.39c-1.73-1.54-2.59-3.42-2.59-5.66v-68.6c0-2.23.86-4.11 2.59-5.65 1.67-1.59 3.72-2.39 6.13-2.39 2.42 0 4.49.8 6.22 2.39 1.67 1.54 2.5 3.42 2.5 5.65v.17c7.55-5.47 16.02-8.21 25.41-8.21 2.48-.02 4.93.2 7.35.63m89.96.07c2.19.91 3.71 2.42 4.58 4.54.81 2.07.72 4.11-.26 6.13l-34.13 68.6c-1.56 3.13-4.21 4.7-7.95 4.7s-6.39-1.57-7.95-4.7l-34.13-68.6c-.98-2.02-1.04-4.06-.17-6.13.81-2.12 2.3-3.64 4.49-4.54 2.18-.95 4.43-1.04 6.74-.24 2.24.8 3.86 2.21 4.84 4.22l26.18 52.58L710.09 112c.98-2.02 2.62-3.43 4.93-4.22 2.24-.8 4.46-.72 6.65.23" class="st0"/><path d="M477.06 108.92c2 .89 3.39 2.39 4.18 4.49.73 2.05.66 4.07-.24 6.07l-31.13 67.86c-1.42 3.1-3.84 4.65-7.25 4.65s-5.83-1.55-7.25-4.65l-31.13-67.86c-.89-2-.95-4.02-.16-6.07.73-2.1 2.1-3.6 4.1-4.49 1.99-.95 4.04-1.03 6.15-.24 2.05.79 3.52 2.18 4.41 4.18l23.88 52.01 23.88-52.01c.89-1.99 2.39-3.39 4.49-4.18 2.05-.79 4.07-.71 6.07.24m51.93-.71c11.51 0 21.36 4.07 29.55 12.21 8.2 8.2 12.3 18.08 12.3 29.63v33.89c0 2.21-.79 4.1-2.37 5.68-1.52 1.58-3.39 2.36-5.6 2.36-2.21 0-4.1-.79-5.67-2.36-1.52-1.58-2.28-3.47-2.28-5.68v-33.89c0-7.14-2.55-13.24-7.64-18.28-5.05-5.1-11.14-7.64-18.29-7.64-7.2 0-13.32 2.55-18.36 7.64-5.1 5.04-7.64 11.14-7.64 18.28 0 7.15 2.55 13.27 7.64 18.37 5.04 5.04 11.16 7.56 18.36 7.56 3.21-.05 6.51-.68 9.93-1.89 2.73-.84 4.78-1.05 6.14-.63 2.1.63 3.65 1.92 4.65 3.86 1.05 1.95 1.26 3.97.63 6.07s-1.92 3.68-3.86 4.73c-4.68 2.58-10.51 3.86-17.5 3.86-11.56 0-21.44-4.1-29.63-12.3-8.19-8.19-12.29-18.07-12.29-29.63 0-11.56 4.1-21.44 12.29-29.63 8.21-8.14 18.08-12.21 29.64-12.21M112.54 88.09c0-2.1.75-3.89 2.24-5.39 1.5-1.45 3.29-2.17 5.39-2.17h1.12c2.09 0 3.89.72 5.39 2.17 1.5 1.5 2.24 3.29 2.24 5.39 0 2.09-.75 3.86-2.24 5.31-1.5 1.5-3.29 2.24-5.39 2.24h-1.12c-2.1 0-3.89-.75-5.39-2.24-1.49-1.45-2.24-3.22-2.24-5.31m8.3 22.52c2.09 0 3.89.72 5.39 2.17 1.45 1.5 2.17 3.29 2.17 5.39v64.35c0 2.09-.72 3.89-2.17 5.39-1.5 1.5-3.29 2.24-5.39 2.24-2.09 0-3.87-.75-5.31-2.24-1.5-1.5-2.24-3.29-2.24-5.39v-64.35c0-2.09.75-3.89 2.24-5.39 1.45-1.45 3.22-2.17 5.31-2.17m-9.67 108.61h2.08v15.73h-2.08zm9.09 15.73v-15.73h2.13l8.26 12.35v-12.35h2v15.73h-2.14l-8.26-12.36v12.36zm18.54-5.05l1.95-.17c.16 1.24.66 2.16 1.51 2.75.85.59 1.89.88 3.14.88 1.31 0 2.29-.26 2.94-.79.65-.53.97-1.16.97-1.89 0-.74-.3-1.31-.91-1.72-.6-.4-1.9-.83-3.9-1.29-2.01-.46-3.36-1.06-4.06-1.8-.7-.74-1.05-1.59-1.05-2.57 0-1.42.54-2.49 1.62-3.23 1.08-.74 2.38-1.11 3.92-1.11 1.94 0 3.4.44 4.38 1.33.97.89 1.49 2.01 1.53 3.36l-2 .16c-.21-2.01-1.49-3.02-3.82-3.02-2.41 0-3.62.79-3.62 2.37 0 .63.25 1.13.75 1.48.5.36 1.5.7 3 1.03 1.47.33 2.6.65 3.4.96.79.31 1.45.79 1.98 1.46.53.67.79 1.48.79 2.43 0 1.48-.57 2.63-1.71 3.46-1.15.83-2.51 1.24-4.1 1.24-2.23 0-3.9-.5-5-1.52-1.1-1-1.67-2.27-1.71-3.8m22.71 5.05v-13.87h-5.18v-1.86h12.47v1.86h-5.21v13.87zm13.12-15.73h2.08v15.73h-2.08zm13.12 15.73v-13.87h-5.18v-1.86h12.46v1.86h-5.2v13.87zm23.09-15.73h2.08v9.09c0 1.31-.14 2.46-.42 3.46-.28 1.01-.9 1.83-1.86 2.48-.96.65-2.25.97-3.87.97-2.21 0-3.8-.54-4.77-1.62-.97-1.08-1.45-2.84-1.45-5.28v-9.09h2.08v9.08c0 1.04.08 1.91.25 2.62.16.71.56 1.29 1.18 1.74.63.45 1.47.67 2.53.67 1.5 0 2.58-.35 3.25-1.04.67-.69 1-2.02 1-4v-9.08zm12.9 15.73v-13.87h-5.18v-1.86h12.46v1.86h-5.2v13.87zm12.14-7.66c0-1.72.31-3.2.94-4.44.62-1.24 1.49-2.2 2.6-2.88 1.11-.68 2.44-1.02 3.99-1.02 2.2 0 4 .74 5.4 2.23 1.4 1.49 2.1 3.46 2.1 5.93 0 2.69-.75 4.72-2.24 6.08-1.49 1.36-3.25 2.04-5.28 2.04-2.24 0-4.05-.76-5.44-2.29-1.38-1.53-2.07-3.41-2.07-5.65m2.14.03c0 1.8.48 3.26 1.45 4.4.97 1.14 2.27 1.71 3.91 1.71 1.8 0 3.14-.62 4.04-1.85.9-1.23 1.35-2.73 1.35-4.49 0-2.1-.52-3.68-1.55-4.75-1.03-1.07-2.3-1.61-3.81-1.61-1.88 0-3.25.63-4.11 1.88-.85 1.26-1.28 2.83-1.28 4.71m29.83 7.63v-15.73h6.97c1.11 0 2.04.1 2.79.29.75.19 1.41.65 1.97 1.37.56.72.84 1.6.84 2.63 0 2.45-1.48 3.88-4.43 4.28 1.05.45 2.05 1.41 2.98 2.87l2.73 4.28h-2.62l-2.08-3.27c-.77-1.22-1.37-2.06-1.8-2.53-.43-.47-.84-.79-1.22-.94-.38-.16-.93-.23-1.64-.23h-2.42v6.98h-2.07zm2.08-8.78h4.48c2.58 0 3.87-.88 3.87-2.65 0-1.7-1.12-2.55-3.37-2.55h-4.98v5.2zm17.46-6.95h2.08v15.73h-2.08zm20.33 10.22l2.08.53c-.89 3.5-3.07 5.26-6.52 5.26-2.54 0-4.4-.8-5.6-2.39-1.19-1.59-1.79-3.55-1.79-5.86 0-2.66.72-4.66 2.16-6 1.44-1.34 3.19-2.01 5.26-2.01 3.26 0 5.33 1.53 6.21 4.58l-2.05.48c-.7-2.19-2.1-3.29-4.21-3.29-1.86 0-3.2.59-4.01 1.78-.81 1.19-1.22 2.67-1.22 4.45 0 2.27.48 3.92 1.45 4.94.97 1.02 2.18 1.53 3.63 1.53 2.5 0 4.03-1.34 4.61-4m6.27 5.51l6.04-15.73h2.24l6.43 15.73h-2.37l-1.83-4.77h-6.58l-1.73 4.77h-2.2zm4.54-6.46h5.34l-1.65-4.36c-.5-1.32-.87-2.41-1.11-3.26-.21 1.04-.49 2.04-.85 3l-1.73 4.62zm15.23 6.46v-15.73h6.97c1.11 0 2.04.1 2.79.29.75.19 1.41.65 1.97 1.37.56.72.84 1.6.84 2.63 0 2.45-1.48 3.88-4.43 4.28 1.05.45 2.05 1.41 2.98 2.87l2.73 4.28H345l-2.08-3.27c-.77-1.22-1.37-2.06-1.81-2.53-.43-.47-.84-.79-1.22-.94-.38-.16-.93-.23-1.64-.23h-2.42v6.98h-2.07zm2.08-8.78h4.48c2.58 0 3.87-.88 3.87-2.65 0-1.7-1.12-2.55-3.37-2.55h-4.98v5.2zm17.1 8.78v-15.73h5.42c1.6 0 2.9.2 3.91.6 1.01.4 1.87 1.21 2.59 2.44.72 1.23 1.08 2.81 1.08 4.74 0 2.39-.57 4.31-1.7 5.77-1.13 1.45-3.01 2.18-5.63 2.18h-5.67zm2.09-1.86h3.36c1.29 0 2.31-.18 3.06-.55.74-.37 1.32-1.02 1.74-1.97.42-.95.62-2.15.62-3.61 0-1.45-.22-2.63-.65-3.54-.43-.92-1.01-1.54-1.74-1.86-.73-.32-1.76-.48-3.08-.48h-3.31v12.01zm16.5-5.8c0-1.72.31-3.2.94-4.44.62-1.24 1.49-2.2 2.6-2.88 1.11-.68 2.44-1.02 3.99-1.02 2.2 0 4 .74 5.4 2.23 1.4 1.49 2.1 3.46 2.1 5.93 0 2.69-.74 4.72-2.24 6.08-1.49 1.36-3.25 2.04-5.28 2.04-2.24 0-4.05-.76-5.44-2.29-1.37-1.53-2.07-3.41-2.07-5.65m2.15.03c0 1.8.48 3.26 1.45 4.4.97 1.14 2.27 1.71 3.91 1.71 1.8 0 3.14-.62 4.04-1.85.9-1.23 1.35-2.73 1.35-4.49 0-2.1-.52-3.68-1.55-4.75-1.03-1.07-2.3-1.61-3.81-1.61-1.88 0-3.25.63-4.11 1.88-.85 1.26-1.28 2.83-1.28 4.71m34.29 7.63l-6.09-15.73h2.25l4.09 11.43c.34.97.62 1.82.83 2.57.22-.78.51-1.64.85-2.57l4.25-11.43h2.12l-6.16 15.73h-2.14zm11.78 0l6.04-15.73h2.24l6.43 15.73h-2.37l-1.83-4.77h-6.57l-1.73 4.77h-2.21zm4.54-6.46h5.34l-1.65-4.36c-.5-1.32-.87-2.41-1.11-3.26-.21 1.04-.49 2.04-.85 3l-1.73 4.62zm15.12 6.46v-15.73h2.08v13.87h7.74v1.86zm15.57 0v-15.73h2.08v13.87h7.75v1.86zm15.7 0v-15.73h11.38v1.86h-9.3v4.82h8.71v1.84h-8.71v5.35h9.67v1.86zm28.84 0v-15.73h5.42c1.6 0 2.9.2 3.91.6 1.01.4 1.87 1.21 2.59 2.44.72 1.23 1.08 2.81 1.08 4.74 0 2.39-.57 4.31-1.7 5.77-1.13 1.45-3.01 2.18-5.63 2.18h-5.67zm2.08-1.86h3.36c1.29 0 2.31-.18 3.06-.55.74-.37 1.32-1.02 1.74-1.97.41-.95.62-2.15.62-3.61 0-1.45-.22-2.63-.65-3.54-.43-.92-1.01-1.54-1.74-1.86-.73-.32-1.76-.48-3.08-.48h-3.31v12.01zm17.18 1.86v-15.73h11.37v1.86h-9.29v4.82h8.7v1.84h-8.7v5.35h9.66v1.86zm29.19-15.73h2.08v15.73h-2.08zm9.08 15.73v-15.73h2.14l8.26 12.35v-12.35h2v15.73h-2.14l-8.26-12.36v12.36zm19.22 0v-15.73h2.14l8.26 12.35v-12.35h2v15.73h-2.14l-8.26-12.36v12.36zm18.62-7.66c0-1.72.31-3.2.94-4.44.62-1.24 1.49-2.2 2.6-2.88 1.11-.68 2.44-1.02 3.99-1.02 2.2 0 4 .74 5.4 2.23 1.4 1.49 2.1 3.46 2.1 5.93 0 2.69-.75 4.72-2.24 6.08-1.49 1.36-3.25 2.04-5.28 2.04-2.24 0-4.05-.76-5.44-2.29-1.38-1.53-2.07-3.41-2.07-5.65m2.14.03c0 1.8.48 3.26 1.45 4.4.97 1.14 2.27 1.71 3.91 1.71 1.8 0 3.14-.62 4.04-1.85.9-1.23 1.35-2.73 1.35-4.49 0-2.1-.52-3.68-1.55-4.75-1.03-1.07-2.3-1.61-3.81-1.61-1.88 0-3.25.63-4.11 1.88-.85 1.26-1.28 2.83-1.28 4.71m23.42 7.63l-6.09-15.73h2.25l4.09 11.43c.34.97.62 1.82.83 2.57.22-.78.51-1.64.85-2.57l4.25-11.43h2.12l-6.16 15.73h-2.14zm11.79 0l6.04-15.73h2.24l6.43 15.73h-2.37l-1.83-4.77h-6.58l-1.73 4.77h-2.2zm4.54-6.46h5.34l-1.65-4.36c-.5-1.32-.87-2.41-1.11-3.26-.21 1.04-.49 2.04-.85 3l-1.73 4.62zm26.42.95l2.08.53c-.89 3.5-3.07 5.26-6.52 5.26-2.54 0-4.4-.8-5.6-2.39-1.19-1.59-1.79-3.55-1.79-5.86 0-2.66.72-4.66 2.16-6 1.44-1.34 3.19-2.01 5.26-2.01 3.26 0 5.33 1.53 6.21 4.58l-2.05.48c-.7-2.19-2.1-3.29-4.21-3.29-1.86 0-3.2.59-4.01 1.78-.81 1.19-1.22 2.67-1.22 4.45 0 2.27.48 3.92 1.45 4.94.96 1.02 2.17 1.53 3.63 1.53 2.5 0 4.03-1.34 4.61-4m8.35-10.22h2.08v15.73h-2.08zm8.47 8.07c0-1.72.31-3.2.94-4.44.63-1.24 1.49-2.2 2.6-2.88 1.11-.68 2.44-1.02 3.99-1.02 2.2 0 4 .74 5.4 2.23 1.4 1.49 2.1 3.46 2.1 5.93 0 2.69-.75 4.72-2.24 6.08-1.49 1.36-3.25 2.04-5.28 2.04-2.24 0-4.05-.76-5.44-2.29-1.37-1.53-2.07-3.41-2.07-5.65m2.15.03c0 1.79.48 3.26 1.45 4.4.96 1.14 2.27 1.71 3.91 1.71 1.8 0 3.14-.62 4.04-1.85.9-1.23 1.35-2.73 1.35-4.49 0-2.09-.52-3.68-1.55-4.75-1.03-1.07-2.3-1.61-3.81-1.61-1.88 0-3.25.63-4.11 1.88-.85 1.26-1.28 2.83-1.28 4.71m4.24-9.59l1.44-3.01h2.52l-2.36 3.01h-1.6zm14.66 17.22v-15.73h2.14l8.26 12.35v-12.35h2v15.73h-2.14l-8.26-12.36v12.36zM360.59 125.04c-2.22.13-4.19-.55-5.89-2.07-1.67-1.55-2.58-3.48-2.71-5.77-.13-2.22.56-4.18 2.07-5.89 1.51-1.71 3.42-2.63 5.71-2.76 11.8-.63 22.12 2.97 30.98 10.82 8.93 7.92 13.75 17.85 14.48 29.8.72 11.95-2.88 22.39-10.8 31.32-7.92 8.93-17.85 13.76-29.8 14.48-11.91.68-22.33-2.94-31.26-10.86-8.81-7.81-13.63-17.59-14.45-29.34-.17-2.25.5-4.24 2.01-5.94 1.47-1.74 3.36-2.68 5.65-2.82 2.26-.17 4.24.49 5.94 2.01 1.74 1.47 2.68 3.36 2.82 5.65.51 7.27 3.49 13.32 8.93 18.14 5.56 4.93 12.04 7.15 19.42 6.67 7.39-.4 13.54-3.37 18.44-8.89 4.9-5.52 7.12-12 6.67-19.43-.44-7.35-3.44-13.49-9.01-18.43-5.49-4.86-11.88-7.09-19.2-6.69"/><path d="M328.61 135.27c.86 1.73 2.16 2.87 3.92 3.43.48.15.93.34 1.39.52 5.7 2.35 9.48 6.29 11.43 11.68.58 1.64 1.76 2.83 3.53 3.56 1.8.69 3.66.71 5.59.06 1.86-.63 3.26-1.77 4.19-3.42.93-1.65 1.09-3.31.49-5.01-1.64-4.51-4.1-8.34-7.36-11.53-3.98-4.4-8.94-7.58-14.91-9.5-1.81-.57-3.56-.39-5.24.55-1.68.94-2.81 2.32-3.37 4.16-.59 1.91-.48 3.74.34 5.5"/><path d="M246.6 150.61v32.82c0 2.14-.74 3.97-2.21 5.5-1.52 1.53-3.36 2.29-5.49 2.29-2.14 0-3.94-.76-5.42-2.29-1.53-1.53-2.29-3.36-2.29-5.5V117.8c0-2.14.76-3.97 2.29-5.49 1.47-1.47 3.28-2.21 5.42-2.21s3.97.74 5.49 2.21c1.48 1.53 2.21 3.36 2.21 5.49v.16" class="st0"/><path d="M295.75 121.91c-6.54-6.99-14.29-10.87-23.24-11.66-1.14-.11-2.3-.17-3.47-.17-10.43 0-19.33 3.94-26.71 11.83-7.43 7.94-11.14 17.5-11.14 28.69v11.89c0 2.14.76 3.97 2.29 5.5 1.48 1.52 3.28 2.29 5.42 2.29 2.08 0 3.86-.74 5.36-2.18.04-.04.09-.07.13-.11 1.52-1.53 2.29-3.36 2.29-5.5V150.6c0-6.92 2.19-12.82 6.56-17.7 4.38-4.93 9.64-7.4 15.8-7.4 1.09 0 2.15.1 3.18.26.22.03.44.06.65.1 1.01.18 1.99.43 2.94.77.13.05.26.11.39.16.86.32 1.69.71 2.5 1.16.18.1.36.18.54.29.84.49 1.65 1.06 2.45 1.69 1.09.87 2.15 1.85 3.15 2.98 4.37 4.88 6.56 10.79 6.56 17.7v32.82c0 2.14.76 3.97 2.29 5.5 1.53 1.52 3.36 2.29 5.5 2.29s3.94-.76 5.42-2.29c1.52-1.53 2.29-3.36 2.29-5.5v-32.82c-.01-11.19-3.73-20.76-11.15-28.7"/><path d="M160.1 150.93v32.82c0 2.14-.74 3.97-2.21 5.5-1.52 1.53-3.36 2.29-5.49 2.29-2.14 0-3.94-.76-5.42-2.29-1.53-1.53-2.29-3.36-2.29-5.5v-65.63c0-2.14.76-3.97 2.29-5.49 1.47-1.47 3.28-2.21 5.42-2.21s3.97.74 5.49 2.21c1.48 1.53 2.21 3.36 2.21 5.49v.16" class="st0"/><path d="M209.24 122.24c-6.54-6.99-14.29-10.87-23.24-11.66-1.14-.11-2.3-.17-3.47-.17-10.43 0-19.33 3.94-26.71 11.83-7.43 7.94-11.14 17.5-11.14 28.69v11.89c0 2.14.76 3.97 2.29 5.5 1.48 1.52 3.28 2.29 5.42 2.29 2.08 0 3.86-.74 5.36-2.18.04-.04.09-.07.13-.11 1.53-1.53 2.29-3.36 2.29-5.5v-11.89c0-6.92 2.19-12.82 6.56-17.7 4.38-4.93 9.64-7.4 15.8-7.4 1.09 0 2.15.1 3.18.26.22.03.44.06.65.1 1.01.18 1.99.43 2.94.77.13.05.26.11.39.16.86.32 1.69.71 2.5 1.16.18.1.36.18.54.29.84.49 1.65 1.06 2.45 1.69 1.09.87 2.14 1.85 3.14 2.98 4.37 4.88 6.56 10.79 6.56 17.7v32.82c0 2.14.76 3.97 2.29 5.5 1.53 1.52 3.36 2.29 5.5 2.29s3.94-.76 5.42-2.29c1.52-1.53 2.29-3.36 2.29-5.5v-32.82c.01-11.2-3.71-20.76-11.14-28.7"/></svg>