<svg xmlns="http://www.w3.org/2000/svg" role="img" xmlns:xlink="http://www.w3.org/1999/xlink" viewBox="-1.42 1.58 269.10 256.60"><title>Future University in Egypt (member) logo</title><defs><path d="M5.125-43.03906h29.85547v5.27343H10.95703v13.07032h21.1211v5.125h-21.1211V0H5.125zm0 0" id="a"/><path d="M9.14063-31.375v20.82813c0 1.60156.2539 2.91015.76171 3.92578.9375 1.875 2.6836 2.8125 5.2461 2.8125 3.67187 0 6.17187-1.64063 7.5-4.92188.72265-1.75781 1.08203-4.16797 1.08203-7.23828V-31.375h5.27344V0h-4.98047l.0586-4.6289c-.6836 1.1914-1.53516 2.19921-2.55079 3.01952C19.51953.03126 17.07812.85156 14.21094.85156c-4.47266 0-7.52344-1.4961-9.14063-4.48437C4.19141-5.23437 3.75-7.375 3.75-10.04688V-31.375zm0 0" id="b"/><path d="M4.92188-40.13672h5.33203v8.76172h5.01172v4.30469H10.2539v20.47656c0 1.09375.37109 1.82813 1.11328 2.19922.41015.21484 1.09375.32422 2.05078.32422.2539 0 .52734-.00781.82031-.01563.29297-.01172.63672-.03515 1.02735-.07422V0c-.60547.17578-1.23829.30469-1.89063.38281C12.71875.46094 12.01172.5 11.25.5 8.78906.5 7.11719-.13281 6.24219-1.39063c-.8789-1.26171-1.32031-2.89843-1.32031-4.90625V-27.0703h-4.25V-31.375h4.25zm0 0" id="c"/><path d="M4.01563-31.375h5.0078v5.41797c.41016-1.05469 1.41407-2.33985 3.01563-3.85156 1.60157-1.51563 3.44922-2.26954 5.53907-2.26954.09765 0 .26562.00782.5.02735.23437.01953.6328.0586 1.19921.11719v5.5664c-.3125-.0586-.60156-.09765-.86328-.11718-.26562-.01954-.55468-.03126-.86718-.03126-2.65626 0-4.69532.85547-6.1211 2.56641C10-22.24219 9.28906-20.27344 9.28906-18.04687V0H4.01563zm0 0" id="d"/><path d="M16.9336-32.07813c2.22656 0 4.38671.51954 6.47265 1.56641 2.08984 1.04297 3.6836 2.39453 4.77734 4.0586 1.0547 1.58203 1.75782 3.42578 2.10938 5.53515.3125 1.44531.46875 3.75.46875 6.91406H7.76562c.09766 3.1836.84766 5.73828 2.25391 7.66016 1.40625 1.92578 3.58203 2.88672 6.53516 2.88672 2.7539 0 4.94922-.91016 6.58984-2.72266.9375-1.05469 1.60156-2.27734 1.99219-3.66406h5.1836c-.13673 1.15234-.58985 2.4375-1.35938 3.85156-.77344 1.41797-1.63672 2.57422-2.59375 3.47266C24.76562-.95703 22.78125.09766 20.42187.64453c-1.26953.3125-2.70703.46875-4.30859.46875-3.90625 0-7.21484-1.42187-9.9336-4.26172-2.71484-2.84375-4.0703-6.82031-4.0703-11.9375 0-5.03906 1.36718-9.13281 4.10156-12.27734 2.73437-3.14453 6.3086-4.71485 10.72265-4.71485zm8.41015 13.88282c-.21484-2.28516-.71484-4.10938-1.4961-5.47657-1.4453-2.53906-3.85546-3.80859-7.23828-3.80859-2.42187 0-4.45312.875-6.09374 2.6211-1.64063 1.75-2.50782 3.96874-2.60547 6.66406zm0 0" id="e"/><path d="M10.89844-43.03906v26.60156c0 3.125.58593 5.72656 1.75781 7.79688 1.73828 3.125 4.66797 4.6875 8.78906 4.6875 4.9414 0 8.30078-1.69141 10.07813-5.07032.95703-1.83593 1.4375-4.30468 1.4375-7.41406v-26.60156H38.875v24.17187c0 5.29297-.71094 9.36719-2.13672 12.21875-2.61719 5.19531-7.5586 7.78906-14.82422 7.78906S9.71875-1.45313 7.1172-6.64844C5.6914-9.5 4.98047-13.57422 4.98047-18.86719v-24.17187zm0 0" id="f"/><path d="M3.86719-31.375H8.875v4.45313c1.48438-1.83594 3.0586-3.15626 4.71875-3.95704 1.66016-.80078 3.50781-1.19921 5.53906-1.19921 4.45313 0 7.46094 1.55078 9.02344 4.65624.85938 1.69922 1.28906 4.13282 1.28906 7.29688V0h-5.36328v-19.77344c0-1.91406-.28515-3.46093-.84765-4.63281-.9375-1.95313-2.64063-2.92969-5.10157-2.92969-1.25 0-2.27343.1289-3.07422.38282-1.4453.42968-2.71484 1.28906-3.80859 2.57812-.8789 1.03516-1.44922 2.10547-1.71484 3.20703-.26172 1.10547-.39453 2.6836-.39453 4.73047V0H3.86719zm0 0" id="g"/><path d="M3.86719-31.23047h5.35937V0H3.8672zm0-11.8086h5.35937v5.97657H3.8672zm0 0" id="h"/><path d="M6.44531-31.375l8.3789 25.54688L23.58595-31.375h5.76953L17.51953 0h-5.625L.32031-31.375zm0 0" id="i"/><path d="M7-9.84375c.15625 1.75781.59766 3.10547 1.32031 4.04297C9.64844-4.10156 11.95313-3.25 15.23438-3.25c1.95312 0 3.67187-.42578 5.15625-1.27734C21.875-5.375 22.61718-6.6875 22.61718-8.46875c0-1.34766-.59375-2.3711-1.78907-3.07422-.76171-.42969-2.26562-.92578-4.5078-1.4961l-4.19141-1.05468C9.45313-14.75781 7.48047-15.5 6.21094-16.32031 3.9453-17.7461 2.8125-19.71875 2.8125-22.23438c0-2.96874 1.07031-5.375 3.20703-7.21093 2.14063-1.83594 5.01563-2.75 8.6289-2.75 4.72657 0 8.13282 1.38281 10.22657 4.15625 1.3086 1.75781 1.9414 3.65625 1.90234 5.6875h-4.98046c-.09766-1.1914-.51563-2.27735-1.25782-3.2539-1.21093-1.38673-3.3125-2.08204-6.30078-2.08204-1.99219 0-3.5.38281-4.52734 1.14453-1.02344.76172-1.53907 1.76953-1.53907 3.01953 0 1.36719.67579 2.46094 2.02344 3.28125.78125.48828 1.9336.91407 3.45703 1.28907l3.48828.84765c3.78907.91797 6.32813 1.8086 7.6172 2.66797 2.05077 1.34766 3.07421 3.46484 3.07421 6.35547 0 2.79297-1.0586 5.20703-3.17969 7.23828C22.53516.1875 19.3047 1.20313 14.96875 1.20313c-4.66797 0-7.97266-1.0625-9.91406-3.1797-1.94531-2.12109-2.98438-4.74218-3.1211-7.86718zm0 0" id="j"/><path d="M23.46875-31.375h5.82813c-.7422 2.01172-2.39063 6.60156-4.95313 13.76563-1.91406 5.39062-3.51563 9.78906-4.80469 13.1875-3.04687 8.0078-5.19531 12.89062-6.44531 14.64843-1.25 1.75782-3.39844 2.63282-6.44531 2.63282-.74219 0-1.3125-.02735-1.71094-.08594-.40234-.0586-.89453-.16407-1.48047-.32032V7.64844c.91797.2539 1.58203.40625 1.99219.46875.41015.0586.76953.08593 1.08203.08593.97656 0 1.69531-.16015 2.15625-.48437.45703-.32031.84375-.71875 1.15625-1.1875.09766-.15625.44922-.95313 1.05469-2.39844.60547-1.44531 1.04687-2.52344 1.32031-3.22656L.61719-31.375h5.97656L15-5.82812zm0 0" id="k"/><path d="M5.125-43.03906h31.3789v5.27343H10.8125v13.07032h23.75781v4.97656H10.8125V-5.125h26.13281V0H5.125zm0 0" id="l"/><path d="M14.9414-31.9336c2.46094 0 4.60938.60547 6.44532 1.81641.9961.6836 2.01172 1.67969 3.04687 2.98828v-3.95703h4.86329v28.53907c0 3.98437-.58594 7.125-1.75782 9.42968-2.1875 4.25781-6.32031 6.39063-12.39062 6.39063-3.3789 0-6.22266-.75782-8.52735-2.27344-2.30468-1.51172-3.59375-3.88281-3.86718-7.10156h5.36328c.2539 1.40625.75781 2.48828 1.52343 3.25 1.19141 1.17187 3.0625 1.75781 5.625 1.75781 4.04297 0 6.6875-1.42578 7.9375-4.27734.7422-1.6797 1.08594-4.67579 1.02344-8.9961-1.05468 1.60156-2.32031 2.79688-3.80468 3.57813C18.9375-.00781 16.97265.3828 14.53125.3828c-3.39844 0-6.3711-1.20703-8.92188-3.6211-2.54687-2.41015-3.8203-6.40233-3.8203-11.96483 0-5.25391 1.28124-9.35938 3.85156-12.3047 2.5664-2.94921 5.66796-4.42577 9.30078-4.42577zm9.4922 16.11329c0-3.88672-.80079-6.76563-2.40235-8.64063s-3.64063-2.8125-6.125-2.8125c-3.71094 0-6.25 1.73438-7.61719 5.21094-.72265 1.85547-1.08203 4.28906-1.08203 7.29688 0 3.53515.71875 6.22656 2.15235 8.0703 1.4375 1.84766 3.36718 2.76954 5.78906 2.76954 3.78906 0 6.45312-1.70703 7.9961-5.1289.85937-1.9336 1.28905-4.1875 1.28905-6.76563zm0 0" id="m"/><path d="M17.10938-3.54688c2.46093 0 4.5078-1.02734 6.13671-3.08984 1.63282-2.0586 2.44922-5.14062 2.44922-9.24219 0-2.5-.36328-4.64843-1.08593-6.4453-1.3672-3.45704-3.8672-5.1836-7.5-5.1836-3.65235 0-6.15235 1.82422-7.5 5.47656-.72266 1.95313-1.08594 4.4336-1.08594 7.4414 0 2.42188.36328 4.48048 1.08593 6.1836 1.3672 3.24219 3.8672 4.85938 7.5 4.85938zM3.45702-31.23046h5.1289v4.16016c1.0547-1.42578 2.20313-2.53125 3.45313-3.3125 1.77735-1.17188 3.86719-1.75782 6.27344-1.75782 3.55469 0 6.57031 1.36329 9.05078 4.08985 2.48047 2.72265 3.72266 6.61328 3.72266 11.67578 0 6.83594-1.78907 11.71875-5.36328 14.64844C23.45703.1289 20.8203 1.05469 17.8125 1.05469c-2.36328 0-4.34375-.51563-5.94531-1.55469-.9375-.58594-1.98438-1.58984-3.13672-3.01563v16.02344H3.45703zm0 0" id="n"/></defs><use y="50" xlink:href="#a"/><use x="36.65" y="50" xlink:href="#b"/><use x="70.02" y="50" xlink:href="#c"/><use x="86.689" y="50" xlink:href="#b"/><use x="120.059" y="50" xlink:href="#d"/><use x="140.039" y="50" xlink:href="#e"/><g><use y="120" xlink:href="#f"/><use x="43.33" y="120" xlink:href="#g"/><use x="76.699" y="120" xlink:href="#h"/><use x="90.029" y="120" xlink:href="#i"/><use x="120.029" y="120" xlink:href="#e"/><use x="153.398" y="120" xlink:href="#d"/><use x="173.379" y="120" xlink:href="#j"/><use x="203.379" y="120" xlink:href="#h"/><use x="216.709" y="120" xlink:href="#c"/><use x="233.379" y="120" xlink:href="#k"/></g><g><use y="180" xlink:href="#h"/><use x="13.33" y="180" xlink:href="#g"/></g><g><use y="240" xlink:href="#l"/><use x="40.02" y="240" xlink:href="#m"/><use x="73.389" y="240" xlink:href="#k"/><use x="103.389" y="240" xlink:href="#n"/><use x="136.758" y="240" xlink:href="#c"/></g></svg>