<svg xmlns="http://www.w3.org/2000/svg" role="img" viewBox="2.46 -3.54 275.08 76.08"><title>GStreamer logo</title><style>svg {overflow:visible}</style><g id="g2405" transform="translate(7.931 1.963) scale(.9434)"><path id="path3" fill="#8c8c8c" d="M199.551 58.684c-.334-6.834 2.636-22.747 9.47-21.247 2.913.64 2.118 4.655 1.166 9-1.282 5.85-3.5 12.237-3.5 12.237s8.334.333 8.167 0c.833-10.5 3.039-21.928 9.167-21.071 5.081.71-1.441 21.071-1.441 21.071h7.587c-.272-3.453 1.59-11.495 2.635-17.311 1.045-5.816-1.181-8.36-5.86-8.405-4.679-.045-9.314 4.044-9.314 4.044.182-3.498-4.429-4.05-4.429-4.05-4.93-.313-9.655 3.005-9.655 3.005l.438-2.57h-7.425s-.365 4.088-1.867 11.549c-1.502 7.461-3.51 13.738-3.51 13.738l8.371.01z"/><path id="path5" fill="#8c8c8c" d="M250.388 32.759c-10.167 0-14.7 7.178-14.7 14.511 0 7.333 4.332 12.167 13.166 12.167 4.15 0 6.5-3.834 6.5-3.834s.134-1.049-.65-.612c-.784.437-2.92 1.352-5.71 1.352s-5.806-2.654-5.806-9.239h16c.833-2.667 1.367-14.345-8.8-14.345zm1.483 11.377h-7.76c0-5.362 4.29-9.412 7.211-7.974 2.66 1.235.549 7.974.549 7.974z"/><path id="path7" fill="#8c8c8c" d="M154.888 32.759c-10.167 0-14.7 7.178-14.7 14.511 0 7.333 4.332 12.167 13.166 12.167 4.15 0 6.5-3.834 6.5-3.834s.134-1.049-.65-.612c-.784.437-2.92 1.352-5.71 1.352s-5.806-2.654-5.806-9.239h16c.833-2.667 1.367-14.345-8.8-14.345zm1.483 11.377h-7.76c0-5.362 3.621-8.836 6.542-7.397 2.66 1.234 1.218 7.397 1.218 7.397z"/><path id="path9" fill="#8c8c8c" d="M268.725 59.088h-8.198s4.786-17.192 5.203-25.621c-.072.072 7.11 0 7.11 0s-.617 1.9-.885 3.559c2.031-2.249 2.719-4.272 8.232-4.272.072 0 0 7.109 0 7.109s-5.15-1.275-7 .574c-1.85 1.849-3.833 3.333-4.462 18.651z"/><path id="path11" fill="#8c8c8c" d="M127.225 59.088h-8.198s4.786-17.192 5.203-25.621c-.072.072 7.11 0 7.11 0s-.617 1.9-.885 3.559c2.031-2.249 2.719-4.272 8.232-4.272.072 0 0 7.109 0 7.109s-5.15-1.275-7 .574c-1.85 1.849-3.833 3.333-4.462 18.651z"/><path id="path13" fill="#8c8c8c" d="M117.227 24.633l-6.705 2.325-1.541 6.244h-4.273v4.105h3.374s-3.598 12.875-2.924 16.812c.675 4.273 4.836 5.172 7.31 5.06 2.474-.112 3.149-1.911 3.036-2.586-.113-.675-3.487.644-3.824-2.393-.225-1.799 2.812-16.893 2.812-16.893h5.285v-4.105h-4.161l1.611-8.569z"/><path id="path15" fill="#8c8c8c" d="M187.104 58.691c.994-.821.33-2.463-.53-2.661-.97-2.011 2.023-13.763 2.023-16.98 0-3.217-5.397-9.671-16.53-3.599-1.079.686-.682 1.808-.416 2.183.266.375.766.625 1 .375 1.047-1.141 5.602-2.333 7.737-.084 1.462 1.35 1.396 3.958.383 4.97-1.236.112-13.427-.246-14.889 7.513-2.522 13.777 12.92 6.522 13.719 5.96.799-.562.706 1.626 2.003 2.548 3.521.307 4.806.348 5.5-.225zm-7.708-5.756c-1.25 3.292-5.891 2.789-6.166.459-1-7.792 7.041-7.209 7.041-7.209s.375 3.458-.875 6.75z"/><path id="path17" fill="#8c8c8c" d="M98.272 40.792l2.332-3.939s-1.9-4.045-7.511-4.045c-5.611 0-8.848 4.046-8.848 8.848 0 4.802 10.682 8.417 8.093 13.164-4.316 4.424-8.872-2.792-8.782-3.266-.326.47-2.56 3.549-2.452 3.549.54 1.079 2.5 4.5 8.752 4.572 5.179.06 8.309-3.776 8.417-8.523.108-6.366-9.172-9.604-9.28-12.517-.108-2.913 6.151-6.26 9.279 2.157z"/><path id="path19" d="M86.042 31.416c-1-.938-1.75.313-4 1.25s-3 .813-5.25.5c-3.688-.813-10.17-.57-11.875.25-11.386 4.572-5.281 13.031-3.422 14.719-.016 0-2.773 1.453-3.176 3.735-.518 2.933.831 4.52.873 4.561-3.72.193-6.112 3.934-5.536 6.997.62 3.299 4.553 5.931 10.184 5.953 11.904.259 12.521-7.353 12.521-7.353 1.629-9.258-6.222-9.685-11.817-9.25-2.025-1.809-.445-3.496-.531-3.496 18.904.446 14.145-12.162 14.145-12.162 3.192-.777 9.446-4.204 7.884-5.704zm-25.32 26.523c7.405 1.336 10.385-.362 10.892 3.413.219 3.684-2.908 4.737-6.545 4.963-3.637.226-6.287-1.612-6.433-3.975-.145-2.363 1.919-2.119 2.086-4.401zm11.439-16.104c-.684 3.028-2.782 5.136-4.687 4.706-1.905-.431-2.894-3.234-2.211-6.263.684-3.029 2.782-5.137 4.687-4.707 1.905.431 2.895 3.235 2.211 6.264z"/><path id="path21" fill="#ff3131" d="M47.141 5.199c-5.409 0-13.323-4.407-21.036-4.407-7.713 0-12.32 4.407-13.122 5.008-.801.601-1.303 2.904 1.102 2.203 2.405-.701 4.407-.701 8.214-.701 3.807 0 12.922 5.209 22.138 5.209 9.216 0 16.928-7.111 18.631-9.616 1.703-2.505.1-3.306-1.202-2.704-1.303.601-9.716 5.008-14.725 5.008z"/><path id="path23" fill="#319831" d="M70.639 18.921c-5.683 0-13.997-4.406-22.1-4.406-8.103 0-12.944 4.406-13.786 5.008-.842.602-1.369 2.904 1.157 2.203 2.526-.701 4.63-.701 8.629-.701 3.999 0 13.576 5.209 23.257 5.209 9.681 0 17.785-7.111 19.574-9.615 1.789-2.505.105-3.307-1.263-2.705-1.368.602-10.206 5.007-15.468 5.007z"/><path id="path25" fill="#3232cc" d="M37.936 34.063c-5.893 0-14.515-4.761-22.918-4.761-8.403 0-13.424 4.761-14.297 5.41-.873.649-1.419 3.137 1.2 2.379 2.62-.757 4.802-.757 8.949-.757s14.079 5.626 24.12 5.626c10.04 0 18.443-7.681 20.299-10.386 1.856-2.705.109-3.57-1.31-2.921s-10.586 5.41-16.043 5.41z"/></g></svg>