<svg xmlns="http://www.w3.org/2000/svg" role="img" viewBox="830.58 628.58 1841.84 654.84"><title>Ganpat University (member) logo</title><style>svg {shape-rendering:geometricPrecision;text-rendering:geometricPrecision;image-rendering:optimizeQuality;fill-rule:evenodd;clip-rule:evenodd}</style><defs><style>.fil0{fill:#e31e25}</style></defs><g id="Layer_x0020_1"><path d="M1098 1056c-4-88-31-239-153-344l6 78c71 73 117 165 137 275-17-79-65-212-199-298l4 76c86 59 145 128 185 231-28-62-88-162-212-220l4 81c112 44 149 82 227 195h4c8-12 16-23 23-33 64-88 103-122 203-162l5-81c-124 58-185 158-212 220 40-103 99-172 185-231l4-76c-134 86-182 219-199 298 20-110 66-202 137-275l6-78c-122 105-149 256-153 344h-2z" class="fil0"/><path d="M1166 730c0 37-30 67-67 67s-67-30-67-67 30-66 67-66 67 29 67 66z" class="fil0"/><path fill="#e31e25" fill-rule="nonzero" d="M1636 848v-90h-90v40h46v29c-12 9-26 13-43 13-10 0-18-2-26-5-7-3-14-8-19-14-6-6-10-13-13-21s-5-17-5-26v-1c0-8 2-17 5-25 3-7 7-14 12-20 6-6 12-11 19-14s15-5 24-5c5 0 11 0 16 1s9 3 14 4c4 2 8 4 12 7s8 5 12 9l28-35c-5-4-11-8-16-12-6-3-12-6-19-9-6-2-13-4-21-5-7-1-16-2-25-2-16 0-30 3-43 8-14 6-25 14-35 23-9 10-17 21-22 34-6 13-8 27-8 42 0 16 2 30 7 43 6 13 13 24 23 34 9 9 21 17 34 22s28 8 44 8c19 0 36-3 51-10 14-6 27-14 38-23zm155 29v-92c0-21-5-38-17-50-11-12-29-18-53-18-14 0-25 1-35 4-9 2-18 5-27 9l11 34c8-3 15-5 21-6 7-2 14-2 23-2 11 0 20 2 26 7 5 5 8 12 8 22v2c-6-2-11-3-17-5-6-1-14-1-22-1-9 0-18 1-25 3-8 2-15 5-21 9-5 4-10 9-13 16-3 6-4 14-4 22v1c0 8 1 15 4 21s7 11 12 15c4 4 10 7 17 9 6 2 13 3 21 3 11 0 20-2 28-5 8-4 14-9 20-15v17h43zm-42-56c0 9-3 15-10 21-6 5-15 7-25 7-8 0-14-1-18-5-5-3-7-8-7-14v-1c0-7 3-12 8-16 6-4 13-5 23-5 6 0 11 0 16 1 4 1 9 3 13 4v8zm206 56V775c0-19-4-33-14-43-9-11-22-16-39-16-6 0-11 1-16 2-4 1-8 3-12 6-4 2-7 5-10 8s-6 6-9 10v-23h-45v158h45v-88c0-10 3-18 8-24 5-5 12-8 20-8 9 0 16 3 20 8 5 6 8 14 8 24v88h44zm186-79c0-13-2-25-6-35s-9-19-16-26-14-12-23-16c-9-3-18-5-27-5-12 0-22 2-29 7-8 5-15 11-20 18v-22h-45v206h45v-68c5 6 12 12 19 16 8 5 18 7 30 7 10 0 19-1 27-5 9-4 17-9 23-16 7-7 12-15 16-26 4-10 6-21 6-35zm-45 0c0 7-1 13-3 19-2 5-5 10-8 13-4 4-8 7-12 9-5 2-10 3-15 3-6 0-11-1-15-3-5-2-9-5-12-9-4-3-7-8-9-14-2-5-3-11-3-18s1-13 3-18c2-6 5-10 9-14 3-4 7-7 12-9 4-2 9-3 15-3 5 0 10 1 15 3 4 2 8 5 12 9 3 4 6 8 8 14 2 5 3 11 3 18zm195 79v-92c0-21-6-38-17-50s-29-18-54-18c-13 0-25 1-34 4-9 2-19 5-27 9l11 34c7-3 14-5 21-6 6-2 14-2 23-2 11 0 19 2 25 7s9 12 9 22v2c-6-2-12-3-18-5-6-1-13-1-21-1-9 0-18 1-26 3s-14 5-20 9-10 9-13 16c-3 6-5 14-5 22v1c0 8 2 15 4 21 3 6 7 11 12 15s11 7 17 9c7 2 14 3 22 3 11 0 20-2 28-5 7-4 14-9 19-15v17h44zm-43-56c0 9-3 15-9 21-7 5-15 7-26 7-7 0-13-1-18-5-4-3-6-8-6-14v-1c0-7 2-12 8-16 5-4 13-5 23-5 5 0 10 0 15 1s9 3 13 4v8zm151 50v-36c-7 4-14 5-22 5-10 0-15-5-15-15v-68h38v-38h-38v-41h-45v41h-19v38h19v75c0 10 2 17 4 23s5 11 9 15 9 6 15 8c5 1 12 2 18 2 8 0 15-1 20-3 6-1 11-3 16-6zm-155 319v59l-7-4v-59l7 4zm-23 0v59l-7-4v-59l7 4zm-54 48l-11 11-10-11 10-10 11 10zm0-37l-11 11-10-11 10-11 11 11zm-37-10c-2-3-4-7-5-10-3-4-4-8-4-11s1-5 3-7 5-3 7-3 4 1 6 2c2 2 3 5 4 9l-2 1c-1-3-2-4-3-5s-2-1-3-1c-2 0-3 1-5 2-1 2-1 3-1 5 0 3 0 5 2 9 1 2 2 5 3 8l-2 1zm-25 8v19c0 2 1 4 1 5 1 2 3 2 4 2 3 0 6 0 8-2 3-1 5-3 6-5l-19-19zm21 16v-21h-22l22 21zm12-28l4 7h-9v55l-7-5v-19c-2 2-4 3-6 4s-5 2-7 2-6-2-9-5c-4-3-6-6-6-10v-22h-11l-3-7h54zm-112 32c0 2 1 4 2 5 2 2 4 2 6 2s5 0 7-2c3-1 6-3 10-6-3-3-5-5-7-6s-5-2-8-2-5 1-7 2c-2 2-3 4-3 7zm32-25v20c2-2 4-3 5-4 2-1 4-1 6-1s5 1 8 4 5 8 5 14c0 2-1 5-2 7s-2 5-5 9l-6-6c2-2 4-5 5-8 2-3 2-6 2-8s0-3-1-4c-2-1-3-2-5-2-1 0-3 1-5 2-3 2-5 3-7 5v27l-8-5 1-17c-4 2-6 4-8 4-2 1-3 1-5 1-5 0-9-1-12-5-3-3-5-7-5-12 0-2 1-4 2-7 3-3 7-5 12-5 2 0 3 1 5 1 1 0 3 1 4 2s2 2 4 3c1 2 2 3 2 4l1-19h-37l-4-7h79l3 7h-34zm-34 17h-15c-7 0-10 3-10 10 0 3 1 6 3 9 1 4 5 8 9 14l-3 3c-6-7-10-13-12-17-3-5-4-9-4-13s2-8 4-10c3-2 6-2 9-2h19v6zm-39-17l-3-7h33l3 7h-33zm-26-23c-1-1-2-2-3-2-2-1-3-1-4-1h-2c-2 1-3 1-4 1 0 0-1-2-3-5l-2-4c0-1 1-1 2-2h4c1 0 3 1 5 2s4 2 6 5c2 1 4 4 7 9 4 4 7 9 11 14l-3 1c-1-2-4-6-7-10-4-4-6-7-7-8zm24 16l4 7h-9v55l-7-5v-50h-9l-4-7h25zm-74 21c1 3 2 5 3 7 2 3 3 5 5 7 1 2 3 3 5 5 2 1 4 2 6 2s3-1 4-2c2-1 2-3 2-5s-1-5-5-8c-2-3-5-5-8-7l1-2h27v-11h-51l-3-7h67l3 7h-9v55l-7-5v-33h-17c3 3 6 6 7 8s2 4 2 7-1 6-4 7c-2 2-4 3-7 3-5 0-10-3-15-8-3-4-6-10-10-18l4-2zm-11-21l3 7h-9v55l-7-5v-50h-9l-3-7h25zm-22 0l4 7h-9v55l-8-5 1-50h-9l-4-7h25zm-34 7v23h24v7h-24v5c0 2-1 3-2 3s-4-2-7-6c-4-3-5-6-5-6v-2c1-1 1-1 2-1h5v-23h-14l-4-7h39l4 7h-18zm-57 0v20c2 1 3 2 5 2 2 1 5 2 7 2 1 0 3-1 5-2 3 0 4-1 6-3v-19h-23zm35-7l4 7h-9v55l-7-5v-22c-1 1-3 1-5 2h-4c-3 0-5 0-8-1-2-1-4-3-6-5l-3 3-2 2c-2 1-3 1-3 2-1 0-1 0-1 1 0 0 3 3 9 10 4 3 7 6 10 9l-4 4c-10-12-17-19-20-23-3-5-5-8-5-10 0-1 0-2 1-3s1-1 2-1 2 1 4 2 3 1 4 1l1-2v-12-5-2h-19l-4-7h65zm-92 0l4 7h-9v55l-7-5v-50h-9l-4-7h25zm-52 7c2 2 3 4 3 6 1 3 2 4 2 6s-2 4-4 6-5 3-10 5c0 2 1 4 2 6 2 2 4 2 6 2 3 0 6 0 8-1 3-1 7-4 11-8v-22h-18zm18 31c-1 2-3 3-6 4-2 1-4 2-6 2-7 0-12-2-16-6-3-4-5-8-7-14 5-1 8-2 11-4 3-1 4-3 4-6 0-1 0-2-1-4s-2-3-2-3h-19l-3-7h58l3 7h-9v55l-7-5v-19zm-69-31v12c0 1 0 2-2 2h-13c-2 0-4 1-5 1-1 1-2 2-2 4 0 1 1 3 3 4s4 2 7 2c2 0 3 0 5-1h5c2 0 3 1 4 2 0 2 1 3 1 4s0 1-1 2h-8c-2-1-3-1-3-1-2 0-4 1-5 2s-2 3-2 5 1 4 2 5c2 1 3 2 5 2 4 0 8-2 13-4 3-2 7-5 10-9v-32h-14zm27-7l3 7h-9v55l-7-5v-10c-2 3-4 5-8 7s-8 3-11 3c-4 0-8-2-11-5-4-2-6-6-6-10 0-1 0-3 1-4l3-3c-2-2-4-3-6-6-3-2-4-5-4-8 0-2 0-4 1-4 1-2 3-2 6-2h14v-8h-28l-4-7h66zm-104 31c0 3 1 6 2 8 2 1 4 2 7 2s6-1 10-3c4-3 7-5 10-9-2-1-5-3-7-5-4-1-7-2-10-2-4 0-7 1-9 3-2 1-3 4-3 6zm29 8c-3 2-5 4-8 5-3 2-6 2-9 2-4 0-8-1-12-5-4-3-7-8-7-12s2-7 4-10c3-2 7-4 13-4 2 0 4 0 5 1 2 0 4 0 6 1l3 3c1 1 3 3 5 6v-19h-43l-3-7h58l4 7h-9v55l-7-5v-18zm-57-39c-1-1-2-2-2-3-1-2-1-4-1-7s1-5 3-8c3-4 7-5 12-5 4 0 8 1 13 3 6 3 10 6 14 9v4c-4-3-8-5-12-7-5-2-8-3-11-3-4 0-7 1-9 3-3 3-4 5-4 8s0 5 1 6h10l4 7h-11v55l-8-5 1-50h-11l-4-7h15zm-48 3v59l-7-4v-59l7 4zm-24 0v59l-7-4v-59l7 4zm1190-205h-35l-38 108-41-108h-36l61 146c-3 6-6 11-9 13-3 3-7 4-12 4-3 0-7-1-10-2s-6-2-9-4l-12 25c5 3 11 5 16 7 6 1 12 2 19 2 6 0 11-1 16-2 4-2 8-4 12-7 4-4 8-8 11-13s6-11 9-19l58-150zm-192 29h39v-29h-39v-40h-33v40h-19v29h19v77c0 8 1 14 3 20 2 5 5 10 9 13 3 3 8 6 13 7 5 2 11 2 17 2s12 0 16-2c5-1 10-3 14-5v-27c-7 3-14 5-21 5-6 0-10-2-13-5s-5-7-5-14v-71zm-67 117V985h-33v146h33zm-52-43v-1c0-6-1-12-4-17-3-4-6-8-11-11-4-4-9-6-14-8-5-3-11-5-16-6-4-2-9-3-12-4-4-2-8-3-11-5-3-1-5-3-7-5s-3-4-3-7c0-4 2-8 5-11 4-2 9-4 15-4s13 1 20 4c7 2 15 6 22 10l13-24c-8-5-16-9-26-12-9-3-19-4-28-4-7 0-14 1-20 3s-12 5-17 9c-4 3-8 8-11 14-2 5-4 11-4 18v1c0 7 2 12 4 17 3 5 7 9 11 12s9 6 15 8c5 2 11 4 16 5 4 2 8 3 12 4s8 3 11 4c3 2 5 4 7 6s2 4 2 7c0 5-2 9-5 12-4 3-10 4-17 4-8 0-16-1-24-4s-16-8-24-14l-15 23c9 7 19 12 30 16s21 6 32 6c8 0 15-1 21-3 7-2 13-5 18-9 4-4 8-8 11-14s4-12 4-20zm-168-13c0-9 2-18 4-25s6-13 10-18c5-5 10-8 16-11 6-2 13-3 20-3h2v-36c-13 0-23 3-32 9-8 7-15 16-20 27v-33h-33v146h33v-56zm-158-27c2-12 6-21 13-28 6-7 15-11 25-11 6 0 11 1 15 3s8 5 11 9c3 3 6 7 8 12 2 4 3 9 3 15h-75zm1 22h107v-5-4c0-11-1-21-4-30-3-10-7-18-13-25-6-8-13-13-22-18-9-4-19-6-30-6s-20 2-29 6-16 10-23 17c-6 6-11 15-14 24-4 9-6 19-6 29 0 12 2 22 6 31 4 10 9 18 16 24 7 7 15 12 24 16 9 3 19 5 29 5 14 0 25-2 35-7 9-5 18-12 25-20l-20-18c-6 6-12 11-18 13-6 3-13 5-21 5-11 0-20-3-28-10-7-6-12-15-14-27zm-103 22l-39-107h-36l60 147h30l59-147h-35l-39 107zm-88 39V985h-34v146h34zm-156-82c0-12 3-21 9-27s14-10 24-10 17 4 23 10c5 6 8 15 8 26v83h33v-93c0-17-4-31-13-41s-22-15-39-15c-5 0-10 1-15 2-4 2-9 3-12 6-4 2-7 5-10 8s-6 6-8 10v-23h-34v146h34v-82zm-49-111h-34v111c0 18-4 31-13 40-8 9-20 14-35 14-16 0-27-5-36-14-9-10-13-23-13-41V938h-34v111c0 14 2 26 6 37 4 10 9 19 16 26 7 8 16 13 26 17 10 3 22 5 34 5 13 0 24-2 35-5 10-4 19-9 26-17 7-7 12-16 16-27s6-23 6-38V938z"/><path d="M1810 954c0-4-1-8-4-11s-7-5-12-5c-4 0-8 2-11 5s-5 7-5 11 2 8 5 12c3 3 7 4 11 4 5 0 9-1 12-4 3-4 4-8 4-12zm569 0c0-4-2-8-5-11s-7-5-11-5c-5 0-9 2-12 5s-5 7-5 11 2 9 5 12 7 4 12 4c4 0 8-1 11-4s5-8 5-12z" class="fil0"/></g></svg>