<svg xmlns="http://www.w3.org/2000/svg" role="img" viewBox="33.42 40.92 654.16 133.16"><title>Georgia Tech Research Corporation (member) logo</title><defs><style>.cls-1{fill:#143156}.cls-2{fill:#b2a268}</style></defs><path d="M512 75.66h40.81a.67.67 0 0 1 .76.76v12.14a.67.67 0 0 1-.76.75h-6.53a.67.67 0 0 1-.76-.75V84a.4.4 0 0 0-.45-.45h-7.74a.4.4 0 0 0-.45.45v35.35a.4.4 0 0 0 .45.46h4a.67.67 0 0 1 .76.76v5.91a.67.67 0 0 1-.76.76h-17.85a.67.67 0 0 1-.76-.76v-5.91a.67.67 0 0 1 .76-.76h3.94a.41.41 0 0 0 .46-.46V84a.4.4 0 0 0-.46-.45h-7.74a.4.4 0 0 0-.45.45v4.56a.67.67 0 0 1-.76.75H512a.67.67 0 0 1-.76-.75V76.42a.67.67 0 0 1 .76-.76zm54.05 14.19a16.52 16.52 0 0 1 9.56 2.69 13.8 13.8 0 0 1 5.46 7.39q1.21 3.72 1.21 11c0 .51-.28.76-.83.76h-22.53a.41.41 0 0 0-.46.46A7.94 7.94 0 0 0 559 115q1.89 5.55 8.19 5.54a11 11 0 0 0 8.57-3.49q.6-.6 1.14-.15l4.47 3.94a.7.7 0 0 1 .08 1.07q-5.31 6.21-15 6.22a17 17 0 0 1-9.75-2.7 13.74 13.74 0 0 1-5.5-7.47 29.18 29.18 0 0 1-1.29-9 29.75 29.75 0 0 1 1.22-9 13.56 13.56 0 0 1 5.5-7.43 16.6 16.6 0 0 1 9.42-2.68zm.08 7.2q-5.62 0-7.21 4.7a9.92 9.92 0 0 0-.46 3.11.41.41 0 0 0 .46.46h14.34a.4.4 0 0 0 .45-.46 9.93 9.93 0 0 0-.45-3.11 6.69 6.69 0 0 0-2.66-3.45 8 8 0 0 0-4.47-1.25zm38.12-7.2q7.59 0 12.59 2.88a1 1 0 0 1 .61 1v8.35a.67.67 0 0 1-.76.76h-6.45a.67.67 0 0 1-.75-.76v-3.36a.65.65 0 0 0-.38-.53 10.78 10.78 0 0 0-4.63-.76q-5.93 0-7.51 4.78a22.54 22.54 0 0 0-.76 6.75 22.87 22.87 0 0 0 .76 6.83q1.59 4.69 7.51 4.7a11.33 11.33 0 0 0 4.63-.68.54.54 0 0 0 .38-.53v-3.42a.66.66 0 0 1 .75-.75h6.45a.67.67 0 0 1 .76.75v8.42a1 1 0 0 1-.61 1 26.9 26.9 0 0 1-12.59 2.81q-12.36 0-15.55-9.86a30.2 30.2 0 0 1-1.14-9.26 29.29 29.29 0 0 1 1.14-9 13.7 13.7 0 0 1 5.65-7.47 18 18 0 0 1 9.9-2.65zm19.66-14.19h11.45a.67.67 0 0 1 .76.76v17.67h.07q3-4.25 9.49-4.24a11.76 11.76 0 0 1 9.14 3.79 14 14 0 0 1 3.45 9.78v15.93a.4.4 0 0 0 .45.46h3.11a.67.67 0 0 1 .76.76v5.91a.67.67 0 0 1-.76.76h-15.77a.67.67 0 0 1-.76-.76v-5.91a.67.67 0 0 1 .76-.76h3.26a.4.4 0 0 0 .45-.46V105.4a9 9 0 0 0-1.77-5.81 7 7 0 0 0-10.13 0 8.84 8.84 0 0 0-1.78 5.81v13.95a.4.4 0 0 0 .45.46h3.27a.67.67 0 0 1 .75.76v5.91a.67.67 0 0 1-.75.76h-15.9a.67.67 0 0 1-.76-.76v-5.91a.67.67 0 0 1 .76-.76h3.26a.4.4 0 0 0 .45-.46v-35.8a.4.4 0 0 0-.45-.46h-3.26a.67.67 0 0 1-.76-.75v-5.92a.67.67 0 0 1 .76-.76zM672 119.81a3.72 3.72 0 0 0 0 7.43 3.72 3.72 0 0 0 0-7.43zm0 6.86a3.14 3.14 0 0 1 0-6.28 3.14 3.14 0 0 1 0 6.28z" class="cls-1"/><path d="M672.69 123.65a1 1 0 0 0 .81-1 1 1 0 0 0-.38-.86 2.2 2.2 0 0 0-1.29-.31 7.4 7.4 0 0 0-1.17.1v4.14h.66v-1.82h.46a.77.77 0 0 1 .89.72 3.19 3.19 0 0 0 .28 1.06h.69a3.71 3.71 0 0 1-.26-1c-.08-.63-.33-.96-.69-1.03zm-.89-.26h-.48V122a4.64 4.64 0 0 1 .48 0c.74 0 1 .36 1 .73s-.46.66-1 .66zM269.07 74.83a28.57 28.57 0 0 1 9 1.4 20.34 20.34 0 0 1 6.87 3.6 1.39 1.39 0 0 1 .53 1.06V90a.68.68 0 0 1-.76.76h-6.83a.67.67 0 0 1-.76-.76v-4.48a.74.74 0 0 0-.3-.61 14.29 14.29 0 0 0-8-2q-8.34 0-10.69 6.9-1.22 3.8-1.21 11.83 0 8.58 1 11.68a9.74 9.74 0 0 0 3.6 5 12.1 12.1 0 0 0 7 1.71q5.61 0 8.41-1.82a1.38 1.38 0 0 0 .76-1.22v-10.08a.4.4 0 0 0-.45-.45H269a.67.67 0 0 1-.76-.76v-6.07a.67.67 0 0 1 .76-.76h16.53a.67.67 0 0 1 .76.76v21.77a2.1 2.1 0 0 1-1 1.82q-6.75 4.86-17 4.86-15.24 0-19.19-12.06-1.29-3.87-1.29-14.42 0-9.93 1.44-14.26 4.04-12.51 19.82-12.51zm40.07 15.01a16.5 16.5 0 0 1 9.56 2.7 13.8 13.8 0 0 1 5.46 7.39q1.21 3.72 1.22 11c0 .51-.28.76-.84.76H302a.4.4 0 0 0-.45.46 8.15 8.15 0 0 0 .53 2.8q1.89 5.55 8.19 5.54a11 11 0 0 0 8.57-3.49q.61-.6 1.14-.15l4.48 3.94a.7.7 0 0 1 .07 1.07q-5.31 6.21-15 6.22a16.94 16.94 0 0 1-9.74-2.7 13.69 13.69 0 0 1-5.5-7.47 29.18 29.18 0 0 1-1.29-9 29.77 29.77 0 0 1 1.21-9 13.61 13.61 0 0 1 5.5-7.43 16.63 16.63 0 0 1 9.43-2.64zm.08 7.21q-5.61 0-7.21 4.7a9.93 9.93 0 0 0-.45 3.11.4.4 0 0 0 .45.46h14.34a.41.41 0 0 0 .46-.46 9.92 9.92 0 0 0-.46-3.11 6.62 6.62 0 0 0-2.65-3.45 8 8 0 0 0-4.48-1.25zm37.66-7.21a16.76 16.76 0 0 1 9.52 2.66 13.56 13.56 0 0 1 5.5 7.43 29.3 29.3 0 0 1 1.22 9 29.3 29.3 0 0 1-1.22 9 13.56 13.56 0 0 1-5.5 7.43 18.49 18.49 0 0 1-19.11 0 13.56 13.56 0 0 1-5.5-7.43 29.32 29.32 0 0 1-1.21-9 29.32 29.32 0 0 1 1.21-9 13.56 13.56 0 0 1 5.5-7.43 16.88 16.88 0 0 1 9.59-2.66zm0 7.59q-5.38 0-6.9 4.78a23.46 23.46 0 0 0-.76 6.75 23 23 0 0 0 .76 6.75q1.66 4.79 6.9 4.78a6.61 6.61 0 0 0 6.83-4.78 23.34 23.34 0 0 0 .76-6.75 23.82 23.82 0 0 0-.76-6.75q-1.51-4.78-6.83-4.78zm43.43-7.28a16.88 16.88 0 0 1 3.56.38c.51.1.76.35.76.76v6.6c0 .65-.3.91-.91.75a30 30 0 0 0-4.47-.6q-8.21 0-8.2 9.4v11.91a.41.41 0 0 0 .46.46h3.56a.67.67 0 0 1 .76.76v5.91a.67.67 0 0 1-.76.76h-16.23a.67.67 0 0 1-.76-.76v-5.91a.67.67 0 0 1 .76-.76h3.26a.4.4 0 0 0 .46-.46V98.57a.41.41 0 0 0-.46-.46h-3.26a.67.67 0 0 1-.76-.76v-5.91a.67.67 0 0 1 .76-.76h11.46a.67.67 0 0 1 .75.76v3.79h.08a10.08 10.08 0 0 1 9.18-5.08zm21.1-.31q6.75 0 9.49 4.33h.1v-2.73a.67.67 0 0 1 .76-.76h11.45a.67.67 0 0 1 .76.76v5.91a.67.67 0 0 1-.76.76h-3.26a.4.4 0 0 0-.45.46V125q0 8-4.37 12.36t-12.7 4.4a20 20 0 0 1-7.55-1.48 13.9 13.9 0 0 1-5.73-4 .7.7 0 0 1 .08-1.06l4.48-4.48a.68.68 0 0 1 1.13 0 11.24 11.24 0 0 0 8 3.41q8.19 0 8.19-8.72V122h-.07q-2.75 4.24-9.49 4.25a13.07 13.07 0 0 1-7.87-2.25 12.82 12.82 0 0 1-4.63-6.6 30.49 30.49 0 0 1-1.21-9.33A30.12 30.12 0 0 1 399 98.8q2.85-8.95 12.41-8.96zm2.2 7.59a6.2 6.2 0 0 0-6.45 4.63 18.77 18.77 0 0 0-.83 6 17.89 17.89 0 0 0 .83 6 6.83 6.83 0 0 0 13 0 17.89 17.89 0 0 0 .83-6 18.77 18.77 0 0 0-.83-6 6.25 6.25 0 0 0-6.55-4.63zm25.17-6.75h11.45a.67.67 0 0 1 .76.76v27.91a.4.4 0 0 0 .46.46h3.26a.67.67 0 0 1 .76.76v5.91a.67.67 0 0 1-.76.76h-15.93a.67.67 0 0 1-.76-.76v-5.91a.67.67 0 0 1 .76-.76H442a.4.4 0 0 0 .45-.46V98.57a.4.4 0 0 0-.45-.46h-3.26a.67.67 0 0 1-.76-.76v-5.91a.67.67 0 0 1 .8-.76zm4.47-15h7a.67.67 0 0 1 .76.76V83a.67.67 0 0 1-.76.76h-7a.68.68 0 0 1-.76-.76v-6.6a.67.67 0 0 1 .76-.74zm31.62 14.16q8.28 0 11.72 3t3.46 9.79v16.76a.4.4 0 0 0 .45.46h3.26a.67.67 0 0 1 .76.76v5.91a.67.67 0 0 1-.76.76h-10.84a.67.67 0 0 1-.76-.76v-2.65h-.08q-3 4.24-10.16 4.25a13.16 13.16 0 0 1-8.76-2.89q-3.46-2.88-3.46-8.34 0-5.84 3.84-8.76t10.73-2.92h7.28a.41.41 0 0 0 .46-.46v-1.44q0-3.33-1.64-4.85t-5.87-1.56a17.73 17.73 0 0 0-3.95.45.48.48 0 0 0-.38.54v3.26a.67.67 0 0 1-.76.76h-6.6a.67.67 0 0 1-.75-.76v-7.74a1 1 0 0 1 .6-1 28.06 28.06 0 0 1 12.21-2.57zm6.68 21.7h-5.92q-7.81 0-7.81 5 0 4.62 6.22 4.62 8 0 8-6.22v-3a.4.4 0 0 0-.49-.4z" class="cls-1"/><path d="M199.25 155.58a3.11 3.11 0 1 0 3.06 3.1 3.08 3.08 0 0 0-3.08-3.1zm0 5.73a2.63 2.63 0 0 1 0-5.25 2.56 2.56 0 0 1 2.48 2.64 2.52 2.52 0 0 1-2.48 2.61z" class="cls-2"/><path d="M199.8 158.79a.84.84 0 0 0 .67-.84.83.83 0 0 0-.31-.71 1.87 1.87 0 0 0-1.08-.26 6.45 6.45 0 0 0-1 .08v3.46h.55V159h.37a.64.64 0 0 1 .74.61 2.39 2.39 0 0 0 .24.88h.58a2.65 2.65 0 0 1-.22-.86c-.03-.51-.24-.78-.54-.84zm-.75-.22h-.4v-1.17a3.29 3.29 0 0 1 .4 0c.62 0 .84.31.84.61s-.38.56-.84.56zM101.22 54.52zm14.31 33.88v27H130l1.53-8.11h6.52c-2.39 12.36-14.69 20.92-30.28 20.92-1.07 0-2.15 0-3.22-.13-8.64-.66-16.58-3.44-22.36-7.83-6.38-4.83-9.73-11.3-9.7-18.69A27.62 27.62 0 0 1 82 80.87a35.33 35.33 0 0 1 22-8.58h1.58a45.43 45.43 0 0 1 28 10.23c.39.33.48.4.58.47a5.36 5.36 0 0 1 .56.45l.22.18h16.65V54.51h-16.92v8.34c-7.11-4.55-19.26-9.14-33.45-9.14H101A58.44 58.44 0 0 0 59.76 71C51 80 46.21 90.87 46.35 101.78c.16 11.72 5.8 22.64 15.91 30.75 9.66 7.76 22.77 12.21 35.94 12.21 1.63 0 3.28-.07 4.9-.2 13.05-1.07 24.62-4 32.79-8.42v3.6h17.93v-32.38H160v37.56h-9.34v16.89h41.68V144.9H183v-37.57h21.11l1.47 8.11h14.57v-27zm-14.31-33.88z" class="cls-2"/></svg>