<svg xmlns="http://www.w3.org/2000/svg" role="img" viewBox="-5.29 -5.29 262.08 108.83"><title>gprof logo</title><path fill-rule="evenodd" stroke="#000" stroke-linecap="round" stroke-width=".25mm" d="M5.901 94l3.3-7.8a20.562 20.562 0 0 0 3.816 2.373 24.737 24.737 0 0 0 1.784.777q2.759 1.078 6.559 1.226a31.788 31.788 0 0 0 1.241.024 21.701 21.701 0 0 0 4.52-.443q2.901-.618 5.101-2.098a12.576 12.576 0 0 0 1.529-1.209 11.352 11.352 0 0 0 2.907-4.493q1.143-3.101 1.143-7.457v-6.4q-2 2.4-5.75 4.55t-8.95 2.15q-5.9 0-11.2-3.05a22.236 22.236 0 0 1-7.293-6.838A27.437 27.437 0 0 1 3.301 63.2a25.181 25.181 0 0 1-2.713-7.624A35.033 35.033 0 0 1 .001 49a32.06 32.06 0 0 1 .917-7.808A26.682 26.682 0 0 1 3.251 35.1a25.706 25.706 0 0 1 6.063-7.622 24.448 24.448 0 0 1 2.687-1.978q5.5-3.5 12.1-3.5a22.366 22.366 0 0 1 4.82.501 18.715 18.715 0 0 1 3.18.999 25.705 25.705 0 0 1 3.828 1.968 20.998 20.998 0 0 1 2.372 1.732v-4h8.2V74q0 8.6-3 14t-8.35 7.9a25.811 25.811 0 0 1-6.605 2.022 35.243 35.243 0 0 1-5.945.478q-4.6 0-8.95-1.1a27.232 27.232 0 0 1-5.301-1.917A23.518 23.518 0 0 1 5.901 94zm224.1-18.8h-9V32.9h-8v-7.8h8V19a25.495 25.495 0 0 1 .626-5.818q1.107-4.73 4.176-7.979a16.387 16.387 0 0 1 .098-.103A16.367 16.367 0 0 1 236.305.125 22.463 22.463 0 0 1 238.701 0a29.982 29.982 0 0 1 3.51.195q1.745.206 3.261.63a17.884 17.884 0 0 1 .429.125q3.1.95 5.9 2.35l-2.7 7.6q-2.1-1.1-4.5-2a14.172 14.172 0 0 0-3.623-.821A17.356 17.356 0 0 0 239.301 8a10.802 10.802 0 0 0-3.03.405 8.291 8.291 0 0 0-3.72 2.245 8.462 8.462 0 0 0-1.947 3.369q-.603 1.901-.603 4.381v6.7h15.4v7.8h-15.4v42.3zm-157.1 22h-9V36.5a11.015 11.015 0 0 0-.127-1.736q-.331-2.066-1.523-3.114a5.718 5.718 0 0 0-2.79-1.322 7.991 7.991 0 0 0-1.46-.128l1.9-7q5.861 0 8.922 2.964a10.15 10.15 0 0 1 2.578 4.336q.955-1.433 3.051-3.322a38.58 38.58 0 0 1 .199-.178 18.902 18.902 0 0 1 2.701-1.984 25.569 25.569 0 0 1 2.899-1.516 16.955 16.955 0 0 1 4.558-1.289A21.886 21.886 0 0 1 87.901 22q6 0 11.25 3.15a22.329 22.329 0 0 1 7.178 6.967 27.464 27.464 0 0 1 1.272 2.133q3.2 5.95 3.2 14.45 0 8.3-3.2 14.55a27.846 27.846 0 0 1-3.934 5.832 23.029 23.029 0 0 1-4.416 3.868q-5.15 3.45-11.15 3.45-4.6 0-8.6-1.85a30.352 30.352 0 0 1-3.417-1.839q-1.792-1.126-3.183-2.411v26.9zm59.4-22h-9v-52h8.7v11.3q1.3-3.3 3.5-6.15 2.2-2.85 5.5-4.6a14.817 14.817 0 0 1 4.679-1.524 19.459 19.459 0 0 1 3.021-.226q1.5 0 3 .15a18.972 18.972 0 0 1 1.054.134q.5.078.927.179a8.817 8.817 0 0 1 .519.137l-2.7 9.3a9.763 9.763 0 0 0-2.146-.612q-1.095-.188-2.354-.188a12.958 12.958 0 0 0-6.63 1.846 15.609 15.609 0 0 0-.42.254q-3.328 2.086-5.472 6.442a22.927 22.927 0 0 0-.028.058q-1.763 3.607-2.081 8.828a39.09 39.09 0 0 0-.069 2.372v24.3zm36.5-2.25a24.559 24.559 0 0 0 4.598 2.09q4.055 1.36 8.702 1.36 7.4 0 13.25-3.4t9.25-9.55a26.255 26.255 0 0 0 2.653-7.141 34.184 34.184 0 0 0 .747-7.309 34.542 34.542 0 0 0-.486-5.908 25.795 25.795 0 0 0-2.964-8.442q-3.45-6.05-9.3-9.35a24.848 24.848 0 0 0-4.642-2.027A27.738 27.738 0 0 0 182.101 22a31.325 31.325 0 0 0-1.581.04 26.169 26.169 0 0 0-11.619 3.26q-5.9 3.3-9.3 9.4a26.023 26.023 0 0 0-2.75 7.59 35.006 35.006 0 0 0-.65 6.91 34.82 34.82 0 0 0 .265 4.354 27.451 27.451 0 0 0 3.085 9.796q3.35 6.15 9.25 9.6zm13.3-4.55q7.9 0 12.3-5.35a18.802 18.802 0 0 0 3.819-8.09 27.105 27.105 0 0 0 .581-5.76q0-5.2-2.2-9.55a19.198 19.198 0 0 0-4.172-5.569 18.17 18.17 0 0 0-1.778-1.431q-3.75-2.65-8.55-2.65a19.249 19.249 0 0 0-5.227.672 14.037 14.037 0 0 0-7.073 4.528 17.878 17.878 0 0 0-3.674 7.374q-.726 2.932-.726 6.426 0 5.2 2.2 9.65a19.437 19.437 0 0 0 3.529 5.04 17.627 17.627 0 0 0 2.421 2.06q3.75 2.65 8.55 2.65zm-109.2-31.8v25.6q2.6 2.7 6 4.45t7.4 1.75q6.693 0 10.916-5.184a17.38 17.38 0 0 0 .134-.166 18.792 18.792 0 0 0 3.493-7.305q.662-2.69.745-5.837a34.555 34.555 0 0 0 .012-.908q0-6-2.15-10.3-2.15-4.3-5.7-6.6-3.55-2.3-7.85-2.3a14.741 14.741 0 0 0-5.627 1.063 14.054 14.054 0 0 0-2.123 1.087q-3.45 2.15-5.25 4.65zm-35.4 24.6V34q-2.166-1.575-5.204-2.859a36.018 36.018 0 0 0-.096-.041 16.249 16.249 0 0 0-3.804-1.051 22.135 22.135 0 0 0-3.396-.249q-4.1 0-7.7 2.2-3.6 2.2-5.85 6.35-2.25 4.15-2.25 10.15a24.32 24.32 0 0 0 .478 4.936 18.311 18.311 0 0 0 1.772 4.964 18.576 18.576 0 0 0 2.911 4.075 15.802 15.802 0 0 0 2.939 2.425q3.6 2.3 7.8 2.3a15.276 15.276 0 0 0 4.578-.668 13.606 13.606 0 0 0 2.622-1.132 20.855 20.855 0 0 0 2.981-2.016 16.309 16.309 0 0 0 2.219-2.184z" vector-effect="non-scaling-stroke"/></svg>