<svg xmlns="http://www.w3.org/2000/svg" role="img" viewBox="1.88 12.88 317.98 125.98"><title>Graz University of Technology (member) logo</title><path d="M195 48h43v1h-43zm43 0h1v1h-1zm8 0h10v1h-10zm10 0h1v1h-1zm22 0h11v1h-11zm11 0h1v1h-1zm-95 10h1v1h-1zm51 27h1v1h-1zm12 1h1v1h-1zm32 3h1v1h-1zm-43 3h1v1h-1zm16 1h1v1h-1zm5 1h2v1h-2zm2 0h1v1h-1zm17 3h1v1h-1zm-33 4h1v1h-1zm-31 2h1v1h-1zm40 1h1v1h-1zm11 0h1v1h-1zm-52 2h1v1h-1zm6 0h1v1h-1zm17 7h1v1h-1zm30 0h1v1h-1zm16 0h1v4h-1zm-31 4h2v1h-2zm2 0h1v1h-1zm29 0h1v1h-1zm-35 1h1v1h-1zm9 1h1v1h-1zm-46 4h1v1h-1zm9 0h1v1h-1zm17 0h1v8h-1zm40 1h1v1h-1zm-65 1h1v1h-1zm1 1h1v1h-1zm32 0h1v1h-1zm0 1h1v1h-1zm22 0h1v1h-1zm-61 1h1v1h-1zm77 1h1v1h-1zm-75 1h1v1h-1zm75 0h1v2h-1zm-46 1h1v1h-1zm10 0h1v1h-1zm-25 1h1v1h-1zm61 0h1v1h-1z" fill="#fafafa"/><path d="M281 101h1v1h-1zm-2 1h1v1h-1zm-58 1h1v1h-1zm-6 6h1v1h-1zm-3 4h1v1h-1zm58 6h1v1h-1zm-8 9h1v1h-1zm-1 4h1v1h-1z" fill="#b1b1b1"/><path d="M36 104h1v27h-1zm0 27h1v1h-1zm1 1h54v1H37zm54 0h1v1h-1zm222 0h1v1h-1z" fill="#fbd4dc"/><path d="M104 19h55v1h-55zm55 0h1v1h-1zm135 113h1v1h-1z" fill="#fac8d1"/><path d="M159 21h1v26h-1zm0 26h1v1h-1zM70 76h1v1h-1zm-60 27h26v1H10zm26 0h1v1h-1zm57 0h31v1H93zm31 0h1v1h-1zm9 0h52v1h-52zm52 0h1v1h-1zm110 10h1v1h-1z" fill="#ef2f5e"/><path d="M278 86h1v1h-1zm-1 4h1v1h-1zm11 1h1v1h-1zm-2 5h1v1h-1zm-26 7h1v1h-1zm-43 14h1v1h-1zm44 3h3v1h-3zm3 0h1v1h-1zm17 0h1v1h-1zm-59 12h1v1h-1zm3 0h1v1h-1z" fill="#5f5f5f"/><path d="M294 113h1v17h-1zm0 17h1v1h-1zm-202 1h1v1h-1z" fill="#f25e7e"/><path d="M8 48h1v1H8zm305 66h1v17h-1zm0 17h1v1h-1z" fill="#f58ca2"/><path d="M245 49h1v30h-1zm-51 1h1v6h-1zm0 6h1v1h-1zm28 2h1v1h-1zm23 21h1v1h-1zm44 8h1v1h-1zm-43 4h1v1h-1zm29 1h1v1h-1zm-23 8h1v1h-1zm14 4h1v1h-1zm-22 17h1v1h-1zm-16 11h1v1h-1z" fill="#c9c9c9"/><path d="M126 77h1v26h-1zm0 26h1v1h-1zm-90 29h1v1h-1z" fill="#fef3f5"/><path d="M247 93h1v1h-1zm-20 18h1v1h-1zm0 11h1v1h-1z" fill="#626262"/><path d="M187 48h1v1h-1zM70 49h1v26h-1zm0 26h1v1h-1z" fill="#f03965"/><path d="M131 75h1v1h-1zm-66 1h4v1h-4zm4 0h1v1h-1zm23 28h1v26h-1zm0 26h1v1h-1z" fill="#f36f89"/><path d="M256 80h1v1h-1zm0 1h1v1h-1zm-10 7h1v1h-1zm36 12h1v1h-1zm-64 14h1v1h-1zm58 3h5v1h-5zm5 0h1v1h-1zm-57 2h1v1h-1zm-1 13h1v1h-1zm1 0h1v1h-1zm34 0h1v1h-1z" fill="#444"/><path d="M103 48h1v1h-1zm22 28h1v26h-1zm7 0h1v26h-1zm-7 26h1v1h-1zm7 0h1v1h-1zm163 29h1v1h-1z" fill="#ee094d"/><path d="M187 49h1v54h-1zM64 76h1v1h-1zm123 27h1v1h-1zm107 28h1v1h-1z" fill="#f15477"/><path d="M238 49h1v1h-1zm0 8h1v1h-1zm40 25h1v1h-1zm-17 11h1v1h-1zm-11 5h1v1h-1zm1 1h1v1h-1zm8 4h1v1h-1zm-36 8h1v1h-1zm3 0h1v1h-1zm14 2h2v1h-2zm2 0h1v1h-1zm23 0h1v1h-1zm11 0h12v1h-12zm12 0h1v1h-1zm-19 3h1v1h-1zm-52 3h1v1h-1zm0 1h1v1h-1zm16 0h1v8h-1zm37 1h1v9h-1zm9 1h1v1h-1zm-46 6h1v1h-1zm37 2h1v1h-1zm4 1h1v1h-1z" fill="#979797"/><path d="M222 59h1v43h-1zm23 24h1v1h-1zm12 4h1v1h-1zm32 1h1v1h-1zm-29 4h1v1h-1zm5 2h1v1h-1zm5 0h1v1h-1zm15 4h1v1h-1zm-1 1h1v1h-1zm-62 3h1v1h-1zm42 2h1v1h-1zm7 0h1v1h-1zm-48 2h2v1h-2zm2 0h1v1h-1zm-7 1h1v1h-1zm26 8h1v1h-1zm6 3h1v1h-1zm20 0h1v1h-1zm6 7h1v1h-1zm-64 1h1v1h-1zm48 2h1v1h-1zm3 3h1v1h-1zm-44 1h1v1h-1zm51 0h1v1h-1zm4 0h1v1h-1z" fill="#dfdfdf"/><path d="M258 90h1v1h-1zm6 4h1v1h-1zm7 0h1v1h-1zm-22 3h1v1h-1zm-38 6h9v1h-9zm9 0h1v1h-1zm12 5h1v1h-1zm19 5h1v1h-1zm6 4h1v1h-1zm7 1h1v1h-1zm-11 5h1v1h-1zm25 0h1v1h-1zm-47 8h1v1h-1z" fill="#b6b6b6"/><path d="M256 83h1v1h-1zm22 4h1v1h-1zm10 3h1v1h-1zm-27 13h1v1h-1zm-41 4h1v1h-1zm41 16h1v1h-1zm14 4h1v1h-1z" fill="#232323"/><path d="M246 87h1v1h-1zm-15 21h1v1h-1zm-3 3h1v1h-1zm-15 1h1v1h-1zm47 1h1v1h-1zm-43 3h1v1h-1zm-2 13h1v1h-1z" fill="#141414"/><path d="M257 89h1v1h-1zm17 14h1v1h-1zm-15 10h1v1h-1zm4 0h1v1h-1zm-51 1h1v1h-1zm32 2h1v1h-1zm40 7h1v1h-1zm-31 5h1v1h-1zm1 2h1v1h-1zm-36 1h1v1h-1z" fill="#2d2d2d"/><path d="M103 20h1v27h-1zm0 27h1v1h-1zm23 29h1v1h-1z" fill="#fef8fa"/><path d="M289 50h1v29h-1zm0 29h1v1h-1zm-11 5h1v1h-1zm-24 17h1v1h-1zm-22 9h1v1h-1zm0 1h1v1h-1zm25 2h1v1h-1zm-31 5h5v1h-5zm5 0h1v1h-1zm-20 2h1v1h-1zm33 0h1v1h-1zm15 0h1v1h-1zm-42 1h1v1h-1zm63 0h1v1h-1z" fill="#7d7d7d"/><path d="M126 75h4v1h-4zm4 0h1v1h-1z" fill="#f47d96"/><path d="M131 76h1v27h-1zm0 27h1v1h-1zm-39 29h1v1h-1z" fill="#fce1e7"/><path d="M289 83h1v1h-1zm-15 10h1v1h-1zm-35 20h1v1h-1zm4 0h1v1h-1zm32 0h1v1h-1zm14 0h1v1h-1zm-35 2h1v2h-1zm0 2h1v1h-1zm-37 1h1v1h-1zm7 0h1v1h-1zm9 1h1v1h-1zm54 1h1v1h-1zm-76 1h1v1h-1zm47 5h1v1h-1zm-25 3h1v1h-1zm37 2h1v1h-1z" fill="#929292"/><path d="M64 48h1v1h-1zm231 84h17v1h-17zm17 0h1v1h-1z" fill="#f8b4c2"/><path d="M194 49h1v1h-1zm0 8h1v1h-1zm95 29h1v1h-1zm-13 5h1v1h-1zm-9 13h2v1h-2zm2 0h1v1h-1zm-58 12h1v1h-1zm22 2h1v1h-1zm13 0h1v1h-1zm43 0h1v1h-1zm-62 9h1v1h-1zm6 3h1v1h-1zm-16 1h1v1h-1zm22 1h4v1h-4zm4 0h1v1h-1zm13 0h1v1h-1zm9 0h4v1h-4zm4 0h1v1h-1zm6 0h14v1h-14zm14 0h1v1h-1z" fill="silver"/><path d="M278 49h1v30h-1zm0 30h1v1h-1zm11 6h1v1h-1zm-1 7h1v1h-1zm-12 11h1v1h-1zm-62 7h1v1h-1zm10 1h1v1h-1zm1 0h1v1h-1zm7 2h1v1h-1zm6 1h1v16h-1zm13 0h1v3h-1zm0 3h1v1h-1zm37 2h1v1h-1zm-33 2h1v1h-1zm-44 1h1v1h-1zm7 2h1v1h-1zm46 2h1v1h-1zm-26 4h1v1h-1zm-18 2h1v1h-1z" fill="#a9a9a9"/><path d="M8 49h1v54H8zm0 54h1v1H8zm305 10h1v1h-1z" fill="#f593a6"/><path d="M289 49h1v1h-1zm-26 45h1v1h-1zm9 0h1v1h-1zm-40 15h1v1h-1zm-2 3h2v1h-2zm2 0h1v1h-1zm24 5h1v1h-1zm-31 1h1v1h-1zm7 0h1v1h-1zm-21 1h1v1h-1zm48 9h1v1h-1zm-38 4h1v1h-1z" fill="#737373"/><path d="M287 94h1v1h-1zm-39 1h1v1h-1zm-31 13h1v1h-1zm5 3h1v1h-1zm42 2h1v1h-1zm-40 7h1v1h-1zm61 2h1v1h-1zm-55 9h1v1h-1z" fill="#4e4e4e"/><path d="M278 85h1v1h-1zm-32 4h1v1h-1zm29 14h1v1h-1zm-55 9h1v1h-1zm47 2h1v1h-1zm-7 6h1v1h-1zm26 1h1v1h-1zm-61 1h1v1h-1zm1 0h1v1h-1zm28 0h1v1h-1zm-42 3h1v1h-1zm46 0h1v1h-1zm-45 2h1v1h-1zm13 5h1v1h-1zm31 0h1v1h-1zm3 0h1v1h-1z" fill="#6a6a6a"/><path d="M256 49h1v1h-1zm19 68h1v1h-1zm8 0h1v1h-1zm-1 2h1v1h-1zm-27 12h1v1h-1z" fill="#383838"/><path d="M9 48h1v1H9zm54 0h1v1h-1zm-26 83h1v1h-1z" fill="#ed0040"/><path d="M64 49h1v26h-1zm0 26h1v1h-1z" fill="#f8b9c4"/><path d="M71 49h1v26h-1zm115 0h1v52h-1zm-55 25h1v1h-1zm-60 1h1v1h-1zm54 0h1v1h-1zm7 0h1v1h-1zm-69 1h1v1h-1zm1 1h1v1h-1zm122 24h1v1h-1zm-62 1h1v1h-1zM9 103h1v1H9zm82 1h1v1h-1zm205 10h15v1h-15zm15 0h1v1h-1zm-16 1h1v15h-1zm0 15h1v1h-1z" fill="#ef2558"/><path d="M238 58h1v1h-1zm50 35h1v1h-1zm-22 1h1v1h-1zm-18 2h1v1h-1zm35 4h1v1h-1zm-28 2h1v1h-1zm8 2h1v1h-1zm9 0h1v1h-1zm-46 2h1v1h-1zm-5 6h1v1h-1zm25 1h1v1h-1zm28 1h1v3h-1zm-63 1h1v1h-1zm63 2h1v1h-1zm-47 7h1v2h-1zm0 2h1v1h-1zm48 0h1v1h-1zm-53 1h1v1h-1zm41 0h1v1h-1zm27 1h1v1h-1zm-76 1h1v1h-1z" fill="#ececec"/><path d="M104 20h1v1h-1zM10 48h52v1H10zm52 0h1v1h-1zm9 0h31v1H71zm31 0h1v1h-1zm58 0h26v1h-26zm26 0h1v1h-1zm-95 83h1v1h-1zm221 0h1v1h-1z" fill="#ee0049"/><path d="M159 20h1v1h-1zm-55 27h1v1h-1zm-34 1h1v1h-1zM9 49h1v53H9zm117 25h4v1h-4zm4 0h1v1h-1zm-65 3h4v1h-4zm4 0h1v1h-1zM9 102h1v1H9zm177 0h1v1h-1zm-61 1h1v1h-1zm-34 2h1v25h-1zm204 9h1v1h-1zm17 0h1v16h-1zM91 130h1v1h-1zm221 0h1v1h-1z" fill="#ee1d54"/><path d="M256 50h1v29h-1zm0 29h1v1h-1zm2 34h1v1h-1zm24 4h1v1h-1zm-58 4h1v1h-1zm-7 1h1v1h-1zm36 2h1v1h-1zm5 3h1v1h-1zm-42 3h1v1h-1zm43 2h1v1h-1z" fill="#4b4b4b"/><path d="M195 58h15v1h-15zm15 0h1v1h-1zm13 0h14v1h-14zm14 0h1v1h-1zm8 26h1v1h-1zm14 7h1v1h-1zm18 12h1v1h-1zm-55 3h1v1h-1zm-6 2h1v1h-1zm15 5h1v1h-1zm35 0h1v1h-1zm-8 4h1v1h-1zm4 0h1v1h-1zm-17 2h1v1h-1zm-1 3h1v1h-1zm20 3h1v1h-1zm19 0h1v1h-1zm-22 3h1v1h-1zm-23 4h1v1h-1z" fill="#e5e5e5"/><path d="M256 82h1v1h-1zm22 20h1v1h-1zm-50 5h1v1h-1zm20 6h1v1h-1zm20 2h1v1h-1zm15 3h1v1h-1zm-21 5h2v1h-2zm2 0h1v1h-1zm-45 3h1v1h-1z" fill="#343434"/><path fill="#181818" d="M214 128h1v1h-1z"/><g fill="#fff"><path d="M0 0h317v18H0zm317 0h1v158h-1zM0 18h317v1H0zm0 1h103v28H0zm103 0h1v1h-1zm57 0h157v28H160zM0 47h102v1H0zm102 0h1v1h-1zm58 0h157v1H160zM0 48h7v110H0zm7 0h1v110H7zm58 0h4v27h-4zm4 0h1v27h-1zm119 0h6v110h-6zm6 0h1v1h-1zm45 0h6v64h-6zm6 0h1v1h-1zm12 0h20v37h-20zm20 0h1v40h-1zm13 0h27v64h-27zm-96 11h16v99h-16zm16 0h1v99h-1z"/><path d="M223 59h21v46h-21zM65 75h4v1h-4zm4 0h1v1h-1zm58 1h3v82h-3zm3 0h1v82h-1zm127 9h20v1h-20zm-12 1h1v27h-1zm13 0h19v3h-19zm19 2h1v1h-1zm-19 1h18v1h-18zm18 0h1v1h-1zm-17 1h17v1h-17zm17 0h1v1h-1zm13 0h28v22h-28zm-29 1h15v1h-15zm15 0h1v1h-1zm-14 1h13v1h-13zm13 0h1v1h-1zm-28 1h1v19h-1zm17 0h10v1h-10zm10 0h1v1h-1z"/><path d="M288 94h29v18h-29zm-41 1h1v17h-1z"/><path d="M287 96h30v16h-30zm-39 1h1v15h-1zm1 1h1v14h-1z"/><path d="M286 98h31v14h-31zm-36 1h1v13h-1z"/><path d="M285 99h32v13h-32zm-34 1h1v12h-1z"/><path d="M284 100h33v12h-33zm-32 1h1v24h-1z"/><path d="M282 101h35v11h-35zm-29 1h1v20h-1zm1 0h1v11h-1z"/><path d="M280 102h37v10h-37zm-25 1h2v9h-2zm2 0h1v9h-1z"/><path d="M278 103h39v9h-39zM8 104h27v54H8zm27 0h1v54h-1zm58 0h168v1H93zm168 0h1v8h-1z"/><path d="M274 104h43v8h-43z"/><path d="M93 105h224v1H93zm0 1h127v1H93zm127 0h1v1h-1zm8 0h89v1h-89zm-135 1h124v1H93zm124 0h1v1h-1zm14 0h86v1h-86zm-138 1h122v1H93zm122 0h1v1h-1zm18 0h84v4h-84zm-140 1h121v1H93zm121 0h1v1h-1zm-121 1h120v2H93zm120 0h1v1h-1zm-120 2h119v2H93zm119 0h1v1h-1zm10 0h6v5h-6zm6 0h1v5h-1zm5 0h84v1h-84z"/><path d="M220 113h10v4h-10zm10 0h1v4h-1zm3 0h4v4h-4zm4 0h1v45h-1zm8 0h1v1h-1zm9 0h1v1h-1zm13 0h6v1h-6zm6 0h1v45h-1zm18 0h2v45h-2zm2 0h1v45h-1zm21 0h3v45h-3zm-221 1h118v44H93zm118 0h1v1h-1z"/><path d="M219 114h18v3h-18zm25 0h1v1h-1zm24 0h5v1h-5zm1 1h4v1h-4z"/><path d="M218 116h19v1h-19zm52 0h3v1h-3zm-52 1h19v1h-19zm52 0h3v1h-3zm-52 1h5v4h-5zm5 0h1v9h-1zm11 0h3v40h-3zm13 0h2v40h-2zm2 0h1v40h-1zm7 0h7v1h-7zm7 0h1v1h-1zm8 0h11v1h-11zm11 0h1v1h-1zm8 0h3v9h-3z"/><path d="M246 119h17v1h-17zm17 0h1v1h-1zm8 0h10v1h-10zm10 0h1v1h-1zm8 0h4v8h-4zm-44 1h11v1h-11zm11 0h1v1h-1zm15 0h9v1h-9zm9 0h1v1h-1z"/><path d="M288 120h5v7h-5zm-43 1h9v1h-9zm9 0h1v1h-1zm17 0h8v1h-8zm8 0h1v1h-1z"/><path d="M287 121h6v6h-6zm-69 1h5v1h-5zm27 0h8v3h-8zm8 0h1v1h-1zm18 0h7v1h-7zm7 0h1v1h-1z"/><path d="M286 122h7v5h-7zm-67 1h7v1h-7zm7 0h1v4h-1zm45 0h6v1h-6zm6 0h1v1h-1z"/><path d="M285 123h8v4h-8zm-74 1h1v34h-1zm8 0h7v1h-7zm41 0h4v2h-4zm4 0h1v1h-1zm7 0h5v1h-5zm5 0h1v1h-1zm-56 1h6v1h-6zm25 0h7v33h-7zm7 0h1v1h-1z"/><path d="M259 125h4v2h-4zm12 0h4v1h-4zm4 0h1v1h-1zm9 0h9v2h-9zm-63 1h5v1h-5zm42 0h1v1h-1zm8 0h3v32h-3zm3 0h1v1h-1z"/><path d="M283 126h10v1h-10zm-71 1h1v31h-1zm11 0h3v1h-3zm3 0h1v1h-1zm33 0h3v1h-3zm3 0h1v1h-1zm20 0h11v1h-11zm-30 1h1v30h-1zm-39 1h1v29h-1zm1 1h1v28h-1zm39 0h1v28h-1zm-38 1h1v27h-1zm1 0h1v27h-1zm16 0h5v27h-5zm32 0h1v27h-1zm-47 1h1v26h-1zm1 0h1v26h-1z"/><path d="M230 132h7v26h-7zm14 0h11v26h-11zm11 0h1v26h-1zm7 0h2v26h-2z"/><path d="M36 133h281v25H36zM0 158h317v1H0zm317 0h1v1h-1z"/></g><path d="M105 20h53v1h-53zm53 0h1v1h-1zm-54 1h1v25h-1zm0 25h1v1h-1zm-41 3h1v26h-1zm0 26h1v1h-1zm69 28h1v1h-1zm-95 1h1v26h-1zm0 26h1v1h-1zm1 1h52v1H38zm52 0h1v1h-1zm206 0h15v1h-15zm15 0h1v1h-1z" fill="#ee0d4e"/><path d="M195 49h42v8h-42zm42 0h1v8h-1zm9 0h9v37h-9zm9 0h1v52h-1zm24 0h9v44h-9zm9 0h1v40h-1zm-93 8h42v1h-42zm42 0h1v1h-1zm-26 1h10v44h-10zm10 0h1v44h-1zm35 26h1v17h-1z"/><path d="M246 86h10v1h-10zm1 1h9v5h-9zm31 1h10v5h-10zm10 1h1v1h-1zm-31 1h1v12h-1zm1 1h1v11h-1z"/><path d="M277 91h10v4h-10zm-30 1h12v1h-12zm12 0h1v10h-1z"/><path d="M276 92h11v3h-11zm-28 1h12v1h-12zm12 0h1v9h-1z"/><path d="M275 93h12v2h-12zm12 0h1v1h-1zm-39 1h14v1h-14zm14 0h1v9h-1z"/><path d="M273 94h13v3h-13z"/><path d="M249 95h37v1h-37zm37 0h1v1h-1zm-37 1h36v1h-36zm1 1h35v1h-35zm35 0h1v1h-1zm-34 1h33v1h-33zm33 0h1v1h-1zm-32 1h31v1h-31zm31 0h1v1h-1zm-30 1h28v1h-28zm28 0h1v1h-1zm-26 1h25v1h-25zm25 0h1v1h-1zm-69 1h10v1h-10zm10 0h1v1h-1zm36 0h20v1h-20zm20 0h1v1h-1zm-15 1h11v1h-11zm11 0h1v1h-1zm-52 4h6v3h-6zm6 0h1v3h-1z"/><path d="M218 108h12v2h-12zm12 0h1v3h-1z"/><path d="M216 109h15v1h-15zm15 0h1v3h-1zm-16 1h16v1h-16zm-1 1h7v1h-7zm7 0h1v1h-1zm8 0h2v1h-2zm-15 1h5v1h-5zm5 0h1v1h-1zm-6 1h5v2h-5zm5 0h1v1h-1zm31 0h1v4h-1zm1 0h1v4h-1zm11 0h1v3h-1zm1 0h1v3h-1zm-23 1h4v17h-4zm4 0h1v17h-1z"/><path d="M246 114h4v2h-4zm9 0h11v2h-11zm11 0h1v17h-1zm9 0h14v2h-14zm14 0h1v3h-1zm-77 1h5v9h-5zm5 0h1v1h-1z"/><path d="M245 115h5v1h-5zm22 0h1v16h-1zm-22 1h5v1h-5z"/><path d="M255 116h13v1h-13zm13 0h1v15h-1zm7 0h14v1h-14zm-31 1h3v1h-3zm3 0h3v1h-3zm3 0h1v1h-1zm5 0h1v1h-1z"/><path d="M264 117h5v1h-5zm5 0h1v14h-1zm15 0h5v1h-5zm5 0h1v1h-1zm-45 1h1v1h-1zm1 0h1v1h-1zm20 0h4v13h-4zm19 0h4v1h-4zm4 0h1v1h-1zm-63 1h7v2h-7zm7 0h1v11h-1zm12 0h1v1h-1zm39 0h4v1h-4zm4 0h1v1h-1zm-5 1h4v1h-4zm4 0h1v1h-1zm-61 1h7v1h-7z"/><path d="M256 121h13v1h-13zm25 0h4v1h-4zm4 0h1v1h-1zm-57 1h4v8h-4zm27 0h14v1h-14zm25 0h4v2h-4zm4 0h1v1h-1zm-67 1h1v7h-1zm37 0h6v1h-6zm6 0h1v1h-1z"/><path d="M279 123h4v2h-4zm-67 1h5v1h-5zm42 0h4v5h-4zm4 0h1v1h-1z"/><path d="M278 124h5v1h-5zm5 0h1v1h-1zm-70 1h5v1h-5zm5 0h1v5h-1zm35 0h4v2h-4zm24 0h5v1h-5zm5 0h1v1h-1zm-69 1h5v1h-5zm63 0h5v5h-5zm5 0h1v5h-1z"/><path d="M214 127h6v1h-6zm6 0h1v4h-1zm33 0h4v1h-4zm11 0h5v1h-5z"/><path d="M215 128h8v1h-8zm8 0h9v2h-9zm35 0h1v3h-1zm5 0h6v1h-6zm12 0h14v3h-14zm14 0h1v3h-1z"/><path d="M216 129h16v1h-16zm38 0h9v1h-9zm9 0h6v1h-6zm-46 1h15v1h-15zm15 0h1v1h-1zm23 0h8v1h-8zm8 0h6v1h-6zm-44 1h10v1h-10zm10 0h1v1h-1zm10 0h4v1h-4zm4 0h1v1h-1zm13 0h6v1h-6zm6 0h1v1h-1zm3 0h4v1h-4zm4 0h1v1h-1zm6 0h14v1h-14zm14 0h1v1h-1z"/><g fill="#9f9f9f"><path d="M238 50h1v6h-1zm0 6h1v1h-1zm40 24h1v1h-1zm0 1h1v1h-1zm11 3h1v1h-1zm-32 4h1v1h-1zm-11 2h1v1h-1zm10 23h1v1h-1zm-45 4h1v1h-1zm52 0h1v1h-1zm-5 3h1v1h-1zm12 0h1v1h-1zm-11 4h1v1h-1zm-38 3h1v1h-1zm53 1h1v2h-1zm-21 1h1v1h-1zm21 1h1v1h-1zm-36 1h1v1h-1zm-11 1h1v1h-1z"/></g><g fill="#cfcfcf"><path d="M245 80h1v2h-1zm0 2h1v1h-1zm32 7h1v1h-1zm-30 5h1v1h-1zm40 1h1v1h-1zm-29 8h1v1h-1zm7 1h1v1h-1zm5 0h1v1h-1zm-40 3h1v1h-1zm-17 4h1v1h-1zm16 1h1v1h-1zm9 1h1v1h-1zm17 0h1v1h-1zm-10 1h1v1h-1zm-27 1h1v1h-1zm33 3h1v1h-1zm3 0h1v1h-1zm3 2h1v1h-1zm-46 3h1v1h-1zm66 1h1v1h-1zm5 2h1v1h-1z"/></g><g fill="#868686"><path d="M289 80h1v2h-1zm0 2h1v1h-1zm-11 1h1v1h-1zm-22 19h1v1h-1zm-37 5h1v1h-1zm10 0h1v1h-1zm-10 6h1v1h-1zm28 0h1v1h-1zm7 1h1v1h-1zm-43 4h1v1h-1zm13 4h1v1h-1z"/></g><g fill="#ef2b5b"><path d="M105 21h53v52h-53zm53 0h1v81h-1z"/><path d="M104 48h55v25h-55zm55 0h1v54h-1zM10 49h52v53H10zm52 0h1v81h-1z"/><path d="M72 49h113v24H72zm113 0h1v53h-1zM72 73h113v1H72zm0 1h53v27H72zm53 0h1v1h-1zm7 0h53v1h-53zm1 1h52v27h-52z"/><path d="M71 76h53v26H71zm-8 1h1v53h-1z"/><path d="M70 77h54v25H70z"/><path d="M64 78h60v24H64zm60 23h1v1h-1zm-114 1h113v1H10zm113 0h1v1h-1zm10 0h52v1h-52zm52 0h1v1h-1zm-148 1h55v1H37zm55 0h1v1h-1zm94 0h1v1h-1zm-148 1h52v26H38zm52 0h1v26h-1zm222 9h1v1h-1zm-16 2h15v15h-15zm15 0h1v15h-1zM38 130h52v1H38zm52 0h1v1h-1zm206 0h15v1h-15zm15 0h1v1h-1z"/></g><g fill="#f03361"><path d="M296 113h15v1h-15zm15 0h1v1h-1z"/></g></svg>