<svg xmlns="http://www.w3.org/2000/svg" role="img" xmlns:xlink="http://www.w3.org/1999/xlink" viewBox="8.50 172.00 624.00 308.50"><title>Green Hills Software (member) logo</title><style>svg {enable-background:new 0 0 652 652}</style><style>.st2{fill:#00834d}</style><path fill="#858585" d="M105 458.2c3 1.5 7.1 2.6 11.8 2.6 3.6 0 7.1-.7 7.1-3.9 0-7.4-20.4-2.7-20.4-17.3 0-9.6 10.1-12.2 18.8-12.2 4.1 0 8.2.6 11.1 1.5l-.7 8.2c-3-1.3-6.3-1.8-9.6-1.8-2.9 0-7.7.2-7.7 3.7 0 6.5 20.4 2.1 20.4 16.5 0 10.4-9.4 13.2-18.9 13.2-4 0-9-.6-12.8-1.7l.9-8.8zm68.9-30.8c14.2 0 21.6 7.8 21.6 20.6 0 12.7-7.5 20.6-21.6 20.6-14.1 0-21.6-7.9-21.6-20.6 0-12.8 7.5-20.6 21.6-20.6m0 33.4c7 0 9.8-6.2 9.8-12.8 0-6.9-2.8-12.8-9.8-12.8-7 0-9.8 5.8-9.8 12.8.1 6.6 2.9 12.8 9.8 12.8m39.2-32.7h28.8v7.5h-17.4v8.8h16.6v7.5h-16.6V468h-11.4zm53.4 7.9h-10.6v-7.9h32.7v7.9H278v32h-11.5zm34.8-7.9H313l5.6 30.6h.1l5.8-30.6h14.6l6 30.6h.1l5.7-30.6H362l-9.6 39.9h-14.7l-6.2-30.7h-.1l-5.7 30.7h-14.8zm88.4 0h14.1l16.6 39.9h-12.6l-3.2-8.5h-16.2L385 468h-11.7l16.4-39.9zm7 8.2h-.1l-5.6 15.6h10.8l-5.1-15.6zm39.3-8.2h20.5c7.7 0 13.9 3.2 13.9 10.1 0 5.3-2.7 8.9-8.3 10.1v.1c3.7.9 3.9 3.9 6.1 8.8l4.2 10.9h-12l-2.5-7.2c-2.3-6.9-3.8-8.6-8.1-8.6h-2.4V468H436v-39.9zm11.4 16.6h3c3.7 0 8.4-.1 8.4-4.6 0-3.7-4-4.4-8.4-4.4h-3v9zm41.1-16.6h30.4v7.5H500v8.3h17.8v7.5H500v9h19.6v7.6h-31.1z"/><defs><path id="SVGID_1_" d="M429.5 186.6l-52.1 52.7 49 49.5c5.4 5 3.9 9.4 3.9 9.4h117s5.2 0 0-5.2L442 186.7s-2.5-2.7-6.3-2.7c-3.7-.1-6.2 2.6-6.2 2.6"/></defs><clipPath id="SVGID_2_"><use overflow="visible" xlink:href="#SVGID_1_"/></clipPath><linearGradient id="SVGID_3_" x1="28.157" x2="32.809" y1="709.29" y2="709.29" gradientTransform="scale(-28.4079 28.4079) rotate(-80 -410.453 386.902)" gradientUnits="userSpaceOnUse"><stop offset="0" stop-color="#e8f2ec"/><stop offset=".933" stop-color="#00834d"/><stop offset="1" stop-color="#00834d"/></linearGradient><path fill="url(#SVGID_3_)" d="M382.6 328.2l-24.8-140.8L547.2 154 572 294.8z" clip-path="url(#SVGID_2_)"/><path d="M205.4 391c-8.1 11.6-18.5 14.5-22.9 14.5-18 0-29.1-12.3-29.1-28.3 0-17.5 13.8-32.1 31.1-32.1 10.2 0 21.2 8.9 21.2 21 0 4.3-.5 4.6-3.2 5.1-1.9.4-17.4 1.7-29.7 2.2.3 11.5 9 18.4 16.1 18.4 4.9 0 8.8-1.7 14.1-4.9l2.4 4.1zm-21-24.8c2.2-.1 2.7-.5 2.7-2.7 0-5.6-4-11.8-7.2-11.8-2.8 0-6.8 4.2-6.9 14.8l11.4-.3zm76 24.8c-8.1 11.6-18.5 14.5-22.9 14.5-18 0-29.1-12.3-29.1-28.3 0-17.5 13.8-32.1 31.1-32.1 10.2 0 21.2 8.9 21.2 21 0 4.3-.5 4.6-3.2 5.1-1.9.4-17.4 1.7-29.7 2.2.3 11.5 8.9 18.4 16.1 18.4 4.9 0 8.8-1.7 14.1-4.9l2.4 4.1zm-20.9-24.8c2.2-.1 2.7-.5 2.7-2.7 0-5.6-4-11.8-7.2-11.8-2.8 0-6.8 4.2-6.9 14.8l11.4-.3zm93.2 37.7h-32.8v-5c5.2-.8 5.7-1.3 5.7-8.6v-24.4c0-7.5-2.9-10-7.3-10-3.7 0-5.9 1.7-7.8 3.7v30.7c0 7.3.6 7.8 5 8.6v5h-33.4v-5c7.7-.8 8.3-1.3 8.3-8.6v-27.7c0-7.7-.3-7.8-7.4-8.3V350c8.7-.9 18-2.7 27.5-4.9v7.9l4.9-3.4c4.5-3.2 7.3-4.5 11.8-4.5 12.3 0 18.5 7.3 18.5 17.1v28.1c0 7.3.6 7.8 7 8.6v5zm83.5-47.8v-14.8c0-13.8-1-14.7-9.1-15.5v-5H448v5c-9.1.8-10.1 1.7-10.1 15.5v42.2c0 13.8 1 14.7 9.8 15.5v5H406v-5c9.1-.8 10.1-1.7 10.1-15.5V364h-26.5v19.4c0 13.8 1 14.7 9.3 15.5v5H358v-5c8.8-.8 9.8-1.7 9.8-15.5v-42.2c0-13.8-1-14.7-10.4-15.5v-5h40.9v5c-7.8.8-8.8 1.7-8.8 15.5V356h26.7zm41.6 9.4c0-7.8-.3-7.9-7.4-8.8v-4.3c7.7-1 18-2.8 27.5-4.6v42.5c0 7.3.6 7.9 7.4 8.7v5h-34.9v-5c6.8-.8 7.4-1.4 7.4-8.7v-24.8zm20.8-35c0 6.1-4.9 11.1-11.1 11.1-6 0-11.1-5-11.1-11.1 0-6.3 5.1-11.1 11.1-11.1 6.3 0 11.1 4.8 11.1 11.1" class="st2"/><path d="M492.3 336.5c0-7.5-.2-7.7-7.9-8.2v-4.6c7-.9 17.1-2.7 28-4.5v71c0 7.3.6 7.9 7.4 8.7v5h-34.9v-5c6.8-.8 7.4-1.4 7.4-8.7v-53.7z" class="st2"/><path d="M526.9 336.5c0-7.5-.3-7.7-7.9-8.2v-4.6c7-.9 17.1-2.7 28-4.5v71c0 7.3.6 7.9 7.4 8.7v5h-34.9v-5c6.8-.8 7.4-1.4 7.4-8.7v-53.7zm65.5 27.2c-4.5-9.6-9.7-12.3-13.8-12.3-3.3 0-5.9 2.6-5.9 5.9 0 3.8 4.3 6.4 8.3 7.8 11.1 3.8 19.4 8.8 19.4 20 0 14.3-13.8 20.3-25 20.3-7.8 0-15.2-3.1-17.8-5.6-.8-2.2-2.3-11.9-2.3-16.7l4.7-.8c3.6 8.4 10.6 16.7 16.9 16.7 4.5 0 7-2.9 7-6.5 0-4.5-3.5-7.3-9.2-9.5-6.4-2.4-17.6-7-17.6-18.2 0-11.5 8.9-19.7 22.9-19.8 5.5-.1 11 1.3 14.1 2.8 1.5 3.1 3.3 12.9 3.5 14.7l-5.2 1.2zm-447.3-18.6c-3.6 0-6.3 1.7-8.4 4-2 2.2-3.8 4.9-5.2 7.2h-.3v-11.1c-7.6 1.7-15.4 3.4-25.6 4.5v4.7c6 .8 6.2 1.4 6.2 8.6v27.5c0 7.1-.6 7.8-7.8 8.6v5h37.3v-5c-8.8-.8-9.5-1.4-9.5-8.6v-25.4c.5-2.6 2-3.5 3.6-3.5 1.9 0 3.7 1.3 6.1 3.1.9.6 1.9 1 3.3 1 3.5 0 9.2-3.6 9.2-11.4 0-5.1-3.5-9.2-8.9-9.2m-48.9 44c0 1.6 0 3.2.1 4.6v-17.8c-.1 1.1-.1 2.4-.1 3.9v9.3z" class="st2"/><path d="M97.4 363.6H61.7v5.7c13.4 1 13.9 1.9 13.9 10.5v12.3c0 6-2 7-5.2 7-17.6 0-26.1-18.5-26.1-38.3 0-21.9 11.2-35.3 24.8-35.3 8.3 0 18.9 3.5 22.8 20.3l5.6-.4c-1-12.3-1.7-18.9-2-23.3-4.5-1.2-14.6-3.3-24.4-3.3-27.2 0-50.5 15.1-50.5 44.4 0 26.1 18.2 42.6 48.7 42.6 10.3 0 20.4-2.8 28.2-4.9v-37.3zm503.8-8.7c0-4.8 4.3-8.6 9.7-8.6 5.3 0 9.7 3.9 9.7 8.6 0 4.8-4.3 8.7-9.7 8.7-5.4 0-9.7-3.9-9.7-8.7m17 0c0-4-3.3-7-7.3-7s-7.3 2.9-7.3 7 3.3 7 7.3 7 7.3-2.9 7.3-7m-11.1-4.9h4.1c2.6 0 4 .8 4 2.9 0 1.7-1.1 2.5-2.9 2.6l2.9 4.3h-2.1l-2.8-4.2h-1.2v4.2h-2V350zm2.1 4.2h1.8c1.2 0 2.3-.1 2.3-1.5 0-1.1-1.2-1.3-2.2-1.3h-1.8v2.8z" class="st2"/><g><defs><path id="SVGID_4_" d="M304.2 186.7l-56.6 57.1-48.8 49.3c-5.2 5.2 0 5.2 0 5.2H422s5.2 0 0-5.2l-48.8-49.3-56.5-57.1s-2.5-2.7-6.3-2.7c-3.7-.1-6.2 2.7-6.2 2.7"/></defs><clipPath id="SVGID_5_"><use overflow="visible" xlink:href="#SVGID_4_"/></clipPath><linearGradient id="SVGID_6_" x1="28.758" x2="33.41" y1="713.467" y2="713.467" gradientTransform="scale(-28.4091 28.4091) rotate(-80 -409.833 386.213)" gradientUnits="userSpaceOnUse"><stop offset="0" stop-color="#e8f2ec"/><stop offset=".9" stop-color="#00834d"/><stop offset="1" stop-color="#00834d"/></linearGradient><path fill="url(#SVGID_6_)" d="M200.7 338.2l-26.6-150.8L420.2 144l26.6 150.8z" clip-path="url(#SVGID_5_)"/></g><g><defs><path id="SVGID_7_" d="M178.9 186.7L73.6 293.1c-5.2 5.2 0 5.2 0 5.2h117s-1.5-4.3 3.9-9.4l49-49.5-52.1-52.7s-2.5-2.7-6.3-2.7c-3.7-.1-6.2 2.7-6.2 2.7"/></defs><clipPath id="SVGID_8_"><use overflow="visible" xlink:href="#SVGID_7_"/></clipPath><linearGradient id="SVGID_9_" x1="31.473" x2="36.125" y1="717.041" y2="717.041" gradientTransform="scale(-24.4379 24.4379) rotate(-80 -407.568 387.53)" gradientUnits="userSpaceOnUse"><stop offset="0" stop-color="#e8f2ec"/><stop offset=".9" stop-color="#00834d"/><stop offset="1" stop-color="#00834d"/></linearGradient><path fill="url(#SVGID_9_)" d="M73.7 328.2L48.9 187.4 238.2 154l24.9 140.9z" clip-path="url(#SVGID_8_)"/></g></svg>