<svg xmlns="http://www.w3.org/2000/svg" role="img" xmlns:xlink="http://www.w3.org/1999/xlink" viewBox="1.23 3.35 176.67 51.05"><title>H2Lab (member) logo</title><defs><path d="M4.71875-43.03906h5.88672v17.78515h22.38281v-17.78515H38.875V0h-5.88672v-20.125H10.60547V0H4.71875zm0 0" id="a"/><path d="M1.875 0c.19531-3.61328.9414-6.75781 2.24219-9.4336 1.29687-2.67577 3.83203-5.10546 7.60156-7.29296l5.625-3.2539c2.51953-1.46485 4.28906-2.71485 5.30469-3.75 1.60156-1.6211 2.39843-3.47657 2.39843-5.56641 0-2.44141-.73046-4.37891-2.1953-5.81641-1.46485-1.4336-3.41798-2.15234-5.85938-2.15234-3.61328 0-6.11328 1.36718-7.5 4.10156-.74219 1.46484-1.15235 3.4961-1.23047 6.09375H2.89844c.0586-3.65235.73437-6.63282 2.02344-8.9375 2.28515-4.0625 6.3203-6.09375 12.10156-6.09375 4.80468 0 8.3125 1.30078 10.53125 3.89843 2.21484 2.59766 3.32422 5.48829 3.32422 8.67188 0 3.35938-1.1836 6.23047-3.54297 8.61328-1.36719 1.38672-3.82032 3.0664-7.35547 5.03906l-4.01172 2.22657c-1.91406 1.05468-3.42188 2.05859-4.51563 3.01953C9.5-8.9336 8.27345-7.05078 7.76563-4.98047h22.90626V0zm0 0" id="b"/><path d="M4.57031-43.03906h5.82813V-5.125H32.1953V0h-27.625zm0 0" id="c"/><path d="M7.91016-8.35156c0 1.52343.55859 2.72656 1.66796 3.60547 1.11329.8789 2.4336 1.3164 3.95704 1.3164 1.85547 0 3.65234-.42969 5.39062-1.28906 2.92969-1.42578 4.39453-3.75781 4.39453-7v-4.25c-.64453.41016-1.47656.7539-2.49218 1.02734-1.01563.27344-2.00782.46875-2.98438.58594l-3.19531.41016c-1.91407.2539-3.35157.65625-4.30469 1.20312-1.6211.91797-2.4336 2.38282-2.4336 4.39063zm12.77343-10.66407c1.21094-.15624 2.01954-.66406 2.4336-1.52343.23437-.46875.35156-1.14063.35156-2.01953 0-1.79688-.64063-3.10157-1.92188-3.91016-1.27734-.8125-3.10937-1.21875-5.49218-1.21875-2.7539 0-4.70703.74219-5.85938 2.22656-.64453.82032-1.0625 2.04297-1.25781 3.66407H4.01562c.09766-3.8672 1.35157-6.5586 3.76172-8.07032 2.41407-1.51562 5.21094-2.27343 8.39454-2.27343 3.6914 0 6.6875.70312 8.99218 2.10937 2.28516 1.40625 3.42969 3.59375 3.42969 6.5625v18.07813c0 .54687.11328.98437.33594 1.3203.22656.33204.69922.4961 1.42187.4961.23438 0 .5-.01562.78907-.04297.29296-.03125.60937-.07422.9375-.13281V.14844c-.82032.23437-1.44532.3789-1.875.4375-.4297.0586-1.01563.08593-1.75782.08593-1.8164 0-3.13281-.64062-3.95312-1.92968-.42969-.6836-.73438-1.65235-.90625-2.90235C22.51172-2.7539 20.96875-1.53125 18.95312-.5 16.94141.53516 14.72657 1.05469 12.3047 1.05469c-2.91016 0-5.28907-.88281-7.13282-2.65235-1.84765-1.76562-2.76953-3.98046-2.76953-6.63671 0-2.91016.91016-5.16407 2.72266-6.76563 1.8164-1.60156 4.20313-2.58594 7.14844-2.96094zm0 0" id="d"/><path d="M3.45703-43.1836h5.1289v15.61329c1.15235-1.5039 2.52735-2.64844 4.12891-3.4414 1.60157-.78907 3.33985-1.1836 5.21485-1.1836 3.90625 0 7.07422 1.33984 9.50781 4.02734 2.42969 2.6836 3.64844 6.64453 3.64844 11.8789 0 4.96094-1.20313 9.08204-3.60547 12.36329C25.07812-.64453 21.75.99609 17.49219.99609c-2.38282 0-4.39844-.57422-6.03907-1.73047-.97656-.68359-2.01953-1.77343-3.1328-3.28125V0H3.45702zM17.16797-3.66405c2.85156 0 4.98437-1.13281 6.40234-3.39844 1.41407-2.26563 2.125-5.25 2.125-8.96094 0-3.30078-.71093-6.03906-2.125-8.20312-1.41797-2.16797-3.5-3.2539-6.25781-3.2539-2.40234 0-4.5039.88671-6.3125 2.66796-1.80469 1.77734-2.71094 4.70313-2.71094 8.78906 0 2.94922.375 5.33985 1.11719 7.17578 1.38672 3.45703 3.97266 5.1836 7.76172 5.1836zm0 0" id="e"/></defs><use y="50" xlink:href="#a"/><use x="43.33" y="50" xlink:href="#b"/><use x="76.699" y="50" xlink:href="#c"/><use x="110.068" y="50" xlink:href="#d"/><use x="143.438" y="50" xlink:href="#e"/></svg>