<svg xmlns="http://www.w3.org/2000/svg" role="img" viewBox="-15.87 -15.37 825.24 222.74"><title>H2020 SELENE Project (member) logo</title><defs><clipPath id="a" clipPathUnits="userSpaceOnUse"><path d="M0 0h5952.2v1433.22H0z"/></clipPath></defs><g fill="#231f20" fill-opacity="1" fill-rule="nonzero" stroke="none" clip-path="url(#a)" transform="matrix(1.33333 0 0 -1.33333 0 192) scale(.1)"><path d="M452.988 579.676H321.281c-125.918 0-188.879 54.863-188.879 164.652 0 123.992 92.977 186.024 279.075 186.024 119.285 0 230.16-19.055 332.777-57.25v121.679c-102.617 28.619-213.492 42.969-332.777 42.969C137.105 1037.75 0 939.922 0 744.328 0 558.23 107.09 465.172 321.281 465.172h131.707c129.778 0 194.668-54.852 194.668-164.57 0-128.864-88.035-193.204-264.109-193.204-124.531 0-240.422 19.051-347.8243 57.243V42.9688C143.125 14.3398 259.016 0 383.547 0c264.34 0 396.508 100.219 396.508 300.602 0 186.105-109.02 279.074-327.067 279.074"/><path d="M1222.94 114.5v357.852h511.7v107.324h-511.7V923.18h536.7v107.4h-669.1V7.17188h679.83V114.5h-547.43"/><path d="M2220.43 114.5v916.08h-132.41V7.17188h667.72V114.5h-535.31"/><path d="M3162.82 114.5v357.852h511.71v107.324h-511.71V923.18h536.79v107.4h-669.19V7.17188h679.91V114.5h-547.51"/><path d="M4042.72 1030.58h-14.81V7.17188h125.3V660.848c-57.4 126.765-95.45 253.382-110.49 369.732zm743.79 0V277.602c45.45-30.012 88.12-49.532 125.3-58.481v811.459h-125.3"/><path d="M5404.77 114.5v357.852h511.71v107.324h-511.71V923.18h536.7v107.4h-669.1V7.17188h679.83V114.5h-547.43"/><path d="M4651.86 1279.25c-117.41 81.84-230.35 109.08-309.31 61.92-153.22-91.5-120.49-428.463 73.1-752.627 193.58-324.172 474.74-512.7813 627.95-421.281 78.96 47.16 108.54 159.5 92.17 301.687 43.65-207.679 14.52-377.0584-93.89-441.8084C4861.89-80.3516 4531.64 141.219 4304.23 522c-227.4 380.789-265.84 776.61-85.85 884.11 108.4 64.74 271.34 10.05 433.48-126.86"/></g></svg>