<svg xmlns="http://www.w3.org/2000/svg" role="img" viewBox="36.16 16.16 615.68 139.68"><title>Haiku logo</title><path fill="#010101" d="M88.01 33.02v106.92h13.96V33.02H88.01zm63.01 0v106.92h13.94V33.02h-13.94zm102.5-4.84L203.1 139.94h14.09l36.32-81.58 35.27 81.58h14.08L253.5 28.18zm87.49 4.84v106.92h13.96V33.02h-13.96zm64 0v106.92h13.93v-44.5l4.48-5.36 39.48 49.88h17.52l-47.73-58.93 47-48h-16.98l-43.79 46.3v-46.3H405zm176 0V97.3c0 10.23-2.13 18.19-6.28 23.88-4.13 5.68-10.54 7.88-19.21 7.88-9.08 0-15.39-3.48-19.21-9.71-3.83-6.23-5.33-12.52-5.33-20.91V33.03h-13.91v68.64c0 6.48 1.57 12.99 4.27 19.15 2.69 6.16 6.98 11.09 12.72 15.12 5.71 4.02 12.96 5.94 21.46 6.03 5.61 0 10.77-.83 15.47-2.78 4.7-1.97 8.75-4.8 12.19-8.47 3.41-3.67 6.03-8.03 7.88-13.1 1.82-5.04 2.92-10.58 2.92-16.61V33.04h-12.97z"/><radialGradient id="a" cx="0" cy="0" r="200" gradientTransform="matrix(.8307 -.3373 .1335 .2809 128.418 78.049)" gradientUnits="userSpaceOnUse"><stop offset="0" stop-color="#32962b"/><stop offset="1" stop-color="#a9ff00"/></radialGradient><path fill="url(#a)" d="M83.69 101.52c13.95 13.37 28.42 17.25 42.67 14.8-2.34-1.72-3.45-3.83-4.38-5.56 15.92 9.08 23.87-2.22 28.79-5.86-1.69-1.37-3.75-.3-7.14-4.43 4.34.59 7.17.37 11.19.36 2.51-2.33 6.31-4.16 8.65-6.94 2.88-3.41 6.55-8.08 9.55-11.97-1.92-1.18-2.31-2.22-3.05-3.69 1.77.44 3.54.66 5.32.63 2.37-4.5 6.13-7.33 8.66-8.52-10.54-3.66-24.04-3.16-33.82-1.16-3.25 2.79-3.15 6.41-4.22 12.38-2.04-2.67-2.96-6.02-1.75-10.65-6.88 2.16-13.58 5.08-20.04 8.11-2.5 1.17-8.65 5.56-12.25 6.96-1.7 2.54-3.12 4.98-4.29 7.32-.06-2.15-.41-4.27-.24-6.48-11.82 1.84-18.28 5.01-25.66 11.56-15.79.05-33.5-6.72-33.36-9.16L48 94.94s19.72 7.48 35.76 6.58h-.03z"/><radialGradient id="b" cx="0" cy="0" r="200" gradientTransform="matrix(.6661 -.0701 .0251 .2389 251.932 85.249)" gradientUnits="userSpaceOnUse"><stop offset="0" stop-color="#f43d05"/><stop offset="1" stop-color="#fa0"/></radialGradient><path fill="url(#b)" d="M295.6 113c-8.39-17.4-20.6-26.08-34.8-28.76 1.58 2.43 1.89 4.79 2.16 6.73-11.74-14.06-23.16-6.23-29.03-4.55 1.1 1.87 3.4 1.59 5.15 6.65-3.87-2.08-6.6-2.87-10.35-4.23-3.18 1.29-7.38 1.69-10.54 3.47-3.89 2.19-8.95 5.27-13.12 7.88 1.38 1.77 1.38 2.89 1.55 4.52-1.5-1.04-3.08-1.86-4.75-2.45-3.8 3.37-8.32 4.72-11.11 4.97 8.59 7.1 21.41 11.35 31.27 12.89 4.02-1.46 5.19-4.89 8.27-10.11.97 3.22.66 6.68-2.05 10.59 7.22.37 14.5-.02 21.61-.59 2.77-.22 10.06-2.2 13.9-2.24 2.5-1.78 4.68-3.57 6.58-5.35-.67 2.04-1.1 4.14-2.02 6.15 11.73 2.38 18.88 1.69 28.1-1.87 14.82 5.46 29.05 18.01 28.05 20.25l2.32-5.25s-15.85-13.9-31.2-18.65v-.04z"/><radialGradient id="c" cx="0" cy="0" r="200" gradientTransform="matrix(.1293 -.2356 -.2757 -.3163 567.207 112.181)" gradientUnits="userSpaceOnUse"><stop offset="0" stop-color="#f6a407"/><stop offset="1" stop-color="#ffe56d"/></radialGradient><path fill="url(#c)" d="M563.97 88.69c-3 15.72.8 27.54 8.95 36.36.14-2.41 1.1-4.13 1.89-5.55.85 15.16 12.33 15.6 17.07 17.36.19-1.78-1.48-2.73-.14-6.97 1.53 3.3 2.96 5.17 4.78 7.94 2.76.69 5.75 2.51 8.73 2.88 3.67.46 8.57.9 12.63 1.24-.04-1.86.5-2.61 1.19-3.79.47 1.44 1.12 2.77 1.94 3.99 4.2-.36 7.86.96 9.85 2.18-2.2-8.98-8.63-18.15-14.44-24.05-3.41-1.01-5.89.68-10.51 2.63.92-2.63 2.84-4.77 6.6-6.02-4.61-3.81-9.66-7.14-14.69-10.28-1.95-1.21-7.78-3.5-10.36-5.37-2.54-.04-4.89.06-7.03.3 1.46-1.01 2.78-2.2 4.39-3.08-6.63-7.38-11.72-10.45-19.63-12.63-7.15-10.95-10.42-26.35-8.66-27.35l-4.14 2.35s3.68 17.08 11.55 27.83l.01.02z"/><path fill="#010101" d="M622.72 41.54c0-2.24.82-4.21 2.48-5.91 1.65-1.7 3.82-2.55 6.5-2.55 2.25 0 4.23.8 5.93 2.42 1.7 1.61 2.55 3.63 2.55 6.05 0 2.3-.79 4.34-2.38 6.13-1.59 1.78-3.68 2.68-6.27 2.68h-.32c-2.38-.07-4.3-.84-5.73-2.3-1.43-1.46-2.31-3.07-2.63-4.83-.02-.21-.05-.44-.07-.67-.02-.22-.03-.45-.03-.67v-.16-.18zm15.92-.18v-.1-.15c0-.23-.01-.47-.04-.72-.02-.24-.08-.49-.15-.74-.33-1.29-1.08-2.47-2.25-3.55-1.16-1.07-2.66-1.61-4.49-1.61h-.28c-2.06.07-3.66.66-4.78 1.78-1.12 1.11-1.86 2.33-2.23 3.65-.08.35-.15.69-.19 1.03-.04.33-.06.66-.06.98.05 1.7.53 3.07 1.41 4.12.88 1.04 1.85 1.81 2.91 2.29.49.23.98.4 1.46.51.47.1.91.16 1.3.16 2.02 0 3.65-.58 4.9-1.74 1.24-1.16 2.03-2.45 2.37-3.85.05-.23.1-.47.13-.71.02-.24.04-.48.04-.71v-.29c0-.09 0-.19-.02-.29v-.02zm-10.73-4.33h4.33c1.04.01 1.82.21 2.34.59.52.38.78 1 .78 1.86 0 .85-.19 1.48-.58 1.89-.38.41-1.05.7-2.01.87l2.59 4.31h-1.73l-2.41-4.33h-1.91v4.33h-1.38v-9.54zm4.16 1.23h-2.77v2.59h2.94c.6.01 1.04-.09 1.31-.32s.41-.52.41-.85c0-.35-.14-.67-.43-.95-.29-.28-.78-.42-1.47-.42v-.02z"/></svg>