<svg xmlns="http://www.w3.org/2000/svg" role="img" viewBox="119.74 -23.26 1313.52 456.52"><title>Hamburg University of Technology - Institute of Embedded Systems (member) logo</title><path fill="#2DC6D6" d="M224.449 1.978v58.747h80.45l-.847 225.189h74.924l.847-225.189h75.77V1.978zm419.657 0l-.847 158.358c0 34.481-1.705 45.979-7.242 56.19-6.807 11.062-20.856 18.31-36.609 18.31-19.151 0-34.904-9.798-40.866-25.122-3.832-10.211-4.679-22.984-4.679-59.171l.423-148.565h-74.924l-.423 146.867v11.491c0 54.059 2.128 66.83 15.33 86.841 19.576 29.797 56.185 46.824 100.883 46.824 58.323 0 101.317-24.26 116.213-65.131 5.537-14.477 6.395-26.815 6.817-68.534l.424-158.358h-74.5zm344.28 283.936l1.27-283.936h-74.914l-.423 109.829h-95.368l.436-109.829h-74.924l-1.281 283.936h74.923l.846-112.804h94.935l-.424 112.804zm274.902 0l1.281-283.936h-74.913l-.433 109.829h-95.358l.423-109.829h-74.923l-1.27 283.936h74.924l.846-112.804h94.934l-.424 112.804z"/><path d="M157.451 332.744h6.801l-5.102 24.566h29.837l5.101-24.566h6.886l-11.815 56.699h-6.887l5.526-26.777h-29.752l-5.525 26.777h-6.886l11.816-56.699zm82.536 54.15c-.765.51-1.614 1.02-2.465 1.444-3.146 1.784-4.59 2.296-6.375 2.296-2.465 0-4.166-1.87-4.166-4.762l.085-1.784c-4.165 4.506-7.99 6.546-12.496 6.546-6.035 0-10.626-4.591-10.626-10.456 0-6.206 3.91-10.796 11.392-13.433 3.74-1.358 8.076-2.21 15.046-2.975l1.274-6.121c.086-.595.171-1.188.171-1.699 0-2.381-1.785-3.826-4.762-3.826-3.654 0-7.819 1.7-13.771 5.525l-2.635-3.825c6.971-4.505 12.325-6.46 17.852-6.46 6.121 0 9.436 2.806 9.436 7.905 0 1.19-.255 3.315-.68 5.186l-3.826 18.361c-.595 2.977-.68 3.57-.68 4.591 0 1.53.595 2.295 1.7 2.295.935 0 1.445-.255 3.911-1.614l1.615 2.806zm-10.456-19.127c-7.564 1.189-11.476 2.21-14.45 3.995-3.23 1.955-4.931 4.591-4.931 7.649 0 3.655 2.721 6.376 6.375 6.376 2.806 0 6.205-1.614 8.5-4.079l2.04-2.125 2.466-11.816zm26.094-19.212h6.29l-1.785 7.396c7.564-6.206 12.241-8.586 17.086-8.586 4.25 0 7.311 3.061 7.311 7.142v1.444c5.611-5.61 11.307-8.586 16.492-8.586 4.76 0 7.565 2.976 7.565 8.245 0 1.36-.255 3.485-.596 5.271l-5.949 28.562h-6.546l6.035-29.157c.341-1.614.511-3.061.511-4.165 0-1.955-1.615-3.399-3.911-3.399-3.23 0-7.82 2.635-14.451 8.16l-5.865 28.562h-6.375l6.291-30.348c.17-.766.17-1.189.17-2.295 0-2.465-1.529-3.91-4.08-3.91-2.976 0-7.65 2.635-14.45 7.99l-5.866 28.562h-6.375l8.498-40.888zm73.27-20.062h6.375l-5.609 26.692c4.166-5.271 8.841-7.82 14.28-7.82 7.142 0 12.156 5.95 12.156 14.536 0 9.605-5.354 18.871-13.686 23.887-4.591 2.721-9.267 3.91-15.557 3.91-1.955 0-4.166-.085-10.626-.255l12.667-60.95zm-5.441 56.615l3.399.085c5.865 0 10.371-1.53 14.366-5.016 5.1-4.335 8.246-11.307 8.246-18.106 0-5.694-2.975-9.521-7.48-9.521-4.166 0-7.396 2.04-13.431 8.33l-5.1 24.228zm54.231-36.553l-5.78 27.798c-.425 2.295-.765 4.42-.765 5.355 0 2.039 1.7 3.654 3.911 3.654 4.42 0 8.585-2.551 15.386-9.69l5.61-27.117h6.375l-8.501 40.889h-6.375l2.125-8.586c-6.036 6.716-11.222 9.776-17.001 9.776-4.76 0-8.161-3.146-8.161-7.48 0-1.7.255-3.57.68-5.61l5.95-28.987 6.546-.002zm39.184 0h6.374l-1.956 7.141c3.4-5.524 7.481-8.245 12.156-8.245 1.021 0 1.785.085 3.4.426l-1.7 6.205c-1.53-.426-2.21-.596-3.485-.596-4.166 0-6.375 1.53-11.051 7.735l-5.865 28.223h-6.375l8.502-40.889zm58.65 4.081h-8.076c1.87 1.87 2.805 4.25 2.805 7.564 0 8.16-6.885 14.536-15.726 14.536-1.87 0-2.975-.17-5.186-1.021l-4.421 2.551c-1.104.595-1.699 1.273-1.699 1.955 0 1.02.68 1.359 5.524 2.72l10.456 2.977c6.63 1.954 10.541 5.864 10.541 10.626 0 8.244-8.841 14.535-20.316 14.535-9.861 0-16.831-4.761-16.831-11.391 0-5.101 4.505-9.521 12.836-12.581-4.335-.851-5.781-1.189-7.142-2.041-1.699-.935-2.55-1.955-2.55-3.229 0-1.36 1.445-2.892 3.74-4.166l6.886-3.655c-3.655-2.04-5.439-5.1-5.439-9.605 0-3.909 2.04-8.244 5.1-11.051 2.891-2.635 6.631-3.995 11.051-3.995 2.55 0 4.08.341 7.056 1.53l12.24-.256-.849 3.997zm-26.267 33.917c-7.65 3.74-10.797 6.801-10.797 10.371 0 4.591 4.932 7.99 11.477 7.99 7.311 0 13.261-4.336 13.261-9.69 0-2.295-1.445-4.25-4.08-5.525-.68-.34-.68-.34-5.186-1.7l-4.675-1.446zm-2.125-23.546c0 4.591 2.975 7.735 7.479 7.735 5.271 0 9.521-5.016 9.521-11.307 0-5.015-2.806-8.245-7.141-8.245-5.524 0-9.859 5.272-9.859 11.817zm105.486 6.63c-1.444 7.226-3.229 11.051-6.631 14.621-4.08 4.165-10.031 6.376-17.426 6.376-12.156 0-19.637-6.206-19.637-16.406 0-2.211.255-4.761.85-7.311l7.056-34.174h6.972l-7.312 35.192c-.425 2.125-.68 4.08-.68 6.035 0 7.056 5.354 11.73 13.346 11.73 8.925 0 14.451-5.439 16.746-16.49l7.565-36.469h6.886l-7.735 36.896zm19.379-21.082h6.46l-2.21 7.906c7.142-6.632 11.731-9.097 17.256-9.097 5.355 0 8.672 3.146 8.672 8.16 0 1.445-.256 3.485-.596 5.271l-5.949 28.646h-6.632l6.121-29.412c.17-.936.255-1.7.255-2.806 0-2.805-1.699-4.59-4.42-4.59-3.484 0-8.755 3.06-15.131 8.926l-5.866 27.882h-6.46l8.5-40.886zm46.41 0h6.63l-8.416 40.889H609.9l8.502-40.889zm3.23-16.066h6.971l-1.53 7.227h-6.97l1.529-7.227zm11.898 16.576l6.46-1.53 6.8 33.662 18.702-33.662 5.61 2.38-22.952 39.528h-5.695l-8.925-40.378zm70.631 35.533c-4.761 2.891-5.101 3.061-6.971 3.91-2.72 1.359-5.951 2.126-9.011 2.126-9.521 0-15.642-6.801-15.642-17.428 0-5.779 1.785-11.306 5.186-16.235 4.505-6.29 10.201-9.605 16.662-9.605 8.416 0 12.836 5.355 12.836 15.642 0 1.274-.085 2.976-.255 5.78h-27.542c-.425 2.806-.511 3.91-.511 5.101 0 6.886 4.25 11.562 10.456 11.562 3.74 0 6.121-.936 12.496-4.931l2.296 4.078zm-3.144-20.147c.085-1.359.17-2.975.17-3.569 0-5.78-2.55-9.097-7.056-9.097-3.655 0-7.312 2.125-10.031 5.78-1.36 1.785-2.125 3.315-3.57 6.886h20.487zm21.843-15.896h6.375l-1.956 7.141c3.4-5.524 7.481-8.245 12.156-8.245 1.02 0 1.785.085 3.4.426l-1.7 6.205c-1.53-.426-2.21-.596-3.485-.596-4.166 0-6.375 1.53-11.051 7.735l-5.866 28.223h-6.375l8.502-40.889zm20.654 35.279c3.399 1.444 5.781 1.954 8.756 1.954 5.865 0 9.775-2.806 9.775-6.971 0-2.89-1.529-4.76-5.695-7.141l-2.975-1.615c-4.166-2.295-6.462-5.95-6.462-10.2 0-7.479 6.462-12.496 15.981-12.496 3.485 0 6.546.51 10.456 1.7l-1.785 4.505c-3.061-1.02-5.611-1.445-8.671-1.445-5.696 0-9.438 2.892-9.438 7.396 0 2.466 1.361 4.506 4.081 6.036l4.165 2.38c4.506 2.551 6.887 6.035 6.887 10.116 0 7.649-6.46 12.581-16.406 12.581-3.996 0-6.375-.512-10.711-2.296l2.042-4.504zm42.584-35.279h6.631l-8.416 40.889h-6.716l8.501-40.889zm3.229-16.066h6.972l-1.531 7.227h-6.97l1.529-7.227zm12.748 16.066h8.756l3.315-16.065h6.376l-3.4 16.065h9.69l-.936 4.676h-9.69l-4.506 21.592c-.51 2.721-.851 5.017-.851 6.46 0 2.381 1.7 4.081 4.08 4.081 1.871 0 3.4-.596 7.991-3.061l1.955 3.91c-7.226 3.994-8.415 4.421-11.814 4.421-5.103 0-8.503-3.74-8.503-9.353 0-2.125.172-3.229 1.105-7.649l4.25-20.401h-8.755l.937-4.676zm30.004 59.25c.681-1.19 1.445-2.465 2.125-3.74.766-1.19 1.529-2.465 2.21-3.655l6.802-11.729-8.841-39.528 6.461-1.53 6.715 33.322 18.617-33.322 5.608 2.381-28.985 50.068c-.852 1.445-1.701 2.806-2.552 3.995l-2.38 3.23c-.341.595-.765 1.104-1.104 1.784l-4.676-1.276zm103.447-42.928c0 14.621-9.775 25.758-22.697 25.758-9.944 0-16.064-6.887-16.064-18.191 0-13.687 10.37-25.077 22.781-25.077 9.775-.002 15.98 6.799 15.98 17.51zm-29.158-3.656c-1.87 3.484-2.976 8.076-2.976 11.985 0 7.735 3.74 12.496 9.861 12.496 5.016 0 9.096-2.636 12.154-7.989 2.211-3.826 3.57-8.927 3.57-13.433 0-7.396-3.825-12.07-9.86-12.07-5.352.001-9.602 2.976-12.749 9.011zm46.24-7.991h-8.331l.937-4.676h8.33l1.274-6.29c2.125-10.116 5.865-13.941 13.687-13.941.256 0 1.359 0 2.296.085l1.784.085-.936 4.762c-1.02-.256-1.445-.341-2.38-.341-4.676 0-6.206 1.615-7.48 7.735l-1.699 7.905h9.689l-.935 4.676h-9.691l-7.564 36.213h-6.545l7.564-36.213zm68.083-14.96h-18.276l1.19-5.525h41.993l-1.19 5.525h-16.745l-10.627 51.174h-6.971l10.626-51.174zm49.736 46.328c-4.761 2.891-5.102 3.061-6.972 3.91-2.72 1.359-5.949 2.126-9.011 2.126-9.521 0-15.641-6.801-15.641-17.428 0-5.779 1.785-11.306 5.186-16.235 4.505-6.29 10.2-9.605 16.661-9.605 8.416 0 12.836 5.355 12.836 15.642 0 1.274-.085 2.976-.255 5.78h-27.542c-.426 2.806-.511 3.91-.511 5.101 0 6.886 4.251 11.562 10.456 11.562 3.74 0 6.12-.936 12.496-4.931l2.297 4.078zm-3.146-20.147c.085-1.359.17-2.975.17-3.569 0-5.78-2.551-9.097-7.056-9.097-3.655 0-7.312 2.125-10.031 5.78-1.359 1.785-2.125 3.315-3.569 6.886h20.486zm45.051 20.657c-7.312 4.505-10.627 5.695-15.812 5.695-9.096 0-15.217-6.716-15.217-16.661 0-14.962 12.496-26.777 28.223-26.777 2.465 0 3.825.17 6.716.851l-1.87 4.591c-1.869-.34-2.806-.425-4.251-.425-12.324 0-22.102 9.689-22.102 21.932 0 6.63 4.165 11.306 10.031 11.306 3.909 0 7.226-1.189 11.899-4.336l2.383 3.824zm20.407-56.615h6.461l-5.78 27.713c5.354-5.694 11.392-8.841 17.002-8.841 5.016 0 8.329 3.23 8.329 7.99 0 1.445-.255 3.57-.68 5.61l-5.95 28.478h-6.631l5.44-25.927c.595-2.806.936-5.271.936-6.546 0-2.55-1.785-4.25-4.421-4.25-3.655 0-8.841 3.06-15.131 8.926l-5.78 27.797h-6.461l12.666-60.95zm42.074 20.062h6.46l-2.21 7.906c7.141-6.632 11.73-9.097 17.257-9.097 5.355 0 8.67 3.146 8.67 8.16 0 1.445-.255 3.485-.595 5.271l-5.95 28.646h-6.631l6.121-29.412c.17-.936.255-1.7.255-2.806 0-2.805-1.7-4.59-4.421-4.59-3.485 0-8.756 3.06-15.131 8.926l-5.865 27.882h-6.461l8.501-40.886zm77.521 16.322c0 14.621-9.774 25.758-22.696 25.758-9.945 0-16.065-6.887-16.065-18.191 0-13.687 10.37-25.077 22.781-25.077 9.776-.002 15.98 6.799 15.98 17.51zm-29.156-3.656c-1.87 3.484-2.977 8.076-2.977 11.985 0 7.735 3.74 12.496 9.861 12.496 5.016 0 9.096-2.636 12.155-7.989 2.211-3.826 3.569-8.927 3.569-13.433 0-7.396-3.824-12.07-9.859-12.07-5.354.001-9.604 2.976-12.749 9.011zm36.04 28.222l12.666-60.95h6.546l-12.666 60.95h-6.546zm60.776-24.566c0 14.621-9.774 25.758-22.696 25.758-9.945 0-16.065-6.887-16.065-18.191 0-13.687 10.37-25.077 22.781-25.077 9.775-.002 15.98 6.799 15.98 17.51zm-29.156-3.656c-1.87 3.484-2.977 8.076-2.977 11.985 0 7.735 3.74 12.496 9.861 12.496 5.016 0 9.096-2.636 12.155-7.989 2.211-3.826 3.569-8.927 3.569-13.433 0-7.396-3.824-12.07-9.859-12.07-5.354.001-9.604 2.976-12.749 9.011zm74.888-8.585h-8.076c1.87 1.87 2.806 4.25 2.806 7.564 0 8.16-6.886 14.536-15.727 14.536-1.87 0-2.977-.17-5.187-1.021l-4.42 2.551c-1.104.595-1.7 1.273-1.7 1.955 0 1.02.681 1.359 5.525 2.72l10.455 2.977c6.631 1.954 10.541 5.864 10.541 10.626 0 8.244-8.841 14.535-20.316 14.535-9.859 0-16.831-4.761-16.831-11.391 0-5.101 4.505-9.521 12.837-12.581-4.336-.851-5.78-1.189-7.142-2.041-1.7-.935-2.55-1.955-2.55-3.229 0-1.36 1.443-2.892 3.74-4.166l6.885-3.655c-3.655-2.04-5.44-5.1-5.44-9.605 0-3.909 2.041-8.244 5.102-11.051 2.891-2.635 6.631-3.995 11.051-3.995 2.551 0 4.081.341 7.056 1.53l12.241-.256-.85 3.997zm-26.269 33.917c-7.649 3.74-10.796 6.801-10.796 10.371 0 4.591 4.932 7.99 11.477 7.99 7.311 0 13.262-4.336 13.262-9.69 0-2.295-1.445-4.25-4.081-5.525-.68-.34-.68-.34-5.186-1.7l-4.676-1.446zm-2.125-23.546c0 4.591 2.976 7.735 7.48 7.735 5.271 0 9.521-5.016 9.521-11.307 0-5.015-2.806-8.245-7.142-8.245-5.523 0-9.859 5.272-9.859 11.817zm31.959 44.798c.681-1.19 1.444-2.465 2.125-3.74.766-1.19 1.529-2.465 2.211-3.655l6.8-11.729-8.841-39.528 6.461-1.53 6.716 33.322 18.616-33.322 5.609 2.381-28.986 50.068c-.851 1.445-1.7 2.806-2.551 3.995l-2.381 3.23c-.34.595-.765 1.104-1.104 1.784l-4.675-1.276z" fill="#009"/></svg>