<svg xmlns="http://www.w3.org/2000/svg" role="img" viewBox="-4.49 -4.49 233.74 233.74"><title>Harvey Mudd College (member) logo</title><path d="M170 28h1v1h-1zm-38 7h1v1h-1zm-6 3h1v1h-1zm-17 15h1v1h-1zM29 159h1v1h-1zm122 10h1v1h-1zm0 1h1v1h-1z" fill="#271d00"/><path d="M100 21h1v1h-1zm15 0h1v1h-1zm28 0h1v1h-1zm30 0h1v2h-1zm28 1h1v1h-1zm-28 1h1v1h-1zm-63 2h1v1h-1zm-41 7h1v1h-1zm64 0h1v1h-1zm-65 3h1v1h-1zm-1 7h1v1h-1zm29 1h1v1h-1zm-37 2h1v1h-1zm61 3h1v1h-1zm-22 2h1v1h-1zm1 0h1v1h-1zm-27 1h1v1h-1zm37 3h1v1h-1zm-52 2h1v1h-1zm24 3h1v1h-1zm-17 2h1v1h-1zm-9 5h1v1h-1zm79 0h1v1h-1zm-10 2h1v1h-1zm-99 2h1v1h-1zm108 0h1v1h-1zm-99 88h1v1h-1zm32 0h1v1h-1zm98 0h1v1h-1zm-134 1h1v1h-1zm40 0h1v1h-1zm76 0h1v5h-1zm-91 3h1v1h-1zm-1 2h1v1h-1zm92 0h1v1h-1zm13 4h1v1h-1zm7 0h1v1h-1zm-113 1h1v22h-1zm-13 4h5v1h-5zm5 0h1v1h-1zm143 3h1v1h-1zm-26 4h1v1h-1zM53 191h1v1h-1zm8 3h1v1h-1zm104 1h1v1h-1zm-119 1h1v1h-1zm76 6h1v1h-1zm24 0h1v1h-1zm12 0h1v1h-1zm13 0h1v1h-1z" fill="#7c5a00"/><path d="M104 22h1v1h-1zm65 1h1v3h-1zm-46 1h1v1h-1zm-60 1h1v1h-1zm79 1h1v1h-1zm27 0h1v1h-1zm-74 2h1v1h-1zm-33 2h1v1h-1zm122 2h1v1h-1zM68 33h1v1h-1zm65 2h1v1h-1zm7 1h1v1h-1zm46 2h1v1h-1zm9 0h1v1h-1zm-83 2h1v1h-1zm14 1h1v1h-1zm-7 1h1v1h-1zm-41 2h1v1h-1zm53 1h1v1h-1zm-65 1h1v1h-1zm29 4h1v1h-1zm-37 3h1v1h-1zm43 1h1v1h-1zm34 6h1v1h-1zm-12 1h1v1h-1zm-68 8h1v1h-1zm-26 91h1v1h-1zm127 0h1v1h-1zm14 1h1v1h-1zm-132 4h1v1h-1zm37 0h1v1h-1zm-50 1h1v1h-1zm7 0h1v1h-1zm14 1h1v1h-1zm127 0h1v1h-1zm-6 5h1v1h-1zm30 6h1v3h-1zm0 3h1v1h-1zm-35 4h1v1h-1zm-116 9h1v1h-1zm113 0h1v1h-1zm-84 1h1v1h-1zm-5 6h1v1h-1zm-35 1h1v1h-1zm1 0h1v1h-1zm28 0h1v1h-1zm1 0h1v1h-1zm96 0h1v1h-1zm1 0h1v1h-1z" fill="#c28d00"/><path d="M181 22h1v1h-1zm-34 1h1v45h-1zm53 1h1v1h-1zm-18 1h1v1h-1zm-81 3h1v1h-1zm33 0h1v1h-1zm22 0h1v1h-1zm27 0h1v1h-1zm-71 2h1v1h-1zm12 0h1v1h-1zm17 2h1v1h-1zm-80 4h1v1h-1zm117 0h1v1h-1zm-60 1h1v1h-1zm-58 4h1v1h-1zm79 0h1v1h-1zm55 0h1v1h-1zM59 46h1v1h-1zm20 4h1v1h-1zm51 1h1v1h-1zm-58 1h1v1h-1zm64 3h1v1h-1zm-33 6h1v1h-1zm-40 5h1v1h-1zm19 0h1v1h-1zm23 2h1v1h-1zm42 0h1v1h-1zM26 70h6v1h-6zm6 0h1v1h-1zm11 0h6v1h-6zm6 0h1v1h-1zm7 0h5v1h-5zm5 0h1v1h-1zm15 0h5v1h-5zm5 0h1v1h-1zm7 0h6v1h-6zm6 0h1v1h-1zm12 0h6v1h-6zm6 0h1v1h-1zm14 0h6v1h-6zm6 0h1v1h-1zm16 0h22v1h-22zm22 0h1v1h-1zm14 0h6v1h-6zm6 0h1v1h-1zm-19 92h1v1h-1zm-11 3h1v1h-1zm-92 1h1v1h-1zm91 1h1v1h-1zM34 196h1v1h-1zm32 0h1v1h-1zm-10 3h1v1h-1zm107 3h1v1h-1z" fill="#b08000"/><path d="M7 0h1v1H7zm210 0h1v1h-1zM3 2h1v1H3zm218 0h1v1h-1zM2 3h1v1H2zm220 0h1v1h-1zM0 7h1v1H0zm224 0h1v1h-1zM40 81h1v1h-1zm31 0h1v1h-1zm43 0h1v1h-1zm29 0h1v1h-1zm24 0h1v1h-1zm24 1h1v1h-1zM41 83h1v1h-1zm156 3h1v1h-1zm-41 4h1v1h-1zm2 7h1v1h-1zm-122 3h1v1h-1zm25 3h1v43h-1zm-10 2h1v1h-1zm5 19h1v1h-1zm-14 7h1v1h-1zm116 0h1v1h-1zm-105 8h1v1h-1zm28 0h1v1h-1zm-36 7h1v1h-1zm16 0h1v1h-1zm-34 1h7v1h-7zm7 0h1v1h-1zm13 0h3v1h-3zm3 0h1v1h-1zm13 0h7v1h-7zm7 0h1v1h-1zm54 0h16v1h-16zm16 0h1v1h-1zm28 0h15v1h-15zm15 0h1v1h-1zm-88 1h1v1h-1zm4 0h1v1h-1zM0 217h1v1H0zm224 0h1v1h-1zM2 221h1v1H2zm220 0h1v1h-1zM3 222h1v1H3zm218 0h1v1h-1zM7 224h1v1H7zm210 0h1v1h-1z" fill="#464646"/><path d="M42 21h1v1h-1zm62 0h1v1h-1zm66 1h1v5h-1zm0 5h1v1h-1zm-28 3h1v1h-1zm-17 1h1v1h-1zm73 0h1v1h-1zm-94 2h1v1h-1zm0 5h1v1h-1zm9 2h1v1h-1zm27 0h1v1h-1zm-10 7h1v1h-1zm-72 1h1v1h-1zm63 7h1v1h-1zm-20 1h1v1h-1zm9 0h1v1h-1zm-54 4h1v1h-1zm27 7h1v1h-1zm-20 2h1v1h-1zm-9 1h1v1h-1zm17 89h1v1h-1zm-27 2h1v1h-1zm-18 1h1v1h-1zm127 0h1v1h-1zm-19 4h1v1h-1zm26 0h1v1h-1zm6 5h1v1h-1zm-127 2h1v1h-1zm95 2h1v1h-1zm9 1h1v1h-1zm19 10h1v1h-1zm4 5h1v1h-1zm-32 3h1v1h-1zm67 1h1v1h-1zm-27 7h1v1h-1z" fill="#322400"/><path d="M101 21h1v1h-1zm92 0h1v1h-1zm-87 1h1v1h-1zm-43 1h1v1h-1zm129 0h1v1h-1zm-18 3h1v1h-1zm-34 12h1v1h-1zm-36 1h1v1h-1zm22 0h1v1h-1zm-92 2h7v1h-7zm7 0h1v1h-1zm116 0h7v1h-7zm7 0h1v1h-1zm-37 3h1v1h-1zm-61 4h1v1h-1zm42 3h1v1h-1zm14 7h1v1h-1zM95 70h1v1h-1zm31 90h1v41h-1zm-53 1h1v1h-1zm-41 6h1v1h-1zm21 1h1v1h-1zm23 1h1v1h-1zm83 0h1v22h-1zm0 22h1v1h-1zm7 2h1v1h-1zm-108 8h1v1h-1zm68 0h1v1h-1zm-66 1h1v1h-1zm105 0h1v1h-1z" fill="#6e5000"/><path d="M33 21h1v1h-1zm136 0h1v1h-1zm13 3h1v1h-1zm-67 1h1v1h-1zm84 3h1v1h-1zm-24 1h1v1h-1zm9 1h1v1h-1zM76 31h1v1h-1zm28 1h1v1h-1zm85 1h1v1h-1zm-72 1h1v1h-1zm-40 3h1v1h-1zm55 1h1v1h-1zm33 3h1v1h-1zm-26 2h1v1h-1zm-68 2h1v1h-1zm66 7h1v1h-1zM41 159h1v1h-1zm85 0h1v1h-1zm31 0h1v1h-1zm15 4h1v1h-1zm-20 2h1v1h-1zm-76 5h1v21h-1zm-30 3h1v1h-1zm30 18h1v1h-1zm-23 1h1v1h-1zm106 0h1v1h-1zm29 3h1v1h-1zm-114 3h1v1h-1zm82 3h1v1h-1zm-73 1h16v1H83zm16 0h1v1h-1zm6 0h16v1h-16zm16 0h1v1h-1zm6 0h18v1h-18zm18 0h1v1h-1zm27 0h1v1h-1zm1 0h1v1h-1zm8 0h19v1h-19zm19 0h1v1h-1z" fill="#735300"/><path d="M43 22h1v1h-1zm-17 1h1v45h-1zm6 0h1v17h-1zm41 0h1v1h-1zm31 0h1v1h-1zm1 0h1v1h-1zm11 0h1v1h-1zm20 0h1v1h-1zm12 0h1v45h-1zm20 0h1v3h-1zM64 24h1v1h-1zm52 0h1v1h-1zm6 0h1v1h-1zm71 0h1v1h-1zm6 0h1v1h-1zM64 25h1v1h-1zm58 0h1v1h-1zm53 0h1v1h-1zm6 0h1v1h-1zm11 0h1v3h-1zm-83 1h1v1h-1zm32 0h1v2h-1zm27 0h1v1h-1zm14 0h1v3h-1zm16 0h1v1h-1zM74 27h1v2h-1zm25 0h2v1h-2zm2 0h1v1h-1zm16 0h1v1h-1zm39 0h11v1h-11zm11 0h1v1h-1zm9 0h1v1h-1zm22 0h1v1h-1zM94 28h1v1h-1zm23 0h1v1h-1zm18 0h1v2h-1zm6 0h1v1h-1zm35 0h1v1h-1zm16 0h1v1h-1zM74 29h1v1h-1zm30 0h1v1h-1zm7 0h1v2h-1zm12 0h1v2h-1zm31 0h1v12h-1zm28 0h1v1h-1zm15 0h1v1h-1zM63 30h1v1h-1zm72 0h1v1h-1zm42 0h1v1h-1zm14 0h1v1h-1zm6 0h1v1h-1zM63 31h1v1h-1zm5 0h2v1h-2zm2 0h1v1h-1zm35 0h1v1h-1zm6 0h1v1h-1zm12 0h1v1h-1zm17 0h1v1h-1zm37 0h1v1h-1zm6 0h1v1h-1zm8 0h1v1h-1zM75 32h1v2h-1zm65 0h1v1h-1zm43 0h1v1h-1zM67 33h1v1h-1zm51 0h1v2h-1zm66 0h1v1h-1zM67 34h1v1h-1zm8 0h1v1h-1zm59 0h1v1h-1zm56 0h1v1h-1zM62 35h1v2h-1zm56 0h1v1h-1zm6 0h1v1h-1zm10 0h1v1h-1zm55 0h1v3h-1zM71 36h1v1h-1zm48 0h1v1h-1zm20 0h1v1h-1zm40 0h1v1h-1zM62 37h1v1h-1zm9 0h1v1h-1zm48 0h1v1h-1zm-53 1h1v2h-1zm119 0h1v1h-1zm4 0h1v1h-1zm5 0h1v2h-1zM76 39h1v1h-1zm57 0h1v1h-1zm47 0h1v1h-1zM32 40h1v1h-1zm34 0h1v1h-1zm11 0h1v1h-1zm28 0h1v1h-1zm6 0h1v1h-1zm14 0h1v2h-1zm8 0h1v1h-1zm5 0h1v2h-1zm56 0h1v1h-1zM61 41h1v1h-1zm50 0h1v1h-1zm9 0h1v1h-1zm12 0h1v1h-1zm22 0h1v1h-1zm39 0h1v1h-1zM72 42h1v2h-1zm32 0h1v1h-1zm16 0h1v1h-1zm5 0h1v1h-1zm13 0h1v1h-1zm17 0h1v1h-1zm26 0h1v1h-1zm12 0h1v1h-1zm-99 1h1v1h-1zm9 0h1v1h-1zm62 0h1v3h-1zm16 0h1v1h-1zm11 0h1v1h-1zM72 44h1v1h-1zm5 0h1v1h-1zm23 0h1v1h-1zm1 0h1v1h-1zm81 0h1v1h-1zM65 45h1v2h-1zm12 0h1v1h-1zm32 0h1v1h-1zm17 0h1v3h-1zm6 0h1v1h-1zm5 0h1v1h-1zm45 0h1v1h-1zM60 46h1v2h-1zm48 0h1v1h-1zm24 0h1v1h-1zm5 0h1v1h-1zm28 0h1v1h-1zm26 0h1v1h-1zM34 47h7v1h-7zm7 0h1v1h-1zm24 0h1v1h-1zm56 0h1v1h-1zm35 0h8v1h-8zm8 0h1v1h-1zm19 0h1v1h-1zM60 48h1v1h-1zm12 0h1v1h-1zm6 0h1v3h-1zm28 0h1v1h-1zm20 0h1v1h-1zm-94 1h1v19h-1zm41 0h1v1h-1zm22 0h1v1h-1zm11 0h1v1h-1zm48 0h1v13h-1zm36 0h1v1h-1zM73 50h1v2h-1zm21 0h1v1h-1zm37 0h1v2h-1zm-53 1h1v1h-1zm44 0h1v2h-1zm14 0h1v1h-1zm-77 1h1v1h-1zm14 0h1v1h-1zm34 0h1v1h-1zm20 0h1v1h-1zm4 0h1v1h-1zm-72 1h1v1h-1zm7 0h6v1h-6zm6 0h1v1h-1zm35 0h1v1h-1zm15 0h1v1h-1zm-20 1h1v1h-1zm33 0h1v1h-1zm-56 1h1v1h-1zm29 0h1v1h-1zm20 0h2v1h-2zm2 0h1v1h-1zm5 0h1v1h-1zm-27 1h1v1h-1zm15 0h1v1h-1zm-65 1h1v1h-1zm65 0h1v1h-1zm-20 1h1v1h-1zm6 0h1v1h-1zm25 1h1v2h-1zm-71 1h1v1h-1zm12 0h1v3h-1zm5 0h1v2h-1zm43 0h1v1h-1zm-19 1h1v1h-1zm6 0h1v1h-1zm14 0h1v1h-1zm10 0h1v1h-1zm-77 1h1v2h-1zm23 0h1v1h-1zm24 0h1v1h-1zm6 0h1v1h-1zm44 0h1v1h-1zm-79 1h1v1h-1zm-18 1h1v1h-1zm5 0h1v2h-1zm43 0h1v1h-1zm6 0h1v1h-1zm59 0h1v1h-1zm-89 1h1v2h-1zm24 0h1v1h-1zm6 0h1v1h-1zm14 0h1v2h-1zm8 0h1v1h-1zm-71 1h1v1h-1zm-6 1h1v1h-1zm25 0h1v2h-1zm44 0h1v1h-1zm-99 1h1v1h-1zm6 0h1v1h-1zm24 0h1v1h-1zm50 0h1v1h-1zm6 0h1v1h-1zm36 0h1v1h-1zM27 69h4v1h-4zm4 0h1v1h-1zm13 0h5v1h-5zm5 0h1v1h-1zm8 0h4v1h-4zm4 0h1v1h-1zm16 0h4v1h-4zm4 0h1v1h-1zm8 0h4v1h-4zm4 0h1v1h-1zm14 0h5v1h-5zm5 0h1v1h-1zm15 0h4v1h-4zm4 0h1v1h-1zm18 0h21v1h-21zm21 0h1v1h-1zm14 0h5v1h-5zm5 0h1v1h-1zM84 159h3v1h-3zm3 0h1v1h-1zm19 0h3v1h-3zm3 0h1v1h-1zm19 0h16v1h-16zm16 0h1v1h-1zm38 0h16v1h-16zm16 0h1v1h-1zm-167 1h1v1h-1zm9 0h1v1h-1zm29 0h1v1h-1zm14 0h1v1h-1zm22 0h1v40h-1zm52 0h1v1h-1zm1 0h1v1h-1zm23 0h1v40h-1zm18 0h1v3h-1zm-170 1h1v1h-1zm13 0h1v1h-1zm29 0h1v1h-1zm98 0h1v1h-1zm-141 1h1v1h-1zm15 0h1v1h-1zm29 0h1v1h-1zm-45 1h1v1h-1zm29 0h1v1h-1zm17 0h1v1h-1zm126 0h1v1h-1zm-166 1h1v1h-1zm5 0h1v1h-1zm6 0h1v1h-1zm23 0h1v1h-1zm67 0h1v1h-1zm26 0h1v1h-1zm5 0h1v1h-1zm6 0h1v1h-1zm17 0h1v1h-1zm-156 1h1v1h-1zm42 0h1v1h-1zm92 0h1v1h-1zm21 0h1v11h-1zm-161 1h1v1h-1zm5 0h1v1h-1zm14 0h1v1h-1zm24 0h1v1h-1zm5 0h1v1h-1zm58 0h1v9h-1zm21 0h1v28h-1zm-113 1h1v1h-1zm5 0h1v1h-1zm113 0h1v1h-1zm14 0h1v1h-1zm-113 1h1v24h-1zm114 0h1v1h-1zm-5 3h1v1h-1zm-122 1h1v1h-1zm86 3h1v1h-1zm55 1h1v1h-1zm9 2h1v3h-1zm-32 3h8v1h-8zm8 0h1v1h-1zm24 0h1v1h-1zm-63 1h1v1h-1zm30 0h1v2h-1zm-31 1h1v11h-1zm55 0h1v12h-1zm-24 1h1v1h-1zm5 3h1v3h-1zm0 3h1v1h-1zm-137 2h1v1h-1zm28 0h1v1h-1zm99 1h1v1h-1zm-132 1h1v1h-1zm14 0h1v1h-1zm5 0h1v1h-1zm87 0h1v1h-1zm21 0h1v1h-1zm5 0h1v1h-1zm9 0h1v1h-1zm-141 1h1v1h-1zm19 0h1v1h-1zm29 0h1v1h-1zm36 0h1v1h-1zm77 0h1v1h-1zm-126 1h1v1h-1zm7 0h1v1h-1zm-41 1h1v1h-1zm7 0h3v1h-3zm3 0h1v1h-1zm7 0h1v1h-1zm19 0h3v1h-3zm3 0h1v1h-1zm33 0h1v1h-1zm62 0h3v1h-3zm3 0h1v1h-1zm-120 1h1v1h-1zm12 0h1v1h-1zm-28 1h1v1h-1zm15 0h1v1h-1zm124 0h1v1h-1zm-138 1h1v1h-1zm1 0h1v1h-1zm11 0h1v1h-1zm1 0h1v1h-1zm17 0h1v1h-1zm11 0h1v1h-1zm13 0h1v1h-1zm16 0h1v1h-1zm6 0h1v1h-1zm52 0h1v1h-1zm24 0h1v1h-1zm-149 1h7v1h-7zm7 0h1v1h-1zm22 0h7v1h-7zm7 0h1v1h-1zm54 0h1v1h-1zm38 0h3v1h-3zm3 0h1v1h-1z" fill="#eead00"/><path d="M143 22h1v1h-1zm4 0h1v1h-1zm-12 1h1v1h-1zm57 1h1v1h-1zm-18 1h1v1h-1zm-63 2h1v1h-1zm5 1h1v1h-1zm41 0h11v1h-11zm11 0h1v1h-1zm-13 1h1v11h-1zm-51 2h1v1h-1zm86 0h1v1h-1zM76 34h1v1h-1zm113 0h1v1h-1zm7 1h1v1h-1zM70 36h1v1h-1zm-3 3h1v1h-1zm112 0h1v1h-1zm-75 1h1v1h-1zm51 0h1v1h-1zm-60 3h1v1h-1zm43 3h1v1h-1zm-18 1h1v1h-1zm7 0h1v1h-1zm-20 2h1v1h-1zm48 0h1v13h-1zm-34 2h1v1h-1zm-13 1h1v1h-1zm20 0h1v1h-1zm-48 3h1v1h-1zm1 5h1v1h-1zm74 2h1v1h-1zm-43 3h1v1h-1zm22 0h1v1h-1zm-1 4h1v1h-1zm14 0h1v1h-1zm-97 1h1v1h-1zm12 0h1v1h-1zm20 0h1v1h-1zm31 0h1v1h-1zm54 89h1v1h-1zm-141 4h1v1h-1zm146 1h1v1h-1zm-20 2h1v1h-1zm10 15h1v3h-1zm0 3h1v1h-1zm-1 12h1v1h-1zm-104 4h1v1h-1zm109 1h1v1h-1zm-132 1h1v1h-1zm3 0h1v1h-1zm26 0h1v1h-1zm3 0h1v1h-1zm94 0h1v1h-1z" fill="#b98600"/><path d="M189 82h1v1h-1zM71 83h1v62h-1zm-16 6h1v1h-1zm123 2h1v1h-1zm12 5h1v1h-1zM61 97h1v1h-1zm140 0h1v1h-1zm-149 6h1v1h-1zm-14 5h1v1h-1zm8 2h1v1h-1zm3 8h1v1h-1zm7 3h1v1h-1zm-15 2h1v1h-1zm14 3h1v1h-1zm-13 2h1v1h-1zm148 4h1v1h-1zm-147 1h1v1h-1zm48 0h1v1h-1zm12 0h1v1h-1zm-50 3h1v1h-1zm43 2h2v1h-2zm2 0h1v1h-1zm-46 3h1v1h-1zm-7 2h1v1h-1zm26 2h1v1h-1z" fill="#b6b6b6"/><path d="M56 83h1v1h-1zm-1 4h1v1h-1zm90 6h1v1h-1zm12 0h1v1h-1zm-96 5h1v1h-1zm-17 1h1v1h-1zm1 5h1v1h-1zm6 3h1v1h-1zm8 0h1v1h-1zm-13 1h1v1h-1zm3 8h1v1h-1zm7 6h1v1h-1zm-14 7h1v1h-1zm12 3h1v1h-1zm60 2h1v1h-1zm43 1h1v1h-1zm-13 1h1v1h-1zm-63 2h1v1h-1zm-37 1h1v1h-1zm155 0h1v1h-1zm-115 4h1v1h-1zm26 0h1v1h-1zm-65 1h1v1h-1zm145 2h1v1h-1z" fill="#818181"/><path d="M51 21h1v1h-1zm12 0h1v1h-1zm51 0h1v1h-1zm-6 2h1v1h-1zm-33 2h1v1h-1zm68 1h1v1h-1zm-10 4h1v1h-1zm52 2h1v1h-1zm-44 2h1v1h-1zm45 2h1v1h-1zM57 53h1v1h-1zm65 6h1v1h-1zm-40 3h1v1h-1zm-28 7h1v1h-1zm-30 97h1v1h-1zm14 0h1v1h-1zm9 1h1v1h-1zm14 1h1v1h-1zm90 3h1v20h-1zm15 1h1v1h-1zm-119 1h1v1h-1zm119 15h1v2h-1zm0 2h1v1h-1zm-15 1h1v1h-1zm-104 3h1v1h-1zm6 0h1v1h-1zm-28 3h1v1h-1zm30 2h1v1h-1zm112 2h1v1h-1zm13 1h1v1h-1zm-145 1h1v1h-1zm1 0h1v1h-1zm28 0h1v1h-1zm1 0h1v1h-1zm96 0h1v1h-1zm1 0h1v1h-1z" fill="#281d00"/><path d="M3 1h1v1H3zm218 0h1v1h-1zM1 3h1v1H1zm222 0h1v1h-1zm-80 79h1v1h-1zm43 0h1v1h-1zM40 83h1v1h-1zm107 0h1v1h-1zm44 0h1v1h-1zm-41 1h1v1h-1zm46 2h1v1h-1zm-42 2h1v1h-1zm-13 2h1v1h-1zm37 0h1v1h-1zm6 0h1v1h-1zm1 0h1v1h-1zM55 91h1v1h-1zm-13 2h1v1h-1zm158 0h1v1h-1zM62 96h1v1h-1zm-2 2h1v1h-1zm97 0h1v1h-1zm-104 3h1v1h-1zm-15 4h1v1h-1zm14 0h1v1h-1zm-1 4h1v1h-1zm-5 3h1v1h-1zm11 1h1v1h-1zm-7 2h1v1h-1zm-9 5h1v1h-1zm13 8h1v1h-1zm-10 7h1v1h-1zm156 0h1v1h-1zm-55 1h1v1h-1zm-46 2h1v1h-1zm-47 1h1v1h-1zm145 2h1v1h-1zm-1 1h1v1h-1zm-145 1h1v1h-1zm144 0h1v1h-1zm-169 3h1v1h-1zm20 0h1v1h-1zm16 0h1v1h-1zm34 1h2v1h-2zm2 0h1v1h-1zM1 221h1v1H1zm222 0h1v1h-1zM3 223h1v1H3zm218 0h1v1h-1z" fill="#f0f0f0"/><path d="M135 21h1v1h-1zm-84 1h1v47h-1zm141 0h1v1h-1zm-49 3h1v1h-1zm-28 1h1v1h-1zm76 0h1v1h-1zm-78 6h1v1h-1zm76 0h1v1h-1zM69 34h1v1h-1zm63 2h1v1h-1zm46 2h1v1h-1zm-65 1h1v1h-1zm-71 1h1v1h-1zm85 3h1v1h-1zm12 1h1v1h-1zm-68 2h1v1h-1zm39 0h1v1h-1zm-1 1h1v1h-1zm11 3h1v1h-1zm-20 3h1v1h-1zm-43 1h1v1h-1zm24 4h1v1h-1zm30 2h1v1h-1zm-8 3h1v1h-1zm-48 2h1v1h-1zm28 3h1v1h-1zm51 0h1v1h-1zm-83 1h1v1h-1zm114 89h1v1h-1zm-11 3h1v1h-1zm-79 3h1v1h-1zm71 1h1v1h-1zm-122 2h1v1h-1zm29 0h1v1h-1zm23 0h1v1h-1zm-29 2h1v1h-1zm126 4h1v1h-1zm24 3h1v1h-1zM46 186h1v1h-1zm120 6h1v1h-1zm-76 3h1v1h-1zm10 0h1v1h-1zm12 0h1v1h-1zm23 0h1v1h-1zm54 0h1v1h-1zm-42 1h1v5h-1zm0 5h1v1h-1zm54 1h1v1h-1z" fill="#493500"/><path d="M105 22h1v1h-1zm-80 1h1v46h-1zm50 4h1v1h-1zm67 0h1v1h-1zm57 0h1v1h-1zm-24 1h1v1h-1zm-51 1h1v1h-1zm74 1h1v1h-1zm-22 1h1v1h-1zm8 0h1v1h-1zm-67 2h1v1h-1zm-49 1h1v1h-1zm-7 1h1v1h-1zm9 3h1v1h-1zm48 0h1v1h-1zm14 1h1v1h-1zm-6 1h1v1h-1zm-15 4h1v1h-1zm82 0h1v1h-1zm-66 2h1v1h-1zm-61 1h1v1h-1zm41 1h1v1h-1zm-28 1h1v1h-1zm51 1h1v1h-1zm-72 1h1v1h-1zm42 0h1v1h-1zm37 0h1v1h-1zm-16 1h1v1h-1zm15 4h1v1h-1zm-34 2h1v1h-1zm8 0h1v1h-1zm1 3h1v1h-1zm-55 1h1v1h-1zm48 3h1v1h-1zm-79 4h1v1h-1zm30 1h1v1h-1zm114 90h1v1h-1zm-3 7h1v1h-1zM46 195h1v1h-1zm8 1h1v1h-1zm9 0h1v1h-1zm-19 3h1v1h-1zm125 0h1v1h-1zm-141 1h1v1h-1zm131 2h1v1h-1zm5 0h1v1h-1z" fill="#a17500"/><path d="M87 23h1v46h-1zm94 0h1v1h-1zm-39 2h1v1h-1zm-26 1h1v1h-1zm7 1h1v1h-1zm-12 1h1v1h-1zm44 0h1v1h-1zm36 1h1v1h-1zM75 30h1v1h-1zm29 0h1v1h-1zm30 1h1v1h-1zm-17 1h1v1h-1zm73 0h1v1h-1zm7 0h1v1h-1zM62 33h1v1h-1zm115 0h1v1h-1zM70 35h1v1h-1zm115 0h1v1h-1zm-60 1h1v1h-1zm8 0h1v1h-1zm62 1h1v1h-1zm-16 1h1v1h-1zm-67 1h1v1h-1zm74 0h2v1h-2zm2 0h1v1h-1zM71 40h1v1h-1zm48 0h1v1h-1zm-86 1h1v1h-1zm38 0h1v1h-1zm33 0h1v1h-1zm-38 2h1v1h-1zm45 0h1v1h-1zm15 0h1v1h-1zm12 1h1v1h-1zm-28 1h1v1h-1zm82 0h1v1h-1zM78 47h1v1h-1zm53 1h1v1h-1zm-72 1h1v1h-1zm62 1h1v1h-1zm16 0h1v1h-1zm-36 3h1v1h-1zm21 1h1v1h-1zm-65 4h1v1h-1zm78 0h1v1h-1zm-70 1h8v1h-8zm8 0h1v1h-1zm-10 3h1v1h-1zm18 1h1v1h-1zm23 0h1v1h-1zm7 0h1v1h-1zm44 0h1v1h-1zm-99 2h1v1h-1zm77 3h1v1h-1zm-46 1h1v1h-1zm38 0h1v1h-1zm-43 90h1v1h-1zm-54 2h1v1h-1zm44 0h1v1h-1zm-18 4h1v1h-1zm79 0h1v1h-1zm26 1h1v1h-1zm7 0h1v1h-1zm-141 1h1v1h-1zm35 0h1v1h-1zm15 0h1v1h-1zm-29 1h1v1h-1zm29 0h1v1h-1zm92 1h1v1h-1zm0 1h1v1h-1zm1 2h4v1h-4zm4 0h1v1h-1zm-39 4h1v1h-1zm34 10h1v1h-1zm-121 1h1v1h-1zm121 5h1v1h-1zm-121 1h1v1h-1zm14 0h1v1h-1zm15 0h1v1h-1zm-7 2h1v1h-1zm-6 1h1v1h-1zm5 0h1v1h-1zm-41 1h1v1h-1zm74 0h1v3h-1zm53 0h1v1h-1zm-53 3h1v1h-1zm-69 1h1v1h-1zm9 0h1v1h-1zm29 0h1v1h-1z" fill="#dda000"/><path d="M170 29h1v1h-1zm-38 5h1v1h-1zm-28 3h1v1h-1zm-26 4h1v1h-1zm-8 1h1v1h-1zm123 4h1v1h-1zM35 49h5v1h-5zm5 0h1v1h-1zm117 0h9v1h-9zm9 0h1v1h-1zm-43 17h1v1h-1zm11 4h1v1h-1zm-92 1h1v1h-1zm9 0h1v1h-1zm3 0h1v1h-1zm89 21h1v1h-1zm-41 41h1v1h-1zm-77 14h1v1h-1zm78 13h1v41h-1zm63 13h1v1h-1zm-15 20h1v1h-1zm-114 2h1v1h-1zm86 0h1v1h-1zm-20 6h1v1h-1zm-70 2h1v1h-1zm29 0h1v1h-1z" fill="#070400"/><path d="M5 0h1v1H5zm214 0h1v1h-1zM0 5h1v1H0zm224 0h1v1h-1zM26 82h1v63h-1zm30 4h1v1h-1zm79 4h5v1h-5zm5 0h1v1h-1zm39 0h4v1h-4zm4 0h1v1h-1zm4 1h1v1h-1zM42 92h1v1h-1zm114 0h1v1h-1zM43 97h1v1h-1zm19 0h1v48h-1zm95 0h1v1h-1zm-97 2h2v1h-2zm-7 1h1v1h-1zm-16 1h1v1h-1zm7 0h1v1h-1zm-6 5h1v1h-1zm7 1h1v1h-1zm13 2h1v1h-1zm-8 5h1v1h-1zm7 0h1v1h-1zm-17 2h1v1h-1zm16 4h1v1h-1zm-15 1h1v1h-1zm14 3h1v1h-1zm-13 3h1v1h-1zm12 2h1v1h-1zm-11 2h1v1h-1zm114 0h1v1h-1zm-104 4h1v1h-1zm-9 1h1v1h-1zm58 0h1v1h-1zm54 0h1v1h-1zm-75 1h1v1h-1zm106 0h1v1h-1zm-92 1h1v1h-1zm-13 1h1v1h-1zm-37 3h1v1h-1zm6 2h1v1h-1zm35 0h1v1h-1zm-60 1h1v1h-1zm36 0h1v1h-1zm32 2h1v1h-1zm1 0h1v1h-1zm4 0h1v1h-1zm1 0h1v1h-1zM0 219h1v1H0zm224 0h1v1h-1zM5 224h1v1H5zm214 0h1v1h-1z" fill="#e6e6e6"/><path d="M42 22h1v1h-1zm20 6h1v1h-1zm41 2h1v1h-1zm74 5h1v1h-1zM42 49h1v1h-1zm86 0h1v1h-1zm-48 3h1v1h-1zM42 69h1v1h-1zm72 1h1v1h-1zm54 89h1v1h-1zM32 169h1v1h-1zm15 3h1v1h-1zm141 3h1v1h-1zm-52 1h6v1h-6zm6 0h1v1h-1zm48 0h6v1h-6zm6 0h1v1h-1zm-8 7h1v1h-1zm-156 8h1v1h-1zm156 3h1v1h-1zm-66 1h1v1h-1zm-77 3h1v1h-1z" fill="#513b00"/><path d="M26 81h1v1h-1zm54 0h1v1h-1zm62 0h1v1h-1zm44 0h1v1h-1zm-31 7h1v1h-1zM42 89h1v1h-1zm12 2h1v1h-1zm130 0h1v1h-1zm17 4h1v1h-1zm-43 3h1v1h-1zM50 111h1v1h-1zm-3 1h1v1h-1zm2 3h1v1h-1zm109 15h1v1h-1zm-78 5h1v1h-1zm3 7h1v1h-1zm108 4h1v1h-1zm-95 2h2v1h-2zm2 0h1v1h-1z" fill="#525252"/><path d="M123 81h1v1h-1zm77 9h1v1h-1zm-21 1h1v1h-1zM44 96h1v1h-1zm9 0h1v1h-1zm-2 8h1v1h-1zm8 6h1v1h-1zm-17 22h1v1h-1zm50 2h1v1h-1zm108 4h1v1h-1zm-50 7h1v1h-1z" fill="#212121"/><path d="M188 82h1v1h-1zm-74 1h1v48h-1zm-58 1h1v1h-1zm143 6h1v1h-1zM54 94h1v1h-1zm-18 3h1v1h-1zm-1 6h1v42h-1zm10 2h1v1h-1zm2 10h1v1h-1zm8 10h1v1h-1zm59 6h1v1h-1zm-23 3h1v1h-1zm2 3h1v1h-1zm63 0h1v1h-1zm-104 3h1v1h-1zm142 4h1v1h-1zm-159 1h1v1h-1z" fill="#ccc"/><path d="M64 21h1v1h-1zm23 0h1v1h-1zm12 0h1v1h-1zm10 3h1v1h-1zm25 3h1v1h-1zm-18 2h1v1h-1zm81 4h1v1h-1zm-72 1h1v1h-1zm-7 5h1v1h-1zm-21 4h1v1h-1zm1 0h1v1h-1zm-40 7h1v1h-1zm42 2h1v1h-1zm36 5h1v1h-1zm-62 7h1v1h-1zm1 6h1v1h-1zm-38 88h1v1h-1zm124 0h1v1h-1zm-102 1h1v1h-1zm-2 1h1v1h-1zm54 0h1v34h-1zm-55 1h1v1h-1zm79 4h9v1h-9zm9 0h1v1h-1zm45 0h9v1h-9zm9 0h1v1h-1zm-87 29h1v1h-1zm-22 1h1v1h-1zm-14 1h1v1h-1z" fill="#835f00"/><path d="M4 1h1v1H4zm216 0h1v1h-1zM1 4h1v1H1zm222 0h1v1h-1zm-33 78h1v1h-1zm-41 1h1v1h-1zM41 85h1v1h-1zm103 7h1v1h-1zM43 94h1v1h-1zm158 2h1v1h-1zm0 36h1v1h-1zm-55 1h1v1h-1zm-1 2h1v1h-1zm-92 2h1v1h-1zm101 4h1v1h-1zM1 220h1v1H1zm222 0h1v1h-1zM4 223h1v1H4zm216 0h1v1h-1z" fill="#8e8e8e"/><path d="M27 22h4v1h-4zm4 0h1v1h-1zm13 0h5v1h-5zm5 0h1v1h-1zm16 0h7v1h-7zm7 0h1v1h-1zm17 0h12v1H89zm12 0h1v1h-1zm16 0h4v1h-4zm4 0h1v1h-1zm16 0h4v1h-4zm4 0h1v1h-1zm8 0h18v1h-18zm18 0h1v1h-1zm8 0h4v1h-4zm4 0h1v1h-1zm16 0h4v1h-4zm4 0h1v1h-1zm-77 1h1v1h-1zm20 0h1v1h-1zm32 0h1v1h-1zm19 0h1v1h-1zm-51 1h1v1h-1zm32 0h1v1h-1zm25 1h1v1h-1zm-64 2h1v1h-1zm33 0h1v1h-1zM63 29h1v1h-1zm31 0h1v13h-1zm23 0h1v1h-1zm-47 3h1v1h-1zm35 0h1v1h-1zm7 1h1v1h-1zm22 0h1v1h-1zm6 0h1v1h-1zm56 0h1v1h-1zm-72 1h1v1h-1zm60 0h1v1h-1zM67 35h1v1h-1zm9 1h1v2h-1zm57 1h1v1h-1zm6 0h1v1h-1zm46 0h1v1h-1zM71 38h1v1h-1zm5 0h1v1h-1zm36 0h1v1h-1zm7 0h1v1h-1zm14 0h1v1h-1zm-28 1h1v1h-1zm20 0h1v1h-1zm-64 1h1v1h-1zm5 1h1v1h-1zm-32 1h8v1h-8zm8 0h1v1h-1zm52 0h1v1h-1zm62 0h8v1h-8zm8 0h1v1h-1zm-87 1h1v1h-1zm43 0h1v1h-1zm-10 1h1v1h-1zm22 0h1v1h-1zm60 0h1v1h-1zM60 45h1v1h-1zm12 0h1v1h-1zm35 2h1v1h-1zm30 0h1v1h-1zm28 0h1v1h-1zm26 0h1v1h-1zM65 48h1v1h-1zm56 0h1v1h-1zm62 0h1v1h-1zm-87 1h3v1h-3zm3 0h1v1h-1zm22 0h1v1h-1zm-14 1h1v1h-1zm83 0h1v18h-1zM59 51h1v1h-1zm35 0h1v17h-1zm33 0h1v1h-1zm9 1h1v1h-1zm0 1h1v1h-1zm-57 1h1v1h-1zm23 1h1v1h-1zm-44 1h1v1h-1zm77 0h1v1h-1zm-12 2h1v1h-1zm-43 1h1v1h-1zm-23 2h1v1h-1zm67 1h1v1h-1zm-49 2h1v1h-1zm81 0h13v1h-13zm13 0h1v1h-1zm-36 2h1v1h-1zm-71 1h1v1h-1zm50 0h1v1h-1zm21 0h1v1h-1zm-39 1h1v1h-1zm96 0h1v1h-1zM32 69h1v1h-1zm24 0h1v1h-1zm20 0h1v1h-1zm12 0h1v1h-1zm38 0h1v1h-1zm-92 90h3v1h-3zm3 0h1v1h-1zm26 0h3v1h-3zm3 0h1v1h-1zm17 0h1v1h-1zm22 0h1v1h-1zm56 0h3v1h-3zm3 0h2v1h-2zm2 0h1v1h-1zm-107 1h1v1h-1zm11 0h1v1h-1zm40 0h1v34h-1zm35 0h1v3h-1zm-18 1h1v38h-1zm29 0h1v1h-1zm-1 1h1v1h-1zm15 0h1v1h-1zm-82 1h1v1h-1zm57 0h1v1h-1zm9 0h1v1h-1zm-99 1h1v1h-1zm7 0h1v1h-1zm26 0h1v3h-1zm47 0h9v1h-9zm9 0h1v1h-1zm45 0h9v1h-9zm9 0h1v1h-1zm-172 1h1v1h-1zm146 0h1v1h-1zm0 1h1v1h-1zm-141 1h1v1h-1zm57 0h1v3h-1zm-63 1h1v1h-1zm6 0h1v1h-1zm9 0h1v1h-1zm14 0h1v24h-1zm104 0h1v24h-1zm-70 2h1v3h-1zm-47 2h3v1h-3zm3 0h1v1h-1zm44 1h1v3h-1zm0 3h1v3h-1zm46 1h1v1h-1zm54 0h1v1h-1zm-46 1h1v3h-1zm-54 1h1v3h-1zm54 2h1v1h-1zm-54 1h1v3h-1zm0 3h1v3h-1zm0 3h1v3h-1zm0 3h1v4h-1zm-63 1h1v1h-1zm29 0h1v1h-1zm104 0h1v1h-1zm-118 1h1v1h-1zm-9 1h1v1h-1zm38 0h1v1h-1zm41 0h1v1h-1zm-22 1h1v1h-1zm65 0h1v1h-1zm-98 1h1v1h-1zm19 0h1v1h-1zm0 1h1v1h-1zm126 0h1v3h-1zm-173 1h1v1h-1zm100 1h1v1h-1zm73 1h1v1h-1zm-41 1h1v1h-1zm5 0h1v1h-1z" fill="#f1af00"/><path d="M33 22h1v1h-1zm41 1h1v1h-1zm49 2h1v1h-1zm0 1h1v1h-1zm76 0h1v1h-1zm-83 1h1v1h-1zm59 0h1v1h-1zm16 1h1v1h-1zM75 29h1v1h-1zm28 0h1v1h-1zm80 0h1v1h-1zm15 0h1v1h-1zm-64 1h1v1h-1zm7 0h1v1h-1zm35 0h1v1h-1zM62 31h1v1h-1zm0 1h1v1h-1zm14 3h1v1h-1zm42 1h1v1h-1zm-51 2h1v1h-1zm121 0h1v1h-1zm-69 3h1v1h-1zm36 0h1v1h-1zm-84 1h1v1h-1zm32 0h1v1h-1zm23 0h1v1h-1zm-60 2h1v1h-1zm115 0h1v1h-1zM66 45h1v1h-1zm12 0h1v1h-1zm60 0h1v1h-1zm-60 1h1v1h-1zm31 0h1v1h-1zm22 0h1v1h-1zm61 0h1v1h-1zm-61 1h1v1h-1zm51 0h1v1h-1zM34 48h8v1h-8zm8 0h1v1h-1zm17 0h1v1h-1zm68 0h1v1h-1zm30 0h8v1h-8zm8 0h1v1h-1zm-93 1h1v1h-1zm119 0h1v1h-1zm-91 1h1v1h-1zm-21 1h1v1h-1zm29 2h1v1h-1zm28 1h1v1h-1zm-14 1h1v1h-1zm0 1h1v1h-1zm13 3h1v1h-1zm-61 1h1v1h-1zm29 0h1v1h-1zm-29 1h1v1h-1zm7 1h1v1h-1zm-18 1h1v1h-1zm-7 1h1v1h-1zm7 0h1v1h-1zm41 0h1v1h-1zm9 4h1v1h-1zm-80 1h1v1h-1zm-2 90h1v1h-1zm38 0h1v1h-1zm35 0h1v41h-1zm-46 1h1v1h-1zm24 0h1v41h-1zm-38 2h1v1h-1zm11 1h1v1h-1zm-10 1h1v1h-1zm120 1h1v1h-1zm-90 1h1v1h-1zm58 1h1v7h-1zm-73 1h1v24h-1zm92 0h1v25h-1zm15 3h1v1h-1zm-34 3h1v1h-1zm0 9h1v10h-1zm34 4h1v4h-1zm0 4h1v1h-1zm-107 1h1v1h-1zm73 1h1v2h-1zm19 0h1v1h-1zm-127 1h1v1h-1zm50 0h1v1h-1zm-14 1h1v1h-1zm72 0h1v1h-1zm-33 1h1v1h-1zm-55 1h1v1h-1zm123 2h1v1h-1zm-64 1h1v1h-1zm66 0h1v1h-1zm-88 1h1v1h-1zm18 0h1v1h-1zm57 0h1v1h-1z" fill="#ce9600"/><path d="M157 29h11v1h-11zm11 0h1v1h-1zm21 2h1v1h-1zm8 4h1v1h-1zM68 39h1v1h-1zm60 8h1v1h-1zm1 5h1v1h-1zM61 158h1v1h-1zm112 6h1v1h-1zm-9 1h1v1h-1zm-88 1h1v1h-1zm-37 20h1v1h-1zm112 6h1v1h-1zm-28 4h1v5h-1zm-67 4h1v1h-1zm67 1h1v1h-1zm-42 1h1v1h-1zm20 0h1v1h-1zm-67 1h1v1h-1zm32 0h1v1h-1zm94 0h1v1h-1z" fill="#1e1600"/><path d="M71 82h1v1h-1zm74 0h1v1h-1zm22 0h1v63h-1zm27 2h1v1h-1zM41 86h1v1h-1zm157 2h1v1h-1zm-55 3h1v1h-1zm13 0h1v1h-1zm1 4h1v1h-1zM35 97h1v1h-1zm25 4h1v1h-1zm-23 1h1v1h-1zm14 6h1v1h-1zm-11 9h1v1h-1zm8 2h1v1h-1zm153 12h1v1h-1zm-87 1h1v1h-1zm-34 1h1v1h-1zm77 0h1v1h-1zm-113 5h1v1h-1zm63 7h1v1h-1zm60 0h1v1h-1zm25 0h1v1h-1zm-121 1h1v1h-1zm34 0h1v1h-1zm84 0h1v1h-1zm-87 1h1v1h-1z" fill="#bdbdbd"/><path d="M147 82h1v1h-1zM41 84h1v1h-1zm100 7h1v1h-1zm-87 1h1v1h-1zm135 2h1v1h-1zM53 97h1v1h-1zm-17 2h1v1h-1zm11 14h1v1h-1zm11 0h1v1h-1zm-15 22h1v1h-1zm49 0h1v1h-1zm50 2h1v1h-1zm58 0h1v1h-1zm-115 7h1v1h-1zm3 2h1v1h-1z" fill="#696969"/><path d="M8 0h1v1H8zm208 0h1v1h-1zM5 1h1v1H5zm214 0h1v1h-1zM1 5h1v1H1zm222 0h1v1h-1zM0 8h1v1H0zm224 0h1v1h-1zM25 81h1v1h-1zm120 0h1v1h-1zm53 6h1v1h-1zm-63 4h1v1h-1zm-92 1h1v1h-1zm115 3h1v1h-1zM49 114h1v1h-1zm-10 3h1v1h-1zm9 0h1v1h-1zm110 16h1v1h-1zm-17 4h1v1h-1zm-59 4h1v1h-1zm5 5h1v1h-1zm20 0h1v1h-1zm85 0h1v1h-1zm-131 1h1v1h-1zm62 0h1v1h-1zm63 0h1v1h-1zM0 216h1v1H0zm224 0h1v1h-1zM1 219h1v1H1zm222 0h1v1h-1zM5 223h1v1H5zm214 0h1v1h-1zM8 224h1v1H8zm208 0h1v1h-1z" fill="#141414"/><path d="M26 21h6v1h-6zm6 0h1v1h-1zm11 0h7v1h-7zm7 0h1v1h-1zm15 0h8v1h-8zm8 0h1v1h-1zm15 0h10v1H88zm10 0h1v1h-1zm18 0h5v1h-5zm5 0h1v1h-1zm15 0h6v1h-6zm6 0h1v1h-1zm6 0h20v1h-20zm20 0h1v1h-1zm6 0h6v1h-6zm6 0h1v1h-1zm14 0h6v1h-6zm6 0h1v1h-1zm-77 2h1v1h-1zm20 0h1v1h-1zm-47 5h1v1h-1zm28 0h1v1h-1zm-62 1h1v1h-1zm-1 5h1v1h-1zm116 0h1v1h-1zm19 2h1v1h-1zm-18 1h1v1h-1zM70 39h1v1h-1zm-10 1h1v1h-1zm-18 1h1v1h-1zm70 1h1v1h-1zm-13 1h1v1h-1zm32 1h1v1h-1zm7 3h1v1h-1zm-8 2h1v1h-1zm-34 1h1v1h-1zm1 0h1v1h-1zm59 13h1v1h-1zm14 0h1v1h-1zm-88 1h1v1h-1zm-19 3h1v1h-1zm50 0h1v1h-1zm34 3h1v1h-1zm-84 88h1v1h-1zm48 1h1v1h-1zm-66 4h1v1h-1zm1 2h1v1h-1zm16 0h1v1h-1zm83 0h1v1h-1zm54 0h1v1h-1zM25 196h1v1h-1zm176 0h1v5h-1zm-31 5h1v1h-1zm31 0h1v1h-1z" fill="#876200"/><path d="M192 21h1v1h-1zm-79 9h1v1h-1zm64 6h1v1h-1zm-50 6h1v1h-1zm4 0h1v1h-1zm61 6h1v1h-1zM73 60h1v1h-1zm10 6h1v1h-1zm-57 5h7v1h-7zm7 0h1v1h-1zm10 0h7v1h-7zm7 0h1v1h-1zm5 0h6v1h-6zm6 0h1v1h-1zm15 0h6v1h-6zm6 0h1v1h-1zm5 0h7v1h-7zm7 0h1v1h-1zm13 0h7v1h-7zm7 0h1v1h-1zm11 0h7v1h-7zm7 0h1v1h-1zm16 0h22v1h-22zm22 0h1v1h-1zm13 0h7v1h-7zm7 0h1v1h-1zM42 159h1v1h-1zm26 9h1v1h-1zm-7 5h1v1h-1zm0 1h1v3h-1zm0 3h1v3h-1zm0 3h1v3h-1zm0 3h1v3h-1zm0 3h1v3h-1zm0 3h1v2h-1zm0 2h1v1h-1zm40 4h1v1h-1zm46 0h1v1h-1zm14 0h1v1h-1zm-115 2h1v1h-1zm28 2h1v1h-1zm95 1h1v1h-1z" fill="#150f00"/><g fill="#eaaa00"><path d="M27 23h4v45h-4zm4 0h1v45h-1zm13 0h5v45h-5zm5 0h1v45h-1zm16 0h7v7h-7zm7 0h1v18h-1zm16 0h15v3H88zm15 0h1v4h-1zm14 0h4v3h-4zm4 0h1v23h-1zm16 0h4v7h-4zm4 0h1v2h-1zm8 0h18v3h-18zm18 0h1v3h-1zm8 0h5v1h-5zm5 0h1v15h-1zm14 0h5v2h-5zm5 0h1v1h-1zM73 24h1v24h-1zm31 0h2v4h-2zm2 0h2v22h-2zm2 0h1v21h-1z"/><path d="M135 24h6v1h-6zm40 0h5v1h-5zm-39 1h5v5h-5zm5 0h1v1h-1zm35 0h4v1h-4zm17 0h5v3h-5zm5 0h1v1h-1zM63 26h10v1H63zm25 0h20v1H88zm22 0h1v17h-1zm7 0h5v1h-5zm5 0h1v24h-1zm27 0h18v1h-18zm18 0h1v1h-1zm9 0h5v1h-5zm5 0h1v15h-1zM64 27h9v3h-9zm24 0h10v1H88zm10 0h1v1h-1zm4 0h7v1h-7zm7 0h1v17h-1zm9 0h4v5h-4zm31 0h6v1h-6zm6 0h1v1h-1zm22 0h4v2h-4zm-89 1h5v40h-5zm5 0h1v40h-1z"/><path d="M102 28h8v1h-8zm21 0h1v1h-1zm26 0h5v40h-5zm5 0h1v1h-1zm39 0h4v4h-4zm4 0h1v1h-1zm-92 1h5v1h-5zm72 0h4v1h-4z"/><path d="M192 29h4v5h-4zM64 30h10v1H64zm10 0h1v29h-1zm31 0h5v1h-5zm31 0h4v5h-4zm4 0h1v1h-1zm38 0h4v3h-4zm4 0h1v13h-1zM64 31h3v6h-3zm3 0h1v1h-1zm4 0h3v4h-3z"/><path d="M135 31h4v8h-4zm-72 1h5v1h-5zm5 0h1v1h-1zm43 0h1v7h-1zm7 0h5v1h-5zm5 0h1v23h-1z"/><path d="M134 32h5v1h-5zm57 0h5v2h-5zm5 0h1v1h-1zM63 33h3v11h-3zm56 0h4v2h-4zm59 0h5v2h-5zm5 0h1v13h-1z"/><path d="M62 34h4v1h-4zm8 0h4v1h-4zm121 0h4v3h-4zm4 0h1v2h-1zM71 35h4v1h-4zm4 0h1v24h-1zm44 0h4v1h-4zm20 0h1v1h-1zm39 0h6v1h-6zm6 0h1v33h-1z"/><path d="M190 35h4v5h-4zm-70 1h4v4h-4zm4 0h1v24h-1zm10 0h4v8h-4zm61 0h1v1h-1zM66 37h1v1h-1zm1 0h1v1h-1zm112 0h5v1h-5zm15 0h1v1h-1zM61 38h4v1h-4zm119 0h4v1h-4zM62 39h3v19h-3zm9 0h4v1h-4zm40 0h1v1h-1z"/><path d="M119 39h5v1h-5zm19 0h1v1h-1zm47 0h1v29h-1zm4 0h4v3h-4zM76 40h1v28h-1zm44 0h4v1h-4z"/><path d="M186 40h7v2h-7zm7 0h1v1h-1zM32 41h1v7h-1zm11 0h6v8h-6zm29 0h4v1h-4zm33 0h5v3h-5zm28 0h4v9h-4z"/><path d="M181 41h11v1h-11zM33 42h1v5h-1zm28 0h5v2h-5zm5 0h1v1h-1zm45 0h1v1h-1zm43 0h1v6h-1zm32 0h6v3h-6zm6 0h1v1h-1zM34 43h15v3H34zm70 0h6v1h-6zm6 0h1v1h-1zm15 0h1v21h-1zm30 0h9v3h-9zm9 0h1v3h-1z"/><path d="M182 43h9v1h-9zM61 44h4v14h-4zm4 0h1v1h-1zm29 0h5v4h-5zm5 0h1v4h-1zm3 0h7v1h-7zm7 0h1v1h-1zm28 0h1v1h-1zm-37 1h8v1h-8zm8 0h1v1h-1zm78 0h5v3h-5zm5 0h1v1h-1zM34 46h15v1H34zm43 0h1v22h-1zm23 0h7v1h-7zm7 0h1v1h-1zm14 0h4v1h-4zm34 0h9v1h-9zm9 0h1v1h-1z"/><path d="M183 46h7v1h-7zM33 47h1v1h-1zm9 0h7v1h-7zm58 0h6v2h-6zm6 0h1v1h-1zm26 0h4v6h-4zm23 0h1v1h-1zM32 48h1v1h-1zm41 0h4v1h-4z"/><path d="M94 48h11v1H94zm60 0h1v1h-1zm32 0h4v20h-4zm4 0h1v1h-1zM43 49h6v1h-6zm17 0h4v10h-4zm34 0h1v1h-1zm6 0h5v1h-5zm5 0h1v14h-1zm21 0h1v19h-1zm1 0h1v1h-1zm4 0h5v1h-5z"/><path d="M59 50h5v1h-5zm42 0h5v2h-5zm5 0h1v17h-1zm16 0h4v1h-4zm14 0h1v1h-1zm-71 1h1v7h-1zm13 1h1v16h-1zm1 0h1v1h-1zm22 0h5v1h-5zm-28 1h5v5h-5zm29 0h4v1h-4zm25 0h1v15h-1zm4 0h4v5h-4zm4 0h1v1h-1z"/><path d="M59 54h19v4H59zm44 0h5v3h-5zm5 0h1v1h-1zm15 1h4v1h-4zm-44 1h1v12h-1zm49 0h6v8h-6zm-25 1h5v1h-5zm5 0h1v11h-1zm27 0h1v1h-1zm-77 1h21v1H58zm46 0h4v2h-4zm30 0h1v1h-1zm-76 1h5v4h-5zm5 0h1v1h-1zm11 0h5v1h-5zm35 0h1v9h-1z"/><path d="M104 60h5v1h-5zm20 0h9v1h-9zm-17 1h2v7h-2zm-49 2h4v5h-4zm4 0h1v1h-1zm18 0h1v5h-1z"/><path d="M105 63h5v1h-5zm5 0h1v5h-1zm44 0h1v5h-1zm-73 1h1v1h-1zm44 0h8v1h-8zm8 0h1v1h-1zm22 0h1v4h-1zm-98 1h4v3h-4zm71 0h4v3h-4zm4 0h1v3h-1zm24 0h14v3h-14zm14 0h1v3h-1zm-59 1h1v2h-1zm1 0h1v1h-1z"/><path d="M105 67h6v1h-6zm-78 1h4v1h-4zm4 0h1v1h-1zm13 0h5v1h-5zm5 0h1v1h-1zm8 0h4v1h-4zm4 0h1v1h-1zm14 0h6v1h-6zm13 0h5v1h-5zm5 0h1v1h-1zm14 0h4v1h-4zm4 0h1v1h-1zm15 0h6v1h-6zm6 0h1v1h-1zm17 0h21v1h-21zm21 0h1v1h-1zm14 0h5v1h-5zm5 0h1v1h-1zM43 69h1v1h-1zm-11 91h7v3h-7zm7 0h1v4h-1zm21 0h8v3h-8zm8 0h1v5h-1zm16 0h3v40h-3zm3 0h1v40h-1zm19 0h3v40h-3zm3 0h1v40h-1zm19 0h16v3h-16zm16 0h1v3h-1zm15 0h7v3h-7zm7 0h2v4h-2zm2 0h1v10h-1zm14 0h16v3h-16zm16 0h1v3h-1z"/><path d="M30 161h11v2H30zm11 0h1v10h-1zm16 0h13v2H57zm13 0h1v38h-1zm13 0h4v38h-4zm74 0h11v2h-11z"/><path d="M29 162h13v1H29zm13 0h1v9h-1zm14 0h15v1H56zm15 0h1v37h-1zm85 0h13v1h-13zm13 0h1v9h-1z"/><path d="M28 163h15v1H28zm15 0h1v8h-1zm14 0h15v1H57zm15 0h1v36h-1zm56 0h16v1h-16zm16 0h1v1h-1zm11 0h15v1h-15zm15 0h1v8h-1zm12 0h16v1h-16zm16 0h1v1h-1zm-171 1h5v1h-5zm5 0h1v1h-1zm3 0h1v1h-1zm1 0h1v1h-1zm3 0h4v2h-4zm17 0h5v2h-5zm5 0h1v1h-1zm4 0h1v1h-1z"/><path d="M69 164h4v1h-4zm4 0h1v34h-1zm55 0h5v1h-5zm5 0h1v1h-1zm20 0h6v1h-6zm6 0h1v1h-1zm4 0h1v1h-1zm3 0h4v1h-4zm16 0h5v36h-5zm5 0h1v1h-1zm-160 1h4v31h-4zm4 0h1v1h-1zm13 0h1v6h-1zm1 0h1v1h-1zm10 0h5v2h-5zm13 0h5v1h-5zm60 0h4v35h-4zm4 0h1v1h-1zm22 0h5v1h-5zm5 0h1v1h-1zm8 0h4v1h-4zm4 0h1v6h-1zm-132 1h5v1h-5zm21 0h1v1h-1zm94 0h4v30h-4zm4 0h1v1h-1zm9 0h4v2h-4z"/><path d="M26 167h4v26h-4zm29 0h4v28h-4zm4 0h1v1h-1zm15 0h1v27h-1zm-29 1h1v3h-1zm122 0h5v1h-5zm5 0h1v3h-1zm-141 1h1v1h-1zm137 1h4v1h-4zm-127 1h4v1h-4zm4 0h1v1h-1zm124 0h3v1h-3zm3 0h1v1h-1zm-40 5h1v6h-1zm1 1h1v4h-1zm54 0h1v5h-1zm-53 1h7v3h-7zm7 0h1v3h-1zm47 0h7v3h-7zm7 0h1v3h-1zm-62 3h8v1h-8zm8 0h1v1h-1zm47 0h7v1h-7zm7 0h1v1h-1zm-63 1h1v1h-1zm32 0h8v2h-8zm8 0h1v18h-1zm15 0h1v1h-1zm-23 2h8v1h-8zm3 1h5v1h-5zm1 1h4v1h-4zm-128 1h1v1h-1zm129 0h3v11h-3zm-128 1h5v5h-5zm5 0h1v1h-1zm-15 3h1v1h-1z"/><path d="M168 191h4v7h-4zm-142 2h4v1h-4zm15 0h4v3h-4zm4 0h1v1h-1zm14 0h1v6h-1zm1 1h1v6h-1zm14 0h1v1h-1zm-43 1h1v5h-1z"/><path d="M40 195h4v3h-4zm14 0h5v1h-5zm15 0h4v4h-4zm63 0h1v5h-1zm26 0h1v6h-1zm1 0h1v5h-1zm8 0h5v3h-5zm-141 1h6v1h-6zm6 0h1v4h-1z"/><path d="M39 196h5v2h-5zm5 0h1v1h-1zm12 0h4v1h-4zm32 0h1v4h-1zm22 0h1v4h-1zm1 0h1v4h-1zm11 0h1v1h-1zm11 0h1v4h-1zm13 0h1v1h-1zm8 0h5v2h-5zm11 0h7v2h-7zm22 0h1v4h-1zm13 0h1v1h-1zm-172 1h5v1h-5zm5 0h1v3h-1z"/><path d="M38 197h5v2h-5zm17 0h7v1h-7zm7 0h1v3h-1zm5 0h6v2h-6zm22 0h9v3h-9zm9 0h1v3h-1zm14 0h9v3h-9zm9 0h1v3h-1zm13 0h11v3h-11zm11 0h1v3h-1zm15 0h1v3h-1zm28 0h11v3h-11zm11 0h1v3h-1z"/><path d="M28 198h15v1H28zm15 0h1v1h-1zm14 0h16v1H57zm16 0h1v1h-1zm26 0h1v1h-1zm55 0h18v1h-18zm-125 1h13v1H29zm13 0h1v1h-1zm16 0h14v1H58zm14 0h1v1h-1zm11 0h16v1H83zm16 0h1v1h-1zm56 0h11v1h-11zm11 0h1v1h-1zm5 0h1v2h-1zm-140 1h9v1h-9zm9 0h1v1h-1zm20 0h9v1h-9zm9 0h1v1h-1zm15 0h14v1H84zm14 0h1v1h-1zm8 0h15v1h-15zm15 0h1v1h-1zm7 0h17v1h-17zm17 0h1v1h-1zm14 0h6v1h-6zm6 0h2v1h-2zm2 0h1v1h-1zm5 0h1v1h-1zm10 0h17v1h-17zm17 0h1v1h-1zm-72 1h1v1h-1zm19 0h1v1h-1zm12 0h1v1h-1zm13 0h2v1h-2zm2 0h1v1h-1zm8 0h1v1h-1zm19 0h1v1h-1z"/></g><path d="M174 27h1v1h-1zm-58 3h1v1h-1zm60 2h1v1h-1zM69 35h1v1h-1zm48 1h1v1h-1zm-57 1h1v1h-1zm52 6h1v1h-1zm-53 1h1v1h-1zm8 0h1v1h-1zm113 0h1v1h-1zm-43 10h1v1h-1zm-33 12h1v1h-1zm-53 4h1v1h-1zm3 93h1v1h-1zm-17 2h1v1h-1zm97 2h1v7h-1zm0 7h1v1h-1zm0 9h1v10h-1zm30 3h1v1h-1zm1 0h1v1h-1zm-31 7h1v1h-1zm-110 1h1v1h-1zm52 0h1v1h-1zm76 2h1v1h-1zm16 4h1v1h-1zm-42 2h1v1h-1z" fill="#372800"/><path d="M103 81h1v1h-1zm84 0h1v1h-1zM56 82h1v1h-1zm137 1h1v1h-1zM55 86h1v1h-1zm85 5h1v1h-1zm-96 6h1v1h-1zm17 5h1v1h-1zm-16 1h1v1h-1zm1 4h1v1h-1zm13 2h1v1h-1zm-20 7h1v1h-1zm107 16h1v1h-1zm-92 1h1v1h-1zm46 4h1v1h-1zm-56 3h1v1h-1zm67 2h1v1h-1zm-25 3h1v1h-1zm-60 2h1v1h-1zm36 0h1v1h-1zm122 0h1v1h-1z" fill="#3f3f3f"/><path d="M25 21h1v1h-1zm77 0h1v1h-1zm41 3h1v1h-1zm40 3h1v1h-1zm-70 6h1v1h-1zm72 0h1v1h-1zm-72 1h1v1h-1zm-45 2h1v1h-1zm9 0h1v1h-1zm36 1h1v1h-1zm19 0h1v1h-1zm-19 1h1v1h-1zm82 1h1v1h-1zM78 42h1v1h-1zm24 0h1v1h-1zm92 0h1v1h-1zM67 43h1v1h-1zm52 1h1v1h-1zm74 1h1v1h-1zm-73 4h1v1h-1zm17 4h1v1h-1zm-16 1h1v1h-1zm-64 1h1v1h-1zm7 7h1v1h-1zm71 0h1v1h-1zm-53 1h1v1h-1zm-8 2h1v1h-1zm60 2h1v1h-1zm-51 3h1v1h-1zm-45 88h1v1h-1zm24 0h1v1h-1zm-34 2h1v1h-1zm44 0h1v1h-1zm2 2h1v1h-1zm99 3h1v1h-1zm27 0h1v1h-1zm-132 2h1v1h-1zm-44 2h1v22h-1zm15 0h1v3h-1zm0 3h1v1h-1zm0 16h1v4h-1zm-15 3h1v1h-1zm15 1h1v1h-1zm-7 1h1v1h-1zm21 0h1v1h-1zm9 2h1v1h-1zm-22 7h1v1h-1z" fill="#5c4300"/><path d="M147 21h1v1h-1zm54 0h1v1h-1zm-1 4h1v1h-1zM75 26h1v1h-1zm49 1h1v1h-1zm-22 2h1v1h-1zm40 0h1v1h-1zm-81 4h1v1h-1zm64 0h1v1h-1zm16 0h1v1h-1zm-28 2h1v1h-1zm0 1h1v1h-1zm-53 3h1v1h-1zm10 1h1v1h-1zm109 0h1v1h-1zm-23 1h1v1h-1zm24 2h1v1h-1zm1 3h1v1h-1zM79 47h1v1h-1zm51 1h1v1h-1zm-2 2h1v1h-1zm-48 3h1v1h-1zm30 4h1v1h-1zm-8 2h1v1h-1zm-46 2h1v1h-1zm56 2h1v1h-1zm11 0h1v1h-1zm-60 5h1v1h-1zm20 1h1v1h-1zm22 0h1v1h-1zm86 1h1v1h-1zM89 159h1v35h-1zm-64 5h1v1h-1zm14 4h1v1h-1zm37 0h1v1h-1zm58 8h1v1h-1zm40 5h1v20h-1zm-98 11h1v1h-1zm-37 1h1v1h-1zm50 1h1v1h-1zm-22 1h1v1h-1zm67 0h1v1h-1zm-108 3h1v1h-1zm148 3h1v1h-1zm-92 1h1v1h-1zm18 0h1v1h-1zm4 0h1v1h-1z" fill="#684b00"/><path d="M181 21h1v1h-1zM63 22h1v1h-1zm60 0h1v1h-1zm67 7h1v1h-1zm-57 2h1v1h-1zm-64 2h1v1h-1zm48 2h1v1h-1zm71 1h1v1h-1zm-70 4h1v1h-1zm13 3h1v1h-1zm-73 6h1v1h-1zm78 9h1v1h-1zm-23 8h1v1h-1zm-80 92h1v1h-1zm34 0h1v1h-1zm93 0h1v1h-1zm20 1h1v42h-1zm-153 2h1v1h-1zm34 6h1v1h-1zm127 0h1v7h-1zm-164 1h1v1h-1zm8 0h1v1h-1zm134 1h1v1h-1zm22 5h1v1h-1zm0 10h1v9h-1zm-22 2h1v1h-1zm-127 1h1v1h-1zm-15 5h1v1h-1zm8 0h1v1h-1zm44 1h1v1h-1zm112 0h1v1h-1zm-155 2h1v1h-1zm21 2h1v1h-1zm99 1h1v1h-1zm-82 3h1v1h-1zm109 0h1v1h-1zm-149 1h1v1h-1zm38 0h1v1h-1z" fill="#563e00"/><path d="M87 22h1v1h-1zm16 0h1v1h-1zm90 0h1v1h-1zM43 23h1v17h-1zm63 0h1v1h-1zm3 2h1v1h-1zm7 0h1v1h-1zm82 3h1v1h-1zm-57 1h1v1h-1zm35 0h1v1h-1zm7 1h1v1h-1zM75 31h1v1h-1zm37 1h1v1h-1zm12 0h1v1h-1zm72 2h1v1h-1zm-57 5h1v1h-1zm-96 1h1v1h-1zm17 2h1v1h-1zm42 1h1v1h-1zm36 0h1v1h-1zm-12 1h1v1h-1zm-6 2h1v1h-1zm62 0h1v1h-1zM33 48h1v1h-1zm122 0h1v1h-1zM43 50h1v18h-1zm140 0h1v19h-1zm-55 3h2v1h-2zm2 0h1v1h-1zm-72 1h1v1h-1zm22 2h1v1h-1zm22 1h1v1h-1zm-38 2h1v1h-1zm46 0h1v1h-1zm-47 2h1v1h-1zm61 3h1v1h-1zm10 0h1v1h-1zm-78 2h1v1h-1zm-13 2h1v1h-1zm39 0h1v1h-1zm43 0h1v1h-1zm58 1h1v1h-1zM60 159h1v1h-1zm13 3h1v1h-1zm98 1h1v1h-1zm-145 1h1v1h-1zm38 0h1v1h-1zm98 0h1v1h-1zm-101 1h1v1h-1zm-15 4h1v2h-1zm29 0h1v23h-1zm-44 1h1v20h-1zm15 1h1v1h-1zm127 1h1v1h-1zM41 187h4v1h-4zm4 0h1v1h-1zm1 2h1v1h-1zm-15 1h1v1h-1zm15 0h1v2h-1zm0 2h1v1h-1zm29 0h1v1h-1zm-50 1h1v1h-1zm142 0h1v1h-1zm-1 2h1v1h-1zm-133 1h1v1h-1zm5 0h1v1h-1zm7 0h1v1h-1zm44 0h10v1H89zm10 0h1v1h-1zm13 0h9v1h-9zm9 0h1v1h-1zm13 0h11v1h-11zm11 0h1v1h-1zm15 0h1v1h-1zm28 0h11v1h-11zm11 0h1v1h-1zm-29 3h1v1h-1zm-110 2h1v1h-1zm23 0h16v1H83zm16 0h1v1h-1zm6 0h16v1h-16zm16 0h1v1h-1zm7 0h17v1h-17zm17 0h1v1h-1zm20 0h1v1h-1zm17 0h17v1h-17zm17 0h1v1h-1z" fill="#e4a500"/><path d="M182 22h1v1h-1zm-68 1h1v1h-1zm-52 4h1v1h-1zm128 1h1v1h-1zM76 29h1v1h-1zm25 0h1v1h-1zm74 1h1v1h-1zm-71 4h1v1h-1zm9 7h1v1h-1zm27 0h1v1h-1zm-69 6h1v1h-1zm110 0h1v1h-1zM57 52h1v1h-1zm45 9h1v1h-1zm-38 3h1v1h-1zm60 6h1v1h-1zm-99 1h1v1h-1zm50 0h1v1h-1zm8 0h1v1h-1zm12 0h1v1h-1zm11 0h1v1h-1zm27 0h1v1h-1zm14 0h1v1h-1zm44 0h1v1h-1zM68 158h1v1h-1zm91 0h1v1h-1zm-56 1h1v1h-1zm66 0h1v1h-1zM61 170h1v2h-1zm0 2h1v1h-1zm7 20h1v1h-1zm-44 3h1v1h-1zm10 0h1v1h-1zm32 0h1v1h-1zm87 4h1v1h-1zm-126 1h1v1h-1zm17 0h1v1h-1zm79 2h1v1h-1zm-85 1h1v1h-1z" fill="#0f0b00"/><path d="M63 24h1v1h-1zm52 0h1v1h-1zm-15 4h1v1h-1zm69 0h1v1h-1zm21 2h1v1h-1zm-57 3h1v1h-1zm-56 5h1v1h-1zm-10 3h1v1h-1zm72 1h1v1h-1zm-39 1h1v1h-1zm19 0h1v1h-1zm8 2h1v1h-1zm54 0h1v1h-1zm11 2h1v1h-1zM67 52h4v1h-4zm4 0h1v1h-1zm64 9h1v1h-1zm-12 1h1v1h-1zm-11 2h1v1h-1zm-30 1h1v1h-1zm-27 2h1v1h-1zm69 0h1v1h-1zm-29 2h1v1h-1zm-62 1h1v1h-1zm92 0h1v1h-1zm28 93h1v1h-1zm-120 2h1v1h-1zm34 0h1v1h-1zm121 0h1v1h-1zm-127 1h1v1h-1zm82 11h1v1h-1zm20 3h10v1h-10zm10 0h1v1h-1zm-30 2h1v1h-1zm16 11h1v1h-1zm-120 1h1v1h-1zm127 0h1v1h-1zm-55 1h1v1h-1zm-76 1h1v1h-1zm1 0h1v1h-1zm28 0h1v1h-1zm1 0h1v1h-1zm97 0h1v1h-1zm1 0h1v1h-1zm-9 3h1v1h-1zm-111 1h1v1h-1zm29 0h1v1h-1zm-11 2h1v1h-1zm7 0h1v1h-1z" fill="#976e00"/><path d="M188 81h1v1h-1zM41 82h1v1h-1zm95 9h2v1h-2zm2 0h1v1h-1zm42 0h2v1h-2zm2 0h1v1h-1zm-25 1h1v1h-1zm-105 8h1v1h-1zm-16 1h1v1h-1zm24 2h1v1h-1zm-23 3h1v1h-1zm1 4h1v1h-1zm18 15h1v1h-1zm131 11h1v1h-1zm-2 1h1v1h-1zm-132 3h1v1h-1zm-2 7h1v1h-1zm91 0h1v1h-1zm-48 1h1v1h-1zm6 0h1v1h-1z" fill="#2a2a2a"/><path d="M192 83h1v1h-1zm-37 6h1v1h-1zm33 3h1v1h-1zM43 96h1v1h-1zm-8 2h1v4h-1zm0 4h1v1h-1zm17 2h1v1h-1zm6 6h1v1h-1zm-1 6h1v1h-1zm-3 15h1v1h-1zm-11 1h1v1h-1zm100 5h1v1h-1zm56 1h1v1h-1zm-112 7h1v1h-1zm2 1h1v1h-1zm78 0h1v1h-1zm-75 1h1v1h-1z" fill="#c6c6c6"/><path d="M123 21h1v1h-1zm47 0h2v1h-2zm2 0h1v1h-1zm-3 8h1v1h-1zm15 0h1v1h-1zm15 0h1v1h-1zm-74 1h1v1h-1zm-65 6h1v1h-1zm9 0h1v1h-1zm48 1h1v1h-1zM80 50h1v1h-1zm57 5h1v1h-1zm-82 9h1v1h-1zm7 7h1v1h-1zm99 94h1v1h-1zm-10 3h1v1h-1zm-90 1h1v1h-1zm-14 17h1v1h-1zm26 14h1v1h-1zm81 0h1v1h-1zm16 2h1v1h-1zm-7 1h1v1h-1z" fill="#191300"/><path d="M115 22h1v1h-1zm54 0h1v1h-1zM33 23h1v17h-1zm74 0h1v1h-1zm62 4h1v1h-1zm-94 1h1v1h-1zm59 1h1v1h-1zm-22 2h1v1h-1zm12 0h1v1h-1zm17 0h1v1h-1zm-80 6h1v1h-1zm16 2h1v1h-1zm-44 1h1v1h-1zm99 0h1v1h-1zm7 0h1v1h-1zm-68 3h1v1h-1zm122 0h1v1h-1zM59 47h1v1h-1zm49 0h1v1h-1zm48 1h1v1h-1zM33 49h1v19h-1zm97 3h1v1h-1zm-21 4h1v1h-1zm-28 5h1v1h-1zm-7 1h1v1h-1zm37 0h1v1h-1zm-55 1h1v1h-1zm7 2h1v1h-1zm61 0h1v1h-1zm-42 2h1v1h-1zm-49 1h1v1h-1zm42 1h1v1h-1zm-35 90h1v1h-1zm118 0h1v1h-1zm-87 1h1v1h-1zm-28 1h1v1h-1zm112 0h1v1h-1zm-1 1h1v1h-1zm-80 1h1v1h-1zm59 3h1v1h-1zm19 1h1v1h-1zm-19 8h1v1h-1zm64 2h1v1h-1zm0 5h1v1h-1zm-45 12h1v1h-1zm-122 7h1v1h-1zm11 0h1v1h-1zm18 0h1v1h-1zm45 0h1v1h-1z" fill="#cb9300"/><path d="M182 23h1v1h-1zm-48 3h1v1h-1zm66 0h1v1h-1zM77 35h1v1h-1zm119 2h1v1h-1zM68 38h1v1h-1zm2 3h1v1h-1zm9 5h1v1h-1zm49 2h1v1h-1zm10 0h1v1h-1zm-72 1h1v1h-1zm14 2h1v1h-1zm22 9h1v1h-1zm22 9h1v1h-1zm-82 1h1v1h-1zm63 0h1v1h-1zm-47 89h1v1h-1zm23 0h1v42h-1zm-38 1h1v1h-1zm112 0h1v1h-1zm10 6h1v1h-1zm-118 2h1v1h-1zm119 2h1v1h-1zm1 3h5v1h-5zm5 0h1v1h-1zm2 7h1v1h-1zm-11 6h1v1h-1zm-116 7h1v1h-1zm14 0h1v1h-1zm7 0h1v1h-1zm33 3h1v5h-1zm-72 5h1v1h-1zm13 0h1v1h-1zm39 0h1v1h-1zm20 0h1v1h-1z" fill="#3e2d00"/><path d="M144 81h1v1h-1zM25 82h1v63h-1zm170 2h1v1h-1zM54 90h1v1h-1zm85 1h1v1h-1zm19 5h1v1h-1zm-97 5h1v1h-1zm-14 10h1v1h-1zm11 3h1v1h-1zm-18 7h1v1h-1zm118 11h1v1h-1zm31 1h1v1h-1zm-87 1h1v1h-1zm55 2h1v1h-1zm-63 1h1v1h-1zm-69 8h1v1h-1zm83 0h1v1h-1zm40 1h1v1h-1zm-77 1h1v1h-1zm96 0h1v1h-1zm18 0h1v1h-1z" fill="#333"/><path d="M151 84h1v1h-1zm48 5h1v1h-1zm-14 2h1v1h-1zM60 102h1v1h-1zm-22 7h1v1h-1zm1 5h1v1h-1zm18 3h1v1h-1zm-9 1h1v1h-1zm-7 6h1v1h-1zm14 4h1v1h-1zm47 7h1v1h-1zm11 3h1v1h-1zm-61 5h1v1h-1zm99 1h1v1h-1zm42 1h1v1h-1zm-102 2h1v1h-1zm12 0h1v1h-1z" fill="#737373"/><path d="M25 22h1v1h-1zm49 0h1v1h-1zm41 1h1v1h-1zm76 4h1v1h-1zM76 33h1v1h-1zm57 1h1v1h-1zm-8 1h1v1h-1zm-55 2h1v1h-1zm118 0h1v1h-1zM67 40h1v1h-1zm45 1h1v1h-1zm54 1h1v5h-1zm14 0h1v1h-1zm-79 1h1v1h-1zm-30 1h1v1h-1zm95 3h1v1h-1zm-94 3h1v1h-1zm-14 2h1v1h-1zm51 3h1v1h-1zm-52 2h1v1h-1zm65 0h1v1h-1zm-48 6h1v1h-1zm50 3h1v1h-1zm-69 2h1v1h-1zm32 2h1v1h-1zm96 0h1v1h-1zm17 89h1v5h-1zm-158 1h1v1h-1zm158 4h1v1h-1zm-175 1h1v1h-1zm21 1h1v1h-1zm-7 1h1v1h-1zm-14 28h1v1h-1zm12 1h1v1h-1zm127 0h1v1h-1zm-137 3h1v1h-1zm46 0h1v1h-1zm82 1h1v1h-1zm-122 2h1v1h-1zm5 0h1v1h-1zm24 0h1v1h-1zm5 0h1v1h-1z" fill="#a97b00"/><path d="M114 22h1v1h-1zm10 4h1v1h-1zm-11 5h1v1h-1zm-52 1h1v1h-1zm133 11h1v1h-1zM64 63h1v1h-1zm59 2h1v1h-1z" fill="#352600"/><path d="M91 81h1v1h-1zm92 10h1v1h-1zm4 1h1v1h-1zm2 3h1v1h-1zm-43 1h1v1h-1zm-85 4h1v1h-1zm-4 18h1v1h-1zm-16 7h1v1h-1zm14 4h1v1h-1zm59 6h1v1h-1zm-71 1h1v1h-1zm113 2h1v1h-1zm-43 1h1v1h-1zm-61 5h1v1h-1zm-27 2h1v1h-1zm10 1h1v1h-1zm11 0h1v1h-1zm95 0h1v1h-1z" fill="#393939"/><path d="M91 82h1v49h-1zm62 4h1v1h-1zm-98 2h1v1h-1zm145 4h1v1h-1zM54 93h1v1h-1zm-18 5h1v1h-1zm154 0h1v1h-1zM46 109h1v1h-1zm1 5h1v1h-1zm8 13h1v1h-1zm135 3h1v1h-1zm-99 1h1v1h-1zm23 2h1v1h-1zm-71 1h1v1h-1zm143 3h1v1h-1zm-74 3h1v1h-1zm-60 2h1v1h-1zm101 0h1v1h-1zm-7 4h1v1h-1z" fill="#a0a0a0"/><path d="M103 82h1v50h-1zm43 0h1v1h-1zm6 3h1v1h-1zM42 90h1v1h-1zm144 1h1v1h-1zm-8 1h1v45h-1zm-21 2h1v1h-1zM43 95h1v1h-1zm147 2h1v1h-1zM53 98h1v1h-1zm-9 2h1v1h-1zm-7 3h1v1h-1zm22 3h1v1h-1zm-1 5h1v1h-1zm-19 2h1v1h-1zm10 4h1v1h-1zm-9 1h1v1h-1zm150 13h1v1h-1zm-99 1h1v1h-1zm12 0h1v1h-1zm54 2h1v1h-1zm31 2h1v1h-1zm12 0h1v1h-1zm-22 1h1v1h-1zm-96 3h1v1h-1zm70 3h1v1h-1zm-3 2h1v1h-1z" fill="#a8a8a8"/><path d="M6 0h1v1H6zm212 0h1v1h-1zM0 6h1v1H0zm224 0h1v1h-1zm-70 81h1v1h-1zm-12 4h1v1h-1zm4 4h1v1h-1zm44 4h1v30h-1zm-138 3h1v1h-1zm-15 2h1v1h-1zm13 8h1v1h-1zm8 0h1v1h-1zm-18 7h1v1h-1zm150 10h1v1h-1zm-110 5h1v1h-1zM0 218h1v1H0zm224 0h1v1h-1zM6 224h1v1H6zm212 0h1v1h-1z" fill="#949494"/><path d="M27 81h12v1H27zm12 0h1v1h-1zm18 0h13v1H57zm13 0h1v1h-1zm11 0h9v1h-9zm9 0h1v1h-1zm14 0h9v1h-9zm9 0h1v1h-1zm11 0h17v1h-17zm17 0h1v1h-1zm27 0h17v1h-17zm17 0h1v1h-1zm-62 1h1v64h-1zm73 3h1v1h-1zm4 6h1v1h-1zM43 93h1v1h-1zm1 5h1v1h-1zm114 1h1v30h-1zm-106 2h1v1h-1zm-15 4h1v1h-1zm14 1h1v1h-1zm8 2h1v1h-1zm-20 7h1v1h-1zm1 5h1v1h-1zm16 3h1v1h-1zm102 6h1v1h-1zm-116 1h1v1h-1zm159 3h1v1h-1zm-12 1h1v1h-1zm-136 4h1v1h-1zm102 2h1v1h-1zm42 2h1v1h-1zm-1 1h1v1h-1zm-87 1h1v1h-1zm-64 1h1v1h-1zm61 1h1v1h-1zm17 0h1v1h-1zm24 0h1v1h-1z" fill="#5d5d5d"/><path d="M40 82h1v1h-1zm74 0h1v1h-1zm30 0h1v1h-1zm-89 8h1v1h-1zm-13 1h1v1h-1zm19 5h1v1h-1zm96 0h1v1h-1zm44 2h1v1h-1zM46 111h1v1h-1zm4 2h1v1h-1zm-1 6h1v1h-1zm152 11h1v1h-1zm-121 2h1v1h-1zm77 0h1v1h-1zm33 1h1v1h-1zm-87 1h1v1h-1zm43 0h1v1h-1zm-45 3h1v1h-1zm12 0h1v1h-1zm42 2h1v1h-1zm43 1h1v1h-1zm-115 1h1v1h-1zm28 0h1v1h-1zm-76 5h1v1h-1zm16 0h1v1h-1z" fill="#d4d4d4"/><path d="M74 21h1v1h-1zm29 0h1v1h-1zm-61 2h1v16h-1zm70 5h1v1h-1zm-36 2h1v1h-1zm49 2h1v1h-1zm72 2h1v1h-1zM68 37h1v1h-1zm-8 1h1v1h-1zm-18 1h1v1h-1zm98 0h1v1h-1zm-37 2h1v1h-1zm63 0h1v1h-1zM42 50h1v18h-1zm81 14h1v1h-1zm-81 4h1v1h-1zm146 98h1v1h-1zm-156 4h1v20h-1zm15 0h1v1h-1zm0 1h1v1h-1zm88 5h1v1h-1zm54 0h1v1h-1zM40 186h5v1h-5zm5 0h1v1h-1zm2 1h1v5h-1zm-15 3h1v1h-1zm15 2h1v1h-1zm-23 1h1v1h-1zm14 2h1v1h-1zm53 0h8v1h-8zm8 0h1v1h-1zm14 0h8v1h-8zm8 0h1v1h-1zm15 0h10v1h-10zm10 0h1v1h-1zm44 0h10v1h-10zm10 0h1v1h-1z" fill="#4f3900"/><path d="M9 0h206v20H9zm206 0h1v224h-1z"/><path d="M6 1h212v19H6zm212 0h1v222h-1z"/><path d="M4 2h216v18H4zm216 0h1v220h-1z"/><path d="M3 3h218v17H3zm218 0h1v218h-1z"/><path d="M2 4h220v16H2zm220 0h1v216h-1z"/><path d="M1 6h222v14H1zm222 0h1v212h-1z"/><path d="M0 9h224v11H0zm224 0h1v206h-1zM0 20h224v1H0zm0 1h24v194H0zm24 0h1v144h-1zm10 0h7v19h-7zm7 0h1v19h-1zm11 0h10v10H52zm10 0h1v5h-1zm13 0h11v3H75zm11 0h1v59h-1zm19 0h8v1h-8zm8 0h1v8h-1zm11 0h10v4h-10zm10 0h1v4h-1zm10 0h2v59h-2zm2 0h1v60h-1zm36 0h9v1h-9zm9 0h1v4h-1zm11 0h22v197h-22zm-95 1h6v1h-6zm64 0h1v58h-1zm1 0h1v58h-1zm11 0h8v4h-8zm-74 1h4v1h-4z"/><path d="M201 23h23v71h-23zM75 24h11v1H75zm35 0h4v1h-4zm4 0h1v44h-1zm59 0h1v56h-1zm-97 1h10v3H76zm35 0h3v1h-3zm13 0h10v1h-10zm10 0h1v1h-1zm57 0h1v1h-1zM62 26h1v1h-1zm49 0h3v1h-3zm14 0h8v3h-8zm8 0h1v3h-1zm50 0h7v1h-7zm7 0h1v1h-1z"/><path d="M112 27h3v1h-3zm3 0h1v167h-1zm28 0h3v53h-3zm41 0h6v1h-6zm6 0h1v1h-1zm10 0h24v62h-24zM76 28h10v1H76zm98 0h1v52h-1zm10 0h5v1h-5zm5 0h1v2h-1zM77 29h9v4h-9zm19 0h4v13h-4zm4 0h1v13h-1zm13 0h2v1h-2zm12 0h8v1h-8zm8 0h1v1h-1zm23 0h1v11h-1zm29 0h4v2h-4zm-84 1h1v12h-1zm1 0h1v11h-1zm24 0h6v7h-6zm6 0h1v3h-1zm25 0h17v10h-17zm32 0h1v1h-1z"/><path d="M199 30h25v58h-25zM52 31h9v4h-9zm9 0h1v1h-1zm42 0h1v9h-1zm13 0h1v163h-1zm26 0h4v49h-4zm33 0h1v49h-1zm10 0h3v1h-3zm3 0h1v4h-1zm-2 1h2v3h-2z"/><path d="M198 32h26v54h-26zM77 33h9v1h-9zm55 0h1v1h-1zm44 0h1v47h-1zm-98 1h8v6h-8zm-26 1h8v8h-8zm8 0h1v1h-1zm44 0h1v1h-1zm37 0h5v45h-5zm45 0h2v1h-2zm2 0h1v1h-1zm-84 1h1v1h-1zm83 0h1v2h-1z"/><path d="M197 36h27v49h-27zM69 37h1v14h-1zm57 0h5v1h-5zm5 0h1v4h-1zm46 0h1v43h-1zm-60 1h1v156h-1zm10 0h4v3h-4zm60 0h1v1h-1z"/><path d="M196 38h28v46h-28zm-18 1h1v41h-1zM34 40h7v1h-7zm7 0h1v1h-1zm27 0h1v11h-1zm10 0h8v1h-8zm25 0h1v1h-1zm53 0h22v1h-22z"/><path d="M195 40h29v43h-29zM79 41h7v4h-7zm23 0h1v1h-1zm25 0h4v1h-4zm4 0h1v1h-1zm36 0h12v21h-12zm12 0h1v39h-1zm-83 1h5v1h-5zm5 0h1v1h-1zm12 0h5v22h-5zm5 0h1v152h-1zm10 0h2v4h-2zm2 0h1v4h-1zm10 0h6v38h-6zm-88 1h7v4h-7zm7 0h1v1h-1zm11 0h1v8h-1z"/><path d="M112 44h6v18h-6zm82 0h30v39h-30zM67 45h3v6h-3zm12 0h7v1h-7z"/><path d="M111 45h8v14h-8zm8 0h1v149h-1zm20 0h7v35h-7zm41 0h1v35h-1zM80 46h6v3h-6zm48 0h2v1h-2zm2 0h1v1h-1zm-78 1h6v4h-6zm6 0h1v1h-1z"/><path d="M110 47h9v8h-9zm19 0h1v4h-1zm64 0h31v35h-31zM71 48h1v3h-1z"/><path d="M108 48h11v2h-11zm73 0h1v32h-1zM34 49h1v31h-1zm7 0h1v32h-1zm39 0h6v1h-6zm58 0h8v31h-8zm18 0h1v13h-1zm36 0h32v33h-32zM35 50h6v30h-6zm31 0h5v1h-5zm15 0h5v7h-5zm27 0h11v1h-11z"/><path d="M157 50h25v12h-25zm25 0h1v30h-1zM52 51h5v8h-5zm5 0h1v1h-1zm9 0h5v1h-5zm5 0h1v1h-1zm25 0h3v86h-3zm3 0h1v86h-1zm10 0h10v1h-10zm20 0h1v1h-1zm-20 1h11v1h-11zm11 0h1v142h-1zm-20 2h1v82h-1zm10 1h10v1h-10zm11 1h1v138h-1zm16 0h9v24h-9zm-56 1h5v1h-5zm20 0h1v79h-1zm-19 1h4v3h-4zm-30 1h4v4h-4zm4 0h1v1h-1z"/><path d="M111 59h10v1h-10zm-46 1h7v20h-7zm7 0h1v99h-1zm50 0h1v134h-1zm14 0h10v20h-10zm-63 1h1v99h-1zm9 0h4v1h-4zm1 1h3v3h-3zm19 0h1v70h-1zm10 0h10v1h-10zm44 0h26v1h-26zM52 63h3v5h-3zm3 0h1v1h-1z"/><path d="M135 63h11v17h-11zm-32 1h1v16h-1zm10 0h9v1h-9zm-49 1h9v15h-9zm19 0h3v1h-3zm1 1h2v14h-2zm-10 1h1v94h-1zm30 0h1v13h-1zm19 0h1v13h-1zm-71 1h2v27h-2zm2 0h1v1h-1zm60 0h9v1h-9z"/><path d="M63 70h11v10H63zm42 1h1v9h-1zm19 0h1v9h-1zm10 0h12v9h-12z"/><path d="M25 72h199v8H25zm0 8h199v1H25zm16 1h15v1H41zm15 0h1v1h-1zm19 0h4v82h-4zm4 0h1v143h-1zm13 0h10v52H92zm54 0h20v1h-20zm20 0h1v77h-1zm23 0h35v1h-35zM42 82h13v6H42zm13 0h1v3h-1zm93 0h18v1h-18zm44 0h32v1h-32zm-42 1h16v1h-16zm44 0h30v1h-30zm-42 1h14v1h-14zm44 0h28v1h-28zM55 85h1v1h-1zm98 0h13v1h-13zm44 0h27v1h-27zm-43 1h12v1h-12zm44 0h26v1h-26zm-43 1h11v1h-11zM42 88h12v1H42zm12 0h1v1h-1zm102 0h10v1h-10zm43 0h25v1h-25zM43 89h11v2H43zm11 0h1v1h-1zm102 0h10v1h-10zm44 0h24v1h-24zm-43 1h9v1h-9zM43 91h10v1H43zm114 0h9v1h-9zM44 92h9v3h-9zm91 0h7v44h-7zm7 0h1v44h-1zm16 0h8v2h-8zm21 0h7v44h-7zm7 0h1v44h-1zm-43 1h1v43h-1zm1 0h1v42h-1zm43 0h1v42h-1zm1 0h1v42h-1zm-43 1h1v40h-1zm13 0h8v1h-8zm43 0h23v1h-23zM44 95h9v1h-9zm9 0h1v1h-1zm106 0h7v62h-7zM45 96h7v6h-7zm7 0h1v3h-1zm137 0h1v36h-1zm-43 1h1v34h-1zm-94 2h1v1h-1zm-16 3h1v55h-1zm9 0h6v1h-6zm6 0h1v1h-1zm-5 1h5v3h-5zm5 0h1v1h-1zm9 1h1v54h-1zm-14 2h4v1h-4zm4 0h1v4h-1zm-13 1h1v50h-1zm10 0h3v3h-3zm0 3h3v1h-3zm3 0h1v1h-1zm-12 1h1v46h-1zm10 0h1v5h-1zm1 0h1v2h-1zm10 0h1v47h-1zm-10 2h1v1h-1z"/><path d="M58 115h2v43h-2zm-10 1h1v1h-1zm-9 2h1v40h-1z"/><path d="M57 119h3v39h-3zm-17 3h1v36h-1zm1 4h1v32h-1z"/><path d="M56 126h4v32h-4z"/><path d="M55 130h5v28h-5zm91 1h1v1h-1zm-44 1h1v1h-1zm87 0h1v1h-1zm-147 1h1v25h-1zm50 0h9v1h-9z"/><path d="M54 134h6v24h-6zm39 0h8v2h-8zm52 0h1v1h-1zm13 0h8v23h-8zm43 0h23v60h-23zm-57 1h1v1h-1zm43 0h1v1h-1zm1 0h1v1h-1zm-108 1h1v88h-1zm13 0h8v1h-8zm8 0h1v1h-1zm13 0h8v58h-8zm21 0h8v1h-8zm8 0h1v1h-1zm36 0h7v1h-7zm7 0h1v1h-1zm-143 1h1v22h-1zm52 0h4v1h-4zm4 0h1v1h-1zm36 0h5v1h-5zm5 0h1v1h-1z"/><path d="M157 137h9v20h-9zm22 0h5v1h-5zm5 0h1v1h-1z"/><path d="M156 139h10v18h-10zm44 0h24v19h-24zm-119 1h1v18h-1zm32 0h9v54h-9z"/><path d="M199 140h25v18h-25zm-155 1h1v19h-1zm9 0h7v17h-7zm59 0h10v53h-10zm43 0h11v16h-11z"/><path d="M198 141h26v17h-26zm-116 1h1v16h-1zm72 0h12v15h-12zm-71 1h1v15h-1zm28 0h11v15h-11z"/><path d="M153 143h13v14h-13zm44 0h27v15h-27zm-113 1h1v14h-1zm26 0h12v14h-12z"/><path d="M152 144h14v13h-14zm43 0h29v14h-29zm-143 1h8v13h-8zm33 0h1v13h-1zm24 0h13v13h-13z"/><path d="M151 145h15v12h-15zm43 0h30v13h-30zm-108 1h1v12h-1zm22 0h14v12h-14z"/><path d="M149 146h17v11h-17zm44 0h31v12h-31zm-148 1h1v15h-1zm42 0h3v11h-3zm3 0h1v47h-1zm14 0h18v11h-18z"/><path d="M143 147h23v10h-23zm44 0h37v11h-37zm-162 1h68v9H25zm68 0h1v46h-1z"/><path d="M101 148h123v9H101z"/><path d="M94 149h130v8H94zm-69 8h199v1H25zm0 1h7v1h-7zm7 0h1v1h-1zm7 0h21v1H39zm21 0h1v1h-1zm9 0h89v1H69zm89 0h1v1h-1zm8 0h58v1h-58zm-141 1h3v1h-3zm3 0h1v1h-1zm15 0h14v1H43zm14 0h1v1h-1zm15 0h8v1h-8zm19 0h11v35H91zm11 0h1v65h-1zm21 0h2v35h-2zm2 0h1v65h-1zm22 0h8v1h-8zm8 0h1v1h-1zm15 0h9v1h-9zm9 0h1v65h-1zm-154 1h2v1h-2zm2 0h1v1h-1zm17 0h12v1H44zm12 0h1v1h-1zm17 0h7v1h-7zm74 0h7v1h-7zm7 0h1v1h-1zm17 0h8v1h-8zm-146 1h1v2h-1zm1 0h1v1h-1zm20 0h9v1h-9zm9 0h1v1h-1zm19 0h6v1h-6zm73 0h6v3h-6zm6 0h1v1h-1zm18 0h8v1h-8zm-126 1h9v1h-9zm9 0h1v1h-1zm118 0h7v1h-7zm-147 1h1v1h-1zm21 0h7v1h-7zm7 0h1v3h-1zm22 0h5v1h-5zm98 0h6v1h-6zm-126 1h6v2h-6zm29 0h4v1h-4zm71 0h5v3h-5zm5 0h1v1h-1zm22 0h5v15h-5zm-150 1h1v1h-1zm10 0h2v29h-2zm2 0h1v30h-1zm27 0h3v30h-3zm3 0h1v29h-1zm10 0h4v1h-4zm86 0h1v14h-1zm1 0h1v14h-1z"/><path d="M33 166h4v28h-4zm4 0h1v28h-1zm10 0h6v1h-6zm6 0h1v1h-1zm9 0h5v28h-5zm5 0h1v28h-1zm10 0h3v58h-3zm58 0h16v9h-16zm26 0h3v13h-3zm3 0h1v13h-1zm25 0h35v9h-35zm-151 1h1v27h-1zm10 0h4v57h-4zm4 0h1v57h-1zm99 0h1v1h-1z"/><path d="M160 167h5v12h-5zm5 0h1v12h-1zm-97 2h1v22h-1zm-29 5h13v11H39zm127 0h13v5h-13zm-31 1h15v1h-15zm15 0h1v49h-1zm39 0h35v1h-35zm-45 1h6v18h-6zm54 0h26v18h-26zm-38 3h19v1h-19zm0 1h1v14h-1zm1 0h1v14h-1zm14 0h4v44h-4z"/><path d="M135 183h15v11h-15zm54 0h35v11h-35zm-150 2h13v1H39zm123 2h3v8h-3zm3 0h1v7h-1zm-97 4h1v1h-1zm-35 3h5v1h-5zm5 0h1v1h-1zm24 0h5v1h-5zm5 0h1v1h-1zm23 0h12v1H90zm22 0h13v1h-13zm23 0h16v1h-16zm16 0h1v30h-1z"/><path d="M160 194h5v1h-5zm5 0h1v1h-1zm24 0h35v1h-35zm-154 1h1v1h-1zm1 0h1v1h-1zm11 0h6v29h-6zm6 0h1v29h-1zm10 0h2v1h-2zm2 0h1v1h-1zm11 0h4v29h-4zm48 0h1v29h-1zm24 0h3v29h-3zm14 0h2v1h-2zm2 0h1v1h-1zm-140 1h1v28h-1z"/><path d="M75 197h5v27h-5zm77 0h1v27h-1zm-127 1h1v26h-1zm21 0h8v26h-8zm8 0h1v26h-1zm-28 1h1v25h-1z"/><path d="M45 199h9v25h-9zm10 1h1v24h-1zm19 0h6v24h-6zm79 0h1v24h-1zm-126 1h1v23h-1zm1 0h1v23h-1z"/><path d="M43 201h14v23H43zm14 0h1v23h-1zm15 0h8v23h-8zm82 0h1v23h-1zm1 0h1v23h-1zm13 0h1v23h-1zm1 0h1v23h-1zm-140 1h1v22h-1zm1 0h1v22h-1z"/><path d="M41 202h18v22H41zm18 0h1v22h-1zm11 0h10v22H70zm33 0h1v22h-1zm53 0h1v22h-1zm10 0h3v22h-3zm-135 1h1v21h-1zm1 0h1v21h-1z"/><path d="M39 203h22v21H39zm22 0h1v21h-1zm6 0h92v21H67zm92 0h1v21h-1zm5 0h60v15h-60z"/><path d="M33 204h191v14H33z"/><path d="M0 215h224v1H0zm224 0h1v1h-1zM1 216h222v2H1zm0 2h222v1H1zm222 0h1v1h-1zM2 219h220v1H2zm0 1h220v1H2zm220 0h1v1h-1zM3 221h218v1H3zm218 0h1v1h-1zM4 222h216v1H4zm216 0h1v1h-1zM6 223h212v1H6zm212 0h1v1h-1zM9 224h206v1H9zm206 0h1v1h-1z"/><g fill="#926a00"><path d="M122 21h1v1h-1zm13 1h1v1h-1zm-38 6h2v1h-2zm2 0h1v1h-1zm43 0h1v1h-1zm-47 1h1v13h-1zm17 0h1v1h-1zm-36 3h1v1h-1zm109 2h1v1h-1zm-45 3h1v1h-1zm46 0h1v1h-1zm-91 5h1v1h-1zm-17 1h1v1h-1zm1 5h1v1h-1zm87 0h1v1h-1zm16 0h1v1h-1zm9 2h1v19h-1zm-96 1h1v17h-1zm33 0h1v1h-1zm-62 1h1v1h-1zm55 1h1v1h-1zm-41 1h1v1h-1zm21 1h1v1h-1zm-37 5h1v1h-1zm39 2h1v1h-1zm54 1h12v1h-12zm12 0h1v1h-1zm-74 5h1v1h-1zm96 1h1v1h-1zM35 158h1v1h-1zm1 0h1v1h-1zm28 0h1v1h-1zm1 0h1v1h-1zm97 0h1v1h-1zm1 0h1v1h-1zm-29 7h1v1h-1zm39 1h1v1h-1zm-30 12h1v3h-1zm0 3h1v1h-1zM32 194h1v1h-1zm36 0h1v1h-1zm84 1h1v1h-1zm8 0h1v1h-1zm-105 3h1v1h-1zm-23 4h1v1h-1zm7 0h1v1h-1z"/></g><g fill="#231a00"><path d="M77 34h1v1h-1zm41 7h1v1h-1zm64 8h1v1h-1zm-62 2h1v1h-1zm16 8h1v1h-1zm-23 6h1v1h-1zm-39 1h1v1h-1zm40 3h1v1h-1zm20 0h1v1h-1zm22 90h1v1h-1zm14 1h1v1h-1zm-124 4h1v1h-1zm120 23h1v1h-1zm-105 5h1v1h-1zm86 10h1v1h-1zm10 0h1v1h-1zm-120 1h1v1h-1zm26 0h1v1h-1z"/></g><g fill="#dcdcdc"><path d="M80 82h1v49h-1zm107 0h1v1h-1zm-39 1h1v1h-1zm-92 2h1v1h-1zm139 0h1v1h-1zm-6 8h1v1h-1zm-43 1h1v1h-1zm44 1h1v1h-1zM53 99h1v1h-1zm148 0h1v30h-1zm-141 1h1v1h-1zm-1 5h1v1h-1zm-14 1h1v1h-1zm-7 1h1v1h-1zm1 5h1v1h-1zm18 3h1v1h-1zm-16 7h1v1h-1zm160 7h1v1h-1zm-147 1h1v1h-1zm26 1h1v1h-1zm109 4h1v1h-1zm-97 1h1v1h-1zm-48 1h1v1h-1zm68 2h1v1h-1zm-4 5h1v1h-1zm42 0h1v1h-1zm-99 1h1v1h-1zm97 0h1v1h-1zm-3 1h1v1h-1zm-52 1h1v1h-1zm8 0h1v1h-1z"/></g><g fill="#fff"><path d="M0 0h4v1H0zm4 0h1v1H4zm216 0h4v1h-4zm4 0h1v4h-1zM0 1h2v1H0zm2 0h1v1H2zm220 0h2v1h-2zM0 2h2v1H0zm2 0h1v1H2zm220 0h2v1h-2zM0 3h1v1H0zm0 1h1v1H0zm224 0h1v1h-1zM27 82h12v13H27zm12 0h1v29h-1zm18 0h13v13H57zm13 0h1v64h-1zm11 0h9v54h-9zm9 0h1v64h-1zm14 0h9v56h-9zm9 0h1v54h-1zm11 0h18v7h-18zm18 0h1v8h-1zm26 0h17v7h-17zm17 0h1v7h-1zm-42 1h3v7h-3zm3 0h1v10h-1zm40 0h4v7h-4zm4 0h1v11h-1zM40 84h1v31h-1zm107 0h2v60h-2zm2 0h1v60h-1zm42 0h2v60h-2zm2 0h1v60h-1zm-43 1h1v58h-1zm1 0h1v58h-1zm43 0h1v58h-1zm-42 1h1v56h-1zm43 0h1v56h-1zM41 87h1v32h-1z"/><path d="M56 87h14v8H56zm97 0h1v54h-1zm43 0h1v54h-1zm1 0h1v53h-1z"/><path d="M124 89h30v1h-30zm30 0h1v51h-1zm14 0h30v1h-30zm30 0h1v50h-1zm-74 1h10v56h-10zm10 0h1v56h-1z"/><path d="M142 90h13v1h-13zm13 0h1v48h-1zm13 0h9v56h-9zm9 0h1v56h-1zm9 0h12v1h-12zm-42 1h11v1h-11zm44 0h11v1h-11zm11 0h1v46h-1zM55 92h15v3H55zm90 0h10v1h-10zm44 0h10v1h-10z"/><path d="M146 93h10v1h-10zm10 0h1v42h-1zM42 94h1v32h-1zm148 0h10v1h-10zm10 0h1v40h-1zM27 95h15v1H27zm27 0h16v1H54zm-27 1h7v50h-7zm7 0h8v1h-8zm20 0h6v8h-6zm6 0h1v1h-1zm3 0h7v50h-7zm-29 1h1v49h-1zm3 0h5v3h-5zm23 0h1v1h-1zm-17 1h1v32h-1zm114 1h1v31h-1z"/><path d="M37 100h6v1h-6zm1 1h5v3h-5zm6 1h1v32h-1zm9 0h6v6h-6zm-15 2h6v1h-6zm21 0h1v1h-1z"/><path d="M52 106h6v6h-6zm-7 2h1v33h-1zm13 0h1v1h-1z"/><path d="M51 110h6v9h-6zm-12 1h6v1h-6zm18 1h1v1h-1zm-11 1h1v32h-1zm-6 2h6v1h-6zm7 1h1v30h-1z"/><path d="M50 116h6v7h-6zm-9 3h6v1h-6zm15 0h1v1h-1z"/><path d="M48 120h7v7h-7zm7 3h1v1h-1z"/><path d="M42 126h12v1H42zm6 1h6v7h-6zm6 0h1v1h-1z"/><path d="M43 130h10v1H43zm114 0h1v1h-1zm-113 4h9v1h-9zm9 0h1v1h-1zm137 0h10v3h-10zm10 0h1v1h-1zm-152 1h4v7h-4zm4 0h1v3h-1zm39 0h1v11h-1zm12 0h10v3h-10zm43 0h10v3h-10zm10 0h1v1h-1zm-75 1h10v1H81zm32 0h1v1h-1z"/><path d="M189 136h10v3h-10zm-107 1h10v1H82zm10 0h1v9h-1zm10 0h10v3h-10zm42 0h11v3h-11z"/><path d="M188 137h11v2h-11zm11 0h1v1h-1zm-147 1h1v1h-1zm30 0h12v1H82zm12 0h1v8h-1zm6 0h12v2h-12zm12 0h1v1h-1zm23 0h20v2h-20zm20 0h1v1h-1z"/><path d="M178 138h20v2h-20zm-95 1h28v1H83zm115 0h1v1h-1zm-115 1h28v1H83zm28 0h1v1h-1zm24 0h19v1h-19zm19 0h1v1h-1zm24 0h19v1h-19zm19 0h1v1h-1zm-152 1h6v1h-6zm39 0h26v1H84zm26 0h1v1h-1zm25 0h18v1h-18zm18 0h1v1h-1zm25 0h18v1h-18zm18 0h1v1h-1zm-148 1h3v4h-3zm3 0h1v1h-1zm33 0h26v1H84zm26 0h1v1h-1zm25 0h17v1h-17zm17 0h1v1h-1zm26 0h17v1h-17zm17 0h1v1h-1zm-110 1h24v1H85zm24 0h1v1h-1zm26 0h16v1h-16zm16 0h1v1h-1zm27 0h16v1h-16zm16 0h1v1h-1zm-107 1h20v1H87zm20 0h1v1h-1zm28 0h14v1h-14zm14 0h1v1h-1zm29 0h15v1h-15zm15 0h1v1h-1z"/><path d="M46 145h4v1h-4zm42 0h18v1H88zm18 0h1v1h-1zm29 0h12v1h-12zm12 0h1v1h-1zm31 0h13v1h-13zm13 0h1v1h-1zm-164 1h7v1h-7zm7 0h1v1h-1zm13 0h3v1h-3zm3 0h1v1h-1zm13 0h7v1h-7zm7 0h1v1h-1zm20 0h14v1H90zm14 0h1v1h-1zm20 0h20v1h-20zm20 0h1v1h-1zm24 0h20v1h-20zm20 0h1v1h-1zM0 220h1v4H0zm224 0h1v4h-1zM1 222h1v2H1zm1 0h1v2H2zm220 0h2v2h-2zM0 224h4v1H0zm4 0h1v1H4zm216 0h4v1h-4zm4 0h1v1h-1z"/></g><g fill="#f2b000"><path d="M26 22h1v1h-1zm6 0h1v1h-1zm18 0h1v47h-1zm14 0h1v1h-1zm9 0h1v1h-1zm15 0h1v1h-1zm14 0h1v1h-1zm14 0h1v1h-1zm6 0h1v1h-1zm14 0h1v1h-1zm6 0h1v1h-1zm6 0h1v1h-1zm20 0h1v1h-1zm6 0h1v1h-1zm6 0h1v1h-1zm14 0h1v1h-1zm6 0h1v1h-1zM64 23h1v1h-1zm136 0h1v1h-1zM74 24h1v2h-1zm107 0h1v1h-1zm-46 1h1v1h-1zm-61 1h1v1h-1zm61 0h1v1h-1zm40 0h1v1h-1zM63 27h1v1h-1zm0 1h1v1h-1zm54 2h1v1h-1zm0 1h1v1h-1zm80 0h1v1h-1zm-20 1h1v1h-1zM70 33h1v1h-1zm35 0h1v5h-1zm19 0h1v1h-1zm66 0h1v1h-1zm-78 1h1v3h-1zm28 0h1v1h-1zm0 1h1v1h-1zm-73 1h1v1h-1zm118 0h1v1h-1zm-73 1h1v1h-1zm13 0h1v1h-1zm-20 1h1v1h-1zm20 0h1v1h-1zm14 0h1v1h-1zm-78 1h1v1h-1zm119 1h1v1h-1zM77 41h1v1h-1zm103 0h1v1h-1zM77 42h1v1h-1zm55 0h1v1h-1zm33 0h1v1h-1zM60 43h1v1h-1zm72 0h1v1h-1zm-72 1h1v1h-1zm60 0h1v1h-1zm0 1h1v1h-1zm-48 1h1v1h-1zm0 1h1v1h-1zm65 1h1v1h-1zm54 0h1v1h-1zM65 49h1v1h-1zm72 0h1v1h-1zm46 0h1v1h-1zM65 50h1v1h-1zm62 0h1v1h-1zm-20 1h1v1h-1zm-28 2h1v1h-1zm49 1h2v1h-2zm2 0h1v1h-1zm-72 1h1v1h-1zm44 1h1v1h-1zm-22 1h1v1h-1zm29 0h1v1h-1zm-29 1h1v1h-1zm-23 1h1v1h-1zm46 0h1v1h-1zm20 0h1v1h-1zm-66 1h1v1h-1zm53 0h1v1h-1zm24 2h1v1h-1zm-10 1h1v1h-1zm10 0h1v1h-1zm-59 2h1v2h-1zm30 1h1v1h-1zm-30 1h1v1h-1zm-13 1h1v1h-1zm-36 1h1v1h-1zm24 0h1v1h-1zm12 0h1v1h-1zm20 0h1v1h-1zm12 0h1v1h-1zm12 0h1v1h-1zm7 0h1v1h-1zm19 0h1v1h-1zm16 0h1v1h-1zm42 0h1v1h-1zM32 159h1v1h-1zm1 0h1v1h-1zm5 0h1v1h-1zm1 0h1v1h-1zm22 0h1v1h-1zm1 0h1v1h-1zm5 0h1v1h-1zm1 0h1v1h-1zm20 0h1v1h-1zm22 0h1v1h-1zm17 0h1v1h-1zm18 0h1v1h-1zm14 0h1v1h-1zm1 0h1v1h-1zm21 0h1v1h-1zm18 0h1v1h-1zm-169 1h1v1h-1zm11 0h1v1h-1zm47 0h1v2h-1zm39 0h1v1h-1zm-100 2h1v1h-1zm61 0h1v1h-1zm-44 1h1v1h-1zm-10 1h1v1h-1zm3 0h1v1h-1zm26 0h1v1h-1zm3 0h1v1h-1zm8 0h1v1h-1zm71 0h1v1h-1zm16 0h1v1h-1zm3 0h1v1h-1zm35 0h1v1h-1zm-46 1h1v1h-1zm-99 1h1v1h-1zm0 1h1v1h-1zm15 0h1v26h-1zm-44 2h1v22h-1zm15 0h1v3h-1zm133 0h1v2h-1zm0 2h1v1h-1zm-133 1h1v1h-1zm5 0h1v1h-1zm90 5h7v1h-7zm7 0h1v1h-1zm47 0h7v1h-7zm7 0h1v1h-1zm-33 4h1v1h-1zm10 0h1v19h-1zm-39 1h8v1h-8zm8 0h1v1h-1zm46 0h8v1h-8zm8 0h1v1h-1zm-33 3h3v1h-3zm3 0h1v1h-1zm-126 3h1v4h-1zm-15 3h1v1h-1zm15 1h1v1h-1zm-9 1h1v1h-1zm23 0h1v1h-1zm15 0h1v1h-1zm-15 1h1v1h-1zm-22 1h1v1h-1zm7 0h1v1h-1zm114 1h1v1h-1zm-31 1h1v3h-1zm24 0h1v3h-1zm-89 2h1v1h-1zm1 1h1v1h-1zm13 0h1v1h-1zm51 0h1v1h-1zm5 0h1v1h-1zm19 0h1v1h-1zm10 0h1v1h-1zm17 0h1v1h-1z"/></g></svg>