<svg xmlns="http://www.w3.org/2000/svg" role="img" viewBox="-62.95 -62.95 3273.40 923.40"><title>HashData (member) logo</title><path fill="#FFF" d="M3150 676v122c-893.70166 0-1787.4032 0-2681.53046-.44342-.1051-3.52924.08191-6.63587.56073-9.69696 1.5318-9.7926 3.22086-19.56055 4.75711-29.35248 1.78916-11.40375 3.5106-22.8183 5.2064-34.23639 1.48055-9.96893 2.80078-19.96234 4.34716-29.92077 1.44623-9.3133 3.6654-18.54871 4.42762-27.9093.40795-5.01069 2.24871-5.52912 6.36926-5.51002 21.28326.0984 42.56756-.0371 64.3158-.01648 39.8225.02796 79.18066-.01861 119.00317.00641 26.40344.0716 52.34265.0716 78.81036.0716-7.52075 43.94415-14.93683 87.27673-22.39282 130.84228 29.5371 0 58.32867 0 87.58453.0719 14.2486.07746 28.03418.16303 41.81598-.0232 1.53845-.02074 4.15198-1.34899 4.39496-2.4749 1.09088-5.05518 1.50525-10.2563 2.24976-15.80793.41198-1.31726.8778-2.2069 1.0423-3.14923 2.34753-13.44421 4.72204-26.88428 6.95147-40.34839 2.15405-13.00921 4.1485-26.0448 6.54889-39.29596 1.85596-10.00476 3.37604-19.78247 4.95953-29.96795 15.35657 0 30.46503 0 46.03772.07019 18.4878.02258 36.51117-.02503 54.99915-.00293 11.16467.02533 21.86474-.01899 32.81335-.04657.61298-.16956.7182-.4524.75171-1.20203.42395-.79455.81201-1.19775.87427-1.64612 1.73132-12.48358 3.34106-24.98468 5.15784-37.45569 1.88476-12.93664 3.9276-25.85064 5.97082-38.76355 1.58167-9.99603 3.39441-19.95684 4.87232-29.96753 1.1704-7.92956 1.98828-15.91119 2.79882-24.26458-2.15234-.44995-4.1411-.55097-6.12976-.55329-42.51538-.04913-85.03082-.08728-127.55401-.5454 13.15753-86.9875 26.32281-173.5572 39.56451-260.629 6.15912 0 12.2884 0 18.88208.0701 38.70734.07006 76.95032.07006 115.58045.07006 6.76123-44.4126 13.4674-88.46295 20.2179-132.80497-7.67445 0-14.46913 0-21.72791-.06694-27.1554-.0229-53.84668.02114-81.00196-.00107-10.73962-.06627-21.01526-.06627-31.7417-.06627 1.6443-10.80076 3.19934-20.93672 4.72748-31.07673 1.45465-9.65197 2.88117-19.30818 4.40204-29.36997.7475-4.0614 1.4657-7.7067 2.06854-11.37095 1.63275-9.9258 3.30762-19.84605 4.79437-29.79412C987.29291 21.29687 988.60175 11.14175 990 1h2160c0 223.03482 0 446.0698-.37305 669.40063-5.79028-24.57482-11.20947-49.44512-16.6245-74.31634-6.33643-29.1034-12.70704-58.1994-18.98951-87.31436-3.73877-17.3263-7.19019-34.71552-11.03735-52.01715-4.15357-18.68125-8.78345-37.25693-12.90943-55.94403-6.81299-30.85547-13.37378-61.7667-20.06762-92.64856-6.31543-29.13446-12.64014-58.26694-19.00806-87.38997-5.73291-26.22034-11.53028-52.4266-17.32813-78.77043h-5.73632c-42.32325 0-84.6526.38932-126.96534-.27895-10.33398-.1632-15.31225 3.1049-19.86279 12.29076-11.41162 23.03563-24.29541 45.34147-36.56665 67.95195-13.0415 24.0297-26.04443 48.08033-39.08887 72.10875-12.73022 23.45056-25.49219 46.88394-38.23803 70.32605-10.29102 18.92721-20.63038 37.82858-30.85157 56.79354-7.56079 14.02866-14.86963 28.19358-22.4646 42.2035-11.56445 21.3327-23.3064 42.5693-34.91894 63.87622-5.39111 9.89172-10.59961 19.88305-15.9895 29.77533-11.84278 21.73553-23.73365 43.44488-35.6338 65.1491-5.72558 10.44373-11.59985 20.80701-17.24902 31.2917-3.91894 7.27312-7.56836 14.6914-11.43115 22.2265 1.0232.17822 1.3501.28497 1.677.28503 43.4895.00787 86.97925.01501 130.46875-.02777 1.23242-.00122 2.54297-.35834 3.68408-.85523 9.56128-4.16345 18.96607-8.71478 28.6565-12.54718 21.13672-8.35931 42.23755-16.8653 63.67627-24.39032 29.17065-10.23883 59.21606-17.42535 90.0498-19.95648 19.75562-1.62177 39.74585-.90997 58.46802 6.98065 20.16797 8.50006 31.99658 24.35639 36.35718 45.43097.97705 4.72192 2.2019 5.45502 6.32934 5.44415 43.98902-.11578 87.97803-.0755 131.96729-.07806M1691.00012 410.41266c1.33545-15.82285 2.81946-31.6355 3.90955-47.47522.30054-4.36719-.46997-8.82614-.93091-13.22394-.98499-9.39737-1.51172-18.89203-3.2716-28.14804-3.08387-16.21915-7.82935-31.93542-14.4214-47.21457-9.71532-22.51837-22.74242-42.72127-39.25158-60.69887-5.56995-6.06544-11.50708-11.96547-18.04102-16.93588-11.38757-8.66255-22.8175-17.51797-35.22082-24.54227-22.38806-12.67868-46.32398-21.7564-72.0503-25.22952-13.37902-1.80621-26.78991-4.62478-40.20288-4.72323-66.48266-.4881-132.97082-.22182-199.45703-.22136h-4.85132c-28.10107 178.01657-56.1781 355.88104-84.2965 534.00805 2.25354 0 3.90466.00727 5.55578-.00104 66.57678-.33471 133.15381-.65136 199.73023-1.04644 4.91662-.02918 9.8745-.31409 14.73645-1.01319 15.09033-2.16998 30.38525-3.5976 45.15246-7.16742 20.28882-4.90478 39.95447-12.15954 58.80286-21.25201 17.4054-8.39642 34.00147-18.16242 49.8545-29.34363 15.90453-11.21759 30.65832-23.70025 44.60522-37.15643 6.5946-6.36237 12.61071-13.37415 18.46008-20.44641 6.99646-8.45935 14.24597-16.84595 20.10925-26.07514 9.4596-14.89001 18.44202-30.15036 26.5343-45.81817 5.48902-10.62757 9.76648-22.01175 13.39454-33.43582 4.37439-13.77411 7.48816-27.94858 11.15014-42.83945m507.00476 235.9356c-.33398-1.73394-.63086-3.476-1.00757-5.20062-5.32568-24.38208-10.69628-48.75439-15.98681-73.1441-5.05664-23.31232-9.93799-46.66303-15.073-69.95795-4.5105-20.45974-9.37402-40.84161-13.88623-61.30102-6.1101-27.70615-12.06983-55.44565-18.02222-83.18628-3.41504-15.91556-6.57495-31.88641-10.05981-47.78629-2.82544-12.89087-6.07227-25.68905-8.9375-38.5716-3.66992-16.50074-7.14746-33.0443-10.70361-49.57035-2.77881-12.91373-5.51343-25.83713-8.33863-38.74072-2.6787-12.23456-5.44995-24.4489-8.1516-36.54282-.61598-.15915-.93238-.31231-1.24879-.31244-47.16553-.01866-94.33093-.0468-141.49621.06525-1.40589.00334-3.44092 1.12749-4.11573 2.32855-7.88 14.02385-15.56335 28.15828-23.28186 42.27261-8.2594 15.10346-16.5575 30.1862-24.73706 45.3329-11.84424 21.93265-23.54175 43.94465-35.40454 65.86729-12.3269 22.7804-24.81238 45.47506-37.15808 68.24533-7.21045 13.2987-14.20361 26.71539-21.4358 40.00213-11.83556 21.74448-23.83312 43.40088-35.66784 65.14585-5.23083 9.61087-10.12414 19.40542-15.35669 29.01535-11.75915 21.59582-23.67407 43.10693-35.4513 64.69299-11.1743 20.48114-22.22887 41.02765-33.38695 61.51782-5.23523 9.61383-10.67066 19.1192-15.86207 28.75623-3.60925 6.69995-6.95727 13.54059-10.63305 20.73132 44.58386 0 88.4104.00922 132.23681-.042 1.40137-.00158 2.8921-.41998 4.18787-.9917 6.6056-2.91454 13.08716-6.11944 19.74768-8.89824 17.03345-7.10639 33.90112-14.70649 51.2649-20.90534 35.91027-12.81976 72.43603-23.90369 110.65026-26.89648 19.19031-1.503 38.50086-.91028 57.11682 6.55822 21.36048 8.56964 33.29773 24.2998 38.00013 46.04474.91015 4.20838 2.12109 5.22717 6.15893 5.2143 42.33203-.13501 84.66455-.08344 126.99707-.08344h5.77246c-2.32153-10-4.50268-19.39593-6.72998-29.65948m199.47559-397.34793h11.96997a206395390.74867 206395390.74867 0 0 1-67.5288 427.0068c42.13598 0 83.77294-.0163 125.4099.03552 2.89136.0036 3.43286-1.29565 3.7583-3.91699 1.13868-9.17444 2.57447-18.31476 4.03687-27.44568 2.23022-13.92743 4.59302-27.83355 6.8684-41.75384 1.59303-9.74793 3.1338-19.50428 4.69703-29.25708 1.76953-11.04206 3.5498-22.08258 5.30493-33.12702 1.57886-9.93469 3.11548-19.8761 4.69605-29.81042 1.75415-11.02338 3.60888-22.03122 5.28686-33.06607 1.46411-9.6311 2.6189-19.30988 4.13306-28.93262 2.19043-13.92459 4.58252-27.81747 6.8872-41.72418 1.64014-9.89761 3.31983-19.78891 4.90674-29.6951 1.74317-10.88104 3.40112-21.7757 5.09375-32.66486 1.54566-9.94253 3.09766-19.88412 4.62866-29.82888 1.80079-11.69404 3.53125-23.39908 5.38648-35.08436 1.61694-10.18624 3.36523-20.35168 5.10644-30.83265h147.65625c5.57056-35.7078 11.0835-71.04788 16.62452-106.56725h-424.04395c-5.57446 35.67545-11.09106 70.98159-16.66675 106.66468h135.78809z"/><path fill="#FFF" d="M337 798H1c0-177.02332 0-354.04663.46866-531.5343 14.13512-.46466 27.8016-.46512 41.46806-.46518 33.49961-.00012 66.99924-.0153 100.49878.02985 2.59242.00347 5.02313.12774 5.5211-3.22846.69384-4.67615 1.38556-9.35284 2.03496-14.0353 1.70287-12.27804 3.27574-24.57519 5.1008-36.83488 1.84432-12.38885 3.93315-24.74125 5.90746-37.1108 1.61647-10.12762 3.27192-20.2494 4.81567-30.38813 1.11647-7.33255 2.07817-14.68866 3.14008-22.25655H23.20285c-.397 2.30484-.82487 4.64341-1.19971 6.99045-1.53955 9.63965-3.08618 19.27826-4.58576 28.92418-1.50028 9.65038-2.97425 19.30506-4.41068 28.96514-1.46255 9.8358-2.82725 19.6862-4.30478 29.51968-1.52374 10.14107-3.0767 20.27843-4.72534 30.39975C3.10334 252.33635 1.99965 257.6597 1 263V1c151.35663 0 302.71329 0 454.53143.4257.12772 2.34066-.2316 4.25158-.53552 6.17127-1.72922 10.9218-3.336 21.8643-5.19427 32.76398-2.15525 12.64141-4.56171 25.23979-6.79584 37.86805-2.32028 13.11518-4.6081 26.2365-6.8216 39.37005-.90075 5.34438-1.56811 10.72807-2.4211 16.6451h75.40975L489.16458 265.8342c3.8732 0 7.35095 0 11.29251.07437 11.09705.0813 21.73029.1065 32.36353.0917 34.05664-.04733 68.11328-.10946 102.63403-.09146 38.82245.0249 77.18085-.02465 116.00324-.00161 16.8222.02362 33.18048-.02536 50.00128-.00269 5.06897.07162 9.67535.07162 14.92706.07162-1.33673 9.42618-2.53186 18.14624-3.81903 26.85267-1.4801 10.01196-3.03802 20.01242-4.56897 30.01687-1.55579 10.1669-3.14789 20.32837-4.67212 30.49997-1.47668 9.85425-2.85388 19.72345-4.33612 29.57684-1.52753 10.15397-3.1634 20.29166-4.6886 30.44596-1.47644 9.82895-2.86377 19.67126-4.3064 29.5053-1.4677 10.00498-2.93737 20.00977-4.43884 30.00971-1.49927 9.98584-3.01208 19.96982-4.56958 29.94672-1.30456 8.35684-2.6817 16.70236-4.49017 25.10452-15.8092.1117-31.15503.17175-46.96466.1637-25.82166-.0224-51.17932.02331-77.00104.00116-8.43591-.07788-16.4079-.10645-24.37982-.09442-31.05359.04693-62.10712.10675-93.62445.09497-8.74646-.06671-17.02912-.06671-25.28952-.06671 6.00583-38.8627 11.93265-77.21381 17.89462-115.79248H396.01144c-1.39105 10.7077-2.75534 21.2092-4.46475 31.93289-5.03888 31.71502-9.73257 63.20785-14.47073 94.999H245.31723l-19.7053 129.77434h131.38902c-.13092 1.86756-.1193 3.29682-.34739 4.68677-1.18408 7.21607-2.54528 14.40479-3.62692 21.63556-1.78457 11.92969-3.30432 23.89923-5.11746 35.82428-1.85846 12.22333-3.92575 24.41492-5.9194 36.61755C340.33994 777.80975 338.66425 787.90393 337 798m9.06815-532.97412h-76.6714l-21.81802 143.80795c29.16864 0 57.29209 0 86.34336.14804h60.72452c7.31076-48.19732 14.54245-95.8736 21.81451-143.81573-23.89136 0-46.6785 0-70.39297-.14026z"/><path fill="#21254A" d="M3150 675.58337c-43.98926.4192-87.97827.37891-131.96729.4947-4.12744.01086-5.35229-.72224-6.32934-5.44416-4.3606-21.07458-16.18921-36.9309-36.35718-45.43097-18.72217-7.89062-38.7124-8.60242-58.46802-6.98065-30.83374 2.53113-60.87915 9.71765-90.0498 19.95648-21.43872 7.52503-42.53955 16.031-63.67627 24.39032-9.69043 3.8324-19.09521 8.38373-28.6565 12.54718-1.1411.49689-2.45166.854-3.68408.85523-43.4895.04278-86.97924.03564-130.46875.02777-.3269-.00006-.6538-.10681-1.677-.28504 3.8628-7.5351 7.5122-14.95337 11.43115-22.2265 5.64917-10.48468 11.52344-20.84796 17.24903-31.29169 11.90014-21.70422 23.79101-43.41357 35.63379-65.1491 5.38989-9.89228 10.59838-19.88361 15.9895-29.77533 11.61255-21.30692 23.35449-42.54352 34.91894-63.87622 7.59497-14.00992 14.90381-28.17484 22.4646-42.2035 10.2212-18.96496 20.56055-37.86633 30.85157-56.79354 12.74584-23.44211 25.5078-46.8755 38.23803-70.32605 13.04444-24.02842 26.04737-48.07904 39.08887-72.10875 12.27124-22.61048 25.15503-44.91632 36.56665-67.95195 4.55054-9.18585 9.5288-12.45397 19.8628-12.29076 42.31274.66827 84.64208.27895 126.96533.27895h5.73632c5.79785 26.34382 11.59522 52.5501 17.32813 78.77043 6.36792 29.12303 12.69263 58.2555 19.00806 87.38997 6.69384 30.88186 13.25463 61.79309 20.06762 92.64856 4.12598 18.6871 8.75586 37.26278 12.90943 55.94403 3.84716 17.30163 7.29858 34.69085 11.03735 52.01715 6.28247 29.11496 12.65308 58.21097 18.9895 87.31436 5.41504 24.87122 10.83423 49.74152 16.62451 74.76398.37305 1.54065.37305 2.9295.37305 4.7351m-348.34229-135.5907c18.96705-9.52154 38.19532-18.35504 58.53418-24.70043 21.98706-6.85974 44.4707-10.50876 67.40772-11.15842 7.4668-.21149 14.97925 1.20096 22.47143 1.86072 12.31128 1.08407 23.9148 4.5089 34.8374 10.60806-14.67455-72.97241-29.3203-145.80206-43.95873-218.59515-2.70044 0-4.07349.2355-5.33399-.04154-4.95141-1.0884-6.9209 1.51212-8.99707 5.65546-6.55053 13.07187-13.59863 25.89807-20.59985 38.73987-12.1643 22.31186-24.49927 44.53079-36.63794 66.85638-5.60718 10.31278-10.79077 20.85599-16.39478 31.17053-11.5913 21.33365-23.38696 42.55622-34.99585 63.88043-5.76684 10.59287-11.29077 21.31779-16.96289 31.96268-.9641 1.80939-2.12109 3.51587-3.1892 5.2699.33178.22491.66381.44983.9956.67474.72754-.59027 1.45508-1.18054 2.82397-2.18322z"/><path fill="#2662A1" d="M391.89185 443.9516c1.36425-10.5015 2.72854-21.003 4.1196-31.7107h131.12008c-5.96197 38.57868-11.8888 76.92978-17.89462 115.79249 8.2604 0 16.54306 0 25.2358.45233.12336 1.73687-.51367 3.05511-.39422 4.30078.91413 9.53338 1.66608 19.09802 3.05652 28.56665 2.75763 18.7793 5.34277 37.6128 9.04718 56.21515 2.91596 14.64276 2.74646 30.26337 11.80713 43.27136-21.28394.0539-42.56824.1894-63.8515.091-4.12055-.0191-5.9613.49933-6.36926 5.51001-.76221 9.3606-2.98139 18.59601-4.42762 27.9093-1.54638 9.95844-2.8666 19.95185-4.34717 29.92078-1.6958 11.4181-3.41723 22.83264-5.20639 34.2364-1.53625 9.79192-3.2253 19.55987-4.7571 29.35247-.47883 3.0611-.66584 6.16772-1.00837 9.69696-9.04282.44342-18.06369.44342-27.55939.05463-4.55694-16.24677-8.7764-32.0708-12.6935-47.96936-9.02235-36.61957-15.94752-73.65046-20.78556-111.0467-3.58017-27.67321-6.94443-55.38128-9.85507-83.13147-1.62159-15.46008-2.32025-31.0285-3.06122-46.56591-.63266-13.2653-.78775-26.55497-1.044-39.83597-.13172-6.82517.04314-13.65613-.07365-20.48187-.02648-1.54834-.68832-3.08585-1.05767-4.62833z"/><path fill="#FFF" d="M589 1c89.02087 0 178.0418 0 267.52649.42711-6.35907 44.03858-13.18189 87.65005-20.07947 131.73935-11.85266 0-23.65216 0-35.91565-.06735-16.4129-.07782-32.36175-.11367-48.31048-.09308-26.74353.03454-53.48706.10504-80.6944.09389-35.10565-.0665-69.74762-.0665-104.4273-.0665 1.1342-7.39668 2.06011-13.98863 3.169-20.54966 2.1925-12.97174 4.47436-25.92846 6.74133-38.88754 2.20972-12.63173 4.54749-25.24199 6.64264-37.89253C585.56451 24.15727 587.22723 12.56952 589 .99999z"/><path fill="#2994AE" d="M776.95984 527.88306c1.34503-8.35053 2.72217-16.69605 4.02673-25.05289 1.5575-9.9769 3.07031-19.96088 4.56958-29.94672 1.50147-9.99994 2.97113-20.00473 4.43885-30.0097 1.44262-9.83405 2.82995-19.67636 4.3064-29.50531 1.5252-10.1543 3.16106-20.292 4.68859-30.44596 1.48224-9.85339 2.85944-19.72259 4.33612-29.57684 1.52423-10.1716 3.11633-20.33307 4.67212-30.49997 1.53094-10.00445 3.08887-20.00491 4.56897-30.01687 1.28717-8.70643 2.4823-17.42649 3.81903-26.85267-5.2517 0-9.8581 0-14.92505-.4646-.10315-2.07531.09766-3.74053.63648-5.28811 4.2594-12.23355 8.3277-24.54192 12.93542-36.64427 13.22821-34.74488 29.8863-67.80858 50.02637-99.05041 14.47998-22.4617 30.4071-43.85972 48.47418-63.63786 17.9563-19.65707 36.72174-38.41673 57.74579-54.83493C972.8673 4.8159 973.7757 2.7057 975 1h14.53387c-.93212 10.14175-2.24096 20.29687-3.75409 30.42145-1.48675 9.94807-3.16162 19.86831-4.79437 29.79411-.60284 3.66427-1.32104 7.30956-2.4281 11.3789-2.54169 1.64043-5.02356 2.4865-6.67847 4.15356-9.02087 9.08703-18.28594 17.99177-26.61346 27.692-10.67218 12.43132-21.07281 25.17132-30.6264 38.47084-17.28943 24.0687-31.73938 49.81788-44.12842 76.8017-12.65375 27.56039-22.76203 55.96255-30.45221 85.23455-6.68945 25.46247-11.81427 51.25089-14.12616 77.52307-1.40625 15.9812-3.20941 31.95752-3.79279 47.97394-.82788 22.73276-.06225 45.47574 2.85749 68.08417 2.01025 15.56662 3.4884 31.23874 6.34906 46.65127 5.9693 32.16095 14.35046 63.73688 26.69055 94.09559 6.56335 16.14697 13.9137 31.97827 21.16101 47.83679.77814 1.70257 3.2453 2.63318 4.92883 3.92193-2.06451 13.02405-4.05896 26.05964-6.21301 39.06885-2.22943 13.46411-4.60394 26.90418-6.95148 40.3484-.16449.94231-.6303 1.83196-1.37799 3.10522-1.91394-1.13623-3.68847-2.43934-4.85608-4.15552-20.09363-29.5348-35.82708-61.39374-49.50927-94.2771-13.48151-32.4013-23.7243-65.87079-30.65754-100.27033-3.1314-15.53631-5.1032-31.30633-7.60113-46.97033z"/><path fill="#25539C" d="M391.5467 444.1738c.7145 1.32028 1.37634 2.85779 1.40282 4.40613.1168 6.82574-.05807 13.6567.07364 20.48187.25626 13.281.41135 26.57068 1.044 39.83597.74098 15.53741 1.43964 31.10583 3.06123 46.56591 2.91064 27.75019 6.2749 55.45826 9.85507 83.13147 4.83804 37.39624 11.76321 74.42713 20.78555 111.0467 3.91712 15.89855 8.13657 31.7226 12.22486 47.96936C405.97909 798 371.95822 798 337.46866 798c1.19559-10.09607 2.87128-20.19025 4.52112-30.2887 1.99365-12.20263 4.06094-24.39422 5.9194-36.61755 1.81314-11.92505 3.33289-23.8946 5.11746-35.82428 1.08164-7.23077 2.44284-14.4195 3.62692-21.63556.2281-1.38995.21647-2.81921.34739-4.68677H225.61192c6.60018-43.4671 13.12014-86.40594 19.70531-129.77435h131.75873c4.73816-31.79114 9.43185-63.28397 14.47073-94.999z"/><path fill="#254D9B" d="M1 263.375c.99965-5.7153 2.10334-11.03865 2.97658-16.39955 1.64865-10.12132 3.2016-20.25868 4.72534-30.39975 1.47753-9.83348 2.84223-19.68389 4.30478-29.51969 1.43643-9.66007 2.9104-19.31475 4.41068-28.96513 1.49958-9.64592 3.04621-19.28453 4.58576-28.92418.37484-2.34704.8027-4.6856 1.1997-6.99045h146.75273c-1.0619 7.5679-2.0236 14.924-3.14008 22.25655-1.54375 10.13873-3.1992 20.26051-4.81567 30.38812-1.9743 12.36955-4.06314 24.72196-5.90746 37.11081-1.82506 12.2597-3.39793 24.55684-5.1008 36.83487-.6494 4.68247-1.34112 9.35916-2.03496 14.03531-.49797 3.3562-2.92868 3.23193-5.5211 3.22845-33.49954-.04513-66.99917-.02996-100.49878-.02984-13.66647.00006-27.33294.00052-41.46806.00015C1 265.25 1 264.5 1 263.375z"/><path fill="#276CA3" d="M588.59998 1c-1.37275 11.56952-3.03547 23.15727-4.94782 34.70369-2.09515 12.65054-4.43292 25.2608-6.64264 37.89253-2.26697 12.95908-4.54883 25.9158-6.74133 38.88755-1.10889 6.56102-2.0348 13.15297-3.169 20.54965 34.67968 0 69.32165 0 104.3817.42657-14.61187 39.01772-27.70758 78.21814-37.06542 118.61333-1.09687 4.73482-2.48676 9.28789.57507 13.76106-34.05664.05643-68.11328.11856-102.16992.1659-10.63324.0148-21.26648-.01041-32.41281-.46134-.68625-1.71982-1.16947-3.04422-.9784-4.26294.79248-5.05524 1.50846-10.14903 2.75507-15.1022 8.56164-34.0178 16.07754-68.35655 26.17642-101.916 14.59888-48.51303 32.73303-95.79629 56.28851-140.82152.35865-.68561.24427-1.6187.35059-2.43628h3.59998z"/><path fill="#265FA0" d="M584.53137 1c.3623.81759.47669 1.75067.11804 2.43628-23.55548 45.02523-41.68963 92.3085-56.2885 140.82152-10.09889 33.55945-17.61479 67.8982-26.17643 101.916-1.24661 4.95317-1.96259 10.04696-2.75507 15.1022-.19107 1.21872.29215 2.54312.51459 4.18857-3.42847.36963-6.90622.36963-10.77942.36963l20.00827-131.59004H433.7631c.853-5.91704 1.52036-11.30073 2.42111-16.64511 2.2135-13.13355 4.50132-26.25487 6.8216-39.37005 2.23413-12.62826 4.6406-25.22664 6.79584-37.86805 1.85827-10.89968 3.46505-21.84218 5.19427-32.76398.30392-1.91969.66324-3.83061 1.00055-6.17128C498.68756 1 541.37512 1 584.53137 1z"/><path fill="#288AAB" d="M974.53137 1c-.75567 1.7057-1.66406 3.8159-3.25195 5.05595-21.02405 16.4182-39.7895 35.17786-57.74579 54.83493-18.06708 19.77814-33.9942 41.17616-48.47418 63.63786-20.14008 31.24183-36.79816 64.30553-50.02637 99.0504-4.60773 12.10236-8.67602 24.41073-12.93542 36.64428-.53882 1.54758-.73963 3.2128-1.099 5.21652-16.3603.4419-32.71857.49088-49.58466.1131-.36175-2.67227-.59118-5.02216-.00122-7.14423 1.9989-7.19063 4.1944-14.33072 6.48169-21.43638 10.81805-33.60588 24.16602-66.16832 40.3628-97.5524 1.04144-2.01808 1.8313-4.16603 2.73815-6.25357h35.4516c6.89758-44.0893 13.7204-87.70077 20.5481-131.73935C896.02087 1 935.0418 1 974.53137 1z"/><path fill="#21254A" d="M1690.99878 410.85751c-3.66064 14.44602-6.77441 28.62049-11.1488 42.3946-3.62806 11.42407-7.90552 22.80825-13.39454 33.43582-8.09228 15.66781-17.0747 30.92816-26.5343 45.81817-5.86328 9.2292-13.11279 17.61579-20.10925 26.07514-5.84937 7.07226-11.86548 14.08404-18.46008 20.4464-13.9469 13.45619-28.70069 25.93885-44.60523 37.15644-15.85302 11.18121-32.4491 20.9472-49.85449 29.34363-18.84839 9.09247-38.51404 16.34723-58.80286 21.25201-14.7672 3.56983-30.06213 4.99744-45.15246 7.16742-4.86194.6991-9.81983.98401-14.73645 1.01319-66.57642.39508-133.15344.71173-199.73023 1.04644-1.65112.0083-3.30224.00104-5.55578.00104 28.1184-178.12701 56.19543-355.99148 84.2965-534.00805h4.85132c66.48621-.00046 132.97437-.26674 199.45703.22135 13.41297.09846 26.82386 2.91703 40.20289 4.72324 25.72631 3.47312 49.66223 12.55084 72.05029 25.22952 12.40332 7.0243 23.83325 15.87972 35.22082 24.54227 6.53394 4.97041 12.47107 10.87044 18.04102 16.93588 16.50915 17.9776 29.53625 38.1805 39.25159 60.69887 6.59204 15.27915 11.33752 30.99542 14.42138 47.21457 1.7599 9.25601 2.28662 18.75067 3.27161 28.14804.46094 4.3978 1.23145 8.85675.9309 13.22394-1.09008 15.83972-2.57409 31.65237-3.91088 47.92007m-294.64575 156.142c1.41198-.33319 2.80737-.82422 4.23864-.97583 19.6123-2.07788 38.12964-8.13739 55.8938-16.30066 23.76026-10.91876 43.72681-26.9132 60.42078-47.08624 13.09436-15.82343 22.64746-33.58188 29.63599-52.7699 6.60669-18.13992 10.83606-36.93023 12.23962-56.12692.84058-11.49674-.24902-23.15912-.82983-34.7291-.73743-14.69247-5.14026-28.57086-11.40247-41.68408-6.15222-12.88324-14.06848-24.7966-25.59326-33.67978-7.52893-5.80325-15.0459-11.78567-23.23755-16.53308-20.70642-12.00041-43.79895-16.32565-67.23999-17.89227-16.90417-1.12975-33.9447-.22016-51.49145-.22016C1362.0542 355.66751 1345.14453 462.18626 1328.18799 569c1.98389 0 3.63757.04553 5.28796-.0069 20.65332-.65619 41.30603-1.32647 62.87708-1.99359zm801.6748 79.7826c2.20435 9.8297 4.3855 19.22564 6.70703 29.22564h-5.77246c-42.33252 0-84.66504-.05157-126.99707.08344-4.03784.01288-5.24878-1.00592-6.15893-5.2143-4.7024-21.74493-16.63965-37.4751-38.00013-46.04474-18.61596-7.4685-37.9265-8.06121-57.11682-6.55822-38.21423 2.9928-74.73999 14.07672-110.65026 26.89648-17.36378 6.19885-34.23145 13.79895-51.2649 20.90534-6.66052 2.7788-13.14209 5.9837-19.74768 8.89825-1.29577.57171-2.7865.99011-4.18786.9917-43.82642.0512-87.65296.04199-132.23682.04199 3.67578-7.19073 7.0238-14.03137 10.63306-20.73132 5.1914-9.63703 10.62683-19.1424 15.86206-28.75623 11.15808-20.49017 22.21264-41.03668 33.38696-61.51782 11.77722-21.58606 23.69214-43.09717 35.4513-64.693 5.23254-9.60992 10.12585-19.40447 15.35668-29.01534 11.83472-21.74497 23.83228-43.40137 35.66785-65.14585 7.23218-13.28674 14.22534-26.70343 21.43579-40.00213 12.3457-22.77027 24.83118-45.46494 37.15808-68.24534 11.8628-21.92263 23.5603-43.93463 35.40454-65.86729 8.17957-15.14668 16.47766-30.22943 24.73706-45.33289 7.7185-14.11433 15.40186-28.24876 23.28186-42.2726.6748-1.20107 2.70984-2.32522 4.11573-2.32856 47.16528-.11205 94.33068-.0839 141.49621-.06525.3164.00012.63281.1533 1.24878.31244 2.70166 12.09392 5.4729 24.30826 8.15161 36.54282 2.8252 12.9036 5.55982 25.827 8.33862 38.74072 3.55616 16.52605 7.0337 33.06961 10.70362 49.57036 2.86523 12.88254 6.11206 25.68072 8.9375 38.5716 3.48486 15.89986 6.64477 31.87072 10.05981 47.78628 5.9524 27.74063 11.91211 55.48013 18.02222 83.18628 4.5122 20.4594 9.37573 40.84128 13.88623 61.30102 5.13501 23.29492 10.01636 46.64563 15.073 69.95795 5.29053 24.38971 10.66113 48.76202 15.98681 73.1441.37671 1.72461.67359 3.46668 1.03052 5.63446M1892.516 522.99158c10.36804-3.42218 20.65674-7.11322 31.12293-10.20282 15.2611-4.50504 30.83166-7.52442 46.81677-7.76657 8.3291-.12622 16.71728-.6226 24.97803.13977 8.98437.82916 17.9386 2.55206 26.73925 4.60156 5.64441 1.31445 10.9873 3.92392 16.74585 6.0568-1.92834-9.27412-3.844-18.21644-5.64013-27.18269-3.46167-17.27862-6.84156-34.5736-10.2815-51.8566-3.40515-17.10784-6.8197-34.21386-10.2732-51.31197-3.21227-15.90555-6.48485-31.7989-9.72338-47.69913-2.34839-11.52905-4.55432-23.09003-7.14563-34.56406-.47375-2.0983-.30493-5.48227-4.4419-5.27808-4.09448.20218-8.0609-.55145-10.30749 4.45041-3.02551 6.73588-6.5492 13.26008-10.0819 19.75385-11.7549 21.60727-23.66456 43.13046-35.40235 64.74707-5.6731 10.44794-10.98535 21.09186-16.65271 31.5431-12.5796 23.19799-25.26917 46.33636-37.93921 69.48519-3.15589 5.766-6.48926 11.43573-9.59839 17.22635-6.49731 12.10104-12.89978 24.25302-19.88843 37.41513 2.81946-1.54663 4.6416-2.6612 6.5581-3.5788 11.19264-5.35876 22.40748-10.67126 34.4153-15.97851zm504.46814-273.99124h-135.29175c5.57569-35.6831 11.09229-70.98923 16.66675-106.66468h424.04395c-5.54102 35.51937-11.05396 70.85945-16.62452 106.56725h-147.65625c-1.7412 10.48097-3.4895 20.6464-5.10644 30.83266-1.85523 11.68527-3.5857 23.39031-5.38648 35.08435-1.531 9.94476-3.083 19.88635-4.62866 29.82888-1.69263 10.88916-3.35058 21.78382-5.09375 32.66486-1.58691 9.90619-3.2666 19.79748-4.90674 29.6951-2.30468 13.9067-4.69677 27.79959-6.8872 41.72418-1.51416 9.62274-2.66895 19.30151-4.13306 28.93262-1.67798 11.03485-3.53271 22.0427-5.28687 33.06607-1.58056 9.93433-3.11718 19.87573-4.69604 29.81042-1.75513 11.04444-3.5354 22.08496-5.30493 33.12702-1.56323 9.7528-3.104 19.50915-4.69702 29.25708-2.2754 13.92029-4.63819 27.82641-6.86841 41.75384-1.4624 9.13092-2.8982 18.27124-4.03687 27.44568-.32544 2.62134-.86694 3.9206-3.7583 3.917-41.63696-.05183-83.27392-.03553-125.4099-.03553a198526323.1957 198526323.1957 0 0 0 67.5288-427.0068h-12.4663z"/><path fill="#2AA0B1" d="M884.46228 690.80676c-2.01947-1.06164-4.48663-1.99225-5.26477-3.69482-7.24731-15.85852-14.59766-31.68982-21.16101-47.8368-12.34009-30.3587-20.72125-61.93462-26.69055-94.09557-2.86066-15.41254-4.3388-31.08466-6.34906-46.65128-2.91974-22.60843-3.68537-45.35141-2.85749-68.08417.58338-16.01642 2.38654-31.99273 3.79279-47.97394 2.31189-26.27218 7.4367-52.0606 14.12616-77.52307 7.69018-29.272 17.79846-57.67416 30.4522-85.23456 12.38905-26.9838 26.839-52.733 44.12843-76.8017 9.55359-13.2995 19.95422-26.03951 30.6264-38.47083 8.32752-9.70023 17.5926-18.60497 26.61346-27.692 1.65491-1.66706 4.13679-2.51313 6.5965-3.7461-1.07934 9.64639-2.50586 19.3026-3.9605 28.95457-1.52815 10.14001-3.0832 20.27597-4.72749 31.07673 10.72644 0 21.00208 0 31.6991.4002-1.46655 2.20766-3.41315 3.95818-5.2334 5.83146-18.32648 18.86033-34.51916 39.43426-48.52533 61.66467-16.52874 26.2342-30.40692 53.8312-40.83014 83.07683-9.98126 28.00558-18.16833 56.50683-22.02978 86.07037-2.20374 16.87192-5.01941 33.7684-5.61255 50.72193-.9051 25.86862-1.29187 51.86056 2.77722 77.58352 2.9682 18.76343 5.42896 37.69531 9.95288 56.10053 4.9405 20.09997 11.01984 40.05469 18.43048 59.37164 6.31476 16.46033 11.40125 33.95429 24.57935 46.98444h-45.57343c-1.5835 10.18548-3.10357 19.9632-4.95947 29.96795z"/><path fill="#2AADB4" d="M935.45947 660.909c-13.6424-13.10034-18.72888-30.5943-25.04364-47.05463-7.41064-19.31696-13.48999-39.27167-18.43048-59.37164-4.52392-18.40521-6.98468-37.3371-9.95288-56.10053-4.0691-25.72296-3.68231-51.7149-2.77722-77.58352.59314-16.95353 3.40881-33.85001 5.61255-50.72193 3.86145-29.56354 12.04852-58.06479 22.02978-86.07037 10.42322-29.24562 24.3014-56.84262 40.83014-83.07683 14.00617-22.2304 30.19885-42.80434 48.52533-61.66467 1.82025-1.87328 3.76685-3.6238 5.69739-5.76522 26.73389-.37796 53.42517-.422 80.53809-.06228-1.53406 2.11658-3.32325 4.08084-5.47095 5.50352-22.12683 14.65662-41.77576 32.04474-59.49976 51.83867-16.25226 18.15033-30.02057 37.96323-42.24505 58.91176-2.9582 5.06946-4.87879 10.74443-7.27655 16.14098h-18.41773c-13.2417 87.0718-26.40698 173.6415-39.29913 260.95578 8.42395.9052 16.57477 1.06591 24.72406 1.65918.20093 2.23565.14581 4.11383.64569 5.83026 5.0011 17.17267 9.25964 34.6214 15.35113 51.40295 9.68366 26.67798 21.7071 52.33197 38.99384 75.15582-18.02344.04767-36.04681.09528-54.5346.0727z"/><path fill="#287FA8" d="M652.99469 528.16748c25.35773-.04578 50.7154-.0915 76.53845.36853.47937 2.17114.24597 3.88245.54468 5.49512 4.27301 23.06872 7.60199 46.37518 13.2204 69.11487 6.07178 24.57464 13.81207 48.77758 21.76251 72.83264 4.98822 15.0924 11.29083 29.79797 17.76764 44.33673 5.87866 13.19635 12.52356 26.07495 19.32861 38.82788 5.91767 11.09003 12.5315 21.80853 18.83765 32.69122h-87.1203c7.456-43.56555 14.87207-86.89813 22.39282-130.84228-26.46771 0-52.40692 0-78.85968-.44568-1.5238-4.10877-2.5371-7.771-3.54388-11.43506-9.45948-34.42328-16.0556-69.42096-20.70642-104.78687-.69715-5.30114-.1396-10.76727-.16248-16.1571z"/><path fill="#2774A5" d="M652.5307 528.09955c.48688 5.45776-.07068 10.92389.62647 16.22503 4.65081 35.36591 11.24694 70.3636 20.70642 104.78687 1.00677 3.66406 2.02008 7.3263 3.07965 11.36347-39.30896.42065-78.66712.46722-118.48963.43926-9.52496-13.08251-9.35546-28.70312-12.27142-43.34588-3.7044-18.60236-6.28955-37.43585-9.04718-56.21515-1.39044-9.46863-2.1424-19.03327-3.05652-28.56665-.11945-1.24567.51758-2.5639.85797-4.23407 31.1073-.44055 62.16083-.50037 93.21442-.5473 7.97192-.01203 15.9439.01654 24.37982.09442z"/><path fill="#2888AB" d="M821.45886 791.90637c-6.77038-10.95459-13.38421-21.6731-19.30188-32.76312-6.80505-12.75293-13.44995-25.63153-19.32861-38.82788-6.4768-14.53876-12.77942-29.24433-17.76764-44.33673-7.95044-24.05506-15.69074-48.258-21.76251-72.83264-5.61841-22.73969-8.94739-46.04615-13.2204-69.11487-.2987-1.61267-.0653-3.32398-.08075-5.427 15.3443-.49769 30.69012-.55774 46.49939-.66944 2.9613 15.61237 4.9331 31.38239 8.06451 46.9187 6.93323 34.39954 17.17603 67.86902 30.65754 100.27033 13.68219 32.88336 29.41564 64.7423 49.50927 94.2771 1.1676 1.71618 2.94214 3.01929 4.76996 4.55865-.3227 5.1925-.73706 10.39362-1.82794 15.4488-.24298 1.12591-2.8565 2.45416-4.39496 2.4749-13.7818.18623-27.56738.10066-41.81598.0232z"/><path fill="#2BB5B7" d="M968.46057 265.9024c1.93341-5.46664 3.854-11.14161 6.8122-16.21107 12.22448-20.94853 25.9928-40.76143 42.24505-58.91176 17.724-19.79393 37.37293-37.18205 59.49976-51.83867 2.1477-1.42268 3.93689-3.38694 5.93493-5.43658 6.83728-.33682 13.63196-.33682 21.3064-.33682-6.75049 44.34202-13.45666 88.39238-20.2179 132.80497-38.63012 0-76.8731 0-115.58044-.07006zm21.99805 395.0036c-17.75128-22.89355-29.77472-48.54754-39.45838-75.22552-6.09149-16.78155-10.35003-34.23028-15.35113-51.40295-.49988-1.71643-.44476-3.5946-.17761-5.83478 36.44305-.45398 72.41656-.47089 108.39007-.4878-.97436 7.95844-1.79223 15.94007-2.96264 23.86963-1.4779 10.01069-3.29065 19.9715-4.87232 29.96753-2.04321 12.9129-4.08606 25.8269-5.97082 38.76355-1.81678 12.47101-3.42652 24.97211-5.15784 37.4557-.06226.44836-.45032.85156-1.05017 1.73711-.58264.62458-.7362.83557-.82428 1.09424-10.70014.04437-21.4002.08869-32.56488.0633z"/><path fill="#21A0A0" d="M1043.69775 527.56006c-35.80969.4118-71.7832.42871-108.22479.45013-8.61883-.15619-16.76965-.3169-25.18579-.80432 42.25-.28644 84.76544-.24829 127.28082-.19916 1.98865.00232 3.97742.10334 6.12976.55335z"/><path fill="#2AADB4" d="M1023.27197 660.8595c-.1604-.27546-.00683-.48645.38819-.74073.33001.28833.22479.57117-.38819.74073z"/><path fill="#287EA8" d="M800.53137 133.0991c-.4428 2.1549-1.23266 4.30285-2.2741 6.32093-16.19678 31.38408-29.54475 63.94652-40.3628 97.5524-2.2873 7.10566-4.48279 14.24576-6.48169 21.43638-.58997 2.12207-.36053 4.47196-.46283 7.0716-38.31445.40375-76.67285.4533-115.4953.4284-3.52594-4.5476-2.13605-9.10067-1.03918-13.8355 9.35784-40.39518 22.45355-79.5956 37.52923-118.54682 26.78913-.41542 53.53266-.48592 80.27619-.52046 15.94873-.02059 31.89758.01526 48.31048.09308z"/><path fill="#254F9B" d="M332.9943 408.83383h-85.41557l21.81803-143.80795c25.4701 0 51.07074 0 77.12686.46136-2.24832 15.73545-5.39368 30.94763-7.54526 46.29908-2.74725 19.60159-4.71408 39.31308-6.97015 58.9826-.7145 6.22962-1.7796 12.4772-1.77191 18.71542.008 6.50107-2.5207 13.54535 2.758 19.3495z"/><path fill="#26579E" d="M333.4582 408.90784c-5.7426-5.87815-3.2139-12.92243-3.2219-19.4235-.0077-6.23822 1.0574-12.4858 1.7719-18.71542 2.25608-19.66952 4.22291-39.38101 6.97016-58.9826 2.15158-15.35145 5.29694-30.56363 8.00894-46.22895 22.79532-.39123 45.58246-.39123 69.47382-.39123-7.27206 47.94214-14.50375 95.6184-21.81451 143.81573-20.1909 0-40.4577 0-61.18842-.07403z"/><path fill="#FFF" d="M2801.33691 540.19885c-1.0481.79651-1.77563 1.38678-2.50317 1.97705-.33179-.22491-.66382-.44983-.9956-.67474 1.06811-1.75403 2.2251-3.46051 3.1892-5.2699 5.67212-10.6449 11.19605-21.36981 16.9629-31.96268 11.60888-21.32421 23.40454-42.54678 34.99584-63.88043 5.604-10.31454 10.7876-20.85775 16.39478-31.17053 12.13867-22.3256 24.47363-44.54452 36.63794-66.85638 7.00122-12.8418 14.04932-25.668 20.59985-38.73987 2.07617-4.14334 4.04566-6.74387 8.99707-5.65546 1.2605.27704 2.63355.04154 5.33399.04154 14.63843 72.79309 29.28418 145.62274 43.95874 218.59515-10.92261-6.09915-22.52613-9.52399-34.8374-10.60806-7.4922-.65976-15.00464-2.0722-22.47144-1.86072-22.93701.64966-45.42066 4.29868-67.40772 11.15842-20.33886 6.3454-39.56713 15.17889-58.85498 24.90661zm-1405.44287 26.8009c-21.11206.66688-41.76477 1.33716-62.41809 1.99335-1.65039.05243-3.30408.0069-5.28796.0069 16.95654-106.81375 33.8662-213.33249 50.79932-319.9985 17.54675 0 34.58728-.9096 51.49145.22015 23.44104 1.56662 46.53357 5.89186 67.23999 17.89227 8.19165 4.7474 15.70862 10.72983 23.23755 16.53308 11.52478 8.88318 19.44104 20.79654 25.59326 33.67978 6.2622 13.11322 10.66504 26.99161 11.40247 41.68408.5808 11.56998 1.6704 23.23237.82983 34.7291-1.40356 19.19669-5.63293 37.987-12.23962 56.12692-6.98853 19.18802-16.54163 36.94647-29.63599 52.7699-16.69397 20.17303-36.66052 36.16748-60.42078 47.08624-17.76416 8.16327-36.2815 14.22278-55.8938 16.30066-1.43127.15161-2.82666.64264-4.69763.97608zm496.22168-44.01867c-11.60754 5.31775-22.82238 10.63025-34.01501 15.98901-1.9165.9176-3.73865 2.03217-6.5581 3.5788 6.98864-13.16211 13.3911-25.31409 19.88842-37.41513 3.10913-5.79062 6.4425-11.46036 9.59839-17.22635 12.67004-23.14884 25.35962-46.2872 37.9392-69.4852 5.66737-10.45123 10.97962-21.09515 16.65272-31.54309 11.7378-21.6166 23.64746-43.1398 35.40234-64.74707 3.53272-6.49377 7.0564-13.01797 10.08191-19.75385 2.24658-5.00186 6.21301-4.24823 10.3075-4.4504 4.13696-.2042 3.96814 3.17977 4.44189 5.27807 2.5913 11.47403 4.79724 23.035 7.14563 34.56406 3.23853 15.90024 6.5111 31.79358 9.72339 47.69913 3.45349 17.0981 6.86804 34.20413 10.2732 51.31198 3.43993 17.28299 6.81982 34.57797 10.28149 51.8566 1.79614 8.96624 3.71179 17.90856 5.64013 27.18267-5.75854-2.13287-11.10144-4.74234-16.74585-6.0568-8.80066-2.04949-17.75488-3.7724-26.73925-4.60155-8.26075-.76236-16.64893-.266-24.97803-.13977-15.9851.24215-31.55567 3.26153-46.81677 7.76657-10.4662 3.0896-20.75489 6.78064-31.5232 10.19232z"/></svg>