<svg xmlns="http://www.w3.org/2000/svg" role="img" viewBox="370.92 183.42 524.16 375.16"><title>HPMicro (member) logo</title><defs><clipPath id="a" clipPathUnits="userSpaceOnUse"><path d="M0 540h958.11V0H0z"/></clipPath></defs><g clip-path="url(#a)" transform="matrix(1.33333 0 0 -1.33333 0 720)"><path fill="#00469b" d="M358.894 223.097h4.383v-4.798h9.892v-3.762h-9.892v-4.65h11.729v-3.791h-8.234v-6.042c0-1.165.405-1.737 1.214-1.718h1.304c.582 0 1.029.233 1.34.697.311.463.644 1.999.999 4.605 1.343-.572 2.617-1.066 3.821-1.48-.612-3.358-1.259-5.462-1.94-6.317-.681-.853-1.654-1.296-2.917-1.325h-3.317c-3.219 0-4.828 1.511-4.828 4.531v7.049h-4.028c-.04-5.884-3.11-10.05-9.211-12.498-1.046 1.264-2.064 2.429-3.051 3.495 5.174 1.935 7.809 4.936 7.908 9.003h-7.73v3.791h12.558v4.65h-6.264c-.721-1.421-1.516-2.734-2.384-3.939-1.501 1.066-2.607 1.816-3.317 2.251 2.132 3.258 3.632 6.496 4.501 9.715l3.969-.829c-.336-1.196-.711-2.34-1.126-3.436h4.621zm51.435-23.339v1.6h-7.493v-1.807c2.665.079 5.163.148 7.493.207m-7.493 4.146h7.493v1.718h-7.493zm0 4.265h7.493v1.718h-7.493zm8.203 10.722h-8.648v-1.776h8.648zm-12.439 2.991h16.23v-7.76H398.6zm-1.895-25.737l-.119 3.317c.77 0 1.531.01 2.281.029v10.396h-1.481v2.933h18.777v-2.933h-1.865v-9.981c.848.039 1.678.08 2.488.119-.08-1.225-.139-2.31-.178-3.258-.751 0-1.521-.01-2.31-.03v-2.813h-3.969v2.725c-3.969-.12-8.51-.287-13.624-.504m-9.596 9.773c1.421 2.705 2.616 5.489 3.583 8.353h-2.991v3.673h3.199v5.093h3.613v-5.093h2.784v-3.673h-2.784v-2.429c1.283-1.007 2.478-1.965 3.584-2.873l-2.251-2.902c-.455.552-.899 1.086-1.333 1.599v-13.802H390.9v12.825c-.829-2.153-1.777-4.216-2.843-6.191-.336 2.251-.652 4.058-.948 5.42m65.651 16.35l3.436-2.606c-1.856-2.094-3.92-4.276-6.19-6.546l-2.903 2.577c1.994 1.974 3.88 4.166 5.657 6.575m-19.666-.119c2.053-2.093 3.969-4.205 5.746-6.338l-3.288-2.665c-1.698 2.191-3.534 4.353-5.509 6.485zm-4.472-17.296h12.202v3.731h-10.988v3.91h10.988v10.425h4.65v-10.425h11.018v-3.91h-11.018v-3.731h12.232v-3.91h-12.232v-6.989h-4.65v6.989h-12.202zm47.969 11.373h14.188v2.221h-14.188zm2.31-5.569h13.328c.8 0 1.431.143 1.896.43.464.286.76.698.889 1.236.128.538.276 1.523.444 2.954.849-.315 2.053-.701 3.613-1.155-.425-2.191-.748-3.618-.97-4.279-.222-.661-.555-1.188-.999-1.577-.445-.391-1.02-.682-1.726-.874-.706-.193-1.538-.288-2.495-.288h-14.75c-3.791 0-5.687 1.717-5.687 5.153v9.714h22.481v-9.003h-18.334v-.297c0-1.343.77-2.014 2.31-2.014m-3.998-10.099l.859.918h-6.072v3.672h20.051v1.303h4.147v-1.303h5.272v-3.672h-5.272v-2.488c0-1.451-.373-2.579-1.118-3.384-.746-.804-1.775-1.256-3.087-1.355-1.314-.099-3.2-.148-5.658-.148-.355 1.56-.701 2.883-1.037 3.968 1.946-.118 3.436-.177 4.473-.177 1.54 0 2.3.751 2.28 2.251v1.333h-10.633c.889-.741 1.797-1.531 2.726-2.37l-2.548-2.695c-1.343 1.323-2.804 2.705-4.383 4.147m55.788 12.112v-10.1h4.457c-1.797 2.746-3.282 6.112-4.457 10.1m-8.308-10.1h4.399v10.263c-.948-3.762-2.414-7.182-4.399-10.263m-6.678 20.437l3.82-.978c-.661-2.527-1.382-4.881-2.162-7.063v-12.04c3.159 3.298 5.504 7.158 7.034 11.581h-5.346v3.702h7.731v4.798h3.909v-4.798h8.529v-3.702h-6.382c1.5-4.196 4.023-7.908 7.568-11.137-.85-1.283-1.709-2.685-2.577-4.205-.79.819-1.531 1.728-2.222 2.725v-3.051h-4.916v-4.976h-3.909v4.976h-4.769v3.169c-.76-1.136-1.59-2.221-2.488-3.258-.582.948-1.303 2.068-2.162 3.361v-8.188h-3.554v13.031c-.632-1.136-1.284-2.191-1.955-3.169-.237 1.797-.553 3.662-.947 5.598 1.559 2.922 3.159 7.464 4.798 13.624"/><path fill="#f5a200" d="M542.823 287.184c-1.287-1.287-2.846-1.93-4.676-1.93-1.831 0-3.388.643-4.676 1.93-1.287 1.287-1.93 2.844-1.93 4.675s.643 3.39 1.93 4.676c1.288 1.287 2.845 1.931 4.676 1.931 1.83 0 3.389-.644 4.676-1.931 1.286-1.286 1.93-2.845 1.93-4.676s-.644-3.388-1.93-4.675m-243.266 8.85H286v-15.919h13.557z"/><path fill="#00469b" d="M476.23 379.251c7.27 1.988 14.623 3.651 22.052 4.731 7.423 1.095 14.883 1.826 22.343 2.027 7.458.142 14.904-.239 22.233-1.246 14.629-2.015 28.891-6.588 41.062-14.355 12.166-7.724 21.909-18.901 27.582-31.972 5.652-12.865 7.447-27.31 6.049-41.544h11.376c1.248 15.474-.755 31.607-7.423 46.037-6.795 14.959-18.33 27.635-32.191 36.075-13.847 8.566-29.643 13.046-45.36 14.719-15.767 1.702-31.623.717-46.965-2.278-7.688-1.442-15.236-3.475-22.652-5.833-7.427-2.337-14.69-5.139-21.773-8.306-28.275-12.756-53.971-30.961-74.739-53.563 22.547 20.761 48.728 37.317 76.928 48.332 7.046 2.749 14.195 5.221 21.478 7.176m73.007-193.691c-23.242-18.866-50.118-33.442-78.825-42.063-14.369-4.209-29.218-6.892-44.162-7.407-14.916-.582-30.01 1.048-44.131 5.86-14.126 4.668-27.221 12.797-37.01 24.214-9.885 11.326-16.078 25.838-18.197 41.011.505-7.643 1.943-15.291 4.561-22.593 2.605-7.308 6.407-14.204 11.131-20.441 9.45-12.546 22.931-21.824 37.563-27.549 14.705-5.739 30.533-8.068 46.206-8.112 15.72-.107 31.331 2.375 46.484 6.292 7.56 2.046 15.015 4.465 22.338 7.244 7.275 2.89 14.436 6.075 21.399 9.651 6.933 3.626 13.787 7.432 20.34 11.713 3.342 2.043 6.504 4.355 9.757 6.535 3.137 2.343 6.363 4.572 9.402 7.049 12.352 9.658 23.663 20.67 33.77 32.729 3.827 4.517 7.396 9.257 10.782 14.13h-14.116c-10.695-14.216-23.396-27.048-37.292-38.263m-16.666 53.196h11.152v41.436h-11.152zm32.47 30.025c1 1.145 2.173 2.03 3.518 2.66 1.343.628 2.816.944 4.418.944 1.944 0 3.674-.444 5.19-1.329 1.515-.887 2.902-2.16 4.161-3.819l7.206 6.606c-2.116 2.458-4.561 4.333-7.335 5.62s-5.992 1.929-9.651 1.929c-3.146 0-6.064-.544-8.751-1.63-2.689-1.086-5.019-2.603-6.991-4.545-1.973-1.947-3.518-4.262-4.633-6.951-1.115-2.688-1.673-5.604-1.673-8.75 0-3.145.558-6.062 1.673-8.75 1.115-2.689 2.66-5.006 4.633-6.948 1.972-1.946 4.302-3.462 6.991-4.548 2.687-1.086 5.605-1.63 8.751-1.63 3.659 0 6.877.644 9.651 1.93 2.774 1.287 5.219 3.16 7.335 5.619l-7.206 6.521c-1.259-1.659-2.646-2.917-4.161-3.776-1.516-.857-3.246-1.287-5.19-1.287-1.602 0-3.075.315-4.418.945-1.345.629-2.518 1.502-3.518 2.616-1.001 1.115-1.773 2.473-2.316 4.076-.544 1.6-.815 3.345-.815 5.232 0 1.888.271 3.617.815 5.191.543 1.571 1.315 2.929 2.316 4.074m40.793 6.607v4.803h-11.153v-41.435h11.153v28.567c.743.857 1.686 1.573 2.831 2.145 1.143.571 2.345.987 3.603 1.245 1.257.257 2.488.385 3.689.385 1.258 0 2.345-.115 3.26-.343v10.637c-3.032 0-5.692-.629-7.979-1.887-2.288-1.258-4.089-2.631-5.404-4.117m43.839-25.18c-1.888-2.373-4.519-3.561-7.893-3.561-3.317 0-5.906 1.188-7.763 3.561-1.86 2.373-2.789 5.477-2.789 9.309 0 3.775.929 6.864 2.789 9.264 1.857 2.403 4.474 3.604 7.849 3.604 3.316 0 5.919-1.201 7.807-3.604 1.888-2.4 2.831-5.489 2.831-9.264 0-3.832-.943-6.936-2.831-9.309m12.74 17.716c-1.059 2.63-2.546 4.947-4.461 6.95-1.917 2.001-4.247 3.587-6.992 4.761-2.746 1.172-5.806 1.758-9.18 1.758-3.375 0-6.406-.586-9.093-1.758-2.69-1.174-5.005-2.76-6.95-4.761-1.945-2.003-3.431-4.32-4.46-6.95-1.03-2.631-1.545-5.434-1.545-8.407 0-2.974.515-5.779 1.545-8.408 1.029-2.63 2.515-4.947 4.46-6.948 1.945-2.004 4.275-3.591 6.993-4.763 2.715-1.17 5.761-1.757 9.136-1.757 3.374 0 6.419.587 9.137 1.757 2.716 1.172 5.047 2.759 6.992 4.763 1.944 2.001 3.431 4.318 4.46 6.948 1.031 2.629 1.545 5.434 1.545 8.408 0 2.973-.53 5.776-1.587 8.407m-161.049 28.968c-1.773 0-3.274-.429-4.505-1.287-1.229-.858-2.216-2.003-2.96-3.432l-8.666-17.246c-2.288-4.462-4.29-8.451-6.006-11.97-1.716-3.517-3.288-6.878-4.719-10.081-1.487 3.261-3.089 6.648-4.805 10.168-1.716 3.516-3.717 7.507-6.006 11.969l-8.666 17.16c-.8 1.488-1.83 2.645-3.089 3.476-1.258.828-2.745 1.243-4.461 1.243-1.717 0-3.261-.515-4.634-1.544-1.373-1.03-2.374-2.545-3.003-4.548l-16.903-52.167h13.214l7.55 23.766c1.03 3.204 1.959 6.193 2.789 8.966.829 2.775 1.645 5.535 2.445 8.281 1.373-3.204 2.846-6.464 4.419-9.781 1.573-3.317 3.361-7.036 5.362-11.155l7.723-15.959c.515-1.086 1.058-1.944 1.63-2.574.572-.629 1.173-1.116 1.802-1.458.629-.344 1.315-.572 2.059-.687.744-.115 1.516-.172 2.317-.172.743 0 1.487.057 2.231.172.743.115 1.43.343 2.059.687.629.342 1.244.829 1.844 1.458.601.63 1.159 1.488 1.673 2.574 2.494 5.028 4.889 9.959 7.236 14.841l17.247 37.344c-.154.137-.294.289-.458.412-1.372 1.029-2.946 1.544-4.719 1.544m-162.682-58.259h13.471v45.99h46.023c4.29 0 7.722-.701 10.296-2.103 2.574-1.401 3.861-3.732 3.861-6.992 0-3.089-1.33-5.364-3.989-6.821-2.661-1.46-6.05-2.188-10.168-2.188h-30.505v-27.886h13.471v16.646h17.806c4.176 0 7.937.47 11.283 1.416 3.347.942 6.192 2.288 8.537 4.031 2.346 1.745 4.134 3.863 5.363 6.349 1.23 2.49 1.845 5.278 1.845 8.367 0 3.089-.615 5.905-1.845 8.45-1.229 2.547-3.017 4.721-5.363 6.521-2.345 1.804-5.19 3.19-8.537 4.162-3.346.974-7.107 1.459-11.283 1.459h-60.266v-22.051h-39.125v.068H286v-35.418h13.557v23.938h39.125zm185.395.215l-14.521 44.827-7.866-16.046 9.174-28.781z"/></g></svg>