<svg xmlns="http://www.w3.org/2000/svg" role="img" xmlns:xlink="http://www.w3.org/1999/xlink" viewBox="1.22 4.34 131.56 48.06"><title>iPXE (member) logo</title><defs><path d="M3.86719-31.23047h5.35937V0H3.8672zm0-11.8086h5.35937v5.97657H3.8672zm0 0" id="a"/><path d="M5.125-43.03906h19.36719c3.82812 0 6.91406 1.08203 9.25781 3.23828 2.34375 2.16016 3.51563 5.1914 3.51563 9.09766 0 3.35937-1.04688 6.28515-3.13282 8.77343-2.08984 2.49219-5.30468 3.73438-9.64062 3.73438H10.95703V0H5.125zm26.25 12.36718c0-3.16406-1.17188-5.3125-3.51563-6.4453-1.28906-.60548-3.05468-.91016-5.30078-.91016H10.95703v14.91015H22.5586c2.6172 0 4.7422-.55468 6.3711-1.66797 1.63281-1.11328 2.44531-3.07421 2.44531-5.88671zm0 0" id="b"/><path d="M8.26172 0H1.23047l15.41016-22.0625L2.1953-43.03906H9.4922l10.98437 16.46875L31.375-43.03906h6.94531L23.875-22.0625 39.02344 0h-7.23438L20.1875-17.69531zm0 0" id="c"/><path d="M5.125-43.03906h31.3789v5.27343H10.8125v13.07032h23.75781v4.97656H10.8125V-5.125h26.13281V0H5.125zm0 0" id="d"/></defs><use y="50" xlink:href="#a"/><use x="13.33" y="50" xlink:href="#b"/><use x="53.35" y="50" xlink:href="#c"/><use x="93.369" y="50" xlink:href="#d"/></svg>