<svg xmlns="http://www.w3.org/2000/svg" role="img" viewBox="102.96 130.96 1042.08 571.08"><title>IBM logo</title><path fill="#d39329" d="M123.596 599.4h1002.212v82.751H123.67l-.074-82.751z"/><path fill="#fff" d="M295.93848 663.07031v-44.70117h46.75928v5.27441h-37.58691v13.84375h32.52832v5.27539h-32.52832v20.30762h-9.17236zm82.78662-21.77148c0-7.41992 3.08887-13.22852 9.2666-17.42676 6.17773-4.19727 14.15234-6.2959 23.92383-6.2959 6.39844 0 12.16602.98633 17.30371 2.95703 5.1377 1.97266 9.05469 4.72168 11.74902 8.24902 2.69531 3.52637 4.04297 7.52637 4.04297 11.99805 0 4.5332-1.41895 8.58887-4.25586 12.16699-2.83594 3.57812-6.85547 6.28613-12.05566 8.12598-5.20117 1.83984-10.81152 2.75977-16.83203 2.75977-6.52441 0-12.35547-1.0166-17.49316-3.0498-5.1377-2.03223-9.03027-4.80664-11.67773-8.32422-2.64746-3.5166-3.97168-7.23633-3.97168-11.16016zm9.45605.0918c0 5.38672 2.24609 9.63086 6.7373 12.73047s10.125 4.64941 16.90234 4.64941c6.90234 0 12.58398-1.56445 17.04395-4.69531 4.45996-3.12988 6.69043-7.57227 6.69043-13.3252 0-3.63867-.9541-6.81543-2.86035-9.5293-1.90723-2.71289-4.69727-4.81738-8.36914-6.31152s-7.79297-2.24121-12.36328-2.24121c-6.49316 0-12.08008 1.43848-16.76074 4.31445-4.68066 2.87695-7.02051 7.67969-7.02051 14.4082zm141.03418-23.02149h9.17188v25.82617c0 4.49316-.78809 8.06055-2.36328 10.70312-1.57715 2.64258-4.4209 4.79199-8.53418 6.44922s-9.51172 2.48535-16.19336 2.48535c-6.49316 0-11.80469-.72266-15.93359-2.16504-4.12891-1.44336-7.07617-3.53223-8.84082-6.2666-1.76562-2.7334-2.64746-6.46875-2.64746-11.20605v-25.82617h9.17188v25.7959c0 3.88281.55957 6.74414 1.67871 8.58398 1.11816 1.83984 3.04102 3.25781 5.76758 4.25293 2.72656.99707 6.05957 1.49414 10 1.49414 6.74414 0 11.55176-.98535 14.41992-2.95703s4.30273-5.76367 4.30273-11.37402v-25.7959zm51.25098 44.70117v-44.70117h9.4082l36.40576 35.0957v-35.0957h8.79395v44.70117h-9.4082l-36.40576-35.12695v35.12695h-8.79395zm96.92334 0v-44.70117h23.87695c5.38965 0 9.50293.21289 12.33984.63965 3.9707.58984 7.35938 1.65723 10.16504 3.20215 3.65625 1.99219 6.38965 4.53809 8.20312 7.6377 1.81152 3.10059 2.71777 6.64258 2.71777 10.62695 0 3.39551-.61426 6.40332-1.84375 9.02539-1.22949 2.62305-2.80566 4.79297-4.72754 6.51074-1.92285 1.71777-4.02734 3.06934-6.31152 4.05469-2.28613.98633-5.04395 1.7334-8.27441 2.24121-3.23145.50879-6.94238.7627-11.13379.7627h-25.01172zm9.17283-5.27539h14.79787c4.57031 0 8.15625-.27441 10.75684-.82324 2.59961-.54883 4.67188-1.32129 6.2168-2.31738 2.1748-1.40234 3.86914-3.28809 5.08301-5.65625 1.21289-2.36816 1.82031-5.23926 1.82031-8.61426 0-4.6748-1.19043-8.26758-3.57031-10.77832s-5.27148-4.19336-8.67578-5.04688c-2.45801-.60938-6.41406-.91504-11.86719-.91504h-14.56154v34.15137zm89.21584 5.27539v-44.70117h9.17188v44.70117h-9.17188zm52.14941 0v-44.70117h9.4082l36.40527 35.0957v-35.0957h8.79395v44.70117h-9.4082l-36.40527-35.12695v35.12695h-8.79395zm129.35645-17.5332v-5.24414l29.36035-.03125v16.58789c-4.50781 2.31738-9.15723 4.06055-13.94727 5.22949-4.79199 1.16895-9.70898 1.75391-14.75195 1.75391-6.80762 0-12.99414-.94043-18.55664-2.82129-5.56348-1.87988-9.76367-4.59863-12.60059-8.15625-2.83594-3.55762-4.25488-7.53125-4.25488-11.92285 0-4.34961 1.41016-8.41016 4.23145-12.18164 2.82031-3.77051 6.87891-6.57031 12.1748-8.40039 5.29492-1.8291 11.39453-2.74414 18.29688-2.74414 5.01172 0 9.54199.52344 13.59277 1.57031 4.0498 1.04688 7.22559 2.50586 9.52734 4.37598 2.2998 1.87012 4.0498 4.30957 5.24805 7.31738l-8.27441 1.46387c-1.04004-2.27637-2.33301-4.06543-3.87695-5.36621-1.54492-1.30078-3.75098-2.34277-6.61914-3.12598-2.86816-.78223-6.05176-1.17383-9.5498-1.17383-4.19238 0-7.81738.41211-10.875 1.23535s-5.52441 1.90527-7.39941 3.24707-3.33301 2.81543-4.37305 4.42188c-1.76562 2.76465-2.64746 5.7627-2.64746 8.99512 0 3.98438 1.06348 7.31738 3.19141 10.00098s5.22461 4.67578 9.29004 5.97656c4.06641 1.30078 8.38477 1.95117 12.95508 1.95117 3.97168 0 7.84863-.49219 11.63086-1.47852 3.78223-.98535 6.64941-2.03809 8.60449-3.15625v-8.32422H957.2842z"/><path fill="#6081be" d="M1041.022 174.326H905.409l8.386-23.319h127.227v23.319zm-361.63599-23.31869h126.00003l8.18182 23.52273H679.38601c.20456-.20454 0-23.52273 0-23.52273zm-99.8182 0c20.65911 2.04545 38.86364 9.40909 54.20455 23.52273H405.4996v-23.52273h174.06821zM226.318 151.007h158.523v23.318H226.318zm814.70441 67.29578h-151.1591l8.18182-23.31819h142.97728v23.31819zM829.318 218.303H679.386v-23.318h141.546l8.386 23.318zm-177.95471-23.31841c3.06818 7.77273 6.54545 14.31818 6.54545 23.31819H405.4996v-23.31819h245.86369zM226.318 194.985h158.523v23.318H226.318zm648 67.295l8.386-23.318h113.523v23.318H874.318zm-37.841-23.318l8.386 23.318H724.181v-23.318h112.296zm-176.52281-.20468c0 7.97728-1.02273 16.36364-3.27274 23.31819h-69.13638v-23.31819h72.40912zM270.5 238.962h68.114v23.318H270.5zm180.818-.205h68.114v23.318h-68.114zm339.74986 48.68216v17.79545h-67.09093v-23.31819h127.6364l7.97726 21.68182 7.56821-21.68182h128.6591v23.31819h-66.68184v-17.79545l-6.13636 17.79545H796.99967l-5.93181-17.79545zm-339.75007-5.52274h195.34094c-4.29547 7.77273-12.06817 17.18182-19.43182 23.31819H451.31779v-23.31819zM270.5 281.916h68.114v23.318H270.5zm659.045 43.978h66.682v23.318h-66.682zm-138.47714-.0003h-67.09093v23.31819h67.09093c0-.20456.20456-23.31819 0-23.31819zm124.97731 0c-.20456 0-7.7727 23.31819-8.18182 23.31819h-94.90909l-8.38638-23.31819h111.47729zm-464.72738 0h175.50004c7.97726 6.74999 15.34091 14.93181 20.86363 23.31819H451.11325c.20454-.20456.20454-23.31819.20454-23.31819zm-112.70456 23.11363v-23.31819h-67.9091v23.31819h67.9091zM929.545 369.666h66.682v23.318h-66.682zm-205.364 0h67.091v23.318h-67.091zm168.13688 23.31861c0-.20456 8.18182-23.31817 8.38638-23.31817h-80.79547c-.20456 0 8.18182 23.31817 8.18182 23.31817s64.22727.20456 64.22727 0zm-441.00009 0v-23.31817h69.13638v23.31817h-69.13638zm206.18186-23.31817c3.27274 6.95453 3.68183 15.34091 4.29547 23.31817h-73.22729v-23.31817h68.93182zM270.704 369.666h68.114v23.318h-68.114zm658.841 42.955h111.477v23.318H929.545zm-250.159 0h111.682v23.318H679.386zm197.796 23.318h-33.955l-8.182-23.318h50.114l-7.977 23.318zm-650.86425-23.31801v23.31817H384.8405v-23.31817H226.31775zm432.61371 0c-1.63637 7.77273-3.27274 16.97728-8.79546 23.31817H405.4996v-23.31817h253.43186zM861.841 479.916h-3.069l-7.977-23.318h19.227l-8.181 23.318zm67.704-23.318h111.477v23.318H929.545zm-524.0454 23.31844v-23.31817h229.50002c-15.34091 14.72727-36.4091 22.90909-59.11363 23.31817H405.49961M679.386 456.598h111.682v23.318H679.386zm-294.54549.00027v23.31817H226.31776v-23.31817s158.31821.20456 158.52275 0z"/></svg>