<svg xmlns="http://www.w3.org/2000/svg" role="img" viewBox="-0.18 69.07 399.36 84.11"><title>Imagination Technologies Group Ltd. (member) logo</title><g fill-rule="evenodd" stroke="none"><path fill="#040404" d="M30.889 77.44c-18.788 2.726-28.567 23.321-18.785 39.564 7.871 13.069 26.289 16.587 38.063 7.269l.944-.747v-4.096c0-4.407-.053-4.574-1.02-3.179-4.527 6.533-15.949 9.184-23.946 5.558-19.73-8.946-13.353-38.585 8.299-38.578 10.009.003 17.528 6.047 19.938 16.027.324 1.34.376 3.862.448 21.354l.081 19.834 24.489-.056 24.489-.057V91.222l-20.945-.056C71.425 91.134 62 91.192 62 91.294c0 .102.246.79.546 1.529.301.739.713 2.006.916 2.816l.37 1.472h16.844c9.264 0 17.001.061 17.195.135.316.121.351 1.963.351 18.551v18.417l-.5.121c-.275.066-8.7.093-18.722.059l-18.222-.061-.125-17.444c-.11-15.299-.171-17.635-.499-18.995-3.266-13.545-15.921-22.39-29.265-20.454m281.282 24.838l-.06 4.5-1.5.065-1.5.066V112.202l1.5.066 1.5.065.058 10.723.057 10.722h5.996v-10.643c0-9.5.038-10.657.352-10.778.193-.074 1.093-.135 2-.135h1.648v-5.333h-1.648c-2.548 0-2.352.391-2.352-4.691v-4.42h-5.991l-.06 4.5m-191.118-.997L118 104.339v29.439h6.222V116c0-9.778-.026-17.778-.058-17.778-.033 0-1.433 1.377-3.111 3.059m17.815 5.035c-1.442.548-2.3 1.055-3.126 1.845-.954.914-1.298.809-1.298-.396v-.876h-5.555V133.778h6v-7.758c0-10.057.287-11.756 2.271-13.454 2.165-1.854 5.977-1.381 7.583.941 1.316 1.901 1.339 2.086 1.47 11.493l.12 8.667h6l.111-8.889.112-8.889.652-1.29c2.138-4.221 7.818-4.285 9.705-.109.526 1.164.533 1.277.643 10.177l.111 9h6l.06-8.111c.08-10.803-.149-12.655-1.882-15.272-3.458-5.219-13.412-5.834-17.058-1.053-.767 1.004-.858.986-2.246-.458-2.28-2.374-6.844-3.533-9.673-2.457m44.753.019c-13.373 2.906-14.185 23.94-1.079 27.931 3.868 1.178 8.254.303 11.642-2.322 1.774-1.375 2.038-1.297 2.038.605V134h5.334V107.111h-5.278l-.139.695c-.076.382-.139 1.082-.139 1.555 0 1.113-.168 1.087-1.594-.245-2.843-2.656-6.739-3.66-10.785-2.781m32.091-.008c-8.147 1.782-12.729 10.965-9.651 19.34 3.168 8.618 14.53 11.98 20.47 6.056 1.606-1.601 1.914-1.487 1.495.555-1.388 6.764-8.969 9.532-14.328 5.231l-1.326-1.065h-3.173c-3.642 0-3.675.019-2.83 1.612 4.978 9.394 20.746 9.202 25.536-.31 1.771-3.517 1.737-3.181 1.819-17.802l.074-13.055H228v1.667c0 2 .043 1.991-1.652.363-2.739-2.629-6.393-3.52-10.636-2.592m43.716.089c-1.356.463-2.939 1.365-3.518 2.005-.75.828-1.243.617-1.243-.532v-1h-5.556V133.778h6.222v-8.31c0-7.633.036-8.425.437-9.722 1.292-4.181 6.4-5.637 9.216-2.627 1.83 1.957 1.96 2.733 2.073 12.381l.097 8.278h5.955v-8.095c0-10.126-.251-12.237-1.773-14.898-2.132-3.726-7.753-5.788-11.91-4.369m27.352-.057c-7.251 1.753-11.621 9.614-9.798 17.628 2.281 10.028 13.049 14.016 20.885 7.735 1.67-1.338 1.656-1.342 1.734.445l.066 1.5 2.722.062 2.722.062v-26.902h-5.555v1.667c0 1.972-.06 1.994-1.594.558-2.913-2.726-7.068-3.75-11.182-2.755m59.297.071c-8.609 2.319-13.117 11.919-9.368 19.951 5.843 12.517 24.322 10.298 26.868-3.226 1.953-10.379-7.504-19.418-17.5-16.725m31.466-.108c-1.27.468-2.703 1.244-3.595 1.945-.991.781-1.281.667-1.281-.502v-.876h-5.778V133.778h6.222l.008-8.056c.009-8.747.129-9.9 1.204-11.524 2.149-3.248 6.847-3.573 8.913-.615 1.484 2.123 1.518 2.366 1.608 11.695l.081 8.5h5.99l-.08-9.389c-.097-11.372-.28-12.329-2.904-15.2-2.373-2.597-7.374-3.977-10.388-2.867m-139.099 14.122V134h6V106.889h-6v13.555m87.334 0V134h6V106.889h-6v13.555m-32.884-8.801c9.454 2.262 8.223 17.063-1.45 17.43-2.38.09-3.849-.361-5.474-1.681-7.076-5.747-1.765-17.828 6.924-15.749m-101.978.613c8.182 3.814 5.583 16.932-3.36 16.955-7.536.019-11.229-9.459-5.916-15.18 2.266-2.439 6.225-3.197 9.276-1.775m32.068.164c5.41 2.663 6.458 10.179 2.028 14.539-4.492 4.421-11.905 2.071-13.574-4.303-1.878-7.172 5.137-13.391 11.546-10.236m129.683-.165c5.532 2.608 6.719 10.546 2.203 14.727-5.386 4.986-13.771.893-13.756-6.715.011-6.074 6.346-10.468 11.553-8.012"/><path fill="#fcfcfc" d="M0 111.111v111.111h400V0H0v111.111M39.111 76.98c8.637 1.688 15.672 7.164 19.693 15.33.536 1.086.974 2.156.974 2.375 0 .22.088.455.196.521.109.067.262.448.342.847.08.399.248 1.225.374 1.836.494 2.406.6 5.914.621 20.722L61.333 134h36.223V97.556H80.583c-13.594 0-17.02-.058-17.211-.287-.131-.158-.342-.751-.469-1.319-.282-1.256-.822-2.928-1.251-3.872-.412-.907-.403-1.331.033-1.499.642-.246 42.087-.153 42.552.095.421.226.43.74.43 25.104s-.009 24.878-.43 25.103c-.505.27-49.3.325-49.723.055-.2-.127-.285-5.12-.348-20.496-.064-15.508-.15-20.54-.363-21.218-.154-.489-.481-1.539-.728-2.333C51.3 91.17 46.02 86.116 40.111 84.478c-2.249-.624-2.851-.698-5.667-.698-2.831 0-3.512.085-5.666.709-9.608 2.779-15.985 13.737-13.487 23.178.129.489.328 1.248.441 1.687 3.2 12.423 19.96 17.717 30.63 9.675 1.404-1.058 4.082-3.775 4.082-4.14 0-.405.928-.741 1.136-.412.351.554.241 8.918-.124 9.439-1.021 1.458-6.541 4.365-10.234 5.389-2.653.736-9.684 1.058-10.742.492-.248-.133-.709-.241-1.025-.241-3.528 0-10.085-3.544-14.038-7.588C.251 106.457 8.535 81.066 30.111 76.931c1.21-.232 7.744-.196 9 .049m279.511 20.398c.19.189.267 1.539.267 4.658v4.391l1.944.064 1.945.065v6l-1.945.064-1.944.064v10.614c0 7.958-.067 10.68-.267 10.88-.504.504-6.556.36-6.836-.163-.15-.279-.23-4.101-.23-10.879v-10.449l-1.5-.066-1.5-.065v-6l1.5-.066 1.5-.066v-4.227c0-2.488.094-4.403.23-4.656.28-.523 6.332-.668 6.836-.163m-194 .222c.397.397.385 35.931-.012 36.475-.247.337-.673.375-3.612.32l-3.331-.062-.057-15.204-.058-15.204 3.27-3.296c3.475-3.503 3.392-3.437 3.8-3.029m21.341 8.658c.8.381 1.979 1.212 2.664 1.875l1.229 1.19 1.187-1.122c5.549-5.248 15.958-2.939 18.463 4.097.868 2.437 1.451 20.328.708 21.717-.352.659-6.742.659-7.095 0-.147-.276-.23-3.553-.23-9.115 0-9.857-.02-10.001-1.556-11.589-1.763-1.823-4.898-1.744-6.708.169-1.472 1.556-1.514 1.876-1.514 11.442 0 5.546-.083 8.817-.23 9.093-.212.395-.495.429-3.548.429-3.052 0-3.336-.034-3.547-.429-.147-.275-.23-3.461-.23-8.818 0-8.342-.039-8.861-.797-10.641-1.157-2.719-5.989-3.413-7.743-1.113-1.265 1.659-1.296 1.916-1.402 11.667-.071 6.495-.17 9.045-.356 9.163-.451.287-6.472.202-6.769-.095-.283-.283-.41-26.88-.132-27.604.114-.297.61-.352 3.199-.352 3.309 0 3.333.009 3.333 1.259v.556l.871-.69c2.674-2.117 7.066-2.586 10.203-1.089m76.481-.418c1.233.416 2.691 1.252 3.834 2.2l1.055.875v-.986c0-1.448.154-1.506 3.808-1.435l3.192.062.058 12.423c.06 13.051.016 13.811-.974 16.738-1.481 4.383-5.176 7.977-9.417 9.161-.55.154-1.23.369-1.51.478-.694.271-5.946.253-6.863-.023-.406-.122-1.113-.334-1.571-.47-3.52-1.047-6.938-3.903-8.472-7.078-.947-1.962-.867-2.007 3.521-2.007h3.291l1.08.896c5.199 4.318 12.718 2.117 13.864-4.058l.154-.828-1.025.855c-3.15 2.628-7.937 3.453-11.691 2.016-.245-.093-.779-.296-1.187-.45-9.601-3.62-12.217-17.902-4.561-24.902 3.588-3.282 9.462-4.799 13.414-3.467m43.724.2c3.258 1.219 5.578 3.558 6.685 6.738.647 1.859.726 3.332.659 12.333l-.068 9.222-3.191.062c-4.245.082-3.807 1.042-3.816-8.367-.01-9.127-.279-10.996-1.825-12.642-2.088-2.222-6.471-1.351-7.899 1.57-.745 1.524-.777 1.904-.915 10.822l-.131 8.555H248.778v-27.777l2.969-.063c3.175-.066 3.511.026 3.629.99l.068.562.556-.434c2.795-2.18 6.86-2.808 10.168-1.571m27.364-.214c1.714.685 3.5 1.688 4.372 2.456l.985.867v-1.086c0-.597.12-1.205.267-1.352.28-.28 5.592-.392 6.27-.132.537.206.537 27.524 0 27.731-.193.074-1.64.134-3.214.134-3.237 0-3.323-.045-3.323-1.763 0-1.096.03-1.094-1.276-.091-5.773 4.432-14.049 3.33-18.426-2.453-6.252-8.259-2.968-20.807 6.29-24.036 2.141-.746 6.503-.896 8.055-.275m59.62-.025c.206.11.532.199.725.199 1.807 0 6.26 3.342 7.961 5.975 2.001 3.096 2.442 4.6 2.451 8.348.015 6.831-3.448 11.718-10.178 14.361-6.361 2.499-14.879-1.472-18.059-8.418-1.036-2.262-1.535-7.23-.93-9.266 1.876-6.325 6.352-10.483 12.322-11.447 1.296-.209 5.163-.041 5.708.248m30.83.193c3.618 1.322 5.909 3.862 7.034 7.799.495 1.733.757 20.155.291 20.45-.516.327-6.546.25-6.825-.087-.16-.192-.262-3.149-.305-8.833-.072-9.317-.127-9.756-1.448-11.509-2.061-2.734-7.034-1.9-8.385 1.408-.488 1.194-.62 3.084-.754 10.778l-.146 8.333h-6.888v-27.777H373l.069.833.069.833.82-.656c2.617-2.093 6.804-2.75 10.024-1.572m-193.682.034c1.63.578 3.356 1.568 4.287 2.457l.699.667.162-1.187c.089-.653.274-1.261.412-1.35.302-.197 5.511-.227 6.011-.036.537.206.537 27.524 0 27.731-.458.175-5.506.175-5.964 0-.26-.1-.351-.446-.351-1.334 0-1.424.053-1.407-1.276-.385-5.69 4.376-14.23 3.351-18.455-2.215-2.355-3.104-3.208-5.805-3.21-10.175-.002-2.788.083-3.267 1.017-5.757 1.507-4.011 4.854-7.09 9.368-8.616 1.318-.445 5.83-.322 7.3.2m54.7 14.416v13.889l-3.111.064c-1.711.035-3.336.008-3.611-.06l-.5-.123v-13.737c0-7.555.069-13.805.153-13.89.085-.084 1.71-.126 3.611-.092l3.458.061v13.888m87.391-.06l.057 13.829-.502.124c-.276.068-1.902.095-3.613.06l-3.111-.064-.057-13.666c-.032-7.517-.009-13.795.05-13.95.083-.217.932-.27 3.614-.223l3.504.062.058 13.828m-42.947-8.248c-7.763 1.953-8.329 13.59-.782 16.067 3.801 1.248 7.983-.58 9.291-4.062 1.053-2.804 1.151-3.731.624-5.935-1.023-4.275-5.208-7.058-9.133-6.07m-104.718.4c-6.061 2.205-6.674 12.411-.911 15.169 1.786.855 2.201.962 3.741.962s1.954-.107 3.743-.963c5.17-2.475 5.239-12.122.105-14.575-.589-.281-1.244-.6-1.457-.709-.547-.281-4.363-.196-5.221.116m31.99.14c-3.767 1.673-6.083 6.477-4.731 9.814.113.28.263.774.331 1.097.17.801 1.932 3.077 2.863 3.699 8.002 5.343 16.413-5.83 9.635-12.799-1.065-1.095-1.421-1.326-3.102-2.011-.994-.406-3.894-.29-4.996.2m130.728-.232c-.075.123-.341.223-.589.223-1.032 0-3.549 2.284-4.284 3.889-3.837 8.376 5.814 16.163 12.162 9.812 5.124-5.127 1.661-14.129-5.442-14.142-.94-.002-1.771.096-1.847.218"/><path fill="#444" d="M33.722 77.05c.397.049 1.047.049 1.445 0 .397-.05.072-.09-.723-.09-.794 0-1.119.04-.722.09m-1.997.218c.276.053.676.051.889-.004.212-.056-.014-.099-.503-.097-.489.003-.663.048-.386.101m4.778.003c.338.051.838.049 1.111-.003.273-.053-.003-.095-.614-.093-.611.001-.835.044-.497.096m-6.556.22c.276.053.676.051.889-.005.212-.056-.014-.099-.503-.097-.489.003-.662.048-.386.102m-2.614.519c-.243.165-.153.186.334.077.817-.183.994-.31.426-.306-.235.002-.576.105-.76.229m13.13-.153c.051.044.443.143.87.222.548.1.679.078.445-.076-.301-.197-1.535-.335-1.315-.146m2.329.679c1.122.489 1.834.608.875.147-.489-.235-1.039-.431-1.223-.436-.183-.004-.026.126.348.289m-18.57.575c-1.019.558-.75.561.476.005.533-.242.819-.438.635-.435-.183.002-.683.196-1.111.43m21.955.842c5.115 2.602 9.655 7.282 12.055 12.428.411.881.784 1.566.83 1.52.174-.174-1.426-3.211-2.698-5.123-2.404-3.614-6.853-7.535-10.417-9.181-1.691-.78-1.538-.544.23.356m-23.788-.048c-.862.467-.764.629.111.184.838-.426.986-.537.704-.525-.112.005-.479.159-.815.341m-2.611 1.553c-2.619 1.79-3.737 2.801-5.884 5.32-1.607 1.885-4.275 6.706-4.036 7.292.075.185.112.176.124-.028.024-.388 1.281-2.981 2.123-4.381 1.815-3.014 4.683-5.99 7.622-7.908 1.888-1.233 1.995-1.314 1.699-1.296-.112.008-.854.458-1.648 1.001m12.241 1.734c.05.044 1.592.128 3.425.186 1.876.06 2.848.033 2.223-.061-1.128-.169-5.818-.273-5.648-.125m-1.405.299c.276.053.676.051.889-.005.212-.056-.014-.099-.503-.097-.489.003-.663.048-.386.102m-2.457.602c-.83.285-1.58.597-1.666.693-.087.095.042.098.287.005.244-.092 1.069-.368 1.833-.611.764-.244 1.389-.484 1.389-.534 0-.157-.292-.086-1.843.447m10.954-.325c.183.124.525.227.759.229.569.004.392-.123-.426-.306-.486-.109-.576-.088-.333.077m4.593 1.752c2.684 1.399 5.664 3.956 7.204 6.18.863 1.246 2.419 4.322 2.423 4.787.001.207.096.433.21.504 1.028.635-1.854-4.764-3.69-6.912-1.855-2.172-6.844-5.675-8.013-5.628-.094.004.746.485 1.866 1.069m-18.345-.287c-2.074.9-5.925 4.214-7.346 6.323-1.022 1.514-1.177 1.777-1.049 1.777.055 0 .434-.525.841-1.166 1.493-2.352 5.152-5.609 7.473-6.652.519-.234.944-.47.944-.525 0-.133.007-.135-.863.243m36.493 6.004c-.073.192-.026.456.106.588.171.171.204.103.114-.239l-.124-.477 20.97.057 20.971.056V140.333l-24.499.057-24.499.056-.058-18.945-.059-18.945.002 19 .002 19 24.222.061c13.322.033 24.447.006 24.722-.06l.5-.121v-24.639c0-22.262-.034-24.651-.351-24.773-.915-.351-41.882-.143-42.019.213m.395 1.207c.005.184.201.734.436 1.223.235.489.365.645.288.347-.208-.813-.732-1.95-.724-1.57M16.345 94.2c-.43.831-.865 1.95-.692 1.776.244-.243 1.22-2.289 1.134-2.375-.048-.048-.247.222-.442.599m46.804.8c-.004.244.079.644.184.889.244.566.244-.018 0-.778-.143-.446-.179-.468-.184-.111m-3.458 1.111c.183.817.31.995.306.426-.002-.234-.105-.576-.229-.759-.165-.244-.186-.154-.077.333m3.936.667c.045.439.25.446 17.154.555l17.108.111v36.667l-18.499.057-18.498.057-.059-16.502-.059-16.501.002 16.556.002 16.555 18.222.061c10.022.034 18.447.007 18.722-.059l.5-.121v-18.417c0-16.588-.035-18.43-.351-18.551-.194-.074-7.936-.135-17.206-.135-15.86 0-16.861-.023-16.969-.389-.089-.302-.105-.29-.069.056m-9.811.889c-.004.244.079.644.184.889.243.566.243-.018 0-.778-.143-.447-.179-.469-.184-.111m-38.901.148c-.015.204-.084.554-.154.778-.121.386-.115.386.126.011.14-.218.209-.568.154-.778-.091-.344-.103-.345-.126-.011M312 102.111v4.556H308.889V112.444H312V134h6.44l.058-10.722.058-10.722 1.888-.112 1.889-.111v-5.555l-1.889-.111-1.888-.111-.061-4.5-.06-4.5H312v4.555m-187.829 13.667l.059 18H118v-29.451l2.992-2.986c1.646-1.642 2.952-3.026 2.903-3.076-.049-.049-1.447 1.278-3.105 2.949l-3.015 3.038.057 14.818.057 14.819 3.278.061 3.277.062v-18.117c0-9.965-.075-18.117-.166-18.117-.092 0-.14 8.1-.107 18m194.051-13.58c0 5.082-.196 4.691 2.352 4.691h1.648v5.333h-1.648c-.907 0-1.807.061-2 .135-.314.121-.352 1.278-.352 10.778v10.643h-5.996l-.057-10.722-.058-10.723-1.5-.065-1.5-.066V106.909l1.5-.066 1.5-.065.06-4.5.06-4.5h5.991v4.42M14.5 99.889c.003.489.048.663.102.386.053-.276.051-.676-.005-.889-.055-.212-.099.014-.097.503m39.878.778c.069.916.161 1.708.206 1.759.155.174.057-1.648-.136-2.537-.144-.659-.161-.458-.07.778m6.122-.556c.003.489.048.663.102.386.053-.276.051-.676-.005-.888-.055-.213-.099.013-.097.502m-52.416 3c0 1.406.036 1.981.08 1.278.044-.703.044-1.853 0-2.556-.044-.702-.08-.127-.08 1.278m6.22 0c0 1.283.037 1.808.082 1.167.045-.642.045-1.692 0-2.334-.045-.641-.082-.116-.082 1.167m.196 3.222c.003.489.048.663.102.387.053-.277.051-.677-.005-.889-.055-.213-.099.013-.097.502m126.222-.392c.581.046 1.531.046 2.111 0 .581-.046.106-.083-1.055-.083s-1.636.037-1.056.083m15.834-.032c.982.157 5.004.208 4.627.06-.223-.088-1.455-.153-2.739-.145-1.283.008-2.133.046-1.888.085m27.777.084c-.366.089.334.113 1.556.054 1.222-.059 2.264-.144 2.315-.188.168-.148-3.192-.032-3.871.134m32.154-.026c-.282.079.799.144 2.402.144 1.603 0 2.684-.065 2.402-.144-.282-.08-1.363-.145-2.402-.145-1.039 0-2.12.065-2.402.145m45.013-.027c.519.047 1.369.047 1.889 0 .519-.046.094-.085-.945-.085-1.038 0-1.463.039-.944.085m26.098.027c-.282.079.799.144 2.402.144 1.603 0 2.684-.065 2.402-.144-.282-.08-1.363-.145-2.402-.145-1.039 0-2.12.065-2.402.145m59.513.016c-.305.088.545.12 1.889.072 1.344-.049 2.544-.123 2.667-.165.444-.154-4.016-.063-4.556.093m31.556-.081c.75.163 4.275.232 3.876.076-.238-.093-1.282-.164-2.321-.159-1.039.006-1.739.043-1.555.083m-241.556.993c-.672.366-1.442.914-1.711 1.218-.65.735-.696.711-.776-.391l-.068-.944-2.945-.062-2.944-.062V134h6.444l-.053-8.167-.052-8.166-.061 8.055-.062 8.056h-5.994V106.889h5.555v.876c0 1.208.345 1.311 1.298.385.448-.435 1.364-1.045 2.036-1.357.672-.312 1.072-.566.889-.565-.184.001-.884.302-1.556.667m8.852-.007c.884.418 1.845 1.121 2.582 1.889 1.384 1.44 1.475 1.458 2.242.454.651-.855 2.406-2.078 3.769-2.627.488-.198.757-.364.597-.37-.663-.026-2.872 1.288-3.997 2.377-1.451 1.404-1.216 1.395-2.386.094-.902-1.003-3.234-2.483-3.912-2.483-.166 0 .331.3 1.105.666m15.833-.586c.051.044.393.147.76.229.486.109.576.088.333-.076-.3-.203-1.316-.345-1.093-.153m20.648.153c-.243.164-.153.185.334.076.817-.183.994-.31.426-.305-.235.001-.576.105-.76.229m7.112-.086c.183.061.708.253 1.166.425.459.172.834.266.834.207 0-.172-1.577-.78-1.972-.761-.3.014-.305.036-.028.129m76.633.297c2.089.751 4.059 2.268 5.076 3.907.164.265.269.314.277.129.045-1.011-4.736-4.499-6.129-4.472-.227.005.122.201.776.436m19.589-.211c-.244.164-.154.185.333.076.817-.183.995-.31.426-.305-.234.001-.576.105-.759.229m59.555 0c-.243.164-.153.185.334.076.817-.183.994-.31.426-.305-.235.001-.576.105-.76.229m7.574-.153c.051.044.393.147.76.229.487.109.576.088.333-.076-.3-.203-1.316-.345-1.093-.153m22.785.616c-.719.371-1.568.916-1.886 1.212-.785.727-.881.686-.96-.408l-.068-.944h-6V133.889h6.444l.004-8.333.005-8.334-.063 8.278-.062 8.278H366.889V106.889h5.778v.876c0 1.177.29 1.283 1.308.477.471-.373 1.494-.98 2.274-1.349s1.268-.666 1.084-.66c-.183.006-.921.314-1.641.685m7.864-.487c2.875.881 6.444 4.354 6.444 6.27 0 .144.063.199.141.121 1.1-1.1-4.623-6.683-6.746-6.581-.264.013-.211.076.161.19m-169.723.243c-.744.299-.605.451.167.182.367-.128.667-.273.667-.322 0-.132-.271-.087-.834.14m-49.82.389c2.077 1.002 4.235 3.225 4.756 4.898.088.284.214.463.279.398.768-.768-4.091-5.728-5.569-5.685-.141.004.099.179.534.389m16.133.349c-2.097 1.144-5.934 5.097-5.433 5.597.047.047.531-.585 1.075-1.404 1.123-1.691 3.024-3.321 4.99-4.278.733-.357 1.183-.643 1-.636-.184.006-.918.331-1.632.721m47.786-.603c-.085.085-.154.787-.154 1.561 0 1.575-.143 1.703-.845.754-.456-.618-2.271-2.013-2.617-2.013-.088 0 .23.288.706.64.477.352 1.262 1.052 1.745 1.555 1.172 1.221 1.233 1.184 1.233-.75v-1.667h5.774l.06 12.389.06 12.389-.002-12.445-.003-12.444-2.901-.062c-1.596-.034-2.971.008-3.056.093m10.344 13.58l.057 13.722H244.556l.057-13.722.057-13.722H238.219l.057 13.722m10.717-13.451c-.059.156-.082 6.284-.051 13.618l.058 13.333h6.444l.004-8.445.004-8.444-.062 8.389-.062 8.389H249.111V106.889h5.556v1c0 .997.589 1.443 1.009.763.08-.13.551-.53 1.046-.889.495-.358.822-.652.727-.652-.096 0-.661.35-1.256.778-1.337.96-1.265.969-1.347-.167l-.068-.944-2.838-.062c-2.147-.048-2.864.007-2.947.222m45.47-.188c.229.204 1.537.805 1.537.706 0-.128-1.232-.789-1.47-.789-.088 0-.118.037-.067.083m5.025.058c-.085.085-.155.788-.155 1.562 0 1.696-.059 1.707-1.577.297-.658-.611-1.295-1.111-1.416-1.111-.12 0 .176.325.658.722.482.397 1.158.997 1.503 1.333.927.906 1.055.778 1.055-1.055v-1.667h5.555v26.902l-2.722-.062-2.722-.062-.066-1.5c-.077-1.762-.114-1.776-1.521-.59-.594.501-1.875 1.301-2.846 1.778-.971.477-1.637.867-1.478.867.508 0 3.665-1.753 4.399-2.443.978-.92 1.178-.848 1.178.425 0 1.853-.099 1.796 3.137 1.796h2.867l-.058-13.611-.057-13.611-2.79-.062c-1.534-.034-2.859.008-2.944.092m26.121 13.581l.058 13.722h6.222l.057-13.722.057-13.722H325.552l.057 13.722m30.306-12.952c2.797 1.408 5.023 3.633 6.427 6.426.423.842.769 1.413.769 1.269 0-.792-2.177-4.158-3.478-5.378-1.369-1.283-4.283-3.087-4.987-3.087-.144 0 .427.346 1.269.77m-159.885.063c.026.524.044.54.127.111.093-.485.175-.5 2.747-.5h2.652V134h-5.334v-1.451c0-1.902-.264-1.98-2.038-.606-1.287.997-2.083 1.455-3.542 2.039-.292.116-.4.218-.239.226.57.028 3.074-1.334 4.05-2.202 1.373-1.222 1.515-1.168 1.592.605l.066 1.5h5.556l.057-13.611.057-13.611H196l.03.611m48.414 12.944V134h-6V106.889h6v13.555m87.334 0V134h-6V106.889h6v13.555M8.5 107.889c.003.489.048.663.102.386.053-.276.051-.676-.005-.889-.055-.212-.099.014-.097.503m184.167-.131c.55.352 1.433 1.05 1.963 1.552 1.227 1.162 1.378 1.146 1.333-.143-.035-.967-.045-.986-.125-.223-.108 1.029-.258 1.036-1.267.057-.806-.783-2.416-1.894-2.733-1.886-.094.003.279.292.829.643m18.222.524c-1.681 1.189-4.222 4.05-4.222 4.754 0 .098.263-.22.584-.707.845-1.278 2.687-3.143 3.968-4.017.61-.416 1.01-.752.889-.747-.12.006-.669.329-1.219.717m70.61.491c-1.781 1.469-4.172 4.88-4.163 5.94.001.158.25-.246.553-.896 1.115-2.396 3.034-4.624 5.141-5.971.228-.145.309-.27.18-.277-.129-.008-.899.535-1.711 1.204m59.817-.334c-2.165 1.503-5.316 5.735-5.316 7.139 0 .158.385-.51.856-1.484 1.108-2.29 2.786-4.289 4.651-5.54.819-.549 1.389-.993 1.268-.987-.121.006-.777.399-1.459.872m-326.069 1.228c.183.817.31.994.305.426-.002-.235-.105-.576-.229-.76-.165-.243-.185-.153-.076.334m-5.91 1.796c.002.234.105.576.229.759.164.244.185.154.076-.333-.183-.817-.31-.995-.305-.426m130.496.024c.214.055.564.055.778 0 .214-.056.039-.102-.389-.102s-.603.046-.389.102m17.889.003c.275.053.725.053 1 0s.05-.096-.5-.096-.775.043-.5.096m132.556.003c.336.05.886.05 1.222 0 .336-.051.061-.093-.611-.093-.672 0-.947.042-.611.093m-274.175.396c1.099 3.435 6.412 8.575 10.451 10.11 1.004.382.584.046-.647-.518-3.738-1.711-6.912-4.755-9.308-8.925-.351-.612-.574-.912-.496-.667m122.008.015c-1.2.623-2.891 2.723-2.504 3.11.049.049.265-.311.481-.801.435-.984 1.519-1.957 2.632-2.361.398-.144.574-.27.391-.278-.183-.009-.633.14-1 .33m3.812-.094c1.247.281 2.826 1.698 3.314 2.977.211.55.424.959.475.909.155-.156-.547-1.655-1.139-2.431-.633-.83-2.242-1.721-3.042-1.686-.337.015-.194.1.392.231m14.299-.093c-1.235.467-2.687 1.943-3.172 3.227-.261.691.029.413.412-.394.462-.974 2.058-2.404 3.03-2.715.402-.129.58-.236.397-.239-.183-.003-.483.051-.667.121m3.71.094c.942.327 2.113 1.425 2.691 2.522.258.489.471.789.475.667.027-.981-2.026-3.102-3.209-3.316l-.667-.12.71.247m26.068-.132c.771.166 4.071.239 3.665.081-.243-.095-1.243-.169-2.221-.163-.977.006-1.627.042-1.444.082m31.667.084c-2.606.634-6.989 4.766-6.051 5.705.054.054.269-.351.478-.898 1.053-2.757 4.108-4.652 7.53-4.67 1.199-.006 1.949-.076 1.667-.156-.687-.193-2.796-.182-3.624.019m42.064-.025c-.21.083.511.151 1.602.151 1.091 0 1.812-.068 1.603-.151-.209-.083-.93-.151-1.603-.151-.672 0-1.393.068-1.602.151m28.825.04c-.281.12-.322.191-.112.191.184 0 .534-.086.778-.191.28-.121.321-.191.111-.191-.183 0-.533.086-.777.191m59.175-.04c-.21.083.611.151 1.825.151 1.213 0 2.034-.068 1.825-.151-.21-.083-1.031-.151-1.825-.151-.795 0-1.616.068-1.825.151m29.713.029c-.258.104.207.136 1.112.077 2.032-.134 2.342-.253.666-.255-.733-.001-1.533.079-1.778.178m-83.555.351c1.113.401 1.265.399.555-.007-.305-.175-.755-.317-1-.316-.244.001-.044.146.445.323m87.384.024c1.056.52 1.763 1.316 2.52 2.836.371.746.606 1.105.523.8-.489-1.806-2.373-4.01-3.415-3.995-.19.003-.023.164.372.359m-197.61.324c-1.684.887-3.524 3.135-3.983 4.867-.081.306.173-.089.565-.878.802-1.615 2.344-3.274 3.588-3.861.459-.216.834-.438.834-.493 0-.154-.054-.135-1.004.365m7.776.278c1.531.852 3.289 2.943 3.673 4.369.267.993.532 1.23.309.276-.419-1.784-2.252-4.008-4.069-4.935-1.428-.728-1.365-.518.087.29m66.669-.268c-.783.562-2.108 2.13-2.107 2.492 0 .14.186-.046.413-.412.434-.703 1.637-1.863 2.372-2.29.24-.139.335-.256.211-.259-.124-.004-.524.207-.889.469m6.089.122c.413.326 1.038 1.044 1.389 1.596.633 1 .861 1.105.388.18-.33-.646-2.005-2.375-2.298-2.372-.127.002.107.27.521.596m8.142.45c.178.584.332 1.313.343 1.619.011.306.074.417.142.248.142-.359-.373-2.662-.632-2.822-.096-.06-.03.37.147.955m14.844-.69c-.814.402-2.649 2.149-2.981 2.839-.224.464-.222.464.122.025.839-1.07 2.221-2.33 2.919-2.661.416-.198.757-.405.757-.46 0-.141-.026-.133-.817.257m58.611.145c-1.05.53-2.958 2.297-3.363 3.114-.167.337-.07.282.306-.173 1.318-1.596 2.082-2.225 3.67-3.019.449-.224.715-.41.593-.413-.122-.003-.665.218-1.206.491m6.984-.02c1.39.726 3.138 2.613 3.892 4.202.372.785.61 1.176.53.871-.577-2.192-3.754-5.623-5.136-5.546-.096.005.225.218.714.473m23.022.193c-1.032.748-2.25 2.492-2.235 3.201.006.287.121.147.308-.377.401-1.124 1.284-2.244 2.233-2.83.691-.428.947-.67.705-.67-.043 0-.497.304-1.011.676m-152.267.144c1.036.756 2.222 2.017 2.896 3.08.375.592.682.973.682.848 0-.766-2.426-3.516-3.591-4.069l-.52-.247.533.388m72.618.654c.633.595 1.421 1.507 1.752 2.026.741 1.166.986 1.256.302.111-.618-1.036-1.663-2.175-2.538-2.768-.367-.248-.149.035.484.631M9.8 112.778c-.004.322 1.268 2.847 2.406 4.778 1.444 2.449 7.84 8.695 8.365 8.169.052-.052-.43-.434-1.071-.849-3.373-2.182-6.623-6.082-8.876-10.654-.452-.916-.822-1.566-.824-1.444m380.566 1c.175.958.302 1.139.297.426-.002-.296-.101-.687-.222-.871-.153-.234-.176-.102-.075.445m-216.217.278c-.497 1.19-.856 2.381-.778 2.575.04.1.336-.6.657-1.558.597-1.781.66-2.309.121-1.017m31.513.989c-.189.453-.315.95-.281 1.104.035.155.229-.216.431-.823.431-1.296.343-1.461-.15-.281m-36.043.399c.002.612.045.835.096.497.051-.337.05-.837-.003-1.111-.053-.273-.095.003-.093.614M50.4 115.5c-.585.986-3.27 3.455-5.011 4.609-.886.587-1.611 1.109-1.611 1.159 0 .05.125.016.278-.076 2.702-1.626 5.096-3.586 6.035-4.941.963-1.389 1.016-1.232 1.07 3.138l.05 4.055.069-3.777c.088-4.804-.067-5.537-.88-4.167m226.627-.047c-.076.199-.13.528-.119.732.01.204.107.076.215-.285.209-.701.135-1.048-.096-.447m-113.747 8.732c.032 4.848.109 9.04.171 9.315.149.659 6.165.798 6.414.148.074-.193.112-4.118.083-8.722l-.051-8.37-.115 8.555-.115 8.556h-6l-.111-9.038c-.062-4.97-.162-9.087-.223-9.148-.061-.061-.085 3.856-.053 8.704m92.403-8.28c-.082.325-.106.635-.054.687.053.053.162-.171.244-.497.082-.325.106-.635.053-.687-.052-.053-.162.171-.243.497m10.57-.349c0 .183.086.533.191.777.121.28.191.322.191.111 0-.183-.086-.533-.191-.777-.12-.28-.191-.322-.191-.111m6.82 8.96l.073 9.262h-6.029l-.062-7.389-.061-7.389-.053 7.506-.052 7.506 3.167-.061 3.166-.062.058-8.135c.033-4.475-.017-8.667-.111-9.318-.093-.65-.136 2.986-.096 8.08m90.174-8.405c.183.817.31.995.305.426-.002-.234-.105-.576-.229-.759-.165-.244-.185-.154-.076.333m-27.553.231c-.076.199-.13.528-.119.732.01.204.107.075.215-.285.209-.701.135-1.049-.096-.447M390.889 125v8.778h-6l-.02-7.611c-.01-4.186-.105-8.111-.211-8.723-.184-1.071-.188-1.06-.091.311.055.782.1 4.757.1 8.833V134h6.444v-8.889c0-4.889-.05-8.889-.111-8.889s-.111 3.95-.111 8.778m-92.219-7.981c.002.234.105.575.229.759.165.243.185.153.076-.334-.182-.817-.309-.994-.305-.425m-146.227 8.203l-.11 8.445h-6l-.115-8.223-.115-8.222-.052 8.038c-.028 4.42.01 8.195.084 8.388.249.65 6.262.511 6.423-.148.067-.275.093-4.15.058-8.611l-.063-8.111-.11 8.444m114.287-7.333c.002.611.045.835.096.497.051-.338.05-.838-.003-1.111-.053-.274-.094.003-.093.614m-93.698.055c-.181 1.093-.154 4.506.039 4.989.083.208.151-1.017.151-2.722 0-3.45.002-3.43-.19-2.267m168.549-.573c-.014.204-.083.554-.153.777-.122.386-.115.387.126.012.139-.218.209-.568.153-.778-.09-.344-.102-.345-.126-.011m22.086 2.929c0 1.803.065 3.048.144 2.767.184-.651.181-4.524-.004-5.389-.077-.361-.14.819-.14 2.622m-158.732-.3c-.008 1.406.055 2.731.14 2.946.085.215.124-.735.086-2.111-.095-3.472-.209-3.892-.226-.835m71.558.222c-.009 1.528.051 2.951.135 3.163.084.211.123-.789.087-2.222-.093-3.726-.201-4.184-.222-.941m-97.238-1.396c-.077.463-.126 1.341-.111 1.952.021.846.071.662.209-.77.19-1.977.138-2.608-.098-1.182m16.381 1.396c0 1.161.037 1.636.083 1.056.046-.581.046-1.531 0-2.111-.046-.581-.083-.106-.083 1.055m103.555 0c0 1.161.038 1.636.083 1.056.046-.581.046-1.531 0-2.111-.045-.581-.083-.106-.083 1.055M357.389 119c.003.489.048.663.102.386.053-.276.051-.676-.005-.889-.056-.212-.099.014-.097.503m-129.755 1.333c0 1.1.037 1.578.084 1.063.047-.516.047-1.416.001-2-.046-.585-.084-.163-.085.937m113.553 0c.001.978.04 1.35.087.828.047-.523.046-1.323-.001-1.778-.048-.455-.087-.027-.086.95m-6.005-.111c0 .795.041 1.12.09.722.049-.397.049-1.047 0-1.444s-.09-.072-.09.722m-124.049.13c.012.723.099 1.565.194 1.87.094.306.12-.244.058-1.222-.134-2.116-.283-2.5-.252-.648m71.605.092c0 .795.04 1.12.089.723.05-.398.05-1.048 0-1.445-.049-.397-.089-.072-.089.722m74.869.223c0 .427.046.602.102.389.056-.214.056-.564 0-.778-.056-.214-.102-.039-.102.389m-130.547 2.837c-.485 1.349-.336 1.498.171.171.214-.56.346-1.06.295-1.112-.052-.052-.261.372-.466.941m71.734-.488c-.082.326-.106.635-.054.687.053.053.162-.171.244-.497.082-.325.106-.635.054-.687-.053-.052-.163.171-.244.497m-259.572-.127c-.28.12-.321.191-.111.191.183 0 .533-.086.778-.191.28-.12.321-.191.111-.191-.183 0-.533.086-.778.191m172.457.539c.31 1.59 2.587 4.176 4.409 5.006 1.461.666 1.56.542.134-.169-1.942-.969-3.643-2.828-4.412-4.821l-.257-.666.126.65m129.886-.233c-.037 1.601 3.24 5.023 5.324 5.558.305.079.05-.094-.567-.384-1.943-.912-3.781-2.889-4.465-4.803-.155-.434-.286-.601-.292-.371m15.564-.106c-.069 1.211-1.927 3.646-3.796 4.974l-.555.394.549-.263c1.577-.754 4.276-4.285 3.93-5.141-.079-.197-.116-.186-.128.036m-325.959.182c.338.051.838.049 1.111-.003.273-.053-.003-.095-.614-.093-.611.001-.835.044-.497.096m6.333-.003c.276.053.676.051.888-.004.213-.056-.013-.099-.502-.097-.489.003-.663.048-.386.101m298.056.306c.002.295.102.687.222.87.154.235.176.103.076-.444-.176-.958-.303-1.139-.298-.426m-301.726-.077c.581.045 1.531.045 2.111 0 .581-.046.106-.084-1.055-.084s-1.636.038-1.056.084m160.955.896c-.419 1.016-2.088 2.907-3.232 3.662-.306.201-.448.371-.316.378.859.042 4.31-4.126 4.05-4.891-.037-.111-.263.272-.502.851m-144.101-.528c-.761.916-3.811 2.692-6.576 3.829-.978.402-1.67.735-1.538.741 1.306.052 9.001-4.268 8.498-4.771-.065-.066-.238.025-.384.201m122.65.265c.002.356.099.798.216.981.144.227.169.05.076-.555-.168-1.099-.297-1.286-.292-.426m32.039-.13c-.006.306.175.956.402 1.444.494 1.068.571.898.124-.273-.176-.461-.364-1.038-.418-1.282-.078-.348-.101-.324-.108.111m157.983.148c-.027.498-.654 2.128-1.268 3.296-.347.661-.347.663.058.167.565-.692 1.463-3.075 1.338-3.552-.081-.31-.108-.291-.128.089m-86.467.315c.002.295.102.687.222.87.154.235.176.103.076-.444-.176-.959-.302-1.139-.298-.426m21.209.364c-.688 1.282-2.2 2.716-3.595 3.41-.706.351-1.194.641-1.084.645 1.334.046 5.859-4.119 5.196-4.783-.045-.045-.278.283-.517.728m-117.965-.16c.656 1.394 3.41 4.084 3.791 3.702.053-.053-.247-.308-.666-.567-.753-.466-2.107-1.834-2.882-2.913-.22-.306-.329-.406-.243-.222m103.799.41c.485.905 1.971 2.382 2.985 2.967.542.312.594.322.191.036-.725-.515-2.689-2.482-3.185-3.191-.352-.502-.352-.484.009.188m-57.771.312c-.436.656-1.429 1.68-2.391 2.462-.425.346-.551.519-.279.385.595-.295 2.625-2.294 2.954-2.909.319-.597.125-.555-.284.062m109.85-.331c-.086 1.719 5.533 8.58 6.354 7.759.063-.063-.119-.237-.405-.387-2.093-1.101-4.524-4.127-5.722-7.121-.117-.292-.219-.405-.227-.251m-315.026.923c.252.408 4.809 2.469 5.428 2.455.199-.004-.188-.205-.86-.446-.673-.242-2.001-.834-2.952-1.316-.951-.482-1.678-.794-1.616-.693m256.363-.034c-.022.351.856 2.239 1.116 2.4.105.065-.044-.361-.332-.947-.289-.587-.579-1.217-.646-1.4-.075-.206-.127-.227-.138-.053m-71.119.541c-.114 1.795 6.385 7.734 8.462 7.734.162 0-.435-.349-1.326-.776-2.912-1.395-4.973-3.338-6.636-6.253-.27-.473-.495-.79-.5-.705m-31.565 1.334c0 .169.908 1.779 1.102 1.956.067.061.402.485.743.943.849 1.139 4.416 3.501 5.287 3.501.143 0-.452-.356-1.322-.792-1.934-.967-3.722-2.564-4.914-4.388-.493-.755-.896-1.303-.896-1.22m186.323 1.304c-1.053 1.52-2.91 3.031-5.022 4.088-1.107.555-1.893 1.008-1.747 1.008 1.36 0 7.557-4.728 7.557-5.766 0-.388-.134-.275-.788.67m-333.879-.462c.183.12.575.22.87.221.714.005.533-.121-.425-.297-.548-.101-.679-.078-.445.076m14.222.003c-.457.146-.477.181-.111.196.245.011.595-.078.778-.196.389-.252.119-.252-.667 0m237.348.111c-.049.968 3.443 4.053 5.669 5.007 1.655.709 1.45.481-.346-.386-1.589-.767-4.28-3.113-5.046-4.399-.146-.244-.27-.344-.277-.222m-249.781.345c.297.188 1.957.311 1.748.13-.051-.044-.537-.138-1.081-.207-.639-.082-.875-.055-.667.077m10.322-.012l-1.111.153 1 .031c.55.017 1.15-.065 1.333-.184.184-.118.234-.201.112-.184-.123.018-.723.1-1.334.184m178.889-.008c.679.181 2.483.297 2.315.149-.051-.045-.743-.137-1.537-.205-.91-.077-1.198-.057-.778.056m71.945-.051c.58.046 1.53.046 2.111 0 .58-.046.105-.083-1.056-.083s-1.636.037-1.055.083m57.891-.006c.276.053.676.051.889-.004.212-.056-.014-.1-.503-.097-.489.002-.662.048-.386.101m1.62.053c-.208.132.027.159.667.077.543-.069 1.03-.162 1.081-.207.208-.181-1.451-.058-1.748.13m-162.511.169c.275.053.725.053 1 0s.05-.096-.5-.096-.775.043-.5.096m-153.778.451c.641.045 1.691.045 2.333 0 .642-.045.117-.081-1.167-.081-1.283 0-1.808.036-1.166.081m193.166 2.042c-.672.694-1.766 1.531-2.432 1.861-.666.33-1.054.6-.862.6.602 0 3.67-2.149 4.095-2.868.501-.848.7-.866.817-.076.089.602.09.601.07-.039-.031-.966-.338-.871-1.688.522m7.142.683c-.02.306-.088.806-.151 1.112l-.114.555.239-.547c.131-.301.199-.801.15-1.111l-.088-.564-.036.555m-6.1 1.021c-.665 2.16-2.034 3.797-4.154 4.965-1.454.802-1.321.911.175.144 1.96-1.004 3.937-3.548 4.376-5.63.238-1.128.025-.848-.397.521m-45.042.969c.184.124.525.227.76.229.568.005.391-.122-.426-.305-.487-.109-.577-.088-.334.076m6.556.01c-.615.157-.624.172-.111.193.305.013.705-.074.889-.193.378-.244.183-.244-.778 0m26.333.003c.184.117.625.214.982.216.859.005.672-.124-.426-.292-.605-.093-.783-.068-.556.076m6.223-.003c-.769.162-.771.164-.112.19.367.014.817-.071 1-.19.37-.239.248-.239-.888 0m11.477.463c-.608 3.219-3.554 6.818-7.024 8.579-.555.282-.887.513-.738.513.706.002 3.46-1.861 4.823-3.263 1.418-1.459 3.458-5.53 3.182-6.349-.051-.152-.16.082-.243.52m-48.864-.083c.277.053.677.051.889-.005.213-.055-.014-.099-.502-.096-.489.002-.663.048-.387.101m33.775.005c.52.047 1.37.047 1.889 0 .52-.046.095-.085-.944-.085s-1.464.039-.945.085m70.667 0c.52.047 1.37.047 1.889 0 .519-.046.094-.085-.944-.085-1.039 0-1.464.039-.945.085m60.111.001c.581.046 1.531.046 2.111 0 .581-.046.106-.083-1.055-.083s-1.636.037-1.056.083m-162.889.212c.214.056.564.056.778 0 .214-.056.039-.102-.389-.102s-.603.046-.389.102m19.871 1.328c-.28.28-.151.575.144.33.171-.141 1.58-.271 3.389-.311l3.096-.069-3.24-.049c-1.783-.027-3.308.018-3.389.099m7.566.785c.463.391.995.837 1.183.992.406.334 1.991 1.018 1.991.859 0-.061-.36-.262-.8-.445-.44-.184-1.279-.736-1.864-1.226-.585-.49-1.129-.891-1.207-.891-.079 0 .234.32.697.711m-7.048.919c0 1.593 6.524 6.828 7.842 6.292.192-.077.183-.114-.03-.126-1.598-.094-5.591-3.047-7.051-5.216-.418-.621-.761-1.049-.761-.95m11.013 1.289c.36.077 1.304.14 2.098.14.795 0 1.739-.063 2.099-.14.36-.078-.585-.141-2.099-.141-1.514 0-2.458.063-2.098.141m6.209 5.081c-.733.225-1.194.417-1.025.427.426.025 2.091-.462 2.348-.686.261-.229.293-.235-1.323.259m-8.777.22c.183.12.575.22.87.221.713.005.533-.121-.426-.297-.547-.101-.679-.078-.444.076m2.123.476c.36.078 1.404.141 2.321.141.917 0 1.961-.063 2.321-.141.36-.077-.685-.14-2.321-.14-1.636 0-2.68.063-2.321.14"/><path fill="#7c7c7c" d="M30.667 77.12c-.349.117-.017.139.889.059.794-.07 1.486-.164 1.537-.208.182-.161-1.882-.034-2.426.149m5.129-.15c.051.044.743.134 1.537.198.848.069 1.261.042 1-.065-.43-.177-2.724-.297-2.537-.133m-7.463.586c-.566.243.018.243.778 0 .447-.143.469-.18.111-.185-.244-.003-.644.08-.889.185m11.445 0c.305.097.755.18 1 .184l.444.007-.444-.191c-.245-.105-.695-.188-1-.185l-.556.007.556.178m-16 1.555c-.428.234-.678.426-.556.426s.572-.192 1-.426c.428-.234.678-.426.556-.426s-.572.192-1 .426m-1.853.804c-.347.188-.583.39-.525.448.058.058.442-.1.853-.35.865-.528.607-.605-.328-.098M53 84.667c.849.855 1.594 1.555 1.655 1.555.061 0-.584-.7-1.433-1.555-.849-.856-1.593-1.556-1.655-1.556-.061 0 .584.7 1.433 1.556m-19.936-1.169c.769.044 1.969.043 2.667-.001.698-.044.069-.079-1.398-.079-1.466.001-2.037.037-1.269.08m-3.286.28c-.425.274.032.274.889 0l.555-.178-.555-.019c-.306-.01-.706.078-.889.197m8.444 0c.857.274 1.314.274.889 0-.183-.119-.583-.207-.889-.197l-.555.019.555.178M42 84.889c.428.234.878.426 1 .426s-.128-.192-.556-.426c-.427-.234-.877-.426-1-.426-.122 0 .128.192.556.426m-27.455.944l-.878.945.944-.879c.52-.483.945-.908.945-.944 0-.168-.194 0-1.011.878m10.288-.15c-.861.467-.764.628.111.183.838-.426.986-.536.704-.524-.112.005-.479.158-.815.341m19.389.194c0 .062.3.267.667.456.367.19.667.295.667.234 0-.061-.3-.266-.667-.456-.367-.189-.667-.295-.667-.234M19.994 89.5L18.556 91l1.5-1.438C21.449 88.226 21.657 88 21.494 88c-.035 0-.71.675-1.5 1.5m-8.105-.167c-.19.367-.295.667-.234.667.061 0 .267-.3.456-.667.19-.366.295-.666.234-.666-.061 0-.267.3-.456.666m37.444.737c0 .038.325.363.723.722l.722.652-.653-.722c-.608-.673-.792-.824-.792-.652m12.489.863c-.146.147-.263.372-.26.5.004.129.109.059.234-.155.228-.393 41.072-.639 42.075-.254.317.122.351 2.511.351 24.773v24.639l-.5.121c-.275.066-11.4.093-24.722.06l-24.222-.061-.111-19.926c-.061-10.96-.161-19.977-.223-20.038-.238-.239.023 39.723.262 40.011.336.404 49.068.423 49.472.019.387-.387.387-49.302 0-49.689-.387-.386-41.969-.386-42.356 0m-10.378 1.956c.19.367.395.667.456.667s-.044-.3-.233-.667c-.19-.367-.395-.667-.456-.667s.044.3.233.667m-35.121 1.798c-.196.378-.316.727-.268.775.048.049.254-.261.457-.687.457-.958.299-1.032-.189-.088m46.363-.465c.006.184.098.534.203.778l.191.444.012-.444c.007-.244-.085-.594-.203-.778-.192-.296-.214-.296-.203 0M9 95.556c-.083.262-.102.527-.041.589.062.061.18-.104.263-.367.084-.263.102-.528.041-.589-.061-.061-.18.104-.263.367m54.194.659c.081.424.242.866.358.981.119.12.107-.165-.027-.659-.305-1.115-.523-1.327-.331-.322m-54.638.896c-.085.384-.108.745-.051.801.057.057.167-.216.245-.606.185-.927.006-1.106-.194-.195m51.482-.444c.011.577.361 1.525.369 1 .003-.245-.08-.645-.185-.889-.117-.273-.188-.316-.184-.111m37.629 19.111c0 10.121.075 18.355.166 18.299.092-.057.167-8.291.167-18.299s-.075-18.243-.167-18.299c-.091-.057-.166 8.178-.166 18.299m217.5-18.282l3.277.071v4.426c0 2.434.075 4.472.167 4.529.092.056.117-1.963.056-4.487l-.111-4.591-3.334-.009-3.333-.01 3.278.071m-3.436 4.726c-.035 2.445.011 4.445.102 4.445.092 0 .167-2 .167-4.445 0-2.444-.046-4.444-.102-4.444-.056 0-.131 2-.167 4.444M124.55 115.889c0 9.9.028 13.982.061 9.072s.033-13.01 0-18-.061-.972-.061 8.928M53.809 98.556c0 .244.086.644.191.888l.191.445v-.445c0-.244-.086-.644-.191-.888l-.191-.445v.445m-39.004.23c-.076.199-.129.578-.118.843.014.342.082.265.235-.264.221-.77.13-1.222-.117-.579m-6.663.372c-.075.28-.126.759-.115 1.064.013.328.101.151.215-.43.204-1.041.132-1.499-.1-.634m52.462.62c.069.672.161 1.264.205 1.315.165.191.041-1.667-.14-2.093-.118-.277-.142.017-.065.778m-46.076 3.333c0 1.406.037 1.981.081 1.278.044-.703.044-1.853 0-2.556-.044-.702-.081-.127-.081 1.278m46.413 15.278c-.029 8.708.023 15.833.115 15.833.151 0 .149-11.257-.005-26-.032-3.116-.082 1.459-.11 10.167M8.048 106.222c-.002.428.076 1.028.174 1.334.25.78.259-.036.013-1.223l-.184-.889-.003.778m133.341-.507c.336.051.886.051 1.222 0 .336-.051.061-.093-.611-.093-.672 0-.947.042-.611.093m16.111.001c.397.05 1.047.05 1.444 0 .398-.049.073-.089-.722-.089-.794 0-1.119.04-.722.089m60.778-.001c.336.051.886.051 1.222 0 .336-.051.061-.093-.611-.093-.672 0-.947.042-.611.093m43.555 0c.336.051.886.051 1.223 0 .336-.051.061-.093-.612-.093-.672 0-.947.042-.611.093m27.556 0c.336.051.886.051 1.222 0 .336-.051.061-.093-.611-.093-.672 0-.947.042-.611.093m59.555 0c.337.051.887.051 1.223 0 .336-.051.061-.093-.611-.093-.673 0-.948.042-.612.093m30.667 0c.336.051.886.051 1.222 0 .336-.051.061-.093-.611-.093-.672 0-.947.042-.611.093M138.778 106c-.28.12-.321.191-.111.191.183 0 .533-.086.777-.191.281-.12.322-.191.112-.191-.184 0-.534.086-.778.191m5.333 0c.245.105.595.191.778.191.21 0 .169-.071-.111-.191-.245-.105-.595-.191-.778-.191-.21 0-.169.071.111.191m11.111 0c-.28.12-.321.191-.111.191.183 0 .533-.086.778-.191.28-.12.321-.191.111-.191-.183 0-.533.086-.778.191m6 0c.245.105.645.191.889.191h.445l-.445-.191c-.244-.105-.644-.191-.889-.191h-.444l.444.191m22.222.01c-.309.141-.175.161.445.066.489-.074.93-.172.981-.217.191-.168-.999-.042-1.426.151m5.223-.01c.759.243 1.344.243.777 0-.244-.105-.644-.188-.888-.184-.358.005-.336.041.111.184m27 0c-.567.243.018.243.777 0 .447-.143.469-.179.112-.184-.245-.004-.645.079-.889.184m5.666 0c.76.243 1.344.243.778 0-.244-.105-.644-.188-.889-.184-.357.005-.335.041.111.184m38.334 0c-.28.12-.322.191-.111.191.183 0 .533-.086.777-.191.28-.12.322-.191.111-.191-.183 0-.533.086-.777.191m4.889 0c.244.105.644.188.888.184.358-.005.336-.041-.111-.184-.759-.243-1.344-.243-.777 0m22.111 0c-.44.141-.463.178-.111.178.244 0 .694-.08 1-.178.439-.141.463-.178.111-.178-.245 0-.695.08-1 .178m5.777 0c.76.243 1.344.243.778 0-.244-.105-.644-.188-.889-.184-.357.005-.335.041.111.184m53.889 0c-.566.243.018.243.778 0 .447-.143.469-.179.111-.184-.244-.004-.644.079-.889.184m5.889 0c.76.243 1.344.243.778 0-.244-.105-.644-.188-.889-.184-.357.005-.335.041.111.184m25.222 0c-.28.12-.321.191-.111.191.184 0 .534-.086.778-.191.28-.12.321-.191.111-.191-.183 0-.533.086-.778.191m5.112 0c.244.105.594.191.777.191.21 0 .169-.071-.111-.191-.244-.105-.594-.191-.778-.191-.21 0-.169.071.112.191m-245.278.572c-.862.467-.764.628.111.183.838-.426.986-.536.704-.524-.112.005-.479.158-.815.341m8.074-.267c.229.205 1.537.806 1.537.706 0-.128-1.232-.789-1.471-.789-.087 0-.117.038-.066.083m139.426.35c-.489.231-.789.421-.667.422.303.002 2.057-.819 1.778-.832-.122-.006-.622.178-1.111.41m90.722.137c-.581.303-1.056.6-1.056.66 0 .1 2.2-.939 2.426-1.145.276-.251-.447.005-1.37.485m8.519-.485c.226.206 2.425 1.244 2.425 1.145 0-.125-2.122-1.23-2.363-1.23-.085 0-.113.038-.062.085m-369.315.471c.004.244.087.694.185 1l.178.555.006-.555c.004-.306-.079-.756-.184-1l-.191-.445.006.445m113.843-.056c-.059.153-.081 6.378-.049 13.834l.058 13.555 3.282.062c2.507.047 3.306-.006 3.381-.223.055-.156.127-4.225.162-9.043.035-4.817-.006-8.367-.09-7.888-.085.478-.16 4.495-.167 8.925l-.013 8.056h-6.444v-27.357l2.979.067c1.639.037 2.933-.007 2.876-.099-.189-.304-5.857-.198-5.975.111m24.199.372c-.383.234-.765.535-.848.67-.125.201 1.311-.676 1.633-.999.217-.217-.124-.074-.785.329m43.185-.267c-.056.095-.176.723-.266 1.395-.09.672-.276 1.296-.414 1.386-.162.105-.123.164.112.166.283.003.397-.313.518-1.441l.154-1.444H201.784l-.058 13.656c-.033 7.51.016 13.579.109 13.487.093-.093.143-6.263.111-13.712l-.057-13.542-2.928-.062c-1.61-.034-2.973.016-3.03.111m31.773-.012c-.082.081-.148.737-.148 1.457 0 .934-.074 1.264-.257 1.151-.159-.098-.196-.061-.098.098.355.575.544.176.614-1.299.041-.856.066-1.556.055-1.556-.01 0-.085.067-.166.149m6.185 13.008c0 7.236.063 12.861.14 12.5.201-.94.227-25.656.027-25.656-.092 0-.167 5.92-.167 13.156m10.725.621c-.032 7.578.017 13.778.108 13.778.092 0 .167-6.2.167-13.778 0-7.577-.049-13.777-.108-13.777s-.134 6.2-.167 13.777m10.242-12.756c.043.538.145.979.228.979.186 0 .034-1.748-.163-1.869-.079-.049-.108.352-.065.89m44.403-.873c-.081.081-.148.723-.148 1.426 0 .814-.101 1.318-.278 1.39-.173.069-.138.118.093.129.306.015.384-.254.445-1.538.04-.856.065-1.556.055-1.556-.01 0-.085.067-.167.149m6.022 13.529L305.34 134h-2.868c-3.238 0-3.139.057-3.139-1.796 0-.899-.069-1.09-.389-1.075-.232.01-.277.062-.111.129.173.07.278.556.278 1.289 0 1.648.111 1.7 3.476 1.626l2.857-.062.058-13.543c.031-7.448-.019-13.618-.111-13.711-.093-.092-.142 5.977-.11 13.487m3.473-10.788c0 1.65.035 2.325.077 1.5.043-.825.043-2.175 0-3-.042-.825-.077-.15-.077 1.5m13.579 0c0 1.588.075 2.888.167 2.888.092 0 .167-1.3.167-2.888 0-1.589-.075-2.889-.167-2.889-.092 0-.167 1.3-.167 2.889m3.051 10.833c-.028 7.608.024 13.833.116 13.833.151 0 .149-10.137-.005-22.778-.033-2.688-.082 1.337-.111 8.945m-87.333-.013c-.028 7.479.024 13.644.116 13.701.151.093.149-9.758-.005-22.41-.033-2.689-.083 1.23-.111 8.709m93.949.113c-.061 7.541-.035 13.635.057 13.543.093-.093.143-6.263.111-13.712l-.057-13.542-.111 13.711m-139.772-13.308c.332.36 1.825 1.262 1.56.942-.171-.206-.618-.531-.994-.721-.376-.191-.63-.29-.566-.221m-43.784 1.152c.415.428.804.778.865.778.062 0-.228-.35-.642-.778-.415-.427-.804-.777-.865-.777-.061 0 .228.35.642.777m121.667.556c.477.489.918.889.979.889.061 0-.279-.4-.757-.889-.477-.489-.918-.889-.979-.889-.061 0 .28.4.757.889M8.482 109c-.003.244.08.644.185.889.243.566.243-.018 0-.778-.143-.446-.18-.468-.185-.111m168.285.833l-.878.945.944-.879c.879-.817 1.047-1.01.879-1.01-.037 0-.462.425-.945.944m103.443-.111l-.766.834.834-.766c.458-.421.833-.796.833-.834 0-.169-.188-.009-.901.766m59.224.111l-.878.945.944-.879c.519-.483.944-.908.944-.944 0-.168-.193 0-1.01.878m-171.101.834c.19.366.395.666.456.666s-.044-.3-.233-.666c-.19-.367-.395-.667-.456-.667s.044.3.233.667M16 111.193c0 .24 1.104 2.363 1.23 2.363.061 0-.153-.525-.475-1.167-.62-1.234-.755-1.448-.755-1.196m123.066.545c-.208.083.442.156 1.444.162 1.13.008 1.57-.046 1.157-.14-.879-.2-2.128-.211-2.601-.022m17.758.006c-.219.086.402.154 1.38.151.977-.003 1.606-.074 1.398-.157-.498-.198-2.271-.194-2.778.006m132.463-.006c-.21.083.586.154 1.768.159 1.182.004 1.903-.061 1.602-.145-.712-.198-2.884-.208-3.37-.014m-102.78.203c.584.046 1.484.046 2-.001.515-.046.037-.084-1.063-.083-1.1 0-1.522.038-.937.084m32.326-.002c.398.049 1.048.049 1.445 0 .397-.05.072-.09-.722-.09-.795 0-1.12.04-.723.09m41.778 0c.397.049 1.047.049 1.445 0 .397-.05.072-.09-.723-.09-.794 0-1.119.04-.722.09m88.111.001c.459.048 1.209.048 1.667 0 .458-.048.083-.088-.833-.088-.917 0-1.292.04-.834.088m29.662-.002c.394.049 1.094.05 1.555.002.462-.048.139-.088-.717-.089-.855-.001-1.233.038-.838.087m-119.717.395c-.306.175-.456.318-.334.318.123 0 .473-.143.778-.318.306-.174.456-.317.333-.317-.122 0-.472.143-.777.317m-43.254.539c-.384.234-.776.558-.871.721-.103.175.001.148.253-.065.235-.199.727-.52 1.094-.714.367-.193.567-.355.444-.36-.122-.004-.536.184-.92.418m48.587-.358c0 .038.325.363.722.722l.722.653-.652-.722c-.609-.674-.792-.825-.792-.653m30.667.016c0 .047.275.263.611.479l.611.393-.423-.479c-.375-.423-.799-.632-.799-.393m17.056 6.859c.031 3.819.083 8.644.117 10.722.033 2.078.083-1.047.11-6.944.028-5.898-.025-10.723-.117-10.723-.091 0-.141 3.125-.11 6.945m6.87-6.796c-.082.081-.149 4.928-.149 10.771v10.624l-3.222.071-3.223.071 3.279-.01 3.278-.009.111-10.833c.061-5.959.102-10.834.092-10.834-.01 0-.085.067-.166.149m17.951 1.207c-.315.623-.537 1.17-.491 1.216.045.045.351-.465.679-1.133.328-.669.549-1.216.492-1.216-.058 0-.364.51-.68 1.133m-167.173-.689c.011.578.361 1.526.369 1 .004-.244-.079-.644-.184-.889-.117-.272-.189-.315-.185-.111m87.81.5c-.741.784-1.282 1.695-1.108 1.869.06.06.178-.11.263-.377.085-.267.505-.874.935-1.35.944-1.044.872-1.158-.09-.142m-75.306.445l-.653.722.722-.653c.398-.359.723-.684.723-.722 0-.172-.184-.021-.792.653M296 113.403c0 .038.325.363.722.722l.722.653-.652-.722c-.609-.674-.792-.825-.792-.653m58.667.708c.414.428.804.778.865.778.061 0-.228-.35-.643-.778-.415-.428-.804-.778-.865-.778-.061 0 .228.35.643.778m-88.928.768c.205.483.403.79.441.681.07-.2-.562-1.56-.725-1.56-.049 0 .079.395.284.879m125.072.121c.074.611.172 1.153.217 1.204.174.195.042-1.448-.15-1.871-.137-.299-.158-.081-.067.667m-117.773.444c.071.734.166 1.375.212 1.426.162.18.036-1.655-.15-2.203-.123-.36-.145-.086-.062.777m11.498-.438c-.329.431-.551.83-.494.887.057.057.365-.295.684-.783.719-1.098.612-1.156-.19-.104m-233.535.026c.319.32.356.907.293 4.647-.039 2.354.002 4.164.091 4.023.453-.714.186-9.035-.29-9.035-.427 0-.434.026-.094.365m161.84.246c-.493.565-.897 1.406-.748 1.556.071.071.129.026.129-.099 0-.126.247-.592.549-1.037.589-.868.619-1.05.07-.42m-42.879 8.691c.093 11.292.508 10.031-3.3 10.031-1.708 0-3.129-.025-3.156-.056-.027-.03-.104-4.005-.171-8.833l-.123-8.778-.05 8.678c-.038 6.511.016 8.744.216 8.945.181.181 1.234.266 3.289.266 2.054 0 3.107-.085 3.289-.266.293-.294.366-16.071.083-17.956-.083-.55-.117 3.036-.077 7.969m-151.295-8.122c0 .039.325.364.722.723l.722.652-.653-.722c-.608-.673-.791-.824-.791-.653m207.932.706c.203.426.409.735.457.687.102-.102-.573-1.462-.725-1.462-.056 0 .065.349.268.775M384.026 116c.01.183.098.583.196.889l.178.555.019-.555c.01-.306-.078-.706-.197-.889-.191-.296-.213-.296-.196 0M205 116.667c-.084.384-.107.744-.05.801.056.057.166-.216.244-.607.079-.39.101-.751.051-.801-.05-.051-.161.223-.245.607m50.654.098c-.083.446-.102.861-.041.922.061.062.18-.253.264-.699.083-.446.102-.861.041-.922-.062-.061-.18.253-.264.699m10.606-.432c.004.245.087.695.184 1l.178.556.007-.556c.003-.305-.08-.755-.185-1l-.191-.444.007.444m10.296.334c-.085.384-.108.744-.051.801.057.057.167-.216.245-.607.185-.926.006-1.106-.194-.194m96.927.198c-.082.41-.137 1.109-.123 1.552.021.61.075.482.222-.528.213-1.461.14-2.219-.099-1.024m-200.452.071c-.075.279-.127.708-.117.953.011.244.111.054.223-.423.217-.923.124-1.388-.106-.53m190.67.286c.075.489.172.931.217.982.169.191.043-1-.151-1.426-.14-.31-.16-.175-.066.444m-351.812.111c.189.367.395.667.456.667s-.044-.3-.234-.667c-.189-.366-.395-.666-.456-.666s.044.3.234.666m140.831 7.593c-.03 4.604-.114 8.529-.188 8.722-.117.305-6.106.584-6.359.296-.026-.03-.104-3.855-.172-8.5l-.123-8.444-.05 8.344c-.038 6.252.017 8.412.216 8.612.402.402 6.261.369 6.598-.038.181-.217.235-2.718.191-8.833l-.061-8.529-.052 8.37m182.533-7.546c-.074.28-.126.759-.115 1.064.013.328.101.151.215-.43.204-1.041.132-1.499-.1-.634m-139.999.842c.176.959.303 1.139.298.426-.002-.295-.102-.687-.222-.87-.153-.235-.176-.103-.076.444m103.556 0c.176.959.302 1.139.298.426-.002-.295-.102-.687-.222-.87-.154-.235-.176-.103-.076.444m58.086-.444c0 .183.097.483.215.666.192.297.216.297.216 0 0-.183-.097-.483-.216-.666-.191-.297-.215-.297-.215 0m-129.649.555c.183.817.31.995.305.426-.002-.234-.105-.576-.229-.759-.165-.243-.185-.154-.076.333m114.225.009c-.076.199-.126.678-.111 1.065.023.586.056.536.194-.296.177-1.063.144-1.362-.083-.769m-136.731 1.436c0 .916.04 1.291.088.833.047-.458.047-1.208 0-1.667-.048-.458-.088-.083-.088.834m71.561.444c0 1.161.038 1.636.084 1.056.045-.581.045-1.531 0-2.111-.046-.581-.084-.106-.084 1.055m108.249 6l.005 7.889h6.666l.004-7.889.005-7.889-.063 7.834-.063 7.833h-6.433l-.062-7.833-.063-7.834.004 7.889m-173.145-5.889c.001.856.041 1.179.09.718.048-.461.047-1.161-.002-1.556-.049-.394-.089-.017-.088.838m55.367 6.167l.005 7.611 3.278.062c1.802.033 3.277-.017 3.278-.112 0-.094-1.449-.142-3.22-.105l-3.219.067-.063-7.567-.063-7.567.004 7.611m16.191-6.056c0 .917.039 1.292.087.834.048-.459.048-1.209 0-1.667-.048-.458-.087-.083-.087.833m-103.558.112c.001.855.041 1.178.09.717.048-.461.047-1.161-.002-1.556-.049-.394-.089-.017-.088.839m-6.688-.334c0 .428.046.603.102.389.056-.214.056-.564 0-.778-.056-.214-.102-.039-.102.389m191.343.222c0 .55.043.775.096.5.053-.275.053-.725 0-1s-.096-.05-.096.5m-6.667.223c0 .55.043.775.096.5.053-.275.053-.725 0-1s-.096-.05-.096.5M15.667 122c1.095 1.1 2.04 2 2.102 2 .061 0-.785-.9-1.88-2-1.095-1.1-2.041-2-2.102-2-.061 0 .785.9 1.88 2m8.555-1.446c0 .15 2.25 1.271 2.349 1.171.046-.046-.464-.351-1.133-.679-.669-.328-1.216-.549-1.216-.492m18.778.767c-.489.232-.826.429-.749.439.215.028 1.749-.641 1.749-.763 0-.149-.001-.149-1 .324m298.349.142c.009.356.104.848.212 1.093.132.296.153.112.065-.556-.156-1.178-.299-1.456-.277-.537m-114.127.759c-.084.384-.103.749-.042.81.061.061.18-.203.264-.588.085-.384.104-.748.043-.809-.061-.061-.18.203-.265.587m107.905-.092c.008.356.104.848.212 1.092.132.297.153.112.065-.555-.156-1.178-.299-1.456-.277-.537m-139.905.314c-.084.385-.107.745-.05.802.056.056.167-.217.245-.607.078-.391.1-.751.05-.801-.05-.051-.16.222-.245.606m103.572-.095c-.082.326-.106.635-.054.688.053.052.162-.172.244-.497.082-.326.106-.635.054-.688-.053-.052-.163.172-.244.497m-87.207.095c0 .184.086.534.191.778.12.28.191.321.191.111 0-.183-.086-.533-.191-.777-.121-.281-.191-.322-.191-.112m145.429.35c-.082.325-.106.635-.054.687.053.052.163-.171.244-.497.082-.326.106-.635.054-.687-.053-.053-.162.171-.244.497M30 122.889c.76.243 1.344.243.778 0-.245-.105-.645-.188-.889-.185-.357.006-.336.042.111.185m8.222 0l-.555.178.555.006c.306.004.756-.079 1-.184l.445-.191-.445.006c-.244.004-.694.087-1 .185m134.705.111c.003.244.086.694.184 1l.178.556.007-.556c.003-.306-.08-.756-.185-1l-.191-.444.007.444m31.993 0c0 .244.086.644.191.889l.191.444v-.444c0-.245-.086-.645-.191-.889l-.191-.444V123m158.759.457c-.084.446-.108.855-.053.909.054.055.167-.266.251-.712.083-.446.107-.855.053-.909-.054-.055-.167.266-.251.712m-329.957-.182c.642.045 1.692.045 2.334 0 .641-.045.116-.082-1.167-.082-1.283 0-1.808.037-1.167.082m242.76.169c.004.245.087.695.185 1l.178.556.006-.556c.004-.305-.079-.755-.184-1l-.191-.444.006.444m21.701.788c-.205.484-.332.879-.283.879.163 0 .795-1.36.725-1.56-.038-.109-.237.198-.442.681m-14.623-.213c.003.173.209.564.458.87l.453.555-.375-.777c-.458-.952-.542-1.053-.536-.648m1.764 2.481c.921.981 1.12 1.158 1.12.991 0-.036-.475-.511-1.055-1.056l-1.056-.991.991 1.056m69.565.056c-.54.55-.932 1-.87 1 .061 0 .552-.45 1.092-1s.932-1 .87-1c-.061 0-.552.45-1.092 1m-334.445-.673c0 .058.325.264.723.458l.722.352-.556-.452c-.535-.436-.889-.579-.889-.358m323.445.784c.477.489.918.889.979.889.061 0-.28-.4-.757-.889s-.918-.889-.979-.889c-.061 0 .28.4.757.889m-151.012.166l-.766.834.833-.766c.459-.421.834-.796.834-.833 0-.17-.188-.01-.901.765m-146.433.056c-.672.355-1.143.65-1.048.656.236.014 2.382-1.081 2.382-1.215 0-.149.031-.162-1.334.559m160.112.667c.189.366.394.666.455.666.062 0-.044-.3-.233-.666-.19-.367-.395-.667-.456-.667s.044.3.234.667m17.009.138c-.949.674-1.026.75-.76.75.116 0 .558-.295.981-.657.929-.794.828-.837-.221-.093m54.538.473c.194.397.4.722.458.722.221 0 .079-.354-.357-.889l-.453-.556.352.723m67.008-.502c0 .152 1.361.826 1.462.725.049-.049-.261-.254-.687-.458-.426-.203-.775-.323-.775-.267M175 128.889c.19.367.395.667.456.667s-.044-.3-.234-.667c-.189-.367-.395-.667-.456-.667s.044.3.234.667m-148.667-.222c.665.285 1.22.285.778 0-.183-.119-.533-.21-.778-.204l-.444.013.444.191m262.334-.01c.183.124.525.227.759.228.568.005.391-.122-.426-.305-.487-.109-.577-.088-.333.077m4.222.01c-.458.146-.477.181-.111.196.244.011.594-.078.778-.196.389-.252.119-.252-.667 0m54.222 0c.183.118.533.21.778.203l.444-.012-.444-.191c-.664-.286-1.22-.286-.778 0m-319 .444c.664.286 1.22.286.778 0-.183-.118-.533-.21-.778-.203l-.444.012.444.191m158.833-.063c.337.051.887.051 1.223 0 .336-.051.061-.093-.611-.093-.673 0-.948.042-.612.093m32.226 0c.338.051.838.05 1.111-.003.273-.052-.003-.094-.614-.093-.611.002-.835.045-.497.096m-188.614.502c.424.188 1.841.315 1.648.148-.051-.045-.543-.14-1.093-.213-.668-.088-.852-.067-.555.065m6.777.006c-.761.16-.764.164-.111.18.367.009 1.067-.067 1.556-.168l.889-.184-.778.004c-.428.002-1.128.078-1.556.168m301.769.944c.921.981 1.12 1.158 1.12.991 0-.036-.475-.511-1.055-1.056l-1.056-.991.991 1.056m-305.046-.569c.213.056.563.056.777 0 .214-.056.039-.102-.389-.102-.427 0-.602.046-.388.102m325.602 1.013l-1.102 1.167 1.166-1.103c.642-.606 1.167-1.131 1.167-1.166 0-.166-.206.018-1.231 1.102m-151.214-.652c0 .038.325.363.723.722l.722.653-.653-.723c-.608-.673-.792-.824-.792-.652m18.907.875c-.293.471-.288.481.094.166.385-.316.398-.281.268.667-.091.662-.071.85.059.556.522-1.178.17-2.338-.421-1.389m-32.372.444c-.423.5-.423.5.038.111.694-.584.761-.503.761.932 0 .726.075 1.366.166 1.424.092.057.134-.588.093-1.432-.08-1.669-.321-1.905-1.058-1.035m16.799 1.388c0 .149 2.249 1.27 2.349 1.17.046-.045-.464-.351-1.133-.679-.669-.328-1.216-.549-1.216-.491m83.555.557c-.672.355-1.144.65-1.048.656.236.014 2.382-1.081 2.382-1.216 0-.148.03-.161-1.334.56m60.445 0c-.672.355-1.144.65-1.048.656.236.014 2.381-1.081 2.381-1.216 0-.148.031-.161-1.333.56M233.444 134c-.084.384-.103.748-.042.81.061.061.18-.204.265-.588.084-.384.103-.748.042-.809-.061-.061-.18.203-.265.587m-115.667.056c.001.091 1.526.148 3.39.125 3.435-.042 3.03-.127-1.112-.233-1.253-.033-2.278.016-2.278.108m131.112 0c0 .091 1.5.166 3.333.166 1.834 0 3.334-.075 3.334-.166 0-.092-1.5-.167-3.334-.167-1.833 0-3.333.075-3.333.167m117.778 0c0 .091 1.5.166 3.333.166 1.833 0 3.333-.075 3.333-.166 0-.092-1.5-.167-3.333-.167-1.833 0-3.333.075-3.333.167m-73.667.388c-.28.121-.321.191-.111.191.183 0 .533-.086.778-.191.28-.12.321-.191.111-.191-.184 0-.534.086-.778.191m52.444 0c.245.105.595.191.778.191.21 0 .169-.07-.111-.191-.244-.105-.594-.191-.778-.191-.21 0-.169.071.111.191m-162 .447c.426.181 2.284.305 2.093.14-.051-.044-.643-.136-1.315-.204-.76-.078-1.054-.053-.778.064m4.112-.002l-.778.164.778.013c.427.008.977-.072 1.222-.177l.444-.191-.444.014c-.245.007-.795.087-1.222.177m29.064.04c.48.191 3.987.186 4.671-.007.283-.079-.738-.144-2.268-.144-1.53 0-2.612.068-2.403.151m70.667 0c.48.191 3.987.186 4.671-.007.282-.079-.738-.144-2.269-.144-1.53 0-2.611.068-2.402.151m59.998 0c.21.083 1.282.151 2.382.151s2.17-.068 2.379-.151c.208-.083-.863-.151-2.381-.151-1.519 0-2.589.068-2.38.151m-141.804 1.219c-.224.225-.177.919.074 1.074.128.079.199-.08.167-.376l-.055-.513h3.482c3.159 0 3.532.042 4.011.445.29.244.247.169-.097-.167l-.626-.611h-3.403c-1.873 0-3.471.067-3.553.148m19.731.796l-.879.945.945-.879c.878-.816 1.046-1.01.878-1.01-.036 0-.461.425-.944.944m6.945.729c-.328.669-.549 1.216-.492 1.216.15 0 1.271-2.249 1.171-2.349-.046-.046-.351.464-.679 1.133m-17.945-.019c.388.468 1.563 1.089 1.735.918.07-.07.024-.128-.101-.128-.126 0-.615-.262-1.087-.582-.472-.32-.718-.414-.547-.208m9.288.473c-.831.451-.78.639.056.206.366-.189.666-.392.666-.45 0-.143-.024-.135-.722.244m-7.167.762c.076.122.357.215.625.206.469-.015.47-.022.042-.206-.612-.263-.829-.263-.667 0m2.167.384c.458.048 1.208.048 1.667 0 .458-.048.083-.087-.834-.087-.916 0-1.291.039-.833.087m-9.389 2.574c0 .055.367.38.816.722.449.343.746.509.66.371-.176-.285-1.476-1.247-1.476-1.093m6.778 3.254c.426.193 1.617.319 1.426.151-.051-.045-.493-.143-.982-.217-.619-.095-.754-.075-.444.066m5.555.01c-.604.154-.615.171-.111.18.306.006.756-.075 1-.18.548-.235.037-.235-.889 0"/><path fill="#ccc" d="M30.111 76.931C8.535 81.066.251 106.457 15.417 121.968c3.953 4.044 10.51 7.588 14.038 7.588.316 0 .777.108 1.025.241 1.058.566 8.089.244 10.742-.492 3.693-1.024 9.213-3.931 10.234-5.389.365-.521.475-8.885.124-9.439-.208-.329-1.136.007-1.136.412 0 .365-2.678 3.082-4.082 4.14-10.67 8.042-27.43 2.748-30.63-9.675-.113-.439-.312-1.198-.441-1.687-2.498-9.441 3.879-20.399 13.487-23.178 2.154-.624 2.835-.709 5.666-.709 2.816 0 3.418.074 5.667.698C46.02 86.116 51.3 91.17 53.075 96.889c.247.794.574 1.844.728 2.333.213.678.299 5.71.363 21.218.063 15.376.148 20.369.348 20.496.423.27 49.218.215 49.723-.055.421-.225.43-.739.43-25.103s-.009-24.878-.43-25.104c-.465-.248-41.91-.341-42.552-.095-.436.168-.445.592-.033 1.499.429.944.969 2.616 1.251 3.872.127.568.338 1.161.469 1.319.191.229 3.617.287 17.211.287h16.973V134H61.333l-.022-15.389c-.021-14.808-.127-18.316-.621-20.722-.126-.611-.294-1.437-.374-1.836-.08-.399-.233-.78-.342-.847-.108-.066-.196-.301-.196-.521 0-.219-.438-1.289-.974-2.375-4.021-8.166-11.056-13.642-19.693-15.33-1.256-.245-7.79-.281-9-.049m8.386.167c.521.116 1.497.327 2.17.47 7.025 1.496 14.162 7.27 17.735 14.348.791 1.566 2.042 5.236 2.042 5.988 0 .281.121.793.268 1.137.197.461.3 5.149.389 17.848l.121 17.222h36.445V97.444l-17.103-.111-17.103-.111-.199-.778c-.408-1.599-1.074-3.69-1.401-4.401-.674-1.464-2.019-1.376 21.122-1.376 15.981 0 20.991.063 21.195.266.387.387.387 49.302 0 49.689-.403.403-49.136.386-49.47-.017-.161-.193-.264-6.684-.326-20.389-.069-15.397-.157-20.339-.374-21.105-2.818-9.943-9.894-15.558-19.603-15.554-3.654.001-5.094.315-8.404 1.831-5.33 2.441-9.427 7.4-10.881 13.172-.481 1.909-.64 6.977-.259 8.24.107.355.319 1.194.47 1.867 2.515 11.15 15.781 17.559 26.857 12.974 3.078-1.274 6.994-4.299 8.192-6.327.976-1.651 1.176-1.007 1.176 3.788 0 5.153.256 4.567-2.916 6.669-8.716 5.779-21.574 5.319-29.976-1.071-17.569-13.361-12.643-40.629 8.447-46.765 3.447-1.003 8.842-1.399 11.386-.837m273.289 20.443c-.136.253-.23 2.168-.23 4.656v4.227l-1.5.066-1.5.066v6l1.5.065 1.5.066v10.449c0 6.778.08 10.6.23 10.879.28.523 6.332.667 6.836.163.2-.2.267-2.922.267-10.88v-10.614l1.944-.064 1.945-.064v-6l-1.945-.065-1.944-.064v-4.391c0-3.119-.077-4.469-.267-4.658-.504-.505-6.556-.36-6.836.163m-190.964 3.088l-3.27 3.296.058 15.204.057 15.204 3.331.062c2.939.055 3.365.017 3.612-.32.397-.544.409-36.078.012-36.475-.408-.408-.325-.474-3.8 3.029M318.667 102l.111 4.556 1.944.064 1.945.064v5.743l-1.945.064-1.944.065-.111 10.777-.111 10.778-3.278.062c-1.803.033-3.301.033-3.328 0-.028-.034-.103-4.912-.167-10.84l-.116-10.777-1.5-.066-1.5-.066v-5.737l1.5-.066 1.5-.065.122-4.556c.068-2.506.143-4.583.167-4.617.024-.034 1.519-.034 3.322 0l3.278.061.111 4.556m-194.05 13.574c.033 9.707.006 17.873-.06 18.148-.119.491-.182.5-3.45.5h-3.329v-30.105l3.164-3.17c1.741-1.744 3.266-3.137 3.389-3.096.148.049.245 6.096.286 17.723m15.272-10.046c-1.656.236-5.094 2.007-4.688 2.414.057.057.333-.111.613-.373 3.12-2.906 9.495-2.505 12.812.807 1.423 1.421 1.157 1.418 2.538.037 5.265-5.265 16.092-2.806 18.212 4.136.828 2.712 1.314 20.672.58 21.407-.182.181-1.235.266-3.289.266-2.055 0-3.108-.085-3.289-.266-.199-.199-.267-2.511-.267-9.03 0-5.656-.085-9.049-.241-9.568-1.373-4.583-7.379-4.825-9.449-.381-.528 1.134-.528 1.138-.53 9.923-.002 6.537-.07 8.857-.269 9.056-.371.37-6.207.37-6.578 0-.198-.199-.266-2.447-.266-8.745 0-8.407-.045-9.005-.79-10.655-1.26-2.793-5.441-3.679-7.758-1.644-1.657 1.455-1.751 2.064-1.887 12.199l-.121 9h-6.666v-27.555h6l.068.944c.037.519.164.944.282.944.117 0 .168-.225.112-.5-.056-.275-.159-.775-.231-1.111l-.129-.611h-3.083c-2.606 0-3.104.055-3.218.352-.278.724-.151 27.321.132 27.604.297.297 6.318.382 6.769.095.186-.118.285-2.668.356-9.163.106-9.751.137-10.008 1.402-11.667 1.754-2.3 6.586-1.606 7.743 1.113.758 1.78.797 2.299.797 10.641 0 5.357.083 8.543.23 8.818.211.395.495.429 3.547.429 3.053 0 3.336-.034 3.548-.429.147-.276.23-3.547.23-9.093 0-9.566.042-9.886 1.514-11.442 1.81-1.913 4.945-1.992 6.708-.169 1.536 1.588 1.556 1.732 1.556 11.589 0 5.562.083 8.839.23 9.115.353.659 6.743.659 7.095 0 .743-1.389.16-19.28-.708-21.717-2.505-7.036-12.914-9.345-18.463-4.097l-1.187 1.122-1.229-1.19c-2.283-2.212-5.268-3.102-8.738-2.605m76.889.023c-11.069 1.807-16.037 14.699-9.207 23.893 1.475 1.986 4.046 4.021 6.02 4.765.408.154.942.357 1.187.45 3.754 1.437 8.541.612 11.691-2.016l1.025-.855-.154.828c-1.146 6.175-8.665 8.376-13.864 4.058l-1.08-.896h-3.291c-4.388 0-4.468.045-3.521 2.007 1.534 3.175 4.952 6.031 8.472 7.078.458.136 1.165.348 1.571.47.917.276 6.169.294 6.863.023.28-.109.96-.324 1.51-.478 4.241-1.184 7.936-4.778 9.417-9.161.99-2.927 1.034-3.687.974-16.738l-.058-12.423-3.245-.062c-2.427-.046-3.303.011-3.472.222-.288.361-.5 2.594-.261 2.742.098.061.209-.517.245-1.285l.067-1.395 3.277-.062 3.278-.061v12.284c0 12.803-.068 13.924-1.01 16.74-4.058 12.118-21.803 13.154-27.636 1.614-.608-1.203-.373-1.293 3.381-1.293h3.415l1.36 1.092c5.31 4.261 13.074 1.486 13.933-4.981l.148-1.111-.629.685c-2.375 2.588-7.599 4.171-10.651 3.227-.354-.11-1.211-.367-1.905-.571-8.839-2.606-12.821-14.472-7.496-22.341 4.552-6.726 14.835-8.573 19.369-3.478.215.241.446.383.513.316.322-.322-2.898-2.434-4.57-2.998-1.036-.349-4.281-.515-5.666-.289m44.111-.086c-1.642.29-3.625 1.16-4.889 2.146l-.556.434-.068-.562c-.118-.964-.454-1.056-3.629-.99l-2.969.063v27.777H255.667l.131-8.555c.138-8.918.17-9.298.915-10.822 1.428-2.921 5.811-3.792 7.899-1.57 1.546 1.646 1.815 3.515 1.825 12.642.009 9.409-.429 8.449 3.816 8.367l3.191-.062.068-9.222c.077-10.402.004-11.153-1.365-13.979-1.793-3.7-7.143-6.394-11.258-5.667m26.889.081c-10.643 1.559-15.501 15.462-8.591 24.591 4.377 5.783 12.653 6.885 18.426 2.453 1.306-1.003 1.276-1.005 1.276.091 0 1.718.086 1.763 3.323 1.763 1.574 0 3.021-.06 3.214-.134.537-.207.537-27.525 0-27.731-.678-.26-5.99-.148-6.27.132-.147.147-.267.755-.267 1.352v1.086l-.985-.867c-.872-.768-2.658-1.771-4.372-2.456-.812-.325-4.291-.494-5.754-.28m59.666.007c-5.97.964-10.446 5.122-12.322 11.447-.605 2.036-.106 7.004.93 9.266 3.18 6.946 11.698 10.917 18.059 8.418 9.748-3.829 13.259-14.147 7.727-22.709-1.701-2.633-6.154-5.975-7.961-5.975-.193 0-.519-.089-.725-.199-.545-.289-4.412-.457-5.708-.248m30.889-.028c-1.188.217-3.363 1.232-4.375 2.041l-.82.656-.069-.833-.069-.833h-6.444v27.777h6.888l.146-8.333c.134-7.694.266-9.584.754-10.778 1.351-3.308 6.324-4.142 8.385-1.408 1.321 1.753 1.376 2.192 1.448 11.509.043 5.684.145 8.641.305 8.833.279.337 6.309.414 6.825.087.466-.295.204-18.717-.291-20.45-1.668-5.838-6.99-9.307-12.683-8.268M183 105.828c-5.279 1.785-8.237 4.918-10.107 10.706-.868 2.688-.15 8.542 1.406 11.466 4.015 7.545 13.35 9.69 19.981 4.591 1.329-1.022 1.276-1.039 1.276.385 0 .888.091 1.234.351 1.334.458.175 5.506.175 5.964 0 .537-.207.537-27.525 0-27.731-.5-.191-5.709-.161-6.011.036-.138.089-.323.697-.412 1.35l-.162 1.187-.699-.667c-2.543-2.429-8.333-3.757-11.587-2.657m83.029.404c2.529.852 4.887 2.819 5.914 4.933 1.313 2.702 1.374 3.301 1.382 13.674l.008 9.395-3.277-.061-3.278-.062-.127-8.444c-.146-9.716-.288-10.614-1.954-12.409-2.14-2.306-6.626-1.479-8.189 1.509-.803 1.533-.952 3.345-.952 11.511v7.944h-6.667v-27.568l3.055.062 3.056.062.069.833c.063.756.336 1.1.524.659.092-.219 1.162-.971 2.185-1.537.678-.376 1.402-.611 3.222-1.047.877-.211 3.689.095 5.029.546m27.58-.102c1.747.616 3.168 1.432 4.231 2.429 1.32 1.239 1.237 1.263 1.316-.392l.066-1.389h6.222v27.333l-2.857.062c-3.371.074-3.476.025-3.476-1.645 0-1.409-.008-1.412-1.141-.442-7.096 6.073-17.975 2.637-21.011-6.637-3.682-11.248 6.393-22.938 16.65-19.319m60.246.12c10.372 3.057 13.822 16.685 6.173 24.379-9.394 9.448-24.917 2.939-24.917-10.447 0-9.733 9.368-16.696 18.744-13.932m29.975-.066c3.414 1.127 5.631 3.459 6.767 7.12l.595 1.918.015 9.445.015 9.444h-6.666l-.113-8.667c-.122-9.397-.158-9.684-1.468-11.665-1.482-2.239-5.203-2.459-7.499-.444-1.803 1.584-2.143 3.758-2.143 13.736v7.151h-6.666v-27.555h6.222v.889c0 1.066.104 1.085 1.161.214 2.496-2.057 6.422-2.694 9.78-1.586m-193.676.033c1.732.569 2.91 1.248 4.195 2.417.57.519 1.062.913 1.093.877.031-.037.145-.667.252-1.4l.195-1.333h6v27.333h-6l-.066-1.389c-.079-1.654.007-1.631-1.564-.412-7.726 5.994-18.269 2.208-20.936-7.518-3.077-11.223 6.622-21.926 16.831-18.575m47.777.37c-.084.085-.153 6.335-.153 13.89v13.737l.5.123c.275.068 1.9.095 3.611.06l3.111-.064v-27.777l-3.458-.061c-1.901-.034-3.526.008-3.611.092m87.284.13c-.059.155-.082 6.433-.05 13.95l.057 13.666 3.111.064c1.711.035 3.337.008 3.613-.06l.502-.124-.057-13.829-.058-13.828-3.504-.062c-2.682-.047-3.531.006-3.614.223m-80.326 13.733v13.784l-3.389-.062-3.389-.061-.058-13.444c-.031-7.395-.009-13.57.049-13.723.079-.205.979-.277 3.447-.277h3.34v13.783m87.222-.006v13.667l-3.389.061-3.389.062v-27.579l3.389.061 3.389.062v13.666m-42.889-8.472c-7.855 2.073-8.272 13.991-.576 16.466 6.983 2.245 12.761-5.184 9.501-12.216-1.43-3.084-5.677-5.107-8.925-4.25m-104.485.323c-3.025 1.115-5.147 4.434-5.17 8.086-.063 9.98 13.153 11.818 15.664 2.178 1.702-6.535-4.406-12.509-10.494-10.264m31.555.351c-7.64 3.596-5.579 15.64 2.772 16.202 7.321.492 11.212-8.885 6.024-14.514-2.107-2.286-5.956-3.024-8.796-1.688m78.113.076c3.195 1.495 5.285 6.181 4.23 9.484-1.389 4.35-3.842 6.45-7.543 6.458-9.253.022-10.677-14.256-1.648-16.528.976-.246 3.93.103 4.961.586m52.586-.428c-7.616 2.948-7.254 13.914.538 16.279 4.888 1.483 9.793-2.577 9.802-8.113.009-5.582-5.591-10.004-10.34-8.166m-157.044.126c.213.109.868.428 1.457.709 5.134 2.453 5.065 12.1-.105 14.575-1.789.856-2.203.963-3.743.963s-1.955-.107-3.741-.962c-5.763-2.758-5.15-12.964.911-15.169.858-.312 4.674-.397 5.221-.116m31.765.056c1.681.685 2.037.916 3.102 2.011 6.778 6.969-1.633 18.142-9.635 12.799-.931-.622-2.693-2.898-2.863-3.699-.068-.323-.218-.817-.331-1.097-2.152-5.311 4.491-12.149 9.727-10.014m130.13.046c5.451 1.898 7.072 9.663 2.891 13.846-6.348 6.351-15.999-1.436-12.162-9.812.735-1.605 3.252-3.889 4.284-3.889.248 0 .514-.1.589-.223.2-.322 3.411-.266 4.398.078"/></g></svg>