<svg xmlns="http://www.w3.org/2000/svg" role="img" viewBox="91.63 79.13 383.50 125.00"><title>imec (member) logo</title><style>svg {enable-background:new 0 0 566.9 283.5}</style><path fill="#3f98bd" d="M116 86.6h-13.8c-1.8 0-3.1 1.3-3.1 3.1v13.8c0 1.8 1.3 3.1 3.1 3.1H116c1.8 0 3.1-1.3 3.1-3.1V89.7c0-1.8-1.2-3.1-3.1-3.1z"/><path fill="#3c3c3b" d="M364.5 116.8c-23.8 0-34.8 12.7-34.8 40.2 0 28.3 11.8 39.8 38.9 39.8 7.8 0 14.8-1 21.4-2.4 1.3-.3 2.1-1.4 2.1-2.9V181c0-1.9-1.1-2.5-2.9-2.2-7.3 1.3-12.2 2.1-19.4 2.1-14 0-20.3-3.5-21.3-17.3h45.9c2.2 0 3.2-1 3.2-3.2v-.3c.1-30.6-9.6-43.3-33.1-43.3zm-15.8 34c.6-13.7 5.6-18.3 16-18.3 10 0 14.4 4.6 15.2 18.3h-31.2zm-157.6 29.5c-1.2.2-3.3.5-5.8.5-6.2 0-8.5-2-8.5-12.8v-48.5c0-1.6-1-2.6-2.6-2.6h-13.8c-1.6 0-2.6 1-2.6 2.6v50.9c0 20 7.1 26.5 23.5 26.5 4.6 0 8.5-.5 10.2-.8 2-.3 2.5-1.6 2.5-3v-10.7c-.1-1.8-1.1-2.5-2.9-2.1zm99.9-63.5c-4.6 0-8.5.5-10.2.8-2 .3-2.5 1.6-2.5 3v10.7c0 1.8 1 2.5 2.8 2.1 1.2-.2 3.3-.5 5.8-.5 6.2 0 8.5 2 8.5 12.8v48.5c0 1.6 1 2.6 2.6 2.6h13.8c1.6 0 2.6-1 2.6-2.6v-50.9c.1-20.1-7-26.5-23.4-26.5zm-43.3 0c-4.6 0-8.5.5-10.2.8-2 .3-2.5 1.6-2.5 3v10.7c0 1.8 1 2.5 2.8 2.1 1.2-.2 3.3-.5 5.8-.5 6.2 0 8.5 2 8.5 12.8v48.5c0 1.6 1 2.6 2.6 2.6h13.8c1.6 0 2.6-1 2.6-2.6v-50.9c.1-20.1-7-26.5-23.4-26.5zm-42.9 0c-4.6 0-8.5.5-10.2.8-2 .3-2.5 1.6-2.5 3v10.7c0 1.8 1 2.5 2.8 2.1 1.2-.2 3.3-.5 5.8-.5 6.2 0 8.5 2 8.5 12.8v48.5c0 1.6 1 2.6 2.6 2.6h13.8c1.6 0 2.6-1 2.6-2.6v-50.9c.1-20.1-7-26.5-23.4-26.5zm260 63.1c-5.2.6-8.6 1-12.5 1-15.6 0-20.3-4.4-20.3-24 0-19.5 4.9-24 20.2-24 4 0 7.6.3 12.9.9 1.7.2 2.9-.3 2.9-2.4v-10c0-1.4-.8-2.5-2.2-2.9-4.9-1.1-10.6-1.7-16.7-1.7-25.6 0-35.9 11.6-35.9 40s10.3 40 35.9 40c6.2 0 11.7-.6 16.7-1.7 1.4-.3 2.2-1.4 2.2-2.9v-10c-.2-2-1.5-2.5-3.2-2.3z"/></svg>