<svg xmlns="http://www.w3.org/2000/svg" role="img" viewBox="-2.99 -4.24 220.48 36.73"><title>INESC TEC (member) logo</title><style>svg {enable-background:new 0 0 214.7 28.6}</style><style>.st0{fill:#3e3a38}.st1{opacity:.7;enable-background:new}.st2{fill:#595655}</style><path d="M36.2 6.2H40v16.1h-3.8z" class="st0"/><path d="M52.6 14.6c0 .2 0 .6.1 1.1l-5.5-9.5h-4.1v16.1H46v-9.6-.7-.5l6.3 10.9h3.2V6.2h-2.9v8.4z" class="st0"/><path d="M93.2 19.5c-1 0-1.7-.4-2.2-1.1-.5-.7-.8-2.1-.8-4.1 0-3.5 1-5.2 2.9-5.2 1.7 0 2.6 1.1 2.7 3.4l3.9-.2C99.3 8.1 97.1 6 93.2 6c-2.2 0-4 .8-5.3 2.3-1.3 1.5-1.9 3.5-1.9 6 0 2.6.7 4.6 2 6.1s3.1 2.2 5.2 2.2c1.7 0 3.2-.5 4.4-1.5 1.2-1 1.9-2.5 2.2-4.4l-3.7-.2c-.4 2-1.3 3-2.9 3" class="st0"/><path d="M58.8 22.3h11.5v-3.2h-7.7v-3.5h6v-3h-6V9.3h7.7V6.2H58.8z" class="st0"/><g class="st1"><path d="M82.1 13c-.8-.3-2-.7-3.6-1-1-.2-1.6-.4-1.9-.7-.3-.3-.4-.6-.4-1 0-1 .7-1.4 2.2-1.4 1.4 0 2.3.6 2.7 1.9l3.2-1.1c-.9-2.5-2.9-3.7-6-3.7-1.8 0-3.2.5-4.2 1.5s-1.6 2.2-1.6 3.6.4 2.5 1.3 3.2c.9.7 2.3 1.3 4.4 1.7 1.1.2 1.8.5 2.2.7.4.3.6.6.6 1.1 0 .5-.2.9-.6 1.2-.4.3-1.1.5-1.9.5-1.8 0-2.9-.8-3.3-2.3l-3.5.8c.4 1.5 1.1 2.6 2.3 3.3 1.2.7 2.6 1.1 4.2 1.1 2.2 0 3.9-.5 5-1.6s1.7-2.3 1.7-3.8c0-.9-.3-1.8-.8-2.5-.6-.6-1.3-1.1-2-1.5" class="st2"/><path d="M133.9 19.5c-1 0-1.7-.4-2.2-1.1-.5-.7-.8-2.1-.8-4.1 0-3.5 1-5.2 2.9-5.2 1.7 0 2.6 1.1 2.7 3.4l3.9-.2c-.5-4.2-2.7-6.2-6.5-6.2-2.2 0-4 .8-5.3 2.3-1.3 1.5-1.9 3.5-1.9 6 0 2.6.7 4.6 2 6.1s3.1 2.2 5.2 2.2c1.7 0 3.2-.5 4.4-1.5 1.2-1 1.9-2.5 2.2-4.4l-3.7-.2c-.4 1.9-1.3 2.9-2.9 2.9" class="st2"/></g><g class="st1"><path d="M100.3 9.4h4v12.9h3.8V9.4h4V6.2h-11.8z" class="st2"/></g><g class="st1"><path d="M113.9 22.3h11.5v-3.2h-7.6v-3.5h6v-3h-6V9.3h7.6V6.2h-11.5z" class="st2"/></g><path d="M28.5 13.3V5.9c0-2-1.6-3.6-3.6-3.6h-20c-2 0-3.6 1.6-3.6 3.6v16.7c0 2 1.6 3.6 3.6 3.6h15.3c2 0 3.7-1.6 3.7-3.6V19l4-4c.3-.4.6-1 .6-1.7m-6.8-7.1c0 .6-.3 1.1-.8 1.4v3.3c0 .2-.1.4-.2.5L18 14.1c-.1.1-.3.2-.5.2H12v.1c-.3.7-1 1.2-1.9 1.2-1.1 0-2-.9-2-2s.9-2 2-2c.8 0 1.5.5 1.9 1.2v.1h5.2l2.2-2.2v-3c-.5-.3-.8-.8-.8-1.4 0-.9.7-1.6 1.6-1.6.7-.1 1.5.7 1.5 1.5m4.7 0c0 .6-.3 1.1-.8 1.4v5.2c0 .2-.1.4-.2.5l-4.5 4.5v3c.5.3.8.8.8 1.4 0 .9-.7 1.6-1.6 1.6s-1.6-.7-1.6-1.6c0-.6.3-1.1.8-1.4v-3.3c0-.2.1-.4.2-.5l4.5-4.5V7.6c-.5-.3-.8-.8-.8-1.4 0-.9.7-1.6 1.6-1.6.9 0 1.6.8 1.6 1.6m-15.6 7.4c0-.4-.4-.8-.8-.8s-.8.4-.8.8.4.8.8.8c.5 0 .8-.4.8-.8" class="st0"/><path d="M36.2 6.2H40v16.1h-3.8z" class="st0"/><path d="M58.8 22.3h11.5v-3.2h-7.7v-3.5h6v-3h-6V9.3h7.7V6.2H58.8z" class="st0"/><path d="M82.1 13c-.8-.3-2-.7-3.6-1-1-.2-1.6-.4-1.9-.7-.3-.3-.4-.6-.4-1 0-1 .7-1.4 2.2-1.4 1.4 0 2.3.6 2.7 1.9l3.2-1.1c-.9-2.5-2.9-3.7-6-3.7-1.8 0-3.2.5-4.2 1.5s-1.6 2.2-1.6 3.6.4 2.5 1.3 3.2c.9.7 2.3 1.3 4.4 1.7 1.1.2 1.8.5 2.2.7.4.3.6.6.6 1.1 0 .5-.2.9-.6 1.2-.4.3-1.1.5-1.9.5-1.8 0-2.9-.8-3.3-2.3l-3.5.8c.4 1.5 1.1 2.6 2.3 3.3 1.2.7 2.6 1.1 4.2 1.1 2.2 0 3.9-.5 5-1.6s1.7-2.3 1.7-3.8c0-.9-.3-1.8-.8-2.5-.6-.6-1.3-1.1-2-1.5" class="st0"/><path d="M167.8 23.1h-3.1c-.5 0-1.1-.3-1.5-.6l-1-1c-.1-.1-.1-.2 0-.3.1-.1.2-.1.3 0l1 1c.3.3.8.5 1.2.5h3.1c.4 0 .9-.2 1.2-.5l.5-.5c.3-.3.5-.8.5-1.2v-.8c0-.4-.2-.9-.5-1.2l-2.6-2.6c-.1-.1-.1-.2 0-.3.1-.1.2-.1.3 0l2.6 2.6c.3.3.6 1 .6 1.5v.8c0 .5-.3 1.1-.6 1.5l-.5.5c-.4.3-1 .6-1.5.6z" class="st0"/><path d="M166.2 7.5h-7c-.1 0-.2-.1-.2-.2s.1-.2.2-.2h7c.1 0 .2.1.2.2s-.1.2-.2.2z" class="st0"/><path d="M163.5 12.5s-.1 0-.1-.1c-.1-.1-.1-.2 0-.3l6.1-6.1c.1-.1.1-.2.1-.2H159.3c-.1 0-.2-.1-.2-.2s.1-.2.2-.2h10.1c.4 0 .5.2.6.3 0 .1.1.3-.2.6l-6.1 6.1c-.1.1-.2.1-.2.1z" class="st0"/><path d="M164.7 13.7s-.1 0-.1-.1c-.1-.1-.1-.2 0-.3l6.5-6.5c.3-.3.5-.8.5-1.2v-.7c0-.3-.3-.6-.6-.6h-11.7c-.1 0-.2-.1-.2-.2s.1-.2.2-.2H171c.5 0 1 .4 1 1v.8c0 .5-.3 1.1-.6 1.5l-6.5 6.5h-.2z" class="st0"/><path d="M165.8 14.9s-.1 0-.1-.1c-.1-.1-.1-.2 0-.3l6.9-6.9c.3-.3.5-.8.5-1.2v-3c0-.3-.3-.6-.6-.6h-13.3c-.1 0-.2-.1-.2-.2s.1-.2.2-.2h13.3c.5 0 1 .4 1 1v3.1c0 .5-.3 1.1-.6 1.5l-6.9 6.9h-.2z" class="st0"/><path d="M174.8 21.5c-.1 0-.2-.1-.2-.2v-3.9c0-.4-.2-.9-.5-1.2l-3.2-3.2c-.4-.4-.4-1 0-1.4l3.2-3.2c.3-.3.5-.8.5-1.2v-3c0-.1.1-.2.2-.2s.2.1.2.2v3.1c0 .5-.3 1.1-.6 1.5l-3.2 3.2c-.2.2-.2.6 0 .8l3.2 3.2c.3.3.6 1 .6 1.5v3.9s-.1.1-.2.1z" class="st0"/><path d="M167.8 21.5h-2.3c-.5 0-1.1-.2-1.3-.4l-.4-.4c-.1-.1-.1-.2 0-.3.1-.1.2-.1.3 0l.4.4c.2.2.6.3 1 .3h2.3c.1 0 .2.1.2.2s-.1.2-.2.2z" class="st0"/><path d="M169.3 26.2h-6.2c-.5 0-1.1-.3-1.5-.6L159 23c-.1-.1-.1-.2 0-.3.1-.1.2-.1.3 0l2.6 2.6c.3.3.8.5 1.2.5h6.2c.4 0 .9-.2 1.2-.5l2-2c.3-.3.5-.8.5-1.2v-3.9c0-.4-.2-.9-.5-1.2l-3.3-3.3c-.1-.1-.1-.2 0-.3.1-.1.2-.1.3 0l3.3 3.3c.3.3.6 1 .6 1.5v3.9c0 .5-.3 1.1-.6 1.5l-2 2c-.3.3-1 .6-1.5.6z" class="st0"/><path d="M168.6 24.6h-4.7c-.5 0-1.1-.3-1.5-.6l-1.8-1.8c-.1-.1-.1-.2 0-.3.1-.1.2-.1.3 0l1.8 1.8c.3.3.8.5 1.2.5h4.7c.4 0 .9-.2 1.2-.5l1.2-1.2c.3-.3.5-.8.5-1.2V19c0-.4-.2-.9-.5-1.2l-3-3c-.1-.1-.1-.2 0-.3.1-.1.2-.1.3 0l3 3c.3.3.6 1 .6 1.5v2.3c0 .5-.3 1.1-.6 1.5L170 24c-.3.4-.9.6-1.4.6z" class="st0"/><path d="M193.5 21.5c-.1 0-.2-.1-.2-.2v-5.5c0-.4-.2-.9-.5-1.2l-2.8-2.8c-.3-.3-.8-.5-1.2-.5h-4.7c-.1 0-.2-.1-.2-.2s.1-.2.2-.2h4.7c.5 0 1.1.3 1.5.6l2.8 2.8c.3.3.6 1 .6 1.5v5.5c0 .1-.1.2-.2.2z" class="st0"/><path d="M177.9 14.5c-.1 0-.2-.1-.2-.2V8.1c0-.5.4-1 1-1h14.8c.1 0 .2.1.2.2s-.1.2-.2.2h-14.8c-.3 0-.6.3-.6.6v6.2c0 .1-.1.2-.2.2z" class="st0"/><path d="M193.5 2.8h-10.9c-.1 0-.2-.1-.2-.2s.1-.2.2-.2h10.9c.1 0 .2.1.2.2s-.1.2-.2.2z" class="st0"/><path d="M186.5 21.5h-2.3c-.5 0-1.1-.2-1.3-.4l-.4-.4c-.1-.1-.1-.2 0-.3.1-.1.2-.1.3 0l.4.4c.2.2.6.3 1 .3h2.3c.1 0 .2.1.2.2s-.1.2-.2.2z" class="st0"/><path d="M193.5 5.9h-14c-.1 0-.2-.1-.2-.2s.1-.2.2-.2h14c.1 0 .2.1.2.2s-.1.2-.2.2z" class="st0"/><path d="M188.1 26.2h-6.2c-.5 0-1.1-.3-1.5-.6l-2.6-2.6c-.1-.1-.1-.2 0-.3.1-.1.2-.1.3 0l2.6 2.6c.3.3.8.5 1.2.5h6.2c.4 0 .9-.2 1.2-.5l2-2c.3-.3.5-.8.5-1.2v-5.5c0-.4-.2-.9-.5-1.2l-2-2c-.3-.3-.8-.5-1.2-.5h-4.7c-.5 0-1-.4-1-1V8.8c0-.1.1-.2.2-.2s.2.1.2.2V12c0 .3.3.6.6.6h4.7c.5 0 1.1.3 1.5.6l2 2c.3.3.6 1 .6 1.5v5.5c0 .5-.3 1.1-.6 1.5l-2 2c-.4.2-1 .5-1.5.5z" class="st0"/><path d="M186.5 23.1h-3.1c-.5 0-1.1-.3-1.5-.6l-1-1c-.1-.1-.1-.2 0-.3.1-.1.2-.1.3 0l1 1c.3.3.8.5 1.2.5h3.1c.4 0 .9-.2 1.2-.5l.5-.5c.3-.3.5-.8.5-1.2v-2.3c0-.4-.2-.9-.5-1.2l-.5-.5c-.3-.3-.8-.5-1.2-.5h-6.2c-.5 0-1-.4-1-1V8.8c0-.1.1-.2.2-.2s.2.1.2.2V15c0 .3.3.6.6.6h6.2c.5 0 1.1.3 1.5.6l.5.5c.3.3.6 1 .6 1.5v2.3c0 .5-.3 1.1-.6 1.5l-.5.5c-.4.3-1 .6-1.5.6z" class="st0"/><path d="M193.5 4.3H181c-.1 0-.2-.1-.2-.2s.1-.1.2-.1h12.5c.1 0 .2.1.2.2s-.1.1-.2.1z" class="st0"/><path d="M187.3 24.6h-4.7c-.5 0-1.1-.3-1.5-.6l-1.8-1.8c-.1-.1-.1-.2 0-.3.1-.1.2-.1.3 0l1.8 1.8c.3.3.8.5 1.2.5h4.7c.4 0 .9-.2 1.2-.5l1.2-1.2c.3-.3.5-.8.5-1.2v-3.9c0-.4-.2-.9-.5-1.2l-1.2-1.2c-.3-.3-.8-.5-1.2-.5h-5.5c-.5 0-1-.4-1-1V8.8c0-.1.1-.2.2-.2s.2.1.2.2v4.7c0 .3.3.6.6.6h5.5c.5 0 1.1.3 1.5.6l1.2 1.2c.3.3.6 1 .6 1.5v3.9c0 .5-.3 1.1-.6 1.5l-1.2 1.2c-.4.4-1 .6-1.5.6z" class="st0"/><g><path d="M199.8 6.1h.4V4.3l-.5.3-.1-.3.7-.4h.3V6h.4v.3h-1.2v-.2zm2.1-.1s.2.1.4.1c.4 0 .6-.4.6-.8-.1.1-.3.2-.6.2-.5 0-.7-.3-.7-.8s.3-.8.8-.8.9.4.9 1.2c0 .8-.3 1.4-1 1.4-.3 0-.5-.1-.6-.2l.2-.3zm.6-1.8c-.2 0-.5.2-.5.5s.1.5.5.5c.3 0 .4-.1.5-.2 0-.5-.2-.8-.5-.8zm1.5.3c0-.4.3-.6.7-.6.5 0 .7.3.7.6 0 .2-.1.4-.4.6.2.1.5.3.5.7 0 .3-.2.7-.9.7-.6 0-.9-.4-.9-.7 0-.3.2-.6.5-.7 0-.2-.2-.3-.2-.6zm.2 1.2c0 .3.3.4.5.4s.5-.1.5-.4c0-.2-.3-.4-.5-.5-.2.1-.5.3-.5.5zm1-1.2c0-.2-.2-.3-.4-.3s-.4.1-.4.3c0 .2.1.3.4.4.2-.1.4-.2.4-.4zm1.1 1.4c.1.1.3.2.6.2.4 0 .5-.2.5-.5 0-.2-.1-.5-.5-.5-.2 0-.3 0-.4.1l-.2-.1.2-1.1h1.2v.3h-.9l-.1.6s.2-.1.3-.1c.5 0 .8.3.8.8 0 .4-.3.8-.9.8-.3 0-.6-.1-.7-.3l.1-.2zM200.1 9h-.8v-.6h2.2V9h-.8v1.9h-.7V9zm1.9-.6h.7v.9h.9v-.9h.7v2.5h-.7v-1h-.9v1h-.7V8.4zm2.9 0h.7v2.5h-.7V8.4zm1.3 0h1.1c.5 0 .9.3.9.8 0 .3-.2.6-.4.7l.5 1h-.7l-.4-.9h-.3v.9h-.7V8.4zm1 1.1c.2 0 .3-.1.3-.3 0-.2-.1-.3-.3-.3h-.3v.6h.3zm2.1-.5h-.8v-.6h2.2V9h-.7v1.9h-.7V9zm2.6.9l-.9-1.5h.8l.5.9.5-.9h.7l-.9 1.5v1h-.7v-1zM199.5 13h1.8v.6h-1.1v.4h.8v.6h-.8v.9h-.7V13zm2.2 0h.7v2.5h-.7V13zm1.1 0h.7l.6 1.8.5-1.8h.7l-.9 2.5h-.7l-.9-2.5zm3 0h1.8v.6h-1.2v.4h.9v.5h-.9v.4h1.2v.6h-1.9V13zm-5.6 6.1l-.9-1.5h.8l.5.9.5-.9h.7l-.9 1.5v1h-.7v-1zm2-1.6h1.8v.6h-1.2v.4h.9v.5h-.9v.4h1.2v.6h-1.9v-2.5zm3.2 0h.8l.9 2.5h-.7l-.2-.5h-.8l-.2.5h-.7l.9-2.5zm.6 1.5l-.3-.9-.3.9h.6zm1.4-1.5h1.1c.5 0 .9.3.9.8 0 .3-.2.6-.4.7l.5 1h-.7l-.4-.9h-.3v.9h-.7v-2.5zm1 1.2c.2 0 .3-.1.3-.3 0-.2-.1-.3-.3-.3h-.3v.6h.3zm1.7.6c.1.1.4.3.7.3.1 0 .3 0 .3-.2 0-.1-.1-.2-.4-.3h-.1c-.3-.1-.7-.3-.7-.7 0-.5.3-.8 1-.8.5 0 .8.2.9.3l-.3.4c-.2-.1-.4-.2-.6-.2-.1 0-.3.1-.3.2 0 .2.2.2.4.3h.1c.3.1.7.3.7.8s-.5.8-1 .8-.8-.1-1.1-.4l.4-.5zm-10.6 5.1c0-.3.1-.5.3-.6.4-.4.8-.6.8-.9 0-.1-.1-.4-.4-.4-.3 0-.4.2-.5.3l-.3-.2c.1-.2.3-.4.8-.4s.8.3.8.6c0 .4-.3.6-.5.8-.3.3-.6.5-.6.7h1.1v.3h-1.5v-.2zm2.1-1c0-.8.3-1.2.9-1.2.6 0 .9.5.9 1.2 0 .8-.3 1.3-.9 1.3s-.9-.5-.9-1.3zm1.5 0c0-.6-.2-.9-.6-.9-.4 0-.6.4-.6.9 0 .6.2 1 .6 1 .4 0 .6-.4.6-1zm.9 1c0-.3.1-.5.3-.6.4-.4.8-.6.8-.9 0-.1-.1-.4-.4-.4-.3 0-.4.2-.5.3l-.3-.2c.1-.2.3-.4.8-.4s.8.3.8.6c0 .4-.3.6-.5.8-.3.3-.6.5-.6.7h1.1v.3H204v-.2zm2.1-1c0-.8.3-1.2.9-1.2.6 0 .9.5.9 1.2 0 .8-.3 1.3-.9 1.3-.6 0-.9-.5-.9-1.3zm1.4 0c0-.6-.2-.9-.6-.9-.4 0-.6.4-.6.9 0 .6.2 1 .6 1 .4 0 .6-.4.6-1z" class="st0"/></g><g><path d="M150 28.5c-.1 0-.2-.1-.2-.2V.3c0-.1.1-.2.2-.2s.2.1.2.2v28c0 .1-.1.2-.2.2z" class="st0"/></g></svg>