<svg xmlns="http://www.w3.org/2000/svg" role="img" viewBox="57.86 56.36 891.28 586.78"><title>INESC-ID (member) logo</title><g id="g1"><g id="group-R5" fill-opacity="1" fill-rule="nonzero" stroke="none"><path id="path2" fill="#92cb23" d="m 5255.74,1294.15 v 434.9 c 0,169.24 -75.19,243.01 -263.23,243.01 -138.85,0 -293.61,-41.96 -293.61,-41.96 l 5.78,-134.51 c 0,0 176.46,11.56 271.92,11.56 57.85,0 85.35,-15.91 85.35,-78.1 v -44.84 l -154.75,-11.57 c -159.11,-11.56 -253.16,-57.85 -253.16,-221.29 0,-153.32 72.33,-237.2 224.21,-237.2 186.9,0 377.49,80 377.49,80 m -193.79,100.78 c 0,0 -79.57,-23.15 -141.74,-23.15 -52.08,0 -70.87,34.73 -70.87,85.36 0,52.05 30.35,76.66 80.98,80.99 l 131.63,11.56 z m -449.84,199.61 c 0,222.73 -81,377.52 -332.66,377.52 -251.66,0 -332.67,-154.79 -332.67,-377.52 0,-222.76 81.01,-380.39 332.67,-380.39 251.66,0 332.66,157.63 332.66,380.39 m -196.69,0 c 0,-140.3 -28.93,-215.51 -135.97,-215.51 -107.03,0 -135.95,75.21 -135.95,215.51 0,140.29 28.92,212.61 135.95,212.61 107.04,0 135.97,-72.32 135.97,-212.61 m -517.52,8.69 c 0,277.71 -95.48,368.83 -292.2,368.83 -63.63,0 -156.19,-39.07 -156.19,-39.07 v 192.52 H 3255.7 v -891.13 c 0,0 212.61,-20.23 282.03,-20.23 254.58,0 360.17,78.08 360.17,389.08 m -196.72,0 c 0,-156.21 -30.37,-215.51 -163.45,-215.51 -21.69,0 -88.22,5.76 -88.22,5.76 v 386.19 c 0,0 72.35,18.81 130.18,18.81 75.21,0 121.49,-49.18 121.49,-195.25 m -910.76,135.96 c 0,39.06 17.37,57.85 101.25,57.85 83.92,0 263.23,-23.15 263.23,-23.15 l 2.9,160.55 c 0,0 -176.47,36.17 -280.6,36.17 -151.86,0 -279.15,-67.99 -279.15,-235.78 0,-159.08 82.45,-196.7 238.66,-222.73 133.06,-21.7 148.99,-36.18 148.99,-67.99 0,-37.6 -24.61,-56.39 -117.17,-56.39 -73.76,0 -253.14,23.13 -253.14,23.13 l -5.78,-162 c 0,0 170.69,-34.7 277.72,-34.7 180.8,0 290.72,65.08 290.72,234.29 0,146.1 -59.3,195.28 -227.08,225.65 -133.07,24.59 -160.55,31.81 -160.55,65.1 m -274.54,406.42 c 0,61.97 -51.3,112.23 -114.56,112.23 -63.31,0 -114.64,-50.26 -114.64,-112.23 0,-61.97 51.33,-112.22 114.64,-112.22 63.26,0 114.56,50.25 114.56,112.22 m -532.97,-914.12 h 193.82 v 1012.48 h -193.82 z m 515.29,723.2 h -193.82 v -723.2 h 193.82 v 723.2" transform="matrix(.13333 0 0 -.13333 0 680.32)"/><path id="path3" fill="#245680" d="m 6991.45,2188.05 v 949.96 h -193.83 v -292.18 c 0,0 -102.69,20.26 -156.19,20.26 -196.74,0 -299.43,-111.38 -299.43,-376.06 0,-254.57 63.96,-381.86 282.04,-381.86 174.75,0 367.41,79.88 367.41,79.88 m -193.83,115.37 c 0,0 -72.32,-21.68 -140.29,-21.68 -91.14,0 -118.62,60.75 -118.62,208.29 0,146.07 44.85,208.28 117.17,208.28 62.21,0 141.74,-14.48 141.74,-14.48 z m -503.01,738.73 c 0,62 -51.3,112.25 -114.58,112.25 -63.3,0 -114.61,-50.25 -114.61,-112.25 0,-61.97 51.31,-112.22 114.61,-112.22 63.28,0 114.58,50.25 114.58,112.22 m -853.69,-547.79 c 0,144.65 26.06,198.16 164.89,198.16 54.97,0 169.23,-11.58 169.23,-11.58 l 5.79,153.31 c 0,0 -147.52,31.84 -231.43,31.84 -215.5,0 -305.17,-115.71 -305.17,-371.73 0,-271.91 85.35,-386.19 300.84,-386.19 80.99,0 235.76,30.37 235.76,30.37 l -5.79,154.77 c 0,0 -112.79,-11.57 -167.77,-11.57 -138.87,0 -166.35,50.61 -166.35,212.62 m -638.16,138.85 c 0,39.06 17.36,57.86 101.25,57.86 83.89,0 263.26,-23.13 263.26,-23.13 l 2.88,160.54 c 0,0 -176.48,36.16 -280.61,36.16 -151.86,0 -279.15,-67.98 -279.15,-235.77 0,-159.09 82.44,-196.7 238.65,-222.75 133.07,-21.7 148.97,-54.18 148.97,-86 0,-70.56 -90.8,-62.24 -129.97,-55.07 -81.68,14.92 -165.36,61.77 -278.7,61.77 -117.31,0 -243.01,-61.77 -316.83,-61.77 -104.15,0 -135.97,52.85 -137.41,139.62 h 421.48 c 0,0 14.46,60.34 14.46,134.53 0,218.52 -98.94,326.89 -311.56,326.89 -211.17,0 -319.65,-131.63 -319.65,-389.09 0,-260.35 92.58,-368.83 310.98,-368.83 134.29,0 223.7,70.04 336.07,70.04 112.35,0 202.31,-70.04 323.33,-70.04 179.58,0 280.18,65.08 280.18,234.32 0,118.08 -59.3,195.25 -227.08,225.64 -133.07,24.58 -160.55,31.82 -160.55,65.08 m -669.1,-81 c 1.44,109.93 33.26,154.77 125.82,154.77 91.13,0 124.4,-37.62 124.4,-154.77 z m -444.05,-426.7 h 193.83 v 391.99 c 0,221.3 -52.08,348.59 -254.59,348.59 -181.36,0 -373.15,-80.77 -373.15,-80.77 v -659.81 h 193.81 v 540.97 c 0,0 63.64,26.04 131.63,26.04 94.01,0 108.47,-70.87 108.47,-180.79 z m -516.74,916.64 c 0,62 -51.3,112.25 -114.59,112.25 -63.29,0 -114.61,-50.25 -114.61,-112.25 0,-61.97 51.32,-112.22 114.61,-112.22 63.29,0 114.59,50.25 114.59,112.22 m -17.69,-193.43 h -193.81 v -723.21 h 193.81 z m 3121.74,0 h -193.81 v -723.21 h 193.81 z m -4173.81,563.61 v 0 z m 526.93,-212.58 c 132.76,178.3 137.1,374.6 -10.84,522.45 -40.89,40.66 -93.91,75.7 -156.07,105.27 l 0.02,0.05 c -2.56,1.22 -5.47,1.91 -8.56,1.91 -10.99,0 -19.91,-8.88 -19.91,-19.81 0,-7.84 4.56,-14.61 11.2,-17.84 h -0.04 c 59.58,-28.94 107.72,-63.75 140.42,-104.69 98.89,-123.82 104.44,-271.66 13.53,-409.66 -28.68,64.57 -65.45,126.67 -111.19,183.32 l 0.01,0.01 c -2.88,3.47 -7.24,5.67 -12.12,5.67 -8.67,0 -15.71,-6.99 -15.71,-15.61 0,-3.94 1.49,-7.53 3.9,-10.29 l 0.01,0.02 c 47.47,-57.12 86.18,-121.58 115.24,-191.03 -95.53,-125.33 -272.55,-240.43 -533.82,-319.08 -102.86,-30.98 -211.53,-55.62 -320.69,-73.46 -69.09,92.77 -131.18,202.69 -181.14,328.98 177.37,17.86 361.86,64.75 526.74,144.3 21.7,10.47 42.03,22.18 61.08,34.99 7.14,5.01 11.83,13.29 11.83,22.65 0,15.27 -12.46,27.63 -27.84,27.63 -4.66,0 -9.14,-1.15 -12.98,-3.2 -26.33,-16.35 -55.29,-30.36 -87.12,-41.66 -161.62,-57.44 -338.27,-89.42 -503.23,-97.81 -28.42,85.78 -51.4,178.24 -67.52,277.19 66.19,7.36 134.35,11.89 203.5,13.34 9.82,0 17.77,7.91 17.77,17.67 0,9.78 -7.95,17.69 -17.77,17.69 v 0.03 c -70.95,-0.65 -140.98,-4.43 -209.18,-11.02 -12.81,89.75 -20,184.65 -20.61,284.51 196.23,32.35 417.5,40.26 616.86,20.47 13.18,-0.2 23.34,9.88 23.34,22.18 0,11.57 -8.9,21.08 -20.25,22.14 v 0.06 c -200.46,22.79 -419.93,17.36 -619.77,-14.11 5.38,335.01 187.98,548.05 389.15,559.17 243.78,13.47 414.31,-190.2 478.04,-433.73 l -0.06,-0.02 c 2.71,-9.56 11.56,-16.6 22.07,-16.6 12.66,0 22.9,10.2 22.9,22.79 0,2.34 -0.24,4.31 -0.93,6.46 -72.79,279.32 -280.62,517.72 -552.7,484.47 C 1589.5,4522.3 1302.47,4395.69 1286.37,3897.57 1019.93,3836.64 809.973,3724.87 765,3568.15 746.855,3507.64 747.617,3457.57 779.855,3396.3 622.688,3300.34 537.688,3175.58 570.496,3033.7 639.48,2735.44 1130.25,2647.98 1669.09,2739.05 c 95.72,-107.46 205.45,-192.57 324.66,-249.25 366.25,-153.54 721.67,-34.19 682.65,489.93 -6.55,72.3 -21.63,146.96 -46.36,220.02 m -1257.42,71.72 c -203.77,6.76 -374.339,52.97 -451.944,134.59 104.614,55.18 239.204,97.6 389.564,124.49 14.73,-89.76 35.73,-176.43 62.38,-259.08 m -87.14,574.02 c -0.4,-93.94 5.99,-185.89 18.61,-274.96 -156.33,-24.79 -299.09,-65.1 -416.602,-117.98 -102.781,185.49 99.082,321.23 397.992,392.94 m -570,-812.71 c -48.41,118.99 -2.792,223.91 103.954,308.4 104.511,-109.01 329.656,-167.52 586.486,-163.33 48.67,-125.15 110.68,-239.5 183.39,-339.53 -411.58,-45.68 -798.705,9.72 -873.83,194.46 M 1801.3,2764.81 c 92.05,20.27 184.57,45.53 275.8,75.72 241.33,79.87 421.47,199.43 530.76,331.01 18.16,-60.48 29.34,-123.83 33.01,-188.71 33.03,-586.14 -468.92,-624.62 -839.57,-218.02" transform="matrix(.13333 0 0 -.13333 0 680.32)"/><path id="path4" fill="#265c83" d="m 2095.12,3418.21 v 0 0" transform="matrix(.13333 0 0 -.13333 0 680.32)"/><path id="path5" fill="#64828d" d="m 1975.18,725.922 h 24.72 v 152.699 h -24.72 z m 81.36,0 v 86.508 c 0,0 12.25,5.781 25.19,5.781 16.93,0 19.83,-10.922 19.83,-33.199 v -59.09 h 24.07 v 59.75 c 0,36.558 -7.58,54.18 -38.56,54.18 -14.49,0 -30.75,-9.372 -30.75,-9.372 v 6.911 h -24.07 V 725.922 Z m 175.21,108.789 c 0,0 -25.64,4.91 -41.91,4.91 -22.05,0 -41.69,-9.359 -41.69,-34.551 0,-23.64 12.49,-28.988 37.03,-32.992 22.05,-3.578 25.84,-6.019 25.84,-13.828 0,-9.809 -6.25,-13.148 -22.31,-13.148 -11.35,0 -38.1,3.558 -38.1,3.558 l -0.9,-20.269 c 0,0 25.88,-4.93 41.26,-4.93 27.63,0 44.11,9.379 44.11,35.449 0,22.289 -9.57,28.988 -36.33,33.672 -21.84,3.789 -26.52,5.789 -26.52,13.148 0,9.141 6.02,12.258 19.39,12.258 13.38,0 39.68,-3.566 39.68,-3.566 z m 86.72,-18.063 v 20.743 h -30.77 v 32.32 h -24.07 v -32.32 h -14.27 v -20.743 h 14.27 V 764.93 c 0,-32.09 7.8,-41.469 32.99,-41.469 7.79,0 22.74,2.91 22.74,2.91 l -1.11,19.399 c 0,0 -12.04,-0.668 -18.29,-0.668 -11.6,0 -12.26,5.789 -12.26,22.5 v 49.046 z m 19.83,-90.726 h 24.3 v 111.469 h -24.3 z m 0,130.41 h 24.3 v 25.629 h -24.3 z m 113.68,-39.684 v 20.743 h -30.77 v 32.32 h -24.07 v -32.32 h -14.27 v -20.743 h 14.27 V 764.93 c 0,-32.09 7.8,-41.469 33.01,-41.469 7.79,0 22.72,2.91 22.72,2.91 l -1.11,19.399 c 0,0 -12.03,-0.668 -18.28,-0.668 -11.59,0 -12.27,5.789 -12.27,22.5 v 49.046 z m 87.39,20.743 v -86.5 c 0,0 -12.05,-5.789 -25.42,-5.789 -17.39,0 -18.95,9.128 -18.95,33.886 v 58.403 h -24.3 v -58.18 c 0,-39.242 6.69,-55.75 38.58,-55.75 13.83,0 30.09,9.379 30.09,9.379 v -6.918 h 24.07 v 111.469 z m 113.46,-20.743 v 20.743 h -30.77 v 32.32 H 2598 v -32.32 h -14.27 V 816.648 H 2598 V 764.93 c 0,-32.09 7.8,-41.469 32.99,-41.469 7.78,0 22.74,2.91 22.74,2.91 l -1.13,19.399 c 0,0 -12.03,-0.668 -18.26,-0.668 -11.61,0 -12.28,5.789 -12.28,22.5 v 49.046 z m 64.2,23.204 c -37.23,0 -49.71,-21.411 -49.71,-57.52 0,-37.012 11.61,-58.871 49.71,-58.871 38.34,0 49.71,21.859 49.71,58.871 0,36.109 -12.48,57.52 -49.71,57.52 m 0,-95.883 c -20.73,0 -25.17,12.5 -25.17,38.363 0,25.84 5.56,36.988 25.17,36.988 19.63,0 25.2,-11.148 25.2,-36.988 0,-25.863 -4.46,-38.363 -25.2,-38.363 m 213.79,139.793 h -24.31 v -46.821 c -1.33,0.207 -16.51,2.911 -25.42,2.911 -31.86,0 -46.36,-18.071 -46.36,-58.422 0,-43.032 13.61,-57.969 42.13,-57.969 13.59,0 29.86,8.269 29.86,8.269 v -5.808 h 24.1 z m -50.16,-138.66 c -13.6,0 -21.4,7.796 -21.4,36.328 0,25.41 7.13,37.461 23.61,37.461 9.38,0 22.31,-2.012 23.64,-2.243 v -65.976 c 0,0 -13.15,-5.57 -25.85,-5.57 m 124.15,-0.454 c -18.5,0 -25.18,8.911 -25.42,26.743 h 69.11 l 1.56,17.41 c 0,34.758 -15.61,51.051 -46.82,51.051 -30.76,0 -48.36,-18.52 -48.36,-59.321 0,-39.23 12.92,-57.07 46.35,-57.07 19.63,0 45.04,5.141 45.04,5.141 l -0.44,18.07 c 0,0 -23.41,-2.024 -41.02,-2.024 m -25.65,45.473 c 0.23,21.41 7.6,29.649 24.08,29.649 16.29,0 22.97,-7.34 22.97,-29.649 z m 146.26,-64.199 h 96.29 v 21.84 h -71.56 v 44.59 h 58.19 v 21.41 h -58.19 V 857 h 71.56 v 21.621 h -96.29 z m 144.66,0 v 86.508 c 0,0 12.27,5.781 25.19,5.781 16.94,0 19.85,-10.922 19.85,-33.199 v -59.09 h 24.07 v 59.75 c 0,36.558 -7.57,54.18 -38.58,54.18 -14.47,0 -30.76,-9.372 -30.76,-9.372 v 6.911 h -24.07 V 725.922 Z m 143.35,-51.711 c 29.85,0 51.47,10.25 51.47,36.559 0,25.64 -10.91,32.992 -46.13,33.199 -21.63,0.242 -24.08,1.582 -24.08,8.711 0,2.89 3.12,10.468 3.12,10.468 2.01,-0.429 7.58,-0.878 9.81,-0.878 29.65,0 45.49,8.242 45.49,38.558 0,8.692 -3.13,14.492 -6.04,18.281 l 18.52,-1.121 v 19.614 l -34.55,-0.872 c 0,0 -12.5,2.891 -22.76,2.891 -25.6,0 -44.58,-10.711 -44.58,-38.793 0,-20.058 7.82,-28.539 16.07,-33.437 0,0 -8.03,-12.719 -8.03,-17.832 0,-6.918 2.67,-13.149 7.35,-16.27 -11.38,-8.711 -16.94,-15.609 -16.94,-26.969 0,-25.429 17.62,-32.109 51.28,-32.109 m 3.33,48.82 c 18.06,-0.23 23.85,-1.562 23.85,-13.59 0,-10.941 -8.91,-15.39 -26.97,-15.39 -20.28,0 -27.64,4.238 -27.64,14.488 0,6.922 2.67,10.699 8.92,15.82 0,0 14.93,-1.328 21.84,-1.328 m -8.48,57.949 c -14.26,0 -20.49,6.25 -20.49,19.848 0,13.383 6.23,19.844 20.49,19.844 14.94,0 20.74,-6.461 20.74,-19.844 0,-13.598 -5.8,-19.848 -20.74,-19.848 m 120.82,-36.332 c -18.49,0 -25.17,8.911 -25.4,26.743 h 69.11 l 1.56,17.41 c 0,34.758 -15.62,51.051 -46.81,51.051 -30.78,0 -48.38,-18.52 -48.38,-59.321 0,-39.23 12.93,-57.07 46.37,-57.07 19.63,0 45.04,5.141 45.04,5.141 l -0.45,18.07 c 0,0 -23.42,-2.024 -41.04,-2.024 m -25.61,45.473 c 0.21,21.41 7.57,29.649 24.07,29.649 16.27,0 22.96,-7.34 22.96,-29.649 z m 118.57,-64.199 v 86.508 c 0,0 12.26,5.781 25.19,5.781 16.94,0 19.84,-10.922 19.84,-33.199 v -59.09 h 24.07 v 59.75 c 0,36.558 -7.59,54.18 -38.56,54.18 -14.49,0 -30.74,-9.372 -30.74,-9.372 v 6.911 h -24.09 V 725.922 Z m 121.71,0 v 87.387 c 0,0 12.7,4.902 24.98,4.902 17.15,0 19.82,-10.922 19.82,-33.199 v -59.09 h 24.3 v 59.75 c 0,36.558 -7.58,54.18 -38.55,54.18 -14.05,0 -30.55,-8.262 -30.55,-8.262 v 52.172 h -24.29 v -157.84 z m 179.9,77.129 c 0,25.41 -11.15,36.801 -38.35,36.801 -20.51,0 -44.8,-5.821 -44.8,-5.821 l 0.91,-17.152 c 0,0 26.95,2.23 41.89,2.23 10.92,0 16.27,-3.789 16.27,-16.058 v -8.02 l -28.75,-2.449 c -23.86,-2.012 -36.8,-10.031 -36.8,-33.672 0,-23.18 11.16,-35.449 33.23,-35.449 18.05,0 35.89,8.269 35.89,8.269 8.25,-6.468 16.06,-8.269 29.65,-8.269 l 0.67,18.519 c -6.47,0.899 -9.38,3.571 -9.81,10.25 z m -24.08,-25.192 v -29.648 c 0,0 -14.93,-4.902 -27.64,-4.902 -9.35,0 -13.6,6.25 -13.6,16.293 0,10.019 5.14,14.918 15.39,15.82 z m 54.61,-51.937 h 24.32 v 77.797 c 0,0 17.38,7.812 37.65,11.812 v 24.321 c -18.92,-3.571 -37.89,-15.84 -37.89,-15.84 v 13.379 h -24.08 z m 80.48,0 h 24.29 v 111.469 h -24.29 z m 0,130.41 h 24.29 v 25.629 h -24.29 z m 136.2,-53.281 c 0,25.41 -11.13,36.801 -38.34,36.801 -20.51,0 -44.81,-5.821 -44.81,-5.821 l 0.88,-17.152 c 0,0 27,2.23 41.92,2.23 10.93,0 16.29,-3.789 16.29,-16.058 v -8.02 l -28.77,-2.449 c -23.85,-2.012 -36.78,-10.031 -36.78,-33.672 0,-23.18 11.14,-35.449 33.22,-35.449 18.05,0 35.9,8.269 35.9,8.269 8.22,-6.468 16.04,-8.269 29.63,-8.269 l 0.66,18.519 c -6.44,0.899 -9.35,3.571 -9.8,10.25 z m -24.06,-25.192 v -29.648 c 0,0 -14.94,-4.902 -27.66,-4.902 -9.36,0 -13.57,6.25 -13.57,16.293 0,10.019 5.11,14.918 15.37,15.82 z m 194.61,105.903 h -24.32 v -46.821 c -1.34,0.207 -16.5,2.911 -25.43,2.911 -31.86,0 -46.35,-18.071 -46.35,-58.422 0,-43.032 13.6,-57.969 42.14,-57.969 13.59,0 29.86,8.269 29.86,8.269 v -5.808 h 24.1 z m -50.18,-138.66 c -13.6,0 -21.4,7.796 -21.4,36.328 0,25.41 7.13,37.461 23.63,37.461 9.35,0 22.29,-2.012 23.63,-2.243 v -65.976 c 0,0 -13.16,-5.57 -25.86,-5.57 m 124.17,-0.454 c -18.5,0 -25.19,8.911 -25.42,26.743 h 69.1 l 1.56,17.41 c 0,34.758 -15.59,51.051 -46.81,51.051 -30.74,0 -48.36,-18.52 -48.36,-59.321 0,-39.23 12.93,-57.07 46.37,-57.07 19.61,0 45.02,5.141 45.02,5.141 l -0.43,18.07 c 0,0 -23.42,-2.024 -41.03,-2.024 m -25.63,45.473 c 0.21,21.41 7.57,29.649 24.06,29.649 16.29,0 22.97,-7.34 22.97,-29.649 z m 237.16,85.82 c 0,0 -28.96,5.36 -48.36,5.36 -30.54,0 -50.82,-12.699 -50.82,-43.481 0,-26.519 14.26,-36.539 47.26,-45.019 23.41,-5.571 30.31,-10.02 30.31,-22.949 0,-16.051 -8.68,-24.532 -27.64,-24.532 -15.82,0 -45.92,4.02 -45.92,4.02 l -2.44,-19.84 c 0,0 30.07,-6.039 49.93,-6.039 30.07,0 51.04,14.5 51.04,47.93 0,26.097 -11.6,34.57 -43.69,43.48 -26.07,7.129 -34.11,10.469 -34.11,24.75 0,13.141 9.59,19.84 28.32,19.84 12.92,0 44.13,-3.57 44.13,-3.57 z m 27.21,-150.019 h 24.31 v 111.469 h -24.31 z m 0,130.41 h 24.31 v 25.629 h -24.31 z m 131.52,-21.621 c 0,0 -25.64,4.91 -41.91,4.91 -22.07,0 -41.68,-9.359 -41.68,-34.551 0,-23.64 12.49,-28.988 37,-32.992 22.08,-3.578 25.87,-6.019 25.87,-13.828 0,-9.809 -6.25,-13.148 -22.28,-13.148 -11.39,0 -38.13,3.558 -38.13,3.558 l -0.9,-20.269 c 0,0 25.86,-4.93 41.23,-4.93 27.64,0 44.16,9.379 44.16,35.449 0,22.289 -9.59,28.988 -36.34,33.672 -21.86,3.789 -26.54,5.789 -26.54,13.148 0,9.141 6.03,12.258 19.41,12.258 13.38,0 39.67,-3.566 39.67,-3.566 z m 86.7,-18.063 v 20.743 h -30.76 v 32.32 h -24.08 v -32.32 h -14.26 v -20.743 h 14.26 V 764.93 c 0,-32.09 7.81,-41.469 33.01,-41.469 7.8,0 22.73,2.91 22.73,2.91 l -1.11,19.399 c 0,0 -12.03,-0.668 -18.28,-0.668 -11.59,0 -12.27,5.789 -12.27,22.5 v 49.046 z m 64.44,-72 c -18.51,0 -25.2,8.911 -25.42,26.743 h 69.11 l 1.55,17.41 c 0,34.758 -15.61,51.051 -46.81,51.051 -30.76,0 -48.37,-18.52 -48.37,-59.321 0,-39.23 12.92,-57.07 46.36,-57.07 19.63,0 45.04,5.141 45.04,5.141 l -0.45,18.07 c 0,0 -23.42,-2.024 -41.01,-2.024 m -25.64,45.473 c 0.22,21.41 7.57,29.649 24.07,29.649 16.27,0 22.95,-7.34 22.95,-29.649 z m 118.59,-64.199 v 86.508 c 0,0 11.6,5.781 24.08,5.781 16.72,0 19.16,-10.25 19.16,-35 v -57.289 h 24.08 v 57.738 c 0,10.918 -0.9,26.309 -1.78,28.531 0,0 13.15,6.02 25.41,6.02 16.27,0 18.96,-10.922 18.96,-33.199 v -59.09 h 24.06 v 59.75 c 0,37.887 -8.24,54.18 -38.56,54.18 -18.05,0 -38.34,-10.942 -38.34,-10.942 -6.23,7.578 -14.71,10.942 -28.31,10.942 -13.16,0 -28.99,-9.372 -28.99,-9.372 v 6.911 h -24.07 V 725.922 Z m 245,77.129 c 0,25.41 -11.16,36.801 -38.34,36.801 -20.52,0 -44.83,-5.821 -44.83,-5.821 l 0.9,-17.152 c 0,0 26.97,2.23 41.91,2.23 10.92,0 16.27,-3.789 16.27,-16.058 v -8.02 l -28.75,-2.449 c -23.86,-2.012 -36.77,-10.031 -36.77,-33.672 0,-23.18 11.13,-35.449 33.2,-35.449 18.07,0 35.88,8.269 35.88,8.269 8.26,-6.468 16.06,-8.269 29.66,-8.269 l 0.67,18.519 c -6.46,0.899 -9.37,3.571 -9.8,10.25 z m -24.09,-25.192 v -29.648 c 0,0 -14.94,-4.902 -27.64,-4.902 -9.37,0 -13.59,6.25 -13.59,16.293 0,10.019 5.12,14.918 15.37,15.82 z m 132.43,56.852 c 0,0 -25.64,4.91 -41.92,4.91 -22.07,0 -41.69,-9.359 -41.69,-34.551 0,-23.64 12.49,-28.988 37,-32.992 22.07,-3.578 25.86,-6.019 25.86,-13.828 0,-9.809 -6.23,-13.148 -22.28,-13.148 -11.37,0 -38.13,3.558 -38.13,3.558 l -0.89,-20.269 c 0,0 25.86,-4.93 41.24,-4.93 27.64,0 44.15,9.379 44.15,35.449 0,22.289 -9.59,28.988 -36.35,33.672 -21.84,3.789 -26.53,5.789 -26.53,13.148 0,9.141 6.02,12.258 19.4,12.258 13.38,0 39.69,-3.566 39.69,-3.566 z m 120.36,-90.063 c -18.51,0 -25.19,8.911 -25.42,26.743 h 69.11 l 1.55,17.41 c 0,34.758 -15.6,51.051 -46.82,51.051 -30.76,0 -48.36,-18.52 -48.36,-59.321 0,-39.23 12.92,-57.07 46.35,-57.07 19.63,0 45.04,5.141 45.04,5.141 l -0.45,18.07 c 0,0 -23.4,-2.024 -41,-2.024 m -25.64,45.473 c 0.22,21.41 7.58,29.649 24.06,29.649 16.29,0 22.97,-7.34 22.97,-29.649 z m 240.3,-41.23 c -9.58,-1.559 -27.43,-3.34 -38.79,-3.34 -30.08,0 -35.67,14.711 -35.67,56.621 0,43.25 6.94,56.84 35,56.84 10.92,0 29.44,-1.782 39.46,-3.571 l 0.89,20.047 c -9.59,2.231 -27.86,5.594 -43.69,5.594 -45.69,0 -57.28,-23.852 -57.28,-78.91 0,-52.16 10.7,-78.711 57.28,-78.711 14.26,0 32.99,2.699 43.48,4.93 z m 66.66,90.961 c -37.23,0 -49.71,-21.411 -49.71,-57.52 0,-37.012 11.59,-58.871 49.71,-58.871 38.34,0 49.71,21.859 49.71,58.871 0,36.109 -12.49,57.52 -49.71,57.52 m 0,-95.883 c -20.75,0 -25.2,12.5 -25.2,38.363 0,25.84 5.59,36.988 25.2,36.988 19.61,0 25.19,-11.148 25.19,-36.988 0,-25.863 -4.46,-38.363 -25.19,-38.363 m 98.08,-18.047 v 86.508 c 0,0 11.58,5.781 24.08,5.781 16.72,0 19.16,-10.25 19.16,-35 v -57.289 h 24.09 v 57.738 c 0,10.918 -0.9,26.309 -1.8,28.531 0,0 13.16,6.02 25.43,6.02 16.27,0 18.94,-10.922 18.94,-33.199 v -59.09 h 24.07 v 59.75 c 0,37.887 -8.23,54.18 -38.56,54.18 -18.07,0 -38.34,-10.942 -38.34,-10.942 -6.25,7.578 -14.73,10.942 -28.32,10.942 -13.14,0 -28.97,-9.372 -28.97,-9.372 v 6.911 h -24.08 V 725.922 Z m 162.5,-47.934 h 24.31 v 47.492 c 1.34,-0.218 12.04,-2.019 21.18,-2.019 34.32,0 49.92,13.379 49.92,59.32 0,40.571 -13.59,57.071 -42.58,57.071 -13.37,0 -28.75,-9.372 -28.75,-9.372 v 6.911 h -24.08 z m 48.59,140.223 c 13.83,0 22.08,-9.359 22.08,-35.43 0,-27.422 -6.02,-38.359 -26.76,-38.359 -7.79,0 -18.48,1.578 -19.6,1.797 v 65.761 c 0,0 12.48,6.231 24.28,6.231 m 138.66,19.18 v -86.5 c 0,0 -12.03,-5.789 -25.41,-5.789 -17.38,0 -18.95,9.128 -18.95,33.886 v 58.403 h -24.3 v -58.18 c 0,-39.242 6.7,-55.75 38.56,-55.75 13.84,0 30.1,9.379 30.1,9.379 v -6.918 h 24.09 v 111.469 z m 113.47,-20.743 v 20.743 h -30.76 v 32.32 h -24.08 v -32.32 h -14.26 v -20.743 h 14.26 V 764.93 c 0,-32.09 7.81,-41.469 32.99,-41.469 7.81,0 22.74,2.91 22.74,2.91 l -1.1,19.399 c 0,0 -12.04,-0.668 -18.28,-0.668 -11.58,0 -12.27,5.789 -12.27,22.5 v 49.046 z m 102.31,-13.597 c 0,25.41 -11.13,36.801 -38.34,36.801 -20.49,0 -44.79,-5.821 -44.79,-5.821 l 0.88,-17.152 c 0,0 26.98,2.23 41.9,2.23 10.92,0 16.29,-3.789 16.29,-16.058 v -8.02 l -28.75,-2.449 c -23.86,-2.012 -36.8,-10.031 -36.8,-33.672 0,-23.18 11.15,-35.449 33.21,-35.449 18.06,0 35.91,8.269 35.91,8.269 8.23,-6.468 16.04,-8.269 29.63,-8.269 l 0.66,18.519 c -6.45,0.899 -9.33,3.571 -9.8,10.25 z m -24.06,-25.192 v -29.648 c 0,0 -14.95,-4.902 -27.66,-4.902 -9.36,0 -13.59,6.25 -13.59,16.293 0,10.019 5.13,14.918 15.37,15.82 z m 145.54,105.903 h -24.27 v -46.821 c -1.35,0.207 -16.51,2.911 -25.43,2.911 -31.87,0 -46.37,-18.071 -46.37,-58.422 0,-43.032 13.61,-57.969 42.13,-57.969 13.6,0 29.88,8.269 29.88,8.269 v -5.808 h 24.06 z m -50.13,-138.66 c -13.61,0 -21.41,7.796 -21.41,36.328 0,25.41 7.14,37.461 23.61,37.461 9.38,0 22.31,-2.012 23.66,-2.243 v -65.976 c 0,0 -13.17,-5.57 -25.86,-5.57 m 123.92,94.75 c -37.22,0 -49.71,-21.411 -49.71,-57.52 0,-37.012 11.61,-58.871 49.71,-58.871 38.36,0 49.71,21.859 49.71,58.871 0,36.109 -12.47,57.52 -49.71,57.52 m 0,-95.883 c -20.72,0 -25.17,12.5 -25.17,38.363 0,25.84 5.56,36.988 25.17,36.988 19.61,0 25.2,-11.148 25.2,-36.988 0,-25.863 -4.46,-38.363 -25.2,-38.363 m 73.8,-18.047 h 24.29 v 77.797 c 0,0 17.4,7.812 37.67,11.812 v 24.321 c -18.93,-3.571 -37.89,-15.84 -37.89,-15.84 v 13.379 h -24.07 z m 124.15,18.726 c -18.49,0 -25.17,8.911 -25.41,26.743 h 69.11 l 1.56,17.41 c 0,34.758 -15.61,51.051 -46.81,51.051 -30.75,0 -48.37,-18.52 -48.37,-59.321 0,-39.23 12.93,-57.07 46.37,-57.07 19.62,0 45.04,5.141 45.04,5.141 l -0.45,18.07 c 0,0 -23.42,-2.024 -41.04,-2.024 M 6816,790.121 c 0.21,21.41 7.57,29.649 24.07,29.649 16.28,0 22.96,-7.34 22.96,-29.649 z m 172.11,44.59 c 0,0 -25.65,4.91 -41.94,4.91 -22.07,0 -41.67,-9.359 -41.67,-34.551 0,-23.64 12.48,-28.988 36.99,-32.992 22.08,-3.578 25.87,-6.019 25.87,-13.828 0,-9.809 -6.25,-13.148 -22.29,-13.148 -11.37,0 -38.12,3.558 -38.12,3.558 l -0.9,-20.269 c 0,0 25.86,-4.93 41.24,-4.93 27.64,0 44.16,9.379 44.16,35.449 0,22.289 -9.59,28.988 -36.35,33.672 -21.84,3.789 -26.53,5.789 -26.53,13.148 0,9.141 6.02,12.258 19.38,12.258 13.38,0 39.7,-3.566 39.7,-3.566 z M 1975.18,458.422 h 24.72 v 152.699 h -24.72 z m 81.36,0 v 86.508 c 0,0 12.25,5.781 25.19,5.781 16.93,0 19.83,-10.922 19.83,-33.199 v -59.09 h 24.07 v 59.75 c 0,36.558 -7.58,54.16 -38.56,54.16 -14.49,0 -30.75,-9.352 -30.75,-9.352 v 6.891 h -24.07 V 458.422 Z m 85.81,111.449 28.76,-111.449 h 43.26 l 28.97,111.449 h -24.74 l -22.29,-90.723 h -7.13 l -21.39,90.723 z m 162.73,-92.723 c -18.5,0 -25.18,8.911 -25.4,26.743 h 69.09 l 1.57,17.41 c 0,34.758 -15.6,51.031 -46.8,51.031 -30.77,0 -48.36,-18.5 -48.36,-59.301 0,-39.23 12.93,-57.07 46.36,-57.07 19.6,0 45,5.141 45,5.141 l -0.43,18.046 c 0,0 -23.41,-2 -41.03,-2 m -25.63,45.473 c 0.23,21.41 7.58,29.649 24.09,29.649 16.25,0 22.94,-7.34 22.94,-29.649 z m 172.09,44.59 c 0,0 -25.63,4.91 -41.9,4.91 -22.08,0 -41.69,-9.383 -41.69,-34.551 0,-23.64 12.5,-28.988 37.01,-32.992 22.07,-3.578 25.86,-6.039 25.86,-13.828 0,-9.809 -6.25,-13.148 -22.29,-13.148 -11.36,0 -38.12,3.558 -38.12,3.558 l -0.9,-20.269 c 0,0 25.86,-4.93 41.23,-4.93 27.66,0 44.15,9.379 44.15,35.449 0,22.289 -9.59,28.988 -36.33,33.672 -21.85,3.789 -26.53,5.789 -26.53,13.148 0,9.141 6.02,12.258 19.4,12.258 13.37,0 39.68,-3.566 39.68,-3.566 z m 86.72,-18.063 v 20.723 h -30.76 v 32.34 h -24.07 v -32.34 h -14.27 v -20.723 h 14.27 V 497.43 c 0,-32.09 7.8,-41.469 33,-41.469 7.79,0 22.73,2.91 22.73,2.91 l -1.12,19.399 c 0,0 -12.04,-0.668 -18.27,-0.668 -11.61,0 -12.27,5.789 -12.27,22.5 v 49.046 z m 19.85,-90.726 h 24.29 v 111.449 h -24.29 z m 0,130.41 h 24.29 v 25.629 h -24.29 z m 99.62,-182.121 c 29.87,0 51.51,10.25 51.51,36.559 0,25.621 -10.92,32.992 -46.13,33.199 -21.63,0.242 -24.09,1.582 -24.09,8.711 0,2.89 3.13,10.468 3.13,10.468 2,-0.449 7.58,-0.878 9.8,-0.878 29.65,0 45.47,8.218 45.47,38.558 0,8.692 -3.11,14.492 -6.01,18.281 l 18.49,-1.121 v 19.614 l -34.55,-0.891 c 0,0 -12.48,2.91 -22.73,2.91 -25.64,0 -44.57,-10.711 -44.57,-38.793 0,-20.078 7.79,-28.539 16.04,-33.437 0,0 -8.04,-12.719 -8.04,-17.832 0,-6.918 2.68,-13.168 7.37,-16.289 -11.37,-8.692 -16.95,-15.59 -16.95,-26.969 0,-25.41 17.62,-32.09 51.26,-32.09 m 3.36,48.801 c 18.05,-0.211 23.85,-1.543 23.85,-13.59 0,-10.922 -8.9,-15.371 -26.97,-15.371 -20.28,0 -27.64,4.238 -27.64,14.488 0,6.922 2.68,10.699 8.91,15.82 0,0 14.92,-1.347 21.85,-1.347 m -8.47,57.968 c -14.27,0 -20.51,6.231 -20.51,19.848 0,13.363 6.24,19.82 20.51,19.82 14.94,0 20.73,-6.457 20.73,-19.82 0,-13.617 -5.79,-19.848 -20.73,-19.848 m 158.71,22.071 c 0,25.41 -11.15,36.781 -38.34,36.781 -20.51,0 -44.81,-5.801 -44.81,-5.801 l 0.88,-17.152 c 0,0 26.98,2.23 41.92,2.23 10.91,0 16.27,-3.789 16.27,-16.058 v -8.02 l -28.75,-2.449 c -23.85,-2.012 -36.79,-10.031 -36.79,-33.672 0,-23.18 11.15,-35.449 33.21,-35.449 18.07,0 35.9,8.269 35.9,8.269 8.24,-6.468 16.04,-8.269 29.65,-8.269 l 0.66,18.519 c -6.45,0.879 -9.35,3.571 -9.8,10.25 z m -24.08,-25.192 v -29.648 c 0,0 -14.94,-4.902 -27.64,-4.902 -9.37,0 -13.59,6.25 -13.59,16.269 0,10.043 5.11,14.942 15.37,15.844 z m 122.6,-80.257 c 0,15.609 -9.35,18.73 -26.52,18.949 v 6.91 c 11.38,0 33.66,4.027 33.66,4.027 l -0.67,19.391 c 0,0 -17.61,-1.777 -26.08,-1.777 -24.08,0 -28.76,9.57 -28.76,38.109 0,25.641 5.36,35 28.54,35 8.48,0 26.07,-1.781 26.07,-1.781 l 0.9,19.179 c 0,0 -21.62,4.223 -33.44,4.223 -33.21,0 -46.58,-16.723 -46.58,-56.621 0,-38.34 9.36,-55.723 35.88,-59.063 v -20.527 h 6.92 c 6.25,0 9.14,-1.332 9.14,-6.019 0,-4.903 -2.89,-6.891 -9.14,-6.891 -4.69,0 -12.27,0.43 -12.27,0.43 l -0.9,-14.493 c 0,0 10.49,-2.226 20.07,-2.226 14.03,0 23.18,7.148 23.18,23.18 m 113.02,105.449 c 0,25.41 -11.13,36.781 -38.34,36.781 -20.51,0 -44.8,-5.801 -44.8,-5.801 l 0.88,-17.152 c 0,0 26.98,2.23 41.91,2.23 10.92,0 16.29,-3.789 16.29,-16.058 v -8.02 l -28.77,-2.449 c -23.85,-2.012 -36.78,-10.031 -36.78,-33.672 0,-23.18 11.14,-35.449 33.21,-35.449 18.06,0 35.91,8.269 35.91,8.269 8.23,-6.468 16.04,-8.269 29.64,-8.269 l 0.67,18.519 c -6.48,0.879 -9.37,3.571 -9.82,10.25 z m -24.06,-25.192 v -29.648 c 0,0 -14.94,-4.902 -27.65,-4.902 -9.36,0 -13.6,6.25 -13.6,16.269 0,10.043 5.13,14.942 15.38,15.844 z m 9.14,108.121 c 0,0 -11.38,-8.019 -16.72,-8.019 -6.46,0 -20.29,8.898 -29.43,8.898 -10.47,0 -21.86,-12.48 -21.86,-12.48 l 5.35,-14.039 c 0,0 10.92,7.582 16.72,7.582 7.37,0 20.51,-8.91 29.88,-8.91 10.26,0 21.39,12.699 21.39,12.699 z m 89.84,-46.148 c -37.24,0 -49.72,-21.391 -49.72,-57.5 0,-37.012 11.59,-58.871 49.72,-58.871 38.32,0 49.7,21.859 49.7,58.871 0,36.109 -12.49,57.5 -49.7,57.5 m 0,-95.863 c -20.76,0 -25.21,12.5 -25.21,38.363 0,25.84 5.57,36.988 25.21,36.988 19.6,0 25.18,-11.148 25.18,-36.988 0,-25.863 -4.45,-38.363 -25.18,-38.363 m 167.39,0.679 c -18.51,0 -25.19,8.911 -25.41,26.743 h 69.1 l 1.56,17.41 c 0,34.758 -15.61,51.031 -46.82,51.031 -30.75,0 -48.37,-18.5 -48.37,-59.301 0,-39.23 12.92,-57.07 46.36,-57.07 19.63,0 45.05,5.141 45.05,5.141 l -0.46,18.046 c 0,0 -23.4,-2 -41.01,-2 m -25.64,45.473 c 0.23,21.41 7.59,29.649 24.07,29.649 16.28,0 22.96,-7.34 22.96,-29.649 z m 199.07,-64.199 c 50.37,0 61.08,30.547 61.08,78.91 0,47.5 -11.82,73.789 -61.08,73.789 h -52.83 V 458.422 Z m 35.43,78.91 c 0,-33.441 -4.66,-57.07 -35.43,-57.07 h -28.08 V 589.5 h 28.08 c 30.77,0 35.43,-18.73 35.43,-52.168 m 96.31,-60.184 c -18.49,0 -25.17,8.911 -25.41,26.743 h 69.1 l 1.57,17.41 c 0,34.758 -15.61,51.031 -46.82,51.031 -30.75,0 -48.37,-18.5 -48.37,-59.301 0,-39.23 12.93,-57.07 46.36,-57.07 19.63,0 45.04,5.141 45.04,5.141 l -0.45,18.046 c 0,0 -23.4,-2 -41.02,-2 m -25.64,45.473 c 0.23,21.41 7.58,29.649 24.08,29.649 16.28,0 22.97,-7.34 22.97,-29.649 z m 172.11,44.59 c 0,0 -25.64,4.91 -41.92,4.91 -22.07,0 -41.68,-9.383 -41.68,-34.551 0,-23.64 12.48,-28.988 36.99,-32.992 22.08,-3.578 25.86,-6.039 25.86,-13.828 0,-9.809 -6.23,-13.148 -22.28,-13.148 -11.37,0 -38.13,3.558 -38.13,3.558 l -0.89,-20.269 c 0,0 25.86,-4.93 41.25,-4.93 27.63,0 44.14,9.379 44.14,35.449 0,22.289 -9.57,28.988 -36.33,33.672 -21.86,3.789 -26.54,5.789 -26.54,13.148 0,9.141 6.03,12.258 19.39,12.258 13.38,0 39.69,-3.566 39.69,-3.566 z m 71.32,-90.063 c -18.5,0 -25.19,8.911 -25.41,26.743 h 69.11 l 1.56,17.41 c 0,34.758 -15.61,51.031 -46.82,51.031 -30.76,0 -48.38,-18.5 -48.38,-59.301 0,-39.23 12.94,-57.07 46.38,-57.07 19.62,0 45.03,5.141 45.03,5.141 l -0.45,18.046 c 0,0 -23.42,-2 -41.02,-2 m -25.63,45.473 c 0.22,21.41 7.59,29.649 24.07,29.649 16.28,0 22.96,-7.34 22.96,-29.649 z m 118.58,-64.199 v 86.508 c 0,0 12.27,5.781 25.21,5.781 16.94,0 19.84,-10.922 19.84,-33.199 v -59.09 h 24.07 v 59.75 c 0,36.558 -7.59,54.16 -38.57,54.16 -14.49,0 -30.76,-9.352 -30.76,-9.352 v 6.891 h -24.07 V 458.422 Z m 85.84,111.449 28.77,-111.449 h 43.23 l 28.98,111.449 h -24.74 l -22.29,-90.723 h -7.14 l -21.4,90.723 z m 162.52,2.461 c -37.24,0 -49.72,-21.391 -49.72,-57.5 0,-37.012 11.58,-58.871 49.72,-58.871 38.34,0 49.69,21.859 49.69,58.871 0,36.109 -12.47,57.5 -49.69,57.5 m 0,-95.863 c -20.75,0 -25.21,12.5 -25.21,38.363 0,25.84 5.57,36.988 25.21,36.988 19.61,0 25.18,-11.148 25.18,-36.988 0,-25.863 -4.45,-38.363 -25.18,-38.363 m 75.11,-18.047 h 24.31 v 157.84 h -24.31 z m 44.56,111.449 28.77,-111.449 h 43.24 l 28.99,111.449 h -24.75 l -22.28,-90.723 h -7.15 l -21.39,90.723 z m 119.94,-111.449 h 24.29 v 111.449 h -24.29 z m 0,130.41 h 24.29 v 25.629 h -24.29 z m 78.01,-130.41 v 86.508 c 0,0 11.6,5.781 24.08,5.781 16.72,0 19.18,-10.25 19.18,-35 v -57.289 h 24.07 v 57.738 c 0,10.918 -0.88,26.309 -1.78,28.531 0,0 13.16,6.02 25.42,6.02 16.27,0 18.94,-10.922 18.94,-33.199 v -59.09 h 24.08 v 59.75 c 0,37.887 -8.25,54.16 -38.56,54.16 -18.07,0 -38.35,-10.922 -38.35,-10.922 -6.24,7.578 -14.7,10.922 -28.31,10.922 -13.15,0 -28.98,-9.352 -28.98,-9.352 v 6.891 h -24.07 V 458.422 Z m 207.09,18.726 c -18.5,0 -25.18,8.911 -25.39,26.743 h 69.09 l 1.57,17.41 c 0,34.758 -15.6,51.031 -46.81,51.031 -30.76,0 -48.38,-18.5 -48.38,-59.301 0,-39.23 12.93,-57.07 46.37,-57.07 19.6,0 45.03,5.141 45.03,5.141 l -0.46,18.046 c 0,0 -23.4,-2 -41.02,-2 m -25.62,45.473 c 0.23,21.41 7.57,29.649 24.08,29.649 16.27,0 22.97,-7.34 22.97,-29.649 z m 118.59,-64.199 v 86.508 c 0,0 12.26,5.781 25.18,5.781 16.95,0 19.86,-10.922 19.86,-33.199 v -59.09 h 24.06 v 59.75 c 0,36.558 -7.57,54.16 -38.55,54.16 -14.5,0 -30.77,-9.352 -30.77,-9.352 v 6.891 h -24.08 V 458.422 Z m 157.38,90.726 v 20.723 h -30.76 v 32.34 h -24.08 v -32.34 h -14.28 v -20.723 h 14.28 V 497.43 c 0,-32.09 7.81,-41.469 33.01,-41.469 7.79,0 22.71,2.91 22.71,2.91 l -1.09,19.399 c 0,0 -12.03,-0.668 -18.28,-0.668 -11.61,0 -12.27,5.789 -12.27,22.5 v 49.046 z m 64.2,23.184 c -37.22,0 -49.72,-21.391 -49.72,-57.5 0,-37.012 11.62,-58.871 49.72,-58.871 38.34,0 49.71,21.859 49.71,58.871 0,36.109 -12.48,57.5 -49.71,57.5 m 0,-95.863 c -20.72,0 -25.18,12.5 -25.18,38.363 0,25.84 5.56,36.988 25.18,36.988 19.62,0 25.2,-11.148 25.2,-36.988 0,-25.863 -4.46,-38.363 -25.2,-38.363 m 167.4,0.679 c -18.51,0 -25.19,8.911 -25.41,26.743 h 69.1 l 1.57,17.41 c 0,34.758 -15.61,51.031 -46.81,51.031 -30.77,0 -48.37,-18.5 -48.37,-59.301 0,-39.23 12.93,-57.07 46.37,-57.07 19.6,0 45.02,5.141 45.02,5.141 l -0.45,18.046 c 0,0 -23.4,-2 -41.02,-2 m -25.63,45.473 c 0.22,21.41 7.57,29.649 24.08,29.649 16.27,0 22.96,-7.34 22.96,-29.649 z m 118.58,-64.199 v 86.508 c 0,0 11.6,5.781 24.08,5.781 16.72,0 19.17,-10.25 19.17,-35 v -57.289 h 24.09 v 57.738 c 0,10.918 -0.9,26.309 -1.79,28.531 0,0 13.15,6.02 25.41,6.02 16.27,0 18.95,-10.922 18.95,-33.199 v -59.09 h 24.08 v 59.75 c 0,37.887 -8.25,54.16 -38.57,54.16 -18.05,0 -38.34,-10.922 -38.34,-10.922 -6.24,7.578 -14.71,10.922 -28.31,10.922 -13.15,0 -28.98,-9.352 -28.98,-9.352 v 6.891 h -24.08 V 458.422 Z m 300.06,0 v 22.066 h -60.86 v 130.633 h -24.73 V 458.422 Z m 17.39,0 h 24.3 v 111.449 h -24.3 z m 0,130.41 h 24.3 v 25.629 h -24.3 z m 131.52,-21.621 c 0,0 -25.63,4.91 -41.92,4.91 -22.07,0 -41.68,-9.383 -41.68,-34.551 0,-23.64 12.49,-28.988 37.02,-32.992 22.05,-3.578 25.84,-6.039 25.84,-13.828 0,-9.809 -6.24,-13.148 -22.29,-13.148 -11.36,0 -38.12,3.558 -38.12,3.558 L 5596,460.891 c 0,0 25.86,-4.93 41.25,-4.93 27.63,0 44.12,9.379 44.12,35.449 0,22.289 -9.59,28.988 -36.33,33.672 -21.84,3.789 -26.52,5.789 -26.52,13.148 0,9.141 6.01,12.258 19.38,12.258 13.37,0 39.69,-3.566 39.69,-3.566 z m 78.69,5.121 c -12.48,0 -27.87,-6.684 -27.87,-6.684 v 50.614 h -24.08 V 458.641 c 0,0 28.98,-2.68 40.8,-2.68 39.91,0 54.39,13.598 54.39,59.75 0,41.68 -12.93,56.621 -43.24,56.621 m -11.15,-94.73 c -4.46,0 -16.72,0.878 -16.72,0.878 v 67.782 c 0,0 13.16,4.449 24.97,4.449 14.93,0 21.39,-9.813 21.39,-35 0,-27.191 -4.89,-38.109 -29.64,-38.109 m 123.04,94.73 c -37.22,0 -49.7,-21.391 -49.7,-57.5 0,-37.012 11.59,-58.871 49.7,-58.871 38.34,0 49.71,21.859 49.71,58.871 0,36.109 -12.48,57.5 -49.71,57.5 m 0,-95.863 c -20.72,0 -25.18,12.5 -25.18,38.363 0,25.84 5.56,36.988 25.18,36.988 19.61,0 25.18,-11.148 25.18,-36.988 0,-25.863 -4.45,-38.363 -25.18,-38.363 m 156.27,59.082 c 0,25.41 -11.14,36.781 -38.34,36.781 -20.5,0 -44.8,-5.801 -44.8,-5.801 l 0.88,-17.152 c 0,0 26.97,2.23 41.91,2.23 10.92,0 16.28,-3.789 16.28,-16.058 v -8.02 l -28.76,-2.449 c -23.85,-2.012 -36.78,-10.031 -36.78,-33.672 0,-23.18 11.16,-35.449 33.21,-35.449 18.06,0 35.9,8.269 35.9,8.269 8.24,-6.468 16.04,-8.269 29.63,-8.269 l 0.68,18.519 c -6.47,0.879 -9.36,3.571 -9.81,10.25 z m -24.07,-25.192 v -29.648 c 0,0 -14.93,-4.902 -27.65,-4.902 -9.37,0 -13.59,6.25 -13.59,16.269 0,10.043 5.12,14.942 15.37,15.844 l 25.87,2.437" transform="matrix(.13333 0 0 -.13333 0 680.32)"/></g></g></svg>