<svg xmlns="http://www.w3.org/2000/svg" role="img" viewBox="-133.00 -128.00 7176.00 1321.00"><title>Infinecs Systems (member) logo</title><style>svg {enable-background:new 0 0 6912 1065.6}</style><style>.st0{fill:#00aeef}.st3{fill:#832a81}</style><path d="M631.5 98.6c-10.9 5.8-21.8 11.5-32.6 17.4-72.2 39.4-140.5 84.7-201.9 139.7-45.1 40.4-85.6 84.9-113.9 139.2-47.4 91.2-39.5 177.9 21 260.4 34.6 47.3 80.2 81.6 131 109.5 74.2 40.6 154.1 64.9 236.4 82.1 61.6 12.9 123.8 20.9 186.5 26.5 81.5 7.3 163.2 8.4 244.8 5.9 124.9-3.9 248.9-17.3 371.3-43 28.6-6 57.1-13 85.3-20.7 27.9-7.6 55.5-16.6 83.7-24.4-4.9 2.3-9.7 4.8-14.6 7-96.1 43-194.5 80.1-294.9 111.7-123.2 38.8-248.3 69.4-376.3 87.2-49.8 6.9-100 12.8-150.2 15.6-58.6 3.2-117.6 5.2-176.3 3.1-142.3-5.1-280.7-31.4-412.7-86.6-53.1-22.2-96.6-57.8-135-100-26.8-29.4-47.7-62.8-60.6-100.6C-.7 660.3 7.1 593.9 35.5 529c22.6-51.5 55.5-96.2 92.2-138.3 64.8-74.5 139.1-137.7 224-188.2 83.8-49.9 173-86.5 269.3-104.3 3.3-.6 6.6-.8 9.9-1.2.2.5.4 1 .6 1.6z" class="st0"/><radialGradient id="SVGID_1_" cx="2609.935" cy="511.965" r="1683.711" gradientUnits="userSpaceOnUse"><stop offset="0" stop-color="#832a81"/><stop offset=".899" stop-color="#832a81" stop-opacity=".101"/><stop offset="1" stop-color="#832a81" stop-opacity="0"/></radialGradient><path fill="url(#SVGID_1_)" d="M2332.2 839c11.9-13.6 24-26.8 35.3-40.6 37.2-45.6 69.2-94.4 87.5-151 12-37 16.5-74.6 5.5-112.8-12.3-42.8-40.4-73.6-76.5-97.9-41.9-28.2-88.8-44.9-137.2-57.4-65-16.8-131.2-25.5-198.1-30.2-89.5-6.4-178.3 1.4-266.6 15-171.7 26.4-338.8 71.7-504.2 123.7-132.7 41.7-263.7 88.4-393 139.8-2.1.8-4.2 1.5-7 .9 17-11.9 33.8-24 50.9-35.7 127.1-86 261.2-159.2 404.1-215.6 98.4-38.8 200.4-65.5 303.4-88.7 89.9-20.3 180.7-36.2 272.5-44.8 60.2-5.7 120.7-9.7 181.2-11 55.5-1.2 111.2.7 166.6 3.8 62.5 3.5 124.6 12.1 184.9 29.5 47.3 13.6 89.6 37 121.8 75.1 49.1 58.1 59.9 125.1 41.8 197.5-14.4 57.4-44.8 106.6-82.5 151.3-50.9 60.5-110.8 110.2-181.4 146.5-2.3 1.2-4.7 2.2-7.1 3.2-.4.2-1-.3-1.9-.6z"/><radialGradient id="SVGID_2_" cx="307.108" cy="427.576" r="1497.097" gradientUnits="userSpaceOnUse"><stop offset="0" stop-color="#832a81"/><stop offset="1" stop-color="#832a81" stop-opacity="0"/></radialGradient><path fill="url(#SVGID_2_)" d="M1813.1 132.3c-32.8-5-65.5-10.6-98.4-14.8-50.5-6.4-101.1-13-151.8-17.2-63.2-5.2-126.5-8.6-189.8-11.8-31.5-1.6-63.1-1.8-94.7-1.4-160.6 2.4-319.8 17-476 56.8-124.6 31.7-236.3 89.6-338 167.3-68.7 52.4-131 111.5-184.9 179.2-1 1.3-1.9 2.7-2.9 4.1-.7-.4-1.3-.8-2-1.3 1.3-5.2 2.4-10.4 3.9-15.5 17.1-56.8 47.7-106 85.1-151.2 65.2-78.9 145.6-138.9 235.8-186.2 106.7-56 220.7-90 339.2-109.4 90.7-14.9 182-19.7 273.7-16.8 99.5 3.1 198 14.8 295.8 33.7 96 18.6 190.3 43.4 282.7 75.5 7.6 2.6 15.1 5.5 22.6 8.3-.1.2-.2.5-.3.7z"/><path d="M2578.4 325.4c61.7 25.6 113.9 61.7 138.7 127 17.1 45.2 14.1 90.7 2.1 136.6-12.1 46.2-39 83.7-68.8 119.5-85.1 102.2-193.4 171.7-314.9 222.4-100.6 42-205.3 68.8-313.1 83.7-11.2 1.5-22.4 2.6-33.7 3.8-1.1.1-2.3 0-3.8-1.3 10.6-3.8 21.3-7.7 31.9-11.4 95.4-34 188.8-72.5 278.6-119.5 70.8-37.1 138.4-79 199.1-131.3 47.1-40.6 88.5-86.2 115.9-142.7 47.5-97.9 37.3-190.7-25.8-278.5-2.1-2.8-4.2-5.6-6.2-8.3z" class="st0"/><path d="M575.8 1035.1c36.2 1 72.3 2.7 108.5 2.8 153 .4 304-17.3 453.1-51.2 183.6-41.8 359.4-105.5 528.5-188.2 132.8-64.9 259.9-139.2 378.5-227.8.9-.7 1.9-1.1 4.1-.5-6.7 7.2-13.3 14.5-20.2 21.4-110.9 111.1-235 204.4-373.8 277.9-156.8 83.1-323.4 137-498.2 165.9-69.8 11.5-140 19.6-210.7 21.4-51.8 1.4-103.7 2.4-155.5 1-69.8-1.9-139.2-9.2-208.1-20.9-2.2-.4-4.4-1-6.6-1.5 0 0 .2-.2.4-.3z" class="st3"/><path fill="#3d3187" d="M2977.3 826.9v-550h121v550h-121zm388.4-550l225.2 395.2-5.4-395.2h118v550h-134L3332.7 411l5.4 415.9h-118.7v-550h146.3zm509 69.7c33.4-46 106.9-68.9 220.2-68.9l176.2-.8v95.7H4085c-48.5 1-84.1 11.5-106.9 31.4-22.7 19.9-35.4 54.4-37.9 103.4l330.9-.8v95h-330.9v225.2h-115.7V574.1c0-105.7 16.7-181.5 50.2-227.5zm905.7-69.7l225.2 395.2-5.4-395.2h118v550h-134L4747.5 411l5.4 415.9h-118.7v-550h146.2zM5406 406.7c-20.9 22.2-32.7 53.8-35.2 94.6l320.2-.8v95.8h-321c0 19.4 2.2 38 6.5 55.9s13.1 34.2 26.4 49c11.7 13.8 25.7 22.3 41.7 25.7 16.1 3.3 32.5 5 49.4 5h6.9l190-.8v95.7h-195.3c-31.2 0-61.2-2.8-90-8.4-28.9-5.6-56.1-18.6-81.6-39.1-30.6-25-52.1-55.5-64.3-91.5-12.2-36-18.9-72.9-19.9-110.7-.5-8.2-.6-16.1-.4-23.7.2-7.7.6-15.3 1.2-23 5.6-86.8 29.2-150.6 70.9-191.5 41.6-40.9 104-61.3 187.3-61.3l192.3-.8v95.7h-190c-42.6.7-74.2 12-95.1 34.2zm559.6 19.6c-16.4 36.3-25.3 78.4-26.8 126.4v24.9c0 8.4.3 17 .8 25.7 1.5 17.9 4.8 35.4 10 52.5 5.1 17.1 13.5 32.3 25.3 45.6 12.3 13.8 26.4 22.3 42.5 25.7 16.1 3.3 32.5 5 49.4 5h6.9l190-.8V827h-195.3c-31.2 0-61.2-2.8-90-8.4-28.9-5.6-56.1-18.6-81.6-39.1-30.6-25-52.1-55.5-64.3-91.5-12.2-36-18.9-72.9-19.9-110.7-.5-8.2-.6-16.1-.4-23.7.2-7.7.6-15.3 1.2-23 5.6-86.8 29.2-150.6 70.9-191.5 41.6-40.9 104-61.3 187.3-61.3l192.3-.8v94.2h-190c-55.9.5-91.9 18.8-108.3 55.1zm628.9-51.3c-25 .5-46.1 5.7-63.2 15.7-17.1 9.9-25.7 29-25.7 57.1 0 21.5 7.3 36.8 21.8 46 14.5 9.2 31.5 13.8 50.9 13.8l153.2-.8c5.6.5 11.5.8 17.6.8 6.1 0 12.3.3 18.4.8 17.9 1 35.5 4 52.9 8.8 17.4 4.9 32.7 13.7 46 26.4 12.3 11.2 21.5 24.8 27.6 40.6 6.1 15.8 10 32.2 11.5 49 .5 5.1.9 10.1 1.2 14.9.3 4.9.4 9.8.4 14.9-1 63.8-18.6 107.1-52.9 129.8-34.2 22.7-80.7 34.1-139.4 34.1h-307.9v-98h289.5c25.5.5 47.6-3.6 66.2-12.3 18.6-8.7 26.2-28.3 22.6-59-2.6-24-11.5-38.8-26.8-44.4-15.3-5.6-33.5-8.7-54.4-9.2l-136.3-.8c-56.7.5-101.5-10.8-134.4-34.1-32.9-23.2-49.2-65.2-48.6-126 1-63.8 18.8-107.3 53.2-130.6 34.5-23.2 81.1-34.9 139.8-34.9l302.6-.8v98h-285.8z"/><path d="M4392.1 276.9h121v121h-121zm0 181.6h121v368.4h-121z" class="st3"/></svg>