<svg xmlns="http://www.w3.org/2000/svg" role="img" viewBox="-7.22 -4.72 414.44 74.94"><title>Inspire Semiconductor logo</title><g fill-rule="evenodd"><path fill="#5cdcd4" d="M133.667 6.667V10h6.5V3.333h-6.5v3.334m-132.834 21V49h6.5V6.333h-6.5v21.334m12.746-12.964c-.045.118-.062 7.864-.039 17.214l.043 17 3.375.045 3.375.045V35.522c0-13.029.011-13.498.319-13.879l.319-.393h10.092c9.465 0 10.11.018 10.389.298.28.279.303 1.125.381 13.833l.084 13.536 3.295.045 3.295.045-.045-14.378-.045-14.379-.451-.962c-.248-.529-.456-.996-.462-1.038-.092-.606-2.903-2.909-4.099-3.358-1.065-.4-29.677-.581-29.826-.189m46.921-.088c-2.49.417-4.614 2.12-5.883 4.718l-.529 1.084-.061 3.628c-.069 4.153.083 5.395.811 6.63.273.462.495.895.495.964 0 .24 1.592 1.812 2.265 2.235C59.38 34.996 59.425 35 71.072 35h10.537l.404.43c.65.692.721 5.684.089 6.316l-.42.421H71.628c-11.609 0-10.795.114-10.795-1.513v-.994l-3.375.045-3.375.045-.05.975c-.052 1.003.364 3.438.615 3.601.077.05.299.403.493.785.396.782 2.268 2.722 2.625 2.722.129 0 .234.068.234.152 0 .083.469.325 1.042.538l1.041.386 10.945.052c13.786.066 13.362.137 16.204-2.734 1.489-1.505 1.814-3.013 1.736-8.06-.082-5.297-.607-6.638-3.315-8.463-1.817-1.225-1.585-1.204-13.375-1.204-10.437 0-10.572-.004-11.006-.345l-.439-.346v-2.962c0-4.077-1.437-3.597 10.782-3.597h10.081l.402.468c.308.358.402.66.402 1.291v.824h6.543l-.088-1.791c-.14-2.877-1.132-4.764-3.163-6.017-.344-.212-.625-.446-.625-.519 0-.151-1.255-.622-2.25-.843-.646-.144-21.578-.188-22.417-.048m34.333 23.797v23.921h6.5V49h10.644c6.372 0 10.996-.067 11.52-.166 2.663-.505 5.032-2.681 5.991-5.501.241-.707.17-22.904-.074-23.277-.136-.208-.247-.451-.247-.541 0-1.019-2.293-3.463-4.149-4.422-.921-.476-1.576-.499-15.81-.55l-14.375-.052v23.921m38.834-6.662V49h6.5V14.5h-6.5v17.25m18.82-17.185c-.039.037-.333.105-.654.152-.823.121-1.702.453-2.025.766-.151.147-.648.529-1.105.85-1.284.902-2.303 2.541-2.684 4.318-.128.596-.186 5.137-.186 14.607V49h6.667V21.885l.351-.318c.335-.303.784-.319 10.17-.365l9.819-.048-.045-3.285-.045-3.286-10.096-.043c-5.553-.023-10.128-.012-10.167.025m29.373.114c-2.385.469-4.712 2.621-5.592 5.171l-.435 1.258v10.67c0 10.165.016 10.715.327 11.62.995 2.89 3.213 4.948 5.861 5.438.563.104 6.095.15 14.814.123l13.915-.042V42.25l-13.74-.043-13.741-.042-.384-.362c-.376-.353-.385-.433-.385-3.582V35h28.353l-.062-7.208c-.067-7.74-.075-7.819-.982-9.388-1.038-1.798-3.145-3.335-5.109-3.727-1.069-.214-21.751-.212-22.84.002m-59.179 6.964c.447.552.502 19.521.06 20.153l-.26.371h-10.24c-10.019 0-10.248-.008-10.574-.334-.433-.433-.523-19.486-.094-20.052.421-.555 1.131-.591 10.983-.561l9.807.03.318.393m81.167 0c.289.358.319.692.319 3.625V28.5H182.5v-3.213c0-3.454.086-3.848.876-4.005.206-.041 4.824-.065 10.264-.053l9.89.021.318.393"/><path fill="#4c4c4c" d="M362.833 6.667V10h6.834V3.333h-6.834v3.334M374 5.417V6.5h3.833v10h2.667v-10h3.667V4.333H374v1.084m11.498-.875c0 .114-.188 2.795-.416 5.958-.228 3.162-.415 5.806-.415 5.875 0 .069.552.125 1.228.125h1.229l.1-.958c.055-.527.193-2.646.307-4.709.114-2.062.235-3.6.271-3.416.035.183.131.404.214.491.083.087.149.275.147.417-.003.257.461 1.852 1.713 5.883l.659 2.125h1.399c.77 0 1.399-.039 1.399-.086 0-.048.563-1.903 1.25-4.124.688-2.221 1.25-4.17 1.25-4.331 0-.16.07-.292.155-.292.086 0 .188-.169.228-.375.039-.206.081.15.093.792.031 1.709.367 7.771.455 8.208.07.349.163.375 1.323.375h1.246l-.002-.458c-.002-.252-.189-2.896-.416-5.875-.227-2.979-.413-5.511-.414-5.625-.001-.155-.494-.209-1.907-.209h-1.906l-1.166 3.542c-.641 1.948-1.219 3.833-1.283 4.189-.13.712-.293.577-.479-.397-.061-.321-.61-2.102-1.219-3.959l-1.108-3.375h-1.966c-1.462 0-1.967.054-1.969.209M222.122 6.513c-.787.188-1.736.669-2.326 1.178-.25.216-.692.576-.984.801-1.96 1.512-2.312 3.068-2.312 10.214 0 7.624.44 9.069 3.321 10.917 2.15 1.379.938 1.283 17.429 1.377l14.667.083.295.584c.46.907.363 9.624-.113 10.149l-.317.351h-13.897c-16.362 0-14.718.234-14.718-2.103V38.5H216.5l.006 1.792c.015 4.735 2.22 7.794 6.154 8.54 1.278.242 29.216.227 30.352-.017 2.254-.483 4.299-2.082 5.237-4.095.249-.533.538-1.15.643-1.37.255-.534.272-13.307.018-13.481-.095-.066-.289-.419-.43-.786-.762-1.967-2.345-3.567-4.245-4.291l-.985-.375-14.417-.041c-7.929-.022-14.58-.078-14.78-.125-.884-.207-.886-.221-.886-5.599v-4.99l.541-.33c.529-.323.878-.331 14.18-.331L251.526 13l.487.487c.463.463.487.559.487 1.917v1.429h6.699l-.058-2.361c-.041-1.698-.116-2.381-.266-2.43-.115-.039-.208-.222-.208-.408 0-1.265-2.498-4.075-4.28-4.815l-.97-.402-15.334-.027c-8.616-.016-15.608.038-15.961.123m48.33 8.246c-1.368.335-1.478.402-3.269 1.979-2.47 2.175-2.433 1.948-2.433 15.095 0 13.071-.1 12.454 2.436 14.974 2.285 2.271 1.569 2.187 18.606 2.19l14.041.003v-6.833H272.18l-.34-.365c-.318-.341-.34-.575-.34-3.583V35h28.356l-.06-7.125c-.073-8.808-.129-9.056-2.475-11.135-2.618-2.321-1.434-2.145-14.738-2.185-9.164-.027-11.339.01-12.131.204M305.5 31.747V49h6.661l.044-13.495.045-13.496.379-.379.38-.38 6.62-.05c7.161-.054 7.539-.03 8.038.506.327.351.333.596.333 13.825V49h6.667V22.185l.402-.467.402-.468h14.225l.402.468.402.467V49h6.676l-.047-14.224c-.032-10.094-.099-14.293-.23-14.459-.102-.128-.305-.595-.452-1.036-.554-1.662-2.463-3.574-4.338-4.345-.859-.353-.869-.353-23.734-.397l-22.875-.045v17.253m57.333.003V49h6.834V14.5h-6.834v17.25m-70.688-10.399c.799.278.855.537.855 3.971V28.5h-21.5v-3.153c0-3.543.016-3.63.733-3.942.679-.296 19.076-.346 19.912-.054"/><path fill="#54b8d8" d="M129.745 31.75c0 5.683.021 8.032.047 5.22.025-2.812.025-7.462 0-10.333-.026-2.871-.047-.57-.047 5.113"/><path fill="#54b8d8" d="M129.745 31.75c0 5.683.021 8.032.047 5.22.025-2.812.025-7.462 0-10.333-.026-2.871-.047-.57-.047 5.113"/><path fill="#54b8d8" d="M129.745 31.75c0 5.683.021 8.032.047 5.22.025-2.812.025-7.462 0-10.333-.026-2.871-.047-.57-.047 5.113"/></g></svg>