<svg xmlns="http://www.w3.org/2000/svg" role="img" viewBox="-24.08 141.92 1252.16 1019.16"><title>Institute of Computing Technology, Chinese Academy of Sciences logo</title><style>svg {enable-background:new 0 0 1204.4 1138}</style><style>.st2{fill:#fff}.st5{fill:#0b3a8a;enable-background:new}</style><g id="layer1" transform="translate(134.817 97.974)"><path id="rect223" fill="#d39329" d="M-134.8 950.6h1204.4v89.4H-134.8z"/><path d="M122 1017.7V973h46.8v5.3h-37.6v13.8h32.5v5.3h-32.5v20.3H122zm82.8-21.8c0-7.4 3.1-13.2 9.3-17.4s14.2-6.3 23.9-6.3c6.4 0 12.2 1 17.3 3 5.1 2 9.1 4.7 11.7 8.2 2.7 3.5 4 7.5 4 12s-1.4 8.6-4.3 12.2c-2.8 3.6-6.9 6.3-12.1 8.1-5.2 1.8-10.8 2.8-16.8 2.8-6.5 0-12.4-1-17.5-3s-9-4.8-11.7-8.3c-2.5-3.7-3.8-7.4-3.8-11.3zm9.4.1c0 5.4 2.2 9.6 6.7 12.7 4.5 3.1 10.1 4.6 16.9 4.6 6.9 0 12.6-1.6 17-4.7 4.5-3.1 6.7-7.6 6.7-13.3 0-3.6-1-6.8-2.9-9.5s-4.7-4.8-8.4-6.3-7.8-2.2-12.4-2.2c-6.5 0-12.1 1.4-16.8 4.3-4.4 2.8-6.8 7.6-6.8 14.4zm141.1-23.1h9.2v25.8c0 4.5-.8 8.1-2.4 10.7-1.6 2.6-4.4 4.8-8.5 6.4s-9.5 2.5-16.2 2.5c-6.5 0-11.8-.7-15.9-2.2-4.1-1.4-7.1-3.5-8.8-6.3-1.8-2.7-2.6-6.5-2.6-11.2v-25.8h9.2v25.8c0 3.9.6 6.7 1.7 8.6 1.1 1.8 3 3.3 5.8 4.3 2.7 1 6.1 1.5 10 1.5 6.7 0 11.6-1 14.4-3 2.9-2 4.3-5.8 4.3-11.4v-25.7h-.2zm51.2 44.8V973h9.4l36.4 35.1V973h8.8v44.7h-9.4l-36.4-35.1v35.1h-8.8zm96.9 0V973h23.9c5.4 0 9.5.2 12.3.6 4 .6 7.4 1.7 10.2 3.2 3.7 2 6.4 4.5 8.2 7.6s2.7 6.6 2.7 10.6c0 3.4-.6 6.4-1.8 9s-2.8 4.8-4.7 6.5-4 3.1-6.3 4.1-5 1.7-8.3 2.2c-3.2.5-6.9.8-11.1.8h-25.1v.1zm9.2-5.3h14.8c4.6 0 8.2-.3 10.8-.8s4.7-1.3 6.2-2.3c2.2-1.4 3.9-3.3 5.1-5.7s1.8-5.2 1.8-8.6c0-4.7-1.2-8.3-3.6-10.8-2.4-2.5-5.3-4.2-8.7-5-2.5-.6-6.4-.9-11.9-.9h-14.6v34.1h.1zm89.2 5.3V973h9.2v44.7h-9.2zm52.2 0V973h9.4l36.4 35.1V973h8.8v44.7h-9.4l-36.4-35.1v35.1H654zm129.3-17.6v-5.2h29.4v16.6c-4.5 2.3-9.2 4.1-13.9 5.2s-9.7 1.8-14.8 1.8c-6.8 0-13-.9-18.6-2.8-5.6-1.9-9.8-4.6-12.6-8.2s-4.3-7.5-4.3-11.9c0-4.3 1.4-8.4 4.2-12.2s6.9-6.6 12.2-8.4c5.3-1.8 11.4-2.7 18.3-2.7 5 0 9.5.5 13.6 1.6 4 1 7.2 2.5 9.5 4.4s4 4.3 5.2 7.3l-8.3 1.5c-1-2.3-2.3-4.1-3.9-5.4-1.5-1.3-3.8-2.3-6.6-3.1-2.9-.8-6.1-1.2-9.5-1.2-4.2 0-7.8.4-10.9 1.2s-5.5 1.9-7.4 3.2-3.3 2.8-4.4 4.4c-1.8 2.8-2.6 5.8-2.6 9 0 4 1.1 7.3 3.2 10s5.2 4.7 9.3 6 8.4 2 13 2c4 0 7.8-.5 11.6-1.5s6.7-2 8.6-3.2v-8.3l-20.3-.1z" class="st2"/></g><path fill="#0580b9" d="M811.8 199.9c67.5 28.4 129.9 79.1 165 144.3-9.9-9.4-18.1-20.1-28.6-28.9-6.2-5.1-13-9.9-19.6-14.7-48.2-38.8-110-61.5-171.3-68.1-41.1-5.4-81.7-2.6-121.9 4.8-88.8 17.3-175 65.2-231.4 136.7-48.8.3-97.5 0-146 .3-2.3 3.7-4.5 7.7-6.8 11.3 34.3.3 68.6 0 102.9.3-3.1 5.7-6.2 11.1-9.6 16.4-34-.3-68.3 0-102.4 0-2.3 4.8-4.5 9.4-6.5 14.2h101c-2.8 5.7-6 11.1-9.1 16.7h-99c-1.4 4.5-3.1 9.4-4.5 13.9 31.8.3 63.5 0 95 .3-3.1 5.7-6.2 11.3-9.4 16.7h-91.3c-.9 4.8-1.4 9.4-2.3 14.2h85.4c-3.1 5.7-6.2 11.1-9.4 16.7-26.7.3-53.3-.3-80 .3-.3 4.5-.9 9.1-1.1 13.9h72.6c-3.1 5.7-6.2 11.3-9.4 16.7h-64.9c-.3 4.5-.3 9.4-.3 13.9h57.3c-3.1 5.7-6.5 11.1-9.6 16.7h-46.8c.6 4.8 1.1 9.6 1.7 14.2h37.1c-3.1 5.4-6.2 11.1-9.4 16.4h-25.8c1.1 4.5 2.3 9.4 3.4 14.2H231c-3.1 5.4-6 11.1-9.1 16.4 20.1 40 56.7 68.3 98.7 82.5 18.1 6.2 36.3 8.8 55.3 10.8 59.6 2.6 119.1-19.6 157.7-65.8-17.3 29.2-46.2 51.6-77.1 64.9-36.6 16.2-76.8 19.6-116.3 13.3-27.5-4.5-53-15.3-76.3-30.3-11.3-9.6-22.1-20.1-31.8-31.8-3.4-4.3-7.7-7.4-11.9-11.1-7.9-13.9-15.3-28.6-19-44.2-3.7-14.2-4-29.5-5.4-44-2-19.6.6-40.3 2.8-59.8 10.5-70 45.4-135.8 93.6-188 58.7-63.5 137-108.6 220.1-131.3 98.5-26.1 205.4-22.9 299.5 17z"/><path d="M757.7 232.6c61.3 6.5 123.1 29.2 171.3 68.1-32.6-19.3-66.9-28.1-104.6-27.5-58.7.3-116.5 30.3-148.3 80.3 18.4-20.1 39.7-37.1 64.9-47.9 23.5-10.5 50.2-15.3 75.7-16.4 31.8 1.4 62.7 6.8 91 21.6 39.1 19.6 68.3 55.9 79.7 98.1 6.5 21.8 5.4 42.8 5.1 65.5-31.5.3-63 0-94.7 0-3.1 5.7-6.5 11.3-9.6 17h102.9c-.9 4.5-1.4 9.4-2.3 14.2-36.3.3-72.6 0-108.6.3-3.1 5.7-6.2 11.3-9.6 17h114.8c-1.1 4.8-2 9.4-3.1 14.2H862.9c-3.4 5.7-6.5 11.6-9.9 17.6h123.6c-1.7 4.5-3.1 9.1-4.8 13.9H845c-3.1 6-6.5 11.6-9.6 17.6h128.7c-2 4.5-4.3 9.1-6.2 13.3-43.4.6-87.1 0-130.4.3-3.1 6-6.5 11.6-9.6 17.6h130.2c-2.3 3.7-4.5 7.4-6.8 11.1-47.6.3-95.6-.3-143.2.3-46.8 57.8-112.9 100.1-183.5 122.2-39.7 12.8-81.4 18.7-122.8 19.6-42.8-.6-86.8-6.5-127-20.7-36-12.5-70-30.9-99.3-55.6 23.3 15 49.1 25.8 76.3 30.3 39.1 6.2 79.7 2.8 116.3-13.3 30.9-13.3 59.8-35.7 77.1-64.9-38.8 46.2-98.4 68.1-157.7 65.8-19-2-37.4-4.5-55.3-10.8-42-14.2-78.5-42.5-98.7-82.5 3.1-5.4 6-11.1 9.1-16.4h-14.2c-1.1-4.5-2.3-9.4-3.4-14.2h25.8c3.1-5.4 6.2-11.1 9.4-16.4h-37.1c-.6-4.8-1.1-9.6-1.7-14.2h46.8c3.1-5.7 6.5-11.1 9.6-16.7h-57.3c0-4.5.3-9.4.3-13.9 21.6-.3 43.4 0 64.9 0 3.1-5.7 6.2-11.3 9.4-16.7h-72.6c.3-4.5.9-9.1 1.1-13.9 26.7-.9 53.3 0 80-.3 3.1-5.7 6.2-11.1 9.4-16.7h-85.4c.9-4.8 1.4-9.4 2.3-14.2h91.3c3.1-5.7 6.2-11.1 9.4-16.7-31.8-.3-63.5 0-95-.3 1.7-4.5 3.1-9.4 4.5-13.9h99c3.1-5.7 6-11.1 9.1-16.7-33.7-.3-67.2 0-101 0 2.3-4.8 4.5-9.4 6.5-14.2 34 0 68.3-.3 102.4 0 3.4-5.4 6.5-11.1 9.6-16.4-34.3-.3-68.6 0-102.9-.3 2.3-3.7 4.5-7.7 6.8-11.3 48.8 0 97.5.3 146-.3C462 303.5 548 255.8 637 238.5c39-8.5 79.5-11.3 120.7-5.9z" class="st2"/><path d="M824 273.1c37.7-.9 72 8.2 104.6 27.5 6.5 4.8 13.3 9.6 19.6 14.7 10.5 8.5 18.7 19.6 28.6 28.9 6.2 11.1 12.5 22.7 17.6 34.3 10.2 23.8 14.5 50.5 14.7 76.3-1.4 45.4-11.6 90.5-30.9 131.6-31.5 68.3-85.1 125.9-147.5 167.3-66.8 44.3-145.1 71.5-225 78.3-39.4 4.8-77.7 1.7-116.8-3.7-44-7.4-86.5-20.4-126.2-41.4-58.7-30.3-110.3-77.1-141.2-135.8 4.3 3.4 8.5 6.8 11.9 11.1 9.6 11.6 20.1 22.1 31.8 31.8 29.2 24.7 63.2 43.1 99.3 55.6 40.3 14.5 84.5 20.1 127 20.7 41.4-.9 83.1-6.8 122.8-19.6C684.9 728.3 751 686 797.8 628.5c47.6-.6 95.6 0 143.2-.3 2.3-3.7 4.5-7.4 6.8-11.1-43.4-.3-86.8 0-130.2 0 3.1-6 6.5-11.6 9.6-17.6 43.4-.3 87.1.3 130.4-.3 2-4.5 4.3-9.1 6.2-13.3H835.1c3.1-6 6.5-11.6 9.6-17.6h126.8c1.7-4.5 3.1-9.1 4.8-13.9-41.1.3-82.5 0-123.6 0 3.4-6 6.5-11.6 9.9-17.6 39.7.3 79.7 0 119.4 0 1.1-4.8 2-9.4 3.1-14.2H870.3c3.1-5.7 6.5-11.3 9.6-17 36.3-.3 72.6.3 108.6-.3.9-4.5 1.4-9.4 2.3-14.2H887.9c3.1-5.7 6.5-11.3 9.6-17h94.7c.3-22.4 1.4-43.7-5.1-65.5-11.1-42.3-40.6-78.3-79.7-98.1-28.4-14.7-59.3-20.4-91-21.6-25.8.9-52.2 5.7-75.7 16.4-25.2 10.8-46.5 27.8-64.9 47.9 31.7-49.8 89.5-79.5 148.2-80.1z" class="st5"/><path d="M378.2 387.4h82.2c-43.1 77.7-86.2 155.1-129.6 232.8H248c43.5-77.7 86.9-155.1 130.2-232.8zm130.5 1.1c80.3 0 160.5.3 240.8 0-16.4 29.8-33.5 59-50.2 88.5h-85.9c4.3-7.4 8.5-15 12.5-22.7-25.5-.3-51 0-76.6 0-19.3 36.9-39.1 73.2-58.4 110h76.6c3.4-6.5 7.1-13.3 10.5-19.9h85.4c-13.6 25.8-28.1 51.3-41.4 77.4-83.1.3-166.2 0-249.3.3 42-76.8 84.2-153.7 126.2-230.5 1.6-3.9 6.7-2.5 9.8-3.1zm281-1.1H957c7.4 23.8 9.4 48.2 11.3 73.2h-88.8c-30.6 53-61.3 106.3-91.9 159.4-30.3.6-60.4 0-90.7.3 30.6-53.3 61.5-106.3 91.9-159.4-13.9-.3-27.5 0-41.1-.3 14.2-24.4 28.1-48.8 42-73.2z" class="st5"/></svg>