<svg xmlns="http://www.w3.org/2000/svg" role="img" viewBox="6.88 15.13 369.98 61.73"><title>Institute for Communication Technologies and Embedded Systems (member) logo</title><g fill="none"><path d="M0 0h384.094v90.709H0z"/><path d="M0 0h384.094v90.709H0z"/><path d="M0 0h384.094v90.709H0z"/><path d="M0 0h384.094v90.709H0z"/><path d="M0 0h384.094v90.709H0z"/><path d="M0 0h384.094v90.709H0z"/></g><path d="M309.277 67.852h4.345v-9.113h2.323c1.75 0 2.505 1.026 2.566 2.716l.12 4.135c.029.844.12 1.658.543 2.263h4.707v-.181c-.814-.424-.936-1.6-.966-3.862-.06-4.557-.513-6.188-3.47-6.579v-.06c2.444-.514 3.591-2.444 3.591-5.312 0-3.682-2.173-5.553-5.733-5.553h-8.026v21.546zm4.345-18.347h2.053c1.961 0 3.018.996 3.018 2.987 0 2.323-1.178 3.229-3.26 3.229h-1.811v-6.216zm-68.408-3.199v15.027c0 5.764 3.35 6.941 6.88 6.941s6.88-1.448 6.88-6.941V46.306h-4.345v15.027c0 2.143-.513 3.742-2.535 3.742-2.021 0-2.535-1.6-2.535-3.742V46.306h-4.345z" fill="#8EBAE5"/><path fill="#8EBAE5" d="M260.038 46.306v21.545h3.983V52.764h.06l5.311 15.087h4.949V46.306h-3.984v14.756h-.059l-5.251-14.756zm15.42 0h4.345v21.545h-4.345zm4.644 0l4.948 21.545h5.583l4.947-21.545h-4.496l-3.197 15.934h-.09l-3.049-15.934zm15.866 0v21.545h12.342v-3.559h-7.997v-5.794h7.243v-3.562h-7.243v-5.068h7.695v-3.562z"/><path fill="#8EBAE5" d="M323.397 61.123v.875c0 3.984 1.932 6.277 6.851 6.277 4.707 0 7.482-2.052 7.482-6.609 0-2.625-.845-4.284-4.104-5.703l-3.35-1.447c-1.841-.785-2.232-1.6-2.232-2.928 0-1.267.513-2.505 2.474-2.505 1.659 0 2.354 1.177 2.354 3.199h4.164v-.604c0-4.134-2.808-5.793-6.67-5.793-4.104 0-6.668 2.143-6.668 6.336 0 3.592 1.78 5.191 5.643 6.519 2.867.996 3.863 1.72 3.863 3.682 0 1.811-1.269 2.655-2.596 2.655-2.294 0-2.867-1.297-2.867-3.319v-.634h-4.344z"/><path fill="#8EBAE5" d="M338.299 46.306h4.345v21.545h-4.345zm26.915 0l-3.019 8.328h-.059l-2.836-8.328h-16.086v3.562h4.707v17.983h4.346V49.868h3.665l4.06 9.505v8.478h4.347v-8.478l5.583-13.067z"/><path d="M207.043 44.347h-7.2V22.706h11.807c3.202-.001 5.964 2.072 6.864 4.82.834 2.546.121 5.312-1.761 7.281.25.678.494 1.209.726 1.818.523 1.205 1.001 2.41 1.524 3.6l1.713 4.122H213.415c0 .004-.059-.174-.116-.247-.29-.638-.552-1.321-.842-1.959l-1.756-4.166c-.697-1.684-1.395-3.275-2.091-4.958.869-.024 1.52.139 2.358-.247.59-.29 1.484-1.011 1.507-2.394-.022-.685-.213-1.204-.666-1.744-.455-.502-1.112-.874-1.97-.886 0 0-2.798-.001-2.797 0v16.601zm75.205-21.641v21.641h-7.199v-8.824h-5.042v8.824c-1.307 0-2.715-.014-4.021 0h-3.18V27.713h-5.036v16.633h-7.201V27.713h-5.079V44.346h-7.417c-1.292-3.12-2.656-6.27-3.919-9.376-.145-.653-.29-1.307-.479-1.945v11.321h-7.433c-1.473-3.425-2.888-6.782-4.356-10.258-.509-1.204-.926-2.184-1.452-3.436l-.072-.164-1.144-2.685-1.639-3.835c-.144-.435-.376-.828-.521-1.263h7.415c1.523 3.701 3.062 7.359 4.659 11.002l.044.087c-.059-.421-.19-.958-.263-1.364v-6.459c.015-1.031 0-2.207 0-3.266h7.432c.094.236.146.363.218.552.871 2.046 1.699 4.078 2.57 6.11l1.944 4.427c-.044-.465-.146-.914-.204-1.364v-9.725H270.005V30.514h5.041v-7.809h7.202z" fill="#00549F"/><path fill="#8EBAE5" d="M303.133 36.192l2.092-9.73h.061l2.092 9.73h-4.245zm-14.427 0l2.091-9.73h.061l2.092 9.73h-4.244zm19.247-13.488h-5.396l-4.516 17.059-4.516-17.059h-5.396L282.4 44.347h4.547l1-4.577h5.761l.999 4.577h6.668l1-4.577h5.76l1 4.577h4.547l-5.729-21.643z"/><path fill="#8EBAE5" d="M326.682 30.088c0-3.138-.452-7.695-6.669-7.695-6.517 0-7.333 4.647-7.333 11.195s.816 11.195 7.333 11.195c5.703 0 6.85-4.013 6.85-8.66h-4.345c0 4.647-1.146 5.462-2.716 5.462-1.871 0-2.776-1.177-2.776-7.695 0-6.095.514-8.298 2.716-8.298 1.961 0 2.596 1.358 2.596 4.496h4.344z"/><path fill="#8EBAE5" d="M327.721 44.347h4.364v-9.608h5.092v9.608h4.365V22.706h-4.365v8.275h-5.092v-8.275h-4.364zm14.767-21.645v21.645h12.4V40.77h-8.034v-5.821h7.276v-3.577h-7.276v-5.093h7.73v-3.577zm13.048.004v21.641h4.001V29.192h.06l5.335 15.155h4.97V22.706h-4.001v14.821h-.06l-5.275-14.821z"/><path fill="#00549F" d="M185.17 22.676h1v45.355h-1z"/><path fill="#9C9E9F" d="M21.583 58.73c1.247-4.785 3.224-8.611 3.224-8.611l-6.895.001s-1.8 3.595-2.839 8.373c-.711 3.272-.87 6.411-.9 8.068v1.175h6.336s-.173-4.222 1.074-9.006m35.045-30.145v-5.908s-6.42.34-12.866 2.824c-6.445 2.485-11.208 6.366-11.208 6.366l3.089 5.123s4.674-3.69 9.575-5.704c4.903-2.014 11.41-2.701 11.41-2.701"/><path fill="#00549F" d="M44.036 44.967h-5.07v23.058h5.07V44.967zM25.184 57.939c-1.161 4.354-1.071 5.904-1.284 9.798h3.881s-.147-3.72 1.242-8.767c1.39-5.048 3.951-8.85 3.951-8.85h-4.281c-.001.001-2.54 4.183-3.509 7.819M14.42 45.833h20.964L24.999 27.969 14.42 45.833zm34.443-8.436c3.932-1.589 7.766-2.067 7.766-2.067v-3.49c-1.988.141-3.972.648-5.409 1.004 0 0-4.2 1.017-8.72 3.52-1.211.597-5.161 3.337-5.161 3.595l1.867 3.143s4.996-3.821 9.657-5.705m2.077 22.021c-.226-.915-.339-1.856-.339-2.825 0-1.013.113-1.991.339-2.939.226-.947.586-1.792 1.081-2.535s1.141-1.335 1.938-1.775c.796-.441 1.765-.662 2.907-.662.624 0 1.221.102 1.792.307.57.205 1.082.49 1.534.855.452.366.828.792 1.13 1.275.301.484.495 1.018.581 1.6h4.909c-.151-1.335-.517-2.52-1.098-3.554-.581-1.032-1.319-1.898-2.212-2.599-.894-.7-1.905-1.232-3.036-1.599-1.13-.366-2.33-.549-3.6-.549-1.788 0-3.381.313-4.78.937-1.4.624-2.583 1.485-3.552 2.583-.969 1.098-1.712 2.39-2.228 3.875-.517 1.486-.775 3.079-.775 4.78 0 1.657.258 3.219.775 4.682.516 1.465 1.259 2.735 2.228 3.811.969 1.077 2.152 1.928 3.552 2.552 1.399.624 2.992.937 4.78.937 1.42 0 2.723-.221 3.907-.662 1.184-.44 2.217-1.07 3.1-1.889.883-.818 1.593-1.809 2.132-2.971.538-1.163.872-2.466 1.001-3.908h-4.909c-.194 1.529-.726 2.771-1.598 3.729s-2.083 1.438-3.633 1.438c-1.142 0-2.111-.22-2.907-.662-.797-.441-1.443-1.028-1.938-1.76-.495-.733-.854-1.557-1.081-2.472m22.502 4.344V49.23h12.175v-4.263H68.373v23.058h17.503v-4.263H73.442z"/><path fill="#CD071E" d="M74.697 54.17h9.919v3.94h-9.919z"/><g fill="#00549F"><path d="M167.516 66.271v.19c0 .26.03.495.09.705s.165.39.315.54c.15.149.352.265.605.345s.577.12.97.12c.287 0 .553-.035.8-.105.247-.069.458-.175.635-.314.177-.141.315-.317.415-.53.1-.213.15-.46.15-.74 0-.406-.09-.728-.27-.965-.18-.237-.487-.428-.92-.575l-.83-.279c-.233-.073-.392-.163-.475-.271-.083-.106-.125-.227-.125-.359 0-.193.065-.339.195-.436s.282-.145.455-.145c.227 0 .385.064.475.194s.135.335.135.615h1.24v-.22c0-.487-.15-.863-.45-1.13-.3-.268-.763-.4-1.39-.4-.353 0-.655.043-.905.13s-.455.203-.615.351c-.16.146-.277.317-.35.515-.073.197-.11.405-.11.625 0 .38.097.692.29.935.193.243.48.433.86.565l.97.35c.133.054.25.125.35.216.1.09.15.222.15.395 0 .213-.063.373-.19.48-.127.106-.297.159-.51.159-.233 0-.412-.071-.535-.215-.123-.143-.185-.332-.185-.564v-.181h-1.24zm-7.421 1.761h1.38v-3.54c0-.32.065-.554.195-.7.13-.147.305-.22.525-.22.193 0 .332.06.415.18s.125.293.125.52v3.761h1.38v-3.54c0-.32.065-.554.195-.7.13-.147.305-.22.525-.22.193 0 .332.06.415.18s.125.293.125.52v3.761h1.38v-3.91c0-.521-.108-.918-.325-1.195-.217-.277-.555-.415-1.015-.415-.327 0-.608.072-.845.215-.237.144-.408.358-.515.646h-.02c-.073-.28-.218-.493-.435-.641-.217-.146-.485-.22-.805-.22-.3 0-.558.053-.775.16-.217.106-.412.283-.585.53h-.02v-.551h-1.32v5.379zm-3.532-3.301v-.21c0-.127.012-.253.035-.38.024-.127.062-.242.115-.345.054-.104.125-.188.215-.25.09-.063.205-.095.345-.095s.255.027.345.085c.09.057.16.14.21.25.05.109.085.242.105.399s.034.338.04.545h-1.41zm2.73.82v-.31c0-.413-.026-.788-.08-1.125-.053-.338-.153-.623-.3-.86-.146-.237-.348-.42-.605-.55-.256-.13-.585-.195-.985-.195-.466 0-.84.077-1.12.23-.28.152-.495.359-.645.619-.15.261-.25.558-.3.891-.05.333-.075.68-.075 1.04 0 .333.015.672.045 1.015.03.343.112.653.245.93.134.277.34.503.62.676.28.173.67.26 1.17.26.66 0 1.144-.168 1.45-.505.307-.337.474-.818.5-1.445h-1.24c-.04.34-.113.593-.22.76-.106.167-.276.25-.51.25-.126 0-.233-.034-.32-.104-.086-.07-.156-.163-.21-.28-.053-.117-.091-.25-.115-.399-.023-.15-.035-.306-.035-.466v-.43h2.73zm-6.7-2.9h-.7v.94h.7v3.08c0 .272.017.5.05.68.034.181.095.325.185.436.09.109.219.188.385.234.167.047.387.07.66.07.16 0 .312-.007.455-.02.144-.014.292-.027.445-.04v-.96c-.046.007-.096.012-.15.015-.053.003-.106.005-.16.005-.2 0-.331-.045-.395-.135-.063-.09-.095-.242-.095-.455v-2.91h.8v-.94h-.8v-1.54h-1.38v1.54zm-5.104 3.62v.19c0 .26.03.495.09.705.06.21.165.39.315.54.15.149.352.265.605.345.254.08.577.12.97.12.287 0 .554-.035.8-.105.247-.069.459-.175.635-.314.177-.141.315-.317.415-.53s.15-.46.15-.74c0-.406-.09-.728-.27-.965-.18-.237-.486-.428-.92-.575l-.83-.279c-.233-.073-.391-.163-.475-.271-.083-.106-.125-.227-.125-.359 0-.193.065-.339.195-.436s.282-.145.455-.145c.227 0 .385.064.475.194.09.13.135.335.135.615h1.24v-.22c0-.487-.15-.863-.45-1.13-.3-.268-.763-.4-1.39-.4-.353 0-.655.043-.905.13s-.455.203-.615.351c-.16.146-.276.317-.35.515-.073.197-.11.405-.11.625 0 .38.097.692.29.935.194.243.48.433.86.565l.97.35c.134.054.25.125.35.216.1.09.15.222.15.395 0 .213-.063.373-.19.48-.126.106-.296.159-.51.159-.233 0-.411-.071-.535-.215-.123-.143-.185-.332-.185-.564v-.181h-1.24zm-4.271 3.521h.56c.32 0 .585-.023.795-.07s.39-.145.54-.295.3-.417.45-.8.245-.702.285-.955l1.3-5.021h-1.38l-.7 3.721h-.02l-.8-3.721h-1.44l1.51 5.381c-.02.239-.085.427-.195.56-.11.133-.292.2-.545.2-.12 0-.24-.01-.36-.03v1.03zm-5.574-3.991v.29c0 .66.175 1.172.525 1.535s.931.545 1.745.545c.78 0 1.388-.177 1.825-.53.436-.353.655-.907.655-1.66 0-.22-.02-.42-.06-.6s-.112-.345-.215-.495c-.104-.15-.244-.29-.42-.42-.177-.13-.399-.255-.665-.375l-1.11-.48c-.307-.127-.507-.265-.6-.414-.094-.15-.14-.336-.14-.556 0-.106.011-.21.035-.31.023-.101.066-.188.13-.266.063-.076.148-.138.255-.185.106-.047.24-.07.4-.07.28 0 .48.092.6.275.12.183.18.445.18.785h1.38v-.2c0-.34-.055-.632-.165-.875-.11-.243-.264-.443-.46-.6-.197-.157-.43-.271-.7-.341-.27-.069-.565-.104-.885-.104-.687 0-1.227.173-1.62.52-.394.348-.59.873-.59 1.58 0 .293.036.552.11.775.073.223.188.42.345.59.156.17.351.318.585.445.233.127.51.242.83.35.24.08.441.158.605.235.163.077.295.162.395.255s.171.198.215.314c.043.117.065.256.065.415 0 .301-.089.522-.265.665-.177.144-.375.215-.595.215-.194 0-.35-.026-.47-.079-.12-.054-.217-.128-.29-.221-.074-.093-.124-.208-.15-.345-.027-.137-.04-.288-.04-.455v-.21h-1.44zm-5.76-1.785c.09-.297.285-.444.585-.444.306 0 .505.147.595.444s.135.738.135 1.325-.045 1.028-.135 1.325-.289.444-.595.444c-.3 0-.495-.147-.585-.444-.09-.297-.135-.738-.135-1.325s.045-1.028.135-1.325m1.375 4.016h1.32v-7.141h-1.38v2.26h-.02c-.147-.213-.312-.373-.495-.479-.184-.107-.405-.16-.665-.16-.567 0-.984.222-1.25.665-.267.443-.4 1.165-.4 2.165s.133 1.722.4 2.165c.266.443.683.665 1.25.665.28 0 .515-.055.705-.165.19-.11.361-.292.515-.545h.02v.57zm-6.285-3.301v-.21c0-.127.011-.253.035-.38.023-.127.061-.242.115-.345.053-.104.125-.188.215-.25.09-.063.205-.095.345-.095.14 0 .255.027.345.085.09.057.16.14.21.25.05.109.085.242.105.399s.033.338.04.545h-1.41zm2.73.82v-.31c0-.413-.027-.788-.08-1.125-.054-.338-.154-.623-.3-.86-.147-.237-.349-.42-.605-.55-.257-.13-.585-.195-.985-.195-.467 0-.84.077-1.12.23-.28.152-.495.359-.645.619-.15.261-.25.558-.3.891s-.075.68-.075 1.04c0 .333.015.672.045 1.015.03.343.111.653.245.93.133.277.34.503.62.676s.67.26 1.17.26c.66 0 1.143-.168 1.45-.505.306-.337.473-.818.5-1.445h-1.24c-.04.34-.114.593-.22.76-.107.167-.277.25-.51.25-.127 0-.234-.034-.32-.104-.087-.07-.157-.163-.21-.28-.054-.117-.092-.25-.115-.399-.024-.15-.035-.306-.035-.466v-.43h2.73zm-7.623-1.535c.09-.297.285-.444.585-.444.306 0 .505.147.595.444.09.297.135.738.135 1.325s-.045 1.028-.135 1.325c-.09.297-.289.444-.595.444-.3 0-.495-.147-.585-.444-.09-.297-.135-.738-.135-1.325s.045-1.028.135-1.325m1.375 4.016h1.32v-7.141h-1.38v2.26h-.02c-.147-.213-.312-.373-.495-.479-.184-.107-.405-.16-.665-.16-.567 0-.984.222-1.25.665-.267.443-.4 1.165-.4 2.165s.133 1.722.4 2.165c.266.443.683.665 1.25.665.28 0 .515-.055.705-.165s.361-.292.515-.545h.02v.57zm-6.439-4.016c.09-.297.285-.444.585-.444.306 0 .505.147.595.444.09.297.135.738.135 1.325s-.045 1.028-.135 1.325c-.09.297-.289.444-.595.444-.3 0-.495-.147-.585-.444-.09-.297-.135-.738-.135-1.325s.045-1.028.135-1.325m1.375 4.016h1.32v-7.141h-1.38v2.26h-.02c-.147-.213-.312-.373-.495-.479-.184-.107-.405-.16-.665-.16-.567 0-.984.222-1.25.665-.267.443-.4 1.165-.4 2.165s.133 1.722.4 2.165c.266.443.683.665 1.25.665.28 0 .515-.055.705-.165s.361-.292.515-.545h.02v.57zm-6.285-3.301v-.21c0-.127.011-.253.035-.38.023-.127.061-.242.115-.345.053-.104.125-.188.215-.25.09-.063.205-.095.345-.095s.255.027.345.085c.09.057.16.14.21.25.05.109.085.242.105.399s.033.338.04.545h-1.41zm2.73.82v-.31c0-.413-.027-.788-.08-1.125-.054-.338-.154-.623-.3-.86-.147-.237-.349-.42-.605-.55-.257-.13-.585-.195-.985-.195-.467 0-.84.077-1.12.23-.28.152-.495.359-.645.619-.15.261-.25.558-.3.891-.05.333-.075.68-.075 1.04 0 .333.015.672.045 1.015.03.343.111.653.245.93.133.277.34.503.62.676.28.173.67.26 1.17.26.66 0 1.143-.168 1.45-.505.306-.337.473-.818.5-1.445h-1.24c-.04.34-.114.593-.22.76-.107.167-.277.25-.51.25-.127 0-.234-.034-.32-.104-.087-.07-.157-.163-.21-.28-.054-.117-.092-.25-.115-.399-.024-.15-.035-.306-.035-.466v-.43h2.73zm-7.486-1.535c.09-.297.288-.444.595-.444.3 0 .495.147.585.444.09.297.135.738.135 1.325s-.045 1.028-.135 1.325c-.09.297-.285.444-.585.444-.307 0-.505-.147-.595-.444-.09-.297-.135-.738-.135-1.325s.045-1.028.135-1.325m-1.515 4.016h1.32v-.57h.02c.153.253.325.435.515.545s.425.165.705.165c.566 0 .983-.222 1.25-.665.266-.443.4-1.165.4-2.165s-.134-1.722-.4-2.165c-.267-.443-.684-.665-1.25-.665-.26 0-.482.053-.665.16-.184.106-.349.267-.495.479h-.02v-2.26h-1.38v7.141zm-7.633 0h1.38v-3.54c0-.32.065-.554.195-.7.13-.147.305-.22.525-.22.193 0 .331.06.415.18.083.12.125.293.125.52v3.761h1.38v-3.54c0-.32.065-.554.195-.7.13-.147.305-.22.525-.22.193 0 .331.06.415.18.083.12.125.293.125.52v3.761h1.38v-3.91c0-.521-.109-.918-.325-1.195-.217-.277-.555-.415-1.015-.415-.327 0-.609.072-.845.215-.237.144-.409.358-.515.646h-.02c-.074-.28-.219-.493-.435-.641-.217-.146-.485-.22-.805-.22-.3 0-.559.053-.775.16-.217.106-.412.283-.585.53h-.02v-.551h-1.32v5.379zm-4.851-7.141v7.141h4.09v-1.181h-2.65v-1.92h2.4v-1.18h-2.4v-1.68h2.55V60.89h-3.99zm66.31-8.213c.09-.298.285-.445.585-.445.307 0 .505.147.595.445.09.297.135.737.135 1.324s-.045 1.028-.135 1.325c-.09.297-.288.445-.595.445-.3 0-.495-.148-.585-.445-.09-.297-.135-.738-.135-1.325s.045-1.027.135-1.324m1.375 4.015h1.32v-7.14h-1.38v2.26h-.02c-.147-.213-.312-.373-.495-.48-.183-.106-.405-.16-.665-.16-.567 0-.983.223-1.25.665-.267.443-.4 1.165-.4 2.165s.133 1.723.4 2.165c.267.443.683.665 1.25.665.28 0 .515-.055.705-.165.19-.109.362-.292.515-.545h.02v.57zm-7.824 0h1.38v-3.57c0-.593.244-.89.73-.89.207 0 .357.055.45.165.094.109.14.305.14.585v3.71h1.38v-3.99c0-.54-.118-.93-.355-1.17-.237-.24-.575-.36-1.015-.36-.3 0-.566.063-.8.186-.233.123-.423.318-.57.585h-.02v-.63h-1.32v5.379zm-2.326-1.63c0 .152-.026.282-.08.385-.053.104-.121.188-.205.255-.083.067-.175.115-.275.146-.1.029-.196.045-.29.045-.186 0-.32-.073-.4-.221-.08-.146-.12-.322-.12-.529 0-.24.06-.431.18-.57s.32-.24.6-.3c.087-.021.184-.052.29-.095.107-.043.207-.103.3-.176v1.06zm-1.28-2.101v-.149c0-.213.054-.383.16-.51.107-.127.267-.19.48-.19.234 0 .399.058.495.175.097.117.145.278.145.485 0 .18-.04.316-.12.41-.08.093-.223.167-.43.22l-.78.21c-.24.067-.445.143-.615.23-.17.087-.31.194-.42.324s-.191.287-.245.471c-.053.183-.08.401-.08.654 0 .181.024.362.07.545.047.184.12.349.22.495.1.147.234.268.4.36.167.093.37.14.61.14.334 0 .605-.047.815-.14s.395-.28.555-.561h.02c.02.094.042.188.065.285.024.098.059.188.105.275h1.32c-.066-.16-.111-.311-.135-.45-.023-.14-.035-.337-.035-.59v-2.83c0-.24-.025-.462-.075-.665-.05-.203-.145-.378-.285-.525-.14-.146-.338-.26-.595-.34-.256-.08-.588-.12-.995-.12-.26 0-.505.028-.735.085-.23.058-.43.15-.6.28s-.305.302-.405.516c-.1.213-.15.473-.15.779v.13h1.24zm-8.299 1.971v.189c0 .26.03.495.09.705s.165.391.315.54c.15.15.351.265.605.345.253.08.576.12.97.12.286 0 .553-.035.8-.104.246-.07.458-.175.635-.315.176-.14.315-.316.415-.53.1-.213.15-.46.15-.739 0-.407-.09-.729-.27-.965-.18-.237-.487-.429-.92-.575l-.83-.28c-.234-.073-.392-.163-.475-.27-.084-.107-.125-.228-.125-.36 0-.193.065-.338.195-.436.13-.097.281-.145.455-.145.226 0 .385.065.475.195s.135.335.135.614h1.24v-.22c0-.487-.15-.863-.45-1.13-.3-.267-.764-.4-1.39-.4-.354 0-.655.043-.905.131-.25.087-.455.202-.615.35-.16.146-.277.318-.35.515-.074.197-.11.405-.11.625 0 .38.096.692.29.936.193.243.48.432.86.564l.97.351c.133.053.25.125.35.215s.15.222.15.395c0 .213-.064.373-.19.48-.127.106-.297.16-.51.16-.234 0-.412-.072-.535-.215-.124-.144-.185-.332-.185-.565v-.18h-1.24zM138 53.393v-.21c0-.127.011-.253.035-.38.023-.127.061-.242.115-.346.053-.103.125-.187.215-.25s.205-.095.345-.095.255.028.345.085c.09.057.16.14.21.25.05.11.085.243.105.4.02.156.033.338.04.545H138zm2.73.819v-.31c0-.413-.027-.788-.08-1.125-.054-.337-.154-.623-.3-.86-.147-.236-.349-.42-.605-.55-.257-.13-.585-.195-.985-.195-.467 0-.84.077-1.12.23-.28.153-.495.36-.645.62-.15.26-.25.557-.3.89-.05.333-.075.681-.075 1.04 0 .333.015.672.045 1.016.03.343.111.652.245.93.133.276.34.502.62.675.28.173.67.26 1.17.26.66 0 1.143-.168 1.45-.505.306-.337.473-.817.5-1.445h-1.24c-.04.341-.114.594-.22.761-.107.167-.277.25-.51.25-.127 0-.234-.035-.32-.105-.087-.069-.157-.163-.21-.28-.054-.116-.092-.25-.115-.399-.024-.15-.035-.305-.035-.465v-.431h2.73zm-6.339 2.481h1.38v-5.38h-1.38v5.38zm0-6.04h1.38v-1.18h-1.38v1.18zm-2.349.66v.6h-.02c-.134-.28-.304-.473-.51-.58-.207-.106-.407-.16-.6-.16-.374 0-.672.083-.895.25-.224.167-.394.383-.51.646-.117.263-.194.558-.23.885-.037.327-.055.647-.055.96 0 .98.138 1.678.415 2.095.276.417.688.625 1.235.625.22 0 .431-.06.635-.18.203-.12.375-.28.515-.479h.02v.71c0 .279-.057.512-.17.694-.114.184-.31.275-.59.275-.087 0-.169-.013-.245-.04-.077-.027-.149-.063-.215-.11-.14-.1-.21-.236-.21-.409h-1.32c0 .46.158.814.475 1.064.316.25.768.375 1.355.375.806 0 1.381-.172 1.725-.515.343-.344.515-.875.515-1.596v-5.109h-1.32zm-1.415 1.944c.016-.25.051-.449.105-.6.053-.15.126-.258.22-.325.093-.066.216-.1.37-.1.273 0 .461.137.565.41.103.272.155.736.155 1.39 0 .228-.012.436-.035.625-.024.19-.064.353-.12.485-.057.133-.134.237-.23.314-.097.077-.219.115-.365.115-.147 0-.265-.038-.355-.115-.09-.077-.16-.18-.21-.31-.05-.13-.084-.278-.1-.445-.017-.167-.025-.343-.025-.53 0-.358.008-.664.025-.914m-4.935-.014c.013-.232.045-.433.095-.6.05-.167.123-.297.22-.391.096-.093.231-.14.405-.14.28 0 .473.147.58.44.106.293.16.776.16 1.449 0 .674-.054 1.157-.16 1.45-.107.293-.3.44-.58.44-.174 0-.309-.047-.405-.141-.097-.093-.17-.223-.22-.39-.05-.167-.082-.367-.095-.6-.014-.233-.02-.487-.02-.761 0-.269.006-.523.02-.756m-1.3 2c.066.354.18.65.34.89.16.24.376.419.65.535.273.117.616.172 1.03.165.393 0 .725-.062.995-.185s.488-.303.655-.54c.166-.237.286-.532.36-.885.073-.354.11-.761.11-1.221 0-.467-.034-.878-.1-1.234-.067-.357-.18-.655-.34-.896-.16-.24-.377-.418-.65-.535-.274-.116-.617-.172-1.03-.165-.394 0-.725.063-.995.186s-.489.303-.655.54c-.167.237-.287.532-.36.885-.074.354-.11.76-.11 1.22 0 .473.033.887.1 1.24m-2.329 1.45h1.38v-7.14h-1.38v7.14zm-3.678-3.45c.013-.232.045-.433.095-.6.05-.167.123-.297.22-.391.096-.093.231-.14.405-.14.28 0 .473.147.58.44.106.293.16.776.16 1.449 0 .674-.054 1.157-.16 1.45-.107.293-.3.44-.58.44-.174 0-.309-.047-.405-.141-.097-.093-.17-.223-.22-.39-.05-.167-.082-.367-.095-.6-.014-.233-.02-.487-.02-.761 0-.269.006-.523.02-.756m-1.3 2c.066.354.18.65.34.89.16.24.376.419.65.535.273.117.616.172 1.03.165.393 0 .725-.062.995-.185s.488-.303.655-.54c.166-.237.286-.532.36-.885.073-.354.11-.761.11-1.221 0-.467-.034-.878-.1-1.234-.067-.357-.18-.655-.34-.896-.16-.24-.377-.418-.65-.535-.274-.116-.617-.172-1.03-.165-.394 0-.725.063-.995.186s-.489.303-.655.54c-.167.237-.287.532-.36.885-.074.354-.11.76-.11 1.22 0 .473.033.887.1 1.24m-4.997 1.45h1.38v-3.57c0-.593.243-.89.73-.89.206 0 .356.055.45.165.093.109.14.305.14.585v3.71h1.38v-3.99c0-.54-.119-.93-.355-1.17-.237-.24-.575-.36-1.015-.36-.3 0-.567.063-.8.186-.234.123-.424.318-.57.585h-.02v-.63h-1.32v5.379zm-5.058 0h1.38v-3.57c0-.593.243-.89.73-.89.206 0 .356.055.45.165.093.109.14.305.14.585v3.71h1.38v-3.99c0-.54-.119-.93-.355-1.17-.237-.24-.575-.36-1.015-.36-.607 0-1.044.23-1.31.69h-.02v-2.31h-1.38v7.14zm-.79-3.441c0-.64-.162-1.146-.485-1.52-.324-.373-.805-.561-1.445-.561-.32 0-.614.043-.88.131-.267.087-.497.237-.69.454-.194.218-.344.508-.45.87-.107.363-.16.822-.16 1.375 0 .54.043.992.13 1.355.086.363.215.653.385.87s.383.372.64.465c.256.093.558.14.905.14.733 0 1.258-.189 1.575-.569.316-.381.475-.924.475-1.631h-1.32c0 .44-.054.761-.16.961-.107.199-.277.3-.51.3-.154 0-.279-.035-.375-.105-.097-.069-.172-.182-.225-.335-.054-.153-.09-.348-.11-.585s-.03-.521-.03-.854c0-.308.01-.577.03-.811.02-.232.056-.425.11-.575.053-.149.131-.263.235-.34.103-.077.241-.115.415-.115.126 0 .231.032.315.096.083.063.146.146.19.25.043.103.073.22.09.35.016.13.025.258.025.385h1.32zm-7.451.141v-.21c0-.127.012-.253.035-.38s.062-.242.115-.346c.053-.103.125-.187.215-.25s.205-.095.345-.095c.14 0 .255.028.345.085.09.057.16.14.21.25.05.11.085.243.105.4.02.156.033.338.04.545h-1.41zm2.73.819v-.31c0-.413-.027-.788-.08-1.125-.053-.337-.153-.623-.3-.86-.147-.236-.348-.42-.605-.55-.257-.13-.585-.195-.985-.195-.467 0-.84.077-1.12.23-.28.153-.495.36-.645.62-.15.26-.25.557-.3.89s-.075.681-.075 1.04c0 .333.015.672.045 1.016.03.343.112.652.245.93.133.276.34.502.62.675.28.173.67.26 1.17.26.66 0 1.143-.168 1.45-.505s.473-.817.5-1.445h-1.24c-.04.341-.113.594-.22.761s-.277.25-.51.25c-.127 0-.233-.035-.32-.105-.087-.069-.157-.163-.21-.28-.053-.116-.092-.25-.115-.399-.023-.15-.035-.305-.035-.465v-.431h2.73zm-8.547-4.659v1.18h1.56v5.96h1.44v-5.96h1.56v-1.18h-4.56zm58.47-4.199h1.38v-3.57c0-.593.244-.89.73-.89.207 0 .357.055.45.165.094.11.14.305.14.585v3.71h1.38v-3.99c0-.54-.118-.93-.355-1.17-.236-.24-.575-.36-1.015-.36-.3 0-.566.062-.8.185-.233.123-.423.318-.57.585h-.02v-.63h-1.32v5.38zm-3.645-3.45c.014-.233.045-.433.095-.6.05-.167.124-.297.22-.39.097-.093.232-.14.405-.14.28 0 .474.147.58.44.107.293.16.777.16 1.45 0 .673-.053 1.157-.16 1.45-.106.293-.3.44-.58.44-.173 0-.308-.047-.405-.14-.096-.093-.17-.223-.22-.39-.05-.167-.081-.367-.095-.6-.013-.233-.02-.487-.02-.76s.007-.527.02-.76m-1.3 2c.067.353.18.65.34.89.16.24.377.418.65.535.274.117.617.172 1.03.165.394 0 .725-.062.995-.185s.489-.303.655-.54c.167-.237.287-.532.36-.885.074-.353.11-.76.11-1.22 0-.467-.033-.878-.1-1.235-.066-.357-.18-.655-.34-.895-.16-.24-.376-.418-.65-.535-.273-.117-.616-.172-1.03-.165-.393 0-.725.062-.995.185s-.488.303-.655.54c-.166.237-.286.532-.36.885-.073.353-.11.76-.11 1.22 0 .473.034.887.1 1.24m-2.329 1.45h1.38v-5.38h-1.38v5.38zm0-6.04h1.38v-1.18h-1.38v1.18zm-2.84.66h-.7v.94h.7v3.08c0 .273.017.5.05.68.034.18.095.325.185.435.09.11.219.188.385.235.167.047.387.07.66.07.16 0 .312-.007.455-.02.144-.013.292-.027.445-.04v-.96c-.046.007-.096.012-.15.015-.053.003-.106.005-.16.005-.2 0-.331-.045-.395-.135-.063-.09-.095-.242-.095-.455v-2.91h.8v-.94h-.8v-1.54h-1.38v1.54zm-2.652 3.75c0 .153-.027.282-.08.385-.054.103-.122.188-.205.255-.084.067-.175.115-.275.145-.1.03-.197.045-.29.045-.187 0-.32-.073-.4-.22s-.12-.323-.12-.53c0-.24.06-.43.18-.57.12-.14.32-.24.6-.3.086-.02.183-.052.29-.095.106-.043.206-.102.3-.175v1.06zm-1.28-2.1v-.15c0-.213.053-.383.16-.51.106-.127.266-.19.48-.19.233 0 .398.058.495.175.096.117.145.278.145.485 0 .18-.04.317-.12.41-.08.093-.224.167-.43.22l-.78.21c-.24.067-.445.143-.615.23-.17.087-.31.195-.42.325-.11.13-.192.287-.245.47-.054.183-.08.402-.08.655 0 .18.023.362.07.545.046.183.12.348.22.495s.233.267.4.36c.166.093.37.14.61.14.333 0 .605-.047.815-.14.21-.093.395-.28.555-.56h.02c.02.093.041.188.065.285.023.097.058.188.105.275h1.32c-.067-.16-.112-.31-.135-.45-.024-.14-.035-.337-.035-.59v-2.83c0-.24-.025-.462-.075-.665-.05-.203-.145-.378-.285-.525-.14-.147-.339-.26-.595-.34-.257-.08-.589-.12-.995-.12-.26 0-.505.028-.735.085-.23.057-.43.15-.6.28s-.305.302-.405.515c-.1.213-.15.473-.15.78v.13h1.24zm-2.032.29c0-.64-.162-1.147-.485-1.52-.324-.373-.805-.56-1.445-.56-.32 0-.614.043-.88.13-.267.087-.497.238-.69.455-.194.217-.344.507-.45.87-.107.363-.16.822-.16 1.375 0 .54.043.992.13 1.355.086.363.215.653.385.87s.383.372.64.465c.256.093.558.14.905.14.733 0 1.258-.19 1.575-.57.316-.38.475-.923.475-1.63h-1.32c0 .44-.054.76-.16.96-.107.2-.277.3-.51.3-.154 0-.279-.035-.375-.105-.097-.07-.172-.182-.225-.335-.054-.153-.09-.348-.11-.585-.02-.237-.03-.522-.03-.855 0-.307.01-.577.03-.81s.056-.425.11-.575c.053-.15.131-.263.235-.34.103-.077.241-.115.415-.115.126 0 .231.032.315.095.083.063.146.147.19.25.043.103.073.22.09.35.016.13.025.258.025.385h1.32zm-6.329 3.44h1.38v-5.38h-1.38v5.38zm0-6.04h1.38v-1.18h-1.38v1.18zm-5.081 6.04h1.38v-3.57c0-.593.243-.89.73-.89.206 0 .356.055.45.165.093.11.14.305.14.585v3.71h1.38v-3.99c0-.54-.119-.93-.355-1.17-.237-.24-.575-.36-1.015-.36-.3 0-.567.062-.8.185-.234.123-.424.318-.57.585h-.02v-.63h-1.32v5.38zm-2.3 0h1.32v-5.38h-1.38v3.57c0 .593-.244.89-.73.89-.207 0-.357-.055-.45-.165-.094-.11-.14-.305-.14-.585v-3.71h-1.38v3.99c0 .54.118.93.355 1.17.236.24.575.36 1.015.36.3 0 .566-.062.8-.185.233-.123.423-.318.57-.585h.02v.63zm-10.383 0h1.38v-3.54c0-.32.065-.553.195-.7.13-.147.305-.22.525-.22.193 0 .331.06.415.18.083.12.125.293.125.52v3.76h1.38v-3.54c0-.32.065-.553.195-.7s.305-.22.525-.22c.193 0 .331.06.415.18.083.12.125.293.125.52v3.76h1.38v-3.91c0-.52-.109-.918-.325-1.195-.217-.277-.555-.415-1.015-.415-.327 0-.609.072-.845.215-.237.143-.409.358-.515.645h-.02c-.074-.28-.219-.493-.435-.64-.217-.147-.485-.22-.805-.22-.3 0-.559.053-.775.16-.217.107-.412.283-.585.53h-.02v-.55h-1.32v5.38zm-7.633 0h1.38v-3.54c0-.32.065-.553.195-.7s.305-.22.525-.22c.193 0 .331.06.415.18.083.12.125.293.125.52v3.76h1.38v-3.54c0-.32.065-.553.195-.7.13-.147.305-.22.525-.22.193 0 .331.06.415.18.083.12.125.293.125.52v3.76h1.38v-3.91c0-.52-.109-.918-.325-1.195-.217-.277-.555-.415-1.015-.415-.327 0-.609.072-.845.215-.237.143-.409.358-.515.645h-.02c-.074-.28-.219-.493-.435-.64-.217-.147-.485-.22-.805-.22-.3 0-.559.053-.775.16-.217.107-.412.283-.585.53h-.02v-.55h-1.32v5.38zm-3.645-3.45c.013-.233.045-.433.095-.6s.123-.297.22-.39c.096-.093.231-.14.405-.14.28 0 .473.147.58.44.106.293.16.777.16 1.45 0 .673-.054 1.157-.16 1.45-.107.293-.3.44-.58.44-.174 0-.309-.047-.405-.14-.097-.093-.17-.223-.22-.39s-.082-.367-.095-.6c-.014-.233-.02-.487-.02-.76s.006-.527.02-.76m-1.3 2c.066.353.18.65.34.89.16.24.376.418.65.535.273.117.616.172 1.03.165.393 0 .725-.062.995-.185s.488-.303.655-.54c.166-.237.286-.532.36-.885.073-.353.11-.76.11-1.22 0-.467-.034-.878-.1-1.235-.067-.357-.18-.655-.34-.895-.16-.24-.377-.418-.65-.535-.274-.117-.617-.172-1.03-.165-.394 0-.725.062-.995.185s-.489.303-.655.54c-.167.237-.287.532-.36.885-.074.353-.11.76-.11 1.22 0 .473.033.887.1 1.24m-.851-3.28c0-.26-.018-.538-.055-.835-.037-.297-.128-.573-.275-.83-.147-.257-.368-.468-.665-.635-.297-.167-.702-.25-1.215-.25-.54 0-.97.092-1.29.275-.32.183-.565.438-.735.765s-.28.718-.33 1.175-.075.955-.075 1.495.025 1.038.075 1.495.16.848.33 1.175c.17.327.415.582.735.765.32.183.75.275 1.29.275.473 0 .858-.077 1.155-.23.297-.153.527-.362.69-.625s.275-.568.335-.915c.06-.347.09-.713.09-1.1h-1.44c0 .387-.023.698-.07.935-.047.237-.11.42-.19.55-.08.13-.175.217-.285.26s-.228.065-.355.065c-.153 0-.288-.032-.405-.095-.117-.063-.213-.187-.29-.37-.077-.183-.133-.442-.17-.775s-.055-.77-.055-1.31c0-.507.013-.935.04-1.285.027-.35.073-.633.14-.85.067-.217.158-.373.275-.47.117-.097.265-.145.445-.145.327 0 .552.118.675.355s.185.615.185 1.135h1.44zm39.499-6.608h1.38v-3.23c0-.18.03-.331.09-.455.06-.123.14-.223.24-.3.1-.076.21-.131.33-.165.12-.033.24-.05.36-.05.073 0 .145.002.215.005.07.004.142.009.215.015v-1.32c-.04-.006-.082-.011-.125-.015-.043-.003-.085-.005-.125-.005-.287 0-.53.079-.73.235-.2.157-.37.365-.51.625h-.02v-.72h-1.32v5.38zm-3.645-3.451c.013-.233.045-.433.095-.6.05-.166.123-.296.22-.39.097-.093.232-.14.405-.14.28 0 .473.147.58.44.107.294.16.777.16 1.45 0 .674-.053 1.157-.16 1.45-.107.294-.3.44-.58.44-.173 0-.308-.046-.405-.14-.097-.093-.17-.223-.22-.39-.05-.166-.082-.366-.095-.6-.013-.233-.02-.486-.02-.76 0-.272.007-.526.02-.76m-1.3 2c.067.354.18.65.34.89.16.24.377.419.65.535.273.117.617.172 1.03.165.393 0 .725-.062.995-.185s.488-.303.655-.54c.167-.236.287-.531.36-.885.073-.353.11-.76.11-1.22 0-.466-.033-.878-.1-1.235-.067-.356-.18-.655-.34-.895-.16-.24-.377-.418-.65-.535-.273-.116-.617-.171-1.03-.165-.393 0-.725.062-.995.185-.27.124-.488.304-.655.54-.167.237-.287.532-.36.885-.073.354-.11.76-.11 1.22 0 .474.033.887.1 1.24m-2.676 1.451h1.38v-4.44h.8v-.94h-.8v-.47c0-.153.04-.263.12-.33.08-.066.217-.1.41-.1h.13c.06 0 .107.004.14.01v-.98c-.253-.02-.5-.03-.74-.03-.22 0-.42.022-.6.065-.18.044-.332.115-.455.215s-.218.234-.285.4c-.067.167-.1.37-.1.61v.61h-.7v.94h.7v4.44zm-6.15-3.301v-.21c0-.126.012-.253.035-.38.024-.126.062-.241.115-.345.054-.103.125-.186.215-.25.09-.063.205-.095.345-.095.14 0 .255.029.345.085.09.057.16.14.21.25s.085.244.105.4c.02.157.034.339.04.545h-1.41zm2.73.821v-.31c0-.413-.026-.788-.08-1.125-.053-.336-.153-.623-.3-.86-.146-.236-.348-.42-.605-.55-.256-.13-.585-.195-.985-.195-.466 0-.84.077-1.12.23-.28.154-.495.36-.645.62-.15.26-.25.557-.3.89-.05.334-.075.68-.075 1.04 0 .334.015.672.045 1.015.03.344.112.654.245.93.134.277.34.502.62.675.28.173.67.26 1.17.26.66 0 1.144-.168 1.45-.505.307-.336.474-.818.5-1.445h-1.24c-.04.34-.113.594-.22.76-.106.167-.276.25-.51.25-.126 0-.233-.035-.32-.105-.086-.07-.156-.163-.21-.28-.053-.116-.091-.25-.115-.4-.023-.15-.035-.305-.035-.465v-.43h2.73zm-6.7-2.901h-.7v.94h.7v3.08c0 .274.017.5.05.68.034.18.095.325.185.435s.219.189.385.235c.167.047.387.07.66.07.16 0 .312-.007.455-.02.144-.013.292-.027.445-.04v-.96c-.046.007-.096.012-.15.015-.053.004-.106.005-.16.005-.2 0-.331-.045-.395-.135-.063-.09-.095-.241-.095-.455v-2.91h.8v-.94h-.8v-1.54h-1.38v1.54zm-2.636 5.381h1.32v-5.38h-1.38v3.57c0 .594-.243.89-.73.89-.206 0-.356-.055-.45-.165-.093-.11-.14-.305-.14-.585v-3.71h-1.38v3.99c0 .54.119.93.355 1.17.237.24.575.36 1.015.36.3 0 .567-.062.8-.185.234-.123.424-.318.57-.585h.02v.63zm-5.53-5.381h-.7v.94h.7v3.08c0 .274.016.5.05.68.033.18.095.325.185.435s.218.189.385.235c.166.047.386.07.66.07.16 0 .311-.007.455-.02.143-.013.291-.027.445-.04v-.96c-.047.007-.097.012-.15.015-.054.004-.107.005-.16.005-.2 0-.332-.045-.395-.135-.064-.09-.095-.241-.095-.455v-2.91h.8v-.94h-.8v-1.54h-1.38v1.54zm-2.722 5.381h1.38v-5.38h-1.38v5.38zm0-6.04h1.38v-1.18h-1.38v1.18zm-2.84.659h-.7v.94h.7v3.08c0 .274.016.5.05.68.033.18.095.325.185.435s.218.189.385.235c.166.047.386.07.66.07.16 0 .311-.007.455-.02.143-.013.291-.027.445-.04v-.96c-.047.007-.097.012-.15.015-.054.004-.107.005-.16.005-.2 0-.332-.045-.395-.135-.064-.09-.095-.241-.095-.455v-2.91h.8v-.94h-.8v-1.54h-1.38v1.54zm-5.104 3.62v.19c0 .26.03.495.09.705s.165.39.315.54c.15.15.351.265.605.345.253.08.576.12.97.12.286 0 .553-.035.8-.105.246-.07.458-.175.635-.315.176-.14.315-.316.415-.53.1-.213.15-.46.15-.74 0-.406-.09-.728-.27-.965-.18-.236-.487-.428-.92-.575l-.83-.28c-.234-.073-.392-.163-.475-.27-.084-.106-.125-.226-.125-.36 0-.193.065-.338.195-.435.13-.096.281-.145.455-.145.226 0 .385.065.475.195s.135.335.135.615h1.24v-.22c0-.486-.15-.863-.45-1.13-.3-.266-.764-.4-1.39-.4-.354 0-.655.044-.905.13-.25.087-.455.204-.615.35-.16.147-.277.319-.35.515-.074.197-.11.405-.11.625 0 .38.096.692.29.935.193.244.48.432.86.565l.97.35c.133.054.25.125.35.215.1.09.15.222.15.395 0 .214-.064.374-.19.48-.127.107-.297.16-.51.16-.234 0-.412-.071-.535-.215-.124-.143-.185-.331-.185-.565v-.18h-1.24zm-4.846 1.761h1.38v-3.57c0-.593.243-.89.73-.89.206 0 .356.055.45.165.093.11.14.305.14.585v3.71h1.38v-3.99c0-.54-.119-.93-.355-1.17-.237-.24-.575-.36-1.015-.36-.3 0-.567.062-.8.185-.234.124-.424.319-.57.585h-.02v-.63h-1.32v5.38zm-1.06-7.141h-1.44v7.14h1.44v-7.14z"/></g></svg>