<svg xmlns="http://www.w3.org/2000/svg" role="img" viewBox="-7.99 -7.99 415.74 219.99"><title>Krakatoa Technologies Pte Ltd (member) logo</title><g fill-rule="evenodd" stroke="none"><path fill="#2babe3" d="M154.443 26.616c-.125.143-.397.622-.605 1.064-.207.442-.495.925-.64 1.074-.144.148-.263.364-.263.479 0 .115-.175.455-.39.757-.369.518-1.116 1.83-1.815 3.19-.173.337-.368.659-.433.715-.121.104-.471.701-1.259 2.144-.245.449-.507.862-.582.919-.075.056-.306.469-.513.918-.207.45-.433.863-.502.919-.069.056-.308.47-.531.919-.224.449-.454.863-.511.919-.057.056-.287.47-.51.919-.224.449-.455.862-.515.919-.222.209-1.627 2.69-1.627 2.873 0 .104-.083.189-.184.189-.101 0-.354.414-.562.919-.207.504-.432.918-.499.918-.068.001-.295.392-.505.869-.21.477-.493.937-.628 1.022-.135.085-.352.476-.481.868-.13.392-.31.713-.402.713-.091 0-.317.378-.501.839-.185.461-.467.969-.627 1.129-.471.471-.123 1.037 3.019 4.926 1.61 1.992 4.109 5.092 5.555 6.889 4.71 5.851 7.745 9.591 8.002 9.858.203.211.328.111.639-.51.556-1.107 1.523-2.797 1.67-2.916.07-.056.25-.409.402-.783.151-.375.376-.79.499-.922.123-.133.406-.607.629-1.055.224-.447.462-.86.528-.916.067-.056.476-.745.909-1.531.433-.786.839-1.475.902-1.531.062-.057.297-.47.52-.919.224-.45.463-.863.531-.919.069-.056.281-.433.471-.838l.345-.735.859.417c.472.23.905.478.961.55.056.072.492.302.97.51.477.208.868.454.868.545 0 .092.367.314.816.494.45.179.817.401.817.492 0 .092.322.273.715.403.393.129.714.301.714.382 0 .08.414.317.919.525.506.209.919.448.919.532 0 .085.413.323.918.531.505.208.918.445.919.528 0 .083.342.293.759.467.417.175.808.388.868.474.06.086.5.358.977.605 2.124 1.096 2.501 1.316 2.501 1.457 0 .083.368.272.817.42.449.148.817.33.817.403 0 .074.298.295.663.492.365.197 1.123.627 1.685.956.561.329 1.411.786 1.889 1.016.477.231.867.492.867.581 0 .089.368.283.817.431.449.149.817.352.817.452 0 .1.299.323.664.495.365.173 1.123.581 1.684.908.562.327 1.412.782 1.889 1.013.477.23.868.488.868.574 0 .085.39.326.867.534.478.208.914.441.97.518.113.154.877.582 2.187 1.223.472.231.915.511.984.622.068.111.459.342.869.513.409.171.793.383.854.472.06.089.384.303.721.476 1.342.691 2.66 1.438 2.757 1.563.056.073.424.295.817.494.393.199 1.054.566 1.47.816.416.251 1.564.907 2.552 1.459s1.843 1.058 1.899 1.125c.056.067.47.304.919.528.449.223.863.462.919.529.056.068.469.295.919.504.449.21.908.456 1.02.548.404.329 2.606 1.582 2.782 1.582.098 0 .179.083.179.184 0 .101.413.354.918.561.505.208.919.433.919.5 0 .068.414.293.92.502.505.208.918.438.918.51 0 .072.368.297.817.499.449.203.817.428.817.501 0 .073.322.248.715.39.393.143.714.327.714.411 0 .083.391.321.868.53.477.208.914.438.97.51.056.073.561.391 1.123.706 2.226 1.249 2.883 1.612 3.471 1.914.337.173.659.369.715.434.185.215 2.269 1.445 2.449 1.445.097 0 .297.116.446.258.148.143.66.432 1.137.644.478.212.868.449.868.527 0 .078.391.315.868.527.477.211.984.495 1.125.631.142.135.578.362.97.504.392.142.713.321.713.399 0 .078.344.32.765.536 1.295.666 2.165 1.17 2.424 1.404.136.122.553.348.928.501.375.152.773.382.885.51.112.129.526.357.919.508.393.152.784.389.869.527.085.139.476.358.868.487.392.13.713.315.713.411 0 .096.322.291.715.433.393.143.715.323.715.402 0 .078.413.313.918.52.505.208.918.447.918.533.001.085.369.301.818.481.449.18.817.39.817.467 0 .077.413.311.918.519.506.209.919.45.919.536 0 .086.414.314.919.507.506.193.919.419.919.503 0 .083.283.269.63.412.346.144.737.365.868.493.222.217 1.192.75 2.739 1.507.365.178.663.393.663.476 0 .084.391.344.868.577 1.243.609 2.134 1.094 2.549 1.389.368.261 1.229.744 2.505 1.407.393.205.745.44.782.522.037.083.45.334.919.557.468.224 1.311.682 1.872 1.018.562.336 1.32.753 1.685.926.365.173.663.391.663.484 0 .092.369.29.82.439.451.149.926.398 1.056.555.129.156.519.419.864.584.346.165 1.089.575 1.65.911.562.336 1.311.745 1.666.908.355.164.676.379.715.478.038.1.483.381.988.625 1.664.805 2.551 1.293 2.659 1.462.058.092.334.269.612.392.279.123 1.012.536 1.63.917.617.382 1.49.883 1.94 1.114.449.231 1.184.651 1.633.934.449.283 1.184.709 1.633.948.45.24.863.492.919.561.056.069.424.288.817.487.393.199 1.082.583 1.531.854.45.271 1.185.695 1.634.942.449.248.863.506.92.575.057.07.884.531 1.838 1.026.954.495 1.78.955 1.836 1.023.056.068.47.306.919.529.449.224.863.463.919.532.056.07.469.322.919.561.449.239 1.184.661 1.633.938.449.277 1.138.664 1.532.861.393.197.83.471.972.608.141.138.578.367.969.509.392.141.713.321.713.398 0 .077.39.338.868.58 1.167.592 2.071 1.11 2.195 1.26.056.068.469.294.919.504.449.209.994.544 1.212.745.218.2.51.364.649.364s.375.118.523.263c.149.144.638.433 1.087.642.449.209.862.44.919.514.056.073.469.303.918.51.45.207.863.433.919.501.177.213 2.265 1.449 2.449 1.449.097 0 .298.118.446.263.149.145.638.434 1.087.643.449.209.863.436.919.504.056.069.469.308.919.532.449.223.881.505.959.625.079.121.516.342.97.493.455.15.827.338.827.419 0 .081.276.261.613.401.337.139.612.313.612.387 0 .073.413.315.917.537.504.221.918.458.919.525.001.067.392.296.87.508.477.212 1.037.54 1.245.728.208.189.62.404.917.479.296.074.605.243.687.374.265.429 50.647.444 50.561.015-.037-.183-.434-.478-.884-.656-.449-.178-.945-.451-1.103-.606-.314-.31-1.256-.744-1.5-.691-.084.018-.153-.058-.153-.17 0-.192-.314-.385-2.161-1.328-.44-.225-.833-.485-.874-.579-.04-.093-.454-.352-.918-.574-1.073-.512-2.172-1.114-2.635-1.443-.416-.294-1.307-.78-2.549-1.388-.478-.234-.868-.496-.868-.582 0-.086-.437-.362-.97-.613-1.07-.504-1.83-.918-2.297-1.254-.478-.343-1.858-1.153-2.757-1.619-.449-.233-1.157-.63-1.572-.882-.416-.252-1.551-.918-2.522-1.48-.971-.561-2.055-1.188-2.409-1.393-1.143-.66-2.525-1.443-4.361-2.469-.987-.552-1.841-1.066-1.897-1.142-.056-.077-.343-.269-.637-.426-1.708-.916-2.335-1.274-2.426-1.386-.056-.07-.516-.329-1.021-.577-1.121-.549-2.516-1.343-2.654-1.51-.057-.067-.47-.294-.919-.504-.449-.209-.909-.454-1.021-.543-.537-.427-1.7-1.118-2.297-1.363-.365-.15-.664-.336-.664-.413 0-.077-.39-.312-.868-.523-.477-.21-.989-.503-1.137-.651-.149-.149-.384-.27-.523-.27-.14 0-.432-.164-.649-.365-.218-.2-.703-.49-1.077-.644-.375-.154-.788-.384-.919-.511s-.559-.395-.952-.595c-.394-.201-.899-.473-1.123-.605-.225-.132-.96-.556-1.634-.942-.674-.385-1.271-.755-1.327-.822-.056-.067-.493-.293-.97-.504-.477-.21-.869-.438-.87-.505-.001-.067-.392-.304-.868-.527-.476-.223-.911-.453-.968-.511-.216-.224-2.282-1.432-2.449-1.432-.097 0-.297-.117-.446-.259-.148-.142-.66-.432-1.137-.643-.477-.212-.869-.44-.87-.507-.002-.067-.392-.305-.868-.528-.476-.223-.912-.463-.968-.534-.056-.071-.469-.331-.918-.578-.45-.247-1.185-.671-1.634-.942-.449-.271-1.138-.655-1.531-.854-.393-.199-.761-.418-.817-.487-.101-.125-1.194-.74-2.63-1.481-.407-.21-.785-.448-.841-.529-.056-.081-.493-.317-.97-.526-.477-.208-.868-.438-.868-.512 0-.074-.39-.306-.868-.517-.477-.21-.922-.458-.988-.551-.146-.204-1.24-.826-2.279-1.295-.421-.19-.765-.415-.765-.501 0-.086-.408-.312-.906-.503-.498-.19-.948-.455-.999-.589-.052-.134-.471-.368-.932-.521-.461-.152-.839-.354-.839-.449 0-.096-.367-.321-.816-.5-.45-.18-.817-.402-.817-.493 0-.092-.322-.273-.715-.402-.393-.13-.715-.307-.715-.394 0-.086-.39-.329-.867-.54-.478-.21-.914-.441-.97-.514-.056-.072-.47-.331-.919-.574-.449-.244-1.184-.667-1.634-.94-.449-.273-1.207-.688-1.684-.921-.477-.233-.868-.497-.868-.586 0-.089-.369-.284-.82-.433-.45-.149-.925-.398-1.055-.555-.13-.156-.519-.42-.865-.586-.346-.166-.996-.528-1.446-.804-.449-.277-1.207-.691-1.684-.921-.477-.231-.868-.494-.868-.586 0-.092-.413-.325-.919-.518-.505-.193-.919-.421-.919-.507 0-.086-.344-.312-.765-.502-1.017-.458-2.042-1.04-2.465-1.399-.188-.161-.642-.41-1.007-.554-.364-.145-.663-.326-.663-.403 0-.077-.388-.311-.863-.521-.475-.209-.957-.462-1.072-.561-.115-.098-.505-.335-.867-.526-.715-.377-3.745-2.118-4.933-2.834-.406-.245-1.106-.648-1.556-.895-.449-.247-.862-.509-.918-.581-.057-.072-.493-.304-.97-.514-.478-.21-.868-.442-.868-.515 0-.073-.321-.248-.713-.39-.391-.141-.829-.374-.971-.516-.143-.143-.499-.39-.792-.549-.293-.16-.936-.51-1.428-.777-.492-.268-.94-.544-.997-.613-.056-.069-.515-.339-1.02-.6-1.736-.895-2.553-1.364-2.823-1.618-.148-.141-.361-.256-.473-.256-.112 0-.59-.252-1.061-.561-1.285-.842-1.592-1.026-2.484-1.488-.449-.233-1.276-.689-1.837-1.014-.562-.325-1.297-.747-1.634-.936-.337-.19-.658-.407-.714-.482-.057-.075-.409-.26-.784-.412-.374-.151-.791-.376-.926-.499-.28-.254-.851-.597-2.17-1.302-.505-.27-1.011-.566-1.123-.656-.112-.091-.618-.39-1.123-.664-1.938-1.051-2.337-1.283-2.577-1.499-.136-.123-.553-.348-.928-.499-.374-.152-.727-.328-.783-.391-.221-.251-2.627-1.644-2.838-1.644-.124 0-.225-.082-.225-.184 0-.101-.413-.353-.918-.561-.505-.208-.918-.433-.919-.5 0-.067-.39-.297-.867-.51-.476-.214-1.027-.549-1.225-.746-.197-.196-.49-.357-.65-.357-.161 0-.413-.115-.562-.255-.271-.257-1.29-.851-2.618-1.526-.393-.2-.838-.481-.99-.624-.152-.144-.565-.395-.919-.558-.354-.163-1.103-.573-1.664-.91-.562-.338-1.366-.767-1.787-.954-.421-.187-.765-.404-.765-.482 0-.078-.391-.314-.868-.525-.477-.21-.941-.5-1.031-.643-.09-.144-.29-.261-.445-.261-.155 0-.403-.122-.551-.27-.149-.148-.661-.441-1.138-.652-.477-.21-.868-.442-.868-.516 0-.074-.39-.307-.868-.518-.477-.212-.959-.487-1.072-.612-.112-.126-.525-.352-.918-.503-.394-.151-.769-.354-.835-.45-.118-.17-.797-.571-2.228-1.315-.393-.204-.779-.47-.858-.59-.079-.121-.515-.342-.97-.492-.455-.151-.827-.349-.827-.442 0-.093-.298-.307-.663-.476-.365-.169-1.123-.585-1.685-.924-.561-.34-1.404-.801-1.872-1.026-.469-.224-.882-.475-.919-.558-.037-.083-.389-.318-.782-.522-1.276-.663-2.137-1.147-2.505-1.408-.415-.294-1.306-.78-2.549-1.388-.477-.234-.868-.49-.869-.569-.001-.079-.415-.325-.919-.547-.505-.221-.917-.46-.917-.53s-.345-.283-.766-.473c-1.017-.459-2.042-1.041-2.464-1.4-.189-.16-.642-.409-1.007-.554-.365-.144-.664-.326-.664-.404 0-.077-.436-.343-.969-.591-1.049-.487-2.337-1.227-2.502-1.436-.056-.071-.423-.292-.816-.489-.394-.198-1.037-.558-1.43-.8s-1.082-.644-1.531-.894c-3.563-1.978-4.71-2.637-4.799-2.754-.056-.074-.469-.305-.918-.512-.45-.207-.863-.436-.919-.507-.056-.072-.745-.485-1.532-.918-.786-.433-1.475-.849-1.531-.926-.056-.076-.516-.339-1.021-.584-1.105-.535-2.475-1.282-2.756-1.503-.442-.346-2.613-1.575-2.782-1.575-.098 0-.18-.069-.181-.153-.001-.085-.415-.335-.919-.557-.504-.221-.917-.465-.917-.541 0-.076-.252-.238-.561-.358-.309-.121-1.251-.638-2.093-1.148-.842-.51-1.784-1.026-2.093-1.147-.309-.121-.562-.303-.562-.404 0-.101-.08-.184-.179-.184-.195 0-2.422-1.284-2.824-1.627-.333-.285-.928-.253-1.206.065"/><path fill="#14446b" d="M95.327.357c-.162.197-.454.679-.648 1.072-.195.393-.623 1.174-.951 1.736-.329.561-.747 1.333-.93 1.714-.183.382-.463.824-.623.984-.16.16-.347.514-.415.787-.069.273-.193.497-.276.497-.083 0-.324.39-.537.867-.212.478-.547 1.046-.745 1.264-.198.218-.36.51-.36.649s-.121.375-.27.523c-.148.148-.441.66-.651 1.138-.211.477-.447.867-.526.867-.078 0-.299.391-.489.868-.191.476-.412.913-.491.969-.141.102-1.829 3.003-2.434 4.187-.173.337-.368.658-.434.714-.066.057-.303.47-.526.919-.224.45-.454.863-.511.919-.057.056-.287.468-.51.916-.224.447-.507.922-.63 1.054-.123.133-.349.548-.503.922-.154.375-.353.773-.443.886-.308.383-1.077 1.632-1.383 2.246-.168.337-.363.658-.433.714-.07.056-.326.516-.568 1.021-.243.506-.669 1.287-.947 1.736-.279.449-.699 1.207-.935 1.684-.236.478-.492.868-.57.868-.077 0-.256.321-.398.713-.142.391-.367.828-.501.969-.133.142-.408.579-.61.973-.202.393-.592 1.082-.867 1.531-.275.449-.693 1.184-.93 1.633-.236.45-.694 1.277-1.017 1.838-.323.562-.75 1.343-.949 1.736-.199.393-.469.784-.601.869-.132.085-.346.476-.476.868-.129.392-.312.713-.406.713-.095 0-.33.413-.523.919-.193.505-.421.919-.507.919-.086 0-.326.413-.534.918-.207.505-.432.918-.499.918-.068.001-.295.392-.507.869-.211.477-.487.96-.612 1.072-.125.112-.351.526-.502.919-.151.393-.395.788-.542.878-.147.09-.268.29-.268.445 0 .154-.115.403-.255.551-.141.148-.44.636-.664 1.083-.224.448-.517.931-.651 1.075-.133.143-.358.581-.5.973-.142.391-.317.712-.39.712-.072 0-.305.391-.517.868-.211.477-.503.992-.649 1.143-.146.152-.397.565-.558.919-.161.354-.524 1.011-.805 1.46-.281.449-.7 1.184-.932 1.634-.231.449-.648 1.184-.926 1.633-.278.449-.701 1.184-.94 1.633-.239.45-.494.863-.566.919-.072.056-.304.493-.514.97-.211.477-.461.868-.556.868-.095 0-.173.072-.173.159 0 .191-3.359 6.169-3.662 6.516-.116.134-.361.616-.543 1.072-.182.456-.4.829-.483.829-.083 0-.322.413-.53.919-.209.505-.446.918-.528.918-.081 0-.207.186-.279.413-.072.227-.489.985-.927 1.685-.437.699-.982 1.639-1.21 2.088-.229.449-.683 1.276-1.009 1.838-.327.561-.772 1.342-.989 1.736-.217.393-.569 1.032-.783 1.42-.214.387-.499.825-.632.972-.134.146-.359.587-.501.979-.142.392-.334.712-.428.712-.094 0-.356.391-.584.868-.605 1.27-1.152 2.261-1.411 2.557-.125.143-.37.602-.544 1.021-.175.418-.38.807-.456.863-.139.102-1.839 3.03-2.43 4.186-.173.337-.368.658-.434.715-.066.056-.303.468-.526.915-.224.448-.516.931-.65 1.074-.133.144-.358.581-.5.973-.142.392-.317.713-.39.713-.073 0-.304.39-.515.868-.21.477-.434.913-.496.97-.218.195-1.633 2.684-1.633 2.873 0 .104-.074.189-.165.189-.091 0-.335.391-.544.868-.208.477-.439.914-.514.97-.075.056-.278.378-.452.715-.69 1.342-1.437 2.659-1.562 2.756-.073.056-.316.463-.541.903-.502.984-1.189 2.221-1.791 3.222-.25.416-.906 1.564-1.458 2.552-.552.988-1.06 1.843-1.129 1.899-.069.056-.297.493-.508.97-.21.477-.446.868-.525.868-.078 0-.297.344-.487.765-.466 1.033-1.075 2.139-1.352 2.455-.125.143-.358.573-.518.956-.16.383-.382.752-.492.821-.111.068-.391.511-.623.984-.833 1.697-1.261 2.456-1.546 2.742-.16.159-.29.415-.29.567 0 .153-.128.404-.283.56-.156.155-.5.68-.766 1.165-1.077 1.969-1.434 2.6-1.911 3.38-.274.449-.69 1.184-.924 1.633-.235.449-.692 1.23-1.017 1.736-.325.505-.782 1.286-1.016 1.735-.233.45-.642 1.185-.907 1.634-.736 1.246-1.488 2.567-1.978 3.471-.243.449-.508.863-.588.919-.081.056-.316.469-.524.919-.207.449-.445.864-.528.923-.083.058-.255.334-.382.612-.127.279-.477.928-.778 1.442-.301.515-.758 1.323-1.015 1.796-.258.472-.648 1.039-.868 1.259-.22.22-.4.531-.4.691 0 .161-.131.423-.29.582-.287.286-.717 1.05-1.55 2.751-.234.477-.499.868-.589.868-.09 0-.317.344-.505.765-.188.421-.562 1.134-.831 1.583-.883 1.472-.752 1.735.861 1.735 1.69 0 4.753-.368 5.041-.606.116-.096.579-.238 1.028-.317.449-.079 1-.255 1.225-.392.225-.137.891-.421 1.48-.63.59-.21 1.072-.443 1.072-.517 0-.075.414-.294.919-.487.505-.193.919-.419.919-.501 0-.082.321-.303.715-.49.393-.188.714-.428.714-.535 0-.106.161-.248.358-.316.196-.067.898-.625 1.559-1.239.661-.614 1.328-1.116 1.481-1.116.152 0 .278-.092.278-.204 0-.385.359-.204 1.251.629.491.458 1.13 1.055 1.42 1.327.29.272.631.494.758.494.128 0 .33.184.45.408.12.225.309.409.421.409.175 0 1.95 1.114 2.546 1.598.115.094.644.337 1.174.539.53.203.964.437.964.521 0 .083.435.261.967.395s1.073.332 1.202.439c.314.26 2.845.788 3.803.792.421.002.766.095.766.208 0 .125.953.204 2.45.204 1.497 0 2.45-.079 2.45-.204 0-.113.316-.204.702-.204.884 0 3.585-.562 3.88-.807.122-.101.657-.294 1.189-.428s.967-.307.967-.386c0-.078.506-.302 1.123-.497.618-.194 1.125-.418 1.126-.496.001-.079.392-.325.868-.548.476-.223.939-.522 1.028-.664.09-.142.28-.258.421-.258.142 0 .436-.161.654-.357.218-.197.73-.607 1.137-.911.408-.305 1.166-.978 1.685-1.497.518-.518.943-.841.943-.716s.16.285.357.356c.196.072.692.39 1.101.709.41.318.846.578.97.578s.226.09.226.199c0 .11.299.352.664.539.365.187.709.403.765.48.056.077.424.317.817.533.393.216.767.463.831.549.119.161.93.605 3.114 1.704 2.365 1.191 3.099 1.477 4.427 1.726.73.138 1.452.349 1.605.469.367.289 6.737.298 6.931.01.078-.115.779-.324 1.557-.465.779-.14 1.793-.426 2.253-.636.461-.21 1.087-.444 1.392-.521.305-.076.555-.203.555-.281 0-.078.459-.307 1.021-.509.561-.201 1.022-.426 1.023-.499.001-.073.369-.309.817-.523.448-.215.814-.448.814-.518s.299-.301.664-.513c.365-.212.709-.441.765-.508.634-.76 3.808-2.943 3.92-2.697.135.298 2.924 2.482 3.169 2.482.144 0 .262.09.262.199 0 .109.299.352.664.539.365.187.709.396.765.465.253.308 4.75 2.379 5.622 2.588.333.08.698.208.81.285.38.261 1.882.621 3.145.753.692.072 1.306.21 1.366.305.155.251 4.575.223 4.575-.029 0-.113.316-.204.702-.204 1.565 0 4.299-.787 6.79-1.954.582-.273 1.157-.497 1.276-.497s.217-.08.217-.179c0-.099.273-.293.607-.431.333-.138.862-.471 1.174-.739.312-.268.661-.488.777-.488.115 0 .356-.161.534-.358.179-.196.842-.722 1.475-1.168.632-.445 1.15-.867 1.15-.937 0-.654 1.466-.587 2.171.099.675.658 2.233 1.751 2.494 1.751.129 0 .235.085.235.189 0 .207.359.414 3.267 1.888 1.067.541 2.055.984 2.195.985.141 0 .255.084.255.185 0 .101.483.297 1.072.435.59.138 1.164.321 1.277.406.297.226 2.405.635 4.288.831.898.094 1.986.231 2.417.305.464.079.965.038 1.225-.101.319-.17 2.315-.207 7.179-.134 26.745.401 245.231.759 245.588.402.255-.255-.117-.684-.787-.905-.383-.126-.696-.303-.696-.393 0-.09-.299-.282-.664-.426-.365-.145-.818-.394-1.007-.555-.381-.323-1.335-.874-2.392-1.381-.381-.182-.819-.457-.972-.611-.153-.153-.599-.394-.991-.536-.392-.142-.713-.327-.713-.411 0-.085-.39-.345-.867-.579-1.685-.825-2.464-1.262-2.738-1.536-.152-.153-.483-.342-.735-.42-.252-.079-.504-.21-.56-.292-.205-.3-1.808-1.008-1.873-.828-.057.158-134.539-.028-219.056-.303-22.601-.073-26.04-.189-26.544-.891-.056-.078-.516-.262-1.021-.409-.506-.147-1.489-.533-2.187-.858-.697-.325-1.363-.591-1.48-.591-.117 0-.213-.097-.213-.215s-.275-.311-.612-.428c-.337-.117-.613-.276-.613-.351 0-.076-.344-.319-.766-.541-.421-.221-.885-.564-1.032-.761-.147-.197-.396-.358-.554-.358-.159 0-.382-.176-.497-.392-.282-.526-3.079-2.37-3.246-2.139-.073.101-.408.319-.745.486-.337.166-.796.468-1.021.67-1.016.913-1.758 1.515-2.449 1.987-.411.281-.983.717-1.272.97-.288.253-.644.46-.791.46-.146 0-.34.123-.429.274-.09.151-.6.439-1.134.64-.533.202-.969.431-.969.51 0 .08-.575.313-1.277.519-.701.206-1.378.451-1.502.544-1.229.919-12.074.893-12.74-.031-.056-.078-.768-.313-1.582-.522-.814-.209-1.48-.454-1.48-.544 0-.091-.107-.165-.237-.165-.374 0-3.319-1.504-3.5-1.787-.09-.14-.274-.255-.41-.255-.136 0-.614-.32-1.062-.711-.448-.391-.879-.712-.958-.715-.171-.004-1.393-1.243-1.925-1.951-.37-.494-.792-.652-.927-.348-.059.134-1.304 1.139-2.786 2.248-.26.195-.63.492-.822.66-.192.169-.691.488-1.11.71-.418.222-.761.466-.761.542 0 .075-.275.234-.612.351-.337.117-.613.292-.613.388 0 .096-.459.34-1.021.542-.561.202-1.02.435-1.02.518 0 .083-.391.273-.868.423-.478.15-1.098.481-1.379.736-1.385 1.258-7.627 1.76-11.374.914-3.432-.775-7.698-2.837-7.951-3.842-.064-.256-.187-.465-.274-.465-.086 0-.88-.555-1.764-1.234-.884-.678-1.837-1.288-2.118-1.354-.281-.067-.748-.258-1.037-.424-.511-.293-.577-.262-2.169 1.023-6.8 5.49-13.806 7.658-20.335 6.294-2.282-.477-2.216-.273-.841-2.607.65-1.102 1.886-3.245 2.747-4.761 2.553-4.495 5.489-9.629 8.057-14.089 1.326-2.302 3.301-5.748 4.39-7.657 1.089-1.909 3.061-5.355 4.384-7.657 1.322-2.302 2.614-4.553 2.872-5.002.257-.449 1.157-2.011 1.998-3.471.842-1.46 2.629-4.584 3.972-6.943 2.092-3.675 5.603-9.81 6.777-11.843.195-.336 1.115-1.944 2.045-3.573.93-1.628 1.854-3.236 2.052-3.573.199-.337 1.278-2.221 2.399-4.186 2.743-4.812 4.03-7.055 6.262-10.924 1.036-1.797 2.371-4.14 2.965-5.206.595-1.067 1.286-2.262 1.537-2.655.25-.393 1.447-2.46 2.66-4.594 2.538-4.465 5.11-8.981 5.735-10.071 1.323-2.306 4.563-7.942 6.3-10.96 1.099-1.909 3.075-5.355 4.392-7.657 1.316-2.302 3.109-5.426 3.984-6.943.874-1.516 1.732-3.032 1.906-3.369.174-.336.629-1.102 1.011-1.702.755-1.185.692-2.028-.186-2.498-.209-.112-.38-.312-.38-.445 0-.132-.181-.428-.402-.656-.652-.673-2.865-3.345-2.865-3.458 0-.057-.207-.329-.46-.604-.252-.276-.552-.624-.667-.775-.314-.417-2.816-3.509-3.054-3.776-.115-.129-.439-.535-.72-.902-.28-.368-.694-.864-.919-1.103-.225-.24-.576-.69-.779-1-.204-.311-.504-.72-.667-.909-.163-.189-.547-.633-.854-.987-.307-.353-.742-.888-.966-1.187-1.074-1.43-1.443-1.614-1.968-.978m28.066 33.972c-.128.154-1.354 2.256-2.725 4.67-2.568 4.524-6.391 11.214-8.459 14.804-1.592 2.765-1.61 2.82-1.069 3.437.246.281.652.771.903 1.089 1.821 2.316 2.295 2.81 2.498 2.605.103-.104 1.764-2.945 3.691-6.314 1.928-3.369 3.576-6.218 3.663-6.33.124-.161 2.049-3.549 4.176-7.351.126-.224.485-.807.799-1.294l.57-.887-1.128-1.461c-2.073-2.685-2.66-3.282-2.919-2.968m15.467 20.169c-.232.326-.422.629-.422.673 0 .044-1.023 1.867-2.274 4.052-1.25 2.185-3.236 5.672-4.414 7.75-1.177 2.078-2.529 4.421-3.004 5.207-.475.786-1.196 2.057-1.602 2.825l-.739 1.395.963 1.181c.53.65 1.192 1.478 1.473 1.842.281.363.603.766.717.894.113.129 1.262 1.566 2.552 3.193 1.291 1.628 2.457 3.098 2.592 3.267.135.17.687.866 1.225 1.548 1.966 2.488 2.21 2.795 2.511 3.158.168.203.536.668.817 1.032.28.365.717.881.97 1.148.252.267.459.533.459.592 0 .058.299.476.664.927 1.76 2.177 1.866 2.202 2.704.642.289-.539.751-1.347 1.025-1.796.274-.45.652-1.162.84-1.583.188-.421.406-.766.484-.766.078 0 .316-.39.527-.867.212-.478.496-.984.631-1.126.136-.141.363-.578.504-.969.142-.392.317-.713.39-.713.073 0 .307-.39.521-.866.213-.476.549-1.028.745-1.225.197-.198.358-.497.358-.665 0-.169.082-.307.184-.307.101 0 .353-.413.561-.918.208-.505.433-.918.5-.919.067 0 .295-.391.508-.868.212-.477.458-.96.548-1.072.323-.406 1.578-2.606 1.578-2.767 0-.09.118-.286.263-.434.145-.149.424-.592.622-.985.197-.393.531-.99.743-1.327.511-.815.502-1.026-.074-1.686-.525-.603-4.793-5.873-10.538-13.015-1.965-2.442-4.049-5.027-4.631-5.743l-1.059-1.302-.422.593m-12.52 128.69c-.533.118-.97.297-.97.397 0 .1-.142.182-.316.182-.706 0-1.746.687-3.094 2.042-1.248 1.256-1.377 1.427-1.698 2.246-.154.393-.339.761-.411.817-.959.746-1 8.875-.048 9.583.086.063.315.46.51.881.195.422.448.766.562.766.114 0 .21.115.214.255.013.486 2.096 2.4 2.611 2.4.117 0 .333.115.481.257 1.485 1.418 7.236 1.496 9.867.134 1.214-.629 3.361-2.524 3.366-2.973.002-.128.118-.278.259-.332.141-.054.383-.454.539-.889.156-.436.364-.844.462-.908.098-.063.276-.661.396-1.327.12-.666.302-1.493.406-1.838.242-.81.239-2.236-.005-3.034-.106-.345-.296-1.155-.423-1.801-.127-.646-.316-1.174-.42-1.174-.105 0-.19-.127-.19-.283 0-.748-2.399-3.801-2.987-3.801-.154 0-.28-.094-.28-.209 0-.115-.23-.297-.511-.404-.281-.107-.947-.394-1.48-.638-1.131-.518-5.152-.724-6.84-.349m92.451.002c-.558.106-1.109.267-1.225.357-.116.09-.486.229-.823.309-1.659.392-4.234 2.673-4.945 4.381-.169.405-.394.791-.5.858-.895.563-.854 8.965.044 8.965.071 0 .256.384.411.854.286.867 2.99 3.843 3.492 3.843.133 0 .386.125.563.278 1.543 1.33 10.632 1.454 11.435.156.067-.109.373-.261.68-.338.543-.136.635-.987.144-1.322-.083-.056-.27-.502-.416-.991-.146-.489-.386-.935-.533-.992-.3-.115-3.033.473-3.583.77-1.061.575-4.929-.165-6.166-1.18-.736-.602-1.749-1.779-1.749-2.031 0-.133-.161-.403-.357-.6-.419-.419-.543-5.278-.142-5.549.119-.081.333-.434.475-.786.803-1.987 2.854-3.2 5.598-3.31 1.957-.078 4.322.238 4.551.61.437.707 1.334.006 1.804-1.41.194-.586.434-1.115.533-1.176.423-.261-.123-.707-1.147-.936-.608-.136-1.105-.314-1.105-.395 0-.475-5.08-.739-7.039-.365m63.409-.03c-.498.104-.957.271-1.021.369-.065.098-.443.285-.841.415-1.155.376-3.87 2.782-3.87 3.428 0 .14-.125.328-.278.418-.152.09-.394.531-.537.98-.143.449-.341.919-.439 1.044-.324.411-.613 3.618-.466 5.183.406 4.339 3.208 7.848 7.028 8.801 2.171.542 7.415.162 7.945-.575.066-.093.396-.29.733-.438.604-.266.841-.451 1.874-1.458.845-.825 2.054-2.813 2.208-3.632.078-.416.248-.823.378-.903.311-.192.333-6.644.024-6.856-.117-.08-.343-.548-.501-1.04-.159-.492-.408-1.014-.553-1.16-.146-.145-.265-.363-.265-.483 0-.572-2.52-2.706-4.036-3.419-1.719-.807-5.229-1.128-7.383-.674m39.393.002c-.505.106-.949.286-.987.399-.037.113-.203.206-.368.206-.316 0-1.362.497-1.87.89-.589.454-2.493 2.416-2.493 2.569 0 .085-.175.357-.39.604-.215.248-.504.928-.642 1.512-.139.584-.353 1.126-.476 1.206-.299.193-.305 5.714-.006 6.105.12.156.332.682.471 1.169.527 1.842 2.517 4.308 4.004 4.963.337.148.667.345.734.438.869 1.209 7.863 1.08 9.828-.182.419-.269.82-.489.892-.489.262 0 2.488-2.396 2.624-2.825.077-.243.222-.442.321-.442s.343-.528.542-1.174c.199-.645.456-1.239.572-1.319.323-.225.28-6.535-.046-6.644-.14-.047-.255-.235-.255-.419 0-.499-.642-2.082-.844-2.082-.098 0-.177-.132-.177-.293 0-.642-2.441-2.77-4.041-3.522-1.717-.807-5.226-1.125-7.393-.67m23.702.02c-.608.101-1.205.262-1.327.358-.122.096-.567.285-.989.421-.422.136-.881.355-1.021.487-.139.132-.735.603-1.325 1.047-.59.443-1.072.914-1.072 1.046 0 .131-.133.35-.296.485-1.189.986-1.95 3.54-1.95 6.542 0 4.041.925 6.106 3.879 8.663.169.146.536.383.817.528.281.144.557.331.613.414.78 1.156 8.824 1.26 10.967.141 2.502-1.307 2.305-.763 2.305-6.362v-4.813h-9.393v3.675h5.324l-.059 1.991-.058 1.991-.766.189c-.421.104-.765.265-.765.357 0 .231-2.807.214-2.95-.018-.063-.102-.484-.249-.935-.325-1.313-.222-3.183-1.643-4.019-3.054-1.833-3.095-.699-7.602 2.289-9.094.336-.168.658-.366.715-.441.598-.786 4.937-.624 6.729.251 1.366.667 2.07.634 2.431-.116.162-.337.351-.659.421-.715.2-.163.627-1.215.627-1.546 0-.166-.22-.386-.49-.488-.27-.103-.543-.272-.607-.376-.065-.103-.556-.309-1.092-.457-.537-.147-1.022-.335-1.079-.418-.322-.471-4.845-.708-6.924-.363m44.816-.005c-.667.097-1.264.259-1.328.36-.063.102-.482.337-.929.523-.855.356-2.351 1.794-2.351 2.26 0 .149-.115.31-.255.357-.184.061-.256.709-.256 2.297s.072 2.236.256 2.297c.14.047.255.213.255.369 0 .464 1.749 2.071 2.537 2.331.401.133.73.304.73.381 0 .077.62.316 1.378.53.758.215 1.424.448 1.48.518.057.07.683.286 1.392.48 1.252.341 1.464.453 2.298 1.21 1.204 1.093-.34 3.018-2.416 3.013-.254 0-.639.11-.855.245-.287.179-.521.186-.865.028-.26-.12-1.266-.368-2.236-.552-.97-.184-2.027-.472-2.348-.64-1.141-.595-1.414-.443-1.833 1.02-.209.73-.45 1.327-.536 1.327-.085 0-.155.276-.155.613 0 .337.096.613.215.613.118 0 .634.19 1.146.423 2.763 1.259 11.046 1.252 11.466-.01.039-.115.193-.209.343-.209 1.246 0 2.64-2.68 2.623-5.04-.013-1.886-.346-2.746-1.464-3.794-.832-.779-1.091-.946-2-1.287-.548-.206-1.043-.434-1.099-.506-.056-.073-.769-.295-1.585-.493-.815-.198-1.531-.439-1.591-.536-.059-.097-.449-.268-.866-.381-3.122-.844-2.666-3.545.673-3.98 1.013-.132 3.817.163 4.26.449 1.201.771 2.091.685 2.284-.223.076-.355.311-1.032.523-1.503.599-1.331.221-1.9-1.261-1.9-.199 0-.392-.084-.429-.188-.181-.499-4.774-.756-7.201-.402M5.309 193.568v10.414h4.076l.055-5.054c.061-5.659-.098-5.301 1.471-3.318.399.505.847 1.057.995 1.225.269.307 3.445 4.239 4.02 4.977.169.216.445.542.613.723.169.182.469.582.668.888.389.599 5.049.914 5.049.341 0-.3-.371-.967-.781-1.401-.368-.39-.55-.611-1.785-2.174-.812-1.027-.996-1.251-1.926-2.342-.281-.329-.719-.852-.974-1.163-.255-.31-.98-1.187-1.613-1.949-1.304-1.573-1.305-1.548.127-3.209.436-.505.978-1.148 1.205-1.429.226-.281.685-.832 1.019-1.225.335-.393.892-1.048 1.239-1.456.347-.408.631-.845.631-.97 0-.126.075-.229.167-.229.22 0 2.283-2.576 2.283-2.851 0-.348-4.638-.279-4.839.073-.2.347-1.357 1.755-2.257 2.746-.365.401-.663.789-.663.861 0 .073-.253.411-.562.753-.656.726-1.305 1.491-2.297 2.709-.393.483-.967 1.153-1.276 1.489l-.561.611v-9.453H5.309v10.413m19.397-.018v10.432h4.084v-7.964h2.777l.257.713c.142.392.367.831.501.977.247.269.585.829 1.383 2.292.245.449.511.863.59.919.079.056.314.492.522.97.208.477.442.868.519.868.077 0 .254.275.394.612l.253.613h2.324c1.516 0 2.323-.076 2.323-.219 0-.222-1.001-2.044-1.226-2.232-.067-.056-.281-.442-.475-.859-.193-.416-.445-.814-.559-.885-.114-.07-.351-.488-.527-.927-.176-.44-.388-.8-.471-.8-.083 0-.317-.367-.519-.817-.203-.449-.436-.816-.518-.816-.082 0-.206-.161-.276-.358-.069-.196-.179-.472-.245-.612-.065-.141-.01-.255.123-.255.972 0 2.933-1.649 3.578-3.006.953-2.008.133-7.204-1.136-7.204-.075 0-.349-.184-.609-.409-.259-.225-.847-.509-1.307-.632-.46-.123-.964-.33-1.122-.459-.194-.159-1.952-.257-5.462-.304l-5.176-.069v10.431m23.983-9.119c-.208.702-.436 1.322-.504 1.378-.069.056-.292.653-.497 1.327-.205.674-.454 1.328-.552 1.454-.099.126-.317.692-.485 1.258-.168.565-.438 1.284-.601 1.597-.162.313-.408 1.011-.547 1.55-.138.54-.314.982-.39.982-.076 0-.257.436-.401.969-.145.534-.342 1.073-.439 1.199-.096.126-.321.723-.499 1.327s-.393 1.191-.476 1.303c-.084.112-.31.709-.502 1.327s-.527 1.513-.745 1.989c-.802 1.749-.686 1.891 1.549 1.891 1.675 0 1.962-.05 2.058-.358.062-.196.278-.725.479-1.174.202-.449.49-1.253.641-1.786.151-.534.339-.97.419-.97.08 0 .175-.207.211-.46.064-.454.107-.46 3.64-.515l3.575-.055.448 1.178c.246.649.504 1.386.573 1.638.069.253.195.46.278.46.084 0 .27.459.414 1.021l.261 1.021h2.023c1.942 0 2.023-.018 2.023-.445 0-.462-.423-1.827-.621-2.006-.062-.056-.233-.515-.38-1.021-.146-.505-.431-1.286-.633-1.735-.202-.449-.478-1.23-.613-1.736-.135-.505-.309-.964-.387-1.021-.078-.056-.262-.515-.408-1.021-.147-.505-.434-1.289-.639-1.742-.205-.453-.439-1.097-.521-1.43-.082-.333-.318-.925-.525-1.317-.208-.391-.377-.853-.377-1.026 0-.173-.125-.496-.276-.718-.152-.221-.445-.954-.651-1.628-.206-.674-.431-1.271-.5-1.327-.068-.056-.295-.676-.504-1.378l-.38-1.276H49.069l-.38 1.276m14.404 9.137v10.414h4.077l.055-5.148.054-5.147 1.712 2.187c.942 1.202 1.792 2.186 1.889 2.186.097 0 .177.133.177.295 0 .162.162.415.361.561.198.147.526.526.728.842.202.317.522.751.711.964.189.214.551.645.805.957.254.312.737.886 1.072 1.276.336.39.611.781.611.868 0 .087 1.102.159 2.45.159 2.697 0 2.966-.154 1.94-1.106-.281-.26-.511-.546-.511-.636 0-.09-.228-.401-.506-.692-.401-.417-2.392-2.808-3.952-4.746-.121-.15-.451-.549-.733-.886-1.416-1.692-1.955-2.404-1.955-2.585 0-.346.459-1.08.849-1.357.207-.147.376-.366.376-.487s.206-.419.459-.662c.517-.498 1.647-1.911 1.757-2.197.039-.103.269-.396.51-.651 1.41-1.489 1.97-2.155 1.97-2.342 0-.116.161-.331.357-.478.534-.398 1.482-1.729 1.336-1.875-.07-.07-1.101-.127-2.29-.127H75.24l-.668.765c-.368.422-.832.95-1.031 1.174-.2.225-.909 1.095-1.577 1.933-.667.838-1.351 1.678-1.52 1.868-.554.622-1.319 1.542-1.838 2.21-.28.361-.717.902-.969 1.202l-.459.546-.001-4.849v-4.849h-4.084v10.413m24.932-9.954c-.095.253-.242.776-.326 1.163-.084.386-.269.818-.41.959-.141.142-.322.606-.402 1.032-.08.427-.215.822-.3.878-.085.057-.343.654-.574 1.328-.846 2.469-1.376 3.882-1.493 3.982-.067.056-.296.722-.511 1.48-.214.758-.45 1.378-.523 1.378-.073 0-.295.597-.492 1.327-.198.73-.427 1.328-.509 1.328-.082 0-.258.431-.391.958-.133.527-.422 1.354-.642 1.838-.22.483-.456 1.155-.523 1.492-.067.336-.203.612-.301.612-.098 0-.179.138-.179.306 0 .253.373.307 2.134.307h2.133l.344-1.225c.189-.674.404-1.226.478-1.226.074 0 .312-.645.528-1.433l.392-1.434 3.67.055 3.67.056.178.69c.099.38.3.885.447 1.123.147.238.391.869.542 1.403.151.533.34.97.42.97.08 0 .175.206.211.459.075.53 4.251.861 4.251.337 0-.367-.474-1.907-.623-2.021-.072-.057-.32-.654-.551-1.328-.777-2.268-1.076-3.06-1.353-3.573-.152-.281-.341-.783-.421-1.116-.08-.333-.316-.981-.525-1.441-.21-.459-.489-1.266-.622-1.793-.133-.527-.309-.959-.391-.959-.082 0-.311-.597-.509-1.327s-.441-1.327-.541-1.327c-.1 0-.181-.127-.181-.283 0-.352-.654-2.437-.808-2.576-.062-.056-.234-.469-.382-.919-.696-2.116-.448-1.939-2.72-1.939-1.909 0-2.031.025-2.195.459m12.162-.323c-.075.075-.136.902-.136 1.837v1.702h6.738v17.152h4.084V186.83h6.738v-3.675h-8.644c-4.754 0-8.705.061-8.78.136m48.46.17c0 .168-.088.306-.196.306-.108 0-.295.391-.415.868s-.385 1.235-.589 1.685c-.204.449-.495 1.23-.648 1.735-.153.505-.333.965-.399 1.021-.066.056-.241.516-.387 1.021-.146.505-.434 1.29-.639 1.743-.205.453-.439 1.096-.522 1.429-.082.333-.262.789-.4 1.014-.138.224-.361.776-.496 1.225-.134.449-.37 1.096-.523 1.438-.152.341-.393 1.053-.535 1.582-.141.529-.318.962-.392.962-.075 0-.255.436-.402.969-.147.534-.424 1.292-.617 1.685s-.409.971-.481 1.283l-.129.569 2.098-.058c2.001-.056 2.102-.08 2.164-.518.036-.253.139-.459.229-.459s.279-.437.421-.97c.142-.534.422-1.338.623-1.787.2-.449.415-.977.477-1.174.101-.322.461-.357 3.677-.357h3.565l.423 1.13c.233.622.423 1.266.423 1.43 0 .164.08.298.177.298.098 0 .332.552.521 1.226l.344 1.225h2.031c1.724 0 2.032-.05 2.032-.326 0-.439-.633-2.609-.799-2.737-.072-.056-.3-.654-.506-1.327-.206-.674-.447-1.317-.535-1.43-.088-.112-.306-.698-.484-1.302-.179-.604-.407-1.201-.507-1.327-.101-.126-.341-.781-.534-1.454-.193-.674-.414-1.271-.49-1.328-.076-.056-.307-.653-.513-1.327-.206-.674-.439-1.317-.519-1.429-.079-.112-.272-.618-.428-1.123-.156-.505-.339-.965-.407-1.021-.068-.056-.291-.653-.496-1.327-.205-.674-.442-1.317-.527-1.43-.086-.112-.271-.594-.413-1.072l-.258-.867h-2.009c-1.65 0-2.01.054-2.01.306m25.932 1.531v1.838h6.534v17.152h4.084V186.83h6.738v-3.675h-17.356v1.837m19.602 8.576v10.414h13.68v-3.88H198.264v-4.9h8.576v-3.676h-8.576v-4.696H207.861v-3.675h-13.68v10.413m37.162 0v10.414h4.083v-8.372h9.393v8.372h4.084V183.155h-4.084v8.575h-9.393v-8.575h-4.083v10.413m21.643 0v10.414h4.084v-7.179c0-7.165.001-7.177.408-6.808.225.203.409.449.409.547 0 .098.324.658.72 1.244.923 1.367.985 1.463 1.823 2.803.386.618.83 1.261.987 1.429.157.169.414.605.571.97.158.365.351.664.431.664.08 0 .297.321.484.715.186.393.42.714.52.714.099 0 .181.094.181.209 0 .185 1.118 1.965 1.611 2.567.101.123.343.532.538.909.616 1.192.681 1.216 3.349 1.216h2.465V183.155h-4.492l-.006 6.993c-.006 6.128-.043 6.943-.3 6.585-.161-.225-.388-.52-.505-.656-.116-.136-.318-.481-.448-.766-.13-.285-.299-.518-.376-.518-.077 0-.306-.367-.509-.816-.202-.45-.436-.817-.518-.817-.083 0-.303-.322-.489-.715-.187-.393-.404-.715-.484-.715-.08 0-.262-.265-.406-.589-.143-.324-.418-.779-.611-1.011-.193-.232-.626-.89-.963-1.462-.337-.572-.819-1.289-1.072-1.592-.252-.304-.459-.663-.459-.797 0-.135-.12-.319-.267-.409-.146-.09-.426-.508-.622-.929-.196-.421-.429-.765-.518-.765-.089 0-.266-.23-.394-.511-.229-.503-.267-.51-2.687-.51h-2.455v10.413m45.534 0v10.414h13.884v-3.88h-9.596V183.155h-4.288v10.413m60.847 0v10.414h4.084V183.155h-4.084v10.413m8.372 0v10.414h13.9l-.059-1.889-.059-1.889-4.849-.055-4.85-.054V195.202h8.372v-3.676h-8.372v-4.696h9.801v-3.675h-13.884v10.413m-335.326-6.544c1.251.121 1.996.291 2.211.506.178.178.49.412.692.521.741.397.686 2.418-.088 3.192-.44.44-2.012.896-3.089.896-.481 0-.931.092-1.001.204-.069.112-.488.204-.931.204-.442 0-.804-.092-.804-.204 0-.112-.138-.204-.307-.204-.256 0-.306-.431-.306-2.655v-2.654l.868.006c.477.003 1.717.087 2.755.188m98.455.045c.57.132 1.036.304 1.036.384 0 .079.262.253.583.386.32.132.849.609 1.174 1.059.325.45.702.939.838 1.087.99 1.082.901 5.834-.14 7.456-.905 1.409-2.228 2.399-3.441 2.575-.525.076-1.072.232-1.216.347-.178.142-.407.142-.715.001-.248-.114-.911-.317-1.473-.451-1.166-.277-2.679-1.429-3.189-2.426-.182-.356-.433-.771-.559-.923-.76-.916-.693-5.832.089-6.481.16-.132.29-.344.29-.47.002-1.721 3.9-3.195 6.723-2.544m157.07.577c1.357.813 2.554 2.392 2.736 3.607.074.49.215.941.314 1.003.23.142.238 2.391.009 2.65-.094.106-.281.706-.415 1.331-.411 1.925-2.62 3.865-4.4 3.865-.245 0-.553.108-.685.241-.174.174-.37.182-.705.027-.255-.117-.923-.322-1.484-.455-1.208-.287-2.523-1.138-2.773-1.795-.098-.258-.254-.468-.347-.468-.093 0-.337-.483-.544-1.072-.206-.59-.454-1.159-.551-1.266-.236-.262-.225-3.992.013-3.992.103 0 .253-.296.332-.657.716-3.261 5.352-4.908 8.5-3.019m39.313-.071c2.133 1.219 3.227 3.301 3.217 6.123-.004 1.026-.107 1.991-.229 2.144-.122.153-.339.644-.483 1.09-.475 1.473-2.701 3.17-4.157 3.17-.185 0-.517.113-.737.25-.316.198-.453.198-.651 0-.137-.137-.484-.254-.77-.259-.716-.012-1.852-.44-2.441-.919-.475-.387-.594-.508-1.441-1.463-1.054-1.188-1.414-6.16-.559-7.716 1.62-2.947 5.391-4.053 8.251-2.42m-275.694 2.318c.193.786.418 1.429.5 1.429.082 0 .267.528.41 1.174.143.646.39 1.427.548 1.736l.288.561H51.04c-1.245 0-2.231-.069-2.191-.153.431-.907.61-1.347.975-2.399.234-.674.567-1.731.741-2.348.313-1.11.441-1.429.574-1.429.037 0 .225.643.418 1.429m99.525.459c.008.197.097.358.198.358.1 0 .344.666.541 1.48.198.814.423 1.526.5 1.582.959.7.357 1.021-1.906 1.018-1.253-.002-2.178-.07-2.056-.153.121-.083.38-.791.575-1.575.195-.784.428-1.519.518-1.634.089-.114.276-.576.413-1.025.138-.449.357-1.074.486-1.388l.236-.572.24.776c.131.427.246.937.255 1.133m-60.645-1.072c.086 0 .273.529.416 1.174.142.646.424 1.542.626 1.991.202.449.432 1.161.511 1.583l.143.765h-2.064c-2.232 0-2.305-.044-1.766-1.078.163-.313.452-1.14.643-1.838.191-.698.413-1.361.493-1.474.08-.112.268-.571.417-1.021.175-.525.299-.689.348-.459.042.196.147.357.233.357"/><path fill="#fb3404" d="M109.127 21.941c-1.005 1.756-2.057 3.592-2.338 4.078-.281.487-1.368 2.389-2.417 4.227-1.049 1.839-2.811 4.905-3.916 6.814-1.105 1.909-2.452 4.24-2.993 5.18-.542.941-1.215 2.101-1.496 2.58-.28.478-1.368 2.373-2.417 4.212-3.096 5.428-5.971 10.444-6.362 11.101-.201.337-1.281 2.22-2.401 4.186-1.12 1.965-3.067 5.365-4.327 7.554-1.261 2.19-3.21 5.59-4.332 7.555-3.214 5.63-6.1 10.664-6.496 11.333-.416.701-3.726 6.51-6.283 11.026-.954 1.684-1.807 3.154-1.896 3.267-.089.112-1.099 1.858-2.243 3.879-1.145 2.022-2.299 4.043-2.564 4.492-.266.449-1.152 1.997-1.969 3.439-.818 1.442-1.68 2.959-1.916 3.369-.236.411-1.329 2.309-2.428 4.218-1.1 1.909-2.916 5.079-4.037 7.045-1.12 1.965-2.2 3.849-2.399 4.185-.465.787-3.917 6.818-6.313 11.027-1.022 1.796-2.944 5.15-4.269 7.452-1.466 2.547-2.324 4.236-2.191 4.313 1.538.892 7.578.944 10.632.091 3.701-1.033 7.706-3.194 11.128-6.004 1.714-1.408 1.815-1.439 2.663-.811.631.466 1.19.188 1.21-.6.004-.141.089-.256.191-.256.101 0 .353-.413.561-.918.208-.505.433-.918.5-.919.067 0 .288-.368.49-.817.203-.449.428-.817.5-.817.072 0 .302-.413.51-.919.208-.505.435-.919.503-.919s.253-.298.412-.663c.159-.365.349-.71.423-.766.074-.056.276-.378.448-.714.584-1.138 2.487-4.492 2.608-4.595.067-.056.293-.492.503-.97.211-.477.452-.867.536-.867.084 0 .254-.253.377-.562.123-.309.498-1.021.835-1.582.769-1.285 1.392-2.409 2.044-3.692.281-.553.611-1.096.734-1.209.123-.112.341-.503.484-.868.144-.365.329-.663.413-.663.083 0 .309-.414.502-.919.193-.505.424-.919.514-.919.089 0 .283-.298.431-.663.147-.365.32-.71.384-.766.063-.056.298-.47.522-.919.223-.449.507-.909.63-1.021.123-.112.348-.526.501-.919.152-.393.382-.806.51-.919.128-.112.359-.521.511-.91.153-.388.443-.87.644-1.072.202-.201.367-.497.367-.657 0-.161.114-.413.255-.562.252-.266.803-1.222 1.511-2.618.199-.393.48-.836.625-.984.145-.149.263-.384.263-.523 0-.14.161-.432.357-.649.197-.218.563-.81.813-1.315.515-1.039 1.331-2.498 1.484-2.653.057-.057.285-.471.509-.92.223-.449.461-.863.528-.919.067-.056.476-.745.909-1.531.433-.787.84-1.476.905-1.532.145-.125.688-1.266.708-1.488.008-.088.116-.226.24-.306.123-.08.394-.513.602-.962.207-.45.44-.863.517-.919.078-.056.286-.45.463-.875.177-.425.463-.914.635-1.087.173-.172.314-.433.314-.58 0-.147.139-.382.309-.523.17-.141.494-.634.721-1.097.623-1.271 1.024-2.012 1.393-2.576.184-.281.489-.878.68-1.328.19-.449.355-.724.368-.612.012.112.232-.209.49-.715.758-1.489 1.23-2.312 1.489-2.596.133-.147.358-.587.5-.979.142-.392.328-.713.413-.713.085 0 .374-.436.641-.97.896-1.785 1.24-2.397 1.492-2.652.138-.139.358-.576.488-.97s.3-.716.379-.716c.078 0 .324-.413.545-.917.222-.505.472-.918.557-.919.084-.001.153-.1.153-.221 0-.12.263-.602.584-1.072.322-.469.65-1.06.729-1.313.079-.252.209-.459.288-.459.08 0 .326-.413.548-.917.222-.504.458-.918.525-.919.067-.001.295-.392.505-.869.211-.478.441-.914.511-.97.071-.056.3-.47.509-.919.209-.449.498-.938.642-1.087.145-.148.263-.349.263-.446 0-.195 1.248-2.287 1.462-2.449.074-.057.291-.493.482-.97s.42-.867.509-.867c.089 0 .264-.253.389-.562.124-.309.543-1.113.93-1.787.387-.673.868-1.546 1.069-1.939.202-.393.467-.807.59-.919.123-.112.349-.522.502-.91.153-.388.442-.871.644-1.072.201-.202.366-.486.366-.633 0-.147.229-.578.51-.958.281-.381.511-.907.511-1.17 0-.445.52-1.563 1.403-3.016.399-.657 4.276-7.426 5.029-8.78 1.026-1.845 4.591-8.048 5.281-9.189.407-.673.741-1.35.742-1.503 0-.246-2.34-3.344-3.338-4.418-.208-.225-.622-.727-.92-1.116-.297-.39-.678-.866-.847-1.059-.168-.193-.463-.564-.656-.824-.192-.26-1.139-1.428-2.103-2.596-.964-1.168-1.707-2.243-1.651-2.389.06-.155-.007-.223-.161-.164-.146.056-.5-.243-.797-.674-.293-.426-.795-1.082-1.115-1.457l-.582-.683-1.827 3.194m18.113 17.531c-.118.141-1.077 1.77-2.132 3.619-1.055 1.848-2.495 4.372-3.199 5.607-.705 1.236-1.766 3.073-2.359 4.084-.592 1.011-1.829 3.17-2.747 4.798-.919 1.629-1.969 3.237-2.334 3.574-.366.337-.837 1.003-1.047 1.48-.21.477-.45.868-.533.868-.084 0-.268.321-.41.714-.143.393-.326.715-.408.715-.082 0-.214.207-.293.46-.08.252-.407.843-.729 1.312-.321.47-.584.946-.584 1.058 0 .112-.119.325-.263.474-.145.148-.434.637-.643 1.086-.209.449-.435.863-.503.919-.068.056-.306.47-.529.919-.224.449-.461.862-.528.919-.067.056-.476.745-.909 1.531-.433.786-.839 1.475-.903 1.531-.064.057-.299.47-.523.919-.223.449-.462.863-.529.919-.068.056-.294.47-.503.919-.209.449-.484.924-.611 1.054-.127.131-.357.545-.51.919-.154.375-.354.773-.444.885-.404.505-1.128 1.701-1.395 2.302-.16.363-.347.659-.415.659s-.294.414-.502.919c-.209.505-.446.919-.528.919-.082 0-.206.182-.277.404-.13.41-1.372 2.586-1.695 2.97-.096.115-.347.597-.556 1.072-.21.474-.445.863-.524.863-.078 0-.199.223-.267.496s-.255.627-.414.786c-.16.159-.458.613-.664 1.009-.765 1.473-1.351 2.51-1.473 2.609-.069.056-.308.47-.532.919-.223.449-.462.863-.531.919-.069.056-.294.469-.502.919-.207.449-.436.862-.509.918-.149.116-.591.912-1.219 2.195-.234.478-.503.868-.599.868-.153 0-.648 1.045-.705 1.488-.011.088-.127.226-.257.307-.13.08-.393.536-.584 1.013-.191.477-.42.868-.509.868-.089 0-.262.252-.384.561-.122.309-.77 1.48-1.441 2.604-.67 1.123-1.365 2.317-1.544 2.654-.179.337-.574 1.034-.876 1.548-.303.515-.77 1.342-1.038 1.838s-.546.948-.618 1.004c-.072.056-.304.493-.514.97-.21.477-.452.868-.536.868-.084 0-.254.252-.377.561-.122.309-.5 1.021-.839 1.583-.339.561-.803 1.411-1.031 1.888-.229.478-.496.868-.594.868-.099 0-.288.345-.422.766-.133.421-.358.859-.499.972-.141.114-.455.619-.699 1.123-.243.504-.618 1.192-.832 1.529-.215.337-.824 1.394-1.354 2.348-.53.955-1.023 1.782-1.095 1.838-.072.056-.332.492-.579.97-1.187 2.3-1.368 2.622-1.613 2.873-.145.148-.318.486-.384.751-.067.264-.233.524-.369.576-.137.052-.373.473-.525.934-.152.461-.358.838-.459.838-.1 0-.317.299-.482.664-.166.365-.576 1.123-.912 1.684-.335.562-.833 1.481-1.106 2.042-.273.562-.503.929-.512.817-.009-.112-.193.184-.408.66-.216.475-.495.98-.619 1.123-.245.28-.802 1.275-1.333 2.381-.182.382-.457.819-.611.972-.153.154-.394.6-.536.992-.142.391-.327.712-.411.712-.085 0-.345.391-.579.868-.833 1.701-1.264 2.464-1.55 2.751-.785.785.187 1.693 3.412 3.184 5.584 2.581 16.308 2.185 16.308-.603 0-.153.078-.278.173-.278.096 0 .346-.391.556-.868.211-.478.434-.914.497-.97.218-.195 1.633-2.685 1.633-2.873 0-.105.078-.19.173-.19.095 0 .345-.39.556-.868.21-.477.444-.913.518-.97.075-.056.288-.466.473-.911.186-.446.413-.859.504-.919.092-.06.504-.748.917-1.529.412-.78.869-1.561 1.016-1.735.147-.174.386-.615.53-.98.145-.365.335-.664.422-.664.088 0 .262-.252.386-.561.125-.309.546-1.113.935-1.787.389-.674.897-1.593 1.13-2.042.233-.449.743-1.322 1.133-1.94.782-1.239 1.191-2.062 1.141-2.297-.018-.084.063-.153.181-.153s.356-.298.529-.663c.172-.365.581-1.123.907-1.685.327-.561.777-1.399 1.001-1.862.224-.462.531-.943.682-1.069.151-.125.397-.597.545-1.048.149-.45.353-.819.453-.819.1 0 .278-.276.396-.613.117-.337.288-.612.38-.612.092 0 .326-.414.519-.919.193-.506.407-.92.476-.921.069-.002.309-.392.532-.868.224-.476.509-.957.632-1.07.124-.112.35-.526.503-.919.152-.393.382-.806.51-.918.129-.113.359-.526.513-.919.153-.393.443-.893.644-1.111.2-.217.365-.516.365-.663 0-.148.08-.268.179-.268.098 0 .381-.437.628-.97.654-1.412 1.286-2.528 1.694-2.99.196-.223.357-.519.357-.658 0-.14.119-.375.263-.523.145-.149.434-.638.643-1.087.209-.449.435-.863.503-.919.068-.056.261-.377.429-.714.168-.337.359-.659.424-.715.065-.056.26-.378.433-.715.708-1.376 1.439-2.66 1.569-2.756.075-.056.31-.493.52-.97.211-.477.438-.868.505-.869.067 0 .292-.413.5-.918.207-.505.442-.918.522-.918.08 0 .315-.391.523-.868.208-.478.441-.914.518-.97.155-.113.582-.877 1.223-2.187.232-.472.508-.913.614-.978.106-.065.381-.506.613-.978.511-1.045 1.268-2.418 1.937-3.514.274-.449.649-1.135.833-1.524.184-.39.448-.803.588-.919.139-.116.378-.533.531-.926.152-.393.382-.807.51-.919.128-.112.357-.526.508-.919.151-.393.388-.784.527-.869.138-.085.358-.476.487-.868.13-.392.31-.713.402-.713.091 0 .321-.345.51-.766.357-.794.929-1.82 2.15-3.86.393-.656.791-1.4.885-1.653.094-.252.24-.459.325-.459.214 0 .628-.954.628-1.446 0-.381.414-1.239 1.519-3.148.924-1.597 4.49-7.825 6.956-12.149 1.377-2.415 2.887-5.045 3.356-5.845l.851-1.454-.47-.692c-.259-.38-.655-.89-.88-1.134-.224-.244-.61-.703-.856-1.019-.246-.317-.963-1.219-1.593-2.005-.63-.787-1.347-1.694-1.594-2.017-.247-.324-1.031-1.288-1.743-2.144-1.961-2.359-2.35-2.836-2.731-3.34-1.333-1.761-1.759-2.18-1.966-1.93"/><path fill="#a23c2c" d="M110.88 18.458c-.004.101.41.698.92 1.327s1.13 1.407 1.378 1.728c.248.322 1.213 1.516 2.143 2.655.931 1.138 1.85 2.282 2.042 2.542.193.26.488.631.656.824.169.193.55.669.847 1.059.298.389.712.891.92 1.116.762.82 3.282 4.092 3.373 4.38.079.248.114.244.217-.024.073-.19-.098-.57-.422-.935-.594-.669-1.334-1.578-1.974-2.422-.225-.296-.69-.872-1.033-1.279-.344-.408-1.583-1.935-2.754-3.395s-2.177-2.701-2.236-2.757c-.059-.056-.467-.581-.907-1.166-.439-.585-.92-1.11-1.069-1.167-.149-.058-.27-.214-.27-.349 0-.134-.228-.482-.506-.772-.278-.29-.688-.757-.912-1.038-.224-.281-.41-.428-.413-.327m16.34 20.818c-.2.33-.202.379-.009.196.25-.236.644.145 1.995 1.93.381.504.77.981 2.731 3.34.712.856 1.496 1.82 1.743 2.144.604.79 3.194 4.027 4.146 5.181.232.281.599.741.816 1.021.217.281.398.401.402.268.005-.198-2.415-3.36-3.669-4.792-.168-.193-.49-.595-.714-.894-.225-.3-.639-.807-.919-1.127-.281-.32-.669-.793-.863-1.051-.194-.258-.914-1.158-1.6-2-.686-.843-1.354-1.67-1.485-1.838-.653-.839-1.897-2.375-2.091-2.582-.163-.174-.288-.121-.483.204m-9.704 4.744c-.19.29-.311.563-.268.606.043.043.239-.195.436-.528.44-.745.309-.806-.168-.078M52.884 152.562c-.535.486-.663.662-.306.421.564-.379 1.5-1.284 1.308-1.264-.046.005-.497.384-1.002.843m25.013 6.09c-.258.111-.295.176-.102.176.168 0 .49-.079.714-.176.258-.11.296-.175.103-.175-.169 0-.491.079-.715.175m-5.865.763c.48.043 1.215.042 1.633-.002.419-.044.026-.079-.873-.078-.898.001-1.24.037-.76.08"/><path fill="#714244" d="M53.79 151.965l-.6.664.671-.606c.609-.551.712-.581 1.123-.325.413.258.428.253.172-.057-.405-.491-.691-.423-1.366.324m-4.734 3.444c-.696.446-.922.745-.307.407.469-.258 1.203-.825 1.072-.829-.056-.002-.4.188-.765.422m-13.783 4.007c.702.04 1.851.04 2.552 0 .702-.04.128-.072-1.276-.072s-1.978.032-1.276.072m34.712-.007c.252.049.666.049.919 0 .252-.049.045-.088-.46-.088s-.712.039-.459.088m4.698 0c.254.049.622.047.817-.004.195-.051-.013-.091-.462-.089-.449.003-.609.045-.355.093m-2.246.205c.254.048.622.047.817-.005.195-.051-.013-.091-.462-.088-.449.002-.609.044-.355.093"/></g></svg>