<svg xmlns="http://www.w3.org/2000/svg" role="img" viewBox="-20.46 -19.46 1063.92 407.92"><title>KU Leuven (member) logo</title><path d="M210 149h1v1h-1zm-9 10h1v1h-1zm458 13h1v1h-1zm-485 21h1v1h-1zm534 1h1v1h-1zm-34 30h1v1h-1zm-515 3h1v1h-1zm65 11h1v1h-1zm72 16h1v1h-1z" fill="#fafbfc"/><path d="M170 150h1v1h-1zm570 40h1v1h-1zm-135 42h1v1h-1zm119 11h1v1h-1z" fill="#b9cbda"/><path d="M687 158h1v1h-1zm-541 23h1v1h-1zm76 53h1v1h-1zm-58 2h1v1h-1zm745 4h1v1h-1zm-614 15h1v1h-1zm-5 2h1v1h-1z" fill="#a2b9ce"/><path d="M745 174h1v1h-1zm-81 17h1v1h-1zm65 36h1v1h-1z" fill="#8eaac4"/><path d="M661 179h1v1h-1zm-516 4h1v1h-1zm592 16h1v1h-1zm160 18h1v1h-1zm-583 13h1v1h-1zm274 0h1v1h-1zm-35 3h1v1h-1zm91 0h1v1h-1zm-419 7h1v1h-1zm5 7h1v1h-1zm491 5h1v1h-1z" fill="#f8fafb"/><path d="M699 202h1v1h-1zm-541 25h1v1h-1zm156 6h1v1h-1zm240 5h1v1h-1z" fill="#2b6090"/><path d="M751 156h1v1h-1zm-35 3h1v1h-1zm-527 15h1v1h-1zm546 35h1v1h-1zm-576 20h1v1h-1z" fill="#0a477f"/><path d="M895 162h1v1h-1zm-206 5h1v1h-1zm-505 11h1v1h-1zm721 3h1v1h-1zm-420 9h1v1h-1zm224 0h1v1h-1zm206 10h1v1h-1zm-215 9h1v1h-1zm-149 14h1v1h-1zm125 8h1v1h-1zm-401 1h1v1h-1zm320 1h1v1h-1zm315 8h1v1h-1zm-353 1h1v1h-1zm-387 3h1v1h-1zm59 1h1v1h-1zm404 4h1v1h-1z" fill="#f7f9fb"/><path d="M196 165h1v1h-1zm470 32h1v1h-1zm-43 59h1v1h-1z" fill="#d3dee8"/><path d="M711 180h1v1h-1zm-12 23h1v1h-1zm-447 6h1v1h-1zm31 7h1v1h-1zm310 16h1v1h-1zm312 1h1v1h-1zm-732 18h1v1h-1z" fill="#6e92b3"/><path d="M174 190h1v1h-1zm377 37h1v1h-1zm38 3h1v1h-1zm-290 23h1v1h-1zm-54 4h1v1h-1zm30 3h1v1h-1z" fill="#6f93b4"/><path fill="#43729d" d="M708 191h1v1h-1z"/><path d="M667 201h1v1h-1zm-525 24h1v1h-1zm465 6h1v1h-1zm24 21h1v1h-1z" fill="#acc1d4"/><path d="M753 148h1v1h-1zm-4 14h1v1h-1zm-563 15h1v1h-1zm457 61h1v1h-1zm265 1h1v1h-1zm-742 1h1v1h-1zm398 11h1v1h-1z" fill="#2e6292"/><path d="M686 154h1v1h-1zm-487 8h1v1h-1zm5 75h1v1h-1zm-29 17h1v1h-1z" fill="#96b0c8"/><path d="M203 157h1v1h-1zm690 1h1v1h-1zm10 19h1v1h-1zm10 19h1v1h-1zm-767 24h1v1h-1zm251 10h1v1h-1zm-175 3h1v1h-1zm337 12h1v1h-1z" fill="#ebf0f5"/><path d="M688 163h1v1h-1zm-203 13h1v1h-1zm182 24h1v1h-1zm-82 26h1v1h-1zm17 7h1v1h-1zm36 12h1v1h-1zm-465 5h1v1h-1zm509 2h1v1h-1zm-393 5h1v1h-1z" fill="#eff3f7"/><path d="M790 176h1v1h-1zm-95 13h1v1h-1zm-443 28h1v1h-1zm62 14h1v1h-1zm-48 2h1v1h-1zm34 19h1v1h-1zm-57 4h1v1h-1z" fill="#c2d1df"/><path d="M177 196h1v1h-1zm2 3h1v1h-1zm40 20h1v1h-1zm-109 39h31v1h-31zm31 0h1v1h-1zm37 0h39v1h-39zm39 0h1v1h-1zm402 0h1v1h-1zm65 0h35v1h-35zm35 0h1v1h-1zm137 0h29v1h-29zm29 0h1v1h-1zm34 0h30v1h-30zm30 0h1v1h-1z" fill="#336695"/><path d="M652 148h1v1h-1zm66 5h1v1h-1zm-18 54h1v1h-1zm-538 26h1v1h-1z" fill="#7a9bba"/><g fill="#fff"><path d="M110 149h31v108h-31zm31 0h1v108h-1zm31 0h37v2h-37zm37 0h1v1h-1zm11 0h31v72h-31zm31 0h1v109h-1zm33 0h31v80h-31zm31 0h1v74h-1zm50 0h31v108h-31zm31 0h1v108h-1zm58 0h85v26h-85zm85 0h1v26h-1zm12 0h31v73h-31zm31 0h1v109h-1zm33 0h31v79h-31zm31 0h1v73h-1zm7 0h31v1h-31zm31 0h1v108h-1zm36 0h31v6h-31zm31 0h1v3h-1zm8 0h85v26h-85zm85 0h1v26h-1zm12 0h32v48h-32zm32 0h1v51h-1zm32 0h29v108h-29zm29 0h1v108h-1z"/><path d="M171 150h37v2h-37zm482 0h31v1h-31z"/><path d="M170 151h38v1h-38zm38 0h1v1h-1zm446 0h30v3h-30zm235 0h1v51h-1zm-719 1h37v1h-37zm37 0h1v1h-1zm512 0h32v3h-32zm32 0h1v1h-1zm-582 1h37v1h-37zm37 0h1v1h-1zm479 0h1v104h-1zm205 0h1v50h-1zm-722 1h37v1h-37zm37 0h1v1h-1zm449 0h31v1h-31zm-487 1h37v1h-37zm37 0h1v1h-1zm451 0h30v2h-30zm64 0h31v3h-31zm31 0h1v1h-1zm141 0h1v50h-1zm-725 1h37v1h-37zm37 0h1v1h-1zm483 0h1v101h-1z"/><path d="M718 156h31v6h-31zm-552 1h36v1h-36zm36 0h1v1h-1zm453 0h31v1h-31zm237 0h1v50h-1zm-727 1h36v1h-36zm36 0h1v1h-1zm455 0h30v3h-30zm93 0h1v1h-1zm-585 1h36v2h-36zm36 0h1v1h-1zm693 0h1v50h-1z"/><path d="M163 160h36v2h-36zm524 0h1v97h-1zm30 0h31v5h-31zm-518 1h1v1h-1zm457 0h31v1h-31zm238 0h1v50h-1zm-732 1h36v1h-36zm36 0h1v1h-1zm459 0h30v2h-30zm91 0h1v1h-1zm-587 1h36v1h-36zm36 0h1v1h-1zm698 0h1v50h-1zm-735 1h36v1h-36zm36 0h1v1h-1z"/><path d="M657 164h31v1h-31zm31 0h1v93h-1zm28 0h31v4h-31zm-556 1h35v1h-35zm35 0h1v1h-1zm463 0h30v3h-30zm89 0h1v1h-1zm149 0h1v49h-1zm-737 1h35v1h-35zm35 0h1v1h-1zm-36 1h35v1h-35zm35 0h1v1h-1zm704 0h1v49h-1zm-740 1h35v1h-35zm35 0h1v1h-1z"/><path d="M658 168h31v1h-31zm31 0h1v89h-1zm26 0h31v4h-31zm31 0h1v1h-1zm152 0h1v50h-1zm-742 1h35v2h-35zm35 0h1v1h-1zm468 0h30v2h-30zm240 1h1v50h-1zm-744 1h35v1h-35zm35 0h1v1h-1zm469 0h30v1h-30z"/><path d="M714 171h31v4h-31zm-560 1h35v1h-35zm35 0h1v1h-1zm471 0h30v3h-30zm30 0h1v85h-1zm55 0h1v1h-1zm155 0h1v50h-1zm-747 1h35v1h-35zm35 0h1v1h-1zm-35 1h34v1h-34zm34 0h1v1h-1zm714 0h1v50h-1zm-749 1h34v1h-34zm34 0h1v1h-1zm268 0h85v1h-85zm85 0h1v1h-1zm121 0h30v1h-30zm53 0h31v3h-31zm31 0h1v1h-1zm15 0h85v1h-85zm85 0h1v1h-1zm-693 1h34v1h-34zm34 0h1v1h-1zm269 0h30v81h-30zm30 0h1v81h-1z"/><path d="M661 176h30v2h-30zm30 0h1v81h-1zm68 0h30v81h-30zm30 0h1v81h-1zm113 0h1v49h-1zm-752 1h34v1h-34zm34 0h1v1h-1zm-35 1h34v2h-34zm34 0h1v1h-1zm478 0h30v1h-30zm52 0h30v4h-30zm30 0h1v1h-1zm160 0h1v49h-1z"/><path d="M662 179h30v3h-30zm30 0h1v78h-1zm20 0h30v6h-30zm-564 1h34v1h-34zm34 0h1v1h-1zm722 0h1v49h-1zm-757 1h34v1h-34zm34 0h1v1h-1zm-35 1h34v1h-34zm34 0h1v1h-1zm482 0h30v1h-30zm80 0h1v1h-1zm163 0h1v49h-1zm-759 1h33v1h-33zm33 0h1v1h-1z"/><path d="M663 183h30v2h-30zm30 0h1v74h-1zm18 0h30v5h-30zm-566 1h33v1h-33zm33 0h1v1h-1zm728 0h1v49h-1zm-762 1h33v1h-33zm33 0h1v1h-1zm486 0h30v1h-30zm78 0h1v1h-1zm-598 1h33v1h-33zm33 0h1v1h-1zm488 0h29v3h-29zm243 0h1v49h-1zm-765 1h33v1h-33zm33 0h1v1h-1zm519 0h1v70h-1z"/><path d="M710 187h30v5h-30zm198 0h1v50h-1zm-766 1h32v2h-32zm32 0h1v1h-1zm566 0h1v1h-1zm-76 1h30v1h-30zm245 0h1v49h-1zm-767 1h31v24h-31zm31 0h1v59h-1zm492 0h29v2h-29zm-180 1h49v24h-49zm49 0h1v24h-1zm161 0h1v66h-1z"/><path d="M709 191h30v4h-30zm81 0h49v24h-49zm49 0h1v24h-1zm71 0h1v49h-1zm-245 1h30v1h-30zm74 0h1v1h-1zm-73 1h29v3h-29zm245 0h1v49h-1zm-737 1h1v57h-1zm1 1h1v57h-1zm521 0h1v62h-1zm12 0h30v3h-30zm30 0h1v1h-1zm174 0h1v49h-1zm-246 1h30v1h-30zm-490 1h1v57h-1zm491 0h29v2h-29z"/><path d="M856 197h57v1h-57zm57 0h1v49h-1zm-736 1h1v58h-1zm520 0h1v59h-1zm11 0h29v3h-29zm29 0h1v1h-1zm119 0h29v59h-29zm29 0h28v1h-28zm-218 1h30v1h-30z"/><path d="M707 199h29v6h-29zm178 0h1v58h-1zm29 0h1v49h-1zm-736 1h1v57h-1zm490 0h29v2h-29zm220 0h26v1h-26zm-709 1h1v56h-1zm557 0h1v1h-1zm179 0h1v48h-1zm-247 1h30v1h-30zm30 0h1v55h-1z"/><path d="M889 202h26v1h-26zm-709 1h1v54h-1zm489 0h29v3h-29zm37 0h29v5h-29zm184 0h26v1h-26zm26 0h1v48h-1zm-735 1h1v53h-1zm554 1h1v1h-1z"/><path d="M891 205h26v1h-26zm26 0h1v48h-1zm-735 1h1v51h-1zm487 0h30v1h-30zm30 0h1v51h-1zm6 0h29v5h-29zm213 0h31v49h-31zm-735 1h1v50h-1zm487 0h29v2h-29z"/><path d="M892 207h26v1h-26zm-158 1h1v1h-1zm-550 1h1v48h-1zm486 0h29v1h-29zm223 0h56v1h-56zm-708 1h1v47h-1zm486 0h29v3h-29zm29 0h1v47h-1zm4 0h29v5h-29zm29 1h1v1h-1zm161 0h55v1h-55zm-708 1h1v45h-1zm1 1h1v44h-1zm484 0h29v1h-29zm224 0h54v1h-54z"/><path d="M142 214h45v1h-45zm530 0h29v2h-29zm29 0h31v4h-31zm195 0h53v1h-53zm-754 1h8v1h-8zm8 0h38v1h-38zm38 0h1v42h-1zm297 0h49v1h-49zm49 0h1v1h-1zm198 0h1v1h-1zm58 0h49v1h-49zm49 0h1v1h-1zm-697 1h7v1h-7zm7 0h1v1h-1z"/><path d="M153 216h36v1h-36zm36 0h1v41h-1zm483 0h59v1h-59zm225 0h52v1h-52zm-755 1h6v1h-6zm6 0h1v1h-1zm5 0h36v1h-36zm520 0h58v3h-58zm-531 1h5v1h-5zm5 0h1v1h-1z"/><path d="M154 218h36v1h-36zm36 0h1v39h-1zm541 0h1v1h-1zm167 0h51v1h-51zm-756 1h4v1h-4zm4 0h1v1h-1z"/><path d="M155 219h36v1h-36zm36 0h1v38h-1zm-49 1h3v1h-3zm3 0h1v1h-1zm10 0h36v1h-36zm97 0h1v38h-1zm362 0h32v8h-32zm59 0h57v1h-57zm57 0h1v1h-1zm169 0h50v1h-50zm-757 1h2v2h-2zm2 0h1v1h-1z"/><path d="M156 221h36v1h-36zm36 0h1v36h-1zm28 0h32v1h-32zm63 0h32v8h-32zm300 0h1v37h-1zm91 0h56v2h-56zm56 0h1v1h-1z"/><path d="M157 222h36v1h-36zm36 0h1v35h-1zm28 0h31v6h-31zm330 0h32v1h-32zm95 0h1v1h-1zm254 0h49v1h-49zm-758 1h1v1h-1zm1 0h1v1h-1zm14 0h36v1h-36zm158 0h1v1h-1zm237 0h31v5h-31zm122 0h55v1h-55zm55 0h1v2h-1zm-587 1h1v1h-1z"/><path d="M158 224h36v1h-36zm36 0h1v33h-1zm59 0h1v34h-1zm360 0h32v8h-32zm62 0h54v3h-54zm226 0h48v1h-48z"/><path d="M158 225h37v1h-37zm37 0h1v32h-1zm87 0h32v8h-32zm302 0h1v33h-1zm145 0h1v1h-1zm173 0h47v1h-47zm-743 1h36v1h-36z"/><path d="M160 227h36v1h-36zm36 0h1v30h-1zm58 0h1v31h-1zm27 0h33v6h-33zm304 0h1v31h-1zm27 0h33v5h-33zm63 0h53v1h-53zm53 0h1v1h-1zm175 0h46v1h-46z"/><path d="M160 228h37v1h-37zm37 0h1v29h-1zm24 0h34v1h-34zm34 0h1v30h-1zm297 0h33v1h-33zm93 0h1v1h-1zm31 0h52v2h-52zm52 0h1v1h-1zm-567 1h36v1h-36zm61 0h33v3h-33zm58 0h34v4h-34zm34 0h1v1h-1zm239 0h33v3h-33zm33 0h1v29h-1zm25 0h33v6h-33zm293 0h45v1h-45z"/><path d="M161 230h37v1h-37zm37 0h1v27h-1zm58 0h1v28h-1zm23 0h34v6h-34zm308 0h1v28h-1zm23 0h34v5h-34zm66 0h51v1h-51zm51 0h1v1h-1z"/><path d="M162 231h37v1h-37zm37 0h1v26h-1zm58 0h1v28h-1zm1 0h1v28h-1zm20 0h35v5h-35zm119 0h45v26h-45zm45 0h1v26h-1zm43 0h56v26h-56zm56 0h1v26h-1zm47 0h1v28h-1zm1 0h1v28h-1zm19 0h36v4h-36zm69 0h50v3h-50zm50 0h1v1h-1zm63 0h55v26h-55zm55 0h1v26h-1zm60 0h44v1h-44zm-742 1h36v1h-36z"/><path d="M222 232h38v1h-38zm38 0h1v27h-1zm16 0h37v4h-37zm277 0h37v1h-37zm37 0h1v27h-1zm17 0h37v3h-37zm37 0h1v1h-1zm-481 1h37v1h-37zm37 0h1v24h-1z"/><path d="M223 233h40v2h-40zm40 0h1v26h-1zm9 0h41v3h-41zm41 0h1v1h-1zm241 0h40v2h-40zm40 0h1v26h-1zm9 0h40v5h-40zm303 0h43v1h-43zm-742 1h37v1h-37zm37 0h1v23h-1z"/><path d="M264 234h48v4h-48zm331 0h48v4h-48zm82 0h49v1h-49zm49 0h1v1h-1zm-561 1h36v1h-36z"/><path d="M223 235h89v1h-89zm331 0h89v1h-89zm89 0h1v1h-1zm35 0h48v2h-48zm48 0h1v1h-1zm181 0h42v1h-42zm-742 1h37v1h-37zm37 0h1v21h-1zm22 0h88v1h-88zm88 0h1v1h-1zm243 0h87v2h-87z"/><path d="M166 237h37v1h-37zm37 0h1v20h-1zm21 0h87v1h-87zm454 0h47v1h-47zm47 0h1v1h-1zm183 0h41v1h-41zm-742 1h37v1h-37zm59 0h86v1h-86zm86 0h1v1h-1zm244 0h87v1h-87zm87 0h1v1h-1zm37 0h46v3h-46zm46 0h1v1h-1zm184 0h40v1h-40z"/><path d="M167 239h37v1h-37zm37 0h1v18h-1zm21 0h85v1h-85zm85 0h1v1h-1zm246 0h85v1h-85zm85 0h1v1h-1z"/><path d="M168 240h37v1h-37zm37 0h1v17h-1zm21 0h84v1h-84zm84 0h1v1h-1zm247 0h84v1h-84zm84 0h1v1h-1zm269 0h39v1h-39zm-742 1h37v1h-37zm58 0h83v1h-83zm83 0h1v1h-1zm248 0h83v1h-83zm83 0h1v1h-1zm39 0h45v1h-45zm45 0h1v1h-1z"/><path d="M169 242h37v1h-37zm37 0h1v15h-1zm21 0h82v1h-82zm82 0h1v1h-1zm249 0h81v1h-81zm81 0h1v1h-1zm41 0h43v2h-43zm43 0h1v3h-1zm188 0h38v1h-38z"/><path d="M169 243h38v1h-38zm38 0h1v14h-1zm20 0h81v1h-81zm81 0h1v1h-1zm250 0h81v1h-81zm81 0h1v1h-1zm-469 1h37v1h-37zm58 0h79v1h-79zm79 0h1v1h-1zm252 0h79v1h-79zm79 0h1v1h-1zm42 0h43v1h-43zm232 0h37v1h-37z"/><path d="M171 245h37v1h-37zm37 0h1v12h-1zm21 0h77v1h-77zm77 0h1v1h-1zm254 0h77v1h-77zm77 0h1v1h-1zm44 0h42v2h-42zm42 0h1v1h-1z"/><path d="M171 246h38v1h-38zm38 0h1v11h-1zm21 0h76v1h-76zm76 0h1v1h-1zm255 0h75v1h-75zm75 0h1v1h-1zm277 0h36v1h-36z"/><path d="M172 247h38v1h-38zm38 0h1v10h-1zm21 0h74v1h-74zm74 0h1v1h-1zm257 0h73v1h-73zm73 0h1v1h-1zm46 0h41v1h-41zm41 0h1v1h-1zm-550 1h38v1h-38zm60 0h72v1h-72zm72 0h1v1h-1zm258 0h73v1h-73zm73 0h1v1h-1zm47 0h40v3h-40zm40 0h1v1h-1zm192 0h35v1h-35z"/><path d="M173 249h38v1h-38zm38 0h1v8h-1zm22 0h70v1h-70zm70 0h1v1h-1zm261 0h70v1h-70zm70 0h1v1h-1zm281 0h34v1h-34zm-703 1h1v7h-1zm22 0h67v1h-67zm67 0h1v1h-1zm264 0h67v1h-67zm67 0h1v1h-1z"/><path d="M174 251h38v1h-38zm61 0h65v1h-65zm65 0h1v1h-1zm266 0h65v1h-65zm65 0h1v1h-1zm51 0h39v1h-39zm39 0h1v1h-1zm195 0h33v1h-33zm-741 1h38v1h-38zm38 0h1v5h-1zm24 0h62v1h-62zm62 0h1v1h-1zm268 0h63v1h-63zm63 0h1v1h-1zm53 0h37v2h-37zm37 0h1v2h-1zm-506 1h1v4h-1zm24 0h59v1h-59zm59 0h1v1h-1zm272 0h59v1h-59zm59 0h1v1h-1zm289 0h32v1h-32z"/><path d="M176 254h38v1h-38zm64 0h55v1h-55zm55 0h1v1h-1zm276 0h55v1h-55zm55 0h1v1h-1zm57 0h37v1h-37zm37 0h1v1h-1zm-505 1h1v2h-1zm27 0h51v1h-51zm51 0h1v1h-1zm280 0h51v1h-51zm51 0h1v1h-1zm77 0h18v2h-18zm18 0h1v2h-1zm199 0h31v1h-31z"/><path d="M177 256h39v1h-39zm39 0h1v1h-1zm29 0h46v1h-46zm46 0h1v1h-1zm284 0h47v1h-47zm47 0h1v1h-1zm297 0h30v1h-30zm-809 1h31v1h-31zm31 0h1v1h-1zm37 0h38v1h-38zm38 0h1v1h-1zm31 0h41v1h-41zm41 0h1v1h-1zm77 0h77v1h-77zm77 0h1v1h-1zm12 0h87v1h-87zm87 0h1v1h-1zm37 0h41v1h-41zm41 0h1v1h-1zm65 0h35v1h-35zm35 0h1v1h-1zm40 0h86v1h-86zm86 0h1v1h-1zm11 0h29v1h-29zm29 0h1v1h-1zm34 0h30v1h-30zm30 0h1v1h-1zm-698 1h33v1h-33zm33 0h1v1h-1zm298 0h33v1h-33zm33 0h1v1h-1zm-358 1h22v1h-22zm22 0h1v1h-1zm309 0h21v1h-21zm21 0h1v1h-1z"/></g><path d="M211 149h1v1h-1zm372 0h1v59h-1zm102 0h1v1h-1zm-145 27h1v1h-1zm43 32h1v1h-1zm311 5h1v1h-1zm-344 6h1v1h-1zm-345 19h1v1h-1zm2 3h1v1h-1z" fill="#47759f"/><path d="M316 149h1v66h-1zm579 12h1v1h-1zm10 19h1v1h-1zm-209 12h1v1h-1zm11 4h1v1h-1zm-391 19h1v1h-1zm-124 4h1v1h-1zm28 7h1v1h-1zm690 16h1v1h-1z" fill="#8ca9c3"/><path d="M719 150h1v1h-1zm179 17h1v1h-1zm10 19h1v1h-1zm-171 14h1v1h-1zm181 5h1v1h-1zm-651 28h1v1h-1zm411 6h1v1h-1zm43 14h1v1h-1zm-109 6h1v1h-1zm-12 1h1v1h-1z" fill="#b4c7d8"/><path d="M164 158h1v1h-1zm23 54h1v1h-1zm492 30h1v1h-1z" fill="#d7e1ea"/><path d="M157 166h1v1h-1zm555 9h1v1h-1zm-19 4h1v1h-1zm193 21h1v57h-1zm-274 24h1v1h-1zm-70 7h1v26h-1zm64 0h1v1h-1zm35 11h1v1h-1zm-472 3h1v1h-1zm373 12h1v1h-1zm344 0h1v1h-1z" fill="#245b8d"/><path d="M717 157h1v1h-1zm-537 44h1v1h-1zm403 15h1v1h-1zm-360 21h1v1h-1zm417 6h1v1h-1zm-48 17h1v1h-1z" fill="#81a1bd"/><path d="M713 174h1v1h-1zm-53 2h1v1h-1zm15 52h1v1h-1zm-470 11h1v1h-1zm87 17h1v1h-1zm-42 2h1v1h-1z" fill="#e0e8ef"/><path d="M790 177h1v12h-1zm-81 11h1v1h-1zm81 1h1v1h-1zm-176 25h1v1h-1zm-298 3h1v1h-1zm474 0h1v12h-1zm0 12h1v1h-1z" fill="#7d9ebb"/><path d="M252 210h1v1h-1zm362 3h1v1h-1zm-171 17h1v1h-1zm130 26h1v1h-1z" fill="#7094b4"/><path d="M160 163h1v1h-1zm424 60h1v1h-1z" fill="#c1d1df"/><path d="M169 151h1v1h-1zm17 59h1v1h-1zm130 6h1v1h-1zm253 38h1v1h-1z" fill="#86a4c0"/><path d="M162 160h1v1h-1zm584 11h1v1h-1zm-36 13h1v1h-1zm-126 38h1v1h-1zm146 2h1v1h-1zm-56 2h1v1h-1zm-38 22h1v1h-1zm-74 1h1v1h-1z" fill="#7698b8"/><path d="M201 160h1v1h-1zm497 39h1v1h-1zm-415 16h1v1h-1zm629 31h1v1h-1zm-230 8h1v1h-1z" fill="#6189ad"/><path d="M732 217h1v1h-1zm-55 19h1v1h-1z" fill="#92adc6"/><path d="M283 149h1v59h-1zm427 34h1v1h-1zm-529 19h1v1h-1zm102 6h1v1h-1zm-20 24h1v1h-1zm-89 21h1v1h-1z" fill="#346795"/><path d="M210 150h1v1h-1zm444 7h1v1h-1zm33 0h1v1h-1zm26 15h1v1h-1zm-109 60h1v1h-1zm-44 15h1v1h-1zm74 3h1v1h-1z" fill="#5f87ac"/><path d="M653 153h1v1h-1zm-469 54h1v1h-1z" fill="#85a4bf"/><path d="M206 155h1v1h-1zm485 16h1v1h-1zm149 19h1v1h-1zm51 18h1v1h-1zm-305 18h1v1h-1zm-378 16h1v1h-1zm2 3h1v1h-1zm510 13h1v1h-1z" fill="#104c82"/><path d="M702 213h1v1h-1zm-91 13h1v1h-1zm-434 32h1v1h-1zm41 0h1v1h-1z" fill="#134e84"/><path d="M171 148h1v1h-1zm518 16h1v1h-1zm-506 41h1v1h-1zm2 3h1v1h-1zm180 50h77v1h-77zm77 0h1v1h-1zm12 0h87v1h-87zm87 0h1v1h-1zm218 0h86v1h-86zm86 0h1v1h-1z" fill="#356896"/><path d="M283 148h1v1h-1zm-59 92h1v1h-1zm364 20h1v1h-1z" fill="#235a8c"/><path d="M166 154h1v1h-1zm32 10h1v1h-1zm-42 3h1v1h-1zm552 23h1v1h-1zm-526 13h1v1h-1zm2 3h1v1h-1zm2 3h1v1h-1zm2 3h1v1h-1zm2 3h1v1h-1zm650 1h1v1h-1zm-163 22h1v1h-1zm234 7h1v1h-1zm-324 15h1v1h-1z" fill="#08467e"/><path d="M204 156h1v1h-1zm-7 71h1v1h-1zm2 3h1v1h-1zm114 4h1v1h-1zm-85 11h1v1h-1zm337 6h1v1h-1z" fill="#dee6ee"/><path d="M896 163h1v1h-1zm-644 52h1v1h-1zm-44 28h1v1h-1z" fill="#9ab3ca"/><path d="M888 148h1v1h-1zm15 28h1v1h-1zm-160 5h1v1h-1zm170 14h1v1h-1zm-237 38h1v1h-1zm51 1h1v1h-1z" fill="#7195b5"/><path d="M686 152h1v1h-1zm61 17h1v1h-1zm168 29h1v1h-1zm-18 21h1v1h-1zm-347 3h1v1h-1zm181 0h1v1h-1zm-567 15h1v1h-1zm401 15h1v1h-1zm-423 6h1v1h-1zm222 0h1v1h-1z" fill="#144f84"/><path d="M168 153h1v1h-1zm26 14h1v1h-1zm499 15h1v1h-1zm48 4h1v1h-1zm-72 21h1v1h-1zm223 1h1v1h-1zm-727 29h1v1h-1zm560 2h1v1h-1zm-499 3h1v1h-1zm355 16h1v1h-1z" fill="#ecf1f5"/><path d="M686 155h1v1h-1zm-493 66h1v1h-1zm375 32h1v1h-1z" fill="#d9e3eb"/><path d="M164 157h1v1h-1zm495 18h1v1h-1zm74 40h1v1h-1zm-480 5h1v1h-1zm329 39h1v1h-1z" fill="#2d6291"/><path d="M749 160h1v1h-1zm-59 10h1v1h-1zm43 43h1v1h-1zm-513 11h1v1h-1zm419 20h1v1h-1z" fill="#c8d6e2"/><path d="M656 164h1v1h-1zm36 12h1v1h-1zm13 27h1v1h-1zm-122 10h1v1h-1z" fill="#5a83a9"/><path d="M696 190h1v1h-1zm42 9h1v1h-1zm-542 25h1v1h-1zm2 3h1v1h-1zm448 2h1v1h-1zm-446 1h1v1h-1zm352 3h1v1h-1zm93 0h1v1h-1zm-411 19h1v1h-1zm488 0h1v1h-1zm195 4h1v1h-1z" fill="#0c4980"/><path d="M790 216h1v1h-1zm-629 15h1v1h-1z" fill="#b2c5d7"/><path d="M36 39h1v328h-1zm0 328h1v1h-1z" fill="#42a2d4"/><path d="M719 149h1v1h-1zm-25 35h1v1h-1zm-387 62h1v1h-1z" fill="#7396b6"/><path d="M890 152h1v1h-1zm10 19h1v1h-1zm10 19h1v1h-1zm-171 3h1v1h-1zm-560 7h1v1h-1zm417 33h1v1h-1zm127 13h1v1h-1z" fill="#d1dde7"/><path d="M316 219h1v1h-1zm328 16h1v1h-1zm34 5h1v1h-1zm-87 20h1v1h-1z" fill="#6b90b2"/><path d="M758 149h1v108h-1zm-40 6h1v1h-1zm32 1h1v1h-1zm-585 1h1v1h-1zm37 1h1v1h-1zm461 28h1v1h-1zm228 20h1v1h-1zm-157 3h1v1h-1zm-120 10h1v1h-1zm-5 11h1v1h-1zm34 6h1v1h-1zm35 2h1v1h-1zm80 19h1v1h-1z" fill="#f5f8fa"/><path d="M156 168h1v1h-1zm490 58h1v1h-1zm-341 22h1v1h-1zm-91 4h1v1h-1zm83 2h1v1h-1z" fill="#9fb7cd"/><path d="M658 170h1v1h-1zm232 35h1v1h-1zm-279 22h1v1h-1z" fill="#9eb6cc"/><path fill="#4d7aa2" d="M219 216h1v1h-1z"/><path fill="#3d9bcd" d="M1023 38h1v1h-1z"/><path d="M110 148h31v1h-31zm31 0h1v1h-1zm31 0h38v1h-38zm38 0h1v1h-1zm443 0h31v1h-31zm31 0h1v1h-1zm36 0h32v1h-32zm32 0h1v1h-1zm104 0h31v1h-31zm31 0h1v1h-1zm33 0h29v1h-29zm29 0h1v1h-1zm-463 28h53v1h-53zm53 0h1v1h-1zm252 0h53v1h-53zm53 0h1v1h-1zm47 31h1v1h-1zm-703 6h1v1h-1zm426 2h1v1h-1zm-356 15h1v1h-1zm-37 1h1v1h-1zm82 19h1v1h-1zm378 0h1v1h-1zm-394 8h1v1h-1z" fill="#88a6c1"/><path d="M171 149h1v1h-1zm731 26h1v1h-1zm-716 1h1v1h-1zm-9 10h1v1h-1zm735 8h1v1h-1zm-239 27h1v1h-1zm-453 2h1v1h-1zm33 0h1v1h-1zm145 7h44v1h-44zm44 0h1v1h-1zm44 0h55v1h-55zm55 0h1v1h-1zm250 0h54v1h-54zm54 0h1v1h-1zm-622 6h1v1h-1zm-55 6h1v1h-1zm39 0h1v1h-1zm2 3h1v1h-1zm423 6h1v1h-1z" fill="#e4ebf1"/><path d="M453 149h1v108h-1zm-271 55h1v1h-1zm403 21h1v1h-1zm-132 32h1v1h-1zm230 0h1v1h-1z" fill="#83a2be"/><path d="M614 148h1v1h-1zm39 6h1v1h-1zm89 31h1v1h-1zm-47 2h1v1h-1zm-506 27h1v1h-1zm2 3h1v1h-1zm28 1h1v1h-1zm428 2h1v1h-1zm-1 8h1v1h-1zm80 10h1v1h-1zm-104 19h1v1h-1zm-14 3h1v1h-1z" fill="#3c6d99"/><path d="M753 149h1v1h-1zm-603 26h1v1h-1zm587 27h1v1h-1zm-518 19h1v1h-1zm366 3h1v1h-1zm95 24h1v1h-1zm41 7h1v1h-1zm-477 2h1v1h-1z" fill="#1c5589"/><path d="M162 161h1v1h-1zm581 18h1v1h-1zm-567 17h1v1h-1zm2 3h1v1h-1zm2 3h1v1h-1zm710 2h1v1h-1zm-708 1h1v1h-1zm2 3h1v1h-1zm488 9h1v1h-1zm-452 5h1v1h-1zm683 6h1v1h-1zm-626 3h1v1h-1zm450 1h1v1h-1zm-463 1h1v1h-1zm-97 7h1v1h-1zm140 5h1v1h-1zm-76 3h1v1h-1zm1 1h1v1h-1zm24 10h1v1h-1z" fill="#fbfcfd"/><path d="M743 182h1v1h-1zm-16 53h1v1h-1zm-431 20h1v1h-1zm-45 4h1v1h-1zm358 1h1v1h-1z" fill="#255c8d"/><path d="M196 225h1v1h-1zm29 16h1v1h-1zm57 18h1v1h-1z" fill="#8fabc5"/><path d="M553 235h1v1h-1zm365 22h1v1h-1z" fill="#6a8fb1"/><path d="M663 189h1v1h-1zm77 3h1v1h-1zm156 25h1v1h-1zm-618 12h1v1h-1zm400 12h1v1h-1zm46 4h1v1h-1z" fill="#21598b"/><path d="M950 149h1v108h-1zm-783 5h1v1h-1zm569 49h1v1h-1zm-135 30h1v1h-1zm306 3h1v1h-1zm-673 15h1v1h-1zm486 5h1v1h-1zm230 1h1v1h-1z" fill="#ccd9e4"/><path d="M151 175h1v1h-1zm-9 11h1v1h-1zm561 27h1v1h-1zm-218 3h1v1h-1zm-328 8h1v1h-1zm82 30h1v1h-1z" fill="#eaeff4"/><path d="M187 176h1v1h-1zm-9 10h1v1h-1zm526 20h1v1h-1zm-543 26h1v1h-1zm96 28h1v1h-1z" fill="#1e568a"/><path d="M143 185h1v1h-1zm567 0h1v1h-1z" fill="#b7c9d9"/><path d="M316 148h1v1h-1zm431 20h1v1h-1zm-133 41h1v1h-1zm117 12h1v1h-1zm-420 19h1v1h-1zm-80 9h1v1h-1zm383 10h1v1h-1z" fill="#5e86ab"/><path d="M365 148h31v1h-31zm31 0h1v1h-1zm58 0h85v1h-85zm85 0h1v1h-1zm220 0h85v1h-85zm85 0h1v1h-1zm-153 25h1v1h-1zm-542 4h1v1h-1zm748 41h1v1h-1zm-699 10h1v1h-1zm-31 13h1v1h-1zm139 6h1v1h-1zm320 8h1v1h-1zm-5 2h1v1h-1z" fill="#91adc6"/><path d="M169 150h1v1h-1zm722 2h1v1h-1zm-683 1h1v1h-1zm447 9h1v1h-1zm246 9h1v1h-1zm-207 11h1v1h-1zm217 8h1v1h-1zm-172 6h1v1h-1zm154 16h1v1h-1zm-223 2h1v1h-1zm-416 9h1v1h-1zm-111 2h1v1h-1zm77 4h1v1h-1zm-55 10h1v1h-1zm146 2h1v1h-1zm246 3h1v1h-1zm355 3h1v1h-1zm-607 2h1v1h-1zm418 0h1v1h-1zm-550 3h1v1h-1zm127 1h1v1h-1zm320 5h1v1h-1zm-39 1h1v1h-1z" fill="#02417b"/><path fill="#5c85aa" d="M176 256h1v1h-1z"/><path d="M37 368h986v1H37zm986 0h1v1h-1z" fill="#004478"/><path d="M654 155h1v1h-1zm257 88h1v1h-1zm-339 12h1v1h-1z" fill="#edf2f6"/><path d="M896 162h1v1h-1zm-700 4h1v1h-1zm710 15h1v1h-1zm-241 15h1v1h-1zm251 4h1v1h-1zm-763 19h1v1h-1zm163 4h1v1h-1zm-83 28h1v1h-1z" fill="#1d5689"/><path d="M691 174h1v1h-1zm-504 1h1v1h-1zm-40 5h1v1h-1zm467 38h1v1h-1zm-353 14h1v1h-1z" fill="#d4dfe9"/><path d="M750 158h1v1h-1zm-558 12h1v1h-1zm720 23h1v1h-1zm-245 9h1v1h-1z" fill="#638aae"/><path d="M194 168h1v1h-1zm515 19h1v1h-1zm-41 19h1v1h-1zm-385 5h1v1h-1zm-128 11h1v1h-1zm66 10h1v1h-1zm421 8h1v1h-1zm-53 20h1v1h-1z" fill="#3b6c99"/><path d="M658 171h1v1h-1zm-483 18h1v1h-1zm522 6h1v1h-1zm-381 26h1v1h-1zm292 9h1v1h-1zm-360 28h1v1h-1zm4 1h1v1h-1z" fill="#5580a6"/><path fill="#eef2f6" d="M711 182h1v1h-1z"/><path d="M919 149h1v56h-1zm-206 22h1v1h-1zm206 34h1v1h-1zm-29 1h1v1h-1zm-332 39h1v1h-1zm-105 13h1v1h-1z" fill="#1b5488"/><path d="M158 166h1v1h-1zm586 10h1v1h-1zm-559 1h1v1h-1zm713 42h1v1h-1zm-170 10h1v1h-1zm-430 24h1v1h-1z" fill="#f0f4f7"/><path d="M713 173h1v1h-1zm-162 53h1v1h-1z" fill="#a0b8cd"/><path d="M855 149h1v108h-1zm34 1h1v1h-1zm-403 40h48v1h-48zm48 0h1v1h-1zm257 0h48v1h-48zm48 0h1v1h-1zm-167 28h1v1h-1zm229 7h1v1h-1zm-586 1h1v1h-1zm540 31h1v1h-1zm-569 1h1v1h-1z" fill="#c4d3e0"/><path d="M718 151h1v1h-1zm174 3h1v1h-1zm-733 9h1v1h-1zm743 10h1v1h-1zm-721 10h1v1h-1zm528 3h1v1h-1zm33 0h1v1h-1zm-568 5h1v1h-1zm738 1h1v1h-1zm-246 8h1v1h-1zm34 5h1v1h-1zm-546 16h1v1h-1zm162 3h1v1h-1zm-36 2h1v1h-1zm315 6h1v1h-1zm-283 7h1v1h-1zm369 13h1v1h-1z" fill="#04437c"/><path d="M698 198h1v1h-1zm-156 32h1v1h-1zm14 12h1v1h-1zm83 3h1v1h-1z" fill="#20588b"/><path fill="#b5c8d8" d="M169 244h1v1h-1z"/><path d="M212 148h1v1h-1zm-63 28h1v1h-1zm596 0h1v1h-1zm-569 18h1v1h-1zm553 35h1v1h-1zm-414 1h1v1h-1zm590 4h1v1h-1zm-683 2h1v1h-1zm418 8h1v1h-1zm-403 10h1v1h-1zm681 4h1v1h-1z" fill="#05447d"/><path d="M583 148h1v1h-1zm-429 22h1v1h-1zm741 45h1v1h-1zm-248 6h1v1h-1z" fill="#2f6393"/><path d="M193 169h1v1h-1zm-48 53h1v1h-1zm15 8h1v1h-1zm392 2h1v1h-1zm93 0h1v1h-1zm-428 24h1v1h-1zm373 4h1v1h-1z" fill="#517da4"/><path fill="#2a5f90" d="M219 220h1v1h-1z"/><path d="M655 159h1v1h-1zm46 53h1v1h-1zm-553 6h1v1h-1z" fill="#cad7e3"/><path d="M894 160h1v1h-1zm-147 6h1v1h-1zm157 13h1v1h-1zm-750 40h1v1h-1zm577 0h1v1h-1zm-449 5h1v1h-1zm-61 5h1v1h-1zm395 29h1v1h-1z" fill="#f3f6f9"/><path d="M146 221h1v1h-1zm131 9h1v1h-1z" fill="#3a6b98"/><path d="M919 148h1v1h-1zm-25 10h1v1h-1zm-236 14h1v1h-1zm246 5h1v1h-1zm-163 12h1v1h-1zm173 7h1v1h-1zm-241 28h1v1h-1zm52 18h1v1h-1zm-550 13h1v1h-1zm395 0h1v1h-1zm-461 3h1v1h-1zm170 2h1v1h-1z" fill="#0e4a81"/><path d="M891 153h1v1h-1zm-177 15h1v1h-1zm-67 49h1v1h-1zm-479 26h1v1h-1z" fill="#5781a7"/><path d="M656 165h1v1h-1zm-513 19h1v1h-1zm563 14h1v1h-1zm-59 24h1v1h-1zm-491 2h1v1h-1zm153 20h1v1h-1zm-93 10h1v1h-1zm2 3h1v1h-1z" fill="#124d83"/><path d="M311 239h1v1h-1zm-70 16h1v1h-1z" fill="#e2e9f0"/><path d="M220 148h31v1h-31zm31 0h1v1h-1zm33 0h31v1h-31zm31 0h1v1h-1zm236 0h31v1h-31zm31 0h1v1h-1zm33 0h31v1h-31zm31 0h1v1h-1zm47 33h1v1h-1zm10 31h1v1h-1zm-435 21h1v1h-1zm414 20h1v1h-1zm-102 5h1v1h-1zm-315 2h1v1h-1zm5 0h1v1h-1zm326 0h1v1h-1zm5 0h1v1h-1z" fill="#aabfd3"/><path d="M752 149h1v1h-1zm-543 1h1v1h-1zm444 1h1v1h-1zm-453 9h1v1h-1zm-41 5h1v1h-1zm738 1h1v1h-1zm-182 1h1v1h-1zm-524 3h1v1h-1zm500 5h1v1h-1zm216 10h1v1h-1zm-211 9h1v1h-1zm10 8h1v1h-1zm30 0h1v1h-1zm-68 1h1v1h-1zm249 1h1v1h-1zm-665 15h1v1h-1zm331 1h1v1h-1zm-427 2h1v1h-1zm746 4h1v1h-1zm-316 2h1v1h-1zm25 0h1v1h-1zm-355 1h1v1h-1zm1 1h1v1h-1zm-57 2h1v1h-1zm391 0h1v1h-1zm-427 3h1v1h-1zm38 0h1v1h-1zm2 3h1v1h-1zm352 2h1v1h-1zm-350 1h1v1h-1zm2 3h1v1h-1zm428 3h1v1h-1zm45 1h1v1h-1zm-118 1h1v1h-1zm-261 1h1v1h-1zm613 0h1v1h-1zm-232 5h1v1h-1zm37 0h1v1h-1zm-476 1h1v1h-1zm366 3h1v1h-1z" fill="#fefefe"/><path d="M890 151h1v1h-1zm-688 8h1v1h-1zm698 11h1v1h-1zm-204 21h1v1h-1zm-413 22h1v1h-1zm330 8h1v1h-1zm64 16h1v1h-1zm-466 10h1v1h-1z" fill="#4977a0"/><path d="M741 187h1v1h-1zm-70 28h1v1h-1zm54 25h1v1h-1zm-421 9h1v1h-1zm-88 6h1v1h-1z" fill="#a1b9ce"/><path d="M219 149h1v65h-1zm522 39h1v1h-1zm146 12h1v1h-1zm-668 14h1v1h-1zm506 27h1v1h-1zm-162 9h1v1h-1z" fill="#547fa6"/><path d="M893 156h1v1h-1zm-203 11h1v1h-1zm213 8h1v1h-1zm-241 11h1v1h-1zm251 8h1v1h-1zm-212 15h1v1h-1zm-550 7h1v1h-1zm41 2h1v1h-1zm392 2h1v1h-1zm-390 1h1v1h-1zm704 0h1v1h-1zm-617 3h1v1h-1zm329 36h1v1h-1z" fill="#09477f"/><path d="M204 157h1v1h-1zm713 45h1v1h-1zm-214 8h1v1h-1zm199 18h1v1h-1zm-226 6h1v1h-1zm179 24h1v1h-1z" fill="#275d8e"/><path d="M711 179h1v1h-1zm-37 48h1v1h-1zm-80 5h1v1h-1zm-281 4h1v1h-1z" fill="#2c6191"/><path d="M540 149h1v26h-1zm0 26h1v1h-1zm-5 16h1v24h-1zm166 20h1v1h-1zm-166 4h1v1h-1zm78 7h1v1h-1zm-29 37h1v1h-1zm-310 1h1v1h-1z" fill="#87a5c0"/><path d="M207 154h1v1h-1zm541 12h1v1h-1zm-16 53h1v1h-1zm-468 13h1v1h-1zm-94 15h1v1h-1zm69 8h1v1h-1zm303 3h1v1h-1zm344 0h1v1h-1z" fill="#07457e"/><path d="M710 186h1v1h-1zm-45 7h1v1h-1zm34 12h1v1h-1zm-416 15h1v1h-1zm329 6h1v1h-1zm-58 10h1v1h-1zm126 9h1v1h-1zm-379 6h1v1h-1zm269 3h1v1h-1zm55 1h1v1h-1z" fill="#f2f5f8"/><path d="M664 192h1v1h-1zm-445 25h1v1h-1zm513 1h1v1h-1zm-85 1h1v1h-1zm-387 12h1v1h-1zm-59 1h1v1h-1zm-30 16h1v1h-1z" fill="#45749e"/><path d="M697 197h1v1h-1zm-51 27h1v1h-1zm260 10h1v1h-1zm-229 1h1v1h-1z" fill="#dbe4ec"/><path d="M653 152h1v1h-1zm43 41h1v1h-1zm-521 1h1v1h-1zm438 29h1v1h-1zm-303 18h1v1h-1zm603 6h1v1h-1zm-339 9h1v1h-1z" fill="#cfdbe6"/><path d="M686 153h1v1h-1zm-502 26h1v1h-1zm35 36h1v1h-1zm454 8h1v1h-1zm-451 12h1v1h-1zm90 3h1v1h-1zm318 15h1v1h-1zm-23 7h1v1h-1z" fill="#537ea5"/><path d="M717 158h1v1h-1zm182 11h1v1h-1zm-153 1h1v1h-1zm-596 6h1v1h-1zm759 12h1v1h-1zm-179 35h1v1h-1zm-509 7h1v1h-1z" fill="#c3d2e0"/><path d="M185 178h1v1h-1zm703 24h1v1h-1zm-605 10h1v1h-1zm-90 8h1v1h-1zm358 8h1v1h-1zm-388 7h1v1h-1zm69 15h1v1h-1z" fill="#3d6e9a"/><path d="M177 197h1v1h-1zm106 22h1v1h-1zm-128 2h1v1h-1z" fill="#d0dce6"/><path fill="#51b8e7" d="M36 38h1v1h-1z"/><path d="M748 164h1v1h-1zm-86 20h1v1h-1zm44 16h1v1h-1zm-391 27h1v1h-1zm-115 4h1v1h-1z" fill="#93aec7"/><path d="M657 167h1v1h-1zm-466 4h1v1h-1zm-39 2h1v1h-1zm22 19h1v1h-1zm88 40h1v1h-1z" fill="#7c9dbb"/><path d="M551 225h1v1h-1zm123 0h1v1h-1zm-516 1h1v1h-1zm439 7h1v1h-1z" fill="#bfcfde"/><path fill="#82a1be" d="M605 260h1v1h-1z"/><path fill="#246d9e" d="M36 368h1v1h-1z"/><path d="M1023 2h1v35h-1zm0 35h1v1h-1z" fill="#54bcea"/><path d="M891 154h1v1h-1zm-177 16h1v1h-1zm187 3h1v1h-1zm-723 12h1v1h-1zm733 7h1v1h-1zm-630 34h1v1h-1z" fill="#dae3ec"/><path d="M688 162h1v1h-1zm-535 10h1v1h-1zm558 9h1v1h-1zm23 29h1v1h-1zm168 17h1v1h-1zm-222 19h1v1h-1z" fill="#afc3d5"/><path d="M690 168h1v1h-1zm-539 6h1v1h-1zm594 1h1v1h-1zm-16 53h1v1h-1zm-162 25h1v1h-1z" fill="#41719c"/><path d="M154 171h1v1h-1zm551 34h1v1h-1zm188 5h1v1h-1zm-741 6h1v1h-1zm-5 3h1v1h-1zm48 5h1v1h-1z" fill="#dde6ed"/><path d="M901 172h1v1h-1zm-753 6h1v1h-1zm763 13h1v1h-1zm-628 23h1v1h-1z" fill="#5680a7"/><path d="M704 207h1v1h-1zm-90 4h1v1h-1zm120 0h1v1h-1zm-418 9h1v1h-1zm-159 5h1v1h-1zm158 3h1v1h-1zm-73 28h1v1h-1z" fill="#6289ad"/><path d="M614 210h1v1h-1zm-64 6h1v1h-1zm97 0h1v1h-1zm-365 6h1v1h-1z" fill="#6088ac"/><path d="M716 163h1v1h-1zm180 1h1v1h-1zm-239 1h1v1h-1zm-465 4h1v1h-1zm554 0h1v1h-1zm-56 2h1v1h-1zm-538 3h1v1h-1zm31 5h1v1h-1zm723 4h1v1h-1zm10 19h1v1h-1zm-730 9h1v1h-1zm515 2h1v1h-1zm29 9h1v1h-1zm-415 2h1v1h-1zm-61 2h1v1h-1zm231 4h1v1h-1zm121 2h1v1h-1zm-46 14h1v1h-1zm-385 7h1v1h-1z" fill="#fcfdfd"/><path d="M748 163h1v1h-1zm-56 15h1v1h-1zm98 12h1v1h-1zm-58 26h1v1h-1zm-424 28h1v1h-1zm604 1h1v1h-1z" fill="#e1e9ef"/><path d="M715 165h1v1h-1zm-402 70h1v1h-1z" fill="#90acc5"/><path d="M142 185h1v1h-1zm523 10h1v1h-1zm-179 21h48v1h-48zm48 0h1v1h-1zm257 0h48v1h-48zm48 0h1v1h-1zm-674 22h1v1h-1zm472 9h1v1h-1z" fill="#688eb0"/><path d="M694 186h1v1h-1zm-84 43h1v1h-1zm294 1h1v1h-1zm-742 2h1v1h-1zm402 18h1v1h-1zm63 4h1v1h-1z" fill="#f4f7f9"/><path d="M540 148h1v1h-1zm43 63h1v1h-1zm-24 35h1v1h-1z" fill="#4c79a2"/><path d="M950 148h1v1h-1zm-698 1h1v59h-1zm-69 31h1v1h-1zm480 8h1v1h-1zm-411 20h1v1h-1zm-108 15h1v1h-1zm502 4h1v1h-1zm-40 33h1v1h-1z" fill="#6d92b3"/><path d="M167 153h1v1h-1zm520 3h1v1h-1zm222 85h1v1h-1z" fill="#1f578a"/><path d="M200 161h1v1h-1zm489 4h1v1h-1zm-409 62h1v1h-1z" fill="#789ab9"/><path d="M715 163h1v1h-1zm-488 82h1v1h-1zm398 11h1v1h-1z" fill="#0f4b82"/><path d="M254 225h1v1h-1zm387 16h1v1h-1zm-370 19h1v1h-1z" fill="#a9bfd2"/><path d="M676 232h1v1h-1zm-407 1h1v1h-1zm12 26h1v1h-1z" fill="#bacbdb"/><path d="M364 148h1v1h-1zm-161 10h1v1h-1zm80 52h1v1h-1zm25 35h1v1h-1z" fill="#396b98"/><path d="M652 151h1v1h-1zm40 24h1v1h-1zm-25 28h1v1h-1zm236 27h1v1h-1zm-680 8h1v1h-1zm75 16h1v1h-1z" fill="#195387"/><path d="M751 154h1v1h-1zm-37 15h1v1h-1zm-524 3h1v1h-1zm470 5h1v1h-1zm37 19h1v1h-1zm-547 20h1v1h-1zm493 21h1v1h-1zm-437 3h1v1h-1zm398 20h1v1h-1z" fill="#98b2c9"/><path d="M189 173h1v1h-1zm476 21h1v1h-1zm34 10h1v1h-1zm-85 13h1v1h-1zm-16 16h1v1h-1zm-13 26h1v1h-1z" fill="#b1c5d6"/><path d="M694 185h1v1h-1zm-31 2h1v1h-1zm-394 73h1v1h-1z" fill="#b6c8d9"/><path d="M893 157h1v1h-1zm-232 24h1v1h-1zm231 28h1v1h-1zm-640 2h1v1h-1z" fill="#7295b5"/><path d="M698 201h1v1h-1zm-27 13h1v1h-1zm-393 16h1v1h-1zm627 2h1v1h-1z" fill="#e8eef3"/><path d="M900 224h1v1h-1zm-598 27h1v1h-1zm-87 2h1v1h-1z" fill="#507ca4"/><path d="M550 149h1v65h-1zm97 0h1v65h-1zm-492 20h1v1h-1zm538 11h1v1h-1zm-158 10h1v1h-1zm202 11h1v1h-1zm-187 13h1v1h-1zm33 0h1v1h-1zm64 0h1v1h-1zm-366 11h1v1h-1zm440 29h1v1h-1zm-461 6h1v1h-1z" fill="#678db0"/><path d="M694 183h1v1h-1zm-517 4h1v1h-1zm373 34h1v1h-1zm-235 8h1v1h-1zm300 30h1v1h-1z" fill="#306493"/><path d="M252 214h1v1h-1zm-58 8h1v1h-1zm418 3h1v1h-1zm67 18h1v1h-1z" fill="#8daac4"/><path d="M166 155h1v1h-1zm15 27h1v1h-1zm524 22h1v1h-1zm-119 23h1v1h-1zm-376 19h1v1h-1z" fill="#9bb4cb"/><path d="M716 161h1v1h-1zm26 23h1v1h-1zm-76 14h1v1h-1zm-523 26h1v1h-1zm583 13h1v1h-1zm-113 22h1v1h-1z" fill="#89a7c1"/><path d="M748 165h1v1h-1zm-545 70h1v1h-1zm26 12h1v1h-1z" fill="#46749f"/><path d="M252 218h1v1h-1zm377 35h1v1h-1zm-414 1h1v1h-1zm-39 1h1v1h-1zm41 2h1v1h-1z" fill="#e6ecf2"/><path d="M37 38h985v1H37zm985 0h1v1h-1z" fill="#40a0d1"/><path d="M397 148h1v1h-1zm500 16h1v1h-1zm-702 3h1v1h-1zm466 15h1v1h-1zm246 1h1v1h-1zm-21 16h1v1h-1zm-156 26h1v1h-1zm-475 1h1v1h-1zm591 32h1v1h-1z" fill="#285e8f"/><path d="M906 182h1v1h-1zm10 19h1v1h-1zm-13 28h1v1h-1zm-349 8h1v1h-1zm-305 21h1v1h-1zm14 2h1v1h-1zm9 0h1v1h-1zm1 0h1v1h-1zm321 0h1v1h-1zm9 0h1v1h-1z" fill="#99b3ca"/><path d="M142 148h1v1h-1zm2 35h1v1h-1zm43 28h1v1h-1zm483 2h1v1h-1zm-135 3h1v1h-1zm379 34h1v1h-1zm-281 1h1v1h-1z" fill="#366896"/><path d="M889 149h1v1h-1zm-172 7h1v1h-1zm-51 43h1v1h-1zm-412 25h1v1h-1zm653 13h1v1h-1z" fill="#40709b"/><path d="M550 148h1v1h-1zm97 0h1v1h-1zm-471 40h1v1h-1zm525 22h1v1h-1zm-391 32h1v1h-1zm369 2h1v1h-1zm-388 13h1v1h-1zm-3 1h1v1h-1z" fill="#44739d"/><path d="M652 149h1v1h-1zm-489 10h1v1h-1zm120 59h1v1h-1z" fill="#adc2d4"/><path d="M845 149h1v26h-1zm-191 9h1v1h-1zm191 17h1v1h-1zm-666 10h1v1h-1zm661 6h1v24h-1zm-143 3h1v1h-1zm-28 16h1v1h-1zm171 5h1v1h-1zm76 39h1v1h-1z" fill="#155085"/><path d="M653 155h1v1h-1zm-454 8h1v1h-1zm490 0h1v1h-1zm-499 10h1v1h-1zm520 9h1v1h-1zm-42 25h1v1h-1zm-518 10h1v1h-1zm69 5h1v1h-1zm680 1h1v1h-1zm-640 7h1v1h-1zm-38 3h1v1h-1zm505 6h1v1h-1zm-110 20h1v1h-1z" fill="#03427c"/><path d="M188 174h1v1h-1zm404 58h1v1h-1z" fill="#c7d5e2"/><path d="M168 152h1v1h-1zm583 3h1v1h-1zm-44 40h1v1h-1zm206 53h1v1h-1z" fill="#4b78a1"/><path d="M207 153h1v1h-1zm690 12h1v1h-1zm-185 12h1v1h-1zm195 7h1v1h-1zm-655 32h1v1h-1zm57 27h1v1h-1zm293 17h1v1h-1z" fill="#a7bdd1"/><path d="M656 162h1v1h-1zm82 34h1v1h-1zm-16 53h1v1h-1zm-489 1h1v1h-1z" fill="#e9eff4"/><path d="M197 165h1v1h-1zm-44 6h1v1h-1zm35 4h1v1h-1zm556 4h1v1h-1zm-73 38h1v1h-1zm57 15h1v1h-1zm-84 4h1v1h-1zm-419 6h1v1h-1zm685 1h1v1h-1zm-698 5h1v1h-1zm2 3h1v1h-1zm469 7h1v1h-1z" fill="#114d83"/><path d="M744 178h1v1h-1zm-16 53h1v1h-1zm-452 29h1v1h-1z" fill="#5983a8"/><path d="M0 1h1022v1H0zm1022 0h1v1h-1zM0 368h35v1H0zm35 0h1v1h-1z" fill="#5bb6ed"/><path d="M688 160h1v1h-1zm58 12h1v1h-1zm143 32h1v1h-1zm-669 24h1v1h-1zm355 29h1v1h-1zm375 1h1v1h-1zm-672 2h1v1h-1z" fill="#295f8f"/><path d="M752 153h1v1h-1zm-590 6h1v1h-1zm526 0h1v1h-1zm-31 10h1v1h-1zm-505 3h1v1h-1zm559 6h1v1h-1zm-12 23h1v1h-1zm37 5h1v1h-1zm-123 13h1v1h-1zm59 2h1v1h-1zm-122 2h1v1h-1zm97 0h1v1h-1zm-490 3h1v1h-1zm99 1h1v1h-1zm650 9h1v1h-1zm-600 12h1v1h-1zm-2 2h1v1h-1zm-12 7h1v1h-1z" fill="#01417b"/><path d="M205 155h1v1h-1zm510 11h1v1h-1zm-34 83h1v1h-1z" fill="#d2dde8"/><path d="M553 234h1v1h-1zm91 0h1v1h-1zm264 4h1v1h-1z" fill="#b8cada"/><path d="M716 162h1v1h-1zm-479 91h1v1h-1z" fill="#cbd8e4"/><path d="M744 177h1v1h-1zm173 26h1v1h-1zm-248 5h1v1h-1zm227 8h1v1h-1zm-168 14h1v1h-1zm-501 14h1v1h-1zm339 8h1v1h-1zm29 8h1v1h-1z" fill="#a6bcd1"/><path fill="#55bfea" d="M1023 1h1v1h-1z"/><path d="M719 151h1v1h-1zm-571 28h1v1h-1zm28 8h1v1h-1zm738 11h1v1h-1zm-124 32h1v1h-1zm127 24h1v1h-1z" fill="#f1f5f8"/><path d="M752 152h1v1h-1zm-95 16h1v1h-1zm-482 25h1v1h-1zm561 12h1v1h-1zm-145 26h1v1h-1zm-355 22h1v1h-1zm522 5h1v1h-1z" fill="#326594"/><path d="M712 178h1v1h-1zm-441 55h1v1h-1zm647 23h1v1h-1z" fill="#e7edf2"/><path d="M706 201h1v1h-1zm-525 2h1v1h-1zm719 20h1v1h-1zm-635 10h1v1h-1zm-102 1h1v1h-1z" fill="#d5e0e9"/><path d="M758 148h1v1h-1zm-73 2h1v1h-1zm-495 66h1v1h-1zm93 1h1v1h-1z" fill="#8aa7c2"/><path d="M206 154h1v1h-1zm537 26h1v1h-1zm-34 9h1v1h-1zm18 44h1v1h-1zm-415 4h1v1h-1z" fill="#becedd"/><path d="M197 164h1v1h-1zm462 9h1v1h-1zm-76 45h1v1h-1zm-328 9h1v1h-1zm300 12h1v1h-1zm87 0h1v1h-1z" fill="#c0d0de"/><path d="M193 168h1v1h-1zm-38 2h1v1h-1zm-10 51h1v1h-1zm501 2h1v1h-1zm-366 5h1v1h-1zm307 1h1v1h-1zm-302 29h1v1h-1z" fill="#f6f8fa"/><path d="M364 149h1v108h-1zm535 73h1v1h-1zm-673 21h1v1h-1zm138 14h1v1h-1z" fill="#658caf"/><path d="M209 151h1v1h-1zm374 64h1v1h-1zm-267 3h1v1h-1zm-162 2h1v1h-1zm84 34h1v1h-1z" fill="#7497b6"/><path d="M751 153h1v1h-1zm141 3h1v1h-1zm-205 3h1v1h-1zm-526 3h1v1h-1zm497 7h1v1h-1zm77 37h1v1h-1zm-456 23h1v1h-1zm-68 19h1v1h-1zm2 3h1v1h-1zm407 6h1v1h-1zm-340 2h1v1h-1z" fill="#e5ecf1"/><path d="M161 161h1v1h-1zm738 7h1v1h-1zm10 19h1v1h-1zm-712 39h1v1h-1zm2 3h1v1h-1zm389 0h1v1h-1zm93 22h1v1h-1z" fill="#3f6f9b"/><path d="M692 177h1v1h-1zm-536 46h1v1h-1zm396 8h1v1h-1zm-340 18h1v1h-1z" fill="#9db6cc"/><path d="M144 184h1v1h-1zm16 45h1v1h-1zm41 4h1v1h-1zm2 3h1v1h-1zm408 23h1v1h-1z" fill="#dfe7ee"/><path d="M219 148h1v1h-1zm499 4h1v1h-1zm-402 70h1v1h-1zm293 7h1v1h-1zm-325 30h1v1h-1zm-26 1h1v1h-1z" fill="#386a97"/><path d="M142 149h1v35h-1zm570 27h1v1h-1zm-570 8h1v1h-1zm408 31h1v1h-1zm97 0h1v1h-1zm-505 11h1v31h-1zm538 21h1v1h-1zm-440 8h1v1h-1zm-98 2h1v1h-1zm437 1h1v1h-1z" fill="#668caf"/><path d="M157 167h1v1h-1zm550 30h1v1h-1zm-39 7h1v1h-1zm-409 27h1v1h-1zm-13 26h1v1h-1z" fill="#cedae5"/><path d="M745 173h1v1h-1zm-260 4h1v12h-1zm177 6h1v1h-1zm-177 6h1v1h-1zm0 28h1v12h-1zm66 7h1v1h-1zm178 2h1v1h-1zm-244 3h1v1h-1zm92 28h1v1h-1zm9 2h1v1h-1z" fill="#dce5ed"/><path d="M685 148h1v1h-1zm160 0h1v1h-1zm0 28h1v1h-1zm-185 3h1v1h-1zm-514 1h1v1h-1zm34 4h1v1h-1zm-31 34h1v1h-1zm104 1h1v1h-1zm422 12h1v1h-1zm-107 23h1v1h-1z" fill="#0b4880"/><path d="M718 154h1v1h-1zm-29 12h1v1h-1zm-28 14h1v1h-1zm234 34h1v1h-1zm-305 17h1v1h-1zm10 2h1v1h-1zm17 25h1v1h-1zm-350 2h1v1h-1zm1 0h1v1h-1zm330 0h1v1h-1zm1 0h1v1h-1z" fill="#bbccdc"/><path d="M170 149h1v1h-1zm725 11h1v1h-1zm-181 7h1v1h-1zm191 12h1v1h-1zm-757 40h1v1h-1zm127 12h1v1h-1z" fill="#165085"/><path d="M752 150h1v1h-1zm-67 1h1v1h-1zm209 61h1v1h-1zm-211 44h1v1h-1z" fill="#cddae5"/><path d="M160 162h1v1h-1zm545 40h1v1h-1zm-73 50h1v1h-1z" fill="#175186"/><path d="M656 163h1v1h-1zm48 45h1v1h-1zm-440 52h1v1h-1z" fill="#a3bacf"/><path d="M898 166h1v1h-1zm10 19h1v1h-1zm10 19h1v1h-1zm-246 16h1v1h-1zm-393 8h1v1h-1z" fill="#316594"/><path d="M179 184h1v1h-1zm491 27h1v1h-1zm-400 22h1v1h-1zm-96 19h1v1h-1z" fill="#c9d7e3"/><path d="M752 151h1v1h-1zm-97 9h1v1h-1zm-473 21h1v1h-1zm-4 17h1v1h-1zm492 14h1v1h-1zm-418 1h1v1h-1zm324 44h1v1h-1zm-323 2h1v1h-1z" fill="#80a0bd"/><path d="M750 157h1v1h-1zm-552 6h1v1h-1zm648 67h1v1h-1zm-580 30h1v1h-1z" fill="#b0c4d6"/><path d="M195 166h1v1h-1zm509 43h1v1h-1zm-121 10h1v1h-1zm316 2h1v1h-1zm-584 4h1v1h-1z" fill="#e3eaf0"/><path d="M657 166h1v1h-1zm231 35h1v1h-1z" fill="#c5d4e1"/><path d="M176 195h1v1h-1zm738 2h1v1h-1zm-471 34h1v26h-1zm114 12h1v1h-1zm78 6h1v1h-1zm-192 8h1v1h-1z" fill="#7e9ebc"/><path d="M550 220h1v1h-1zm-355 3h1v1h-1zm82 37h1v1h-1z" fill="#3e6e9a"/><path d="M894 159h1v1h-1zm10 19h1v1h-1zm-209 10h1v1h-1zm41 16h1v1h-1zm-566 42h1v1h-1zm747 9h1v1h-1zm-197 2h1v1h-1zm-459 3h1v1h-1z" fill="#7f9fbc"/><path d="M690 169h1v1h-1zm18 23h1v1h-1zm31 2h1v1h-1zm-71 11h1v1h-1zm236 26h1v1h-1zm-181 16h1v1h-1zm-430 9h1v1h-1z" fill="#84a3bf"/><path d="M735 207h1v1h-1zm-60 22h1v1h-1zm-399 2h1v1h-1zm317 29h1v1h-1z" fill="#97b1c9"/><path d="M211 148h1v1h-1zm538 13h1v1h-1zm-16 53h1v1h-1zm-61 5h1v1h-1zm226 1h1v1h-1z" fill="#7b9cba"/><path d="M654 156h1v1h-1zm-372 67h1v1h-1zm-58 16h1v1h-1zm332 2h1v1h-1zm-384 8h1v1h-1z" fill="#a8bed2"/><path d="M180 183h1v1h-1zm709 20h1v1h-1zm-740 14h1v1h-1zm448 43h1v1h-1z" fill="#b3c6d7"/><path d="M613 220h1v1h-1zm-341 12h1v1h-1zm22 24h1v1h-1zm-47 2h1v1h-1zm196 0h1v1h-1z" fill="#1a5388"/><g fill="#00407a"><path d="M37 39h986v108H37zm986 0h1v328h-1zM37 147h986v1H37zm0 1h71v219H37zm71 0h1v219h-1zm35 0h27v1h-27zm27 0h1v1h-1zm43 0h5v101h-5zm5 0h1v108h-1zm35 0h29v70h-29zm29 0h1v72h-1zm35 0h46v219h-46zm46 0h1v219h-1zm35 0h54v81h-54zm54 0h1v219h-1zm89 0h8v81h-8zm8 0h1v219h-1zm35 0h29v71h-29zm29 0h1v70h-1zm35 0h3v219h-3zm3 0h1v219h-1zm35 0h32v3h-32zm32 0h1v2h-1zm36 0h3v219h-3zm3 0h1v219h-1zm89 0h8v81h-8zm8 0h1v219h-1zm35 0h29v1h-29zm29 0h1v55h-1zm33 0h72v219h-72zm-808 1h26v2h-26zm26 0h1v1h-1z"/><path d="M212 149h6v98h-6zm678 0h28v1h-28z"/><path d="M211 150h7v96h-7zm507 0h1v1h-1zm35 0h4v217h-4zm137 0h28v1h-28zm-747 1h25v1h-25zm25 0h1v1h-1z"/><path d="M210 151h8v93h-8zm476 0h31v1h-31zm31 0h1v3h-1zm174 0h27v1h-27zm-748 1h24v1h-24zm24 0h1v1h-1z"/><path d="M209 152h9v91h-9zm443 0h1v215h-1zm35 0h30v3h-30zm205 0h26v1h-26zm-749 1h23v2h-23zm23 0h1v1h-1zm726 0h26v1h-26z"/><path d="M208 154h10v87h-10zm509 0h1v1h-1zm35 0h5v213h-5zm141 0h25v1h-25zm-750 1h22v1h-22zm22 0h1v1h-1z"/><path d="M207 155h11v85h-11zm480 0h29v1h-29zm29 0h1v3h-1zm177 0h25v1h-25zm-750 1h21v1h-21zm21 0h1v1h-1z"/><path d="M206 156h12v82h-12zm447 0h1v211h-1zm35 0h28v2h-28zm206 0h24v1h-24zm-751 1h20v1h-20zm20 0h1v1h-1z"/><path d="M205 157h13v80h-13zm546 0h6v210h-6zm143 0h24v1h-24zm-751 1h19v2h-19zm19 0h1v1h-1z"/><path d="M204 158h14v77h-14zm484 0h28v1h-28zm28 0h1v1h-1zm179 0h23v1h-23z"/><path d="M203 159h15v75h-15zm451 0h1v208h-1zm35 0h26v3h-26zm26 0h1v3h-1zm180 0h23v1h-23zm-752 1h18v1h-18zm18 0h1v1h-1z"/><path d="M202 160h16v72h-16zm548 0h7v207h-7zm146 0h22v1h-22zm-753 1h17v1h-17zm17 0h1v1h-1z"/><path d="M201 161h17v70h-17zm695 0h22v1h-22zm-753 1h16v2h-16zm16 0h1v1h-1z"/><path d="M200 162h18v67h-18zm489 0h26v1h-26zm26 0h1v1h-1zm182 0h21v1h-21zm-242 1h1v204h-1zm35 0h24v3h-24zm24 0h1v3h-1zm35 0h8v204h-8zm148 0h21v1h-21zm-754 1h15v1h-15zm15 0h1v1h-1z"/><path d="M199 164h19v64h-19zm699 0h20v1h-20zm-755 1h14v1h-14zm14 0h1v1h-1z"/><path d="M198 165h20v61h-20zm700 0h20v1h-20zm-755 1h13v2h-13zm13 0h1v1h-1z"/><path d="M197 166h21v59h-21zm459 0h1v201h-1zm34 0h24v1h-24zm24 0h1v1h-1zm185 0h19v1h-19z"/><path d="M196 167h22v56h-22zm495 0h22v3h-22zm22 0h1v3h-1zm35 0h9v200h-9zm151 0h19v1h-19zm-756 1h12v1h-12zm12 0h1v1h-1z"/><path d="M195 168h23v54h-23zm705 0h18v1h-18zm-757 1h11v1h-11zm11 0h1v1h-1z"/><path d="M194 169h24v51h-24zm706 0h18v1h-18zm-757 1h10v1h-10zm10 0h1v1h-1z"/><path d="M193 170h25v49h-25zm464 0h1v197h-1zm34 0h22v1h-22zm22 0h1v1h-1zm34 0h10v197h-10zm154 0h17v1h-17zm-758 1h9v2h-9zm9 0h1v1h-1z"/><path d="M192 171h26v46h-26zm500 0h20v3h-20zm20 0h1v3h-1zm190 0h16v1h-16z"/><path d="M191 172h27v44h-27zm711 0h16v1h-16zm-759 1h8v1h-8zm8 0h1v1h-1zm507 0h1v194h-1zm88 0h11v194h-11zm157 0h15v1h-15zm-760 1h7v1h-7zm7 0h1v1h-1z"/><path d="M190 174h28v40h-28zm502 0h20v1h-20zm20 0h1v1h-1zm191 0h15v1h-15zm-760 1h6v2h-6zm6 0h1v1h-1z"/><path d="M189 175h29v38h-29zm504 0h18v3h-18zm18 0h1v2h-1zm193 0h14v1h-14z"/><path d="M188 176h30v35h-30zm471 0h1v191h-1zm245 0h14v1h-14zm-761 1h5v1h-5zm5 0h1v1h-1z"/><path d="M187 177h31v33h-31zm299 0h63v12h-63zm225 0h1v1h-1zm34 0h12v190h-12zm46 0h63v12h-63zm114 0h13v1h-13zm-762 1h4v1h-4zm4 0h1v1h-1z"/><path d="M186 178h32v30h-32zm507 0h17v1h-17zm17 0h1v3h-1zm195 0h13v1h-13zm-762 1h3v2h-3zm3 0h1v1h-1z"/><path d="M185 179h33v28h-33zm509 0h16v2h-16zm212 0h12v1h-12z"/><path d="M184 180h34v25h-34zm476 0h1v187h-1zm84 0h13v187h-13zm162 0h12v1h-12zm-763 1h2v1h-2zm2 0h1v1h-1z"/><path d="M183 181h35v23h-35zm511 0h16v1h-16zm16 0h1v1h-1zm197 0h11v1h-11zm-764 1h1v1h-1zm1 0h1v1h-1z"/><path d="M182 182h36v20h-36zm513 0h14v3h-14zm14 0h1v3h-1zm198 0h11v1h-11zm-764 1h1v1h-1zm518 0h1v184h-1zm82 0h14v184h-14zm165 0h10v1h-10z"/><path d="M181 184h37v17h-37zm727 0h10v1h-10z"/><path d="M180 185h38v14h-38zm515 0h14v1h-14zm14 0h1v1h-1zm200 0h9v1h-9z"/><path d="M179 186h39v12h-39zm517 0h12v3h-12zm12 0h1v3h-1zm201 0h9v1h-9z"/><path d="M178 187h40v9h-40zm484 0h1v180h-1zm80 0h15v180h-15zm168 0h8v1h-8z"/><path d="M177 188h41v7h-41zm733 0h8v1h-8z"/><path d="M176 189h42v4h-42zm310 0h63v1h-63zm210 0h12v1h-12zm12 0h1v1h-1zm83 0h63v1h-63zm120 0h7v1h-7z"/><path d="M175 190h43v2h-43zm361 0h13v39h-13zm127 0h1v177h-1zm34 0h10v3h-10zm10 0h1v3h-1zm34 0h16v177h-16zm100 0h13v39h-13zm71 0h6v1h-6zm0 1h6v1h-6zm-737 1h43v1h-43zm738 0h5v1h-5zm-737 1h42v1h-42zm521 0h10v1h-10zm10 0h1v1h-1z"/><path d="M740 193h17v174h-17zm173 0h5v1h-5zm-249 1h1v173h-1zm34 0h8v3h-8zm8 0h1v3h-1zm208 0h4v1h-4zm-737 1h41v1h-41zm737 0h4v1h-4zm-736 1h40v1h-40zm737 0h3v1h-3zm-250 1h1v170h-1zm33 0h8v1h-8zm8 0h1v1h-1z"/><path d="M739 197h18v170h-18zm176 0h3v1h-3zm-736 1h39v1h-39zm520 0h6v2h-6zm6 0h1v3h-1zm211 0h2v1h-2zm-736 1h38v1h-38zm736 0h2v1h-2zm-217 1h6v1h-6z"/><path d="M738 200h19v167h-19zm179 0h1v1h-1zm-736 1h37v1h-37zm485 0h1v166h-1zm34 0h5v3h-5zm5 0h1v1h-1zm182 0h1v166h-1zm30 0h1v1h-1zm-735 1h36v1h-36z"/><path d="M737 203h20v164h-20zm151 0h1v164h-1zm30 0h1v1h-1zm-735 1h35v1h-35zm484 0h1v163h-1zm33 0h4v1h-4zm4 0h1v1h-1zm-520 1h34v1h-34zm517 0h3v3h-3zm3 0h1v1h-1zm185 0h1v162h-1zm-704 2h33v1h-33z"/><path d="M736 207h21v160h-21zm154 0h1v160h-1zm-704 1h32v1h-32zm482 0h1v159h-1zm33 0h2v1h-2zm2 0h1v1h-1zm-1 1h1v3h-1zm1 0h1v1h-1zm188 0h1v158h-1zm-704 1h31v1h-31z"/><path d="M735 210h22v157h-22zm-547 1h30v1h-30zm481 0h1v156h-1zm223 0h1v156h-1zm-190 1h1v1h-1zm-513 1h29v1h-29z"/><path d="M734 213h23v154h-23zm159 0h1v154h-1zm-703 1h28v1h-28zm704 0h1v153h-1zm-224 1h1v152h-1zm-479 1h27v1h-27z"/><path d="M733 216h24v151h-24zm162 0h1v151h-1zm-744 1h1v150h-1zm41 0h26v1h-26zm294 0h63v12h-63zm305 0h63v12h-63z"/><path d="M150 218h2v149h-2zm2 0h1v149h-1zm101 0h29v1h-29zm360 0h1v1h-1zm58 0h1v149h-1zm225 0h1v149h-1z"/><path d="M149 219h3v148h-3zm44 0h25v1h-25zm61 0h28v3h-28zm330 0h28v1h-28zm28 0h1v4h-1z"/><path d="M148 220h5v147h-5zm5 0h1v147h-1zm41 0h24v1h-24zm88 0h1v1h-1zm303 0h27v3h-27zm147 0h25v147h-25zm165 0h1v147h-1z"/><path d="M147 221h6v146h-6z"/><path d="M146 222h8v145h-8zm8 0h1v145h-1zm41 0h23v1h-23zm59 0h27v1h-27zm27 0h1v1h-1zm391 0h1v145h-1zm226 0h1v145h-1z"/><path d="M145 223h10v144h-10zm10 0h1v144h-1zm41 0h23v1h-23zm23 0h1v144h-1zm36 0h26v2h-26zm26 0h1v1h-1zm304 0h27v1h-27zm27 0h1v1h-1zm119 0h26v144h-26z"/><path d="M144 224h11v143h-11zm406 0h1v143h-1zm36 0h25v1h-25zm25 0h1v1h-1zm36 0h25v143h-25zm252 0h1v143h-1zm-743 1h1v142h-1zm41 0h22v1h-22zm58 0h25v1h-25zm25 0h1v1h-1zm36 0h47v142h-47zm270 0h25v1h-25zm25 0h1v1h-1zm62 0h1v142h-1zm227 0h1v142h-1z"/><path d="M143 226h13v141h-13zm55 0h21v1h-21zm58 0h23v1h-23zm23 0h1v1h-1zm308 0h23v1h-23zm23 0h1v1h-1zm120 0h27v141h-27zm-573 1h1v140h-1zm100 0h22v1h-22zm22 0h1v1h-1zm308 0h23v1h-23zm23 0h1v1h-1zm291 0h1v140h-1zm-743 1h1v139h-1zm41 0h20v1h-20zm58 0h21v1h-21zm21 0h1v1h-1zm310 0h21v1h-21zm21 0h1v1h-1zm65 0h1v139h-1zm-474 1h19v1h-19zm58 0h19v1h-19zm19 0h1v1h-1zm121 0h54v1h-54zm88 0h64v1h-64zm103 0h19v1h-19zm19 0h1v1h-1zm183 0h63v1h-63zm111 0h1v138h-1zm-743 1h1v137h-1zm61 0h1v137h-1zm40 0h16v1h-16zm16 0h1v1h-1zm168 0h8v137h-8zm99 0h8v137h-8zm8 0h1v137h-1zm39 0h17v1h-17zm17 0h1v1h-1zm39 0h28v137h-28z"/><path d="M729 230h28v137h-28zm118 0h7v137h-7zm-687 1h1v136h-1zm41 0h19v1h-19zm60 0h13v1h-13zm13 0h1v1h-1zm41 0h48v136h-48zm277 0h13v1h-13zm13 0h1v1h-1zm298 0h1v136h-1zm-701 1h18v1h-18zm63 0h6v1h-6zm6 0h1v1h-1zm325 0h6v1h-6zm6 0h1v1h-1zm73 0h1v135h-1zm-514 1h1v134h-1z"/><path d="M728 233h29v134h-29zm176 0h1v134h-1zm-701 1h18v1h-18zm18 0h1v133h-1zm93 0h49v133h-49zm238 0h1v133h-1zm93 0h30v133h-30zm-483 1h1v132h-1zm42 0h17v1h-17zm472 0h1v132h-1zm229 0h1v132h-1zm-742 1h1v131h-1z"/><path d="M727 236h30v131h-30zm-522 1h17v1h-17zm17 0h1v130h-1zm91 0h50v130h-50zm240 0h1v130h-1zm91 0h32v130h-32zm262 0h1v130h-1zm-742 1h1v129h-1zm42 0h16v1h-16zm701 0h1v129h-1zm-684 1h1v128h-1zm331 0h1v128h-1z"/><path d="M643 239h34v128h-34zm34 0h1v128h-1zm-512 1h1v127h-1zm42 0h16v1h-16zm105 0h51v127h-51zm414 0h31v127h-31zm182 0h1v127h-1zm-742 1h1v126h-1zm42 0h16v1h-16zm16 0h1v126h-1zm331 0h1v126h-1z"/><path d="M642 241h35v126h-35zm-331 1h52v125h-52zm367 0h1v125h-1zm231 0h1v125h-1zm-742 1h1v124h-1zm42 0h16v1h-16zm16 0h1v124h-1z"/><path d="M310 243h53v124h-53zm246 0h1v124h-1zm85 0h37v124h-37zm84 0h32v124h-32zm-557 1h1v123h-1zm42 0h16v1h-16zm16 0h1v123h-1zm684 0h1v123h-1z"/><path d="M309 245h54v122h-54zm248 0h1v122h-1zm83 0h38v122h-38zm-471 1h1v121h-1zm42 0h16v1h-16zm16 0h1v121h-1z"/><path d="M308 246h55v121h-55zm250 0h1v121h-1zm81 0h40v121h-40zm40 0h1v121h-1zm45 0h33v121h-33zm187 0h1v121h-1zm-699 1h16v1h-16zm16 0h1v120h-1z"/><path d="M307 247h56v120h-56zm252 0h1v120h-1zm79 0h41v120h-41zm-468 1h1v119h-1zm59 0h1v119h-1zm331 0h1v119h-1z"/><path d="M637 248h42v119h-42zm275 0h1v119h-1zm-741 1h1v118h-1zm42 0h17v1h-17zm17 0h1v118h-1zm76 0h57v118h-57zm255 0h1v118h-1z"/><path d="M636 249h44v118h-44zm44 0h1v118h-1zm233 0h1v118h-1zm-699 1h17v1h-17zm17 0h1v117h-1zm74 0h58v117h-58zm257 0h1v117h-1z"/><path d="M635 250h45v117h-45zm88 0h34v117h-34zm-551 1h1v116h-1zm43 0h17v1h-17zm17 0h1v116h-1zm71 0h60v116h-60zm260 0h1v116h-1z"/><path d="M634 251h46v116h-46zm280 0h1v116h-1zm-699 1h18v1h-18zm18 0h1v115h-1zm69 0h61v115h-61zm262 0h1v115h-1z"/><path d="M633 252h47v115h-47zm-460 1h1v114h-1zm43 0h19v1h-19zm19 0h1v114h-1zm66 0h62v114h-62zm264 0h1v114h-1zm1 0h1v114h-1z"/><path d="M631 253h50v114h-50zm50 0h1v114h-1zm41 0h35v114h-35zm193 0h1v114h-1zm-741 1h1v113h-1zm43 0h19v1h-19zm19 0h1v113h-1zm63 0h64v113h-64zm268 0h1v113h-1z"/><path d="M630 254h51v113h-51zm-413 1h21v1h-21zm21 0h1v112h-1zm59 0h66v112h-66zm271 0h1v112h-1zm1 0h1v112h-1z"/><path d="M628 255h53v112h-53zm288 0h1v112h-1zm-741 1h1v111h-1zm43 0h22v1h-22zm22 0h1v111h-1zm55 0h68v111h-68zm275 0h1v111h-1zm1 0h1v111h-1z"/><path d="M626 256h56v111h-56zm56 0h1v111h-1zm39 0h36v111h-36zm-545 1h1v110h-1zm58 0h9v110h-9zm9 0h1v110h-1zm50 0h70v110h-70zm279 0h2v110h-2zm2 0h1v110h-1z"/><path d="M623 257h59v110h-59zm294 0h1v110h-1zm-673 1h2v109h-2zm2 0h1v109h-1zm44 0h73v109h-73zm285 0h2v109h-2zm2 0h1v109h-1z"/><path d="M621 258h61v109h-61zm-512 1h141v108H109zm141 0h1v108h-1zm36 0h294v108H286zm294 0h1v108h-1z"/><path d="M617 259h406v108H617zm-366 1h4v107h-4zm4 0h1v107h-1zm25 0h306v107H280zm306 0h1v107h-1z"/><path d="M611 260h412v107H611z"/><path d="M256 261h767v106H256zM37 367h986v1H37zm986 0h1v1h-1z"/></g><path d="M717 155h1v1h-1zm-22 31h1v1h-1zm-31 7h1v1h-1zm-486 4h1v1h-1zm2 3h1v1h-1zm712 10h1v1h-1zm-730 24h1v1h-1zm517 11h1v1h-1zm-438 11h1v1h-1zm48 2h1v1h-1zm-4 1h1v1h-1zm-29 1h1v1h-1z" fill="#06447d"/><path d="M715 164h1v1h-1zm-55 14h1v1h-1zm78 20h1v1h-1zm-155 14h1v1h-1zm-33 6h1v1h-1zm60 10h1v1h-1zm28 18h1v1h-1zm84 5h1v1h-1z" fill="#4f7ba3"/><path d="M664 190h1v1h-1zm-473 28h1v1h-1zm361 12h1v1h-1zm-381 17h1v1h-1z" fill="#d8e2eb"/><path d="M252 212h1v1h-1zm372 44h1v1h-1z" fill="#7598b7"/><path d="M614 149h1v59h-1zm-449 7h1v1h-1zm449 52h1v1h-1zm-394 19h1v1h-1zm363 32h1v1h-1z" fill="#5b84a9"/><path d="M717 159h1v1h-1zm-542 29h1v1h-1zm565 1h1v1h-1zm-45 1h1v1h-1zm-55 52h1v1h-1zm84 0h1v1h-1zm192 10h1v1h-1zm-622 3h1v1h-1z" fill="#f9fbfc"/><path d="M700 208h1v1h-1zm-54 17h1v1h-1zm-88 19h1v1h-1zm356 5h1v1h-1zm-737 8h1v1h-1z" fill="#bdcedd"/><path d="M669 209h1v1h-1zm224 2h1v1h-1zm-640 10h1v1h-1zm4 8h1v1h-1z" fill="#5d86ab"/><path d="M855 148h1v1h-1zm-152 63h1v1h-1z" fill="#698fb1"/><path d="M169 152h1v1h-1zm516 0h1v1h-1zm-30 6h1v1h-1zm94 1h1v1h-1zm-575 30h1v1h-1zm533 9h1v1h-1zm-37 12h1v1h-1zm63 2h1v1h-1zm-545 2h1v1h-1zm708 1h1v1h-1zm-706 2h1v1h-1zm2 3h1v1h-1zm-48 2h1v1h-1zm50 1h1v1h-1zm390 1h1v1h-1zm-388 2h1v1h-1zm2 3h1v1h-1zm354 0h1v1h-1zm93 0h1v1h-1zm264 10h1v1h-1zm-272 7h1v1h-1zm-76 1h1v1h-1zm-325 5h1v1h-1zm351 7h1v1h-1z" fill="#fdfdfe"/><path d="M159 164h1v1h-1zm756 35h1v1h-1zm-756 29h1v1h-1zm469 26h1v1h-1z" fill="#8ba8c2"/><path d="M742 183h1v1h-1zm145 16h1v1h-1zm-704 7h1v1h-1zm2 3h1v1h-1zm4 6h1v1h-1zm456 15h1v1h-1zm81 6h1v1h-1zm-471 23h1v1h-1z" fill="#d6e0ea"/><path d="M671 216h1v1h-1zm-121 1h1v1h-1zm356 18h1v1h-1z" fill="#5882a8"/><path fill="#aec2d5" d="M153 218h1v1h-1z"/><path d="M109 148h1v1h-1zm38 31h1v1h-1zm0 41h1v1h-1zm154 32h1v1h-1z" fill="#265c8e"/><path d="M453 148h1v1h-1zm209 37h1v1h-1zm73 23h1v1h-1zm-152 2h1v1h-1zm-370 40h1v1h-1z" fill="#4a77a1"/><path d="M205 156h1v1h-1zm545 3h1v1h-1zm-16 53h1v1h-1zm-562 38h1v1h-1zm455 5h1v1h-1zm55 0h1v1h-1z" fill="#185287"/><path d="M163 158h1v1h-1zm544 36h1v1h-1zm-156 35h1v1h-1zm353 3h1v1h-1zm-702 1h1v1h-1zm2 3h1v1h-1zm349 0h1v1h-1zm-347 3h1v1h-1zm-39 3h1v1h-1zm462 12h1v1h-1zm-57 2h1v1h-1z" fill="#0d4a81"/><path d="M659 174h1v1h-1zm-403 54h1v1h-1zm58 4h1v1h-1zm597 12h1v1h-1zm-340 11h1v1h-1zm47 3h1v1h-1z" fill="#7799b8"/><path d="M708 193h1v1h-1zm138 38h1v26h-1zm-680 8h1v1h-1zm680 18h1v1h-1z" fill="#c6d4e1"/><path d="M747 167h1v1h-1zm-16 53h1v1h-1zm-511 5h1v1h-1zm54 7h1v1h-1zm325 1h1v1h-1zm316 18h1v1h-1zm-661 8h1v1h-1z" fill="#abc0d3"/><path d="M706 199h1v1h-1zm-119 29h1v1h-1zm-314 4h1v1h-1zm-43 16h1v1h-1z" fill="#527da5"/><path fill="#a4bbd0" d="M698 200h1v1h-1z"/><path d="M158 165h1v1h-1zm533 7h1v1h-1zm-44 46h1v1h-1zm28 12h1v1h-1zm-416 30h1v1h-1z" fill="#4e7aa3"/><path d="M0 2h1022v35H0zm1022 0h1v35h-1zM0 37h1022v1H0zm1022 0h1v1h-1zM0 38h35v329H0zm35 0h1v329h-1zM0 367h35v1H0zm35 0h1v1h-1z" fill="#54bceb"/><path d="M652 150h1v1h-1zm240 5h1v1h-1zm10 19h1v1h-1zm-288 38h1v1h-1zm-331 47h1v1h-1z" fill="#648bae"/><path d="M208 152h1v1h-1zm406 64h1v1h-1zm302 37h1v1h-1zm-654 7h1v1h-1z" fill="#95b0c8"/><path d="M688 161h1v1h-1zm-543 21h1v1h-1zm595 9h1v1h-1zm-16 53h1v1h-1zm-163 4h1v1h-1z" fill="#6c91b2"/><path d="M252 148h1v1h-1zm-143 1h1v108h-1zm288 0h1v80h-1zm319 11h1v1h-1zm194 29h1v1h-1zm-327 20h1v1h-1zm-431 8h1v1h-1zm245 12h1v1h-1zm-188 15h1v1h-1zm-100 13h1v1h-1z" fill="#4876a0"/><path d="M719 148h1v1h-1zm-437 73h1v1h-1zm321 11h1v1h-1zm312 20h1v1h-1zm-337 6h1v1h-1z" fill="#22598c"/><path d="M738 197h1v1h-1zm-155 20h1v1h-1zm-330 5h1v1h-1zm420 0h1v1h-1zm-28 9h1v1h-1zm77 19h1v1h-1z" fill="#9cb5cb"/><path d="M202 234h1v1h-1zm33 18h1v1h-1z" fill="#94afc7"/><path d="M655 161h1v1h-1zm84 34h1v1h-1zm-39 11h1v1h-1zm-417 3h1v1h-1zm301 12h1v1h-1zm317 5h1v1h-1zm-346 14h1v1h-1zm-327 6h1v1h-1zm495 2h1v1h-1z" fill="#376997"/></svg>