<svg xmlns="http://www.w3.org/2000/svg" role="img" viewBox="97.40 211.40 1071.20 491.20"><title>Lattice Semiconductor logo</title><defs><style>.cls-4{fill:#eec039}</style></defs><path id="rect223" fill="#d39329" d="M123.596 599.4h1002.212v82.751H123.67l-.074-82.751z"/><path fill="#fff" d="M295.93848 663.07031v-44.70117h46.75928v5.27441h-37.58691v13.84375h32.52832v5.27539h-32.52832v20.30762h-9.17236zm82.78662-21.77148c0-7.41992 3.08887-13.22852 9.2666-17.42676 6.17773-4.19727 14.15234-6.2959 23.92383-6.2959 6.39844 0 12.16602.98633 17.30371 2.95703 5.1377 1.97266 9.05469 4.72168 11.74902 8.24902 2.69531 3.52637 4.04297 7.52637 4.04297 11.99805 0 4.5332-1.41895 8.58887-4.25586 12.16699-2.83594 3.57812-6.85547 6.28613-12.05566 8.12598-5.20117 1.83984-10.81152 2.75977-16.83203 2.75977-6.52441 0-12.35547-1.0166-17.49316-3.0498-5.1377-2.03223-9.03027-4.80664-11.67773-8.32422-2.64746-3.5166-3.97168-7.23633-3.97168-11.16016zm9.45605.0918c0 5.38672 2.24609 9.63086 6.7373 12.73047s10.125 4.64941 16.90234 4.64941c6.90234 0 12.58398-1.56445 17.04395-4.69531 4.45996-3.12988 6.69043-7.57227 6.69043-13.3252 0-3.63867-.9541-6.81543-2.86035-9.5293-1.90723-2.71289-4.69727-4.81738-8.36914-6.31152s-7.79297-2.24121-12.36328-2.24121c-6.49316 0-12.08008 1.43848-16.76074 4.31445-4.68066 2.87695-7.02051 7.67969-7.02051 14.4082zm141.03418-23.02149h9.17188v25.82617c0 4.49316-.78809 8.06055-2.36328 10.70312-1.57715 2.64258-4.4209 4.79199-8.53418 6.44922s-9.51172 2.48535-16.19336 2.48535c-6.49316 0-11.80469-.72266-15.93359-2.16504-4.12891-1.44336-7.07617-3.53223-8.84082-6.2666-1.76562-2.7334-2.64746-6.46875-2.64746-11.20605v-25.82617h9.17188v25.7959c0 3.88281.55957 6.74414 1.67871 8.58398 1.11816 1.83984 3.04102 3.25781 5.76758 4.25293 2.72656.99707 6.05957 1.49414 10 1.49414 6.74414 0 11.55176-.98535 14.41992-2.95703s4.30273-5.76367 4.30273-11.37402v-25.7959zm51.25098 44.70117v-44.70117h9.4082l36.40576 35.0957v-35.0957h8.79395v44.70117h-9.4082l-36.40576-35.12695v35.12695h-8.79395zm96.92334 0v-44.70117h23.87695c5.38965 0 9.50293.21289 12.33984.63965 3.9707.58984 7.35938 1.65723 10.16504 3.20215 3.65625 1.99219 6.38965 4.53809 8.20312 7.6377 1.81152 3.10059 2.71777 6.64258 2.71777 10.62695 0 3.39551-.61426 6.40332-1.84375 9.02539-1.22949 2.62305-2.80566 4.79297-4.72754 6.51074-1.92285 1.71777-4.02734 3.06934-6.31152 4.05469-2.28613.98633-5.04395 1.7334-8.27441 2.24121-3.23145.50879-6.94238.7627-11.13379.7627h-25.01172zm9.17283-5.27539h14.79787c4.57031 0 8.15625-.27441 10.75684-.82324 2.59961-.54883 4.67188-1.32129 6.2168-2.31738 2.1748-1.40234 3.86914-3.28809 5.08301-5.65625 1.21289-2.36816 1.82031-5.23926 1.82031-8.61426 0-4.6748-1.19043-8.26758-3.57031-10.77832s-5.27148-4.19336-8.67578-5.04688c-2.45801-.60938-6.41406-.91504-11.86719-.91504h-14.56154v34.15137zm89.21584 5.27539v-44.70117h9.17188v44.70117h-9.17188zm52.14941 0v-44.70117h9.4082l36.40527 35.0957v-35.0957h8.79395v44.70117h-9.4082l-36.40527-35.12695v35.12695h-8.79395zm129.35645-17.5332v-5.24414l29.36035-.03125v16.58789c-4.50781 2.31738-9.15723 4.06055-13.94727 5.22949-4.79199 1.16895-9.70898 1.75391-14.75195 1.75391-6.80762 0-12.99414-.94043-18.55664-2.82129-5.56348-1.87988-9.76367-4.59863-12.60059-8.15625-2.83594-3.55762-4.25488-7.53125-4.25488-11.92285 0-4.34961 1.41016-8.41016 4.23145-12.18164 2.82031-3.77051 6.87891-6.57031 12.1748-8.40039 5.29492-1.8291 11.39453-2.74414 18.29688-2.74414 5.01172 0 9.54199.52344 13.59277 1.57031 4.0498 1.04688 7.22559 2.50586 9.52734 4.37598 2.2998 1.87012 4.0498 4.30957 5.24805 7.31738l-8.27441 1.46387c-1.04004-2.27637-2.33301-4.06543-3.87695-5.36621-1.54492-1.30078-3.75098-2.34277-6.61914-3.12598-2.86816-.78223-6.05176-1.17383-9.5498-1.17383-4.19238 0-7.81738.41211-10.875 1.23535s-5.52441 1.90527-7.39941 3.24707-3.33301 2.81543-4.37305 4.42188c-1.76562 2.76465-2.64746 5.7627-2.64746 8.99512 0 3.98438 1.06348 7.31738 3.19141 10.00098s5.22461 4.67578 9.29004 5.97656c4.06641 1.30078 8.38477 1.95117 12.95508 1.95117 3.97168 0 7.84863-.49219 11.63086-1.47852 3.78223-.98535 6.64941-2.03809 8.60449-3.15625v-8.32422H957.2842z" id="text4737" style=""/><path d="M452.48368 323.247h-70.81117l22.37159-85.81315c.3072-1.18674.04851-2.46427-.71306-3.43956-.74701-.98146-1.91087-1.54572-3.15429-1.54572H381.1362c-1.8082 0-3.39407 1.2272-3.86171 2.97202l-26.85513 103.05093c-.32015 1.19167-.04851 2.46427.70174 3.43413.75833.98146 1.91654 1.55213 3.15444 1.55213h95.01961c1.81384 0 3.39392-1.2272 3.85585-2.97202l3.18291-12.23523c.32012-1.20302.0647-2.46427-.69526-3.44524-.75349-.97505-1.92253-1.55707-3.1546-1.55707m108.01332-27.30134h-34.25339l14.7795-18.63547c4.24376-5.23077 8.38506-10.9804 11.56229-15.58967.70174 4.31222 1.6428 9.38904 2.795 14.06073l5.1166 20.16441zm12.14986-60.52653c-.46242-1.74556-2.04786-2.97202-3.86171-2.97202h-19.04638c-1.20814-.00148-2.35084.54871-3.10303 1.49415l-82.87554 103.0339c-.9637 1.18674-1.15287 2.83484-.48993 4.22685.66134 1.37449 2.06482 2.25307 3.59925 2.25307h19.49684c1.20944 0 2.36151-.54822 3.10871-1.49415l21.33936-26.63841h54.62856l6.41707 25.13242c.44466 1.77418 2.03633 3.00064 3.85603 3.00064h20.18698c1.23207 0 2.40148-.56426 3.16009-1.55707.74701-.9637 1.00897-2.24172.69526-3.42821l-27.11175-103.05093m150.06483-2.97226H611.77772c-1.81421 0-3.38824 1.2272-3.85603 2.97745l-3.18291 12.24115c-.30674 1.1934-.04805 2.46155.70174 3.43956.75516.97628 1.92024 1.5472 3.15447 1.54572h40.8758l-22.37171 85.81882c-.30884 1.19167-.04848 2.46427.70661 3.43389.74701.9864 1.92253 1.55213 3.14898 1.55213h19.04607c1.8197 0 3.39972-1.2272 3.85603-2.97202l22.89643-87.83233h42.65553c1.87078 0 3.51956-1.2272 3.98716-2.98313l3.30275-12.23548c.325-1.18674.0647-2.46427-.72438-3.43956-.78742-.97505-1.98507-1.54572-3.26297-1.54572m125.58291 17.22052l3.18858-12.23548c.32-1.18674.0647-2.45859-.69045-3.43956-.76478-.97505-1.93949-1.54572-3.16595-1.54572H736.82922c-1.89372 0-3.52524 1.2272-4.00999 2.97745l-3.30837 12.24115c-.31371 1.18674-.0647 2.46402.73573 3.44524.781.97011 1.9966 1.5393 3.25711 1.5393h40.70476l-22.38874 85.81882c-.29607 1.19167-.04848 2.46427.70661 3.43413.74701.9864 1.91074 1.55707 3.14861 1.55707h19.05767c1.81952 0 3.39959-1.22572 3.85023-2.97745l22.89643-87.83233h42.95789c1.82532 0 3.40527-1.22572 3.85603-2.98313m44.23662-15.67453c-.76478-.97505-1.93381-1.54572-3.16009-1.54572h-19.50257c-1.81384 0-3.40527 1.22572-3.86171 2.97745l-26.86077 103.04525c-.30254 1.19167-.0647 2.46427.70661 3.43389.75349.9864 1.91654 1.55213 3.15429 1.55213h19.51398c1.80237 0 3.37677-1.2272 3.85023-2.97202l26.84369-103.05118c.32-1.18674.04848-2.46427-.68398-3.43956M994.04082 323.247h-42.39314c-14.02082 0-23.42695-2.97202-27.9561-8.84723-4.19268-5.42469-4.78574-13.71853-1.72848-25.35496 6.46864-24.83018 22.41168-36.39235 50.16244-36.39235h42.41029c1.81637.00296 3.40268-1.22843 3.85036-2.9888l3.18297-12.2298c.32506-1.18674.06464-2.46427-.69045-3.43956-.7583-.98146-1.92802-1.54572-3.16015-1.54572h-43.98463c-40.41948 0-69.86431 20.39805-78.76853 54.58865-4.10701 15.68639-2.25887 29.15375 5.31626 38.93064 8.8357 11.44276 24.93862 17.48895 46.59144 17.48895h43.98463c1.81033.00123 3.39293-1.22054 3.85023-2.97202l3.18297-12.23523c.33147-1.20302.06464-2.46427-.69045-3.44524-.7583-.97505-1.92802-1.55707-3.16015-1.55707m153.61294-89.25297c-.74708-.97505-1.91654-1.54572-3.143-1.54572h-101.37408c-1.81391 0-3.41107 1.22572-3.86171 2.97745l-26.86651 103.04525c-.29607 1.19167-.06464 2.46427.71303 3.43389.74214.9864 1.91087 1.55213 3.143 1.55213h102.95976c1.81082.00296 3.39429-1.21955 3.85011-2.97202l3.18852-12.23548c.32012-1.20302.04848-2.45859-.69045-3.43956-.76965-.97505-1.91654-1.56348-3.16558-1.56348h-78.7401l7.05023-27.03194h72.4314c1.81391 0 3.41107-1.2272 3.87305-2.98313l2.96043-11.39119c.30236-1.19809.06464-2.46427-.70661-3.43956-.74214-.98146-1.91654-1.54572-3.14868-1.54572h-70.3662l6.3087-24.20252h79.25341c1.80243 0 3.37677-1.2272 3.85023-2.98337l3.19444-12.23548c.29089-1.18674.06464-2.46427-.71303-3.43956"/><path d="M151.80128 280.02092h44.08168c1.66544 0 3.12582-1.14159 3.51941-2.75515l9.83961-39.72385c.27325-1.08977.01616-2.23013-.66779-3.10871-.6791-.8845-1.73415-1.39226-2.85224-1.39226h-44.08717c-1.66559 0-3.12018 1.14159-3.51956 2.75515l-9.84544 39.72385c-.26194 1.08977-.01132 2.23605.66779 3.10871.68928.88006 1.74561 1.39374 2.86357 1.39226m32.94155 56.44845l9.83397-39.73495c.2684-1.07843.01616-2.21902-.66779-3.10303-.68395-.87315-1.7398-1.3856-2.85776-1.3856h-44.07602c-1.66559 0-3.12018 1.12851-3.52522 2.74948l-9.83412 39.72385c-.27326 1.08977-.03234 2.24172.65647 3.10303.69528.8845 1.74563 1.3856 2.85791 1.3856h44.09316c1.66544 0 3.1142-1.13024 3.51941-2.73788m-8.34513 14.96718h-44.08733c-1.66559 0-3.12018 1.13024-3.51373 2.74948l-9.83961 39.7236c-.2684 1.09471-.01618 2.2247.65647 3.12006.69528.87809 1.75113 1.39226 2.8634 1.39226h44.07601c1.67047.00271 3.12746-1.13418 3.53088-2.75515l9.83378-39.74063c.2684-1.07201.01616-2.21335-.66779-3.09168-.68339-.88179-1.73656-1.39768-2.85224-1.39694" class="cls-4"/><path d="M215.72759 280.02092h44.08733c1.66544 0 3.11451-1.14159 3.51941-2.75515l9.83397-39.72385c.27325-1.08977.03235-2.23013-.66779-3.10871-.68395-.8845-1.73415-1.39226-2.85224-1.39226h-44.0815c-1.66559 0-3.12018 1.14159-3.51941 2.75515l-9.83961 39.72385c-.26674 1.08385-.02051 2.23013.66779 3.10871.68481.87957 1.73745 1.39324 2.85208 1.39226m32.94138 56.44845l9.83961-39.73495c.2684-1.07843.01616-2.21902-.67263-3.10303-.6791-.87315-1.734-1.3856-2.85224-1.3856H210.9024c-1.66559 0-3.12018 1.12851-3.52521 2.74948l-9.83412 39.72385c-.2684 1.08977-.01616 2.24172.66131 3.10303.69526.8845 1.74563 1.3856 2.86356 1.3856h44.08168c1.66544 0 3.12018-1.13024 3.51941-2.73788"/><path d="M240.32391 351.43705h-44.07585c-1.67142 0-3.12601 1.13024-3.52521 2.74948l-9.84544 39.7236c-.2684 1.09471-.01616 2.2247.66779 3.12006.69042.87809 1.7398 1.39226 2.85791 1.39226h44.08168c1.67707 0 3.12018-1.13517 3.52521-2.75515l9.83378-39.74063c.2684-1.07201.01616-2.21335-.66779-3.09168-.69042-.8845-1.7398-1.39694-2.85224-1.39694" class="cls-4"/><path d="M336.43863 234.43346c-.69526-.8845-1.7398-1.39226-2.85776-1.39226h-44.07601c-1.67124 0-3.12582 1.14159-3.51941 2.75515l-9.85109 39.72385c-.26193 1.08977-.01616 2.23605.67263 3.10871.69042.8845 1.73415 1.39226 2.84644 1.39226h44.0757c1.67722 0 3.12601-1.14159 3.52539-2.75515l9.85093-39.72385c.2684-1.08977.01616-2.23013-.66779-3.10871m-17.52227 57.81159h-44.0815c-1.67124 0-3.12018 1.12851-3.51941 2.74948l-9.84544 39.7236c-.26193 1.08977-.03235 2.24172.66779 3.10303.68395.87809 1.7398 1.3856 2.85224 1.3856h44.08736c1.66544 0 3.12018-1.13024 3.52521-2.73788l9.83378-39.73495c.2684-1.07843.03235-2.21902-.66131-3.10328-.69526-.87809-1.7398-1.3856-2.85776-1.3856"/><path d="M304.25022 351.43705h-44.07601c-1.67142 0-3.12601 1.13024-3.51956 2.74948l-9.84544 39.7236c-.26193 1.09471-.03235 2.2247.66131 3.12006.69526.87809 1.7398 1.39226 2.85224 1.39226h44.093c1.65992 0 3.11451-1.13517 3.51956-2.75515l9.83378-39.74063c.26193-1.07201.03235-2.21335-.66779-3.09168-.69042-.8845-1.73415-1.39694-2.85224-1.39694m75.12466 13.63759h-17.90532c-9.50879 0-15.64648 3.42821-17.26646 9.63995-.65647 2.53828-.35895 4.649.90063 6.27465 1.77973 2.29872 5.37902 3.47386 10.69531 3.47386h8.60187c2.52693 0 4.04425.38809 4.66029 1.18032.44466.58695.50125 1.50526.17138 2.7665-.95883 3.69073-4.92271 4.4721-8.07135 4.4721h-20.06149c-.42202 0-.81008.28447-.91195.69526l-.98146 3.76474a.96529.96529 0 0 0 .17138.8053c.1827.22797.46245.37675.74701.37675h19.7934c9.2349 0 15.45811-3.55922 17.07245-9.74851.69526-2.63525.38159-4.80863-.91843-6.4856-1.79673-2.32166-5.41896-3.52518-10.74657-3.52518h-8.53346c-2.58399 0-4.13544-.38168-4.74584-1.17539-.4107-.51244-.46729-1.3291-.1617-2.45835.79877-3.08601 3.21153-4.4151 8.04856-4.4151h18.47577c.42202 0 .79877-.27978.90063-.71303l.97502-3.7418c.08083-.28447.01616-.58202-.16493-.80999-.17625-.22304-.45113-.37675-.74701-.37675m61.79523.00027h-31.03051c-.43334 0-.80361.29582-.91355.71796l-8.23095 31.54943a.96382.96382 0 0 0 .17138.8053c.17625.22797.45597.37675.74217.37675h31.52676c.4285 0 .79229-.3089.90708-.70809l.97499-3.74747c.08086-.29582.01616-.5756-.16493-.82775-.17622-.23439-.45113-.35898-.74214-.35898h-24.46531l2.29878-8.82996h22.39438c.4285 0 .80364-.28447.91195-.71303l.90708-3.47386c.08086-.27978.00567-.60472-.16493-.82775-.17622-.22797-.45594-.35405-.75349-.35405h-21.89233l2.07614-7.96865h24.47098c.42689 0 .79877-.27978.90708-.71303l.97499-3.7418c.08086-.28447.01616-.58202-.16493-.80999-.17622-.22304-.45113-.37675-.74214-.37675m71.08654.00172h-7.92307c-.29107 0-.57079.1616-.75349.38809l-15.3955 20.72323c-1.04937 1.40361-2.3216 3.23996-3.25162 4.63173-.23932-1.34044-.54168-2.97202-.83269-4.28952l-4.9397-20.72323c-.11318-.41079-.48506-.73079-.9249-.73079h-7.91727c-.4285 0-.79877.29582-.90708.71796l-8.2311 31.54943c-.0647.27978 0 .57067.17622.8053.17622.22797.45594.37675.74214.37675h5.49304c.42202 0 .80364-.3089.91843-.70809l4.75151-18.27032c.25061-.95235.51257-2.07617.76478-3.1773a53.88616 53.88616 0 0 0 .55944 2.7665l4.50053 18.66409c.11318.41079.48993.72438.91843.72438h5.83549c.30236 0 .5756-.1616.75349-.37675l14.16343-18.67543c.59824-.76978 1.2499-1.6713 1.88811-2.60687-.21181.78088-.4285 1.54103-.60472 2.21902l-4.75731 18.25897c-.08086.27978-.01166.57067.17141.8053.17622.22797.45113.37675.74214.37675h5.8353c.43331 0 .80524-.3089.91355-.70809l8.21963-31.5551c.08086-.28447.01616-.58202-.16167-.80999-.1827-.22304-.46242-.37675-.74701-.37675m37.2766.00073h-5.96662c-.43978 0-.81005.29582-.91843.71796l-8.21982 31.54943c-.08086.27978-.01616.57067.16493.8053.17622.22797.45594.37675.74214.37675h5.97778c.43978 0 .79877-.3089.91195-.70809l8.21982-31.5551a.89542.89542 0 0 0-.16506-.80999c-.17622-.22304-.45594-.37675-.74701-.37675m61.51387.00049h-13.47316c-12.24109 0-21.15099 6.18904-23.83762 16.525-1.23207 4.70599-.69045 8.73867 1.57489 11.6764 2.64672 3.41686 7.51222 5.24779 14.03779 5.24779h13.47316c.43331 0 .80364-.3089.91195-.70809l.97499-3.74747c.08086-.29582.01277-.5756-.16506-.82775-.17153-.23439-.45113-.35898-.75349-.35898h-12.98274c-4.37507 0-7.32403-.95235-8.77291-2.82917-1.33397-1.73397-1.53443-4.32924-.57079-7.9916 2.01357-7.72908 6.97054-11.34555 15.62354-11.34555h12.97694c.43331 0 .79877-.27978.90708-.71303l.98146-3.7418a.87966.87966 0 0 0-.17141-.80999c-.17172-.22304-.44466-.37675-.73573-.37675m38.70944 28.31638c-5.28203 0-8.43644-.90054-9.94244-2.85779-1.34692-1.72829-1.50538-4.44372-.50769-8.25386 2.58417-9.94219 8.61914-11.96729 16.88441-11.96729 5.20795 0 8.33362.89585 9.83394 2.84644 1.35173 1.75124 1.51179 4.59176.46242 8.63036-2.14501 8.24252-6.99354 11.60214-16.73027 11.60214h-.00037zm7.48378-28.70891c-13.95791 0-22.87348 5.87521-25.77698 16.99846-1.31781 5.03117-.85533 9.03548 1.38085 11.92732 2.7266 3.5306 8.07715 5.32206 15.90326 5.32206 14.10052 0 22.73668-5.64699 25.64585-16.75865 1.34044-5.12813.85052-9.20671-1.42612-12.13851-2.73794-3.55947-8.02577-5.35068-15.72636-5.35068m82.50422.39352h-5.47021c-.43836.00049-.82196.29483-.93619.71796l-6.08061 23.35848c-.35429-.73079-.77613-1.55707-1.19167-2.29872l-12.44075-21.28798c-.16493-.30717-.46729-.48999-.79877-.48999h-6.68514c-.41715 0-.79877.29582-.91355.71796l-8.21396 31.54968c-.08086.27978-.00438.57067.16493.8053.1827.22797.45594.37675.74701.37675h5.47589c.43978 0 .8214-.3089.92971-.70809l6.14352-23.5751c.38803.77619.85533 1.68265 1.39701 2.61822l12.37222 21.18535c.17141.27978.48506.47864.82788.47864h6.45704c.41715 0 .79877-.3089.90708-.70809l8.21396-31.5551a.89609.89609 0 0 0-.16493-.80999c-.17141-.22304-.44466-.37675-.74214-.37675m39.55417 27.80911h-8.76729l5.7611-22.16632h9.2637c5.09378 0 8.09417.82775 9.4517 2.56098 1.26606 1.63158 1.34044 4.36946.23914 8.55635-2.14482 8.26521-6.17196 11.04899-15.94884 11.04899h.00049zm8.06568-27.80763h-16.65607c-.4285 0-.79877.29582-.90708.71796l-8.21982 31.54943c-.08086.27978-.03399.57067.17141.80358.17172.22797.45594.37033.73573.37033h16.59353c13.13669 0 21.27059-5.57297 24.13418-16.56472 1.33397-5.10519.89579-9.13812-1.27735-11.96161-2.56086-3.30263-7.32384-4.91694-14.57379-4.91694m81.77386.00196h-5.82414c-.43978 0-.81493.29582-.90708.71796l-4.96234 19.01764c-1.76845 6.74219-4.62038 8.57904-13.23939 8.57904-4.70038 0-7.26161-.60472-8.31666-1.96219-.87315-1.11741-.89579-3.01742-.09702-6.1318l4.95697-19.03466c.09702-.28447.01776-.58202-.16506-.80999-.17153-.22304-.44466-.37675-.73573-.37675h-5.84116c-.42202 0-.79877.29582-.91195.71796l-5.0823 19.54809c-1.00897 3.85603-.64999 6.93636 1.06072 9.15514 2.31025 2.97745 6.9363 4.43213 14.18039 4.43213 12.29833 0 19.39981-4.30112 21.69859-13.12541l5.11092-19.54217c.0647-.28447 0-.58202-.16506-.80999-.19886-.22304-.45113-.37675-.76478-.37675m59.92708.00175h-13.46187c-12.24109 0-21.1566 6.18904-23.84897 16.525-1.23207 4.70599-.6791 8.73867 1.57489 11.6764 2.66374 3.41686 7.51801 5.24779 14.03779 5.24779h13.45601c.44466 0 .8214-.3089.92971-.70809l.9637-3.74747c.09702-.29582.03399-.5756-.16167-.82775-.17622-.23439-.45113-.35898-.74701-.35898h-12.97114c-4.38673 0-7.34117-.95235-8.76729-2.82917-1.36956-1.73397-1.54578-4.32924-.59824-7.9916 2.02504-7.72908 6.98756-11.34555 15.63501-11.34555h12.97127c.43978 0 .81653-.27978.92971-.71303l.9637-3.7418c.08086-.28447.01295-.58202-.16506-.80999-.17622-.22304-.45113-.37675-.74214-.37675m58.25242.00099h-34.03084c-.42202 0-.79877.29582-.90708.71796l-.9637 3.7418c-.09696.27978-.03392.5756.16481.82775.16493.23439.44459.35405.74214.35405h12.8513l-6.93057 26.62682c-.0808.27978-.01283.57067.16506.8053.17628.22797.45113.37675.7583.37675h5.82969c.43978 0 .79235-.3089.90708-.70809l7.06762-27.10028h13.35905c.43978 0 .79235-.27978.90708-.71303l.98627-3.7418c.06464-.28447.01295-.58202-.16493-.80999-.1827-.22304-.46248-.37675-.74214-.37675m38.07031 28.3149c-5.26482 0-8.43644-.90054-9.94799-2.85779-1.34044-1.72829-1.50044-4.44372-.50122-8.25386 2.5896-9.94219 8.63604-11.96729 16.91285-11.96729 5.19068 0 8.32233.89585 9.81685 2.84644 1.36956 1.75124 1.52314 4.59176.46248 8.63036-2.16179 8.24252-6.98756 11.60214-16.74162 11.60214h-.00136zm7.48964-28.70891c-13.96377 0-22.86812 5.87521-25.7771 16.99846-1.31775 5.03117-.83269 9.03548 1.39707 11.92732 2.72641 3.5306 8.06549 5.32206 15.88031 5.32206 14.11772 0 22.74229-5.64699 25.64005-16.75865 1.34044-5.12813.87315-9.20671-1.40348-12.13851-2.74393-3.55947-8.03712-5.35068-15.73771-5.35068m54.50365 6.03484h11.40834c4.31802 0 6.70802.50134 7.56366 1.60246.31346.40413.69045 1.2272.12941 3.31398-1.08977 4.19824-3.41699 5.35068-10.86086 5.35068h-10.92933l2.68878-10.26712zm26.10204-1.73397c-2.03053-2.6239-6.25146-3.90735-12.86844-3.90735h-18.82359c-.42843 0-.78742.29113-.90066.71796l-8.24239 31.54968c-.06464.27978 0 .57067.16493.80358.19886.22797.45594.37033.76484.37033h5.82401c.43978 0 .81653-.3089.92324-.70809l2.91478-11.18567h8.00862c3.20567 0 3.79891.52552 5.43049 3.25699l4.80863 8.15715c.17628.30717.48506.47864.82134.47864h6.63684c.51898 0 .941-.42856.941-.94742 0-.27978-.11325-.54156-.29607-.70809l-4.98565-8.38512c-.62742-1.10606-1.18032-1.95084-1.80823-2.64117 6.44576-1.44876 10.27317-4.74004 11.63064-9.98216.73079-2.80055.41067-5.09384-.94754-6.87345m10.60748 20.27074h-7.32421c-.21662 0-.38156.16481-.38156.38168v1.0202c0 .0486.00419.11325.03392.12928.04848.1616.18739.26202.34763.26202h2.64129V398.23c0 .03232.00419.08093.03392.12928.04848.16481.1827.27978.34763.27978h1.27247c.20083 0 .3654-.17147.3654-.38809v-7.21023h2.66387c.21181 0 .38156-.16481.38156-.38168v-1.07349c-.03392-.18282-.1827-.3427-.38809-.3427m10.99792.00667h-1.71115c-.16506 0-.29607.09696-.34776.23439l-2.16771 5.64699c-.0808.23439-.17628.50776-.27337.76484-.0808-.26202-.17628-.53045-.2619-.76484l-2.22445-5.64699c-.04848-.14557-.20071-.23439-.35898-.23439h-1.69992c-.21181 0-.37687.18751-.37687.40413v8.60174c0 .21662.16493.38809.37675.38809h1.17551c.12941 0 .23932-.06464.29619-.18282.06464-.0486.09696-.14557.09696-.22797v-4.73436l1.95084 4.91126c.06464.12928.18739.23439.34257.23439h1.2499c.16493 0 .30717-.11325.36527-.23439l1.92222-4.91694v4.76298c0 .21662.16481.38809.37008.38809h1.26606c.11325 0 .21008-.06464.29594-.16481.06464-.06464.0808-.1616.0808-.24574v-8.60174c0-.21662-.16493-.38168-.35898-.38168" class="cls-4"/></svg>