<svg xmlns="http://www.w3.org/2000/svg" role="img" viewBox="-7.32 -7.32 380.64 93.39"><title>Lawrence Berkeley National Labs (member) logo</title><style>svg {enable-background:new 0 0 366.1 79}</style><style>.st1{fill:#fff}</style><path fill="#00313c" d="M111.3 0H0v79h111.3V0zm23.3 56.6c1.8 0 3.6 0 5.1 1 1.8 1.1 2.7 2.8 2.7 4.9 0 2.5-1.7 4.2-4 4.8v.1c2.8.6 4.7 2.7 4.7 5.6 0 2-1.2 3.7-2.7 4.8-1.6 1.2-3.8 1.2-5.7 1.2h-10V56.6h9.9zm-4.8 8.9h3.6c.9 0 2 .1 2.8-.5.6-.5.9-1.3.9-2 0-.8-.4-1.6-1.1-2-.8-.4-2.1-.3-3-.3h-3.2v4.8zm0 9.3h3.6c.9 0 2.2.1 3-.5.8-.5 1.2-1.4 1.2-2.3 0-.8-.5-1.7-1.3-2.2-.8-.4-1.8-.4-2.6-.4h-3.9v5.4zm23.1-13.9v4.5h8.5v4.2h-8.5v5h10.8V79h-16V56.6h16v4.3h-10.8zM173.6 79h-5.2V56.6h9.4c2 0 4 0 5.7 1.1 1.8 1.2 2.8 3.4 2.8 5.6 0 2.5-1.5 4.9-3.9 5.8l4.1 9.9h-5.8l-3.4-8.8h-3.8V79zm0-12.7h2.9c1.1 0 2.3.1 3.2-.5.8-.5 1.3-1.6 1.3-2.5 0-.9-.5-1.8-1.3-2.3-.9-.6-2.4-.4-3.4-.4h-2.7v5.7zm23 .8l7-10.5h5l-5.4 8L210 79h-5.8l-4.4-9.7-3.2 4.5V79h-5.1V56.6h5.1v10.5zm22.6-6.2v4.5h8.5v4.2h-8.5v5H230V79h-16V56.6h16v4.3h-10.8zm29.4 13.6V79h-14.2V56.6h5.2v18h9zm9.1-13.6v4.5h8.5v4.2h-8.5v5h10.8V79h-16V56.6h16v4.3h-10.8zm25.8 8.6V79h-5.2v-9.4l-7.1-13h6.1l4.3 8.5 4.2-8.5h4.7l-7 12.9zm36.3 5V79h-14.2V56.6h5.2v18h9zm23.6 4.5h-5.6l-1.4-4.6h-7.2l-1.4 4.6h-4.6l7.2-22.4h6.1l6.9 22.4zm-8.2-8.7l-2.4-7.9-2.4 7.9h4.8zm22.4-13.7c1.8 0 3.6 0 5.1 1 1.8 1.1 2.7 2.8 2.7 4.9 0 2.5-1.7 4.2-4 4.8v.1c2.8.6 4.7 2.7 4.7 5.6 0 2-1.2 3.7-2.7 4.8-1.6 1.2-3.8 1.2-5.7 1.2h-10V56.6h9.9zm-4.8 8.9h3.6c.9 0 2 .1 2.8-.5.6-.5.9-1.3.9-2 0-.8-.4-1.6-1.1-2-.8-.4-2.1-.3-3-.3h-3.2v4.8zm0 9.3h3.6c.9 0 2.2.1 3-.5.8-.5 1.2-1.4 1.2-2.3 0-.8-.5-1.7-1.3-2.2-.8-.4-1.8-.4-2.6-.4h-3.9v5.4z"/><path d="M96.6 79h-2.1V41.5l-5.6-7.6-5.6 7.6V79h-2.1V40.8l7.7-10.5 7.7 10.5V79zm-82-28.4h3.8v-1.4h-7.2v5.2h3.5v-3.8zm9.9 0h3.8v-1.4H21v5.2h3.5v-3.8zm10 0h3.8v-1.4H31v5.2h3.5v-3.8zm9.9 0h3.8v-1.4H41v5.2h3.5v-3.8zm10 0h3.8v-1.4H51v5.2h3.5v-3.8zm10 0h3.8v-1.4H61v5.2h3.5v-3.8zM38.6 18.8l-.9-.5-1 .6-7.9 4.3v2.9l8.8-4.8 8.8 4.8v-2.9l-7.8-4.4z" class="st1"/><path d="M69 41c-8.7-8.4-20.1-13-32.3-13-9.5 0-18.7 2.9-26.4 8.2l-1.1.8v3.2l2.6-1.8c7.4-5.1 16-7.8 25-7.8 11.6 0 22.6 4.5 30.8 12.6.2.2.6.4.9.4h4.6V79h2.6V41H69zm19.2 4.5h-2.3v8.8h2.3v-8.8zm4 0h-2.3v8.8h2.3v-8.8z" class="st1"/></svg>