<svg xmlns="http://www.w3.org/2000/svg" role="img" viewBox="-0.82 -2.32 250.64 103.64"><title>LeapFrog Semiconductor logo</title><defs><style>.cls-3{fill:#1c4592}</style></defs><path d="M210.86 2.67c18.17-.72 33.55 13.47 34.27 31.65l-4.15.17c-.63-15.89-14.07-28.3-29.96-27.67l-.16-4.14z" class="cls-3"/><path d="M211.27 12.83c12.57-.5 23.2 9.32 23.7 21.88l-4.15.17c-.41-10.28-9.11-18.31-19.39-17.9l-.16-4.14zm.4 10.17c3.37-.13 6.59 1.05 9.07 3.35 2.48 2.29 3.92 5.41 4.06 8.78l-4.15.16c-.09-2.26-1.06-4.35-2.73-5.89s-3.83-2.34-6.09-2.25l-.16-4.14z" class="cls-3"/><path fill="#1c4592" fill-rule="evenodd" d="M216.54 38.71c0 4.48-3.85 8.11-8.6 8.11-.41 0-.83-.02-1.23-.09-3.76-.49-6.73-3.3-7.25-6.85-.07-.38-.1-.77-.1-1.17 0-4.48 3.84-8.11 8.58-8.11s8.6 3.63 8.6 8.11z"/><path d="M12.7 75.34V39.68H4.82v42.51h27.73v-6.84H12.7zm37.72-27.21c-10.37 0-15.55 5.09-15.55 15.25s5.66 15.96 16.97 15.96c4.35 0 7.89-.3 10.65-.9V72.2c-3.16.59-6.3.89-9.46.89-6.84 0-10.28-2.1-10.28-6.3h20.41c1.85-12.43-2.4-18.66-12.74-18.66zm-7.68 12.9c.36-4.48 2.62-6.71 6.78-6.71 4.44 0 6.51 2.23 6.24 6.71H42.74zm35.11-12.9c-3.41 0-6.8.49-10.17 1.48v6.25c3.37-.99 6.77-1.49 10.17-1.49 5.4 0 8.11 1.4 8.11 4.19v2.06c-2.13-.4-4.55-.59-7.25-.59-9.04 0-13.56 3.2-13.56 9.59s4.22 9.73 12.63 9.73c3.07 0 5.96-.74 8.68-2.21l3.38 2.21h3.99V58.42c0-6.86-5.34-10.28-15.99-10.28zm8.11 22.53c-2.25 1.63-4.97 2.43-8.18 2.43s-4.76-1.19-4.76-3.57 1.89-3.57 5.68-3.57c2.85 0 5.27.2 7.25.59v4.11zm26.6-22.53c-5.02 0-9.59.42-13.73 1.28v35.98h7.88v-7.54c2.34.99 4.76 1.49 7.24 1.49 10.07 0 15.1-5.47 15.1-16.38 0-9.88-5.5-14.83-16.49-14.83zm1.36 24.67c-2.66 0-5.06-.54-7.21-1.61V54.91c1.48-.28 3.54-.42 6.18-.42 5.58 0 8.38 2.8 8.38 8.42 0 6.59-2.44 9.9-7.35 9.9z" class="cls-3"/><path fill="#9bcb3c" d="M160.76 45.5v-6.77h-27.91v42.49h7.73V63.24h19.17V56.2h-19.08V45.5h20.08zm12.37 8.51l-.98-3.99h-6.09v31.21h7.88V60.34c2.31-2.64 4.94-3.95 7.88-3.95v-6.37c-3.05 0-5.95 1.33-8.68 3.99zm24.53-4.28c-10.5 0-15.75 5.3-15.75 15.9.04 10.58 5.29 15.87 15.75 15.87s15.75-5.29 15.75-15.87-5.26-15.9-15.75-15.9zm0 25.55c-5.26 0-7.88-3.26-7.88-9.78s2.62-9.54 7.88-9.54 7.88 3.18 7.88 9.54-2.63 9.78-7.88 9.78zm34.4-25.26c-11.39 0-17.08 5.14-17.08 15.43s4.93 15.18 14.8 15.18c2.7 0 5.21-.5 7.54-1.49 0 4.76-2.93 7.14-8.79 7.14-3.83 0-7.25-.49-10.29-1.48v6.24c2.97.99 6.38 1.49 10.23 1.49 11.15 0 16.73-3.77 16.73-11.3V51.3c-5.13-.85-9.5-1.28-13.13-1.28zm5.26 22.48c-2.15 1.07-4.66 1.6-7.52 1.6-4.69 0-7.04-2.91-7.04-8.71s2.83-9 8.47-9c2.77 0 4.81.24 6.09.71v15.39z"/><path fill="#df7b1c" d="M10.21 89.16H8.08c-1 0-1.52-.48-1.52-1.4 0-1.23 1.06-1.84 3.14-1.84 1.4 0 2.72.24 3.98.7v-2.1c-1.26-.4-2.58-.61-3.98-.61-3.63 0-5.46 1.28-5.46 3.85 0 2.33 1.28 3.49 3.83 3.49h2.13c1.18 0 1.77.46 1.77 1.4 0 1.28-.96 1.92-2.87 1.92-1.59 0-3-.24-4.24-.7v2.1c1.24.41 2.66.61 4.24.61 3.45 0 5.18-1.31 5.18-3.92 0-2.33-1.36-3.49-4.08-3.49zm16.85-1.84c-3.05 0-4.57 1.49-4.57 4.48s1.66 4.68 4.98 4.68c1.28 0 2.33-.08 3.13-.25v-1.84c-.92.17-1.85.26-2.77.26-2.02 0-3.03-.62-3.03-1.85h6c.54-3.66-.71-5.48-3.74-5.48zm-2.26 3.79c.11-1.32.77-1.98 2-1.98 1.29 0 1.92.66 1.84 1.98h-3.83zm25.82-3.79c-1.02 0-2.11.42-3.29 1.26-.48-.83-1.29-1.26-2.46-1.26-1.03 0-2.07.38-3.13 1.15l-.26-1.15h-1.8v9.16h2.31v-6.1c.73-.79 1.44-1.19 2.18-1.19.85 0 1.27.52 1.27 1.56v5.73h2.31v-6.1c.75-.79 1.48-1.19 2.17-1.19.86 0 1.28.52 1.28 1.53v5.76h2.31V90.8c0-2.31-.96-3.48-2.89-3.48zm12.23-3.31v1.84h2.31v-1.84h-2.31zm0 3.32v9.16h2.31v-9.16h-2.31zm16.31 1.83c.82 0 1.6.08 2.37.25v-1.82c-.77-.19-1.61-.26-2.54-.26-3.37 0-5.06 1.47-5.06 4.4 0 3.17 1.69 4.76 5.06 4.76.92 0 1.77-.08 2.54-.25V94.4c-.77.17-1.55.26-2.37.26-1.94 0-2.92-.98-2.92-2.93 0-1.7.98-2.56 2.92-2.56zm15.09-1.93c-3.08 0-4.62 1.56-4.62 4.68.01 3.11 1.56 4.65 4.62 4.65s4.62-1.55 4.62-4.65-1.53-4.68-4.62-4.68zm0 7.51c-1.53 0-2.31-.95-2.31-2.87s.78-2.8 2.31-2.8 2.31.94 2.31 2.8-.77 2.87-2.31 2.87zm18.81-7.42c-1.12 0-2.23.38-3.34 1.16l-.29-1.16h-1.78v9.16h2.31v-6.13c.83-.78 1.65-1.16 2.46-1.16 1 0 1.51.52 1.51 1.52v5.77h2.31v-5.75c0-2.27-1.06-3.41-3.17-3.41zm18.66-3.31v3.75c-.65-.29-1.36-.44-2.15-.44-2.96 0-4.44 1.47-4.44 4.4 0 3.17 1.55 4.76 4.62 4.76 1.45 0 2.88-.17 4.28-.54V84.01h-2.31zm0 10.19c-.59.22-1.31.33-2.14.33-1.44 0-2.17-.95-2.17-2.87 0-1.61.73-2.42 2.17-2.42.83 0 1.55.16 2.14.48v4.48zm17.93-6.88v6.13c-.85.78-1.66 1.16-2.47 1.16-1 0-1.51-.5-1.51-1.52v-5.77h-2.31v5.75c0 2.27 1.06 3.41 3.16 3.41 1.12 0 2.25-.38 3.36-1.16l.28 1.16h1.81v-9.16h-2.31zm16.31 1.84c.82 0 1.61.08 2.37.25v-1.82c-.75-.19-1.6-.26-2.54-.26-3.37 0-5.06 1.47-5.06 4.4 0 3.17 1.69 4.76 5.06 4.76.94 0 1.78-.08 2.54-.25V94.4c-.75.17-1.55.26-2.37.26-1.94 0-2.92-.98-2.92-2.93 0-1.7.98-2.56 2.92-2.56zm15.22 0v-1.84h-2.13l-.34-1.48h-1.72v8.17c0 1.65.78 2.47 2.31 2.47h1.88v-1.82h-.77c-.74 0-1.11-.44-1.11-1.28v-4.22h1.88zm12.96-1.93c-3.09 0-4.62 1.56-4.62 4.68.01 3.11 1.55 4.65 4.62 4.65s4.62-1.55 4.62-4.65-1.55-4.68-4.62-4.68zm0 7.51c-1.55 0-2.31-.95-2.31-2.87s.77-2.8 2.31-2.8 2.31.94 2.31 2.8-.78 2.87-2.31 2.87zm15.46-6.25l-.28-1.16h-1.8v9.16h2.31v-6.13c.69-.78 1.45-1.16 2.31-1.16v-1.86c-.9 0-1.74.38-2.55 1.16z"/></svg>