<svg xmlns="http://www.w3.org/2000/svg" role="img" viewBox="7.95 9.20 164.97 34.72"><title>LUBIS EDA (member) logo</title><defs><style>.cls-2,.cls-3{stroke-width:0}.cls-2{fill:#1a1a18}.cls-3{fill:#fff}</style></defs><path d="M30.99 12.44l-5.28 5.28 8.89 8.89-8.89 8.9 5.28 5.28 14.17-14.18-14.17-14.17zm-3.62 23.07l8.89-8.9-8.89-8.89 3.62-3.62L43.5 26.61 30.99 39.12l-3.62-3.61z" class="cls-2"/><path d="M43.5 26.61L30.99 39.12l-3.62-3.61 8.89-8.9-8.89-8.89 3.62-3.62L43.5 26.61z" class="cls-3"/><path d="M28.37 24.39l-.41-.41-.42-.42-6.67-6.67-9.72 9.72 9.72 9.73 4.45-4.45.83-.83 4.44-4.45-2.22-2.22zm-1.66 0L23.1 28l-1.4-1.39L25.31 23l1.4 1.39zm-5.84 10.28l-8.06-8.06 8.06-8.05 3.61 3.61-4.44 4.44 4.45 4.45-3.62 3.61zm4.45-4.44l-1.39-1.39 1.81-1.81 1.8-1.81 1.39 1.39-3.61 3.62z" class="cls-2"/><path d="M28.93 26.61l-3.61 3.62-1.39-1.39 1.81-1.81 1.8-1.81 1.39 1.39zm-2.22-2.22L23.1 28l-1.4-1.39L25.31 23l1.4 1.39z" class="cls-3"/><path d="M24.49 31.06l-3.62 3.61-8.06-8.06 8.06-8.05 3.61 3.61-4.44 4.44 4.45 4.45z" class="cls-3"/><path d="M56.51 19.91h3.1v10.65h4.98v2.76h-8.08V19.91zm13.58 8.87v-8.87h3.08v8.68c0 1.53.92 2.39 2.32 2.39s2.32-.86 2.32-2.39v-8.68h3.1v8.87c0 3.12-2.13 4.88-5.42 4.88s-5.4-1.76-5.4-4.88m23.93.42c0-1-.75-1.65-1.86-1.65h-1.93v3.41h1.93c1.15 0 1.86-.65 1.86-1.76m-3.8-7.05v3.26h1.72c1.19 0 1.9-.61 1.9-1.63s-.69-1.63-1.9-1.63h-1.72zm6.92 7.45c0 2.3-1.63 3.72-4.29 3.72h-5.73V19.91h5.52c2.66 0 4.31 1.32 4.31 3.49 0 1.74-1.02 2.78-2.57 3.07 1.55.15 2.76 1.28 2.76 3.14m6.33-9.7h3.1v13.41h-3.1zm8.86 9.02h3.1c0 1.46.82 2.32 2.18 2.32 1.15 0 1.8-.54 1.8-1.48 0-.82-.42-1.24-1.63-1.72l-2.41-.94c-1.8-.67-2.72-1.91-2.72-3.66 0-2.36 1.86-3.93 4.77-3.93s4.9 1.67 4.9 4.25h-3.1c0-1.25-.65-1.93-1.86-1.93-1.02 0-1.61.52-1.61 1.32 0 .75.52 1.21 1.84 1.74l2.22.88c1.86.73 2.7 1.97 2.7 3.77 0 2.51-1.95 4.14-4.92 4.14-3.29 0-5.27-1.76-5.27-4.77m17.74 4.4V19.91h7.49v1.17h-6.2v5h6.2v1.17h-6.2v4.9h6.2v1.17h-7.49zm15.58-1.17h2.62c3.75 0 5.65-2.74 5.65-5.54s-1.9-5.54-5.65-5.54h-2.62v11.07zm-1.28 1.17V19.91h4c4.44 0 6.86 3.27 6.86 6.7s-2.41 6.7-6.86 6.7h-4zm20.28-11.66l2.61 8.08h-5.19l2.59-8.08zm-.57-1.75l-4.56 13.41h1.4l.77-2.41h5.94l.79 2.41h1.4l-4.56-13.41h-1.17z" class="cls-2"/><path fill="none" stroke-width="0" d="M181.18 52.13H-.24V1.11h181.42z"/></svg>