<svg xmlns="http://www.w3.org/2000/svg" role="img" viewBox="-5.53 -5.53 287.82 136.82"><title>MachineWare GmbH (member) logo</title><path d="M167 3h1v1h-1zM3 98h1v1H3zm189 4h1v1h-1zm-125 1h1v1h-1zm181 0h1v1h-1zm-55 3h1v1h-1zm-174 5h1v1h-1zm22 0h1v1h-1zm177 0h1v1h-1zm-169 1h1v1h-1zm167 0h1v1h-1zm-30 1h1v1h-1zm-2 1h1v1h-1zm-167 2h1v1h-1zm120 0h1v1h-1zm62 0h1v1h-1zm-16 2h1v1h-1zm-46 1h1v1h-1zm-60 1h1v1h-1zm173 1h1v1h-1zm-188 1h1v1h-1zm-9 1h1v1h-1zm127 0h1v1h-1zm50 0h1v1h-1zm-64 1h1v1h-1zm88 1h1v1h-1z" fill="#838484"/><path d="M112 10h1v47h-1zm5 0h1v47h-1zm-5 47h1v1h-1zm5 0h1v1h-1zm58 40h1v1h-1zm-110 5h1v1h-1zm60 0h1v10h-1zm113 0h1v2h-1zm0 2h1v1h-1zm-63 1h1v1h-1zm65 0h1v3h-1zm-195 1h1v1h-1zm177 0h1v1h-1zm-143 1h1v1h-1zm161 1h1v1h-1zm-200 1h1v1h-1zm8 0h1v1h-1zm82 0h1v1h-1zm87 0h1v1h-1zm8 0h1v1h-1zm-92 1h1v1h-1zm-116 1h1v1h-1zm108 1h1v5h-1zm27 0h1v1h-1zm50 0h1v1h-1zm-50 1h1v1h-1zm100 0h1v1h-1zm-6 2h1v1h-1zm-121 2h1v1h-1zm-63 1h1v1h-1zm119 1h1v1h-1zm48 1h1v1h-1zm11 0h1v3h-1zm-41 3h1v1h-1zm39 0h2v1h-2zm2 0h1v1h-1zm-2 1h1v1h-1zm-186 1h1v1h-1z" fill="#9fa0a0"/><path d="M150 32h1v1h-1zM23 97h1v1h-1zm-1 2h1v1h-1zm183 1h1v1h-1zm-29 1h1v1h-1zm100 1h1v1h-1zm-101 2h1v1h-1zm89 0h1v2h-1zm-221 1h1v1h-1zm177 0h1v1h-1zm-157 1h1v1h-1zm67 0h1v1h-1zm134 0h1v1h-1zm-223 1h1v1h-1zm177 0h1v1h-1zm6 0h1v1h-1zm-162 1h1v1h-1zm-54 3h1v1H8zm194 0h1v1h-1zm-69 2h1v1h-1zm60 0h1v1h-1zm-155 6h1v1h-1zm177 0h1v1h-1zm49 1h1v3h-1zm0 3h1v1h-1zm-81 1h1v1h-1z" fill="#5e5e5e"/><path d="M127 33h1v1h-1zm-57 68h1v1h-1zm-28 3h1v1h-1zm23 0h1v1h-1zm154 0h1v1h-1zm33 2h1v1h-1zm-136 2h1v10h-1zm71 1h1v1h-1zm7 1h1v1h-1zm58 0h1v1h-1zm-87 2h1v1h-1zm14 0h1v1h-1zm-89 1h13v1H90zm13 0h1v1h-1zm52 0h9v1h-9zm9 0h1v1h-1zm76 0h1v1h-1zm25 0h9v1h-9zm9 0h1v1h-1zm-226 1h1v1h-1zm177 0h1v1h-1zm25 0h1v1h-1zm-134 4h1v1h-1zm134 0h1v1h-1zm-236 1h1v1h-1zm125 0h1v1h-1zm-124 2h1v1h-1zm20 2h1v1h-1zm177 0h1v1h-1zM0 125h1v1H0zm88 0h1v1h-1zm1 0h1v1h-1zm109 0h1v1h-1zm78 0h1v1h-1z" fill="#787878"/><path d="M2 100h1v1H2zm21 0h1v1h-1zm166 0h1v1h-1zM0 102h1v8H0zm127 0h1v1h-1zm-61 1h1v1h-1zm-61 1h1v1H5zm84 0h1v3h-1zm162 0h1v1h-1zM4 105h1v1H4zm17 0h1v1h-1zm181 1h1v1h-1zm-114 1h1v3h-1zm1 0h1v1h-1zm-89 3h1v1H0zm6 0h1v1H6zm35 0h1v1h-1zm47 0h1v1h-1zm130 0h1v1h-1zm-63 2h9v1h-9zm9 0h1v1h-1zm101 0h9v1h-9zm9 0h1v1h-1zM0 113h1v2H0zm48 0h1v1h-1zm1 0h1v1h-1zm200 1h1v1h-1zM0 115h1v1H0zm8 0h1v1H8zm80 2h1v3h-1zm92 0h1v1h-1zm69 0h1v1h-1zm-70 1h1v1h-1zm-90 1h1v3h-1zm-79 1h1v1h-1zm78 0h1v1h-1zm52 1h1v1h-1zm-64 1h1v1h-1zm13 0h1v1h-1zm-54 2h1v1h-1zm18 0h1v1h-1zm102 0h10v1h-10zm10 0h1v1h-1zm48 0h1v1h-1zm17 0h1v1h-1zm35 0h10v1h-10zm10 0h1v1h-1z" fill="#232424"/><path d="M107 3h1v1h-1zm21 6h1v1h-1zm34 0h1v1h-1zm-34 23h1v1h-1zm-3 2h1v1h-1zM25 97h1v1h-1zm149 0h1v1h-1zm15 0h1v1h-1zm1 0h1v1h-1zm15 0h1v1h-1zm-17 2h1v1h-1zM4 101h1v1H4zm-1 2h1v1H3zm19 0h1v1h-1zm165 0h1v1h-1zM6 106h1v1H6zm41 1h1v1h-1zm-42 1h1v1H5zm41 0h1v1h-1zm33 0h1v1h-1zm144 0h1v1h-1zm-31 1h1v1h-1zm9 0h1v1h-1zM7 113h1v1H7zm147 0h1v1h-1zm24 2h1v1h-1zm69 1h1v1h-1zm-207 1h8v1h-8zm8 0h1v1h-1zm30 0h1v1h-1zm139 0h8v1h-8zm8 0h1v1h-1zM9 118h1v1H9zm28 0h1v1h-1zm14 0h1v1h-1zm177 0h1v1h-1zm-149 1h1v1h-1zm102 1h1v1h-1zm16 2h2v1h-2zm2 0h1v1h-1zm-188 1h1v1h-1z" fill="#565656"/><path d="M123 9h1v25h-1zm5 24h1v1h-1zm-5 1h1v1h-1zm4 67h1v1h-1zm25 0h1v1h-1zm-24 1h1v1h-1zm-59 1h1v1h-1zm-67 1h1v10H2zm21 0h1v8h-1zm-4 1h1v1h-1zm26 2h1v1h-1zm177 0h1v1h-1zm-182 1h1v1h-1zm154 0h1v1h-1zm23 0h1v1h-1zm8 0h1v1h-1zm-49 2h1v1h-1zm3 0h1v1h-1zm-156 2h1v1h-1zm172 0h1v1h-1zM2 114h1v1H2zm131 0h1v1h-1zm-122 3h1v1h-1zm69 0h1v1h-1zm121 0h1v1h-1zm-162 1h1v1h-1zm159 0h1v1h-1zm18 0h1v1h-1zm-75 3h1v1h-1zm-76 1h1v1h-1zm8 1h1v1h-1zm122 0h1v1h-1zM2 125h1v1H2zm21 0h1v1h-1z" fill="#f2f2f2"/><path d="M2 97h1v1H2zm189 2h1v1h-1zm-17 1h1v1h-1zm16 1h1v1h-1zm-113 3h1v1h-1zm66 1h1v1h-1zm0 1h1v1h-1zm42 5h1v1h-1zm15 2h1v1h-1zm-15 3h1v1h-1zm-42 4h1v2h-1zm0 2h1v1h-1z" fill="#474747"/><path d="M112 9h1v1h-1zm5 0h1v1h-1zm34 23h1v25h-1zm0 25h1v1h-1zm-47 10h66v1h-66zm66 0h1v1h-1zm6 33h1v1h-1zm-108 1h1v1h-1zm4 0h1v1h-1zm133 0h1v1h-1zm-130 1h1v1h-1zm172 1h1v1h-1zm-9 2h1v2h-1zm0 2h1v1h-1zm2 2h1v2h-1zm0 2h1v1h-1zm-47 3h1v1h-1zm-178 2h1v1h-1zm225 0h1v3h-1zm-2 2h2v1h-2zm0 1h2v1h-2zm2 0h1v1h-1zm-2 1h1v2h-1zm0 2h1v1h-1zm-172 1h1v1h-1zm11 0h1v1h-1zm-13 1h1v1h-1z" fill="#a4a5a5"/><path d="M22 98h1v1h-1zm171 7h1v1h-1zm-66 4h1v2h-1zM8 110h1v1H8zm119 1h1v1h-1zm-80 1h1v1h-1zm177 0h1v1h-1zm-38 2h1v1h-1zm-59 1h1v2h-1zm7 0h1v1h-1zm65 0h1v1h-1zm-72 2h1v1h-1zm13 3h1v1h-1zm40 4h1v1h-1zm-55 1h1v1h-1zm58 0h1v1h-1z" fill="silver"/><path d="M251 103h1v1h-1zm-64 1h1v1h-1zm-141 1h1v1h-1zm-4 2h1v1h-1zm89 1h1v1h-1zm-27 1h1v1h-1zm-79 1h1v2h-1zm22 0h1v1h-1zm57 0h1v1h-1zm97 0h1v1h-1zm51 1h1v1h-1zm-227 1h1v1h-1zm117 0h1v1h-1zm-53 1h1v1h-1zm-73 2h1v1h-1zm88 0h1v1h-1zm-66 1h1v1h-1zm12 0h1v1h-1zm54 0h1v1h-1zm123 0h1v1h-1zm-190 5h1v1h-1zm144 0h1v1h-1zm18 0h1v1h-1zM0 124h1v1H0zm52 0h1v1h-1zm19 1h1v1h-1z" fill="#151616"/><path d="M108 3h58v1h-58zm58 0h1v1h-1zM21 101h1v1h-1zm48 0h1v1h-1zm181 1h1v1h-1zm-98 1h1v4h-1zm-88 2h1v1h-1zm14 0h1v1h-1zm108 1h1v1h-1zm5 0h1v1h-1zm-39 1h1v1h-1zM7 108h1v1H7zm2 5h1v1H9zm126 0h1v1h-1zm113 0h1v1h-1zm-208 1h1v1h-1zm177 0h1v1h-1zm-65 5h1v3h-1zm61 1h1v1h-1zm-29 1h1v1h-1zm68 0h1v1h-1zm-113 1h1v1h-1zm13 0h1v1h-1zm-78 1h1v1h-1zm51 1h1v1h-1zm18 1h1v1h-1z" fill="#8f9090"/><path d="M135 10h1v47h-1zm0 47h1v1h-1zM1 97h1v1H1zm23 0h1v1h-1zm119 5h1v2h-1zm49 1h1v1h-1zm57 0h1v1h-1zm-106 1h1v1h-1zm-98 1h1v1h-1zm177 0h1v1h-1zm-19 2h1v1h-1zm-25 2h1v1h-1zm-138 1h1v1h-1zm177 0h1v1h-1zm8 0h1v1h-1zm-39 2h1v1h-1zm-81 1h1v2h-1zm0 2h1v1h-1zm79 0h1v1h-1zm-169 2h1v1h-1zm24 0h1v1h-1zm177 0h1v1h-1zm-16 1h1v1h-1zm49 1h1v1h-1zm-188 1h1v1h-1zm-47 3h1v1h-1zm126 0h1v1h-1zm3 0h1v1h-1zm-71 1h1v1h-1zm71 0h1v1h-1z" fill="#464646"/><path d="M162 10h1v47h-1zm0 47h1v1h-1zm-86 46h1v1h-1zm101 2h1v1h-1zm14 0h1v1h-1zm-171 3h1v1h-1zm111 2h1v1h-1zm12 0h1v6h-1zm106 3h1v1h-1zm-106 3h1v1h-1zm-83 1h1v1h-1zm154 1h1v1h-1zm-30 2h1v1h-1zm-133 2h1v1h-1zm177 0h1v1h-1zm24 2h1v1h-1z" fill="#515151"/><path d="M148 33h1v1h-1zm-41 30h1v1h-1zm84 35h1v1h-1zM2 101h1v1H2zm21 0h1v1h-1zm151 0h1v1h-1zm-22 1h1v1h-1zm38 0h1v1h-1zM5 103h1v1H5zm68 0h1v1h-1zm-69 3h1v1H4zm57 0h1v1h-1zm67 0h1v1h-1zm-51 1h1v1h-1zm177 0h1v2h-1zm-51 1h1v1h-1zm51 1h1v1h-1zm-69 1h1v1h-1zM6 111h1v1H6zm194 1h1v1h-1zm40 3h1v1h-1zM8 116h1v1H8zm177 1h1v1h-1zm-125 1h1v1h-1zm140 1h1v1h-1zm-190 2h1v1h-1zm142 2h1v1h-1zm0 1h1v1h-1zm-47 1h1v1h-1z" fill="#8a8b8b"/><path d="M173 98h1v1h-1zM4 100h1v1H4zm199 0h1v1h-1zm-181 4h1v1h-1zm107 0h1v1h-1zm124 0h1v1h-1zm-49 1h1v1h-1zm-163 1h1v1h-1zm177 0h2v1h-2zm2 0h1v1h-1zm34 0h1v1h-1zM5 109h1v1H5zm57 0h1v1h-1zm132 0h1v1h-1zm-40 1h1v1h-1zm33 0h1v1h-1zm-33 1h1v1h-1zm25 0h1v1h-1zm62 2h5v1h-5zm5 0h1v1h-1zM7 114h1v1H7zm147 0h1v1h-1zm0 1h1v1h-1zm95 1h1v1h-1zM9 119h1v1H9zm118 1h1v2h-1zm88 0h1v1h-1zm-33 1h1v1h-1zm-55 1h1v1h-1zm124 1h1v1h-1zm-240 1h1v1h-1z" fill="#bbbcbc"/><path d="M175 98h1v1h-1zm-130 4h1v1h-1zm177 0h1v1h-1zm-46 5h1v1h-1zm-87 1h1v2h-1zm-82 1h1v1H7zm82 1h1v1h-1zm-89 1h1v1H0zm88 0h1v5h-1zm-88 1h1v1H0zm39 1h1v1h-1zm177 0h1v1h-1zm10 0h1v1h-1zm-25 1h1v1h-1zm-140 1h1v1h-1zm28 0h1v3h-1zm-1 1h1v1h-1zm106 0h1v1h-1zm-58 1h1v1h-1zm-58 1h1v1h-1zm11 0h1v1h-1zm49 0h1v1h-1zm-75 3h1v1h-1zm135 0h1v1h-1zm53 1h1v1h-1zm-176 2h1v1h-1zm-7 1h1v1h-1z" fill="#2d2e2e"/><path d="M203 101h1v1h-1zm-49 2h1v1h-1zm50 1h1v1h-1zm19 0h1v1h-1zm-35 1h1v1h-1zm-72 1h1v1h-1zm0 1h1v1h-1zm79 7h1v1h-1zm6 1h1v1h-1zm-85 4h1v2h-1zm0 2h1v1h-1zm79 0h1v1h-1zm-132 2h1v1h-1zm-51 2h1v1h-1z" fill="#747474"/><g fill="#010202"><path d="M104 0h66v2h-66zm66 0h1v66h-1zm-66 2h66v1h-66zm0 1h2v63h-2zm2 0h1v63h-1zm62 0h2v63h-2zm-55 7h3v47h-3zm3 0h1v47h-1zm8 0h3v22h-3zm3 0h1v22h-1zm9 0h3v47h-3zm3 0h1v47h-1zm19 0h3v47h-3zm3 0h1v47h-1zm-37 22h3v1h-3zm3 0h1v1h-1zm-3 1h1v1h-1zm1 0h1v1h-1zm25 0h1v24h-1zm-26 1h1v1h-1zm24 0h2v23h-2z"/><path d="M147 35h3v22h-3zm-34 22h3v1h-3zm3 0h1v1h-1zm20 0h3v1h-3zm3 0h1v1h-1zm8 0h3v1h-3zm3 0h1v1h-1zm8 0h3v1h-3zm3 0h1v1h-1zm-54 7h63v2h-63zm-3 2h66v1h-66zm66 0h1v1h-1zM1 98h1v26H1zm1 0h1v1H2zm21 0h1v1h-1zm1 0h1v26h-1zm150 0h1v1h-1zm15 0h1v1h-1zm1 0h1v1h-1zm15 0h1v1h-1zM2 99h1v1H2zm21 0h1v1h-1zm152 0h1v3h-1zm14 0h1v1h-1zm1 0h1v1h-1zM3 100h1v1H3zm201 0h1v2h-1zM3 101h1v1H3zm185 0h1v2h-1zm3 0h1v2h-1zM4 102h1v2H4zm40 0h1v1h-1zm23 0h6v1h-6zm6 0h1v1h-1zm42 0h1v22h-1zm11 0h1v22h-1zm27 0h12v1h-12zm12 0h1v1h-1zm10 0h1v1h-1zm29 0h1v1h-1zm17 0h1v1h-1zm18 0h8v1h-8zm8 0h1v1h-1zm16 0h12v1h-12zm12 0h1v1h-1zm-254 1h1v1h-1zm22 0h2v1h-2zm2 0h1v1h-1zm20 0h1v1h-1zm10 0h1v1h-1zm52 0h1v1h-1zm26 0h1v21h-1zm23 0h1v3h-1zm12 0h1v1h-1zm3 0h1v1h-1zm12 0h1v2h-1zm17 0h2v1h-2zm2 0h1v1h-1zm17 0h1v21h-1zm11 0h1v1h-1zm13 0h1v21h-1zM4 104h1v1H4zm17 0h1v1h-1zm24 0h1v1h-1zm19 0h1v1h-1zm12 0h1v1h-1zm52 0h1v1h-1zm94 0h1v1h-1zm30 0h1v1h-1zM5 105h1v1H5zm58 0h1v1h-1zm14 0h1v1h-1zm110 0h1v2h-1zm5 0h1v2h-1zm11 0h1v1h-1zM5 106h1v1H5zm15 0h1v1h-1zm22 0h1v1h-1zm4 0h1v1h-1zm16 0h1v1h-1zm67 0h1v1h-1zm47 0h1v1h-1zm47 0h1v1h-1zm30 0h1v4h-1zm-233 1h1v1h-1zm58 0h1v1h-1zm52 0h1v1h-1zm47 0h1v2h-1zm10 0h1v1h-1zm5 0h1v1h-1zm10 0h1v2h-1zM6 108h1v1H6zm13 0h1v1h-1zm42 0h1v2h-1zm17 0h1v1h-1zm-72 1h1v1H6zm13 0h1v1h-1zm22 0h1v1h-1zm6 0h1v1h-1zm84 0h1v1h-1zm46 0h1v1h-1zm9 0h1v1h-1zm7 0h1v2h-1zm9 0h1v1h-1zm16 0h1v1h-1zm6 0h1v1h-1zM7 110h1v1H7zm54 0h1v1h-1zm71 0h1v1h-1zm54 0h1v1h-1zm67 0h1v1h-1zM7 111h1v1H7zm11 0h1v1h-1zm22 0h1v1h-1zm8 0h1v1h-1zm130 0h1v2h-1zm15 0h1v1h-1zm8 0h1v2h-1zm16 0h1v1h-1zm8 0h1v1h-1zm-207 1h1v1h-1zm22 0h1v1h-1zm8 0h1v1h-1zm12 0h1v2h-1zm29 0h1v1h-1zm15 0h1v1h-1zm29 0h1v1h-1zm61 0h1v3h-1zm23 0h1v1h-1zm8 0h1v1h-1zm27 0h1v1h-1zM8 113h1v1H8zm9 0h1v1h-1zm117 0h1v1h-1zm44 0h1v1h-1zm7 0h1v1h-1zm16 0h1v1h-1zM8 114h1v1H8zm9 0h1v1h-1zm22 0h1v1h-1zm10 0h1v2h-1zm11 0h1v1h-1zm119 0h1v3h-1zm6 0h1v1h-1zm31 0h1v1h-1zm10 0h1v2h-1zm14 0h8v1h-8zm8 0h1v2h-1zM9 115h1v1H9zm30 0h1v1h-1zm96 0h1v1h-1zm59 0h1v1h-1zm6 0h1v1h-1zm16 0h1v1h-1zm31 0h1v1h-1zM9 116h1v1H9zm7 0h1v1h-1zm33 0h1v1h-1zm87 0h1v1h-1zm59 0h1v3h-1zm5 0h1v1h-1zm26 0h1v1h-1zm22 0h1v1h-1zm-232 1h1v1h-1zm22 0h1v1h-1zm12 0h1v1h-1zm11 0h1v2h-1zm18 0h1v1h-1zm58 0h1v1h-1zm42 0h1v1h-1zm5 0h1v1h-1zm31 0h1v1h-1zm12 0h1v1h-1zm-217 1h1v1h-1zm5 0h1v1h-1zm35 0h1v1h-1zm87 0h1v1h-1zm43 0h1v3h-1zm4 0h1v1h-1zm15 0h1v2h-1zm28 0h1v1h-1zm22 0h1v1h-1zm-239 1h1v1h-1zm5 0h1v1h-1zm46 0h1v1h-1zm17 0h1v1h-1zm60 0h1v1h-1zm57 0h1v1h-1zm55 0h1v1h-1zm-239 1h1v1h-1zm26 0h1v1h-1zm25 0h1v1h-1zm16 0h1v1h-1zm61 0h1v1h-1zm57 0h1v3h-1zm3 0h1v1h-1zm15 0h1v1h-1zm-203 1h1v1h-1zm3 0h1v1h-1zm48 0h1v1h-1zm118 0h1v1h-1zm3 0h1v1h-1zm68 0h1v1h-1zm-237 1h1v1h-1zm11 0h1v2h-1zm11 0h1v1h-1zm16 0h1v1h-1zm11 0h1v1h-1zm77 0h1v1h-1zm41 0h2v2h-2zm2 0h1v1h-1zm30 0h1v1h-1zm16 0h1v1h-1zm-217 1h1v1h-1zm1 0h1v1h-1zm23 0h1v1h-1zm16 0h1v1h-1zm12 0h1v1h-1zm12 0h1v1h-1zm65 0h1v1h-1zm1 0h1v1h-1zm54 0h2v1h-2zm2 0h1v1h-1zm15 0h1v1h-1zm16 0h1v1h-1zm23 0h1v1h-1zM1 124h1v1H1zm11 0h1v1h-1zm1 0h1v1h-1zm11 0h1v1h-1zm1 0h1v1h-1zm41 0h1v1h-1zm8 0h1v1h-1zm41 0h1v1h-1zm11 0h1v1h-1zm16 0h1v1h-1zm11 0h1v1h-1zm28 0h1v1h-1zm1 0h1v1h-1zm15 0h1v1h-1zm1 0h1v1h-1zm41 0h1v1h-1zm14 0h1v1h-1zm10 0h1v1h-1zm-193 1h1v1h-1z"/></g><path d="M124 9h3v1h-3zm3 0h1v1h-1zM25 102h1v7h-1zm166 2h1v1h-1zm61 1h1v1h-1zm-174 1h1v1h-1zm99 0h1v1h-1zm-73 1h1v1h-1zm0 1h1v1h-1zm26 0h1v1h-1zm12 0h1v3h-1zm44 0h1v1h-1zm-161 1h1v1h-1zm-7 1h1v1h-1zm206 0h1v1h-1zm-164 1h1v1h-1zm73 0h1v1h-1zm9 0h1v1h-1zm-52 1h13v1H90zm13 0h1v1h-1zm161 0h1v1h-1zm-239 1h1v2h-1zm153 1h1v1h-1zm-153 1h1v1h-1zm36 1h1v1h-1zm154 0h1v1h-1zm-111 1h1v2h-1zm144 0h1v1h-1zm-144 2h1v1h-1zm80 0h1v1h-1zm-109 4h1v1h-1zm66 1h1v1h-1zm88 0h1v1h-1z" fill="#121313"/><path d="M146 58h1v1h-1zm-79 43h1v1h-1zm48 0h1v1h-1zm11 0h1v1h-1zm27 0h12v1h-12zm12 0h1v1h-1zm74 0h7v1h-7zm7 0h1v1h-1zm17 0h12v1h-12zm12 0h1v1h-1zm-13 1h1v2h-1zm-200 2h1v1h-1zm200 0h1v1h-1zm-61 3h1v1h-1zm-87 1h1v2h-1zm15 0h1v1h-1zm-15 2h1v1h-1zm-65 1h1v1h-1zm143 0h1v1h-1zm34 0h1v1h-1zm24 1h1v1h-1zm-136 4h1v3h-1zm-97 1h1v1h-1zm161 0h1v1h-1zm-164 1h1v1h-1zm167 0h1v1h-1zm45 0h1v1h-1zm-112 1h1v1h-1zm-38 2h1v1h-1zm-61 1h1v1h-1zm215 0h1v1h-1zm32 0h1v2h-1zm0 2h1v1h-1zm-10 1h1v1h-1z" fill="#ddd"/><path d="M204 98h1v1h-1zm45 4h1v1h-1zm15 1h1v1h-1zm-159 3h1v6h-1zm24 1h1v1h-1zm64 0h1v1h-1zm-6 1h1v1h-1zm-139 2h1v1h-1zm129 1h1v1h-1zm17 0h1v1h-1zm-177 1h1v1h-1zm88 0h1v1h-1zm29 0h1v1h-1zm141 0h1v1h-1zm-58 1h1v1h-1zm-112 3h1v4h-1zm94 1h1v1h-1zm-149 2h1v1h-1zm12 0h1v1h-1zm121 0h1v1h-1zm44 0h1v1h-1zm-122 1h1v1h-1zm-69 1h1v1h-1zm16 0h1v1h-1zm177 0h1v1h-1zm-216 1h1v1h-1zm51 0h1v1h-1zm116 0h1v1h-1zm16 2h1v1h-1zm80 0h1v1h-1z" fill="#3b3c3c"/><path d="M116 102h1v3h-1zm-70 2h1v1h-1zm70 1h1v1h-1zm-74 3h1v1h-1zm134 0h1v1h-1zm43 0h1v1h-1zm-159 1h1v1h-1zm204 2h1v1h-1zm-248 3h1v1h-1zm248 0h1v1h-1zm-226 1h1v1h-1zm12 0h1v1h-1zm177 0h1v1h-1zm-92 1h1v1h-1zm61 2h1v1h-1zm2 2h1v1h-1zm-161 2h1v1h-1zm79 0h1v2h-1zm98 0h1v1h-1zm-145 2h2v1h-2zm2 0h1v1h-1zm45 0h1v1h-1zm-103 1h1v1h-1zm12 0h1v1h-1zm79 0h1v1h-1zm77 0h1v1h-1z" fill="#6f6f6f"/><g fill="#fff"><path d="M0 0h102v96H0zm102 0h1v111h-1zm70 0h104v96H172zm104 0h1v100h-1zM108 4h58v4h-58zm58 0h1v58h-1zm-58 4h58v1h-58zm0 1h3v53h-3zm3 0h1v53h-1zm7 0h4v53h-4zm4 0h1v53h-1zm7 0h5v53h-5zm5 0h1v53h-1zm7 0h15v21h-15zm15 0h1v53h-1zm7 0h3v53h-3zm-22 21h15v1h-15zm0 1h9v1h-9zm9 0h6v1h-6zm-9 1h7v1h-7zm7 0h1v1h-1zm4 0h4v30h-4zm-11 1h5v29h-5zm5 0h1v1h-1z"/><path d="M127 34h7v28h-7z"/><path d="M125 35h9v27h-9z"/><path d="M123 36h11v26h-11zm17 22h5v4h-5z"/><path d="M112 59h54v3h-54zm-4 3h58v1h-58zm58 0h1v1h-1zm-63 5h1v44h-1zm1 1h172v28H104z"/><path d="M0 96h276v1H0zm4 1h18v2H4zm18 0h1v1h-1zm4 0h146v3H26zm146 0h1v28h-1zm4 0h11v1h-11zm11 0h1v3h-1zm5 0h11v2h-11zm11 0h1v1h-1zm4 0h69v3h-69zm-31 1h11v1h-11zm27 0h1v1h-1zM4 99h17v1H4zm17 0h1v1h-1zm156 0h10v3h-10zm15 0h10v1h-10zm10 0h1v3h-1z"/><path d="M206 99h70v1h-70zM5 100h15v1H5zm15 0h1v2h-1zm6 0h147v1H26zm147 0h1v25h-1zm14 0h1v1h-1zm6 0h9v3h-9zm13 0h70v1h-70zm70 0h1v1h-1zM5 101h15v1H5zm21 0h16v4H26zm16 0h1v1h-1zm4 0h20v1H46zm20 0h1v1h-1zm8 0h13v1H74zm13 0h1v24h-1zm3 0h13v10H90zm16 0h8v24h-8zm8 0h1v1h-1zm3 0h7v24h-7zm7 0h1v24h-1zm4 0h13v1h-13zm13 0h1v19h-1zm3 0h7v24h-7zm7 0h1v24h-1zm16 0h6v24h-6zm39 0h13v4h-13zm13 0h1v1h-1zm4 0h14v1h-14zm14 0h1v24h-1zm12 0h13v1h-13zm13 0h1v1h-1zM6 102h14v2H6zm14 0h1v1h-1zm22 0h1v1h-1zm4 0h18v1H46zm18 0h1v1h-1zm12 0h11v1H76zm53 0h12v1h-12zm48 0h9v1h-9zm9 0h1v2h-1zm16 0h1v1h-1zm17 0h1v1h-1zm4 0h14v1h-14zm29 0h9v1h-9zm9 0h1v23h-1zm-214 1h15v1H47zm15 0h1v1h-1zm8 0h1v20h-1zm8 0h9v1h-9zm51 0h12v1h-12zm45 0h1v22h-1zm4 0h8v3h-8zm15 0h8v1h-8zm8 0h1v3h-1z"/><path d="M205 103h13v4h-13zm19 0h13v1h-13zm29 0h8v1h-8zM6 104h13v1H6zm13 0h1v1h-1zm28 0h14v1H47zm14 0h1v1h-1zm6 0h6v18h-6zm6 0h1v18h-1zm5 0h9v1h-9zm52 0h11v1h-11zm25 0h19v7h-19zm31 0h1v1h-1zm3 0h1v21h-1zm1 0h1v21h-1zm4 0h7v3h-7zm30 0h13v1h-13zm17 0h8v8h-8zm8 0h1v8h-1zm5 0h7v1h-7zm11 0h11v7h-11zm11 0h1v19h-1zM3 105h1v20H3zm4 0h11v1H7zm11 0h1v2h-1zm4 0h1v20h-1zm4 0h15v2H26zm15 0h1v1h-1zm3 0h1v10h-1zm4 0h12v2H48zm12 0h1v1h-1z"/><path d="M65 105h10v16H65zm10 0h1v16h-1zm4 0h8v1h-8zm52 0h10v1h-10zm87 0h1v1h-1zm3 0h1v10h-1zm4 0h12v2h-12zm25 0h1v6h-1zm5 0h6v20h-6zM7 106h11v1H7zm53 0h1v1h-1z"/><path d="M64 106h11v14H64zm16 0h7v10h-7zm51 0h10v1h-10zm47 0h7v1h-7zm7 0h1v2h-1zm16 0h1v1h-1zm50 0h1v4h-1zM8 107h10v2H8zm10 0h1v1h-1zm8 0h14v3H26zm14 0h1v1h-1zm8 0h11v1H48zm11 0h1v4h-1zm17 0h1v13h-1zm52 0h1v18h-1zm4 0h9v1h-9zm43 0h1v18h-1zm4 0h6v2h-6zm15 0h6v1h-6zm6 0h1v3h-1zm4 0h13v3h-13zm13 0h1v1h-1zm8 0h12v1h-12zM4 108h1v17H4zm17 0h1v17h-1zm22 0h2v7h-2zm2 0h1v7h-1zm4 0h10v2H49z"/><path d="M63 108h13v11H63zm70 0h8v1h-8zm52 0h1v1h-1zm3 0h3v17h-3zm3 0h1v17h-1zm4 0h5v3h-5zm25 0h2v7h-2zm2 0h1v7h-1zm4 0h11v2h-11zM8 109h9v1H8zm9 0h1v1h-1zm60 0h1v9h-1zm52 0h1v16h-1zm4 0h8v1h-8zm46 0h5v1h-5zm5 0h1v2h-1zM5 110h1v15H5zm4 0h7v1H9zm7 0h1v2h-1zm4 0h2v15h-2zm6 0h13v3H26zm13 0h1v1h-1zm3 0h3v5h-3zm7 0h10v1H49zm29 0h9v6h-9zm52 0h1v15h-1zm4 0h7v1h-7zm46 0h4v3h-4zm20 0h1v1h-1zm3 0h13v3h-13zm13 0h1v1h-1z"/><path d="M219 110h3v5h-3zm7 0h11v1h-11zm25 0h1v1h-1zM9 111h7v1H9zm37 0h1v4h-1zm4 0h9v2h-9zm9 0h1v1h-1zm3 0h25v5H62zm28 0h13v1H90zm13 0h1v1h-1zm32 0h6v1h-6zm20 0h21v1h-21zm21 0h1v14h-1zm8 0h1v1h-1zm11 0h4v1h-4zm4 0h1v2h-1zm24 0h1v4h-1zm4 0h10v2h-10zm23 0h1v1h-1zm15 0h11v1h-11zm-255 1h6v2h-6zm6 0h1v1h-1zm115 0h1v13h-1zm4 0h6v1h-6zm31 0h10v11h-10zm21 0h5v13h-5zm5 0h1v13h-1zm4 0h3v3h-3zm45 0h8v1h-8zm8 0h1v1h-1zm5 0h7v11h-7zM6 113h1v12H6zm13 0h3v12h-3zm7 0h12v2H26zm12 0h1v1h-1z"/><path d="M41 113h6v2h-6zm6 0h1v2h-1zm3 0h8v1h-8zm8 0h1v12h-1zm74 0h1v12h-1zm4 0h5v1h-5zm44 0h3v1h-3zm3 0h1v2h-1zm16 0h1v1h-1zm4 0h12v2h-12zm12 0h1v1h-1zm3 0h6v2h-6zm6 0h1v2h-1zm3 0h10v1h-10zm26 0h8v8h-8zm-243 1h5v1h-5zm5 0h1v1h-1zm36 0h7v1h-7zm39 0h13v11H90zm13 0h1v11h-1zm34 0h4v1h-4zm18 0h22v9h-22zm22 0h1v11h-1zm4 0h2v3h-2z"/><path d="M202 114h12v4h-12zm26 0h9v1h-9zm24 0h9v6h-9zm13 0h11v9h-11zM7 115h1v10H7zm4 0h3v1h-3zm3 0h1v2h-1zm12 0h11v3H26zm11 0h1v1h-1zm4 0h6v1h-6zm6 0h1v1h-1zm4 0h8v1h-8zm8 0h1v10h-1zm74 0h1v10h-1zm5 0h3v1h-3zm45 0h1v1h-1zm13 0h2v1h-2zm2 0h1v2h-1zm16 0h1v1h-1zm4 0h6v1h-6zm6 0h1v1h-1zm4 0h9v1h-9z"/><path d="M249 115h12v1h-12zm-238 1h3v1h-3zm7 0h4v9h-4zm34 0h7v2h-7zm10 0h25v1H62zm72 0h1v9h-1zm4 0h3v1h-3zm48 0h7v9h-7zm7 0h1v9h-1zm4 0h1v3h-1zm32 0h8v2h-8zm12 0h5v9h-5zm5 0h1v9h-1zm4 0h11v1h-11zm-238 1h2v2h-2zm2 0h1v1h-1zm67 0h6v8h-6zm58 0h2v1h-2zm42 0h1v1h-1zm1 0h1v2h-1zm16 0h1v1h-1zm53 0h10v1h-10zM8 118h1v7H8z"/><path d="M17 118h5v7h-5zm9 0h10v3H26zm10 0h1v1h-1zm4 0h8v7h-8zm8 0h1v7h-1zm4 0h7v1h-7zm25 0h1v1h-1zm3 0h7v7h-7zm55 0h1v7h-1zm5 0h1v1h-1zm38 0h1v7h-1zm23 0h12v3h-12zm12 0h1v1h-1zm4 0h8v7h-8zm8 0h1v7h-1zm4 0h8v1h-8zm18 0h1v7h-1zm4 0h10v1h-10zm-239 1h1v1h-1zm1 0h1v1h-1z"/><path d="M39 119h10v6H39zm10 0h1v6h-1zm4 0h6v2h-6zm10 0h13v1H63zm73 0h1v6h-1zm4 0h1v1h-1zm42 0h1v1h-1zm3 0h8v6h-8zm12 0h1v1h-1zm19 0h10v6h-10zm10 0h1v6h-1zm4 0h7v2h-7zm18 0h1v6h-1zM9 120h1v5H9zm51 0h1v5h-1zm4 0h12v1H64zm12 0h1v1h-1zm65 0h1v1h-1zm53 0h1v5h-1zm58 0h9v1h-9zm-236 1h6v4h-6zm10 0h9v3h-9zm9 0h1v1h-1zm18 0h7v1h-7zm12 0h10v1H65zm10 0h1v1h-1zm62 0h1v4h-1zm63 0h12v3h-12zm12 0h1v1h-1zm18 0h7v1h-7zm19 0h1v4h-1zm4 0h8v1h-8z"/><path d="M38 122h12v3H38zm12 0h1v3h-1zm4 0h7v2h-7zm7 0h1v3h-1zm5 0h8v1h-8zm8 0h1v1h-1zm5 0h8v3h-8zm59 0h1v3h-1zm41 0h1v3h-1zm36 0h12v3h-12zm12 0h1v3h-1zm4 0h6v2h-6zm-221 1h1v2h-1zm5 0h7v2h-7zm47 0h1v2h-1zm6 0h4v1h-4zm4 0h1v1h-1z"/><path d="M78 123h9v2h-9zm61 0h1v2h-1zm16 0h24v1h-24zm29 0h10v2h-10zm66 0h1v2h-1zm4 0h7v1h-7zm11 0h11v1h-11zm11 0h1v1h-1zm-250 1h8v1h-8zm8 0h1v1h-1zm3 0h13v1H37zm17 0h9v1h-9zm9 0h1v1h-1z"/><path d="M77 124h10v1H77zm118 0h1v1h-1zm5 0h11v1h-11zm11 0h1v1h-1zm3 0h13v1h-13zm17 0h6v1h-6zm20 0h1v1h-1zM3 125h8v1H3zm8 0h1v1h-1zm4 0h7v1h-7zm7 0h1v1h-1zm4 0h7v1h-7zm7 0h1v1h-1zm4 0h14v1H37zm14 0h1v1h-1zm4 0h9v1h-9zm9 0h1v1h-1zm11 0h12v1H75zm12 0h1v1h-1zm3 0h13v1H90zm13 0h1v1h-1zm3 0h7v1h-7zm7 0h1v1h-1zm4 0h7v1h-7zm7 0h1v1h-1zm4 0h12v1h-12zm12 0h1v1h-1zm4 0h7v1h-7zm7 0h1v1h-1zm16 0h12v1h-12zm12 0h1v1h-1zm5 0h11v1h-11zm11 0h1v1h-1zm4 0h11v1h-11zm11 0h1v1h-1zm4 0h14v1h-14zm14 0h1v1h-1zm4 0h5v1h-5zm5 0h1v1h-1zm4 0h10v1h-10zm10 0h1v1h-1zm4 0h6v1h-6zm6 0h1v1h-1z"/></g><path d="M171 0h1v66h-1zm-24 58h3v1h-3zm3 0h1v1h-1zm21 8h1v1h-1zm33 31h1v1h-1zm-38 5h1v1h-1zm23 0h1v1h-1zm-34 1h10v1h-10zm10 0h1v1h-1zm76 0h5v1h-5zm5 0h1v1h-1zm19 0h10v1h-10zm10 0h1v1h-1zm-121 1h1v1h-1zm48 0h1v1h-1zm-48 1h1v1h-1zm-23 2h1v1h-1zm-71 1h1v1h-1zm178 0h1v4h-1zm-15 1h1v1h-1zm15 3h2v1h-2zm2 0h1v1h-1zm-2 2h1v3h-1zm-58 1h1v1h-1zm34 2h1v1h-1zm24 0h1v1h-1zm-44 1h1v1h-1zm-178 1h1v1h-1zm163 1h1v1h-1zm-166 1h1v1h-1zm141 0h1v2h-1zm43 0h1v1h-1zm-146 2h1v1h-1zm103 0h1v1h-1zm74 0h1v1h-1zm-214 1h1v1h-1zm240 0h1v1h-1zm-218 1h1v1h-1zm30 0h1v1h-1zm50 0h1v1h-1zm50 0h1v1h-1zm30 0h1v1h-1zm17 0h1v1h-1z" fill="#abacac"/><path d="M107 4h1v58h-1zm39 31h1v22h-1zm0 22h1v1h-1zm-39 5h1v1h-1zm81 36h1v1h-1zm-1 4h1v1h-1zm-10 2h1v1h-1zm63 0h1v1h-1zm-113 1h1v1h-1zm-108 1h1v1h-1zm133 2h1v3h-1zm49 0h1v1h-1zm-9 2h1v1h-1zm-40 1h1v1h-1zm0 3h1v4h-1zm26 2h1v1h-1zm-167 2h1v1h-1zm114 0h1v5h-1zm27 0h1v1h-1zm96 0h1v1h-1zm-212 2h1v1h-1zm14 0h2v1h-2zm2 0h1v1h-1zm175 0h1v1h-1zm-102 3h1v1h-1zm115 1h1v1h-1zm-11 1h1v1h-1z" fill="#969797"/><path d="M167 4h1v58h-1zm-18 28h1v1h-1zm-23 2h1v1h-1zm-14 24h1v1h-1zm5 0h1v1h-1zm34 0h1v1h-1zm16 4h1v1h-1zm4 5h1v1h-1zM3 97h1v1H3zm185 0h1v1h-1zm-12 2h1v1h-1zm-88 2h1v1h-1zm1 0h1v1h-1zm15 0h1v1h-1zm38 0h1v1h-1zM5 102h1v1H5zm18 0h1v1h-1zm182 0h1v1h-1zm-142 1h1v1h-1zm188 2h1v1h-1zm11 0h1v3h-1zm-87 1h1v1h-1zm-154 1h1v1h-1zm56 1h1v1h-1zm185 0h1v1h-1zm-223 3h1v1h-1zm75 0h1v4h-1zm20 0h1v1h-1zm82 0h1v1h-1zm-197 1h1v1h-1zm183 1h1v1h-1zm49 1h1v1h-1zm-211 1h1v1h-1zm74 0h1v1h-1zm79 0h1v1h-1zm69 2h1v4h-1zm-213 1h1v1h-1zm28 1h1v1h-1zm185 2h1v1h-1zm-187 1h1v1h-1zm178 0h1v1h-1zm-113 2h1v1h-1zm59 0h1v1h-1zm12 1h1v1h-1z" fill="#e3e3e3"/><path d="M157 9h1v48h-1zm0 48h1v1h-1zM21 100h1v1h-1zm22 1h2v1h-2zm2 0h1v1h-1zm71 0h1v1h-1zm104 0h2v1h-2zm2 0h1v1h-1zm54 0h1v1h-1zm-25 1h1v1h-1zm-49 1h1v1h-1zm-72 2h1v1h-1zm58 2h1v1h-1zm-140 1h1v1h-1zm14 2h1v1h-1zm-53 2h1v1H9zm253 0h1v1h-1zm-239 1h1v4h-1zm239 0h1v1h-1zM2 115h1v4H2zm194 1h1v1h-1zm-173 1h1v1h-1zm-21 2h1v1H2zm34 0h1v1h-1zm16 0h1v1h-1zm142 0h1v1h-1zm19 0h1v1h-1zm16 0h1v1h-1zm-179 2h1v1h-1zm129 0h1v1h-1zm48 0h1v1h-1zm4 4h1v1h-1zm31 0h1v1h-1z" fill="#eee"/><path d="M113 58h3v1h-3zm3 0h1v1h-1zm20 0h3v1h-3zm3 0h1v1h-1zm19 0h3v1h-3zm3 0h1v1h-1zm12 39h1v1h-1zm79 6h1v1h-1zm-209 3h1v1h-1zm4 0h1v1h-1zm107 0h1v3h-1zm34 0h1v1h-1zm36 0h1v1h-1zm28 1h1v2h-1zm-232 2h1v1h-1zm26 0h1v1h-1zm108 0h1v1h-1zm22 0h1v1h-1zm76 0h1v1h-1zm-120 3h1v1h-1zm121 0h1v1h-1zm-88 1h1v1h-1zm30 0h1v1h-1zm43 0h1v1h-1zm9 0h1v1h-1zm-229 1h1v1h-1zm136 2h1v4h-1zm47 0h1v1h-1zm-164 1h1v1h-1zm14 0h1v1h-1zm145 0h1v1h-1zm32 0h1v1h-1zm-30 2h1v1h-1zm-160 1h1v1h-1zm41 0h1v1h-1zm75 0h1v1h-1zm41 2h1v1h-1zm-68 1h1v1h-1zm0 1h1v1h-1zm-53 1h1v1h-1zm67 0h1v1h-1z" fill="#b3b4b4"/><path d="M206 97h1v1h-1zM3 104h1v1H3zm3 1h1v1H6zm121 1h1v2h-1zm0 2h1v1h-1zm127 2h1v1h-1zm-71 7h1v1h-1zm-56 1h1v1h-1zm0 1h1v1h-1zm25 6h1v1h-1z" fill="#bebfbf"/><path d="M103 0h1v66h-1zm37 9h1v48h-1zm7 24h1v1h-1zm-24 2h1v1h-1zm17 22h1v1h-1zm17 1h1v1h-1zm-54 8h1v1h-1zm70 33h1v1h-1zm30 0h1v1h-1zm-11 1h1v1h-1zm-67 1h1v1h-1zm41 0h1v1h-1zm72 0h1v1h-1zm10 0h1v1h-1zM2 103h1v1H2zm21 0h1v1h-1zm48 0h1v1h-1zm6 0h1v1h-1zm-11 1h1v1h-1zm8 0h1v1h-1zm119 0h1v1h-1zm-146 1h1v1h-1zm14 0h1v1h-1zm163 0h1v1h-1zm30 0h1v1h-1zm-178 1h1v1h-1zm3 0h1v1h-1zm125 0h1v1h-1zm-161 1h1v1h-1zm17 0h1v1h-1zm160 0h1v1h-1zm-203 3h1v1h-1zm29 0h1v1h-1zm177 0h1v1h-1zm-36 1h1v1h-1zm67 0h1v1h-1zm-195 1h1v2h-1zm125 0h1v1h-1zm-125 2h1v1h-1zm140 0h1v1h-1zm-184 1h1v1h-1zm3 0h1v1h-1zm119 0h1v1h-1zm49 0h1v1h-1zm-149 1h1v1h-1zm14 0h1v1h-1zm132 0h1v1h-1zm31 0h1v1h-1zm14 0h1v1h-1zm-93 1h1v1h-1zm115 0h1v1h-1zm-111 1h1v1h-1zm-126 2h1v1h-1zm3 0h1v1h-1zm121 0h1v1h-1zm45 0h1v1h-1zm-144 1h1v1h-1zm26 0h1v1h-1zm15 0h1v1h-1zm136 0h1v1h-1zm35 1h1v1h-1zm-183 1h1v1h-1zm-16 1h1v1h-1zm177 0h1v1h-1zm-214 1h1v1h-1zm51 0h1v1h-1zm115 0h1v1h-1z" fill="#f8f8f8"/><path d="M113 9h3v1h-3zm3 0h1v1h-1zm20 0h3v1h-3zm3 0h1v1h-1zm19 0h3v1h-3zm3 0h1v1h-1zm-35 24h1v1h-1zm23 0h1v1h-1zM25 98h1v3h-1zm149 1h1v1h-1zm30 0h1v1h-1zm-182 1h1v2h-1zm168 0h1v1h-1zm1 0h1v1h-1zm-166 1h1v1h-1zm-22 1h1v1H3zm19 0h1v1h-1zm82 0h1v4h-1zm38 0h1v5h-1zm106 0h1v1h-1zm-205 2h1v1h-1zm84 0h1v1h-1zm65 0h1v1h-1zm28 0h1v1h-1zm-200 1h1v1h-1zm108 0h1v1h-1zm-24 1h1v1h-1zm99 0h1v1h-1zM5 107h1v1H5zm1 0h1v1H6zm40 0h1v1h-1zm16 0h1v1h-1zm80 0h1v1h-1zm81 0h1v1h-1zm-182 1h1v1h-1zm6 0h1v1h-1zm146 0h1v1h-1zm25 0h1v1h-1zm6 0h1v1h-1zm-47 2h1v1h-1zm1 0h1v1h-1zm8 1h1v1h-1zM7 112h1v1H7zm1 0h1v1H8zm177 0h1v1h-1zm-81 1h1v1h-1zm146 0h1v1h-1zm1 0h1v1h-1zm-116 1h1v1h-1zm65 0h1v1h-1zm-140 1h1v1h-1zm125 0h1v1h-1zm-160 1h1v5h-1zm14 0h1v1h-1zm145 0h1v1h-1zm32 0h1v1h-1zM9 117h1v1H9zm1 0h1v1h-1zm190 0h1v1h-1zm-162 1h1v1h-1zm177 0h1v1h-1zm-178 1h1v1h-1zm14 0h1v2h-1zm163 0h1v1h-1zm14 0h1v2h-1zm-124 1h1v4h-1zm79 0h1v1h-1zm67 0h1v1h-1zm-225 1h1v1h-1zm26 0h1v1h-1zm26 0h1v1h-1zm62 0h1v1h-1zm89 0h1v1h-1zm-217 1h1v1h-1zm1 0h1v1h-1zm65 0h1v1h-1zm175 0h1v1h-1zm-185 2h1v1h-1zm6 0h1v1h-1zm31 0h1v1h-1zm160 0h1v1h-1z" fill="#0b0c0c"/><path d="M146 34h1v1h-1zm-22 1h1v1h-1zm43 28h1v1h-1zm39 35h1v1h-1zm-32 4h1v1h-1zm-128 1h1v1h-1zm22 0h1v1h-1zm4 0h1v1h-1zm118 0h1v1h-1zm33 0h1v1h-1zm53 0h1v1h-1zm-26 1h1v1h-1zm-64 1h1v1h-1zm-168 3h1v1h-1zm167 1h1v1h-1zm18 0h1v1h-1zm-3 2h1v1h-1zm-162 3h1v1h-1zm189 0h1v1h-1zm-2 1h1v1h-1zm16 0h4v1h-4zm4 0h1v1h-1zm-107 2h1v1h-1zm-2 1h1v1h-1zm49 0h1v1h-1zm66 1h1v1h-1zm-239 1h1v1h-1zm188 0h1v1h-1z" fill="#ccc"/><path d="M147 34h1v1h-1zM0 98h1v3H0zm3 1h1v1H3zm-3 2h1v1H0zm88 1h1v4h-1zm1 0h1v1h-1zm87 0h1v1h-1zm-102 1h1v1h-1zm15 0h1v1h-1zm-26 1h1v1h-1zm-21 1h1v1h-1zm177 0h1v1h-1zm34 0h1v1h-1zm-176 1h1v1h-1zm11 0h1v1h-1zm-69 4h1v1h-1zm42 1h1v1h-1zm192 0h1v1h-1zm-60 1h1v1h-1zm32 1h1v1h-1zm-91 1h1v1h-1zM0 116h1v4H0zm60 0h1v1h-1zm19 2h1v1h-1zm-79 2h1v1H0zm88 1h1v3h-1zm54 1h1v1h-1zm-77 1h1v1h-1zm24 0h1v1h-1zm-53 1h1v1h-1zm29 0h1v1h-1zm23 0h1v1h-1zm1 0h1v1h-1zm123 0h1v1h-1z" fill="#202121"/><path d="M0 97h1v1H0zm189 4h1v1h-1zm-61 2h1v1h-1zm112 0h1v1h-1zm-220 1h1v1h-1zm55 0h1v1h-1zm1 1h1v1h-1zm126 0h1v1h-1zm62 2h1v3h-1zm-246 2h1v1h-1zm246 1h1v1h-1zm-217 1h1v1h-1zm177 0h1v1h-1zm-9 4h1v1h-1zm49 0h1v4h-1zm-254 1h1v1h-1zm170 0h1v1h-1zm14 1h1v1h-1zm-15 2h1v1h-1zm85 0h1v1h-1zm-252 2h1v1h-1zm129 1h1v1h-1zM1 125h1v1H1zm23 0h1v1h-1zm11 0h1v1h-1zm18 0h1v1h-1zm14 0h1v1h-1zm6 0h1v1h-1zm42 0h1v1h-1zm11 0h1v1h-1zm16 0h1v1h-1zm11 0h12v1h-12zm12 0h1v1h-1zm17 0h1v1h-1zm15 0h1v1h-1zm15 0h1v1h-1zm18 0h1v1h-1zm23 0h1v1h-1zm10 0h12v1h-12zm12 0h1v1h-1z" fill="#676767"/><path d="M205 99h1v1h-1zm-17 1h1v1h-1zm-13 3h1v1h-1zm-46 2h1v1h-1zm94 0h1v1h-1zm-162 2h1v1h-1zm158 0h1v1h-1zm-27 1h1v1h-1zm10 2h1v1h-1zm-98 1h1v1h-1zm28 0h1v1h-1zm22 1h1v1h-1zm-12 1h1v8h-1zm-38 1h1v1h-1zm-87 1h1v1h-1zm-3 5h1v1h-1zm1 0h1v1h-1zm-15 1h1v2H0zm142 0h1v1h-1zm72 0h1v1h-1zM0 123h1v1H0zm183 0h1v1h-1zm-29 1h1v1h-1zm-85 1h1v1h-1z" fill="#171818"/><path d="M71 101h1v1h-1zm-50 5h1v1h-1zm157 2h1v1h-1zm-139 4h1v1h-1zm138 0h1v1h-1zm49 0h1v1h-1zm49 1h1v1h-1z" fill="#848585"/><path d="M135 9h1v1h-1zm-7 1h1v21h-1zm0 21h1v1h-1zm15 76h1v2h-1zm43 0h1v1h-1zm-54 2h1v1h-1zm11 0h1v1h-1zm-125 4h1v1h-1zm125 4h1v2h-1zm-127 1h1v1h-1zm127 1h1v1h-1zm110 4h1v1h-1zm-185 1h1v1h-1z" fill="#4c4c4c"/><path d="M135 58h1v1h-1zm27 0h1v1h-1zm30 43h1v1h-1zm-172 2h1v1h-1zm158 4h1v1h-1zm-136 2h1v1h-1zm177 0h1v1h-1zm-92 3h1v2h-1zm50 1h1v1h-1zm7 0h1v1h-1zm-134 1h1v1h-1zm77 0h1v1h-1zm88 0h1v1h-1zm-205 1h1v1h-1zm53 5h1v1h-1zm-2 1h1v1h-1zm17 1h1v1h-1zm-41 1h1v1h-1zm177 0h1v1h-1zm-138 1h1v1h-1zm162 1h2v1h-2zm2 0h1v1h-1z" fill="#c8c8c8"/><path d="M108 63h58v1h-58zm58 0h1v1h-1zm-61 38h1v1h-1zm38 0h1v1h-1zm104 0h1v1h-1zM2 102h1v1H2zm164 1h1v1h-1zm23 0h1v1h-1zM4 107h1v1H4zm3 0h1v1H7zm56 0h1v1h-1zm69 1h1v1h-1zm130 1h1v2h-1zm-131 2h1v1h-1zm120 0h1v1h-1zm11 0h1v1h-1zM6 112h1v1H6zm174 2h1v1h-1zm82 0h1v2h-1zm-45 1h1v1h-1zm45 1h1v1h-1zM8 117h1v1H8zm239 0h1v1h-1zm-224 1h1v6h-1zm-21 2h1v4H2zm195 0h1v1h-1zm-187 2h1v1h-1zm-8 2h1v1H2zm21 0h1v1h-1zm11 1h1v1h-1zm20 0h1v1h-1zm60 0h1v1h-1z" fill="#eaeaea"/><path d="M191 97h1v1h-1zm-118 4h1v1h-1zm114 0h1v1h-1zm-73 1h1v5h-1zm-72 1h1v1h-1zm135 0h1v1h-1zm42 0h1v1h-1zm-175 1h1v1h-1zm177 0h1v1h-1zm-107 3h1v1h-1zm77 0h1v1h-1zm-150 5h1v1h-1zm177 0h1v1h-1zm-202 1h1v1h-1zm120 1h1v1h-1zm-88 1h1v1h-1zm14 2h1v1h-1zm-2 2h1v1h-1zm54 1h1v4h-1zm135 0h1v1h-1zm-111 1h1v1h-1zm-103 1h1v1h-1zm18 0h1v1h-1zm131 0h1v1h-1zm28 0h1v1h-1zm-98 2h1v1h-1zm13 1h1v1h-1z" fill="#d9d9d9"/><path d="M21 102h1v1h-1zm45 0h1v1h-1zm137 0h1v1h-1zm1 1h1v1h-1zm-16 1h1v1h-1zm-109 5h1v1h-1zm10 2h1v1h-1zm-80 3h1v1H9zm80 0h1v1h-1zm-78 5h1v1h-1zm185 0h1v1h-1zm-1 1h1v1h-1zm-117 1h1v1h-1zm-6 4h1v1h-1z" fill="#2f3030"/><path d="M43 102h1v1h-1zm31 0h1v1h-1zm31 0h1v3h-1zm115 0h1v1h-1zm-156 1h1v1h-1zm-2 2h1v1h-1zm43 0h1v1h-1zm-86 2h1v1h-1zm59 2h1v1h-1zm-18 1h1v1h-1zm1 2h1v2h-1zm190 0h1v1h-1zm-211 1h1v1h-1zm139 0h1v1h-1zm85 0h1v1h-1zm-203 1h1v1h-1zm75 1h1v1h-1zm59 0h1v1h-1zm-155 1h8v1h-8zm8 0h1v1h-1zm169 0h8v1h-8zm8 0h1v1h-1zm-176 1h1v1h-1zm177 0h1v1h-1zm-88 3h1v1h-1zm113 0h1v1h-1zm-146 1h1v3h-1zm108 0h1v1h-1zm-108 3h1v1h-1z" fill="#343535"/></svg>