<svg xmlns="http://www.w3.org/2000/svg" role="img" viewBox="-5.06 -5.06 263.38 263.38"><title>Memcached logo</title><defs><radialGradient id="c" cx="41.406%" cy="42.708%" r="50%" fx="41.406%" fy="42.708%"><stop offset="0%" stop-color="#DB7C7C"/><stop offset="100%" stop-color="#C83737"/></radialGradient><radialGradient id="d" cx="44.271%" cy="42.708%" r="50%" fx="44.271%" fy="42.708%"><stop offset="0%" stop-color="#DB7C7C"/><stop offset="100%" stop-color="#C83737"/></radialGradient><linearGradient id="a" x1="50%" x2="50%" y1="100%" y2="0%"><stop offset="0%" stop-color="#574C4A"/><stop offset="100%" stop-color="#80716D"/></linearGradient><linearGradient id="b" x1="88.778%" x2="30.149%" y1="98.342%" y2="-8.68%"><stop offset="0%" stop-color="#268D83"/><stop offset="100%" stop-color="#2EA19E"/></linearGradient></defs><path fill="url(#a)" d="M0 171.18976V82.17109C0 10.27141 10.26072.00003 82.08632.00003h89.1885c71.82534 0 82.086 10.27138 82.086 82.17106v89.01867c0 71.89971-10.26066 82.1711-82.086 82.1711h-89.1885C10.26072 253.36085 0 243.08946 0 171.18975z"/><path fill="url(#b)" d="M8.8912.65492C-3.56242 79.58277 2.95306 153.47967 2.95306 153.47967H41.8809c-3.704-19.70342-16.9919-109.72342-5.93815-110.02062 5.92395.9403 32.9897 76.37113 32.9897 76.37113s5.96065-.74227 11.95875-.74227c5.99811 0 11.95877.74227 11.95877.74227s27.06574-75.43084 32.98969-76.37113c11.05378.29718-2.23416 90.31722-5.93815 110.02062h38.92784S165.34483 79.58274 152.8912.65492h-36.04124c-6.86.08114-32.95968 45.85567-35.95877 45.85567-2.99908 0-29.09876-45.77453-35.95876-45.85567H8.8912z" transform="translate(45.79 47.098)"/><path fill="url(#c)" d="M73.2136 144.26656c0 5.08827-4.12486 9.21312-9.21312 9.21312-5.08827 0-9.21312-4.12485-9.21312-9.21312 0-5.08826 4.12485-9.21312 9.21312-9.21312 5.08826 0 9.21312 4.12486 9.21312 9.21312z" transform="translate(45.79 47.098)"/><path fill="url(#d)" d="M106.99504 144.26656c0 5.08827-4.12486 9.21312-9.21312 9.21312-5.08827 0-9.21312-4.12485-9.21312-9.21312 0-5.08826 4.12485-9.21312 9.21312-9.21312 5.08826 0 9.21312 4.12486 9.21312 9.21312z" transform="translate(45.79 47.098)"/><path d="M196.84632 50.3622c5.61787 38.02593 6.93596 74.5207 6.83257 101.70527-.10576 27.8058-1.69872 45.87102-1.69872 45.87102h-32.76706l-3.5216 2.63918h38.92784s6.51548-73.89693-5.93814-152.82475l-1.8349 2.60927zm-103.1548-.9598c10.2264 11.3754 27.91375 41.56702 30.3505 41.56702-6.48421-8.29285-22.4115-34.74871-30.3505-41.56701zM79.09357 87.91788c-11.05375.29722 2.23416 90.3172 5.93814 110.02062h-33.9821l-2.30656 2.63918h38.92783C83.98568 180.97409 70.81466 91.7534 81.5678 90.55705c-1.00134-1.50387-1.8662-2.54267-2.47422-2.63918zm89.8969 0c-5.92394.9403-32.98969 76.37114-32.98969 76.37114s-5.96065-.74227-11.95876-.74227c-3.54897 0-6.6043.21868-8.67036.4112l-.64923 2.97024s5.96066-.74227 11.95876-.74227c5.99811 0 11.95877.74227 11.95877.74227s26.86193-74.936 32.90721-76.37113c-.65142-1.65016-1.45625-2.60958-2.5567-2.63918z" opacity=".1"/><path fill="#FFF" d="M54.6812 47.75292c-12.45362 78.92784-5.93814 152.82475-5.93814 152.82475l2.29215-2.5764c-1.17292-17.43433-4.30661-80.4812 6.28517-147.60917h36.04124c.7635.00897 1.78728.63452 2.96907 1.64948-2.35994-2.6251-4.322-4.27345-5.60825-4.28866H54.6812zm107.95877 0c-6.86.08113-32.95968 45.85567-35.95877 45.85567 1.22302 1.56415 2.21624 2.63918 2.63918 2.63918 2.99908 0 29.09876-45.7746 35.95876-45.85567h31.80567l1.5964-2.63918h-36.04124zm-78.433 45.4433c8.75469 13.14824 30.51547 73.73196 30.51547 73.73196l.63674-2.9542c-5.37265-14.7321-25.84397-69.96138-30.98725-70.77776-.05602.0015-.11018-.0061-.16495 0zm90.06186 0c5.87223 14.97723-5.24373 89.64839-8.57732 107.38145l3.53132-2.7563c4.50763-26.44641 15.36186-104.34772 5.046-104.62515z" opacity=".3"/></svg>