<svg xmlns="http://www.w3.org/2000/svg" role="img" viewBox="-9.60 9.40 1019.20 980.20"><title>Memcached logo</title><path d="M339.3 913.4c0 31.4 25.4 56.8 56.8 56.8s56.8-25.4 56.8-56.8-25.4-56.8-56.8-56.8c-31.4.1-56.8 25.5-56.8 56.8zm207.8 0c0 31.4 25.4 56.8 56.8 56.8s56.8-25.4 56.8-56.8-25.4-56.8-56.8-56.8c-31.3.1-56.8 25.5-56.8 56.8z"/><path d="M942.9 29.8H721C679.2 30.3 518.5 312 500 312c-2.8 0-8.5-6.1-16.3-16.3-7.4-9.6-17.1-23.2-27.8-38.9-52.9-77.3-137-210.7-171.7-225.4-.3 0-.6-.3-.8-.3s-.6-.3-.8-.3c-.6 0-.8-.3-1.1-.3-.3 0-.6 0-.8-.3-.6 0-1.4-.3-1.9-.3H57.1C-19.5 515.3 20.4 970 20.4 970h239.5c-.6-2.8-1.1-5.5-1.7-8.8v-.5c0-.6-.3-1.1-.3-1.9 0-.6-.3-1.1-.3-1.7-19-106.4-65.3-422.8-60.4-577.4v-.3c0-1.7 0-3 .3-4.4v-.6c0-1.4 0-2.8.3-4.1v-.8c0-1.4 0-2.5.3-3.9v-1.1c0-1.1.3-2.2.3-3.3v-1.4c0-1.1.3-1.9.3-3v-1.7c0-.8.3-1.7.3-2.8 0-.6 0-1.1.3-1.9 0-.8.3-1.7.3-2.2 0-.6.3-1.4.3-1.9 0-.6.3-1.4.3-1.9 0-.8.3-1.4.3-2.2 0-.6 0-1.1.3-1.7 0-.8.3-1.7.3-2.5 0-.6 0-.8.3-1.4 0-.8.3-1.7.3-2.5 0-.3 0-.8.3-1.1.3-.8.3-1.7.6-2.8 0-.3 0-.6.3-.8.3-.8.3-1.9.6-2.8v-.6c.3-1.1.3-1.9.6-2.8v-.3c.3-1.1.6-1.9.6-3 4.1-17.4 10.7-27.3 19.6-27.6 3.9.6 9.1 6.3 15.7 16.3h-.6c53.7 81 187.7 453.7 187.7 453.7s36.7-4.7 73.6-4.7 73.6 4.7 73.6 4.7v-.3c3.9-11 167-463.9 202.9-469.7 63.7 1.7-3.9 486.7-31.4 648.5 0 .6-.3 1.1-.3 1.7-.3 1.4-.6 2.8-.6 3.9-.3 1.4-.6 2.8-.6 3.9 0 .8-.3 1.4-.3 2.2-.3 1.7-.6 3.3-.8 4.7 0 .6-.3.8-.3 1.4-.3 1.7-.6 3.3-.8 5v.8c-.3 1.7-.6 3.3-.8 5H980c-.4.8 39.5-454-37.1-939.6z"/></svg>