<svg xmlns="http://www.w3.org/2000/svg" role="img" viewBox="-20.18 -20.18 997.36 758.36"><title>METASAT (member) logo</title><style>svg {shape-rendering:geometricPrecision;text-rendering:geometricPrecision;image-rendering:optimizeQuality;fill-rule:evenodd;clip-rule:evenodd}</style><path fill="#fefefe" d="M-.5-.5h959v720h-569c122.382-10.079 216.215-66.746 281.5-170 19.381-32.769 33.214-67.769 41.5-105h-101c-24.789 75.962-74.122 129.462-148 160.5-25.282 9.657-51.282 15.491-78 17.5-16.38.278-32.713-.389-49-2-82.283-12.818-144.783-54.818-187.5-126-38.215-71.884-42.882-145.884-14-222 41.802-92.006 112.969-144.172 213.5-156.5 77.931-4.673 144.931 19.827 201 73.5 22.007-23.341 43.674-47.008 65-71-40.601-40.4861-88.601-68.9861-144-85.5-120.268-32.6559-228.935-10.3226-326 67C56.6208 176.968 15.1208 274.135 20 391.5 28.7425 498.512 75.2425 584.678 159.5 650c55.913 41.457 118.58 64.624 188 69.5H-.5V-.5z"/><path fill="#04446b" d="M336.5 620.5c5.419 1.544 11.086 2.377 17 2.5 10.841.825 21.508.659 32-.5 26.718-2.009 52.718-7.843 78-17.5 73.878-31.038 123.211-84.538 148-160.5h101c-8.286 37.231-22.119 72.231-41.5 105-65.285 103.254-159.118 159.921-281.5 170h-42c-69.42-4.876-132.087-28.043-188-69.5C75.2425 584.678 28.7425 498.512 20 391.5 15.1208 274.135 56.6208 176.968 144.5 100c97.065-77.3226 205.732-99.6559 326-67 55.399 16.5139 103.399 45.0139 144 85.5-21.326 23.992-42.993 47.659-65 71-56.069-53.673-123.069-78.173-201-73.5-100.531 12.328-171.698 64.494-213.5 156.5-28.882 76.116-24.215 150.116 14 222 42.717 71.182 105.217 113.182 187.5 126z"/><path fill="#f68714" d="M806.5 71.5c1.422.2086 2.755.7086 4 1.5 7.844 7.0113 15.51 14.178 23 21.5-10.333 12-20.667 24-31 36 11 10.667 22 21.333 33 32-7.353 8.85-15.186 17.184-23.5 25-11.304-9.802-22.471-19.802-33.5-30-4.657 4.825-9.157 9.825-13.5 15-9.307-7.474-18.141-15.474-26.5-24 4.695-4.907 9.028-10.074 13-15.5-11.646-10.978-23.312-21.978-35-33 7.845-8.6772 15.845-17.1772 24-25.5 11.667 10.6667 23.333 21.3333 35 32 10.698-11.3638 21.032-23.0305 31-35z"/><path fill="#f6831c" d="M631.5 191.5h8v17h15v8h-15v17h-8v-17h-15v-8h15v-17z"/><path fill="#f6841f" d="M722.5 191.5c1.951-.273 3.451.393 4.5 2 2.641 9.587 5.474 19.087 8.5 28.5 9.575-2.217 19.241-4.383 29-6.5 1.074 4.129 2.074 8.296 3 12.5-.085 1.107-.419 2.107-1 3-8.385 2.346-16.718 4.846-25 7.5-.286 3.429-.286 6.763 0 10-4.889 1.805-9.889 3.139-15 4-.667-3-1.333-6-2-9-9.409 2.353-18.743 5.019-28 8-2.472-5.082-4.139-10.416-5-16 8.938-2.353 17.772-5.02 26.5-8-1.383-10.535-3.883-20.868-7.5-31 3.951-1.976 7.951-3.643 12-5z"/><path fill="#f68817" d="M665.5 303.5c16.342-1.159 31.342 2.674 45 11.5 5.93 4.022 8.43 9.522 7.5 16.5-4.121 4.315-8.955 5.149-14.5 2.5-5.719-6.867-13.053-11.2-22-13-7.389-.801-14.723-.467-22 1-11.636 5.136-12.97 12.136-4 21 3.106 1.636 6.273 3.136 9.5 4.5 15.042 3.236 29.542 8.069 43.5 14.5 13.064 8.64 17.231 20.473 12.5 35.5-5.235 9.885-13.402 16.052-24.5 18.5-20.477 4.142-39.81 1.142-58-9-5.088-3.083-9.588-6.917-13.5-11.5-.784-8.55 3.05-12.383 11.5-11.5 8.549 7.942 18.549 13.276 30 16 7.333.667 14.667.667 22 0 14.01-3.817 16.676-11.484 8-23-5.764-2.922-11.764-5.255-18-7-14.503-2.054-27.837-7.054-40-15-11.486-11.312-12.986-23.812-4.5-37.5 9.058-8.116 19.558-12.783 31.5-14z"/><path fill="#f68816" d="M780.5 303.5c12.237-.85 23.904 1.317 35 6.5 11.863 7.213 19.03 17.713 21.5 31.5.667 23.667.667 47.333 0 71-5.447 5.79-11.447 6.457-18 2-.419-1.172-1.085-2.172-2-3-.5-9.661-.666-19.328-.5-29h-57c.166 9.006 0 18.006-.5 27-2.248 7.211-7.082 9.711-14.5 7.5-2.124-1.122-3.957-2.622-5.5-4.5-.952-25.375-.619-50.708 1-76 6.522-19.698 20.022-30.698 40.5-33z"/><path fill="#f68713" d="M933.5 321.5h-31v87c-2.609 8.903-8.276 11.403-17 7.5-1.987-1.319-3.154-3.152-3.5-5.5-.5-29.665-.667-59.331-.5-89-11.671.167-23.338 0-35-.5-4.724-2.435-6.224-6.269-4.5-11.5 1.214-1.549 2.714-2.715 4.5-3.5 30.333-.667 60.667-.667 91 0 4.724 2.435 6.224 6.269 4.5 11.5-2.141 2.821-4.975 4.154-8.5 4z"/><path fill="#3b3738" d="M175.5 305.5c15.84-1.58 28.84 3.754 39 16 12.851-15.611 28.851-19.778 48-12.5 12.5 5.849 19.667 15.682 21.5 29.5.667 24 .667 48 0 72-1.994 8.289-7.161 11.122-15.5 8.5-1.833-1.167-3.333-2.667-4.5-4.5-.333-25.333-.667-50.667-1-76-3.069-13.633-11.569-18.8-25.5-15.5-6.882 2.907-11.048 8.074-12.5 15.5-.333 25.333-.667 50.667-1 76-6.333 6.667-12.667 6.667-19 0-.036-26.382-.702-52.716-2-79-3.17-9.338-9.67-13.671-19.5-13-10.082.579-15.916 5.912-17.5 16-.333 25.333-.667 50.667-1 76-5.311 5.757-11.144 6.423-17.5 2-1.434-1.72-2.267-3.72-2.5-6-.943-25.702-.61-51.369 1-77 1.823-7.148 5.323-13.315 10.5-18.5 5.878-4.273 12.212-7.439 19-9.5z"/><path fill="#3a3637" d="M583.5 384.5c-19.159-.997-38.493-1.33-58-1v28c-2.12 6.898-6.787 9.398-14 7.5-2.109-1.141-3.942-2.641-5.5-4.5-.667-24-.667-48 0-72 6.717-24.877 23.05-37.21 49-37 26.515-.263 42.849 12.404 49 38 .667 23.667.667 47.333 0 71-6.333 6.667-12.667 6.667-19 0-1.423-9.92-1.923-19.92-1.5-30z"/><path fill="#3a3637" d="M323.5 329.5c-.992 7.816-1.326 15.816-1 24h42c7.152 1 9.652 5 7.5 12-1.214 1.549-2.714 2.715-4.5 3.5-14.996.5-29.996.667-45 .5-.166 9.339 0 18.673.5 28l3.5 3.5c18.667.333 37.333.667 56 1 5.404 2.083 7.237 5.916 5.5 11.5-1.214 1.549-2.714 2.715-4.5 3.5-21.333.667-42.667.667-64 0-9.705-1.874-15.538-7.708-17.5-17.5-.667-25-.667-50 0-75 2.281-9.281 8.114-14.781 17.5-16.5 20.333-.667 40.667-.667 61 0 3.777 2.955 4.943 6.788 3.5 11.5-1.214 1.549-2.714 2.715-4.5 3.5-17.667.333-35.333.667-53 1-2.107 1.264-3.107 3.097-3 5.5z"/><path fill="#3a3637" d="M404.5 307.5c30.668-.167 61.335 0 92 .5 5.189 2.913 6.356 7.08 3.5 12.5-1.255.711-2.421 1.544-3.5 2.5-11.662.5-23.329.667-35 .5.167 29.335 0 58.669-.5 88-2.248 7.211-7.082 9.711-14.5 7.5-2.124-1.122-3.957-2.622-5.5-4.5-.5-30.332-.667-60.665-.5-91-11.671.167-23.338 0-35-.5-4.724-2.435-6.224-6.269-4.5-11.5 1.376-1.205 2.542-2.538 3.5-4z"/><path fill="#fffcfa" d="M779.5 320.5c12.966-2.179 23.799 1.488 32.5 11 1.618 3.568 2.951 7.235 4 11 .5 7.993.666 15.993.5 24h-57c-.166-8.007 0-16.007.5-24 2.138-11.299 8.638-18.632 19.5-22z"/><path fill="#fdfdfd" d="M546.5 322.5c11.506-2.075 21.673.592 30.5 8 3.09 4.182 5.09 8.849 6 14 .5 7.659.666 15.326.5 23h-57c-.353-9.391.147-18.725 1.5-28 3.215-9.055 9.382-14.722 18.5-17z"/><path fill="#fdecda" d="M933.5 321.5c-9.819.994-19.819 1.327-30 1 .331 28.838-.002 57.505-1 86v-87h31z"/><path fill="#c5c4c5" d="M323.5 329.5v23c13.844-.329 27.51.004 41 1h-42c-.326-8.184.008-16.184 1-24z"/><path fill="#8f8d8d" d="M583.5 384.5h-57c.327 9.182-.007 18.182-1 27v-28c19.507-.33 38.841.003 58 1z"/><path fill="#5e86a0" d="M336.5 620.5c16.287 1.611 32.62 2.278 49 2-10.492 1.159-21.159 1.325-32 .5-5.914-.123-11.581-.956-17-2.5z"/></svg>