<svg xmlns="http://www.w3.org/2000/svg" role="img" viewBox="99.90 185.90 1045.20 516.20"><title>Microchip logo</title><defs><style>.cls-2{fill:#fff}.cls-4{isolation:isolate}</style></defs><g id="Layer_1" data-name="Layer 1"><path fill="#272425" d="M502.68268 363.30019l-5.86921-73.62024h-.2552l-22.71126 58.79412c-2.09252 5.48642-6.76233 9.95211-13.2695 9.95211s-11.66187-5.40986-13.2695-9.95211l-22.2009-58.05409h-.22966l-6.37957 72.88021-21.66502-.0255 11.04942-103.78285c.71451-5.74161 5.43539-12.24878 11.81496-12.24878 9.79901 0 13.72883 5.74161 15.66822 11.4577l25.08448 63.03017h.22966l25.08448-63.03015c2.19457-5.71609 5.99681-11.4577 15.66822-11.4577 6.37957 0 11.10047 6.53267 11.81498 13.60125l10.97287 102.45591h-21.53744l-.00004-.00004zm33.02066-87.78289h20.18497v87.78289h-20.18497V275.5173zm477.47257 0h20.18497v87.78289h-20.18497V275.5173zm-446.11062 30.80058c0-25.69691 9.85006-31.77025 26.36039-31.77025h21.56294c26.10519 0 29.49913-1.70972 29.34602 23.14508l-47.31092-.07655c-9.67141 0-11.12597 6.14992-11.12597 17.04621v9.46728c0 12.73364 1.81182 17.58209 10.48802 17.58209l48.68889-.05105c0 14.80061-.20415 22.58369-18.62835 22.58369h-33.04617c-16.53584 0-26.36039-6.07336-26.36039-31.77025v-26.15624h.0255l.00004-.00002zm165.66468.84211v-5.58851c0-15.7703-3.80224-26.05416-17.93935-26.05416h-58.66654v87.78287h18.34765v-22.78781h32.12751c5.71611 0 7.52789 3.03668 7.52789 12.24878v10.53906h18.34765v-14.90267c0-14.41783-4.54225-17.93935-10.00316-19.39389v-.22966c8.44655-2.93461 10.25836-9.85006 10.25836-21.61399m-17.83729 2.32217c0 6.30302-1.81182 9.2121-6.78787 9.2121h-33.60753v-21.33329h31.9489c5.79266 0 8.42104 1.45454 8.42104 9.2121v2.90908h.0255-.00004zm28.91222-3.16426c0-25.69691 9.82455-31.77025 26.36039-31.77025h29.42258c16.53587 0 26.36035 6.04784 26.36035 31.77025v26.18176c0 25.69691-9.82455 31.77027-26.36035 31.77027H770.1653c-16.53584 0-26.36039-6.07336-26.36039-31.77025v-26.18176m18.85801 17.81177c0 12.73364 1.81182 17.58209 10.48798 17.58209h23.47685c8.6762 0 10.48798-4.84846 10.48798-17.58209v-9.46728c0-10.92182-1.81178-17.58209-11.48323-17.58209h-21.48643c-9.67141 0-11.48323 6.66027-11.48323 17.58209v9.46728h.00008zm162.14318-48.61233h18.34765v31.28542h38.68572v-31.28542h18.34765v87.78287h-18.34765v-33.22481h-38.68572v33.22481H924.8061v-87.78287zm177.19896 0h-56.72717v87.78287h18.34765v-22.0733h43.17697c12.9888 0 16.86755-15.03027 16.86755-28.12116v-7.52789c0-17.19932-4.2105-30.06053-21.665-30.06053m2.83249 34.55176c0 5.20573-1.65867 9.3397-5.94573 9.3397h-35.24074v-22.07332h33.65862c5.5375 0 7.52792 3.39394 7.52792 9.3397v3.39394l-.00008-.00002zm-268.91167-3.62359c0-25.69691 9.82455-31.77025 26.36035-31.77025h21.56298c26.1307 0 29.39703-1.70972 29.24393 23.14508l-47.20882-.07655c-9.67145 0-11.12593 6.14992-11.12593 17.04621v9.44176c0 12.73362 1.81178 17.58211 10.48798 17.58211l48.68885-.05105c0 14.80061-.17865 22.58369-18.62831 22.58369H862.2607c-16.53587 0-26.36035-6.07336-26.36035-31.77025v-26.13072h.02554v-.00004z"/><path d="M277.94315 212.15541c-11.27908-3.24081-23.22163-5.00158-35.62352-5.00158-67.36826 0-122.00291 51.49589-122.00291 115.0109s54.60912 115.01091 122.00291 115.01091c61.90736 0 113.02047-43.48317 120.90561-99.82751l-85.28209-125.19272z" class="cls-2"/><path fill="#cb2d29" d="M293.10102 217.76943c-15.69375-7.40031-30.21365-11.07492-48.89303-11.40668-67.36826-1.17384-122.87053 49.76065-123.99333 113.73498-.17863 11.07494 1.2504 21.81812 4.13396 32.02543l34.80694-48.81647 23.57889 36.89943s7.09408 8.03824 1.70973 16.15308c-.33174.51036-31.97441 44.22319-31.97441 44.22319 21.86917 22.91541 52.6187 36.89945 87.68082 37.51187 34.01587.58691 64.40814-11.81498 86.88976-32.76546l-74.05406-116.89924s11.68737-16.38273 20.82292-29.37155c10.05421-14.29023 19.11319-4.3126 22.12435.4083 21.71606 34.0414 62.46874 98.62816 62.46874 98.62816l.02552-.38276c4.185-9.59486 6.32854-12.50394 6.76235-26.33487l-72.08915-113.60742m-17.58209 139.9933s-19.72563 28.75911-21.74158 31.48955c-12.07015 16.38273-20.92499-2.52632-20.92499-2.52632l-62.72394-98.60264s11.68737-16.38273 20.82292-29.37155c10.0542-14.29023 19.11319-4.3126 22.12435.4083 21.71606 34.01587 62.44324 98.60262 62.44324 98.60262v.00004z"/><path d="M312.36733 223.94487c0-5.40988 4.38915-9.3652 9.54383-9.3652 5.12918 0 9.4928 3.98085 9.4928 9.3652 0 5.43539-4.36362 9.41625-9.4928 9.41625-5.18021 0-9.54383-3.98085-9.54383-9.41625m9.54383 7.85964c4.26155 0 7.60446-3.34289 7.60446-7.83411 0-4.44018-3.34289-7.80859-7.60446-7.80859-4.28707 0-7.65548 3.34289-7.65548 7.80859 0 4.49122 3.34289 7.83411 7.65548 7.83411m-1.99042-2.42423h-1.63317v-10.84527h4.13397c2.55183 0 3.82774.94418 3.82774 3.08771 0 1.93939-1.22489 2.78148-2.80701 2.98563l3.08771 4.77193h-1.83732l-2.85805-4.69535h-1.88835v4.69535h-.02552m1.9649-6.07334c1.37799 0 2.62838-.10208 2.62838-1.76077 0-1.32694-1.22489-1.58214-2.3732-1.58214h-2.2201v3.36841h1.9649s0-.02552.00002-.0255z"/></g><g id="svg8"><path id="rect223" fill="#d39329" d="M123.596 599.4h1002.212v82.751H123.67l-.074-82.751z"/><g id="text4737" class="cls-4"><g class="cls-4"><path d="M295.93848 663.07031v-44.70117h46.75928v5.27441h-37.58691v13.84375h32.52832v5.27539h-32.52832v20.30762h-9.17236zm82.78662-21.77148c0-7.41992 3.08887-13.22852 9.2666-17.42676 6.17773-4.19727 14.15234-6.2959 23.92383-6.2959 6.39844 0 12.16602.98633 17.30371 2.95703 5.1377 1.97266 9.05469 4.72168 11.74902 8.24902 2.69531 3.52637 4.04297 7.52637 4.04297 11.99805 0 4.5332-1.41895 8.58887-4.25586 12.16699-2.83594 3.57812-6.85547 6.28613-12.05566 8.12598-5.20117 1.83984-10.81152 2.75977-16.83203 2.75977-6.52441 0-12.35547-1.0166-17.49316-3.0498-5.1377-2.03223-9.03027-4.80664-11.67773-8.32422-2.64746-3.5166-3.97168-7.23633-3.97168-11.16016zm9.45605.0918c0 5.38672 2.24609 9.63086 6.7373 12.73047s10.125 4.64941 16.90234 4.64941c6.90234 0 12.58398-1.56445 17.04395-4.69531 4.45996-3.12988 6.69043-7.57227 6.69043-13.3252 0-3.63867-.9541-6.81543-2.86035-9.5293-1.90723-2.71289-4.69727-4.81738-8.36914-6.31152s-7.79297-2.24121-12.36328-2.24121c-6.49316 0-12.08008 1.43848-16.76074 4.31445-4.68066 2.87695-7.02051 7.67969-7.02051 14.4082zm141.03418-23.02149h9.17188v25.82617c0 4.49316-.78809 8.06055-2.36328 10.70312-1.57715 2.64258-4.4209 4.79199-8.53418 6.44922s-9.51172 2.48535-16.19336 2.48535c-6.49316 0-11.80469-.72266-15.93359-2.16504-4.12891-1.44336-7.07617-3.53223-8.84082-6.2666-1.76562-2.7334-2.64746-6.46875-2.64746-11.20605v-25.82617h9.17188v25.7959c0 3.88281.55957 6.74414 1.67871 8.58398 1.11816 1.83984 3.04102 3.25781 5.76758 4.25293 2.72656.99707 6.05957 1.49414 10 1.49414 6.74414 0 11.55176-.98535 14.41992-2.95703s4.30273-5.76367 4.30273-11.37402v-25.7959zm51.25098 44.70117v-44.70117h9.4082l36.40576 35.0957v-35.0957h8.79395v44.70117h-9.4082l-36.40576-35.12695v35.12695h-8.79395zm96.92334 0v-44.70117h23.87695c5.38965 0 9.50293.21289 12.33984.63965 3.9707.58984 7.35938 1.65723 10.16504 3.20215 3.65625 1.99219 6.38965 4.53809 8.20312 7.6377 1.81152 3.10059 2.71777 6.64258 2.71777 10.62695 0 3.39551-.61426 6.40332-1.84375 9.02539-1.22949 2.62305-2.80566 4.79297-4.72754 6.51074-1.92285 1.71777-4.02734 3.06934-6.31152 4.05469-2.28613.98633-5.04395 1.7334-8.27441 2.24121-3.23145.50879-6.94238.7627-11.13379.7627h-25.01172zm9.17283-5.27539h14.79787c4.57031 0 8.15625-.27441 10.75684-.82324 2.59961-.54883 4.67188-1.32129 6.2168-2.31738 2.1748-1.40234 3.86914-3.28809 5.08301-5.65625 1.21289-2.36816 1.82031-5.23926 1.82031-8.61426 0-4.6748-1.19043-8.26758-3.57031-10.77832s-5.27148-4.19336-8.67578-5.04688c-2.45801-.60938-6.41406-.91504-11.86719-.91504h-14.56154v34.15137zm89.21584 5.27539v-44.70117h9.17188v44.70117h-9.17188zm52.14941 0v-44.70117h9.4082l36.40527 35.0957v-35.0957h8.79395v44.70117h-9.4082l-36.40527-35.12695v35.12695h-8.79395zm129.35645-17.5332v-5.24414l29.36035-.03125v16.58789c-4.50781 2.31738-9.15723 4.06055-13.94727 5.22949-4.79199 1.16895-9.70898 1.75391-14.75195 1.75391-6.80762 0-12.99414-.94043-18.55664-2.82129-5.56348-1.87988-9.76367-4.59863-12.60059-8.15625-2.83594-3.55762-4.25488-7.53125-4.25488-11.92285 0-4.34961 1.41016-8.41016 4.23145-12.18164 2.82031-3.77051 6.87891-6.57031 12.1748-8.40039 5.29492-1.8291 11.39453-2.74414 18.29688-2.74414 5.01172 0 9.54199.52344 13.59277 1.57031 4.0498 1.04688 7.22559 2.50586 9.52734 4.37598 2.2998 1.87012 4.0498 4.30957 5.24805 7.31738l-8.27441 1.46387c-1.04004-2.27637-2.33301-4.06543-3.87695-5.36621-1.54492-1.30078-3.75098-2.34277-6.61914-3.12598-2.86816-.78223-6.05176-1.17383-9.5498-1.17383-4.19238 0-7.81738.41211-10.875 1.23535s-5.52441 1.90527-7.39941 3.24707-3.33301 2.81543-4.37305 4.42188c-1.76562 2.76465-2.64746 5.7627-2.64746 8.99512 0 3.98438 1.06348 7.31738 3.19141 10.00098s5.22461 4.67578 9.29004 5.97656c4.06641 1.30078 8.38477 1.95117 12.95508 1.95117 3.97168 0 7.84863-.49219 11.63086-1.47852 3.78223-.98535 6.64941-2.03809 8.60449-3.15625v-8.32422H957.2842z" class="cls-2"/></g></g></g></svg>