<svg xmlns="http://www.w3.org/2000/svg" role="img" xmlns:xlink="http://www.w3.org/1999/xlink" viewBox="26.84 -3.16 762.32 173.82"><title>Microip Inc. (member) logo</title><defs><clipPath id="clip-path"><rect width="33.56" height="33.56" x="41.91" y="11.75" class="cls-1" rx="6.71"/></clipPath><clipPath id="clip-path-2"><path d="M75.47 75.52a6.71 6.71 0 0 1-6.71 6.71H48.62a6.71 6.71 0 0 1-6.71-6.71V55.38a6.7 6.7 0 0 1 6.71-6.71h20.14a6.7 6.7 0 0 1 6.71 6.71z" class="cls-1"/></clipPath><clipPath id="clip-path-3"><path d="M112.39 112.44a6.72 6.72 0 0 1-6.71 6.71H85.54a6.72 6.72 0 0 1-6.72-6.71V92.3a6.71 6.71 0 0 1 6.72-6.71h20.14a6.71 6.71 0 0 1 6.71 6.71z" class="cls-1"/></clipPath><clipPath id="clip-path-4"><path d="M149.31 112.44a6.72 6.72 0 0 1-6.71 6.71h-20.14a6.72 6.72 0 0 1-6.72-6.71V92.3a6.71 6.71 0 0 1 6.72-6.71h20.14a6.71 6.71 0 0 1 6.71 6.71z" class="cls-1"/></clipPath><clipPath id="clip-path-5"><path d="M186.22 112.44a6.71 6.71 0 0 1-6.71 6.71h-20.14a6.71 6.71 0 0 1-6.7-6.71V92.3a6.7 6.7 0 0 1 6.7-6.71h20.14a6.7 6.7 0 0 1 6.71 6.71z" class="cls-1"/></clipPath><clipPath id="clip-path-6"><path d="M85.54 122.5h20.13a6.72 6.72 0 0 1 6.72 6.72v20.13a6.71 6.71 0 0 1-6.71 6.71H85.53a6.71 6.71 0 0 1-6.71-6.71v-20.13a6.71 6.71 0 0 1 6.72-6.72z" class="cls-1"/></clipPath><clipPath id="clip-path-7"><rect width="33.56" height="33.56" x="115.74" y="122.5" class="cls-1" rx="6.71"/></clipPath><clipPath id="clip-path-8"><path d="M186.22 149.35a6.71 6.71 0 0 1-6.71 6.72h-20.14a6.71 6.71 0 0 1-6.7-6.72v-20.13a6.71 6.71 0 0 1 6.7-6.72h20.14a6.71 6.71 0 0 1 6.71 6.72z" class="cls-1"/></clipPath><clipPath id="clip-path-9"><path d="M161.12 11.75h-1.75a6.7 6.7 0 0 0-6.7 6.71v7.91c2.84-4.65 5.67-9.53 8.45-14.62z" class="cls-2"/></clipPath><clipPath id="clip-path-10"><path d="M179.51 11.75h-4.45c-.72 1.08-1.46 2.21-2.23 3.42-3.66 5.7-7.26 11.87-10.72 18.32q-3 5.64-5.51 11.2a6.61 6.61 0 0 0 2.77.62h20.14a6.7 6.7 0 0 0 6.71-6.71V18.46a6.7 6.7 0 0 0-6.71-6.71z" class="cls-1"/></clipPath><clipPath id="clip-path-11"><path d="M164.65 63.1a86.44 86.44 0 0 0 7.16-7.33c2.07-2.36 4-4.75 5.81-7.1h-18.25a6.7 6.7 0 0 0-6.14 4c0 .1-.07.19-.1.29a6.61 6.61 0 0 0-.46 2.4V70.1h.16a10.64 10.64 0 0 0 5-1.83 44.34 44.34 0 0 0 6.82-5.17z" class="cls-1"/></clipPath><clipPath id="clip-path-12"><path d="M183.56 50.06v.54l-.33.47c-1.63 2.33-3.76 5.12-6.34 8.29a72.39 72.39 0 0 1-8.89 9.11 61.61 61.61 0 0 1-10.58 7.35 27.67 27.67 0 0 1-4.31 1.91 6.71 6.71 0 0 0 6.31 4.5h20.14a6.71 6.71 0 0 0 6.71-6.71V55.38a6.67 6.67 0 0 0-2.71-5.32z" class="cls-1"/></clipPath><clipPath id="clip-path-13"><path d="M130.35 12.93c-2.5 3.75-5.07 7.77-7.62 12-2.43 4-4.77 8.09-7 12.29v1.38a6.71 6.71 0 0 0 6.72 6.71h17.38q4.69-6.16 9.47-13.56V18.46a6.71 6.71 0 0 0-6.71-6.71h-11.44c-.27.39-.53.77-.8 1.18z" class="cls-1"/></clipPath><clipPath id="clip-path-14"><path d="M135.93 50.24c.43-.51.85-1 1.27-1.57h-14.74a6.71 6.71 0 0 0-6.72 6.71v12.73a26.47 26.47 0 0 0 6.37-3.87 95.6 95.6 0 0 0 13.82-14z" class="cls-1"/></clipPath><clipPath id="clip-path-15"><path d="M145.53 79c-4.24 0-7-1.35-8.28-4a15.24 15.24 0 0 1-1.57-6.52 31.3 31.3 0 0 1 1.32-7.8c.39-1.46.89-3 1.46-4.48l-4.57 5.13a66.33 66.33 0 0 1-8.95 8.41 60.16 60.16 0 0 1-9.14 5.9 6.7 6.7 0 0 0 6.7 6.59h20.1a6.67 6.67 0 0 0 5.8-3.41 23.05 23.05 0 0 1-2.87.18z" class="cls-1"/></clipPath><clipPath id="clip-path-16"><path d="M85.54 45.31h11.77c4.81-8.31 9.37-16.1 13.57-23.2l1.51-2.56v-1.09a6.71 6.71 0 0 0-6.71-6.71H85.54a6.71 6.71 0 0 0-6.72 6.71V38.6a6.71 6.71 0 0 0 6.72 6.71z" class="cls-1"/></clipPath><clipPath id="clip-path-17"><path d="M104.46 78.66c-4.62 0-7.78-1.35-9.4-4a16.85 16.85 0 0 1-2.19-9c0-.31 0-.67.06-1.07-2.47 4.43-4.87 8.86-7.21 13.25-.72 1.36-1.42 2.7-2.12 4a6.57 6.57 0 0 0 1.94.32h20.14a6.7 6.7 0 0 0 6.45-5 22.6 22.6 0 0 1-7.67 1.5z" class="cls-1"/></clipPath><clipPath id="clip-path-18"><path d="M109.76 50.08c0 .09-.08.17-.11.26a50.68 50.68 0 0 0-2.35 7.54 27.56 27.56 0 0 0-.65 5.72 7.4 7.4 0 0 0 1.08 4.19c.56.85 1.8 1.27 3.69 1.27a8.14 8.14 0 0 0 1-.06V55.38a6.68 6.68 0 0 0-2.66-5.3z" class="cls-1"/></clipPath><clipPath id="clip-path-19"><path d="M94.51 50.14l.86-1.47h-9.83a6.71 6.71 0 0 0-6.72 6.71v20.14a6.58 6.58 0 0 0 .18 1.61C84.17 68.1 89.37 59 94.51 50.14z" class="cls-1"/></clipPath><clipPath id="clip-path-20"><path d="M64.35 104.72c2.76-5.6 5.79-11.4 9-17.31a6.68 6.68 0 0 0-4.58-1.82H48.62a6.7 6.7 0 0 0-6.71 6.71v20.14a6.71 6.71 0 0 0 6.71 6.71h9.08c1.95-4.58 4.15-9.38 6.65-14.43z" class="cls-1"/></clipPath><clipPath id="clip-path-21"><path d="M73.07 103.5c-2.42 5.37-4.48 10.6-6.2 15.65h1.89a6.71 6.71 0 0 0 6.71-6.71V98.29c-.82 1.76-1.63 3.5-2.4 5.21z" class="cls-1"/></clipPath><clipPath id="clip-path-22"><path d="M50.16 156.06a13.41 13.41 0 0 1-.45-4.06v-5.22c0-4.62 1.39-10.7 4.13-18.05.73-2 1.56-4.09 2.43-6.23h-7.65a6.71 6.71 0 0 0-6.71 6.72v20.13a6.71 6.71 0 0 0 6.71 6.72h1.54z" class="cls-1"/></clipPath><clipPath id="clip-path-23"><path d="M68.76 122.5h-3c-.45 1.43-.9 2.85-1.29 4.24a72.83 72.83 0 0 0-3.06 19.34 71.18 71.18 0 0 0 .51 8.14c.07.66.16 1.27.26 1.85h6.59a6.71 6.71 0 0 0 6.71-6.72v-20.13a6.71 6.71 0 0 0-6.72-6.72z" class="cls-1"/></clipPath><linearGradient id="linear-gradient" x1="152.67" x2="161.12" y1="19.06" y2="19.06" gradientUnits="userSpaceOnUse"><stop offset="0" stop-color="#fff226"/><stop offset="1" stop-color="#ee7800"/></linearGradient><linearGradient id="linear-gradient-2" x1="39.62" x2="188.24" y1="9.57" y2="158.18" xlink:href="#linear-gradient"/><style>.cls-1{fill:none}.cls-2{fill:url(#linear-gradient)}.cls-6{fill:url(#linear-gradient-2)}</style></defs><rect width="144.09" height="144.35" x="41.91" y="11.75" fill="#fff" rx="6.81"/><path fill="#231815" d="M311.64 53a8.45 8.45 0 0 0-6-2.58c-3.3 0-6.24 2.54-9 7.79l-22.8 44.56-22.67-44.56c-2.74-5.26-5.67-7.81-8.95-7.81a8.17 8.17 0 0 0-5.93 2.5 11.07 11.07 0 0 0-3.15 5.56l-16.37 67.38h17l9.71-47.36 22.18 42.65c1.93 3.68 4.82 5.54 8.58 5.54 3.39 0 6.05-1.81 7.91-5.45l22.21-42.74 9.8 47.36h16.92l-16.34-67.4a11.76 11.76 0 0 0-3.1-5.44zm30.58-1.56h15.22v74.31h-15.22zm37.32 10.02C372.55 68.13 369 77 369 87.82s3.56 20 10.6 27.15 16.08 10.78 26.81 10.78h41.8v-15.23h-41.8c-6.55 0-11.77-2-16-6s-6.23-9.14-6.23-15.66 2-11.83 6.25-16 9.42-6.21 15.95-6.21h41.8V51.44h-41.8c-10.81 0-19.86 3.38-26.84 10.02zm159.79 33.82a24.22 24.22 0 0 0 6-16.42c0-9.25-3.47-16.38-10.34-21.17-5.86-4.14-13.65-6.25-23.1-6.25h-52.68v74.31h15.24v-20.12h32.3l20 20.12H549l-22.4-22.21a28.5 28.5 0 0 0 12.73-8.26zm-64.88-28.62h39.46c10.5 0 15.6 3.93 15.6 12a10 10 0 0 1-4.72 9 19.88 19.88 0 0 1-10.88 2.81h-39.46zm135.88-15.22h-20c-10.87 0-19.9 3.38-26.89 10S552.93 77 552.93 87.82s3.57 20 10.62 27.15 16.06 10.78 26.79 10.78h20c10.82 0 19.85-3.62 26.86-10.78s10.56-16.27 10.56-27.15-3.53-19.69-10.48-26.36-16-10.02-26.95-10.02zm0 59.08h-20c-6.45 0-11.83-2-16-6s-6.22-9.14-6.22-15.66 2.05-11.82 6.23-16 9.52-6.21 16-6.21h20c6.51 0 11.91 2.09 16.07 6.21s6.23 9.5 6.23 16-2 11.62-6.22 15.67-9.48 5.99-16.09 5.99zm54.04-59.08h15.22v74.31h-15.22zm101.57 7.14c-5.58-4.74-12.6-7.14-20.91-7.14h-52.69v74.31h15.21v-20.12H745c8.31 0 15.33-2.37 20.89-7 6-5 9.09-11.79 9.09-20s-2.98-15.06-9.04-20.05zm-58.39 8.08H747a14.28 14.28 0 0 1 9.47 3.23 10.5 10.5 0 0 1 3.71 8.54 10.77 10.77 0 0 1-3.73 8.66 13.9 13.9 0 0 1-9.45 3.32h-39.45z"/><g clip-path="url(#clip-path)"><path d="M40.79 8.39h146.27v150.96H40.79z" class="cls-6"/></g><g clip-path="url(#clip-path-2)"><path d="M40.79 8.39h146.27v150.96H40.79z" class="cls-6"/></g><g clip-path="url(#clip-path-3)"><path d="M40.79 8.39h146.27v150.96H40.79z" class="cls-6"/></g><g clip-path="url(#clip-path-4)"><path d="M40.79 8.39h146.27v150.96H40.79z" class="cls-6"/></g><g clip-path="url(#clip-path-5)"><path d="M40.79 8.39h146.27v150.96H40.79z" class="cls-6"/></g><g clip-path="url(#clip-path-6)"><path d="M40.79 8.39h146.27v150.96H40.79z" class="cls-6"/></g><g clip-path="url(#clip-path-7)"><path d="M40.79 8.39h146.27v150.96H40.79z" class="cls-6"/></g><g clip-path="url(#clip-path-8)"><path d="M40.79 8.39h146.27v150.96H40.79z" class="cls-6"/></g><path d="M161.12 11.75h-1.75a6.7 6.7 0 0 0-6.7 6.71v7.91c2.84-4.65 5.67-9.53 8.45-14.62z" class="cls-2"/><g clip-path="url(#clip-path-9)"><path d="M40.79 8.39h146.27v150.96H40.79z" class="cls-6"/></g><g clip-path="url(#clip-path-10)"><path d="M40.79 8.39h146.27v150.96H40.79z" class="cls-6"/></g><g clip-path="url(#clip-path-11)"><path d="M40.79 8.39h146.27v150.96H40.79z" class="cls-6"/></g><g clip-path="url(#clip-path-12)"><path d="M40.79 8.39h146.27v150.96H40.79z" class="cls-6"/></g><g clip-path="url(#clip-path-13)"><path d="M40.79 8.39h146.27v150.96H40.79z" class="cls-6"/></g><g clip-path="url(#clip-path-14)"><path d="M40.79 8.39h146.27v150.96H40.79z" class="cls-6"/></g><g clip-path="url(#clip-path-15)"><path d="M40.79 8.39h146.27v150.96H40.79z" class="cls-6"/></g><g clip-path="url(#clip-path-16)"><path d="M40.79 8.39h146.27v150.96H40.79z" class="cls-6"/></g><g clip-path="url(#clip-path-17)"><path d="M40.79 8.39h146.27v150.96H40.79z" class="cls-6"/></g><g clip-path="url(#clip-path-18)"><path d="M40.79 8.39h146.27v150.96H40.79z" class="cls-6"/></g><g clip-path="url(#clip-path-19)"><path d="M40.79 8.39h146.27v150.96H40.79z" class="cls-6"/></g><g clip-path="url(#clip-path-20)"><path d="M40.79 8.39h146.27v150.96H40.79z" class="cls-6"/></g><g clip-path="url(#clip-path-21)"><path d="M40.79 8.39h146.27v150.96H40.79z" class="cls-6"/></g><g clip-path="url(#clip-path-22)"><path d="M40.79 8.39h146.27v150.96H40.79z" class="cls-6"/></g><g clip-path="url(#clip-path-23)"><path d="M40.79 8.39h146.27v150.96H40.79z" class="cls-6"/></g></svg>