<svg xmlns="http://www.w3.org/2000/svg" role="img" viewBox="-5.53 0.22 404.56 60.31"><title>Middle East Technical University (member) logo</title><style>svg {enable-background:new 0 0 396.4 61}</style><path fill="#cf0a2c" d="M33.7 8c-1.5 0-3.1.2-4.5.4-1.5-.3-3-.4-4.5-.4C12.3 8 2.3 18.1 2.3 30.5S12.4 53 24.8 53c1.5 0 3-.2 4.5-.5 1.5.3 3 .5 4.5.5 12.3 0 22.4-10.1 22.4-22.5C56.1 18.1 46.1 8 33.7 8M11.2 30.5c0-10.9 7.7-19.9 18-22v44c-10.3-2.1-18-11.2-18-22m22.5 21.8c-1 0-2-.1-2.9-.2 9.4-2.7 16.4-11.3 16.4-21.6s-6.9-19-16.4-21.6c1-.1 2-.2 2.9-.2 12 0 21.7 9.8 21.7 21.8.1 12-9.7 21.8-21.7 21.8"/><path fill="#55565a" d="M385.5 44.2v4.3h2v-4.3l3.8-6.3H389l-2.5 4.4-2.5-4.4h-2.3l3.8 6.3zM371 39.6h3.5v8.9h2v-8.9h3.5v-1.8h-9v1.8zm-4.9 8.9h2.1V37.8h-2.1v10.7zm-11.8-2c0 1.2 1 2.2 2.2 2.2h3.8c1.2 0 2.2-1 2.2-2.2v-1.7c0-.8-.5-1.5-1.3-1.8l-4.5-1.2c-.3-.1-.4-.3-.4-.6v-1c0-.4.3-.7.7-.7h2.8c.4 0 .7.3.7.7v.9h2v-1.3c0-1.2-1-2.2-2.2-2.2h-3.8c-1.2 0-2.2 1-2.2 2.2v1.7c0 .8.5 1.5 1.3 1.7l4.5 1.2c.3.1.4.3.4.6v1c0 .4-.3.7-.7.7H357c-.4 0-.7-.3-.7-.7v-.8h-1.9v1.3h-.1zm-9-3.6v-3.3h2.5c.5 0 .9.4.9.9v1.6c0 .5-.4.9-.9.9h-2.5v-.1zm-2.1 5.6h2v-3.9h1.4l2.7 3.9h2.3l-2.8-3.9h.1c1-.2 1.6-1 1.6-2.1V40c0-1.2-1-2.2-2.2-2.2H343v10.7h.2zm-10.6 0h7.4v-1.9h-5.3v-2.7h4v-1.7h-4v-2.6h5.2v-1.8h-7.3v10.7zM320 37.8l4.1 10.6h1.7l4.1-10.6h-2.2l-2.7 7.5-2.7-7.5H320zm-4.9 10.7h2.1V37.8h-2.1v10.7zm-12.7 0h2v-7.6l4.7 4.7v2.9h2V37.8h-2v5.1l-5.1-5.1h-1.6v10.7zm-12.2-2c0 1.2 1 2.2 2.2 2.2h4.1c1.2 0 2.2-1 2.2-2.2v-8.7h-2v8.3c0 .4-.3.7-.7.7h-3c-.4 0-.7-.3-.7-.7v-8.3h-2v8.7h-.1zm-7.2 2v-1.9h-5.3v-8.7h-2v10.6h7.3zm-16.5-4.4l1.4-3.7 1.4 3.7h-2.8zm-3.7 4.4h2.1l1-2.7h3.9l1 2.7h2.1l-4.1-10.6h-1.9l-4.1 10.6zm-10.8-2c0 1.2 1 2.2 2.2 2.2h4c1.2 0 2.2-1 2.2-2.2v-1.4h-2v1c0 .4-.3.7-.7.7h-3c-.4 0-.7-.3-.7-.7v-5.9c0-.4.3-.7.7-.7h3c.4 0 .7.3.7.7v1h2v-1.4c0-1.2-1-2.2-2.2-2.2h-4c-1.2 0-2.2 1-2.2 2.2v6.7zm-5.8 2h2.1V37.8h-2.1v10.7zm-12.7 0h2v-7.6l4.7 4.7v2.9h2V37.8h-2v5.1l-5.1-5.1h-1.6v10.7zm-12.3 0h2V44h4.4v4.5h2V37.8h-2v4.3h-4.4v-4.3h-2v10.7zm-11.9-2c0 1.2 1 2.2 2.2 2.2h4c1.2 0 2.2-1 2.2-2.2v-1.4h-2v1c0 .4-.3.7-.7.7h-3c-.4 0-.7-.3-.7-.7v-5.9c0-.4.3-.7.7-.7h3c.4 0 .7.3.7.7v1h2v-1.4c0-1.2-1-2.2-2.2-2.2h-4c-1.2 0-2.2 1-2.2 2.2v6.7zm-10.5 2h7.4v-1.9h-5.4v-2.7h4v-1.7h-4v-2.6h5.2v-1.8h-7.3v10.7h.1zM187 39.6h3.5v8.9h2v-8.9h3.5v-1.8h-9v1.8zm-15.3 0h3.5v8.9h2v-8.9h3.5v-1.8h-9.1v1.8h.1zm-10.5 6.9c0 1.2 1 2.2 2.2 2.2h3.8c1.2 0 2.2-1 2.2-2.2v-1.7c0-.8-.5-1.5-1.3-1.8l-4.5-1.2c-.3-.1-.4-.3-.4-.6v-1c0-.4.3-.7.7-.7h2.8c.4 0 .7.3.7.7v.9h2v-1.3c0-1.2-1-2.2-2.2-2.2h-3.8c-1.2 0-2.2 1-2.2 2.2v1.7c0 .8.5 1.5 1.3 1.7l4.5 1.2c.3.1.4.3.4.6v1c0 .4-.3.7-.7.7h-2.8c-.4 0-.7-.3-.7-.7v-.8h-1.9v1.3h-.1zm-8.9-2.4l1.4-3.7 1.4 3.7h-2.8zm-3.8 4.4h2.1l1-2.7h3.9l1 2.7h2.1l-4.1-10.6h-1.9l-4.1 10.6zm-9.5 0h7.4v-1.9H141v-2.7h4v-1.7h-4v-2.6h5.2v-1.8H139v10.7zm-15.3 0h7.4v-1.9h-5.4v-2.7h4v-1.7h-4v-2.6h5.2v-1.8h-7.3v10.7h.1zm-2.7 0v-1.9h-5.3v-8.7h-2v10.6h7.3zm-17.6-1.9v-6.8h3.9c.4 0 .7.3.7.7V46c0 .4-.3.7-.7.7h-3.9v-.1zm4.5 1.9c1.2 0 2.2-1 2.2-2.2V40c0-1.2-1-2.2-2.2-2.2h-6.6v10.6h6.6v.1zM91 46.6v-6.8h3.9c.4 0 .7.3.7.7V46c0 .4-.3.7-.7.7H91v-.1zm4.5 1.9c1.2 0 2.2-1 2.2-2.2V40c0-1.2-1-2.2-2.2-2.2H89v10.6h6.5v.1zm-12.5 0h2V37.8h-2v10.7zm-14.5 0h1.9v-5.7l2.9 5.7h.9l2.9-5.7v5.7H79V37.8h-1.5l-3.8 7.4-3.7-7.4h-1.5v10.7zm285.7-21.8h2.1V16h-2.1v10.7zm-11.8-2c0 1.2 1 2.2 2.2 2.2h3.8c1.2 0 2.2-1 2.2-2.2V23c0-.8-.5-1.5-1.3-1.8l-4.5-1.2c-.3-.1-.4-.3-.4-.6v-1c0-.4.3-.7.7-.7h2.8c.4 0 .7.3.7.7v.9h2V18c0-1.2-1-2.2-2.2-2.2h-3.8c-1.2 0-2.2 1-2.2 2.2v1.7c0 .8.5 1.5 1.3 1.7l4.5 1.2c.3.1.4.3.4.6v1c0 .4-.3.7-.7.7h-2.8c-.4 0-.7-.3-.7-.7v-.9h-1.9v1.4h-.1zm-10.3 2h7.4v-1.9h-5.4v-2.7h4v-1.7h-4v-2.6h5.2V16H332l.1 10.7zm-11.8-8.9h3.5v8.9h2v-8.9h3.5V16h-9.1v1.8h.1zm-4.9 8.9h2.1V16h-2.1v10.7zm-11.8-2c0 1.2 1 2.2 2.2 2.2h3.8c1.2 0 2.2-1 2.2-2.2V23c0-.8-.5-1.5-1.3-1.8L306 20c-.3-.1-.4-.3-.4-.6v-1c0-.4.3-.7.7-.7h2.8c.4 0 .7.3.7.7v.9h2V18c0-1.2-1-2.2-2.2-2.2h-3.8c-1.2 0-2.2 1-2.2 2.2v1.7c0 .8.5 1.5 1.3 1.7l4.5 1.2c.3.1.4.3.4.6v1c0 .4-.3.7-.7.7h-2.8c-.4 0-.7-.3-.7-.7v-.9h-1.9v1.4h-.1zm-9.1-3.6v-3.4h2.5c.5 0 .9.4.9.9v1.6c0 .5-.4.9-.9.9h-2.5zm-2 5.6h2v-3.9h1.4l2.7 3.9h2.3l-2.8-3.9h.1c1-.2 1.6-1 1.6-2.1v-2.5c0-1.2-1-2.2-2.2-2.2h-5.4v10.7h.3zm-10.7 0h7.4v-1.9h-5.4v-2.7h4v-1.7h-4v-2.6h5.2V16h-7.3l.1 10.7zM269.3 16l4.1 10.6h1.7l4.1-10.6H277l-2.7 7.5-2.7-7.5h-2.3zm-4.9 10.7h2.1V16h-2.1v10.7zm-12.7 0h2v-7.6l4.7 4.7v2.9h2V16h-2v5.1l-5.1-5.1h-1.6v10.7zm-12.2-2c0 1.2 1 2.2 2.2 2.2h4.1c1.2 0 2.2-1 2.2-2.2V16h-2v8.3c0 .4-.3.7-.7.7h-3c-.4 0-.7-.3-.7-.7V16h-2v8.7h-.1zm-16.3 2h2v-4.5l4.4 4.5h2.6l-5.2-5.4 5.1-5.3h-2.4l-4.5 4.6V16h-2v10.7zm-6 0h2.1V16h-2.1v10.7zm-12.7 0h2v-7.6l4.7 4.7v2.9h2V16h-2v5.1l-5.1-5.1h-1.6v10.7zm-11.7 0h2v-4.5l4.4 4.5h2.6l-5.2-5.4 5.1-5.3h-2.4l-4.5 4.6V16h-2v10.7zm-10.7 0h7.4v-1.9h-5.4v-2.7h4v-1.7h-4v-2.6h5.2V16H182v10.7h.1zm-11.8-8.9h3.5v8.9h2v-8.9h3.5V16h-9.1v1.8h.1zm-15.7 6.9c0 1.2 1 2.2 2.2 2.2h4.1c1.2 0 2.2-1 2.2-2.2V16h-2v8.3c0 .4-.3.7-.7.7h-3c-.4 0-.7-.3-.7-.7V16h-2v8.7h-.1zm-11.9 0c0 1.2 1 2.2 2.2 2.2h4c1.2 0 2.2-1 2.2-2.2v-3.3h-3.9V23h2v1.3c0 .4-.3.7-.7.7h-3c-.4 0-.7-.3-.7-.7v-5.9c0-.4.3-.7.7-.7h3c.4 0 .7.3.7.7v1h2V18c0-1.2-1-2.2-2.2-2.2h-4c-1.2 0-2.2 1-2.2 2.2v6.7h-.1zm-6.1-7c.4 0 .7.3.7.7v5.9c0 .4-.3.7-.7.7H133c-.4 0-.7-.3-.7-.7v-5.9c0-.4.3-.7.7-.7h3.6zm-4.2-1.9c-1.2 0-2.2 1-2.2 2.2v6.7c0 1.2 1 2.2 2.2 2.2h4.7c1.2 0 2.2-1 2.2-2.2V18c0-1.2-1-2.2-2.2-2.2h-4.7zm-12.3 9V18h3.9c.4 0 .7.3.7.7v5.5c0 .4-.3.7-.7.7h-3.9v-.1zm4.5 1.9c1.2 0 2.2-1 2.2-2.2v-6.3c0-1.2-1-2.2-2.2-2.2H118v10.6l6.6.1zm-20.3-4.5l1.4-3.7 1.4 3.7h-2.8zm-3.7 4.5h2.1l1-2.8h3.9l1 2.8h2.1l-4.1-10.6h-1.9l-4.1 10.6zm-9.5-8.9h3.5v8.9h2v-8.9h3.5V16H91l.1 1.8zm-7.9 3.3v-3.4h2.5c.5 0 .9.4.9.9v1.6c0 .5-.4.9-.9.9h-2.5zm-2 5.6h2v-3.9h1.4l2.7 3.9h2.3l-2.8-3.9h.2c1-.2 1.6-1 1.6-2.1v-2.5c0-1.2-1-2.2-2.2-2.2h-5.3l.1 10.7zm-6.4-9c.4 0 .7.3.7.7v5.9c0 .4-.3.7-.7.7h-3.6c-.4 0-.7-.3-.7-.7v-5.9c0-.4.3-.7.7-.7h3.6zm-4.1-1.9c-1.2 0-2.2 1-2.2 2.2v6.7c0 1.2 1 2.2 2.2 2.2h4.7c1.2 0 2.2-1 2.2-2.2V18c0-1.2-1-2.2-2.2-2.2h-4.7zm76.2-3.5h-2v1.8h4.1v-1.8zm71.3 0h-1V14h2.1v-1.7zm47.2 0h-1V14h2v-1.7zm-23.8 0h-1V14h2.1v-1.7zm4 0h-1.1V14h2.1v-1.7zm70.8 0h-1V14h2v-1.7zm38.9 0h-1.1V14h2.1v-1.7z"/></svg>