<svg xmlns="http://www.w3.org/2000/svg" role="img" viewBox="-8.58 -8.58 445.90 111.65"><title>MINRES Technologies GmbH (member) logo</title><defs><clipPath id="a"><path d="M0 792h612V0H0v792z"/></clipPath></defs><g clip-path="url(#a)" transform="matrix(1.25 0 0 -1.25 -159.627 569)"><path fill="#aeb6bc" fill-opacity="1" fill-rule="nonzero" stroke="none" d="M145.645 441.94c-2.297-.438-3.543-2.073-2.708-3.725.833-1.65 3.504-2.643 5.889-2.144 2.386.496 3.511 2.247 2.59 3.837-.921 1.592-3.471 2.469-5.771 2.032m18.222-38.224c-2.52-.695-3.862-3.233-2.939-5.662.921-2.428 3.749-3.782 6.254-3.03 2.507.752 3.755 3.28 2.849 5.651-.909 2.373-3.643 3.736-6.164 3.041m-7.791-15.092c-2.653-.799-4.097-3.465-3.198-5.932.9-2.467 3.776-3.777 6.402-2.953 2.625.826 4.025 3.453 3.156 5.892-.87 2.44-3.705 3.791-6.36 2.993m-25.098 57.624c-2.247-.506-3.595-2.009-2.96-3.428.631-1.417 3.1-2.169 5.458-1.603 2.358.564 3.623 2.184 2.878 3.543-.745 1.362-3.126 1.993-5.376 1.488m29.536 5.633c1.911.108 2.575.953 1.58 1.794-.997.843-3.211 1.41-5.037 1.363-1.822-.051-2.638-.751-1.725-1.654.908-.902 3.273-1.615 5.182-1.503m-5.068-6.54c2.159.297 3.055 1.589 2.096 2.807-.96 1.219-3.347 1.952-5.418 1.718-2.068-.237-3.109-1.402-2.236-2.684.87-1.279 3.402-2.14 5.558-1.841m46.91-31.865c-1.455-.303-2.077-2.246-1.317-4.325.756-2.078 2.553-3.416 3.936-3.012 1.383.401 1.892 2.309 1.205 4.288-.688 1.98-2.37 3.353-3.824 3.049m-23.902-15.098c2.284.685 3.364 3.086 2.488 5.379-.878 2.29-3.406 3.664-5.719 3.053-2.311-.61-3.51-3.03-2.603-5.397.905-2.367 3.552-3.719 5.834-3.035m-16.828 52.338c-1.915-.116-2.762-1.125-1.792-2.338.967-1.211 3.445-2.116 5.432-1.939 1.987.174 2.681 1.319 1.644 2.469-1.039 1.154-3.363 1.924-5.284 1.808m52.691-47.965c-.45 1.883-1.642 3.189-2.719 2.873-1.076-.312-1.567-2.209-1.035-4.19.53-1.982 1.817-3.21 2.812-2.795.996.414 1.391 2.231.942 4.112m-16.008-1.2c-1.692-.512-2.562-2.753-1.863-4.956.696-2.206 2.642-3.456 4.264-2.848 1.623.611 2.367 2.773 1.74 4.881-.629 2.107-2.448 3.437-4.141 2.923m-18.898-5.821c-2.277-.694-3.514-3.216-2.69-5.597.821-2.379 3.352-3.656 5.579-2.892 2.229.763 3.354 3.22 2.583 5.529-.772 2.31-3.191 3.652-5.472 2.96m12.82-5.048c1.94.695 2.877 3.014 2.174 5.23-.706 2.214-2.838 3.55-4.837 2.942-1.998-.609-3.061-3.001-2.294-5.303.764-2.3 3.02-3.564 4.957-2.869m.76-2.537c-1.93-.703-3.039-3.148-2.4-5.389.637-2.244 2.721-3.369 4.578-2.587 1.859.785 2.845 3.117 2.284 5.281-.567 2.162-2.53 3.398-4.462 2.695m-4.322 13.255c2.005.601 2.893 2.849 2.064 5.043-.829 2.197-3.101 3.576-5.152 3.062-2.046-.509-3.065-2.785-2.191-5.07.873-2.284 3.275-3.635 5.279-3.035m-4.284 31.219c1.831.21 2.39 1.756 1.338 3.396-1.055 1.641-3.323 2.804-5.151 2.663-1.823-.141-2.526-1.591-1.476-3.301 1.049-1.709 3.462-2.971 5.289-2.758m.159-20.585c2.054.502 2.893 2.617 1.963 4.721-.936 2.102-3.31 3.458-5.385 3.04-2.072-.417-3.05-2.514-2.093-4.702.954-2.188 3.465-3.561 5.515-3.059m4.604 34.735c1.394-.097 1.554.713.423 1.709-1.134.997-3.128 1.827-4.515 1.961-1.386.136-1.656-.51-.53-1.547 1.125-1.034 3.23-2.031 4.622-2.123m5.453-35.048c-1.757-.407-2.579-2.525-1.753-4.71.822-2.187 2.936-3.53 4.635-3.028 1.7.503 2.392 2.584 1.627 4.676-.766 2.09-2.753 3.468-4.509 3.062m-5.929 5.486c.929-2.094 3.182-3.472 4.944-3.073 1.764.396 2.405 2.345 1.519 4.349-.89 2.003-3.011 3.37-4.816 3.062-1.8-.308-2.577-2.242-1.647-4.338m-14.443 29.783c1.796.067 2.289 1.077 1.197 2.168-1.095 1.093-3.326 1.89-5.071 1.88-1.743-.014-2.386-.878-1.339-2.026 1.042-1.145 3.422-2.091 5.213-2.022m-.075-37.548c2.316.602 3.351 2.877 2.395 5.073-.956 2.195-3.55 3.534-5.867 3.006-2.316-.527-3.479-2.78-2.519-5.049.959-2.27 3.679-3.633 5.991-3.03m-3.991 30.136c2.045.247 2.769 1.679 1.713 3.126-1.06 1.449-3.461 2.411-5.457 2.232-1.992-.185-2.869-1.496-1.859-3.008 1.006-1.511 3.561-2.596 5.603-2.35m6.733-4.461c-1.049 1.717-3.489 2.855-5.539 2.601-2.047-.255-2.955-1.858-1.931-3.647 1.02-1.787 3.611-3.021 5.683-2.695 2.077.324 2.834 2.022 1.787 3.741m10.476 5.715c1.598.036 1.941 1.199.85 2.517-1.097 1.323-3.217 2.339-4.811 2.357-1.591.017-2.067-1.016-.976-2.391 1.089-1.375 3.341-2.522 4.937-2.483m-13.33 2.048c1.061-1.44 3.478-2.561 5.303-2.424 1.824.133 2.347 1.421 1.262 2.8-1.091 1.382-3.362 2.378-5.16 2.305-1.797-.074-2.467-1.237-1.405-2.681m-14.025-4.734c2.237.369 3.164 1.956 2.165 3.473-1.003 1.519-3.502 2.444-5.668 2.14-2.166-.305-3.237-1.775-2.306-3.359.93-1.582 3.574-2.623 5.809-2.254m4.733-8.563c2.292.441 3.252 2.302 2.237 4.097-1.019 1.795-3.595 2.896-5.84 2.521-2.241-.376-3.342-2.14-2.372-4.002.968-1.863 3.685-3.059 5.975-2.616"/><path fill="#39bed8" fill-opacity="1" fill-rule="evenodd" stroke="none" d="M174.366 425.067c-1.005 2.018-.066 3.887 2.005 4.218 2.077.33 4.505-.942 5.514-2.881 1.005-1.94.209-3.871-1.866-4.277-2.075-.41-4.649.923-5.653 2.94"/><path fill="#707980" fill-opacity="1" fill-rule="nonzero" stroke="none" d="M467.523 440.42h-.41v1.014c.097.02.234.039.469.039.586 0 .779-.215.779-.527 0-.39-.389-.526-.838-.526m.838-.234v.039c.351.117.644.37.644.78 0 .292-.136.546-.332.683-.214.155-.486.253-1.033.253-.449 0-.799-.039-1.131-.098v-3.256h.604v1.365h.39c.469 0 .684-.156.762-.507.078-.448.154-.741.252-.858h.625c-.078.117-.137.312-.234.819-.098.41-.254.663-.547.78m-.662-2.457c-1.444 0-2.516 1.131-2.516 2.574 0 1.404 1.072 2.555 2.477 2.555h.019c1.424 0 2.457-1.151 2.457-2.575 0-1.423-1.033-2.573-2.437-2.554m0 5.674h-.02c-1.775 0-3.177-1.364-3.177-3.1 0-1.775 1.402-3.14 3.177-3.14 1.776 0 3.16 1.365 3.16 3.14 0 1.736-1.384 3.1-3.14 3.1m-7.393-49.609l-4.265 1v1.026c.322.418 1.025 1.066 2.429 1.066 1.5 0 2.688-.486 3.633-.89v1.863c-.932.5-2.094.783-3.633.783-2.418 0-4.185-1.215-4.185-2.767v-1.352c0-1.174 1.228-1.485 1.929-1.661l4.268-1v-1.066c-.324-.418-1.025-1.066-2.43-1.066-1.5 0-2.687.486-3.633.89v-1.863c.932-.5 2.094-.783 3.633-.783 2.416 0 4.186 1.215 4.186 2.767v1.407c0 1.16-1.242 1.484-1.932 1.646m-15.525 3.862v-9.575h7.035v1.756h-5.268v2.594h4.389c.486 0 .879.39.879.877 0 .486-.393.879-.879.879h-4.389v2.592h5.268v1.756h-6.145c-.486 0-.89-.393-.89-.879m-5.131-8.805c0-.485.393-.877.877-.877.486 0 .892.392.892.877v9.684h-1.769v-9.684zm-7.531 4.457c0-.487.39-.877.877-.877h1.662v-2.35c-.528-.176-1.311-.351-2.256-.351-1.404 0-2.108.648-2.418 1.066v5.024c.31.418 1.014 1.066 2.418 1.066 1.498 0 2.687-.486 3.633-.89l.013 1.863c-.945.5-2.093.783-3.646.783-2.404 0-4.186-1.215-4.186-2.767v-5.134c0-1.552 1.782-2.767 4.186-2.767 1.525 0 3.092.338 4.01 1v5.213h-3.416c-.487 0-.877-.393-.877-.879m-8.828-2.512c-.311-.418-1.014-1.066-2.432-1.066-1.404 0-2.106.648-2.416 1.066v5.024c.31.418 1.012 1.066 2.416 1.066 1.418 0 2.121-.648 2.432-1.066v-5.024zm-2.432 7.846c-2.402 0-4.186-1.215-4.186-2.767v-5.134c0-1.552 1.784-2.767 4.186-2.767 2.418 0 4.187 1.215 4.187 2.767v5.134c0 1.552-1.769 2.767-4.187 2.767m-12.299-.877c0 .486-.391.877-.877.877s-.89-.391-.89-.877v-9.684h7.521v1.756h-5.754v7.928zm-6.693-6.969c-.311-.418-1.014-1.066-2.432-1.066-1.404 0-2.105.648-2.416 1.066v5.024c.311.418 1.012 1.066 2.416 1.066 1.418 0 2.121-.648 2.432-1.066v-5.024zm-2.432 7.846c-2.402 0-4.185-1.215-4.185-2.767v-5.134c0-1.552 1.783-2.767 4.185-2.767 2.418 0 4.188 1.215 4.188 2.767v5.134c0 1.552-1.77 2.767-4.188 2.767m-9.111-7.211l-5.266 6.86c-.527.689-1.58.284-1.58-.526v-8.914c0-.485.391-.877.877-.877s.891.392.891.877v6.32l5.254-6.859c.175-.231.445-.338.701-.338.486 0 .879.392.879.877v9.684h-1.756v-7.104zm-11.772 2.756h-5.172v3.578c0 .486-.392.877-.878.877-.487 0-.891-.391-.891-.877v-9.684h1.769v4.35h5.172v-3.58c0-.485.391-.877.877-.877.487 0 .891.392.891.877v9.684h-1.768v-4.348zm-17.592 1.688v-5.134c0-1.552 1.782-2.767 4.186-2.767 1.553 0 2.701.283 3.647.783v1.863c-.946-.404-2.149-.89-3.647-.89-1.404 0-2.107.648-2.418 1.066v5.024c.311.418 1.014 1.066 2.418 1.066 1.498 0 2.701-.486 3.647-.89v1.863c-.946.5-2.094.783-3.647.783-2.404 0-4.186-1.215-4.186-2.767m-9.869 1.781v-9.575h7.036v1.756h-5.266v2.594h4.389c.486 0 .877.39.877.877 0 .486-.391.879-.877.879h-4.389v2.592h5.266v1.756h-6.145c-.486 0-.891-.393-.891-.879m-11.111-.877h3.471v-7.928c0-.485.392-.877.877-.877.5 0 .879.392.879.877v7.928h3.457v1.756h-8.684v-1.756zm121.424 27.448c-.938.938-2.043 1.675-3.317 2.211-1.24.536-2.578.804-4.019.804h-18.492c-1.407.1-2.547.636-3.418 1.608-.436.469-.787.988-1.055 1.558-.234.602-.351 1.239-.351 1.909 0 .703.117 1.34.351 1.909.268.604.619 1.14 1.055 1.608.906.972 2.045 1.509 3.418 1.609h26.687v5.426h-26.738c-1.473 0-2.848-.284-4.121-.854-1.238-.536-2.344-1.273-3.317-2.21-.97-.972-1.74-2.094-2.31-3.367-.537-1.273-.805-2.647-.805-4.121 0-1.44.268-2.797.805-4.07.57-1.273 1.34-2.395 2.31-3.367.973-.971 2.079-1.725 3.317-2.261 1.273-.536 2.648-.804 4.121-.804h18.543c1.373 0 2.529-.486 3.467-1.458.97-.937 1.457-2.093 1.457-3.467 0-.67-.133-1.306-.403-1.909-.234-.569-.586-1.089-1.054-1.558-.436-.435-.955-.787-1.559-1.055-.601-.235-1.238-.353-1.908-.353h-26.94v-5.426h26.94c1.441 0 2.779.268 4.019.804 1.274.536 2.379 1.273 3.317 2.212.937.938 1.676 2.025 2.211 3.266.537 1.273.804 2.612.804 4.019 0 1.441-.267 2.781-.804 4.02-.535 1.274-1.274 2.379-2.211 3.317m-41.17-12.212H395.16c-1.44 0-2.664.504-3.668 1.508-.469.47-.838 1.006-1.106 1.609-.267.637-.402 1.323-.402 2.06v5.778h30.25v5.428h-30.25v3.869c0 .737.135 1.406.402 2.01.268.637.637 1.189 1.106 1.658 1.004 1.005 2.228 1.508 3.668 1.508h25.074v5.426h-25.426c-1.473 0-2.848-.267-4.121-.803-1.271-.536-2.379-1.29-3.316-2.261-.971-.972-1.741-2.094-2.311-3.367-.537-1.273-.805-2.647-.805-4.121v-15.175c0-1.474.268-2.847.805-4.121.57-1.273 1.34-2.395 2.311-3.367.937-.971 2.045-1.725 3.316-2.261 1.273-.536 2.648-.804 4.121-.804h25.426v5.426zm-50.168 15.579c-.604-.268-1.258-.403-1.961-.403h-17.412v-5.427h17.715c1.373-.066 2.511-.602 3.418-1.608.937-.937 1.406-2.11 1.406-3.517v-10.05h5.777v10.1c0 1.542-.318 2.982-.953 4.322-.637 1.34-1.492 2.495-2.562 3.467 1.07.971 1.925 2.128 2.562 3.467.635 1.34.953 2.797.953 4.372 0 1.474-.283 2.831-.853 4.07-.535 1.274-1.289 2.396-2.262 3.367-.971.971-2.094 1.725-3.365 2.261-1.24.57-2.598.854-4.07.854h-18.342c-1.475 0-2.848-.284-4.121-.854-1.274-.536-2.379-1.29-3.317-2.261-.97-.971-1.742-2.093-2.31-3.367-.537-1.239-.805-2.596-.805-4.07v-25.728h5.729v25.728c.066 1.441.585 2.646 1.556 3.618.471.469 1.006.838 1.61 1.106.636.268 1.306.402 2.009.402h17.637c.703 0 1.357-.134 1.961-.402.637-.268 1.189-.637 1.658-1.106 1.004-1.005 1.508-2.211 1.508-3.618 0-1.474-.504-2.68-1.508-3.618-.469-.469-1.021-.838-1.658-1.105m-41.477-12.512c0-.871-.252-1.592-.754-2.162-.201-.234-.486-.435-.853-.602-.402-.168-.82-.252-1.258-.252-.301 0-.586.067-.853.201-.235.135-.452.302-.653.502-.168.202-.318.402-.453.604-.135.235-.252.419-.351.552l-.553 1.005c-.168.368-.385.788-.652 1.257-.069.066-.135.184-.202.352-.068.201-.185.435-.351.703-.471.905-1.106 2.161-1.91 3.769-.772 1.641-1.592 3.333-2.463 5.075-.871 1.775-1.707 3.467-2.512 5.076-.805 1.608-1.424 2.863-1.859 3.768-.369.737-.721 1.407-1.055 2.01-.336.604-.672 1.156-1.006 1.658-.537.805-1.055 1.457-1.557 1.96-.804.871-1.726 1.474-2.765 1.809-.971.335-2.077.502-3.316.502-1.239 0-2.378-.234-3.417-.703-1.005-.435-1.876-1.038-2.612-1.809-1.508-1.607-2.262-3.601-2.262-5.979v-27.789h5.778v27.789c0 .871.252 1.591.754 2.16.235.235.535.436.904.603.403.168.805.252 1.207.252.569 0 1.038-.219 1.407-.654.368-.402.636-.736.803-1.005.168-.268.335-.569.503-.904.202-.335.385-.687.553-1.056.202-.402.469-.955.803-1.658.336-.703.721-1.524 1.157-2.462.468-.904.955-1.893 1.457-2.965.537-1.039 1.072-2.094 1.609-3.165.535-1.073 1.039-2.127 1.506-3.167.504-1.038.972-1.993 1.408-2.863.436-.871.805-1.625 1.106-2.262.333-.637.585-1.105.753-1.406.133-.269.284-.587.452-.955.168-.335.369-.704.603-1.106.334-.57.721-1.156 1.156-1.76.469-.601 1.055-1.171 1.758-1.707.637-.503 1.424-.905 2.363-1.207.469-.168.954-.3 1.457-.401.502-.067 1.04-.101 1.608-.101 1.172 0 2.262.217 3.266.653 1.039.47 1.925 1.089 2.664 1.859.769.772 1.355 1.658 1.757 2.664.436 1.038.655 2.144.655 3.317v27.787h-5.78v-27.787zm-44.641-8.493h5.729v36.28h-5.729v-36.28zm-8.311 33.216c-.972.971-2.093 1.725-3.367 2.261-1.273.536-2.646.803-4.121.803h-7.125c-1.507 0-2.931-.301-4.271-.904-1.307-.569-2.445-1.373-3.417-2.412-.971 1.039-2.111 1.843-3.417 2.412-1.307.603-2.714.904-4.221.904h-7.176c-1.474 0-2.848-.267-4.12-.803-1.273-.536-2.379-1.29-3.317-2.261-.971-.972-1.742-2.094-2.312-3.367-.535-1.273-.803-2.647-.803-4.121v-25.728h5.728v25.678c0 .737.134 1.406.402 2.01.268.637.636 1.189 1.106 1.658 1.004 1.005 2.227 1.508 3.668 1.508h6.422c1.441 0 2.663-.503 3.668-1.508 1.005-1.005 1.508-2.228 1.508-3.668v-25.678h5.728v25.678c0 .737.134 1.406.403 2.01.267.637.636 1.189 1.105 1.658 1.004 1.005 2.228 1.508 3.669 1.508h6.421c1.44 0 2.663-.503 3.668-1.508.469-.469.838-1.021 1.106-1.658.267-.604.402-1.273.402-2.01v-25.678h5.728v25.728c0 1.474-.268 2.848-.804 4.121-.536 1.273-1.29 2.395-2.261 3.367"/></g></svg>