<svg xmlns="http://www.w3.org/2000/svg" role="img" viewBox="41.42 22.42 1694.16 550.16"><title>MIPS Tech LLC. (member) logo</title><path fill="#FFF" d="M1127.000000,601.000000 C751.333313,601.000000 376.166656,601.000000 1.000000,601.000000 C1.000000,401.000000 1.000000,201.000000 1.000000,1.000000 C601.000000,1.000000 1201.000000,1.000000 1801.000000,1.000000 C1801.000000,201.000000 1801.000000,401.000000 1801.000000,601.000000 C1576.500000,601.000000 1352.000000,601.000000 1127.000000,601.000000 M450.998413,321.500000 C450.998413,391.921753 450.998413,462.343506 450.998413,532.706177 C482.978027,532.706177 514.379089,532.706177 546.237549,532.706177 C546.237549,470.402161 546.237549,408.392639 546.237549,345.712677 C547.546204,347.157410 548.338989,347.981232 549.075256,348.852875 C578.195312,383.326599 607.277649,417.832336 636.521973,452.200226 C637.980835,453.914734 640.818604,455.317993 643.049683,455.370819 C655.707886,455.670593 668.380554,455.671692 681.038452,455.365723 C683.253479,455.312195 686.096863,453.868286 687.511658,452.136475 C716.483765,416.670166 745.289185,381.067657 774.133667,345.497040 C775.429382,343.899170 776.780396,342.346069 778.105652,340.772125 C778.518555,340.914978 778.931458,341.057800 779.344360,341.200653 C779.344360,405.063141 779.344360,468.925629 779.344360,532.835938 C811.429626,532.835938 842.725403,532.835938 873.991028,532.835938 C873.991028,411.291077 873.991028,289.912903 873.991028,168.160477 C872.007507,168.160477 870.544373,168.160492 869.081299,168.160477 C843.917419,168.160172 818.753174,168.230392 793.590210,168.076019 C790.200806,168.055206 788.195190,169.156174 786.218933,171.832352 C752.004700,218.166092 717.693909,264.428497 683.398682,310.702423 C676.990112,319.349365 670.557678,327.978607 663.942810,336.876190 C662.519592,335.102448 661.462830,333.850189 660.475403,332.545410 C619.986816,279.044312 579.483093,225.554626 539.081726,171.987717 C536.959412,169.173798 534.804443,168.053268 531.252930,168.077927 C507.756714,168.240997 484.258759,168.161209 460.761383,168.160538 C457.640717,168.160446 454.520050,168.160522 450.998413,168.160522 C450.998413,219.260117 450.998413,269.880066 450.998413,321.500000 M1205.500000,168.158798 C1155.279785,168.158798 1105.059570,168.158798 1054.698242,168.158798 C1054.698242,290.108521 1054.698242,411.339142 1054.698242,532.696594 C1089.123901,532.696594 1123.329102,532.696594 1157.948364,532.696594 C1157.948364,500.991821 1157.948364,469.591187 1157.948364,437.839020 C1159.989990,437.839020 1161.620850,437.839020 1163.251587,437.839020 C1183.244019,437.838989 1203.238647,438.029297 1223.228149,437.787292 C1244.758301,437.526672 1266.079712,435.260895 1286.755737,428.890961 C1317.643555,419.374969 1344.135498,403.420502 1362.437866,375.924866 C1379.177246,350.777100 1383.923218,322.684204 1382.335938,293.100128 C1381.222534,272.350250 1376.091309,252.739059 1365.419189,234.791733 C1347.330933,204.372543 1319.719849,186.838684 1286.553589,176.932907 C1260.406982,169.123657 1233.540405,167.837433 1205.500000,168.158798 M1548.581543,395.942719 C1562.664062,399.302826 1576.692627,402.879578 1589.325195,410.287628 C1605.786133,419.940552 1606.346680,440.706848 1589.905151,450.433105 C1583.507690,454.217621 1575.848389,456.694641 1568.464478,457.844208 C1535.542603,462.969482 1503.519897,458.228485 1472.218628,447.481232 C1454.770508,441.490417 1438.099365,433.835388 1422.208496,423.846100 C1410.819824,449.610504 1399.574463,475.050415 1387.889526,501.485077 C1398.638550,506.794586 1408.771118,512.537903 1419.454346,516.946472 C1461.939941,534.478638 1506.370117,541.408020 1552.183472,540.093445 C1583.585327,539.192505 1614.124634,534.381653 1642.194214,519.216370 C1682.674805,497.345734 1704.971802,464.323181 1703.981934,417.297913 C1703.450806,392.070740 1694.283569,370.646301 1675.326416,353.686005 C1661.322510,341.157166 1644.960815,332.400574 1627.202026,327.158752 C1602.688354,319.923065 1577.723389,314.203674 1552.910278,308.000275 C1538.572510,304.415741 1524.126831,301.433685 1510.797363,294.512024 C1490.635010,284.042297 1494.509277,261.573029 1509.297363,252.031219 C1519.244507,245.613022 1530.289307,242.905319 1541.851685,242.035614 C1575.803955,239.481735 1607.991821,246.402527 1638.757446,260.567413 C1644.734863,263.319427 1650.579102,266.360504 1656.762329,269.404938 C1667.230347,243.941574 1677.571289,218.787140 1688.071289,193.245941 C1683.611572,190.815109 1679.354492,188.238480 1674.887695,186.099747 C1631.004517,165.088135 1584.423950,159.064713 1536.394287,161.634109 C1508.573120,163.122437 1481.693359,168.611526 1456.802734,181.852097 C1418.687866,202.127136 1396.525269,232.886475 1395.123413,276.819458 C1393.935425,314.055450 1408.881226,342.895721 1441.325195,362.105255 C1454.557739,369.940063 1468.552612,376.094696 1483.393799,379.968018 C1504.771606,385.547333 1526.303711,390.534607 1548.581543,395.942719 M1015.999573,382.500000 C1015.999573,311.116638 1015.999573,239.733276 1015.999573,168.504303 C981.191711,168.504303 947.127441,168.504303 913.020752,168.504303 C913.020752,290.081299 913.020752,411.315460 913.020752,532.693787 C947.406433,532.693787 981.604004,532.693787 1015.999573,532.693787 C1015.999573,482.757935 1015.999573,433.128967 1015.999573,382.500000 M329.663727,156.163528 C322.753235,163.066803 315.842773,169.970078 310.087006,175.719833 C350.643341,216.276459 390.784668,256.418060 430.275940,295.909607 C430.275940,216.985718 430.275940,136.783676 430.275940,55.546196 C396.476898,89.346939 363.320312,122.505226 329.663727,156.163528 M106.806900,131.346100 C104.633751,132.890167 102.460602,134.434219 100.921455,135.527802 C184.822250,219.429611 267.486237,302.094604 349.909790,384.519135 C354.656311,379.748962 359.793396,374.586273 364.508606,369.847534 C282.064209,287.406311 199.401123,204.746429 115.978828,121.327370 C113.336617,124.226944 110.323929,127.533089 106.806900,131.346100 M200.446548,128.053452 C268.164948,195.779800 335.883331,263.506165 403.102692,330.733429 C408.824860,325.305664 414.179321,320.226715 419.119385,315.540863 C336.403564,232.824829 253.725266,150.146317 171.833389,68.254234 C166.897278,73.183342 161.654770,78.418388 156.208557,83.856880 C170.496536,98.131210 185.221634,112.842232 200.446548,128.053452 M319.554077,377.945923 C243.047775,301.436859 166.541489,224.927795 90.446251,148.829788 C84.729317,154.467438 79.543701,159.581116 74.765236,164.293304 C157.299591,246.828766 239.971039,329.501312 322.219543,411.750916 C327.143982,406.728577 332.324707,401.444916 337.696564,395.966339 C332.101837,390.410339 326.077942,384.428131 319.554077,377.945923 M338.952148,288.547852 C274.182526,223.774338 209.412888,159.000839 145.068726,94.652832 C139.614410,99.967682 134.311005,105.135475 129.341583,109.977829 C211.812881,192.448456 294.439850,275.074768 376.611145,357.245392 C381.511261,352.312592 386.704926,347.084259 392.100311,341.652863 C374.782745,324.349640 357.117310,306.698883 338.952148,288.547852 M284.558655,401.941376 C265.356323,382.739227 246.153992,363.537079 226.521790,343.905060 C226.521790,399.545380 226.521790,454.153229 226.521790,508.349030 C253.877396,480.991425 281.253601,453.613251 308.771301,426.093536 C301.080811,418.422729 293.069702,410.432098 284.558655,401.941376 M500.199677,120.293091 C484.090424,99.025742 467.981171,77.758392 451.333618,55.780426 C451.333618,86.125916 451.333618,115.431824 451.333618,144.737305 C473.704865,144.737305 495.739075,144.737305 518.712158,144.737305 C512.378723,136.369476 506.509033,128.614304 500.199677,120.293091 z"/><path fill="#111921" d="M450.998413,321.000000 C450.998413,269.880066 450.998413,219.260117 450.998413,168.160522 C454.520050,168.160522 457.640717,168.160446 460.761383,168.160538 C484.258759,168.161209 507.756714,168.240997 531.252930,168.077927 C534.804443,168.053268 536.959412,169.173798 539.081726,171.987717 C579.483093,225.554626 619.986816,279.044312 660.475403,332.545410 C661.462830,333.850189 662.519592,335.102448 663.942810,336.876190 C670.557678,327.978607 676.990112,319.349365 683.398682,310.702423 C717.693909,264.428497 752.004700,218.166092 786.218933,171.832352 C788.195190,169.156174 790.200806,168.055206 793.590210,168.076019 C818.753174,168.230392 843.917419,168.160172 869.081299,168.160477 C870.544373,168.160492 872.007507,168.160477 873.991028,168.160477 C873.991028,289.912903 873.991028,411.291077 873.991028,532.835938 C842.725403,532.835938 811.429626,532.835938 779.344360,532.835938 C779.344360,468.925629 779.344360,405.063141 779.344360,341.200653 C778.931458,341.057800 778.518555,340.914978 778.105652,340.772125 C776.780396,342.346069 775.429382,343.899170 774.133667,345.497040 C745.289185,381.067657 716.483765,416.670166 687.511658,452.136475 C686.096863,453.868286 683.253479,455.312195 681.038452,455.365723 C668.380554,455.671692 655.707886,455.670593 643.049683,455.370819 C640.818604,455.317993 637.980835,453.914734 636.521973,452.200226 C607.277649,417.832336 578.195312,383.326599 549.075256,348.852875 C548.338989,347.981232 547.546204,347.157410 546.237549,345.712677 C546.237549,408.392639 546.237549,470.402161 546.237549,532.706177 C514.379089,532.706177 482.978027,532.706177 450.998413,532.706177 C450.998413,462.343506 450.998413,391.921753 450.998413,321.000000 z"/><path fill="#111A21" d="M1206 168.158798C1233.540405 167.837433 1260.406982 169.123657 1286.553589 176.932907 1319.719849 186.838684 1347.330933 204.372543 1365.419189 234.791733 1376.091309 252.739059 1381.222534 272.35025 1382.335938 293.100128 1383.923218 322.684204 1379.177246 350.7771 1362.437866 375.924866 1344.135498 403.420502 1317.643555 419.374969 1286.755737 428.890961 1266.079712 435.260895 1244.758301 437.526672 1223.228149 437.787292 1203.238647 438.029297 1183.244019 437.838989 1163.251587 437.83902 1161.62085 437.83902 1159.98999 437.83902 1157.948364 437.83902 1157.948364 469.591187 1157.948364 500.991821 1157.948364 532.696594 1123.329102 532.696594 1089.123901 532.696594 1054.698242 532.696594 1054.698242 411.339142 1054.698242 290.108521 1054.698242 168.158798 1105.05957 168.158798 1155.279785 168.158798 1206 168.158798M1157.837402 315.499969C1157.837402 328.787842 1157.837402 342.075684 1157.837402 356.69516 1183.744629 355.795593 1209.22583 355.957947 1234.492798 353.711243 1255.754395 351.820709 1276.228027 338.60022 1278.574951 308.212646 1279.941284 290.522614 1275.562988 274.78067 1261.338989 263.030182 1250.03772 253.694168 1236.39856 250.491898 1222.240723 250.12709 1201.42395 249.590744 1180.585571 249.895462 1159.756348 249.867554 1159.15564 249.86676 1158.554688 250.155502 1157.837402 250.339035 1157.837402 271.861176 1157.837402 293.180573 1157.837402 315.499969zM1548.175781 395.858612C1526.303711 390.534607 1504.771606 385.547333 1483.393799 379.968018 1468.552612 376.094696 1454.557739 369.940063 1441.325195 362.105255 1408.881226 342.895721 1393.935425 314.05545 1395.123413 276.819458 1396.525269 232.886475 1418.687866 202.127136 1456.802734 181.852097 1481.693359 168.611526 1508.57312 163.122437 1536.394287 161.634109 1584.42395 159.064713 1631.004517 165.088135 1674.887695 186.099747 1679.354492 188.23848 1683.611572 190.815109 1688.071289 193.245941 1677.571289 218.78714 1667.230347 243.941574 1656.762329 269.404938 1650.579102 266.360504 1644.734863 263.319427 1638.757446 260.567413 1607.991821 246.402527 1575.803955 239.481735 1541.851685 242.035614 1530.289307 242.905319 1519.244507 245.613022 1509.297363 252.031219 1494.509277 261.573029 1490.63501 284.042297 1510.797363 294.512024 1524.126831 301.433685 1538.57251 304.415741 1552.910278 308.000275 1577.723389 314.203674 1602.688354 319.923065 1627.202026 327.158752 1644.960815 332.400574 1661.32251 341.157166 1675.326416 353.686005 1694.283569 370.646301 1703.450806 392.07074 1703.981934 417.297913 1704.971802 464.323181 1682.674805 497.345734 1642.194214 519.21637 1614.124634 534.381653 1583.585327 539.192505 1552.183472 540.093445 1506.370117 541.40802 1461.939941 534.478638 1419.454346 516.946472 1408.771118 512.537903 1398.63855 506.794586 1387.889526 501.485077 1399.574463 475.050415 1410.819824 449.610504 1422.208496 423.8461 1438.099365 433.835388 1454.770508 441.490417 1472.218628 447.481232 1503.519897 458.228485 1535.542603 462.969482 1568.464478 457.844208 1575.848389 456.694641 1583.50769 454.217621 1589.905151 450.433105 1606.34668 440.706848 1605.786133 419.940552 1589.325195 410.287628 1576.692627 402.879578 1562.664062 399.302826 1548.175781 395.858612z"/><path fill="#101920" d="M1015.999573,383.000000 C1015.999573,433.128967 1015.999573,482.757935 1015.999573,532.693787 C981.604004,532.693787 947.406433,532.693787 913.020752,532.693787 C913.020752,411.315460 913.020752,290.081299 913.020752,168.504303 C947.127441,168.504303 981.191711,168.504303 1015.999573,168.504303 C1015.999573,239.733276 1015.999573,311.116638 1015.999573,383.000000 z"/><path fill="#131C23" d="M329.913696,155.913513 C363.320312,122.505226 396.476898,89.346939 430.275940,55.546196 C430.275940,136.783676 430.275940,216.985718 430.275940,295.909607 C390.784668,256.418060 350.643341,216.276459 310.087006,175.719833 C315.842773,169.970078 322.753235,163.066803 329.913696,155.913513 z"/><path fill="#E71097" d="M107.059067,131.092667 C110.323929,127.533089 113.336617,124.226944 115.978828,121.327370 C199.401123,204.746429 282.064209,287.406311 364.508606,369.847534 C359.793396,374.586273 354.656311,379.748962 349.909790,384.519135 C267.486237,302.094604 184.822250,219.429611 100.921455,135.527802 C102.460602,134.434219 104.633751,132.890167 107.059067,131.092667 z"/><path fill="#E70A95" d="M200.196640,127.803360 C185.221634,112.842232 170.496536,98.131210 156.208557,83.856880 C161.654770,78.418388 166.897278,73.183342 171.833389,68.254234 C253.725266,150.146317 336.403564,232.824829 419.119385,315.540863 C414.179321,320.226715 408.824860,325.305664 403.102692,330.733429 C335.883331,263.506165 268.164948,195.779800 200.196640,127.803360 z"/><path fill="#E70B95" d="M319.804077,378.195923 C326.077942,384.428131 332.101837,390.410339 337.696564,395.966339 C332.324707,401.444916 327.143982,406.728577 322.219543,411.750916 C239.971039,329.501312 157.299591,246.828766 74.765236,164.293304 C79.543701,159.581116 84.729317,154.467438 90.446251,148.829788 C166.541489,224.927795 243.047775,301.436859 319.804077,378.195923 z"/><path fill="#E70C96" d="M339.202026,288.797974 C357.117310,306.698883 374.782745,324.349640 392.100311,341.652863 C386.704926,347.084259 381.511261,352.312592 376.611145,357.245392 C294.439850,275.074768 211.812881,192.448456 129.341583,109.977829 C134.311005,105.135475 139.614410,99.967682 145.068726,94.652832 C209.412888,159.000839 274.182526,223.774338 339.202026,288.797974 z"/><path fill="#131B22" d="M284.808594,402.191406 C293.069702,410.432098 301.080811,418.422729 308.771301,426.093536 C281.253601,453.613251 253.877396,480.991425 226.521790,508.349030 C226.521790,454.153229 226.521790,399.545380 226.521790,343.905060 C246.153992,363.537079 265.356323,382.739227 284.808594,402.191406 z"/><path fill="#E70B95" d="M500.419495,120.576111 C506.509033,128.614304 512.378723,136.369476 518.712158,144.737305 C495.739075,144.737305 473.704865,144.737305 451.333618,144.737305 C451.333618,115.431824 451.333618,86.125916 451.333618,55.780426 C467.981171,77.758392 484.090424,99.025742 500.419495,120.576111 z"/><path fill="#FEFEFE" d="M1157.837402,314.999939 C1157.837402,293.180573 1157.837402,271.861176 1157.837402,250.339035 C1158.554688,250.155502 1159.155640,249.866760 1159.756348,249.867554 C1180.585571,249.895462 1201.423950,249.590744 1222.240723,250.127090 C1236.398560,250.491898 1250.037720,253.694168 1261.338989,263.030182 C1275.562988,274.780670 1279.941284,290.522614 1278.574951,308.212646 C1276.228027,338.600220 1255.754395,351.820709 1234.492798,353.711243 C1209.225830,355.957947 1183.744629,355.795593 1157.837402,356.695160 C1157.837402,342.075684 1157.837402,328.787842 1157.837402,314.999939 z"/></svg>