<svg xmlns="http://www.w3.org/2000/svg" role="img" viewBox="1.43 -1.32 198.64 77.89"><title>musl logo</title><path fill="#040404" d="M13.89 70.84c-5.44-5.55-8.5-20.5-8.5-41.5 0-14.3.236-16.3 2.42-20.2 5.23-9.38 14-8.59 25.2 2.27 6.82 6.6 11.5 14 11.5 18.3 0 2.77-21.3 38.9-24.5 41.6-2.83 2.38-3.3 2.34-6.13-.559zm9.62-8.3l4.53-7.53-2.01-3.31c-2.61-4.31-6.03-4.83-7.76-1.19-1.53 3.21-1.77 19.6-.295 19.6.554 0 3.05-3.39 5.54-7.53zm4.89-16.5c-1.21-1.55-3.52-3.77-5.14-4.93-2.85-2.04-3-2.05-5.17-.166-2.55 2.21-3.09 4.67-.593 2.68 2.34-1.86 6.58-.523 9.58 3.02 3.19 3.78 4.33 3.26 1.32-.606zm-3.17.745c-2.34-2.48-6.66-2.79-7.56-.544-.517 1.29-.263 1.35 1.43.335 1.64-.982 2.59-.882 4.65.489 3.48 2.32 3.86 2.25 1.48-.28zm4.97-4.75c-3.07-4.77-7.34-7.94-10.7-7.94-2 0-3.06.918-4.26 3.67-2.08 4.78-1.98 7.22.136 3.47 2.28-4.04 6.72-3.9 11.2.345 1.91 1.79 3.84 4.29 4.28 5.55.692 1.96.874 2.03 1.23.437.232-1.02-.644-3.52-1.95-5.54zm4.41 1.74c0-2.83-5.49-10.2-9.89-13.4-7.21-5.1-11.7-2.49-12.7 7.45l-.539 5.22 1.21-4.02c1.43-4.77 5.27-7.58 8.9-6.53 3.43.993 9.26 6.44 10.9 10.2 1.52 3.52 2.15 3.83 2.15 1.08zm1.7-8.15c-3.92-8.99-13.9-17-19.5-15.6-2.62.658-4.94 4.75-5.87 10.4l-.695 4.19 1.61-3.35c1.94-4.03 5.4-6.02 8.73-5.03 4.3 1.28 10.3 6.56 13 11.5 1.95 3.52 2.87 4.37 3.52 3.26.505-.866.169-3.15-.789-5.35zm2.05-7.02c-6.66-12.4-20-20.3-24.9-14.9-3.1 3.41-4.19 6.47-4.71 13.2-.486 6.32-.458 6.42.552 1.9 2.02-9.03 7.14-12.4 14.5-9.46 3.91 1.55 11.6 9.66 14 14.7 1.74 3.69 1.75 3.7 2.13.864.208-1.56-.472-4.42-1.51-6.35zm3.02-3.4c-4.81-10.4-16.8-20.7-24.1-20.7-5.52 0-10.4 7.03-10.2 14.8.0392 2.15.352 1.84 1.64-1.58.874-2.33 1.6-4.34 1.61-4.47.00913-.131 1.59-1.02 3.5-1.97 2.94-1.46 4.18-1.53 7.92-.457 5.27 1.52 14.9 10.5 18 16.8 2.87 5.88 4.44 3.64 1.67-2.37zm-34.7.71c-.28-1.03-.527-.443-.549 1.3-.0225 1.75.206 2.59.508 1.87.302-.716.32-2.14.0409-3.17zm40 27c1.57-8.7 2.06-9.88 4.21-10.2 1.41-.197 2.43.224 2.43 1 0 1.04.294 1.06 1.32.0736 1.92-1.84 8.31-1.58 9.46.384.875 1.5 1.1 1.5 2.4 0 .787-.909 3.09-1.65 5.12-1.65 5.44 0 6.42 2.5 4.79 12.2-1.24 7.36-1.51 7.88-4.08 7.88-2.63 0-2.72-.215-2.08-4.76.374-2.62.99-5.95 1.37-7.39.5-1.91.179-2.82-1.17-3.32-2.87-1.06-5.13 1.96-6.54 8.76-1.14 5.49-1.61 6.22-4.16 6.51l-2.87.323 1.54-7.03c1.58-7.23 1.36-8.96-1.16-8.96-2.44 0-4.19 2.94-5.51 9.28-1.1 5.31-1.6 6.09-4.05 6.37l-2.79.316zm34.1 7.46c-.964-1.73-.936-4.14.117-10 1.33-7.44 1.52-7.77 4.4-7.77h3.02l-1.52 6.97c-1.56 7.15-1.34 8.9 1.14 8.9 2.61 0 5.05-3.81 6.32-9.87 1.12-5.35 1.55-6 3.99-6 2.63 0 2.7.185 1.96 5.02-1.96 12.8-2.81 15.1-5.71 15.1-1.54 0-2.43-.461-2.05-1.06.375-.582.185-1.06-.421-1.06-.607 0-1.41.476-1.78 1.06-.375.582-2.37 1.06-4.44 1.06-2.71 0-4.11-.631-5.03-2.27zm20.6 1.31c-1.45-2.25.612-3.89 4.38-3.47 4.9.548 5.13-1.66.52-4.92-6.06-4.29-2.75-10.7 5.51-10.7 3.68 0 4.41.353 4.41 2.12 0 1.64-.735 2.12-3.24 2.12-4.6 0-5.04 1.59-1.18 4.22 3.88 2.65 4.47 7.14 1.3 9.89-2.16 1.87-10.6 2.44-11.7.788zm17.1-.889c.0384-1.02 1.17-7.33 2.52-14 2.39-11.9 2.52-12.2 5.54-12.5 2.56-.284 3-.0054 2.52 1.59-.32 1.06-1.66 7.52-2.98 14.4-2.27 11.8-2.54 12.4-5.03 12.4-1.8 0-2.62-.586-2.57-1.85zm18.7 0c.0384-1.02 1.17-7.33 2.52-14 2.39-11.9 2.52-12.2 5.54-12.5 2.56-.284 3-.0054 2.52 1.59-.32 1.06-1.66 7.52-2.98 14.4-2.27 11.8-2.54 12.4-5.03 12.4-1.8 0-2.62-.586-2.57-1.85zm9.86-.212c0-1.79.982-7.22 2.83-15.7.378-1.73 1.31-2.38 3.38-2.38 2.4 0 2.76.384 2.28 2.38-.314 1.31-1.19 5.83-1.95 10-1.25 6.96-1.62 7.67-3.96 7.67-1.82 0-2.58-.605-2.58-2.06zm11.7.401c-2.19-2.1-2.19-1.94.626-15.5 2.24-10.8 2.5-11.4 5.09-11.4s2.69.231 2.02 4.55l-.712 4.55 3.94-.442c7.46-.835 10.4 5.18 6.45 13.2-.992 2-3.2 4.34-4.91 5.18-4.08 2.02-10.3 1.96-12.5-.122zm10.6-4.42c2.33-2.6 3.26-5.52 2.49-7.82-.768-2.32-4.1-2.59-5.93-.482-1.67 1.93-3.5 8.08-2.75 9.24.988 1.53 4.43 1.01 6.18-.944zm12.2 4.44c-1.92-1.29-2.45-2.69-2.45-6.45 0-4.06.586-5.37 3.75-8.4 3.2-3.07 4.51-3.6 8.94-3.6 4.28 0 5.07.294 4.52 1.67-.368.92-.669 1.87-.669 2.12 0 .243-1.36.45-3.03.459-1.67.0089-3.58.366-4.25.793-2.29 1.46-3.94 5.73-3.24 8.39.605 2.31 1.19 2.6 4.5 2.23 3.37-.377 3.81-.145 3.81 2.01 0 2.16-.531 2.43-4.72 2.43-2.59 0-5.82-.741-7.17-1.65zm-29.8-22.9c.243-1.64 1.22-2.58 2.93-2.81 2.14-.291 2.51.0647 2.21 2.12-.243 1.64-1.22 2.58-2.93 2.81-2.14.291-2.51-.0647-2.21-2.12z"/></svg>