<svg xmlns="http://www.w3.org/2000/svg" role="img" viewBox="-7.44 90.06 412.62 68.62"><title>Nanjing SemiDrive Technology Ltd. (member) logo</title><g fill-rule="evenodd" stroke="none"><path fill="#0414a4" d="M29.28 98.266c-.066.107-.112 1.802-.101 3.765.016 3.072-.038 3.602-.392 3.8-.226.126-.411.392-.411.591 0 .276-.357.361-1.51.361-1.55 0-2.599.34-2.341.759.087.139-.473.236-1.362.236-1.342 0-1.508.055-1.508.498 0 .457-.166.498-1.991.498h-1.991v-.894c0-.686-.117-.925-.498-1.025-.276-.072-.498-.34-.498-.599 0-.303-.176-.469-.498-.469-.332 0-.498-.166-.498-.498 0-.273-.155-.497-.344-.497-.189 0-.403-.224-.474-.498-.072-.274-.309-.498-.527-.498-.218 0-.397-.168-.397-.373 0-.657-3.165-.605-3.671.06-.215.281-.312 1.483-.312 3.863 0 4.307.109 4.166-3.197 4.166-3.352 0-3.274-.048-3.274 2.018 0 1.581.041 1.716.527 1.716.404 0 .496.116.396.498-.094.361-.007.497.316.497.245 0 .504.224.575.498.1.382.34.498 1.025.498.624 0 .894.112.894.369 0 .817 2.754.792 3.356-.031.292-.4.327-.392.488.113.095.3.333.545.529.545s.357.171.357.38c0 .657 2.152 2.603 2.918 2.638 2.191.098 3.445-.075 3.832-.529.221-.26.692-.545 1.046-.634 1.033-.259 1.296-4.593.278-4.593-.573 0-.438-.991.14-1.027.274-.017.61-.059.747-.093.136-.035.352-.077.48-.094.127-.017.392-.192.59-.39.222-.222.959-.381 1.927-.416 1.132-.041 1.694-.183 2.023-.512 1.033-1.033 1.451-.629 1.451 1.403 0 1.603-.068 1.894-.498 2.124-.319.171-.497.522-.497.976 0 .499-.147.747-.498.839-.298.078-.498.339-.498.651 0 .287-.156.521-.347.521-.379 0-.649.523-.649 1.257 0 .304-.125.422-.354.334-.2-.077-.469.078-.617.355-.145.27-.601.609-1.015.753-.413.144-.752.373-.752.507 0 .135-.224.317-.498.403-.652.208-.739 2.468-.104 2.712.789.303 2.044.139 2.661-.347.444-.349 1.01-.498 1.892-.498 1.004 0 1.313-.1 1.525-.497.147-.274.478-.498.735-.498.734 0 1.257-.27 1.257-.649 0-.191.224-.347.497-.347.332 0 .498-.166.498-.498 0-.369.166-.498.642-.498.766 0 2.001-1.151 2.235-2.083.09-.36.32-.655.511-.655.205 0 .346-.258.346-.637 0-.35.106-.571.236-.49.364.224.76-.721.76-1.814 0-.774.106-1.011.497-1.113.416-.109.498-.34.498-1.398 0-1.102.065-1.268.498-1.268.332 0 .498-.166.498-.498 0-.478.166-.498 4.095-.498 3.879 0 5.363-.218 5.363-.787 0-.114.224-.209.498-.209.372 0 .498-.165.498-.657 0-.361.196-.818.436-1.016.415-.341.415-.352 0-.221-.365.114-.436-.024-.436-.851 0-.724-.102-.988-.384-.988-.211 0-.624-.224-.918-.498-.363-.338-.878-.498-1.607-.498-.745 0-1.073-.105-1.073-.342 0-.471-1.122-.653-4.014-.653h-2.458v-2.264c0-2.054-.046-2.276-.498-2.394-.427-.111-.646-.722-.436-1.212.284-.659-6.225-1.303-6.625-.656m59.404 4.285c-.072.276-.339.498-.599.498-.72 0-.693 2.477.029 2.666.388.102.498.34.498 1.079 0 .563.173 1.122.426 1.374.655.655.847 11.06.204 11.06-.235 0-.486.224-.558.498-.072.276-.339.498-.599.498-.315 0-.474.183-.485.56l-.017.56-.27-.56c-.149-.308-.365-.56-.481-.56-.116 0-.211-.171-.211-.38 0-.208-.265-.48-.588-.603-.324-.123-.651-.386-.728-.585-.103-.269-.543-.354-1.714-.331l-1.575.032-.069 3.846c-.071 3.952-.273 4.742-1.212 4.742-.183 0-.472.224-.643.497-.171.274-.452.498-.625.498-.172 0-.313.184-.313.408 0 .225-.196.552-.436.727-.43.315-.468.409-.529 1.32-.037.55-1.275.449-1.275-.104 0-.791-5.762-.83-6.337-.042-.186.253-.644.429-1.119.429-.596 0-.839.13-.935.498-.186.709-2.064.735-2.064.029 0-.259.223-.527.498-.599.381-.1.498-.339.498-1.025 0-1.035.654-1.248 1.191-.389.405.648 1.964.608 2.322-.059.131-.245.458-.446.727-.446.323 0 .489-.169.489-.498 0-.332.166-.498.498-.498.309 0 .498-.166.498-.438 0-.24.224-.577.498-.748.275-.172.497-.581.497-.915 0-.385.181-.66.498-.761.371-.118.498-.377.498-1.013 0-.572.117-.854.354-.854.194 0 .429-.344.521-.764.092-.419.325-.823.518-.897.192-.074.35-.385.35-.692 0-.306.224-.759.497-1.007.274-.248.498-.64.498-.871 0-.232.224-.624.498-.872.274-.247.498-.716.498-1.042 0-.325.165-.654.366-.732.202-.077.437-.512.522-.966.085-.454.378-1.066.652-1.359.649-.697.6-5.32-.062-5.815-.214-.16-.463-.487-.552-.727-.112-.297-.433-.435-1.014-.435-.64 0-.882-.123-.98-.498-.109-.416-.339-.498-1.398-.498-.944 0-1.268-.092-1.268-.362 0-.784-3.55-.782-4.335.004-.197.197-.731.36-1.185.362-1.185.004-1.947.252-1.947.632 0 .186-.34.362-.784.406-.469.047-.894.278-1.058.576-.151.274-.405.583-.566.686-.925.597-.152 3.382.948 3.411.223.005.46.216.526.468.099.38.406.466 1.817.512 1.193.039 1.78.169 1.978.439.154.211.806.443 1.448.516 1.322.149 1.602.828.669 1.627-.324.277-.498.734-.498 1.307 0 .527-.14.936-.349 1.016-.192.073-.419.507-.504.963-.086.457-.321.894-.523.971-.225.087-.366.474-.366 1.007 0 .477-.152.957-.337 1.066-.185.109-.401.367-.478.572-.078.206-.15-.597-.161-1.784-.022-2.365-.151-2.945-.656-2.945-.184 0-.436-.181-.56-.403-.404-.721-3.533-.669-3.533.059 0 .189-.167.344-.371.344-.203 0-.595.193-.871.429-.621.532-.719 2.309-.127 2.309.588 0 .495 1.87-.125 2.489-.377.377-.497.83-.497 1.867s-.121 1.49-.498 1.867c-.332.332-.498.83-.498 1.493 0 .664-.166 1.162-.498 1.494-.332.332-.498.83-.498 1.493 0 .699-.106.996-.356.996-.796 0-.956 4.444-.168 4.65.275.072.532.427.617.852.178.89.922 1.219 2.763 1.219 1.207 0 1.317.045 1.199.497-.103.395-.34.498-1.139.498-.573 0-1.199.171-1.446.395-.261.236-1.074.445-2.011.518-.866.068-1.742.177-1.948.243-.205.067-.417.104-.47.084-.053-.021-.171.084-.263.232-.092.148-1 .291-2.019.317-2.537.065-3.222.687-3.222 2.929 0 1.104.1 1.559.364 1.66.2.077.428.341.506.588.078.246.363.505.632.576.269.07.49.306.49.524 0 .68 5.225.582 5.404-.101.097-.372.339-.498.959-.498.457 0 .92-.14 1.029-.311.265-.415 2.143-1.68 2.494-1.68.153 0 .32-.127.372-.283.207-.62 1.192.373 1.192 1.202 0 .439.148.888.329.998.182.109.402.395.49.635.088.239.332.435.542.435.209 0 .381.179.381.397 0 .218.224.455.498.527.274.071.498.295.498.497 0 .203.213.424.474.492.261.069.531.338.599.599.435 1.661 5.647-.226 5.647-2.043 0-.258.168-.469.373-.469.206 0 .382-.084.393-.187.079-.77.256-1.208.589-1.451.213-.156.388-.496.388-.756s.224-.613.497-.784c.366-.228.498-.58.498-1.328 0-.807.103-1.043.498-1.147.427-.111.498-.339.498-1.594 0-1.086.089-1.465.347-1.465.544 0 .648-.585.648-3.629 0-2.676.03-2.842.498-2.842.29 0 .498.166.498.396 0 .218.224.455.498.527.474.124.498.34.498 4.58 0 4.179.03 4.468.498 4.76.273.171.497.508.497.749 0 .24.172.437.382.437.209 0 .455.194.546.431.189.494 1.282 1.561 1.598 1.561.117 0 .212.168.212.373 0 .208.222.373.498.373.274 0 .726.228 1.004.506.727.728 21.516.663 22.325-.07.398-.36.962-.436 3.244-.436 2.006 0 2.856-.093 3.104-.34.187-.187.587-.419.889-.515.301-.095.548-.327.548-.514 0-.186.224-.41.498-.497.275-.088.498-.377.498-.647 0-.269.168-.554.373-.632.568-.218.547-5.942-.022-6.261-.218-.122-.386-.295-.374-.386.224-1.643-.042-5.415-.413-5.869-.957-1.173-2.242-.346-2.483 1.598-.068.548-.271 1.08-.45 1.184-.179.103-.398.514-.485.912-.088.399-.32.787-.517.862-.203.078-.359.465-.359.892 0 .589-.109.755-.497.755-.332 0-.498.166-.498.498 0 .289-.166.498-.397.498-.218 0-.455.224-.527.497-.094.36-.339.498-.882.498-.414 0-.882.177-1.04.392-.186.255-.852.444-1.894.538-.884.08-1.719.284-1.856.453-.156.193-1.182.349-2.738.418-1.647.073-2.759.251-3.286.524-1.465.76-10.97.596-11.727-.202-.752-.793-.918-10.444-.189-10.977.215-.157.391-.402.391-.543 0-.238.735-.656.886-.503.149.151.264 2.404.118 2.313-.837-.517-1.064 5.785-.238 6.611.264.263.479.758.479 1.101 0 .364.143.622.344.622.19 0 .403.224.475.498.177.676 2.915.76 2.915.089 0-.224.19-.547.422-.717.333-.243.446-.822.528-2.71.089-2.031.178-2.44.573-2.652.257-.138.468-.415.468-.615 0-.201.156-.365.347-.365.191 0 .611-.278.934-.618.322-.34.699-.62.836-.622.138-.002.611-.396 1.051-.876.439-.479.918-.871 1.064-.871.145 0 .336-.187.424-.416.146-.38.365-.658 1.454-1.845.199-.217.362-.624.362-.904 0-.301.204-.564.497-.641.274-.071.498-.295.498-.497 0-.203.224-.427.498-.498.274-.072.498-.301.498-.51 0-.209.224-.451.498-.538.274-.087.498-.294.498-.459 0-.166.196-.487.435-.713.658-.621 1.058-1.147 1.058-1.391 0-.121.283-.348.628-.506.395-.18.683-.563.778-1.035.082-.413.254-.75.382-.75s.163-.112.079-.249c-.085-.137-.035-.249.11-.249.365 0 .329-.396-.072-.797-.184-.184-.411-.74-.504-1.235-.113-.6-.332-.943-.66-1.028-.271-.071-.492-.294-.492-.497 0-.202-.224-.426-.498-.497-.274-.072-.498-.309-.498-.527 0-.297-.25-.397-.995-.397-.679 0-.996-.109-.996-.342 0-.791-3.817-.931-4.232-.156-.196.367-.521.498-1.232.498-1.208 0-1.754.202-1.754.649 0 .191-.224.347-.498.347-.656 0-.759-6.479-.117-7.329.609-.805.507-4.026-.133-4.194-.333-.087-.448-.262-.347-.526.109-.284.006-.397-.364-.397-.283 0-.635-.224-.782-.498-.239-.447-.521-.497-2.77-.497-2.294 0-2.514.041-2.634.497m58.858 1.665c-.24.063-.436.205-.436.317 0 .111-.796.247-1.769.302-1.3.074-1.852.213-2.081.526-.171.235-.537.426-.814.426-.276 0-.651.18-.833.399-.182.22-.595.5-.917.622-.322.123-.511.343-.421.489.091.146-.067.327-.35.401-.283.074-.582.346-.664.605-.082.259-.31.471-.506.471s-.356.211-.356.469c0 .259-.223.527-.498.599-.361.094-.498.339-.498.891 0 .507-.167.851-.498 1.028-.406.217-.498.521-.498 1.65 0 .96-.138 1.559-.452 1.958-.674.856-.705 2.933-.058 3.842.353.495.51 1.105.51 1.976 0 1.005.101 1.314.498 1.526.274.147.498.487.498.756 0 .323.169.489.498.489.332 0 .498.166.498.498 0 .273.16.497.356.497.196 0 .428.224.515.498.087.274.311.498.498.498.186 0 .41.224.497.498.087.274.322.498.523.498.2 0 .429.168.507.373.089.23.467.373.988.373.679 0 .845.098.845.498 0 .415.166.498.995.498.664 0 1.162.166 1.494.498.332.332.83.498 1.493.498.682 0 .996.108.996.344 0 .392.747.643 1.929.648.559.002.809.121.809.384 0 .21.188.454.417.541 1.472.565 2.321 2.004 2.321 3.932 0 1.454-.079 1.867-.356 1.867-.197 0-.428.224-.515.498-.087.274-.311.498-.498.498s-.411.224-.498.497c-.116.368-.376.498-.992.498-1.08 0-1.621.217-1.621.649 0 .191-.168.347-.374.347-.205 0-.373-.119-.373-.264 0-.145-.1-.201-.223-.126-.122.076-.287-.03-.366-.236-.079-.206-.231-.36-.338-.343-1.168.192-2.513-.076-2.63-.525-.095-.362-.339-.497-.9-.497-.604 0-.77-.108-.77-.498 0-.325-.166-.498-.478-.498-.329 0-.529-.233-.642-.747-.09-.411-.316-.747-.501-.747s-.372-.252-.415-.56c-.104-.732-2.693-1.022-2.693-.3 0 .225-.224.468-.498.539-.274.072-.498.286-.498.475s-.179.344-.397.344c-.218 0-.455.224-.527.498-.071.274-.295.498-.497.498-.203 0-.427.224-.498.498-.072.274-.278.498-.458.498s-.395.213-.478.474c-.083.262-.315.538-.515.615-.576.221-.477 1.956.134 2.338.274.171.498.477.498.682 0 .204.155.371.344.371.19 0 .403.224.475.498.071.274.308.498.527.498.218 0 .396.17.396.379s.283.487.629.619c.346.131.691.401.767.598.075.198.465.474.864.613.4.14.727.372.727.516 0 .144.438.261.973.261.849 0 .955.063.842.498-.114.435-.008.498.834.498.696 0 1.052.139 1.276.498.295.472.58.498 5.534.498 4.953 0 5.239-.026 5.534-.498.221-.354.58-.498 1.246-.498.515 0 .936-.118.936-.263 0-.145.1-.202.223-.126.122.075.287-.03.365-.235.079-.204.371-.372.649-.372.283 0 .505-.164.505-.373 0-.205.179-.373.397-.373.218 0 .455-.224.527-.498.072-.274.296-.498.498-.498s.426-.224.498-.498c.072-.275.339-.498.599-.498.302 0 .468-.176.468-.497 0-.277.166-.498.374-.498.205 0 .373-.151.373-.335 0-.185.224-.594.498-.91.329-.379.498-.931.498-1.627 0-.855.096-1.078.514-1.187.73-.191.656-8.504-.079-8.915-.285-.159-.435-.543-.435-1.11 0-.531-.141-.921-.364-1.006-.2-.077-.432-.353-.515-.615-.083-.261-.311-.474-.507-.474s-.357-.224-.357-.498c0-.332-.166-.498-.497-.498-.332 0-.498-.166-.498-.498 0-.321-.166-.498-.469-.498-.26 0-.527-.222-.599-.497-.072-.274-.309-.498-.527-.498-.218 0-.397-.158-.397-.352 0-.216-.383-.416-.995-.52-.559-.094-.996-.308-.996-.488 0-.319-1.048-.632-2.12-.632-.311 0-.629-.168-.708-.373-.089-.233-.469-.373-1.01-.373-.537 0-.952-.152-1.09-.4-.135-.241-.686-.452-1.391-.531-.791-.089-1.247-.281-1.415-.596-.157-.293-.521-.465-.987-.465-.572 0-.738-.112-.738-.497 0-.274-.228-.727-.507-1.006-.591-.59-.649-2.525-.07-2.303.179.068.398-.066.487-.3.522-1.36 1.194-1.619 4.209-1.619 2.267 0 2.851.071 2.851.346 0 .198.372.416.871.509.522.098.871.309.871.526 0 .199.224.362.498.362.332 0 .498.166.498.498 0 .403.166.497.871.497.631 0 .871-.109.871-.396 0-.218.224-.455.498-.527.274-.072.498-.225.498-.342 0-.116.392-.603.871-1.083.479-.479.871-.971.871-1.094 0-.123.259-.491.575-.817.798-.825.92-3.208.164-3.208-.324 0-.49-.169-.49-.498 0-.321-.166-.498-.468-.498-.26 0-.527-.222-.599-.497-.099-.378-.34-.498-.996-.498-.656 0-.897-.121-.996-.498-.094-.361-.339-.498-.891-.498-.507 0-.851-.166-1.028-.498-.227-.423-.521-.497-1.973-.497-1.288 0-1.742-.092-1.851-.374-.14-.366-3.758-.513-4.95-.202m117.099.742c-.875.184-1.044 1.027-1.044 5.193 0 4.81-.921 4.348 8.669 4.348 6.62 0 7.726.053 7.849.373.103.27.526.374 1.52.374 1.011 0 1.377.092 1.377.347 0 .38.523.648 1.265.648.271 0 .477.172.477.397 0 .218.224.455.498.527.276.072.498.339.498.599 0 .303.176.469.498.469.281 0 .497.166.497.381 0 .21.169.446.374.524.205.079.373.413.373.742s.224.79.498 1.024c.292.25.499.738.501 1.18.006 1.194.272 1.917.652 1.771.619-.237.474 4.958-.157 5.636-.366.392-.498.878-.498 1.827 0 1.084-.081 1.315-.498 1.424-.274.071-.498.313-.498.537 0 .445-.936 1.886-1.431 2.203-.171.11-.311.349-.311.533 0 .183-.391.406-.871.496-.522.098-.872.309-.872.526 0 .22-.243.362-.622.362-.342 0-.846.224-1.12.498-.455.455-.83.498-4.356.498h-3.858v-9.086c0-8.062-.044-9.085-.388-9.085-.213 0-.329-.096-.257-.212.307-.497-1.275-.784-4.314-.784-3.602 0-4.834.166-4.657.626.067.175-.062.295-.298.277-.416-.031-.809 25.547-.418 27.162l.136.56h9.954c9.646 0 9.968-.015 10.381-.498.279-.326.734-.498 1.319-.498.491 0 1.11-.164 1.376-.365.265-.201.735-.369 1.043-.373.308-.005.784-.232 1.058-.506.273-.274.676-.498.894-.498.218 0 .455-.224.527-.498.072-.275.34-.498.599-.498.258 0 .673-.204.923-.454s.642-.527.872-.615c.229-.088.416-.331.416-.541 0-.209.179-.381.397-.381.218 0 .452-.213.521-.475.068-.261.338-.53.599-.599.276-.072.474-.342.474-.645 0-.301.161-.521.38-.521.223 0 .441-.309.529-.747.082-.41.302-.746.489-.746.203 0 .403-.399.498-.996.089-.553.299-.996.474-.996.368 0 .617-.549.617-1.359 0-.314.168-.711.374-.881.272-.226.373-.825.373-2.215 0-1.63.076-1.971.525-2.355.706-.604.636-5.644-.085-6.187-.32-.241-.441-.776-.494-2.186-.05-1.332-.159-1.849-.381-1.805-.203.041-.312-.249-.312-.833 0-.492-.204-1.192-.454-1.555-.25-.364-.599-1.025-.777-1.47-.177-.445-.409-.809-.514-.809-.106 0-.262-.28-.348-.622-.086-.343-.309-.623-.496-.623s-.398-.224-.47-.497c-.071-.274-.295-.498-.497-.498-.203 0-.427-.224-.498-.498-.072-.274-.296-.498-.498-.498s-.426-.224-.498-.498c-.072-.273-.296-.498-.498-.498s-.426-.224-.498-.497c-.071-.274-.308-.498-.526-.498-.219 0-.397-.168-.397-.374 0-.205-.168-.373-.373-.373-.206 0-.598-.224-.872-.498-.273-.274-.697-.498-.94-.498s-.634-.224-.869-.497c-.306-.358-.734-.498-1.519-.498-.885 0-1.119-.095-1.224-.498-.118-.45-.34-.498-2.304-.498-1.783 0-2.231-.078-2.492-.435-.313-.428-14.205-.77-15.992-.394m61.13.001c-.901.15-.982.688-.891 5.931l.073 4.231 5.165.068 5.165.067v-4.969c0-3.701-.079-5.02-.311-5.17-.332-.214-8.066-.348-9.201-.158m-111.396 13.433c-.172.072-.312.29-.312.484 0 .262-.357.352-1.392.352-1.183 0-1.412.075-1.522.498-.168.641-.928.638-1.572-.006-.472-.472-.769-.499-4.791-.435l-4.288.068.045.67c.032.489-.051.633-.311.533-.224-.085-.356.023-.356.29 0 .277.131.377.373.284.329-.127.373 1.354.373 12.419 0 11-.046 12.562-.373 12.562-.482 0-.476.489.014 1.189.465.663 8.301.871 9.145.242.376-.28.42-1.161.444-8.774.028-9.059.092-10.081.631-10.081.189 0 .345-.224.345-.498 0-.322.166-.498.471-.498.259 0 .535-.168.614-.373.105-.274.537-.373 1.618-.373s1.513.099 1.618.373c.084.218.457.373.898.373.578 0 .754.112.754.478 0 .742.269 1.265.649 1.265.291 0 .347 1.504.347 9.215v9.215l4.667-.068 4.667-.067.065-9.521c.059-8.488.108-9.521.459-9.521.217 0 .453-.224.524-.498.072-.275.34-.498.599-.498.258 0 .469-.168.469-.373 0-.298.37-.373 1.84-.373 1.406 0 1.874.088 1.984.373.079.205.315.373.524.373.21 0 .381.179.381.397 0 .218.224.455.498.527.487.127.498.339.498 9.684v9.554h9.459v-10.851c0-10.641-.01-10.853-.498-10.981-.387-.101-.498-.339-.498-1.066 0-.515-.157-1.067-.349-1.226-.192-.159-.418-.565-.503-.902-.084-.336-.306-.612-.493-.612s-.398-.224-.47-.498c-.071-.273-.295-.497-.497-.497-.203 0-.427-.224-.498-.498-.1-.381-.34-.498-1.025-.498-.728 0-.894-.092-.894-.498 0-.407-.166-.498-.914-.498-.504 0-1.12-.186-1.372-.414-.78-.706-4.23-.786-4.903-.114-.377.378-.839.528-1.617.528-1.024 0-1.849.464-1.48.832.09.09-.135.164-.5.164-.366 0-.869.205-1.119.455s-.642.526-.871.614c-.229.088-.417.331-.417.541 0 .562-.935.465-1.12-.117-.087-.273-.374-.497-.639-.497-.315 0-.481-.172-.481-.498 0-.403-.166-.498-.871-.498-.579 0-.871-.116-.871-.347 0-.405-.532-.649-1.413-.649-.343 0-.888-.207-1.211-.461-.575-.453-3.731-.714-4.532-.375m-34.495.445c-.119.309-.552.391-2.049.391-1.688 0-1.912.055-2.028.498-.102.39-.339.498-1.096.498-.791 0-.967.088-.967.483 0 .378-.202.499-.934.56-.595.049-.91.192-.868.395.035.175-.133.391-.374.479-.603.223-1.558 1.267-1.558 1.705 0 .198-.224.361-.498.361-.403 0-.497.166-.497.871s-.095.871-.498.871c-.415 0-.498.166-.498.996 0 .685-.108.995-.347.995-.884 0-1.024 11.075-.151 11.948.274.274.498.826.498 1.228 0 .511.149.777.498.888.274.087.498.374.498.639 0 .264.168.481.373.481s.373.164.373.364c0 .201.201.472.446.603.245.132.596.52.78.864.184.344.655.758 1.048.921.392.162.713.45.713.638 0 .189.168.343.374.343.205 0 .597.225.871.498.335.336.83.498 1.517.498.813 0 1.045.102 1.15.503.191.729 10.424.662 10.366-.067-.029-.36.176-.436 1.18-.436.945 0 1.284-.11 1.526-.498.171-.273.508-.498.749-.498s.438-.168.438-.373.17-.373.379-.373c.56 0 2.608-1.98 2.608-2.521 0-.256.168-.466.373-.466s.373-.197.373-.438.224-.578.498-.749c.415-.259.498-.58.498-1.927v-1.615l-4.169.004c-4.317.004-5.29.268-5.29 1.435 0 .292-.59.552-1.252.552-.256 0-.555.158-.664.352-.397.702-4.057.693-4.057-.01 0-.223-.294-.342-.843-.342-.632 0-.874-.124-.972-.498-.072-.274-.309-.498-.527-.498-.225 0-.396-.206-.396-.477 0-.742-.269-1.265-.649-1.265-.204 0-.347-.257-.347-.622v-.623h18.94l.611-.611c.851-.851.814-4.865-.044-4.865-.259 0-.341-.456-.341-1.89 0-1.681-.055-1.904-.498-2.02-.375-.098-.498-.34-.498-.98 0-.526-.142-.905-.373-.994-.205-.078-.373-.295-.373-.481s-.213-.451-.472-.59c-.259-.139-.59-.591-.734-1.005-.176-.506-.428-.752-.771-.752-.279 0-.648-.224-.819-.498-.171-.273-.508-.497-.749-.497-.272 0-.438-.189-.438-.498 0-.415-.166-.498-.996-.498-.685 0-.995-.108-.995-.347 0-.502-.568-.649-2.51-.649-1.24 0-1.704-.086-1.659-.309.102-.51-3.684-.59-3.879-.082m201.611.018c-.109.284-.57.373-1.917.373-1.564 0-1.789.059-1.904.498-.102.39-.339.498-1.097.498-.634 0-1.137.171-1.464.498-.274.274-.605.498-.736.498-.292 0-1.504 1.188-1.504 1.475 0 .115-.224.268-.498.339-.274.072-.498.301-.498.51 0 .209-.224.451-.498.538-.37.118-.498.377-.498 1.013 0 .688-.096.854-.497.854-.415 0-.498.166-.498.996 0 .829-.083.995-.498.995-.456 0-.498.166-.498 1.992 0 1.604-.072 1.991-.373 1.991s-.374.384-.374 1.964c0 1.517.086 1.998.374 2.108.278.107.373.552.373 1.749 0 1.828.153 2.393.649 2.393.232 0 .347.296.347.894 0 .686.116.925.498 1.025.275.072.497.34.497.599 0 .258.205.673.455.923s.527.643.614.872c.088.229.319.416.512.416.194 0 .408.212.476.472.073.279.44.541.9.642.427.094.777.329.777.524 0 .194.224.353.498.353s.498.157.498.347c0 .417.535.649 1.493.649.958 0 1.494.233 1.494.649 0 .285.868.347 4.833.347 5.02 0 5.621-.07 5.621-.649 0-.23.292-.347.871-.347.539 0 1.061-.19 1.369-.498.274-.273.722-.498.996-.498s.498-.154.498-.344c0-.189.224-.403.497-.474.274-.072.498-.296.498-.498s.224-.426.498-.498c.274-.072.498-.296.498-.498s.224-.426.498-.498c.273-.071.498-.308.498-.526 0-.219.157-.397.349-.397.191 0 .466-.336.609-.747.143-.411.378-.747.522-.747.156 0 .262-.652.262-1.618v-1.617h-8.85l-.678.772c-.372.425-.677.873-.677.995 0 .123-.272.224-.605.224-.332 0-.79.186-1.018.413-.593.593-3.119.606-3.705.019-.238-.238-.705-.432-1.037-.432-.439 0-.605-.137-.605-.498 0-.332-.166-.498-.498-.498-.332 0-.498-.166-.498-.498 0-.332-.166-.497-.497-.497-.415 0-.498-.166-.498-.993v-.993l9.521-.065 9.52-.065.051-4.356c.039-3.325-.025-4.415-.272-4.605-.178-.137-.402-.669-.498-1.182-.096-.514-.284-.934-.418-.934s-.35-.28-.48-.622c-.131-.342-.395-.622-.588-.622-.192 0-.409-.224-.48-.498-.072-.274-.296-.498-.498-.498s-.426-.224-.498-.498c-.071-.274-.309-.498-.527-.498-.218 0-.396-.168-.396-.373 0-.207-.222-.373-.498-.373-.332 0-.498-.166-.498-.498 0-.415-.166-.498-.996-.498-.685 0-.995-.108-.995-.347 0-.489-.559-.647-2.323-.657-.954-.004-1.719-.146-2.019-.373-.68-.515-3.764-.509-3.962.008m-132.3 1.058l-.783.684.065 13.566.065 13.566 4.673.067 4.673.068-.068-14.078c-.06-12.193-.119-14.11-.442-14.314-.991-.626-7.355-.283-8.183.441m66.241-.38c-.444.146-.808.361-.808.478 0 .117-.459.213-1.019.213-.81 0-1.046.102-1.15.498-.174.668-1.067.664-1.067-.006 0-.489-.127-.501-4.667-.435l-4.667.067v27.381l4.667.067 4.667.068v-7.732c0-7.388.022-7.756.498-8.267.29-.311.497-.878.497-1.358 0-.658.101-.824.498-.824.332 0 .498-.166.498-.498 0-.474.166-.498 3.471-.498 4.454 0 4.245.235 4.245-4.767 0-3.586-.012-3.669-.609-4.139-.706-.555-3.674-.701-5.054-.248m11.077-.142c-.24.068-.436.209-.436.315 0 .106-.224.451-.497.767-.767.884-.783 26.713-.017 27.122.84.45 8.865.335 9.333-.133.346-.346.391-1.917.391-13.529v-13.138l-.667-.721-.668-.721-3.502-.042c-1.926-.024-3.697.013-3.937.08m10.765.158c-.729.367-1.016 1.848-.442 2.282.189.143.459.652.6 1.131.141.479.388.843.547.809.171-.037.291.245.291.682 0 .475.18.858.498 1.056.274.171.498.564.498.873 0 .31.224.787.498 1.06.273.274.497.723.497.999 0 .275.224.692.498.926.274.234.498.625.498.869 0 .243.196.643.436.888.239.246.472.778.516 1.183.045.405.232.821.416.924.185.104.411.531.503.95.092.419.325.823.517.897.193.074.35.402.35.73 0 .327.224.819.498 1.093s.498.722.498.996.212.71.472.97.549.82.642 1.245c.093.424.329.772.523.772.205 0 .354.245.354.584 0 .321.224.842.498 1.158.274.316.498.773.498 1.016s.153.595.34.782c.187.188.428.615.534.951.107.335.337.722.513.859.176.138.356.53.4.872.079.622.082.623 3.171.693 3.339.076 3.494.021 3.501-1.253.002-.417.139-.684.35-.684.379 0 .649-.523.649-1.256 0-.258.224-.589.498-.735.326-.175.498-.522.498-1.005 0-.487.126-.738.37-.738.24 0 .427-.351.53-.995.092-.575.297-.996.486-.996.193 0 .358-.359.403-.876.043-.483.177-.865.299-.85.339.04.642-.566.646-1.294.003-.444.164-.698.502-.786.377-.099.498-.339.498-.996 0-.656.12-.896.497-.995.378-.099.498-.34.498-.996 0-.656.121-.897.498-.995.358-.094.498-.34.498-.874 0-.419.157-.804.359-.881.198-.076.435-.536.526-1.023.092-.492.314-.884.5-.884.187 0 .409-.394.502-.891.092-.49.321-.95.509-1.022.195-.075.342-.487.342-.959 0-.61.131-.87.498-.986.37-.118.497-.377.497-1.013 0-.688.097-.854.498-.854.568 0 .74-2.32.24-3.252-.384-.718-8.184-.739-8.88-.024-.245.252-.641.529-.881.615-.303.109-.435.424-.435 1.035 0 .586-.116.879-.347.879-.38 0-.649.523-.649 1.265 0 .263-.224.702-.498.976-.273.273-.497.752-.497 1.064 0 .312-.224.759-.498.993-.277.238-.498.735-.498 1.121 0 .385-.221.883-.498 1.12-.293.251-.498.734-.498 1.175 0 .5-.124.749-.373.749-.27 0-.373.277-.373.996 0 1.262-.853 1.468-1.116.27-.088-.4-.305-.782-.482-.85-.178-.068-.396-.582-.486-1.141-.106-.662-.292-1.017-.533-1.017-.226 0-.37-.235-.37-.602 0-.859-.248-1.389-.649-1.389-.232 0-.347-.296-.347-.895 0-.685-.117-.925-.498-1.025-.377-.098-.498-.339-.498-.995 0-.656-.12-.897-.497-.996-.375-.098-.498-.339-.498-.972 0-.53-.122-.842-.327-.842-.18 0-.476-.38-.658-.845-.27-.686-.5-.872-1.229-.993-1.702-.281-7.586-.162-8.241.167m-239.203 2.552c0 .074-.224.376-.498.669-.274.294-.498.726-.498.959 0 .233-.157.485-.35.559-.192.073-.425.477-.517.897-.303 1.38-.875.936-.875-.678 0-1.412.017-1.447.809-1.683.445-.132.781-.379.747-.549-.037-.18.197-.309.56-.309.342 0 .622.061.622.135m-58.917 2.108c-1.074.433-1.628 2.487-.671 2.487.232 0 .347.296.347.894 0 .685.117.925.498 1.025.275.072.498.339.498.599 0 .303.176.469.498.469.273 0 .484.084.468.186-.081.514.066.809.403.809.205 0 .373.179.373.397 0 .218.214.452.475.521.261.068.531.338.599.599.068.261.303.475.521.475.218 0 .396.16.396.356 0 .196.214.425.475.507.261.083.538.315.615.515.086.225.499.371 1.081.384.517.01.796.077.619.148-.884.355.312.828 2.095.828 1.67 0 1.836-.045 1.836-.498 0-.274.156-.498.347-.498.485 0 .649-.561.649-2.229 0-1.919-.236-2.998-.654-2.998-.188 0-.342-.104-.342-.231 0-.527-1.699-2.009-2.303-2.009-.417 0-.669-.167-.756-.498-.099-.378-.34-.498-.996-.498-.656 0-.897-.12-.995-.498-.116-.443-.34-.498-2.021-.498-1.514 0-1.89-.074-1.89-.373 0-.205-.215-.373-.477-.373-.263 0-.627-.049-.809-.109-.183-.06-.578-.01-.879.111m144.293 2.102c0 .217.35.428.872.526.499.093.871.311.871.509 0 .19.224.345.498.345.331 0 .497.166.497.498 0 .332.166.498.498.498.332 0 .498.166.498.498 0 .481-.166.498-4.922.498h-4.923l.095-.996c.074-.778.198-.996.567-.996.259 0 .471-.168.471-.373s.215-.373.478-.373c.742 0 1.265-.269 1.265-.649 0-.261.401-.347 1.617-.347 1.25 0 1.618.082 1.618.362m201.867 0c0 .217.35.428.871.526.499.093.872.311.872.509 0 .19.224.345.497.345.338 0 .498.166.498.515 0 .282.116.73.258.995.251.469.125.481-4.916.462-2.846-.011-5.034-.076-4.863-.145.172-.069.312-.235.312-.369 0-.133-.112-.173-.249-.089-.137.085-.249.036-.249-.109s.224-.264.498-.264c.331 0 .497-.166.497-.498 0-.332.166-.498.498-.498.277 0 .498-.166.498-.373 0-.233.235-.373.625-.373.343 0 .816-.224 1.051-.498.541-.632 3.302-.746 3.302-.136m-354.935 2.105c-.168.315-.424.431-.757.344-.558-.146-1.993.361-1.993.704 0 .394-3.276.258-3.582-.149-.588-.782-4.383-.791-4.383-.01 0 .198-.224.48-.498.627-.434.232-.498.521-.498 2.272 0 1.796.052 2.019.498 2.136.378.099.498.339.498.995 0 .657.12.897.498.996.275.072.498.34.498.599 0 .293.175.469.468.469.258 0 .524.208.59.462.213.814 3.951.759 5.044-.075.459-.35.953-.636 1.099-.636.146 0 .266-.143.266-.318 0-.175.224-.51.498-.744.274-.235.498-.708.498-1.051 0-.459.132-.625.497-.625.323 0 .498-.166.498-.471 0-.259.162-.534.36-.609.198-.076.434-.536.525-1.023.093-.492.315-.884.501-.884.427 0 .71-1.482.497-2.614-.188-1.006-1.167-1.245-1.622-.395m-26.822 2.76c-.072.276-.34.498-.599.498-.293 0-.469.176-.469.469 0 .259-.222.527-.498.599-.381.099-.498.339-.498 1.024 0 .599-.114.895-.346.895-.585 0-.649.604-.649 6.098 0 5.495.064 6.098.649 6.098.232 0 .346.296.346.895 0 .685.117.925.498 1.025.351.091.498.339.498.839 0 .893.588 1.225 2.162 1.221 1.836-.006 2.268-.194 2.461-1.077.095-.429.345-.906.556-1.061.772-.564.689-5.575-.091-5.575-.231 0-.359-.262-.359-.735 0-.82-.464-2.003-.786-2.003-.115 0-.209-.271-.209-.602 0-.859-.248-1.389-.649-1.389-.633 0-.487-4.74.151-4.907.578-.151.724-1.986.199-2.511-.52-.521-2.216-.378-2.367.199m27.957 3.879c-.282.735-.158 1.859.222 2.005.206.079.374.298.374.488 0 .189.224.484.497.655.274.171.498.508.498.749s.224.662.498.936c1.414 1.414.28 3.214-2.033 3.228-1.643.009-2.199.175-2.199.657 0 .277-.599.346-2.986.346-2.388 0-2.987-.069-2.987-.346 0-.448-.547-.649-1.763-.649-.649 0-.975-.112-.975-.334 0-.183-.28-.461-.623-.617-.342-.155-.622-.392-.622-.526s-.392-.317-.871-.406c-.499-.094-.871-.312-.871-.51 0-.19-.179-.345-.397-.345-.218 0-.453-.214-.521-.475s-.338-.531-.599-.599c-.336-.088-.475-.346-.475-.882 0-.417-.151-.847-.336-.957-.186-.109-.446-.535-.58-.945-.26-.803-1.745-1.203-2.412-.649-.652.541-.457 3.262.234 3.262.25 0 .356.298.356.996 0 .664.166 1.161.498 1.493.274.274.498.695.498.936 0 .241.224.578.498.749.281.176.498.58.498.931 0 .39.141.62.379.62.209 0 .486.28.616.622.13.343.352.623.492.623s.255.168.255.373c0 .208.221.373.498.373.332 0 .498.166.498.498 0 .322.166.498.468.498.26 0 .527.222.599.498.099.377.34.498.996.498.656 0 .897.12.996.498.099.381.339.497 1.024.497.492 0 .895.094.895.209 0 .963 11.86 1.218 13.385.288.574-.35 1.254-.497 2.302-.497 1.156 0 1.599-.111 1.986-.497.308-.309.829-.498 1.369-.498.705 0 .871-.095.871-.498 0-.332.166-.498.498-.498 1.016 0 1.493-.857 1.49-2.676-.004-1.836-.184-2.8-.522-2.8-.274 0-1.715-1.494-1.715-1.779 0-.117-.172-.212-.381-.212-.21 0-.443-.161-.519-.358-.076-.197-.453-.428-.838-.512-.401-.088-.755-.361-.827-.638-.072-.273-.341-.483-.619-.483-.282 0-.547-.212-.622-.498-.095-.363-.339-.498-.9-.498-.524 0-.77-.121-.77-.38 0-.208-.28-.486-.622-.616-.343-.13-.623-.346-.623-.48s-.392-.317-.871-.407c-.499-.094-.871-.312-.871-.509 0-.518-2.138-.475-2.338.048m41.666 3.313c0 1.458-.09 1.999-.35 2.099-.192.074-.427.485-.521.914-.095.43-.329.841-.522.915-.192.074-.35.29-.35.481 0 .271-.487.347-2.216.347-2.223 0-3.062-.63-1.499-1.126.282-.089.525-.482.623-1.004.09-.481.31-.857.502-.857.433 0 .701-1.044.512-1.991-.134-.672-.08-.74.718-.89.492-.092.863-.31.863-.507 0-.244.33-.346 1.12-.346h1.12v1.965"/><path fill="#fc7c1c" d="M248.579 104.957c-.091.092-.166 2.444-.166 5.228v5.061h10.454v-4.929c0-3.501-.086-5.015-.298-5.227-.323-.323-9.676-.447-9.99-.133m-173.291.345c-.237.383.087.629.407.31.179-.179.183-.318.013-.423-.14-.086-.329-.035-.42.113m-10.405 2.642c-.091.092-.159.4-.15.685.014.477.035.47.254-.078.244-.609.193-.904-.104-.607m96.466 4.32c-.292.467-.278.481.189.19.277-.173.503-.4.503-.504 0-.359-.379-.187-.692.314m-71.902 3.106c0 1.232.042 1.768.094 1.19.052-.578.053-1.586.001-2.24-.051-.655-.094-.182-.095 1.05m56.85.145c-.494.287-.581.726-.145.726.16 0 .218-.072.129-.162-.09-.089.032-.309.269-.49.513-.389.363-.433-.253-.074m12.24-.207c-.193.631-.13.88.189.757.272-.104.291-.191.072-.326-.224-.138-.213-.218.041-.319.241-.096.249-.141.028-.155-.171-.01-.319.009-.33.043m-147.968 2.24c-.092.24-.352.445-.577.455-.271.013-.301.063-.089.148.175.071.483-.008.684-.174.289-.24.365-.236.365.018 0 .176.066.254.147.173.081-.081.033-.351-.107-.601-.241-.428-.265-.429-.423-.019m170.452.863c.376.057.992.057 1.369 0 .376-.057.068-.104-.685-.104-.753 0-1.061.047-.684.104m201.617 0c.377.057.993.057 1.369 0 .377-.057.069-.104-.684-.104-.753 0-1.061.047-.685.104m-370.686.737c.007.382.466.938.634.77.092-.093-.014-.349-.235-.571-.222-.222-.402-.311-.399-.199m237.228.282c-.011.181-.148.247-.307.148-.17-.105-.221-.069-.123.088.09.147.023.323-.149.393-.172.069-.2.133-.063.142.464.029.932-.416.796-.757-.105-.266-.139-.269-.154-.014m75.765 14.609c0 7.255.032 10.188.07 6.516.039-3.672.039-9.608 0-13.192-.039-3.584-.07-.58-.07 6.676M15.272 121.664c.177.176.509.249.739.16.654-.251.49-.502-.321-.491-.603.008-.68.069-.418.331m8.475 3.823c-.471.532-.471.533.086.241.308-.162.56-.402.56-.535 0-.353-.119-.299-.646.294m275.588 4.227c-.263.255-.403.54-.311.631.092.092.169.009.171-.185.003-.298.038-.299.222-.009.17.269.256.224.392-.205.232-.731.104-.794-.474-.232m-204.884 5.212c-.09.146-.104.326-.031.399.179.178.664-.136.664-.43 0-.318-.43-.297-.633.031m101.513.917c-.355.361-.432.56-.217.56.389 0 .979-.64.854-.925-.047-.107-.334.057-.637.365m-77.56 1.151c-.077.2.01.421.193.492.191.073.311-.022.282-.222-.079-.536-.32-.674-.475-.27m-102.643 1.771c.028.272.245.532.482.578.314.061.389-.029.274-.329-.117-.304-.208-.332-.347-.106-.135.217-.228.169-.325-.166-.124-.433-.131-.431-.084.023m103.276 1.123c0 .479.051.675.114.436.063-.24.063-.632 0-.872-.063-.239-.114-.043-.114.436m251.84 3.583c0 .19.184.417.409.503.568.218.582.095.048-.415-.348-.331-.457-.352-.457-.088m-200.683.814c.172.069.257.217.189.327-.069.111.045.267.253.347.307.118.329.054.114-.347-.145-.271-.4-.484-.566-.473-.226.015-.224.051.01.146m-60.678 2.952c-.411.495-.157.734.422.398.347-.202.366-.267.081-.276-.332-.01-.332-.038 0-.253.205-.132.247-.243.092-.245-.154-.002-.422.167-.595.376m281.71.16c-.369.386-.377.456-.055.456.21 0 .448-.173.529-.384.216-.563.022-.592-.474-.072m-13.44.622c.172.069.261.209.198.312-.063.102.048.186.247.186.2 0 .363-.081.363-.181 0-.183-.65-.499-.954-.463-.092.011-.026.076.146.146m-303.303 1.442c-.784.815-.694 1.029.116.278.37-.343.62-.676.556-.74-.063-.064-.366.144-.672.462"/><path fill="#4048a8" d="M95.257 103.457c-.231.231.047.588.456.588.21 0 .293-.151.208-.374-.152-.395-.402-.476-.664-.214m54.032.519c.447.056 1.119.055 1.493-.002.374-.057.008-.102-.813-.101-.822.001-1.128.048-.68.103m3.203.442c.079.206.313.374.521.374.307 0 .32-.07.067-.374-.17-.205-.404-.373-.52-.373-.116 0-.146.168-.068.373m-74.583 1.971c0 .216.177.394.394.394.44 0 .363-.536-.098-.69-.163-.054-.296.079-.296.296m-30.616 1.461c0 .635.105.817.47.817.279 0 .42-.129.347-.318-.067-.175-.251-.242-.407-.148-.157.094-.136-.014.047-.239.183-.226.26-.528.172-.67-.319-.517-.629-.243-.629.558m114.978 1.683c-.011.199-.057.557-.102.796-.046.239.015.495.136.57.34.21.585-1.126.265-1.446-.208-.208-.285-.187-.299.08m-72.832 2.228c0 .89.045 1.254.1.809.055-.445.055-1.173 0-1.618-.055-.445-.1-.081-.1.809m5.894-.139c0 .761.112 1.384.249 1.384s.249-.554.249-1.23c0-.677-.112-1.299-.249-1.384-.155-.095-.249.371-.249 1.23m-59.49 1.29c0 .33.068.347.374.094.205-.171.373-.353.373-.404 0-.052-.168-.094-.373-.094-.206 0-.374.182-.374.404m-32.544.716c.002.547.053.742.113.433.059-.31.057-.758-.005-.996s-.111.015-.108.563m.435 1.712c0 .051.168.233.373.404.306.253.373.236.373-.094 0-.222-.168-.404-.373-.404s-.373.042-.373.094m85.688 3.017c.003.548.054.743.113.433.06-.31.057-.758-.005-.996s-.111.016-.108.563m124.442.174c-.351.352-.39.697-.078.697.12 0 .278-.224.35-.497.152-.581.128-.599-.272-.2m171.201.075c.815.466 1.256.46.637-.008-.265-.201-.658-.361-.871-.356-.249.005-.165.136.234.364m-4.255.278c-.289.348-.27.39.136.311.258-.05.515-.231.572-.402.148-.444-.313-.385-.708.091m-180.796.898c-.629.898-.583 27.446.048 27.686.349.133.374.104.125-.148-.431-.433-.391-1.209.062-1.209.327 0 .373-1.562.373-12.562 0-11.065-.044-12.546-.373-12.419-.242.093-.373-.007-.373-.284 0-.256.134-.375.336-.297.238.091.329-.083.311-.595-.03-.869-.023-.867-.509-.172m125.562.069c-.436.464-.489.622-.208.622.207 0 .504-.28.66-.622.156-.343.25-.623.208-.623-.042 0-.339.28-.66.623m51.711-.354c-.521.303-.574.727-.091.727.189 0 .403-.224.474-.498.072-.274.113-.494.091-.49-.021.004-.235.122-.474.261m-138.581.333c0 .217.177.394.394.394.439 0 .363-.536-.099-.69-.162-.054-.295.079-.295.296m-214.918.615c-.075.121.031.359.235.528.308.256.37.219.37-.221 0-.534-.353-.714-.605-.307m288.007.401c-.087.228 0 .374.223.374.201 0 .365-.168.365-.374 0-.205-.1-.373-.222-.373s-.287.168-.366.373m35.187 0c0 .206.182.374.404.374.331 0 .348-.068.094-.374-.171-.205-.352-.373-.404-.373-.052 0-.094.168-.094.373m-308.899 3.858c-.18.338-.183.498-.008.498.141 0 .257-.158.257-.352 0-.194.14-.41.311-.479.235-.094.237-.13.009-.145-.166-.011-.422.205-.569.478m100.617.545c.055.162.232.34.395.394.182.061.237-.053.144-.296-.173-.452-.688-.546-.539-.098m21.599.327c0 .205.181.373.404.373.33 0 .347-.068.094-.373-.171-.206-.353-.374-.404-.374-.052 0-.094.168-.094.374m17.05 3.858c-.1.162 1.454.249 4.48.249 3.027 0 4.581-.087 4.481-.249-.093-.151-1.865-.249-4.481-.249-2.615 0-4.387.098-4.48.249m201.245 0c-.248.16 1.388.241 4.853.241 3.466 0 5.102-.081 4.854-.241-.206-.133-2.384-.242-4.854-.242-2.469 0-4.648.109-4.853.242m-182.95 1.12c0 .205.182.373.404.373.331 0 .348-.067.094-.373-.171-.206-.352-.374-.404-.374-.052 0-.094.168-.094.374m14.299 8.214c0 4.518.034 6.401.075 4.185.041-2.216.041-5.912 0-8.214-.041-2.302-.075-.489-.075 4.029M88.85 131.446c-.153.286-.198.594-.099.685.098.091.229.024.29-.147.061-.172.19-.265.286-.205.096.059.174-.109.174-.372 0-.629-.303-.611-.651.039m199.031.957c-.417.461-.414.475.086.345.287-.075.521-.291.521-.481 0-.455-.089-.435-.607.136m-148.55 2.185c.309.06.758.057.995-.005.238-.062-.015-.111-.562-.108-.548.002-.743.053-.433.113m-79.343 1.909c0 .052.168.234.373.404.306.254.373.237.373-.094 0-.222-.168-.404-.373-.404s-.373.043-.373.094m52.935.321c-.287.286-.182.581.207.581.205 0 .373-.168.373-.373 0-.389-.294-.494-.58-.208m82.721 2.448c0 .42.114.625.311.56.171-.057.311-.309.311-.56 0-.251-.14-.503-.311-.56-.197-.066-.311.139-.311.56m-47.093.293c-.245.065-.364.261-.284.469.207.539.805.429.762-.14-.02-.274-.041-.485-.046-.469-.006.016-.2.079-.432.14m36.888.453c-.337.406-.256.456.353.223.216-.083.393-.251.393-.374 0-.344-.403-.262-.746.151m-1.633.739c-.41.31-.421.367-.074.374.225.004.473-.16.552-.366.178-.464.126-.465-.478-.008m-64.764.755c.003.548.054.742.114.433.059-.31.057-.758-.006-.996-.062-.238-.111.015-.108.563m-54.164 3.409c.287.315.584.742.659.947.075.207.145.062.156-.326.011-.407-.085-.635-.229-.545-.137.084-.249.047-.249-.083 0-.131-.194-.312-.43-.402-.35-.135-.333-.059.093.409m-22.314 3.312c0 .205.1.373.222.373s.287-.168.366-.373c.087-.228 0-.374-.223-.374-.201 0-.365.168-.365.374m144.527-.002c.078.205.243.31.365.234.352-.217.26-.606-.143-.606-.222 0-.309.146-.222.372m-185.292.919c.154.462.69.538.69.099 0-.217-.177-.394-.394-.394-.217 0-.35.133-.296.295"/><path fill="#4048a8" d="M95.257 103.457c-.231.231.047.588.456.588.21 0 .293-.151.208-.374-.152-.395-.402-.476-.664-.214m54.032.519c.447.056 1.119.055 1.493-.002.374-.057.008-.102-.813-.101-.822.001-1.128.048-.68.103m3.203.442c.079.206.313.374.521.374.307 0 .32-.07.067-.374-.17-.205-.404-.373-.52-.373-.116 0-.146.168-.068.373m-74.583 1.971c0 .216.177.394.394.394.44 0 .363-.536-.098-.69-.163-.054-.296.079-.296.296m-30.616 1.461c0 .635.105.817.47.817.279 0 .42-.129.347-.318-.067-.175-.251-.242-.407-.148-.157.094-.136-.014.047-.239.183-.226.26-.528.172-.67-.319-.517-.629-.243-.629.558m114.978 1.683c-.011.199-.057.557-.102.796-.046.239.015.495.136.57.34.21.585-1.126.265-1.446-.208-.208-.285-.187-.299.08m-72.832 2.228c0 .89.045 1.254.1.809.055-.445.055-1.173 0-1.618-.055-.445-.1-.081-.1.809m5.894-.139c0 .761.112 1.384.249 1.384s.249-.554.249-1.23c0-.677-.112-1.299-.249-1.384-.155-.095-.249.371-.249 1.23m-59.49 1.29c0 .33.068.347.374.094.205-.171.373-.353.373-.404 0-.052-.168-.094-.373-.094-.206 0-.374.182-.374.404m-32.544.716c.002.547.053.742.113.433.059-.31.057-.758-.005-.996s-.111.015-.108.563m.435 1.712c0 .051.168.233.373.404.306.253.373.236.373-.094 0-.222-.168-.404-.373-.404s-.373.042-.373.094m85.688 3.017c.003.548.054.743.113.433.06-.31.057-.758-.005-.996s-.111.016-.108.563m124.442.174c-.351.352-.39.697-.078.697.12 0 .278-.224.35-.497.152-.581.128-.599-.272-.2m171.201.075c.815.466 1.256.46.637-.008-.265-.201-.658-.361-.871-.356-.249.005-.165.136.234.364m-4.255.278c-.289.348-.27.39.136.311.258-.05.515-.231.572-.402.148-.444-.313-.385-.708.091m-180.796.898c-.629.898-.583 27.446.048 27.686.349.133.374.104.125-.148-.431-.433-.391-1.209.062-1.209.327 0 .373-1.562.373-12.562 0-11.065-.044-12.546-.373-12.419-.242.093-.373-.007-.373-.284 0-.256.134-.375.336-.297.238.091.329-.083.311-.595-.03-.869-.023-.867-.509-.172m125.562.069c-.436.464-.489.622-.208.622.207 0 .504-.28.66-.622.156-.343.25-.623.208-.623-.042 0-.339.28-.66.623m51.711-.354c-.521.303-.574.727-.091.727.189 0 .403-.224.474-.498.072-.274.113-.494.091-.49-.021.004-.235.122-.474.261m-138.581.333c0 .217.177.394.394.394.439 0 .363-.536-.099-.69-.162-.054-.295.079-.295.296m-214.918.615c-.075.121.031.359.235.528.308.256.37.219.37-.221 0-.534-.353-.714-.605-.307m288.007.401c-.087.228 0 .374.223.374.201 0 .365-.168.365-.374 0-.205-.1-.373-.222-.373s-.287.168-.366.373m35.187 0c0 .206.182.374.404.374.331 0 .348-.068.094-.374-.171-.205-.352-.373-.404-.373-.052 0-.094.168-.094.373m-308.899 3.858c-.18.338-.183.498-.008.498.141 0 .257-.158.257-.352 0-.194.14-.41.311-.479.235-.094.237-.13.009-.145-.166-.011-.422.205-.569.478m100.617.545c.055.162.232.34.395.394.182.061.237-.053.144-.296-.173-.452-.688-.546-.539-.098m21.599.327c0 .205.181.373.404.373.33 0 .347-.068.094-.373-.171-.206-.353-.374-.404-.374-.052 0-.094.168-.094.374m17.05 3.858c-.1.162 1.454.249 4.48.249 3.027 0 4.581-.087 4.481-.249-.093-.151-1.865-.249-4.481-.249-2.615 0-4.387.098-4.48.249m201.245 0c-.248.16 1.388.241 4.853.241 3.466 0 5.102-.081 4.854-.241-.206-.133-2.384-.242-4.854-.242-2.469 0-4.648.109-4.853.242m-182.95 1.12c0 .205.182.373.404.373.331 0 .348-.067.094-.373-.171-.206-.352-.374-.404-.374-.052 0-.094.168-.094.374m14.299 8.214c0 4.518.034 6.401.075 4.185.041-2.216.041-5.912 0-8.214-.041-2.302-.075-.489-.075 4.029M88.85 131.446c-.153.286-.198.594-.099.685.098.091.229.024.29-.147.061-.172.19-.265.286-.205.096.059.174-.109.174-.372 0-.629-.303-.611-.651.039m199.031.957c-.417.461-.414.475.086.345.287-.075.521-.291.521-.481 0-.455-.089-.435-.607.136m-148.55 2.185c.309.06.758.057.995-.005.238-.062-.015-.111-.562-.108-.548.002-.743.053-.433.113m-79.343 1.909c0 .052.168.234.373.404.306.254.373.237.373-.094 0-.222-.168-.404-.373-.404s-.373.043-.373.094m52.935.321c-.287.286-.182.581.207.581.205 0 .373-.168.373-.373 0-.389-.294-.494-.58-.208m82.721 2.448c0 .42.114.625.311.56.171-.057.311-.309.311-.56 0-.251-.14-.503-.311-.56-.197-.066-.311.139-.311.56m-47.093.293c-.245.065-.364.261-.284.469.207.539.805.429.762-.14-.02-.274-.041-.485-.046-.469-.006.016-.2.079-.432.14m36.888.453c-.337.406-.256.456.353.223.216-.083.393-.251.393-.374 0-.344-.403-.262-.746.151m-1.633.739c-.41.31-.421.367-.074.374.225.004.473-.16.552-.366.178-.464.126-.465-.478-.008m-64.764.755c.003.548.054.742.114.433.059-.31.057-.758-.006-.996-.062-.238-.111.015-.108.563m-54.164 3.409c.287.315.584.742.659.947.075.207.145.062.156-.326.011-.407-.085-.635-.229-.545-.137.084-.249.047-.249-.083 0-.131-.194-.312-.43-.402-.35-.135-.333-.059.093.409m-22.314 3.312c0 .205.1.373.222.373s.287-.168.366-.373c.087-.228 0-.374-.223-.374-.201 0-.365.168-.365.374m144.527-.002c.078.205.243.31.365.234.352-.217.26-.606-.143-.606-.222 0-.309.146-.222.372m-185.292.919c.154.462.69.538.69.099 0-.217-.177-.394-.394-.394-.217 0-.35.133-.296.295"/><path fill="#4048a8" d="M95.257 103.457c-.231.231.047.588.456.588.21 0 .293-.151.208-.374-.152-.395-.402-.476-.664-.214m54.032.519c.447.056 1.119.055 1.493-.002.374-.057.008-.102-.813-.101-.822.001-1.128.048-.68.103m3.203.442c.079.206.313.374.521.374.307 0 .32-.07.067-.374-.17-.205-.404-.373-.52-.373-.116 0-.146.168-.068.373m-74.583 1.971c0 .216.177.394.394.394.44 0 .363-.536-.098-.69-.163-.054-.296.079-.296.296m-30.616 1.461c0 .635.105.817.47.817.279 0 .42-.129.347-.318-.067-.175-.251-.242-.407-.148-.157.094-.136-.014.047-.239.183-.226.26-.528.172-.67-.319-.517-.629-.243-.629.558m114.978 1.683c-.011.199-.057.557-.102.796-.046.239.015.495.136.57.34.21.585-1.126.265-1.446-.208-.208-.285-.187-.299.08m-72.832 2.228c0 .89.045 1.254.1.809.055-.445.055-1.173 0-1.618-.055-.445-.1-.081-.1.809m5.894-.139c0 .761.112 1.384.249 1.384s.249-.554.249-1.23c0-.677-.112-1.299-.249-1.384-.155-.095-.249.371-.249 1.23m-59.49 1.29c0 .33.068.347.374.094.205-.171.373-.353.373-.404 0-.052-.168-.094-.373-.094-.206 0-.374.182-.374.404m-32.544.716c.002.547.053.742.113.433.059-.31.057-.758-.005-.996s-.111.015-.108.563m.435 1.712c0 .051.168.233.373.404.306.253.373.236.373-.094 0-.222-.168-.404-.373-.404s-.373.042-.373.094m85.688 3.017c.003.548.054.743.113.433.06-.31.057-.758-.005-.996s-.111.016-.108.563m124.442.174c-.351.352-.39.697-.078.697.12 0 .278-.224.35-.497.152-.581.128-.599-.272-.2m171.201.075c.815.466 1.256.46.637-.008-.265-.201-.658-.361-.871-.356-.249.005-.165.136.234.364m-4.255.278c-.289.348-.27.39.136.311.258-.05.515-.231.572-.402.148-.444-.313-.385-.708.091m-180.796.898c-.629.898-.583 27.446.048 27.686.349.133.374.104.125-.148-.431-.433-.391-1.209.062-1.209.327 0 .373-1.562.373-12.562 0-11.065-.044-12.546-.373-12.419-.242.093-.373-.007-.373-.284 0-.256.134-.375.336-.297.238.091.329-.083.311-.595-.03-.869-.023-.867-.509-.172m125.562.069c-.436.464-.489.622-.208.622.207 0 .504-.28.66-.622.156-.343.25-.623.208-.623-.042 0-.339.28-.66.623m51.711-.354c-.521.303-.574.727-.091.727.189 0 .403-.224.474-.498.072-.274.113-.494.091-.49-.021.004-.235.122-.474.261m-138.581.333c0 .217.177.394.394.394.439 0 .363-.536-.099-.69-.162-.054-.295.079-.295.296m-214.918.615c-.075.121.031.359.235.528.308.256.37.219.37-.221 0-.534-.353-.714-.605-.307m288.007.401c-.087.228 0 .374.223.374.201 0 .365-.168.365-.374 0-.205-.1-.373-.222-.373s-.287.168-.366.373m35.187 0c0 .206.182.374.404.374.331 0 .348-.068.094-.374-.171-.205-.352-.373-.404-.373-.052 0-.094.168-.094.373m-308.899 3.858c-.18.338-.183.498-.008.498.141 0 .257-.158.257-.352 0-.194.14-.41.311-.479.235-.094.237-.13.009-.145-.166-.011-.422.205-.569.478m100.617.545c.055.162.232.34.395.394.182.061.237-.053.144-.296-.173-.452-.688-.546-.539-.098m21.599.327c0 .205.181.373.404.373.33 0 .347-.068.094-.373-.171-.206-.353-.374-.404-.374-.052 0-.094.168-.094.374m17.05 3.858c-.1.162 1.454.249 4.48.249 3.027 0 4.581-.087 4.481-.249-.093-.151-1.865-.249-4.481-.249-2.615 0-4.387.098-4.48.249m201.245 0c-.248.16 1.388.241 4.853.241 3.466 0 5.102-.081 4.854-.241-.206-.133-2.384-.242-4.854-.242-2.469 0-4.648.109-4.853.242m-182.95 1.12c0 .205.182.373.404.373.331 0 .348-.067.094-.373-.171-.206-.352-.374-.404-.374-.052 0-.094.168-.094.374m14.299 8.214c0 4.518.034 6.401.075 4.185.041-2.216.041-5.912 0-8.214-.041-2.302-.075-.489-.075 4.029M88.85 131.446c-.153.286-.198.594-.099.685.098.091.229.024.29-.147.061-.172.19-.265.286-.205.096.059.174-.109.174-.372 0-.629-.303-.611-.651.039m199.031.957c-.417.461-.414.475.086.345.287-.075.521-.291.521-.481 0-.455-.089-.435-.607.136m-148.55 2.185c.309.06.758.057.995-.005.238-.062-.015-.111-.562-.108-.548.002-.743.053-.433.113m-79.343 1.909c0 .052.168.234.373.404.306.254.373.237.373-.094 0-.222-.168-.404-.373-.404s-.373.043-.373.094m52.935.321c-.287.286-.182.581.207.581.205 0 .373-.168.373-.373 0-.389-.294-.494-.58-.208m82.721 2.448c0 .42.114.625.311.56.171-.057.311-.309.311-.56 0-.251-.14-.503-.311-.56-.197-.066-.311.139-.311.56m-47.093.293c-.245.065-.364.261-.284.469.207.539.805.429.762-.14-.02-.274-.041-.485-.046-.469-.006.016-.2.079-.432.14m36.888.453c-.337.406-.256.456.353.223.216-.083.393-.251.393-.374 0-.344-.403-.262-.746.151m-1.633.739c-.41.31-.421.367-.074.374.225.004.473-.16.552-.366.178-.464.126-.465-.478-.008m-64.764.755c.003.548.054.742.114.433.059-.31.057-.758-.006-.996-.062-.238-.111.015-.108.563m-54.164 3.409c.287.315.584.742.659.947.075.207.145.062.156-.326.011-.407-.085-.635-.229-.545-.137.084-.249.047-.249-.083 0-.131-.194-.312-.43-.402-.35-.135-.333-.059.093.409m-22.314 3.312c0 .205.1.373.222.373s.287-.168.366-.373c.087-.228 0-.374-.223-.374-.201 0-.365.168-.365.374m144.527-.002c.078.205.243.31.365.234.352-.217.26-.606-.143-.606-.222 0-.309.146-.222.372m-185.292.919c.154.462.69.538.69.099 0-.217-.177-.394-.394-.394-.217 0-.35.133-.296.295"/></g></svg>