<svg xmlns="http://www.w3.org/2000/svg" role="img" viewBox="-6.99 -6.99 415.74 82.74"><title>Nanjing Qinheng Microelectronics Co., Ltd (member) logo</title><path fill="#FAFAFB" d="M291.000000,68.000000 C194.000015,68.000000 97.500023,68.000000 1.000026,68.000000 C1.000017,45.666679 1.000017,23.333363 1.000009,1.000032 C134.333298,1.000021 267.666595,1.000021 400.999939,1.000011 C400.999939,23.333300 400.999939,45.666599 400.999969,67.999954 C364.500000,68.000000 328.000000,68.000000 291.000000,68.000000 M239.474716,21.295626 C239.700531,21.615856 239.926346,21.936087 240.012253,22.925501 C237.151306,27.165539 234.290359,31.405577 230.992172,36.293606 C232.579300,37.618195 234.385803,39.125889 236.192307,40.633579 C236.624222,40.308289 237.056122,39.983002 237.488037,39.657711 C237.488037,46.402573 237.488037,53.147434 237.488037,59.998348 C239.567978,59.998348 241.190689,59.998348 242.727310,59.998348 C243.268677,58.304474 243.751877,56.792633 244.246323,55.191635 C244.246323,55.191635 244.575928,55.061783 244.851837,55.721336 C245.915680,56.970749 246.979507,58.220165 248.043350,59.469578 C248.633850,59.456333 249.224365,59.443089 249.814865,59.429844 C250.935333,54.932816 252.397232,50.484936 253.054138,45.921185 C253.479843,42.963665 254.323837,42.130135 257.261963,43.223248 C257.261963,47.098686 257.261963,50.926159 257.261963,55.374622 C260.371216,53.451420 262.447144,52.167366 264.523102,50.883308 C264.796661,51.261475 265.070221,51.639637 265.343811,52.017799 C263.978302,53.122086 262.612793,54.226372 261.070435,55.473690 C262.327515,57.127045 263.393707,58.529327 264.773926,60.344654 C267.592957,57.703465 270.172943,55.286266 272.686432,52.931358 C274.805328,55.251945 276.779144,57.413589 279.000824,59.846729 C280.608215,57.923420 281.839630,56.450027 283.349640,54.643238 C281.730774,53.171280 279.983978,52.047390 278.899445,50.468578 C277.776428,48.833721 276.414307,46.612873 276.695343,44.900921 C277.631927,39.195900 279.189758,33.586197 280.652924,27.977385 C281.287720,25.543892 282.272308,23.201649 283.417908,19.894314 C279.032501,19.894314 276.004364,19.894314 272.893860,19.894314 C273.323120,16.437752 273.681610,13.550914 274.072083,10.406788 C271.946838,10.132540 270.351471,9.926670 268.810211,9.727782 C267.477081,15.328286 266.220367,20.607817 264.361450,25.335026 C264.361450,21.715696 264.361450,18.096365 264.361450,14.477035 C263.877686,14.159986 263.393890,13.842937 262.910126,13.525887 C261.929474,14.551248 260.483704,15.421704 260.078400,16.638674 C259.487061,18.414179 259.643585,20.438749 259.481293,22.357143 C258.945526,22.334553 258.409729,22.311960 257.873962,22.289370 C257.873962,18.158401 257.873962,14.027431 257.873962,9.471184 C255.717468,9.624981 254.361679,9.721674 252.213074,9.874908 C252.213074,14.349854 252.213074,18.381073 252.213074,22.412289 C251.720337,22.389097 251.227615,22.365908 250.734879,22.342716 C250.635361,20.609964 250.320282,18.856415 250.485031,17.149164 C250.756332,14.337849 249.402466,13.641275 246.597153,13.427070 C246.217575,13.245522 245.837982,13.063974 245.536682,12.184379 C243.967377,11.239203 242.398056,10.294028 240.919235,9.403352 C237.591049,13.230886 234.680771,16.577808 231.590378,20.131855 C232.671341,21.589260 233.685516,22.956627 234.779877,24.432102 C236.432541,23.073864 237.702881,22.029827 239.474716,21.295626 M188.104111,9.387520 C187.738831,9.287098 187.373566,9.186676 186.127640,8.907671 C184.857025,8.968523 183.586395,9.029375 181.951965,9.107651 C181.951965,12.834925 181.951965,16.251230 181.951965,19.795887 C179.688889,19.795887 177.810425,19.795887 175.785950,19.795887 C175.367218,24.977358 174.970673,29.884342 174.542938,35.177269 C176.541229,35.284637 178.243805,35.376118 180.155380,35.478828 C180.468597,32.917198 180.709320,30.948481 181.509872,28.960478 C181.696564,28.963209 181.883270,28.965942 182.090973,29.909716 C182.090973,40.007149 182.090973,50.104580 182.090973,60.337509 C184.292282,60.337509 186.047607,60.337509 188.219971,60.337509 C188.219971,49.126671 188.219971,38.150028 188.219971,27.173386 C188.448959,27.138132 188.677948,27.102877 188.906952,27.067623 C189.450134,28.309351 189.993317,29.551079 190.507065,30.725521 C191.895996,30.354628 192.957993,30.071039 194.511292,29.656254 C194.511292,36.125076 194.511292,42.198551 194.511292,48.351395 C203.463013,48.351395 211.993637,48.351395 220.585205,48.351395 C220.585205,39.136360 220.585205,30.249014 220.585205,21.900715 C209.649490,21.900715 199.008209,21.900715 188.051239,21.900715 C188.051239,17.629412 188.051239,13.816123 188.104111,9.387520 M330.987030,48.099789 C330.654114,47.731915 330.321167,47.364037 329.969513,46.059261 C329.969513,36.121780 329.969513,26.184296 329.969513,15.701709 C323.756531,15.701709 318.039703,15.701709 312.320404,15.701709 C312.188080,13.028502 312.082977,10.905534 311.972504,8.673471 C309.850677,8.673471 307.982361,8.673471 306.063965,8.673471 C305.891327,11.264982 305.742249,13.502487 305.568756,16.106941 C300.015320,16.106941 294.930756,16.106941 289.922607,16.106941 C289.922607,26.602211 289.922607,36.687038 289.922607,47.075130 C295.340210,46.810711 300.493713,46.559181 305.893311,46.295639 C305.893311,49.153507 306.027924,51.155369 305.866638,53.133102 C305.471863,57.973648 307.625977,60.275921 312.463928,60.317303 C316.786621,60.354286 321.110168,60.709118 325.429382,60.647049 C332.837097,60.540604 334.441925,59.001984 335.670258,51.388039 C334.139465,50.473427 332.585236,49.544842 330.987030,48.099789 M112.873184,33.500023 C112.873184,25.213995 112.873184,16.927965 112.873184,8.391403 C110.113487,8.391403 107.882065,8.391403 105.004944,8.391403 C105.004944,15.841235 105.004944,23.042036 105.004944,30.149847 C97.312645,30.149847 90.273293,30.149847 82.856117,30.149847 C82.856117,22.774145 82.856117,15.836185 82.856117,8.525805 C71.652168,7.652455 61.745396,9.460834 52.986755,18.592644 C52.986755,14.410032 52.986755,11.396628 52.986755,8.437663 C50.247921,8.437663 48.166565,8.437663 45.447361,8.437663 C45.447361,19.694801 45.447361,30.657736 45.447361,41.932758 C44.656818,41.509430 44.443699,41.469078 44.372833,41.346493 C42.875675,38.756672 41.422112,36.141350 39.904160,33.563915 C37.292171,29.128857 31.542648,29.218372 28.928465,33.735573 C27.304888,36.541046 25.739162,39.379997 24.147472,42.203926 C23.787569,42.110584 23.427666,42.017242 23.067762,41.923901 C23.067762,30.755651 23.067762,19.587400 23.067762,8.441833 C20.379877,8.441833 18.309015,8.441833 16.161234,8.441833 C16.161234,25.830606 16.161234,42.904392 16.161234,59.750725 C21.655073,61.597561 24.313393,59.335094 26.208435,54.513283 C28.352461,49.057957 31.305262,43.920490 34.521629,37.396935 C37.830765,44.228233 40.887257,49.568344 43.031227,55.252636 C44.950371,60.340820 48.086891,61.137375 53.223343,59.609436 C53.223343,56.740471 53.223343,53.724388 53.223343,49.911339 C61.802513,58.940041 71.736786,60.676701 83.153679,59.832710 C83.153679,52.387001 83.153679,45.326576 83.153679,38.393272 C90.807869,38.393272 97.872841,38.393272 105.419693,38.393272 C105.419693,45.844933 105.419693,52.918156 105.419693,59.835159 C108.153259,59.835159 110.379417,59.835159 112.873161,59.835159 C112.873161,51.120495 112.873161,42.810257 112.873184,33.500023 M351.672302,10.978178 C350.247681,10.978178 348.823059,10.978178 347.373657,10.978178 C347.373657,13.317741 347.373657,15.075381 347.373657,17.516319 C355.087799,17.516319 362.577148,17.516319 371.428009,17.516319 C368.493774,20.301735 366.640411,22.061123 364.813690,23.795195 C363.089386,22.329563 361.730530,21.174543 360.389648,20.034817 C358.676025,21.398439 357.174561,22.593233 355.988800,23.536802 C357.892487,26.140741 359.257629,28.008068 361.076294,30.495697 C353.447601,30.495697 346.865021,30.495697 339.971924,30.495697 C339.971924,32.748711 339.971924,34.786362 339.971924,37.314102 C347.750824,37.314102 355.316864,37.314102 362.768066,37.314102 C365.104797,49.776199 363.738861,52.432648 354.556549,53.465118 C355.254608,55.683941 355.937256,57.853771 356.910675,60.947903 C360.418365,59.777107 365.634338,59.515575 366.446777,57.488861 C368.929810,51.294434 369.719238,44.421097 371.308838,37.167076 C376.098358,37.167076 382.016998,37.167076 387.975189,37.167076 C387.975189,34.683945 387.975189,32.644432 387.975189,30.091528 C381.177460,30.091528 374.736115,30.091528 367.815552,30.091528 C371.727112,25.891678 375.245667,22.376122 378.406067,18.563683 C379.378174,17.391035 380.232605,14.795803 379.619476,13.932109 C378.597229,12.492157 376.379181,11.189386 374.610657,11.115221 C367.298523,10.808581 359.966156,10.984888 351.672302,10.978178 M144.414444,27.774223 C144.485046,36.246704 144.420090,44.724140 144.729813,53.187870 C144.799652,55.096264 145.634460,57.814423 147.038086,58.699818 C155.923187,64.304428 165.438370,58.972454 165.647003,48.440685 C164.787201,48.073036 163.895096,47.671814 162.987656,47.308910 C162.008011,46.917137 161.014038,46.561195 159.974701,46.170208 C158.300430,53.833916 157.724136,54.225460 150.830673,52.307343 C150.830673,43.043114 150.830673,33.642300 150.830673,23.741341 C148.186951,24.699816 144.379456,21.371532 144.414444,27.774223 M210.496063,51.919132 C203.766739,51.919132 197.037399,51.919132 190.058456,51.919132 C190.177109,54.305603 190.263031,56.034039 190.343628,57.655163 C202.181702,57.655163 213.528061,57.655163 225.093933,57.655163 C224.991989,55.541679 224.908081,53.802139 224.817261,51.919128 C220.078827,51.919128 215.785934,51.919128 210.496063,51.919132 M204.512512,17.711235 C210.952698,17.711235 217.392883,17.711235 223.796875,17.711235 C223.796875,15.519190 223.796875,13.659281 223.796875,11.871531 C212.984985,11.871531 202.582947,11.871531 191.988831,11.871531 C191.988831,13.870126 191.988831,15.636773 191.988831,17.711199 C195.952759,17.711199 199.736404,17.711199 204.512512,17.711235 M127.467308,56.948120 C129.660843,51.090069 131.854370,45.232021 134.102631,39.227825 C131.977356,37.928585 130.341812,36.928730 128.879822,36.034973 C126.258179,42.553303 123.804207,48.654751 121.267052,54.963028 C122.462341,56.111282 123.704498,57.460094 125.142403,58.550858 C125.420418,58.761757 126.463646,57.963898 127.467308,56.948120 M139.840149,27.953194 C138.710632,27.729536 137.581116,27.505878 136.554062,27.302509 C135.832260,34.416786 135.119720,41.439888 134.371323,48.816551 C136.007385,49.347912 137.811279,49.933773 140.622177,50.846691 C141.163315,43.245808 141.684113,36.238270 142.096481,29.224356 C142.116974,28.875950 141.194641,28.472113 139.840149,27.953194 M158.181793,28.522329 C160.591003,33.339973 163.000198,38.157619 165.546997,43.250393 C167.446762,41.804619 169.092194,40.552406 170.948837,39.139446 C168.350433,34.278866 165.988525,29.860687 163.533401,25.268129 C161.540131,26.380547 160.108566,27.179482 158.181793,28.522329 M146.669952,10.386359 C145.879074,11.392581 145.088196,12.398804 144.249771,13.465509 C147.978546,16.801580 151.536942,19.985216 155.404388,23.445360 C156.793686,21.634144 158.029526,20.022985 159.403870,18.231266 C156.172607,15.413403 153.382278,12.827724 150.401566,10.484217 C149.623611,9.872569 148.252869,10.014903 146.669952,10.386359 M128.152512,16.248001 C129.931244,17.686964 131.709976,19.125927 133.671082,20.712423 C134.993362,18.975769 136.186157,17.409185 137.608795,15.540751 C134.822098,13.326271 132.249619,11.282008 129.269073,8.913474 C128.760284,11.552432 123.263786,12.172140 128.152512,16.248001 M123.435692,23.856936 C122.637604,25.184906 121.839516,26.512875 121.042412,27.839216 C123.692627,30.038254 126.029144,31.976995 128.538345,34.059025 C129.770737,32.125595 130.802170,30.507427 132.187881,28.333447 C129.225510,26.541996 126.564369,24.932720 123.435692,23.856936 z"/><path fill="#094A92" d="M112.873169,34.000019 C112.873161,42.810257 112.873161,51.120495 112.873161,59.835159 C110.379417,59.835159 108.153259,59.835159 105.419693,59.835159 C105.419693,52.918156 105.419693,45.844933 105.419693,38.393272 C97.872841,38.393272 90.807869,38.393272 83.153679,38.393272 C83.153679,45.326576 83.153679,52.387001 83.153679,59.832710 C71.736786,60.676701 61.802513,58.940041 53.223343,49.911339 C53.223343,53.724388 53.223343,56.740471 53.223343,59.609436 C48.086891,61.137375 44.950371,60.340820 43.031227,55.252636 C40.887257,49.568344 37.830765,44.228233 34.521629,37.396935 C31.305262,43.920490 28.352461,49.057957 26.208435,54.513283 C24.313393,59.335094 21.655073,61.597561 16.161234,59.750725 C16.161234,42.904392 16.161234,25.830606 16.161234,8.441833 C18.309015,8.441833 20.379877,8.441833 23.067762,8.441833 C23.067762,19.587400 23.067762,30.755651 23.067762,41.923901 C23.427666,42.017242 23.787569,42.110584 24.147472,42.203926 C25.739162,39.379997 27.304888,36.541046 28.928465,33.735573 C31.542648,29.218372 37.292171,29.128857 39.904160,33.563915 C41.422112,36.141350 42.875675,38.756672 44.372833,41.346493 C44.443699,41.469078 44.656818,41.509430 45.447361,41.932758 C45.447361,30.657736 45.447361,19.694801 45.447361,8.437663 C48.166565,8.437663 50.247921,8.437663 52.986755,8.437663 C52.986755,11.396628 52.986755,14.410032 52.986755,18.592644 C61.745396,9.460834 71.652168,7.652455 82.856117,8.525805 C82.856117,15.836185 82.856117,22.774145 82.856117,30.149847 C90.273293,30.149847 97.312645,30.149847 105.004944,30.149847 C105.004944,23.042036 105.004944,15.841235 105.004944,8.391403 C107.882065,8.391403 110.113487,8.391403 112.873184,8.391403 C112.873184,16.927965 112.873184,25.213995 112.873169,34.000019 M75.307816,28.509300 C75.307816,24.388893 75.307816,20.268484 75.307816,16.110554 C63.945637,17.021938 56.342331,23.522284 56.038166,32.071728 C55.683800,42.032188 64.403320,50.812355 75.307907,51.918407 C75.307907,44.419842 75.307907,36.963600 75.307816,28.509300 z"/><path fill="#2C2320" d="M331.031036,48.616261 C332.585236,49.544842 334.139465,50.473427 335.670258,51.388039 C334.441925,59.001984 332.837097,60.540604 325.429382,60.647049 C321.110168,60.709118 316.786621,60.354286 312.463928,60.317303 C307.625977,60.275921 305.471863,57.973648 305.866638,53.133102 C306.027924,51.155369 305.893311,49.153507 305.893311,46.295639 C300.493713,46.559181 295.340210,46.810711 289.922607,47.075130 C289.922607,36.687038 289.922607,26.602211 289.922607,16.106941 C294.930756,16.106941 300.015320,16.106941 305.568756,16.106941 C305.742249,13.502487 305.891327,11.264982 306.063965,8.673471 C307.982361,8.673471 309.850677,8.673471 311.972504,8.673471 C312.082977,10.905534 312.188080,13.028502 312.320404,15.701709 C318.039703,15.701709 323.756531,15.701709 329.969513,15.701709 C329.969513,26.184296 329.969513,36.121780 329.542419,46.627495 C323.603790,46.838215 318.092224,46.480701 310.794556,46.007328 C312.341217,49.590843 312.766479,53.180943 314.356812,53.805782 C320.922974,56.385632 327.329041,54.023769 331.031036,48.616261 M317.589905,22.001066 C315.843475,22.001066 314.097046,22.001066 312.462433,22.001066 C312.462433,24.509083 312.462433,26.248262 312.462433,28.033487 C316.184784,28.033487 319.583160,28.033487 323.096191,28.033487 C323.096191,25.988094 323.096191,24.240622 323.096191,22.214533 C321.432922,22.136755 319.982666,22.068941 317.589905,22.001066 M322.455078,40.226288 C322.792755,38.329323 323.130463,36.432354 323.483490,34.449253 C319.194000,34.449253 315.832123,34.449253 312.418152,34.449253 C312.418152,36.492123 312.418152,38.208260 312.418152,40.328823 C315.624359,40.328823 318.551910,40.328823 322.455078,40.226288 M299.619324,34.119068 C294.195007,33.686539 296.337646,37.331978 296.120087,40.029137 C299.528656,40.029137 302.553009,40.029137 305.634033,40.029137 C305.634033,37.984650 305.634033,36.268841 305.634033,34.118786 C303.749237,34.118786 302.135132,34.118786 299.619324,34.119068 M299.560181,28.337749 C301.622711,28.337749 303.685242,28.337749 305.984955,28.337749 C305.854492,25.739452 305.767212,24.001226 305.678467,22.233265 C302.302185,22.233265 299.384369,22.233265 295.937042,22.233265 C296.820557,24.558720 293.759064,27.884426 299.560181,28.337749 z"/><path fill="#2F2522" d="M180.950043,28.979759 C180.709320,30.948481 180.468597,32.917198 180.155380,35.478828 C178.243805,35.376118 176.541229,35.284637 174.542938,35.177269 C174.970673,29.884342 175.367218,24.977358 175.785950,19.795887 C177.810425,19.795887 179.688889,19.795887 181.951965,19.795887 C181.951965,16.251230 181.951965,12.834925 181.951965,9.107651 C183.586395,9.029375 184.857025,8.968523 186.689484,9.203239 C187.464462,9.751690 187.731110,9.919699 188.051239,10.002833 C188.051239,13.816123 188.051239,17.629412 188.051239,21.900715 C199.008209,21.900715 209.649490,21.900715 220.585205,21.900715 C220.585205,30.249014 220.585205,39.136360 220.585205,48.351395 C211.993637,48.351395 203.463013,48.351395 194.511292,48.351395 C194.511292,42.198551 194.511292,36.125076 194.511292,29.656254 C192.957993,30.071039 191.895996,30.354628 190.507065,30.725521 C189.993317,29.551079 189.450134,28.309351 188.906952,27.067623 C188.677948,27.102877 188.448959,27.138132 188.219971,27.173386 C188.219971,38.150028 188.219971,49.126671 188.219971,60.337509 C186.047607,60.337509 184.292282,60.337509 182.090973,60.337509 C182.090973,50.104580 182.090973,40.007149 182.352600,29.169487 C182.782578,26.322760 182.950928,24.216257 183.119263,22.109755 C182.543655,22.057636 181.968048,22.005518 181.392441,21.953400 C181.244980,24.295521 181.097504,26.637640 180.950043,28.979759 M202.727310,26.996054 C201.980164,28.441433 201.233017,29.886812 200.283691,31.723337 C205.841919,31.723337 210.064575,31.723337 214.637253,31.723337 C214.547348,30.039167 214.474075,28.666204 214.384430,26.986717 C210.563278,26.986717 207.120407,26.986717 202.727310,26.996054 M200.799347,39.377327 C201.751038,40.488804 202.551880,42.325474 203.685699,42.561333 C206.071915,43.057713 208.643204,42.570530 211.119598,42.749210 C214.947433,43.025398 215.069778,41.036434 214.246078,37.599144 C209.733109,37.888378 205.346359,38.169521 200.799347,39.377327 z"/><path fill="#322926" d="M264.963654,25.887344 C266.220367,20.607817 267.477081,15.328286 268.810211,9.727782 C270.351471,9.926670 271.946838,10.132540 274.072083,10.406788 C273.681610,13.550914 273.323120,16.437752 272.893860,19.894314 C276.004364,19.894314 279.032501,19.894314 283.417908,19.894314 C282.272308,23.201649 281.287720,25.543892 280.652924,27.977385 C279.189758,33.586197 277.631927,39.195900 276.695343,44.900921 C276.414307,46.612873 277.776428,48.833721 278.899445,50.468578 C279.983978,52.047390 281.730774,53.171280 283.349640,54.643238 C281.839630,56.450027 280.608215,57.923420 279.000824,59.846729 C276.779144,57.413589 274.805328,55.251945 272.686432,52.931358 C270.172943,55.286266 267.592957,57.703465 264.773926,60.344654 C263.393707,58.529327 262.327515,57.127045 261.070435,55.473690 C262.612793,54.226372 263.978302,53.122086 265.343811,52.017799 C265.070221,51.639637 264.796661,51.261475 264.523102,50.883308 C262.447144,52.167366 260.371216,53.451420 257.261963,55.374622 C257.261963,50.926159 257.261963,47.098686 257.261963,43.223248 C254.323837,42.130135 253.479843,42.963665 253.054138,45.921185 C252.397232,50.484936 250.935333,54.932816 249.814865,59.429844 C249.224365,59.443089 248.633850,59.456333 248.043350,59.469578 C246.979507,58.220165 245.915680,56.970749 244.925415,55.029449 C245.971436,49.022156 246.943878,43.706749 247.963272,38.134689 C252.258362,38.134689 257.004852,38.134689 262.170013,38.134689 C262.397797,40.324108 262.614410,42.406044 262.792023,44.112976 C264.678619,45.353031 266.320251,46.432056 268.630066,47.950275 C268.767883,46.073158 268.879700,44.549911 268.932007,42.832848 C268.755737,42.385857 268.579285,42.185165 268.338135,41.656265 C267.949860,40.112709 267.566559,38.949841 267.391632,37.451752 C266.455261,34.261456 265.070190,33.825027 262.542053,35.780807 C257.059448,35.830345 252.030685,35.764893 247.001190,35.333641 C247.004883,33.508751 247.009323,32.049660 247.462494,30.458944 C249.704834,30.312813 251.511047,30.428270 253.289398,30.256044 C256.716766,29.924116 260.128387,29.429558 263.843994,28.894470 C264.415497,27.820118 264.689575,26.853731 264.963654,25.887344 M275.027069,28.317022 C275.173828,24.389597 273.032745,25.561852 270.495636,26.434664 C271.169617,30.028578 271.813202,33.460567 272.456818,36.892555 C272.820831,36.880165 273.184845,36.867771 273.548889,36.855381 C274.016205,34.309532 274.483551,31.763685 275.027069,28.317022 z"/><path fill="#2C221F" d="M352.156738,10.980976 C359.966156,10.984888 367.298523,10.808581 374.610657,11.115221 C376.379181,11.189386 378.597229,12.492157 379.619476,13.932109 C380.232605,14.795803 379.378174,17.391035 378.406067,18.563683 C375.245667,22.376122 371.727112,25.891678 367.815552,30.091528 C374.736115,30.091528 381.177460,30.091528 387.975189,30.091528 C387.975189,32.644432 387.975189,34.683945 387.975189,37.167076 C382.016998,37.167076 376.098358,37.167076 371.308838,37.167076 C369.719238,44.421097 368.929810,51.294434 366.446777,57.488861 C365.634338,59.515575 360.418365,59.777107 356.910675,60.947903 C355.937256,57.853771 355.254608,55.683941 354.556549,53.465118 C363.738861,52.432648 365.104797,49.776199 362.768066,37.314102 C355.316864,37.314102 347.750824,37.314102 339.971924,37.314102 C339.971924,34.786362 339.971924,32.748711 339.971924,30.495697 C346.865021,30.495697 353.447601,30.495697 361.076294,30.495697 C359.257629,28.008068 357.892487,26.140741 355.988800,23.536802 C357.174561,22.593233 358.676025,21.398439 360.389648,20.034817 C361.730530,21.174543 363.089386,22.329563 364.813690,23.795195 C366.640411,22.061123 368.493774,20.301735 371.428009,17.516319 C362.577148,17.516319 355.087799,17.516319 347.373657,17.516319 C347.373657,15.075381 347.373657,13.317741 347.373657,10.978178 C348.823059,10.978178 350.247681,10.978178 352.156738,10.980976 z"/><path fill="#332A27" d="M264.662537,25.611183 C264.689575,26.853731 264.415497,27.820118 263.602295,28.482830 C256.870575,27.881899 250.677994,27.584641 244.007355,27.264435 C243.811020,29.021914 243.373383,30.947567 243.421448,32.861015 C243.609268,40.336369 243.950729,47.807861 244.235062,55.280792 C243.751877,56.792633 243.268677,58.304474 242.727310,59.998348 C241.190689,59.998348 239.567978,59.998348 237.488037,59.998348 C237.488037,53.147434 237.488037,46.402573 237.488037,39.657711 C237.056122,39.983002 236.624222,40.308289 236.192307,40.633579 C234.385803,39.125889 232.579300,37.618195 230.992172,36.293606 C234.290359,31.405577 237.151306,27.165539 240.386337,22.371040 C242.535538,21.816580 244.310669,21.816580 246.036087,21.816580 C246.366272,19.070351 246.674789,16.504435 246.983307,13.938519 C249.402466,13.641275 250.756332,14.337849 250.485031,17.149164 C250.320282,18.856415 250.635361,20.609964 250.734879,22.342716 C251.227615,22.365908 251.720337,22.389097 252.213074,22.412289 C252.213074,18.381073 252.213074,14.349854 252.213074,9.874908 C254.361679,9.721674 255.717468,9.624981 257.873962,9.471184 C257.873962,14.027431 257.873962,18.158401 257.873962,22.289370 C258.409729,22.311960 258.945526,22.334553 259.481293,22.357143 C259.643585,20.438749 259.487061,18.414179 260.078400,16.638674 C260.483704,15.421704 261.929474,14.551248 262.910126,13.525887 C263.393890,13.842937 263.877686,14.159986 264.361450,14.477035 C264.361450,18.096365 264.361450,21.715696 264.662537,25.611183 z"/><path fill="#312725" d="M144.374115,27.307457 C144.379456,21.371532 148.186951,24.699816 150.830673,23.741341 C150.830673,33.642300 150.830673,43.043114 150.830673,52.307343 C157.724136,54.225460 158.300430,53.833916 159.974701,46.170208 C161.014038,46.561195 162.008011,46.917137 162.987656,47.308910 C163.895096,47.671814 164.787201,48.073036 165.647003,48.440685 C165.438370,58.972454 155.923187,64.304428 147.038086,58.699818 C145.634460,57.814423 144.799652,55.096264 144.729813,53.187870 C144.420090,44.724140 144.485046,36.246704 144.374115,27.307457 z"/><path fill="#302623" d="M210.994553,51.919128 C215.785934,51.919128 220.078827,51.919128 224.817261,51.919128 C224.908081,53.802139 224.991989,55.541679 225.093933,57.655163 C213.528061,57.655163 202.181702,57.655163 190.343628,57.655163 C190.263031,56.034039 190.177109,54.305603 190.058456,51.919132 C197.037399,51.919132 203.766739,51.919132 210.994553,51.919128 z"/><path fill="#FCFCFC" d="M244.240692,55.236214 C243.950729,47.807861 243.609268,40.336369 243.421448,32.861015 C243.373383,30.947567 243.811020,29.021914 244.007355,27.264435 C250.677994,27.584641 256.870575,27.881899 263.304871,28.590797 C260.128387,29.429558 256.716766,29.924116 253.289398,30.256044 C251.511047,30.428270 249.704834,30.312813 247.093094,30.349052 C244.293762,33.312214 244.461868,34.544521 247.001938,35.699440 C252.030685,35.764893 257.059448,35.830345 262.887512,35.871201 C264.852295,36.493397 266.017792,37.140182 267.183258,37.786972 C267.566559,38.949841 267.949860,40.112709 268.223328,41.898689 C268.406158,42.690086 268.698853,42.858379 268.991516,43.026665 C268.879700,44.549911 268.767883,46.073158 268.630066,47.950275 C266.320251,46.432056 264.678619,45.353031 262.792023,44.112976 C262.614410,42.406044 262.397797,40.324108 262.170013,38.134689 C257.004852,38.134689 252.258362,38.134689 247.963272,38.134689 C246.943878,43.706749 245.971436,49.022156 244.787476,54.699673 C244.575928,55.061783 244.246323,55.191635 244.240692,55.236214 z"/><path fill="#322926" d="M204.016281,17.711216 C199.736404,17.711199 195.952759,17.711199 191.988831,17.711199 C191.988831,15.636773 191.988831,13.870126 191.988831,11.871531 C202.582947,11.871531 212.984985,11.871531 223.796875,11.871531 C223.796875,13.659281 223.796875,15.519190 223.796875,17.711235 C217.392883,17.711235 210.952698,17.711235 204.016281,17.711216 z"/><path fill="#302724" d="M127.310593,57.289749 C126.463646,57.963898 125.420418,58.761757 125.142403,58.550858 C123.704498,57.460094 122.462341,56.111282 121.267052,54.963028 C123.804207,48.654751 126.258179,42.553303 128.879822,36.034973 C130.341812,36.928730 131.977356,37.928585 134.102631,39.227825 C131.854370,45.232021 129.660843,51.090069 127.310593,57.289749 z"/><path fill="#322926" d="M140.275726,28.023640 C141.194641,28.472113 142.116974,28.875950 142.096481,29.224356 C141.684113,36.238270 141.163315,43.245808 140.622177,50.846691 C137.811279,49.933773 136.007385,49.347912 134.371323,48.816551 C135.119720,41.439888 135.832260,34.416786 136.554062,27.302509 C137.581116,27.505878 138.710632,27.729536 140.275726,28.023640 z"/><path fill="#EBEAEA" d="M331.009033,48.358025 C327.329041,54.023769 320.922974,56.385632 314.356812,53.805782 C312.766479,53.180943 312.341217,49.590843 310.794556,46.007328 C318.092224,46.480701 323.603790,46.838215 329.551819,47.095947 C330.321167,47.364037 330.654114,47.731915 331.009033,48.358025 z"/><path fill="#302724" d="M158.429398,28.250374 C160.108566,27.179482 161.540131,26.380547 163.533401,25.268129 C165.988525,29.860687 168.350433,34.278866 170.948837,39.139446 C169.092194,40.552406 167.446762,41.804619 165.546997,43.250393 C163.000198,38.157619 160.591003,33.339973 158.429398,28.250374 z"/><path fill="#322926" d="M146.912170,10.098656 C148.252869,10.014903 149.623611,9.872569 150.401566,10.484217 C153.382278,12.827724 156.172607,15.413403 159.403870,18.231266 C158.029526,20.022985 156.793686,21.634144 155.404388,23.445360 C151.536942,19.985216 147.978546,16.801580 144.249771,13.465509 C145.088196,12.398804 145.879074,11.392581 146.912170,10.098656 z"/><path fill="#2F2623" d="M238.973221,20.985792 C237.702881,22.029827 236.432541,23.073864 234.779877,24.432102 C233.685516,22.956627 232.671341,21.589260 231.590378,20.131855 C234.680771,16.577808 237.591049,13.230886 240.919235,9.403352 C242.398056,10.294028 243.967377,11.239203 245.249573,12.723742 C242.966064,15.837333 240.969650,18.411562 238.973221,20.985792 z"/><path fill="#342A28" d="M127.844093,16.029654 C123.263786,12.172140 128.760284,11.552432 129.269073,8.913474 C132.249619,11.282008 134.822098,13.326271 137.608795,15.540751 C136.186157,17.409185 134.993362,18.975769 133.671082,20.712423 C131.709976,19.125927 129.931244,17.686964 127.844093,16.029654 z"/><path fill="#362D2A" d="M123.669464,23.590189 C126.564369,24.932720 129.225510,26.541996 132.187881,28.333447 C130.802170,30.507427 129.770737,32.125595 128.538345,34.059025 C126.029144,31.976995 123.692627,30.038254 121.042412,27.839216 C121.839516,26.512875 122.637604,25.184906 123.669464,23.590189 z"/><path fill="#E0DFDE" d="M239.223969,21.140709 C240.969650,18.411562 242.966064,15.837333 245.210449,13.072765 C245.837982,13.063974 246.217575,13.245522 246.790222,13.682795 C246.674789,16.504435 246.366272,19.070351 246.036087,21.816580 C244.310669,21.816580 242.535538,21.816580 240.456299,22.036448 C239.926346,21.936087 239.700531,21.615856 239.223969,21.140709 z"/><path fill="#332927" d="M181.22995 28.970119C181.097504 26.63764 181.24498 24.295521 181.392441 21.9534 181.968048 22.005518 182.543655 22.057636 183.119263 22.109755 182.950928 24.216257 182.782578 26.32276 182.342102 28.698969 181.88327 28.965942 181.696564 28.963209 181.22995 28.970119zM188.077667 9.695177C187.73111 9.919699 187.464462 9.75169 187.129791 9.292532 187.373566 9.186676 187.738831 9.287098 188.077667 9.695177z"/><path fill="#FBFCFD" d="M75.307861,29.008327 C75.307907,36.963600 75.307907,44.419842 75.307907,51.918407 C64.403320,50.812355 55.683800,42.032188 56.038166,32.071728 C56.342331,23.522284 63.945637,17.021938 75.307816,16.110554 C75.307816,20.268484 75.307816,24.388893 75.307861,29.008327 z"/><path fill="#F6F5F5" d="M318.061157,22.001095 C319.982666,22.068941 321.432922,22.136755 323.096191,22.214533 C323.096191,24.240622 323.096191,25.988094 323.096191,28.033487 C319.583160,28.033487 316.184784,28.033487 312.462433,28.033487 C312.462433,26.248262 312.462433,24.509083 312.462433,22.001066 C314.097046,22.001066 315.843475,22.001066 318.061157,22.001095 z"/><path fill="#F2F1F1" d="M321.967285,40.277557 C318.551910,40.328823 315.624359,40.328823 312.418152,40.328823 C312.418152,38.208260 312.418152,36.492123 312.418152,34.449253 C315.832123,34.449253 319.194000,34.449253 323.483490,34.449253 C323.130463,36.432354 322.792755,38.329323 321.967285,40.277557 z"/><path fill="#EFEFEE" d="M300.070160,34.118927 C302.135132,34.118786 303.749237,34.118786 305.634033,34.118786 C305.634033,36.268841 305.634033,37.984650 305.634033,40.029137 C302.553009,40.029137 299.528656,40.029137 296.120087,40.029137 C296.337646,37.331978 294.195007,33.686539 300.070160,34.118927 z"/><path fill="#F4F3F3" d="M299.082642,28.336136 C293.759064,27.884426 296.820557,24.558720 295.937042,22.233265 C299.384369,22.233265 302.302185,22.233265 305.678467,22.233265 C305.767212,24.001226 305.854492,25.739452 305.984955,28.337749 C303.685242,28.337749 301.622711,28.337749 299.082642,28.336136 z"/><path fill="#EEEDED" d="M203.202423,26.991386 C207.120407,26.986717 210.563278,26.986717 214.384430,26.986717 C214.474075,28.666204 214.547348,30.039167 214.637253,31.723337 C210.064575,31.723337 205.841919,31.723337 200.283691,31.723337 C201.233017,29.886812 201.980164,28.441433 203.202423,26.991386 z"/><path fill="#E7E6E6" d="M200.879486,38.913994 C205.346359,38.169521 209.733109,37.888378 214.246078,37.599144 C215.069778,41.036434 214.947433,43.025398 211.119598,42.749210 C208.643204,42.570530 206.071915,43.057713 203.685699,42.561333 C202.551880,42.325474 201.751038,40.488804 200.879486,38.913994 z"/><path fill="#E3E1E1" d="M274.988983,28.767429 C274.483551,31.763685 274.016205,34.309532 273.548889,36.855381 C273.184845,36.867771 272.820831,36.880165 272.456818,36.892555 C271.813202,33.460567 271.169617,30.028578 270.495636,26.434664 C273.032745,25.561852 275.173828,24.389597 274.988983,28.767429 z"/><path fill="#322825" d="M247.001190,35.333641 C244.461868,34.544521 244.293762,33.312214 246.644379,30.480675 C247.009323,32.049660 247.004883,33.508751 247.001190,35.333641 z"/><path fill="#332A27" d="M267.391632 37.451752C266.017792 37.140182 264.852295 36.493397 263.34137 35.756214 265.07019 33.825027 266.455261 34.261456 267.391632 37.451752zM268.932037 42.832848C268.698853 42.858379 268.406158 42.690086 268.228271 42.279373 268.579285 42.185165 268.755737 42.385857 268.932037 42.832848z"/></svg>