<svg xmlns="http://www.w3.org/2000/svg" role="img" viewBox="-9.47 -9.47 492.44 234.94"><title>National University of Singapore (member) logo</title><g id="g8" transform="matrix(1.33333 0 0 -1.33333 0 217.333)"><g id="g10" fill-opacity="1" fill-rule="nonzero" stroke="none" transform="scale(.1)"><path id="path12" fill="#1d427c" d="m 1429.73,684.77 h 32.46 l 73.47,-134.18 h 0.51 v 134.18 h 23.91 V 518.121 h -30.55 l -75.47,137 h -0.47 v -137 h -23.86 z"/><path id="path14" fill="#1d427c" d="m 1607.07,612.191 c 9.06,7.579 22.7,12.34 35.31,12.34 22.46,0 30.12,-10.703 30.12,-31.761 -8.83,0.511 -15.08,0.511 -23.91,0.511 -23.12,0 -56.56,-9.492 -56.56,-40.121 0,-26.398 18.4,-37.961 44.65,-37.961 20.55,0 32.46,11.25 37.73,18.672 h 0.43 V 518.09 h 21.06 c -0.51,3.59 -0.98,10.031 -0.98,23.898 v 50.313 c 0,33.211 -14.06,50.398 -48.9,50.398 -15.55,0 -28.91,-4.73 -40.16,-11.449 z m 65.43,-46.839 c 0,-18.122 -11.72,-31.993 -33.95,-31.993 -10.19,0 -22.65,6.95 -22.65,19.84 0,21.449 30.12,23.36 42.3,23.36 4.73,0 9.5,-0.43 14.3,-0.43 z m 125.08,56.367 h -32.23 v -66.598 c 0,-14.101 8.63,-21.723 18.87,-21.723 6.95,0 11.95,2.153 15.27,4.262 v -19.07 c -5.04,-1.442 -11.95,-3.391 -19.1,-3.391 -23.16,0 -37.46,11.012 -37.46,35.391 v 71.129 h -27.46 v 18.121 h 27.46 v 28.211 l 22.42,7.109 v -35.32 h 32.19 v -18.121 z m 54.92,70.66 h -25.3086 V 667.0704 H 1852.5 Z m -23.91,-174.258 h 22.4609 V 639.879 H 1828.59 Z m 55.36,60.859 c 0,-34.839 25.31,-63.75 62.1,-63.75 36.53,0 61.8,28.911 61.8,63.75 0,37.04 -24.76,63.75 -61.8,63.75 -37.22,0 -62.1,-26.71 -62.1,-63.75 m 23.9,0 c 0,23.168 14.06,45.551 38.2,45.551 23.87,0 37.93,-22.383 37.93,-45.551 0,-21.71 -11.64,-45.621 -37.93,-45.621 -26.48,0 -38.2,23.911 -38.2,45.621 m 130.16,60.86 h 21.68 v -19.328 h 0.47 c 6.72,13.867 22.96,22.218 39.88,22.218 31.48,0 45.62,-19.57 45.62,-52.3 v -72.34 h -22.5 v 63 c 0,28.441 -6.13,42.269 -25.74,43.441 -25.54,0 -36.99,-20.472 -36.99,-50.082 V 518.09 h -22.42 z m 152.73,-27.649 c 9.1,7.579 22.66,12.34 35.31,12.34 22.47,0 30.08,-10.703 30.08,-31.761 -8.79,0.511 -15.04,0.511 -23.86,0.511 -23.09,0 -56.57,-9.492 -56.57,-40.121 0,-26.398 18.4,-37.961 44.65,-37.961 20.51,0 32.46,11.25 37.7,18.672 h 0.47 V 518.09 h 21.01 c -0.47,3.59 -0.94,10.031 -0.94,23.898 v 50.313 c 0,33.211 -14.06,50.398 -48.94,50.398 -15.47,0 -28.87,-4.73 -40.08,-11.449 z m 65.39,-46.839 c 0,-18.122 -11.64,-31.993 -33.9,-31.993 -10.24,0 -22.66,6.95 -22.66,19.84 0,21.449 30.08,23.36 42.27,23.36 4.72,0 9.57,-0.43 14.29,-0.43 z m 63.28,131.796 h 22.4297 V 518.089 H 2319.41 Z m 255,-110.078 c 0,-46.761 -23.63,-71.871 -64.68,-71.871 -41.06,0 -64.73,25.11 -64.73,71.871 v 97.7 h 23.91 v -94.571 c 0,-32 10,-53.91 40.82,-53.91 30.78,0 40.78,21.91 40.78,53.91 v 94.571 h 23.9 z m 40.59,52.77 h 21.72 v -19.328 h 0.47 c 6.72,13.867 22.97,22.218 39.88,22.218 31.48,0 45.63,-19.57 45.63,-52.3 v -72.34 h -22.47 v 63 c 0,28.441 -6.21,42.269 -25.82,43.441 -25.5,0 -36.95,-20.472 -36.95,-50.082 V 518.09 H 2615 Z m 172.62,27.23 h -25.3203 v 25.3086 h 25.3203 z m -23.95,-27.23 h 22.5 V 518.09 h -22.5 z m 117.5,-121.719 h -26.72 l -43.71,121.758 h 24.61 l 32.93,-99.367 h 0.51 l 33.63,99.367 h 22.42 z m 158.75,27.43 c -5.47,-4.531 -22.69,-12.153 -37.46,-12.153 -21.21,0 -40.12,16.481 -40.12,40.582 h 86.88 c 0,39.141 -13.13,68.719 -53.71,68.719 -34.38,0 -57.07,-25.508 -57.07,-61.57 0,-39.609 19.84,-65.93 63.04,-65.93 20.04,0 29.85,4.84 38.44,7.891 z m -77.58,45.148 c 1.64,15.781 10.75,33.871 32.7,33.871 19.3,0 30.27,-15.269 30.27,-33.871 z m 117,49.141 h 20.97 v -18.86 h 0.51 c 5.94,12.692 18.87,21.75 31.72,21.75 6.68,0 10.04,-0.699 14.84,-1.71 v -20.04 c -4.1,1.68 -8.63,2.141 -12.42,2.141 -20.08,0 -33.16,-19.062 -33.16,-49.68 V 518.09 h -22.46 z m 83.78,-97.809 c 8.79,-5.742 21.49,-8.672 27.93,-8.672 10.24,0 22.93,4.301 22.93,17.422 0,22.231 -52.85,20.309 -52.85,54.489 0,25.281 18.91,37.46 43.01,37.46 10.55,0 19.06,-2.14 27.97,-4.761 l -1.91,-19.649 c -5,3.2 -18.4,6.211 -23.64,6.211 -11.48,0 -21.48,-4.761 -21.48,-14.761 0,-24.809 52.73,-17.661 52.73,-56.61 0,-25.969 -20.78,-37.961 -42.5,-37.961 -11.44,0 -23.12,1.211 -33.4,6.711 z m 128.64,125.039 h -25.3125 v 25.3086 h 25.3125 z m -23.87,-27.23 h 22.4609 V 518.09 H 3267.89 Z m 128.16,-18.121 h -32.14 v -66.598 c 0,-14.101 8.55,-21.723 18.82,-21.723 6.96,0 11.92,2.153 15.28,4.262 v -19.07 c -5,-1.442 -11.96,-3.391 -19.06,-3.391 -23.21,0 -37.5,11.012 -37.5,35.391 v 71.129 h -27.47 v 18.121 h 27.47 v 28.211 l 22.46,7.109 v -35.32 h 32.14 z M 3415.2,485.16 c 2.85,-0.98 6.64,-1.922 10.46,-1.922 20.08,0 26.76,27.703 26.76,30.082 0,2.621 -2.85,8.871 -4.33,12.93 l -41.29,113.59 h 24.61 l 32.69,-100.781 h 0.47 l 33.44,100.781 h 22.73 l -44.88,-124.328 c -8.36,-23.403 -17.23,-50.352 -46.84,-50.352 -7.18,0 -11.21,0.891 -15.27,1.641 z M 1419.69,296.84 c 0,-34.852 25.27,-63.719 62.07,-63.719 36.48,0 61.83,28.91 61.83,63.719 0,37.031 -24.88,63.781 -61.83,63.781 -37.23,0 -62.07,-26.75 -62.07,-63.781 m 23.86,0 c 0,23.16 14.07,45.582 38.21,45.582 23.86,0 37.97,-22.422 37.97,-45.582 0,-21.68 -11.72,-45.59 -37.97,-45.59 -26.53,0 -38.21,23.91 -38.21,45.59 m 144.65,42.691 h -28.63 v 18.199 h 28.63 v 11.219 c 0,29.571 7.7,48.942 40.86,48.942 5.71,0 10.47,-0.7 15,-1.481 l -0.9,-18.129 c -2.65,1.02 -7.03,1.449 -10.78,1.449 -19.37,0 -21.72,-12.429 -21.72,-28.91 v -13.121 h 32.27 v -18.168 h -32.27 V 236.02 h -22.46 z m 215.86,38.008 c -12.18,4.762 -18.86,6.91 -31.25,6.91 -13.4,0 -29.18,-4.758 -29.18,-22.179 0,-32.04 71.64,-24.571 71.64,-79.54 0,-35.5 -27.42,-49.64 -60.89,-49.64 -11.65,0 -23.13,3.39 -34.07,6.91 l 2.35,22.23 c 8.08,-3.359 22.42,-8.128 34.61,-8.128 13.63,0 32.73,7.66 32.73,27.269 0,37.18 -71.64,26.91 -71.64,78.711 0,29.688 23.4,45.387 53.52,45.387 10.97,0 24.06,-1.918 35.5,-5.938 z m 68.28,7.383 h -25.3086 v 25.2773 h 25.3086 z m -23.86,-27.223 h 22.4609 V 236.019 H 1848.48 Z m 63.47,0.031 h 21.72 v -19.371 h 0.47 c 6.76,13.911 22.93,22.301 39.88,22.301 31.53,0 45.63,-19.64 45.63,-52.379 v -72.23 h -22.5 v 62.969 c 0,28.402 -6.17,42.191 -25.78,43.402 -25.51,0 -36.96,-20.512 -36.96,-50.082 v -56.289 h -22.46 z m 253.56,0 h -20.78 v -18.199 h -0.51 c -6.68,13.168 -18.56,21.09 -40.04,21.09 -36.84,0 -54.45,-33.473 -54.45,-64.762 0,-31.48 17.15,-59.839 51.99,-59.839 15.55,0 31.33,6.171 40.86,18.82 h 0.47 v -11.949 c 0,-25.782 -14.07,-41.762 -37.74,-41.762 -16.48,0 -26.72,3.051 -43.9,10.98 l -2.43,-20.781 c 19.61,-6.68 30.82,-8.359 43.72,-8.359 43.71,0 62.81,21.211 62.81,58.281 z M 2107.5,254.102 c -21.02,0 -33.91,20.078 -33.91,43.007 0,20.743 11.25,45.313 33.91,45.313 23.87,0 35.55,-21.684 35.55,-46.992 0,-22.7 -14.57,-41.328 -35.55,-41.328 M 2210.62,330 c 9.07,7.66 22.66,12.422 35.32,12.422 22.42,0 30.08,-10.742 30.08,-31.723 -8.79,0.473 -15.04,0.473 -23.87,0.473 -23.17,0 -56.56,-9.57 -56.56,-40.082 0,-26.52 18.36,-38 44.61,-38 20.5,0 32.46,11.25 37.77,18.672 h 0.43 V 236.02 h 21.01 c -0.46,3.55 -0.93,9.921 -0.93,23.859 v 50.351 c 0,33.129 -14.14,50.391 -48.95,50.391 -15.51,0 -28.91,-4.801 -40.12,-11.519 z m 65.4,-46.719 c 0,-18.16 -11.68,-32.031 -33.91,-32.031 -10.27,0 -22.66,6.91 -22.66,19.84 0,21.449 30.08,23.32 42.27,23.32 4.73,0 9.53,-0.461 14.26,-0.461 v -10.668 z m 60.39,-97.461 h 22.46 v 66.84 h 0.47 c 6.91,-11.211 19.1,-19.57 40.58,-19.57 36.8,0 52.27,32.461 52.27,65.93 0,32.66 -17.15,61.601 -52.5,61.601 -21.53,0 -35.35,-11.051 -41.29,-20.109 h -0.51 v 17.218 h -21.48 z m 91.91,111.52 c 0.51,-19.141 -9.49,-46.09 -33.63,-46.09 -25.31,0 -35.82,25.078 -35.82,45.352 0,22.66 11.72,45.82 36.05,45.82 24.3,0 33.91,-23.16 33.4,-45.082 m 45.82,-0.5 c 0,-34.852 25.35,-63.719 62.07,-63.719 36.52,0 61.84,28.91 61.84,63.719 0,37.031 -24.85,63.781 -61.84,63.781 -37.26,0 -62.07,-26.75 -62.07,-63.781 m 23.91,0 c 0,23.16 14.06,45.582 38.2,45.582 23.83,0 37.93,-22.422 37.93,-45.582 0,-21.68 -11.72,-45.59 -37.93,-45.59 -26.52,0 -38.2,23.91 -38.2,45.59 m 130.11,60.89 h 20.98 v -18.902 h 0.47 c 5.98,12.692 18.87,21.793 31.76,21.793 6.64,0 10,-0.742 14.8,-1.711 v -20.082 c -4.06,1.684 -8.55,2.152 -12.38,2.152 -20.08,0 -33.2,-19.07 -33.2,-49.652 V 236.02 h -22.43 z m 186.14,-94.289 c -5.43,-4.531 -22.66,-12.191 -37.42,-12.191 -21.29,0 -40.16,16.48 -40.16,40.59 h 86.91 c 0,39.18 -13.08,68.781 -53.67,68.781 -34.41,0 -57.07,-25.582 -57.07,-61.641 0,-39.57 19.81,-65.859 63.05,-65.859 20.04,0 29.8,4.77 38.36,7.859 z m -77.58,45.11 c 1.68,15.75 10.74,33.871 32.73,33.871 19.34,0 30.32,-15.231 30.32,-33.871 z m 236.05,708.399 c 45.71,-42.18 135.82,-80.622 245.82,-82.341 96.49,-1.64 174.26,27.379 179.07,107.341 10.23,173.09 -433.64,103.83 -416.41,395.98 8.52,146.21 153.71,194.65 310.27,191.95 84.65,-1.4 169.3,-21.44 215.71,-45 l 0.15,-103.83 c -56.6,38.79 -135.54,63.52 -200.86,64.77 -99.37,1.8 -178.24,-16.48 -179.49,-89.1 -2.69,-151.49 445.08,-115.16 427.97,-404.96 -9.61,-163.131 -168.16,-213.17 -334.18,-210.158 -95.47,1.328 -188.94,20.699 -247.85,50.859 z M 2552.89,840.781 c -206.17,0 -324.88,92.578 -324.88,283.089 v 483.55 h 154.57 l 0.08,-483.55 c 0,-118.44 56.83,-190.28 170.23,-190.28 113.36,0 170.27,71.84 170.27,190.28 l 0.04,483.55 h 154.5 v -483.55 c 0,-190.511 -118.72,-283.089 -324.81,-283.089 m -575.98,766.639 v -544.69 l -354.21,506.18 c -16.76,23.32 -44.5,38.51 -75.36,38.51 H 1430.12 V 864.691 h 103 V 1409.73 L 1886.8,905.078 c 16.79,-24.098 44.65,-40.387 76.56,-40.387 h 116.56 V 1607.42 Z M 1252.19,838.75 v 768.59 H 0.078125 V 838.16 C 0.0390625,837.539 0,835.551 0,832.27 0,795.941 7.85156,603.789 162.34,360.43 331.172,94.1016 609.648,11.8008 621.41,8.39844 l 4.211,-1.16797 4.18,1.16797 C 641.641,11.7617 920.98,94.0586 1089.88,360.43 c 168.4,265.308 162.58,469.769 162.31,478.32"/><path id="path16" fill="#ec8023" d="m 586.371,1514.96 c -2.152,0.39 -53.09,9.38 -113.949,9.38 -48.242,0 -91.762,-14.54 -110.902,-21.92 -19.098,7.38 -62.649,21.92 -110.86,21.92 -60.82,0 -111.832,-8.99 -113.941,-9.38 l -6.879,-1.25 v -324.06 l 10.121,2.15 c 0.391,0.11 42.578,9.18 104.648,9.18 46.68,0 95.039,-13.01 114.063,-19.89 l 2.848,-1.01 2.859,1.01 c 19.062,6.88 67.422,19.89 114.141,19.89 61.992,0 104.179,-9.07 104.601,-9.18 l 10.117,-2.15 v 324.06 z"/><path id="path18" fill="#fff" d="m 353.551,1487.42 c -19.289,7.23 -59.063,19.85 -102.531,19.85 -47.071,0 -88.598,-5.67 -104.18,-8.01 v -245.04 c 16.281,2.77 51.359,7.66 98.16,7.66 41.949,0 83.91,-9.61 108.551,-17.19 z m 119.258,19.85 c -44.02,0 -84.329,-12.97 -103.321,-20.12 v -242.77 c 24.532,7.69 66.961,17.46 109.383,17.46 46.789,0 81.828,-4.81 98.117,-7.62 v 245 c -15.578,2.42 -57.109,8.05 -104.179,8.05"/><path id="path20" fill="#1d427c" d="m 193.051,1466.41 c -6.02,-1.64 -9.379,-7.15 -7.539,-12.39 1.867,-5.19 8.238,-8.04 14.258,-6.48 0.308,0.12 31.441,5.58 57.929,5.58 24.102,0 51.051,-10.93 51.36,-11.01 5.863,-1.95 12.421,0.66 14.613,5.74 2.226,5.12 -0.781,10.78 -6.641,12.74 -1.332,0.46 -31.051,12.22 -59.332,12.22 -30,0 -63.289,-6.05 -64.648,-6.4 m 0,-48.68 c -6.02,-1.64 -9.379,-7.14 -7.539,-12.38 1.867,-5.15 8.238,-8.08 14.258,-6.44 0.308,0.04 31.441,5.54 57.929,5.54 24.102,0 51.051,-10.93 51.36,-11.01 5.863,-1.92 12.421,0.66 14.613,5.78 2.226,5.08 -0.781,10.78 -6.641,12.66 -1.332,0.46 -31.051,12.3 -59.332,12.3 -30,0 -63.289,-6.09 -64.648,-6.45 m 0,-48.71 c -6.02,-1.6 -9.379,-7.14 -7.539,-12.3 1.867,-5.2 8.238,-8.17 14.258,-6.52 0.308,0.07 31.441,5.58 57.929,5.58 24.102,0 51.051,-10.94 51.36,-11.01 5.863,-1.96 12.421,0.66 14.613,5.78 2.226,5.11 -0.781,10.74 -6.641,12.65 -1.332,0.43 -31.051,12.31 -59.332,12.31 -30,-0.04 -63.289,-6.06 -64.648,-6.49 m 0,-48.67 c -6.02,-1.64 -9.379,-7.15 -7.539,-12.34 1.867,-5.2 8.238,-8.13 14.258,-6.49 0.308,0.04 31.441,5.63 57.929,5.63 24.102,0 51.051,-11.02 51.36,-11.06 5.863,-1.95 12.421,0.63 14.613,5.75 2.226,5.11 -0.781,10.82 -6.641,12.69 -1.332,0.43 -31.051,12.31 -59.332,12.31 -30,0 -63.289,-6.14 -64.648,-6.49 m 338.668,146.06 c 6.011,-1.64 9.332,-7.15 7.5,-12.39 -1.879,-5.19 -8.199,-8.04 -14.219,-6.48 -0.309,0.12 -31.449,5.58 -57.969,5.58 -24.019,0 -51.011,-10.93 -51.293,-11.01 -5.898,-1.95 -12.457,0.66 -14.648,5.74 -2.18,5.12 0.789,10.78 6.64,12.74 1.29,0.46 31.059,12.22 59.301,12.22 30.078,0 63.278,-6.05 64.688,-6.4 m 0,-48.68 c 6.011,-1.64 9.332,-7.14 7.5,-12.38 -1.879,-5.15 -8.199,-8.08 -14.219,-6.44 -0.309,0.04 -31.449,5.54 -57.969,5.54 -24.019,0 -51.011,-10.93 -51.293,-11.01 -5.898,-1.92 -12.457,0.66 -14.648,5.78 -2.18,5.08 0.789,10.78 6.64,12.66 1.29,0.46 31.059,12.3 59.301,12.3 30.078,0 63.278,-6.09 64.688,-6.45 m 0,-48.71 c 6.011,-1.6 9.332,-7.14 7.5,-12.3 -1.879,-5.2 -8.199,-8.17 -14.219,-6.52 -0.309,0.07 -31.449,5.58 -57.969,5.58 -24.019,0 -51.011,-10.94 -51.293,-11.01 -5.898,-1.96 -12.457,0.66 -14.648,5.78 -2.18,5.11 0.789,10.74 6.64,12.65 1.29,0.43 31.059,12.31 59.301,12.31 30.078,-0.04 63.278,-6.06 64.688,-6.49 m 0,-48.67 c 6.011,-1.64 9.332,-7.15 7.5,-12.34 -1.879,-5.2 -8.199,-8.13 -14.219,-6.49 -0.309,0.04 -31.449,5.63 -57.969,5.63 -24.019,0 -51.011,-11.02 -51.293,-11.06 -5.898,-1.95 -12.457,0.63 -14.648,5.75 -2.18,5.11 0.789,10.82 6.64,12.69 1.29,0.43 31.059,12.31 59.301,12.31 30.078,0 63.278,-6.14 64.688,-6.49"/><path id="path22" fill="#fff" d="M 1064.92,378.121 C 913.238,138.871 661.449,51.6406 626.449,40.4688 591.602,51.6406 340.621,138.871 188.98,378.121 36.9492,617.66 31.4102,809.77 31.4102,835.941 c 0,1.868 0,2.93 0,3.039 v 272.11 H 1222.42 V 839.57 c 0,-0.191 0.08,-1.25 0.08,-3.199 0,-26.922 -5.59,-218.832 -157.58,-458.25"/><path id="path24" fill="#1d427c" d="m 1166.29,890.66 c -6.13,22.391 -17.46,32.352 -32.5,40.32 -41.52,21.989 -95.74,6.559 -143.321,-9.609 -35.86,-12.269 -46.68,-15.941 -87.379,-22.152 -30.711,-4.731 -133.442,-18.047 -165.942,8.832 -4.609,3.859 -9.296,12.301 -9.769,17.687 -0.93,11.172 4.141,24.571 8.051,28.793 8.199,8.989 27.34,13.321 58.48,13.321 l 79.57,-1.211 c 4.961,-6.411 17.692,-16.719 50,-23.59 51.36,-11.02 107.85,6.871 107.85,6.871 0,0 -9.34,1.84 -17.07,7.656 -6.88,5.121 -6.29,12.852 -6.29,12.852 0,0 11.33,-5.43 27.81,-4.961 20.51,0.582 30.12,10.351 49.26,15.23 19.18,4.891 40.55,0.821 40.55,0.821 0,0 -19.38,20.75 -38.64,24.42 -19.1,3.63 -43.04,-1.25 -43.04,-1.25 0,0 6.01,2.69 13.12,9.1 5.74,5.16 6.88,13.98 6.88,13.98 0,0 -22.97,-8.9 -46.25,-7.69 -23.281,1.21 -21.57,9.65 -66.762,10.9 -34.296,0.86 -62.617,-19.5 -74.296,-29.42 -36.641,2.42 -65.512,3.71 -82.422,3.71 -46.559,0 -73.481,-7.61 -89.918,-25.5 -13.711,-14.93 -19.692,-34.258 -17.703,-57.5 1.492,-18.008 9.531,-33.168 23.91,-45.04 43.48,-35.98 160.082,-24.96 201.332,-17.621 46.25,8.161 60.039,11.719 86.789,20.59 l 1.53,0.5 c 20.7,6.961 83.71,27.973 110.15,13.949 5.35,-2.808 9.03,-8.128 11.29,-16.25 1.02,-3.668 1.49,-6.918 1.49,-9.957 0,-5.472 -1.64,-10.043 -5.08,-14.179 -24.06,-29.461 -114.57,-34.492 -153.868,-36.563 -4.301,1.051 -30.582,6.949 -65.473,7.102 -23.359,0.16 -42.93,-1.36 -63.59,-2.891 -37.769,-2.851 -76.84,-5.82 -141.68,1.61 -30.121,3.468 -58.281,8.941 -79.531,15.191 -1.019,8.09 -4.769,15.738 -12.848,24.809 15.579,-5 35.782,12.07 41.481,20.582 -0.082,0.859 -27.621,8.168 -29.301,26.058 0,0.578 19.539,-1.609 27.66,25.231 -19.492,10.55 -13.398,14.449 -22.769,27.621 -8.25,11.597 -20.242,17.457 -35,17.109 5.969,0.777 6.519,0 13.039,3.238 8.48,4.301 14.379,15.942 22.781,15.469 -16.992,26.602 -62.66,30.082 -81.57,24.492 4.89,6.02 12.347,12.77 12.429,21.06 -25.242,-7 -49.929,6.13 -75.39,1.36 -21.102,-3.94 -33.129,-12.5 -39.731,-32.58 h -0.937 c -6.641,20.04 -18.672,28.64 -39.801,32.58 -25.391,4.77 -50.16,-8.36 -75.351,-1.36 0.109,-8.29 7.531,-15.04 12.378,-21.06 -18.91,5.59 -64.527,2.11 -81.558,-24.492 8.469,0.473 14.332,-11.168 22.808,-15.469 7.5,-3.75 8.981,-2.968 13.012,-3.238 -14.691,0.348 -26.719,-5.512 -35,-17.109 -9.422,-13.172 -3.25,-17.071 -22.82,-27.621 8.211,-26.84 27.781,-24.653 27.738,-25.231 -1.68,-17.89 -29.219,-25.199 -29.34,-26.058 5.711,-8.512 25.903,-25.582 41.532,-20.582 -12.782,-14.301 -14.93,-25.239 -12,-39.649 -19.879,15.078 -39.45,31.719 -49.879,45.469 -2.422,3.551 -10.192,29.18 -15.352,46.129 l -4.219,13.832 -2.07,7.34 c -6.211,22.847 -12.23,41.949 -22.621,44.488 -5.699,1.371 -10.777,1.68 -15.348,1.41 -3.59,5.582 -8.59,11.481 -14.41,13.32 -12.031,3.672 -17.851,1.02 -17.851,1.02 0,0 9.718,-7 13.039,-14.18 0.82,-1.84 1.332,-3.64 1.679,-5.199 -2.218,-1.25 -4.179,-2.539 -5.816,-3.91 l -0.863,-0.699 c -1.25,-0.981 -2.93,-2.379 -4.719,-4.02 -0.82,0.27 -1.641,0.469 -2.5,0.539 -12.5,1.641 -17.8205,-1.949 -17.8205,-1.949 0,0 6.7615,-3.32 11.8005,-7.973 -4.34,-6.047 -7.929,-13.789 -7.929,-23.398 0,-0.891 0.078,-1.871 0.199,-2.93 -11.9181,-0.859 -16.3712,-5.191 -16.3712,-5.191 0,0 11.6015,-3.129 17.2302,-8.668 0.621,-0.629 1.172,-1.25 1.641,-1.879 -0.512,-0.621 -0.942,-1.051 -0.942,-1.051 -2.4175,-3.793 -3.4761,-8.09 -3.4761,-12.5 0,-10.43 5.8161,-21.641 13.8671,-29.031 0,0 21.41,-17.692 23.441,-19.371 8.469,-18.949 17.848,-35.547 23.981,-42.539 1.949,-2.379 15,-24.918 28.91,-48.789 1.828,-3.161 3.707,-6.442 5.617,-9.731 2.973,-14.64 6.371,-32.851 7.852,-47.18 2.738,-25.75 0.121,-54.5 0.121,-54.5 0,0 16.719,0.821 24.258,11.68 0.16,0.281 6.172,-17.808 5.312,-38.199 -0.703,-15.121 -4.73,-36.012 -4.73,-36.012 0,0 16.289,8.633 28.519,19.449 6.168,5.43 12.379,14.411 16.168,20.313 13.442,-8.551 51.961,5.16 71.133,12.809 3.758,-7.571 8.91,-16.051 16.02,-25.579 2.808,11.481 15.078,17.258 20.781,26.481 1.719,0.039 3.476,0.039 5.238,0.039 0.699,-12.621 -2.93,-24.449 8.981,-48.051 3.359,-6.68 19.961,-31.398 31.949,-44.019 -4.488,-21.411 -13.16,-60.352 -22.11,-92.231 -10.269,-36.48 -18.589,-54.609 -23.281,-63.039 -13.75,-0.672 -38.82,-1.531 -46.828,-1.172 -19.101,0.93 -33.25,-3.129 -42.031,-11.918 -0.668,-0.621 -1.18,-1.293 -1.719,-1.949 -6.68,-0.941 -14.301,-3.012 -18.441,-7.703 -8.321,-9.41 -8.36,-15.82 -8.36,-15.82 0,0 10.391,6.023 18.282,6.023 0.589,0 1.128,-0.082 1.679,-0.121 v -1.641 c 0.117,-1.84 1.168,-4.8 2.93,-8.48 -1.289,-0.891 -2.422,-1.949 -3.402,-3.16 -7.649,-9.918 -7.219,-16.371 -7.219,-16.371 0,0 9.719,6.562 17.57,7.191 2.461,-3.91 5.199,-7.969 8.129,-11.871 -0.348,-0.399 -0.738,-0.789 -0.98,-1.219 -6.911,-10.539 -5.969,-16.91 -5.969,-16.91 0,0 7.73,6.09 15.039,8.09 2.5,-2.86 4.961,-5.43 7.262,-7.461 11.519,-10.117 40.039,-3.559 76.211,6.051 l 22.418,5.55 c 15.82,2.93 25.628,9.29 32.89,21.129 1.762,2.813 3.289,7.422 5.75,14.77 l 2.07,6.242 c 5,14.07 8.899,23.008 18.821,38.949 0.359,0.469 10.039,16.09 23.25,37.578 11.679,9.692 25.738,20.973 35.969,27.973 15.671,10.5 46.8,26.399 46.8,26.399 0,0 -8.281,13.48 -20.66,15.359 -0.281,0.031 15.738,16.32 29.18,22.101 15.109,6.61 34.64,10.161 34.64,10.161 0,0 -7.101,14.57 -18.082,21.64 4.571,1.52 8.75,4.18 13.942,7.617 26.289,17.153 45.672,16.524 63.988,11.403 0.703,11.84 -2.269,19.148 -12.539,26.019 8.633,3.629 17.582,6.801 27.031,9.02 6.02,-10.27 12.77,-21.641 15.86,-26.008 13.55,-19.223 33.941,-45.672 50.468,-62.23 0.391,-0.391 0.582,-1.172 0.582,-2.223 0,-6.918 -8.429,-26.059 -13.281,-36.957 l -4.097,-9.453 c 0,-0.039 -16.602,-39.059 -21.442,-50.43 -9.648,-0.59 -37.699,-2.109 -47.5,-1.598 -18.64,0.86 -32.43,-3.05 -40.98,-11.562 -1.09,-1.098 -2.032,-2.231 -2.852,-3.328 -6.918,-1.211 -15.238,-3.75 -19.34,-9.02 -7.808,-9.922 -7.5,-16.293 -7.5,-16.293 0,0 10.043,6.563 17.934,7.032 1.207,0.082 2.379,0.039 3.476,-0.04 0.313,-2.07 1.442,-5.07 3.243,-8.589 -1.84,-1.332 -3.481,-2.809 -4.61,-4.61 -6.91,-10.511 -6.011,-16.832 -6.011,-16.832 0,0 9.41,7.422 17.261,8.551 0.27,0.039 0.547,0.039 0.86,0.082 1.879,-2.891 3.949,-5.863 6.019,-8.711 -0.75,-0.742 -1.449,-1.531 -2.031,-2.391 -6.918,-10.539 -6.02,-16.949 -6.02,-16.949 0,0 9.02,7.149 16.719,8.481 2.383,-2.742 4.762,-5.16 6.91,-7.114 11.024,-9.687 34.492,-3.91 66.532,5.313 l 22.769,5.937 c 15.43,2.891 25.039,9.024 32.152,20.622 l 5.969,12.929 c 2.82,6.531 6.059,13.949 8.481,17.781 3.711,5.821 7.621,12.891 11.558,20.469 5.352,4.571 10.352,8.75 13.871,11.481 10.231,7.808 36.129,22.07 36.129,22.07 0,0 -5.148,11.371 -15.738,12.422 -0.16,0.039 10.269,11.637 22.809,18.867 8.871,5.16 26.449,8.199 26.449,8.199 0,0 -12.149,10.282 -21.367,14.344 -3.711,1.559 -8.551,2.648 -13.122,3.469 -0.628,5.238 -3.359,11.14 -8.441,18.949 -9.098,14.102 4.223,44.301 13.75,61.41 4.801,-6.762 13.441,-18.051 27.813,-34.031 0,0 46.128,-50.469 56.328,-61.641 -1.989,-8.039 -8.481,-33.238 -18.668,-61.008 -7.383,-20.199 -17.934,-41.25 -23.321,-51.64 -11.101,-0.629 -36.332,-1.918 -45.55,-1.488 -18.59,0.898 -32.34,-3.012 -40.942,-11.563 -1.437,-1.41 -2.609,-2.93 -3.551,-4.379 -6.289,-1.519 -13.089,-4.14 -16.597,-8.781 -7.621,-10.078 -7.153,-16.488 -7.153,-16.488 0,0 7.582,7.109 17.774,7.379 0.508,0 0.898,-0.04 1.367,-0.04 0.473,-2.14 1.641,-5.07 3.441,-8.468 -1.839,-1.332 -3.441,-2.813 -4.57,-4.532 -6.879,-10.511 -5.98,-16.921 -5.98,-16.921 0,0 9.41,7.5 17.23,8.601 0.27,0.07 0.539,0.07 0.82,0.07 2.461,-3.671 5.071,-7.421 7.731,-10.968 0,-0.043 -0.082,-0.121 -0.16,-0.16 -6.871,-10.512 -5.973,-16.911 -5.973,-16.911 0,0 6.953,5.508 13.902,7.77 2,-2.262 3.989,-4.301 5.79,-5.859 11.011,-9.731 34.601,-3.942 66.71,5.269 l 22.579,5.981 c 15.472,2.847 25.043,9.019 32.113,20.628 3.129,5.149 17.187,37.809 21.058,47.258 6.872,16.992 14.68,34.492 22.3,50.551 3.79,3.242 7.31,6.09 10.16,8.121 12.65,8.75 39.68,24.18 39.68,24.18 0,0 -5.39,11.531 -15.78,12.43 -0.11,0 10.63,10.269 21.33,17.109 9.88,6.359 27.97,9.922 27.97,9.922 0,0 -13.05,9.918 -22.23,13.859 -5.39,2.352 -13.08,3.828 -18.51,4.692 -1.64,7.66 -5.47,10.238 -11.29,13.168 -5.2,2.652 -12.23,6.21 -23.05,18.902 -13.83,16.328 -15.97,47.5 -15.97,78.598 0,6.832 0.15,13.71 0.19,20.39 l 0.08,29.84 c -0.899,35.078 -6.02,59.57 -10.899,75.738 45.739,4.141 129.609,13.403 163.989,55.391 10.27,12.621 15.5,27.391 15.5,43.48 -0.04,7.231 -1.05,14.61 -3.16,22.301"/><path id="path26" fill="#f19320" d="m 838.09,509.02 c 6.051,5.671 9.101,8.71 9.101,12.742 0,3.398 -2.23,7.539 -6.761,14.57 -3.481,5.309 -4.84,11.68 -4.84,18.438 0,22.5 15,49.64 20.93,59.449 -1.68,2.109 -4.141,5.191 -7.071,9.261 -1.597,1.051 -2.969,1.989 -3.789,2.54 -3.82,2.73 -13.672,11.011 -19.801,19.101 -0.859,1.129 -1.718,2.539 -2.66,4.059 -12.687,0.39 -42.258,1.25 -72.769,-8.051 9.41,-5.348 11.601,-12.379 11.992,-21.359 -20.082,4.371 -36.992,4.609 -52.223,2.421 5.313,-9.07 10.781,-18.171 13.321,-21.8 13.281,-18.832 33.199,-44.653 49.179,-60.7 2.571,-2.582 3.75,-6.019 3.75,-10.242 0,-9.918 -6.25,-24.058 -14.027,-41.679 l -4.063,-9.329 -24.218,-56.921 -3.551,-0.188 c -1.61,-0.121 -39.77,-2.461 -52.27,-1.801 -13.59,0.668 -24.019,-1.679 -30.429,-6.679 0.781,-2.582 1.328,-6.012 0.308,-9.223 -1.25,-4.289 -3.898,-6.399 -6.051,-7.5 0.274,-0.66 0.582,-1.289 1.012,-2.027 7.461,2.539 14.61,3.238 14.61,3.238 0,0 4.14,-5.461 2.46,-12.258 -1.32,-5.203 -3.82,-7.934 -5.621,-9.262 0.512,-0.781 1.012,-1.441 1.563,-2.191 8.437,3.441 17.699,4.34 17.699,4.34 0,0 4.367,-6.598 2.93,-13.75 -0.781,-3.867 -2.742,-6.059 -4.531,-7.34 10.23,-3.289 36.601,4.293 53.039,9.062 l 23.871,6.207 c 12.269,2.262 19.101,6.602 24.41,15.313 l 5.32,11.488 c 2.969,6.91 6.36,14.801 9.328,19.41 7.352,11.563 15.672,28.481 23.672,44.84 10.469,21.25 19.539,39.653 26.18,45.821 M 382.66,655.859 c 0.07,-0.269 0,-0.468 0.07,-0.699 h 0.2 c -0.121,0.231 -0.2,0.43 -0.27,0.699"/><path id="path28" fill="#ec8023" d="m 333.52,721.52 c -7.43,-11.129 -20.821,-16.321 -38.168,-18.43 3.277,17.262 0.269,29.14 -6.09,42.851 -5.59,12.071 -20.864,35.821 -25.391,49.258 -1.25,3.821 -2.461,7.34 -3.601,10.699 -24.141,17.543 -50.661,38.903 -63.981,56.563 -3.129,4.18 -7.891,19.059 -17.23,49.687 l -4.18,13.793 -2.149,7.688 c -6.128,22.543 -11.011,34.769 -14.371,36.41 -2.339,0.551 -4.488,0.82 -6.519,0.981 0,0 -1.102,-6.918 -12.699,-6.372 -2.692,0.122 -5,1.012 -6.719,2.032 -1.012,-0.66 -1.992,-1.289 -2.731,-1.989 l -0.98,-0.711 c -0.59,-0.46 -1.133,-0.968 -1.723,-1.441 6.801,-6.168 11.684,-14.141 11.684,-14.141 0,0 -2.582,-7.07 -11.442,-8.668 -6.371,-1.101 -11.332,3.43 -11.332,3.43 0,0 0.082,2.231 -0.82,5.391 -2.656,-5.192 -3.906,-11.25 -2.539,-18.281 8.981,-4.649 16.723,-13.04 16.723,-13.04 0,0 -0.16,-6.64 -9.422,-11.289 -3.469,-1.8 -7.07,-0.742 -9.371,0.348 -1.129,-6.801 2.691,-16.488 9.801,-23.008 l 25,-20.66 0.55,-1.25 c 7.969,-17.93 17.27,-34.73 22.731,-40.941 2.039,-2.27 9.5,-14.961 30.16,-50.59 27.461,-47.219 68.91,-118.59 79.57,-130.43 4.141,-3.859 32.418,2.781 60.309,13.91 -9.918,27.578 -1.289,44.45 -5.07,68.2 m 821.79,166.179 c -5.04,18.59 -13.67,26.25 -26.79,33.242 -37.5,19.879 -88.95,5.079 -134.258,-10.351 C 955.699,897.461 945.078,894.141 904.961,887.969 864.059,881.68 765.16,870.23 730,899.34 c -7.07,5.781 -13.16,16.949 -13.949,25.461 -1.129,14.07 4.808,30.75 11.019,37.5 10.782,11.84 31.41,17.078 66.95,17.078 0,0 53.32,-0.859 82.781,-1.289 l 6.25,5.582 -6.102,6.488 c -36.828,2.418 -65.859,3.75 -82.648,3.75 -43.051,0 -67.461,-6.531 -81.531,-21.84 -11.481,-12.461 -16.399,-28.871 -14.758,-48.75 1.289,-14.84 7.968,-27.379 19.84,-37.191 36.949,-30.578 145.386,-23.469 192.07,-15.149 45.469,7.969 59.027,11.481 85.199,20.149 l 1.481,0.512 c 24.178,8.089 88.358,29.57 119.138,13.199 8.28,-4.371 13.83,-12.031 16.92,-23.36 3.79,-13.781 1.95,-25.031 -5.75,-34.41 -27.34,-33.48 -115.43,-38.199 -162.73,-40.742 l -1.02,-0.039 -0.781,0.191 c -0.309,0.079 -27.77,6.758 -63.75,7 -22.848,0.11 -42.18,-1.371 -62.649,-2.89 -38.281,-2.93 -77.89,-5.899 -143.871,1.601 -29.257,3.399 -56.91,8.707 -78.519,14.918 -1.36,-8.871 -4.879,-18.871 -9.25,-31.91 -4.539,-13.437 -19.731,-37.148 -25.36,-49.258 -6.359,-13.711 -9.371,-25.55 -6.128,-42.89 -17.34,2.179 -30.743,7.34 -38.161,18.469 -5.16,-32.54 13.239,-52.11 -25.472,-104.29 -3.867,15.782 -25.547,20.739 -23.629,38.59 -6.801,-18.55 4.14,-29.3 -11.41,-60.121 -3.91,-7.73 -25.59,-39.719 -37.34,-49.058 -4.77,-22.153 -13.168,-59.493 -21.719,-90.27 -11.801,-41.922 -21.41,-60.902 -26.101,-68.48 l -1.559,-2.582 -2.973,-0.149 c -12.457,-0.672 -41.758,-1.719 -51.008,-1.328 -12.89,0.617 -22.968,-1.371 -29.691,-5.633 0.66,-3.199 0.981,-7.73 -1.019,-11.051 -2.258,-3.988 -5.5,-5.738 -7.18,-6.449 0.23,-0.699 0.621,-1.437 1.051,-2.34 8.32,2.379 16.757,2.582 16.757,2.582 0,0 3.442,-6.992 -0.117,-15.472 -1.441,-3.438 -3.441,-5.16 -4.961,-6.02 0.782,-1.168 1.641,-2.301 2.461,-3.398 8.828,3.871 19.18,4.89 19.18,4.89 0,0 4.019,-5.203 1.41,-15.98 -0.82,-3.32 -2.621,-5.039 -4.18,-5.902 11.637,-3.59 44.411,5.121 62.809,10 l 23.238,5.742 c 12.66,2.347 19.774,6.758 25.282,15.859 1.128,1.801 2.96,7.43 4.601,12.352 0,0 2.188,6.437 2.188,6.476 5.16,14.614 9.461,24.492 19.921,41.211 23.79,38.09 94.18,153.211 97.04,162.461 0.109,0.469 0.109,1.059 0.109,1.719 0,6.141 -2.969,19.57 -5.391,28.133 l -1.519,5.468 241.211,70.5 c -4.571,7.93 -14.02,24.258 -14.02,24.258 l 8.281,7.5 c 0.739,-0.539 18.239,-13.277 27.887,-22.886 8.473,-8.473 16.641,-21.563 25.274,-35.352 l 4.418,-7.031 c 9.761,-15.508 19.332,-26.949 19.449,-27.028 l 0.351,-0.472 0.27,-0.43 c 0.039,-0.117 7.699,-13.398 31.531,-39.957 l 60.43,-66.062 -0.672,-2.969 c -0.109,-0.27 -7.258,-31.051 -19.801,-65.231 -8.238,-22.539 -20.547,-46.558 -25.387,-55.859 l -1.531,-2.891 -3.199,-0.16 c -11.641,-0.699 -39.691,-2.14 -50,-1.711 -12.813,0.621 -22.691,-1.367 -29.223,-5.668 0.903,-3.011 1.723,-7.652 -0.039,-11.293 -1.949,-4.019 -4.879,-6.25 -6.519,-7.297 0.23,-0.511 0.55,-1.062 0.898,-1.64 7.5,2.539 14.723,3.238 14.723,3.238 0,0 3.679,-5.98 2.5,-13.519 -0.852,-5.071 -3.473,-7.34 -5.422,-8.399 0.699,-1.012 1.441,-2.031 2.18,-3 9.101,4.367 20.39,5.5 20.39,5.5 0,0 3.789,-5.23 2.5,-13.391 -0.539,-3.75 -3.121,-6.25 -5.148,-7.781 11.719,-1.398 35.187,5.352 50.347,9.77 l 23.633,6.133 c 12.231,2.269 19.059,6.558 24.449,15.347 2.309,3.75 15.321,33.711 20.239,45.633 14.301,35.117 35.351,79.488 49.061,103.199 l 7.58,11.989 c 4.49,6.679 8.36,12.429 8.01,16.371 -0.47,5.347 -0.78,5.507 -5.63,7.968 -5.7,2.891 -14.29,7.262 -26.6,21.723 -19.691,23.156 -19.019,67.457 -18.48,106.477 l 0.078,29.421 c -1.008,38.629 -7.258,64.411 -12.34,79.219 l -2.347,6.871 7.269,0.629 c 42.19,3.781 130.04,11.602 163.09,51.949 12.42,15.313 15.93,34.493 10.15,55.551"/><path id="path30" fill="#fff" d="m 927.5,1342.34 c 4.961,-6.44 9.102,-13.55 12.191,-21.17 -3.992,-0.58 -8.05,-0.94 -12.191,-0.94 -4.141,0 -8.199,0.32 -12.191,0.86 3.089,7.66 7.269,14.77 12.191,21.25"/><path id="path32" fill="#ec8023" d="m 876.84,1345 c -9.07,6.91 -16.719,15.7 -22.352,25.62 0.16,0 0.313,0.04 0.473,0.04 11.559,0 22.66,-2.42 32.848,-6.68 -4.18,-6.05 -7.848,-12.46 -10.969,-18.98 m -72.461,8.52 c 12.57,-26.68 33.391,-48.36 59.57,-62.23 -0.039,-1.49 -0.16,-2.97 -0.16,-4.45 0,-28.6 8.871,-55.12 23.981,-77.07 -10.309,-4.42 -21.481,-6.76 -32.809,-6.76 -46.211,0 -83.832,37.58 -83.832,83.83 0,27.18 13.09,51.36 33.25,66.68 m 195.701,17.14 0.43,-0.04 c -5.631,-10 -13.28,-18.63 -22.35,-25.54 -3.121,6.64 -6.68,12.93 -10.738,18.87 10.277,4.37 21.367,6.71 32.658,6.71 m -145.119,52.43 c -3.551,0 -7.109,-0.28 -10.621,-0.55 5.308,41.56 40.269,73.01 83.16,73.01 42.621,0 77.85,-32 83.05,-73.21 l -10.51,0.75 c -25.821,0 -50.7,-7.27 -72.38,-20.9 -21.211,13.36 -46.18,20.9 -72.699,20.9 M 991.09,1291.25 c 25.94,13.75 46.88,35.7 59.5,62.34 20.97,-15.82 33.32,-40.11 33.32,-66.75 0,-46.25 -37.62,-83.83 -83.87,-83.83 -11.642,0 -22.739,2.34 -32.81,6.68 15.7,22.69 23.981,49.18 23.981,77.15 z m -74.102,-15.04 10.551,-0.78 c 3.512,0 7.031,0.27 10.512,0.55 -1.41,-11.02 -4.961,-21.49 -10.512,-31.02 -5.469,9.45 -9.141,19.96 -10.551,31.25 m 146.562,131.13 c 0.08,1.45 0.24,2.89 0.24,4.34 0,75.16 -61.13,136.29 -136.251,136.29 -75.16,0 -136.328,-61.13 -136.328,-136.29 l 0.16,-4.38 c -43.172,-22.89 -72.66,-68.28 -72.66,-120.46 0,-75.12 61.09,-136.25 136.25,-136.25 25.937,0 50.898,7.3 72.617,21.01 21.051,-13.28 45.82,-21.01 72.462,-21.01 75.12,0 136.29,61.13 136.29,136.25 0,50.35 -28.44,97.03 -72.78,120.5"/><path id="path34" fill="#fff" d="m 953.398,1277.34 c 7.653,1.49 15.082,3.71 22.262,6.45 -0.461,-24.49 -8.082,-47.62 -22.14,-67.42 -6.18,4.1 -11.719,9.02 -16.571,14.57 9.34,13.9 14.961,29.68 16.449,46.4 M 927.5,1531.91 c 66.719,0 120.98,-54.25 120.98,-120.97 0,-66.76 -54.261,-121.02 -120.98,-121.02 l -11.09,0.78 c 0.391,7.42 1.711,14.65 3.981,21.6 l 7.109,-0.46 c 54.609,0 99.06,44.45 99.06,99.1 0,54.61 -44.451,99.06 -99.06,99.06 -52.031,0 -94.141,-39.18 -98.551,-90.27 -7.738,-1.49 -15.16,-3.75 -22.347,-6.45 1.25,65.63 54.957,118.63 120.898,118.63"/><path id="path36" fill="#fff" d="m 1000.04,1407.07 11.05,-0.82 c -0.43,-7.5 -1.79,-14.73 -4.06,-21.56 l -6.99,0.43 c -14.649,0 -29.06,-3.44 -42.188,-9.65 -5.153,5.9 -10.704,11.41 -16.68,16.29 17.93,10 38.047,15.31 58.868,15.31 M 854.961,1165 c -66.762,0 -121.012,54.34 -121.012,121.02 0,66.71 54.25,121.05 121.012,121.05 47.969,0 90.508,-27.69 110.117,-70.98 -6.527,-3.28 -13.437,-5.82 -20.777,-7.3 -16.371,34.41 -50.821,56.33 -89.34,56.33 -54.652,0 -99.102,-44.46 -99.102,-99.07 0,-54.6 44.45,-99.1 99.102,-99.1 14.73,0 29.219,3.48 42.418,9.77 5.121,-5.86 10.633,-11.37 16.601,-16.25 C 896.051,1170.31 875.82,1165 854.961,1165"/><path id="path38" fill="#fff" d="m 838.121,1368.16 c 7.43,-15.35 18.789,-28.71 32.777,-38.51 -2.5,-7.35 -4.296,-14.88 -5.507,-22.62 -21.129,12.66 -37.77,31.37 -48.012,53.87 6.531,3.24 13.441,5.78 20.742,7.26 M 1000.04,1165 c -66.759,0 -121.02,54.34 -121.02,121.02 0,25.46 7.742,49.41 22.308,69.92 6.133,-4.06 11.723,-8.95 16.563,-14.53 -11.051,-16.37 -16.993,-35.39 -16.993,-55.39 0,-54.57 44.493,-99.07 99.142,-99.07 54.57,0 99.06,44.5 99.06,99.07 0,32.85 -15.94,62.65 -42.65,81.25 2.46,7.26 4.33,14.88 5.54,22.69 36.13,-21.68 59.03,-61.37 59.03,-103.94 0,-66.68 -54.26,-121.02 -120.98,-121.02"/><path id="path40" fill="#ec8023" d="m 523.789,925.59 c 7.191,4.961 24.262,19.18 15.16,36.398 -9.687,18.211 -32,10.782 -38.597,8.09 -0.942,0.942 -50.274,22.383 -50.942,21.992 0.512,0.309 -19.211,-22.808 -19.211,-22.808 0,0 -19.609,23.117 -19.219,22.808 -0.71,0.391 -49.96,-21.05 -50.902,-21.992 -6.637,2.692 -28.906,10.121 -38.598,-8.09 -9.179,-17.218 7.969,-31.398 15.122,-36.398 -0.082,-0.281 -0.153,-0.43 -0.153,-0.43 0,0 -16.097,-28.48 -15.898,-28.129 0.269,0.469 46.48,-55.98 46.48,-55.98 0.039,0.121 -0.121,-36.321 -0.121,-36.481 0,0 18.36,-12.34 19.77,-12.73 2.968,-13.828 3.832,-20.981 7.07,-28.52 1.051,-2.379 18.672,-7.539 35.781,-7.808 h 1.367 c 17.071,0.269 34.762,5.429 35.743,7.808 3.238,7.539 4.14,14.692 7.07,28.52 1.449,0.39 19.687,12.73 19.687,12.73 0.043,-0.039 0,36.41 0.043,36.481 -0.043,0 46.207,56.449 46.438,55.98 0.199,-0.351 -15.899,28.129 -15.899,28.129 0,0 -0.031,0.149 -0.191,0.43"/><path id="path42" fill="#1d427c" d="m 406.91,923.281 -1.519,-24.062 -41.371,23.551 z m 53.52,-24.609 c 0.191,-1.91 6.558,-57.582 6.558,-57.582 0,0 -30.187,-16.36 -31.679,-17.141 -0.039,-1.609 -0.188,-19.219 -0.188,-20.551 1.399,-1.058 6.828,-5.16 12.5,-7.539 10.149,-4.3 20.391,-1.8 20.5,-1.757 l 2.539,0.668 -2.18,-7.622 -0.902,-0.16 c -0.469,-0.109 -11.988,-2.187 -21.367,0.672 -8.09,2.461 -12.34,5.539 -13.481,6.442 h -4.921 c -1.09,-0.821 -5.539,-3.981 -13.789,-6.442 -9.29,-2.859 -20.86,-0.781 -21.29,-0.672 l -0.929,0.16 -2.153,7.622 2.5,-0.668 c 0.153,-0.043 10.352,-2.543 20.582,1.757 5.629,2.379 11.098,6.481 12.43,7.539 0,1.372 -0.039,19.332 -0.039,20.782 -1.25,0.82 -31.601,22.422 -31.601,22.422 0,0 53.628,0.039 56.519,0.078 v 75.308 l 44.691,0.313 5.622,0.039 c 0,0 -38.321,-22.692 -39.922,-23.668"/></g></g></svg>