<svg xmlns="http://www.w3.org/2000/svg" role="img" viewBox="96.49 229.49 598.52 152.52"><title>Nokia (member) logo</title><path fill="#005aff" d="M506.2 245.1V367h19.1V245.1h-19.1zM302.3 243c-37.2 0-66 25.9-66 63s28.9 63 66 63c37.2 0 66.1-24.3 66-63 0-35.2-28.9-63-66-63zm47 63c0 27.5-21 45.7-47 45.7s-47-18.2-47-45.7 21-45.7 47-45.7 47 18.7 47 45.7zm-241.2-64.9v125.8h19.5v-83.2l101.2 87.1v-26.1L108.1 241zM382.7 306l70.8 60.9h28.4l-71-60.9 71-60.9h-28.4L382.7 306zm301.4 60.9h-21l-15.4-27h-69.6l-15.4 27h-21l25.4-45h70.5l-35.1-62.5 10.4-18.3L684 366.9z"/></svg>