<svg xmlns="http://www.w3.org/2000/svg" role="img" viewBox="58.65 32.65 876.20 276.20"><title>NSITEXE, Inc. logo</title><path d="M372.07349 281.94672c2.41647 2.94128 4.60247 5.61312 6.68106 8.15371-1.57349 2.56217-3.60056 1.85681-5.28708 1.85935-33.82282.05093-67.64588.0021-101.46848.1084-3.68374.01156-6.11203-1.18674-8.42196-4.1171-61.0558-77.45462-122.2046-154.83594-183.32011-232.2435-.98536-1.24804-2.4981-2.28122-2.26389-4.24885 1.43283-1.31318 3.1767-.78087 4.75605-.78256 32.15676-.03423 64.3136-.0007 96.47028-.05791 3.1513-.0056 5.66441.4885 7.85465 3.19289 61.54466 75.99183 123.16284 151.92411 184.99948 228.13557zM102 292.03509c-7.49577-.01443-14.49303-.12039-21.48668-.00567-3.64207.05972-4.91437-1.41998-4.90537-5.06741.09204-37.31089.09483-74.62218-.00072-111.93306-.0094-3.66536 1.25543-5.0409 4.89926-5.03113 23.8189.06381 47.6383.05044 71.45704-.0514 3.74185-.01601 4.94658 1.6575 4.94585 5.14275-.0079 37.31089.02272 74.62183.119 111.93256.0103 3.99234-1.87076 5.11682-5.5579 5.0906-16.32285-.11611-32.64688-.06668-49.47048-.07723zM377.16559 102c.01437 21.15947.04144 41.81894.03464 62.4784-.00226 6.76731-.07303 6.83318-6.55957 6.8367-22.99204.01246-45.98493-.10175-68.97544.08253-4.55145.03647-6.03079-1.35814-6.01242-5.96256.1463-36.65336.1253-73.30782-.01092-109.96132-.01569-4.2145 1.53591-5.5002 5.54156-5.48485 23.4914.08996 46.98386.08661 70.47492-.05567 4.50875-.0273 5.6366 1.94855 5.59039 6.0833-.16934 15.15957-.07727 30.32207-.08316 45.98347zm84.26324 31.78618c4.78818 2.8355 6.92017 7.52284 9.8844 11.45271 11.43198 15.15633 22.6329 30.48685 33.94516 45.73374.75241 1.01414 1.27652 2.35314 2.89581 2.62544 1.06907-1.86032.5137-3.8848.51975-5.79718.05148-16.32262.01123-32.64553.03479-48.9683.00354-2.44102-.50162-5.25894 3.52289-5.11235 3.72217.1356 3.08362 2.82575 3.0877 5.0283.0398 21.31951.05744 42.63925-.02685 63.9585-.00763 1.92362 1.12238 4.64603-1.9618 5.45096-2.90572.75841-4.98098-.44932-6.7824-2.90536-13.1973-17.99286-26.501-35.9077-39.77728-53.8426-.77799-1.05096-1.60962-2.06217-2.6464-3.38558-1.46136 1.83078-.99447 3.67227-.9974 5.3455-.0289 16.4892.02539 32.97864-.03882 49.46764-.00775 1.99709.71503 4.67851-2.31131 5.33444-4.18414.9069-5.09894-1.43698-5.08112-5.10116.08838-18.15453.03653-36.30973.03565-54.4647-.00016-3.33117.1987-6.67608-.0387-9.99-.2919-4.07533 1.51685-5.46619 5.73593-4.83zm416.91461 16.27434c.00232 4.3199.16529 8.16053-.04058 11.9813-.18604 3.45307 1.0938 4.75046 4.60034 4.66572 7.4928-.18111 14.99353-.06633 22.4906-.01642 1.79944.01197 3.65979-.34146 5.65161.65226 1.09491 4.01041-.03986 6.05362-4.71454 5.96276-7.66046-.1489-15.33203.18802-22.98859-.03493-4.00457-.11656-5.27319 1.38751-5.1059 5.24583.24513 5.65413.3443 11.34449-.01781 16.9858-.302 4.70497 1.07959 6.48338 6.05816 6.28844 9.48206-.37134 18.99005-.17331 28.48505-.04825 2.04858.02699 5.19073-1.11028 5.33124 2.64282.13 3.47267-2.427 3.84195-5.1532 3.83662-12.32898-.02406-24.6587-.0927-36.98639.03179-3.75781.03796-4.97388-1.67702-4.96765-5.14441.03839-21.49222-.0011-42.98458.0069-64.47688.00097-2.61278.14123-5.03125 3.87439-5.00036 13.4934.11177 26.98797.08355 40.48205.1325.46515.00169.92932.26268 1.5337.44493 1.32732 4.28622-.08009 6.14044-4.67988 6.06062-8.99414-.1561-17.99286-.05067-26.98968-.05215-6.8504-.00113-6.85053-.00019-6.86768 6.85484-.00207.83308-.00146 1.66615-.00214 2.98717zm-124.3012 51.62317c8.4862.00303 16.4793-.03103 24.47162.03755 1.88409.01616 4.38452-.47803 4.47363 2.56297.08746 2.98833-1.76886 3.95769-4.542 3.94794-12.65515-.04447-25.31085-.06763-37.96563.01227-3.3186.02095-4.8255-1.15871-4.81201-4.66338.08404-21.8135.09985-43.62773-.01227-65.44096-.0185-3.59618 1.47974-4.55135 4.77978-4.52222 12.48786.11027 24.97724.03451 37.46607.0499 2.1911.0027 4.49182-.16312 4.35803 3.19792-.12225 3.07104-2.1402 3.35983-4.46503 3.35997-9.49151.0005-18.9931.25956-28.47033-.1091-4.97382-.19348-6.39313 1.59251-6.06543 6.29709.35785 5.13702.26623 10.3276.01434 15.47743-.18591 3.80037 1.33978 4.92181 4.96216 4.81982 7.15442-.20137 14.32379-.19592 21.47626.04413 2.39428.08034 6.39813-1.72617 6.44256 3.02995.04657 4.98644-4.12036 3.32169-6.7132 3.41745-6.6524.2458-13.3316.37885-19.9749.04906-4.67274-.23195-6.67634 1.0642-6.29426 6.06537.40472 5.2979.40942 10.67387.00934 15.97198-.378 5.00579 1.21857 7.22355 6.3761 6.42489 1.3009-.20144 2.6596-.02982 4.48517-.03003zM547.6294 169.53525c-11.39338-5.98749-15.35169-13.02329-13.03638-22.75447 2.06695-8.6874 8.9201-13.39524 20.53027-14.0239 6.5141-.35272 12.94617.35042 19.31635 1.7081 6.1452 1.30975 6.14685 1.302 4.14282 7.69214-3.50531.42632-6.68054-1.35025-9.995-2.09757-5.62756-1.26887-11.2694-1.3378-16.86438-.56268-4.9104.68033-8.79046 3.30934-9.9746 8.51798-1.17133 5.15232 1.10229 9.01713 5.12505 12.0723 3.65326 2.77454 7.92097 4.18664 12.20283 5.55834 5.07348 1.6253 10.1455 3.22428 14.71826 6.07502 7.15783 4.46228 9.71551 11.26812 9.13714 19.21168-.59881 8.22592-4.95831 13.91978-13.02832 16.51244-11.42035 3.66902-22.7298 1.66217-33.95685-.82184-4.89764-1.08362-1.13403-4.92098-2.565-7.57286 4.60987-.79108 7.90454 1.20996 11.35547 1.98153 6.05145 1.35302 12.0766 2.35965 18.28424 1.68969 6.77783-.7315 10.68793-3.95736 12.1117-9.94375 1.34405-5.65123-1.08881-11.73184-6.9311-14.64503-6.52429-3.25325-13.4746-5.65204-20.5725-8.59712zm295.4068 31.41858c-6.10578-8.70226-11.99543-17.11621-17.83442-25.45772-2.80182 1.04143-3.60608 3.18439-4.82263 4.89114-5.89404 8.2689-11.81293 16.52268-17.53888 24.90753-2.1872 3.20285-4.74567 3.72895-8.0227 2.44356-.61957-2.14311.91174-3.24685 1.82232-4.54787 7.06378-10.09202 14.0404-20.24983 21.34131-30.16845 2.30835-3.13602 2.086-5.32811-.09753-8.34152-6.05475-8.356-11.80317-16.93413-17.66034-25.43297-.92456-1.3415-2.11463-2.56748-2.2718-4.6898 3.99305-1.71544 7.0785-1.3363 9.7082 2.57427 5.64319 8.39173 11.52539 16.62273 17.72491 25.51519 6.36597-8.88501 12.4253-17.15416 18.25696-25.58086 2.10913-3.04753 4.3971-4.32666 7.90643-2.69316.50507 2.18915-1.01898 3.47847-2.03411 4.922-5.74567 8.1704-11.36005 16.44313-17.39844 24.39286-2.47962 3.26464-2.28656 5.54924.01166 8.73671 7.10662 9.85645 13.93188 19.91643 20.80877 29.93695 1.0791 1.57245 2.87543 2.92125 2.27747 5.28257-6.7475 2.97857-9.13288-2.1262-12.17719-6.69043zm-157.1756-13.95401c-.00006-14.1423-.11829-27.78629.07086-41.426.05737-4.13869-1.38166-5.59788-5.48694-5.42148-5.97809.2569-11.9757.0601-17.96503.0512-2.47522-.00368-4.78564-.173-4.6983-3.59967.0866-3.40102 2.60773-2.90938 4.67224-2.9139 18.46692-.04033 36.93402-.03262 55.40106-.01779 1.3072.00105 2.68176-.16022 4.00519.9087.71118 3.86576-.8277 5.73342-4.9956 5.6649-6.154-.10114-12.3186.16-18.46381-.09348-3.9389-.16246-5.17096 1.25044-5.13849 5.16765.15881 19.13118.0852 38.26454.02887 57.39692-.0055 1.86142.72015 4.12749-1.78388 5.2055-2.99652 1.29006-5.4959-.34196-5.59423-3.95322-.1493-5.4862-.0473-10.97925-.05194-16.96933zm-84.76026-49.64228c.19135-3.42828 2.09107-3.80609 4.53705-3.63728 2.6388.1821 2.68182 2.00565 2.68243 3.88954.00678 22.26789-.01464 44.53578.02387 66.8036.00452 2.61817-.78174 4.00075-3.70014 3.94604-3.0252-.0567-3.57757-1.85746-3.5877-4.2373-.03186-7.47787-.04975-14.95586-.04523-22.4338.00891-14.62364.03656-29.24727.08972-44.3308zm51.67713 35.92614c-6.4519.01908-12.42383.0342-18.39563.01484-2.18561-.00708-4.47773.14492-4.59192-3.08111-.11206-3.16521 1.98932-3.39336 4.294-3.3952 6.13764-.00493 12.27545-.01449 18.41278.03301 1.67243.01293 3.44239.06609 3.69678 2.3768.2464 2.23768-.10907 4.03441-3.41601 4.05166z"/></svg>