<svg xmlns="http://www.w3.org/2000/svg" role="img" xmlns:xlink="http://www.w3.org/1999/xlink" viewBox="-0.37 -3.12 291.98 112.73"><title>NTLAB, UAB (member) logo</title><defs><linearGradient id="a" x1="35.041" x2="70.291" y1="37.394" y2="73.295" gradientUnits="userSpaceOnUse"><stop offset="0" stop-color="#267fb7"/><stop offset=".301" stop-color="#257db5"/><stop offset=".409" stop-color="#2476ae"/><stop offset=".487" stop-color="#216aa2"/><stop offset=".542" stop-color="#1e5c94"/><stop offset=".594" stop-color="#1c528a"/><stop offset=".727" stop-color="#183e76"/><stop offset=".732" stop-color="#183e76"/></linearGradient><linearGradient id="b" x1="12.776" x2="37.777" y1="70.258" y2="95.719" xlink:href="#a"/><linearGradient id="c" x1="15.478" x2="37.048" y1="17.592" y2="39.56" xlink:href="#a"/><linearGradient id="d" x1="35.803" x2="52.974" y1="1.72" y2="19.208" xlink:href="#a"/></defs><path fill="#1a3f76" d="M118.08695 39.53559c-2.67029-.02148-4.33582.15228-4.15479 3.604.30426 5.80042.08331 11.62781.08331 18.19604-10.20862-7.09076-19.65375-13.65381-29.10242-20.21179-1.6441-1.14117-3.25909-2.29694-5.43634-1.1178-2.09174 1.13287-2.30267 3.03009-2.30389 5.05225-.00494 8.02734.13995 16.05853-.07776 24.08008-.08746 3.22229 1.5575 3.36823 3.96954 3.32184 2.38403-.04584 4.61835.36151 4.44464-3.33997-.25977-5.5354-.06744-11.09155-.06744-17.62592 10.08051 6.93793 19.29169 13.25391 28.47083 19.61517 1.80206 1.24884 3.55017 2.57843 5.87549 1.521 2.61505-1.18921 2.47351-3.57947 2.46771-5.91071-.01971-7.86346-.16907-15.73193.07281-23.5882.10596-3.4422-1.61218-3.57483-4.2417-3.59601z"/><path fill="#0b629c" d="M286.12353 57.96937c-.23029-5.6001-3.08548-8.7915-8.7474-8.94537-4.63263-.12592-9.28551-.01349-13.89825.06537-3.68263.06296-6.84916-.16182-6.84916-.16182s0-3.17254.07408-6.25969c.07982-3.32657-1.59283-3.22107-3.93378-3.23962-2.40723-.0191-4.21344.07373-3.97522 3.30975.25226 3.42554.05664 6.88342.05756 10.32721.00085 3.27972-.06653 6.56116.01569 9.83887.14624 5.83185 3.32147 9.28119 9.12708 9.46942 6.45056.20911 12.91827.20831 19.36914.00604 5.83362-.18292 8.62429-3.60303 8.76486-9.49109.03912-1.63898.06274-3.28192-.00458-4.91907zm-14.355 9.15417c-3.46576.00067-6.93976-.14496-10.39508.04401-3.30511.18079-4.71246-.8446-4.73511-4.396-.0556-8.72876-.21765-8.72778 10.77429-8.72784 1.48535 0 2.9707-.00104 4.45605.00012q6.65118.00519 6.65509 6.3642.00409 6.71417-6.75525 6.71552zm-25.71637-9.3584c-.18884-5.33405-3.37006-8.59741-8.71069-8.72241-6.62299-.15503-13.25507-.15125-19.87836-.00269-5.40027.12115-8.55121 3.33124-8.82056 8.63855-.09137 1.80054-.073 3.61072-.0144 5.41364.19153 5.89618 3.27374 9.07678 9.24359 9.29932 4.13586.15417 8.28229.02966 12.42395.02966v.01648c4.14172 0 8.2879-.11591 12.42346.0423 2.5957.09924 3.54108-.80768 3.41779-3.3963-.17932-3.76569.04871-7.54913-.08478-11.31854zm-18.55024 9.35901c-1.32562.00012-2.65125.00012-3.97681.00012-6.94043-.00012-6.66968-.01331-7.01733-7.04767-.23291-4.71198 1.21264-6.02973 6.11664-6.10553 4.85543-.07505 6.1161.0722 10.92651.02374 3.32018-.03345 4.77966.86975 4.86792 4.39502.21869 8.73749.35944 8.73407-10.91693 8.73431z"/><path fill="#1b4077" d="M165.80985 45.11396c2.05841.0506 3.4743-.13245 3.42413-2.80035-.05048-2.67926-1.79041-2.25757-3.3797-2.26306-6.28027-.02185-12.56067-.00897-18.841-.00861-6.6109.00037-13.22198.02856-19.83258-.01794-1.82605-.01288-2.66486.56714-2.65955 2.53424.00525 1.95709.81653 2.58667 2.66321 2.54883 3.30402-.06769 6.6213-.02943 9.90936-.08575 2.92344-.05008 5.6705.12193 5.6705.12193s.16589 2.60445.12357 5.31398c-.09432 6.03846.02106 12.10864-.17139 18.15912-.09735 3.06036.60992 4.26868 4.06519 4.25995 3.53485-.00897 4.49359-1.05853 4.35919-4.45184-.25891-6.53754.09351-13.09845-.15308-19.63696-.05869-1.55657-.1234-3.64425-.1234-3.64425"/><path fill="#1c4178" d="M203.75534 67.16712c-6.2771.05579-12.55548-.02655-18.83264.02942-3.51605.03137-5.10089-1.48749-5.02991-5.0506.12714-6.37866-.08313-12.76489.09503-19.14117.07843-2.80481-.83997-3.7533-3.67133-3.60248-2.46478.13129-4.46381-.14294-4.32794 3.44708.25958 6.86243-.00177 13.74237.10254 20.61285.08441 5.5592 3.25891 8.7049 8.96277 8.93414 3.62848.14587 7.26776.02728 10.90216.03339 3.96484.00616 7.92975-.00543 11.89453.01154 1.72632.00739 3.24298.08356 3.31787-2.42279.07928-2.65601-1.35162-2.86975-3.41309-2.85138z"/><path fill="#fdfdfe" d="M271.86868 54.04383c-1.48535-.00116-2.9707-.00012-4.45605-.00012-10.99194.00006-10.8299-.00092-10.77429 8.72784.02264 3.55139 1.42999 4.57678 4.73511 4.396 3.45532-.18896 6.92932-.04333 10.39508-.04401q6.75928-.00128 6.75525-6.71552-.00391-6.35876-6.65509-6.3642z"/><path fill="#aeaeaf" d="M27.60049 104.20467H6.95303c-.82861 0-1.5-.67139-1.5-1.5V80.04012c0-.82861.67139-1.5 1.5-1.5h19.14746V50.8995H7.88418c-.82422 0-1.49365-.66455-1.5-1.48877l-.1499-19.95264a1.49955 1.49955 0 0 1 .43555-1.06787c.28125-.28369.66455-.44336 1.06445-.44336h19.86621c.82861 0 1.5.67139 1.5 1.5V47.8995h29.76367c.82861 0 1.5.67139 1.5 1.5v30.64062c0 .82861-.67139 1.5-1.5 1.5H29.10049v21.16455c0 .82861-.67139 1.5-1.5 1.5zm-19.14746-3h17.64746V81.54012H8.45303v19.66455zm20.64746-22.66455h28.26367V50.8995H29.10049v27.64062zM9.37295 47.89949h16.72754V30.94685H9.24551l.12744 16.95264z"/><rect width="31.904" height="31.904" x="37.148" y="39.835" fill="url(#a)" rx="2.937" ry="2.937" style="isolation:isolate"/><rect width="23.127" height="23.127" x="14.021" y="71.739" fill="url(#b)" rx="2.937" ry="2.937" style="isolation:isolate"/><rect width="20.19" height="20.19" x="16.433" y="18.752" fill="url(#c)" rx="2.937" ry="2.937" style="isolation:isolate"/><rect width="16.217" height="16.217" x="36.491" y="2.571" fill="url(#d)" rx="2.585" ry="2.585" style="isolation:isolate"/></svg>