<svg xmlns="http://www.w3.org/2000/svg" role="img" viewBox="-8.25 -8.00 416.00 157.75"><title>NTLAB, UAB logo</title><g fill-rule="evenodd" stroke="none"><path fill="#246fa9" d="M51.892.115c.148.147-8.739 9.063-8.922 8.95-.075-.047-.137.04-.137.193 0 .178-.089.243-.25.182-.272-.105-.334 3.238-.103 5.56l.108 1.083.146-.75c.093-.471.176-.632.223-.434.081.335 14.71-14.097 14.71-14.512 0-.108.168-.23.375-.269.206-.04-1.119-.083-2.945-.095-1.825-.013-3.268.029-3.205.092m-27.559 21.92c.513.151.543.188.25.307-.216.087-.246.139-.084.146.137.007-2.145 2.407-5.072 5.335s-5.399 5.309-5.494 5.292c-.095-.017-.221.231-.281.552-.084.451-.114.489-.133.166-.013-.229-.097-.529-.186-.666-.238-.369-.215 6.572.025 7.416.104.367.217.59.251.495.034-.095 4.183-4.292 9.221-9.326 6.122-6.119 9.093-9.198 8.957-9.284-.125-.079-.022-.131.265-.132.257-.002.425-.072.372-.157-.052-.084.037-.188.199-.23.161-.043-1.769-.079-4.29-.081-3.406-.003-4.433.04-4 .167m33.834 29.793c-.317.105-.137.149.75.183.817.032.967.065.5.111-.61.061-1.268.378-.784.378.11 0 .2.075.2.167 0 .091-.112.166-.25.166-.137 0-.25.079-.25.175 0 .095-.184.358-.409.583-.225.225-.487.409-.583.409-.096 0-.174.08-.174.179 0 .194-.411.654-.584.654-.059 0-.214.107-.345.238-.131.131-.238.287-.238.346 0 .139-.444.583-.583.583-.139 0-.584.444-.584.583 0 .139-.444.584-.583.584-.139 0-.583.444-.583.583 0 .173-.461.583-.655.583-.098 0-.179.079-.179.175 0 .095-.184.358-.409.583-.225.225-.487.409-.583.409-.096 0-.174.08-.174.179 0 .194-.411.654-.584.654-.059 0-.214.107-.345.238-.131.131-.238.287-.238.346s-.107.214-.238.345c-.131.131-.286.238-.345.238s-.215.107-.346.238c-.131.131-.238.286-.238.345 0 .173-.46.584-.654.584-.099 0-.179.078-.179.174 0 .096-.184.358-.409.583-.225.225-.488.409-.583.409-.096 0-.175.079-.175.175 0 .226-.766.992-.992.992-.096 0-.174.08-.174.179 0 .194-.411.654-.584.654-.059 0-.214.107-.345.238-.131.131-.238.287-.238.346s-.107.214-.238.345c-.131.131-.286.238-.345.238-.139 0-.584.444-.584.583 0 .407-.749.723-.889.375-.047-.114-.09-.025-.098.199-.012.394-.02.396-.257.083-.217-.287-.243.206-.231 4.343.014 4.526.202 9.852.3 8.5.057-.785.294-1.796.322-1.375.03.446.853.164.853-.291 0-.173.461-.584.655-.584.098 0 .179-.078.179-.174 0-.226.766-.992.992-.992.096 0 .174-.081.174-.179 0-.194.411-.655.584-.655.139 0 .583-.444.583-.583 0-.139.444-.583.583-.583.139 0 .584-.445.584-.584 0-.139.444-.583.583-.583.139 0 .583-.444.583-.583 0-.173.461-.584.655-.584.098 0 .179-.078.179-.174 0-.226.766-.992.992-.992.096 0 .174-.081.174-.179 0-.194.411-.655.584-.655.139 0 .583-.444.583-.583 0-.139.444-.583.583-.583.139 0 .584-.445.584-.584 0-.139.444-.583.583-.583.139 0 .583-.444.583-.583 0-.173.461-.584.655-.584.098 0 .179-.078.179-.174 0-.226.766-.992.992-.992.096 0 .174-.081.174-.179 0-.194.411-.655.584-.655.139 0 .583-.444.583-.583 0-.139.444-.583.583-.583.139 0 .584-.445.584-.584 0-.139.444-.583.583-.583.139 0 .583-.444.583-.583 0-.173.461-.584.655-.584.098 0 .179-.078.179-.174 0-.226.766-.992.992-.992.096 0 .174-.081.174-.179 0-.194.411-.655.584-.655.139 0 .583-.444.583-.583 0-.139.444-.583.583-.583.139 0 .584-.445.584-.584 0-.173.46-.583.654-.583.099 0 .179-.078.179-.174 0-.096.184-.359.409-.584.225-.225.488-.409.583-.409.096 0 .175-.078.175-.174 0-.226.766-.992.992-.992.096 0 .174-.081.174-.179 0-.194.411-.655.584-.655.139 0 .583-.444.583-.583 0-.139.444-.583.583-.583.173 0 .584-.461.584-.655 0-.098.075-.179.166-.179.092 0 .167-.15.167-.333 0-.183.09-.333.2-.333.151 0 .149-.051-.008-.209-.245-.245-11.821-.366-12.525-.13M24.833 98.629c-.491.064-.531.097-.25.212.271.11.224.14-.25.16-.321.014-.489.063-.375.109.348.141.032.89-.375.89-.139 0-.583.444-.583.583 0 .173-.461.584-.655.584-.098 0-.178.078-.178.174 0 .226-.767.992-.993.992-.096 0-.174.079-.174.175 0 .226-.766.992-.992.992-.096 0-.175.08-.175.179 0 .194-.41.654-.583.654-.139 0-.583.445-.583.584 0 .139-.445.583-.584.583-.139 0-.583.444-.583.583 0 .173-.461.584-.655.584-.098 0-.178.078-.178.174 0 .226-.767.992-.993.992-.096 0-.174.079-.174.175 0 .226-.766.992-.992.992-.096 0-.175.104-.175.231 0 .126-.144.268-.32.314-.197.051-.348.268-.392.561-.07.468-.072.467-.096-.064-.014-.298-.1-.542-.192-.542-.239 0-.217 6.899.025 7.75.104.367.217.587.252.49.035-.097 4.185-4.293 9.223-9.326 6.147-6.14 9.092-9.192 8.955-9.279-.135-.086-.084-.131.15-.132.195-.002.448-.115.562-.253.205-.248-5.942-.345-7.667-.121"/><path fill="#9ca4ac" d="M4.434 35.622c1.256.053 1.365.087 1.542.476.243.533.253 3.344.013 3.492-.098.061-.14.212-.092.335.065.169-.151.241-.864.287-.522.034.888.056 3.134.05l4.083-.012v-4.667l-4.583-.009c-2.521-.005-3.976.017-3.233.048m23.733 22.711v5.5l-9.792.001c-11.167.001-12.529.058-12.494.523.013.17.087.31.166.31.078 0 .118.749.089 1.665-.043 1.358-.007 1.684.197 1.768.203.083.187.129-.083.24-.183.075 4.673.142 10.792.148l11.125.012v29.167h4.166l.006-14.292c.004-11.62.046-14.346.226-14.583.186-.245.526-.296 2.12-.317 1.044-.014 1.691-.056 1.437-.095-.567-.085-.435-.375.18-.393.246-.007.354-.051.24-.097-.323-.13-.293-3.223.031-3.223.137 0 .229-.143.215-.334-.023-.3-.145-.333-1.216-.333-.654 0-1.651-.048-2.214-.107l-1.025-.107V52.833h-4.166v5.5m13.229 7.917c0 1.008.028 1.399.061.869.033-.531.033-1.356-.001-1.833-.034-.478-.061-.044-.06.964m31.937 34.733c0 .095.094.137.209.093.163-.063.198.74.16 3.755-.039 3.161-.089 3.836-.281 3.836-.129 0-.289.087-.355.195-.079.126-.033.161.129.099.151-.058.249 0 .249.145 0 .133-.1.203-.222.156-.122-.046-.222-.012-.222.077 0 .088-.073.161-.161.161-.089 0-.121-.131-.07-.292.087-.277.08-.277-.148-.001-.223.271-1.039.294-11.773.334l-11.533.042-.002 1.834c0 1.008.004 1.927.01 2.041.021.416 24.772.291 24.772-.125 0-.183-.096-.333-.214-.333-.158 0-.22-.408-.236-1.542-.012-.848-.034-1.757-.05-2.021-.015-.264.071-.579.192-.7.378-.378.226-7.797-.162-7.872-.16-.031-.292.022-.292.118M4.635 111.375c-.028 1.031-.025 1.969.008 2.083.045.159.965.209 3.875.209h3.815V109.5H4.687l-.052 1.875m23.585 22.042l.03 4-11.167-.05c-10.673-.048-13.689.027-12.5.308.275.066.402.128.281.139-.169.015-.21.468-.181 2.019l.037 2h12.057c12.019 0 12.507-.021 11.843-.513-.072-.053-.129-2.528-.127-5.5.003-2.972-.065-5.628-.15-5.903-.102-.332-.144.845-.123 3.5"/><path fill="#0d639c" d="M58.042.118c-.207.039-.375.161-.375.269 0 .415-14.629 14.847-14.71 14.512-.048-.199-.124-.051-.205.398-.259 1.425-.335.398-.43-5.768l-.097-6.279-.023 8.286c-.02 7.075.012 8.321.221 8.529.134.135.244.475.244.756 0 .282.075.512.166.512.092 0 .167.113.167.25 0 .138.095.25.21.25.116 0 .352.188.524.417.172.229.452.417.623.417.17 0 .31.075.31.166 0 .109 3.166.167 9.166.167S63 22.942 63 22.833c0-.091.188-.166.417-.166.229 0 .416-.081.416-.179 0-.231.424-.655.655-.655.098 0 .179-.112.179-.25 0-.137.075-.25.166-.25.092 0 .167-.142.167-.315 0-.174.112-.359.25-.412.218-.083.25-1.249.25-9.089 0-7.772-.034-9.027-.25-9.243-.138-.138-.252-.349-.255-.47-.006-.256-.393-.804-.567-.804-.172 0-.595-.449-.595-.632 0-.304-4.502-.499-5.791-.25M32.623 21.949c-.162.042-.251.146-.199.23.053.085-.115.155-.372.157-.287.001-.39.053-.265.132.136.086-2.835 3.165-8.957 9.284-5.038 5.034-9.188 9.231-9.223 9.326-.035.095-.142-.091-.237-.411-.13-.438-.177.61-.188 4.208-.01 3.093.044 4.792.151 4.792.092 0 .167.187.167.416 0 .23.08.417.179.417.194 0 .654.41.654.583 0 .29.54.584 1.072.584.327 0 .595.075.595.166 0 .11 4.222.167 12.333.167s12.334-.057 12.334-.167c0-.091.23-.166.512-.166.51 0 .988-.317.988-.655 0-.098.08-.179.178-.179.335 0 .655-.475.655-.97 0-.285.106-.535.25-.59.219-.084.25-1.619.25-12.423 0-10.734-.032-12.358-.25-12.576-.138-.138-.25-.373-.25-.524 0-.269-.374-.75-.583-.75-.173 0-.584-.461-.584-.655 0-.098-.187-.178-.416-.178-.229 0-.417-.075-.417-.167 0-.166-7.756-.213-8.377-.051m72.191 29.033c-.011.056-.011.158 0 .226.01.069-.281.125-.647.125-.367 0-.667.075-.667.167 0 .092-.15.167-.333.167-.184 0-.334.075-.334.166 0 .092-.112.167-.25.167-.137 0-.25.08-.25.179 0 .194-.41.654-.583.654s-.583.461-.583.655c0 .098-.075.179-.167.179-.092 0-.167.187-.167.416 0 .26-.094.417-.25.417-.174 0-.25.176-.25.583 0 .321-.075.584-.167.584-.111 0-.153 7.265-.125 21.708l.042 21.708 5.968.044c5.017.037 6.007.006 6.209-.196.205-.206.24-2.346.24-14.813V69.546l.417.08c.229.044.416.183.416.31s.113.231.25.231c.138 0 .25.075.25.166 0 .092.107.167.238.167s.517.262.857.583c.34.321.758.584.929.584.17 0 .31.08.31.178 0 .281.446.655.782.655.168 0 .446.188.618.417.172.229.436.416.586.416.15 0 .382.15.514.334.132.183.336.333.453.333.117 0 .213.112.213.25 0 .139.148.25.334.25.183 0 .333.075.333.167 0 .091.112.166.25.166s.25.075.25.167c0 .092.15.167.333.167.186 0 .334.111.334.25 0 .137.112.25.25.25.137 0 .25.075.25.166 0 .092.116.167.258.167.142 0 .431.188.644.417.212.229.509.416.658.416.15 0 .273.075.273.167 0 .092.112.167.25.167s.25.085.25.19c0 .243.508.631.835.638.139.003.393.193.565.422.173.229.436.416.587.416.15 0 .381.15.513.334.132.183.411.333.62.333.209 0 .38.08.38.179 0 .23.424.654.655.654.098 0 .178.075.178.167 0 .092.192.167.427.167.234 0 .388.061.342.137-.125.201.515.696.9.696.182 0 .331.08.331.179 0 .274.443.654.761.654.157 0 .509.263.783.584.275.32.605.583.735.583s.438.188.685.417c.247.229.544.416.66.416.115 0 .21.075.21.167 0 .092.112.167.25.167.137 0 .25.075.25.166 0 .092.15.167.333.167.185 0 .333.111.333.25 0 .138.113.25.25.25.138 0 .25.075.25.167 0 .091.15.166.334.166.183 0 .333.075.333.167 0 .092.112.167.25.167.137 0 .25.085.25.19 0 .256.515.631.875.638.16.003.292.09.292.195 0 .243.508.631.835.638.139.003.393.193.565.422.172.229.436.417.586.417.15 0 .382.15.514.333.132.183.328.333.435.333.108 0 .239.113.292.25.052.138.21.25.351.25.14 0 .255.075.255.167 0 .092.112.167.25.167.137 0 .25.075.25.166 0 .092.15.167.333.167.186 0 .334.111.334.25 0 .138.112.25.25.25.137 0 .25.075.25.167 0 .091.15.166.333.166.183 0 .333.075.333.167 0 .092.113.167.25.167.138 0 .25.112.25.25 0 .137.132.252.292.255.32.006.875.372.875.578 0 .206.555.572.875.578.16.003.292.08.292.172 0 .092.117.167.26.167.142 0 .216.069.164.154-.053.085.074.209.282.274.207.066.498.259.647.429.148.17.429.309.625.309.204 0 .355.106.355.25 0 .138.096.25.213.25.117 0 .322.15.454.334.132.183.411.333.62.333.209 0 .38.08.38.179 0 .27.44.654.75.654.309 0 .75.385.75.655 0 .098.169.179.377.179.207 0 .517.187.69.416.172.23.436.417.586.417.15 0 .381.15.513.333.132.184.337.334.454.334.117 0 .213.056.214.125.002.264 1.056.708 1.679.708.359 0 .653.075.653.167 0 .095.5.166 1.167.166s1.167-.071 1.167-.166c0-.092.337-.167.75-.167.412 0 .75-.075.75-.167 0-.091.109-.166.242-.166s.43-.188.659-.417c.229-.229.463-.417.52-.417.169 0 .579-.463.579-.654 0-.099.075-.179.166-.179.092 0 .167-.187.167-.417 0-.259.094-.416.25-.416.139 0 .25-.148.25-.334 0-.183.075-.333.167-.333.091 0 .166-.375.166-.833 0-.459.075-.834.167-.834.294 0 .223-42.967-.071-43.262-.198-.197-1.262-.238-6.25-.238h-6.012v15.334c0 8.433-.041 15.333-.092 15.333-.05 0-.265-.187-.477-.417-.212-.229-.546-.416-.742-.416-.196 0-.356-.081-.356-.179 0-.268-.44-.655-.746-.655-.148 0-.457-.187-.686-.416-.229-.229-.494-.417-.589-.417-.096 0-.416-.244-.713-.542-.297-.298-.647-.566-.778-.596-.131-.029-.263-.123-.294-.208-.03-.085-.161-.154-.291-.154-.13 0-.236-.075-.236-.167 0-.091-.15-.166-.334-.166-.185 0-.333-.111-.333-.25 0-.138-.113-.25-.25-.25-.138 0-.25-.075-.25-.167 0-.092-.15-.167-.333-.167-.184 0-.334-.075-.334-.166 0-.092-.112-.167-.25-.167-.137 0-.25-.113-.25-.25 0-.139-.148-.25-.333-.25-.183 0-.333-.075-.333-.167 0-.091-.113-.166-.25-.166-.138 0-.25-.081-.25-.179 0-.268-.44-.655-.746-.655-.148 0-.457-.187-.686-.416-.229-.229-.509-.417-.622-.417-.114 0-.314-.15-.446-.333-.132-.184-.412-.334-.62-.334-.209 0-.38-.08-.38-.178 0-.231-.424-.655-.655-.655-.098 0-.179-.075-.179-.167 0-.091-.15-.166-.333-.166-.185 0-.333-.111-.333-.25 0-.138-.113-.25-.25-.25-.138 0-.25-.075-.25-.167 0-.092-.15-.167-.334-.167-.183 0-.333-.075-.333-.166 0-.092-.113-.167-.25-.167-.138 0-.25-.113-.25-.25 0-.139-.148-.25-.333-.25-.184 0-.334-.075-.334-.167 0-.091-.112-.166-.25-.166-.137 0-.25-.117-.25-.26 0-.143-.067-.219-.149-.168-.082.051-.192-.02-.245-.157-.052-.137-.23-.249-.394-.249-.165 0-.44-.187-.612-.416-.172-.229-.436-.417-.586-.417-.15 0-.382-.15-.514-.333-.132-.184-.304-.334-.382-.334-.078 0-.246-.093-.374-.208-.551-.495-.74-.625-.903-.625-.096 0-.174-.075-.174-.167 0-.091-.116-.166-.258-.166-.142 0-.432-.188-.644-.417-.212-.229-.514-.417-.671-.417-.278 0-.76-.37-.76-.583 0-.232-.495-.583-.822-.583-.19 0-.345-.086-.345-.19 0-.231-.501-.631-.799-.638-.119-.003-.404-.193-.633-.422-.229-.229-.509-.417-.622-.417-.113 0-.314-.15-.446-.333-.132-.184-.336-.334-.453-.334-.118 0-.214-.07-.214-.155 0-.086-.168-.209-.375-.274-.206-.065-.496-.258-.644-.428-.148-.17-.43-.309-.625-.309-.196 0-.356-.081-.356-.179 0-.27-.44-.655-.75-.655-.309 0-.75-.384-.75-.654 0-.099-.112-.179-.25-.179-.137 0-.25-.075-.25-.167 0-.091-.132-.166-.293-.166-.162 0-.435-.188-.607-.417-.172-.229-.453-.417-.623-.417-.171 0-.31-.075-.31-.166 0-.092-.112-.167-.25-.167s-.25-.113-.25-.25c0-.139-.148-.25-.333-.25-.184 0-.334-.075-.334-.167 0-.091-.094-.166-.21-.166-.116 0-.351-.188-.523-.417-.173-.229-.436-.417-.587-.417-.15 0-.381-.15-.513-.333-.132-.183-.411-.333-.62-.333-.209 0-.38-.081-.38-.179 0-.231-.424-.655-.655-.655-.098 0-.178-.075-.178-.166 0-.092-.15-.167-.334-.167-.185 0-.333-.111-.333-.25 0-.138-.112-.25-.25-.25s-.25-.075-.25-.167c0-.091-.116-.166-.258-.166-.142 0-.432-.188-.644-.417-.212-.229-.509-.417-.659-.417-.15 0-.272-.075-.272-.166 0-.092-.113-.167-.25-.167-.138 0-.25-.113-.25-.25 0-.139-.148-.25-.334-.25-.183 0-.333-.075-.333-.167 0-.091-.112-.166-.25-.166s-.25-.075-.25-.167c0-.092-.338-.167-.75-.167-.567 0-.75-.063-.75-.258 0-.26-2.636-.351-2.686-.093M236 70.5c0 13 .056 19.667.167 19.667.091 0 .166.262.166.583 0 .321.075.583.167.583.092 0 .167.153.167.339 0 .186.112.382.25.434.137.053.25.276.25.495 0 .22.075.399.166.399.092 0 .167.15.167.333 0 .186.111.334.25.334.137 0 .25.112.25.25 0 .137.075.25.167.25.091 0 .166.115.166.257 0 .295 1.709 2.076 1.993 2.076.103 0 .349.15.546.333.197.184.493.334.659.334.166 0 .302.112.302.25 0 .137.113.25.25.25.138 0 .25.075.25.166 0 .092.263.167.584.167.407 0 .583.075.583.25 0 .156.157.25.417.25.229 0 .416.075.416.167 0 .091.413.166.917.166s.917.075.917.167c0 .11 6.861.167 20.25.167h20.25V95.25c0-3.37-.035-3.917-.25-3.917-.138 0-.25-.075-.25-.166 0-.11-5.917-.167-17.417-.167-11.274 0-17.417-.058-17.417-.163 0-.09-.187-.211-.416-.269-.229-.057-.417-.171-.417-.253 0-.081-.155-.148-.345-.148-.327 0-.822-.352-.822-.584 0-.173-.46-.583-.654-.583-.099 0-.179-.187-.179-.417 0-.229-.075-.416-.167-.416-.091 0-.166-.15-.166-.334 0-.185-.111-.333-.25-.333-.221 0-.25-2.111-.25-17.998 0-16.79-.02-18.021-.287-18.333-.277-.324-.483-.336-5.834-.336H236V70.5m110.111-19.556c-.188.188-.132 38.889.056 38.889.091 0 .166.263.166.584 0 .407.076.583.25.583.175 0 .25.176.25.583 0 .321.075.584.167.584.092 0 .167.15.167.333 0 .183.075.333.166.333.092 0 .167.113.167.25 0 .138.113.25.25.25.139 0 .25.148.25.334 0 .183.075.333.167.333.091 0 .166.08.166.179 0 .23.424.654.655.654.098 0 .179.085.179.189 0 .2.828.977 1.041.978.069 0 .125.08.125.179 0 .281.446.654.782.654.168 0 .447.188.619.417.172.229.452.417.623.417.17 0 .31.075.31.166 0 .092.155.167.345.167.19 0 .458.112.595.25.138.138.432.25.655.25.223 0 .405.075.405.167 0 .092.444.166 1 .166.555 0 1 .074 1 .167 0 .11 5.611.167 16.5.167s16.5-.057 16.5-.167c0-.092.412-.167.916-.167s.917-.075.917-.166c0-.092.182-.167.405-.167.222 0 .517-.112.655-.25.137-.138.405-.25.595-.25.19 0 .345-.075.345-.167 0-.091.095-.166.21-.166.116 0 .412-.188.659-.417.248-.229.571-.417.719-.417.305 0 .745-.386.745-.654 0-.099.079-.179.175-.179.226 0 .992-.766.992-.992 0-.096.08-.175.179-.175.27 0 .654-.44.654-.75 0-.309.385-.75.655-.75.098 0 .179-.187.179-.416 0-.229.075-.417.166-.417.092 0 .167-.187.167-.417 0-.229.075-.416.167-.416.091 0 .166-.118.166-.262 0-.144.106-.368.235-.497.575-.574.628-17.564.057-17.982-.16-.117-.292-.336-.292-.486 0-.15-.075-.273-.166-.273-.092 0-.167-.188-.167-.417 0-.229-.075-.417-.167-.417-.091 0-.166-.187-.166-.416 0-.229-.081-.417-.179-.417-.27 0-.655-.441-.655-.75s-.384-.75-.654-.75c-.099 0-.179-.085-.179-.189 0-.199-.829-.977-1.042-.977-.068-.001-.125-.081-.125-.179 0-.269-.44-.655-.745-.655-.149 0-.457-.187-.686-.417-.23-.229-.526-.416-.66-.416-.133 0-.242-.075-.242-.167 0-.092-.187-.167-.417-.167-.229 0-.416-.075-.416-.166 0-.092-.263-.167-.584-.167-.407 0-.583-.075-.583-.25 0-.185-.194-.25-.75-.25-.413 0-.75-.075-.75-.167 0-.11-5.472-.166-16.083-.166h-16.084l-.003-6.542-.002-6.542-.396-.375c-.395-.374-10.964-.62-11.321-.264m-276.028.844c.504.071 1.004.379.617.379-.11 0-.2.15-.2.333 0 .183-.075.333-.167.333-.091 0-.166.081-.166.179 0 .194-.411.655-.584.655-.139 0-.583.444-.583.583 0 .139-.444.583-.583.583-.173 0-.584.461-.584.655 0 .098-.078.179-.174.179-.226 0-.992.766-.992.992 0 .096-.079.174-.175.174-.226 0-.992.767-.992.993 0 .096-.08.174-.179.174-.194 0-.654.41-.654.583 0 .139-.445.584-.584.584-.139 0-.583.444-.583.583 0 .059-.107.214-.238.345-.131.131-.286.238-.345.238-.173 0-.584.461-.584.655 0 .098-.078.179-.174.179-.096 0-.358.184-.583.409-.225.225-.409.487-.409.583 0 .096-.081.174-.179.174-.194 0-.655.411-.655.584 0 .139-.444.583-.583.583-.139 0-.583.444-.583.583 0 .139-.445.584-.584.584-.139 0-.583.444-.583.583 0 .059-.107.214-.238.345-.131.131-.286.238-.345.238-.173 0-.584.461-.584.655 0 .098-.078.179-.174.179-.096 0-.358.184-.583.409-.225.225-.409.487-.409.583 0 .096-.081.174-.179.174-.194 0-.655.411-.655.584 0 .139-.444.583-.583.583-.139 0-.583.444-.583.583 0 .139-.445.584-.584.584-.059 0-.214.107-.345.238-.131.131-.238.286-.238.345s-.107.214-.238.345c-.131.131-.286.238-.345.238-.173 0-.584.461-.584.655 0 .098-.078.179-.174.179-.096 0-.358.184-.583.409-.225.225-.409.487-.409.583 0 .096-.081.174-.179.174-.194 0-.655.411-.655.584 0 .139-.444.583-.583.583-.059 0-.214.107-.345.238-.131.131-.238.286-.238.345 0 .139-.445.584-.584.584-.059 0-.214.107-.345.238-.131.131-.238.286-.238.345 0 .139-.444.583-.583.583-.173 0-.584.461-.584.655 0 .098-.078.179-.174.179-.226 0-.992.766-.992.992 0 .096-.081.174-.179.174-.194 0-.655.411-.655.584 0 .455-.823.737-.853.291-.031-.468-.272.646-.294 1.361-.01.359-.075.598-.143.529-.068-.068-.167-6.061-.22-13.319-.085-11.561-.095-10.637-.085 7.457.01 16.366.055 20.667.22 20.722.115.039.209.294.209.568 0 .499.319.974.654.974.099 0 .179.08.179.179 0 .294.452.654.821.654.19 0 .346.075.346.167 0 .11 7.361.167 21.75.167s21.75-.057 21.75-.167c0-.092.155-.167.345-.167.369 0 .821-.36.821-.654 0-.099.113-.179.25-.179.156 0 .25-.157.25-.417 0-.229.075-.416.167-.416.11 0 .167-7.361.167-21.75s-.057-21.75-.167-21.75c-.092 0-.167-.188-.167-.417 0-.229-.08-.417-.178-.417-.231 0-.655-.424-.655-.654 0-.099-.187-.179-.417-.179-.229 0-.416-.075-.416-.167 0-.109-3.192-.158-9.292-.141-5.11.013-9.067.057-8.792.096M168 55.583V59.5h25.833l.021 19.75c.012 10.862.04 19.825.063 19.917.023.091.051.241.062.333.023.182 11.791.244 12.257.066.239-.092.264-2.016.264-20.084V59.5h25.833v-7.833H168v3.916m130.5 9.25c0 .092-.34.167-.755.167-.518 0-.786.079-.851.25-.06.154-.313.25-.662.25-.311 0-.565.075-.565.167 0 .091-.188.166-.417.166-.229 0-.417.075-.417.167 0 .092-.115.167-.255.167s-.298.112-.351.25c-.053.137-.2.25-.328.25s-.232.075-.232.166c0 .092-.15.167-.334.167-.183 0-.333.075-.333.167 0 .091-.113.166-.25.166-.138 0-.25.072-.25.159 0 .087-.525.696-1.167 1.353-.641.657-1.166 1.298-1.166 1.425 0 .126-.075.23-.167.23-.092 0-.167.188-.167.417 0 .259-.094.416-.25.416-.155 0-.25.158-.25.417 0 .229-.075.417-.166.417-.092 0-.167.145-.167.323 0 .178-.075.37-.167.427-.091.056-.166.361-.166.676 0 .392-.077.574-.244.574-.21 0-.245 1.047-.253 7.583-.008 6.675.021 7.583.244 7.583.192 0 .253.2.253.834 0 .458.075.833.166.833.092 0 .167.15.167.333 0 .184.075.334.167.334.091 0 .166.187.166.416 0 .26.095.417.25.417.144 0 .25.151.25.355 0 .196.156.491.347.656.19.166.363.415.384.555.02.14.202.398.403.572.202.175.366.403.366.507 0 .103.079.188.175.188.226 0 .992.767.992.993 0 .096.112.174.25.174.137 0 .25.075.25.167 0 .091.15.166.333.166.184 0 .334.075.334.167 0 .092.112.167.25.167.137 0 .25.112.25.25 0 .139.148.25.333.25.183 0 .333.075.333.166 0 .092.179.167.397.167.218 0 .489.112.603.25.114.138.386.25.604.25.218 0 .396.075.396.167 0 .092.445.166 1 .166.556 0 1 .074 1 .167 0 .11 7.39.167 21.836.167h21.835l-.006-12.484c-.005-10.847-.038-12.496-.252-12.578-.153-.059-.246-.318-.246-.683 0-.324-.075-.589-.167-.589-.091 0-.166-.228-.166-.507 0-.472-.079-.627-.625-1.237-.115-.127-.209-.312-.209-.41 0-.099-.075-.179-.166-.179-.092 0-.167-.15-.167-.333 0-.186-.111-.334-.25-.334-.138 0-.25-.096-.25-.213 0-.117-.15-.321-.333-.453-.184-.132-.334-.337-.334-.454 0-.117-.08-.213-.178-.213-.098 0-.501-.338-.896-.75-.396-.413-.841-.75-.989-.75-.149 0-.27-.075-.27-.167 0-.091-.104-.166-.232-.166s-.276-.113-.328-.25c-.053-.138-.211-.25-.351-.25-.141 0-.256-.075-.256-.167 0-.092-.187-.167-.416-.167-.229 0-.417-.075-.417-.166 0-.092-.263-.167-.583-.167-.408 0-.584-.075-.584-.25 0-.189-.203-.25-.833-.25-.458 0-.833-.075-.833-.167 0-.11-5.723-.166-16.834-.166s-16.833.056-16.833.166m29 7.834c0 .091.319.166.71.166.604 0 .784.087 1.208.58.274.319.592.581.707.583.115.002.208.192.208.421 0 .229.075.416.167.416.109 0 .167 2.806.167 8.084V91h-14.149c-12.614 0-14.16-.028-14.248-.258-.054-.142-.197-.235-.317-.208-.241.055-1.12-.751-1.12-1.026 0-.096-.112-.175-.25-.175-.174 0-.25-.176-.25-.583 0-.321-.075-.583-.166-.583-.108 0-.167-2.195-.167-6.25 0-4.056.059-6.25.167-6.25.091 0 .166-.255.166-.566 0-.349.096-.602.25-.661.138-.053.25-.216.25-.363 0-.344.4-.744.744-.744.147 0 .31-.112.363-.25.059-.154.312-.25.661-.25.311 0 .566-.075.566-.166 0-.11 4.166-.167 12.166-.167s12.167.057 12.167.167m57.833 0c0 .091.25.166.556.166.421 0 .608.101.778.417.122.229.275.417.338.417.356 0 .995.925.995 1.439 0 .308.075.561.167.561.108 0 .166 2.139.166 6.083 0 3.944-.058 6.083-.166 6.083-.092 0-.167.338-.167.75 0 .413-.075.75-.167.75-.091 0-.166.113-.166.25 0 .138-.057.25-.125.251-.069 0-.343.187-.61.416-.266.229-.589.417-.718.417-.128 0-.187.075-.131.166.069.111-4.359.167-13.156.167-11.899 0-13.26-.027-13.26-.26 0-.143-.069-.217-.154-.165-.084.052-.266-.018-.404-.157-.139-.138-.3-.251-.359-.251-.232 0-.583-.495-.583-.822 0-.19-.075-.345-.167-.345-.109 0-.167-2.861-.167-8.25V72.5h13.75c9.056 0 13.75.057 13.75.167M32.5 98.75c-.114.138-.367.251-.562.253-.234.001-.285.046-.15.132.137.087-2.808 3.139-8.955 9.279-5.038 5.033-9.189 9.229-9.225 9.326-.036.097-.143-.086-.238-.407-.13-.438-.177.611-.188 4.209-.01 3.093.044 4.791.151 4.791.092 0 .167.122.167.27 0 .149.343.599.762 1l.762.73H41.62l.313-.416c.172-.229.38-.417.463-.417.262 0 .593-.567.599-1.024.003-.242.117-.484.255-.536.219-.084.25-1.631.25-12.523 0-10.893-.031-12.439-.25-12.523-.138-.053-.25-.276-.25-.495 0-.22-.075-.399-.167-.399-.091 0-.166-.112-.166-.25 0-.323-.594-.917-.917-.917-.138 0-.25-.075-.25-.166 0-.3-8.749-.219-9 .083"/><path fill="#2986bd" d="M44.812.12c-.943.1-2.145 1.329-2.145 2.193 0 .367-.091.686-.209.731-.297.114-.136 6.314.167 6.415.115.038.208-.054.208-.205 0-.15.062-.236.137-.189.183.113 9.07-8.803 8.922-8.95-.116-.117-5.973-.112-7.08.005M15.5 21.985c-.138.073-.531.268-.875.434-.344.165-.625.401-.625.524s-.07.224-.155.224c-.085 0-.181.168-.212.375-.032.206-.145.357-.252.336-.234-.046-.196 8.843.042 9.789l.146.583.096-.583c.053-.321.173-.569.268-.552.095.017 2.567-2.364 5.494-5.292 2.927-2.928 5.209-5.328 5.072-5.335-.161-.007-.131-.058.084-.144.285-.114.235-.161-.333-.321-.765-.215-8.353-.248-8.75-.038m29 29.858c0 .097-.061.139-.136.092-.075-.046-.242.062-.37.241-.129.178-.36.324-.513.324-.158 0-.323.18-.383.417-.057.229-.178.416-.268.416-.09 0-.163.257-.163.57 0 .313-.08.596-.178.628-.305.102-.209 13.253.099 13.694.244.348.245.347.258-.063.008-.227.051-.318.098-.204.14.348.889.032.889-.375 0-.139.445-.583.584-.583.139 0 .583-.444.583-.583 0-.139.444-.584.583-.584.173 0 .584-.46.584-.654 0-.099.078-.179.174-.179.226 0 .992-.766.992-.992 0-.096.079-.175.175-.175.226 0 .992-.766.992-.992 0-.096.08-.174.179-.174.194 0 .654-.411.654-.584 0-.139.445-.583.584-.583.059 0 .214-.107.345-.238.131-.131.238-.286.238-.345s.107-.215.238-.346c.131-.131.286-.238.345-.238.173 0 .584-.46.584-.654 0-.099.078-.179.174-.179.096 0 .358-.184.583-.409.225-.225.409-.488.409-.583 0-.096.081-.175.179-.175.194 0 .655-.41.655-.583 0-.139.444-.583.583-.583.139 0 .583-.445.583-.584 0-.139.445-.583.584-.583.139 0 .583-.444.583-.583 0-.139.444-.584.583-.584.173 0 .584-.46.584-.654 0-.099.078-.179.174-.179.226 0 .992-.766.992-.992 0-.096.113-.175.25-.175.138 0 .25-.075.25-.166 0-.092-.09-.167-.2-.167-.484 0 .174-.317.784-.378.467-.046.317-.079-.5-.111-.866-.033-1.059-.079-.75-.178.229-.073-2.752-.141-6.625-.15-4.856-.011-7.042.038-7.042.16M15.167 98.667c0 .091-.11.166-.245.166-.352 0-1.124.818-1.464 1.549-.338.729-.453 9.118-.125 9.118.092 0 .178.244.192.542.024.531.026.532.096.064.044-.293.195-.51.392-.561.176-.046.32-.188.32-.314 0-.127.079-.231.175-.231.095 0 .358-.184.583-.409.225-.225.409-.488.409-.583 0-.096.078-.175.174-.175.226 0 .993-.766.993-.992 0-.096.08-.174.178-.174.194 0 .655-.411.655-.584 0-.139.444-.583.583-.583.139 0 .584-.444.584-.583 0-.139.444-.584.583-.584.173 0 .583-.46.583-.654 0-.099.079-.179.175-.179.226 0 .992-.766.992-.992 0-.096.078-.175.174-.175.226 0 .993-.766.993-.992 0-.096.08-.174.178-.174.194 0 .655-.411.655-.584 0-.139.444-.583.583-.583.407 0 .723-.749.375-.89-.114-.046.054-.095.375-.109.474-.02.521-.05.25-.16-.281-.115-.241-.148.25-.212.321-.042-1.723-.088-4.541-.102-3.324-.018-5.125.032-5.125.14"/><path fill="#aab4ba" d="M2.897 35.635c.079.128-.108.228-.556.3-.371.059-.674.177-.674.263 0 .085-.067.114-.149.063-.082-.051-.326.132-.542.405-.216.274-.477.498-.579.499-.416.004-.641 28.172-.234 29.243.212.556 1.293 1.639 1.506 1.507.091-.056.164-.022.164.075s.192.177.427.177c.234 0 .386.066.336.146-.117.189 3.213.217 3.654.03.27-.114.286-.16.083-.243-.204-.084-.24-.41-.197-1.768.029-.916-.011-1.665-.089-1.665-.079 0-.154-.147-.167-.326-.021-.281.104-.333.923-.385.544-.034.185-.073-.845-.091l-1.791-.032V40.167h.911c.713 0 .892-.051.822-.233-.049-.129-.009-.283.089-.344.242-.149.229-2.961-.016-3.499-.181-.398-.268-.424-1.403-.424-.665 0-1.34-.051-1.5-.112-.197-.075-.253-.049-.173.08m32.27 28.356c1.335.078 1.591.138 1.632.384.029.173-.056.292-.208.292-.34 0-.386 3.087-.049 3.223.114.046.006.09-.24.097-.696.02-.7.292-.007.407.751.124 4.588.14 4.9.021.31-.119.251-4.241-.064-4.441-.118-.074-1.864-.122-3.881-.106-2.567.021-3.192.058-2.083.123m38.458 37.019c-.339.201-.46 7.657-.125 7.657.106 0 .167-1.358.167-3.74 0-2.314.063-3.78.166-3.844.272-.167.223 7.385-.049 7.657-.119.119-.204.433-.189.697.016.264.038 1.173.05 2.021.017 1.194.074 1.542.253 1.542.127 0 .221.123.208.274-.012.15.082.31.209.355.141.049.186.008.115-.107-.071-.116.011-.189.213-.189.181 0 .354-.072.385-.162.03-.089.205-.186.389-.217.434-.073 1.416-1.012 1.416-1.354 0-.147.057-.268.125-.269.578-.008.718-1.223.671-5.831l-.046-4.583-1.833-.04c-1.043-.022-1.959.035-2.125.133m-.778 8.032c-.078.206-.102.412-.055.458.048.046.119-.006.158-.116.039-.109.167-.162.283-.117.116.044.211-.028.211-.161 0-.145-.098-.203-.249-.145-.162.062-.208.027-.129-.099.066-.108.076-.195.022-.195s-.163.168-.241.375m-71.014.625c0 .091-.113.166-.251.166s-.414.188-.613.417c-.199.229-.445.417-.547.417-.321 0-.331.464-.335 15.083l-.004 14.333.505.51c.278.28.639.561.802.624.164.063.256.181.206.263-.121.196.724.314 2.059.29l1.072-.02-.043-1.899c-.033-1.435.01-1.933.178-2.039.151-.095.062-.147-.279-.163l-.5-.022.5-.127.5-.127-.458-.02-.458-.02V125.5c0-9.825.038-11.833.225-11.833.175 0 .232-.462.259-2.084l.033-2.083H3.259c-.839 0-1.426.069-1.426.167m42.334 1.916v2.084h5.131l.007-2.084.008-2.083h-5.146v2.083m-15.704 23.785c.031 3.898.105 5.905.222 5.977.097.06.172.176.167.257-.009.129.532.146 1.306.042.132-.018.46-.227.729-.463.268-.237.551-.413.628-.391.077.021.096-.075.042-.215-.059-.154-.016-.236.108-.207.113.027.237-.139.275-.368.038-.229.142-.442.231-.472.1-.034.162-1.966.162-5.042V129.5h-3.916l.046 5.868"/></g></svg>