<svg xmlns="http://www.w3.org/2000/svg" role="img" viewBox="-3.14 -1.64 423.28 109.28"><title>OpenHW Group (member) logo</title><path d="M38.589 37.644c.665.646 1.379 1.235 2.136 1.775v-1.775h-2.136zM40.726 9.98c-.136.096-.268.197-.398.298h.398V9.98zm0 6.793v-5.109H38.69c-1.196 1.143-2.226 2.446-3.072 3.878v1.231h5.108zm-6.495 1.684c-.562 1.521-.929 3.132-1.063 4.812h1.063v-4.812zm1.386 6.197h5.108v5.109h-5.108zm-1.386 0h-1.133v.046c0 1.759.264 3.454.735 5.063h.398v-5.109zM47.223 7.081c-1.824.407-3.54 1.095-5.111 2.01v1.188h5.111V7.081zm-6.497 29.177v-5.109h-5.108v2.708c.501.845 1.053 1.652 1.679 2.401h3.429zm7.883-18.099h5.108v5.109h-5.108zm0 12.99h5.108v5.109h-5.108zm-6.498-19.485h5.111v5.109h-5.111zm6.498 0h5.108v5.109h-5.108zm0 12.99h5.108v5.109h-5.108zm-6.498-6.495h5.111v5.109h-5.111zm0 6.495h5.111v5.109h-5.111zm0 6.495h5.111v5.109h-5.111zm-6.494-12.99h5.108v5.109h-5.108zm19.485-6.495h5.11v5.109h-5.11zm5.11-2.574c-1.573-.915-3.287-1.603-5.11-2.01v3.197h5.11V9.09zM42.111 37.644v2.665c1.571.915 3.287 1.603 5.111 2.01v-4.675h-5.111zm19.486 0v1.775c.756-.54 1.472-1.129 2.137-1.775h-2.137zm0-6.495v5.109h3.431c.626-.749 1.179-1.559 1.68-2.403v-2.706h-5.111zM48.609 10.278h5.108v-3.44c-.837-.121-1.687-.203-2.556-.203-.87 0-1.716.082-2.552.203v3.44zm20.615 14.376h-1.131v5.109h.396c.471-1.609.737-3.305.737-5.063 0-.017-.002-.031-.002-.046zm-14.122 6.495h5.11v5.109h-5.11zm0-12.99h5.11v5.109h-5.11zm0 6.495h5.11v5.109h-5.11zm14.051-1.386c-.134-1.678-.501-3.288-1.061-4.807v4.807h1.061zM48.609 37.644v4.918c.766.111 1.544.185 2.339.191h.425c.795-.007 1.576-.08 2.343-.191v-4.918h-5.107zm12.988-19.485h5.11v5.109h-5.11zm-6.495 19.485v4.675c1.824-.407 3.538-1.095 5.11-2.01v-2.665h-5.11zm6.495-12.99h5.11v5.109h-5.11zm0-14.376h.399c-.132-.101-.264-.202-.399-.298v.298zm5.11 5.266c-.847-1.432-1.879-2.738-3.073-3.881h-2.038v5.109h5.11v-1.228z" fill="#20AA4D"/><path d="M22.625 36.258h3.841c-.767-1.62-1.369-3.332-1.805-5.109h-2.037v5.109zm0 20.871h5.111v5.111h-5.111zm0-12.99h5.111v5.109h-5.111zm5.111-5.496c-.196-.325-.371-.664-.553-.999h-4.559v5.109h5.111v-4.11zm-5.111-8.88h1.739c-.312-1.644-.504-3.329-.504-5.063 0-.017.001-.03.001-.046h-1.236v5.109zm2.47-12.99c.409-1.315.875-2.605 1.463-3.832-1.36.84-2.67 1.75-3.934 2.719v1.113h2.471zm-2.47 6.495h1.318c.093-1.75.334-3.462.746-5.109h-2.064v5.109zm0 27.366h5.111v5.109h-5.111zm6.497 6.495h2.661v5.111h-2.661zM5.11 44.139c-.043.232-.1.46-.139.691H8.25v-.691H5.11zm24.012 6.495h2.661v5.109h-2.661zm2.556-6.495h-2.556v5.11h2.661v-4.418m-1.038-2.078c-.571-.642-1.113-1.311-1.623-2.005v2.005h1.623zM16.13 44.139h5.11v5.109h-5.11zm-6.493-6.495h5.107v5.109H9.637zm-1.386 5.109v-5.109H6.813c-.568 1.664-1.042 3.37-1.425 5.109h2.863zm1.386-11.604h5.107v5.109H9.637zm5.107-6.495h-1.026c-1.222 1.623-2.336 3.334-3.343 5.109h4.37v-5.109zm-6.493 9.345c-.325.744-.635 1.497-.924 2.26h.924v-2.26zm1.386 10.14h5.107v.691H9.637zm6.493 12.99h5.11v5.111h-5.11zm0-6.495h5.11v5.109h-5.11zm0-25.98h5.11v5.109h-5.11zm5.11-1.386v-5.109h-1.584a46.5272 46.5272 0 0 0-3.526 3.566v1.543h5.11zm-5.11 14.376h5.11v5.109h-5.11zm0-6.495h5.11v5.109h-5.11z" fill="#20AA4D"/><path d="M86.192 63.626h-3.541l1.222 5.108h2.319zm-5.109-19.487h5.109v5.109h-5.109zm0-20.871h5.109v-1.545c-1.11-1.25-2.287-2.44-3.525-3.564h-1.584v5.109zm0 7.881h5.109v5.109h-5.109zm0 6.495h5.109v5.109h-5.109zm0-12.99h5.109v5.109h-5.109zm3.122 45.466l.763 3.179c.175.701.31 1.35.414 1.931h.719c.025-.188.059-.395.091-.595V70.12h-1.987zm1.736 6.495h-.346c.114.912.134 1.459.134 1.459h.13c.001 0 .001-.547.082-1.459zm1.637-20.871h2.701l1.122-5.11h-3.823zm6.495-10.913h3.279c-.039-.231-.096-.459-.139-.691h-3.14v.691zm-6.495-7.187h5.109v5.109h-5.109zm0-6.495h5.109v5.109h-5.109zm0 31.092h1.279l1.12-5.112h-2.399zm0-32.478h4.372c-1.008-1.775-2.121-3.486-3.343-5.109h-1.028v5.109zM79.21 49.249h.487v-5.11h-5.109v.692h3.564zm6.982 12.992v-5.112h-5.095l1.224 5.112zm-6.65-11.607l.155.649v-.649zm-9.319-6.495c-.229.228-.443.474-.685.691h3.664v-.691h-2.979zm17.355 19.487v4.445l.974-4.445zm6.495-27.368h.924c-.289-.763-.596-1.516-.924-2.258v2.258zm-6.495 7.881v5.11h4.126l.969-4.418h.014v-.692zm6.495-6.495v5.109h2.863c-.382-1.739-.856-3.445-1.427-5.109h-1.436zM79.697 15.66c-1.263-.969-2.571-1.879-3.933-2.719.587 1.227 1.054 2.517 1.463 3.832h2.469V15.66zm0 2.499h-2.064c.412 1.647.653 3.359.747 5.109h1.317v-5.109zm0 6.495h-1.236c0 .016.002.029.002.046 0 1.734-.191 3.42-.503 5.063h1.736v-5.109zm0 6.495H77.66c-.435 1.777-1.038 3.489-1.805 5.109h3.841v-5.109zm0 11.604v-5.109h-4.558c-.182.335-.357.672-.551.997v4.112h5.109zm1.386 7.881h5.109v5.109h-5.109zm-7.881-9.885c-.51.694-1.054 1.363-1.623 2.005h1.623v-2.005z" fill="#20AA4D"/><path d="M61.597 62.241h3.29l1.259-5.112h-4.549zm-1.385 6.493v-5.108h-1.457l1.029 5.108zm0-11.605h-2.765l1.031 5.112h1.734zm7.881-11.071v3.16l.974-3.957c-.317.276-.647.535-.974.797zm-1.386 1.03c-1.159.811-2.376 1.536-3.655 2.16h3.655v-2.16zm-5.11 21.646h1.694l1.256-5.108h-2.95zm1.353 1.386h-1.353v5.109h.156c.104-.581.239-1.229.414-1.931l.783-3.178zm-1.353-19.486v5.11h4.889l.221-.893v-4.217zM60.064 70.12l.148.732v-.732zm-2.895-14.376h3.043v-5.109h-.584c-1.076.355-2.181.648-3.313.865l.854 4.244z" fill="#20AA4D"/><path d="M16.13 76.615h5.11v5.109h-5.11zm5.11 6.495h-5.11v.878c1.33 1.495 2.745 2.916 4.254 4.23h.856V83.11zm25.008-25.981h-3.321v5.112h4.296v-1.104zM22.625 76.615h5.111v5.109h-5.111zm0 6.495h5.111v5.108h-5.111zm0 6.495v.445c1.623 1.248 3.333 2.381 5.111 3.409v-3.854h-5.111zm0-17.071h5.111v2.695h-5.111zM47.223 96.1h-5.111v2.756c1.674.325 3.378.564 5.111.708V96.1zm-6.497 0h-5.108v1.003c1.663.585 3.368 1.079 5.108 1.475V96.1zm-6.495-1.387v-4.349h-2.449v-.76h-2.661v4.636c.308.161.619.316.93.473h4.18zM16.13 72.534h5.11v2.695h-5.11zm26.797-8.908h4.295v5.107h-4.295zm-13.805 8.908h2.661v2.695h-2.661zM42.927 83.11h4.295v5.108h-4.295zm1.884-31.886c-.636-.15-1.269-.301-1.883-.496v5.016h2.982l-1.099-4.52zm-1.884 25.391h4.295v5.109h-4.295zm0-6.495h4.295v5.109h-4.295zm-13.805 6.495h2.661v5.109h-2.661zm18.101 18.098v-5.108h-4.296v.76h-.816v4.348zM29.122 83.11h2.661v5.108h-2.661zm6.495 7.255h5.108v4.349h-5.108zM34.231 96.1H33.03c.396.166.801.32 1.202.478V96.1zm14.378-14.376h3.624l-1.245-5.109h-2.379zm0 7.881h5.108v5.108h-5.108zm0-1.387h5.108v-.397L52.57 83.11h-3.961zm.46-19.484l-.46-1.903v1.903zM66.707 96.1h-5.11v2.439c1.737-.398 3.452-.855 5.11-1.438V96.1zm-6.495 0h-5.11v3.477c1.735-.143 3.433-.409 5.11-.739V96.1zm7.881 0v.448c.375-.146.749-.294 1.12-.448h-1.12zm-14.376 0h-5.108v3.575c.845.045 1.696.07 2.552.07.86 0 1.705-.062 2.556-.109V96.1zm25.98-6.495h-5.109v3.832c1.777-1.031 3.489-2.162 5.109-3.409v-.423zm-11.604 0v5.108h4.115c.33-.166.667-.323.994-.496v-4.612h-5.109zm6.768-20.871l-.273-1.1v1.1zm4.836 19.398l-1.252-5.022h-3.857v5.108h5.109zM48.609 75.229h2.043l-1.245-5.109h-.798zm25.979 6.495h3.511l-1.272-5.109h-2.239zm-1.386-5.109h-2.895l-1.274 5.109h4.169zm1.386-6.495v5.109h1.891l-1.272-5.109zm-1.386 12.99h-4.513l-.596 2.391v2.717h5.109zm-18.1 7.255h5.11v4.349h-5.11zm18.1-20.245h-1.275l-1.272 5.109h2.547zM61.597 90.365h5.11v4.349h-5.11zm11.605-25.974c-.134.855-.328 1.885-.589 2.983l-.339 1.359h.928v-4.342z" fill="#002D62"/><g><path fill="#002D62" d="M127.358 67.378c-2.174-.8-3.945-1.884-5.316-3.247-1.369-1.364-2.366-2.968-2.997-4.81-.626-1.84-.938-3.818-.938-5.928 0-2.107.312-4.084.938-5.926.63-1.842 1.628-3.446 2.997-4.808 1.372-1.365 3.143-2.449 5.316-3.252 2.174-.802 4.794-1.2 7.86-1.2h11.381c3.068 0 5.686.398 7.86 1.2 2.174.803 3.945 1.887 5.313 3.252 1.372 1.361 2.37 2.966 3 4.808.625 1.842.938 3.818.938 5.926 0 2.109-.312 4.088-.938 5.928-.631 1.842-1.628 3.445-3 4.81-1.368 1.363-3.139 2.447-5.313 3.247-2.174.802-4.792 1.203-7.86 1.203h-11.381c-3.066.001-5.686-.401-7.86-1.203zm24.124-6.2c1.295-.436 2.322-1.033 3.089-1.794.767-.758 1.302-1.65 1.605-2.678.301-1.026.451-2.129.451-3.312 0-1.18-.149-2.285-.451-3.311-.304-1.028-.838-1.92-1.605-2.679-.767-.761-1.793-1.355-3.089-1.793-1.294-.436-2.935-.654-4.918-.654h-11.27c-2.013 0-3.665.219-4.957.654-1.298.438-2.325 1.032-3.091 1.793-.767.759-1.302 1.65-1.603 2.679-.304 1.025-.451 2.131-.451 3.311 0 1.184.147 2.286.451 3.312.301 1.027.836 1.92 1.603 2.678.767.761 1.793 1.358 3.091 1.794 1.292.435 2.932.653 4.916.653h11.311c1.983.001 3.624-.218 4.918-.653zm46.758-22.547c2.033 0 3.758.26 5.18.777 1.422.521 2.576 1.232 3.471 2.132.89.901 1.542 1.956 1.959 3.164.413 1.211.619 2.489.619 3.838 0 1.407-.206 2.707-.619 3.903-.417 1.195-1.069 2.243-1.959 3.145-.895.897-2.049 1.6-3.471 2.107-1.422.506-3.147.759-5.18.759h-21.864v9.701h-6.635V38.631h28.499zm-21.864 13.076h21.71c.932 0 1.688-.085 2.281-.252.589-.168 1.04-.395 1.359-.674.312-.282.525-.615.637-.994.113-.379.171-.792.171-1.244 0-.42-.058-.829-.171-1.223-.111-.394-.324-.731-.637-1.014-.319-.279-.77-.505-1.359-.675-.593-.168-1.349-.251-2.281-.251h-21.71v6.327zm75.534-13.076v6.749h-31.396v4.978h27.555v6.076h-27.555v4.978h31.396v6.746h-38.028V38.631h38.028zm12.853 29.527h-6.633V38.631h6.296l27.667 20.838V38.631h6.633v29.526h-6.296L264.763 47.32v20.838z"/><path fill="#20AA4D" d="M312.934 56.769v11.389h-6.632V38.631h6.632V50.02h27.177V38.631h6.639v29.526h-6.639V56.769h-27.177zm52.926 11.389l-15.076-29.526h7.99l9.606 20.248 9.842-20.248h4.903l9.836 20.248 9.612-20.248h7.988l-15.076 29.526h-4.902l-9.908-20.247-9.918 20.247h-4.897z"/></g><g fill="#6D6E71"><path d="M164.382 77.751h7.2c.4 0 .74.139 1.02.42.28.279.42.619.42 1.02v2.531c0 .4-.14.74-.42 1.021-.28.279-.62.42-1.02.42h-5.76c-.072 0-.228-.018-.468-.049v3.264h-.972v-8.627zm7.668 3.971v-2.531c0-.127-.046-.238-.138-.33-.092-.092-.202-.139-.33-.139h-5.76c-.128 0-.238.047-.33.139-.092.092-.138.203-.138.33v2.531c0 .129.046.236.138.324.092.088.202.133.33.133h5.76c.128 0 .238-.045.33-.133.092-.088.138-.195.138-.324zm12.371-2.531v2.531c0 .4-.14.74-.42 1.021-.28.279-.62.42-1.02.42h-1.32l2.712 3.215h-1.284l-2.7-3.215h-3.168c-.072 0-.228-.018-.468-.049v3.264h-.972v-8.627h7.2c.4 0 .74.139 1.02.42.281.28.42.62.42 1.02zm-7.199 2.988h5.76c.128 0 .236-.045.324-.133.088-.088.132-.195.132-.324v-2.531c0-.127-.044-.238-.132-.33-.088-.092-.196-.139-.324-.139h-5.76c-.128 0-.238.047-.33.139-.092.092-.138.203-.138.33v2.531c0 .129.046.236.138.324.091.088.202.133.33.133zm11.807-4.439h5.76c.4 0 .74.139 1.02.42.28.279.42.619.42 1.02v5.76c0 .4-.14.74-.42 1.02-.28.281-.62.42-1.02.42h-5.76c-.4 0-.74-.139-1.02-.42-.28-.279-.42-.619-.42-1.02v-5.76c0-.4.14-.74.42-1.02.281-.282.62-.42 1.02-.42zm0 7.668h5.76c.128 0 .238-.047.33-.139.092-.092.138-.201.138-.33v-5.76c0-.129-.046-.238-.138-.33-.092-.092-.202-.139-.33-.139h-5.76c-.128 0-.238.047-.33.139-.092.092-.138.201-.138.33v5.76c0 .129.046.238.138.33.093.092.202.139.33.139zm15.756.023l4.416-7.691h1.14l-4.992 8.639h-1.128l-5.004-8.639h1.14l4.428 7.691zm16.548-7.691v.971h-6.912v2.857h5.556v.982h-5.556v2.857h6.912v.971h-7.885V77.74h7.885zm10.871 7.535V77.74h.972v8.639h-1.332l-6.336-7.535v7.535h-.972V77.74h1.332l6.336 7.535zm9.418-7.524h7.201c.399 0 .739.139 1.02.42.279.279.42.619.42 1.02v2.531c0 .4-.141.74-.42 1.021-.28.279-.62.42-1.02.42h-5.761c-.071 0-.228-.018-.468-.049v3.264h-.973v-8.627zm7.668 3.971v-2.531c0-.127-.045-.238-.137-.33-.093-.092-.203-.139-.33-.139h-5.761c-.128 0-.237.047-.329.139-.093.092-.139.203-.139.33v2.531c0 .129.046.236.139.324.092.088.201.133.329.133h5.761c.127 0 .237-.045.33-.133.092-.088.137-.195.137-.324zm12.372-2.531v2.531c0 .4-.14.74-.42 1.021-.28.279-.62.42-1.021.42h-1.319l2.712 3.215h-1.284l-2.7-3.215h-3.168c-.072 0-.228-.018-.468-.049v3.264h-.972v-8.627h7.199c.4 0 .74.139 1.021.42.28.28.42.62.42 1.02zm-7.2 2.988h5.76c.129 0 .236-.045.324-.133s.133-.195.133-.324v-2.531c0-.127-.045-.238-.133-.33s-.195-.139-.324-.139h-5.76c-.127 0-.238.047-.33.139s-.138.203-.138.33v2.531c0 .129.046.236.138.324s.203.133.33.133zm11.808-4.439h5.761c.399 0 .739.139 1.02.42.279.279.42.619.42 1.02v5.76c0 .4-.141.74-.42 1.02-.28.281-.62.42-1.02.42h-5.761c-.399 0-.739-.139-1.021-.42-.279-.279-.42-.619-.42-1.02v-5.76c0-.4.141-.74.42-1.02.281-.282.621-.42 1.021-.42zm0 7.668h5.761c.127 0 .237-.047.33-.139.092-.092.137-.201.137-.33v-5.76c0-.129-.045-.238-.137-.33-.093-.092-.203-.139-.33-.139h-5.761c-.128 0-.237.047-.33.139-.092.092-.138.201-.138.33v5.76c0 .129.046.238.138.33.092.092.202.139.33.139zm19.055-6.698h-7.176c-.128 0-.238.047-.33.139s-.138.201-.138.33v5.76c0 .129.046.238.138.33s.202.139.33.139h7.176v.971h-7.176c-.4 0-.74-.139-1.02-.42-.28-.279-.42-.619-.42-1.02v-5.76c0-.4.14-.74.42-1.02.279-.281.619-.42 1.02-.42h7.176v.971zm11.076-.97v.971h-6.912v2.857h5.556v.982h-5.556v2.857h6.912v.971h-7.885V77.74h7.885zm11.784 1.439v.336h-.973v-.336c0-.129-.045-.238-.137-.33-.093-.092-.203-.139-.33-.139h-5.761c-.128 0-.237.047-.329.139-.093.092-.139.201-.139.33v1.932c0 .129.046.236.139.324.092.088.201.133.329.133h5.761c.399 0 .739.139 1.02.42.279.279.42.619.42 1.02v1.932c0 .4-.141.74-.42 1.02-.28.281-.62.42-1.02.42h-5.761c-.399 0-.739-.139-1.02-.42-.28-.279-.421-.619-.421-1.02v-.336h.973v.336c0 .129.046.238.139.33.092.092.201.139.329.139h5.761c.127 0 .237-.047.33-.139.092-.092.137-.201.137-.33v-1.932c0-.129-.045-.236-.137-.324-.093-.088-.203-.133-.33-.133h-5.761c-.399 0-.739-.139-1.02-.42-.28-.279-.421-.619-.421-1.02v-1.932c0-.4.141-.74.421-1.02.28-.281.62-.42 1.02-.42h5.761c.399 0 .739.139 1.02.42.279.28.42.62.42 1.02zm11.783 0v.336h-.973v-.336c0-.129-.045-.238-.137-.33-.093-.092-.203-.139-.33-.139h-5.761c-.128 0-.237.047-.329.139-.093.092-.139.201-.139.33v1.932c0 .129.046.236.139.324.092.088.201.133.329.133h5.761c.399 0 .739.139 1.02.42.279.279.42.619.42 1.02v1.932c0 .4-.141.74-.42 1.02-.28.281-.62.42-1.02.42h-5.761c-.399 0-.739-.139-1.02-.42-.28-.279-.421-.619-.421-1.02v-.336h.973v.336c0 .129.046.238.139.33.092.092.201.139.329.139h5.761c.127 0 .237-.047.33-.139.092-.092.137-.201.137-.33v-1.932c0-.129-.045-.236-.137-.324-.093-.088-.203-.133-.33-.133h-5.761c-.399 0-.739-.139-1.02-.42-.28-.279-.421-.619-.421-1.02v-1.932c0-.4.141-.74.421-1.02.28-.281.62-.42 1.02-.42h5.761c.399 0 .739.139 1.02.42.279.28.42.62.42 1.02zm4.619-1.439h5.761c.399 0 .739.139 1.021.42.279.279.42.619.42 1.02v5.76c0 .4-.141.74-.42 1.02-.281.281-.621.42-1.021.42h-5.761c-.399 0-.739-.139-1.02-.42-.279-.279-.42-.619-.42-1.02v-5.76c0-.4.141-.74.42-1.02.281-.282.621-.42 1.02-.42zm0 7.668h5.761c.128 0 .237-.047.33-.139.092-.092.138-.201.138-.33v-5.76c0-.129-.046-.238-.138-.33-.093-.092-.202-.139-.33-.139h-5.761c-.127 0-.237.047-.33.139-.092.092-.137.201-.137.33v5.76c0 .129.045.238.137.33.093.092.203.139.33.139zm19.068-6.217v2.531c0 .4-.141.74-.42 1.021-.28.279-.621.42-1.021.42h-1.319l2.711 3.215h-1.283l-2.7-3.215h-3.168c-.072 0-.228-.018-.468-.049v3.264h-.973v-8.627h7.2c.399 0 .74.139 1.021.42.28.28.42.62.42 1.02zm-7.2 2.988h5.76c.128 0 .235-.045.324-.133.088-.088.132-.195.132-.324v-2.531c0-.127-.044-.238-.132-.33-.089-.092-.196-.139-.324-.139h-5.76c-.128 0-.238.047-.33.139-.093.092-.138.203-.138.33v2.531c0 .129.045.236.138.324.092.088.202.133.33.133zm15.587 4.199V77.74h.972v8.639h-.972zm4.548-8.627h7.2c.4 0 .74.139 1.02.42.28.279.42.619.42 1.02v2.531c0 .4-.14.74-.42 1.021-.279.279-.619.42-1.02.42h-5.76c-.072 0-.229-.018-.469-.049v3.264h-.972v-8.627zm7.668 3.971v-2.531c0-.127-.046-.238-.138-.33s-.202-.139-.33-.139h-5.76c-.129 0-.238.047-.33.139s-.139.203-.139.33v2.531c0 .129.047.236.139.324s.201.133.33.133h5.76c.128 0 .238-.045.33-.133s.138-.195.138-.324z"/></g><g fill="#002D62"><path d="M352.39 28.699v5.57h-7.726c-.936 0-1.732-.121-2.389-.363s-1.193-.572-1.61-.99c-.416-.418-.721-.908-.914-1.471-.192-.564-.289-1.162-.289-1.795 0-.635.097-1.232.289-1.797.193-.562.498-1.053.914-1.471.417-.418.954-.748 1.61-.99s1.453-.363 2.389-.363h7.077v2.113h-7.065c-.598 0-1.089.064-1.475.197-.385.131-.689.311-.914.535-.224.223-.381.49-.472.797-.091.309-.136.635-.136.979 0 .342.045.668.136.977.091.307.248.574.472.797.225.225.529.404.914.535.386.133.877.197 1.475.197h5.686v-1.557h-3.952v-1.9h5.98zm10.942-3.67c.63 0 1.166.082 1.61.244.444.164.808.383 1.091.66s.491.602.625.971.201.766.201 1.188c0 .396-.056.768-.165 1.115-.11.348-.285.656-.525.924-.239.27-.546.488-.92.66-.373.172-.819.283-1.339.336l4.376 3.143h-3.42l-4.105-3.076h-4.151v3.076h-2.076v-9.24h8.798zm-6.723 4.131h6.641c.291 0 .53-.025.72-.078.188-.053.336-.125.441-.219.106-.092.18-.199.219-.322s.059-.256.059-.396c0-.131-.02-.26-.059-.383s-.112-.23-.219-.322c-.105-.094-.253-.166-.441-.219-.189-.053-.429-.078-.72-.078h-6.641v2.017zm15.031 4.865c-.681-.252-1.235-.59-1.663-1.018-.429-.426-.741-.928-.938-1.504-.196-.576-.295-1.195-.295-1.854 0-.66.099-1.279.295-1.855.197-.576.51-1.078.938-1.504.428-.428.982-.766 1.663-1.018.68-.25 1.5-.375 2.459-.375h3.562c.96 0 1.779.125 2.46.375.68.252 1.234.59 1.663 1.018.429.426.741.928.938 1.504s.295 1.195.295 1.855c0 .658-.099 1.277-.295 1.854s-.509 1.078-.938 1.504c-.429.428-.983.766-1.663 1.018-.681.25-1.5.375-2.46.375h-3.562c-.959 0-1.78-.125-2.459-.375zm7.548-1.942c.404-.137.727-.322.967-.561s.407-.518.501-.838c.095-.32.142-.666.142-1.035 0-.371-.047-.717-.142-1.037-.094-.32-.261-.6-.501-.838s-.562-.424-.967-.561c-.405-.137-.919-.205-1.54-.205h-3.526c-.629 0-1.146.068-1.551.205-.405.137-.728.322-.968.561-.239.238-.406.518-.501.838s-.142.666-.142 1.037c0 .369.047.715.142 1.035s.262.6.501.838c.24.238.562.424.968.561.404.137.918.205 1.539.205h3.538c.622.001 1.135-.068 1.54-.205zm7.675-1.16c.083.277.234.516.454.719.221.203.518.361.891.475.373.115.852.172 1.433.172h2.819c.582 0 1.06-.057 1.434-.172.373-.113.67-.271.891-.475.22-.203.371-.441.454-.719.082-.277.123-.584.123-.918v-4.977h2.076v4.977c0 .633-.082 1.221-.248 1.762-.165.541-.441 1.006-.831 1.393s-.9.691-1.533.91c-.633.221-1.418.33-2.354.33h-2.843c-.936 0-1.72-.109-2.353-.33-.633-.219-1.145-.523-1.533-.91-.39-.387-.667-.852-.832-1.393s-.248-1.129-.248-1.762v-4.977h2.076v4.977c0 .334.042.641.124.918zm21.695-5.894c.637 0 1.178.082 1.622.244.444.164.806.385 1.085.668.279.281.483.611.613.988.13.379.194.779.194 1.201 0 .441-.064.848-.194 1.221-.13.375-.334.703-.613.984s-.641.502-1.085.66-.985.236-1.622.236h-6.841v3.037h-2.076v-9.24h8.917zm-6.841 4.092h6.794c.291 0 .528-.025.714-.078.185-.053.326-.123.424-.211.099-.09.165-.191.201-.311.035-.119.053-.25.053-.391 0-.131-.018-.26-.053-.383-.036-.123-.103-.229-.201-.316-.098-.088-.239-.158-.424-.211-.186-.053-.423-.078-.714-.078h-6.794v1.979z"/></g><path fill="#6D6E71" stroke="#6D6E71" stroke-miterlimit="10" d="M118.106 82.673h39.638m213.181 0h39.637"/></svg>