<svg xmlns="http://www.w3.org/2000/svg" role="img" xmlns:xlink="http://www.w3.org/1999/xlink" viewBox="-7.98 -9.48 492.96 289.96"><title>Opus Codec logo</title><defs><linearGradient id="b" x1="993.7" x2="993.7" y1="1171" y2="0" gradientTransform="scale(.1635 .1078)" gradientUnits="userSpaceOnUse"><stop offset="0" stop-color="#8e8e8e"/><stop offset="1" stop-color="#b5b5b5"/></linearGradient><linearGradient id="a" x2="0" y2="1"><stop offset="0" stop-color="#484848"/><stop offset="1"/></linearGradient><linearGradient id="c" x1="1308" x2="1308" y1="1622" y2="2296" gradientTransform="scale(.1853 .09506)" gradientUnits="userSpaceOnUse" xlink:href="#a"/><linearGradient id="d" x1=".003" x2=".003" y1="1534" y2="2196" gradientTransform="scale(.1764 .09984)" gradientUnits="userSpaceOnUse" xlink:href="#a"/><linearGradient id="e" x1="1873" x2="1873" y1="1622" y2="2317" gradientTransform="scale(.1861 .09466)" gradientUnits="userSpaceOnUse" xlink:href="#a"/><linearGradient id="f" x1="745" x2="745" y1="1227" y2="2171" gradientTransform="scale(.1409 .125)" gradientUnits="userSpaceOnUse" xlink:href="#a"/></defs><path fill="url(#b)" d="M341.6 18.58c-9.837-8.189-24.98-13.67-45.39-16.47l-15 47.69c-.3238 1.751-.8812 3.737-1.745 6.027-1.532 3.825-3.375 6.977-5.541 9.459-2.169 2.486-4.596 4.425-7.285 5.84-2.691 1.404-5.617 2.376-8.778 2.91-3.163.5322-6.433.6981-9.812.5017-3.383-.1964-6.26-.6569-8.628-1.383-2.37-.7246-4.55-1.927-6.538-3.61-1.469-1.652-2.324-3.818-2.557-6.506-.2349-2.686.4167-6.008 1.952-9.966 1.375-3.439 3.114-6.438 5.221-8.986 2.105-2.549 4.568-4.527 7.386-5.928 2.69-1.405 5.582-2.346 8.678-2.82 3.088-.4711 6.522-.5946 10.29-.3756 3.122.1845 6.028.6437 8.725 1.391 1.279.3504 2.4.8136 3.374 1.371l11.51-36.62c-2.841-.2681-5.749-.503-8.771-.6769-29.07-1.697-53.5 1.66-73.3 10.05-19.8 8.402-33 20.86-39.59 37.37-1.979 5.062-3.042 9.832-3.198 14.31-1.904 32.47 18.97 50.76 31.86 58.89 5.172 3.463 9.771 5.177 9.771 5.177l5.907-18.88 1.747-4.64c7.776 1.47 16.42 2.494 25.98 3.048 29.27 1.708 53.8-1.635 73.6-10.04 19.8-8.394 32.89-20.75 39.27-37.08 6.381-16.32 3.339-29.67-9.131-40.06" transform="matrix(.9932 0 0 .9996 1.537 .1)"/><path fill="url(#c)" d="M357.7 185.1c-3.331 10.24-10.92 18.32-22.77 24.25-11.84 5.922-26.84 8.884-44.98 8.884-17.9 0-30.91-2.93-39.06-8.794-8.143-5.86-10.49-13.97-7.033-24.34l9.995-30.91h34.06l-9.625 30.73c-1.236 3.826-1.635 7.006-1.202 9.533.4313 2.531 1.387 4.535 2.869 6.016 1.85 1.477 3.915 2.495 6.201 3.051 2.281.5562 5.026.8352 8.236.8352 3.209 0 6.293-.3386 9.256-1.021 2.961-.6754 5.674-1.756 8.145-3.235 2.466-1.481 4.657-3.454 6.571-5.924 1.911-2.467 3.485-5.556 4.721-9.256l9.995-30.73h34.06l-9.44 30.91" transform="matrix(.9932 0 0 .9996 1.537 .1)"/><path fill="url(#d)" d="M80.68 186.5c-1.235 3.951-2.747 7.033-4.535 9.255-1.791 2.222-4.043 4.135-6.756 5.737-2.346 1.481-4.997 2.499-7.958 3.055-2.962.5564-5.923.8321-8.886.8321-3.579 0-6.635-.3064-9.162-.9249-2.531-.6174-4.535-1.667-6.016-3.147-1.605-1.481-2.529-3.485-2.777-6.016-.2488-2.527.185-5.46 1.297-8.792 1.233-3.822 2.868-7.001 4.906-9.533 2.035-2.527 4.286-4.535 6.756-6.016 2.838-1.48 5.582-2.498 8.237-3.054 2.653-.5562 5.582-.832 8.793-.832 3.206 0 6.109.3411 8.699 1.018 2.592.6796 4.627 1.758 6.109 3.239 1.48 1.482 2.374 3.458 2.683 5.923.3063 2.47-.1555 5.555-1.388 9.256zm34.61-.1861c3.331-10.24.9856-18.32-7.035-24.25-8.022-5.923-21.1-8.885-39.24-8.885-17.89 0-32.76 2.933-44.61 8.792-11.85 5.862-19.5 13.98-22.95 24.34-3.331 10.25-.9575 18.3 7.126 24.16 8.082 5.863 21.13 8.794 39.15 8.794s32.95-2.93 44.8-8.794c11.85-5.86 19.43-13.91 22.77-24.16" transform="matrix(.9932 0 0 .9996 1.537 .1)"/><path fill="url(#e)" d="M411.6 168.3c3.885-.928 12-1.388 24.34-1.388 6.416 0 12.62.6465 18.6 1.944 5.982 1.294 12 2.932 18.05 4.905l5.184-15.73c-3.581-.9877-8.792-1.974-15.64-2.961-6.847-.987-14.16-1.481-21.93-1.481-23.32 0-40.35 2.006-51.09 6.016-10.74 4.011-17.09 9.039-19.07 15.08-1.48 4.567-.4619 8.422 3.055 11.57 3.518 3.147 9.718 5.462 18.6 6.94 3.333.6195 8.792 1.112 16.38 1.484 7.589.3702 12.56.7378 14.9 1.109 4.933.4952 8.235 1.11 9.903 1.851 1.664.7408 2.25 1.85 1.757 3.332-.6185 1.729-2.622 3.025-6.016 3.886-3.396.8653-8.361 1.296-14.9 1.296-1.022 0-2.008-.004-2.976-.009-2.45-.1327-5.119-.3614-7.686-.6304-2.734-.2925-5.465-.6455-8.177-1.056-5.428-.8227-10.79-1.883-16-3.238-5.204-1.356-10.26-3.007-14.94-5.06-.6291-.2763-1.236-.5749-1.849-.8684-3.286 5.28-7.837 9.889-13.63 13.8 2.998 1.44 6.024 2.623 9.034 3.639 5.999 1.999 11.99 3.344 17.95 4.335 5.964.9834 11.9 1.596 17.83 1.953 2.961.1752 5.919.284 8.88.3291 2.611.0348 5.152.0255 7.833-.0596 16.21-.0969 29.62-2.032 40.21-5.821 10.86-3.888 17.34-9.038 19.44-15.46 1.481-4.443.5853-8.145-2.684-11.11-3.273-2.961-9.042-5.119-17.31-6.479-3.826-.4925-7.655-.9529-11.48-1.387-3.828-.4313-7.343-.8337-10.55-1.204-12.71-.8627-19.81-1.666-21.29-2.407-1.481-.7403-1.975-1.85-1.481-3.332.6171-1.603 2.869-2.869 6.758-3.793" transform="matrix(.9932 0 0 .9996 1.537 .1)"/><path fill="url(#f)" d="M229.4 162.2c-8.084-5.859-21.13-8.792-39.15-8.792s-32.95 2.933-44.79 8.792c-11.84 5.862-19.11 13.82-22.44 24.06l-16.98 52.47c-6.982 23.4 23.26 32.66 23.26 32.66l10.93-35.46c.7857-2.632 1.582-5.261 2.364-7.896l2.238-7.34c.8003-2.432 1.601-4.86 2.454-7.274l7.926-21.65 1.897-4.934c.0677-.2287.1314-.45.2057-.6812 1.11-3.33 2.592-6.262 4.442-8.791 1.851-2.528 4.073-4.535 6.664-6.017 2.467-1.48 5.152-2.527 8.052-3.147 2.897-.6159 6.138-.9238 9.718-.9238 2.961 0 5.74.2763 8.331.8321 2.591.5562 4.563 1.574 5.923 3.054 1.727 1.605 2.745 3.517 3.054 5.737.3052 2.223-.1566 5.307-1.388 9.255-1.236 3.703-2.81 6.79-4.721 9.254-1.914 2.472-4.102 4.443-6.571 5.924-2.47 1.48-5.181 2.563-8.143 3.24-2.961.6782-6.049 1.017-9.254 1.017-3.212 0-5.955-.2763-8.238-.832-2.284-.5562-4.414-1.573-6.388-3.055-.1486-.1488-.2654-.3281-.4035-.4858l-4.876 14.14c-.2734.815-.5348 1.63-.7976 2.445 4.617.9394 9.963 1.5 16.07 1.667 18.14 0 33.13-2.961 44.98-8.884 11.84-5.924 19.43-14 22.77-24.25 3.333-10.24.9529-18.29-7.127-24.15" transform="matrix(.9932 0 0 .9996 1.537 .1)"/></svg>