<svg xmlns="http://www.w3.org/2000/svg" role="img" viewBox="-12.64 -12.64 657.28 331.78"><title>Panmnesia logo</title><defs><style>.cls-1{fill:#317f2a;stroke-width:0}</style></defs><g id="Layer_1" data-name="Layer 1"><path stroke-width="0" d="M31.92 214.43c-7.09-.11-13.89 2.43-19.4 7.02v-5.11c0-1.05-.85-1.9-1.9-1.9H1.9c-1.05 0-1.9.85-1.9 1.9v23.7c0 1.05.85 1.9 1.9 1.9h10.33c.8 0 1.51-.5 1.78-1.25 2.91-8.05 9.77-13.73 17.7-13.73h.17c8.45 0 15.63 6.29 18.13 14.97.62 2.14.96 4.42.96 6.79 0 1.76-.19 3.47-.54 5.11-2.04 9.54-9.64 16.66-18.68 16.66s-15.89-6.43-18.34-15.27c-.23-.82-.97-1.39-1.83-1.39H1.9c-1.05 0-1.9.85-1.9 1.9v49.07c0 1.05.85 1.9 1.9 1.9h8.72c1.05 0 1.9-.85 1.9-1.9V276c5.46 4.48 12.19 7 19.22 7 15.9 0 29.1-12.69 31.39-29.18.23-1.67.35-3.38.35-5.11 0-2.33-.22-4.6-.63-6.79-2.91-15.67-15.7-27.5-30.94-27.5zm91.04 7.01c-5.46-4.48-12.19-7-19.22-7-15.35 0-28.19 11.83-31.12 27.5-.41 2.2-.63 4.47-.63 6.79 0 1.74.12 3.44.35 5.11 2.29 16.49 15.49 29.18 31.39 29.18 7.03 0 13.76-2.52 19.22-7v5.1c0 1.05.85 1.9 1.9 1.9h8.72c1.05 0 1.9-.85 1.9-1.9v-64.78c0-1.05-.85-1.9-1.9-1.9h-8.72c-1.05 0-1.9.85-1.9 1.9v5.1zm-.54 32.4c-2.04 9.54-9.64 16.66-18.68 16.66s-16.64-7.11-18.68-16.66c-.35-1.64-.54-3.35-.54-5.11 0-2.37.34-4.65.96-6.79 2.53-8.69 9.75-14.97 18.26-14.97s15.73 6.29 18.26 14.97c.62 2.14.96 4.42.96 6.79 0 1.76-.19 3.47-.54 5.11zm86.97 0v-9.83c0-.7-.03-1.39-.08-2.08-1.01-15.34-13.11-27.5-27.85-27.5-5.55 0-10.87 1.73-15.4 4.9v-3c0-1.05-.85-1.9-1.9-1.9h-8.72c-1.05 0-1.9.85-1.9 1.9v64.78c0 1.05.85 1.9 1.9 1.9h8.72c1.05 0 1.9-.85 1.9-1.9v-37.1c0-.7.04-1.4.12-2.08.93-8.43 7.42-14.97 15.28-14.97s14.34 6.54 15.28 14.97c.08.69.12 1.38.12 2.09l.04 9.81.09 23.06.22 4.44c.05 1.01.89 1.81 1.9 1.81h8.59c1.09 0 1.95-.91 1.9-1.99l-.21-4.49v-22.83zm105.64-11.87v-.11c-.03-8.94-3.76-17.45-9.97-22.77-4.68-4.01-10.37-5.74-16.01-4.88-10.09 1.52-15.16 5.67-17.85 9.25-4.33-6.1-10.91-9.3-19.27-9.3-4.38 0-8.6 1.21-12.33 3.45v-1.55c0-1.05-.85-1.9-1.9-1.9h-9.25c-1.05 0-1.9.85-1.9 1.9v65.31c0 1.05.85 1.9 1.9 1.9h9.25c1.05 0 1.9-.85 1.9-1.9v-39.44c.02-8.11 5.55-14.72 12.33-14.72s12.31 6.6 12.33 14.72v2.58c0 3.12.01 6.23.03 9.34.01 2.25.02 4.5.04 6.75.03 5.33.06 10.83.06 16.27l.23 4.72c.05 1.01.89 1.81 1.9 1.81h9.12c1.09 0 1.95-.91 1.9-1.99l-.23-4.76v-34.72c.02-8.11 5.55-14.72 12.33-14.72s12.31 6.6 12.33 14.72l.13 34.96.23 4.71c.05 1.01.89 1.81 1.9 1.81h9.12c1.09 0 1.95-.91 1.9-1.99l-.23-4.76v-34.69zm73.64 11.87v-9.83c0-.7-.03-1.39-.08-2.08-1.01-15.34-13.11-27.5-27.85-27.5-5.56 0-10.87 1.73-15.4 4.9v-3c0-1.05-.85-1.9-1.9-1.9h-8.72c-1.05 0-1.9.85-1.9 1.9v64.78c0 1.05.85 1.9 1.9 1.9h8.72c1.05 0 1.9-.85 1.9-1.9v-37.1c0-.7.04-1.4.12-2.08.93-8.43 7.42-14.97 15.28-14.97s14.34 6.54 15.28 14.97c.08.69.12 1.38.12 2.09l.04 9.81.09 23.06.22 4.44c.05 1.01.89 1.81 1.9 1.81h8.59c1.09 0 1.95-.91 1.9-1.99l-.21-4.49v-22.83zm45.34-39.41c-15.35 0-28.19 11.83-31.12 27.5-.41 2.2-.63 4.47-.63 6.79 0 1.74.12 3.44.35 5.11 2.29 16.49 15.49 29.18 31.35 29.18h.4c11.29 0 20.33-4.64 26.87-13.79l1.03-1.44c.6-.84.42-2.01-.41-2.63l-6.97-5.23c-.85-.64-2.06-.45-2.68.41l-1.08 1.5c-4.33 5.99-9.77 8.74-17.12 8.65-8.66 0-16.03-6.43-18.41-15.51h48.25c1.05 0 1.9-.85 1.9-1.9v-4.36c0-2.33-.22-4.6-.63-6.79-2.93-15.67-15.76-27.5-31.12-27.5zm-18.41 28.03c.05-.18.1-.35.15-.53 2.52-8.79 9.77-14.97 18.26-14.97 9.3 0 16.61 7.25 18.65 14.97.05.18.09.35.13.53H415.6zm127.08-20.09v58.75c0 1.05.85 1.9 1.9 1.9h8.72c1.05 0 2.03-.85 2.03-1.9v-65.21c0-1.05-.85-1.9-1.9-1.9h-8.85c-1.05 0-1.9.85-1.9 1.9v6.46zm57.87 4.59c8.09 0 15.02 5.69 17.85 13.71.27.76.98 1.26 1.79 1.26h10.21c1.05 0 1.9-.85 1.9-1.9v-23.7c0-1.05-.85-1.9-1.9-1.9h-8.72c-1.05 0-1.9.85-1.9 1.9v5.1c-5.46-4.48-12.19-7-19.22-7-15.35 0-28.19 11.83-31.12 27.5-.41 2.2-.63 4.47-.63 6.79 0 1.74.12 3.44.35 5.11 2.29 16.49 15.49 29.18 31.39 29.18 7.03 0 13.76-2.52 19.22-7v5.1c0 1.05.85 1.9 1.9 1.9h8.72c1.05 0 1.9-.85 1.9-1.9v-25.38c0-1.05-.85-1.9-1.9-1.9h-9.68c-.85 0-1.6.57-1.83 1.39-2.45 8.84-9.74 15.27-18.34 15.27-9.04 0-16.64-7.11-18.68-16.66-.35-1.64-.54-3.35-.54-5.11 0-2.37.34-4.65.96-6.79 2.53-8.69 9.75-14.97 18.26-14.97zm-96.76 15.36c-.39-.13-.79-.25-1.19-.38-6.37-2.05-13.65-4.55-13.65-7.35 0-4.06 5.94-7.63 12.72-7.63s12.72 3.56 12.72 7.63v1.81c0 1.05.85 1.9 1.9 1.9h8.72c1.05 0 1.9-.85 1.9-1.9v-1.81c0-11.11-11.33-20.15-25.25-20.15s-25.25 9.04-25.25 20.18c.02 2.83.76 5.24 2.02 7.32 3.65 6.06 11.69 9.35 19.37 11.91 1.33.44 2.66.87 3.94 1.28 6.6 2.1 14.81 4.72 14.81 7.75 0 4.06-6.96 7.63-14.89 7.63s-14.89-3.56-14.89-7.63v-1.81c0-1.05-.85-1.9-1.9-1.9h-8.72c-1.05 0-1.9.85-1.9 1.9v1.81c0 5.39 2.98 10.65 8.17 14.42 5.08 3.69 11.92 5.73 19.24 5.73s14.16-2.03 19.24-5.73c5.19-3.77 8.17-9.03 8.17-14.4.03-3.64-1.17-6.6-3.14-9.06-4.77-5.95-14.15-8.96-22.15-11.52z"/><path d="M265.47 118.61h1.01c3.75-.06 6.77-3.11 6.77-6.86v-3.5c0-3.86-3.18-6.91-7.03-6.85h-.36c-22.46.2-40.95-16.87-42.4-39.29-1.58-24.51 17.84-44.91 42.02-44.91 2.66 0 5.26.24 7.78.73 2.98.54 5.85 1.41 8.56 2.57 6.86 2.87 12.79 7.53 17.21 13.39 5.29 6.98 8.43 15.64 8.52 25.03v94.89c0 .06-.02.11-.02.17s.02.11.02.17v.69h.07c.44 4.35 4.07 7.76 8.54 7.76s8.1-3.41 8.54-7.76h.09V58.93c.09-9.39 3.23-18.05 8.52-25.03 4.42-5.85 10.35-10.51 17.21-13.39 2.71-1.17 5.58-2.03 8.56-2.57 2.4-.46 4.87-.71 7.39-.73 22.46-.2 40.93 16.86 42.4 39.27 1.61 24.54-17.83 44.92-42.02 44.92h-.08c-4.23 0-7.7 3.46-7.7 7.69v1.95c0 4.14 3.33 7.54 7.46 7.56h.31c32.76 0 59.32-26.53 59.32-59.29S399.58 0 366.82 0c-2.63 0-5.23.16-7.78.51-2.93.38-5.8.98-8.56 1.79-6.2 1.76-12 4.53-17.21 8.1-3.06 2.09-5.93 4.5-8.54 7.13-3.27 3.3-6.16 6.98-8.59 10.98-2.43-4-5.32-7.68-8.59-10.98-2.6-2.63-5.47-5.04-8.54-7.13-5.2-3.58-11-6.34-17.21-8.1-2.76-.81-5.64-1.41-8.56-1.79-2.55-.35-5.15-.51-7.78-.51-32.76 0-59.32 26.56-59.32 59.32s26.56 59.29 59.32 59.29z" class="cls-1"/><path d="M281.81 30.02c-2.66-1.49-5.53-2.63-8.56-3.33-2.49-.6-5.09-.92-7.78-.92-19.56 0-35.2 16.72-33.41 36.65 1.32 14.7 12.41 26.97 26.9 29.81 1.86.36 3.7.57 5.5.62 4.82.15 8.79-3.78 8.79-8.61v-.11c0-4.67-3.77-8.3-8.44-8.49-1.08-.04-2.19-.2-3.3-.47-6.37-1.56-11.27-6.95-12.2-13.44-1.45-10.1 6.35-18.76 16.17-18.76 2.82 0 5.47.73 7.78 1.98 5.09 2.76 8.56 8.16 8.56 14.36v69.67c0 8.12 6.59 14.85 14.47 16.14 1.43.24 2.74-.87 2.74-2.33V59.32c0-12.6-6.94-23.58-17.21-29.29zm68.67 0c2.66-1.49 5.53-2.63 8.56-3.33 2.49-.6 5.09-.92 7.78-.92 19.56 0 35.2 16.72 33.41 36.65-1.32 14.7-12.41 26.97-26.9 29.81-1.86.36-3.7.57-5.5.62-4.82.15-8.79-3.78-8.79-8.61v-.11c0-4.67 3.77-8.3 8.44-8.49 1.08-.04 2.19-.2 3.3-.47 6.37-1.56 11.27-6.95 12.2-13.44 1.45-10.1-6.35-18.76-16.17-18.76-2.82 0-5.47.73-7.78 1.98-5.09 2.76-8.56 8.16-8.56 14.36v69.67c0 8.12-6.59 14.85-14.47 16.14-1.43.24-2.74-.87-2.74-2.33V59.32c0-12.6 6.94-23.58 17.21-29.29z" class="cls-1"/></g></svg>