<svg xmlns="http://www.w3.org/2000/svg" role="img" viewBox="-11.34 -11.34 589.68 245.68"><title>PQShield Ltd. (member) logo</title><defs><clipPath id="a" clipPathUnits="userSpaceOnUse"><path d="M0 223.937h481.891V0H0z"/></clipPath><clipPath id="b" clipPathUnits="userSpaceOnUse"><path d="M92.615 142.988V97.587h9.927v14.105h1.452c6.962 0 11.319 4.237 11.319 11.803v7.689c0 7.505-4.357 11.804-11.319 11.804zm9.927-8.9h1.452c1.272 0 1.454-1.028 1.454-4.115v-5.267c0-3.087-.182-4.177-1.454-4.177h-1.452z"/></clipPath><clipPath id="d" clipPathUnits="userSpaceOnUse"><path d="M117.372 131.668v-22.762c0-7.505 4.419-11.803 11.381-11.803h.12l7.022-6.961 6.963 6.961-4.601 4.601c1.149 1.876 1.815 4.298 1.815 7.202v22.762c0 7.566-4.358 11.805-11.319 11.805-6.962 0-11.381-4.239-11.381-11.805m9.927-21.55v20.34c0 3.086.122 4.176 1.454 4.176 1.271 0 1.452-1.09 1.452-4.176v-20.34c0-3.086-.181-4.177-1.452-4.177-1.332 0-1.454 1.091-1.454 4.177"/></clipPath><clipPath id="f" clipPathUnits="userSpaceOnUse"><path d="M145.4 114.688v-6.205c0-16.797 11.35-24.667 19.825-30.872 8.323-6.053 12.259-10.29 12.259-15.738v-3.179c0-5.902-.456-8.322-3.784-8.322-3.329 0-3.632 3.177-3.632 10.441v5.297H145.4v-8.324c0-18.764 10.896-29.509 28.3-29.509 17.403 0 28.602 10.745 28.602 29.509v6.206c0 16.797-11.35 24.818-19.673 31.023-8.627 6.053-12.561 10.139-12.561 15.588v3.177c0 5.751.453 8.323 3.632 8.323 3.328 0 3.784-3.027 3.784-9.836v-4.389h24.818v6.81c0 18.916-11.199 29.509-28.602 29.509-17.252 0-28.3-10.593-28.3-29.509"/></clipPath><clipPath id="h" clipPathUnits="userSpaceOnUse"><path d="M244.201 142.988v-45.25h-11.805v45.25h-24.818v-113.5h24.818v46.005h11.805V29.488h24.818v113.5z"/></clipPath><clipPath id="j" clipPathUnits="userSpaceOnUse"><path d="M274.295 29.488h24.818v113.5h-24.818z"/></clipPath><clipPath id="l" clipPathUnits="userSpaceOnUse"><path d="M304.389 142.988v-113.5h40.86V51.43h-16.041v24.214h16.041v21.943h-16.041v23.457h16.041v21.944z"/></clipPath><clipPath id="n" clipPathUnits="userSpaceOnUse"><path d="M350.525 142.988v-113.5h40.86v22.246h-16.042v91.254z"/></clipPath><clipPath id="p" clipPathUnits="userSpaceOnUse"><path d="M396.661 142.988v-113.5h28.45c17.403 0 28.299 10.745 28.299 29.51v54.479c0 18.765-10.896 29.511-28.299 29.511zm24.818-22.247h3.632c3.177 0 3.631-2.572 3.631-10.291V62.023c0-7.717-.454-10.289-3.631-10.289h-3.632z"/></clipPath><linearGradient id="c" x1="0" x2="1" y1="0" y2="0" gradientTransform="rotate(-90 123.348 19.421) scale(45.16595)" gradientUnits="userSpaceOnUse" spreadMethod="pad"><stop offset="0" stop-color="#f3965b" stop-opacity="1"/><stop offset="1" stop-color="#d26125" stop-opacity="1"/></linearGradient><linearGradient id="e" x1="0" x2="1" y1="0" y2="0" gradientTransform="rotate(-90 136.401 6.323) scale(45.16594)" gradientUnits="userSpaceOnUse" spreadMethod="pad"><stop offset="0" stop-color="#f3965b" stop-opacity="1"/><stop offset="1" stop-color="#d26125" stop-opacity="1"/></linearGradient><linearGradient id="g" x1="0" x2="1" y1="0" y2="0" gradientTransform="rotate(-90 158.176 -15.661) scale(55.93208)" gradientUnits="userSpaceOnUse" spreadMethod="pad"><stop offset="0" stop-color="#72b3d3" stop-opacity="1"/><stop offset="1" stop-color="#00789a" stop-opacity="1"/></linearGradient><linearGradient id="i" x1="0" x2="1" y1="0" y2="0" gradientTransform="matrix(0 -55.93213 -55.93213 0 238.299 142.455)" gradientUnits="userSpaceOnUse" spreadMethod="pad"><stop offset="0" stop-color="#72b3d3" stop-opacity="1"/><stop offset="1" stop-color="#00789a" stop-opacity="1"/></linearGradient><linearGradient id="k" x1="0" x2="1" y1="0" y2="0" gradientTransform="matrix(0 -55.93213 -55.93213 0 286.704 142.455)" gradientUnits="userSpaceOnUse" spreadMethod="pad"><stop offset="0" stop-color="#72b3d3" stop-opacity="1"/><stop offset="1" stop-color="#00789a" stop-opacity="1"/></linearGradient><linearGradient id="m" x1="0" x2="1" y1="0" y2="0" gradientTransform="matrix(0 -55.93213 -55.93213 0 324.82 142.455)" gradientUnits="userSpaceOnUse" spreadMethod="pad"><stop offset="0" stop-color="#72b3d3" stop-opacity="1"/><stop offset="1" stop-color="#00789a" stop-opacity="1"/></linearGradient><linearGradient id="o" x1="0" x2="1" y1="0" y2="0" gradientTransform="matrix(0 -55.93213 -55.93213 0 370.955 142.455)" gradientUnits="userSpaceOnUse" spreadMethod="pad"><stop offset="0" stop-color="#72b3d3" stop-opacity="1"/><stop offset="1" stop-color="#00789a" stop-opacity="1"/></linearGradient><linearGradient id="q" x1="0" x2="1" y1="0" y2="0" gradientTransform="matrix(0 -55.93213 -55.93213 0 425.035 142.455)" gradientUnits="userSpaceOnUse" spreadMethod="pad"><stop offset="0" stop-color="#72b3d3" stop-opacity="1"/><stop offset="1" stop-color="#00789a" stop-opacity="1"/></linearGradient></defs><g transform="matrix(1.33333 0 0 -1.33333 -37.28 261.037)"><path fill="none" stroke="#80807f" stroke-dasharray="none" stroke-linecap="round" stroke-linejoin="round" stroke-miterlimit="10" stroke-opacity="1" stroke-width=".5" d="M63.72 40.825l13.609-.646"/><path fill="none" stroke="#80807f" stroke-dasharray="none" stroke-linecap="round" stroke-linejoin="round" stroke-miterlimit="10" stroke-opacity="1" stroke-width=".5" d="M77.33 40.178l44.039-2.093"/><path fill="none" stroke="#80807f" stroke-dasharray="none" stroke-linecap="round" stroke-linejoin="round" stroke-miterlimit="10" stroke-opacity="1" stroke-width=".5" d="M121.37 38.085l24.871-1.182"/><path fill="none" stroke="#80807f" stroke-dasharray="none" stroke-linecap="round" stroke-linejoin="round" stroke-miterlimit="10" stroke-opacity="1" stroke-width=".5" d="M28.213 63.565l12.464-.675"/><path fill="none" stroke="#80807f" stroke-dasharray="none" stroke-linecap="round" stroke-linejoin="round" stroke-miterlimit="10" stroke-opacity="1" stroke-width=".5" d="M40.677 62.89l42.143-2.285"/><path fill="none" stroke="#80807f" stroke-dasharray="none" stroke-linecap="round" stroke-linejoin="round" stroke-miterlimit="10" stroke-opacity="1" stroke-width=".5" d="M82.82 60.605l42.142-2.284"/><path fill="none" stroke="#80807f" stroke-dasharray="none" stroke-linecap="round" stroke-linejoin="round" stroke-miterlimit="10" stroke-opacity="1" stroke-width=".5" d="M124.961 58.321l15.873-.861"/><path fill="none" stroke="#80807f" stroke-dasharray="none" stroke-linecap="round" stroke-linejoin="round" stroke-miterlimit="10" stroke-opacity="1" stroke-width=".5" d="M36.35 84.23l11.713-.721"/><path fill="none" stroke="#80807f" stroke-dasharray="none" stroke-linecap="round" stroke-linejoin="round" stroke-miterlimit="10" stroke-opacity="1" stroke-width=".5" d="M48.063 83.51l40.245-2.476"/><path fill="none" stroke="#80807f" stroke-dasharray="none" stroke-linecap="round" stroke-linejoin="round" stroke-miterlimit="10" stroke-opacity="1" stroke-width=".5" d="M88.308 81.033l40.245-2.477"/><path fill="none" stroke="#80807f" stroke-dasharray="none" stroke-linecap="round" stroke-linejoin="round" stroke-miterlimit="10" stroke-opacity="1" stroke-width=".5" d="M128.553 78.557l29.879-1.838"/><path fill="none" stroke="#80807f" stroke-dasharray="none" stroke-linecap="round" stroke-linejoin="round" stroke-miterlimit="10" stroke-opacity="1" stroke-width=".5" d="M44.137 104.915l11.311-.787"/><path fill="none" stroke="#80807f" stroke-dasharray="none" stroke-linecap="round" stroke-linejoin="round" stroke-miterlimit="10" stroke-opacity="1" stroke-width=".5" d="M55.447 104.129l32.372-2.252"/><path fill="none" stroke="#80807f" stroke-dasharray="none" stroke-linecap="round" stroke-linejoin="round" stroke-miterlimit="10" stroke-opacity="1" stroke-width=".5" d="M51.935 125.603l10.898-.855"/><path fill="none" stroke="#80807f" stroke-dasharray="none" stroke-linecap="round" stroke-linejoin="round" stroke-miterlimit="10" stroke-opacity="1" stroke-width=".5" d="M62.833 124.748l24.98-1.96"/><path fill="none" stroke="#80807f" stroke-dasharray="none" stroke-linecap="round" stroke-linejoin="round" stroke-miterlimit="10" stroke-opacity="1" stroke-width=".5" d="M59.9 146.278l10.317-.911"/><path fill="none" stroke="#80807f" stroke-dasharray="none" stroke-linecap="round" stroke-linejoin="round" stroke-miterlimit="10" stroke-opacity="1" stroke-width=".5" d="M70.218 145.367l17.609-1.555"/><path fill="none" stroke="#80807f" stroke-dasharray="none" stroke-linecap="round" stroke-linejoin="round" stroke-miterlimit="10" stroke-opacity="1" stroke-width=".5" d="M67.833 166.957l9.771-.97"/><path fill="none" stroke="#80807f" stroke-dasharray="none" stroke-linecap="round" stroke-linejoin="round" stroke-miterlimit="10" stroke-opacity="1" stroke-width=".5" d="M77.604 165.987l32.658-3.244"/><path fill="none" stroke="#80807f" stroke-dasharray="none" stroke-linecap="round" stroke-linejoin="round" stroke-miterlimit="10" stroke-opacity="1" stroke-width=".5" d="M110.262 162.743l32.658-3.243"/><path fill="none" stroke="#80807f" stroke-dasharray="none" stroke-linecap="round" stroke-linejoin="round" stroke-miterlimit="10" stroke-opacity="1" stroke-width=".5" d="M142.92 159.5l32.658-3.244"/><path fill="none" stroke="#80807f" stroke-dasharray="none" stroke-linecap="round" stroke-linejoin="round" stroke-miterlimit="10" stroke-opacity="1" stroke-width=".5" d="M175.578 156.256l32.658-3.244"/><path fill="none" stroke="#80807f" stroke-dasharray="none" stroke-linecap="round" stroke-linejoin="round" stroke-miterlimit="10" stroke-opacity="1" stroke-width=".5" d="M208.236 153.013l32.658-3.243"/><path fill="none" stroke="#80807f" stroke-dasharray="none" stroke-linecap="round" stroke-linejoin="round" stroke-miterlimit="10" stroke-opacity="1" stroke-width=".5" d="M240.895 149.77l20.561-2.042"/><path fill="none" stroke="#80807f" stroke-dasharray="none" stroke-linecap="round" stroke-linejoin="round" stroke-miterlimit="10" stroke-opacity="1" stroke-width=".5" d="M75.534 187.662l9.454-1.056"/><path fill="none" stroke="#80807f" stroke-dasharray="none" stroke-linecap="round" stroke-linejoin="round" stroke-miterlimit="10" stroke-opacity="1" stroke-width=".5" d="M84.988 186.606l30.762-3.435"/><path fill="none" stroke="#80807f" stroke-dasharray="none" stroke-linecap="round" stroke-linejoin="round" stroke-miterlimit="10" stroke-opacity="1" stroke-width=".5" d="M115.75 183.17l30.762-3.436"/><path fill="none" stroke="#80807f" stroke-dasharray="none" stroke-linecap="round" stroke-linejoin="round" stroke-miterlimit="10" stroke-opacity="1" stroke-width=".5" d="M146.512 179.735l30.762-3.435"/><path fill="none" stroke="#80807f" stroke-dasharray="none" stroke-linecap="round" stroke-linejoin="round" stroke-miterlimit="10" stroke-opacity="1" stroke-width=".5" d="M177.274 176.3l30.762-3.435"/><path fill="none" stroke="#80807f" stroke-dasharray="none" stroke-linecap="round" stroke-linejoin="round" stroke-miterlimit="10" stroke-opacity="1" stroke-width=".5" d="M208.035 172.865l30.761-3.435"/><path fill="none" stroke="#80807f" stroke-dasharray="none" stroke-linecap="round" stroke-linejoin="round" stroke-miterlimit="10" stroke-opacity="1" stroke-width=".5" d="M238.796 169.43l30.762-3.436"/><path fill="none" stroke="#80807f" stroke-dasharray="none" stroke-linecap="round" stroke-linejoin="round" stroke-miterlimit="10" stroke-opacity="1" stroke-width=".5" d="M269.558 165.995l30.762-3.435"/><path fill="none" stroke="#80807f" stroke-dasharray="none" stroke-linecap="round" stroke-linejoin="round" stroke-miterlimit="10" stroke-opacity="1" stroke-width=".5" d="M37.57 54.174l3.12 8.713"/><path fill="none" stroke="#80807f" stroke-dasharray="none" stroke-linecap="round" stroke-linejoin="round" stroke-miterlimit="10" stroke-opacity="1" stroke-width=".5" d="M40.69 62.887l7.385 20.619"/><path fill="none" stroke="#80807f" stroke-dasharray="none" stroke-linecap="round" stroke-linejoin="round" stroke-miterlimit="10" stroke-opacity="1" stroke-width=".5" d="M48.075 83.506l7.384 20.619"/><path fill="none" stroke="#80807f" stroke-dasharray="none" stroke-linecap="round" stroke-linejoin="round" stroke-miterlimit="10" stroke-opacity="1" stroke-width=".5" d="M55.459 104.126l7.385 20.62"/><path fill="none" stroke="#80807f" stroke-dasharray="none" stroke-linecap="round" stroke-linejoin="round" stroke-miterlimit="10" stroke-opacity="1" stroke-width=".5" d="M62.844 124.745l7.385 20.619"/><path fill="none" stroke="#80807f" stroke-dasharray="none" stroke-linecap="round" stroke-linejoin="round" stroke-miterlimit="10" stroke-opacity="1" stroke-width=".5" d="M70.229 145.364l7.385 20.62"/><path fill="none" stroke="#80807f" stroke-dasharray="none" stroke-linecap="round" stroke-linejoin="round" stroke-miterlimit="10" stroke-opacity="1" stroke-width=".5" d="M77.613 165.983l7.385 20.619"/><path fill="none" stroke="#80807f" stroke-dasharray="none" stroke-linecap="round" stroke-linejoin="round" stroke-miterlimit="10" stroke-opacity="1" stroke-width=".5" d="M84.998 186.602l3.195 8.922"/><path fill="none" stroke="#80807f" stroke-dasharray="none" stroke-linecap="round" stroke-linejoin="round" stroke-miterlimit="10" stroke-opacity="1" stroke-width=".5" d="M77.345 40.175l5.487 20.427"/><path fill="none" stroke="#80807f" stroke-dasharray="none" stroke-linecap="round" stroke-linejoin="round" stroke-miterlimit="10" stroke-opacity="1" stroke-width=".5" d="M82.832 60.602L88.32 81.03"/><path fill="none" stroke="#80807f" stroke-dasharray="none" stroke-linecap="round" stroke-linejoin="round" stroke-miterlimit="10" stroke-opacity="1" stroke-width=".5" d="M88.32 81.03l3.217 11.975"/><path fill="none" stroke="#80807f" stroke-dasharray="none" stroke-linecap="round" stroke-linejoin="round" stroke-miterlimit="10" stroke-opacity="1" stroke-width=".5" d="M106.15 147.394l4.122 15.346"/><path fill="none" stroke="#80807f" stroke-dasharray="none" stroke-linecap="round" stroke-linejoin="round" stroke-miterlimit="10" stroke-opacity="1" stroke-width=".5" d="M110.272 162.74l5.488 20.427"/><path fill="none" stroke="#80807f" stroke-dasharray="none" stroke-linecap="round" stroke-linejoin="round" stroke-miterlimit="10" stroke-opacity="1" stroke-width=".5" d="M115.76 183.167l2.371 8.828"/><path fill="none" stroke="#80807f" stroke-dasharray="none" stroke-linecap="round" stroke-linejoin="round" stroke-miterlimit="10" stroke-opacity="1" stroke-width=".5" d="M121.383 38.083l3.592 20.236"/><path fill="none" stroke="#80807f" stroke-dasharray="none" stroke-linecap="round" stroke-linejoin="round" stroke-miterlimit="10" stroke-opacity="1" stroke-width=".5" d="M124.975 58.318l3.591 20.235"/><path fill="none" stroke="#80807f" stroke-dasharray="none" stroke-linecap="round" stroke-linejoin="round" stroke-miterlimit="10" stroke-opacity="1" stroke-width=".5" d="M128.565 78.554l1.88 10.592"/><path fill="none" stroke="#80807f" stroke-dasharray="none" stroke-linecap="round" stroke-linejoin="round" stroke-miterlimit="10" stroke-opacity="1" stroke-width=".5" d="M140.14 143.77l2.79 15.726"/><path fill="none" stroke="#80807f" stroke-dasharray="none" stroke-linecap="round" stroke-linejoin="round" stroke-miterlimit="10" stroke-opacity="1" stroke-width=".5" d="M142.93 159.497l3.592 20.236"/><path fill="none" stroke="#80807f" stroke-dasharray="none" stroke-linecap="round" stroke-linejoin="round" stroke-miterlimit="10" stroke-opacity="1" stroke-width=".5" d="M146.522 179.732l1.579 8.9"/><path fill="none" stroke="#80807f" stroke-dasharray="none" stroke-linecap="round" stroke-linejoin="round" stroke-miterlimit="10" stroke-opacity="1" stroke-width=".5" d="M174.947 148.664l.642 7.59"/><path fill="none" stroke="#80807f" stroke-dasharray="none" stroke-linecap="round" stroke-linejoin="round" stroke-miterlimit="10" stroke-opacity="1" stroke-width=".5" d="M175.589 156.253l1.694 20.043"/><path fill="none" stroke="#80807f" stroke-dasharray="none" stroke-linecap="round" stroke-linejoin="round" stroke-miterlimit="10" stroke-opacity="1" stroke-width=".5" d="M177.283 176.297l.745 8.813"/><path fill="none" stroke="#80807f" stroke-dasharray="none" stroke-linecap="round" stroke-linejoin="round" stroke-miterlimit="10" stroke-opacity="1" stroke-width=".5" d="M208.3 147.8l-.053 5.21"/><path fill="none" stroke="#80807f" stroke-dasharray="none" stroke-linecap="round" stroke-linejoin="round" stroke-miterlimit="10" stroke-opacity="1" stroke-width=".5" d="M208.247 153.01l-.202 19.852"/><path fill="none" stroke="#80807f" stroke-dasharray="none" stroke-linecap="round" stroke-linejoin="round" stroke-miterlimit="10" stroke-opacity="1" stroke-width=".5" d="M208.045 172.862l-.09 8.868"/><path fill="none" stroke="#80807f" stroke-dasharray="none" stroke-linecap="round" stroke-linejoin="round" stroke-miterlimit="10" stroke-opacity="1" stroke-width=".5" d="M240.905 149.767l-2.099 19.66"/><path fill="none" stroke="#80807f" stroke-dasharray="none" stroke-linecap="round" stroke-linejoin="round" stroke-miterlimit="10" stroke-opacity="1" stroke-width=".5" d="M238.807 169.427l-.917 8.59"/><path fill="none" stroke="#80807f" stroke-dasharray="none" stroke-linecap="round" stroke-linejoin="round" stroke-miterlimit="10" stroke-opacity="1" stroke-width=".5" d="M273.34 147.617l-3.771 18.375"/><path fill="none" stroke="#80807f" stroke-dasharray="none" stroke-linecap="round" stroke-linejoin="round" stroke-miterlimit="10" stroke-opacity="1" stroke-width=".5" d="M269.568 165.992l-1.775 8.653"/><path fill="none" stroke="#80807f" stroke-dasharray="none" stroke-linecap="round" stroke-linejoin="round" stroke-miterlimit="10" stroke-opacity="1" stroke-width=".5" d="M304.918 147.548l-4.588 15.008"/><path fill="none" stroke="#80807f" stroke-dasharray="none" stroke-linecap="round" stroke-linejoin="round" stroke-miterlimit="10" stroke-opacity="1" stroke-width=".5" d="M300.33 162.556l-2.578 8.435"/><g clip-path="url(#a)"><path fill="#0095c0" fill-opacity="1" fill-rule="nonzero" stroke="none" d="M45.162 62.645c-.421-1.207-2.774-2.078-5.256-1.945-2.48.133-4.132 1.22-3.687 2.43.444 1.209 2.797 2.08 5.255 1.946 2.458-.136 4.109-1.224 3.688-2.431"/><path fill="#0095c0" fill-opacity="1" fill-rule="nonzero" stroke="none" d="M52.345 83.244c-.421-1.207-2.684-2.069-5.054-1.925-2.37.144-3.93 1.241-3.486 2.45.444 1.21 2.707 2.072 5.054 1.926 2.346-.147 3.908-1.244 3.486-2.451"/><path fill="#0095c0" fill-opacity="1" fill-rule="nonzero" stroke="none" d="M59.528 103.842c-.421-1.207-2.594-2.06-4.853-1.905-2.258.155-3.73 1.262-3.285 2.471.445 1.21 2.617 2.063 4.853 1.905 2.235-.158 3.706-1.264 3.285-2.471"/><path fill="#0095c0" fill-opacity="1" fill-rule="nonzero" stroke="none" d="M66.712 124.441c-.421-1.207-2.504-2.051-4.651-1.884-2.148.166-3.53 1.281-3.084 2.491.444 1.209 2.527 2.053 4.65 1.884 2.125-.169 3.506-1.284 3.085-2.491"/><path fill="#0095c0" fill-opacity="1" fill-rule="nonzero" stroke="none" d="M73.896 145.04c-.421-1.207-2.414-2.042-4.45-1.864-2.037.177-3.328 1.302-2.884 2.511.445 1.209 2.438 2.044 4.45 1.864 2.014-.179 3.305-1.304 2.884-2.511"/><path fill="#0095c0" fill-opacity="1" fill-rule="nonzero" stroke="none" d="M81.078 165.64c-.421-1.207-2.323-2.033-4.249-1.844-1.925.189-3.126 1.323-2.682 2.532.445 1.21 2.348 2.035 4.249 1.844 1.903-.191 3.103-1.325 2.682-2.532"/><path fill="#0095c0" fill-opacity="1" fill-rule="nonzero" stroke="none" d="M88.262 186.238c-.421-1.207-2.233-2.023-4.048-1.824-1.813.2-2.925 1.344-2.48 2.553.444 1.209 2.257 2.026 4.048 1.823 1.791-.202 2.901-1.345 2.48-2.552"/><path fill="#0095c0" fill-opacity="1" fill-rule="nonzero" stroke="none" d="M82.018 39.953c-.31-1.196-2.663-2.067-5.256-1.945-2.592.121-4.424 1.191-4.09 2.389.333 1.198 2.687 2.069 5.255 1.946 2.569-.124 4.401-1.194 4.091-2.39"/><path fill="#0095c0" fill-opacity="1" fill-rule="nonzero" stroke="none" d="M87.304 60.36c-.31-1.196-2.572-2.058-5.054-1.925-2.481.132-4.222 1.212-3.889 2.41.334 1.198 2.596 2.06 5.054 1.925 2.457-.136 4.199-1.215 3.889-2.41"/><path fill="#0095c0" fill-opacity="1" fill-rule="nonzero" stroke="none" d="M92.59 80.767c-.311-1.195-2.483-2.048-4.853-1.905-2.37.144-4.021 1.233-3.688 2.431.333 1.198 2.506 2.051 4.853 1.905 2.346-.147 3.998-1.235 3.688-2.431"/><path fill="#0095c0" fill-opacity="1" fill-rule="nonzero" stroke="none" d="M113.737 162.396c-.311-1.196-2.123-2.012-4.048-1.824-1.926.189-3.217 1.314-2.883 2.512.333 1.198 2.146 2.015 4.047 1.824 1.903-.192 3.194-1.317 2.884-2.512"/><path fill="#0095c0" fill-opacity="1" fill-rule="nonzero" stroke="none" d="M119.023 182.803c-.31-1.195-2.032-2.003-3.847-1.803-1.813.2-3.014 1.334-2.681 2.532.334 1.198 2.055 2.006 3.846 1.803 1.791-.202 2.992-1.336 2.682-2.532"/><path fill="#0095c0" fill-opacity="1" fill-rule="nonzero" stroke="none" d="M126.056 37.86c-.198-1.185-2.461-2.046-5.054-1.925-2.592.121-4.513 1.182-4.292 2.369.223 1.187 2.486 2.049 5.055 1.925 2.568-.123 4.49-1.184 4.291-2.369"/><path fill="#0095c0" fill-opacity="1" fill-rule="nonzero" stroke="none" d="M129.446 58.076c-.199-1.185-2.372-2.038-4.853-1.905-2.481.133-4.313 1.203-4.09 2.39.221 1.187 2.394 2.04 4.852 1.905 2.457-.136 4.289-1.205 4.091-2.39"/><path fill="#0095c0" fill-opacity="1" fill-rule="nonzero" stroke="none" d="M132.836 78.291c-.198-1.185-2.281-2.028-4.651-1.884-2.37.143-4.112 1.222-3.89 2.409.223 1.187 2.306 2.031 4.651 1.885 2.347-.146 4.088-1.225 3.89-2.41"/><path fill="#0095c0" fill-opacity="1" fill-rule="nonzero" stroke="none" d="M146.396 159.152c-.198-1.185-1.921-1.992-3.847-1.803-1.924.189-3.306 1.304-3.084 2.491.223 1.187 1.945 1.995 3.847 1.803 1.901-.191 3.282-1.306 3.084-2.491"/><path fill="#0095c0" fill-opacity="1" fill-rule="nonzero" stroke="none" d="M149.785 179.368c-.198-1.185-1.831-1.983-3.645-1.783-1.814.2-3.105 1.325-2.883 2.512.222 1.187 1.854 1.985 3.645 1.783 1.791-.203 3.082-1.327 2.883-2.512"/><path fill="#0095c0" fill-opacity="1" fill-rule="nonzero" stroke="none" d="M179.054 155.91c-.087-1.173-1.72-1.972-3.645-1.783-1.925.189-3.396 1.296-3.286 2.471.112 1.176 1.744 1.974 3.646 1.783 1.901-.192 3.373-1.298 3.285-2.471"/><path fill="#0095c0" fill-opacity="1" fill-rule="nonzero" stroke="none" d="M180.547 175.933c-.087-1.173-1.629-1.962-3.443-1.762-1.815.2-3.196 1.315-3.085 2.491.111 1.176 1.653 1.965 3.444 1.762 1.791-.202 3.172-1.318 3.084-2.491"/><path fill="#0095c0" fill-opacity="1" fill-rule="nonzero" stroke="none" d="M211.713 152.666c.023-1.162-1.519-1.951-3.444-1.762-1.926.189-3.487 1.286-3.487 2.45 0 1.165 1.542 1.954 3.444 1.763 1.902-.192 3.463-1.289 3.487-2.451"/><path fill="#0095c0" fill-opacity="1" fill-rule="nonzero" stroke="none" d="M211.309 172.498c.024-1.162-1.428-1.942-3.242-1.742-1.815.2-3.285 1.306-3.285 2.471-.001 1.164 1.451 1.944 3.242 1.742 1.791-.203 3.262-1.309 3.285-2.471"/><path fill="#0095c0" fill-opacity="1" fill-rule="nonzero" stroke="none" d="M244.371 149.422c.135-1.151-1.317-1.931-3.242-1.742-1.926.189-3.577 1.277-3.689 2.43-.111 1.153 1.341 1.933 3.243 1.742 1.902-.191 3.553-1.28 3.688-2.43"/><path fill="#0095c0" fill-opacity="1" fill-rule="nonzero" stroke="none" d="M242.07 169.062c.135-1.15-1.227-1.921-3.041-1.721-1.814.2-3.375 1.297-3.486 2.45-.112 1.153 1.25 1.924 3.041 1.722 1.791-.202 3.351-1.3 3.486-2.451"/><path fill="#0095c0" fill-opacity="1" fill-rule="nonzero" stroke="none" d="M272.833 165.627c.245-1.14-1.026-1.901-2.841-1.701-1.813.2-3.466 1.288-3.687 2.43-.223 1.142 1.049 1.904 2.84 1.702 1.791-.203 3.442-1.291 3.688-2.431"/><path fill="#0095c0" fill-opacity="1" fill-rule="nonzero" stroke="none" d="M303.595 162.192c.356-1.128-.825-1.881-2.64-1.681-1.813.2-3.555 1.279-3.888 2.41-.334 1.131.847 1.883 2.638 1.681 1.791-.202 3.533-1.282 3.89-2.41"/></g><g clip-path="url(#b)"><path fill="url(#c)" stroke="none" d="M92.615 142.988V97.587h9.927v14.105h1.452c6.962 0 11.319 4.237 11.319 11.803v7.689c0 7.505-4.357 11.804-11.319 11.804zm9.927-8.9h1.452c1.272 0 1.454-1.028 1.454-4.115v-5.267c0-3.087-.182-4.177-1.454-4.177h-1.452z"/></g><g clip-path="url(#d)"><path fill="url(#e)" stroke="none" d="M117.372 131.668v-22.762c0-7.505 4.419-11.803 11.381-11.803h.12l7.022-6.961 6.963 6.961-4.601 4.601c1.149 1.876 1.815 4.298 1.815 7.202v22.762c0 7.566-4.358 11.805-11.319 11.805-6.962 0-11.381-4.239-11.381-11.805m9.927-21.55v20.34c0 3.086.122 4.176 1.454 4.176 1.271 0 1.452-1.09 1.452-4.176v-20.34c0-3.086-.181-4.177-1.452-4.177-1.332 0-1.454 1.091-1.454 4.177"/></g><g clip-path="url(#f)"><path fill="url(#g)" stroke="none" d="M145.4 114.688v-6.205c0-16.797 11.35-24.667 19.825-30.872 8.323-6.053 12.259-10.29 12.259-15.738v-3.179c0-5.902-.456-8.322-3.784-8.322-3.329 0-3.632 3.177-3.632 10.441v5.297H145.4v-8.324c0-18.764 10.896-29.509 28.3-29.509 17.403 0 28.602 10.745 28.602 29.509v6.206c0 16.797-11.35 24.818-19.673 31.023-8.627 6.053-12.561 10.139-12.561 15.588v3.177c0 5.751.453 8.323 3.632 8.323 3.328 0 3.784-3.027 3.784-9.836v-4.389h24.818v6.81c0 18.916-11.199 29.509-28.602 29.509-17.252 0-28.3-10.593-28.3-29.509"/></g><g clip-path="url(#h)"><path fill="url(#i)" stroke="none" d="M244.201 142.988v-45.25h-11.805v45.25h-24.818v-113.5h24.818v46.005h11.805V29.488h24.818v113.5z"/></g><g clip-path="url(#j)"><path fill="url(#k)" stroke="none" d="M274.295 29.488h24.818v113.5h-24.818z"/></g><g clip-path="url(#l)"><path fill="url(#m)" stroke="none" d="M304.389 142.988v-113.5h40.86V51.43h-16.041v24.214h16.041v21.943h-16.041v23.457h16.041v21.944z"/></g><g clip-path="url(#n)"><path fill="url(#o)" stroke="none" d="M350.525 142.988v-113.5h40.86v22.246h-16.042v91.254z"/></g><g clip-path="url(#p)"><path fill="url(#q)" stroke="none" d="M396.661 142.988v-113.5h28.45c17.403 0 28.299 10.745 28.299 29.51v54.479c0 18.765-10.896 29.511-28.299 29.511zm24.818-22.247h3.632c3.177 0 3.631-2.572 3.631-10.291V62.023c0-7.717-.454-10.289-3.631-10.289h-3.632z"/></g></g></svg>