<svg xmlns="http://www.w3.org/2000/svg" role="img" viewBox="-3.98 -2.73 402.22 346.22"><title>PULP Platform logo</title><g fill-rule="evenodd"><path fill="#292b2a" d="M223.031 6.044c-1.551.593-3.243 1.445-4.296 2.166-2.326 1.59-72.456 72.069-72.991 73.354-.286.686-.693 1.356-.905 1.488-.782.49-.711 6.878.091 8.176.39.63.709 1.349.709 1.596 0 .248 5.75 6.212 12.777 13.254 15.095 15.128 13.901 14.435 17.393 10.095.824-1.025 1.651-2.112 1.837-2.416 5.277-8.622 10.882-12 15.661-9.439.695.373 1.433.678 1.64.678.206 0 .651.305.989.677.337.373.752.678.921.678.312 0 2.322 1.432 3.326 2.37.299.28 1.066.984 1.704 1.565 2.329 2.119 5.395 5.828 5.395 6.525 0 .189.194.466.432.615 2.078 1.304 3.283 9.925 1.6 11.448-.372.337-.677.77-.677.961 0 .615-5.466 5.498-6.885 6.151-.861.397-5.15 3.256-6.204 4.136-1.727 1.442-1.934 1.18 11.313 14.297 14.907 14.762 12.904 13.08 16.17 13.574 1.512.229 3.116.694 3.628 1.052 1.094.765 2.403.829 3.081.15.27-.27.929-.597 1.464-.726.535-.129 1.201-.441 1.48-.693 1.998-1.805 4.403-4.263 4.403-4.5 0-.156.305-.364.678-.461.372-.098.677-.403.677-.678s.305-.58.677-.677c.373-.098.678-.402.678-.678 0-.275.305-.579.677-.677.373-.097.678-.41.678-.694s.304-.614.677-.732c.373-.118.677-.433.677-.7 0-.267.149-.485.332-.485.432 0 4.071-3.64 4.071-4.072 0-.182.219-.331.486-.331.266 0 .576-.289.688-.641.112-.353.503-.719.87-.815.366-.096.666-.4.666-.675s.305-.58.677-.677c.373-.098.678-.402.678-.677 0-.276.305-.58.677-.678.373-.097.678-.41.678-.694s.304-.614.677-.732c.372-.118.677-.433.677-.7 0-.267.211-.485.469-.485s.719-.381 1.024-.847c.577-.881 1.894-1.169 1.894-.414 0 .238.305.694.678 1.013.372.319.677.786.677 1.039 0 .252.305.734.677 1.072.373.337.678.809.678 1.049 0 .24.277.635.615.879.338.243.714.709.836 1.035.122.326.454.593.74.593.285 0 .518.164.518.365 0 .454 1.862 2.344 2.309 2.344.181 0 .405.199.498.442.788 2.053 10.144 3.284 12.096 1.591.43-.373 1.115-.678 1.524-.678.408 0 1.018-.305 1.355-.677.337-.373.805-.678 1.04-.678.4 0 1.004-.444 3.102-2.286.477-.419.998-.762 1.157-.762.159 0 .289-.228.289-.508 0-.279.165-.508.365-.508.462 0 2.345-1.865 2.345-2.322 0-.188.305-.439.677-.557.373-.118.678-.428.678-.688 0-.26.305-.637.677-.836.373-.199.678-.53.678-.735 0-.205.381-.726.846-1.158.466-.431.847-1.08.847-1.442 0-.361.22-.741.489-.845.27-.103.594-.767.721-1.475.127-.709.478-1.571.78-1.917.787-.899.783-5.979-.005-6.872-.305-.345-.662-1.134-.794-1.752-.131-.618-.453-1.205-.715-1.306-.262-.1-.479-.357-.484-.57-.008-.401-3.457-3.943-3.84-3.943-.119 0-.505-.267-.858-.593-1.667-1.54-2.516-2.117-3.113-2.117-.356 0-.648-.226-.648-.501 0-.276-.349-.589-.775-.696-2.243-.563-1.795-1.314 4.585-7.685 3.307-3.301 6.012-6.159 6.012-6.35 0-.191.164-.348.365-.348.474 0 2.344-1.871 2.344-2.345 0-.2.132-.364.292-.364.321 0 8.176-7.623 8.176-7.935 0-.107.305-.499.677-.872.373-.372.678-1.042.678-1.487 0-.446.228-.899.508-1.006.651-.25.647-1.044-.01-2.046-.285-.435-.656-2.002-.825-3.483-.398-3.488-.644-4.419-1.228-4.643-.263-.101-.478-.379-.478-.619 0-.985-72.552-72.958-74.513-73.918-1.941-.951-5.886-1.444-7.282-.911m18.837 42.39c3.253 2.466 3.825 4.788 3.598 14.605-.192 8.295-1.027 10.741-4.397 12.884-.048.03-5.015.144-11.038.254-13.293.242-11.911-.608-11.911 7.324 0 7.237.084 7.105-4.474 7.091-2.603-.007-3.113-.103-3.519-.657-.523-.716-.724-41.262-.208-42.072.375-.59 2.256-.661 17.007-.637l13.379.022 1.563 1.186m-23.542 9.341c-.332.866-.236 7.132.125 8.079l.33.869h8.79c7.54 0 8.866-.076 9.323-.532.546-.546.803-7.174.326-8.416-.311-.812-18.582-.812-18.894 0m-135.097 72.23c-1.636.647-16.167 15.756-16.167 16.81 0 .922.986 2.037 7.961 8.998 8.04 8.026 8.413 8.33 9.793 7.984.995-.25 16.075-15.338 16.325-16.333.365-1.456-.349-2.359-7.623-9.646-8.277-8.293-8.551-8.501-10.289-7.813m-32.18 31.823c-6.651 6.672-8.035 8.224-8.035 9.008 0 1.731 15.356 16.802 17.118 16.801 2.144-.001 17.091-14.905 17.091-17.042 0-1.637-15.348-16.827-17.002-16.827-1.034 0-1.869.734-9.172 8.06m48.066-.136c-7.11 7.105-8.006 8.121-8.006 9.083 0 1.318 14.957 16.665 16.537 16.966 1.484.284 1.99-.126 9.775-7.918 7.759-7.767 8.262-8.436 7.581-10.081-.831-2.006-15.09-15.676-16.556-15.873l-1.325-.178-8.006 8.001m-24.09 24.082c-6.919 6.916-7.963 8.095-7.963 8.994 0 .898 1.031 2.073 7.737 8.816 7.981 8.024 8.975 8.776 10.52 7.949 1.324-.708 15.612-15.138 15.823-15.98.395-1.574-.277-2.42-7.973-10.032-10.04-9.932-7.924-9.961-18.144.253m135.983 68.152c-.28.109-.62.365-.757.57-.298.446-.35 40.894-.054 41.666.166.433.786.536 3.24.536 4.616 0 4.345.444 4.345-7.113 0-7.934-1.309-7.113 11.335-7.113 15.217 0 16.092-.781 16.097-14.366.003-9.24-1.024-12.104-4.909-13.685-1.37-.558-27.978-1.007-29.297-.495m26.35 9.647c.495.495.56 8.31.075 9.077-.409.649-17.8.967-18.958.347-.846-.452-1.094-9.274-.27-9.606.976-.394 18.746-.225 19.153.182"/><path fill="#04b43d" d="M81.484 90.401c-.322.356-.959.741-1.416.856-.457.114-1.11.471-1.451.792-4.876 4.587-71.504 71.379-71.504 71.68 0 .144-.305.65-.678 1.124-.372.473-.677 1.159-.677 1.524 0 .364-.305 1.05-.678 1.524-.926 1.178-.957 4.719-.051 5.889.344.444.732 1.242.862 1.773.129.531.572 1.435.983 2.008 1.628 2.272 72.391 72.725 73.045 72.725.365 0 .967.325 1.336.722.993 1.066 8.461 1.096 9.616.039.411-.376 1.091-.787 1.513-.915.8-.243 25.821-25.009 25.821-25.558 0-.266-1.159-1.477-3.754-3.926-.295-.278-.792-.506-1.103-.506-.312 0-.898-.381-1.303-.846-.405-.466-.937-.847-1.183-.847s-.447-.149-.447-.332c0-.182-.572-.63-1.27-.994-4.89-2.548-7.818-10.296-5.165-13.669.372-.474.677-.974.677-1.111 0-1.711 10.35-12.345 12.015-12.345.202 0 .627-.304.946-.677.319-.372.929-.677 1.355-.677.426 0 1.036-.305 1.355-.678.5-.584.999-.677 3.635-.677 2.636 0 3.134.093 3.635.677.319.373.83.678 1.136.678 1.081 0 5.728 5.081 5.728 6.264 0 .262.218.598.483.747.644.361 2.227 2.717 2.227 3.315 0 .26.269.673.598.916.33.244.872.87 1.206 1.392 1.104 1.73 1.117 1.72 13.496-10.671 11.871-11.882 13.828-14.06 13.828-15.393 0-.38.305-1.043.677-1.473.91-1.048.935-4.266.047-6.029-.347-.689-1.011-1.995-1.477-2.903-.714-1.392-7.707-8.844-12.331-13.14-.535-.497-2.406-2.364-4.158-4.149-1.753-1.785-3.277-3.249-3.387-3.254-.111-.004-.649-.614-1.197-1.354-.548-.741-1.164-1.347-1.369-1.347-.205 0-.611-.525-.902-1.167-.533-1.176-.317-1.881.575-1.881.214 0 .833-.419 1.375-.932.542-.512 1.584-1.236 2.314-1.609 1.877-.956 6.87-5.942 7.161-7.148.129-.539.519-1.253.865-1.586.955-.92.92-5.97-.048-6.846-.372-.337-.677-.949-.677-1.361 0-.412-.305-1.136-.677-1.61-.373-.474-.678-1.06-.678-1.304 0-.243-.302-.753-.671-1.132-.37-.379-1.435-1.634-2.368-2.788-2.924-3.616-8.022-7.884-10.001-8.372-.558-.138-1.295-.502-1.636-.81-.91-.82-6.968-.823-7.788-.003-.314.314-.913.676-1.331.805-.799.246-1.367.701-2.886 2.311-.507.538-1.57 1.631-2.362 2.429-.792.799-1.439 1.661-1.439 1.918 0 .52-.799 1.671-1.948 2.807-.419.414-.762.91-.762 1.101 0 .192-.241.441-.536.554-1.228.471-2.111.156-3.46-1.234-.768-.792-1.593-1.612-1.833-1.823-.24-.212-.816-.859-1.28-1.44-.464-.58-1.035-1.055-1.27-1.055-.235 0-.427-.13-.427-.289 0-.397-1.965-2.421-2.351-2.421-.172 0-.41-.305-.528-.677-.118-.373-.324-.678-.457-.678s-3.383-3.117-7.223-6.927c-4.175-4.143-7.34-7.018-7.873-7.152-.491-.123-1.045-.511-1.233-.862-.52-.972-8.386-.964-9.266.008m3.974 39.702c1.176.607 15.354 14.965 15.627 15.825.475 1.498-.197 2.357-7.819 9.986-7.248 7.254-8.454 8.239-9.749 7.96-1.323-.284-16.455-15.972-16.455-17.059 0-.921.968-2.017 7.784-8.813 8.692-8.665 8.871-8.799 10.612-7.899m-16.167 31.563c8.606 8.568 8.8 8.858 7.26 10.815-3.331 4.235-15.162 15.155-16.419 15.156-1.762.001-17.118-15.07-17.118-16.801 0-1.566 15.629-17.068 17.207-17.068 1.031 0 1.877.736 9.07 7.898m47.899-.245c7.395 7.349 8.377 8.58 8.011 10.038-.219.872-15.013 15.828-16.029 16.203-1.538.569-2.428-.122-10.227-7.946-6.948-6.968-7.836-7.982-7.836-8.941 0-.962.896-1.978 8.006-9.083l8.006-8.001 1.325.178c1.19.16 2.082.93 8.744 7.552m-24.021 24.1c7.696 7.612 8.368 8.458 7.973 10.032-.211.842-14.499 15.272-15.823 15.98-1.545.827-2.539.075-10.52-7.949-6.706-6.743-7.737-7.918-7.737-8.816 0-1.689 15.415-16.953 17.122-16.953 1.105 0 1.786.584 8.985 7.706"/><path fill="#b3b3b3" d="M221.253 5.494c-.419.202-.762.496-.762.654 0 .158-.312.287-.693.287-.381 0-1.073.381-1.539.847-.466.466-.919.847-1.007.847-.327 0-70.935 70.798-70.935 71.125 0 .187-.226.34-.502.34s-.606.419-.733.931-.524 1.329-.881 1.814c-.917 1.246-.78 9.583.168 10.275.326.238.593.703.593 1.033 0 .886 24.572 25.463 26.23 26.235 1.298.604 2.22.596 2.22-.02 0-.166.192-.302.427-.302.615 0 4.314-4.268 4.315-4.979 0-.224.191-.529.424-.678.575-.366 2.286-2.919 2.286-3.41 0-.216.305-.556.677-.755.373-.2.677-.513.677-.695 0-.183.42-.703.932-1.155.512-.452 1.373-1.212 1.912-1.688.54-.476 1.234-.866 1.544-.866.31 0 .859-.223 1.221-.497.73-.552 3.049-.695 3.351-.206.106.172.687.419 1.29.549 1.275.275 4.021 1.782 4.416 2.424.149.242.417.44.596.44.842 0 9.109 8.472 9.12 9.346.002.204.309.647.682.984.373.337.677.874.677 1.193 0 .318.305.966.678 1.44.704.895 1.047 6.681.396 6.681-.155 0-.498.406-.762.902-.612 1.147-3.519 4.179-4.007 4.179-.203 0-.369.13-.369.289 0 .159-.876.842-1.947 1.518-1.072.676-2.177 1.39-2.456 1.586-.279.197-.82.542-1.202.768-2.184 1.294-2.858 1.81-2.86 2.189-.001.233-.215.424-.475.424s-.787.634-1.171 1.41l-.697 1.411 12.349 12.306c6.792 6.769 12.495 12.307 12.673 12.307.178 0 .596.287.929.638.334.351 1.14.749 1.792.885.652.135 1.414.447 1.694.693.28.245 1.194.495 2.032.555l1.524.108v2.659l-2.904.703c-3.762.91-3.576.755-16.998 14.133-8.78 8.75-11.238 11.023-11.773 10.883-.591-.155-4.058-4.833-4.058-5.476 0-.23-4.414-4.766-5.595-5.751-.304-.253-1.265-.659-2.136-.902-.871-.243-2.075-.64-2.677-.881-.891-.358-1.363-.359-2.54-.007-.796.238-2.132.613-2.971.834-.838.221-1.901.668-2.361.994-.461.326-.972.593-1.137.593-.164 0-.778.383-1.364.851-.585.469-1.22.964-1.41 1.101-2.12 1.528-8.614 8.326-8.625 9.029-.003.171-.217.552-.477.846-2.212 2.51-2.895 8.484-1.325 11.596.927 1.837 6.21 7.398 7.029 7.398.231 0 .697.305 1.034.677.337.373.78.684.984.691.868.033 3.603 3.084 3.192 3.562-.061.072-5.54 5.589-12.174 12.26-6.634 6.671-12.177 12.505-12.318 12.965-.141.46-.5 1.113-.798 1.453-.786.894-.786 7.693 0 8.588.298.339.656.998.794 1.464.138.465.499 1.097.802 1.404 11.738 11.891 70.436 70.496 71.508 71.394 3.445 2.886 8.995 4.002 11.58 2.328.43-.278 1.201-.609 1.714-.736.924-.227 71.092-70.015 73.779-73.379 1.147-1.437 2.342-4.878 2.342-6.746 0-.993 1.251-1.662 3.563-1.908 1.129-.12 2.432-.5 2.943-.859.505-.354 1.084-.643 1.287-.643.202 0 1.1-.724 1.994-1.609.894-.885 2.068-2.015 2.609-2.512.54-.497 2.417-2.364 4.169-4.149 1.753-1.785 3.277-3.25 3.387-3.254.11-.004.649-.614 1.197-1.355.548-.74 1.196-1.346 1.44-1.346.243 0 .443-.124.443-.274 0-.382 7.777-8.194 8.157-8.194.171 0 .31-.192.31-.427s.473-.806 1.052-1.27c.578-.464 1.27-1.072 1.537-1.351 2.599-2.716 5.399-5.419 5.614-5.419.145 0 .264-.134.264-.297 0-.163 2.071-2.335 4.602-4.826 2.531-2.492 5.007-4.97 5.504-5.509.866-.94 1.208-1.275 2.16-2.115.24-.211.815-.859 1.279-1.439.463-.581 1.035-1.056 1.27-1.056.235 0 .427-.129.427-.288 0-.411 1.971-2.421 2.374-2.421.184 0 .335-.137.335-.305 0-.397 2.347-2.743 2.744-2.743.167 0 .305-.152.305-.336 0-.403 2.01-2.374 2.421-2.374.158 0 .288-.164.288-.365 0-.2.446-.81.99-1.355.545-.544 1.154-.99 1.355-.99.201 0 .365-.132.365-.294 0-.162 3.505-3.817 7.79-8.122 4.284-4.305 7.79-8.023 7.79-8.262 0-.24.305-1.004.677-1.7 1.154-2.152.97-6.67-.382-9.374-1.239-2.479-73.008-74.663-74.642-75.073-.464-.116-.844-.333-.844-.48 0-.474-2.078-1.013-3.903-1.013-1.96 0-2.193-.359-2.193-3.365 0-.686-.224-1.543-.498-1.905-.273-.361-.502-.992-.508-1.402-.006-.409-.391-1.156-.857-1.658-.466-.503-.847-1.053-.847-1.224 0-.298-69.094-69.402-71.641-71.651-.687-.607-1.614-1.195-2.061-1.307-.446-.112-.811-.315-.811-.451 0-.964-7.639-1.469-9.399-.62m9.399 1.116c1.527.755 71.166 69.736 75.075 74.366.555.657 1.809 5.443 1.809 6.902 0 1.53.536 1.876 2.905 1.876 1.481 0 2.22.155 2.53.528.241.29.916.727 1.499.971 1.214.507 71.931 70.985 73.401 73.152.517.763.942 1.573.946 1.8.003.227.331 1.036.729 1.799.827 1.588.749 5.002-.14 6.026-.27.312-.595 1.002-.722 1.533-.394 1.655-.877 2.154-36.948 38.174-37.453 37.401-36.451 36.419-37.55 36.768-.396.126-.873.435-1.06.687-.917 1.236-9.282 1.325-10.679.113-.425-.368-.889-.67-1.031-.67-.143 0-5.599-5.334-12.126-11.854-10.921-10.909-13.253-12.943-13.253-11.563 0 .161-.419.839-.931 1.507-.512.668-1.465 2.008-2.117 2.979-4.1 6.104-6.944 7.926-12.355 7.915-4.478-.008-4.647-.064-9.064-2.996-3.47-2.304-11.096-10.782-11.096-12.337 0-.137-.332-.856-.738-1.598-2.736-5.004.048-12.424 6.239-16.628.793-.539 1.62-1.132 1.837-1.318.218-.187 1.167-.796 2.111-1.355.979-.58 1.718-1.263 1.722-1.592.003-.317-5.219-5.811-11.605-12.209-13.173-13.197-13.705-13.895-13.29-17.467.262-2.257-.191-2.917-2.195-3.199-1.816-.256-4.797-1.149-5.036-1.509-.117-.177-.489-.473-.826-.657-1.599-.873-24.62-24.344-24.62-25.101 0-1.057 6.308-6.175 7.611-6.175.818 0 6.143-5.019 7.228-6.813 1.038-1.717 1.077-6.729.063-8.259-.37-.558-.673-1.231-.675-1.495-.001-.264-.231-.721-.512-1.016-.281-.295-1.493-1.779-2.695-3.296-6.443-8.138-14.02-12.177-18.546-9.885-1.264.64-6.022 4.977-6.022 5.489 0 .103-.46.841-1.022 1.639-.562.799-1.585 2.29-2.272 3.315-2.227 3.32-4.019 4.683-5.621 4.277-1.307-.331-25.766-25.185-26.78-27.213-1.053-2.103-1.288-7.668-.391-9.24.265-.466.703-1.321.973-1.9.372-.797 70.394-71.163 72.83-73.188 3.133-2.604 8.595-3.168 12.41-1.283m-20.425 41.362c-.288.289-.318 40.496-.03 41.247.269.699 6.273.791 6.843.105.211-.255.401-2.869.465-6.384.142-7.877-1.101-7.07 10.902-7.08 12.695-.011 13.691-.283 15.656-4.273l.857-1.741-.106-8.589-.106-8.59-.969-1.427c-.532-.786-1.523-1.852-2.201-2.371l-1.233-.944-14.921-.094c-8.206-.052-15.027.011-15.157.141m30.322.885c1.347.965 1.918 1.538 2.973 2.987l.847 1.162v8.645c0 8.452-.017 8.666-.762 9.614-.419.533-.768 1.139-.775 1.346-.007.208-.687.873-1.51 1.479l-1.497 1.101h-10.637c-10.249 0-10.67.025-11.53.701l-.893.702V82.8c0 5.345-.074 6.233-.535 6.41-.687.264-2.999.258-4.63-.012l-1.27-.21V68.739c0-15.882.092-20.286.424-20.42.232-.094 6.792-.183 14.577-.197l14.155-.027 1.063.762m-23.115 7.714c-1.157 1.157-.866 10.117.348 10.73 1.296.655 18.93.618 19.833-.042.847-.619 1.011-9.827.193-10.814-.791-.953-19.41-.838-20.374.126m19.924.398c.428.427.598 8.523.201 9.557-.239.623-18.474.814-19.439.204-.792-.5-.954-8.17-.197-9.326l.552-.842h9.238c6.734 0 9.349.11 9.645.407M81.372 89.426c-.419.169-.762.452-.762.629 0 .178-.465.425-1.033.55-.567.124-1.214.518-1.436.873-.222.356-.596.647-.83.647-.235 0-.427.132-.427.292 0 .238-1.937 2.245-4.168 4.318-.222.207-.818.817-1.324 1.355-.505.538-1.457 1.512-2.115 2.164-.657.652-1.196 1.3-1.197 1.439-.001.14-.231.255-.51.255-.28 0-.508.117-.508.261 0 .365-5.1 5.496-5.463 5.496-.162 0-.295.151-.295.336 0 .185-.458.756-1.017 1.27-1.423 1.308-1.808 1.685-2.235 2.188-.205.242-.814.849-1.355 1.35-.54.5-2.12 2.062-3.511 3.471-1.391 1.409-2.649 2.562-2.794 2.562-.146 0-.265.13-.265.288 0 .159-1.461 1.721-3.247 3.472-1.786 1.751-3.653 3.625-4.149 4.166-.496.54-1.102 1.149-1.347 1.354-.244.205-.854.815-1.354 1.355-.501.54-1.108 1.15-1.35 1.355-.504.427-.881.812-2.188 2.235-.514.559-1.086 1.017-1.271 1.017-.184 0-.335.129-.335.288 0 .415-1.831 2.272-2.49 2.524-.307.118-.559.37-.559.561 0 .41-2.004 2.384-2.421 2.384-.158 0-.288.152-.288.336 0 .185-.495.791-1.101 1.347-1.355 1.245-1.391 1.28-2.636 2.636-.556.605-1.162 1.101-1.347 1.101-.184 0-.335.129-.335.288 0 .411-1.972 2.421-2.374 2.421-.185 0-.336.13-.336.288 0 .158-3.5 3.808-7.779 8.11-5.069 5.097-7.86 8.153-8.013 8.772-.128.523-.476 1.325-.773 1.782-.885 1.366-.743 6.582.227 8.308.417.743.758 1.542.758 1.777 0 .577 73.375 73.927 73.953 73.927.251 0 .785.285 1.187.634.483.418 1.536.713 3.1.867 3.3.325 6.927-.076 7.839-.867.402-.349.932-.634 1.178-.634.511 0 26.545-25.864 26.545-26.372 0-.515-3.075-3.772-3.561-3.772-.237 0-.519-.23-.627-.511-.108-.281-.619-.694-1.137-.917-.517-.223-1.703-.986-2.634-1.697-.932-.71-2.05-1.555-2.486-1.877-1.3-.962-3.106-2.894-3.638-3.889-.274-.512-.647-.931-.828-.931-.559 0-.414-5.944.156-6.418.267-.221.581-.834.697-1.361.115-.526.506-1.225.868-1.553.362-.328.658-.774.658-.992 0-.218.381-.755.847-1.192.466-.438.847-.91.847-1.05 0-.139 1.105-1.329 2.455-2.643 3.102-3.018 3.165-3.072 4.996-4.266.838-.546 1.797-1.265 2.13-1.598.333-.332.931-.604 1.328-.604s1.007-.257 1.354-.572c1.69-1.529 6.728-.62 9.223 1.664.361.331.78.602.932.602.151 0 .274.233.274.518 0 .286.216.602.48.703.264.101 1.046 1.087 1.738 2.191.692 1.104 1.376 2.007 1.519 2.007.144 0 .42.454.613 1.008.194.555.511 1.203.706 1.44 1.535 1.869 2.057 2.609 2.057 2.916 0 .494 1.377 1.41 2.121 1.41 1.045 0 26.219-25.477 26.506-26.825.131-.615.487-1.401.793-1.746.796-.901.802-6.976.007-7.888-.301-.346-.639-1.02-.752-1.498-.114-.477-.515-1.225-.893-1.66-.377-.436-.686-.921-.686-1.079 0-.158-.234-.287-.519-.287-.285 0-.617-.256-.737-.568-.12-.313-.653-.961-1.185-1.44-.531-.479-1.762-1.683-2.734-2.676-.973-.993-2.21-2.213-2.751-2.71-.54-.497-1.149-1.104-1.354-1.348-.205-.245-.815-.854-1.355-1.355s-1.15-1.109-1.355-1.352c-.205-.243-.887-.929-1.516-1.524-2.448-2.318-3.429-3.364-3.429-3.657 0-.167-.218-.304-.485-.304s-.582-.305-.701-.678c-.118-.372-.438-.677-.71-.677-.273 0-.593-.251-.71-.558-.253-.66-2.109-2.49-2.525-2.49-.542 0-.296-1.712.279-1.933.311-.119.807-.431 1.1-.692.294-.261 1.295-.958 2.226-1.55 3.378-2.147 7.622-6.378 7.622-7.597 0-.296.267-.832.593-1.192.965-1.066.849-7.069-.17-8.877-.419-.743-.761-1.52-.761-1.727 0-.207-.305-.728-.678-1.157-.372-.43-.677-.987-.677-1.238 0-.25-.149-.456-.33-.456-.182 0-.56-.445-.842-.99-1.008-1.949-7.701-8.3-9.412-8.931-.326-.12-.593-.364-.593-.541 0-.178-.567-.511-1.261-.74-.693-.228-1.446-.601-1.672-.827-.555-.555-4.789-.941-7.126-.649-2.703.338-6.39 3.095-9.334 6.981-1.667 2.2-2.284 3.159-2.284 3.55 0 .236-.304.593-.677.792-.373.2-.677.586-.677.859 0 .326-.35.496-1.016.496-.678 0-1.017-.169-1.017-.508 0-.279-.136-.508-.302-.508-.391 0-21.035-20.652-21.035-21.043 0-.162-.224-.295-.497-.295-.272 0-.649-.287-.837-.638-.188-.351-.731-.736-1.206-.855-.476-.12-1.166-.518-1.533-.886-.735-.735-8.095-.977-9.729-.32m9.415.856c.241.29.908.724 1.484.965.575.24 6.342 5.718 12.816 12.173 8.933 8.908 11.966 11.737 12.584 11.737.826 0 3.628-3.259 4.287-4.985.351-.921 5.86-6.531 6.413-6.531.219 0 .846-.319 1.394-.709 1.281-.912 7.235-.862 8.304.071.345.301 1.071.653 1.613.782 2.033.484 9.92 7.528 11.199 10.002.293.567.664 1.031.823 1.031.159 0 .702.876 1.206 1.947.504 1.072 1.208 2.512 1.565 3.2.94 1.819.923 6.42-.03 7.631-.372.474-.677 1.129-.677 1.457 0 .328-1.105 1.689-2.456 3.025-3.407 3.37-3.387 3.353-5.219 4.326-.902.478-1.838 1.152-2.082 1.496-.243.345-.632.627-.863.627-2.61 0-1.391 1.554 10.736 13.686 8.741 8.744 11.478 11.686 12.058 12.954.412.902.966 2.045 1.231 2.54.622 1.161.644 5.289.032 6.017-.247.294-.644 1.221-.882 2.059-.383 1.351-1.863 2.961-12.999 14.141-12.771 12.821-13.056 13.067-13.951 12.024-.279-.326-.838-.962-1.242-1.413-.404-.45-1.103-1.517-1.554-2.37-.45-.854-1.08-1.857-1.399-2.229-.319-.373-1.03-1.357-1.579-2.188-3.647-5.512-10.136-8.164-13.501-5.518-.532.419-1.229.762-1.548.762-.318 0-.855.305-1.192.678-.337.372-.748.677-.914.677-1.156 0-8.233 6.786-10.354 9.929-3.055 4.526-3.695 8.553-1.86 11.687.85 1.451 4.004 4.802 4.519 4.802.227 0 2.474 1.666 3.359 2.49.28.26.865.583 1.301.718.435.134 1.793 1.226 3.016 2.425l2.224 2.181-11.822 11.875c-6.503 6.531-12.021 12.05-12.262 12.265-.242.216-.699.64-1.016.943-.318.302-.957.668-1.422.811-.465.143-1.025.505-1.243.804-.597.817-9.159.806-9.616-.011-.171-.306-.732-.661-1.247-.79-.514-.129-1.187-.489-1.495-.8-.307-.311-6.099-6.082-12.87-12.824-45.134-44.943-59.487-59.544-59.868-60.901-.209-.744-.606-1.649-.882-2.011-.664-.868-.678-5.008-.021-6.233.265-.495.825-1.65 1.245-2.568.921-2.016 71.765-73.102 73.628-73.88.591-.247 1.272-.687 1.513-.977.354-.427 1.26-.528 4.758-.528s4.403.101 4.758.528m215.31 53.519l-.932.505v20.259c0 23.785-.506 21.379 4.503 21.379 2.88 0 3.305-.077 3.614-.655.642-1.2.468-40.838-.182-41.488-.721-.722-5.673-.722-7.003 0m6.689 20.805v20.153l-2.827.099c-4.174.146-3.778 2.265-3.778-20.225 0-22.472-.378-20.413 3.721-20.276l2.884.097v20.152m-23.569-5.157c-2.773 2.929-3.641 3.988-4.107 5.011-.206.453-.485.824-.619.824-.133 0-.439.495-.679 1.1-.241.606-.585 1.295-.766 1.531-3.152 4.122-3.602 15.978-.866 22.835 8.545 21.412 38.929 25.084 51.329 6.202.49-.745 1.143-1.736 1.451-2.202 3.683-5.552 4.922-15.542 2.755-22.212-1.94-5.973-3.72-8.934-7.825-13.012-2.708-2.691-2.965-2.694-5.501-.062-3.32 3.446-3.303 3.34-.915 5.689 1.114 1.096 2.428 2.603 2.919 3.348.491.745 1.174 1.768 1.518 2.273.343.504.625 1.114.626 1.355.001.24.232.877.512 1.415 1.383 2.651 1.485 10 .18 12.949-.382.863-.694 1.75-.694 1.971 0 1.89-7.642 10.012-9.421 10.012-.133 0-.81.304-1.504.677-3.49 1.87-12.604 1.865-16.101-.01-.685-.367-1.363-.667-1.507-.667-.328 0-3.536-2.21-4.612-3.177-2.426-2.179-5.172-6.747-5.774-9.605-.187-.887-.522-2.43-.746-3.43-.411-1.837-.404-1.906.696-7.215.18-.87.639-2.163 1.02-2.874.381-.711.693-1.432.693-1.602 0-.449 2.172-3.11 4.491-5.502 2.379-2.455 2.377-2.467-.879-5.799-2.638-2.699-2.96-2.689-5.674.177m5.311.508c2.447 2.512 2.463 2.863.22 5.038-5.96 5.781-8.218 13.718-5.96 20.949.494 1.584 1.104 3.12 1.356 3.414.251.294.457.727.457.962 0 1.506 7.579 8.833 9.137 8.833.254 0 .714.228 1.021.505.307.278 1.371.66 2.364.848.993.188 2.021.522 2.285.741.77.638 6.747.55 8.563-.127.838-.313 2.081-.659 2.76-.769.68-.11 1.423-.424 1.651-.699.228-.274.702-.499 1.053-.499.352 0 .9-.305 1.219-.677.319-.373.795-.678 1.057-.678 1.221 0 6.897-6.722 7.374-8.733.12-.506.424-1.157.676-1.448.422-.488 1.575-7.687 1.302-8.128-.066-.107-.28-1.467-.475-3.022-.195-1.554-.572-3.068-.838-3.364-.267-.295-.596-.983-.732-1.528-.355-1.421-2.004-3.741-4.454-6.264-1.169-1.204-2.125-2.305-2.125-2.446 0-.716 4.136-4.517 4.8-4.411 1.281.205 6.235 5.799 6.849 7.735.127.399.454.811.726.916.272.104.495.463.495.798s.285 1.14.634 1.79c.348.651.745 1.868.881 2.705.137.837.48 2.02.763 2.628.625 1.345.74 9.63.143 10.349-.203.245-.54 1.274-.748 2.286-1.266 6.158-5.979 12.529-12.135 16.403-.296.187-.903.606-1.349.932-.447.326-1.034.592-1.306.592-.271 0-.881.305-1.354.678-.474.372-1.26.678-1.747.679-.488.002-1.343.268-1.902.593-.872.507-1.954.591-7.621.591-5.667 0-6.749-.084-7.62-.591-.559-.325-1.415-.591-1.902-.593-.487-.001-1.274-.307-1.747-.679-.474-.373-1.084-.678-1.355-.678-.272 0-.857-.283-1.301-.63-.445-.347-1.131-.732-1.526-.856-.394-.123-.989-.525-1.322-.893-.333-.368-.721-.669-.861-.669-.505 0-6.075-5.889-6.075-6.422 0-.121-.381-.737-.846-1.368-.466-.631-.847-1.361-.847-1.621s-.305-.861-.677-1.335c-.373-.473-.678-1.153-.678-1.511 0-.358-.324-1.362-.72-2.232-1.09-2.392-1.094-13-.006-15.382.399-.875.726-1.803.726-2.063 0-.431 1.476-3.51 2.47-5.152 1.543-2.549 6.11-7.289 7.01-7.275.282.004 1.288.804 2.237 1.778m-53.674 93.811c.182.326.482.593.667.593.537 0 2.34 1.444 2.34 1.874 0 .215.305.667.678 1.005.372.337.677 1.017.677 1.512 0 .494.224 1.194.497 1.556.717.947.726 14.478.011 15.729-.266.466-.489 1.132-.496 1.48-.021 1.11-1.823 3.492-3.399 4.494l-1.524.97-10.838.169-10.839.169-.169 6.759-.169 6.76-1.355.296c-1.926.421-6.955.088-7.324-.486-.57-.886-.2-42.943.381-43.316 1.034-.666 30.478-.249 30.862.436m-22.248 10.181c-.093.243-.126 2.263-.074 4.487l.096 4.045 7.79.101c4.285.055 8.438.008 9.23-.106l1.439-.206v-4.052c0-4.038-.003-4.053-.869-4.382-1.402-.533-17.403-.431-17.612.113"/><path fill="#fbfbfb" d="M0 169.348v169.348h400V0H0v169.348M229.789 5.474c.475.216.863.504.863.64s.365.339.811.451c.447.112 1.374.7 2.061 1.307 2.547 2.249 71.641 71.353 71.641 71.651 0 .171.381.721.847 1.224.466.502.851 1.249.857 1.658.006.41.235 1.041.508 1.402.274.362.498 1.219.498 1.905 0 3.006.233 3.365 2.193 3.365 1.825 0 3.903.539 3.903 1.013 0 .147.38.364.844.48 1.634.41 73.403 72.594 74.642 75.073 1.352 2.704 1.536 7.222.382 9.374-.372.696-.677 1.46-.677 1.7 0 .239-3.506 3.957-7.79 8.262-4.285 4.305-7.79 7.96-7.79 8.122 0 .162-.164.294-.365.294-.474 0-2.345 1.871-2.345 2.345 0 .201-.13.365-.288.365-.411 0-2.421 1.971-2.421 2.374 0 .184-.138.336-.305.336-.397 0-2.744 2.346-2.744 2.743 0 .168-.151.305-.335.305-.403 0-2.374 2.01-2.374 2.421 0 .159-.192.288-.427.288s-.807.475-1.27 1.056c-.464.58-1.039 1.228-1.279 1.439-.952.84-1.294 1.175-2.16 2.115-.497.539-2.973 3.017-5.504 5.509-2.531 2.491-4.602 4.663-4.602 4.826 0 .163-.119.297-.264.297-.215 0-3.015 2.703-5.614 5.419-.267.279-.959.887-1.537 1.351-.579.464-1.052 1.035-1.052 1.27 0 .235-.139.427-.31.427-.38 0-8.157 7.812-8.157 8.194 0 .15-.2.274-.443.274-.244 0-.892.606-1.44 1.346-.548.741-1.087 1.351-1.197 1.355-.11.004-1.634 1.469-3.387 3.254-1.752 1.785-3.629 3.652-4.169 4.149-.541.497-1.715 1.627-2.609 2.512-.894.885-1.792 1.609-1.994 1.609-.203 0-.782.289-1.287.643-.511.359-1.814.739-2.943.859-2.312.246-3.563.915-3.563 1.908 0 1.868-1.195 5.309-2.342 6.746-2.687 3.364-72.855 73.152-73.779 73.379-.513.127-1.284.458-1.714.736-2.585 1.674-8.135.558-11.58-2.328-1.072-.898-59.77-59.503-71.508-71.394-.303-.307-.664-.939-.802-1.404-.138-.466-.496-1.125-.794-1.464-.786-.895-.786-7.694 0-8.588.298-.34.657-.993.798-1.453.141-.46 5.684-6.294 12.318-12.965 6.634-6.671 12.113-12.188 12.174-12.26.411-.478-2.324-3.529-3.192-3.562-.204-.007-.647-.318-.984-.691-.337-.372-.803-.677-1.034-.677-.819 0-6.102-5.561-7.029-7.398-1.57-3.112-.887-9.086 1.325-11.596.26-.294.474-.675.477-.846.011-.703 6.505-7.501 8.625-9.029.19-.137.825-.632 1.41-1.101.586-.468 1.2-.851 1.364-.851.165 0 .676-.267 1.137-.593.46-.326 1.523-.773 2.361-.994.839-.221 2.175-.596 2.971-.834 1.177-.352 1.649-.351 2.54.007.602.241 1.806.638 2.677.881s1.832.649 2.136.902c1.181.985 5.595 5.521 5.595 5.751 0 .643 3.467 5.321 4.058 5.476.535.14 2.993-2.133 11.773-10.883 13.422-13.378 13.236-13.223 16.998-14.133l2.904-.703v-2.659l-1.524-.108c-.838-.06-1.752-.31-2.032-.555-.28-.246-1.042-.558-1.694-.693-.652-.136-1.458-.534-1.792-.885-.333-.351-.751-.638-.929-.638-.178 0-5.881-5.538-12.673-12.307l-12.349-12.306.697-1.411c.384-.776.911-1.41 1.171-1.41s.474-.191.475-.424c.002-.379.676-.895 2.86-2.189.382-.226.923-.571 1.202-.768.279-.196 1.384-.91 2.456-1.586 1.071-.676 1.947-1.359 1.947-1.518 0-.159.166-.289.369-.289.488 0 3.395-3.032 4.007-4.179.264-.496.607-.902.762-.902.651 0 .308-5.786-.396-6.681-.373-.474-.678-1.122-.678-1.44 0-.319-.304-.856-.677-1.193-.373-.337-.68-.78-.682-.984-.011-.874-8.278-9.346-9.12-9.346-.179 0-.447-.198-.596-.44-.395-.642-3.141-2.149-4.416-2.424-.603-.13-1.184-.377-1.29-.549-.302-.489-2.621-.346-3.351.206-.362.274-.911.497-1.221.497-.31 0-1.004.39-1.544.866-.539.476-1.4 1.236-1.912 1.688-.512.452-.932.972-.932 1.155 0 .182-.304.495-.677.695-.372.199-.677.539-.677.755 0 .491-1.711 3.044-2.286 3.41-.233.149-.424.454-.424.678-.001.711-3.7 4.979-4.315 4.979-.235 0-.427.136-.427.302 0 .616-.922.624-2.22.02-1.658-.772-26.23-25.349-26.23-26.235 0-.33-.267-.795-.593-1.033-.948-.692-1.085-9.029-.168-10.275.357-.485.754-1.302.881-1.814s.457-.931.733-.931c.276 0 .502-.153.502-.34 0-.327 70.608-71.125 70.935-71.125.088 0 .541-.381 1.007-.847.466-.466 1.158-.847 1.539-.847s.693-.129.693-.287c0-.987 7.43-1.526 9.298-.674m-19.035 42.845c-.332.134-.424 4.538-.424 20.42v20.249l1.27.21c1.631.27 3.943.276 4.63.012.461-.177.535-1.065.535-6.41v-6.206l.893-.702c.86-.676 1.281-.701 11.53-.701h10.637l1.497-1.101c.823-.606 1.503-1.271 1.51-1.479.007-.207.356-.813.775-1.346.745-.948.762-1.162.762-9.614v-8.645l-.847-1.162c-1.055-1.449-1.626-2.022-2.973-2.987l-1.063-.762-14.155.027c-7.785.014-14.345.103-14.577.197m27.054 8.126c.818.987.654 10.195-.193 10.814-.903.66-18.537.697-19.833.042-1.214-.613-1.505-9.573-.348-10.73.964-.964 19.583-1.079 20.374-.126M91.101 89.746c.367.368 1.057.766 1.533.886.475.119 1.018.504 1.206.855.188.351.565.638.837.638.273 0 .497.133.497.295 0 .391 20.644 21.043 21.035 21.043.166 0 .302.229.302.508 0 .339.339.508 1.017.508.666 0 1.016-.17 1.016-.496 0-.273.304-.659.677-.859.373-.199.677-.556.677-.792 0-.391.617-1.35 2.284-3.55 2.944-3.886 6.631-6.643 9.334-6.981 2.337-.292 6.571.094 7.126.649.226.226.979.599 1.672.827.694.229 1.261.562 1.261.74 0 .177.267.421.593.541 1.711.631 8.404 6.982 9.412 8.931.282.545.66.99.842.99.181 0 .33.206.33.456 0 .251.305.808.677 1.238.373.429.678.95.678 1.157 0 .207.342.984.761 1.727 1.019 1.808 1.135 7.811.17 8.877-.326.36-.593.896-.593 1.192 0 1.219-4.244 5.45-7.622 7.597-.931.592-1.932 1.289-2.226 1.55-.293.261-.789.573-1.1.692-.575.221-.821 1.933-.279 1.933.416 0 2.272 1.83 2.525 2.49.117.307.437.558.71.558.272 0 .592.305.71.677.119.373.434.678.701.678.267 0 .485.137.485.304 0 .293.981 1.339 3.429 3.657.629.595 1.311 1.281 1.516 1.524.205.243.815.851 1.355 1.352.54.501 1.15 1.11 1.355 1.355.205.244.814.851 1.354 1.348.541.497 1.778 1.717 2.751 2.71.972.993 2.203 2.197 2.734 2.676.532.479 1.065 1.127 1.185 1.44.12.312.452.568.737.568s.519.129.519.287c0 .158.309.643.686 1.079.378.435.779 1.183.893 1.66.113.478.451 1.152.752 1.498.795.912.789 6.987-.007 7.888-.306.345-.662 1.131-.793 1.746-.287 1.348-25.461 26.825-26.506 26.825-.744 0-2.121-.916-2.121-1.41 0-.307-.522-1.047-2.057-2.916-.195-.237-.512-.885-.706-1.44-.193-.554-.469-1.008-.613-1.008-.143 0-.827-.903-1.519-2.007s-1.474-2.09-1.738-2.191c-.264-.101-.48-.417-.48-.703 0-.285-.123-.518-.274-.518-.152 0-.571-.271-.932-.602-2.495-2.284-7.533-3.193-9.223-1.664-.347.315-.957.572-1.354.572-.397 0-.995.272-1.328.604-.333.333-1.292 1.052-2.13 1.598-1.831 1.194-1.894 1.248-4.996 4.266-1.35 1.314-2.455 2.504-2.455 2.643 0 .14-.381.612-.847 1.05-.466.437-.847.974-.847 1.192 0 .218-.296.664-.658.992-.362.328-.753 1.027-.868 1.553-.116.527-.43 1.14-.697 1.361-.57.474-.715 6.418-.156 6.418.181 0 .554.419.828.931.532.995 2.338 2.927 3.638 3.889.436.322 1.554 1.167 2.486 1.877.931.711 2.117 1.474 2.634 1.697.518.223 1.029.636 1.137.917.108.281.39.511.627.511.486 0 3.561 3.257 3.561 3.772 0 .508-26.034 26.372-26.545 26.372-.246 0-.776.285-1.178.634-.482.418-1.535.713-3.1.867-3.299.325-6.927-.076-7.839-.867-.402-.349-.936-.634-1.187-.634-.578 0-73.953-73.35-73.953-73.927 0-.235-.341-1.034-.758-1.777-.97-1.726-1.112-6.942-.227-8.308.297-.457.645-1.259.773-1.782.153-.619 2.944-3.675 8.013-8.772 4.279-4.302 7.779-7.952 7.779-8.11 0-.158.151-.288.336-.288.402 0 2.374-2.01 2.374-2.421 0-.159.151-.288.335-.288.185 0 .791-.496 1.347-1.101 1.245-1.356 1.281-1.391 2.636-2.636.606-.556 1.101-1.162 1.101-1.347 0-.184.13-.336.288-.336.417 0 2.421-1.974 2.421-2.384 0-.191.252-.443.559-.561.659-.252 2.49-2.109 2.49-2.524 0-.159.151-.288.335-.288.185 0 .757-.458 1.271-1.017 1.307-1.423 1.684-1.808 2.188-2.235.242-.205.849-.815 1.35-1.355.5-.54 1.11-1.15 1.354-1.355.245-.205.851-.814 1.347-1.354.496-.541 2.363-2.415 4.149-4.166 1.786-1.751 3.247-3.313 3.247-3.472 0-.158.119-.288.265-.288.145 0 1.403-1.153 2.794-2.562 1.391-1.409 2.971-2.971 3.511-3.471.541-.501 1.15-1.108 1.355-1.35.427-.503.812-.88 2.235-2.188.559-.514 1.017-1.085 1.017-1.27 0-.185.133-.336.295-.336.363 0 5.463-5.131 5.463-5.496 0-.144.228-.261.508-.261.279 0 .509-.115.51-.255.001-.139.54-.787 1.197-1.439.658-.652 1.61-1.626 2.115-2.164.506-.538 1.102-1.148 1.324-1.355 2.231-2.073 4.168-4.08 4.168-4.318 0-.16.192-.292.427-.292.234 0 .608-.291.83-.647.222-.355.869-.749 1.436-.873.568-.125 1.033-.372 1.033-.55 0-1.167 9.357-1.443 10.491-.309M306.6 144.679c-.658.658-.603 39.336.056 39.883.302.25 1.51.358 3.303.296l2.827-.099v-40.305l-2.884-.097c-1.953-.065-3.019.039-3.302.322m-16.518 15.101c-1.654 1.566-3.975 4.309-4.801 5.674-.994 1.642-2.47 4.721-2.47 5.152 0 .26-.327 1.188-.726 2.063-1.088 2.382-1.084 12.99.006 15.382.396.87.72 1.874.72 2.232 0 .358.305 1.038.678 1.511.372.474.677 1.075.677 1.335s.381.99.847 1.621c.465.631.846 1.247.846 1.368 0 .533 5.57 6.422 6.075 6.422.14 0 .528.301.861.669.333.368.928.77 1.322.893.395.124 1.081.509 1.526.856.444.347 1.029.63 1.301.63.271 0 .881.305 1.355.678.473.372 1.26.678 1.747.679.487.002 1.343.268 1.902.593.871.507 1.953.591 7.62.591s6.749-.084 7.621-.591c.559-.325 1.414-.591 1.902-.593.487-.001 1.273-.307 1.747-.679.473-.373 1.083-.678 1.354-.678.272 0 .859-.266 1.306-.592.446-.326 1.053-.745 1.349-.932 6.156-3.874 10.869-10.245 12.135-16.403.208-1.012.545-2.041.748-2.286.597-.719.482-9.004-.143-10.349-.283-.608-.626-1.791-.763-2.628-.136-.837-.533-2.054-.881-2.705-.349-.65-.634-1.455-.634-1.79 0-.335-.223-.694-.495-.798-.272-.105-.599-.517-.726-.916-.614-1.936-5.568-7.53-6.849-7.735-.664-.106-4.8 3.695-4.8 4.411 0 .141.956 1.242 2.125 2.446 2.45 2.523 4.099 4.843 4.454 6.264.136.545.465 1.233.732 1.528.266.296.643 1.81.838 3.364.195 1.555.409 2.915.475 3.022.273.441-.88 7.64-1.302 8.128-.252.291-.556.942-.676 1.448-.477 2.011-6.153 8.733-7.374 8.733-.262 0-.738.305-1.057.678-.319.372-.867.677-1.219.677-.351 0-.825.225-1.053.499-.228.275-.971.589-1.651.699-.679.11-1.922.456-2.76.769-1.816.677-7.793.765-8.563.127-.264-.219-1.292-.553-2.285-.741-.993-.188-2.057-.57-2.364-.848-.307-.277-.767-.505-1.021-.505-1.558 0-9.137-7.327-9.137-8.833 0-.235-.206-.668-.457-.962-.252-.294-.862-1.83-1.356-3.414-2.258-7.231 0-15.168 5.96-20.949 2.243-2.175 2.227-2.526-.22-5.038-2.118-2.174-2.329-2.182-4.446-.177"/><path fill="#7c7c7c" d="M220.88 6.438c-1.183.577-2.37 1.232-2.638 1.455-2.436 2.025-72.458 72.391-72.83 73.188-.27.579-.708 1.434-.973 1.9-.897 1.572-.662 7.137.391 9.24 1.014 2.028 25.473 26.882 26.78 27.213 1.602.406 3.394-.957 5.621-4.277.687-1.025 1.71-2.516 2.272-3.315.562-.798 1.022-1.536 1.022-1.639 0-.512 4.758-4.849 6.022-5.489 4.526-2.292 12.103 1.747 18.546 9.885 1.202 1.517 2.414 3.001 2.695 3.296.281.295.511.752.512 1.016.002.264.305.937.675 1.495 1.014 1.53.975 6.542-.063 8.259-1.085 1.794-6.41 6.813-7.228 6.813-1.303 0-7.611 5.118-7.611 6.175 0 .757 23.021 24.228 24.62 25.101.337.184.709.48.826.657.239.36 3.22 1.253 5.036 1.509 2.004.282 2.457.942 2.195 3.199-.415 3.572.117 4.27 13.29 17.467 6.386 6.398 11.608 11.892 11.605 12.209-.004.329-.743 1.012-1.722 1.592-.944.559-1.893 1.168-2.111 1.355-.217.186-1.044.779-1.837 1.318-6.191 4.204-8.975 11.624-6.239 16.628.406.742.738 1.461.738 1.598 0 1.555 7.626 10.033 11.096 12.337 4.417 2.932 4.586 2.988 9.064 2.996 5.411.011 8.255-1.811 12.355-7.915.652-.971 1.605-2.311 2.117-2.979.512-.668.931-1.346.931-1.507 0-1.38 2.332.654 13.253 11.563 6.527 6.52 11.983 11.854 12.126 11.854.142 0 .606.302 1.031.67 1.397 1.212 9.762 1.123 10.679-.113.187-.252.664-.561 1.06-.687 1.099-.349.097.633 37.55-36.768 36.071-36.02 36.554-36.519 36.948-38.174.127-.531.452-1.221.722-1.533.889-1.024.967-4.438.14-6.026-.398-.763-.726-1.572-.729-1.799-.004-.227-.429-1.037-.946-1.8-1.47-2.167-72.187-72.645-73.401-73.152-.583-.244-1.258-.681-1.499-.971-.31-.373-1.049-.528-2.53-.528-2.369 0-2.905-.346-2.905-1.876 0-1.459-1.254-6.245-1.809-6.902-3.909-4.63-73.548-73.611-75.075-74.366-3.013-1.489-6.935-1.558-9.772-.172m9.433.517c1.961.96 74.513 72.933 74.513 73.918 0 .24.215.518.478.619.584.224.83 1.155 1.228 4.643.169 1.481.54 3.048.825 3.483.657 1.002.661 1.796.01 2.046-.28.107-.508.56-.508 1.006 0 .445-.305 1.115-.678 1.487-.372.373-.677.765-.677.872 0 .312-7.855 7.935-8.176 7.935-.16 0-.292.164-.292.364 0 .474-1.87 2.345-2.344 2.345-.201 0-.365.157-.365.348 0 .191-2.705 3.049-6.012 6.35-6.38 6.371-6.828 7.122-4.585 7.685.426.107.775.42.775.696 0 .275.292.501.648.501.597 0 1.446.577 3.113 2.117.353.326.739.593.858.593.383 0 3.832 3.542 3.84 3.943.005.213.222.47.484.57.262.101.584.688.715 1.306.132.618.489 1.407.794 1.752.788.893.792 5.973.005 6.872-.302.346-.653 1.208-.78 1.917-.127.708-.451 1.372-.721 1.475-.269.104-.489.484-.489.845 0 .362-.381 1.011-.847 1.442-.465.432-.846.953-.846 1.158 0 .205-.305.536-.678.735-.372.199-.677.576-.677.836s-.305.57-.678.688c-.372.118-.677.369-.677.557 0 .457-1.883 2.322-2.345 2.322-.2 0-.365.229-.365.508 0 .28-.13.508-.289.508-.159 0-.68.343-1.157.762-2.098 1.842-2.702 2.286-3.102 2.286-.235 0-.703.305-1.04.678-.337.372-.947.677-1.355.677-.409 0-1.094.305-1.524.678-1.952 1.693-11.308.462-12.096-1.591-.093-.243-.317-.442-.498-.442-.447 0-2.309-1.89-2.309-2.344 0-.201-.233-.365-.518-.365-.286 0-.618-.267-.74-.593-.122-.326-.498-.792-.836-1.035-.338-.244-.615-.639-.615-.879s-.305-.712-.678-1.049c-.372-.338-.677-.82-.677-1.072 0-.253-.305-.72-.677-1.039-.373-.319-.678-.775-.678-1.013 0-.755-1.317-.467-1.894.414-.305.466-.766.847-1.024.847s-.469.218-.469.485-.305.582-.677.7c-.373.118-.677.448-.677.732s-.305.597-.678.694c-.372.098-.677.402-.677.678 0 .275-.305.579-.678.677-.372.097-.677.402-.677.677s-.3.579-.666.675c-.367.096-.758.462-.87.815-.112.352-.422.641-.688.641-.267 0-.486.149-.486.331 0 .432-3.639 4.072-4.071 4.072-.183 0-.332.218-.332.485s-.304.582-.677.7c-.373.118-.677.448-.677.732s-.305.597-.678.694c-.372.098-.677.402-.677.677 0 .276-.305.58-.678.678-.372.097-.677.402-.677.677s-.305.58-.677.678c-.373.097-.678.305-.678.461 0 .237-2.405 2.695-4.403 4.5-.279.252-.945.564-1.48.693s-1.194.456-1.464.726c-.678.679-1.987.615-3.081-.15-.512-.358-2.116-.823-3.628-1.052-3.266-.494-1.263 1.188-16.17-13.574-13.247-13.117-13.04-12.855-11.313-14.297 1.054-.88 5.343-3.739 6.204-4.136 1.419-.653 6.885-5.536 6.885-6.151 0-.191.305-.624.677-.961 1.683-1.523.478-10.144-1.6-11.448-.238-.149-.432-.426-.432-.615 0-.697-3.066-4.406-5.395-6.525-.638-.581-1.405-1.285-1.704-1.565-1.004-.938-3.014-2.37-3.326-2.37-.169 0-.584-.305-.921-.678-.338-.372-.783-.677-.989-.677-.207 0-.945-.305-1.64-.678-4.779-2.561-10.384.817-15.661 9.439-.186.304-1.013 1.391-1.837 2.416-3.492 4.34-2.298 5.033-17.393-10.095-7.027-7.042-12.777-13.006-12.777-13.254 0-.247-.319-.966-.709-1.596-.802-1.298-.873-7.686-.091-8.176.212-.132.619-.802.905-1.488.535-1.285 70.665-71.764 72.991-73.354 1.053-.721 2.745-1.573 4.296-2.166 1.396-.533 5.341-.04 7.282.911m-18.452 40.378c-2.339.178-2.197-1.206-2.203 21.442-.006 24.03-.413 21.805 3.988 21.817 4.558.014 4.474.146 4.474-7.091 0-7.932-1.382-7.082 11.911-7.324 6.023-.11 10.99-.224 11.038-.254 3.37-2.143 4.205-4.589 4.397-12.884.227-9.817-.345-12.139-3.598-14.605l-1.563-1.186-13.379-.022c-7.358-.012-14.137.036-15.065.107m29.677 1.536c.678.519 1.669 1.585 2.201 2.371l.969 1.427.106 8.59.106 8.589-.857 1.741c-1.965 3.99-2.961 4.262-15.656 4.273-12.003.01-10.76-.797-10.902 7.08-.064 3.515-.254 6.129-.465 6.384-.57.686-6.574.594-6.843-.105-.288-.751-.258-40.958.03-41.247.13-.13 6.951-.193 15.157-.141l14.921.094 1.233.944m-23.615 8.535c-.757 1.156-.595 8.826.197 9.326.965.61 19.2.419 19.439-.204.397-1.034.227-9.13-.201-9.557-.296-.297-2.911-.407-9.645-.407h-9.238l-.552.842m19.297.371c.477 1.242.22 7.87-.326 8.416-.457.456-1.783.532-9.323.532h-8.79l-.33-.869c-.361-.947-.457-7.213-.125-8.079.312-.812 18.583-.812 18.894 0m75.88 86.026c.65.65.824 40.288.182 41.488-.309.578-.734.655-3.614.655-5.009 0-4.503 2.406-4.503-21.379v-20.259l.932-.505c1.33-.722 6.282-.722 7.003 0m-18.209 15.471c3.256 3.332 3.258 3.344.879 5.799-2.319 2.392-4.491 5.053-4.491 5.502 0 .17-.312.891-.693 1.602-.381.711-.84 2.004-1.02 2.874-1.1 5.309-1.107 5.378-.696 7.215.224 1 .559 2.543.746 3.43.602 2.858 3.348 7.426 5.774 9.605 1.076.967 4.284 3.177 4.612 3.177.144 0 .822.3 1.507.667 3.497 1.875 12.611 1.88 16.101.01.694-.373 1.371-.677 1.504-.677 1.779 0 9.421-8.122 9.421-10.012 0-.221.312-1.108.694-1.971 1.305-2.949 1.203-10.298-.18-12.949-.28-.538-.511-1.175-.512-1.415-.001-.241-.283-.851-.626-1.355-.344-.505-1.027-1.528-1.518-2.273-.491-.745-1.805-2.252-2.919-3.348-2.388-2.349-2.405-2.243.915-5.689 2.536-2.632 2.793-2.629 5.501.062 4.105 4.078 5.885 7.039 7.825 13.012 2.167 6.67.928 16.66-2.755 22.212-.308.466-.961 1.457-1.451 2.202-4.245 6.464-12.147 11.089-20.618 12.067-21.542 2.486-38.095-18.033-30.972-38.394.439-1.254.946-2.473 1.127-2.71.181-.236.525-.925.766-1.531.24-.605.546-1.1.679-1.1.134 0 .413-.371.619-.824.873-1.917 6.034-7.305 6.996-7.305.432 0 1.537.84 2.785 2.117M132.023 191.74c.428.445 1.152 1.334 1.609 1.975.456.642.83 1.068.83.947 0-.47-1.746-2.762-2.462-3.234-.752-.495-.752-.493.023.312m-28.237 11.975c-.301.46-.495.973-.431 1.141.064.167.364-.209.667-.836.647-1.343.537-1.485-.236-.305m-20.89 48.175c.419.081 1.105.081 1.524 0 .419-.081.076-.147-.762-.147s-1.181.066-.762.147m4.742 0c.419.081 1.105.081 1.524 0 .419-.081.076-.147-.762-.147-.839 0-1.182.066-.762.147m122.354 1.442c-.581.373-.951 42.43-.381 43.316.369.574 5.398.907 7.324.486l1.355-.296.169-6.76.169-6.759 10.839-.169 10.838-.169 1.524-.97c1.576-1.002 3.378-3.384 3.399-4.494.007-.348.23-1.014.496-1.48.715-1.251.706-14.782-.011-15.729-.273-.362-.497-1.062-.497-1.556 0-.495-.305-1.175-.677-1.512-.373-.338-.678-.79-.678-1.005 0-.43-1.803-1.874-2.34-1.874-.185 0-.485-.267-.667-.593-.384-.685-29.828-1.102-30.862-.436m30.313 1.089c3.885 1.581 4.912 4.445 4.909 13.685-.005 13.585-.88 14.366-16.097 14.366-12.644 0-11.335-.821-11.335 7.113 0 7.557.271 7.113-4.345 7.113-2.454 0-3.074-.103-3.24-.536-.296-.772-.244-41.22.054-41.666.483-.724 1.396-.766 14.982-.697 11.78.06 13.908.148 15.072.622m-22.1 8.97c-.824.332-.576 9.154.27 9.606 1.158.62 18.549.302 18.958-.347.485-.767.42-8.582-.075-9.077-.407-.407-18.177-.576-19.153-.182m18.013.445c.866.329.869.344.869 4.382v4.052l-1.439.206c-.792.114-4.945.161-9.23.106l-7.79-.101-.096-4.045c-.052-2.224-.019-4.244.074-4.487.209-.544 16.21-.646 17.612-.113"/></g></svg>