<svg xmlns="http://www.w3.org/2000/svg" role="img" viewBox="-7.99 -7.99 415.74 290.99"><title>PX5 RTOS logo</title><g fill-rule="evenodd"><path fill="#0c9cd4" d="M98.826.272c.1.397 64.916 79.335 65.102 79.285.086-.023 6.927-8.503 15.202-18.844l15.045-18.802-15.51-20.956L163.155 0h-32.199c-26.199 0-32.185.051-32.13.272m120.575 107.069c-8.441 10.265-15.359 18.776-15.373 18.914-.014.138 7.272 9.987 16.192 21.885l16.219 21.634h32.306c32.214 0 32.306-.002 32.018-.42-.912-1.323-65.624-80.651-65.801-80.662-.117-.008-7.12 8.384-15.561 18.649M0 237.599v37.493h22.749v-9.268H11.374v-56.029h11.375v-9.69H0v37.494m377.251-32.649v4.845h11.375v56.029h-11.375v9.268H400v-74.987h-22.749v4.845"/><path fill="#040404" d="M235.024 1.856c-7.22 8.741-136.989 167.549-137.043 167.709-.046.139 10.88.192 32.217.157l32.287-.054 69.252-84.676C269.825 38.42 300.991.245 300.994.158 300.998.071 286.501 0 268.779 0h-32.222l-1.533 1.856M24.434 62.449v18.857h26.119V65.497l22.169.065c24.812.074 22.902-.044 26.391 1.63 7.04 3.379 7.302 13.247.438 16.526-3.264 1.56-.596 1.457-39.888 1.534l-35.229.069v53.489l.895.007c.492.003 6.369-.159 13.06-.36l12.164-.367v-32.538l23.855-.076c25.982-.083 25.98-.083 32.171-1.346 13.232-2.7 20.842-9.699 23.292-21.421 3.837-18.356-5.428-32.702-24.236-37.529-6.084-1.561-2.973-1.454-44.182-1.524l-37.019-.063v18.856m257.188 9.057v26.429l34.597.06 34.597.06 1.621.461c5.134 1.459 7.349 4.031 7.51 8.718.193 5.638-3.142 9.083-9.959 10.291-2.598.46-33.28.289-35.176-.196-5.115-1.309-8.74-5.257-8.754-9.535l-.002-.79h-26.119v.851c0 4.641 1.644 11.378 3.802 15.579 4.52 8.799 12.662 13.767 25.792 15.734 3.853.578 42.964.578 46.656 0 21.342-3.336 32.106-16.298 29.689-35.751-1.666-13.412-9.446-21.363-23.791-24.312-6.029-1.24-5.825-1.231-31.964-1.32l-24.065-.083V45.076h-24.434v26.43m27.593-15.371v11.058h72.881V45.076h-72.881v11.059M54.344 238.75v30.444H72.67v-7.477c0-4.113.036-7.478.081-7.478.044 0 5.328 3.365 11.741 7.478l11.661 7.477 13.377-.006c10.829-.006 13.31-.058 13.027-.273-.193-.147-5.84-3.533-12.549-7.524l-12.198-7.257 5.281-.129c11.571-.282 19.127-4.343 22.747-12.227 1.553-3.382 2.048-15.737.774-19.341-2.39-6.763-8.274-11.606-16.554-13.626-1.343-.327-3.895-.366-28.594-.432l-27.12-.072v30.443m77.304-22.742v7.689h22.749v45.497h18.536v-45.497h22.749V208.32h-64.034v7.688m86.572-7.366c-8.685 1.362-16.025 7.446-17.927 14.859-.491 1.916-.425 28.879.076 30.738 2.083 7.733 9.809 13.669 19.216 14.762 3.882.452 34.011.137 36.234-.378 9.077-2.103 15.564-8.124 16.863-15.653.586-3.393.34-28.001-.3-30.116-2.232-7.372-9.588-13.076-18.452-14.309-2.51-.349-33.401-.265-35.71.097m76.356-.09c-7.787 1.111-15.335 7.562-16.858 14.407-2.125 9.555 4.635 18.829 15.694 21.532 1.175.287 3.807.354 18.12.46 18.961.142 17.518 0 19.223 1.887 1.623 1.797 1.532 3.585-.273 5.335-1.8 1.746-.207 1.645-25.939 1.645h-22.71v15.389l25.645-.066c28.869-.074 26.595.052 30.752-1.702 17.73-7.48 15.183-29.669-3.949-34.414-1.178-.292-3.706-.357-18.115-.463l-16.745-.124-1.136-.644c-3.318-1.882-3.329-5.473-.023-7.338l1.159-.654 23.222-.056 23.223-.057V208.32l-25.013.026c-13.757.014-25.582.107-26.277.206m-190.097 15.353c3.267.907 4.292 2.524 4.383 6.918.094 4.531-.51 5.832-3.333 7.173l-1.158.551-15.851.057-15.85.058v-14.965l15.534.001c9.454.001 15.825.082 16.275.207m146.611.341c3.491 1.615 3.465 1.507 3.465 14.511 0 13.135.099 12.727-3.475 14.41l-1.159.545h-27.172l-1.226-.62c-1.325-.671-2.343-1.681-2.803-2.78-.456-1.093-.422-22.098.038-23.199.579-1.388 1.99-2.562 3.743-3.116 1.694-.536 27.377-.312 28.589.249"/></g></svg>