<svg xmlns="http://www.w3.org/2000/svg" role="img" viewBox="-9.24 -9.24 506.48 139.48"><title>PyTorch logo</title><g fill="#ee4c2c"><path d="M63.1 28.3l-6.6 6.6c10.8 10.8 10.8 28.2 0 38.8-10.8 10.8-28.2 10.8-38.8 0-10.8-10.8-10.8-28.2 0-38.8l17.1-17.1 2.4-2.4V2.5L11.4 28.3C-3 42.7-3 65.9 11.4 80.3c14.4 14.4 37.6 14.4 51.7 0 14.4-14.5 14.4-37.6 0-52z"/><path d="M55 21.9c0 2.651-2.149 4.8-4.8 4.8s-4.8-2.149-4.8-4.8 2.149-4.8 4.8-4.8 4.8 2.149 4.8 4.8z"/></g><path d="M129.8 61.3h-11.1v28.5h-8.4V8.7h20.4c21.3 0 31.5 10.5 31.5 25.2.3 18.1-12.3 27.4-32.4 27.4zm.9-44.5H119v37.3l11.4-.3c15.3-.3 23.7-6.3 23.7-18.9 0-11.8-8.4-18.1-23.4-18.1zm69.1 72.7l-4.8 12.9c-5.4 14.4-11.1 18.6-19.2 18.6-4.5 0-7.8-1.2-11.4-2.7l2.4-7.5c2.7 1.5 5.7 2.7 9 2.7 4.5 0 7.8-2.4 12.3-13.8l3.9-10.5-23.1-58.6h8.7l18.6 49 18.3-49h8.4z"/><path d="M250.3 16.8v73.3h-8.4V16.8h-28.5V9h65.2v7.8h-28.3zm52 74.8c-16.5 0-28.5-12.3-28.5-31.2s12.6-31.5 29.4-31.5c16.8 0 28.5 12.3 28.5 31.2-.3 18.9-12.9 31.5-29.4 31.5zm.3-55.2c-12.6 0-20.7 9.9-20.7 24 0 14.4 8.4 24.3 21 24.3s20.7-9.9 20.7-24c0-14.7-8.4-24.3-21-24.3zm49.2 53.7h-8.1V30.6l8.1-1.8v12.6c3.9-7.5 9.6-12.6 17.4-12.6 3.9 0 7.5 1.2 10.5 2.7l-2.1 7.5c-2.7-1.5-5.7-2.7-9-2.7-6.3 0-12 4.8-16.8 15.3zm59.5 1.5c-18 0-29.1-12.9-29.1-31.2 0-18.6 12.3-31.5 29.1-31.5 7.2 0 13.5 1.8 18.6 5.1l-2.1 7.2c-4.5-3-10.2-4.8-16.5-4.8-12.9 0-20.7 9.6-20.7 23.7 0 14.4 8.4 24 21 24 6 0 12-1.8 16.5-4.8l1.8 7.5c-5.4 3-11.7 4.8-18.6 4.8zm68.2-1.5V51.6c0-10.5-4.2-15-12.6-15-6.9 0-13.5 3.6-18.3 8.4v45.1h-8.1V2.7l8.1-1.8v37.6c6.3-6.3 14.1-9.3 20.7-9.3 11.4 0 18.6 7.5 18.6 20.4v40.6h-8.4z"/></svg>