<svg xmlns="http://www.w3.org/2000/svg" role="img" xmlns:xlink="http://www.w3.org/1999/xlink" viewBox="-2.69 -2.69 116.50 139.88"><title>Python logo</title><defs><linearGradient id="c"><stop offset="0" stop-color="#b8b8b8" stop-opacity=".498"/><stop offset="1" stop-color="#7f7f7f" stop-opacity="0"/></linearGradient><linearGradient id="a"><stop offset="0" stop-color="#ffd43b"/><stop offset="1" stop-color="#ffe873"/></linearGradient><linearGradient id="b"><stop offset="0" stop-color="#5a9fd4"/><stop offset="1" stop-color="#306998"/></linearGradient><linearGradient id="e" x1="150.961" x2="112.031" y1="192.352" y2="137.273" gradientTransform="matrix(.56254 0 0 .56797 -14.991 -11.702)" gradientUnits="userSpaceOnUse" xlink:href="#a"/><linearGradient id="d" x1="26.649" x2="135.665" y1="20.604" y2="114.398" gradientTransform="matrix(.56254 0 0 .56797 -14.991 -11.702)" gradientUnits="userSpaceOnUse" xlink:href="#b"/><radialGradient id="f" cx="61.519" cy="132.286" r="29.037" fx="61.519" fy="132.286" gradientTransform="matrix(0 -.23995 1.05467 0 -83.7 142.462)" gradientUnits="userSpaceOnUse" xlink:href="#c"/></defs><path fill="url(#d)" d="M54.91878.00092c-4.58365.0213-8.96093.41222-12.8125 1.09375-11.34621 2.0045-13.40624 6.2001-13.40624 13.9375v10.21875h26.8125v3.40625h-36.875c-7.79246 0-14.61576 4.68372-16.75 13.59375-2.46182 10.21296-2.57102 16.58602 0 27.25 1.90592 7.93785 6.45754 13.59375 14.25 13.59375h9.21874v-12.25c0-8.8499 7.65715-16.65625 16.75-16.65625h26.78126c7.45495 0 13.40625-6.13817 13.40624-13.625V15.03217c0-7.26634-6.12997-12.72478-13.40624-13.9375-4.606-.76673-9.3851-1.11505-13.96876-1.09375zm-14.5 8.21875c2.76955 0 5.03126 2.29865 5.03126 5.125 0 2.81633-2.2617 5.09375-5.03126 5.09375-2.77947 0-5.03124-2.27742-5.03124-5.09375 0-2.82635 2.25177-5.125 5.03124-5.125z"/><path fill="url(#e)" d="M85.63753 28.65717v11.90625c0 9.23075-7.82589 17-16.75 17H42.1063c-7.33584 0-13.40625 6.27848-13.40626 13.625v25.53125c0 7.26634 6.3186 11.54032 13.40625 13.625 8.48734 2.49561 16.62624 2.94663 26.78126 0 6.75015-1.95439 13.40625-5.88761 13.40624-13.625V86.50092H55.51255v-3.40625h40.1875c7.79246 0 10.69625-5.4354 13.40624-13.59375 2.79933-8.39889 2.68022-16.47578 0-27.25-1.92578-7.75744-5.60387-13.59375-13.40624-13.59375zm-15.0625 64.65625c2.77948 0 5.03126 2.27742 5.03126 5.09375 0 2.82635-2.25178 5.125-5.03126 5.125-2.76954 0-5.03124-2.29865-5.03124-5.125 0-2.81633 2.2617-5.09375 5.03124-5.09375z"/><ellipse cx="55.817" cy="127.701" fill="url(#f)" opacity=".444" rx="35.931" ry="6.967"/></svg>