<svg xmlns="http://www.w3.org/2000/svg" role="img" viewBox="80.12 196.12 1085.76 506.76"><title>Qualcomm logo</title><path fill="#d39329" d="M123.596 599.4h1002.212v82.751H123.67l-.074-82.751z"/><path fill="#fff" d="M295.93848 663.07031v-44.70117h46.75928v5.27441h-37.58691v13.84375h32.52832v5.27539h-32.52832v20.30762h-9.17236zm82.78662-21.77148c0-7.41992 3.08887-13.22852 9.2666-17.42676 6.17773-4.19727 14.15234-6.2959 23.92383-6.2959 6.39844 0 12.16602.98633 17.30371 2.95703 5.1377 1.97266 9.05469 4.72168 11.74902 8.24902 2.69531 3.52637 4.04297 7.52637 4.04297 11.99805 0 4.5332-1.41895 8.58887-4.25586 12.16699-2.83594 3.57812-6.85547 6.28613-12.05566 8.12598-5.20117 1.83984-10.81152 2.75977-16.83203 2.75977-6.52441 0-12.35547-1.0166-17.49316-3.0498-5.1377-2.03223-9.03027-4.80664-11.67773-8.32422-2.64746-3.5166-3.97168-7.23633-3.97168-11.16016zm9.45605.0918c0 5.38672 2.24609 9.63086 6.7373 12.73047s10.125 4.64941 16.90234 4.64941c6.90234 0 12.58398-1.56445 17.04395-4.69531 4.45996-3.12988 6.69043-7.57227 6.69043-13.3252 0-3.63867-.9541-6.81543-2.86035-9.5293-1.90723-2.71289-4.69727-4.81738-8.36914-6.31152s-7.79297-2.24121-12.36328-2.24121c-6.49316 0-12.08008 1.43848-16.76074 4.31445-4.68066 2.87695-7.02051 7.67969-7.02051 14.4082zm141.03418-23.02149h9.17188v25.82617c0 4.49316-.78809 8.06055-2.36328 10.70312-1.57715 2.64258-4.4209 4.79199-8.53418 6.44922s-9.51172 2.48535-16.19336 2.48535c-6.49316 0-11.80469-.72266-15.93359-2.16504-4.12891-1.44336-7.07617-3.53223-8.84082-6.2666-1.76562-2.7334-2.64746-6.46875-2.64746-11.20605v-25.82617h9.17188v25.7959c0 3.88281.55957 6.74414 1.67871 8.58398 1.11816 1.83984 3.04102 3.25781 5.76758 4.25293 2.72656.99707 6.05957 1.49414 10 1.49414 6.74414 0 11.55176-.98535 14.41992-2.95703s4.30273-5.76367 4.30273-11.37402v-25.7959zm51.25098 44.70117v-44.70117h9.4082l36.40576 35.0957v-35.0957h8.79395v44.70117h-9.4082l-36.40576-35.12695v35.12695h-8.79395zm96.92334 0v-44.70117h23.87695c5.38965 0 9.50293.21289 12.33984.63965 3.9707.58984 7.35938 1.65723 10.16504 3.20215 3.65625 1.99219 6.38965 4.53809 8.20312 7.6377 1.81152 3.10059 2.71777 6.64258 2.71777 10.62695 0 3.39551-.61426 6.40332-1.84375 9.02539-1.22949 2.62305-2.80566 4.79297-4.72754 6.51074-1.92285 1.71777-4.02734 3.06934-6.31152 4.05469-2.28613.98633-5.04395 1.7334-8.27441 2.24121-3.23145.50879-6.94238.7627-11.13379.7627h-25.01172zm9.17283-5.27539h14.79787c4.57031 0 8.15625-.27441 10.75684-.82324 2.59961-.54883 4.67188-1.32129 6.2168-2.31738 2.1748-1.40234 3.86914-3.28809 5.08301-5.65625 1.21289-2.36816 1.82031-5.23926 1.82031-8.61426 0-4.6748-1.19043-8.26758-3.57031-10.77832s-5.27148-4.19336-8.67578-5.04688c-2.45801-.60938-6.41406-.91504-11.86719-.91504h-14.56154v34.15137zm89.21584 5.27539v-44.70117h9.17188v44.70117h-9.17188zm52.14941 0v-44.70117h9.4082l36.40527 35.0957v-35.0957h8.79395v44.70117h-9.4082l-36.40527-35.12695v35.12695h-8.79395zm129.35645-17.5332v-5.24414l29.36035-.03125v16.58789c-4.50781 2.31738-9.15723 4.06055-13.94727 5.22949-4.79199 1.16895-9.70898 1.75391-14.75195 1.75391-6.80762 0-12.99414-.94043-18.55664-2.82129-5.56348-1.87988-9.76367-4.59863-12.60059-8.15625-2.83594-3.55762-4.25488-7.53125-4.25488-11.92285 0-4.34961 1.41016-8.41016 4.23145-12.18164 2.82031-3.77051 6.87891-6.57031 12.1748-8.40039 5.29492-1.8291 11.39453-2.74414 18.29688-2.74414 5.01172 0 9.54199.52344 13.59277 1.57031 4.0498 1.04688 7.22559 2.50586 9.52734 4.37598 2.2998 1.87012 4.0498 4.30957 5.24805 7.31738l-8.27441 1.46387c-1.04004-2.27637-2.33301-4.06543-3.87695-5.36621-1.54492-1.30078-3.75098-2.34277-6.61914-3.12598-2.86816-.78223-6.05176-1.17383-9.5498-1.17383-4.19238 0-7.81738.41211-10.875 1.23535s-5.52441 1.90527-7.39941 3.24707-3.33301 2.81543-4.37305 4.42188c-1.76562 2.76465-2.64746 5.7627-2.64746 8.99512 0 3.98438 1.06348 7.31738 3.19141 10.00098s5.22461 4.67578 9.29004 5.97656c4.06641 1.30078 8.38477 1.95117 12.95508 1.95117 3.97168 0 7.84863-.49219 11.63086-1.47852 3.78223-.98535 6.64941-2.03809 8.60449-3.15625v-8.32422H957.2842z"/><path fill="#4054d6" d="M561.04987 220.56647c2.96801 0 5.02265 2.51065 5.02265 5.25064v151.13297c0 2.73998-2.05464 5.25198-5.02265 5.25198h-13.47063c-2.73864 0-5.25064-2.512-5.25064-5.25198V225.81711c0-2.73998 2.512-5.25064 5.25064-5.25064h13.47063m176.93157 142.45698c-19.63464 0-33.55989-15.75195-33.55989-35.61325 0-20.09061 13.92534-35.61458 33.55989-35.61458 19.63325 0 33.55859 15.52397 33.55859 35.61458 0 19.86128-13.92534 35.61323-33.55859 35.61323m0-93.3731c-31.96257 0-57.53184 25.11326-57.53184 57.75987 0 32.87459 25.56927 57.75852 57.53184 57.75852s57.53054-24.88393 57.53054-57.75852c0-32.64659-25.56927-57.75987-57.53054-57.75987m-63.46786 97.02641c2.96801 3.65199.45597 6.39199-1.14135 7.53331-9.35862 7.07866-21.68793 10.95863-35.15722 10.95863-34.01725 0-56.61721-24.88393-56.61721-57.75852s22.59996-57.98785 56.61721-57.98785c13.46929 0 25.7986 3.88 35.15722 10.95731 1.59733 1.14266 3.88134 3.65465 1.14135 7.53465l-6.39199 8.90397c-2.51196 3.42398-5.47997 2.51065-7.99062.91201-5.93464-3.65199-13.01193-6.61998-21.23196-6.61998-19.86128 0-33.10258 15.97996-33.10258 36.29992 0 20.31861 13.2413 36.07057 33.10258 36.07057 8.21995 0 14.83997-3.196 20.77591-6.61998 2.51196-1.37066 5.25064-2.51065 7.98932 1.13999l6.84935 8.67598zm-212.77283-3.42398c-19.63329 0-33.55993-15.98128-33.55993-35.84258 0-20.09061 13.92664-35.61458 33.55993-35.61458 19.40527 0 33.55993 15.52397 33.55993 35.61458 0 19.86128-14.15463 35.84258-33.55993 35.84258m52.05053-90.63444H500.3233c-2.73998 0-5.25064 2.28267-5.25064 5.25066v9.13198c-6.84931-10.27331-20.09061-17.57863-35.84256-17.57863-29.67994 0-55.24921 23.51461-55.24921 57.75852 0 34.70125 25.56927 57.98785 55.01988 57.98785 15.98128 0 28.9946-7.30532 36.07193-17.57729v9.58797c0 2.73866 2.51065 5.02133 5.25064 5.02133h13.46798c2.73998 0 5.02399-2.28267 5.02399-5.02133v-99.31042c0-2.96799-2.28401-5.25066-5.02399-5.25066m631.89443 104.10375c1.14266 2.73998-.22803 5.47864-3.65201 5.47864h-15.068c-2.73998 0-5.02269-1.36932-5.93602-4.10932l-27.8519-74.88114-28.30926 74.88114c-1.14135 2.96799-3.19465 4.10932-5.93464 4.10932h-13.47067c-2.73868 0-4.79467-1.14133-5.93602-4.10932l-28.5359-75.33848-28.08123 75.33848c-1.14135 2.73998-3.19596 4.10932-5.93464 4.10932h-14.15597c-2.73868 0-4.79328-1.36932-5.93602-4.10932l-27.8519-75.33848-28.76523 75.33848c-1.14135 2.96799-3.19596 4.10932-5.93602 4.10932h-13.46929c-2.73868 0-4.79328-1.14133-5.93464-4.10932l-28.08123-75.33848-28.08123 75.33848c-.91203 2.73998-3.19596 4.10932-5.93464 4.10932h-14.61194c-3.42398 0-4.79328-2.73866-3.65201-5.47864l38.12393-99.76642c1.14266-2.96799 3.19734-4.33733 5.93732-4.33733h16.43599c2.73998 0 4.79467 1.36932 5.93732 4.33733l26.93857 72.82782 27.1666-72.82782c1.14266-2.96799 3.19734-4.33733 5.93602-4.33733h16.20927c2.73998 0 4.79467 1.36932 5.93732 4.33733l26.93857 72.82782 26.93857-72.82782c1.14135-2.96799 3.19596-4.33733 5.93602-4.33733h16.20797c2.73998 0 4.79467 1.36932 5.93732 4.33733l27.39463 72.82782 26.71063-72.82782c1.14135-2.96799 3.19596-4.33733 5.93602-4.33733h16.4373c2.73998 0 4.79328 1.36932 5.93602 4.33733l38.12523 99.76642m-924.82567-26.79193l-10.47464-27.31459c-.91333-2.28267-2.73998-4.33733-6.84931-4.33733h-13.6989c-3.42398 0-6.16264 2.28267-4.56532 6.62132l13.84129 35.92258c-4.59065 1.136-9.44397 1.74534-14.52664 1.74534-33.78792 0-57.75852-26.48394-57.75852-61.18385s23.9706-61.18253 57.75852-61.18253 57.75987 26.48126 57.75987 61.18251c0 20.14928-8.09332 37.51323-21.48662 48.54655m-36.27325-132.33166c-46.11589 0-83.3278 35.84258-83.3278 83.78513s37.2119 83.78513 83.3278 83.78513c7.88798 0 15.50529-1.07066 22.73062-3.05065l9.00399 23.36929c.91201 2.51066 2.73866 4.11066 6.16399 4.11066H236.868c3.42398 0 5.93466-2.28399 4.33599-6.62131l-11.72664-30.57992c23.13062-14.53329 38.43724-40.27724 38.43724-71.01315 0-47.94255-37.21058-83.78513-83.3278-83.78513m198.61952 55.01986c2.73998 0 5.25064 2.28267 5.25064 5.25066v99.30908c0 2.73998-2.51065 5.02265-5.25064 5.02265h-13.46929c-2.512 0-5.02265-2.05466-5.02265-4.79465v-9.13198c-6.84931 10.04665-18.49328 16.89463-35.61458 16.89463-28.53724 0-46.11724-18.94795-46.11724-47.02788v-60.49985c0-2.73998 2.512-5.02265 5.25198-5.02265h13.46929c2.73998 0 5.02265 2.28267 5.02265 5.02265v56.61719c0 18.26529 9.58799 30.36392 28.53724 30.36392 18.49194 0 29.45061-12.55596 29.45061-30.13593v-56.8452c0-2.73998 2.51065-5.02265 5.02265-5.02265h13.46929"/></svg>