<svg xmlns="http://www.w3.org/2000/svg" role="img" viewBox="-1.04 -1.04 47.45 28.57"><title>RIAT - Institute for Future Cryptoeconomics (member) logo</title><defs><style>.cls-1{fill:none;stroke:#000;stroke-linejoin:round}</style></defs><g id="_Group_" data-name="&lt;Group&gt;"><g id="_Group_2" data-name="&lt;Group&gt;"><g id="_Group_6" data-name="&lt;Group&gt;"><g id="_Group_7" data-name="&lt;Group&gt;"><path id="_Path_2" d="M11.7 13.3V.5L.5 6.9l11.2 6.4z" class="cls-1" data-name="&lt;Path&gt;"/><path id="_Path_3" d="M11.7 26.2V13.3L.5 19.8l11.2 6.4z" class="cls-1" data-name="&lt;Path&gt;"/><path id="_Path_4" d="M22.8 6.9L11.7.5v12.8l11.1-6.4z" class="cls-1" data-name="&lt;Path&gt;"/><path id="_Path_5" d="M.5 6.9v12.9l11.2-6.5L.5 6.9z" class="cls-1" data-name="&lt;Path&gt;"/></g><g id="_Group_8" data-name="&lt;Group&gt;"><path id="_Path_6" d="M33.9 13.3v12.9l11.2-6.4-11.2-6.5z" class="cls-1" data-name="&lt;Path&gt;"/><path id="_Path_7" d="M33.9.5v12.8l11.2-6.4L33.9.5z" class="cls-1" data-name="&lt;Path&gt;"/><path id="_Path_8" d="M22.8 19.8l11.1 6.4V13.3l-11.1 6.5z" class="cls-1" data-name="&lt;Path&gt;"/><path id="_Path_9" d="M45.1 19.8V6.9l-11.2 6.4 11.2 6.5z" class="cls-1" data-name="&lt;Path&gt;"/></g><path id="_Path_10" d="M33.9 26.2V13.3" class="cls-1" data-name="&lt;Path&gt;"/><path id="_Path_11" d="M11.7.5v12.8" class="cls-1" data-name="&lt;Path&gt;"/><path id="_Path_12" d="M11.7 26.2V13.3L33.9.5v12.8L11.7 26.2z" class="cls-1" data-name="&lt;Path&gt;"/></g></g></g></svg>