<svg xmlns="http://www.w3.org/2000/svg" role="img" viewBox="-7.93 -8.43 375.36 516.36"><title>RISC-V Compatible logo</title><style>svg {enable-background:new 0 0 360 500}</style><style>.st1{fill:#fff}.st2{fill:#262f75}.st3{fill:#ffc600}</style><path fill="none" d="M356.4 94L201.8 312.6 356.4 94z"/><path d="M356.4 94L201.8 312.6l-7.8 10.9L108.2 222c60.8-11 92.1-57.8 92.1-109.3S169.1 8.1 105.1 1.9H2.1v49.9h81.2c43.7 0 65.6 29.6 65.6 60.9 0 31.2-21.9 62.4-65.6 62.4H23.9v25l129.6 156.1h79l11.4-15.6 114-159.2V91.9l-1.5 2.1z" class="st1"/><path d="M77.7 397.9l-39.9.1v8l39.5.1c2.4 0 4.3-1.9 4.3-4.3 0-2.2-1.8-3.9-3.9-3.9zm101.1 63.2h9.9l-5-11.5zm-22.1-11.7h-10v8.9h9.3c3.8 0 5.1-2.1 5.1-4.7 0-2.5-1.4-4.2-4.4-4.2z" class="st2"/><ellipse cx="76.7" cy="459" class="st2" rx="10.6" ry="10.3"/><path d="M266.2 453.1c0-2.4-1.3-3.8-4.4-3.8h-10.3v7.4H262c2.8.1 4.2-1.5 4.2-3.6zm1.1 11.2c0-2-1.2-4.2-5.1-4.2h-10.8v8.6h10.5c4.3 0 5.4-2.2 5.4-4.4z" class="st2"/><path d="M356.4 1.9H105.1c64 6.2 95.2 59.3 95.2 110.8S169.1 211 108.2 222L194 323.4l7.8-10.9L356.4 94l1.5-2.2V1.9h-1.5z" class="st3"/><path d="M232.6 356.3h-79L23.9 200.2v-25h59.3c43.7 0 65.6-31.2 65.6-62.4 0-31.3-21.9-60.9-65.6-60.9H2.1v446.2H358V181.4L244 340.6l-11.4 15.7zm-117.8 66.5h49.1c2.3 0 4.2-1.9 4.1-4.2 0-2.1-1.7-3.9-3.9-3.9h-35.9c-3.7 0-6.9-1.1-9.4-3.7-2.6-2.6-4-5.7-4-9.4s1.4-6.9 4-9.4c2.6-2.6 5.7-4 9.4-4h49.5v9.4h-49.4c-2.1 0-3.9 1.7-3.9 3.9 0 2.1 1.7 3.8 3.9 3.9l36 .3c3.7 0 6.9 1.4 9.4 4 2.6 2.6 4 5.7 4 9.4s-1.4 6.9-4 9.4c-2.6 2.6-5.7 4-9.4 4h-49.5v-9.7zm-73.7 46.6c4.6 0 8-2.2 9.1-7.3H54c-.6 5.8-5.6 10.6-13 10.6-6.6 0-13.7-3.6-13.7-13.7 0-7.6 4.7-13.6 13.6-13.6 5.2 0 12.4 2.2 13.1 10h-3.9c-.6-3.6-3.4-6.7-8.9-6.7-6.2 0-10.1 3.5-10.1 10.6.1 5 2.8 10.1 10 10.1zm35.6 3.3c-10.5 0-14.5-7-14.5-13.7 0-6.7 4-13.7 14.5-13.7s14.5 7 14.5 13.7c-.1 6.7-4.1 13.7-14.5 13.7zm14.6-40.2H79.6L67 415.1H37.8v17.5h-9.4v-44.3h49.5c3.7 0 6.9 1.4 9.4 4 2.6 2.6 4 5.7 4 9.4s-1.4 6.9-4 9.4c-2.3 2.6-5.2 3.7-8.6 4l12.6 17.4zm6.9-44.3h9.4v44.3h-9.4v-44.3zm33.8 83.9h-3.9v-21.6h-.1l-10.1 21.6h-3.4L104.4 451h-.1v21.1h-3.9v-26h5.4l10.3 21.6 10.4-21.6h5.4v26zm24.5-10.5h-9.8V472h-3.9v-26h13.4c5.7 0 8.7 2.6 8.7 7.5.1 4.9-2.9 8.1-8.4 8.1zm36.9 10.5l-3.3-7.6h-12.8l-3.3 7.6h-4.2l11.8-26h4.4l11.8 26h-4.4zm31-22.7h-9.8v22.7h-3.9v-22.7h-9.8V446h23.6v3.4zm12.1 22.7h-3.9v-26h3.9v26zm64.4 0h-19.7v-26h3.9v22.7h15.8v3.3zm28.6-15.2v3.4H313v8.4h17.4v3.4h-21.3v-26H330v3.4h-17v7.5h16.5zm-52-68.7l20.3 35.2 20.3-35.2H329l-25.7 44.3h-10.9l-25.9-44.3h11zm-26.6 18h18.6v8.6h-18.6v-8.6zm-3.3 39.8H262c5.5 0 8 2.4 8 6.5 0 3.2-1.7 4.7-3.8 5.5v.1c3 .7 4.9 2.7 4.9 6.4s-2.6 7.5-8.2 7.5h-15.4v-26zm-2.4-48.3h-40.9c-3.4 0-6.3 1.1-8.9 3.7-2.6 2.6-3.7 5.4-3.7 8.9 0 3.4 1.1 6.3 3.7 8.9 2.6 2.6 5.4 3.7 8.9 3.7h40.9v9.7h-40.9c-6 0-11.2-2.3-15.5-6.6-4.3-4.3-6.3-9.4-6.3-15.4s2-11.2 6.3-15.4c4.3-4.6 9.4-6.9 15.4-6.9h40.9v9.4z" class="st2"/><path d="M98.2 388.2h9.4v44.3h-9.4zm75.5 40.3c2.6-2.6 4-5.7 4-9.4s-1.4-6.9-4-9.4c-2.6-2.6-5.7-4-9.4-4l-36-.3c-2.1 0-3.8-1.7-3.9-3.9 0-2.1 1.7-3.9 3.9-3.9h49.4v-9.4h-49.5c-3.7 0-6.9 1.4-9.4 4-2.6 2.6-4 5.7-4 9.4s1.4 6.9 4 9.4c2.6 2.6 5.7 3.7 9.4 3.7h35.9c2.1 0 3.9 1.7 3.9 3.9 0 2.3-1.9 4.2-4.1 4.2h-49.1v9.7h49.5c3.6 0 6.8-1.4 9.4-4zm15.1-33.4c-4.3 4.3-6.3 9.4-6.3 15.4s2 11.2 6.3 15.4c4.3 4.3 9.5 6.6 15.5 6.6h40.9v-9.7h-40.9c-3.4 0-6.3-1.1-8.9-3.7-2.6-2.6-3.7-5.4-3.7-8.9 0-3.4 1.1-6.3 3.7-8.9 2.6-2.6 5.4-3.7 8.9-3.7h40.9v-9.4h-40.9c-6 0-11.2 2.3-15.5 6.9zm-101.5 16c2.6-2.6 4-5.7 4-9.4s-1.4-6.9-4-9.4c-2.6-2.6-5.7-4-9.4-4H28.4v44.3h9.4v-17.5H67l12.6 17.5h11.7l-12.6-17.5c3.5-.3 6.3-1.4 8.6-4zm-10-5.1l-39.5-.1v-8l39.9-.1c2.1 0 3.9 1.7 3.9 3.9 0 2.4-1.9 4.3-4.3 4.3z" class="st1"/><path d="M303.2 432.5l25.8-44.3h-11l-20.2 35.2-20.3-35.2h-11.1l25.9 44.3zm-52.3-26.3h18.6v8.6h-18.6z" class="st3"/><path d="M41.3 448.7c5.5 0 8.3 3.1 8.9 6.7H54c-.7-7.8-7.8-10-13.1-10-8.9 0-13.6 6-13.6 13.6 0 10.1 7.1 13.7 13.7 13.7 7.4 0 12.4-4.8 13-10.6h-3.9c-1.1 5.1-4.6 7.3-9.1 7.3-7.2 0-9.8-5.1-9.8-10 0-7.1 3.9-10.7 10.1-10.7zm35.4-3.3c-10.5 0-14.5 7-14.5 13.7 0 6.7 4 13.7 14.5 13.7s14.5-7 14.5-13.7c-.1-6.7-4.1-13.7-14.5-13.7zm0 24c-5.9 0-10.6-3.4-10.6-10.3s4.7-10.3 10.6-10.3c5.9 0 10.6 3.4 10.6 10.3 0 6.8-4.7 10.3-10.6 10.3zm39.5-1.8L105.9 446h-5.5v26.1h3.9v-21.2h.1l10.1 21.2h3.4l10.1-21.6h.1v21.6h3.9V446h-5.4zm40.1-21.6h-13.4v26h3.9v-10.4h9.8c5.5 0 8.5-3.2 8.5-8.1-.1-4.8-3.1-7.5-8.8-7.5zm-.3 12.3h-9.3v-8.9h10c3 0 4.4 1.7 4.4 4.2 0 2.6-1.2 4.7-5.1 4.7zm25.6-12.3l-11.8 26h4.2l3.3-7.6h12.8l3.3 7.6h4.4L186 446h-4.4zm-2.8 15.1l4.9-11.5 5 11.5h-9.9zm22-11.7h9.9v22.7h3.8v-22.7h9.9V446h-23.6zm31.8-3.4h3.9v26h-3.9zm38.6 18.5c0-3.8-1.9-5.7-4.9-6.4v-.1c2.1-.8 3.8-2.3 3.8-5.5 0-4.1-2.5-6.5-8-6.5h-14.5v26H263c5.6.1 8.2-3.7 8.2-7.5zm-19.8-15.1h10.3c3.2 0 4.4 1.4 4.4 3.8 0 2.1-1.4 3.6-4.2 3.6h-10.5v-7.4zm0 19.3v-8.6h10.8c3.9 0 5.1 2.1 5.1 4.2 0 2.2-1.1 4.4-5.4 4.4h-10.5zm33.7-22.7h-3.9v26.1h19.7v-3.4h-15.8zm45 3.4V446h-21v26.1h21.3v-3.4H313v-8.4h16.5v-3.4H313v-7.5z" class="st1"/></svg>