<svg xmlns="http://www.w3.org/2000/svg" role="img" viewBox="-19.98 -19.98 1038.96 365.96"><title>RISC-V Development Partner logo</title><defs><style>.cls-1{fill:#262f75}.cls-4{fill:none}</style></defs><path d="M326.96 0H1000v326.96H326.96z" class="cls-1"/><path fill="#fff" d="M500.98 64.45h14.54v68.27h-14.54zm101.16 53.33h-75.61v15h76.18a20.56 20.56 0 0 0 14.54-35.24 20 20 0 0 0-14.54-6.15l-55.42-.42a6 6 0 0 1-5.93-5.93 6 6 0 0 1 6-5.94l76.09-.05v-14.6h-76.22a21.08 21.08 0 0 0-20.7 20.71 20 20 0 0 0 6.17 14.53 19.54 19.54 0 0 0 14.53 5.7h55.36a5.94 5.94 0 0 1 5.94 6 6.39 6.39 0 0 1-6.39 6.39zm62.22-53.33h63v14.54h-63A19.53 19.53 0 0 0 645 98.39a19.51 19.51 0 0 0 19.37 19.37h63v15H664.4c-9.25 0-17.2-3.55-23.82-10.15a32.23 32.23 0 0 1-9.68-23.82 32.24 32.24 0 0 1 9.68-23.78q9.93-10.54 23.78-10.56zM468.84 91.87l-60.77-.11V79.44l61.38-.13a6 6 0 0 1 6 6 6.61 6.61 0 0 1-6.61 6.56zm21.58 40.85l-19.37-26.88c5.26-.43 9.67-2.19 13.2-6.15a20.71 20.71 0 0 0-14.54-35.24h-76.18v68.27h14.54v-26.88H453l19.37 26.88zm309.58 0l-39.89-68.27h17.07l31.19 54.16 31.2-54.16h16.81l-39.65 68.27m-80.57-40.54h28.62v13.22h-28.62z"/><path fill="#ffc600" d="M391.54 162.61h20.4c12.06 0 17.58 7.89 17.58 19.56 0 11.21-4.9 20.68-17.24 20.68h-20.74zM412 197.66c9.81 0 11.56-8.23 11.56-15.38s-2.31-14.48-12.68-14.48h-13.37v29.86zm32.27-35.05h32.35v5.19h-26.37v11.66h25.58v5.18h-25.58v13h26.93v5.19h-32.91zm78.1 0h6.42l-17.63 40.24h-6.37l-17.92-40.24h6.76l14.48 34zm18.03 0h32.34v5.19h-26.37v11.66H572v5.18h-25.63v13h26.94v5.19H540.4zm47.78 0h6v35.05h24.46v5.19h-30.46zm63.33-1.01c16.17 0 22.37 10.82 22.37 21.13s-6.2 21.13-22.37 21.13-22.37-10.82-22.37-21.13 6.2-21.13 22.37-21.13zm0 5.18c-9.19 0-16.4 5.3-16.4 16s7.21 15.95 16.4 15.95 16.4-5.3 16.4-15.95-7.22-16-16.4-16zm36.96-4.17h20.73c8.85 0 13.47 4.06 13.47 11.55s-4.62 12.57-13.07 12.57h-15.16v16.12h-6zm20.34 18.94c5.92 0 7.89-3.22 7.89-7.27 0-3.84-2.26-6.48-6.82-6.48h-15.44v13.75zm68.46-18.94h8.28v40.24h-6v-33.36h-.11l-15.64 33.36h-5.3l-15.6-32.69h-.12v32.69h-6v-40.24h8.4l15.94 33.36zm24.84 0h32.35v5.19h-26.38v11.66h25.59v5.18h-25.59v13H835v5.19h-32.89zm53.89 8.23h-.12v32h-6v-40.23h6.93l25.87 32h.11v-32h6v40.24h-6.93zm60.49-3.04h-15.21v-5.19h36.4v5.19h-15.22v35.05h-6zm-524.73 57.66h20.74c8.85 0 13.47 4.06 13.47 11.55s-4.62 12.57-13.07 12.57h-15.16v16.12h-6zm20.35 18.93c5.91 0 7.89-3.22 7.89-7.27 0-3.83-2.26-6.48-6.82-6.48h-15.44v13.75zm52.62 9.59H445l-5.13 11.72h-6.42l18.2-40.24h6.82l18.2 40.24h-6.82zm-9.92-23l-7.55 17.81h15.27zm34.09-5.52h24.91c8.05 0 11 5.58 11 10.71 0 4.9-2.36 8.51-6.76 9.92v.11c3.55.51 5.64 3.83 5.86 8.57.34 7.49.57 9.35 1.92 10.93h-6.33c-1-1.13-1-2.82-1.24-7.67-.4-7.21-2.82-9.41-7.78-9.41h-15.61v17.08h-6zm22.65 18c5.86 0 7.27-3.55 7.27-6.37 0-3.83-2.31-6.42-7.1-6.42h-16.85v12.79zm38.71-12.81H535v-5.19h36.41v5.19h-15.18v35.05h-6zm39.74 3.04h-.12v32h-6v-40.23h6.93l25.87 32h.11v-32h6v40.24h-6.89zm49.62-8.23H672v5.19h-26.41v11.66h25.58v5.19h-25.58v13h26.94v5.19h-32.91zm47.78 0h24.9c8.06 0 11 5.58 11 10.71 0 4.9-2.37 8.51-6.76 9.92v.11c3.55.51 5.63 3.83 5.86 8.57.34 7.49.56 9.35 1.92 10.93H718c-1-1.13-1-2.82-1.24-7.67-.39-7.21-2.81-9.41-7.77-9.41h-15.62v17.08h-6zm22.65 18c5.86 0 7.27-3.55 7.27-6.37 0-3.83-2.31-6.42-7.1-6.42h-16.85v12.79zM0 0h326.96v326.96H0z"/><path d="M163.48 165.46A14.52 14.52 0 1 0 149 150.94a14.53 14.53 0 0 0 14.48 14.52zm0 9.55a38.59 38.59 0 0 0-31.67 16.54 42.24 42.24 0 0 0 63.34 0 38.59 38.59 0 0 0-31.67-16.54z" class="cls-4"/><path d="M200.86 183.3a42.36 42.36 0 1 0-74.76 0 48.14 48.14 0 0 1 20.9-14.91 24.06 24.06 0 1 1 33 0 48.14 48.14 0 0 1 20.86 14.91z" class="cls-4"/><path d="M277.31 171.39v-15.77l-25.66-3.66a8.68 8.68 0 0 1-7.21-6.67c-.5-2.21-1.09-4.42-1.76-6.57a8.68 8.68 0 0 1 2.92-9.37l20.4-15.96-7.85-13.69-24.05 9.69a8.65 8.65 0 0 1-9.57-2.16c-1.54-1.66-3.16-3.28-4.81-4.81a8.67 8.67 0 0 1-2.16-9.57l9.69-24-13.65-7.92-16 20.39a8.68 8.68 0 0 1-9.37 2.92c-2.14-.67-4.35-1.26-6.57-1.76a8.68 8.68 0 0 1-6.66-7.21l-3.6-25.61-15.79-.05L152 75.27a8.65 8.65 0 0 1-6.66 7.21c-2.21.49-4.42 1.09-6.57 1.76a8.67 8.67 0 0 1-9.37-2.92l-15.98-20.37-13.69 7.85 9.67 24.06a8.67 8.67 0 0 1-2.16 9.57c-1.66 1.54-3.28 3.15-4.81 4.81a8.67 8.67 0 0 1-9.57 2.15l-24-9.69-7.93 13.69 20.39 16a8.68 8.68 0 0 1 2.92 9.37c-.67 2.15-1.27 4.36-1.76 6.57a8.68 8.68 0 0 1-7.21 6.67l-25.62 3.6v15.79l25.66 3.66a8.65 8.65 0 0 1 7.21 6.66c.49 2.21 1.08 4.42 1.76 6.58a8.68 8.68 0 0 1-2.92 9.36l-20.42 15.89 7.86 13.69 24.06-9.67a8.68 8.68 0 0 1 9.57 2.16c1.53 1.66 3.15 3.28 4.81 4.81a8.69 8.69 0 0 1 2.16 9.57l-9.69 24 13.65 7.93 16-20.39a8.69 8.69 0 0 1 6.81-3.3 8.87 8.87 0 0 1 2.56.38c2.15.68 4.36 1.27 6.57 1.76a8.65 8.65 0 0 1 6.7 7.21l3.61 25.62h15.78l3.61-25.62a8.68 8.68 0 0 1 6.67-7.21c2.21-.49 4.42-1.09 6.57-1.76a8.71 8.71 0 0 1 9.37 2.92l15.93 20.38 13.69-7.86-9.67-24.06a8.67 8.67 0 0 1 2.16-9.57c1.65-1.52 3.27-3.14 4.81-4.81a8.68 8.68 0 0 1 9.57-2.16l24 9.69 7.9-13.65-20.39-16a8.67 8.67 0 0 1-2.92-9.37c.68-2.15 1.27-4.36 1.76-6.57a8.65 8.65 0 0 1 7.21-6.66zm-113.6 58.83a66.75 66.75 0 1 1 66.75-66.75 66.82 66.82 0 0 1-66.75 66.76z" class="cls-4"/><path d="M163.71 105.68a57.81 57.81 0 1 0 57.81 57.8 57.87 57.87 0 0 0-57.81-57.8zm-.23 109a51.23 51.23 0 1 1 51.22-51.23 51.28 51.28 0 0 1-51.22 51.26z" class="cls-4"/><path d="M278.64 146.12l-25-3.52c-.47-2.05-1-4.1-1.63-6.12l19.87-15.54a9.63 9.63 0 0 0 2.4-12.35l-7.87-13.63a9.63 9.63 0 0 0-11.9-4.09l-23.41 9.44c-1.43-1.53-2.92-3-4.46-4.46l9.45-23.41a9.64 9.64 0 0 0-4.1-11.9l-13.63-7.87a9.63 9.63 0 0 0-12.36 2.4l-15.52 19.87c-2-.61-4-1.15-6.12-1.63l-3.51-25a9.65 9.65 0 0 0-9.5-8.25h-15.74a9.65 9.65 0 0 0-9.5 8.26l-3.52 25c-2.05.47-4.1 1-6.11 1.63l-15.54-19.88a9.63 9.63 0 0 0-12.36-2.4L95 60.54a9.63 9.63 0 0 0-4.1 11.9l9.45 23.41c-1.53 1.43-3 2.93-4.47 4.46l-23.45-9.44a9.63 9.63 0 0 0-11.9 4.09l-7.86 13.63a9.62 9.62 0 0 0 2.4 12.35l19.87 15.54c-.61 2-1.16 4.06-1.63 6.12l-25 3.52a9.63 9.63 0 0 0-8.25 9.5v15.77a9.65 9.65 0 0 0 8.25 9.5l25 3.52c.47 2.05 1 4.11 1.63 6.11l-19.87 15.5a9.63 9.63 0 0 0-2.4 12.37l7.86 13.62a9.64 9.64 0 0 0 11.9 4.1l23.41-9.45c1.43 1.53 2.93 3 4.47 4.47l-9.45 23.41A9.64 9.64 0 0 0 95 266.39l13.62 7.86a9.63 9.63 0 0 0 12.36-2.4l15.54-19.87c2 .61 4.06 1.16 6.11 1.63l3.52 25a9.64 9.64 0 0 0 9.5 8.25h15.74a9.64 9.64 0 0 0 9.5-8.25l3.51-25c2.06-.47 4.12-1 6.12-1.63L206 271.89a9.62 9.62 0 0 0 12.35 2.4l13.65-7.9a9.65 9.65 0 0 0 4.1-11.9l-9.45-23.41c1.53-1.44 3-2.94 4.47-4.47l23.41 9.45a9.64 9.64 0 0 0 11.9-4.1l7.86-13.57a9.62 9.62 0 0 0-2.4-12.35L252 190.48c.61-2 1.16-4.07 1.63-6.11l25-3.52a9.65 9.65 0 0 0 8.25-9.5v-15.73a9.63 9.63 0 0 0-8.24-9.5zm-34.16 35.55c-.49 2.21-1.08 4.42-1.76 6.57a8.67 8.67 0 0 0 2.92 9.37l20.39 16-7.93 13.65-24-9.69a8.68 8.68 0 0 0-9.57 2.16c-1.54 1.67-3.16 3.29-4.81 4.81a8.67 8.67 0 0 0-2.16 9.57l9.67 24.06-13.69 7.86-15.93-20.38a8.71 8.71 0 0 0-9.37-2.92c-2.15.67-4.36 1.27-6.57 1.76a8.68 8.68 0 0 0-6.67 7.2l-3.66 25.7h-15.78l-3.56-25.7a8.65 8.65 0 0 0-6.66-7.21c-2.21-.49-4.42-1.08-6.57-1.76a8.87 8.87 0 0 0-2.56-.38 8.69 8.69 0 0 0-6.81 3.3l-16 20.39-13.65-7.93 9.69-24a8.69 8.69 0 0 0-2.16-9.57c-1.66-1.53-3.28-3.15-4.81-4.81a8.68 8.68 0 0 0-9.57-2.16l-24.1 9.67-7.86-13.69 20.38-15.93a8.68 8.68 0 0 0 2.92-9.36c-.68-2.16-1.27-4.37-1.76-6.58a8.65 8.65 0 0 0-7.21-6.66l-25.66-3.62V155.6l25.62-3.6a8.68 8.68 0 0 0 7.21-6.67c.49-2.21 1.09-4.42 1.76-6.57a8.68 8.68 0 0 0-2.88-9.37l-20.39-16 7.93-13.65 24 9.69a8.67 8.67 0 0 0 9.57-2.16c1.53-1.66 3.15-3.27 4.81-4.81a8.67 8.67 0 0 0 2.16-9.57L99.73 68.8l13.69-7.85 15.93 20.37a8.67 8.67 0 0 0 9.37 2.92c2.15-.67 4.36-1.27 6.57-1.76a8.65 8.65 0 0 0 6.71-7.21l3.66-25.66 15.79.05L175 75.27a8.68 8.68 0 0 0 6.67 7.21c2.22.5 4.43 1.09 6.57 1.76a8.68 8.68 0 0 0 9.37-2.92l16-20.39 13.65 7.93-9.69 24a8.67 8.67 0 0 0 2.16 9.57c1.65 1.53 3.27 3.15 4.81 4.81a8.65 8.65 0 0 0 9.56 2.15l24.06-9.66 7.84 13.66-20.36 16a8.68 8.68 0 0 0-2.92 9.37c.67 2.15 1.26 4.36 1.76 6.57a8.68 8.68 0 0 0 7.21 6.67l25.66 3.66v15.73L251.73 175a8.65 8.65 0 0 0-7.25 6.67z" class="cls-1"/><path d="M163.71 96.74a66.75 66.75 0 1 0 66.75 66.74 66.82 66.82 0 0 0-66.75-66.74zm57.81 66.74a57.81 57.81 0 1 1-57.81-57.8 57.87 57.87 0 0 1 57.81 57.8z" class="cls-1"/><path d="M163.48 112.26a51.23 51.23 0 1 0 51.22 51.22 51.28 51.28 0 0 0-51.22-51.22zm0 93.58a42.32 42.32 0 0 1-31.67-14.29 38.59 38.59 0 0 1 63.34 0 42.32 42.32 0 0 1-31.67 14.29zm0-69.42A14.52 14.52 0 1 1 149 150.94a14.54 14.54 0 0 1 14.48-14.55zm24.06 14.52A24.06 24.06 0 1 0 147 168.39a48.14 48.14 0 0 0-20.86 14.89 42.36 42.36 0 1 1 74.76 0 48.14 48.14 0 0 0-20.9-14.89 23.89 23.89 0 0 0 7.54-17.45z" class="cls-1"/></svg>