<svg xmlns="http://www.w3.org/2000/svg" role="img" viewBox="-9.24 -8.24 1052.48 240.48"><title>RISC-V Landscape logo</title><defs><style>.cls-2{fill:#30366e}.cls-3{fill:#e0ad33}</style></defs><path d="M121.49911 73.84146c0 28.57441-17.3443 54.52847-51.03466 60.64265l47.54084 56.27537 4.2425-5.9894 85.84803-121.28529V12.45013H68.71755c35.43726 3.36904 52.78156 32.8169 52.78156 61.39133z" class="cls-3"/><path d="M23.6723 108.40527h32.94167c24.20715 0 36.31072-17.3443 36.31072-34.56381 0-17.3443-12.10357-33.81514-36.31072-33.81514H11.56872v168.82615h83.97634L23.6723 122.38053v-13.97526zm122.03396 91.83743l63.13824-88.34362v96.95337h-69.3772l6.23896-8.60975zM427.027 12.173h22.643v106.291h-22.643zm157.50929 83.05575l-117.76104-.09887v23.33467H585.4262c8.89881 0 16.51226-3.46065 22.64257-9.59094 6.1303-6.1303 9.59096-13.74373 9.59096-22.64255s-3.46065-16.41338-9.59096-22.64255c-6.13031-6.1303-13.74376-9.59095-22.64257-9.59095l-86.31856-.59326c-5.04267 0-9.19543-4.15278-9.29432-9.19545 0-5.14154 4.1528-9.19544 9.29432-9.19544l118.55203-.09888V12.17311H499.00876c-8.89882 0-16.51227 3.46065-22.64254 9.59095-6.13031 6.1303-9.59097 13.74373-9.59097 22.64255s3.46066 16.41337 9.59097 22.64255c6.1303 6.1303 13.74372 8.89882 22.64254 8.89882h86.21967c5.14155 0 9.29435 4.15278 9.19544 9.29432.09885 5.53704-4.35056 9.98645-9.88758 9.98645zm96.89824-83.05564h98.08477v22.64254h-98.08477c-8.20667 0-15.02912 2.66965-21.25828 8.89882-6.13031 6.1303-8.89882 13.0516-8.89882 21.2583s2.7685 15.0291 8.89882 21.25828c6.22916 6.1303 13.0516 8.89882 21.25829 8.89882h98.08476v23.33468h-98.08477c-14.43583 0-26.7953-5.53705-37.0784-15.82012-10.2831-10.28308-15.02913-22.64255-15.02913-37.0784s4.74602-26.79534 15.02913-37.07842c10.38195-10.77746 22.64257-16.3145 37.0784-16.3145zM376.8972 54.88744l-94.6241-.19775v-19.1819l95.61286-.19775c5.14155 0 9.3932 4.15278 9.3932 9.29432-.09888 5.7348-4.64717 10.28308-10.38196 10.28308zm33.61776 63.57711l-30.1571-41.82445c8.20667-.69212 15.02912-3.46065 20.56614-9.59094 6.13031-6.22918 9.59096-13.74373 9.59096-22.64255s-3.46065-16.51225-9.59096-22.64255c-6.1303-6.1303-13.74372-9.59095-22.64254-9.59095H259.63054v106.29144h22.64254V76.6401h70.00403l30.1571 41.82445h28.08074z" class="cls-2"/><path d="M892.732 118.465L830.539 12.173h26.598l48.548 84.341 48.647-84.341h26.202l-61.798 106.292M793.263 55.382h44.593v20.566h-44.593z" class="cls-3"/><path d="M1024.06597 28.82876c0 9.33086-7.2463 16.57716-16.77572 16.57716-9.43012 0-16.87495-7.2463-16.87495-16.57716 0-9.13233 7.44483-16.37863 16.87495-16.37863 9.43012 0 16.77572 7.2463 16.77572 16.37863zm-29.48155 0c0 7.2463 5.3603 13.1029 12.80513 13.1029 7.14706 0 12.5073-5.75733 12.5073-13.00363s-5.261-13.20217-12.6066-13.20217-12.70583 5.8566-12.70583 13.1029zm10.12498 8.53674h-3.77203V20.98687c1.48896-.29779 3.5735-.49632 6.25364-.49632 3.07718 0 4.4669.49632 5.65809 1.19117.8934.69486 1.5882 1.9853 1.5882 3.57352 0 1.78676-1.38972 3.17647-3.37501 3.77205v.2978c1.5882.59558 2.48161 1.78676 2.97793 3.97057.49632 2.48161.7941 3.47426 1.19119 4.06984h-4.06982c-.49632-.59558-.7941-2.08455-1.29043-3.97057-.29778-1.78676-1.29042-2.58088-3.37501-2.58088h-1.78675v6.55145zm0-9.23159h1.78675c2.08453 0 3.77204-.69485 3.77204-2.38235 0-1.48896-1.09189-2.4816-3.47426-2.4816-.99264 0-1.6875.09926-2.08453.19852v4.66543z" class="cls-2"/><path fill="#2b3466" stroke="#2b3566" stroke-miterlimit="10" stroke-width=".921" d="M260.17482 149.03918h4.43418v58.0401h39.66992v3.7217h-44.1041v-61.7618zm87.72838 0h4.43418l30.64352 61.7618h-4.59223l-11.63989-23.2001h-33.41503l-11.40218 23.2001h-4.67189l30.64352-61.7618zm17.18292 35.0777c-5.14729-10.452-10.61067-21.53745-14.80715-30.80157h-.2377c-2.53382 5.38373-9.02641 18.37018-15.04486 30.80157h30.08971zm40.05936-35.0777h4.98798c14.1737 16.62786 31.8314 37.1361 47.66776 56.2194h.2377v-56.2194h4.35516v61.7618h-4.98861c-15.67831-18.29115-31.67272-36.58167-47.74679-55.5853h-.07902v55.5853h-4.43418v-61.7618zm88.35994 0h25.25852c24.70472 0 35.15735 13.77795 35.15735 30.48483 0 18.37018-12.74874 31.27698-34.2862 31.27698h-26.12967v-61.76181zm27.15888 58.2778c18.21213 0 28.66413-11.24413 28.66413-27.31756 0-16.15309-10.37297-27.47624-31.43502-27.47624H497.9396v54.7938h22.7247zm52.72844-13.22351l4.03843-1.34594c3.2463 10.13527 12.58944 15.75734 23.43782 15.75734 8.86836 0 19.63709-3.7217 19.63709-13.30254 0-8.94739-9.26412-10.53166-16.86557-12.51104l-6.968-1.82134c-6.88897-1.82071-20.5879-5.54241-20.5879-17.10327 0-11.0058 12.353-15.99441 23.51747-15.99441 10.68907 0 20.50824 4.7509 24.07127 14.88618l-3.88038 1.42559c-2.84992-7.60146-10.61005-12.6691-20.98302-12.6691-9.81855 0-18.2115 4.59224-18.2115 12.03564 0 9.10544 12.27333 12.19368 16.62786 13.38157l7.04765 1.90036c8.78871 2.37514 21.06205 4.75091 21.06205 15.83636 0 11.0058-12.11466 17.57805-24.6257 17.57805-9.89757 0-22.72534-4.03843-27.31757-18.05345zm72.04944-13.85698c0-19.16168 16.07406-32.46422 36.74036-32.46422 13.06484 0 27.39722 5.30534 32.14813 17.6577l-3.80073 1.42496c-4.82993-10.13527-16.23211-15.43998-28.26775-15.43998-16.94522 0-32.0691 10.61004-32.0691 28.82154 0 18.92461 16.39079 28.26838 33.17733 28.26838 17.1823 0 26.8428-9.50182 30.16811-19.71611l3.87975 1.2669c-4.2755 11.79794-15.28193 22.09126-34.84 22.09126-21.85354 0-37.1361-13.22289-37.1361-31.91043zm116.23257-31.19731h4.43418l30.64351 61.7618h-4.59286l-11.63925-23.2001H747.1053l-11.40218 23.2001h-4.67125l30.64289-61.7618zm17.18229 35.0777c-5.14666-10.452-10.61005-21.53745-14.80652-30.80157h-.2377c-2.53383 5.38373-9.02705 18.37018-15.04423 30.80157h30.08845zm40.06062-35.0777h25.1795c15.83636 0 23.8342 7.91818 23.8342 17.89477 0 10.9274-8.6313 18.52886-22.01287 18.52886h-22.56665v25.33818h-4.43418v-61.76181zm25.25852 32.93963c12.51104 0 19.16231-5.62207 19.16231-14.64848 0-9.02704-7.68048-14.80715-20.11186-14.80715h-19.8748v29.45563h20.82435zm47.66144-32.93963h46.00447v3.484H896.2718v24.70472h39.66993v3.484H896.2718v26.36738h42.52047v3.7217h-46.95465v-61.7618z"/></svg>