<svg xmlns="http://www.w3.org/2000/svg" role="img" viewBox="28.60 583.60 3452.80 1315.30"><title>Rockchip Electronics CO., Ltd. logo</title><path fill="#FFF" d="M1838 2482H2.00025C2.00016 1655.33362 2.00016 828.66718 2.00008 2.00058c1169.3328-.0002 2338.6657-.0002 3507.99894-.00039.00025 826.66583.00025 1653.33184.0005 2479.99883C2953 2482 2396 2482 1838 2482M2846.01636 690.0105s-.0171-.11054-1.00952.24304c-.36841.58026-.73658 1.16058-.99952 1.74103 0 0-.04931-.09339-1.19213.4931-1.6714 2.41156-3.34278 4.82318-6.13282 8.0788-2.52368 5.02581-5.29126 9.94574-7.52978 15.09552-10.49732 24.1491-13.39282 48.88086-5.26612 75.89966 3.39673 11.81945 8.16285 22.95074 16.63575 33.68695 10.5498 14.02197 23.1311 25.58221 40.5808 33.50708 14.75147 7.38513 30.29468 11.2442 48.58546 10.8891 44.44629-2.00391 77.14306-22.73572 96.63891-62.63276 13.09375-26.79602 14.42139-54.82818 3.49854-84.44-2.44531-4.93664-4.91382-9.86206-7.33106-14.81244-4.92749-10.09112-11.44775-18.9132-21.02539-26.99463-3.03222-2.56549-5.9204-5.3283-9.11987-7.6646-22.67334-16.55604-48.16065-22.94593-77.64893-21.08778-9.16626 1.81983-18.7793 2.12494-26.68847 7.97474 0 0-.0581-.10334-1.48462-.1297-2.4104 1.31616-4.82056 2.63238-8.62842 3.97833-11.70606 5.5733-22.2434 12.64099-30.80225 24.17096-.39746.66717-.79492 1.33435-1.08056 2.0036m-488.38697 884.59424c-11.36547-5.66736-21.11914-14.25025-33.7163-19.9906-15.10035 46.11657-45.2915 80.52246-77.35425 112.56958a7796767.6661 7796767.6661 0 0 0 14.67627 40.05029c10.13598-12.6809 19.89477-24.89026 29.6538-37.09949-1.81884 53.98987-2.79101 107.22925-15.20214 160.00086h39.6106c.66381-15.70484 1.30639-30.90381 2.0393-48.23584 11.219 6.45141 20.8496 11.9895 31.19946 17.94116 30.35083-29.79285 42.3794-67.53699 44.55005-108.91712h33.24634c-1.33057 15.25696-2.86597 29.81348-3.77124 44.40918-.53052 8.55078-2.1477 16.42224-9.13818 22.9314 5.40869 8.68396 10.59057 17.0039 16.61865 26.68213 20.06299-19.56201 42.14648-34.07056 66.85742-46.19824-2.64404-10.11157-5.17773-19.80103-8.1355-31.11255-12.05932 8.5299-22.00268 17.18237-36.30322 22.5813 3.18799-23.33081 6.14429-44.96326 9.17358-67.1316h-99.6704c-1.30177 13.79883-2.93116 27.33008-3.78468 40.91016-1.70947 27.19715-11.7976 50.28247-32.29272 68.55054-2.28442 2.03613-4.54492 4.099-8.27783 7.46887.43872-9.19739.63867-16.1289 1.12036-23.0409 2.9856-42.85986 6.28687-85.70007 8.84643-128.58495.5061-8.47571 2.68897-15.5625 7.97657-21.88208 7.43896-8.89087 14.94604-17.7245 23.96875-26.0603.36352 1.60143.72705 3.203 1.36426 6.0105h136.21142c1.4436-22.02772 2.89478-44.17115 4.37378-66.73621-7.57959-4.46595-15.53687-9.17652-23.5398-13.80787-.41943-.24267-1.229.18824-2.7998.48145-.80884 18.78845-1.62817 37.82092-2.46167 57.18494h-26.93701c2.36401-26.13965 4.68579-51.81177 7.08008-78.28797-8.8291-5.22192-18.44678-10.91028-28.4419-16.82178-2.1289 31.8213-4.22998 63.22693-6.35327 94.96204h-29.12378c1.8213-14.92676 3.57105-29.26892 5.37793-44.07861-9.00854-4.69483-17.10156-11.56629-27.61987-15.70801-.24121 4.0509-.3684 6.68604-.55982 9.3164-1.375 18.90833-2.70044 37.82093-4.21948 56.71778-.20703 2.5725.88843 6.48303-4.24219 4.92554m580.18213-300.79065s.6255.60131.77173 2.23083c-.25952 1.64551-.4331 3.30994-.79101 4.93372-10.31397 46.79748-20.66529 93.58691-30.95997 140.38867-2.03906 9.27124-3.8706 18.58826-5.8789 28.27466h145.17944c9.14966-44.66834 18.21143-88.90808 27.31885-133.36975 4.3689 0 7.68652.00012 11.0039 0 25.32764-.0005 50.66163.35705 75.98145-.08936 34.40625-.60644 68.43067-4.56677 101.63281-14.05517 32.27295-9.22303 61.97632-23.70447 84.44947-49.04554 52.25732-58.92688 76.98437-127.88354 69.19995-206.79516-4.1582-42.15589-26.469-73.23029-64.93945-91.9856-15.64454-7.6272-32.18824-12.70276-49.17383-16.26654-47.38623-9.94208-95.37256-9.19-143.34156-7.26483-30.61987 1.22894-61.19628 3.54681-91.7898 5.41327-17.91015 1.09265-35.8159 2.25769-54.42162 3.43432-6.42407 30.24238-12.7356 59.95551-19.35962 91.13996 7.76855-1.47742 13.89282-2.57117 19.98706-3.81323 31.31518-6.38306 62.51514-13.5741 94.7019-14.00562 22.7727-.30536 45.23853 1.9486 66.96094 9.20282 14.88867 4.9721 28.2566 12.71283 36.5254 26.40497 14.25658 23.60693 18.81298 49.10876 9.98364 75.70044-8.91993 26.86365-27.1709 46.19885-51.85328 59.60156-20.87622 11.33582-43.51562 16.3684-66.98608 18.05371-42.70825 3.06677-84.41284-2.34949-125.19898-15.22449-5.31884-1.67883-10.66455-3.27185-16.40576-5.02954-1.41748 3.21741-2.69873 5.85999-3.76464 8.58667-11.06983 28.31531-24.89625 55.23584-41.40943 80.73413-3.94848 6.09668-8.92895 11.57605-13.82959 16.98145-2.17383 2.39722-5.11792 4.36511-8.08081 5.724-7.03662 3.2273-13.44238-.229-15.04907-7.88782-.47339-2.25696-.5852-4.66394-.41553-6.96936.927-12.6012 1.1206-25.3363 3.17041-37.76062 7.05298-42.74597 17.96509-84.63562 30.14453-126.16138 15.63965-53.32214 31.90259-106.46148 47.87525-159.68622 1.21337-4.04345 2.25561-8.13824 3.6311-13.12994-60.4314.09857-119.44751 3.7696-178.27417 6.55982v31.12487c19.75586.68415 38.91064.21949 59.01831 1.61915-5.1355 18.58819-9.81518 35.57049-14.52026 52.5459-13.95044 50.33251-28.30738 100.55712-41.69947 151.03771-6.58862 24.83582-9.80175 50.36463-9.01172 76.16297.6272 20.47973 6.21168 39.33484 19.8811 55.28564 6.3921 7.45886 14.51856 12.53308 23.85645 13.3523 10.80933.94824 22.10523.85156 32.7046-1.24488 21.76025-4.30407 39.9021-16.32678 56.3728-30.74902 8.99804-7.87903 17.47143-16.35718 26.80346-23.95947m-1398.81042-91.32837c.40832.58118.81677 1.16223.59631 2.92407-24.3927 30.974-50.70935 60.10791-81.21252 85.27234-2.23157 1.84094-4.86804 4.15112-5.57044 6.72046-3.21643 11.76514-5.81054 23.70044-8.69568 35.85937h159.54859c11.22912-42.36328 21.04321-84.54077 32.65637-127.6925 2.72192 3.2334 4.2268 4.97827 5.68591 6.76062 31.45484 38.42615 62.9773 76.7976 94.25916 115.36401 3.72485 4.59229 7.57995 6.33106 13.4729 6.30664 52.99829-.21936 105.9978-.1184 158.99695-.15991 2.4287-.00183 4.85718-.46313 8.73633-.8584-54.56336-69.9176-108.18152-138.62427-162.05347-207.656 73.41052-56.46888 146.03552-112.33332 218.65198-168.20887.24743-.19037.41076-.5266.53698-.82678.11255-.26758.20008-.59387.15161-.86822-.05566-.31525-.27319-.60187-.57763-1.22052-2.48194 0-5.12195.00006-7.76196.00006-54.3324.00006-108.66529.09295-162.99683-.12354-6.40161-.02551-11.31616 1.75739-16.28797 5.71814-34.40649 27.41034-69.00805 54.576-103.573 81.78699-2.09447 1.64886-4.41332 3.01276-8.28393 5.6286 17.12915-70.29468 33.70691-138.32635 50.42334-206.92749H1566.1891c-1.40943 5.26453-2.85572 10.3451-4.12854 15.46881-25.83887 104.00775-51.70056 208.00995-77.35535 312.06305-1.29126 5.23706-3.208 9.26733-7.95483 11.87854-37.16016 20.44104-74.62525 39.67773-118.11036 43.2594-26.45727 2.17932-51.83215-1.03748-76.39343-10.781-13.85058-5.49451-25.93616-13.63856-34.9558-25.76148-9.41493-12.65405-12.8827-26.62427-10.21937-42.39087 2.99463-17.72852 11.26074-32.51318 23.02026-45.73865 21.90845-24.6394 49.52698-40.12878 80.51209-49.99072 47.30957-15.05743 95.8722-18.93073 145.19092-15.3761 4.5426.3274 9.09802.47638 13.91455.7218 6.98413-25.82861 13.72595-50.76086 20.63013-76.29321-3.05188-.30164-4.97254-.65643-6.89344-.65735-50.6626-.02423-101.33532-.6175-151.98352.23743-27.27246.46039-54.50085 3.20648-81.33789 8.93255-119.495 25.4961-202.54211 145.56476-183.89929 266.68598 5.38953 35.01465 23.49597 61.99829 54.92725 79.05542 9.29821 5.04602 19.34118 8.93725 29.3872 12.3418 20.96143 7.10375 42.83728 9.864 64.79273 11.30981 26.3214 1.73328 52.60095 1.43897 78.5575-4.49329 44.79772-10.23816 85.0432-30.50317 123.2445-55.38488 32.79541-21.3606 62.58166-46.43836 91.8667-72.88611m507.74731-45.01648c-4.52124-26.86585 5.43225-49.06372 22.63977-68.6676 15.97608-18.20142 36.45997-29.81446 58.64527-38.76331 47.8562-19.30335 97.41943-19.4168 147.54565-13.16827 9.1753 1.14373 18.32349 2.50225 28.14966 3.85309a20735288.7873 20735288.7873 0 0 0 20.10938-82.2793c-24.98926-.47931-48.62818-.97217-72.26905-1.37781-47.01318-.80652-94.17334-1.48541-140.57764 6.84454-105.05102 18.85749-174.51428 79.41767-205.98474 181.70307-9.64026 31.3324-13.776 63.77588-7.05395 96.69946 7.66101 37.52222 26.81384 66.38623 62.27331 82.85352 7.81287 3.62817 16.08411 6.38073 24.32654 8.95227 27.47058 8.56982 55.78455 8.89831 84.15198 7.7683 52.54785-2.09313 102.14746-14.82873 146.59937-43.65429 20.9265-13.57031 41.17578-28.34119 60.72412-43.83899 20.34863-16.13257 39.45068-33.83423 59.19213-50.73975 2.16748-1.8562 3.7754-5.77002 9.2588-3.17285-5.05347 6.41187-9.26685 12.76404-14.46119 18.17456-22.6084 23.54847-45.51855 46.80689-68.2688 70.21973-2.52197 2.59558-5.92383 5.15137-6.85717 8.33045-3.44898 11.74975-6.03345 23.75341-9.06055 36.14355h159.60303c.96972-4.34876 1.87597-8.23145 2.69848-12.13184 6.66211-31.58874 12.79224-63.3009 20.09937-94.73962 7.9165-34.0586 17.7688-67.56238 31.76977-99.76196 15.36377-35.33484 42.66626-57.13513 77.9895-69.86927 12.00953-4.32946 24.5586-6.05773 37.35181-2.88794 15.4143 3.8191 25.23804 13.30433 28.23804 28.896 1.30615 6.78809 1.5725 13.94202 1.1687 20.86304-1.36719 23.42554-7.6372 45.96496-14.09766 68.32763-14.31616 49.55604-29.30029 98.9192-43.98266 148.36975-1.20972 4.0752-2.19605 8.21705-3.43677 12.89612h153.50488c6.26953-22.93835 12.35108-45.38989 18.54517-67.81054 14.44678-52.29407 29.98804-104.36145 35.6621-158.59717 1.89991-18.15967 4.53565-36.35742 1.17603-54.74011-7.1648-39.20136-28.82397-65.83118-67.0603-78.25232-25.81055-8.38459-52.36914-9.42401-79.09546-6.86115-37.88159 3.63257-74.9773 11.52008-111.58398 21.80908-2.42017.68018-4.94605.98511-8.656 1.70337 14.05053-50.6648 27.76513-100.11822 41.57543-149.91632h-158.42822c-1.00147 3.00208-2.01001 5.44507-2.6355 7.9826-24.8457 100.82185-49.63891 201.65668-74.50488 302.47358-2.063 8.3628-2.58667 18.14697-7.45069 24.49194-5.13232 6.6958-14.45874 10.32105-22.2163 14.83557-36.42505 21.19727-75.59449 32.66126-117.90162 33.0271-24.52685.21216-46.59008-7.16906-66.38672-21.3075-15.06811-10.76147-26.16235-24.57726-31.02844-44.68041M595 1331.78137h72.62872L548.6999 1122.83032c8.38153-3.41858 15.41596-6.37585 22.51544-9.16772 26.47284-10.40991 51.4057-23.63562 74.19013-40.73133 34.61816-25.97473 56.8258-59.49987 61.72082-103.19921 5.28174-47.15143-14.0863-86.11408-60.19305-104.69397-21.81323-8.79017-44.64203-13.64112-68.16126-13.6803-115.2869-.1922-230.5743-.09076-345.8615-.07086-2.92997.00049-5.8599.2561-9.38451.42047-42.34235 160.02362-84.77335 319.61658-126.9356 479.62268h192.1934l49.15594-185.28967c.61279-.06617 1.22558-.1322 1.83838-.19837 30.56839 61.95947 61.13678 123.91907 91.73645 185.94202 54.27688 0 107.88116 0 163.48547-.00269m462.07593-57.69946c4.5277-3.7002 9.05554-7.4004 13.65893-11.16235-16.67553-26.79651-22.23315-55.36133-19.73047-85.17164 1.6637-19.81726 4.7942-39.69921 9.40296-59.04382 11.02295-46.26782 32.13635-87.28967 67.11194-120.3988.93017-.8805 1.56274-2.07538 2.35449-3.15119-10.34119-17.17913-24.55078-30.026-41.28247-40.20782-28.79297-17.52142-60.6775-25.34534-93.75842-28.52478-45.19306-4.34339-89.9344-.69305-133.5451 11.9234-67.30134 19.47021-120.20497 58.0365-152.82295 121.15692-23.9898 46.4237-34.52142 95.48218-24.56353 147.85266 9.04681 47.5785 35.34613 81.24219 80.28656 99.36914 14.40301 5.80957 29.63 10.15747 44.87481 13.18836 42.8869 8.5266 86.13928 8.11157 129.24067 1.66455 42.73028-6.3916 82.50726-20.78577 118.77258-47.49463m1917.70239 260.7185c-.3877-4.08203-.77539-8.16406-1.08911-11.46814-43.92407.94556-86.36865 1.85938-129.66016 2.79139 1.72754-14.3025 3.2749-27.11524 4.81397-39.8562-11.69727-7.57386-22.9248-14.84363-35.39112-22.9154.4214 21.74938.01783 41.91442-2.6245 61.7318h-124.53394c-3.14868 83.14002-7.69825 165.7107-18.55518 248.06372h40.09863v-46.71972h88.62622c-.3479 6.37573-.71972 12.27588-.98266 18.18103-.75537 16.969-1.33203 33.94702-2.24536 50.90735-.55738 10.35876 4.54956 17.03955 13.15039 21.58325 2.6123 1.38 5.52246 2.57653 8.41748 2.97265 10.52466 1.44019 21.08642 3.37036 31.66016 3.54602 28.97973.48194 57.97216.14917 86.95971.17103 42.00781.03161 63.3352-24.78028 71.25415-53.7616 2.05591-7.52466 1.8977-8.40503-5.25806-11.2085-10.3418-4.05176-19.74023-9.52197-28.11645-16.8429-1.7417-1.52221-4.17627-2.2517-7.40845-3.9248-.7246 5.13391-1.0459 8.73547-1.77148 12.25379-1.20532 5.84253-2.0791 11.85107-4.14063 17.40039-5.50756 14.82641-17.052 22.43652-32.91577 22.44311-25.3225.01062-50.64502.05066-75.96704-.05041-3.61914-.01453-7.3081-.42615-10.83667-1.2218-5.92871-1.33655-9.33179-5.47132-9.26099-11.43775.20118-16.88928.81421-33.77344 1.29908-51.93103 43.87475.96912 86.979 1.92114 130.68628 2.88648 3.02905-63.9552 5.70239-128.12842 13.7915-193.59376m74.00317 94.9159c-.54516 10.8086-1.09033 21.6173-1.60546 31.8313 56.08178-.84131 110.93652-1.66419 165.80297-2.48719.354 2.2312.6831 3.16773.62037 4.07727-1.46631 21.271-2.92456 42.54273-4.49415 63.8064-1.00537 13.61939-2.11328 27.23242-3.3103 40.8363-.90698 10.3058-5.46777 15.03956-15.62915 15.98585-4.28808.39929-8.65722.2213-12.97168-.0155-8.92602-.48926-17.83984-1.19373-27.71948-1.87623 3.70898 14.755 7.16235 28.49207 10.55224 41.97693 7.83326 0 15.14869.51477 22.365-.1101 13.97119-1.20985 27.68042-3.90357 40.43652-10.13038 12.7041-6.20117 19.9878-16.20788 21.07544-30.45386 2.13037-27.89953 4.31543-55.79516 6.31372-83.70434.94458-13.19348 1.50977-26.41419 2.25268-39.72376 18.19703 0 35.82007-.03686 53.44336.01038 17.66236.04736 35.32496.21509 52.9873.2627 17.50831.04724 35.01637.01037 52.62208.01037.79346-12.7201 1.50879-24.18701 2.26538-36.3142-53.4856.86352-105.89136 1.989-158.92065 2.06896 1.10644-15.35669 2.10669-29.2373 3.08276-42.78186 41.67944-23.84448 81.95337-48.6261 128.23828-61.2815 2.11182-13.31518 2.32007-26.39294 2.41992-39.4021H3098.0442c-.82861 12.85596-1.6289 25.27271-2.48389 38.53565 15.3269-.849 29.23291-2.21533 43.14527-2.28405 53.3203-.26368 106.64233-.12244 159.96386-.06775 2.0022.00207 4.00391.67297 8.13819 1.41503-27.6836 21.29676-57.68506 34.12305-86.50244 49.47242-1.16504 18.7163-2.31934 37.2589-3.51343 56.44067-3.69483 0-6.65479.03381-9.61377-.00488-48.98364-.64014-97.96704-1.2887-146.95068-1.93811-2.66553-.03528-5.44336-.56263-7.95069.04248-1.33862.323-2.2107 2.5802-3.49512 5.8031m-1423.52844 76.90112c-2.30871 31.12964-4.6173 62.25928-6.95837 93.82569h30.66015c-1.1134-33.53516 1.8103-66.2179 5.37964-99.11939h28.11927c-1.30787 33.49329-3.67212 66.38452-8.75782 99.15234h30.98426c.95031-17.1283 1.76892-33.69201 2.81567-50.24108 1.04065-16.45215 1.86706-32.94043 4.3169-49.44385 16.07543.24731 30.90405-.24121 46.13036.38672-3.18188 31.1217-3.45764 61.07824-7.7694 89.95044-11.65015 6.8092-23.01392 2.33276-33.90515 2.3109 3.9088 13.18018 7.70056 25.96546 11.88305 40.06849 10.19153-1.61572 21.09741-2.7572 31.71631-5.1643 16.47937-3.73548 22.39758-10.78846 24.094-27.39222.91332-8.94018 1.27636-17.93603 1.9226-26.90417 1.84277-25.57154 3.64502-51.14624 5.58533-76.71045.76916-10.13404 1.8606-20.24378 2.8966-31.3435-37.20703 5.39526-73.24707 3.80822-110.5426 4.99279 4.87305-13.49536 9.11963-25.25562 13.56555-37.568 36.54285.27918 72.65735-2.17675 109.54395 2.9801.72864-12.37597 1.38538-23.53063 2.0592-34.97387-79.6814 2.6034-158.1416 2.943-236.79089-.1377-2.5282 11.51893-2.82764 22.5979-2.20398 33.46412 30.89478-.78833 60.73975-1.5498 92.1316-2.35083-4.20863 13.66882-7.86756 25.55273-11.77613 38.24707h-76.55933c-4.43481 53.88904-4.21496 107.17773-13.0697 160.23852h35.80676c.40943-43.27453 3.12915-86.31775 7.82532-129.92138 6.15454 0 11.76282-.22168 17.32898.16357 1.31409.09082 2.4867 2.224 3.56787 5.49m997.714-122.78578h12.90014c.79638-11.40954 1.5293-21.91052 2.21387-31.71728h-86.43628c2.94848-8.36401 5.5869-16.53528 8.70947-24.51721 3.26782-8.35498 6.43555-16.83472 10.69556-24.6914 3.9934-7.36512 9.35815-13.98683 14.72216-21.8152-15.28906-6.93066-29.28003-13.14257-44.21606-13.44164-6.69654 24.94091-12.50806 48.85815-19.5957 72.39123-8.3086 27.58667-20.19507 53.52136-39.86182 75.21607-.56592.62414-.6294 1.70324-.844 2.328 9.0686 7.02661 17.8103 13.7998 27.37574 21.21118 10.46997-19.09387 20.66308-37.68237 30.94848-56.4392h29.95533c-3.84961 43.64355-7.99683 86.6405-28.77784 127.24938-11.88525-21.1427-11.375-44.23047-16.00683-67.13599-9.99439 2.40345-19.47998 4.68457-29.23389 7.03028.99219 32.82104 11.32324 62.15027 23.93506 90.95471-29.79273 29.56042-65.22705 47.28357-107.62671 56.3645 4.18994 3.9342 6.60132 6.46814 9.28735 8.66663 6.43921 5.2699 13.6963 9.73804 19.3169 15.75097 4.95752 5.30347 9.23047 5.04334 14.84204 2.27832 27.81567-13.70532 55.23926-28.01013 78.36645-49.18432 1.14283-1.04639 2.54102-1.81384 4.13917-2.9347 18.80883 17.401 34.29272 37.8694 57.052 50.63074a5335620.2355 5335620.2355 0 0 0 28.19653-29.59265c-11.78272-7.3391-23.55176-14.15014-34.75342-21.7926-11.21655-7.65271-21.97949-16.01196-30.63476-27.19055 15.7019-22.30933 25.51294-46.92554 31.93066-72.9104 5.99878-24.2893 9.21948-49.02905 10.68433-74.00513.28027-4.7843 1.04907-9.54016 1.6023-14.39502 7.2915.60535 13.26269 1.10108 21.11376 1.69128m-661.6018 36.12427h28.2594c.98583-20.94946-1.35694-41.2495 2.78637-61.53161h86.65418c-2.45215 21.40686-4.82593 42.12793-7.2981 63.70971 13.16968.06775 26.23071.27466 38.1914.00025.9048-21.6864 1.74537-41.83887 2.625-62.92713 35.39478.52527 69.82789 1.03626 105.1797 1.56092.79931-11.91529 1.60961-23.99683 2.4497-36.51795-35.63281 6.87915-70.01074 2.63684-105.0918 2.66516 1.11255-11.69787 2.08008-21.87304 3.0271-31.83007-6.76953-3.53711-13.02612-6.6377-19.1162-10.03614-5.88746-3.28515-11.60377-6.87707-19.03956-11.31567v52.2434c-28.83105-.5791-56.66296-1.13818-85.11133-1.70959 1.0791-10.44336 2.05066-19.84631 2.84595-27.54345-13.14136-7.53687-24.77795-14.2107-37.43542-21.47022-.36817 17.46252 1.35034 33.95886-1.62256 50.89697-34.78675-.87414-68.61817-1.72448-102.54248-2.57702-2.43164 11.98132-3.16162 29.51416-1.70288 35.62024 34.08569-.63965 67.93383-1.2749 103.0266-1.93348-2.37658 21.53931-4.58446 41.54944-6.86523 62.2196 3.04932.162 5.96814.31715 10.78015.47608m-466.25793-42.28283c-1.07922 14.22119-2.15845 28.44238-3.30603 43.56506h-41.21863v32.99768c12.73657-.86096 25.7893-1.74329 39.1067-2.64356-2.2289 32.9889-4.35914 64.51746-6.54078 96.80774-17.05603 4.25696-33.95667 8.47522-50.82373 12.68494 2.37878 12.33228 4.54614 23.56921 6.9397 35.97876 37.43506-17.25623 76.896-25.3142 116.13025-35.57971v-33.54907c-14.0946 4.17749-27.31763 8.09668-41.58252 12.3247 2.32165-29.94738 4.552-58.71814 6.7943-87.6422h36.51478v-33.49586h-33.98438c1.9718-27.77307 3.91272-55.11035 5.91492-83.31055h42.78992c.81714-11.16564 1.56347-21.36425 2.32739-31.8037h-122.81714l-1.92114 33.98022c16.76123-.83447 32.50696-1.61829 48.54211-2.4165-.94738 14.32482-1.80444 27.28369-2.86572 42.10205m594.72156 182.51232c-6.66895 21.71985-25.95679 30.19227-44.59034 29.99231-11.99707-.1289-24.00134.17517-35.99304-.109-5.95886-.14112-11.98083-.74183-17.82617-1.88904-10.99426-2.15808-15.85803-7.63635-15.40442-18.62622 1.09888-26.61805 2.56446-53.22705 4.38575-79.8053.54736-7.98596 3.5509-15.49585 8.64721-22.01355 1.65674-2.11865 2.58716-4.8053 4.47168-8.42737-16.1726-3.48437-30.77356-5.20947-46.40869-4.74878-.49768 3.86743-1.0404 7.07996-1.30652 10.31519-1.77454 21.58178-3.84326 43.14734-5.12842 64.75915-1.36413 22.94385-1.86853 45.9375-2.95227 68.8999-.40686 8.62488 4.05982 13.77332 11.27454 17.02332 2.98743 1.3457 6.31982 2.35767 9.56836 2.62036 18.2533 1.47669 36.51916 3.54651 54.79931 3.75232 22.28467.25098 44.61316-.70251 66.87366-1.9867 14.1189-.81432 26.36109-6.79138 35.67944-17.81982 9.677-11.45276 16.7832-24.51782 24.011-37.66845-7.83912-4.19385-15.41431-7.60657-22.2837-12.09827-7.1267-4.66003-13.56982-10.365-21.59204-16.60925-2.16675 8.48083-4.00903 15.69213-6.22534 24.4392m-384.70093-279.63598c-9.94605-5.59973-19.14172-12.67468-30.6012-16.56921-.82812 27.26208-1.62439 53.47546-2.43164 80.04748h-48.8335c1.09107-13.13428 2.12916-25.63171 3.16212-38.06726-10.29749-6.0431-19.97364-11.72144-29.93055-17.5647-3.04504 29.2898-6.02441 57.94751-9.0266 86.8252 66.9298-1.10266 134.27221-1.50843 201.73754.24634 1.33362-24.3147 2.65894-48.47706 4.00171-72.95728-10.71973-6.36804-21.42615-12.72827-32.99841-19.60278-1.33948 21.4298-2.57874 41.25647-3.85718 61.71191-9.54382 0-18.13672.01306-26.72961-.00354-8.8296-.01709-17.65918-.06299-27.01868-.09827.9934-12.1256 2.0575-22.72143 2.67456-33.34326.57043-9.82275.66223-19.6731-.14856-30.62463m419.1753 179.06201a408607.67628 408607.67628 0 0 0-13.53712 5.8556c.66504 1.85827.81128 2.84875 1.31714 3.59594 22.87305 33.79797 39.47437 70.64844 53.1753 108.9253.72876 2.03612 2.14868 3.82482 3.40844 6.0089 15.11475-7.63025 29.57495-14.93017 45.2002-22.81823-26.60205-35.5-44.1775-74.969-65.08667-113.08545-8.17774 3.82995-15.64356 7.32653-24.4773 11.51794m-266.65808 82.77893c-6.09729 14.3783-13.30835 28.12305-24.59375 41.02478 15.36206 3.67615 29.0918 8.15003 44.22546 9.42322 17.6327-44.33997 35.01319-88.04614 52.73194-132.60266-13.73914-5.7859-28.51428-5.61585-43.69934-5.95337-5.84412 30.55139-15.31555 59.16955-28.6643 88.10803m165.59447-74.38061c5.9342 19.26391 11.86829 38.52795 18.14002 58.88794 14.03076-3.84253 27.67065-7.578 41.48242-11.3606-12.26538-33.0105-24.13281-64.9497-36.43896-98.07007-13.2262 3.30017-25.86316 6.45325-38.58692 9.62805 5.24573 14.0254 10.0033 26.74536 15.40344 40.91468m277.10462-108.60755c12.85156-15.6698 25.35766-31.64233 38.70312-46.87951 6.48145-7.40015 14.1853-13.8739 21.98975-19.92322 5.90576-4.5774 6.26025-6.32678-.45947-10.33045-7.11426-4.23877-14.36158-8.29162-21.2102-12.92834-7.24464-4.90454-9.13697-5.00025-12.7588 2.719-8.14306 17.35449-19.38891 32.50964-32.44433 46.31762-10.26221 10.85376-21.156 21.11035-31.76001 31.64148-1.531 1.5205-3.00952 3.09387-4.1521 4.27148 8.94946 8.19654 17.34643 15.88709 26.27246 24.0619 5.19775-6.17628 10.09009-11.98987 15.81958-18.94996m151.92773 54.41614c-20.64575.02917-41.29272.19116-61.93652.01355-6.9546-.05982-13.9143-.85217-20.8479-1.54822-5.85156-.5874-11.66846-1.51977-18.64673-2.45251-.65039 11.1101-1.23804 21.1521-1.81323 30.97668h125.86987v-29.1958c-6.96509.69836-13.8623 1.39002-22.62549 2.2063z"/><path fill="#03419A" d="M2047.01148 1138.28125c4.60302 19.29114 15.69726 33.10693 30.76538 43.8684 19.79663 14.13844 41.85986 21.51966 66.38671 21.3075 42.30713-.36584 81.47657-11.82983 117.90162-33.0271 7.75756-4.51452 17.08398-8.13977 22.2163-14.83557 4.86402-6.34497 5.3877-16.12915 7.45069-24.49194 24.86596-100.8169 49.65918-201.65173 74.50488-302.47357.62549-2.53754 1.63403-4.98053 2.6355-7.9826h158.42822c-13.8103 49.79809-27.5249 99.25152-41.57544 149.91631 3.70996-.71826 6.23584-1.02319 8.656-1.70337 36.6067-10.289 73.7024-18.17651 111.584-21.80908 26.72631-2.56286 53.2849-1.52344 79.09545 6.86115 38.23633 12.42114 59.8955 39.05096 67.0603 78.25232 3.35962 18.38269.72388 36.58044-1.17602 54.7401-5.67407 54.23573-21.21533 106.3031-35.66211 158.59718-6.1941 22.42065-12.27564 44.87219-18.54517 67.81054h-153.50488c1.24072-4.67907 2.22705-8.82092 3.43677-12.89612 14.68237-49.45056 29.6665-98.81372 43.98266-148.36975 6.46045-22.36267 12.73047-44.9021 14.09766-68.32763.4038-6.92102.13745-14.07495-1.1687-20.86304-3-15.59167-12.82373-25.0769-28.23804-28.896-12.79321-3.1698-25.34228-1.44152-37.3518 2.88794-35.32325 12.73414-62.62574 34.53443-77.9895 69.86927-14.00098 32.19958-23.85328 65.70337-31.76978 99.76196-7.30713 31.43872-13.43726 63.15088-20.09937 94.73962-.8225 3.9004-1.72876 7.78308-2.69848 12.13184H2245.8313c3.0271-12.39014 5.61157-24.3938 9.06055-36.14355.93334-3.17908 4.3352-5.73487 6.85717-8.33045 22.75025-23.41284 45.6604-46.67126 68.2688-70.21973 5.19434-5.41052 9.40772-11.7627 14.46118-18.17456-5.4834-2.59717-7.0913 1.31665-9.25878 3.17285-19.74146 16.90552-38.84351 34.60718-59.19214 50.73975-19.54834 15.4978-39.79761 30.26868-60.72413 43.83899-44.4519 28.82556-94.0515 41.56116-146.59936 43.6543-28.36743 1.13-56.6814.80151-84.15198-7.76831-8.24243-2.57154-16.51367-5.3241-24.32654-8.95227-35.45947-16.46729-54.6123-45.3313-62.27331-82.85352-6.72205-32.92358-2.5863-65.36707 7.05395-96.69946 31.47046-102.2854 100.93372-162.84558 205.98474-181.70307 46.4043-8.32995 93.56446-7.65106 140.57764-6.84454 23.64087.40564 47.27979.8985 72.26905 1.3778a20735288.7873 20735288.7873 0 0 1-20.10938 82.2793c-9.82617-1.35083-18.97437-2.70935-28.14966-3.85308-50.12622-6.24854-99.68945-6.13507-147.54565 13.16827-22.1853 8.94885-42.6692 20.56189-58.64527 38.7633-17.20752 19.60389-27.161 41.80176-22.3767 69.47962m300.9768 32.84998c-1.79443 2.26245-5.6875 3.43872-3.67871 9.77868 3.05225-4.2528 5.15405-7.18127 7.25586-10.10998-.7815-.19788-1.56274-.39588-3.57715.3313m5.19556-3.83863s-.18433.20606 0 0z"/><path fill="#03419A" d="M1538.031 1182.02637c-28.31494 26.9071-58.10119 51.98486-90.8966 73.34546-38.2013 24.88171-78.44678 45.14673-123.2445 55.38488-25.95655 5.93225-52.2361 6.22657-78.5575 4.49329-21.95545-1.4458-43.8313-4.20606-64.79273-11.30981-10.04602-3.40455-20.08899-7.29578-29.3872-12.3418-31.43128-17.05713-49.53772-44.04077-54.92725-79.05542-18.64282-121.12122 64.4043-241.18988 183.8993-266.68597 26.83703-5.72608 54.06542-8.47217 81.33788-8.93256 50.6482-.85492 101.32093-.26166 151.98352-.23743 1.9209.00092 3.84156.35572 6.89344.65735-6.90418 25.53235-13.646 50.4646-20.63013 76.29321-4.81653-.24542-9.37195-.3944-13.91455-.7218-49.31873-3.55462-97.88135.31867-145.19092 15.3761-30.9851 9.86194-58.60364 25.35132-80.51209 49.99072-11.75952 13.22547-20.02563 28.01013-23.02026 45.73865-2.66333 15.7666.80444 29.73682 10.21936 42.39087 9.01965 12.12292 21.10523 20.26697 34.95581 25.76147 24.56128 9.74353 49.93616 12.96033 76.39343 10.78101 43.48511-3.58167 80.9502-22.81836 118.11036-43.2594 4.74682-2.6112 6.66357-6.64148 7.95483-11.87854 25.65478-104.0531 51.51648-208.0553 77.35535-312.06305 1.27282-5.12372 2.71911-10.20428 4.12854-15.46881h159.51501c-16.71643 68.60113-33.29419 136.63281-50.42334 206.92749 3.8706-2.61584 6.18945-3.97974 8.28394-5.6286 34.56494-27.211 69.1665-54.37665 103.573-81.78699 4.9718-3.96075 9.88635-5.74365 16.28796-5.71814 54.33154.2165 108.66443.1236 162.99682.12354 2.64002 0 5.28003-.00006 7.76197-.00006.30444.61865.52197.90527.57764 1.22052.04846.27435-.03907.60064-.15162.86822-.12622.30017-.28955.63642-.53698.82678-72.61646 55.87555-145.24146 111.74-218.65198 168.20887 53.87195 69.03173 107.49011 137.7384 162.05347 207.656-3.87915.39527-6.30762.85657-8.73633.8584-52.99915.0415-105.99866-.05945-158.99695.15991-5.89295.02442-9.74805-1.71435-13.4729-6.30664-31.28186-38.5664-62.80432-76.93786-94.25916-115.36401-1.4591-1.78235-2.96399-3.52722-5.68591-6.76062-11.61316 43.15173-21.42725 85.32922-32.65637 127.6925h-159.54859c2.88514-12.15893 5.47925-24.09424 8.69568-35.85937.7024-2.56934 3.33887-4.87952 5.57044-6.72046 30.50317-25.16443 56.81982-54.29834 82.1195-86.11548 2.54871-3.32141 4.19043-5.79944 6.35962-8.65796.68811-1.59704.84888-2.81384 1.32862-3.98706.14306.06116-.03284.07886-.71338.30506-1.20899 1.02722-1.91333 1.84606-3.15088 2.99523-2.4546 2.48829-4.37598 4.64637-6.29736 6.80445z"/><path fill="#024199" d="M594 1331.78272c-54.6043.00134-108.20859.00134-162.48547.00134-30.59967-62.02295-61.16806-123.98255-91.73645-185.94202-.6128.06616-1.22559.1322-1.83838.19836-16.33637 61.57874-32.67273 123.15748-49.15595 185.28968H96.59036c42.16225-160.0061 84.59325-319.59906 126.9356-479.62268 3.5246-.16437 6.45454-.41998 9.3845-.42047 115.2872-.0199 230.57462-.12134 345.86151.07086 23.51923.03918 46.34803 4.89013 68.16126 13.6803 46.10675 18.5799 65.47479 57.54254 60.19305 104.69397-4.89502 43.69934-27.10266 77.22448-61.72082 103.19921-22.78443 17.0957-47.71729 30.32142-74.19013 40.73133-7.09948 2.79187-14.1339 5.74914-22.51544 9.16772l118.92883 208.95105c-25.60522 0-49.11694 0-73.62872.00135m-130.84735-273.54944c8.38351-5.34497 17.28866-10.03357 25.03046-16.18616 12.14245-9.64966 17.47842-22.9815 17.95706-38.46503.3971-12.84411-5.0236-22.4652-15.37213-29.51428-8.09543-5.5144-17.15662-9.0293-26.82688-10.10663-13.86197-1.54431-27.79297-2.65643-41.72458-3.32873-10.9119-.52661-21.86953-.1056-33.22418-.1056l-33.2034 115.80872c1.73282.46692 2.67243.98914 3.56711.92114 15.582-1.18628 31.21771-1.95202 46.7212-3.8131 19.1747-2.30176 38.02877-6.32362 57.07534-15.21033z"/><path fill="#02419A" d="M2937.1897 1273.2085c-8.7102 8.20788-17.1836 16.68603-26.18164 24.56506-16.4707 14.42224-34.61255 26.44495-56.3728 30.74902-10.59937 2.09644-21.89527 2.19312-32.7046 1.24488-9.33789-.81922-17.46435-5.89344-23.85644-13.3523-13.66943-15.9508-19.2539-34.8059-19.8811-55.28564-.79004-25.79834 2.4231-51.32715 9.01171-76.16297 13.3921-50.48059 27.74903-100.7052 41.69947-151.03772 4.70507-16.9754 9.38476-33.9577 14.52026-52.5459-20.10766-1.39965-39.26245-.935-59.01831-1.61914v-31.12487c58.82666-2.79023 117.84277-6.46125 178.27417-6.55982-1.37549 4.9917-2.41773 9.08649-3.6311 13.12994-15.97266 53.22474-32.2356 106.36408-47.87525 159.68622-12.17944 41.52576-23.09155 83.4154-30.14453 126.16138-2.0498 12.42432-2.2434 25.15942-3.1704 37.76062-.16969 2.30542-.05787 4.7124.41552 6.96936 1.60669 7.65882 8.01245 11.11511 15.04907 7.88782 2.9629-1.35889 5.90698-3.32678 8.08081-5.724 4.90064-5.4054 9.8811-10.88477 13.8296-16.98145 16.51317-25.49829 30.33959-52.41882 41.40942-80.73413 1.06591-2.72668 2.34716-5.36926 3.76464-8.58667 5.74121 1.7577 11.08692 3.35071 16.40576 5.02954 40.78614 12.875 82.49073 18.29126 125.19898 15.2245 23.47046-1.68531 46.10986-6.7179 66.98608-18.05372 24.68238-13.4027 42.93335-32.73791 51.85327-59.60156 8.82935-26.59168 4.27295-52.0935-9.98364-75.70044-8.2688-13.69214-21.63672-21.43286-36.52539-26.40497-21.72241-7.25421-44.18823-9.50818-66.96094-9.20282-32.18676.43152-63.38672 7.62256-94.7019 14.00562-6.09424 1.24206-12.2185 2.33581-19.98706 3.81323 6.62402-31.18445 12.93555-60.89758 19.35962-91.13995 18.60571-1.17664 36.51147-2.34168 54.42163-3.43433 30.5935-1.86646 61.16992-4.18433 91.7898-5.41327 47.96899-1.92517 95.95532-2.67725 143.34155 7.26483 16.9856 3.56378 33.5293 8.63934 49.17383 16.26654 38.47045 18.75531 60.78125 49.82971 64.93945 91.9856 7.78442 78.91162-16.94263 147.86828-69.19995 206.79516-22.47315 25.34107-52.17652 39.82251-84.44947 49.04554-33.20214 9.4884-67.22656 13.44873-101.6328 14.05517-25.31983.44641-50.65382.08887-75.98145.08936-3.31739.00012-6.63501 0-11.00391 0-9.10742 44.46167-18.16919 88.70141-27.31885 133.36975h-145.17944c2.0083-9.6864 3.83984-19.00342 5.8789-28.27466 10.29468-46.80176 20.646-93.59119 30.95997-140.38867.3579-1.62378.53149-3.28821 1.13256-6.06116.26026-1.63513.17896-2.1427.09766-2.65027l-1.83276.94129zm-1880.6875 1.2976c-35.6916 26.28467-75.46857 40.67884-118.19885 47.07044-43.10139 6.44702-86.35377 6.86206-129.24067-1.66455-15.2448-3.03089-30.4718-7.37879-44.87481-13.18836-44.94043-18.12695-71.23975-51.79065-80.28656-99.36914-9.95789-52.37048.57373-101.42895 24.56353-147.85266 32.61798-63.12042 85.52161-101.6867 152.82294-121.15692 43.61072-12.61645 88.35205-16.26679 133.5451-11.9234 33.08094 3.17944 64.96546 11.00336 93.75843 28.52478 16.73169 10.18182 30.94128 23.02869 41.28247 40.20782-.79175 1.0758-1.42432 2.2707-2.3545 3.15119-34.97558 33.10913-56.08898 74.13098-67.11193 120.3988-4.60877 19.3446-7.73926 39.22656-9.40296 59.04382-2.50268 29.8103 3.05494 58.37513 19.73047 85.17164-4.60339 3.76196-9.13122 7.46215-14.23266 11.58654m-114.4994-248.0697c-33.98028-3.21753-58.24651 12.23108-75.98559 39.85095-3.21374 5.00367-5.81708 10.48352-8.07977 15.99878-8.5232 20.77478-13.58624 42.44495-15.3761 64.80432-1.25696 15.70154-.2904 31.25806 5.05884 46.31019 5.64325 15.87951 16.81024 25.56652 33.27746 28.14977 28.94501 4.54053 68.62238-1.5747 87.67829-43.56884 10.1189-22.2992 16.86145-45.49439 21.286-69.43543 2.3122-12.51098 2.69862-25.12927.13917-37.7362-4.24878-20.92823-15.44464-35.7876-36.4889-42.07349-3.17718-.94897-6.50988-1.37744-11.5094-2.30005z"/><path fill="#050505" d="M2974.64014 1535.6355c-7.95093 64.63025-10.62427 128.80346-13.65332 192.75866-43.70728-.96533-86.81153-1.91735-130.68628-2.88647-.48487 18.1576-1.0979 35.04175-1.29908 51.93103-.0708 5.96643 3.33228 10.1012 9.261 11.43774 3.52856.79566 7.21752 1.20728 10.83666 1.2218 25.32202.10108 50.64453.06104 75.96704.05042 15.86377-.00659 27.4082-7.6167 32.91577-22.44311 2.06153-5.54932 2.9353-11.55786 4.14063-17.4004.72559-3.5183 1.04687-7.11987 1.77148-12.25378 3.23218 1.6731 5.66675 2.40259 7.40845 3.9248 8.37622 7.32093 17.77466 12.79114 28.11645 16.8429 7.15577 2.80347 7.31397 3.68384 5.25806 11.2085-7.91894 28.98132-29.24634 53.79321-71.25415 53.7616-28.98755-.02186-57.97998.3109-86.95971-.17103-10.57374-.17566-21.1355-2.10583-31.66016-3.54602-2.89502-.39612-5.80518-1.59265-8.41748-2.97265-8.60083-4.5437-13.70777-11.22449-13.1504-21.58326.91334-16.96032 1.49-33.93835 2.24537-50.90734.26294-5.90515.63476-11.8053.98266-18.18103h-88.62622v46.71972h-40.09863c10.85693-82.35302 15.4065-164.9237 18.55518-248.06372h124.53393c2.64234-19.81738 3.0459-39.98242 2.62451-61.7318 12.46631 8.07177 23.69385 15.34154 35.39112 22.9154-1.53906 12.74096-3.08643 25.5537-4.81397 39.8562 43.2915-.93201 85.73609-1.84583 129.66016-2.79138.31372 3.30407.70141 7.3861.95093 12.30322m-38.85254 31.41382v-7.92408h-94.10865c-1.30908 17.75037-2.56982 34.84473-3.87402 52.5287h94.979c.98047-14.38026 1.94825-28.573 3.00367-44.60462m-80.76343 129.5443h71.9519c1.20142-19.15002 2.31275-36.8634 3.41724-54.47106h-94.89453a3085802.22376 3085802.22376 0 0 1-3.583 54.47595c7.89257 0 14.50414 0 23.10839-.00488m-47.4812-108.2124c.53052-9.59021 1.06103-19.1803 1.62353-29.349h-90.47192c-.41309 17.87683-3.05566 35.12536-2.70703 52.71582h89.5498c.66065-7.64698 1.25952-14.58045 2.00562-23.36682m-96.61914 83.71179c-.46778 7.85998-.93555 15.71997-1.43262 24.06921h90.2754c1.25-18.13806 2.47558-35.92383 3.7434-54.32507h-90.43555c-.66699 9.8667-1.2937 19.1344-2.15063 30.25586zm337.9585-43.2959c1.18359-2.30371 2.05566-4.56091 3.39428-4.88391 2.50733-.6051 5.28516-.07776 7.95069-.04248 48.98364.64941 97.96704 1.29797 146.95068 1.9381 2.95898.0387 5.91894.0049 9.61377.0049 1.19409-19.18177 2.34839-37.72438 3.51343-56.44068 28.81738-15.34937 58.81884-28.17566 86.50244-49.47241-4.13428-.74207-6.13599-1.41297-8.13819-1.41504-53.32153-.0547-106.64355-.19593-159.96386.06775-13.91236.06872-27.81836 1.43505-43.14527 2.28405.85498-13.26294 1.65528-25.67968 2.48389-38.53564h290.56445c-.09985 13.00915-.3081 26.08691-2.41992 39.4021-46.28491 12.6554-86.55884 37.437-128.23828 61.2815-.97608 13.54455-1.97632 27.42516-3.08276 42.78185 53.0293-.07995 105.43505-1.20544 158.92065-2.06897-.7566 12.1272-1.47192 23.59412-2.26538 36.31421-17.60571 0-35.11377.03687-52.62207-.01037-17.66235-.04761-35.32495-.21534-52.9873-.2627-17.6233-.04724-35.24634-.01038-53.44337-.01038-.74291 13.30957-1.3081 26.53028-2.25268 39.72376-1.9983 27.90918-4.18335 55.8048-6.31372 83.70434-1.08765 14.24598-8.37134 24.25269-21.07544 30.45386-12.7561 6.2268-26.46533 8.92053-40.43652 10.13037-7.21631.62488-14.53174.11011-22.365.11011-3.38989-13.48486-6.84326-27.22192-10.55224-41.97693 9.87964.6825 18.79346 1.38696 27.71948 1.87622 4.31446.23682 8.6836.4148 12.97168.0155 10.16138-.94628 14.72217-5.68005 15.62915-15.98583 1.19702-13.60389 2.30493-27.21692 3.3103-40.8363 1.56959-21.26368 3.02784-42.5354 4.49415-63.8064.06274-.90955-.26636-1.84607-.62037-4.07728-54.86645.823-109.72119 1.64588-165.80297 2.48719.51513-10.214 1.0603-21.0227 1.7063-32.7505z"/><path fill="#060606" d="M1625.3313 1705.5813c-1.15943-2.22986-2.33203-4.36304-3.64612-4.45386-5.56616-.38525-11.17444-.16357-17.32898-.16357-4.69617 43.60363-7.4159 86.64685-7.82532 129.92138h-35.80676c8.85474-53.06079 8.63489-106.34948 13.0697-160.23852h76.55933c3.90857-12.69434 7.5675-24.57825 11.77612-38.24707-31.39184.80102-61.23681 1.5625-92.13159 2.35083-.62366-10.86621-.32422-21.9452 2.20398-33.46411 78.6493 3.08068 157.1095 2.74109 236.7909.1377-.67383 11.44323-1.33057 22.5979-2.05921 34.97387-36.8866-5.15686-73.0011-2.70093-109.54395-2.9801-4.44592 12.31237-8.6925 24.07263-13.56555 37.56799 37.29553-1.18457 73.33557.40247 110.5426-4.9928-1.036 11.09973-2.12744 21.20947-2.8966 31.3435-1.9403 25.56422-3.74256 51.13892-5.58533 76.71046-.64624 8.96814-1.00928 17.96399-1.9226 26.90417-1.69642 16.60376-7.61463 23.65674-24.094 27.39221-10.6189 2.4071-21.52478 3.54859-31.7163 5.16431-4.1825-14.10303-7.97425-26.8883-11.88306-40.06848 10.89123.02185 22.255 4.49829 33.90515-2.31091 4.31176-28.8722 4.58752-58.82874 7.7694-89.95044-15.22631-.62793-30.05493-.1394-46.13037-.38672-2.44983 16.50342-3.27624 32.9917-4.31689 49.44385-1.04675 16.54907-1.86536 33.11279-2.81567 50.24108h-30.98426c5.0857-32.76782 7.44995-65.65905 8.75782-99.15234h-28.11927c-3.56933 32.90149-6.49304 65.58423-5.37964 99.11938h-30.66015c2.34106-31.5664 4.64966-62.69604 7.03662-94.86181z"/><path fill="#050505" d="M2622.02686 1583.78442c-6.9109-.54296-12.88208-1.0387-20.17359-1.64404-.55322 4.85486-1.32202 9.61072-1.6023 14.39502-1.46484 24.97608-4.68554 49.71582-10.68432 74.00513-6.41772 25.98486-16.22876 50.60107-31.93066 72.9104 8.65527 11.17859 19.4182 19.53784 30.63476 27.19055 11.20166 7.64246 22.9707 14.4535 34.75342 21.7926a5335620.2355 5335620.2355 0 0 1-28.19653 29.59265c-22.75928-12.76135-38.24317-33.22973-57.052-50.63073-1.59815 1.12085-2.99634 1.8883-4.13917 2.93469-23.1272 21.1742-50.55078 35.479-78.36645 49.18432-5.61157 2.76502-9.88452 3.02515-14.84204-2.27832-5.6206-6.01293-12.87769-10.48107-19.3169-15.75097-2.68603-2.19849-5.0974-4.73242-9.28735-8.66663 42.39966-9.08093 77.83398-26.80408 107.6267-56.3645-12.6118-28.80444-22.94286-58.13367-23.93505-90.95471 9.7539-2.3457 19.2395-4.62683 29.23389-7.03028 4.63183 22.90552 4.12158 45.9933 16.00683 67.136 20.781-40.6089 24.92823-83.60584 28.77784-127.2494h-29.95533c-10.2854 18.75684-20.47851 37.34534-30.94848 56.43921a2748422.78329 2748422.78329 0 0 1-27.37574-21.21118c.2146-.62476.27808-1.70386.844-2.328 19.66675-21.6947 31.55322-47.6294 39.86181-75.21607 7.08765-23.53308 12.89918-47.45032 19.5957-72.39123 14.93604.29907 28.92701 6.51098 44.21607 13.44165-5.36401 7.82836-10.72876 14.45007-14.72216 21.81518-4.26001 7.8567-7.42774 16.33643-10.69556 24.6914-3.12256 7.98194-5.76099 16.1532-8.70947 24.51722h86.43628c-.68458 9.80676-1.41749 20.30774-2.21387 31.71728-4.43091 0-8.66553 0-13.84033-.04724z"/><path fill="#060606" d="M2357.97583 1579.92432c-7.47803 8.85803-14.9851 17.69165-22.42407 26.58252-5.2876 6.31958-7.47046 13.40637-7.97656 21.88208-2.55958 42.88488-5.86085 85.7251-8.84644 128.58496-.48169 6.91198-.68164 13.8435-1.12036 23.0409 3.7329-3.36988 5.9934-5.43275 8.27783-7.46888 20.49512-18.26807 30.58325-41.3534 32.29272-68.55054.85352-13.58008 2.48292-27.11133 3.78467-40.91015h99.67041c-3.0293 22.16833-5.9856 43.80078-9.17358 67.13159 14.30054-5.39893 24.2439-14.0514 36.30322-22.5813 2.95777 11.31152 5.49146 21.00097 8.1355 31.11255-24.71094 12.12768-46.79443 26.63623-66.85742 46.19824-6.02808-9.67822-11.20996-17.99817-16.61865-26.68213 6.99047-6.50915 8.60766-14.38062 9.13818-22.9314.90527-14.5957 2.44067-29.15222 3.77124-44.40918h-33.24634c-2.17065 41.38013-14.19922 79.12427-44.55005 108.91712-10.34985-5.95166-19.98047-11.48975-31.19946-17.94116-.73291 17.33203-1.37549 32.531-2.0393 48.23584h-39.6106c12.41113-52.77161 13.3833-106.01099 15.20215-160.00086-9.75904 12.20923-19.51783 24.41858-29.65381 37.09949a7796767.6661 7796767.6661 0 0 1-14.67627-40.0503c32.06274-32.04711 62.2539-66.453 77.35425-112.56957 12.59716 5.74035 22.35083 14.32324 33.87353 21.23852.16773 2.18921.17847 3.13037.18921 4.07166z"/><path fill="#050505" d="M1960.4187 1619.95398c-3.86548-.15698-6.7843-.31213-9.83362-.47412 2.28076-20.67017 4.48865-40.6803 6.86524-62.2196-35.09278.65856-68.94092 1.29382-103.02661 1.93347-1.45874-6.10608-.72876-23.63892 1.70288-35.62024 33.92431.85253 67.75573 1.70288 102.54248 2.57702 2.9729-16.9381 1.2544-33.43445 1.62256-50.89697 12.65747 7.25952 24.29406 13.93335 37.43542 21.47022-.79529 7.69714-1.76684 17.1001-2.84595 27.54345 28.44837.57141 56.28028 1.1305 85.11133 1.7096v-52.24341c7.4358 4.4386 13.1521 8.03052 19.03955 11.31567 6.09009 3.39844 12.34668 6.49903 19.11621 10.03614-.94702 9.95703-1.91455 20.1322-3.0271 31.83007 35.08106-.02832 69.45899 4.214 105.0918-2.66516-.84009 12.52112-1.65039 24.60266-2.4497 36.51795-35.35181-.52466-69.78492-1.03565-105.1797-1.56092-.87963 21.08826-1.7202 41.24073-2.625 62.92713-11.96069.27441-25.02172.0675-38.1914-.00025 2.47217-21.58178 4.84595-42.30285 7.2981-63.70971H1992.411c-4.14331 20.2821-1.80054 40.58215-2.78638 61.53161-9.78064 0-19.02002 0-29.20593-.00195zm-465.20923-43.2107c.9591-13.88854 1.81616-26.8474 2.76355-41.17224-16.03515.79822-31.78088 1.58204-48.54211 2.4165l1.92114-33.98022h122.81714c-.76392 10.43946-1.51025 20.63807-2.3274 31.80372h-42.78991c-2.0022 28.20019-3.94312 55.53747-5.91492 83.31054h33.98438v33.49585h-36.51477c-2.24231 28.92407-4.47266 57.69483-6.79431 87.64221 14.26489-4.22802 27.48791-8.14721 41.58252-12.3247v33.54907c-39.23426 10.2655-78.6952 18.32349-116.13025 35.57971-2.39356-12.40955-4.56092-23.64648-6.9397-35.97876 16.86706-4.20972 33.7677-8.42798 50.82373-12.68494 2.18164-32.29028 4.31189-63.81884 6.54077-96.80774-13.31738.90027-26.37012 1.7826-39.10669 2.64356v-32.99768h41.21863c1.14758-15.12268 2.2268-29.34387 3.4082-44.49487zm594.80615 182.6742c2.02955-7.97913 3.87183-15.19043 6.03858-23.67126 8.02222 6.24426 14.46533 11.94922 21.59204 16.60925 6.86938 4.4917 14.44458 7.90442 22.2837 12.09827-7.2278 13.15063-14.334 26.2157-24.011 37.66845-9.31835 11.02844-21.56054 17.0055-35.67944 17.81983-22.2605 1.28418-44.58899 2.23767-66.87366 1.9867-18.28015-.20582-36.54602-2.27564-54.79931-3.75233-3.24854-.2627-6.58093-1.27466-9.56836-2.62036-7.21472-3.25-11.6814-8.39844-11.27454-17.02331 1.08374-22.9624 1.58814-45.95606 2.95227-68.8999 1.28516-21.61182 3.35388-43.17738 5.12842-64.75916.26612-3.23523.80884-6.44776 1.30652-10.31519 15.63513-.4607 30.23608 1.2644 46.4087 4.74878-1.88453 3.62207-2.81495 6.30872-4.47169 8.42737-5.09631 6.5177-8.09985 14.02759-8.64721 22.01355-1.8213 26.57825-3.28687 53.18725-4.38575 79.8053-.45361 10.98987 4.41016 16.46814 15.40442 18.62622 5.84534 1.14721 11.86731 1.74792 17.82617 1.88904 11.9917.28418 23.99598-.0199 35.99304.109 18.63355.19996 37.9214-8.27246 44.7771-30.76025z"/><path fill="#060606" d="M1705.68457 1481.10608c.25415 10.3949.16235 20.24524-.40808 30.068-.61707 10.62182-1.68115 21.21764-2.67456 33.34325 9.3595.03528 18.18909.08118 27.01868.09827 8.5929.0166 17.18579.00354 26.72961.00354 1.27844-20.45544 2.5177-40.2821 3.85718-61.71191 11.57226 6.8745 22.27868 13.23474 32.99841 19.60278-1.34277 24.48022-2.66809 48.64258-4.0017 72.95727-67.46534-1.75476-134.80775-1.349-201.73756-.24633 3.0022-28.87769 5.98157-57.5354 9.02661-86.8252 9.95691 5.84326 19.63306 11.5216 29.93055 17.5647-1.03296 12.43555-2.07105 24.93298-3.16211 38.06726h48.8335c.80724-26.57202 1.6035-52.7854 2.43163-80.04749 11.45948 3.89454 20.65515 10.96949 31.15784 17.12586z"/><path fill="#EEB52A" d="M2880.00269 857.82385c-16.34937-6.99304-28.93067-18.55328-38.97559-33.28772 3.5039-3.64837 7.00415-6.2235 9.41919-9.57959 13.70117-19.04205 27.1875-38.23974 40.65893-57.4461 10.4358-14.8775 20.72779-29.85596 31.1189-44.7649 2.33423-3.34918 4.60303-6.6317 2.167-11.33227 5.71679-3.9029 10.89623-7.521 16.39208-10.56879 7.66285-4.24957 11.04761-10.20575 8.8296-19.56695-3.24-4.17877-6.43311-7.7121-10.10645-11.80072-5.38892-1.73615-10.29761-2.917-15.8003-4.49854-2.96948-.578-5.34545-.75537-7.62255-1.36133.09838-.42865.29345-1.28637.29345-1.28637 27.81201-2.17615 53.29932 4.21374 75.97266 20.76977 3.19946 2.3363 6.08765 5.09912 8.86694 8.64636-4.65625 7.17463-9.0974 13.34095-13.45678 19.56476-23.3147 33.284-46.57862 66.60382-69.9231 99.86676-11.38525 16.22266-22.97095 32.30512-34.30225 48.56537-1.64819 2.3653-2.3772 5.37091-3.53173 8.08026z"/><path fill="#F1C329" d="M2880.55273 858.2898c.6045-3.1753 1.3335-6.18091 2.9817-8.5462 11.3313-16.26026 22.91699-32.34272 34.30224-48.56538 23.34448-33.26294 46.6084-66.58276 69.9231-99.86676 4.35937-6.22381 8.80053-12.39013 13.75634-18.96374 9.531 6.49865 16.05127 15.32074 20.97876 25.41186 2.41724 4.95038 4.88575 9.8758 6.66504 15.60248-2.66528 2.43463-5.15063 3.7362-6.58984 5.77594-17.75122 25.15765-35.30371 50.45508-53.00244 75.6499-11.99097 17.06958-24.2024 33.98462-36.15235 51.08246-2.78247 3.9809-6.43384 7.81043-5.44604 13.40985-16.57154.71967-32.11475-3.1394-47.4165-10.99041z"/><path fill="#080808" d="M2358.74805 1580.18542c-.78296-1.20239-.7937-2.14355-.80909-3.55517 4.82105-.46802 3.7256-4.37854 3.93262-6.95105 1.51905-18.89685 2.84448-37.80945 4.21948-56.71777.19141-2.63037.3186-5.2655.55982-9.31641 10.5183 4.14172 18.61133 11.01318 27.61987 15.708-1.80688 14.8097-3.55664 29.15186-5.37793 44.07862h29.12378c2.1233-31.7351 4.22437-63.14075 6.35327-94.96204 9.99512 5.9115 19.6128 11.59986 28.4419 16.82178-2.39429 26.4762-4.71607 52.14832-7.08008 78.28797h26.93701c.8335-19.36402 1.65283-38.39649 2.46167-57.18494 1.5708-.29321 2.38037-.72412 2.7998-.48145 8.00293 4.63135 15.96021 9.34192 23.5398 13.80786-1.479 22.56507-2.93017 44.7085-4.37378 66.73621h-136.21142c-.63721-2.8075-1.00074-4.40906-2.13672-6.2716z"/><path fill="#F4D12B" d="M2928.82886 869.46252c-1.84742-5.78173 1.80395-9.61126 4.58642-13.59216 11.94995-17.09784 24.16138-34.01288 36.15235-51.08246 17.69873-25.19482 35.25122-50.49225 53.00244-75.6499 1.4392-2.03973 3.92456-3.3413 6.60913-5.06274 11.56958 28.10858 10.24194 56.14074-2.8518 82.93676-19.49586 39.89704-52.19263 60.62885-97.49854 62.4505z"/><path fill="#050505" d="M2124.9873 1659.26404c8.14966-3.844 15.61548-7.34058 23.79322-11.17053 20.90918 38.11645 38.48462 77.58545 65.08667 113.08545-15.62525 7.88806-30.08545 15.18798-45.2002 22.81823-1.25976-2.18408-2.67969-3.97278-3.40845-6.0089-13.70092-38.27686-30.30224-75.12733-53.17529-108.9253-.50586-.7472-.6521-1.73767-1.31714-3.59595 4.5879-1.98462 9.0625-3.92016 14.2212-6.203z"/><path fill="#060606" d="M1857.89831 1741.67017c13.09559-28.21827 22.56702-56.83643 28.41114-87.38782 15.18506.33752 29.9602.16748 43.69934 5.95337-17.71875 44.55652-35.09924 88.2627-52.73194 132.60266-15.13366-1.2732-28.8634-5.74707-44.22546-9.42322 11.2854-12.90173 18.49646-26.64648 24.84692-41.745z"/><path fill="#050505" d="M2022.91834 1667.28516c-5.07886-13.4447-9.83643-26.16468-15.08216-40.19007 12.72376-3.1748 25.36072-6.32788 38.58692-9.62805 12.30615 33.12036 24.17358 65.05957 36.43896 98.07007-13.81177 3.7826-27.45166 7.51807-41.48242 11.3606-6.27173-20.35999-12.20581-39.62403-18.4613-59.61255z"/><path fill="#070707" d="M2299.92578 1559.97534c-5.31103 6.38697-10.20337 12.20056-15.40112 18.37683-8.92603-8.1748-17.323-15.86535-26.27246-24.06189 1.14258-1.1776 2.6211-2.75097 4.1521-4.27148 10.604-10.53113 21.4978-20.78772 31.76-31.64148 13.05543-13.80798 24.30128-28.96313 32.44434-46.31763 3.62183-7.71924 5.51416-7.62353 12.7588-2.719 6.84862 4.63673 14.09594 8.68958 21.2102 12.92835 6.71972 4.00367 6.36523 5.75306.45947 10.33045-7.80444 6.04931-15.5083 12.52307-21.98975 19.92322-13.34546 15.23718-25.85156 31.20971-39.12158 47.45263z"/><path fill="#EBA42A" d="M2923.99512 701.95258c2.83203 4.16125.56323 7.44378-1.771 10.79296-10.39111 14.90894-20.6831 29.8874-31.1189 44.7649-13.47143 19.20636-26.95776 38.40405-40.65893 57.4461-2.41504 3.35608-5.91528 5.93122-9.59692 8.93506-8.80005-9.37921-13.56617-20.5105-16.32837-33.38977 2.54077-2.91248 4.77124-4.53216 6.29858-6.65704 7.74243-10.77258 15.51636-21.5357 22.79858-32.6181 2.25513-3.43244 2.99878-7.8581 5.0271-12.08692 6.07056-3.37152 11.5525-6.47784 17.0254-9.60052 16.11035-9.19202 32.21655-18.39057 48.32446-27.58667z"/><path fill="#060606" d="M2453.20483 1613.7561c7.83033-.75402 14.72754-1.44568 21.69263-2.14404v29.1958H2349.0276c.5752-9.82458 1.16284-19.86658 1.81323-30.97668 6.97827.93274 12.79517 1.8651 18.64673 2.45251 6.9336.69605 13.8933 1.4884 20.8479 1.54822 20.6438.17761 41.29077.01562 62.86938-.0758z"/><path fill="#E7922D" d="M2858.05273 739.39764c-1.43579 3.97095-2.17944 8.39661-4.43457 11.82904-7.28222 11.0824-15.05615 21.84553-22.79858 32.6181-1.52734 2.12489-3.75781 3.74457-6.27661 5.88941-8.7832-25.19134-5.8877-49.9231 4.60962-74.0722 2.23852-5.14978 5.0061-10.0697 8.81762-15.4618 1.77515-.36767 2.26246-.36901 2.50538.24702-.87769 2.24816-1.51099 3.87884-2.31983 6.25701-.33154 5.00275-.48706 9.25806-.63086 14.25617 1.52173 4.16608 3.0315 7.58942 4.82276 11.66449 3.71435 6.99621 10.60815 4.62085 15.70507 6.77276z"/><path fill="#F9E7C6" d="M2838.33154 705.95679c.63306-1.63074 1.26636-3.26142 2.6853-5.82916 1.5044-3.36683 2.2229-5.79664 2.94117-8.22645 0 0 .04931.09339.5017-.06915.8147-.75238 1.17725-1.34222 1.53956-1.93207 0 0 .01709.11054.51294-.16485.82446-1.02136 1.15307-1.76734 1.48193-2.5133 7.66162-10.74488 18.19898-17.81257 31.34961-23.36878 3.833-1.3117 6.22168-2.64038 8.61035-3.96906 0 0 .0581.10334.83643.09833 9.58374-1.98218 18.38916-3.95947 27.19433-5.93677 2.37574.17737 4.75171.35474 7.57764 1.6911-1.83081 3.33844-3.79639 6.05371-6.44312 7.61255-20.4917 12.06873-41.01489 24.0929-61.76684 35.70465-5.28564 2.9574-9.93506 8.14563-17.021 6.90296z"/><path fill="#F8E0B4" d="M2916.0835 653.61694c-8.90381 2.40589-17.70923 4.38318-27.3379 6.328 7.17579-5.80743 16.78882-6.11254 26.79322-7.77337.83813.159.64306 1.01672.54468 1.44537z"/><path fill="#A6BCDB" d="M1538.51611 1182.2561c1.43628-2.38781 3.35767-4.5459 6.17005-6.66882 1.14416.25732 1.39734.4795 1.65051.70178-1.64185 2.47815-3.28357 4.95618-5.51782 7.68726-1.00098-.32837-1.40943-.90943-2.30274-1.72022z"/><path fill="#F3CE89" d="M2843.38672 692.19446c-.14697 2.13653-.86548 4.56634-2.12549 7.31573-1.02856.32099-1.51587.32233-2.73169.268.94287-2.46734 2.61426-4.87896 4.85718-7.58373z"/><path fill="#F8E0B4" d="M2887.24072 659.87079c-1.67529 1.34186-4.06396 2.67053-7.19824 3.96734 1.66455-1.34814 4.0747-2.66436 7.19824-3.96734z"/><path fill="#F3CE89" d="M2845.50293 690.07678c.13403.41303-.22852 1.00287-1.09595 1.75519-.13672-.41785.23145-.99817 1.09595-1.75519zm2.04248-2.4624c.11987.3534-.20874 1.09937-1.08936 2.11969-.15405-.39282.24341-1.06 1.08936-2.11969z"/><path fill="#A6BCDB" d="M2348.60474 1170.6687c1.39795-.26465 2.1792-.06665 2.96069.13135-2.1018 2.92859-4.20361 5.85705-7.25586 10.10986-2.00879-6.33996 1.88428-7.51623 4.29517-10.2412zm4.48706-3.27307c-.09229.10303.09204-.10303 0 0zm-805.21814 4.48254c-.16077 1.21668-.32154 2.43348-1.00965 4.03052-.78051.15808-1.03369-.06409-1.64465-.65161.34656-1.18433 1.0509-2.00317 2.23694-3.06836.48181-.24622.41736-.31055.41736-.31055zm.08728.1023c.19885.02002.37475.00232.23169-.05884-.31897-.04346-.25452.02087-.2317.05884z"/><path fill="#FCFDFE" d="M462.47693 1058.57178c-18.37085 8.54822-37.22492 12.57007-56.39963 14.87182-15.50348 1.86109-31.13919 2.62684-46.72119 3.81311-.89468.068-1.83429-.45422-3.5671-.92114l33.2034-115.80872c11.35464 0 22.31228-.42102 33.22417.1056 13.93161.6723 27.86261 1.78442 41.72458 3.32873 9.67026 1.07733 18.73145 4.59223 26.82688 10.10663 10.34854 7.04907 15.76922 16.67017 15.37213 29.51428-.47864 15.48352-5.8146 28.81537-17.95707 38.46503-7.74179 6.15259-16.64694 10.84119-25.70617 16.52466z"/><path fill="#FFF" d="M2937.50049 1273.51123c.3003-.61658.91113-.9303 1.52197-1.24402.0813.50757.1626 1.01514-.1709 1.83545-.41455.31274-1.04004-.28857-1.35107-.59143z"/><path fill="#FDFEFE" d="M942.8722 1026.56323c4.13012.79578 7.46282 1.22425 10.64 2.17322 21.04426 6.28589 32.24012 21.14526 36.4889 42.07349 2.55945 12.60693 2.17303 25.22522-.13916 37.7362-4.42456 23.94104-11.16712 47.13623-21.28601 69.43543-19.05591 41.99414-58.73328 48.10937-87.67829 43.56885-16.46722-2.58326-27.63421-12.27027-33.27746-28.14979-5.34924-15.05212-6.3158-30.60864-5.05884-46.31018 1.78986-22.35937 6.8529-44.02954 15.3761-64.80432 2.2627-5.51526 4.86603-10.99511 8.07977-15.99878 17.73908-27.61987 42.00531-43.06848 76.85498-39.72412z"/><path fill="#FAFAFA" d="M2935.74365 1567.96875c-1.01147 15.11218-1.97925 29.30493-2.95971 43.68518h-94.979c1.3042-17.68396 2.56493-34.77832 3.87401-52.52869h94.10865c0 2.79627 0 5.36023-.04395 8.84351z"/><path fill="#FDFDFD" d="M2854.02783 1696.59607c-7.6079.00244-14.21948.00244-22.11206.00244 1.20654-18.3418 2.37354-36.08472 3.583-54.47595h94.89454c-1.1045 17.60766-2.21582 35.32104-3.41724 54.47107-24.34765 0-48.1499 0-72.94824.00244z"/><path fill="#FAFAFA" d="M2807.46924 1589.30762c-.67236 7.85998-1.27124 14.79345-1.93189 22.44043h-89.5498c-.34863-17.59046 2.29394-34.839 2.70703-52.71582h90.47192c-.5625 10.1687-1.09301 19.75879-1.69726 30.27539z"/><path fill="#FDFDFD" d="M2711.03906 1671.16602c.7417-10.19446 1.36841-19.46216 2.0354-29.32886h90.43555c-1.26782 18.40124-2.4934 36.18701-3.7434 54.32507h-90.2754c.49707-8.34924.96484-16.20923 1.54785-24.99621z"/><path fill="#F3CE89" d="M2858.64526 739.13977c-5.68945-1.89404-12.58325.48132-15.58764-6.58667 21.4624-12.55768 42.50561-24.37585 63.52734-36.23145 14.37354-8.1059 28.71753-16.26391 43.0747-24.39868 2.17115 8.71576-1.21361 14.67194-8.87646 18.92151-5.49585 3.0478-10.67529 6.6659-16.39209 10.56879-16.5039 9.73541-32.6101 18.93396-48.72046 28.12598-5.4729 3.12268-10.95483 6.229-17.02539 9.60052z"/><path fill="#F5D7A0" d="M2949.6128 671.27759c-14.31031 8.78015-28.6543 16.93817-43.02784 25.04406-21.02173 11.8556-42.06494 23.67377-63.80884 35.57972-2.21972-3.35157-3.72949-6.7749-4.48828-11.06311 7.78638-4.54767 14.95166-8.0039 21.83423-11.95362 25.292-14.51477 50.5127-29.15399 75.67334-43.8952 1.76099-1.03168 2.8108-3.27649 4.19116-4.95727 3.19312 3.53326 6.38623 7.06659 9.62622 11.24542z"/><path fill="#F8E0B4" d="M2939.50635 659.47687c-.90015 2.23608-1.94995 4.4809-3.71094 5.51257-25.16064 14.74121-50.38135 29.38043-75.67334 43.8952-6.88257 3.94971-14.04785 7.40595-21.8462 11.21088-.60717-4.13324-.45165-8.38855-.1201-13.3913 7.26171.49524 11.91113-4.69299 17.19677-7.65039 20.75195-11.61175 41.27515-23.63592 61.76685-35.70465 2.64672-1.55884 4.6123-4.2741 7.0371-7.21185 5.05225.42248 9.96094 1.60333 15.34986 3.33954z"/></svg>