<svg xmlns="http://www.w3.org/2000/svg" role="img" viewBox="11.50 20.51 376.74 114.49"><title>RT-Thread logo</title><g fill-rule="evenodd"><path fill="#2cbcbc" d="M129.593 28.137c-.362.029-.575.104-.474.167.165.102-1.304.135-1.702.038-.384-.094-1.516.035-1.709.194-.145.119-.284.109-.458-.036-.2-.166-.25-.165-.25.003 0 .155-.228.183-.875.108-.609-.071-.799-.052-.625.064.176.117-.034.145-.707.092-.526-.041-1-.004-1.053.082-.053.086-.184.102-.291.036-.275-.17-1.319-.058-1.606.172-.149.12-.199.125-.132.012.059-.099-.005-.18-.142-.18-.138 0-.218.083-.18.184.047.121-.274.182-.951.18-.562-.002-1.108.057-1.215.13-.106.073-.24.058-.297-.034-.057-.092-.213-.126-.347-.074-.134.051-.202.16-.152.242.051.083.019.15-.07.15-.089 0-.2-.094-.247-.209-.057-.142-.088-.146-.097-.014-.008.121-.204.163-.524.113-.28-.044-.618.009-.75.118-.185.155-.295.153-.489-.008-.234-.194-.325-.114-.263.228.015.08-.089.102-.23.047-.141-.054-.257-.011-.257.095s-.118.048-.262-.13c-.145-.178-.218-.235-.164-.127.054.108.022.244-.071.302-.093.057-.174-.031-.18-.197-.009-.243-.04-.229-.162.073-.082.207-.195.375-.249.375-.054 0-.057-.066-.007-.147.05-.082-.058-.187-.24-.235-.183-.047-.332-.027-.332.047 0 .073-.116.178-.258.232-.147.057-.215.029-.158-.063.057-.093-.011-.12-.157-.064-.142.054-.217.166-.166.248.132.212-.158.185-.379-.036-.19-.19-.612-.052-.482.157.039.064-.185.104-.498.089-.314-.015-.614.044-.667.131-.058.094-.195.077-.339-.042-.193-.161-.311-.124-.601.186-.197.212-.384.314-.413.226-.07-.21-1.215-.077-1.215.141 0 .091-.112.123-.25.07-.138-.053-.25-.026-.25.06s-.112.113-.25.061c-.139-.054-.25-.005-.25.109 0 .161-.054.16-.25-.003-.138-.114-.25-.14-.25-.056 0 .083-.244.147-.542.142-.591-.01-1.007.199-.863.433.153.248-.133.165-.464-.135-.27-.244-.298-.247-.21-.017.056.146.01.323-.102.392-.13.08-.161.056-.085-.067.069-.111.017-.192-.123-.192-.133 0-.285.112-.338.25-.053.137-.215.25-.361.25-.158 0-.217-.078-.146-.192.066-.107.046-.148-.044-.092-.089.055-.375.139-.636.186-.261.047-.555.175-.655.283-.135.147-.118.163.069.063.138-.074.192-.071.121.007-.192.211-.788.269-.788.077 0-.091-.079-.165-.176-.165-.097 0-.13.075-.074.166.057.092.024.176-.073.188-.428.05-.489.069-.607.187-.069.069-.206.124-.306.123-.099-.002-.068-.075.07-.164.213-.138.207-.162-.042-.164-.16-.002-.292.091-.292.205 0 .134-.237.204-.666.196-.464-.009-.667.057-.667.218 0 .127-.079.182-.176.122-.252-.155-1.024.067-.904.261.055.089.02.162-.077.162s-.176-.075-.176-.167c0-.092-.075-.167-.167-.167-.092 0-.167.122-.167.271 0 .213-.108.249-.508.169-.28-.056-.475-.046-.434.021.041.068-.025.214-.146.326-.155.143-.239.149-.282.02-.036-.11-.21-.137-.431-.067-.224.071-.324.195-.252.314.074.125.02.117-.15-.02-.183-.148-.302-.16-.377-.039-.06.098-.174.137-.253.089-.079-.049-.191-.012-.25.083s-.195.121-.303.059c-.108-.062-.141-.051-.073.024.183.202-.193.579-.472.472-.132-.051-.353.002-.491.117-.139.115-.3.161-.358.103-.117-.117-.553.193-.553.393 0 .069.16.168.355.219.256.067.332.186.269.424-.063.242-.02.305.16.236.189-.072.233.018.189.388-.044.38.007.477.244.457.164-.013.27.062.235.167-.036.105.045.272.179.371.134.098.244.384.244.635 0 .325.068.429.238.363.131-.05.197-.025.147.055-.049.08.022.239.159.352.136.113.248.314.248.445 0 .132.077.192.172.133.109-.067.143.058.092.338-.062.34-.024.423.161.352.133-.051.242-.039.242.027s.223.128.495.137c.272.01.459-.038.417-.107-.101-.163.727-.389 1.236-.337.281.028.372-.028.31-.191-.055-.143.032-.24.23-.254.196-.015.28.052.219.174-.054.109.006.07.134-.086.128-.155.378-.286.554-.289.748-.014.899-.066.742-.255-.108-.13-.042-.199.211-.221.441-.038 1.667-.17 1.785-.191.045-.008-.029-.096-.167-.195-.205-.147-.192-.161.07-.075.184.06.377.014.453-.109.108-.174.2-.173.488.006.195.12.396.178.447.127.123-.123.563.735.461.899-.044.071.107.329.334.575.228.245.413.536.411.646-.001.121-.066.102-.164-.051-.089-.137-.163-.177-.164-.087-.002.089.269.404.602.7.395.352.625.717.664 1.059.073.625.184.829.45.826.132-.002.123-.05-.028-.146-.141-.089-.163-.183-.058-.247.267-.165.588.921.328 1.108-.144.104-.112.12.101.051.252-.083.295-.036.221.244-.055.212.001.381.146.437.13.049.195.157.144.239-.051.083.022.15.162.15.158 0 .218.095.159.25-.061.158.002.25.172.25.147 0 .268.117.268.26 0 .159-.081.214-.209.142-.155-.088-.154-.059.007.113.184.198.24.195.38-.017.12-.18.136-.123.059.21-.084.359-.047.458.171.458.153 0 .232.075.175.167-.057.092-.016.167.091.167s.152.111.099.248c-.054.143-.009.231.108.208.114-.022.179.095.149.269-.032.185.018.264.125.198.098-.06.178.007.178.15s.075.26.167.26c.091 0 .166.122.166.27 0 .226-.048.236-.291.063-.161-.114-.092-.02.152.209l.444.417-.402.184c-.307.139-.403.134-.405-.022-.002-.131-.059-.115-.16.045-.087.137-.355.264-.597.283-.241.018-.617.15-.835.293-.366.24-.389.237-.312-.033.046-.161-.004-.128-.11.073s-.299.406-.43.456c-.132.051-.192.018-.136-.073.056-.091-.011-.165-.15-.165-.138 0-.328.131-.423.292-.15.254-.193.259-.339.041-.149-.223-.243-.125-.194.203.01.065-.094.076-.23.024-.156-.06-.248.004-.248.172 0 .147-.08.268-.177.268-.097 0-.13-.075-.073-.167.129-.208.049-.208-.5 0-.24.092-.391.242-.334.333.13.211-.019.213-.403.008-.23-.123-.379-.068-.646.239-.191.22-.272.424-.181.455.091.03.186.195.211.366.025.172.168.402.318.512.215.156.23.243.071.403-.16.161-.139.18.095.09.165-.062.288-.048.274.032-.055.323.231.896.447.896.255 0 .243.345-.019.542-.092.069.013.106.232.083.238-.025.427.058.471.208.064.222.053.222-.104 0-.098-.138-.178-.171-.18-.074-.001.098.116.323.26.5.144.178.208.219.141.09-.076-.146-.055-.193.055-.125.097.06.137.262.088.45-.049.187-.023.328.057.313.331-.061.465.027.25.163-.253.161-.115.518.198.514.119-.002.099-.067-.051-.164-.138-.089-.169-.163-.07-.164.309-.005.409.206.211.444-.151.182-.128.204.112.112.207-.08.264-.055.181.079-.066.108-.037.195.066.195.103 0 .174.132.158.292-.08.78.122.788 1.079.042.284-.223.306-.223.196 0-.069.137-.01.109.13-.063.158-.195.382-.28.59-.226.184.048.329.039.321-.02-.045-.35.076-.469.484-.474.9-.011 1.061-.051.947-.235-.075-.122-.002-.149.217-.08.214.068.412.001.562-.19.216-.275.209-.278-.101-.046-.302.227-.314.225-.124-.018.131-.168.364-.239.625-.189.278.053.417.004.418-.148.002-.178.038-.173.164.022.143.221.162.22.164-.006.002-.141.134-.271.295-.289.665-.075.875-.154 1.2-.448.188-.17.341-.257.341-.194 0 .064.159.03.354-.074.286-.153.327-.146.215.036-.084.135.049.102.333-.084.26-.17.417-.218.348-.107-.175.284.608.04.85-.265.101-.127.232-.182.292-.122.059.06.108.017.108-.096 0-.112.075-.158.167-.101.092.057.167.031.167-.058 0-.088.148-.122.33-.074.507.132 1.298-.101.994-.294-.201-.127-.194-.153.041-.155.155-.001.336.085.402.193.08.129.166.073.255-.167.124-.337.644-.523.644-.231 0 .072.155.131.345.131.329 0 .33-.011.042-.236-.293-.229-.293-.234 0-.132.167.058.458.023.646-.078.248-.132.31-.132.228.001-.192.31.155.203.559-.173.21-.196.431-.287.49-.203.201.288.609.146.561-.194-.044-.31-.032-.312.185-.038.27.34.462.38.403.083-.023-.115.052-.19.166-.167.115.023.209-.042.209-.145 0-.129.077-.123.25.02.149.125.25.139.25.035 0-.098.215-.138.5-.093.396.062.5.017.5-.215 0-.228.044-.249.2-.093.269.269.466.252.466-.04 0-.33.343-.515.496-.268.091.149.152.132.226-.062.056-.145.183-.264.283-.264.101 0 .126.093.057.209-.073.121.005.104.188-.042.173-.138.261-.161.196-.053-.065.108-.042.244.052.301.095.06.17-.062.172-.28.002-.309.034-.336.164-.135.107.167.162.181.164.042.001-.115.119-.208.262-.208.143 0 .214.075.157.166-.057.092-.032.167.056.167.087 0 .202-.114.256-.254.064-.167.242-.228.518-.178.231.042.42.02.42-.05s.244-.091.541-.048c.503.074.524.059.296-.216-.23-.277-.201-.292.444-.23.38.036.655.008.612-.063-.044-.07 0-.128.097-.128s.177.075.177.167c0 .092.117.167.26.167.142 0 .218-.067.168-.148-.05-.081.058-.187.24-.234.189-.05.333-.004.334.106.002.138.037.14.125.008.068-.102.254-.165.414-.14.16.024.333-.024.385-.107.051-.084.314-.152.584-.152.269 0 .49-.083.49-.185 0-.113.226-.158.583-.117.338.04.584-.005.586-.106.001-.102.056-.092.129.024.07.109.275.171.456.138.181-.034.465-.068.631-.075.165-.007.265-.071.22-.143-.044-.072.064-.131.24-.131.177 0 .321.052.321.115 0 .064.165.072.366.02.35-.092.352-.102.042-.227-.233-.095-.149-.124.301-.105.343.015.625.101.625.191 0 .091.118.019.262-.159.144-.178.215-.23.157-.115-.166.327.375.247.567-.083.162-.278.17-.278.175 0 .006.344-.018.34.647.108.289-.1.525-.259.525-.353 0-.094.127-.068.282.058.186.151.24.158.158.022-.095-.158.06-.181.661-.099.456.063.745.044.691-.043-.051-.084.087-.162.307-.176.221-.013.401.048.401.135 0 .088.094.101.208.029.115-.071.396-.114.625-.096.377.031.385.02.084-.118-.259-.118-.154-.155.468-.164.441-.006.759.056.708.139-.051.084.057.112.24.064.184-.048.334-.153.334-.234 0-.081.079-.147.176-.147.097 0 .13.075.074.166-.057.092-.028.167.063.167.092 0 .212-.072.266-.16.063-.101.251-.103.51-.004.282.107.411.098.411-.027 0-.122.083-.114.25.024.183.152.25.156.25.013 0-.132.187-.159.583-.085.363.068.583.044.583-.064 0-.096-.168-.201-.375-.233-.206-.033.525-.066 1.625-.074 1.1-.009 2.743-.073 3.65-.144 1.393-.109 1.629-.092 1.51.104-.115.192-.094.196.118.024.317-.256 6.972-.287 6.972-.032 0 .087.08.158.177.158.097 0 .135-.067.084-.149-.053-.086.155-.093.491-.017.32.072.582.072.582-.001 0-.072.318-.058.708.031.39.089.961.121 1.269.073.367-.058.644-.006.8.15.181.181.484.214 1.231.136.683-.072.992-.046.992.083 0 .134.125.13.445-.016.355-.162.459-.16.516.011.055.163.125.168.305.019.178-.148.234-.147.234.004 0 .12.126.158.319.097.176-.056.37-.02.431.08.08.13.18.126.348-.013.18-.15.293-.147.485.012.181.15.25.154.25.015 0-.13.095-.144.292-.043.16.082.385.116.5.075.114-.041.208.006.208.106 0 .099.079.18.177.18.097 0 .13-.075.073-.166-.057-.092-.024-.167.073-.167.098 0 .177.078.177.174 0 .096.094.155.208.132.115-.024.373.049.575.16.289.161.394.159.5-.007.164-.256.717-.321.669-.077-.02.096.19.19.465.208.275.018.5.051.5.073 0 .036 1.541.151 2.54.191.206.008.337.075.291.149-.046.074.236.138.626.141 1.328.013 1.876.106 2.098.356.193.217.209.206.125-.083-.091-.311-.077-.309.213.031.217.255.363.312.486.19.1-.1.271-.116.398-.037.122.076.384.118.582.092.197-.025.406.03.463.123.058.093.215.127.35.076.134-.052.244-.006.244.101 0 .12.13.155.334.09.248-.078.336-.028.345.197.009.244.034.254.125.053.062-.137.212-.27.334-.295.121-.026.185.012.142.083-.119.197.255.458.72.501l.417.039-.417-.241c-.339-.197-.36-.243-.109-.247.169-.004.503.148.742.336.291.229.568.31.832.244.231-.058.356-.034.299.058-.057.092.175.131.562.094.363-.035.706.011.762.102.056.091.167.125.246.076.079-.048.19-.012.248.081.058.093.255.169.438.169s.295.062.249.137c-.046.075.137.104.408.064.271-.04.602.018.734.128.133.11.313.156.401.101.088-.054.198-.004.244.111.065.161.088.158.098-.011.01-.165.08-.153.281.048.206.206.32.223.5.074.127-.106.241-.146.253-.089.011.057.039.179.062.271.023.091.053.223.065.291.013.069.096.013.185-.125.119-.183.163-.191.164-.03.002.14.118.183.322.118.176-.056.37-.02.431.079s.274.135.472.079c.286-.08.309-.064.111.074-.215.151-.209.176.042.178.16.001.292.077.292.169 0 .092.072.167.161.167.089 0 .118-.113.066-.25-.053-.138-.013-.25.088-.25.102 0 .185.067.185.149 0 .081.116.193.258.248.149.057.216.029.157-.066-.056-.091-.028-.165.061-.165s.189.079.221.174c.031.096.22.187.419.202.198.015.347.095.33.178-.016.084.102.174.262.201.16.027.292-.028.292-.123 0-.103.1-.089.25.035.137.114.25.146.25.072 0-.075.11.01.244.188.188.248.248.265.256.073.007-.153.104-.089.25.167.131.229.241.323.244.208.008-.28.308-.263.606.035.133.134.354.2.49.148.136-.052.359-.002.495.111s.248.15.248.081c0-.068.112-.031.248.082s.365.161.509.106c.15-.058.217-.031.158.064-.056.091-.078.168-.05.171 1.031.126 1.419.23 1.568.421.101.129.226.192.278.14.052-.052.256.066.453.264.304.303.4.325.629.138.149-.12.221-.136.161-.035-.062.103.075.268.309.375.536.244.789.244.638-.001-.075-.121-.046-.148.076-.072.107.066.145.202.083.302-.076.123.059.146.43.072.453-.09.556-.053.63.228.069.264.137.295.317.145.173-.143.23-.142.23.004 0 .107.131.172.291.145.161-.027.275.039.255.146-.021.108.258.244.625.306.435.074.662.2.662.368 0 .208.046.217.25.048.235-.195.327-.113.26.237-.016.084.088.056.231-.063.186-.154.259-.16.259-.02 0 .218 1.008.694 1.208.571.07-.044.173.038.228.181.055.143.223.26.373.258.238-.002.241-.024.024-.164-.153-.099-.172-.163-.05-.164.11-.002.26.094.334.212.302.486 1.103.968 1.243.749.091-.144.136-.15.137-.021.002.111.146.155.339.105.266-.07.312-.028.225.202-.097.25-.064.264.243.099.294-.157.339-.147.26.057-.064.167.046.282.338.355.237.06.431.176.431.257 0 .082.08.149.177.149.097 0 .13-.075.073-.167-.056-.091-.028-.166.064-.166s.214.076.271.169c.058.093.17.129.249.081.079-.049.198-.001.264.106.072.117.048.151-.06.083-.1-.061-.219-.051-.264.023-.046.073.11.15.345.169.235.02.536.167.667.327.138.169.185.186.111.042-.11-.216-.088-.219.155-.022.155.126.282.167.282.092 0-.075.09-.047.2.063.11.11.317.2.46.2.143 0 .355.153.472.34.116.187.295.288.396.226.101-.063.315.06.476.272.272.362.474.451 1.208.534.163.018.264.117.224.219-.039.103.031.187.156.187.124 0 .187-.081.138-.181-.049-.099.025-.042.163.128s.333.258.433.196c.1-.062.171-.051.158.025-.065.376.047.529.345.471.182-.035.381.019.443.119.072.117.034.134-.106.047-.147-.091-.178-.07-.094.066.087.141.186.149.334.026.153-.127.295-.073.527.201l.317.374-.375-.317c-.207-.175-.375-.241-.375-.146 0 .247 1.007.7 1.304.586.163-.063.208-.028.13.099-.077.124.003.195.222.195.189 0 .344.075.344.166 0 .092.112.167.25.167.137 0 .25.117.25.26 0 .143.07.216.156.163.086-.053.234.036.328.198.135.232.174.242.183.046.007-.172.134-.109.404.197.217.247.44.402.497.346.056-.056.214.042.35.219.244.314.247.314.137.002-.077-.221-.052-.282.083-.199.107.067.195.221.195.343 0 .272.459.469.723.31.125-.074.119-.023-.016.144-.179.22-.154.255.166.233.327-.023.718.202 1.587.916.116.095.284.127.374.072.091-.057.119.011.064.156-.101.263.657.682.93.514.074-.046.227.029.34.165.143.172.149.248.019.248-.103 0-.187.08-.187.177 0 .097.062.138.137.092.075-.047.343.022.595.153.252.13.546.22.655.199.108-.02.185.099.171.266-.017.207.055.272.227.206.178-.068.223-.02.152.164-.057.15-.03.217.065.159.091-.056.165-.015.165.092s.116.15.258.095c.162-.062.217-.031.146.084-.075.122.005.145.242.07.243-.077.386-.032.453.142.054.14.245.302.426.359.18.057.396.285.48.507.117.308.281.405.699.414.456.01.491.035.212.155-.306.131-.258.171.275.229.106.011.25.171.322.354.071.183.135.242.142.13.006-.111.123-.16.26-.107.137.052.208.162.158.244-.051.081.097.235.329.34.231.105.381.256.333.334-.086.139.15.207.548.157.116-.015.172.117.134.313-.047.247.023.339.259.339.324 0 1.031.571.886.716-.042.042.035.119.172.172.176.067.223.013.161-.188-.078-.252-.066-.251.101.01.104.161.143.366.087.456-.059.096.017.118.185.054.184-.071.246-.045.175.07-.067.108.007.163.181.137.176-.026.376.128.503.39.122.249.174.291.125.1-.092-.357-.034-.301.546.527.118.168.168.21.112.094-.059-.124-.01-.194.119-.167.121.025.221-.067.221-.204 0-.138-.134-.24-.298-.226-.239.019-.259-.023-.101-.213.108-.13.148-.284.089-.343-.059-.059-.107-.011-.107.108 0 .171-.05.173-.248.009-.137-.114-.21-.268-.164-.343.046-.075-.004-.19-.111-.257-.129-.08-.154-.041-.074.114.067.129.006.092-.135-.082-.142-.174-.218-.38-.171-.457.048-.077-.024-.097-.159-.045-.146.056-.321-.047-.431-.252-.143-.267-.136-.349.029-.358.118-.006.027-.098-.203-.205-.433-.202-.819-.595-.828-.846-.003-.08.126-.042.287.084.265.208.27.202.059-.067-.127-.163-.271-.257-.318-.21-.152.152-.557-.571-.433-.771.081-.132.005-.163-.244-.098-.457.12-1.003-.347-.66-.564.215-.136.193-.156-.238-.215-.114-.016-.189-.119-.166-.229.023-.111-.076-.201-.219-.201-.142 0-.213-.076-.156-.168.057-.092-.032-.218-.198-.279-.313-.116-.545-.371-.55-.605-.001-.074.084-.081.19-.015.12.074.147.045.072-.077-.066-.107-.191-.152-.276-.099-.085.053-.155-.025-.155-.174 0-.148-.075-.223-.167-.166-.091.056-.166.026-.166-.069 0-.094-.125-.123-.277-.065-.22.085-.257.032-.182-.255.052-.199.026-.361-.057-.361s-.151-.105-.151-.233c0-.127-.117-.277-.261-.332-.143-.055-.223-.16-.178-.233.046-.073-.06-.144-.235-.157-.415-.031-.927-.519-1.144-1.089-.096-.251-.26-.456-.365-.456-.129 0-.116.09.038.276.209.254.197.257-.149.042-.207-.129-.339-.332-.293-.452.047-.123.007-.17-.093-.108-.097.06-.216-.044-.264-.23-.061-.231-.176-.306-.364-.236-.241.09-.246.068-.043-.182.205-.252.197-.271-.069-.169-.207.079-.264.054-.181-.08.066-.107.035-.195-.069-.195-.273 0-1.234-.998-.968-1.006.122-.004-.022-.113-.32-.242-.298-.13-.542-.345-.542-.48 0-.134-.206-.319-.458-.411l-.459-.168.417-.015c.331-.013.365-.049.167-.176-.138-.089-.4-.12-.584-.07-.246.067-.273.049-.103-.069.126-.087.176-.246.11-.352-.089-.144-.187-.139-.386.023-.228.185-.251.174-.157-.075.06-.161.037-.292-.052-.292s-.163-.131-.164-.292c-.002-.214-.039-.235-.139-.077-.074.117-.26.166-.413.107-.152-.058-.236-.173-.185-.255.051-.083.013-.15-.084-.15s-.177-.112-.177-.25c0-.137-.098-.25-.218-.25s-.364-.118-.541-.262c-.178-.144-.23-.215-.116-.157.32.162.25-.019-.193-.497-.265-.286-.441-.37-.518-.245-.076.123-.29.01-.618-.325-.276-.283-.568-.514-.649-.514-.225 0-.174-.46.062-.562.114-.05-.017-.075-.292-.056-.432.03-.507-.027-.553-.423-.051-.45-.167-.525-.725-.47-.153.015-.326-.126-.386-.314s-.211-.341-.337-.341c-.126 0-.283-.087-.348-.193-.079-.127-.045-.147.099-.057.149.092.178.07.092-.069-.069-.112-.231-.164-.359-.115-.134.052-.233-.014-.233-.155 0-.135-.094-.226-.208-.203-.115.023-.19-.052-.167-.167.023-.114-.075-.208-.218-.208-.143 0-.214-.074-.158-.165.057-.093-.007-.123-.147-.069-.137.052-.384.009-.55-.097-.273-.173-.266-.184.073-.113.207.044.333.012.282-.072-.051-.083-.206-.151-.343-.151-.149 0-.201-.079-.13-.195.079-.127.033-.161-.133-.097-.139.053-.47-.055-.736-.24-.265-.185-.35-.293-.19-.24.16.052.292.023.292-.066s-.094-.17-.209-.181c-.114-.01-.283-.037-.375-.058-.091-.021-.258-.05-.369-.064-.12-.015-.16-.146-.099-.317.058-.16.042-.235-.034-.165-.077.069-.314-.037-.527-.238-.213-.2-.387-.296-.387-.214 0 .082-.11-.007-.244-.198s-.475-.443-.758-.561c-.334-.138-.484-.297-.425-.45.068-.178.002-.209-.262-.125-.261.083-.319.056-.222-.101.094-.151.052-.182-.143-.107-.152.058-.258.048-.236-.022.066-.213-1.231-1.242-2.175-1.725-.21-.107-.348-.282-.308-.388.047-.122-.105-.182-.417-.163-.369.022-.576-.089-.829-.444-.212-.298-.488-.474-.743-.474-.223 0-.396-.056-.385-.125.074-.471-.045-.67-.353-.59-.194.051-.334.005-.334-.109 0-.107-.069-.153-.155-.1-.085.053-.202.02-.26-.073-.057-.093-.257-.17-.443-.17-.199 0-.376-.137-.427-.333-.08-.307-.254-.409-.599-.35-.074.013-.297-.091-.495-.23-.199-.139-.285-.253-.191-.253.094 0 .248.077.343.172.118.118.172.095.172-.076 0-.137-.057-.213-.126-.171-.069.043-.25-.048-.404-.201-.235-.235-.301-.242-.427-.043-.12.19-.15.178-.152-.062-.003-.381-.491-.573-.683-.269-.149.235-.152.229-.215-.386-.012-.111-.246-.206-.521-.211-.374-.006-.488-.078-.453-.289.034-.203-.047-.262-.296-.215-.189.037-.312.014-.273-.05.039-.064-.034-.213-.162-.331-.128-.118-.233-.139-.233-.047 0 .106-.138.114-.375.023-.206-.08-.356-.228-.333-.328.023-.101-.165-.184-.417-.186-.357-.002-.403-.038-.208-.164.201-.13.175-.162-.135-.164-.211-.001-.342-.072-.289-.157.053-.086.008-.21-.099-.276-.127-.079-.15-.048-.066.088.089.144.033.187-.183.14-.171-.037-.288-.169-.26-.294.04-.181.001-.185-.194-.023-.19.157-.272.158-.368.002-.084-.136-.054-.157.094-.066.144.09.178.07.099-.057-.065-.106-.23-.193-.367-.193-.136 0-.438-.206-.67-.458-.232-.252-.377-.37-.323-.262.055.109.024.244-.07.302-.093.058-.169.021-.169-.082 0-.102-.064-.147-.141-.099-.078.048-.295-.055-.483-.23-.187-.174-.386-.272-.442-.216-.055.055-.101.016-.101-.088s-.106-.149-.237-.099c-.137.053-.318-.06-.429-.268-.111-.206-.293-.32-.429-.268-.129.05-.397-.076-.595-.279-.197-.203-.306-.276-.241-.161.065.115.038.208-.059.208s-.176-.079-.176-.176c0-.097-.057-.141-.127-.098-.07.043-.272-.028-.449-.157s-.232-.235-.123-.235c.109 0 .199-.08.199-.177 0-.097-.084-.125-.186-.062s-.252.011-.333-.115c-.126-.195-.17-.195-.296 0-.172.267-.579.086-.412-.184.065-.105.034-.133-.073-.066-.102.062-.539-.107-.972-.376-.433-.269-.924-.464-1.091-.431-.218.042-.304-.043-.304-.299 0-.278-.044-.313-.2-.157-.279.279-.373.257-.943-.222-.339-.286-.636-.397-.919-.346-.335.061-.398.02-.318-.203.055-.154.039-.224-.035-.157-.075.068-.218.017-.319-.113-.1-.13-.48-.281-.842-.335-.363-.055-.718-.192-.789-.304-.072-.112-.131-.135-.132-.053-.002.083-.145.022-.32-.135-.174-.158-.551-.293-.839-.302-.287-.008-.563-.079-.611-.158-.049-.079-.16-.101-.246-.047-.086.053-.195-.005-.243-.129-.047-.124-.328-.244-.623-.266-.296-.022-.561-.109-.59-.193-.029-.083-.163-.109-.299-.057-.145.056-.226.009-.197-.114.027-.114-.056-.246-.183-.292-.141-.051-.187-.011-.117.102.074.119.022.151-.142.088-.142-.054-.216-.166-.166-.248.051-.082-.179-.149-.51-.149-.332 0-.561-.068-.51-.151.051-.084-.057-.112-.24-.064-.194.05-.334.005-.334-.109 0-.108-.075-.15-.166-.093-.092.057-.167.018-.167-.086s-.206-.173-.458-.153c-.586.047-1.042-.148-1.042-.445 0-.289-.359-.302-.658-.024-.182.168-.199.163-.089-.029.101-.177.063-.209-.151-.127-.157.061-.245.044-.195-.037.092-.15-.274-.351-.629-.346-.112.001-.088.071.055.164.185.119.193.162.03.164-.296.003-.71-.426-.563-.584.064-.069-.091-.088-.346-.042-.295.053-.51 0-.593-.15-.077-.138-.448-.247-.911-.269-.483-.022-.781-.114-.782-.239-.001-.112-.106-.163-.234-.114-.129.049-.283.01-.344-.088-.155-.252-.469-.223-.321.03.067.115-.034.072-.224-.094-.236-.207-.381-.244-.46-.117-.082.133-.189.124-.375-.031-.144-.119-.287-.198-.319-.175-.161.116-.397.02-.308-.125.057-.091.03-.166-.059-.166-.09 0-.202.093-.25.208-.063.152-.15.13-.322-.081-.129-.159-.284-.24-.343-.18-.06.059-.109.016-.109-.096s-.076-.157-.169-.1c-.094.058-.127.174-.075.258.052.085-.022.109-.164.054-.142-.054-.259-.158-.259-.23 0-.072-.116-.176-.258-.23-.149-.057-.216-.029-.157.065.056.091-.018.165-.163.165-.146 0-.309-.113-.361-.25-.053-.138-.243-.25-.422-.25s-.283-.068-.232-.151c.052-.083-.063-.11-.254-.06-.264.069-.294.124-.125.232.183.116.181.141-.009.143-.128.002-.315-.111-.417-.251-.102-.139-.429-.27-.727-.291-.297-.021-.541-.104-.541-.184s-.106-.058-.234.049c-.18.149-.251.144-.306-.022-.048-.145-.365-.206-.974-.188-.56.017-.778-.02-.574-.098.295-.113.283-.135-.12-.212-.246-.047-.474-.005-.507.094-.033.098-.202.012-.376-.191-.174-.204-.431-.365-.571-.358-.176.008-.152.056.078.155.279.119.244.145-.213.155-.332.007-.583-.083-.639-.229-.07-.182-.192-.203-.505-.084-.25.095-.374.096-.316.002.147-.237-.248-.407-.458-.196-.221.221-.511.248-.379.036.05-.082-.018-.191-.152-.243-.134-.051-.288-.022-.342.066-.129.208-.746.207-.746-.002 0-.089.113-.118.25-.066.138.053.25.02.25-.073 0-.186-.303-.178-.612.015-.117.073-.227.004-.272-.171-.072-.274-.078-.273-.096.008-.011.166-.096.254-.189.197-.093-.058-.125-.194-.071-.302.054-.108-.02-.051-.164.127-.144.178-.262.236-.262.13 0-.112-.117-.148-.278-.087-.178.069-.237.041-.164-.077.063-.101.038-.23-.056-.288-.093-.058-.169-.016-.169.092 0 .139-.083.13-.282-.032-.192-.155-.242-.162-.157-.02.084.14.012.208-.218.208-.189 0-.343-.076-.343-.17 0-.093-.183-.136-.407-.096-.224.041-.443-.014-.487-.121-.057-.142-.083-.138-.093.012-.007.115-.092.209-.19.209-.097 0-.135-.067-.084-.15.108-.174-.324-.377-.478-.223-.148.148-.594.198-.594.066 0-.061-.442-.106-.982-.101-.668.006-.959-.052-.91-.181.04-.104-.04-.189-.177-.189-.138 0-.21.065-.16.145.091.148-.539.034-1.241-.225-.497-.183-.573-.179-.447.024.057.092.024.167-.073.167-.098 0-.177-.083-.177-.185 0-.114-.16-.144-.417-.08-.262.066-.416.034-.416-.086 0-.125-.072-.136-.209-.032-.258.195-.996.246-.881.06.046-.074-.253-.097-.663-.051-.532.06-.747.024-.747-.125 0-.163-.058-.161-.263.01-.185.153-.296.163-.376.035-.128-.208-1.531-.334-1.809-.162-.221.137-1.74-.049-1.646-.201.036-.058-.228-.078-.586-.044-.419.04-.618.131-.557.253.052.105-.013.06-.144-.1-.258-.315-1.453-.417-1.453-.125 0 .106-1.364.166-3.76.166-2.595 0-3.726-.054-3.651-.176.105-.168-.461-.173-2.329-.02m95.329 33.188c-.06.096.009.175.151.175.143 0 .26.108.26.24s.068.282.151.334c.229.141.012-.536-.237-.743-.151-.125-.25-.127-.325-.006m3.245 8.773c0 .16.05.241.111.179.061-.061.249.014.418.166.168.152.333.246.366.209.034-.038-.154-.243-.417-.456-.418-.339-.478-.351-.478-.098m7 1.276c0 .093-.111.075-.25-.041-.138-.114-.25-.282-.25-.374 0-.093.11-.075.25.041.137.114.25.282.25.374m-48.709 6.587l-4.458.044v49.485l4.503.046 4.503.047-.045-13.609c-.024-7.485.011-13.522.078-13.417.09.141.123.137.125-.015.002-.164 1.717-.209 8.013-.209 5.813 0 7.978.051 7.895.185-.079.129.049.148.428.065.394-.086.509-.066.421.076-.066.108.013.342.175.522.227.251.328.277.431.115.097-.154.135-.129.137.089.002.166.069.26.15.21.222-.137.342.516.133.724-.099.1-.109.181-.022.181.099 0 .142 4.686.115 12.5l-.044 12.5h9.174l-.005-13c-.004-7.15-.061-13-.127-13-.067 0-.132-.187-.145-.416-.014-.237.047-.371.141-.313.109.067.111-.005.005-.209-.088-.172-.146-.47-.129-.664.02-.225-.061-.345-.227-.333-.156.011-.26-.12-.262-.331-.003-.192-.107-.473-.233-.625-.194-.234-.194-.276 0-.278.184-.002.186-.03.012-.14-.119-.076-.229-.3-.244-.498-.015-.198-.121-.36-.236-.36-.127 0-.168-.109-.103-.277.058-.153.037-.235-.047-.184-.084.051-.25-.012-.368-.139-.177-.192-.17-.233.036-.233.15 0 .214-.097.16-.239-.053-.138-.204-.197-.356-.139-.17.065-.222.035-.147-.087.205-.332-.257-.885-.545-.652-.136.11-.2.12-.141.023.058-.098-.115-.309-.385-.468-.27-.16-.49-.38-.488-.489.002-.134.049-.125.146.027.1.159.177.171.258.041.144-.234-.317-.424-.607-.25-.172.103-.175.079-.016-.117.221-.274-.312-.755-.624-.562-.088.054-.16-.019-.16-.161 0-.307-.328-.356-.344-.052-.006.115-.094.036-.195-.174-.102-.21-.279-.345-.394-.301-.115.044-.303-.033-.417-.171-.348-.418-1.144-.753-1.512-.636-.213.067-.306.045-.243-.058.057-.092-.015-.212-.159-.268-.382-.146-.438-.126-.294.108.071.115-.084.069-.344-.101-.286-.187-.417-.22-.333-.083.084.137-.048.104-.334-.084-.387-.253-.499-.268-.618-.083-.122.189-.17.188-.296-.006-.087-.136-.295-.194-.5-.141-.192.051-.35.043-.35-.018 0-.06-3.599-.072-7.998-.026l-7.999.084-.043-6.75-.043-6.75-4.459.044m185.337 6.706l.046 6.75-8.004-.084c-4.402-.046-8.004-.037-8.004.019 0 .056-.198.064-.441.017-.304-.058-.405-.025-.324.106.086.139.004.147-.303.031-.283-.108-.456-.102-.53.018-.077.124-.145.121-.227-.011-.081-.132-.248-.086-.547.149-.452.355-.712.443-.554.187.113-.184-.495-.037-1.057.255-.225.117-.47.175-.544.129-.075-.046-.086.046-.025.204.085.223.045.263-.177.177-.172-.065-.247-.043-.186.055.142.23-.143.206-.381-.032-.15-.15-.179-.107-.123.185.061.313.015.365-.259.293-.234-.061-.438.056-.687.393-.195.263-.422.437-.506.385-.083-.051-.192.063-.242.255-.05.192-.156.308-.236.259-.245-.152-.85.268-.752.522.054.141-.012.238-.161.238-.148 0-.232.121-.203.291.032.193-.051.284-.248.268-.175-.014-.402.18-.555.477-.143.275-.178.45-.079.389.1-.062.181.003.181.143 0 .155-.096.218-.244.161-.173-.066-.225.002-.179.24.042.22-.101.46-.419.704-.266.204-.444.436-.395.515.049.08-.009.147-.128.15-.135.004-.095.099.105.25.178.135.23.245.115.245s-.162.075-.105.167c.056.091.018.166-.085.166-.112 0-.145.135-.082.334.077.243.03.333-.176.333-.231 0-.245.045-.074.25.167.202.163.25-.021.253-.191.002-.192.026-.004.145.177.112.141.206-.166.435-.257.191-.29.257-.096.191.281-.095.295.32.282 8.231-.007 4.582.033 8.406.089 8.496.056.091.004.167-.116.168-.151.002-.161.041-.032.125.103.068.183.273.179.456-.021.9.077 1.494.196 1.193.108-.275.143-.26.323.135.111.244.133.401.049.348-.19-.117-.136.349.061.528.079.071.082.024.007-.105-.094-.162-.073-.195.068-.108.112.069.166.225.12.345-.047.121.023.261.155.312.132.05.238.188.237.305-.002.149-.051.138-.164-.036-.138-.214-.162-.208-.164.041-.002.167.122.293.289.295.249.002.255.026.041.164-.203.131-.181.162.116.164.28.002.35.083.298.351-.05.258-.001.323.187.251.193-.074.229-.018.149.234-.084.264-.047.309.183.22.193-.074.25-.047.171.08-.164.265.396 1.069.671.963.129-.049.225.023.225.168 0 .152.079.206.195.134.136-.083.159-.025.075.194-.066.173-.067.261-.002.195.065-.065.238-.025.384.089.239.187.241.175.015-.119-.248-.323-.246-.323.187-.001.252.187.399.425.347.561-.058.151-.02.193.104.117.108-.067.195-.037.195.065 0 .103.075.14.167.084.092-.057.26-.044.375.029.211.134.304.162.653.2.107.011.145.07.085.13-.13.13.191.557.417.557.086 0 .109-.093.051-.208-.058-.115.01-.066.152.109.147.18.507.333.838.355.32.022.702.16.85.308.204.204.347.227.591.097.24-.129.322-.118.324.042.002.15.05.14.164-.036.089-.138.163-.175.164-.083.002.109 4.532.166 13.253.166h13.25V77.917h-9.417l.045 6.75m8.997 30.445c-.024 6.859-.044 1.296-.044-12.362s.02-19.27.044-12.471c.024 6.799.024 17.974 0 24.833M242.448 79.941c-.215.215-.116.382.163.275.186-.071.238-.042.157.089-.067.107-.036.195.068.195.232 0 .149-.533-.096-.615-.098-.032-.229-.007-.292.056M18.833 105l.001 22.583h9.499v-17.921l5.625.044c4.755.037 5.617.081 5.574.281-.042.195-.006.199.209.021.276-.23.334-.116.268.534-.017.16.044.291.135.291.091 0 .199.132.241.292.068.26.078.257.096-.022.016-.266.077-.241.394.163.206.263.355.539.33.615-.024.075.069.3.209.499.165.235.253.277.253.12 0-.15.103-.094.272.148.228.325.235.412.041.534-.172.109-.137.147.139.149.204.001.454.161.558.356.116.215.123.312.018.247-.095-.058-.219-.03-.277.063-.101.165.115.237.54.182.127-.016.209.171.209.48 0 .279.083.508.184.508.103 0 .138-.122.08-.274-.089-.23-.065-.24.153-.059.141.117.219.252.171.3-.047.047.066.193.253.324.213.149.304.347.245.533-.052.163.02.39.16.506.139.116.254.155.254.086 0-.068.104-.037.232.069.128.107.196.337.15.513-.063.24.026.347.355.43.335.084.396.161.259.326-.205.247.057.502.337.329.092-.057.167.018.167.167 0 .161-.078.222-.193.15-.12-.074-.147-.045-.072.077.067.107.191.152.276.099.086-.053.155-.012.155.09 0 .103.074.141.165.085.098-.061.12.014.055.184-.074.193-.047.247.083.167.131-.081.158-.026.083.168-.084.22-.045.262.167.181.171-.065.262-.029.237.096-.022.112.039.189.135.172.279-.049.609.574.38.715-.124.077-.143.042-.055-.101.095-.153.071-.178-.082-.084-.171.106-.153.182.082.354.165.121.359.182.433.137.073-.045.104.069.068.255-.049.253.023.338.287.338.193 0 .302.049.243.109-.06.059.021.215.18.345.159.131.183.182.053.114-.176-.091-.208-.048-.125.168.061.16.111.323.111.361 0 .038.169.071.375.072.304.002.327.034.125.164-.172.112-.184.163-.038.164.117.002.298.191.402.42.104.229.262.416.35.416.088 0 .058-.131-.068-.291-.208-.265-.202-.271.065-.062.225.177.249.284.104.459-.139.167-.139.228-.002.228.103 0 .187.112.187.25 0 .137.113.25.25.25.138 0 .232.084.209.187-.023.103.062.226.19.272.155.056.188.013.099-.13-.089-.144-.066-.173.068-.09.148.091.152.182.015.347-.142.171-.107.266.152.405.221.118.304.281.239.47-.081.234-.047.226.181-.045.278-.33.28-.329.178.042-.059.216-.029.375.072.375.096 0 .221.187.279.416.057.228.172.373.255.321.084-.051.101-.182.039-.29-.063-.111-.047-.138.037-.06.082.075.151.247.152.383.002.213.785.245 5.752.237 3.717-.006 5.735-.068 5.708-.175-.023-.091-.191-.315-.375-.499-.183-.183-.333-.408-.333-.5 0-.091-.084-.166-.187-.166-.123 0-.108.1.042.291.207.265.201.271-.065.062-.226-.177-.25-.284-.105-.459.139-.167.139-.228.002-.228-.103 0-.187-.154-.187-.343 0-.189-.076-.296-.168-.239-.092.057-.215-.02-.273-.171-.082-.215-.135-.227-.24-.057-.103.167-.161.147-.251-.086-.068-.178-.031-.357.088-.431.143-.088.099-.154-.143-.217-.251-.066-.318-.176-.241-.399.095-.274.076-.271-.175.027-.278.33-.28.329-.178-.042.057-.208.029-.375-.063-.375-.165 0-.451-.638-.391-.869.017-.065-.077-.078-.209-.027-.373.143-.644-.088-.42-.357.173-.208-.374-.708-.683-.625-.054.014-.097-.079-.097-.207 0-.129.081-.188.18-.132.172.097.064-.038-.734-.914-.191-.21-.426-.333-.522-.274-.107.067-.152-.043-.119-.283.031-.216-.019-.394-.111-.396-.347-.009-.609-.298-.534-.587.053-.202-.034-.33-.263-.39-.302-.078-.314-.122-.105-.379.133-.164.148-.238.035-.171-.198.12-.661-.499-.581-.776.022-.076-.019-.104-.09-.063-.071.041-.279.015-.462-.059-.296-.119-.3-.136-.032-.146.166-.006.255-.088.197-.181-.058-.093-.187-.118-.288-.056-.121.074-.145.012-.07-.183.085-.223.049-.271-.147-.195-.151.057-.217.03-.158-.066.056-.092-.007-.208-.14-.259-.154-.06-.208-.225-.148-.457.084-.326.064-.34-.189-.133-.246.202-.269.198-.18-.034.063-.167-.074-.44-.369-.732-.259-.256-.472-.518-.473-.582-.002-.065-.108-.215-.236-.334-.193-.179-.21-.174-.102.034.071.137-.124.004-.434-.297-.439-.425-.514-.578-.336-.689.186-.116.176-.171-.057-.302-.156-.087-.278-.208-.27-.269.038-.279.001-.305-.199-.14-.165.138-.213.078-.208-.261.004-.333-.095-.464-.411-.54-.229-.055-.422-.172-.428-.26-.027-.394-.645-1.385-.808-1.294-.099.055-.085-.002.032-.128.168-.181.279-.187.53-.031.246.154.335.153.399-.004.061-.147.131-.134.26.048.146.207.177.209.179.014.002-.13.05-.189.108-.131.058.058.254.025.437-.072.239-.128.3-.126.218.006-.07.113.034.182.271.18.31-.002.336-.034.135-.164-.194-.126-.148-.162.209-.164.252-.001.458-.077.458-.169 0-.092.079-.167.177-.167.097 0 .121.094.054.209-.067.114.034.072.224-.095.225-.197.383-.24.455-.125.166.27.488.214.88-.15.245-.229.375-.267.427-.125.056.153.131.146.304-.03.194-.197.194-.213-.001-.102-.401.229-.118-.282.315-.567.221-.146.347-.176.28-.068-.066.108-.033.251.075.318.107.066.151.049.097-.039-.054-.087-.047-.23.016-.317.165-.231.919-.633.788-.421-.061.098-.044.179.038.179.081 0 .245-.181.364-.403.132-.248.331-.381.515-.346.164.032.342-.054.394-.19.053-.137.163-.207.245-.157.082.051.241-.019.355-.156.125-.15.137-.248.032-.248-.095 0-.211.094-.257.208-.046.115-.09.129-.097.032-.007-.097.097-.322.231-.5.144-.189.247-.235.25-.111.003.117.266-.025.585-.314.318-.29.544-.584.501-.654-.043-.069.034-.169.171-.222.137-.052.249-.26.249-.462 0-.201.046-.319.103-.263.127.128.442-.177.72-.696.169-.316.169-.366-.002-.261-.116.072-.068-.061.109-.296.176-.235.383-.388.461-.34.078.047.059-.069-.042-.258-.153-.286-.122-.387.187-.603.207-.145.272-.26.147-.26-.169 0-.178-.055-.039-.224.103-.123.139-.271.08-.329-.058-.058.012-.151.155-.206.173-.066.235-.241.185-.517-.052-.288-.016-.38.118-.297.121.074.165.032.116-.112-.042-.127.068-.491.245-.807.25-.446.263-.526.056-.355-.233.194-.261.163-.231-.258.019-.263.112-.533.208-.601.113-.079.101-.123-.035-.125-.114-.001-.203-.171-.196-.377.011-.348.021-.352.139-.05.108.276.144.241.238-.229.149-.742.14-.884-.046-.769-.092.057-.127-.164-.085-.532.061-.542.049-.571-.089-.212-.126.327-.149.211-.109-.542.028-.527-.012-.958-.088-.958-.16 0-.113-.373.064-.506.066-.05.008-.305-.128-.567-.136-.262-.211-.513-.167-.557.142-.142-.252-.716-.42-.612-.212.131-.122-.304.096-.464.096-.071.055-.123-.099-.125-.145-.001-.348-.186-.451-.411-.161-.354-.148-.397.099-.323.156.048.079-.033-.172-.179-.468-.271-.749-.924-.543-1.258.068-.109-.029-.225-.232-.278-.192-.05-.307-.158-.257-.24.051-.082-.024-.194-.167-.249-.143-.054-.21-.179-.15-.277.066-.107.011-.14-.138-.082-.267.102-.713-.453-.561-.699.125-.201-.374-.672-.716-.676-.242-.002-.246-.024-.03-.164.15-.097.171-.162.052-.164-.11-.001-.246.074-.304.167-.154.249-.416.028-.306-.258.064-.167-.017-.245-.258-.245-.193 0-.351-.079-.351-.176 0-.097-.077-.129-.17-.071-.094.058-.161.044-.147-.032.055-.317-.028-.554-.193-.554-.097 0-.122.087-.057.192.074.12.046.148-.074.074-.105-.065-.192-.225-.192-.354 0-.14-.101-.196-.25-.139-.138.053-.25.009-.25-.098s-.075-.148-.167-.092c-.091.057-.167.005-.169-.115-.002-.158-.047-.15-.164.032-.138.214-.162.208-.164-.042-.002-.182-.131-.291-.346-.291-.189 0-.301-.068-.25-.15.051-.083-.174-.15-.501-.15-.339 0-.743-.132-.944-.309-.194-.169-.297-.214-.23-.1.147.253-.166.283-.322.031-.061-.098-.223-.135-.362-.082-.173.067-.222.02-.157-.15.052-.135.011-.298-.09-.361-.112-.069-.139-.038-.067.078.122.196-.098.272-.275.096-.054-.054-7.829-.11-17.278-.125l-17.181-.028V105m49.875-22.542c.069.038.125 2.051.125 4.473v4.402l8.959.02c4.927.011 9.014.011 9.083 0 .069-.011.125 8.115.125 18.058v18.079l4.502.046 4.501.047-.043-18.129-.043-18.129 9.125.046c5.019.025 9.05.021 8.958-.01-.106-.035-.167-1.663-.167-4.458V82.5H91.43c-12.321 0-22.503-.025-22.625-.056-.122-.031-.165-.025-.097.014M132 86.874v4.456l9.125.044 9.125.043v36.166l4.458-.047 4.457-.046.043-18.037.042-18.036h18.083v-8.915l-22.666-.042L132 82.417v4.457m101.167 4.501c-.613.247-1.192.3-1.067.097.065-.104-.034-.097-.25.019-.196.105-.43.146-.52.09-.09-.055-.163-.024-.163.07s-.159.256-.354.36c-.214.115-.312.122-.247.017.19-.307-.919-.056-1.208.273-.151.173-.371.281-.488.241-.118-.04-.193.028-.167.151.031.149-.103.214-.404.193-.311-.021-.481.067-.55.283-.055.173-.194.278-.309.234-.273-.105-.94.476-.94.82 0 .169-.092.231-.252.17-.18-.069-.222-.02-.149.172.057.147.02.268-.081.268-.102 0-.186-.093-.187-.208-.002-.143-.051-.132-.156.034-.084.133-.109.313-.055.4.054.087-.041.259-.21.383-.169.124-.236.228-.15.232.086.004-.068.111-.343.237s-.39.235-.255.242c.169.009.131.094-.125.273-.368.258-.539.698-.186.48.101-.063.055.083-.103.323-.157.241-.353.438-.434.438-.081 0-.147.103-.147.229 0 .127-.114.324-.252.439-.188.155-.205.266-.069.43.222.268.042.621-.233.456-.112-.068-.098.003.032.164.197.242.192.282-.029.282-.191 0-.242.132-.194.505.035.278 0 .466-.077.419-.077-.048-.185.081-.238.286-.054.205-.025.398.064.429.104.035.148 4.767.122 13.166l-.04 13.111-.086-13-.087-13-.04 13-.04 13h9.333l.023-12.833c.013-7.058.023-12.958.023-13.111 0-.167.091-.243.229-.19.152.059.197.003.133-.164-.054-.138-.005-.308.107-.377.13-.081.161-.057.085.066-.066.106-.04.193.057.193s.177-.075.177-.167c0-.092.112-.167.25-.167.137 0 .231-.084.208-.187-.023-.103.063-.226.19-.272.158-.057.19-.011.1.146-.105.186-.087.19.094.022.175-.163 2.964-.209 12.769-.209h12.545l.047-4.514c.026-2.483.034-4.526.019-4.541-.015-.016-5.697.009-12.625.055-6.929.046-12.616.037-12.639-.021-.023-.058-.229-.029-.458.063m83.333-.082l-12.417.042.047 4.499.047 4.499h12.56c11.011 0 12.573.031 12.657.25.052.138.177.25.277.25.1 0 .128-.093.062-.208-.067-.115.075-.002.315.25s.496.456.569.453c.073-.003-.013-.115-.191-.25-.177-.135-.245-.245-.15-.245s.308.15.474.334c.171.189.218.333.109.333-.106 0-.192.073-.192.161 0 .089.121.115.269.059.217-.084.246-.031.149.276-.083.259-.062.343.064.265.106-.065.184.001.184.156 0 .148-.061.231-.136.185-.075-.046-.116.118-.09.365.026.247.075.825.108 1.283l.061.833h-8.555c-4.705 0-8.554-.059-8.554-.131 0-.072-.157-.047-.348.056-.191.102-.39.143-.443.09-.052-.052-.196-.012-.319.091-.166.137-.224.134-.224-.012 0-.108-.076-.15-.169-.092-.093.058-.131.167-.084.242.046.076-.025.18-.159.232-.134.051-.288.021-.342-.066-.054-.088-.188-.154-.297-.147-.135.009-.129.042.019.101.162.065.141.144-.084.315-.373.282-.884.305-.884.039 0-.109-.106-.053-.236.125s-.288.272-.351.209c-.151-.151-.57.239-.458.425.048.078-.056.097-.231.042-.206-.066-.398.01-.546.217-.136.188-.337.277-.495.218-.23-.086-.235-.062-.037.182.197.242.191.281-.042.281-.149 0-.27.066-.27.147 0 .081-.142.184-.315.23-.173.045-.416.295-.541.556-.125.261-.415.568-.644.684-.24.121-.395.325-.364.48.035.178-.017.227-.154.142-.141-.087-.174-.044-.104.139.078.203.016.25-.263.2-.355-.064-.357-.059-.042.178.318.24.318.244-.02.244-.216 0-.343.108-.342.292.002.625-.051.741-.297.647-.197-.076-.235 0-.172.346.084.465-.175.943-.427.787-.081-.05-.075.1.014.334.119.314.108.414-.042.384-.139-.027-.201.213-.194.752.006.435-.04.791-.102.791-.174 0-.096 2.235.081 2.363.093.067.074.211-.048.358-.163.196-.16.265.01.333.165.066.167.09.007.1-.114.007-.208.092-.208.19 0 .097.083.125.185.062.124-.077.147.002.072.24-.064.2-.04.354.054.354.092 0 .133.188.091.417-.041.229.001.417.095.417.093 0 .17.079.17.176 0 .097-.094.129-.209.071-.114-.058-.004.055.245.25.397.312.777 1.295.663 1.715-.019.07.153.2.383.287.23.088.418.203.418.256 0 .054-.075.051-.167-.005-.092-.057-.167-.022-.167.078s.117.227.26.282c.143.055.223.195.178.312-.045.116.031.35.169.52.138.169.195.195.127.058-.081-.163.015-.134.274.083.748.625.847.747.743.915-.059.096.076.168.313.168.229 0 .462.074.518.165.06.097-.022.125-.198.068-.208-.067-.172.009.116.248.23.19.502.347.605.349.103.002.281.116.395.254.114.137.349.25.521.25.172 0 .313.075.313.166 0 .092.056.15.125.13.068-.02.329.1.579.267.251.167.733.322 1.073.345.391.026.652.14.712.31.067.193.165.225.344.111.206-.13.208-.158.014-.16-.13-.002-.197-.042-.149-.09.134-.134.644.104.55.257-.046.073.386.116.959.093.574-.022 6.648-.053 13.499-.068l12.456-.028.044-12.683c.024-6.975-.013-12.717-.083-12.76-.069-.043-.093-.263-.052-.488.041-.225.012-.371-.064-.323-.077.047-.181-.023-.231-.155-.065-.168-.007-.214.19-.152.231.072.223.039-.04-.175-.297-.242-.242-.348.144-.274.084.016.061-.081-.051-.216-.111-.135-.24-.458-.285-.718-.045-.26-.191-.556-.325-.658-.296-.226-.324-.464-.034-.299.114.066.016-.099-.219-.365s-.414-.657-.398-.868c.02-.252-.043-.356-.184-.302-.117.045-.255-.026-.305-.158-.051-.132-.017-.239.076-.239.092 0 .007-.169-.19-.375-.196-.207-.47-.543-.608-.749-.138-.205-.317-.332-.399-.282-.082.051-.149-.081-.151-.293-.002-.309-.034-.336-.164-.135-.139.216-.162.212-.164-.03-.002-.154-.148-.327-.326-.383-.193-.061-.344-.284-.375-.553-.036-.313-.137-.436-.331-.404-.153.025-.324-.028-.38-.118-.056-.09-.211-.122-.345-.07-.136.052-.288-.025-.345-.174-.057-.147-.203-.268-.325-.268-.123 0-.268-.074-.324-.164-.061-.098.014-.121.184-.055.203.078.248.049.156-.1-.071-.115-.26-.175-.42-.134-.16.042-.424.002-.588-.09-.233-.13-.267-.117-.158.064.117.194.095.195-.144.001-.155-.126-.282-.171-.282-.1 0 .072-.15-.006-.334-.173-.184-.166-.383-.253-.443-.194-.06.06-.209.026-.332-.077-.123-.102-.224-.133-.224-.07 0 .064-.12-.004-.268-.152-.214-.213-.317-.226-.512-.064-.194.161-.274.158-.38-.015-.086-.138-.354-.192-.735-.148-.33.039-.62.029-.644-.021-.024-.05-5.632-.072-12.461-.048m-265.842.249c.179.166.201.166.107 0-.073-.128-.018-.209.142-.209.143 0 .26.075.26.167 0 .092.079.167.176.167.097 0 .12-.094.052-.209-.096-.159-.069-.164.115-.021.132.103.401.161.598.129.196-.032.449.052.562.188.112.135.307.246.434.246.126 0 .211.094.188.208-.023.115.052.19.166.167.115-.023.209.038.209.135s.075.13.166.073c.15-.092.239.126.187.459-.011.068.063.125.164.125.103 0 .138.121.08.273-.083.216-.057.234.123.085.295-.245.5-.041.255.255-.15.18-.132.206.084.123.311-.119.365.106.093.378-.131.131-.123.217.026.309.142.088.164.06.072-.09-.091-.148-.07-.178.065-.094.154.095.155.179.006.359-.15.181-.148.235.009.235.113 0 .166.103.117.23-.048.126-.027.502.048.834.081.356.072.644-.019.701-.086.053-.114.231-.061.396.056.178-.003.337-.145.391-.131.051-.289.322-.351.603-.062.282-.186.512-.276.512-.09 0-.117.074-.061.164.056.092-.004.125-.136.074-.13-.05-.283.03-.34.177-.059.156-.033.226.062.167.091-.056.165-.023.165.074 0 .098-.075.186-.167.198-.091.011-.241.039-.333.062-.092.023-.321.051-.51.063-.197.012-.296.096-.233.198.06.098.009.159-.115.134-.343-.066-.992.194-.891.357.049.079-.095.111-.32.07-.225-.041-.456.001-.514.094-.068.111-3.969.154-11.469.128l-11.365-.04L39.5 100.5l11.417-.087-11.287-.04-11.286-.04-.047-4.5-.047-4.5h11.092c8.642 0 11.141.046 11.316.209m221.796.172c-.158.195-.287.264-.287.153 0-.11-.08-.2-.177-.2-.097 0-.124.084-.06.188.071.115.026.156-.115.106-.127-.045-.445.026-.705.157-.26.132-.579.199-.708.149-.13-.049-.235-.013-.235.081 0 .095-.075.125-.167.069-.092-.057-.167-.019-.167.084 0 .115-.145.147-.375.083-.293-.083-.32-.068-.125.069.239.167.219.196-.172.243-.095.011-.244.133-.331.271-.141.222-.159.222-.163 0-.005-.207-.031-.211-.151-.021-.086.136-.233.176-.359.098-.15-.092-.184-.054-.113.13.058.15-.037.385-.222.553-.204.184-.322.217-.322.089 0-.111-.075-.156-.167-.099-.091.056-.166.261-.166.454s-.049.302-.109.243c-.06-.06-.203.021-.32.18-.116.159-.292.299-.391.31-.099.012-.264.03-.366.042-.104.011-.147.174-.096.367.061.234.023.321-.117.267-.254-.098-.685.531-.627.914.023.152-.037.325-.133.384-.096.06-.175.029-.175-.068s-.075-.177-.166-.177c-.204 0-.147.371.083.539.103.076.087.124-.042.125-.114.002-.208.2-.208.44 0 .37-.039.405-.25.23-.296-.246-.339.011-.05.3.156.155.145.2-.048.2-.136 0-.259.151-.273.337-.016.216.046.297.173.225.109-.061.029.053-.177.253-.409.398-.497.613-.167.409.115-.07.077.073-.083.318s-.291.58-.289.743c.002.254.027.261.164.048.113-.175.162-.186.164-.036.002.117-.112.257-.252.311-.209.08-.216.143-.041.355.172.209.172.271-.003.33-.158.053-.167.13-.033.292.128.154.167 2.637.132 8.317-.028 4.454.002 8.098.065 8.098.064 0 .087.15.051.333-.035.183.015.333.111.333s.132.112.08.248c-.053.137-.042.23.024.209.065-.022.131.027.146.108.015.081.128.212.25.289.167.106.17.142.014.144-.316.004-.25.284.157.663.257.239.294.341.125.344-.135.002.009.211.327.474.419.348.51.506.349.605-.153.095-.177.07-.083-.084.09-.145.07-.178-.06-.097-.272.168-.045.475.264.356.189-.072.231-.012.165.239-.048.184-.008.384.089.445.109.067.133.019.062-.125-.064-.129-.019-.093.099.08 1.019 1.49 1.463 1.914 1.919 1.832.355-.064.417-.037.267.114-.269.271-.089.725.194.49.156-.129.234-.083.303.178.069.267.175.325.437.242.189-.06.345-.037.345.051s.116.204.258.259c.158.061.216.03.15-.078-.061-.097.048-.078.241.042.193.121.351.274.351.341 0 .066.112.078.25.025.137-.053.25-.005.25.106 0 .115.112.16.258.103.143-.054.218-.032.167.05-.162.262.898.531 1.283.325.288-.154.326-.14.239.086-.121.315-.044.333.399.096.247-.132.347-.117.416.063.071.184.231.205.706.095.338-.079 6.221-.145 13.073-.147l12.459-.004v-8.833H287c-10.021 0-12.667-.044-12.669-.209-.002-.147-.038-.154-.125-.021-.079.121-.257.137-.498.047-.439-.164-.511-.349-.083-.216.224.069.214.04-.042-.126-.183-.119-.408-.219-.5-.221-.091-.002-.166-.104-.166-.226 0-.122-.138-.322-.305-.445-.255-.186-.273-.283-.109-.59.109-.202.133-.327.055-.279-.078.048-.141-.449-.141-1.105v-1.193h27.166l.035-4.583.034-4.583-13.563.043-13.563.044-.054-1.261c-.031-.694.02-1.343.111-1.443.117-.127.099-.143-.059-.054-.151.086-.131-.015.06-.307.157-.24.364-.388.46-.328.105.064.124.026.048-.097-.069-.112-.231-.163-.359-.114-.534.205-.18-.107.433-.381.366-.164.619-.346.561-.403-.058-.058.053-.075.247-.038.194.038.396-.002.449-.088.059-.095 5.017-.157 12.67-.157h12.574v-9.012l-13.463.02-13.463.02-.287.353M27.958 98.218c-.029 1.209-.052.174-.052-2.301s.024-3.465.052-2.199c.028 1.266.028 3.291 0 4.5M123 100.5l9.083.088-9.125.039-9.125.04v8.666l9.125.04 9.125.039-9.083.088-9.083.088 9.083.039 9.083.04v-9.334l-9.083.04-9.083.039 9.083.088m248.793 8.967c.032 6.75.092 9.021.234 8.933.117-.073.146-.045.073.072-.202.329-16.628.257-17.035-.074-.173-.141-.21-.201-.081-.135.142.074.193.054.129-.049-.058-.094-.332-.264-.609-.379-.277-.115-.505-.312-.506-.439-.037-4.828.019-15.122.083-15.225.048-.079-.006-.181-.122-.227-.119-.048-.074-.09.103-.098.258-.01.276-.056.105-.263-.194-.233-.114-.325.229-.262.08.014.253-.127.385-.314.131-.187.384-.34.562-.34.178 0 .324-.076.324-.169 0-.111 2.712-.153 8.041-.125l8.042.044.043 9.05m-140.168 11.729c-.025 3.513-.046.687-.046-6.279 0-6.967.021-9.841.046-6.388.025 3.454.025 9.154 0 12.667m113.081-11.918c-.021 3.865-.082 7.165-.135 7.333-.087.276-.078.278.085.026.125-.194.167-2.468.136-7.334l-.046-7.053-.04 7.028m-307.998.18c-1.581.027-4.168.027-5.75 0-1.581-.027-.287-.05 2.875-.05 3.163 0 4.457.023 2.875.05m-8.75 13.572c-.026 2.504-.047.503-.047-4.447s.021-6.999.047-4.553c.026 2.446.026 6.496 0 9m303.209-6.877c0 1.093.045 2.105.101 2.25.091.238-.681.264-8 .264-6.369 0-8.102-.045-8.104-.209-.002-.151-.043-.145-.148.022-.172.271-.574.079-.46-.219.043-.113-.026-.218-.155-.233-.129-.015-.346-.041-.482-.056-.188-.021-.203-.081-.059-.254.145-.175.132-.204-.06-.131-.136.052-.352-.035-.482-.194-.206-.253-.201-.276.035-.188.229.086.242.043.086-.288-.101-.214-.222-.365-.27-.335-.047.029-.086-.128-.086-.348 0-.22.094-.401.209-.401.114 0 .208-.079.208-.176 0-.097-.075-.13-.167-.074-.259.16-.196-.3.099-.721.21-.3.313-.338.5-.183.185.154.235.14.235-.061 0-.42.088-.424 8.708-.438l8.292-.013v1.986"/><path fill="#107070" d="M88.917 40.538c-.275.098-.538.229-.584.29-.046.061-.702.285-1.458.498-.756.213-1.375.452-1.375.53 0 .079-.112.144-.25.144-.329 0-.317.409.027.934.373.57.801 1.337 1.223 2.191.192.39.402.708.467.708s.298.392.518.871c.219.479.5.972.624 1.095.123.124.224.323.224.442 0 .657 1.584.563 2.75-.163.184-.114.727-.298 1.209-.409.481-.111.875-.261.875-.333 0-.072.156-.171.348-.222.345-.09.328-.72-.025-.949-.155-.101-1.026-1.652-1.426-2.54-.155-.344-.343-.625-.418-.625-.075 0-.298-.375-.495-.833-.197-.459-.417-.834-.489-.834-.071 0-.208-.225-.304-.5-.19-.547-.537-.618-1.441-.295M85 47.135c0 .074-.469.272-1.042.439-.573.166-1.282.412-1.575.546-.294.134-.856.339-1.25.455-.754.222-1.027.672-.606.997.126.098.371.497.543.886.173.39.36.709.416.709.056 0 .287.393.513.875.226.481.544 1.02.706 1.198.162.177.295.416.295.53 0 .113.094.305.209.426.115.122.357.502.538.846.307.584.952.871 1.114.496.031-.07.656-.312 1.389-.536.733-.224 1.371-.451 1.417-.504.045-.052.402-.198.791-.323.732-.236.988-.813.5-1.125-.114-.073-.358-.433-.541-.8-.183-.367-.427-.766-.542-.887-.114-.121-.208-.293-.208-.383 0-.089-.254-.559-.563-1.043-.31-.484-.615-1.043-.678-1.242-.063-.199-.174-.362-.245-.362-.072 0-.266-.3-.431-.666-.261-.579-.75-.925-.75-.532"/><path fill="#2cb4bc" d="M131.917 28.167c-.068.109 1.192.166 3.656.166 2.396 0 3.76-.06 3.76-.166 0-.106-1.33-.167-3.656-.167-2.259 0-3.697.064-3.76.167m-4.514.125c.069.068.524.125 1.012.125.487 0 .8-.055.694-.123-.254-.161-1.868-.164-1.706-.002m15.331.068c.549.105.874.099.991-.019.122-.121-.125-.169-.817-.156l-.991.019.817.156m-18.651.14c-.267.115-.209.146.292.155.344.006.625-.063.625-.155 0-.199-.454-.199-.917 0m1.217.033c.156.156.244.156.4 0 .156-.155.111-.2-.2-.2s-.356.045-.2.2m20.867-.033c0 .092.281.161.625.155.501-.009.559-.04.291-.155-.463-.199-.916-.199-.916 0m-24.102.12c.066.066.472.142.903.167.559.033.711 0 .532-.118-.285-.187-1.619-.232-1.435-.049m25.531.026c-.049.08.098.146.327.146s.457-.066.507-.146c.049-.08-.098-.146-.327-.146s-.457.066-.507.146m3.063.277c.408.133.805.18.881.104.076-.076.042-.147-.076-.158-.118-.011-.514-.058-.881-.105l-.666-.084.742.243m-32.159.098c-.229.092-.697.171-1.039.176-.343.005-.586.068-.541.141.045.073.325.09.622.038.298-.052.856-.099 1.24-.105.547-.009.66-.057.521-.224-.205-.247-.246-.249-.803-.026m33.368.021c-.135.162.037.213.771.23l.944.023-.75-.228c-.412-.126-.759-.23-.771-.231-.012-.002-.099.091-.194.206m1.799.277c0 .169.426.144.606-.036.064-.064-.047-.116-.245-.116-.199 0-.361.068-.361.152m-38.273.13c.18.18.606.206.606.036 0-.083-.163-.152-.361-.152-.199 0-.309.053-.245.116m39.773.036c0 .17.426.144.606-.036.064-.063-.047-.116-.245-.116-.199 0-.361.069-.361.152M114.3 29.7c.156.156.244.156.4 0 .156-.156.111-.2-.2-.2s-.356.044-.2.2m41.7.009c0 .071.225.112.5.092.275-.021.5-.089.5-.15 0-.062-.225-.103-.5-.092-.275.012-.5.079-.5.15m-42.958.068c-.115.046-.209.162-.209.257 0 .11.086.103.234-.021.18-.149.254-.144.32.022.063.156.09.159.1.012.008-.12.127-.159.29-.097.187.072.238.043.157-.088-.123-.199-.517-.236-.892-.085m44.19.085c-.08.129-.031.16.147.092.146-.056.303-.012.347.097.055.136.085.126.094-.03.011-.184.062-.188.263-.021.144.12.25.136.25.038 0-.353-.902-.498-1.101-.176m1.601.34c0 .072.15.131.334.131.183 0 .333-.059.333-.131 0-.072-.15-.131-.333-.131-.184 0-.334.059-.334.131m-49.391.256c-.042.069.134.125.391.125.258 0 .434-.056.391-.125-.042-.068-.218-.125-.391-.125-.172 0-.348.057-.391.125m-.942.212c-.198.13-.173.154.121.113.204-.029.422-.104.486-.168.177-.176-.324-.132-.607.055m53.247-.008c.058.094.339.171.624.171.639 0 .553-.116-.18-.245-.356-.063-.512-.037-.444.074m2.336.505c-.297.128-.285.144.115.155.247.006.495-.064.552-.155.123-.199-.204-.199-.667 0m-58.726.148c-.157.1-.17.178-.041.257.101.063.184.027.184-.08s.112-.151.25-.098c.138.052.25.023.25-.066 0-.199-.339-.206-.643-.013m60.018-.033c.16.041.292.15.292.24s.083.113.184.05c.225-.139-.14-.409-.518-.383-.177.011-.165.039.042.093m1.857.58c-.068.111-.043.144.061.079.098-.06.207-.023.243.083.035.106.155.162.266.125.128-.042.082-.141-.126-.271-.241-.151-.358-.155-.444-.016m-65.317.307c-.058.094-.193.12-.302.059-.15-.084-.15-.06.001.103.214.231.719.12.719-.159 0-.221-.282-.223-.418-.003m66.918.003c0 .279.506.39.72.159.151-.163.151-.187 0-.103-.108.061-.244.035-.301-.059-.136-.22-.419-.218-.419.003m1 .31c0 .082.1.187.223.234.122.047.222-.02.222-.149 0-.128-.1-.234-.222-.234-.123 0-.223.067-.223.149m-69.883.123c-.232.232-.109.392.258.336.207-.032.361-.125.342-.208-.042-.193-.448-.28-.6-.128m70.915.072c.04.12.171.252.291.292.125.041.188-.021.146-.146-.04-.12-.171-.252-.292-.292-.125-.041-.187.021-.145.146m-72.105.412c-.178.134-.239.244-.135.244.104 0 .236-.076.293-.169.058-.093.16-.136.226-.094.067.041.231.006.364-.078.194-.123.175-.153-.091-.151-.184.002-.479.113-.657.248m72.78-.16c.053.053.234.122.403.154s.307.07.307.084c0 .014.132.05.292.081.161.031.25-.014.197-.099-.052-.085-.16-.114-.239-.066-.079.049-.191.013-.248-.08-.058-.093-.263-.17-.456-.17s-.308.043-.256.096m-76.707 1.238c-.202.13-.178.162.125.164.207.001.375-.073.375-.164 0-.209-.177-.209-.5 0m-.888.43c.056.145.148.202.205.125.057-.076.172-.195.255-.264.083-.068-.01-.125-.205-.125-.257 0-.328.074-.255.264m82.948-.014c.137.138.336.25.44.25.117 0 .094-.097-.059-.25-.138-.137-.336-.25-.441-.25-.116 0-.093.098.06.25m-85.304.643c-.386.164-.435.233-.224.314.161.062.389-.026.562-.218.338-.373.322-.378-.338-.096M179 35.135c0 .224.614.501.823.372.142-.088.043-.188-.307-.31-.284-.099-.516-.127-.516-.062m1.833.691c0 .185 1.133.43 1.286.277.093-.092-.341-.173-.661-.123-.068.011-.125-.055-.125-.147 0-.091-.112-.166-.25-.166-.137 0-.25.071-.25.159m-90.5.674c.138.089.182.163.1.164-.083.002-.037.134.103.294.139.161.295.404.346.542.06.164.096.121.105-.125.007-.206-.053-.375-.134-.375-.081 0-.187-.15-.235-.333-.048-.184-.188-.333-.311-.331-.17.002-.164.041.026.164m92.74.184c-.089.144-.044.174.15.1.152-.059.277-.043.277.036 0 .078.225.175.5.216.578.084.684-.124.125-.245-.206-.045-.499-.134-.65-.198-.156-.066-.33-.027-.402.091m1.639.535c.036.109.147.198.246.198.1 0 .237.056.306.125.163.163.403.16.403-.005 0-.072-.23-.217-.511-.323-.391-.148-.495-.147-.444.005m-93.216 1.224c.094.047.171.187.171.311 0 .125.074.272.164.328.104.064.114-.035.026-.273-.076-.206-.227-.392-.335-.413-.109-.021-.12 0-.026.047m97.613.634c-.049.128.014.209.148.189.359-.053.451-.214.181-.318-.134-.052-.282.007-.329.129M100 39.178c0 .104-.156.135-.375.075-.322-.088-.334-.076-.086.079.208.131.385.131.625.003.399-.214.43-.335.086-.335-.138 0-.25.08-.25.178m.929.136c-.115.185.234.853.444.853.173 0 .162-.061-.105-.577-.13-.249-.28-.372-.339-.276m-8.816.128c-.06.06.052.379.249.709.499.835.564.891.593.51.013-.184-.046-.291-.132-.238-.086.053-.156-.011-.156-.143 0-.131-.112-.332-.248-.445-.137-.113-.208-.273-.157-.354.106-.172.01-.197-.149-.039m98.364.211c.436.385.62.428.772.182.06-.098-.014-.12-.184-.055-.194.075-.248.047-.166-.085.066-.107.047-.195-.042-.195-.09 0-.3-.044-.468-.097-.238-.076-.219-.021.088.25M97 40c0 .092-.112.167-.25.167s-.25.077-.25.172c0 .117.101.119.311.006.172-.092.363-.115.426-.053.063.063.064-.014.004-.172-.122-.318-.241-.377-.241-.12m95.5.392c0 .068 1.653 1.108 1.761 1.108.04 0 .072-.075.072-.167 0-.091-.107-.166-.238-.166s-.339-.101-.462-.224c-.357-.357-1.133-.735-1.133-.551m-97.879.506c-.254.113-.419.248-.367.301.118.118.91-.236.911-.407.001-.069-.017-.119-.04-.112-.023.008-.25.106-.504.218m7.154-.104c-.043.069.027.271.156.448.206.281.236.286.236.04 0-.155-.08-.282-.177-.282-.097 0-.13-.075-.073-.167.056-.091.065-.166.019-.166-.045 0-.118.057-.161.127m-8.649.302c-.064.065-.077.182-.028.261.129.209.696.175.835-.05.081-.131.007-.164-.232-.101-.194.051-.376.02-.405-.067-.029-.088-.106-.107-.17-.043m101.902.553c-.221.137.197.445.514.377.068-.014.125.055.125.155 0 .099.093.149.207.111.113-.038.307.032.43.154.122.123.302.175.399.115.102-.063.011-.196-.22-.32-.218-.117-.453-.176-.523-.133-.069.043-.127-.001-.127-.098s-.106-.177-.236-.177-.261-.072-.291-.161c-.032-.091-.153-.101-.278-.023m-92.861.183c0 .082.149.254.332.382.183.128.283.282.222.343-.06.06-.025.11.079.11.104 0 .149.105.1.233-.049.128-.016.278.074.334.094.058.144-.077.118-.318-.043-.386-.925-1.421-.925-1.084m94.749.835c-.084.136-.069.177.041.11.096-.06.218.004.27.141.113.294.44.334.44.054 0-.107-.049-.145-.109-.086-.06.06-.198-.014-.308-.164-.158-.216-.227-.228-.334-.055m.917.527c0 .107.044.151.098.097.053-.053.222.01.375.141.152.13.344.23.425.222.082-.009.204.074.271.183.085.137.157.143.233.021.063-.102-.177-.325-.556-.518-.773-.395-.846-.407-.846-.146m-94.396.273c-.068.11-.046.2.048.2s.132.102.084.228c-.049.126.017.333.145.461.128.129.276.344.329.48.085.217.097.216.098-.003.002-.462-.573-1.578-.704-1.366m96.969 1.05c-.051.082-.05.159.001.171.222.049.371.101.827.29.793.328.792.134-.001-.253-.404-.196-.776-.29-.827-.208m2.174 1.154c-.055.091.035.213.201.273.166.059.359.138.427.175.069.037.125.006.125-.069 0-.236-.641-.559-.753-.379m1.672.993c-.058.093-.082.175-.054.182.029.007.202.041.385.075.183.034.465.224.625.422.161.198.292.277.292.175v-.268c0-.046-.056-.089-.125-.095-.069-.007-.238-.108-.375-.225-.431-.367-.64-.441-.748-.266m-98.752.824c0 .085.109.264.242.397s.196.288.139.345c-.057.057.022.103.176.103.237 0 .248-.049.071-.333-.115-.183-.27-.333-.345-.333-.075 0-.09-.075-.033-.167.057-.092.024-.167-.073-.167-.098 0-.177.07-.177.155m101.42.919c.398.301.631.329.543.067-.035-.107-.246-.221-.469-.255-.393-.06-.395-.055-.074.188m-100.567.269c-.011.143.09.406.225.584.221.293.245.296.25.032.003-.161-.064-.292-.149-.292-.085 0-.189-.131-.231-.292-.059-.226-.08-.233-.095-.032m42.314.175c-.413.056-1.275.085-1.917.064-.642-.02-.998-.004-.792.036.207.04.375.129.375.199 0 .181.445.18 1.5-.004.504-.088 3.411-.155 6.459-.15 3.833.007 5.541-.045 5.541-.169 0-.191-9.733-.169-11.166.024m11.475.025c.084.084.33.124.547.09.334-.052.31-.076-.153-.152-.331-.055-.486-.031-.394.062m1.025-.014c0 .076.225.138.5.138s.5-.029.5-.064c0-.036-.225-.098-.5-.138-.275-.041-.5-.012-.5.064m46.833.065c0 .138.131.291.292.34.16.05.423.161.583.247.182.097.292.096.292-.001 0-.087-.15-.205-.334-.263-.183-.058-.333-.168-.333-.243 0-.076-.113-.181-.25-.234-.154-.059-.25 0-.25.154M162.833 49c-.321.068-.433.133-.25.147.184.013.633.073.999.133.621.103.647.092.387-.168-.153-.153-.34-.269-.415-.257-.076.012-.4.077-.721.145m-19.093.349c-.051.083.099.151.333.151.511 0 .552-.095.094-.215-.183-.048-.375-.019-.427.064m21.107-.121c.197.173 1.32.269 1.32.113 0-.096-.313-.174-.695-.174-.382 0-.663.027-.625.061m1.653.105c-.195.126-.149.162.208.164.252.002.459-.072.459-.164 0-.21-.341-.21-.667 0m-25.083.167c.463.199 1.043.199 1.166 0 .064-.103-.204-.162-.698-.155-.601.009-.718.048-.468.155m26.583 0c0 .07.308.132.684.137.377.005.633-.042.57-.105-.16-.16-1.254-.187-1.254-.032m1.5-.025c0 .084.169.198.375.253.528.142.625.13.625-.075 0-.1-.094-.147-.208-.106-.115.041-.34.007-.5-.075-.175-.09-.292-.089-.292.003m-29.724.233c.109.177.724.156.724-.024 0-.082-.18-.138-.401-.125-.22.014-.366.081-.323.149m-33.025.127c.056.091-.015.165-.158.165-.143 0-.26.078-.26.173 0 .112.131.104.375-.023.51-.265.508-.262.207-.378-.154-.059-.223-.032-.164.063m31.104.116c-.159.17-.149.216.045.216.136 0 .291-.072.346-.16.054-.087.208-.117.343-.065.134.051.244.011.244-.089 0-.245-.725-.173-.978.098m34.532-.04c.087.261.557.302.557.048 0-.121-.138-.221-.307-.221-.169 0-.282.078-.25.173m-35.989.116c.065.334.436.358.433.029-.002-.237-.035-.254-.147-.079-.101.16-.171.171-.235.038-.062-.13-.078-.126-.051.012m73.658.232c0 .133.137.241.305.241.168 0 .306-.035.306-.077 0-.043-.138-.152-.306-.241-.231-.124-.305-.105-.305.077m-104.699.056c-.159.101-.097.143.212.143.24 0 .478-.065.527-.145.116-.188-.442-.186-.739.002m29.393.014c.427.189.917.209.917.038 0-.073-.282-.144-.625-.159-.49-.021-.553.006-.292.121m40.174.017c.053.085.366.154.697.154.749 0 .612-.178-.194-.253-.338-.032-.557.011-.503.099m-70.336.313c-.054.088-.19.125-.302.082-.112-.043-.296.07-.409.251-.172.276-.165.314.042.234.136-.052.248-.166.248-.254 0-.087.057-.123.127-.08.069.043.271-.027.448-.157.177-.129.237-.235.133-.235-.104 0-.233.072-.287.159m72.912.008c0 .091.206.165.458.164.357-.002.403-.038.209-.164-.326-.211-.667-.211-.667 0m33.638.256c.193.293.479.506.679.506.366 0 .266-.202-.145-.292-.134-.03-.384-.204-.556-.387-.271-.29-.268-.267.022.173m-79.971-.09c0 .092-.221.167-.49.167-.27 0-.542.083-.605.185-.081.131.088.151.578.068.381-.064.803-.133.939-.153.568-.084.657-.433.111-.433-.293 0-.533.075-.533.166m47.833 0c-.138.089-.213.169-.167.177.046.009.21.04.364.07.183.035.249-.027.19-.18-.105-.275-.074-.269-.387-.067m1.25.334c-.057.091.056.166.25.166s.307-.075.25-.166c-.057-.092-.169-.167-.25-.167-.081 0-.193.075-.25.167m.75.125c0 .068.18.125.401.125.22 0 .366-.057.323-.125-.042-.069-.223-.125-.401-.125-.177 0-.323.056-.323.125m-78.917.169c-.229.169-.287.539-.083.539.092 0 .167-.121.167-.268 0-.173.091-.233.258-.168.149.057.216.029.157-.066-.12-.194-.27-.205-.499-.037m25.181.021c-.564.088-.617.131-.39.318.18.148.298.16.373.039.06-.098.174-.138.253-.089.079.049.191.011.25-.083.059-.095.176-.129.262-.077.085.053.155.017.155-.08s-.057-.166-.125-.153c-.069.013-.419.069-.778.125m55.903.195c0 .157.521.357.635.244.048-.048-.005-.088-.117-.088-.113 0-.166-.062-.119-.139.047-.076-.023-.138-.157-.138-.133 0-.242.054-.242.121m.959.1c.115.047.16.165.099.263-.064.104-.031.13.079.061.104-.064.342-.035.528.065.245.131.42.131.629 0 .254-.16.246-.17-.062-.087-.211.057-.436-.006-.563-.159-.115-.139-.37-.247-.565-.24-.195.007-.26.051-.145.097m-59.049.4c-.053.086.053.156.237.156.434 0 .593-.257.178-.288-.175-.013-.362.046-.415.132m-2.026.43c-.072.188-.13.202-.222.052-.133-.214-.496-.08-.496.184 0 .249.605.182.832-.091.113-.137.267-.21.342-.164.075.046.174.023.22-.051.046-.074-.066-.146-.247-.159-.182-.014-.375.089-.429.229m63.532-.102c.445.184.958.197.849.021-.048-.078-.333-.145-.634-.15-.443-.007-.484.018-.215.129m1.112.162c.051.155.469.319 1.105.434.563.101.99.13.949.065-.04-.066-.424-.168-.853-.226-.428-.059-.893-.201-1.031-.315-.207-.171-.238-.164-.17.042m26.805.51c.229.202.396.438.371.524-.025.086.031.11.125.052.286-.177.195-.334-.371-.646l-.542-.298.417.368m-23.255.331c-.159.257.058.422.272.208.12-.12.123-.213.009-.283-.093-.058-.22-.024-.281.075m-73.073.447c-.218.246-.212.263.055.16.165-.063.332-.115.37-.115.038 0 .07-.075.07-.167 0-.245-.216-.192-.495.122m97.495.191c0 .081.224.24.498.353.273.114.449.284.39.379-.059.097-.026.124.076.061.1-.062.259.02.354.182.094.163.174.226.177.142.002-.085.192.022.421.237.23.215.415.322.413.237-.009-.34-2.329-1.925-2.329-1.591m-99.924.365c-.06.098-.065.223-.01.278.055.055.1.012.1-.095s.08-.194.177-.194c.097 0 .123.087.057.192-.073.12-.045.148.074.074.106-.065.192-.19.192-.276 0-.215-.454-.198-.59.021m78.658.015c-.074.119-.046.147.073.073.106-.065.193-.048.193.038 0 .206.707.389.87.226.069-.069-.041-.138-.245-.154-.204-.015-.397-.106-.428-.202-.077-.23-.315-.221-.463.019m1.794.474c.102.309.638.436.638.151 0-.114-.049-.157-.109-.097-.061.06-.223.017-.361-.097-.205-.169-.236-.162-.168.043m-82.528.192c0 .089-.075.115-.167.058-.092-.057-.167-.019-.167.083 0 .103-.075.14-.166.084-.092-.057-.167-.026-.167.068s-.131.129-.292.077c-.236-.076-.246-.061-.05.077.165.117.345.115.573-.007.183-.098.524-.229.758-.292.419-.112.42-.115.051-.211-.205-.054-.373-.025-.373.063m-12.495.1c.011.258.45.698.579.58.075-.067.082.028.016.211-.099.276-.082.295.098.114s.16-.263-.115-.47c-.183-.138-.315-.32-.292-.405.023-.086-.033-.155-.125-.155-.091 0-.164.056-.161.125m10.751.531c-.053.086-.226.16-.385.164-.684.02-.886.086-1.147.375-.265.293-.255.298.25.122.289-.101.566-.248.615-.326.048-.079.186-.106.306-.06s.314-.032.432-.174c.117-.141.171-.257.12-.257-.052 0-.138.07-.191.156M198.75 56c.057.092.216.167.353.167.138 0 .204-.075.147-.167-.057-.092-.216-.167-.353-.167-.138 0-.204.075-.147.167m19.344-.017c-.051.082.031.196.181.253.324.125.468.022.315-.225-.134-.217-.371-.23-.496-.028m-17.922.343c-.282.179.371.491 1.14.545.241.018.493.11.56.205.079.112.124.098.125-.04.004-.266-.414-.407-1.549-.522-.074-.008-.088-.089-.031-.181.126-.205.071-.206-.245-.007m-98.233.138c-.046.074-.024.232.049.35.103.167.154.157.232-.045.104-.273-.138-.537-.281-.305m7.644.203c-.183.068-.389.092-.458.052-.069-.039-.125.016-.125.123 0 .177.787.093.986-.106.148-.148-.085-.188-.403-.069m109.49.144c.269.185.56.293.646.24.177-.11-.102-.288-.719-.46-.393-.11-.388-.097.073.22m-111.386.414c-.124.15-.083.212.152.23.395.029.58-.22.256-.344-.131-.05-.314.001-.408.114m-5.02.426c.137.098.191.178.12.18-.158.003.312.941.544 1.084.091.057.298.019.459-.084.259-.166.25-.178-.082-.108-.248.052-.375 0-.375-.155 0-.129-.079-.235-.176-.235-.097 0-.13-.075-.074-.166.057-.092.024-.167-.073-.167s-.158-.084-.135-.187c.023-.104-.071-.222-.208-.263-.223-.067-.223-.056 0 .101M220 57.652c.137.077.438.191.667.251l.416.111-.416-.251c-.229-.138-.53-.252-.667-.252-.222-.001-.222.015 0 .141m-114.404.459c-.047.122-.238.222-.424.222s-.339.076-.339.169c0 .099.251.064.604-.083.332-.139.632-.252.667-.252.034 0 .063-.063.063-.139 0-.228-.479-.158-.571.083m99.487.057c-.057.092.016.214.164.27.319.123.497-.012.343-.26-.138-.224-.372-.229-.507-.01m.855.297c-.056.092.015.212.16.268.408.156.766.118.65-.069-.057-.093-.183-.121-.278-.062-.096.059-.231.015-.301-.098-.08-.13-.166-.144-.231-.039m1.229.705c0 .069.187.16.416.204.23.044.417.024.417-.044 0-.069-.187-.16-.417-.204-.229-.044-.416-.024-.416.044m15.384.219c.064.168.116.336.116.375 0 .038.117.069.26.069.142 0 .221.063.174.139-.048.077.023.139.156.139.303 0 .334.056-.289-.528-.365-.343-.496-.404-.417-.194m-14.276.07c-.14.226.82.525 1.083.338.171-.123.155-.139-.066-.068-.162.052-.292.009-.292-.095s-.049-.14-.11-.08c-.06.06-.203.032-.318-.064-.115-.095-.249-.109-.297-.031m1.558.871c.283.187.784.231.607.055-.063-.064-.282-.139-.486-.168-.294-.041-.319-.017-.121.113m13.834.041c0 .304.295.556.459.392.057-.057-.023-.231-.178-.386-.259-.26-.281-.26-.281-.006m-12.262.418c.022.147.159.284.306.306.313.046.21-.359-.124-.487-.134-.052-.205.02-.182.181m12.941.253c-.007.16.056.291.14.291.084 0 .361.221.615.49.415.44.885.559.64.163-.053-.087-.167-.115-.253-.062-.085.053-.155-.021-.155-.164 0-.143-.117-.26-.26-.26-.142 0-.213-.075-.156-.167.056-.091-.008-.166-.143-.166-.136 0-.284-.094-.33-.209-.051-.124-.09-.091-.098.084m-9.846 1.202c0 .106 1.214.923 1.372.923.07 0 .128-.075.128-.167 0-.092-.15-.167-.333-.167-.184 0-.315-.09-.292-.2.023-.111-.046-.205-.153-.209-.107-.004-.25-.064-.319-.132-.138-.138-.403-.17-.403-.048m12.074.846c.177.134.436.243.575.243.38 0-.01-.326-.495-.414-.388-.07-.391-.063-.08.171m-10.345.036c.137.23 1.104.774 1.104.622 0-.052.166.06.369.25.204.189.461.308.573.265.112-.042.24-.005.285.084.045.089.062.066.038-.051-.024-.117-.175-.213-.335-.214-.16-.001-.387-.132-.504-.292-.117-.159-.32-.29-.452-.29s-.33-.09-.44-.2c-.11-.11-.2-.138-.2-.063 0 .075-.127.034-.282-.092-.195-.157-.243-.163-.156-.019m11.104.535c0 .095.08.172.177.172.097 0 .135.067.084.15-.051.082.031.196.181.253.568.218.47-.26-.118-.574-.222-.12-.324-.12-.324-.001m-8.166 1.082c0 .038.437.291.972.563.658.334.972.424.972.277 0-.12-.09-.183-.201-.141-.11.042-.247-.044-.304-.193-.057-.149-.179-.223-.271-.166-.093.057-.168.011-.168-.101s-.046-.159-.101-.104c-.055.056-.28.032-.5-.051-.22-.084-.399-.121-.399-.084m10.375.951c.252.092.458.271.458.397 0 .25.637.661.788.509.052-.051-.086-.165-.305-.253-.22-.087-.332-.164-.249-.17.319-.022-.471-.676-.801-.664-.292.011-.274.041.109.181m-8.127.277c.062.062.182.122.266.133.084.012.19.04.236.063.046.023.177.054.291.07.115.015.194.106.176.201-.018.095.076.173.209.173.2 0 .195-.051-.029-.299-.149-.164-.318-.293-.376-.286-.057.008-.142-.001-.188-.019-.271-.106-.68-.131-.585-.036m9.726 1.362c.275.275.585.5.689.5.104 0 .143.075.087.167-.057.092-.019.167.083.167.102 0 .132.087.066.195-.08.128-.032.161.14.095.173-.067.291.014.35.238.048.186.167.29.264.23.1-.062.14-.015.093.108-.046.12.086.323.293.452.333.208.353.206.17-.015-.113-.138-.171-.286-.127-.33.099-.099-1.435-1.569-1.589-1.523-.062.019-.211-.15-.331-.375-.12-.225-.324-.409-.453-.409-.143 0-.039.196.265.5m-7.164.173c.431.359.69.419.69.161 0-.092-.113-.167-.25-.167-.138 0-.25-.075-.25-.167 0-.091-.132-.164-.292-.161-.245.005-.228.059.102.334m9.69 2.142c0 .192.73 1.019.9 1.019.061 0 .03-.152-.069-.338-.1-.186-.253-.294-.34-.24-.087.053-.158-.015-.158-.153 0-.137-.075-.296-.167-.353-.091-.056-.166-.027-.166.065m-5.598.223c-.067.117-.063.159.009.093.073-.065.4.101.726.371.327.269.636.443.687.388.051-.056-.004-.136-.122-.178-.118-.042-.431-.259-.696-.482-.362-.304-.512-.352-.604-.192m6.598 1.088c0 .092.112.26.25.374.139.116.25.134.25.041 0-.092-.113-.26-.25-.374-.14-.116-.25-.134-.25-.041m-3.913.534c-.06.097.012.222.159.279.367.14.481-.014.189-.256-.164-.137-.273-.144-.348-.023m4.913.602c0 .17.091.239.239.182.131-.05.276-.002.32.107.062.152.084.151.094-.003.007-.111-.137-.283-.32-.381-.27-.145-.333-.127-.333.095m-3.75.405c.575.381.809.423.705.125-.04-.115-.191-.188-.335-.162-.144.025-.309-.031-.368-.125-.058-.094-.195-.171-.304-.17-.109 0 .027.15.302.332m4.774.569c.1.222.323.439.495.484.25.066.221-.015-.145-.402-.554-.588-.584-.595-.35-.082m-2.959.626c-.081.131-.029.16.157.089.18-.07.278-.022.278.135 0 .133.183.287.407.344.224.056.441.226.481.378.066.248.075.247.092-.01.011-.157-.149-.375-.355-.483-.207-.108-.435-.298-.509-.422-.163-.278-.39-.29-.551-.031m3.822.282c.167.065.298.173.292.238-.007.065.025.118.071.118h.187c.057 0 .01-.112-.104-.25-.114-.137-.33-.244-.479-.238-.224.01-.218.032.033.132m.547.927c.118.306.526.462.656.251.056-.09.002-.143-.12-.117-.121.025-.202-.048-.179-.163.023-.115-.068-.208-.203-.208-.143 0-.207.098-.154.237m.899.469c0 .314.943 1.617 1.224 1.69.258.068.223-.022-.175-.447-.274-.293-.622-.718-.774-.945-.151-.226-.275-.361-.275-.298m-2.167.437c0 .221.756.857 1.011.85.132-.004.031-.12-.224-.258s-.424-.315-.376-.392c.048-.078-.025-.185-.162-.237-.137-.053-.249-.036-.249.037M238 76.946c0 .023.137.116.306.206.227.121.305.105.305-.065 0-.126-.137-.218-.305-.206-.169.013-.306.042-.306.065m2.333.458c0 .038.37.466.823.95.452.484.795.924.762.978-.033.053.083.097.259.097.269 0 .239-.073-.189-.465-.28-.255-.448-.464-.375-.464.073 0-.072-.191-.323-.423-.251-.233-.457-.496-.457-.584 0-.088-.112-.16-.25-.16-.137 0-.25.032-.25.071m-1.166.429c.229.18.491.322.583.317.092-.005.064-.05-.061-.1-.191-.076-.191-.116 0-.253.174-.124.159-.14-.064-.068-.16.052-.292.021-.292-.068 0-.088-.131-.159-.291-.157-.237.003-.213.065.125.329m-57.422.039c-.045.116-.061 11.386-.038 25.045l.043 24.833h9.333l.043-13.542.043-13.541h7.905c5.091 0 7.943-.06 8.009-.167.068-.11-2.609-.167-7.906-.167-6.296 0-8.011.045-8.013.209-.002.152-.035.156-.125.015-.067-.105-.102 5.932-.078 13.417l.045 13.609-4.503-.047-4.503-.046V78.01l4.498-.046 4.499-.047.043 6.75.043 6.75 7.917-.086 7.917-.086-7.873-.039-7.874-.039-.043-6.709-.044-6.708-4.629-.044c-3.613-.035-4.647.002-4.709.166m190.023.058c-.056.145-.101 3.183-.101 6.75v6.487l-7.875.039-7.875.039 7.916.086 7.917.086.044-6.703.043-6.704 4.457-.046 4.456-.047v49.666l-12.417-.021c-6.829-.011-12.641.036-12.916.106-.275.069 5.35.135 12.5.146l13 .019V77.667h-4.524c-3.972 0-4.536.032-4.625.263m-131.835.338c-.065.168-.073.26-.018.206.055-.055.364.135.688.422.324.286.627.497.675.468.047-.029.195.083.33.25.225.279.229.273.059-.077-.101-.209-.255-.336-.342-.282-.087.054-.158-.023-.158-.172 0-.148-.057-.234-.127-.191-.166.103-.602-.227-.819-.619-.165-.299-.175-.299-.288-.005m2.482 1.568c-.058.093-.182.122-.276.063-.105-.064-.098.032.017.248.104.194.247.353.318.353.072 0 .29.149.486.332.207.193.398.263.458.166.056-.09.022-.165-.075-.165s-.176-.11-.176-.244c0-.16-.097-.208-.278-.139-.202.078-.24.047-.139-.117.101-.163.063-.194-.139-.117-.324.125-.365-.062-.078-.349.11-.11.152-.2.094-.2-.059 0-.154.076-.212.169M19 82.333c0 .209 32.264.209 32.75 0 .189-.081-6.825-.148-16.208-.155-10.925-.007-16.542.045-16.542.155m49.75 0c.068.11 7.78.167 22.593.167h22.49v8.833l-9.041.04-9.042.041 8.833.047c4.859.026 9.002.007 9.209-.043l.375-.091v-9.16h-22.76c-15.131 0-22.725.056-22.657.166m63.333 0c.068.11 7.753.167 22.674.167h22.571l.048 4.542.049 4.541-.004-4.666-.004-4.667-22.719-.042c-15.168-.028-22.684.013-22.615.125m-78.666.298c.183.18.393.292.465.25.073-.042.244.016.379.128.136.113.295.158.353.1.058-.059.187-.043.287.035.297.23.925.336 1.025.174.086-.139-.195-.216-.718-.196-.114.004-.208-.062-.208-.148 0-.085-.094-.14-.208-.122-.203.033-.43-.034-1.292-.38-.416-.166-.416-.166-.083.159m15.122 4.327l.044 4.459 9.041.043 9.041.043.043 18.123.042 18.124 4.636.044c3.108.03 4.602-.011 4.532-.125-.066-.107-1.707-.169-4.511-.169H87v-18.083c0-9.946-.056-18.075-.125-18.064-.069.011-4.156.011-9.083 0l-8.959-.02v-4.416c0-2.881-.059-4.417-.169-4.417-.112 0-.154 1.52-.125 4.458M57.167 84.01c0 .097.075.13.166.073.092-.056.167-.023.167.074s.084.176.187.176c.129 0 .123-.077-.02-.25-.241-.29-.5-.328-.5-.073m1.389.914c0 .125.056.193.124.151.069-.042.154.01.189.116.035.106.165.159.287.118.152-.05.091-.16-.189-.344-.328-.215-.411-.223-.411-.041m.866.735c-.06.096-.085.18-.057.187.314.075.848.15.792.111-.041-.028-.198-.146-.35-.262-.188-.143-.312-.155-.385-.036m1.25 1.133c.01.229.443.704.547.6.135-.134-.184-.725-.392-.725-.088 0-.158.056-.155.125m1.286 1.652c.115.046.209.228.209.403 0 .176.15.47.333.653.183.183.322.352.309.375-.014.023.029.21.094.417.148.463.432.501.312.041-.048-.183-.158-.333-.244-.333-.087 0-.108-.081-.047-.179.061-.098-.06-.361-.269-.583-.209-.223-.32-.405-.247-.405.073 0 .039-.112-.075-.25-.114-.137-.292-.244-.395-.237-.118.009-.111.045.02.098m1.264 2.607c0 .125.102.227.227.227.253 0 .209-.309-.057-.397-.093-.031-.17.045-.17.17m170.445.241c0 .113 8.852.112 20.583-.003 2.475-.025-1.144-.062-8.042-.083-6.898-.022-12.541.017-12.541.086m40.666 0c0 .113 9.029.112 20.75-.003 2.475-.025-1.181-.062-8.125-.083-6.943-.022-12.625.017-12.625.086m35.888 0c3.467.025 9.092.025 12.5 0 3.407-.026.571-.046-6.304-.046s-9.664.02-6.196.046m-276.513.166c3.094.026 8.157.026 11.25 0 3.094-.025.563-.046-5.625-.046-6.187 0-8.718.021-5.625.046m107.25 0l9.041.045.042 18.123.042 18.124 4.334.047c2.383.026 4.502.005 4.708-.045l.375-.092V91.503l8.875-.045 8.875-.046-9 .002-9 .003-.042 18.036-.043 18.037-4.457.046-4.458.047V91.417l-9.167-.003-9.166-.002 9.041.046m67.646.046c.094.094.334.202.534.24.2.039.457.127.571.195.133.08.123.021-.027-.165-.13-.159-.336-.251-.459-.203-.123.047-.223.013-.223-.076s-.128-.162-.283-.162c-.194 0-.229.055-.113.171m23.323.012c.082.133.847.099.99-.044.046-.046-.176-.083-.493-.083s-.541.057-.497.127M27.906 95.917c0 2.475.023 3.51.052 2.301.028-1.209.028-3.234 0-4.5s-.052-.276-.052 2.199m23.927-4.233c0 .063.117.158.259.213.148.057.215.029.157-.066-.056-.09-.026-.164.066-.164.093 0 .228.093.302.208.27.422.661.642.661.372 0-.136-.091-.247-.202-.247-.111 0-.291-.107-.4-.239-.196-.236-.843-.295-.843-.077m11.71-.074c-.156.063-.146.144.043.333.138.138.201.331.14.43-.066.106-.032.13.082.059.132-.081.142-.214.032-.42-.089-.166-.114-.349-.056-.407.118-.118.061-.117-.241.005m195.329 4.265l-.039 4.458-12.625.02c-6.943.011-12.713.009-12.82-.004-.108-.014-.243.051-.299.143-.069.111 4.225.169 12.825.173 10.339.004 12.945-.037 13.01-.207.045-.117.06-2.2.034-4.627l-.047-4.414-.039 4.458m12.253-4.09c-.435.145-.792.328-.792.406 0 .206.355.165.825-.096.225-.124.518-.184.653-.132.157.06.201.024.123-.101-.066-.108-.047-.195.042-.195.09 0 .188.067.218.15.031.083.153.045.271-.083.296-.323-.288-.3-1.34.051m32.914 4.257l-.039 4.625h12.667c8.333 0 12.666-.057 12.666-.167 0-.11-4.304-.167-12.58-.167h-12.581l-.047-4.458-.047-4.458-.039 4.625m27.294-4.365c0 .097.07.133.155.08.086-.053.203-.018.262.076.059.095.184.124.279.066.112-.069.093-.158-.053-.251-.313-.198-.643-.183-.643.029m-100.666.166c0 .097-.058.141-.127.098-.07-.043-.314.033-.542.168-.28.167-.307.212-.081.138.183-.06.477-.138.654-.174.451-.091.744-.406.379-.406-.156 0-.283.079-.283.176m101.8.174c.119.128.288.242.375.254.087.011.177.036.2.055.023.019.221.055.441.079.373.04.379.028.093-.181-.169-.123-.398-.224-.511-.224-.112 0-.342-.049-.51-.108-.255-.09-.269-.07-.088.125m-62.838.378c-.125.125-.393.28-.595.344-.202.064-.365.243-.362.397.004.254.021.253.177-.015.094-.162.231-.258.303-.214.072.045.284-.061.472-.236.187-.175.386-.272.442-.217.055.056.101.014.101-.093 0-.262-.259-.246-.538.034m81.486.014c-.133.133-.288.195-.345.139-.057-.057-.103-.016-.103.091 0 .266.26.244.551-.048.133-.133.301-.189.372-.125.072.065.076.024.01-.091-.152-.264-.19-.261-.485.034m-297.601.008c-.007.091.172.391.398.666.225.275.412.407.415.292.004-.115-.069-.208-.16-.208-.092 0-.158-.057-.147-.125.051-.322-.034-.553-.172-.467-.084.051-.191 0-.237-.116-.047-.115-.09-.134-.097-.042m158.414.262c.203.224.337.276.38.148.036-.109-.037-.264-.163-.344-.416-.263-.535-.155-.217.196m16.318.159c-.165.182-.25.38-.189.441.06.06.11.022.11-.085 0-.107.108-.194.24-.194.292 0 .488-.276.285-.401-.081-.05-.282.058-.446.239m106.459.193c.083.249.462.386.462.167 0-.089-.119-.208-.264-.264-.163-.062-.239-.025-.198.097m14.218.703c-.378.318-.574.589-.471.653.097.06.218-.047.268-.239.05-.193.171-.299.27-.238.098.061.224-.006.279-.148.054-.143.161-.222.237-.175.076.047.182.014.235-.073.247-.4-.233-.27-.818.22m-294.319.049c.045.251.152.541.238.644.085.103.1.248.032.323-.068.075-.024.079.099.008.15-.087.168-.184.055-.297-.093-.093-.129-.272-.08-.398.048-.126 0-.23-.107-.23s-.151-.069-.098-.155c.053-.085.024-.199-.063-.253-.093-.058-.125.091-.076.358m213.271-.241c.023.114-.052.189-.167.166-.114-.023-.208.083-.208.234 0 .25.032.247.329-.022.182-.164.29-.363.241-.442-.132-.213-.243-.176-.195.064M64.013 94.625c.014.838.038.825.297-.167.132-.505.118-.625-.073-.625-.173 0-.233.213-.224.792m202.929-.487c-.151.168-.275.393-.275.5 0 .107-.108.195-.24.195-.133 0-.283.069-.335.152-.168.272.448.08.656-.204.111-.152.241-.236.289-.188.049.048.125-.103.169-.336.097-.506.089-.509-.264-.119m69.225-.095c0 .147.145.314.322.37.178.057.357.23.398.386.061.234.078.238.094.022.01-.145-.168-.439-.398-.654-.331-.312-.416-.337-.416-.124m-121.831.406c-.002.109.218.329.488.489.27.159.447.37.392.468-.054.097.003.083.128-.033.224-.208-.159-.657-.575-.672-.082-.003-.212-.106-.289-.228-.097-.153-.142-.16-.144-.024m122.836.593c-.003.16.061.273.143.25.081-.023.381.25.666.606.286.356.517.581.514.5-.011-.313-1.318-1.654-1.323-1.356m-111.794.058c.056.056-.101.277-.347.492-.419.366-.424.385-.075.297.206-.051.337-.152.293-.224-.044-.071.032-.173.169-.226.294-.113.334-.439.054-.439-.107 0-.149.045-.094.1m121.7.408c-.158.257.059.422.273.208.119-.12.122-.213.008-.283-.093-.058-.219-.024-.281.075m-292.043.575c.007.275-.028.613-.078.75-.268.734-.271.816-.022.72.14-.053.209-.206.155-.346-.053-.137-.033-.333.044-.436.076-.103.083-.413.014-.688l-.125-.5.012.5m161.167.65c.118.127.272.197.342.155.191-.116-.027-.388-.31-.388-.203 0-.209.042-.032.233m48.753-.132c-.067.067-.122.236-.122.377 0 .187.05.206.186.07.102-.102.156-.272.121-.377-.035-.106-.118-.137-.185-.07m73.484.315c.053.137.163.207.245.157.235-.146.174-.406-.095-.406-.149 0-.208.097-.15.249m-114.351.091c.04.065-.114.319-.341.564-.41.442-.568.877-.247.679.092-.057.167-.211.167-.343 0-.132.066-.24.147-.24.081 0 .262-.175.402-.389.208-.317.213-.389.027-.389-.126 0-.196.053-.155.118m121.772.418c-.106.233-.193.463-.193.511 0 .18.572-.492.604-.709.055-.379-.205-.254-.411.198m-6.946.077c.013.175.14.453.283.617.143.164.229.382.191.485-.038.104.051.234.197.29.183.071.226.038.137-.104-.071-.114-.152-.357-.18-.54-.029-.183-.124-.358-.213-.389-.09-.03-.162-.157-.162-.282 0-.124-.063-.264-.139-.311-.076-.047-.127.058-.114.234m-274.878.334c-.007.277.056.46.142.407.194-.12.206-.91.014-.91-.078 0-.148.227-.156.503m200.288-.151c-.136.254-.138.401-.006.533s.182.061.182-.254c0-.24.094-.474.208-.52.157-.064.159-.088.006-.098-.111-.007-.287.145-.39.339m-47.372.148c.048.184.146.334.219.334.072 0 .092-.15.044-.334-.048-.183-.146-.333-.219-.333-.072 0-.092.15-.044.333m128.481.474c-.058.094-.024.22.075.282.257.158.422-.059.208-.273-.12-.12-.213-.123-.283-.009m-291.325.271c-.051.135-.01.296.092.359.112.069.138.039.066-.078-.065-.106-.04-.192.057-.192.098 0 .177-.075.177-.167 0-.255-.286-.198-.392.078m169.059.389c0 .201-.075.366-.167.366-.092 0-.167.075-.167.167 0 .092.125.167.278.167.153 0 .229-.05.168-.11-.06-.06-.023-.213.082-.34.144-.174.144-.279-.001-.424-.147-.146-.193-.104-.193.174m121.938.241c-.148.555-.127.792.073.792.102 0 .133-.142.072-.333-.063-.199-.03-.334.082-.334.103 0 .145-.068.093-.152-.051-.084 0-.191.116-.237.134-.054.111-.089-.063-.098-.15-.007-.318.156-.373.362m-291.759.146l-.404.33.466-.085c.564-.102.704-.221.498-.423-.095-.093-.315-.023-.56.178m164.05-.127c.032.217.604.889.604.709 0-.048-.087-.278-.193-.511-.206-.452-.467-.577-.411-.198m46.249.092c-.011.054-.038.256-.059.45-.021.194-.092.456-.158.583-.066.127-.004.089.138-.085.141-.174.214-.385.162-.469-.052-.085.035-.249.194-.365.258-.188.26-.211.017-.211-.15 0-.282.044-.294.097m-40.922.776c-.055.143-.023.338.072.433.118.118.164.037.147-.261-.029-.5-.079-.539-.219-.172m-159.244.155c-.011.046-.031.14-.044.208-.013.069-.083.219-.156.334-.075.118-.056.208.044.208.159 0 .205-.124.163-.44-.008-.058.086-.17.208-.247.167-.106.17-.142.014-.144-.114-.001-.217.035-.229.081m-23.979.25l-11.417.087 11.365.04c7.441.026 11.401-.018 11.469-.127.056-.092.079-.149.051-.127-.028.022-5.189.079-11.468.127m74.333.042c0 .068 4.088.125 9.084.125H132v8.666h-9.083c-4.996 0-9.084.057-9.084.125 0 .069 4.125.088 9.167.042 6.033-.055 9.191-.026 9.237.083.038.092.07-1.971.07-4.583s-.032-4.675-.07-4.583c-.046.109-3.204.138-9.237.083-5.042-.046-9.167-.027-9.167.042m160.584-.042c-.069.111 4.165.167 12.573.167 8.34 0 12.677-.057 12.677-.167 0-.11-4.303-.167-12.574-.167-8.202 0-12.609.058-12.676.167m81.25-.002c0 .111 2.727.169 8 .169h8v17.66l-8.179.045c-4.498.025-8.305-.016-8.458-.091-.204-.099-.195-.067.035.119.408.329 16.833.399 17.035.072.073-.117.044-.145-.073-.072-.142.088-.202-2.183-.234-8.933l-.043-9.05-8.042-.044c-5.329-.028-8.041.014-8.041.125m-137.688.044c-.096.185-.049.958.058.958.074 0 .118-.225.097-.5-.034-.44-.086-.594-.155-.458m126.848.25c-.009.163-.009 16.895 0 17.166.003.115.086.209.183.209s.132-.073.077-.161c-.127-.205-.123-16.98.004-17.186.053-.084.016-.153-.081-.153s-.18.056-.183.125m-71.869.303c-.646.351-.573.472.084.138.628-.319.739-.402.527-.393-.084.004-.359.119-.611.255m57.348-.115c.122.077.212.207.199.289-.012.081.113.175.278.209.281.057.28.039-.017-.292-.175-.194-.4-.352-.5-.35-.102.001-.084.065.04.144m-267.29.418c-.119.142-.135.278-.042.336.087.054.205-.025.262-.175.142-.369.023-.455-.22-.161m145.502-.065c-.008.348.415 1.078.521.898.047-.081.026-.298-.048-.481s-.145-.258-.158-.167c-.013.092-.088.017-.166-.166-.093-.217-.146-.246-.149-.084m14.046.259c.054.142.101 6.105.105 13.25l.006 12.991h8.984l-.036-12.708-.036-12.708-.044 12.541-.045 12.542h-8.665v-13.083c0-9.454-.051-13.084-.184-13.084-.102 0-.14.117-.085.259m-159.944.838c-.224.299-.238.374-.055.304.133-.051.288-.211.343-.354.156-.406.037-.386-.288.05m155.507 12.32l.044 12.75h-9.175l.044-12.5c.024-6.875-.013-12.5-.083-12.5-.069 0-.107 5.681-.083 12.625l.043 12.625h9.333l.043-12.875c.023-7.081-.014-12.875-.084-12.875-.069 0-.106 5.737-.082 12.75m45.042-4.968c.002 4.522.067 7.737.161 7.885.101.159.161-2.557.167-7.531.005-5.096-.05-7.816-.161-7.884-.114-.071-.168 2.403-.167 7.53m77.205 5.093l-.041 12.625-12.541.02c-6.898.011-12.767.077-13.042.147-.275.07 5.371.136 12.547.147 10.299.015 13.064-.025 13.126-.189.044-.115.06-5.871.036-12.792l-.044-12.583-.041 12.625m-63.124-9.92c12.609.115 22.378.117 22.308.003-.043-.068-6.167-.107-13.61-.086-7.442.022-11.356.059-8.698.083m36.917.003c0 .069 3.862.125 8.583.125s8.583-.056 8.583-.125c0-.068-3.862-.125-8.583-.125s-8.583.057-8.583.125m-2.167.375c0 .092-.192.167-.427.167-.283 0-.386.066-.305.195.081.131.029.16-.157.089-.153-.059-.278-.034-.278.055 0 .217.556.205.779-.017.155-.156.493-.267.94-.309.232-.022-.059-.346-.312-.346-.132 0-.24.075-.24.166m-252.312.765l-.378.652.44-.464c.243-.255.412-.549.378-.652-.035-.104-.233.105-.44.464m-1.173.94c-.177.283-.163.297.135.138.424-.227.565-.454.282-.454-.121 0-.309.142-.417.316m-.807.355c-.206.102-.375.248-.375.323 0 .075-.067.095-.149.045-.19-.118-.972.505-.823.655.061.062.249-.026.417-.194.168-.168.399-.313.514-.322.461-.037.537-.08.708-.4.098-.183.157-.324.131-.313-.026.011-.216.104-.423.206m249.797.535c-.458.429-.792.845-.742.926.049.08-.002.146-.114.146-.113 0-.155.05-.094.11.147.147.778-.436.778-.719 0-.123.094-.206.209-.183.114.023.189-.052.166-.166-.023-.115.071-.209.209-.209.137 0 .25-.069.25-.154 0-.085.131-.181.291-.212.211-.042.235-.094.086-.188-.131-.082-.51.155-1.039.649m-252.423.741c-.058.094-.17.13-.249.081-.079-.049-.188-.016-.243.073-.056.089-.211.12-.345.069-.135-.052-.245-.016-.245.079s-.206.205-.458.243c-.382.058-.358.074.146.094.359.015.688-.076.81-.223.114-.136.268-.21.343-.164.075.047.184.007.242-.088.059-.094.177-.129.262-.076.085.053.155.017.155-.08 0-.225-.281-.23-.418-.008m-2.407.656c-.133.084-.302.116-.375.071-.074-.045-.133-.003-.133.094 0 .245.211.221.593-.068.357-.27.297-.339-.085-.097m-21.717.133c1.582.027 4.169.027 5.75 0 1.582-.027.288-.05-2.875-.05-3.162 0-4.456.023-2.875.05m19.776.068c-.07.113-.046.147.059.082.098-.061.217-.016.263.099.065.163.087.161.098-.009.007-.121.098-.165.205-.099.119.074.147.046.074-.073-.066-.106-.223-.193-.35-.193-.126 0-.284.087-.349.193m255.174.155c-.062.1-.024.269.083.375.149.148.167.118.074-.125-.085-.223-.063-.283.073-.199.108.067.195.042.195-.055 0-.231-.282-.228-.425.004m-277.997 8.902l.006 9-4.459-.047c-2.982-.031-4.458.01-4.458.125 0 .114 1.533.172 4.542.172h4.541l-.042-6.625c-.023-3.643-.064-7.75-.09-9.125-.025-1.375-.044 1.55-.04 6.5m11.68-8.559c.338.458.634.488.464.047-.053-.139-.136-.212-.185-.163-.049.049-.205-.004-.347-.118-.156-.125-.13-.034.068.234m11.758.309c.122.23.225.491.228.581.004.091.156.193.34.227.347.064.335.045-.643-1.058-.082-.091-.048.021.075.25m253.81.681c-.173.324-.103.652.096.453.113-.113.248-.8.158-.8-.037 0-.152.156-.254.347m-264.659.13c0 .196.084.337.186.314.103-.023.21.101.239.275.029.174.185.436.346.583.271.246.278.246.089-.007-.113-.151-.184-.34-.158-.42.027-.08-.121-.36-.327-.623-.345-.439-.375-.449-.375-.122m264.111.967c-.249.25-.122.606.139.389.137-.114.25-.273.25-.354 0-.172-.231-.193-.389-.035m-262.944.44c0 .155.079.282.176.282.097 0 .13.075.074.167-.057.092-.024.167.073.167.24 0 .214-.187-.079-.574-.213-.282-.244-.287-.244-.042m11.333.251c0 .075.23.356.511.625.321.307.469.381.398.198-.061-.161-.183-.292-.27-.292-.087 0-.111-.077-.053-.17.058-.094.006-.151-.115-.125-.122.025-.202-.048-.179-.163.023-.115-.034-.208-.125-.208-.092 0-.167.061-.167.135m-10.164 1.49c.007.365.326.607.328.25.002-.207-.072-.375-.164-.375-.092 0-.166.056-.164.125m261.167.166c-.002.207.072.375.164.375.208 0 .208-.177 0-.5-.131-.202-.162-.178-.164.125m9.425.41c-.292.416-.352.875-.095.715.092-.056.167-.243.167-.414 0-.171.131-.337.292-.369.2-.04.23-.097.094-.182-.116-.073-.304.029-.458.25m-269.984.067c.173.462.721 1.341.722 1.158 0-.086.107-.012.236.165.129.177.205.37.168.43-.036.059.039.195.167.301.138.115.273.13.33.038.053-.086-.016-.249-.152-.362-.137-.113-.248-.282-.248-.376 0-.093-.219-.378-.485-.633-.267-.255-.453-.496-.413-.536.04-.04-.044-.169-.185-.286-.221-.184-.241-.169-.14.101m260.601 1.398c0 .413.033.582.073.375.039-.206.039-.543 0-.75-.04-.206-.073-.037-.073.375m9.038-.099c0 .22.057.366.125.324.069-.043.125-.223.125-.401 0-.178-.056-.324-.125-.324-.068 0-.125.181-.125.401m-40.694.425c0 .272.093.529.207.573.157.06.172-.046.061-.432-.198-.691-.268-.728-.268-.141m81.572.206c-.133.397.061.758.511.951.435.185.438.183.111-.105-.183-.162-.359-.444-.391-.628-.074-.429-.139-.491-.231-.218m-297.632.154c.295.118.352.202.201.296-.167.103-.156.178.048.347.221.184.253.169.211-.098-.075-.481-.28-.732-.591-.72-.186.007-.142.066.131.175m217.09 1.318c.111.179.748.321.748.167 0-.073-.186-.167-.412-.21-.226-.044-.378-.024-.336.043m.914.163c0 .11 4.337.167 12.677.167 8.408 0 12.642-.056 12.573-.167-.067-.109-4.474-.167-12.676-.167-8.271 0-12.574.057-12.574.167m40.834 0c0 .109 2.805.167 8.083.167 5.278 0 8.083-.058 8.083-.167 0-.109-2.805-.167-8.083-.167-5.278 0-8.083.058-8.083.167m29.669.208c.002.304.033.327.164.125.209-.323.209-.5 0-.5-.092 0-.166.169-.164.375m-287.15.141c-.011.146.131.402.314.568.183.166.333.39.333.498 0 .108.106.196.234.196.292 0 .162-.385-.174-.514-.136-.052-.201-.17-.144-.262.057-.093-.007-.168-.144-.168-.136 0-.282-.132-.323-.292-.062-.237-.08-.242-.096-.026m205.981.734c.114.138.151.25.083.25-.068 0-.031.113.083.25.114.138.292.249.396.248.113-.002.099-.059-.035-.144-.122-.077-.226-.208-.229-.289-.015-.3-.172-.565-.337-.565-.097 0-.081.106.039.25m-216.718.023c-.151.152.546 1.084.727.972.191-.118-.18-.733-.418-.692-.096.017-.156-.063-.133-.178.046-.229-.013-.264-.176-.102m298.39.501c-.003.326.093.562.255.624.143.055.214.176.157.268-.057.092-.025.168.072.168.225 0 .23-.281.008-.419-.094-.057-.138-.156-.098-.22.039-.064-.032-.302-.158-.53l-.23-.415-.006.524m-40.839.226c0 .092.121.167.268.167.169 0 .232.092.172.25-.053.138-.024.25.065.25s.153.056.142.125c-.054.34.036.708.173.708.179 0-.102-1.144-.358-1.458-.203-.25-.462-.273-.462-.042m-256.164 1.292c.004.219.239.457.497.502.194.034.185-.007-.039-.183-.159-.125-.24-.276-.18-.335.059-.06.021-.109-.086-.109s-.194.056-.192.125m216.373.396c.189.256.419.419.511.363.096-.06.017-.225-.186-.39-.194-.157-.319-.32-.277-.362.042-.042-.029-.076-.158-.076-.175 0-.148.117.11.465m-204.473.252c.024.161.13.321.237.357.271.09.242-.216-.043-.452-.19-.158-.228-.139-.194.095m245.541.394c.286.484.556.655.556.351 0-.082-.112-.192-.25-.245-.137-.053-.25-.178-.25-.278 0-.1.087-.128.193-.062.119.073.147.045.073-.074-.306-.495-.62-.196-.322.308m-40.513-.023c-.122.197.568.967.798.891.08-.027.103.061.052.196-.052.135.011.332.139.438.19.157.221.128.166-.155-.091-.473-.248-.703-.411-.602-.074.046-.247-.148-.385-.431-.141-.292-.297-.438-.359-.337m-215.768.646c.099.205.272.355.384.333.112-.022.183.06.158.181-.026.121.034.171.133.11.125-.077.119-.182-.02-.35-.109-.131-.237-.201-.283-.154-.047.047-.19-.045-.319-.204-.21-.26-.216-.251-.053.084m257.004.262c0 .185 1.019 1.151 1.114 1.056.051-.051-.013-.189-.141-.308-.598-.554-.973-.843-.973-.748m-245.167.476c0 .107.05.145.11.085.06-.061.21-.027.333.076.141.116.224.122.224.016 0-.093-.119-.215-.264-.271-.362-.139-.403-.129-.403.094m.667.702c0 .138.075.297.167.353.091.057.166-.009.166-.147 0-.137-.075-.296-.166-.353-.092-.056-.167.01-.167.147m205.29.27c.309.334.409.365.583.181.171-.181.163-.207-.04-.14-.137.045-.4-.037-.583-.182-.26-.206-.252-.175.04.141m81.26-.167c.041.138.157.232.258.21.1-.022.263.112.362.297.099.185.257.289.351.231.17-.106-.289-.526-.586-.537-.081-.003-.218-.106-.304-.228-.124-.177-.141-.171-.081.027m-297.217.962c0 .093.119.215.264.271.362.139.403.129.403-.094 0-.107-.049-.145-.11-.085-.06.061-.21.027-.333-.076-.141-.116-.224-.122-.224-.016m298.667.202c0 .09.188.21.417.268.229.057.416.163.416.235 0 .072.123.178.274.236.216.083.234.057.085-.123-.104-.125-.14-.276-.079-.337.06-.06.022-.119-.085-.13-.435-.047-.505-.068-.625-.188-.177-.176-.403-.155-.403.039m-286.905.151c-.05.081.02.24.157.354.136.113.248.144.248.07 0-.075.117.01.259.188.249.311.252.309.079-.05-.1-.205-.273-.355-.385-.333-.111.022-.184-.054-.161-.169.048-.241-.064-.275-.197-.06m206.325.18c-.053.086.051.234.231.33.388.208.516.22.516.049 0-.218-.645-.545-.747-.379m.913.488c0 .244.542.376.737.18.13-.132.099-.151-.112-.071-.169.064-.291.033-.291-.074 0-.101-.075-.184-.167-.184-.092 0-.167.067-.167.149m42.626.461c.116.047.17.149.122.227-.049.078.068.131.259.116.324-.024.328-.04.055-.24-.161-.117-.371-.207-.469-.2-.097.007-.082.051.033.097m-248.985.138c-.041.04-2.602.081-5.692.092-3.397.011-5.582.079-5.524.172.128.208 11.575.206 11.575-.002 0-.184-.253-.368-.359-.262m210.109.252c-.275.07 5.327.136 12.449.147 8.474.013 12.984-.038 13.051-.147.123-.199-24.719-.199-25.5 0"/><path fill="#349494" d="M94.333 49c0 .092-.131.17-.291.174-.161.004-.817.197-1.459.43-.641.233-1.485.539-1.875.68-.424.153-.708.361-.708.517 0 .224 1.236 2.455 1.495 2.699.102.096.819 1.407 1.368 2.5.638 1.271.822 1.346 2.206.899 2.26-.729 3.598-1.278 3.598-1.476 0-.2-1.347-2.679-1.644-3.024-.087-.101-.466-.766-.842-1.476-.962-1.814-1.848-2.737-1.848-1.923"/><path fill="#14acac" d="M133.792 27.958c1.031.029 2.718.029 3.75 0 1.031-.029.187-.053-1.875-.053-2.063 0-2.907.024-1.875.053m-4.498.16c.207.04.507.038.666-.003.16-.042-.01-.075-.377-.073-.366.002-.497.036-.289.076m11.664 0c.207.039.544.039.75 0 .207-.04.038-.073-.375-.073-.412 0-.581.033-.375.073m26.375 3.541c.138.093.394.17.57.172.426.003.293-.092-.32-.229-.365-.082-.432-.066-.25.057m-68.75 10.613c-.366.128-.816.299-1 .38-.183.081-.908.348-1.611.593-1.232.43-1.6.719-1.308 1.026.076.08.418.671.761 1.312.342.642.674 1.205.738 1.25.104.075 1.503 2.52 1.92 3.356.194.388.66.345 1.792-.169.39-.176 1.024-.405 1.41-.508.385-.103.746-.261.801-.35.055-.089.232-.162.392-.162.831 0 .953-1.111.175-1.592-.087-.054-.115-.168-.063-.253.053-.085.034-.155-.042-.155-.076 0-.286-.281-.467-.625-.18-.344-.368-.663-.417-.708-.05-.046-.23-.402-.402-.792-.172-.39-.365-.708-.429-.708-.063 0-.256-.311-.427-.69-.34-.754-.865-1.488-1.043-1.458-.062.011-.413.125-.78.253m49.334 6.895l-.5.127.448.02c.247.01.495-.056.552-.147.056-.092.079-.158.051-.147-.028.011-.276.077-.551.147m-83.545 46c0 .32.034.452.076.291.042-.16.042-.423 0-.583-.042-.16-.076-.029-.076.292m0 1.666c0 .321.034.452.076.292.042-.16.042-.423 0-.583-.042-.161-.076-.029-.076.291m280.204 12.584c0 3.941.022 5.53.049 3.53.026-2 .026-5.225 0-7.167-.027-1.941-.049-.305-.049 3.637"/></g></svg>