<svg xmlns="http://www.w3.org/2000/svg" role="img" viewBox="4.28 15.28 1909.44 578.44"><title>RT-Thread (member) logo</title><defs><style>.cls-1{fill:#28b7b9}.cls-1,.cls-2,.cls-3,.cls-4{stroke-width:0}.cls-2{fill:#29b8b9}.cls-3{fill:#29b8ba}.cls-4{fill:#197d7c}</style></defs><path d="M1175.58245 317.32644c-14.09931-10.76199-27.88558-21.92666-42.38136-32.17781-79.76176-56.40618-167.55352-94.28384-263.29116-113.64569-39.43106-7.97449-79.31295-12.17353-119.57563-13.1456-95.34408-2.30188-187.22282 14.25271-275.67432 49.80049-3.40343 1.36781-4.96173 1.09165-6.77076-2.28762-4.54902-8.49777-9.4506-16.81912-14.51869-25.02136-1.89519-3.06726-1.47767-4.29778 1.85932-5.46315 9.91072-3.46105 19.70144-7.26559 29.61762-10.71014 2.86167-.99404 3.3161-1.8932 1.72537-4.59061-9.62447-16.32037-19.11486-32.72037-28.54097-49.15617-1.24357-2.16826-2.32421-2.82683-4.85379-1.93174-10.06455 3.56122-20.25587 6.76503-30.31792 10.3329-3.0411 1.07834-4.77601 1.03208-6.47929-2.23053-3.66323-7.01679-7.66695-13.87846-11.91931-20.55707-2.32525-3.65192-1.20103-4.79139 2.40831-6.01098 31.69951-10.71115 63.94223-19.34184 96.81332-25.61343 53.9463-10.29256 108.40924-13.98724 163.19329-11.1765 137.74933 7.06734 262.61302 51.07247 374.23324 132.09701 50.66364 36.77639 95.3272 79.89004 134.11192 129.04432.42403.53736.76866 1.13727 1.15046 1.70798-.26321.24522-.52643.49047-.78964.73572zM203.27598 466.32313c10.78703 14.38653 21.20417 28.28023 31.62182 42.17355 11.27098 15.03132 22.54793 30.05821 33.80156 45.10254.78367 1.04769 2.43521 2.01322 1.72743 3.43408-.7045 1.41435-2.49915.74772-3.80938.75088-15.87562.03846-31.75292-.09479-47.62589.11317-3.74405.04907-5.97274-1.33415-8.11376-4.20788-20.80279-27.92108-41.75867-55.7283-62.54002-83.66524-2.16438-2.90954-4.36065-4.20258-8.08445-4.15092-15.52758.21535-31.06483.309-46.58756-.0396-4.78278-.10748-5.61427 1.42654-5.58208 5.79735.19812 26.89265.01307 53.78809.1897 80.68112.02739 4.17018-.9036 5.71166-5.3728 5.60007-12.07182-.3013-24.15819-.2276-36.23421-.02747-3.64346.06037-5.04507-.62527-5.03746-4.73823.13637-73.61384.12742-147.22806.01714-220.84202-.00563-3.7602 1.23485-4.52121 4.7187-4.51445 51.76844.10003 103.53829-.14512 155.30537.1377 40.98081.22387 71.67655 32.57596 69.82716 72.90676-1.5016 32.74748-27.38378 60.47333-60.09266 64.38553-2.39265.2862-4.77644.64605-8.12862 1.10308zm-54.85709-46.62097c17.76037 0 35.52126.08484 53.28092-.02753 13.54555-.0857 23.35817-9.5141 23.49104-22.27577.13666-13.12567-9.47121-23.20044-23.116-23.27969-36.72641-.21339-73.45491-.05163-110.18229-.14875-2.97746-.00786-3.79695.93449-3.76619 3.82313.13393 12.57407.1802 25.15231-.02171 37.72458-.05651 3.51839 1.19611 4.27208 4.4472 4.24918 18.62157-.1311 37.24454-.06375 55.86703-.06514z" class="cls-2"/><path d="M1877.81455 431.77866c0 40.17504-.05828 80.35033.08761 120.52486.01504 4.15351-.88674 5.62842-5.35886 5.60872-39.00432-.17228-78.01028.02255-117.01473-.13938-29.64035-.12302-51.63976-15.71178-59.29144-41.53091-1.67803-5.66208-2.41444-11.48205-2.43809-17.34514-.08888-22.07011-.20468-44.14231.00493-66.21075.28559-30.06563 19.46259-52.84674 48.72632-58.05173 4.03988-.71858 8.24057-.72135 12.3678-.73247 23.81701-.06429 47.63503-.11835 71.45103.05437 3.95669.0287 5.31031-.85625 5.25962-5.08004-.23376-19.48123.03236-38.96849-.20607-58.44962-.05398-4.40716 1.32922-5.51838 5.55229-5.42558 11.90282.26154 23.81853.24907 35.7221.00426 4.06478-.08358 5.2447 1.09171 5.22927 5.21405-.15196 40.51934-.09178 81.03944-.09178 121.55935zm-46.30897 34.09937c0-13.61482-.13843-27.23184.08812-40.84293.06422-3.85865-1.02188-4.95001-4.91018-4.9227-24.66658.17323-49.33518.05671-74.00302.10565-8.20605.01626-12.43076 4.25468-12.44543 12.41187-.0397 22.05928-.03881 44.11885-.00051 66.17816.01391 7.99107 4.46137 12.6196 12.40156 12.64518 24.84016.08001 49.68133-.05614 74.52047.1179 3.91674.02741 4.44671-1.52733 4.41081-4.84944-.14728-13.61317-.06157-27.22887-.06182-40.84369z" class="cls-3"/><path d="M1671.23136 489.18813c.00013 21.20499-.06094 42.4103.0622 63.61454.01985 3.41021-.71328 4.85721-4.52117 4.83883-41.75467-.20089-83.51389.06265-125.26439-.42577-28.35841-.33174-53.07809-25.5371-53.98404-53.95815-.98864-31.01427 21.03025-57.66783 50.28892-59.96637 26.51085-2.08269 53.11184-.41611 79.66972-.80632 7.81654-.11487 7.81806-.01812 7.77798-7.99672-.05297-10.53884-4.13255-14.52973-14.88832-14.53087-39.17158-.0041-78.34328-.07089-117.51423.09703-4.28602.01835-5.55911-1.04078-5.44887-5.40221.30911-12.23248.20291-24.47908.04147-36.71721-.04083-3.09584.72491-4.14422 4.00208-4.13185 42.10348.15883 84.21163-.17332 126.30967.34768 29.24843.36196 53.15141 26.35779 53.43561 57.11193.17851 19.30693.03325 38.61686.03338 57.92546zm-87.93772-.31013c-12.23974 0-24.4796-.01996-36.71933.0072-7.77419.0173-12.80194 4.31631-12.9759 11.00676-.17307 6.65319 5.28541 11.56958 13.0553 11.5805 24.65204.03461 49.30433-.04995 73.95561.0845 3.45491.01882 5.00323-.65615 4.72901-4.47988-.33161-4.62639-.28016-9.3064-.011-13.94093.1952-3.36032-.85602-4.3902-4.28122-4.33627-12.58146.19811-25.16785.07856-37.75247.07812zm-187.25335-.00019c-21.40256.00019-42.80589.09024-64.20693-.08513-3.73178-.0305-5.51676.71924-4.88768 4.75882.26233 1.68376.00961 3.44292.05234 5.16628.20253 8.16941 4.77807 12.73947 12.98096 12.75273 25.19971.04067 50.39954.0149 75.59925.01497 14.84369.00006 29.68852.10117 44.53018-.07452 3.47514-.04111 4.78641.7109 4.71384 4.48695-.23894 12.41095-.17396 24.83023-.03173 37.24409.03628 3.16916-.60469 4.51966-4.20587 4.50242-41.42028-.19842-82.84928.23032-124.25996-.46379-30.2396-.50673-53.82298-23.48705-54.9441-53.65206-.95311-25.64988-.84881-51.39046.0732-77.04473 1.01797-28.32399 25.79453-52.03098 54.22791-52.35248 41.59032-.47026 83.18899-.17095 124.78373-.32826 3.37855-.01276 4.39563.92145 4.34228 4.32013-.19179 12.24006-.2354 24.48824.0158 36.72615.0823 4.00741-.97182 5.22494-5.11334 5.20161-31.06717-.17525-62.13586-.09536-93.20404-.0953-8.45751.00003-16.91515-.03909-25.3724.01055-9.92782.05829-14.08616 4.2849-14.14482 14.25253q-.04855 8.24813 8.02956 8.24832c41.25176.00013 82.50364.06404 123.75477-.0917 4.47174-.01686 6.26759.75782 6.09376 5.787-.41644 12.05622-.27548 24.13923-.04867 36.20555.06789 3.61672-.91442 4.62582-4.57124 4.59589-21.40105-.17544-42.80424-.08614-64.20681-.08601z" class="cls-2"/><path d="M868.0357 431.39378c0-40.17238.08515-80.34515-.11486-120.51655-.02326-4.67518 1.33554-5.76114 5.79344-5.64345 11.72702.30951 23.47282.30165 35.20035.00085 4.26333-.10935 5.11707 1.37157 5.07984 5.28854-.1818 19.13617.05828 38.27681-.18471 57.41165-.05809 4.57862.94236 6.10873 5.87284 6.06657 25.88297-.22116 51.77396-.30635 77.65364.1019 27.80954.43869 53.42088 24.54548 53.95996 52.19214.83035 42.56907.28711 85.16459.3976 127.74869.00708 2.70063-.92252 3.58116-3.59019 3.56121-12.94253-.09662-25.88796-.16318-38.82846.02217-4.3878.0629-3.47856-2.77256-3.4802-5.19154-.02314-34.3103-.01593-68.62066-.01593-102.93096-.00013-5.51721.08786-11.03626-.022-16.55129-.16448-8.26145-4.65973-12.92823-12.85643-12.96088-24.85078-.09899-49.70301.06786-74.55246-.13486-4.46245-.03641-4.48198 2.13315-4.47711 5.40111.06239 42.06887-.05158 84.13834.16353 126.20611.02573 5.02968-1.28478 6.39124-6.27455 6.22439-11.54971-.38611-23.12585-.31001-34.68144-.02387-4.18027.10351-5.14021-1.25155-5.12662-5.23789.13742-40.34428.08382-80.68926.08376-121.03402zM730.54251 328.10143c36.41541-.00003 72.83101.06382 109.24578-.08731 4.17136-.0173 5.68731.91763 5.57024 5.37357-.31233 11.88887-.31005 23.79666.00215 35.68553.11201 4.26437-1.34844 5.05933-5.25367 5.0364-26.74967-.15731-53.50085-.10666-80.2514-.06688-7.43777.01108-6.45186-.94258-6.45578 6.71461-.02889 56.89898-.0847 113.79819.10411 170.69658.01656 5.01181-1.25368 6.40545-6.26108 6.23658-11.55003-.38952-23.12762-.32763-34.68264-.0209-4.4536.11828-5.39419-1.41486-5.38497-5.58352.12668-57.07111.09893-114.14256.0696-171.21392-.00411-7.97105.90595-6.8135-6.87885-6.82714-26.57798-.04654-53.15647-.0893-79.73369.06164-3.83298.02176-5.37947-.6421-5.25905-4.96593.33098-11.88783.30847-23.79577.011-35.68537-.10708-4.28035 1.05109-5.47518 5.39483-5.45425 36.58709.176 73.17545.10032 109.76343.10032zm-321.42959.00003c36.23627-.00006 72.47307.09094 108.7082-.10973 4.78445-.02646 6.1351 1.29995 6.00128 6.03133-.33136 11.71318-.2653 23.44525-.01947 35.16263.08015 3.82076-.89932 4.96116-4.85108 4.93524-27.26231-.17875-54.527-.00009-81.78909-.1941-4.12496-.02933-5.08721 1.13033-5.07813 5.13773.13047 57.57796.02156 115.15653.21056 172.73418.01606 4.89302-1.44114 5.99186-6.03213 5.86973-11.55291-.30723-23.12424-.29183-34.67815-.00379-4.33337.10786-5.4813-1.21416-5.47115-5.49561.13568-57.23315.02585-114.46697.20383-171.6999.01561-5.01717-.91363-6.66172-6.37578-6.59348-26.74164.33423-53.49035.06268-80.23493.245-4.11333.02801-5.67549-.72656-5.54521-5.25166.34223-11.88508.28528-23.79028.02238-35.67937-.09027-4.08107 1.11054-5.19435 5.18515-5.17733 36.58074.15286 73.16236.0892 109.74374.08914z" class="cls-1"/><path d="M1190.61376 373.87047c20.70736 0 41.41712.17468 62.12005-.12731 4.95038-.07218 5.97758 1.51934 5.85431 6.08113-.30746 11.36989-.35146 22.76172.01517 34.12811.15828 4.90836-1.12631 6.39247-6.20375 6.36459-38.82518-.21314-77.65187-.11756-116.47818-.11658-12.09068.00028-15.17783 3.12053-15.17795 15.33549-.00038 38.9617-.06802 77.92377.0957 116.88478.01821 4.31568-1.17309 5.58668-5.4844 5.48816-12.07298-.27585-24.15785-.20247-36.23462-.03-3.50662.05014-4.77326-.87604-4.76226-4.60808.12238-41.54733-.09798-83.09611.13843-124.64243.15993-28.1089 25.37379-53.8507 53.48416-54.50426 20.86716-.48517 41.7548-.09545 62.63321-.09545.00013-.0527.00013-.10543.00013-.15813zM569.3964 465.96613c-13.79323.00006-27.58817-.11879-41.37856.0802-3.63519.05242-4.69709-1.02054-4.63641-4.64098.20784-12.3987.21758-24.80542-.00449-37.20358-.06644-3.71179 1.16051-4.58951 4.70139-4.57274 27.75834.13151 55.51769.1251 83.27603.00565 3.38412-.01459 4.41814.95211 4.36586 4.36961-.19242 12.57145-.19886 25.14956.00265 37.72073.05607 3.49616-1.12991 4.34252-4.43021 4.30621-13.96403-.1539-27.93059-.06524-41.89627-.06511z" class="cls-3"/><path d="M396.47644 182.22243c.17734 1.21283-.76439 1.30159-1.55397 1.58704-6.61852 2.39267-13.27047 4.70059-19.82641 7.25433-2.28268.88918-3.06942-.27841-3.97761-1.85275-5.23443-9.07403-10.404-18.1874-15.7931-27.16915-1.6016-2.66934-.63329-3.47628 1.80062-4.30574 6.01721-2.05059 12.00162-4.20629 17.93776-6.47985 1.82253-.69805 3.10573-1.01499 4.26804 1.01604 5.45895 9.53922 11.00935 19.02622 16.51754 28.53737.25693.44358.42232.94005.62713 1.41271z" class="cls-4"/><path fill="#3a9895" stroke-width="0" d="M444.72342 190.69235c.04886 1.49137-1.21272 1.64615-2.06005 1.95932-6.28194 2.3215-12.6417 4.43949-18.8768 6.87722-2.13988.83664-3.05472.23212-4.06782-1.5429-5.27684-9.24549-10.60931-18.4599-16.00907-27.63423-1.09856-1.86649-1.2644-2.859 1.17922-3.68135 6.50325-2.18847 12.94012-4.57936 19.36265-6.99773 1.59057-.59892 2.5354-.31925 3.3697 1.12748 5.48999 9.51991 11.0199 19.01681 16.52554 28.52775.25354.43796.39931.93812.57662 1.36443z"/><path d="M397.0865 156.72956c-1.49212.13031-1.87812-1.12407-2.46912-2.14021-5.34925-9.19717-10.66658-18.4132-16.07803-27.5737-1.16269-1.96821-1.00447-2.8279 1.34945-3.61424 6.18627-2.06648 12.29998-4.36155 18.3828-6.7196 2.4256-.9403 3.67616-.2564 4.91818 1.94488 5.05949 8.96689 10.29549 17.83441 15.47167 26.7355.87128 1.49822 2.05682 2.95514-.66401 3.92-6.62828 2.35055-13.22698 4.78446-19.83996 7.17817-.32105.11622-.66512.16898-1.07097.26919z" class="cls-4"/><path d="M468.34169 156.19676c-.18063 1.41713-1.33434 1.48139-2.27629 1.82683-6.13814 2.25107-12.29704 4.44818-18.40211 6.78564-2.40866.92222-3.72338.19012-4.95705-1.98223-5.09906-8.97859-10.27312-17.91724-15.59395-26.76594-1.54111-2.56296-.88645-3.45009 1.7199-4.31301 6.0381-1.99909 12.00847-4.2109 17.95735-6.46536 1.79983-.68207 3.14811-1.06708 4.33005.9988 5.47078 9.56219 11.03049 19.07363 16.55357 28.60601.2568.44322.46745.91307.66853 1.30927z" class="cls-1"/><path d="M1176.3721 316.59071c.1732.49328.3464.98656.51973 1.47984 0-.00003-.08837.10051-.08837.10047a2233.96237 2233.96237 0 0 0-1.22075-.84485l.78939-.73547z" class="cls-2"/><path d="M1176.89183 318.07052l.74856.26994-.37738.52902c-.1531-.23294-.3062-.46581-.45942-.69856-.00013.00013.08824-.10041.08824-.10041z" class="cls-2"/></svg>