<svg xmlns="http://www.w3.org/2000/svg" role="img" viewBox="1.64 27.64 382.46 99.46"><title>Rumble Development Corporation (member) logo</title><path fill="#ac96ac" d="M50 35h1v1h-1z"/><path d="M67 36h1v1h-1zm1 0h1v1h-1zm9 2h1v1h-1zm-15 1h4v1h-4zm4 0h1v1h-1zm15 1h1v1h-1zm-6 2h1v1h-1zm10 1h1v1h-1zm-7 1h1v1h-1zm8 0h1v1h-1zm1 1h1v1h-1zm1 1h1v1h-1zm-7 1h1v1h-1zm9 2h1v1h-1zm-3 15h1v4h-1zm0 4h1v1h-1zm7 6h1v1h-1zm-1 3h1v1h-1zm-2 5h1v1h-1zm-9 2h1v1h-1zm-5 5h1v1h-1zm-36 3h1v1h-1zm39 1h1v1h-1zm-45 3h20v1H35zm20 0h1v1h-1z" fill="#f68b00"/><path d="M104 37h17v1h-17zm17 0h1v1h-1zM14 39h1v1h-1zm113 0h1v1h-1zm-8 1h1v1h-1zm1 0h1v1h-1zm9 1h1v1h-1zm-65 4h1v1h-1zm66 0h1v1h-1zm2 1h1v1h-1zm43 0h1v1h-1zm40 0h1v1h-1zm-83 1h1v1h-1zm32 0h1v1h-1zm9 0h1v1h-1zm51 0h1v1h-1zm-91 1h1v1h-1zm1 0h1v1h-1zm15 0h1v1h-1zm36 0h1v1h-1zm-7 1h1v1h-1zm12 0h2v1h-2zm2 0h1v1h-1zm23 0h1v1h-1zm5 0h1v1h-1zm-7 1h1v1h-1zm-98 4h1v1h-1zm-63 4h1v1h-1zm171 1h1v1h-1zm22 2h1v1h-1zm19 0h1v1h-1zM39 62h1v1h-1zm1 0h1v1h-1zm187 0h1v1h-1zm-105 1h1v1h-1zm99 0h1v1h-1zM55 65h1v1h-1zm104 0h1v1h-1zm4 0h1v1h-1zm14 0h1v2h-1zm-52 2h1v1h-1zm52 0h1v1h-1zm25 0h1v1h-1zm8 0h1v1h-1zm41 0h1v1h-1zM104 80h14v1h-14zm14 0h1v1h-1zm-2 3h2v1h-2zm2 0h1v1h-1zm10 0h1v1h-1zm-4 2h1v1h-1zm7 1h1v1h-1zm27 3h1v1h-1zm10 0h1v1h-1zm29 0h1v1h-1zm80 0h1v2h-1zm48 0h1v1h-1zm-192 1h1v1h-1zm111 0h1v1h-1zm45 0h1v1h-1zm45 0h1v1h-1zm-98 1h1v1h-1zm15 0h1v1h-1zm18 0h1v1h-1zm8 0h1v1h-1zm37 0h1v1h-1zM9 92h1v1H9zm170 0h1v1h-1zm6 0h1v1h-1zm52 0h1v1h-1zm19 0h1v1h-1zm13 0h1v1h-1zm15 0h1v1h-1zm14 0h1v1h-1zm49 0h1v1h-1zm-94 1h1v1h-1zm27 0h1v1h-1zm-61 1h1v1h-1zm-85 2h1v1h-1zm43 0h1v1h-1zm57 0h1v1h-1zm-67 1h1v1h-1zm-39 2h1v1h-1zm-1 3h1v1h-1zm10 0h1v1h-1zm86 0h1v1h-1zm-35 1h1v1h-1zm46 0h1v1h-1zm-34 1h1v1h-1zm66 0h1v1h-1zm64 0h1v1h-1zm-141 1h1v1h-1zm138 0h1v1h-1zm-129 1h1v1h-1zm67 0h1v1h-1zm26 0h1v1h-1zm-106 1h1v1h-1zm52 0h1v1h-1zm49 0h1v1h-1zm65 0h1v1h-1zm23 0h1v1h-1zm-188 1h1v1h-1zm35 0h1v1h-1zm7 0h1v1h-1zm1 0h1v1h-1zm-107 2h1v1h-1zm75 0h1v1h-1zm120 0h1v1h-1zm57 0h1v1h-1z" fill="#f7f7f7"/><path d="M205 37h1v1h-1zm27 0h1v1h-1zm-107 1h1v1h-1zm3 2h1v1h-1zm124 6h1v1h-1zm4 2h1v1h-1zm2 1h1v1h-1zm-30 6h1v1h-1zm21 1h1v1h-1zm-121 7h1v1h-1zm29 0h1v1h-1zm-34 1h1v1h-1zm30 0h1v1h-1zm32 0h1v1h-1zm-82 1h1v1h-1zm55 0h1v1h-1zm30 0h1v1h-1zm43 0h1v1h-1zm-29 1h1v1h-1zm-97 1h9v1h-9zm9 0h1v1h-1zm13 0h4v1h-4zm4 0h1v1h-1zm33 0h8v1h-8zm8 0h1v1h-1zm6 0h8v1h-8zm8 0h1v1h-1zm7 0h7v1h-7zm7 0h1v1h-1zm8 0h1v1h-1zm25 0h7v1h-7zm7 0h1v1h-1zm-34 13h1v1h-1zm-95 4h1v22h-1zm21 4h1v1h-1zm100 1h1v1h-1zm23 0h1v1h-1zm63 0h1v1h-1zm-137 1h1v1h-1zm64 0h1v1h-1zm48 0h1v1h-1zm-101 1h1v1h-1zm58 0h1v1h-1zm28 0h1v1h-1zm42 0h2v1h-2zm2 0h1v1h-1zm-67 1h1v1h-1zm91 0h1v1h-1zm-95 2h1v1h-1zm26 1h1v10h-1zm-140 4h1v1h-1zm0 1h1v1h-1zm125 1h1v1h-1zm-137 4h1v1h-1zm152 0h1v1h-1zm-166 1h1v1h-1zm44 1h1v1h-1zm77 0h1v1h-1zm-129 1h1v1h-1zm51 0h1v1h-1zm51 0h1v1h-1zm22 0h1v1h-1zm117 0h1v1h-1zm-94 1h1v1h-1zm-145 1h15v1h-15zm15 0h1v1h-1zm50 0h1v1h-1zm37 0h7v1h-7zm7 0h1v1h-1zm56 0h9v1h-9zm9 0h1v1h-1zm5 0h8v1h-8zm8 0h1v1h-1zm7 0h7v1h-7zm7 0h1v1h-1zm29 0h7v1h-7zm7 0h1v1h-1zm8 0h8v1h-8zm8 0h1v1h-1z" fill="#dadada"/><path d="M211 37h1v10h-1zm-44 10h1v1h-1zm44 0h1v1h-1zm-28 1h1v1h-1zm36 0h1v1h-1zm42 0h1v1h-1zm-73 1h1v1h-1zm-62 2h1v1h-1zm85 0h1v8h-1zm-30 2h1v9h-1zm64 2h1v1h-1zm-34 4h1v1h-1zm-86 1h1v1h-1zm56 2h1v1h-1zm31 3h1v1h-1zm-58 2h1v1h-1zm-27 16h1v1h-1zm201 9h1v1h-1zm12 0h1v1h-1zm-211 1h1v1h-1zm108 0h1v1h-1zm100 0h1v12h-1zm-50 1h1v1h-1zm17 0h1v1h-1zm-148 1h1v1h-1zm17 4h2v1h-2zm2 0h1v1h-1zm136 0h1v1h-1zm0 1h1v1h-1zm-77 5h1v1h-1zm103 0h1v1h-1zm-148 1h1v1h-1zm48 0h1v1h-1zm50 0h1v1h-1zm-120 1h1v1h-1zm33 0h1v1h-1zm-1 1h1v1h-1zm73 0h1v1h-1zm48 0h1v1h-1z" fill="#6f6e6e"/><path d="M204 39h1v1h-1zm-24 7h1v1h-1zm14 0h1v1h-1zm-28 1h1v1h-1zm-37 1h1v1h-1zm120 10h1v1h-1zm-99 5h1v1h-1zm7 1h1v1h-1zm31 2h1v1h-1zm35 0h1v1h-1zM103 82h1v1h-1zm20 2h1v1h-1zm173 5h1v1h-1zm55 0h1v1h-1zm12 0h1v1h-1zm6 0h1v1h-1zm-241 1h1v1h-1zm40 0h1v1h-1zm20 0h1v1h-1zm65 0h1v1h-1zm91 0h1v1h-1zm-190 1h1v1h-1zm73 0h1v1h-1zm-83 1h1v1h-1zm151 0h1v1h-1zm4 0h1v1h-1zm34 0h1v1h-1zm8 0h1v1h-1zm14 0h1v1h-1zm-180 1h1v1h-1zm45 0h1v1h-1zm26 0h1v23h-1zm19 0h1v1h-1zm100 0h1v11h-1zm-182 4h1v1h-1zm4 2h1v1h-1zm-54 1h1v1h-1zm182 0h1v1h-1zm-132 2h1v1h-1zm56 0h1v1h-1zm23 0h1v1h-1zm-97 1h1v1h-1zm200 1h1v1h-1zm-222 1h1v1h-1zm-19 1h1v1h-1zm149 0h1v1h-1zm-102 3h1v1h-1zm126 0h1v1h-1zm11 0h1v1h-1zm25 0h1v1h-1zm-137 1h1v1h-1zm58 0h1v1h-1zm-8 6h1v1h-1z" fill="#bdbcbc"/><path d="M44 62h1v1h-1zm-1 18h1v1h-1zm27 13h1v2h-1zm0 2h1v1h-1z" fill="#ca7c4e"/><g fill="#fff"><path d="M0 0h389v33H0zm389 0h1v128h-1zM0 33h389v1H0zm0 1h9v94H0zm9 0h380v1H9zm62 1h318v1H71zm4 1h132v1H75zm132 0h1v1h-1zm5 0h22v1h-22zm22 0h1v1h-1zm5 0h150v9H239zM78 37h25v1H78zm25 0h1v1h-1zm19 0h81v1h-81zm81 0h1v91h-1zm9 0h18v8h-18zm18 0h1v51h-1zM81 38h21v1H81zm21 0h1v90h-1zm24 0h77v1h-77zM9 39h4v52H9zm4 0h1v52h-1zm69 0h20v1H82zm46 0h75v1h-75zM14 40h1v51h-1zm1 0h1v51h-1zm11 0h14v21H26zm14 0h1v21h-1z"/><path d="M84 40h21v1H84zm21 0h1v24h-1zm7 0h6v10h-6zm6 0h1v10h-1zm11 0h78v1h-78zm78 0h1v39h-1zm24 0h3v24h-3zm3 0h1v23h-1zM16 41h1v48h-1zm46 0h7v1h-7zm7 0h1v49h-1z"/><path d="M85 41h21v1H85zm21 0h1v23h-1zm13 0h3v8h-3zm3 0h1v8h-1zm8 0h77v3h-77zm-67 1h9v1h-9zm9 0h1v48h-1zm14 0h20v1H86zm37 0h1v6h-1zm-72 1h1v16h-1z"/><path d="M64 43h10v1H64zm10 0h1v46h-1zm13 0h19v1H87zm37 0h1v4h-1zm-72 1h1v13h-1z"/><path d="M64 44h12v1H64zm12 0h1v44h-1zm12 0h18v1H88zm42 0h77v1h-77zm-77 1h1v11h-1z"/><path d="M65 45h12v43H65zm12 0h1v42h-1zm12 0h17v1H89zm42 0h76v1h-76zm81 0h22v1h-22zm27 0h150v1H239zM78 46h1v40h-1zm12 0h16v1H90zm40 0h1v18h-1zm1 0h1v18h-1zm10 0h7v14h-7zm7 0h1v17h-1zm10 0h9v1h-9zm9 0h1v1h-1zm4 0h3v1h-3zm3 0h1v1h-1zm8 0h6v1h-6zm6 0h1v1h-1zm8 0h11v1h-11zm16 0h2v1h-2zm2 0h1v1h-1zm9 0h11v1h-11zm16 0h12v1h-12zm12 0h1v1h-1zm8 0h130v1H259zM54 47h1v7h-1zm25 0h1v38h-1zm12 0h15v1H91zm33 0h1v1h-1zm34 0h5v17h-5zm5 0h1v1h-1zm8 0h1v1h-1zm1 0h1v1h-1zm11 0h3v1h-3zm3 0h1v1h-1zm11 0h10v1h-10zm15 0h1v1h-1zm13 0h9v1h-9zm14 0h10v1h-10zm10 0h1v1h-1zm12 0h128v1H261zM80 48h1v36h-1zm11 0h15v1H91zm32 0h1v1h-1zm9 0h1v16h-1zm39 0h1v1h-1zm13 0h1v1h-1zm14 0h9v1h-9zm28 0h8v1h-8zm13 0h8v2h-8zm8 0h1v1h-1zm15 0h127v1H262zM81 49h1v34h-1zm11 0h14v1H92zm27 0h3v1h-3zm3 0h1v1h-1z"/><path d="M129 49h7v14h-7zm7 0h1v79h-1zm13 0h3v13h-3zm3 0h1v12h-1zm25 0h1v15h-1zm22 0h8v15h-8zm17 0h3v15h-3zm3 0h1v15h-1zm8 0h7v1h-7zm25 0h5v3h-5zm5 0h1v3h-1zm6 0h126v1H263zM92 50h14v1H92zm20 0h7v1h-7zm7 0h1v1h-1zm44 0h3v14h-3zm3 0h1v14h-1z"/><path d="M174 50h5v14h-5zm5 0h1v14h-1zm9 0h5v14h-5zm5 0h1v14h-1zm21 0h7v13h-7zm7 0h1v12h-1zm6 0h7v1h-7zm12 0h7v2h-7zm7 0h1v1h-1zm5 0h7v2h-7zm7 0h1v2h-1zm6 0h125v1H264zM82 51h1v30h-1zm11 0h13v1H93zm34 0h9v10h-9z"/><path d="M173 51h7v13h-7zm7 0h1v12h-1zm6 0h7v13h-7zm26 0h10v10h-10zm10 0h1v10h-1zm6 0h6v2h-6zm31 0h1v1h-1zm5 0h125v1H264zM83 52h1v28h-1zm10 0h13v1H93zm33 0h10v8h-10z"/><path d="M172 52h8v12h-8zm13 0h8v11h-8zm54 0h6v11h-6zm6 0h1v1h-1zm5 0h9v1h-9zm9 0h1v1h-1zm6 0h124v29H265zM94 53h12v1H94zm29 0h13v3h-13zm105 0h6v1h-6zM54 54h1v1h-1zm40 0h12v1H94zm18 0h2v10h-2zm2 0h1v10h-1z"/><path d="M121 54h15v1h-15zm102 0h1v4h-1zm6 0h5v10h-5zM84 55h1v22h-1zm11 0h11v3H95zm20 0h1v24h-1zm7 0h14v1h-14zm128 0h139v5H250zM53 56h1v1h-1zm11 0h20v24H64zm52 0h1v23h-1zm7 0h13v1h-13zm-71 1h1v1h-1zm65 0h1v22h-1zm7 0h12v1h-12z"/><path d="M63 58h22v19H63zm22 0h1v15h-1zm10 0h11v1H95zm23 0h1v21h-1zm7 0h11v1h-11zm98 0h1v1h-1zM51 59h1v1h-1zm45 0h10v5H96zm29 0h11v1h-11zm103 0h6v5h-6z"/><path d="M62 60h23v17H62zm57 0h1v20h-1zm7 0h10v1h-10zm15 0h11v1h-11zm109 0h139v1H250zM26 61h14v1H26zm14 0h1v1h-1z"/><path d="M61 61h24v16H61zm59 0h1v19h-1zm7 0h9v1h-9zm15 0h10v1h-10zm10 0h1v1h-1zm60 0h10v1h-10zm10 0h1v1h-1zm29 0h10v1h-10zm10 0h1v1h-1zM26 62h12v1H26zm12 0h1v1h-1z"/><path d="M60 62h25v15H60zm61 0h1v18h-1zm7 0h8v1h-8zm14 0h9v1h-9zm9 0h1v1h-1zm62 0h8v1h-8zm8 0h1v1h-1zm24 0h1v27h-1zm6 0h9v1h-9zm9 0h1v1h-1z"/><path d="M59 63h26v14H59zm70 0h7v1h-7zm13 0h7v1h-7zm7 0h1v1h-1zm31 0h1v1h-1zm5 0h8v1h-8zm29 0h6v1h-6zm6 0h1v1h-1zm7 0h7v1h-7zm7 0h1v1h-1zm5 0h7v1h-7zm7 0h1v26h-1zm6 0h7v1h-7zm7 0h1v1h-1zm5 0h125v18H264z"/><path d="M57 64h28v13H57zm39 0h10v1H96zm10 0h1v1h-1zm6 0h10v1h-10zm10 0h1v16h-1zm8 0h7v1h-7zm7 0h1v33h-1zm7 0h2v1h-2zm2 0h1v1h-1zm12 0h8v1h-8zm8 0h1v1h-1zm6 0h7v1h-7zm7 0h1v1h-1zm7 0h7v1h-7zm7 0h1v1h-1zm6 0h8v1h-8zm16 0h4v1h-4zm4 0h1v1h-1zm7 0h7v1h-7zm7 0h1v1h-1zm7 0h6v1h-6zm14 0h4v1h-4zm4 0h1v1h-1zm5 0h126v17H263z"/><path d="M56 65h29v12H56zm40 0h6v63h-6zm27 0h1v15h-1zm10 0h4v24h-4zm19 0h1v24h-1zm8 0h2v1h-2zm2 0h1v23h-1zm13 0h1v23h-1zm1 0h1v23h-1zm13 0h1v24h-1zm1 0h1v23h-1zm14 0h3v14h-3zm7 0h1v13h-1zm14 0h5v23h-5zm18 0h4v24h-4zm4 0h1v23h-1zm15 0h127v16H262z"/><path d="M53 66h32v11H53zm71 0h1v14h-1zm14 0h1v28h-1zm12 0h2v22h-2zm11 0h1v22h-1zm51 0h1v12h-1zm12 0h6v22h-6zm24 0h1v22h-1zm1 0h1v22h-1zm12 0h128v15H261z"/><path d="M51 67h34v9H51zm88 0h1v25h-1zm1 0h1v24h-1zm8 0h4v21h-4zm15 0h1v21h-1zm50 0h1v39h-1zm1 0h1v40h-1zm8 0h8v21h-8zm28 0h1v21h-1zm9 0h130v14H259zM26 68h7v22h-7zm7 0h1v24h-1z"/><path d="M103 68h286v10H103zm-69 1h1v23h-1zm1 2h1v21h-1zm1 1h1v20h-1zm1 1h1v19h-1zm48 0h1v1h-1zm-47 1h1v18h-1z"/><path d="M95 75h294v3H95zm-56 1h1v15h-1zm12 0h33v1H51zm-11 1h1v14h-1zm12 0h32v1H52zm32 0h1v1h-1zm-31 1h30v1H53zm42 0h294v1H95zm-41 1h29v1H54zm40 0h114v1H94zm114 0h1v1h-1zm7 0h174v2H215zM55 80h28v1H55zm28 0h1v1h-1zm11 0h9v48h-9zm9 0h1v1h-1zm16 0h85v1h-85zm85 0h1v48h-1zM55 81h27v1H55zm27 0h1v1h-1z"/><path d="M93 81h9v47h-9zm32 0h79v1h-79zm90 0h174v1H215zM56 82h25v1H56zm71 0h77v1h-77zm88 0h151v5H215zm151 0h1v3h-1zm4 0h19v6h-19zM57 83h24v1H57zm24 0h1v1h-1z"/><path d="M92 83h14v24H92zm14 0h1v24h-1zm6 0h3v24h-3zm3 0h1v24h-1zm14 0h79v1h-79zm79 0h1v23h-1zM58 84h22v1H58zm22 0h1v1h-1zm36 0h6v22h-6zm6 0h1v22h-1zm8 0h78v1h-78zm-71 1h20v1H59zm20 0h1v1h-1z"/><path d="M91 85h15v22H91zm32 0h1v21h-1zm8 0h77v1h-77zm235 0h1v1h-1zM60 86h18v1H60zm18 0h1v1h-1z"/><path d="M90 86h16v21H90zm34 0h1v19h-1zm1 0h1v18h-1zm7 0h76v1h-76zm-72 1h17v1H60zm17 0h1v1h-1zm49 0h1v16h-1zm6 0h76v1h-76zm83 0h150v1H215zm150 0h1v1h-1zM61 88h15v1H61zm15 0h1v1h-1z"/><path d="M89 88h17v19H89zm52 0h67v1h-67zm74 0h149v1H215zm149 0h1v1h-1zm6 0h19v1h-19zM16 89h1v1h-1zm46 0h12v1H62zm12 0h1v1h-1z"/><path d="M88 89h18v18H88zm39 0h1v12h-1zm6 0h10v1h-10zm10 0h1v1h-1zm9 0h5v1h-5zm5 0h1v39h-1zm12 0h3v12h-3zm3 0h1v1h-1zm9 0h8v1h-8zm8 0h1v1h-1zm9 0h10v1h-10zm17 0h9v1h-9zm9 0h1v1h-1zm9 0h13v1h-13zm13 0h1v1h-1zm5 0h3v1h-3zm3 0h1v1h-1zm7 0h12v1h-12zm12 0h1v1h-1zm5 0h3v1h-3zm3 0h1v1h-1zm7 0h6v1h-6zm6 0h1v1h-1zm8 0h15v1h-15zm15 0h1v1h-1zm9 0h11v1h-11zm11 0h1v1h-1zm4 0h4v1h-4zm4 0h1v1h-1zm8 0h8v1h-8zm8 0h1v39h-1zm15 0h13v16h-13zM26 90h14v1H26zm37 0h9v1h-9zm9 0h1v1h-1z"/><path d="M87 90h19v17H87zm47 0h7v1h-7zm7 0h1v1h-1zm13 0h3v1h-3zm28 0h5v1h-5zm5 0h1v1h-1zm12 0h9v1h-9zm16 0h7v1h-7zm7 0h1v1h-1zm13 0h8v1h-8zm8 0h1v1h-1zm8 0h1v1h-1zm1 0h1v1h-1zm11 0h7v1h-7zm7 0h1v1h-1zm8 0h1v1h-1zm1 0h1v1h-1zm11 0h2v1h-2zm2 0h1v1h-1zm11 0h12v1h-12zm12 0h1v1h-1zm12 0h6v1h-6zm6 0h1v1h-1zm8 0h2v1h-2zm2 0h1v1h-1zm11 0h6v1h-6zm6 0h1v38h-1zM9 91h6v1H9zm6 0h1v1h-1zm12 0h13v1H27zm13 0h1v1h-1zm11 0h1v1h-1zm14 0h1v1h-1zm1 0h1v1h-1z"/><path d="M86 91h20v16H86zm48 0h6v1h-6zm6 0h1v1h-1zm15 0h2v1h-2zm27 0h4v1h-4zm4 0h1v1h-1zm15 0h7v1h-7zm14 0h6v1h-6zm6 0h1v1h-1zm16 0h5v1h-5zm5 0h1v37h-1zm22 0h4v1h-4zm4 0h1v37h-1zm22 0h1v1h-1zm1 0h1v1h-1zm13 0h9v1h-9zm9 0h1v1h-1zm15 0h4v1h-4zm4 0h1v37h-1zm9 0h1v1h-1zm14 0h6v1h-6zM33 92h5v1h-5zm5 0h1v1h-1z"/><path d="M84 92h22v15H84zm44 0h1v6h-1zm6 0h5v2h-5zm5 0h1v1h-1zm6 0h5v3h-5zm5 0h1v3h-1zm6 0h3v1h-3zm3 0h1v36h-1zm7 0h8v2h-8zm8 0h1v2h-1zm6 0h4v3h-4zm4 0h1v1h-1zm7 0h4v3h-4zm4 0h1v3h-1zm6 0h7v1h-7zm14 0h5v1h-5zm5 0h1v1h-1zm6 0h5v15h-5zm5 0h1v15h-1zm7 0h4v1h-4zm19 0h1v15h-1zm8 0h3v1h-3zm18 0h1v16h-1zm14 0h1v15h-1zm8 0h7v3h-7zm7 0h1v1h-1zm6 0h5v3h-5zm5 0h1v3h-1zm6 0h3v1h-3zm19 0h1v15h-1zm8 0h8v2h-8zm8 0h1v36h-1zm6 0h19v13h-19z"/><path d="M83 93h23v14H83zm61 0h7v2h-7zm7 0h1v2h-1zm5 0h4v1h-4zm4 0h1v35h-1zm19 0h5v2h-5zm5 0h1v1h-1zm6 0h6v2h-6zm6 0h1v2h-1zm6 0h6v1h-6zm13 0h4v3h-4zm4 0h1v1h-1zm6 0h7v13h-7zm7 0h1v13h-1zm6 0h7v1h-7zm7 0h1v23h-1zm9 0h5v14h-5zm5 0h1v13h-1zm7 0h6v1h-6zm6 0h1v14h-1zm9 0h4v14h-4zm4 0h1v14h-1zm9 0h5v14h-5zm5 0h1v14h-1zm13 0h1v1h-1zm5 0h7v2h-7zm7 0h1v2h-1zm6 0h6v1h-6zm6 0h1v14h-1zm8 0h6v14h-6zm6 0h1v14h-1z"/><path d="M81 94h25v13H81zm53 0h4v1h-4zm4 0h1v1h-1zm5 0h8v1h-8zm15 0h2v34h-2zm8 0h8v1h-8zm8 0h1v1h-1zm4 0h5v34h-5zm11 0h8v1h-8zm8 0h1v1h-1zm5 0h6v1h-6zm31 0h1v11h-1zm6 0h6v1h-6zm13 0h8v12h-8zm8 0h1v11h-1zm6 0h6v1h-6zm13 0h7v13h-7zm7 0h1v12h-1zm6 0h8v13h-8zm8 0h1v12h-1zm25 0h1v1h-1zm5 0h6v1h-6zm13 0h8v13h-8zm8 0h1v12h-1zm5 0h8v1h-8z"/><path d="M79 95h27v12H79zm56 0h2v33h-2zm8 0h8v1h-8zm8 0h1v1h-1zm10 0h1v33h-1zm6 0h6v1h-6zm6 0h1v2h-1zm10 0h1v1h-1zm5 0h9v1h-9zm9 0h1v1h-1zm8 0h3v12h-3zm19 0h9v10h-9zm15 0h6v1h-6zm12 0h9v10h-9zm16 0h5v12h-5zm11 0h8v12h-8zm13 0h9v10h-9zm14 0h6v11h-6zm6 0h1v1h-1zm5 0h9v1h-9zm9 0h1v1h-1zm6 0h5v12h-5zm10 0h10v11h-10zm16 0h7v12h-7z"/><path d="M75 96h31v11H75zm92 0h6v1h-6zm48 0h3v11h-3zm3 0h1v1h-1zm22 0h5v20h-5zm21 0h1v8h-1z"/><path d="M9 97h97v10H9zm125 0h3v31h-3zm3 0h1v1h-1zm25 0h1v31h-1zm6 0h5v2h-5zm5 0h1v1h-1zm4 0h5v31h-5zm57 0h1v5h-1zm-106 1h1v1h-1zm14 0h20v3h-20zm46 0h20v4h-20zm35 0h11v3h-11zm93 0h20v5h-20zm-148 1h4v1h-4zm4 0h1v1h-1z"/><path d="M176 99h6v29h-6zm-13 1h1v28h-1zm-36 1h1v1h-1zm6 0h3v27h-3zm9 0h21v1h-21zm27 0h2v1h-2zm2 0h1v1h-1z"/><path d="M175 101h7v27h-7zm48 0h11v1h-11zm-80 1h21v1h-21zm21 0h1v26h-1zm6 0h1v2h-1zm1 0h1v1h-1zm17 0h20v1h-20zm46 0h1v1h-1zm-108 1h1v1h-1zm11 0h1v25h-1zm6 0h21v1h-21z"/><path d="M174 103h8v25h-8zm15 0h19v1h-19zm29 0h1v25h-1zm98 0h20v1h-20zm-191 1h1v1h-1zm7 0h5v24h-5zm11 0h11v1h-11zm11 0h1v1h-1zm11 0h1v24h-1zm5 0h1v1h-1zm13 0h1v24h-1zm6 0h10v1h-10zm10 0h1v1h-1zm40 0h6v12h-6zm22 0h1v1h-1zm50 0h1v24h-1zm6 0h10v1h-10zm10 0h1v1h-1zm-203 1h1v1h-1z"/><path d="M131 105h7v23h-7zm7 0h1v23h-1zm6 0h9v1h-9zm9 0h1v1h-1zm37 0h9v1h-9zm9 0h1v1h-1zm25 0h9v1h-9zm9 0h1v1h-1zm18 0h9v1h-9zm9 0h1v1h-1zm6 0h6v2h-6zm25 0h9v1h-9zm26 0h9v1h-9zm9 0h1v1h-1zm44 0h19v1h-19zm-254 1h7v1h-7zm7 0h1v1h-1z"/><path d="M130 106h8v22h-8zm15 0h7v1h-7zm7 0h1v1h-1zm21 0h11v22h-11zm11 0h1v22h-1zm6 0h7v1h-7zm7 0h1v1h-1zm5 0h6v1h-6zm6 0h1v1h-1zm5 0h6v1h-6zm6 0h1v22h-1zm6 0h7v1h-7zm7 0h1v1h-1zm6 0h7v10h-7zm14 0h7v1h-7zm7 0h1v1h-1zm27 0h1v1h-1zm14 0h1v1h-1zm5 0h7v1h-7zm7 0h1v22h-1zm6 0h7v1h-7zm7 0h1v1h-1zm5 0h6v1h-6zm11 0h10v1h-10zm10 0h1v1h-1zm19 0h5v1h-5zm5 0h14v1h-14zM9 107h97v1H9zm97 0h1v1h-1zm6 0h6v1h-6zm6 0h1v1h-1z"/><path d="M129 107h10v21h-10zm10 0h1v21h-1zm7 0h4v1h-4zm4 0h1v1h-1zm6 0h10v21h-10zm10 0h1v21h-1zm26 0h4v1h-4zm4 0h1v1h-1zm5 0h6v1h-6zm6 0h1v1h-1zm7 0h6v1h-6zm6 0h1v21h-1zm6 0h5v1h-5zm5 0h1v1h-1zm23 0h4v1h-4zm4 0h1v1h-1zm7 0h7v1h-7zm7 0h1v1h-1zm6 0h7v1h-7zm7 0h1v1h-1zm7 0h7v1h-7zm7 0h1v1h-1zm7 0h6v1h-6zm14 0h4v1h-4zm4 0h1v1h-1zm5 0h7v1h-7zm7 0h1v1h-1zm6 0h8v1h-8zm8 0h1v1h-1zm7 0h7v1h-7zm13 0h3v1h-3zm3 0h1v1h-1zm4 0h12v21h-12zM9 108h93v20H9z"/><path d="M128 108h12v20h-12zm12 0h1v20h-1zm15 0h11v20h-11zm17 0h13v20h-13zm13 0h1v20h-1zm15 0h4v20h-4zm17 0h3v20h-3zm20 0h8v8h-8zm27 0h5v20h-5zm5 0h1v20h-1zm12 0h2v20h-2zm2 0h1v20h-1zm12 0h1v20h-1zm1 0h1v20h-1zm13 0h4v20h-4zm4 0h1v20h-1zm15 0h4v20h-4zm17 0h2v20h-2zm2 0h1v20h-1zm15 0h3v20h-3zm3 0h1v20h-1z"/><path d="M126 109h15v19h-15zm15 0h1v19h-1zm12 0h14v19h-14zm14 0h1v19h-1zm19 0h1v19h-1zm1 0h1v19h-1zm12 0h5v19h-5zm22 0h1v19h-1zm1 0h1v19h-1zm13 0h10v7h-10zm16 0h1v7h-1zm12 0h5v19h-5zm51 0h1v19h-1zm1 0h1v19h-1zm12 0h5v19h-5zm39 0h1v19h-1zm10 0h13v19h-13z"/><path d="M123 110h20v18h-20zm20 0h1v18h-1zm9 0h15v18h-15zm19 0h18v18h-18zm18 0h1v18h-1zm9 0h6v18h-6zm25 0h1v18h-1zm1 0h1v18h-1zm9 0h12v6h-12zm19 0h1v6h-1zm9 0h8v18h-8zm55 0h1v18h-1zm9 0h7v18h-7zm42 0h1v18h-1zm8 0h14v18h-14z"/><path d="M103 111h142v5H103zm150 0h136v5H253zm-150 5h142v1H103zm142 0h1v1h-1zm6 0h138v1H251zm-148 1h140v11H103zm140 0h1v1h-1zm11 0h135v11H254z"/><path d="M243 120h146v8H243zM0 128h389v1H0zm389 0h1v1h-1z"/></g><path d="M47 36h1v1h-1zm-35 1h1v1h-1zm1 0h1v1h-1zm40 0h1v1h-1zm-28 1h1v1h-1zm16 0h3v1h-3zm3 0h1v1h-1zm12 0h1v1h-1zm-32 1h1v1h-1zm30 4h1v1h-1zm2 5h1v1h-1zm7 1h1v2h-1zm0 2h1v1h-1zm-7 2h1v1h-1zm-2 5h1v1h-1zm-3 3h1v1h-1zm-3 1h1v1h-1zm1 0h1v1h-1zm8 0h1v1h-1zm-11 1h1v1h-1zm7 1h1v1h-1zm-4 1h1v1h-1zm-6 1h1v2h-1zm3 0h1v1h-1zm-3 2h1v1h-1zm-6 2h1v1h-1zm8 1h1v1h-1zm8 10h1v1h-1zm-7 1h1v1h-1zm1 1h1v1h-1zm0 1h1v1h-1zm10 2h1v1h-1zm-39 3h1v1h-1zm36 3h1v1h-1zm9 0h1v1h-1zm-48 1h1v1h-1zm12 0h1v1h-1zm38 0h1v2h-1zm1 0h1v2h-1zm-9 2h11v1H57zm11 0h1v1h-1z" fill="#252d94"/><path d="M26 39h13v1H26zm13 0h1v1h-1zm25 8h1v1h-1zm0 6h1v1h-1zm-4 8h1v1h-1zm-26 7h1v1h-1zm7 9h1v1h-1zm15 6h1v1h-1zm5 6h1v1h-1z" fill="#9798c1"/><path d="M45 62h1v1h-1zm2 23h1v1h-1zm7 9h1v1h-1z" fill="#b26f5d"/><path d="M49 35h1v1h-1zm-24 5h1v21h-1zm38 4h1v1h-1zm-8 6h1v2h-1zm0 2h1v1h-1zm-30 9h1v1h-1zm0 7h1v20h-1zm26 9h1v1h-1zM25 88h1v1h-1zm37 2h1v1h-1zm-52 6h1v1h-1zm22 0h1v1h-1z" fill="#8485b7"/><path fill="#cea59b" d="M51 35h1v1h-1z"/><path d="M53 35h8v1h-8zm8 0h1v1h-1zm11 1h1v1h-1zm0 5h1v1h-1zm18 7h1v1h-1zm-4 24h1v1h-1zm8 4h1v1h-1zm-1 3h1v1h-1zm-11 4h1v1h-1zm-41 8h1v1h-1zm-7 3h1v1h-1zm45 0h1v1h-1zm-45 1h1v1h-1zm37 1h1v1h-1z" fill="#f9b980"/><path d="M238 36h1v1h-1zm-34 2h1v1h-1zm10 9h1v1h-1zm7 2h1v1h-1zm-99 1h1v1h-1zm100 0h1v1h-1zm-37 1h1v1h-1zm38 10h1v1h-1zm-71 1h1v2h-1zm0 2h1v1h-1zm73 0h1v1h-1zm-13 15h1v1h-1zm-90 2h1v1h-1zm253 9h1v1h-1zm-209 1h1v1h-1zm97 0h1v1h-1zm106 0h1v1h-1zm-110 1h1v1h-1zm5 0h1v1h-1zm-3 2h1v1h-1zm91 1h1v1h-1zm-186 1h1v1h-1zm145 2h1v1h-1zm-147 2h1v1h-1zm71 1h1v1h-1zm80 1h1v1h-1zm-50 3h1v1h-1zm12 2h1v1h-1zm41 0h1v1h-1zm-92 1h1v1h-1zm31 0h1v1h-1zm-5 1h1v1h-1zm6 1h1v1h-1z" fill="#838282"/><g fill="#231f20"><path d="M209 38h1v1h-1zm27 0h1v1h-1zm-128 1h2v1h-2zm2 0h1v1h-1zm99 0h1v1h-1zm-101 1h1v1h-1zm1 0h1v25h-1zm16 0h1v1h-1zm1 1h1v1h-1zm0 1h1v1h-1zm1 0h1v6h-1zm1 2h1v2h-1zm0 2h1v1h-1zm21 1h1v1h-1zm46 0h1v2h-1zm-69 1h1v1h-1zm1 0h1v1h-1zm11 0h1v1h-1zm1 0h1v15h-1zm15 0h1v1h-1zm1 0h1v17h-1zm13 0h2v1h-2zm2 0h1v2h-1zm11 0h1v1h-1zm13 0h1v1h-1zm28 0h1v1h-1zm-97 1h1v1h-1zm1 0h1v1h-1zm43 0h1v16h-1zm13 0h1v1h-1zm13 0h1v1h-1zm1 0h1v2h-1zm14 0h1v1h-1zm13 0h2v1h-2zm2 0h1v4h-1zm34 0h1v1h-1zm-134 1h1v1h-1zm45 0h1v1h-1zm12 0h1v1h-1zm1 0h1v1h-1zm27 0h1v1h-1zm51 0h1v1h-1zm-151 1h1v1h-1zm73 0h1v1h-1zm13 0h1v1h-1zm65 0h1v1h-1zm-151 1h1v1h-1zm152 0h1v1h-1zm-145 1h1v1h-1zm1 0h1v2h-1zm77 0h1v9h-1zm30 0h1v1h-1zm1 0h1v6h-1zm21 0h1v7h-1zm1 0h1v1h-1zm0 1h11v1h-11zm11 0h1v1h-1zm-141 1h1v1h-1zm1 0h1v1h-1zm0 1h1v1h-1zm1 0h1v1h-1zm0 1h1v1h-1zm1 0h1v1h-1zm0 1h1v1h-1zm1 1h1v1h-1zm104 0h1v1h-1zm-104 1h1v1h-1zm1 0h1v1h-1zm102 0h1v1h-1zm22 0h1v1h-1zm-124 1h1v1h-1zm1 0h1v1h-1zm101 0h1v1h-1zm23 0h1v1h-1zm-124 1h1v1h-1zm1 0h1v2h-1zm29 0h1v1h-1zm41 0h1v1h-1zm15 0h1v1h-1zm14 0h1v1h-1zm24 0h1v1h-1zm-109 1h1v1h-1zm12 0h1v1h-1zm45 0h1v2h-1zm14 0h1v2h-1zm14 0h1v1h-1zm-116 1h1v1h-1zm17 0h1v1h-1zm1 0h2v1h-2zm2 0h1v1h-1zm53 0h2v1h-2zm2 0h1v1h-1zm40 0h1v1h-1zm13 0h2v1h-2zm2 0h1v1h-1zm-130 1h2v1h-2zm2 0h1v1h-1zm16 0h1v1h-1zm1 0h1v1h-1zm23 0h1v1h-1zm5 0h1v1h-1zm13 0h2v1h-2zm2 0h1v1h-1zm12 0h1v1h-1zm1 0h1v1h-1zm13 0h1v1h-1zm1 0h1v1h-1zm13 0h1v1h-1zm24 0h3v1h-3zm3 0h1v1h-1zm16 0h1v1h-1zm-43 16h1v1h-1zm-102 1h2v1h-2zm2 0h1v1h-1zm-3 1h2v1h-2zm2 0h1v25h-1zm19 3h1v1h-1zm1 1h1v1h-1zm0 1h1v1h-1zm1 0h1v2h-1zm237 0h1v19h-1zm-1 1h1v1h-1zm-236 1h1v1h-1zm1 0h1v11h-1zm231 0h1v1h-1z"/><path d="M366 90h2v1h-2zm2 0h1v1h-1zm-206 1h3v1h-3zm3 0h1v1h-1zm12 0h2v1h-2zm2 0h1v1h-1zm69 0h1v26h-1zm12 0h1v1h-1zm14 0h1v1h-1zm1 0h1v17h-1zm12 0h1v1h-1zm14 0h1v1h-1zm17 0h1v1h-1zm-156 1h1v1h-1zm1 0h1v2h-1zm98 0h1v1h-1zm1 0h1v1h-1zm26 0h1v1h-1zm14 0h1v2h-1zm36 0h1v1h-1zm15 0h1v1h-1zm-154 1h1v1h-1zm23 0h1v1h-1zm13 0h1v1h-1zm14 0h1v1h-1zm13 0h1v2h-1zm1 0h1v1h-1zm13 0h1v1h-1zm13 0h1v1h-1zm38 0h1v1h-1zm12 0h1v1h-1zm14 0h1v1h-1zm-199 1h1v1h-1zm9 0h1v1h-1zm23 0h1v3h-1zm50 0h1v1h-1zm27 0h1v1h-1zm38 0h1v1h-1zm1 0h1v1h-1zm37 0h1v1h-1zm-199 1h1v2h-1zm14 0h1v1h-1zm10 0h1v1h-1zm36 0h1v1h-1zm21 0h1v2h-1zm15 0h1v1h-1zm26 0h2v1h-2zm2 0h1v9h-1zm64 0h1v1h-1zm27 0h1v11h-1zm-191 1h1v1h-1z"/><path d="M185 96h2v1h-2zm2 0h1v1h-1zm50 0h1v7h-1zm76 0h1v7h-1zm1 0h1v1h-1zm40 0h1v12h-1zm-211 1h9v1h-9zm9 0h1v1h-1zm13 0h1v2h-1zm20 0h12v1h-12zm12 0h1v1h-1zm23 0h1v5h-1zm1 0h1v1h-1zm93 0h11v1h-11zm11 0h1v1h-1zm-186 1h1v3h-1zm26 1h1v1h-1zm20 0h1v4h-1zm-55 1h1v2h-1zm36 0h1v1h-1zm-35 1h1v1h-1zm8 0h1v1h-1zm1 0h1v3h-1zm26 0h1v1h-1zm-36 1h1v1h-1zm8 0h2v1h-2zm30 0h1v1h-1zm52 0h2v1h-2zm2 0h1v1h-1zm-93 1h1v1h-1zm56 0h1v1h-1zm1 0h1v2h-1zm35 0h1v2h-1zm16 0h1v1h-1zm76 0h1v1h-1zm-185 1h1v1h-1zm1 0h1v1h-1zm11 0h1v1h-1zm96 0h1v1h-1zm28 0h1v1h-1zm50 0h1v1h-1zm-188 1h2v1h-2zm2 0h1v1h-1zm13 0h1v1h-1zm27 0h1v1h-1zm3 0h1v1h-1zm15 0h1v1h-1zm35 0h1v1h-1zm15 0h1v1h-1zm78 0h1v1h-1zm-187 1h1v1h-1zm14 0h1v1h-1zm27 0h1v1h-1zm1 0h1v2h-1zm66 0h1v1h-1zm14 0h1v1h-1zm13 0h1v1h-1zm27 0h1v2h-1zm66 0h1v1h-1zm-230 1h1v1h-1zm17 0h1v1h-1zm12 0h1v1h-1zm16 0h1v1h-1zm18 0h1v1h-1zm22 0h2v1h-2zm2 0h1v1h-1zm37 0h1v1h-1zm12 0h1v1h-1zm41 0h1v1h-1zm24 0h1v1h-1zm13 0h1v1h-1zm28 0h1v1h-1zm-259 1h1v1h-1zm1 0h1v1h-1zm60 0h1v1h-1zm39 0h3v1h-3zm3 0h1v1h-1zm42 0h1v1h-1zm21 0h2v1h-2zm2 0h1v1h-1zm12 0h2v1h-2zm12 0h3v1h-3zm3 0h1v1h-1zm16 0h1v1h-1zm19 0h1v1h-1zm1 0h1v1h-1zm14 0h1v1h-1zm1 0h1v1h-1zm14 0h1v1h-1zm6 0h1v1h-1zm-126 9h1v1h-1z"/></g><path d="M231 38h1v1h-1zm-26 1h1v1h-1zm1 0h1v1h-1zm26 0h2v1h-2zm2 0h1v1h-1zm-112 1h1v1h-1zm3 4h1v2h-1zm0 2h1v1h-1zm9 0h5v1h-5zm5 0h1v1h-1zm11 0h5v1h-5zm5 0h1v1h-1zm14 0h1v1h-1zm1 0h1v1h-1zm8 0h1v1h-1zm1 0h1v1h-1zm12 0h2v1h-2zm2 0h1v1h-1zm25 0h2v1h-2zm2 0h1v1h-1zm34 0h2v1h-2zm2 0h1v1h-1zm-74 1h1v1h-1zm-46 1h1v1h-1zm17 1h1v1h-1zm59 1h1v1h-1zm-88 2h1v1h-1zm121 2h1v1h-1zm4 5h1v1h-1zm-128 2h1v1h-1zm16 0h1v1h-1zm16 0h1v1h-1zm109 3h1v1h-1zm-76 1h1v1h-1zm45 1h1v1h-1zm26 1h1v1h-1zm-52 14h1v1h-1zm1 1h2v1h-2zm2 0h1v1h-1zm-61 7h1v1h-1zm1 0h1v1h-1zm44 0h2v1h-2zm2 0h1v1h-1zm34 0h2v1h-2zm2 0h1v1h-1zm27 0h1v1h-1zm1 0h1v1h-1zm26 0h1v1h-1zm1 0h1v1h-1zm13 0h1v1h-1zm1 0h1v1h-1zm21 0h2v1h-2zm2 0h1v1h-1zm26 0h2v1h-2zm2 0h1v1h-1zm-199 3h1v1h-1zm70 0h1v1h-1zm4 0h1v1h-1zm25 0h1v1h-1zm4 0h1v1h-1zm23 0h1v1h-1zm2 1h1v1h-1zm-81 2h1v1h-1zm25 0h1v1h-1zm43 1h1v1h-1zm21 0h1v9h-1zm65 0h1v9h-1zm-176 1h1v1h-1zm7 2h1v1h-1zm52 0h1v1h-1zm4 0h1v1h-1zm-56 1h1v1h-1zm52 0h1v1h-1zm-107 1h1v1h-1zm59 0h1v1h-1zm-55 1h1v1h-1zm-5 1h1v1h-1zm74 1h1v1h-1zm128 0h1v1h-1zm-42 1h1v1h-1zm65 0h1v1h-1zm-230 2h1v1h-1zm253 0h1v1h-1zm-228 1h1v1h-1zm48 0h1v1h-1zm55 0h1v1h-1zm42 0h1v1h-1zm7 0h1v1h-1zm28 0h1v1h-1zm30 0h1v1h-1zm19 0h1v1h-1zm-171 1h1v1h-1zm118 1h1v1h-1zm46 0h1v1h-1zm3 0h1v1h-1z" fill="#949393"/><path d="M124 40h1v1h-1zm112 0h1v22h-1zm-110 7h1v1h-1zm54 1h1v1h-1zm30 0h1v1h-1zm-29 1h1v1h-1zm-11 2h1v11h-1zm78 1h1v1h-1zm13 0h1v1h-1zm-36 3h1v1h-1zm-102 3h1v1h-1zm102 0h1v1h-1zm-15 2h1v1h-1zm38 0h1v1h-1zm-78 2h1v1h-1zm66 0h1v1h-1zm-112 1h1v1h-1zm58 0h2v1h-2zm2 0h1v1h-1zm13 1h1v1h-1zm-16 1h1v1h-1zm41 0h1v1h-1zm16 0h1v1h-1zM107 82h1v1h-1zm17 1h1v1h-1zm86 0h1v22h-1zm157 4h1v1h-1zm-15 3h1v1h-1zm-66 1h1v1h-1zm-109 1h1v1h-1zm21 0h1v1h-1zm-66 1h1v1h-1zm21 0h1v1h-1zm1 0h1v1h-1zm161 0h1v1h-1zm-174 1h1v1h-1zm23 0h1v1h-1zm35 0h2v1h-2zm2 0h1v1h-1zm19 0h1v2h-1zm106 0h2v1h-2zm2 0h1v1h-1zm25 0h1v1h-1zm-41 1h1v1h-1zm-113 1h1v1h-1zm21 0h1v1h-1zm107 0h1v1h-1zm-163 1h1v1h-1zm37 0h1v1h-1zm-71 1h2v1h-2zm2 0h1v1h-1zm6 0h1v1h-1zm127 3h1v1h-1zm-124 3h1v1h-1zm44 0h1v1h-1zm127 0h1v1h-1zm-102 1h1v1h-1zm12 0h1v1h-1zm27 0h1v1h-1zm89 1h2v1h-2zm2 0h1v1h-1zm-214 1h1v1h-1zm240 0h1v1h-1zm-154 1h1v1h-1zm79 0h1v1h-1zm-42 9h1v1h-1z" fill="#1d181a"/><path d="M17 43h1v1h-1zm38 6h1v1h-1zM38 73h1v1h-1z" fill="#7878af"/><path d="M64 35h1v1h-1zm9 1h1v1h-1zm6 2h1v1h-1zm-2 6h1v1h-1zm11 1h1v1h-1zm-3 11h1v1h-1zm9 0h1v1h-1zm-8 5h1v1h-1zm0 10h1v1h-1zm-1 5h1v1h-1zm-2 5h1v1h-1zM72 96h1v1h-1z" fill="#fbcba6"/><path d="M210 36h1v1h-1zm27 0h1v1h-1zm-2 4h1v1h-1zm-49 10h1v1h-1zm64 0h1v1h-1zm-127 2h1v1h-1zm101 6h1v1h-1zm-100 1h1v1h-1zm125 1h1v1h-1zm-68 3h1v1h-1zm40 1h1v1h-1zm-22 1h1v1h-1zm16 0h1v1h-1zm-4 14h1v1h-1zm-91 2h1v1h-1zm89 2h1v1h-1zm45 7h1v1h-1zm61 1h1v1h-1zm-182 2h1v1h-1zm9 1h1v1h-1zm35 0h1v1h-1zm-48 4h1v1h-1zm137 3h1v1h-1zm-94 1h1v1h-1zm-30 2h1v1h-1zm171 2h1v1h-1zm-190 1h1v1h-1zm112 1h1v1h-1zm116 0h1v1h-1zm-71 1h1v1h-1z" fill="#4c4a4a"/><path d="M54 37h1v1h-1zm1 0h1v1h-1zm2 1h1v1h-1zm-11 1h2v1h-2zm2 0h1v1h-1zm10 0h1v1h-1zM42 63h3v1h-3zm3 0h1v1h-1zm-1 3h1v1h-1zm1 0h1v1h-1zm1 6h1v1h-1zm1 1h1v1h-1zm1 1h1v1h-1zm-4 6h1v1h-1zm1 1h1v1h-1zm3 4h1v1h-1zm1 1h1v1h-1zm5 7h1v1h-1zm13 0h1v1h-1zm1 0h1v1h-1zm-13 1h1v1h-1zm1 1h1v1h-1z" fill="#1c2a96"/><path d="M56 37h1v1h-1zm-14 2h1v1h-1zm1 0h1v1h-1zm6 22h1v1h-1zm6 34h1v1h-1z" fill="#7d547b"/><path d="M210 37h1v1h-1zm25 0h1v1h-1zm1 0h1v1h-1zm-114 2h3v1h-3zm3 0h1v1h-1zm43 8h1v1h-1zm1 0h1v1h-1zm8 0h1v1h-1zm-40 1h1v1h-1zm28 0h1v1h-1zm11 0h1v1h-1zm3 0h1v1h-1zm14 0h1v1h-1zm22 0h1v1h-1zm8 0h1v1h-1zm28 0h1v1h-1zm7 0h1v1h-1zm-134 1h1v1h-1zm63 0h1v1h-1zm35 0h1v1h-1zm28 0h1v1h-1zm-124 1h1v1h-1zm42 0h1v13h-1zm3 0h1v1h-1zm1 0h1v1h-1zm88 0h1v1h-1zm-36 2h1v1h-1zm-114 1h1v1h-1zm9 4h1v1h-1zm19 5h1v1h-1zm-11 1h1v1h-1zm11 0h1v1h-1zm30 0h1v1h-1zm-58 1h1v1h-1zm125 0h1v1h-1zm-106 1h1v1h-1zm14 0h1v1h-1zm71 0h1v1h-1zm5 1h1v1h-1zm1 0h1v1h-1zm-11 14h1v1h-1zm1 0h1v1h-1zm-84 5h1v1h-1zm4 2h1v1h-1zm129 3h1v1h-1zm16 0h1v1h-1zm8 0h1v1h-1zm12 0h2v1h-2zm2 0h1v1h-1zm-155 1h1v1h-1zm9 0h1v1h-1zm9 0h1v1h-1zm63 0h1v1h-1zm23 0h1v1h-1zm36 0h1v1h-1zm3 0h1v1h-1zm3 0h1v1h-1zm8 0h1v1h-1zm3 0h1v1h-1zm18 0h1v1h-1zm18 0h1v1h-1zm14 0h1v1h-1zm1 0h1v1h-1zm-186 1h1v1h-1zm12 0h1v1h-1zm84 0h1v1h-1zm29 0h1v1h-1zm38 0h1v1h-1zm-163 1h1v1h-1zm12 0h1v1h-1zm22 0h1v1h-1zm52 0h1v1h-1zm27 0h1v1h-1zm49 0h1v1h-1zm26 0h1v1h-1zm-199 1h1v1h-1zm34 0h1v1h-1zm-46 1h1v1h-1zm81 1h1v1h-1zm41 1h1v1h-1zm49 0h1v1h-1zm-148 1h1v1h-1zm20 0h2v1h-2zm2 0h1v2h-1zm33 0h1v1h-1zm19 0h1v1h-1zm-109 2h1v1h-1zm57 0h1v1h-1zm33 1h1v1h-1zm19 0h1v1h-1zm76 0h1v1h-1zm-183 1h1v1h-1zm-3 1h1v1h-1zm13 0h1v1h-1zm46 1h1v1h-1zm33 0h2v1h-2zm2 0h1v1h-1zm27 0h1v1h-1zm-120 1h1v1h-1zm38 0h1v1h-1zm95 0h2v1h-2zm2 0h1v1h-1zm-136 1h1v1h-1zm162 0h1v1h-1zm78 0h1v1h-1zm-159 1h1v1h-1zm13 0h1v1h-1zm-100 1h1v1h-1zm23 0h1v1h-1zm114 0h1v1h-1zm108 0h1v1h-1zm-216 1h1v1h-1zm95 9h1v1h-1zm4 0h1v1h-1z" fill="#090000"/><path d="M122 38h1v1h-1zm86 2h1v25h-1zm-80 1h1v1h-1zm1 2h1v1h-1zm122 4h1v1h-1zm8 0h1v1h-1zm-92 2h1v1h-1zm13 0h1v1h-1zm5 0h1v1h-1zm-14 2h1v1h-1zm53 3h1v1h-1zm38 8h1v1h-1zm-121 1h1v1h-1zm71 0h1v1h-1zm23 0h1v1h-1zm12 0h1v1h-1zm-49 1h1v1h-1zm13 0h2v1h-2zm2 0h1v1h-1zm-33 1h1v1h-1zm28 0h1v1h-1zm50 0h1v1h-1zm-110 1h1v1h-1zm74 0h1v1h-1zm37 0h1v1h-1zM122 83h1v1h-1zm6 1h1v1h-1zm2 2h1v1h-1zm151 4h1v1h-1zm-103 2h1v1h-1zm19 0h1v1h-1zm46 0h1v1h-1zm37 0h1v1h-1zm64 0h1v1h-1zm-52 1h1v1h-1zm-159 1h1v1h-1zm117 0h1v1h-1zm91 0h1v1h-1zm-26 1h1v1h-1zm-159 1h1v1h-1zm42 0h1v1h-1zm21 0h1v1h-1zm-86 1h1v1h-1zm23 0h1v1h-1zm18 0h1v1h-1zm-7 2h1v1h-1zm52 4h1v1h-1zm96 0h1v1h-1zm-149 1h1v1h-1zm-10 1h1v1h-1zm53 1h1v1h-1zm118 0h1v1h-1zm-129 1h1v1h-1zm89 0h1v1h-1zm65 0h1v1h-1zm17 0h1v1h-1zm-258 1h1v1h-1zm6 0h1v1h-1zm9 0h1v1h-1zm179 0h1v1h-1zm10 0h1v1h-1zm9 0h1v1h-1zm46 0h1v1h-1zm-181 1h1v1h-1zm35 0h1v1h-1z" fill="#3d3b3b"/><path d="M121 40h1v1h-1zm3 2h1v1h-1zm92 4h1v1h-1zm42 0h1v1h-1zm-101 1h1v15h-1zm-34 2h1v1h-1zm-12 1h1v1h-1zm76 0h1v1h-1zm76 0h1v1h-1zm-13 1h1v1h-1zm-130 2h1v1h-1zm144 0h1v1h-1zm-148 2h1v1h-1zm133 0h1v1h-1zm-21 2h1v1h-1zm-5 3h1v1h-1zm27 1h1v1h-1zm-93 1h1v1h-1zm-14 2h1v1h-1zm71 0h1v1h-1zm6 0h1v1h-1zm-46 1h1v1h-1zm17 0h1v1h-1zm69 1h1v1h-1zm-156 1h1v1h-1zm22 0h1v1h-1zm21 0h1v1h-1zm26 0h1v1h-1zm14 0h1v1h-1zm5 0h1v1h-1zm9 0h1v1h-1zm8 0h1v1h-1zm23 0h1v1h-1zm9 0h1v1h-1zm128 21h1v1h-1zm-87 1h1v1h-1zm42 0h1v1h-1zm-152 1h1v1h-1zm78 0h1v1h-1zm-92 1h1v1h-1zm-3 1h1v1h-1zm77 0h1v1h-1zm53 0h1v1h-1zm84 0h1v1h-1zm-136 1h1v1h-1zm67 0h1v1h-1zm-22 1h1v1h-1zm-112 1h1v1h-1zm36 0h1v1h-1zm32 0h1v1h-1zm16 0h1v8h-1zm-27 1h1v1h-1zm88 0h1v1h-1zm-93 2h1v1h-1zm44 0h1v1h-1zm53 1h1v1h-1zm-187 1h1v1h-1zm40 0h1v1h-1zm7 0h1v1h-1zm43 1h1v1h-1zm-47 2h1v1h-1zm79 0h1v1h-1zm61 0h1v1h-1zm-185 1h1v1h-1zm108 0h1v1h-1zm135 1h1v1h-1zm-4 1h1v1h-1zm-193 1h1v1h-1zm-5 1h1v1h-1zm127 0h1v1h-1zm-169 1h1v1h-1zm-21 1h1v1h-1zm65 0h1v1h-1zm21 0h1v1h-1zm16 0h1v1h-1zm9 0h1v1h-1zm17 0h1v1h-1zm18 0h1v6h-1zm43 0h1v1h-1zm5 0h1v1h-1zm9 0h1v1h-1zm27 0h1v1h-1zm9 0h1v1h-1zm6 0h1v1h-1zm19 0h1v1h-1zm-118 6h1v1h-1z" fill="#d8d7d7"/><path d="M56 36h10v1H56zm10 0h1v1h-1zm-8 1h1v1h-1zm14 0h3v1h-3zm3 0h1v1h-1zm1 1h1v1h-1zm-15 1h1v1h-1zm6 0h1v1h-1zm1 0h1v1h-1zm11 0h1v1h-1zm-37 1h4v1h-4zm4 0h1v1h-1zm25 0h1v1h-1zm1 0h1v1h-1zm-30 1h1v1h-1zm6 0h1v1h-1zm35 0h1v1h-1zm-41 1h1v1h-1zm34 0h1v1h-1zm8 0h1v1h-1zm-7 1h1v1h-1zm2 2h1v1h-1zm1 1h1v1h-1zm2 2h1v1h-1zm7 0h1v1h-1zm-6 2h1v1h-1zm1 1h1v1h-1zm7 0h1v1h-1zm-7 1h1v1h-1zm1 1h1v1h-1zm7 0h1v1h-1zm-7 1h1v1h-1zm8 1h1v1h-1zm-7 1h1v1h-1zm7 0h1v1h-1zm-7 1h1v1h-1zm8 1h1v4h-1zm-7 2h1v3h-1zm-42 1h1v1h-1zm1 0h1v1h-1zm48 1h1v1h-1zm-7 1h1v1h-1zm-42 5h1v1h-1zm42 1h1v3h-1zm-40 2h1v1h-1zm47 0h1v2h-1zm-46 1h1v1h-1zm39 0h1v1h-1zm7 1h1v1h-1zm-8 2h1v1h-1zm0 1h1v1h-1zm7 0h1v1h-1zm-8 2h1v1h-1zm0 1h1v1h-1zm7 0h1v1h-1zm-8 1h1v1h-1zm8 0h1v1h-1zm-49 1h1v1h-1zm41 0h1v1h-1zm-38 4h1v1h-1zm35 0h1v1h-1zm8 0h1v1h-1zm-42 1h1v1h-1zm41 0h1v1h-1zm-8 1h1v1h-1zm-1 1h1v1h-1zm8 0h1v1h-1zm-1 1h1v1h-1zm-44 1h1v1h-1zm34 0h1v1h-1zm-34 1h1v1h-1zm31 0h1v1h-1zm1 0h1v1h-1zm9 0h1v1h-1zm-2 1h1v1h-1zm1 0h1v1h-1zm-42 1h1v1h-1zm10 0h2v1h-2zm2 0h1v1h-1zm27 0h1v1h-1zm-44 1h1v1h-1zm18 0h1v1h-1zm23 0h2v1h-2zm2 0h1v1h-1zm-43 1h1v1h-1zm19 0h1v1h-1zm17 0h1v1h-1zm1 0h2v1h-2zm2 0h1v1h-1z" fill="#f78f00"/><path d="M208 37h1v1h-1zm-104 1h16v1h-16zm16 0h1v1h-1zm85 0h2v1h-2zm2 0h1v1h-1zm25 0h2v1h-2zm2 0h1v1h-1zm-123 1h10v1h-10zm10 0h1v1h-1zm-11 1h1v10h-1zm15 2h1v1h-1zm3 0h1v1h-1zm1 2h1v2h-1zm0 2h1v1h-1zm4 1h3v1h-3zm3 0h1v1h-1zm4 0h1v15h-1zm10 0h2v1h-2zm2 0h1v1h-1zm4 0h1v17h-1zm20 0h1v1h-1zm13 0h1v1h-1zm1 0h1v1h-1zm4 0h1v1h-1zm22 0h3v1h-3zm3 0h2v1h-2zm2 0h1v1h-1zm31 0h6v1h-6zm6 0h1v1h-1zm-133 1h1v1h-1zm3 0h1v1h-1zm25 0h1v1h-1zm13 0h1v1h-1zm8 0h1v1h-1zm1 0h1v1h-1zm7 0h1v1h-1zm5 0h2v1h-2zm2 0h1v1h-1zm7 0h1v1h-1zm17 0h1v1h-1zm1 0h1v1h-1zm36 0h1v1h-1zm10 0h1v1h-1zm-88 1h1v1h-1zm1 0h1v1h-1zm10 0h1v1h-1zm3 0h1v1h-1zm11 0h1v1h-1zm15 0h1v1h-1zm49 0h1v1h-1zm-151 1h1v1h-1zm44 0h2v1h-2zm31 0h1v1h-1zm10 0h2v1h-2zm2 0h1v1h-1zm65 0h1v1h-1zm-141 1h1v1h-1zm4 0h1v1h-1zm29 0h2v1h-2zm72 0h1v1h-1zm21 0h2v1h-2zm2 0h1v1h-1zm11 0h1v1h-1zm-149 1h3v1h-3zm3 0h1v1h-1zm6 0h1v1h-1zm1 0h1v1h-1zm33 0h2v1h-2zm0 1h2v1h-2zm92 0h1v1h-1zm17 0h1v1h-1zm-153 1h1v9h-1zm44 0h2v1h-2zm73 0h1v5h-1zm-107 1h1v1h-1zm34 0h2v1h-2zm94 0h1v3h-1zm-130 1h1v1h-1zm3 0h1v1h-1zm33 0h2v1h-2zm-32 1h1v1h-1zm32 0h2v1h-2zm0 1h2v1h-2zm94 0h1v1h-1zm-94 1h2v1h-2zm73 0h1v1h-1zm-106 1h1v1h-1zm33 0h2v1h-2zm70 0h1v1h-1zm22 0h1v1h-1zm-124 1h1v1h-1zm3 0h1v1h-1zm101 0h1v1h-1zm23 0h1v1h-1zm-123 1h1v1h-1zm14 0h1v1h-1zm13 0h1v1h-1zm94 0h1v1h-1zm16 0h1v1h-1zm-153 1h1v1h-1zm115 0h1v1h-1zm25 0h1v2h-1zm12 0h1v1h-1zm-138 1h1v1h-1zm26 0h1v1h-1zm1 0h1v1h-1zm3 0h2v1h-2zm2 0h1v1h-1zm28 0h1v2h-1zm11 0h1v2h-1zm29 0h1v1h-1zm27 0h1v1h-1zm10 0h1v1h-1zm-136 1h1v1h-1zm23 0h1v1h-1zm1 0h1v1h-1zm5 0h1v1h-1zm59 0h1v1h-1zm10 0h1v1h-1zm27 0h1v1h-1zm9 0h1v1h-1zm1 0h1v1h-1zm-156 1h10v1h-10zm10 0h1v1h-1zm12 0h5v1h-5zm5 0h1v1h-1zm10 0h1v1h-1zm5 0h1v1h-1zm1 0h1v1h-1zm7 0h1v1h-1zm4 0h1v1h-1zm1 0h1v1h-1zm5 0h9v1h-9zm9 0h1v1h-1zm5 0h9v1h-9zm9 0h1v1h-1zm5 0h9v1h-9zm9 0h1v1h-1zm8 0h1v1h-1zm6 0h3v1h-3zm3 0h1v1h-1zm3 0h1v1h-1zm11 0h9v1h-9zm9 0h1v1h-1zm11 0h6v1h-6zm6 0h1v1h-1zM104 81h13v1h-13zm13 0h1v1h-1zm89 0h2v1h-2zm2 0h1v1h-1zm-97 1h10v1h-10zm10 0h2v1h-2zm2 0h1v1h-1zm-13 1h1v24h-1zm13 0h1v1h-1zm3 0h1v1h-1zm242 0h1v6h-1zm-1 3h1v1h-1zm-239 2h1v1h-1zm3 0h1v1h-1zm237 1h1v1h-1zm-239 1h1v1h-1zm3 0h1v1h-1zm13 0h6v1h-6zm6 0h1v1h-1zm8 0h8v1h-8zm8 0h1v1h-1zm6 0h7v1h-7zm7 0h1v1h-1zm10 0h6v1h-6zm6 0h1v1h-1zm30 0h6v1h-6zm6 0h1v1h-1zm16 0h1v1h-1zm1 0h1v1h-1zm6 0h1v1h-1zm1 0h1v1h-1zm4 0h1v1h-1zm16 0h1v1h-1zm6 0h1v1h-1zm36 0h6v1h-6zm6 0h1v1h-1zm14 0h1v1h-1zm1 0h1v1h-1zm7 0h1v1h-1zm1 0h1v1h-1zm4 0h1v1h-1zm12 0h1v1h-1zm1 0h1v1h-1zm5 0h5v1h-5zm5 0h1v1h-1zm-242 1h1v1h-1zm12 0h1v1h-1zm44 0h1v1h-1zm10 0h1v1h-1zm27 0h1v1h-1zm7 0h2v1h-2zm2 0h1v2h-1zm9 0h2v1h-2zm2 0h1v1h-1zm4 0h1v1h-1zm4 0h2v1h-2zm2 0h1v1h-1zm7 0h1v1h-1zm14 0h1v1h-1zm4 0h1v1h-1zm1 0h1v1h-1zm12 0h2v1h-2zm2 0h1v1h-1zm7 0h1v1h-1zm14 0h1v1h-1zm10 0h1v1h-1zm10 0h1v1h-1zm8 0h2v1h-2zm2 0h1v1h-1zm7 0h1v1h-1zm-212 1h1v1h-1zm13 0h1v1h-1zm68 0h2v1h-2zm2 0h1v1h-1zm28 0h1v1h-1zm11 0h1v1h-1zm15 0h1v1h-1zm1 0h1v1h-1zm13 0h1v1h-1zm1 0h1v1h-1zm10 0h1v1h-1zm39 0h1v1h-1zm1 0h1v1h-1zm11 0h1v1h-1zm12 0h2v1h-2zm2 0h1v13h-1zm-228 1h2v1h-2zm2 0h1v1h-1zm35 0h1v1h-1zm23 0h1v1h-1zm21 0h1v1h-1zm13 0h1v1h-1zm13 0h1v23h-1zm4 0h1v1h-1zm10 0h1v1h-1zm3 0h1v1h-1zm10 0h1v13h-1zm4 0h1v1h-1zm13 0h1v1h-1zm10 0h1v1h-1zm27 0h1v1h-1zm13 0h1v1h-1zm25 0h2v1h-2zm-211 1h1v1h-1zm7 0h1v1h-1zm23 0h1v1h-1zm52 0h1v1h-1zm76 0h2v1h-2zm2 0h1v1h-1zm51 0h2v1h-2zm-227 1h1v1h-1zm14 0h1v1h-1zm12 0h1v1h-1zm11 0h1v1h-1zm25 0h1v1h-1zm34 0h1v1h-1zm14 0h1v8h-1zm16 0h1v1h-1zm11 0h1v11h-1zm90 0h2v1h-2zm-203 1h1v1h-1zm12 0h1v2h-1zm26 0h1v1h-1zm37 0h1v1h-1zm74 0h1v1h-1zm17 0h1v1h-1zm37 0h2v1h-2zm-182 1h1v1h-1zm54 0h1v1h-1zm128 0h2v1h-2zm-200 1h1v1h-1zm8 0h1v2h-1zm1 0h1v1h-1zm88 0h1v4h-1zm51 0h1v2h-1zm52 0h2v1h-2zm-147 1h1v1h-1zm147 0h2v1h-2zm-199 1h1v1h-1zm6 0h1v2h-1zm1 0h1v1h-1zm45 0h1v1h-1zm95 0h1v1h-1zm52 0h2v1h-2zm-201 1h1v1h-1zm201 0h2v1h-2zm-193 1h1v1h-1zm11 0h1v1h-1zm54 0h1v1h-1zm25 0h1v1h-1zm103 0h2v1h-2zm-200 1h2v1h-2zm2 0h1v1h-1zm4 0h1v2h-1zm15 0h1v1h-1zm51 0h1v1h-1zm11 0h1v1h-1zm16 0h1v1h-1zm47 0h1v1h-1zm54 0h2v1h-2zm-239 1h1v1h-1zm3 0h1v1h-1zm9 0h1v1h-1zm96 0h1v1h-1zm30 0h1v1h-1zm50 0h1v1h-1zm51 0h2v1h-2zm-224 1h1v1h-1zm13 0h1v1h-1zm14 0h1v1h-1zm3 0h1v1h-1zm13 0h1v1h-1zm16 0h1v1h-1zm19 0h1v1h-1zm17 0h1v1h-1zm76 0h1v1h-1zm16 0h1v1h-1zm37 0h2v1h-2zm2 0h1v1h-1zm-228 1h1v1h-1zm14 0h1v1h-1zm46 0h1v1h-1zm21 0h2v1h-2zm2 0h1v2h-1zm11 0h1v2h-1zm16 0h1v1h-1zm11 0h1v1h-1zm13 0h2v1h-2zm2 0h1v1h-1zm40 0h1v2h-1zm12 0h1v1h-1zm38 0h1v1h-1zm-256 1h1v2h-1zm14 0h1v1h-1zm3 0h1v1h-1zm14 0h1v1h-1zm12 0h1v1h-1zm18 0h1v1h-1zm18 0h1v1h-1zm10 0h1v1h-1zm52 0h1v1h-1zm9 0h1v1h-1zm3 0h1v1h-1zm27 0h1v2h-1zm11 0h1v2h-1zm16 0h1v1h-1zm10 0h1v1h-1zm13 0h1v2h-1zm-219 1h1v1h-1zm4 0h1v1h-1zm17 0h1v1h-1zm26 0h1v1h-1zm20 0h1v1h-1zm9 0h1v1h-1zm1 0h1v1h-1zm25 0h1v1h-1zm11 0h1v1h-1zm18 0h1v1h-1zm10 0h1v1h-1zm54 0h1v1h-1zm9 0h1v1h-1zm1 0h1v1h-1zm49 0h1v1h-1zm-271 1h16v1h-16zm16 0h1v1h-1zm25 0h5v1h-5zm5 0h1v1h-1zm19 0h1v1h-1zm1 0h1v1h-1zm20 0h6v1h-6zm6 0h1v1h-1zm10 0h9v1h-9zm9 0h1v1h-1zm10 0h7v1h-7zm7 0h1v1h-1zm17 0h1v7h-1zm5 0h3v1h-3zm3 0h1v1h-1zm14 0h8v1h-8zm8 0h1v1h-1zm5 0h9v1h-9zm9 0h1v1h-1zm5 0h9v1h-9zm9 0h1v1h-1zm11 0h6v1h-6zm6 0h1v1h-1zm10 0h9v1h-9zm9 0h1v1h-1zm6 0h9v1h-9zm9 0h1v1h-1zm10 0h1v1h-1zm3 0h2v1h-2zm2 0h1v1h-1zm-126 7h2v1h-2zm2 0h1v1h-1zm-6 2h2v1h-2zm2 0h1v1h-1zm6 0h2v1h-2zm2 0h1v1h-1z"/><path d="M235 39h1v1h-1zm-111 2h1v1h-1zm51 6h1v1h-1zm-2 1h1v1h-1zm40 1h1v1h-1zm10 2h1v1h-1zm-101 1h1v1h-1zm62 0h1v1h-1zm65 1h1v1h-1zm11 0h1v1h-1zm-36 6h1v1h-1zm-101 4h1v1h-1zm30 0h1v1h-1zm108 0h1v1h-1zm-117 2h2v1h-2zm2 0h1v1h-1zm11 0h1v1h-1zm82 0h1v1h-1zm10 0h1v1h-1zm-89 1h1v1h-1zm54 0h1v1h-1zm-95 15h1v1h-1zm-13 1h1v1h-1zm103 0h1v1h-1zm-85 2h1v1h-1zm3 3h1v1h-1zm134 3h1v1h-1zm64 0h1v1h-1zm-150 1h1v1h-1zm78 1h1v1h-1zm84 0h1v1h-1zm-182 1h1v1h-1zm132 0h1v1h-1zm53 0h1v1h-1zm-117 1h1v1h-1zm-90 1h1v1h-1zm168 0h1v10h-1zm-168 1h1v1h-1zm102 0h1v1h-1zm55 0h1v9h-1zm36 0h1v1h-1zm-197 3h1v1h-1zm106 4h1v1h-1zm27 1h1v1h-1zm-74 1h1v1h-1zm102 0h1v1h-1zm11 0h1v1h-1zm-194 2h1v1h-1zm129 0h1v1h-1zm68 0h1v1h-1zm33 0h1v1h-1zm-219 1h1v1h-1zm95 0h1v1h-1zm45 0h1v1h-1zm83 0h1v1h-1zm-219 1h1v1h-1zm111 0h1v1h-1zm84 0h1v1h-1zm8 0h1v1h-1zm49 0h1v1h-1z" fill="#353233"/><path d="M10 35h1v1h-1zm0 58h1v1h-1zm22 0h1v2h-1zm0 2h1v1h-1z" fill="#000084"/><path d="M10 37h1v1h-1zm5 1h1v1h-1zm47 5h1v1h-1zm-7 3h1v1h-1zm0 1h1v1h-1zm0 7h1v1h-1zm0 1h1v1h-1zm7 2h1v1h-1zm-2 3h1v1h-1zm-1 1h1v1h-1zm-1 1h1v1h-1zm-20 1h3v1h-3zm3 0h1v1h-1zm13 1h1v1h-1zm-28 2h6v1h-6zm6 0h1v1h-1zm3 2h1v1h-1zm3 4h1v1h-1zm17 11h1v1h-1zm1 1h1v1h-1zm4 5h1v1h-1zm-8 1h1v1h-1zm12 2h1v1h-1zm-53 1h2v1h-2zm2 0h1v1h-1zm16 0h2v1h-2zm2 0h1v1h-1zm38 0h1v2h-1zm0 2h1v1h-1z" fill="#15168b"/><path d="M206 37h1v1h-1zm-16 9h1v1h-1zm31 0h1v1h-1zm39 1h1v1h-1zm-108 1h1v1h-1zm1 2h1v10h-1zm14 0h1v1h-1zm27 0h1v1h-1zm4 0h1v1h-1zm-87 3h1v1h-1zm42 7h1v1h-1zm74 1h1v1h-1zm-1 2h1v1h-1zm-32 1h1v1h-1zm65 0h1v1h-1zm-145 1h1v1h-1zm99 1h1v1h-1zm29 0h1v1h-1zM123 81h1v1h-1zm27 8h1v1h-1zm41 0h1v1h-1zm40 0h1v1h-1zm55 0h1v1h-1zm14 0h1v1h-1zm47 0h1v1h-1zm-113 1h1v1h-1zm28 0h1v1h-1zm74 0h1v1h-1zm-203 1h1v1h-1zm8 0h1v1h-1zm192 0h1v1h-1zm-168 1h1v1h-1zm-22 1h1v1h-1zm182 0h1v1h-1zm-187 2h1v1h-1zm4 0h1v1h-1zm35 0h1v1h-1zm153 2h1v1h-1zm-156 5h1v1h-1zm92 1h1v1h-1zm-128 1h1v1h-1zm112 0h1v1h-1zm-96 1h1v1h-1zm70 1h1v1h-1zm101 1h1v1h-1zm-221 1h1v1h-1zm166 0h1v1h-1zm14 0h1v1h-1zm75 0h1v1h-1zm-171 1h1v1h-1zm10 0h1v1h-1zm18 0h1v1h-1zm18 0h1v1h-1zm-89 1h1v1h-1z" fill="#b7b7b7"/><path d="M45 39h1v1h-1zm4 1h1v1h-1zm-2 22h1v1h-1zm-2 8h1v1h-1zm4 17h1v1h-1zm4 5h1v1h-1zm12 0h1v1h-1z" fill="#4f3e8b"/><path fill="#beb7cc" d="M50 41h1v1h-1z"/><path d="M53 58h1v1h-1zm-2 2h1v1h-1zm3 21h1v1h-1zm9 10h1v1h-1zm-48 1h1v1h-1z" fill="#434498"/><path d="M45 35h1v1h-1zm3 1h1v1h-1zm1 0h1v1h-1zm-38 1h1v1h-1zm29 1h1v1h-1zm-24 1h1v1h-1zm8 1h1v22h-1zm35 0h1v1h-1zm-7 1h1v1h-1zm8 0h1v1h-1zm-42 1h1v46h-1zm35 0h1v1h-1zm9 2h1v1h-1zm-7 1h1v1h-1zm8 0h1v1h-1zm0 3h1v1h-1zm-7 1h1v3h-1zm0 3h1v1h-1zm7 0h1v1h-1zm0 1h1v1h-1zm-8 3h1v1h-1zm7 0h1v1h-1zm-1 2h1v1h-1zm-8 1h1v1h-1zm-1 1h1v1h-1zm-28 2h1v1h-1zm1 1h1v1h-1zm25 2h1v1h-1zm-25 1h1v1h-1zm-1 1h1v22h-1zm12 2h1v1h-1zm4 5h1v1h-1zm0 1h1v1h-1zm9 1h1v1h-1zm4 4h1v1h-1zm-35 8h1v1h-1zm6 1h1v1h-1zm27 0h1v1h-1zm-26 1h1v1h-1zm-8 1h1v1h-1zm36 0h1v1h-1zm-37 1h1v1h-1zm-5 3h20v1H11zm20 0h1v1h-1z" fill="#27288f"/><path d="M70 36h1v1h-1zm8 2h1v1h-1zm-37 2h1v1h-1zm1 3h1v18h-1zm49 7h1v1h-1zm1 2h1v1h-1zm-50 9h1v1h-1zm53 3h1v1h-1zm0 5h1v1h-1zM42 81h1v7h-1zm0 7h1v1h-1zm33 2h1v1h-1z" fill="#f79a36"/><path d="M211 36h1v1h-1zm-107 3h1v1h-1zm29 7h1v1h-1zm7 0h1v1h-1zm16 0h1v1h-1zm67 1h1v1h-1zm-11 1h1v1h-1zm5 0h1v1h-1zm1 0h1v1h-1zm39 0h1v1h-1zm-86 1h1v1h-1zm-34 1h1v10h-1zm61 2h1v11h-1zm-77 3h1v1h-1zm124 4h1v1h-1zm-108 1h1v1h-1zm61 3h1v1h-1zm54 1h1v1h-1zm-140 1h1v1h-1zm81 0h1v1h-1zm64 0h1v1h-1zm-97 2h1v1h-1zm-29 20h1v1h-1zm118 2h1v1h-1zm27 0h1v1h-1zm63 0h1v1h-1zm-172 2h1v1h-1zm7 0h1v1h-1zm118 0h1v1h-1zm-2 1h1v1h-1zm-129 1h1v1h-1zm-32 1h1v2h-1zm158 1h1v1h-1zm-158 1h1v1h-1zm106 2h1v1h-1zm-102 1h1v1h-1zm106 1h1v1h-1zm23 3h1v1h-1zm55 3h1v1h-1zm35 0h1v1h-1zm-100 1h1v1h-1zm76 0h1v1h-1zm-97 1h1v1h-1zm92 0h1v1h-1zm-177 2h1v1h-1zm49 0h1v1h-1zm60 0h1v1h-1zm-11 9h8v1h-8zm8 0h1v1h-1z" fill="#8a8989"/><path d="M51 41h1v1h-1zm2 2h1v1h-1zm2 21h1v1h-1zm-8 2h1v1h-1zm2 9h1v1h-1z" fill="#363794"/><path d="M157 46h1v1h-1zm11 0h1v1h-1zm21 0h1v1h-1zm-24 1h1v1h-1zm48 0h1v1h-1zm-78 1h1v1h-1zm16 0h1v1h-1zm74 0h1v1h-1zm29 0h1v1h-1zm1 0h1v1h-1zm-57 1h1v1h-1zm-18 1h1v1h-1zm-8 1h1v1h-1zm-47 1h1v1h-1zm-13 1h2v1h-2zm2 0h1v1h-1zm7 0h1v1h-1zm102 0h1v1h-1zm5 5h1v1h-1zm-109 1h1v1h-1zm143 2h1v1h-1zm-50 1h1v1h-1zm10 0h1v1h-1zm-85 1h1v1h-1zm34 0h1v1h-1zm89 0h1v1h-1zm-113 1h1v1h-1zm92 0h1v1h-1zm8 0h1v1h-1zm-94 1h1v1h-1zm89 0h1v1h-1zm-89 1h1v1h-1zm-21 1h1v1h-1zm42 0h1v1h-1zm-50 14h1v1h-1zm-13 2h1v1h-1zm18 1h1v1h-1zm22 5h1v1h-1zm39 0h1v1h-1zm60 0h1v1h-1zm37 0h1v1h-1zm59 0h1v1h-1zm-204 1h1v1h-1zm11 0h1v1h-1zm70 0h1v1h-1zm112 0h1v1h-1zm-188 1h1v1h-1zm1 0h1v1h-1zm20 0h1v1h-1zm25 0h1v1h-1zm1 0h1v1h-1zm34 0h1v1h-1zm1 0h1v1h-1zm113 0h1v1h-1zm-84 1h1v1h-1zm24 0h1v1h-1zm42 0h1v1h-1zm18 2h1v1h-1zm-190 1h1v1h-1zm22 0h1v1h-1zm156 0h1v1h-1zm-147 1h1v1h-1zm79 3h1v1h-1zm0 1h1v1h-1zm-125 1h1v1h-1zm27 0h1v1h-1zm-22 1h1v1h-1zm41 1h1v1h-1zm40 0h1v1h-1zm-79 3h1v1h-1zm-33 1h1v1h-1zm9 0h1v1h-1zm31 0h1v1h-1zm62 0h1v1h-1zm128 0h1v1h-1zm-125 1h1v1h-1zm14 0h1v1h-1zm67 0h1v1h-1zm-155 1h1v1h-1zm-21 1h1v1h-1zm23 0h1v1h-1zm7 0h1v1h-1zm109 0h1v1h-1zm20 0h1v1h-1zm79 0h1v1h-1zm-114 7h1v1h-1zm6 0h1v1h-1z" fill="#e5e5e5"/><path d="M39 75h1v1h-1zm15 5h1v1h-1zM33 93h1v3h-1zm0 3h1v1h-1z" fill="#dfe4f3"/><path fill="#82658d" d="M69 96h1v1h-1z"/><path d="M235 41h1v21h-1zm14 7h1v1h-1zm-75 1h1v1h-1zm-47 1h1v1h-1zm120 0h1v1h-1zm-66 1h1v1h-1zm3 2h1v9h-1zm-65 5h1v1h-1zm92 3h1v1h-1zm-27 1h1v1h-1zm51 0h1v1h-1zm-13 1h1v1h-1zm-73 1h1v1h-1zm60 20h1v21h-1zm157 3h1v1h-1zm-133 3h1v1h-1zm84 0h1v1h-1zm-47 1h1v1h-1zm9 0h1v1h-1zm-150 1h1v1h-1zm57 0h1v1h-1zm60 0h1v1h-1zm27 0h1v1h-1zm13 0h1v1h-1zm-134 1h1v1h-1zm164 0h1v1h-1zm13 1h1v1h-1zm23 0h1v1h-1zm-12 2h1v9h-1zm-177 1h1v1h-1zm103 1h1v2h-1zm0 2h1v1h-1zm-97 4h1v1h-1zm40 1h1v1h-1zm119 0h1v1h-1zm12 0h1v1h-1zm-154 2h1v1h-1zm-74 1h4v1h-4zm4 0h1v1h-1zm30 0h1v1h-1zm50 0h1v1h-1zm90 0h1v1h-1zm-118 1h1v1h-1zm78 8h1v1h-1z" fill="#4a4848"/><path d="M9 35h1v2H9zm0 2h1v1H9zm53 5h1v1h-1zm-3 20h1v1h-1zm-3 2h1v1h-1zm-19 8h1v1h-1zm15 6h1v1h-1zm-1 12h1v1h-1zm-23 2h1v1h-1zM9 93h1v2H9zm0 2h1v1H9z" fill="#ababcb"/><path d="M11 35h33v1H11zm33 0h1v1h-1zM26 63h11v1H26zm11 0h1v1h-1zm15 2h1v1h-1zM41 76h1v1h-1zm10 2h1v1h-1zM10 95h1v1h-1z" fill="#0a0c89"/><path d="M47 35h1v1h-1zm-34 3h1v1h-1zm12 1h1v1h-1zm30 9h1v1h-1zm9 1h1v2h-1zm0 2h1v1h-1zm-9 2h1v1h-1zm8 3h1v1h-1zm-11 3h1v1h-1zm1 6h1v1h-1zm6 22h1v1h-1z" fill="#5758a0"/><path d="M54 36h1v1h-1zm4 2h1v1h-1zm-10 2h1v1h-1zm-4 41h1v1h-1z" fill="#a16262"/><path d="M208 36h1v1h-1zm27 0h1v1h-1zm-31 1h1v1h-1zm27 0h1v1h-1zm-125 3h1v1h-1zm-55 2h1v1h-1zm1 1h1v1h-1zm143 3h1v1h-1zm-45 2h1v1h-1zm13 0h1v1h-1zm0 1h1v1h-1zm-43 1h1v1h-1zm8 0h1v1h-1zm66 2h1v11h-1zm-72 1h1v1h-1zm19 8h1v1h-1zm30 1h1v1h-1zm90 0h1v1h-1zm-67 1h1v1h-1zm19 0h1v1h-1zm40 1h1v1h-1zm-115 1h1v1h-1zm64 0h1v1h-1zM52 66h1v1h-1zm136 1h1v1h-1zm54 0h1v1h-1zM35 70h1v1h-1zm174 9h1v1h-1zm-4 1h1v1h-1zm-75 5h1v1h-1zm14 4h1v1h-1zm81 0h1v1h-1zm22 0h1v1h-1zm54 0h1v1h-1zm51 0h1v1h-1zm10 0h1v1h-1zm8 0h1v1h-1zm5 0h1v1h-1zm-247 2h1v1h-1zm72 0h1v1h-1zm-10 1h1v1h-1zm6 0h1v1h-1zm100 0h1v1h-1zm17 0h1v1h-1zm36 0h1v1h-1zm-160 1h1v1h-1zm97 0h1v1h-1zm-62 1h1v1h-1zm-90 1h1v1h-1zm127 0h1v1h-1zm95 0h1v11h-1zm-117 1h1v1h-1zm-21 1h1v1h-1zm5 0h1v1h-1zm-47 1h1v1h-1zm-13 1h1v1h-1zm9 1h1v1h-1zm-3 2h1v1h-1zm-37 1h1v1h-1zm107 0h1v1h-1zm-37 1h1v1h-1zm-29 1h1v1h-1zm46 0h1v1h-1zm-63 1h1v1h-1zm10 0h1v1h-1zm190 0h1v1h-1zm-237 1h1v1h-1zm134 0h1v1h-1zm52 0h1v1h-1zm14 0h1v1h-1zm-83 1h1v1h-1zm78 0h1v1h-1zm-98 2h1v1h-1zm37 0h1v1h-1zm44 0h1v1h-1zm11 0h1v1h-1zm25 0h1v1h-1zm15 0h1v1h-1zm-104 7h1v1h-1zm8 0h1v1h-1z" fill="#f0f0f0"/><path d="M103 39h1v1h-1zm128 0h1v1h-1zm-120 1h1v9h-1zm65 6h1v1h-1zm11 1h1v1h-1zm-63 1h1v1h-1zm48 0h1v1h-1zm-61 1h1v1h-1zm68 0h1v1h-1zm10 0h1v1h-1zm-68 1h1v1h-1zm106 1h1v1h-1zm18 2h1v1h-1zm-134 1h1v9h-1zm153 0h1v1h-1zm-36 2h1v1h-1zm-105 1h1v1h-1zm126 0h1v1h-1zm-129 3h1v1h-1zm125 0h1v1h-1zm-118 2h1v1h-1zm14 0h1v1h-1zm123 0h1v1h-1zm-153 1h1v1h-1zm18 1h1v1h-1zm105 0h1v1h-1zm-102 1h1v1h-1zm19 0h1v1h-1zm-10 2h1v1h-1zm74 0h1v1h-1zm6 0h1v1h-1zm31 0h1v1h-1zm6 0h1v1h-1zM126 82h1v1h-1zm79 0h1v1h-1zm-85 1h1v1h-1zm249 0h1v4h-1zm-3 3h1v1h-1zm3 1h1v1h-1zm-242 1h1v1h-1zm18 1h1v1h-1zm51 0h1v1h-1zm30 0h1v1h-1zm34 0h1v1h-1zm78 0h1v1h-1zm-66 1h1v1h-1zm-126 1h1v1h-1zm3 0h1v1h-1zm81 0h1v1h-1zm145 0h1v1h-1zm-215 1h1v1h-1zm15 0h1v1h-1zm129 0h1v1h-1zm61 0h1v1h-1zm-226 1h1v1h-1zm39 0h1v1h-1zm19 0h1v1h-1zm76 0h1v12h-1zm20 0h1v1h-1zm36 0h1v1h-1zm22 0h1v1h-1zm18 0h1v11h-1zm-213 1h1v1h-1zm28 0h1v1h-1zm54 0h1v1h-1zm78 0h1v1h-1zm-50 1h1v1h-1zm-104 1h1v1h-1zm168 0h1v1h-1zm-91 1h1v1h-1zm-66 1h1v1h-1zm142 0h1v1h-1zm-97 1h1v1h-1zm0 1h1v1h-1zm-62 4h1v1h-1zm160 0h1v1h-1zm53 0h1v1h-1zm-199 1h1v1h-1zm14 0h1v1h-1zm54 0h1v1h-1zm35 0h1v1h-1zm57 0h1v1h-1zm35 0h1v1h-1zm-226 1h1v1h-1zm94 0h1v1h-1zm27 0h1v1h-1zm17 0h1v1h-1zm-156 1h1v1h-1zm24 0h1v1h-1zm52 0h1v1h-1zm11 0h1v1h-1zm17 0h1v1h-1zm39 0h1v1h-1zm27 0h1v1h-1zm9 0h1v1h-1zm56 0h1v1h-1zm-229 1h1v1h-1zm136 0h1v1h-1zm17 0h1v1h-1zm46 1h1v1h-1zm22 0h1v1h-1zm-123 1h1v1h-1zm93 0h1v1h-1zm6 0h1v1h-1zm49 0h1v1h-1z" fill="#cbcaca"/><path d="M69 40h1v1h-1zm7 3h1v1h-1zm17 11h1v1h-1zm-8 1h1v1h-1zm1 4h1v1h-1zm6 22h1v1h-1zm-3 5h1v1h-1zm-18 5h1v1h-1zm-36 2h3v1h-3zm3 0h1v1h-1z" fill="#f8a85e"/><path d="M125 47h1v1h-1zm39 2h2v1h-2zm2 0h1v1h-1zm83 3h1v1h-1zm11 0h1v1h-1zm-36 3h1v2h-1zm21 1h1v1h-1zm-21 1h1v1h-1zm21 0h1v1h-1zm-34 3h1v1h-1zm-69 4h1v1h-1zm77 1h1v1h-1zm-87 1h1v1h-1zm8 0h1v1h-1zm49 24h1v2h-1zm148 0h1v1h-1zm8 0h1v1h-1zm-195 1h1v1h-1zm76 0h1v1h-1zm63 0h1v1h-1zm54 0h1v1h-1zm-154 1h1v1h-1zm11 0h1v1h-1zm44 0h1v1h-1zm1 0h1v1h-1zm26 0h1v1h-1zm1 0h1v1h-1zm19 0h1v1h-1zm44 0h1v1h-1zm1 0h1v1h-1zm-23 1h1v1h-1zm42 0h1v1h-1zm-190 1h1v1h-1zm19 1h1v1h-1zm-42 1h1v1h-1zm124 1h1v1h-1zm-133 1h1v1h-1zm41 3h1v1h-1zm-9 1h1v1h-1zm19 2h1v1h-1zm39 1h1v1h-1zm27 0h1v1h-1zm66 0h1v1h-1zm-187 1h1v1h-1zm70 0h1v1h-1zm138 0h1v1h-1zm-166 2h1v1h-1zm51 0h1v1h-1zm114 0h1v1h-1zm-213 1h1v1h-1zm127 8h1v1h-1z" fill="#575555"/><path d="M106 65h1v1h-1zm93 26h1v1h-1zm135 1h1v1h-1zm-136 2h1v1h-1z" fill="#4b4949"/><path d="M48 35h1v1h-1zm-38 3h2v1h-2zm2 0h1v1h-1zm49 3h1v1h-1zm-44 1h1v1h-1zm37 3h1v1h-1zm10 3h1v1h-1zm0 4h1v1h-1zm-2 6h1v1h-1zM35 69h1v1h-1zm15 7h1v1h-1zM25 89h1v1h-1zm-9 2h1v1h-1zm36 0h1v1h-1zm-25 1h1v1h-1z" fill="#6769a9"/><path d="M62 35h1v1h-1zm1 0h1v1h-1zm5 5h1v1h-1zm6 2h1v1h-1zm11 0h1v1h-1zm-1 11h1v1h-1zm11 8h1v1h-1zm0 11h1v1h-1zm-11 7h1v1h-1zm6 6h1v1h-1zm-14 4h1v1h-1zm-2 1h1v1h-1zm-4 1h1v1h-1zm-36 2h1v1h-1z" fill="#fac497"/><path d="M65 35h1v1h-1zm16 4h1v1h-1zm3 2h1v1h-1zm-4 6h1v1h-1zm12 4h1v1h-1zm3 9h1v1h-1zm-9 10h1v1h-1z" fill="#fbd4b7"/><g fill="#f7941d"><path d="M69 36h1v3h-1z"/><path d="M59 37h12v1H59zm12 0h1v2h-1z"/><path d="M59 38h16v1H59zm16 0h1v3h-1z"/><path d="M69 39h9v1h-9zm9 0h1v4h-1z"/><path d="M73 40h7v1h-7zm7 0h1v5h-1zm-37 1h4v19h-4zm4 0h1v20h-1z"/><path d="M73 41h9v1h-9zm9 0h1v6h-1zm-34 1h1v18h-1z"/><path d="M77 42h6v1h-6zm6 0h1v7h-1z"/><path d="M78 43h6v1h-6zm6 0h1v7h-1z"/><path d="M79 44h6v1h-6zm6 0h1v8h-1z"/><path d="M80 45h6v1h-6zm6 0h1v10h-1z"/><path d="M81 46h6v1h-6zm6 0h1v13h-1z"/><path d="M82 47h6v1h-6zm6 0h1v38h-1z"/><path d="M83 49h6v1h-6zm6 0h1v35h-1z"/><path d="M84 50h6v1h-6zm6 0h1v32h-1z"/><path d="M85 52h6v1h-6zm6 0h1v29h-1zm1 2h1v24h-1z"/><path d="M86 55h6v1h-6zm7 2h1v18h-1zm-6 2h6v1h-6zm-44 1h6v1h-6zm6 0h1v1h-1zm-6 1h1v1h-1zm1 0h1v1h-1zm3 0h1v1h-1zm47 2h1v7h-1zm-45 4h1v1h-1zm-3 1h2v2h-2zm2 0h1v3h-1zm-2 2h2v1h-2zm48 0h1v1h-1zm-46 1h1v1h-1zm1 2h1v1h-1zm38 0h6v5h-6z"/><path d="M86 74h7v1h-7zm7 1h1v1h-1zm-7 2h6v4h-6zm6 1h1v1h-1z"/><path d="M85 80h6v2h-6zm6 1h1v1h-1zm-48 1h1v13h-1zm1 0h1v13h-1zm39 0h7v2h-7zm7 0h1v2h-1zm-45 1h1v12h-1zm38 1h7v1h-7zm7 0h1v1h-1zm-8 1h6v2h-6zm6 0h1v1h-1zm-42 1h1v9h-1z"/><path d="M81 86h6v2h-6zm-34 1h1v8h-1zm1 0h1v8h-1zm39 0h1v1h-1zm-7 1h6v1h-6zm6 0h1v1h-1zm-8 1h7v1h-7zm7 0h1v1h-1zm-8 1h6v1h-6zm6 0h2v1h-2zm2 0h1v1h-1zm-10 1h7v1h-7zm7 0h1v1h-1z"/><path d="M42 92h7v3h-7zm7 0h1v3h-1zm21 0h10v1H70zm10 0h1v1h-1z"/><path d="M41 93h8v2h-8zm30 0h7v1h-7zm7 0h1v1h-1z"/><path d="M36 94h16v1H36zm16 0h1v1h-1zm19 0h4v1h-4zm4 0h1v1h-1zm-39 1h17v1H36zm17 0h1v1h-1z"/></g><path d="M76 37h1v1h-1zm18 20h1v1h-1zm1 5h1v1h-1zm0 9h1v1h-1zm-4 12h1v1h-1zM81 93h1v1h-1zm-47 3h1v1h-1z" fill="#f9b06e"/><path d="M48 61h1v1h-1zm-3 6h1v1h-1zm-1 1h1v1h-1zm5 6h1v1h-1zm-3 10h1v1h-1zm22 8h1v1h-1zm-15 1h1v1h-1z" fill="#d88343"/><path d="M57 96h10v1H57zm10 0h1v1h-1z" fill="#874d62"/><path d="M66 35h1v1h-1zm11 2h1v1h-1zm-10 3h1v1h-1zm-26 1h1v1h-1zm37 4h1v1h-1zm1 1h1v1h-1zm12 3h1v1h-1zm2 4h1v1h-1zm-7 9h1v1h-1zm0 7h1v1h-1zm9 4h1v1h-1zm-1 4h1v1h-1zm-13 7h1v1h-1zm-12 7h1v1h-1zm8 4h1v1h-1z" fill="#fcdcc4"/><path d="M68 35h1v1h-1zm-2 5h1v1h-1zm16 10h1v1h-1zm3 7h1v1h-1zm10 2h1v1h-1zm-9 5h1v4h-1zm0 4h1v1h-1zm7 12h1v1h-1zm-16 8h1v1h-1zm11 0h1v1h-1zm-47 2h1v1h-1zm32 0h1v1h-1zm13 0h1v1h-1zm-18 1h1v1h-1zm14 2h1v1h-1zm-2 1h1v1h-1z" fill="#fdeadd"/><path d="M53 36h1v1h-1zm-4 30h1v1h-1zm-7 12h1v1h-1z" fill="#5a3e81"/><path d="M207 37h1v1h-1zm-81 2h1v1h-1zm100 11h1v1h-1zM126 86h1v1h-1zm239 2h1v1h-1zm-233 1h1v1h-1zm162 1h1v1h-1zm-135 1h1v1h-1zm28 0h1v1h-1zm-2 2h1v1h-1zm-10 1h1v1h-1zm129 12h1v1h-1zm-114 1h1v1h-1zm-40 1h1v1h-1zm42 0h1v1h-1zm86 0h1v1h-1zm-135 1h1v1h-1zm224 0h1v1h-1z" fill="#6b6a6a"/><path d="M210 38h1v9h-1zm27 0h1v25h-1zm-110 2h1v1h-1zm-19 1h1v22h-1zm19 0h1v1h-1zm-1 2h1v1h-1zm2 4h1v1h-1zm82 0h1v1h-1zm10 1h1v1h-1zm39 0h1v1h-1zm-121 1h1v1h-1zm56 0h1v1h-1zm17 0h1v1h-1zm38 0h1v1h-1zm-38 1h1v1h-1zm37 0h1v1h-1zm1 0h1v1h-1zm-54 1h1v1h-1zm15 0h1v8h-1zm52 0h1v1h-1zm-147 1h1v1h-1zm67 0h1v10h-1zm64 0h1v1h-1zm-19 1h1v1h-1zm-108 1h1v1h-1zm127 1h1v3h-1zm-21 1h1v1h-1zm0 1h1v1h-1zm-105 1h1v1h-1zm126 0h1v1h-1zm-126 1h1v1h-1zm3 0h1v1h-1zm87 0h1v1h-1zm16 1h1v1h-1zm20 1h1v1h-1zm-64 1h1v1h-1zm29 0h1v1h-1zm38 0h1v2h-1zm-141 1h1v1h-1zm103 0h1v1h-1zm12 0h1v1h-1zm14 0h1v1h-1zm11 0h1v1h-1zm-141 1h1v1h-1zm32 0h2v1h-2zm2 0h1v1h-1zm27 0h1v1h-1zm81 0h1v1h-1zm-142 1h1v1h-1zm33 0h2v1h-2zm2 0h1v1h-1zm52 0h1v1h-1zm4 0h1v1h-1zm11 0h1v1h-1zm12 0h1v1h-1zm-66 1h1v1h-1zm1 0h1v1h-1zm55 15h1v25h-1zm-86 2h1v1h-1zm-17 1h1v22h-1zm20 1h1v1h-1zm1 1h1v1h-1zm0 3h2v1h-2zm2 0h1v1h-1zm13 1h1v1h-1zm130 0h1v1h-1zm91 0h1v1h-1zm-168 1h1v1h-1zm128 0h1v1h-1zm12 0h2v1h-2zm2 0h1v1h-1zm27 0h1v1h-1zm-178 1h1v1h-1zm63 0h1v1h-1zm36 0h1v1h-1zm28 0h1v1h-1zm24 0h1v1h-1zm-209 1h1v1h-1zm184 0h1v1h-1zm24 0h1v12h-1zm16 0h1v1h-1zm-119 1h1v1h-1zm53 0h2v1h-2zm2 0h1v1h-1zm13 0h1v12h-1zm37 0h1v1h-1zm-185 1h1v1h-1zm8 0h1v1h-1zm12 0h1v1h-1zm10 0h1v1h-1zm52 0h1v1h-1zm90 0h1v1h-1zm-188 1h1v1h-1zm14 0h2v1h-2zm2 0h1v1h-1zm29 0h1v1h-1zm79 0h1v1h-1zm-133 1h1v1h-1zm89 0h1v1h-1zm17 0h1v1h-1zm29 0h1v1h-1zm64 0h1v1h-1zm-165 2h1v1h-1zm148 0h1v2h-1zm-174 2h1v1h-1zm174 0h1v1h-1zm-146 1h1v1h-1zm20 0h1v1h-1zm33 0h1v1h-1zm17 0h1v1h-1zm-105 1h1v1h-1zm8 0h1v1h-1zm98 1h1v1h-1zm-2 1h1v1h-1zm80 0h1v2h-1zm23 0h1v1h-1zm-230 1h1v1h-1zm35 0h1v2h-1zm68 0h1v1h-1zm77 0h1v1h-1zm15 0h1v1h-1zm11 0h1v1h-1zm-146 1h1v1h-1zm106 0h1v1h-1zm41 0h1v1h-1zm-208 1h1v1h-1zm36 0h1v1h-1zm8 0h1v1h-1zm19 0h1v1h-1zm21 0h1v1h-1zm33 0h1v1h-1zm8 0h1v1h-1zm1 0h1v1h-1zm28 0h1v1h-1zm26 0h1v1h-1zm17 0h1v1h-1zm33 0h1v1h-1zm15 0h1v1h-1zm17 0h1v1h-1z" fill="#191415"/><path d="M60 40h1v1h-1zm-3 23h1v1h-1zM39 74h1v1h-1zM17 89h1v1h-1z" fill="#4e509f"/><path d="M123 41h1v1h-1zm-60 2h1v1h-1zm118 3h1v1h-1zm41 0h1v1h-1zm26 2h1v1h-1zm-72 1h1v1h-1zm50 0h1v1h-1zm21 0h1v1h-1zm-53 2h1v1h-1zm-23 1h1v9h-1zm93 0h1v1h-1zm-36 2h1v1h-1zM64 55h1v1h-1zm60 3h1v1h-1zm47 3h1v1h-1zm9 3h1v1h-1zm68 1h1v1h-1zm-109 1h1v1h-1zm24 0h1v1h-1zm-60 1h1v1h-1zm50 0h1v1h-1zm38 0h1v1h-1zm40 0h1v1h-1zM50 75h1v1h-1zm317 7h2v1h-2zm2 0h1v1h-1zm-250 1h1v1h-1zm-60 3h1v1h-1zm100 3h8v1h-8zm8 0h1v1h-1zm6 0h7v1h-7zm7 0h1v1h-1zm94 0h1v1h-1zm21 0h1v1h-1zm76 0h3v1h-3zm3 0h1v1h-1zM16 90h1v1h-1zm255 0h1v1h-1zm-99 1h1v1h-1zm9 0h1v1h-1zM10 92h1v1h-1zm22 0h1v1h-1zm129 2h1v1h-1zm-24 4h1v1h-1zm81 4h1v1h-1zm110 2h1v1h-1zm-2 2h1v1h-1zm-135 1h1v1h-1zm122 0h1v1h-1zm52 0h1v1h-1zm-57 1h1v1h-1zm25 0h1v1h-1zm15 0h1v1h-1zm-86 1h1v1h-1zm-159 1h1v1h-1zm65 0h1v1h-1zm37 0h1v1h-1zm89 0h1v1h-1zm50 0h1v1h-1zm-91 7h1v1h-1z" fill="#ececec"/><path d="M47 40h1v1h-1zm-5 22h1v1h-1zm2 5h1v1h-1zm-2 12h1v1h-1z" fill="#e89248"/><path fill="#e88c33" d="M47 67h1v1h-1z"/><path d="M47 72h1v1h-1zm19 20h1v1h-1z" fill="#99626d"/><path fill="#db9d78" d="M70 96h1v1h-1z"/><path fill="#eab28b" d="M52 35h1v1h-1z"/><path fill="#ec8b23" d="M55 36h1v1h-1z"/><path d="M44 39h1v1h-1zm15 0h1v1h-1zM46 71h1v1h-1zm-1 11h1v1h-1z" fill="#704d81"/><path d="M17 44h1v44h-1zm37 12h1v1h-1zM25 67h1v1h-1zm30 15h1v1h-1zm-38 6h1v1h-1zm43 0h1v1h-1z" fill="#7777af"/><path fill="#bf7555" d="M48 73h1v1h-1z"/><path d="M46 35h1v1h-1zm-32 3h1v1h-1zm38 4h1v1h-1zm-4 24h1v1h-1zm-12 4h1v1h-1zm10 13h1v1h-1z" fill="#3f4096"/><g fill="#303192"><path d="M11 36h35v1H11zm35 0h1v2h-1zm6 0h1v4h-1z"/><path d="M14 37h38v1H14zm2 1h8v1h-8zm8 0h1v1h-1zm21 0h10v1H45zm10 0h1v6h-1zm-38 1h6v2h-6zm6 0h1v55h-1z"/><path d="M49 39h8v1h-8zm8 0h1v22h-1z"/><path d="M51 40h7v1h-7zm7 0h1v21h-1zm-41 1h6v1h-6z"/><path d="M53 41h6v1h-6zm6 0h1v19h-1zm-40 1h4v52h-4z"/><path d="M54 42h6v1h-6zm6 0h1v17h-1z"/><path d="M56 43h5v4h-5zm5 0h1v14h-1z"/><path d="M55 44h6v1h-6zm7 1h1v10h-1zm-6 2h6v1h-6zm0 7h6v3h-6zm6 1h1v1h-1zm-7 2h6v2h-6zm6 0h1v1h-1zm-7 2h6v1h-6zm6 0h1v1h-1zm-7 1h6v1h-6zm6 0h1v1h-1zm-7 1h6v1h-6zm6 0h1v1h-1zm-8 1h6v1h-6zm6 0h1v1h-1zm-32 1h1v3h-1zm23 0h8v1h-8zm8 0h1v1h-1zm-30 1h27v1H25zm27 0h1v1h-1zm-27 1h23v1H25zm23 0h1v1h-1zm-24 1h1v1h-1zm10 0h8v1h-8zm8 0h1v10h-1zm-7 1h6v1h-6zm6 0h1v8h-1z"/><path d="M36 68h6v1h-6zm1 1h7v1h-7zm7 0h1v10h-1zm-6 1h5v1h-5zm5 0h1v7h-1z"/><path d="M38 71h6v1h-6zm1 1h6v1h-6zm6 0h1v8h-1z"/><path d="M40 73h6v1h-6zm6 0h1v8h-1zm1 1h1v8h-1z"/><path d="M41 75h7v1h-7zm7 0h1v9h-1zm-6 1h6v1h-6z"/><path d="M43 77h6v2h-6zm6 0h1v8h-1zm1 1h1v8h-1z"/><path d="M43 79h8v1h-8zm8 0h1v9h-1z"/><path d="M45 80h7v1h-7zm7 0h1v9h-1zm-6 1h6v1h-6z"/><path d="M47 82h6v1h-6zm6 0h1v8h-1zm1 1h1v8h-1z"/><path d="M48 84h7v1h-7zm7 0h1v9h-1z"/><path d="M49 85h7v1h-7zm7 0h1v9h-1zm-6 1h6v2h-6zm8 0h1v8h-1zm-1 1h1v7h-1z"/><path d="M50 88h8v1h-8zm2 1h7v1h-7zm7 0h1v5h-1zm-41 1h6v4h-6zm6 0h1v4h-1z"/><path d="M53 90h7v1h-7zm7 0h1v4h-1z"/><path d="M54 91h7v1h-7zm7 0h1v3h-1zm-44 1h8v2h-8zm8 0h1v2h-1zm37 0h1v2h-1z"/><path d="M16 93h10v1H16zm10 0h1v1h-1zm29 0h9v1h-9zm9 0h1v1h-1zm-53 1h20v1H11zm20 0h1v1h-1zm25 0h12v1H56zm12 0h1v1h-1z"/></g><path d="M208 38h1v1h-1zm27 0h1v1h-1zm-128 1h1v1h-1zm129 0h1v1h-1zm-129 1h1v1h-1zm16 0h1v1h-1zm86 0h1v24h-1zm-84 1h1v1h-1zm3 2h1v1h-1zm40 6h1v1h-1zm92 0h1v1h-1zm-136 1h1v1h-1zm57 0h1v1h-1zm-61 1h1v1h-1zm62 0h1v1h-1zm42 0h1v1h-1zm-108 1h3v1h-3zm67 0h1v10h-1zm13 0h1v10h-1zm51 0h1v1h-1zm16 0h1v1h-1zm-2 1h1v1h-1zm1 0h1v1h-1zm-145 1h1v1h-1zm108 0h1v1h-1zm-103 4h1v1h-1zm-1 1h1v1h-1zm104 0h1v1h-1zm-15 2h1v1h-1zm37 0h1v1h-1zm-64 1h1v1h-1zm13 0h1v1h-1zm29 0h1v1h-1zm-99 1h1v1h-1zm14 0h1v1h-1zm14 0h1v1h-1zm41 0h1v1h-1zm41 0h1v1h-1zm-27 1h1v1h-1zm39 0h1v1h-1zm-120 1h1v1h-1zm28 0h1v1h-1zm95 0h1v1h-1zm-42 16h1v1h-1zm1 1h1v1h-1zm157 3h1v1h-1zm-239 2h1v1h-1zm97 3h1v1h-1zm-95 1h1v1h-1zm31 0h1v1h-1zm15 0h1v1h-1zm20 0h1v1h-1zm51 0h1v1h-1zm14 0h1v1h-1zm39 0h1v1h-1zm51 0h1v1h-1zm1 0h1v1h-1zm-222 1h1v1h-1zm12 0h1v1h-1zm11 0h1v1h-1zm94 0h1v1h-1zm27 0h1v1h-1zm27 0h1v1h-1zm25 0h1v1h-1zm25 0h1v1h-1zm1 0h1v1h-1zm-165 1h1v1h-1zm101 0h1v1h-1zm-156 1h1v3h-1zm8 0h1v1h-1zm81 0h1v1h-1zm1 0h1v1h-1zm27 0h1v1h-1zm15 0h1v1h-1zm12 0h1v1h-1zm78 0h1v1h-1zm-65 1h1v10h-1zm13 0h1v11h-1zm11 0h1v1h-1zm1 0h1v1h-1zm25 0h1v10h-1zm15 0h1v1h-1zm-213 1h1v1h-1zm59 0h1v1h-1zm36 0h1v1h-1zm92 0h1v1h-1zm-196 1h1v1h-1zm7 0h2v1h-2zm2 0h1v1h-1zm81 0h1v1h-1zm-82 1h1v2h-1zm81 0h1v3h-1zm44 0h1v2h-1zm-135 1h1v1h-1zm36 0h1v1h-1zm-26 1h1v1h-1zm125 0h1v1h-1zm-124 1h1v1h-1zm80 0h1v1h-1zm-92 1h1v1h-1zm38 0h1v2h-1zm-37 1h1v1h-1zm90 0h1v1h-1zm16 0h1v1h-1zm78 0h1v1h-1zm-147 1h1v1h-1zm1 0h1v1h-1zm95 0h1v2h-1zm50 0h1v1h-1zm-173 1h1v1h-1zm47 0h1v1h-1zm102 0h1v1h-1zm50 0h1v1h-1zm-213 1h1v1h-1zm16 0h1v1h-1zm28 0h1v1h-1zm40 0h1v1h-1zm53 0h1v1h-1zm39 0h1v1h-1zm-194 1h1v1h-1zm154 0h1v1h-1zm26 0h1v1h-1zm15 0h1v1h-1zm35 0h1v1h-1zm15 0h1v1h-1zm15 0h1v1h-1zm-224 1h1v1h-1zm45 0h1v1h-1zm62 0h1v1h-1zm9 0h1v1h-1zm57 0h1v1h-1zm38 0h1v1h-1zm-234 1h1v1h-1zm132 0h1v1h-1zm17 0h1v1h-1zm-23 8h1v1h-1z" fill="#1e1a1b"/><path d="M60 39h1v1h-1zm20 0h1v1h-1zm-10 1h1v1h-1zm-21 1h1v18h-1zm40 6h1v1h-1zm-3 11h1v1h-1zm-37 1h1v1h-1zm46 6h1v3h-1zm-47 2h1v1h-1zm1 1h1v4h-1zm46 0h1v1h-1zm-46 4h1v1h-1zm45 3h1v1h-1zm-1 3h1v1h-1zm-51 2h1v1h-1zm38 6h1v1h-1zm8 1h1v1h-1zm-10 1h1v1h-1zm-36 1h1v1h-1zm7 0h1v2h-1zm0 2h1v1h-1zm23 0h1v1h-1zm-33 2h1v1h-1z" fill="#f79625"/><path d="M62 59h1v1h-1zm-12 1h1v1h-1zm8 3h1v1h-1zm-32 4h6v1h-6zm6 0h1v1h-1zm4 4h1v1h-1zm22 14h1v1h-1zm-47 7h2v1h-2zm2 0h1v1h-1zm17 0h1v1h-1zm1 0h1v1h-1z" fill="#dbdbe9"/><path d="M70 35h1v1h-1zm10 3h1v1h-1zm-19 2h3v1h-3zm3 0h1v1h-1zm6 1h1v1h-1zm-20 1h1v17h-1zm-9 1h1v19h-1zm49 4h1v1h-1zM50 59h1v1h-1zm-9 3h1v1h-1zm9 5h1v6h-1zm0 6h1v1h-1zm35 1h1v1h-1zm-44 4h1v10h-1zm53 0h1v1h-1zm-12 4h1v1h-1zm-3 4h1v1h-1zm10 1h1v1h-1zm-48 1h1v1h-1zm34 1h1v1h-1zm-25 1h1v1h-1zm0 1h1v1h-1zm17 0h1v1h-1zm-28 1h1v1h-1zm39 3h1v1h-1z" fill="#fef9f6"/><path d="M71 36h1v1h-1zm24 27h1v1h-1zm-9 10h1v1h-1zm-7 14h1v1h-1zm5 4h1v1h-1zm-9 4h1v1h-1z" fill="#f8a24a"/><path d="M209 36h1v1h-1zm27 0h1v1h-1zm-133 2h1v1h-1zm21 0h1v1h-1zm83 1h1v1h-1zm-30 7h1v1h-1zm-3 1h1v1h-1zm23 1h1v1h-1zm-13 1h1v1h-1zm14 2h1v1h-1zm48 0h1v1h-1zM126 61h1v1h-1zm137 0h1v1h-1zm-17 1h1v1h-1zm5 1h1v1h-1zm-120 2h1v1h-1zm48 0h1v1h-1zm8 0h1v1h-1zm29 0h2v1h-2zm2 0h1v1h-1zm15 0h1v1h-1zm28 0h1v1h-1zm-158 1h1v1h-1zm39 1h1v1h-1zm78 0h1v1h-1zm33 0h1v1h-1zm-43 12h1v1h-1zm-107 2h1v1h-1zm18 2h1v1h-1zm25 6h1v1h-1zm3 0h1v1h-1zm99 0h1v1h-1zm11 0h1v1h-1zm16 0h1v1h-1zm22 0h1v1h-1zm-99 1h1v1h-1zm48 0h1v1h-1zm56 0h1v1h-1zm51 0h1v1h-1zm-180 1h1v1h-1zm18 0h1v1h-1zm132 0h1v1h-1zm22 1h1v1h-1zm-93 1h1v1h-1zm52 0h1v1h-1zm-102 4h1v1h-1zm-19 4h1v1h-1zm-10 3h1v1h-1zm46 0h1v1h-1zm-53 1h1v1h-1zm163 1h1v1h-1zm-189 1h1v1h-1zm236 0h1v1h-1zm-169 1h1v1h-1zm91 0h1v1h-1zm73 0h1v1h-1zm-268 1h1v1h-1zm21 0h1v1h-1zm170 0h1v1h-1z" fill="#9a9999"/><path d="M57 37h1v1h-1zM43 62h1v1h-1zm3 5h1v1h-1zm-1 2h1v1h-1zm4 19h1v1h-1zm20 4h1v1h-1z" fill="#e58a36"/><path d="M53 44h1v1h-1zm1 2h1v1h-1zm0 9h1v1h-1zm-1 2h1v1h-1zm10 0h1v1h-1zM53 79h1v1h-1zm-3 10h1v1h-1zm14 2h1v1h-1zm-35 1h1v1h-1zM9 96h1v1H9z" fill="#cecee0"/><path d="M25 62h1v1h-1zm25 4h1v1h-1zM26 91h1v1h-1zm-15 5h20v1H11zm20 0h1v1h-1z" fill="#8b8cbb"/><path fill="#c36e3b" d="M67 92h1v1h-1z"/><path d="M86 43h1v1h-1zm1 1h1v1h-1zm-6 4h1v1h-1zm2 3h1v1h-1zm3 9h1v1h-1zM40 92h1v1h-1zm10 0h2v1h-2zm2 0h1v1h-1zm31 0h1v1h-1zm-7 3h1v1h-1z" fill="#fabb87"/><path d="M67 35h1v1h-1zm7 1h1v1h-1zm-3 5h1v1h-1zm18 5h1v1h-1zm-3 17h1v1h-1zm-1 12h1v1h-1zm7 7h1v1h-1zm-5 7h1v1h-1zm-14 7h1v1h-1z" fill="#fde2ce"/><path d="M69 35h1v1h-1zm-4 5h1v1h-1zm18 0h1v1h-1zm-42 2h1v1h-1zm32 0h1v1h-1zm2 1h1v1h-1zm9 11h1v1h-1zm10 1h1v1h-1zM50 74h1v1h-1zm45 0h1v1h-1zm-11 4h1v1h-1zm7 6h1v1h-1zm-11 1h1v1h-1zm-2 2h1v1h-1zm-37 2h1v1h-1zm44 2h1v1h-1zm-11 5h1v1h-1z" fill="#fef2ea"/><path d="M10 36h1v1h-1zm40 0h1v1h-1zm1 0h1v1h-1zm-25 2h13v1H26zm13 0h1v1h-1zm11 2h1v1h-1zm11 2h1v1h-1zm-7 2h1v1h-1zm9 2h1v1h-1zm0 1h1v1h-1zm0 7h1v1h-1zm0 1h1v1h-1zm-9 2h1v1h-1zm7 2h1v1h-1zm-11 2h1v1h-1zm6 2h1v1h-1zm-5 2h1v1h-1zm-18 1h1v1h-1zm1 1h1v1h-1zm3 4h1v1h-1zm2 2h1v1h-1zm3 4h1v1h-1zm8 0h1v1h-1zm2 2h1v1h-1zm2 3h1v1h-1zm3 3h1v1h-1zm2 3h1v1h-1zm-42 2h1v1h-1zm44 0h1v1h-1zm-36 1h1v1h-1zm37 0h1v1h-1zm-36 1h1v1h-1zm-12 1h1v1h-1zm14 0h1v1h-1zm-18 1h1v1h-1z" fill="#1f208d"/><path d="M9 38h1v1H9zm6 1h1v1h-1zm1 1h1v1h-1zm48 6h1v1h-1zm0 8h1v1h-1zm-3 6h1v1h-1zm-7 5h1v1h-1zm-3 1h1v1h-1zm-18 1h1v1h-1zm7 9h1v1h-1zm17 8h1v1h-1zm-43 8h1v1h-1z" fill="#c0c0d7"/><path d="M40 39h1v1h-1zm1 0h1v1h-1zm5 23h1v1h-1zm2 24h1v1h-1zm20 10h1v1h-1z" fill="#8c5b74"/><path d="M105 39h1v1h-1zm2 3h1v19h-1zm79 6h1v1h-1zm65 1h1v1h-1zm11 0h1v1h-1zm-35 3h1v1h-1zm-109 5h1v1h-1zm-11 4h1v1h-1zm65 4h1v1h-1zm52 0h1v1h-1zm30 0h1v2h-1zm-129 1h1v1h-1zm49 0h1v1h-1zm-31 1h2v1h-2zm2 0h1v1h-1zm10 0h4v1h-4zm4 0h1v1h-1zm58 0h2v1h-2zm2 0h1v1h-1zm35 0h2v1h-2zm2 0h1v1h-1zM104 82h1v1h-1zm1 0h1v1h-1zm262 2h1v1h-1zm-224 6h1v1h-1zm81 0h1v1h-1zm49 0h1v1h-1zm15 0h1v1h-1zm-108 1h1v1h-1zm51 0h1v1h-1zm72 0h1v1h-1zm51 0h1v1h-1zm11 0h1v1h-1zm-232 1h1v1h-1zm91 1h1v1h-1zm10 1h1v1h-1zm28 2h1v1h-1zm-133 1h1v1h-1zm39 4h1v1h-1zm143 0h1v1h-1zm-45 1h1v1h-1zm-95 2h1v1h-1zm1 2h1v1h-1zm29 0h1v1h-1zm-73 1h1v1h-1zm24 0h1v2h-1zm121 0h1v1h-1zm-19 1h1v1h-1zm119 0h1v1h-1zm-221 1h1v1h-1zm-5 1h2v1h-2zm2 0h1v1h-1zm43 0h2v1h-2zm2 0h1v1h-1zm33 0h3v1h-3zm3 0h1v1h-1zm26 0h1v1h-1zm1 0h1v1h-1zm63 0h2v1h-2zm2 0h1v1h-1zm48 0h1v1h-1zm1 0h1v1h-1zm-128 9h1v1h-1zm10 0h1v1h-1z" fill="#7c7b7c"/><path d="M82 40h1v1h-1zm0 9h1v1h-1zm13 21h1v1h-1zm-10 7h1v1h-1z" fill="#f8a34f"/><path d="M149 46h1v1h-1zm18 17h1v1h-1zm96 0h1v1h-1zm-115 1h1v1h-1zm23 0h1v1h-1zm-66 1h1v1h-1zm8 0h1v1h-1zm52 0h1v1h-1zm8 0h1v1h-1zm19 0h1v1h-1zm8 0h1v1h-1zm1 0h1v1h-1zm39 0h1v1h-1zm1 0h1v1h-1zm14 0h1v1h-1zm1 0h1v1h-1zm-107 1h1v1h-1zm42 0h1v1h-1zm19 0h1v1h-1zm40 0h1v1h-1zm-104 1h1v1h-1zm70 0h1v1h-1zm-21 22h1v1h-1zm32 0h1v1h-1zm56 0h1v1h-1zm36 2h1v1h-1zm43 0h2v1h-2zm2 0h1v1h-1zm6 0h4v1h-4zm4 0h1v1h-1zm-234 1h1v1h-1zm141 0h1v1h-1zm69 0h1v1h-1zm-131 3h1v1h-1zm-45 1h1v1h-1zm137 1h1v1h-1zm-128 1h1v1h-1zm56 0h1v1h-1zm-52 2h1v1h-1zm-15 1h1v1h-1zm67 0h1v1h-1zm72 1h1v1h-1zm-156 2h1v1h-1zm-2 2h1v1h-1zm67 0h1v1h-1zm31 0h1v1h-1zm-103 2h1v1h-1zm1 0h1v1h-1zm44 0h1v1h-1zm1 0h1v1h-1zm20 0h1v1h-1zm1 0h1v1h-1zm40 0h1v1h-1zm1 0h1v1h-1zm15 0h1v1h-1zm8 0h1v1h-1zm6 0h1v1h-1zm8 0h1v1h-1zm13 0h1v1h-1zm1 0h1v1h-1zm14 0h1v1h-1zm1 0h1v1h-1zm12 0h1v1h-1zm1 0h1v1h-1zm7 0h1v1h-1zm1 0h1v1h-1zm6 0h1v1h-1zm1 0h1v1h-1zm8 0h1v1h-1zm14 0h1v1h-1zm-56 1h1v1h-1zm28 0h1v1h-1zm31 0h1v1h-1zm-184 1h1v1h-1zm35 0h1v1h-1zm5 0h1v1h-1zm88 0h1v1h-1z" fill="#a2a2a2"/><path d="M209 37h1v1h-1zm28 0h1v1h-1zm-116 1h1v1h-1zm5 2h1v1h-1zm0 4h1v2h-1zm0 2h1v1h-1zm11 1h2v1h-2zm2 0h1v1h-1zm14 0h2v1h-2zm2 0h1v1h-1zm15 0h1v1h-1zm8 0h1v1h-1zm1 0h2v1h-2zm2 0h1v1h-1zm10 0h2v1h-2zm2 0h1v1h-1zm29 0h1v1h-1zm-55 1h1v1h-1zm10 0h1v1h-1zm1 0h1v1h-1zm12 0h2v1h-2zm2 0h1v1h-1zm29 0h1v1h-1zm-94 1h1v1h-1zm27 0h1v1h-1zm94 0h1v1h-1zm-125 1h1v1h-1zm15 0h1v11h-1zm46 0h1v1h-1zm39 0h2v1h-2zm-101 1h2v1h-2zm2 0h1v1h-1zm60 0h1v1h-1zm13 0h1v12h-1zm29 1h1v1h-1zm-110 1h1v1h-1zm108 0h1v1h-1zm22 1h1v1h-1zm17 0h1v1h-1zm-146 1h1v1h-1zm129 4h2v1h-2zm2 0h1v1h-1zm-124 1h1v1h-1zm14 1h1v1h-1zm16 0h1v1h-1zm70 0h1v1h-1zm-101 1h1v1h-1zm100 0h1v1h-1zm-53 1h1v1h-1zm27 0h1v1h-1zm-27 1h1v1h-1zm52 0h1v1h-1zm38 0h1v1h-1zm-149 1h1v1h-1zm28 0h1v1h-1zm8 0h1v1h-1zm20 0h1v1h-1zm4 0h1v1h-1zm49 0h1v1h-1zm32 0h1v1h-1zm-110 1h3v1h-3zm3 0h1v1h-1zm12 0h1v1h-1zm54 14h1v1h-1zm-93 1h1v1h-1zm6 1h1v1h-1zm1 2h2v1h-2zm2 0h1v2h-1zm2 1h1v1h-1zm-2 1h1v1h-1zm239 2h1v1h-1zm-1 1h1v1h-1zm-108 1h1v1h-1zm1 0h1v1h-1zm26 0h1v1h-1zm1 0h2v1h-2zm2 0h1v1h-1zm11 0h1v1h-1zm1 0h2v1h-2zm2 0h1v1h-1zm47 0h2v1h-2zm2 0h1v1h-1zm-207 1h1v1h-1zm9 0h1v1h-1zm1 0h1v1h-1zm37 0h1v1h-1zm34 0h1v1h-1zm32 0h1v1h-1zm1 0h2v1h-2zm2 0h1v1h-1zm12 0h2v1h-2zm2 0h1v1h-1zm10 0h1v1h-1zm1 0h1v1h-1zm13 0h1v1h-1zm1 0h1v1h-1zm26 0h1v1h-1zm10 0h1v1h-1zm13 0h1v1h-1zm1 0h1v1h-1zm20 0h1v1h-1zm-236 1h1v1h-1zm11 0h1v1h-1zm9 0h1v1h-1zm9 0h1v1h-1zm26 0h1v1h-1zm12 0h1v1h-1zm36 0h1v1h-1zm14 0h1v1h-1zm27 0h1v1h-1zm40 0h1v1h-1zm-154 1h1v1h-1zm24 0h1v1h-1zm37 0h1v1h-1zm13 0h1v1h-1zm54 0h1v1h-1zm13 0h1v1h-1zm39 0h1v1h-1zm-212 1h1v2h-1zm46 0h1v1h-1zm11 1h1v1h-1zm12 0h1v1h-1zm23 0h1v1h-1zm66 0h1v10h-1zm41 0h1v1h-1zm24 0h1v11h-1zm-223 1h1v1h-1zm35 0h1v1h-1zm100 0h1v1h-1zm-99 1h1v1h-1zm70 1h1v3h-1zm76 0h1v1h-1zm-180 1h1v2h-1zm6 0h1v1h-1zm46 0h1v2h-1zm54 0h1v1h-1zm-100 1h1v1h-1zm27 0h1v1h-1zm73 0h1v1h-1zm-109 1h1v1h-1zm3 0h1v1h-1zm35 0h1v1h-1zm17 0h2v1h-2zm2 0h1v1h-1zm50 0h1v1h-1zm-95 1h1v1h-1zm124 0h1v1h-1zm47 0h2v1h-2zm2 0h1v1h-1zm-130 1h1v1h-1zm38 0h1v1h-1zm41 0h1v1h-1zm25 2h1v1h-1zm-163 1h1v1h-1zm30 0h1v1h-1zm12 0h1v1h-1zm4 0h1v1h-1zm15 0h2v1h-2zm2 0h1v1h-1zm48 0h1v1h-1zm117 0h1v1h-1zm-166 1h1v1h-1zm37 0h1v1h-1zm11 0h1v1h-1zm15 0h1v1h-1zm26 0h1v1h-1zm79 0h1v1h-1zm-235 1h1v1h-1zm3 0h1v1h-1zm1 0h1v1h-1zm66 0h1v1h-1zm35 0h1v1h-1zm24 0h1v1h-1zm24 0h1v1h-1zm4 0h1v1h-1zm41 0h1v1h-1zm-174 1h1v1h-1zm114 0h2v1h-2zm2 0h1v1h-1zm109 0h1v1h-1zm1 0h1v1h-1zm-123 9h2v1h-2zm2 0h1v1h-1z" fill="#110a0c"/><path d="M233 37h1v1h-1zm-104 5h1v1h-1zm88 4h1v1h-1zm36 0h1v2h-1zm4 0h1v1h-1zm-61 1h1v1h-1zm54 0h1v1h-1zm3 1h1v1h-1zm-78 1h1v1h-1zm18 0h1v1h-1zm21 0h1v1h-1zm-41 1h1v1h-1zm86 0h1v1h-1zm-92 1h1v11h-1zm56 1h1v1h-1zm-106 4h1v1h-1zm5 0h1v1h-1zm15 6h1v1h-1zm30 0h1v1h-1zm-56 2h1v1h-1zm-7 1h1v1h-1zm20 0h1v1h-1zm40 0h1v1h-1zm14 0h1v1h-1zm54 0h1v1h-1zm-25 15h1v1h-1zm160 3h1v1h-1zm-111 6h1v1h-1zm63 0h1v1h-1zm4 0h1v1h-1zm17 0h1v1h-1zm-182 1h1v1h-1zm122 0h1v1h-1zm36 0h1v1h-1zm10 0h1v1h-1zm-131 1h1v1h-1zm27 0h1v1h-1zm-57 2h1v1h-1zm36 0h1v1h-1zm59 0h1v1h-1zm83 0h1v1h-1zm-191 1h1v1h-1zm36 0h1v1h-1zm124 0h1v1h-1zm-110 2h1v1h-1zm60 1h1v1h-1zm-99 1h1v1h-1zm4 0h1v1h-1zm20 0h1v1h-1zm128 3h1v1h-1zm-173 2h1v1h-1zm27 0h1v1h-1zm-38 1h1v1h-1zm57 0h1v1h-1zm35 0h1v1h-1zm-21 1h1v1h-1zm59 0h1v1h-1zm51 0h1v1h-1zm57 1h1v1h-1zm-110 1h1v1h-1zm-154 1h1v1h-1zm36 0h1v1h-1zm65 0h1v1h-1zm17 1h1v1h-1zm-73 1h1v1h-1zm109 0h1v1h-1z" fill="#ababab"/><path d="M234 37h1v1h-1zm4 0h1v26h-1zm-115 1h1v1h-1zm88 10h1v1h-1zm-30 4h1v1h-1zm64 6h1v1h-1zm-138 4h1v1h-1zm131 1h1v1h-1zm-108 2h1v1h-1zm78 15h1v1h-1zm4 0h1v26h-1zm-91 1h1v1h-1zm-14 3h1v1h-1zm21 5h1v1h-1zm24 1h1v1h-1zm-7 1h1v1h-1zm182 0h1v1h-1zm13 0h1v1h-1zm-70 1h1v1h-1zm47 0h1v1h-1zm-26 2h1v1h-1zm-129 1h1v1h-1zm142 0h1v10h-1zm22 0h1v1h-1zm-188 1h1v1h-1zm50 0h1v1h-1zm128 0h1v1h-1zm-81 1h1v1h-1zm0 5h1v1h-1zm-105 3h1v1h-1zm174 0h1v1h-1zm-119 1h1v1h-1zm27 0h1v1h-1zm9 1h1v1h-1zm145 1h1v1h-1zm-105 1h1v1h-1z" fill="#676666"/><path d="M106 39h1v1h-1zm102 0h1v1h-1zm7 8h1v1h-1zm-51 1h1v1h-1zm60 0h1v1h-1zm28 0h1v1h-1zm-141 3h4v1h-4zm4 0h4v1h-4zm4 0h1v2h-1zm76 1h1v1h-1zm-76 1h1v1h-1zm-3 1h1v1h-1zm144 0h2v1h-2zm2 0h1v1h-1zm-36 8h1v1h-1zm-41 3h1v1h-1zm23 1h1v1h-1zm43 0h1v1h-1zm113 23h1v1h-1zm-167 1h1v1h-1zm50 0h1v1h-1zm-118 1h1v1h-1zm104 1h1v1h-1zm3 0h1v1h-1zm64 0h1v1h-1zm14 0h1v1h-1zm11 0h1v1h-1zm-137 1h1v1h-1zm-49 1h1v1h-1zm126 0h1v1h-1zm12 0h1v1h-1zm78 0h1v1h-1zm-65 1h1v1h-1zm50 0h1v1h-1zm-164 1h1v1h-1zm139 0h1v1h-1zm-177 1h1v1h-1zm4 0h1v1h-1zm11 0h2v1h-2zm2 0h1v1h-1zm43 0h2v1h-2zm2 0h1v1h-1zm126 0h2v1h-2zm2 0h1v1h-1zm-187 1h1v2h-1zm81 0h1v3h-1zm-81 2h1v1h-1zm81 1h1v1h-1zm-94 1h1v1h-1zm45 1h1v1h-1zm-34 2h1v1h-1zm125 1h1v1h-1zm37 0h1v1h-1zm-157 1h1v1h-1zm89 0h1v1h-1zm81 0h1v1h-1zm-195 1h1v1h-1zm34 0h1v1h-1zm203 0h1v1h-1zm-159 1h1v1h-1z" fill="#2b2728"/><path d="M107 41h1v1h-1zm18 2h1v1h-1zm4 4h1v1h-1zm59 0h1v1h-1zm28 1h1v1h-1zm-88 1h1v1h-1zm9 0h1v1h-1zm126 2h1v1h-1zm-148 2h1v1h-1zm135 0h9v1h-9zm9 0h1v1h-1zm-139 1h1v1h-1zm107 6h1v1h-1zm-105 2h1v1h-1zm128 0h1v1h-1zm-143 1h1v1h-1zm31 1h1v1h-1zm29 0h1v1h-1zm-1 1h1v1h-1zm-41 17h1v1h-1zm-18 3h1v21h-1zm18 0h1v1h-1zm215 5h1v1h-1zm-105 1h1v1h-1zm17 0h1v1h-1zm42 1h1v1h-1zm-56 3h1v1h-1zm-95 1h9v1h-9zm9 0h1v1h-1zm37 0h8v1h-8zm8 0h1v1h-1zm120 0h8v1h-8zm8 0h1v1h-1zm-138 6h1v1h-1zm-49 1h1v1h-1zm100 1h1v1h-1zm-38 1h1v1h-1zm-93 1h1v1h-1zm-1 2h1v1h-1zm81 0h1v1h-1zm172 1h1v1h-1z" fill="#5e5d5d"/><path fill="#8c5060" d="M56 96h1v1h-1z"/></svg>