<svg xmlns="http://www.w3.org/2000/svg" role="img" viewBox="-31.10 -31.10 1669.20 1580.20"><title>Rumble Development Corporation (member) logo</title><path fill="#FFF" d="M1 1398V1.06295h1606c0 465.30527 0 930.6735-.45593 1396.4893C1071.05872 1397.99988 536.02936 1398 1 1398m215.8574-863.62097c-15.7854-.70355-31.5671-1.89362-47.35694-2.01422-38.6523-.29517-77.30835-.09674-115.9629-.09473-1.33261.00006-2.8113-.33087-3.95577.13971-1.09135.4488-2.5378 1.69507-2.60761 2.67743-.29128 4.09906-.12267 8.23083-.12267 13.32818 5.73193 0 10.8641-.148 15.9847.03242 9.22494.325 14.03643 4.57122 15.5947 13.65344.44694 2.60498.73255 5.2738.7346 7.91363.04161 53.81647.0316 107.63288.0308 161.44934-.0001 6.66455.14966 13.33374-.04522 19.99268-.31945 10.91571-4.92663 17.33447-13.56672 18.81872-3.08914.53064-6.31068.25788-9.46705.43604-9.28774.52405-9.03253.55011-9.38185 9.95685-.17575 4.7329 1.0748 6.25226 6.02307 6.2124 28.98903-.2337 57.9809-.11102 86.9718-.12475 1.5973-.00074 3.19453-.14588 4.7269-.22065V770.6255c-4.52372 0-8.67486.09411-12.82045-.01758-12.42827-.3349-17.86541-5.8512-18.097-18.237-.00934-.4997-.00485-.9997-.00485-1.49951-.0005-26.4917-.00581-52.9834.01027-79.4751.00106-1.7522.16513-3.50427.27453-5.67615 10.32983 0 20.13189-.05523 29.93148.07483 1.13692.01514 2.6407.7663 3.333 1.6684 11.54377 15.04321 22.98515 30.16498 34.14057 46.20483-.06047 12.65534.05866 25.31494-.24512 37.96442-.19956 8.31067-1.00762 16.7868-10.76358 19.82343-3.3951 1.0567-7.2089.98889-10.8366 1.03533-10.08791.12915-9.83962.05475-10.17676 10.04615-.16155 4.78753 1.21043 6.19976 6.08914 6.17846 42.80364-.18652 85.60852-.06268 128.41266-.17865 4.23978-.01147 8.47684-1.00787 13.20737-1.65979.1639-.03839.32779-.07672 1.4747.0365 7.5295-1.23059 15.1387-2.104 22.57281-3.7622 18.5018-4.1269 34.46698-13.14222 47.46338-26.88251 14.64838-15.48694 24.49927-33.78003 29.85437-54.45783 7.999-30.8866 6.79443-61.33581-5.15518-90.99518-11.32837-28.11743-29.78488-50.01696-57.41962-63.62866-15.3931-7.58197-31.89102-10.66961-48.6825-11.4516-23.06808-1.07421-46.19267-.93542-70.16247-1.35705m321.71402 118.66241c-12.16943-14.64319-24.33893-29.28631-37.134-44.6823 2.42438-.27833 3.70099-.28498 4.90387-.58613 6.88516-1.72351 14.22311-2.5249 20.52072-5.50989 10.49353-4.97387 16.19232-13.99292 16.62238-25.8844.41803-11.55816-4.27314-20.80353-14.53302-25.8418-6.39454-3.14013-13.87555-5.40447-20.93845-5.60412-24.139-.6825-48.30872-.27893-72.46674-.26904-.29425.00012-.58835.27136-.98721.46753v6.30072c1.6579.1048 2.96313.20361 4.27005.2672 8.27142.40284 10.58707 2.43049 10.92471 10.85712.3533 8.81806.22922 17.65815.19645 26.48816-.07364 19.82374-.1756 39.64753-.36085 59.4704-.06509 6.96301-2.74215 9.55756-9.65368 9.8844-1.79694.08509-3.59088.23303-5.33893.349v6.95722c14.039 0 27.67798.01147 41.31693-.0055 5.8673-.00726 5.87152-.03949 4.90808-6.7829-1.526-.16882-3.1457-.43603-4.77436-.51318-7.91537-.37512-9.77261-2.32184-9.7749-10.37677-.00287-9.9986-.0007-19.99713-.0007-29.99573v-10.22888c2.69543 0 4.71634.28357 6.6287-.05176 6.40966-1.12414 10.2582 1.80237 14.01134 6.83564 12.13037 16.26764 24.76691 32.15838 37.25684 48.15655.87299 1.11816 2.12158 2.72577 3.22968 2.75385 8.90466.22558 17.8175.12628 26.6687.12628v-5.34253c-5.47474-2.48743-10.19648-4.6327-15.4956-7.23914m181.90142-55.2564c4.77795-2.27991 9.35797-5.25123 14.3772-6.6886 9.0686-2.59705 19.74536 1.67626 19.33575 12.87438-.52923 14.46473.30872 28.97626-.07971 43.4505-.23462 8.73963-2.0896 10.03876-10.79273 11.0835-.9425.1131-1.85308.49158-2.59265.69574v6.20288h42.75306v-6.47223c-14.11841-2.38543-14.24384-2.54028-14.24555-17.34301-.00104-8.66419.96283-17.46412-.23492-25.95942-1.63208-11.5755 4.28698-17.2804 13.46215-21.40911 2.87201-1.29236 5.8479-2.47419 8.89362-3.23908 11.99457-3.01233 19.14691 2.57922 19.15912 14.81299.01239 12.4964.00409 24.99274.0028 37.48914-.00127 12.75445-.4934 13.34484-12.69518 15.36224-.30268.04999-.5694.31775-.84778.49261-1.01538 6.50068-.97138 6.57013 5.25451 6.57642 11.16346.01123 22.3269.0174 33.4903-.0077 2.41266-.00542 5.0608.68202 5.17126-3.42473.10358-3.85224-2.1477-3.8111-4.78045-3.94123-7.74634-.38263-10.19776-3.013-10.20575-10.88177-.01495-14.66242.12604-29.32636-.04382-43.98682-.17377-14.99524-9.25849-23.64361-24.11579-23.91846-11.42834-.21142-21.10925 3.90216-29.78674 10.8631-2.62482 2.10553-4.20831 2.26386-6.33527-.83063-4.69061-6.82415-11.8305-9.4063-19.7804-9.94677-10.33721-.7027-19.09686 3.43152-27.30431 9.18786-1.74677 1.2251-3.67286 2.19434-6.50263 3.86316v-13.22192c-3.0102.2677-5.5456.10052-7.83465.77246-6.17908 1.81384-12.17872 4.27118-18.40064 5.89331-3.096.80713-3.32483 2.69574-2.71668 4.72852.3584 1.19787 2.12159 2.64508 3.3791 2.77691 3.5755.37458 7.21563.13141 11.18469.13141 0 18.26856.02179 35.90643-.0097 53.54413-.01453 8.12665-2.36262 10.61291-10.67445 10.98633-2.84668.1278-4.19378.80914-4.1267 4.01495.06585 3.1482 1.62738 3.44434 4.11792 3.43042 12.16278-.06769 24.32617-.01709 36.4892-.0556 1.11126-.00354 2.22143-.34155 3.39281-.53424v-6.09656c-1.22198-.2431-2.17944-.51074-3.15441-.61548-8.383-.90045-10.47669-2.56976-10.8531-11.094-.51403-11.64074.09064-23.33654-.58495-34.96227-.39197-6.74622 1.98846-11.11054 8.23547-14.60334m443.66766 241.03919c.20545-3.86774-2.78576-2.95764-4.89233-3.18445-5.76917-.62134-8.88733-2.91846-9.09192-8.52478-.52795-14.46503-.56323-28.94952-.63379-43.42706-.00635-1.29792.80469-3.18586 1.83484-3.80799 6.77368-4.09027 13.35303-8.9101 20.6947-11.54095 7.77259-2.7851 19.43384.46436 19.16101 12.92725-.3169 14.47936.3446 28.98193-.05334 43.45703-.23804 8.66205-2.1831 10.03119-10.86585 11.03259-.92492.10663-1.8153.5138-2.59924.74536-.54895 6.41083-.54895 6.4198 5.51868 6.42645 8.16467.00898 16.32947.00238 24.49414.00238 4.25964.00006 8.51929.00006 12.7113.00006v-6.901c-13.31482-1.52874-14.16162-2.50402-14.16492-15.9367-.00231-9.1645.90064-18.44178-.22876-27.4649-1.40832-11.25202 4.13648-17.0146 13.20655-21.05769 2.87903-1.28338 5.82458-2.53057 8.86218-3.32599 12.14429-3.17962 19.46033 2.49976 19.46936 14.95069.00977 13.49676.0249 26.99365-.00806 40.49036-.02233 9.17932-2.09631 11.30706-11.3689 11.97271-.78564.05634-1.54882.42719-2.24194.62854-.82592 6.60804-.82592 6.63037 5.05884 6.63892 11.33069.01642 22.66126.00708 33.99194.00305 2.31983-.00085 4.76038.4701 4.8855-3.22638.12122-3.58166-1.82007-4.02008-4.69018-4.12366-7.70044-.27777-10.24842-3.04504-10.25586-10.83465-.01392-14.49652.10608-28.99426-.0487-43.48914-.08619-8.06762-1.6919-15.57818-9.43116-20.22333-9.83008-5.89996-20.13281-5.53674-30.20935-1.49267-6.344 2.5462-12.08655 6.59045-18.44104 10.15448-6.15918-10.2478-15.83386-13.62982-27.20068-12.76373-8.34888.63617-15.51905 4.56872-22.2854 9.28308-1.65235 1.1513-3.4878 2.03991-6.21656 3.61273v-13.64319c-3.73572.8435-6.7268 1.34589-9.61023 2.20856-4.91284 1.46985-9.65747 3.77624-14.65906 4.6004-5.28015.87-5.68371 3.36408-4.13781 8.0857h13.93213c0 19.25158.10998 37.89428-.07325 56.53405-.04907 4.98804-3.54956 7.69067-9.05895 8.00195-6.18397.3493-6.30689.52271-4.72034 7.2843 13.51562 0 27.14807.06129 40.77673-.14239.87866-.01312 1.7268-2.06982 2.58972-3.93m-652.47238 2.91395c17.14835-1.95386 30.39084-10.09699 39.19419-25.03803 7.41918-12.5918 10.03948-26.21417 8.42504-40.7398-1.7041-15.33283-8.052-28.3103-19.27954-38.8634-11.1787-10.50733-25.03247-14.28815-39.81588-14.66376-21.46949-.54548-42.95554-.44123-64.43476-.581-.4187-.00268-.84006.40094-1.14114.55432v6.68006c1.72925 0 3.03769-.00745 4.346.00116 8.88541.05853 10.64426 1.85931 10.65073 10.93127.00669 9.32984.0015 18.65973.00144 27.98956-.0001 19.49274.02585 38.9856-.01526 58.47821-.0134 6.35431-2.76877 9.1109-9.08441 9.30988-1.95148.06152-3.90653.00958-5.92395.00958v7.11835h5.81c19.65933 0 39.31893.052 58.9778-.0451 3.80707-.0188 7.61134-.61951 12.28974-1.1413m588.5079-68.52197c-4.84411-4.39655-9.04174-10.04578-14.65893-12.94452-14.32117-7.3905-27.71362-2.87842-40.2124 5.6303-1.92542 1.31068-3.93726 2.49445-6.9264 4.37788v-14.47803c-10.32495 3.23248-19.73559 6.17877-29.62304 9.2743v5.72509c1.39844.07294 2.38904.15973 3.38061.17102 11.44098.13061 11.4411.12756 11.44104 11.61114-.00006 27.14472.00403 54.28943-.00286 81.43415-.00208 8.3006-1.59528 9.94574-9.73584 10.23846-1.75806.06317-3.51148.25726-5.22278.38776v6.448h45.21014v-6.86853c-2.20288 0-4.15283.01257-6.10242-.00232-6.8109-.05195-9.21655-2.46485-9.24182-9.34943-.02759-7.4939-.03259-14.98798.01001-22.48169.0116-2.05573.22962-4.11017.41077-7.12634 2.52417 1.44086 4.18017 2.38678 5.8368 3.33148 13.54296 7.72296 27.41735 8.7752 41.34167 1.35455 22.63806-12.06439 26.42504-47.61212 14.09545-66.73327M948.24518 619.67645c-.38104-2.97302-.57501-5.98437-1.1748-8.9126-3.0315-14.80035-10.81849-25.6895-25.91431-29.9215-12.2013-3.42054-23.68836-.34882-34.76056 4.9137-1.8692.88848-3.67548 1.9093-6.36987 3.3181v-51.37847c-11.235-.96918-19.59302 7.41961-29.87037 6.62988v7.44824h14.71167v113.74384c2.92865 0 6.31208 1.00397 7.61396-.21509 2.48529-2.32709 3.78418-5.92108 5.93188-9.59955 1.63635 1.28669 3.15924 2.44855 4.6441 3.6573 14.77967 12.03124 38.07776 10.92827 51.64698-2.4101 10.1881-10.01477 13.43628-22.589 13.54132-37.27375m463.36126 179.82526c.00281-4.82984-.20324-9.67352.1178-14.48212.11768-1.76233 1.05616-3.9237 2.35437-5.07574 6.0232-5.34497 12.81104-9.43823 20.76978-11.34503 12.56262-3.00965 24.69055.48162 24.39953 18.2611-.20166 12.32099-.0083 24.64801-.05065 36.97211-.02954 8.6004-2.9187 11.46442-11.67908 11.8059-1.13367.0442-2.26343.19166-3.63367.31233v6.74225h45.08862v-6.90772c-1.04602-.07538-1.7008-.15253-2.35705-.1654-10.76172-.21186-12.37964-1.88916-12.44092-12.55188-.08227-14.31476.0968-28.6424-.46619-42.93976-.55627-14.12952-10.43371-22.87421-24.56823-23.36603-12.12268-.42181-22.35144 4.03522-31.88343 10.88538-1.6405 1.17895-3.38562 2.21234-6.19519 4.0349 0-4.00372.00293-6.62664-.0006-9.24957-.00733-5.58032-1.86475-7.15905-7.25086-5.36047-7.31458 2.44257-14.48047 5.32965-21.88318 8.09064v5.82776c3.76086 0 7.2218.13263 10.66724-.04114 2.87487-.14496 4.21594.64728 4.19262 3.84894-.11938 16.32043.12464 32.64502-.12866 48.9624-.16028 10.318-1.35473 11.2331-11.47021 11.88489-.9596.06189-1.90564.33337-2.854.50683v6.45575h43.68066v-6.6084c-1.49964-.1458-2.64063-.31366-3.7865-.35882-7.42847-.29291-9.95117-2.2619-10.35901-9.67151-.46594-8.46863-.20728-16.97717-.26319-26.4676M610.63171 666.90296c10.02295-4.3905 20.0459-8.78106 30.6225-13.41412v13.6457h28.75995v-6.31098c-1.12103-.23694-2.0614-.54492-3.02014-.62134-9.42542-.75049-11.3482-2.81964-11.3515-12.37354-.00727-20.82708-.00257-41.6541-.00275-62.4812v-5.396h-33.2638v6.62165c2.72169.12683 5.03736.22632 7.35218.344 7.88647.40081 10.40277 2.94934 10.42316 10.7448.03485 13.3293.15478 26.66181-.13446 39.98493-.0495 2.27918-1.38324 5.19428-3.1067 6.6582-7.33984 6.2342-15.93151 10.2724-25.3985 12.06806-13.42913 2.54712-22.5009-5.1153-22.57586-18.75354-.01282-2.33258-.00305-4.66528-.00305-6.99793-.00012-16.80957-.00006-33.61908-.00006-50.71435h-33.3321v6.59967c1.61072.09228 2.9057.21173 4.20228.23364 11.60022.19525 13.75274 2.33667 13.75671 13.7503.00446 12.82947-.09857 25.66004.03314 38.48816.10474 10.2019 3.33747 19.08216 12.4535 24.67267 7.32446 4.49195 15.50872 4.42572 24.5855 3.25122m375.34241 161.6927c6.03516-8.02265 8.54895-17.2184 8.59271-27.08674.1571-35.40771-27.52453-51.3219-57.75915-42.47058-19.81964 5.8023-31.2984 25.90991-28.18366 47.7304 2.29328 16.06483 9.0926 29.33375 25.32319 35.33942 9.73345 3.60175 19.84857 3.56025 29.976 1.12024 8.9115-2.14697 16.19526-6.65997 22.05091-14.63275m-333.50854-3.38904c4.2486-4.75927-.97724-5.02972-3.1571-7.20367-11.93495 13.17126-24.5257 24.40558-43.209 13.32123-10.65954-6.32404-16.6729-26.04285-12.73711-39.36396h60.62274c.54333-11.47937-3.4029-20.716-11.81915-27.60113-11.55958-9.45642-31.6454-10.3247-45.34034-2.69696-16.51397 9.19788-22.06952 24.05957-21.46985 41.91168 1.03022 30.66577 28.71473 47.1856 55.17377 39.339 9.27405-2.75031 15.51142-9.97865 21.93604-17.70619m153.9967 19.4856c14.6065.719 24.09717-7.90393 32.6759-18.04126 4.24591-5.01715 4.10944-5.1767-2.1997-8.09375-20.39661 18.09955-30.50428 20.97363-43.21302 12.82404-10.97882-7.04047-16.35046-28.90119-12.39953-39.45618h60.26336c.9986-8.49195-1.82019-15.40552-6.22424-21.86542-9.61926-14.10962-30.69873-16.27398-45.7782-10.5564-15.77655 5.98194-23.79345 17.97114-26.06317 34.62732-3.92694 28.81824 15.80963 51.08918 42.9386 50.56165m506.27844-4.12445c10.24317 4.61346 20.82251 5.74756 31.6255 2.50317 8.98644-2.69891 15.18358-9.30597 21.06579-16.1452 4.38903-5.1034 4.29724-5.18231-2.00098-8.64227-11.42664 12.69128-23.83557 23.77618-42.46081 13.45209-10.6084-5.88044-16.72522-24.59064-13.511-39.78058h60.56605c1.50598-12.97272-6.05799-26.49152-17.97083-31.64393-23.6466-10.22747-55.10388.90424-59.68066 31.52137-3.18445 21.3023 4.15442 38.37744 22.36694 48.73535m-262.96374-174.1839c6.91382.00409 13.97595.90906 20.70666-.19922 10.05982-1.6565 16.62488-9.23205 22.97266-16.56225 4.37463-5.05176 4.28113-5.13276-2.08777-8.5417-11.4729 12.67121-23.85596 23.80976-42.48279 13.34522-10.71765-6.02118-16.81018-24.75586-13.38171-39.73596h60.67285c.86597-8.818-2.10523-15.8272-6.67676-22.39837-10.31103-14.82099-35.3783-15.878-50.16406-8.00104-17.45337 9.29803-23.9754 27.46618-21.14264 46.763 2.74414 18.69275 14.44403 31.52118 31.58356 35.33032m-385.0218 99.93707c2.89405 3.25348 6.82649 6.04615 8.50898 9.83728 9.02246 20.32972 17.48242 40.909 26.14252 61.39966 1.20532 2.85193 1.96283 5.66248 6.3476 5.53491 4.37963-.12744 7.1662-.72497 9.09283-5.42352 8.18847-19.96881 16.89752-39.7237 25.34448-59.58728 2.69037-6.32642 5.78339-12.09186 13.59503-12.56073v-6.40637h-34.53961c-.01306 3.33276-1.37946 6.5044 3.72766 6.75268 8.41376.409 9.97254 3.20539 6.88379 11.18927-5.57068 14.39936-11.17474 28.7859-16.81372 43.15857-.51618 1.31562-1.38513 2.4928-2.21985 3.96247-.89563-.75605-1.62445-1.07025-1.83594-1.5935-6.52844-16.15309-13.12274-32.2815-19.42108-48.52455-1.8872-4.86676.6468-7.86328 6.0744-8.156 1.76813-.09534 3.53302-.24994 5.2989-.37744v-6.68994h-40.63838c1.68787 2.6524-2.14837 6.84484 4.4524 7.4845m308.5564-110.59083c-3.9494 1.32935-7.8988 2.65863-12.04688 4.05481v5.4873h44.58392v-6.25243c-1.2625-.24097-2.22375-.51435-3.20123-.59717-9.32855-.78992-11.54663-3.15088-11.54718-12.38727-.0022-34.16443-.00067-68.3288-.00067-102.49323 0-1.79742-.00006-3.5949-.00006-7.06774-10.4513 3.05346-20.09241 5.87023-29.86682 8.72595v6.7262h14.3449c.21204 1.13989.38147 1.62658.38184 2.11346.0232 31.33093.0788 62.66205-.04993 93.99243-.00964 2.34222-1.34619 4.67895-2.5979 7.6977m-104.338 120.76922c-.00013 14.66174.0009 29.32342-.00074 43.98517-.00147 12.9043-1.15253 14.1903-13.73938 15.41357-.30548.02966-.59204.25519-1.0899.48145v6.16674h44.7047c.15455-3.3623 1.7563-6.68804-3.65283-6.97851-8.89855-.47772-11.15966-3.13715-11.16034-12.13312-.00268-34.32171-.00097-68.64337-.00079-102.96509 0-1.7774.00006-3.55475.00006-6.79821-10.60077 3.11847-20.27032 5.96295-29.7511 8.75195v6.69061h14.6911c0 15.7804 0 31.08289-.00079 47.38544m679.22846 66.09686c1.79199-.87134 3.59765-1.71588 5.3734-2.61914 5.51405-2.80475 5.86903-3.7406 3.83448-10.3985-2.50366 1.3208-4.88281 2.80994-7.43664 3.88385-12.47083 5.24384-21.84229 1.30774-21.50452-14.0642.34753-15.81739.06763-31.64838.0896-47.4734.00268-1.9129.17432-3.8255.29492-6.30065h25.2483v-7.01209c-7.3794 0-14.3617-.12524-21.33595.055-3.28698.0849-4.56079-1.11774-4.24975-4.3551.17432-1.81556.03003-3.6617.03003-5.49409-.00025-6.57947 0-13.15893 0-19.43945-4.6084-1.38996-6.71839-.46088-7.38355 3.84613-1.89502 12.26922-7.07946 22.08185-20.14416 25.85095-1.12708.3252-2.1018 2.76422-2.21826 4.29205-.05286.6941 2.11804 2.14032 3.3617 2.24121 3.72326.30213 7.4868.10865 11.4735.10865 0 2.87054-.005 4.86163.00073 6.85278.05115 17.65619-.04077 35.31445.21363 52.96777.14197 9.85602 4.29858 14.89905 13.49926 17.9743 6.8269 2.2818 13.45533 1.10944 20.85328-.91607z"/><path fill="#D39329" d="M1 1398.45593c535.02936-.45593 1070.05872-.45605 1605.54407-.45593.45593 39.99109.45593 79.98218.45593 119.94263H1v-119.4867M1052.89563 1454.5v33.29065h12.05261v-45.79419c2.12403 1.93054 3.35315 2.99072 4.51905 4.11609 12.57702 12.13965 25.53454 23.91968 37.54199 36.59936 5.6294 5.94458 11.53796 5.80738 18.5454 5.05591v-58.90259h-11.78832v46.32471c-14.70044-14.17602-29.0088-27.3634-42.53247-41.31189-5.49768-5.67053-11.24744-5.93054-18.33838-4.92334 0 8.26978 0 16.4076.00012 25.54529m-301.27484 3.3778c8.50818 8.20374 17.53741 15.9463 25.34698 24.76856 5.4895 6.20142 11.54822 5.84046 18.46076 5.14942v-58.98743h-11.5752v46.22192c-1.70239-1.536-2.80359-2.47412-3.84314-3.47607-12.94458-12.47656-26.23706-24.62097-38.65442-37.60242-5.48217-5.73108-11.23352-5.99304-18.16162-5.08032v58.9806h11.67304v-45.15394c.69244-.45813 1.38488-.91626 2.07733-1.37427 4.72363 5.35303 9.44727 10.70606 14.67627 16.55396m500.02106-11.56714c3.63891-.17053 7.27795-.34107 11.4137-.53491-3.37183-9.07215-9.709-13.32434-17.5326-15.45069-15.3313-4.16674-30.66773-3.88427-45.71558 1.37622-12.74426 4.45496-20.68408 14.823-20.81408 26.53882-.13025 11.75208 7.01367 21.71118 20.1062 26.34119 21.24475 7.51294 42.2323 6.03247 62.64319-3.41174 1.15795-.53565 2.66894-1.94434 2.70825-2.99549.24792-6.61682.12549-13.24743.12549-19.83789h-39.00025v6.8064h26.7915c0 2.9226.41834 5.35266-.13183 7.5387-.443 1.76-1.71167 4.08923-3.20557 4.68676-13.74853 5.49866-27.8125 6.4983-41.96582 1.604-10.2677-3.55053-15.18872-10.33715-15.28283-20.41564-.09229-9.8678 5.38037-17.80591 15.15905-21.22461 10.66321-3.72803 21.5553-3.8938 32.44934-.93506 5.2024 1.41296 9.3302 4.33508 12.25184 9.91394M852.04407 1458.5v30.19214c17.11664-.60364 33.62433-.36328 49.94525-1.9928 16.33911-1.63122 26.61651-13.68323 26.59753-28.5863-.01855-14.54029-9.83752-25.42456-25.9538-28.10938-6.03582-1.0055-12.23919-1.23657-18.3753-1.35779-10.61145-.20984-21.23004-.05822-32.21362-.05822 0 9.97632 0 19.44433-.00006 29.91235m-334.18488 27.85169c2.78046-1.08643 5.7049-1.9048 8.31543-3.3075 9.56903-5.14172 15.729-12.65479 15.95813-24.05579.23389-11.63379-5.54736-19.96008-15.45459-24.82336-18.69598-9.17761-37.92813-9.39514-56.76477-.3164-10.59494 5.1062-16.51602 13.84155-15.94064 26.02428.53659 11.36023 7.1117 18.7129 16.85669 23.44288 14.9339 7.24816 30.491 7.27648 47.02975 3.03589m149.00263-44.8329v-12.59496h-12.45697c0 2.39087.013 4.36938-.00214 6.34765-.08166 10.65442.07526 21.3186-.34021 31.96009-.2918 7.47473-3.94263 12.05444-11.2074 13.29272-6.48663 1.10571-13.30353 1.70947-19.80426.99146-12.65991-1.39807-16.28174-5.8219-16.78326-18.5088-.24317-6.15197-.06427-12.32067-.07031-18.4818-.00507-5.14014-.0011-10.28028-.0011-15.7151h-11.78705c0 13.46326-.3913 26.74415.14429 39.98756.33014 8.16308 5.13745 14.08557 12.96685 16.72241 15.28394 5.1471 30.69391 5.41382 45.9333-.25159 7.47204-2.77783 12.2406-8.19726 12.74755-16.32739.54804-8.7887.46722-17.6167.6607-27.42224m-311.02996 26.06811v-6.71826h42.98584v-7.00342h-42.54474v-18.25793h49.3609v-6.7279h-61.89221v58.911h12.09006c0-6.63378 0-12.92736.00015-20.20349M995.67322 1456.5v-27.71704h-12.22138v58.9541h12.22095c0-10.34363 0-20.2904.00043-31.23706z"/><path fill="#353593" d="M297.40356 786.76245c-.16388.0384-.32775.07672-1.13525.14337-17.90887-.02264-35.17676.05793-52.4365-.27789-2.36858-.04602-5.259-1.63562-6.93313-3.42328-4.17198-4.45508-7.7821-9.43628-11.68933-14.55908-3.76384-4.97852-7.45615-9.60431-11.2845-14.56153-5.481-7.31542-10.756-14.35436-16.19083-21.2677-5.31532-6.76116-10.79367-13.39434-16.20045-20.08367-11.4642-15.10431-22.90558-30.22608-34.44934-45.2693-.6923-.9021-2.1961-1.65325-3.333-1.66839-9.7996-.13006-19.60166-.07483-29.93149-.07483-.1094 2.17188-.27347 3.92395-.27453 5.67615-.01608 26.4917-.01078 52.9834-.01027 79.4751 0 .49982-.0045.99982.00485 1.49951.23159 12.3858 5.66873 17.9021 18.097 18.237 4.14559.1117 8.29673.01758 12.82046.01758v15.91003c-1.53238.07477-3.12961.21991-4.7269.22064-28.9909.01374-57.98278-.10894-86.9718.12476-4.94829.03986-6.19883-1.4795-6.02308-6.2124.34932-9.40674.09411-9.4328 9.38186-9.95685 3.15636-.17816 6.3779.0946 9.46704-.43604 8.6401-1.48425 13.24726-7.90301 13.56672-18.81872.19488-6.65894.04512-13.32813.04522-19.99268.0008-53.81646.01081-107.63287-.0308-161.44934-.00205-2.63983-.28766-5.30865-.7346-7.91363-1.55827-9.08222-6.36976-13.32843-15.5947-13.65345-5.1206-.18042-10.25277-.0324-15.9847-.0324 0-5.09736-.16861-9.22913.12267-13.3282.0698-.98235 1.51626-2.22863 2.6076-2.67742 1.14448-.47058 2.62317-.13965 3.95578-.1397 38.65455-.00202 77.3106-.20045 115.9629.09472 15.78984.1206 31.57153 1.31067 48.0812 2.27813 15.54424 3.22077 28.92022 9.18512 40.45328 19.59076 9.23395 9.64844 14.86878 20.76416 16.50266 33.67041 3.71686 29.35962-9.96613 54.82282-36.74729 67.61628-7.5502 3.6068-15.86485 5.61346-24.20335 8.22692-9.04158.71338-17.70871 1.55384-27.13248 2.46772 2.93224 3.64026 5.34722 6.76764 7.89824 9.77984 6.32547 7.46894 12.71314 14.88513 19.26875 22.6073 16.61944 20.24878 32.73633 40.48224 49.70195 59.97705 3.97034 4.56226 10.81592 6.62226 16.67585 10.03132 5.86554 1.13195 11.39392 2.06616 17.4043 3.08178v15.07013m-82.62783-147.4959c3.76653-3.16157 8.20741-5.7934 11.1808-9.57807 11.78707-15.00318 12.61342-32.0177 7.00335-49.44373-3.10482-9.6441-8.8891-17.71612-19.34466-22.2024-12.4603-6.70916-26.02104-6.29833-40.48394-6.26006h-59.20746v96.31701c6.5198 0 12.64394.05292 18.76689-.01019 16.13666-.16632 32.2728-.38306 49.1882-.38928 2.96689-.28021 5.9436-.48248 8.89876-.8556 8.21442-1.03716 16.4135-2.16515 23.99806-7.57769z"/><path fill="#F79623" d="M297.89508 786.83826c-.49152-5.17798-.49152-10.28016-.49152-15.14594-6.01037-1.01562-11.53875-1.94983-16.98611-3.23797 5.83154-1.25843 11.60513-2.03809 17.32776-3.0937 11.52817-2.12646 22.61365-5.08508 31.90195-13.06982 20.86523-17.93695 30.66482-41.45752 34.19983-67.87152 2.38922-17.8529 2.23873-35.83996-1.50599-53.63934-5.86956-27.89911-20.07226-50.20264-44.64639-65.0863-18.36523-11.12317-38.86679-12.89997-59.7969-11.77723-11.39583-10.08838-24.77181-16.05273-39.88134-19.25317 22.81082.13739 45.93541-.0014 69.0035 1.07281 16.79147.78199 33.2894 3.86963 48.6825 11.4516 27.63473 13.6117 46.09124 35.51123 57.4196 63.62866 11.94962 29.65937 13.15418 60.10859 5.1552 90.99518-5.35511 20.6778-15.206 38.97089-29.85438 54.45783-12.9964 13.7403-28.96158 22.75561-47.46338 26.8825-7.43411 1.6582-15.0433 2.53162-23.06433 3.6864z"/><path fill="#2C2829" d="M538.8601 653.27203c5.01044 2.37586 9.73218 4.52112 15.20692 7.00855v5.34253c-8.8512 0-17.76404.0993-26.6687-.12628-1.1081-.02808-2.3567-1.63569-3.22968-2.75385-12.48993-15.99817-25.12646-31.88891-37.25684-48.15655-3.75314-5.03327-7.60168-7.95978-14.01135-6.83564-1.91235.33533-3.93326.05176-6.6287.05176v10.22888c0 9.9986-.00216 19.99713.00071 29.99573.00229 8.05493 1.85953 10.00165 9.7749 10.37677 1.62866.07715 3.24835.34436 4.77436.51318.96344 6.74341.95922 6.77564-4.90809 6.7829-13.63894.01697-27.27792.0055-41.31692.0055v-6.95722c1.74805-.11597 3.542-.26391 5.33893-.349 6.91153-.32684 9.5886-2.92138 9.65368-9.8844.18525-19.82287.2872-39.64666.36085-59.4704.03277-8.83001.15686-17.6701-.19645-26.48816-.33764-8.42663-2.65329-10.45428-10.92471-10.85711-1.30692-.0636-2.61215-.16242-4.27005-.26721v-6.30072c.39887-.19617.69296-.46741.98721-.46753 24.15802-.00989 48.32773-.41345 72.46674.26904 7.0629.19965 14.54391 2.46399 20.93845 5.60413 10.25988 5.03827 14.95105 14.28363 14.53301 25.8418-.43005 11.89147-6.12884 20.91052-16.62237 25.8844-6.2976 2.98498-13.63556 3.78637-20.52072 5.50988-1.20288.30115-2.4795.3078-4.90387.58612 12.79507 15.396 24.96457 30.03912 37.4227 44.9129m-38.17325-99.6748h-34.09012v45.19086c11.01154 0 21.63812.01599 32.2645-.01673 1.65683-.00512 3.35165-.05194 4.96081-.39703 2.75018-.58954 5.58585-1.11017 8.14093-2.22199 10.22977-4.45166 14.4722-14.34277 11.89896-27.1817-1.85517-9.25616-10.23517-15.04455-23.17508-15.37341z"/><path fill="#2F2B2C" d="M720.16919 598.00238c-5.94336 3.27545-8.3238 7.63977-7.93182 14.38599.6756 11.62573.07092 23.32153.58496 34.96228.3764 8.52423 2.47009 10.19354 10.85309 11.094.97497.10473 1.93243.37237 3.15441.61547v6.09656c-1.17138.19268-2.28155.5307-3.39282.53424-12.16302.03851-24.32641-.01209-36.4892.0556-2.49054.01392-4.05206-.28223-4.11792-3.43042-.06707-3.2058 1.28003-3.88715 4.12671-4.01495 8.31183-.37342 10.65992-2.85968 10.67444-10.98633.0315-17.6377.0097-35.27557.0097-53.54413-3.96905 0-7.60919.24317-11.18469-.1314-1.2575-.13184-3.02069-1.57905-3.37909-2.77692-.60815-2.03278-.37933-3.9214 2.71668-4.72852 6.22192-1.62213 12.22156-4.07947 18.40063-5.89331 2.28907-.67194 4.82447-.50476 7.83466-.77246V592.69c2.82977-1.66882 4.75586-2.63806 6.50263-3.86316 8.20745-5.75634 16.9671-9.89056 27.30432-9.18786 7.94989.54046 15.08978 3.12262 19.7804 9.94677 2.12695 3.09449 3.71044 2.93616 6.33526.83063 8.67749-6.96094 18.3584-11.07452 29.78674-10.8631 14.8573.27485 23.94202 8.92322 24.11578 23.91846.16987 14.66046.02887 29.3244.04383 43.98682.008 7.86877 2.45941 10.49914 10.20575 10.88177 2.63275.13013 4.88403.089 4.78045 3.94123-.11047 4.10675-2.7586 3.4193-5.17126 3.42474-11.1634.02508-22.32684.01892-33.4903.00769-6.22589-.00629-6.2699-.07574-5.25708-6.58075.28095-.17053.54767-.4383.85035-.48828 12.20178-2.0174 12.6939-2.60779 12.69519-15.36224.00128-12.4964.00958-24.99274-.00281-37.48914-.0122-12.23377-7.16455-17.82532-19.15912-14.81299-3.04571.7649-6.0216 1.94672-8.89362 3.23908-9.17517 4.12872-15.09423 9.83361-13.46215 21.40911 1.19775 8.4953.23388 17.29523.23492 25.95942.0017 14.80273.12714 14.95758 14.24554 17.34301v6.47223H740.7207v-6.20288c.73957-.20416 1.65015-.58264 2.59265-.69574 8.70313-1.04474 10.55811-2.34387 10.79273-11.0835.38843-14.47424-.44952-28.98577.07971-43.4505.4096-11.19812-10.26715-15.47143-19.33575-12.87438-5.01923 1.43737-9.59925 4.40869-14.68085 6.90594z"/><path fill="#2E2A2B" d="M1164.14014 839.20123c-.86255 1.48316-1.7107 3.53986-2.58936 3.55298-13.62866.20368-27.2611.1424-40.77673.1424-1.58655-6.7616-1.46363-6.935 4.72033-7.2843 5.5094-.31128 9.0099-3.01392 9.05896-8.00196.18323-18.63977.07325-37.28247.07325-56.53406h-13.93213c-1.5459-4.72161-1.14234-7.2157 4.13782-8.08569 5.00158-.82416 9.74621-3.13055 14.65905-4.6004 2.88343-.86267 5.87451-1.36505 9.61023-2.20856v13.64319c2.72876-1.57282 4.56421-2.46143 6.21655-3.61273 6.76636-4.71436 13.93653-8.64691 22.2854-9.28308 11.36683-.8661 21.04151 2.51593 27.20069 12.76373 6.3545-3.56403 12.09704-7.60828 18.44104-10.15448 10.07654-4.04407 20.37927-4.40729 30.20935 1.49267 7.73926 4.64515 9.34497 12.1557 9.43115 20.22333.15479 14.49488.0348 28.99262.0487 43.48914.00745 7.78961 2.55543 10.55688 10.25587 10.83465 2.87011.10358 4.8114.542 4.69018 4.12366-.12512 3.69647-2.56567 3.22553-4.8855 3.22638-11.33068.00403-22.66125.01337-33.99194-.00305-5.88476-.00855-5.88476-.03089-5.05884-6.63892.69312-.20135 1.4563-.5722 2.24195-.62854 9.27258-.66565 11.34656-2.7934 11.3689-11.97271.03295-13.4967.01782-26.9936.00805-40.49036-.00903-12.45093-7.32507-18.13031-19.46936-14.95069-3.0376.79542-5.98315 2.0426-8.86218 3.326-9.07007 4.04309-14.61487 9.80566-13.20655 21.05767 1.1294 9.02313.22645 18.30042.22876 27.4649.0033 13.43268.8501 14.40797 14.16492 15.93671v6.901c-4.19201 0-8.45166 0-12.7113-.00006-8.16467 0-16.32947.0066-24.49414-.00238-6.06763-.00665-6.06763-.01562-5.51868-6.42645.78394-.23157 1.67432-.63873 2.59924-.74536 8.68274-1.0014 10.62781-2.37054 10.86585-11.0326.39795-14.4751-.26355-28.97766.05334-43.45702.27283-12.4629-11.38842-15.71235-19.161-12.92725-7.34168 2.63086-13.92103 7.45068-20.69471 11.54095-1.03015.62213-1.84119 2.51007-1.83484 3.80799.07056 14.47754.10584 28.96203.63379 43.42706.20459 5.60632 3.32275 7.90344 9.09192 8.52478 2.10657.2268 5.09778-.68329 4.89197 3.56146z"/><path fill="#2C2829" d="M511.23169 841.83289c-4.24197.42706-8.04624 1.02777-11.8533 1.04657-19.65888.0971-39.31848.0451-58.97782.0451h-5.81v-7.11835c2.01743 0 3.97248.05194 5.92396-.00958 6.31564-.19897 9.07101-2.95557 9.0844-9.30988.04111-19.4926.01517-38.98547.01527-58.4782.00006-9.32984.00525-18.65973-.00144-27.98957-.00647-9.07196-1.76532-10.87274-10.65072-10.93127-1.30832-.0086-2.61676-.00116-4.34601-.00116v-6.68006c.30108-.15338.72244-.557 1.14114-.55432 21.47922.13977 42.96527.03553 64.43476.581 14.78341.3756 28.63717 4.15643 39.81588 14.66375 11.22754 10.5531 17.57544 23.53058 19.27954 38.8634 1.61444 14.52564-1.00586 28.14802-8.42504 40.73981-8.80335 14.94104-22.04584 23.08417-39.63062 25.13276m29.7063-62.07831c-.474-3.79706-.67304-7.65296-1.47077-11.38074-3.08123-14.3988-10.54376-25.69653-23.89093-32.59766-15.69506-8.11505-32.5736-3.92218-49.14343-5.33013v103.15374c11.19101 0 22.02194.47199 32.79437-.1203 13.26886-.72949 24.98212-4.97503 32.63172-17.06946 6.95404-10.9945 9.01422-23.07574 9.07904-36.65545zm559.46264-6.25617c12.10498 18.83893 8.318 54.38666-14.32006 66.45105-13.92432 7.42066-27.79871 6.36841-41.34168-1.35455-1.65662-.9447-3.31262-1.89063-5.83679-3.33148-.18115 3.01617-.39917 5.07061-.41077 7.12634-.0426 7.49371-.0376 14.9878-.01 22.48169.02526 6.88458 2.4309 9.29749 9.24181 9.34943 1.94959.01489 3.89954.00232 6.10242.00232v6.86853h-45.21014v-6.448c1.7113-.1305 3.46472-.32459 5.22278-.38776 8.14056-.29272 9.73376-1.93786 9.73584-10.23846.0069-27.14472.0028-54.28943.00286-81.43415.00006-11.48358-.00006-11.48053-11.44104-11.61114-.99157-.0113-1.98217-.09808-3.38061-.17102v-5.7251c9.88745-3.09552 19.2981-6.0418 29.62305-9.2743v14.47804c2.98913-1.88343 5.00097-3.0672 6.92639-4.37787 12.49878-8.50873 25.89123-13.02081 40.2124-5.63031 5.61719 2.89874 9.81482 8.54797 14.88354 13.22674m-13.07934 45.06226c4.09485-11.74414 4.03857-23.49994-.16553-35.17389-3.67114-10.19385-11.88818-16.22168-21.84143-15.6507-9.90198.56794-17.90747 5.76398-25.30615 11.83002-1.11304.91254-1.47278 3.22882-1.49646 4.9054-.13611 9.66034-.15296 19.32458-.04468 28.9856.13489 12.02306 9.86035 21.74694 21.8927 22.2362 12.61975.51306 21.11206-5.56732 26.96155-17.13263z"/><path fill="#312D2E" d="M948.25269 620.14124c-.11255 14.21997-3.36072 26.79418-13.54883 36.80895-13.56922 13.33838-36.86731 14.44135-51.64697 2.4101-1.48487-1.20874-3.00776-2.3706-4.6441-3.65729-2.14771 3.67847-3.4466 7.27246-5.9319 9.59955-1.30187 1.21906-4.6853.21509-7.61395.21509V551.7738h-14.71167v-7.44824c10.27735.78973 18.63538-7.59906 29.87036-6.62988v51.37848c2.6944-1.40882 4.50068-2.42963 6.36988-3.31812 11.0722-5.26251 22.55926-8.33423 34.76056-4.9137 15.09582 4.232 22.8828 15.12116 25.9143 29.92151.5998 2.92823.79377 5.93958 1.18232 9.37739m-55.40003 35.90173c14.98908 6.59863 28.57007-.96295 33.80426-12.00257 6.20868-13.09497 6.49085-26.6762 1.1543-40.09045-4.46204-11.21606-11.58551-15.57318-23.57868-15.19598-8.66735.27264-15.81414 4.63336-22.7304 9.2536-1.07196.71606-1.65747 2.85144-1.67707 4.34082-.13763 10.474.05793 20.95257-.10101 31.42596-.1491 9.82807 3.26813 17.44818 13.1286 22.26862z"/><path fill="#2F2B2C" d="M1411.60632 800.00134c.05603 8.99079-.20263 17.49933.2633 25.96796.40785 7.4096 2.93055 9.3786 10.35902 9.6715 1.14587.04517 2.28686.21302 3.7865.35883v6.6084h-43.68067v-6.45575c.94837-.17346 1.89441-.44494 2.854-.50683 10.11549-.6518 11.30994-1.5669 11.47022-11.8849.2533-16.31737.00928-32.64196.12866-48.9624.02332-3.20165-1.31775-3.99389-4.19262-3.84893-3.44544.17377-6.90638.04114-10.66724.04114v-5.82776c7.40271-2.76099 14.5686-5.64807 21.88318-8.09064 5.3861-1.79858 7.24353-.21985 7.25085 5.36047.00354 2.62293.00061 5.24585.00061 9.24958 2.80957-1.82257 4.5547-2.85596 6.1952-4.03491 9.53198-6.85016 19.76074-11.3072 31.88342-10.88538 14.13452.49182 24.01196 9.23651 24.56823 23.36603.563 14.29736.38392 28.625.4662 42.93975.06127 10.66273 1.67919 12.34003 12.4409 12.55188.65626.01288 1.31104.09003 2.35706.16541v6.90771h-45.08862v-6.74224c1.37024-.12067 2.5-.26813 3.63367-.31232 8.76037-.3415 11.64954-3.2055 11.67908-11.8059.04235-12.3241-.151-24.65113.05066-36.97212.29101-17.77948-11.83692-21.27075-24.39954-18.2611-7.95874 1.9068-14.74658 6.00006-20.76978 11.34503-1.29821 1.15204-2.2367 3.31341-2.35437 5.07574-.32104 4.8086-.11499 9.65229-.11792 14.98175z"/><path fill="#2E2B2B" d="M610.20483 666.97375c-8.6499 1.1037-16.83416 1.16993-24.15863-3.32202-9.11602-5.59051-12.34875-14.47076-12.45349-24.67267-.13171-12.82812-.02868-25.65869-.03314-38.48815-.00397-11.41364-2.1565-13.55506-13.75671-13.7503-1.29657-.02192-2.59156-.14137-4.20227-.23365v-6.59967h33.33209c0 17.09527-.00006 33.90478.00006 50.71435 0 2.33265-.00977 4.66535.00305 6.99793.07495 13.63824 9.14673 21.30066 22.57587 18.75354 9.46698-1.79566 18.05865-5.83386 25.3985-12.06806 1.72345-1.46393 3.05719-4.37903 3.10669-6.6582.28924-13.32312.1693-26.65564.13446-39.98492-.02039-7.79548-2.53669-10.344-10.42316-10.74482-2.31482-.11767-4.6305-.21716-7.35217-.34399v-6.62164h33.2638v5.396c.00017 20.82708-.00453 41.6541.00274 62.4812.0033 9.55389 1.92608 11.62304 11.3515 12.37353.95874.07641 1.8991.3844 3.02014.62134v6.31097h-28.75995v-13.64569c-10.5766 4.63306-20.59955 9.02362-31.04938 13.48492z"/><path fill="#2F2B2C" d="M985.78699 828.896c-5.66852 7.67242-12.95227 12.18542-21.86377 14.3324-10.12744 2.44-20.24256 2.4815-29.97601-1.12025-16.2306-6.00567-23.02991-19.2746-25.32319-35.33941-3.11474-21.8205 8.36402-41.9281 28.18366-47.73041 30.23462-8.85132 57.91626 7.06287 57.75915 42.47058-.04376 9.86835-2.55755 19.06409-8.77984 27.38709m-53.96991-53.40479c-8.07788 14.46606-7.71643 29.73444-3.14594 44.8905 2.91364 9.66175 9.64862 16.21106 20.5169 16.97083 11.13868.77863 19.10066-4.35553 23.51295-14.17401 6.33453-14.0962 6.323-28.65119 1.02716-43.16272-3.24683-8.89667-9.76343-14.26428-18.9383-15.727-9.65435-1.53905-17.08972 2.6667-22.97277 11.2024z"/><path fill="#302C2D" d="M652.26843 825.4845c-6.22747 7.44964-12.46484 14.67798-21.73889 17.42828-26.45904 7.84662-54.14355-8.67322-55.17377-39.33899-.59967-17.85211 4.95588-32.7138 21.46985-41.91168 13.69495-7.62775 33.78076-6.75946 45.34034 2.69696 8.41625 6.88513 12.36248 16.12176 11.81915 27.60113h-60.62274c-3.9358 13.32111 2.07757 33.03992 12.73712 39.36396 18.68329 11.08435 31.27405-.14997 43.20898-13.32123 2.17987 2.17395 7.4057 2.4444 2.95996 7.48157m-17.38855-50.61188c-4.49267-8.57349-12.44684-12.40204-21.95813-10.56897-9.67181 1.86401-17.78973 10.75409-18.3971 20.25415h43.17188c-.92029-3.36707-1.68982-6.18262-2.81665-9.68518zm171.10083 69.81952c-26.6474.52759-46.38397-21.74335-42.45703-50.56159 2.26972-16.65618 10.28662-28.64538 26.06317-34.62731 15.07947-5.7176 36.15894-3.55323 45.7782 10.5564 4.40405 6.4599 7.22284 13.37347 6.22424 21.8654h-60.26336c-3.95093 10.555 1.42071 32.41572 12.39953 39.45619 12.70874 8.1496 22.81641 5.2755 43.21302-12.82404 6.30914 2.91705 6.44561 3.0766 2.1997 8.09375-8.57873 10.13733-18.0694 18.76025-33.15747 18.0412m14.28137-59.72388c1.56348-.13617 3.12696-.2724 4.69507-.409-1.59723-14.3999-8.7719-20.96289-21.77075-20.4433-10.43927.41737-20.6267 10.43427-20.76538 20.8526 12.29694 0 24.5932 0 37.84106-.0003z"/><path fill="#2F2B2C" d="M1312.42383 840.37854c-17.89563-10.1687-25.2345-27.24383-22.05005-48.54614 4.57678-30.61713 36.03406-41.74884 59.68066-31.52137 11.91284 5.15241 19.47681 18.6712 17.97083 31.64393h-60.56604c-3.21423 15.18994 2.90259 33.90014 13.51099 39.78057 18.62524 10.3241 31.03418-.7608 42.46081-13.45208 6.29822 3.45996 6.39001 3.53888 2.00098 8.64227-5.8822 6.83923-12.07935 13.44629-21.0658 16.1452-10.80298 3.24439-21.38232 2.1103-31.94238-2.69238m37.01404-65.12616c-4.51294-9.0055-13.12036-13.10779-22.73304-10.83472-9.72009 2.29847-17.69018 11.3943-17.65039 20.55365h43.16736c-.98303-3.6643-1.70447-6.35388-2.78393-9.71893z"/><path fill="#302C2D" d="M1049.3816 666.27332c-16.74415-3.69861-28.44404-16.52704-31.18818-35.2198-2.83276-19.2968 3.68927-37.46496 21.14264-46.763 14.78577-7.87695 39.85303-6.81994 50.16406 8.00104 4.57154 6.57117 7.54273 13.58039 6.67676 22.39838h-60.67285c-3.42847 14.9801 2.66406 33.71478 13.38171 39.73596 18.62683 10.46454 31.00989-.674 42.48279-13.34521 6.3689 3.40893 6.4624 3.48993 2.08777 8.54169-6.34778 7.3302-12.91284 14.90576-22.97266 16.56225-6.73071 1.10828-13.79284.2033-21.10205.08869m29.87256-59.10181c-.00818-11.36865-7.66797-20.02234-17.94629-20.2749-13.11157-.3222-23.63061 8.3866-24.40857 20.66015 13.88757 0 27.75281 0 42.35486-.38525z"/><path fill="#F59422" d="M225.28088 768.99835c3.8357 4.77002 7.44582 9.75122 11.6178 14.2063 1.67413 1.78766 4.56455 3.37726 6.93312 3.42328 17.25975.33582 34.52764.25525 52.19042.33423-3.84085.56732-8.07792 1.56372-12.3177 1.5752-42.80413.11596-85.60901-.00788-128.41265.17864-4.8787.0213-6.25069-1.39093-6.08914-6.17846.33714-9.9914.08885-9.917 10.17676-10.04615 3.6277-.04644 7.4415.02137 10.8366-1.03534 9.75596-3.03662 10.56402-11.51275 10.76358-19.82342.30378-12.64948.18465-25.30908.39951-38.4322 5.56117 6.22157 11.03952 12.85475 16.35484 19.61591 5.43483 6.91334 10.70983 13.95228 16.15275 21.6441-.04392 1.3501-.26435 1.98603-.31605 2.63532-1.00003 12.5572-.95875 12.59528 11.71016 11.9026z"/><path fill="#2E2B2B" d="M664.39648 766.19727c-6.24206-.516-2.40582-4.70844-4.09369-7.36084h40.63837v6.68994c-1.76587.1275-3.53076.2821-5.29889.37744-5.4276.29272-7.9616 3.28924-6.0744 8.156 6.29834 16.24305 12.89264 32.37146 19.42108 48.52454.21149.52326.94031.83746 1.83594 1.5935.83472-1.46966 1.70367-2.64684 2.21985-3.96246 5.63898-14.37268 11.24304-28.75921 16.81372-43.15857 3.08875-7.98388 1.52997-10.78027-6.88379-11.18927-5.10712-.24829-3.74072-3.41992-3.72766-6.75268h34.53961v6.40637c-7.81164.46887-10.90466 6.23431-13.59503 12.56073-8.44696 19.86359-17.156 39.61847-25.34448 59.58728-1.92664 4.69855-4.7132 5.29608-9.09284 5.42352-4.38476.12757-5.14227-2.68298-6.3476-5.5349-8.66009-20.49067-17.12005-41.06995-26.14251-61.39967-1.6825-3.79113-5.61493-6.5838-8.86768-9.96093z"/><path fill="#2F2B2C" d="M973.57764 655.39038c.98565-2.67902 2.3222-5.01575 2.33185-7.35797.12872-31.33038.07312-62.6615.04992-93.99243-.00037-.48688-.1698-.97357-.38183-2.11347h-14.34491v-6.7262l29.86682-8.72594c0 3.47284.00006 5.27032.00006 7.06774 0 34.16443-.00153 68.3288.00067 102.49323.00055 9.23639 2.21863 11.59735 11.54718 12.38727.97748.08282 1.93872.3562 3.20123.59717v6.25244h-44.58392v-5.4873c4.14807-1.39619 8.09747-2.72547 12.31293-4.39454z"/><path fill="#2E2B2B" d="M868.974 775.99927c.00036-15.8025.00036-31.10498.00036-46.88538h-14.6911v-6.69061c9.48078-2.789 19.15033-5.63348 29.7511-8.75195 0 3.24347-.00006 5.0208-.00006 6.79821-.00018 34.32172-.00189 68.64337.0008 102.9651.00067 8.99596 2.26177 11.65539 11.16033 12.1331 5.40912.29048 3.80738 3.61622 3.65284 6.97852h-44.70471v-6.16674c.49786-.22626.78442-.45179 1.0899-.48145 12.58685-1.22326 13.73791-2.50928 13.73938-15.41357.00165-14.66175.00061-29.32343.00116-44.48523z"/><path fill="#2C2829" d="M1547.82568 842.70984c-7.0216 1.91186-13.65002 3.08423-20.47692.80243-9.20069-3.07526-13.3573-8.11829-13.49927-17.9743-.2544-17.65333-.16248-35.3116-.21363-52.96778-.00573-1.99115-.00073-3.98224-.00073-6.85278-3.9867 0-7.75024.19348-11.4735-.10865-1.24366-.10089-3.41456-1.54711-3.3617-2.2412.11645-1.52784 1.09118-3.96686 2.21826-4.29206 13.0647-3.7691 18.24914-13.58173 20.14416-25.85095.66516-4.307 2.77515-5.23609 7.38355-3.84613 0 6.28052-.00025 12.85998 0 19.43945 0 1.8324.14429 3.67853-.03003 5.49408-.31104 3.23737.96277 4.44 4.24976 4.3551 6.97424-.18023 13.95654-.05499 21.33593-.05499v7.01209h-25.24829c-.1206 2.47515-.29224 4.38775-.29492 6.30066-.02197 15.825.25793 31.656-.0896 47.47338-.33777 15.37195 9.0337 19.30805 21.50452 14.06421 2.55383-1.07391 4.93298-2.56305 7.43664-3.88385 2.03455 6.6579 1.67957 7.59375-3.83447 10.3985-1.77576.90326-3.58142 1.7478-5.74976 2.73279z"/><path fill="#FEFCF9" d="M1052.8955 1454v-25.04529c7.09095-1.0072 12.8407-.74719 18.33839 4.92334 13.52368 13.94849 27.83203 27.13587 42.53247 41.3119v-46.32472h11.78833v58.9026c-7.00745.75146-12.91602.88866-18.54541-5.05592-12.00745-12.67968-24.96497-24.45971-37.542-36.59936-1.16589-1.12537-2.39501-2.18555-4.51904-4.11609v45.79419h-12.05261c0-11.1095 0-22.20007-.00012-33.79065zm-301.52734 3.63037c-4.97637-5.60046-9.7-10.95349-14.42364-16.30652-.69245.45801-1.38489.91614-2.07733 1.37427v45.15393h-11.67304v-58.98059c6.9281-.91272 12.67945-.65076 18.16162 5.08032 12.41736 12.98145 25.70984 25.12586 38.65442 37.60242 1.03955 1.00195 2.14075 1.94006 3.84314 3.47607v-46.22192h11.5752v58.98743c-6.91254.69104-12.97126 1.052-18.46076-5.14942-7.80957-8.82226-16.8388-16.56482-25.5996-25.01599zm500.04566-11.62988c-2.6936-5.26868-6.82141-8.1908-12.0238-9.60376-10.89405-2.95874-21.78614-2.79297-32.44935.93506-9.77868 3.4187-15.25134 11.3568-15.15905 21.2246.09411 10.0785 5.01513 16.86512 15.28283 20.41566 14.15332 4.89428 28.21729 3.89465 41.96582-1.604 1.4939-.59754 2.76258-2.92677 3.20557-4.68678.55017-2.18603.13184-4.61608.13184-7.5387h-26.7915v-6.80639h39.00024c0 6.59046.12243 13.22107-.1255 19.8379-.0393 1.05114-1.55029 2.45983-2.70824 2.99548-20.4109 9.44421-41.39844 10.92468-62.6432 3.41174-13.09252-4.63-20.23644-14.58911-20.1062-26.34119.13001-11.71582 8.06983-22.08386 20.8141-26.53882 15.04785-5.2605 30.38427-5.54296 45.71557-1.37622 7.8236 2.12635 14.16077 6.37854 17.5326 15.45069-4.13575.19384-7.77479.36438-11.64173.22473z"/><path fill="#FEFDFB" d="M852.04407 1458c.00006-9.96802.00006-19.43603.00006-29.41235 10.98358 0 21.60217-.15161 32.21362.05822 6.13611.12122 12.33948.3523 18.3753 1.3578 16.11628 2.6848 25.93525 13.56908 25.9538 28.10937.01898 14.90307-10.25842 26.95508-26.59753 28.5863-16.32092 1.62952-32.82861 1.38916-49.94525 1.9928V1458m12.1789-.5v24.13586c12.02343-.5802 23.37072-.50586 34.54754-1.84948 10.33472-1.24231 16.37567-9.04639 17.10449-19.7312.76538-11.21985-4.0863-19.34644-14.28607-22.38953-12.14996-3.625-24.63214-1.22717-37.36578-1.99915 0 7.56238 0 14.198-.00019 21.8335z"/><path fill="#FEFCF9" d="M517.48682 1486.50598c-16.16638 4.0863-31.72348 4.05799-46.65738-3.19018-9.745-4.72999-16.3201-12.08265-16.8567-23.44288-.57537-12.18273 5.34571-20.91809 15.94065-26.02429 18.83664-9.07873 38.06879-8.8612 56.76477.3164 9.90723 4.86329 15.68848 13.18958 15.4546 24.82337-.22913 11.401-6.3891 18.91407-15.95814 24.05579-2.61053 1.4027-5.53497 2.22107-8.6878 3.4618m-34.68085-6.52308c11.00247 3.37878 21.9605 3.56238 32.67938-.9607 8.93555-3.77062 14.01727-10.41125 14.00379-20.4176-.01331-9.90698-4.78595-16.76562-13.73047-20.64526-10.67615-4.63086-21.67166-4.73791-32.6232-1.1659-12.4461 4.05933-17.55088 12.08106-16.37302 25.0409.86939 9.56519 7.22067 14.48071 16.04352 18.14856z"/><path fill="#FEFDFB" d="M666.86182 1442.01611c-.19349 9.30823-.11267 18.13623-.6607 26.92493-.50697 8.13013-5.27552 13.54956-12.74757 16.3274-15.23938 5.6654-30.64935 5.39867-45.93329.25158-7.8294-2.63684-12.63671-8.55933-12.96685-16.72241-.53559-13.24341-.1443-26.5243-.1443-39.98755h11.78706c0 5.43481-.00397 10.57495.0011 15.71509.00604 6.16113-.17286 12.32983.0703 18.4818.50153 12.6869 4.12336 17.11073 16.78327 18.5088 6.50073.71801 13.31763.11425 19.80426-.99146 7.26477-1.23828 10.9156-5.818 11.2074-13.29272.41547-10.64148.25855-21.30567.34021-31.96009.01514-1.97827.00214-3.95678.00214-6.34765h12.45697v13.09228z"/><path fill="#FDFAF6" d="M355.83179 1468.07813c-.0001 6.7849-.0001 13.07849-.0001 19.71227h-12.09005v-58.911h61.89221v6.7279h-49.3609v18.25793h42.54474v7.00342h-42.98584c0 2.57337 0 4.64575-.00006 7.20948zM995.67297 1457c-.00018 10.44665-.00018 20.39343-.00018 30.73706h-12.22095v-58.9541h12.22138c0 9.26453 0 18.49084-.00025 28.21704z"/><path fill="#FEFDFD" d="M258.03494 554.2337c20.79288-1.44 41.29444.3368 59.65967 11.45997 24.57413 14.88366 38.77683 37.18719 44.6464 65.0863 3.74471 17.79938 3.8952 35.78644 1.50598 53.63934-3.535 26.414-13.3346 49.93457-34.19983 67.87152-9.2883 7.98474-20.37378 10.94336-31.90195 13.06983-5.72263 1.0556-11.49622 1.83526-17.66495 2.89587-5.94092-3.05505-12.7865-5.11505-16.75684-9.6773-16.96562-19.49482-33.08251-39.72828-49.54531-60.44977.0369-11.92334.1101-23.08918.18332-34.255 7.96403-2.74061 16.27868-4.74726 23.82888-8.35407 26.78116-12.79346 40.46415-38.25666 36.74729-67.61628-1.63388-12.90625-7.26871-24.02197-16.50266-33.6704z"/><path fill="#FDFCFC" d="M181.09985 647.5094c-16.13633.19665-32.27247.4134-48.40913.57971-6.12295.06311-12.24709.0102-18.7669.0102v-96.31702c19.72459 0 39.46603 0 59.79032.39532 2.41754 3.0965 4.96787 5.57276 5.90569 8.55585 1.17123 3.72565 1.35658 7.86676 1.37655 11.83148.12577 24.98102.08754 49.9629.10347 74.94446z"/><path fill="#F69524" d="M181.48938 647.60461c-.40546-25.07678-.36723-50.05865-.493-75.03967-.01997-3.96472-.20532-8.10583-1.37655-11.83148-.93782-2.9831-3.48815-5.45935-5.43724-8.48187 13.4116-.50757 26.97235-.9184 39.59958 6.55108.2018 27.37213.23664 53.98395.2715 80.59577-6.8625 5.28064-15.06157 6.40863-23.276 7.4458-2.95514.3731-5.93186.57538-9.28829.76037z"/><path fill="#F8F8F8" d="M214.4147 639.33252c-.39589-26.5459-.43074-53.15772-.42447-80.27008 10.08056 3.46618 15.86484 11.5382 18.96966 21.18231 5.61007 17.42603 4.78372 34.44055-7.00335 49.44373-2.97339 3.78467-7.41427 6.4165-11.54184 9.64404z"/><path fill="#F69524" d="M213.58697 663.74731c.30124 11.29297.22803 22.4588-.00183 34.09742-6.51928-6.96473-12.90695-14.38092-19.23242-21.84986-2.55102-3.0122-4.966-6.13958-7.89824-9.77984 9.42377-.91388 18.0909-1.75434 27.1325-2.46772z"/><path fill="#F4F4F4" d="M225.20935 768.64557c-12.59738 1.04547-12.63866 1.00738-11.63863-11.5498.0517-.6493.27213-1.28522.4521-2.30378 3.73038 4.24927 7.4227 8.87506 11.18653 13.85358z"/><path fill="#F8F8F8" d="M501.14685 553.59766c12.47992.32843 20.85992 6.11682 22.71509 15.37298 2.57324 12.83893-1.6692 22.73004-11.89896 27.1817-2.55508 1.11182-5.39075 1.63245-8.14093 2.22199-1.60916.3451-3.30398.3919-4.96081.39703-10.62638.03272-21.25296.01673-32.2645.01673v-45.19086c11.28851 0 22.68933 0 34.55011.00043z"/><path fill="#FCFCFC" d="M540.93842 780.21246c-.06525 13.12183-2.12543 25.20307-9.07947 36.19757-7.6496 12.09443-19.36286 16.33997-32.63172 17.06946-10.77243.59229-21.60336.1203-32.79437.1203V730.44605c16.56983 1.40795 33.44837-2.78492 49.14343 5.33013 13.34717 6.90113 20.8097 18.19886 23.89093 32.59766.79773 3.72778.99677 7.58368 1.4712 11.83862z"/><path fill="#F8F8F8" d="M1087.20898 818.93066c-5.73718 11.19532-14.22949 17.2757-26.84924 16.76264-12.03235-.48926-21.75781-10.21314-21.8927-22.2362-.10828-9.66102-.09143-19.32526.04468-28.9856.02368-1.67658.38342-3.99286 1.49646-4.9054 7.39868-6.06604 15.40417-11.26208 25.30615-11.83002 9.95325-.57098 18.17029 5.45685 21.84143 15.6507 4.2041 11.67395 4.26038 23.42975.05322 35.54388z"/><path fill="#FAFAFA" d="M892.52527 655.83472c-9.53308-4.61219-12.95032-12.2323-12.80121-22.06037.15894-10.47339-.03662-20.95196.10101-31.42596.0196-1.48938.6051-3.62476 1.67707-4.34082 6.91626-4.62024 14.06305-8.98096 22.7304-9.2536 11.99317-.3772 19.11664 3.97992 23.57868 15.19598 5.33655 13.41425 5.05438 26.99549-1.1543 40.09046-5.2342 11.0396-18.81518 18.6012-34.13165 11.7943zm39.5238 119.36987c5.65106-8.24909 13.08643-12.45483 22.74079-10.91577 9.17486 1.4627 15.69146 6.83032 18.93829 15.72699 5.29584 14.51153 5.30737 29.06653-1.02716 43.16272-4.4123 9.81848-12.37427 14.95263-23.51294 14.174-10.86829-.75976-17.60327-7.30907-20.5169-16.97082-4.5705-15.15606-4.93195-30.42444 3.37792-45.17712z"/><path fill="#F4F4F4" d="M635.05853 775.21619c.94818 3.159 1.71771 5.97455 2.638 9.34161h-43.17187c.60736-9.50006 8.72528-18.39014 18.3971-20.25415 9.51128-1.83307 17.46545 1.99548 22.13677 10.91254zm184.72772 9.7522c-12.77203.00018-25.0683.00018-37.36523.00018.13867-10.41834 10.32611-20.43525 20.76538-20.8526 12.99884-.5196 20.17352 6.0434 21.77075 20.4433-1.56811.1366-3.13159.27282-5.1709.40911zm529.83057-9.37824c.90051 3.02728 1.62195 5.71686 2.60498 9.38116h-43.16736c-.0398-9.15936 7.9303-18.25518 17.6504-20.55365 9.61266-2.27307 18.22009 1.82923 22.91198 11.17249zm-270.73108-168.22601c-14.23364.19262-28.09887.19262-41.98645.19262.77796-12.27356 11.297-20.98236 24.40857-20.66015 10.27832.25256 17.93811 8.90625 17.57788 20.46753z"/><path fill="#D3942B" d="M864.22302 1457c.00013-7.1355.00013-13.77112.00013-21.3335 12.73364.77198 25.21582-1.62585 37.36578 1.99915 10.19977 3.04309 15.05145 11.16968 14.28607 22.38953-.72882 10.68481-6.76977 18.48889-17.1045 19.7312-11.17681 1.34362-22.5241 1.26928-34.54754 1.84948 0-8.6007 0-16.36828.00006-24.63586zm-381.79193 22.86414c-8.44797-3.54908-14.79925-8.4646-15.66864-18.02979-1.17786-12.95984 3.92691-20.98157 16.37302-25.0409 10.95154-3.57201 21.94705-3.46496 32.6232 1.1659 8.94452 3.87964 13.71716 10.73828 13.73047 20.64526.01348 10.00635-5.06824 16.64698-14.00379 20.4176-10.71887 4.52308-21.6769 4.33948-33.05426.84193z"/></svg>