<svg xmlns="http://www.w3.org/2000/svg" role="img" viewBox="7.67 10.17 147.29 125.92"><title>µRV32 - MicroRV32 logo</title><defs id="defs4"><style id="style2">.cls-1{fill:#fff;font-family:Arial-Black,Arial;font-size:29.13px;font-weight:800}</style></defs><path id="rect6" fill="#004d8e" d="M101.75 27.5h50.38v65.51h-50.38z"/><g id="text12" fill="#fff" class="cls-1" transform="translate(103.97 53.75)"><path id="path27" d="M2.13354 0v-20.85185h8.86133q3.34255 0 4.85026.56895 1.52193.55472 2.43224 1.9913.91031 1.4366.91031 3.28567 0 2.3469-1.3797 3.88305-1.37968 1.52193-4.12485 1.92019 1.36547.79652 2.24734 1.7495.89609.95299 2.4038 3.38523L20.88028 0h-5.03516l-3.04386-4.53734q-1.6215-2.43224-2.21889-3.05808-.59739-.64006-1.2659-.86764-.66851-.2418-2.11932-.2418h-.85342V0zm4.2102-12.0332h3.11498q3.02963 0 3.78348-.25602.75385-.25602 1.18056-.88186.42671-.62584.42671-1.5646 0-1.05255-.56894-1.69261-.55472-.6543-1.57883-.82498-.51205-.07112-3.0723-.07112H6.34374z"/><path id="path29" d="M29.59896 0l-7.45318-20.85185h4.56578L31.98853-5.4192l5.10628-15.43265h4.46622L34.09363 0z"/></g><path id="path14" fill="#fdc62f" d="M97.67 28.05c0-.2-.01-.41-.03-.61H84.01c-.04.61-.04 1.22-.04 1.83 0 11.37 0 22.73-.02 34.1 0 .91.04 1.84-.14 2.72-.76 3.87-2.75 7-5.84 9.45-6.06 4.81-13.64 3.11-17.03-3.84-1.36-2.78-1.85-5.73-1.85-8.81.02-16.31.02-32.62 0-48.92 0-.3-.02-.6-.05-.91H44.78c-.24 3.98-.59 7.95-.98 11.91-.47 4.79-.99 9.58-1.58 14.36-.86 6.94-1.76 13.87-2.72 20.8-.59 4.26-1.39 8.48-2.82 12.56-2.9 8.29-6.63 16.2-11.1 23.74-3.39 5.73-7.1 11.27-10.53 16.98-1.49 2.48-2.78 5.1-3.88 7.78-1.04 2.53-.8 5.11.7 7.49 1.07 1.71 1.97 2.5 3.61 3.6.33.22 2.36.84 2.78.89 2.73.35 4.38-.16 6.73-1.66 2.88-1.84 4.69-4.57 5.8-7.71 1.43-4.05 2.75-8.15 3.9-12.28 2.24-8.05 4.37-16.12 6.46-24.21 2.05-7.98 3.98-15.98 5.98-23.97.2-.78.45-1.55.68-2.32.08.02.15.04.23.06 0 .3.02.6 0 .89-.33 3.98 0 7.93.45 11.88.44 3.9 1.24 7.72 3.01 11.26 1.52 3.05 3.61 5.64 6.8 7.05 4.69 2.08 9.51 1.61 14.23.21 5.51-1.63 9.73-5.16 13.14-9.72.32-.42.59-.88.88-1.32.07.03.13.06.2.08.02.18.05.35.06.53.09 2.38.55 4.68 1.44 6.9 1.37 3.42 4.12 5.07 7.76 4.56.57-.08 1.12-.2 1.66-.36V28.05z"/><g id="text18" fill="#fff" class="cls-1" transform="translate(128.51 88.74)"><path id="path32" d="M14.73568-3.71237V0H.72541q.22757-2.1051 1.36546-3.98262 1.1379-1.89174 4.49467-5.00672 2.7025-2.51758 3.3141-3.41367.82498-1.23745.82498-2.44646 0-1.33702-.7254-2.0482-.71119-.72541-1.9771-.72541-1.25167 0-1.9913.75385t-.85342 2.50336l-3.98261-.39826q.35559-3.29988 2.2331-4.73647 1.87752-1.43659 4.6938-1.43659 3.08653 0 4.85026 1.66417 1.76373 1.66416 1.76373 4.13908 0 1.40814-.51205 2.68826-.49782 1.2659-1.59304 2.65982-.72541.92454-2.61715 2.65982-1.89175 1.73528-2.4038 2.30423-.49782.56894-.81074 1.10944z"/></g><g id="text22" fill="#fff" class="cls-1" transform="translate(106.01 88.91)"><path id="path35" d="M1.09522-5.533l3.86883-.46937q.1849 1.47925.99565 2.26155.81075.7823 1.96286.7823 1.23746 0 2.07665-.93876.85342-.93876.85342-2.5318 0-1.5077-.81075-2.38957-.81074-.88187-1.97708-.88187-.76808 0-1.83485.2987l.44093-3.25721q1.6215.04267 2.47492-.69696.85341-.75385.85341-1.9913 0-1.05256-.62584-1.6784t-1.66416-.62584q-1.0241 0-1.7495.71118-.72541.71118-.88187 2.07665l-3.68392-.62584q.38403-1.89174 1.15211-3.0154.7823-1.1379 2.162-1.77796 1.3939-.65429 3.11497-.65429 2.94429 0 4.72224 1.87752 1.46504 1.53615 1.46504 3.47057 0 2.74516-3.00119 4.38088 1.79218.38404 2.85895 1.72106 1.081 1.33702 1.081 3.22876 0 2.74516-2.00554 4.67958Q10.93797.35559 7.95101.35559q-2.8305 0-4.6938-1.6215-1.8633-1.63571-2.16199-4.26708z"/></g></svg>