<svg xmlns="http://www.w3.org/2000/svg" role="img" viewBox="-133.30 -123.30 7711.60 2101.60"><title>S2C Limited logo</title><style>svg {enable-background:new 0 0 7445.15 1858.94}</style><style>.st0{fill:#808284}.st1{fill:#87b650}</style><path d="M3457.32 204.08c-481.48 0-531.69 31.58-531.69 187.76 0 169.16 91.14 210.03 531.69 230.51 637.7 29.73 723.2 63.2 723.2 375.56 0 340.18-221.25 377.36-767.79 377.36-686.03 0-725.05-132.02-725.05-455.47h195.22c0 243.54 29.68 278.86 531.67 278.86 461.04 0 570.73-20.42 570.73-200.76 0-174.78-22.32-182.21-527.98-198.92-652.53-20.49-726.88-156.19-726.88-407.15 0-319.76 150.56-364.37 726.88-364.37 626.54 0 686.01 133.85 686.01 433.16h-191.5c-.01-224.97-65.06-256.54-494.51-256.54z" class="st0"/><path d="M5590.61 474.18c0-246.94-52.82-267.65-533.53-267.65-520.26 0-535.34 20.71-535.34 348.69h-197.98c0-499.5 133.87-527.76 733.32-527.76 571.22 0 731.41 52.75 731.41 435.42 0 414.7-346.82 427.93-672.97 427.93-433.59 0-593.78 22.59-593.78 212.98v92.39H5788.5v179.09H4323.77v-273.33c0-367.63 354.4-390.19 795.53-390.19 320.5-.01 471.31-35.89 471.31-237.57z" class="st1"/><path d="M7430.19 901.2c0 420.18-106 474.07-736.22 474.07-646.96 0-741.79-81.78-741.79-672.96 0-593.06 94.83-674.85 741.79-674.85 630.23 0 736.22 53.92 736.22 474.03h-195.24c0-288.15-66.97-297.42-540.99-297.42-524.26 0-546.59 16.73-546.59 498.23 0 479.61 22.32 496.35 546.59 496.35 474.02 0 540.99-9.34 540.99-297.47h195.24zM2425.75 27.45H14.96l261.09 272.44h1888.63zM797.85 844.27h845L1904 571.86H536.73z" class="st0"/><path d="M1073.65 1287.06h293.46l-146.76-153.09zm-569.29 544.43h1431.96l-261.09-272.44H765.47z" class="st1"/><path d="M3068.26 1824.76h-185.19v-245.4l179.63.33v27.17h-146.59v77.54h138.08v27.17h-138.08v85.73h152.15v27.46z" class="st0"/><path d="M3075.02 1831.49h-198.68v-258.87l193.08.39v40.57h-146.57v64.08h138.09v40.61h-138.09v72.26h152.17v40.96zm-185.22-13.46h171.75V1804h-152.17v-99.19h138.09v-13.68h-138.09v-91.01h146.57v-13.73l-166.15-.31v231.95zm437.27 6.69h-83.44v-245.07h83.11c78.97 1.96 119.54 42.32 121.72 121.06 1.75 84.42-38.72 125.75-121.39 124.01zm-.98-217.91h-49.73v190.76h49.08c59.55.21 89.21-31.85 88.99-96.2-1.74-61.29-31.19-92.82-88.34-94.56z" class="st0"/><path d="M3331.96 1831.49c-1.62 0-3.28-.04-4.94-.04h-90.14v-258.52h89.87c82.97 2.1 126.11 44.98 128.43 127.6.92 44.37-9.75 77.98-31.65 99.88-20.62 20.63-51.44 31.08-91.57 31.08zm-81.61-13.51h76.85c1.62.04 3.19.09 4.76.09 36.46 0 64.04-9.14 82.05-27.15 19.23-19.23 28.59-49.53 27.71-90.09-2.05-75.14-39.74-112.56-115.14-114.44h-76.24v231.59zm75.71-13.68h-56.44v-204.23h56.7c61.07 1.88 92.98 35.89 94.86 101.11.09 35.28-8.57 61.81-25.83 79.08-15.96 15.95-39.26 24.04-69.29 24.04zm-42.97-13.46h42.93c26.36 0 46.51-6.73 59.84-20.06 14.6-14.64 21.99-37.99 21.86-69.37-1.62-57.44-28.37-86.2-81.74-87.86h-42.88v177.29zm451.34-211.48l100.12 245.4h-35.99l-27.16-70.02h-110.91l-26.83 70.02h-35.67l99.14-245.4h37.3zm-18.32 28.8h-.65l-46.14 120.08h93.58l-46.79-120.08z" class="st0"/><path d="M3844.54 1831.49h-50.58l-27.15-70.03H3665.1l-26.8 70.03h-50.27l104.56-258.87h46.34l105.61 258.87zm-41.39-13.46h21.38l-94.6-231.94h-28.24l-93.72 231.94h21.07l26.8-70.03H3776l27.15 70.03zm-30.43-83.06H3659.5l51.32-133.54h9.22l2.32 4.28 50.36 129.26zm-93.63-13.46h73.96l-37.24-95.6-36.72 95.6zm519.3 24.37l33.37-8.18c5.45 40.35 29.33 60.31 71.66 59.87 37.08-1.09 56.72-15.81 58.89-44.17 2.4-19.85-15.92-34.57-54.96-44.18-5.24-1.53-12.56-3.27-21.93-5.24-54.76-11.12-80.71-33.37-77.88-66.74 3.28-41.45 32.29-63.15 87.04-65.11 54.97-.22 86.81 21.92 95.54 66.42l-33.04 7.2c-5.67-30.76-25.86-46.35-60.54-46.79-33.59 1.31-51.81 14.07-54.63 38.28-2.62 19.19 17.77 32.94 61.18 41.22 5.02.87 13.96 3.38 26.83 7.53 46.25 12.44 68.61 34.8 67.08 67.08-2.83 45.8-33.59 69.68-92.26 71.66-60.21 1.09-95.66-25.2-106.35-78.85z" class="st0"/><path d="M4301.39 1831.49c-61.64 0-98.44-28.33-109.59-84.28l-1.22-6.29 46.82-11.54 1.01 7.39c4.94 36.41 25.79 54.12 63.69 54.12.44 0 .87 0 1.27-.04 44.33-1.27 51.06-22.25 52.28-37.94 1.92-16.13-14.86-28.5-49.88-37.16-5.38-1.57-12.55-3.28-21.73-5.2-58.31-11.8-86.29-36.68-83.19-73.88 3.58-45.16 35.01-69.11 93.46-71.25h.87c58.09 0 92.15 24.17 101.55 71.82l1.27 6.47-46.25 10.1-1.27-6.82c-5.11-27.76-22.29-40.87-54.03-41.27-29.68 1.14-45.46 11.72-47.82 32.3-2.62 18.71 28.85 28.76 55.73 33.88 5.29.92 14.38 3.45 27.63 7.74 49.18 13.2 73.39 38.03 71.69 73.74-3.06 49.7-36.28 75.97-98.7 78.12-1.19-.01-2.41-.01-3.59-.01zm-94.99-80.65c11.19 45.2 42.31 67.23 94.86 67.23 1.14 0 2.23 0 3.37-.04 54.99-1.88 83.06-23.26 85.68-65.39 1.36-28.85-18.97-48.57-62.12-60.15-12.76-4.11-21.51-6.56-26.23-7.39-17.79-3.37-71.56-13.68-66.66-48.78 2.19-19.02 14.56-42.23 60.98-44.02 35.36.44 57.92 16.13 65.88 45.46l19.93-4.33c-9.75-36.68-38.21-54.55-86.68-54.55h-.79c-51.01 1.84-77.37 21.07-80.39 58.88-2.49 29.77 21.24 49.26 72.56 59.62 9.57 2.05 17.09 3.85 22.47 5.42 42.4 10.4 62.6 27.76 59.71 51.41-1.66 21.86-14.38 48.57-65.31 50.1h-1.4c-42.1 0-68.15-20.11-75.93-58.36l-19.93 4.89zm474.6-178.33c72.86 5.02 111.9 47.22 117.14 126.63-3.71 80.06-43.42 121.92-119.1 125.65-74.61-4.38-113.87-46.14-117.79-125.32 3.71-80.94 43.63-123.25 119.75-126.96zm-3.27 224.13c54.1-2.84 82.33-35.33 84.74-97.5-2.84-61.73-30.64-94.56-83.43-98.49-52.36 4.38-80.16 37.2-83.44 98.49 2.63 61.07 29.99 93.58 82.13 97.5z" class="st0"/><path d="M4679.38 1831.49c-78.99-4.63-120.74-48.92-124.8-131.66 3.85-85.28 46.29-130.13 126.11-134.02l.39-.04.39.04c76.37 5.25 117.89 49.96 123.36 132.89-3.84 84.44-46.07 128.86-125.45 132.79zm1.53-252.27c-72.43 3.67-109.37 43.1-112.95 120.56 3.76 75.19 40.22 114.09 111.47 118.33 71.6-3.63 108.45-42.62 112.04-119.29-5.04-75.32-41.19-114.7-110.56-119.6zm-3.28 224.16l-.44-.04c-55.78-4.2-85.5-39.17-88.26-103.91 3.45-65.53 33.57-100.8 89.52-105.48 57.57 4.2 87.73 39.47 90.7 104.87-2.54 66.53-33.18 101.5-91.1 104.52l-.42.04zm.91-196.05c-47.87 4.07-73.13 34.23-76.24 92.15 2.49 56.83 27.19 86.64 75.49 90.44 50.18-2.8 75.71-32.57 77.98-91.05-2.69-57.75-27.96-87.87-77.23-91.54zm455.31 217.41h-163.93v-245.07h33.04v217.59h130.88v27.48z" class="st0"/><path d="M5140.59 1831.49H4963.2v-258.56h46.51v217.6h130.88v40.96zm-163.92-13.46h150.46V1804h-130.88v-217.6h-19.58v231.63zm326.98-101.58v-140.7h32.72v140.7c-.21 53.66 22.47 80.28 68.06 79.84 45.81.22 68.6-26.5 68.39-80.16v-140.37h33.04v140.04c.21 72.86-34.03 109.17-102.74 108.96-66.53.21-99.68-35.88-99.47-108.31z" class="st0"/><path d="M5402.52 1831.49c-33.27 0-59.06-8.96-76.76-26.67-19.23-19.23-28.94-49-28.85-88.39v-147.4h46.21v147.4c-.13 27.06 5.86 46.77 17.75 58.58 9.7 9.66 24 14.6 42.49 14.6.48.04 1.01 0 1.53-.04 19.02 0 33.57-4.98 43.45-14.86 11.89-11.89 17.88-31.56 17.75-58.53v-147.14h46.51v146.74c.09 39.17-9.66 68.85-29.03 88.21-18.23 18.23-45.11 27.5-79.82 27.5-.57-.04-1.01-.09-1.23 0zm-92.14-248.99v133.94c-.13 35.76 8.26 62.29 24.87 78.9 15.08 15.08 37.72 22.69 67.27 22.69.48.09.74.04 1.18 0 31.08 0 54.73-7.91 70.38-23.52 16.74-16.74 25.18-43.23 25.05-78.73V1582.5h-19.58v133.63c.09 30.64-7.21 53.59-21.73 68.11-12.46 12.46-30.25 18.8-52.81 18.8-.66 0-1.18-.04-1.75 0-22.08 0-39.56-6.21-51.89-18.49-14.51-14.47-21.81-37.37-21.73-68.15v-133.9h-19.26zm562.28 24.68h-84.08v217.58h-32.72v-217.58h-84.75v-27.16h201.55v27.16z" class="st0"/><path d="M5795.28 1831.49h-46.16v-217.56h-84.76v-40.65h215.03v40.65h-84.1v217.56zm-32.69-13.46h19.23v-217.56h84.1v-13.73h-188.1v13.73h84.76v217.56zm277.92 6.73v-245.07h32.72v245.07h-32.72z" class="st0"/><path d="M6079.94 1831.49h-46.16v-258.52h46.16v258.52zm-32.69-13.46h19.23v-231.59h-19.23v231.59z" class="st0"/><path d="M6368.68 1572.51c72.86 5.02 111.9 47.22 117.14 126.63-3.71 80.06-43.42 121.92-119.1 125.65-74.61-4.38-113.87-46.14-117.79-125.32 3.71-80.94 43.63-123.25 119.75-126.96zm-3.27 224.13c54.09-2.84 82.33-35.33 84.74-97.5-2.83-61.73-30.64-94.56-83.43-98.49-52.36 4.38-80.16 37.2-83.44 98.49 2.63 61.07 29.99 93.58 82.13 97.5z" class="st0"/><path d="M6367.05 1831.49c-78.99-4.63-120.74-48.92-124.8-131.66 3.85-85.28 46.29-130.13 126.11-134.02l.39-.04.39.04c76.37 5.25 117.89 49.96 123.36 132.89-3.84 84.44-46.06 128.86-125.45 132.79zm1.53-252.27c-72.43 3.67-109.37 43.1-112.96 120.56 3.76 75.19 40.22 114.09 111.47 118.33 71.6-3.63 108.45-42.62 112.04-119.29-5.02-75.32-41.17-114.7-110.55-119.6zm-3.23 224.16l-.44-.04c-55.82-4.2-85.55-39.17-88.3-103.91 3.45-65.53 33.57-100.8 89.52-105.48 57.57 4.2 87.73 39.47 90.71 104.87-2.54 66.53-33.18 101.5-91.05 104.52l-.44.04zm.87-196.05c-47.87 4.07-73.13 34.23-76.24 92.15 2.49 56.83 27.19 86.64 75.54 90.44 50.18-2.8 75.67-32.57 77.94-91.05-2.71-57.75-27.97-87.87-77.24-91.54z" class="st0"/><path d="M6660.53 1579.67h40.91l127.93 207.11h.98v-207.44h31.74v245.4h-39.92l-129.57-209.4h-.67v209.4h-31.41v-245.07z" class="st0"/><path d="M6868.84 1831.49h-50.4l-119.77-193.69v193.69h-44.85v-258.56h51.41l118.42 191.81v-192.12h45.2v258.87zm-42.89-13.46h29.42v-231.94h-18.27v207.42h-10.49l-2.97-3.19-125.94-203.92h-30.42v231.64h17.92V1608.6h10.49l2.67 3.19 127.59 206.24z" class="st0"/><g><path d="M7036.15 1745.88l33.37-8.18c5.45 40.35 29.33 60.31 71.66 59.87 37.08-1.09 56.71-15.81 58.9-44.17 2.39-19.85-15.93-34.57-54.97-44.18-5.24-1.53-12.56-3.27-21.93-5.24-54.76-11.12-80.71-33.37-77.88-66.74 3.27-41.45 32.29-63.15 87.04-65.11 54.97-.22 86.81 21.92 95.54 66.42l-33.04 7.2c-5.67-30.76-25.85-46.35-60.54-46.79-33.59 1.31-51.81 14.07-54.64 38.28-2.61 19.19 17.78 32.94 61.19 41.22 5.02.87 13.96 3.38 26.83 7.53 46.24 12.44 68.6 34.8 67.08 67.08-2.83 45.8-33.59 69.68-92.27 71.66-60.2 1.09-95.65-25.2-106.34-78.85z" class="st0"/><path d="M7139.11 1831.49c-61.59 0-98.4-28.33-109.55-84.28l-1.22-6.29 46.82-11.54 1.01 7.39c4.94 36.41 25.75 54.12 63.65 54.12.44 0 .87 0 1.27-.04 44.37-1.27 51.1-22.25 52.32-37.94 1.92-16.13-14.91-28.54-49.92-37.16-5.38-1.57-12.5-3.28-21.68-5.2-58.36-11.8-86.33-36.68-83.19-73.88 3.58-45.16 35.01-69.11 93.46-71.25h.87c58.09 0 92.15 24.17 101.55 71.82l1.27 6.47-46.25 10.1-1.27-6.82c-5.11-27.76-22.29-40.87-54.03-41.27-29.68 1.14-45.46 11.72-47.87 32.3-2.58 18.71 28.89 28.76 55.78 33.88 5.33.92 14.38 3.45 27.58 7.74 49.22 13.2 73.44 38.03 71.73 73.74-3.06 49.7-36.28 75.97-98.75 78.12-1.17-.01-2.4-.01-3.58-.01zm-94.94-80.65c11.41 46.16 43.84 68.45 98.18 67.19 55.04-1.88 83.1-23.26 85.72-65.39 1.35-28.85-18.97-48.52-62.16-60.15-15.78-5.07-22.91-6.82-26.18-7.39-17.79-3.37-71.51-13.68-66.71-48.78 2.23-19.02 14.64-42.23 61.02-44.02 35.36.44 57.92 16.13 65.88 45.46l19.93-4.33c-9.75-36.68-38.21-54.55-86.68-54.55h-.79c-51.01 1.84-77.37 21.07-80.39 58.88-2.54 29.72 21.2 49.22 72.56 59.62 9.57 2.05 17.05 3.85 22.42 5.42 42.4 10.4 62.6 27.76 59.8 51.41-1.71 21.86-14.43 48.57-65.4 50.1h-1.4c-42.1 0-68.1-20.11-75.89-58.36l-19.91 4.89z" class="st0"/></g></svg>