<svg xmlns="http://www.w3.org/2000/svg" role="img" viewBox="-3.35 -3.35 161.46 83.96"><title>SAIL logo</title><path d="M0 71.4l1.4-13 3.4.2q0 5.131 5.7 8.39a20.687 20.687 0 0 0 .85.46 30.515 30.515 0 0 0 10.346 3.085 38.173 38.173 0 0 0 4.554.265q8.35 0 12.55-2.55a11.307 11.307 0 0 0 2.077-1.587Q43 64.573 43 61.8a12.414 12.414 0 0 0-2.666-7.614q-1.344-1.784-3.365-3.432A27.063 27.063 0 0 0 36 50q-2.9-2.1-6.1-3.7-7.3-3.8-9.15-4.85-1.85-1.05-4.15-2.15a40.773 40.773 0 0 1-3.189-1.697 35.331 35.331 0 0 1-1.061-.653Q10.4 35.7 8.2 33.9a16.764 16.764 0 0 1-2.637-2.593q-1.514-1.892-2.058-3.969A9.383 9.383 0 0 1 3.2 24.95a23.656 23.656 0 0 1 .378-4.332A17.58 17.58 0 0 1 4.95 16.3a18.899 18.899 0 0 1 1.771-3.025A13.993 13.993 0 0 1 9.35 10.5a22.377 22.377 0 0 1 3.887-2.455A27.58 27.58 0 0 1 15.6 7q6.1-2.2 13.65-2.2a30.052 30.052 0 0 1 14.331 3.682 35.09 35.09 0 0 1 .219.118l-1.2 11.6h-3.4a7.782 7.782 0 0 0-4.658-7.437q-3.462-1.733-9.497-1.936A48.979 48.979 0 0 0 23.4 10.8q-6.731 0-10.359 1.956a10.076 10.076 0 0 0-.591.344 8.692 8.692 0 0 0-2.078 1.782A6.845 6.845 0 0 0 8.8 19.4a5.906 5.906 0 0 0 1.446 3.556q3.233 4.176 13.691 9.256A142.791 142.791 0 0 0 29.6 34.8q11.686 5.033 16.169 11.011A15.708 15.708 0 0 1 47.1 47.9a16.605 16.605 0 0 1 1.898 7.632A19.315 19.315 0 0 1 49 55.8q0 10.103-7.88 15.771a23.378 23.378 0 0 1-.47.329 32.411 32.411 0 0 1-13.364 5.184 43.111 43.111 0 0 1-6.786.516 37.747 37.747 0 0 1-11.345-1.648A32.343 32.343 0 0 1 0 71.4zm99.6 2v2.8H85.2v-8a82.02 82.02 0 0 1-2.678 2.769q-3.25 3.194-5.622 4.631a12.327 12.327 0 0 1-3.186 1.327q-2.487.673-5.764.673a19.43 19.43 0 0 1-3.439-.285q-3.245-.585-5.361-2.365a8.644 8.644 0 0 1-2.999-5.452A12.702 12.702 0 0 1 56 67.5a11.855 11.855 0 0 1 1.444-5.576q1.004-1.908 2.706-3.774 4.15-4.55 9.7-6.9a127.167 127.167 0 0 1 3.973-1.608q1.97-.757 3.734-1.346a65.119 65.119 0 0 1 2.043-.646 75.783 75.783 0 0 1 1.704-.487q2.33-.634 3.479-.741a4.549 4.549 0 0 1 .417-.022v-2.2a16.55 16.55 0 0 0-.334-3.489Q83.585 34.8 77.4 34.8q-5.4 0-10.05 2.3a20.332 20.332 0 0 0-3.591 2.239A14.839 14.839 0 0 0 60.4 43l-2-1.8a22.522 22.522 0 0 1 16.004-12.286A34.293 34.293 0 0 1 81.6 28.2a12.905 12.905 0 0 1 3.173.371 9.602 9.602 0 0 1 3.777 1.879q2.75 2.25 3.7 5.25a20.054 20.054 0 0 1 .793 3.809A25.749 25.749 0 0 1 93.2 42.4v27q0 1.17.162 1.854a3.302 3.302 0 0 0 .038.146 1.571 1.571 0 0 0 .27.518q.324.426.98.832 1.05.65 3.15.65h1.8zm55.4 0v2.8h-20v-2.8h1.4q1.304 0 2.187-.334a2.981 2.981 0 0 0 1.013-.616q.962-.914.999-3.078a10.233 10.233 0 0 0 .001-.172v-59a4.359 4.359 0 0 0-.121-1.06 2.734 2.734 0 0 0-1.179-1.69 3.876 3.876 0 0 0-.939-.43q-1.311-.42-3.561-.42V3.8a11.006 11.006 0 0 0 1.255-.082q1.289-.15 3.111-.573a59.179 59.179 0 0 0 1.784-.445 43.977 43.977 0 0 0 2.156-.627q1.936-.62 3.19-1.272A9.625 9.625 0 0 0 147 .4l1.8-.4v69q0 1.206.085 1.901a4.6 4.6 0 0 0 .065.399q.141.656 1.029 1.313a5.795 5.795 0 0 0 .121.087q.935.655 2.833.697a11.973 11.973 0 0 0 .267.003h1.8zm-27.4 0v2.8h-20.2v-2.8h1.6q2.7 0 3.45-.9t.75-2.9v-30a4.552 4.552 0 0 0-.11-1.036q-.171-.732-.609-1.242a2.689 2.689 0 0 0-.531-.472 3.56 3.56 0 0 0-.894-.42q-.947-.311-2.436-.397A21.211 21.211 0 0 0 107.4 36v-2.8a8.247 8.247 0 0 0 1.247-.108q1.345-.209 3.257-.817a46.083 46.083 0 0 0 1.546-.525 58.085 58.085 0 0 0 2.314-.881q2.133-.868 3.519-1.679a14.647 14.647 0 0 0 .317-.19l1.8-.4V69q0 1.206.085 1.901a4.6 4.6 0 0 0 .065.399q.141.656 1.029 1.313a5.795 5.795 0 0 0 .121.087q.935.655 2.833.697a11.973 11.973 0 0 0 .267.003h1.8zM85.2 62.6V50.4q-7.8 1.5-14.5 6a23.045 23.045 0 0 0-3.048 2.41Q64 62.287 64 66.2a4.077 4.077 0 0 0 1.053 2.728 6.411 6.411 0 0 0 .997.922 7.535 7.535 0 0 0 3.249 1.391 10.338 10.338 0 0 0 1.851.159 8.548 8.548 0 0 0 2.341-.355q2.079-.593 4.572-2.178a29.285 29.285 0 0 0 .337-.217q4.2-2.75 6.8-6.05zm32.938-55.806a5.413 5.413 0 0 0-1.488-.194 5.808 5.808 0 0 0-2.372.501A7.081 7.081 0 0 0 112.5 8.25a6.835 6.835 0 0 0-.51.489 4.847 4.847 0 0 0-1.39 3.411q0 2.25 1.25 3.75a3.982 3.982 0 0 0 2.012 1.306 5.413 5.413 0 0 0 1.488.194q2.25 0 4.15-1.55a6.251 6.251 0 0 0 .346-.304 4.762 4.762 0 0 0 1.554-3.596 7.462 7.462 0 0 0-.135-1.451A5.28 5.28 0 0 0 120.15 8.1a3.982 3.982 0 0 0-2.012-1.306z" vector-effect="non-scaling-stroke" fill="red" fill-rule="evenodd" stroke="red" stroke-linecap="round" stroke-width=".25mm"/></svg>