<svg xmlns="http://www.w3.org/2000/svg" role="img" viewBox="-7.99 -7.99 415.74 262.74"><title>SEGGER Microcontroller GmbH (member) logo</title><path fill="#FFF" d="M15.852 4.168h368.337c6.395 0 11.644 5.588 11.644 12.446V183.34c0 6.859-5.249 12.447-11.644 12.447H15.852c-6.435 0-11.685-5.588-11.685-12.447V16.614c0-6.858 5.25-12.446 11.685-12.446z"/><path d="M384.189 199.956H15.852C7.112 199.956 0 192.502 0 183.34V16.614C0 7.453 7.112 0 15.852 0h368.337C392.908 0 400 7.453 400 16.614V183.34c0 9.162-7.092 16.616-15.811 16.616zM15.852 8.334c-4.145 0-7.518 3.715-7.518 8.28V183.34c0 4.566 3.373 8.281 7.518 8.281h368.337c4.123 0 7.477-3.715 7.477-8.281V16.614c0-4.565-3.354-8.28-7.477-8.28H15.852z"/><path fill="#1C63B7" d="M20.848 66.657l25.021 33.321-25.021 33.321zm350.006 39.967H104.211c-1.888 0-3.565.908-4.635 2.305l-.022-.018-41.661 54.15.029.021c-.756.977-1.213 2.199-1.213 3.535 0 3.215 2.623 5.842 5.799 5.842 1.889 0 3.565-.908 4.636-2.303l.022.016 39.9-51.862h263.788c3.219 0 5.842-2.625 5.842-5.843-.001-3.218-2.624-5.843-5.842-5.843zm0-24.978H107.066l-39.9-51.863-.022.017c-1.07-1.396-2.748-2.303-4.636-2.303-3.176 0-5.799 2.624-5.799 5.843 0 1.335.457 2.558 1.213 3.535l-.029.021 41.661 54.149.022-.018c1.069 1.396 2.747 2.304 4.635 2.304h266.643c3.22 0 5.844-2.624 5.844-5.844-.003-3.216-2.626-5.841-5.844-5.841z"/><path fill="#1C63B7" d="M81.181 103.673c.844-1.007 1.354-2.298 1.354-3.695s-.51-2.688-1.354-3.695L31.347 29.824l-.001.001c-1.068-1.411-2.756-2.329-4.656-2.329-3.217 0-5.842 2.624-5.842 5.843 0 1.455.541 2.776 1.427 3.792L69.43 99.978l-47.157 62.851c-.886 1.016-1.425 2.336-1.425 3.791 0 3.215 2.625 5.842 5.842 5.842 1.899 0 3.588-.92 4.656-2.33l.001.002 49.834-66.461z"/><path d="M141.681 142.188c0 1.102-.382 1.949-1.144 2.584-.763.635-1.778.975-3.049.975-1.608 0-3.217-.848-4.742-2.584-.423-.424-.719-.719-.931-.975-.805-.805-1.821-1.396-3.049-1.818-1.228-.382-2.71-.594-4.402-.594-2.456 0-4.36.424-5.716 1.227-1.355.849-2.032 1.992-2.032 3.474 0 2.073 2.625 3.599 7.875 4.657 1.27.254 2.243.467 2.921.594 3.26.676 5.672 1.271 7.197 1.691 1.524.424 2.837.89 3.938 1.397 1.904.933 3.303 2.117 4.233 3.558.89 1.481 1.354 3.26 1.354 5.377 0 3.852-1.608 6.899-4.827 9.145-3.174 2.286-7.577 3.389-13.124 3.389-3.005 0-5.545-.255-7.705-.807-2.158-.549-4.275-1.438-6.309-2.667-1.354-.806-2.455-1.819-3.303-3.005-.804-1.186-1.184-2.287-1.184-3.43 0-1.145.38-2.076 1.143-2.838.804-.72 1.82-1.101 3.09-1.101 1.651 0 3.219.933 4.615 2.752.55.72.975 1.228 1.313 1.608.931.932 2.032 1.652 3.387 2.117 1.313.467 2.922.678 4.784.678 2.921 0 5.123-.424 6.648-1.271 1.481-.846 2.242-2.117 2.242-3.768 0-2.329-3.853-4.234-11.558-5.717-.296-.043-.508-.084-.677-.127-5.928-1.144-9.951-2.582-12.024-4.275-2.117-1.736-3.134-4.191-3.134-7.451 0-3.684 1.525-6.563 4.573-8.595 3.049-2.075 7.324-3.091 12.785-3.091 2.541 0 4.784.254 6.859.72 2.074.507 3.938 1.228 5.589 2.243 1.312.762 2.37 1.736 3.176 2.837.806 1.103 1.188 2.118 1.188 3.091zm39.754 23.88c1.693 0 3.006.294 3.854.888.847.592 1.27 1.481 1.27 2.668 0 1.186-.423 2.074-1.313 2.666-.847.594-2.117.934-3.811.934h-24.217c-2.159 0-3.641-.424-4.488-1.313-.846-.848-1.228-2.455-1.228-4.785v-26.672c0-2.412.382-4.021 1.228-4.869.848-.847 2.329-1.271 4.488-1.271h23.032c1.65 0 2.92.296 3.81.849.848.594 1.271 1.438 1.271 2.582 0 1.101-.423 1.905-1.271 2.498-.89.549-2.159.848-3.81.848h-19.435v8.255h17.445c1.692 0 2.963.296 3.809.847.805.551 1.229 1.396 1.229 2.541 0 1.059-.424 1.861-1.271 2.455-.889.551-2.116.846-3.767.846h-17.445v10.036h20.62v-.003zm43.567-7.239h-7.029c-1.186 0-2.158-.341-2.878-.975-.764-.637-1.146-1.439-1.146-2.499 0-.976.382-1.776 1.102-2.329.721-.592 1.694-.889 2.922-.889h10.119c2.031 0 3.473.297 4.275.848.805.551 1.228 1.48 1.228 2.836v14.861c0 1.186-.253 2.074-.803 2.667-.552.551-1.356.847-2.498.847-.933 0-1.651-.254-2.245-.678-.593-.467-1.016-1.1-1.227-1.991l-.721-2.919c-1.735 1.946-3.685 3.387-5.845 4.318-2.114.889-4.655 1.354-7.575 1.354-6.437 0-11.646-1.861-15.583-5.632-3.979-3.769-5.969-8.763-5.969-14.901 0-6.225 1.989-11.221 5.927-14.904 3.979-3.682 9.272-5.545 15.876-5.545 2.16 0 4.149.17 6.012.551 1.906.338 3.641.847 5.25 1.523 2.287 1.017 4.021 2.16 5.293 3.43 1.228 1.27 1.861 2.582 1.861 3.896 0 1.1-.423 2.031-1.228 2.793-.761.721-1.735 1.1-2.92 1.1-1.019 0-1.863-.168-2.626-.549-.721-.338-1.61-1.059-2.667-2.16-1.271-1.354-2.54-2.327-3.812-2.879-1.354-.551-2.92-.846-4.742-.846-3.852 0-6.857 1.227-9.103 3.6-2.201 2.412-3.303 5.715-3.303 9.949 0 4.19 1.144 7.494 3.43 9.906 2.287 2.412 5.462 3.598 9.397 3.598 3.008 0 5.464-.76 7.496-2.242 1.996-1.484 3.223-3.557 3.732-6.139zm49.535 0h-7.029c-1.186 0-2.158-.341-2.92-.975-.721-.637-1.102-1.439-1.102-2.499 0-.976.381-1.776 1.059-2.329.719-.592 1.734-.889 2.963-.889h10.161c2.031 0 3.431.297 4.276.848.804.551 1.185 1.48 1.185 2.836v14.861c0 1.186-.253 2.074-.763 2.667-.551.551-1.396.847-2.538.847-.892 0-1.652-.254-2.244-.678-.55-.467-.976-1.1-1.187-1.991l-.721-2.919c-1.734 1.946-3.682 3.387-5.842 4.318-2.159.889-4.743 1.354-7.621 1.354-6.436 0-11.645-1.861-15.624-5.632-3.937-3.769-5.926-8.763-5.926-14.901 0-6.225 1.989-11.221 5.926-14.904 3.938-3.682 9.231-5.545 15.878-5.545 2.118 0 4.148.17 6.053.551 1.865.338 3.643.847 5.252 1.523 2.244 1.017 4.021 2.16 5.25 3.43 1.271 1.27 1.861 2.582 1.861 3.896 0 1.1-.381 2.031-1.186 2.793-.803.721-1.777 1.1-2.963 1.1-.975 0-1.82-.168-2.582-.549-.721-.338-1.609-1.059-2.709-2.16-1.229-1.354-2.498-2.327-3.854-2.879-1.312-.551-2.92-.846-4.741-.846-3.811 0-6.857 1.227-9.061 3.6-2.201 2.412-3.301 5.715-3.301 9.949 0 4.19 1.142 7.494 3.429 9.906 2.285 2.412 5.418 3.598 9.399 3.598 2.963 0 5.461-.76 7.492-2.242 2.035-1.484 3.261-3.557 3.73-6.139zm47.629 7.239c1.693 0 3.005.294 3.854.888.847.592 1.271 1.481 1.271 2.668 0 1.186-.424 2.074-1.313 2.666-.848.594-2.117.934-3.811.934h-24.218c-2.16 0-3.685-.424-4.488-1.313-.845-.848-1.271-2.455-1.271-4.785v-26.672c0-2.412.426-4.021 1.271-4.869.806-.847 2.328-1.271 4.488-1.271h22.989c1.692 0 2.963.296 3.853.849.849.594 1.271 1.438 1.271 2.582 0 1.101-.422 1.905-1.271 2.498-.89.549-2.159.848-3.853.848h-19.434v8.255h17.486c1.691 0 2.963.296 3.769.847.845.551 1.271 1.396 1.271 2.541 0 1.059-.426 1.861-1.271 2.455-.89.551-2.116.846-3.769.846h-17.486v10.036h20.662v-.003zm21.127-25.066v10.33h11.093c2.412 0 4.191-.422 5.29-1.27 1.143-.807 1.738-2.115 1.738-3.895 0-1.694-.55-2.965-1.693-3.854-1.102-.891-2.754-1.314-4.912-1.314h-11.516v.003zm0 28.411c0 1.438-.381 2.496-1.186 3.217-.764.721-1.948 1.061-3.558 1.061-1.567 0-2.752-.382-3.515-1.061-.805-.721-1.186-1.777-1.186-3.217v-28.961c0-2.41.422-4.021 1.228-4.867.849-.848 2.329-1.271 4.489-1.271h16.512c5.037 0 8.721.891 11.135 2.709 2.413 1.82 3.641 4.615 3.641 8.341 0 2.371-.593 4.362-1.777 5.929-1.184 1.608-2.879 2.666-5.081 3.26 1.737.467 3.048 1.271 3.938 2.328.889 1.06 1.438 2.455 1.606 4.236.086.717.171 1.648.213 2.793.043 1.187.083 1.946.211 2.37.085.466.254 1.144.468 1.989.211.891.338 1.525.338 1.863 0 1.102-.424 1.988-1.271 2.625-.846.677-1.989.973-3.43.973-1.989 0-3.387-.465-4.233-1.439-.803-.932-1.397-3.388-1.735-7.322-.211-3.135-.848-5.038-1.778-5.801-.931-.719-2.623-1.102-5.036-1.102h-9.992v11.347h-.001z"/><g><path d="M12.813 239.445v-20.878H5.271v-4.539h20.257v4.539h-7.489v20.878h-5.226zm15.407 0v-25.417h4.987v8.729c.678-.85 1.487-1.489 2.423-1.92.937-.435 1.987-.647 3.149-.647 1.104 0 2.103.188 2.995.567.891.382 1.614.92 2.166 1.623.378.474.647 1.013.803 1.621.153.611.232 1.588.232 2.935v12.51h-4.986v-9.819c0-2.321-.213-3.779-.64-4.371-.425-.594-1.189-.891-2.294-.891-1.184 0-2.122.354-2.813 1.061-.689.709-1.035 1.673-1.035 2.893v11.129l-4.987-.003zm32.731-5.693h5.004c-.505 1.979-1.525 3.527-3.063 4.647-1.535 1.121-3.405 1.683-5.615 1.683-2.716 0-4.865-.91-6.455-2.732-1.587-1.825-2.38-4.295-2.38-7.413 0-3.069.782-5.491 2.346-7.265 1.564-1.771 3.704-2.656 6.419-2.656 2.876 0 5.097.872 6.661 2.613 1.563 1.744 2.346 4.226 2.346 7.445 0 .356-.003.625-.01.805-.005.177-.02.347-.041.506H53.637c.068 1.475.429 2.582 1.078 3.332.649.746 1.584 1.121 2.803 1.121.862 0 1.571-.17 2.123-.51.552-.337.988-.865 1.31-1.576zm-7.314-5.662h7.384c-.046-1.266-.382-2.229-1.009-2.889-.627-.66-1.527-.994-2.699-.994-1.094 0-1.954.334-2.582 1.002-.627.668-.991 1.627-1.094 2.881zm26.365 11.355v-25.417h18.461v4.418H85.16v5.417h12.163v4.351H85.16v6.539h13.925v4.692H80.002zm22.637 0v-18.754h4.763v2.065c.702-.859 1.484-1.512 2.347-1.946.863-.438 1.818-.655 2.863-.655 1.186 0 2.198.223 3.038.663.84.442 1.57 1.142 2.191 2.097.656-.918 1.432-1.607 2.329-2.067.897-.462 1.898-.69 3.002-.69 1.888 0 3.383.549 4.486 1.655 1.104 1.104 1.656 2.608 1.656 4.519v13.115h-4.951v-12.078c0-.91-.245-1.613-.734-2.113-.488-.502-1.169-.752-2.044-.752-.978 0-1.755.32-2.329.959-.575.639-.862 1.51-.862 2.615v11.369h-4.9V227.4c0-.919-.24-1.633-.717-2.14-.478-.506-1.147-.76-2.011-.76-.978 0-1.751.322-2.319.967-.569.646-.854 1.523-.854 2.641v11.337h-4.954zm31.093-25.417h4.883v8.989c.622-.976 1.4-1.718 2.338-2.218.938-.498 2.004-.748 3.2-.748 2.267 0 4.12.935 5.557 2.802 1.438 1.869 2.156 4.301 2.156 7.293 0 2.966-.718 5.365-2.156 7.194-1.437 1.828-3.313 2.742-5.625 2.742-1.207 0-2.258-.254-3.148-.762-.893-.504-1.699-1.31-2.425-2.414v2.537h-4.779l-.001-25.415zm13.149 15.909c0-1.724-.363-3.079-1.088-4.063-.724-.982-1.72-1.475-2.984-1.475-1.335 0-2.366.479-3.099 1.441-.73.961-1.095 2.326-1.095 4.097 0 1.909.349 3.36 1.044 4.349.695.989 1.712 1.484 3.046 1.484 1.356 0 2.392-.499 3.105-1.492.713-.996 1.071-2.444 1.071-4.341zm19.963 3.815h5.004c-.507 1.979-1.525 3.527-3.063 4.647-1.535 1.121-3.407 1.683-5.616 1.683-2.715 0-4.865-.91-6.453-2.732-1.588-1.825-2.38-4.295-2.38-7.413 0-3.069.78-5.491 2.346-7.265 1.564-1.771 3.704-2.656 6.419-2.656 2.875 0 5.096.872 6.659 2.613 1.565 1.744 2.348 4.226 2.348 7.445 0 .356-.003.625-.009.805-.006.177-.02.347-.042.506H159.53c.068 1.475.429 2.582 1.077 3.332.649.746 1.585 1.121 2.805 1.121.861 0 1.57-.17 2.122-.51.552-.337.987-.865 1.31-1.576zm-7.315-5.662h7.385c-.048-1.266-.383-2.229-1.011-2.889-.626-.66-1.525-.994-2.699-.994-1.093 0-1.953.334-2.579 1.002-.628.668-.992 1.627-1.096 2.881zm33.129-14.062v25.417h-4.764v-2.538c-.724 1.094-1.537 1.896-2.44 2.408-.903.51-1.966.768-3.185.768-2.312 0-4.184-.914-5.616-2.742-1.432-1.828-2.147-4.229-2.147-7.193 0-2.992.716-5.424 2.147-7.293 1.433-1.867 3.281-2.803 5.547-2.803 1.208 0 2.287.254 3.236.76.948.507 1.734 1.24 2.354 2.207v-8.989l4.868-.002zm-13.133 15.909c0 1.897.357 3.347 1.07 4.341.713.993 1.742 1.492 3.089 1.492 1.335 0 2.353-.495 3.055-1.484.701-.988 1.052-2.438 1.052-4.349 0-1.771-.368-3.136-1.104-4.097-.736-.963-1.772-1.441-3.106-1.441-1.253 0-2.242.491-2.968 1.475-.724.983-1.088 2.339-1.088 4.063zm34.873-15.909v25.417h-4.763v-2.538c-.726 1.094-1.54 1.896-2.442 2.408-.903.51-1.965.768-3.184.768-2.313 0-4.184-.914-5.617-2.742-1.432-1.828-2.147-4.229-2.147-7.193 0-2.992.716-5.424 2.147-7.293 1.434-1.867 3.283-2.803 5.548-2.803 1.209 0 2.287.254 3.234.76.95.507 1.734 1.24 2.355 2.207v-8.989l4.869-.002zm-13.13 15.909c0 1.897.356 3.347 1.07 4.341.712.993 1.742 1.492 3.088 1.492 1.335 0 2.354-.495 3.055-1.484.701-.988 1.053-2.438 1.053-4.349 0-1.771-.368-3.136-1.104-4.097-.738-.963-1.771-1.441-3.104-1.441-1.253 0-2.243.491-2.97 1.475-.725.983-1.088 2.339-1.088 4.063zm29.195 3.815h5.004c-.507 1.979-1.527 3.527-3.064 4.647-1.534 1.121-3.404 1.683-5.614 1.683-2.716 0-4.865-.91-6.454-2.732-1.588-1.825-2.379-4.295-2.379-7.413 0-3.069.779-5.491 2.346-7.265 1.563-1.771 3.703-2.656 6.418-2.656 2.877 0 5.098.872 6.659 2.613 1.565 1.744 2.349 4.226 2.349 7.445 0 .356-.004.625-.009.805-.005.177-.021.347-.043.506H223.15c.068 1.475.429 2.582 1.078 3.332.648.746 1.584 1.121 2.805 1.121.861 0 1.57-.17 2.121-.51.549-.337.985-.865 1.309-1.576zm-7.317-5.662h7.386c-.048-1.266-.384-2.229-1.011-2.889s-1.526-.994-2.699-.994c-1.094 0-1.953.334-2.58 1.002-.628.668-.992 1.627-1.096 2.881zm33.129-14.062v25.417h-4.762v-2.538c-.728 1.094-1.539 1.896-2.443 2.408-.902.51-1.965.768-3.185.768-2.311 0-4.183-.914-5.614-2.742-1.433-1.828-2.148-4.229-2.148-7.193 0-2.992.717-5.424 2.148-7.293 1.433-1.867 3.28-2.803 5.547-2.803 1.207 0 2.285.254 3.236.76.947.507 1.731 1.24 2.354 2.207v-8.989l4.867-.002zm-13.13 15.909c0 1.897.357 3.347 1.069 4.341.713.993 1.743 1.492 3.088 1.492 1.335 0 2.354-.495 3.056-1.484.701-.988 1.054-2.438 1.054-4.349 0-1.771-.37-3.136-1.104-4.097-.736-.963-1.771-1.441-3.105-1.441-1.256 0-2.242.491-2.969 1.475-.727.983-1.089 2.339-1.089 4.063zm28.108 9.508v-25.417h18.46v4.418H276.41v5.417h12.16v4.351h-12.16v6.539h13.925v4.692h-19.082zm20.308 0l6.315-9.577-6.04-9.177h5.729l3.315 5.64 3.293-5.64h5.54l-5.9 9.106 6.263 9.646h-5.866l-3.468-5.938-3.415 5.938-5.766.002zm20.669 7.522v-26.275h4.781v2.534c.727-1.103 1.533-1.908 2.422-2.415.896-.506 1.945-.76 3.149-.76 2.313 0 4.19.912 5.625 2.734 1.438 1.823 2.161 4.219 2.161 7.187 0 3.003-.723 5.437-2.161 7.31-1.435 1.868-3.288 2.803-5.554 2.803-1.195 0-2.264-.254-3.202-.762-.938-.504-1.716-1.238-2.336-2.207v9.852h-4.885v-.001zm13.151-16.788c0-1.886-.355-3.327-1.068-4.321s-1.75-1.492-3.108-1.492c-1.329 0-2.347.494-3.045 1.483-.694.987-1.041 2.433-1.041 4.33 0 1.771.364 3.141 1.096 4.106.729.967 1.763 1.448 3.097 1.448 1.267 0 2.263-.493 2.985-1.483.723-.987 1.084-2.345 1.084-4.071zm19.965 3.573h5.004c-.506 1.979-1.524 3.527-3.063 4.647-1.532 1.121-3.404 1.683-5.615 1.683-2.716 0-4.868-.91-6.455-2.732-1.584-1.825-2.378-4.295-2.378-7.413 0-3.069.78-5.491 2.346-7.265 1.565-1.771 3.705-2.656 6.42-2.656 2.873 0 5.093.872 6.658 2.613 1.564 1.744 2.346 4.226 2.346 7.445 0 .356 0 .625-.01.805-.005.177-.017.347-.039.506h-12.527c.068 1.475.429 2.582 1.078 3.332.648.746 1.584 1.121 2.806 1.121.86 0 1.571-.17 2.121-.51.546-.337.983-.865 1.308-1.576zm-7.317-5.662h7.385c-.045-1.266-.385-2.229-1.012-2.889s-1.523-.994-2.696-.994c-1.099 0-1.953.334-2.58 1.002-.628.668-.993 1.627-1.097 2.881zm15.894 11.355v-18.754h4.658v3.205c.655-1.286 1.421-2.233 2.292-2.836.875-.604 1.918-.905 3.127-.905.193 0 .348.004.455.008.107.008.197.016.266.026l.02 5.089h-1.674c-1.366 0-2.396.355-3.086 1.07-.689.713-1.037 1.771-1.037 3.174v9.923h-5.021zm21.895.138c-.461.012-1.012.031-1.646.062-.641.03-1.047.042-1.218.042-1.922 0-3.233-.359-3.942-1.077-.707-.721-1.061-2.137-1.061-4.255v-10.146h-2.486v-3.517h2.486v-5.127h4.966v5.127h2.901v3.517h-2.901v10.389c0 .496.114.82.329.977.217.153.669.231 1.345.231h1.228v3.777h-.001zm1.845-6.247h5.004c.049.955.392 1.666 1.036 2.133.646.464 1.611.695 2.9.695.975 0 1.73-.162 2.27-.492.531-.325.798-.789.798-1.387 0-.852-.997-1.49-2.999-1.916-.816-.17-1.467-.322-1.947-.445-2.44-.625-4.133-1.358-5.084-2.211-.949-.853-1.422-2.002-1.422-3.452 0-1.919.689-3.441 2.08-4.563 1.385-1.121 3.26-1.683 5.629-1.683 2.508 0 4.479.562 5.909 1.675 1.435 1.116 2.196 2.686 2.287 4.711h-4.881c-.036-.795-.341-1.41-.908-1.848-.565-.438-1.36-.657-2.372-.657-.956 0-1.664.146-2.129.435-.469.287-.699.717-.699 1.293 0 .748 1.245 1.408 3.745 1.983.572.127 1.028.229 1.36.312 2.496.588 4.201 1.295 5.117 2.123s1.371 1.996 1.371 3.502c0 2.129-.75 3.75-2.252 4.865-1.502 1.116-3.687 1.674-6.55 1.674-2.586 0-4.61-.582-6.073-1.742-1.461-1.162-2.19-2.762-2.19-4.797v-.208z"/></g></svg>