<svg xmlns="http://www.w3.org/2000/svg" role="img" viewBox="63.52 72.77 271.96 62.21"><title>SemiFive (member) logo</title><g fill-rule="evenodd"><path fill="#fbfbfb" d="M0 104.548v104.548h400V0H0v104.548m122.479-.68l-.053 25.876h-8.573l-.105-21.642-.105-21.641-17.929-.053-17.93-.054v34.937l9.984-.06c10.852-.065 10.616-.04 11.671-1.256 1.554-1.793 1.482-4.877-.149-6.377-1.104-1.014-1.837-1.105-8.987-1.105h-6.665v-20.7h11.684c9.68 0 11.725.049 11.923.289.166.199.222 1.473.183 4.129l-.057 3.841-7.476.055-7.475.055v3.729l3.189.091c3.777.107 4.725.299 6.964 1.408 2.582 1.279 5.573 4.531 6.068 6.597.081.336.226.713.323.837.419.537.69 4.243.449 6.153-.574 4.547-4.16 8.701-8.636 10.004-2.98.868-2.96.867-17.56.867H69.002V83.906l3.06-2.956 3.06-2.957h47.41l-.053 25.875m37.784-13.198c1.155.188 2.189.423 2.298.523.11.1.385.182.611.182.537 0 3.063 1.232 3.187 1.554.096.25-1.491 4.454-1.814 4.802-.1.108-.642-.04-1.282-.351-4.323-2.095-8.947-2.143-10.675-.111-1.385 1.629-.47 3.127 2.456 4.025.69.212 1.49.46 1.778.552.287.092.852.227 1.254.301 1.648.304 5.107 1.489 6.207 2.126 2.722 1.578 4.255 5.916 3.024 8.554-.156.334-.438.937-.626 1.339-1.803 3.85-10.726 6.202-15.965 4.209-.264-.101-.998-.346-1.631-.545-2.61-.821-4.332-1.934-3.978-2.572.109-.198.446-.924.747-1.615 1.352-3.089 1.042-2.923 3.336-1.79 4.684 2.314 10.572 2.274 11.689-.078.87-1.834-.431-3.048-4.266-3.982-.863-.21-1.972-.509-2.465-.664-.492-.154-1.035-.281-1.205-.281-.17 0-.472-.085-.672-.188-.2-.103-1.023-.432-1.829-.731-3.781-1.4-6.01-5.713-4.679-9.056 1.253-3.145 2.457-4.306 5.936-5.723.23-.094.936-.269 1.568-.389.633-.12 1.338-.256 1.568-.301 1.015-.2 3.494-.104 5.428.21m31.164 2.9v2.509l-7.005.105-7.004.105v5.645l6.22.056 6.221.055v5.006l-6.221.055-6.22.056v5.854l7.091.055c8.387.065 7.65-.213 7.65 2.894 0 2.934 1.379 2.617-11.082 2.546l-10.141-.058-.054-13.487c-.03-7.418-.009-13.605.046-13.75.079-.208 2.252-.252 10.3-.209l10.199.054v2.509m10.623-1.514c.386.605.965 1.569 1.285 2.143.32.574 1.958 3.349 3.642 6.167 1.683 2.817 3.098 5.217 3.145 5.332.206.507 1.085 1.777 1.229 1.777.087 0 .343-.353.569-.784.225-.431.999-1.747 1.72-2.925.721-1.178 1.31-2.186 1.31-2.24 0-.055.518-.953 1.15-1.996.633-1.044 1.15-1.942 1.15-1.998 0-.055.471-.859 1.046-1.786.575-.928 1.045-1.739 1.045-1.804 0-.065.398-.764.885-1.552l.884-1.433h5.29l.151 13.016c.083 7.159.118 13.345.078 13.748l-.074.732h-6.064l-.104-7.84-.105-7.839-1.339 2.298c-.737 1.264-1.879 3.193-2.538 4.285-.659 1.093-1.458 2.457-1.776 3.032-.318.575-.892 1.539-1.276 2.143l-.698 1.098h-1.464c-1.426 0-1.475-.018-1.887-.68-.819-1.315-4.938-8.21-5.089-8.52-.085-.173-.269-.502-.41-.732-.141-.23-.537-.889-.88-1.464l-.625-1.045-.111 7.632c-.061 4.197-.132 7.658-.157 7.69-.025.032-1.386.032-3.025 0l-2.98-.058-.054-13.748-.053-13.748h5.426l.704 1.099m36.319 12.706v13.806l-3.189-.058-3.188-.057-.054-13.748-.054-13.748h6.485v13.805m31.954-12.884c.037.449.012 1.036-.056 1.304l-.122.488-7.681.055-7.681.054v10.246l6.848.055 6.848.055v2.707l-6.848.055-6.848.055-.104 5.751-.105 5.75h-2.927l-.054-13.751-.054-13.75 9.359.055 9.358.054.067.817m7.774 12.879v13.8h-1.237c-.681 0-1.387-.057-1.568-.127-.346-.132-.534-26.992-.192-27.334.077-.077.783-.139 1.568-.139h1.429v13.8m7.735-11.239c1.307 3.066 1.455 3.406 2.285 5.242.354.784.644 1.46.644 1.501 0 .042.29.717.645 1.502 1.261 2.791 1.404 3.119 2.131 4.876.651 1.575 1.178 2.785 2.139 4.914.155.345.477 1.08.714 1.634.373.87.853 1.173.853.539 0-.114.329-.91.732-1.77.402-.859.732-1.617.732-1.683 0-.067.133-.417.296-.78.164-.362.587-1.3.941-2.085.355-.784.645-1.46.645-1.501 0-.042.29-.717.644-1.501.652-1.443.759-1.684 1.758-3.936 1.015-2.289 1.104-2.495 1.994-4.6.487-1.15 1.094-2.561 1.35-3.136.256-.575.523-1.21.594-1.411.143-.409 3.278-.565 3.278-.163 0 .185-.38 1.084-1.493 3.534-.228.503-.604 1.397-.835 1.987-.231.589-.508 1.161-.614 1.27-.107.109-.194.314-.194.456 0 .235-.396 1.165-1.794 4.212-.279.607-.506 1.142-.506 1.188 0 .076-.284.718-1.704 3.851-.228.503-.586 1.35-.797 1.882-.21.532-.614 1.485-.898 2.117-.284.633-.722 1.621-.974 2.196-.253.575-.81 1.845-1.239 2.822l-.779 1.778-1.504.061-1.504.061-.406-.897c-1.436-3.172-1.696-3.758-1.696-3.825 0-.073-.715-1.68-1.794-4.031-.278-.607-.506-1.178-.506-1.268 0-.09-.176-.534-.39-.987-.215-.453-.538-1.153-.717-1.555-.179-.403-.567-1.276-.863-1.94-.296-.664-.784-1.793-1.085-2.509-.749-1.78-1.336-3.118-1.544-3.518-.096-.184-.502-1.124-.902-2.091-.4-.966-.962-2.274-1.248-2.906-.999-2.208-1.046-2.091.856-2.091h1.663l1.092 2.561m44.016-1.202v1.254l-7.736.105-7.737.104v9.201l6.845.055 6.845.055.122.487c.067.269.092.855.055 1.304l-.066.817-6.953.055-6.952.055v9.822h16.1v2.931l-9.566-.054-9.566-.054-.054-13.487c-.03-7.418-.009-13.605.046-13.75.08-.208 2.064-.252 9.359-.209l9.258.054v1.255"/><path fill="#15254c" d="M72.084 81.293l-3.086 3.077.002 22.645.002 22.645 14.584-.08c15.597-.085 15.146-.056 18.016-1.163 2.922-1.126 5.963-4.088 6.904-6.723.991-2.776 1.088-6.628.218-8.678-.097-.23-.242-.653-.322-.941-1.291-4.642-6.966-7.945-13.65-7.945h-2.541v-4.182h14.846v-7.737l-10.716-.033c-5.894-.018-10.999-.052-11.344-.075-1.214-.084-1.15-.649-1.15 10.167v10.014h6.77c7.259 0 7.727.059 8.881 1.118 1.785 1.639 1.782 5.045-.006 6.833-1.377 1.378-1.124 1.349-12.09 1.352l-9.932.002V86.252h36.592l.053 21.694.053 21.693h8.153V78.202l-23.576.006-23.575.007-3.086 3.078m80.644 9.848c-2.84.756-5.167 2.409-6.051 4.299-2.349 5.019-.263 9.177 5.44 10.842 1.883.55 2.705.775 3.607.985 2.15.503 2.683.673 3.755 1.198 5.032 2.464-.306 6.688-6.421 5.081-.402-.106-1.101-.286-1.552-.4-.452-.114-1.534-.566-2.405-1.005-.871-.438-1.656-.829-1.744-.868-.088-.039-.303.271-.477.689-.175.419-.595 1.366-.934 2.105-.338.739-.565 1.474-.505 1.632.188.488 2.621 1.586 5.317 2.399 1.683.507 5.332.746 7.459.487 5.982-.726 9.059-3.553 9.059-8.322.001-4.435-2.282-6.227-10.35-8.125-.805-.189-1.627-.43-1.826-.535-.2-.106-.468-.192-.596-.192-.915 0-2.183-.965-2.61-1.987-1.57-3.758 5.961-5.243 11.565-2.28l.887.469.297-.662c.163-.364.551-1.321.862-2.126.311-.805.604-1.529.651-1.609.118-.2-1.501-1.12-2.643-1.503-2.998-1.004-8.135-1.277-10.785-.572m18.312 13.616v13.591h20.701v-4.809l-7.057-.003c-3.882-.002-7.177-.08-7.324-.173-.202-.128-.253-.934-.209-3.29l.058-3.121 6.22-.055 6.221-.055v-4.594l-6.012-.003c-3.306-.002-6.132-.08-6.279-.173-.201-.128-.253-.893-.209-3.081l.059-2.912 7.057-.055 7.057-.055v-4.803H171.04v13.591m25.092 0v13.591h5.64l.055-7.771c.036-5.125.129-7.796.271-7.844.176-.058 1.637 2.135 1.956 2.935.045.111 1.197 2.028 2.561 4.259 1.365 2.231 2.481 4.106 2.481 4.168 0 .737.935 1.326 2.106 1.326h1.242l.904-1.412c.498-.776 1.219-1.976 1.602-2.666.384-.69 1.058-1.844 1.499-2.565.441-.72.801-1.355.801-1.411 0-.055.612-1.099 1.36-2.32.747-1.221 1.359-2.292 1.359-2.379 0-.088.13-.268.289-.4.507-.421.547.189.547 8.256v7.824h5.437V91.166h-4.979l-.519.888c-.286.489-.78 1.359-1.099 1.934-.318.576-1.016 1.752-1.549 2.615-.534.863-1.031 1.726-1.104 1.916-.073.191-.609 1.115-1.192 2.054-.582.94-1.059 1.744-1.059 1.788 0 .045-.414.767-.921 1.604-.507.838-1.205 2.041-1.552 2.674-.788 1.437-1.079 1.5-1.695.373-.269-.493-1.305-2.26-2.302-3.928-3.332-5.571-5.162-8.664-6.093-10.295l-.923-1.618-2.562-.003-2.561-.002v13.591m35.964 0v13.591h6.064V91.166h-6.064v13.591m19.655 0v13.591h2.503l.055-5.802.056-5.803 6.952-.055 6.953-.055v-1.043c0-.996-.026-1.042-.575-1.048-.317-.003-3.282-.001-6.59.006-3.87.007-6.162-.068-6.429-.211-.638-.341-.648-10.523-.011-10.864.257-.137 3.114-.216 7.841-.216h7.436v-2.091h-18.191v13.591m23.628 0v13.591h2.509V91.166h-2.509v13.591m6.337-13.434c.049.086.235.486.414.888.178.403.614 1.374.969 2.158.354.784.644 1.461.644 1.504 0 .042.359.859.798 1.815.438.955.923 2.066 1.077 2.469.153.402.547 1.326.875 2.053.327.727.595 1.355.595 1.396 0 .041.319.764.708 1.606.389.842.956 2.122 1.26 2.845.304.723.82 1.899 1.148 2.614.327.715.927 2.1 1.332 3.077.405.978.981 2.312 1.281 2.966.299.654.544 1.289.544 1.412 0 .135.552.221 1.412.22l1.411-.002.929-2.246c.511-1.235 1.288-3.027 1.725-3.983.438-.955.796-1.772.796-1.815 0-.042.29-.719.644-1.503 1.119-2.476 1.203-2.667 1.97-4.458.413-.965.897-2.089 1.076-2.498.179-.409.404-.931.5-1.161.096-.23.463-1.06.815-1.845.352-.784.641-1.46.641-1.501 0-.041.29-.717.644-1.501 1.05-2.324 1.188-2.634 1.638-3.684l.429-1.002-1.378.062-1.377.061-.784 1.882c-.684 1.641-.991 2.356-1.889 4.391-.101.23-.472 1.06-.825 1.844-.352.785-.64 1.46-.64 1.501 0 .041-.336.801-.745 1.688-.41.887-1.077 2.414-1.482 3.392-.405.979-.812 1.93-.903 2.114-.092.184-.267.569-.389.857-.121.287-.449 1.04-.728 1.673-.279.632-.725 1.667-.991 2.3-.959 2.28-1.019 2.269-2.054-.347-.354-.895-.838-2.008-1.81-4.161-.159-.351-.627-1.428-1.039-2.392-.413-.965-.897-2.089-1.077-2.498-.179-.409-.404-.932-.5-1.162-.096-.23-.462-1.06-.815-1.844-.352-.784-.64-1.46-.64-1.501 0-.072-.715-1.679-1.794-4.031-.279-.607-.506-1.196-.506-1.31 0-.113-.09-.369-.199-.569-.11-.2-.356-.716-.547-1.147l-.347-.784h-1.453c-.798 0-1.412.07-1.363.157m29.627 13.434v13.591h18.819v-2.295l-7.998-.055-7.998-.054v-10.246l6.848-.055 6.848-.055v-2.08l-6.848-.055-6.848-.055-.056-4.899c-.043-3.78.004-4.938.209-5.068.146-.092 3.629-.169 7.741-.171l7.475-.003v-2.091h-18.192v13.591"/><path fill="#a4abb8" d="M122.422 103.816c0 14.26.025 20.063.056 12.895.03-7.167.03-18.835 0-25.927-.031-7.093-.056-1.228-.056 13.032M70.25 82.75l-1.353 1.411 1.411-1.353c.777-.744 1.412-1.379 1.412-1.411 0-.154-.213.042-1.47 1.353m7.376 21.118l-.052 17.617 9.776-.051 9.775-.05-9.67-.056-9.669-.057-.055-17.509-.054-17.51-.051 17.616m36.072 4.069c.03 11.869.124 21.65.209 21.736.085.085.13-9.626.1-21.581-.029-11.955-.123-21.735-.209-21.736-.085 0-.13 9.712-.1 21.581m42.346-17.454c.55.043 1.397.043 1.882-.001.485-.044.035-.079-1-.078-1.035 0-1.432.036-.882.079m-2.097.2c.201.052.53.052.732 0 .201-.053.036-.096-.366-.096-.403 0-.568.043-.366.096m5.227 0c.201.052.531.052.732 0 .201-.053.036-.096-.366-.096-.403 0-.567.043-.366.096m72.815 13.969l.003 13.801 3.189.008 3.189.009-3.136-.067-3.135-.066-.056-13.742-.056-13.743.002 13.8m38.058-12.474v1.183l-7.736.111c-4.256.061-7.762.132-7.793.157-.031.025-.031 2.422 0 5.326l.056 5.279 6.953.105c3.823.057 6.952.035 6.952-.05 0-.084-3.082-.178-6.848-.209l-6.848-.055V93.779l7.621-.055c5.778-.041 7.661-.117 7.786-.313.21-.331.221-2.189.014-2.318-.086-.054-.157.435-.157 1.085m5.01-.96c-.055.144-.076 6.33-.046 13.748l.054 13.487.105-13.748c.057-7.562.078-13.748.046-13.748-.033 0-.104.117-.159.261m54.653 1.003l.071 1.245h-7.638c-4.201 0-7.682.07-7.736.157-.053.086 3.399.109 7.672.052l7.769-.105.065-1.127c.035-.62-.012-1.204-.105-1.298-.093-.093-.137.391-.098 1.076m-158.777 12.536l.003 13.696 10.454.003 10.455.003-10.401-.058-10.401-.057-.056-13.641-.056-13.642.002 13.696m20.469-11.187c.001 1.38.035 1.918.076 1.194.041-.723.04-1.852-.001-2.509-.042-.656-.075-.065-.075 1.315m119.835 11.187l.002 13.696 9.514.003 9.514.003-9.46-.058-9.461-.057-.056-13.641-.056-13.642.003 13.696M89.441 91.95c3.248.032 8.565.032 11.814 0 3.248-.033.59-.059-5.907-.059-6.498 0-9.156.026-5.907.059m59.054.879c-.575.455-1.114.936-1.197 1.07-.083.135.403-.203 1.08-.749 1.509-1.219 1.429-1.148 1.284-1.148-.067 0-.592.372-1.167.827m-41.229 3.293c-.058 2.208-.032 3.942.057 3.853.089-.089.136-1.896.104-4.015l-.057-3.853-.104 4.015m51.751-.147c.23.099.607.177.837.173.336-.004.315-.039-.105-.173-.715-.229-1.265-.229-.732 0m-13.36 1.167c-.179.467-.152 3.697.034 3.988.084.133.153-.785.153-2.039s-.013-2.28-.03-2.28c-.016 0-.087.149-.157.331m-53.373 4.897c0 .977.036 1.377.08.888.044-.488.044-1.288 0-1.777-.044-.489-.08-.089-.08.889m97.446 2.509c0 1.437.034 2.025.075 1.307.04-.719.04-1.895 0-2.614-.041-.719-.075-.131-.075 1.307m30.448-1.77c-.175.215-.199.317-.055.231.203-.122.27 1.513.314 7.644l.054 7.8h6.064l.004-7.266.004-7.267-.059 7.214-.059 7.214h-5.844l-.055-7.978c-.049-7.129-.088-7.937-.368-7.592m-18.142 7.781l.05 7.685.057-7.486c.045-5.88.113-7.453.317-7.331.17.103.161.035-.029-.198-.158-.195-.322-.354-.366-.354-.043 0-.056 3.458-.029 7.684m112.415-7.42c.088.088 3.212.135 6.942.105l6.783-.056-6.943-.104c-3.818-.057-6.87-.032-6.782.055m-167.143.782c.449.46.864.836.921.836.058 0-.263-.376-.712-.836-.449-.46-.864-.837-.921-.837-.058 0 .263.377.712.837m180.76.669c-.056.656-.025 1.116.068 1.023.093-.094.139-.631.101-1.193l-.068-1.022-.101 1.192m-235.125-.538c1.366.141 6.132.173 5.795.04-.197-.078-1.723-.134-3.39-.123-1.668.01-2.75.048-2.405.083m7.109.496c.23.099.56.18.732.18.198 0 .159-.067-.104-.18-.23-.099-.56-.18-.732-.18-.198 0-.159.067.104.18m64.297-.169c1.338 1.244 2.129 1.859 1.464 1.138-.403-.437-.92-.894-1.15-1.015-.23-.121-.371-.176-.314-.123m-60.638 1.69c0 .04.306.297.68.57.421.308.567.359.383.133-.278-.343-1.063-.861-1.063-.703m113.748 1.197c-.234.46-.379.836-.322.836.058 0 .297-.376.532-.836.234-.46.379-.836.322-.836-.058 0-.297.376-.532.836m37.15-.279c-.077.077-.14 2.66-.14 5.741v5.601l-1.36.077-1.359.078 1.412-.016 1.412-.015.105-5.803c.057-3.191.096-5.802.087-5.802-.01 0-.081.063-.157.139m-87.056 3.416c0 .747.038 1.053.084.679.046-.374.046-.985 0-1.359s-.084-.068-.084.68m-80.831 2.038c1.754.035 4.624.035 6.378 0 1.754-.035.319-.064-3.189-.064-3.507 0-4.942.029-3.189.064m90.591.732c0 .086 3.27.137 7.266.112 3.997-.025 6.137-.072 4.757-.104-6.32-.147-12.023-.151-12.023-.008m-22.105.52c.549.043 1.396.043 1.881-.001.486-.044.036-.079-.999-.079-1.035.001-1.432.037-.882.08m36.822 2.251c0 1.38.034 1.917.075 1.194.041-.724.04-1.853-.001-2.509-.041-.657-.075-.065-.074 1.315m17.467-.68c.216.285.589.366 1.69.366 1.1 0 1.473-.081 1.689-.366.236-.311.233-.327-.016-.105-.172.154-.865.262-1.673.262-.809 0-1.502-.108-1.674-.262-.249-.222-.251-.206-.016.105m-44.22.627l-.614.68.679-.614c.374-.338.68-.644.68-.68 0-.161-.173-.019-.745.614m-55.863.366c0 .518.041.729.091.471.049-.259.049-.683 0-.941-.05-.259-.091-.047-.091.47m208.763-.471c2.207.034 5.876.034 8.155.001 2.279-.034.474-.062-4.011-.062s-6.35.028-4.144.061m-217.553 1.098c0 .403.043.568.095.366.053-.201.053-.53 0-.731-.052-.202-.095-.037-.095.365m8.786 1.151c.002.46.045.623.095.363s.048-.636-.004-.836c-.053-.2-.094.012-.091.473m86.696.372c.09.089 1.473.136 3.074.103l2.911-.059-3.074-.104c-1.691-.057-3.001-.03-2.911.06m97.183-.007c.053.087.744.157 1.536.157.791 0 1.482-.07 1.536-.157.053-.086-.638-.156-1.536-.156s-1.589.07-1.536.156m-17.34.099c.372.046 1.03.047 1.464.002.434-.046.13-.083-.675-.084-.805-.001-1.16.036-.789.082m-121.372.417c.318.048.788.047 1.045-.002.257-.05-.003-.089-.578-.088-.575.002-.785.042-.467.09m2.192-.002c.259.05.683.05.941 0 .259-.05.047-.091-.47-.091-.518 0-.729.041-.471.091M97.02 129.639l-.941.147.837.016c.46.009 1.024-.064 1.254-.163.485-.208.189-.208-1.15 0"/><path fill="#7c8497" d="M87.052 78.149c6.535.031 17.168.031 23.628 0 6.46-.03 1.113-.055-11.882-.055-12.996 0-18.281.025-11.746.055m-16.587 4.548c-.857.863-1.51 1.569-1.453 1.569.058 0 .806-.706 1.662-1.569.857-.862 1.511-1.568 1.454-1.568-.058 0-.806.706-1.663 1.568m7.038 3.606c-.054.087 8.126.134 18.177.104l18.275-.055.055 21.644.055 21.643-.002-21.693-.001-21.694-18.231-.053c-10.027-.03-18.274.017-18.328.104m78.645 4.389c.492.044 1.244.043 1.672-.002.429-.045.026-.081-.894-.08-.92.001-1.27.038-.778.082m20.082.421c2.797.033 7.313.033 10.036 0 2.724-.033.436-.06-5.085-.06-5.52 0-7.748.027-4.951.06m21.321-.001c.724.041 1.853.04 2.509-.001.657-.041.065-.075-1.315-.075-1.38.001-1.917.035-1.194.076m26.284-.002l2.403.069.057 13.532.056 13.533-.003-13.592-.002-13.591-2.457-.01-2.457-.011 2.403.07m9.768.001c.771.041 2.089.041 2.927.001.839-.04.208-.073-1.402-.073-1.61 0-2.296.032-1.525.072m18.036.105c-.055.145-.076 6.285-.045 13.645l.056 13.383.05-13.539.051-13.539h18.191v2.085l-7.579.059-7.58.059 7.632-.004 7.632-.004v-2.3l-9.154-.054c-7.211-.043-9.175.001-9.254.209m25.097-.109l1.149.079.056 13.581.056 13.581-.002-13.643-.002-13.644-1.204-.017-1.203-.017 1.15.08m5.7.001c.374.046.985.046 1.359 0 .374-.047.068-.084-.679-.084-.748 0-1.054.037-.68.084m23.632 0c.375.047.94.046 1.254-.002.314-.048.007-.086-.683-.085-.69.002-.947.041-.571.087m14.423.004l9.044.058v2.081l-7.58.058-7.58.058 7.695.049 7.695.05-.063-1.203-.063-1.202-9.095-.003-9.096-.004 9.043.058m-82.232 13.645c0 7.533.026 10.614.058 6.848.032-3.767.032-9.93 0-13.696s-.058-.685-.058 6.848m37.009-.105c.001 7.476.027 10.503.059 6.729.032-3.775.032-9.891 0-13.592-.032-3.7-.059-.612-.059 6.863M83.734 92.263c-.055.144-.075 4.731-.044 10.194l.057 9.932.05-10.072c.039-7.823.109-10.095.312-10.176.204-.083.203-.109-.007-.122-.147-.009-.313.101-.368.244m12.498-.105l10.816.057.064 3.814.063 3.814-.007-3.868-.006-3.868-10.873-.003-10.873-.003 10.816.057M254.4 93.605c-.194.193-.177 10.477.017 10.597.086.053.157-2.341.157-5.32s-.008-5.416-.017-5.416c-.01 0-.081.062-.157.139m-98.987 2.102c.318.048.789.047 1.046-.003s-.003-.089-.578-.087c-.575.001-.786.042-.468.09m2.3 0c.318.048.789.047 1.046-.003s-.003-.089-.578-.087c-.575.001-.786.042-.468.09m19.483.54c-.058.149-.078 1.537-.045 3.084l.059 2.812.104-3.084c.102-3.037.089-3.352-.118-2.812m3.306 5.948c1.696.035 4.472.035 6.168 0 1.696-.035.309-.064-3.084-.064-3.393 0-4.78.029-3.084.064m39.66.183c-.265.326-.257.351.068.229.344-.129.369.342.416 7.854l.049 7.992.058-7.908c.057-7.935-.011-8.879-.591-8.167m-18.289.55c-.056.145-.075 3.697-.043 7.894l.057 7.631.05-7.772c.038-5.983.11-7.795.311-7.877.204-.082.203-.109-.007-.122-.147-.009-.313.102-.368.246m112.325.418c.054.086 3.15.156 6.881.156h6.783v2.086l-6.848.059-6.848.06 6.9-.005 6.901-.004v-2.3l-6.933-.105c-3.813-.057-6.889-.034-6.836.053m-56.331 1.149c1.697.035 4.472.035 6.169 0 1.696-.035.308-.064-3.085-.064-3.392 0-4.78.029-3.084.064m9.932-.006c.413.076.471.213.471 1.115v1.029l-6.953.055-6.952.055-.005 5.75-.005 5.751.06-5.695.061-5.695 6.949-.056 6.949-.055v-1.15c0-1.082-.031-1.151-.522-1.17-.455-.017-.462-.009-.053.066m-102.404 1c.39.402.756.732.814.732.057 0-.215-.33-.605-.732-.39-.403-.757-.732-.814-.732-.058 0 .215.329.605.732m11.801 1.63c-.057.149-.075 1.631-.039 3.293l.064 3.022.046-3.185.046-3.186 6.221-.058 6.22-.059-6.227-.049c-4.942-.039-6.248.007-6.331.222m34.471.221c-.091.156-.308.336-.48.402-.254.095-.245.122.045.135.197.009.459-.172.582-.402.248-.464.118-.583-.147-.135m-56.082.001c.048.042.369.138.714.216.458.102.543.083.314-.072-.283-.191-1.238-.325-1.028-.144m-49.158 1.495c.832 1.003.902 1.067.675.623-.118-.231-.436-.607-.705-.835-.473-.399-.472-.392.03.212m60.916 1.567c0 .747.038 1.053.085.679.046-.374.046-.985 0-1.359-.047-.374-.085-.068-.085.68m-70.514 1.957c.048.041.369.138.714.215.458.102.543.083.314-.072-.283-.191-1.238-.324-1.028-.143m70.053.575c-.129.369-.198.708-.153.753.044.045.186-.221.315-.59.129-.37.198-.709.153-.754-.045-.044-.187.221-.315.591m-67.98.042c0 .036.306.342.68.68l.679.614-.614-.68c-.572-.633-.745-.775-.745-.614m85.723.508l7.102.059.07 2.403.069 2.402-.01-2.457-.011-2.458-7.161-.004-7.162-.004 7.103.059m129.573 2.406c.054.087 3.663.157 8.02.157h7.923l.082 1.202.081 1.203-.019-1.255-.018-1.254-8.083-.105c-4.445-.058-8.039-.034-7.986.052m-160.772 2.814c.26.05.637.048.837-.004.2-.052-.013-.093-.473-.091-.46.002-.624.045-.364.095m4.6 0c.261.05.637.048.837-.004.2-.052-.013-.093-.473-.091-.46.002-.624.045-.364.095m-48.956.715c-.074.367-.095.706-.048.754.047.047.151-.21.23-.571.08-.362.101-.701.048-.754-.053-.054-.157.203-.23.571m-31.525 2.119c.088.087 4.388.134 9.556.104l9.397-.054-9.556-.105c-5.256-.057-9.484-.032-9.397.055"/><path fill="#848c9f" d="M73.905 79.3l-.826.888.889-.826c.826-.769.984-.951.826-.951-.034 0-.434.4-.889.889m3.56 24.621c0 9.602.026 13.531.057 8.729.031-4.801.031-12.658 0-17.459-.031-4.802-.057-.873-.057 8.73m118.554-12.703c-.055.144-.076 6.283-.046 13.643l.054 13.383.105-13.644c.057-7.504.078-13.643.045-13.643-.032 0-.103.117-.158.261m118.085 7.201c-.023 2.552.028 4.684.115 4.738.086.053.132-1.329.102-3.072-.098-5.775-.175-6.364-.217-1.666M180.92 96.131c1.926.035 5.078.035 7.005 0 1.926-.034.35-.062-3.503-.062-3.852 0-5.428.028-3.502.062m-88.572 3.974c-.089.142 5.593.139 12.2-.008 1.437-.032-.698-.079-4.745-.104-4.047-.025-7.402.025-7.455.112m221.804 10.611c0 2.76.03 3.86.066 2.445.036-1.415.036-3.674 0-5.018-.037-1.345-.066-.187-.066 2.573m-238.183 19.08c3.775.032 9.891.032 13.591 0 3.701-.032.613-.058-6.863-.058-7.475 0-10.503.026-6.728.058m40.247-.001c1.185.038 3.067.038 4.182 0 1.115-.037.146-.068-2.154-.068s-3.213.031-2.028.068"/></g></svg>