<svg xmlns="http://www.w3.org/2000/svg" role="img" viewBox="15.78 114.78 1571.44 619.44"><title>Shanghai Wanxiang Blockchain Inc. (member) logo</title><defs><style>.cls-1,.cls-2{fill:#1664ab;stroke-width:0}.cls-2{fill:#959696}</style></defs><path d="M103.54288 512.61091c-1.45865 56.92519 2.57762 113.54645 10.17326 169.94205.99046 7.35378 1.45562 15.20341-5.72877 19.72978-7.06651 4.45214-14.34511 1.34105-20.42847-2.86186-17.51889-12.10393-26.52437-29.38721-23.0302-50.2347 8.35505-49.84882 6.12063-99.97844 6.13043-150.06048.00324-16.67513-1.787-33.33311-.90083-50.06035 1.47767-27.89272 11.16992-52.15802 31.65944-71.46712 22.60894-21.30655 45.77689-42.02164 68.30737-63.40938 20.41459-19.37919 40.27098-39.32821 53.94666-64.41645 9.07107-16.64101 14.36273-34.30195 15.43615-53.28315.23306-4.12172-1.014-4.97751-4.81169-4.98915-53.27756-.16357-106.01172 4.46342-157.85218 17.35874-4.18353 1.04066-8.47074 1.92801-12.75704 2.24218-12.08236.88559-19.71756-8.38178-16.87228-20.14712 4.52078-18.6936 23.32237-34.8564 42.82864-37.47112 13.46806-1.80527 26.68849.23867 39.95556 1.57533 38.80109 3.90925 77.71267 4.79628 116.65803 4.25376 38.73175-.53957 77.46209-1.36992 116.18292-2.4412 33.00236-.91309 66.02772-1.84801 98.35651-9.8641 4.40909-1.09327 9.9927-2.68362 13.32221 1.64549 3.59065 4.66864.12289 9.48381-2.38218 13.5723-11.20989 18.29565-25.11124 32.8997-48.49939 33.84029-11.6105.46696-23.19923.0356-34.79401-.55543-32.5926-1.6612-65.20271-2.79389-97.83809-3.20625-3.34345-.04223-4.61823.64833-5.09852 4.34078-2.12649 16.34803-4.11098 32.78143-11.3966 47.92196-.72172 1.49987-1.32451 2.74521 1.11209 3.51537 19.7265 6.23489 34.39527 20.10723 49.72104 33.01614 34.01722 28.65283 66.64464 58.81569 97.73419 90.60494 22.8312 23.34491 34.33617 51.21269 34.94148 84.32619.7192 39.34396-1.58449 78.62263-.96736 117.93754.46591 29.67651.01845 59.39512 3.60629 88.94399.72215 5.94757.13998 11.82919-1.02027 17.60372-3.61004 17.96602-19.35436 27.24673-38.66908 22.94912-2.48439-.5528-4.96539-1.28714-7.31096-2.26574-6.05183-2.52513-8.21324-6.05971-5.67147-12.10487 14.54336-34.58775 14.0977-71.4509 16.47967-107.80876 2.44468-37.31562.01348-74.67435-.60719-112.0139-.62362-37.51649-16.38344-68.12126-42.12198-94.45682-25.46998-26.06071-53.5729-49.2041-80.74828-73.37084-7.49855-6.66833-16.17694-11.83618-25.87498-14.96064-12.71585-4.09675-24.4571-2.25962-35.04682 5.97925-15.24536 11.86094-29.01103 25.36539-42.70755 38.92126-19.15831 18.96156-38.22086 38.02147-57.18344 57.17874-24.28213 24.5314-36.43757 54.08712-36.24282 88.66975.06638 11.79323.01052 23.5871.01052 35.38077z" class="cls-1"/><path d="M267.7964 475.35655c17.92242-.35971 34.01178-1.18848 50.09776-2.26683 4.59542-.30818 5.39181-1.95108 4.9002-6.17748-.99735-8.57483-2.80499-17.0858-2.44987-25.80009.32947-8.08582 2.14822-15.58352 10.54042-18.77677 9.19609-3.49927 18.54723-3.68132 26.98391 2.37998 3.80025 2.73032 5.08173 6.96473 4.57805 11.53651-3.99219 36.23583-3.06231 72.6396-3.88609 108.98621-.27123 11.96872-.64762 23.94293-2.77451 35.81443-5.06926 28.29467-18.5535 42.45303-46.67098 48.36989-15.08892 3.17516-30.41122 3.4819-45.75746 3.8561-13.41238.32699-26.74991.07438-39.85339-2.9335-36.49426-8.37677-55.13173-32.04446-55.72003-70.00217-.25948-16.74173 1.0078-33.40079 1.90762-50.08486 1.17224-21.73549-.88426-43.19516-5.66722-64.39327-1.17794-5.22057-.91507-10.15725 1.39219-14.9273 4.23607-8.75775 13.85836-12.63821 25.23734-10.29758 9.77903 2.01154 14.60736 7.8012 15.08398 18.22729.39766 8.69793-1.23189 17.23175-2.21103 25.81833-1.05097 9.217-.86966 9.61159 8.31505 9.84857 19.24812.49651 38.48553 2.10596 55.95407.82256zm-5.49924 30.12754l-.00018-.50285c-19.27417 0-38.54853.04411-57.82223-.04973-2.75501-.01341-3.72093.77211-3.82263 3.63973-.59973 16.91369-.57821 33.83877.58354 50.70072 1.31287 19.05598 8.56635 35.34177 27.70804 42.24964 25.78528 9.30536 51.79286 8.22939 76.9014-3.13119 11.21399-5.07391 18.30087-13.7007 19.6013-26.63527 1.99404-19.83371.80331-39.65741.72943-59.4953-.02112-5.66742-2.19305-6.89684-7.22645-6.84855-18.88257.18162-37.76792.07279-56.65222.07279z" class="cls-1"/><path d="M660.08757 505.32049c23.22388.00014 46.44797.04591 69.67156-.03834 4.68148-.01701 8.17576 1.44534 9.3858 6.23399 1.33669 5.2894-2.55863 9.42838-8.89762 9.44107-23.8142.04764-47.62868.01939-71.44302.02047-12.35824.0005-13.51696 1.08512-14.22297 13.09846-.16117 2.74149-.59018 5.46951-.69678 8.21151-.29797 7.66347 2.28582 10.38897 9.90116 10.40172 19.48461.03272 38.96935.00223 58.45403.01492 8.99283.00591 11.66189 2.61184 11.66996 11.49528.02285 24.99324.02379 49.98655-.0005 74.97979-.00836 8.63205-2.67756 11.34357-11.17529 11.39632-12.00433.07445-24.00917.12541-36.01364.10962-3.87161-.00512-6.82429-1.63093-8.26117-5.45135-1.23182-3.27577-.62895-6.1568 1.77824-8.69202 1.75727-1.85075 3.93302-2.40492 6.41561-2.38171 6.2974.05888 12.59631.06681 18.89364.00324 6.12311-.06184 9.46343-2.85198 9.52809-8.72034.17782-16.13524.16333-32.27494-.01117-48.4104-.0581-5.37358-3.08314-8.17353-8.6909-8.14729-15.94146.07445-31.88508.15229-47.82466-.03582-6.86285-.08101-8.44259 4.26201-9.54575 9.67646-3.82613 18.77814-11.03531 36.01118-23.49655 50.82793-6.00873 7.14448-12.97313 13.17385-20.8959 18.04199-5.00244 3.07368-9.71138 1.81875-12.67329-2.9296-2.68671-4.3072-1.91627-8.51775 2.79166-11.68382 23.97594-16.12363 34.46613-39.93957 38.97426-67.32691 1.92009-11.66429 2.19348-23.45471 3.19076-35.18804.47954-5.6422-3.22917-9.1135-9.74129-9.24251-8.65637-.17168-17.31866-.0276-25.97834-.05355-6.67415-.02004-10.12583-2.7975-9.99883-7.97151.12325-5.02173 3.38112-7.65288 9.83161-7.66405 23.02703-.03978 46.05421-.01557 69.08131-.0155zm127.86524 81.28484c-.00014-18.10109-.02134-36.20232.0098-54.30334.01333-7.7119 2.55171-10.26428 10.20259-10.29325 10.62519-.04014 21.25297-.13896 31.8752.04389 5.22884.09002 8.61363-1.95771 10.36816-6.88545 1.64677-4.62497 3.45463-9.19227 5.13953-13.80398 2.57247-7.0412 7.38506-9.18572 14.38334-6.35802 5.34013 2.15778 6.71516 6.82794 3.88155 13.18286-3.87932 8.69973-.65757 13.76146 8.92508 13.79389 17.31527.05867 34.63083 0 51.94631.02422 7.82315.01103 10.60378 2.7758 10.60897 10.6467.02407 36.00549.02436 72.01105.00014 108.01654-.00533 8.09944-2.93646 11.03466-10.98652 11.08411-8.06713.04959-16.13528.06746-24.20205-.00829-6.22712-.05845-10.19012-3.2558-10.34913-8.13648-.16989-5.21574 3.83629-8.83609 10.19459-9.0699 3.14405-.11568 6.29704-.08022 9.44375-.01283 5.3335.11409 8.34802-2.66488 8.37498-7.76221.14264-26.95397.13522-53.9096-.01478-80.86358-.0266-4.78771-2.89754-7.65648-7.9131-7.66138-32.07284-.03157-64.1459-.07474-96.21846.02551-6.031.01881-8.2043 2.80535-8.20985 9.67285-.02516 30.88993.01254 61.77992-.02919 92.66985-.01002 7.41417-4.11473 11.6795-10.09707 10.61347-5.37372-.95763-7.38347-4.47924-7.36235-9.72172.07381-18.29749.02862-36.59562.02847-54.89347zM586.86313 212.75812c8.77314.00018 9.79701.87168 11.9861 9.53087 6.68727 26.45202 13.41209 52.89446 20.14938 79.33373.51911 2.03688.6415 4.88706 3.19458 5.09845 3.13201.25928 3.21224-2.87364 3.87125-5.02796 8.21338-26.84994 16.5622-53.66052 24.46614-80.60148 1.81486-6.18599 4.85684-9.08489 11.26553-8.35976 1.55415.17582 3.15493.14025 4.71744.00577 5.77375-.49698 8.98318 1.81951 10.62454 7.65922 7.54212 26.8344 15.431 53.57126 23.17811 80.34819.63407 2.19158.4626 5.24627 3.65451 5.18457 3.19984-.06191 2.93099-3.27541 3.49817-5.37063 7.18158-26.52788 14.28034-53.07817 21.39143-79.62512 1.94323-7.2545 10.51073-11.22703 17.14343-7.80131 3.24027 1.6736 1.69304 4.37635.98401 6.72761-4.98983 16.54558-9.99977 33.08518-15.05389 49.61123-5.68473 18.58772-11.64682 37.09479-17.0124 55.77362-1.81003 6.3009-5.50014 7.61381-11.30503 7.62297-5.77447.00912-8.93395-1.87504-10.64097-7.70387-8.27638-28.26137-16.91451-56.41683-25.42486-84.60969-.28356-.93932-.53107-1.8919-.86551-2.81288-.5834-1.60671-.73873-3.80496-3.1336-3.61718-2.08443.16346-2.68376 2.0158-3.20993 3.75145-3.93057 12.96596-7.87807 25.92676-11.80201 38.8947-4.8905 16.16176-9.98946 32.26568-14.53485 48.52413-1.86906 6.68566-6.13947 7.55969-11.99864 7.56163-5.66635.00187-9.09742-1.63414-10.81-7.52192-10.1414-34.86775-20.56693-69.65284-30.86719-104.4745-2.2936-7.75382-1.97091-8.10196 6.53425-8.10182zm479.10062 439.00639c-22.24044 0-44.48103.01225-66.72147-.00613-8.73977-.00721-10.81317-2.06733-10.81461-10.67654-.00706-41.32862-.00721-82.65732.00014-123.98594.00173-8.89267 1.72209-10.58998 10.7532-10.59171 43.10318-.00822 86.20651.01052 129.30969-.02919 3.6535-.00339 7.1738.03697 9.36382 3.6055 3.48094 5.67254-.45481 11.88555-7.7128 11.90408-25.97986.06631-51.96.02623-77.94001.02652-12.59638.00014-25.19305-.05333-37.789.02241-6.73888.04058-9.26925 2.57097-9.27747 9.27184-.03863 31.68532-.03258 63.37056-.0062 95.05588.00591 7.17857 2.18757 9.31228 9.66496 9.31891 38.57638.03387 77.15277.01189 115.72915.02818 2.15802.00094 4.34833-.03366 6.46729.30292 4.34127.68952 6.46094 3.41653 6.41842 7.80077-.04296 4.41516-2.46406 7.00516-6.60827 7.77749-2.28733.42624-4.70743.16951-7.0677.17038-21.25643.00786-42.51272.00461-63.76915.00461zM779.232 405.24789c-.30713 18.48037 5.13002 31.95635 19.72938 39.90054 14.28525 7.77338 29.40069 7.80682 43.32093-.70595 14.63735-8.95126 20.23292-23.70473 20.99918-40.11917.94826-20.31188 8.02785-37.05007 26.73747-46.58177 19.75569-10.0646 40.05276-10.43924 59.86114.36537 7.46485 4.07174 12.60042 10.57909 16.10457 18.30754 2.045 4.51037.88137 6.67172-3.91053 7.41302-5.51312.85283-10.24043-.43687-13.24941-5.49049-8.6021-14.44697-22.24707-16.31967-37.02497-14.4647-13.6524 1.7137-22.82543 9.53044-28.05232 22.28346-4.17967 10.19808-4.00913 21.16053-6.12701 31.71505-5.41019 26.96226-27.29723 44.67639-54.8804 45.20382-22.05794.42184-40.4613-6.30851-52.38354-25.56254-11.86126-19.15558-11.33199-39.48951-1.42499-59.07378 9.35849-18.4999 26.03406-26.47869 46.23411-27.69834 16.89469-1.02004 32.50495 2.21623 45.34085 14.17886 4.52586 4.21801 3.72572 15.55376-1.34902 19.05983-2.69017 1.85857-3.35409-.75683-4.27092-2.30816-13.648-23.09186-46.48833-22.31463-61.74361-9.58572-9.33874 7.79205-13.85371 19.09104-13.91094 33.16313zm98.67114-133.00607c-.00058-16.32374.02451-32.64752-.01759-48.97116-.01096-4.24832-.13695-8.46654 4.96864-10.14295 5.72949-1.8812 13.15845-.30335 16.13391 3.72363 8.29202 11.22238 16.45797 22.53784 24.65881 33.82731 11.55074 15.90071 23.06509 31.82773 34.66247 47.69432 1.30937 1.79133 2.4002 4.80244 5.28102 3.75541 2.87289-1.04408 1.64324-4.10136 1.65045-6.27752.08001-24.38697.01514-48.7744.07237-73.16155.01802-7.67645 2.37454-10.10889 9.13029-9.92814 5.817.15568 8.20451 2.43047 8.21244 8.3304.04656 34.41744.04498 68.835.00202 103.25244-.00764 6.0111-2.18685 7.8732-8.09178 8.45476-6.91302.68083-11.58527-1.53612-15.78498-7.5208-18.51169-26.38064-37.54826-52.39349-56.4468-78.5019-1.30058-1.79684-2.25742-4.90245-5.08829-4.08705-3.3161.95514-2.03808 4.28932-2.04551 6.64483-.07784 24.78034-.02234 49.56111-.06516 74.34163-.01196 6.90592-2.54941 9.28781-9.2805 9.06067-5.73713-.19359-7.90258-2.39194-7.92723-8.57317-.06905-17.30681-.024-34.61406-.02458-51.92116zm440.7556 313.1991c-6.68424 0-13.37194.12807-20.05186-.0449-4.47605-.11589-6.73253 1.69803-7.77551 6.15125-6.22006 26.55988-22.98962 44.5352-46.7822 56.60749-5.18891 2.63274-8.97561 1.1035-12.05104-4.53293-2.6963-4.94151.05709-7.65259 4.07227-9.90759 14.90779-8.37274 27.14839-19.34665 34.42194-35.2119 4.58086-9.99163 2.85314-12.8576-7.96723-12.8643-3.73639-.00238-7.47508.08137-11.20859-.02083-5.92497-.16216-8.67245-2.79108-8.44324-8.19364.22373-5.26612 3.28893-7.77079 8.40605-7.83025 6.09551-.07078 12.19274.01247 18.28868-.03287 6.73369-.05002 8.12869-1.25111 8.32647-7.74527.19749-6.48321.10307-12.97536.13349-19.46355.02076-4.39333-2.24336-6.48775-6.56257-6.49539-4.91631-.00872-9.83492.08296-14.74835-.03769-6.23073-.15287-8.37145-2.29436-8.33988-8.02629.03099-5.61913 2.2079-7.66059 8.55597-7.79854 4.3244-.09398 8.65284.02465 12.97854-.02948 6.65728-.08339 8.02115-1.42105 8.11701-7.91032.04945-3.34215-.0702-6.6879.02854-10.02788.17803-6.02317 2.79606-8.38117 8.95514-8.22607 5.37545.13542 7.49166 2.39209 7.57138 8.16978.04887 3.53883-.12729 7.08639.05795 10.61636.25444 4.84817 2.5742 7.54715 7.84355 7.43154 7.86229-.17247 15.73222-.12224 23.5971-.01759 6.75517.08987 8.63396 2.08016 8.65356 8.88229.03042 10.61837.063 21.23732-.01456 31.85527-.03589 4.90093 1.39241 8.39551 6.87597 9.22182 5.06955.76397 5.91027 4.53855 5.61821 8.82795-.3072 4.51318-2.96328 6.73893-7.31867 6.80797-7.07779.11222-14.1586.03027-21.23812.03027v-.18472zm-24.06575-32.52864c0 3.13782.10077 6.27968-.02335 9.4126-.1923 4.85697 2.21684 7.23471 6.88145 7.72401 11.59176 1.21608 16.025-.13845 17.38699-5.38065.14632-.56253.2207-1.15994.22186-1.74134.01413-6.86397.1048-13.72989-.03099-20.59119-.07539-3.80968-2.17215-6.68595-5.99748-6.80307-15.78685-.48317-19.30009-1.93558-18.44408 15.02655.0395.78242.00519 1.56866.00562 2.3531zm228.89881-281.39321c6.88649-.00036 13.77327.03903 20.65934-.01337 5.12101-.03892 7.62674 2.39324 7.60641 7.5368-.03734 9.44345.04858 18.88772-.03503 28.33056-.05089 5.73445-2.71547 10.33354-7.33136 13.46852-25.2918 17.17755-65.78258 18.30563-89.63008 2.73458-26.51814-17.31478-31.20293-49.59278-21.2978-75.3928 8.84457-23.03752 26.94628-33.95679 50.57884-36.63158 13.75814-1.55716 27.46352-1.05939 40.50275 4.49556 10.4238 4.44068 17.82681 11.95027 22.48623 22.25935 1.82848 4.04558 1.25877 7.27738-2.78597 9.47145-5.05513 2.74222-10.51693 2.03118-12.26684-2.3292-7.56215-18.84203-30.15794-24.06786-52.37373-18.74203-18.61044 4.46147-30.78026 19.69998-31.82453 39.7484-.31714 6.08436-.43377 12.18217.6278 18.23493 5.26733 30.03507 33.69871 37.11479 54.57976 34.96574 9.3001-.95716 17.95395-4.00136 26.11609-8.62013 3.65581-2.06863 5.26228-4.6628 5.27828-8.96543.06011-16.22695.18366-16.22641-15.95681-16.22652-5.11568-.00004-10.23265-.07222-15.3466.01939-5.05715.09052-7.8176-2.08034-7.74422-7.33118.06905-4.93837 2.7554-7.04084 7.498-7.02026 6.88635.02987 13.77299.00764 20.65948.00724zm-220.79261.78001c0-16.12929.00115-32.25862-.00086-48.38791-.00058-4.29505-.80209-8.89865 4.8203-10.71845 6.14784-1.98985 13.26786-.30584 16.51138 4.14698 13.7727 18.90798 27.5121 37.84028 41.26807 56.7605 6.00988 8.26607 12.01788 16.53369 18.05616 24.77897 1.22418 1.67154 2.13596 4.27837 4.88791 3.25898 2.66387-.98678 1.81507-3.63966 1.81853-5.68386.04181-24.78391.00202-49.56792.04397-74.35182.01182-7.00343 2.53513-9.41563 9.08877-9.3686 5.3149.03816 8.09207 2.61566 8.22398 7.85691.13349 5.3076.0568 10.62068.05737 15.93138.00303 27.73452.0284 55.46911-.02451 83.20356-.00908 4.7819 1.20832 10.2699-5.02803 12.52347-6.70399 2.42265-13.53109.2786-17.66766-5.45171-18.86733-26.13696-37.6669-52.32325-56.63528-78.38655-1.65866-2.27901-2.56613-6.88624-6.47896-5.5067-3.65465 1.28848-2.19161 5.47593-2.20184 8.45868-.08275 23.99698-.03863 47.99436-.05161 71.99159-.00389 7.16837-1.88484 9.3042-8.13777 9.381-6.4275.07892-8.53968-2.29043-8.54559-9.68813-.01355-16.91611-.00432-33.83218-.00432-50.74829zM588.23788 406.87474c.00043-15.33231.08404-30.66531-.04815-45.99647-.04231-4.90263 1.83453-8.63314 6.76201-8.57382 19.00759.2289 38.16857-2.21511 56.97996 2.07587 15.60932 3.56056 25.00961 18.11972 21.24504 32.07264-1.38505 5.13365-4.49926 9.11119-8.48894 12.46491-3.19595 2.68647-3.30702 4.8263.47896 7.29262 12.86862 8.38308 16.88532 16.7773 13.93343 29.99864-2.93156 13.13017-11.91085 20.30096-24.64288 23.20245-12.39334 2.82423-25.00659 1.93479-37.55619 2.03021-6.48689.0493-12.97508.06623-19.46154-.00757-7.06107-.08036-9.16813-2.16737-9.18845-9.15242-.04418-15.13559-.01369-30.27133-.01326-45.40706zm38.37536 41.06556c-.00014-.11625-.00022-.23258-.00036-.34883 5.49596 0 11.01225.30321 16.48363-.06386 11.00973-.7386 17.84108-5.82778 19.43134-13.95958 2.17402-11.11632-4.16641-19.37043-16.37422-21.41253-12.29603-2.05681-24.68692-.76397-37.02959-1.15107-3.82195-.11978-4.53429 2.08816-4.50467 5.28198.08022 8.63962.15879 17.28335-.02393 25.91988-.09457 4.47167 2.01884 5.87398 6.11115 5.7676 5.29897-.13766 10.60414-.03359 15.90664-.03359zm-.89327-81.75371l.00043-.3808c-5.10688 0-10.21614.09679-15.31978-.03157-3.86599-.09723-5.86738 1.30001-5.78831 5.45243.13825 7.26426.12008 14.53433.00418 21.79938-.05629 3.52867 1.42326 4.98807 4.93123 4.85751 10.97203-.40862 21.96691.66271 32.9331-.79449 10.04409-1.33471 15.47418-6.48213 15.42617-15.14911-.04973-8.98525-5.71645-14.88251-15.70382-15.67585-5.46201-.43388-10.98673-.07751-16.4832-.07751zm905.91162 164.09031c-4.91602.00007-9.8551.29694-14.74157-.08353-4.86946-.37925-7.6857 1.28779-9.28915 6.00191-1.6379 4.81581-4.00683 9.37945-5.9613 14.09256-1.23989 2.98942-1.6787 6.15608 2.41029 6.99918 3.66964.75647 7.90107 1.08923 8.6945-4.22395.43146-2.88823.26251-5.89164.12859-8.83242-.17601-3.86993 1.24638-5.73063 5.38179-5.90793 10.08129-.43215 10.81331.16101 10.85714 10.81131.0333 8.0794.34352 8.39977 8.21273 8.42694 2.3597.00814 4.72905.13824 7.07707-.02674 4.99833-.35114 7.73903 1.21413 7.74062 6.87817.00159 5.4902-2.35854 7.51551-7.53491 7.07255-1.3666-.1169-2.75151-.0173-4.12806-.01723-10.75594.00058-14.72471 5.87874-11.12743 16.47463 1.01169 2.97962 3.50012 3.50316 6.14164 3.54503 5.1115.08094 10.23352.21622 15.33521-.01867 4.87609-.22443 6.02141 2.29126 5.99171 6.54728-.02912 4.15109-.50671 7.62614-5.74175 7.6758-5.11222.04843-10.23553.22148-15.33478-.03798-4.77316-.24281-6.94171 1.5203-6.67848 6.44393.23079 4.31332.15136 8.65231.01571 12.97392-.19403 6.19117-1.44834 6.81568-9.41932 6.98707-5.13946.11049-7.17726-1.82214-6.81571-6.94058.2899-4.10871-.07669-8.25966.09212-12.38192.20254-4.94857-1.78956-7.23608-6.93479-7.07983-7.26894.22076-14.55475-.11049-21.82383.10941-5.39721.16317-7.47753-2.5193-7.53491-7.48416-.05637-4.88054 2.08796-7.06945 7.21834-6.83997 7.06481.31589 14.15803-.05773 21.2325.12224 5.42734.13795 7.84643-2.03554 7.88103-7.64747.07655-12.39035.17414-12.48736-12.22273-12.42891-3.53284.01672-7.12954-.09002-10.57762.52671-3.17591.568-6.27239 1.0212-7.50766-2.43627-1.35017-3.77912-5.0831-7.49562-1.32451-11.98833 4.62655-5.53041 7.00441-12.22076 9.35171-18.89309 2.19247-6.23197.73765-8.33822-5.89729-8.38758-4.09404-.03027-8.04407.27755-8.40086-5.55189-.42613-6.96278 1.08535-8.77195 8.06656-8.80935.78652-.00425 1.57318-.00036 2.3597-.0005q11.77296-.00137 14.25014-11.40634c1.43363-6.60055 3.64326-7.66794 11.84158-5.71968 5.46324 1.29839 6.30482 3.03995 4.63953 9.59963-1.33215 5.24666.09183 7.36235 5.55218 7.47666 8.05877.16858 16.12951.2333 24.18396-.01686 5.18314-.16094 8.14238 1.02372 8.13085 7.08516-.01096 5.79348-2.41058 7.67745-7.86618 7.37482-5.29299-.29362-10.6151-.06378-15.92438-.06371zm20.1173-123.36807c.00014 14.56262-.01196 29.1253.00764 43.68792.00562 4.16385.45726 8.4856-4.63434 10.34947-5.54742 2.03064-12.07944.33773-15.32829-4.02496-14.91744-20.03112-29.82364-40.07052-44.73143-60.10867-2.58227-3.47076-5.07185-7.01453-7.76181-10.39938-1.3839-1.74178-2.38838-4.63452-5.34561-3.75736-3.04862.90422-2.18916 3.8281-2.1942 6.05813-.04829 21.45023-.09212 42.90103.0222 64.35075.02321 4.32875-1.26252 7.28711-5.75933 8.21295-5.45026 1.12217-9.57717-1.77471-9.59894-7.38974-.12152-31.2895-.0617-62.57971-.05781-93.86968.00043-3.75894 1.538-6.76617 5.34834-7.46401 5.48803-1.00509 10.8518-1.32913 14.8383 4.18677 9.21505 12.74985 18.69866 25.3056 28.07503 37.93894 8.08746 10.89672 16.14191 21.81819 24.3013 32.66086 1.32364 1.75879 2.36027 4.67816 5.35339 3.65127 2.95593-1.01406 2.05697-3.92363 2.0623-6.15456.05002-21.05667.01888-42.11349.03633-63.17028.00562-6.78401 2.25288-9.59195 7.52756-9.55822 5.45805.03485 7.82164 2.80686 7.83173 9.34078.0235 15.15296.0075 30.30603.00764 45.45903zm-697.33776-74.1694c-9.62215-.0013-9.75571-.14418-13.45988-8.98164-3.11226-7.42513-6.41669-14.76982-9.51771-22.19953-1.561-3.73992-4.11502-5.3192-8.21713-5.27823-14.16026.14133-28.3242.16876-42.4836-.01171-4.60536-.05867-7.31132 1.70815-8.93186 5.97964-2.99341 7.89061-6.19079 15.70637-9.43323 23.49921-2.52274 6.0631-13.30023 9.86579-18.79655 6.57929-3.35603-2.00675-.903-4.64439-.03013-6.72224 7.22519-17.19957 14.61327-34.33063 21.93786-51.48847 7.63373-17.88156 15.37218-35.71997 22.79991-53.68676 2.12241-5.13391 4.8895-8.04636 10.88388-7.77551 6.3361.28624 11.77318-.32004 15.21203 7.55814 15.08423 34.55672 30.95657 68.76934 46.52502 103.11496 4.19495 9.25455 4.06463 9.41429-6.48862 9.41285zm-52.62932-49.27279c5.50173 0 11.00836-.14166 16.50367.04627 4.16151.14227 4.76271-1.75565 3.4395-5.08093-5.80136-14.57962-11.61461-29.1546-17.45416-43.71898-.57281-1.42851-1.08896-3.08943-3.03903-3.18514-1.98128-.0973-2.61882 1.43583-3.19004 2.93187-5.66686 14.84121-11.33689 29.6812-16.97455 44.53354-1.31384 3.46139.21422 4.59235 3.62085 4.51091 5.69497-.13625 11.39556-.03726 17.09377-.03755zm476.1036 49.27221c-5.7762 1.14783-9.66453-1.61724-11.95561-8.12492-2.66689-7.57536-6.36378-14.78172-9.34739-22.25456-1.67683-4.19977-4.29961-6.13132-8.91232-6.08072-14.15817.15517-28.3211.18155-42.47826-.01582-4.70281-.06555-7.19239 1.95086-8.78878 6.16029-2.92263 7.70628-6.07388 15.32864-9.2596 22.93164-2.74099 6.54213-12.42267 10.1774-18.5695 7.01547-3.16322-1.62718-1.47587-4.01311-.60502-6.08588 5.17219-12.31186 10.38445-24.60708 15.62237-36.89123 9.78115-22.93863 19.65572-45.8377 29.33077-68.82087 1.98806-4.72248 4.22176-8.17677 10.16547-7.90041 6.43413.29921 12.39182-.74282 15.95912 7.39151 15.0629 34.34688 30.80448 68.39597 46.26958 102.56685 4.56932 10.09624 4.52637 10.1157-7.43083 10.10864zm-51.47737-49.2708c5.50245 0 11.00706-.09214 16.50677.0325 3.65436.08285 5.20131-.86105 3.59886-4.81019-5.90118-14.54294-11.64163-29.15103-17.48674-43.71678-.62535-1.55817-.94595-3.62856-3.36504-3.46485-2.22794.15074-2.69587 2.04787-3.31242 3.66053-5.53359 14.47461-10.96871 28.98732-16.58331 43.43037-1.49721 3.85152-.17731 4.9689 3.54538 4.89704 5.69691-.10998 11.39743-.02883 17.09651-.02861zm-121.75864 49.27138c-6.07345 1.59583-10.24519-2.06931-14.22766-7.43969-9.3667-12.6306-19.36611-24.79068-28.81873-37.35988-3.36893-4.47992-5.57035-3.60813-8.54386.20155-10.64537 13.63857-21.4225 27.17462-32.19905 40.71028-2.68534 3.37289-16.84164 5.74137-20.3086 3.33353-3.14218-2.18221-.62117-4.20068.72049-5.84587 8.07766-9.90543 16.27641-19.71223 24.43075-29.55507 6.14726-7.42023 12.19592-14.92496 18.47724-22.22973 2.66199-3.0958 2.65377-5.41218.00317-8.67742-12.14431-14.95973-24.05797-30.10765-35.94856-45.27099-1.37006-1.74697-4.02326-3.44838-2.89134-6.03676 1.31355-3.00387 4.49681-1.44282 6.88217-1.81208 8.04364-1.24509 13.53167 1.78931 18.20277 8.66571 7.1689 10.55347 15.40397 20.38431 23.21595 30.49904 3.67411 4.75711 5.30337 4.74108 9.05936.18393 9.7542-11.83478 19.52338-23.65716 29.31391-35.46181 2.76665-3.33566 15.233-5.70526 18.64821-3.40773 3.29642 2.21756.54087 4.18504-.7708 5.79384-7.95152 9.75239-16.0384 19.39436-24.06979 29.08181-4.51815 5.4498-8.79008 11.12638-13.60043 16.30374-3.40396 3.66359-3.01662 6.3075-.00159 10.0219 13.62912 16.79095 27.01605 33.77913 40.40515 50.76346 1.36603 1.73284 4.2813 3.27094 2.98101 5.89261-1.39688 2.81627-4.58086 1.34707-7.00369 1.62715-.97089.11225-1.96543.01849-3.95608.01849zm186.11364 73.94093c.00058 15.15195.02811 30.3039-.01182 45.45578-.01802 6.85655-2.41851 9.42701-8.46054 9.30968-5.75602-.11171-7.90784-2.55151-7.925-9.16193-.03071-11.80663-.18077-23.61701.07049-35.41832.10869-5.10764-1.73435-7.01943-6.86184-6.95839-16.33162.19474-32.66857.20541-48.99975-.00389-5.28492-.06768-6.81499 2.15302-6.72014 7.1039.22618 11.80238.11864 23.61233.05233 35.41868-.03604 6.43752-2.54263 9.11062-8.13907 9.01123-5.4827-.0973-8.35833-3.05869-8.369-9.10874a25618.02527 25618.02527 0 0 1-.00043-90.91139c.01124-6.39972 2.59943-9.20907 8.08717-9.30975 5.88071-.10789 8.3886 2.61645 8.42666 9.39094.05507 9.83862.15454 19.68063-.04872 29.51532-.08851 4.28475 1.34339 5.93989 5.78269 5.89106 16.92223-.1862 33.84921-.20397 50.77086.00688 4.79738.05978 6.10834-1.86145 6.0093-6.32206-.22243-10.03077-.11907-20.07018-.04988-30.10538.03993-5.78353 2.68722-8.3869 8.22181-8.37969 5.44032.00706 8.10779 2.65108 8.13791 8.53011.07857 15.34831.02638 30.69724.02696 46.04595zm-308.93817-.15863c.00058-14.94366-.05175-29.88754.02479-44.83084.03344-6.54354 2.51019-9.42446 7.81457-9.58269 5.51542-.16451 8.44266 2.48585 8.48519 8.082.0914 11.99355.01571 23.98833.04382 35.9825.00505 2.10582-.48638 4.56915 2.17114 5.55218 2.26282.83709 3.63447-.94505 5.06594-2.22996 15.93706-14.30604 32.07046-28.40425 47.6689-43.07098 5.44825-5.12284 11.39066-4.33502 17.5878-4.13949 1.40812.04443 2.58126.94869 2.96991 2.47677.55298 2.17317-.34814 3.71419-1.98907 5.13088-9.07234 7.83302-18.08989 15.72976-27.12374 23.60747-2.66545 2.32434-5.33278 4.6467-7.98237 6.98898-5.77015 5.10122-6.03525 7.3523-1.21308 13.279 12.77341 15.69884 25.61226 31.34434 38.42026 47.015.86941 1.06372 1.70004 2.15915 2.54724 3.2411 1.20976 1.54495 2.73003 3.04031 1.46261 5.23441-1.13927 1.97226-3.13122 1.94646-5.1213 2.238-8.20841 1.20188-13.91123-1.69615-18.85421-8.62968-9.45983-13.26949-19.81069-25.90539-29.84008-38.76666-4.70065-6.02804-6.94877-5.53149-13.13409-1.51302-10.6742 6.93496-14.58387 16.10814-12.74457 28.43326.60286 4.03916.16636 8.24582.07496 12.37305-.12426 5.60695-2.53874 8.05029-7.8287 8.04236-5.14148-.00771-8.25483-2.42308-8.44482-7.72488-.17616-4.90958-.05896-9.82976-.06069-14.74532-.0036-10.81448-.00101-21.62897-.00043-32.44345zm371.39074 21.86724c-6.09738-.00007-12.19865.13679-18.2907-.04512-4.56543-.13629-7.30483 1.71093-8.9165 6.03269-2.67453 7.17071-5.61503 14.24773-8.62934 21.28468-2.18599 5.10288-12.14589 8.15097-16.68869 5.26043-2.65752-1.69104-1.19116-3.7872-.37452-5.70447 8.07968-18.96848 16.19481-37.92175 24.29395-56.88177 5.55463-13.00336 11.29681-25.93177 16.55434-39.05416 2.1782-5.43618 5.57381-7.34023 11.2478-7.31021 5.79941.03074 10.01022 1.06894 12.68907 7.10397 14.10224 31.77069 28.5395 63.39284 42.87296 95.06086 2.95564 6.5302 2.48237 7.27435-4.82462 7.31457q-10.45667.05751-14.62913-9.87278c-2.44518-5.78814-5.12288-11.48353-7.39464-17.33762-1.66573-4.293-4.48831-6.04415-9.02952-5.90094-6.28781.19834-12.58644.04987-18.88045.04987zm-.21825-11.64c5.10746 0 10.21492-.00288 15.32238.00108 3.2846.00245 4.82866-1.03532 3.37946-4.66835-5.23042-13.11234-10.335-26.27487-15.4687-39.42562-.57936-1.48372-1.01039-3.08521-3.01287-3.11382-1.93141-.02764-2.64066 1.38217-3.22521 2.90924-5.04836 13.18516-10.12252 26.36053-15.14117 39.55697-1.2063 3.17177-.23786 4.85509 3.41348 4.77156 4.90867-.11236 9.82152-.02782 14.73264-.03106zm-221.23445 46.20253c-5.44147.43885-11.48422-.39424-17.40544-1.86034-20.15032-4.98915-34.88267-22.89189-37.22737-44.55661-.93846-8.66996-.90054-17.18126.98646-25.72777 3.55605-16.10551 12.67423-28.14587 27.70743-34.44436 21.73719-9.10719 43.20813-9.24528 62.91733 5.96299 3.48123 2.68629 6.03943 6.18379 8.21432 9.94046 2.96299 5.11819 2.34831 9.17-1.53411 11.2609-5.14898 2.77299-9.80494 1.65179-12.46318-3.38788-3.74807-7.1057-9.02332-12.79208-16.75573-14.84269-23.32291-6.18483-48.74546 1.14682-52.38599 33.65095-1.09732 9.79765-.49907 19.65126 3.24582 29.02523 5.33061 13.34315 15.42574 20.41757 29.46138 22.05499 5.07863.59251 10.24231.59244 15.26947-.52512 10.96352-2.4372 18.46628-8.97375 22.93081-19.30946 2.76751-6.40696 6.95641-7.8301 12.67178-4.93863 4.35179 2.20174 5.13543 6.25388 2.0032 12.22235-8.54141 16.27513-22.60328 23.9164-40.44422 25.44975-2.14793.18458-4.32527.02523-7.19196.02523zm271.3259 83.9846c10.2746 0 19.66235.09283 29.04693-.03589 5.36276-.07344 7.46528 2.51807 7.23795 7.63695-.18625 4.19412-1.81882 6.92552-6.44336 6.40487-5.36233-.60368-7.16053 1.89969-6.5718 6.86541.09197.77572.01269 1.57169.0124 2.35829-.0036 11.63179-.0062 11.75107 11.37249 11.99676 4.43728.09586 6.48977 1.89255 6.57209 6.33309.08563 4.61343-1.35781 7.49309-6.54455 7.80726-11.40594.69096-11.40104.79352-11.39902 12.27929.00072 4.3263-.00966 8.65274.0222 12.97882.01989 2.67915.96369 3.77451 3.54841 1.98481 1.12947-.78199 2.33375-1.4555 3.50459-2.17782 3.19696-1.97219 6.40314-4.68342 9.43864.2364 3.32655 5.39139 2.85804 7.44531-2.35955 11.20375-8.29058 5.97171-16.54901 11.9884-24.78307 18.03759-2.08926 1.535-4.38192 3.75217-6.64546 1.19727-2.45484-2.77047-7.04261-6.13388-4.03868-10.03668 7.21157-9.36921 5.9698-19.97187 6.13573-30.49302.01557-.98307.00245-1.9665.00231-2.94978-.00187-11.65132.00274-11.76173-11.29739-12.24966-4.85576-.20973-6.47666-2.63915-6.4608-7.15378.01586-4.47563 1.43709-6.93713 6.4533-7.01114 10.23452-.15114 15.00942-8.57555 10.72941-18.36646-.8041-1.83951-2.02006-2.84874-4.03998-2.78517-1.87922.0591-4.41753-.41117-4.4638-2.0558-.19202-6.81669-7.43068-8.6606-9.41903-14.2646-1.41389-3.98511-2.16364-7.34268.33906-11.08757 5.82824-8.72114 10.01425-18.22267 12.90661-28.30108 1.39154-4.8489 4.53602-6.67341 9.42379-5.29611 4.97181 1.40087 6.72634 4.82237 5.00742 9.48647-2.14519 5.82079.45135 6.97237 5.50504 6.65539 3.3303-.20894 6.68453-.0111 10.02766-.04418 4.79868-.04742 7.28927 2.14762 7.35659 7.09374.06775 4.96976-2.28055 7.19125-7.18922 7.11334-5.70196-.0906-11.41589.18148-17.10689-.08425-4.47577-.20894-7.48835 1.34941-9.49183 5.39715-1.79561 3.62784-3.96617 7.07003-6.38814 11.32634z" class="cls-2"/><path d="M1030.82362 536.52494c2.66963.16231 4.5996 1.43922 6.48646 2.93141 9.25325 7.31774 18.58161 14.54092 27.80589 21.89499 5.84367 4.65891 8.36294 4.54122 13.50961-.9381 7.29503-7.76632 13.48266-16.39182 19.58998-25.08441 3.7756-5.3738 8.2172-6.35781 13.01876-2.94777 4.04546 2.87303 4.30509 7.06073.72352 12.38646-6.04635 8.99076-12.81334 17.41979-20.00602 25.51202-4.88431 5.49517-4.69589 8.97771.79445 13.9918 8.12854 7.42376 16.37169 14.72737 24.33691 22.32259 5.04043 4.80637 5.10213 9.08316.85211 13.22747-4.75889 4.64046-8.60686 4.56904-13.66891-.55827-8.15449-8.25958-16.24685-16.57892-25.06057-24.15107-4.94009-4.24428-7.33237-4.21819-12.24752.18386-10.71067 9.59228-21.93252 18.51745-34.0751 26.24766-5.944 3.78402-10.86492 2.93148-14.07874-2.40578-2.69385-4.47361-1.29726-8.25879 4.61214-11.97781 9.99969-6.29323 19.56476-13.17832 28.6678-20.70831 6.59544-5.45567 6.7001-9.34932.21523-14.70056-8.49211-7.00754-17.08022-13.89861-25.58617-20.8895-2.93704-2.41385-4.63636-5.30137-3.02887-9.28878 1.34541-3.33782 3.96315-4.68897 7.13906-5.04789zm190.55091-19.33987c.00043 4.32565-.0222 8.65144.00533 12.97695.05074 7.98045 1.67654 9.59559 9.67217 9.68756 7.77248.08951 9.35719 1.69767 9.26003 8.65079-.06602 4.72926-2.25677 6.62065-6.8813 6.76855-11.61165.37117-12.05551.94617-12.05565 12.73291-.00029 7.66823-.06473 15.33711.01975 23.0044.07799 7.08048 3.04934 9.42168 9.65775 7.35969 4.59542-1.4341 8.54069-1.92967 10.68227 3.56168 2.08565 5.348.74269 8.21194-5.4099 10.9525-13.2693 5.91074-26.55475 11.78609-39.86788 17.59773-5.97759 2.60953-8.79368 1.27958-11.34179-5.0667-2.35133-5.85524-1.18006-8.64517 4.79666-10.9476 17.53662-6.75557 15.7413-2.71562 15.79896-23.26379.02537-9.04445.05766-18.08948-.01427-27.13343-.05262-6.62995-2.20458-8.70031-8.89344-8.83869-1.76894-.03661-3.54005-.04123-5.30885-.00295-4.81223.10414-6.57425-2.63843-6.76108-7.02549-.19303-4.53596 1.33806-7.69252 6.25956-8.31753.77484-.09845 1.57159-.0204 2.35797-.03258 11.77584-.18112 12.36314-.767 12.36429-12.33219.00086-8.06146-.04527-16.1232.01629-24.18415.048-6.28955 2.11088-8.3994 7.91534-8.3527 5.54569.04468 7.65196 2.36765 7.71813 8.63825.04786 4.52176.00937 9.04453.00966 13.56679zm251.05233 73.30525c.00144 9.63639.11821 19.27493-.06213 28.90793-.06285 3.34921 1.21452 5.28263 3.91947 7.19399 11.00908 7.77958 23.26554 10.92324 36.58443 11.18782 12.99397.25816 25.91311-.9582 38.87133-1.3324 6.00325-.17333 6.98265 1.0852 5.74059 6.92624-1.91771 9.01728-1.93833 9.28128-11.07885 9.3806-14.916.16224-29.84959 1.48059-44.74959-.56613-9.75708-1.34026-18.43356-5.14173-26.52203-10.65218-8.8032-5.99752-10.65604-5.67441-17.76367 2.39771-1.81406 2.06019-3.4227 4.30136-5.12087 6.46303-2.56973 3.2708-4.95364 3.1038-7.69853-.00043-7.66897-8.67278-8.08472-11.90408 1.85472-17.86635 8.83895-5.3023 10.699-11.90905 10.12309-21.24785-.70074-11.36317-.29869-22.80469-.10091-34.20757.0777-4.47354-.7734-7.24999-6.08816-6.83997-6.35657.4906-5.83156-4.11123-5.97932-8.38146-.16434-4.74353 1.67539-6.91039 6.56546-6.70058 5.104.21896 10.23078.20079 15.33679.00461 4.66692-.17917 6.2695 2.01443 6.20824 6.42433-.13392 9.63451-.04152 19.27227-.04008 28.90865zm-611.20773 24.80636c-8.64592-.00043-17.29256.06494-25.93762-.02277-6.07302-.06155-9.19667-2.90625-9.27761-8.96049-.17616-13.16203-.15021-26.32896-.01737-39.49193.06069-6.01452 3.18088-9.17981 9.10506-9.21721 17.68416-.11157 35.36999-.11294 53.05408.00288 5.64675.03697 8.91348 2.97674 9.03277 8.72806.27707 13.35446.30619 26.7237-.00858 40.07643-.14942 6.33791-3.41989 8.84049-10.01296 8.87451-8.64571.04461-17.29184.01096-25.93776.01052zm.6518-42.77317c0-.02429-.00007-.04865-.00007-.07294-3.33938 0-6.67876-.00029-10.01815.00036-.39283.00007-.78637-.00843-1.17848.01052-6.03972.29161-8.50638 2.7327-8.64527 8.72856-.08635 3.7299-.00288 7.46354-.01204 11.19546-.01297 5.29366 2.98887 8.21274 7.8927 8.44431 7.83893.37031 15.72126.35308 23.56055-.0196 4.40809-.20959 7.22987-3.17984 7.52979-7.67068.30013-4.49624.36832-9.05735-.04029-13.53717-.37682-4.13134-2.85992-6.88797-7.3062-7.04898-3.92278-.14213-7.85465-.02984-11.78255-.02984zM694.3735 406.47316c-.00007-14.73692-.00764-29.47381.0031-44.21073.00541-7.40588 2.34088-10.29217 8.15449-10.14734 5.63572.14036 8.17792 3.32539 8.18585 10.52677.0284 25.93692.18928 51.87611-.12073 77.80932-.07251 6.06418 1.86495 7.76733 7.74415 7.61288 14.13878-.37139 28.29422-.07214 42.44237-.14681 4.83198-.02551 9.06124 1.05139 9.08459 6.72026.02357 5.72184-4.39446 6.79586-9.09511 6.80134-19.2577.02234-38.51569.06414-57.77304-.01881-6.69974-.02883-8.60159-2.11735-8.61572-8.9677-.03179-15.3263-.00987-30.65281-.00995-45.97917zm457.04037-134.21628c.00014 16.92022.02191 33.84043-.00995 50.76057-.01398 7.47976-2.21424 9.7335-9.26651 9.72107-6.98827-.01232-9.12409-2.19807-9.13432-9.88381-.04469-33.6436-.04541-67.28731.00202-100.93091.00966-6.92664 2.43408-9.19307 9.26839-9.165 6.74983.02775 9.09958 2.33493 9.1225 9.32777.05478 16.72328.01773 33.44684.01788 50.1703zm283.90642 134.97722c.00043 15.14921.03935 30.29857-.01744 45.44757-.02508 6.6884-1.59394 8.24856-7.82913 8.27025-6.3769.0222-7.98886-1.51475-7.99549-8.04632-.03143-30.69194-.02739-61.38385-.00303-92.07579.00476-6.08393 2.3731-8.66968 7.7523-8.72063 5.36002-.05078 8.04695 2.65292 8.07088 8.49688.06343 15.54244.02148 31.08535.02191 46.62804zm-516.0032 55.71877c-14.27234.01413-27.64068-2.52232-38.68493-12.64347-4.46964-4.0961-5.97622-8.02938-1.92622-13.1688.95143-1.20721 1.49389-2.75548 2.12861-4.18936 1.62219-3.66431 3.35221-3.41105 5.21277-.20296 9.71037 16.74259 28.5968 20.12424 44.76379 16.09949 9.39654-2.33926 15.74966-8.50823 20.05662-16.90187 2.53038-4.93135 6.33798-7.23896 11.86565-6.91889 6.18834.35834 7.64591 2.50214 5.46799 8.27068-6.40573 16.96559-23.67465 29.04977-42.40381 29.64588-2.15809.06869-4.32022.0093-6.48048.0093zm390.92407 137.12144c3.38912-.3902 5.93247 1.08534 7.83677 4.43311 7.6413 13.4323 17.87092 24.37868 31.52469 31.89901 3.95464 2.1781 6.10113 5.05337 3.68983 9.60878-3.73927 7.06419-7.92802 9.40957-12.93587 6.59413-17.8183-10.01707-30.02287-25.13868-38.21426-43.585-2.35436-5.30209 1.12673-8.97606 8.09885-8.95004zm150.60721-55.56885c-2.54249.2057-3.84263-1.03049-4.71809-3.40146-2.77242-7.50693-5.72849-14.94669-8.66553-22.39193-1.10611-2.80348-1.64425-5.86137 1.8119-6.84271 3.71217-1.05399 8.33094-5.26108 11.47946.22501 4.47346 7.79457 7.72649 16.24147 10.36715 24.84109 1.17199 3.81696-4.01576 7.44934-10.27489 7.56999z" class="cls-2"/></svg>