<svg xmlns="http://www.w3.org/2000/svg" role="img" viewBox="-5.20 -5.20 270.14 114.64"><title>Silansys Semiconductor Ltd (member) logo</title><defs><linearGradient id="a" x2="1" y1=".5" y2=".5" gradientUnits="objectBoundingBox"><stop offset="0" stop-color="#ff4e24"/><stop offset=".06" stop-color="#fe5a29"/><stop offset=".22" stop-color="#fb7738"/><stop offset=".39" stop-color="#fa8c42"/><stop offset=".55" stop-color="#f99948"/><stop offset=".7" stop-color="#f99e4b"/><stop offset=".71" stop-color="#f99b4a"/><stop offset=".84" stop-color="#fc7135"/><stop offset=".94" stop-color="#fe5728"/><stop offset="1" stop-color="#ff4e24"/></linearGradient></defs><g data-name="Group 1"><path d="M40.613 49.42a10.021 10.021 0 0 0 1.7 1.531 9.694 9.694 0 0 0 2.246 1.193 7.51 7.51 0 0 0 2.688.478 7.7 7.7 0 0 0 2.486-.406 6.9 6.9 0 0 0 2.113-1.157 5.373 5.373 0 0 0 1.463-1.9 6.158 6.158 0 0 0 .546-2.659 4.232 4.232 0 0 0-1.193-3.234 9.415 9.415 0 0 0-2.961-1.84 31.1 31.1 0 0 0-3.881-1.258 16.375 16.375 0 0 1-3.881-1.531 9.128 9.128 0 0 1-2.961-2.62 7.509 7.509 0 0 1-1.193-4.495 11.026 11.026 0 0 1 .748-4.118 9.067 9.067 0 0 1 2.178-3.234 10.22 10.22 0 0 1 3.539-2.145 13.892 13.892 0 0 1 4.833-.783 11.672 11.672 0 0 1 4.254.683q1.736.678 3.3 1.225a15 15 0 0 0-1.021 2.519 17.956 17.956 0 0 0-.614 2.314h-.816a6.479 6.479 0 0 0-2.109-2.928 5.894 5.894 0 0 0-3.881-1.294 6.387 6.387 0 0 0-2.041.341 5.706 5.706 0 0 0-1.84 1.021 5.442 5.442 0 0 0-1.356 1.766 5.72 5.72 0 0 0-.546 2.587 4.543 4.543 0 0 0 1.193 3.37 8.347 8.347 0 0 0 2.961 1.872 31.289 31.289 0 0 0 3.881 1.193 17.237 17.237 0 0 1 3.881 1.43 8.436 8.436 0 0 1 2.961 2.551 7.509 7.509 0 0 1 1.193 4.495 9.464 9.464 0 0 1-.852 3.881 10.9 10.9 0 0 1-2.451 3.439 11.289 11.289 0 0 1-3.845 2.382 14.388 14.388 0 0 1-5.106.852 19.042 19.042 0 0 1-5.242-.614 16.329 16.329 0 0 1-3.539-1.427 17.858 17.858 0 0 0 .852-2.418 9.509 9.509 0 0 0 .442-2.551h.816a7.335 7.335 0 0 0 1.056 1.5z" data-name="Path 1"/><path d="M68.411 7.618a3.467 3.467 0 1 1 4.9 4.9 3.467 3.467 0 1 1-4.9-4.9zm-.169 20.6q-.1-3.369-.442-6.3a13.933 13.933 0 0 0 6.13 0q-.341 2.93-.442 6.3t-.1 6.435v7.074q0 3.066.1 6.435t.442 6.094c-1.047-.094-2.067-.136-3.065-.136s-2.022.042-3.065.136q.341-2.725.442-6.094t.1-6.435v-7.079q.004-3.066-.102-6.435z" data-name="Path 2"/><path d="M86.656 17.488q-.034-2.725-.1-5.379t-.169-5.073q-.1-2.413-.237-4.121a18.266 18.266 0 0 0 3.065.341 17.928 17.928 0 0 0 3.064-.341q-.136 1.7-.237 4.121t-.169 5.073q-.068 2.657-.1 5.379t-.036 5.038V34.85q0 2.316.036 5.038t.1 5.379q.068 2.657.169 5.038t.237 3.949c-1.047-.094-2.067-.137-3.065-.137s-2.022.042-3.065.137c.091-1.047.169-2.36.237-3.949s.124-3.27.169-5.038.078-3.562.1-5.379.033-3.494.033-5.038V22.526q0-2.316-.033-5.038z" data-name="Path 3"/><path d="M110.05 22.052a17.49 17.49 0 0 1 5.311-.816 13.531 13.531 0 0 1 4.5.715 10.021 10.021 0 0 1 3.5 2.041 9.451 9.451 0 0 1 2.275 3.2 10.055 10.055 0 0 1 .829 4.118q0 3.881-.137 7.729t-.137 8.135c0 .546.01 1.125.033 1.736a5.1 5.1 0 0 0 .305 1.635 3.117 3.117 0 0 0 .783 1.193 2.171 2.171 0 0 0 1.531.478 6.881 6.881 0 0 0 .715-.036 1.642 1.642 0 0 0 .715-.241v1.5a7.929 7.929 0 0 1-1.872.543 13.888 13.888 0 0 1-2.486.2 4.716 4.716 0 0 1-3.387-1.121 4.615 4.615 0 0 1-1.381-2.893 18.272 18.272 0 0 1-4.817 3.608 13.265 13.265 0 0 1-5.834 1.157 11.75 11.75 0 0 1-3.325-.478 7.577 7.577 0 0 1-2.887-1.559 8.565 8.565 0 0 1-2.035-2.623 7.607 7.607 0 0 1-.78-3.5 8 8 0 0 1 2.545-6.331 13.835 13.835 0 0 1 7.023-3q3.661-.614 5.733-1.053a14.267 14.267 0 0 0 3.052-.92 2.066 2.066 0 0 0 1.186-1.121 5.651 5.651 0 0 0 .2-1.667 12.852 12.852 0 0 0-.41-3.266 7.584 7.584 0 0 0-1.294-2.724 6.547 6.547 0 0 0-2.314-1.872 7.677 7.677 0 0 0-3.471-.715 10.82 10.82 0 0 0-5.073 1.225 8.072 8.072 0 0 0-3.507 3.4h-.748v-3.541a19.326 19.326 0 0 1 5.652-3.133zm8.489 15.932q-1.526.273-3.084.579a28.9 28.9 0 0 0-3.081.783 9.969 9.969 0 0 0-2.711 1.3 6.291 6.291 0 0 0-1.9 2.041 7.28 7.28 0 0 0 1.118 7.966 5.957 5.957 0 0 0 4.066 1.632 8.289 8.289 0 0 0 4.709-1.427 10.727 10.727 0 0 0 3.286-3.338l.27-10.212a16.944 16.944 0 0 1-2.678.683z" data-name="Path 4"/><path d="M159.042 27.394a6.447 6.447 0 0 0-5.447-2.62q-4.768 0-6.978 2.928t-2.213 8.236v5.788q0 3.066.1 6.435t.442 6.094c-1.046-.094-2.067-.136-3.065-.136s-2.022.042-3.065.136q.341-2.725.442-6.094t.1-6.435v-7.078q0-3.066-.1-6.435t-.442-6.3a18.266 18.266 0 0 0 3.065.341 7.728 7.728 0 0 0 1.193-.1c.432-.068.943-.146 1.531-.237q-.2 2.72-.2 5.447h.136a14.27 14.27 0 0 1 4.576-4.531 12.1 12.1 0 0 1 6.351-1.6 14.352 14.352 0 0 1 3.858.543 9.283 9.283 0 0 1 3.517 1.872 9.669 9.669 0 0 1 2.561 3.608 14.719 14.719 0 0 1 .991 5.821q0 2.93-.137 6.026t-.137 6.568v4.427q0 1.087.033 2.145c.023.7.059 1.375.1 2.009a28.4 28.4 0 0 0-2.893-.136 27.117 27.117 0 0 0-2.828.136q.136-3.539.309-7.287t.169-7.693v-4.156q0-5.1-1.976-7.729z" data-name="Path 5"/><path d="M178.673 49.42a9.894 9.894 0 0 0 1.7 1.531 9.629 9.629 0 0 0 2.246 1.193 7.514 7.514 0 0 0 2.691.478 7.664 7.664 0 0 0 2.483-.406 6.9 6.9 0 0 0 2.113-1.157 5.373 5.373 0 0 0 1.463-1.9 6.158 6.158 0 0 0 .546-2.659 4.244 4.244 0 0 0-1.193-3.234 9.431 9.431 0 0 0-2.964-1.84 31.1 31.1 0 0 0-3.881-1.258 16.375 16.375 0 0 1-3.881-1.531 9.173 9.173 0 0 1-2.964-2.62 7.508 7.508 0 0 1-1.193-4.495 10.963 10.963 0 0 1 .751-4.118 9.026 9.026 0 0 1 2.178-3.234 10.221 10.221 0 0 1 3.539-2.145 13.9 13.9 0 0 1 4.836-.783 11.672 11.672 0 0 1 4.254.683q1.736.678 3.3 1.225a15.279 15.279 0 0 0-1.021 2.519 17.936 17.936 0 0 0-.614 2.314h-.816a6.462 6.462 0 0 0-2.113-2.928 5.894 5.894 0 0 0-3.881-1.294 6.422 6.422 0 0 0-2.044.341 5.656 5.656 0 0 0-1.836 1.021 5.4 5.4 0 0 0-1.356 1.766 5.72 5.72 0 0 0-.546 2.587 4.543 4.543 0 0 0 1.193 3.37 8.332 8.332 0 0 0 2.964 1.872 31.113 31.113 0 0 0 3.881 1.193 17.237 17.237 0 0 1 3.881 1.43 8.474 8.474 0 0 1 2.964 2.551 7.509 7.509 0 0 1 1.193 4.495 9.411 9.411 0 0 1-.852 3.881 10.9 10.9 0 0 1-2.451 3.439 11.29 11.29 0 0 1-3.846 2.382 14.388 14.388 0 0 1-5.106.852 19.026 19.026 0 0 1-5.242-.614 16.429 16.429 0 0 1-3.543-1.427 17.843 17.843 0 0 0 .852-2.418 9.534 9.534 0 0 0 .445-2.551h.816a7.214 7.214 0 0 0 1.056 1.5z" data-name="Path 6"/><path d="M214.199 49.557q-1.189-2.925-2.555-6.162t-2.792-6.6q-1.428-3.369-2.688-6.331t-2.213-5.21q-.956-2.247-1.43-3.335c.592.091 1.134.169 1.635.237a10.845 10.845 0 0 0 3 0c.5-.068 1.043-.146 1.635-.237q2.106 6.533 4.7 12.935t5.447 13.208q2.857-5.992 5.48-12.8t4.664-13.342a7.571 7.571 0 0 0 4.495 0q-.478.951-1.531 3.234t-2.519 5.447q-1.463 3.164-3.2 7.01t-3.539 7.9q-1.8 4.051-3.575 8.034t-3.266 7.556q-1.5 3.573-2.62 6.468t-1.667 4.6a8.016 8.016 0 0 0-4.628 0 138.179 138.179 0 0 0 9.123-17.84q-.751-1.838-1.94-4.765z" data-name="Path 7"/><path d="M242.134 49.42a9.894 9.894 0 0 0 1.7 1.531 9.693 9.693 0 0 0 2.246 1.193 7.51 7.51 0 0 0 2.688.478 7.7 7.7 0 0 0 2.486-.406 6.84 6.84 0 0 0 2.109-1.157 5.3 5.3 0 0 0 1.463-1.9 6.158 6.158 0 0 0 .543-2.659 4.242 4.242 0 0 0-1.19-3.234 9.413 9.413 0 0 0-2.961-1.84 31.28 31.28 0 0 0-3.881-1.258 16.374 16.374 0 0 1-3.881-1.531 9.127 9.127 0 0 1-2.961-2.62 7.485 7.485 0 0 1-1.193-4.495 10.962 10.962 0 0 1 .747-4.118 9.033 9.033 0 0 1 2.181-3.234 10.219 10.219 0 0 1 3.539-2.145 13.879 13.879 0 0 1 4.833-.783 11.661 11.661 0 0 1 4.254.683q1.736.678 3.3 1.225a15.006 15.006 0 0 0-1.021 2.519 17.968 17.968 0 0 0-.614 2.314h-.809a6.48 6.48 0 0 0-2.109-2.928 5.906 5.906 0 0 0-3.881-1.294 6.436 6.436 0 0 0-2.044.341 5.705 5.705 0 0 0-1.84 1.021 5.489 5.489 0 0 0-1.364 1.766 5.722 5.722 0 0 0-.543 2.587 4.543 4.543 0 0 0 1.193 3.37 8.346 8.346 0 0 0 2.961 1.872 31.3 31.3 0 0 0 3.881 1.193 17.237 17.237 0 0 1 3.881 1.43 8.437 8.437 0 0 1 2.961 2.551 7.509 7.509 0 0 1 1.193 4.495 9.464 9.464 0 0 1-.852 3.881 10.9 10.9 0 0 1-2.451 3.439 11.3 11.3 0 0 1-3.848 2.382 14.375 14.375 0 0 1-5.106.852 19.057 19.057 0 0 1-5.242-.614 16.325 16.325 0 0 1-3.539-1.427 18.822 18.822 0 0 0 .852-2.418 9.644 9.644 0 0 0 .442-2.551h.816a7.333 7.333 0 0 0 1.056 1.5z" data-name="Path 8"/></g><g fill="#ff4e24" data-name="Group 2"><path d="M69.929 70.38a4 4 0 0 0 2.109.6c1.212 0 1.918-.624 1.918-1.563 0-.845-.491-1.349-1.729-1.81-1.5-.543-2.421-1.333-2.421-2.613 0-1.43 1.183-2.493 2.967-2.493a4.121 4.121 0 0 1 2.015.449l-.325.965a3.407 3.407 0 0 0-1.729-.436c-1.251 0-1.729.748-1.729 1.375 0 .858.559 1.281 1.823 1.771 1.55.611 2.327 1.346 2.327 2.694 0 1.414-1.034 2.655-3.2 2.655a4.754 4.754 0 0 1-2.34-.6z" data-name="Path 9"/><path d="M77.3 65.235l1.43 3.89c.163.435.328.952.436 1.349h.026c.124-.4.26-.9.423-1.375l1.307-3.864h1.268l-1.8 4.693c-.858 2.262-1.443 3.416-2.259 4.137a3.353 3.353 0 0 1-1.469.761l-.3-1.008a2.729 2.729 0 0 0 1.047-.585 3.812 3.812 0 0 0 1.008-1.336.768.768 0 0 0 .094-.283.724.724 0 0 0-.094-.3l-2.421-6.081h1.307z" data-name="Path 10"/><path d="M83.605 70.612a3.386 3.386 0 0 0 1.592.462c.858 0 1.268-.423 1.268-.982s-.341-.884-1.212-1.212c-1.2-.436-1.755-1.076-1.755-1.866a2.039 2.039 0 0 1 2.272-1.934 3.063 3.063 0 0 1 1.606.41l-.286.858a2.7 2.7 0 0 0-1.349-.38c-.708 0-1.089.41-1.089.9 0 .559.38.8 1.238 1.128 1.131.422 1.729.995 1.729 1.989 0 1.17-.913 1.986-2.451 1.986a3.794 3.794 0 0 1-1.853-.462l.286-.9z" data-name="Path 11"/><path d="M91.195 63.656v1.58h1.716v.913h-1.716v3.547c0 .816.231 1.281.9 1.281a2.239 2.239 0 0 0 .7-.081l.055.913a3.276 3.276 0 0 1-1.063.162 1.712 1.712 0 0 1-1.294-.5 2.564 2.564 0 0 1-.461-1.729v-3.591h-1.028v-.913h1.021v-1.212l1.17-.367z" data-name="Path 12"/><path d="M95.319 68.733a2.1 2.1 0 0 0 2.246 2.285 4.566 4.566 0 0 0 1.823-.325l.218.842a5.345 5.345 0 0 1-2.2.423 3.074 3.074 0 0 1-3.24-3.322c0-1.973 1.183-3.565 3.1-3.565 2.152 0 2.707 1.892 2.707 3.1a3.248 3.248 0 0 1-.039.572zm3.5-.858a1.71 1.71 0 0 0-1.648-1.947 1.971 1.971 0 0 0-1.836 1.947z" data-name="Path 13"/><path d="M101.971 67.017c0-.7-.026-1.238-.055-1.781h1.047l.055 1.063h.042a2.274 2.274 0 0 1 2.083-1.212 1.944 1.944 0 0 1 1.853 1.32h.026a2.649 2.649 0 0 1 .747-.858 2.207 2.207 0 0 1 1.443-.462c.884 0 2.178.572 2.178 2.857v3.882h-1.17v-3.73c0-1.281-.475-2.028-1.43-2.028a1.573 1.573 0 0 0-1.43 1.076 2.112 2.112 0 0 0-.094.6v4.082h-1.17V67.88c0-1.063-.462-1.81-1.375-1.81a1.779 1.779 0 0 0-1.576 1.781v3.975h-1.17v-4.8z" data-name="Path 14"/><path d="M117.738 64.582v3.2h3.075v.816h-3.075v3.224h-.871v-3.224h-3.075v-.816h3.075v-3.2z" data-name="Path 15"/><path d="M124.508 62.649v9.172h-1.2v-9.172z" data-name="Path 16"/><path d="M133.52 71.537a5.827 5.827 0 0 1-2.421.436 4.278 4.278 0 0 1-4.518-4.654 4.488 4.488 0 0 1 4.791-4.82 4.917 4.917 0 0 1 2.178.41l-.3.965a4.2 4.2 0 0 0-1.836-.38c-2.152 0-3.578 1.375-3.578 3.783 0 2.262 1.294 3.689 3.51 3.689a4.78 4.78 0 0 0 1.947-.38l.231.952z" data-name="Path 17"/><path d="M140.072 62.649v9.172h-1.2v-9.172z" data-name="Path 18"/><path d="M142.575 67.017c0-.7-.013-1.238-.052-1.781h1.063l.068 1.076h.029a2.441 2.441 0 0 1 2.178-1.225c.913 0 2.327.543 2.327 2.8v3.939h-1.2v-3.8c0-1.063-.393-1.96-1.524-1.96a1.728 1.728 0 0 0-1.606 1.225 1.849 1.849 0 0 0-.081.556v3.979h-1.2v-4.8z" data-name="Path 19"/><path d="M150.583 67.017c0-.7-.013-1.238-.055-1.781h1.063l.068 1.076h.026a2.449 2.449 0 0 1 2.178-1.225c.913 0 2.327.543 2.327 2.8v3.939h-1.2v-3.8c0-1.063-.393-1.96-1.524-1.96a1.728 1.728 0 0 0-1.606 1.225 1.752 1.752 0 0 0-.081.556v3.979h-1.2v-4.8z" data-name="Path 20"/><path d="M161.338 71.973a3.14 3.14 0 0 1-3.159-3.39 3.224 3.224 0 0 1 3.266-3.5 3.161 3.161 0 0 1 3.172 3.374 3.23 3.23 0 0 1-3.266 3.513zm.042-.9c1.141 0 2-1.076 2-2.571 0-1.118-.559-2.519-1.973-2.519s-2.012 1.307-2.012 2.558c0 1.443.816 2.532 1.973 2.532h.016z" data-name="Path 21"/><path d="M166.953 65.236l1.294 3.689c.218.614.393 1.157.53 1.7h.042c.15-.543.341-1.089.559-1.7l1.281-3.689h1.251l-2.587 6.588h-1.144l-2.5-6.588h1.28z" data-name="Path 22"/><path d="M178.215 70.244a11.019 11.019 0 0 0 .094 1.58h-1.076l-.107-.832h-.039a2.427 2.427 0 0 1-2.012.982 1.876 1.876 0 0 1-2.015-1.892c0-1.593 1.417-2.464 3.962-2.451v-.137a1.354 1.354 0 0 0-1.5-1.524 3.194 3.194 0 0 0-1.726.488l-.273-.8a4.264 4.264 0 0 1 2.178-.572c2.028 0 2.519 1.375 2.519 2.7v2.464zm-1.17-1.784c-1.307-.029-2.789.2-2.789 1.482a1.049 1.049 0 0 0 1.115 1.144 1.658 1.658 0 0 0 1.619-1.1 1.2 1.2 0 0 0 .055-.38z" data-name="Path 23"/><path d="M181.995 63.656v1.58h1.713v.913h-1.713v3.547c0 .816.231 1.281.9 1.281a2.2 2.2 0 0 0 .686-.081l.055.913a3.275 3.275 0 0 1-1.063.162 1.712 1.712 0 0 1-1.294-.5 2.564 2.564 0 0 1-.462-1.729v-3.591h-1.02v-.913h1.02v-1.212l1.17-.367z" data-name="Path 24"/><path d="M186.068 64.026a.769.769 0 0 1 .029-1.537.735.735 0 0 1 .761.764.748.748 0 0 1-.777.774zm-.572 7.8v-6.59h1.2v6.59z" data-name="Path 25"/><path d="M191.856 71.973a3.141 3.141 0 0 1-3.159-3.39 3.224 3.224 0 0 1 3.266-3.5 3.161 3.161 0 0 1 3.172 3.374 3.23 3.23 0 0 1-3.266 3.513h-.013zm.039-.9c1.144 0 2-1.076 2-2.571 0-1.118-.556-2.519-1.973-2.519s-2.012 1.307-2.012 2.558c0 1.443.816 2.532 1.973 2.532z" data-name="Path 26"/><path d="M197.17 67.017c0-.7-.013-1.238-.055-1.781h1.063l.068 1.076h.026a2.445 2.445 0 0 1 2.178-1.225c.913 0 2.327.543 2.327 2.8v3.939h-1.2v-3.8c0-1.063-.393-1.96-1.524-1.96a1.728 1.728 0 0 0-1.606 1.225 1.754 1.754 0 0 0-.081.556v3.979h-1.2v-4.8z" data-name="Path 27"/></g><path d="M0 50.302s28.493 40.763 138.083 53.99c0 0-104.383 2.789-138.083-53.99z" data-name="Path 28"/><path fill="url(#a)" d="M190.486 99.622c-20.453 2.233-44.7 1.716-70.345-2.083C52.26 87.5.337 58.28 4.192 32.286 7.12 12.474 41.626.234 87.966 0 52.4 3.244 27.449 14.5 24.986 31.172 21.144 57.071 73.08 86.2 140.962 96.248a305.558 305.558 0 0 0 49.525 3.377z" data-name="Path 29" transform="translate(-2.693)"/></svg>