<svg xmlns="http://www.w3.org/2000/svg" role="img" xmlns:xlink="http://www.w3.org/1999/xlink" viewBox="-6.92 -4.42 269.10 255.10"><title>Slackware logo</title><defs id="defs4"><pattern id="pattern13210" patternTransform="translate(-298.35 240.866)" xlink:href="#pattern8174"/><pattern id="pattern3256" patternTransform="translate(-604.392 30.17)" xlink:href="#pattern3254"/><pattern id="pattern3254" patternTransform="translate(-368.33 21.912)" xlink:href="#pattern3248"/><pattern id="pattern3248" patternTransform="translate(-534.396 72.042)" xlink:href="#pattern2277"/><pattern id="pattern2277" patternTransform="translate(-748.017 -19.961)" xlink:href="#pattern2263"/><pattern id="pattern2263" patternTransform="translate(-370.15 21.54)" xlink:href="#pattern2284"/><pattern id="pattern2284" patternTransform="translate(-370.15 21.54)" xlink:href="#pattern2282"/><pattern id="pattern2282" patternTransform="translate(-370.15 21.652)" xlink:href="#pattern2280"/><pattern id="pattern2280" patternTransform="translate(-370.15 21.763)" xlink:href="#pattern2278"/><pattern id="pattern2278" patternTransform="translate(-370.15 21.875)" xlink:href="#pattern2276"/><pattern id="pattern2276" patternTransform="translate(-370.15 21.986)" xlink:href="#pattern2274"/><pattern id="pattern2274" patternTransform="translate(-370.15 22.097)" xlink:href="#pattern2272"/><pattern id="pattern2272" patternTransform="translate(-370.15 22.209)" xlink:href="#pattern2270"/><pattern id="pattern2270" patternTransform="translate(-370.15 22.32)" xlink:href="#pattern2268"/><pattern id="pattern2268" patternTransform="translate(-370.15 22.432)" xlink:href="#pattern2266"/><pattern id="pattern2266" patternTransform="translate(-370.15 22.543)" xlink:href="#pattern2264"/><pattern id="pattern2264" patternTransform="translate(-370.15 22.654)" xlink:href="#pattern2262"/><pattern id="pattern2262" patternTransform="translate(-370.15 22.543)" xlink:href="#pattern2247"/><pattern id="pattern2247" patternTransform="translate(-370.15 22.431)" xlink:href="#pattern5229"/><pattern id="pattern5229" patternTransform="translate(-370.15 22.431)" xlink:href="#pattern5227"/><pattern id="pattern5227" patternTransform="translate(-370.06 22.431)" xlink:href="#pattern5225"/><pattern id="pattern5225" patternTransform="translate(-369.97 22.431)" xlink:href="#pattern5223"/><pattern id="pattern5223" patternTransform="translate(-369.881 22.431)" xlink:href="#pattern5221"/><pattern id="pattern5221" patternTransform="translate(-369.791 22.431)" xlink:href="#pattern5219"/><pattern id="pattern5219" patternTransform="translate(-369.702 22.431)" xlink:href="#pattern5217"/><pattern id="pattern5217" patternTransform="translate(-369.612 22.431)" xlink:href="#pattern5215"/><pattern id="pattern5215" patternTransform="translate(-369.522 22.431)" xlink:href="#pattern5213"/><pattern id="pattern5213" patternTransform="translate(-369.432 22.431)" xlink:href="#pattern5211"/><pattern id="pattern5211" patternTransform="translate(-369.343 22.431)" xlink:href="#pattern5209"/><pattern id="pattern5209" patternTransform="translate(-369.253 22.431)" xlink:href="#pattern5207"/><pattern id="pattern5207" patternTransform="translate(-369.163 22.431)" xlink:href="#pattern5205"/><pattern id="pattern5205" patternTransform="translate(-369.073 22.431)" xlink:href="#pattern5203"/><pattern id="pattern5203" patternTransform="translate(-368.983 22.431)" xlink:href="#pattern5201"/><pattern id="pattern5201" patternTransform="translate(-368.894 22.431)" xlink:href="#pattern5199"/><pattern id="pattern5199" patternTransform="translate(-368.804 22.431)" xlink:href="#pattern5197"/><pattern id="pattern5197" patternTransform="translate(-368.714 22.431)" xlink:href="#pattern5195"/><pattern id="pattern5195" patternTransform="translate(-368.624 22.431)" xlink:href="#pattern5193"/><pattern id="pattern5193" patternTransform="translate(-368.535 22.431)" xlink:href="#pattern5191"/><pattern id="pattern5191" patternTransform="translate(-373.023 22.431)" xlink:href="#pattern5189"/><pattern id="pattern5189" patternTransform="translate(-373.023 22.431)" xlink:href="#pattern5187"/><pattern id="pattern5187" patternTransform="translate(-368.535 22.431)" xlink:href="#pattern4208"/><pattern id="pattern8174" width="3.25" height="2.786" patternTransform="translate(-298.35 240.866)" patternUnits="userSpaceOnUse"><g id="g7182" fill="#000" fill-opacity="1" fill-rule="nonzero" stroke="none" stroke-dasharray="none" stroke-dashoffset="0" stroke-linejoin="round" stroke-miterlimit="4" stroke-opacity="1" stroke-width="6" transform="translate(21.89 -5.373) scale(.03317)"><path id="rect6203" d="M-658 162H-626V190H-658z" opacity=".99"/><path id="rect7174" d="M-626 190H-594V218H-626z" opacity=".99"/><path id="rect7176" d="M-594 162H-562V190H-594z" opacity=".99"/><path id="rect7178" d="M-594 218H-562V246H-594z" opacity=".99"/><path id="rect7180" d="M-660 218H-628V246H-660z" opacity=".99"/></g></pattern><pattern id="pattern4208" width="3.848" height="3.848" patternTransform="translate(-183.848 36.485)" patternUnits="userSpaceOnUse"><g id="g3200" fill="#000" fill-opacity="1" fill-rule="nonzero" stroke="none" stroke-dasharray="none" stroke-dashoffset="0" stroke-linejoin="round" stroke-miterlimit="4" stroke-opacity="1" stroke-width="6" transform="matrix(.04631 0 0 .04947 8.514 1.853)"><path id="rect2215" d="M-183.848 -37.449H-167.585V-21.893H-183.848z" opacity=".99"/><path id="rect3190" d="M-150.26 -6.337H-133.99699999999999V9.219H-150.26z" opacity=".99"/><path id="rect3194" d="M-117.026 -37.449H-100.76299999999999V-21.893H-117.026z" opacity=".99"/><path id="rect3196" d="M-183.494 24.776H-167.231V40.332H-183.494z" opacity=".99"/><path id="rect3198" d="M-117.026 24.776H-100.76299999999999V40.332H-117.026z" opacity=".99"/></g></pattern><pattern id="pattern11193" width="7.838" height="5" patternTransform="translate(-227.838 76)" patternUnits="userSpaceOnUse"><g id="g11188" fill="#000" fill-opacity="1" stroke="#000" stroke-dasharray="none" stroke-miterlimit="4" stroke-opacity="1" stroke-width=".112" transform="translate(227.838 -76)"><path id="rect10207" d="M-222.575 76.063H-220.06199999999998V78.45100000000001H-222.575z"/><path id="rect11184" d="M-225.238 78.55H-222.725V80.938H-225.238z"/><path id="rect11186" d="M-227.775 76.063H-225.262V78.45100000000001H-227.775z"/></g></pattern><linearGradient id="linearGradient6106"><stop id="stop6108" offset="0" stop-color="#000" stop-opacity="1"/><stop id="stop6110" offset="1" stop-color="#000" stop-opacity="0"/></linearGradient><linearGradient id="linearGradient16857"><stop id="stop16859" offset="0" stop-color="#fff" stop-opacity="1"/><stop id="stop16861" offset="1" stop-color="#fff" stop-opacity="0"/></linearGradient><linearGradient id="linearGradient11033"><stop id="stop11035" offset="0" stop-color="#fff" stop-opacity="1"/><stop id="stop11037" offset="1" stop-color="#4962ae" stop-opacity="1"/></linearGradient><linearGradient id="linearGradient9085"><stop id="stop9087" offset="0" stop-color="#fff" stop-opacity="1"/><stop id="stop9089" offset="1" stop-color="#fff" stop-opacity="0"/></linearGradient><linearGradient id="linearGradient6164"><stop id="stop6166" offset="0" stop-color="#fff" stop-opacity="1"/><stop id="stop6168" offset="1" stop-color="#4962ae" stop-opacity="1"/></linearGradient><linearGradient id="linearGradient4167"><stop id="stop4169" offset="0" stop-color="#a6b3da" stop-opacity="1"/><stop id="stop4171" offset="1" stop-color="#4962ae" stop-opacity="1"/></linearGradient><linearGradient id="linearGradient4173" x1="126.071" x2="130.755" y1="61.777" y2="248.296" gradientUnits="userSpaceOnUse" xlink:href="#linearGradient4167"/><linearGradient id="linearGradient9091" x1="127.321" x2="127.321" y1="16.178" y2="119.035" gradientTransform="matrix(1 0 0 1.25715 0 -17.411)" gradientUnits="userSpaceOnUse" xlink:href="#linearGradient9085"/><linearGradient id="linearGradient27793" x1="127.321" x2="127.321" y1="16.178" y2="119.035" gradientTransform="matrix(1 0 0 1.25715 0 -17.411)" gradientUnits="userSpaceOnUse" xlink:href="#linearGradient9085"/><linearGradient id="linearGradient2204" x1="127.321" x2="127.321" y1="16.178" y2="119.035" gradientTransform="matrix(2 0 0 2.5143 -128.554 -159.363)" gradientUnits="userSpaceOnUse" xlink:href="#linearGradient9085"/><linearGradient id="linearGradient2206" x1="127.321" x2="127.321" y1="16.178" y2="119.035" gradientTransform="matrix(1.92535 0 0 2.42485 -118.531 -149.307)" gradientUnits="userSpaceOnUse" xlink:href="#linearGradient9085"/><linearGradient id="linearGradient6112" x1="124.392" x2="122.349" y1="131.965" y2="92.974" gradientUnits="userSpaceOnUse" xlink:href="#linearGradient6106"/><linearGradient id="linearGradient2251" x1="124.392" x2="122.349" y1="131.965" y2="92.974" gradientUnits="userSpaceOnUse" xlink:href="#linearGradient6106"/><linearGradient id="linearGradient2267" x1="124.392" x2="122.349" y1="131.965" y2="92.974" gradientTransform="translate(-234.33 8.455)" gradientUnits="userSpaceOnUse" xlink:href="#linearGradient6106"/><linearGradient id="linearGradient10151" x1="124.392" x2="122.349" y1="131.965" y2="92.974" gradientTransform="translate(-234.33 8.455)" gradientUnits="userSpaceOnUse" xlink:href="#linearGradient6106"/><linearGradient id="linearGradient10170" x1="124.392" x2="122.349" y1="131.965" y2="92.974" gradientTransform="translate(-234.33 8.455)" gradientUnits="userSpaceOnUse" xlink:href="#linearGradient6106"/><linearGradient id="linearGradient10177" x1="127.321" x2="127.321" y1="16.178" y2="119.035" gradientTransform="matrix(1.92535 0 0 2.42485 -118.531 -149.307)" gradientUnits="userSpaceOnUse" xlink:href="#linearGradient9085"/><linearGradient id="linearGradient10191" x1="124.392" x2="122.349" y1="131.965" y2="92.974" gradientTransform="translate(-234.33 8.455)" gradientUnits="userSpaceOnUse" xlink:href="#linearGradient6106"/><linearGradient id="linearGradient10199" x1="124.392" x2="122.349" y1="131.965" y2="92.974" gradientTransform="translate(-209.284 -85.272) scale(1.4156)" gradientUnits="userSpaceOnUse" xlink:href="#linearGradient6106"/><linearGradient id="linearGradient12182" x1="124.392" x2="122.349" y1="131.965" y2="92.974" gradientTransform="translate(-209.284 -85.272) scale(1.4156)" gradientUnits="userSpaceOnUse" xlink:href="#linearGradient6106"/><linearGradient id="linearGradient13159" x1="124.392" x2="122.349" y1="131.965" y2="92.974" gradientTransform="translate(-21.56 -74.596) scale(1.4156)" gradientUnits="userSpaceOnUse" xlink:href="#linearGradient6106"/><linearGradient id="linearGradient13199" x1="124.392" x2="122.349" y1="131.965" y2="92.974" gradientTransform="translate(-21.56 -74.596) scale(1.4156)" gradientUnits="userSpaceOnUse" xlink:href="#linearGradient6106"/><linearGradient id="linearGradient13201" x1="127.321" x2="127.321" y1="16.178" y2="119.035" gradientTransform="matrix(1.92535 0 0 2.42485 -118.531 -149.307)" gradientUnits="userSpaceOnUse" xlink:href="#linearGradient9085"/><linearGradient id="linearGradient13206" x1="127.321" x2="127.321" y1="16.178" y2="119.035" gradientTransform="matrix(1.92535 0 0 2.42485 -118.531 -149.307)" gradientUnits="userSpaceOnUse" xlink:href="#linearGradient9085"/><linearGradient id="linearGradient13214" x1="124.392" x2="122.349" y1="131.965" y2="92.974" gradientTransform="translate(-21.56 -74.596) scale(1.4156)" gradientUnits="userSpaceOnUse" xlink:href="#linearGradient6106"/><linearGradient id="linearGradient13241" x1="124.392" x2="122.349" y1="131.965" y2="92.974" gradientTransform="translate(-21.56 -74.596) scale(1.4156)" gradientUnits="userSpaceOnUse" xlink:href="#linearGradient6106"/><filter id="filter21800" width="1.029" height="1.045" x="-.015" y="-.022"><feGaussianBlur id="feGaussianBlur21802" stdDeviation=".426"/></filter><filter id="filter27770" width="1.122" height="1.427" x="-.081" y="-.146"><feGaussianBlur id="feGaussianBlur27772" stdDeviation="1.281"/></filter><filter id="filter10137" width="1.274" height="1.186" x="-.137" y="-.093"><feGaussianBlur id="feGaussianBlur10139" stdDeviation="3.183"/></filter><radialGradient id="radialGradient7141" cx="126.177" cy="183.737" r="60.643" fx="126.177" fy="183.737" gradientTransform="matrix(1 0 0 .8086 0 25.176)" gradientUnits="userSpaceOnUse" xlink:href="#linearGradient6164"/><radialGradient id="radialGradient11039" cx="128.037" cy="202.386" r="61.362" fx="128.037" fy="202.386" gradientTransform="matrix(2.30875 -.07452 .01168 .36614 -169.932 103.672)" gradientUnits="userSpaceOnUse" xlink:href="#linearGradient11033"/></defs><g id="layer1"><g id="g13243"><path id="path19860" fill="#7b7b7b" stroke="#8f8f8f" stroke-linejoin="round" d="M 149.90664,88.062141 A 51.972347,33.941124 0 0 1 97.934288,122.00327 51.972347,33.941124 0 0 1 45.961941,88.062141 51.972347,33.941124 0 0 1 97.934288,54.121017 51.972347,33.941124 0 0 1 149.90664,88.062141 Z" filter="url(#filter21800)" opacity=".99" transform="matrix(2.42072 0 0 3.2759 -109.3 -158.537)"/><path id="path3196" fill="#3e5495" stroke="#3d5292" stroke-linejoin="round" stroke-width=".902" d="M 187.85714,131.53572 A 59.642857,48.035713 0 0 1 128.21428,179.57143 59.642857,48.035713 0 0 1 68.571423,131.53572 59.642857,48.035713 0 0 1 128.21428,83.500008 59.642857,48.035713 0 0 1 187.85714,131.53572 Z" opacity=".99" transform="matrix(2.10413 0 0 2.33747 -142.62 -185.36)"/><path id="path2223" fill="#4962ae" stroke-linejoin="round" stroke-width="1.032" d="m 189.28571,116.71429 a 63.214287,53.92857 0 0 1 -63.21428,53.92857 63.214287,53.92857 0 0 1 -63.21429,-53.92857 63.214287,53.92857 0 0 1 63.21429,-53.928573 63.214287,53.92857 0 0 1 63.21428,53.928573 z" opacity=".99" transform="matrix(1.95577 0 0 1.96802 -120.12 -114.023)"/><g id="g13231" transform="matrix(1.05285 0 0 1 -1.579 0)"><g id="text4231" fill="#fff0ff" stroke="#fff0ff" stroke-width="5" filter="url(#filter10137)" transform="matrix(1.54476 0 0 1.29724 338.454 -79.327)"><path id="path135" d="m -104.58208,77.064743 v 13.851563 q -8.08593,-3.867188 -15.25781,-5.765625 -7.17187,-1.898438 -13.85156,-1.898438 -11.60156,0 -17.92969,4.5 -6.25781,4.5 -6.25781,12.796877 0,6.96094 4.14844,10.54687 4.21875,3.51563 15.89062,5.69532 l 8.57813,1.75781 q 15.89062,3.02344 23.41406,10.6875 7.593748,7.59375 7.593748,20.39062 0,15.25782 -10.265628,23.13282 -10.19531,7.875 -29.95312,7.875 -7.45313,0 -15.89063,-1.6875 -8.36718,-1.6875 -17.36718,-4.99219 v -14.625 q 8.64843,4.85156 16.94531,7.3125 8.29687,2.46094 16.3125,2.46094 12.16406,0 18.77344,-4.78125 6.60937,-4.78125 6.60937,-13.64063 0,-7.73437 -4.78125,-12.09375 -4.71094,-4.35937 -15.53906,-6.53906 l -8.64844,-1.6875 q -15.89062,-3.16406 -22.99219,-9.91406 -7.10156,-6.75 -7.10156,-18.77344 0,-13.921877 9.77344,-21.937502 9.84375,-8.015625 27.07031,-8.015625 7.38281,0 15.04688,1.335938 7.66406,1.335937 15.67968,4.007812 z"/></g><g id="text9155" fill="#4962ae" stroke-width="1" transform="scale(1.09124 .9164)"><path id="path138" d="m 162.10993,22.529134 v 19.608233 q -11.44643,-5.47438 -21.59891,-8.161802 -10.15249,-2.687423 -19.60823,-2.687423 -16.42314,0 -25.381219,6.370187 -8.858542,6.370188 -8.858542,18.11522 0,9.853884 5.872516,14.930127 5.972051,4.976709 22.494725,8.062268 l 12.14317,2.488354 q 22.49472,4.27997 33.14488,15.129195 10.74969,10.749687 10.74969,28.864907 0,21.59892 -14.53199,32.74675 -14.43245,11.14783 -42.40156,11.14783 -10.55062,0 -22.494722,-2.38882 -11.844567,-2.38882 -24.584942,-7.06693 v -20.70311 q 12.242704,6.86786 23.987737,10.35156 11.745037,3.48369 23.091927,3.48369 17.21941,0 26.57563,-6.76832 9.35621,-6.76833 9.35621,-19.30963 0,-10.94876 -6.76832,-17.11988 -6.66879,-6.17112 -21.99706,-9.25668 l -12.2427,-2.38882 Q 86.563495,93.497002 76.510543,83.941721 66.457591,74.38644 66.457591,57.366096 q 0,-19.707767 13.835251,-31.054663 13.934784,-11.346896 38.320658,-11.346896 10.45109,0 21.30031,1.891149 10.84923,1.89115 22.19612,5.673448 z"/></g><g id="text24847" fill="url(#linearGradient13241)" stroke-width="1" transform="scale(1.09124 .9164)"><path id="path141" d="m 162.10993,22.529134 v 19.608233 q -11.44643,-5.47438 -21.59891,-8.161802 -10.15249,-2.687423 -19.60823,-2.687423 -16.42314,0 -25.381219,6.370187 -8.858542,6.370188 -8.858542,18.11522 0,9.853884 5.872516,14.930127 5.972051,4.976709 22.494725,8.062268 l 12.14317,2.488354 q 22.49472,4.27997 33.14488,15.129195 10.74969,10.749687 10.74969,28.864907 0,21.59892 -14.53199,32.74675 -14.43245,11.14783 -42.40156,11.14783 -10.55062,0 -22.494722,-2.38882 -11.844567,-2.38882 -24.584942,-7.06693 v -20.70311 q 12.242704,6.86786 23.987737,10.35156 11.745037,3.48369 23.091927,3.48369 17.21941,0 26.57563,-6.76832 9.35621,-6.76833 9.35621,-19.30963 0,-10.94876 -6.76832,-17.11988 -6.66879,-6.17112 -21.99706,-9.25668 l -12.2427,-2.38882 Q 86.563495,93.497002 76.510543,83.941721 66.457591,74.38644 66.457591,57.366096 q 0,-19.707767 13.835251,-31.054663 13.934784,-11.346896 38.320658,-11.346896 10.45109,0 21.30031,1.891149 10.84923,1.89115 22.19612,5.673448 z"/></g><g id="text6114" fill="url(#pattern13210)" stroke-width="1" transform="scale(1.09124 .9164)"><path id="path144" d="m 162.10993,22.529134 v 19.608233 q -11.44643,-5.47438 -21.59891,-8.161802 -10.15249,-2.687423 -19.60823,-2.687423 -16.42314,0 -25.381219,6.370187 -8.858542,6.370188 -8.858542,18.11522 0,9.853884 5.872516,14.930127 5.972051,4.976709 22.494725,8.062268 l 12.14317,2.488354 q 22.49472,4.27997 33.14488,15.129195 10.74969,10.749687 10.74969,28.864907 0,21.59892 -14.53199,32.74675 -14.43245,11.14783 -42.40156,11.14783 -10.55062,0 -22.494722,-2.38882 -11.844567,-2.38882 -24.584942,-7.06693 v -20.70311 q 12.242704,6.86786 23.987737,10.35156 11.745037,3.48369 23.091927,3.48369 17.21941,0 26.57563,-6.76832 9.35621,-6.76833 9.35621,-19.30963 0,-10.94876 -6.76832,-17.11988 -6.66879,-6.17112 -21.99706,-9.25668 l -12.2427,-2.38882 Q 86.563495,93.497002 76.510543,83.941721 66.457591,74.38644 66.457591,57.366096 q 0,-19.707767 13.835251,-31.054663 13.934784,-11.346896 38.320658,-11.346896 10.45109,0 21.30031,1.891149 10.84923,1.89115 22.19612,5.673448 z"/></g></g><path id="path8114" fill="url(#linearGradient13206)" fill-opacity="1" fill-rule="evenodd" stroke="none" stroke-linecap="butt" stroke-linejoin="miter" stroke-opacity="1" stroke-width="1" d="M 129.01431,14.890708 C 59.410838,16.077242 11.374254,61.182069 11.017594,107.72797 84.642076,128.44672 167.70319,129.70663 243.16031,104.26388 236.69233,52.476094 182.75068,13.974659 129.01431,14.890708 Z"/><g id="g13227" fill="none" fill-opacity=".75" fill-rule="evenodd" stroke-dasharray="none" stroke-linecap="butt" stroke-linejoin="miter" stroke-miterlimit="4" stroke-opacity="1" transform="translate(-242.876 14.876)"><path id="path26797" stroke="#fff" stroke-width="6" d="m 91.468907,126.96891 0.478103,21.56218 h 74.58408 v 0" filter="url(#filter27770)" transform="matrix(2 0 0 2 115.938 -131.938)"/><path id="path26799" stroke="#000" stroke-width="5.876" d="m 297.87572,122.5 0.95621,43.12434 h 149.16808 v 0"/></g></g></g></svg>