<svg xmlns="http://www.w3.org/2000/svg" role="img" viewBox="18.01 14.51 363.74 152.99"><title>Solid Sands (member) logo</title><g fill-rule="evenodd"><path fill="#84c4e4" d="M119.126 21.678c-.243.16-.243.2 0 .359.165.109.187.181.056.182-.119.002-.272-.086-.339-.195-.088-.142-.178-.142-.321 0-.109.109-.776.199-1.482.201-1.385.003-1.871.171-1.645.569.113.198.092.203-.1.025-.15-.139-.317-.161-.442-.057-.111.092-.649.192-1.197.223-.818.047-.992.114-.971.376.021.267-.14.321-1.002.332-1.341.019-1.652.085-1.908.41-.181.23-.545.33-1.889.517-.121.017-.177.101-.124.186.053.085.166.111.253.057.086-.053.202-.024.257.065.055.09-.258.17-.695.179-1.102.022-1.274.075-1.424.439-.074.182-.323.319-.577.319-.634 0-1.022.18-1.022.475 0 .175-.228.254-.729.254-.401 0-.728.082-.728.182 0 .1-.103.162-.228.137-.125-.025-.207.056-.182.182.028.141-.161.227-.501.227-.425 0-.547.081-.547.365 0 .296-.121.364-.654.364-.502 0-.677.085-.75.364-.053.202-.249.365-.438.365-.532 0-.601.018-.842.218-.124.103-.181.26-.126.349.055.089-.056.161-.245.161-.19 0-.406.062-.481.137-.076.075-.233.14-.35.145-.116.004-.192.107-.166.227.025.121-.118.22-.318.22-.199 0-.465.164-.59.364-.125.2-.372.364-.548.364-.199 0-.32.138-.32.365 0 .265-.122.364-.449.364-.246 0-.62.184-.83.41-.21.225-.479.41-.599.41-.119 0-.218.082-.22.182-.003.234-.874 1.097-1.254 1.243-.16.061-.291.237-.291.39 0 .158-.159.279-.365.279-.235 0-.364.122-.364.343 0 .19-.163.386-.364.439-.201.052-.365.216-.365.364s-.164.312-.364.364c-.2.053-.364.226-.364.386 0 .169-.153.29-.365.29-.242 0-.364.122-.364.364 0 .206-.121.365-.279.365-.153 0-.329.131-.391.291-.145.38-1.008 1.251-1.242 1.254-.101.002-.183.101-.183.22 0 .12-.184.389-.409.599-.226.21-.41.584-.41.83 0 .322-.1.449-.352.449-.226 0-.372.146-.41.41-.032.225-.181.409-.331.409-.273 0-.299.068-.342.899-.014.27-.164.488-.387.559-.203.064-.364.275-.364.478 0 .2-.073.318-.162.263-.088-.055-.245.002-.348.126-.201.241-.219.31-.219.842 0 .19-.162.385-.364.438-.279.073-.364.249-.364.75 0 .533-.068.655-.364.655-.304 0-.365.121-.365.728s-.061.729-.364.729c-.302 0-.364.121-.364.707 0 .554-.079.728-.365.803-.246.064-.364.248-.364.567 0 .281-.092.454-.228.427-.125-.025-.207.057-.182.182.025.126-.036.228-.136.228-.101 0-.183.246-.183.547 0 .34-.086.529-.227.5-.125-.025-.207.057-.182.183.025.125-.037.227-.137.227s-.182.246-.182.547c0 .34-.086.529-.228.501-.125-.025-.207.057-.182.182.025.125-.036.228-.137.228-.1 0-.182.327-.182.728 0 .607-.06.729-.364.729-.344 0-.478.427-.381 1.215.014.118-.072.275-.192.349-.148.092-.181.039-.104-.162.063-.164.016-.354-.105-.424-.121-.069-.161-.061-.09.018.072.08.043.308-.063.507-.107.199-.194.639-.194.977 0 .338-.076.569-.167.512-.092-.057-.124-.174-.07-.26.053-.086-.007-.217-.134-.29-.127-.073-.17-.066-.095.016.074.082.051.25-.051.373-.102.122-.196.519-.21.882-.013.362-.098.658-.188.658s-.116-.076-.059-.169c.058-.094.036-.213-.05-.265-.085-.053-.164.003-.176.124-.063.643-.335 1.42-.494 1.412-.101-.005-.19.053-.198.128-.039.334-.344.892-.651 1.191-.185.179-.335.515-.335.746 0 .231-.164.568-.365.75-.2.181-.364.503-.364.716 0 .213-.164.527-.364.698-.201.172-.365.5-.365.729 0 .229-.163.557-.364.729-.2.171-.364.499-.364.728 0 .23-.164.536-.364.68-.201.145-.365.472-.365.729s-.163.583-.364.728c-.205.148-.364.472-.364.741 0 .263-.164.626-.365.807-.205.186-.364.561-.364.859 0 .291-.073.484-.161.429-.151-.093-.713.423-.613.562.127.176.023.981-.116.895-.089-.054-.246.002-.349.126-.207.25-.218.298-.218.965 0 .257-.073.422-.162.367-.088-.055-.245.001-.348.126-.208.25-.219.297-.219.965 0 .256-.076.419-.169.361-.213-.131-.44.22-.52.802-.034.246-.215.554-.403.686-.188.132-.368.505-.399.829-.035.364-.157.589-.318.589-.163 0-.289.238-.334.631-.04.351-.227.739-.421.876-.199.138-.35.458-.35.737 0 .295-.146.583-.364.72-.23.143-.365.424-.365.76 0 .372-.109.567-.364.648-.283.09-.364.276-.364.832 0 .394-.062.707-.137.695-.416-.066-.592.067-.592.446 0 .524 2.457.564 3.734.061.401-.158 1.139-.365 1.639-.459.863-.162 2.579-.55 4.19-.947.401-.099 1.22-.266 1.821-.372.602-.106 1.632-.311 2.291-.456.659-.145 1.865-.34 2.681-.433.815-.093 1.793-.251 2.172-.35.379-.1 1.642-.268 2.807-.374 1.165-.105 2.539-.272 3.054-.37.515-.097 2.39-.262 4.166-.365 6.855-.399 6.601-.34 6.594-1.514-.003-.521-.123-1.808-.267-2.86-.362-2.644-.358-9.46.008-12.295.522-4.053 1.081-6.906 1.505-7.684.119-.219.217-.524.217-.679 0-.306 1.633-3.733 2.143-4.497.856-1.283 1.122-1.609 2.137-2.623 1.678-1.677 3.151-2.604 6.012-3.784 1.502-.619 4.475-1.47 6.284-1.798.551-.1 1.541-.301 2.199-.446.659-.146 2.135-.347 3.279-.446 1.144-.1 2.614-.283 3.265-.406 1.671-.316 23.091-.317 24.772-.001.651.122 2.086.305 3.188.407 1.939.179 3.444.442 5.92 1.033.651.156 1.634.389 2.185.518 3.496.819 6.986 2.7 9.137 4.924.954.988 1.327 1.472 2.105 2.736.734 1.193 1.607 3.268 2.296 5.46 1.07 3.404 1.669 13.153.868 14.142l-.348.43-8.618.05c-10.546.063-9.983.218-10.001-2.764-.005-.712-.087-1.662-.183-2.113-.096-.451-.264-1.312-.374-1.913-.486-2.674-2.499-6.102-3.583-6.102-.133 0-.489-.128-.791-.284-.301-.156-1.219-.409-2.04-.563-.82-.154-1.901-.364-2.402-.467-1.322-.271-16.227-.252-17.851.023-.701.119-1.971.323-2.823.453-6.732 1.031-8.934 4.001-8.919 12.031.012 6.368 1.113 9.43 3.819 10.626.872.385 4.118.868 7.741 1.151 1.202.094 2.842.286 3.643.427.802.142 2.154.311 3.006.376.851.065 1.95.194 2.44.286.491.092 2.858.254 5.261.359 2.403.105 4.771.267 5.263.361.493.093 2.019.257 3.392.364 1.373.108 2.807.277 3.187.377.379.1 1.404.26 2.277.357.872.096 1.791.256 2.041.355.251.099 1.07.298 1.822.441 1.699.325 3.531.841 5.191 1.464.701.263 1.521.567 1.821.677.301.11.676.311.835.447.158.136.358.247.445.247.168 0 1.481.858 1.859 1.214.309.291 2.476.922 3.688 1.074.549.069 1.318.239 1.708.376.39.138.916.251 1.169.251.252 0 1.164.158 2.026.351 2.299.515 4.625.942 6.505 1.194.912.122 1.742.274 1.844.337.102.063.995.203 1.984.31.99.107 2.086.274 2.437.37.35.096 1.416.254 2.368.352.951.098 2.427.296 3.278.442.852.145 2.45.349 3.552.453 1.102.105 2.7.272 3.552.371.852.1 2.737.268 4.189.373 1.453.106 3.42.283 4.372.395 3.058.358 26.319.296 29.417-.079 1.403-.169 3.7-.387 5.106-.484 1.406-.097 2.922-.257 3.37-.356.448-.099 1.756-.268 2.909-.374 1.152-.107 2.381-.271 2.732-.365.35-.094 1.394-.259 2.319-.368.925-.108 1.868-.267 2.095-.353.227-.086.945-.213 1.597-.282.651-.069 1.593-.239 2.094-.377.501-.137 1.362-.305 1.913-.371.551-.067 1.611-.277 2.357-.466.745-.19 1.53-.345 1.745-.345.926 0 2.848-.759 2.701-1.068-.078-.164-.144-.701-.148-1.193-.008-1.118-.192-1.182-1.204-.417-4.502 3.4-14.407 2.96-18.175-.809-1.045-1.044-2.116-3.058-2.388-4.49-.089-.471-.255-1.101-.369-1.4-.899-2.36-1.015-13.999-.175-17.399 1.132-4.575 3.117-7.243 6.093-8.193.401-.128.817-.302.924-.387.108-.085 1.086-.279 2.172-.432 4.742-.665 8.952-.05 11.431 1.672.476.33.944.601 1.04.601.107 0 .194-2.965.227-7.723.05-7.297.072-7.743.4-8.105.468-.517 8.605-.604 9.112-.097.257.257.286 2.62.286 23.294 0 22.523.007 23.009.349 23.099.323.084.944-.057 4.205-.954 2.236-.614 4.177-1.111 6.739-1.724.551-.132 1.412-.363 1.913-.514 1.264-.379 1.984-.559 7.195-1.791.851-.202 2.081-.478 2.732-.613.651-.136 1.717-.371 2.368-.522 1.799-.418 3.05-.658 4.554-.871.751-.107 1.899-.311 2.55-.453.651-.142 2.081-.344 3.177-.447 1.097-.104 2.326-.267 2.733-.363.406-.096 3.033-.267 5.838-.38 4.729-.191 5.131-.233 5.51-.579.561-.511.591-2.016.046-2.356-.247-.154-.364-.425-.364-.838 0-.458-.092-.635-.365-.706-.276-.072-.364-.249-.364-.729s-.088-.656-.364-.728c-.226-.059-.373-.261-.387-.53-.043-.819-.069-.889-.329-.889-.143 0-.32-.226-.394-.501-.073-.276-.09-.501-.036-.501s-.004-.122-.128-.271c-.123-.149-.297-.227-.386-.172-.089.055-.162-.191-.162-.547 0-.449-.111-.716-.364-.874-.218-.136-.364-.425-.364-.72 0-.28-.152-.598-.353-.739-.195-.136-.381-.448-.415-.694-.08-.582-.307-.934-.52-.802-.093.057-.18-.105-.192-.362-.041-.829-.256-1.269-.536-1.095-.094.057-.18-.105-.193-.362-.04-.83-.255-1.269-.536-1.096-.093.058-.18-.105-.192-.361-.041-.83-.256-1.269-.537-1.096-.093.058-.169-.147-.169-.454 0-.334-.147-.685-.365-.871-.2-.172-.364-.486-.364-.699 0-.212-.164-.535-.364-.716-.2-.181-.364-.545-.364-.808 0-.269-.16-.592-.365-.74-.2-.145-.364-.437-.364-.65 0-.212-.164-.535-.364-.716-.201-.182-.365-.476-.365-.655 0-.179-.083-.377-.185-.44s-.13-.203-.063-.312c.074-.119.038-.145-.091-.066-.117.072-.166.208-.108.301.057.094.014.17-.096.17-.111 0-.188-.103-.172-.228.098-.752-.055-1.451-.378-1.727-.2-.171-.364-.486-.364-.699 0-.212-.164-.535-.364-.716-.2-.181-.364-.476-.364-.655 0-.179-.084-.377-.186-.44-.101-.063-.13-.203-.062-.312.073-.119.037-.145-.092-.066-.117.073-.169.203-.116.289.054.087.022.204-.07.26-.091.057-.167-.178-.167-.521 0-.344-.068-.733-.152-.865-.083-.132-.153-.301-.154-.377-.002-.075-.085-.132-.185-.127-.16.008-.432-.769-.495-1.413-.012-.121-.091-.176-.176-.124-.085.053-.108.172-.05.265.057.094.03.17-.061.17-.09 0-.172-.241-.18-.535-.008-.294-.1-.693-.203-.887-.104-.193-.13-.417-.058-.496.071-.079.026-.084-.101-.011-.127.073-.183.209-.126.302.058.093.015.17-.096.17-.11 0-.187-.103-.171-.228.103-.793-.032-1.229-.378-1.229-.297 0-.364-.122-.364-.655 0-.501-.086-.677-.365-.75-.227-.059-.364-.248-.364-.503 0-.224-.205-.628-.455-.899-.251-.27-.456-.569-.456-.664 0-.095-.123-.172-.273-.172-.152 0-.273-.162-.273-.365 0-.243-.122-.364-.364-.364-.236 0-.373-.129-.388-.364-.045-.734-.273-1.157-.536-.994-.093.057-.169-.072-.169-.288 0-.239-.143-.429-.365-.487-.201-.053-.364-.249-.364-.438 0-.222-.129-.343-.364-.343-.243 0-.365-.122-.365-.365s-.121-.364-.364-.364c-.263 0-.364-.121-.364-.435 0-.451-1.788-2.479-2.185-2.479-.112 0-.157-.077-.1-.17.107-.173-.211-.454-.539-.473-.1-.007-.164-.102-.142-.213.022-.112-.081-.302-.228-.424-.147-.122-.267-.16-.267-.084s-.17-.078-.378-.342c-.207-.264-.494-.48-.637-.48-.143 0-.24-.103-.215-.228.026-.125-.056-.207-.182-.182-.125.025-.227-.036-.227-.137 0-.1-.164-.182-.365-.182-.243 0-.364-.121-.364-.364s-.121-.364-.364-.364-.365-.122-.365-.365-.121-.364-.364-.364c-.205 0-.364-.121-.364-.278 0-.152-.188-.349-.417-.436-.23-.087-.527-.29-.66-.451-.134-.161-.438-.292-.676-.292-.312 0-.433-.102-.433-.365 0-.269-.121-.364-.466-.364-.256 0-.421-.072-.366-.161.093-.151-.423-.713-.562-.613-.228.165-.792-.002-.792-.233 0-.154-.143-.331-.319-.394-.175-.063-.465-.265-.644-.449-.179-.185-.508-.336-.73-.336-.223 0-.507-.164-.632-.364-.138-.221-.425-.364-.729-.364s-.591-.144-.729-.364c-.158-.254-.424-.365-.874-.365-.356 0-.599-.076-.542-.169.132-.214-.22-.44-.809-.521-.249-.034-.601-.221-.782-.415-.23-.247-.572-.352-1.146-.352-.683 0-.844-.068-.97-.41-.084-.225-.204-.389-.268-.364-.318.125-1.945.024-1.859-.116.093-.151-.422-.713-.561-.613-.235.169-1.878.014-1.839-.174.025-.12-.05-.223-.167-.227-.117-.005-.274-.07-.349-.145-.075-.075-.814-.137-1.642-.137-1.279 0-1.517-.047-1.587-.319-.077-.294-.085-.293-.105.011-.011.181-.099.281-.195.222-.096-.059-.128-.228-.072-.374.125-.326-161.917-.41-162.413-.084m111.007 21.96c.437.437.437 47.806 0 48.243-.441.441-8.728.427-9.217-.015-.492-.446-.523-47.638-.032-48.181.427-.472 8.782-.514 9.249-.047m15.66.059c.414.457.37 7.228-.05 7.733-.22.264-.78.3-4.609.3h-4.358l-.279-.666c-.452-1.081-.294-7.097.195-7.454.615-.449 8.686-.372 9.101.087m-41.367 13.588c1.483.149 2.836.342 3.006.429.17.086.699.252 1.175.368 4.167 1.017 6.137 3.885 7.085 10.315.303 2.055.102 12.072-.276 13.752-.169.752-.381 1.694-.472 2.095-1.01 4.482-3.711 6.955-8.569 7.845-9.916 1.817-19.171-.219-21.387-4.706-1.707-3.456-2.676-12.114-1.931-17.257.094-.653.253-1.901.352-2.775.735-6.472 3.777-9.289 10.853-10.052 3.049-.328 6.987-.334 10.164-.014m41.293.456c.55.55.577 33.632.028 34.128-.299.271-.832.3-4.685.256l-4.348-.048-.233-.456c-.443-.869-.239-33.656.211-33.985.634-.463 8.552-.371 9.027.105m-48.178 7.394c-2.297.562-2.795.736-3.212 1.118-1.737 1.596-2.181 13.18-.623 16.261 1.208 2.387 9.236 2.772 11.1.532 1.704-2.047 1.598-15.091-.135-16.719-.908-.853-5.429-1.608-7.13-1.192m67.486.007c-3.296.633-3.861 1.457-4.208 6.131-.418 5.637.15 10.647 1.353 11.939 1.621 1.742 8.142 1.721 9.737-.03 1.877-2.062 1.79-14.677-.117-16.746-.85-.924-4.78-1.675-6.765-1.294"/><path fill="#fafafa" d="M118.295 21.943c-.194.147-.256.27-.136.273.119.004.268-.077.331-.179s.191-.138.284-.08c.093.057.17.018.17-.088 0-.268-.232-.241-.649.074m163.672 0c0 .158.158.279.365.279.2 0 .364-.038.364-.084 0-.047-.164-.173-.364-.28-.291-.156-.365-.139-.365.085m-167.315.729c-.194.147-.256.27-.136.273.119.003.268-.077.331-.179s.191-.138.284-.081c.093.058.17.018.17-.088 0-.267-.232-.241-.649.075m-2.448.734c-.186.224-.173.273.069.273.162 0 .295-.123.295-.273 0-.15-.031-.273-.068-.273-.038 0-.171.123-.296.273m-10.929 4.372c-.186.224-.173.273.069.273.162 0 .295-.123.295-.273 0-.15-.031-.273-.068-.273-.038 0-.171.123-.296.273m200 2.186c0 .15.133.273.296.273.242 0 .254-.05.068-.273-.124-.151-.257-.274-.295-.274-.038 0-.069.123-.069.274m3.643 2.914c0 .15.133.273.296.273.242 0 .254-.049.068-.273-.124-.15-.257-.273-.295-.273-.038 0-.069.123-.069.273m5.829 5.829c0 .15.133.273.295.273.242 0 .255-.049.069-.273-.125-.151-.258-.273-.295-.273-.038 0-.069.122-.069.273m2.914 3.643c0 .15.133.273.296.273.242 0 .254-.05.069-.273-.125-.151-.258-.273-.296-.273-.038 0-.069.122-.069.273m-229.223.807c-.306.337-.303.347.063.252.209-.055.381-.213.381-.352 0-.333-.066-.319-.444.1m44.888.211c-4.785.329-9.126.702-9.281.798-.092.057-1.012.225-2.046.374-2.232.322-4.64.836-5.847 1.247-.479.163-.971.3-1.093.303-.122.003-.549.165-.95.358-.4.194-.802.355-.892.358-2.397.091-7.327 4.726-8.916 8.385-.283.651-.631 1.443-.772 1.758-.142.316-.258.664-.258.774 0 .109-.154.671-.342 1.247-1.371 4.192-1.925 17.094-.93 21.627.326 1.483.104 1.623-2.827 1.779-1.402.074-3.41.22-4.462.325-1.052.104-3.143.305-4.647.446-1.504.141-3.102.337-3.552.435-.449.098-1.391.233-2.092.3-.701.067-1.726.231-2.277.364-.551.132-1.453.295-2.004.361-.551.066-1.288.201-1.639.299-.351.098-1.252.288-2.004.423-1.292.231-3.018.612-4.644 1.025-.401.102-1.057.267-1.458.368-.4.101-1.153.317-1.672.48-.77.242-1.106.26-1.821.096-1.024-.234-1.334-.076-1.334.681 0 .35-.11.532-.364.598-.238.063-.364.249-.364.54 0 .244-.168.596-.372.781-.205.185-.348.505-.318.711.03.206-.068.474-.219.597-.226.182-.124.222.57.227.769.005 1.753-.222 5.53-1.278 1.239-.346 2.087-.555 4.736-1.166.701-.162 1.603-.375 2.004-.474.4-.099 1.466-.3 2.368-.446.901-.146 1.901-.342 2.221-.436.32-.094 1.14-.226 1.822-.293.681-.068 1.731-.232 2.332-.364.601-.132 1.748-.293 2.55-.358.801-.065 2.236-.233 3.188-.373 1.499-.222 7.119-.592 10.34-.681 1.283-.036 1.369.015 1.865 1.095 1.87 4.072 3.61 6.44 5.31 7.23.335.155 1.058.528 1.607.829.549.3 1.081.547 1.184.547.102.001.431.133.732.294.3.161.956.398 1.457.527.501.128 1.157.32 1.457.426.798.281 2.889.763 4.51 1.041.777.133 1.481.284 1.564.335.084.052.923.184 1.866.294.943.11 2.37.313 3.171.45.802.138 2.236.3 3.188.362.952.061 2.837.226 4.189.367 1.353.141 3.853.307 5.556.369 1.703.062 3.875.191 4.827.286.952.096 3.124.254 4.827.352 9.232.528 12.622 2.524 13.412 7.897.769 5.223.122 11.779-1.46 14.81-1.862 3.566-6.58 4.78-18.601 4.787-4.89.002-11.905-.289-13.033-.542-.444-.099-1.385-.263-2.09-.363-2.856-.405-5.947-2.04-5.998-3.172-.005-.092-.12-.297-.258-.456-.823-.947-1.686-5.307-1.86-9.395-.074-1.721-.193-2.781-.324-2.866-.334-.215-16.843-.168-17.25.05-.395.211-.502 4.78-.178 7.643.487 4.309.608 5.158.951 6.649 1.178 5.127 4.179 10.393 6.525 11.449.15.068.642.366 1.093.663.451.297 1.024.624 1.275.726.25.102.611.276.8.386.425.246 2.075.826 3.298 1.159.501.136 1.198.333 1.548.437 1.019.303 4.009.905 5.101 1.026.551.062 1.78.229 2.732.372 6.363.958 25.21.952 31.876-.01 1.052-.151 2.609-.35 3.461-.442.851-.091 1.758-.246 2.015-.344.257-.098.954-.238 1.549-.311.594-.073 1.286-.214 1.536-.313.25-.1.906-.288 1.457-.419 4.982-1.181 8.522-3.724 10.703-7.687 1.41-2.561 2.723-7.144 3.143-10.973.116-1.052.282-2.486.369-3.187.088-.702.163-3.325.168-5.829.013-6.149-.429-9.658-1.738-13.774-.844-2.658-.362-2.92 3.475-1.89.501.134 1.403.298 2.004.363s1.503.229 2.004.364c.501.136 1.402.299 2.003.364.601.065 1.544.228 2.095.362.551.133 1.56.299 2.241.366.682.068 1.502.2 1.822.294.32.094 1.402.254 2.403.356 1.002.102 2.478.301 3.279.441.802.141 2.154.31 3.006.376.851.065 1.958.196 2.459.289.5.093 2.345.287 4.098.431 1.753.144 3.966.345 4.918.446 7.563.802 27.173.757 34.426-.08 1.252-.145 2.974-.313 3.825-.375.852-.061 2.245-.223 3.097-.359.851-.136 2.122-.297 2.823-.359.701-.061 1.849-.226 2.55-.366.702-.141 2.032-.343 2.957-.45.925-.106 1.868-.264 2.095-.35.227-.086.946-.213 1.597-.282.651-.069 1.594-.237 2.094-.374.501-.136 1.321-.301 1.822-.366.501-.066 1.28-.231 1.73-.368.451-.137 1.23-.301 1.731-.365.501-.063 1.279-.229 1.73-.368.451-.14 1.271-.328 1.822-.419.551-.092 1.534-.298 2.185-.459 2.982-.739 2.79-.721 3.141-.288.463.572.495 14.18.034 14.641-.37.37-.305.388-1.283-.358-3.928-2.998-12.146-3.116-16.555-.237-3.679 2.402-5.179 9.651-4.17 20.155.799 8.323 2.676 10.872 8.87 12.047 4.689.889 11.279-.321 12.12-2.226.113-.256 1.151-.707 1.403-.61.168.064.266.496.303 1.333l.054 1.239 3.784.049c2.403.031 3.916-.021 4.144-.143.355-.19.359-.488.359-23.567V94.222l-.448-.66c-.547-.807-.573-.787 1.997-1.477 1.002-.27 2.231-.605 2.732-.746 1.353-.38 2.94-.779 4.353-1.094.691-.153 1.388-.35 1.548-.435.161-.086.702-.216 1.203-.289.501-.074 1.197-.244 1.548-.378.351-.135 1.088-.32 1.639-.412.947-.158 2.116-.421 4.657-1.049.608-.15 1.551-.343 2.095-.428.891-.14 2.357-.41 4.997-.92.501-.097 2.017-.301 3.37-.452 1.352-.152 2.91-.363 3.461-.469.551-.107 3.379-.232 6.284-.279 6.156-.101 6.39-.124 6.526-.645.068-.258.195-.347.389-.273.238.092.255.048.095-.249-.106-.198-.271-.36-.368-.36-.097 0-.176-.193-.176-.428s-.164-.575-.364-.756c-.201-.182-.364-.51-.364-.729 0-.219-.164-.547-.365-.729-.352-.319-.364-.318-.364.025 0 .553-1.286.795-4.238.797-1.426 0-3.33.087-4.232.192-.902.105-2.869.306-4.372.448-2.536.239-4.584.526-7.286 1.021-.601.11-1.707.301-2.459.425-.751.124-1.694.317-2.094.429-.401.112-1.385.337-2.186.5-3.36.684-7.582 1.681-10.018 2.365-1.292.363-3.11.822-4.292 1.084-.557.124-1.295.317-1.639.43-.729.238-2.347.662-3.908 1.024-.603.139-1.333.343-1.623.454-.29.11-1.01.266-1.601.347-1.759.241-1.6 2.581-1.6-23.61V43.891l-4.235.049-4.235.049-.091 8.197c-.105 9.39.004 8.916-1.738 7.61-3.549-2.661-10.706-3.038-15.377-.81-.935.446-3.104 2.29-3.104 2.639 0 .087-.147.376-.326.642-2.808 4.163-2.749 19.982.095 25.447 2.551 4.903 14.841 6.05 19.223 1.794 1.012-.983 1.306-.814 1.371.788l.053 1.312.676.113c.997.168 1.312.272 1.312.433 0 .332-3.673 1.299-7.373 1.94-.799.139-1.578.304-1.73.367-.153.062-.933.218-1.734.346-.802.127-2.195.366-3.097.53-3.602.657-4.807.848-6.444 1.026-.939.102-2.046.259-2.459.349-.413.091-1.53.219-2.481.284-.952.066-2.55.234-3.552.373-1.002.139-3.491.339-5.53.445-2.04.107-4.909.271-6.376.366-3.436.223-11.343.221-14.961-.004-1.553-.097-4.545-.262-6.649-.367-2.104-.105-4.726-.304-5.829-.444-1.102-.139-2.782-.303-3.734-.364-.951-.06-2.427-.223-3.278-.362-.852-.139-2.245-.306-3.097-.372-.851-.067-2.081-.228-2.732-.359-.651-.132-1.799-.294-2.55-.362-.751-.067-1.817-.232-2.368-.366-.551-.134-1.535-.298-2.186-.364s-1.635-.229-2.186-.364c-.551-.134-1.452-.295-2.003-.358-.551-.063-1.535-.233-2.186-.378s-1.881-.395-2.732-.556c-.852-.16-2.122-.401-2.824-.533-3.985-.754-4.542-.926-5.929-1.833-1.439-.941-2.876-1.72-3.178-1.723-.1-.001-.414-.123-.698-.271-.284-.148-.858-.356-1.275-.461-.418-.106-1.046-.305-1.397-.442-.827-.324-2.821-.804-4.591-1.105-.771-.132-1.477-.285-1.568-.341-.092-.057-1.254-.23-2.584-.385-1.33-.156-2.481-.322-2.559-.37-.078-.048-1.89-.213-4.028-.366s-4.01-.316-4.16-.361c-.15-.046-2.018-.166-4.15-.268-2.132-.102-4.247-.268-4.7-.369-.453-.102-1.659-.267-2.681-.367-1.021-.101-2.595-.298-3.496-.44-.902-.141-2.582-.31-3.734-.375-6.256-.355-8.387-2.343-8.927-8.333-.878-9.74 1.175-14.424 6.923-15.797 3.659-.873 5.856-1.082 12.842-1.22 5.398-.107 11.353.239 12.793.742.377.131.977.293 1.333.358 3.191.588 5.332 4.091 5.82 9.521.221 2.457.344 3.192.584 3.482.245.296 16.91.334 17.46.04.991-.531.044-11.316-1.327-15.112-1.801-4.985-4.364-7.84-8.886-9.899-1.513-.689-2.141-.895-4.553-1.491-.651-.161-1.583-.41-2.07-.553-.488-.144-1.103-.265-1.367-.269-.264-.004-1.094-.125-1.846-.268-1.343-.257-5.635-.66-10.655-1.001-2.967-.201-11.082-.191-14.117.018m92.03.679c-.181.116-.219 5.001-.182 23.815l.046 23.668h8.561V43.989l-4.098-.045c-2.254-.024-4.201.022-4.327.103m15.555.534c-.252 1.528-.132 6.015.169 6.317.483.483 8.007.423 8.269-.066.2-.375.262-5.821.074-6.524-.11-.41-.111-.41-4.255-.41h-4.144l-.113.683m-154.579 2.14c-.186.224-.174.274.068.274.163 0 .296-.123.296-.274 0-.15-.031-.273-.069-.273-.038 0-.171.123-.295.273m234.244 0c0 .151.133.274.295.274.242 0 .255-.05.069-.274-.125-.15-.258-.273-.296-.273-.037 0-.068.123-.068.273M81.603 48.179c-.186.223-.173.273.069.273.162 0 .295-.123.295-.273 0-.151-.031-.274-.069-.274-.037 0-.17.123-.295.274m-3.643 7.285c-.186.224-.173.274.069.274.162 0 .295-.123.295-.274 0-.15-.031-.273-.069-.273-.037 0-.17.123-.295.273m117.122 2.26c-.952.074-2.017.225-2.368.334-.351.11-.965.253-1.366.319-6.177 1.014-8.282 6.358-7.712 19.583.434 10.079 2.897 13.081 11.355 13.84 10.171.913 16.446-.716 18.362-4.767 2.759-5.832 2.785-19.858.046-24.759-.468-.838-1.757-2.347-2.004-2.347-.075 0-.354-.147-.62-.326-2.317-1.562-9.206-2.387-15.693-1.877m41.89.667c-.196.514-.253 31.383-.061 32.547l.113.683h4.144c4.144 0 4.145 0 4.255-.41.201-.75.129-32.555-.074-32.935-.178-.332-.421-.353-4.194-.353h-4.006l-.177.468m-33.146 6.775c2.35 1.104 2.877 3.257 2.659 10.881-.22 7.728-1.226 9.017-7.031 9.016-6.16-.001-7.164-1.467-7.175-10.473-.009-7.341.656-8.979 3.987-9.811 1.123-.28 6.753.008 7.56.387m67.121.078c1.462.764 2.167 1.734 2.445 3.364.1.585.266 1.556.37 2.157.494 2.863-.064 10.288-.896 11.919-1.582 3.1-9.807 3.315-11.572.302-1.162-1.982-1.63-10.105-.811-14.059.75-3.619 1.806-4.278 6.73-4.202 2.645.041 2.881.074 3.734.519M58.288 94.08c-.186.224-.173.273.069.273.162 0 .295-.123.295-.273 0-.15-.031-.273-.069-.273-.038 0-.17.123-.295.273m283.06.729c0 .15.133.273.295.273.242 0 .255-.049.069-.273-.125-.151-.257-.273-.295-.273-.038 0-.069.122-.069.273m1.457 2.914c0 .15.133.273.296.273.242 0 .254-.049.068-.273-.124-.15-.257-.273-.295-.273-.038 0-.069.123-.069.273m-286.703.729c-.186.224-.173.273.069.273.162 0 .295-.123.295-.273 0-.151-.031-.273-.068-.273-.038 0-.171.122-.296.273m287.432.707c0 .139.171.297.381.352.365.095.368.085.063-.252-.379-.419-.444-.433-.444-.1m-150.365 8.507c-5.488.955-7.601 3.343-7.789 8.803l-.043 1.26.622.165c.672.178 7.928.121 8.112-.064.061-.062.186-.573.278-1.136.395-2.429 1.73-3.124 6.002-3.124 4.945 0 5.759.782 5.971 5.733.137 3.195-.119 3.746-1.404 3.021-5.169-2.915-14.568-2.209-18.229 1.369-3.598 3.517-3.577 11.425.039 15.061 3.681 3.7 13.205 4.167 18.051.886 1.268-.858 1.551-.741 1.633.675l.054.942 4.14.049 4.139.049.107-.426c.362-1.44-.029-25.372-.434-26.63-1.266-3.929-3.227-5.599-7.496-6.383-.752-.138-1.858-.335-2.459-.439-1.91-.33-8.994-.211-11.294.189m44.263-.191c-.301.084-.916.239-1.366.344-1.16.273-2.273.867-3.655 1.951-1.549 1.215-1.845 1.117-1.79-.587.021-.645-.023-1.232-.097-1.307-.329-.329-8.006-.263-8.251.072-.33.451-.343 32.852-.014 33.181.249.249 7.907.316 8.29.073.168-.107.233-2.789.273-11.245l.052-11.105.525-1.053c1.533-3.075 6.498-4.487 10.168-2.891 2.236.972 2.331 1.608 2.331 15.532 0 7.901.054 10.524.219 10.689.319.319 7.787.308 8.225-.013.519-.38.349-24.173-.187-26.204-1.36-5.143-5.219-7.647-11.718-7.605-1.352.009-2.705.085-3.005.168m67.395-.014c-.401.077-1.335.242-2.076.365-5.246.874-7.49 3.746-7.478 9.569.014 6.318 2.602 9.383 8.461 10.018.601.065 1.585.202 2.186.304.601.102 2.865.241 5.03.31 5.4.172 6.248.701 6.135 3.824l-.054 1.523-.838.754c-1.335 1.2-2.527 1.484-6.175 1.472-4.568-.015-6.25-.991-6.172-3.579.056-1.854.224-1.784-4.289-1.784-4.863 0-4.567-.168-4.426 2.514.348 6.591 3.689 8.792 13.794 9.084 2.189.063 4.146.025 5.101-.101 3.877-.508 4.529-.622 5.555-.968 1.19-.402 2.782-1.178 3.139-1.531.123-.123.289-.25.367-.284 1.441-.623 2.96-4.861 2.96-8.259 0-6.369-2.629-9.128-9.198-9.652-.802-.064-2.072-.191-2.823-.282-.752-.091-2.878-.253-4.726-.359-4.27-.244-4.698-.421-5.076-2.094-.446-1.976.067-3.27 1.696-4.282.999-.621 8.181-.71 9.063-.112.546.37 1.228 1.717 1.228 2.426 0 1.149 0 1.149 4.251 1.149 4.476 0 4.31.063 4.31-1.643 0-4.488-2.357-7.149-7.195-8.122-1.774-.357-11.255-.55-12.75-.26m-27.463 7.332c2.866.94 3.237 2.041 3.237 9.615 0 9.111-.817 10.381-6.677 10.383-5.812.002-6.62-1.277-6.62-10.474 0-6.535.139-7.375 1.43-8.626 1.463-1.417 5.702-1.859 8.63-.898m75.641 2.602c0 .151.133.273.296.273.242 0 .254-.049.069-.273-.125-.15-.258-.273-.296-.273-.038 0-.069.123-.069.273m.729 1.457c0 .151.133.274.296.274.242 0 .254-.05.068-.274-.124-.15-.257-.273-.295-.273-.038 0-.069.123-.069.273m-150.748 8.297c4.432 1.558 4.663 6.393.384 8.04-1.537.592-6.724.63-8.261.06-1.851-.686-2.664-2.822-2.14-5.617.47-2.503 6.035-3.883 10.017-2.483m-163.642 4.09c-.185.223-.173.273.069.273.163 0 .296-.123.296-.273 0-.151-.031-.274-.069-.274-.038 0-.171.123-.296.274m-.728 1.457c-.186.224-.174.273.068.273.163 0 .296-.123.296-.273 0-.15-.031-.273-.069-.273-.038 0-.171.123-.295.273m-.729 1.457c-.186.224-.173.273.069.273.162 0 .295-.123.295-.273 0-.15-.031-.273-.068-.273-.038 0-.171.123-.296.273m-3.723 7.364c-.305.338-.302.348.063.252.21-.054.381-.213.381-.351 0-.334-.065-.319-.444.099m-8.663 16.862c-.186.224-.173.273.069.273.162 0 .295-.123.295-.273 0-.15-.031-.273-.069-.273-.037 0-.17.123-.295.273"/><path fill="#d4bc94" d="M335.974 85.011c-.2.049-.442.162-.537.253-.095.09-1.488.168-3.096.173-1.608.005-3.785.081-4.836.169-1.052.088-3.02.252-4.372.364-1.352.113-3.156.325-4.007.473-.852.147-2.227.351-3.056.452-.829.102-1.702.259-1.941.35-.239.091-.954.221-1.589.29-.636.069-1.484.231-1.884.361-.401.129-1.333.325-2.071.436-.738.112-1.475.273-1.639.359-.164.085-.666.209-1.117.275-.451.066-1.476.289-2.277.496-1.519.391-3.353.852-5.829 1.464-.801.198-1.99.508-2.641.687-1.935.535-3.875 1.035-4.554 1.174l-.455.093.047 24.15.047 24.15-.449.448c-.448.448-.451.449-4.294.449-4.597 0-4.902-.091-4.914-1.458-.009-1.027-.228-1.202-.819-.654-2.082 1.929-8.504 3.011-12.569 2.118-3.236-.712-5.61-1.998-6.569-3.558-.939-1.528-1.13-1.92-1.505-3.097-1.086-3.407-1.688-12.107-1.14-16.484.266-2.118.756-4.536 1.025-5.052.145-.277.264-.608.264-.734.005-.997 2.53-4.013 4.017-4.798 4.538-2.395 12.63-2.095 16.182.6.952.722.932.865.932-6.501v-6.831h-.614c-.338 0-1.127.164-1.754.365-.627.2-1.37.364-1.651.364-.281 0-.742.09-1.024.2-.282.111-1.086.308-1.788.439-.701.131-1.849.371-2.55.533-3.092.713-3.724.841-5.076 1.026-.788.107-1.615.264-1.837.349-.223.085-1.21.25-2.194.367-.985.118-1.971.283-2.193.367-.221.084-1.007.206-1.746.271-.739.064-1.958.233-2.71.376-.751.143-2.311.341-3.467.44-1.156.099-2.528.261-3.049.36-.521.099-2.568.267-4.547.373-1.98.106-4.378.286-5.33.4-2.377.283-19.091.277-21.858-.009-1.152-.118-3.652-.294-5.556-.39-1.903-.096-4.444-.297-5.646-.446-1.202-.15-3.006-.354-4.008-.453-2.514-.251-4.787-.538-6.83-.864-.952-.152-2.468-.353-3.37-.447-.902-.094-1.885-.248-2.186-.341-.3-.094-1.243-.254-2.094-.357-.852-.102-2.122-.306-2.824-.452-1.18-.246-1.991-.397-4.645-.861-.551-.097-1.72-.343-2.598-.547-2.077-.483-2.213-.429-1.778.703.545 1.421 1.103 3.391 1.1 3.887-.001.254.12.909.271 1.457.669 2.445.741 16.54.095 18.754-.102.349-.267 1.281-.366 2.071-.176 1.406-.477 2.666-1.027 4.306-.151.451-.339 1.065-.418 1.366-.183.696-1.606 3.702-1.996 4.214-.162.214-.418.583-.569.82-.332.525-2.47 2.645-3.229 3.203-2.075 1.526-6.825 3.183-11.16 3.893-.652.107-1.85.313-2.664.458-.815.145-2.618.342-4.008.437-1.39.096-3.265.276-4.166.4-2.286.313-19.799.317-21.949.005-.852-.124-2.609-.307-3.905-.405-1.296-.099-2.976-.3-3.734-.445-.758-.146-1.869-.35-2.471-.454-3.66-.631-8.594-2.43-10.516-3.834-1.473-1.076-3.682-3.513-4.378-4.831-1.127-2.135-1.631-3.334-1.993-4.736-.103-.401-.299-1.057-.435-1.457-.137-.401-.335-1.355-.44-2.12-.106-.765-.277-1.667-.38-2.004-.252-.823-.547-10.83-.336-11.384l.163-.43h18.232l.162.409c.088.226.296 2.214.461 4.418.679 9.081 1.939 10.428 10.754 11.498 3.184.387 16.692.575 19.066.266 5.371-.699 6.075-.853 8.103-1.771.895-.405 2.793-2.237 2.795-2.698.001-.105.135-.437.297-.738.163-.301.412-1.038.555-1.639.143-.601.346-1.462.453-1.913.446-1.889.255-9.587-.28-11.293-1.13-3.601-3.678-5.323-8.494-5.743-.751-.065-1.716-.194-2.144-.286-.429-.092-2.642-.249-4.918-.348-2.277-.1-4.837-.262-5.688-.36-.852-.098-3.24-.263-5.308-.365-2.067-.102-4.198-.27-4.735-.372-.538-.102-1.99-.269-3.227-.37-1.237-.101-2.754-.302-3.37-.448-.616-.145-1.398-.265-1.738-.267-.839-.003-5.752-1.129-7.67-1.758-.45-.148-1.081-.336-1.4-.419-.939-.242-3.532-1.483-4.078-1.951-.159-.135-.35-.246-.425-.246-.076 0-.51-.305-.966-.679-.697-.571-1.176-1.107-2.567-2.873-.267-.34-1.823-3.641-1.888-4.007-.079-.446-3.974-.603-6.796-.275-.903.105-2.585.272-3.738.37-1.934.166-5.85.67-8.47 1.091-.601.097-1.666.265-2.367.373-.702.109-1.773.32-2.38.469-.608.149-1.551.339-2.095.422-1.218.185-3.152.641-4.724 1.115-.651.196-1.315.355-1.474.354-.16-.002-.767.161-1.349.362-.583.2-1.231.364-1.44.365-.21.001-.628.132-.928.293-.83.442-2.784.566-2.93.186-.243-.633-.804-.347-.804.409 0 .554-.079.728-.365.803-.288.075-.364.248-.364.83 0 .638-.048.726-.364.665-.315-.06-.365.028-.365.648 0 .597-.061.719-.364.719-.302 0-.364.121-.364.716 0 .556-.081.742-.364.832-.281.089-.365.275-.365.815 0 .6-.049.686-.35.607-.277-.072-.363.017-.41.427-.04.349-.149.499-.333.458-.15-.033-.222-.01-.16.052.172.173-.338 1.472-.558 1.42-.106-.025-.179.016-.163.092.015.075-.021.259-.081.409-.06.151-.139.438-.176.638-.037.2-.165.344-.284.319-.119-.025-.204.016-.188.091.016.075-.02.259-.08.41-.061.15-.14.437-.177.637-.037.205-.182.338-.329.304-.145-.034-.202 0-.128.074.075.074.054.233-.045.352-.099.12-.198.431-.219.691-.022.261-.076.438-.121.393-.167-.167-.569.341-.569.718 0 .216-.164.511-.365.656-.2.144-.364.471-.364.728 0 .256-.164.606-.364.778-.201.171-.364.499-.364.729 0 .229-.164.535-.365.679-.239.172-.364.472-.364.871 0 .334-.076.561-.17.503-.212-.131-.44.22-.52.802-.033.246-.22.558-.414.694-.194.136-.353.458-.353.716 0 .259-.157.606-.349.772-.192.166-.376.545-.41.841-.035.314-.168.539-.319.539-.15 0-.285.228-.324.546-.097.794-.199 1.011-.452.958-.228-.048-.268.064-.309.842-.014.264-.161.471-.375.527-.257.067-.368.282-.41.795-.039.478-.145.703-.331.703-.279 0-.302.066-.341.982-.017.382-.111.519-.342.501-.238-.019-.342.15-.41.664-.05.379-.164.679-.253.667-.251-.033-.47.414-.473.966-.001.32-.1.501-.272.501-.251 0-.36.259-.5 1.184-.03.2-.127.337-.214.303-.249-.095-.468.369-.471.997-.002.432-.081.566-.321.547-.241-.02-.333.136-.375.639-.039.477-.155.69-.409.757-.266.069-.355.252-.355.726 0 .473-.089.656-.352.725-.257.067-.368.283-.41.796-.045.552-.126.691-.376.649-.264-.044-.319.087-.319.764 0 .719-.044.809-.364.747-.315-.06-.365.028-.365.648 0 .597-.061.718-.364.718-.309 0-.364.122-.364.803 0 .713-.041.792-.365.707-.32-.083-.364-.005-.364.643 0 .577-.079.762-.364.853-.268.085-.364.275-.364.719 0 .451-.093.628-.365.7-.276.072-.364.248-.364.728 0 .473-.089.657-.352.726-.257.067-.368.282-.41.795-.037.452-.141.686-.29.656-.128-.026-.285.097-.348.273-.064.177-.266.467-.451.647-.184.179-.335.509-.335.733 0 .225-.164.548-.364.72-.2.172-.364.499-.364.729 0 .229-.164.557-.365.728-.2.172-.364.5-.364.729 0 .229-.164.557-.364.728-.201.172-.365.5-.365.729 0 .23-.164.535-.364.68-.239.172-.364.471-.364.87 0 .335-.077.561-.17.504-.279-.173-.494.297-.596 1.304-.022.22-.077.365-.122.32-.194-.194-.569.372-.569.86 0 .294-.077.488-.17.43-.212-.131-.44.22-.52.803-.034.245-.215.553-.403.685-.188.132-.367.505-.399.829-.036.377-.155.59-.33.59-.281 0-.303.064-.341 1.012-.013.307-.099.51-.193.453-.215-.134-.442.225-.514.811-.089.723-.196.912-.459.811-.351-.135-.419 1.426-.075 1.712.192.159 42.982.199 174.824.164l174.57-.045.06-.94c.053-.819.012-.955-.317-1.06-.236-.074-.387-.287-.401-.563-.04-.787-.081-.899-.309-.851-.251.053-.351-.156-.459-.958-.04-.3-.168-.525-.284-.499-.239.053-.342-.173-.438-.958-.037-.303-.175-.547-.311-.547-.135 0-.305-.225-.379-.5-.073-.276-.09-.501-.036-.501s-.004-.122-.127-.272c-.124-.149-.298-.226-.387-.171-.089.055-.162-.141-.162-.435 0-.491-.375-1.054-.572-.858-.045.046-.103-.215-.127-.579-.026-.386-.193-.79-.401-.971-.196-.17-.357-.474-.357-.675 0-.357-.408-.853-.57-.691-.044.044-.098-.133-.12-.393-.021-.261-.12-.572-.219-.691-.099-.12-.12-.279-.045-.353.074-.074.014-.108-.134-.074-.167.038-.294-.103-.335-.37-.035-.237-.222-.472-.414-.522-.259-.068-.349-.254-.349-.725 0-.48-.088-.656-.364-.729-.285-.074-.364-.248-.364-.802 0-.586-.063-.708-.364-.708-.293 0-.365-.121-.365-.616 0-.463-.09-.64-.364-.711-.281-.074-.364-.249-.364-.767 0-.519-.083-.694-.365-.767-.276-.072-.364-.249-.364-.729s-.088-.656-.364-.728c-.231-.061-.365-.249-.365-.515 0-.609-.184-.995-.474-.995-.17 0-.254-.217-.254-.655 0-.501-.085-.677-.364-.75-.277-.072-.365-.248-.365-.728 0-.481-.088-.657-.364-.729-.272-.071-.364-.248-.364-.699 0-.444-.097-.635-.365-.72-.253-.08-.364-.275-.364-.639 0-.312-.143-.624-.353-.772-.194-.136-.381-.448-.415-.693-.08-.583-.307-.934-.52-.803-.144.09-.255-.708-.124-.89.101-.139-.462-.655-.612-.562-.089.055-.162-.174-.162-.508 0-.399-.125-.698-.364-.871-.2-.144-.364-.45-.364-.679 0-.229-.164-.557-.365-.729-.2-.172-.364-.453-.364-.625s-.083-.365-.185-.427c-.102-.063-.137-.193-.078-.289.06-.096.004-.151-.122-.124-.127.028-.261-.114-.298-.314-.037-.201-.116-.487-.176-.638-.06-.15-.097-.334-.081-.41.016-.075-.071-.116-.194-.091-.123.025-.253-.148-.289-.385-.036-.237-.222-.472-.414-.522-.27-.071-.349-.255-.349-.82 0-.639-.045-.717-.364-.633-.323.084-.364.005-.364-.697 0-.694-.045-.784-.365-.722-.319.061-.364-.028-.364-.729s-.045-.79-.364-.728c-.316.06-.365-.028-.365-.665 0-.582-.075-.756-.364-.831-.276-.072-.364-.248-.364-.729 0-.48-.088-.656-.364-.728-.247-.065-.366-.25-.368-.575-.003-.535-.226-.979-.472-.941-.089.014-.186-.123-.215-.303-.145-.906-.25-1.148-.497-1.148-.16 0-.279-.185-.293-.456-.042-.84-.067-.91-.328-.91-.143 0-.321-.226-.394-.501-.074-.276-.09-.501-.037-.501.054 0-.003-.122-.127-.271-.124-.15-.298-.227-.387-.172-.088.055-.161-.187-.161-.538 0-.425-.118-.721-.353-.885-.195-.136-.381-.448-.415-.694-.08-.582-.307-.934-.52-.802-.093.057-.169-.136-.169-.43 0-.488-.376-1.055-.57-.86-.045.044-.099-.133-.12-.393-.022-.261-.12-.572-.22-.691-.099-.12-.119-.278-.045-.353.074-.074.017-.107-.127-.074-.179.042-.301-.163-.385-.647-.068-.389-.257-.782-.421-.874-.164-.092-.298-.322-.298-.511 0-.19-.083-.396-.185-.459s-.137-.193-.078-.289c.059-.095.007-.151-.117-.124-.124.028-.277-.155-.341-.405-.063-.25-.234-.455-.38-.455-.183 0-.283-.247-.322-.793-.049-.681-.106-.779-.41-.7-.31.081-.353-.006-.353-.71 0-.681-.055-.803-.364-.803-.303 0-.364-.121-.364-.718 0-.62-.05-.709-.365-.648-.316.061-.364-.028-.364-.665 0-.582-.076-.755-.364-.83-.277-.073-.365-.249-.365-.729s-.088-.656-.364-.729c-.247-.064-.365-.25-.367-.575-.004-.603-.258-1.02-.523-.856-.136.084-.203-.115-.203-.602 0-.567-.08-.753-.364-.843-.222-.07-.373-.288-.387-.558-.041-.788-.081-.9-.31-.852-.252.053-.355-.164-.451-.958-.039-.318-.174-.546-.325-.546-.151 0-.283-.226-.319-.547-.061-.541-.332-1.021-.553-.98-.063.011-.278.06-.479.108m-130.145 22.088c5.237.966 7.226 2.333 8.809 6.058.734 1.726.845 3.85.845 16.235v11.841l-.396.422c-.391.416-.448.422-4.463.422-4.646 0-4.795-.045-4.795-1.441 0-.754-.39-.858-1.093-.291-.38.306-2.082 1.071-3.279 1.474-1.198.403-7.316.599-8.836.283-3.006-.624-7.011-2.717-7.011-3.663 0-.089-.105-.27-.235-.402-1.677-1.719-2.47-7.465-1.457-10.564 1.04-3.185 2.896-5.237 5.699-6.298 4.159-1.576 11.28-1.502 14.698.153 1.532.742 1.879-.376 1.236-3.971-.403-2.257-.737-2.632-2.814-3.164-3.967-1.016-7.61.235-7.929 2.722-.145 1.131-.287 1.348-.999 1.533-1.054.273-8.272.085-8.645-.225-.721-.6-.014-6.007.932-7.126.133-.158.243-.366.243-.461 0-.876 2.653-2.557 5.028-3.186 2.456-.651 11.632-.874 14.462-.351m39.822.291c2.286.746 2.865 1.091 4.457 2.652 1.118 1.095 1.623 1.917 2.334 3.801l.448 1.184.063 13.244.064 13.243-.444.291c-.694.454-8.515.328-8.988-.145-.303-.303-.331-1.126-.416-12.386-.089-11.798-.099-12.074-.467-12.646-1.584-2.462-7.632-2.339-9.959.203-1.491 1.629-1.497 1.682-1.559 13.857-.049 9.55-.088 10.779-.347 11.066-.263.29-.696.323-4.283.323-3.905 0-4.563-.083-4.921-.62-.245-.367-.167-33.888.079-34.135.158-.158 1.444-.218 4.639-.218 5.065 0 4.797-.096 4.797 1.718 0 1.192-.008 1.189.971.408 3.004-2.397 9.232-3.244 13.532-1.84m71.653-.303c3.89.728 6.409 2.337 7.111 4.541.085.267.274.813.419 1.214.36.99.571 4.048.323 4.69l-.194.501h-8.77l-.274-.655c-.15-.359-.364-1.108-.476-1.662-.309-1.539-.948-1.777-4.787-1.779-4.714-.004-5.904.658-5.914 3.287-.009 2.328.5 2.531 7.087 2.825 2.149.096 4.198.252 4.554.346.356.094 1.317.254 2.136.355 3.338.411 5.786 1.753 6.82 3.738 1.879 3.605 1.54 10.701-.649 13.558-1.225 1.6-3.895 3.171-5.953 3.502-.585.094-1.29.267-1.567.384-.659.278-11.347.425-12.981.179-1.838-.278-3.718-.729-4.299-1.032-.29-.151-.601-.276-.691-.276-.396-.003-2.186-1.38-2.688-2.068-1.914-2.624-2.848-8.031-1.538-8.905.11-.074 2.219-.135 4.686-.137 5.211-.003 5.011-.071 4.818 1.634-.12 1.062.147 2.553.457 2.553.077 0 .272.132.433.293 1.301 1.301 8.348 1.24 10.035-.087 1.932-1.519 1.74-4.077-.383-5.107-.856-.416-1.149-.445-5.729-.575-2.655-.075-5.034-.217-5.286-.315-.252-.098-1.05-.271-1.772-.383-1.208-.187-1.695-.338-2.961-.918-3.131-1.434-4.419-4.14-4.428-9.302-.005-3.105.046-3.499.686-5.248 1.163-3.177 4.363-4.925 9.753-5.328 2.266-.17 10.848-.043 12.022.177m-46.319 8.077c-2.628.45-3.324 2.415-3.306 9.335.021 7.622.714 9.098 4.498 9.569 3.537.44 6.261-.229 7.028-1.728 1.482-2.893 1.448-14.191-.047-15.686-.158-.157-.287-.344-.287-.414 0-.94-4.831-1.599-7.886-1.076m-74.269 12.317c-2.602.586-3.616 1.815-3.396 4.117.212 2.216.723 2.791 2.912 3.28 4.053.905 8.351-.126 9.248-2.218 1.591-3.711-3.065-6.462-8.764-5.179"/><path fill="#baddf1" d="M125.865 42.976c-.952.074-1.976.188-2.277.254-.3.067-1.483.201-2.627.299-1.144.098-2.62.297-3.279.443-.658.145-1.648.346-2.199.446-6.224 1.128-11.462 3.871-13.754 7.203-.856 1.245-1.041 1.569-1.909 3.347-.502 1.029-.913 1.998-.913 2.152 0 .155-.098.46-.217.679-.424.778-.983 3.631-1.505 7.684-.366 2.835-.37 9.651-.008 12.295.144 1.052.264 2.339.267 2.86.007 1.174.261 1.115-6.594 1.514-1.776.103-3.651.268-4.166.365-.515.098-1.889.265-3.054.37-1.165.106-2.428.274-2.807.374-.379.099-1.357.257-2.172.35-.816.093-2.022.288-2.681.433-.659.145-1.689.35-2.291.456-.601.106-1.42.273-1.821.372-1.611.397-3.327.785-4.19.947-.5.094-1.238.301-1.639.46-.416.165-1.353.301-2.185.318-1.189.024-1.466.084-1.513.328-.08.412 1.368.628 2.19.328.328-.121 1.048-.328 1.599-.462.551-.133 1.33-.328 1.731-.432 1.466-.383 3.311-.792 4.644-1.03.752-.135 1.653-.325 2.004-.423.351-.098 1.088-.233 1.639-.299.551-.066 1.453-.229 2.004-.361.551-.133 1.576-.297 2.277-.364.701-.067 1.643-.202 2.092-.3.45-.098 2.048-.294 3.552-.435 1.504-.141 3.595-.342 4.647-.446 1.052-.105 3.06-.251 4.462-.325 2.931-.156 3.153-.296 2.827-1.779-.995-4.533-.441-17.435.93-21.627.188-.576.342-1.138.342-1.247 0-.11.116-.458.258-.774.141-.315.489-1.107.772-1.758 1.589-3.659 6.519-8.294 8.916-8.385.09-.003.492-.164.892-.358.401-.193.828-.355.95-.358.122-.003.614-.14 1.093-.303 1.207-.411 3.615-.925 5.847-1.247 1.034-.149 1.954-.317 2.046-.374.161-.099 4.552-.468 9.736-.817 3.284-.221 10.393-.221 13.662.001 5.02.341 9.312.744 10.655 1.001.752.143 1.582.264 1.846.268.264.004.879.125 1.367.269.487.143 1.419.392 2.07.553 2.412.596 3.04.802 4.553 1.491 4.522 2.059 7.085 4.914 8.886 9.899 1.371 3.796 2.318 14.581 1.327 15.112-.55.294-17.215.256-17.46-.04-.24-.29-.363-1.025-.584-3.482-.488-5.43-2.629-8.933-5.82-9.521-.356-.065-.956-.227-1.333-.358-1.44-.503-7.395-.849-12.793-.742-6.986.138-9.183.347-12.842 1.22-5.748 1.373-7.801 6.057-6.923 15.797.54 5.99 2.671 7.978 8.927 8.333 1.152.065 2.832.234 3.734.375.901.142 2.475.339 3.496.44 1.022.1 2.228.265 2.681.367.453.101 2.568.267 4.7.369 2.132.102 4 .222 4.15.268.15.045 2.022.208 4.16.361 2.138.153 3.95.318 4.028.366.078.048 1.229.214 2.559.37 1.33.155 2.492.328 2.584.385.091.056.797.209 1.568.341 1.77.301 3.764.781 4.591 1.105.351.137.979.336 1.397.442.417.105.991.313 1.275.461.284.148.598.27.698.271.302.003 1.739.782 3.178 1.723 1.387.907 1.944 1.079 5.929 1.833.702.132 1.972.373 2.824.533.851.161 2.081.411 2.732.556.651.145 1.635.315 2.186.378.551.063 1.452.224 2.003.358.551.135 1.535.298 2.186.364s1.635.23 2.186.364c.551.134 1.617.299 2.368.366.751.068 1.899.23 2.55.362.651.131 1.881.292 2.732.359.852.066 2.245.233 3.097.372.851.139 2.327.302 3.278.362.952.061 2.632.225 3.734.364 1.103.14 3.725.339 5.829.444 2.104.105 5.096.27 6.649.367 3.618.225 11.525.227 14.961.004 1.467-.095 4.336-.259 6.376-.366 2.039-.106 4.528-.306 5.53-.445 1.002-.139 2.6-.307 3.552-.373.951-.065 2.068-.193 2.481-.284.413-.09 1.52-.247 2.459-.349 1.637-.178 2.842-.369 6.444-1.026.902-.164 2.295-.403 3.097-.53.801-.128 1.581-.284 1.734-.346.152-.063.931-.228 1.73-.367 3.7-.641 7.373-1.608 7.373-1.94 0-.161-.315-.265-1.312-.433l-.676-.113-.053-1.312c-.065-1.602-.359-1.771-1.371-.788-4.382 4.256-16.672 3.109-19.223-1.794-2.844-5.465-2.903-21.284-.095-25.447.179-.266.326-.555.326-.642 0-.349 2.169-2.193 3.104-2.639 4.671-2.228 11.828-1.851 15.377.81 1.742 1.306 1.633 1.78 1.738-7.61l.091-8.197 4.235-.049 4.235-.049v23.005c0 26.191-.159 23.851 1.6 23.61.591-.081 1.311-.237 1.601-.347.29-.111 1.02-.315 1.623-.454 1.561-.362 3.179-.786 3.908-1.024.344-.113 1.082-.306 1.639-.43 1.182-.262 3-.721 4.292-1.084 2.436-.684 6.658-1.681 10.018-2.365.801-.163 1.785-.388 2.186-.5.4-.112 1.343-.305 2.094-.429.752-.124 1.858-.315 2.459-.425 2.702-.495 4.75-.782 7.286-1.021 1.503-.142 3.47-.343 4.372-.448.902-.105 2.806-.192 4.232-.192 3.559-.002 4.982-.472 4.101-1.353-.075-.075-.136-.225-.136-.334 0-.108-.103-.231-.228-.273-.129-.043-.228.075-.228.272 0 .984-.428 1.078-5.92 1.3-2.805.113-5.432.284-5.838.38-.407.096-1.636.259-2.733.363-1.096.103-2.526.305-3.177.447-.651.142-1.799.346-2.55.453-1.504.213-2.755.453-4.554.871-.651.151-1.717.386-2.368.522-.651.135-1.881.411-2.732.613-5.211 1.232-5.931 1.412-7.195 1.791-.501.151-1.362.382-1.913.514-2.562.613-4.503 1.11-6.739 1.724-3.261.897-3.882 1.038-4.205.954-.342-.09-.349-.576-.349-23.099 0-20.674-.029-23.037-.286-23.294-.507-.507-8.644-.42-9.112.097-.328.362-.35.808-.4 8.105-.033 4.758-.12 7.723-.227 7.723-.096 0-.564-.271-1.04-.601-2.479-1.722-6.689-2.337-11.431-1.672-1.086.153-2.064.347-2.172.432-.107.085-.523.259-.924.387-2.976.95-4.961 3.618-6.093 8.193-.84 3.4-.724 15.039.175 17.399.114.299.28.929.369 1.4.272 1.432 1.343 3.446 2.388 4.49 3.768 3.769 13.673 4.209 18.175.809 1.012-.765 1.196-.701 1.204.417.004.492.07 1.029.148 1.193.147.309-1.775 1.068-2.701 1.068-.215 0-1 .155-1.745.345-.746.189-1.806.399-2.357.466-.551.066-1.412.234-1.913.371-.501.138-1.443.308-2.094.377-.652.069-1.37.196-1.597.282-.227.086-1.17.245-2.095.353-.925.109-1.969.274-2.319.368-.351.094-1.58.258-2.732.365-1.153.106-2.461.275-2.909.374-.448.099-1.964.259-3.37.356-1.406.097-3.703.315-5.106.484-3.098.375-26.359.437-29.417.079-.952-.112-2.919-.289-4.372-.395-1.452-.105-3.337-.273-4.189-.373-.852-.099-2.45-.266-3.552-.371-1.102-.104-2.7-.308-3.552-.453-.851-.146-2.327-.344-3.278-.442-.952-.098-2.018-.256-2.368-.352-.351-.096-1.447-.263-2.437-.37-.989-.107-1.882-.247-1.984-.31-.102-.063-.932-.215-1.844-.337-1.88-.252-4.206-.679-6.505-1.194-.862-.193-1.774-.351-2.026-.351-.253 0-.779-.113-1.169-.251-.39-.137-1.159-.307-1.708-.376-1.212-.152-3.379-.783-3.688-1.074-.378-.356-1.691-1.214-1.859-1.214-.087 0-.287-.111-.445-.247-.159-.136-.534-.337-.835-.447-.3-.11-1.12-.414-1.821-.677-1.66-.623-3.492-1.139-5.191-1.464-.752-.143-1.571-.342-1.822-.441-.25-.099-1.169-.259-2.041-.355-.873-.097-1.898-.257-2.277-.357-.38-.1-1.814-.269-3.187-.377-1.373-.107-2.899-.271-3.392-.364-.492-.094-2.86-.256-5.263-.361-2.403-.105-4.77-.267-5.261-.359-.49-.092-1.589-.221-2.44-.286-.852-.065-2.204-.234-3.006-.376-.801-.141-2.441-.333-3.643-.427-3.623-.283-6.869-.766-7.741-1.151-2.706-1.196-3.807-4.258-3.819-10.626-.015-8.03 2.187-11 8.919-12.031.852-.13 2.122-.334 2.823-.453 1.624-.275 16.529-.294 17.851-.023.501.103 1.582.313 2.402.467.821.154 1.739.407 2.04.563.302.156.658.284.791.284 1.084 0 3.097 3.428 3.583 6.102.11.601.278 1.462.374 1.913.096.451.178 1.401.183 2.113.018 2.982-.545 2.827 10.001 2.764l8.618-.05.348-.43c.313-.387.347-.739.337-3.461-.024-6.334-.87-10.861-2.744-14.689-.545-1.111-.664-1.322-1.386-2.447-1.335-2.081-4.309-4.352-7.243-5.53-1.712-.687-2.294-.883-3.37-1.135-.551-.129-1.534-.362-2.185-.518-2.504-.598-3.99-.856-6.011-1.043-1.152-.106-2.464-.276-2.915-.378-.981-.221-20.777-.358-23.315-.162m95.019.709c-.491.543-.46 47.735.032 48.181.489.442 8.776.456 9.217.015.437-.437.437-47.806 0-48.243-.467-.467-8.822-.425-9.249.047m15.808-.075c-.489.357-.647 6.373-.195 7.454l.279.666h4.358c3.829 0 4.389-.036 4.609-.3.42-.505.464-7.276.05-7.733-.415-.459-8.486-.536-9.101-.087m-6.911 24.15v23.77h-8.561l-.046-23.668c-.037-18.814.001-23.699.182-23.815.126-.081 2.073-.127 4.327-.103l4.098.045V67.76m15.642-23.452c.188.703.126 6.149-.074 6.524-.262.489-7.786.549-8.269.066-.301-.302-.421-4.789-.169-6.317l.113-.683h4.144c4.144 0 4.145 0 4.255.41m-51.161 12.991c-7.076.763-10.118 3.58-10.853 10.052-.099.874-.258 2.122-.352 2.775-.745 5.143.224 13.801 1.931 17.257 2.216 4.487 11.471 6.523 21.387 4.706 4.858-.89 7.559-3.363 8.569-7.845.091-.401.303-1.343.472-2.095.378-1.68.579-11.697.276-13.752-.948-6.43-2.918-9.298-7.085-10.315-.476-.116-1.005-.282-1.175-.368-1.169-.594-9.167-.846-13.17-.415m42.43.337c-.45.329-.654 33.116-.211 33.985l.233.456 4.348.048c3.853.044 4.386.015 4.685-.256.549-.496.522-33.578-.028-34.128-.475-.476-8.393-.568-9.027-.105m-30.226.476c1.947.415 3.525.96 4.309 1.489.266.179.545.326.62.326.247 0 1.536 1.509 2.004 2.347 2.739 4.901 2.713 18.927-.046 24.759-1.916 4.051-8.191 5.68-18.362 4.767-8.458-.759-10.921-3.761-11.355-13.84-.57-13.225 1.535-18.569 7.712-19.583.401-.066 1.015-.209 1.366-.319 1.954-.61 10.803-.575 13.752.054m38.883.164c.203.38.275 32.185.074 32.935-.11.41-.111.41-4.255.41h-4.144l-.113-.683c-.192-1.164-.135-32.033.061-32.547l.177-.468h4.006c3.773 0 4.016.021 4.194.353m-49.083 6.503c-3.331.832-3.996 2.47-3.987 9.811.011 9.006 1.015 10.472 7.175 10.473 5.805.001 6.811-1.288 7.031-9.016.285-9.998-.437-11.223-6.667-11.313-1.753-.025-3.352-.005-3.552.045m67.577.046c-2.924.764-3.735 2.844-3.732 9.566.005 8.791 1.185 10.661 6.738 10.67 3.236.005 5.197-.769 6.017-2.377.832-1.631 1.39-9.056.896-11.919-.104-.601-.27-1.572-.37-2.157-.278-1.63-.983-2.6-2.445-3.364-.962-.502-5.713-.783-7.104-.419m-60.768.727c2.55.805 2.847 1.749 2.84 9.038-.007 8.534-.521 9.525-5.095 9.826-3.946.26-6.344-.382-7.114-1.902-1.558-3.081-1.114-14.665.623-16.261.417-.382.915-.556 3.212-1.118.851-.208 4.4.059 5.534.417m66.97-.006c2.735.821 3.089 1.87 3.086 9.135-.003 8.911-.524 9.729-6.191 9.729-4.992.001-5.709-.794-6.12-6.787-.55-8.009.214-11.262 2.841-12.102 1.881-.602 4.329-.593 6.384.025"/><path fill="#e4dcc2" d="M335.573 84.513c-.129.493-.42.521-6.52.621-2.905.047-5.733.172-6.284.279-.551.106-2.109.317-3.461.469-1.353.151-2.869.355-3.37.452-2.64.51-4.106.78-4.997.92-.544.085-1.487.278-2.095.428-2.541.628-3.71.891-4.657 1.049-.551.092-1.288.277-1.639.412-.351.134-1.047.304-1.548.378-.501.073-1.042.203-1.203.289-.16.085-.857.282-1.548.435-1.413.315-3 .714-4.353 1.094-.501.141-1.73.476-2.732.746-2.57.69-2.544.67-1.997 1.477l.448.66v23.374c0 23.079-.004 23.377-.359 23.567-.228.122-1.741.174-4.144.143l-3.784-.049-.054-1.239c-.037-.837-.135-1.269-.303-1.333-.252-.097-1.29.354-1.403.61-.841 1.905-7.431 3.115-12.12 2.226-6.194-1.175-8.071-3.724-8.87-12.047-1.009-10.504.491-17.753 4.17-20.155 4.409-2.879 12.627-2.761 16.555.237.978.746.913.728 1.283.358.461-.461.429-14.069-.034-14.641-.351-.433-.159-.451-3.141.288-.651.161-1.634.367-2.185.459-.551.091-1.371.279-1.822.419-.451.139-1.229.305-1.73.368-.501.064-1.28.228-1.731.365-.45.137-1.229.302-1.73.368-.501.065-1.321.23-1.822.366-.5.137-1.443.305-2.094.374-.651.069-1.37.196-1.597.282-.227.086-1.17.244-2.095.35-.925.107-2.255.309-2.957.45-.701.14-1.849.305-2.55.366-.701.062-1.972.223-2.823.359-.852.136-2.245.298-3.097.359-.851.062-2.573.23-3.825.375-7.253.837-26.863.882-34.426.08-.952-.101-3.165-.302-4.918-.446-1.753-.144-3.598-.338-4.098-.431-.501-.093-1.608-.224-2.459-.289-.852-.066-2.204-.235-3.006-.376-.801-.14-2.277-.339-3.279-.441-1.001-.102-2.083-.262-2.403-.356-.32-.094-1.14-.226-1.822-.294-.681-.067-1.69-.233-2.241-.366-.551-.134-1.494-.297-2.095-.362-.601-.065-1.502-.228-2.003-.364-.501-.135-1.403-.299-2.004-.364s-1.503-.229-2.004-.363c-3.837-1.03-4.319-.768-3.475 1.89 1.309 4.116 1.751 7.625 1.738 13.774-.005 2.504-.08 5.127-.168 5.829-.087.701-.253 2.135-.369 3.187-.42 3.829-1.733 8.412-3.143 10.973-2.181 3.963-5.721 6.506-10.703 7.687-.551.131-1.207.319-1.457.419-.25.099-.942.24-1.536.313-.595.073-1.292.213-1.549.311-.257.098-1.164.253-2.015.344-.852.092-2.409.291-3.461.442-6.666.962-25.513.968-31.876.01-.952-.143-2.181-.31-2.732-.372-1.092-.121-4.082-.723-5.101-1.026-.35-.104-1.047-.301-1.548-.437-1.223-.333-2.873-.913-3.298-1.159-.189-.11-.55-.284-.8-.386-.251-.102-.824-.429-1.275-.726-.451-.297-.943-.595-1.093-.663-2.346-1.056-5.347-6.322-6.525-11.449-.343-1.491-.464-2.34-.951-6.649-.324-2.863-.217-7.432.178-7.643.407-.218 16.916-.265 17.25-.05.131.085.25 1.145.324 2.866.174 4.088 1.037 8.448 1.86 9.395.138.159.253.364.258.456.051 1.132 3.142 2.767 5.998 3.172.705.1 1.646.264 2.09.363 5.377 1.205 23.603.53 27.751-1.028 4.152-1.559 5.926-6.025 5.628-14.165-.145-3.977-.347-5.031-1.377-7.2-1.286-2.709-5.18-4.15-12.32-4.559-1.703-.098-3.875-.256-4.827-.352-.952-.095-3.124-.224-4.827-.286-1.703-.062-4.203-.228-5.556-.369-1.352-.141-3.237-.306-4.189-.367-.952-.062-2.386-.224-3.188-.362-.801-.137-2.228-.34-3.171-.45-.943-.11-1.782-.242-1.866-.294-.083-.051-.787-.202-1.564-.335-1.621-.278-3.712-.76-4.51-1.041-.3-.106-.956-.298-1.457-.426-.501-.129-1.157-.366-1.457-.527-.301-.161-.63-.293-.732-.294-.103 0-.635-.247-1.184-.547-.549-.301-1.272-.674-1.607-.829-1.7-.79-3.44-3.158-5.31-7.23-.496-1.08-.582-1.131-1.865-1.095-3.221.089-8.841.459-10.34.681-.952.14-2.387.308-3.188.373-.802.065-1.949.226-2.55.358-.601.132-1.651.296-2.332.364-.682.067-1.502.199-1.822.293-.32.094-1.32.29-2.221.436-.902.146-1.968.347-2.368.446-.401.099-1.303.312-2.004.474-2.649.611-3.497.82-4.736 1.166-3.65 1.021-4.741 1.284-5.318 1.284-.426 0-.606.074-.553.228.116.337 2.28.256 2.957-.111.3-.164.718-.297.928-.298.209-.001.857-.165 1.44-.365.582-.201 1.189-.364 1.349-.362.159.001.823-.158 1.474-.354 1.572-.474 3.506-.93 4.724-1.115.544-.083 1.487-.273 2.095-.422.607-.149 1.678-.36 2.38-.469.701-.108 1.766-.276 2.367-.373 2.62-.421 6.536-.925 8.47-1.091 1.153-.098 2.835-.265 3.738-.37 2.822-.328 6.717-.171 6.796.275.065.366 1.621 3.667 1.888 4.007 1.391 1.766 1.87 2.302 2.567 2.873.456.374.89.679.966.679.075 0 .266.111.425.246.546.468 3.139 1.709 4.078 1.951.319.083.95.271 1.4.419 1.918.629 6.831 1.755 7.67 1.758.34.002 1.122.122 1.738.267.616.146 2.133.347 3.37.448 1.237.101 2.689.268 3.227.37.537.102 2.668.27 4.735.372 2.068.102 4.456.267 5.308.365.851.098 3.411.26 5.688.36 2.276.099 4.489.256 4.918.348.428.092 1.393.221 2.144.286 4.816.42 7.364 2.142 8.494 5.743.535 1.706.726 9.404.28 11.293-.107.451-.31 1.312-.453 1.913-.143.601-.392 1.338-.555 1.639-.162.301-.296.633-.297.738-.002.461-1.9 2.293-2.795 2.698-2.028.918-2.732 1.072-8.103 1.771-2.374.309-15.882.121-19.066-.266-8.815-1.07-10.075-2.417-10.754-11.498-.165-2.204-.373-4.192-.461-4.418l-.162-.409H96.894l-.163.43c-.211.554.084 10.561.336 11.384.103.337.274 1.239.38 2.004.105.765.303 1.719.44 2.12.136.4.332 1.056.435 1.457.362 1.402.866 2.601 1.993 4.736.696 1.318 2.905 3.755 4.378 4.831 1.922 1.404 6.856 3.203 10.516 3.834.602.104 1.713.308 2.471.454.758.145 2.438.346 3.734.445 1.296.098 3.053.281 3.905.405 2.15.312 19.663.308 21.949-.005.901-.124 2.776-.304 4.166-.4 1.39-.095 3.193-.292 4.008-.437.814-.145 2.012-.351 2.664-.458 4.335-.71 9.085-2.367 11.16-3.893.759-.558 2.897-2.678 3.229-3.203.151-.237.407-.606.569-.82.39-.512 1.813-3.518 1.996-4.214.079-.301.267-.915.418-1.366.55-1.64.851-2.9 1.027-4.306.099-.79.264-1.722.366-2.071.646-2.214.574-16.309-.095-18.754-.151-.548-.272-1.203-.271-1.457.003-.496-.555-2.466-1.1-3.887-.435-1.132-.299-1.185 1.778-.704 1.5.348 2.575.558 4.966.969.551.095 1.576.292 2.277.439.702.147 1.972.351 2.824.453.851.103 1.794.263 2.094.357.301.093 1.284.247 2.186.341.902.094 2.418.295 3.37.447 2.043.326 4.316.613 6.83.864 1.002.099 2.806.303 4.008.453 1.202.149 3.743.35 5.646.446 1.904.096 4.404.272 5.556.39 2.767.286 19.481.292 21.858.009.952-.114 3.35-.294 5.33-.4 1.979-.106 4.026-.274 4.547-.373.521-.099 1.893-.261 3.049-.36 1.156-.099 2.716-.297 3.467-.44.752-.143 1.971-.312 2.71-.376.739-.065 1.525-.187 1.746-.271.222-.084 1.208-.249 2.193-.367.984-.117 1.971-.282 2.194-.367.222-.085 1.049-.242 1.837-.349 1.352-.185 1.984-.313 5.076-1.026.701-.162 1.849-.402 2.55-.533.702-.131 1.506-.328 1.788-.439.282-.11.743-.2 1.024-.2s1.024-.164 1.651-.364c.627-.201 1.416-.365 1.754-.365h.614v6.831c0 7.366.02 7.223-.932 6.501-3.552-2.695-11.644-2.995-16.182-.6-1.487.785-4.012 3.801-4.017 4.798 0 .126-.119.457-.264.734-.144.277-.401 1.261-.569 2.186-1.07 5.862-.752 14.846.684 19.35.375 1.177.566 1.569 1.505 3.097.959 1.56 3.333 2.846 6.569 3.558 4.065.893 10.487-.189 12.569-2.118.591-.548.81-.373.819.654.012 1.367.317 1.458 4.914 1.458 3.843 0 3.846-.001 4.294-.449l.449-.448-.047-24.15-.047-24.15.455-.093c.679-.139 2.619-.639 4.554-1.174.651-.179 1.861-.495 2.688-.701 2.178-.541 4.31-1.077 5.873-1.477.751-.192 1.735-.403 2.186-.469.451-.066.953-.19 1.117-.275.164-.086.901-.247 1.639-.359.738-.111 1.67-.307 2.071-.436.4-.13 1.248-.292 1.884-.361.635-.069 1.35-.199 1.589-.29.239-.091 1.112-.248 1.941-.35.829-.101 2.204-.305 3.056-.452.851-.148 2.655-.36 4.007-.473 1.352-.112 3.32-.276 4.372-.364 1.051-.088 3.239-.164 4.861-.169 1.76-.005 2.995-.082 3.062-.191.062-.1.272-.182.466-.182.371 0 .427-.144.243-.623-.153-.398-.451-.361-.564.072m-140.764 22.406c-4.077.306-8.47 2.233-8.47 3.717 0 .095-.11.303-.243.461-.946 1.119-1.653 6.526-.932 7.126.373.31 7.591.498 8.645.225.712-.185.854-.402.999-1.533.319-2.487 3.962-3.738 7.929-2.722 2.077.532 2.411.907 2.814 3.164.643 3.595.296 4.713-1.236 3.971-2.524-1.222-9.531-1.707-12.512-.867-4.556 1.285-6.612 3.113-7.885 7.012-1.013 3.099-.22 8.845 1.457 10.564.13.132.235.313.235.402 0 .946 4.005 3.039 7.011 3.663 1.52.316 7.638.12 8.836-.283 1.197-.403 2.899-1.168 3.279-1.474.703-.567 1.093-.463 1.093.291 0 1.396.149 1.441 4.795 1.441 4.015 0 4.072-.006 4.463-.422l.396-.422v-11.841c0-12.385-.111-14.509-.845-16.235-1.583-3.725-3.572-5.092-8.809-6.058-1.237-.229-8.743-.351-11.02-.18m42.987-.01c-2.121.232-4.046 1.019-5.677 2.321-.979.781-.971.784-.971-.408 0-1.814.268-1.718-4.797-1.718-3.195 0-4.481.06-4.639.218-.246.247-.324 33.768-.079 34.135.358.537 1.016.62 4.921.62 3.587 0 4.02-.033 4.283-.323.259-.287.298-1.516.347-11.066.062-12.175.068-12.228 1.559-13.857 2.327-2.542 8.375-2.665 9.959-.203.368.572.378.848.467 12.646.085 11.26.113 12.083.416 12.386.473.473 8.294.599 8.988.145l.444-.291-.064-13.243-.063-13.244-.448-1.184c-.827-2.19-1.97-3.763-3.659-5.037-2.055-1.55-6.754-2.361-10.987-1.897m67.486.001c-5.39.403-8.59 2.151-9.753 5.328-.64 1.749-.691 2.143-.686 5.248.009 5.162 1.297 7.868 4.428 9.302 1.266.58 1.753.731 2.961.918.722.112 1.52.285 1.772.383.252.098 2.631.24 5.286.315 4.58.13 4.873.159 5.729.575 2.123 1.03 2.315 3.588.383 5.107-1.687 1.327-8.734 1.388-10.035.087-.161-.161-.356-.293-.433-.293-.31 0-.577-1.491-.457-2.553.193-1.705.393-1.637-4.818-1.634-2.467.002-4.576.063-4.686.137-1.31.874-.376 6.281 1.538 8.905.502.688 2.292 2.065 2.688 2.068.09 0 .401.125.691.276.581.303 2.461.754 4.299 1.032 1.634.246 12.322.099 12.981-.179.277-.117.982-.29 1.567-.384 2.058-.331 4.728-1.902 5.953-3.502 2.189-2.857 2.528-9.953.649-13.558-1.034-1.985-3.482-3.327-6.82-3.738-.819-.101-1.78-.261-2.136-.355-.356-.094-2.405-.25-4.554-.346-6.587-.294-7.096-.497-7.087-2.825.01-2.629 1.2-3.291 5.914-3.287 3.839.002 4.478.24 4.787 1.779.112.554.326 1.303.476 1.662l.274.655h8.77l.194-.501c.248-.642.037-3.7-.323-4.69-.145-.401-.334-.947-.419-1.214-.702-2.204-3.221-3.813-7.111-4.541-1.174-.22-9.756-.347-12.022-.177m-100.819.567c.601.104 1.707.301 2.459.439 4.269.784 6.23 2.454 7.496 6.383.405 1.258.796 25.19.434 26.63l-.107.426-4.139-.049-4.14-.049-.054-.942c-.082-1.416-.365-1.533-1.633-.675-4.846 3.281-14.37 2.814-18.051-.886-3.616-3.636-3.637-11.544-.039-15.061 3.661-3.578 13.06-4.284 18.229-1.369 1.285.725 1.541.174 1.404-3.021-.212-4.951-1.026-5.733-5.971-5.733-4.272 0-5.607.695-6.002 3.124-.092.563-.217 1.074-.278 1.136-.184.185-7.44.242-8.112.064l-.622-.165.043-1.26c.24-6.99 3.483-9.13 13.891-9.166 2.255-.008 4.591.07 5.192.174m40.196.243c4.067.989 6.464 3.288 7.496 7.192.536 2.031.706 25.824.187 26.204-.438.321-7.906.332-8.225.013-.165-.165-.219-2.788-.219-10.689 0-13.924-.095-14.56-2.331-15.532-3.67-1.596-8.635-.184-10.168 2.891l-.525 1.053-.052 11.105c-.04 8.456-.105 11.138-.273 11.245-.383.243-8.041.176-8.29-.073-.329-.329-.316-32.73.014-33.181.245-.335 7.922-.401 8.251-.072.074.075.118.662.097 1.307-.055 1.704.241 1.802 1.79.587 1.382-1.084 2.495-1.678 3.655-1.951.45-.105 1.065-.26 1.366-.344 1.242-.345 5.378-.205 7.227.245m72.918.001c4.838.973 7.195 3.634 7.195 8.122 0 1.706.166 1.643-4.31 1.643-4.251 0-4.251 0-4.251-1.149 0-.709-.682-2.056-1.228-2.426-.882-.598-8.064-.509-9.063.112-1.629 1.012-2.142 2.306-1.696 4.282.378 1.673.806 1.85 5.076 2.094 1.848.106 3.974.268 4.726.359.751.091 2.021.218 2.823.282 6.569.524 9.198 3.283 9.198 9.652 0 3.398-1.519 7.636-2.96 8.259-.078.034-.244.161-.367.284-.357.353-1.949 1.129-3.139 1.531-1.026.346-1.678.46-5.555.968-.955.126-2.912.164-5.101.101-10.105-.292-13.446-2.493-13.794-9.084-.141-2.682-.437-2.514 4.426-2.514 4.513 0 4.345-.07 4.289 1.784-.078 2.588 1.604 3.564 6.172 3.579 3.648.012 4.84-.272 6.175-1.472l.838-.754.054-1.523c.113-3.123-.735-3.652-6.135-3.824-2.165-.069-4.429-.208-5.03-.31-.601-.102-1.585-.239-2.186-.304-5.859-.635-8.447-3.7-8.461-10.018-.012-5.823 2.232-8.695 7.478-9.569.741-.123 1.675-.288 2.076-.365 1.495-.29 10.976-.097 12.75.26m-45.537 6.661c-4.186.501-4.736 1.654-4.736 9.935 0 9.197.808 10.476 6.62 10.474 3.737-.001 5.457-.922 6.251-3.346.669-2.04.656-12.17-.017-13.936-.965-2.534-3.837-3.64-8.118-3.127m4.202.739c1.038.177 2.629.854 2.629 1.119 0 .07.129.257.287.414 1.495 1.495 1.529 12.793.047 15.686-1.233 2.408-8.699 2.586-10.365.248-1.821-2.558-1.588-14.565.319-16.473 1.077-1.077 4.107-1.502 7.083-.994m-79.247 11.645c-3.133.524-4.219 1.885-4.066 5.092.148 3.083 1.263 3.752 6.251 3.752 5.213 0 7.104-1.163 7.104-4.371 0-3.39-4.065-5.347-9.289-4.473m4.748.714c3.354.65 4.812 2.671 3.737 5.18-.897 2.092-5.195 3.123-9.248 2.218-2.189-.489-2.7-1.064-2.912-3.28-.331-3.469 3.106-5.149 8.423-4.118"/></g></svg>