<svg xmlns="http://www.w3.org/2000/svg" role="img" viewBox="-3.99 -3.99 207.74 207.74"><title>Soongsil University (member) logo</title><path d="M18 94h1v1h-1zm10 5h1v1h-1z" fill="#98d7ea"/><path fill="#3385a9" d="M3 86h1v1H3z"/><path d="M119 91h1v1h-1zm48 1h1v1h-1zm15 1h1v1h-1zm-57 5h1v1h-1zm-23 2h1v1h-1zm20 1h1v1h-1z" fill="#808081"/><path fill="#35afd6" d="M27 97h1v1h-1z"/><path d="M154 106h1v1h-1zm1 0h1v1h-1zm21 0h1v1h-1zm-78 7h1v1h-1zm6 1h1v1h-1zm88 1h1v1h-1z" fill="#fbfeff"/><path d="M185 107h1v1h-1zm-75 4h1v1h-1z" fill="#21bfe0"/><path fill="#086b97" d="M61 119h1v1h-1z"/><path d="M39 85h1v1h-1zm1 0h1v1h-1zm9 0h2v1h-2zm2 0h1v1h-1z" fill="#c0e6e7"/><path d="M160 110h1v1h-1zm24 0h1v1h-1z" fill="#92e0f0"/><path d="M145 108h1v2h-1zm0 2h1v1h-1zm28 1h1v1h-1zm-51 1h1v1h-1zm37 0h1v1h-1zm9 0h1v1h-1z" fill="#14bcdf"/><path fill="#a0e3f2" d="M163 109h1v1h-1z"/><path fill="#50cce7" d="M170 112h1v1h-1z"/><path fill="#89d0e7" d="M88 114h1v1h-1z"/><path fill="#c9f0f8" d="M139 114h1v1h-1z"/><path fill="#006392" d="M10 87h1v1h-1z"/><path d="M10 93h1v1h-1zm5 21h1v1h-1z" fill="#88b8cd"/><path fill="#505053" d="M134 96h1v1h-1z"/><path fill="#f3fafa" d="M36 103h1v1h-1z"/><path fill="#6ec6c8" d="M40 112h1v1h-1z"/><path d="M19 90h1v1h-1zm-2 4h1v1h-1zm58 16h1v1h-1zm0 5h2v1h-2zm2 0h1v1h-1zm-55 9h1v1h-1zm12 0h1v1h-1z" fill="#edf8fb"/><path d="M143 96h1v1h-1zm-40 5h2v1h-2zm2 0h1v1h-1z" fill="#6b6b6c"/><path d="M83 112h2v1h-2zm2 0h1v1h-1z" fill="#019bcc"/><path fill="#006592" d="M9 87h1v1H9z"/><path fill="#9dd9da" d="M32 87h1v1h-1z"/><path fill="#ade7f4" d="M102 105h1v1h-1z"/><path d="M123 85h1v1h-1zm41 4h1v1h-1zm-22 5h1v1h-1zm52 5h1v1h-1zm-39 3h1v1h-1z" fill="#e6e6e6"/><path d="M156 85h1v1h-1zm-20 12h1v1h-1zm-16 4h1v1h-1z" fill="#f3f3f4"/><path fill="#30aed5" d="M79 86h1v1h-1z"/><path d="M150 87h1v1h-1zm23 2h1v1h-1zm-46 1h1v1h-1zm-7 1h1v1h-1zm3 7h1v1h-1zm-1 2h1v1h-1zm-11 1h1v1h-1z" fill="#575759"/><path d="M190 88h1v1h-1zm-64 1h1v1h-1zm64 0h1v1h-1zm-82 4h1v1h-1zm63 3h1v1h-1z" fill="#5a5a5c"/><path d="M127 89h1v1h-1zm1 1h1v1h-1zm31 0h1v1h-1zm-26 6h1v1h-1zm-20 2h1v1h-1zm71 2h1v1h-1zm3 0h1v1h-1z" fill="#666668"/><path d="M132 107h1v1h-1zm1 0h1v1h-1zm-25 3h1v1h-1z" fill="#cff1f8"/><path fill="#25a9d3" d="M26 117h1v1h-1z"/><path fill="#b8d4e0" d="M17 107h1v1h-1z"/><path fill="#60d2e9" d="M170 108h1v1h-1z"/><path d="M176 109h1v1h-1zm-57 2h1v1h-1zm10 0h1v1h-1z" fill="#3ac6e4"/><path fill="#a7ddee" d="M34 110h1v1h-1z"/><path d="M127 110h1v1h-1zm44 3h1v1h-1z" fill="#a6e6f3"/><path fill="#ebf3f7" d="M1 115h1v1H1z"/><path fill="#8dd2e8" d="M25 116h1v1h-1z"/><path d="M132 87h1v1h-1zm-19 9h1v1h-1z" fill="#dbdbdc"/><path d="M120 89h1v1h-1zm63 3h1v1h-1zm-63 5h1v2h-1zm73 0h1v1h-1zm-52 1h3v1h-3zm3 0h1v1h-1zm-24 1h1v1h-1z" fill="#efefef"/><path d="M160 107h1v1h-1zm-24 7h1v1h-1z" fill="#c5eef7"/><path d="M16 108h1v1h-1zm-9 5h1v1H7zm1 0h1v1H8zm6 0h1v1h-1z" fill="#247ca3"/><path d="M107 108h1v1h-1zm13 0h1v1h-1zm13 1h1v1h-1zm-31 1h1v1h-1z" fill="#36c6e3"/><path fill="#0bb9de" d="M155 109h1v1h-1z"/><path d="M178 85h1v1h-1zm-22 3h1v1h-1z" fill="#d1d1d2"/><path fill="#5e9fbc" d="M68 90h1v1h-1z"/><path d="M174 90h1v1h-1zm-47 1h1v1h-1z" fill="#8a8a8c"/><path fill="#6ac5c7" d="M33 95h1v1h-1z"/><path d="M12 98h1v1h-1zm5 8h1v1h-1z" fill="#f2f7f9"/><path d="M170 107h1v1h-1zm-29 6h1v1h-1zm33 1h1v1h-1z" fill="#e7f8fc"/><path fill="#e2f6fb" d="M163 108h1v1h-1z"/><path fill="#58d0e8" d="M107 111h1v1h-1z"/><path d="M114 111h1v1h-1zm69 2h1v1h-1z" fill="#c3eef7"/><path d="M89 85h1v1h-1zm-66 38h1v1h-1z" fill="#96d6ea"/><path d="M30 106h1v1h-1zm3 16h1v1h-1z" fill="#18a5d0"/><path d="M169 106h1v1h-1zm6 0h1v1h-1zm-77 1h1v1h-1zm14 0h1v1h-1zm40 0h1v1h-1zm9 0h1v1h-1zm-63 5h1v1h-1zm27 5h1v1h-1z" fill="#fafefe"/><path fill="#67c3e0" d="M35 119h1v1h-1z"/><path d="M141 87h1v1h-1zm18 2h1v1h-1zm8 0h1v1h-1zm0 1h1v1h-1zm-2 2h1v1h-1zm-60 1h1v1h-1zm6 0h1v1h-1zm23 1h1v1h-1zm45 6h1v1h-1zm4 0h1v1h-1zm-78 2h1v1h-1z" fill="#656567"/><path fill="#bae4e5" d="M35 100h1v1h-1z"/><path d="M181 106h1v1h-1zm-14 2h1v1h-1zm26 0h1v1h-1z" fill="#78d8ec"/><path fill="#1abddf" d="M186 108h1v1h-1z"/><path fill="#c3e8f3" d="M23 124h1v1h-1z"/><path d="M61 89h6v1h-6zm6 0h1v1h-1zm-49 24h1v1h-1z" fill="#d2e4ec"/><path fill="#f0fafd" d="M20 108h1v1h-1z"/><path d="M193 111h1v1h-1zm-94 1h1v1h-1z" fill="#caf0f8"/><path d="M6 114h1v1H6zm3 0h4v1H9zm4 0h1v1h-1z" fill="#8cb9cf"/><path fill="#83cee6" d="M24 121h1v1h-1z"/><path fill="#4891b2" d="M11 87h1v1h-1z"/><path d="M19 100h1v1h-1zm71 11h1v1h-1z" fill="#1aa5d0"/><path d="M103 105h1v1h-1zm57 6h1v1h-1zm-50 2h1v1h-1z" fill="#b6eaf5"/><path fill="#ebf4f7" d="M66 124h1v1h-1z"/><path d="M182 110h1v1h-1zm-37 1h1v1h-1zm37 0h1v1h-1zm-56 1h1v1h-1z" fill="#13bbdf"/><path d="M157 112h1v1h-1zm-55 1h1v1h-1z" fill="#5cd0e9"/><path d="M4 113h2v1H4zm2 0h1v1H6zm3 0h4v1H9zm4 0h1v1h-1z" fill="#247ba3"/><path d="M112 113h1v1h-1zm66 1h1v1h-1zm-52 2h1v1h-1z" fill="#bcecf6"/><path d="M89 86h1v1h-1zm-68 20h1v1h-1z" fill="#2faed5"/><path fill="#04b7dc" d="M133 111h1v1h-1z"/><path d="M144 112h1v1h-1zm36 1h1v1h-1z" fill="#ade8f4"/><path fill="#207aa1" d="M15 113h1v1h-1z"/><path d="M110 86h1v1h-1zm48 3h1v1h-1zm34 8h1v1h-1z" fill="#c3c3c3"/><path d="M70 92h1v1h-1zm-1 29h1v1h-1z" fill="#cadfe9"/><path d="M103 107h1v1h-1zm26 1h1v1h-1zm54 0h1v1h-1zm-11 1h1v1h-1zm-22 1h1v1h-1zm36 0h1v1h-1zm0 1h1v1h-1zm-75 1h1v1h-1zm47 0h1v1h-1zm-58 1h1v1h-1zm77 0h1v1h-1z" fill="#6dd5eb"/><path fill="#e5f7fb" d="M104 108h1v1h-1z"/><path d="M178 108h1v1h-1zm-52 1h1v1h-1zm-24 3h1v1h-1z" fill="#2cc3e2"/><path fill="#e0f3f9" d="M21 109h1v1h-1z"/><path fill="#f7fcfd" d="M74 115h1v1h-1z"/><path fill="#a4e5f3" d="M124 115h1v1h-1z"/><path d="M22 88h1v1h-1zm99 18h1v1h-1zm11 0h1v1h-1zm1 0h1v1h-1zm35 0h1v1h-1zm-52 1h1v1h-1zm14 0h1v1h-1zm41 0h1v1h-1zm19 0h1v1h-1zm1 0h1v1h-1zm-93 1h1v1h-1zm-75 5h1v1h-1z" fill="#f9fdfe"/><path fill="#a3dbdc" d="M36 101h1v1h-1z"/><path fill="#bcbcbe" d="M148 101h1v1h-1z"/><path d="M145 106h1v1h-1zm16 3h1v1h-1zm9 2h1v1h-1z" fill="#41c8e5"/><path d="M187 106h1v1h-1zm-77 1h1v1h-1zm9 0h1v1h-1zm70 0h1v1h-1zm-79 7h1v1h-1zm16 3h1v1h-1z" fill="#f5fcfe"/><path d="M158 107h1v1h-1zm-34 6h1v1h-1z" fill="#abe7f3"/><path fill="#accddc" d="M18 111h1v1h-1z"/><path d="M137 112h1v1h-1zm22 1h1v1h-1zm10 0h1v1h-1z" fill="#61d1e9"/><path fill="#63a1bd" d="M64 123h1v1h-1z"/><path d="M0 84h1v1H0zm3 0h8v1H3zm8 0h1v1h-1zm50 4h6v1h-6zm6 0h1v1h-1z" fill="#fafcfd"/><path fill="#7ecdce" d="M34 86h1v1h-1z"/><path d="M178 86h1v1h-1zm-13 3h1v1h-1zm-35 1h1v1h-1zm-29 1h1v1h-1zm72 3h1v1h-1zm-34 3h1v1h-1z" fill="#9b9b9c"/><path fill="#9d9d9f" d="M178 87h1v1h-1z"/><path d="M52 92h1v1h-1zm-13 4h1v1h-1zm6 8h1v1h-1zm0 1h1v1h-1z" fill="#60c1c4"/><path d="M69 103h1v1h-1zm0 1h1v1h-1zm0 12h1v1h-1z" fill="#68a4c0"/><path fill="#d0f1f8" d="M148 114h1v1h-1z"/><path d="M34 85h4v1h-4zm4 0h1v1h-1zm3 0h7v1h-7zm7 0h1v1h-1z" fill="#bfe6e7"/><path fill="#e1e1e1" d="M113 87h1v1h-1z"/><path fill="#bbe5e5" d="M37 103h1v1h-1z"/><path fill="#a2dbdc" d="M38 104h1v1h-1z"/><path fill="#ebf9fd" d="M134 107h1v1h-1z"/><path d="M149 107h1v1h-1zm29 4h1v1h-1zm-5 1h1v1h-1z" fill="#16bcdf"/><path d="M108 111h1v1h-1zm68 0h1v1h-1zm-30 3h1v1h-1z" fill="#cbf0f8"/><path d="M110 85h1v1h-1zm26 1h1v1h-1zm-36 1h1v1h-1zm22 0h1v1h-1zm55 1h1v1h-1zm11 5h1v3h-1zm0 3h1v1h-1zm-52 2h1v2h-1zm0 2h1v1h-1zm-15 2h1v1h-1z" fill="#f6f6f6"/><path fill="#9e9ea0" d="M131 92h1v1h-1z"/><path fill="#099fcd" d="M20 93h1v1h-1z"/><path d="M27 101h1v1h-1zm-1 12h1v1h-1zm0 7h1v1h-1z" fill="#049dcc"/><path fill="#57cfe8" d="M190 109h1v1h-1z"/><path fill="#21c0e1" d="M192 109h1v1h-1z"/><path d="M164 84h1v1h-1zm-61 3h1v1h-1zm29 2h1v1h-1z" fill="#dcdcdc"/><g fill="#5fc1c3"><path d="M54 87h1v1h-1zm-19 1h3v1h-3zm3 0h1v1h-1zm8 0h2v2h-2zm2 0h1v3h-1zm5 0h1v1h-1zm-17 1h1v1h-1zm1 0h1v1h-1zm4 0h2v3h-2zm2 0h1v4h-1z"/><path d="M40 90h3v1h-3zm6 0h2v1h-2zm-6 1h3v1h-3zm7 0h1v1h-1zm1 0h1v2h-1zm-14 1h1v2h-1zm1 0h1v1h-1zm4 0h4v1h-4zm10 0h1v1h-1zm4 0h1v2h-1z"/><path d="M33 93h2v1h-2zm2 0h1v1h-1zm7 0h1v1h-1zm1 0h1v2h-1zm5 0h1v3h-1zm-14 1h3v1h-3zm3 0h1v2h-1zm7 0h1v1h-1zm7 0h2v1h-2zm2 0h1v1h-1zm-17 1h1v1h-1z"/><path d="M47 95h2v1h-2zm2 0h2v1h-2zm2 0h1v1h-1zm-15 1h1v2h-1zm1 0h1v1h-1zm11 0h1v1h-1zm1 0h1v1h-1zm-4 1h1v1h-1zm1 0h1v1h-1zm3 0h1v4h-1zm4 0h1v2h-1zm-14 1h1v1h-1zm4 0h1v2h-1zm-6 1h1v1h-1zm4 0h1v1h-1zm3 0h1v1h-1zm9 0h1v1h-1zm-15 1h1v1h-1zm3 0h4v1h-4zm4 0h1v1h-1zm3 0h1v5h-1zm1 1h1v1h-1zm-10 1h1v1h-1zm1 0h1v1h-1zm7 0h1v3h-1zm6 0h1v2h-1zm-13 1h1v1h-1z"/><path d="M46 103h2v1h-2zm4 0h1v3h-1zm-1 1h1v2h-1zm4 0h1v1h-1zm-12 1h1v1h-1z"/><path d="M47 105h4v1h-4zm4 0h1v1h-1zm-10 1h1v1h-1zm3 0h1v2h-1zm1 0h1v1h-1zm4 0h2v1h-2zm2 0h1v1h-1z"/><path d="M42 107h6v1h-6zm0 1h2v1h-2zm2 0h1v1h-1zm-2 1h1v1h-1zm1 0h1v1h-1zm10 0h1v2h-1zm-10 1h1v1h-1zm6 1h1v1h-1zm4 0h1v1h-1z"/></g><path d="M25 89h3v1h-3zm3 0h1v1h-1z" fill="#d2edf6"/><path d="M129 94h1v1h-1zm54 5h1v1h-1z" fill="#717172"/><path fill="#a6a6a8" d="M184 98h1v1h-1z"/><path d="M149 105h1v1h-1zm5 5h1v1h-1z" fill="#b8ebf5"/><path d="M179 109h2v1h-2zm2 0h1v2h-1zm-9 1h1v1h-1zm9 1h1v1h-1zm-64 1h1v1h-1z" fill="#71d6eb"/><path d="M154 87h1v1h-1zm-49 1h1v1h-1zm62 0h1v1h-1zm-1 1h1v1h-1zm-12 3h1v1h-1zm27 2h1v1h-1zm5 1h1v2h-1zm-81 1h1v1h-1zm36 0h1v1h-1zm20 0h1v1h-1zm9 0h1v1h-1zm16 1h1v1h-1z" fill="#5d5d5f"/><path fill="#12719c" d="M67 91h1v1h-1z"/><path fill="#18a4d0" d="M19 96h1v1h-1z"/><path d="M157 88h1v1h-1zm5 3h1v1h-1z" fill="#c9c9c9"/><path fill="#dff6fa" d="M107 107h1v1h-1z"/><path d="M119 108h1v1h-1zm3 0h1v1h-1zm11 2h1v1h-1zm-21 2h1v1h-1z" fill="#4fcde7"/><path fill="#53cde7" d="M163 110h1v1h-1z"/><path fill="#c8e9f4" d="M75 112h1v1h-1z"/><path fill="#3db3d7" d="M24 122h1v1h-1z"/><g fill="#006694"><path d="M1 87h1v1H1zm1 1h2v1H2zm2 0h1v1H4zm4 0h1v1H8zm1 0h1v1H9zm-7 1h2v1H2zm2 0h1v1H4zm-2 1h1v3H2zm4 0h1v2H6zm1 0h1v2H7z"/><path d="M5 91h3v1H5zm3 0h1v2H8zm-4 1h3v1H4zm3 0h1v2H7zm59 0h1v1h-1zM2 93h1v2H2zm6 0h1v1H8zm54 0h1v3h-1zm3 0h2v3h-2zm2 0h1v1h-1zM6 94h1v1H6zm1 0h1v1H7zm60 0h1v5h-1zM2 95h1v1H2zm1 0h3v1H3zm3 0h1v4H6z"/><path d="M63 95h3v1h-3zM3 96h1v1H3zm59 0h5v1h-5zM4 97h4v1H4zm4 0h1v3H8zm-6 1h5v1H2zm5 0h1v1H7zm55 0h1v10h-1zM2 99h1v12H2zm1 0h1v2H3z"/><path d="M6 99h3v1H6zm3 0h1v2H9zm54 0h4v1h-4zm4 0h1v1h-1zm-63 1h1v1H4zm4 0h1v1H8zm57 0h1v3h-1zm1 0h1v2h-1zm-63 1h1v4H3zm1 0h1v1H4zm5 0h1v2H9zm1 0h1v1h-1zm-5 1h2v4H5zm2 0h1v9H7z"/><path d="M63 102h3v1h-3zm3 0h1v1h-1zm-58 1h1v3H8zm1 0h2v1H9zm2 0h1v1h-1zm53 0h1v2h-1zm1 0h1v1h-1zm-61 1h4v1H4zm8 0h1v6h-1zm51 0h1v3h-1zm-60 1h5v1H3zm61 0h1v5h-1zm3 0h1v2h-1zm-62 1h3v2H5zm3 0h1v5H8zm3 0h1v4h-1zm54 0h2v1h-2z"/><path d="M9 107h5v1H9zm5 0h1v3h-1zm49 0h4v1h-4zm4 0h1v1h-1zm-62 1h4v1H5z"/><path d="M9 108h6v1H9zm6 0h1v1h-1zm47 0h3v1h-3zm3 0h1v2h-1zm-62 1h1v2H3zm1 0h5v1H4zm5 0h5v1H9zm-5 1h4v1H4zm7 0h3v1h-3zm3 0h1v1h-1zm50 0h1v5h-1zm1 0h1v1h-1zm-63 1h1v1H2zm1 0h5v1H3zm5 0h1v1H8zm7 1h1v1h-1zm47 0h2v3h-2zm3 1h2v1h-2zm2 0h1v6h-1zm-2 1h2v2h-2zm-3 1h2v1h-2zm2 0h1v1h-1zm-2 1h1v1h-1zm3 0h2v1h-2zm-2 2h1v1h-1zm1 0h1v1h-1zm-2 1h2v1h-2zm2 0h3v1h-3zm3 0h1v1h-1zm-2 1h1v1h-1zm0 1h1v1h-1zm1 0h1v1h-1zm-2 1h1v1h-1z"/></g><path d="M115 88h1v1h-1zm66 4h1v1h-1z" fill="#bbbbbc"/><path d="M159 88h1v1h-1zm-5 3h1v1h-1z" fill="#5e5e5f"/><path fill="#78d8ed" d="M187 109h1v1h-1z"/><path d="M135 110h1v1h-1zm11 0h1v1h-1z" fill="#b7ebf5"/><path fill="#f4fbfb" d="M54 115h1v1h-1z"/><path d="M175 90h1v1h-1zm-62 1h1v1h-1zm-1 5h1v1h-1z" fill="#aaaaab"/><path d="M11 92h1v1h-1zm49 30h1v1h-1z" fill="#ddebf1"/><path fill="#d0f1f9" d="M146 106h1v1h-1z"/><path d="M189 108h1v1h-1zm2 1h1v1h-1zm-34 2h1v1h-1z" fill="#5ad0e8"/><path d="M109 110h1v1h-1zm22 0h1v1h-1z" fill="#42c9e5"/><path fill="#90bcd0" d="M1 85h1v1H1z"/><path d="M19 95h1v1h-1zm58 16h1v1h-1z" fill="#1ca6d1"/><path fill="#68c5c7" d="M38 102h1v1h-1z"/><path d="M115 107h1v1h-1zm64 0h1v1h-1zm-21 7h1v1h-1z" fill="#daf5fa"/><path fill="#a6e5f3" d="M112 108h1v1h-1z"/><path fill="#01b6dc" d="M191 112h1v1h-1z"/><path fill="#cfedf5" d="M24 114h1v1h-1z"/><path fill="#98d6ea" d="M88 85h1v1h-1z"/><path d="M179 85h1v1h-1zm-5 7h1v1h-1zm-53 2h1v1h-1zm53 3h1v2h-1zm0 2h1v1h-1z" fill="#bfbfc0"/><path d="M174 86h1v1h-1zm-22 2h1v1h-1zm-34 3h1v1h-1zm33 4h1v1h-1zm1 1h1v3h-1zm0 3h1v1h-1z" fill="#cfcfcf"/><path d="M132 90h1v1h-1zm48 2h1v1h-1z" fill="#d0d0d1"/><path d="M158 105h1v1h-1zm-58 6h1v1h-1z" fill="#c8eff8"/><path fill="#30c4e2" d="M120 109h1v1h-1z"/><path d="M114 87h1v1h-1zm6 6h1v1h-1zm-13 7h1v1h-1z" fill="#e9e9e9"/><path d="M12 97h1v1h-1zm7 16h1v1h-1z" fill="#f9fbfc"/><path fill="#84cfd1" d="M35 99h1v1h-1z"/><path d="M21 105h1v1h-1zm2 3h1v1h-1zm11 8h1v1h-1zm0 1h1v1h-1z" fill="#0a9fcd"/><path fill="#20bfe0" d="M106 111h1v1h-1z"/><path fill="#b7e2f0" d="M35 112h1v1h-1z"/><path fill="#f6f6f5" d="M161 84h1v1h-1z"/><path d="M151 91h1v1h-1zm-46 1h1v1h-1zm10 0h1v1h-1zm38 2h1v1h-1z" fill="#747475"/><path d="M103 106h1v1h-1zm20 5h1v1h-1z" fill="#52cde7"/><path fill="#b8d5e1" d="M17 114h1v1h-1z"/><path d="M105 90h1v1h-1zm59 1h1v1h-1z" fill="#d2d2d3"/><path d="M105 108h1v1h-1zm49 3h1v1h-1zm38 3h1v1h-1zm-4 2h1v1h-1z" fill="#e2f7fb"/><path d="M70 113h1v1h-1zm0 1h1v1h-1z" fill="#cee0e9"/><path fill="#94e1f0" d="M167 113h1v1h-1z"/><path d="M159 86h1v1h-1zm9 0h1v1h-1zm-62 8h1v1h-1z" fill="#a6a6a7"/><path fill="#006493" d="M10 100h1v1h-1z"/><path d="M30 102h1v1h-1zm6 12h1v1h-1zm54 1h1v1h-1z" fill="#f0f9fc"/><path fill="#c4e8e9" d="M38 105h1v1h-1z"/><path fill="#77d8ed" d="M144 111h1v1h-1z"/><path fill="#e5f4f9" d="M23 121h1v1h-1z"/><path d="M122 85h1v1h-1zm7 3h1v1h-1zm42 15h1v1h-1z" fill="#fcfcfd"/><path d="M153 86h1v1h-1zm-20 6h1v1h-1zm-11 4h1v1h-1zm37 0h1v1h-1zm-51 1h1v1h-1zm5 0h1v1h-1zm-1 5h1v1h-1z" fill="#939394"/><path d="M163 86h1v1h-1zm-14 1h1v1h-1zm13 0h1v1h-1zm28 0h1v1h-1zm1 0h1v1h-1zm-31 1h1v1h-1zm13 2h1v1h-1zm0 1h1v1h-1zm18 4h1v1h-1zm-51 1h1v1h-1zm33 1h1v2h-1zm-61 1h1v1h-1zm73 0h1v1h-1zm-12 1h1v1h-1zm12 0h1v1h-1zm-82 1h1v1h-1z" fill="#565658"/><path fill="#58bedd" d="M22 90h1v1h-1z"/><path fill="#5096b5" d="M60 91h1v1h-1z"/><path fill="#cdcdcd" d="M106 91h1v1h-1z"/><path fill="#f3fafd" d="M92 114h1v1h-1z"/><path fill="#f5f9fa" d="M59 121h1v1h-1z"/><path fill="#b7b7b8" d="M185 92h1v1h-1z"/><path fill="#8cdeef" d="M130 111h1v1h-1z"/><path d="M154 113h1v1h-1zm21 0h1v1h-1z" fill="#ecfafc"/><path fill="#6ba7c1" d="M67 122h1v1h-1z"/><path d="M148 86h1v1h-1zm36 9h1v1h-1z" fill="#c0c0c1"/><path fill="#edf7fb" d="M29 97h1v1h-1z"/><path fill="#eef9f9" d="M32 97h1v1h-1z"/><path fill="#f4f9fa" d="M16 104h1v1h-1z"/><path fill="#8bdeef" d="M150 106h1v1h-1z"/><path d="M137 108h1v1h-1zm-11 2h1v1h-1zm-11 1h1v1h-1z" fill="#70d6eb"/><path fill="#5cd0e8" d="M137 109h1v1h-1z"/><path d="M110 87h1v1h-1zm13 1h1v1h-1zm2 12h1v1h-1z" fill="#808082"/><path d="M58 92h1v1h-1zm0 26h1v1h-1z" fill="#f5f9fb"/><path fill="#62a1be" d="M69 92h1v1h-1z"/><path fill="#cee2ea" d="M70 94h1v1h-1z"/><path d="M69 113h1v1h-1zm0 1h1v1h-1z" fill="#68a3be"/><path d="M92 87h1v1h-1zm0 25h1v1h-1zm-68 4h1v1h-1z" fill="#e4f4f9"/><path d="M106 88h1v1h-1zm24 3h1v1h-1zm36 0h1v1h-1zm-5 1h1v1h-1zm-55 1h1v1h-1zm1 2h1v1h-1zm85 5h1v1h-1z" fill="#606062"/><path d="M142 90h1v1h-1zm-43 4h1v1h-1z" fill="#e5e5e6"/><path d="M61 100h1v1h-1zm0 1h1v1h-1z" fill="#096b98"/><path d="M127 109h1v1h-1zm38 1h1v1h-1z" fill="#49cbe6"/><path fill="#3b89ad" d="M61 121h1v1h-1z"/><path fill="#e7f1f5" d="M11 93h1v1h-1z"/><path fill="#def6fa" d="M180 106h1v1h-1z"/><path fill="#c9f0f7" d="M107 114h1v1h-1z"/><path d="M189 86h1v1h-1zm-25 2h1v1h-1zm-64 4h1v1h-1z" fill="#79797a"/><path fill="#cdecee" d="M31 88h1v1h-1z"/><path fill="#b1d0de" d="M11 90h1v1h-1z"/><path fill="#74c7df" d="M30 90h1v1h-1z"/><path fill="#9ed8eb" d="M28 96h1v1h-1z"/><path d="M184 107h1v1h-1zm-23 4h1v1h-1z" fill="#9ee3f2"/><path fill="#e9f2f6" d="M70 120h1v1h-1z"/><path fill="#d4d4d4" d="M99 89h1v1h-1z"/><path d="M152 91h1v1h-1zm-48 1h1v1h-1zm6 0h2v1h-2zm2 0h1v1h-1z" fill="#747476"/><path fill="#4fcce7" d="M166 110h1v1h-1z"/><path fill="#bde6e7" d="M56 111h1v1h-1z"/><path d="M27 90h1v1h-1zm1 11h1v1h-1z" fill="#62c1df"/><path d="M115 110h1v1h-1zm14 4h1v1h-1z" fill="#75d8ec"/><path d="M69 112h1v1h-1zm0 3h1v1h-1z" fill="#68a4bf"/><path d="M124 112h1v1h-1zm23 1h1v1h-1z" fill="#50cde7"/><path fill="#6cc5e1" d="M33 123h1v1h-1z"/><path d="M77 85h1v1h-1zm-59 17h1v1h-1zm58 7h1v1h-1z" fill="#abdeee"/><path d="M80 86h6v1h-6zm6 0h1v1h-1z" fill="#32afd5"/><path fill="#019ccc" d="M78 87h1v1h-1z"/><path d="M139 88h1v1h-1zm-11 6h1v1h-1zm-26 5h1v1h-1zm77 0h1v1h-1z" fill="#707072"/><path fill="#f8fdfd" d="M57 89h1v1h-1z"/><path fill="#7bb0c7" d="M10 92h1v1h-1z"/><path d="M100 93h1v1h-1zm61 0h1v1h-1z" fill="#69696b"/><path fill="#65c3e0" d="M18 98h1v1h-1z"/><path fill="#03b7dc" d="M190 112h1v1h-1z"/><path fill="#81dbee" d="M179 113h1v1h-1z"/><path d="M76 85h1v1h-1zm-59 15h1v1h-1zm6 12h1v1h-1z" fill="#ddf2f8"/><path d="M126 87h1v1h-1zm-21 2h1v1h-1zm48 4h1v1h-1zm-21 1h1v1h-1z" fill="#6d6d6f"/><path d="M173 88h1v1h-1zm-50 11h1v1h-1z" fill="#565659"/><path fill="#0f6f9a" d="M10 98h1v1h-1z"/><path fill="#b0e8f4" d="M160 106h1v1h-1z"/><path fill="#36c6e4" d="M113 111h1v1h-1z"/><path fill="#beecf6" d="M174 113h1v1h-1z"/><path fill="#f3fbfe" d="M124 116h1v1h-1z"/><path fill="#5ec0c2" d="M49 87h1v1h-1z"/><path fill="#bfecf6" d="M132 114h1v1h-1z"/><path d="M146 86h1v1h-1zm-38 15h1v1h-1z" fill="#ababac"/><path d="M147 86h1v1h-1zm36 11h1v1h-1z" fill="#d4d4d5"/><path d="M167 110h1v1h-1zm-39 2h1v1h-1z" fill="#07b8dd"/><path fill="#c4e7f0" d="M30 89h1v1h-1z"/><path fill="#85b7cc" d="M10 94h1v1h-1z"/><path d="M23 91h1v1h-1zm4 4h1v1h-1zm-7 8h1v1h-1zm6 16h1v1h-1z" fill="#12a2cf"/><path d="M115 91h1v1h-1zm77 10h1v1h-1z" fill="#a3a3a4"/><path d="M184 94h1v1h-1zm-83 4h1v1h-1z" fill="silver"/><path d="M158 96h1v1h-1zm30 1h1v1h-1zm-68 3h1v1h-1zm50 0h1v1h-1z" fill="#eeeeef"/><path d="M186 107h1v1h-1zm-66 3h1v1h-1z" fill="#7cd9ed"/><path fill="#43b5d9" d="M22 108h1v1h-1z"/><path d="M161 113h1v1h-1zm29 3h1v1h-1z" fill="#eaf9fc"/><path fill="#1b779f" d="M63 122h1v1h-1z"/><path d="M107 84h1v1h-1zm1 0h1v1h-1zm16 0h2v1h-2zm2 0h1v1h-1zm8 0h1v1h-1zm1 0h1v1h-1zm4 0h6v1h-6zm6 0h1v1h-1zm4 0h1v1h-1zm1 0h1v1h-1zm3 0h1v1h-1zm1 0h1v1h-1zm18 0h1v1h-1zm1 0h1v1h-1zm6 0h12v1h-12zm12 0h1v1h-1zm-87 2h1v1h-1zm27 0h1v1h-1zm-32 1h1v1h-1zm29 0h1v1h-1zm-30 1h1v1h-1zm59 3h1v1h-1zm26 0h1v1h-1zm-24 3h1v1h-1zm-23 8h1v1h-1zm41 0h15v1h-15zm15 0h1v1h-1zm-90 1h1v1h-1zm46 0h1v1h-1zm7 0h1v1h-1z" fill="#fcfcfc"/><path fill="#818183" d="M129 90h1v1h-1z"/><path fill="#7bcbcd" d="M32 94h1v1h-1z"/><path fill="#eaeaeb" d="M115 99h1v1h-1z"/><path fill="#45cae5" d="M134 112h1v1h-1z"/><path d="M169 88h1v1h-1zm-47 4h1v1h-1zm49 0h1v1h-1zm-36 1h1v1h-1zm52 4h1v1h-1zm-77 3h1v1h-1z" fill="#b3b3b4"/><path fill="#d2f3f9" d="M104 105h1v1h-1z"/><path d="M139 105h1v1h-1zm-19 6h1v1h-1zm29 2h1v1h-1z" fill="#a5e5f3"/><path d="M129 110h1v1h-1zm23 1h1v1h-1z" fill="#3dc7e4"/><path fill="#45b5d9" d="M34 112h1v1h-1z"/><path d="M16 114h1v1h-1zm50 9h1v1h-1z" fill="#93bfd2"/><path d="M162 83h1v1h-1zm-26 2h1v1h-1zm41 1h1v1h-1zm-46 1h1v1h-1zm-6 5h1v1h-1zm53 5h1v1h-1zm-40 1h1v1h-1zm9 4h1v1h-1zm23 0h1v1h-1zm-57 1h1v1h-1zm9 0h1v1h-1zm-11 1h1v1h-1z" fill="#fbfbfb"/><path fill="#c5dde7" d="M12 85h1v1h-1z"/><path fill="#c2edf7" d="M138 105h1v1h-1z"/><path fill="#2cc2e2" d="M155 110h1v1h-1z"/><path d="M76 86h1v1h-1zm-45 19h1v1h-1zm3 18h1v1h-1z" fill="#bbe4f1"/><path d="M151 86h1v1h-1zm-7 2h1v1h-1zm36 0h7v1h-7zm7 0h1v1h-1zm-58 1h1v1h-1zm50 4h1v1h-1zm-27 8h1v1h-1z" fill="#d8d8d9"/><path d="M158 91h1v1h-1zm-34 2h2v1h-2zm2 0h1v1h-1zm66 5h1v1h-1z" fill="#cfcfd0"/><path d="M28 98h1v1h-1zm-5 13h1v1h-1z" fill="#a7dced"/><path fill="#aae7f3" d="M148 108h1v1h-1z"/><path d="M24 124h1v1h-1zm3 0h5v1h-5zm5 0h1v1h-1z" fill="#aedfef"/><path d="M103 88h1v1h-1zm71 0h1v1h-1zm-41 3h1v1h-1zm13 5h1v1h-1z" fill="#868687"/><path fill="#1ea7d2" d="M27 99h1v1h-1z"/><path fill="#90d4e9" d="M25 117h1v1h-1z"/><path d="M151 85h1v1h-1zm1 0h1v1h-1zm11 4h1v1h-1zm-54 1h1v1h-1zm10 3h1v1h-1zm28 1h1v1h-1zm13 0h1v1h-1zm-48 1h1v1h-1zm59 7h1v1h-1z" fill="#ededed"/><path fill="#eef8f9" d="M30 93h1v1h-1z"/><path d="M192 96h1v1h-1zm-87 4h1v1h-1zm-2 2h1v1h-1z" fill="#b0b0b1"/><path fill="#8ed4d5" d="M37 102h1v1h-1z"/><path fill="#82dbee" d="M181 108h1v1h-1z"/><path d="M124 85h2v1h-2zm2 0h1v1h-1zm27 0h1v1h-1zm-53 3h1v1h-1zm22 5h1v1h-1zm5 0h1v1h-1zm24 7h1v1h-1zm23 1h1v1h-1z" fill="#cccccd"/><path fill="#6ac4e1" d="M29 90h1v1h-1z"/><path fill="#44c9e5" d="M188 109h1v1h-1z"/><path fill="#26aad2" d="M77 113h1v1h-1z"/><path d="M155 90h1v1h-1zm0 3h1v1h-1z" fill="#98989a"/><path d="M112 91h1v1h-1zm35 5h1v1h-1z" fill="#bcbcbd"/><path d="M36 100h1v1h-1zm6 13h1v1h-1z" fill="#77cacc"/><path fill="#c8e9ea" d="M39 111h1v1h-1z"/><path d="M147 85h1v1h-1zm46 2h1v8h-1zm-46 2h1v1h-1zm46 6h1v1h-1z" fill="#ebebec"/><path d="M157 86h1v1h-1zm32 10h1v1h-1zm-10 1h1v1h-1z" fill="#d3d3d3"/><path d="M169 91h1v1h-1zm7 0h1v1h-1zm-6 2h1v1h-1zm-30 5h1v1h-1zm5 0h1v1h-1zm29 4h1v1h-1z" fill="#efeff0"/><path fill="#9c9c9e" d="M107 103h1v1h-1z"/><path fill="#e1f4f3" d="M37 104h1v1h-1z"/><path d="M54 106h1v1h-1zm0 1h1v1h-1z" fill="#62c3c4"/><path d="M151 109h1v1h-1zm-21 1h1v1h-1z" fill="#73d7eb"/><path d="M84 113h1v1h-1zm1 0h1v1h-1z" fill="#24a9d3"/><path d="M108 89h1v1h-1zm34 0h1v1h-1zm45 3h1v1h-1z" fill="#e0e0e1"/><path d="M154 109h1v1h-1zm26 3h1v1h-1z" fill="#4dcce7"/><path d="M156 87h1v1h-1zm-49 2h1v2h-1zm0 2h1v1h-1zm25 0h1v1h-1zm-4 2h1v1h-1zm62 5h1v1h-1zm1 0h1v1h-1z" fill="#cacacb"/><path fill="#b9b9b9" d="M143 95h1v1h-1z"/><path fill="#afafb1" d="M148 96h1v1h-1z"/><path d="M103 109h1v1h-1zm35 3h1v1h-1zm8 1h1v1h-1z" fill="#65d3ea"/><path d="M166 108h1v1h-1zm-40 3h1v1h-1z" fill="#6fd6eb"/><path d="M35 118h1v1h-1zm-11 5h1v1h-1z" fill="#54bcdc"/><path d="M134 85h1v1h-1zm-30 5h1v1h-1zm59 4h1v1h-1zm11 2h1v1h-1zm-27 1h1v1h-1zm-37 1h1v1h-1z" fill="#bebebf"/><path fill="#97d7d8" d="M33 86h1v1h-1z"/><path d="M162 88h1v1h-1zm20 10h1v1h-1z" fill="#727274"/><path fill="#d1d1d1" d="M99 91h1v1h-1z"/><path d="M29 96h1v1h-1zm4 11h1v1h-1z" fill="#ebf7fb"/><path fill="#c3e8e8" d="M32 96h1v1h-1z"/><path fill="#b6e2e4" d="M41 114h1v1h-1z"/><path fill="#b5e2e3" d="M54 114h1v1h-1z"/><path fill="#ecf7fb" d="M31 104h1v1h-1z"/><path fill="#3dc7e5" d="M169 110h1v1h-1z"/><path d="M57 86h1v1h-1zm-22 16h1v1h-1z" fill="#f8fcfc"/><path d="M31 87h1v1h-1zm0 8h1v1h-1zm3 5h1v1h-1zm4 7h1v1h-1zm0 7h1v1h-1z" fill="#edf8f8"/><path fill="#bee5e6" d="M56 88h1v1h-1z"/><path fill="#408cae" d="M60 92h1v1h-1z"/><path fill="#a2a2a4" d="M193 99h1v1h-1z"/><path fill="#2dadd4" d="M77 108h1v1h-1z"/><path fill="#5bd0e8" d="M101 113h1v1h-1z"/><path fill="#8cbace" d="M8 114h1v1H8z"/><path fill="#83cfe6" d="M25 115h1v1h-1z"/><path d="M32 85h1v1h-1zm6 26h1v1h-1zm3 4h12v1H41zm12 0h1v1h-1z" fill="#f5fbfb"/><path d="M154 93h1v1h-1zm11 3h1v1h-1z" fill="#5f5f60"/><path d="M149 108h1v3h-1zm4 1h1v1h-1zm6 1h1v1h-1zm-10 1h1v1h-1zm10 0h1v1h-1zm26 0h1v1h-1z" fill="#12bbde"/><path d="M113 109h1v1h-1zm-2 2h1v1h-1zm52 0h1v1h-1z" fill="#1bbedf"/><path fill="#029ccc" d="M27 119h1v1h-1z"/><path d="M192 85h1v1h-1zm-88 9h1v1h-1z" fill="#dfdfe0"/><path d="M152 86h1v1h-1zm-25 1h1v1h-1zm35 2h1v1h-1zm21 5h1v1h-1zm0 1h1v1h-1z" fill="#d9d9d9"/><path d="M79 87h1v1h-1zm10 0h1v1h-1zm-69 14h1v1h-1zm1 3h1v1h-1z" fill="#0099ca"/><path d="M137 106h1v1h-1zm-3 2h1v1h-1z" fill="#79d9ed"/><path fill="#c9eaf5" d="M20 107h1v1h-1z"/><path fill="#8fdfef" d="M131 111h1v1h-1z"/><path fill="#81b4ca" d="M1 114h1v1H1z"/><path d="M92 86h1v1h-1zM29 99h1v1h-1z" fill="#e9f6fa"/><path d="M126 86h1v1h-1zm-12 4h1v1h-1zm49 2h1v1h-1z" fill="#929293"/><path d="M80 87h6v1h-6zm6 0h1v1h-1zm-65 5h1v1h-1zm-1 2h1v3h-1zm0 3h1v3h-1zm0 3h1v1h-1zm9 6h1v1h-1zm4 13h1v1h-1zm0 1h1v1h-1zm-7 2h6v1h-6zm6 0h1v1h-1z" fill="#009aca"/><path fill="#0ca0ce" d="M27 100h1v1h-1z"/><path fill="#e3eef3" d="M63 124h1v1h-1z"/><path d="M171 87h1v1h-1zm-40 3h1v1h-1zm-26 8h1v1h-1z" fill="#b4b4b6"/><path d="M189 89h1v1h-1zm-78 1h1v1h-1zm0 1h1v1h-1zm41 3h1v1h-1zm-48 1h1v1h-1z" fill="#cacaca"/><path fill="#81cee6" d="M19 92h1v1h-1z"/><path d="M126 107h1v1h-1zm28 0h1v1h-1zm33 3h1v1h-1zm-44 1h1v1h-1zm-44 2h1v1h-1zm39 1h1v1h-1z" fill="#d8f4fa"/><path fill="#8bd2e8" d="M79 114h1v1h-1z"/><g fill="#fff"><path d="M0 0h199v82H0zm199 0h1v199h-1zM0 82h199v1H0zm0 1h160v1H0zm160 0h1v2h-1zm6 0h33v1h-33zM13 84h18v1H13zm18 0h1v1h-1zm26 0h18v1H57zm18 0h1v1h-1zm18 0h12v1H93zm12 0h1v1h-1zm6 0h11v1h-11zm11 0h1v1h-1zm5 0h4v1h-4zm4 0h1v1h-1zm5 0h1v1h-1zm1 0h1v20h-1zm20 0h3v1h-3zm9 0h4v1h-4zm4 0h1v1h-1zm5 0h2v2h-2zm2 0h1v1h-1zm16 0h6v1h-6zM14 85h16v2H14zm16 0h1v2h-1zm28 0h16v2H58zm16 0h1v26h-1zm19 0h12v1H93zm12 0h1v1h-1zm6 0h10v1h-10zm10 0h1v2h-1zm7 0h2v1h-2zm2 0h1v3h-1zm27 0h3v1h-3zm3 0h1v1h-1zm6 0h3v1h-3zm3 0h1v1h-1zm25 0h5v11h-5zM93 86h10v1H93zm10 0h1v1h-1zm9 0h9v1h-9zm16 0h2v1h-2zm47 0h1v1h-1zm1 0h1v1h-1zM14 87h16v1H14zm16 0h1v1h-1zm28 0h16v1H58zm35 0h4v112h-4zm4 0h1v112h-1zm20 0h4v1h-4zm4 0h1v1h-1zm8 0h1v1h-1zM14 88h5v2h-5zm5 0h1v1h-1zm39 0h1v1h-1zm13 0h3v111h-3zm46 0h2v1h-2zm2 0h1v1h-1zm11 0h1v1h-1zM19 89h1v1h-1zm98 0h2v1h-2zm2 0h1v1h-1zm69 0h1v3h-1zM13 90h5v1h-5zm5 0h1v1h-1zm80 0h1v1h-1zm10 0h1v1h-1zm35 0h3v4h-3zm3 0h1v4h-1zm17 0h1v1h-1zm1 0h1v1h-1zm14 0h10v1h-10zM12 91h5v4h-5zm5 0h1v1h-1zm161 0h1v5h-1zm-21 1h1v12h-1zm18 0h3v4h-3zm13 0h1v1h-1zm-19 1h1v1h-1zm-50 1h1v12h-1zm24 0h3v1h-3zm3 0h1v1h-1zm12 0h1v1h-1zm10 0h1v1h-1zm1 0h1v1h-1zM12 95h4v1h-4zm4 0h1v1h-1zm14 0h1v6h-1zm68 0h4v1h-4zm4 0h1v1h-1zm11 0h6v1h-6zM13 96h2v1h-2zm2 0h1v6h-1zm83 0h2v8h-2zm2 0h1v1h-1zm15 0h4v1h-4zm60 0h3v1h-3zm3 0h1v1h-1zm16 0h5v1h-5zM14 97h1v3h-1zm86 0h1v1h-1zm15 0h4v1h-4zm60 0h1v8h-1zm20 0h4v1h-4zM31 98h1v3h-1zm85 0h3v8h-3zm80 0h3v101h-3zM32 99h1v4h-1zm74 0h3v1h-3zm3 0h1v1h-1zm29 0h8v5h-8zm8 0h1v5h-1zm12 0h11v5h-11zm11 0h1v6h-1zm-155 1h1v1h-1zm19 0h1v5h-1zm-17 1h1v2h-1z"/><path d="M30 101h3v1h-3zm70 0h1v3h-1zm15 0h4v4h-4zm-100 1h1v1h-1zm19 0h1v5h-1zm67 0h1v2h-1zm19 0h1v3h-1zm75 0h4v5h-4zm-179 1h1v1h-1zm16 0h2v1h-2zm104 0h10v1h-10z"/><path d="M176 103h23v1h-23zm-141 1h1v5h-1zm63 0h6v1h-6zm6 0h1v1h-1zm8 0h87v1h-87zm-95 1h1v1h-1z"/><path d="M33 105h3v1h-3zm3 0h1v5h-1zm62 0h1v1h-1zm8 0h28v1h-28zm28 0h1v1h-1zm13 0h1v5h-1zm5 0h4v1h-4zm4 0h1v1h-1zm5 0h18v1h-18zm18 0h1v1h-1zm5 0h1v1h-1zm1 0h1v1h-1zm3 0h11v1h-11zm-151 1h1v9h-1zm61 0h1v1h-1zm8 0h1v1h-1zm4 0h3v1h-3zm3 0h1v1h-1zm3 0h3v1h-3zm3 0h1v1h-1zm4 0h1v1h-1zm1 0h1v1h-1zm4 0h3v1h-3zm3 0h1v1h-1zm3 0h1v1h-1zm8 0h1v93h-1zm10 0h1v1h-1zm1 0h1v1h-1zm3 0h1v1h-1zm5 0h6v1h-6zm6 0h1v1h-1zm4 0h2v1h-2zm2 0h1v1h-1zm6 0h1v1h-1zm9 0h11v1h-11zm-169 1h1v1h-1z"/><path d="M34 107h3v1h-3zm161 0h4v1h-4zm-176 1h1v1h-1zm1 1h1v90h-1zm15 0h2v1h-2zm1 1h1v1h-1zm62 0h1v1h-1zm49 0h1v1h-1zm47 0h5v89h-5zm-173 1h1v10h-1zm53 0h1v1h-1zm24 0h1v1h-1zm77 0h1v1h-1z"/><path d="M193 113h6v86h-6zm-171 1h1v6h-1zm1 0h1v5h-1zm82 0h1v85h-1zm6 0h1v85h-1zm32 0h1v85h-1zm1 0h1v85h-1zm6 0h1v85h-1z"/><path d="M18 115h5v5h-5zm19 0h1v1h-1zm20 0h1v84h-1zm41 0h25v84H98zm25 0h1v84h-1zm8 0h56v84h-56zm56 0h1v84h-1zm-149 1h1v83h-1zm18 0h1v83h-1zm18 0h1v83h-1z"/><path d="M91 116h32v83H91zm39 0h57v83h-57zm62 0h7v83h-7zM0 117h23v3H0zm39 0h18v82H39z"/><path d="M75 117h48v82H75zm54 0h58v82h-58zm62 0h8v82h-8zm-154 1h20v81H37z"/><path d="M124 118h75v81h-75zm-101 1h1v1h-1zm-23 1h22v1H0zm22 0h1v1h-1zm-22 1h21v78H0zm21 0h1v1h-1zm37 1h1v77h-1z"/><path d="M70 122h129v77H70zm-35 1h24v76H35zm24 0h1v76h-1zm1 1h1v75h-1zm1 0h1v75h-1z"/><path d="M68 124h131v75H68zm-47 1h1v74h-1zm1 0h1v74h-1zm40 0h1v74h-1z"/><path d="M67 125h132v74H67z"/><path d="M23 126h176v73H23zM0 199h199v1H0zm199 0h1v1h-1z"/></g><path d="M34 88h1v1h-1zm19 7h1v1h-1zm-11 1h1v1h-1zm1 0h1v1h-1zm4 0h1v1h-1z" fill="#5fc2c3"/><path d="M99 88h1v1h-1zm71 1h1v1h-1zm-23 10h1v1h-1z" fill="#ededee"/><path d="M76 113h1v1h-1zm-42 8h1v1h-1z" fill="#4db9db"/><path fill="#0cb9de" d="M128 113h1v1h-1z"/><path fill="#bfe6e8" d="M52 85h1v1h-1z"/><path d="M138 88h1v6h-1zm0 6h1v1h-1zm36 6h1v1h-1z" fill="#bebebe"/><path fill="#609fbc" d="M67 90h1v1h-1z"/><path d="M100 109h1v1h-1zm57 1h1v1h-1z" fill="#58cfe8"/><path fill="#e6f5fa" d="M24 117h1v1h-1z"/><path d="M138 87h1v1h-1zm21 8h1v1h-1z" fill="#bdbdbd"/><path d="M34 89h1v1h-1zm1 0h1v1h-1zm-2 1h1v1h-1zm12 1h1v1h-1zm5 1h1v1h-1zm-11 1h1v1h-1zm1 3h1v1h-1zm2 1h1v2h-1zm1 0h1v1h-1zm4 0h1v1h-1zm1 0h1v1h-1zm2 1h1v1h-1zm-8 1h1v1h-1zm9 4h1v1h-1zm0 1h1v1h-1zm-9 1h1v1h-1zm1 0h1v1h-1zm4 4h1v1h-1zm0 1h1v1h-1zm1 0h1v1h-1z" fill="#60c2c3"/><path d="M174 85h1v1h-1zm-27 13h1v1h-1z" fill="#e7e7e8"/><path fill="#12729c" d="M68 91h1v1h-1z"/><path d="M27 93h1v1h-1zm-1 6h1v1h-1zm1 3h1v1h-1zm-3 7h1v1h-1zm54 1h1v1h-1zm-53 1h1v1h-1zm2 4h1v1h-1zm0 3h1v1h-1z" fill="#039ccc"/><path fill="#818182" d="M141 95h1v1h-1z"/><path fill="#207aa2" d="M13 103h1v1h-1z"/><path fill="#19bde0" d="M107 112h1v1h-1z"/><path fill="#3486a9" d="M0 86h1v1H0z"/><path d="M3 90h1v1H3zm0 1h1v1H3zm1 2h1v1H4zm6 17h1v1h-1z" fill="#006793"/><path d="M63 91h3v1h-3zm3 0h1v1h-1zm-50 18h1v1h-1z" fill="#13729c"/><path d="M106 95h1v1h-1zm26 1h1v1h-1z" fill="#848485"/><path d="M122 109h1v1h-1zm63 1h1v1h-1zm-18 2h1v1h-1z" fill="#11bbde"/><path d="M43 113h1v1h-1zm1 0h1v1h-1zm5 0h2v1h-2zm2 0h1v1h-1z" fill="#76cacc"/><path fill="#4a93b3" d="M60 119h1v1h-1z"/><path d="M135 86h1v1h-1zm58 14h1v1h-1z" fill="#949496"/><path d="M75 87h1v21h-1zM29 98h1v1h-1zm46 10h1v1h-1zm-53 14h1v1h-1zm13 0h1v1h-1z" fill="#eef8fc"/><path d="M160 87h1v1h-1zm13 0h1v1h-1zm-61 12h1v1h-1z" fill="#535355"/><path d="M110 90h1v1h-1zm-12 3h1v1h-1zm91 4h1v1h-1z" fill="#dbdbdb"/><path fill="#73c8e2" d="M18 100h1v1h-1z"/><path fill="#a2e5f2" d="M188 114h1v1h-1z"/><path fill="#beedf6" d="M127 116h1v1h-1z"/><path fill="#f5fbfd" d="M36 120h1v1h-1z"/><path d="M164 86h1v1h-1zm-55 2h1v1h-1zm56 0h1v1h-1zm-64 1h1v1h-1zm1 0h1v1h-1zm13 4h1v1h-1zm71 0h1v1h-1zm-53 2h1v1h-1zm-21 2h1v1h-1zm0 4h1v1h-1zm-4 1h1v1h-1z" fill="#636365"/><path fill="#b5b5b7" d="M187 94h1v1h-1z"/><path d="M157 109h1v1h-1zm9 2h1v1h-1zm-14 2h1v1h-1zm1 0h1v1h-1z" fill="#7bd9ed"/><path d="M173 86h1v1h-1zm-29 1h1v1h-1zm-34 2h1v1h-1zm80 10h1v1h-1zm1 0h1v1h-1zm-42 2h1v1h-1zm1 0h1v1h-1z" fill="#7a7a7c"/><path d="M135 87h1v1h-1zm-23 1h1v1h-1zm9 2h1v1h-1zm14 1h1v1h-1zm-26 1h1v1h-1zm5 0h1v1h-1zm21 3h1v1h-1zm18 0h1v1h-1zm35 4h1v1h-1z" fill="#757577"/><path fill="#b0b0b0" d="M174 87h1v1h-1z"/><path fill="#67c2e0" d="M35 114h1v1h-1z"/><path fill="#016895" d="M63 121h1v1h-1z"/><path fill="#e5f5f5" d="M56 85h1v1h-1z"/><path d="M36 86h2v1h-2zm2 0h1v1h-1zm4 0h1v1h-1zm1 0h3v1h-3zm3 0h1v1h-1zm7 0h1v1h-1z" fill="#7ecdcf"/><path d="M13 87h1v1h-1zm45 3h1v1h-1z" fill="#f9fbfd"/><path d="M106 90h1v1h-1zm-4 12h1v1h-1z" fill="#e6e6e7"/><path fill="#1ba5d0" d="M21 91h1v1h-1z"/><path fill="#227aa1" d="M15 106h1v1h-1z"/><path d="M105 106h1v1h-1zm75 1h1v1h-1zm-60 7h1v1h-1z" fill="#e9f9fc"/><path d="M109 112h1v1h-1zm27 0h1v1h-1zm-8 2h1v1h-1z" fill="#12bbdf"/><path d="M42 114h10v1H42zm10 0h1v1h-1z" fill="#b7e3e4"/><path fill="#afddec" d="M30 92h1v1h-1z"/><path d="M150 105h1v1h-1zm-15 1h1v1h-1zm16 1h1v1h-1zm-48 7h1v1h-1zm15 0h1v1h-1z" fill="#d4f3f9"/><path fill="#06b8dd" d="M185 109h1v1h-1z"/><path fill="#3788ab" d="M17 111h1v1h-1z"/><path d="M189 112h1v1h-1zm-73 1h1v1h-1z" fill="#96e1f1"/><path fill="#56cfe8" d="M129 113h1v1h-1z"/><path d="M12 84h1v1h-1zm57 4h1v1h-1z" fill="#fcfdfe"/><path fill="#016894" d="M9 89h1v1H9z"/><path fill="#2aacd4" d="M19 94h1v1h-1z"/><path fill="#96d6d7" d="M32 95h1v1h-1z"/><path d="M111 108h1v1h-1zm35 1h1v1h-1zm10 5h1v1h-1z" fill="#c6eff7"/><path d="M22 109h1v1h-1zm58 5h7v1h-7zm7 0h1v1h-1z" fill="#8cd2e8"/><path fill="#96d5e9" d="M90 114h1v1h-1z"/><path fill="#5297b6" d="M62 122h1v1h-1z"/><path fill="#2b81a6" d="M66 122h1v1h-1z"/><path fill="#d2d2d2" d="M133 85h1v1h-1z"/><path fill="#77d8ec" d="M165 111h1v1h-1z"/><path fill="#42b5d8" d="M26 123h1v1h-1z"/><path d="M35 87h4v1h-4zm4 0h1v1h-1zm3 0h3v1h-3zm3 0h1v1h-1zm5 0h1v1h-1z" fill="#5dc0c2"/><path d="M170 109h1v1h-1zm19 0h1v1h-1zm-73 1h1v1h-1zm9 0h1v1h-1zm53 2h1v1h-1z" fill="#1bbee0"/><path d="M171 109h1v1h-1zm4 0h1v1h-1zm-46 3h1v1h-1z" fill="#43c9e5"/><path fill="#f6fcfc" d="M55 115h1v1h-1z"/><path d="M152 87h1v1h-1zm37 3h1v2h-1zm-79 1h1v1h-1zm79 1h1v1h-1zm0 3h1v1h-1zm-38 1h1v3h-1zm0 3h1v1h-1z" fill="#cecece"/><path d="M176 87h1v1h-1zm-29 3h1v3h-1zm22 0h1v1h-1zm-22 3h1v1h-1z" fill="#ececed"/><path fill="#4fbadb" d="M32 108h1v1h-1z"/><path fill="#0ba0cd" d="M28 103h1v1h-1z"/><path d="M138 106h1v1h-1zm12 2h1v1h-1zm-33 1h1v1h-1zm33 0h1v1h-1zm34 0h1v1h-1zm-54 3h1v1h-1zm9 1h1v1h-1z" fill="#6ed5eb"/><path d="M145 87h1v1h-1zm-39 10h1v1h-1z" fill="#7e7e80"/><path d="M169 87h1v1h-1zm-48 5h1v1h-1zm34 8h1v1h-1z" fill="#959597"/><path d="M92 88h1v23h-1zm0 23h1v1h-1z" fill="#e4f5fa"/><path d="M161 88h1v1h-1zm-39 2h1v1h-1zm32 0h1v1h-1zm-1 1h1v1h-1zm-13 4h1v1h-1zm41 0h1v2h-1zm-15 1h3v1h-3zm3 0h1v1h-1zm-44 1h8v1h-8zm8 0h1v1h-1zm48 0h1v1h-1zm-68 2h1v1h-1zm69 0h1v1h-1z" fill="#5e5e60"/><path fill="#579ab9" d="M10 96h1v1h-1z"/><path fill="#8cb9ce" d="M7 114h1v1H7z"/><path fill="#e5f5fa" d="M22 123h1v1h-1z"/><path fill="#1fbfe1" d="M190 110h1v1h-1z"/><path fill="#e5f7fc" d="M175 112h1v1h-1z"/><path d="M165 83h1v1h-1zm-59 1h1v1h-1zm3 0h1v1h-1zm24 0h1v1h-1zm13 0h2v1h-2zm2 0h1v1h-1zm7 0h1v1h-1zm23 0h1v1h-1zm14 0h1v1h-1zm-15 1h1v1h-1zm-34 4h1v1h-1zm3 0h1v1h-1zm-29 1h1v1h-1zm45 0h1v1h-1zm15 1h1v1h-1zm-59 3h1v1h-1zm-17 2h1v1h-1zm94 3h1v1h-1zm0 1h1v1h-1zm-2 2h1v1h-1zm-42 1h1v1h-1zm1 0h1v1h-1zm22 0h1v1h-1z" fill="#fdfdfd"/><path d="M57 90h1v1h-1zm-26 6h1v1h-1zm26 16h1v1h-1z" fill="#f9fdfd"/><path d="M100 91h1v1h-1zm17 1h1v1h-1zm11 0h1v1h-1zm-26 5h1v1h-1zm76 4h1v1h-1z" fill="#a4a4a5"/><path d="M70 93h1v1h-1zm0 5h1v1h-1zm0 1h1v4h-1zm0 4h1v3h-1zm0 3h1v5h-1zm0 5h1v1h-1z" fill="#cee2eb"/><path d="M18 103h1v1h-1zm15 21h1v1h-1z" fill="#cbebf5"/><path fill="#e8f5fb" d="M35 111h1v1h-1z"/><path d="M125 111h1v1h-1zm61 1h1v1h-1z" fill="#23c0e1"/><path fill="#1cbedf" d="M168 111h1v1h-1z"/><path d="M127 88h1v1h-1zm41 1h1v1h-1z" fill="#a7a7a9"/><path fill="#e1edf2" d="M70 90h1v1h-1z"/><path fill="#87ddef" d="M156 108h1v1h-1z"/><path fill="#d7f3f9" d="M187 111h1v1h-1z"/><path fill="#e1f6fb" d="M164 114h1v1h-1z"/><path d="M34 84h21v1H34zm21 0h1v1h-1zm2 1h1v1h-1zm-23 23h1v1h-1zm-12 4h1v1h-1zm16 3h1v1h-1zm-15 5h1v1h-1zm-1 1h1v1h-1zm-1 3h1v1h-1z" fill="#fcfefe"/><path d="M134 87h1v1h-1zm0 4h1v1h-1z" fill="#4c4c4e"/><path d="M31 107h1v1h-1zm-5 8h1v1h-1z" fill="#1da6d1"/><path fill="#4ccce6" d="M175 108h1v1h-1z"/><path fill="#94e0f0" d="M137 113h1v1h-1z"/><path fill="#ace7f4" d="M148 107h1v1h-1z"/><path d="M190 108h1v1h-1zm-42 2h1v1h-1zm-28 2h1v1h-1z" fill="#a7e6f3"/><path fill="#def2f8" d="M24 115h1v1h-1z"/><path fill="#f4fafb" d="M40 115h1v1h-1z"/><path fill="#c5dce6" d="M16 105h1v1h-1z"/><path d="M151 106h1v1h-1zm23 1h1v1h-1zm-3 7h1v1h-1z" fill="#e1f7fb"/><path fill="#247ca2" d="M3 113h1v1H3z"/><path d="M127 86h1v1h-1zm-12 1h1v1h-1zm60 4h1v1h-1zm6 0h1v1h-1zm5 0h1v1h-1zm-16 8h1v1h-1zm-67 4h1v1h-1z" fill="#f1f1f1"/><path fill="#076a97" d="M13 104h1v1h-1z"/><path d="M169 107h1v1h-1zm-60 7h1v1h-1z" fill="#d0f2f9"/><path d="M177 107h1v1h-1zm17 1h1v1h-1zm-40 4h1v1h-1z" fill="#e3f7fb"/><path d="M135 108h1v1h-1zm25 4h1v1h-1z" fill="#b5eaf5"/><path d="M131 109h1v1h-1zm33 0h1v1h-1zm14 0h1v1h-1zm-54 1h1v1h-1z" fill="#28c1e1"/><path d="M9 98h1v1H9zm-7 14h1v1H2z" fill="#016694"/><path fill="#fdfdfe" d="M13 99h1v1h-1z"/><path fill="#6dc6e1" d="M31 106h1v1h-1z"/><path fill="#e3f4f9" d="M75 111h1v1h-1z"/><path fill="#37c5e4" d="M169 111h1v1h-1z"/><path fill="#61d2ea" d="M192 111h1v1h-1z"/><path d="M77 114h1v1h-1zm-52 4h1v1h-1z" fill="#89d1e7"/><path d="M172 86h1v1h-1zm-18 15h1v1h-1z" fill="#7f7f81"/><path d="M61 94h1v5h-1zm0 5h1v1h-1zm0 3h1v4h-1zm0 4h1v8h-1zm0 8h1v1h-1z" fill="#096c98"/><path fill="#b6b6b8" d="M187 96h1v1h-1z"/><path fill="#88d0e7" d="M30 104h1v1h-1z"/><path fill="#55bddd" d="M20 105h1v1h-1z"/><path d="M146 105h1v1h-1zm7 2h1v1h-1zm14 7h1v1h-1z" fill="#edfafd"/><path fill="#2bc2e2" d="M169 108h1v1h-1z"/><path d="M171 97h1v1h-1zm-67 2h1v1h-1zm85 0h1v1h-1zm-66 2h1v1h-1z" fill="#79797b"/><path d="M135 105h1v1h-1zm-36 1h1v1h-1zm61 8h1v1h-1z" fill="#ecf9fc"/><path d="M77 84h1v1h-1zm-56 4h1v1h-1zm8 0h1v1h-1zm-13 9h1v1h-1zm0 1h1v1h-1zm2 7h1v1h-1zm52 16h1v1h-1z" fill="#fbfdfe"/><path d="M58 91h1v1h-1zm-44 10h1v1h-1zm44 15h1v1h-1zm0 1h1v1h-1z" fill="#f6fafb"/><path d="M129 91h1v1h-1zm5 6h1v1h-1z" fill="#5a5a5b"/><path fill="#408daf" d="M12 101h1v1h-1z"/><path d="M161 83h1v1h-1zM56 84h1v1h-1zm54 0h1v1h-1zm13 0h1v1h-1zm9 0h1v1h-1zm6 0h1v1h-1zm13 0h1v1h-1zm1 0h1v1h-1zm4 0h1v1h-1zm15 0h1v1h-1zm3 0h1v1h-1zm-43 1h1v1h-1zm-33 2h1v1h-1zm-85 1h1v1h-1zm107 0h1v1h-1zm58 1h1v1h-1zm-2 8h1v1h-1zm18 0h1v1h-1zm-94 1h1v2h-1zm58 0h1v1h-1zm37 0h1v1h-1zm-95 2h1v1h-1zm95 1h1v1h-1zm-19 1h1v1h-1zm18 0h1v1h-1zm-80 1h1v1h-1zm7 0h1v1h-1zm26 0h1v1h-1zm9 0h1v1h-1zm14 0h1v1h-1zM0 116h1v1H0zm1 0h1v1H1z" fill="#fefefe"/><path d="M147 88h1v1h-1zm-5 3h1v2h-1zm42 1h1v1h-1zm-42 1h1v1h-1zm-36 5h1v1h-1zm64 0h1v1h-1z" fill="#e4e4e5"/><path fill="#65c3c6" d="M32 91h1v1h-1z"/><path d="M144 106h1v1h-1zm-6 1h1v1h-1zm38 3h1v1h-1zm3 0h1v1h-1z" fill="#7edaed"/><path d="M162 107h2v1h-2zm2 0h1v1h-1zm-65 3h1v1h-1zm36 4h1v1h-1zm6 0h1v1h-1zm-14 3h1v1h-1z" fill="#f6fcfe"/><path fill="#a7e5f3" d="M104 109h1v1h-1z"/><path fill="#bed7e3" d="M59 115h1v1h-1z"/><path d="M183 93h1v1h-1zm0 3h1v1h-1z" fill="#dadada"/><path fill="#6dc7c8" d="M34 97h1v1h-1z"/><path fill="#5498b7" d="M11 99h1v1h-1z"/><path d="M160 105h1v1h-1zm-19 1h1v5h-1zm0 5h1v1h-1zm38 3h1v1h-1z" fill="#dbf5fa"/><path d="M173 108h1v1h-1zm-64 3h1v1h-1zm1 1h1v1h-1zm67 0h1v1h-1zm-52 3h1v1h-1z" fill="#4acbe6"/><path fill="#93bed2" d="M2 85h1v1H2z"/><path fill="#c5c5c6" d="M171 86h1v1h-1z"/><path d="M77 88h1v19h-1zm0 19h1v1h-1z" fill="#2cacd4"/><path d="M141 90h1v3h-1zm0 3h1v1h-1z" fill="#a0a0a1"/><path d="M123 94h1v1h-1zm-13 3h1v1h-1zm14 3h1v1h-1z" fill="#6e6e70"/><path fill="#9c9c9c" d="M160 97h1v1h-1z"/><path d="M20 106h1v1h-1zm56 5h1v1h-1z" fill="#92d4e9"/><path fill="#0b9fce" d="M22 107h1v1h-1z"/><path fill="#22c0e1" d="M127 112h1v1h-1z"/><path d="M142 86h1v1h-1zm-20 5h1v1h-1zm2 10h1v1h-1z" fill="#78787a"/><path d="M129 92h1v1h-1zm51 6h1v1h-1z" fill="#838384"/><path d="M152 108h1v1h-1zm22 2h1v1h-1zm-52 3h1v1h-1zm4 0h1v1h-1zm56 0h1v1h-1z" fill="#61d2e9"/><path d="M70 91h1v1h-1zm0 27h1v1h-1z" fill="#cfe2eb"/><path fill="#97e1f1" d="M188 110h1v1h-1z"/><path fill="#f9fcfe" d="M36 112h1v1h-1z"/><path d="M1 84h1v1H1zm1 0h1v1H2zm66 4h1v1h-1zm-30 22h1v1h-1zm24 14h1v1h-1z" fill="#f9fcfd"/><path d="M134 86h1v1h-1zm8 1h1v1h-1zm11 1h1v1h-1zm0 1h1v1h-1zm-52 3h2v1h-2zm2 0h1v1h-1zm3 0h1v1h-1zm7 0h1v1h-1zm40 4h1v3h-1zm0 3h1v1h-1z" fill="#757576"/><path d="M138 86h1v1h-1zm-33 5h1v1h-1zm4 0h1v1h-1zm23 1h1v1h-1z" fill="#ccc"/><path d="M57 91h1v20h-1zm0 20h1v1h-1z" fill="#f9fefd"/><path d="M174 106h1v1h-1zm20 1h1v1h-1zM67 124h1v1h-1z" fill="#fdffff"/><path fill="#b8e4e4" d="M39 107h1v1h-1z"/><path fill="#a9e6f3" d="M183 112h1v1h-1z"/><path fill="#d4eef6" d="M24 119h1v1h-1z"/><path fill="#7fcdd0" d="M40 86h1v1h-1z"/><path d="M40 89h1v1h-1zm5 1h1v1h-1zm-9 2h1v1h-1zm8 1h1v1h-1zm5 0h3v1h-3zm3 0h1v1h-1zm-19 1h1v1h-1zm12 0h1v1h-1zm6 2h1v1h-1zm1 0h1v1h-1zm-13 1h1v1h-1zm6 1h3v1h-3zm3 0h1v1h-1zm-2 1h1v1h-1zm1 0h1v1h-1zm0 1h1v1h-1zm-9 1h1v1h-1zm1 0h1v1h-1zm5 1h2v1h-2zm2 0h1v1h-1zm-4 4h1v1h-1zm1 0h1v1h-1zm3 2h1v1h-1zm-1 1h1v1h-1zm1 0h1v1h-1zm-1 1h1v1h-1zm-3 2h1v1h-1zm1 0h1v1h-1z" fill="#60c2c4"/><path d="M11 100h1v1h-1zm57 20h1v1h-1z" fill="#267da4"/><path d="M140 85h1v1h-1zm9 0h1v1h-1zm42 0h1v1h-1zm-59 8h1v1h-1z" fill="#c2c2c2"/><path d="M78 89h1v18h-1zm-51 5h1v1h-1zm-1 2h1v1h-1zm52 11h1v2h-1zm0 2h1v1h-1z" fill="#059dcc"/><path fill="#4992b3" d="M10 90h1v1h-1z"/><path fill="#8b8b8d" d="M109 86h1v1h-1z"/><path fill="#adadaf" d="M148 95h1v1h-1z"/><path fill="#838385" d="M177 99h1v1h-1z"/><path fill="#a6dced" d="M76 110h1v1h-1z"/><path fill="#23a9d3" d="M26 116h1v1h-1z"/><path d="M33 87h1v1h-1zm6 17h1v1h-1z" fill="#6cc6c8"/><path fill="#a6dddd" d="M33 97h1v1h-1z"/><path fill="#23a9d2" d="M79 113h1v1h-1z"/><path d="M0 93h1v1H0zm0 1h1v1H0zm15 13h1v1h-1z" fill="#0a6d98"/><path fill="#515153" d="M173 100h1v1h-1z"/><path d="M150 111h1v1h-1zm5 2h1v1h-1z" fill="#79d8ec"/><path fill="#abdfdf" d="M39 113h1v1h-1z"/><path d="M163 83h1v1h-1zm-47 4h1v1h-1zm61 0h1v1h-1zm-79 2h1v1h-1zm59 1h1v1h-1zm30 1h1v1h-1zm-63 12h10v1h-10zm10 0h1v1h-1zm15 0h1v1h-1zm1 0h1v1h-1zm23 0h1v1h-1z" fill="#f9f9f9"/><path d="M173 85h1v1h-1zm-68 18h1v1h-1z" fill="#c1c1c1"/><path fill="#11719b" d="M62 91h1v1h-1z"/><path d="M131 94h1v1h-1zm14 2h1v1h-1zm39 3h1v1h-1zm-80 1h1v1h-1z" fill="#6c6c6e"/><path d="M103 96h1v1h-1zm18 4h1v1h-1z" fill="#b1b1b2"/><path fill="#def2f3" d="M38 106h1v1h-1z"/><path fill="#c0e7e7" d="M55 114h1v1h-1z"/><path fill="#c8eaea" d="M55 85h1v1h-1z"/><path d="M166 86h1v1h-1zm26 1h1v1h-1zm-83 2h1v1h-1zm42 1h1v1h-1zm1 0h1v1h-1zm16 0h1v1h-1zm-26 5h1v1h-1zm-36 8h1v1h-1z" fill="#a8a8a9"/><path fill="#e4eff4" d="M69 89h1v1h-1z"/><path d="M169 89h1v1h-1zm-3 5h1v1h-1zm-52 3h1v1h-1zm62 3h1v1h-1zm-20 1h1v1h-1z" fill="#e5e5e5"/><path d="M140 105h1v1h-1zm19 0h1v1h-1zm3 8h1v1h-1zm10 0h1v1h-1z" fill="#a2e4f2"/><path fill="#8fdff0" d="M104 106h1v1h-1z"/><path d="M4 86h1v1H4zm1 0h1v1H5z" fill="#3284a8"/><path d="M182 105h1v1h-1zm-16 7h1v1h-1zm-32 1h1v1h-1z" fill="#a0e4f2"/><path fill="#0ea1ce" d="M77 112h1v1h-1z"/><path d="M141 85h3v1h-3zm3 0h1v1h-1zm36 0h10v1h-10zm10 0h1v1h-1zm-16 8h1v1h-1zm10 3h1v1h-1zm-70 2h1v2h-1zm0 2h1v1h-1zm79 1h1v1h-1z" fill="#c1c1c2"/><path d="M163 88h1v1h-1zm-62 2h1v1h-1zm45 7h1v1h-1z" fill="#8c8c8d"/><path fill="#93d6dc" d="M31 89h1v1h-1z"/><path fill="#919193" d="M120 90h1v1h-1z"/><path d="M172 107h1v1h-1zm16 0h1v1h-1zm-76 7h1v1h-1zm42 0h1v1h-1zm11 0h1v1h-1z" fill="#f8fdfe"/><path d="M192 108h1v1h-1zm-85 2h1v1h-1zm64 1h1v1h-1z" fill="#55cee8"/><path fill="#2e83a8" d="M16 113h1v1h-1z"/><path fill="#addfee" d="M24 113h1v1h-1z"/><path d="M27 116h1v1h-1zm0 1h1v1h-1z" fill="#049ccc"/><path d="M175 87h1v1h-1zm-74 10h1v1h-1zm46 3h1v1h-1z" fill="#ececec"/><path d="M32 89h1v1h-1zm0 3h1v1h-1z" fill="#6dc6c8"/><path fill="#c9dfe8" d="M11 91h1v1h-1z"/><path d="M182 92h1v1h-1zm-81 8h1v1h-1z" fill="#c7c7c8"/><path d="M175 107h1v1h-1zm-50 9h1v1h-1z" fill="#d7f4fa"/><path fill="#69a5c0" d="M69 118h1v1h-1z"/><path fill="#75acc5" d="M11 88h1v1h-1z"/><path fill="#61c2c3" d="M33 89h1v1h-1z"/><path d="M135 92h1v1h-1zm-12 3h1v1h-1z" fill="#878789"/><path d="M179 94h1v1h-1zm0 1h1v1h-1zm-41 2h1v1h-1z" fill="#d7d7d7"/><path fill="#3989ac" d="M17 112h1v1h-1z"/><path d="M34 114h1v1h-1zm0 5h1v1h-1z" fill="#16a3cf"/><path d="M4 85h5v1H4zm5 0h1v1H9z" fill="#99c2d4"/><path d="M121 88h1v1h-1zm47 5h1v1h-1zm-70 1h1v1h-1zm5 1h1v1h-1zm56 3h1v1h-1zm-3 4h1v1h-1z" fill="#f7f7f7"/><path fill="#20bfe1" d="M170 110h1v1h-1z"/><path fill="#ceecf5" d="M91 114h1v1h-1z"/><path fill="#edf4f8" d="M2 115h1v1H2z"/><path fill="#73c8e3" d="M25 119h1v1h-1z"/><path d="M109 108h1v1h-1zm19 0h1v1h-1zm40 0h1v1h-1zm-55 2h1v1h-1zm19 1h1v1h-1zm23 0h1v1h-1zm-55 1h1v1h-1z" fill="#35c5e3"/><path d="M91 111h1v1h-1zm-15 3h1v1h-1z" fill="#8fd3e8"/><path fill="#e9f7fa" d="M74 114h1v1h-1z"/><path d="M111 88h1v1h-1zm4 1h1v1h-1zm25 1h1v1h-1zm20 2h1v1h-1zm-50 1h1v1h-1zm52 0h1v1h-1zm-22 1h1v1h-1zm-32 2h1v1h-1zm72 3h1v1h-1zm-67 1h1v1h-1zm-4 2h1v1h-1z" fill="#626264"/><path fill="#71c8c9" d="M37 101h1v1h-1z"/><path fill="#cfebf5" d="M30 103h1v1h-1z"/><path d="M22 106h1v1h-1zm9 3h1v1h-1zm-4 5h1v1h-1zm-2 8h1v1h-1z" fill="#029ccb"/><path fill="#d6f4f9" d="M157 114h1v1h-1z"/><path d="M92 85h1v1h-1zm-60 20h1v1h-1zm4 8h1v1h-1z" fill="#f4fbfd"/><path d="M132 86h1v1h-1zm-23 18h1v1h-1z" fill="#e3e3e4"/><path d="M54 89h1v1h-1zm0 1h1v1h-1zm0 3h1v1h-1zm0 1h1v1h-1zm0 3h1v3h-1zm0 3h1v1h-1zm0 8h1v4h-1zm-13 4h1v1h-1zm13 0h1v1h-1z" fill="#62c2c4"/><path fill="#d6e6ed" d="M59 90h1v1h-1z"/><path fill="#878788" d="M161 91h1v1h-1z"/><path d="M13 101h1v1h-1zm5 9h1v1h-1z" fill="#bdd7e3"/><path d="M19 106h1v1h-1zm73 7h1v1h-1z" fill="#e8f6fa"/><path d="M143 107h1v1h-1zm-20 1h1v1h-1zm65 4h1v1h-1zm-69 2h1v1h-1z" fill="#cdf1f8"/><path d="M158 110h1v1h-1zm0 1h1v1h-1z" fill="#6cd5ea"/><path fill="#d3edee" d="M33 85h1v1h-1z"/><path fill="#9ad7ea" d="M80 85h1v1h-1z"/><path d="M12 88h1v1h-1zM0 115h1v1H0z" fill="#ecf4f7"/><path fill="#f1f9fc" d="M20 89h1v1h-1z"/><path d="M118 90h1v1h-1zm38 3h1v6h-1zm3 0h1v1h-1zm-57 1h1v1h-1zm11 0h1v1h-1zm1 0h1v1h-1zm-9 5h1v1h-1zm51 0h1v1h-1zm-43 3h1v1h-1z" fill="#dedede"/><path d="M126 91h1v1h-1zm38 3h1v1h-1zm-26 1h1v1h-1zm46 2h1v1h-1z" fill="#bdbdbe"/><path d="M102 106h1v1h-1zm54 3h1v1h-1zm-52 1h1v1h-1zm49 1h1v1h-1zm11 1h1v1h-1z" fill="#39c6e4"/><path d="M132 108h1v1h-1zm-3 1h1v1h-1zm-12 1h1v1h-1zm-12 1h1v1h-1zm14 1h1v1h-1zm34 0h1v1h-1z" fill="#3bc7e4"/><path d="M132 109h1v1h-1zm-10 1h1v1h-1zm-19 2h1v1h-1z" fill="#0fbade"/><path fill="#3eb3d8" d="M33 110h1v1h-1z"/><path fill="#68a5bf" d="M17 113h1v1h-1z"/><path fill="#eaf6fb" d="M74 113h1v1h-1z"/><path fill="#85cfd2" d="M39 105h1v1h-1z"/><path d="M102 108h1v1h-1zm12 1h1v1h-1z" fill="#62d2ea"/><path fill="#67d3ea" d="M162 108h1v1h-1z"/><path d="M182 109h1v1h-1zm-60 2h1v1h-1zm14 0h1v1h-1zm-23 1h1v1h-1z" fill="#10bbde"/><path fill="#1c779f" d="M2 113h1v1H2z"/><path d="M106 86h1v1h-1zm55 4h1v1h-1z" fill="#a1a1a2"/><path d="M141 89h1v1h-1zm-7 4h1v1h-1zm38 1h1v1h-1zm-63 9h1v1h-1z" fill="#9e9e9f"/><path fill="#5e9fbb" d="M62 90h1v1h-1z"/><path d="M70 95h1v1h-1zm0 1h1v1h-1zm0 16h1v1h-1zm0 3h1v1h-1z" fill="#cee1ea"/><path fill="#d5f3fa" d="M155 107h1v1h-1z"/><path fill="#97d6ea" d="M79 85h1v1h-1z"/><path d="M146 88h1v1h-1zm-36 11h1v1h-1zm66 0h1v1h-1zm-70 5h1v1h-1z" fill="#e8e8e8"/><path fill="#8dbbcf" d="M60 90h1v1h-1z"/><path d="M190 90h1v4h-1zm-18 2h1v1h-1zm-65 1h1v1h-1zm66 0h1v1h-1zm12 0h1v1h-1zm5 1h1v1h-1zm-81 2h1v1h-1zm1 0h1v1h-1zm-6 1h1v1h-1zm-1 2h1v1h-1zm51 1h1v1h-1z" fill="#5b5b5d"/><path fill="#63c2c4" d="M37 100h1v1h-1z"/><path fill="#aee8f4" d="M183 106h1v1h-1z"/><path fill="#eef8fb" d="M89 115h1v1h-1z"/><path d="M135 94h1v1h-1zm-26 3h1v1h-1z" fill="#858587"/><path fill="#f7feff" d="M105 105h1v1h-1z"/><path fill="#caebeb" d="M56 86h1v1h-1z"/><path fill="#6ec4de" d="M30 91h1v1h-1z"/><path d="M126 108h1v1h-1zm28 0h1v1h-1zm32 1h1v1h-1zm-82 3h1v1h-1z" fill="#30c4e3"/><path fill="#95e1f0" d="M189 113h1v1h-1z"/><path fill="#f7fafb" d="M58 119h1v1h-1z"/><path d="M155 87h1v1h-1zm-49 2h1v1h-1zm29 9h1v2h-1zm0 2h1v1h-1z" fill="#979798"/><path d="M133 88h1v1h-1zm0 1h1v1h-1z" fill="#848486"/><path d="M140 106h1v1h-1zm16 4h1v1h-1zm0 1h1v1h-1z" fill="#1abde0"/><path fill="#6bd4ea" d="M158 109h1v1h-1z"/><path d="M76 84h1v1h-1zm15 0h1v1h-1zm-60 19h1v1h-1zm-14 1h1v1h-1zm15 0h1v1h-1zm67 1h1v1h-1zm-66 1h1v1h-1zm74 0h2v1h-2zm2 0h1v1h-1zm-3 1h1v1h-1zm89 1h1v1h-1zm-159 3h1v1h-1zm62 3h1v1h-1zm63 0h1v1h-1zm-69 1h1v1h-1zm37 1h1v1h-1zm-92 1h1v1h-1zm-1 5h1v1h-1zm-13 3h9v1h-9zm9 0h1v1h-1z" fill="#fdfeff"/><path fill="#b6e3e4" d="M53 114h1v1h-1z"/><path d="M189 87h1v1h-1zm-65 7h2v1h-2zm2 0h1v1h-1zm4 0h1v1h-1z" fill="#6f6f71"/><path fill="#dfecf2" d="M60 89h1v1h-1z"/><path d="M150 107h1v1h-1zm22 4h1v1h-1zm9 1h1v1h-1z" fill="#72d6eb"/><path d="M111 86h1v1h-1zm59 5h1v1h-1zm-44 1h1v1h-1z" fill="#f1f1f2"/><path d="M90 87h1v1h-1zM19 97h1v2h-1zm0 2h1v1h-1z" fill="#16a4d0"/><path fill="#f4f8fb" d="M59 89h1v1h-1z"/><path d="M155 89h1v1h-1zm-32 2h1v1h-1zm-4 1h1v1h-1zm36 2h1v5h-1zm15 1h1v1h-1zm-15 4h1v1h-1z" fill="#989899"/><path fill="#62c2df" d="M20 91h1v1h-1z"/><path d="M28 91h1v1h-1zm6 27h1v1h-1z" fill="#0da0ce"/><path fill="#bbebf6" d="M148 106h1v1h-1z"/><path fill="#fcfdfd" d="M19 109h1v1h-1z"/><path d="M55 88h1v3h-1zm0 3h1v1h-1zm0 3h1v7h-1zm0 7h1v5h-1zm0 5h1v2h-1zm0 2h1v1h-1zm-14 5h1v1h-1zm12 0h1v1h-1zm1 0h1v1h-1z" fill="#75c9cb"/><path d="M104 88h1v1h-1zm10 1h1v1h-1zm53 2h1v1h-1zm-66 2h1v1h-1zm62 0h2v1h-2zm2 0h1v1h-1zm16 0h1v1h-1zm8 7h2v1h-2zm2 0h1v1h-1z" fill="#646466"/><path d="M136 107h1v1h-1zm-13 5h1v1h-1zm33 1h1v1h-1z" fill="#66d3ea"/><path d="M151 105h1v1h-1zm33 1h1v1h-1zm-11 1h1v1h-1z" fill="#f4fcfd"/><path fill="#66c4e1" d="M21 107h1v1h-1z"/><path d="M78 86h1v1h-1zM27 98h1v1h-1z" fill="#34afd6"/><path fill="#f4f4f5" d="M136 92h1v1h-1z"/><path fill="#d8eff7" d="M17 96h1v1h-1z"/><path d="M17 97h1v1h-1zm0 1h1v1h-1z" fill="#d3eef7"/><path fill="#adadad" d="M177 101h1v1h-1z"/><path fill="#36c5e3" d="M106 112h1v1h-1z"/><path fill="#7bcccd" d="M32 88h1v1h-1z"/><path fill="#059ecd" d="M78 88h1v1h-1z"/><path fill="#a0c6d7" d="M11 97h1v1h-1z"/><path d="M106 102h1v1h-1zm1 0h1v1h-1zm3 0h1v1h-1z" fill="#636364"/><path fill="#7bdaed" d="M116 108h1v1h-1z"/><path fill="#3ec8e4" d="M178 110h1v1h-1z"/><path d="M124 86h1v1h-1zm37 0h1v1h-1zm-46 4h1v1h-1zm45 3h1v1h-1zm1 4h1v1h-1z" fill="#949495"/><path d="M179 88h1v1h-1zm-1 10h1v1h-1zm-55 4h1v1h-1zm49 0h1v1h-1z" fill="#d7d7d8"/><path fill="#a7dbed" d="M28 97h1v1h-1z"/><path fill="#bbecf6" d="M124 108h1v1h-1z"/><path fill="#1ba6d0" d="M90 110h1v1h-1z"/><path fill="#87d0e7" d="M89 114h1v1h-1z"/><path d="M135 85h1v1h-1zm16 2h1v2h-1zm0 2h1v1h-1zm-28 4h1v1h-1zm51 2h1v1h-1zm-53 1h1v1h-1zm31 4h1v1h-1z" fill="#cdcdce"/><path fill="#545457" d="M108 87h1v1h-1z"/><path fill="#63c0e0" d="M29 92h1v1h-1z"/><path d="M161 108h1v1h-1zm15 0h1v1h-1zm8 0h1v1h-1zm5 3h1v1h-1zm-26 2h1v1h-1zm23 0h1v1h-1z" fill="#5ed1e9"/><path fill="#17bddf" d="M162 111h1v1h-1z"/><path fill="#3dc8e5" d="M114 112h1v1h-1z"/><path fill="#dae9ef" d="M59 120h1v1h-1z"/><path d="M75 85h1v1h-1zm-58 18h1v1h-1z" fill="#f8fcfe"/><path d="M111 87h1v1h-1zm-10 1h1v1h-1zm70 0h1v1h-1zm0 11h1v1h-1z" fill="#b5b5b6"/><path fill="#5ec0de" d="M28 90h1v1h-1z"/><path fill="#b1e0e3" d="M31 93h1v1h-1z"/><path fill="#86d1e8" d="M19 104h1v1h-1z"/><path fill="#2dc2e2" d="M119 110h1v1h-1z"/><path fill="#aeaeaf" d="M151 93h1v1h-1z"/><path fill="#c4c4c4" d="M162 94h1v1h-1z"/><path d="M21 110h1v1h-1zm70 5h1v1h-1z" fill="#f8fcfd"/><path d="M0 111h1v1H0zm61 4h1v2h-1zm0 2h1v1h-1z" fill="#096c97"/><path d="M108 86h1v1h-1zm22 6h1v1h-1zm42 3h1v1h-1z" fill="#7d7d7f"/><path fill="#666667" d="M126 88h1v1h-1z"/><path fill="#6d6d6e" d="M128 91h1v1h-1z"/><path d="M26 95h1v1h-1zm-6 7h1v1h-1zm7 1h1v1h-1zm-5 2h1v1h-1zm57 7h3v1h-3zm3 0h1v1h-1zm4 0h2v1h-2zm2 0h1v1h-1z" fill="#019bcb"/><path fill="#66c3e0" d="M18 99h1v1h-1z"/><path d="M121 107h1v1h-1zm22 3h1v1h-1zm-43 4h1v1h-1zm52 0h1v1h-1zm1 0h1v1h-1zm17 0h1v1h-1z" fill="#cef1f8"/><path fill="#eefafd" d="M156 107h1v1h-1z"/><path fill="#a9a9ab" d="M148 100h1v1h-1z"/><path d="M19 102h1v1h-1zm9 0h1v1h-1z" fill="#36b0d6"/><path fill="#37c6e3" d="M191 113h1v1h-1z"/><path fill="#e2f4f4" d="M56 114h1v1h-1z"/><path d="M125 88h1v1h-1zm48 4h1v1h-1zm12 3h1v2h-1zm-13 1h1v1h-1zm13 1h1v1h-1zm-35 3h1v1h-1z" fill="#555557"/><path fill="#70c7e2" d="M21 90h1v1h-1z"/><path d="M16 99h1v1h-1zm101 8h1v1h-1zm-80 9h1v1h-1zm154 0h1v1h-1zm-3 1h1v1h-1z" fill="#fbfefe"/><path fill="#73c9cb" d="M40 107h1v1h-1z"/><path d="M125 108h1v1h-1zm46 4h1v1h-1z" fill="#6ad4ea"/><path fill="#b2e1e2" d="M39 112h1v1h-1z"/><path d="M24 91h3v1h-3zm3 0h1v1h-1zm5 18h1v1h-1z" fill="#14a3cf"/><path fill="#15739d" d="M61 91h1v1h-1z"/><path d="M70 97h1v1h-1zm0 19h1v1h-1z" fill="#cee1eb"/><path d="M136 105h1v1h-1zm39 5h1v1h-1zm-24 2h1v1h-1z" fill="#a4e5f2"/><path d="M144 108h1v1h-1zm0 1h1v1h-1zm-36 4h1v1h-1zm6 0h1v1h-1zm54 0h1v1h-1z" fill="#60d1e9"/><path d="M162 86h1v1h-1zm-54 2h1v1h-1zm33 9h1v1h-1zm3 0h1v1h-1zm9 3h1v1h-1zm24 0h1v1h-1z" fill="#717173"/><path d="M156 90h1v1h-1zm-31 1h1v1h-1zm-2 1h1v1h-1zm-7 2h1v1h-1zm6 8h1v1h-1z" fill="#e0e0e0"/><path fill="#e6f5f6" d="M35 101h1v1h-1z"/><path fill="#29abd4" d="M20 104h1v1h-1z"/><path fill="#48cbe6" d="M113 108h1v1h-1z"/><path fill="#76c9e3" d="M24 112h1v1h-1z"/><path fill="#9ec5d6" d="M60 121h1v1h-1z"/><path fill="#c5eff7" d="M146 107h1v1h-1z"/><path fill="#d8f0f7" d="M36 116h1v1h-1z"/><path d="M32 84h1v1h-1zm60 0h1v1h-1zm-61 1h1v1h-1zm-18 4h1v1h-1zm0 8h1v1h-1zm3 3h1v1h-1zm18 1h1v1h-1zm-3 1h1v1h-1zm4 1h1v1h-1zm87 3h1v1h-1zm3 0h2v1h-2zm2 0h1v1h-1zm43 0h1v1h-1zm-72 3h1v1h-1zm97 0h1v1h-1zm-173 4h1v1h-1zm121 0h1v1h-1zm23 1h1v1h-1zm-149 2h1v1h-1zm22 0h16v1H39zm16 0h1v1h-1zm20 0h15v1H75zm15 0h1v1h-1zm34 1h1v1h-1zm4 0h1v1h-1zm62 0h1v1h-1zm-132 4h1v1h-1zm-37 1h1v1h-1zm13 3h1v1h-1zm32 0h1v1h-1z" fill="#feffff"/><path fill="#97c1d3" d="M10 85h1v1h-1z"/><path d="M76 88h1v20h-1zm0 20h1v1h-1zm-51 16h1v1h-1z" fill="#aadeee"/><path fill="#65c2e0" d="M29 103h1v1h-1z"/><path d="M118 108h1v1h-1zm-17 2h1v1h-1zm71 2h1v1h-1z" fill="#74d7ec"/><path fill="#63c3c5" d="M41 111h1v1h-1z"/><path fill="#28c1e2" d="M103 111h1v1h-1z"/><path d="M27 123h5v1h-5zm5 0h1v1h-1z" fill="#42b5d9"/><path fill="#bcbcbc" d="M192 86h1v1h-1z"/><path d="M112 90h1v1h-1zm59 3h1v1h-1zm16 2h1v1h-1zm-77 8h1v1h-1z" fill="#b6b6b7"/><path fill="#b0e1f0" d="M21 108h1v1h-1z"/><path d="M136 108h1v1h-1zm46 0h1v1h-1zm-58 3h1v1h-1zm4 0h1v1h-1zm-2 4h1v1h-1z" fill="#29c2e2"/><path d="M19 111h1v1h-1zm-4 4h1v1h-1z" fill="#eef5f8"/><path d="M159 92h1v1h-1zm-37 3h1v1h-1zm-9 6h1v1h-1z" fill="#8b8b8c"/><path d="M139 89h1v6h-1zm-23 4h1v1h-1zm11 1h1v1h-1zm12 1h1v1h-1zm-15 3h1v1h-1z" fill="#707071"/><path fill="#a2daec" d="M32 107h1v1h-1z"/><path d="M105 113h1v1h-1zm16 0h1v1h-1zm70 2h1v1h-1z" fill="#d5f3f9"/><path d="M170 86h1v1h-1zm-48 2h1v1h-1zm66 0h1v1h-1zm-32 1h1v1h-1zm-38 3h1v1h-1zm38 8h1v1h-1zm-3 2h1v1h-1z" fill="#ddd"/><path d="M105 107h1v1h-1zm78 7h1v1h-1zm-55 2h1v1h-1z" fill="#e8f8fc"/><path d="M12 89h1v1h-1zm46 4h1v22h-1zm0 22h1v1h-1z" fill="#f6f9fb"/><path d="M12 90h1v1h-1zm46 30h1v1h-1zm2 3h1v1h-1z" fill="#fbfcfd"/><path fill="#3bb0d8" d="M29 91h1v1h-1z"/><path fill="#6ac5e0" d="M18 96h1v1h-1z"/><path fill="#3586aa" d="M10 97h1v1h-1z"/><path d="M106 101h1v1h-1zm3 0h1v1h-1z" fill="#8c8c8e"/><path d="M13 102h1v1h-1zm2 3h1v1h-1z" fill="#60a0bc"/><path fill="#e1ecf2" d="M15 103h1v1h-1z"/><path d="M102 107h1v1h-1zm24 7h1v1h-1z" fill="#46cae6"/><path fill="#73d7ec" d="M164 108h1v1h-1z"/><path fill="#cfeced" d="M39 110h1v1h-1z"/><path fill="#1fa7d2" d="M26 118h1v1h-1z"/><path fill="#056a96" d="M0 87h1v1H0z"/><path d="M146 87h2v1h-2zm2 0h1v1h-1zm23 11h1v1h-1zm-16 3h1v1h-1z" fill="#adadae"/><path d="M171 90h1v1h-1zm0 1h1v1h-1zm-50 6h1v2h-1zm0 2h1v1h-1z" fill="#b3b3b5"/><path d="M68 92h1v1h-1zM1 93h1v1H1zm8 0h1v1H9zm-8 1h1v1H1zm8 0h1v1H9zm-8 5h1v1H1zm0 1h1v1H1zm0 11h1v1H1z" fill="#036995"/><path d="M168 107h1v1h-1zm-13 7h1v1h-1z" fill="#cdf0f8"/><path fill="#aae6f3" d="M176 113h1v1h-1z"/><path d="M24 90h2v1h-2zm2 0h1v1h-1z" fill="#62c1e0"/><path d="M107 92h1v1h-1zm1 0h1v1h-1z" fill="#767677"/><path d="M69 93h1v1h-1zm0 1h1v8h-1zm0 8h1v1h-1zm0 3h1v1h-1zm0 1h1v5h-1zm0 5h1v1h-1z" fill="#68a5c0"/><path fill="#d6f3f9" d="M143 106h1v1h-1z"/><path d="M100 110h1v1h-1zm65 2h1v1h-1z" fill="#b2e9f4"/><path fill="#81b3ca" d="M63 123h1v1h-1z"/><path d="M91 87h1v1h-1zm-63 8h1v1h-1z" fill="#8ed2e8"/><path fill="#858586" d="M158 88h1v1h-1z"/><path d="M184 91h1v1h-1zm-15 1h1v1h-1zm3 11h1v1h-1z" fill="#f9f9fa"/><path d="M33 111h1v1h-1zm-7 3h1v1h-1z" fill="#10a1ce"/><path fill="#16a3d0" d="M90 112h1v1h-1z"/><path fill="#1a769f" d="M1 113h1v1H1z"/><path fill="#63d3ea" d="M107 113h1v1h-1z"/><path d="M133 87h1v1h-1zm31 5h1v1h-1z" fill="#828284"/><path fill="#026895" d="M9 90h1v1H9z"/><path fill="#64c3c5" d="M41 108h1v1h-1z"/><path fill="#9cc4d6" d="M61 122h1v1h-1z"/><path fill="#9ac3d5" d="M3 85h1v1H3z"/><path d="M108 91h1v1h-1zm59 2h1v1h-1zm-16 1h1v1h-1zm-30 1h1v1h-1z" fill="#c9c9ca"/><path fill="#98e1f1" d="M100 106h1v1h-1z"/><path fill="#87ddee" d="M106 108h1v1h-1z"/><path d="M185 108h1v1h-1zm6 3h1v1h-1z" fill="#00b6dc"/><path fill="#21a8d2" d="M88 113h1v1h-1z"/><path d="M114 108h1v1h-1zm-12 1h1v1h-1zm75 1h1v1h-1zm-30 2h1v1h-1z" fill="#2ac2e2"/><path d="M123 109h1v1h-1zm2 4h1v1h-1z" fill="#8ddeef"/><path d="M161 85h1v1h-1zm-33 3h1v1h-1zm50 0h1v1h-1zm-57 5h1v1h-1zm-7 8h1v1h-1z" fill="#e4e4e4"/><path fill="#f4f3f3" d="M105 104h1v1h-1z"/><path d="M108 109h1v1h-1zm52 0h1v1h-1z" fill="#5dd0e9"/><path fill="#f1fbfd" d="M99 114h1v1h-1z"/><path fill="#c7eaea" d="M34 99h1v1h-1z"/><path d="M125 107h1v1h-1zm25 6h1v1h-1zm1 1h1v1h-1z" fill="#ebf9fc"/><path fill="#67a4bf" d="M69 117h1v1h-1z"/><path d="M12 87h1v1h-1zm47 31h1v1h-1z" fill="#bad5e2"/><path d="M164 87h1v1h-1zm8 0h1v1h-1zm-23 1h1v11h-1zm1 0h1v2h-1zm0 2h1v1h-1zm0 3h1v6h-1zm-42 2h1v1h-1zm82 0h1v1h-1zm-84 1h1v1h-1zm66 1h1v1h-1zm-23 2h1v1h-1zm1 0h1v1h-1z" fill="#59595b"/><path d="M131 91h1v1h-1zm33 4h1v1h-1zm7 0h1v1h-1z" fill="#8d8d8f"/><path d="M100 107h1v1h-1zm33 1h1v1h-1zm6 1h1v1h-1zm26 0h2v1h-2zm2 0h1v1h-1zm-35 1h1v1h-1zm7 0h1v1h-1z" fill="#26c1e1"/><path d="M137 107h1v1h-1zm8 6h1v1h-1zm36 0h1v1h-1z" fill="#a1e4f2"/><path fill="#25aad3" d="M77 110h1v1h-1z"/><path fill="#54cee8" d="M180 111h1v1h-1z"/><g fill="#60c1c3"><path d="M39 88h1v3h-1zm1 0h3v1h-3zm3 0h2v1h-2zm2 0h1v1h-1zm4 0h3v3h-3zm3 0h1v3h-1zm-14 1h1v1h-1zm6 0h4v1h-4zm9 0h1v2h-1zm-19 1h2v1h-2zm2 0h3v1h-3zm8 0h1v2h-1zm-10 1h3v1h-3zm3 0h2v2h-2zm2 0h1v1h-1zm7 0h1v3h-1zm3 0h4v1h-4zm4 0h1v1h-1zm-20 1h1v1h-1z"/><path d="M44 92h3v1h-3zm3 0h1v2h-1zm4 0h1v1h-1zm-15 1h2v1h-2zm2 0h1v2h-1zm3 0h1v3h-1z"/><path d="M39 94h4v1h-4zm7 0h4v1h-4zm4 0h1v3h-1zm-15 1h1v1h-1zm3 0h1v4h-1zm1 0h3v1h-3zm3 0h2v1h-2zm2 0h1v1h-1zm-10 1h1v1h-1zm1 0h1v2h-1zm6 0h1v2h-1zm3 0h1v2h-1zm9 0h1v1h-1zm-16 1h1v1h-1zm3 0h1v1h-1zm10 0h2v1h-2zm2 0h1v1h-1zm-17 1h3v1h-3zm5 0h1v3h-1zm1 0h1v1h-1zm3 0h1v1h-1zm7 0h1v4h-1zm1 0h1v5h-1zm-14 1h1v1h-1zm1 0h1v1h-1zm6 0h1v1h-1zm5 0h1v3h-1zm-11 1h1v1h-1zm7 0h1v1h-1zm7 0h1v1h-1zm-13 1h1v1h-1zm1 0h3v3h-3zm3 0h4v1h-4zm9 0h1v1h-1zm-4 1h3v1h-3zm-5 1h1v2h-1zm1 0h1v1h-1zm4 0h1v1h-1zm3 0h1v9h-1zm-12 1h4v1h-4zm0 1h1v1h-1zm4 0h1v1h-1zm9 0h1v3h-1zm-7 1h2v1h-2zm2 0h1v3h-1z"/><path d="M49 107h4v3h-4zm-2 1h1v1h-1zm6 0h1v1h-1zm-9 1h1v2h-1z"/><path d="M48 109h4v1h-4zm-2 1h1v1h-1zm3 0h3v1h-3zm-3 1h1v1h-1zm1 0h1v1h-1zm3 0h2v1h-2zm-3 1h3v1h-3zm3 0h3v1h-3zm3 0h1v1h-1z"/></g><path d="M99 90h1v1h-1zm9 10h1v1h-1zm40 2h1v1h-1z" fill="#ebebeb"/><path d="M17 93h1v1h-1zm5 18h1v1h-1z" fill="#f6fbfd"/><path fill="#81cecf" d="M33 96h1v1h-1z"/><path fill="#65c3c5" d="M40 106h1v1h-1z"/><path fill="#22bfe1" d="M139 106h1v1h-1z"/><path d="M160 108h1v1h-1zm-36 1h1v1h-1zm-9 4h1v1h-1zm21 0h1v1h-1zm37 0h1v1h-1z" fill="#62d2e9"/><path d="M7 115h7v1H7zm7 0h1v1h-1z" fill="#eff5f8"/><path d="M164 85h1v1h-1zm-51 3h1v1h-1zm49 7h1v1h-1zm18 0h1v1h-1zm0 1h1v1h-1zm-73 1h1v1h-1zm83 0h1v1h-1zm-55 4h1v1h-1zm18 0h1v1h-1z" fill="#919192"/><path d="M190 86h1v1h-1zm-88 12h1v1h-1z" fill="#7c7c7d"/><path d="M2 87h6v1H2zm6 0h1v1H8z" fill="#006492"/><path d="M105 87h1v1h-1zm75 6h1v1h-1zm-18 4h6v1h-6zm6 0h1v1h-1z" fill="#959596"/><path fill="#0bb9dd" d="M164 111h1v1h-1z"/><path fill="#8bbace" d="M14 114h1v1h-1z"/><path fill="#e2f4f9" d="M24 118h1v1h-1z"/><path fill="#aedfee" d="M26 124h1v1h-1z"/><path d="M180 108h1v1h-1zm-29 3h1v1h-1zm40 3h1v1h-1z" fill="#8addef"/><path d="M141 86h1v1h-1zm41 8h1v1h-1zm0 3h1v1h-1z" fill="#7a7a7b"/><path fill="#6f6f70" d="M139 87h1v1h-1z"/><path d="M99 93h1v1h-1zm32 2h1v1h-1z" fill="#888889"/><path d="M166 93h1v1h-1zm-42 2h5v1h-5zm5 0h1v1h-1z" fill="#88888a"/><path d="M181 107h1v1h-1zm-57 7h1v1h-1zm5 1h1v1h-1z" fill="#afe8f4"/><path d="M121 108h1v1h-1zm-5 1h1v1h-1zm12 1h1v1h-1zm-1 5h1v1h-1z" fill="#2dc3e2"/><path d="M191 108h1v1h-1zm-11 2h1v1h-1zm4 1h1v1h-1zm-10 1h1v1h-1z" fill="#9fe3f2"/><path d="M184 113h1v1h-1zm-47 1h1v1h-1z" fill="#d7f4f9"/><path d="M101 94h1v1h-1zm14 0h1v1h-1zm20 8h1v1h-1zm-31 1h1v1h-1z" fill="#ddddde"/><path fill="#e1f3f9" d="M17 95h1v1h-1z"/><path d="M13 105h1v1h-1zm-10 7h2v1H3zm2 0h9v1H5zm9 0h1v1h-1z" fill="#016794"/><path d="M78 114h1v1h-1zm-43 6h1v1h-1z" fill="#8ad1e7"/><path fill="#c6c6c6" d="M104 87h1v1h-1z"/><path d="M140 87h1v1h-1zm26 1h1v1h-1zm25 0h1v6h-1zm-67 1h1v1h-1zm1 0h1v1h-1zm25 2h1v1h-1zm0 1h1v1h-1zm41 2h1v1h-1zm-88 4h1v1h-1zm78 1h1v1h-1zm5 0h1v1h-1zm-14 1h1v1h-1z" fill="#58585a"/><path fill="#f2fafb" d="M30 88h1v1h-1z"/><path d="M109 109h1v1h-1zm27 1h1v1h-1zm26 0h1v1h-1zm11 0h1v1h-1zm9 2h1v1h-1z" fill="#15bcdf"/><path fill="#b1d1de" d="M18 112h1v1h-1z"/><path fill="#87cee6" d="M35 113h1v1h-1z"/><path fill="#71d6ec" d="M125 114h1v1h-1z"/><path d="M109 85h1v1h-1zm3 2h1v1h-1zm67 9h1v1h-1zm-73 4h1v1h-1zm45 1h1v1h-1zm3 1h1v1h-1z" fill="#d8d8d8"/><path fill="#a2a2a3" d="M175 88h1v1h-1z"/><path d="M61 90h1v1h-1zm-51 1h1v1h-1zm50 29h1v1h-1z" fill="#64a2be"/><path fill="#6bd4eb" d="M138 108h1v1h-1z"/><path fill="#72d6ec" d="M183 109h1v1h-1z"/><path fill="#78aec6" d="M69 119h1v1h-1z"/><path fill="#828283" d="M154 86h1v1h-1z"/><path fill="#0099cb" d="M88 87h1v1h-1z"/><path d="M125 87h1v1h-1zm9 1h1v2h-1zm0 2h1v1h-1zm0 5h1v1h-1z" fill="#4f4f51"/><path d="M152 89h1v1h-1zm-28 2h1v1h-1zm65 2h1v1h-1zm-24 1h1v1h-1zm24 0h1v1h-1z" fill="#cececf"/><path d="M17 92h1v1h-1zm-1 4h1v1h-1zm171 9h1v1h-1zm-72 1h1v1h-1zm5 0h1v1h-1zm-9 1h1v1h-1zm13 0h1v1h-1zm-89 3h1v1h-1zm39 2h1v1h-1zm43 2h1v1h-1zm13 1h1v1h-1zm-109 8h1v1h-1z" fill="#fcfeff"/><path d="M13 100h1v1h-1zm5 8h1v1h-1zm1 4h1v1h-1zm-1 2h1v1h-1zm-15 1h3v1H3zm3 0h1v1H6z" fill="#f0f6f9"/><path fill="#c6c6c7" d="M121 101h1v1h-1z"/><path fill="#31c4e3" d="M127 114h1v1h-1z"/><path d="M45 113h1v1h-1zm7 0h1v1h-1z" fill="#76c9cc"/><path fill="#cdebed" d="M32 86h1v1h-1z"/><path fill="#95d5db" d="M31 92h1v1h-1z"/><path d="M136 106h1v1h-1zm-21 2h1v1h-1zm0 1h1v1h-1zm54 3h1v1h-1z" fill="#33c5e3"/><path fill="#4a92b3" d="M60 117h1v1h-1z"/><path d="M108 108h1v1h-1zm60 1h1v1h-1z" fill="#27c1e1"/><path d="M135 113h1v1h-1zm-2 1h1v1h-1z" fill="#c8eff7"/><path fill="#82cee6" d="M28 100h1v1h-1z"/><path d="M114 107h1v1h-1zm64 0h1v1h-1zm5 0h1v1h-1zm-37 1h1v1h-1zm1 3h1v1h-1zm41 0h1v1h-1zm-27 1h1v1h-1zm-41 1h1v1h-1zm2 1h1v1h-1zm37 0h1v1h-1zm4 0h1v1h-1zm5 0h1v1h-1zm5 0h1v1h-1zm9 0h1v1h-1z" fill="#c4eef7"/><path d="M156 91h1v1h-1zm-56 3h1v1h-1z" fill="#dfdfdf"/><path d="M139 107h1v1h-1zm-14 2h1v1h-1zm37 0h1v1h-1zm-46 2h1v1h-1z" fill="#24c0e1"/><path fill="#51bbdc" d="M25 120h1v1h-1z"/><path fill="#2aabd3" d="M34 120h1v1h-1z"/><path d="M34 87h1v1h-1zm19 0h1v1h-1z" fill="#5cc0c2"/><path fill="#a1dadc" d="M39 106h1v1h-1z"/><path fill="#ccebeb" d="M39 108h1v1h-1z"/><path fill="#2fc3e2" d="M116 112h1v1h-1z"/><path d="M105 86h1v1h-1zm51 0h1v1h-1zm-13 2h1v1h-1zm20 3h1v1h-1z" fill="#dadadb"/><path d="M163 87h1v1h-1zm-50 2h1v1h-1zm-6 7h1v1h-1z" fill="#616162"/><path d="M55 92h1v1h-1zm0 1h1v1h-1zm0 16h1v2h-1zm0 2h1v1h-1zm-15 2h1v1h-1z" fill="#74c9cb"/><path d="M159 109h1v1h-1zm-55 2h1v1h-1zm29 1h1v1h-1z" fill="#0dbade"/><path fill="#4bb8da" d="M35 116h1v1h-1z"/><path d="M136 87h1v4h-1zm21 2h1v1h-1zm-21 2h1v1h-1zm0 4h1v1h-1zm0 1h1v1h-1zm-28 2h1v1h-1zm7 0h1v1h-1zm31 0h1v1h-1zm15 0h7v1h-7zm7 0h1v1h-1zm-17 4h1v1h-1zm1 0h1v1h-1z" fill="#f3f3f3"/><path d="M158 87h1v1h-1zm-49 6h1v1h-1z" fill="#5d5d5e"/><path d="M123 89h1v1h-1zm17 2h1v2h-1zm0 2h1v1h-1zm38 7h1v1h-1z" fill="#626263"/><path d="M137 105h1v1h-1zm-38 3h1v1h-1z" fill="#c2eef7"/><path d="M159 106h1v1h-1zm-4 2h1v1h-1zm-2 2h1v1h-1zm18 0h1v1h-1zm18 0h1v1h-1z" fill="#2ec3e2"/><path fill="#60c1de" d="M23 110h1v1h-1z"/><path d="M125 96h5v1h-5zm5 0h1v1h-1z" fill="#8f8f91"/><path fill="#83ced0" d="M40 108h1v1h-1z"/><path fill="#8cdef0" d="M176 112h1v1h-1z"/><path d="M171 89h1v1h-1zm-52 1h1v1h-1zm46 0h1v1h-1zm-62 1h1v1h-1zm65 0h1v1h-1zm6 0h1v1h-1z" fill="#b4b4b5"/><path d="M131 93h1v1h-1zm56 0h1v1h-1zm-4 5h1v1h-1z" fill="#b9b9ba"/><path fill="#b1b1b3" d="M171 100h1v1h-1z"/><path d="M157 107h1v1h-1zm-51 7h1v1h-1zm28 0h1v1h-1z" fill="#e8f9fc"/><path fill="#86d0d2" d="M40 110h1v1h-1z"/><path fill="#05b7dd" d="M167 111h1v1h-1z"/><path d="M125 86h1v1h-1zm54 1h1v1h-1zm-17 5h1v1h-1zm-27 4h1v1h-1zm4 0h1v1h-1zm39 3h1v1h-1zm14 0h1v1h-1z" fill="#767678"/><path d="M117 91h1v1h-1zm44 3h1v1h-1zm-36 8h8v1h-8zm8 0h1v1h-1zm16 0h1v1h-1zm1 0h1v1h-1z" fill="#d6d6d7"/><path d="M28 92h1v1h-1zm-2 5h1v1h-1zm0 1h1v1h-1zm5 10h1v1h-1z" fill="#089ecd"/><path fill="#98e2f1" d="M104 107h1v1h-1z"/><path fill="#99e2f1" d="M171 108h1v1h-1z"/><path fill="#2d82a7" d="M2 86h1v1H2z"/><path fill="#32afd6" d="M87 86h1v1h-1z"/><path d="M90 86h1v1h-1zm-60 19h1v1h-1z" fill="#45b6d9"/><path d="M90 88h1v21h-1zm0 21h1v1h-1z" fill="#1ca6d0"/><path fill="#88d0d2" d="M40 109h1v1h-1z"/><path d="M145 85h1v1h-1zm27 0h1v1h-1zm-56 5h1v1h-1zm22 6h1v1h-1zm33 5h1v1h-1z" fill="#c3c3c4"/><path d="M150 85h1v1h-1zm-46 6h1v1h-1zm26 2h1v1h-1zm54 0h1v1h-1zm-74 1h1v1h-1z" fill="#c2c2c3"/><path d="M107 86h1v1h-1zm33 0h1v1h-1zm9 0h1v1h-1zm42 0h1v1h-1zm-3 1h1v1h-1zm-20 1h1v1h-1zm-33 9h1v1h-1z" fill="#7c7c7e"/><path d="M143 86h1v1h-1zm37 0h8v1h-8zm8 0h1v1h-1zm-53 2h1v2h-1zm0 2h1v1h-1zm-10 11h8v1h-8zm8 0h1v1h-1z" fill="#777779"/><path d="M193 86h1v1h-1zm-8 5h1v1h-1zm-15 1h1v1h-1zm-61 6h1v1h-1zm38 3h1v1h-1zm29 0h1v1h-1z" fill="#f0f0f0"/><path d="M170 87h1v1h-1zm-12 3h1v1h-1zm-47 5h1v1h-1z" fill="#c8c8c9"/><path fill="#afafaf" d="M133 93h1v1h-1z"/><path fill="#86dcef" d="M158 106h1v1h-1z"/><path d="M25 112h1v1h-1zm64 1h1v1h-1z" fill="#1fa7d1"/><path fill="#87d0d1" d="M55 113h1v1h-1z"/><path fill="#3bb2d7" d="M25 123h1v1h-1z"/><path d="M140 89h1v1h-1zm32 4h1v1h-1z" fill="#616163"/><path fill="#afdfef" d="M29 93h1v1h-1z"/><path fill="#d5eff7" d="M17 99h1v1h-1z"/><path fill="#a6a6a6" d="M125 99h1v1h-1z"/><path d="M186 105h1v1h-1zm-68 2h1v1h-1zm11 0h1v1h-1z" fill="#f6fdfe"/><path d="M139 108h1v1h-1zm0 3h1v1h-1z" fill="#25c0e1"/><path d="M177 111h1v1h-1zm-45 2h1v1h-1z" fill="#63d2ea"/><path fill="#a5dced" d="M75 113h1v1h-1z"/><path fill="#b7e3f0" d="M24 120h1v1h-1z"/><path d="M116 92h1v1h-1zm10 6h7v2h-7zm7 0h1v2h-1zm-7 2h7v1h-7zm7 0h1v1h-1z" fill="#7f7f80"/><path fill="#82dcee" d="M135 111h1v1h-1z"/><path fill="#62a1bd" d="M68 121h1v1h-1z"/><path d="M139 85h1v1h-1zm-16 1h1v1h-1zm4 6h1v1h-1zm61 6h1v1h-1z" fill="#cbcbcc"/><path d="M13 86h1v1h-1zm57 3h1v1h-1zm-52 18h1v1h-1zm-1 8h1v1h-1z" fill="#f7fafc"/><path d="M0 88h1v4H0zm10 0h1v1h-1zM0 92h1v1H0zm0 3h1v11H0zm0 11h1v4H0zm0 4h1v1H0zm68 9h1v1h-1z" fill="#0a6c98"/><path d="M19 93h1v1h-1zm6 20h1v1h-1z" fill="#49b8da"/><path fill="#dff2f8" d="M29 100h1v1h-1z"/><path d="M130 109h1v1h-1zm63 0h1v1h-1zm-62 4h1v1h-1z" fill="#68d4ea"/><path d="M174 109h1v1h-1zm-62 2h1v1h-1zm67 0h1v1h-1zm-23 1h1v1h-1z" fill="#1cbee0"/><path fill="#5dd0e8" d="M123 110h1v1h-1z"/><path d="M163 85h1v1h-1zm-20 2h1v1h-1zm30 8h1v1h-1z" fill="#7b7b7d"/><path fill="#a8ddee" d="M76 87h1v1h-1z"/><path d="M174 108h1v1h-1zm-73 4h1v1h-1zm54 0h1v1h-1z" fill="#37c6e4"/><path fill="#a5a5a7" d="M167 86h1v1h-1z"/><path d="M33 88h1v1h-1zm21 0h1v1h-1zm0 3h1v1h-1zm0 1h1v1h-1zm0 3h1v1h-1zm0 1h1v1h-1zm-18 3h1v1h-1zm18 2h1v1h-1zm0 1h1v3h-1zm0 3h1v1h-1zm-13 2h1v1h-1z" fill="#61c2c4"/><path d="M33 98h1v1h-1zm3 4h1v1h-1z" fill="#d6efef"/><path d="M177 108h1v1h-1zm-72 2h1v1h-1zm29 1h1v1h-1z" fill="#44cae5"/><path d="M162 84h1v1h-1zm9 1h1v1h-1zm-60 9h1v1h-1zm-4 10h1v1h-1zm1 0h1v1h-1z" fill="#e3e3e3"/><path d="M154 85h1v1h-1zm-12 3h1v1h-1zm-21 1h1v1h-1z" fill="#c4c4c5"/><path d="M35 86h1v1h-1zm4 0h1v1h-1zm9 0h4v1h-4zm4 0h1v1h-1z" fill="#7fcdcf"/><path d="M41 86h1v1h-1zm6 0h1v1h-1z" fill="#7eced0"/><path fill="#b7b7b7" d="M144 95h1v1h-1z"/><path d="M164 83h1v1h-1zm-37 2h1v1h-1zm43 0h1v1h-1zm-48 1h1v1h-1zm8 3h1v1h-1zm1 0h1v1h-1zm13 0h1v1h-1zm1 0h1v1h-1zm34 0h8v1h-8zm8 0h1v1h-1zm-29 4h1v1h-1zm-44 3h1v1h-1zm63 1h1v1h-1zm-63 5h1v1h-1zm9 1h1v1h-1zm12 0h1v1h-1zm18 0h1v1h-1zm1 0h1v1h-1z" fill="#fafafa"/><path fill="#d2eef6" d="M91 85h1v1h-1z"/><path d="M171 94h1v1h-1zm18 4h1v1h-1z" fill="#d3d3d4"/><path fill="#bae5f2" d="M19 105h1v1h-1z"/><path fill="#2bc3e2" d="M182 106h1v1h-1z"/><path fill="#81dbed" d="M146 111h1v1h-1z"/><path d="M90 85h1v1h-1zm-67 37h1v1h-1z" fill="#a2dbec"/><path d="M155 86h1v1h-1zm2 1h1v1h-1zm-52 8h1v1h-1zm43 2h1v1h-1z" fill="#afafb0"/><path d="M19 91h1v1h-1zm-1 2h1v1h-1z" fill="#bfe6f2"/><path fill="#e4f7fb" d="M127 107h1v1h-1z"/><path d="M191 110h1v1h-1zm-52 2h1v1h-1z" fill="#27c1e2"/><path fill="#fdfffe" d="M57 114h1v1h-1z"/><path d="M6 86h3v1H6zm3 0h1v1H9z" fill="#3284a9"/><path fill="#939395" d="M99 92h1v1h-1z"/><path fill="#079ecc" d="M29 105h1v1h-1z"/><path fill="#bee5f2" d="M33 108h1v1h-1z"/><path d="M130 108h1v1h-1zm44 3h1v1h-1zm-51 2h1v1h-1zm64 0h1v1h-1z" fill="#9ae2f1"/><path fill="#0cbade" d="M128 109h1v1h-1z"/><path d="M134 110h1v1h-1zm49 1h1v1h-1zm1 1h1v1h-1z" fill="#a8e6f3"/><path fill="#e5f8fc" d="M162 114h1v1h-1z"/><path d="M107 85h1v1h-1zm1 0h1v1h-1zm61 1h1v1h-1zm-23 9h1v1h-1z" fill="#c5c5c5"/><path fill="#d1edf6" d="M23 89h1v1h-1z"/><path fill="#4992b2" d="M60 93h1v1h-1z"/><path fill="#d9f0f8" d="M32 106h1v1h-1z"/><path fill="#5c9dba" d="M17 109h1v1h-1z"/><path fill="#6ba6c1" d="M65 123h1v1h-1z"/><path d="M107 88h1v1h-1zm44 4h1v1h-1zm1 0h1v1h-1zm35 7h1v1h-1z" fill="#6a6a6c"/><path fill="#f2f2f3" d="M170 90h1v1h-1z"/><path d="M116 91h1v1h-1zm70 1h1v1h-1z" fill="#bababb"/><path d="M22 93h1v3h-1zm1 0h1v1h-1zm3 0h1v1h-1zm-3 1h1v1h-1zm58 1h1v2h-1zm1 0h1v2h-1zm-60 1h1v2h-1zm1 1h1v1h-1zm58 0h1v1h-1zm1 0h1v1h-1zm7 0h1v1h-1zm-67 1h1v1h-1zm1 0h1v1h-1zm66 0h1v1h-1zm-59 9h1v1h-1zm-4 1h1v1h-1zm54 2h1v1h-1zm-53 10h1v1h-1z" fill="#009bcc"/><path fill="#8ed3e8" d="M91 112h1v1h-1z"/><path d="M163 84h1v1h-1zm7 4h1v1h-1zm-2 4h1v1h-1zm-44 10h1v1h-1zm49 0h1v1h-1z" fill="#d5d5d6"/><path d="M31 86h1v1h-1zm7 23h1v1h-1z" fill="#fafdfd"/><path fill="#7fcecf" d="M54 86h1v1h-1z"/><path d="M144 86h1v1h-1zm-18 4h1v1h-1z" fill="#777778"/><path d="M176 90h1v1h-1zm-17 7h1v1h-1zm20 1h1v1h-1z" fill="#b8b8b9"/><path fill="#2d81a7" d="M1 86h1v1H1z"/><path d="M122 94h1v1h-1zm23 3h1v1h-1zm-11 4h1v1h-1zm-30 1h1v1h-1z" fill="#737375"/><path fill="#d6e7ee" d="M11 95h1v1h-1z"/><path fill="#0fbbde" d="M185 112h1v1h-1z"/><path d="M55 87h1v1h-1zm0 25h1v1h-1z" fill="#72c8ca"/><path d="M56 87h1v1h-1zm0 25h1v1h-1z" fill="#bce5e6"/><path d="M61 93h1v1h-1zm-45 19h1v1h-1z" fill="#086c97"/><path d="M183 105h1v1h-1zm-53 9h1v1h-1zm57 0h1v1h-1z" fill="#d9f4fa"/><path d="M185 106h1v1h-1zm-42 2h1v1h-1zm0 1h1v1h-1zm-26 4h1v1h-1zm43 0h1v1h-1z" fill="#ccf0f8"/><path d="M78 111h1v1h-1zm-45 10h1v1h-1z" fill="#019ccb"/><path fill="#97e2f1" d="M138 113h1v1h-1z"/><path fill="#38c6e3" d="M189 115h1v1h-1z"/><path d="M106 85h1v1h-1zm-4 11h1v1h-1z" fill="#e2e2e2"/><path d="M40 93h1v1h-1zm5 2h1v1h-1zm1 0h1v1h-1zm6 0h1v1h-1zm-7 1h1v1h-1zm1 0h1v1h-1zm2 3h1v1h-1zm-2 5h1v1h-1zm-1 4h1v1h-1zm-2 3h2v1h-2zm2 0h1v1h-1zm3 0h1v1h-1z" fill="#5fc2c4"/><path d="M68 93h1v4h-1zm0 4h1v2h-1zm0 2h1v1h-1zm0 6h1v1h-1zm0 5h1v1h-1zm-68 2h1v1H0zm68 4h1v1h-1zm0 1h1v1h-1zm-1 3h1v1h-1z" fill="#046996"/><path d="M144 107h1v1h-1zm-6 2h1v1h-1zm6 1h1v1h-1zm46 5h1v1h-1z" fill="#63d2e9"/><path d="M78 85h1v1h-1zm3 0h6v1h-6zm6 0h1v1h-1z" fill="#99d7ea"/><path fill="#2e82a7" d="M10 86h1v1h-1z"/><path d="M101 107h1v2h-1zm0 2h1v1h-1zm14 3h1v1h-1zm25 0h1v1h-1z" fill="#1fbfe0"/><path fill="#05b8dd" d="M177 109h1v1h-1z"/><path d="M160 86h1v1h-1zm-46 2h1v1h-1z" fill="#a7a7a8"/><path fill="#fbfbfc" d="M131 88h1v1h-1z"/><path d="M122 89h1v1h-1zm11 1h1v1h-1zm-9 9h1v1h-1z" fill="#868688"/><path d="M17 101h1v1h-1zm1 3h1v1h-1zm18 14h1v1h-1z" fill="#e9f6fb"/><path fill="#eaf7f7" d="M38 112h1v1h-1z"/><path d="M3 114h2v1H3zm2 0h1v1H5z" fill="#8cbacf"/><path fill="#e7f6fa" d="M18 92h1v1h-1z"/><path fill="#64c2e0" d="M18 97h1v1h-1z"/><path fill="#b4e9f5" d="M103 108h1v1h-1z"/><path fill="#39c7e4" d="M121 109h1v1h-1z"/><path fill="#3eb3d7" d="M24 111h1v1h-1z"/><path d="M151 113h1v1h-1zm-36 1h1v1h-1zm16 0h1v1h-1zm9 0h1v1h-1z" fill="#c7eff7"/><path fill="#53bcdc" d="M77 86h1v1h-1z"/><path d="M109 87h1v1h-1zm50 0h1v1h-1zm6 0h2v1h-2zm2 0h1v1h-1zm18 7h1v1h-1zm-12 2h1v1h-1zm-61 4h1v1h-1zm37 0h1v1h-1z" fill="#545456"/><path fill="#8cd2e7" d="M18 101h1v1h-1z"/><path fill="#8dbace" d="M14 103h1v1h-1z"/><path d="M101 105h1v1h-1zm7 2h1v1h-1zm13 5h1v1h-1zm-20 2h1v1h-1zm1 0h1v1h-1zm6 0h1v1h-1z" fill="#c0edf6"/><path fill="#f3f8fa" d="M19 110h1v1h-1z"/><path fill="#fafefd" d="M57 113h1v1h-1z"/><path fill="#cde1ea" d="M70 117h1v1h-1z"/><path fill="#e5f0f4" d="M11 94h1v1h-1z"/><path d="M14 105h1v1h-1zm2 5h1v1h-1z" fill="#0c6e99"/><path d="M114 106h1v1h-1zm64 0h1v1h-1zm-12 1h1v1h-1zm27 0h1v1h-1zm-44 7h1v1h-1zm35 0h1v1h-1z" fill="#f7fdfe"/><path fill="#65c3df" d="M76 112h1v1h-1z"/><path fill="#baebf6" d="M150 112h1v1h-1z"/><path d="M107 87h1v1h-1zm54 0h1v1h-1zm-1 2h1v2h-1zm0 2h1v1h-1zm-37 9h1v1h-1z" fill="#525254"/><path fill="#646465" d="M134 92h1v1h-1z"/><path d="M68 106h1v1h-1zm0 6h1v1h-1zm0 3h1v1h-1z" fill="#046896"/><path d="M110 108h1v1h-1zm-8 3h1v1h-1z" fill="#90dff0"/><path fill="#4690b1" d="M17 110h1v1h-1z"/><path fill="#4cb9da" d="M35 117h1v1h-1z"/><path d="M40 87h1v1h-1zm8 0h1v1h-1zm3 0h1v1h-1zm-17 8h1v1h-1zm8 15h1v1h-1zm0 1h1v1h-1z" fill="#5ec1c3"/><path d="M153 90h1v1h-1zm-20 4h1v1h-1zm-22 8h1v1h-1z" fill="#6b6b6d"/><path d="M117 94h1v1h-1zm-16 7h1v1h-1z" fill="#eaeaea"/><path fill="#2fc4e3" d="M132 112h1v1h-1z"/><path d="M179 86h1v1h-1zm-26 1h1v1h-1zm-13 10h1v1h-1z" fill="#737374"/><path d="M154 88h1v1h-1zm-51 1h1v1h-1zm51 0h1v1h-1zm20 0h1v1h-1zm1 0h1v1h-1zm-54 2h1v1h-1zm33 3h1v5h-1zm8 2h2v1h-2zm2 0h1v1h-1zm-10 3h1v1h-1z" fill="#5f5f61"/><path fill="#c8c8ca" d="M129 93h1v1h-1z"/><path d="M19 101h1v1h-1zm61 12h3v1h-3zm3 0h1v1h-1zm3 0h1v1h-1zm1 0h1v1h-1z" fill="#24a9d2"/><path d="M187 107h1v1h-1zm-64 7h1v1h-1z" fill="#daf4fa"/><path d="M172 108h1v1h-1zm-67 1h1v1h-1zm16 1h1v1h-1z" fill="#93e0f0"/><path d="M75 109h1v1h-1zm3 6h10v1H78zm10 0h1v1h-1z" fill="#eff9fc"/><path fill="#217aa2" d="M0 113h1v1H0z"/><path fill="#84dcee" d="M170 113h1v1h-1z"/><path fill="#31aed5" d="M88 86h1v1h-1z"/><path d="M136 109h1v1h-1zm54 4h1v1h-1z" fill="#13bcdf"/><path fill="#9ac2d4" d="M69 120h1v1h-1z"/><path fill="#e5eff4" d="M61 123h1v1h-1z"/><path d="M116 88h1v1h-1zm16 0h1v1h-1z" fill="#dcdcdd"/><path d="M176 89h1v1h-1zm-44 6h1v1h-1zm-28 1h1v1h-1zm7 2h1v2h-1zm0 2h1v1h-1z" fill="#7e7e7f"/><path d="M124 90h1v1h-1zm6 5h1v1h-1z" fill="#89898a"/><path d="M45 93h1v1h-1zm1 12h1v1h-1z" fill="#5fc1c4"/><path d="M29 104h1v1h-1zm48 5h1v1h-1z" fill="#2bacd4"/><path d="M181 105h1v1h-1zm-46 4h1v1h-1zm-14 2h1v1h-1z" fill="#bfedf6"/><path d="M119 109h1v1h-1zm29 3h1v1h-1z" fill="#19bddf"/><path d="M102 88h1v1h-1zm39 6h1v1h-1z" fill="#a0a0a2"/><path d="M22 91h1v1h-1zm12 24h1v1h-1z" fill="#0ea0ce"/><path d="M117 93h1v1h-1zm49 2h1v1h-1zm1 0h1v1h-1zm-59 8h1v1h-1z" fill="#9d9d9e"/><path d="M188 108h1v1h-1zm-71 3h1v1h-1zm1 1h1v1h-1zm9 1h1v1h-1z" fill="#47cae6"/><path d="M22 89h1v1h-1zm0 21h1v1h-1z" fill="#cdebf5"/><path d="M165 91h1v1h-1zm0 4h1v1h-1zm4 2h1v1h-1z" fill="#969697"/><path fill="#66c4c6" d="M41 109h1v1h-1z"/><path fill="#87b7cc" d="M0 114h1v1H0z"/><path fill="#bbe5f1" d="M75 114h1v1h-1z"/><path fill="#a5dcec" d="M91 86h1v1h-1z"/><path d="M101 87h1v1h-1zm78 5h1v1h-1zm14 4h1v1h-1zm1 5h1v1h-1zm-82 2h1v1h-1zm-2 1h1v1h-1z" fill="#eee"/><path fill="#6ea9c3" d="M69 91h1v1h-1z"/><path d="M68 100h1v1h-1zm0 1h1v1h-1zm0 3h1v1h-1zm0 3h1v1h-1zm0 4h1v1h-1z" fill="#046995"/><path fill="#37b0d6" d="M90 113h1v1h-1z"/><path fill="#68d3ea" d="M140 113h1v1h-1z"/><path d="M78 84h12v1H78zm12 0h1v1h-1zm-67 4h5v1h-5zm5 0h1v1h-1zm-10 3h1v1h-1zm105 16h1v1h-1zm52 7h1v1h-1zm14 3h1v1h-1zm-153 4h1v1h-1z" fill="#fafdfe"/><path d="M139 86h1v1h-1zm2 2h1v1h-1zm39 6h1v1h-1zm-57 2h1v1h-1zm1 0h1v1h-1z" fill="#909091"/><path d="M176 88h1v1h-1zm13 0h1v1h-1z" fill="#b2b2b3"/><path fill="#9fc6d7" d="M69 90h1v1h-1z"/><path fill="#eff5f9" d="M69 122h1v1h-1z"/><path d="M57 87h1v1h-1zm0 1h1v1h-1zM33 99h1v1h-1zm4 6h1v1h-1zm1 3h1v1h-1zm1 7h1v1h-1z" fill="#f7fcfc"/><g fill="#009bcb"><path d="M79 88h10v1H79zm10 0h1v8h-1zm-10 1h10v1H79zm0 1h5v1h-5zm5 0h5v1h-5zm-5 1h5v3h-5zm5 0h5v1h-5zm-62 1h5v1h-5zm5 0h1v1h-1zm57 0h5v1h-5zm-63 1h1v4h-1zm3 0h1v14h-1zm1 0h1v3h-1zm59 0h2v2h-2zm2 0h3v3h-3zm-60 1h1v1h-1z"/><path d="M79 94h7v1h-7zm-56 1h2v1h-2zm56 0h1v16h-1zm1 0h1v2h-1zm3 0h6v1h-6zm-60 1h2v1h-2zm2 0h1v1h-1zm58 0h1v2h-1zm1 0h5v11h-5zm5 0h1v1h-1zm-68 1h1v6h-1zm59 0h1v12h-1z"/><path d="M81 98h7v4h-7zm-59 1h3v1h-3zm3 0h1v10h-1zm64 0h1v12h-1z"/><path d="M22 100h4v2h-4zm4 0h1v5h-1zm-4 2h4v1h-4zm59 0h8v5h-8zm-60 1h1v1h-1zm1 0h4v1h-4z"/><path d="M22 104h6v1h-6zm6 0h1v17h-1zm-5 1h5v2h-5z"/><path d="M23 107h6v1h-6zm6 0h1v14h-1zm52 0h8v3h-8zm-54 1h1v5h-1z"/><path d="M25 109h5v1h-5zm5 0h1v12h-1zm50 0h9v1h-9z"/><path d="M26 110h5v2h-5zm5 0h1v11h-1zm50 0h8v1h-8zm-49 1h1v1h-1zm47 0h2v1h-2zm2 0h3v1h-3zm3 0h5v1h-5zm5 0h1v1h-1z"/><path d="M26 112h7v1h-7zm7 0h1v2h-1zm45 0h1v1h-1zm-51 1h4v1h-4zm5 1h1v7h-1zm1 0h1v1h-1zm-7 7h6v1h-6zm6 0h1v1h-1z"/></g><path d="M120 107h1v1h-1zm15 0h1v1h-1zm-24 6h1v1h-1zm70 1h1v1h-1z" fill="#ddf5fa"/><path fill="#f3fbfd" d="M131 107h1v1h-1z"/><path d="M117 108h1v1h-1zm-3 6h1v1h-1zm63 0h1v1h-1z" fill="#c1edf6"/><path fill="#22a8d2" d="M78 113h1v1h-1z"/><path fill="#b3e9f5" d="M104 113h1v1h-1z"/><path fill="#7ad9ed" d="M119 113h1v1h-1z"/><path fill="#97e1f0" d="M164 113h1v1h-1z"/><path fill="#c9dfe9" d="M67 123h1v1h-1z"/><path fill="#59595c" d="M123 90h1v1h-1z"/><path d="M33 91h1v1h-1zm11 21h2v1h-2zm2 0h1v1h-1z" fill="#61c1c3"/><path d="M148 111h1v1h-1zm-13 1h1v1h-1z" fill="#83dcee"/><path fill="#f1f7fa" d="M68 123h1v1h-1z"/><path d="M193 85h1v1h-1zm-16 5h1v1h-1zm-41 3h1v1h-1zm31 1h1v1h-1zm3 0h1v1h-1zm6 4h1v1h-1zm18 0h1v1h-1z" fill="#f8f8f8"/><path fill="#569ab8" d="M11 86h1v1h-1z"/><path d="M158 86h1v1h-1zm-56 5h1v1h-1zm58 4h1v1h-1zm19 6h12v1h-12zm12 0h1v1h-1z" fill="#a5a5a6"/><path fill="#d0d0d0" d="M152 95h1v1h-1z"/><path d="M112 110h1v1h-1zm13 2h1v1h-1zm20 0h1v1h-1zm1 0h1v1h-1zm3 0h1v1h-1zm30 0h1v1h-1z" fill="#1ebfe0"/><path fill="#86dcee" d="M151 110h1v1h-1z"/><path fill="#e2e2e3" d="M194 100h1v1h-1z"/><path fill="#59bede" d="M19 103h1v1h-1z"/><path fill="#27aad3" d="M34 113h1v1h-1z"/><path fill="#5acfe8" d="M178 113h1v1h-1z"/><path fill="#c3eef6" d="M186 114h1v1h-1z"/><path d="M145 86h1v1h-1zm35 1h7v1h-7zm7 0h1v1h-1zm-5 8h1v1h-1zm0 1h1v1h-1zm-48 2h1v2h-1zm0 2h1v1h-1z" fill="#7b7b7c"/><path fill="#aeaeb0" d="M152 93h1v1h-1z"/><path d="M168 95h1v1h-1zm1 0h1v1h-1z" fill="#9b9b9d"/><path d="M192 95h1v1h-1zm-85 6h1v1h-1z" fill="#a8a8aa"/><path fill="#676768" d="M142 96h1v1h-1z"/><path d="M106 87h1v1h-1zm53 4h1v1h-1zm31 5h1v1h-1zm-85 1h1v1h-1zm-1 1h1v1h-1zm76 2h1v1h-1zm-70 1h1v1h-1z" fill="#676769"/><path fill="#6bc6d2" d="M31 90h1v1h-1z"/><path d="M28 94h1v1h-1zm6 17h1v1h-1z" fill="#70c6e2"/><path fill="#bed6e3" d="M59 114h1v1h-1z"/><path fill="#c0d8e4" d="M59 91h1v1h-1z"/><path d="M9 97h1v1H9zm53 24h1v1h-1z" fill="#016795"/><path d="M141 105h2v1h-2zm2 0h1v1h-1zm14 0h1v1h-1zm-44 2h1v1h-1zm54 0h1v1h-1zm27 2h1v1h-1zm-14 5h1v1h-1z" fill="#f0fbfd"/><path fill="#54cee7" d="M179 108h1v1h-1z"/><path d="M134 109h1v1h-1zm24 4h1v1h-1z" fill="#9de3f1"/><path d="M4 90h1v1H4zm0 1h1v1H4zm59 1h1v2h-1zm1 0h1v1h-1zm3 0h1v1h-1zM5 93h1v1H5zm59 0h1v1h-1zM8 94h1v2H8zm55 0h1v1h-1zM2 96h1v1H2zm6 0h1v1H8zm-6 1h1v1H2zm61 1h1v1h-1zM4 99h1v1H4zm63 1h1v4h-1zm0 4h1v1h-1zm-54 2h1v1h-1zm1 0h1v1h-1zm53 2h1v3h-1zm-4 1h1v1h-1zm-48 1h1v1h-1zm48 0h1v1h-1zm-48 1h1v1h-1zm50 0h2v1h-2zm2 0h1v1h-1zm-2 1h1v1h-1zm1 0h1v1h-1zm-2 9h1v1h-1z" fill="#006693"/><path d="M98 91h1v1h-1zm84 0h1v1h-1zm-58 1h1v1h-1zm12 2h1v1h-1zm-16 1h1v1h-1zm0 1h1v1h-1zm38 1h1v1h-1zm-51 1h1v1h-1zm32 0h1v1h-1zm21 0h1v1h-1zm9 0h1v1h-1zm-54 2h1v1h-1z" fill="#f4f4f4"/><path fill="#dae8ef" d="M65 124h1v1h-1z"/><path d="M148 85h1v1h-1zm-43 9h1v1h-1zm88 4h1v1h-1z" fill="#e1e1e2"/><path fill="#83b4ca" d="M16 106h1v1h-1z"/><path fill="#6bd5eb" d="M109 113h1v1h-1z"/><path fill="#7ccce4" d="M34 122h1v1h-1z"/><path fill="#f9fcfc" d="M13 85h1v1h-1z"/><path fill="#7db1c8" d="M11 98h1v1h-1z"/><path fill="#056a97" d="M11 101h1v1h-1z"/><path fill="#6cd5eb" d="M105 112h1v1h-1z"/><path d="M33 84h1v1h-1zm25 5h1v1h-1zm-46 7h1v1h-1zm19 1h1v1h-1zm1 1h1v1h-1zm4 6h1v1h-1zm-18 2h1v1h-1zm41 16h1v1h-1z" fill="#fdfefe"/><path d="M162 85h1v1h-1zm-39 2h1v1h-1zm69 1h1v6h-1zm0 6h1v1h-1z" fill="#a9a9aa"/><path d="M168 87h1v1h-1zm-58 1h1v1h-1zm14 0h1v1h-1zm48 0h1v3h-1zm-68 1h1v1h-1zm8 0h1v1h-1zm60 2h1v1h-1zm-19 1h1v1h-1zm13 0h1v1h-1zm-58 2h1v1h-1zm78 0h1v1h-1zm-83 3h1v1h-1zm8 0h1v1h-1zm11 0h2v1h-2zm2 0h1v1h-1zm-2 1h1v1h-1zm50 0h1v1h-1zm9 0h1v1h-1zm5 0h1v1h-1zm-64 1h1v1h-1zm50 0h1v1h-1z" fill="#5c5c5e"/><path fill="#9c9c9d" d="M100 90h1v1h-1z"/><path fill="#7bcbe4" d="M18 95h1v1h-1z"/><path d="M142 97h1v1h-1zm1 0h1v1h-1z" fill="#727273"/><path fill="#d1eded" d="M39 109h1v1h-1z"/><path fill="#c9dee7" d="M12 99h1v1h-1z"/><path fill="#e7f5fa" d="M36 115h1v1h-1z"/><path d="M102 93h2v1h-2zm2 0h1v1h-1zm8 0h2v1h-2zm2 0h1v1h-1zm77 3h1v1h-1zm-3 4h1v1h-1z" fill="#656566"/><path fill="#fcfefd" d="M30 94h1v1h-1z"/><path d="M110 109h1v1h-1zm58 1h1v1h-1zm-16 2h1v1h-1z" fill="#3cc7e4"/><path fill="#dbf1f7" d="M21 89h1v1h-1z"/><path d="M63 90h3v1h-3zm3 0h1v1h-1z" fill="#61a0bd"/><path d="M145 105h1v1h-1zm12 3h1v1h-1zm35 5h1v1h-1z" fill="#b9ebf5"/><path d="M114 110h1v1h-1zm-13 1h1v1h-1zm12 3h1v1h-1zm76 2h1v1h-1z" fill="#d2f2f9"/><path d="M16 111h1v1h-1zm45 7h1v1h-1z" fill="#076b97"/><path fill="#f3fcfe" d="M145 114h1v1h-1z"/><path fill="#d8e8ef" d="M70 119h1v1h-1z"/><path d="M165 84h1v1h-1zm-33 1h1v1h-1zm45 4h1v1h-1zm-59 4h1v1h-1zm52 8h1v1h-1z" fill="#f2f2f2"/><path fill="#64c3c6" d="M32 90h1v1h-1z"/><path d="M146 85h1v1h-1zm9 0h1v1h-1zm10 0h1v1h-1zm-20 3h1v1h-1zm29 6h1v1h-1zm3 4h1v1h-1z" fill="#d9d9da"/><path fill="#2c80a6" d="M10 89h1v1h-1z"/><path d="M180 91h1v1h-1zm-22 4h1v1h-1zm-22 6h1v1h-1z" fill="#f5f5f5"/><path fill="#73acc5" d="M10 95h1v1h-1z"/><path d="M46 113h2v1h-2zm2 0h1v1h-1z" fill="#76c9cb"/><path d="M53 85h1v1h-1zm3 4h1v21h-1zm0 21h1v1h-1z" fill="#bee6e7"/><path fill="#d3edf6" d="M24 89h1v1h-1z"/><path fill="#60c0df" d="M23 90h1v1h-1z"/><path fill="#17a4d0" d="M24 110h1v1h-1z"/><path fill="#3cc7e5" d="M192 110h1v1h-1z"/><path d="M29 89h1v1h-1zm0 5h1v1h-1z" fill="#d5eef7"/><path d="M60 94h1v22h-1zm0 22h1v1h-1z" fill="#4a92b2"/><path fill="#7ecde5" d="M33 109h1v1h-1z"/><path fill="#02b7dc" d="M190 111h1v1h-1z"/><path d="M147 114h1v1h-1zm22 0h1v1h-1z" fill="#bbebf5"/><path d="M166 90h1v1h-1zm-57 5h1v1h-1zm72 5h1v1h-1zm4 0h1v1h-1zm1 0h1v1h-1z" fill="#69696a"/><path fill="#3bb1d7" d="M28 93h1v1h-1z"/><path fill="#b2b2b4" d="M101 99h1v1h-1z"/><path fill="#c7e9ea" d="M56 113h1v1h-1z"/><path fill="#b1e1e2" d="M40 114h1v1h-1z"/><path d="M150 86h1v1h-1zm-30 6h1v1h-1zm52 9h1v1h-1z" fill="#7d7d7e"/><path d="M65 92h1v1h-1zm2 20h1v1h-1z" fill="#006594"/><path fill="#e5f4fa" d="M29 95h1v1h-1z"/><path d="M14 102h1v1h-1zm4 7h1v1h-1z" fill="#d9e8ef"/><path d="M127 111h1v1h-1zm-21 2h1v1h-1zm24 0h1v1h-1z" fill="#9ce3f1"/><path fill="#c3e7f3" d="M35 121h1v1h-1z"/><path d="M147 95h1v1h-1zm-38 5h1v1h-1zm25 2h1v1h-1zm-23 1h1v1h-1z" fill="#d5d5d5"/><path fill="#c7e9f4" d="M29 101h1v1h-1z"/><path d="M12 102h1v1h-1zm49 18h1v1h-1z" fill="#14729c"/><path fill="#7ececf" d="M38 103h1v1h-1z"/><path d="M131 108h1v1h-1zm20 0h1v1h-1zm7 0h1v1h-1zm27 5h1v1h-1z" fill="#7ddaed"/><path d="M153 108h1v1h-1zm-1 2h1v1h-1zm-34 1h1v1h-1zm-10 1h1v1h-1z" fill="#40c8e5"/><path fill="#4bcbe6" d="M162 112h1v1h-1z"/><path d="M62 92h1v1h-1zm-52 7h1v1h-1zm1 3h1v1h-1zm4 7h1v1h-1zm47 11h1v1h-1zm4 0h1v1h-1z" fill="#006593"/><path d="M101 106h1v1h-1zm11 3h1v1h-1zm16 6h1v1h-1z" fill="#51cde7"/><path fill="#4d94b4" d="M16 107h1v1h-1z"/><path fill="#c7eff8" d="M99 107h1v1h-1z"/><path d="M111 109h1v1h-1zm22 4h1v1h-1z" fill="#64d3ea"/><path fill="#a0daeb" d="M91 113h1v1h-1z"/><path fill="#13719c" d="M67 121h1v1h-1z"/><path d="M0 85h1v1H0zm11 4h1v1h-1z" fill="#96c0d3"/><path d="M20 88h1v1h-1zm39 0h1v1h-1zm11 0h1v1h-1zM13 98h1v1h-1zm164 8h1v1h-1zm-158 8h1v1h-1zm-17 2h14v1H2zm14 0h1v1h-1zm53 7h1v1h-1zm-36 2h1v1h-1zm30 0h2v1h-2zm2 0h1v1h-1z" fill="#fefeff"/><path fill="#3d8aad" d="M14 104h1v1h-1z"/><path d="M87 87h1v1h-1zM25 97h1v1h-1zm0 1h1v1h-1zm-1 10h1v1h-1zm6 0h1v1h-1zm-5 2h1v1h-1zm7 0h1v1h-1zm57 2h1v1h-1zm-56 3h1v3h-1zm0 3h1v1h-1z" fill="#009acb"/><path fill="#d1e3ec" d="M68 89h1v1h-1z"/><path fill="#8e8e90" d="M161 89h1v1h-1z"/><path fill="#72c8d3" d="M31 91h1v1h-1z"/><path d="M160 96h1v1h-1zm22 4h1v1h-1z" fill="#686869"/><path fill="#53cee7" d="M165 108h1v1h-1z"/><path fill="#606061" d="M140 88h1v1h-1z"/><path d="M107 94h1v1h-1zm37 2h1v1h-1z" fill="#6a6a6b"/><path fill="#21c0e0" d="M107 109h1v1h-1z"/><path fill="#46cae5" d="M189 114h1v1h-1z"/><path d="M1 88h1v4H1zm8 3h1v1H9zm-8 1h1v1H1zm8 0h1v1H9zm-8 3h1v3H1zm8 0h1v1H9zm-8 3h1v1H1zm0 3h1v1H1zm0 1h1v8H1zm11 1h1v1h-1zm-11 7h1v1H1zm67 8h1v1h-1z" fill="#036895"/><path d="M159 107h1v1h-1zm23 0h1v1h-1zm-44 3h1v1h-1zm0 1h1v1h-1z" fill="#64d2ea"/><path fill="#8ddef0" d="M192 112h1v1h-1z"/><path fill="#6ed6eb" d="M113 113h1v1h-1z"/><path fill="#91e0f0" d="M157 113h1v1h-1z"/><path fill="#96e1f0" d="M188 115h1v1h-1z"/><path d="M75 86h1v1h-1zm-58 16h1v1h-1zm19 17h1v1h-1z" fill="#f2fafc"/><path d="M60 88h1v1h-1zm-4 27h1v1h-1z" fill="#fbfdfd"/><path fill="#9dd8eb" d="M29 102h1v1h-1z"/><path d="M176 107h1v1h-1zm-77 2h1v1h-1zm42 3h1v1h-1zm31 2h1v1h-1zm13 0h1v1h-1z" fill="#dcf5fa"/><path d="M165 86h1v1h-1zm-2 9h1v1h-1zm-32 1h1v1h-1z" fill="#8e8e8f"/><path d="M98 92h1v1h-1zm58 0h1v1h-1zm-53 2h1v1h-1zm9 0h1v1h-1z" fill="#dededf"/><path fill="#32c4e3" d="M127 108h1v1h-1z"/><path d="M100 89h1v1h-1zm9 5h1v1h-1zm2 2h1v1h-1zm62 5h1v1h-1z" fill="#787879"/><path d="M170 97h1v1h-1zm10 0h1v1h-1zm11 0h1v1h-1z" fill="#8f8f90"/><path fill="#f1f7f9" d="M16 115h1v1h-1z"/><path d="M144 105h1v1h-1zm42 1h1v1h-1z" fill="#cff1f9"/><path d="M109 107h1v1h-1zm56 6h1v1h-1zm11 1h1v1h-1z" fill="#e0f6fb"/><path d="M165 107h1v1h-1zm27 0h1v1h-1zm-93 4h1v1h-1zm44 1h1v1h-1z" fill="#f4fcfe"/><path fill="#27abd3" d="M25 121h1v1h-1z"/><path fill="#a2c7d8" d="M11 85h1v1h-1z"/><path d="M41 87h1v1h-1zm5 0h1v1h-1zm1 0h1v1h-1zm5 0h1v1h-1zm-13 16h1v1h-1z" fill="#5dc1c3"/><path d="M155 88h1v1h-1zm-53 2h1v1h-1zm53 1h1v1h-1zm0 1h1v1h-1zm-45 3h1v1h-1zm51 0h1v1h-1z" fill="#99999a"/><path fill="#25c1e1" d="M159 108h1v1h-1z"/><path fill="#bdd8e4" d="M68 122h1v1h-1z"/><path fill="#d5e6ed" d="M64 124h1v1h-1z"/><path fill="#72c8c9" d="M32 93h1v1h-1z"/><path fill="#abe7f4" d="M148 109h1v1h-1z"/><path fill="#effbfd" d="M193 112h1v1h-1z"/><path fill="#bee6e6" d="M54 85h1v1h-1z"/><path fill="#8fd4d5" d="M55 86h1v1h-1z"/><path fill="#009ccc" d="M32 113h1v1h-1z"/><path fill="#cdecec" d="M39 114h1v1h-1z"/><path fill="#55bcdd" d="M35 115h1v1h-1z"/><path fill="#066a96" d="M65 122h1v1h-1z"/><path fill="#65c4c6" d="M41 110h1v1h-1z"/><path d="M183 110h1v1h-1zm10 0h1v1h-1z" fill="#9ce3f2"/><path d="M148 89h1v5h-1zm-45 1h1v1h-1zm45 4h1v1h-1zm0 4h1v1h-1zm0 1h1v1h-1zm-46 2h1v1h-1z" fill="#acacad"/><path fill="#b0e0ef" d="M20 90h1v1h-1z"/><path fill="#d5eeef" d="M31 94h1v1h-1z"/><path d="M68 102h1v1h-1zm0 1h1v1h-1zm0 5h1v1h-1zm0 1h1v1h-1zm0 4h1v1h-1zm0 1h1v1h-1z" fill="#046895"/><path fill="#80cdcf" d="M40 111h1v1h-1z"/><path d="M187 112h1v1h-1zm-69 1h1v1h-1z" fill="#88ddef"/><path fill="#4690b2" d="M60 118h1v1h-1z"/><path fill="#b8d5e2" d="M62 123h1v1h-1z"/><path d="M138 85h1v1h-1zm-36 2h1v1h-1zm56 5h1v1h-1z" fill="#e7e7e7"/><path fill="#a6cada" d="M12 86h1v1h-1z"/><path d="M77 87h1v1h-1zm-57 5h1v1h-1zm7 4h1v1h-1z" fill="#26aad3"/><path d="M59 93h1v20h-1zm0 20h1v1h-1z" fill="#bed6e2"/><path fill="#b8b8b8" d="M145 95h1v1h-1z"/><path d="M157 106h1v1h-1zm9 7h1v1h-1z" fill="#dff6fb"/><path d="M161 110h1v1h-1zm-58 3h1v1h-1z" fill="#72d7ec"/><path fill="#e3f4f4" d="M38 113h1v1h-1z"/><path fill="#ccf1f8" d="M188 113h1v1h-1z"/><path fill="#4ccce7" d="M187 108h1v1h-1z"/><path fill="#acacae" d="M148 88h1v1h-1z"/><path fill="#84b5cb" d="M12 100h1v1h-1z"/><path fill="#a9cbdb" d="M15 104h1v1h-1z"/><path fill="#9a9a9b" d="M125 90h1v1h-1z"/><path d="M149 106h1v1h-1zm-31 3h1v1h-1zm0 1h1v1h-1z" fill="#3fc8e5"/><path d="M140 107h1v4h-1zm0 4h1v1h-1z" fill="#1dbee0"/><path d="M34 109h1v1h-1zm2 8h1v1h-1z" fill="#dcf1f8"/><path fill="#c2dae5" d="M59 119h1v1h-1z"/><path d="M133 86h1v1h-1zm-17 3h1v1h-1zm12 0h1v1h-1zm-15 1h1v1h-1zm1 1h1v1h-1zm73 7h1v1h-1z" fill="#9f9fa0"/><path d="M91 88h1v22h-1zm0 22h1v1h-1z" fill="#91d4e9"/><path fill="#616164" d="M111 89h1v1h-1z"/><path fill="#bad5e1" d="M59 92h1v1h-1z"/><path d="M61 92h1v1h-1zM9 96h1v1H9zm-8 16h1v1H1z" fill="#026795"/><path fill="#f0f0f1" d="M120 94h1v1h-1z"/><path d="M11 96h1v1h-1zm48 20h1v1h-1zm0 1h1v1h-1z" fill="#bed8e4"/><path d="M100 105h1v1h-1zm48 0h1v1h-1zm-26 2h1v1h-1zm22 6h1v1h-1zm-28 1h1v1h-1z" fill="#e6f8fc"/><path fill="#7fb1c9" d="M17 108h1v1h-1z"/><path fill="#28abd3" d="M23 109h1v1h-1z"/><path fill="#84b6cb" d="M2 114h1v1H2z"/><path fill="#6c6c6d" d="M124 87h1v1h-1z"/><g fill="#006794"><path d="M5 88h2v1H5zm2 0h1v1H7zm-2 1h1v1H5zm1 0h2v1H6zm2 0h1v1H8zm-3 1h1v1H5zm3 0h1v1H8zm-5 2h1v2H3zm3 1h1v1H6zm-3 1h2v1H3zm2 0h1v1H5zm59 0h2v1h-2zM7 95h1v1H7zm-3 1h3v1H4zm3 0h1v1H7zm-4 1h1v1H3zm59 0h4v1h-4zm4 0h1v1h-1zm-2 1h2v1h-2zm2 0h1v1h-1zM5 99h1v2H5zm1 1h1v1H6zm1 0h1v1H7zm56 0h1v1h-1zm1 0h1v1h-1zm-59 1h3v1H5zm3 0h1v1H8zm55 0h3v1h-3zm-59 1h1v1H4zm4 0h2v1H8zm2 0h1v4h-1zm-6 1h1v1H4zm59 0h1v1h-1zm3 0h1v2h-1z"/><path d="M9 104h2v2H9zm2 0h1v1h-1zm54 0h1v1h-1zm-54 1h1v1h-1zm54 0h1v1h-1zm1 0h1v1h-1zm-63 1h1v2H3zm1 0h1v2H4zm5 0h1v1H9zm1 0h1v3h-1zm-7 2h1v1H3zm1 0h1v1H4zm62 0h1v2h-1zm-4 1h1v2h-1zm-53 1h1v1H9zm57 0h1v1h-1zm-57 1h5v1H9zm5 0h1v1h-1zm48 0h1v1h-1zm1 0h1v1h-1zm0 5h1v1h-1zm1 0h1v1h-1zm-2 1h4v1h-4zm4 0h1v1h-1zm-4 1h1v1h-1zm3 0h1v1h-1zm1 0h1v1h-1zm-3 2h1v1h-1zm1 0h1v1h-1z"/></g><path d="M180 105h1v1h-1zm-52 2h1v1h-1zm-7 7h1v1h-1z" fill="#effafd"/><path d="M173 109h1v1h-1zm-9 1h1v1h-1zm-1 2h1v1h-1z" fill="#0ebade"/><path d="M137 110h1v1h-1zm0 1h1v1h-1z" fill="#5fd1e9"/><path fill="#69d4ea" d="M148 113h1v1h-1z"/><path fill="#fcfcfb" d="M179 91h1v1h-1z"/><path fill="#95d6d7" d="M34 98h1v1h-1z"/><path d="M145 107h1v1h-1zm-45 1h1v1h-1zm69 1h1v1h-1zm-66 1h1v1h-1zm3 0h1v1h-1zm4 0h1v1h-1zm1 0h1v1h-1z" fill="#18bddf"/><path d="M106 109h1v1h-1zm46 0h1v1h-1zm-21 3h1v1h-1z" fill="#34c5e3"/><path fill="#6ec6e1" d="M25 114h1v1h-1z"/><path fill="#22c0e0" d="M190 114h1v1h-1z"/></svg>