<svg xmlns="http://www.w3.org/2000/svg" role="img" viewBox="-14.71 -14.71 764.92 280.92"><title>Sophgo Technologies Ltd. (member) logo</title><defs><style>.cls-1,.cls-2{fill:#3480e5;stroke-width:0}.cls-2{fill:#111}</style></defs><path d="M.12555 177.8736c1.81115-1.10785 1.43887-3.1596 1.93595-4.77443 3.8066-12.36616 12.85325-19.30612 25.81271-19.33936 25.80168-.0662 51.60402.04717 77.40509-.09375 3.81552-.02084 4.55549.9803 3.3247 4.49438-1.20077 3.42842-2.0205 7.021-2.66711 10.60281-.58278 3.22827-2.15471 4.05308-5.39116 4.03169-23.63677-.15616-47.27507-.08782-70.91288-.07757-7.57101.00329-10.51781 2.98855-10.50199 10.57275.01592 7.63596 3.31376 11.04658 10.80228 11.01811 18.30433-.06961 36.62616.27704 54.90735-.42114 15.74225-.6012 27.30935 11.69059 29.05055 24.62976 2.01322 14.96062-7.042 28.43473-21.76087 32.37457-.39324.10528-.6891.57355-1.03039.87253H5.12413c1.42803-5.0928 3.0407-10.14366 4.21386-15.29437.68818-3.02143 2.18131-3.75994 5.11599-3.74547 22.78549.11249 45.57179.06236 68.35784.06026 1.33037-.00012 2.67705.11026 3.98822-.0536 5.1857-.64807 8.4247-4.85883 8.29585-10.66019-.11256-5.06775-3.62728-8.99753-8.67686-9.01309-16.45848-.05069-32.92739-.21468-49.37317.28847-11.8518.36262-22.95988-.09861-30.88655-10.76869-2.69658-3.62985-3.90017-7.88338-6.03375-11.72295v-12.98074z" class="cls-2"/><path d="M735.91722 231.7936c-1.33385-.34813-1.62082.54824-2.05636 1.53281-4.56823 10.32756-12.37418 15.01107-23.82846 14.87716-23.13609-.27052-46.27895.04146-69.419.09765-12.35374.03-22.55379-9.96564-22.63196-22.38965-.10465-16.62943-.10532-33.26033-.01489-49.88986.06431-11.81305 10.08107-22.12434 21.8552-22.20256 24.30794-.16147 48.61795-.12285 72.92656-.0302 9.81601.03742 17.75773 5.9699 21.26241 15.2697.4937 1.31004.26537 3.0592 1.9065 3.82236v58.91259zm-59.32854-.87867v.02017c8.65795 0 17.31596.01905 25.97385-.00576 7.56286-.02167 11.3323-3.75023 11.34829-11.24403.02581-12.13981.0324-24.27974.00525-36.41954-.01959-8.77397-3.60097-12.31423-12.45045-12.32385-16.64989-.01809-33.29984-.01597-49.94972.00312-8.78535.01009-12.36387 3.59822-12.38706 12.47077-.03179 12.13978-.01031 24.27974.00818 36.41961.0108 7.07523 3.86725 11.01075 10.97846 11.06374 8.82398.06576 17.64875.01575 26.47322.01575z" class="cls-1"/><path d="M257.0528 251.76397c-.0029-31.09655.07569-62.19358-.10941-93.28905-.02374-3.99246 1.13515-4.85056 4.92957-4.81936 21.80962.17928 43.62171.02944 65.43252.10972 19.11519.07035 34.54164 13.97612 36.48741 32.70895 1.95782 18.84826-10.66797 35.95942-29.39921 39.82111-1.1371.23444-2.30047.48154-3.45218.48431-13.81301.03334-27.62612.02156-42.08202.02156 2.00413-5.91191 3.96671-11.46026 5.74651-17.06649.74094-2.33397 2.49127-1.73785 4.03319-1.74351 9.32372-.03422 18.64804.03806 27.9713-.03731 10.42057-.08424 18.40388-7.75961 18.40909-17.56279.00546-10.22273-7.82194-17.66034-18.68639-17.6801-15.1512-.02756-30.30398.11036-45.45255-.08997-3.75907-.0497-4.96859.78843-4.93452 4.81302.20981 24.77516.10288 49.55297.10129 74.32992h-18.99462zm197.94396 0c-.00119-11.7978-.12872-23.5978.07621-35.39202.05882-3.38563-.6967-4.53185-4.30988-4.45561-11.64203.2457-23.29376-.0005-34.93881.1592-2.7541.03777-4.13439-.69107-5.01976-3.40337-1.68415-5.15935-3.79812-10.17875-5.88795-15.66118 15.66552 0 30.77571-.13032 45.88063.0948 3.62028.05395 4.35976-1.03394 4.28507-4.43076-.23004-10.4649.01028-20.93947-.14946-31.40697-.04277-2.80102.71812-3.77537 3.57476-3.58725 3.64469.24003 7.33487.28048 10.97275-.00655 3.47811-.27442 4.47032.85643 4.43704 4.38721-.18177 19.27627-.11236 38.55513-.0875 57.83303.01541 11.95655.10516 23.91298.16151 35.86946h-18.99462zm-79.97736 0c.05873-30.77683.20093-61.55398.08079-92.33013-.01684-4.32116.72636-6.36513 5.56971-5.77698 4.24514.5155 9.93228-1.30355 12.50253.8548 2.71423 2.27923.79564 8.1149.80653 12.38665.07203 28.2884.03594 56.57708.03505 84.86566h-18.99462z" class="cls-2"/><path d="M626.94807.13731c1.00753 1.69635 2.88486 1.42956 4.39945 1.7779 2.63195.60531 5.08877 1.55992 7.3496 2.96801 4.09338 2.54944 7.48152 5.65218 7.21445 11.03764-.27147 5.47351-3.72789 8.65642-8.25627 10.90948-1.92133.95594-3.9478 2.11015-6.01014 2.30909-14.70006 1.41807-29.4213 2.48862-44.0543-.70154-2.4916-.54319-4.55962-1.9907-6.61049-3.39857-7.16948-4.92177-7.23477-13.38756-.37258-18.76074 4.28193-3.35279 9.73559-3.71212 14.34933-6.14126h31.99094zm-16.33022 24.17492c6.44477-.41023 12.9973.74875 19.3301-1.19355 4.27986-1.31267 9.72552-2.61094 9.61233-7.83788-.10696-4.93761-5.47709-6.44526-9.64601-7.16757-12.01247-2.08129-24.14337-1.39261-36.22992-.44764-1.93561.15133-3.92186.78321-5.69675 1.6003-2.83526 1.30526-6.33848 2.63671-5.97042 6.45166.36281 3.76127 3.51683 5.30212 6.89972 6.63961 7.10492 2.80911 14.45367 1.47134 21.70095 1.95508zM530.97524.13731c-.04509 10.13633-.23144 20.27507-.05821 30.40768.0601 3.51293-1.0226 4.61265-4.52185 4.51351-3.31114-.09381-5.36164-.43484-5.13978-4.55811.54391-10.10888-.65497-20.26596.72239-30.36307h8.99745z" class="cls-1"/><path d="M184.99909 153.74355c11.8252.00663 23.65079-.05267 35.47552.02218 13.69346.08666 23.3887 9.97434 23.39682 23.74283.00931 15.80353.02406 31.60711-.00363 47.4106-.02342 13.36248-9.87786 23.29929-23.28348 23.3361-23.31717.06402-46.63468.04196-69.95198.00849-14.10692-.02025-23.98331-9.29052-24.28833-23.4734-.33972-15.79619-.31487-31.6099-.00744-47.40743.28058-14.41832 10.16773-23.61951 24.68579-23.64244 11.32556-.01787 22.65116-.00357 33.97674.00306zm.29447 77.21351c8.82111 0 17.64263.05281 26.4632-.01709 6.78912-.0538 10.63923-3.60057 10.72417-10.35453.16307-12.96427.14042-25.93354-.02052-38.89808-.08712-7.01673-3.93901-10.7384-10.9332-10.77018-17.47543-.07941-34.95167-.07615-52.42717-.00404-7.33577.03026-11.09371 3.74355-11.14653 11.00031-.0932 12.79945-.08565 25.60031-.01634 38.40001.03811 7.03587 3.74032 10.59445 10.89377 10.63111 8.82065.04521 17.64173.0108 26.46263.01249z" class="cls-2"/><path d="M593.64213 154.07366c-2.03092 5.74482-5.07516 10.66377-7.72962 15.75453-.9869 1.89282-2.97804 1.09589-4.52521 1.10005-19.14991.05136-38.30007.02378-57.4501.03814-9.85817.00739-12.99553 2.9548-13.08019 12.59976-.10657 12.14053-.10626 24.28293-.02904 36.42374.04692 7.38508 3.7029 10.93111 11.13939 10.94951 15.48652.03832 30.97322.03786 46.45968-.00664 8.13008-.02337 11.48832-3.45124 11.53354-11.56332q.0576-10.33315-10.39641-10.33341c-5.99482-.0002-11.98971.01822-17.98435-.01368-1.62253-.00864-3.57125.43042-4.52832-1.32616-2.66874-4.89825-5.17267-9.88607-8.09128-15.51266 16.38104 0 31.82406.0004 47.26707-.00029 3.99655-.00018 8.00207.15904 11.98647-.06206 2.74288-.15219 3.40211.97218 3.37917 3.45982-.09208 9.97837.23138 19.9676-.11569 29.93486-.46715 13.41733-10.21934 22.58941-23.52325 22.60189-21.14825.01982-42.3126-.51133-63.4395.15629-15.57503.49217-25.76883-11.38672-25.43707-25.53612.34689-14.79461.00137-29.60416.10321-44.40618.07771-11.29259 5.72363-19.66446 15.35625-23.315 2.37823-.90128 4.82557-1.23594 7.33743-1.23614 26.31048-.00215 52.62103.00006 78.93151.01492.79659.00046 1.59305.15175 2.83629.27814z" class="cls-1"/><path d="M26.9901 95.54746c9.21405-5.07991 17.74367-8.78926 24.03417-16.07663-8.67998-.15602-17.07408 2.04754-25.631 1.45461-8.57099-.5939-16.65707-2.40828-23.87867-8.69741 3.74491-.997 6.7753-.08627 9.81156.28807 16.31002 2.0108 31.70745-.96967 46.30543-8.4005 4.31443-2.19617 9.04381-1.70402 13.0971-.14874 4.1289 1.5843 7.97141 1.50666 12.39298.9984-1.51387-2.58829-4.16291-2.36678-6.32169-2.86708-6.97478-1.61643-13.92465-3.21314-20.0229-7.2464-5.5287-3.65657-6.24762-6.83885-2.59301-12.46789 1.17354-1.80755 2.61376-3.44144 3.80618-5.23807.67015-1.0097 2.02532-2.05176.61077-3.45563-1.13718-1.12861-2.44511-.81445-3.70453-.26076-4.87417 2.14292-9.90202 3.74571-15.10126 4.95851-4.81415 1.12298-8.57687-.80417-11.85376-3.69819-3.9721-3.50799-1.2804-10.75737 4.76112-12.27595 5.2947-1.33086 9.77572-3.23988 11.74265-8.76418.56024-1.5735 1.29698-1.45147 2.54378-.60916 2.47408 1.67144 5.12008 3.08722 7.61582 4.72879 7.26583 4.77911 14.57871 4.28713 22.21545.77821 5.82132-2.67478 11.47924-5.84301 18.78478-7.85208-3.05533 3.77074-6.60098 5.52366-8.5614 8.77661-.76966 1.27713-2.1068 2.42394-2.34172 3.77632-1.21853 7.01479-4.92894 11.99613-11.75068 15.12258 8.53183 1.24223 16.59395-1.4282 25.59717-1.0195-3.70477 3.17483-8.10535 3.35174-11.23533 6.18421 5.53417-.50896 10.7975.51553 16.10645 1.32452 2.83394.43184 3.17918-.99491 2.19844-3.67842-1.45163-3.97191-4.07343-6.63435-8.14429-8.81084 7.19274-3.31455 14.28171-5.74818 20.50493-10.74678-3.77242-1.27438-7.36471-1.72521-10.49024-3.50774-2.63267-1.50144-4.72269-3.29165-3.68142-6.71501.97-3.18908 1.33015-7.04829 6.31748-6.35692 1.13745.15768 2.33331.04258 3.48662-.08656 5.44173-.60931 6.79677-.46577 6.58054.63035-.66505 3.37129 5.18171 2.44467 3.90469 6.21499-.4751 1.40272.7902 1.49937 1.85889 1.36147 3.42721-.44222 6.89585.0685 10.30037-1.32637 6.77724-2.77672 13.72461-1.37542 20.58029-.03371 1.45392.28454 3.25007.96552 3.51803 2.45601.29499 1.64078-1.664 2.22845-2.82427 2.95309-6.42932 4.01547-13.76882 5.67911-20.91034 7.8308-4.13454 1.24572-8.31062 2.3535-12.46355 3.53897-1.52919.43651-2.79241 1.30237-3.10779 2.91816-.38514 1.97319 1.40054 2.38954 2.6225 3.1441 1.12849.69684 2.3811 1.22107 3.42493 2.02177 3.83595 2.9425 4.17011 6.13986.79619 9.68689-3.8994 4.09946-8.0391 7.96997-11.99864 12.01395-.99451 1.01572-3.0411 1.89356-2.42918 3.4127.66918 1.6613 2.86217 1.33143 4.49163 1.43635 8.02091.51647 15.94162-.78794 23.9043-1.35084 6.43755-.45509 12.44853 1.68251 18.52657 3.29246.98791.26168 2.59747.64697 2.51244 2.01498-.10661 1.71536-1.84279 1.68306-3.07591 1.77179-13.60108.97873-27.0922 3.56371-40.79137 3.00305-3.58045-.14653-5.18446.43681-5.135 4.65345.09446 8.05247-1.46285 16.09248 1.91529 23.99147 1.18395 2.76839.65092 6.23299-.26964 9.34031-1.67416 5.65112-6.50681 9.02192-11.92489 8.2725-6.11594-.84594-8.95063-3.71716-8.36078-10.65603.90044-10.59273 1.07348-21.1998 1.65804-31.79512.40142-7.27586.3819-7.45221-6.67325-6.66439-6.33884.70783-11.51275 2.8383-16.27773 7.99969C61.87023 90.19 46.69301 97.15884 26.99009 95.54745zm55.13912-41.92431c1.2491-.0779 2.89373-.15393 4.53298-.29311.91704-.07786 1.67055-.59518 1.51443-1.54833-.08224-.50211-.77587-1.23755-1.25628-1.28964-4.61796-.50074-8.80213-3.76514-13.90851-1.61512-2.36023.99377-4.12353 2.59142-3.60927 4.47665.53148 1.94835 3.39002 2.05011 5.17175 1.19199 2.36302-1.13809 4.64263-1.54116 7.55491-.92244zm-7.53985-10.7425c-1.05429 0-1.55099.00273-2.04766-.00048-2.00663-.013-3.81409.35909-3.51062 2.93447.29466 2.50066 2.25884 1.25188 3.50147 1.21004 1.46399-.04929 2.91167-.51452 4.37173-.7691 1.12048-.19537 2.63632-.14325 2.45297-1.6998-.06787-.57618-1.47911-1.15351-2.37101-1.42992-.92472-.28658-1.9625-.20924-2.39687-.24521zm19.89857 8.7634c.43812.09066.91846.35074 1.28738.24011 2.26576-.67944 4.86998-.18321 6.80339-1.9202.12865-.11557-.12684-1.02842-.40461-1.16615-2.30669-1.1438-3.6016 1.94788-5.84812 1.44605-.87446-.19534-1.52491.42522-1.83804 1.40019zm316.26609 3.04198c-13.63371 7.46018-27.60705 12.14318-41.73178 16.45016-8.27491 2.52321-16.57011 5.01868-21.42301 13.31161-.96716 1.65279-3.54947 2.33355-5.31975 3.55943-.83225.5763-1.53408 1.46909-1.00826 2.54771.51289 1.0521 1.71829 1.24207 2.57694.7772 4.48042-2.42575 8.61545-.2246 12.92774.62346 9.75054 1.91755 19.56706 1.02588 29.34228.0641 12.91565-1.27079 25.94987-.88671 38.81207-2.89899 8.5321-1.33484 11.18937-5.72893 7.43335-13.56285-1.66063-3.46358-.79476-5.0045 2.20345-6.65449 7.12314-3.92 11.26543-3.01526 16.17367 4.97167 1.9155 3.11694 4.31799 4.75579 7.37493 6.07814 4.40961 1.9075 8.80213 3.85619 13.17138 5.85392 1.27753.58412 3.64878 1.9445 1.97591 2.95637-4.43008 2.6796-5.81491 8.59505-12.13746 9.49405-8.63128 1.22727-17.26943.62782-25.8501 1.47127-17.5467 1.72476-35.04104 4.46202-52.74627 3.01973-12.07855-.98395-24.26068-1.4995-35.82808-5.77271-3.67502-1.35761-7.00873-3.05929-8.79478-6.82213-.48439-1.0205-.93757-1.82904-2.39877-2.12791-4.86056-.99416-6.62932-4.85304-6.83367-9.1651-.33053-6.97331-.01705-13.97476-.13891-20.9615-.0428-2.45363.82667-3.477 3.26525-4.01352 3.73359-.82142 7.22025-.4512 10.7753.72517 3.17824 1.05168 4.94968 2.61524 4.69456 6.4325-.30442 4.55477 1.51141 5.44926 5.77971 3.13373 4.81364-2.61139 9.77104-5.08262 14.18385-8.27877 7.27779-5.2712 15.29907-6.11361 23.71527-4.90985 6.64222.95003 13.20637 2.44477 19.80518 3.69759zM259.83531 94.17662c.58696 11.40714-4.30487 17.34511-13.6542 16.76887-5.85482-.36085-14.12042-6.62239-16.15047-12.00116-.62267-1.6498-.01005-2.84882.57694-4.19035 4.65255-10.63314 9.16078-21.33239 14.00729-31.87654 2.68378-5.83887 7.41823-9.6493 13.85592-10.69534 4.76104-.7736 9.48111-1.579 14.05821-3.12357 8.07938-2.7264 15.69737.42141 23.43971 1.89504 1.5926.30312 2.59335 1.13595 2.60638 3.04469.08311 12.16678.12286 24.34228 3.45404 36.2071.90538 3.22486 1.11708 6.52861.8609 9.87798-.16212 2.11932-.32934 4.15423 1.19354 6.12222 2.10582 2.72133.8213 4.80969-2.15628 5.60806-8.72376 2.33906-16.40823-1.04067-23.71429-5.09979-2.67664-1.4871-1.77437-4.76526-1.03376-7.33105.7795-2.70051 2.09956-5.26694 2.67679-7.99875.74207-3.51234-.2988-5.75446-4.66198-5.41676-4.42178.34223-8.86242 1.17181-13.31651.47024-2.02634-.31918-2.14868.71045-2.06527 2.25719.09824 1.82243.02303 3.6542.02303 5.48192zm10.03662-25.18002c-.00003-.04514-.00009-.09027-.00012-.1354-2.31593 0-4.73917-.42808-6.9186.11669-2.32216.58044-5.80671 1.04558-5.85814 4.04187-.09205 5.35879 4.3301 7.65326 9.5893 5.12471 3.23935-1.55745 6.32743-2.63088 9.94796-1.76258 2.63417.63173 4.0245-.65086 4.37764-3.29818.38554-2.89034-1.24928-3.92561-3.70205-4.05778-2.47199-.1332-4.95679-.02933-7.43597-.02933zm12.40362-3.47537c-1.28516-1.49239-3.03347-2.58905-3.01224-3.65038.13149-6.57175-4.5865-5.08865-7.99871-4.65195-3.39906.43502-6.68054 1.89906-9.96465 3.05111-1.01967.3577-2.51964.76386-2.34617 2.19923.21082 1.74454 1.89332 1.55583 3.15548 1.70147 3.62306.41804 7.67449-.09809 10.76636 1.39139 3.32996 1.60415 5.89857 1.46267 9.39993-.04088zm119.00329-54.58186c-10.99054 7.57976-22.31906 12.80734-34.71649 14.72894-7.8671 1.21941-14.33392 4.8762-21.06642 8.37421-1.35322.70308-2.98811 1.44774-2.19719 3.28596.76657 1.7817 2.53081 1.23832 3.94069.80426 7.08656-2.18163 14.18419-4.32025 21.29863-6.409 11.65161-3.42083 22.25212 1.31136 33.24934 3.08417 1.13685.18326 2.4254.76101 2.54292 2.05985.15438 1.70555-1.44533 2.04366-2.65226 2.48893-6.92028 2.55301-14.19584 3.56577-21.45437 4.1952-13.35687 1.15825-26.81223 3.3543-39.98053-1.42763-.30927-.11231-.65829-.11514-.96817-.22622-14.52939-5.20809-17.75208-10.72518-15.43298-25.92207.31482-2.06296 1.61261-2.86467 3.06023-3.50996 8.43026-3.7579 14.11246-1.48808 16.00435 7.19932.6316 2.90033 1.6185 3.48512 3.73704 2.6314 6.38549-2.57324 13.14862-4.67673 17.56-10.49165 4.65872-6.14096 12.20583-9.02259 19.76873-7.13257 5.76018 1.43951 11.58772 2.75063 17.3065 6.26686zm-138.9864.63019c6.87855-4.50727 19.76082-2.77653 25.41294 3.32083 1.76625 1.90538.61033 3.4939-.472 4.82707-2.29696 2.82934-4.85818 5.44494-7.31742 8.14241-.63892.70082-1.63357 1.29788-.68001 2.42478.76382.9027 1.57936.86571 2.63137.34255 8.86001-4.40616 16.99757.08362 25.59856 1.63134-1.01744 3.04692-3.42792 3.17847-5.366 3.72634-11.6521 3.29388-23.31161 6.51538-35.29128 8.54064-10.83909 1.83244-21.00684 6.15116-31.12281 10.17812-11.47806 4.56918-22.69282 4.11801-34.14403 1.01287-5.27892-1.43145-10.45003-3.25946-15.76688-4.93824 1.59734-2.67434 3.96763-2.07535 6.23369-1.78404 14.93208 1.91961 29.09314-.61252 42.60613-7.1807 3.46939-1.68634 6.51331-3.67952 9.14094-6.63188 4.88508-5.48876 11.03604-9.53203 17.08496-13.65106 5.57737-3.79794 5.73104-5.09208 1.45186-9.96103z" class="cls-2"/><path d="M525.5906 73.03429c-7.54401-.13399-16.10619.87258-24.14841-2.71072-1.80198-.8029-3.62718-1.67103-5.21114-2.82486-7.27043-5.29626-7.17601-13.88299.26604-19.05391 4.44131-3.08595 9.58066-4.81771 14.90655-4.95562 10.77564-.27902 21.57513-.86647 32.34448.41086 3.02649.35898 5.8327 1.33625 8.51474 2.65186 4.8004 2.35475 9.05621 5.50254 9.14011 11.37356.08982 6.27748-4.7403 9.3985-9.49597 11.99326-4.26417 2.32666-9.1046 3.01503-13.9629 3.10186-3.82155.0683-7.6453.01372-12.3535.01372zm85.45725 18.77317c7.9106.55745 15.9469-.98911 23.70349 2.13156 3.83101 1.54135 6.90271 3.83702 9.4449 6.89985 2.66465 3.2105 2.39031 8.44277-.42627 12.02837-2.66471 3.39228-6.21327 5.78685-10.29384 6.6867-14.76669 3.25634-29.71333 3.40673-44.44408.20704-9.03901-1.96338-13.39306-7.14054-13.35791-13.30862.03405-5.97763 4.80009-10.68436 13.52608-13.35051 7.18168-2.19432 14.56643-.77183 21.84763-1.2944zm84.95647-88.0532c7.47255.44474 15.19894-.89024 22.61817 1.96379 6.0171 2.31467 11.62757 5.38288 11.91203 12.52795.27885 7.00364-5.2008 10.23638-10.78216 12.86816-1.04176.49124-2.19036.87877-3.32724 1.0281-14.07304 1.84844-28.19972 2.27322-42.19789-.19159-8.46318-1.49019-14.09232-7.35209-14.23169-13.28587-.13271-5.6494 5.1972-10.94305 13.54145-13.46659 7.33832-2.21932 14.88391-1.06489 22.46733-1.44396zM526.58226 88.91539c6.96013.19044 13.97291-.72521 20.8603 1.16948 8.18353 2.25126 14.21473 7.90061 14.18159 13.56886-.0324 5.53844-5.02989 10.32824-13.32948 13.12978-3.21534 1.08535-6.52025 1.59128-9.80606 1.6198-9.811.08515-19.6386.67469-29.43466-.44736-5.26261-.6028-9.94771-2.59159-14.00043-5.95688-5.35002-4.44257-5.61984-11.20878-.65347-16.11245 4.88637-4.82461 11.07722-6.59161 17.69753-6.92399 4.81687-.24184 9.65565-.04726 14.48467-.04726zm-.17366 23.30279c6.31456-.66308 13.05862.93815 19.5439-1.25599 3.89227-1.31686 8.96151-2.34809 8.89659-7.32946-.06755-5.18593-5.22734-6.81526-9.3513-7.46921-12.85879-2.03907-25.84254-1.99253-38.70791.03523-4.24059.66837-9.29858 2.52504-9.4319 7.43885-.13055 4.80962 4.9836 6.08024 8.91953 7.36106 6.49023 2.11205 13.23057.62493 20.13108 1.21952zM694.4419 78.8619c-7.53363-.18881-16.09389.95675-24.14587-2.73784-2.43193-1.11587-4.78996-2.29833-6.70141-4.20924-4.95551-4.95414-4.77294-11.41942.42383-16.16395 4.64535-4.24111 10.42063-6.03015 16.39929-6.33383 11.41876-.57998 22.89098-1.27115 34.27527.66667 4.16032.70817 7.89767 2.43718 11.21515 5.06418 6.16311 4.88045 6.37527 12.34677.39472 17.42221-5.32045 4.51519-11.77084 5.94258-18.50977 6.25611-4.14568.19288-8.30765.0357-13.3512.0357zm.59346-6.04821c3.66272 0 7.33545.17208 10.98584-.04026 5.49503-.31964 10.99249-.88476 15.55913-4.4743 3.52183-2.76835 3.53257-5.87374.03942-8.59505-2.68875-2.09462-5.82574-3.19581-9.15689-3.67337-10.43943-1.4966-20.93237-.74542-31.40096-.50997-2.42943.05464-4.90144.90176-7.23898 1.714-3.34378 1.16188-7.2477 2.73062-7.40672 6.55756-.17567 4.22779 3.93407 5.78665 7.38188 7.06818 6.87757 2.5563 14.1016 1.90746 21.23727 1.95322zM606.1184 61.54315c.00342-5.96925.25579-11.95286-.08335-17.90282-.23461-4.11599 2.24442-3.58936 4.7511-3.63379 2.41368-.04278 4.49635-.314 4.43643 3.38994-.19562 12.10111-.2002 24.20967.00592 36.31053.07261 4.25975-2.66227 3.15765-4.96722 3.37198-2.7289.25375-4.36144-.21794-4.21664-3.63112.2528-5.95854.07041-11.93549.07377-17.90472zm93.81291 43.40621c.00171 4.32343-.19257 8.65841.06419 12.96658.19959 3.34897-1.40201 3.97246-4.1865 3.71889-2.33808-.21292-5.16803.80897-5.09798-3.37894.15572-9.30938.12997-18.62427.00818-27.9347-.0573-4.38034 3.09141-2.84814 5.25285-3.11821 2.4077-.30082 4.18088.00799 4.01882 3.28254-.23803 4.81054-.06132 9.64155-.05955 14.46384z" class="cls-1"/></svg>