<svg xmlns="http://www.w3.org/2000/svg" role="img" viewBox="-35.60 -20.60 2631.20 728.70"><title>SpacemiT (member) logo</title><path fill="#FFFFFE" d="M1845 698H1.00025c-.00009-232.3332-.00009-464.66637-.00017-696.99966 853.33293-.00011 1706.66594-.00011 2559.99919-.00023.00024 232.33288.00024 464.66587.00049 696.9994C2322.5 698 2084 698 1845 698M267.88104 591.5c.0001-46.98108.0141-93.96219-.00781-140.9433-.00702-15.08514-6.76788-26.06296-20.28007-32.82376-34.98868-17.5064-69.98403-34.99954-104.97484-52.5017-25.31498-12.6624-50.60823-25.36842-75.9456-37.98585-24.09204-11.99722-50.53733 3.8274-50.609 30.52405-.1561 58.14316-.12847 116.28714.00887 174.43039.03252 13.76721 6.24665 24.27441 18.62457 30.71002 8.8607 4.60694 17.84518 8.97608 26.77972 13.44074 52.12629 26.04815 104.19892 52.20459 156.40627 78.08923 24.00847 11.90362 50.0672-4.6784 50.00223-31.4519-.0247-10.1626-.0043-20.32526-.00434-31.48792M504.1171 66.51827c-.00385-1.33243-.10108-2.67216.00232-3.99622C505.789 41.1389 482.1166 23.08945 459.07535 34.808c-46.59116 23.69585-93.48395 46.7983-140.2186 70.21279-12.52585 6.27557-19.63608 16.55066-19.71472 30.57796-.25397 45.30418-.15695 90.61086-.03867 135.91616.0232 8.88892 3.52259 16.48633 10.49121 22.23023 10.61384 8.74847 22.1135 9.9029 34.37644 3.77618 46.6254-23.29458 93.2446-46.60148 139.87121-69.89361 13.69248-6.84005 20.396-17.7425 20.33494-33.19286-.16724-42.30682-.05802-84.61472-.06006-127.91659m155.38833 85.28745c-2.83246.00019-5.66516-.02072-8.49737.00428-10.62842.09378-15.90058 5.4091-15.90503 16.07605-.01496 35.82716-.01843 71.65434-.00824 107.4815.00043 1.4364.18396 2.87272.31451 4.78247h201.31177v48.89551H635.30963v39.31803c1.67456.10241 3.12915.26895 4.58374.26916 75.15387.01169 150.30768.017 225.46155-.0007 10.49042-.00247 15.76391-5.47144 15.76367-16.18268-.00073-35.3273-.0039-70.6546-.00604-105.9819-.00012-1.9284-.00012-3.85678-.00012-6.30411H679.21442c0-2.15181.00006-3.77736-.00007-5.4029-.00067-12.33115-.00347-24.66233-.00122-36.9935.00122-6.41022.00525-6.43377 6.63013-6.43437 62.98926-.00564 125.97846-.00268 188.96771-.00218 1.94861.00002 3.89722.00002 5.94513.00002v-39.52481c-73.66003 0-146.95642 0-221.25067.00014m1350.77924 11.37783c-3.8999-9.7305-11.11182-13.08978-21.23426-11.35781-2.75244.47094-5.6538.07147-8.48681.07147l-16.28919-.00002V368.241h44.00928V228.5129c1.78162 2.54716 2.83264 3.99685 3.8296 5.48292 19.67419 29.32983 39.39867 58.62616 58.95556 88.03396 3.28003 4.93201 7.27173 7.58396 13.26538 6.99286 1.65063-.16275 3.34643-.1773 4.9939-.00085 6.2036.66428 10.25976-2.10886 13.64404-7.2092 17.22217-25.95575 34.65747-51.77014 52.02734-77.62785 3.28272-4.88687 6.60718-9.74587 9.91235-14.61765.33448.1227.6687.2454 1.00318.3681v138.3861h43.74219V151.88492c-11.15113 0-21.95874.19969-32.75196-.1011-4.15185-.11573-6.60302 1.22978-8.89892 4.6766-24.01099 36.04492-48.1792 71.98521-72.32007 107.94348-2.73853 4.07883-5.57593 8.0911-8.82886 12.80295-25.70117-38.27365-50.93347-75.8493-76.57275-114.02329M1097.5 280.05014c14.1626-.0014 28.3252.00012 42.4878-.0051 12.57409-.00463 17.64062-4.9948 17.64611-17.4473.01343-30.99119-.1499-61.98362.09473-92.9729.07885-9.99154-4.3302-18.04595-17.86048-17.9829-74.4773.347-148.95697.159-223.43585.16992-1.58612.00023-3.17218.18436-4.87237.28976v39.49045h201.2301v48.9293H911.93475c-.3244.83875-.54516 1.14309-.54553 1.44767-.0481 41.15321-.0556 82.30647-.15869 123.45952-.00836 3.3393 1.9118 3.2391 4.219 3.23236 11.82983-.03467 23.65985-.00705 35.4898-.0308 1.44074-.0029 2.88104-.18359 4.98438-.32708v-88.25287c47.31994 0 93.94812 0 141.57629-.00003m201 176.98438h-78.48877V658.1358c1.19336.12586 2.1665.3175 3.1399.3183 32.4962.02637 64.99255.08197 97.48852.01215 8.18005-.01752 12.13074-4.23212 12.14306-12.52912.03223-21.66412.016-43.32837-.00183-64.99255-.0011-1.2862-.18628-2.57233-.31054-4.17944h-26.92884c0 2.12915.00013 3.91925.00013 5.70935-.00061 15.99817-.16358 31.99896.09936 47.9928.07654 4.65014-1.01904 6.30706-5.99097 6.2038-15.6582-.32545-31.32727-.11225-46.99218-.13111-1.77015-.00214-3.54004-.15448-5.47986-.24518v-72.73352h182.86133v73.08276h-55.77198v21.63172c22.67652 0 44.9817.07818 67.2848-.10846 2.51586-.021 5.29186-1.09442 7.47729-2.44196 6.60193-4.07092 8.70349-10.45636 8.69263-17.95819-.0669-46.16125-.03394-92.3227-.03418-138.48404v-6.87277h19.53625v-21.56387h-19.54224v-19.48435h-27.41699v19.49548h-82.57763v21.97602h82.43042v46.8543H1247.26v-60.5374h58.35693v47.27813h26.76184v-69.39413H1298.5m346.99951-265.70658h26.26026v-39.50398c-1.90418 0-3.52784.00034-5.1515-.00005-24.16393-.00567-48.32787-.01675-72.49181-.01611-45.82837.00124-91.65674.03977-137.48499-.02846-5.12402-.00763-10.094.76227-12.64697 5.39115-1.90125 3.44714-3.09485 7.76611-3.10718 11.70147-.1897 60.82618-.13245 121.65312-.13709 182.47988-.00097 12.35199 4.88587 17.2897 17.2035 17.29068 69.65918.00543 139.31823.00268 208.97741.00271 1.60547 0 3.21106.00003 4.76953.00003v-39.95758H1485.2461V191.32823c53.32874 0 106.29126 0 160.25342-.00029m-478.76733 154.86252c-3.50818 7.28235-7.01624 14.56473-10.81702 22.45465 14.3601 0 27.83045-.28873 41.27783.14154 5.40845.17304 8.14832-1.39737 10.53748-6.4118 21.8485-45.85468 44.0105-91.5601 66.08435-137.30736 5.33508-11.05664 10.6825-22.1072 16.55127-34.25102 22.4281 46.50142 44.34497 91.9426 66.6875 138.26657h-66.54627v39.19131h133.83313c-.63952-1.59842-.99902-2.67962-1.48999-3.6975-12.87768-26.70219-25.77783-53.39344-38.65551-80.09556-19.45923-40.34913-38.90967-80.70247-58.35071-121.06035-3.6726-7.62399-9.42493-11.70448-18.1582-11.55535-11.16224.19065-22.33619.25332-33.49451-.03722-9.4768-.24677-15.615 3.84294-19.69544 12.33423-29.06677 60.48897-58.28845 120.90341-87.76391 182.02786M1702.22608 311.5c-.00196 13.66537-.03211 27.33081.00305 40.9961.02722 10.59286 5.51074 16.15795 15.92907 16.15884 70.16114.00604 140.3224-.00644 210.48352-.01285 1.5973-.00015 3.19458 0 4.78406 0v-40.02145h-186.43847v-48.84626h186.54516V240.5687c-1.53394-.1187-2.82666-.30606-4.1195-.30632-74.1609-.01408-148.32166.01305-222.48243-.08744-3.76355-.0051-4.8092 1.1182-4.78235 4.83076.15857 21.8305.078 43.66268.07788 66.49431M2508.5 151.80823h-193.38232v39.77734h93.07275v176.70844h44.16504v-5.57352c.0022-55.32867.06103-110.65749-.09937-165.98567-.01342-4.50736 1.28052-5.53774 5.61573-5.50678 27.32959.19524 54.66113.09848 81.99218.09816h5.82789v-39.5181c-12.27125 0-24.23145 0-37.1919.00013M320.95004 472.96826c5.4943-.94476 11.4896-.79513 16.38932-3.03848 14.99627-6.86597 29.55642-14.68155 44.31597-22.06836 10.33204-5.17099 20.8874-9.92426 31.02439-15.44882 10.92352-5.95316 18.90146-14.8331 19.1773-27.81699.53052-24.96615.35727-49.95227.15195-74.92743-.15704-19.10077-22.01574-29.08389-33.9222-22.89868-3.08161 1.60083-6.34162 2.85489-9.4516 4.40485-22.92197 11.4238-45.83152 22.8725-68.735 34.33337-13.96465 6.98789-20.96304 18.22379-20.89501 33.93079.09448 21.8131.0188 43.62689.0256 65.4404.0047 15.06005 6.48718 23.681 21.91928 28.08935M1099.87183 590.638c2.25842 1.41077 4.41809 3.02014 6.79101 4.20099 19.0868 9.4972 38.2102 18.92096 57.33875 28.33398.97363.47913 2.09704.654 3.40783 1.04767 3.87525-8.19629 7.62317-16.12317 11.46888-24.2569-1.39026-.72924-2.38404-1.27783-3.40088-1.77984-18.06531-8.91931-36.13892-17.82208-54.19873-26.7525-8.94507-4.42322-15.39624-11.2326-20.13892-21.18921h76.8186v-23.21875h-80.36804v-34.42621h80.18262V470.4851h-80.60596v-19.0714h-27.021v18.97033h-53.91998v-18.98926h-27.06024c0 5.47324.11096 10.6059-.01867 15.73246-.63685 25.18402.80657 26.00607 25.31323 25.60892 16.65783-.27 33.3236-.0554 49.98584-.0574 1.75744-.00022 3.51489-.00004 5.40417-.00004v34.54096h-81.55517v23.22577h78.1748c-4.81311 9.96862-11.60474 16.87237-20.87 21.41827-17.6411 8.65527-35.26867 17.33862-52.8927 26.02887-1.2818.63208-2.48956 1.41443-3.9209 2.23535 3.9546 8.2882 7.7312 16.20343 11.65168 24.42017 1.90729-.87061 3.4132-1.51471 4.88165-2.23517 14.94837-7.3327 29.77442-14.92804 44.87049-21.94239 12.57727-5.84399 23.958-13.0614 32.63195-24.08545.25269-.32116.8429-.37676.84937-.37945 5.36243 4.91064 10.49194 9.60791 16.20032 14.73236m-357.56806-97.66916c.28015 4.74176.74884 9.48139.80219 14.22568.12121 10.77685.0382 21.55603.0382 32.84991h-42.57385v21.925h39.72284c-8.37005 20.5186-28.66723 27.04607-43.11694 40.45977 5.11066 7.27728 10.21405 14.54419 15.5304 22.11438 9.4162-6.74823 18.31347-13.16193 27.25006-19.52045 13.83038-9.84076 22.99597-23.02844 27.62524-39.25427.96625-3.38654 2.47717-3.98145 5.53302-3.96082 16.82855.11316 33.65839.04566 50.48773.06678 1.4405.00177 2.88068.19806 4.88855.34576v62.54749h27.06403V561.7716h33.2348v-21.82337h-32.90955v-47.32068h32.92884v-21.91363h-33.21827v-19.35205h-27.41894v19.41034c-18.73987 0-36.86731-.03083-54.99433.02997-3.06835.01028-2.97082-1.92826-2.96649-4.00904.01075-5.09827.00354-10.19656.00354-15.30456h-27.24572v19.33044h-42.33045v21.94794c13.79749 0 27.25244 0 41.6651.20187M1626.5 658.47754h129.07044v-22.1676h-109.36902c0-17.07611.15502-33.55945-.10328-50.0362-.0692-4.41882 1.17676-5.59375 5.58582-5.56823 32.49121.18817 64.98389.1018 97.4762.10186 1.94897 0 3.89807.00006 6.17822.00006V558.9983c-2.01758 0-3.83667-.21545-5.5868.03998-5.47729.79931-9.20434-1.44708-12.8988-5.5003-11.33166-12.43195-23.03454-24.53107-34.81591-36.54102-1.61902-1.6504-4.4696-2.81763-6.80274-2.91278-8.48389-.34607-16.99023-.15772-25.4878-.12555-1.17052.00445-2.33996.26453-4.22338.4928 14.10925 14.88983 27.61182 29.1394 41.78808 44.1001h-149.21972c14.3092-15.09412 27.9397-29.4723 42.27954-44.5987-10.98145 0-20.6438-.19128-30.2882.13916-2.3097.0791-5.1189 1.34491-6.74732 3.00049-11.0951 11.28064-22.21643 22.56177-32.73535 34.37152-4.92798 5.53271-9.97376 8.92389-17.53016 7.57428-.88928-.15887-1.88.25012-2.77758.38873v21.58106h108.58264v55.57837h-108.51673v21.89044c38.57337 0 76.85767 0 116.14185.00067M649.28632 569.5v67.37085h-13.79627v21.16748h260.06903v-21.45642h-218.9544c0-2.57745.00006-4.52588 0-6.47424-.00165-37.482.00915-74.96393-.0138-112.44593-.00567-9.36136-4.00647-13.29239-13.43945-13.3229-7.82947-.02536-15.65918-.0263-23.48859.00583-1.4361.00588-2.87134.22222-4.22815.33486v23.30167h13.85187c0 13.90405 0 27.21143-.00024 41.5188m1590.86358-388v186.781h43.87793V152.20503h-43.87793V181.5m-1273.8927 385c-.0102-16.66486.01837-33.3299-.0498-49.9945-.0271-6.61521-2.91931-11.32477-8.55951-11.63535-10.73755-.59113-21.53076-.17136-32.46893-.17136v23.15106h13.65197v108.89643h-13.54156V657.945h259.5556v-21.5276H966.25751c0-23.31304 0-46.11523-.0003-69.91741M1905.5 151.80917c-62.44531.00142-124.89075-.0071-187.33606.0155-8.7998.00318-14.6587 3.85392-15.37793 11.69154-.82812 9.02424-.19238 18.18281-.19238 27.49545h230.77356v-39.20264c-9.24414 0-18.05567 0-27.86719.00015m-365 318.99213c-8.3291.00772-16.65942-.07193-24.9867.05292-5.85656.0878-10.38464 3.126-10.63366 8.48172-.53028 11.41107-.16199 22.86389-.16199 34.37402h27.0835v-20.70224h202.18689v20.65237h27.00146c0-10.03103.0116-19.67239-.00342-29.31368-.0155-9.99817-3.55725-13.54194-13.49975-13.54258-31.65112-.00207-63.30225.00254-94.95337-.01355-1.92102-.00097-3.84204-.15911-6.45166-.2746v-19.16247h-27.0968v19.4479c-26.25208 0-51.86829 0-78.4845.00019m-880.96246 14.06131h16.75366v-33.5431h-26.60346v33.54368c3.24085 0 6.05494 0 9.8498-.00058M942.76636 451.047c-1.203.72793-3.4369 1.43304-3.45355 2.18725-.23017 10.40134-.15552 20.80942-.15552 31.40787h26.86108v-33.61581c-7.7022 0-15.00451 0-23.25201.02069z"/><path fill="#B1E239" d="M267.88098 592c.0001 10.66266-.0203 20.82532.0044 30.98792.06497 26.7735-25.99376 43.35552-50.00223 31.4519-52.20735-25.88464-104.27998-52.04108-156.40627-78.08923-8.93454-4.46466-17.91902-8.8338-26.77972-13.44074-12.37792-6.4356-18.59205-16.9428-18.62457-30.71002-.13734-58.14325-.16497-116.28723-.00888-174.43039.07168-26.69666 26.51697-42.52127 50.60901-30.52405 25.33737 12.61743 50.63062 25.32346 75.9456 37.98584 34.99081 17.50217 69.98616 34.9953 104.97483 52.50171 13.5122 6.7608 20.27306 17.73862 20.28008 32.82376.02191 46.98111.0079 93.96222.00775 141.4433z"/><path fill="#C0E768" d="M504.11798 67.01547c.00116 42.80467-.10806 85.11257.05918 127.41939.06106 15.45036-6.64246 26.35281-20.33494 33.19286-46.62661 23.29213-93.24581 46.59903-139.87121 69.89361-12.26294 6.12671-23.7626 4.9723-34.37644-3.77618-6.96862-5.7439-10.46801-13.34131-10.4912-22.23023-.1183-45.3053-.2153-90.61198.03866-135.91617.07864-14.0273 7.18887-24.30238 19.71472-30.57795 46.73465-23.4145 93.62744-46.51694 140.2186-70.21279 23.04126-11.71855 46.71365 6.3309 45.04406 27.71404-.10339 1.32406-.00616 2.66379-.00143 4.49342z"/><path fill="#676767" d="M660.0044 151.80566c73.79528-.00007 147.09167-.00007 220.7517-.00007v39.5248h-5.94513c-62.98925-.00051-125.97845-.00347-188.9677.00217-6.62489.0006-6.62892.02415-6.63013 6.43438-.00226 12.33116.00054 24.66234.00122 36.9935.00012 1.62553.00006 3.25108.00006 5.40289h201.898c0 2.44733 0 4.37572.00013 6.3041.00213 35.3273.0053 70.65461.00604 105.98191.00024 10.71124-5.27325 16.1802-15.76367 16.18268-75.15387.0177-150.30768.01239-225.46155.0007-1.45459-.00021-2.90918-.16675-4.58374-.26916v-39.31803h201.41144v-48.8955H635.4093c-.13055-1.90976-.31408-3.34608-.31451-4.78248-.0102-35.82716-.00672-71.65434.00824-107.4815.00445-10.66695 5.2766-15.98227 15.90503-16.07605 2.83221-.025 5.66491-.0041 8.99634-.00434zm1350.48376 11.67708c25.43579 37.87482 50.66809 75.45046 76.36926 113.7241 3.25293-4.71184 6.09033-8.72411 8.82886-12.80294 24.14087-35.95827 48.30908-71.89856 72.32007-107.94348 2.2959-3.44682 4.74707-4.79233 8.89892-4.6766 10.79322.30079 21.60083.1011 32.75196.1011v216.43637h-43.7422v-138.3861c-.33446-.1227-.6687-.2454-1.00317-.3681-3.30517 4.87178-6.62963 9.73078-9.91235 14.61765-17.36987 25.85771-34.80517 51.6721-52.02734 77.62785-3.38428 5.10034-7.44043 7.87348-13.64405 7.2092-1.64746-.17645-3.34326-.1619-4.9939.00085-5.99364.5911-9.98534-2.06085-13.26537-6.99286-19.55689-29.4078-39.28137-58.70413-58.95557-88.03396-.99695-1.48607-2.04797-2.93576-3.82959-5.48293V368.241h-44.00928V151.8972l16.28919.00002c2.833 0 5.73437.39947 8.48681-.07147 10.12244-1.73197 17.33436 1.62731 21.43775 11.657z"/><path fill="#686868" d="M1097 280.05017H955.9237v88.25287c-2.10333.1435-3.54363.32419-4.98437.32709-11.82996.02374-23.65997-.00388-35.4898.03079-2.3072.00674-4.22736.10693-4.219-3.23236.10309-41.15305.1106-82.3063.1587-123.45952.00036-.30458.22112-.60892.54552-1.44768h200.85529v-48.92929h-201.2301v-39.49045c1.7002-.1054 3.28625-.28953 4.87237-.28976 74.47888-.01093 148.95856.17708 223.43585-.16992 13.53028-.06305 17.93934 7.99136 17.86048 17.9829-.24463 30.98928-.0813 61.98171-.09473 92.9729-.0055 12.4525-5.07202 17.44267-17.64612 17.4473-14.1626.00522-28.3252.0037-42.98779.00513zm202 176.98435h33.37878v69.39413h-26.76184v-47.27814h-58.35693v60.53742h182.85767v-46.85431h-82.43042V470.8576h82.57763v-19.49548h27.417v19.48435h19.54223v21.56387h-19.53625v6.87277c.00024 46.16135-.03272 92.32279.03418 138.48404.01086 7.50183-2.0907 13.88727-8.69263 17.9582-2.18543 1.34753-4.96143 2.42095-7.4773 2.44195-22.3031.18664-44.60827.10846-67.28479.10846v-21.63172h55.77198v-73.08276h-182.86133v72.73352c1.93982.0907 3.70971.24304 5.47986.24518 15.66491.01886 31.33398-.19434 46.99218.1311 4.97193.10327 6.0675-1.55365 5.99097-6.2038-.26294-15.99383-.09997-31.99462-.09936-47.9928 0-1.7901-.00013-3.5802-.00013-5.70934h26.92884c.12426 1.60711.30944 2.89325.31054 4.17944.01783 21.66418.03406 43.32843.00184 64.99255-.01233 8.297-3.96302 12.5116-12.14307 12.52912-32.49597.06982-64.99231.01422-97.48853-.01215-.97339-.0008-1.94653-.19244-3.13989-.3183V457.03451H1299z"/><path fill="#676767" d="M1644.99963 191.3281c-53.46228.00013-106.4248.00013-159.75354.00013v137.35945h186.44458v39.95758c-1.55847 0-3.16406-.00003-4.76953-.00003-69.65918-.00003-139.31823.00272-208.97741-.00271-12.31763-.00098-17.20447-4.9387-17.2035-17.29068.00464-60.82675-.0526-121.6537.13709-182.47988.01233-3.93536 1.20593-8.25433 3.10718-11.70147 2.55298-4.62888 7.52295-5.39878 12.64697-5.39115 45.82825.06823 91.65662.0297 137.48499.02846 24.16394-.00064 48.32788.01044 72.49182.01611 1.62365.00038 3.24731.00005 5.15149.00005v39.50398c-8.75318 0-17.50672 0-26.76014.00015z"/><path fill="#686868" d="M1166.88367 345.84729c29.32397-60.78128 58.54565-121.19572 87.61242-181.6847 4.08045-8.49128 10.21863-12.58099 19.69544-12.33422 11.15832.29054 22.33227.22787 33.4945.03722 8.73328-.14913 14.4856 3.93136 18.1582 11.55535 19.44105 40.35788 38.89149 80.71122 58.35072 121.06035 12.87768 26.70212 25.77783 53.39337 38.65551 80.09555.49097 1.01789.85047 2.0991 1.49 3.69751h-133.83314v-39.19131h66.54627c-22.34253-46.32398-44.2594-91.76515-66.6875-138.26657-5.86878 12.14381-11.21619 23.19438-16.55127 34.25102-22.07385 45.74727-44.23584 91.45268-66.08435 137.30736-2.38916 5.01443-5.12903 6.58484-10.53748 6.4118-13.44738-.43027-26.91772-.14154-41.27783-.14154 3.80078-7.88992 7.30884-15.1723 10.9685-22.79782zM1702.2262 311c0-22.33164.08056-44.16382-.078-65.9943-.02686-3.71258 1.0188-4.83587 4.78234-4.83077 74.16077.1005 148.32154.07336 222.48242.08745 1.29285.00025 2.58557.18762 4.11951.30631v39.2057h-186.54516v48.84625h186.43847v40.02145c-1.58948 0-3.18677-.00015-4.78406 0-70.16113.0064-140.32238.01889-210.48352.01285-10.41833-.00089-15.90185-5.56598-15.92907-16.15885-.03516-13.66528-.005-27.33071-.00293-41.49609z"/><path fill="#676767" d="M2509 151.80817c12.46045-.00006 24.42065-.00006 36.6919-.00006v39.5181c-1.99683 0-3.91236-.00002-5.82789 0-27.33105.00031-54.6626.09707-81.99218-.09817-4.3352-.03096-5.62915.99942-5.61573 5.50678.1604 55.32818.10157 110.657.09937 165.98567v5.57352h-44.16504V191.58557h-93.07275v-39.77734c64.51 0 128.94628 0 193.88232-.00006z"/><path fill="#D0ED91" d="M320.5156 472.93777c-14.99766-4.37786-21.48014-12.9988-21.48484-28.05886-.0068-21.81351.06888-43.6273-.0256-65.4404-.06803-15.707 6.93036-26.9429 20.89502-33.93079 22.90347-11.46088 45.81302-22.90958 68.73498-34.33337 3.10999-1.54996 6.37-2.80402 9.4516-4.40485 11.90646-6.18521 33.76517 3.79791 33.92221 22.89868.20532 24.97516.37857 49.96128-.15194 74.92743-.27585 12.98389-8.25379 21.86383-19.17731 27.81699-10.137 5.52456-20.69235 10.27783-31.02439 15.44882-14.75955 7.38681-29.3197 15.2024-44.31597 22.06836-4.89972 2.24335-10.89502 2.09372-16.82377 3.008z"/><path fill="#686868" d="M1099.58227 590.42444c-5.41882-4.91089-10.54833-9.60816-15.91076-14.5188-.00647.00269-.59668.05829-.84937.37946-8.67395 11.02404-20.05468 18.24145-32.63195 24.08544-15.09607 7.01435-29.92212 14.60969-44.87049 21.94239-1.46844.72046-2.97436 1.36456-4.88165 2.23517-3.92047-8.21674-7.69708-16.13196-11.65167-24.42017 1.43133-.82092 2.6391-1.60327 3.9209-2.23535 17.62402-8.69025 35.25158-17.3736 52.8927-26.02887 9.26525-4.5459 16.05688-11.44965 20.87-21.41827h-78.17481v-23.22577h81.55517V492.6787c-1.88928 0-3.64673-.00018-5.40417.00003-16.66223.00202-33.328-.21258-49.98584.0574-24.50666.39716-25.95008-.4249-25.31323-25.60891.12963-5.12656.01867-10.25922.01867-15.73246h27.06024v18.98926h53.91999V451.4137h27.021v19.0714h80.60595v22.11213h-80.18262v34.4262h80.36804v23.21876h-76.8186c4.74268 9.9566 11.19385 16.76599 20.13892 21.1892 18.05981 8.93043 36.13342 17.8332 54.19873 26.7525 1.01684.50202 2.01062 1.0506 3.40088 1.77985-3.8457 8.13373-7.59363 16.06061-11.46888 24.2569-1.31079-.39368-2.4342-.56854-3.40783-1.04767-19.12854-9.41302-38.25196-18.83679-57.33875-28.33398-2.37292-1.18085-4.5326-2.79022-7.08056-4.41455zm-357.75732-97.55652c-13.93384-.10095-27.3888-.10095-41.18628-.10095v-21.94794h42.33045V451.4886h27.24572c0 5.108.0072 10.2063-.00354 15.30456-.00433 2.08078-.10186 4.01932 2.9665 4.00903 18.12701-.06079 36.25445-.02996 54.99432-.02996v-19.41034h27.41894v19.35205h33.21827v21.91363h-32.92884v47.32068h32.90955v21.82337h-33.2348v62.99646H828.4912v-62.54749c-2.00787-.1477-3.44806-.344-4.88855-.34576-16.82934-.02112-33.65918.04638-50.48773-.06678-3.05585-.02062-4.56677.57428-5.53302 3.96082-4.62927 16.22583-13.79486 29.41351-27.62524 39.25427-8.93659 6.35852-17.83387 12.77222-27.25007 19.52045-5.31634-7.5702-10.41973-14.8371-15.5304-22.11438 14.44972-13.4137 34.7469-19.94116 43.11695-40.45978H700.5703v-21.92499h42.57386c0-11.29388.083-22.07306-.03821-32.84991-.05335-4.7443-.52204-9.48392-1.281-14.3266m77.6358 47.15967h8.8026c0-14.71863.0074-28.8419-.01238-42.96512-.00183-1.28876-.17768-2.57721-.28083-3.97608h-57.35131v46.9412h48.84191zM1626 658.47717c-38.78418-.0003-77.06848-.0003-115.64185-.0003v-21.89044h108.51673v-55.57837h-108.58264V559.427c.89758-.1386 1.8883-.5476 2.77758-.38873 7.5564 1.3496 12.60218-2.04157 17.53016-7.57428 10.51892-11.80975 21.64025-23.09088 32.73535-34.37152 1.62841-1.65558 4.43762-2.92139 6.74731-3.00049 9.64441-.33044 19.30676-.13916 30.28821-.13916-14.33984 15.1264-27.97034 29.50458-42.27954 44.5987h149.21972c-14.17626-14.9607-27.67883-29.21027-41.78808-44.1001 1.88342-.22827 3.05286-.48835 4.22339-.4928 8.49756-.03217 17.0039-.22052 25.4878.12555 2.33312.09515 5.1837 1.26239 6.80273 2.91278 11.78137 12.00995 23.48425 24.10907 34.81591 36.54101 3.69446 4.05323 7.42151 6.29962 12.8988 5.5003 1.75013-.25542 3.56922-.03997 5.5868-.03997v21.80914c-2.28015 0-4.22925-.00006-6.17822-.00006-32.49231-.00006-64.98499.0863-97.4762-.10186-4.40906-.02552-5.65503 1.1494-5.58582 5.56823.2583 16.47675.10328 32.96009.10328 50.0362h109.36901v22.1676c-42.94738 0-86.0089 0-129.57043-.00037z"/><path fill="#686868" d="M649.28644 569c.00012-13.80737.00012-27.11475.00012-41.0188h-13.85187v-23.30166c1.35681-.11264 2.79206-.32898 4.22815-.33487 7.8294-.03214 15.65912-.0312 23.48859-.00583 9.43298.03051 13.43377 3.96155 13.43945 13.3229.02295 37.482.01215 74.96393.0138 112.44593.00006 1.94836 0 3.89679 0 6.47424h218.9544v21.45642H635.49005v-21.16748h13.79627c0-22.8739 0-45.12238.00012-67.87085z"/><path fill="#676767" d="M2240.1499 181v-28.79498h43.87793V368.281h-43.87793V181zM966.25732 567c.00019 23.30219.00019 46.10437.00019 69.41742h218.58746V657.945h-259.5556v-21.19873h13.54156V527.84985h-13.65197V504.6988c10.93817 0 21.73138-.41977 32.46893.17136 5.6402.31057 8.5324 5.02014 8.5595 11.63534.06818 16.66462.03962 33.32965.04993 50.49451zM1906 151.8091c9.31152-.00008 18.12305-.00008 27.36719-.00008v39.20264h-230.77356c0-9.31264-.63574-18.4712.19238-27.49545.71924-7.83762 6.57813-11.68836 15.37793-11.69155 62.44531-.02258 124.89075-.01407 187.83606-.01556z"/><path fill="#696969" d="M1541 470.8012c26.11621-.00008 51.73242-.00008 77.9845-.00008V451.3532h27.0968v19.16248c2.60962.11548 4.53064.27362 6.45166.2746 31.65112.01608 63.30225.01147 94.95337.01354 9.9425.00064 13.48425 3.5444 13.49975 13.54257.01502 9.6413.00342 19.28266.00342 29.3137h-27.00146v-20.65238h-202.1869v20.70224h-27.08349c0-11.51013-.36829-22.96295.16199-34.37402.24902-5.35571 4.7771-8.39392 10.63367-8.48172 8.32727-.12485 16.65759-.0452 25.48669-.05301z"/><path fill="#6C6C6C" d="M659.04718 484.86291c-3.3045.00028-6.1186.00028-9.35944.00028v-33.54367h26.60346v33.54309c-5.6236 0-11.18866 0-17.24402.0003z"/><path fill="#6A6A6A" d="M943.23895 451.03665c7.7749-.01034 15.07721-.01034 22.77942-.01034v33.61581H939.1573c0-10.59845-.07465-21.00653.15552-31.40787.01666-.7542 2.25054-1.45932 3.92614-2.1976z"/><path fill="#FEFEFE" d="M818.96448 540.02759h-48.34564v-46.9412h57.35131c.10315 1.39887.279 2.68732.28083 3.97608.01977 14.12323.01239 28.24649.01239 42.96512h-9.2989z"/></svg>