<svg xmlns="http://www.w3.org/2000/svg" role="img" viewBox="-19.98 -19.98 1038.96 922.96"><title>Storage Performance Development Kit (SPDK) logo</title><style>svg {enable-background:new 0 0 999.2 884.1}</style><style>.st0{fill:#5479bc}.st2{fill:#6589c6}.st3{fill:#fff}.st6{fill:#8ac762}.st7{fill:#57863c}.st8{fill:#010101}.st9{fill:#567bbe}.st10{fill:#78b350}.st13{fill:#486d33}.st16{fill:#7aae55}</style><path d="M292.9 20l509.6 16.3-55.8 79.1-408.2-18.9z" class="st0"/><path fill="#6f93cc" d="M308.6 548.2L166.3 760l102.1 1.8 413.1 7.5L597.7 625l-169.8-6.1 46.5-70.7h-68.7z"/><path d="M268.4 761.8l137.3-213.6" class="st2"/><path d="M268.4 763.8c-.4 0-.7-.1-1.1-.3-.9-.6-1.2-1.8-.6-2.7L404 547.2c.6-.9 1.8-1.2 2.7-.6.9.6 1.2 1.8.6 2.7L270.1 762.9c-.4.6-1 .9-1.7.9z" class="st3"/><path fill="#2b497d" d="M166.3 760l49.8 95.4 518.9 7-53.5-93.1z"/><path d="M738.5 864.4l-523.6-7-.5-1-51.4-98.5 3.3.1 516.3 9.3.6 1 55.3 96.1zm-521.2-11l514.3 6.9-51.2-89.1-510.8-9.2 47.7 91.4z" class="st3"/><path fill="#89c762" d="M290.7 21.6L24.1 454l494.5 8.1-26.7-46.5-117.5-1.6-231.6-3.1L336.2 97.7z"/><path d="M346 124.8l28.3 47.6-88.4 147.5 94.4 3.1 62.7.8 43 73.2-299-7z" class="st6"/><path d="M489.5 399l-306-7.1 1.7-2.9L346 121l30.6 51.4L289.3 318l91 3 63.8.8 45.4 77.2zm-299.1-10.9l292.1 6.8-40.7-69.1-61.6-.8-96.1-5.5 88.2-147.4-26.3-43.4-155.6 259.4z" class="st3"/><path d="M423.9 260.1L382.6 323l-96-2.8 87.7-147.8z" class="st7"/><path d="M383.7 325l-99.2-4.6 89.9-152 51.8 91.7-42.5 64.9zm-94.4-7l92.3.1 40-58.1-47.3-83.7-85 141.7z" class="st3"/><path d="M486 260.6l54.7-88.2H374.3l49.6 87.7z" class="st8"/><path d="M487.1 262.5l-64.4-.5-51.7-91.6h173.3l-57.2 92.1zm-62-4.4l59.9.4 52.2-84.2H377.7l47.4 83.8z" class="st3"/><path d="M450.9 319.9l89.8-144.4 55.1 78.3-41.1 66.1z" class="st9"/><path d="M555.8 321.9H447.3L540.6 172l57.6 81.8-42.4 68.1zm-101.4-4h99.2l39.9-64.1-52.6-74.8-86.5 138.9z" class="st3"/><path d="M681.5 769.3L949 319.9H443l43 77.1h364.8L659.4 729.7z" class="st10"/><path d="M681.5 773.2l-24.3-43.5.6-1 189.7-329.8H484.9l-45.3-81h512.8L681.5 773.2zm-19.8-43.4l19.9 35.6 263.9-443.5H446.3l40.8 73.1h367.1L661.7 729.8z" class="st3"/><path d="M597.7 625l89.6-158.2-168.7-4.7-26.7-46.5h324.6L647.6 708.5" class="st10"/><path d="M647.6 710.4c-.3 0-.7-.1-1-.3-.9-.5-1.3-1.7-.7-2.7l167.2-289.9H495.3l24.5 42.6 170.9 4.7L599.4 626c-.5.9-1.8 1.3-2.7.7-.9-.5-1.3-1.7-.7-2.7l88-155.4-166.5-4.6-29-50.4h331.4l-1.7 3-168.9 292.8c-.3.7-1 1-1.7 1z" class="st3"/><path d="M427.9 618.9l46.5 93.6 174.6-1.7-53-83.6z" class="st9"/><path d="M473.2 714.5l-.5-1.1-48-93.7 172.5 4 55.5 89.1-179.5 1.7zm-44-92.8l46.4 88.8 169.9-1.6-50.6-79.8-165.7-7.4z" class="st3"/><path d="M278.7 547.4l-135.2 202 27.9-.7 137.2-200.5z" class="st2"/><path d="M139.8 751.5l137.9-206.1 34.7.9-140 204.3-32.6.9zm139.9-202.1l-132.4 198 23-.6L305 550.1l-25.3-.7z" class="st3"/><path fill="#355998" d="M527 622.9l37.3-65.4-89.9-9.3-46.5 70.7z"/><path d="M528.1 624.9l-103.8-5.1 49.1-74.3 94.1 10.4-39.4 69zm-96.7-7.8l94.5 3.8 35.1-61.7-85.7-8.9-43.9 66.8z" class="st3"/><path fill="#375b9c" d="M802.5 36.3l54.1 87-129.1 196.2-111.2.4z"/><path d="M612.6 321.9l190-289.3 56.4 90.7-130.5 198.2-115.9.4zm189.9-282L620 317.9l106.5-.4 127.9-194.3-51.9-83.3z" class="st3"/><path d="M291.3 20L274.9 3.9 816.3 21l-13.8 15.3z" class="st2"/><path d="M803.4 38.3h-.9L290.5 22 269.9 1.7l550.7 17.4-17.2 19.2zM292.1 18l509.5 16.2L812 22.8 279.9 6l12.2 12z" class="st3"/><path d="M27.3 439l-23.5-2.9 269.5-433 18 16.9z" class="st6"/><path d="M28.3 441.1L.5 437.6 272.9 0l20.9 19.6L28.3 441.1zm-21.2-6.6l19.2 2.4L288.8 20.3 276.3 7.1 7.1 434.5z" class="st3"/><path d="M540.7 172.4l53.5 79.8-39.5 67.7h63.2L734.1 139l-387.7-14.2 27.9 47.6z" class="st2"/><path d="M618.9 321.9h-69.6l41.6-69.6-51.3-77.9H373.2l-30.3-51.6 394.7 14.4-118.7 184.7zm-60.8-4h58.7l113.8-177.1L350 126.9l25.5 43.5h166.3l54.8 81.7-38.5 65.8z" class="st3"/><path d="M949 322.3l35.8 101.1-249.8 439-53.5-93.1z" class="st7"/><path d="M735 866.3l-55.8-97.1.6-1 269.6-450.6 37.6 106-.4.8L735 866.3zm-51.2-97l51.2 89.1 247.6-435.1-34.1-96.4-264.7 442.4z" class="st3"/><path d="M856.6 123.3l6.4-15.4-49.8-83.8-10.7 12.2z" class="st2"/><path d="M857 127.6l-56.9-91.5 13.4-15.3 51.7 87-8.2 19.8zm-52-91.1l51.3 82.5 4.8-16.1-47-78-9.1 11.6z" class="st3"/><path d="M20.3 453.4l-16.6-3.3 38.4 70.4 23.6 12.3z" class="st13"/><path d="M70.8 537.6l-30.1-15.7L0 447.3l21.6 4.4 49.2 85.9zM43.5 519l17.2 8.9-41.6-72.8-11.6-2.3 36 66.2z" class="st3"/><g><path d="M603.4 557.5l-39.1 65.4 33.4 2.1 38.2-67.5z" class="st10"/><path d="M598.8 627.1l-37.9-2.4 41.4-69.1h37.1l-40.6 71.5zm-31.2-6l29 1.8 35.9-63.5h-28.1l-36.8 61.7z" class="st3"/></g><g><path d="M518.6 462.1l53.5 95.4h63.8l51.4-90.7z" class="st8"/><path d="M637.1 559.5H571L515.2 460l175.5 4.8-53.6 94.7zm-63.8-3.9h61.5l49.2-86.9-162-4.5 51.3 91.4z" class="st3"/></g><g><path fill="#7cb953" d="M646.7 703.7l-49-76.3 92-159.8 46 86.8z"/><path d="M646.7 707.5l-51.3-80.1 94.3-163.9 48.2 90.9-91.2 153.1zM600 627.3l46.6 72.7 86.8-145.7-43.8-82.7L600 627.3z" class="st3"/></g><g><path d="M285.9 319.9l37.1 73.2 163 3.9-43-77.1z" class="st16"/><path d="M489.4 399l-167.6-3.9-37.8-75.9 160.1-1.3 45.3 81.1zm-165.2-7.8l158.4 3.7-40.8-73H289.1l35.1 69.3z" class="st3"/></g><g><path fill="#8bc681" d="M352.9 459l29.3-45 113.6 1.6 30.7 46.5z"/><path d="M530.2 464.1l-180.9-3.3 31.9-48.8 115.7 1.6 33.3 50.5zm-173.7-7l166.3 3-28.1-42.5-111.4-1.6-26.8 41.1z" class="st3"/></g><g><path d="M268.4 761.8L166.3 760l142.3-212.6 97.1 4.8z" class="st2"/><path d="M269.5 763.8h-1.1l-105.7-1.9 2-3 142.9-213.5 101.7 4.9-139.8 213.5zm-99.5-5.7l97.4 1.8L402.2 554l-92.6-4.5L170 758.1z" class="st3"/></g><g><path d="M658.1 729l-303.8-4.8 19.8-21 270.2 2.1z" class="st3"/></g><g><path d="M641.3 77.6L599.1 139l131.5 1.9L763 92.1z" class="st0"/></g><g><path d="M738 306.2l215.7 3.2 43.2 112.2-8.9 9.7-3-7.9-38.3-100.6-219.2-3.3z" class="st10"/><path d="M987.3 435l-41.9-110.3-221.9-3.3 13.6-17.2h1l217 3.2L999.2 422l-11.9 13zM731.5 317.6l216.6 3.2 40.6 106.8 5.9-6.5-42.3-109.8-213.3-3.1-7.5 9.4z" class="st3"/></g><g><path fill="#4a72b8" d="M152.6 761.8h16.7l45.6 93.1 505.8 5.3 14.9-3.7 1.8-1.6v19.4L206 868.1z"/><path d="M739.3 876.3L204.8 870l-55.5-110.2h21.2l45.7 93.1 504.3 5.4 14.1-3.6 4.7-4.2v25.8zm-532-10.2l528.1 6.2v-13.7l-14.7 3.6-507-5.4-45.6-93h-12.3l51.5 102.3z" class="st3"/></g><g><path d="M24.1 454l47.1 86.6L580 557.5l-53.5-95.4z" class="st13"/><path d="M583.4 559.6L70 542.6 20.7 452l506.9 8.2 55.8 99.4zm-511-20.9l504.2 16.7-51.3-91.4-497.8-8 44.9 82.7z" class="st3"/></g><g><path fill="#7dbb6f" d="M526.5 462.1l37.4-46.5h-68.1z"/><path d="M526.3 465.4l-34.2-51.8H568l-41.7 51.8zm-26.9-47.9l27.2 41.2 33.1-41.2h-60.3z" class="st3"/></g><g><path fill="#75af67" d="M627.7 464.4l29.6-47.3-97.4-1.5-33.4 46.5z"/><path d="M628.7 466.4l-106-2.4 36.2-50.4 101.9 1.7-32.1 51.1zm-98.4-6.2l96.3 2.2 27.2-43.4-92.8-1.5-30.7 42.7z" class="st3"/></g><g><path d="M443 319.9l502.1 5.2-42 71.9H486z" class="st10"/><path d="M904.2 398.9H484.9l-45.3-81 508.9 5.3-44.3 75.7zm-417-3.9H902l39.7-67.9-495.3-5.2 40.8 73.1z" class="st3"/></g><g><path d="M737.4 854.9L985 423.4h10.8L737.4 876.6z" class="st10"/><path d="M735.4 884.1v-29.7l.3-.5 248.2-432.5 15.4.1-1.7 2.9-262.2 459.7zm3.9-28.7v13.8l253.1-443.8H986l-246.7 430z" class="st3"/></g><g><path fill="#85c25b" d="M681.5 769.3l-24.2-43.5L850.8 397h52.3z"/><path d="M681.4 773.2L655 725.8l.6-1L849.7 395h56.9L681.4 773.2zm-21.8-47.3l22 39.5L899.7 399H852L659.6 725.9z" class="st3"/></g><g><path d="M454.6 260.3l-28.8 44.3 31.7 1.9 28.5-45.9z" class="st9"/><path d="M458.5 308.5l-36.2-2.2 31.3-48 36 .3-31.1 49.9zm-29.2-5.7l27.1 1.6 26.1-42-26.8-.2-26.4 40.6z" class="st3"/></g><g><path d="M392.9 307.8l64.6 1.4-6.6 9.9-64.9-1.2z" class="st16"/><path d="M451.9 321.1l-69.9-1.3 9.9-14 69.3 1.5-9.3 13.8zm-62.3-5.1l60.2 1.1 4.1-6-60-1.3-4.3 6.2z" class="st3"/></g></svg>