<svg xmlns="http://www.w3.org/2000/svg" role="img" viewBox="102.96 58.96 1042.08 643.08"><title>Syntacore logo</title><path fill="#d39329" d="M123.596 599.4h1002.212v82.751H123.67l-.074-82.751z"/><path fill="#fff" d="M295.93848 663.07031v-44.70117h46.75928v5.27441h-37.58691v13.84375h32.52832v5.27539h-32.52832v20.30762h-9.17236zm82.78662-21.77148c0-7.41992 3.08887-13.22852 9.2666-17.42676 6.17773-4.19727 14.15234-6.2959 23.92383-6.2959 6.39844 0 12.16602.98633 17.30371 2.95703 5.1377 1.97266 9.05469 4.72168 11.74902 8.24902 2.69531 3.52637 4.04297 7.52637 4.04297 11.99805 0 4.5332-1.41895 8.58887-4.25586 12.16699-2.83594 3.57812-6.85547 6.28613-12.05566 8.12598-5.20117 1.83984-10.81152 2.75977-16.83203 2.75977-6.52441 0-12.35547-1.0166-17.49316-3.0498-5.1377-2.03223-9.03027-4.80664-11.67773-8.32422-2.64746-3.5166-3.97168-7.23633-3.97168-11.16016zm9.45605.0918c0 5.38672 2.24609 9.63086 6.7373 12.73047s10.125 4.64941 16.90234 4.64941c6.90234 0 12.58398-1.56445 17.04395-4.69531 4.45996-3.12988 6.69043-7.57227 6.69043-13.3252 0-3.63867-.9541-6.81543-2.86035-9.5293-1.90723-2.71289-4.69727-4.81738-8.36914-6.31152s-7.79297-2.24121-12.36328-2.24121c-6.49316 0-12.08008 1.43848-16.76074 4.31445-4.68066 2.87695-7.02051 7.67969-7.02051 14.4082zm141.03418-23.02149h9.17188v25.82617c0 4.49316-.78809 8.06055-2.36328 10.70312-1.57715 2.64258-4.4209 4.79199-8.53418 6.44922s-9.51172 2.48535-16.19336 2.48535c-6.49316 0-11.80469-.72266-15.93359-2.16504-4.12891-1.44336-7.07617-3.53223-8.84082-6.2666-1.76562-2.7334-2.64746-6.46875-2.64746-11.20605v-25.82617h9.17188v25.7959c0 3.88281.55957 6.74414 1.67871 8.58398 1.11816 1.83984 3.04102 3.25781 5.76758 4.25293 2.72656.99707 6.05957 1.49414 10 1.49414 6.74414 0 11.55176-.98535 14.41992-2.95703s4.30273-5.76367 4.30273-11.37402v-25.7959zm51.25098 44.70117v-44.70117h9.4082l36.40576 35.0957v-35.0957h8.79395v44.70117h-9.4082l-36.40576-35.12695v35.12695h-8.79395zm96.92334 0v-44.70117h23.87695c5.38965 0 9.50293.21289 12.33984.63965 3.9707.58984 7.35938 1.65723 10.16504 3.20215 3.65625 1.99219 6.38965 4.53809 8.20312 7.6377 1.81152 3.10059 2.71777 6.64258 2.71777 10.62695 0 3.39551-.61426 6.40332-1.84375 9.02539-1.22949 2.62305-2.80566 4.79297-4.72754 6.51074-1.92285 1.71777-4.02734 3.06934-6.31152 4.05469-2.28613.98633-5.04395 1.7334-8.27441 2.24121-3.23145.50879-6.94238.7627-11.13379.7627h-25.01172zm9.17283-5.27539h14.79787c4.57031 0 8.15625-.27441 10.75684-.82324 2.59961-.54883 4.67188-1.32129 6.2168-2.31738 2.1748-1.40234 3.86914-3.28809 5.08301-5.65625 1.21289-2.36816 1.82031-5.23926 1.82031-8.61426 0-4.6748-1.19043-8.26758-3.57031-10.77832s-5.27148-4.19336-8.67578-5.04688c-2.45801-.60938-6.41406-.91504-11.86719-.91504h-14.56154v34.15137zm89.21584 5.27539v-44.70117h9.17188v44.70117h-9.17188zm52.14941 0v-44.70117h9.4082l36.40527 35.0957v-35.0957h8.79395v44.70117h-9.4082l-36.40527-35.12695v35.12695h-8.79395zm129.35645-17.5332v-5.24414l29.36035-.03125v16.58789c-4.50781 2.31738-9.15723 4.06055-13.94727 5.22949-4.79199 1.16895-9.70898 1.75391-14.75195 1.75391-6.80762 0-12.99414-.94043-18.55664-2.82129-5.56348-1.87988-9.76367-4.59863-12.60059-8.15625-2.83594-3.55762-4.25488-7.53125-4.25488-11.92285 0-4.34961 1.41016-8.41016 4.23145-12.18164 2.82031-3.77051 6.87891-6.57031 12.1748-8.40039 5.29492-1.8291 11.39453-2.74414 18.29688-2.74414 5.01172 0 9.54199.52344 13.59277 1.57031 4.0498 1.04688 7.22559 2.50586 9.52734 4.37598 2.2998 1.87012 4.0498 4.30957 5.24805 7.31738l-8.27441 1.46387c-1.04004-2.27637-2.33301-4.06543-3.87695-5.36621-1.54492-1.30078-3.75098-2.34277-6.61914-3.12598-2.86816-.78223-6.05176-1.17383-9.5498-1.17383-4.19238 0-7.81738.41211-10.875 1.23535s-5.52441 1.90527-7.39941 3.24707-3.33301 2.81543-4.37305 4.42188c-1.76562 2.76465-2.64746 5.7627-2.64746 8.99512 0 3.98438 1.06348 7.31738 3.19141 10.00098s5.22461 4.67578 9.29004 5.97656c4.06641 1.30078 8.38477 1.95117 12.95508 1.95117 3.97168 0 7.84863-.49219 11.63086-1.47852 3.78223-.98535 6.64941-2.03809 8.60449-3.15625v-8.32422H957.2842z"/><g data-name="Layer 1-2"><path fill="#4a82b5" fill-rule="evenodd" d="M715.16917 182.0642h3.80326c4.93858 0 9.68401.4104 14.24115 1.22982l-2.51204-.10553-14.246.10966-1.28637-1.23395zm-7.55064 0h5.3476l2.86381 2.74519 23.81415-.05517c4.0357 1.11877 7.91069 2.5851 11.62565 4.39782l-36.17092.08207s-7.48029-7.1699-7.48029-7.16992zm-9.4419 0h7.23818l9.05635 8.67906 39.69-.09173c2.6907 1.47605 5.29519 3.14592 7.81138 5.00341l-49.48576.12484-14.31015-13.71559zm-171.41271-52.26819c1.30989 0 2.36996 1.03876 2.36996 2.321 0 1.28085-1.06009 2.31886-2.36996 2.31886-1.30775 0-2.3679-1.03801-2.3679-2.31886 0-1.28224 1.06015-2.321 2.3679-2.321zm-21.53449 2.01613c1.3084 0 2.36991 1.03806 2.36991 2.31891 0 1.28224-1.06151 2.321-2.36991 2.321-1.30988 0-2.36932-1.03876-2.36932-2.321 0-1.28085 1.05944-2.31891 2.36932-2.31891zm.13721 20.28121c1.30775 0 2.36927 1.03814 2.36927 2.31899 0 1.28224-1.06151 2.3203-2.36927 2.3203-1.31051 0-2.36997-1.03806-2.36997-2.3203 0-1.28085 1.05944-2.31899 2.36997-2.31899zm21.67111 20.28064c1.30775 0 2.36928 1.03876 2.36928 2.321 0 1.28085-1.0615 2.31886-2.36928 2.31886-1.30843 0-2.3679-1.038-2.3679-2.31886 0-1.28224 1.05944-2.321 2.3679-2.321zm-19.57911 6.42911l-.03311-.03173-1.0856 1.07187.0234.02138c-.31038.14691-.66078.229-1.02841.229-1.30775 0-2.36927-1.03876-2.36927-2.32106 0-1.2808 1.06151-2.31886 2.36927-2.31886 1.3085 0 2.36997 1.03806 2.36997 2.31886 0 .37183-.08967.72153-.24625 1.03053zm18.99834 17.33468c1.30775 0 2.3679 1.03806 2.3679 2.31892 0 1.28224-1.06015 2.3203-2.3679 2.3203-1.30982 0-2.36991-1.03806-2.36991-2.3203 0-1.28085 1.06009-2.31892 2.36991-2.31892zm24.50045.54904c1.30775 0 2.36793 1.04007 2.36793 2.321s-1.06018 2.321-2.36793 2.321c-1.30984 0-2.36996-1.04013-2.36996-2.321s1.06015-2.321 2.36996-2.321zm-22.2484 18.7521c1.30843 0 2.3679 1.04013 2.3679 2.321 0 1.28293-1.05944 2.321-2.3679 2.321-1.30775 0-2.36928-1.03806-2.36928-2.321 0-1.28086 1.0615-2.321 2.36928-2.321zm44.71342 19.93915l-.16209.16064.76428.73464c.09168.24693.14068.51248.14068.79044 0 1.28218-1.05944 2.3203-2.36928 2.3203-1.30843 0-2.3679-1.03812-2.3679-2.3203 0-1.28086 1.05944-2.31892 2.3679-2.31892.62904 0 1.20224.24002 1.62641.6332zm-32.94083-113.28718c1.30775 0 2.36928 1.03806 2.36928 2.31891 0 1.28224-1.0615 2.321-2.36928 2.321s-2.36996-1.03876-2.36996-2.321c0-1.28085 1.0622-2.31891 2.36996-2.31891zm46.02117-8.02381c1.30775-.02007 2.35201-1.07394 2.33274-2.35618-.02206-1.28085-1.0974-2.30305-2.40515-2.28167-1.3077.01931-2.35201 1.07324-2.33274 2.35618.02 1.28017 1.09669 2.303 2.40515 2.28167zm-20.78955-7.16783l-.02144.02138 1.10083 1.05601.03311-.03311c.16001.30831.25383.65663.26009 1.02633.02133 1.28017-1.02293 2.33616-2.33277 2.35547-1.30775.02-2.38509-1.00081-2.40444-2.28167-.02-1.28224 1.02425-2.33616 2.33409-2.35754.36763-.0062.71734.07242 1.03054.21314v-.00002zm19.83909-16.58216c1.30848-.01931 2.35201-1.07331 2.33274-2.35623-.01933-1.2801-1.09669-2.303-2.40515-2.28162-1.30775.02-2.35409 1.07394-2.33203 2.35618.01724 1.28085 1.09669 2.30305 2.40444 2.28167zM523.22144 316.0741l-.02551.02346h-.00207c-1.09878 1.00494-1.64022 2.31892-1.63055 3.62737.01172 1.3077.58076 2.61759 1.70304 3.61082l.00961.0062.02551.02138v.00206c1.13601.99323 2.62584 1.48151 4.10744 1.47399 1.48847-.00966 2.97212-.52767 4.09639-1.54225v-.00211l.02553-.02339v.00206c1.10427-1.01118 1.6478-2.32513 1.63608-3.63497-.00961-1.30431-.57869-2.61207-1.70091-3.60528l-.00966-.00414-.02553-.02346v-.00207c-1.13597-.99323-2.62725-1.48364-4.11158-1.47604-1.48776.01172-2.9735.52627-4.09777 1.54296v.00345-.00003zm13.05825 9.82123l-.00206.0042-.00552.00552.00758-.00972zm-.07588.08627l-.00206.00138-.00206.002.00414-.00341-.00003.00003zm-.16623.17934l-.00409.00414-.00211.00414.0062-.00828zm-.16071.16623l-.002.00206-.00141.00206.00347-.00414-.00006.00003zm-.04897.05097l-.01724.01798-.01586.01519.03311-.03316zm-.03311.03316l-.02138.02.0062-.00414.01519-.01586zm-.14829.14276l-.01586.01586-.01724.01724-.01792.01586-.01381.01381.06483-.06277zm-.10552.09994l-.01381.01178-.01586.01519-.00758.00828.03725-.03522v-.00003zm-.21315.19311l-.01792.01798-.02133.01724-.02144.01792-.01933.01724.08002-.07041v.00003zm-.29728.25045l-.01172.01166-.00617.0042-.01521.01381-.02138.01724-.02206.01586-.02138.01724-.00961.00828.10754-.08827v-.00003zm-.16829.13518l-.01381.01381-.01933.0131.03311-.02691h.00003zm-.06415.05243l-.01381.00966-.02138.01586-.02206.01792-.02138.01513.07864-.05858zm-.4497.32833v.00206-.00206zm-.1979.13721l-.00349.00211-.01586.01166-.0062.00211.02558-.01592-.00003.00003zm12.88094-29.04441l-.02553.02346h-.00206c-1.09878 1.00495-1.64022 2.31892-1.63264 3.62737.01381 1.30982.58283 2.61759 1.70511 3.61288l.00961.00414.02553.02346c1.13602.99323 2.62584 1.48364 4.10811 1.47399 1.48776-.00966 2.97144-.52765 4.09569-1.5409v-.00351l.02553-.022c1.10497-1.0084 1.6485-2.32444 1.63675-3.63426-.00966-1.3043-.57869-2.61207-1.70091-3.60323l-.01034-.0062-.02482-.02346c-1.13602-.99323-2.62793-1.48571-4.11225-1.47604-1.48776.00966-2.9735.52558-4.09777 1.54227v.00207-.00003zm13.05895 9.82123l-.00206.00558-.00828.00414.01034-.00972zm-.07864.08765v.00201h-.00206l.00206-.00201zm-.16415.17794l-.00409.0062-.00141.00207.00552-.00827h-.00003zm-.16001.16829h-.00206l-.00206.00207.00414-.00207h-.00003zm-.04897.04891l-.01792.0173-.01519.01586.03311-.03316zm-.03311.03316l-.02206.02138.0062-.00552.01586-.01586zm-.14899.14483l-.01586.01512-.01724.01592-.01792.01586-.0131.01379.06415-.06069h-.00003zm-.10552.09932l-.01381.01034-.01519.01517-.01034.00827.0393-.0338h.00003zm-.21315.19383l-.01724.01586-.02203.01724-.02144.01793-.01933.01724.08002-.06828h.00003zm-.29728.25038l-.01381.01172-.00347.00414-.01586.01172-.02138.01724-.02138.01793-.02206.01724-.00961.00759.10754-.0876h.00003zm-.16829.13449l-.0131.01172-.02.01379.03311-.02551zm-.06415.05104l-.01381.01172-.02138.01586-.02138.01517-.02138.01793.07793-.06069h.00003zm-.64699.46552l-.00414.00213-.01586.01166-.00552.00144.02553-.01523zm236.42598-46.07215c0 18.03476-4.37504 33.93822-13.12102 47.75725l-164.95253.03518v.03167l.00138.0173.00206.01586v.02138l-7.64647 6.90987-35.7426.25589-12.63824-11.06075c1.48776-1.79265 2.22097-3.92741 2.20167-6.0532-.02206-2.56723-1.13464-5.12618-3.32594-7.06575l-.00966-.00759-.0393-.03523c-2.22719-1.94365-5.13239-2.90583-8.02796-2.88584h-.00414c-2.89757.01931-5.78902 1.02427-7.97691 2.99901l-.00206-.00207-.0393.03518-.00347.00759c-2.16095 1.97474-3.228 4.54611-3.20456 7.10915.02138 2.56315 1.13602 5.12072 3.33146 7.06442h-.00206l.0393.03518.00764.00552c2.22299 1.94371 5.13234 2.90382 8.02582 2.8859h.0062c2.32237-.01931 4.6455-.66629 6.60086-1.94169l13.66869 11.96229 38.583-.27383 7.4085-6.6926 161.50794-.02551c-1.51746 2.16029-3.14593 4.26813-4.88614 6.32151-2.46516 2.80174-5.04066 5.36828-7.72513 7.69755l-173.92126.03516v.03305l.002.01524.00206.01792v.02138l-7.64647 6.90985-35.7426.25383-12.63894-11.06012c1.48847-1.79332 2.22167-3.92804 2.20167-6.05313-.02138-2.56724-1.13394-5.1248-3.32594-7.06644l-.00966-.00552-.03863-.03523c-2.22719-1.94572-5.13239-2.90583-8.02655-2.88584h-.00552c-2.89757.01931-5.78972 1.0222-7.97691 2.99901l-.00207-.00414-.03932.03518-.00409.01034c-2.16033 1.97267-3.22802 4.54542-3.2046 7.10846.02206 2.56177 1.13601 5.12073 3.33215 7.06237l-.00207.00206.03863.03516.00833.00414c2.22301 1.94507 5.13234 2.9052 8.02582 2.8859h.00552c2.32307-.02 4.64617-.66493 6.60086-1.94164l13.66869 11.96364 38.5837-.27383 7.4085-6.6926 168.55577-.02758c-12.26644 9.17224-26.64072 13.77626-43.12907 13.77626H488.7493v-62.26811h230.39486c8.64939 0 12.97479-6.65949 12.97479-19.97847 0-13.31829-4.32537-19.97783-12.97479-19.97783H551.53612c-22.13874 0-40.47423-8.30171-55.00303-24.90734-13.83698-15.56892-20.7565-34.59485-20.7565-57.07917 0-22.48707 7.09132-41.85855 21.27657-58.12 14.18253-16.25729 32.34421-24.38869 54.48295-24.38869h230.39691v6.36773l-11.01729.08616-26.63382 26.32832-102.54165.79934-12.26849-11.76975-18.80866.14622-15.95105-15.30269-4.23434.03104c-.65319-2.11338-2.67276-3.63633-5.04066-3.60115-2.86246.04483-5.14617 2.35411-5.10343 5.15584.0435 2.80175 2.39963 5.03791 5.26208 4.993 2.82313-.04271 5.08481-2.29127 5.10067-5.04404l3.38666-.02345 15.95034 15.30131 18.80866-.14691 12.26849 11.7705 103.8225-.80769 26.63382-26.33033 10.36616-.08001v5.01859l-8.30593.0669-26.15996 25.8606-110.73167.86218-13.57143-13.01757-23.12369.18001-9.39846-9.01704-15.71373.12479-7.1796 7.09748c-.87183-.61795-1.94922-.97386-3.10868-.95593-2.86246.04483-5.14823 2.35411-5.10343 5.15584.04345 2.80175 2.39757 5.03859 5.26 4.99376 2.86181-.04552 5.1455-2.35272 5.10273-5.15446-.01792-1.12429-.40488-2.15408-1.04767-2.98522l6.72773-6.6519 14.43291-.11518 9.39846 9.01772 23.12375-.18009 13.56929 13.01762 112.0146-.87184 26.15999-25.86131 7.65475-.06069v4.42057l-6.85463.0531-25.93172 25.6357-119.0983.92915-14.95506-14.34946-23.48583.1841c-.3228-2.53407-2.55138-4.47569-5.21999-4.43431-2.86246.04276-5.14617 2.35202-5.10343 5.15378.04274 2.80176 2.39895 5.03859 5.25935 4.99582 2.53408-.04138 4.61439-1.85404 5.02888-4.21164l22.89128-.17789 14.95711 14.34877 120.37706-.93667 25.92958-25.63783 6.20564-.0469v41.94615h-63.57519l-11.19524-10.72967-147.57925 1.13738-9.17562-8.79219-4.78621.03512c-.32627-2.49476-2.50441-4.42258-5.13997-4.42258-2.86246 0-5.18342 2.27201-5.18342 5.07376 0 2.80382 2.32099 5.07583 5.18342 5.07583 2.5631 0 4.69441-1.82437 5.10895-4.22124l4.18957-.03172 9.17424 8.79494 147.5806-1.14015 9.61989 9.22052h-19.55359l-3.15627-3.02453-147.57855 1.14015-9.17568-8.795-4.78685.0373c-.32621-2.49481-2.50241-4.42471-5.13997-4.42471-2.86037 0-5.18343 2.27201-5.18343 5.07584 0 2.80168 2.32307 5.07583 5.18343 5.07583 2.56521 0 4.69441-1.82644 5.10895-4.22124l4.19022-.03172 9.17568 8.79494 147.57855-1.14222 1.58226 1.51537H551.01797c-6.21393 0-10.19649 3.4839-11.94431 10.45032l-.00758-.8677-9.52609-9.13086-14.03632.10966-5.96699-5.7173c.55111-.80769.87391-1.77747.87391-2.82105 0-2.80175-2.31887-5.07583-5.18132-5.07583s-5.1828 2.27408-5.1828 5.07583c0 2.80382 2.32035 5.07583 5.1828 5.07583 1.23941 0 2.37751-.42626 3.26939-1.13808l6.37595 6.10976 14.03769-.10966 8.61285 8.25695.04277 5.22826.63389.60766c-.10416 1.31396-.15657 2.70793-.15657 4.18468 0 2.11132.11312 4.05293.3359 5.82421l-5.10481.03931-3.33146-3.19284-13.4321.10346-7.45541-7.14645c.92146-.91667 1.48986-2.17408 1.48986-3.56184 0-2.8018-2.31828-5.07377-5.18073-5.07377s-5.18343 2.27196-5.18343 5.07377c0 2.80312 2.321 5.07508 5.18343 5.07508.88149 0 1.7147-.21652 2.4417-.59795l8.07691 7.74032 13.4321-.10139 3.32943 3.19284 5.95798-.0469c.25175 1.46979.59388 2.80932 1.01805 4.01983l-7.49201.05863c-.45179-2.35202-2.55896-4.13365-5.09309-4.13365-2.86244 0-5.18343 2.27201-5.18343 5.07583 0 2.80168 2.321 5.07583 5.18343 5.07583 2.66861 0 4.86614-1.97475 5.15169-4.51439l8.03621-.06276c.49042 1.07116 1.0615 2.01958 1.71815 2.84101l-1.90783.01524-9.25778 9.16258-14.43153.10898-6.83123-6.54775c.62974-.8408 1.00288-1.87685 1.00288-3.00114 0-2.80168-2.321-5.07371-5.18343-5.07371s-5.18274 2.27201-5.18274 5.07371c0 2.80388 2.3203 5.07589 5.18274 5.07589 1.15947 0 2.23132-.37384 3.0935-1.00359l7.28854 6.98643 15.71379-.11938 9.25778-9.16182 2.6962-.02207c1.98855 1.69126 4.53438 2.53619 7.63339 2.53619h19.09422l-.56903.56145-18.80866.14416-15.7117 15.54754-3.38666.02965c-.05858-2.75277-2.35618-4.96617-5.17931-4.96617-2.86244 0-5.18343 2.27408-5.18343 5.07583 0 2.80383 2.321 5.07516 5.18343 5.07516 2.36584 0 4.364-1.55399 4.9834-3.67772l4.23504-.03656 15.71238-15.54824 18.80658-.14421 2.0844-2.0609h123.69612l15.88413 15.22337 52.07435-.13318c1.47396 1.16917 2.91901 2.40658 4.33295 3.71083l-63.0296.15664-9.36744-8.97634-105.63999.81528-14.65846 14.50534-16.13796.12555-4.95996-4.7551c1.02425-.92701 1.6678-2.25479 1.6678-3.72876 0-2.80176-2.32099-5.07583-5.18342-5.07583s-5.18342 2.27408-5.18342 5.07583 2.32099 5.07583 5.18342 5.07583c.78975 0 1.53882-.17452 2.2093-.4849l5.63862 5.40209 17.41884-.13518 14.65784-14.50534 104.35974-.80562 9.36541 8.97634 65.24302-.16415c1.46843 1.43122 2.89895 2.93694 4.29914 4.51853 1.2574 1.47399 2.45552 2.97763 3.59561 4.51224l-75.92784.16629-8.09411-7.75825-92.60519.71596-12.36305 12.23333-54.89751.42626c-.29311-2.52999-2.48516-4.49714-5.14826-4.49714-2.86175 0-5.18274 2.27408-5.18274 5.07583s2.32099 5.07583 5.18274 5.07583c2.54033 0 4.65164-1.7892 5.09582-4.14883l55.6031-.4304 12.36299-12.23333 91.32437-.70769 8.09411 7.75756 77.64875-.1718c1.11185 1.56785 2.16583 3.16529 3.159 4.7924l-80.97951.18001-7.82448-7.50029-87.69969.67801-15.04956 14.89292-7.54859.05867-7.49201 7.41613c-.93325-.88563-2.20581-1.42914-3.60738-1.42914-2.86105 0-5.18136 2.27202-5.18136 5.07376 0 2.80312 2.32031 5.07516 5.18136 5.07516 2.86246 0 5.18274-2.27202 5.18274-5.07516 0-.88011-.2283-1.70918-.63112-2.43066l7.20237-7.12852 7.54715-.06069 15.04891-14.89441 86.41741-.66486 7.82448 7.50024 82.50661-.18755c7.661 13.17206 11.49255 28.23259 11.49255 45.11348l.00045.00013z"/><path fill="#666" d="M920.65113 418.33224c-1.0222 1.0229-1.82575 2.20925-2.41067 3.56044-.58486 1.35323-.87805 2.79622-.87805 4.32884h51.3964c0-1.53262-.29387-2.97561-.87597-4.32884-.58497-1.3512-1.38853-2.53757-2.41281-3.56044-2.18995-2.19133-4.85712-3.28872-7.99899-3.28872h-28.82091c-3.14046 0-5.80702 1.0974-7.99905 3.28872m-3.17901 19.72602c.14691 1.24154.51245 2.41061 1.09669 3.50528.58492 1.0974 1.27876 2.08234 2.08232 2.95831 2.19203 2.192 4.85853 3.28872 7.99905 3.28872h45.69622v11.83465h-46.46332c-3.21423 0-6.20908-.58421-8.98592-1.7534-2.77627-1.16975-5.18688-2.81203-7.23201-4.93094-2.11956-2.11959-3.78117-4.56542-4.98549-7.34164-1.20635-2.77692-1.80851-5.7718-1.80851-8.986v-10.52138c0-3.2142.60216-6.18975 1.80851-8.93083 1.20432-2.73967 2.86592-5.16756 4.98549-7.28715 2.04518-2.11751 4.45574-3.76187 7.23201-4.931 2.77683-1.16913 5.77175-1.75407 8.98592-1.75407h30.35427c3.21423 0 6.20976.58495 8.98597 1.75407 2.77695 1.16913 5.22481 2.81349 7.34167 4.931 2.11956 2.11959 3.76392 4.5475 4.93314 7.28715 1.16769 2.74105 1.75193 5.71661 1.75193 8.93083v11.94637h-63.77805l.00011.00003zm-20.27369-34.84942v11.83471h-20.05229c-3.14176 0-5.80832 1.0974-8.00029 3.28872-1.02293 1.0229-1.82649 2.20925-2.41073 3.56044-.58492 1.35323-.87597 2.79622-.87597 4.32884v33.42367h-12.49333v-33.53333c0-3.1397.60216-6.1001 1.80851-8.87634 1.20438-2.77416 2.83071-5.22205 4.87583-7.34164 2.11956-2.11751 4.56545-3.76187 7.34167-4.931 2.77689-1.16913 5.7718-1.75407 8.98597-1.75407h20.82062zm-65.63891 23.12237c0-1.60711-.29313-3.08527-.87597-4.43852-.58492-1.3512-1.38847-2.53757-2.41275-3.56044-2.18995-2.19133-4.8565-3.28872-7.99899-3.28872h-28.82103c-3.14041 0-5.80696 1.0974-7.99894 3.28872-1.02225 1.0229-1.82581 2.20925-2.41073 3.56044-.58418 1.35323-.87805 2.83141-.87805 4.43852v10.30203c0 1.5347.29381 2.97764.87805 4.32816.58492 1.3512 1.38847 2.53825 2.41073 3.56044 2.19197 2.192 4.85847 3.28872 7.99894 3.28872h28.82103c3.14249 0 5.80905-1.09669 7.99899-3.28872 1.02428-1.0222 1.82784-2.20925 2.41275-3.56044.58283-1.35052.87597-2.79346.87597-4.32816v-10.30203zm5.80696-16.43732c2.11889 2.11959 3.76325 4.56751 4.93235 7.34164 1.16781 2.77621 1.75193 5.7718 1.75193 8.986v10.5207c0 3.2142-.58413 6.19254-1.75193 8.93151-1.1691 2.73897-2.81346 5.16756-4.93235 7.28715-2.11754 2.11892-4.56545 3.76119-7.34167 4.93094-2.77689 1.16916-5.7718 1.7534-8.98597 1.7534h-30.35432c-3.21423 0-6.20976-.58421-8.98597-1.7534-2.77689-1.16975-5.18756-2.81203-7.23269-4.93094-2.11883-2.11959-3.78111-4.54818-4.98549-7.28715-1.20635-2.73897-1.80851-5.71731-1.80851-8.93151v-10.52067c0-3.2142.60216-6.20978 1.80851-8.986 1.20438-2.77416 2.86666-5.22205 4.98549-7.34164 2.04512-2.11751 4.45574-3.76187 7.23269-4.931 2.77621-1.16913 5.7718-1.75407 8.98597-1.75407h30.35427c3.21423 0 6.20908.58495 8.98597 1.75407 2.77621 1.16913 5.22413 2.81349 7.34167 4.931l.00006-.00003zM707.72954 459.6452c-3.2142 0-6.20978-.58421-8.986-1.7534-2.77621-1.16975-5.18688-2.81203-7.23198-4.93094-2.11959-2.11959-3.7812-4.56542-4.98549-7.34164-1.20638-2.77692-1.80851-5.7718-1.80851-8.986v-10.52138c0-3.2142.60213-6.18975 1.80851-8.93083 1.20429-2.73967 2.8659-5.16756 4.98549-7.28715 2.0451-2.11751 4.45574-3.76187 7.23198-4.931s5.7718-1.75407 8.986-1.75407h50.51832v11.83471h-49.75131c-3.2149 0-5.84421 1.0974-7.88931 3.28872-1.0229 1.0229-1.84576 2.20925-2.46584 3.56044-.62146 1.35323-.93254 2.79622-.93254 4.32884v10.41172c0 1.5347.29313 2.97764.87805 4.32816.58421 1.3512 1.38777 2.53825 2.41067 3.56044 2.19206 2.192 4.85856 3.28872 7.99897 3.28872h52.59996v11.83465h-53.36698zm-47.66897-15.12335c2.19133-2.19133 3.28872-4.82131 3.28872-7.8886l-51.28669-.10971c0 3.14184 1.09669 5.80702 3.28872 7.99832 2.192 2.192 4.85862 3.28872 7.99897 3.28872h28.821c3.2142 0 5.84421-1.09669 7.88931-3.28872h-.00003zm3.28872-19.72399c-.43798-2.7038-1.5347-4.85853-3.28872-6.46562-2.0451-2.19133-4.67508-3.28872-7.88931-3.28872h-45.80599v-11.83471h46.57227c3.2142 0 6.19254.58495 8.93151 1.75407s5.16964 2.81349 7.28715 4.931c2.11892 2.11959 3.7812 4.5475 4.98754 7.28715 1.20435 2.74105 1.80645 5.71661 1.80645 8.93083v10.52138c0 3.2142-.6021 6.20908-1.80645 8.986-1.20638 2.77621-2.86866 5.22205-4.98754 7.34164-2.11751 2.11892-4.54818 3.76119-7.28715 4.93094-2.73897 1.16916-5.71731 1.7534-8.93151 1.7534h-30.46328c-3.2149 0-6.19254-.58421-8.93151-1.7534-2.73897-1.16975-5.16964-2.81203-7.28715-4.93094-2.11959-2.11959-3.76187-4.56542-4.93094-7.34164-1.16916-2.77692-1.7534-5.7718-1.7534-8.986v-11.83539h63.77802zm-80.43463 34.84736c-3.2142 0-6.19184-.58421-8.93083-1.7534-2.73967-1.16975-5.16964-2.81203-7.28715-4.93094-2.11959-2.11959-3.7812-4.54818-4.98616-7.28715-1.20567-2.73897-1.80851-5.71731-1.80851-8.93151v-21.69868h-5.47996v-11.83471h5.47996v-16.43727h12.60164v16.43727h17.20575v11.83471h-17.20575v21.58972c0 3.06729 1.0222 5.62487 3.06938 7.66996 1.89887 2.11959 4.38338 3.28872 7.45132 3.50736h8.87634v11.83465h-8.986l-.00003-.00003zm-49.20364 0v-33.42367c0-3.1397-1.09531-5.80696-3.28731-7.99897-1.0222-1.0222-2.21133-1.82581-3.56185-2.41067-1.3512-.58421-2.79416-.8774-4.32884-.8774h-28.92929c-1.53463 0-2.97763.29319-4.3281.8774-1.35333.58486-2.54039 1.38845-3.56258 2.41067-2.192 2.192-3.28658 4.85926-3.28658 7.99897v33.42367h-12.49409v-33.53333c0-3.2142.58492-6.18975 1.75402-8.93083 1.16913-2.73967 2.81141-5.16756 4.931-7.28715 2.11959-2.11751 4.54749-3.77911 7.28715-4.98549 2.73897-1.20638 5.71661-1.80921 8.93082-1.80921h30.46604c3.2142 0 6.18975.60284 8.92945 1.80921 2.74105 1.20638 5.16897 2.86798 7.28853 4.98549 2.11751 2.11959 3.76187 4.5475 4.931 7.28715 1.16913 2.74105 1.75402 5.71661 1.75402 8.93083v33.53333h-12.49336zm-97.20027 16.87531h-28.49269c-3.2149 0-6.19253-.58421-8.93151-1.75196-2.73897-1.16913-5.16757-2.81349-7.28716-4.93305-2.1189-2.11683-3.78119-4.5475-4.98543-7.28647-1.20641-2.7397-1.80857-5.71731-1.80857-8.93151v-2.63004h12.49128v2.52038c0 1.53532.31108 2.97764.93323 4.32878.61939 1.35125 1.44294 2.53971 2.46515 3.56258 2.04513 2.192 4.67509 3.28658 7.88932 3.28658h26.95798c1.53469 0 2.99561-.27378 4.38333-.82142 1.38845-.54697 2.59482-1.33328 3.61702-2.35547 2.11752-2.192 3.2142-4.82202 3.28664-7.89139v-9.75231c-3.2142 1.67952-6.7195 2.52033-10.51862 2.52033h-30.46604c-3.14178 0-6.1001-.58495-8.87633-1.75402-2.77621-1.16704-5.22205-2.81141-7.34165-4.931-2.11958-2.11751-3.76187-4.56542-4.931-7.34164s-1.75402-5.7718-1.75402-8.986v-20.16406h12.49409v20.16406c0 3.06729 1.09458 5.69936 3.28659 7.89139 2.192 2.19133 4.85856 3.28658 8.00036 3.28658h28.81963c3.2142 0 5.84425-1.09525 7.89138-3.28658 1.02225-1.02496 1.84369-2.21133 2.46516-3.56258.62009-1.35114.93046-2.79411.93046-4.32878v-20.16406h12.49405v50.40869c0 3.2142-.6042 6.19181-1.80851 8.93151-1.20636 2.73897-2.86866 5.16964-4.98616 7.28647-2.1189 2.11959-4.54749 3.76395-7.28854 4.93305-2.73967 1.16775-5.71524 1.75196-8.92944 1.75196v-.00003zm-84.1627-61.91499c3.14178 0 6.08217.58492 8.82184 1.75402 2.73897 1.16913 5.13239 2.77621 7.17749 4.82131s3.65427 4.43852 4.82131 7.17749c1.16912 2.73967 1.75407 5.68003 1.75407 8.82185 0 3.07005-.58495 5.9732-1.75407 8.71216-1.16705 2.73967-2.77621 5.13239-4.82131 7.17749s-4.43852 3.65221-7.17749 4.82196c-2.73967 1.16916-5.68004 1.7534-8.82184 1.7534h-57.64057v-11.83465h57.64061c1.46225 0 2.84865-.27383 4.16468-.82286 1.31534-.54764 2.46515-1.31395 3.45286-2.30169.98496-.98495 1.75126-2.11751 2.30098-3.39562.54765-1.27879.8208-2.64937.8208-4.1102 0-2.99494-1.04151-5.53319-3.12178-7.61547-2.08234-2.08234-4.62267-3.12454-7.61754-3.12454h-40.43561c-3.21629 0-6.1918-.58216-8.93082-1.75126-2.74104-1.16913-5.16964-2.81349-7.28922-4.931-2.11752-2.11965-3.77912-4.56748-4.98549-7.34372-1.2043-2.77621-1.80851-5.73453-1.80851-8.87702 0-3.2142.60421-6.20908 1.80851-8.986 1.20637-2.77416 2.86797-5.22205 4.98549-7.34164 2.11959-2.0451 4.54818-3.66942 7.28922-4.8758 2.73903-1.20429 5.71454-1.80851 8.93082-1.80851h57.20332v11.83671h-57.09366c-2.99488.21864-5.48003 1.38568-7.45269 3.50528-.94839 1.0229-1.69742 2.17408-2.24649 3.45287-.54761 1.27673-.82148 2.68448-.82148 4.21709 0 1.46297.27387 2.83141.82148 4.1102.54907 1.27879 1.2981 2.42997 2.24649 3.45287 1.90024 2.11751 4.38333 3.28664 7.45269 3.50528h40.32595-.00004z"/><path fill="#4a82b5" d="M859.90738 517.91344c0-2.37542-1.087-4.10738-4.43021-6.08004l-3.98673-2.37548c-1.85336-1.08911-2.7783-1.85404-2.7783-3.06247 0-2.05476 1.48985-2.33615 3.74392-2.33615 2.25683 0 4.83374.2014 6.24289.3228h.12144c.40274 0 .68415-.20145.68415-.68426v-1.32978c0-.44213-.24005-.72568-.76422-.80561-1.89258-.32213-4.02742-.52352-6.28425-.52352-4.14677 0-7.28853 1.16907-7.28853 5.35656 0 2.53825 1.65197 4.2702 4.10744 5.76008l4.06889 2.41687c2.29543 1.36838 3.01897 2.13337 3.01897 3.34107 0 2.1762-1.36847 2.8604-3.98673 2.8604-1.44849 0-4.38953-.20072-6.32285-.44351h-.16009c-.40279 0-.72562.24279-.72562.60416v1.40989c0 .44351.32283.68423.84633.80561 1.97266.48281 4.87234.60351 6.36218.60351 4.51096 0 7.53134-1.73196 7.53134-5.84013m-22.32772 4.7531v-28.71546c0-.44351-.32069-.76425-.72354-.76425h-2.09404c-.44427 0-.72568.36143-.72568.76425v28.71546c0 .44418.32283.80561.72568.80561h2.09404c.44145 0 .72354-.40282.72354-.80561zm-14.67364-8.73907c0 4.14883-1.69124 6.7257-5.43793 6.7257-3.7846 0-5.39589-2.61826-5.39589-6.7257v-3.06039c0-4.14883 1.64988-6.72784 5.39589-6.72784 3.78534 0 5.43793 2.61832 5.43793 6.72784v3.06039zm3.54467 0v-3.06039c0-5.92214-3.06185-9.82818-8.98259-9.82818-5.92006 0-8.9405 3.90604-8.9405 9.82818v3.06039c0 5.92009 3.02038 9.8261 8.9405 9.8261 5.92079 0 8.98259-3.90604 8.98259-9.8261zm-27.92579 0c0 4.14883-1.69124 6.7257-5.43793 6.7257-3.78466 0-5.39589-2.61826-5.39589-6.7257v-3.06039c0-4.14883 1.64988-6.72784 5.39589-6.72784 3.78534 0 5.43793 2.61832 5.43793 6.72784v3.06039zm3.54461 0v-3.06039c0-5.92214-3.0618-9.82818-8.98253-9.82818-5.92006 0-8.9405 3.90604-8.9405 9.82818v3.06039c0 5.92009 3.02038 9.8261 8.9405 9.8261 5.92079 0 8.98253-3.90604 8.98253-9.8261zm-23.37617 8.94047v-1.40921c0-.40276-.28344-.56348-.847-.56348h-2.25407c-1.61123 0-2.17608-.32213-2.17608-2.53757v-14.05562h4.35014c.44213 0 .80564-.36419.80564-.80561v-1.36915c0-.44356-.36352-.80494-.80564-.80494h-4.35014v-4.39161c0-.40282-.28147-.68423-.60425-.68423h-.12138l-2.09336.3228c-.44213.08002-.72562.40282-.72562.80494v3.94811h-3.90672c-.44145 0-.76422.28141-.76422.72283v1.08911c0 .44213.32283.68423.76422.72354l3.90672.44418v14.05562c0 4.43024 1.77335 5.39586 5.47867 5.39586.76422 0 1.81195-.08002 2.61759-.20072.52423-.08069.72562-.3228.72562-.68491l-.00011.00006zm-33.16226-2.45761c-1.37053.12144-3.34321.24284-4.71165.24284-3.98879 0-5.2358-2.45617-5.2358-6.84711v-2.89968c0-4.30951 1.2884-6.76715 5.2358-6.76715 1.28845 0 3.38252.04139 4.71165.28353v15.98756zm3.54323 1.73269v-28.19196c0-.44351-.32075-.76425-.72348-.76425h-2.05482c-.44418 0-.76493.36143-.76493.76425v7.49063c-1.57192-.28217-3.46459-.40282-4.71165-.40282-5.88146 0-8.78108 3.54461-8.78108 9.86749v2.89968c0 6.04147 2.77892 9.94751 8.78108 9.94751 2.4555 0 4.91305-.20072 7.40994-.68423.72562-.12076.84495-.40282.84495-.92632v.00003zm-24.22109.52352v-13.25001c0-5.35726-2.17408-8.37764-7.00711-8.37764-2.37756 0-4.19022.60346-6.40566 1.85334v-.76493c0-.44356-.32004-.80494-.76425-.80494h-2.01405c-.44145 0-.76425.36138-.76425.80494v20.53924c0 .44418.36211.80561.76425.80561h1.97342c.44345 0 .80488-.40282.80488-.80561V505.6705c1.85404-.92696 3.74668-1.56981 5.43795-1.56981 3.06183 0 4.43024 1.24706 4.43024 5.31587v13.25001c0 .44418.36349.80561.80561.80561h1.93335c.44418 0 .80561-.36143.80561-.80561v-.00003zm-28.4106-3.4232c-1.93197 1.04772-3.58391 1.61125-5.43519 1.61125-2.33685 0-3.70738-.76493-3.70738-3.66393v-.4849c0-2.85899 1.29051-3.94605 6.16287-3.94605h2.9797v6.48362zm3.54461 3.4232v-14.05562c0-4.75304-2.25407-7.57203-7.85415-7.57203-2.73691 0-4.59022.24208-6.24289.52352-.56283.07996-.84419.3228-.84419.76631v1.40777c0 .5242.36138.64561.72486.64561h.2014c1.61125-.16071 3.54326-.3228 6.16079-.3228 3.14249 0 4.30951 1.16913 4.30951 4.55165v1.61125h-2.9797c-7.16991 0-9.7054 2.17408-9.7054 6.5243v.48281c0 5.03446 3.1397 6.5243 6.56361 6.5243 2.25616 0 4.2702-.84424 6.20356-1.97269v.88563c0 .44418.36143.80561.80567.80561h1.85122c.44418 0 .80561-.36143.80561-.80561l.00008-.00003zm-32.55728-4.7531c0-2.37542-1.08708-4.10738-4.43097-6.08004l-3.98671-2.37548c-1.85334-1.08911-2.7783-1.85404-2.7783-3.06247 0-2.05476 1.48985-2.33615 3.74462-2.33615 2.25616 0 4.83303.2014 6.24289.3228h.12138c.40212 0 .68423-.20145.68423-.68426v-1.32978c0-.44213-.24073-.72568-.76493-.80561-1.89264-.32213-4.02742-.52352-6.28358-.52352-4.14745 0-7.28923 1.16907-7.28923 5.35656 0 2.53825 1.65194 4.2702 4.10811 5.76008l4.06881 2.41687c2.29546 1.36838 3.01838 2.13337 3.01838 3.34107 0 2.1762-1.3685 2.8604-3.98609 2.8604-1.44911 0-4.38953-.20072-6.32358-.44351h-.16001c-.40282 0-.72562.24279-.72562.60416v1.40989c0 .44351.3228.68423.847.80561 1.97269.48281 4.87234.60351 6.36221.60351 4.51029 0 7.5314-1.73196 7.5314-5.84013h-.00003zm-24.86605-7.08708H631.8922v-.36216c0-4.35017 1.93197-6.32497 5.39656-6.32497 3.54464 0 5.27516 1.77337 5.27516 6.32497v.36216zm3.58529 1.81265v-2.17482c0-5.72069-2.98175-9.42531-8.86048-9.42531-5.76002 0-8.94117 3.66596-8.94117 9.42531v3.62327c0 7.49201 4.51023 9.66609 9.14257 9.66609 2.69761 0 4.91305-.24002 7.20854-.68423.6449-.12076.80561-.40282.80561-.92632v-1.36915c0-.40212-.3228-.56488-.64355-.56488h-.2014c-1.85328.2835-4.83298.44418-7.16921.44418-3.70532 0-5.59796-1.77126-5.59796-6.56569v-.56283h13.49073c.4849 0 .76631-.36211.76631-.88563zm-23.33478-9.22326v-1.65194c0-.48281-.2835-.72492-.847-.72492-1.81195 0-3.66393.52352-5.6773 1.93335v-.84495c0-.44356-.3228-.80494-.76699-.80494h-1.89264c-.44145 0-.76425.36138-.76425.80494v20.53924c0 .44418.36211.80561.76425.80561h1.97336c.44351 0 .80567-.40282.80567-.80561v-16.8746c2.01331-1.20843 3.70664-1.69124 5.55792-1.69124.56353 0 .847-.24279.847-.68491l-.00003-.00003zm-20.67648 10.51171c0 4.14883-1.69124 6.7257-5.43728 6.7257-3.78531 0-5.39586-2.61826-5.39586-6.7257v-3.06039c0-4.14883 1.64988-6.72784 5.39586-6.72784 3.78531 0 5.43728 2.61832 5.43728 6.72784v3.06039zm3.54528 0v-3.06039c0-5.92214-3.06171-9.82818-8.98253-9.82818-5.92009 0-8.94117 3.90604-8.94117 9.82818v3.06039c0 5.92009 3.02109 9.8261 8.94117 9.8261 5.92082 0 8.98253-3.90604 8.98253-9.8261zm-24.14316 8.49691v-1.44911c0-.40212-.32004-.60351-.68423-.60351h-.16001c-1.77332.2014-3.02109.28141-4.99374.28141-3.26319 0-5.03446-2.17414-5.03446-6.68507v-3.14176c0-4.55165 1.81265-6.68713 5.03446-6.68713 1.97269 0 3.22042.08213 4.99374.28353h.16001c.36419 0 .68423-.2014.68423-.60422v-1.45052c0-.56283-.16001-.76425-.80494-.88563-1.32776-.24208-3.18109-.44351-5.03308-.44351-5.5193 0-8.57904 3.86671-8.57904 9.78747v3.14176c0 5.92014 3.10113 9.78547 8.57904 9.78547 1.89264 0 3.70532-.20072 5.03308-.44145.6449-.12138.80494-.36354.80494-.88774zm-31.55033.24214v-14.25702c0-5.59728-2.89962-7.40994-6.5243-7.40994-2.09407 0-4.46954.60422-6.68502 1.64983-1.00701-1.16699-2.29546-1.64983-4.02742-1.64983-2.21544 0-4.2702.88563-5.88146 1.89264v-.76493c0-.44356-.32075-.80494-.76425-.80494h-2.01406c-.44213 0-.76424.36138-.76424.80494v20.53921c0 .44418.28143.80561.68423.80561h2.13475c.44213 0 .72354-.40282.72354-.80561v-16.99604c1.69333-.84489 3.46465-1.56981 4.91511-1.56981 2.09407 0 3.10107.72492 3.10107 4.22884v14.33706c0 .44418.28141.80561.68423.80561h2.13545c.44145 0 .72283-.40282.72283-.80561v-14.33706c0-1.20843-.11932-2.25616-.36143-3.14184 1.56987-.60416 3.26111-1.087 4.71165-1.087 2.09407 0 3.66602.92632 3.66602 4.30883v14.25702c0 .44418.36211.80561.80561.80561h1.93197c.44351 0 .80561-.36143.80561-.80561l.00008.00003zm-37.38902-8.73907c0 4.14883-1.69126 6.7257-5.43726 6.7257-3.78532 0-5.39651-2.61826-5.39651-6.7257v-3.06039c0-4.14883 1.6505-6.72784 5.39651-6.72784 3.78532 0 5.43726 2.61832 5.43726 6.72784v3.06039zm3.54459 0v-3.06039c0-5.92214-3.06177-9.82818-8.98186-9.82818-5.92074 0-8.94116 3.90604-8.94116 9.82818v3.06039c0 5.92009 3.02045 9.8261 8.94116 9.8261 5.92009 0 8.98186-3.90604 8.98186-9.8261zm-23.37616 8.94047v-1.40921c0-.40276-.28348-.56348-.84633-.56348h-2.25479c-1.61056 0-2.17614-.32213-2.17614-2.53757v-14.05562h4.35022c.44213 0 .80563-.36419.80563-.80561v-1.36915c0-.44356-.3635-.80494-.80563-.80494h-4.35022v-4.39161c0-.40282-.28143-.68423-.6042-.68423h-.1207l-2.09407.3228c-.44213.08002-.72561.40282-.72561.80494v3.94811h-3.90672c-.44143 0-.76424.28141-.76424.72283v1.08911c0 .44213.3228.68423.76424.72354l3.90672.44418v14.05562c0 4.43024 1.77333 5.39586 5.47865 5.39586.76424 0 1.81264-.08002 2.61759-.20072.5242-.08069.72561-.3228.72561-.68491v.00006zm-18.94593-4.9545c0-2.37542-1.08704-4.10738-4.43023-6.08004l-3.98672-2.37548c-1.85334-1.08911-2.7783-1.85404-2.7783-3.06247 0-2.05476 1.48986-2.33615 3.74395-2.33615 2.25685 0 4.83374.2014 6.24357.3228h.1207c.40281 0 .68423-.20145.68423-.68426v-1.32978c0-.44213-.24002-.72568-.76424-.80561-1.89265-.32213-4.02742-.52352-6.28427-.52352-4.14675 0-7.28854 1.16907-7.28854 5.35656 0 2.53825 1.65194 4.2702 4.10813 5.76008l4.06812 2.41687c2.29546 1.36838 3.01901 2.13337 3.01901 3.34107 0 2.1762-1.36846 2.8604-3.98672 2.8604-1.44846 0-4.38953-.20072-6.32289-.44351h-.16002c-.40281 0-.72561.24279-.72561.60416v1.40989c0 .44351.3228.68423.84633.80561 1.97267.48281 4.87235.60351 6.36221.60351 4.51093 0 7.53133-1.73196 7.53133-5.84013h-.00004zm-21.92488 4.7531v-20.53924c0-.44356-.36216-.80494-.76498-.80494h-1.97474c-.44143 0-.80557.40276-.80557.80494v16.99463c-1.85132.92702-3.74605 1.57192-5.43731 1.57192-3.05971 0-4.43023-1.24918-4.43023-5.31587v-13.25068c0-.44356-.36138-.80494-.80563-.80494h-1.93199c-.44351 0-.80494.36138-.80494.80494v13.25068c0 5.3552 2.17412 8.37556 7.00711 8.37556 2.37549 0 4.18813-.60351 6.40294-1.85128v.76425c0 .44418.32275.80561.76696.80561h2.01336c.44213 0 .76498-.36143.76498-.80561l.00003.00003zm-23.53691-.24214v-1.6505c0-.44351-.2014-.6449-.64283-.6449h-.16073c-1.45053.12138-4.35022.32275-6.6457.32275-3.9474 0-7.00919-2.37542-7.00919-9.14251v-5.59796c0-6.84711 3.06177-9.14186 7.00919-9.14186 2.33479 0 5.31656.24002 6.76502.36143h.12145c.40275 0 .48282-.2014.48282-.44213v-2.05476c0-.36143-.28146-.48281-.64358-.5242-1.77333-.28141-4.22883-.64285-6.7664-.64285-4.95444 0-10.63242 2.57688-10.63242 12.44439v5.59796c0 9.78747 5.67798 12.44439 10.63242 12.44439 3.42324 0 4.99305-.20072 6.6864-.52352.44213-.08002.80356-.32075.80356-.80567v-.00006z"/></g></svg>