<svg xmlns="http://www.w3.org/2000/svg" role="img" viewBox="7.98 10.48 248.04 66.04"><title>Tampere University (member) logo</title><style>svg {enable-background:new 0 0 266.32 84.8}</style><path fill="none" d="M0 0h266.32v84.8H0z"/><path fill="#4e008e" fill-rule="evenodd" d="M20.24 40.64h9.2v3.68h-9.2zm16.56 3.68H46v-3.68H33.12V57.2h3.68zm-7.36-25.34v-3.75c-9.42 1.73-16.56 9.98-16.56 19.9v9.2h3.68v-9.2c0-7.88 5.51-14.48 12.88-16.15m20.24 21.66v11.04c0 9.14-7.41 16.56-16.56 16.56v3.68c11.18 0 20.24-9.06 20.24-20.24V40.64h-3.68zm86.28 4.7v2.35c-.33-.07-.63-.09-.93-.09-2.12 0-3.28 1.35-3.28 3.81v5.79h-2.65V45.39h2.47v1.74h.05c.79-1.28 1.91-1.91 3.37-1.91.29.01.66.05.97.12m2.87 4.75h5.98c-.19-2.07-1.4-3.09-2.98-3.09-1.61-.01-2.77 1.04-3 3.09m5.76 3.55h2.72c-.44 2.12-2.35 3.91-5.44 3.91-3.6 0-5.72-2.58-5.72-6.39 0-3.49 2.09-6.12 5.67-6.12 2.7 0 4.65 1.56 5.3 4.02.23.74.33 1.63.33 2.77h-8.67c.09 2.67 1.44 3.77 3.09 3.77 1.52 0 2.49-.82 2.72-1.96zM69.01 43.06V57.2h-2.77V43.06H60.8v-2.41h13.65v2.41zM80.1 51.6c-.79.05-1.93.16-2.72.3-1.7.28-2.33.79-2.33 1.86 0 1.05.74 1.74 2.09 1.74.81 0 1.6-.26 2.14-.79.63-.65.81-1.28.81-2.53v-.58zm2.56-1.93v4.42c0 1.4.12 2.37.3 3.12h-2.4c-.12-.51-.16-1.09-.16-1.65h-.05c-.86 1.26-2.19 1.91-3.98 1.91-2.47 0-4-1.49-4-3.51 0-1.93 1.14-3.19 4.53-3.72.95-.16 2.35-.3 3.19-.35v-.46c0-1.74-.95-2.44-2.3-2.44-1.46 0-2.26.81-2.33 2.07h-2.6c.12-2.23 1.74-4 4.93-4 3.13-.02 4.87 1.52 4.87 4.61zm19.35.25v7.28h-2.65v-7.02c0-2.09-.81-2.93-2.14-2.93-1.56 0-2.49 1.33-2.49 3.58v6.37h-2.65v-7.3c0-1.67-.74-2.65-2.12-2.65-1.58 0-2.49 1.35-2.49 3.63v6.33h-2.65V45.39h2.53v1.42h.05c.84-1.14 1.88-1.7 3.28-1.7 1.63 0 2.88.74 3.49 2.14.86-1.35 2-2.14 3.79-2.14 2.52 0 4.05 1.63 4.05 4.81m4.72 1.38c0 2.56 1.14 4.14 2.86 4.14 1.79 0 2.93-1.63 2.93-4.14s-1.14-4.14-2.93-4.14c-1.72 0-2.86 1.55-2.86 4.14m8.55 0c0 3.77-1.91 6.19-4.91 6.19-1.47 0-2.79-.67-3.47-1.81h-.05v5.84h-2.65V45.39h2.58v1.63h.05c.7-1.21 2.02-1.93 3.51-1.93 3.02 0 4.94 2.44 4.94 6.21zm3.63-1.21h5.98c-.19-2.07-1.39-3.09-2.98-3.09-1.6-.01-2.77 1.04-3 3.09m5.77 3.55h2.72c-.44 2.12-2.35 3.91-5.44 3.91-3.6 0-5.72-2.58-5.72-6.39 0-3.49 2.09-6.12 5.67-6.12 2.7 0 4.65 1.56 5.3 4.02.23.74.33 1.63.33 2.77h-8.67c.09 2.67 1.44 3.77 3.09 3.77 1.51 0 2.49-.82 2.72-1.96zm42.7-2.69c0 4.3-2.26 6.6-6.35 6.6s-6.37-2.3-6.37-6.6v-10.3h2.79v10.21c0 2.79 1.3 4.21 3.58 4.21 2.28 0 3.58-1.42 3.58-4.21V40.65h2.77v10.3zm12.79-.98v7.23h-2.65v-7c0-2.12-.91-2.95-2.4-2.95-1.51 0-2.7 1.14-2.7 3.4v6.56h-2.65V45.39h2.51v1.54h.05c.75-1.07 1.98-1.81 3.54-1.81 2.67-.01 4.3 1.62 4.3 4.85m2.18 7.23V45.39H185V57.2h-2.65zm0-14.02v-2.54H185v2.54h-2.65zm7.56 14.02l-4.12-11.81h2.77l1.53 4.81c.56 1.72 1.05 3.42 1.51 5.16h.05c.46-1.74.95-3.44 1.51-5.16l1.54-4.81h2.77l-4.12 11.81h-3.44zm9.91-7.11h5.98c-.19-2.07-1.4-3.09-2.98-3.09-1.6-.01-2.77 1.04-3 3.09m5.77 3.55h2.72c-.44 2.12-2.35 3.91-5.44 3.91-3.61 0-5.72-2.58-5.72-6.39 0-3.49 2.09-6.12 5.67-6.12 2.7 0 4.65 1.56 5.3 4.02.23.74.33 1.63.33 2.77h-8.67c.09 2.67 1.44 3.77 3.09 3.77 1.51 0 2.49-.82 2.72-1.96zm11.27-8.3v2.35c-.33-.07-.63-.09-.93-.09-2.12 0-3.28 1.35-3.28 3.81v5.79H210V45.39h2.46v1.74h.05c.79-1.28 1.91-1.91 3.37-1.91.31.01.68.05.98.12m10.09 3.72h-2.56c0-1.42-.84-2.09-2.26-2.09-1.23 0-1.95.53-1.95 1.39 0 1.02.81 1.23 2.67 1.7 2.16.56 4.47 1.07 4.47 3.88 0 2.14-1.91 3.6-4.95 3.6-3.16 0-5.09-1.42-5.12-4.23h2.7c0 1.44.88 2.25 2.46 2.25 1.35 0 2.14-.58 2.14-1.46 0-1.21-.93-1.44-2.98-1.95-1.98-.49-4.05-.93-4.05-3.58 0-2.09 1.86-3.54 4.63-3.54 3.01.01 4.78 1.41 4.8 4.03m1.97 8.14V45.39h2.65V57.2h-2.65zm0-14.02v-2.54h2.65v2.54h-2.65zm10.63 11.88v2.07c-.39.12-1 .21-1.49.21-2.49 0-3.58-1.05-3.58-3.63v-6.3h-1.98v-2.02h1.98v-2.95h2.65v2.95h2.3v2.02h-2.3v5.91c0 1.33.44 1.86 1.6 1.86.31 0 .63-.05.82-.12m7.33 2.65c-1.12 3-2.42 3.91-5.16 3.91-.51 0-.98-.07-1.33-.16V59.3c.3.09.7.16 1.12.16 1.44 0 2.07-.54 2.63-2.16l-4.33-11.91h2.84l2.95 8.79h.05l3.05-8.79h2.75l-4.57 12.32z" clip-rule="evenodd"/></svg>