<svg xmlns="http://www.w3.org/2000/svg" role="img" viewBox="102.96 46.96 1042.08 655.08"><title>Technolution (member) logo</title><defs><style>.cls-3{isolation:isolate}.cls-5{fill:#13121b}</style></defs><path id="rect223" fill="#d39329" d="M123.596 599.4L1125.808 599.4 1125.808 682.151 123.67 682.151 123.596 599.4z"/><g id="text4737" class="cls-3"><g class="cls-3"><path fill="#fff" d="M295.93848 663.07031v-44.70117h46.75928v5.27441h-37.58691v13.84375h32.52832v5.27539h-32.52832v20.30762h-9.17236zM378.7251 641.29883c0-7.41992 3.08887-13.22852 9.2666-17.42676 6.17773-4.19727 14.15234-6.2959 23.92383-6.2959 6.39844 0 12.16602.98633 17.30371 2.95703 5.1377 1.97266 9.05469 4.72168 11.74902 8.24902 2.69531 3.52637 4.04297 7.52637 4.04297 11.99805 0 4.5332-1.41895 8.58887-4.25586 12.16699-2.83594 3.57812-6.85547 6.28613-12.05566 8.12598-5.20117 1.83984-10.81152 2.75977-16.83203 2.75977-6.52441 0-12.35547-1.0166-17.49316-3.0498-5.1377-2.03223-9.03027-4.80664-11.67773-8.32422-2.64746-3.5166-3.97168-7.23633-3.97168-11.16016zm9.45605.0918c0 5.38672 2.24609 9.63086 6.7373 12.73047s10.125 4.64941 16.90234 4.64941c6.90234 0 12.58398-1.56445 17.04395-4.69531 4.45996-3.12988 6.69043-7.57227 6.69043-13.3252 0-3.63867-.9541-6.81543-2.86035-9.5293-1.90723-2.71289-4.69727-4.81738-8.36914-6.31152s-7.79297-2.24121-12.36328-2.24121c-6.49316 0-12.08008 1.43848-16.76074 4.31445-4.68066 2.87695-7.02051 7.67969-7.02051 14.4082zM529.21533 618.36914h9.17188v25.82617c0 4.49316-.78809 8.06055-2.36328 10.70312-1.57715 2.64258-4.4209 4.79199-8.53418 6.44922s-9.51172 2.48535-16.19336 2.48535c-6.49316 0-11.80469-.72266-15.93359-2.16504-4.12891-1.44336-7.07617-3.53223-8.84082-6.2666-1.76562-2.7334-2.64746-6.46875-2.64746-11.20605v-25.82617h9.17188v25.7959c0 3.88281.55957 6.74414 1.67871 8.58398 1.11816 1.83984 3.04102 3.25781 5.76758 4.25293 2.72656.99707 6.05957 1.49414 10 1.49414 6.74414 0 11.55176-.98535 14.41992-2.95703s4.30273-5.76367 4.30273-11.37402v-25.7959zM580.46631 663.07031v-44.70117h9.4082l36.40576 35.0957v-35.0957h8.79395v44.70117h-9.4082l-36.40576-35.12695v35.12695h-8.79395zM677.38965 663.07031v-44.70117h23.87695c5.38965 0 9.50293.21289 12.33984.63965 3.9707.58984 7.35938 1.65723 10.16504 3.20215 3.65625 1.99219 6.38965 4.53809 8.20312 7.6377 1.81152 3.10059 2.71777 6.64258 2.71777 10.62695 0 3.39551-.61426 6.40332-1.84375 9.02539-1.22949 2.62305-2.80566 4.79297-4.72754 6.51074-1.92285 1.71777-4.02734 3.06934-6.31152 4.05469-2.28613.98633-5.04395 1.7334-8.27441 2.24121-3.23145.50879-6.94238.7627-11.13379.7627h-25.01172zm9.17283-5.27539h14.79787c4.57031 0 8.15625-.27441 10.75684-.82324 2.59961-.54883 4.67188-1.32129 6.2168-2.31738 2.1748-1.40234 3.86914-3.28809 5.08301-5.65625 1.21289-2.36816 1.82031-5.23926 1.82031-8.61426 0-4.6748-1.19043-8.26758-3.57031-10.77832s-5.27148-4.19336-8.67578-5.04688c-2.45801-.60938-6.41406-.91504-11.86719-.91504h-14.56154v34.15137zM775.77832 663.07031v-44.70117h9.17188v44.70117h-9.17188zM827.92773 663.07031v-44.70117h9.4082l36.40527 35.0957v-35.0957h8.79395v44.70117h-9.4082l-36.40527-35.12695v35.12695h-8.79395zM957.28418 645.53711v-5.24414l29.36035-.03125v16.58789c-4.50781 2.31738-9.15723 4.06055-13.94727 5.22949-4.79199 1.16895-9.70898 1.75391-14.75195 1.75391-6.80762 0-12.99414-.94043-18.55664-2.82129-5.56348-1.87988-9.76367-4.59863-12.60059-8.15625-2.83594-3.55762-4.25488-7.53125-4.25488-11.92285 0-4.34961 1.41016-8.41016 4.23145-12.18164 2.82031-3.77051 6.87891-6.57031 12.1748-8.40039 5.29492-1.8291 11.39453-2.74414 18.29688-2.74414 5.01172 0 9.54199.52344 13.59277 1.57031 4.0498 1.04688 7.22559 2.50586 9.52734 4.37598 2.2998 1.87012 4.0498 4.30957 5.24805 7.31738l-8.27441 1.46387c-1.04004-2.27637-2.33301-4.06543-3.87695-5.36621-1.54492-1.30078-3.75098-2.34277-6.61914-3.12598-2.86816-.78223-6.05176-1.17383-9.5498-1.17383-4.19238 0-7.81738.41211-10.875 1.23535s-5.52441 1.90527-7.39941 3.24707-3.33301 2.81543-4.37305 4.42188c-1.76562 2.76465-2.64746 5.7627-2.64746 8.99512 0 3.98438 1.06348 7.31738 3.19141 10.00098s5.22461 4.67578 9.29004 5.97656c4.06641 1.30078 8.38477 1.95117 12.95508 1.95117 3.97168 0 7.84863-.49219 11.63086-1.47852 3.78223-.98535 6.64941-2.03809 8.60449-3.15625v-8.32422h-20.37695z"/></g></g><g id="g1296"><g id="Layer_1-5" data-name="Layer 1-5"><g id="XMLID_3_-3" data-name="XMLID 3 -3"><g id="g1255"><path id="rect1209" d="M458.506 67.474H541.358V150.32600000000002H458.506z" class="cls-5"/><path id="rect1211" d="M567.426 67.474H650.278V357.498H567.426z" class="cls-5"/><path id="polygon1213" fill="#f0ca30" d="M759.219 150.347L676.346 67.474 759.219 67.474 759.219 150.347z"/><g id="g1253"><g id="g1219"><g id="g1217"><path id="path1215" d="m790.53461,478.00576v-13.1946h-12.05935v-11.50242l-15.82926-5.48346v16.98588h-10.13159v13.1946h10.13159v27.54586c0,5.76193,1.56367,10.08874,4.6695,12.98039,3.1059,2.89169,7.3256,4.32681,12.63766,4.32681,3.40574,0,6.74722-.38554,10.02445-1.13525v-12.87328l-.79252.23562c-1.8207.53549-3.34148.79252-4.56243.79252-1.97065,0-3.49144-.49265-4.56243-1.47797s-1.58504-2.39901-1.58504-4.2197v-26.17499h12.05942Z" class="cls-5"/></g></g><g id="g1241"><path id="path1221" d="m284.17072,455.15085h-23.21906v-14.80108h63.85241v14.80108h-23.21906v66.57272h-17.41429v-66.57272Z" class="cls-5"/><path id="path1223" d="m450.15269,440.34976h15.93632v31.50853c2.27049-2.42045,5.16218-4.39106,8.65358-5.91185,3.49144-1.52082,7.17564-2.27049,11.03118-2.27049,6.14747,0,11.11688,1.77785,14.90819,5.35495s5.69767,8.37515,5.69767,14.45836v38.23434h-15.93633v-34.25026c0-3.34148-.92104-5.86904-2.78458-7.56118-1.86351-1.71359-4.26255-2.57037-7.21846-2.57037-2.80599,0-5.46205.70686-7.96817,2.09913-2.50611,1.41371-4.62668,3.40574-6.38309,5.97611v36.30654h-15.93633l.00002-81.37381Z" class="cls-5"/><path id="path1225" d="m520.10972,464.81116h15.93633v7.38982c5.37636-5.69767,11.67378-8.54651,18.89227-8.54651,6.14747,0,10.96692,1.77785,14.45836,5.35495,3.49144,3.5771,5.22643,8.16094,5.22643,13.77291v38.91976h-15.93633v-34.25026c0-3.34148-.77111-5.86904-2.33475-7.56118-1.56364-1.71359-3.85557-2.57037-6.87577-2.57037-2.65607,0-5.20499.81396-7.62544,2.44186s-4.36962,3.6628-5.80478,6.08321v35.85675h-15.93633v-56.89093Z" class="cls-5"/><path id="path1227" d="m600.00556,518.98184c-4.71235-2.57037-8.37515-6.10465-11.03118-10.58138-2.65607-4.47673-3.98408-9.5318-3.98408-15.14381s1.32802-10.66705,3.98408-15.14381c2.65607-4.47673,6.34027-8.01101,11.03118-10.58138,4.71235-2.57037,10.02445-3.87698,15.93633-3.87698,5.99755,0,11.3525,1.2852,16.04344,3.87698,4.71235,2.57037,8.37515,6.10465,11.03118,10.58138,2.65607,4.47673,3.98408,9.5318,3.98408,15.14381s-1.32802,10.66705-3.98408,15.14381c-2.65607,4.47673-6.34027,8.01101-11.03118,10.58138-4.71235,2.57037-10.04589,3.87698-16.04344,3.87698-5.93329,0-11.24539-1.2852-15.93633-3.87698Zm26.79615-14.15848c2.84884-2.84884,4.26255-6.70441,4.26255-11.54527,0-4.8623-1.41371-8.69643-4.26255-11.54527s-6.46879-4.26255-10.85985-4.26255-8.01101,1.41371-10.817,4.26255-4.2197,6.70441-4.2197,11.54527c0,4.8623,1.39227,8.69643,4.2197,11.54527,2.80599,2.84884,6.40453,4.26255,10.817,4.26255,4.39106,0,8.01101-1.41371,10.85985-4.26255Z" class="cls-5"/><path id="path1229" d="m657.26066,440.34976h15.93633v81.37381h-15.93633v-81.37381Z" class="cls-5"/><path id="path1231" d="m692.26062,517.28965c-3.5771-3.72706-5.35495-8.69643-5.35495-14.90819v-37.54886h15.93633v34.25026c0,3.25582.83537,5.76193,2.50611,7.51834,1.67074,1.75644,4.02693,2.61322,7.0471,2.61322,2.74173,0,5.22643-.77111,7.51834-2.33475,2.27049-1.56364,4.134-3.61995,5.56916-6.21173v-35.85675h15.93633v56.91241h-15.93633v-7.0471c-5.07648,5.46205-11.2668,8.20378-18.54955,8.20378-6.21173-.02141-11.11688-1.88495-14.67257-5.59057l.00003-.00007Z" class="cls-5"/><path id="path1233" d="m801.60868,464.81116h15.93633v56.91237h-15.93633v-56.91237Z" class="cls-5"/><path id="path1235" d="m801.60868,440.34976h15.93633v15.93633h-15.93633v-15.93633Z" class="cls-5"/><path id="path1237" d="m842.82034,518.98184c-4.71238-2.57037-8.37515-6.10465-11.03118-10.58138-2.65603-4.47673-3.98405-9.5318-3.98405-15.14381s1.32802-10.66705,3.98405-15.14381c2.65603-4.47673,6.34024-8.01101,11.03118-10.58138,4.71238-2.57037,10.02445-3.87698,15.93633-3.87698,5.99752,0,11.35246,1.2852,16.0434,3.87698,4.71238,2.57037,8.37515,6.10465,11.03118,10.58138,2.65603,4.47673,3.98405,9.5318,3.98405,15.14381s-1.32802,10.66705-3.98405,15.14381c-2.65603,4.47673-6.34024,8.01101-11.03118,10.58138-4.71238,2.57037-10.04589,3.87698-16.0434,3.87698-5.91188,0-11.22395-1.2852-15.93633-3.87698Zm26.79618-14.15848c2.8488-2.84884,4.26252-6.70441,4.26252-11.54527,0-4.8623-1.41371-8.69643-4.26252-11.54527-2.8488-2.84884-6.46875-4.26255-10.85985-4.26255s-8.01098,1.41371-10.81697,4.26255-4.2197,6.70441-4.2197,11.54527c0,4.8623,1.39227,8.69643,4.2197,11.54527,2.80599,2.84884,6.4045,4.26255,10.81697,4.26255,4.39103,0,8.01098-1.41371,10.85985-4.26255Z" class="cls-5"/><path id="path1239" d="m900.07547,464.81116h15.93633v7.38982c5.37639-5.69767,11.67381-8.54651,18.89227-8.54651,6.14747,0,10.96692,1.77785,14.45836,5.35495,3.49144,3.5771,5.22643,8.16094,5.22643,13.77291v38.91976h-15.93633v-34.25026c0-3.34148-.77108-5.86904-2.33475-7.56118-1.56367-1.71359-3.85554-2.57037-6.87574-2.57037-2.65603,0-5.20499.81396-7.62544,2.44186s-4.36966,3.6628-5.80475,6.08321v35.85675h-15.93633l-.00007-56.89093Z" class="cls-5"/></g><g id="g1247"><g id="g1245"><path id="path1243" d="m425.13437,499.4684c-1.07099,3.1273-2.65605,5.5049-4.79803,7.11139-2.20624,1.67074-5.16218,2.50611-8.86779,2.50611-4.17685,0-7.60403-1.39227-10.30292-4.15545-1.94921-2.01347-3.19154-4.62668-3.72704-7.81821-.19277-1.1995-.29988-2.46326-.29988-3.83413,0-2.3776.3213-4.49817.92105-6.38309.66401-2.07772,1.71359-3.83413,3.12729-5.29069,2.6989-2.76314,6.12606-4.15545,10.30292-4.15545,3.72704,0,6.74724.89963,9.10341,2.67747,2.22766,1.69215,3.72704,3.96267,4.541,6.76866h14.54404c0-1.02814-.29988-2.05631-.29988-2.05631-1.28518-6.53304-4.39106-11.67378-9.27477-15.4865-4.88371-3.79131-11.09545-5.69767-18.61381-5.69767-5.54772,0-10.55996,1.24235-15.07954,3.74846s-8.09668,6.01896-10.75273,10.51713c-1.62791,2.76314-2.74173,5.74049-3.38433,8.93205-.40698,2.03487-.59975,4.15545-.59975,6.38309,0,1.30661.08568,2.59181.21419,3.83413.47124,4.17685,1.71359,7.98957,3.76989,11.4596,2.65605,4.51958,6.23317,8.03242,10.75273,10.51713,4.51958,2.50611,9.5318,3.74846,15.07954,3.74846,7.28273,0,13.32311-1.8421,18.09972-5.52631,4.77662-3.68421,8.03242-8.93205,9.78884-15.76497,0,0,.17136-.96388.34272-2.09913h-14.58687l-.00002.06422Z" class="cls-5"/></g></g><g id="g1251"><path id="path1249" d="m346.03107,509.98553c-4.09119,0-7.4541-1.15665-10.0673-3.47-2.61322-2.31334-4.1126-5.44061-4.49815-9.38188h42.79674v-4.2197c0-5.99755-1.1995-11.18113-3.5771-15.59361-2.39902-4.39106-5.74051-7.7754-10.0673-10.13155-4.32679-2.35619-9.29618-3.53425-14.90817-3.53425-5.16218,0-9.98162,1.24235-14.45836,3.74846-4.47673,2.50611-8.05385,5.99755-10.75273,10.47428-2.6989,4.47673-4.04834,9.59606-4.04834,15.35799,0,5.84759,1.24235,11.00977,3.74846,15.4865,2.50611,4.47673,5.97612,7.94676,10.41002,10.41002s9.46754,3.70562,15.07954,3.70562c6.83292,0,12.57342-1.56364,17.24294-4.73379,4.56241-3.06301,7.88248-7.66829,10.02446-13.7301h-15.50793c-2.42043,3.74846-6.21174,5.61198-11.41675,5.61198l-.00003.00003Zm-9.27477-31.29432c2.54896-2.05631,5.48346-3.06301,8.82496-3.06301,3.72704,0,6.83292,1.02814,9.33903,3.06301,2.50611,2.05631,3.94123,4.7766,4.32679,8.20378h-27.33164c.68543-3.42718,2.29192-6.14747,4.84088-8.20378h-.00002Z" class="cls-5"/></g></g></g></g></g></g></svg>