<svg xmlns="http://www.w3.org/2000/svg" role="img" viewBox="-6.70 -6.70 348.66 120.91"><title>Technical University of Munich (member) logo</title><defs><pattern width="69" height="69" x="-131.18" y="643.155" overflow="visible" patternUnits="userSpaceOnUse" viewBox="2.125 -70.896 69 69"><path fill="none" d="M71.125-1.896h-69v-69h69z"/><path fill="#F6BB60" d="M71.125-1.896h-69v-69h69z"/><path d="M61.772-71.653c.018.072.007.127-.026.19-.053.101-.112.062-.165.128-.05.062-.099.276-.079.362-.169.058-.01.227-.015.35-.002.05-.041.105-.045.161-.01.119.017.266.068.37.097.198.268.413.435.544.19.148.365.572.608.631.177.042.384-.104.543-.143.18-.043.397.01.571-.053.222-.079.127-.337.288-.45.104-.074.287-.01.406-.051.2-.069.339-.263.376-.46.016-.082.01-.145.039-.221.039-.103.111-.16.09-.293-.01-.062-.052-.12-.064-.187-.022-.114.002-.224 0-.337-.003-.2.017-.379-.078-.55-.38-.688-1.236-.929-1.975-.789-.18.034-.287.126-.442.207-.17.088-.139.166-.318.224-.081.026-.216.124-.215.224.001.115.005.051.012.169-.021.011-.021-.005-.03-.025m-7.651-.001c.018.072.007.127-.026.19-.053.101-.112.062-.165.128-.05.062-.099.276-.079.362-.169.058-.01.227-.015.35-.002.05-.041.105-.045.161-.01.119.017.266.068.37.097.198.268.413.435.544.19.148.365.572.608.631.177.042.384-.104.543-.143.18-.043.397.01.571-.053.222-.079.127-.337.288-.45.104-.074.287-.01.406-.051.2-.069.339-.263.376-.46.016-.082.01-.145.039-.221.039-.103.111-.16.09-.293-.01-.062-.052-.12-.064-.187-.022-.114.002-.224 0-.337-.003-.2.017-.379-.078-.55-.38-.688-1.236-.929-1.975-.789-.18.034-.287.126-.442.207-.17.088-.139.166-.318.224-.081.026-.216.124-.215.224.001.115.005.051.012.169-.021.011-.021-.005-.03-.025m-7.65-.001c.018.072.007.127-.026.19-.053.101-.112.062-.165.128-.05.062-.099.276-.079.362-.169.058-.01.227-.015.35-.002.05-.041.105-.045.161-.01.119.017.266.068.37.097.198.268.413.435.544.19.148.365.572.608.631.177.042.384-.104.543-.143.18-.043.397.01.571-.053.222-.079.127-.337.288-.45.104-.074.287-.01.406-.051.2-.069.339-.263.376-.46.016-.082.01-.145.039-.221.039-.103.111-.16.09-.293-.01-.062-.052-.12-.064-.187-.022-.114.002-.224 0-.337-.003-.2.017-.379-.078-.55-.38-.688-1.236-.929-1.975-.789-.18.034-.287.126-.442.207-.17.088-.139.166-.318.224-.081.026-.216.124-.215.224.001.115.005.051.012.169-.021.011-.021-.005-.03-.025m-7.651-.001c.018.072.007.127-.026.19-.053.101-.112.062-.165.128-.05.062-.099.276-.079.362-.169.058-.01.227-.015.35-.002.05-.041.105-.045.161-.01.119.017.266.068.37.097.198.268.413.435.544.19.148.365.572.608.631.177.042.384-.104.543-.143.18-.043.397.01.571-.053.222-.079.127-.337.288-.45.104-.074.287-.01.406-.051.2-.069.339-.263.376-.46.016-.082.01-.145.039-.221.039-.103.111-.16.09-.293-.01-.062-.052-.12-.064-.187-.022-.114.002-.224 0-.337-.003-.2.017-.379-.078-.55-.38-.688-1.236-.929-1.975-.789-.18.034-.287.126-.442.207-.17.088-.139.166-.318.224-.081.026-.216.124-.215.224.001.115.005.051.012.169-.021.011-.021-.005-.03-.025m-7.651-.001c.018.072.007.127-.026.19-.053.101-.112.062-.165.128-.05.062-.099.276-.079.362-.169.058-.01.227-.015.35-.002.05-.041.105-.045.161-.01.119.017.266.068.37.097.198.268.413.435.544.19.148.365.572.608.631.177.042.384-.104.543-.143.18-.043.397.01.571-.053.222-.079.127-.337.288-.45.104-.074.287-.01.406-.051.2-.069.339-.263.376-.46.016-.082.01-.145.039-.221.039-.103.111-.16.09-.293-.01-.062-.052-.12-.064-.187-.022-.114.002-.224 0-.337-.003-.2.017-.379-.078-.55-.38-.688-1.236-.929-1.975-.789-.18.034-.287.126-.442.207-.17.088-.139.166-.318.224-.081.026-.216.124-.215.224.001.115.005.051.012.169-.021.011-.021-.005-.03-.025m-7.65-.001c.018.072.007.127-.026.19-.053.101-.112.062-.165.128-.05.062-.099.276-.079.362-.169.058-.01.227-.015.35-.002.05-.041.105-.045.161-.01.119.017.266.068.37.097.198.268.413.435.544.19.148.365.572.608.631.177.042.384-.104.543-.143.18-.043.397.01.571-.053.222-.079.127-.337.288-.45.104-.074.287-.01.406-.051.2-.069.339-.263.376-.46.016-.082.01-.145.039-.221.039-.103.111-.16.09-.293-.01-.062-.052-.12-.064-.187-.022-.114.002-.224 0-.337-.003-.2.017-.379-.078-.55-.38-.688-1.236-.929-1.975-.789-.18.034-.287.126-.442.207-.17.088-.139.166-.318.224-.081.026-.216.124-.215.224.001.115.005.051.012.169-.021.011-.021-.005-.03-.025m-7.651-.001c.018.072.007.127-.026.19-.053.101-.112.062-.165.128-.05.062-.099.276-.079.362-.169.058-.01.227-.015.35-.002.05-.041.105-.045.161-.01.119.017.266.068.37.097.198.268.413.435.544.19.148.365.572.608.631.177.042.384-.104.543-.143.18-.043.397.01.571-.053.222-.079.127-.337.288-.45.104-.074.287-.01.406-.051.2-.069.339-.263.376-.46.016-.082.01-.145.039-.221.039-.103.111-.16.09-.293-.01-.062-.052-.12-.064-.187-.022-.114.002-.224 0-.337-.003-.2.017-.379-.078-.55-.38-.688-1.236-.929-1.975-.789-.18.034-.287.126-.442.207-.17.088-.139.166-.318.224-.081.026-.216.124-.215.224.001.115.005.051.012.169-.021.011-.021-.005-.03-.025m-7.651-.001c.018.072.007.127-.026.19-.053.101-.112.062-.165.128-.05.062-.099.276-.079.362-.169.058-.01.227-.015.35-.002.05-.041.105-.045.161-.01.119.017.266.068.37.097.198.268.413.435.544.19.148.365.572.608.631.177.042.384-.104.543-.143.18-.043.397.01.571-.053.222-.079.127-.337.288-.45.104-.074.287-.01.406-.051.2-.069.339-.263.376-.46.016-.082.01-.145.039-.221.039-.103.111-.16.09-.293-.01-.062-.052-.12-.064-.187-.022-.114.002-.224 0-.337-.003-.2.017-.379-.078-.55-.38-.688-1.236-.929-1.975-.789-.18.034-.287.126-.442.207-.17.088-.139.166-.318.224-.081.026-.216.124-.215.224.001.115.005.051.012.169-.021.011-.021-.005-.03-.025m-7.65-.001c.018.072.008.127-.026.19-.052.101-.113.063-.165.128-.051.062-.099.276-.079.362-.169.058-.01.227-.015.35-.002.05-.041.105-.045.161-.01.119.017.266.068.37.097.198.268.413.435.544.19.148.365.572.608.631.177.042.384-.104.543-.143.18-.043.397.01.571-.053.222-.079.127-.337.288-.45.104-.074.287-.01.406-.051.2-.07.339-.263.376-.46.016-.082.01-.145.039-.221.038-.103.111-.16.09-.293-.01-.062-.051-.12-.064-.187-.021-.114.002-.224 0-.337-.003-.2.017-.379-.078-.55-.38-.688-1.236-.929-1.975-.789-.18.034-.287.126-.442.207-.17.088-.139.166-.318.224-.081.026-.215.124-.215.224.002.115.005.051.012.169-.021.011-.021-.005-.03-.025" fill="#FFF"/><path fill="#FFF" d="M69.439-71.653c.018.072.008.127-.026.19-.052.101-.113.062-.165.128-.051.062-.099.276-.079.362-.169.058-.01.227-.015.35-.002.05-.041.105-.045.161-.01.119.017.266.068.37.097.198.268.413.435.544.19.148.365.572.608.631.177.042.384-.104.543-.143.18-.043.397.01.571-.053.222-.079.127-.337.288-.45.104-.074.287-.01.406-.051.2-.07.339-.263.376-.46.016-.082.01-.145.039-.221.038-.103.111-.16.09-.293-.01-.062-.051-.12-.064-.187-.021-.114.002-.224 0-.337-.003-.2.017-.379-.078-.55-.38-.688-1.236-.929-1.975-.789-.18.034-.287.126-.442.207-.17.088-.139.166-.318.224-.081.026-.215.124-.215.224.002.115.005.051.012.169-.021.011-.021-.005-.03-.025"/><path fill="#FFF" d="M.495-71.653c.018.072.008.127-.026.19-.052.101-.113.062-.165.128-.051.062-.099.276-.079.362-.169.058-.01.227-.015.35-.002.05-.041.105-.045.161-.01.119.017.266.068.37.097.198.268.413.435.544.19.148.365.572.608.631.177.042.384-.104.543-.143.18-.043.397.01.571-.053.222-.079.127-.337.288-.45.104-.074.287-.01.406-.051.2-.07.339-.263.376-.46.016-.082.01-.145.039-.221.038-.103.111-.16.09-.293-.01-.062-.051-.12-.064-.187-.021-.114.002-.224 0-.337-.003-.2.017-.379-.078-.55-.38-.688-1.236-.929-1.975-.789-.18.034-.287.126-.442.207-.17.088-.139.166-.318.224-.081.026-.215.124-.215.224.003.116.006.052.013.17-.021.011-.021-.005-.03-.025"/><g fill="#FFF"><path d="M69.439-64.001c.018.072.007.127-.026.19-.053.101-.112.062-.165.128-.05.062-.099.276-.079.362-.169.058-.01.227-.015.35-.002.05-.041.105-.045.161-.01.119.017.266.068.37.097.198.268.413.435.544.19.148.365.572.608.631.177.042.384-.104.543-.143.18-.043.397.01.571-.053.222-.079.127-.337.288-.45.104-.074.287-.01.406-.051.2-.069.339-.263.376-.46.016-.082.01-.145.039-.221.039-.103.111-.16.09-.293-.01-.062-.052-.12-.064-.187-.022-.114.002-.224 0-.337-.003-.2.017-.379-.078-.55-.38-.688-1.236-.929-1.975-.789-.18.034-.287.126-.442.207-.17.088-.139.166-.318.224-.081.026-.216.124-.215.224.001.115.005.051.012.169-.021.011-.021-.005-.03-.025m-7.645-.001c.018.072.007.127-.026.19-.053.101-.112.062-.165.128-.05.062-.099.276-.079.362-.169.058-.009.227-.015.35-.002.05-.041.105-.045.161-.01.119.017.266.068.37.097.198.268.413.435.544.19.148.365.572.608.631.177.042.384-.104.543-.143.18-.043.397.01.571-.053.222-.079.127-.337.288-.45.104-.074.287-.01.406-.051.2-.069.339-.263.376-.46.016-.082.01-.145.039-.221.039-.103.111-.16.09-.293-.01-.062-.052-.12-.064-.187-.022-.114.002-.224 0-.337-.003-.2.017-.379-.078-.55-.38-.688-1.236-.929-1.975-.789-.18.034-.287.126-.442.207-.17.088-.139.166-.318.224-.081.026-.216.124-.215.224.001.115.005.051.012.169-.021.011-.021-.005-.03-.025m-7.644-.001c.018.072.007.127-.026.19-.053.101-.112.062-.165.128-.05.062-.099.276-.079.362-.169.058-.009.227-.015.35-.002.05-.041.105-.045.161-.01.119.017.266.068.37.097.198.268.413.435.544.19.148.365.572.608.631.177.042.384-.104.543-.143.18-.043.397.01.571-.053.222-.079.127-.337.288-.45.104-.074.287-.01.406-.051.2-.069.339-.263.376-.46.016-.082.01-.145.039-.221.039-.103.111-.16.09-.293-.01-.062-.052-.12-.064-.187-.022-.114.002-.224 0-.337-.003-.2.017-.379-.078-.55-.38-.688-1.236-.929-1.975-.789-.18.034-.287.126-.442.207-.17.088-.139.166-.318.224-.081.026-.216.124-.215.224.001.115.005.051.012.169-.021.011-.021-.005-.03-.025m-7.644-.001c.018.072.007.127-.026.19-.053.101-.112.062-.165.128-.05.062-.099.276-.079.362-.169.058-.009.227-.015.35-.002.05-.041.105-.045.161-.01.119.017.266.068.37.097.198.268.413.435.544.19.148.365.572.608.631.177.042.384-.104.543-.143.18-.043.397.01.571-.053.222-.079.127-.337.288-.45.104-.074.287-.01.406-.051.2-.069.339-.263.376-.46.016-.082.01-.145.039-.221.039-.103.111-.16.09-.293-.01-.062-.052-.12-.064-.187-.022-.114.002-.224 0-.337-.003-.2.017-.379-.078-.55-.38-.688-1.236-.929-1.975-.789-.18.034-.287.126-.442.207-.17.088-.139.166-.318.224-.081.026-.216.124-.215.224.001.115.005.051.012.169-.021.011-.021-.005-.03-.025m-7.645-.001c.018.072.007.127-.026.19-.053.101-.112.062-.165.128-.05.062-.099.276-.079.362-.169.058-.009.227-.015.35-.002.05-.041.105-.045.161-.01.119.017.266.068.37.097.198.268.413.435.544.19.148.365.572.608.631.177.042.384-.104.543-.143.18-.043.397.01.571-.053.222-.079.127-.337.288-.45.104-.074.287-.01.406-.051.2-.069.339-.263.376-.46.016-.082.01-.145.039-.221.039-.103.111-.16.09-.293-.01-.062-.052-.12-.064-.187-.022-.114.002-.224 0-.337-.003-.2.017-.379-.078-.55-.38-.688-1.236-.929-1.975-.789-.18.034-.287.126-.442.207-.17.088-.139.166-.318.224-.081.026-.216.124-.215.224.001.115.005.051.012.169-.021.011-.021-.005-.03-.025m-7.644-.001c.018.072.007.127-.026.19-.053.101-.112.062-.165.128-.05.062-.099.276-.079.362-.169.058-.009.227-.015.35-.002.05-.041.105-.045.161-.01.119.017.266.068.37.097.198.268.413.435.544.19.148.365.572.608.631.177.042.384-.104.543-.143.18-.043.397.01.571-.053.222-.079.127-.337.288-.45.104-.074.287-.01.406-.051.2-.069.339-.263.376-.46.016-.082.01-.145.039-.221.039-.103.111-.16.09-.293-.01-.062-.052-.12-.064-.187-.022-.114.002-.224 0-.337-.003-.2.017-.379-.078-.55-.38-.688-1.236-.929-1.975-.789-.18.034-.287.126-.442.207-.17.088-.139.166-.318.224-.081.026-.216.124-.215.224.001.115.005.051.012.169-.021.011-.021-.005-.03-.025m-7.644-.001c.018.072.007.127-.026.19-.053.101-.112.062-.165.128-.05.062-.099.276-.079.362-.169.058-.009.227-.015.35-.002.05-.041.105-.045.161-.01.119.017.266.068.37.097.198.268.413.435.544.19.148.365.572.608.631.177.042.384-.104.543-.143.18-.043.397.01.571-.053.222-.079.127-.337.288-.45.104-.074.287-.01.406-.051.2-.069.339-.263.376-.46.016-.082.01-.145.039-.221.039-.103.111-.16.09-.293-.01-.062-.052-.12-.064-.187-.022-.114.002-.224 0-.337-.003-.2.017-.379-.078-.55-.38-.688-1.236-.929-1.975-.789-.18.034-.287.126-.442.207-.17.088-.139.166-.318.224-.081.026-.216.124-.215.224.001.115.005.051.012.169-.021.011-.021-.005-.03-.025m-7.645-.001c.018.072.007.127-.026.19-.053.101-.112.062-.165.128-.05.062-.099.276-.079.362-.169.058-.009.227-.015.35-.002.05-.041.105-.045.161-.01.119.017.266.068.37.097.198.268.413.435.544.19.148.365.572.608.631.177.042.384-.104.543-.143.18-.043.397.01.571-.053.222-.079.127-.337.288-.45.104-.074.287-.01.406-.051.2-.069.339-.263.376-.46.016-.082.01-.145.039-.221.039-.103.111-.16.09-.293-.01-.062-.052-.12-.064-.187-.022-.114.002-.224 0-.337-.003-.2.017-.379-.078-.55-.38-.688-1.236-.929-1.975-.789-.18.034-.287.126-.442.207-.17.088-.139.166-.318.224-.081.026-.216.124-.215.224.001.115.005.051.012.169-.021.011-.021-.005-.03-.025m-7.644-.001c.018.072.007.127-.026.19-.053.101-.112.062-.165.128-.05.062-.099.276-.079.362-.169.058-.009.227-.015.35-.002.05-.041.105-.045.161-.01.119.017.266.068.37.097.198.268.413.435.544.19.148.365.572.608.631.177.042.384-.104.543-.143.18-.043.397.01.571-.053.222-.079.127-.337.288-.45.104-.074.287-.01.406-.051.2-.069.339-.263.376-.46.016-.082.01-.145.039-.221.039-.103.111-.16.09-.293-.01-.062-.052-.12-.064-.187-.022-.114.002-.224 0-.337-.003-.2.017-.379-.078-.55-.38-.688-1.236-.929-1.975-.789-.18.034-.287.126-.442.207-.17.088-.139.166-.318.224-.081.026-.216.124-.215.224.001.115.005.051.012.169-.021.011-.021-.005-.03-.025m-7.645-.001c.018.072.007.127-.026.19-.053.101-.112.062-.165.128-.05.062-.099.276-.079.362-.169.058-.01.227-.015.35-.002.05-.041.105-.045.161-.01.119.017.266.068.37.097.198.268.413.435.544.19.148.365.572.608.631.177.042.384-.104.543-.143.181-.042.398.011.572-.052.222-.079.127-.337.288-.45.104-.074.287-.01.406-.051.2-.069.339-.263.376-.46.016-.082.01-.145.039-.221.039-.103.111-.16.09-.293-.01-.062-.052-.12-.064-.187-.022-.114.002-.224 0-.337-.003-.2.017-.379-.078-.55-.38-.688-1.236-.929-1.975-.789-.18.034-.287.126-.442.207-.17.088-.139.166-.318.224-.081.026-.216.124-.215.224.001.115.005.051.012.169-.021.011-.021-.005-.03-.025"/><path d="M69.439-56.348c.018.072.007.127-.026.19-.053.101-.112.062-.165.128-.05.062-.099.276-.079.362-.169.058-.01.227-.015.35-.002.05-.041.105-.045.161-.01.119.017.266.068.37.097.198.268.413.435.544.19.148.365.572.608.631.177.042.384-.104.543-.143.18-.043.397.01.571-.053.222-.079.127-.337.288-.45.104-.074.287-.01.406-.051.2-.069.339-.263.376-.46.016-.082.01-.145.039-.221.039-.103.111-.16.09-.293-.01-.062-.052-.12-.064-.187-.022-.114.002-.224 0-.337-.003-.2.017-.379-.078-.55-.38-.688-1.236-.929-1.975-.789-.18.034-.287.126-.442.207-.17.088-.139.166-.318.224-.081.026-.216.124-.215.224.001.115.005.051.012.169-.021.011-.021-.005-.03-.025m-7.645-.001c.018.072.007.127-.026.19-.053.101-.112.062-.165.128-.05.062-.099.276-.079.362-.169.058-.009.227-.015.35-.002.05-.041.105-.045.161-.01.119.017.266.068.37.097.198.268.413.435.544.19.148.365.572.608.631.177.042.384-.104.543-.143.18-.043.397.01.571-.053.222-.079.127-.337.288-.45.104-.074.287-.01.406-.051.2-.069.339-.263.376-.46.016-.082.01-.145.039-.221.039-.103.111-.16.09-.293-.01-.062-.052-.12-.064-.187-.022-.114.002-.224 0-.337-.003-.2.017-.379-.078-.55-.38-.688-1.236-.929-1.975-.789-.18.034-.287.126-.442.207-.17.088-.139.166-.318.224-.081.026-.216.124-.215.224.001.115.005.051.012.169-.021.011-.021-.005-.03-.025m-7.644-.001c.018.072.007.127-.026.19-.053.101-.112.062-.165.128-.05.062-.099.276-.079.362-.169.058-.009.227-.015.35-.002.05-.041.105-.045.161-.01.119.017.266.068.37.097.198.268.413.435.544.19.148.365.572.608.631.177.042.384-.104.543-.143.18-.043.397.01.571-.053.222-.079.127-.337.288-.45.104-.074.287-.01.406-.051.2-.069.339-.263.376-.46.016-.082.01-.145.039-.221.039-.103.111-.16.09-.293-.01-.062-.052-.12-.064-.187-.022-.114.002-.224 0-.337-.003-.2.017-.379-.078-.55-.38-.688-1.236-.929-1.975-.789-.18.034-.287.126-.442.207-.17.088-.139.166-.318.224-.081.026-.216.124-.215.224.001.115.005.051.012.169-.021.011-.021-.005-.03-.025m-7.644-.001c.018.072.007.127-.026.19-.053.101-.112.062-.165.128-.05.062-.099.276-.079.362-.169.058-.009.227-.015.35-.002.05-.041.105-.045.161-.01.119.017.266.068.37.097.198.268.413.435.544.19.148.365.572.608.631.177.042.384-.104.543-.143.18-.043.397.01.571-.053.222-.079.127-.337.288-.45.104-.074.287-.01.406-.051.2-.069.339-.263.376-.46.016-.082.01-.145.039-.221.039-.103.111-.16.09-.293-.01-.062-.052-.12-.064-.187-.022-.114.002-.224 0-.337-.003-.2.017-.379-.078-.55-.38-.688-1.236-.929-1.975-.789-.18.034-.287.126-.442.207-.17.088-.139.166-.318.224-.081.026-.216.124-.215.224.001.115.005.051.012.169-.021.011-.021-.005-.03-.025m-7.645-.001c.018.072.007.127-.026.19-.053.101-.112.062-.165.128-.05.062-.099.276-.079.362-.169.058-.009.227-.015.35-.002.05-.041.105-.045.161-.01.119.017.266.068.37.097.198.268.413.435.544.19.148.365.572.608.631.177.042.384-.104.543-.143.18-.043.397.01.571-.053.222-.079.127-.337.288-.45.104-.074.287-.01.406-.051.2-.069.339-.263.376-.46.016-.082.01-.145.039-.221.039-.103.111-.16.09-.293-.01-.062-.052-.12-.064-.187-.022-.114.002-.224 0-.337-.003-.2.017-.379-.078-.55-.38-.688-1.236-.929-1.975-.789-.18.034-.287.126-.442.207-.17.088-.139.166-.318.224-.081.026-.216.124-.215.224.001.115.005.051.012.169-.021.011-.021-.005-.03-.025m-7.644-.001c.018.072.007.127-.026.19-.053.101-.112.062-.165.128-.05.062-.099.276-.079.362-.169.058-.009.227-.015.35-.002.05-.041.105-.045.161-.01.119.017.266.068.37.097.198.268.413.435.544.19.148.365.572.608.631.177.042.384-.104.543-.143.18-.043.397.01.571-.053.222-.079.127-.337.288-.45.104-.074.287-.01.406-.051.2-.069.339-.263.376-.46.016-.082.01-.145.039-.221.039-.103.111-.16.09-.293-.01-.062-.052-.12-.064-.187-.022-.114.002-.224 0-.337-.003-.2.017-.379-.078-.55-.38-.688-1.236-.929-1.975-.789-.18.034-.287.126-.442.207-.17.088-.139.166-.318.224-.081.026-.216.124-.215.224.001.115.005.051.012.169-.021.011-.021-.005-.03-.025m-7.644-.001c.018.072.007.127-.026.19-.053.101-.112.062-.165.128-.05.062-.099.276-.079.362-.169.058-.009.227-.015.35-.002.05-.041.105-.045.161-.01.119.017.266.068.37.097.198.268.413.435.544.19.148.365.572.608.631.177.042.384-.104.543-.143.18-.043.397.01.571-.053.222-.079.127-.337.288-.45.104-.074.287-.01.406-.051.2-.069.339-.263.376-.46.016-.082.01-.145.039-.221.039-.103.111-.16.09-.293-.01-.062-.052-.12-.064-.187-.022-.114.002-.224 0-.337-.003-.2.017-.379-.078-.55-.38-.688-1.236-.929-1.975-.789-.18.034-.287.126-.442.207-.17.088-.139.166-.318.224-.081.026-.216.124-.215.224.001.115.005.051.012.169-.021.011-.021-.005-.03-.025m-7.645-.001c.018.072.007.127-.026.19-.053.101-.112.062-.165.128-.05.062-.099.276-.079.362-.169.058-.009.227-.015.35-.002.05-.041.105-.045.161-.01.119.017.266.068.37.097.198.268.413.435.544.19.148.365.572.608.631.177.042.384-.104.543-.143.18-.043.397.01.571-.053.222-.079.127-.337.288-.45.104-.074.287-.01.406-.051.2-.069.339-.263.376-.46.016-.082.01-.145.039-.221.039-.103.111-.16.09-.293-.01-.062-.052-.12-.064-.187-.022-.114.002-.224 0-.337-.003-.2.017-.379-.078-.55-.38-.688-1.236-.929-1.975-.789-.18.034-.287.126-.442.207-.17.088-.139.166-.318.224-.081.026-.216.124-.215.224.001.115.005.051.012.169-.021.011-.021-.005-.03-.025m-7.644-.001c.018.072.007.127-.026.19-.053.101-.112.062-.165.128-.05.062-.099.276-.079.362-.169.058-.009.227-.015.35-.002.05-.041.105-.045.161-.01.119.017.266.068.37.097.198.268.413.435.544.19.148.365.572.608.631.177.042.384-.104.543-.143.18-.043.397.01.571-.053.222-.079.127-.337.288-.45.104-.074.287-.01.406-.051.2-.069.339-.263.376-.46.016-.082.01-.145.039-.221.039-.103.111-.16.09-.293-.01-.062-.052-.12-.064-.187-.022-.114.002-.224 0-.337-.003-.2.017-.379-.078-.55-.38-.688-1.236-.929-1.975-.789-.18.034-.287.126-.442.207-.17.088-.139.166-.318.224-.081.026-.216.124-.215.224.001.115.005.051.012.169-.021.011-.021-.005-.03-.025m-7.645-.001c.018.072.007.127-.026.19-.053.101-.112.062-.165.128-.05.062-.099.276-.079.362-.169.058-.01.227-.015.35-.002.05-.041.105-.045.161-.01.119.017.266.068.37.097.198.268.413.435.544.19.148.365.572.608.631.177.042.384-.104.543-.143.18-.043.397.01.571-.053.222-.079.127-.337.288-.45.104-.074.287-.01.406-.051.2-.069.339-.263.376-.46.016-.082.01-.145.039-.221.039-.103.111-.16.09-.293-.01-.062-.052-.12-.064-.187-.022-.114.002-.224 0-.337-.003-.2.017-.379-.078-.55-.38-.688-1.236-.929-1.975-.789-.18.034-.287.126-.442.207-.17.088-.139.166-.318.224-.081.026-.216.124-.215.224.003.117.006.053.013.171-.021.011-.021-.005-.03-.025"/><path d="M69.439-48.695c.018.072.007.127-.026.19-.053.101-.112.062-.165.128-.05.062-.099.276-.079.362-.169.058-.01.227-.015.35-.002.05-.041.105-.045.161-.01.119.017.266.068.37.097.198.268.413.435.544.19.148.365.572.608.631.177.042.384-.104.543-.143.18-.043.397.01.571-.053.222-.079.127-.337.288-.45.104-.074.287-.01.406-.051.2-.069.339-.263.376-.46.016-.082.01-.145.039-.221.039-.103.111-.16.09-.293-.01-.062-.052-.12-.064-.187-.022-.114.002-.224 0-.337-.003-.2.017-.379-.078-.55-.38-.688-1.236-.929-1.975-.789-.18.034-.287.126-.442.207-.17.088-.139.166-.318.224-.081.026-.216.124-.215.224.001.115.005.051.012.169-.021.011-.021-.005-.03-.025m-7.645-.001c.018.072.007.127-.026.19-.053.101-.112.062-.165.128-.05.062-.099.276-.079.362-.169.058-.009.227-.015.35-.002.05-.041.105-.045.161-.01.119.017.266.068.37.097.198.268.413.435.544.19.148.365.572.608.631.177.042.384-.104.543-.143.18-.043.397.01.571-.053.222-.079.127-.337.288-.45.104-.074.287-.01.406-.051.2-.069.339-.263.376-.46.016-.082.01-.145.039-.221.039-.103.111-.16.09-.293-.01-.062-.052-.12-.064-.187-.022-.114.002-.224 0-.337-.003-.2.017-.379-.078-.55-.38-.688-1.236-.929-1.975-.789-.18.034-.287.126-.442.207-.17.088-.139.166-.318.224-.081.026-.216.124-.215.224.001.115.005.051.012.169-.021.011-.021-.005-.03-.025m-7.644-.001c.018.072.007.127-.026.19-.053.101-.112.062-.165.128-.05.062-.099.276-.079.362-.169.058-.009.227-.015.35-.002.05-.041.105-.045.161-.01.119.017.266.068.37.097.198.268.413.435.544.19.148.365.572.608.631.177.042.384-.104.543-.143.18-.043.397.01.571-.053.222-.079.127-.337.288-.45.104-.074.287-.01.406-.051.2-.069.339-.263.376-.46.016-.082.01-.145.039-.221.039-.103.111-.16.09-.293-.01-.062-.052-.12-.064-.187-.022-.114.002-.224 0-.337-.003-.2.017-.379-.078-.55-.38-.688-1.236-.929-1.975-.789-.18.034-.287.126-.442.207-.17.088-.139.166-.318.224-.081.026-.216.124-.215.224.001.115.005.051.012.169-.021.011-.021-.005-.03-.025m-7.644-.001c.018.072.007.127-.026.19-.053.101-.112.062-.165.128-.05.062-.099.276-.079.362-.169.058-.009.227-.015.35-.002.05-.041.105-.045.161-.01.119.017.266.068.37.097.198.268.413.435.544.19.148.365.572.608.631.177.042.384-.104.543-.143.18-.043.397.01.571-.053.222-.079.127-.337.288-.45.104-.074.287-.01.406-.051.2-.069.339-.263.376-.46.016-.082.01-.145.039-.221.039-.103.111-.16.09-.293-.01-.062-.052-.12-.064-.187-.022-.114.002-.224 0-.337-.003-.2.017-.379-.078-.55-.38-.688-1.236-.929-1.975-.789-.18.034-.287.126-.442.207-.17.088-.139.166-.318.224-.081.026-.216.124-.215.224.001.115.005.051.012.169-.021.011-.021-.005-.03-.025m-7.645-.001c.018.072.007.127-.026.19-.053.101-.112.062-.165.128-.05.062-.099.276-.079.362-.169.058-.009.227-.015.35-.002.05-.041.105-.045.161-.01.119.017.266.068.37.097.198.268.413.435.544.19.148.365.572.608.631.177.042.384-.104.543-.143.18-.043.397.01.571-.053.222-.079.127-.337.288-.45.104-.074.287-.01.406-.051.2-.069.339-.263.376-.46.016-.082.01-.145.039-.221.039-.103.111-.16.09-.293-.01-.062-.052-.12-.064-.187-.022-.114.002-.224 0-.337-.003-.2.017-.379-.078-.55-.38-.688-1.236-.929-1.975-.789-.18.034-.287.126-.442.207-.17.088-.139.166-.318.224-.081.026-.216.124-.215.224.001.115.005.051.012.169-.021.011-.021-.005-.03-.025m-7.644-.001c.018.072.007.127-.026.19-.053.101-.112.062-.165.128-.05.062-.099.276-.079.362-.169.058-.009.227-.015.35-.002.05-.041.105-.045.161-.01.119.017.266.068.37.097.198.268.413.435.544.19.148.365.572.608.631.177.042.384-.104.543-.143.18-.043.397.01.571-.053.222-.079.127-.337.288-.45.104-.074.287-.01.406-.051.2-.069.339-.263.376-.46.016-.082.01-.145.039-.221.039-.103.111-.16.09-.293-.01-.062-.052-.12-.064-.187-.022-.114.002-.224 0-.337-.003-.2.017-.379-.078-.55-.38-.688-1.236-.929-1.975-.789-.18.034-.287.126-.442.207-.17.088-.139.166-.318.224-.081.026-.216.124-.215.224.001.115.005.051.012.169-.021.011-.021-.005-.03-.025m-7.644-.001c.018.072.007.127-.026.19-.053.101-.112.062-.165.128-.05.062-.099.276-.079.362-.169.058-.009.227-.015.35-.002.05-.041.105-.045.161-.01.119.017.266.068.37.097.198.268.413.435.544.19.148.365.572.608.631.177.042.384-.104.543-.143.18-.043.397.01.571-.053.222-.079.127-.337.288-.45.104-.074.287-.01.406-.051.2-.069.339-.263.376-.46.016-.082.01-.145.039-.221.039-.103.111-.16.09-.293-.01-.062-.052-.12-.064-.187-.022-.114.002-.224 0-.337-.003-.2.017-.379-.078-.55-.38-.688-1.236-.929-1.975-.789-.18.034-.287.126-.442.207-.17.088-.139.166-.318.224-.081.026-.216.124-.215.224.001.115.005.051.012.169-.021.011-.021-.005-.03-.025m-7.645-.001c.018.072.007.127-.026.19-.053.101-.112.062-.165.128-.05.062-.099.276-.079.362-.169.058-.009.227-.015.35-.002.05-.041.105-.045.161-.01.119.017.266.068.37.097.198.268.413.435.544.19.148.365.572.608.631.177.042.384-.104.543-.143.18-.043.397.01.571-.053.222-.079.127-.337.288-.45.104-.074.287-.01.406-.051.2-.069.339-.263.376-.46.016-.082.01-.145.039-.221.039-.103.111-.16.09-.293-.01-.062-.052-.12-.064-.187-.022-.114.002-.224 0-.337-.003-.2.017-.379-.078-.55-.38-.688-1.236-.929-1.975-.789-.18.034-.287.126-.442.207-.17.088-.139.166-.318.224-.081.026-.216.124-.215.224.001.115.005.051.012.169-.021.011-.021-.005-.03-.025m-7.644-.001c.018.072.007.127-.026.19-.053.101-.112.062-.165.128-.05.062-.099.276-.079.362-.169.058-.009.227-.015.35-.002.05-.041.105-.045.161-.01.119.017.266.068.37.097.198.268.413.435.544.19.148.365.572.608.631.177.042.384-.104.543-.143.18-.043.397.01.571-.053.222-.079.127-.337.288-.45.104-.074.287-.01.406-.051.2-.069.339-.263.376-.46.016-.082.01-.145.039-.221.039-.103.111-.16.09-.293-.01-.062-.052-.12-.064-.187-.022-.114.002-.224 0-.337-.003-.2.017-.379-.078-.55-.38-.688-1.236-.929-1.975-.789-.18.034-.287.126-.442.207-.17.088-.139.166-.318.224-.081.026-.216.124-.215.224.001.115.005.051.012.169-.021.011-.021-.005-.03-.025m-7.645-.001c.018.072.007.127-.026.19-.053.101-.112.062-.165.128-.05.062-.099.276-.079.362-.169.058-.01.227-.015.35-.002.05-.041.105-.045.161-.01.119.017.266.068.37.097.198.268.413.435.544.19.148.365.572.608.631.177.042.384-.104.543-.143.18-.043.397.01.571-.053.222-.079.127-.337.288-.45.104-.074.287-.01.406-.051.2-.069.339-.263.376-.46.016-.082.01-.145.039-.221.039-.103.111-.16.09-.293-.01-.062-.052-.12-.064-.187-.022-.114.002-.224 0-.337-.003-.2.017-.379-.078-.55-.38-.688-1.236-.929-1.975-.789-.18.034-.287.126-.442.207-.17.088-.139.166-.318.224-.081.026-.216.124-.215.224.001.115.005.051.012.169-.021.011-.021-.005-.03-.025"/><path d="M69.439-41.042c.018.072.007.127-.026.19-.053.101-.112.062-.165.128-.05.062-.099.276-.079.362-.169.058-.01.227-.015.35-.002.05-.041.105-.045.161-.01.119.017.266.068.37.097.198.268.413.435.544.19.148.365.572.608.631.177.042.384-.104.543-.143.18-.043.397.01.571-.053.222-.079.127-.337.288-.45.104-.074.287-.01.406-.051.2-.069.339-.263.376-.46.016-.082.01-.145.039-.221.039-.103.111-.16.09-.293-.01-.062-.052-.12-.064-.187-.022-.114.002-.224 0-.337-.003-.2.017-.379-.078-.55-.38-.688-1.236-.929-1.975-.789-.18.034-.287.126-.442.207-.17.088-.139.166-.318.224-.081.026-.216.124-.215.224.001.115.005.051.012.169-.021.011-.021-.005-.03-.025m-7.645-.001c.018.072.007.127-.026.19-.053.101-.112.062-.165.128-.05.062-.099.276-.079.362-.169.058-.009.227-.015.35-.002.05-.041.105-.045.161-.01.119.017.266.068.37.097.198.268.413.435.544.19.148.365.572.608.631.177.042.384-.104.543-.143.18-.043.397.01.571-.053.222-.079.127-.337.288-.45.104-.074.287-.01.406-.051.2-.069.339-.263.376-.46.016-.082.01-.145.039-.221.039-.103.111-.16.09-.293-.01-.062-.052-.12-.064-.187-.022-.114.002-.224 0-.337-.003-.2.017-.379-.078-.55-.38-.688-1.236-.929-1.975-.789-.18.034-.287.126-.442.207-.17.088-.139.166-.318.224-.081.026-.216.124-.215.224.001.115.005.051.012.169-.021.011-.021-.005-.03-.025m-7.644-.001c.018.072.007.127-.026.19-.053.101-.112.062-.165.128-.05.062-.099.276-.079.362-.169.058-.009.227-.015.35-.002.05-.041.105-.045.161-.01.119.017.266.068.37.097.198.268.413.435.544.19.148.365.572.608.631.177.042.384-.104.543-.143.18-.043.397.01.571-.053.222-.079.127-.337.288-.45.104-.074.287-.01.406-.051.2-.069.339-.263.376-.46.016-.082.01-.145.039-.221.039-.103.111-.16.09-.293-.01-.062-.052-.12-.064-.187-.022-.114.002-.224 0-.337-.003-.2.017-.379-.078-.55-.38-.688-1.236-.929-1.975-.789-.18.034-.287.126-.442.207-.17.088-.139.166-.318.224-.081.026-.216.124-.215.224.001.115.005.051.012.169-.021.011-.021-.005-.03-.025m-7.644-.001c.018.072.007.127-.026.19-.053.101-.112.062-.165.128-.05.062-.099.276-.079.362-.169.058-.009.227-.015.35-.002.05-.041.105-.045.161-.01.119.017.266.068.37.097.198.268.413.435.544.19.148.365.572.608.631.177.042.384-.104.543-.143.18-.043.397.01.571-.053.222-.079.127-.337.288-.45.104-.074.287-.01.406-.051.2-.069.339-.263.376-.46.016-.082.01-.145.039-.221.039-.103.111-.16.09-.293-.01-.062-.052-.12-.064-.187-.022-.114.002-.224 0-.337-.003-.2.017-.379-.078-.55-.38-.688-1.236-.929-1.975-.789-.18.034-.287.126-.442.207-.17.088-.139.166-.318.224-.081.026-.216.124-.215.224.001.115.005.051.012.169-.021.011-.021-.005-.03-.025m-7.645-.001c.018.072.007.127-.026.19-.053.101-.112.062-.165.128-.05.062-.099.276-.079.362-.169.058-.009.227-.015.35-.002.05-.041.105-.045.161-.01.119.017.266.068.37.097.198.268.413.435.544.19.148.365.572.608.631.177.042.384-.104.543-.143.18-.043.397.01.571-.053.222-.079.127-.337.288-.45.104-.074.287-.01.406-.051.2-.069.339-.263.376-.46.016-.082.01-.145.039-.221.039-.103.111-.16.09-.293-.01-.062-.052-.12-.064-.187-.022-.114.002-.224 0-.337-.003-.2.017-.379-.078-.55-.38-.688-1.236-.929-1.975-.789-.18.034-.287.126-.442.207-.17.088-.139.166-.318.224-.081.026-.216.124-.215.224.001.115.005.051.012.169-.021.011-.021-.005-.03-.025m-7.644-.001c.018.072.007.127-.026.19-.053.101-.112.062-.165.128-.05.062-.099.276-.079.362-.169.058-.009.227-.015.35-.002.05-.041.105-.045.161-.01.119.017.266.068.37.097.198.268.413.435.544.19.148.365.572.608.631.177.042.384-.104.543-.143.18-.043.397.01.571-.053.222-.079.127-.337.288-.45.104-.074.287-.01.406-.051.2-.069.339-.263.376-.46.016-.082.01-.145.039-.221.039-.103.111-.16.09-.293-.01-.062-.052-.12-.064-.187-.022-.114.002-.224 0-.337-.003-.2.017-.379-.078-.55-.38-.688-1.236-.929-1.975-.789-.18.034-.287.126-.442.207-.17.088-.139.166-.318.224-.081.026-.216.124-.215.224.001.115.005.051.012.169-.021.011-.021-.005-.03-.025m-7.644-.001c.018.072.007.127-.026.19-.053.101-.112.062-.165.128-.05.062-.099.276-.079.362-.169.058-.009.227-.015.35-.002.05-.041.105-.045.161-.01.119.017.266.068.37.097.198.268.413.435.544.19.148.365.572.608.631.177.042.384-.104.543-.143.18-.043.397.01.571-.053.222-.079.127-.337.288-.45.104-.074.287-.01.406-.051.2-.069.339-.263.376-.46.016-.082.01-.145.039-.221.039-.103.111-.16.09-.293-.01-.062-.052-.12-.064-.187-.022-.114.002-.224 0-.337-.003-.2.017-.379-.078-.55-.38-.688-1.236-.929-1.975-.789-.18.034-.287.126-.442.207-.17.088-.139.166-.318.224-.081.026-.216.124-.215.224.001.115.005.051.012.169-.021.011-.021-.005-.03-.025m-7.645-.001c.018.072.007.127-.026.19-.053.101-.112.062-.165.128-.05.062-.099.276-.079.362-.169.058-.009.227-.015.35-.002.05-.041.105-.045.161-.01.119.017.266.068.37.097.198.268.413.435.544.19.148.365.572.608.631.177.042.384-.104.543-.143.18-.043.397.01.571-.053.222-.079.127-.337.288-.45.104-.074.287-.01.406-.051.2-.069.339-.263.376-.46.016-.082.01-.145.039-.221.039-.103.111-.16.09-.293-.01-.062-.052-.12-.064-.187-.022-.114.002-.224 0-.337-.003-.2.017-.379-.078-.55-.38-.688-1.236-.929-1.975-.789-.18.034-.287.126-.442.207-.17.088-.139.166-.318.224-.081.026-.216.124-.215.224.001.115.005.051.012.169-.021.011-.021-.005-.03-.025m-7.644-.001c.018.072.007.127-.026.19-.053.101-.112.062-.165.128-.05.062-.099.276-.079.362-.169.058-.009.227-.015.35-.002.05-.041.105-.045.161-.01.119.017.266.068.37.097.198.268.413.435.544.19.148.365.572.608.631.177.042.384-.104.543-.143.18-.043.397.01.571-.053.222-.079.127-.337.288-.45.104-.074.287-.01.406-.051.2-.069.339-.263.376-.46.016-.082.01-.145.039-.221.039-.103.111-.16.09-.293-.01-.062-.052-.12-.064-.187-.022-.114.002-.224 0-.337-.003-.2.017-.379-.078-.55-.38-.688-1.236-.929-1.975-.789-.18.034-.287.126-.442.207-.17.088-.139.166-.318.224-.081.026-.216.124-.215.224.001.115.005.051.012.169-.02.012-.021-.004-.03-.024m-7.645-.002c.018.072.007.127-.026.19-.053.101-.112.062-.165.128-.05.062-.099.276-.079.362-.169.058-.01.227-.015.35-.002.05-.041.105-.045.161-.01.119.017.266.068.37.097.198.268.413.435.544.19.148.365.572.608.631.177.042.384-.104.543-.143.18-.043.397.01.571-.053.222-.079.127-.337.288-.45.104-.074.287-.01.406-.051.2-.069.339-.263.376-.46.016-.082.01-.145.039-.221.039-.103.111-.16.09-.293-.01-.062-.052-.12-.064-.187-.022-.114.002-.224 0-.337-.003-.2.017-.379-.078-.55-.38-.688-1.236-.929-1.975-.789-.18.034-.287.126-.442.207-.17.088-.139.166-.318.224-.081.026-.216.124-.215.224.001.115.005.051.012.169-.021.011-.021-.005-.03-.025"/><path d="M69.439-33.39c.018.072.007.127-.026.19-.053.101-.112.062-.165.128-.05.062-.099.276-.079.362-.169.058-.01.227-.015.35-.002.05-.041.105-.045.161-.01.119.017.266.068.37.097.198.268.413.435.544.19.148.365.572.608.631.177.042.384-.104.543-.143.18-.043.397.01.571-.053.222-.079.127-.337.288-.45.104-.074.287-.01.406-.051.2-.069.339-.263.376-.46.016-.082.01-.145.039-.221.039-.103.111-.16.09-.293-.01-.062-.052-.12-.064-.187-.022-.114.002-.224 0-.337-.003-.2.017-.379-.078-.55-.38-.688-1.236-.929-1.975-.789-.18.034-.287.126-.442.207-.17.088-.139.166-.318.224-.081.026-.216.124-.215.224.001.115.005.051.012.169-.021.011-.021-.005-.03-.025m-7.645-.001c.018.072.007.127-.026.19-.053.101-.112.062-.165.128-.05.062-.099.276-.079.362-.169.058-.009.227-.015.35-.002.05-.041.105-.045.161-.01.119.017.266.068.37.097.198.268.413.435.544.19.148.365.572.608.631.177.042.384-.104.543-.143.18-.043.397.01.571-.053.222-.079.127-.337.288-.45.104-.074.287-.01.406-.051.2-.069.339-.263.376-.46.016-.082.01-.145.039-.221.039-.103.111-.16.09-.293-.01-.062-.052-.12-.064-.187-.022-.114.002-.224 0-.337-.003-.2.017-.379-.078-.55-.38-.688-1.236-.929-1.975-.789-.18.034-.287.126-.442.207-.17.088-.139.166-.318.224-.081.026-.216.124-.215.224.001.115.005.051.012.169-.021.011-.021-.005-.03-.025m-7.644-.001c.018.072.007.127-.026.19-.053.101-.112.062-.165.128-.05.062-.099.276-.079.362-.169.058-.009.227-.015.35-.002.05-.041.105-.045.161-.01.119.017.266.068.37.097.198.268.413.435.544.19.148.365.572.608.631.177.042.384-.104.543-.143.18-.043.397.01.571-.053.222-.079.127-.337.288-.45.104-.074.287-.01.406-.051.2-.069.339-.263.376-.46.016-.082.01-.145.039-.221.039-.103.111-.16.09-.293-.01-.062-.052-.12-.064-.187-.022-.114.002-.224 0-.337-.003-.2.017-.379-.078-.55-.38-.688-1.236-.929-1.975-.789-.18.034-.287.126-.442.207-.17.088-.139.166-.318.224-.081.026-.216.124-.215.224.001.115.005.051.012.169-.021.011-.021-.005-.03-.025m-7.644-.001c.018.072.007.127-.026.19-.053.101-.112.062-.165.128-.05.062-.099.276-.079.362-.169.058-.009.227-.015.35-.002.05-.041.105-.045.161-.01.119.017.266.068.37.097.198.268.413.435.544.19.148.365.572.608.631.177.042.384-.104.543-.143.18-.043.397.01.571-.053.222-.079.127-.337.288-.45.104-.074.287-.01.406-.051.2-.069.339-.263.376-.46.016-.082.01-.145.039-.221.039-.103.111-.16.09-.293-.01-.062-.052-.12-.064-.187-.022-.114.002-.224 0-.337-.003-.2.017-.379-.078-.55-.38-.688-1.236-.929-1.975-.789-.18.034-.287.126-.442.207-.17.088-.139.166-.318.224-.081.026-.216.124-.215.224.001.115.005.051.012.169-.021.011-.021-.005-.03-.025m-7.645-.001c.018.072.007.127-.026.19-.053.101-.112.062-.165.128-.05.062-.099.276-.079.362-.169.058-.009.227-.015.35-.002.05-.041.105-.045.161-.01.119.017.266.068.37.097.198.268.413.435.544.19.148.365.572.608.631.177.042.384-.104.543-.143.18-.043.397.01.571-.053.222-.079.127-.337.288-.45.104-.074.287-.01.406-.051.2-.069.339-.263.376-.46.016-.082.01-.145.039-.221.039-.103.111-.16.09-.293-.01-.062-.052-.12-.064-.187-.022-.114.002-.224 0-.337-.003-.2.017-.379-.078-.55-.38-.688-1.236-.929-1.975-.789-.18.034-.287.126-.442.207-.17.088-.139.166-.318.224-.081.026-.216.124-.215.224.001.115.005.051.012.169-.021.011-.021-.005-.03-.025m-7.644-.001c.018.072.007.127-.026.19-.053.101-.112.062-.165.128-.05.062-.099.276-.079.362-.169.058-.009.227-.015.35-.002.05-.041.105-.045.161-.01.119.017.266.068.37.097.198.268.413.435.544.19.148.365.572.608.631.177.042.384-.104.543-.143.18-.043.397.01.571-.053.222-.079.127-.337.288-.45.104-.074.287-.01.406-.051.2-.069.339-.263.376-.46.016-.082.01-.145.039-.221.039-.103.111-.16.09-.293-.01-.062-.052-.12-.064-.187-.022-.114.002-.224 0-.337-.003-.2.017-.379-.078-.55-.38-.688-1.236-.929-1.975-.789-.18.034-.287.126-.442.207-.17.088-.139.166-.318.224-.081.026-.216.124-.215.224.001.115.005.051.012.169-.021.011-.021-.005-.03-.025m-7.644-.001c.018.072.007.127-.026.19-.053.101-.112.062-.165.128-.05.062-.099.276-.079.362-.169.058-.009.227-.015.35-.002.05-.041.105-.045.161-.01.119.017.266.068.37.097.198.268.413.435.544.19.148.365.572.608.631.177.042.384-.104.543-.143.18-.043.397.01.571-.053.222-.079.127-.337.288-.45.104-.074.287-.01.406-.051.2-.069.339-.263.376-.46.016-.082.01-.145.039-.221.039-.103.111-.16.09-.293-.01-.062-.052-.12-.064-.187-.022-.114.002-.224 0-.337-.003-.2.017-.379-.078-.55-.38-.688-1.236-.929-1.975-.789-.18.034-.287.126-.442.207-.17.088-.139.166-.318.224-.081.026-.216.124-.215.224.001.115.005.051.012.169-.021.011-.021-.005-.03-.025m-7.645-.001c.018.072.007.127-.026.19-.053.101-.112.062-.165.128-.05.062-.099.276-.079.362-.169.058-.009.227-.015.35-.002.05-.041.105-.045.161-.01.119.017.266.068.37.097.198.268.413.435.544.19.148.365.572.608.631.177.042.384-.104.543-.143.18-.043.397.01.571-.053.222-.079.127-.337.288-.45.104-.074.287-.01.406-.051.2-.069.339-.263.376-.46.016-.082.01-.145.039-.221.039-.103.111-.16.09-.293-.01-.062-.052-.12-.064-.187-.022-.114.002-.224 0-.337-.003-.2.017-.379-.078-.55-.38-.688-1.236-.929-1.975-.789-.18.034-.287.126-.442.207-.17.088-.139.166-.318.224-.081.026-.216.124-.215.224.001.115.005.051.012.169-.021.011-.021-.005-.03-.025m-7.644-.001c.018.072.007.127-.026.19-.053.101-.112.062-.165.128-.05.062-.099.276-.079.362-.169.058-.009.227-.015.35-.002.05-.041.105-.045.161-.01.119.017.266.068.37.097.198.268.413.435.544.19.148.365.572.608.631.177.042.384-.104.543-.143.18-.043.397.01.571-.053.222-.079.127-.337.288-.45.104-.074.287-.01.406-.051.2-.069.339-.263.376-.46.016-.082.01-.145.039-.221.039-.103.111-.16.09-.293-.01-.062-.052-.12-.064-.187-.022-.114.002-.224 0-.337-.003-.2.017-.379-.078-.55-.38-.688-1.236-.929-1.975-.789-.18.034-.287.126-.442.207-.17.088-.139.166-.318.224-.081.026-.216.124-.215.224.001.115.005.051.012.169-.021.011-.021-.005-.03-.025M.495-33.39c.018.072.007.127-.026.19-.053.101-.112.062-.165.128-.05.062-.099.276-.079.362-.169.058-.01.227-.015.35-.002.05-.041.105-.045.161-.01.119.017.266.068.37.097.198.268.413.435.544.19.148.365.572.608.631.177.042.384-.104.543-.143.18-.043.397.01.571-.053.222-.079.127-.337.288-.45.104-.074.287-.01.406-.051.2-.069.339-.263.376-.46.016-.082.01-.145.039-.221.039-.103.111-.16.09-.293-.01-.062-.052-.12-.064-.187-.022-.114.002-.224 0-.337-.003-.2.017-.379-.078-.55-.38-.688-1.236-.929-1.975-.789-.18.034-.287.126-.442.207-.17.088-.139.166-.318.224-.081.026-.216.124-.215.224.003.117.006.053.013.171-.021.011-.021-.005-.03-.025"/><path d="M69.439-25.736c.018.072.007.127-.026.19-.053.101-.112.062-.165.128-.05.062-.099.276-.079.362-.169.058-.01.227-.015.35-.002.05-.041.105-.045.161-.01.119.017.266.068.37.097.198.268.413.435.544.19.148.365.572.608.631.177.042.384-.104.543-.143.18-.043.397.01.571-.053.222-.079.127-.337.288-.45.104-.074.287-.01.406-.051.2-.069.339-.263.376-.46.016-.082.01-.145.039-.221.039-.103.111-.16.09-.293-.01-.062-.052-.12-.064-.187-.022-.114.002-.224 0-.337-.003-.2.017-.379-.078-.55-.38-.688-1.236-.929-1.975-.789-.18.034-.287.126-.442.207-.17.088-.139.166-.318.224-.081.026-.216.124-.215.224.001.115.005.051.012.169-.021.011-.021-.005-.03-.025m-7.645-.001c.018.072.007.127-.026.19-.053.101-.112.062-.165.128-.05.062-.099.276-.079.362-.169.058-.009.227-.015.35-.002.05-.041.105-.045.161-.01.119.017.266.068.37.097.198.268.413.435.544.19.148.365.572.608.631.177.042.384-.104.543-.143.18-.043.397.01.571-.053.222-.079.127-.337.288-.45.104-.074.287-.01.406-.051.2-.069.339-.263.376-.46.016-.082.01-.145.039-.221.039-.103.111-.16.09-.293-.01-.062-.052-.12-.064-.187-.022-.114.002-.224 0-.337-.003-.2.017-.379-.078-.55-.38-.688-1.236-.929-1.975-.789-.18.034-.287.126-.442.207-.17.088-.139.166-.318.224-.081.026-.216.124-.215.224.001.115.005.051.012.169-.021.011-.021-.005-.03-.025m-7.644-.001c.018.072.007.127-.026.19-.053.101-.112.062-.165.128-.05.062-.099.276-.079.362-.169.058-.009.227-.015.35-.002.05-.041.105-.045.161-.01.119.017.266.068.37.097.198.268.413.435.544.19.148.365.572.608.631.177.042.384-.104.543-.143.18-.043.397.01.571-.053.222-.079.127-.337.288-.45.104-.074.287-.01.406-.051.2-.069.339-.263.376-.46.016-.082.01-.145.039-.221.039-.103.111-.16.09-.293-.01-.062-.052-.12-.064-.187-.022-.114.002-.224 0-.337-.003-.2.017-.379-.078-.55-.38-.688-1.236-.929-1.975-.789-.18.034-.287.126-.442.207-.17.088-.139.166-.318.224-.081.026-.216.124-.215.224.001.115.005.051.012.169-.021.011-.021-.005-.03-.025m-7.644-.001c.018.072.007.127-.026.19-.053.101-.112.062-.165.128-.05.062-.099.276-.079.362-.169.058-.009.227-.015.35-.002.05-.041.105-.045.161-.01.119.017.266.068.37.097.198.268.413.435.544.19.148.365.572.608.631.177.042.384-.104.543-.143.18-.043.397.01.571-.053.222-.079.127-.337.288-.45.104-.074.287-.01.406-.051.2-.069.339-.263.376-.46.016-.082.01-.145.039-.221.039-.103.111-.16.09-.293-.01-.062-.052-.12-.064-.187-.022-.114.002-.224 0-.337-.003-.2.017-.379-.078-.55-.38-.688-1.236-.929-1.975-.789-.18.034-.287.126-.442.207-.17.088-.139.166-.318.224-.081.026-.216.124-.215.224.001.115.005.051.012.169-.021.011-.021-.005-.03-.025m-7.645-.001c.018.072.007.127-.026.19-.053.101-.112.062-.165.128-.05.062-.099.276-.079.362-.169.058-.009.227-.015.35-.002.05-.041.105-.045.161-.01.119.017.266.068.37.097.198.268.413.435.544.19.148.365.572.608.631.177.042.384-.104.543-.143.18-.043.397.01.571-.053.222-.079.127-.337.288-.45.104-.074.287-.01.406-.051.2-.069.339-.263.376-.46.016-.082.01-.145.039-.221.039-.103.111-.16.09-.293-.01-.062-.052-.12-.064-.187-.022-.114.002-.224 0-.337-.003-.2.017-.379-.078-.55-.38-.688-1.236-.929-1.975-.789-.18.034-.287.126-.442.207-.17.088-.139.166-.318.224-.081.026-.216.124-.215.224.001.115.005.051.012.169-.021.011-.021-.005-.03-.025m-7.644-.001c.018.072.007.127-.026.19-.053.101-.112.062-.165.128-.05.062-.099.276-.079.362-.169.058-.009.227-.015.35-.002.05-.041.105-.045.161-.01.119.017.266.068.37.097.198.268.413.435.544.19.148.365.572.608.631.177.042.384-.104.543-.143.18-.043.397.01.571-.053.222-.079.127-.337.288-.45.104-.074.287-.01.406-.051.2-.069.339-.263.376-.46.016-.082.01-.145.039-.221.039-.103.111-.16.09-.293-.01-.062-.052-.12-.064-.187-.022-.114.002-.224 0-.337-.003-.2.017-.379-.078-.55-.38-.688-1.236-.929-1.975-.789-.18.034-.287.126-.442.207-.17.088-.139.166-.318.224-.081.026-.216.124-.215.224.001.115.005.051.012.169-.021.011-.021-.005-.03-.025m-7.644-.001c.018.072.007.127-.026.19-.053.101-.112.062-.165.128-.05.062-.099.276-.079.362-.169.058-.009.227-.015.35-.002.05-.041.105-.045.161-.01.119.017.266.068.37.097.198.268.413.435.544.19.148.365.572.608.631.177.042.384-.104.543-.143.18-.043.397.01.571-.053.222-.079.127-.337.288-.45.104-.074.287-.01.406-.051.2-.069.339-.263.376-.46.016-.082.01-.145.039-.221.039-.103.111-.16.09-.293-.01-.062-.052-.12-.064-.187-.022-.114.002-.224 0-.337-.003-.2.017-.379-.078-.55-.38-.688-1.236-.929-1.975-.789-.18.034-.287.126-.442.207-.17.088-.139.166-.318.224-.081.026-.216.124-.215.224.001.115.005.051.012.169-.021.011-.021-.005-.03-.025m-7.645-.001c.018.072.007.127-.026.19-.053.101-.112.062-.165.128-.05.062-.099.276-.079.362-.169.058-.009.227-.015.35-.002.05-.041.105-.045.161-.01.119.017.266.068.37.097.198.268.413.435.544.19.148.365.572.608.631.177.042.384-.104.543-.143.18-.043.397.01.571-.053.222-.079.127-.337.288-.45.104-.074.287-.01.406-.051.2-.069.339-.263.376-.46.016-.082.01-.145.039-.221.039-.103.111-.16.09-.293-.01-.062-.052-.12-.064-.187-.022-.114.002-.224 0-.337-.003-.2.017-.379-.078-.55-.38-.688-1.236-.929-1.975-.789-.18.034-.287.126-.442.207-.17.088-.139.166-.318.224-.081.026-.216.124-.215.224.001.115.005.051.012.169-.021.011-.021-.005-.03-.025m-7.644-.001c.018.072.007.127-.026.19-.053.101-.112.062-.165.128-.05.062-.099.276-.079.362-.169.058-.009.227-.015.35-.002.05-.041.105-.045.161-.01.119.017.266.068.37.097.198.268.413.435.544.19.148.365.572.608.631.177.042.384-.104.543-.143.18-.043.397.01.571-.053.222-.079.127-.337.288-.45.104-.074.287-.01.406-.051.2-.069.339-.263.376-.46.016-.082.01-.145.039-.221.039-.103.111-.16.09-.293-.01-.062-.052-.12-.064-.187-.022-.114.002-.224 0-.337-.003-.2.017-.379-.078-.55-.38-.688-1.236-.929-1.975-.789-.18.034-.287.126-.442.207-.17.088-.139.166-.318.224-.081.026-.216.124-.215.224.001.115.005.051.012.169-.021.011-.021-.005-.03-.025m-7.645-.001c.018.072.007.127-.026.19-.053.101-.112.062-.165.128-.05.062-.099.276-.079.362-.169.058-.01.227-.015.35-.002.05-.041.105-.045.161-.01.119.017.266.068.37.097.198.268.413.435.544.19.148.365.572.608.631.177.042.384-.104.543-.143.18-.043.397.01.571-.053.222-.079.127-.337.288-.45.104-.074.287-.01.406-.051.2-.069.339-.263.376-.46.016-.082.01-.145.039-.221.039-.103.111-.16.09-.293-.01-.062-.052-.12-.064-.187-.022-.114.002-.224 0-.337-.003-.2.017-.379-.078-.55-.38-.688-1.236-.929-1.975-.789-.18.034-.287.126-.442.207-.17.088-.139.166-.318.224-.081.026-.216.124-.215.224.001.115.005.051.012.169-.021.011-.021-.005-.03-.025"/><path d="M69.439-18.084c.018.072.007.127-.026.19-.053.101-.112.062-.165.128-.05.062-.099.276-.079.362-.169.058-.01.227-.015.35-.002.05-.041.105-.045.161-.01.119.017.266.068.37.097.198.268.413.435.544.19.148.365.572.608.631.177.042.384-.104.543-.143.18-.043.397.01.571-.053.222-.079.127-.337.288-.45.104-.074.287-.01.406-.051.2-.069.339-.263.376-.46.016-.082.01-.145.039-.221.039-.103.111-.16.09-.293-.01-.062-.052-.12-.064-.187-.022-.114.002-.224 0-.337-.003-.2.017-.379-.078-.55-.38-.688-1.236-.929-1.975-.789-.18.034-.287.126-.442.207-.17.088-.139.166-.318.224-.081.026-.216.124-.215.224.001.115.005.051.012.169-.021.011-.021-.005-.03-.025m-7.645-.001c.018.072.007.127-.026.19-.053.101-.112.062-.165.128-.05.062-.099.276-.079.362-.169.058-.009.227-.015.35-.002.05-.041.105-.045.161-.01.119.017.266.068.37.097.198.268.413.435.544.19.148.365.572.608.631.177.042.384-.104.543-.143.18-.043.397.01.571-.053.222-.079.127-.337.288-.45.104-.074.287-.01.406-.051.2-.069.339-.263.376-.46.016-.082.01-.145.039-.221.039-.103.111-.16.09-.293-.01-.062-.052-.12-.064-.187-.022-.114.002-.224 0-.337-.003-.2.017-.379-.078-.55-.38-.688-1.236-.929-1.975-.789-.18.034-.287.126-.442.207-.17.088-.139.166-.318.224-.081.026-.216.124-.215.224.001.115.005.051.012.169-.021.011-.021-.005-.03-.025m-7.644-.001c.018.072.007.127-.026.19-.053.101-.112.062-.165.128-.05.062-.099.276-.079.362-.169.058-.009.227-.015.35-.002.05-.041.105-.045.161-.01.119.017.266.068.37.097.198.268.413.435.544.19.148.365.572.608.631.177.042.384-.104.543-.143.18-.043.397.01.571-.053.222-.079.127-.337.288-.45.104-.074.287-.01.406-.051.2-.069.339-.263.376-.46.016-.082.01-.145.039-.221.039-.103.111-.16.09-.293-.01-.062-.052-.12-.064-.187-.022-.114.002-.224 0-.337-.003-.2.017-.379-.078-.55-.38-.688-1.236-.929-1.975-.789-.18.034-.287.126-.442.207-.17.088-.139.166-.318.224-.081.026-.216.124-.215.224.001.115.005.051.012.169-.021.011-.021-.005-.03-.025m-7.644-.001c.018.072.007.127-.026.19-.053.101-.112.062-.165.128-.05.062-.099.276-.079.362-.169.058-.009.227-.015.35-.002.05-.041.105-.045.161-.01.119.017.266.068.37.097.198.268.413.435.544.19.148.365.572.608.631.177.042.384-.104.543-.143.18-.043.397.01.571-.053.222-.079.127-.337.288-.45.104-.074.287-.01.406-.051.2-.069.339-.263.376-.46.016-.082.01-.145.039-.221.039-.103.111-.16.09-.293-.01-.062-.052-.12-.064-.187-.022-.114.002-.224 0-.337-.003-.2.017-.379-.078-.55-.38-.688-1.236-.929-1.975-.789-.18.034-.287.126-.442.207-.17.088-.139.166-.318.224-.081.026-.216.124-.215.224.001.115.005.051.012.169-.021.011-.021-.005-.03-.025m-7.645-.001c.018.072.007.127-.026.19-.053.101-.112.062-.165.128-.05.062-.099.276-.079.362-.169.058-.009.227-.015.35-.002.05-.041.105-.045.161-.01.119.017.266.068.37.097.198.268.413.435.544.19.148.365.572.608.631.177.042.384-.104.543-.143.18-.043.397.01.571-.053.222-.079.127-.337.288-.45.104-.074.287-.01.406-.051.2-.069.339-.263.376-.46.016-.082.01-.145.039-.221.039-.103.111-.16.09-.293-.01-.062-.052-.12-.064-.187-.022-.114.002-.224 0-.337-.003-.2.017-.379-.078-.55-.38-.688-1.236-.929-1.975-.789-.18.034-.287.126-.442.207-.17.088-.139.166-.318.224-.081.026-.216.124-.215.224.001.115.005.051.012.169-.021.011-.021-.005-.03-.025m-7.644-.001c.018.072.007.127-.026.19-.053.101-.112.062-.165.128-.05.062-.099.276-.079.362-.169.058-.009.227-.015.35-.002.05-.041.105-.045.161-.01.119.017.266.068.37.097.198.268.413.435.544.19.148.365.572.608.631.177.042.384-.104.543-.143.18-.043.397.01.571-.053.222-.079.127-.337.288-.45.104-.074.287-.01.406-.051.2-.069.339-.263.376-.46.016-.082.01-.145.039-.221.039-.103.111-.16.09-.293-.01-.062-.052-.12-.064-.187-.022-.114.002-.224 0-.337-.003-.2.017-.379-.078-.55-.38-.688-1.236-.929-1.975-.789-.18.034-.287.126-.442.207-.17.088-.139.166-.318.224-.081.026-.216.124-.215.224.001.115.005.051.012.169-.021.011-.021-.005-.03-.025m-7.644-.001c.018.072.007.127-.026.19-.053.101-.112.062-.165.128-.05.062-.099.276-.079.362-.169.058-.009.227-.015.35-.002.05-.041.105-.045.161-.01.119.017.266.068.37.097.198.268.413.435.544.19.148.365.572.608.631.177.042.384-.104.543-.143.18-.043.397.01.571-.053.222-.079.127-.337.288-.45.104-.074.287-.01.406-.051.2-.069.339-.263.376-.46.016-.082.01-.145.039-.221.039-.103.111-.16.09-.293-.01-.062-.052-.12-.064-.187-.022-.114.002-.224 0-.337-.003-.2.017-.379-.078-.55-.38-.688-1.236-.929-1.975-.789-.18.034-.287.126-.442.207-.17.088-.139.166-.318.224-.081.026-.216.124-.215.224.001.115.005.051.012.169-.021.011-.021-.005-.03-.025m-7.645-.001c.018.072.007.127-.026.19-.053.101-.112.062-.165.128-.05.062-.099.276-.079.362-.169.058-.009.227-.015.35-.002.05-.041.105-.045.161-.01.119.017.266.068.37.097.198.268.413.435.544.19.148.365.572.608.631.177.042.384-.104.543-.143.18-.043.397.01.571-.053.222-.079.127-.337.288-.45.104-.074.287-.01.406-.051.2-.069.339-.263.376-.46.016-.082.01-.145.039-.221.039-.103.111-.16.09-.293-.01-.062-.052-.12-.064-.187-.022-.114.002-.224 0-.337-.003-.2.017-.379-.078-.55-.38-.688-1.236-.929-1.975-.789-.18.034-.287.126-.442.207-.17.088-.139.166-.318.224-.081.026-.216.124-.215.224.001.115.005.051.012.169-.021.011-.021-.005-.03-.025m-7.644-.001c.018.072.007.127-.026.19-.053.101-.112.062-.165.128-.05.062-.099.276-.079.362-.169.058-.009.227-.015.35-.002.05-.041.105-.045.161-.01.119.017.266.068.37.097.198.268.413.435.544.19.148.365.572.608.631.177.042.384-.104.543-.143.18-.043.397.01.571-.053.222-.079.127-.337.288-.45.104-.074.287-.01.406-.051.2-.069.339-.263.376-.46.016-.082.01-.145.039-.221.039-.103.111-.16.09-.293-.01-.062-.052-.12-.064-.187-.022-.114.002-.224 0-.337-.003-.2.017-.379-.078-.55-.38-.688-1.236-.929-1.975-.789-.18.034-.287.126-.442.207-.17.088-.139.166-.318.224-.081.026-.216.124-.215.224.001.115.005.051.012.169-.021.011-.021-.005-.03-.025m-7.645-.001c.018.072.007.127-.026.19-.053.101-.112.062-.165.128-.05.062-.099.276-.079.362-.169.058-.01.227-.015.35-.002.05-.041.105-.045.161-.01.119.017.266.068.37.097.198.268.413.435.544.19.148.365.572.608.631.177.042.384-.104.543-.143.18-.043.397.01.571-.053.222-.079.127-.337.288-.45.104-.074.287-.01.406-.051.2-.069.339-.263.376-.46.016-.082.01-.145.039-.221.039-.103.111-.16.09-.293-.01-.062-.052-.12-.064-.187-.022-.114.002-.224 0-.337-.003-.2.017-.379-.078-.55-.38-.688-1.236-.929-1.975-.789-.18.034-.287.126-.442.207-.17.088-.139.166-.318.224-.081.026-.216.124-.215.224.003.117.006.052.013.17-.021.011-.021-.005-.03-.025"/><path d="M69.439-10.431c.018.072.007.127-.026.19-.053.101-.112.062-.165.128-.05.062-.099.276-.079.362-.169.059-.01.228-.015.351-.002.05-.041.105-.045.161-.01.119.017.266.068.37.097.198.268.413.435.544.19.148.365.572.608.631.177.042.384-.104.543-.143.18-.043.397.01.571-.053.222-.079.127-.337.288-.45.104-.074.287-.01.406-.051.2-.069.339-.263.376-.46.016-.082.01-.145.039-.221.039-.103.111-.16.09-.293-.01-.062-.052-.12-.064-.187-.022-.114.002-.224 0-.337-.003-.2.017-.379-.078-.55-.38-.688-1.236-.929-1.975-.789-.18.034-.287.126-.442.207-.17.088-.139.166-.318.224-.081.026-.216.124-.215.224.001.115.005.051.012.169-.021.011-.021-.005-.03-.025m-7.645-.002c.018.072.007.127-.026.19-.053.101-.112.062-.165.128-.05.062-.099.276-.079.362-.169.058-.009.227-.015.35-.002.05-.041.105-.045.161-.01.119.017.266.068.37.097.198.268.413.435.544.19.148.365.572.608.631.177.042.384-.104.543-.143.18-.043.397.01.571-.053.222-.079.127-.337.288-.45.104-.074.287-.01.406-.051.2-.069.339-.263.376-.46.016-.082.01-.145.039-.221.039-.103.111-.16.09-.293-.01-.062-.052-.12-.064-.187-.022-.114.002-.224 0-.337-.003-.2.017-.379-.078-.55-.38-.688-1.236-.929-1.975-.789-.18.034-.287.126-.442.207-.17.088-.139.166-.318.224-.081.026-.216.124-.215.224.001.115.005.051.012.169-.021.011-.021-.005-.03-.025m-7.644-.001c.018.072.007.127-.026.19-.053.101-.112.062-.165.128-.05.062-.099.276-.079.362-.169.058-.009.227-.015.35-.002.05-.041.105-.045.161-.01.119.017.266.068.37.097.198.268.413.435.544.19.148.365.572.608.631.177.042.384-.104.543-.143.18-.043.397.01.571-.053.222-.079.127-.337.288-.45.104-.074.287-.01.406-.051.2-.069.339-.263.376-.46.016-.082.01-.145.039-.221.039-.103.111-.16.09-.293-.01-.062-.052-.12-.064-.187-.022-.114.002-.224 0-.337-.003-.2.017-.379-.078-.55-.38-.688-1.236-.929-1.975-.789-.18.034-.287.126-.442.207-.17.088-.139.166-.318.224-.081.026-.216.124-.215.224.001.115.005.051.012.169-.021.011-.021-.005-.03-.025m-7.644-.001c.018.072.007.127-.026.19-.053.101-.112.062-.165.128-.05.062-.099.276-.079.362-.169.058-.009.227-.015.35-.002.05-.041.105-.045.161-.01.119.017.266.068.37.097.198.268.413.435.544.19.148.365.572.608.631.177.042.384-.104.543-.143.18-.043.397.01.571-.053.222-.079.127-.337.288-.45.104-.074.287-.01.406-.051.2-.069.339-.263.376-.46.016-.082.01-.145.039-.221.039-.103.111-.16.09-.293-.01-.062-.052-.12-.064-.187-.022-.114.002-.224 0-.337-.003-.2.017-.379-.078-.55-.38-.688-1.236-.929-1.975-.789-.18.034-.287.126-.442.207-.17.088-.139.166-.318.224-.081.026-.216.124-.215.224.001.115.005.051.012.169-.021.011-.021-.005-.03-.025m-7.645-.001c.018.072.007.127-.026.19-.053.101-.112.062-.165.128-.05.062-.099.276-.079.362-.169.058-.009.227-.015.35-.002.05-.041.105-.045.161-.01.119.017.266.068.37.097.198.268.413.435.544.19.148.365.572.608.631.177.042.384-.104.543-.143.18-.043.397.01.571-.053.222-.079.127-.337.288-.45.104-.074.287-.01.406-.051.2-.069.339-.263.376-.46.016-.082.01-.145.039-.221.039-.103.111-.16.09-.293-.01-.062-.052-.12-.064-.187-.022-.114.002-.224 0-.337-.003-.2.017-.379-.078-.55-.38-.688-1.236-.929-1.975-.789-.18.034-.287.126-.442.207-.17.088-.139.166-.318.224-.081.026-.216.124-.215.224.001.115.005.051.012.169-.021.011-.021-.005-.03-.025m-7.644-.001c.018.072.007.127-.026.19-.053.101-.112.062-.165.128-.05.062-.099.276-.079.362-.169.058-.009.227-.015.35-.002.05-.041.105-.045.161-.01.119.017.266.068.37.097.198.268.413.435.544.19.148.365.572.608.631.177.042.384-.104.543-.143.18-.043.397.01.571-.053.222-.079.127-.337.288-.45.104-.074.287-.01.406-.051.2-.069.339-.263.376-.46.016-.082.01-.145.039-.221.039-.103.111-.16.09-.293-.01-.062-.052-.12-.064-.187-.022-.114.002-.224 0-.337-.003-.2.017-.379-.078-.55-.38-.688-1.236-.929-1.975-.789-.18.034-.287.126-.442.207-.17.088-.139.166-.318.224-.081.026-.216.124-.215.224.001.115.005.051.012.169-.021.011-.021-.005-.03-.025m-7.644-.001c.018.072.007.127-.026.19-.053.101-.112.062-.165.128-.05.062-.099.276-.079.362-.169.058-.009.227-.015.35-.002.05-.041.105-.045.161-.01.119.017.266.068.37.097.198.268.413.435.544.19.148.365.572.608.631.177.042.384-.104.543-.143.18-.043.397.01.571-.053.222-.079.127-.337.288-.45.104-.074.287-.01.406-.051.2-.069.339-.263.376-.46.016-.082.01-.145.039-.221.039-.103.111-.16.09-.293-.01-.062-.052-.12-.064-.187-.022-.114.002-.224 0-.337-.003-.2.017-.379-.078-.55-.38-.688-1.236-.929-1.975-.789-.18.034-.287.126-.442.207-.17.088-.139.166-.318.224-.081.026-.216.124-.215.224.001.115.005.051.012.169-.021.011-.021-.005-.03-.025m-7.645-.001c.018.072.007.127-.026.19-.053.101-.112.062-.165.128-.05.062-.099.276-.079.362-.169.058-.009.227-.015.35-.002.05-.041.105-.045.161-.01.119.017.266.068.37.097.198.268.413.435.544.19.148.365.572.608.631.177.042.384-.104.543-.143.18-.043.397.01.571-.053.222-.078.128-.336.289-.449.104-.074.287-.01.406-.051.2-.069.339-.263.376-.46.016-.082.01-.145.039-.221.039-.103.111-.16.09-.293-.01-.062-.052-.12-.064-.187-.022-.114.002-.224 0-.337-.003-.2.017-.379-.078-.55-.38-.688-1.236-.929-1.975-.789-.18.034-.287.126-.442.207-.17.088-.139.166-.318.224-.081.026-.216.124-.215.224.001.115.005.051.012.169-.021.011-.021-.005-.03-.025m-7.645-.002c.018.072.007.127-.026.19-.053.101-.112.062-.165.128-.05.063-.099.277-.079.363-.169.058-.01.227-.015.35-.003.049-.041.105-.045.161-.01.119.017.266.068.37.097.198.268.413.435.544.19.148.365.572.608.631.177.042.384-.105.543-.143.18-.043.397.01.571-.053.222-.079.127-.337.288-.45.104-.074.287-.01.406-.051.2-.069.339-.263.376-.46.016-.082.01-.145.039-.221.039-.103.111-.16.09-.293-.01-.062-.052-.12-.064-.187-.022-.114.002-.224 0-.337-.003-.2.017-.379-.078-.55-.38-.688-1.236-.929-1.975-.789-.18.034-.287.126-.442.207-.17.088-.139.166-.318.224-.081.026-.216.124-.215.224.001.115.005.051.012.169-.021.011-.021-.005-.03-.025m-7.645-.002c.018.072.007.127-.026.19-.053.101-.112.062-.165.128-.05.063-.099.277-.079.363-.169.058-.01.227-.015.35-.002.05-.041.105-.045.161-.01.119.017.266.068.37.097.198.268.413.435.544.19.148.365.572.608.631.178.042.384-.105.543-.143.181-.043.398.01.572-.053.222-.079.127-.337.288-.45.104-.074.287-.01.406-.051.2-.069.339-.263.376-.46.016-.082.01-.144.039-.22.039-.103.111-.16.09-.293-.01-.062-.052-.12-.064-.187-.022-.114.002-.224 0-.337-.003-.2.017-.379-.078-.55-.38-.688-1.236-.929-1.975-.789-.18.034-.287.126-.442.207-.17.088-.139.166-.318.224-.081.026-.216.124-.215.224.001.115.005.051.012.169-.021.011-.021-.005-.03-.025"/></g><path d="M69.439-2.778c.018.072.008.127-.026.19-.052.101-.113.063-.165.128-.051.062-.099.276-.079.362-.169.058-.01.227-.015.35-.002.05-.041.105-.045.161-.01.119.017.266.068.37.097.198.268.413.435.544.19.148.365.572.608.631.177.042.384-.104.543-.143.18-.043.397.01.571-.053.222-.079.127-.337.288-.45.104-.074.287-.01.406-.051.2-.07.339-.263.376-.46.016-.082.01-.145.039-.221.038-.103.111-.16.09-.293-.01-.062-.051-.12-.064-.187-.021-.114.002-.224 0-.337-.003-.2.017-.379-.078-.55-.38-.688-1.236-.929-1.975-.789-.18.034-.287.126-.442.207-.17.088-.139.166-.318.224-.081.026-.215.124-.215.224.002.115.005.051.012.169-.021.011-.021-.005-.03-.025m-7.645-.001c.018.072.007.127-.026.19-.052.101-.112.063-.165.128-.05.062-.099.276-.079.362-.169.058-.01.227-.015.35-.002.05-.041.105-.045.161-.01.119.017.266.068.37.097.198.268.413.435.544.19.148.365.572.608.631.178.042.384-.104.544-.143.18-.043.397.01.571-.053.222-.079.127-.337.288-.45.104-.074.287-.01.406-.051.2-.069.339-.263.376-.46.016-.082.01-.145.039-.221.039-.103.111-.16.09-.293-.01-.062-.052-.12-.064-.187-.022-.114.002-.224 0-.337-.003-.2.017-.379-.078-.55-.38-.688-1.236-.929-1.975-.789-.18.034-.287.126-.442.207-.17.088-.139.166-.318.224-.081.028-.216.125-.215.225.001.115.005.051.012.169-.021.011-.021-.005-.03-.025m-7.645-.002c.018.072.007.127-.026.19-.052.101-.112.063-.165.128-.05.062-.099.276-.079.362-.169.058-.01.227-.015.35-.002.05-.041.105-.045.161-.01.119.017.266.068.37.097.198.268.413.435.544.19.148.365.572.608.631.178.042.384-.104.543-.143.18-.043.397.01.571-.053.222-.079.127-.337.288-.45.104-.074.287-.01.406-.051.2-.069.339-.263.376-.46.016-.082.01-.145.039-.221.039-.103.111-.16.09-.293-.01-.062-.052-.12-.064-.187-.022-.114.002-.224 0-.337-.003-.2.017-.379-.078-.55-.38-.688-1.236-.929-1.975-.789-.18.034-.287.126-.442.207-.17.088-.139.166-.318.224-.08.028-.215.125-.214.225.001.115.005.051.012.169-.021.011-.021-.005-.03-.025m-7.645-.002c.018.072.007.127-.026.19-.053.101-.112.062-.165.128-.05.062-.099.276-.079.362-.169.058-.01.227-.015.35-.002.05-.041.105-.045.161-.01.119.017.266.068.37.097.198.268.413.435.544.19.148.365.572.608.631.177.042.384-.104.543-.143.18-.043.397.01.571-.053.222-.079.127-.337.288-.45.104-.074.287-.01.406-.051.2-.069.339-.263.376-.46.016-.082.01-.145.039-.221.039-.103.111-.16.09-.293-.01-.062-.052-.12-.064-.187-.022-.114.002-.224 0-.337-.003-.2.017-.379-.078-.55-.38-.688-1.236-.929-1.975-.789-.18.034-.287.126-.442.207-.17.088-.139.166-.318.224-.081.028-.216.125-.215.225.001.115.005.051.012.169-.021.011-.021-.005-.03-.025m-7.645-.002c.018.072.007.127-.026.19-.053.101-.112.062-.165.128-.05.062-.099.276-.079.362-.169.058-.01.227-.015.35-.002.05-.041.105-.045.161-.01.119.017.266.068.37.097.198.268.413.435.544.19.148.365.572.608.631.178.042.384-.104.544-.143.18-.043.397.01.571-.053.222-.079.127-.337.288-.45.104-.074.287-.01.406-.051.2-.069.339-.263.376-.46.016-.082.01-.145.039-.221.039-.103.111-.16.09-.293-.01-.062-.052-.12-.064-.187-.022-.114.002-.224 0-.337-.003-.2.017-.379-.078-.55-.38-.688-1.236-.929-1.975-.789-.18.034-.287.126-.442.207-.17.088-.139.166-.318.224-.081.028-.216.125-.215.225.001.115.005.051.012.169-.021.011-.021-.005-.03-.025m-7.645-.002c.018.072.007.127-.026.19-.053.101-.112.062-.165.128-.05.062-.099.276-.079.362-.169.058-.01.227-.015.35-.002.05-.041.105-.045.161-.01.119.017.266.068.37.097.198.268.413.435.544.19.148.365.572.608.631.177.042.384-.104.543-.143.18-.043.397.01.571-.053.222-.079.127-.337.288-.45.104-.074.287-.01.406-.051.2-.069.339-.263.376-.46.016-.082.01-.145.039-.221.039-.103.111-.16.09-.293-.01-.062-.052-.12-.064-.187-.022-.114.002-.224 0-.337-.003-.2.017-.379-.078-.55-.38-.688-1.236-.929-1.975-.789-.18.034-.287.126-.442.207-.17.088-.139.166-.318.224-.081.028-.215.125-.214.225.001.115.005.051.012.169-.021.011-.021-.005-.03-.025m-7.645-.002c.018.072.007.127-.026.19-.053.101-.112.062-.165.128-.05.062-.099.276-.079.362-.169.058-.01.227-.015.35-.002.05-.041.105-.045.161-.01.119.017.266.068.37.097.198.268.413.435.544.19.148.365.572.608.631.177.042.384-.104.543-.143.18-.043.397.01.571-.053.222-.079.127-.337.288-.45.104-.074.287-.01.406-.051.2-.069.339-.263.376-.46.016-.082.01-.145.039-.221.039-.103.111-.16.09-.293-.01-.062-.052-.12-.064-.187-.022-.114.002-.224 0-.337-.003-.2.017-.379-.078-.55-.38-.688-1.236-.929-1.975-.789-.18.034-.287.126-.442.207-.17.088-.139.166-.318.224-.081.026-.216.124-.215.224.001.115.005.051.012.169-.021.011-.021-.005-.03-.025m-7.645-.001c.018.072.007.127-.026.19-.053.101-.112.062-.165.128-.05.062-.099.276-.079.362-.169.058-.01.227-.015.35-.002.05-.041.105-.045.161-.01.119.017.266.068.37.097.198.268.413.435.544.19.148.365.572.608.631.177.042.384-.104.543-.143.18-.043.397.01.571-.053.222-.079.127-.337.288-.45.104-.074.287-.01.406-.051.2-.069.339-.263.376-.46.016-.082.01-.145.039-.221.039-.103.111-.16.09-.293-.01-.062-.052-.12-.064-.187-.022-.114.002-.224 0-.337-.003-.2.017-.379-.078-.55-.38-.688-1.236-.929-1.975-.789-.18.034-.287.126-.442.207-.17.088-.139.166-.318.224-.081.026-.216.124-.215.224.001.115.005.051.012.169-.02.012-.021-.004-.03-.024m-7.644-.002c.018.072.007.127-.026.19-.053.101-.112.063-.165.128-.05.062-.099.276-.079.362-.169.058-.01.227-.015.35-.003.05-.041.105-.045.161-.01.119.017.266.068.37.097.198.268.413.435.544.19.148.365.572.608.631.177.042.384-.104.543-.143.18-.043.397.01.571-.053.222-.079.127-.337.288-.45.104-.074.287-.01.406-.051.2-.069.339-.263.376-.46.016-.082.01-.145.039-.221.039-.103.111-.16.09-.293-.01-.062-.052-.12-.064-.187-.022-.114.002-.224 0-.337-.003-.2.017-.379-.078-.55-.38-.688-1.236-.929-1.975-.789-.179.036-.286.128-.441.209-.17.088-.139.166-.318.224-.082.026-.216.123-.215.223.001.115.005.051.011.169-.02.011-.021-.005-.03-.025M.495-2.778c.018.072.008.127-.026.19-.052.101-.113.063-.165.128-.051.063-.099.276-.079.362-.169.058-.01.227-.015.35-.002.05-.041.105-.045.161-.01.119.017.266.068.37.097.198.268.413.435.544.19.148.365.572.608.631.178.042.384-.104.543-.143.181-.043.398.01.572-.052.222-.079.127-.337.288-.45.104-.074.287-.01.406-.051.2-.07.339-.263.376-.46.016-.082.01-.145.039-.221.038-.103.111-.16.09-.293-.01-.062-.051-.12-.064-.187-.021-.114.002-.224 0-.337-.003-.2.017-.379-.078-.55-.38-.688-1.236-.929-1.975-.789-.18.035-.286.127-.442.208-.17.088-.139.166-.318.224-.081.026-.215.123-.215.223.002.115.005.051.012.169-.021.011-.022-.005-.031-.025" fill="#FFF"/></pattern></defs><path fill="#0065BD" d="M220.576 11.864v54.697h11.862V11.945h13.174v54.616h37.733v-54.04h13.424v54.028h12.44V12.521h13.594v54.028h12.439V0H271.4v54.449h-13.675V.083h-48.438v11.781zM5.54 92.613H0v-1.861h13.291v1.861H7.749v14.755H5.54V92.613zm17.441 10.94c-.537 2.651-2.442 4.093-5.144 4.093-3.838 0-5.652-2.651-5.771-6.328 0-3.608 2.375-6.261 5.655-6.261 4.26 0 5.563 3.979 5.448 6.888h-9.007c-.071 2.094 1.117 3.955 3.747 3.955 1.626 0 2.768-.789 3.119-2.347h1.953zm-1.907-3.351c-.094-1.888-1.514-3.398-3.47-3.398-2.068 0-3.304 1.559-3.442 3.398h6.912zm12.213-1.003c-.303-1.512-1.351-2.396-2.979-2.396-2.864 0-3.747 2.258-3.747 4.7 0 2.213 1 4.396 3.513 4.396 1.91 0 3.05-1.115 3.304-2.93h2.025c-.443 2.93-2.279 4.676-5.306 4.676-3.678 0-5.63-2.558-5.63-6.143 0-3.605 1.862-6.446 5.675-6.446 2.725 0 4.912 1.28 5.192 4.142h-2.047zm3.978-8.448h1.979v6.354h.046c.651-1.442 2.351-2.048 3.793-2.048 3.164 0 4.141 1.815 4.141 4.398v7.912h-1.977v-8.144c0-1.468-.931-2.421-2.444-2.421-2.396 0-3.559 1.605-3.559 3.769v6.796h-1.979V90.751zm12.798 4.586h1.86v1.908h.048c.837-1.492 2.188-2.188 3.91-2.188 3.164 0 4.141 1.815 4.141 4.398v7.912h-1.977v-8.144c0-1.468-.931-2.421-2.444-2.421-2.396 0-3.559 1.605-3.559 3.769v6.796h-1.979v-12.03zm14.949-2.164h-1.979v-2.422h1.979v2.422zm-1.979 2.164h1.979v12.03h-1.979v-12.03zm6.478 8.239c.073 1.768 1.607 2.324 3.235 2.324 1.234 0 2.91-.278 2.91-1.789 0-1.535-1.953-1.793-3.933-2.234-1.956-.443-3.933-1.094-3.933-3.398 0-2.42 2.396-3.421 4.49-3.421 2.652 0 4.771.837 4.935 3.771h-1.979c-.14-1.535-1.488-2.024-2.79-2.024-1.188 0-2.562.327-2.562 1.536 0 1.418 2.094 1.652 3.933 2.094 1.979.443 3.933 1.094 3.933 3.42 0 2.862-2.674 3.793-5.12 3.793-2.699 0-4.979-1.094-5.096-4.07h1.977zm18.113-4.377c-.301-1.512-1.349-2.396-2.979-2.396-2.862 0-3.745 2.258-3.745 4.7 0 2.213 1 4.396 3.514 4.396 1.907 0 3.047-1.115 3.304-2.93h2.025c-.442 2.93-2.282 4.676-5.307 4.676-3.678 0-5.632-2.558-5.632-6.143 0-3.605 1.862-6.446 5.678-6.446 2.722 0 4.91 1.28 5.191 4.142h-2.049zm4.329-8.448h1.977v6.354h.049c.651-1.442 2.348-2.048 3.793-2.048 3.164 0 4.141 1.815 4.141 4.398v7.912h-1.979v-8.144c0-1.468-.932-2.421-2.442-2.421-2.398 0-3.562 1.605-3.562 3.769v6.796h-1.977V90.751zm22.911 12.802c-.537 2.651-2.444 4.093-5.144 4.093-3.839 0-5.655-2.651-5.772-6.328 0-3.608 2.376-6.261 5.655-6.261 4.258 0 5.561 3.979 5.446 6.888h-9.008c-.068 2.094 1.119 3.955 3.747 3.955 1.631 0 2.771-.789 3.121-2.347h1.955zm-1.91-3.351c-.09-1.888-1.512-3.398-3.465-3.398-2.073 0-3.305 1.559-3.447 3.398h6.912zm24.298 1.163c0 4.188-2.399 6.397-6.54 6.397-4.284 0-6.82-1.978-6.82-6.397V90.751h2.213v10.613c0 2.932 1.674 4.535 4.607 4.535 2.793 0 4.329-1.604 4.329-4.535V90.751h2.211v10.614zm2.769-6.028h1.862v1.908h.048c.837-1.492 2.188-2.188 3.91-2.188 3.164 0 4.141 1.815 4.141 4.398v7.912h-1.977v-8.144c0-1.468-.931-2.421-2.444-2.421-2.398 0-3.562 1.605-3.562 3.769v6.796h-1.979v-12.03zm14.952-2.164h-1.979v-2.422h1.979v2.422zm-1.98 2.164h1.979v12.03h-1.979v-12.03zm10.388 12.031h-2.116l-4.469-12.03h2.21l3.376 10.031h.048l3.279-10.031h2.07l-4.398 12.03zm16.063-3.815c-.536 2.651-2.444 4.093-5.144 4.093-3.838 0-5.656-2.651-5.771-6.328 0-3.608 2.373-6.261 5.655-6.261 4.258 0 5.561 3.979 5.443 6.888h-9.005c-.068 2.094 1.117 3.955 3.749 3.955 1.628 0 2.768-.789 3.119-2.347h1.954zm-1.91-3.351c-.089-1.888-1.511-3.398-3.467-3.398-2.071 0-3.302 1.559-3.444 3.398h6.911zm4.39-4.865h1.859v2.535h.046c.956-1.932 2.281-2.884 4.423-2.815v2.095c-3.188 0-4.35 1.815-4.35 4.865v5.351h-1.979V95.337zm9.639 8.239c.071 1.768 1.607 2.324 3.233 2.324 1.236 0 2.91-.278 2.91-1.789 0-1.535-1.954-1.793-3.933-2.234-1.954-.443-3.933-1.094-3.933-3.398 0-2.42 2.396-3.421 4.492-3.421 2.652 0 4.77.837 4.933 3.771h-1.978c-.14-1.535-1.49-2.024-2.793-2.024-1.188 0-2.561.327-2.561 1.536 0 1.418 2.093 1.652 3.933 2.094 1.979.443 3.933 1.094 3.933 3.42 0 2.862-2.677 3.793-5.118 3.793-2.699 0-4.981-1.094-5.096-4.07h1.978zm12.693-10.403h-1.977v-2.422h1.977v2.422zm-1.977 2.164h1.977v12.03h-1.977v-12.03zm8.068 0h2.394v1.746h-2.394v7.47c0 .905.254 1.068 1.488 1.068h.905v1.746h-1.511c-2.048 0-2.862-.419-2.862-2.63v-7.654h-2.048v-1.746h2.048v-3.608h1.979v3.608zm15.574 11.984c-.351.21-.791.325-1.419.325-1.022 0-1.677-.559-1.677-1.861-1.094 1.279-2.559 1.861-4.235 1.861-2.188 0-3.98-.978-3.98-3.373 0-2.723 2.027-3.303 4.075-3.701 2.185-.417 4.049-.279 4.049-1.768 0-1.721-1.421-2.001-2.676-2.001-1.676 0-2.91.512-3.004 2.28h-1.977c.117-2.979 2.419-4.026 5.098-4.026 2.16 0 4.513.489 4.513 3.305v6.191c0 .931 0 1.347.628 1.347.163 0 .349-.021.605-.115v1.536zm-3.212-6.166c-.769.558-2.257.583-3.582.815-1.305.231-2.422.695-2.422 2.162 0 1.305 1.117 1.768 2.328 1.768 2.606 0 3.676-1.627 3.676-2.721v-2.024zm-5.91-9.985h2.094v2.421h-2.094V91.17zm4.373 0h2.096v2.421h-2.096V91.17zm9.549 4.167h2.396v1.746h-2.396v7.47c0 .905.255 1.068 1.49 1.068h.906v1.746h-1.512c-2.048 0-2.861-.419-2.861-2.63v-7.654h-2.05v-1.746h2.05v-3.608h1.977v3.608zm11.823-4.586h3.024l5.235 13.965 5.261-13.965h3.024v16.616h-2.094V93.544h-.046l-5.189 13.823h-1.887l-5.189-13.823h-.046v13.823h-2.094V90.751zm29.154 16.617h-1.864v-1.909h-.046c-.837 1.49-2.188 2.188-3.907 2.188-3.167 0-4.142-1.814-4.142-4.398v-7.91h1.977v8.144c0 1.466.932 2.419 2.442 2.419 2.398 0 3.563-1.604 3.563-3.768v-6.795h1.977v12.029zm-8.216-16.198h2.094v2.421h-2.094V91.17zm4.375 0h2.096v2.421h-2.096V91.17zm6.767 4.167h1.86v1.908h.046c.841-1.492 2.189-2.188 3.909-2.188 3.167 0 4.146 1.815 4.146 4.398v7.912h-1.979v-8.144c0-1.468-.931-2.421-2.446-2.421-2.395 0-3.559 1.605-3.559 3.769v6.796h-1.978v-12.03zm21.044 3.862c-.303-1.512-1.351-2.396-2.979-2.396-2.864 0-3.749 2.258-3.749 4.7 0 2.213 1.002 4.396 3.516 4.396 1.907 0 3.052-1.115 3.304-2.93h2.025c-.443 2.93-2.277 4.676-5.307 4.676-3.676 0-5.632-2.558-5.632-6.143 0-3.605 1.864-6.446 5.68-6.446 2.723 0 4.912 1.28 5.189 4.142h-2.047zm4.33-8.448h1.979v6.354h.044c.653-1.442 2.351-2.048 3.792-2.048 3.165 0 4.145 1.815 4.145 4.398v7.912h-1.978v-8.144c0-1.468-.931-2.421-2.444-2.421-2.398 0-3.559 1.605-3.559 3.769v6.796h-1.979V90.751zm23.096 12.802c-.536 2.651-2.444 4.093-5.146 4.093-3.837 0-5.655-2.651-5.77-6.328 0-3.608 2.373-6.261 5.657-6.261 4.258 0 5.559 3.979 5.443 6.888h-9.007c-.066 2.094 1.116 3.955 3.747 3.955 1.628 0 2.771-.789 3.118-2.347h1.958zm-1.908-3.351c-.094-1.888-1.511-3.398-3.469-3.398-2.071 0-3.303 1.559-3.444 3.398h6.913zm4.233-4.865h1.862v1.908h.048c.837-1.492 2.183-2.188 3.907-2.188 3.167 0 4.142 1.815 4.142 4.398v7.912h-1.979v-8.144c0-1.468-.929-2.421-2.44-2.421-2.398 0-3.561 1.605-3.561 3.769v6.796h-1.979v-12.03z"/></svg>