<svg xmlns="http://www.w3.org/2000/svg" viewBox="0 0 3841.11 921.92"><defs><style>.cls-1{fill:#04514b;}.cls-2{fill:#02504a;}.cls-3{fill:#482c21;}</style></defs><g id="图层_2" data-name="图层 2"><g id="图层_1-2" data-name="图层 1"><path class="cls-1" d="M960.81,691.83a494.54,494.54,0,0,0,33.35-126.66C888.91,563.43,794.71,519.49,725.58,450A358.16,358.16,0,0,0,960.81,691.83Z"/><path class="cls-1" d="M727.46,671.09a358.25,358.25,0,0,0,126.67,181,498.41,498.41,0,0,0,51.58-61.66C837.42,764.5,776.35,723.85,727.46,671.09Z"/><path class="cls-1" d="M578.6,667.67c-85.48,92.27-206.77,150.48-342.31,150.48V707c164,0,300.83-110.4,344.19-260.44-70.51,70.88-167,115.58-274.73,115.65a.25.25,0,0,1-.24-.24V468.4c165,0,298.67-133.72,298.67-298.67H698c0,164.48,132.51,297.71,296.56,299.54C979.23,202,753.87-9,480.7.29,215.22,9.28-2.43,237,0,502.65,1.66,680.17,96.5,835,237.66,921.92,398.82,921.3,533.42,814.15,578.6,667.67Z"/><path class="cls-1" d="M1403.79,676.49h-88V398.1a32.36,32.36,0,0,0-32.37-32.36h-81l9.72-54.3h306.23l-9.69,54.3h-72.55a32.36,32.36,0,0,0-32.36,32.36Z"/><path class="cls-1" d="M1756.12,648.82a162.23,162.23,0,0,1-27.53,15.82,183,183,0,0,1-28,10.11,188.39,188.39,0,0,1-27.4,5.23,232.27,232.27,0,0,1-25.93,1.5q-31.89,0-57.58-8.61t-43.6-24.78a107.31,107.31,0,0,1-27.53-39.88q-9.57-23.67-9.59-54.05,0-34.41,12-61.69t32-46.12a140.64,140.64,0,0,1,46.46-28.89,153.72,153.72,0,0,1,55.34-10.11,132.46,132.46,0,0,1,46,7.74,101,101,0,0,1,36.35,22.79q15.38,15.12,23.8,37.4t8.47,51.45a159.52,159.52,0,0,1-.87,17.46,112.47,112.47,0,0,1-2.09,13.17H1597.89q0,17.46,6.13,29.91a53.83,53.83,0,0,0,17.43,20.56q11.34,8.1,27.29,11.85a157.09,157.09,0,0,0,35.62,3.73q7,0,15.58-.49c5.75-.35,11.71-1,18-1.88s12.58-2.06,19.06-3.48a139.4,139.4,0,0,0,19.17-5.62ZM1690.84,527c0-11.47-1.11-21.33-3.34-29.66s-5.37-15.13-9.34-20.53a37.79,37.79,0,0,0-14.22-12,44.57,44.57,0,0,0-37.51.63,43.46,43.46,0,0,0-15.19,13,62.09,62.09,0,0,0-9.83,20.67,101.37,101.37,0,0,0-3.52,27.92Z"/><path class="cls-1" d="M1828.9,412.34h73l10.45,77.51c2.69-4.81,5.37-9.72,8.12-14.71s5.3-9.58,7.71-13.83,4.56-7.92,6.48-11.09,3.28-5.47,4.11-7a94.39,94.39,0,0,1,10.74-14.32,66.63,66.63,0,0,1,13.21-11.33,62.92,62.92,0,0,1,16.17-7.49,68.43,68.43,0,0,1,19.93-2.76,73.85,73.85,0,0,1,15.83,1.89,53.46,53.46,0,0,1,15.82,6.09l-9.44,77.76a49.54,49.54,0,0,0-6-.87c-2.47-.24-5.12-.45-7.84-.63s-5.4-.27-8-.38-4.85-.1-6.87-.1q-25.14,0-45,9.72c-13.21,6.45-23.87,14.78-32,24.89V676.49H1828.9Z"/><path class="cls-1" d="M2222.85,638.36q-7.47,6.23-16.94,13.7a181.58,181.58,0,0,1-20.7,14.08,127.05,127.05,0,0,1-23.91,11,82.73,82.73,0,0,1-26.91,4.36q-17.2,0-30.15-6.59a65.75,65.75,0,0,1-21.57-17.32,75.19,75.19,0,0,1-12.93-24.19,86.22,86.22,0,0,1-4.39-26.91,74.36,74.36,0,0,1,8.36-34.64q8.37-16.22,26-28.27t45.1-19.06q27.39-7,65.28-7h9.72V502.05q0-20.18-12.44-30.64T2174,461a88.53,88.53,0,0,0-19.31,2.23,148.09,148.09,0,0,0-20.32,6.1,166.93,166.93,0,0,0-19.94,9.09,173.52,173.52,0,0,0-18.19,11.23l-4.5-2.51-14.7-52.56q32.14-15,60.82-21.05a269.21,269.21,0,0,1,56.32-6.14,206.55,206.55,0,0,1,44.23,4.5q20.55,4.5,35.62,14.57a72.35,72.35,0,0,1,23.8,26.31q8.74,16.22,8.72,39.88V598.73a50.15,50.15,0,0,0,.76,8.86,23.34,23.34,0,0,0,2.72,7.84,16.55,16.55,0,0,0,5.51,5.75,16.17,16.17,0,0,0,9,2.23,48.7,48.7,0,0,0,6.86-.49,33.33,33.33,0,0,0,7.6-2.26v36.91a160.85,160.85,0,0,1-32.41,17.56,86.11,86.11,0,0,1-31.41,6.35q-19.65,0-32.37-11.23T2222.85,638.36Zm-3-90.44h-9.44q-19.71,0-32.52,2.86c-8.58,1.91-15.37,4.6-20.46,8.08a28.7,28.7,0,0,0-10.6,12.58,44.13,44.13,0,0,0-3,16.59,42.24,42.24,0,0,0,2.72,16.07,32.33,32.33,0,0,0,7.35,11,28.14,28.14,0,0,0,10.74,6.34,40.81,40.81,0,0,0,12.82,2,57.8,57.8,0,0,0,19.8-3.87c7.08-2.58,14.57-7.18,22.55-13.8Z"/><path class="cls-2" d="M2582.44,676.49h-88v-365h131.09q36.12,0,64,8.08t47,23.32a98.11,98.11,0,0,1,28.79,36.63q9.72,21.43,9.72,48.34,0,29.13-10.59,52.81a120.27,120.27,0,0,1-28.79,40.25,128.61,128.61,0,0,1-42.49,25.55,148.52,148.52,0,0,1-51.69,9c-2.68,0-5.26-.07-7.74-.25s-5.4-.49-8.71-1l4.22-49.84a26.36,26.36,0,0,0,5,.59c2,.1,3.84.14,5.47.14,8.33,0,15.58-1.78,21.82-5.37A45.17,45.17,0,0,0,2677,485.11a69.51,69.51,0,0,0,9.24-21.43,106.06,106.06,0,0,0,3.1-26.14q0-19.46-4.84-33.05a55.44,55.44,0,0,0-14-22.16,54.67,54.67,0,0,0-21.92-12.58,97,97,0,0,0-28.79-4h-37.36Z"/><path class="cls-1" d="M2997.82,412.34h73l10.46,43.36c5.64-5,12-10.29,19.06-15.93a196.48,196.48,0,0,1,22.93-15.72,143.9,143.9,0,0,1,26.28-12,91,91,0,0,1,29.18-4.74,82.85,82.85,0,0,1,33.53,6.63,75,75,0,0,1,25.89,18.57A84.78,84.78,0,0,1,3255,461.31a111,111,0,0,1,6,37.26V676.49h-86.72V511a57.31,57.31,0,0,0-3.1-19.69,42.13,42.13,0,0,0-8.47-14.22,34.39,34.39,0,0,0-12.58-8.57,41.53,41.53,0,0,0-15.48-2.9,53.86,53.86,0,0,0-26,6.73,143.27,143.27,0,0,0-24.3,17V676.49h-86.47Z"/><path class="cls-1" d="M3567,648.82a162.23,162.23,0,0,1-27.53,15.82,183,183,0,0,1-28,10.11A188.39,188.39,0,0,1,3484,680a232.4,232.4,0,0,1-25.93,1.5q-31.89,0-57.58-8.61t-43.6-24.78a107.33,107.33,0,0,1-27.54-39.88q-9.55-23.67-9.58-54.05,0-34.41,11.95-61.69t32-46.12a140.54,140.54,0,0,1,46.46-28.89,153.72,153.72,0,0,1,55.34-10.11,132.46,132.46,0,0,1,46,7.74,101,101,0,0,1,36.35,22.79q15.36,15.12,23.8,37.4t8.47,51.45a159.52,159.52,0,0,1-.87,17.46,112.47,112.47,0,0,1-2.09,13.17H3408.75q0,17.46,6.13,29.91a53.65,53.65,0,0,0,17.43,20.56q11.34,8.1,27.29,11.85a157.09,157.09,0,0,0,35.62,3.73q7,0,15.58-.49c5.75-.35,11.71-1,17.95-1.88s12.58-2.06,19.06-3.48a139.81,139.81,0,0,0,19.17-5.62ZM3501.7,527c0-11.47-1.11-21.33-3.34-29.66s-5.37-15.13-9.35-20.53a37.64,37.64,0,0,0-14.22-12,44.55,44.55,0,0,0-37.5.63,43.46,43.46,0,0,0-15.19,13,62.09,62.09,0,0,0-9.83,20.67,101.37,101.37,0,0,0-3.52,27.92Z"/><path class="cls-1" d="M3635,606.72l4.49-2.48a208.9,208.9,0,0,0,42.87,17.43q22.17,6.23,40.61,6.24a64.56,64.56,0,0,0,17.7-2.13,38.89,38.89,0,0,0,12.34-5.61,22.92,22.92,0,0,0,7.22-8.09,20.91,20.91,0,0,0,2.37-9.58A17.73,17.73,0,0,0,3757,589a47.93,47.93,0,0,0-15-9,154.85,154.85,0,0,0-21.19-6.58q-11.82-2.88-24.15-6.49a225.8,225.8,0,0,1-24.19-8.61,79.57,79.57,0,0,1-21.16-13,58.32,58.32,0,0,1-15-19.8c-3.73-7.88-5.61-17.5-5.61-28.79a80.67,80.67,0,0,1,8.09-36.14,78.41,78.41,0,0,1,23.94-28.27q15.8-11.81,39-18.43t53.57-6.63c5.13,0,10.95.18,17.43.53s13.1.83,19.83,1.49,13.28,1.57,19.66,2.72a177.34,177.34,0,0,1,17.32,4l-12.69,56-4.74,2.75a174.69,174.69,0,0,0-35.51-10.7,169.55,169.55,0,0,0-30-3.24,66.63,66.63,0,0,0-17.42,2,35.18,35.18,0,0,0-11.71,5.34,21.32,21.32,0,0,0-6.59,7.73,21,21,0,0,0-2.13,9.35c0,5.82,1.88,10.52,5.72,14.08a46.44,46.44,0,0,0,14.95,9,159,159,0,0,0,21.19,6.45q12,2.86,24.29,6.24a217.71,217.71,0,0,1,24.3,8.22,76.26,76.26,0,0,1,21.19,12.83,62.19,62.19,0,0,1,14.95,19.58q5.7,11.57,5.72,28.52a84.61,84.61,0,0,1-7.36,34.78,79.6,79.6,0,0,1-22.3,29q-15,12.45-37.75,19.94T3720,681.48c-7.81,0-15.89-.39-24.29-1.12s-16.77-1.88-25.17-3.38-16.69-3.38-24.92-5.71a174.91,174.91,0,0,1-23-8.23Z"/><polygon class="cls-1" points="2912.8 676.49 2823.97 676.49 2839.45 467.07 2897.31 467.07 2912.8 676.49"/><path class="cls-1" d="M2868.38,676.49h53.77c3.47,0,5-2.68,2.5-4.19-6.3-3.71-13-10.62-13.89-23.36Z"/><path class="cls-1" d="M2868.38,676.49h-53.76c-3.47,0-5-2.68-2.5-4.19,6.3-3.71,13-10.62,13.89-23.36Z"/><path class="cls-3" d="M2919.9,405.7c4-10.18,5.29-20.4,1.83-30.89a33.61,33.61,0,0,0-11.28-15.59,56.09,56.09,0,0,0-8.49-6.13c-8.88-4.78-18.16-8.26-28.55-7.82-10.1.44-18.42,4.36-24.91,12-2.66,3.14-5,6.54-7.41,9.87a12.11,12.11,0,0,0-1.31,2.65c-.6,1.49-.38,2.05,1.12,2.55,9.49,3.15,19.12,4.32,29,2.11a26.58,26.58,0,0,0,13.81-7.62c1.37-1.43,2.28-1.51,4.09-.62.72.35,1.47.65,2.22.94a4.83,4.83,0,0,1,3.14,4.33,8.18,8.18,0,0,1,.06,1.21c-.39,8.42,2.81,15.51,8.15,21.76a71.52,71.52,0,0,0,15.62,13.3,1.34,1.34,0,0,0,2.2-.61C2919.47,406.65,2919.71,406.12,2919.9,405.7Z"/><path class="cls-3" d="M2913.05,341.18l-7.23-6.61a2.64,2.64,0,0,0-3.9.35c-3.12,4.15-9.21,13.25-9.46,21.08a2.65,2.65,0,0,0,4.53,1.87c3.74-3.69,9.89-9.31,15.53-12.42A2.64,2.64,0,0,0,2913.05,341.18Z"/><path class="cls-3" d="M2852.63,447.71a7.43,7.43,0,0,0,1.82.32,97.21,97.21,0,0,0,10.27-1.2c2.18-.46,4.2-1.72,6.27-2.67a1.35,1.35,0,0,0,.73-2c-2.1-4.3-2.73-9-3.59-13.62-.41-2.21-.8-2.55-3-2.52a5.77,5.77,0,0,1-4.94-2.26,1.83,1.83,0,0,0-2.7-.5,54.26,54.26,0,0,1-12.9,6,1.76,1.76,0,0,0-1.3,2.42,47.86,47.86,0,0,0,2.84,7.67,55.4,55.4,0,0,0,4.79,6.81A12.08,12.08,0,0,0,2852.63,447.71Z"/><path class="cls-3" d="M2874.77,398.6a14.13,14.13,0,0,0,3.59.08q6.09-1.44,12.08-3.21c1.94-.57,2-1.11,1-2.8a39,39,0,0,1-5.29-16.11c-.24-1.9-.43-2-2-.89a36.54,36.54,0,0,1-16,6.41c-1.78.27-2.06.66-1.31,2.32,1.73,3.84,3.51,7.66,5.42,11.41A14.86,14.86,0,0,0,2874.77,398.6Z"/><path class="cls-3" d="M2838,387.34a40.78,40.78,0,0,0-3.51,10.44c-.39,1.94-.09,2.29,2,2.24,8-.18,15.39-2.84,22.41-6.53,3.47-1.81,3.43-1.83,2-5.5a36.34,36.34,0,0,1-1.38-4.21,1.4,1.4,0,0,0-1.48-1.24,53.14,53.14,0,0,1-14.44-2.21,1.85,1.85,0,0,0-2.31,1.12C2840.07,383.38,2839,385.37,2838,387.34Z"/><path class="cls-3" d="M2907.4,420.39c0,.05,0,.11-.05.16l0,.09a.26.26,0,0,0,0,.08l-.28.52c-.06.12-.1.24-.16.35l-.28.53c-1.35,2.34-2.68,4.69-4.1,7-1.18,1.9-1.82,1.88-3.15.15-5.49-7.14-8.34-15.41-10.12-24.11-.28-1.36.17-1.92,1.54-2.38a40.58,40.58,0,0,0,3.92-1.41c2.14-1,2.65-.91,4.21.82a48.79,48.79,0,0,0,10.28,8.62c1.49.94,1.76,1.74,1,3.39-.87,2-1.8,3.91-2.71,5.87l.07,0C2907.48,420.19,2907.44,420.29,2907.4,420.39Z"/><path class="cls-3" d="M2865.42,418.69a11.85,11.85,0,0,0,2.17.27,35.11,35.11,0,0,0,15-4.45,1.74,1.74,0,0,0,1-2.1c-.35-1.63-.73-3.24-1.13-4.85a2.13,2.13,0,0,0-2.37-1.75c-1,0-2,.11-3,.19a9.77,9.77,0,0,1-9.83-5c-.31-.5-.57-1-.92-1.49a1.88,1.88,0,0,0-2.81-.57c-1.48.85-2.94,1.73-4.43,2.55a2.08,2.08,0,0,0-1.12,2.67,38.58,38.58,0,0,0,5.6,12.6A16.43,16.43,0,0,0,2865.42,418.69Z"/><path class="cls-3" d="M2893,433.15a5.88,5.88,0,0,0-.41-1.26c-1.72-3.08-3.51-6.13-5.21-9.22-.73-1.32-1.44-1.68-2.84-1.16-2.77,1-5.54,2.06-8.31,3.07-1.24.46-1.68,1.19-1.23,2.84,1.26,4.62,2.63,9.21,4,13.8a16.35,16.35,0,0,0,.8,2c.3.66.81.86,1.41.41,4-3,8.14-5.73,11.27-9.69C2892.58,433.76,2892.7,433.57,2893,433.15Z"/><path class="cls-3" d="M2837.21,407.8a36,36,0,0,0-.53,4.32q0,4.63.26,9.26c.12,2.14.72,2.57,2.76,2.07a43,43,0,0,0,14.15-6.4,1.43,1.43,0,0,0,.53-2q-1.68-4.32-3.26-8.69a1.57,1.57,0,0,0-2-1.2c-3.43.64-6.89,1.19-10.32,1.83A6.51,6.51,0,0,0,2837.21,407.8Z"/></g></g></svg>