<svg xmlns="http://www.w3.org/2000/svg" role="img" viewBox="-7.36 -7.36 382.72 100.97"><title>Texas Instruments (member) logo</title><path fill="#100f0d" d="M103.56101 19.91793v23.5994c0 2.50248-1.2729 2.89474-2.501 3.28633v.83437h10.89292v-.83437c-1.2265-.3916-2.50407-.78385-2.50407-3.28632V19.91793c0-1.42343.4432-1.76556 2.30621-1.76556 5.1024 0 7.60501.09733 9.42057 2.94206l.63638-.39012-2.05821-6.03518H93.2086l-2.05982 6.03518.63798.39012c2.20821-2.79526 3.92537-2.94206 9.46857-2.94206 1.86448 0 2.30567.34213 2.30567 1.76556"/><path fill="#100f0d" d="M115.97523 23.30318c1.61716.44119 2.45248.8333 2.45248 3.28591v16.92825c0 2.50247-.83532 2.89473-2.45248 3.28632v.83437h20.55602l2.35594-5.88731-.63998-.44173c-2.05861 2.69687-4.21856 3.33752-7.06449 3.33752h-5.29947c-1.66756 0-2.05821-.05107-2.05821-1.66983v-7.06435h6.4253c2.5042 0 2.89473.58852 3.28899 2.05928h.9813v-7.06436h-.9813c-.39426 1.47237-.78478 2.11035-3.28899 2.11035h-6.4253v-5.93585c0-1.22704.39065-1.6197 2.05821-1.6197h4.51562c2.89473 0 4.4151.73545 6.62304 3.091l.63732-.4416-2.05995-5.64305h-19.62405v.83478"/><path fill="#100f0d" d="M175.28895 26.83442l4.0279 10.9904h-8.21846zm-32.87118-.63692l6.28251 8.88258-5.93985 8.43726c-1.81329 2.551-2.8946 2.89473-4.56255 3.28632v.83437h9.51976v-.83437c-1.81595-.34373-2.6026-1.03118-1.3733-2.9442l4.15856-6.50183 4.37856 6.30557c1.6173 2.30608-.1 2.94513-1.57196 3.14046v.83437h17.21824v-.83437c-1.71596-.2932-2.50127-.88278-1.6173-3.23846l1.1213-2.94366h10.31042l1.07864 2.94366c.68665 1.91462.44132 2.94526-1.57063 3.23846v.83437h10.5984v-.83437c-1.22663-.3916-2.35594-1.4229-2.8946-2.84473l-8.19445-21.49053h-5.5932l-7.85047 20.0187c-.83731 2.07968-1.5973 3.05779-2.42794 3.62124-.64798-.40879-1.24397-1.0337-2.03461-2.14941l-6.89983-9.78256 5.5772-7.87994c1.47062-2.1094 2.69726-2.55206 4.16922-2.99325v-.83478h-8.97977v.83478c1.86528.14693 2.4066 1.17717 1.3253 2.79633l-3.8919 5.76705-3.51458-5.27747c-1.4733-2.1582-.39333-3.04112 1.22663-3.28591v-.83478H138.5432v.83478c1.6653.44119 2.49994.93237 3.87457 2.89432m50.33474 21.44053c0-.39265.39466-1.22596.88265-1.22596 1.12797.53905 3.04392 1.66769 6.5745 1.66769 5.93719 0 10.10908-2.94526 10.10908-7.9478 0-4.71082-2.6026-6.6233-7.60647-7.75234l-4.5639-1.03131c-2.59993-.58745-3.43324-1.32383-3.43324-2.9426 0-1.86555 1.47197-3.09112 4.71055-3.09112 3.62924 0 6.47584 1.71876 8.53579 4.07177l.63865-.4416-1.86529-6.47636h-1.1773c0 .53905-.244 1.12917-.73465 1.12917-1.0813-.59012-2.74793-1.52143-5.5932-1.52143-5.10253 0-9.0771 2.64993-9.0771 7.45875 0 3.6795 2.20661 5.98425 7.01582 7.06329l4.31856.9833c2.8946.63799 3.92257 1.66663 3.92257 3.48272 0 2.501-2.00928 3.8271-5.2972 3.8271-4.61322 0-7.55581-2.4042-9.95975-5.2004l-.63732.44106 2.00929 7.50607h1.22796m-91.9321 6.14305c1.52076.44332 2.7458.83491 2.7458 3.28792v24.7286c0 2.50256-1.22504 2.89318-2.7458 3.2864v.8333h11.38412v-.8333c-1.52236-.39322-2.74993-.78384-2.74993-3.2864V57.069c0-2.453 1.22757-2.8446 2.74993-3.28792v-.83331H100.8204v.83331m31.25029 7.80087c1.47263.44266 2.30727.83332 2.30727 3.28645v10.30437h-.14666l-12.65888-14.42413h-7.40702v.83331c1.4713.63799 2.4514 1.13024 2.4514 3.28645v16.9292c0 2.35412-.83477 2.89318-2.4514 3.2864v.8333h8.38993v-.8333c-1.32664-.39322-2.601-.93228-2.601-3.2864V67.17556h.1484l16.7285 19.0855h.88132V64.8684c0-2.45313 1.22797-2.8438 2.20928-3.28645v-.83331h-7.85114v.83331m21.93078 9.0779l-4.56122-1.03117c-2.60126-.58851-3.43591-1.3229-3.43591-2.94272 0-1.86449 1.47196-3.091 4.71055-3.091 3.6319 0 6.4745 1.7161 8.53712 4.07017l.63865-.44012-1.86529-6.47637h-1.1773c0 .53905-.24533 1.12757-.73598 1.12757-1.07998-.58852-2.7466-1.52076-5.59186-1.52076-5.10388 0-9.07844 2.651-9.07844 7.45808 0 3.67964 2.20794 5.98428 7.01716 7.06498l4.31589.98175c2.89726.63801 3.92523 1.66663 3.92523 3.48429 0 2.49994-2.01061 3.82542-5.2972 3.82542-4.61188 0-7.55581-2.40358-9.96108-5.20039l-.63732.4401 2.01195 7.50762h1.22664c0-.39322.39065-1.22652.8813-1.22652 1.13065.53904 3.0426 1.66922 6.57718 1.66922 5.93451 0 10.10641-2.94523 10.10641-7.95032 0-4.70822-2.60127-6.62225-7.60648-7.74982m9.07711-9.91122l-2.01195 6.47637.63598.44012c2.69994-3.58057 3.43725-3.9243 7.01716-3.9243 1.22664 0 1.61996.09893 1.61996 1.6197V81.7976c0 2.50255-.73598 2.89317-2.74793 3.28638v.83331h10.7944v-.8333c-1.96262-.39322-2.7506-.78384-2.7506-3.2864V65.36053c0-1.52076.39466-1.61969 1.6213-1.61969 3.58124 0 4.51321.34373 7.21048 3.9243l.63998-.44012-2.01061-6.47637h-20.01817m34.73646 11.82264h-4.31989v-6.6717c0-1.61716.39466-2.05982 1.6213-2.05982h2.79593c3.04125 0 4.80654 1.17704 4.80654 4.1223 0 3.08846-2.00928 4.60922-4.90388 4.60922zm8.97845 5.88788c-1.52263-2.45307-3.09326-3.53117-4.90788-3.97386v-.14584c4.31722-.68748 6.76916-2.94522 6.76916-6.62486 0-4.90614-3.92257-6.96596-10.25307-6.96596h-12.90235v.83331c1.61996.44266 2.45327.83332 2.45327 3.28645v16.9292c0 2.50256-.8333 2.89318-2.45327 3.2864v.8333h10.54774v-.8333c-1.5213-.39322-2.55194-.78384-2.55194-3.2864v-6.28108h2.60127c3.04126 0 3.48391 1.22653 5.44653 5.34622 1.61863 3.38794 3.77857 5.49726 7.85047 5.49726 2.05995 0 2.8946-.39322 3.7279-.83592v-.68748c-3.28658-.48958-4.36922-3.18742-6.32783-6.37744m22.3221-16.8772c1.2733.29425 2.50128.8333 2.50128 3.28644v12.4137c0 4.1197-1.57063 5.93735-6.23185 5.93735-4.95454 0-6.7225-1.81766-6.7225-5.93734V64.8684c0-2.45314.93331-2.9922 2.45328-3.28646v-.83331h-10.30108v.83331c1.51996.2448 2.49994.83332 2.49994 3.28645v12.80692c0 6.72118 5.83985 8.68468 11.33438 8.68468 6.13318 0 10.50107-2.05984 10.50107-9.0779V64.8684c0-2.45313.73598-2.94272 2.25728-3.28645v-.83331h-8.2918v.83331m26.09935 15.50484l-7.26115-16.33815h-9.02644v.83331c1.61863.44266 2.45194.83332 2.45194 3.28645v16.9292c0 2.20569-.93198 2.79422-2.45194 3.2864v.8333h7.9958v-.8333c-1.66796-.4427-2.4026-1.08071-2.4026-3.2864V65.9985l9.07443 20.31202h.68932l8.83045-20.31201v15.7991c0 2.50255-1.08131 2.94264-2.30661 3.28638v.83331h10.30374v-.8333c-1.61996-.39322-2.4546-.78384-2.4546-3.2864V64.8684c0-2.45313.83464-2.8438 2.4546-3.28645v-.83331h-8.87978l-7.01716 16.33815m33.06984 5.8384h-5.29986c-1.6693 0-2.06129-.04948-2.06129-1.66924v-7.06231h6.42784c2.5026 0 2.89326.58592 3.28525 2.05724h.98265v-7.06232h-.98265c-.39199 1.4713-.78264 2.10928-3.28525 2.10928h-6.42784v-5.93731c0-1.2265.392-1.6197 2.06129-1.6197h4.51455c2.89193 0 4.41189.73692 6.6225 3.091l.63732-.44013-2.06262-5.64306h-19.6235v.83331c1.61729.44266 2.4546.83332 2.4546 3.28645v16.9292c0 2.50256-.83731 2.89318-2.4546 3.2864v.8333h20.55681l2.35461-5.88788-.63598-.4427c-2.06129 2.70046-4.21857 3.33847-7.06383 3.33847m26.19935-21.34324c1.47196.44266 2.30527.83332 2.30527 3.28645v10.30437h-.14933l-12.65835-14.42413h-7.40781v.83331c1.47063.63799 2.4546 1.13024 2.4546 3.28645v16.9292c0 2.35412-.83464 2.89318-2.4546 3.2864v.8333h8.38912v-.8333c-1.3253-.39322-2.60127-.93228-2.60127-3.2864V67.17556h.14667l16.73158 19.0855h.88531V64.8684c0-2.45313 1.22664-2.8438 2.20661-3.28645v-.83331h-7.8478v.83331m10.15441-.83331l-2.01328 6.47637.63598.44012c2.69993-3.58057 3.43725-3.9243 7.0185-3.9243 1.22663 0 1.61862.09893 1.61862 1.6197V81.7976c0 2.50255-.73732 2.89317-2.7466 3.28638v.83331h10.79573v-.8333c-1.96528-.39322-2.7506-.78384-2.7506-3.2864V65.36054c0-1.52077.39333-1.6197 1.61863-1.6197 3.58258 0 4.51589.34373 7.21315 3.9243l.63732-.44012-2.01062-6.47637h-20.01683m35.91377 9.91122l-4.56255-1.03118c-2.60127-.58851-3.43592-1.3229-3.43592-2.94272 0-1.86449 1.47063-3.091 4.70922-3.091 3.62924 0 6.47584 1.7161 8.53712 4.07017l.63865-.44012-1.86662-6.47637h-1.17464c0 .53905-.24933 1.12757-.73865 1.12757-1.07997-.58852-2.7466-1.52076-5.59319-1.52076-5.10254 0-9.0731 2.651-9.0731 7.45808 0 3.67964 2.20527 5.98428 7.01448 7.06498l4.31723.98175c2.89326.63801 3.92524 1.66663 3.92524 3.48429 0 2.49994-2.01062 3.82542-5.29854 3.82542-4.61322 0-7.55714-2.40358-9.95842-5.20039l-.64131.4401 2.01061 7.50762h1.22797c0-.39322.39333-1.22652.88131-1.22652 1.1293.53904 3.04526 1.66922 6.57584 1.66922 5.93585 0 10.10908-2.94523 10.10908-7.95032 0-4.70822-2.6026-6.62225-7.60381-7.74982"/><path fill="#cd1e25" d="M58.5636 4.30218h-7.49088l-1.4333 7.2305h7.49035zm-8.51018 43.12026l6.49823-32.76371h-7.49034l-6.49624 32.76371zm25.2155-23.12236v-9.64135H59.80837l-1.94675 9.72775h5.56133l-1.78382 8.93938h-5.5624l-1.92862 9.68989c-.1484.65785-.25772 1.1317-.32812 1.5885-.45412 2.96405.84264 2.81819 5.00254 2.81819l-1.90209 9.5295h-7.27688c-6.88063 0-12.47622-.07294-11.02213-7.10503.22813-1.09904.5052-2.16461.70305-3.21405l2.59994-13.307h-5.3472l1.78742-8.93938h5.3452l1.94889-9.72775h-5.00348V-.00237H22.14531v29.83152H0c.54686 7.7342 7.39408 8.8575 9.88778 14.35324 1.71714 3.78684 3.22127 10.44294 8.24097 10.50387 3.84577.04693 3.84577-4.97228 8.79244-4.97228 4.94361 0 7.1405 9.3915 11.53625 17.12304 3.29672 6.07798 8.77311 10.14821 13.73499 10.49195 4.07176.28385 6.04305-1.10153 6.04305-1.10153-1.0989-2.21088-1.64836-4.41654-1.64836-7.73153 0-4.97387 3.84524-9.93735 8.24046-13.2534 6.04305-4.42749 12.63662-6.08465 14.83443-6.62997V33.1436s-4.3931-2.35248-4.3931-8.84352"/></svg>