<svg xmlns="http://www.w3.org/2000/svg" role="img" viewBox="3.24 63.24 143.39 25.39"><title>The Charles Stark Draper Laboratory, Inc. (member) logo</title><path d="M141 68h1v1h-1zm-95 1h1v1h-1zm-35 2h1v7h-1zm31 0h1v1h-1zm54 0h1v2h-1zm0 2h1v1h-1zm41 1h1v1h-1zm-25 2h4v1h-4zm4 0h1v1h-1zM11 78h1v1h-1zm80 0h1v1h-1zm-79 1h1v1h-1zm1 0h1v1h-1zm97 0h7v1h-7zm7 0h1v1h-1zm24 0h1v1h-1zm-99 2h1v1h-1zm63 1h1v1h-1z" fill="#bdbfc1"/><path d="M8 66h8v1H8zm8 0h1v1h-1zm17 0h8v1h-8zm8 0h1v1h-1zm42 0h8v1h-8zm8 0h1v1h-1zm15 0h11v1h-11zm11 0h1v1h-1zm11 0h9v1h-9zm9 0h1v1h-1zm-10 1h1v15h-1zM21 69h1v1h-1zm-5 1h1v1h-1zm20 0h1v1h-1zm101 0h1v1h-1zM17 71h1v1h-1zm19 3h1v1h-1zm10 1h1v1h-1zm64 1h1v1h-1zm1 0h1v1h-1zm29 1h1v1h-1zm-48 1h1v1h-1zm35 4h1v1h-1z" fill="#c6c8c8"/><path d="M128 67h1v14h-1zm-18 8h5v1h-5zm5 0h1v1h-1zm-79 2h3v1h-3zm3 0h1v1h-1zm53 0h1v1h-1zm40 0h3v1h-3zm3 0h1v1h-1zm-7 4h1v1h-1z" fill="#14161a"/><path d="M61 71h1v1h-1zm-1 3h1v1h-1zm2 1h1v1h-1zm-1 2h1v1h-1zm-3 2h1v1h-1zm13 0h1v1h-1zm-11 1h1v1h-1zm9 0h1v1h-1z" fill="#dd523a"/><path d="M64 71h1v1h-1zm-4 1h1v1h-1zm1 7h1v1h-1z" fill="#e5a496"/><path fill="#ebcbc4" d="M73 82h1v1h-1z"/><path d="M83 67h1v2h-1zm-65 1h1v1h-1zm19 0h3v1h-3zm3 0h1v1h-1zm3 0h1v1h-1zm44 0h3v1h-3zm3 0h1v1h-1zm3 0h1v2h-1zm22 0h1v1h-1zm17 0h4v1h-4zm4 0h1v1h-1zm-53 1h1v1h-1zm-63 1h1v2h-1zm25 0h1v4h-1zm48 0h1v1h-1zm-73 2h1v1h-1zm63 1h1v7h-1zm56 0h1v1h-1zm-94 1h1v1h-1zm48 0h1v1h-1zm-73 1h1v3h-1zm17 1h1v1h-1zm3 0h1v1h-1zm4 0h1v1h-1zm42 0h1v1h-1zm5 0h1v1h-1zm43 0h2v1h-2zm2 0h1v1h-1zm3 0h1v1h-1zM20 78h1v1h-1zm21 0h1v1h-1zm89 0h1v1h-1zM19 80h1v1h-1zm24 0h1v1h-1zm40 0h1v1h-1zm57 0h1v1h-1zm-56 1h1v1h-1z" fill="#000813"/><path d="M61 68h1v1h-1zm-1 3h1v1h-1zm9 0h1v1h-1zm-5 1h1v1h-1zm1 0h1v1h-1zm-6 1h1v1h-1zm12 3h1v1h-1zm-10 4h1v1h-1zm7 0h1v1h-1zm-12 1h1v1h-1zm17 0h1v1h-1z" fill="#f3d5cc"/><path d="M17 67h1v1h-1zm25 0h1v1h-1zm-26 2h1v1h-1zm29 0h1v1h-1zm-35 1h1v8h-1zm99 3h1v1h-1zm7 0h1v1h-1zm21 2h1v1h-1zM18 76h1v1h-1zm0 1h1v1h-1zm121 0h1v1h-1zM10 78h1v1h-1zm34 0h1v1h-1zm-25 3h1v1h-1zm98 0h1v1h-1z" fill="#1d2329"/><path d="M62 67h1v1h-1zm5 0h1v1h-1zm-2 4h1v1h-1zm4 1h1v1h-1zm-7 4h1v1h-1zm6 3h1v1h-1z" fill="#e19586"/><path d="M137 67h1v1h-1zm-20 1h1v1h-1zm-97 1h1v1h-1zm15 0h1v1h-1zm7 0h1v1h-1zm43 0h1v1h-1zm0 1h1v1h-1zm-67 2h1v3h-1zm67 2h1v1h-1zm-67 1h1v1h-1zm17 0h1v1h-1zm50 0h1v1h-1zm-75 4h1v1h-1z" fill="#161d23"/><g fill="#f9fdfd"><path d="M61 66h1v1h-1zm7 0h1v1h-1zm71 0h3v1h-3zm3 0h1v1h-1zm-73 2h1v1h-1zm1 0h1v3h-1zm-10 1h1v1h-1z"/><path d="M69 69h2v1h-2zm2 0h1v2h-1zm-49 2h1v1h-1zm48 0h1v1h-1zm1 0h1v1h-1zm-49 1h1v1h-1zm33 0h1v2h-1zm1 0h1v1h-1zm0 1h1v1h-1zm-1 1h3v1h-3zm3 0h1v1h-1zm7 0h1v1h-1zm6 0h1v1h-1zm-15 3h1v2h-1zm7 0h3v1h-3zm3 0h1v4h-1zm-50 1h1v1h-1zm39 0h1v2h-1zm8 0h3v2h-3zm10 0h1v1h-1zm1 0h1v1h-1zm67 0h1v1h-1zm1 0h1v1h-1zm-86 1h1v1h-1zm-2 1h1v2h-1zm1 0h1v1h-1zm7 0h4v1h-4zm13 0h1v2h-1zm12 0h1v1h-1zm-46 1h1v1h-1zm21 0h1v3h-1zm4 0h1v1h-1zm1 0h1v3h-1zm52 0h1v1h-1zm-65 1h1v1h-1zm11 0h2v1h-2zm-4 1h1v1h-1zm7 0h1v2h-1zm35 0h1v1h-1zm-47 1h3v1h-3zm3 0h3v1h-3zm3 0h3v1h-3z"/><path d="M65 84h4v1h-4zm4 0h1v1h-1zm3 0h2v1h-2zm2 0h1v1h-1zm29 0h1v1h-1zm-47 1h2v1h-2zm2 0h1v1h-1zm10 0h1v1h-1z"/></g><path d="M8 67h1v13H8zm86 1h1v1h-1zm22 0h1v1h-1zm24 1h1v1h-1zm-10 2h1v2h-1zm0 2h1v1h-1zm-87 1h1v1h-1zm73 1h1v1h-1zm-28 1h1v1h-1zm1 0h1v1h-1zm43 0h1v1h-1zm-89 1h1v1h-1zm44 0h1v1h-1zm4 0h1v1h-1zm48 1h1v1h-1zm-95 1h1v1h-1zm86 0h1v1h-1zM8 80h1v1H8zm26 1h1v1h-1zm11 0h1v1h-1zm38 0h1v1h-1z" fill="#00000c"/><path d="M18 67h1v1h-1zm25 0h1v1h-1zm50 0h1v1h-1zm-57 2h1v1h-1zm50 0h1v1h-1zm24 0h5v1h-5zm5 0h1v1h-1zm21 0h1v1h-1zm2 1h1v1h-1zM36 75h1v1h-1zm-1 4h1v1h-1z" fill="#3e4448"/><path d="M67 68h1v1h-1zm0 7h1v1h-1zm-10 6h1v1h-1zm15 0h1v1h-1z" fill="#d45f4c"/><path d="M60 73h1v1h-1zm9 0h1v1h-1zm-11 5h1v1h-1zm3 0h1v1h-1zm7 0h1v1h-1zm-11 4h1v1h-1z" fill="#d86b58"/><path d="M63 73h1v1h-1zm4 3h1v1h-1zm5 4h1v1h-1z" fill="#de8a7b"/><path d="M63 66h1v1h-1zm1 0h2v1h-2zm2 0h1v1h-1zm-7 8h1v1h-1zm4 0h1v1h-1zm-1 3h1v1h-1zm-5 2h1v1h-1zm15 0h1v1h-1zm-16 3h1v1h-1zm4 0h1v1h-1z" fill="#efc4b9"/><path d="M13 68h2v1h-2zm2 0h1v1h-1zm21 0h1v1h-1zm5 0h1v1h-1zm45 0h1v1h-1zm24 0h4v1h-4zm4 0h1v1h-1zm23 0h1v1h-1zm1 0h1v1h-1zm-55 2h1v2h-1zm0 2h1v1h-1zm-63 1h1v1h-1zm0 1h1v1h-1zm90 0h1v1h-1zm1 0h1v1h-1zm4 0h1v1h-1zm-71 1h1v1h-1zm-8 1h1v1h-1zm5 0h1v1h-1zm52 0h1v1h-1zm-7 1h1v1h-1zm22 0h1v1h-1zm28 0h1v1h-1zM18 78h1v1h-1zm90 0h1v1h-1zm-90 1h2v1h-2zm2 0h1v1h-1zm22 0h1v1h-1zm96 0h1v1h-1zM34 80h1v1h-1zM9 81h7v1H9zm7 0h1v1h-1zm28 0h1v1h-1zm63 0h8v1h-8zm8 0h1v1h-1zm14 0h1v1h-1z" fill="#000e16"/><path d="M7 66h1v1H7zm10 0h1v1h-1zm75 0h1v1h-1zm26 3h1v1h-1zM12 70h3v1h-3zm3 0h1v1h-1zm26 0h1v1h-1zm50 0h1v1h-1zm-55 1h1v2h-1zm0 2h1v1h-1zm50 1h1v1h-1zm31 2h1v1h-1zm19 3h1v1h-1zM21 80h1v1h-1zm15 0h1v1h-1zm82 0h1v1h-1zm24 0h1v1h-1zM36 81h1v1h-1zm11 0h1v1h-1z" fill="#dadbdc"/><path fill="#b56a5d" d="M72 82h1v1h-1z"/><g fill="#fff"><path d="M0 0h150v63H0zm150 0h1v150h-1zM0 63h150v1H0zm0 1h64v1H0zm64 0h1v1h-1zm5 0h81v1H69zM0 65h5v85H0zm5 0h60v1H5zm60 0h1v1h-1zm5 0h10v1H70zm10 0h45v1H80zm45 0h25v1h-25zM5 66h1v84H5zm14 0h11v1H19zm11 0h1v1h-1zm14 0h1v1h-1zm1 0h1v1h-1zm3 0h12v3H48zm12 0h1v2h-1zm11 0h9v2h-9zm9 0h1v84h-1zm14 0h10v1H94zm10 0h1v16h-1zm15 0h7v2h-7zm7 0h1v84h-1zm17 0h7v10h-7zM21 67h9v1h-9zm9 0h1v83h-1zm66 0h6v1h-6zm6 0h2v2h-2z"/><path d="M141 67h9v1h-9zM22 68h7v1h-7zm7 0h1v82h-1zm31 0h1v1h-1zm11 0h9v1h-9zm26 0h7v1h-7zm22 0h7v9h-7zm23 0h8v1h-8z"/><path d="M22 69h8v1h-8zm25 0h12v2H47zm12 0h1v2h-1zm13 0h8v2h-8zm25 0h7v1h-7zm-73 1h6v80h-6zm73 0h5v80h-5zm5 0h2v1h-2zm-90 1h4v7h-4zm4 0h1v6h-1z"/><path d="M23 71h7v6h-7zm14 0h2v2h-2zm2 0h2v1h-2zm2 0h1v2h-1zm6 0h12v1H47zm12 0h1v1h-1zm13 0h8v1h-8zm15 0h4v2h-4zm4 0h1v2h-1zm11 0h2v1h-2zm8 0h7v1h-7zm7 0h9v1h-9zm15 0h4v2h-4zm4 0h1v2h-1zm-89 1h7v3h-7zm7 0h1v4h-1zm3 0h1v1h-1zm1 0h1v1h-1zm15 0h7v5h-7zm29 0h2v1h-2zm16 0h8v4h-8zm-81 1h2v1h-2zm2 0h2v1h-2zm2 0h1v1h-1zm16 0h1v1h-1zm1 0h1v1h-1zm29 0h4v1h-4zm4 0h1v1h-1zm11 0h2v1h-2zm30 0h4v1h-4zm4 0h1v1h-1zm-34 1h2v1h-2z"/><path d="M47 75h9v1h-9zm9 0h1v1h-1zm9 0h1v1h-1zm7 0h8v1h-8zm30 0h2v1h-2zm-54 1h7v1h-7zm7 0h1v1h-1zm17 0h8v1h-8zm24 0h6v74h-6zm6 0h2v1h-2zm16 0h8v1h-8zm25 0h7v1h-7zM16 77h1v1h-1zm7 0h7v73h-7zm22 0h1v1h-1zm3 0h5v4h-5zm5 0h2v2h-2zm2 0h1v1h-1zm18 0h7v1h-7zm29 0h2v1h-2zm8 0h4v1h-4zm4 0h1v1h-1zm5 0h7v1h-7zm22 0h1v1h-1zm3 0h6v1h-6zM12 78h3v1h-3zm3 0h1v1h-1z"/><path d="M46 78h7v1h-7zm30 0h4v2h-4zm18 0h8v72h-8zm8 0h2v4h-2zm8 0h7v1h-7zm7 0h1v1h-1zm3 0h6v3h-6zm25 0h5v72h-5zM22 79h8v71h-8zm15 0h2v71h-2zm2 0h1v71h-1zm8 0h7v1h-7zm7 0h1v1h-1z"/><path d="M87 79h15v1H87zm32 0h7v1h-7zm13 0h3v1h-3zm3 0h1v71h-1zm7 0h1v1h-1zm-95 1h6v1h-6zm6 0h1v70h-1zm23 0h4v2h-4zm13 0h15v2H89zm30 0h7v1h-7zm13 0h1v2h-1zm4 0h1v3h-1zm7 0h7v1h-7zM21 81h9v69h-9zm27 0h5v1h-5zm15 0h1v1h-1z"/><path d="M87 81h17v1H87zm33 0h6v69h-6zm14 0h2v69h-2zM20 82h10v1H20zm20 0h2v68h-2zm2 0h1v68h-1zm7 0h4v68h-4zm14 0h1v1h-1zm11 0h6v1h-6zm15 0h15v1H89zm15 0h1v68h-1z"/><path d="M119 82h7v68h-7zm13 0h5v1h-5zm5 0h1v1h-1zm-82 1h1v67h-1zm22 0h3v67h-3zm10 0h15v67H87zm15 0h1v67h-1zm31 0h3v67h-3zm3 0h1v67h-1zm8 0h6v67h-6zM7 84h11v66H7zm11 0h1v66h-1zm13 0h22v66H31z"/><path d="M81 84h21v66H81zm24 0h30v66h-30zm34 0h11v66h-11zM6 85h49v65H6zm53 0h6v65h-6zm6 0h1v65h-1z"/><path d="M69 85h81v65H69z"/><path d="M56 86h94v64H56zM0 150h150v1H0zm150 0h1v1h-1z"/></g><path d="M106 67h1v14h-1zm-87 1h1v1h-1zm25 0h1v1h-1zm96 0h1v1h-1zm-45 2h1v4h-1zm-52 1h1v2h-1zm50 0h2v1h-2zm0 1h2v1h-2zm-50 1h1v1h-1zm50 0h2v1h-2zm2 1h1v1h-1zm21 0h1v1h-1zm24 1h1v1h-1zm-53 1h1v1h-1zm7 0h1v1h-1zm-6 1h2v1h-2zm2 0h1v1h-1zm47 1h1v1h-1zm3 1h1v1h-1zM11 80h5v1h-5zm5 0h1v1h-1zm94 0h6v1h-6zm6 0h1v1h-1zm14 0h1v1h-1zM8 81h1v1H8zm10 0h1v1h-1zm15 0h1v1h-1zm10 0h1v1h-1zm63 0h1v1h-1zm24 0h1v1h-1zm9 0h2v1h-2zm2 0h1v1h-1z"/><path d="M12 69h3v1h-3zm3 0h1v1h-1zm76 0h1v1h-1zm19 4h1v1h-1zm31 1h1v1h-1zM35 78h1v1h-1zm-18 1h1v1h-1zm3 1h1v1h-1z" fill="#31363b"/><path d="M68 70h1v1h-1zm-9 5h1v1h-1z" fill="#e07866"/><path d="M82 67h1v14h-1zm-45 2h3v1h-3zm3 0h1v1h-1zm47 0h3v1h-3zm3 0h1v1h-1zm27 0h1v1h-1zm15 0h3v1h-3zm3 0h1v1h-1zm-43 1h1v1h-1zm0 4h1v1h-1zm-55 1h3v1h-3zm3 0h1v1h-1zm51 0h1v1h-1zm41 0h4v1h-4zm4 0h1v1h-1zm-94 5h1v1h-1zm40 1h1v1h-1zm-66 1h1v1h-1zm69 0h1v1h-1zm32 0h1v1h-1zm11 0h1v1h-1zm11 0h1v1h-1z" fill="#4e5256"/><path d="M62 69h3v1h-3zm3 0h2v1h-2zm2 0h1v1h-1zm-4 1h1v1h-1zm4 0h1v2h-1zm-4 1h1v1h-1zm3 0h1v1h-1zm1 1h1v2h-1zm-5 2h1v1h-1zm5 0h1v1h-1zm-6 1h1v1h-1zm-2 1h2v1h-2zm2 0h1v1h-1zm7 0h1v1h-1zm0 1h1v1h-1zm-8 2h1v1h-1zm9 0h1v1h-1zm-10 2h1v1h-1zm11 0h1v1h-1z" fill="#e34b2f"/><path d="M45 68h1v1h-1zm-3 2h1v1h-1zm89 0h1v1h-1zM21 71h1v4h-1zm21 3h1v1h-1zm89 0h1v1h-1zM21 75h1v2h-1zm88 1h1v1h-1zm-88 1h1v1h-1zm117 4h1v1h-1zM32 82h1v1h-1z" fill="#77797c"/><path d="M9 82h6v1H9zm6 0h1v1h-1zm19 0h1v1h-1zm50 0h1v1h-1zm23 0h9v1h-9zm9 0h1v1h-1zm13 0h1v1h-1zm11 0h1v1h-1zm1 0h1v1h-1z" fill="#434547"/><path d="M32 66h1v1h-1zm10 0h1v1h-1zm40 0h1v1h-1zm36 2h1v1h-1zm-32 2h1v1h-1zm10 0h1v1h-1zm-79 2h1v5h-1zm79 2h1v1h-1zm45 2h1v1h-1zM17 77h1v1h-1zm20 1h2v1h-2zm2 0h1v1h-1zm6 0h1v1h-1zm87 0h3v1h-3zm3 0h1v1h-1z" fill="#d2d3d3"/><path d="M33 67h1v5h-1zm106 1h1v1h-1zm-96 2h1v1h-1zm87 0h1v1h-1zm9 1h1v1h-1zM33 72h1v3h-1zm106 0h1v1h-1zm-9 2h1v1h-1zm-97 1h1v5h-1zm5 1h1v1h-1zm1 0h1v1h-1zm51 0h1v1h-1zm43 0h1v1h-1zM33 80h1v1h-1zm76 0h1v1h-1zm-92 1h1v1h-1zm99 0h1v1h-1z" fill="#00000f"/><path d="M92 67h1v1h-1zm25 0h1v1h-1zm21 0h1v1h-1zM11 69h1v1h-1zm98 0h1v1h-1zm22 0h1v1h-1zm6 0h1v1h-1zm4 2h1v2h-1zm0 2h1v1h-1zm-96 2h1v1h-1zm86 0h1v1h-1zm6 4h1v1h-1z" fill="#282d33"/><path d="M61 70h1v1h-1zm5 3h1v1h-1zm4 2h1v1h-1zm1 3h1v1h-1zm-14 2h1v1h-1zm3 1h1v1h-1z" fill="#d87b6a"/><path d="M111 73h4v1h-4zm4 0h1v1h-1zm-22 4h1v1h-1z" fill="#313234"/><path d="M18 66h1v1h-1zm75 0h1v1h-1zm25 0h1v1h-1zM6 67h1v15H6zm14 0h1v1h-1zm25 0h1v1h-1zm1 1h1v1h-1zm96 1h1v1h-1zm-24 1h1v1h-1zm19 1h1v2h-1zm-27 1h4v1h-4zm4 0h1v1h-1zm3 0h1v1h-1zm20 1h1v1h-1zm-50 1h3v1h-3zm3 0h1v1h-1zm-44 2h1v1h-1zm47 2h1v1h-1zm25 1h1v1h-1zm-37 2h1v1h-1zm62 0h1v2h-1zM6 82h1v1H6zm25 0h1v1h-1zm50 0h1v1h-1zM7 83h1v1H7zm10 0h1v1h-1zm15 0h1v1h-1zm11 0h1v1h-1zm39 0h1v1h-1zm49 0h1v1h-1zm8 0h1v1h-1zm4 0h1v1h-1z" fill="#f3f5f5"/><path d="M32 67h1v14h-1zm109 2h1v1h-1zm-3 2h1v2h-1zm0 2h1v1h-1zm-50 2h1v1h-1zm1 0h1v1h-1zm47 3h1v1h-1zM32 81h1v1h-1zm3 1h1v1h-1z" fill="#5f6365"/><path d="M63 68h3v1h-3zm3 0h1v2h-1zm-4 2h1v3h-1zm4 0h1v1h-1zm-5 2h1v2h-1zm7 0h1v3h-1zm-6 1h1v1h-1zm-1 1h1v1h-1zm-1 1h1v3h-1zm8 0h1v1h-1zm1 0h1v3h-1zm-10 2h1v3h-1zm11 0h1v3h-1zm-10 1h1v1h-1zm9 0h1v1h-1zm-11 2h1v1h-1zm1 0h1v1h-1zm11 0h1v1h-1zm1 0h1v1h-1zm-13 1h1v1h-1zm13 0h1v1h-1z" fill="#ee4a2a"/><path d="M61 69h1v1h-1zm7 0h1v1h-1zm-2 5h1v1h-1zm-8 3h1v1h-1zm13 0h1v1h-1z" fill="#eaafa3"/><path d="M62 66h1v1h-1zm5 0h1v1h-1zm1 2h1v1h-1zm-3 5h1v1h-1zm5 0h1v1h-1zm-7 2h1v1h-1zm3 0h1v1h-1zm5 0h1v1h-1zm-13 1h1v1h-1zm-1 2h1v1h-1zm5 0h1v1h-1zm5 0h1v1h-1zm1 3h1v1h-1zm-11 2h1v1h-1zm1 0h1v1h-1zm12 0h1v1h-1z" fill="#f5e5e0"/><path d="M139 67h1v1h-1zm-53 8h1v1h-1zm4 0h1v1h-1z" fill="#585b5e"/><path d="M69 81h1v1h-1zm-11 1h1v1h-1zm1 0h1v1h-1zm11 0h1v1h-1zm1 0h1v1h-1z" fill="#d06f5e"/><path d="M19 67h1v1h-1zm27 3h1v1h-1zm71 3h1v2h-1zm-71 1h1v1h-1zm71 1h1v1h-1zm-72 1h1v1h-1zm49 1h1v1h-1zm-8 1h1v1h-1zm-40 2h1v1h-1zM7 82h1v1H7zm11 0h1v1h-1zm113 0h1v1h-1z" fill="#9a9d9f"/><path d="M41 69h1v1h-1zm75 0h1v1h-1zm-81 1h1v4h-1zm106 0h1v1h-1zM35 74h1v1h-1zm103 0h1v1h-1zm-97 1h1v1h-1zm99 1h1v1h-1zM35 80h1v1h-1zm106 0h1v1h-1zM35 81h1v1h-1zM8 82h1v1H8zm25 0h1v1h-1zm11 0h2v1h-2zm2 0h1v1h-1zm37 0h1v1h-1zm23 0h1v1h-1zm24 0h1v1h-1zm12 0h1v1h-1z" fill="#393e42"/><path d="M138 66h1v1h-1zm-20 1h1v1h-1zm-22 2h1v1h-1zm14 1h6v1h-6zm6 0h1v1h-1zm20 0h1v1h-1zm-50 1h1v2h-1zm56 0h1v3h-1zm-56 2h1v1h-1zm-45 1h1v1h-1zm101 0h1v1h-1zm-46 1h1v1h-1zm-60 4h1v1h-1zm50 0h1v3h-1zm-45 1h1v1h-1zm77 1h1v1h-1zm-99 1h1v1h-1zm17 0h1v1h-1zm50 0h1v1h-1zm52 0h1v1h-1z" fill="#e1e2e3"/><path d="M61 67h1v1h-1zm7 0h1v1h-1zm-8 3h1v1h-1zm9 0h1v1h-1zm-10 2h1v1h-1zm11 0h1v1h-1zm-12 3h1v1h-1zm5 1h1v1h-1zm9 2h1v1h-1zm1 2h1v1h-1zm-12 1h1v1h-1zm-5 2h1v1h-1zm3 0h1v1h-1zm12 0h1v1h-1zm1 0h1v1h-1z" fill="#fcf6f1"/><path d="M63 67h1v1h-1zm1 0h2v1h-2zm2 0h1v1h-1zm2 4h1v1h-1zm2 5h1v1h-1z" fill="#d25741"/><path d="M17 70h1v1h-1zm70 5h1v1h-1zm54 0h1v1h-1zm-97 2h1v1h-1zm87 1h1v1h-1zm9 0h1v1h-1zm-95 1h1v1h-1zm64 0h1v1h-1zm33 2h1v1h-1zM17 82h1v1h-1zm30 0h1v1h-1zm35 0h1v1h-1z" fill="#6c7073"/><path d="M65 64h3v1h-3zm3 0h1v1h-1zm-2 1h3v1h-3zm3 0h1v2h-1zM6 66h1v1H6zm25 0h1v1h-1zm15 0h1v1h-1zm1 0h1v2h-1zm23 0h1v1h-1zm11 0h1v14h-1zm-35 1h1v1h-1zm23 0h1v1h-1zm1 0h1v1h-1zm-49 1h1v1h-1zm26 0h1v1h-1zm49 0h1v1h-1zm-74 2h1v1h-1zm1 0h1v1h-1zm16 2h1v1h-1zm1 0h1v1h-1zm31 0h1v1h-1zm1 0h1v2h-1zm-50 1h1v5h-1zm42 0h1v1h-1zm7 0h1v1h-1zm-7 1h1v3h-1zm8 0h1v1h-1zm-15 1h1v2h-1zm85 0h1v2h-1zm-95 1h1v2h-1zm9 0h1v1h-1zm9 0h1v1h-1zm1 0h1v1h-1zm-20 1h1v1h-1zm11 0h1v1h-1zm15 0h1v1h-1zm43 0h3v1h-3zm3 0h1v1h-1zm24 0h1v1h-1zm1 0h1v2h-1zM22 78h1v1h-1zm53 0h1v1h-1zm43 0h1v1h-1zm1 0h1v1h-1zm25 0h1v4h-1zM40 79h1v2h-1zm22 0h1v1h-1zm5 0h1v1h-1zm6 0h3v1h-3zm70 0h1v1h-1zm-87 1h1v1h-1zm11 0h1v1h-1zm7 0h1v1h-1zm7 0h1v1h-1zm7 0h1v2h-1zm45 0h2v1h-2zm-93 1h1v1h-1zm15 0h1v1h-1zm9 0h1v2h-1zm1 0h1v1h-1zm9 0h1v1h-1zm59 0h1v1h-1zm-78 1h1v1h-1zm6 0h1v1h-1zm7 0h1v1h-1zm19 0h1v1h-1zm1 0h1v1h-1zm56 0h1v1h-1zM6 83h1v1H6zm12 0h2v1h-2zm2 0h1v1h-1zm11 0h1v1h-1zm5 0h1v1h-1zm12 0h1v1h-1zm6 0h1v1h-1zm6 0h1v1h-1zm3 0h1v1h-1zm1 0h2v1h-2zm2 0h1v2h-1zm3 0h1v1h-1zm4 0h3v1h-3zm3 0h1v1h-1zm5 0h1v1h-1zm5 0h1v1h-1zm19 0h1v1h-1zm13 0h1v1h-1zm9 0h1v1h-1zm5 0h1v1h-1zm5 0h1v1h-1zm1 0h1v1h-1zM6 84h1v1H6zm13 0h1v1h-1zm1 0h1v1h-1zm34 0h1v1h-1zm16 0h1v1h-1zm1 0h1v1h-1zm4 0h1v1h-1zm1 0h1v1h-1zm61 0h1v1h-1zm1 0h1v1h-1zm-72 1h1v1h-1zm1 0h1v1h-1z" fill="#fcfcfb"/><path d="M105 66h1v1h-1zm-68 4h3v1h-3zm3 0h1v1h-1zm47 0h3v1h-3zm3 0h1v1h-1zm27 0h1v1h-1zm15 0h1v1h-1zm1 0h2v1h-2zm2 0h1v1h-1zm7 0h1v1h-1zm-6 4h1v1h-1zm-18 8h1v1h-1z" fill="#e7e8e8"/><path d="M62 68h1v1h-1zm2 2h1v1h-1zm1 0h1v1h-1zm-2 2h1v1h-1zm3 0h1v1h-1zm3 2h1v1h-1z" fill="#dd5d46"/><path d="M70 74h1v1h-1zm-3 3h1v1h-1zm2 5h1v1h-1z" fill="#e6b8af"/><path d="M7 67h1v14H7zm13 1h1v1h-1zm89 2h1v1h-1zm-17 1h1v1h-1zm39 0h1v1h-1zm0 1h1v1h-1zm-36 4h1v1h-1zm-74 2h1v1h-1zm20 1h1v1h-1zm90 1h1v1h-1zM7 81h1v1H7zm124 0h1v1h-1zm-88 1h1v1h-1z" fill="#7f8385"/><path d="M94 67h1v1h-1zm-83 3h1v1h-1zm29 8h1v1h-1zm-19 1h1v1h-1zm116 1h1v1h-1z" fill="#a6a9ab"/><path d="M44 67h1v1h-1zm51 1h1v1h-1zm-74 2h1v1h-1zm25 1h1v2h-1zm63 0h1v1h-1zm-17 1h1v1h-1zm17 0h1v1h-1zm-63 1h1v1h-1zm46 0h1v1h-1zm39 0h1v1h-1zm-22 4h1v1h-1zm0 1h1v1h-1zm-98 1h1v1h-1zm5 0h1v1h-1zm115 0h1v1h-1z" fill="#8b8f92"/><path d="M105 67h1v14h-1zm35 0h1v1h-1zm-98 5h1v1h-1zm0 1h1v1h-1zm-25 5h1v1h-1zm19 0h1v1h-1zm51 0h3v1h-3zm3 0h1v1h-1zm-76 1h1v1h-1zm1 0h1v1h-1zm5 2h1v1h-1zm85 0h1v1h-1z" fill="#b0b2b2"/><path d="M116 67h1v1h-1zM11 68h1v1h-1zm1 0h1v1h-1zm4 0h1v1h-1zm1 0h1v1h-1zm18 0h1v1h-1zm7 0h1v1h-1zm43 0h1v1h-1zm6 0h1v1h-1zm1 0h1v1h-1zm17 0h1v1h-1zm20 0h2v1h-2zm2 0h1v1h-1zM17 69h2v1h-2zm2 0h1v1h-1zm24 0h1v1h-1zm1 0h1v1h-1zm50 0h1v1h-1zm36 0h1v1h-1zm8 0h1v1h-1zM18 70h1v1h-1zm16 0h1v4h-1zm74 0h1v4h-1zm31 0h1v1h-1zm1 0h1v4h-1zM19 72h1v1h-1zm65 0h1v1h-1zm-65 1h1v3h-1zm65 0h1v1h-1zm-50 1h1v1h-1zm74 0h1v2h-1zm4 0h2v1h-2zm2 0h1v1h-1zm25 0h1v1h-1zm1 0h1v1h-1zm-98 1h1v1h-1zm50 0h3v1h-3zm3 0h1v1h-1zm43 0h1v1h-1zM19 76h1v1h-1zm89 0h1v1h-1zm23 0h1v1h-1zm6 0h1v1h-1zM35 77h1v1h-1zm5 0h1v1h-1zm1 0h1v1h-1zm-7 1h1v1h-1zm8 0h1v1h-1zm1 0h1v1h-1zm-9 1h1v1h-1zm74 0h1v1h-1zm31 0h1v1h-1zM10 80h1v1h-1zm7 0h1v1h-1zm27 0h1v1h-1zm1 0h1v1h-1zm72 0h1v1h-1zm21 0h1v1h-1zm1 0h1v1h-1zm-93 1h1v1h-1zm39 0h1v1h-1z" fill="#08131b"/><path d="M43 66h1v1h-1zm84 0h1v1h-1zm-96 1h1v14h-1zm64 0h1v1h-1zm20 5h1v1h-1zm1 0h1v1h-1zm-79 2h3v1h-3zm3 0h1v1h-1zm51 0h1v1h-1zm41 0h3v1h-3zm3 0h1v1h-1zm-40 3h1v1h-1zm-49 2h1v1h-1zm-15 2h1v1h-1zm106 0h1v1h-1zm-89 1h1v1h-1zM8 83h8v1H8zm8 0h1v1h-1zm17 0h2v1h-2zm2 0h1v1h-1zm9 0h3v1h-3zm3 0h1v1h-1zm36 0h2v1h-2zm2 0h1v1h-1zm21 0h11v1h-11zm11 0h1v1h-1zm11 0h2v1h-2zm2 0h1v1h-1zm10 0h2v1h-2zm2 0h1v1h-1z" fill="#eeefef"/><path d="M9 67h3v1H9zm3 0h4v1h-4zm4 0h1v1h-1zm18 0h7v1h-7zm7 0h1v1h-1zm43 0h7v1h-7zm7 0h1v1h-1zm16 0h8v1h-8zm8 0h1v1h-1zm14 0h7v1h-7zm7 0h1v1h-1zM9 68h1v9H9zm1 0h1v1h-1zm24 0h1v1h-1zm50 0h1v3h-1zm23 0h1v12h-1zm1 0h1v1h-1zm-98 1h1v1h-1zm24 0h1v1h-1zm58 0h1v1h-1zm3 0h1v1h-1zm13 0h1v1h-1zm21 0h1v11h-1zm10 0h1v1h-1zM19 70h1v1h-1zm25 0h1v4h-1zm50 0h1v4h-1zm-76 1h1v1h-1zm1 0h1v1h-1zm65 0h1v1h-1zm1 0h1v2h-1zm0 2h1v1h-1zm-41 1h1v1h-1zm40 0h1v6h-1zm10 0h1v1h-1zm15 0h1v1h-1zm-75 1h1v2h-1zm9 0h1v1h-1zm66 0h1v1h-1zm21 0h1v2h-1zm9 0h1v1h-1zM35 76h1v1h-1zm7 0h1v1h-1zm1 0h1v1h-1zm42 0h1v2h-1zm7 0h1v1h-1zm46 0h1v2h-1zM9 77h1v3H9zm10 0h1v2h-1zm15 0h1v1h-1zm8 0h1v1h-1zm88 0h1v1h-1zm1 0h1v1h-1zm6 0h1v1h-1zm-52 1h1v2h-1zm53 0h1v1h-1zm-95 1h1v1h-1zM9 80h1v1H9zm9 0h1v1h-1zm66 0h1v1h-1zm1 0h1v1h-1zm22 0h1v1h-1zm1 0h1v1h-1zm21 0h1v1h-1z" fill="#10181f"/></svg>