<svg xmlns="http://www.w3.org/2000/svg" role="img" viewBox="-4.81 -2.81 302.38 91.13"><title>TianoCore logo</title><style>svg {enable-background:new 0 0 295 85}</style><g id="XMLID_53_"><path id="XMLID_54_" fill="#000" d="M272.18048 52.35995c1.2843 1.69217 3.00684 3.07845 5.13074 3.71193 4.80533 1.434 9.88403-.97625 11.9645-5.45834l2.7227.81138c-2.47971 5.979-9.10953 9.18979-15.47687 7.28935-6.76868-2.01759-10.61728-9.14206-8.58667-15.9498 2.01974-6.77085 8.90957-9.97066 15.51577-7.99939 3.3624 1.00364 5.90747 3.1697 7.4701 6.06204l.65847 1.21537-19.39874 10.31746zm-1.44485-8.76024c-.64652 2.16294-.60096 4.35626.09329 6.26537l16.8713-8.93633c-1.17513-1.62614-2.90927-2.95373-5.01818-3.5826-5.12403-1.52874-10.36923.96661-11.94641 6.25356z"/></g><g id="XMLID_48_"><path id="XMLID_49_" fill="#f60" d="M42.93838 42.82417c11.0745-6.11866 27.89017-14.89626 27.89017-14.89626s1.19808-2.36781-.29762-4.95854c-1.49583-2.59073-4.14541-2.73704-4.14541-2.73704s-16.0096 10.17364-26.84559 16.70545c.2385-12.6498 1.04446-31.6017 1.04446-31.6017s-1.4515-2.22152-4.44304-2.22152-4.44303 2.22152-4.44303 2.22152.80595 18.9519 1.04445 31.6017C21.90678 30.40597 5.8972 20.23233 5.8972 20.23233s-2.64958.1463-4.14542 2.73703c-1.4957 2.59073-.29762 4.95855-.29762 4.95855s16.81568 8.7776 27.89018 14.89626C18.26983 48.94283 1.45415 57.72043 1.45415 57.72043s-1.1917 2.3788.29762 4.95855C3.24124 65.25873 5.8972 65.416 5.8972 65.416s16.00959-10.17364 26.84558-16.70544c-.2385 12.64979-1.04445 31.6017-1.04445 31.6017s1.46424 2.22151 4.44303 2.22151 4.44304-2.22152 4.44304-2.22152-.80596-18.9519-1.04446-31.6017c10.836 6.53181 26.8456 16.70545 26.8456 16.70545s2.65594-.15728 4.1454-2.73703c1.48933-2.57975.29762-4.95855.29762-4.95855s-16.81568-8.7776-27.89017-14.89626zm-10.13703 1.92837l-.00054.0004.00054-.0004zm6.68.00014v-.00014l.00082.00054-.00081-.0004z"/></g><path id="XMLID_17_" fill="#d85700" d="M32.80162 44.7524l-.00013.00014-.00136.00068-.00068.0004L1.75177 62.67898C3.24124 65.25873 5.8972 65.416 5.8972 65.416s16.00959-10.17364 26.84558-16.70544c-.2385 12.64979-1.04445 31.6017-1.04445 31.6017s1.46424 2.22151 4.44303 2.22151v-35.8507l-.00013-.0023h.00013v-3.85661l-3.33973 1.92824z"/><path id="XMLID_16_" fill="#d85700" d="M39.48326 44.75362c.01057 1.2134.02982 2.53664.05626 3.9404l.00041.01655c10.836 6.5318 26.8456 16.70544 26.8456 16.70544s2.65594-.15728 4.1454-2.73703L39.48326 44.75362z"/><path id="XMLID_15_" fill="#d85700" d="M39.48326 40.89472c1.05611.59754 2.21175 1.24255 3.4406 1.92145.00475.00258.00977.00542.01452.008 11.0745-6.11866 27.89017-14.89626 27.89017-14.89626s1.19808-2.36781-.29762-4.95854L39.48136 40.8958v.00014l.0019-.00122z"/><path id="XMLID_14_" fill="#d85700" d="M32.79945 40.89472l.0019.00121v-.00013L1.75177 22.96936c-1.4957 2.59073-.29762 4.95855-.29762 4.95855s16.81568 8.7776 27.89018 14.89626c.00475-.00258.00976-.00542.0145-.008 1.22887-.6789 2.3845-1.3239 3.44062-1.92145z"/><path id="XMLID_13_" fill="#d85700" d="M36.14135 38.96526V3.11456c-2.99153 0-4.44303 2.22152-4.44303 2.22152s.80595 18.9519 1.04446 31.6017c.0046.0027.00962.00583.01423.00854 1.20255.72487 2.3388 1.4031 3.38434 2.01894z"/><path id="XMLID_40_" fill="#000" d="M108.515 26.34756c1.00228 0 1.88091.87862 1.88091 1.88091 0 1.00446-.87863 1.88091-1.88091 1.88091-1.00229 0-1.88091-.87645-1.88091-1.8809 0-1.0023.87862-1.88092 1.8809-1.88092zm1.42099 7.85775v24.20021H107.094V34.20531h2.84198z"/><path id="XMLID_37_" fill="#000" d="M138.23212 53.51558c-1.92212 2.8832-5.0982 5.60152-9.99031 5.60152-7.06157 0-12.87135-5.72735-12.87135-12.8323 0-7.06373 5.80978-12.7889 12.87135-12.7889 4.8921 0 8.06819 2.67493 9.9903 5.59935V34.2053h2.84199v24.20021h-2.84198v-4.88994zm-9.99031-17.26232c-5.51692 0-9.94693 4.51463-9.94693 10.03155 0 5.55812 4.43001 10.07275 9.94693 10.07275 5.47569 0 9.9903-4.51463 9.9903-10.07276 0-5.5169-4.51461-10.03153-9.9903-10.03153z"/><path id="XMLID_35_" fill="#000" d="M146.92728 34.2053h2.84198v4.47341c.83523-2.13257 4.0547-5.18282 8.15062-5.18282 6.22633 0 9.65405 3.9701 9.65405 9.65406v15.25557h-2.84198V43.14995c0-4.09592-3.13486-6.89668-7.23077-6.89668-4.01131 0-7.6061 3.26068-7.73192 7.23077v14.92148h-2.84198V34.20531z"/><path id="XMLID_32_" fill="#000" d="M171.3401 46.2848c0-7.06373 5.80979-12.7889 12.87134-12.7889 7.10712 0 12.87352 5.72517 12.87352 12.7889 0 7.10495-5.7664 12.8323-12.87352 12.8323-7.06155 0-12.87134-5.72735-12.87134-12.8323zm22.82044 0c0-5.5169-4.3888-10.03153-9.9491-10.03153-5.47351 0-9.94693 4.51462-9.94693 10.03153 0 5.55813 4.47342 10.07276 9.94693 10.07276 5.5603 0 9.9491-4.51463 9.9491-10.07276z"/><path id="XMLID_30_" fill="#000" d="M219.95096 39.22107c-1.7963-1.7963-4.3454-2.9678-7.10494-2.9678-5.47569 0-9.90571 4.51462-9.90571 10.03153 0 5.55813 4.43002 10.07276 9.90571 10.07276 2.75954 0 5.30864-1.16933 7.10494-2.9678l2.00674 1.96551c-2.38205 2.33867-5.55812 3.76183-9.11168 3.76183-7.10495 0-12.83014-5.72735-12.83014-12.8323 0-7.06373 5.7252-12.7889 12.83014-12.7889 3.55356 0 6.72963 1.3776 9.11168 3.76182l-2.00674 1.96335z"/><path id="XMLID_27_" fill="#000" d="M223.88419 46.2848c0-7.06373 5.80978-12.7889 12.87133-12.7889 7.10712 0 12.87352 5.72517 12.87352 12.7889 0 7.10495-5.7664 12.8323-12.87352 12.8323-7.06155 0-12.87133-5.72735-12.87133-12.8323zm22.82043 0c0-5.5169-4.3888-10.03153-9.9491-10.03153-5.47352 0-9.94693 4.51462-9.94693 10.03153 0 5.55813 4.4734 10.07276 9.94693 10.07276 5.5603 0 9.9491-4.51463 9.9491-10.07276z"/><path id="XMLID_25_" fill="#000" d="M266.3924 33.95582l-.91987 2.63154c-.62698-.20826-1.25393-.3341-1.92212-.3341-3.59478 0-6.478 2.96781-6.478 6.52138v15.63088h-2.84197V34.20531h2.84198v3.21946c1.08691-2.17379 3.42773-3.92888 6.478-3.92888.96106 0 1.92211.16705 2.84198.45993z"/><path id="XMLID_1_" fill="#000" d="M95.38766 28.73734a1916.1419 1916.1419 0 0 0-2.84198 1.514v3.95397H89.7037v2.84198h2.84198v15.67427c0 3.5514 2.59249 5.68396 5.68396 5.68396h2.17378v-2.84198h-2.17378c-1.54466 0-2.84198-.87863-2.84198-2.84198V37.0473h5.01576v-2.842h-5.01576v-5.46797z"/></svg>