<svg xmlns="http://www.w3.org/2000/svg" role="img" xmlns:xlink="http://www.w3.org/1999/xlink" viewBox="-3.19 2.81 204.62 122.12"><title>Tiempo SAS (member) logo</title><defs><path d="M35.89063-43.03906v5.1289H21.38672V0h-5.91797v-37.91016h-14.5v-5.1289zm0 0" id="a"/><path d="M3.86719-31.23047h5.35937V0H3.8672zm0-11.8086h5.35937v5.97657H3.8672zm0 0" id="b"/><path d="M16.9336-32.07813c2.22656 0 4.38671.51954 6.47265 1.56641 2.08984 1.04297 3.6836 2.39453 4.77734 4.0586 1.0547 1.58203 1.75782 3.42578 2.10938 5.53515.3125 1.44531.46875 3.75.46875 6.91406H7.76562c.09766 3.1836.84766 5.73828 2.25391 7.66016 1.40625 1.92578 3.58203 2.88672 6.53516 2.88672 2.7539 0 4.94922-.91016 6.58984-2.72266.9375-1.05469 1.60156-2.27734 1.99219-3.66406h5.1836c-.13673 1.15234-.58985 2.4375-1.35938 3.85156-.77344 1.41797-1.63672 2.57422-2.59375 3.47266C24.76562-.95703 22.78125.09766 20.42187.64453c-1.26953.3125-2.70703.46875-4.30859.46875-3.90625 0-7.21484-1.42187-9.9336-4.26172-2.71484-2.84375-4.0703-6.82031-4.0703-11.9375 0-5.03906 1.36718-9.13281 4.10156-12.27734 2.73437-3.14453 6.3086-4.71485 10.72265-4.71485zm8.41015 13.88282c-.21484-2.28516-.71484-4.10938-1.4961-5.47657-1.4453-2.53906-3.85546-3.80859-7.23828-3.80859-2.42187 0-4.45312.875-6.09374 2.6211-1.64063 1.75-2.50782 3.96874-2.60547 6.66406zm0 0" id="c"/><path d="M3.86719-31.375h5.21484v4.45313c1.25-1.54297 2.38281-2.66797 3.39844-3.3711 1.73828-1.1914 3.71094-1.78515 5.91797-1.78515 2.5 0 4.51172.61328 6.03515 1.84374.85938.70313 1.64063 1.73829 2.34375 3.10547 1.17188-1.67968 2.55079-2.92578 4.12891-3.73437 1.58203-.8125 3.35938-1.21485 5.33594-1.21485 4.21875 0 7.08593 1.52344 8.60937 4.57032.82032 1.64062 1.23438 3.84375 1.23438 6.61718V0h-5.48047v-21.79688c0-2.08984-.52344-3.52343-1.5664-4.30468-1.04688-.78125-2.32032-1.17188-3.82423-1.17188-2.0703 0-3.85156.6914-5.34765 2.07813C28.375-23.8086 27.625-21.4922 27.625-18.25V0h-5.35938v-20.47656c0-2.1289-.2539-3.6836-.76171-4.66016-.80079-1.46484-2.29297-2.19922-4.48047-2.19922-1.99219 0-3.80469.77344-5.4375 2.3164-1.6289 1.54298-2.44532 4.33595-2.44532 8.37891V0H3.8672zm0 0" id="d"/><path d="M17.10938-3.54688c2.46093 0 4.5078-1.02734 6.13671-3.08984 1.63282-2.0586 2.44922-5.14062 2.44922-9.24219 0-2.5-.36328-4.64843-1.08593-6.4453-1.3672-3.45704-3.8672-5.1836-7.5-5.1836-3.65235 0-6.15235 1.82422-7.5 5.47656-.72266 1.95313-1.08594 4.4336-1.08594 7.4414 0 2.42188.36328 4.48048 1.08593 6.1836 1.3672 3.24219 3.8672 4.85938 7.5 4.85938zM3.45702-31.23046h5.1289v4.16016c1.0547-1.42578 2.20313-2.53125 3.45313-3.3125 1.77735-1.17188 3.86719-1.75782 6.27344-1.75782 3.55469 0 6.57031 1.36329 9.05078 4.08985 2.48047 2.72265 3.72266 6.61328 3.72266 11.67578 0 6.83594-1.78907 11.71875-5.36328 14.64844C23.45703.1289 20.8203 1.05469 17.8125 1.05469c-2.36328 0-4.34375-.51563-5.94531-1.55469-.9375-.58594-1.98438-1.58984-3.13672-3.01563v16.02344H3.45703zm0 0" id="e"/><path d="M16.32031-3.39844c3.4961 0 5.89063-1.32422 7.1914-3.96875 1.29688-2.64844 1.94923-5.59375 1.94923-8.83594 0-2.92968-.46875-5.3125-1.40625-7.14843C22.5703-26.2422 20.0078-27.6875 16.375-27.6875c-3.22266 0-5.5625 1.23438-7.03125 3.69531-1.46484 2.46094-2.19531 5.42969-2.19531 8.90625 0 3.33985.73437 6.1211 2.19531 8.34766 1.46484 2.22656 3.78906 3.33984 6.97656 3.33984zm.20313-28.88672c4.04297 0 7.46093 1.34766 10.2539 4.04297 2.79297 2.69532 4.19141 6.66016 4.19141 11.89453 0 5.0586-1.23438 9.23829-3.69531 12.53907C24.8125-.50781 20.99609 1.14063 15.8203 1.14063c-4.3164 0-7.74218-1.45704-10.28125-4.37891C3-6.15625 1.72656-10.07813 1.72656-15c0-5.27344 1.33985-9.47266 4.01563-12.59766 2.67578-3.125 6.26953-4.6875 10.78125-4.6875zm0 0" id="f"/><path d="M8.3789-13.88672c.13673 2.4414.71485 4.42578 1.73048 5.94922 1.93359 2.85156 5.33984 4.27344 10.22265 4.27344 2.1875 0 4.17969-.3125 5.97656-.9375 3.47657-1.21094 5.21485-3.375 5.21485-6.5 0-2.34375-.73438-4.01563-2.19532-5.01172-1.48437-.97656-3.8125-1.82422-6.97656-2.55078l-5.82812-1.3164c-3.8086-.85938-6.5039-1.8086-8.08594-2.83985-2.73438-1.79688-4.10156-4.48438-4.10156-8.0586 0-3.86718 1.33594-7.04296 4.01562-9.51953 2.67578-2.48047 6.46094-3.72265 11.36719-3.72265 4.51172 0 8.34375 1.08984 11.4961 3.26562 3.15624 2.17969 4.73046 5.66016 4.73046 10.44531h-5.47656c-.29297-2.30468-.91797-4.07421-1.875-5.30078-1.77734-2.2461-4.79688-3.3711-9.05469-3.3711-3.4375 0-5.90625.72266-7.41015 2.16798C10.625-35.46875 9.875-33.78906 9.875-31.875c0 2.10938.875 3.65234 2.63281 4.6289 1.15235.625 3.76172 1.40626 7.82422 2.34376l6.03516 1.3789c2.91015.66407 5.15625 1.57032 6.73828 2.72266 2.73437 2.01172 4.10156 4.9336 4.10156 8.76172 0 4.76562-1.73437 8.17187-5.19922 10.22265-3.46875 2.05079-7.4961 3.07422-12.08593 3.07422-5.35157 0-9.53907-1.36719-12.57032-4.10156-3.02734-2.71484-4.50781-6.39453-4.45312-11.04297zm0 0" id="g"/><path d="M26.66016-17.63672L20.125-36.64844l-6.9414 19.01172zm-9.58204-25.40234h6.59376L39.28905 0h-6.39062l-4.36328-12.89063H11.51562L6.85548 0H.8789zm0 0" id="h"/></defs><use y="50" xlink:href="#a"/><use x="36.65" y="50" xlink:href="#b"/><use x="49.98" y="50" xlink:href="#c"/><use x="83.35" y="50" xlink:href="#d"/><use x="133.33" y="50" xlink:href="#e"/><use x="166.699" y="50" xlink:href="#f"/><g><use y="120" xlink:href="#g"/><use x="40.02" y="120" xlink:href="#h"/><use x="80.039" y="120" xlink:href="#g"/></g></svg>