<svg xmlns="http://www.w3.org/2000/svg" role="img" viewBox="-8.02 -8.02 404.30 112.55"><title>TinyEMU logo</title><path fill-rule="evenodd" stroke="#000" stroke-linecap="round" stroke-width=".25mm" d="M263.5 73.501h-9v-70h13.3l19.4 44.3 19.1-44.3h13.6v70h-9.5v-57.9l-18.7 42.1h-9.4l-18.8-42.1v57.9zm-22.5 0h-42v-70h42v8.2h-32.5v21.3h28v8h-28v24.3H241v8.2zm95.4-26.6v-43.4h9.5v41.9a39.482 39.482 0 0 0 .4 5.81q.881 5.908 3.7 9.69a13.242 13.242 0 0 0 8.456 5.156 20.418 20.418 0 0 0 3.844.344 21.386 21.386 0 0 0 5.004-.549A13.455 13.455 0 0 0 375 61.051a17.382 17.382 0 0 0 2.796-5.395q.79-2.419 1.135-5.362a42.042 42.042 0 0 0 .269-4.893v-41.9h9.2v43a39.957 39.957 0 0 1-.622 7.231 28.663 28.663 0 0 1-2.628 7.919q-3.25 6.35-9.1 9.7a25.023 25.023 0 0 1-8.561 2.954 32.816 32.816 0 0 1-5.189.396 32.706 32.706 0 0 1-8.005-.925 22.492 22.492 0 0 1-10.995-6.275q-6.112-6.378-6.81-17.619a48.096 48.096 0 0 1-.09-2.981zm-198.2 47.8l2-7.5a9.908 9.908 0 0 0 1.165.574q.823.344 1.835.626a13.514 13.514 0 0 0 2.279.417 17.358 17.358 0 0 0 1.721.083q4.2 0 7.5-2.7a12.003 12.003 0 0 0 1.933-2.062q1.748-2.311 3.408-6.163a58.58 58.58 0 0 0 .959-2.375l2.3-6h-4.8l-20.3-45.7 8-3.6 19.4 43.3 15.1-42.9 8.3 3.2-19.1 52.2a71.728 71.728 0 0 1-2.053 5.086q-1.102 2.439-2.269 4.428a30.86 30.86 0 0 1-1.978 2.986 24.268 24.268 0 0 1-2.878 3.21q-1.914 1.768-4.017 2.808a14.737 14.737 0 0 1-.605.282q-4.1 1.8-9.1 1.8-3 0-5.25-.6t-3.55-1.4zm-42.7-21.2h-9v-52h8.7v8.7q2.8-4.2 7.15-7.05a17.316 17.316 0 0 1 7.106-2.625 22.629 22.629 0 0 1 3.244-.225 23.225 23.225 0 0 1 5.065.517q5.094 1.139 8.085 4.783 4.125 5.025 4.338 13.108a33.764 33.764 0 0 1 .012.892v33.9h-9v-32.9a19.265 19.265 0 0 0-.342-3.741q-.439-2.215-1.439-3.963a10.966 10.966 0 0 0-.869-1.296 8.579 8.579 0 0 0-6.277-3.354 12.061 12.061 0 0 0-1.073-.046 13.122 13.122 0 0 0-6.849 1.964 17.353 17.353 0 0 0-1.851 1.286q-4.1 3.25-7 7.65v34.4zm-64.5 0h-9.5v-61.6H0v-8.4h52.5v8.4H31v61.6zm39.5 0h-9v-52h9v52zm-8.863-62.712A5.973 5.973 0 0 0 66 12.601a8.175 8.175 0 0 0 1.496-.131 5.647 5.647 0 0 0 3.104-1.619q1.7-1.75 1.7-4.55a7.26 7.26 0 0 0 0-.081 6.06 6.06 0 0 0-1.85-4.369 7.395 7.395 0 0 0-.058-.058A6.059 6.059 0 0 0 66 .001a8.264 8.264 0 0 0-1.656.157A5.661 5.661 0 0 0 61.4 1.701a5.588 5.588 0 0 0-1.471 2.632 7.987 7.987 0 0 0-.229 1.968 5.992 5.992 0 0 0 .492 2.418 6.643 6.643 0 0 0 1.358 1.982 7.466 7.466 0 0 0 .087.088z" vector-effect="non-scaling-stroke"/></svg>