<svg xmlns="http://www.w3.org/2000/svg" role="img" viewBox="-4.66 -4.66 242.06 55.31"><title>Trilinear Technologies, Inc. (member) logo</title><g fill="#231f20" data-name="Group 196"><g data-name="Group 196"><path d="M227.3 12.971c-3.01 0-5.6-.007-7.3-.007v28.985a.9.9 0 0 1-.95.988h-2.053v3.219h11.076v-3.219h-2.053a.893.893 0 0 1-.951-.988v-4.207h-.022V21.43c0-2.121.27-5.242 4.141-5.242h3.594v-3.216z" data-name="Path 118"/><path d="M47.889 12.971c-3.01 0-5.6-.007-7.3-.007v28.985a.9.9 0 0 1-.951.988h-2.057v3.219h11.076v-3.219h-2.053a.893.893 0 0 1-.951-.988v-4.207h-.022V21.43c0-2.121.27-5.242 4.141-5.242h3.594v-3.216z" data-name="Path 119"/><path d="M178.688 28.508c0-7.768-1.937-15.537-12.158-15.537-8.393 0-13.343 6.1-13.343 16.479 0 11.712 4.842 16.69 14.042 16.69a24.107 24.107 0 0 0 10.682-3.409l.046-.014v-6.065h-2.585c-1.293 4.993-5.943 5.171-8.237 5.171a8.48 8.48 0 0 1-.97-.049c-5.022-.453-8.082-3.442-8.082-10.852h20.606zm-15.265-1.642a4.5 4.5 0 0 1-4.016-1.924 4.287 4.287 0 0 1-.049-4.164c1.171-2.306 3.186-3.6 6.63-3.6 6.725 0 8.073 4.922 8.073 9.69z" data-name="Path 120"/><path d="M61.744 0v3.108h1.043a3.714 3.714 0 0 1 3.358 2.771H69v-5.88z" data-name="Path 122"/><path d="M107.117 0v3.108h-1.043a3.714 3.714 0 0 0-3.358 2.771H99.86v-5.88z" data-name="Path 123"/><path d="M0 .014v5.88h3.625a3.764 3.764 0 0 1 3.764-2.8h6.945a3.718 3.718 0 0 1 3.7 3.6V41.95a.9.9 0 0 1-.95.988H15.03v3.219h11.076v-3.219h-2.053a.893.893 0 0 1-.95-.988V3.093H33.44a3.752 3.752 0 0 1 3.586 2.737.259.259 0 0 0 .013.063h3.548V.013z" data-name="Path 124"/><path d="M61.687 12.971c3.01 0 5.6-.007 7.3-.007v28.985a.9.9 0 0 0 .95.988h2.053v3.219H60.921v-3.219h2.053a.893.893 0 0 0 .951-.988v-4.207h.022V21.43c0-2.121-.27-5.242-4.141-5.242h-.011v-3.216z" data-name="Path 125"/><path d="M107.123 12.971c-3.01 0-5.6-.007-7.3-.007v28.985a.9.9 0 0 1-.951.988h-2.053v3.219h11.076v-3.219h-2.058a.893.893 0 0 1-.951-.988v-4.207h-.022V21.43c0-2.121.27-5.242 4.141-5.242h.011v-3.216z" data-name="Path 126"/><path d="M87.906 42.937a.893.893 0 0 1-.951-.988V0h-7.587v3.217h1.635c.684 0 .89.342.89 1.642v37.09a.9.9 0 0 1-.951.988h-2.053v3.219h11.076v-3.219z" data-name="Path 127"/><path d="M210.478 42.917a.893.893 0 0 1-.951-.989v-4.211l-.02-13.629c0-5.208-2.053-8.187-5.108-9.72a14.4 14.4 0 0 0-6.019-1.394c-.292-.013-.583-.013-.887-.013a41.519 41.519 0 0 0-10.937 1.875v6.945h2.585c1.293-4.993 5.943-5.17 8.237-5.17a8.411 8.411 0 0 1 1 .051c3.865.355 5.753 2.813 6.019 5.69 0 .054.038 4.737.038 4.737h-7.414c-8.415 0-12.47 4.765-12.47 10 0 6.184 4.815 9.124 9.593 9.124a18.59 18.59 0 0 0 7.655-1.825 15.9 15.9 0 0 0 2.658-1.6v3.34h6.47v-3.211zm-6.054-10.813c0 6.651-4.115 9.984-9.457 9.984-3.231 0-6.081-1.425-6.081-5.366 0-4.524 4.487-5.574 8.669-5.574h6.882s-.013.278-.013.952z" data-name="Path 128"/></g><path d="M147.247 42.938a.894.894 0 0 1-.951-.988V24.883c0-7.528-5.136-11.983-12.047-11.983-6.5 0-9 2.692-10.331 4.277v-4.2h-6.464v3.215h.508a.884.884 0 0 1 .882.882v20.67h-.014v4.209a.9.9 0 0 1-.949.988h-2.052v3.219h11.075v-3.219h-2.054a.893.893 0 0 1-.949-.988V25.699c0-4.728 4.9-8.29 10.094-8.29 4.791 0 7.223 2.386 7.223 7.86V41.95a.9.9 0 0 1-.951.988h-2.052v3.222h11.075v-3.219z" data-name="Path 129"/></g></svg>