<svg xmlns="http://www.w3.org/2000/svg" role="img" xmlns:xlink="http://www.w3.org/1999/xlink" viewBox="2.73 4.73 111.80 48.55"><title>UEx (member) logo</title><defs><path d="M10.89844-43.03906v26.60156c0 3.125.58593 5.72656 1.75781 7.79688 1.73828 3.125 4.66797 4.6875 8.78906 4.6875 4.9414 0 8.30078-1.69141 10.07813-5.07032.95703-1.83593 1.4375-4.30468 1.4375-7.41406v-26.60156H38.875v24.17187c0 5.29297-.71094 9.36719-2.13672 12.21875-2.61719 5.19531-7.5586 7.78906-14.82422 7.78906S9.71875-1.45313 7.1172-6.64844C5.6914-9.5 4.98047-13.57422 4.98047-18.86719v-24.17187zm0 0" id="a"/><path d="M5.125-43.03906h31.3789v5.27343H10.8125v13.07032h23.75781v4.97656H10.8125V-5.125h26.13281V0H5.125zm0 0" id="b"/><path d="M.8789-31.375h6.82423l7.21093 11.04297L22.20703-31.375l6.41797.14453-10.57813 15.14453L29.09376 0h-6.74219L14.5625-11.77734 7 0H.32031L11.3672-16.08594zm0 0" id="c"/></defs><use y="50" xlink:href="#a"/><use x="43.33" y="50" xlink:href="#b"/><use x="83.35" y="50" xlink:href="#c"/></svg>