<svg xmlns="http://www.w3.org/2000/svg" role="img" viewBox="217.70 118.70 1263.60 470.60"><title>UltraRISC Technology (Shanghai) Co., Ltd. (member) logo</title><defs><style>.cls-1{fill:#152139}.cls-2{fill:#e50012}.cls-3{fill:#1e2678}.cls-5{fill:#00aeeb}</style></defs><path d="M849.62 419.36V449h-24.29v-35.1H802.2c-3 0-5.36 2.88-5.36 6.43v27.9c0 6.33 4.27 11.45 9.54 11.45h62.19v-45.74h-14.43c-2.49 0-4.52 2.43-4.52 5.42zm32.38 1.81v38.55h25.54v-45.78H888c-3.32 0-6 3.24-6 7.23z" class="cls-1"/><path d="M1259.16 424.26L1246 459.72h29.11l16.93-45.78h-19.69c-5.68 0-10.87 4.06-13.19 10.32z" class="cls-2"/><path d="M1234 434.93v-10.87c0-5.59-3.78-10.12-8.43-10.12h-60.11c-4.66 0-8.43 4.53-8.43 10.12v35.66h26.23v-33a2 2 0 0 1 1.78-2.14h20.64a2 2 0 0 1 1.78 2.14v10.07h-16.06l20.14 22.89h27.79L1225.59 445c4.65 0 8.41-4.48 8.41-10.07zm-270.59-19.72h-28.52v11.57h-18.61v10.68h18.61v6c0 9 6.05 16.22 13.51 16.22h24.15l-5.31-5a13.15 13.15 0 0 1-3.83-9.51v-7.71H985v-10.68h-21.59zm94.68 4.44a33.91 33.91 0 0 0-9.91-2.56 143.92 143.92 0 0 0-16.66-.74h-35.14v43.23h23.72v-29.24c0-2.62 1.77-4.75 4-4.75h2.87c6 0 11.76.55 13.92 1.67s3.25 3.2 3.25 6.26v2.34h21v-4.2q0-4.95-1.56-7.59a11.63 11.63 0 0 0-5.49-4.42zm71.23-3.3h-46c-4.23 0-7.65 4.11-7.65 9.19h38.95c3.54 0 6.4 3.43 6.4 7.68h-39.31c-6 0-10.9 5.85-10.9 13.07s4.88 13.06 10.9 13.06h57.78v-30.83c-.03-6.72-4.57-12.17-10.17-12.17zm-8.32 33.82h-28.08c-1.8 0-3.26-1.75-3.26-3.91s1.46-3.9 3.26-3.89H1121zm246.33-18.59h-43.17c-2.15 0-3.9-2.1-3.9-4.68s1.75-4.67 3.9-4.67h50.21c0-4.58-3.09-8.29-6.91-8.29h-55.39c-6.1 0-11 5.94-11 13.26 0 7.33 5 13.27 11 13.27h43.35c2.23 0 4 2.17 4 4.85s-1.81 4.85-4 4.85h-52.17v9.55h64.08c6.47 0 11.72-6.3 11.72-14.07 0-7.77-5.25-14.07-11.72-14.07zm49-9.08h41.06c0-4.73-3.19-8.56-7.13-8.56h-50c-6.7 0-12.12 6.51-12.12 14.55v16.69c0 8 5.42 14.54 12.12 14.54h57.13v-8.15h-41.06c-3.92 0-7.09-3.81-7.09-8.51V431c0-4.69 3.17-8.5 7.09-8.5zM1050.2 262v-1a.54.54 0 0 1 .54-.53h46.15a.53.53 0 0 0 .53-.53v-6.08a.53.53 0 0 0-.53-.53h-46.15a.54.54 0 0 1-.54-.53v-2.36a.53.53 0 0 0-.53-.53h-22.93a.53.53 0 0 0-.53.53V262a.53.53 0 0 1-.53.53h-51a.53.53 0 0 0-.53.53v17.49a.54.54 0 0 0 .53.54h20.85a.54.54 0 0 0 .53-.54v-7.15a.53.53 0 0 1 .53-.53H1082a.53.53 0 0 1 .53.53v7.15a.54.54 0 0 0 .53.54h20.85a.54.54 0 0 0 .54-.54v-17.48a.53.53 0 0 0-.54-.53h-53.13a.54.54 0 0 1-.58-.54zm-39.89 25.66h-19a.54.54 0 0 0-.36.14l-15.77 14.77a.53.53 0 0 0 .36.92h19a.55.55 0 0 0 .37-.14l15.77-14.77a.53.53 0 0 0-.37-.92z" class="cls-1"/><path d="M1058.29 285.51h17.76a.53.53 0 0 0 .53-.53v-7.77a.53.53 0 0 0-.53-.53h-73.53a.53.53 0 0 0-.53.53V285a.53.53 0 0 0 .53.53h17.75a.53.53 0 0 1 .37.92l-24.95 23.35a.55.55 0 0 1-.36.15H974.9a.53.53 0 0 0-.51.7l3.61 10.77a.52.52 0 0 0 .5.36h7.29a.53.53 0 0 1 .53.53v35.08a.53.53 0 0 0 .53.53h104.59a.53.53 0 0 0 .53-.53v-35.08a.54.54 0 0 1 .54-.53h7.49a.52.52 0 0 0 .5-.36l3.64-10.79a.53.53 0 0 0-.5-.7h-20.43a.56.56 0 0 1-.37-.15l-24.94-23.35a.53.53 0 0 1 .39-.92zm12.22 50.55h-62.66a.53.53 0 0 1-.53-.53v-4.13a.54.54 0 0 1 .53-.54h62.66a.54.54 0 0 1 .53.54v4.13a.53.53 0 0 1-.53.53zm-63.19-12v-2.38a.52.52 0 0 1 .17-.39l2-1.87a.51.51 0 0 1 .37-.15h58.85a.51.51 0 0 1 .36.15l1.8 1.68a.52.52 0 0 1 .17.39V324a.54.54 0 0 1-.53.54h-62.66a.54.54 0 0 1-.53-.54zm24.9-25.73h14.12a.56.56 0 0 1 .37.15l12 11.21a.53.53 0 0 1-.37.92h-38.06a.53.53 0 0 1-.37-.92l12-11.21a.55.55 0 0 1 .31-.17zm-24.9 49.81v-5.24a.53.53 0 0 1 .53-.53h62.66a.53.53 0 0 1 .53.53v5.24a.53.53 0 0 1-.53.53h-62.66a.53.53 0 0 1-.53-.55z" class="cls-1"/><path d="M1067.89 288.58l15.78 14.77a.52.52 0 0 0 .36.14h19a.53.53 0 0 0 .37-.92l-15.78-14.77a.52.52 0 0 0-.36-.14h-19a.53.53 0 0 0-.37.92zm91.99-11.58l.39-11.69-17.18.89a1.17 1.17 0 0 1-1.23-1.16v-14.1l5.91 2 51.74-2.73a1.17 1.17 0 0 1 1.23 1.16V262a1.15 1.15 0 0 1-1.09 1.16l-17.65 1.07-.39 12.72h18.25a.92.92 0 0 1 .92.92v9a.92.92 0 0 1-.92.91H1182V296h11.3l6.57 42.46a1.28 1.28 0 0 1-1.26 1.47h-11.31a1.27 1.27 0 0 1-1.26-1.12l-4-32v51.58a.85.85 0 0 1-.84.84h-20a.85.85 0 0 1-.85-.84v-48.72l-4.64 35.6a1.2 1.2 0 0 1-1.19 1.05h-13.35a1.2 1.2 0 0 1-1.19-1.38l8.75-57-5.89-.14a.92.92 0 0 1-.9-.92v-9a.92.92 0 0 1 .92-.92zm106.48 82.17h-18a1.11 1.11 0 0 1-1.11-1.11v-25.75h-42.8a1.1 1.1 0 0 1-1.11-1.11v-11a1.1 1.1 0 0 1 1.11-1.11h42.8l.16-67.82a1.11 1.11 0 0 1 1.11-1.11h18a1.11 1.11 0 0 1 1.11 1.11l-.17 67.82 15.1-.05a1.11 1.11 0 0 1 1.11 1.11v11a1.11 1.11 0 0 1-1.11 1.11l-15.09.05v25.75a1.12 1.12 0 0 1-1.12 1.11" class="cls-1"/><path d="M1240.31 309.81h-20.24l-9.95-20.54h20.23l9.96 20.54zm3.02-29.39h-20.23l-9.8-20.35h20.23l9.8 20.35zm108.35-29.28v19.18h9.08a1.15 1.15 0 0 1 1.15 1.14v8.15a1.16 1.16 0 0 1-1.15 1.16h-9.11v26.94l7.4-1.47a1.15 1.15 0 0 1 1.37 1.12v8a1.16 1.16 0 0 1-.88 1.12l-7.88 1.88v39.54a1.27 1.27 0 0 1-1.29 1.27h-34.22a1.22 1.22 0 0 1-1.12-.82l-3-9.22a1.19 1.19 0 0 1 1.14-1.57h13.34a1.14 1.14 0 0 0 1.14-1.14v-23.23l-14.88 3a1.15 1.15 0 0 1-1.37-1.1l-.14-8.28a1.15 1.15 0 0 1 .92-1.14l15.47-3.11v-31.74h-15.1a1.13 1.13 0 0 1-1.14-1.14v-8.21a1.14 1.14 0 0 1 1.14-1.14h15.1v-19.19a1 1 0 0 1 1-1h22a1 1 0 0 1 1 1M1452 272.07h-29.78a1.21 1.21 0 0 0-1.22 1.23v12.22a1.24 1.24 0 0 0 1.23 1.23H1452a1.14 1.14 0 0 1 1.14 1.14v18.2l-30 23.52 34.33 29.56h-25.57L1409.61 340l-24.42 19.15h-23.93l36.12-29.63-27.07-23.52h26.23l14.5 12.29 21.8-18.06v-2.43h-61.4a1.14 1.14 0 0 1-1.14-1.15v-8.72a1.14 1.14 0 0 1 1.14-1.14h26.69a1.23 1.23 0 0 0 1.23-1.22v-12.28a1.24 1.24 0 0 0-1.23-1.23h-26.63a1.14 1.14 0 0 1-1.15-1.16l.09-8.78a1.14 1.14 0 0 1 1.14-1.13h26.55a1.23 1.23 0 0 0 1.23-1.22v-8.38a1.26 1.26 0 0 1 1.26-1.27h19.09a1.27 1.27 0 0 1 1.26 1.27v8.39a1.24 1.24 0 0 0 1.23 1.22h29.88a1.14 1.14 0 0 1 1.14 1.16l-.08 8.78a1.16 1.16 0 0 1-1.15 1.13M850.13 346v-17.84a.53.53 0 0 1 .53-.53h9.77a.53.53 0 0 0 .53-.54v-9.24a.53.53 0 0 0-.53-.53h-9.77a.53.53 0 0 1-.53-.53v-15.18a.53.53 0 0 1 .53-.53h9.77a.53.53 0 0 0 .53-.53V289.3a.53.53 0 0 0-.53-.53h-15.36a.53.53 0 0 1-.53-.53v-14.9a.53.53 0 0 1 .53-.53h15.36a.53.53 0 0 0 .53-.53V261a.53.53 0 0 0-.53-.53h-15.36a.53.53 0 0 1-.53-.53v-9.91a.53.53 0 0 0-.53-.53h-22.29a.53.53 0 0 0-.53.53V260a.53.53 0 0 1-.53.53h-17.19a.53.53 0 0 0-.53.53v11.25a.53.53 0 0 0 .53.53h17.19a.53.53 0 0 1 .53.53v14.9a.53.53 0 0 1-.53.53h-17.19a.53.53 0 0 0-.53.53v11.25a.53.53 0 0 0 .53.53h25.34a.53.53 0 0 1 .53.53v35a.53.53 0 0 1-.81.45l-4.77-3a.52.52 0 0 1-.25-.48l1.5-24.9a.52.52 0 0 0-.53-.56h-19.31a.53.53 0 0 0-.53.5l-2.29 37.87a.51.51 0 0 1-.53.49h-4.45a.54.54 0 0 0-.53.59l1.1 10.58a.53.53 0 0 0 .53.47h23a.52.52 0 0 0 .53-.5l.57-9.35a.52.52 0 0 1 .82-.4l15.11 10.16a.53.53 0 0 0 .3.09h101.1a.53.53 0 0 0 .53-.53V347a.53.53 0 0 0-.53-.53h-89.24a.53.53 0 0 1-.53-.47z" class="cls-1"/><path d="M865.67 286.28l1.44 10.58a.54.54 0 0 0 .53.46h23.88a.53.53 0 0 0 .47-.3l15.39-30.53a.54.54 0 0 1 .47-.29h3.91a.53.53 0 0 1 .53.53v18.42a.53.53 0 0 1-.53.53h-5.83a.53.53 0 0 0-.53.59l1.15 10.57a.53.53 0 0 0 .52.48h28.87a.54.54 0 0 0 .53-.54v-42.35a.53.53 0 0 0-.53-.53h-69.82a.53.53 0 0 0-.53.53v11.24a.53.53 0 0 0 .53.53h17.94a.54.54 0 0 1 .48.78l-9.38 18.41a.52.52 0 0 1-.47.29h-8.49a.53.53 0 0 0-.53.6zm70.27 14.8h-69.82a.53.53 0 0 0-.53.53v38.81a.53.53 0 0 0 .53.53h69.82a.53.53 0 0 0 .53-.53v-38.81a.53.53 0 0 0-.53-.53zm-21 28.38h-27.85a.53.53 0 0 1-.53-.53v-17.56a.53.53 0 0 1 .53-.54H915a.53.53 0 0 1 .53.54v17.56a.53.53 0 0 1-.53.53z" class="cls-1"/><path d="M614.87 283.62L552.85 203l-112.04-59.75-66.06 35.22v52.85L308.7 213.7l-66.06 35.23v211.38L440.81 566l66.05-35.23v-52.84l66.06 17.61 66.05-35.23V320.28l-24.1-36.66z" class="cls-3"/><path d="M308.7 213.7v189.19l66.05 10.52V178.47l66.06-35.22V566L242.64 460.31V248.93l66.06-35.23z" class="cls-3"/><path fill="#fff" d="M308.7 402.89l66.05-6.03v16.55l-66.05-10.52z"/><path d="M308.7 213.7v189.19l66.05-6.03V231.32L308.7 213.7z" class="cls-5"/><path d="M638.97 293.21v-44.28l-33-17.59 33 61.87z" class="cls-2"/><path d="M639 320.28l-72.25-109.87-125.94-67.16V566l66.05-35.23v-88.13l54.53-14.53 11.53 11.82v55.61L639 460.31V431l-13.23-20 13.2-3.51zm-66.05 34.34h-66.09v-87.91l66.06 17.58z" class="cls-5"/><path d="M638.97 309.61v-60.68l-49.19-26.23-12.23-6.52 61.42 93.43z" class="cls-2"/></svg>