<svg xmlns="http://www.w3.org/2000/svg" role="img" viewBox="54.29 146.79 764.92 281.42"><title>Universitatea Politehnica Timisoara (member) logo</title><defs><clipPath id="a"><path d="M0 566.929h850.394V0H0z" transform="matrix(1 0 0 -1 0 566.929)"/></clipPath></defs><g clip-path="url(#a)" data-name="Layer 1"><path fill="#808285" fill-rule="evenodd" d="M185.276 219.84h-19.328v135.48h19.328zm-38.852 193.505V200.516h38.545c12.61 0 19.684 6.065 19.684 18.197v137.078c0 12.61-7.074 18.917-19.684 18.917h-19.021v38.652h-14.485z"/><path fill="#808285" d="M126.848 355.32c0 12.614-6.307 19.28-18.917 19.28H87.916c-11.813 0-18.12-6.429-18.916-18.56V200.516h18.916l.417 154.804h19.598V200.516h18.917z"/><path fill="#2e3092" d="M223.82 413.718l.148-38.944 19.068-.015.056-154.86 19.44-.017v-19.24l-38.715-.102.003-38.611h581.043l.136 251.652z"/><path fill="#fff" d="M287.553 374.26v-47.539h-5.281v-3.998h15.276v3.998h-5.283v47.539z"/><path fill="#fff" fill-rule="evenodd" d="M302.115 322.723h4.712v5.424h-4.712zm.143 12.634h4.426v38.903h-4.426z"/><path fill="#fff" d="M312.536 374.26v-38.903h4.14v2.641h.144c1.38-2.045 3.092-3.069 5.139-3.069 1.808 0 3.188.809 4.14 2.427 1.333-1.618 2.856-2.427 4.569-2.427 1.712 0 3.022.571 3.926 1.713.903 1.095 1.356 2.475 1.356 4.14v33.478h-4.426v-31.979c0-2.236-.737-3.355-2.213-3.355-1.903 0-2.855 1.19-2.855 3.569v31.765h-4.425v-31.979c0-2.236-.739-3.355-2.214-3.355-1.904 0-2.855 1.19-2.855 3.569v31.765z"/><path fill="#fff" fill-rule="evenodd" d="M341.659 322.723h4.712v5.424h-4.712zm.144 12.634h4.425v38.903h-4.425z"/><path fill="#fff" fill-rule="evenodd" d="M354.937 384.11l1.784-8.208h3.712l-2.784 8.208zm5.996-37.189v-5.781c0-1.761-.761-2.642-2.284-2.642-1.523 0-2.284.928-2.284 2.784v4.355c0 1.047.547 2.331 1.641 3.855l5.568 7.78c1.047 1.475 1.57 2.902 1.57 4.283v6.566c0 4.379-2.212 6.567-6.638 6.567-4.378 0-6.568-2.021-6.568-6.067v-6.781h4.427v5.996c0 2.189.737 3.284 2.212 3.284 1.428 0 2.142-1.119 2.142-3.355v-4.712c0-1.38-.547-2.807-1.642-4.283l-5.068-6.924c-1.38-1.903-2.071-3.64-2.071-5.21v-4.997c0-2.094.643-3.736 1.928-4.925 1.285-1.19 2.951-1.785 4.996-1.785 2.142 0 3.761.642 4.855 1.928.904.999 1.356 2.212 1.356 3.64v6.424z"/><path fill="#fff" fill-rule="evenodd" d="M370.354 367.193v-24.77c0-4.996 2.451-7.494 7.352-7.494 4.902 0 7.352 2.498 7.352 7.494v24.77c0 4.997-2.45 7.495-7.352 7.495-4.901 0-7.352-2.498-7.352-7.495m10.279 0v-24.77c0-2.617-.976-3.925-2.927-3.925s-2.927 1.308-2.927 3.925v24.77c0 2.617.976 3.927 2.927 3.927s2.927-1.31 2.927-3.927"/><path fill="#fff" fill-rule="evenodd" d="M400.477 350.205v-8.423c0-2.189-.856-3.284-2.569-3.284-1.904 0-2.856 1.262-2.856 3.783v3.641h-4.426v-4.569c0-1.951.714-3.497 2.142-4.639 1.428-1.19 3.188-1.785 5.283-1.785 4.568 0 6.852 2.26 6.852 6.781v32.55h-4.14v-2.069h-.143c-1.332 1.665-3.046 2.497-5.14 2.497-3.521 0-5.282-2.14-5.282-6.424V357.7c0-4.996 3.427-7.495 10.279-7.495m0 16.918v-13.349c-1.474 0-2.736.286-3.782.857-1.381.761-2.071 1.879-2.071 3.354v8.852c0 2.855.928 4.283 2.784 4.283 2.047 0 3.069-1.332 3.069-3.997"/><path fill="#fff" d="M410.043 374.26v-38.903h4.14v2.713h.143c1.38-2.095 3.355-3.141 5.924-3.141v4.425c-2.141 0-3.64.452-4.496 1.357-.857.856-1.285 2.309-1.285 4.354v29.195z"/><path fill="#fff" fill-rule="evenodd" d="M434.884 350.205v-8.423c0-2.189-.856-3.284-2.569-3.284-1.904 0-2.856 1.262-2.856 3.783v3.641h-4.426v-4.569c0-1.951.714-3.497 2.141-4.639 1.429-1.19 3.189-1.785 5.283-1.785 4.568 0 6.853 2.26 6.853 6.781v32.55h-4.141v-2.069h-.142c-1.332 1.665-3.046 2.497-5.141 2.497-3.521 0-5.281-2.14-5.281-6.424V357.7c0-4.996 3.427-7.495 10.279-7.495m0 16.918v-13.349c-1.475 0-2.736.286-3.783.857-1.38.761-2.07 1.879-2.07 3.354v8.852c0 2.855.927 4.283 2.784 4.283 2.046 0 3.069-1.332 3.069-3.997"/><path fill="#fff" fill-rule="evenodd" d="M286.982 285.833h2.284c2.428 0 3.641-1.071 3.641-3.212v-13.919c0-2.141-1.213-3.212-3.641-3.212h-2.284zm-4.711 27.197v-51.537h7.495c2.999 0 5.044.57 6.139 1.712 1.142 1.142 1.713 3.189 1.713 6.139v12.634c0 2.951-.571 4.997-1.713 6.139-1.095 1.143-3.14 1.713-6.139 1.713h-2.784v23.2z"/><path fill="#fff" fill-rule="evenodd" d="M301.045 305.963v-24.769c0-4.997 2.45-7.495 7.352-7.495s7.352 2.498 7.352 7.495v24.769c0 4.997-2.45 7.495-7.352 7.495s-7.352-2.498-7.352-7.495m10.279 0v-24.769c0-2.618-.976-3.926-2.927-3.926s-2.927 1.308-2.927 3.926v24.769c0 2.618.976 3.927 2.927 3.927s2.927-1.309 2.927-3.927"/><path fill="#fff" d="M321.389 261.493h4.425v51.537h-4.425z"/><path fill="#fff" fill-rule="evenodd" d="M331.81 261.493h4.712v5.424h-4.712zm.143 12.633h4.426v38.90299h-4.426z"/><path fill="#fff" d="M342.731 274.126v-5.211l4.425-1.713v6.924h3.141v3.569h-3.141v29.553c0 1.475.739 2.213 2.214 2.213h.927v3.568h-2.141c-3.617 0-5.425-1.593-5.425-4.781v-30.553h-2.212v-3.569z"/><path fill="#fff" fill-rule="evenodd" d="M364.217 305.963v-5.496h4.425v5.496c0 4.997-2.45 7.495-7.352 7.495-4.901 0-7.352-2.498-7.352-7.495v-24.769c0-4.997 2.451-7.495 7.352-7.495 4.902 0 7.352 2.498 7.352 7.495v13.491h-10.278v11.278c0 2.618.975 3.927 2.926 3.927s2.927-1.309 2.927-3.927m0-15.275v-9.494c0-2.618-.976-3.926-2.927-3.926s-2.926 1.308-2.926 3.926v9.494z"/><path fill="#fff" d="M373.782 313.03v-51.537h4.425v15.275h.143c1.047-2.045 2.712-3.069 4.997-3.069 1.666 0 2.927.57 3.783 1.713.904 1.094 1.356 2.475 1.356 4.14v33.478h-4.425v-31.764c0-2.381-.928-3.57-2.784-3.57-.952 0-1.714.381-2.284 1.142-.524.714-.786 1.523-.786 2.428v31.764z"/><path fill="#fff" d="M393.626 313.03v-38.903h4.14v2.641h.143c1.237-2.045 2.951-3.069 5.14-3.069 1.712 0 3.021.57 3.925 1.713.904 1.094 1.356 2.475 1.356 4.14v33.478h-4.425v-31.764c0-2.381-.928-3.57-2.784-3.57-.952 0-1.713.381-2.284 1.142-.524.714-.786 1.523-.786 2.428v31.764z"/><path fill="#fff" fill-rule="evenodd" d="M413.827 261.493h4.712v5.424h-4.712zm.144 12.633h4.425v38.90299h-4.425z"/><path fill="#fff" d="M432.958 286.476v-5.996c0-2.141-.691-3.212-2.071-3.212-1.617 0-2.427 1.071-2.427 3.212v26.483c0 1.951.738 2.927 2.214 2.927 1.522 0 2.284-.976 2.284-2.927v-6.281h4.425v6.209c0 4.379-2.213 6.567-6.638 6.567-1.903 0-3.498-.499-4.783-1.499-1.284-.999-1.927-2.45-1.927-4.353v-26.412c0-4.997 2.451-7.495 7.352-7.495 3.998 0 5.996 2.094 5.996 6.281v6.496z"/><path fill="#fff" fill-rule="evenodd" d="M452.8 288.974v-8.423c0-2.189-.856-3.284-2.569-3.284-1.904 0-2.856 1.262-2.856 3.783v3.641h-4.426v-4.569c0-1.951.714-3.497 2.141-4.639 1.428-1.19 3.189-1.785 5.283-1.785 4.568 0 6.853 2.26 6.853 6.781v32.55h-4.141v-2.069h-.142c-1.332 1.665-3.046 2.497-5.14 2.497-3.522 0-5.282-2.14-5.282-6.424v-10.564c0-4.996 3.427-7.495 10.279-7.495m0 16.918v-13.349c-1.475 0-2.736.286-3.783.856-1.38.762-2.07 1.88-2.07 3.355v8.852c0 2.855.927 4.283 2.784 4.283 2.046 0 3.069-1.332 3.069-3.997"/><path fill="#fff" d="M294.12 243.376v-43.114h4.711v44.613c0 4.902-2.784 7.352-8.352 7.352-5.472 0-8.208-2.45-8.208-7.352v-44.613h4.71v43.114c0 3.236 1.19 4.854 3.57 4.854s3.569-1.618 3.569-4.854"/><path fill="#fff" d="M305.042 251.8v-38.903h4.14v2.641h.143c1.237-2.045 2.95-3.069 5.139-3.069 1.713 0 3.022.57 3.926 1.713.904 1.094 1.356 2.475 1.356 4.14V251.8h-4.425v-31.765c0-2.38-.928-3.569-2.784-3.569-.952 0-1.714.381-2.284 1.143-.524.713-.786 1.522-.786 2.426V251.8z"/><path fill="#fff" fill-rule="evenodd" d="M325.243 200.262h4.71203v5.425H325.243zm.143 12.634h4.42599v38.903H325.386z"/><path fill="#fff" d="M338.806 251.8l-4.64-38.903h4.14l3.712 32.907h.143l3.712-32.907h4.14l-4.64 38.903z"/><path fill="#fff" fill-rule="evenodd" d="M364.146 244.732v-5.496h4.425v5.496c0 4.997-2.45 7.495-7.351 7.495-4.902 0-7.353-2.498-7.353-7.495v-24.77c0-4.996 2.451-7.494 7.353-7.494 4.901 0 7.351 2.498 7.351 7.494v13.492h-10.279v11.278c0 2.617.977 3.927 2.928 3.927 1.95 0 2.926-1.31 2.926-3.927m0-15.275v-9.495c0-2.617-.976-3.925-2.926-3.925-1.951 0-2.928 1.308-2.928 3.925v9.495z"/><path fill="#fff" d="M373.711 251.8v-38.903h4.14v2.713h.143c1.38-2.095 3.354-3.141 5.924-3.141v4.425c-2.141 0-3.64.452-4.496 1.357-.857.856-1.285 2.308-1.285 4.354V251.8z"/><path fill="#fff" d="M397.339 224.46v-5.781c0-1.762-.762-2.642-2.284-2.642-1.523 0-2.284.928-2.284 2.784v4.355c0 1.047.547 2.331 1.641 3.855l5.568 7.78c1.047 1.475 1.57 2.903 1.57 4.282v6.568c0 4.378-2.212 6.566-6.638 6.566-4.378 0-6.567-2.021-6.567-6.066v-6.782h4.426v5.996c0 2.19.737 3.284 2.212 3.284 1.428 0 2.141-1.119 2.141-3.355v-4.712c0-1.38-.547-2.806-1.641-4.283l-5.068-6.923c-1.38-1.904-2.07-3.641-2.07-5.211v-4.996c0-2.095.642-3.737 1.927-4.926 1.284-1.19 2.951-1.785 4.996-1.785 2.142 0 3.76.642 4.855 1.928.904.999 1.356 2.212 1.356 3.64v6.424z"/><path fill="#fff" fill-rule="evenodd" d="M407.116 200.262h4.712v5.425h-4.712zm.144 12.634h4.426v38.903h-4.426z"/><path fill="#fff" d="M418.038 212.896v-5.211l4.425-1.713v6.924h3.141v3.569h-3.141v29.553c0 1.474.739 2.213 2.214 2.213h.927v3.568h-2.141c-3.617 0-5.425-1.593-5.425-4.781v-30.553h-2.212v-3.569z"/><path fill="#fff" fill-rule="evenodd" d="M439.524 227.744v-8.423c0-2.189-.856-3.284-2.57-3.284-1.904 0-2.856 1.262-2.856 3.783v3.641h-4.425v-4.569c0-1.951.713-3.497 2.141-4.639 1.428-1.19 3.188-1.785 5.283-1.785 4.568 0 6.852 2.26 6.852 6.781v32.55h-4.14v-2.069h-.143c-1.332 1.665-3.045 2.497-5.14 2.497-3.521 0-5.281-2.14-5.281-6.424v-10.564c0-4.996 3.427-7.495 10.279-7.495m0 16.918v-13.349c-1.475 0-2.736.286-3.783.857-1.38.761-2.071 1.879-2.071 3.354v8.852c0 2.855.928 4.283 2.784 4.283 2.047 0 3.07-1.332 3.07-3.997"/><path fill="#fff" d="M449.802 212.896v-5.211l4.426-1.713v6.924h3.14v3.569h-3.14v29.553c0 1.474.738 2.213 2.213 2.213h.927v3.568h-2.141c-3.617 0-5.425-1.593-5.425-4.781v-30.553h-2.212v-3.569z"/><path fill="#fff" fill-rule="evenodd" d="M471.288 244.732v-5.496h4.425v5.496c0 4.997-2.45 7.495-7.352 7.495-4.901 0-7.352-2.498-7.352-7.495v-24.77c0-4.996 2.451-7.494 7.352-7.494 4.902 0 7.352 2.498 7.352 7.494v13.492h-10.278v11.278c0 2.617.975 3.927 2.926 3.927s2.927-1.31 2.927-3.927m0-15.275v-9.495c0-2.617-.976-3.925-2.927-3.925s-2.926 1.308-2.926 3.925v9.495z"/><path fill="#fff" fill-rule="evenodd" d="M491.132 227.744v-8.423c0-2.189-.856-3.284-2.569-3.284-1.904 0-2.856 1.262-2.856 3.783v3.641h-4.426v-4.569c0-1.951.714-3.497 2.141-4.639 1.428-1.19 3.188-1.785 5.283-1.785 4.568 0 6.853 2.26 6.853 6.781v32.55h-4.141v-2.069h-.142c-1.332 1.665-3.046 2.497-5.14 2.497-3.522 0-5.282-2.14-5.282-6.424v-10.564c0-4.996 3.427-7.495 10.279-7.495m0 16.918v-13.349c-1.475 0-2.736.286-3.783.857-1.38.761-2.07 1.879-2.07 3.354v8.852c0 2.855.927 4.283 2.784 4.283 2.046 0 3.069-1.332 3.069-3.997"/></g></svg>