<svg xmlns="http://www.w3.org/2000/svg" role="img" viewBox="-3.23 -3.23 168.09 157.72"><title>University of Arizona (member) logo</title><path fill="#0C234B" d="M7.417 123.945c0 .841.077 1.46.227 1.865.147.4.397.765.743 1.077H3.904c.356-.312.608-.677.752-1.077.147-.405.219-1.024.219-1.865v-11.836h-1.32c-.906 0-1.643.072-2.204.214-.566.142-1.014.374-1.351.692l.809-2.727H12.47l-.762 2.682c-.24-.298-.562-.515-.957-.653-.398-.142-.894-.208-1.498-.208H7.417v11.836zm8.859.34c0 .745.065 1.302.194 1.661.13.36.348.683.662.962h-3.994c.304-.279.522-.602.656-.962.133-.359.198-.916.198-1.661v-9.579c0-.749-.065-1.304-.198-1.655-.134-.357-.352-.673-.656-.955h3.994c-.314.282-.532.598-.662.955-.129.352-.194.906-.194 1.655v3.313h7.844v-3.313c0-.749-.061-1.304-.194-1.655-.125-.357-.347-.673-.658-.955h3.994c-.304.282-.525.598-.655.955-.134.352-.201.906-.201 1.655v9.579c0 .745.064 1.302.197 1.661.128.36.346.683.659.962h-3.994c.311-.279.533-.602.658-.962.134-.359.194-.916.194-1.661v-4.56h-7.844v4.56zm12.925 2.623c.309-.279.528-.602.66-.962.132-.359.199-.916.199-1.666v-9.568c0-.753-.067-1.301-.199-1.659-.132-.355-.351-.675-.66-.957h7.98v2.342c-.355-.288-.747-.498-1.174-.626-.427-.127-.919-.192-1.476-.192-.286 0-.611.024-.966.069-.358.047-.758.118-1.208.212v4.17h3.581v2.151c-.166-.198-.394-.345-.683-.42-.288-.085-.818-.127-1.578-.127h-1.32v5.308c.553.085 1.058.147 1.503.188.447.045.836.069 1.163.069.745 0 1.442-.104 2.1-.307.655-.199 1.306-.508 1.938-.924l-1.018 2.899h-8.842zm28.482-.024v-1.25c-.793.577-1.596 1.006-2.399 1.295-.814.284-1.632.424-2.46.424-.941 0-1.787-.161-2.531-.476-.74-.313-1.38-.79-1.92-1.427-.421-.499-.725-1.08-.908-1.746-.181-.659-.275-1.55-.275-2.668v-7.771c0-.829-.076-1.443-.214-1.842-.15-.396-.389-.749-.731-1.058h4.441c-.34.309-.583.661-.727 1.058-.146.398-.217 1.013-.217 1.842v7.262c0 1.134.054 1.977.163 2.521.112.545.291.986.552 1.314.309.385.725.678 1.246.874.517.194 1.133.291 1.854.291.59 0 1.156-.09 1.667-.272.515-.175.969-.437 1.36-.781.342-.284.587-.655.735-1.108.15-.457.224-1.078.224-1.863v-8.236c0-.865-.071-1.484-.212-1.873-.143-.381-.387-.722-.729-1.026h4.47c-.347.305-.59.661-.74 1.083-.146.42-.224 1.025-.224 1.816v10.696c0 .839.078 1.453.224 1.85.15.4.393.758.74 1.073h-3.389zm19.633-14.788c-.313.282-.534.598-.667.955-.125.352-.192.906-.192 1.65v12.551c-.505-.016-.993-.179-1.449-.5-.456-.319-1.033-.93-1.722-1.824l-7.529-9.641v8.993c0 .779.06 1.347.188 1.695.126.347.342.655.653.933h-3.312c.309-.279.532-.602.66-.962.132-.359.199-.916.199-1.666v-9.579c0-.744-.067-1.299-.199-1.65-.127-.357-.351-.673-.66-.955h2.961l8.631 11.128v-8.522c0-.744-.065-1.299-.197-1.65-.132-.357-.351-.673-.657-.955h3.292zm5.527 12.184c0 .75.062 1.307.192 1.666.134.36.352.683.669.962h-4c.312-.279.534-.602.662-.962.127-.359.194-.916.194-1.666v-9.579c0-.744-.067-1.299-.194-1.65-.127-.357-.349-.673-.662-.955h4c-.317.282-.535.598-.669.955-.13.352-.192.906-.192 1.65v9.579zm9.356 3.008c-.621-.167-1.153-.521-1.597-1.073-.439-.552-.848-1.377-1.216-2.472l-2.963-8.627c-.239-.712-.473-1.294-.683-1.736-.216-.45-.458-.879-.724-1.284l3.034.014c.011.243.036.467.071.673.035.204.08.4.137.589l3.551 10.594 3.36-8.827c.098-.269.178-.541.237-.816.061-.273.088-.521.088-.749 0-.201-.057-.409-.168-.638-.112-.222-.299-.499-.565-.839h3.343l-5.905 15.191zm6.924-.38c.308-.279.529-.602.661-.962.133-.359.199-.916.199-1.666v-9.568c0-.753-.066-1.301-.199-1.659-.132-.355-.353-.675-.661-.957h7.983v2.342c-.358-.288-.747-.498-1.177-.626-.422-.127-.922-.192-1.479-.192-.283 0-.608.024-.962.069-.354.047-.76.118-1.209.212v4.17h3.582v2.151c-.168-.198-.396-.345-.685-.42-.286-.085-.817-.127-1.576-.127h-1.321v5.308c.557.085 1.053.147 1.503.188.449.045.834.069 1.165.069.737 0 1.44-.104 2.093-.307.662-.199 1.311-.508 1.948-.924l-1.022 2.899h-8.843zm14.015-2.623c0 .745.064 1.302.197 1.661.122.36.344.683.657.962h-3.996c.305-.279.526-.602.657-.962.136-.359.201-.916.201-1.661v-9.579c0-.747-.065-1.3-.201-1.655-.131-.357-.353-.673-.657-.955h5.05c1.438 0 2.601.354 3.481 1.047.89.7 1.33 1.604 1.33 2.724 0 .81-.269 1.523-.796 2.14-.534.617-1.36 1.163-2.478 1.636l3.787 5.124c.22.304.492.633.811.978.31.336.673.693 1.077 1.064l-1.136.101h-.175c-.534 0-1.046-.137-1.556-.425-.501-.284-.928-.673-1.277-1.175l-4.341-6.075c1.295-.292 2.236-.692 2.839-1.202.592-.51.892-1.163.892-1.973 0-.744-.255-1.353-.769-1.823-.512-.471-1.181-.704-2.015-.704-.189 0-.417.016-.685.047-.263.036-.566.085-.899.146v10.559zm9.826 2.294l-.689-2.689c.845.577 1.666 1.007 2.46 1.281.801.286 1.59.428 2.373.428.996 0 1.798-.218 2.41-.661.606-.436.914-1.006.914-1.698 0-.2-.031-.4-.096-.598-.061-.199-.151-.387-.272-.563-.264-.409-1.158-.986-2.672-1.74-.385-.188-.683-.333-.895-.436-1.418-.729-2.391-1.4-2.917-2.013-.529-.607-.794-1.332-.794-2.171 0-1.203.486-2.16 1.447-2.869.967-.702 2.293-1.058 3.972-1.058.48 0 1.013.031 1.595.096.581.065 1.209.161 1.892.3v2.484c-.602-.465-1.208-.81-1.816-1.037-.608-.229-1.243-.341-1.898-.341-.834 0-1.503.183-2.008.546-.51.36-.763.832-.763 1.422 0 .514.202.973.597 1.373.398.403 1.291.936 2.678 1.6.08.036.201.097.362.172 1.173.545 2.05 1.056 2.631 1.516.432.34.774.757 1.012 1.246.243.492.363 1.014.363 1.569 0 1.272-.573 2.351-1.723 3.238-1.144.888-2.577 1.328-4.296 1.328-.557 0-1.149-.058-1.782-.183-.642-.121-1.337-.3-2.085-.542zm15.008-2.299c0 .75.065 1.307.192 1.666.135.36.354.683.667.962h-4.003c.316-.279.541-.602.664-.962.132-.359.196-.916.196-1.666v-9.579c0-.744-.064-1.299-.196-1.65-.123-.357-.349-.673-.664-.955h4.003c-.314.282-.532.598-.667.955-.127.352-.192.906-.192 1.65v9.579z"/><path d="M56.191 131.705l1.312 3.213 5.014 12.55c.55 1.395.986 2.762 2.357 3.466v.073h-4.94v-.073c1.183-.537.986-.806.34-2.511l-1.299-3.446h-6.111l-1.254 3.446c-.503 1.365-.673 2.069.483 2.511v.073h-4.429v-.073c1.395-.704 1.807-2.071 2.334-3.466l6.194-15.667v-.096zm-.282 5.298l-2.415 6.161h4.778l-2.363-6.161zm-30.741 14.364c-1.114 0-2.158-.187-3.142-.541-.984-.36-1.829-.877-2.536-1.55-.743-.712-1.312-1.552-1.717-2.509-.405-.967-.602-1.979-.602-3.041 0-.83.125-1.64.38-2.422.257-.78.631-1.51 1.118-2.188.763-1.047 1.704-1.847 2.829-2.408 1.122-.566 2.346-.84 3.67-.84 1.131 0 2.193.177 3.18.536.983.355 1.827.874 2.531 1.554.758.709 1.332 1.553 1.735 2.516.398.976.597 2.022.597 3.146 0 1.03-.226 2.04-.671 3.034-.449.984-1.078 1.858-1.894 2.621-.722.685-1.555 1.205-2.484 1.561-.933.35-1.928.531-2.994.531zm.08-13.929c-1.621 0-2.96.566-4.014 1.691-1.053 1.136-1.583 2.578-1.583 4.331 0 1.812.526 3.319 1.567 4.518 1.044 1.198 2.346 1.799 3.905 1.799 1.619 0 2.954-.569 4.009-1.703 1.049-1.129 1.575-2.585 1.575-4.347 0-1.816-.522-3.314-1.564-4.504-1.039-1.192-2.339-1.785-3.895-1.785zm12.323 10.955c0 .749.061 1.299.192 1.659.13.354.351.677.667.956h-3.999c.306-.279.525-.603.657-.956.134-.36.197-.91.197-1.659v-9.574c0-.749-.062-1.301-.197-1.656-.132-.362-.351-.674-.657-.955h7.992v2.337c-.358-.293-.75-.494-1.174-.63-.427-.124-.919-.192-1.482-.192-.293 0-.615.023-.973.068-.358.052-.76.122-1.205.218v4.17h3.591v2.15c-.172-.198-.396-.339-.687-.424-.291-.082-.821-.123-1.59-.123H37.57v4.611zm31.514.004c0 .745.067 1.295.195 1.655.127.354.351.677.661.956h-3.998c.308-.279.53-.603.659-.956.134-.36.199-.91.199-1.655v-9.584c0-.749-.065-1.299-.199-1.655-.129-.357-.351-.673-.659-.95h5.049c1.438 0 2.601.344 3.489 1.042.881.698 1.324 1.608 1.324 2.727 0 .807-.264 1.52-.798 2.138-.528.621-1.355 1.162-2.473 1.632l3.784 5.128c.226.309.491.63.811.971.318.34.674.692 1.083 1.058l-1.131.107h-.184c-.534 0-1.046-.138-1.552-.425-.505-.279-.933-.673-1.281-1.16l-4.34-6.087c1.292-.288 2.236-.688 2.837-1.198.597-.508.893-1.165.893-1.97 0-.743-.255-1.355-.772-1.824-.509-.467-1.178-.7-2.012-.7-.188 0-.418.016-.682.041-.266.034-.563.081-.901.145v10.564zm13.509-.004c0 .749.063 1.299.19 1.659.132.354.352.677.671.956h-3.999c.309-.279.535-.603.662-.956.127-.36.196-.91.196-1.659v-9.584c0-.745-.069-1.3-.196-1.655-.128-.354-.354-.669-.662-.946h3.999c-.319.277-.539.593-.671.946-.127.355-.19.91-.19 1.655v9.584zm14.826-.153l-1.062 2.769H84.97l7.779-12.898c-.582-.147-1.128-.259-1.643-.331-.513-.069-.993-.104-1.432-.104-.644 0-1.266.08-1.867.239-.599.161-1.211.418-1.843.767l1.019-2.474h9.465L88.686 149.1c.86.099 1.584.173 2.176.214.584.045 1.094.07 1.519.07 1.009 0 1.933-.096 2.764-.288.829-.189 1.587-.475 2.275-.856zm8.404 3.127c-1.118 0-2.164-.187-3.146-.541-.99-.36-1.835-.877-2.535-1.55-.745-.712-1.319-1.552-1.72-2.509-.404-.967-.602-1.979-.602-3.041 0-.83.125-1.64.382-2.422.251-.78.629-1.51 1.116-2.188.767-1.047 1.713-1.847 2.831-2.408 1.121-.566 2.348-.84 3.674-.84 1.134 0 2.187.177 3.169.536.981.355 1.826.874 2.536 1.554.753.709 1.33 1.553 1.732 2.516.396.976.6 2.022.6 3.146 0 1.03-.224 2.04-.674 3.034-.447.984-1.077 1.858-1.892 2.621-.729.685-1.559 1.205-2.481 1.561-.931.35-1.932.531-2.99.531zm.076-13.929c-1.628 0-2.965.566-4.016 1.691-1.054 1.136-1.583 2.578-1.583 4.331 0 1.812.525 3.319 1.567 4.518 1.042 1.198 2.344 1.799 3.901 1.799 1.619 0 2.954-.569 4.008-1.703 1.051-1.129 1.578-2.585 1.578-4.347 0-1.816-.522-3.314-1.561-4.504-1.039-1.192-2.339-1.785-3.894-1.785zm23.171-1.23c-.315.277-.539.593-.664.946-.128.355-.192.91-.192 1.655v12.538c-.513-.012-.993-.177-1.452-.497-.455-.317-1.027-.921-1.721-1.812l-7.524-9.645v8.999c0 .777.058 1.339.188 1.683.123.346.34.657.648.933h-3.309c.305-.279.526-.603.657-.956.132-.36.204-.91.204-1.659v-9.584c0-.745-.072-1.3-.204-1.655-.131-.354-.352-.669-.657-.946h2.961l8.631 11.123v-8.521c0-.745-.069-1.3-.201-1.655-.131-.354-.351-.669-.659-.946h3.294zm3.407 12.802c-.064.152-.113.31-.145.47-.027.157-.045.32-.045.492 0 .137.054.297.152.46.104.177.267.363.49.577h-3.442c.284-.194.541-.467.77-.816.224-.344.46-.82.697-1.426l4.105-10.566c.085-.197.149-.393.19-.586.038-.192.062-.365.062-.513 0-.17-.04-.323-.121-.47-.082-.141-.214-.283-.396-.425h3.322l4.643 12.413c.213.562.445 1.016.694 1.367.252.348.573.69.961 1.021h-4.182l.051-.052c.39-.41.577-.712.577-.9 0-.227-.08-.557-.247-.998-.021-.075-.041-.124-.053-.165l-1.25-3.421h-5.442l-1.391 3.538zm1.976-5.025h4.3l-2.064-5.725-2.236 5.725z" fill="#0C234B"/><path fill="#0C234B" d="M152.154 112.076l3.8 6.455 2.552-4.203c.151-.255.272-.488.354-.7.08-.21.12-.389.12-.542 0-.169-.05-.337-.149-.5-.108-.168-.255-.343-.473-.51h3.415l-5.009 8.15v4.048c0 .744.062 1.299.196 1.661.134.359.355.675.66.964h-4.018c.314-.289.536-.604.664-.964.125-.362.192-.917.192-1.661v-4.088l-3.426-5.65c-.345-.504-.598-.585-.933-.7-.354-.126-.95-.136-1.491-.136h-1.635v10.574c0 .744.065 1.299.197 1.661.131.359.353.675.661.964h-4c.308-.289.534-.604.661-.964.128-.362.193-.917.193-1.661V113.7h-1.17c-.814 0-1.476.064-1.977.191-.505.128-.905.333-1.21.617l.725-2.433h11.101z"/><path fill="#FFF" d="M114.067.01v32.66l-3.308-.015 13.185 35.22 11.304.015v32.686H26.305V67.934l11.224.014 13.301-35.32-3.38.008L47.463 0z"/><path fill="#0C234B" d="M80.781 12.12h21.034v8.416h-8.74l22.982 59.236h6.797v8.715H94.37v-8.478h-7.998v16.625h44.961V71.845l-10.096.017-16.185-43.147h5.083V3.94H51.418v24.775h5.085L40.317 71.808l-10.096.037v24.789h44.963V80.009h-7.999v8.478H38.699v-8.715h6.798l22.982-59.236h-8.74V12.12h21.042m59.452 79.956h1.023c.355 0 .615-.062.779-.189.165-.127.246-.326.246-.598 0-.238-.081-.412-.246-.525-.164-.111-.424-.168-.779-.168h-1.023v1.48zm-.754-2.092H141.404c.52 0 .926.115 1.222.344.294.23.442.551.442.959 0 .441-.148.793-.444 1.045-.221.188-.504.307-.851.354l1.382 2.104h-.875l-1.244-2.076-.803.004v2.072h-.754v-4.806zm4.253-.048c-.655-.668-1.461-1.002-2.414-1.002-.952 0-1.754.334-2.41 1.002-.657.668-.983 1.486-.983 2.453 0 .967.326 1.785.983 2.451.656.666 1.458.998 2.41.998.95 0 1.754-.332 2.412-.998.656-.666.985-1.484.985-2.451 0-.967-.327-1.785-.983-2.453zm.598-.5c.822.803 1.232 1.787 1.232 2.953 0 1.162-.409 2.145-1.229 2.949-.82.803-1.824 1.203-3.015 1.203-1.189 0-2.191-.4-3.013-1.203-.817-.805-1.228-1.787-1.228-2.949 0-1.166.411-2.15 1.23-2.953.822-.805 1.824-1.205 3.01-1.205 1.187-.001 2.191.4 3.013 1.205z"/><path fill="#AB0520" d="M80.759 12.196l23.329 60.51s2.99 7.363 7.846 7.363h-16.99s.853.125 1.703-1.293c.487-.809.076-2.023.076-2.023l-5.254-13.508H70.087l-5.262 13.508s-.401 1.215.084 2.023c.848 1.418 1.698 1.293 1.698 1.293H49.619c4.854 0 7.846-7.363 7.846-7.363l23.294-60.51m-.018 44.635h8.214L80.73 35.604l-8.172 21.227h8.183z"/></svg>