<svg xmlns="http://www.w3.org/2000/svg" role="img" viewBox="-2.20 -2.20 114.27 105.27"><title>University of Campinas (UNICAMP) (member) logo</title><path d="M31 15h1v1h-1zm19 22h1v1h-1zm26 1h1v1h-1zm-42 3h1v1h-1zm44 20h1v1h-1zm7 22h1v1h-1zm5 0h1v1h-1zm-63 8h1v1h-1zm37 0h1v1h-1z" fill="#cbcbcb"/><path d="M50 9h1v1h-1zM29 28h1v1h-1zm54 29h1v1h-1zm-46 5h1v1h-1zm-1 1h1v1h-1zm10 23h1v1h-1zm0 3h1v1h-1zm-2 2h1v1h-1z" fill="#9e9e9e"/><path fill="#828282" d="M35 13h1v1h-1z"/><path d="M66 14h1v1h-1zm-9 56h1v1h-1z" fill="#ffd5d5"/><path d="M35 34h1v1h-1zm43 3h1v1h-1z" fill="#a3a3a3"/><path fill="#ff6c71" d="M63 71h1v1h-1z"/><path fill="#ededee" d="M103 91h1v1h-1z"/><path fill="#fcfcfd" d="M7 93h1v1H7z"/><path fill="#ff8688" d="M66 8h1v1h-1z"/><g fill="#ff1018"><path d="M67 11h1v1h-1zm1 0h1v1h-1zm0 1h1v1h-1zm23 36h2v2h-2zm2 0h1v2h-1zm-2 2h2v1h-2zm2 0h1v1h-1zM60 70h1v2h-1z"/><path d="M59 71h2v1h-2zm2 0h1v1h-1zm-2 1h1v1h-1zm1 0h1v1h-1z"/></g><path d="M63 14h1v1h-1zm-36 9h1v1h-1zm30 9h1v1h-1zm25 3h1v1h-1z" fill="#4f4f4f"/><path d="M64 15h1v1h-1zm-39 6h1v1h-1zm30 16h1v1h-1zM40 71h1v1h-1zm36 18h1v1h-1z" fill="#737373"/><path d="M38 19h1v1h-1zm-18 8h1v1h-1zm20 12h1v1h-1zm1 1h1v1h-1zm-2 10h1v1h-1zm20 16h1v1h-1z" fill="#a8a8a8"/><path d="M25 22h1v1h-1zm14 14h1v1h-1zm1 1h1v1h-1zm3 3h1v1h-1zm45 6h1v1h-1zm-2 9h1v1h-1zM35 66h1v1h-1zM5 82h1v1H5zm100 3h1v1h-1zm-34 7h1v1h-1zM8 95h1v1H8zm1 3h1v1H9z" fill="#f2f2f2"/><path d="M73 26h1v1h-1zm-1 1h1v1h-1zM57 37h1v1h-1zm-30 1h1v1h-1zm14 17h1v1h-1zm1 2h1v1h-1zm-3 14h1v1h-1zm16 1h1v1h-1z" fill="#bebebe"/><path d="M70 31h1v1h-1zM20 56h1v1h-1zm48 9h1v1h-1zm11 24h1v1h-1z" fill="#e0e0e0"/><path d="M32 40h1v1h-1zm2 17h1v1h-1zm0 28h1v1h-1z" fill="#a9a9a9"/><path fill="#ffaeaf" d="M91 52h1v1h-1z"/><path d="M57 9h1v1h-1zM39 45h1v1h-1z" fill="#757575"/><path fill="#ff050e" d="M66 13h1v1h-1z"/><path d="M70 15h1v1h-1zM59 33h1v1h-1zm-36 3h1v1h-1zm34 2h1v1h-1zm14 4h1v1h-1zM29 57h1v1h-1zm30 29h1v1h-1zm6 1h1v1h-1zm6 2h1v2h-1zm0 2h1v1h-1z" fill="#717171"/><path d="M24 39h1v1h-1zm14 3h1v1h-1zm-21 3h1v1h-1zm21 8h1v1h-1zm23 4h1v1h-1zm0 9h1v1h-1zM48 87h1v1h-1zm0 1h1v1h-1zm-12 3h1v1h-1z" fill="#2d2d2d"/><path fill="#ff5c60" d="M90 51h1v1h-1z"/><path d="M59 69h1v1h-1zm3 4h1v1h-1z" fill="#ff191f"/><path d="M77 24h1v1h-1zm-1 1h1v1h-1zM65 44h1v1h-1z" fill="#dcdcdc"/><path d="M89 48h1v1h-1zm6 2h1v1h-1z" fill="#ffa9ab"/><path fill="#f4f4f5" d="M7 88h1v1H7z"/><path d="M103 90h1v1h-1zm-1 3h1v1h-1zm-89 7h1v1h-1zm9 0h1v1h-1zm1 0h1v1h-1zm3 0h1v1h-1zm1 0h1v1h-1zm3 0h2v1h-2zm2 0h3v1h-3zm3 0h1v1h-1zm11 0h2v1h-2zm2 0h1v1h-1zm5 0h3v1h-3zm3 0h2v1h-2zm2 0h1v1h-1zm3 0h10v1H61zm10 0h6v1h-6zm6 0h1v1h-1zm9 0h1v1h-1zm1 0h4v1h-4zm4 0h1v1h-1zm3 0h1v1h-1zm1 0h2v1h-2zm2 0h1v1h-1z" fill="#e3e3e5"/><path d="M46 9h1v1h-1zm-4 15h1v1h-1zm38 0h1v1h-1zm-38 5h1v1h-1zm14 6h1v1h-1zm-19 7h1v1h-1zm2 11h1v1h-1zm34 11h1v1h-1zM25 85h1v1h-1zm48 5h1v1h-1z" fill="#8f8f8f"/><path fill="#fff5f6" d="M64 9h1v1h-1z"/><path d="M37 16h1v1h-1zm-12 4h1v1h-1zm-4 5h1v1h-1zm61 12h1v1h-1zM31 58h1v1h-1zm38 8h1v1h-1z" fill="#dbdbdb"/><path d="M33 32h1v1h-1zm1 1h1v1h-1zm6 26h1v1h-1zm-1 1h1v1h-1zm7 27h1v1h-1zm0 1h1v1h-1z" fill="#a1a1a1"/><path d="M63 43h1v1h-1zm-8 28h1v1h-1z" fill="#727272"/><path fill="#f3f3f4" d="M106 82h1v1h-1z"/><path d="M71 11h1v1h-1zm20 34h2v1h-2zm2 0h1v1h-1zm2 1h1v1h-1zm-7 3h1v1h-1zm7 3h1v1h-1zM59 75h2v1h-2zm2 0h1v1h-1z" fill="#fcffff"/><path d="M70 12h1v1h-1zm25 36h1v1h-1z" fill="#ffa7a9"/><path d="M69 16h1v1h-1zm-5 6h1v1h-1zm-25 1h1v1h-1zm6 7h1v1h-1zm14 4h1v1h-1zm15 4h1v1h-1zm-48 2h1v1h-1zm10 1h1v1h-1zm51 0h1v1h-1zm-70 2h1v1h-1zm42 16h1v1h-1zm-1 3h1v1h-1zm14 2h1v1h-1zM26 84h1v1h-1zm35 0h1v1h-1zm1 0h1v1h-1zm-12 1h1v1h-1zm1 0h1v1h-1zm-3 1h1v1h-1zm11 1h1v1h-1zm-28 1h1v1h-1zm34 0h1v1h-1zm12 0h1v1h-1zm-46 1h1v1h-1zm17 0h1v1h-1zm32 0h1v1h-1zm-61 2h1v1h-1zm20 0h1v1h-1zm26 0h1v1h-1z" fill="#0d0d0d"/><path fill="#939393" d="M25 39h1v1h-1z"/><path d="M106 80h1v1h-1zm-5 16h1v1h-1zm-1 3h1v1h-1zm-2 1h1v1h-1z" fill="#e2e2e3"/><path d="M38 15h1v1h-1zm40 6h1v1h-1zM21 37h1v1h-1zm42 11h1v1h-1zM40 86h1v3h-1zm0 3h1v1h-1z" fill="#dadada"/><path d="M75 24h1v1h-1zm-1 1h1v1h-1zM56 63h1v1h-1zM37 87h1v1h-1z" fill="#bfbfbf"/><path d="M68 9h1v1h-1zm1 1h1v1h-1zm21 38h1v2h-1zm0 2h1v1h-1zm4 0h1v1h-1zm-3 1h2v1h-2zm2 0h1v1h-1zM62 70h1v2h-1zm0 2h1v1h-1zm-3 1h1v1h-1z" fill="#ff0004"/><path d="M52 10h1v25h-1zm0 25h1v1h-1zm25 4h1v1h-1zm-61 3h1v1h-1zm24 10h1v1h-1zm31 31h1v1h-1zm1 6h1v1h-1z" fill="#e6e6e6"/><path d="M38 11h1v1h-1zm35 17h1v1h-1zm-1 1h1v1h-1zm-14 2h1v1h-1zm-6 58h1v1h-1z" fill="#dedede"/><path fill="#ffcdce" d="M64 12h1v1h-1z"/><path d="M36 14h1v1h-1zm3 3h1v1h-1zm48 22h1v1h-1zM60 59h1v1h-1zM37 85h1v1h-1zm9 0h1v1h-1zm47 3h1v1h-1zm-15 2h1v1h-1zm-49 1h1v1h-1z" fill="#b3b3b3"/><path fill="#f8f9f8" d="M64 14h1v1h-1z"/><path d="M43 26h1v1h-1zm38 0h1v1h-1zm-40 1h1v1h-1zm42 3h1v1h-1zm-7 10h1v1h-1zM63 52h1v1h-1zm8 13h1v1h-1zm-7 3h1v1h-1zM47 84h1v1h-1zm16 4h1v1h-1z" fill="#616160"/><path d="M64 35h1v1h-1zm-1 1h1v1h-1zm1 48h1v1h-1z" fill="#b9b9b9"/><path d="M46 37h1v2h-1zm0 2h1v1h-1zm14 3h1v1h-1zm0 14h1v1h-1zm25 0h1v1h-1zm-29 6h1v1h-1zm-31 1h1v1h-1zm5 4h1v1h-1zM4 78h1v1H4zm103 2h1v1h-1zm-67 3h1v1h-1zM6 84h1v1H6zm1 3h1v1H7zm-1 3h1v1H6zm26 2h1v1h-1zm47 0h1v1h-1zm22 1h1v1h-1zm0 6h1v1h-1z" fill="#fdfdfd"/><path d="M68 16h1v1h-1zm-6 4h1v1h-1zm15 0h1v1h-1zm-51 2h1v1h-1zm14 21h1v1h-1zM30 59h1v1h-1zm27 1h1v1h-1zm6 7h1v1h-1zm23 20h1v1h-1zm-9 4h1v1h-1zm7 0h1v1h-1z" fill="#515151"/><path d="M40 25h1v1h-1zm4 3h1v1h-1zm-18 9h1v1h-1zm46 2h1v1h-1zM43 59h1v1h-1zm1 0h1v1h-1zm33 2h1v1h-1zM41 71h1v1h-1zm11 1h1v1h-1zM27 85h1v1h-1zm15 1h1v3h-1zm0 3h1v1h-1zm16 0h1v1h-1z" fill="#333"/><path d="M18 34h1v1h-1zm14 53h1v1h-1z" fill="#898989"/><path d="M77 22h1v1h-1zm-7 44h1v1h-1zm12 20h1v3h-1zm-62 3h1v1h-1zm62 0h1v1h-1zm-36 1h1v1h-1z" fill="#c1c1c1"/><path d="M1 77h1v1H1zm107 0h1v1h-1zm1 0h1v1h-1zm-4 6h1v1h-1zM5 84h1v1H5zm99 2h1v1h-1zM7 90h1v1H7zm1 3h1v1H8zm1 3h1v1H9zm3 4h1v1h-1z" fill="#e3e3e4"/><path d="M76 23h1v1h-1zM35 43h1v1h-1zm47 42h1v1h-1zm-65 5h1v1h-1zm65 0h1v1h-1z" fill="silver"/><path d="M36 56h1v1h-1zm54 34h1v1h-1z" fill="#cecece"/><path d="M55 9h1v1h-1zm6 1h1v1h-1zm-2 17h1v1h-1zm29 18h1v1h-1zM41 61h1v1h-1zm-1 1h1v1h-1zm-5 28h1v1h-1z" fill="#3c3c3c"/><path fill="#4d4d4d" d="M54 84h1v1h-1z"/><path d="M41 10h1v1h-1zm0 16h1v1h-1zm2 1h1v1h-1zm39 31h1v1h-1zm-4 27h1v1h-1z" fill="#c6c6c6"/><path d="M42 10h1v1h-1zm21 8h1v1h-1zM32 58h1v1h-1zm21 3h1v1h-1z" fill="#7d7d7d"/><path d="M43 10h1v1h-1zm-11 5h1v1h-1zm44 4h1v1h-1zM43 39h1v1h-1zm31 2h1v1h-1zm-38 3h1v1h-1zm4 11h1v1h-1zm-14 3h1v1h-1zm1 28h1v2h-1zm0 2h1v1h-1z" fill="#383838"/><path d="M19 29h1v1h-1zm44 22h1v1h-1zM44 90h1v1h-1z" fill="#959595"/><path d="M40 10h1v1h-1zm17 24h1v1h-1zm27 1h1v1h-1zm-68 2h1v1h-1zm45 6h1v1h-1zM33 69h1v1h-1zm32 0h1v1h-1zM0 76h1v1H0zm109 0h1v1h-1zm-72 7h1v1h-1zm42 0h1v1h-1zm-69 17h1v1h-1zm90 0h1v1h-1z" fill="#fbfbfb"/><path d="M44 10h1v1h-1zm9 1h1v24h-1zm9 2h1v1h-1zm14 9h1v1h-1zm-1 1h1v1h-1zm-1 1h1v1h-1zm-52 1h1v1h-1zm21 0h1v1h-1zm30 0h1v1h-1zm-1 1h1v1h-1zm-1 1h1v1h-1zm-30 1h1v1h-1zm29 0h1v1h-1zm-1 1h1v1h-1zm-1 1h1v1h-1zm-15 5h1v1h-1zm2 1h1v1h-1zm14 4h1v1h-1zm-52 2h1v1h-1zm16 1h1v1h-1zm-14 9h1v1h-1zm37 13h1v1h-1zm-1 4h1v1h-1zm-2 15h1v1h-1zm18 0h1v1h-1zm19 1h1v1h-1zm-3 3h2v1h-2zm2 0h1v1h-1zm-70 1h1v1h-1zm54 0h1v1h-1zm-52 1h2v1h-2zm2 0h1v1h-1zm27 0h1v1h-1zm1 0h1v1h-1zm-30 1h3v1h-3zm3 0h1v1h-1zm19 0h1v1h-1zm6 0h3v1h-3zm3 0h1v1h-1zm6 0h1v1h-1zm8 0h1v1h-1zm4 0h1v1h-1zm5 0h1v1h-1zm1 0h1v1h-1zm9 0h1v1h-1z" fill="#060606"/><path d="M68 41h1v1h-1zm-50 7h20v1H18zm20 0h1v1h-1zm26 0h21v1H64zm21 0h1v1h-1z" fill="#868686"/><path d="M90 52h1v1h-1zM1 76h1v1H1z" fill="#fdfdfc"/><path d="M106 79h1v1h-1zM6 86h1v1H6zm2 8h1v1H8zm93 3h1v1h-1z" fill="#e8e8e9"/><path fill="#ffb2b4" d="M63 70h1v1h-1z"/><path fill="#ff2329" d="M69 9h1v1h-1z"/><path d="M37 13h1v1h-1zm26 9h1v1h-1zm-23 1h1v1h-1zm4 7h1v1h-1zm-27 4h1v1h-1zm7 3h1v1h-1zm33 2h1v1h-1zm15 2h1v1h-1zm16 0h1v1h-1zM28 58h1v1h-1zm14 1h1v1h-1zm-1 1h1v1h-1zm-1 1h1v1h-1zM26 83h1v1h-1zm35 0h1v1h-1zm12 2h1v1h-1zm-23 1h1v1h-1zm1 0h1v1h-1zm7 1h1v1h-1zm45 1h1v1h-1zm1 0h1v1h-1zm-62 4h1v1h-1z" fill="#efefef"/><path d="M39 16h1v1h-1zm-7 12h1v1h-1zm1 1h1v1h-1zm-15 3h1v1h-1zm44 11h1v1h-1zm-45 3h1v1h-1zm8 16h1v1h-1zm21 10h1v1h-1zm18 13h1v1h-1zm-11 1h1v1h-1zm8 4h1v1h-1zm1 0h1v1h-1zm-3 1h1v1h-1z" fill="#494949"/><path d="M19 28h1v1h-1zm40 1h1v1h-1zm-24 3h1v1h-1zm1 1h1v1h-1zm10 2h1v1h-1zm-27 1h1v1h-1zm33 1h1v1h-1zM21 58h1v1h-1zm6 25h1v1h-1zM6 85h1v1H6zm0 4h1v1H6zm95 5h1v1h-1z" fill="#f4f4f4"/><path fill="#ffabac" d="M93 52h1v1h-1z"/><path d="M53 10h1v1h-1zm-14 5h1v1h-1zm-3 1h1v1h-1zm29 4h1v1h-1zm16 7h1v1h-1zm1 2h1v1h-1zm-25 2h1v1h-1zm3 1h1v1h-1zm-38 3h1v1h-1zm59 0h1v1h-1zm-43 3h1v1h-1zm1 1h1v1h-1zm1 1h1v1h-1zm24 2h1v1h-1zm-25 4h1v1h-1zm0 6h1v1h-1zm-19 2h1v1h-1zm55 8h1v1h-1zm-39 7h1v1h-1zm13 15h3v1h-3zm3 0h1v1h-1zm-13 2h1v3h-1zm25 0h1v1h-1zm15 1h1v1h-1zm1 0h1v1h-1zm6 1h1v1h-1zm-47 1h1v1h-1zm52 0h1v1h-1zm-39 1h1v1h-1z" fill="#010101"/><path d="M38 14h1v1h-1zm-1 3h1v1h-1zm47 15h1v1h-1zm-4 4h1v1h-1zm-60 1h1v1h-1zm-2 14h1v1h-1zm40 8h1v1h-1zM37 70h1v1h-1z" fill="#797979"/><path fill="#fffffe" d="M64 74h1v1h-1z"/><path d="M37 12h1v1h-1zm12 77h1v1h-1zm33 2h1v1h-1z" fill="#c5c5c5"/><path d="M58 73h1v1h-1zm2 1h1v1h-1z" fill="#ff383e"/><path d="M61 24h1v1h-1zM26 39h1v1h-1zm48 0h1v1h-1zm14 13h1v1h-1zM8 92h1v1H8zm12 0h1v1h-1zm18 0h1v1h-1zm14 0h1v1h-1zm1 0h1v1h-1zm4 0h1v1h-1z" fill="#ebebeb"/><path d="M71 30h1v1h-1zm13 1h1v1h-1zm4 22h1v1h-1zM56 69h1v1h-1z" fill="#dfdfdf"/><path d="M14 100h2v1h-2zm2 0h5v1h-5zm5 0h1v1h-1zm3 0h1v1h-1zm1 0h1v1h-1zm3 0h1v1h-1zm1 0h1v1h-1zm7 0h1v1h-1zm1 0h5v1h-5zm5 0h3v1h-3zm3 0h1v1h-1zm4 0h3v1h-3zm3 0h1v1h-1zm7 0h1v1h-1zm1 0h1v1h-1zm18 0h1v1h-1zm1 0h2v1h-2zm2 0h2v1h-2zm2 0h2v1h-2zm2 0h1v1h-1zm7 0h1v1h-1zm1 0h1v1h-1z" fill="#e1e3e5"/><path d="M41 21h1v1h-1zm2 11h1v1h-1zm-21 6h1v1h-1zm59 0h1v1h-1zm-17 7h1v1h-1zm-28 9h1v1h-1zm49 1h1v1h-1zm-5 4h1v1h-1zM35 69h1v1h-1z" fill="#535353"/><path fill="#858585" d="M61 28h1v1h-1z"/><path d="M94 52h1v1h-1zM64 69h1v1h-1z" fill="#fcfcfb"/><path d="M65 8h1v1h-1zm-8 65h1v1h-1z" fill="#fff0f0"/><path d="M49 9h1v1h-1zm4 0h1v1h-1zm1 0h1v1h-1zm-14 2h1v1h-1zm-13 8h1v1h-1zm34 3h1v1h-1zm-19 1h1v1h-1zm21 16h1v1h-1zm16 0h1v1h-1zm-17 1h1v1h-1zm25 6h1v1h-1zm-48 1h1v1h-1zm0 4h1v1h-1zm48 1h1v1h-1zm-25 3h1v1h-1zm-21 1h1v1h-1zm21 2h1v1h-1zm1 1h1v1h-1zm-35 1h1v1h-1zm35 27h1v1h-1zm11 1h1v1h-1zm-10 2h1v1h-1zm-38 1h1v1h-1z" fill="#2a2a2a"/><path d="M45 10h4v19h-4zm4 0h1v26h-1zm5 0h5v18h-5zm5 0h1v16h-1z"/><path d="M41 11h8v8h-8zm19 0h1v12h-1zm1 0h1v10h-1z"/><path d="M39 12h10v2H39zm-4 2h1v16h-1zm4 0h10v1H39zm23 0h1v4h-1zm-29 1h2v13h-2zm7 0h9v2h-9zm23 0h1v1h-1z"/><path d="M32 16h3v11h-3zm31 0h1v1h-1zm7 0h2v10h-2zm2 0h1v9h-1z"/><path d="M30 17h6v8h-6zm6 0h1v14h-1zm4 0h9v1h-9zm27 0h6v8h-6zm6 0h1v7h-1z"/><path d="M29 18h7v6h-7zm33 0h1v1h-1zm4 0h8v6h-8zm8 0h1v5h-1z"/><path d="M28 19h9v4h-9zm9 0h1v13h-1zm4 0h8v1h-8zm34 0h1v3h-1z"/><path d="M27 20h10v2H27zm15 0h7v2h-7zm34 0h1v1h-1z"/><path d="M26 21h12v1H26zm12 0h1v12h-1zm23 0h1v1h-1zm4 0h11v1H65zm11 0h1v1h-1zm-49 1h11v1H27zm15 0h7v1h-7zm23 0h10v1H65zm10 0h1v1h-1zm-47 1h10v1H28zm15 0h6v1h-6zm17 0h1v1h-1zm4 0h10v1H64zm10 0h1v1h-1zm-51 1h1v11h-1zm1 0h1v11h-1z"/><path d="M29 24h10v1H29zm10 0h1v10h-1zm4 0h6v1h-6zm21 0h9v1h-9zm9 0h1v1h-1zm6 0h1v11h-1zm-54 1h1v11h-1zm5 0h9v1h-9zm14 0h5v2h-5zm19 0h9v1h-9zm9 0h1v1h-1zm6 0h1v11h-1z"/><path d="M22 26h4v8h-4zm4 0h1v10h-1zm5 0h9v1h-9zm9 0h1v9h-1zm19 0h1v1h-1zm4 0h8v1h-8zm8 0h1v1h-1zm6 0h3v9h-3zm3 0h1v9h-1z"/><path d="M21 27h6v7h-6zm6 0h1v10h-1zm5 0h8v1h-8zm12 0h5v1h-5zm19 0h7v1h-7zm7 0h1v1h-1zm6 0h4v8h-4zm-48 1h1v9h-1zm5 0h7v1h-7zm21 0h4v2h-4zm4 0h1v1h-1zm4 0h7v1h-7zm7 0h1v1h-1z"/><path d="M75 28h6v7h-6zm6 0h1v6h-1zm-61 1h9v5h-9zm9 0h1v8h-1zm5 0h7v1h-7zm7 0h1v7h-1zm4 0h4v1h-4zm17 0h6v1h-6zm6 0h1v1h-1z"/><path d="M74 29h7v6h-7zm-44 1h1v8h-1zm5 0h6v1h-6zm11 0h3v2h-3zm8 0h3v3h-3zm3 0h1v1h-1zm4 0h6v1h-6zm6 0h1v1h-1z"/><path d="M73 30h9v4h-9zm9 0h1v4h-1zm-63 1h12v2H19zm12 0h1v7h-1zm5 0h6v1h-6zm6 0h1v6h-1zm19 0h5v1h-5zm5 0h1v1h-1z"/><path d="M72 31h10v3H72zm-40 1h1v7h-1zm5 0h5v1h-5zm9 0h3v1h-3zm15 0h4v1h-4zm4 0h1v1h-1z"/><path d="M71 32h12v2H71zm12 0h1v2h-1zm-65 1h15v1H18zm15 0h1v6h-1zm5 0h4v1h-4zm9 0h2v1h-2zm7 0h2v2h-2zm2 0h1v1h-1zm4 0h4v1h-4zm4 0h1v1h-1z"/><path d="M70 33h13v1H70zm-50 1h14v1H20zm14 0h1v6h-1zm5 0h4v1h-4zm4 0h1v4h-1zm4 0h2v1h-2zm13 0h3v1h-3zm3 0h1v1h-1zm6 0h14v1H69zm14 0h1v1h-1z"/><path d="M23 35h12v1H23zm12 0h1v5h-1zm5 0h3v1h-3zm8 0h1v1h-1zm6 0h1v1h-1zm1 0h1v1h-1zm4 0h3v1h-3zm3 0h1v1h-1zm6 0h12v1H68zm12 0h1v1h-1z"/><path d="M25 36h11v1H25zm11 0h1v4h-1zm5 0h3v1h-3zm3 0h1v2h-1zm4 0h1v1h-1zm1 0h1v1h-1zm4 0h1v1h-1zm1 0h1v1h-1zm5 0h2v1h-2zm2 0h1v1h-1zm6 0h11v1H67zm11 0h1v1h-1zm-60 1h1v10h-1z"/><path d="M27 37h10v1H27zm10 0h1v4h-1zm5 0h2v1h-2zm16 0h2v1h-2zm2 0h1v1h-1zm6 0h10v1H66zm10 0h1v1h-1zm9 0h1v10h-1zm-66 1h1v9h-1zm1 0h1v9h-1zm10 0h7v1h-7zm13 0h1v1h-1zm1 0h1v1h-1zm14 0h1v1h-1zm1 0h1v1h-1zm6 0h8v1h-8zm8 0h1v1h-1zm10 0h2v9h-2zm-62 1h2v8h-2zm2 0h1v8h-1z"/><path d="M32 39h6v1h-6zm6 0h1v2h-1zm26 0h7v1h-7zm7 0h1v1h-1zm9 0h6v8h-6zm6 0h1v8h-1zm-62 1h1v7h-1zm1 0h1v7h-1z"/><path d="M34 40h5v1h-5zm5 0h1v2h-1zm24 0h5v1h-5zm5 0h1v1h-1zm10 0h8v7h-8zm-52 1h2v6h-2zm2 0h1v6h-1z"/><path d="M37 41h4v1h-4zm4 0h1v1h-1zm21 0h4v1h-4zm4 0h1v1h-1zm9 0h11v6H75zm-46 1h1v5h-1zm1 0h1v5h-1zm9 0h1v1h-1zm1 0h1v1h-1zm22 0h1v1h-1zm1 0h1v1h-1z"/><path d="M73 42h14v5H73zm14 0h1v3h-1zm-56 1h1v4h-1zm1 0h1v4h-1z"/><path d="M70 43h17v4H70zm-37 1h2v3h-2zm2 0h1v3h-1z"/><path d="M68 44h19v3H68zm-32 1h1v2h-1zm1 0h1v2h-1z"/><path d="M66 45h21v2H66zm21 0h1v1h-1zm-49 1h1v1h-1z"/><path d="M64 46h22v1H64zm-46 1h20v1H18zm20 0h1v1h-1zm26 0h22v1H64zm22 0h1v1h-1zm-67 4h19v1H19zm19 0h1v1h-1zm26 0h22v3H64zm22 0h1v2h-1zm-66 1h18v1H20zm18 0h1v1h-1zm-18 1h17v1H20zm17 0h1v1h-1zm49 0h1v1h-1zm-65 1h13v1H21zm13 0h1v1h-1zm29 0h22v1H63zm22 0h1v1h-1zm-64 1h11v1H21zm11 0h1v1h-1zm31 0h21v1H63zm21 0h1v1h-1zm-62 1h8v1h-8zm8 0h1v1h-1zm9 0h1v3h-1zm1 0h1v2h-1zm22 0h21v1H62zm21 0h1v1h-1zm-61 1h5v1h-5zm5 0h1v1h-1z"/><path d="M36 57h5v1h-5zm5 0h1v1h-1zm21 0h19v1H62zm19 0h1v1h-1zm-58 1h2v1h-2zm2 0h1v1h-1zm9 0h6v1h-6zm6 0h1v1h-1zm23 0h17v1H63zm17 0h1v1h-1zm-48 1h7v1h-7zm7 0h1v1h-1zm25 0h15v1H64zm15 0h1v1h-1zm-50 1h9v1h-9zm9 0h1v1h-1zm5 0h1v11h-1zm1 0h1v11h-1zm14 0h1v1h-1zm1 0h1v4h-1zm6 0h12v1H65zm12 0h1v1h-1zm-50 1h10v1H27zm10 0h1v1h-1z"/><path d="M42 61h5v9h-5zm5 0h1v10h-1zm11 0h2v1h-2zm2 0h1v4h-1zm6 0h10v1H66zm10 0h1v1h-1zm-50 1h10v1H26zm10 0h1v1h-1z"/><path d="M41 62h13v8H41zm13 0h1v9h-1zm7 0h1v3h-1zm6 0h7v1h-7zm7 0h1v1h-1zm-47 1h8v1h-8zm8 0h1v1h-1z"/><path d="M40 63h15v7H40zm15 0h1v5h-1zm7 0h1v3h-1zm6 0h5v1h-5zm5 0h1v1h-1zm-45 1h6v1h-6zm6 0h1v1h-1z"/><path d="M39 64h16v6H39zm20 0h4v1h-4zm4 0h1v2h-1zm6 0h2v1h-2zm2 0h1v1h-1zm-41 1h3v1h-3zm3 0h1v1h-1z"/><path d="M38 65h17v4H38zm22 0h4v1h-4zm4 0h1v2h-1zm6 0h1v1h-1zm-39 1h1v1h-1zm1 0h1v1h-1z"/><path d="M37 66h19v2H37zm19 0h1v1h-1zm6 0h3v1h-3zm3 0h1v1h-1z"/><path d="M36 67h20v1H36zm20 0h1v1h-1zm8 0h2v1h-2zm2 0h1v1h-1zm-31 1h20v1H35zm20 0h1v1h-1zm-18 1h17v1H37zm2 1h15v1H39zm4 1h11v1H43zm11 0h1v1h-1zm31 13h6v1h-6zm6 0h1v1h-1zm-73 1h1v5h-1zm8 0h1v5h-1zm4 0h3v1h-3zm3 0h1v2h-1zm5 0h1v5h-1zm1 0h1v1h-1zm4 0h1v5h-1zm4 0h2v1h-2zm2 0h1v1h-1zm4 0h1v1h-1zm1 0h1v1h-1zm6 0h1v2h-1zm1 0h2v1h-2zm2 0h1v1h-1zm7 0h1v5h-1zm1 0h1v1h-1zm8 0h2v1h-2zm2 0h1v5h-1zm4 0h1v5h-1zm6 0h1v1h-1zm1 0h1v3h-1zm-62 1h3v1h-3zm17 0h1v4h-1zm16 0h1v1h-1zm8 0h1v1h-1zm1 0h1v1h-1zm7 0h2v1h-2zm-49 1h1v3h-1zm3 0h1v1h-1zm1 0h1v1h-1zm26 0h1v2h-1zm4 0h1v2h-1zm8 0h1v1h-1zm1 0h1v1h-1zm5 0h1v1h-1zm-44 1h1v1h-1zm1 0h1v1h-1zm24 0h1v2h-1zm14 0h1v1h-1zm5 0h1v1h-1zm12 0h2v1h-2zm2 0h1v1h-1zm-57 1h1v1h-1zm1 0h2v1h-2zm24 0h5v1h-5zm5 0h1v1h-1zm9 0h1v1h-1zm3 0h1v1h-1zm9 0h4v1h-4zm4 0h1v1h-1zm-72 1h2v1h-2zm2 0h1v1h-1zm5 0h1v1h-1zm1 0h1v1h-1zm4 0h1v1h-1zm6 0h3v1h-3zm3 0h1v1h-1zm4 0h1v1h-1zm4 0h2v1h-2zm2 0h1v1h-1zm4 0h1v1h-1zm1 0h1v1h-1zm4 0h1v1h-1zm1 0h1v1h-1zm6 0h1v1h-1zm5 0h1v1h-1zm4 0h3v1h-3zm3 0h1v1h-1zm4 0h1v1h-1zm4 0h1v1h-1z"/><path d="M77 19h1v1h-1zm1 1h1v1h-1zM37 34h1v1h-1zm1 1h1v1h-1zm41 2h1v1h-1zm8 1h1v1h-1zM40 53h1v1h-1zm17 15h1v1h-1zM2 78h1v1H2zm36 5h1v1h-1zm1 0h1v1h-1zm5 0h1v1h-1zM11 99h1v1h-1z" fill="#f3f3f3"/><path fill="#fef8f8" d="M90 46h1v1h-1z"/><path fill="#ffcfd1" d="M62 74h1v1h-1z"/><path d="M70 9h1v1h-1zM58 74h1v1h-1z" fill="#ffe4e3"/><path fill="#ffaeb2" d="M64 10h1v1h-1z"/><path d="M64 16h1v1h-1zm-42 8h1v1h-1zm8 5h1v1h-1zm1 1h1v1h-1zm1 1h1v1h-1zm6 30h1v1h-1zm55 25h1v1h-1zm-32 1h1v1h-1zm32 0h1v1h-1z" fill="#9f9f9f"/><path d="M62 27h1v1h-1zm5 4h1v1h-1zm-1 1h1v1h-1zm-1 1h1v1h-1zm-36 5h1v1h-1zm-12 2h1v1h-1zm4 16h1v1h-1zm21 15h1v1h-1zm38 19h1v1h-1z" fill="#040404"/><path d="M93 46h1v1h-1zM57 71h1v1h-1z" fill="#ff9c9f"/><path fill="#ffa0a5" d="M91 46h1v1h-1z"/><path d="M59 70h1v1h-1zm1 3h1v1h-1z" fill="#ff0710"/><path fill="#e5e5e6" d="M103 89h1v1h-1z"/><path d="M68 8h1v1h-1zm24 38h1v1h-1z" fill="#ff7376"/><path d="M69 11h1v1h-1zm-1 2h1v1h-1z" fill="#ff0108"/><path d="M27 26h1v1h-1zm1 1h1v1h-1zm9 17h1v1h-1z" fill="#9d9d9d"/><path d="M62 12h1v1h-1zm-26 3h1v1h-1zm-6 11h1v1h-1zm1 1h1v1h-1zm-10 8h1v1h-1zm44 7h1v1h-1zm-2 48h1v1h-1z" fill="#4c4c4c"/><path d="M73 16h1v1h-1zM60 84h1v1h-1z" fill="#555"/><path d="M58 30h1v1h-1zm3 26h1v1h-1z" fill="#7b7b7b"/><path d="M57 33h1v1h-1zm5 4h1v1h-1zm-39 1h1v1h-1zm57 0h1v1h-1zM37 54h1v1h-1zm6 18h1v1h-1zm50 13h1v1h-1z" fill="#b8b8b8"/><path d="M94 46h1v1h-1zm-5 1h1v1h-1z" fill="#fef7f7"/><path d="M18 31h1v1h-1zm12 10h1v1h-1zm38 2h1v1h-1zm-29 5h1v1h-1zm-7 8h1v1h-1zm34 12h1v1h-1zM29 85h1v1h-1zm0 5h1v1h-1z" fill="#acacac"/><path d="M69 32h1v1h-1zm-25 1h1v1h-1zm24 0h1v1h-1zm-1 1h1v1h-1zm2 7h1v1h-1zm-36 1h1v1h-1zm-9 19h1v1h-1zm42 2h1v1h-1zm1 1h1v1h-1zm5 1h1v1h-1z" fill="#e1e1e1"/><path fill="#ffe0df" d="M69 8h1v1h-1z"/><path d="M62 11h1v1h-1zm5 5h1v1h-1zM20 55h1v1h-1zm38 8h1v1h-1zm11 21h1v1h-1z" fill="#636363"/><path d="M30 16h1v1h-1zm31 7h1v1h-1zm2 24h1v1h-1zm16 13h1v1h-1zm-22 1h1v1h-1zM25 86h1v1h-1zm0 1h1v1h-1z" fill="#919191"/><path d="M62 22h1v1h-1zm-21 1h1v1h-1zm2 7h1v1h-1zm-24 5h1v1h-1zm48 7h1v1h-1zm7 22h1v1h-1zm-26 9h1v1h-1zm3 0h1v1h-1zM5 81h1v1H5zm101 2h1v1h-1zm-29 3h1v1h-1zm-22 2h1v1h-1zm20 0h1v1h-1zm-2 3h1v1h-1zm-33 1h1v1h-1zm62 4h1v1h-1z" fill="#fcfcfc"/><path d="M29 26h1v1h-1zm1 1h1v1h-1zm1 1h1v1h-1zm-13 2h1v1h-1zm26 10h1v1h-1zm16 1h1v1h-1zm7 2h1v1h-1zM38 71h1v1h-1zM4 83h1v1H4zm16 1h1v2h-1zm0 2h1v1h-1zm73 3h1v1h-1z" fill="#f7f7f7"/><path d="M42 30h1v1h-1zm22 8h1v1h-1zm-9 24h1v1h-1z" fill="#282828"/><path d="M38 34h1v1h-1zm1 1h1v1h-1zm1 1h1v1h-1zm5 1h1v1h-1zm9 0h1v1h-1zm-21 3h1v1h-1zm2 17h1v1h-1zm32 10h1v1h-1zm-33 1h1v1h-1zm50 16h1v5h-1zm-31 5h1v1h-1zm31 0h1v1h-1zm-24 1h1v1h-1zm26 0h1v1h-1zm-44 1h1v1h-1zm12 0h1v1h-1zm20 0h1v1h-1z" fill="#424242"/><path fill="#646464" d="M47 9h1v1h-1z"/><path d="M60 39h1v1h-1zm27 8h1v1h-1zM22 59h1v1h-1zm42 4h1v1h-1zM29 84h1v1h-1z" fill="#b6b6b6"/><path d="M61 60h1v1h-1zM17 84h1v1h-1zm20 2h1v1h-1z" fill="#b4b4b4"/><path d="M102 90h1v1h-1zM8 96h1v1H8z" fill="#fbfbfc"/><path d="M70 8h1v1h-1zm1 4h1v1h-1zm23 33h1v1h-1zm-6 5h1v1h-1zM58 68h1v1h-1zm5 1h1v1h-1zm1 2h1v2h-1zm0 2h1v1h-1zm-7 1h1v1h-1zm5 1h1v1h-1zm-3 1h2v1h-2zm2 0h1v1h-1z" fill="#feffff"/><path d="M71 10h1v1h-1zM61 67h1v1h-1zm2 7h1v1h-1z" fill="#fbffff"/><path d="M28 18h1v1h-1zm10 2h1v1h-1zm8 13h1v1h-1zm-5 4h1v1h-1zm36 0h1v1h-1zm-35 1h1v1h-1zm-3 25h1v1h-1zm-1 1h1v1h-1zm-1 1h1v1h-1zm-1 1h1v1h-1zm24 0h1v1h-1zM42 84h1v1h-1zm-6 4h1v1h-1z" fill="#3e3e3e"/><path d="M81 36h1v1h-1zm-17 7h1v1h-1z" fill="#d6d6d6"/><path fill="#ff575c" d="M94 51h1v1h-1z"/><path fill="#fbfbfa" d="M3 77h1v1H3z"/><path d="M44 9h1v1h-1zM18 52h1v1h-1zm44 7h1v1h-1zm-36 1h1v1h-1zm-2 29h1v1h-1z" fill="#e5e5e5"/><path d="M66 10h2v1h-2zm2 0h1v1h-1zm-2 1h1v1h-1zm1 1h1v1h-1zm-6 60h1v1h-1z" fill="#ff1119"/><path d="M20 35h1v1h-1zm63 0h1v1h-1zm-38 1h1v1h-1zm21 6h1v1h-1zM28 65h1v1h-1zm44 19h1v1h-1zm-55 1h1v3h-1zm0 3h1v1h-1zm44 0h1v1h-1z" fill="#b1b1b1"/><path d="M6 88h1v1H6zm1 3h1v1H7z" fill="#e9e9ea"/><path d="M68 14h1v1h-1zm-8 54h1v1h-1z" fill="#ffc3c5"/><path d="M65 18h1v1h-1zm-5 12h1v1h-1zm28 12h1v1h-1zM67 66h1v1h-1zM29 86h1v3h-1zm8 2h1v1h-1zm-20 1h1v1h-1zm12 0h1v1h-1z" fill="#afafaf"/><path d="M39 21h1v1h-1zm43 6h1v1h-1zm-60 9h1v1h-1zm8 21h1v1h-1zm15 2h1v1h-1zm42 31h1v1h-1z" fill="#d1d1d1"/><path fill="#ffdbdc" d="M63 73h1v1h-1z"/><path d="M60 9h1v1h-1zm-33 9h1v1h-1zm15 7h1v1h-1zm0 3h1v1h-1zm14 8h1v1h-1zm-20 6h1v1h-1zm70 39h1v1h-1zm-70 6h1v1h-1zm-15 2h2v1h-2zm2 0h1v1h-1zm28 0h1v1h-1zm-8 3h1v1h-1zm15 0h1v1h-1zm8 0h1v1h-1zm4 0h1v1h-1zm15 0h1v1h-1z" fill="#e9e9e9"/><path d="M50 10h1v1h-1zm-17 4h1v1h-1zm39 1h1v1h-1zm14 35h1v1h-1zM55 86h1v1h-1z" fill="#8b8b8b"/><path d="M47 36h1v1h-1zm37 20h1v1h-1z" fill="#777"/><path d="M41 43h1v1h-1zm33 44h1v1h-1zm-17 3h1v1h-1z" fill="#c2c2c2"/><path d="M63 17h1v1h-1zm3 0h1v1h-1zm-29 1h1v1h-1zm21 11h1v1h-1zm-11 6h1v1h-1zm-23 1h1v1h-1zm-7 1h1v1h-1zm69 1h1v1h-1zm-14 4h1v1h-1zm-34 3h1v1h-1zm25 8h1v1h-1zm-35 4h1v1h-1zm10 27h1v1h-1zm25 0h1v1h-1zm-44 1h1v2h-1zm0 2h1v1h-1zm12 0h1v1h-1zm4 0h1v1h-1zm36 0h1v1h-1zm20 0h1v1h-1zm-43 4h1v1h-1z" fill="#171717"/><path d="M16 38h1v1h-1zm25 0h1v1h-1zm2 20h1v1h-1zm-6 6h1v1h-1zm-1 1h1v1h-1zM4 79h1v1H4zm28 4h1v1h-1zm31 0h1v1h-1zm-15 9h1v1h-1zm19 0h2v1h-2zm2 0h1v1h-1zm17 0h1v1h-1z" fill="#f1f1f1"/><path fill="#ff8082" d="M63 72h1v1h-1z"/><path fill="#f8f8f9" d="M106 78h1v1h-1z"/><path fill="#c9c9c9" d="M62 88h1v1h-1z"/><path d="M52 8h2v1h-2zm2 0h1v1h-1zm-17 3h1v1h-1zm28 3h1v1h-1zm-3 10h1v1h-1zm-21 1h1v1h-1zm-21 1h1v1h-1zm23 2h1v1h-1zm-27 7h1v1h-1zm0 1h1v1h-1zm0 9h1v1h-1zm79 0h1v1h-1zM1 78h1v1H1zm108 0h1v1h-1zm-4 2h1v1h-1zM3 81h1v1H3zm17 2h1v1h-1zM4 84h1v1H4zm1 3h1v1H5zm52 2h1v1h-1zM8 90h1v1H8zm96 0h1v1h-1zm-58 1h1v1h-1zM9 93h1v1H9zm94 0h1v1h-1zm-3 3h1v1h-1zM9 99h1v1H9zm89 0h1v1h-1z" fill="#fefefe"/><path d="M76 18h1v1h-1zM16 39h1v1h-1zm26 17h1v1h-1zm39 3h1v1h-1zM42 83h1v1h-1zM7 89h1v1H7zm43 0h1v1h-1zm-18 1h1v1h-1zm-7 2h1v1h-1zm5 0h1v1h-1zm7 0h1v1h-1zm12 0h1v1h-1zm26 0h1v1h-1zm1 0h1v1h-1zm5 0h1v1h-1zm20 3h1v1h-1z" fill="#eaeaea"/><path d="M26 20h1v1h-1zm43 13h1v1h-1zm-50 1h1v1h-1zm37 0h1v1h-1zm12 0h1v1h-1zm-1 1h1v1h-1zm-1 1h1v1h-1zm-1 1h1v1h-1zm2 4h1v1h-1zm-3 19h1v1h-1zm1 1h1v1h-1zm1 1h1v1h-1zm1 1h1v1h-1zm-19 9h1v1h-1zm3 0h1v1h-1zM19 84h1v1h-1zm47 6h1v1h-1z" fill="#262626"/><path d="M61 27h1v1h-1zm-9 9h1v1h-1zm11 2h1v1h-1zm-1 1h1v1h-1zm-46 1h1v1h-1zm71 14h1v1h-1zm-26 4h1v1h-1zM0 77h1v1H0zm4 4h1v1H4zm39 2h1v1h-1zm7 0h1v1h-1zm1 0h1v1h-1z" fill="#e4e4e4"/><path fill="#aaa" d="M62 54h1v1h-1z"/><path d="M40 18h1v1h-1zm38 6h1v1h-1zm-1 1h1v1h-1zm-1 1h1v1h-1zm-1 1h1v1h-1zm-55 1h1v1h-1zm54 0h1v1h-1zm-13 1h1v1h-1zm-42 1h1v1h-1zm25 5h1v1h-1zm40 2h1v1h-1zm-53 2h1v1h-1zm36 5h1v1h-1zm20 9h1v1h-1zm-54 2h1v1h-1zm58 31h1v1h-1zm-60 5h1v1h-1z" fill="#1f1f1f"/><path d="M79 23h1v1h-1zM28 38h1v1h-1zm42 2h1v1h-1zm-36 3h1v1h-1zm54 0h1v1h-1zM56 64h1v1h-1zm1 3h1v1h-1zm35 17h1v1h-1zm-23 2h1v3h-1zm0 3h1v1h-1zm23 0h1v1h-1z" fill="#5c5c5c"/><path d="M45 32h1v1h-1zm25 10h1v1h-1zM47 60h1v1h-1zm15 7h1v1h-1zm26 23h1v1h-1zm1 0h1v1h-1z" fill="#cfcfcf"/><path d="M74 17h1v1h-1zm12 37h1v1h-1zM47 72h1v1h-1zm31 14h1v1h-1zm-51 3h1v1h-1z" fill="#353535"/><path d="M45 31h1v1h-1zm4 6h1v1h-1zm37 0h1v1h-1zm-11 1h1v1h-1zm-48 2h1v1h-1zm8 1h1v1h-1zm14 20h1v1h-1zm-23 2h1v1h-1zm53 21h1v1h-1zm-6 2h1v1h-1zm6 2h1v1h-1zm-61 3h1v1h-1zm39 0h1v1h-1z" fill="#6a6a6a"/><path d="M66 9h1v1h-1zm3 3h1v1h-1zm22 35h2v1h-2zm2 0h1v1h-1zm1 1h1v1h-1z" fill="#ff0002"/><path d="M64 21h1v1h-1zM17 36h1v1h-1zm20 20h1v1h-1zm9 4h1v1h-1zm25 28h1v1h-1z" fill="#6e6e6e"/><path d="M53 37h1v1h-1zm30 0h1v1h-1zm-25 2h1v1h-1zm3 3h1v1h-1zm5 2h1v1h-1zm-47 6h1v1h-1zm19 0h1v1h-1zm26 0h1v1h-1zm-30 5h1v1h-1zm-13 2h1v1h-1zm55 5h1v1h-1z" fill="#7f7f7f"/><path fill="#ffdee0" d="M61 68h1v1h-1z"/><path fill="#ffadae" d="M57 72h1v1h-1z"/><path d="M48 9h1v1h-1zM34 30h1v1h-1zm1 1h1v1h-1zm34 12h1v1h-1zM31 56h1v1h-1z" fill="#464646"/><path d="M71 28h1v1h-1zm-1 1h1v1h-1zm-1 1h1v1h-1zm2 10h1v1h-1zm-8 5h1v1h-1zm24 6h1v1h-1zM34 69h1v1h-1zm3 15h1v1h-1zm30 7h1v1h-1z" fill="#bdbdbd"/><path d="M47 37h1v1h-1zm16 13h1v1h-1zm27 37h1v1h-1zm1 3h1v1h-1z" fill="#d7d7d7"/><path d="M61 38h1v1h-1zm4 26h1v1h-1zm1 1h1v1h-1zm-4 21h1v1h-1z" fill="#b7b7b7"/><path d="M62 10h1v1h-1zm4 6h1v1h-1zm-7 12h1v1h-1zm-13 6h1v1h-1zm-10 1h1v1h-1zm1 1h1v1h-1zm48 0h1v1h-1zm-47 1h1v1h-1zm1 1h1v1h-1zm2 20h1v1h-1z" fill="#a5a5a5"/><path d="M70 10h1v1h-1zm-8 59h1v1h-1z" fill="#ff8386"/><path fill="#fffbfb" d="M70 13h1v1h-1z"/><path fill="#ffa1a4" d="M58 69h1v1h-1z"/><path d="M105 82h1v1h-1zM5 85h1v1H5zm95 13h1v1h-1z" fill="#ebebec"/><path fill="#ffa3a6" d="M67 14h1v1h-1z"/><path d="M40 19h1v1h-1zm4 15h1v1h-1zm-12 8h1v1h-1zm23 48h1v1h-1zm-8 1h1v1h-1z" fill="#838383"/><path d="M24 62h1v1h-1zm33 0h1v1h-1zm30 25h2v1h-2zm2 0h1v1h-1zm-57 4h1v1h-1zm47 0h1v1h-1zm-58 1h3v1h-3zm3 0h1v1h-1zm15 0h1v1h-1zm11 0h1v1h-1zm1 0h1v1h-1zm14 0h1v1h-1z" fill="#ececec"/><path d="M103 92h1v1h-1zm-3 5h1v1h-1z" fill="#f6f6f7"/><path d="M79 36h1v1h-1zm-60 1h1v1h-1zm-2 7h1v1h-1zm16 14h1v1h-1zm6 26h1v1h-1zm33 1h1v1h-1zm-18 1h1v1h-1zm-35 2h1v1h-1zm61 0h1v1h-1zm-26 1h1v1h-1zm26 2h1v1h-1z" fill="#1b1b1b"/><path fill="#ff8586" d="M92 52h1v1h-1z"/><path fill="#ffe8e9" d="M59 68h1v1h-1z"/><path d="M5 83h1v1H5zm4 14h1v1H9z" fill="#e7e7e8"/><path fill="#ededef" d="M104 85h1v1h-1z"/><path d="M35 67h1v1h-1zm49 23h1v1h-1z" fill="#404040"/><path fill="#f7f7f8" d="M9 94h1v1H9z"/><path d="M67 8h1v1h-1zm23 39h1v1h-1zM61 74h1v1h-1z" fill="#ff5459"/><path d="M56 9h1v1h-1zm26 19h1v1h-1zM63 46h1v1h-1zm23 40h1v1h-1z" fill="#565656"/><path d="M38 12h1v1h-1zm-7 4h1v1h-1zm31 3h1v1h-1zm-21 1h1v1h-1zm36 1h1v1h-1zm6 10h1v1h-1zm-40 2h1v1h-1zm21 1h1v1h-1zm-1 1h1v1h-1zm-1 1h1v1h-1zm-1 1h1v1h-1zm-40 1h1v1h-1zm39 0h1v1h-1zm22 0h1v1h-1zm-65 3h1v1h-1zm48 4h1v1h-1zm-30 9h1v1h-1zm47 3h1v1h-1zm-51 2h1v1h-1zm14 1h1v1h-1zm15 0h1v1h-1zm18 0h1v1h-1zm-17 1h1v1h-1zm1 1h1v1h-1zm1 1h1v1h-1zm1 1h1v1h-1zm1 1h1v1h-1zm1 1h1v1h-1zM18 84h1v1h-1zm25 0h1v1h-1zm27 0h1v1h-1zm10 0h1v1h-1zm1 0h1v1h-1zm-29 1h1v1h-1zm34 0h1v1h-1zm-52 1h1v1h-1zm-10 4h1v1h-1z" fill="#030303"/><path d="M36 13h1v1h-1zm2 5h1v1h-1zm-4 13h1v1h-1zM16 44h1v1h-1zm46 9h1v1h-1zm-18 5h1v1h-1zm61 23h1v1h-1zm-3 14h1v1h-1z" fill="#f5f5f5"/><path fill="#6c6c6c" d="M39 22h1v1h-1z"/><path d="M89 49h1v1h-1zm6 0h1v1h-1z" fill="#ff7a7f"/><path d="M58 9h1v1h-1zm5 14h1v1h-1zm-23 1h1v1h-1zM18 36h1v1h-1zm55 5h1v1h-1zM34 65h1v1h-1zm10 19h1v1h-1z" fill="#9b9b9b"/><path d="M34 13h1v1h-1zm29 6h1v1h-1zm12 7h1v1h-1zm-1 1h1v1h-1zm-57 6h1v1h-1zm12 6h1v1h-1zm6 16h1v1h-1zm-6 11h1v1h-1zm11 18h1v1h-1zm0 7h1v1h-1z" fill="#ddd"/><path d="M75 18h1v1h-1zM61 41h1v1h-1zm-20 1h1v1h-1zm18 23h1v1h-1zm6 3h1v1h-1zM42 85h1v1h-1zm0 5h1v1h-1z" fill="#2e2e2e"/><path fill="#ff5054" d="M94 47h1v1h-1z"/><path fill="#fff5f5" d="M95 47h1v1h-1z"/><path d="M61 69h1v1h-1zm0 1h1v1h-1z" fill="#ff0c16"/><path fill="#ff9296" d="M64 11h1v1h-1z"/><path fill="#e9ebeb" d="M69 15h1v1h-1z"/><path d="M39 18h1v1h-1zm-13 5h1v1h-1zm5 18h1v1h-1zm56 9h1v1h-1zM54 88h1v1h-1zm13 2h1v1h-1zm-57 7h1v1h-1z" fill="#f9f9f9"/><path fill="#ff454b" d="M65 9h1v1h-1z"/><path d="M60 25h1v1h-1zm-6 47h1v1h-1z" fill="#656565"/><path d="M73 29h1v1h-1zm-1 1h1v1h-1zm12 4h1v1h-1zm-53 8h1v1h-1zm-9 16h1v1h-1zm59 0h1v1h-1zm-12 7h1v1h-1zm-31 5h1v1h-1zm11 2h1v1h-1zm1 0h1v1h-1zm28 17h1v1h-1z" fill="#212121"/><path d="M39 43h1v1h-1zM29 59h1v1h-1zm33 2h1v1h-1zm1 1h1v1h-1z" fill="#b5b5b5"/><path d="M4 80h1v1H4zm100 7h1v1h-1z" fill="#e6e6e7"/><path d="M45 9h1v1h-1zm17 12h1v1h-1zm-21 1h1v1h-1zm2 9h1v1h-1zm25 0h1v1h-1zm-1 1h1v1h-1zm-1 1h1v1h-1zm-1 1h1v1h-1z" fill="#bbb"/><path d="M63 24h1v1h-1zm-5 12h1v1h-1zM48 61h1v1h-1z" fill="#313131"/><path d="M71 31h1v1h-1zm-1 1h1v1h-1zm-2 32h1v1h-1z" fill="#232323"/><path d="M42 42h1v1h-1zm-26 1h1v1h-1zm73 2h1v1h-1zM3 79h1v1H3zm1 3h1v1H4zm65 1h1v1h-1zm-14 1h1v1h-1zm21 4h1v1h-1zm-45 4h1v1h-1zm49 0h1v1h-1zM9 95h1v1H9z" fill="#ededed"/><path d="M103 87h1v1h-1zm1 2h1v1h-1z" fill="#f9f9fa"/><path fill="#ffabad" d="M89 50h1v1h-1z"/><path d="M2 77h1v1H2zm17 6h1v1h-1zm29 0h1v1h-1zm5 0h1v1h-1zm52 1h1v1h-1zm-70 7h1v1h-1zm20 0h1v1h-1zm-44 9h1v1h-1z" fill="#e7e7e7"/><path d="M60 10h1v1h-1zm-26 4h1v1h-1zm37 1h1v1h-1zm-11 9h1v1h-1zm20 1h1v1h-1zm4 8h1v1h-1zm-39 5h1v1h-1zm-28 1h1v1h-1zm60 1h1v1h-1zm11 4h1v1h-1zM26 61h1v1h-1zm22 23h1v1h-1zm-17 6h1v1h-1zm-11 1h1v1h-1zm5 0h1v1h-1zm5 0h1v1h-1zm7 0h1v1h-1zm1 0h1v1h-1zm15 0h1v1h-1zm28 0h1v1h-1z" fill="#090909"/><path d="M65 10h1v1h-1zm0 1h1v1h-1zm-7 60h1v1h-1zm0 1h1v1h-1z" fill="#ff0005"/><path d="M29 17h1v1h-1zm-5 42h1v1h-1z" fill="#5f5f5f"/><path d="M26 25h1v1h-1zm-8 25h1v1h-1zm9 8h1v1h-1zm24 3h1v1h-1zm-16 3h1v1h-1zM25 84h1v1h-1zm33 4h1v1h-1z" fill="#9c9c9c"/><path d="M89 44h1v1h-1zM38 55h1v1h-1zm19 4h1v1h-1zm9 29h1v1h-1zm-34 1h1v1h-1zm-13 3h1v1h-1z" fill="#eee"/><path fill="#f1f1f2" d="M102 91h1v1h-1z"/><g fill="#ff0b14"><path d="M66 12h1v1h-1zm-8 58h1v1h-1z"/></g><g fill="#121212"><path d="M38 13h1v1h-1zM17 38h1v1h-1zm42 1h1v1h-1zM38 56h1v1h-1zm-15 3h1v1h-1zm6 6h1v1h-1zm1 19h2v1h-2zm2 0h1v1h-1zm55 1h2v1h-2zm2 0h1v1h-1z"/></g><g fill="#9a9a9a"><path d="M25 24h1v1h-1zm19 5h1v1h-1zm14 6h1v1h-1zm-33 2h1v1h-1zm8 29h1v1h-1zm44 21h1v1h-1z"/></g><g fill="#d4d4d4"><path d="M83 29h1v1h-1zM45 39h1v1h-1zm46 44h1v1h-1zm-32 2h1v1h-1z"/></g><g fill="#979797"><path d="M73 39h1v1h-1zM39 55h1v1h-1zm13 6h1v1h-1zm3 0h1v1h-1zm-23 6h1v1h-1zm12 18h1v4h-1zm-19 3h1v1h-1zm19 1h1v1h-1zm22 0h1v1h-1z"/></g><g fill="#f2f2f3"><path d="M7 92h1v1H7zm94 6h1v1h-1zm-2 1h1v1h-1z"/></g><g fill="#ff676c"><path d="M70 11h1v1h-1zm-1 2h1v1h-1zM59 74h1v1h-1z"/></g><g fill="#e2e2e2"><path d="M26 19h1v1h-1zm14 1h1v1h-1zm26 15h1v1h-1zm-1 1h1v1h-1zm-4 4h1v1h-1zm-45 1h1v1h-1zm48 20h1v1h-1zm1 1h1v1h-1zM42 72h1v1h-1z"/></g><g fill="#8d8d8d"><path d="M27 60h1v1h-1zm17 12h1v1h-1z"/></g><g fill="#ff050b"><path d="M67 9h1v1h-1zm-2 3h1v1h-1zm-5 57h1v1h-1z"/></g><g fill="#444"><path d="M65 19h1v1h-1zm-44 7h1v1h-1zm39 5h1v1h-1zm-24 1h1v1h-1zm1 1h1v1h-1zm-8 8h1v1h-1zm25 20h1v1h-1zm-24 5h1v1h-1zm26 2h1v1h-1zm-3 4h1v1h-1zM27 90h1v1h-1z"/></g><path fill="#e6e8e8" d="M102 92h1v1h-1z"/><g fill="#d5d5d5"><path d="M64 20h1v1h-1zm14 3h1v1h-1zm-19 9h1v1h-1zm27 4h1v1h-1zM36 70h1v1h-1zm29 16h1v1h-1z"/></g><g fill="#8e8e8e"><path d="M50 11h1v24h-1zM24 23h1v1h-1zm26 12h1v1h-1zm28 4h1v1h-1zm8 9h1v1h-1zM50 61h1v1h-1z"/></g><g fill="#f0f0f0"><path d="M74 16h1v1h-1zM58 34h1v1h-1zm-16 5h1v1h-1zm-4 5h1v1h-1zm2 1h1v1h-1zm-1 17h1v1h-1zm-1 1h1v1h-1zm-4 4h1v1h-1zm-4 16h1v1h-1zm1 0h1v1h-1zm31 0h1v1h-1zm22 9h1v1h-1z"/></g><g fill="#e3e3e3"><path d="M63 13h1v1h-1zm18 12h1v1h-1zM64 37h1v1h-1zm-1 23h1v1h-1zM3 78h1v1H3zm15 5h1v1h-1zm31 0h1v1h-1zm3 0h1v1h-1zm18 0h1v1h-1zm10 0h1v1h-1zm1 0h1v1h-1zm-29 3h1v1h-1zM6 87h1v1H6zm4 12h1v1h-1z"/></g><g fill="#fafafa"><path d="M32 14h1v1h-1zm48 9h1v1h-1zM61 55h1v1h-1zm6 13h1v1h-1zm-18 5h1v1h-1zm1 0h1v1h-1zM29 83h1v1h-1zm31 0h1v1h-1zm33 1h1v1h-1zm-6 2h2v1h-2zm2 0h1v1h-1zm16 0h1v1h-1zm-88 5h1v1h-1zm9 1h1v1h-1zm51 0h1v1h-1zm5 0h1v1h-1z"/></g><g fill="#fff8f8"><path d="M89 51h1v1h-1zm6 0h1v1h-1z"/></g><g fill="#d9d9d9"><path d="M19 54h1v1h-1zm65 29h1v1h-1zm-44 2h1v1h-1zm0 5h1v1h-1z"/></g><g fill="#e8e8e8"><path d="M52 9h1v1h-1zm23 8h1v1h-1zm10 16h1v1h-1zM40 46h1v1h-1zm17 19h1v1h-1zm33 21h1v1h-1zm9 14h1v1h-1z"/></g><g fill="#f6f6f6"><path d="M28 17h1v1h-1zm36 0h1v1h-1zM32 29h1v1h-1zm1 1h1v1h-1zm0 27h1v1h-1zm27 0h1v1h-1zM33 68h1v1h-1zm74 9h1v2h-1zm0 2h1v1h-1zm-90 4h1v1h-1zM5 86h1v1H5zm29 4h1v1h-1zM8 91h1v1H8zm28 1h1v1h-1zm8 0h1v1h-1zm15 0h1v1h-1z"/></g><g fill="#393939"><path d="M48 37h1v1h-1zm-4 2h1v1h-1zm-2 21h1v1h-1zm32 3h1v1h-1zM61 86h1v1h-1z"/></g><g fill="#f8f8f8"><path d="M65 17h1v1h-1zm-38 7h1v1h-1zm1 1h1v1h-1zm32 4h1v1h-1zm-15 6h1v1h-1zm39 1h1v1h-1zm-53 4h1v1h-1zm56 8h1v1h-1zm-54 8h1v1h-1zm44 6h1v1h-1zm31 16h1v1h-1zM3 80h1v1H3zm22 3h1v1h-1zm57 0h1v1h-1zm-36 1h1v1h-1zm58 0h1v1h-1zm-84 3h1v1h-1zm12 1h1v1h-1zm47 2h1v1h-1zm-50 2h1v1h-1zm45 0h1v1h-1z"/></g><g fill="#fff"><path d="M0 0h109v6H0zm109 0h1v75h-1zM0 6h109v1H0zm0 1h67v1H0zm67 0h42v1H67zM0 8h49v1H0zm49 0h2v1h-2zm2 0h1v52h-1zm4 0h9v1h-9zm9 0h1v1h-1zm7 0h38v1H71zM0 9h43v1H0zm43 0h1v1h-1zm18 0h2v1h-2zm2 0h1v3h-1zm8 0h38v1H71zM0 10h39v1H0zm39 0h1v1h-1zm33 0h37v4H72zM0 11h36v1H0zm36 0h1v1h-1zM0 12h36v1H0zm36 0h1v1h-1zm27 0h1v1h-1zM0 13h33v1H0zm33 0h1v1h-1zm31 0h1v1h-1z"/><path d="M71 13h38v1H71zM0 14h31v1H0zm31 0h1v1h-1zm6 0h1v1h-1zm32 0h1v1h-1zm1 0h39v1H70zM0 15h30v1H0zm30 0h1v1h-1zm7 0h1v1h-1zm28 0h3v1h-3zm3 0h1v1h-1zm5 0h36v1H73zM0 16h29v1H0zm29 0h1v1h-1zm9 0h1v1h-1zm27 0h1v1h-1zm10 0h34v1H75zM0 17h27v1H0zm27 0h1v1h-1zm11 0h1v1h-1zm38 0h33v1H76zM0 18h26v1H0zm26 0h1v1h-1zm38 0h1v1h-1zm13 0h32v1H77zM0 19h25v3H0zm25 0h1v1h-1zm14 0h1v1h-1zm25 0h1v1h-1zm14 0h31v1H78zm-39 1h1v1h-1zm24 0h1v1h-1zm16 0h30v2H79zm-39 1h1v1h-1zm23 0h1v1h-1zM0 22h24v1H0zm24 0h1v1h-1zm16 0h1v1h-1zm38 0h31v1H78zM0 23h22v1H0zm22 0h1v1h-1zm3 0h1v1h-1zm37 0h1v1h-1zm15 0h1v1h-1zm4 0h28v1H81zM0 24h21v1H0zm21 0h1v1h-1zm5 0h1v1h-1zm15 0h1v1h-1zm35 0h1v1h-1zm5 0h28v1H81zM0 25h20v2H0zm20 0h1v1h-1zm7 0h1v1h-1zm34 0h1v1h-1zm14 0h1v1h-1zm7 0h27v1H82zm-54 1h1v1h-1zm14 0h1v1h-1zm19 0h1v1h-1zm13 0h1v1h-1zm8 0h27v1H82zM0 27h19v2H0zm19 0h1v1h-1zm10 0h1v1h-1zm13 0h1v1h-1zm18 0h1v1h-1zm13 0h1v1h-1zm10 0h26v1H83zm-53 1h1v1h-1zm30 0h1v1h-1zm12 0h1v1h-1zm11 0h26v1H83zM0 29h18v3H0zm18 0h1v1h-1zm13 0h1v1h-1zm12 0h1v1h-1zm28 0h1v1h-1zm13 0h25v1H84zm-52 1h1v1h-1zm27 0h1v1h-1zm11 0h1v1h-1zm14 0h25v1H84zm-51 1h1v1h-1zm11 0h1v1h-1zm15 0h1v1h-1zm10 0h1v1h-1zm16 0h24v1H85zM0 32h17v2H0zm17 0h1v1h-1zm17 0h1v1h-1zm10 0h1v1h-1zm14 0h1v1h-1zm10 0h1v1h-1zm17 0h24v1H85zm-50 1h1v1h-1zm10 0h1v1h-1zm13 0h1v1h-1zm9 0h1v1h-1zm19 0h23v2H86zM0 34h16v41H0zm16 0h1v1h-1zm20 0h1v1h-1zm9 0h1v1h-1zm21 0h1v1h-1zm-49 1h1v1h-1zm1 0h1v1h-1zm19 0h1v1h-1zm20 0h1v1h-1zm8 0h1v1h-1zm20 0h24v1H85zm-65 1h1v1h-1zm1 0h1v1h-1zm17 0h1v1h-1zm8 0h1v1h-1zm11 0h1v1h-1zm7 0h1v1h-1zm18 0h1v1h-1zm1 0h1v1h-1zm4 0h22v1H87zm-65 1h1v1h-1zm1 0h1v1h-1zm16 0h1v1h-1zm17 0h1v24h-1zm7 0h1v1h-1zm17 0h1v1h-1zm1 0h1v1h-1zm6 0h22v1H87zm-63 1h2v1h-2zm2 0h1v1h-1zm14 0h1v1h-1zm7 0h9v21h-9zm15 0h1v1h-1zm15 0h2v1h-2zm2 0h1v1h-1zm9 0h21v2H88zm-61 1h1v1h-1zm1 0h1v1h-1zm13 0h1v1h-1zm20 0h1v1h-1zm14 0h1v1h-1zm1 0h1v1h-1zm-47 1h1v1h-1zm1 0h1v1h-1zm12 0h1v1h-1z"/><path d="M45 40h13v18H45zm13 0h2v17h-2zm2 0h1v1h-1zm12 0h2v1h-2zm2 0h1v1h-1zm14 0h21v1H88zm-56 1h1v1h-1zm1 0h1v1h-1z"/><path d="M43 41h16v16H43zm27 0h1v1h-1zm1 0h1v1h-1zm18 0h20v2H89zm-55 1h1v1h-1zm1 0h1v1h-1zm33 0h1v1h-1zm1 0h1v1h-1zm-33 1h2v1h-2zm2 0h1v1h-1z"/><path d="M42 43h18v12H42zm18 0h1v12h-1zm5 0h1v1h-1zm1 0h1v1h-1zm23 0h20v1H89z"/><path d="M39 44h25v1H39zm25 0h1v1h-1zm26 0h19v1H90zm-49 1h21v9H41zm21 0h1v7h-1zm28 0h1v1h-1zm6 0h13v31H96zm-80 1h1v53h-1zm73 0h1v1h-1z"/><path d="M40 47h22v4H40zm48 0h1v1h-1zm0 1h1v1h-1z"/><path d="M17 49h70v1H17zm70 0h1v1h-1zm-70 1h1v32h-1zm23 1h22v1H40zm48 0h1v1h-1zm-26 1h1v1h-1zm27 0h1v30h-1zm-71 1h1v29h-1zm72 0h2v29h-2zm2 0h17v23H92zm-54 1h23v1H38zm23 0h1v1h-1z"/><path d="M88 54h21v22H88zm-69 1h1v27h-1zm17 0h1v1h-1zm1 0h1v1h-1zm5 0h18v1H42zm18 0h1v1h-1z"/><path d="M87 55h22v21H87zm-53 1h1v1h-1zm1 0h1v1h-1z"/><path d="M86 56h23v20H86zm-66 1h1v25h-1zm11 0h1v1h-1zm1 0h1v1h-1zm11 0h16v1H43zm16 0h1v1h-1z"/><path d="M84 57h25v19H84zm-55 1h1v1h-1zm1 0h1v1h-1zm12 0h1v1h-1zm3 0h13v1H45zm13 0h2v1h-2zm2 0h1v1h-1z"/><path d="M83 58h26v18H83zm-62 1h1v29h-1zm5 0h2v1h-2zm2 0h1v1h-1zm13 0h1v1h-1zm5 0h10v1H46zm15 0h1v1h-1z"/><path d="M82 59h27v17H82zm-60 1h3v1h-3zm3 0h1v1h-1zm15 0h1v1h-1zm8 0h8v1h-8zm14 0h1v1h-1z"/><path d="M80 60h29v16H80zm-58 1h1v27h-1zm1 0h1v27h-1zm16 0h1v1h-1zm17 0h1v1h-1zm7 0h1v1h-1z"/><path d="M79 61h30v15H79zm-41 1h1v1h-1zm26 0h1v1h-1z"/><path d="M78 62h31v14H78zm-54 1h1v25h-1zm13 0h1v1h-1zm20 0h1v1h-1zm8 0h1v1h-1z"/><path d="M76 63h33v13H76zm-51 1h1v18h-1zm1 0h1v18h-1zm10 0h1v1h-1zm21 0h1v1h-1zm9 0h1v1h-1z"/><path d="M75 64h34v12H75zm-48 1h1v17h-1zm8 0h1v1h-1zm23 0h1v2h-1zm9 0h1v1h-1z"/><path d="M73 65h36v11H73zm-45 1h1v33h-1zm6 0h1v1h-1zm34 0h1v33h-1z"/><path d="M71 66h38v10H71zm-42 1h1v15h-1zm4 0h1v1h-1zm25 0h2v1h-2zm2 0h1v1h-1z"/><path d="M69 67h40v9H69zm-39 1h2v14h-2zm2 0h1v14h-1zm30 0h1v1h-1zm1 0h1v1h-1zm-6 1h1v1h-1z"/><path d="M66 69h43v7H66zm-33 1h2v13h-2zm2 0h1v15h-1zm21 0h1v2h-1z"/><path d="M64 70h45v1H64zm-28 1h1v15h-1zm1 0h1v11h-1zm28 0h44v5H65zm-27 1h3v10h-3zm3 0h1v27h-1zm15 0h1v27h-1zm-14 1h5v9h-5zm5 0h1v10h-1zm5 0h3v9h-3zm3 0h1v10h-1z"/><path d="M48 74h8v8h-8z"/><path d="M0 75h58v1H0zm58 0h1v11h-1zm5 0h46v1H63zm46 0h1v1h-1zM2 76h56v1H2zm60 0h46v1H62zm46 0h1v1h-1z"/><path d="M4 77h102v1H4zm102 0h1v1h-1zM0 78h1v1H0zm5 0h100v2H5zm100 0h1v1h-1zm0 1h1v1h-1zM5 80h99v1H5zm99 0h1v3h-1zM6 81h98v1H6zm0 1h98v1H6zm0 1h10v1H6zm27 0h3v1h-3zm12 0h2v1h-2zm2 0h1v1h-1zm7 0h5v1h-5zm5 0h1v1h-1zm5 0h4v1h-4zm8 0h6v1h-6zm6 0h1v1h-1zm5 0h1v16h-1zm9 0h12v1H92zm12 0h1v1h-1zM7 84h9v2H7zm27 0h2v1h-2zm11 0h1v15h-1zm12 0h2v2h-2zm2 0h1v1h-1zm6 0h3v1h-3zm8 0h5v1h-5zm5 0h1v1h-1zm16 0h9v5h-9zm9 0h1v2h-1zm-68 1h1v1h-1zm30 0h3v1h-3zm9 0h3v1h-3zm3 0h1v1h-1zM7 86h9v1H7zm29 0h1v1h-1zm21 0h1v2h-1zm1 0h1v1h-1zm8 0h2v1h-2zm8 0h2v1h-2zm2 0h1v1h-1zm27 0h1v1h-1zM8 87h8v2H8zm41 0h4v1h-4zm4 0h4v1h-4zm9 0h1v1h-1zm4 0h2v1h-2zm9 0h1v1h-1zm1 0h1v1h-1zm29 0h1v1h-1zm-85 1h4v1h-4zm4 0h1v1h-1zm25 0h4v1h-4zm4 0h1v1h-1zm4 0h1v1h-1zm10 0h1v1h-1zM8 89h8v1H8zm25 0h1v10h-1zm34 0h1v1h-1zm27 0h8v3h-8zm8 0h1v1h-1zM9 90h7v2H9zm63 0h1v9h-1z"/><path d="M92 90h9v5h-9zm-58 1h1v8h-1zm26 0h3v8h-3zm3 0h1v8h-1zm15 0h1v8h-1z"/><path d="M87 91h14v4H87zM9 92h9v1H9zm9 0h1v7h-1zm9 0h1v7h-1zm8 0h1v7h-1zm11 0h1v7h-1zm1 0h1v7h-1zm7 0h2v7h-2zm10 0h1v7h-1zm9 0h1v7h-1zm28 0h1v1h-1z"/><path d="M10 93h90v3H10zm90 2h1v1h-1zm-90 1h89v1H10zm89 0h1v2h-1zm-88 1h88v1H11zm0 1h88v1H11zm88 0h1v1h-1zm-87 1h85v1H12zm85 0h1v1h-1z"/></g><g fill="#c4c4c4"><path d="M59 9h1v1h-1zm3 16h1v1h-1zm13 15h1v1h-1zm-33 1h1v1h-1zM25 59h1v1h-1zm57 25h1v1h-1z"/></g><g fill="#676767"><path d="M23 23h1v1h-1zm-6 24h1v1h-1zm2 6h1v1h-1zm26 19h1v1h-1zm24 19h1v1h-1zm17 0h1v1h-1z"/></g><g fill="#818181"><path d="M30 39h1v1h-1zM20 50h17v1H20zm17 0h1v1h-1zm28 0h20v1H65zm20 0h1v1h-1zM33 88h1v1h-1z"/></g><path fill="#ff8d8f" d="M65 13h1v1h-1z"/><g fill="#ff0106"><path d="M67 13h1v1h-1zm27 36h1v1h-1zM61 73h1v1h-1z"/></g><g fill="#4e4e4e"><path d="M28 24h1v1h-1zm1 1h1v1h-1zm26 45h1v1h-1zM27 84h1v1h-1z"/></g><path fill="#ececed" d="M10 98h1v1h-1z"/><g fill="#888"><path d="M39 11h1v1h-1zm11 25h1v1h-1zM27 64h1v1h-1zm30 2h1v1h-1zm-26 1h1v1h-1zm2 17h1v1h-1zm22 1h1v1h-1zm0 4h1v1h-1zm20 0h1v1h-1z"/></g><path fill="#eaeaeb" d="M102 94h1v1h-1z"/><g fill="#cdcdcd"><path d="M60 26h1v1h-1zm25 8h1v1h-1zm-57 6h1v1h-1zm58 43h3v1h-3zm3 0h1v1h-1zm-40 3h1v1h-1z"/></g><g fill="#5a5a5a"><path d="M62 26h1v1h-1zm25 14h1v1h-1zM25 61h1v1h-1zm44 24h1v1h-1zm3 3h1v1h-1zm-47 1h1v1h-1zm9 0h1v1h-1zm35 1h1v1h-1z"/></g><g fill="#c8c8c8"><path d="M17 48h1v1h-1zm58 15h1v1h-1zm-17 1h1v1h-1zM35 86h1v1h-1z"/></g></svg>