<svg xmlns="http://www.w3.org/2000/svg" role="img" viewBox="-4.99 -4.99 259.74 240.49"><title>Universidad Anáhuac (member) logo</title><path d="M123.883 69.7892l19.616 22.4217 7.845-6.7253-27.461-31.1097v15.4133zm0 40.6368v-9.81l4.758 5.607-4.758 4.203zm0-17.0932V77.9174l16.252 18.2171-8.128 6.7275-8.124-9.5292zm-16.539-42.3226l16.539 18.779V54.3759l-9.254-10.091-7.285 6.7253zm16.539 26.9072v15.4154L96.1307 61.6611l7.2913-6.7273 20.461 22.9836zm0 22.6986v9.81l-3.089 2.525-35.8721-41.199 7.2852-6.7293 31.6759 35.5933zm-8.13 44.004l19.616 22.701 8.13-6.723-27.746-31.112v15.134zm0 40.918v-9.806l5.041 5.601-5.041 4.205zm0-17.095v-15.697l16.254 18.499-7.845 6.729-8.409-9.531zm-16.2546-42.321l16.2546 18.498v-15.134l-8.971-10.087-7.2836 6.723zm16.2546 26.624v15.697l-27.7504-31.668 7.5682-6.731 20.1822 22.702zm0 22.986v9.806l-2.806 2.525-36.1532-41.199 7.2872-6.729 31.672 35.597z" style="marker:none" fill="#fc9a03" overflow="visible"/><path d="M178.817 108.465l-22.707 19.618v13.734l29.428-26.065-6.721-7.287zm-22.707 12.612v-13.453l12.05-10.3717 6.729 7.2897-18.779 16.535zm0-20.461l8.689-7.5662-6.728-7.2873-1.961 1.6859v13.1676zm0 27.467l-18.217 16.256 6.728 8.131 11.489-10.653v-13.734zm0-40.6346v13.1676l-32.51 29.153-6.729-7.849 39.239-34.4716zm0 20.1756v13.453l-22.421 19.903-6.73-7.851 29.151-25.505zm-51.853-6.165l-22.7008 19.618v13.735l29.4298-26.066-6.729-7.287zm-22.7008 12.614v-13.457L93.61 89.9671l6.725 7.5682-18.7788 16.5377zm0-20.4613l8.6922-7.5662-6.7273-7.2892-1.9649 1.6798v13.1756zm0 27.4653l-18.498 16.256 6.7293 8.128 11.7687-10.649v-13.735zm0-40.6409v13.1756L48.7667 122.757l-6.7293-7.843 39.5188-34.4779zm0 20.1799v13.457l-22.7005 19.894-6.7233-7.845 29.4238-25.506zm138.4558 29.153c1.401.275 2.244 1.118 2.522 2.238.56 1.122.56 2.524.283 3.646-.561 1.122-1.404 1.963-2.524 2.519-1.124.564-2.244.564-3.36 0-1.122-.275-1.965-1.122-2.525-2.24-.558-1.401-.558-2.525-.281-3.644.562-1.12 1.399-1.961 2.525-2.519 1.12-.562 2.24-.562 3.36 0m-208.8034 8.403c-1.1198.564-2.51863.564-3.64256 0-1.1219-.556-1.95874-1.397-2.24176-2.519-.56196-1.122-.56196-2.524 0-3.646.55993-1.12 1.40288-1.963 2.52274-2.238 1.11987-.562 2.24178-.562 3.36158 0 1.4029.558 1.9649 1.399 2.5248 2.519.5599 1.119.5599 2.243 0 3.644-.5599 1.118-1.4008 1.965-2.5248 2.24m7.5683-22.137c0-2.526-.8389-4.487-2.2398-5.886-1.1239-1.122-3.3636-1.967-6.4483-1.967H3.92548c-.84295 0-1.68183-.277-2.24583-.277h-1.6798V110.709c1.11987-.283 2.52275-.283 3.64464-.283H10.9297c1.1219 0 2.2438.283 3.0806.562.843.277 1.6839.843 1.9649 1.403.5619.56.8409 1.399.8409 2.523 0 .838 0 1.679-.279 2.241 0 .839-.5619 1.399-.8429 1.682-.5599.562-1.4009.837-2.5207 1.12-.8409.279-2.2438.279-3.9236.279H4.76232c-1.40085 0-3.08267-.279-4.76246-.279v4.205H11.7706c1.1239 0 2.2397-.284 3.0827-.56.8409-.562 1.6838-1.122 2.2417-1.682.562-.843.843-1.684 1.1199-2.521.283-1.122.562-2.244.562-3.364M5.88421 100.337c1.40288.279 2.80576.562 4.20459.839 1.4029.283 2.8057.566 3.9215.843 1.4029.281 2.2459.281 3.0847.562.843.281 1.4029.281 1.6819.281v-1.686c.2809-.277.2809-.56.2809-.56-.2809 0-.5599-.279-.8429-.279H17.095c-.5579 0-1.1198-.283-1.9607-.283-.841 0-1.6798-.2749-2.8017-.5579l-2.80578-.279c-.55993-.283-1.11987-.283-1.6798-.283-.55993-.2769-1.11986-.2769-1.40288-.2769 4.76446-3.3657 9.53106-6.7293 14.29756-9.529 0-.283.279-.5599.279-1.1219 0-.283 0-.5579.2789-1.1199l-3.3616-.283c-1.1219-.2769-2.2438-.5579-3.3637-.5579-1.1198-.283-2.2417-.5599-3.3657-.8429-1.1198 0-2.51863-.281-3.64256-.562-1.40084-.2769-2.80372-.5579-4.48351-.8389v1.1199c0 .281 0 .564-.28099 1.1239h1.12394c.27894.281 1.11986.281 1.68182.281.83684.2769 1.39881.2769 2.23972.2769.84295.283 1.6798.283 2.80168.562l4.7645.8409c-2.5187 1.4009-4.7645 3.0806-7.28519 4.7645-2.2438 1.3988-4.76654 3.0806-7.00829 4.4815 0 .564 0 .8429-.27895 1.4049 0 .2769 0 .5599-.28098 1.1219.84091 0 1.40288 0 2.24175.2749.84295 0 1.96078.283 3.08267.283m6.44839-22.1386l3.3616 1.1198c1.4008.279 2.8037.8409 3.9256 1.1179.8389.283 1.9608.8449 3.0827 1.1198 0-.2749 0-.5538.281-.8368 0-.283 0-.8409.2789-1.1219 0-.5579.279-.8409.279-1.124.2809-.5558.2809-.8368.2809-1.1198-.8388-.2769-1.9607-.56-3.0806-.8389-1.1219-.283-2.5268-.5599-3.9256-1.1219l-3.3616-.8409c-1.4029-.5599-2.8058-.8389-3.64467-1.4029-1.11986-.2769-2.24379-.5599-3.36569-1.1158 0 .2769-.27894.5559-.27894 1.1158 0 .281-.28099.564-.28099 1.1239 0 .279-.27691.841-.27691 1.1199-.28302.281-.28302.562-.56196.8389 1.11986.283 2.24175.5619 3.36161.845 1.11987.2769 2.52275.5599 3.92565 1.1219m12.0497-15.1385c-1.1199 0-2.2418-.2769-3.6406-.2769-1.1219 0-2.2438-.283-3.6467-.283-1.1198-.279-2.2417-.279-3.3616-.56-1.1219 0-2.2417-.2789-3.3616-.2789-.283.2789-.283.5599-.56197 1.1219 0 .2769-.28301.5599-.28301.8409-.27692.5558-.55993.8389-.55993 1.1219-.27692.2769-.55994.8389-.55994 1.1198h2.52275c1.1219.277 2.2438.277 3.3636.277 1.1199.283 2.5228.283 3.6447.283 1.4008.2789 2.5207.2789 3.9236.2789 1.1219.279 2.2417.279 3.3616.279 1.1219.281 1.9648.281 2.8017.281 0-.281.283-.56.283-1.1219.2789-.277.562-.5579.562-.8389-1.1219-1.124-2.2459-2.5207-3.3657-3.6426-1.4009-1.4009-2.5207-2.8058-3.6426-4.2026-1.4029-1.1218-2.5228-2.5247-3.3637-3.6466-1.1219-1.4009-1.9608-2.2418-2.8037-3.0827 0 .281-.281.8409-.281 1.1199-.2789.283-.5599.5619-.8389.8429 1.6819 1.6839 3.3637 3.3616 5.0455 5.0414 1.6798 1.6859 3.3637 3.6467 4.7625 5.3265m.8409-13.7295l2.8017 2.2397c1.4049.8409 2.2458 1.6818 3.3636 2.2418.843.8389 1.6839 1.6838 2.5228 2.2417 0 0 0-.2789.281-.2789 0-.279.2789-.5599.5619-.8409.279-.283.5599-.8389.8409-1.3988.5579-.2831.8409-1.124 1.6798-1.9649.562-1.1178 1.1219-1.6818 1.6818-2.2397.562-.564.8389-1.1199 1.1219-1.4029l-.283-.281c-.2769 0-.5579-.2769-.5579-.2769-.281-.283-.5579-.283-.5579-.566-.283 0-.283-.279-.5599-.279-.283.845-.845 1.6859-1.4069 2.5228-.56.8409-1.1179 1.6818-1.9588 2.5227-.8429-.5599-1.6818-1.1178-2.5227-1.9628-.562-.2769-1.124-.5599-1.4029-1.1199-.5579-.2769-.8389-.5599-1.3988-.8409 1.1178-1.6818 2.5227-3.3616 3.9215-4.7645-.2789-.2809-.5619-.2809-.5619-.2809-.2769 0-.2769-.281-.5579-.281l-.279-.2769c-.283-.281-.283-.281-.564-.562-.5599.8389-1.1178 1.6818-1.6818 2.5227-.5599.5579-1.1199 1.3988-1.6818 2.5207-.8369-.5599-1.6798-1.1219-2.5207-1.9628-.562-.5579-1.4009-1.1219-2.2418-1.6798.279-.2809.5599-.5619.8409-.8388.279-.281.562-.845.8389-1.1219.562-.56.843-.8409 1.1239-1.4029.5579-.5579.841-.8389 1.1219-1.4029 0 0-.2809 0-.2809-.2769-.2831 0-.562 0-.562-.283-.5599-.279-.8409-.5579-.8409-.8389-.281.281-.562 1.1219-1.1219 1.9628-.8409.5579-1.3988 1.6818-2.2418 2.8017-.5599.562-.8409 1.1199-1.3988 1.6818-.562.56-1.1219 1.3988-1.4029 1.9649.8409.5579 1.6819 1.1198 2.8017 1.9587.843.5599 1.9628 1.4008 3.0827 2.2438m14.8554-20.1819c.8389 1.1198 1.1219 1.9607 1.1219 2.8037 0 .845-.5619 1.6818-1.4049 2.5207l-.2769.283h-.281c-.281-.564-.8409-1.1219-1.4008-1.6838v6.1653c1.1198 1.1239 1.9587 1.9608 2.8017 2.8058.5619.8388 1.3988 1.6798 1.9628 2.8016.2789-.283.5599-.5599.8389-.8409.2809-.2809.5599-.564.8429-.8409.279-.281.5599-.5619.8389-.8429.281-.2769.564-.2769.8409-.5579-.8409-.8409-1.6798-1.6818-2.5227-2.2438-.56-.8389-1.6798-1.9628-2.5228-3.0827l-.8389-.8409h.277l9.252 3.0847c.279-.281.56-.564.843-.8409.2769-.283.5599-.562.8389-.8409.281-.281.5599-.562.8429-.845.2769-.2769.5599-.5579.8389-.8368-1.6818-.2831-3.3637-.843-5.0455-1.3989-1.6798-.283-3.3636-.8449-5.0455-1.4049.8409-1.1198 1.1199-2.2438 1.1199-3.3636 0-1.1219-.5599-2.2438-1.3988-3.0827-.564-.5579-1.1219-1.1219-1.6839-1.1219-.5619-.2789-1.3988-.5599-1.9608-.2789h-.8368c0 .2789 0 .2789-.283.2789v2.8058c.283 0 .5599 0 .8429.2769.2769.283.8389.5619 1.3988 1.1219m-2.2417 3.9236c-1.1239-1.1199-2.2418-2.5207-3.3657-3.6406.562-.562 1.1239-.843 1.6818-1.1219.283-.283.843-.5599 1.1219-.5599h.562v-2.8058s-.281 0-.562.281c-.2789 0-.5619.283-1.1219.5599-.2789.281-.8389.843-1.1198 1.1199-.8409.5619-1.4009 1.1219-1.6819 1.6838-.5619.56-.8388.843-1.1198 1.1199-.562.281-.843.5599-1.124.843-.2789.2809-.5599.2809-.8368.5578.8368.843 1.6818 1.688 2.5187 2.5248.8429.8389 1.6818 1.6819 2.8057 2.8017l2.2418 2.5248v-5.8884zM55.492 17.0988l.283-.283c0-.5579-.283-1.1199-.283-1.3968 0-.283 0-.845-.2769-1.1239-.564-.2831-1.1239-.2831-1.9628 0-.843.2789-1.6818.5599-2.5248.8409-.5599.5599-1.1199 1.1219-1.6818 1.6798-.56.5619-.8409 1.1219-1.1199 1.6838-.281.8409-.281 1.4009-.281 2.2397 0 .843.281 1.6859.8409 2.5248.56.8409 1.1219 1.4009 1.6819 1.6798.8429.564 1.4029.8409 2.2417.8409h4.2046c.8429-.2769 1.4029 0 1.9628 0 .562.281 1.1219.56 1.3988 1.1199.283.845.283 1.4049.283 2.2438-.283.5599-.8409 1.1198-1.6818 1.6838-.5599.2769-.8389.56-1.4029.56-.2789.2789-.8389.2789-1.1198 0-.562 0-.8389 0-1.1219-.2831-.56-.2769-.8409-.5578-1.1199-.8409l-.2789.2831c.2789.5578.2789 1.1198.5579 1.6797 0 .5661.2809 1.1219.5599 1.6859.281 0 .8409 0 1.6838-.283.8389-.281 1.6819-.5619 2.5208-1.1219.8429-.281 1.6838-1.1198 2.2437-1.6798.56-.564 1.1219-1.4008 1.3989-2.2438.283-.5619.283-1.4008.283-2.2437-.283-.8369-.283-1.6798-.8389-2.5228-.562-.8389-1.1199-1.3968-1.6839-1.6798-.8409-.283-1.4028-.5599-2.2417-.8389H55.775c-.8429.279-1.4029.279-2.2417.279-.562 0-1.124 0-1.6839-.279-.5599-.283-1.1219-.564-1.3988-1.1239-.283-.5599-.564-1.1198-.283-1.9608.283-.564.8429-1.1198 1.4029-1.4028 1.4008-.841 2.8016-.841 3.9215.283m8.9711 0l1.4008 3.3616c.56 1.3988 1.1219 2.5227 1.3989 3.6446.564 1.1199.8429 1.9608 1.1259 3.0827.2769 0 .5579-.283 1.1199-.283.2789-.2769.5619-.2769 1.1198-.5599.279-.279.56-.279.843-.56.5579 0 .8368 0 1.1178-.2769-.5599-.8429-1.1178-1.9628-1.4008-3.0827-.56-.8429-1.1179-2.2458-1.6798-3.6466l-1.4029-3.3596c-.2789-1.1239-.8429-2.5248-1.4008-3.6487-.281-.8389-.562-1.95876-1.1219-3.08066-.279 0-.56.28099-.841.28099-.2789.28098-.5619.28098-1.1198.55789-.281.28302-.8409.28302-1.1239.56198-.277 0-.5559 0-.8389.281.5619.8388.8389 1.9648 1.3988 3.0786.564 1.1239.845 2.2458 1.4049 3.6487M82.9612 5.60697c.8409.27895 1.4008.5579 2.2397.83888.564.564 1.1198 1.11986 1.6838 1.96077.5579.84499.8389 1.68388 1.1179 2.80368.564 2.8017.564 4.7645-.279 6.4443-.8389 1.6859-2.2397 2.5248-4.2025 3.0847h-.5599v1.6859c.8409-.283 1.4008-.283 2.2397-.566 1.4029-.2769 2.2417-.8389 3.3657-1.3988.8388-.8409 1.6818-1.6818 2.5227-2.5227.5579-1.1219.8389-2.2418 1.1178-3.6426.281-1.1199.281-2.5248-.2789-3.9236-.281-1.68186-.8389-3.08677-1.4009-3.92565-.8409-1.1219-1.6818-1.68183-2.8037-2.24379-1.1198-.27488-2.2397-.5579-3.3616-.5579h-1.4008v1.96281zM79.8765 16.2579l-1.6819-7.56826c0-.55993-.281-1.12393-.281-1.40491 0-.55586-.2789-.83888-.2789-.83888.5599 0 .8389-.28098 1.1199-.28098.5619-.27895 1.1219-.27895 1.6818-.5579h2.5248V3.64416c-.843.28302-1.9649.28302-2.8038.5579-1.1198.28302-2.2438.56196-2.8017.84498-.8429 0-1.4028.27691-1.9628.27691-.2809.28302-.8409.28302-1.1198.28302-.283 0-.843.27895-1.1199.27895.5599 1.12393.8369 2.24379 1.1199 3.36569.2789.83889.5599 2.23969.8389 3.64259l.8409 3.6406c.281 1.4029.5599 2.5248.8409 3.9256.281 1.1219.281 1.9648.5619 3.0847.279 0 .5579 0 .8389-.281.56 0 .843 0 1.4029-.281.5599 0 1.3988-.2809 2.2418-.2809.2789-.277.8409-.277 1.1219-.277v-1.6859c-.281.281-.56.281-.843.281-.2789 0-.8389.283-1.1219.283v-.8429c-.2769-.5599-.2769-.8409-.2769-1.4008l-.8429-2.8017zm22.4215-4.2046h2.242c-.283-1.1219-.841-2.24176-1.401-3.08267-.279-.84092-.562-1.40492-.841-2.24176V.84247c.279 0 .279-.28098.562-.28098h.279c.841 1.40288 1.684 3.08267 2.242 4.48555.843 1.68183 1.684 3.35958 2.523 5.04346.84 1.6798 1.685 3.0847 2.243 4.4835.839 1.4008 1.401 2.8037 2.242 3.6446h-1.403c-.283 0-.562.281-1.122.281h-1.12c-.281 0-.84 0-1.117.279-.283-.8409-.562-1.9628-1.128-2.8038-.275-.8388-.835-1.6797-1.118-2.5247h-1.682c-.56 0-1.122.283-1.401.283v-1.6798zm-.562-6.16738c-.275 1.12393-.839 2.24379-1.122 3.08471-.279 1.11987-.558 2.23967-.8366 3.36567l2.5206-.283v1.6798H100.614c-.558 0-.8366.2789-1.3965.2789-.2831.843-.562 1.9628-.843 2.8038-.281.8388-.281 1.6838-.5599 2.8037h-2.5187c.2749-.279.2749-1.1199.5559-1.9649.2789-.8388.5619-1.6798 1.1239-2.7996.279-1.1219.5559-2.2418.8389-3.3637.5599-1.4008.8409-2.52067 1.4029-3.64257.2809-1.40288.5599-2.52478 1.1175-3.92155.279-1.12393.562-2.24583.845-3.36569.281 0 .281.28098.556.28098h.562v5.8864c-.279-.28302-.562-.564-.562-.84295m22.426-3.64464c.56 0 1.118.28302 1.397.56197.843.27895 1.4.84091 1.962 1.39881.283.84498.845 1.40491 1.12 2.24379 0 1.11986.283 1.96077 0 3.08267 0 2.80778-.837 4.76658-1.958 6.16738-.841.562-1.684 1.1199-2.521 1.4029v1.9608c.837-.281 1.68-.281 2.521-.56 1.121-.281 2.241-.845 3.084-1.6838.839-.841 1.68-1.6798 2.24-3.0827.56-1.1199.843-2.2418.843-3.92156.277-1.68183 0-3.08267-.283-4.20457-.56-1.12189-1.12-1.96281-1.961-2.80372-.839-.56197-1.965-1.1219-3.085-1.68386-1.119-.27692-2.241-.27692-3.359-.5579v1.67979zm-4.486 9.81202l.56-7.85124V2.80325c0-.27895 0-.56197.281-.83888h2.521c.562 0 .845.27691 1.124.27691V.56149h-.845c-1.118 0-2.242-.28098-2.8 0-.841-.28098-1.405-.28098-1.963-.28098h-1.119c-.564 0-.845-.28099-1.124-.28099v3.64464c0 1.11986-.279 2.24176-.279 3.92155l-.279 3.36569c0 1.6818-.279 2.8017-.279 4.2046-.283 1.1219-.283 2.2417-.562 3.0826h1.12c.279.281.839.281 1.122.281h2.522c.841.279 1.961.279 3.362.279.279.281.562.281 1.124.281v-1.9608c-.845.2789-1.684.2789-2.525.2789-.562 0-1.12 0-1.401-.2789h-.841V14.855l.281-2.8017zm33.073-1.6818c-.562.8388-1.124 1.6818-1.684 2.2417V9.52852c.279-.27691.839-.83888 1.122-1.39881.843-.84498 1.403-1.68386 2.242-2.52274.281.27895.281.27895.564.27895h.558s.278 0 .559.27895c0 1.40084 0 3.08674.281 5.04543.283 1.9649.283 3.6447.558 5.3245 0 1.9648.283 3.6446.562 5.0475 0 1.6818.283 3.0827.56 4.2025-.56 0-.839-.2769-1.122-.2769-.558-.283-.839-.283-1.12-.283-.278-.281-.836-.281-1.119-.281-.281-.2789-.564-.2789-.843-.2789v-2.8058c-.277-1.1199-.277-1.9587-.277-3.0806-.56 0-1.124-.279-1.686-.279-.279-.281-.56-.281-.839-.281v-1.6838l2.244.564c0-1.124 0-2.2438-.279-3.3657 0-1.1199 0-2.2418-.281-3.3616m-1.684 2.2417c0 .281-.275.281-.275.562-.845.8368-1.405 1.6798-1.965 2.5207l2.24.8389v1.6838c-.275-.2809-.558-.2809-.839-.2809-.281-.2831-.841-.2831-1.401-.56-.281 0-.843 0-1.126-.2789-.558.8389-1.116 1.6798-1.68 2.5207-.561.5599-1.121 1.4008-1.679 2.2397-.279 0-.279-.2769-.562-.2769-.279 0-.279 0-.56-.279h-.558c-.281 0-.562-.283-.845-.283.283-.281.845-.8409 1.403-1.4008.56-.8409 1.122-1.6818 1.963-2.5207.56-.8409 1.402-1.6798 2.243-2.8037.837-.845 1.68-1.9588 2.238-3.0848.564-.5619.845-1.1198 1.403-1.68178v3.08468zm16.818 3.6447c-.56 1.1198-1.405 2.2417-1.961 3.6426-.845 1.1198-1.683 2.2417-2.243 3.3636-.841 1.1199-1.403 1.9608-1.686 2.8017-.558.562-.835 1.1219-.835 1.1219.277.2789.558.2789.835.562.283 0 .566.2769.566.2769.279.283.558.283.558.283.283 0 .283-.283.283-.5599.279-.2831.558-.562.839-1.1219 0-.562.56-1.1199.838-1.6839.286-.5599.845-1.3988 1.401-2.2417l1.405-2.8017c.277-.56.558-.8409.839-1.4009.283-.281.558-.845.845-1.4008 1.397 5.8843 2.521 11.4897 3.641 17.0931.281.281.56.281.841.564.276 0 .557.2769 1.121.56l1.401-2.8038c.837-1.1198 1.401-2.2438 1.961-3.0806.56-1.1219 1.122-1.9649 1.682-3.0867.562-.8369 1.405-1.9608 1.963-3.0807.839-1.1219 1.401-2.2438 2.518-3.6446-.56-.279-.836-.279-1.117-.5599-.281 0-.562-.281-1.122-.56 0 0-.279.279-.279.8409-.279.56-.558 1.1199-1.122 1.6798-.279.562-.564 1.4049-1.12 1.9628-.281.8389-.843 1.4009-1.118 2.2418l-2.527 4.2066c-.558-2.8037-1.401-5.6095-1.965-8.4112-.557-2.8017-1.117-5.3244-1.675-8.4071-.562 0-.845-.2769-1.122-.2769-.285-.283-.564-.566-.843-.845-.56.562-.843 1.1219-1.118 1.9588-.562.845-.845 1.6859-1.684 2.8078m29.426 12.6116v.279c1.403.283 2.525.5599 3.087.8409.835 0 1.399.2789 1.961.2789h.836c0-.2789.281-.2789.281-.2789.281-.281.564-.5579.564-.8409 0-.279-.283-.8389-.564-1.1219 0 0-.281 0-.281-.2769h-3.084c-.839 0-1.674.2769-2.8.2769v.8429zm0 3.9277v-2.2458l.283.2809c.283 0 .283.2769.558.2769-.275.562-.558 1.1219-.841 1.688m-.839-4.7706l.839.8429v-.8429h-.839zm.839 2.5248v2.2458c-.56 1.1198-.839 1.9587-1.399 3.0786-.843 1.6798-1.401 3.3616-2.241 5.0455-.564 1.3988-1.403 3.0826-1.963 4.4814-.564 1.6839-1.12 2.8078-1.403 3.9277-.283 0-.283-.283-.558-.283v-9.81l.558.281c.283-1.1199.839-2.2418 1.403-3.0827.277-1.1198.839-1.9628 1.399-3.0827-1.122.281-2.24.8389-3.36 1.1199v-1.9608c1.397-.5599 2.521-.8409 3.641-1.4029 1.123-.5578 2.243-1.1198 3.363-1.4008 0 0 0 .281.277.281 0 .2789 0 .2789.283.562m-7.564 1.9607v1.9608c-.843.5599-1.961 1.1219-3.089 1.4029l3.089 3.3616v9.81c0-.281-.281-.56-.281-.56-.281-.2769-.562-.5599-.841-.8409-.283-.2769-.562-.5599-.839-.8429-.281-.279-.564-.5559-.841-.5559.56-.845.841-1.6859 1.397-2.5247.283-.841.843-1.9608 1.124-2.8017-.281-.2831-.841-.8409-1.124-1.124-.556-.5599-.837-.8368-1.12-1.1178-.564-.564-.839-.8409-1.122-1.1239-.277-.279-.56-.5579-1.12-.8389-.843.281-1.681.8389-2.522 1.1219-.837.5599-1.68.8409-2.521 1.3988 0-.2769-.281-.5579-.281-.5579-.279-.281-.279-.281-.562-.564l-.275-.2769c-.285-.283-.285-.283-.562-.562.277 0 1.12-.2789 1.959-.8409.841-.283 1.684-.5599 2.802-1.1198.843-.2831 1.962-.843 3.365-1.124 1.122-.5579 2.242-1.1198 3.364-1.6798m16.531 25.5043l-1.397.8389c-1.405.845-2.522 1.4049-3.365 1.9628-1.118.562-1.963 1.1219-3.079 1.6819.277.283.56.5599.56.8429.275.281.556.5579.556.8368.283.5661.558.843.845 1.124 0 .281.279.5619.279.8389 1.12-.5579 1.959-1.1199 2.799-1.6798 1.124-.8389 2.242-1.4029 3.366-2.2418l3.083-1.9608c1.403-.5599 2.521-1.4049 3.365-1.9648 1.12-.562 2.238-1.1199 3.081-1.6798 0 0-.281-.2789-.558-.562 0-.2789-.285-.8388-.564-1.1198-.279-.283-.558-.8389-.558-1.1219-.281-.2769-.281-.56-.562-.8409-.839.564-1.683 1.4049-2.801 1.9628-.841.5619-1.967 1.4029-3.366 1.9607-.279-.2789-.562-.8409-.839-1.3988-.281-.5619-.845-1.1198-1.122-1.9607-.564-.843-1.12-1.4029-1.401-1.9649-.281-.5599-.56-1.1178-.843-1.6818 1.403-.5579 2.521-1.4009 3.366-1.9608 1.12-.5579 2.238-1.1239 3.083-1.4029 0-.2769-.281-.5599-.564-.8388-.281-.2831-.281-.5579-.558-1.124-.281-.2769-.558-.5579-.558-1.1219-.283-.2769-.283-.5579-.564-.8388-.839.8388-1.961 1.4028-2.802 1.9607-1.12.5661-2.241 1.4029-3.363 1.9628l-3.083 1.9628c-1.403.843-2.519 1.4009-3.366 1.9649-1.12.5579-1.96 1.1178-3.08 1.6798.279.2789.279.5599.562.8389.277.2809.277.564.558.8409.283.564.564.8389.564 1.1219.276.281.559.5619.559.8409.837-.5599 1.961-1.1239 2.8-1.6798 1.126-.843 2.242-1.4029 3.366-2.2458l1.403-.8389c.279.5599.556 1.1219 1.115 1.6818.281.5599.562 1.4029 1.124 1.9588.281.564.562 1.1239.841 1.6859.277.5578.558 1.1218 1.118 1.6797m-1.397 21.0229c.837 2.5166 1.961 4.2025 3.645 5.0434 1.68.8389 3.92.8389 7.002 0 1.126-.281 1.963-.5619 3.087-.8409 1.116-.281 1.961-.564 2.8-.8409.843-.279 1.404-.279 2.243-.562.56-.283 1.12-.283 1.399-.283 0-.2749 0-.5538-.279-.5538 0-.283 0-.566-.279-.843v-.5619c0-.279 0-.5579-.281-.5579-1.122.2789-2.239.8389-3.361 1.1198-1.126.277-2.242.843-3.366 1.1219-1.401.2749-2.521.5579-3.639.8409-1.121.279-1.966.5559-3.082.279-.845 0-1.686 0-2.244-.562-.843-.283-1.403-1.1198-1.684-2.2417-.279-.8409-.279-1.3988-.279-2.2438 0-.56 0-1.1219.56-1.9608.277-.5579.839-1.1199 1.68-1.6798 1.122-.283 2.242-.8409 3.643-1.4029 1.683-.2769 3.082-.8409 4.489-1.1198 1.397-.56 3.079-.843 4.759-1.1219-.279-.279-.279-.843-.558-1.1178 0-.2831-.279-.562-.279-1.1219 0-.2831-.281-.564-.281-.845 0-.5579-.281-.8409-.281-1.1179-.281 0-1.124.277-1.963.56-.841.2789-1.961.5579-3.083 1.1198-.558 0-1.12.2831-1.397.2831-.562.2769-.845.2769-1.406.5599-.56 0-.839.2789-1.401.2789-.558.2831-1.12.5579-1.961.5579-1.122.564-2.242.843-2.806 1.6839-.841.5599-1.397 1.4008-1.678 2.2397-.281.843-.281 1.6859-.281 2.8058 0 1.1219.281 1.9628.562 3.0847m17.377 16.8121c-1.122-.2769-2.244-.5599-3.087-.8388v-1.9628c.283.283.843.283 1.124.283 1.399.5558 2.524.8368 3.644 1.1198 1.399.2831 2.523.56 3.645.8389 0 .283-.283.283-.283.5599 0 .2831 0 .2831.283.564v.8369c-1.405.8429-2.806 1.6818-4.488 2.5268-1.402.5579-2.801 1.3969-3.925 2.2399v-4.2027c0-.281 0-.281.283-.281.841-.562 1.961-1.1199 2.804-1.6839m-3.087-.8388c-1.12-.2769-2.236-.56-3.358-.843l.558 5.0475c.841-.5599 1.68-1.1219 2.8-1.4008v4.2027c-.277 0-.556.281-.839.281-1.678.839-3.083 1.682-4.48 2.525-1.406.838-2.524 1.398-3.646 2.239v-1.401c0-.278 0-.562-.281-1.121v-1.122c0-.281 0-.558-.283-1.12.845-.281 1.686-.841 2.523-1.124.842-.56 1.687-.839 2.805-1.3969-.279-.562-.279-1.1219-.279-1.6839 0-.5599 0-1.1219-.281-1.6798v-1.4028c-.281-.2769-.281-.843-.281-1.4009-1.122 0-1.964-.2789-2.801-.5619-1.122-.279-1.967-.279-2.802-.56V91.3679c0-.281-.283-.5619-.283-.5619v-.8389c.56.281 1.118.281 1.963.564.839.2749 1.959.5558 2.801.8368 1.122.283 2.242.843 3.647 1.1219.837.281 1.678.281 2.517.56v1.9628zm-5.881 29.1494l.275-.284c-.558-.276-.834-.559-.834-1.121-.285-.277-.566-.837-.845-1.12 0-.56-.279-.839-.279-1.401 0-.279-.279-.837-.279-1.122 0-.837.279-1.68.558-2.521.279-.558.56-1.401 1.404-1.963.562-.557 1.401-1.121 2.238-1.4 1.126-.279 2.246-.56 3.643-.56 1.405 0 2.523.281 3.648.56.839.279 1.68.843 2.519 1.4.562.562 1.124 1.122 1.403 1.963.281.841.56 1.401.56 2.244 0 .837-.279 1.682-.56 2.523-.562.56-1.12 1.397-1.963 1.959v.283c.56 0 1.122.276 1.401.276.562 0 .843.284 1.405.564.279-.564.279-.84.558-1.123 0-.562.279-1.12.279-1.399.283-.56.283-1.122.283-1.684.281-.279.281-.837.281-1.399 0-1.403-.281-2.802-.564-3.923-.558-1.405-1.12-2.523-1.959-3.366-.841-1.122-1.684-1.963-3.085-2.521-1.398-.562-2.801-.845-4.762-.845-1.124 0-2.244.283-3.366.845-1.12.279-2.242 1.122-2.803 1.961-.839.843-1.401 1.682-1.959 3.085-.281 1.119-.562 2.52-.562 3.921 0 2.242.281 4.205 1.12 5.608.283 0 .562 0 1.12.276.281 0 .566 0 1.125.284M5.6073 153.589s0 .279.27691.56v.841c2.80576.281 5.88639.281 8.69009.841 3.0827.279 5.8844.562 8.9671.839-.279-.277-.279-.56-.279-.839 0 0-.2789-.277-.2789-.56-.564 0-1.1219-.281-1.9628-.281h-2.2438c-1.1199 0-1.9608-.281-2.8017-.281-1.1219 0-1.9649 0-2.8017-.279h-2.8017c-.84498-.281-1.68183-.281-2.24379-.281 1.12189-.839 1.96079-1.679 3.08059-2.522 1.124-.56 2.2459-1.397 3.3657-1.963.8389-.839 1.9628-1.68 3.0827-2.242.8409-.558 1.9628-1.401 2.8017-1.961 0 0 0-.279-.279-.562v-.279c0-.281-.2809-.558-.2809-.558v-.566c-1.1219.843-2.5228 1.686-3.6426 2.525-1.4029 1.122-2.8017 1.963-3.9236 2.804-1.4029.839-2.52277 1.961-3.92565 2.525-1.11986.839-1.96281 1.679-2.79965 2.239m13.4505 8.131l-3.9235 1.4c-.841.56-1.9608.837-2.8017 1.12-1.124.279-1.9608.839-2.80578 1.12 0 .283.28301.56.28301.839.27897.564.27897.843.27897 1.122 1.1198-.279 1.9628-.839 2.8057-1.122 1.1158-.556 1.9588-.839 2.7997-1.397l3.9256-1.405c1.1219-.56 1.9608-.836 2.7997-1.12 1.1219-.557 1.9628-.838 3.0847-1.121 0-.281-.281-.281-.281-.558l-.281-.283v-.562c-.2769-.277-.2769-.558-.2769-.558-.843.281-1.9628.839-2.8037 1.12-.8409.56-1.9628.841-2.8038 1.405m-.8429 22.417l.283.283s.279 0 .5599-.283c.281-.279.841-.56 1.1219-.56.562-.277 1.1199-.56 1.6819-.839.2789-.283.8409-.841 1.4008-1.122.5599-.283 1.1199-.559 1.6798-.842.281-.281.843-.281 1.1239-.558.279-.281.841-.562 1.6819-.843.5599-.279 1.3988-.839 1.9587-1.122.8409-.277 1.4008-.56 2.2458-.839.56-.558 1.1199-.558 1.3988-.841-.2789-.283-.5619-.283-.5619-.558 0-.281 0-.281-.2769-.564-1.124.564-2.5228 1.405-3.9257 2.242-1.3988.843-2.8016 1.682-4.2045 2.244l-2.8017 1.681c.281-.842.5599-1.962 1.1219-3.365.5599-1.118 1.1198-2.519 1.6798-3.924.5599-1.678 1.1219-3.082 1.6838-4.479.5579-1.405 1.1219-2.806 1.3988-4.205v-.283c-.5578.283-1.1198.839-2.2417 1.122-.8409.56-1.9608 1.403-3.3616 1.961-.562.281-1.1199.56-1.6819.841-.5599.564-1.1219.841-1.6818 1.12-.8409.283-1.4029.564-1.9608.841-.5619.283-1.4028.561-1.6838.842-.56.279-1.1199.562-1.3988.841-.56 0-.843.279-.843.279 0 .281.283.281.283.562.279.281.279.558.279.839.281 0 .281-.281.8368-.558.283 0 .564-.281.843-.562.5599-.281.8409-.56 1.4029-.839.5599-.283 1.1198-.562 1.4008-.843.5579-.278 1.1199-.561 1.4008-.838.562 0 .841-.281 1.1219-.564 1.1199-.556 1.9608-1.12 2.8038-1.401.5579-.279 1.1198-.56 1.3988-.841-.8409 2.806-1.9628 5.607-3.0827 8.126-.8409 2.806-1.9608 5.328-3.0847 7.849m13.4546 15.137l1.4029-.839v-.283h-1.1199c-.283-.281-.845-.281-1.1239-.558-.281 0-.8389-.283-1.1219-.564-.5599 0-.8368-.558-1.1199-.841-.5619-.558-1.1219-1.403-1.3988-2.242 0-.56-.2809-1.397 0-2.242 0-.841.2769-1.683.8369-2.52.5619-.839 1.4049-1.68 2.2458-2.527 1.1178-.837 1.9608-1.678 3.0806-1.961.841-.56 1.6819-.56 2.5228-.56.8389 0 1.6818 0 2.5227.283.5599.56 1.1219 1.118 1.6818 1.682.56.281.8389.839.8389 1.12.283.558.283.841.283 1.401.279.279.279.843.279 1.122 0 .277 0 .56-.279.843h.279c.281 0 .5579-.283.8409-.566.281 0 .5599-.277.8409-.277-.281-.56-.5599-1.399-.8409-1.965-.283-.839-.8409-1.678-1.4029-2.242-.8389-.841-1.6798-1.68-2.7976-2.238-.845-.562-1.6839-.845-2.8058-.845-1.1218 0-2.2417.283-3.0826.562-1.124.283-2.2418 1.12-3.3616 1.963-.845.841-1.6819 1.678-2.2459 2.8-.5579 1.122-.8388 1.965-.8388 3.084-.281.841 0 1.963.2809 3.083.279.839.841 1.684 1.6819 2.525.2769.558.8388.839 1.1219 1.122.5599.277.8368.558 1.1198.841.281.279.8389.279 1.1178.56.281 0 .562 0 .562.279m10.6509-3.085l-2.8017 3.085c-.562.841-1.3988 1.679-1.9628 2.522-.5599.562-1.4029 1.399-1.9608 2.24.5579.283.8409.845 1.4009 1.122.5599.562 1.1239.845 1.6838 1.403.2769.279.8389.839 1.3988 1.122.56.558 1.1219.841 1.4009 1.401 0-.281.281-.281.281-.56.2769 0 .2769-.283.2769-.283.283 0 .283-.277.283-.277-.283 0-.5599-.281-.8409-.564-.562-.281-.8409-.56-1.4009-.839-.283-.558-.8409-.841-1.1219-1.12-.5599-.283-.8368-.56-1.1198-1.122 0 0 .283-.56.8429-.841.2769-.56.8389-1.12 1.3988-1.682l1.4009-1.962c.281-.279.281-.279.5579-.56 0 0 0-.279.283-.279 0 .279.281.279.8409.839.279.281.5599.559.8389.842.562.277.8429.558 1.1219.839.564.56.8409.843 1.1239 1.124 0-.281.279-.564.279-.564.2789-.279.2789-.56.5599-.56-.281-.281-.5599-.562-.8389-.562-.283-.277-.5599-.56-.8429-.838-.281-.281-.8409-.56-1.1199-.841-.562-.279-.8429-.56-1.4029-1.122.281-.281.56-.558.8409-.841.279-.56.841-1.122 1.1219-1.401.56-.56.843-.841 1.1199-1.399.283-.285.562-.564 1.1219-1.124.281.56.8409.839 1.1199 1.399.5619.283.8409.564 1.1239.845.2789.279.5579.558.8389.841.283.279.5599.558 1.1219.839 0 0 0-.281.281-.56.2789 0 .2789-.279.5619-.562-.5619-.279-1.1219-.558-1.6818-1.12-.283-.283-.843-.843-1.4049-1.122-.56-.56-1.1199-.837-1.4009-1.397-.5599-.283-1.1198-.845-1.3988-1.124-.8429.841-1.4029 1.401-1.9628 2.244-.562.841-1.4029 1.68-1.9628 2.519m15.4174 10.93l-1.9628 3.646c-.5599.839-1.1239 1.68-1.6838 2.802-.5579.839-.8389 1.686-1.3989 2.523.279 0 .56.277.841.56.2789 0 .8388.279 1.1178.562.281-1.122.8409-1.959 1.1239-2.806.5599-1.122 1.1199-1.961 1.3988-2.802l1.9649-3.64c.5599-1.124 1.1198-1.961 1.6838-2.806.2769-.839.8369-1.68 1.3988-2.8h-.5619l-.279-.283c-.281 0-.281-.279-.5579-.279l-.283-.281c-.564.843-1.1219 1.963-1.4008 2.804-.562.839-1.1219 1.684-1.4009 2.8m14.2915 17.657h.2789s0-.275.281-.558c0-.562.281-.839.281-1.401.283-.56.5599-1.124.5599-1.68.283-.564.56-1.124.843-1.684 0-.561.2789-1.119.5599-1.4 0-.564.279-1.124.279-1.403.2809-.56.5599-1.122.8409-1.68.281-.841.5599-1.686.8409-2.246.281-.837.5619-1.399.8409-2.242.2789-.557.5599-1.122.5599-1.398h-.5599c-.279 0-.5599-.281-.5599-.56-.562 1.401-1.1219 2.801-1.4029 4.483-.5599 1.399-1.1199 3.083-1.6818 4.482l-1.1199 3.084c-.562-.841-.8409-1.964-1.3988-3.361-.564-1.122-.843-2.523-1.4009-3.928-.5619-1.397-1.1239-3.081-1.6818-4.481-.5619-1.403-1.1259-2.8-1.4029-4.205h-.5619c0 .56-.281 1.122-.8409 2.242-.279 1.124-.56 2.244-1.1199 3.642-.283.562-.5599 1.122-.8409 1.686 0 .839-.281 1.399-.564 1.961-.2769.841-.5599 1.399-.8369 1.961-.2789.839-.5619 1.399-.8409 1.963-.281.556-.281.839-.5579 1.4-.283.279-.283.56-.564.841h.8409c.281.279.56.279.843.56v-.841c.2789-.281.2789-.84.5559-1.121 0-.558.283-1.12.5599-1.68 0-.283.283-.845.564-1.403 0-.556.281-1.12.281-1.403.2769-.558.2769-.839.5599-1.399.2789-1.12.8409-1.963 1.1199-2.804.2809-.559.2809-1.119.5599-1.679 1.1199 2.801 1.9628 5.605 3.0827 8.126 1.1219 2.803 1.9628 5.607 2.8037 8.126m19.339-4.203c.2789 0 .5599.281.8388.281.564 0 .843.283 1.4029.839.283.281.5579.564.5579 1.124.283.279.283.839.283 1.684-.283.558-.283 1.118-.5579 1.678-.283.283-.5599.841-1.1219 1.122-.283.283-.564.558-1.1239.558h-.2789v.845h.5599c.8429 0 1.4049 0 1.9648-.283.5579-.562 1.1199-.837 1.6778-1.401.281-.558.5599-1.401.8429-2.244 0-1.397 0-2.24-.8429-3.083-.5579-.839-1.4029-1.12-2.7997-1.399 1.1219-.281 2.2418-.562 2.7997-1.121.8429-.564 1.4049-1.401 1.6839-2.523 0-.841 0-1.397-.279-1.68 0-.564-.283-1.122-.845-1.403-.2789-.283-.8348-.56-1.3988-.56-.564-.283-1.1219-.562-1.6818-.562h-1.1219c-.281 0-.281-.277-.5599-.277v.839c.2789 0 .5599 0 .8388.277.281 0 .843 0 1.126.283.2769 0 .8348.281 1.1178.562.281.277.562.56.562 1.124.283.275.283.837 0 1.397 0 .839-.281 1.403-.562 1.684-.283.275-.5579.558-1.1178.839-.283.28-.845.28-1.4049.28-.281 0-.281.279-.5599 0v1.12zm-2.5228 1.963l.281-2.242h1.1219c.2789 0 .5599.279 1.1199.279v-1.12H89.4054l.281-1.964c0-.839.279-1.399.279-2.236.283-.847.283-1.405.5619-2.246H91.3683v-.839h-.56c-.281 0-.8429 0-1.1219-.281-.281 0-.8409 0-1.1198-.283-.283 1.12-.283 2.244-.283 3.085-.281 1.12-.281 2.24-.56 3.083l-.5579 4.202c-.281 1.122-.5619 1.965-.5619 3.085-.2831.839-.56 1.961-.56 3.083h.8409c.5579 0 .8389 0 1.1179.279h1.1239c.2789.283.5599.283 1.1219.283h1.1199v-.845h-1.1199c-.283 0-.843 0-1.1219-.275-.281 0-.5599 0-.8429-.283 0-.562 0-1.403.283-2.242 0-.841 0-1.68.2789-2.523m20.1795 8.13c1.122 0 1.961 0 2.804-.281 1.118-.283 1.965-.843 2.8-1.681.562-.562 1.403-1.684 1.682-2.525.56-1.12.843-2.24.843-3.643 0-1.399-.283-2.523-.564-3.644-.279-1.12-.837-1.963-1.678-2.802-.562-.837-1.401-1.401-2.523-1.684-.841-.558-1.965-.839-3.083-.839h-.281v.839h.281c.841 0 1.397.283 2.242.564.841.283 1.399.839 1.963 1.397.558.845.839 1.686 1.118 2.525.283 1.121.283 2.245.283 3.644 0 1.12-.283 2.24-.562 3.362-.281.841-.839 1.686-1.403 2.244-.558.562-1.118 1.121-1.961 1.4-.562.279-1.397.279-1.961.279v.845zm-8.411-8.692c0 1.405.283 2.527.566 3.645.281 1.12.839 1.965 1.68 2.802.562.559 1.397 1.121 2.521 1.681.843.283 1.963.564 3.363.564h.281v-.845h-.281c-.84 0-1.679 0-2.52-.558-.56-.283-1.401-.842-1.684-1.404-.56-.558-1.118-1.397-1.401-2.521-.279-.837-.279-1.959-.279-3.364 0-1.401.279-2.521.562-3.365.277-1.12.835-1.68 1.401-2.519.558-.562 1.118-.837 1.959-1.12.562-.281 1.402-.564 2.243-.564v-.839c-1.121 0-2.243.281-3.084.562-1.118.277-1.961.841-2.802 1.399-.562.839-1.12 1.684-1.678 2.806-.564 1.119-.564 2.239-.847 3.64m33.358 7.847h.279v-.841c0-.559-.279-.838-.279-1.396v-1.686c-.283-.56-.283-1.122-.283-1.68 0-.562 0-1.122-.281-1.682v-3.363c-.281-.839-.281-1.684-.281-2.523V213.007H131.726c0 1.399.281 3.083.281 4.482.283 1.684.56 3.365.56 5.047l.283 3.083c-.56-.56-1.684-1.401-2.521-2.24-1.128-1.122-1.963-2.242-3.087-3.085-1.119-1.121-2.243-2.241-3.359-3.365-1.128-1.12-2.246-2.24-3.089-3.362l-.277.281v2.242c.277 1.122.277 2.519.558 3.923v1.961c0 .562.283 1.405.283 1.965v6.727c.279-.281.562-.281.841-.281h.839v-.843c-.283-.279-.283-.562-.283-1.121 0-.562 0-1.12-.277-1.682v-1.401c0-.562-.279-1.12-.279-1.682v-1.12c-.279-1.399-.279-2.523-.279-3.083v-1.964c1.963 1.964 3.922 4.204 6.165 6.167 1.961 2.242 3.922 4.203 5.887 6.165m12.047-2.237c.845-.283 1.405-.283 1.963-.283 1.122-.281 2.244-.839 3.083-1.403 1.122-.56 1.684-1.397 2.244-2.242.558-.839.837-1.682 1.12-2.802 0-1.401 0-2.52-.283-3.925-.279-1.12-.837-2.24-1.397-3.362-.562-.843-1.405-1.68-2.242-2.242-.845-.56-1.963-.843-3.083-1.122h-1.405v.841c.284.281.564.281.845.281.835 0 1.397.279 2.24.843.558.556 1.122 1.116 1.686 1.961.554 1.124.835 1.961 1.114 3.36.283 1.403.562 2.524.562 3.365-.279 1.12-.562 1.963-.841 2.802-.281.562-.835 1.403-1.399 1.682-.841.56-1.401.841-2.244 1.124h-1.963v1.122zm-7.845-7.011c.279 1.401.839 2.523 1.399 3.645.562.841 1.405 1.68 2.242 2.244.845.558 1.963.839 2.806.839.56.283 1.12.283 1.398.283v-1.122h-.561c-.837 0-1.397-.564-2.24-.843-.558-.56-1.12-1.401-1.682-2.24-.558-.843-.837-1.963-1.401-3.085-.279-1.402-.279-2.522-.279-3.644.279-.841.279-1.68.843-2.521.279-.845.837-1.405 1.399-1.684.839-.558 1.401-.841 2.242-1.12.558 0 1.118-.281 1.679-.281v-.841c-.561 0-1.121 0-1.958.279-1.124.283-1.963.562-2.806 1.405-1.12.558-1.682 1.12-2.242 2.242-.56.841-.839 1.68-1.12 2.8 0 1.124 0 2.524.281 3.644m24.102-16.254l-.283.279c.566 1.122 1.124 2.521 1.686 3.643.56 1.403 1.12 2.803 1.684 4.204.559 1.403.834 2.525 1.398 3.922.562 1.405 1.122 2.806 1.68 3.927 0 0 .281-.281.564-.281.275-.281.562-.281.562-.281-.287-.559-.562-1.398-1.126-2.243-.281-1.122-.841-1.961-1.118-3.083-.562-.839-1.126-1.961-1.401-3.081-.559-1.122-.845-1.965-1.404-3.084 1.96 1.403 3.923 2.803 5.607 4.204 1.963 1.122 3.643 2.525 5.326 3.922l.281-.277c-.281-2.242-.562-4.486-.562-6.73-.281-2.241-.281-4.479-.564-6.721h.283c1.12 1.68 2.242 3.364 3.366 5.044 1.12 1.677 2.236 3.361 3.364 5.324.279-.283.279-.283.558-.283 0-.279.279-.279.279-.279.283 0 .283-.277.56-.277 0 0 .281-.281.562-.281-.839-1.122-1.68-2.243-2.523-3.084-.841-1.12-1.401-2.242-2.238-3.645-.845-1.122-1.686-2.24-2.527-3.362-.839-1.12-1.684-2.522-2.522-3.644h-.279c0 .843 0 1.682.279 2.801v2.806c0 1.122 0 1.961.281 2.802v5.043c.276.564.276 1.12.276 1.403-2.237-1.403-4.2-2.804-6.165-4.204-1.963-1.403-3.921-2.8-5.884-4.484m24.667-4.764v-.281c.56-.279.841-.56 1.118-.839.279-.283.562-.564.841-.841.281-.283.562-.564.843-.843l-2.802-1.401v-1.963c.277.283.841.56 1.397.56.843.564 1.963 1.122 3.083 1.684.843.558 1.963 1.12 2.803 1.399.841.564 1.684.841 2.523 1.405.56.279 1.126.56 1.686.56-.285.279-.285.279-.56.56l-.283.279c-.283.281-.283.281-.566.281 0 .278-.277.278-.277.561-.556-.283-.839-.561-1.403-.842-.279-.279-.837-.56-1.396-.839-.564-.281-1.122-.56-1.684-.843-.56-.281-1.124-.558-1.68-.841-.283.283-.566.841-.841 1.124-.562.279-.843.56-1.122.839-.283.281-.839.56-1.12.841-.283.278-.56.561-.56.838v-1.398zm0 5.043v-3.083c.277 1.124.841 2.244 1.118 3.083.562 1.122.841 1.963 1.122 2.802 0 0-.281.283-.56.283-.283.281-.283.558-.562.558-.277-1.122-.841-2.238-1.118-3.643m-.845-4.483c.283-.281.558-.56.845-.56v1.398c-.287 0-.287 0-.287.281 0 0 0 .281.287.281v3.083c-.845-1.68-1.405-3.083-1.965-4.764-.843-2.804-1.962-5.608-3.08-8.691l.279-.279c.839.562 1.958 1.122 2.801 1.686.56.277 1.12.56 1.965.837v1.963l-3.084-1.403 2.239 6.168zm7.852-11.769l3.359 2.518c.841.562 1.686 1.403 2.525 1.963.841.56 1.397 1.399 2.244 1.959.279-.56.839-1.116 1.115-1.676.562-.56.845-1.124 1.405-1.684.281-.283.837-.838 1.118-1.404.56-.556.845-1.12 1.405-1.676-.281 0-.56-.283-.56-.283-.285 0-.285-.283-.562-.558-.564 1.118-1.12 1.961-1.682 2.517-.562.842-1.124 1.683-1.683 2.528-1.12-.845-2.238-1.686-3.364-2.528-1.12-.837-2.521-1.959-4.203-3.081-.841-.839-1.398-1.403-2.239-1.961-.845-.843-1.686-1.403-2.525-1.963 0 0 0 .283-.283.283 0 .277 0 .277-.275.558l-.281.279c0 .283-.281.283-.281.56.837.566 1.682 1.124 2.523 1.686.839.558 1.68 1.122 2.244 1.963m14.291-19.343c.56.281 1.118.562 1.399.845.564.277 1.128.556 1.686.839.558.281.837.841 1.118 1.119.561.56.844 1.122 1.119 1.401 0 .562.287 1.12.287 1.682-.287.56-.287 1.399-.845 1.965-.276.837-.561 1.397-1.121 1.68-.558.56-.841.839-1.399.839-.562.281-1.126.281-1.684.281-.56-.281-1.12-.281-1.403-.56-.558 0-1.122-.281-1.682-.56-.558-.283-1.118-.56-1.399-.843-.843-.279-1.683-.837-2.522-1.12-.564-.558-1.399-.839-1.961-1.122-.564-.56-1.122-.841-1.684-1.122-.558-.277-.841-.558-1.124-.839 0 .281 0 .562-.277.562v.558l-.279.281c-.277.279-.277.279-.277.56.556.283 1.399.564 2.242 1.122.835.562 1.961 1.12 3.079 1.68.564.283 1.12.562 1.679.843.562.279 1.124.56 1.686 1.122 2.242 1.117 3.922 1.4 5.325 1.117 1.401-.559 2.525-1.679 3.646-3.642.558-.837.839-1.678.839-2.523 0-.841 0-1.399-.281-2.24-.281-.841-.845-1.4-1.403-1.96-.561-.843-1.4-1.403-2.237-1.965-.845-.279-1.686-.841-2.527-1.118-.843-.564-1.401-1.122-2.242-1.403-.841-.562-1.401-.839-2.244-1.403-.562-.277-1.121-.839-1.677-1.122 0 .283 0 .562-.283.845v.277c-.281 0-.281.281-.281.281.281.283 1.12.56 2.241 1.122 1.124.56 2.521 1.403 4.486 2.521m-4.203-10.647v.279c1.12.56 2.523 1.118 3.643 1.68 1.401.56 2.804 1.124 4.203 1.679 1.121.567 2.524 1.126 3.927 1.686 1.122.839 2.519 1.399 3.641 1.963 0-.283.277-.564.277-.841 0-.283 0-.562.283-.562-.56-.283-1.399-.56-2.24-.843-1.12-.56-1.961-.836-3.083-1.403-1.126-.274-2.245-.838-3.363-1.119-.841-.56-1.967-.841-2.802-1.399 2.244-.281 4.481-.562 6.723-.841 2.242-.279 4.482-.562 6.73-.841v-.281c-1.965-1.403-3.647-3.083-5.325-4.484-1.405-1.402-3.089-3.082-4.768-4.485v-.279c1.966.56 3.927.839 5.888 1.399 1.957.283 4.205.841 6.165 1.403v-.562c.279-.275.279-.275.279-.558 0 0 0-.283.281-.56v-.283c-1.122-.279-2.52-.56-3.923-.839-1.405-.281-2.802-.564-3.922-.843-1.405-.279-2.802-.558-4.208-.841-1.401-.281-3.085-.56-4.484-.839v.279c.564.56 1.122 1.122 1.963 1.963.562.56 1.403 1.12 1.961 1.963.845.558 1.404 1.403 2.243 1.963.562.56 1.12 1.119 1.961 1.679.564.56 1.122 1.12 1.401 1.682.56.283.841.56 1.124.839-2.525.56-4.763.841-7.287 1.124-2.244.56-4.765.839-7.288 1.122m41.482-23.825v-1.124h.279c.56 0 .843-.278 1.401-.278.277 0 .277-.279.562-.56.277-.281.277-.562.277-.837 0-.283-.277-.845-.562-.845-.277-.279-.835-.56-1.397-.56h-.56v-.841h2.242c.558.283.837.558 1.12.841.281.56.281.841.281 1.405 0 .837 0 1.118-.564 1.675-.279.56-1.122.843-1.957.843.275 0 .558.281.835.562.285.279.562.558.843 1.12l1.68 2.24h-1.401l-1.399-1.68c-.283-.56-.558-1.122-.841-1.401l-.56-.56h-.279zm-14.019 3.641v-8.686h1.967l1.963 6.167c.277.56.556 1.122.556 1.397 0-.275.281-.837.562-1.397l1.959-6.167h1.684v8.686h-1.12v-7.285l-2.523 7.285h-1.118l-2.808-7.564v7.564h-1.122zm14.019-8.686v.841h-2.242v3.08h2.242v1.124l-.283-.281h-1.959v3.922h-1.124v-8.686h3.366z" style="marker:none" fill="#600209" overflow="visible"/></svg>