<svg xmlns="http://www.w3.org/2000/svg" role="img" viewBox="-4.35 6.15 408.20 141.45"><title>University of Lübeck (member) logo</title><path fill="#1c3e4b" stroke-width="0" d="M97.6 69.7c-.4 0-3.1 1.4-3.5 1.8-2.1-2.2-.7-1.6-2.6-1.1-.9-.9-1.7-1.9-2.6-2.8-.2.1-.4.1-.6.2.1.5 1.7 3.9 1.4 4.1-1.1-.6-2.1-1.2-3.1-1.8-.2-3.7 3.6-4 5.1-6.5-.1-.1-.1-.2-.2-.3-5.1-.8-11-2.4-15.6.3-.2 1.2-2.1 6.8-2.7 6.8-.5-.2-.9-.4-1.4-.5.1-.3 1-.3 1.3-.3-.5-2-.6-2.6-2.1-3.8-2.5-3-4-6.3-5.8-9.5-1.4-2.3-3.5-4.6-4.2-6.9-.2-.1-.5-.2-.7-.2-.1-.4-.2-.7-.2-1-.6-3.7-3.1-5.7-.6-9.2-.1-.8-.2-1.6-.4-2.4q-.8-.6-1.1-1.4c.8-.6 1.7.3 2.4 1 6.8.9 2.4-7.7-1.4-3.2-2.2-.9.7-2.9.2-5.4-1.6-.5-2.9-1.1-4.3-.1-1.3 2.1.9 3.3.8 5.5-1.7.2-2.9-2.8-5.2-.9-2.2 7.2 2.8 2.6 5.5 3 .2 1.6-3 1.7-.4 5-3.8 1-7.8 1.2-11.6 1.7-.1.4-.3.8-.4 1.3.2.1.3.2.5.3 0 .5-.2 1.1-.1 1.7l.5.2c-.3.8-1 .5 0 1.5 2.4.4 6.6-.8 9.3-1.1 0 4.6-12.5 13.8-8.3 16.9.8-.9 1.4-2.3 1.6-2.6.4-.6 3.5-5.3 4-5.9.1 0 .2.1.4.1.5 1.6-2 7.7-2.6 9.9-.3 1.9-.4 4-1.4 5.8-.8-.6.3-1-1-1.4.8-1.8-.1-1.3 1.5-2.6-.1-2.5-3.3-3.6-4.9-4.5.1-2.9-1.1-3.1-2.9-1.9.2.1.4.3.6.5v.5c-1.4 1-3 2.1-4.4 3-1.4-.9 1.2-6.3 1.5-7.6-.2-4.6 0-8.1-4.4-8.7-.4.7.3 3.5.5 4.7-1.9 2.3-3.9 3.7-2 6.4.3 2.5.8 2.9 3.2 3.5v.5H33v.7c.4.2 1.8-.1 2.4-.1v.5c-.5.3-1.9.1-2.5.3-.1 1.3-.2 2.6-.5 3.9-.3.5-2 3.3-2.3 3 1.5-3 2.5-5.5-1.1-2.2-2.1.9-1.6-1.6-3.6 1.5-1.4-1.1-1.4-1.3-2.8-1.2-.2-.2-.3-.4-.5-.6h-1.5c-.2.3-.3.6-.5 1 .1.3.2.6.4.9-.1 3.3 2.2 3.5 4.7 4.9-.4.4-3.2-1.2-4.2-1.1-.1.2-.2.4-.3.7l.7 1c1.4.1 3.9 2.6 5.3 3.7-.2 2.6-.5 5.2-.7 7.9.1.1.3.2.4.3-.2 1.2-.9 3.3-.9 4.5 1.2 1.1.1 1.6 0 3.7 1.4 1.5 1 2.7 1 4.9.2.2.4.3.6.5 0 1.3 0 2.6.1 3.9.3.3.6.5.9.8 0 1.6.2 2.7.5 4.4-1 .5-2 .4-3.1.9l.4.5c3.4.2 5.9-1.6 9-1.6 5.2 2.8 4.3 5.3 10.6 1.7 3-.4 3.8 5 8 2.7 6.4-5.3 4.8-2.6 10.2 1.3h2.1c5.5-3.8 3.5-5.5 9.6-.6 2.9.5 4.9-3.4 6.7-3.4 4.7 1.7 5.6 2 10.7-.6-1.6-2.1-2 .9-3.4.9-.1-.8 0-1.4.1-2.1 1.5-1.4 2.9-2.8 4.4-4.2v-.1c-.9-.5-1.9-1-2.8-1.4.1-1.6-.1-3.3 1-4.3-1-5.6-.6-11.7-.2-17.3l1.2-1.8c1.6-1.9 3.6-2.4 5.2-4.2l-.4-.6c-1.6.3-2.5.7-3.9 1.4-1-1.4 6.6-.8 3.6-7.6zm-52.1-8.8l.1 1h-.2c-.6-.5-.5-.6-.5-1.1q.3 0 .6.1zm.7-.1c-.6-.3-.7-.9-.9-1.3l.3-.3c1 .3.6 1.6.6 1.6zm.5-2.7c.3.6.4.8.3 1.9-.6-.9-.7-1-.7-1.9h.4zm.6-1.3c.2.3.4.7.6 1.1l-.2.6c-.3-.4-.6-.8-.8-1.2l.4-.5zm.7-1.2c.3.4.8.7.8 1.6-.1.1-.3.1-.4.2-.3-.5-.5-1-.8-1.5.2 0 .3-.2.4-.3zm1.5-.6v.9c-.1.1-.3.2-.4.3-.6-1-.5-.9-.5-1.7.6-.1.4.3.9.5zm.8-.2c-.1.1-.2.3-.4.3l-.6-1.3c.1-.1.1-.2.2-.3.6.1.7.4.8 1.3zm.4-1.3c-.3-.5-.3-.7-.4-1.2l.3-.3c.4.3.2 1.7.1 1.5zM82.4 111c.1-.2.2-.3.4-.5 2.4.5 3.3.2 5.8-.4v1.8l-3.1.2q-3-1-3.1-1.1zM70.8 97.2c-1-1.3-4.6-5.1-4.6-6.7 1.9-.9 3.7 1.9 4.9 3.4 2.9 3 6.8 4.8 10.5 6.8q10.2 5 10.4 5.1c-2.3 3.2-3.5 4-7.1 4.5-7.5-1.9-9.7-6.7-14.1-13.1zm11.1-19.6c1 .6 3 .7 4.6 1.4-.2.3-.4 1.1-.7 1.4-2.1-1-4.2-2.5-5.5-4.3.6-.8 2.1-.7 3.1-.8v.1c1.2-.3 1.5-.8 2.5 0l-.5.7c-1.4 0-3.6-.4-4.6.5 1.9 0 3.5.2 5.5.6-.4 1.4-3.6.1-4.4-.1v.5zm3.9-5.6c.2.4 1.9 5.6 1.1 4.7-.9-2-2.1-3-1.1-4.7zm-3.5 2.7c0-.1-.1-.1-.1-.1.7-.7 1.2-1 2.2-1.4.1.2.3.4.4.6-.3.6-1.9.8-2.5.9zM55.6 49.9c-.1.1-.2.3-.3.3-.2-.1-.4-.3-.6-.4.1-.1.1-.2.2-.3.2 0 .4.1.7.4zm0-1.7c-.1.1-.2.1-.3.2l-.5-.3v-.2c.3-.3.2-.3.8.1v.2zm-3.5 6.5c0-.1.1-.2.1-.2.2.1.5.3.7.4 0 .2-.2.3-.4.3-.1-.1-.4-.4-.4-.5zm.9 2.1c-.1 0-.2.1-.3.1-.4-.4-.8-.8-1.1-1.2.5-.5 1.2.3 1.4 1.1zm-.7-3q0-.1.2-.5c.3.2.9.3.8.9-.1 0-.2.1-.2.1-.3-.2-.6-.3-.8-.5zm2.3 4.4v.7h-.1c-.6-.4-.9-.8-1.2-1v1.4c.5.1 1-.1 1 1-.1 0-.1.1-.2.1l-1-.9c-1.1 3.8-1.7 8.2-1.5 12.3.9-.6.9-.5 2-.3.3-2.2.5-4.5 1.2-6.4.6 1.8.1 4.2-.2 6.3-1.8.4-2.8 1-4.3 1.6-.8 1.8-1.3 2.6-1.2 5.2.2 0 .4.1.6.2v.2c-.8.1-1 .8-1.2 1.6h-.1c-.1 0 .1-2.4.1-2.6-1.8-4.2 2.2-10.3 3-14.3.1-1.3.7-5.2 1.6-5.7.5 0 1 .3 1.5.6zm-7 26h.5c.3-1.7.7-2.8 1.4-4.3.5 0 .9 0 1.4.1-.3 2.2-.3 5.7-2.9 6.3-1.9-.3-1-7.4-.6-8 .2.1.4.3.6.4-.1 1.7-.3 3.5-.4 5.5zm.1-7c-.1.1-.2.3-.3.3-.9-.3-1.5-.7-2.1-1.2V76c.9 0 1.7.2 2.4 1.2zm-.7-2.4c-.2-.1-.3-.2-.5-.3v-.3c.1 0 .5.2.7.5 0 .1-.1.1-.2.1zm-3.2.8l.1.3c.1-.1.2-.1.3-.2.9 1 .9 3.4-.9 3.4-3.6-.8-2.4-3.1.5-3.5zm-2.7-.2c-1.3-.3-1.7-1.2.2-1.2.2.5.7.9-.2 1.2zm3.3-.3c.2-.2.4-.4.7-.6.3.2.4.1.6.7-.3.2-.6.2-.7.3l-.6-.4zm.7-1.9c.2-.1.4-.3.7-.4q.2.3.2.6c-.1.1-.1.2-.2.3h-.1c-.2 0-.4-.1-.6-.1v-.4zm.6 4l.6.3s-.4 3.2-.6 2.9c-1-2.1-1-1.2 0-3.2zm8.3-2.4c0 .7-1.5 1-2 1.2l-.2-.2c.8-.7 1.1-.8 2.2-1zm-.6-.4c-.3.1-1.3.4-1.4.4 0-.1-.1-.2-.1-.2.7-.3.9-.7 1.7-.6l-.2.4zm.2 2c-.4.5-1.1.8-1.7.8l-.1-.2c.5-.4 1-1.2 1.8-.6zM51.8 78c.1 0 .3.1.6.3h-.1l-.5-.3q0 .1 0 0zm.9 1.6c-.1.1-.2.2-.3.2-.2-.1-.4-.3-.6-.4v-.3c.4-.3.5.1.9.5zm-.6 1.1c-.1.1-.2.1-.2.2-.1-.1-.3-.2-.4-.4v-.3c.2.2.4.3.6.5zm-.8.4c1.1.5.6 1.1.5 1.1-.6-.5-.8-.5-.5-1.1zm.8 2.4c0 .1-.1.2-.1.3-.2 0-.4-.1-.5-.1-.1-.2-.1-.3-.2-.4.2-.3.4-.2.8.2zm-1-4.9H51c-.1-.1-.2-.2-.3-.2 0-.3.1-.3.2-.5h-.8c-.6-2.1-.3-2.9.3-4.9 1.3-.4 2.5-.9 4-.9 0 0 .1.1.1.2-1.3 2-3.6.3-3.4 3.6-.2.9-.8 1.1.1 1.7.1.2.2.5-.1 1zm-.3.5l.1.3c-.1.1-.2.2-.2.3-.1-.2-.2-.4-.3-.5l.4-.1zm1 7v.3q-.1.1-.2.1c-.5-.2-.6-.5-.8-.8 0-.1 0-.2.1-.3.4.1.4.4.9.7zm-.1 1.4l-.1.5h-.3c-.5-.1-.4-.4-.6-.6.4-.6.4-.4 1 .1zm-.2 2.1c-.6-.4-1.3-.9-1.3-1.4.4-.1 1.4.5 1.3 1.4zm-.5 1.2h-.6l-.4-.4c.1-.2.3-.4.4-.5.4.3.6.3.6.9zm-14.3-3.4h-.2c-3.1-.5-4.3-6.5-2.7-8.7 2.5-2.6 4 6.5 2.9 8.7zM34 77.1l-.3-.6c.1-.1.2-.3.3-.4 0 .2.3 1.4 0 1zm-.7.9c-.1-.3-.3-.6-.4-.9q.2-.2.3-.2c.3.2.3 1.3.1 1.1zm11.8 15.9c-.2.7-.6 3.6-1.4 3.6-3.8-1.1-7.5-3.5-10.5-5.7.7-1.1 1.4-2 2.3-3 .8 0 8.2 3.5 9.6 5.1zM31.5 92c3 1.6 6 3.7 9.2 5.4-.1.7-.3 1.5-.6 2.3h-.2c-3.5-1.5-6.7-2.9-9.7-4.9.1-1.1.8-2 1.3-2.8zm-2.1 2.2c-1.4-1.3-2.1-1.8-2.8-3.4.6-.9.4-1.6.8-2.4 1.2.8 2.2 1.5 3.4 2.7.1.7-1.3 3.1-1.4 3.1zm4.2 4.7c2-1.1 8.3 2.3 11.1 3.2 1.2.5.9.8.3 2h-.1c-2.3-.8-10.1-2.5-11.3-5.2zm6.9 5c0 .5-.4 2.5-1.2 2.5-2.7-.7-5.3-2.2-7.5-3.6 0-.7.3-1.8.6-2.3 2.8.9 5.2 1.9 8.1 3.4zm13.5 6.3h-.2c-4.3-.8-8.8-1.9-12.9-3.1 0-.9.2-1.7.5-2.4 1.9 0 4.9 1.3 6.9 1.9 2.5.3 7.3-.8 5.7 3.6zm-7.5-5.5c-.3-.6-.1-1.5-.1-1.9 4.4 0 8.9 1.1 13.5 1.3.3 0 .7 0 1.1.3v1.8c-.4.1-.9.2-1.3.3-4.3-.4-9.2-.3-13.2-1.8zm7.5-4.6c0 .6.1 1.4 0 2.3h-.2c-4.6-.3-8.4-1.2-12.7-2.3.1-1 .3-1.6.6-2.3 4.1.9 8.1 1.5 12.3 2.3zm-8.8-2.4c0-1.2.5-2.7 1.1-3.7 3.6.1 7.5.5 11.2 1 .5.3.1 4.3.1 4.3-4-.4-8.7-.2-12.4-1.6zm20.5 3.2c.1.6.1 1.2 0 1.9h-2.6c-2.4 0-6.4.4-8.4-.3l.1-2.3c2.9-.1 8.3-.6 10.9.7zm9.8 4.6c-3.2 1-9.2 1.3-12.5 1.3-1.5-.5-1-1.5-1-2.8 3.6-.4 7.4-.2 11.2-.1v-.9c-1.9 0-6.6 1.1-6.6-1.7.4-.3.9-.1 1.5 0-.1.2-.3.4-.4.7.1.1.2.3.3.4h1.2l-.1-1.1c-.2 0-.4-.1-.6-.1 4.7-.7 4.2-.2 7 4.3zm-5-6.1l-1.5-.3c-.4-1.1-1.1-2.6-.5-2.7.2 0 2 2.1 2.2 2.8 0 .1-.1.1-.2.2zm-11.3-3.7c2.8 0 5.5-.3 8.3.4 0 1 0 2 .1 3-.5.1-1 .2-1.4.3-2.5-.2-4.9-.1-7.2-.4-.1-1.1-.2-2.7.2-3.3zm3.3-17.1v-.1c.7-.4.7-.3 1.7.4v.1l-.3.3c-.8-.1-1-.3-1.4-.7zm.3 1.1c.5.1.9.3 1.4.5v.6h-.4c-.7-.2-1.2-.6-1-1.1zm-.3-2.3c.6 0 .8-.2 1.5.4-.2.1-.3.2-.4.4-.6-.3-.9-.6-1.1-.8zm0-.8l-.3-.6c.6-.2 1 .2 1.7.5v.4h-.2l-1.2-.3zm-.4-1.6v-.5c.5-.1.9.2 1.4.7-.2.1-.3.3-.5.4l-.9-.6zm-.2-1.2v-.5c.5.2 1.1.3 1.6.5-.3.3-.8.3-1 .3l-.6-.3zm-.2-1.4c-.2-.8.9-.1 1.2 0 0 .1 0 .5-.1.4-.4-.1-.7-.3-1.1-.4zm-.1-1.3c.3-.1.9-.6 1.4-.2v.3l-.4.2c-.4 0-.9-.1-1-.3zm-.1-1.6h.9c.1.2.2.3.2.5l-.3.3-.7-.1c.1-.3 0-.5-.1-.7zm-.5-.8v-.4c.5.1 1 .2 1.5.4-.3.2-.3.3-.5.3-.4-.1-.7-.2-1-.3zm-.5-1.7c.1-.1.1-.2.2-.3.4.3.8.7 1.3 1-.1.1-.2.2-.2.3h-.1c-.9-.2-.9-.6-1.2-1zm1.1-.2c-.3-.3-.7-.5-1-.8l.9-.2.5.5c0 .3-.2.4-.4.5zm-1.3-1.6c0-.4.1-.3.2-.5.4.2.9.4 1.3.7-.3.3-.6.2-.8.2-.3-.2-.5-.3-.7-.4zm-.3-1.1c0-.1-.1-.3-.1-.4h1.2c.1.1.1.3.2.5h-.2c-.3 0-.7 0-1.1-.1zm-.3-1.2c.5-.2.9-.3 1.5.1-.2.2-.4.3-.5.3l-1-.4zm-.1-1.3c.4-.4.9 0 1.5.4-.1.1-.2.2-.2.3h-.7c-.3-.3-.5-.5-.6-.7zm.9-4.1c.6.8 1.4 3.9 2.2 4.4.2 2.6 2 4.8 2.8 7.6-.6.3-1.7 1.4-2.1 1.5-.7-.7-2.8-11.9-2.9-13.5zm5.4 16.2c0 .7-.7 1-1.2 1.4 0 .6-.1 1.4-.3 2.1h-.1q-.1 0-.2-.1c-.1-1-.7-3.5-.2-4.2.8.2 1.2.3 2 .8zm-1.7-1.6v-.5c1.4.1 2.2.9 3.4 1.9-.1.1-.2.2-.3.2-1.1-.6-2.1-1.1-3.1-1.6zm.3 9.5c0 .1-.3.3-.4.4-.9-.1-.8-.4-1.2-1 .7 0 .9 0 1.6.6zm-.5.9c.2.1.4.3.5.4-.1.1-.1.2-.2.4h-.7c-.1-.2-.2-.3-.4-.5.3 0 .5-.2.8-.3zm.8 1.7c0 .1-.3.7-.4.6-.6-.2-.7-.5-.9-.8.5-.1.6-.1 1.3.2zm.2 1.3s0 .1-.1.1h-.1c-.3-.1-.6-.2-.8-.2.4-.2.6-.3 1 .1zm.1 1.1c0 .2-.2.6-.3.5l-.9-.3v-.4c.2-.2.9-.3 1.2.2zm-1.1.9c.2 0 .3-.1.6.2v.1c-.2.1-.3.1-.4.1H64v-.4zm3.3 1.3c-.2.3-3.7 2.5-3.8 2.5-.3-.5-.6-.9-.8-1.4 1.3-.7 3-2.3 4.6-1.1zm-4.6 2c0 .1 0 .3.1.4q-.4.6-.5.5c-.2-.1-.5-.2-.7-.3.1-.8.2-.8 1.1-.6zm2.8.8c.5.7.8 1.2 1.2 2.2-1.3.4-2.3.5-3.5.5-1.1 0-2.1-.2-2.9-.4l.1-8.7c-.2-3.5-2.3-24.2-1.4-25.1.2.5 1.3 0 1.5.7-.1.1-.1.2-.2.3-.6-.3-.8-.3-1.4-.3.3 3.6 1.6 6.8 1.9 10.8.1 1 .6 1.3.4 2.7.1.1.2.3.3.4-1 3.6 3.9 10.8.9 14.6-.5.4-1 .8-1.4 1.2v1.8c2.6.8 2.2-.4 4.5-.7zm-5.7-36.9c-.1-.1-.4.1-.5.1-.2-.1-.7-.3-.9-.4.1-.2.6-.4 1.4.3zm-.8-1.1c-.1-.1-.6-.2-.6-.4.4-.4.3-.4.8.1 0 .1-.1.3-.2.3zm-7.1 15c.4-.4 1.1-.1 1.6.4-.1.1-.1.2-.2.4h-.6c-.3-.2-.5-.4-.8-.6v-.2zm1.4 1.9s0 .1 0 0c-.1.2-.2.3-.3.4l-1.1-.7q0-.2.1-.4c.4.3.8.5 1.3.7zm.1-2c-.8-.4-1.3-.8-.8-1.5.2.1 1.7.9.8 1.5zM52 65.8c.5-.5 1.2.2 1.8.7 0 .1-.1.2-.1.3-.1 0-.2 0-.4.1-.6-.2-.9-.8-1.3-1.1zm.9-1.6c.4.4 1.9 2.3.8 1.7-.3-.2-1.8-1.7-.8-1.7zm.7.2c-.5-.7-.4-.8-.4-1.4.4.2.9.7.9 1.4h-.5zm-.6-2.1c.1-.1.2-.3.3-.4.4.3.7.5 1.1.8 0 .1-.2.4-.3.5-.3-.3-.7-.6-1.1-.9zm.1-1.4c.1-.2.2-.3.3-.5.4.2.7.4 1.1.5 0 .1-.1.9-.2.9-.3-.3-.8-.6-1.2-.9zm1.7 1.5c.3.6.4 1.5 0 2v-.1c0-.1-.6-1.9 0-1.9zm1.2 3.1c.8.1 1.6.2 2.5.6v.4c-.5 0-1 .1-1.4.2-.4 0-.8-.1-1.2-.1-.3-.7-.1-.7.1-1.1zm2.7 2.4c.2 6.5.7 13 .5 19.6l-.3.6c-.8.3-1.9.1-2.6.2-.4-.1-.8-.2-1.3-.3.2-6.8.4-13.6.7-20.4 1.1-.1 1.7-.1 3 .3zm1.4-12.5c0 .2-.1.4-.1.5h-.3c-.4-.2-.8-.4-1.1-.6l.3-.3c.7.1 1 .4 1.2.4zm.2 1.5c-.1.2-.7.2-.9.2-.1-.1-.5-.2-.6-.3.2-.1.9-.4 1.2-.4l.3.5zm-1.2 1.2c.1-.1.2-.1.4-.2.2.2.5.4.7.6l-.3.3c-.5 0-.9-.2-.8-.7zm1.4 1.5c0 .2-.5.4-.6.4-.3-.2-.5-.3-.8-.4.1-.2.2-.4.4-.5.3.1.6.3 1 .5zM55 90.4c-.4-.3-.3-.3-.3-.6.9-.3 4.2-1.1 4.4.3-1.3.1-2.9.3-4.1.3zm-1.3-34.3c.1 0 .7.5.9.7v.6h-.2c-.3 0-.7-1.3-.7-1.3zm0-1.2c.3-.3.4-.1 1 .1l.1.9h-.1q-.9-.8-1-1zm1.5-.6H55l-.9-.9c-.1-.5 1 .1 1.1.9zM54.1 50h-.2c.1-.2.1-.3.2-.5.3 0 .3.2 0 .5zm.2 1.9c.1-.1.2-.1.3-.2.3.3.4.5.9.8-.1.1-.1.2-.2.3h-.1c-.5-.4-.6-.6-.9-.9zm.2-1.3h.5c.2.3.8.6.4 1.1-.7-.4-.6-.6-.9-1.1zm1.7-2.8c.5-.2.6-.3 1.3-.2.8 3.6 1.4 12.7.5 17.4h-1.2c-.3-.1-.6-.2-.8-.3-1-5.1 0-11.9.2-16.9zm2.2 3.4c.2.2.7.9.2 1.2-.2-.5-.4-.9-.2-1.2zm.5-.2c.3.1.6.3.9.4v.4h-.3c-.3 0-1-.4-.6-.8zm1.7 1.7c-.1.1-.2.3-.4.4-.4-.2-.7-.4-1-.6.4-.3 1.3-.4 1.4.2zm.9 1.2q-.2.2-.6.3c-.9-.2-2-.4-.8-.8.6.2 1 .4 1.4.5zm.2.9c-.2.2-.4.4-.6.4-.5-.1-.6-.3-.8-.5.6-.2.9-.5 1.4.1zm.5 1.2v.2l-.8.3c-1.2-.2-1.1-.5-.4-1 .3.1.5.3 1.2.5zm.5 1.4c.1.1-.3.1-.5.1-.6-.1-1.1-.6-1.3-.4.5-.7 1.3-.4 1.8.3zm.5.9c0 .2-.1.4-.1.6h-.4c-.7-.1-.9.1-1.2-.2.1-.3.3-.6.5-.8.4.2.8.1 1.2.4zm.4 1.4v.2c-.3.3-.7.2-1 .2l-.4-.8c.4-.1.9.1 1.4.4zm.5 1.5h-1.5l-.2-.2c.8-.5.9-.6 1.7.2zm.5.8c-.2.2-.8.2-1 .2l-.7-.4c0-.1.1-.3.1-.4.5.3 1 .5 1.6.6zm.2 1.2c-.1.1-.1.2-.2.2h-.2c-.2-.2-.5-.3-.6-.5.2-.3.7-.4 1 .3zm.6 1.3l-.2.2c-.5-.1-.7-.2-.9-.4.1-.2.3-.5.5-.5.1 0 .5.2.6.7zm.6.9c-.1.1-.2.2-.2.3h-.2c-.4-.2-.9-.3-1.3-.5.4-.3 1.1-.1 1.7.2zm.6.9v.2c-.1.1-.3.3-.5.3-.6-.1-.8-.1-1-.4.5-.1.8-.4 1.5-.1zm.1 1.3c-.2.1-.5.1-.7.2-.4-.2-.8-.5-.7-.7.8 0 .9-.2 1.4.5zm.5.7l.1.3h-1.5c0-.1 0-.2.1-.2.4-.1.9-.1 1.3-.1zm.7 1.3q0 .1-.5.3c-.3-.2-.6-.3-.8-.5.2-.1.3-.2.5-.3.2.1.5.3.8.5zm3.3 9.9c-.3.1-.6.2-.8.4-1.7-.4-2.1-.6-3-2.2.2-.5.5-1 .7-1.6h.4c0 1.5-.5 1.9 1.1 2.5 0-.5-.3-.7-.4-.8.1-.6.5-1.1.8-1.6-.8-.6-1-1-1.7-1.4-.8 0-2.4.7-2.9.4v-.3c1.2-1 2.1-.8 3.6-.9-.8-1.9-2.5-2.2-4-3q0-.1.1-.3c4.5 1.1 5.7 3.7 6.1 8.8zm-5.5-3.4c.1 0 .2.1.5.2-.4.4-.6.9-.9 1.5H65c.2-.7.4-1.2.7-1.7zm1.7-.4c.1.7-.3 1.7-.9 2.1-.1-.1-.2-.2-.3-.2l1.2-1.9zm4.1 4.8c-.8.6-1.4.9-2 1.2.4.7.9 1.5 1.3 2.2-.1.1-.1.2-.2.3-1.5 0-2.2.3-3.3.4 0 .5-1.1 1.2-1.5 1.4 0-2.7-.8-5.1-1.1-7.5 1.4-1.6 3.8 1.4 4.9 2.6.6-.3 1.1-.5 1.9-.6zm.9 10.8h-.2c-2.3-.5-2.6-1.5-3.9-3.3l-2-.1s0-.1-.1-.1c3.1-1.4 1.2.4 3.7.2-.3-.4-.7-.9-1-1.3-1 .1-2 .2-2.9.3l-.3-.3c1.4-.4 1.9-.7 3.7-.7l.6.8h.7c-1.5-1.4-1.6-1.4-3.3-1.6V85c.5-.4 2.1-.2 2.9-.2 1.4 2.5 2.5 3.4 2.1 6.5zm10.9 9.5h-.1c-1.6-.5-2.4-1.1-3.5-2.1 3.7-2.2 3.3-2.9 4.2.9-.7.4-.6.5-.6 1.2zm2.8 1.4H86c-1-.3-1.6-.7-2.3-1.3 0-1.3 4.2-1.2 2.4 1.3zm-7.8-4c-1.9-1.1-2.8-1.9-4.2-3.4 1.6-.7 3.1-.5 4.9-.5.2.4 1.5 2.4 1.3 3.1-.5.2-1.6.8-2 .8zm-5.5-4.6c-.2-.2-.7-.3-.6-.6.1-1.3 3-.3 4.4-.1-1.5.3-3.6.7-3.8.7zm2.8-3.8c.2.5-.1.8-.5 1.3l-.1-.4.6-.9zm-1.4 1.4c-.6-.7.1-1.3.4-1.8.1.1.2.1.4.2 0 .2-.6 1.3-.8 1.6zm-1 .5h-.1c-.1-.1-.2-.1-.2-.1 0-.7.4-1.4.6-2l.2.2c0 .7-.2 1.3-.5 1.9zm-1.9-9.1c2-1 2.2.5 3.8 2.4 0 .6-1.3 4-1.5 3.9-.7-.5-.4-.8-.2-1.3-.7-1.4-2.1-3.5-2.1-5zm6.1-2.5c.4.3.8.5 1.2.8 0 0-1.2 8.5-2.5 7.8-.8-.9 3.1-7.2 1.6-8.2-1.1 1-1.9 6.1-2.9 8.1-.3 0-.2-.1-.3-.1.6-2.2 1.2-7.2 2.9-8.4zm1.7.9c.5 2 .3 4.6.4 6.7-.5.2-1 .4-1.4.6l-.2-.2c.1-1.9 0-5.6 1.2-7.1zm-1.2-1.9c0-1.6.8-2.5 2.3-2.4.7.9.8 1.6.9 2.9-.2.1-.5.2-.7.4-1.3-.2-1.7-.2-2.5-.9zm2.3 1.7c1.4.7 1.1 3.8.3 5.2h-.1c-.4-1.3-.3-3.7-.4-5l.2-.2zm1.7-1.6c1.4 0 .3 2.1 0 2.8h-.4c-.2-1.5-.2-1.7.4-2.8zm3.3 2.6c-.3 3.3-3.1 9.8-6.8 10.4-.8-.1-1.5-.2-2.2-.3 0-3.3 3.4-2.6 5.2-5.3.7-2.1 1.2-4.1 2.1-5.9.8 0 1 .4 1.7 1.1zm1.7 11.7c-1.6 1.2-3.6 2.9-5.5 3.2-.3-1-.7-2.1-1-2.9 1.5-1 6.5-5.5 6.5-.3zm2.9-.8c.2.8.5 1.6.3 2.7-1.1.7-4.5 3.8-5.3 3.9-.5-1-.9-1.8-1.3-2.7 1-.5 5.9-4.2 6.3-3.9zm-2.5 8.8c-2.1-2.7.1-3.1 2.4-4.5.2 0 .3.4.5.7.3 2.8-.8 2.7-2.9 3.8zm2.7-.1l-.1 2.1h-.2c-1.1-.1-1.8-.2-2.7-.5-.1-.6 2.6-1.7 3-1.6zm-17.1 10.2c1.2-.8 2.4-.5 3.9-.8 1.3-.5 2.6-1.5 4-.6-2.2 1.6-3.6 3.4-6.2 3.4-1.1-.5-1.3-1.1-1.7-2zm-3.3-1.5c0-.8.1-1.6.1-2.4 1.7-1.1 3.7-.9 5.8-1 .1-.3.3-.5.4-.8.2 0 2.5 2.4 3 2.9-3.2 1.1-5.1 1.8-8.2 1.9-.4-.2-.8-.4-1.1-.6zm-27.3.7c.2-.6.4-1.2.7-1.7 4 .3 7.7 1.7 11.8 2.2 0-1.3.1-2.6.3-3.8 2.7.1 12.5-.9 13.3.8.2.7.4 1.5.4 2.4-1.6 1.6-2.7 3.3-4.9 3.7-.5-.4-3.2-2.2-2.4-2.9l2.4.3c.3.8-.1 1.7.3 2.4.6-.5.6-1.6.7-2.3.8-.1 1.4-.2 2.4-.1 0-.3-.1-.6-.1-.8-4.2-.5-8.6-1.8-12.3.3-6 5.2-4.4-.6-9.7-1.3-.8.2-1.9.8-2.9.8zm-8.6-2.4c.2-1.1.5-1.8.9-2.7 2.4.8 5.1 1.6 7.4 3.1 0 .6.1 1.9-.4 2.4-2.2-.8-6-2.8-7.9-2.8zm-4.5-1.8c1 0 2.5 1.4 3.5 2-.4.5-1.7 1.2-2.2 1.4-1.3-.9-1.2-1.9-1.3-3.4zm-.8-4.5c.5 0 4.6 2.3 5.2 3-.2.4-1.1 2.3-1.2 2.3-1.7-1.3-5.2-2.8-4-5.3zm-.9-4.2c.1-.1.2-.1.2-.2 1.3 1.2 2.2 1.9 3.9 2.7l-.6 2.1h-.1c-2.5-1.4-3.3-1.8-3.4-4.6zm-.7-4.5c1.4 1.3 5.9 3.4 6.6 5-.6.7-.6.8-1.3.9-1.5-.8-6.9-3.9-5.3-5.9zm.3-22.4q0 1.7-.1 1.7c-.7-.4-1.5-1.1-1.5-1.9.8-.4.6-.3 1.6.2zm2.3-1.1c-1.4-.6.5-1.9.9-1.7-.1.5-.4 1.2-.9 1.7zm2.9-.2c-.2 2.1-1.1 3.6-2.1 5.6l.4.1c.2.7 2.2 8.3 1.7 9.4-1.1-.5-1.7-1.2-2.7-1.2 0 2.5 4.1 2.9 5 4.7-.6.8-1.4 2.2-2.2 2.5-6.2-3.4-5.6-4-4.7-10.5.6-.5.9-.5 1.8-.6.2.5.5 1 .7 1.5h.1c.6-.6-.4-1.8-.5-2.2-2.8-.3-4.2-1.7-6.2-3.3v-.3l-1.8-.4v-.4c1 .3 2 .6 3.1.8v.3c.4.1 1.8.7 2.3.6-2.2-2.9-7.7-3.4-5.8-7.6.7-.3.6.8 1 1.4l1-1 .6.3c0 .3 0 .6.1.9-.1.1-.2.1-.3.2v.5c1.4 0 1.3-1.2 1.9.9.6 1.1 1.6 1.7 2.8 2.4.5-.2-.3-3.5-.4-3.8-.6-.3-1.1-.5-1.7-.8 0-.3.4-.5.5-.7 1.2.4 1.9 1.7 3 2.8 1.1-.3 1.5-1.3 2.2-2.2 0 0 .1 0 .2.1zm.2 9.4h-.1c-.2 0-.3-.1-.4-.1 0-.5.2-.8.5-1.2h.3c0 .4 0 .8-.3 1.3zm.7-3.7c0 .3-.7 2-1 1.6-.9-1-.6-3.7.3-4.6.4.6 2.1 2.3.7 3zm-1-18.2c.4-.4 1.4-1.8 1.9-2l.3.3c-.2.2-1.8 1.9-2 1.9-.1-.1-.2-.1-.2-.2zm1-2.7c-.5 1-.9 1.7-1.9 2.2 0-.8.9-2.4 1.9-2.2zm2.2-1.5c-1-.2-1.5-3.8-1.7-4.6.1-.1.1-.2.2-.3 1 .7 1.7 3.8 1.5 4.9zm-.5 8.4c-.4-.1-.8-.2-1.3-.3-.4-.9-1-2.2-1-3 0 0 2-1.8 2-1-.8.8-1.2 2.1-.3 3.4.2-.1.3-.2.5-.3-.1-1.3.2-2.1.5-3.1 0-1.5-1.3-2.4-1.7-3.5.1-.1.2-.1.3-.2.8.3 2.3 2.5 2.5 2.5.1-.1.1-.2.2-.3-.6-2.2-1-4.1-1.2-6.1l.2-.3h.1c1.6 3.1 1.6 9.1-.8 12.2zm5.9 14.8l-.2 1.5c-.8-.4-1.6-.8-2.4-1.3 0 0 .3.8.3.9.8 1.3 4.2 2.8 5.8 2.2.4.3.7.8 1.1 1.4.1-.1.2-.2.4-.3.8 1.1.1 8.1 1.5 11.2.3 0 .7-.2 1.1-.3-.8-3.7-1.3-3.4 1.4-5.1.8.7-.2 3.8-.5 5.1.1 0 .2 0 .2.3h.3c.1-.2.3-.5.4-.7q.1 0 .8.4l.1 1c.9-.6 1.1-6.3 1-7.2-.4-.2-.7-.3-1.1-.5 0-.2.1-.5.1-.7.4 0 .6.4.9.9.1 0 .2-.1.4-.1.8-2.2.4-5.2.7-7.4.7-.8 1-1.2 1.3-2.1h.1c-.3 5.9-.5 11.8-.7 17.6h.9l.3-1.9c1.3 0 2.6 0 4 .2l.1 2.3h-.3c-6.2-.2-13.6-.6-18.8-4.2 0-3.1 2-6 1.4-9.5h-.6c-.3 1.7-.9 7.8-1.6 9-.3-.1-.5-.1-.8-.2-.2-2.6.1-5.3-.3-7.6-1.7-3.4-3.3-6.9-4.7-10.3-.3-2.2-.3-4.2-.2-6.3.5-.3.6-.5 1.3-.3.2.4.5.9.7 1.6.8 5.6 1.1 6.8 5.6 10.4zm1.5-14.9c-4.3 3-4.3 2.9-3.1 7.9 1.5 1.7 1.8 1.6 1.3 4.2-.6.2-1.1.4-1.6.5-.3-.2-.6-.5-.9-.7-.1-1.6-.8-2.6-1.3-3.9h-.2c-.1-1.5-.2-2.7-.4-3.9 1.4-1.3 5.2-3.7 4.9-5.7.5-.6 1.6.6 1.3 1.6zm4.4 9.7c-.6.6-1.6 1.6-2.6 1.3q-.8-.5-.9-.5c.6 1 1.6 2.5-.3 2.8-1.5-.4-.9-2.6-1.5-3.6-5-7.5.5-11.1 5.5-5.3-.4.9-2.2 1.1-2.4 1.5.4.3.9.6 1.3.9 0 .2-1.1 1.6-1.3 1.8 1.1.5.5-1 1.8-.5-.7 1.4.4.8.4 1.6zm.6 3c-.2-.3-.4-.5-.6-.8.5-1.3 1.1.9.6.8zm.2-2.5c.3.1.4.1.7.5-.1.1-.1.2-.2.3h-.2l-.4-.4c0-.1 0-.3.1-.4zm.4-1.4c.2.1 1 .6.6 1.1-.5-.4-.8-.6-.6-1.1zm.1-1.3c.4.1.6.3 1 .9-.1.1-.1.2-.2.2-.4-.4-.9-.7-.8-1.1zm.7-1.5c.3.1.5.1.6.8l-.3.3c-.2-.2-.4-.3-.6-.5 0-.5 0-.3.3-.6zm.1-1.2l1 .7s0 .4-.1.3c-.4-.2-.8-.3-1.1-.5v-.3c.1 0 .1-.1.2-.2zm.9-.1l-.8-1.1c.7-1.3 1 1.3.8 1.1zm-.4-2.6c.2 0 .4-.1.6-.1.1.1 1.1 1 .3 1.4-.8-.5-.7-.7-.9-1.3zm.5-.8c.1-.2.2-.4.3-.5.2 0 1.1.6.6 1.1-.4-.2-.7-.4-.9-.6zm1.1-.3c-.3-.3-.7-.5-1-.8 1.3-1.7 1.8.5 1 .8zm-.2-2.8c.2 0 .3 0 .5.1.1.2 0 1.1-.2.8s-.4-.5-.4-.7c0 0 0-.1.1-.2zm.5-1.6c.2.3.8.8.8 1.5h-.2c-.5-.1-.8-.5-1-.8 0-.2.2-.4.4-.7zm.3-1c.2.1.5.3.7.4v.3H52q-.6-.4-.7-.5c0-.1.1-.1.2-.2zm-.1-5.8c.2.2.3.4.5.6 0 .2-.1.5-.1.7h-.3c-.5 0-.4-.9-.4-1.1.2-.1.2-.2.3-.2zm1 0c-.5-.4-.5-.5-.6-.9 0-.1.1-.1.2-.2.2 0 .4.1.6.1-.1.1 0 1-.2 1zm.3 1.3c.3-.6.3-.5.8 0q0 .1-.2.4h-.1c-.1-.1-.3-.3-.5-.4zm.5-2.7c-.2-.3-.3-.5-.5-.8.5-1.2.9.6.5.8zm.7 1.8l-.2.1c-.5-.6-.4-.5-.2-1 .2 0 .5.6.4.9zm-.1-3.8c.1.2.2.4.2.7q-.1 0-.1.1c-.4-.4-.2-.6-.1-.8zm-2.6-2.4c.7-1 2.5-1.6 3.4-.2q-3 .2-3.4.2zm-6.5.4c.6-.4 4.1-1.1 4.5-.4-1.5.3-2.9.6-4.3.7-.1 0-.2-.2-.2-.3zm-.5-1.6c.5-.7 3.7-1.1 4.7-1.2l.5.6c-1.7.8-3.4.7-5.1.8 0 0-.1-.1-.1-.2zm5.4-2.5c-.1.1-.1.3-.2.5H48c0 .1-.1.1-.1.2-.9-.3-1.5.5-2.3.5q-1.2-.1-1.4-.1c.4-1 4.3-1.8 5.4-1.1zm.7.7c.4.3.8.6 1.3.9v.4c-.4.3-.8.6-1.3 1l-.3-.2c0-.6-.2-1.7.3-2.1zm4.2-.6c-.4.3-1.8 1.1-1.9 1.1-.7-.4-1.3-.8-2-1.1.3-.4 3.2-.1 3.9-.1v.1zm1.3.4c0 .3-.1 1.9-.3 1.6-.4-.2-.9-.3-1.3-.5v-.4c.5-.3.9-.6 1.3-1 .1.2.2.3.3.3zm2.2-2.7c-.4.2-.8.3-1.2.5-2-.4-2.3-2.6-.5-3.4v-2.1h-2.8c-1.1 2.6-5.7-1.6-1.2-2.6.8.4.9.2 1.3 1.2h2.7v-2.4c-4-1.6 3.9-5.8 1.9-.2l-.5.2V33H60c.5-1.5 1.6-1.3 2.7-.8 1.1 2.8-1.7 4-2.6 2.1h-2.4v2.2c1.2.6.7 1.9.3 2.9zm-.5 2.8c.1.1.1.3.2.4-.2.2-.4.4-.5.4-1.5-.1-.9-.9.3-.8zm.2 2.3l-1.1.3c-.1-.1-.1-.2-.2-.3.1-.1 1.5-.8 1.3 0zm-.5-3.2c-.2-.1-.5-.2-.7-.3-.2-1.3 1.8-.2.7.3zm1.7 4.4c0 .4 0 .5-.3.9h-3.7c-.1-.5-.1-.6.1-.9.9 0 3-.5 3.9 0zm0 2.1c-.2 0-.3-.1-.5-.1.1-.1.1-.3.2-.4.2.2.5.6.3.5zm.7 1.3c-.6-.2-1-.5-.9-.9.3-.1.5 0 .9.2-.3.4 0 .7 0 .7zm.6.7q-.1 0-.1.1c-.3-.1-.6-.3-1-.4.1-.1.1-.2.2-.3l.9.3v.3zm.7.8v.3c-.3 0-.6.1-.8.1l-.9-.6c0-.6 1.6.1 1.7.2zm.8 1.1l-.1.2h-1.5l-.2-.2c.6-.3.7-.4 1.8 0zm.4.8c-.2.2-.5.4-.7.4-.2-.1-.4-.2-.5-.3l.3-.6c.2.1.5.3.9.5zm.7 1.1c-.3.2-.5.4-.8.4s-.4-.4-.4-.4c.4-.2.5-.4 1.1-.3.1 0 .1.1.1.3zm1 1q-1 .6-1.1.6-.4-.4-.1-.7c.3 0 .7 0 1.2.1-.1-.1 0-.1 0 0zm.5 1.1c-.4.2-1.2.5-1.4.5-.1-.2-.2-.4-.2-.5.6-.2.9-.4 1.6 0zm.7 1v.5c-.5 0-.9.1-1.3.1-.1-.1-.2-.2-.3-.4.4-.5.9-.5 1.6-.2zm.7 1.5h-1.5l.1-.4c.5 0 .9-.1 1.4-.1v.5zm.5.5q-.2.2-1.1.5l-.6-.3c.5-.2 1-.2 1.7-.2zm.1 1.8c-.3-.2-.6-.3-.9-.5 0-2.4 2.2 1.1.9.5zm1.2.2c0 .1-.2 1-.3.9-.5-.2-.7-.4-.9-.5.1-.2.8-.5 1.2-.4zm.9 1.9h-.8c-.2-.2-.4-.3-.5-.4.7-.4.5-.5 1.2.1.1.1.1.2.1.3zm.6.8c-.3.1-.6.2-.9.2l-.9-.3c.1-.2.1-.3.2-.4.7 0 .8-.1 1.6.5zm-.8 1.5l-.5-.5c1.6-1 2.2-.2.5.5zm1.7-.3c0 .7-1 .6-.7.5-.1 0-.6.1-.7.1l.7-.7c.3.1.4.1.7.1zm.8 1.4q-.4.2-.6.2-.9-.3-1-.4c.3-.3 1.8-.7 1.6.2zm.6.7q-1.2.4-1.5.4l-.2-.2c.4-.1 1.1-.6 1.7-.5v.3zm.8 1.5c-.8-.1-1.3-.3-1.7-.6 1.8-.5 1.7.6 1.7.6zm-.7.7l-.2-.2c.6-.2.7-.4 1.6 0-.3.4-1 .2-1.4.2zm.9 2.8c1.1 0 2.1-.7 3.3-.1-.2 1.1.4 2.2.1 3.5-.5 0-.8-.4-1.1-.6v-.1q.4-.3 1-.4c-.1-.2-.1-.3-.2-.5-.7-.1-1.6-.3-2.1 0 .9.8 1.9 2.8 2.8 4.2h.8l-.6-.5.8-.8c.1 0 .2.1.4.3-.6 1.4-.1 1.7-1.4 2.5-.1.7-.5 5.4-1.2 4.7-1.3-1.7-2.3-3.7-3.9-1.7l-.2-.2c.5-.4 1-.8 1.6-1.3-.2-.2-.4-.3-.6-.5l.5-.4c-.7-2.9-.9-5.2-2.6-7.4-.5-.4-2.9-2-3-2.3.4 0 1.1.3 1.7.3-1.1-4.3-4.2-8.5-4.9-12.3 2.3 1.7 3.9 7.7 6.5 9.5v.4c1 .7 1.3 2.3 2.3 3.7zm3.6 4.4l-.3-.3q.1-.3.5-.2v.4c-.2 0-.1.1-.2.1zM73.6 71c-.3.1-.6.1-.9.2-.1-.1-.2-.2-.2-.3.2-.1.4-.3.6-.4.2.2.4.3.5.5zm3.5-6.1c5 .6 4.9 1.5 4.8 6.8-.3 2.5-1.7 3.8-3.9 4.1l-1.1-.2v-1c.3-.1.6-.3.9-.4 0-.9-.8-.7-.8-1 .8-.8 2 .7 1.7-1h-1.8c0-1 .5-.7.4-1.5-.9-.1-1.9-.1-2.8-.1-.1-2.5 1.2-3.7 2.6-5.7zm9.2 1.9c-.8 1.2-1.7 6.8-3.9 6.8h-.1c0-6.4 1.2-8.5-5-9.3-.2-.3-.3-.6-.3-.7 2.5-1.6 10.3-.6 13 .3-1.2.9-2.5 1.9-3.7 2.9zm4.6 4.1h-.1c-.4-.5-.7-1-.8-1.4h.1c0 .2 1 .9.8 1.4zm2.2 3.2v-.5l-.6-.3v-.2c.3-.1.5 0 .9.3-.2 1.5-.7 1.6-1.8 2.1-.1 0-.1-.1-.2-.1 1.1-2.9.3-.5 1.7-1.3zm4.7-3.3c.3 3.9-4.7 4.8-6.3 7.9.7 0 4.5-1.9 4.7-1.6-1.8 1.5-4.2 3.8-6.5 4.1-.3-.3-.6-.6-.8-.9-.6.4-2 5.1-2 6l.6-.1c.4-1.4.8-2.8 1.2-4.1.5.1 1 .1 1.4.2.4 2.6-.1 6-.2 8.9-.4.3-2.1 1.7-2.4 1.6l-1.2-2.1c.8-.8 1.8-1.7 2.6-2.5-1.1-1.2-5.1 3.7-6.3 2.5 1.5-3.4 4.1-11.3 6.4-14.4-.4-2-3.1-4.2-2.5-5.2 1 .5 2.9 2.4 3.9 2.3.5-1.1.9-2 1.9-2.6l.6.3.1 1c-1.7.9-2.3 2-2.7 4.1 2.2 1.4 3.7-3.6 3.9-3.6.3.3.4.4.9.2.2-1-.4-1.2.2-1.9l.6.1v.9c.6-.4.8-.6 1.2-1.3.4.1.5.2.7.2zm-9 3.3h.5c-.1-.9-1.7-2.2-2.3-2.2.5.7 1.2 1.4 1.8 2.2zm.3 16.5c-.1-.2-.2-.4-.3-.5-.8.1-.9.1-1.2.9.1.1.2.3.3.5.4 0 1-.5 1.2-.9zM76.8 66.3v.5h4.5c-1.7-1.3-2.7-.9-4.5-.5zm-.1 1.5v.5c.8-.1 1-.6 1.5.3-.2.2-.4.3-.6.5.1.1.2.3.2.5h1.9v-.4l-.5-.1c-.3-.5-.1-.7 0-1.1h.7v-.4c-1.5-.4-1.7-.3-3.2.2zm1.3 2.1c-.1.2-.2.3-.2.6H80c-.7-.2-1.3-.4-2-.6zm-3.2 1.8c-.1.2-.3.5-.4.7l-1.3-.1-.1.4.4.4c.7 0 1.4-.1 2-.1l-.5-1.2h-.1v-.1zM58 37.9c-1.2-2.5-3.4.2-1.1 1.1.7-.3.8-.4 1.1-1.1zm0-8.4c-.7-1.3-1.6-1.3-2.2 0 .3.6.2.6 1.1.9.6-.1.8-.3 1.1-.9zm2.4 4.2c.3.6.2.8 1.1 1.1 2.4-.6-.1-3.7-1.1-1.1zm-7.3.2c0-2.5-3.8-.2-1 .9.5 0 .7-.5 1-.9zm-8.9 32.2c-.3-.2-.5-.1-.6-.1-.1-.4-.3-.7-.4-1-1-.3-1.9.8-1.9 1.8l.5-.5.4.4c0 .2-.3.5-.4.7.2.1.4.2.5.3.9-.5 1.3-.9 1.9-1.6zm-4.3-.1c.8 0 2.2-1.4 3.1-1.9l-.3-.6c-1.3-.2-2.3 1.4-2.8 2.5zm.1 4.8c-1.9-2.9-2.1-3.1-2.2-6.3-2.4 1.9.9 6.2 1.6 8.7v.1c.7-.2.6-2.1.6-2.5zm2.1 9.9c-.9 1.3-.9 5.4-.9 7h.1c0 1.3-.7 1.7.7 2.4h.2c.3-3 .7-6.2.4-9.1-.1-.1-.3-.2-.5-.3zm1.2-.1c0 3.2-.1 6.7.3 10.1h.7c-.2-3.4-.4-6.7-.6-10l-.4-.1zm.8-.1c0 3.5.7 7.1 1.1 10.6.2.1.4.2.5.3h.1c-.3-3.7-.5-7.5-1.4-11-.1 0-.2 0-.3.1zM30 74.1c.8-.9 1.5-1.6 1.3-2.7-.8.4-1.1 1.8-1.3 2.7q0-.1 0 0zm-3-2.9c-.8-.2-.1-.7-1 0 .1.2.3.3.4.5.2.1.5-.3.6-.5zm8.2 35.4c0 .6.1.8.5 1.4.2-.1.4-.2.5-.3-.1-1.3-.2-1.4-1-1.1zm21.2 1.4c-.2.2-.4.5-.6.8.2.2.5.4.7.6q.1 0 .9-.4c.1-.3-.1-.7-.1-.7l-.9-.3zm14.4.5c0 .4.4.7.9.8.2 0 .5-.1.7-.1.1-.3 0-.6 0-.6-.5-.3-1.1-.4-1.6-.1zm17.7-8.3c.2-.7 0-.6-.3-1-.7 0-.8.6-1.1.6.2.2.4.5.6.7.3-.1.5-.2.8-.3zm-2.2-2.4c.4-.9.3-.7-.1-1.3h-.9c-.2.2-.3.5-.4.8.2.2.3.4.5.6.3-.1.6-.1.9-.1zm-3.5-2.5c.1-.3.2-.5.3-.8-.7-1.1-.6-.5-1.7.2.2.2.3.4.5.6h.9zm-4-17.8c-.7 1.1-.8 1 .2 2.1h1.1c.4-.7.6-1 .5-1.8-.9-.4-1-.4-1.8-.3zm1.7.4c-.1.6-.1.9-.5 1.4l-1.1-.1c-1-1.6.1-1.9 1.6-1.3zm-.3.2l-1.1-.3-.4.7c.3.2.7.5 1.1.7h.1c.3-.5.3-.6.3-1.1zm-1-.1c.3.1.6.1 1 .2 0 .3-.1.5-.3.8h-.1l-.8-.6.2-.4zM60.3 96.8c-.1.3-.2.5-.3.8l.9.6c.2 0 .7-.3 1.1-.4 0-.3-.5-1-.6-1h-1.1zm3.6 7.9c-.3.1-.6.2-.8.3-.1.2-.1.5-.1.7l.6.6c1.2-.2.7-1 .3-1.6zm-6.6-3.5h-1.4c-.1.3-.1.4-.1.9l.7.2c.7-.1 1-.5.8-1.1zm-10.5-5.6c0 .7.1.8.6 1.3.2 0 .7-.5 1-.7 0-1.6-1.1-.8-1.6-.6zm-3.5 3.2h-1.1q0 .9.1 1.1t.7.1c.9 0 .5-.8.3-1.2zm4.4 4.9l-.1.4c.1.1.2.3.3.4h1c0-.6-.1-.7-.3-1l-.9.2zm-5.3 3.1q.2 0 1.2-.3l-.9-1.1c-.3 0-.4.2-.6.3v.9s.1.1.3.2zm-8.5-4.8c-.5-.2-.5-.1-.9 0 0 .6.2.8.5 1.4.9-.2.6-.5.4-1.4zm.9-2.7c0 .5.2.7.5 1.2.2-.1.4-.2.5-.3 0-1-.3-1.2-1-.9zm-3.2-5.6c.1.7.1.8.7 1.5.2-.1.4-.2.5-.3 0-1.3-.2-1.6-1.2-1.2zm4.3-2c.7-.9.7-.7.2-1.5h-.7c-.4.8-.4.6.1 1.5h.4zm7.4-15.3c.3.1.5.6.2 1.4-.2.1-.3.1-.4.2-.9-.1-1.1-.6-.9-1.3.3-.2.5-.3.8-.3-.2 0-.5 0-.8.1-.3.9 0 1.5.9 1.6 1-.2 1.1-1.4.2-1.7zm-.3 0c.1 0 .3 0 .4.1-.2-.1-.3-.1-.4-.1zm41.3 32.5c2-.4 4.2-1.7 5.8-3.1-3.3-1.1-6.2-2.5-9.3-3.9-1.9-1.6-5.8-4.3-8.1-4.3 1.4 4.3 7.7 10.1 11.6 11.3zm-9.5-9.5c-.4-.5-1.1-1-1.2-1.3 1.8 0 5.2 2.8 6.5 3.6.9.6 1.1.7 2.2 1.3 2.4.7 4.6 2.7 7.3 2.9-1.2-.1-4 2.1-5.2 2.1-1.3-.1-4.4-1.5-4.7-2.4-1.7-2.5-4.3-3-4.9-6.2zm-39.7 12.1c-2.8.4-5.6 1.1-8 2.5 0 .2.2.4.4.6 1.6-.3 5.6-1.9 7.1-1.6 1.4 1.5 2.4 2.4 4.1 3.7 3.6 1.3 5-2.5 7.5-2.5 5.4 5.8 5 3.2 11.5.5.1 0 4.7 3.4 7 3.6 2.5-.2 4.1-2.5 6.6-2.5 5 2.1 5.8 1.8 10.4-1.2 2.7-.8 5.9 1.5 9.4.3 0-.1-.1-.2-.1-.3-3.3-.4-6.7-1.6-9.8-1.5-3.2 2.8-5.3 4.4-9 1.8 0 0 0-.1.1-.1v-.1h-.2c-1.4-1.5-1.6-.9-3.1-.1-3.8 3.6-6.4 3-9.6-.8-3.7-2.8-5.9 5.7-11.1.8-2.3-2.5-1.9-2.4-4.9-.4-4.5 2.6-5.5.5-8.3-2.7zm-4.9 5.6c5.1-.8 3.2-1.9 7.8 1.5 3.1 1.5 4.3-.2 7.6-.8 2.4 2 5.3 2.6 8.4 2.4 4.5-2.7 3-2.4 7 .6.4.2 1 .2 1.5.5 3 0 4.3-.2 6.9-2.1 2.8-1.3 5.7 1.7 9.7.1 3.2-1.5 4.7-1.1 8.2-1.2v-.8c-5.5-1-4.9-1.9-9.1 1-3.8 1.7-6.1-1.9-9.3-.5-6.2 4.5-6.2.1-11.8-1-3.8 1.9-4.7 2.6-8.8.9-.8-.5-2.1-1.7-2.8-1.9-4.6 1.8-5.3 3.3-9.3.2-1.8-1-5.6-1.7-6 1.1zm10.6 3.7c.1.2.2.4.4.7 1 0 1.6-.1 2.7-.4l.1.1c2.9 0 3.3.7 6 1.5 2.2.5 4.8-.9 7.1-1.2 2.8 1.1 3.5 1.6 6.9 2 2.1-.1 3.5-.3 5.5-1.4 2.3-1.1 3 .6 5.9.1l.3-.6c-2-.7-6-2.6-7.2-.3-2.4 1.2-5.2 1.2-7.6.7-1.4-.7-2.4-1.9-3.8-1.9-2.2.6-6 2.4-7.9.7-4.4-2-3.8-1.6-8.4 0zm12.6 3.1c-.1.2-.1.6-.3.7.7 1.2 2.9-.2 3.7-.6 1.2 0 2.5.7 3.8 1.2.1-.1.3-.4.4-.6-3-2.3-4.2-1.4-7.6-.7zm-13.3 5.3c.7.2 1.4.5 1.9.9l-.7 2.2-.9-.3c-.1-.4-.1-.8-.1-1.2-.2-.2-.6-.4-1-.6-.6-.2-1.1-.1-1.4.5-.5 1.5 3.3 2.1 2.5 4.6-.4 1.3-1.9 1.9-3.8 1.3-.6-.2-1.3-.5-1.8-.8l.7-2.1.8.3c.1.4.1.9.1 1.2.1.1.5.3.8.4.6.2 1.1 0 1.3-.5.4-1.4-3.4-2.1-2.6-4.5.6-1.3 2.1-2 4.2-1.4zm-6.2-2.2l-.3.6c-.4 0-.8 0-1.2-.1l-2.6 4.7c.2.3.5.6.7.9l-.3.6-3.4-1.9.3-.6c.4 0 .8 0 1.2.1l2.6-4.7c-.3-.3-.5-.6-.7-1l.3-.6 3.4 2zm-13.2-6.4l1.6-1.7c1 .3 2 .9 2.9 1.7 1.8 1.7 1.8 3.9.2 5.5-1.8 1.8-4.2 1.8-6.2-.2-.6-.6-1.2-1.3-1.6-2l1.6-1.6.7.6c-.1.4-.2.8-.4 1.1.2.4.5.8.9 1.2 1.1 1.1 2.4.7 3.5-.4 1-1.1 1.3-2.5.1-3.7-.3-.2-.5-.5-.8-.6l-1.1 1.1c.1.2.2.6.3.9l-.5.5-2.4-2.3.5-.5c.2.3.5.3.7.4zm-.1-5l-.6.4c-.3-.2-.7-.4-1-.6l-4.6 2.8c.1.3.1.8.1 1.2l-.6.4-2.1-3.4.6-.4c.3.2.7.4 1 .6l4.6-2.8c-.1-.4-.1-.8-.1-1.2l.6-.4 2.1 3.4zm-3.6-6.4l-.7.3c-.3-.2-.6-.5-.8-.8l-5 1.9c0 .4 0 .8-.1 1.2l-.6.2-1.4-3.7.6-.2c.3.2.6.5.8.8l5.1-1.9-.7-1.6h-1.3l-.3-.8 2.2-.8 2.2 5.4zm-2.9-8.8l-.7.1c-.3-.3-.5-.6-.7-.9l-5.2 1.1c0 .4-.1.8-.3 1.1l-.7.2-.8-3.9.7-.1c.3.3.5.6.7.9l5.3-1.1-.4-1.7c-.3 0-.8-.1-1.2-.2l-.2-.9 2.3-.5 1.2 5.9zM5.2 84.8l3.5-.3c2.1-.2 3.3 1.1 3.5 3.1.2 2.4-1 3.4-2.7 3.5l-3.7.3c-.1.3-.3.6-.4.8l-.7.1-.3-3.5.7-.1c.2.3.4.5.6.9l3.4-.3c1.3-.1 2-.6 1.9-2-.1-1.1-.8-1.6-2-1.5l-3.6.4c-.1.3-.3.7-.4.9l-.7.1-.3-3.1.7-.1c.2.2.4.5.5.8zm6.5-12.3H11c-.2-.2-.4-.6-.5-.8l-4.5.6 5.6 2.1v1.3l-5.8 2 4.5.5c.1-.3.3-.6.5-.8h.7l-.1 2.9h-.7c-.2-.2-.3-.4-.5-.6l-5.3-1c-.1.3-.3.6-.5.9h-.7l.1-3L9 74.7l-5.1-1.9.1-3.1h.7c.2.3.4.6.5.9l5.4-.9c.1-.2.3-.4.5-.6h.7l-.1 3.4zm-2.7-9c-.1.6-.6 1-1.2.9-.6-.1-1-.6-1-1.2.1-.6.6-1 1.2-.9.7 0 1.1.6 1 1.2zm-.6-13.4l3.4.8c2.1.5 2.8 2.1 2.3 4-.6 2.4-2 2.9-3.7 2.5l-3.6-.9c-.2.2-.4.5-.7.6l-.7-.2.8-3.4.7.2c.1.3.2.7.3 1l3.3.8c1.3.3 2.1 0 2.4-1.3.3-1.1-.3-1.8-1.4-2L8 51.5c-.2.3-.5.5-.7.8l-.7-.2.7-3 .7.2c.2.2.3.5.4.8zm5.5-12.9l5.9 3-.8 1.4-6.9.9 4.1 1.8c.2-.2.5-.4.9-.6l.6.3-1.5 3-.6-.3c0-.4-.1-.8 0-1.1l-4.7-2.5c-.3.3-.6.5-.9.7l-.6-.3 1.4-2.7L17 40l-3.6-1.6c-.2.2-.5.4-.8.5l-.6-.3 1.3-2.6.6.3c-.1.3 0 .6 0 .9zm8.7-.9l-.5-.5c.1-.4.2-.8.3-1.1l-3.9-3.6c-.3.2-.7.3-1.1.4l-.5-.5 2.7-2.9.5.5c-.1.4-.2.8-.3 1.1l3.9 3.6c.3-.2.7-.3 1.1-.4l.5.5-2.7 2.9zM31 21.2l1.3 7-1.5.8-5.7-4.3c-.2 0-.5 0-.8-.1L24 24l2.9-1.8.4.6c-.1.3-.3.6-.5.8l4 3.1-1.2-4.8c-.3.1-.7 0-1 0l-.4-.6 2.5-1.5.4.6c.1.3 0 .5-.1.8zm7.6 3.9l-.2-.7c.2-.3.5-.6.9-.8l-1.5-5.1c-.4 0-.8-.1-1.1-.2l-.2-.7 5.7-1.6.5 1.9-.9.2c-.2-.2-.5-.5-.7-.8l-1.6.5.6 2.2 1.3-.4c0-.2.1-.5.2-.7l.7-.2.6 2.1-.6.2c-.2-.1-.4-.3-.5-.5l-1.3.4.7 2.4 1.6-.5c0-.3.1-.8.1-1.1l.9-.2.6 2-5.8 1.6zM55.9 22l-.1-.8c-1 .2-1.2-2.6-2.5-2.7 1-.4 1.6-1.1 1.5-2.1-.1-1.5-1.2-2-3.2-1.9-1.1.1-2.4.3-2.7.3l-1 .1.1.7c.3.2.7.3 1.1.4l.5 5.3c-.4.1-.7.4-1 .6l.1.7 3.7-.3-.1-.7c-.2-.1-.6-.3-.9-.4l-.2-2h.4c1.3-.1 1.3 3.2 3.1 3.1.4-.1.9-.2 1.2-.3zm-4.2-3.9l-.6.1-.2-2.4c.1 0 .4-.1.5-.1 1-.1 1.5.3 1.6 1.1.1.7-.3 1.2-1.3 1.3zm10.7 4.2c-.7 0-1.5-.2-2.1-.4l.1-2.3h.9c.2.4.3.8.4 1.1.3.1.7.3 1.1.3.6 0 1.1-.2 1.2-.9.1-1.6-3.7-1.2-3.6-3.7.1-1.3 1.3-2.3 3.4-2.2.6 0 1.4.1 1.9.3l-.1 2.2h-.9c-.2-.4-.3-.8-.4-1.2-.2-.1-.6-.2-.9-.2-.7 0-1.1.2-1.1.8-.1 1.4 3.8 1.2 3.7 3.7-.1 1.5-1.4 2.6-3.6 2.5zm7.6.5l.1-.7c.3-.2.7-.3 1.1-.3l1-5.3c-.3-.2-.7-.4-.9-.7l.1-.7 3.9.7-.1.7c-.3.1-.8.3-1.1.3l-1 5.2c.3.2.7.4.9.7l-.1.7-3.9-.6zm15.8-1.1v-1.4l-1.2-.5-2 5.1c.3.2.6.5.8.9l-.3.7-3.7-1.5.3-.7c.4-.1.8-.1 1.2-.1l2-5.1-1.2-.5c-.2.3-.6.7-.9 1l-.8-.3.9-2.2 6.6 2.6-.9 2.3-.8-.3zM96 25.5l-1.6-1.2-6 3.7c-.2 0-.6-.1-.8-.1l-.4.6 2.3 1.8.4-.6c-.1-.3-.2-.6-.3-.8l.8-.5 2.2 1.7-.3.9c-.3-.1-.6-.1-.9-.1l-.4.5 2.7 2.1.4-.6c0-.2-.1-.5-.2-.7l2.1-6.7zm-2 .4c-.1.3-.3.6-.4 1l-.6 2.2-1.7-1.4 2-1.3c.2-.1.5-.3.7-.5zm9.6 11.9c.2-.4.5-.8.8-1.1l-.7-1.1-4.5 3.1c.1.3.2.8.2 1.2l-.6.4-2.3-3.3.6-.4c.4.2.8.3 1 .6l4.5-3.1-.7-1.1c-.3.1-.9.3-1.3.3l-.5-.7 1.9-1.3 4.1 5.9-1.9 1.3-.6-.7zm-2.2 7.5l.7-.3c.3.2.6.5.9.8l5-2c0-.4 0-.8.1-1.2l.6-.3 1.5 3.7-.6.3c-.3-.2-.6-.5-.9-.8l-5 2c0 .4 0 .8-.1 1.2l-.7.3-1.5-3.7zm3.1 9.9c-.2-.7-.2-1.5-.2-2.1l2.2-.5.2.9c-.3.2-.7.5-1 .7-.1.3-.1.7 0 1.2.1.6.5 1 1.1.9 1.6-.4.1-3.9 2.6-4.5 1.3-.3 2.6.6 3 2.7.1.6.2 1.3.2 1.9l-2.1.5-.2-.9c.3-.3.7-.5 1-.7v-.9c-.2-.7-.5-1-1.1-.9-1.4.3-.1 4-2.6 4.5-1.2.4-2.6-.6-3.1-2.8zm5 8.3c-.1-.6.4-1.1 1-1.2.6-.1 1.1.3 1.2.9.1.6-.4 1.1-1 1.2s-1.1-.4-1.2-.9zm-2.8 5.5h.7c.2.3.4.6.6 1l5.3-.2c.1-.3.3-.8.5-1.1h.7l.2 3.9h-.7c-.2-.3-.4-.7-.5-1l-5.4.2.1 1.7c.3.1.8.2 1.2.4v.9l-2.3.1-.4-5.9zm6.5 17.1l-3.5-.2c-2.1-.1-3.2-1.5-3.1-3.5.1-2.4 1.4-3.2 3.1-3.2l3.7.2c.1-.2.3-.5.5-.7h.7l-.1 3.5h-.7c-.2-.3-.4-.6-.5-.9l-3.4-.1c-1.3-.1-2.1.4-2.1 1.7 0 1.1.6 1.7 1.8 1.7l3.7.1c.1-.3.4-.6.5-.9h.7l-.1 3.1h-.7c-.2-.2-.4-.5-.5-.8zm.7 5.6l-.7-.1c-.3.3-.5.6-.7 1l-5.3-.9c-.1-.4-.2-.8-.3-1.1l-.7-.1-.2 1c-.2 1-.4 2-.5 2.6-.4 2.6.7 3.8 1.8 4 .8.1 1.7-.3 2.1-1.5.1 1 .7 1.5 1.4 1.6 1.3.2 2-.6 2.4-2.6.2-1 .3-2.2.4-2.9l.3-1zm-4.7 2.1l-.1.7c-.2 1.2-.7 1.8-1.5 1.7-.7-.1-1.2-.6-1-1.7.1-.5.2-.8.3-1.1l2.3.4zm3.2.6c0 .3-.1.5-.1.9-.2 1-.7 1.3-1.4 1.2-.6-.1-1.1-.5-.9-1.7 0-.3.1-.5.1-.7l2.3.3zm-8.3 6.8l.7.2c.1.3.2.8.1 1.2l5 1.7c.2-.3.6-.6.8-.8l.7.2-1.9 5.6-1.9-.6.3-.8c.3-.1.7-.1 1-.1l.5-1.6-2.1-.7-.4 1.3c.2.2.3.4.5.6l-.2.7-2.1-.7.2-.7c.2 0 .5-.2.7-.2l.4-1.3-2.3-.8-.5 1.6c.3.2.6.5.8.7l-.3.9-1.9-.7 1.9-5.7zm-5.5 12.5c1.3-2.2 3.2-2.7 5.2-1.5 2.4 1.4 2.8 3.7 1.5 5.8-.5.8-.9 1.3-1.3 1.7l-2.2-1.3.5-.8c.4 0 .9.2 1.3.3.3-.1.5-.4.7-.8.6-1 .2-2.1-1.3-3-1.4-.8-2.6-.6-3.5.9-.3.5-.5 1.1-.6 1.7l-1.1-.4c0-.8.3-1.8.8-2.6zm-3.5 5.1l.5.5c-.1.3-.2.7-.4 1.1l3.7 3.9c.3-.2.8-.3 1.1-.3l.5.5-4.3 4-1.3-1.4.6-.6c.3.1.7.2.9.4l1.2-1.2L96 124l-1 1c.1.2.1.5.1.7l-.5.5-1.5-1.6.5-.5c.2 0 .5.1.7.2l1-1-1.7-1.8-1.2 1.2c.2.3.3.7.4 1l-.7.6-1.4-1.5 4.4-4zm-11.3 15.5l-2.9-5.9 1.5-.7 6.1 3.5-2.2-3.9h-1.1l-.3-.6 3-1.5.3.6c-.2.3-.4.7-.7.9l2.3 4.8c.4-.1.8 0 1.2 0l.3.6-2.8 1.4-5.4-3.1 1.9 3.5c.3 0 .7 0 1 .1l.3.6-2.6 1.3-.3-.6c.1-.5.2-.7.4-1zm-9.3-4.2c.7-.2 1.5-.2 2.1-.2l.5 2.2-.9.2c-.2-.3-.5-.7-.7-1-.3-.1-.7-.1-1.2 0-.6.1-1.1.5-.9 1.1.3 1.6 3.9.1 4.5 2.7.3 1.3-.6 2.6-2.7 3-.6.1-1.3.2-1.9.2l-.5-2.1.9-.2c.3.3.5.7.7 1h.9c.7-.1 1-.5.9-1.1-.3-1.4-4-.1-4.5-2.6-.3-1.3.6-2.7 2.8-3.2zm-7 1.4l.1.7c-.3.2-.6.4-1 .6l.4 5.3c.3.1.8.2 1.1.4l.1.7-3.9.3-.1-.7c.3-.2.7-.5 1-.6l-.4-5.3c-.4-.1-.8-.2-1.1-.4l-.1-.7 3.9-.3zm-10.1.2c.7 0 1.5.1 2.1.3l-.1 2.3h-.9c-.2-.4-.3-.8-.4-1.1-.3-.1-.7-.3-1.2-.3-.6 0-1.1.2-1.2.9 0 1.6 3.8 1.1 3.7 3.7 0 1.3-1.2 2.3-3.3 2.3-.6 0-1.4-.1-1.9-.2l.1-2.2h.9c.2.4.3.8.4 1.1.2.1.6.2.9.2.7 0 1.1-.3 1.1-.9 0-1.4-3.8-1.1-3.8-3.6.1-1.4 1.4-2.6 3.6-2.5zm-9.8 2.8c.6.1 1 .6.9 1.2-.1.6-.6 1-1.2.9-.6-.1-1-.6-.9-1.2.1-.6.7-1 1.2-.9zm98.1-47.2v-7.9h-2.5v8.1c0 1.9-1 2.9-2.9 2.9-2.1 0-3.1-1-3.1-2.9v-8.1h-2.5v7.9c0 2.4.4 3.5 1.8 4.4 1 .7 2.1.9 3.7.9s2.7-.3 3.7-.9c1.4-1 1.8-2 1.8-4.4zm16.6 5.2V79.3H160V89l-.1-.2-.1-.3s-.1-.1-.1-.3c-.1-.1-.1-.2-.1-.3l-5.5-8.6h-2.9v13h2.4v-9.5c.1.2.1.3.2.5 0 0 .1.1.2.3.2.3.2.5.3.5l5.6 8.4h2.4zm8-.1v-13h-2.5v13h2.5zm15.1-13.1h-2.6l-2.8 8.8-.1.2c0 .1-.1.2-.1.3v.1l-.1-.2v-.4l-3-8.8H174l4.8 13.4h1.7l4.9-13.4zm12.1 13.1v-2.1h-5.7v-3.5h4.5v-2.1h-4.5v-3.2h5.4v-2.1h-7.9v13h8.2zm14 0l-3.2-5.6c1.1-.3 1.5-.6 2-1.2s.7-1.4.7-2.4c0-1.2-.4-2.2-1.1-2.8-.8-.7-1.6-1-3.5-1h-4.3v13h2.5v-5.2h1.2l3 5.2h2.7zm-3-9.2c0 1.3-.7 1.9-2.3 1.9h-1.6v-3.6h1.6c1.6-.1 2.3.4 2.3 1.7zm15.6-3c-.9-.4-1.2-.6-1.9-.7-.8-.2-1.6-.3-2.4-.3-1.5 0-2.3.2-3.3.9-.4.3-.7.6-1 1-.3.5-.5 1.2-.5 1.8 0 1.4.7 2.3 3 3.6l2 1.1c.8.5 1.1.8 1.1 1.4 0 .8-.8 1.3-1.9 1.3-.5 0-1.2-.1-1.9-.4-.5-.2-.9-.4-1.9-.9l-1 2.3c.4.2.7.3.8.4 1.4.6 1.8.8 2.7.9.4.1.8.1 1.2.1 2.9 0 4.6-1.4 4.6-3.7 0-.9-.3-1.8-.9-2.3-.6-.6-1.9-1.4-3.9-2.5-.9-.5-1.2-.8-1.2-1.4 0-.7.7-1.2 1.9-1.2.9 0 2 .3 3.4.9l1.1-2.3zm7 12.2v-13h-2.5v13h2.5zm14.1-11v-2.1h-10.3v2.1h3.9v10.9h2.5V81.4h3.9zm9.7-3.4c0-.6-.5-1.1-1.1-1.1s-1.1.5-1.1 1.1.5 1.1 1.1 1.1 1.1-.5 1.1-1.1zm-3.2 0c0-.6-.5-1.1-1.1-1.1s-1.1.5-1.1 1.1.5 1.1 1.1 1.1c.6-.1 1.1-.5 1.1-1.1zm6.3 14.4l-4.7-13H251l-4.7 13h2.6l1.1-3.2h4.4l1 3.2h2.6zm-4.3-5.4h-3l1.5-4.7 1.5 4.7zm15.7-5.6v-2.1h-10.3v2.1h3.9v10.9h2.5V81.4h3.9zm21 11v-2.1h-6.9l6.9-9.3v-1.6h-10.3v2.1h6.9l-7.1 9.3v1.6h10.5zm15.1-5.1v-7.9H303v8.1c0 1.9-1 2.9-2.9 2.9-2.1 0-3.1-1-3.1-2.9v-8.1h-2.5v7.9c0 2.4.4 3.5 1.8 4.4 1 .7 2.1.9 3.7.9s2.7-.3 3.7-.9c1.3-1 1.8-2 1.8-4.4zm20.7 5.1v-2.1h-5.3v-11h-2.5v13l7.8.1zm12-14.4c0-.6-.5-1.1-1.1-1.1s-1.1.5-1.1 1.1.5 1.1 1.1 1.1 1.1-.5 1.1-1.1zm-4.1 0c0-.6-.5-1.1-1.1-1.1s-1.1.5-1.1 1.1.5 1.1 1.1 1.1c.7 0 1.1-.5 1.1-1.1zm6.5 9.3v-7.9h-2.5v8.1c0 1.9-1 2.9-2.9 2.9-2.1 0-3.1-1-3.1-2.9v-8.1h-2.5v7.9c0 2.4.4 3.5 1.8 4.4 1 .7 2.1.9 3.7.9s2.7-.3 3.7-.9c1.4-1 1.8-2 1.8-4.4zm14.6 1.6c0-2-1.2-3.3-3.2-3.4 1-.1 1.6-.3 2.1-.9s.7-1.3.7-2.1-.4-1.8-1-2.3c-.7-.7-1.6-.9-3.3-.9h-4.7v13h5.3c2.7.1 4.1-1.2 4.1-3.4zm-3.1-5.9c0 1.1-.7 1.7-2.1 1.7h-1.5v-3.4h1.6c1.3 0 2 .6 2 1.7zm.4 5.6c0 .7-.3 1.2-.9 1.5-.4.2-.7.2-1.5.2h-1.6v-3.6h1.6c1.5.1 2.4.7 2.4 1.9zm15.6 3.8v-2.1h-5.7v-3.5h4.5v-2.1h-4.5v-3.2h5.4v-2.1h-7.9v13h8.2zm14.3-12.1c-1.1-.8-2.4-1.2-4.1-1.2-2.2 0-3.6.5-4.9 1.8s-2 3-2 4.9c0 2 .8 4 2.2 5.2 1.2 1.1 2.7 1.6 4.7 1.6.8 0 1.5-.1 2.1-.2s.9-.3 1.8-.6l-.5-2.1c-1.2.5-1.9.6-2.9.6-2.8 0-4.7-1.8-4.7-4.6 0-2.5 1.8-4.2 4.3-4.2 1.1 0 2.2.3 3 .9l1-2.1zm13.8 12.1l-4.7-6.7 4.5-6.3h-2.9l-4.1 6.1v-6.1h-2.5v13h2.5v-6.2l4.3 6.2h2.9z"/></svg>