<svg xmlns="http://www.w3.org/2000/svg" role="img" viewBox="-38.62 95.01 84.11 31.61"><title>Valtrix Systems logo</title><style>svg {enable-background:new -37 96.7 80.9 28.4}</style><style>.st0{fill:#38f}</style><path d="M17 104.6c.9-1.5 2.3-2.3 4.1-2.3v3.7c-2.3-.2-3.9.9-4.1 2.7v6.5h-4v-12.7h4v2.1zm10.9-5.8c0 1.3-.9 2.2-2.1 2.2-1.2 0-2.1-.9-2.1-2.2 0-1.2.9-2.1 2.1-2.1s2.1.9 2.1 2.1zm-4.2 16.3v-12.6h4v12.7l-4-.1zm10.7-12.6h-4.7l3.2 4.8 2.3-3.5zm4.8 6.1l4-6.1h-5.3l-1.9 2.8-2.2 3.3-4.3 6.5h4.4l2.6-3.9 2.3 3.9h4.7z" class="st0"/><path fill="#38f" d="M-30.6 115.1L-37 98.7h4.5l4.2 12.1 4.2-12.1h4.3l-6.5 16.4h-4.3zm22.7-8.2v8.3h-4v-1.5c-.8 1.1-2.2 1.6-3.9 1.6-2.7 0-4.3-1.6-4.3-4s1.7-3.8 4.9-3.8h3.3v-.2c0-1.2-.8-2-2.5-2-1.1 0-2.4.4-3.8 1.1l-1.1-2.7c2-.9 3.8-1.4 5.9-1.4 3.4 0 5.4 1.7 5.5 4.6zm-4 3.9v-1.1h-2.6c-1.2 0-1.8.4-1.8 1.4 0 .9.7 1.5 1.8 1.5 1.2 0 2.3-.7 2.6-1.8zm7 4.3V97.7h4.1v17.4h-4.1z"/><path d="M10.7 114.5c-.9.5-2.2.9-3.4.9-2.4 0-4.2-1.4-4.2-4v-5.7H1.3v-2.6h1.8v-3.6h4v3.5h3.3v2.7H7.1v5c0 1 .4 1.4 1.2 1.4.4 0 1-.2 1.6-.4l.8 2.8z" class="st0"/><path fill="#38f" d="M-29.6 118.7l-.3.7c-.6-.4-1.4-.6-1.9-.6-.9 0-1.5.3-1.5.9 0 1.8 3.9.9 3.9 3.4 0 1.2-1 1.9-2.5 1.9-1 0-2-.4-2.7-1.1l.4-.7c.6.6 1.5 1 2.3 1 1 0 1.6-.4 1.6-1.1 0-1.8-3.9-.9-3.9-3.4 0-1.1 1-1.8 2.4-1.8.7.1 1.6.4 2.2.8zm9.8 6.4h-.8v-2.4l-2.7-4.6h.8l2.3 3.6 2.2-3.6h.8l-2.7 4.6v2.4zm13.7-6.4l-.3.7c-.6-.4-1.4-.6-1.9-.6-.9 0-1.5.3-1.5.9 0 1.8 3.9.9 3.9 3.4 0 1.2-1 1.9-2.5 1.9-1 0-2-.4-2.7-1.1l.4-.7c.6.6 1.5 1 2.3 1 1 0 1.6-.4 1.6-1.1 0-1.8-3.9-.9-3.9-3.4 0-1.1 1-1.8 2.4-1.8.8.1 1.6.4 2.2.8zm9.6.1v6.2h-.8v-6.2H.4v-.8h5.4v.8H3.5zm9.8 0v2.3h3.5v.8h-3.5v2.4h4.1v.8h-4.9v-7h4.7v.8h-3.9zm17.7 6.3v-5.8l-2.5 5H28l-2.5-5v5.8h-.8v-7h1l2.6 5 2.5-5h1v7H31zm12.7-6.4l-.3.7c-.6-.4-1.4-.6-1.9-.6-.9 0-1.5.3-1.5.9 0 1.8 3.9.9 3.9 3.4 0 1.2-1 1.9-2.5 1.9-1 0-2-.4-2.7-1.1l.4-.7c.6.6 1.5 1 2.3 1 1 0 1.6-.4 1.6-1.1 0-1.8-3.9-.9-3.9-3.4 0-1.1 1-1.8 2.4-1.8.8.1 1.6.4 2.2.8z"/></svg>