<svg xmlns="http://www.w3.org/2000/svg" role="img" viewBox="-19.78 -18.78 1132.56 149.56"><title>Veer Surendra Sai University of Technology (member) logo</title><path d="M42.8 6.2C41 8.1 39.5 9 38.5 8.6c-1.1-.4-1.4-.2-.9.6.5.7 0 .9-1.4.6-1.2-.4-2-.2-1.6.3.3.5.4.9.2.9s-2.8.4-5.8.9-9 .6-13.2.2l-7.7-.6.2 29.5c.1 26.3.2 27.2.4 7.7L9 27h75l.3 20.7c.2 19.2.3 18.6.5-7.5.1-19.3-.1-28.2-.9-28.2-.5 0-.8.3-.6.7.8 1.2-18.4.6-23.4-.7C55.7 10.9 47 6.5 47 5.4c0-.3.6-.2 1.3.2.8.5.8.2-.2-.9-1.8-2.2-2.1-2.2-5.3 1.5zm-12 11.1c1.8-.3 3.2-.1 3.2.5 0 1-5.3 2-8.2 1.4-1-.2-1.8-1-1.8-1.8 0-1.1.5-1.2 1.8-.6.9.5 3.2.7 5 .5zm13-.3c.1.2.6.3 1.1.4 2.8.4 1.9 1.6-1.2 1.6-2.3 0-3.7-.5-3.8-1.3 0-1-.2-1-.6 0-.5 1.5-4.3 1.8-4.3.4 0-1.3 7.4-2.2 8.8-1.1zm9 .4c1.2-.1 2.2.3 2.2.7 0 1.2-5.7 1.2-6.4 0-.7-1.1.6-2.4 1.3-1.3.3.4 1.6.7 2.9.6zM78 17c0 .5-.4 1-1 1-.5 0-1-.5-1-1 0-.6.5-1 1-1 .6 0 1 .4 1 1zm-62 1c0 .5-.9.9-2 .7-3.1-.5-3.6-1.7-.7-1.7 1.5 0 2.7.4 2.7 1zm6 0c0 .5-.7 1-1.5 1s-1.5-.5-1.5-1c0-.6.7-1 1.5-1s1.5.4 1.5 1zm46-.3c0 .5-1.9.9-4.3 1-2.3.1-4.9.3-5.6.5-.7.2-1.5-.2-1.8-.8-.2-.7 1.8-1.1 5.7-1.3 3.3-.1 6 .2 6 .6zm7 .3c0 .5-1.3 1-3 1-1.6 0-3-.5-3-1 0-.6 1.4-1 3-1 1.7 0 3 .4 3 1zm6-.6c0 .3-.4.8-1 1.1-.5.3-1 .1-1-.4 0-.6.5-1.1 1-1.1.6 0 1 .2 1 .4zm-65 4.8c0 1.4-2.2 2-3 .8-.6-1-.9-.9-1.3.1s-.6 1-.6-.2c-.1-1.2.7-1.6 2.4-1.5 1.4 0 2.5.4 2.5.8zm2.7 1c-.3.8-.6.5-.6-.6-.1-1.1.2-1.7.5-1.3.3.3.4 1.2.1 1.9zm5.9 0c0 1.1-.4 1.4-.9.9-.5-.5-1.6-.7-2.3-.4-1.3.5-2-.8-.9-1.8 1.2-1.2 4.1-.3 4.1 1.3zM36 23c0 1.3-1.7 1.6-6.1 1.2-5-.5-5.1-2-.1-2.4 4.2-.4 6.2 0 6.2 1.2zm6.3-.6c-.3.4.4.5 1.6.1 1.3-.4 2.1-.2 2.1.5 0 .6-.4.9-.9.5-.5-.3-1.2-.1-1.5.3-.9 1.5-5.1.6-5.4-1-.2-1.1.4-1.6 2.2-1.4 1.3 0 2.2.5 1.9 1zm19.5-.3c1.2.1 2.5.5 2.7.9.9 1.5-11.8 1.6-13.2.2-1-1-1.3-1-1.3-.1 0 .7-.3 1-.6.6-1.4-1.4.8-2.3 5.3-2 2.6.2 5.8.4 7.1.4zm11.3-.1c1.6-.9 4.8.4 3.7 1.5-.7.8-8.7.9-9.4.2-1.3-1.2.8-2.7 2.4-1.8 1 .5 2.4.6 3.3.1zm7.9 1c0 .5-.4 1-1 1-.5 0-1-.5-1-1 0-.6.5-1 1-1 .6 0 1 .4 1 1zm185 34.5c0 24.3.4 37.5 1 37.5s1-13.2 1-37.5-.4-37.5-1-37.5-1 13.2-1 37.5zm11.9-23.3c4.3 12.8 5 14.3 7.2 14.6 2.3.3 2.7-.5 6.8-13 2.4-7.3 4.6-13.9 4.9-14.6.3-1-.2-1.3-1.9-1-2 .3-2.8 1.7-5.4 9.8-1.7 5.2-3.3 10.2-3.6 11-.3.8-2.3-3.6-4.3-9.8-3.4-10-4-11.2-6.1-11.2h-2.4l4.8 14.2zm98.4-12.8c-3.7 1.7-5.1 5.4-3.7 9.5.8 2.1 2.3 3.1 8.4 5.1 5.9 2 7.6 3 7.8 4.6.8 5.7-7.1 7.2-12 2.3-2.9-2.8-5.8-3.3-5.8-.9 0 .7 1.3 2.5 2.9 4.1 2.6 2.5 3.7 2.9 8.8 2.9 7 0 10-1.7 10.9-6.4 1.1-5.9-1.2-8-11.3-10.6-6.4-1.6-7.6-5.2-2.6-7.9 2.6-1.3 7 0 7.9 2.4.7 1.6 3.9 2 4.9.6.3-.5-.5-2.2-1.8-3.6-2.8-3.3-9.6-4.3-14.4-2.1zM500 24.5V29l-4.4-.6c-4.1-.6-4.8-.4-7.5 2.4-2.7 2.6-3.1 3.8-3.1 8.2 0 4.1.5 5.6 2.4 7.5 2.2 2.2 3.3 2.4 9.5 2.3l7.1-.1V34.3c0-13.6-.1-14.3-2-14.3-1.7 0-2 .7-2 4.5zm-.4 11.2c1 4-.8 8.7-3.9 9.7-3.7 1.4-5.9-1-6.1-6.4-.1-5.4 3.1-8.6 7-6.8 1.3.6 2.7 2.2 3 3.5zm65.7-14.3c-3.7 1.7-5.1 5.4-3.7 9.5.8 2.1 2.3 3.1 8.4 5.1 5.9 2 7.6 3 7.8 4.6.8 5.7-7.1 7.2-12 2.3-2.9-2.8-5.8-3.3-5.8-.9 0 .7 1.3 2.5 2.9 4.1 2.6 2.5 3.7 2.9 8.8 2.9 7 0 10-1.7 10.9-6.4 1.1-5.9-1.2-8-11.3-10.6-6.4-1.6-7.6-5.2-2.6-7.9 2.6-1.3 7 0 7.9 2.4.7 1.6 3.9 2 4.9.6.3-.5-.5-2.2-1.8-3.6-2.8-3.3-9.6-4.3-14.4-2.1zm45.7.1c0 .9.9 1.5 2.5 1.5s2.5-.6 2.5-1.5-.9-1.5-2.5-1.5-2.5.6-2.5 1.5zm23 8.9c0 11.1 1.1 16.1 4 17.6 3.3 1.7 11.5 1.2 14.1-.9 2.3-1.8 2.4-2.7 2.7-14.5.4-12.2.3-12.6-1.7-12.6s-2.1.5-2.1 10.8c0 12.2-1.2 15.2-5.9 15.2-5.1 0-6.1-2.4-6.1-14.8V20h-5v10.4zm52-8.9c0 .9.9 1.5 2.5 1.5s2.5-.6 2.5-1.5-.9-1.5-2.5-1.5-2.5.6-2.5 1.5zm91 0c0 .9.9 1.5 2.5 1.5s2.5-.6 2.5-1.5-.9-1.5-2.5-1.5-2.5.6-2.5 1.5zm83 .5c-1.1 1.1-2 2.9-2 4 0 1.3-.7 2-2 2-1.1 0-2 .7-2 1.5s.9 1.5 2 1.5c1.9 0 2 .7 2 9s.2 9 2 9c1.7 0 1.9-.8 2.2-8.8.3-8.2.4-8.7 2.6-9 3.1-.5 2.8-3.2-.4-3.2-2.1 0-2.5-.4-2.2-2.3.2-1.6 1.1-2.3 3.1-2.5 1.5-.2 2.7-.9 2.7-1.8 0-2.1-5.7-1.7-8 .6zm21-.6c0 1 1.3 1.6 3.8 1.8l3.7.3.3 12.7c.2 11.9.4 12.8 2.2 12.8 1.8 0 2-.9 2.2-12.8l.3-12.7 4.3-.3c2.8-.2 4.2-.8 4.2-1.8 0-1.1-2-1.4-10.5-1.4s-10.5.3-10.5 1.4zm66 13.1V49h2.5c2.4 0 2.5-.2 2.5-6.6 0-3.6.4-7.3 1-8.3 1.4-2.8 4-3.4 6.1-1.5 1.5 1.4 1.9 3.2 1.9 9.1 0 6.6.2 7.3 2 7.3s2-.7 2-8.5c0-7.2-.3-8.8-2-10.5-2.2-2.2-6-2.6-9.1-1-1.8 1-1.9.7-1.9-4s-.2-5-2.5-5H947v14.5zm72 0V49h5V20h-5v14.5zM789 25c0 2.3-.4 3-2 3-1.1 0-2 .7-2 1.5s.9 1.5 2 1.5c1.8 0 2 .7 2 7.8 0 8.9.8 10.2 6.2 10.2 4.5 0 5.4-2.7 1.1-3.2-2.7-.3-2.8-.5-3.1-7.6-.3-7.1-.3-7.2 2.3-7.2 1.6 0 2.5-.6 2.5-1.5s-.9-1.5-2.5-1.5c-2.1 0-2.5-.5-2.5-3 0-2.3-.4-3-2-3s-2 .7-2 3zm277.9 1.9c-.7 1.1-1.9 1.6-3 1.4-2.6-.7-6.4.4-8.3 2.3-1.8 1.7-2.2 7.9-.5 8.9.7.5.4 1.4-.7 2.7-1.5 1.5-1.6 2.3-.7 3.8 1 1.4.9 2.1-.2 3-2.2 1.8-1.8 4.7.7 6.4 2.8 2 14.6 2.2 17.2.3 2-1.5 2.5-6.2.8-7.9-.6-.6-4-1.3-7.7-1.5-5.3-.5-6.5-.9-6.3-2.2.2-1.1 1.6-1.7 4.5-1.9 3.2-.2 4.8-1 6.3-3 2-2.5 2.1-4.2.4-8.5-.3-1 .2-1.8 1.5-2.2 1.2-.3 2.1-1.3 2.1-2.1 0-2.1-4.8-1.7-6.1.5zm-2.8 5.1c2.9 1.6 2.5 5.8-.6 6.6-4.6 1.1-7.7-4.2-3.7-6.5 2.1-1.3 2-1.3 4.3-.1zm3.3 17.6c.9.3 1.6 1.2 1.6 1.9 0 2.5-7.3 3.5-11.1 1.4-4.6-2.4 4-5.4 9.5-3.3zM303.4 29c-5.1 2-7 10-3.9 15.9 1.7 3.4 3.3 4.1 8.9 4.1 3.2 0 4.8-.6 6.5-2.4 3.7-3.9.9-6.4-2.9-2.6-3.3 3.3-8.5 1.9-9.2-2.5-.3-1.8.3-2 7.5-2.3 4.2-.2 7.7-.7 7.7-1.3 0-.5-.7-2.5-1.5-4.4-2-4.9-7.6-6.8-13.1-4.5zm7.4 3.6c3.4 2.4 2.6 3.4-2.8 3.4-2.7 0-5-.4-5-.9 0-1 3.9-4.1 5-4.1.3 0 1.6.7 2.8 1.6zm15.6-3.6c-5.1 2-7 10-3.9 15.9 1.7 3.4 3.3 4.1 8.9 4.1 3.2 0 4.8-.6 6.5-2.4 3.7-3.9.9-6.4-2.9-2.6-3.3 3.3-8.5 1.9-9.2-2.5-.3-1.8.3-2 7.5-2.3 4.2-.2 7.7-.7 7.7-1.3 0-.5-.7-2.5-1.5-4.4-2-4.9-7.6-6.8-13.1-4.5zm7.4 3.6c3.4 2.4 2.6 3.4-2.8 3.4-2.7 0-5-.4-5-.9 0-1 3.9-4.1 5-4.1.3 0 1.6.7 2.8 1.6zm12.2 5.9c0 10.5 0 10.5 2.5 10.5 2.3 0 2.4-.3 2.7-7.2.3-7 .4-7.4 3.5-9.3 5.2-3.3 3.5-6.3-2-3.4-1.6.9-2.2.9-2.5 0-.2-.6-1.2-1.1-2.3-1.1-1.8 0-1.9.8-1.9 10.5zm53-3.6c0 7.8 1.4 12.8 3.8 13.5 1 .3 4.5.5 8 .4l6.2-.1V38.4c0-9.7-.1-10.4-2-10.4-1.8 0-2 .7-2 7 0 5.7-.4 7.4-2 9-4.6 4.6-7 1.8-7-8.2 0-7.7 0-7.8-2.5-7.8-2.4 0-2.5.2-2.5 6.9zm24 3.6c0 10.5 0 10.5 2.5 10.5 2.3 0 2.4-.3 2.7-7.2.3-7 .4-7.4 3.5-9.3 5.2-3.3 3.5-6.3-2-3.4-1.6.9-2.2.9-2.5 0-.2-.6-1.2-1.1-2.3-1.1-1.8 0-1.9.8-1.9 10.5zm19.4-9.5c-5.1 2-7 10-3.9 15.9 1.7 3.4 3.3 4.1 8.9 4.1 3.2 0 4.8-.6 6.5-2.4 3.7-3.9.9-6.4-2.9-2.6-3.3 3.3-8.5 1.9-9.2-2.5-.3-1.8.3-2 7.5-2.3 4.2-.2 7.7-.7 7.7-1.3 0-.5-.7-2.5-1.5-4.4-2-4.9-7.6-6.8-13.1-4.5zm7.4 3.6c3.4 2.4 2.6 3.4-2.8 3.4-2.7 0-5-.4-5-.9 0-1 3.9-4.1 5-4.1.3 0 1.6.7 2.8 1.6zm12.2 5.9V49h2.5c2.4 0 2.5-.2 2.5-7 0-5.7.4-7.4 2-9 2.4-2.4 3.4-2.5 5.4-.4 1.2 1.1 1.6 3.6 1.6 9 0 6.7.2 7.4 2 7.4s2-.7 2-8.5c0-7.2-.3-8.8-2-10.5-2.2-2.2-6-2.6-9.3-.9-1.6.9-2.2.9-2.5 0-.2-.6-1.2-1.1-2.3-1.1-1.8 0-1.9.8-1.9 10.5zm49 0c0 10.5 0 10.5 2.5 10.5 2.3 0 2.4-.3 2.7-7.2.3-7 .4-7.4 3.5-9.3 5.2-3.3 3.5-6.3-2-3.4-1.6.9-2.2.9-2.5 0-.2-.6-1.2-1.1-2.3-1.1-1.8 0-1.9.8-1.9 10.5zm19-9.8c-2 .7-5 3.4-5 4.5 0 1.4 3.9.9 6.6-.8 2-1.4 3-1.5 4.9-.6 4.2 1.9 3 3.9-2.6 4.5-6.3.8-8.9 2.9-8.9 7.3s2 5.4 11.2 5.2l7.4-.2-.4-8.5c-.3-7.1-.7-8.9-2.4-10.4-2-1.6-7.6-2.2-10.8-1zm9 12c0 4.2-6.4 7-9 3.8-1.4-1.7-.6-3.3 2.4-4.5 3.6-1.5 6.6-1.2 6.6.7zm53-12c-2 .7-5 3.4-5 4.5 0 1.4 3.9.9 6.6-.8 2-1.4 3-1.5 4.9-.6 4.2 1.9 3 3.9-2.6 4.5-6.3.8-8.9 2.9-8.9 7.3s2 5.4 11.2 5.2l7.4-.2-.4-8.5c-.3-7.1-.7-8.9-2.4-10.4-2-1.6-7.6-2.2-10.8-1zm9 12c0 4.2-6.4 7-9 3.8-1.4-1.7-.6-3.3 2.4-4.5 3.6-1.5 6.6-1.2 6.6.7zm10-2.2V49h5V28h-5v10.5zm50 0V49h2.5c2.4 0 2.5-.2 2.5-7 0-5.7.4-7.4 2-9 2.4-2.4 3.4-2.5 5.4-.4 1.2 1.1 1.6 3.6 1.6 9 0 6.7.2 7.4 2 7.4s2-.7 2-8.5c0-7.2-.3-8.8-2-10.5-2.2-2.2-6-2.6-9.3-.9-1.6.9-2.2.9-2.5 0-.2-.6-1.2-1.1-2.3-1.1-1.8 0-1.9.8-1.9 10.5zm25 0V49h5V28h-5v10.5zm9-9.7c0 .9 3.3 10.3 6.2 17.4.7 1.9 1.8 2.8 3.3 2.8 1.9 0 2.7-1.2 5.3-8.8 1.7-4.8 3.4-9.5 3.7-10.5.5-1.3.2-1.7-1.3-1.7-2 0-3.8 3.5-6.7 13-.7 2.1-1.1 1.5-3.5-5-2.1-5.8-3.2-7.6-4.9-7.8-1.1-.2-2.1.1-2.1.6zm26.4.2c-5.1 2-7 10-3.9 15.9 1.7 3.4 3.3 4.1 8.9 4.1 3.2 0 4.8-.6 6.5-2.4 3.7-3.9.9-6.4-2.9-2.6-3.3 3.3-8.5 1.9-9.2-2.5-.3-1.8.3-2 7.5-2.3 4.2-.2 7.7-.7 7.7-1.3 0-.5-.7-2.5-1.5-4.4-2-4.9-7.6-6.8-13.1-4.5zm7.4 3.6c3.4 2.4 2.6 3.4-2.8 3.4-2.7 0-5-.4-5-.9 0-1 3.9-4.1 5-4.1.3 0 1.6.7 2.8 1.6zm11.2 5.9c0 10.5 0 10.5 2.5 10.5 2.3 0 2.4-.3 2.7-7.2.3-7 .4-7.4 3.5-9.3 5.2-3.3 3.5-6.3-2-3.4-1.6.9-2.2.9-2.5 0-.2-.6-1.2-1.1-2.3-1.1-1.8 0-1.9.8-1.9 10.5zm17.8-9.5c-5.9 3.6-3.8 9.1 4.2 11 5.3 1.3 7.4 3.5 4.9 5.1-2.4 1.5-5.8 1-8-1.2-2-2-4.9-2-4.9.1 0 .5.9 1.9 2 3 1.5 1.5 3.3 2 7.5 2s6-.5 7.5-2c4.1-4.1 1.8-7.9-6.4-10.2-5.5-1.5-6.7-3.1-3.6-4.8 1.7-.9 2.6-.8 4.6.5 1.4.9 3.4 1.5 4.6 1.3 2-.3 2-.3.1-2.6-2.1-2.7-9.6-4-12.5-2.2zm19.2 9.5V49h5V28h-5v10.5z"/><path d="M800 29c0 .5 1.6 5.1 3.5 10.2 3.2 8.5 3.3 9.4 1.9 11.5-.8 1.3-2.3 2.3-3.4 2.3s-2 .7-2 1.5c0 1 1.1 1.5 3.5 1.5 4 0 4.2-.2 9.5-14.3 2.1-5.6 4.1-11 4.5-12 .5-1.3.2-1.7-1.3-1.7s-2.5 1.4-4.2 6c-1.2 3.3-2.6 6.2-3 6.5-.3.2-1.7-2.5-2.9-6-1.8-4.9-2.8-6.5-4.2-6.5-1 0-1.9.4-1.9 1zm37.4-.1c-3.3 1.4-5.4 5.1-5.4 9.4 0 4.3 2.2 9.2 4.5 10.1 2.9 1.1 9 .6 11.1-.9 4.7-3.2 5.5-11.7 1.6-16.5-1.9-2.4-8.4-3.5-11.8-2.1zM845 33c4.6 4.6 1.3 14-4.5 12.6-4.9-1.2-5.7-9.9-1.2-13.1 2.8-1.9 3.3-1.9 5.7.5zm61.4-4c-5.1 2-7 10-3.9 15.9 1.7 3.4 3.3 4.1 8.9 4.1 3.2 0 4.8-.6 6.5-2.4 3.7-3.9.9-6.4-2.9-2.6-3.3 3.3-8.5 1.9-9.2-2.5-.3-1.8.3-2 7.5-2.3 4.2-.2 7.7-.7 7.7-1.3 0-.5-.7-2.5-1.5-4.4-2-4.9-7.6-6.8-13.1-4.5zm7.4 3.6c3.4 2.4 2.6 3.4-2.8 3.4-2.7 0-5-.4-5-.9 0-1 3.9-4.1 5-4.1.3 0 1.6.7 2.8 1.6zm14-1.6c-2.8 2.9-3 3.5-2.6 8.7.6 7 3 9.3 9.3 9.3 3.5 0 4.8-.5 6.4-2.6 2.5-3.2 2.6-4.3.6-5-.9-.4-2.3.4-3.6 2-3.6 4.6-7.5 2.9-8.6-3.6-.4-2.7 0-4.1 1.9-6.3 2.1-2.3 2.7-2.6 4.5-1.7 1.1.6 2.3 1.8 2.7 2.7.3.8 1.5 1.5 2.6 1.5 2.4 0 2.4-.3.5-3.9-2.5-5-9.3-5.5-13.7-1.1zm43.2 7.5V49h2.5c2.4 0 2.5-.2 2.5-7 0-5.7.4-7.4 2-9 2.4-2.4 3.4-2.5 5.4-.4 1.2 1.1 1.6 3.6 1.6 9 0 6.7.2 7.4 2 7.4s2-.7 2-8.5c0-7.2-.3-8.8-2-10.5-2.2-2.2-6-2.6-9.3-.9-1.6.9-2.2.9-2.5 0-.2-.6-1.2-1.1-2.3-1.1-1.8 0-1.9.8-1.9 10.5zm29.4-9.6c-3.3 1.4-5.4 5.1-5.4 9.4 0 4.3 2.2 9.2 4.5 10.1 2.9 1.1 9 .6 11.1-.9 4.7-3.2 5.5-11.7 1.6-16.5-1.9-2.4-8.4-3.5-11.8-2.1zm7.6 4.1c4.6 4.6 1.3 14-4.5 12.6-4.9-1.2-5.7-9.9-1.2-13.1 2.8-1.9 3.3-1.9 5.7.5zm26.4-4.1c-3.3 1.4-5.4 5.1-5.4 9.4 0 4.3 2.2 9.2 4.5 10.1 2.9 1.1 9 .6 11.1-.9 4.7-3.2 5.5-11.7 1.6-16.5-1.9-2.4-8.4-3.5-11.8-2.1zm7.6 4.1c4.6 4.6 1.3 14-4.5 12.6-4.9-1.2-5.7-9.9-1.2-13.1 2.8-1.9 3.3-1.9 5.7.5zm32-4c0 .5 1.6 5.1 3.5 10.2 3.2 8.5 3.3 9.4 1.9 11.5-.8 1.3-2.3 2.3-3.4 2.3s-2 .7-2 1.5c0 1 1.1 1.5 3.5 1.5 4 0 4.2-.2 9.5-14.3 2.1-5.6 4.1-11 4.5-12 .5-1.3.2-1.7-1.3-1.7s-2.5 1.4-4.2 6c-1.2 3.3-2.6 6.2-3 6.5-.3.2-1.7-2.5-2.9-6-1.8-4.9-2.8-6.5-4.2-6.5-1 0-1.9.4-1.9 1zM62.6 32.9c-.6 3.8-.8 4-4.8 4.3-2.3.2-4.3.7-4.5 1.3-.1.5 1.3 2.1 3.2 3.4 4.1 2.8 4.6 4.6 1 3.7-1.4-.4-2.5-.2-2.5.4 0 .5 1.1 1 2.5 1 1.7 0 2.5.6 2.5 1.7 0 1.3-.3 1.4-1.2.5-1.9-1.9-2.8-1.4-1.9 1.2 1.2 3.1-.2 9.1-3 13-1.2 1.7-1.6 2.5-.8 1.8 2-1.8 2.7-1.5 3.4 1.8.5 2.1.2 3.9-.8 5.4-1.1 1.6-1.4 3.6-1 6.5l.6 4.2-8.4-.5c-4.6-.2-12.2.1-16.9.9l-8.5 1.3-3.7-3.6c-3.4-3.3-7.6-5.3-6.2-3.1.3.5.9.7 1.3.5.4-.3 2.3 1 4.1 2.9l3.2 3.3L13 87l-7.1 2.1 1.5 2.4c2.1 3.2 2.1 3.2-1.6 5.1-1.8.9-3.5 1.8-3.7 2-.2.2 1.1 2.2 3 4.6 1.8 2.4 3.4 4.4 3.4 4.6.1.1 4.1-1 8.8-2.5 7.1-2.3 8.6-3.1 8.1-4.5-.7-2.4 4.4-3.2 20.6-3 17.3.2 22.6 1.1 22.3 3.9-.2 1.6.7 2.3 4 3.3 2.3.6 6 2.1 8.2 3.1l4 1.9 1.8-2.2c.9-1.3 2.7-3.5 3.8-5l2-2.7-3.3-1.7c-1.8-.9-3.4-1.8-3.6-1.9-.2-.2.4-1.5 1.3-2.9 1.9-2.9 1.8-3-7.6-5.7-5.3-1.5-7.1-2.7-6.2-4.3.4-.6 0-.5-.9.2-1.2.9-3.1 1.1-6.5.7-7.3-1-7.8-1.3-7.9-4-.2-2.1.2-2.5 1.6-2 1.1.4 2.2 0 2.7-1 .8-1.3 1.5-1.2 5.1 1.5 4.9 3.5 7.4 3.1 11.5-2.1 2.9-3.7 2.7-4.9-.8-4.9-1.3 0-2.7-.5-3.1-1.1-.4-.7.6-1 3.2-.7l3.9.3.1-5.8c.1-4.8-.2-5.7-1.7-5.7-1 0-2.3-.8-2.8-1.8-1-1.6-1-1.6-1.1 0 0 2.7-4.3 1.6-5.1-1.3-.7-2.2-.7-2.2-.8.6-.2 4.3-1.7 1.2-2.4-4.8-.5-4.9-.5-4.9 2.3-4.5 2.1.3 2.7.1 2.3-1-.4-.8-1.5-1.2-2.9-.9-3.4.6-3-.7 1.1-3.4 4.3-3 4-4.3-1.1-4.9-3.5-.4-3.9-.8-4.2-3.5-.5-4.7-1.9-5-2.6-.6zm-1.2 7.8c-.4 1.6-.8 2.9-.9 3-.1.2-1.4-1.1-3-2.7l-2.9-3h3.7c3.6 0 3.7.1 3.1 2.7zm9.3-.2c-3.6 3.2-4.7 3.1-4.7 0 0-2.2.4-2.5 3.8-2.5l3.7.1-2.8 2.4zM65 42.6c0 1.5-.6 2.4-1.5 2.4-1.6 0-1.9-1.7-.9-4.4.9-2.2 2.4-1 2.4 2zm-2.3 8.1c-.3 1-.5.4-.5-1.2 0-1.7.2-2.4.5-1.8.2.7.2 2.1 0 3zm3.2.3c-.2 2.1 0 4.2.4 4.6 1.1 1.1.8 3.6-.3 2.9-.6-.4-.8-1.1-.4-1.6.3-.6-.2-.9-1.2-.7-1.2.2-1.9-.3-1.9-1.2 0-.8.6-1.4 1.4-1.2 1 .2 1.2-.5.7-3.3-.5-2.3-.3-3.5.4-3.5s1 1.5.9 4zM60 52.9c0 1.1-.3 2.2-.7 2.4-.5.3-.8-.6-.8-1.9 0-1.3.3-2.4.8-2.4.4 0 .7.9.7 1.9zm3.5 6.1c.8 0 1.7.4 2 1 .3.6-.4 1-1.7 1-1.8 0-2.4-.6-2.5-2.3 0-1.2.1-1.6.4-1 .3.7 1.1 1.3 1.8 1.3zm11.3 1.7c-1 .2-2.8.2-4 0-1.3-.2-.5-.4 1.7-.4 2.2-.1 3.2.1 2.3.4zM65 63.6c0 .2-.9.4-2 .4s-2-.4-2-.9.9-.7 2-.4c1.1.3 2 .7 2 .9zm10.5.4c.3.5.1 1-.4 1-.6 0-1.1-.5-1.1-1 0-.6.2-1 .4-1 .3 0 .8.4 1.1 1zm4-.1c.3.5.1 1.2-.5 1.6-.5.3-1-.1-1-.9 0-1.8.6-2.1 1.5-.7zm-19.1 4.2c-.3.5-1 .7-1.5.3-.5-.3-.7-1-.3-1.5.3-.5 1-.7 1.5-.3.5.3.7 1 .3 1.5zm3.1 1.9c.3.5-.3 1-1.5 1s-1.8-.5-1.5-1c.3-.6 1-1 1.5-1s1.2.4 1.5 1zM62 72.4c0 .2-.7.9-1.5 1.6-1.3 1.1-1.4 1-.9-.4.5-1.4 2.4-2.3 2.4-1.2zm4.6 1.1c-2.2 1.7-3.6 1.9-3.6.7 0-1.4 1.2-2.2 3.4-2.2 2.1.1 2.1.1.2 1.5zm6.4-.6c0 .6-.4 1.3-1 1.6-.5.3-1-.1-1-.9 0-.9.5-1.6 1-1.6.6 0 1 .4 1 .9zM67 76c0 .5-.4 1-1 1-.5 0-1-.5-1-1 0-.6.5-1 1-1 .6 0 1 .4 1 1zm4 2.1c0 1.1-.4 1.8-1 1.4-.5-.3-.7-1.2-.3-2 .7-2.1 1.3-1.9 1.3.6zm-29.3 9.4c0 .8-.4 1.2-.9.9-.4-.3-.8-.9-.8-1.5 0-.5.4-.9.8-.9.5 0 .9.7.9 1.5zm5.8.2c-.1 1-.8 1.7-1.4 1.5-.6-.1-1.1.8-1.2 2 0 2.2-.1 2.2-.9.3-.6-1.5-.2-2.4 1.4-3.7 2.6-2.2 2.5-2.2 2.1-.1zm-17.3 2.1c-.7.2-1.2.9-1.2 1.6 0 .7-.7 1.3-1.5 1.3-.9 0-1.5-1-1.5-2.3 0-1.6.5-2.2 1.4-1.8.8.3 1.8 0 2.2-.7.6-1 .9-1 1.2.1.3.8 0 1.6-.6 1.8zm21 1.5c-.3 1.2-.7 1.6-1 .9-.2-.7-.8-1-1.3-.6-.5.3-.9 0-.9-.5 0-.6.5-1.1 1.1-1.1.6 0 .8-.7.5-1.6-.5-1.4-.4-1.5.8-.5.8.7 1.2 2.1.8 3.4zm-27.5-1.1c-.3.8-.6.5-.6-.6-.1-1.1.2-1.7.5-1.3.3.3.4 1.2.1 1.9zM36.5 89c-.3.5-1.1 1-1.6 1-.6 0-.7-.5-.4-1 .3-.6 1.1-1 1.6-1 .6 0 .7.4.4 1zm4.5 2.4c0 .3-.7.6-1.5.6-.9 0-1.5-.9-1.5-2.1 0-1.8.2-1.9 1.5-.5.8.8 1.5 1.7 1.5 2zm24.4-.5c-.7.8-3.5-.9-2.9-1.9.4-.6 1.1-.5 2 .3.7.6 1.1 1.4.9 1.6zm-4.4-.4c0 .8.5 1.5 1 1.5.6 0 1 .4 1 1 0 .5-.7.7-1.5.4-.8-.4-1.5-1.2-1.5-2 0-2-1.7-1.7-2.9.3-.7 1.4-1.3 1.5-2.2.6-1.7-1.7-.2-3.3 3.2-3.3 1.9 0 2.9.5 2.9 1.5zM37 92c.3 0-.3.5-1.3 1.1-1.8 1-3.7.5-3.7-1.2 0-.7 1.2-.7 5 .1zm32.8-.3c-1 .2-1.8.9-1.8 1.4 0 .5-.7.9-1.6.9-1.4 0-1.4-.3-.4-1.5.7-.8 2.2-1.4 3.4-1.4 1.7.1 1.7.2.4.6zM39 36.4c0 .2 1.4.6 3 .8 1.7.3 3 .1 3-.4 0-.4-1.3-.8-3-.8-1.6 0-3 .2-3 .4zm96.4 4c-6.4 6.4-3.9 12.1 8.6 19.5 9.3 5.5 10.7 10.5 3.8 13.8-5 2.5-13.8-2.5-13.8-7.8 0-1.1-.4-1.9-1-1.9s-1 2.8-1 6.5c0 5.8 1.2 8.5 2.2 5.4.3-.9 1.7-.9 5.6.1 6.9 1.6 11.5.7 14.6-3.1 2.8-3.2 3.4-8.5 1.6-11.9-.6-1.1-4.3-3.8-8.3-6.1-9.5-5.6-10.7-6.7-10.7-9.9 0-6 7.8-7.5 13-2.5 1.6 1.6 3 3.7 3 4.6 0 1 .5 2.1 1 2.4.6.4 1-1.8 1-5.9 0-5.9-1.1-8.7-2.2-5.4-.3.9-1.2.9-3.8 0-6.1-2.2-9.9-1.5-13.6 2.2zm29 0c-6.4 6.4-3.7 12.5 8.2 19.2 8.6 4.8 10.7 9 6.4 12.9-4.6 4.2-13.2 1.1-15.6-5.6-1.2-3.3-1.2-3.2-1.3 3.6 0 4.3.3 6.5.8 5.6.7-1.1 1.7-1.1 6-.1 6.8 1.6 11.4.7 14.5-3.1 2.9-3.4 3.5-9.3 1.3-12.3-.7-.9-5.1-4.1-9.7-6.9-7.4-4.6-8.5-5.7-8.8-8.3-.4-3.8 1.8-5.8 6.4-5.8 3.8 0 9.4 4.5 9.4 7.5 0 1 .5 2.1 1 2.4.6.4 1-1.9 1-6.1 0-5.7-.2-6.5-1.5-5.4-1.1.9-2.2.9-4.6.1-6-2.1-9.8-1.4-13.5 2.3zM91.7 39c3 1.2 4.1 3.2 11.8 21.3 3.7 8.6 7.1 15.9 7.5 16.2.4.3 3.8-7.1 7.6-16.3 4.1-10.1 7.9-17.8 9.5-19.5l2.7-2.7h-6c-6 0-6 0-3.7 1.8l2.2 1.9-4.7 11.9c-2.6 6.5-5.1 12.2-5.5 12.7-.8.8-11.1-22.2-11.1-24.8 0-.9 1-2 2.3-2.5 1.6-.6-.2-.9-6.3-.9-5.9 0-7.8.3-6.3.9zm97.3-.1c2.5.7 2.5.8 3.1 15.2.7 15.7 1.5 18.3 6.6 21 3.8 2.1 14.3 1.8 17.7-.4 4.5-3 5.6-7.2 5.6-21 0-12.3.6-14.7 3.7-14.7.9 0 1.3 1.5 1.4 4.2 0 3.5.2 3.9.9 2.1 1.3-3.1 5.4-5.5 8.7-5.1l2.8.3v32.9l-2.5 1.3c-2.2 1.1-1.5 1.3 6 1.2 6.8 0 8-.3 5.8-1.1-3.5-1.2-4-3.7-3.6-20.8l.3-13.5 3.2-.3c4.1-.4 7.1 1.2 8.4 4.5 1.4 3.7 2.2 2.1 1.4-2.6l-.7-4.1-22.1.1c-12.2.1-21.1.4-19.7.8 2.5.7 2.5.7 2.8 14.8.2 13.6.2 14.2-2.1 16.9-1.9 2.2-3.4 2.8-7.9 3.2-5.1.4-5.6.2-8.1-2.8-2.7-3.2-2.8-3.3-2.5-16.8.3-13.4.3-13.7 2.8-14.9 2.2-1.1 1.5-1.3-6-1.2-5 .1-7.5.4-6 .8zM28 41.5c-.7.9-1.1 1.7-.9 2 .3.2 1-.5 1.7-1.5 1.4-2.4 1-2.6-.8-.5zm18.8.2c.7.3 1.6.2 1.9-.1.4-.3-.2-.6-1.3-.5-1.1 0-1.4.3-.6.6zM29.5 47c-1.6 1.6-2.7 3.1-2.4 3.3.2.1 1.8-1.2 3.6-3 1.7-1.8 2.8-3.3 2.4-3.3-.4 0-2 1.3-3.6 3zm-6.7 2.7c.6.2 1.8.2 2.5 0 .6-.3.1-.5-1.3-.5-1.4 0-1.9.2-1.2.5zM15 57c-4 .4-4.5.8-4.8 3.2-.3 2.1.1 2.8 1.4 2.8 1.3 0 1.5.6 1 3.1-.7 3.6 1.3 3.7 2.9.1.5-1.2 1.3-2.2 1.7-2.2 1.2 0 .9 2.5-.4 3.8-1.8 1.8-.3 2.5 2.2 1 1.7-1 2-2 1.7-4.4-.4-2.6-.1-3.3 1.9-4.3 2.7-1.2 3.4-3.7.8-2.7-.9.4-2.2.3-2.8-.2-.6-.4-3.1-.5-5.6-.2z"/><path d="M33.6 57.8c-.3.6-1.4.8-2.5.5-1.5-.4-1.9.3-2.5 3.8-.6 3.5-.4 4.6 1 5.6 1.7 1.2 1.7 1.3.1 1.3-2.1 0-2.2 1.4-.1 3.1 1.8 1.4 10.7 1.3 11.2-.2.2-.5 1.5-.9 2.8-.9 3.5 0 3-2.6-.6-3.4-1.8-.3-3.4-1.5-4-2.8-1-2.1-1-2.1-.5.4.5 2.6.3 2.8-2.9 2.8-4 0-4.3-.3-4.8-5-.3-3.1-.1-3.5 2-3.2 1.2.2 2.2-.2 2.2-.8 0-.8.9-1 2.8-.5 3.5.8 4.2 1.6 5.3 5.7.9 3.3.9 3.3.4-.6-.2-2.2-.8-4.3-1.2-4.7-1.4-1.3-8-2.1-8.7-1.1zm-12 10.8c-.4.9-.4 1.9-.1 2.2.7.7 5.5-1.9 5.5-3 0-1.5-4.8-.8-5.4.8zM277 80.5V92h6.8c5.4 0 7.2-.4 8.5-1.8 2.3-2.5 2.1-6.7-.4-9-1.7-1.7-1.8-2-.5-2.5 1-.4 1.6-1.8 1.6-3.6 0-4.2-3.1-6.1-10.2-6.1H277v11.5zm11.4-7.9c1.9 1.8 1.9 2 .6 4.5-.8 1.4-2.1 1.9-5 1.9-3.9 0-4-.1-4-3.3 0-1.9.3-3.7.7-4 1.2-1.3 6.2-.7 7.7.9zm-.3 9.4c2.1 1.2 2.5 5 .7 6.8-.7.7-2.9 1.2-5 1.2-3.7 0-3.8-.1-3.8-3.8 0-2.1.3-4.2.7-4.5 1-1 5.2-.8 7.4.3zm41.9-1.5c0 9.6.3 11.5 1.5 11.5s1.5-1.9 1.5-11.5-.3-11.5-1.5-11.5-1.5 1.9-1.5 11.5zm48-8.7c-2.6 2.6-3 3.8-3 8.2 0 5.5 1.9 10.4 4.5 11.4.9.3 3.4.6 5.5.6 3 0 4.3-.6 5.9-2.6 2.7-3.5 3.6-8.8 2.2-13.4-1.4-4.7-3-6-8-6.7-3.5-.5-4.4-.2-7.1 2.5zm9.5 1.7c6.4 6.3 0 20.9-6.5 15-4.9-4.5-2.5-17.2 3.3-17.5.4 0 1.9 1.1 3.2 2.5zm21.5-1c0 3.3-.1 3.4-2.9 2.9-4-.8-6.8 1-8 5.1-1.1 3.9-.5 7.2 1.7 9.7 1.1 1.4 2.9 1.7 7.3 1.6l5.9-.2V80.3c0-10.6-.1-11.3-2-11.3-1.6 0-2 .7-2 3.5zm-1.8 6.2c2.1 1.9 2.5 8.2.6 10.1-4.5 4.5-9.2-3.9-5.2-9.6 1.8-2.6 2.2-2.7 4.6-.5zM418 70c0 .5.7 1 1.5 1s1.5-.5 1.5-1c0-.6-.7-1-1.5-1s-1.5.4-1.5 1zm25 10.5c0 9.6.3 11.5 1.5 11.5s1.5-1.3 1.5-5.5.5-6 2.1-7.6c3.2-3.2 4.9-1 4.9 6.7 0 5.7.2 6.4 2 6.4s2-.7 2-5.4c0-3-.4-6.6-1-8-1.1-3-4.9-4.2-7.9-2.6-2 1-2.1.8-2.1-3 0-2.9-.4-4-1.5-4-1.2 0-1.5 1.9-1.5 11.5zM83.1 71.6c0 1.1.3 1.4.6.6.3-.7.2-1.6-.1-1.9-.3-.4-.6.2-.5 1.3zm-58.5 1.3c-.3.4.7 1.9 2.2 3.2l2.7 2.4-2.3-2.6c-1.2-1.4-1.9-2.9-1.5-3.2.3-.4.4-.7 0-.7-.3 0-.8.4-1.1.9zm6.3 3.8c-1.2 1.6-1.2 1.7.2.5.9-.7 2.5-1 3.5-.6 1.6.5 1.6.4.4-.5-2-1.5-2.5-1.4-4.1.6zM298 82.4c0 4.9.4 7.7 1.3 8.5.7.6 3.9 1 7 .9l5.7-.2v-8.3c0-7.6-.2-8.3-2-8.3s-2 .7-2 6.4c0 7.1-1.7 9.9-4.8 7.9-1.3-.7-1.8-2.8-2-7.7-.2-5-.6-6.6-1.7-6.6-1.2 0-1.5 1.6-1.5 7.4zm20 1.3c0 6.7.3 8.3 1.5 8.3s1.5-1.3 1.5-6c0-5.7.2-6.2 3-7.8 4.1-2.3 3.8-3-1.5-3l-4.5.1v8.4zm21.9-6.8c-3.2 2.6-1.6 3.9 2.1 1.8 2.3-1.4 3.4-1.5 5-.7 3.1 1.6 2.5 4-.9 4-6.8 0-10.4 3.6-8.1 8 .9 1.7 2 2 7.5 1.9l6.5-.2v-6.8c0-4.8-.5-7.2-1.6-8.3-2.1-2.2-7.7-2-10.5.3zm9.1 8.5c0 2.1-2.8 4.6-5.1 4.6-2.8 0-3.6-3-1.4-4.6 2.5-1.8 6.5-1.8 6.5 0zm69-1.9c0 6.9.3 8.5 1.5 8.5s1.5-1.6 1.5-8.5-.3-8.5-1.5-8.5-1.5 1.6-1.5 8.5zm9.2-6.9c-2.4 1.7-2.9 4.6-.9 6.2.6.5 3.1 1.5 5.5 2.2 3.2.8 4.2 1.6 4 2.8-.4 2.2-5.1 2.7-7.1.8-1.9-1.9-3.7-2.1-3.7-.3 0 2.5 2.4 3.7 7.2 3.7 3.9 0 5-.4 6.3-2.4 2.4-3.6.6-6.3-4.7-7.3-2.7-.5-4.4-1.5-4.6-2.5-.4-2.3 2.8-3.1 4.9-1.2.9.9 2.6 1.4 3.6 1.2 1.6-.3 1.6-.5-.5-2.6-2.6-2.6-6.8-2.9-10-.6zm36.7.3c-3.2 2.6-1.6 3.9 2.1 1.8 2.3-1.4 3.4-1.5 5-.7 3.1 1.6 2.5 4-.9 4-6.8 0-10.4 3.6-8.1 8 .9 1.7 2 2 7.5 1.9l6.5-.2v-6.8c0-4.8-.5-7.2-1.6-8.3-2.1-2.2-7.7-2-10.5.3zm9.1 8.5c0 2.1-2.8 4.6-5.1 4.6-2.8 0-3.6-3-1.4-4.6 2.5-1.8 6.5-1.8 6.5 0zM45.5 77.7c-3.1.7-4 2.1-1.1 1.6 1.5-.3 2.9-.9 3.2-1.4.3-.5.4-.8.2-.8-.2.1-1.2.3-2.3.6zm31.4 4c-1.3 1.6-1.2 1.7.4.4 1.6-1.3 2.1-2.1 1.3-2.1-.2 0-1 .8-1.7 1.7zM358 92.5c0 2.7.9 3.2 2.8 1.3 1.8-1.8 1.4-3.8-.8-3.8-1.5 0-2 .7-2 2.5z"/></svg>