<svg xmlns="http://www.w3.org/2000/svg" role="img" viewBox="-51.65 -51.65 2685.80 1013.30"><title>VeriSilicon, Inc. (member) logo</title><path fill="#FFFFFE" d="M2584 680v232c-600.36609 0-1200.73218 0-1801.5445-.35144 48.82752-31.6903 89.7541-71.87189 123.89966-118.97711 58.31513-80.44818 87.67462-170.99012 92.30109-269.81757 1.65363-35.32178.0644-70.53567-5.53137-105.5567-7.82532-48.97485-22.60022-95.67804-44.87604-139.95483-29.57074-58.77655-69.53235-109.51404-119.70563-152.02887C744.99896 54.5215 648.71021 13.5394 539.61725 2.90164 534.39929 2.39284 529.2052 1.63948 524 1h2060c0 168.69926 0 337.39874-.26025 506.25635-.78174-2.78818-1.16114-5.76804-1.84913-8.67484-2.69238-11.37048-5.59277-22.7959-13.739-31.6683-17.5586-19.12335-39.97096-27.2323-65.4424-26.53955-27.97485.76083-52.37939 11.34607-73.71313 29.26483-.94995.79782-2.00805 1.46637-3.75634 2.73065v-24.12561h-74.26221v231.45252h74.31567c0-1.79377-.00366-3.27356.0005-4.7533.14525-50.14996.28905-100.29993.44237-150.4499.0061-1.99834.29322-4.01519.10474-5.99053-.31226-3.27515 1.14331-5.08087 3.90894-6.725 16.27221-9.6736 33.65844-12.9427 52.30517-9.7404 16.05762 2.75764 21.48828 7.77558 25.11328 23.9972 1.00855 4.51337 1.73487 9.19873 1.75098 13.80798.15576 44.65943.13208 89.3194.15967 133.97925.00122 1.94336 0 3.88678 0 6.17865H2584m-1266.68799-57.2174c2.75513-8.68513 6.51367-17.19465 8.07117-26.08948 4.12036-23.53516 1.04565-45.85517-14.72669-65.00513-11.20886-13.60938-26.02002-22.0926-42.07617-28.65521-23.43396-9.57813-48.3407-13.21378-72.94702-18.08423-12.70935-2.51563-25.54163-4.77823-36.86938-11.66861-13.32642-8.10608-15.69031-23.6533-4.71192-34.70609 4.23047-4.2591 9.53797-8.77227 15.09326-10.11575 11.54236-2.79138 23.5979-5.01474 35.40699-4.85413 34.3247.46677 65.6217 11.50012 93.92822 30.76352 5.20654 3.54322 10.66345 3.74332 16.82031 4.51248 0-2.09365-.00012-3.72296-.00012-5.35223v-52.49997c0-13.89703.0326-13.98413-13.25452-18.94388-18.35571-6.85174-37.51611-10.06271-56.88342-12.32168-27.0111-3.15055-54.01758-5.32282-81.10022-.74161-28.24438 4.77768-53.91309 15.0668-73.85815 36.35727-22.03614 23.52264-32.05335 51.092-22.83643 82.9931 8.03723 27.8186 27.5813 46.46112 54.05383 56.29553 21.70923 8.06488 44.58216 13.00055 66.9463 19.29853 14.05187 3.95715 28.46642 6.93738 42.0802 12.05383 14.53466 5.4627 18.27807 23.93695 8.43554 35.93195-9.271 11.29827-22.104 14.86016-35.8435 16.05468-18.92518 1.64514-37.49244-1.14966-55.9596-5.0172-26.23108-5.49366-50.83093-14.62916-71.33435-32.50837-3.97522-3.46643-7.82007-3.48212-12.67212-2.81226 0 1.88343-.00037 3.51813-.00012 5.15284.00293 20.99993.27697 42.00567-.16736 62.99615-.12256 5.79077 1.85461 8.08105 7.0288 9.74158 28.09095 9.01501 56.48646 16.49853 86.04322 18.71716 28.87244 2.16736 57.63428 1.61585 85.86682-5.39581 32.56482-8.08753 58.90808-25.0014 75.46643-56.09699m975.95361-99.5636c-10.04858-35.46371-31.12695-61.20562-66.61083-73.19897-31.36304-10.60059-63.65479-12.60556-95.93628-5.03745-43.11695 10.10828-71.13501 36.7092-82.36622 79.88193-6.08874 23.40485-5.16577 47.0752-1.40588 70.84589 6.39246 40.41272 28.7887 67.72583 66.96546 81.471 34.6621 12.47974 70.57177 12.98817 105.5791 3.11481 30.18384-8.51294 53.99438-26.8781 66.5105-57.2511 13.28393-32.23657 16.30957-65.18804 7.26415-99.8261m-281.26 120.281v-38.98987c-7.09559-1.74463-12.0558.33435-16.98987 5.03205-5.48743 5.22448-11.72327 10.09814-18.45581 13.49347-16.5459 8.34466-34.44703 10.57964-52.85047 9.37371-20.031-1.31237-33.52331-11.86053-42.76733-29.1737-10.41272-19.50226-11.7262-39.87409-7.1825-61.04609 6.55799-30.5581 30.34485-49.71673 61.6825-48.09695 22.66919 1.17172 43.33496 8.78299 59.86682 25.08743 4.61865 4.55494 9.51538 5.2721 15.69434 4.12451 0-1.72991-.00013-3.36407.00012-4.99823.00232-17.9992-.17383-36.00158.14184-53.9953.07227-4.116-1.44458-5.77215-4.8656-7.26977-42.75769-18.71771-86.58984-20.85938-131.21753-8.20541-36.7666 10.42501-61.2307 34.42382-74.43054 69.96524-8.24939 22.21215-8.61474 45.20855-5.60669 68.45776 4.34192 33.55872 20.45642 59.67554 48.88611 78.07501 19.66064 12.7243 41.75757 17.42908 64.66711 19.84674 34.87598 3.68048 68.36243-.4195 100.10352-16.0667 2.4646-1.21491 3.4967-2.31812 3.39832-5.11732-.2284-6.4917-.07386-12.99689-.07434-20.49658m-471.50538-285.5037h-19.5155v321.76066h75.09778V357.9963h-55.58228M1716.5 447.9937h-50.15503V680.0857h74.69678V447.99371H1716.5m-265.20276 164.50635V448.28824h-74.28357v232.41379h74.2837c0-22.59827 0-44.90009-.00013-68.20197m-71.67078-254.50815h-5.22448v56.43967h78.70544V357.992c-24.2909 0-48.40076 0-73.48095-.00009m293.89709.0032h-9.66345v55.72279h79.75464v-55.72278h-70.09119z"/><path fill="#9B2924" d="M523.53137 1c5.67383.63948 10.86792 1.39284 16.08588 1.90164C648.7102 13.53941 744.99896 54.52152 828.5432 125.31348c50.17328 42.51483 90.1349 93.25232 119.70563 152.02887 22.27582 44.2768 37.05072 90.97998 44.87604 139.95483 5.59576 35.02103 7.185 70.23492 5.53137 105.5567-4.62647 98.82745-33.98596 189.36939-92.30109 269.81757-34.14556 47.10522-75.07214 87.2868-124.35052 118.97711-189.35889.35144-378.7131.35144-568.5834.01209-27.65913-20.6759-52.13898-43.88141-74.56817-69.27375C60.907 754.14356 13.46085 652.42377 2.85117 534.43066 2.44692 529.93463 1.6265 525.47601 1 521c0-21.0209 0-42.04178.38456-63.71191 1.74808-12.70588 2.79791-24.80768 4.5286-36.81134 8.15454-56.5585 26.49288-109.74405 54.54327-159.4354C114.48436 165.33075 191.7562 94.35702 290.83 47.17428 341.68619 22.95462 395.2542 8.01054 451.45554 2.8659 455.98932 2.45088 460.48605 1.63149 465 1h58.53137m-304.4319 469.39194c-17.64297-42.7027-35.32803-85.38816-52.84556-128.14225-1.33768-3.26477-2.8647-4.45425-6.4522-4.42703-23.16093.17557-46.32388.08487-69.48614.10358-1.4072.00113-2.81424.19171-4.7121.32986 2.97333 7.3841 5.73341 14.2854 8.52828 21.17258 48.55628 119.65299 97.14451 239.29312 145.55244 359.00607 1.57025 3.88312 3.46374 4.8108 7.26245 4.73273 10.82668-.22247 21.73442-.85443 32.47014.15924 9.43707.89111 13.78027-2.64612 17.76748-10.99316 36.04877-75.46723 72.5568-150.71533 108.99921-225.99424 43.10163-89.03472 86.27469-178.03485 129.40747-267.0545 4.1817-8.6305 8.29791-17.29272 12.51544-26.08806-.96917-.21663-1.44305-.41473-1.91717-.4153-20.99573-.02499-41.99219-.10707-62.98563.105-1.60867.01623-3.80057 1.76878-4.70746 3.31062-67.7327 115.15872-135.36227 230.37809-203.00305 345.59088-5.10388 8.69342-10.2298 17.3739-15.75863 26.76203-13.69326-33.0716-27.02062-65.2594-40.63497-98.15805m384.0881 207.36618c8.38262-2.67462 16.74633-5.41095 25.15838-7.9895 2.8391-.87024 3.78259-2.43055 3.72308-5.42774-.19525-9.82751-.07239-19.66131-.07214-29.49273.00024-8.7541.00006-17.50818.00006-26.70838-.97156.52387-1.4143.67468-1.74823.95508-25.44818 21.37079-54.95844 30.45831-87.90473 28.74188-13.44122-.70032-26.37896-3.6908-37.86752-11.15332-15.56808-10.11243-23.45785-24.7779-25.53592-43.54529H636.336c.25976-1.73419.57812-3.01428.62555-4.30438.58887-16.0064.14398-31.9298-2.888-47.74377-5.86939-30.61338-22.57361-52.38126-51.69458-64.2012-30.69635-12.45945-62.00604-14.54578-93.70856-4.6023-26.01752 8.1604-48.00885 22.27603-62.27866 46.26474-17.00326 28.58386-21.67245 59.37988-14.78427 91.82947 5.36463 25.2724 16.73157 46.78149 39.23822 61.27295 25.60822 16.48846 53.6391 24.54687 83.94501 25.03222 22.94428.3675 45.43146-2.99444 68.39685-8.92773M736.08728 651.5c0-36.64624.0606-73.29279-.09106-109.93842-.01575-3.7887 1.22052-5.49536 4.67791-6.89404 16.08942-6.50879 32.8039-8.37848 49.92475-7.05487 10.71734.82855 21.39117 2.2196 32.48443 3.40082 0-21.26663.0572-42.5586-.16406-63.84766-.01141-1.0989-2.37842-3.08438-3.69421-3.12344-24.00257-.7127-47.22998 2.07294-67.35901 16.79663-5.54828 4.05841-10.67078 8.69894-16.66998 13.63269v-29.21963h-68.50147V677.8551h69.3927V651.5m128.41284 27.58673h47.26367v-214.7992h-68.51355V679.0868c6.97114 0 13.61054 0 21.24988-.00006m50.18714-250.06055v-48.7489h-74.32581v51.42774c24.16937 0 47.97357.01812 71.77734-.0751.83765-.00327 1.67096-1.11304 2.54847-2.60374z"/><path fill="#FFFEFD" d="M464.53134 1c-4.04529.63149-8.54202 1.45088-13.0758 1.8659-56.20133 5.14464-109.76935 20.08872-160.62555 44.30838-99.0738 47.18274-176.34563 118.15647-230.37356 213.86707-28.05039 49.69135-46.38873 102.8769-54.54328 159.4354-1.73067 12.00366-2.7805 24.10546-4.52859 36.34265C1 305.07227 1 153.14456 1 1h463.53134z"/><path fill="#9B2A24" d="M2584 679.53137C2559.20435 680 2534.40845 680 2509.07886 680c0-2.29187.00122-4.2353 0-6.17865-.02759-44.65985-.0039-89.31982-.15967-133.97925-.01611-4.60925-.74243-9.29461-1.75098-13.80798-3.625-16.22162-9.05566-21.23956-25.11328-23.9972-18.64673-3.2023-36.03296.0668-52.30517 9.7404-2.76563 1.64413-4.2212 3.44985-3.90894 6.725.18848 1.97534-.09863 3.99219-.10474 5.99054-.15332 50.14996-.29712 100.29993-.44238 150.44989-.00415 1.47974-.00049 2.95953-.00049 4.7533h-74.31567V448.24353h74.2622v24.12561c1.7483-1.26428 2.8064-1.93283 3.75635-2.73065 21.33374-17.91876 45.73828-28.504 73.71314-29.26483 25.47143-.69275 47.88379 7.4162 65.44238 26.53955 8.14624 8.8724 11.04663 20.29782 13.73902 31.6683.68798 2.9068 1.06738 5.88666 1.84912 9.12574C2584 565.02086 2584 622.0418 2584 679.53137z"/><path fill="#FFFEFD" d="M1 521.46863c.6265 4.00738 1.4469 8.466 1.85118 12.96203 10.60967 117.9931 58.05581 219.7129 136.0019 307.95624 22.42918 25.39234 46.90903 48.59784 74.0995 69.27375C142.38463 912 71.76926 912 1 912V521.46863z"/><path fill="#9B2A25" d="M1317.15002 623.12018c-16.39636 30.758-42.73962 47.67187-75.30444 55.7594-28.23254 7.01166-56.99438 7.56317-85.86682 5.39581-29.55676-2.21863-57.95227-9.70215-86.04321-18.71716-5.1742-1.66053-7.15137-3.9508-7.02881-9.74158.44433-20.99048.17029-41.99622.16736-62.99615-.00025-1.6347.00012-3.26941.00012-5.15284 4.85205-.66986 8.6969-.65417 12.67212 2.81226 20.50342 17.87921 45.10327 27.0147 71.33435 32.50836 18.46716 3.86755 37.03442 6.66235 55.9596 5.01721 13.7395-1.19452 26.5725-4.7564 35.8435-16.05468 9.84253-11.995 6.09912-30.46924-8.43555-35.93195-13.61377-5.11645-28.02832-8.09668-42.0802-12.05383-22.36413-6.29798-45.23706-11.23365-66.94629-19.29853-26.47253-9.8344-46.0166-28.47693-54.05383-56.29553-9.21692-31.9011.8003-59.47046 22.83643-82.9931 19.94506-21.29047 45.61377-31.5796 73.85815-36.35727 27.08264-4.5812 54.08911-2.40894 81.10022.7416 19.3673 2.25898 38.52771 5.46995 56.88342 12.3217 13.28711 4.95974 13.25452 5.04684 13.25452 18.94387v52.49997c0 1.62927.00012 3.25858.00012 5.35223-6.15686-.76916-11.61377-.96926-16.82031-4.51248-28.30652-19.2634-59.60352-30.29675-93.92822-30.76352-11.80909-.16061-23.86463 2.06275-35.40699 4.85413-5.5553 1.34348-10.86279 5.85666-15.09326 10.11575-10.9784 11.0528-8.6145 26.6 4.71192 34.70609 11.32775 6.89038 24.16003 9.15298 36.86938 11.6686 24.60632 4.87046 49.51306 8.50611 72.94702 18.08424 16.05615 6.56262 30.86731 15.04583 42.07617 28.6552 15.77234 19.14997 18.84705 41.46998 14.72669 65.00513-1.5575 8.89484-5.31604 17.40436-8.23316 26.42707zm976.27283-99.52509c8.88819 34.26197 5.86255 67.21344-7.42139 99.45002-12.5161 30.37298-36.32665 48.73815-66.5105 57.2511-35.00732 9.87335-70.91699 9.36492-105.5791-3.11481-38.17675-13.74518-60.573-41.0583-66.96545-81.47101-3.75989-23.7707-4.68286-47.44104 1.40589-70.84589 11.2312-43.17273 39.24926-69.77365 82.3662-79.88193 32.2815-7.56811 64.57325-5.56314 95.93629 5.03745 35.48388 11.99335 56.56225 37.73526 66.76806 73.57507m-90.86401 100.47895c6.66015-6.59845 11.19238-14.50592 13.39062-23.5431 5.43994-22.3667 4.53785-44.8714.5608-67.3266-5.74244-32.42309-26.3672-41.87988-54.3235-40.13607-16.91772 1.05527-30.45483 13.45193-36.0454 32.6702-5.7041 19.60809-6.42359 39.63446-3.64698 59.79986 1.55787 11.31299 4.85328 22.11816 11.12574 31.73962 13.35888 20.49128 48.24023 24.12934 68.93872 6.79609zM2012.0056 644c.0005 6.9997-.15405 13.50488.07435 19.99658.09839 2.7992-.93372 3.9024-3.39832 5.11731-31.74109 15.64722-65.22754 19.7472-100.10352 16.06671-22.90954-2.41766-45.00646-7.12243-64.6671-19.84674-28.4297-18.39947-44.5442-44.5163-48.88612-78.07501-3.00805-23.2492-2.6427-46.2456 5.6067-68.45776 13.19982-35.54142 37.66393-59.54023 74.43053-69.96524 44.62769-12.65396 88.45984-10.5123 131.21753 8.20541 3.42102 1.49762 4.93787 3.15378 4.8656 7.26977-.31567 17.99372-.13952 35.9961-.14184 53.9953-.00025 1.63416-.00012 3.26832-.00012 4.99824-6.17896 1.14758-11.07569.43042-15.69434-4.12452-16.53186-16.30444-37.19763-23.9157-59.86682-25.08743-31.33765-1.61978-55.12451 17.53885-61.6825 48.09695-4.5437 21.172-3.23022 41.54383 7.1825 61.04609 9.24402 17.31317 22.73633 27.86132 42.76733 29.1737 18.40344 1.20593 36.30457-1.02905 52.85047-9.37371 6.73254-3.39533 12.96838-8.26899 18.4558-13.49347 4.93409-4.6977 9.8943-6.77668 16.98987-5.03205V644z"/><path fill="#9B2924" d="M1541.00012 357.9963h55.0824v321.76066h-75.09778V357.9963h20.01538z"/><path fill="#9B2A24" d="M1717 447.99371h24.04175V680.0857h-74.69678V447.99371H1717z"/><path fill="#9B2924" d="M1451.29736 613.00012v67.7019h-74.28369V448.28825h74.28357c0 54.75659 0 109.48422.00012 164.71188z"/><path fill="#9C2B25" d="M1380.11157 357.99194c24.5951.00006 48.70496.00006 72.99585.00006v56.43958h-78.70544v-56.43967c1.70654 0 3.46545 0 5.7096.00003z"/><path fill="#9B2A24" d="M1674.01965 357.99512h69.5951v55.72278h-79.75464v-55.72278h10.15954z"/><path fill="#FFFEFD" d="M219.24298 470.74737c13.47084 32.54322 26.7982 64.73102 40.49146 97.80262 5.52884-9.38812 10.65475-18.0686 15.75863-26.76203 67.64078-115.2128 135.27036-230.43216 203.00305-345.59088.9069-1.54184 3.09879-3.29439 4.70746-3.31062 20.99344-.21207 41.9899-.12999 62.98563-.105.47412.00057.948.19867 1.91717.4153-4.21752 8.79534-8.33374 17.45757-12.51544 26.08806-43.13278 89.01965-86.30585 178.01978-129.40747 267.0545-36.44241 75.2789-72.95044 150.52701-108.9992 225.99424-3.98722 8.34704-8.33042 11.88427-17.7675 10.99316-10.7357-1.01367-21.64345-.38171-32.47013-.15924-3.7987.07806-5.6922-.8496-7.26245-4.73273-48.40793-119.71295-96.99616-239.35309-145.55244-359.00607-2.79487-6.88718-5.55495-13.78848-8.52829-21.17258 1.89787-.13815 3.30491-.32873 4.7121-.32986 23.16227-.0187 46.32522.07199 69.48615-.10358 3.5875-.02722 5.11452 1.16226 6.4522 4.42703 17.51753 42.7541 35.20259 85.43955 52.98907 128.49768z"/><path fill="#FEFEFC" d="M602.78809 677.85175c-22.56592 5.83966-45.0531 9.2016-67.99738 8.8341-30.3059-.48535-58.3368-8.54376-83.945-25.03222-22.50666-14.49146-33.8736-36.00055-39.23823-61.27295-6.88818-32.44959-2.219-63.2456 14.78427-91.82947 14.26981-23.98871 36.26114-38.10434 62.27866-46.26474 31.70252-9.94348 63.0122-7.85715 93.70856 4.6023 29.12097 11.81994 45.8252 33.58782 51.69458 64.2012 3.03198 15.81396 3.47687 31.73736 2.888 47.74377-.04743 1.2901-.36579 2.5702-.62555 4.30438H478.94055c2.07807 18.7674 9.96784 33.43286 25.53592 43.5453 11.48856 7.46252 24.4263 10.453 37.86752 11.15331 32.9463 1.71643 62.45655-7.3711 87.90473-28.74188.33392-.2804.77667-.43121 1.74823-.95508 0 9.2002.00018 17.95429-.00006 26.70838-.00025 9.83141-.12311 19.66522.07214 29.49273.05951 2.9972-.88397 4.5575-3.72308 5.42774-8.41205 2.57855-16.77576 5.31488-25.55786 8.08313m-48.2989-134.56238h13.75971c-.25378-21.94983-10.48505-36.44687-28.89636-40.8432-11.53912-2.75537-23.14722-2.24933-34.38767 1.75387-15.97161 5.68814-26.87844 22.2839-25.65243 39.08945 24.70407 0 49.44214 0 75.17676-.00012z"/><path fill="#FFFEFD" d="M736.08728 652v25.8551h-69.3927V465.25207h68.50147v29.21964c5.9992-4.93375 11.1217-9.57428 16.66998-13.63269 20.12903-14.7237 43.35644-17.50934 67.359-16.79663 1.3158.03906 3.6828 2.02454 3.69422 3.12344.22125 21.28906.16406 42.58103.16406 63.84766-11.09326-1.18122-21.76709-2.57227-32.48443-3.40082-17.12085-1.3236-33.83533.54608-49.92475 7.05487-3.4574 1.39868-4.69366 3.10535-4.67791 6.89404.15167 36.64563.09106 73.29218.09106 110.43842z"/><path fill="#FFFFFD" d="M864.00012 679.0868h-20.74988V464.28753h68.51355v214.7992c-15.76495 0-31.51434 0-47.76367.00005z"/><path fill="#FEFCFA" d="M914.66614 429.47449c-.85639 1.04239-1.6897 2.15216-2.52735 2.15542-23.80377.09323-47.60797.0751-71.77734.0751v-51.42773h74.3258c0 16.21271 0 32.4808-.02111 49.1972z"/><path fill="#FEFEFC" d="M2202.2998 624.3227c-20.43945 17.08459-55.3208 13.44653-68.67968-7.04475-6.27246-9.62146-9.56787-20.42663-11.12574-31.73962-2.7766-20.1654-2.05712-40.19177 3.64698-59.79987 5.59057-19.21826 19.12768-31.61493 36.0454-32.6702 27.9563-1.7438 48.58106 7.71299 54.3235 40.13609 3.97705 22.4552 4.87914 44.9599-.5608 67.3266-2.19824 9.03717-6.73047 16.94464-13.64965 23.79174z"/><path fill="#9C2B25" d="M553.9909 543.28943c-25.23632.00006-49.97439.00006-74.67846.00006-1.22601-16.80554 9.68082-33.4013 25.65243-39.08945 11.24045-4.0032 22.84855-4.50924 34.38767-1.75387 18.41132 4.39633 28.64258 18.89337 28.89636 40.8432-4.57855 0-9.16913 0-14.258.00006z"/></svg>