<svg xmlns="http://www.w3.org/2000/svg" role="img" viewBox="9.23 -3.27 365.30 136.05"><title>von Braun Center for Advanced Research (member) logo</title><defs><style>.cls-1{fill:#37275d}.cls-2{fill:#db1f1a}</style></defs><path d="M43.11 61c-2.55-4.69-5-9.43-7.12-14.34a1.22 1.22 0 0 0-1.45-.85 5.15 5.15 0 0 1-3.46-.92 8.12 8.12 0 0 1 .93-.16c4.92-.28 7.37-2.75 7.54-7.63a11 11 0 0 1 .17-1.1c1.83 3.16 1.37 5.67-1.7 8.91a131.13 131.13 0 0 0 6.42 12.86A9.8 9.8 0 0 0 46 60.6a49.66 49.66 0 0 0 3.55 6.19 130 130 0 0 0 10.91 15.63 9.58 9.58 0 0 0 1.82 2.35 81.61 81.61 0 0 0 12.19 12.6 27.66 27.66 0 0 0 8.27 5c4.14 1.46 6.83-.22 7.54-4.57a30.08 30.08 0 0 0-.56-10.94C87 73.51 81.36 61.3 74.81 49.45a21.77 21.77 0 0 1 .61-4.27C81.31 55.5 86.51 66.13 90 77.52c1.81 5.87 3.25 11.8 3.1 18a15.12 15.12 0 0 1-1.11 5.6c-1.68 4-5.54 5.37-10 3.77a34.13 34.13 0 0 1-10.47-6.61 114.15 114.15 0 0 1-10.68-11 9.89 9.89 0 0 0-1.84-2.2c-3.84-5.1-7.59-10.26-10.94-15.7-1.14-1.86-2.26-3.72-3.39-5.59z" class="cls-1"/><path d="M62.28 84.76a9.58 9.58 0 0 1-1.82-2.35 108.17 108.17 0 0 0 13.21-55.17 12.67 12.67 0 0 0-.36-3.69A106.07 106.07 0 0 0 46 60.6a9.79 9.79 0 0 1-1.59-2.87A134.63 134.63 0 0 1 54 41.19c2.61-3.77 5.56-7.27 8.48-10.79l1.84-2c3.57-3.51 7.23-6.91 11.26-10.21a115.73 115.73 0 0 1-.19 27 21.76 21.76 0 0 0-.61 4.27c-1 4.12-1.84 8.29-3.05 12.36a132.53 132.53 0 0 1-9.45 22.94z" class="cls-2"/><path d="M104.18 45.73c-.92 2.65-1.87 5.28-2.74 7.95a1.34 1.34 0 0 1-1.57 1.14c-1.53-.09-3.07 0-4.68 0l-4.24-15.26h5.61l2 8.32c.95-2.72 1.76-4.95 2.49-7.21.28-.87.63-1.33 1.65-1.26 1.43.1 2.87 0 4.37 0l2.77 7.82h.34l1.91-7.78h5.61l-4.21 15.29c-1.75 0-3.4-.06-5 0-.93 0-1-.6-1.21-1.17-.93-2.64-1.83-5.29-2.75-7.93z" class="cls-1"/><path d="M43.11 61l1.58 2.82a110.08 110.08 0 0 0-6.6 21.45 96.31 96.31 0 0 0-2 22.6l-19.82 3.5c2.45-6.13 4.64-12.14 8-17.64a29.45 29.45 0 0 1 6.07-7.57 12.89 12.89 0 0 1 4.52-2.62A1.72 1.72 0 0 0 36.19 82a108.79 108.79 0 0 1 6.92-21zM35 86.24C26.82 91.15 24 99.69 20.31 108l13.21-2.32A119.78 119.78 0 0 1 35 86.24z" class="cls-2"/><path d="M298.91 46.59c.32.15.5.26.7.33 2.22.89 3.06 2 2.92 3.83a4.22 4.22 0 0 1-3.68 3.65c-4.6.79-9.23.19-13.94.43V39.42c4.44.15 8.85-.31 13.24.3a4 4 0 0 1 3.5 3.28c.2 1.45-.65 2.58-2.74 3.59zm-8 4.91a22.85 22.85 0 0 0 4.15-.14c.78-.15 1.47-.51 1.48-1.41s-.67-1.25-1.47-1.38a16 16 0 0 0-4.16-.08zm0-6.08c1.2 0 2.31.06 3.41 0 .78-.06 1.45-.43 1.44-1.38a1.25 1.25 0 0 0-1.34-1.29c-1.14-.08-2.3 0-3.51 0z" class="cls-1"/><path d="M59 85.08a9.89 9.89 0 0 1 1.8 2.23c-.87 1.4-1.73 2.8-2.61 4.2a1.13 1.13 0 0 0-.16 1.3c1.82 3.4 1.87 7.08 1.33 10.75-1.15 7.88-4.47 15-7.69 22.45l-11.48-16.44A101.9 101.9 0 0 0 59 85.08zm-7.9 35.6a64.07 64.07 0 0 0 3.09-7.5c1.67-4.84 3.19-9.71 2.77-14.94a7.83 7.83 0 0 0-.91-3.43 105.06 105.06 0 0 1-12.52 15.1z" class="cls-2"/><path d="M64.35 28.41l-1.84 2C57.3 23.22 51.61 16.47 44.59 11a21.72 21.72 0 0 0-7.21-4c-3.73-1.1-6.12.25-7 4.06a24.26 24.26 0 0 0-.12 8.58 78.42 78.42 0 0 0 3.14 13.28l-2.35 1a66.39 66.39 0 0 1-3.72-17.56 18.12 18.12 0 0 1 .75-6.78c1.55-4.71 5-6.55 9.83-5.18a24.69 24.69 0 0 1 8.46 4.65c6.56 5.19 12 11.47 17 18.09zm107.81 11.12v5.4a10.1 10.1 0 0 1 4.72-1.46c3.14.05 4.63 1.37 4.73 4.51.07 2.22 0 4.45 0 6.75h-5.38V49.5c0-1.27 0-2.56-1.77-2.65-1.42-.07-2.18.82-2.24 2.68v5.18H167V39.53zM335 43.74h5.38v6.14c0 .86.29 1.58 1.3 1.72a2.07 2.07 0 0 0 2.25-.84 3.6 3.6 0 0 0 .4-2v-5h5.26V54.7h-4.86l-.14-1.53a7.22 7.22 0 0 1-5.65 1.83c-2.46-.19-3.86-1.5-3.94-3.94s0-4.74 0-7.32zm-8.55 3.51a2.27 2.27 0 0 0-3.48-.84c-1.18 1.15-2.3.73-3.51.66l-2.46-.15a3.49 3.49 0 0 1 3-3 19.66 19.66 0 0 1 8.55-.06c2.23.47 3.17 1.78 3.27 4.08s-.34 4.47.48 6.87c-1.91-.31-3.91.75-5.75-1a8.86 8.86 0 0 1-5.67 1.19 8.15 8.15 0 0 1-2.18-.42 2.92 2.92 0 0 1-2.21-2.8 2.73 2.73 0 0 1 2.27-2.73c1.74-.47 3.54-.71 5.31-1.08a5.88 5.88 0 0 0 2.38-.72zm0 2.33c-1.35.36-2.57.67-3.77 1a1 1 0 0 0-.78 1.05c.05.57.46.76 1 .9 1.96.57 3.57-.67 3.55-2.95zm-68.73-5.81h4.85l.23 1.53a7 7 0 0 1 5.72-1.8 3.75 3.75 0 0 1 3.79 3.91c.06 2.39 0 4.78 0 7.27h-5.38V48.9c0-1.17-.37-2-1.66-2.07a1.93 1.93 0 0 0-2.23 2c-.06 1.91 0 3.82 0 5.86h-5.33zM367.5 54.75h-5.3v-5.38c0-1.25-.11-2.42-1.72-2.54-1.38-.1-2.18.73-2.26 2.48s0 3.5 0 5.37H353V43.76h4.72l.22 1.58a7.18 7.18 0 0 1 5.83-1.83c2.14.2 3.55 1.35 3.69 3.47.17 2.53.04 5.08.04 7.77zm-213.1-.02h-5.22v-11h4.6c.44.35 0 .92.36 1.35.13 0 .31 0 .41-.11a6 6 0 0 1 3.13-1.46c4.22-.58 6.09 1.06 6.09 5.32v5.82h-5.4v-5.28c0-1.24-.07-2.43-1.69-2.57-1.38-.12-2.2.71-2.27 2.44s-.01 3.63-.01 5.49zM199.85 52c-.48.51-.77.88-1.12 1.19-2.71 2.39-9.68 2.56-12.51.33a5.35 5.35 0 0 1 1.42-9.31 12.32 12.32 0 0 1 9 0c2.64 1 3.55 3.17 3.52 6h-10.27c0 1.79 1.44 2.72 3.29 2.2 3.26-.91 3.26-.91 6.67-.41zm-10-3.81h4.79c-.05-1.58-1-2.14-2.34-2.18-1.65-.01-2.3.61-2.49 2.21zm-55.25 2.08h-10.33c.27 1.8 1.78 3 3.32 2.08 2.22-1.26 4.34-.36 6.73-.5a5.65 5.65 0 0 1-3.79 2.8 16 16 0 0 1-7.29.06 5.53 5.53 0 0 1-4.55-4.9 5.27 5.27 0 0 1 3.87-5.71 12.66 12.66 0 0 1 8.31 0c2.78.9 4 3.01 3.73 6.17zm-5.42-2a2.18 2.18 0 0 0-2.54-2.27 2.24 2.24 0 0 0-2.46 2.17zm118.1-4.78a9.34 9.34 0 0 1 4.78 1 5.15 5.15 0 0 1 3 4.55 4.88 4.88 0 0 1-2.81 4.81 10.59 10.59 0 0 1-10.38-.07c-3.63-2-3.69-6.6-.23-8.91a9.38 9.38 0 0 1 5.64-1.38zm2.4 6c.06-1.85-.85-3-2.48-3a2.57 2.57 0 0 0-2.7 2.7 2.63 2.63 0 0 0 2.53 3 2.5 2.5 0 0 0 2.65-2.74zM222 43.89a2.46 2.46 0 0 1 .38-.17c5-.28 5-.28 6.78 4.42.25.64.5 1.28.77 1.92 0 .08.16.11.36.23.74-1.87 1.5-3.71 2.18-5.58a1.33 1.33 0 0 1 1.51-1c1.32.07 2.65 0 3.94 0 .37.55-.07.87-.25 1.2-1.53 2.92-3.13 5.8-4.61 8.74a2.14 2.14 0 0 1-1.94 1.21c-2.69.43-4.12-.68-5.14-3.11-1.14-2.7-2.65-5.21-3.98-7.86z" class="cls-1"/><path fill="#7e6398" d="M31.05 33.92l2.35-1c2.56.06 4.92.56 6.31 3a11 11 0 0 0-.15 1.09c-.16 4.93-2.56 7.4-7.56 7.68a8.12 8.12 0 0 0-.93.16 6.23 6.23 0 0 1-1.35-9.78c.42-.42.89-.77 1.33-1.15zm1.85 5.54a1.47 1.47 0 0 0 1.67-1.74 1.74 1.74 0 0 0-2-1.64A1.49 1.49 0 0 0 31 37.79c0 1.21.66 1.69 1.9 1.66z"/><path d="M202.74 43.76c.42 0 .68-.07.94-.07h3.74c.49.41.06 1 .48 1.41 1.53-2 3.46-1.92 5.72-1l-1.5 2.81c-.33.23-.63.08-.95 0a2.23 2.23 0 0 0-2.87 2c-.44 1.89-.16 3.81-.31 5.83a34.73 34.73 0 0 1-5.25.06zM142.48 45c1.69-1.93 3.56-1.73 5.66-1l-1.55 3c-3-.33-3.8.33-3.92 3.3-.06 1.43 0 2.86 0 4.53h-5.29v-11c3.53-.55 4.62-.33 5.1 1.17zm168.23 9.73h-5.33v-11h4.11c1.06 0 .84.71.88 1.51.87-.84 1.58-1.64 2.73-1.68a6 6 0 0 1 3.11.59l-1.54 2.86c-3.06-.28-3.88.44-4 3.46.01 1.31.04 2.69.04 4.26zm-145.83 1.59v11.24c-1.09-.23-2.37.73-3.16-.76-1.77 1.29-3.38 1.36-4.61.14a5.66 5.66 0 0 1-.58-6.25c1-1.59 2.66-1.89 5.1-.86v-3.5zm-3.19 7.3c0-.93-.1-1.92-1.29-2s-1.33.85-1.35 1.74.07 1.92 1.28 2 1.3-.84 1.36-1.74zm57.4-3.49c.76-1.41 2-.59 3.28-.8v11.3h-3.2v-3.44c-2.87.91-4.36.59-5.33-1.06s-.65-4.85.74-6.11 2.7-1.11 4.51.11zm.08 3.42c-.07-1-.27-2-1.41-2s-1.28 1-1.28 1.86 0 1.82 1.18 1.9 1.34-.89 1.51-1.76zm-36.37 7.24V59.47c1.11 0 2.3-.71 3.2.6 1.9-1.16 3.41-1.18 4.59 0a5.73 5.73 0 0 1 .66 6.12c-1 1.64-2.45 1.94-5.25 1v3.35c-1.06.38-2.06.07-3.2.25zm5.84-7.27c-.07-.92-.13-2-1.35-1.94-1.05 0-1.32.94-1.32 1.84s.19 1.89 1.39 1.91 1.15-.99 1.27-1.82zm155.04-3.37v-3.52h3.2v11.22c-1.14-.08-2.28.58-3.19-.57-2.28 1.17-3.68 1.11-4.83-.23a5.76 5.76 0 0 1-.31-6.15c1.08-1.52 2.45-1.75 5.13-.75zm-2.68 3.7c.06.93.16 1.88 1.31 1.85s1.35-1 1.35-2-.32-1.79-1.36-1.8c-1.3.03-1.22 1.1-1.3 1.95zM115.67 67.5v-8c1.14-.07 2.31-.64 3.32.66a11.38 11.38 0 0 1 1.14-.66c2-.93 4 .06 4.21 2.28.17 1.88 0 3.8 0 5.76h-3.17v-4.33c0-.69-.1-1.45-1.08-1.46s-1.16.66-1.18 1.39v4.37zm196.24.05v-4.44c0-.64-.14-1.33-1-1.37s-1.22.57-1.24 1.33v4.34a10.45 10.45 0 0 1-3.23.16v-8.19c1.14.2 2.44-.79 3.18.87a10.69 10.69 0 0 1 1-.69c2.19-1.12 4.29 0 4.46 2.44.13 1.8 0 3.61 0 5.44a11.19 11.19 0 0 1-3.17.11zm13.98-5.49c-1.28-.1-2.48.93-3.62-.45-.45-.54-1.48-.34-2 .36a2.47 2.47 0 0 0 0 3.11c.52.69 1.54.88 2 .29 1.12-1.51 2.45-.68 3.8-.69-.37 1.82-1.6 2.61-3.29 3.08.77 1.09 1.31 2.19-.3 2.92-1.44.66-3.24.27-3.61-.75.86-.42 2 .43 2.77-.55-.37-1-1.25-.37-1.92-.71.23-.69 0-1.06-.8-1.38a3.79 3.79 0 0 1-2.3-4.15 4 4 0 0 1 3.1-3.79c2.84-.75 5.28.22 6.17 2.71zm-24.53-.11a1.15 1.15 0 0 0-1.92-.65c-1.22 1.26-2.46.34-3.66.47 0-.18-.06-.23 0-.28.68-2 2.51-2.69 5.94-2.25 2 .25 2.78 1.2 2.84 3.36v4.9c-1 0-2.17.56-3.16-.64a4.85 4.85 0 0 1-3.73.9 2.38 2.38 0 0 1-2.21-2.17c-.14-1.34.68-2 1.85-2.43 1.3-.46 2.79-.41 4.05-1.21zm0 1.75c-1 .53-2.41.21-2.69 1.55-.11.52.47.75 1 .71 1.25-.1 1.72-.83 1.7-2.26zm-77.05-4.29a9.82 9.82 0 0 1 3.15.07v4.32c0 .72.06 1.47 1 1.46s1.19-.68 1.21-1.4c.06-1.43 0-2.86 0-4.33a9.63 9.63 0 0 1 3.13-.17v8.21c-1.1-.23-2.42.75-3.14-.86a4.34 4.34 0 0 1-2.65 1.1 2.44 2.44 0 0 1-2.72-2.32c-.07-1.99.02-4 .02-6.08zm108.86 2.85a1.17 1.17 0 0 0-1.93-.65c-1.22 1.29-2.46.39-3.72.43a2.46 2.46 0 0 1 2-2.27 9.87 9.87 0 0 1 4.58-.07 2.71 2.71 0 0 1 2.21 2.91 26.22 26.22 0 0 0 .26 5.3c-1.18-.2-2.48.6-3.35-.77a4.88 4.88 0 0 1-4.08.86 2.28 2.28 0 0 1-1.91-2.25 2.19 2.19 0 0 1 1.7-2.23c1.37-.52 2.93-.42 4.24-1.26zm-.12 1.8c-.92.55-2.39.07-2.51 1.6 0 .65.58.67 1.07.61 1.16-.15 1.66-.81 1.39-2.21zM357.7 68c-1.13-.32-2.32.53-3.19-.68-.24-.33-.53.16-.78.28a4.76 4.76 0 0 1-3.4.43 2.25 2.25 0 0 1-1.89-2.25 2.09 2.09 0 0 1 1.7-2.2c.81-.24 1.66-.36 2.47-.62.58-.19 1.31-.08 1.7-.77a1.06 1.06 0 0 0-1.75-.59c-1.19 1.18-2.43.57-3.73.46 0-.17-.07-.33 0-.45.74-1.82 3-2.56 6.12-2 1.82.33 2.53 1.27 2.56 3.42v2.39c0 .79.11 1.58.19 2.58zm-3.52-3.9c-.87.58-2.28.09-2.46 1.53-.09.7.63.75 1.17.66 1.11-.22 1.6-.88 1.29-2.23zm-78.77-2.36c.69-2.25 2.68-3 6.07-2.49 1.87.29 2.64 1.25 2.69 3.32a21.33 21.33 0 0 0 .25 4.9c-2.46.3-2.46.3-3.35-.63a4.79 4.79 0 0 1-3.76.92 2.31 2.31 0 0 1-2.17-2.18c-.11-1.36.67-2 1.85-2.43 1.32-.45 2.82-.37 4.07-1.21a1.14 1.14 0 0 0-1.84-.68c-1.22 1.23-2.44.49-3.81.48zm5.51 2c-1 .49-2.37.06-2.51 1.55-.06.62.57.67 1.06.62 1.16-.09 1.66-.73 1.45-2.13zm-25.47 3.1a4.76 4.76 0 0 1-3.93.86 2.26 2.26 0 0 1-2-2.17 2.19 2.19 0 0 1 1.73-2.35c1.34-.48 2.83-.43 4.14-1.2a1.1 1.1 0 0 0-1.83-.72c-1.21 1.26-2.45.47-3.7.46.44-2.16 1.87-2.79 5.56-2.51 2 .15 3 1.07 3.12 2.91s-.21 3.5.31 5.38c-1.2 0-2.44.62-3.4-.66zm-.17-3.11c-.87.59-2.27.09-2.48 1.53-.1.72.61.76 1.15.68 1.16-.18 1.61-.86 1.33-2.21zm-141.11.6H108c.31 1.32 1.11 2 2.08 1.41 1.27-.75 2.45-.29 3.71-.39-.63 2.05-3 3-5.86 2.29a4.13 4.13 0 0 1-3.19-4.8c.37-2.58 2.43-3.91 5.61-3.63 2.54.23 3.89 1.92 3.82 5.12zm-3.26-1.65c-.18-1-.52-1.59-1.44-1.55a1.35 1.35 0 0 0-1.42 1.55zm58.8 1.56c.37 1.43 1.18 2.07 2.15 1.49 1.27-.76 2.43-.33 3.69-.33-.75 2.07-3.24 2.93-6.06 2.17a4.12 4.12 0 0 1-3-4.93c.49-2.5 2.5-3.73 5.61-3.44 2.58.24 3.91 1.94 3.83 5zm3-1.55c-.24-1.06-.65-1.69-1.65-1.56a1.28 1.28 0 0 0-1.22 1.56zm29.54 2.71a5.53 5.53 0 0 1-7 2 4.31 4.31 0 0 1-2.1-5.15c.67-2.31 2.82-3.41 5.78-3 2.38.35 3.6 2 3.56 5h-6.22c.26 1.4 1 2.12 2.12 1.5 1.26-.75 2.42-.33 3.86-.35zm-6-2.72h2.88c0-.91-.34-1.51-1.26-1.56s-1.44.52-1.63 1.56zm-51.58-3.49c2.88 0 4.74 1.64 4.76 4.21s-1.92 4.42-4.78 4.41-4.73-1.83-4.72-4.33 1.95-4.28 4.74-4.29zm1.58 4.26c-.13-.94-.24-2-1.53-2s-1.53 1-1.54 2 .19 2.17 1.58 2.12 1.39-1.1 1.49-2.12zM362 61.72c.74 1 1.73.79 2.56 1 1.92.39 3 1.21 3 2.53s-1.12 2.52-3 2.81a6.75 6.75 0 0 1-4.51-.53 2 2 0 0 1-1.05-1.88c1.29 0 2.62-.85 3.82.52a1.07 1.07 0 0 0 1.65-.33c.35-.89-.53-.81-1-.94-.82-.21-1.66-.36-2.47-.6a2.24 2.24 0 0 1-1.74-2.21 2.19 2.19 0 0 1 1.55-2.2 7.24 7.24 0 0 1 4.85-.05 2.25 2.25 0 0 1 1.6 1.88c-1.23-.08-2.47.76-3.62-.37-.49-.41-1.05-.09-1.64.37zm-93.77-.33c-1.24 0-2.47.74-3.62-.37-.39-.37-1-.15-1.34.36 0 .49.31.65.71.71l1.89.31c1.8.32 2.8 1.22 2.81 2.53s-1 2.31-2.68 2.71c-2.86.68-5.11-.12-6-2.27 1.3.05 2.59-1 3.75.43.25.31.8.22 1.22.16a.71.71 0 0 0 .69-.55c.09-.48-.25-.65-.64-.74-1-.23-2-.41-2.94-.68a2.3 2.3 0 0 1-.08-4.46 7.45 7.45 0 0 1 4.55-.07 2.2 2.2 0 0 1 1.68 1.93zm-61.67-.01c.75 1 1.75.81 2.58 1 2 .4 3 1.17 3 2.53s-1.13 2.54-3.1 2.86c-2.82.46-4.71-.29-5.59-2.37 1.3 0 2.51-1 3.77.41a1.27 1.27 0 0 0 2-.56c-.67-.82-1.65-.69-2.48-.91a5.72 5.72 0 0 1-2.09-.74 2.32 2.32 0 0 1-.31-3.39c1.66-1.77 6.19-1.15 7.44 1.15-1.29 0-2.49.8-3.69-.32-.39-.42-.94-.04-1.53.34zm41.44.01c-1.29 0-2.51.77-3.66-.36-.41-.4-1-.12-1.42.26-.06.71.46.73.93.82a18.57 18.57 0 0 1 2.94.66 2.24 2.24 0 0 1 1.18 3.4c-1.17 1.8-3.07 1.69-4.88 1.6-1.54-.08-2.93-.54-3.49-2.41 1.36 0 2.59-.9 3.84.43a1.27 1.27 0 0 0 2-.53c-.54-.86-1.45-.64-2.16-.9s-1.37-.27-2-.55a2.19 2.19 0 0 1-.93-3.35c1.29-1.61 3.15-1.31 4.88-1.22a2.83 2.83 0 0 1 2.77 2.15zm-144.5 3.3c-.7 2.44-2.63 3.49-5.56 3.08-2.45-.34-3.81-1.78-3.86-4.09a4.08 4.08 0 0 1 3.5-4.43c2.94-.52 4.93.41 5.76 2.75-1.24 0-2.44.93-3.65-.42-.5-.56-1.57-.26-2 .56a2.45 2.45 0 0 0 .15 3c.54.65 1.56.84 2 .24 1.06-1.58 2.38-.64 3.66-.69zm26.58-5.47l1.62.2a7.08 7.08 0 0 1 .12 2.21l-1.48.16c-.61 2.8-.34 3.6 1.31 3.74a4.43 4.43 0 0 1 .19 1.91 4.78 4.78 0 0 1-2.78.35 2.08 2.08 0 0 1-2.06-2.2c0-1 0-1.91-.08-2.87 0-.39.14-.84-.49-1-1.31-.34-.8-1.79-.56-2 1.27-1.17 1.81-3.3 4.21-3.1zm155.12.33c.22-.12.27-.16.31-.17 2.89-.24 2.89-.24 3.71 2.46l.71 2.29a7.46 7.46 0 0 0 1-2.55c.83-2.56.82-2.57 3.87-2-1.09 2.56-2.11 5.1-3.26 7.59-.42.91-2.89.64-3.3-.32-1.02-2.43-2.01-4.85-3.04-7.3zm-148.56 7.98h-3.19v-8c2.21-.38 2.45-.33 3 .68a2.34 2.34 0 0 1 3.36-.51c-.52.9-.34 2.28-2.12 2.12-.79-.07-1 .89-1 1.58-.1 1.31-.05 2.6-.05 4.13zM238 67.51a9.48 9.48 0 0 1-3 0v-8.09h3zm.08-11.15v2h-3v-2z" class="cls-1"/><path fill="#c1bac8" d="M32.9 39.45c-1.24.03-1.9-.45-1.9-1.66a1.49 1.49 0 0 1 1.63-1.71 1.74 1.74 0 0 1 2 1.64 1.47 1.47 0 0 1-1.73 1.73z"/></svg>