<svg xmlns="http://www.w3.org/2000/svg" role="img" viewBox="-33.38 -32.38 1683.76 525.76"><title>VORTEX-CoLab (member) logo</title><g data-name="Layer 2"><g data-name="Layer 1"><path fill="#fa1b38" d="M230.69 0C103.48 0 0 103.48 0 230.67s103.48 230.69 230.69 230.69 230.69-103.47 230.69-230.69S357.91 0 230.69 0zm6.93 315.61a61.69 61.69 0 0 1-7.85 12.84L149.53 154a59.79 59.79 0 0 1-3.9-11.43c22.82.21 70 .16 167.76 0h3.07zM178.05 41.76c-20.57 9.57-50.15 28.05-63 58.8-8.89 21.36-7.87 44.22 3 67.95l81.49 177.07c-26.69 3.52-56.44-11.93-62.32-15.21-43.98-24.55-76.69-65.72-92.22-88.08-5-7.16-10.39-19.4-9.37-30.43 7.71-81.62 65.53-148.7 142.42-170.1zM120.5 360.6c13.66 7.61 41.07 20.38 70.83 20.38a90.87 90.87 0 0 0 28.29-4.34c22-7.24 38.63-22.95 49.45-46.7l81.54-178.88a36.54 36.54 0 0 1 6.77 5.59c19.05 20.25 19 56.67 18.11 71.37-3.63 59.11-60 142.34-93.26 186.7a26 26 0 0 1-12.91 8.06 194.3 194.3 0 0 1-38.63 4c-80.7 0-154.06-51-183-125.69 22.98 25.38 47.42 45.36 72.81 59.51zM410 230.15c1.19-19.19.88-67.08-27.49-97.18-15.52-16.52-36.44-24.88-62.2-24.88H150.04c13.54-23.41 44.31-36.17 53.82-39.65 28.74-10.52 62.86-15.27 101.7-14 12.29.38 22.91 6.53 23.36 6.8 60.37 35.1 97.87 100 97.87 169.41 0 65-32.91 126.09-86.69 162.44 31.64-47.45 66.72-110.96 69.9-162.94z"/><path d="M793.32 36.53c-56.05 0-94.22 44.48-94.22 95.27v.53c0 50.79 37.64 94.74 93.7 94.74S887 182.59 887 131.8v-.53c0-50.79-37.62-94.74-93.68-94.74zm72.11 95.8c0 41.84-30 75.53-72.11 75.53s-72.64-34.21-72.64-76.06v-.53c0-41.84 30-75.53 72.12-75.53S865.43 90 865.43 131.8zM1076.75 95v-.52c0-14.48-5.26-27.37-14.21-36.32-11.58-11.58-29.74-18.42-52.37-18.42H931v184.17s9-.06 15.07-4.79c5.71-4.3 5.72-8.79 5.72-9.61v-57.18h52.63l53.42 71.58h25.53l-56.58-75.27c28.91-5.26 49.96-23.16 49.96-53.64zm-125 38.69V58.9h56.84c29.74 0 47.11 13.69 47.11 36.32v.52c0 23.69-19.74 37.9-47.37 37.9zm154.47-74.79h61.85v165s9.09-.06 15.26-4.85c5.78-4.36 5.79-8.9 5.79-9.74V58.9H1251V39.69h-144.78zm204.49 81.58h100.53v-18.95h-100.53v-62.9h112.37V39.69h-133.17v184.22h115.17c1.55 0 10.11-1.08 14.16-6a22.46 22.46 0 0 0 5.16-12.91h-113.69zm237.38-10.79l68.15-90H1592L1536 115l-56.59-75.26h-24.47l68.14 90.26-70.8 94s11.45.48 20.39-3.27a36.22 36.22 0 0 0 14.39-11.32l48.13-64.63 59 79.22h24.74l-11-14.59zm-1043.21-90l79.22 185.54s8.67-.35 15-4.35a29.71 29.71 0 0 0 10.24-11.62c.79-1.6 72.4-169.57 72.4-169.57zm88.69 158.69L536 58.9h115.4zm327.69 207.25h-91.83V259.5H811v163.15h93.13c1.37 0 9-.95 12.54-5.31a19.82 19.82 0 0 0 4.57-11.47H921zm-416.38-64.35v-.46c0-46 34.39-84.12 82.26-84.12 29.51 0 47.17 10.46 63.43 25.8L638 296c-13.71-13-29-22.3-51.11-22.3-36 0-63 29.27-63 66.68v.47c0 37.64 27.18 67.14 63 67.14 16.28 0 28.45-4.61 39.93-12.83s24.66 1.22 24.66 1.22c-2.93 3-5.91 5.77-9 8.36-14.73 12.43-31.67 20.22-56.08 20.22-46.9-.03-81.52-36.96-81.52-83.68zm159.36 21.38v-.47c0-33.92 26.49-62.73 62.74-62.73 36 0 62.5 28.34 62.5 62.27v.46a62.37 62.37 0 0 1-63 62.74c-35.98 0-62.24-28.35-62.24-62.27zm106.88 0v-.47c0-25.79-19.28-46.93-44.61-46.93-26 0-43.91 21.14-43.91 46.47v.46c0 25.79 19 46.7 44.38 46.7 26.02 0 44.14-20.89 44.14-46.23zm366.6-63.2c-22.07 0-36.24 12.31-46 26.72v-73.66h-17.89V422.3s7.74-.05 13-4.13c4.91-3.71 4.92-7.57 4.92-8.28v-10.74c9.3 13.47 23.7 25.54 46 25.54 29 0 57.4-23.23 57.4-62.5v-.46c-.03-39.5-28.61-62.27-57.43-62.27zm39 63c0 29.05-19 46.24-42.29 46.24-22.3 0-43.45-18.59-43.45-46.47v-.46c0-27.42 21.15-46.24 43.45-46.24 22.77 0 42.29 18.12 42.29 46.47zm-146.83-49.06c-8.59-8.6-21.84-13.25-38.8-13.25-17.66 0-30.44 4.19-43.68 10.23l5.34 14.62c11.16-5.12 22.31-8.6 36.48-8.6 22.54 0 35.55 11.15 35.55 32.53v3.72a125.82 125.82 0 0 0-36.71-5.12c-30.44 0-51.35 13.48-51.35 39.27v.47c0 24.62 22.31 37.4 44.85 37.4 21.14 0 34.85-9.75 43.21-20.44v17.89c.08 0 7.65-.07 12.8-4.07 4.84-3.66 4.85-7.46 4.85-8.16v-61.17c.01-15.34-4.17-26.96-12.54-35.32zm-44.84 96.89c-16.26 0-30.2-8.83-30.2-23.93v-.47c0-14.4 12.77-24.16 35.08-24.16a123.39 123.39 0 0 1 35.09 5.11V378c-.02 19-17.9 32.29-39.97 32.29z"/></g></g></svg>