<svg xmlns="http://www.w3.org/2000/svg" role="img" viewBox="-11.98 -11.98 622.96 480.46"><title>VRULL (member) logo</title><style>svg {enable-background:new 0 0 599.14 456.8}</style><path fill="#003f88" d="M280.52 455.91l54.65-89.23c.6-.99.17-2.26-.91-2.68C270 339.42 208.6 296.6 152.63 245.4c-1.58-1.45-3.95.52-2.83 2.36l127.55 208.16c.72 1.18 2.44 1.18 3.17-.01z"/><path fill="#5eb017" d="M557.11 4.37c.71-1.16-.01-2.66-1.36-2.8-16.62-1.73-101.63-6.41-153.41 70.28-27.29 40.38-84.92 153.67-90.56 164.78-.28.56-.28 1.2.04 1.75 11.93 20.91 45.75 45.48 68.68 51.82.8.22 1.63-.14 2.06-.84L557.11 4.37z"/><path fill="#fdc500" d="M.16 4.17c89.62 201.73 403.87 506.15 598.75 253.6.8-1.03-.69-2.27-1.57-1.31C381.18 492.13 169.35 99.68 135.11 54.1 97.59 4.18 39.14-4.25 1.53 1.62.35 1.81-.33 3.08.16 4.17z"/></svg>