<svg xmlns="http://www.w3.org/2000/svg" role="img" viewBox="44.44 25.44 1329.12 524.12"><title>Wanxiang Blockchain logo</title><path fill="#FEFFFF" d="M1069 573H1.0672V1.1032h1409.91083V573H1069M305.9978 208.99652s-.0296.02156.20032.53694c.46283.30716.92563.61432 1.62036.87084 0 0-.20898.11256.12405.643 1.67454 1.34368 3.3491 2.68736 5.23874 4.46857.1945.28898.4646.45463 1.05951 1.08984 1.61707 1.3478 3.23414 2.69559 4.92936 4.2633 0 0 .23275.01727.5986.52488 1.9173 1.67119 3.83462 3.3424 5.85122 4.88066 0 0-.02636.16382.16147.62627.20899.28662.48954.45149 1.11972.51118 0 0-.27758.0239.00324.60964 6.71545 6.6205 13.4309 13.24098 20.13272 19.9408 0 0 .07934-.01351.22821.47866.37048.34435.741.68868 1.22253 1.07184 0 0 .0267.11456.31208.66745 1.4018 1.5953 2.80355 3.19058 4.46783 5.39627.17734.1327.3547.26538.63644.94952 1.01407 1.1826 2.02814 2.36518 3.0961 3.48401 0 0-.07421.03821.10367.70795 3.18897 4.53107 6.37796 9.0621 9.75742 13.38904 0 0-.2286.16021-.09528.79779.72821 1.0535 1.45642 2.107 2.23874 3.1087 0 0-.06912.02832.04166.73606 2.7152 7.74356 5.43042 15.48715 8.1063 23.99798.17318.47583.34637.95166.34441 2.19748.9257 15.33804 1.85138 30.67609 2.66028 46.68085.06586.44339.13175.88678-.0086 2.25424.19143 20.6.54794 41.20032.50814 61.7999-.02148 11.11279-.72107 22.2243-1.41589 34.12677-.00855 1.40826-.01712 2.8165-.23837 5.05996-.55619 6.94681-.91547 13.91632-1.7136 20.83524-1.27297 11.03567-2.83752 22.03769-4.27935 33.0539-1.15842 8.85094.87078 11.99895 9.64145 14.45226 9.325 2.60834 18.31475 1.706 27.1513-2.99096 0 0 .19617-.22785.88715-.25177 2.05139-1.6659 4.10275-3.33173 6.41739-5.1623 0 0 .03762-.30828.59018-.61541.17984-.37311.35968-.74622.98718-1.37702.08716-.32367.17431-.64734.77313-1.43802 5.12592-11.40405 3.92117-23.40365 3.41724-36.19897-.15665-1.11984-.31327-2.23969-.25095-4.18982-.62646-8.98352-1.25293-17.96707-1.7724-27.79593-.1413-1.11404-.2826-2.22806-.24078-4.20462-.3115-5.98114-.62302-11.96228-.80692-18.60623-.05902-.4429-.11804-.8858.03995-2.12473-.21872-1.6086-.43747-3.2172-.40796-5.38717-.08032-.60126-.16067-1.20255.0669-2.55207-.25235-6.09341-.50467-12.1868-.6499-19.1648-.21033-2.0464-.42066-4.09283-.36768-6.96395-.25815-3.71704-.51633-7.43405-.65418-11.81534-.06183-.44226-.12366-.88455-.03021-2.228-.34387-5.03436-.68777-10.06875-.94406-16.01458-.20606-1.80033-.41208-3.60062-.31339-6.20416-.4884-13.7681-.73407-27.55112-1.5791-41.2973-.36172-5.88432-1.9714-11.69196-2.9624-17.57423 0 0-.06177-.02075-.01227-.8099C408.32452 280.49445 404.65955 272.74786 401 265c0 0-.0032.00613-.09238-.68182-1.9176-2.52536-3.83517-5.05072-5.77322-7.45285 0 0 .11877-.0386.00183-.56165-.2658-.21905-.53165-.43812-.89456-.40134 0 0 .1517-.22776-.02417-.86787-1.4096-1.67561-2.81921-3.35123-4.39725-5.5737-.55658-.50763-1.11313-1.01527-1.8848-2.1661-2.81826-2.89986-5.6365-5.79974-8.54202-8.69123 0 0 .00897-.08717-.25928-.67502-2.55108-2.44429-5.1022-4.8886-7.75424-7.20648 0 0 .0278-.15935-.13134-.60622-.17304-.28679-.42237-.4694-.83728-.58148 0 0 .00115-.09544-.31748-.64445C359.40478 218.57906 348.71573 208.26833 338 198c0 0 .04245-.02664-.12732-.53947-.41897-.32667-.83792-.65331-1.37183-1.0281 0 0-.03555-.1194-.32925-.67137-4.86942-4.41087-9.7388-8.82174-14.71542-13.25222 0 0-.0434-.10004-.23267-.52388-.20679-.25973-.47598-.39716-1.10501-.34421 0 0 .28073-.11939-.00287-.69853-2.16342-1.81862-4.32684-3.63724-6.60962-5.50872 0 0-.05694-.11746-.3555-.66723-2.55426-2.07714-5.10852-4.15427-7.75592-6.23664 0 0 .0256-.08972-.26626-.65403-5.35938-4.31923-10.71872-8.63845-16.11994-12.88288 0 0 .07205-.04643-.22766-.65054-8.78537-4.73694-17.57074-9.47386-26.25238-14.15483 1.38458-3.81235 2.89823-7.9801 4.74075-12.81376 3.09748-10.46483 6.19492-20.92965 9.17887-31.011 8.11978 0 15.97268-.53078 23.73114.10013 22.73123 1.84845 45.40277 4.44192 68.1387 6.21878 29.47275 2.30334 49.84521-10.6577 61.04755-38.1975.6849-1.68375 1.30743-3.45383 1.56122-5.24024.69757-4.91004-1.34244-7.31295-6.23932-7.38647-1.80591-.0271-3.63895.28903-5.42478.63068-9.46738 1.81117-18.88064 3.947-28.3916 5.48101-33.16782 5.34957-66.6951 5.6932-100.1276 5.63623-39.2873-.06694-78.57682-1.5758-117.85537-2.7848-17.45479-.53727-34.88437-2.63993-52.3266-2.65514-23.08091-.02012-47.2172 22.59894-50.0877 45.54635-.77174 6.1695 2.79038 10.6171 9.00112 10.33962 5.2715-.23551 10.71707-.66744 15.71768-2.20733 32.01666-9.8592 64.81021-14.87238 98.19678-16.16825 11.42152-.44331 22.87476-.07039 34.31725-.07039.77917 10.18653-1.97718 27.07304-6.28072 37.49294-8.72307 21.1206-23.5103 37.86982-39.86998 53.12751-20.08713 18.73406-40.85666 36.74398-61.53065 54.83902-18.65343 16.32653-28.61186 37.23513-30.81817 61.36379-2.05883 22.51574-2.01327 45.2197-3.06414 67.83288-1.25965 27.10617-2.66417 54.20578-4.08044 81.30433-.5035 9.63375-2.36455 19.34606-1.61295 28.86514 1.62319 20.5578 16.15924 32.36392 32.01964 42.49753 4.82179 3.08074 10.93612.64514 13.3306-4.96058 2.1126-4.94586 4.14622-10.50439 4.00658-15.73342-.61303-22.95957-1.85675-45.90769-3.1886-68.84153-2.37612-40.91562-4.30612-81.8207-1.80775-122.81262 1.01572-16.66556 6.64012-31.33261 18.75119-42.83938 28.96646-27.5211 58.23134-54.72858 87.43593-81.99825 11.05362-10.32124 23.811-11.64926 36.92483-5.07472 7.78528 3.90309 14.71497 9.5129 22.28055 14.92216.84046.57222 1.68088 1.14444 2.68418 1.59026 0 0-.19526.06611-.02173.57945.29983.18352.5997.36704.98504.32439 0 0-.13678.19938.14917.75195.99533.73093 1.9907 1.46184 3.0025 2.16406 0 0-.0291.01522.20173.64379 2.59304 2.13118 5.1861 4.26237 7.79953 6.35624 0 0-.04083.01163.0834.5375.30078.16465.60156.32931.91162.45881m28.06586 74.22598c-.34091-.10836-.68186-.2167-1.03769-.23813 0 0 .0664-.058-.33853-.64773-9.56891-4.0535-18.97366-4.86069-27.89166 1.4273 0 0-.07752-.10293-.5807.01795-.20675.2624-.41348.52481-.65496.9132 0 0-.04358-.12322-.5744.05207-.47937.54593-.95871 1.09186-1.51026 1.75784 0 0-.10333.0946-.5672.43207-.33898.67548-.67794 1.35095-1.52447 2.39386-.08893.39966-.17783.79932-.77661 1.63-.44815 7.00092-.8963 14.00187-1.41379 21.79203.2145.7511.42902 1.50217.48163 2.89978.16748 1.10147.33496 2.20297.41592 4.00232.1272.44342.25443.88687.2497 2.09982-.0377.77597-.07538 1.55197-.23688 2.26395 0 0-.04834.1307-.96588.06412-4.70313.38147-9.40628.76297-15.01987 1.07129-1.80075.18743-3.60147.37487-6.22723.2687-6.9606.29969-13.92124.59934-21.6329.76957-.756.05703-1.51201.11404-2.7567-.00117-.16404.05411-.32807.10819-1.4026-.00482-3.71433.05506-7.42867.11011-12.05134-.04782-10.36642-.33471-20.73286-.6694-31.10852-1.10644 0 0-.09888.02801-.12189-.8661.47875-6.06307.9575-12.12618 1.82518-19.01919-.14863-2.70962-.29727-5.41928-.28125-8.83636-1.78497-10.78464-8.37786-16.17197-21.01136-16.97522-.46111.00674-.92223.01349-2.18099-.1598-6.06119.60493-11.71776 2.0676-15.47403 7.42793 0 0-.12887-.00089-.5976.20721-.14626.30182-.29252.60364-.3219.98926 0 0-.04089-.13791-.65533.18503-1.25049 4.35302-2.50097 8.70602-3.92274 13.77783.0802.72812.16038 1.45624.16012 2.97143 1.63166 10.08026 3.2633 20.1605 4.79725 31.11219.19953 1.13351.39906 2.26702.32713 3.89395.11368.53912.22735 1.07828.12608 2.04925-.07486.34543.01247.64331.04627 1.72394.02899 6.04907.058 12.09814-.26291 18.98572-.05979 1.50796-.11957 3.01593-.40154 5.34762-.16553 2.48139-.50284 4.96515-.46788 7.44373.18657 13.22604.46622 26.4508.67056 40.38815.17844.43067.3569.86133.4311 2.0365 2.15817 12.1419 6.82734 22.96006 16.41635 31.25858 0 0 .07785-.03577.25381.50833.47495.29605.9499.59213 1.49239.76727 0 0-.13484.03177.13907.633 1.60612 1.13842 3.21225 2.27685 4.90191 3.33728 0 0-.11233-.02127.18277.58002 1.56421.8674 3.12842 1.73477 4.96595 2.30126 0 0-.29917.27515.09136.81232 8.9855 2.85748 17.97101 5.71497 27.5588 8.92484.46203-.00577.92407-.01154 2.18576.22 11.3789.19684 22.75781.39367 34.93185.74176 1.06906-.07605 2.1381-.15213 4.05637-.07251 2.65048-.27094 5.301-.54187 8.85528-.71854 5.09955-.6881 10.23474-1.17978 15.29264-2.09744 25.3781-4.60434 39.43512-18.0799 43.83166-43.09644 1.77405-10.0946 2.2814-20.4628 2.70749-30.73373 1.29523-31.22275 2.25278-62.45941 3.38638-93.68903.1778-4.89788-1.01281-9.15878-5.09518-12.9605-.51181-.26316-1.02365-.52631-1.5964-.67078 0 0 .12515-.04624-.11759-.53852m229.87207 157.1669c2.44244-7.93307 5-15.83328 7.27765-23.81338 1.10626-3.876 2.72418-6.83765 7.271-6.84146 13.83196-.01166 27.6643-.05856 41.49566.03369 4.35773.02908 6.9154 2.48993 6.9502 6.8612.10864 13.6649.17236 27.33307-.0232 40.996-.075 5.2371-2.656 7.30827-8.0188 7.35892-4.99926.04725-9.99969-.02746-14.99896.02308-5.36694.05426-8.39715 2.58688-8.53045 7.01553-.12305 4.08795 3.29815 6.94134 8.5686 6.9703 9.33258.05128 18.66565.0278 27.99847.01285 8.9004-.01425 10.94367-2.01882 10.94959-10.78799.01391-20.66556.00982-41.33115.00335-61.9967-.00244-7.96012-2.18365-10.13459-9.9873-10.12278-16.4989.0249-32.9981.0789-49.49664.00449-6.21698-.02802-8.44702-2.41705-8.30933-8.58005.05939-2.656.43762-5.30438.65521-7.95749.75617-9.21905 2.05018-10.4336 11.24775-10.43692 20.16558-.0073 40.33123.00989 60.49682-.0107 5.79462-.0059 8.41058-2.13596 8.4654-6.74427.04925-4.13959-2.78016-6.48181-8.2807-6.487-39.16462-.03693-78.32917-.03534-117.49378-.00626-5.41656.00403-8.33124 2.66687-8.1491 7.14578.16302 4.00937 2.84356 6.07395 8.03234 6.09473 7.49951.03003 15.00165-.10281 22.49786.05774 5.31086.1137 8.52045 3.30408 8.13605 7.96823-.8056 9.77509-1.37506 19.59372-2.75775 29.2924-3.34436 23.45952-12.49439 43.72198-32.98718 57.4547-3.93756 2.63864-4.52301 6.93201-1.95221 10.41098 2.82959 3.82907 6.59149 4.48697 10.94885 1.66199 13.36096-8.66196 23.15088-20.38925 29.9906-35.5776M821.88025 427.5c.00024-16.32315.0368-32.64645-.01843-48.96942-.0199-5.8833-2.7041-8.51972-8.50507-8.5314-14.49078-.0292-28.98175-.00556-43.4726-.0126-9.30377-.00452-11.6123-3.4008-8.1953-12.02842 2.04986-5.17578.76366-9.04037-3.58631-10.77585-5.84912-2.33359-9.8313-.76465-12.04407 4.87442-1.51703 3.86579-2.91235 7.78073-4.2976 11.6965-1.59241 4.50156-4.57184 6.46018-9.48267 6.30893-8.65296-.2665-17.3202-.0902-25.98132-.06887-7.1999.01773-9.1858 1.99765-9.188 9.18191-.00927 30.31424-.00323 60.62848-.00073 90.94272.00013.99914-.06512 2.0087.05085 2.9957.53857 4.58401 4.44519 7.27313 8.9284 6.21524 4.9013-1.15656 5.83502-4.7234 5.82642-9.11179-.05078-25.81695-.0384-51.63406-.01337-77.45114.0069-7.10999 1.81293-8.98471 8.73523-8.99558 25.81696-.04055 51.63397-.05148 77.45093-.02896 7.2873.00635 8.95715 1.74067 8.97467 9.28739.04724 20.32022.03766 40.64062.04974 60.96094.0061 10.2644-1.94629 12.14636-12.32232 11.86798-.83081-.02225-1.66016-.09577-2.4903-.1438-5.54718-.32105-8.9264 2.26715-9.01422 6.90353-.08044 4.2512 3.25696 7.23102 8.37518 7.27591 6.99482.06134 13.99097.0209 20.98627-.01788 6.75977-.0375 9.21533-2.5245 9.2279-9.40189.0257-13.99115.00696-27.98239.00672-42.97357M660.17023 108.11214c-11.31018-.05688-11.28076-.04903-14.03449 10.2728-5.69702 21.35414-11.39306 42.70873-17.21374 64.02923-.46588 1.70671-1.8899 3.15182-2.86872 4.71852-1.07464-1.65042-2.48223-3.1772-3.15112-4.97827-1.21082-3.26054-1.96283-6.69-2.93811-10.0397-5.57605-19.15201-11.27283-38.26998-16.66663-57.47313-1.37878-4.90885-4.13781-6.89962-9-6.5626-1.32672.09197-2.67816.15029-3.99487.0079-5.40582-.58467-8.01453 1.79846-9.56067 7.07795-6.63183 22.64522-13.633 45.18295-20.63946 67.71637-.56128 1.80515-2.18665 3.27946-3.3175 4.90753-.9449-1.62059-2.31587-3.1305-2.77003-4.87858-5.72564-22.03566-11.31634-44.10637-16.94757-66.16658-2.1029-8.2381-2.7074-8.69435-11.2414-8.62223-6.04333.05107-6.419.58936-4.70324 6.37921 8.6897 29.3231 17.43958 58.6288 25.97235 87.99755 1.47022 5.06027 3.95941 7.62164 9.4508 7.46472 7.24726-.20706 8.32728-.69827 10.37666-7.42532 6.87896-22.5799 13.66754-45.18747 20.62243-67.74382.93042-3.01769 2.61792-5.80193 3.95477-8.6943 1.54017 2.88761 3.5921 5.61745 4.53876 8.68804 7.00464 22.7213 13.88684 45.48187 20.56378 68.30142 1.39374 4.7632 3.83191 6.91951 8.82367 6.88591 5.03217-.0339 8.537-1.21704 9.84534-6.83185 1.39142-5.97125 3.6084-11.74792 5.41302-17.6255 7.22083-23.51817 14.45502-47.03238 21.57593-70.58083.6858-2.26805 2.65967-5.1433-2.08996-6.82444M967.5 356.85928c-30.48914.00003-60.97827-.00882-91.4674.00629-7.67536.00378-9.14826 1.45938-9.15083 8.94449-.01184 34.98758-.01641 69.97519-.01196 104.96277.00098 7.50848 1.59448 9.107 9.04633 9.10821 37.65332.00605 75.30664.00318 112.95996.00037 1.16565-.0001 2.359.12124 3.49194-.08063 3.7807-.67373 5.9107-2.7799 5.73004-6.85626-.21093-4.75897-2.67944-6.65088-9.1563-6.65521-33.15491-.02207-66.30982.0068-99.46473-.0232-6.919-.00625-8.46265-1.62784-8.46582-8.5855-.01153-25.65757-.00604-51.31516-.005-76.97272.00036-9.28312 1.40222-10.69864 10.68328-10.7005 31.3222-.0063 62.64447.00119 93.96668-.0047 5.93316-.0011 8.8836-2.12268 8.89233-6.33994.00952-4.59299-2.80768-6.73792-9.05462-6.7873-5.66437-.04476-11.32923-.01388-17.9939-.01617m-277.78198-83.37732c.07788-2.1635.11352-4.3295.2406-6.4901.86828-14.76397 10.09729-26.47346 23.62695-30.00758 16.40363-4.28482 31.97882 1.12986 40.03601 13.88338.72638 1.14972 1.65253 2.17323 3.14331 4.10893 1.3905-3.0595 2.31214-5.10891 3.25147-7.1502 3.01642-6.55542 3.06854-7.264-2.57422-11.7857-16.1999-12.98127-34.53833-14.25883-53.27496-7.67308-17.2776 6.07293-26.2411 19.32282-28.47657 37.55378-2.2326 18.20797 3.10035 33.21365 17.48426 44.65313 10.48626 8.3397 22.8775 9.97886 35.85748 9.47861 19.13824-.73758 36.4259-13.10657 41.92822-31.46866 2.6018-8.68237 3.12415-17.96533 5.16846-26.84268 3.02331-13.1289 10.17602-22.9899 24.26819-25.35884 13.18261-2.21602 25.36609-.60678 33.13934 12.37915 2.7362 4.57098 7.20721 5.00764 11.87415 4.0839 3.05236-.60416 4.04895-2.47688 2.71869-5.55228-3.15625-7.29692-8.09827-13.1627-15.0238-16.84436-25.4568-13.53289-71.76258-4.54552-72.30323 40.74943-.16785 14.06092-5.82886 26.5877-18.78125 33.79773-20.51764 11.42127-52.48273 1.42325-52.3031-31.51456m114.16162-122.82234c13.22766 18.36037 26.43994 36.73189 39.69476 55.07262 2.99652 4.1463 11.60633 5.93376 15.68079 2.98776 1.37952-.99748 2.6292-3.23356 2.63812-4.9105.15808-29.81098.12433-59.62305.10596-89.43487-.0025-4.08732-2.31385-6.0183-6.23554-6.26767-6.1001-.38791-8.48626 1.83744-8.49878 8.16012-.04113 20.81825.01105 41.6368-.10455 62.4545-.00964 1.73982-1.00702 3.47414-1.54541 5.211-1.38238-1.02607-3.11816-1.79244-4.09259-3.11832-9.95038-13.53951-19.77045-27.17475-29.64056-40.77332-6.93946-9.5608-13.8352-19.15452-20.8866-28.63222-2.41565-3.2468-9.45007-4.5597-13.77441-2.9123-4.20746 1.6029-3.9848 5.20455-3.97553 8.77769.03717 14.32292.01587 28.64601.01514 42.96902-.00061 13.98992-.02692 27.9799.00903 41.96973.01349 5.27522 1.77673 7.29259 6.43964 7.66588 5.64184.45167 8.16967-1.9422 8.17858-7.95032.03113-20.98485-.02355-41.96997.09095-62.95425.00946-1.727 1.0484-3.4484 1.609-5.17237 1.38068.99477 3.07319 1.74402 4.08527 3.02912 3.39472 4.31079 6.54663 8.8128 10.20673 13.8287M1098.4525 446.879c-7.47387 6.02548-14.8214 12.21869-22.48632 17.99048-2.901 2.1845-4.74549 4.14483-3.0415 7.78949 2.0725 4.43277 5.85607 6.38925 9.57336 4.58352 20.3717-9.89611 34.64392-25.1441 40.25342-47.4607 1.19299-4.74596 3.29223-6.16146 7.89172-6.05312 11.15576.26275 22.32104.12936 33.48254.1359 3.932.00228 6.34485-1.79868 6.57935-5.89625.21045-3.67553-.68347-6.67648-5.0083-7.26138-4.41504-.5971-5.57788-3.5917-5.57227-7.49023.01343-9.1627.0332-18.32554-.00378-27.48807-.02283-5.67179-1.68323-7.3157-7.4878-7.43375-3.66357-.07455-7.33203.06638-10.99462-.02804-13.92554-.35907-16.00794 3.4519-15.53199-15.36167.12317-4.8649-1.80383-6.58597-6.61963-6.61117-5.23889-.0274-7.14709 1.62555-7.34924 6.56616-.11572 2.82764-.0127 5.6636-.04687 8.49533-.07068 5.86487-1.08264 6.8468-7.11902 6.90881-3.83118.03934-7.66846-.08108-11.49256.09503-4.25708.19602-6.68371 2.0553-6.57727 6.87427.10804 4.89118 2.7373 6.41507 6.96741 6.47281 4.16419.05683 8.32947.01282 12.49426.03153 3.88.0174 5.8208 1.89071 5.75293 5.86334-.08813 5.16269.02625 10.32956-.10461 15.4906-.15296 6.03534-1.74585 7.61178-7.8435 7.75421-4.99525.11667-10.0055.2268-14.99-.03021-4.44616-.22928-6.63635 1.78595-6.79931 5.98144-.18726 4.81696 1.9906 6.9441 6.97656 7.0596 4.16272.0964 8.33203-.06836 12.4934.05497 5.0542.14972 7.17713 2.9451 5.11793 7.54156-2.29663 5.12665-5.37354 9.90384-8.51428 15.42554m77.349-279.15395c9.33654 12.95844 18.63366 25.94573 28.03625 38.85597 2.50097 3.43398 8.55798 4.37426 13.7771 2.75777 3.7235-1.15324 4.07947-4.06123 4.083-7.11323.03297-28.64444.03785-57.28902-.02136-85.9334-.0127-6.1802-2.01745-8.21642-7.48632-8.17348-5.3136.04171-7.18494 2.19578-7.18921 8.3885-.0144 20.98373.01635 41.96757-.07068 62.95093-.0061 1.47954-.83057 2.9557-1.27454 4.4334-1.42224-.86757-3.28296-1.4113-4.19983-2.65222-10.38171-14.05142-20.63513-28.19803-30.8894-42.3433-6.44336-8.88845-12.80725-17.8345-19.25293-26.7212-2.83167-3.90402-8.6289-5.43771-13.99133-3.80199-4.96412 1.51422-4.33704 5.59117-4.3352 9.43196.01378 27.97834-.00684 55.95668-.00062 83.93503.00122 5.8457 1.90771 8.05347 6.92249 8.15305 5.32983.10582 7.18762-1.99024 7.19348-8.24692.01965-20.81721-.03443-41.63481.1101-62.4511.01331-1.92068 1.23963-3.83296 1.90284-5.74916 1.5459 1.24883 3.43799 2.24169 4.58105 3.78817 7.3191 9.9022 14.47363 19.92597 22.1051 30.49122m159.87415-29.20486c5.57031-2.57036 6.22754-4.21482 3.72058-9.59677-3.57202-7.66871-9.07568-13.46241-16.76172-17.11247-13.22375-6.2799-27.11548-5.83731-41.07446-3.83505-20.22669 2.90127-35.42346 17.28187-40.3529 37.8311-5.1565 21.49589 2.12756 42.53027 18.14416 54.50028 20.47754 15.30388 56.37683 14.04402 77.91077-.30778 4.1051-2.73595 6.50756-6.7515 6.60095-11.73328.15295-8.15817.0393-16.32167.00561-24.4828-.01587-3.82071-1.87646-5.88372-5.80847-5.88472-11.99194-.00312-23.984-.04554-35.9757-.00273-3.76917.01345-5.88026 1.93363-5.9673 5.82913-.09057 4.04866 1.80653 6.30745 5.92261 6.37619 4.66236.07785 9.3269.03395 13.99048.0339 13.29786-.00012 13.18872-.00222 13.15235 13.55344-.00977 3.62686-1.07251 6.30782-4.44837 7.50723-7.4602 2.65053-14.8468 6.33037-22.55102 7.29637-14.77906 1.85308-28.74536-1.24974-38.80017-13.47122-9.00855-10.94989-8.83557-24.10867-6.73719-37.11238 1.78455-11.05853 7.6322-20.1831 18.06238-24.82761 6.07495-2.70516 13.03662-4.38501 19.67554-4.6556 13.62366-.55529 25.90906 2.9093 32.30762 16.76007 1.7948 3.88525 4.64611 4.31062 8.98425 3.3347m-807.6814 95.36966c-.00049 25.65614-.01898 51.31233.01215 76.96843.00726 5.98 1.81232 7.7815 7.6977 7.8561 4.99725.06333 10.00323.20246 14.99212-.00655 11.28326-.4727 22.64715-.46006 33.8117-1.91953 11.06928-1.44702 18.53852-10.03632 20.73945-20.90036 1.69238-8.35336-2.19074-19.40137-12.15833-23.97366-3.39227-1.5561-3.44183-3.49808-.5564-5.94046 6.4488-5.45856 9.59143-12.18868 7.45282-20.80236-2.49493-10.04841-11.7898-17.57193-23.6975-18.101-13.79426-.61286-27.61835-.5633-41.42994-.77294-4.48736-.06813-6.79303 2.18684-6.86377 7.59233m818.50281 133.3138c-1.85693-.77906-3.69018-2.15494-5.5752-2.23008-6.81762-.27164-13.6532-.06476-20.4812-.11844-5.56079-.04373-7.02978-1.74655-5.26953-7.01315 1.54615-4.626-.35534-6.46197-4.4547-7.46008-6.28016-1.52912-8.60755-.59625-9.64735 4.16415-2.6897 12.31372-2.73816 10.17896-12.96167 10.31741-.49951.00675-.99914.0188-1.49866.02451-5.72582.06564-6.52258 1.0577-6.55883 6.68973-.03235 5.0317 2.93652 5.51996 6.8999 5.48275 5.9198-.05557 7.31677 1.87742 5.09973 7.34577-2.05273 5.06299-3.92395 10.4484-7.1643 14.71185-3.30005 4.34183-1.08497 7.57349.34008 11.05365 1.51648 3.7037 4.74036 2.56867 7.76819 2.0622 2.43616-.4075 4.97937-.21357 7.47534-.21747 10.75098-.01685 10.81275.16504 10.5758 10.729-.10082 4.49988-2.1084 6.25595-6.4757 6.1525-5.99219-.14197-11.99841.16748-17.98364-.07986-4.2179-.17432-6.31165 1.42187-6.29029 5.65383.02039 4.05796 1.34388 6.65433 6.1294 6.46369 5.98608-.23847 11.98938-.07956 17.98498-.04141 5.74976.03659 6.51282.82907 6.5791 6.74752.03724 3.33048.13709 6.66873-.03442 9.99088-.18982 3.67355.95825 5.78525 5.03992 5.5166 3.80285-.25037 8.57983 1.2754 8.68957-5.1264.05994-3.49652.0088-6.99479.03687-10.49204.05005-6.23569.39392-6.59497 6.43518-6.63684 3.99707-.0277 7.99475-.04306 11.99146-.00095 4.43786.04676 4.99743-2.73669 5.02417-6.31802.02624-3.52887-.77088-5.85638-4.92798-5.73938-4.49317.12653-9.03528.3769-13.46875-.15439-1.7782-.2131-4.4419-2.11313-4.7953-3.67639-2.41881-10.70209-.45849-12.99005 10.22694-12.99527.83276-.00043 1.66577.01386 2.49829-.00278 5.60254-.11206 6.32422-1.03277 6.47973-6.35238.14783-5.04764-2.75244-5.78043-6.74438-5.55725-1.82642.10214-3.6632.02362-5.49524.01956-7.05505-.01563-7.21533-.17984-7.20667-7.32697.0105-8.69357-.89892-9.4529-9.45715-8.95468-3.2312.18808-4.42456 1.6049-4.31238 4.69327.09668 2.65808.2821 5.3837-.16967 7.97519-.78247 4.48724-4.56495 4.14297-7.44776 3.1827-1.1604-.38656-2.32446-3.83895-1.8634-5.42379 1.2445-4.27805 3.50744-8.24731 5.08642-12.44443 1.29029-3.42999 3.40052-4.94354 7.13636-4.8635 8.15722.17484 16.32068.0528 24.48156.05525 8.75428.00262 8.97705-.22953 8.30518-9.80607m-83.3811-119.70169c.00012 21.16098-.02344 42.32196.01648 63.48288.0105 5.59583 2.00317 7.73892 6.81494 7.6936 4.51489-.04253 6.17639-2.02831 6.18322-7.62426.0221-17.99515-.04833-35.99072.0885-53.98487.01295-1.71649 1.22681-3.42385 1.88318-5.13545 1.4032.99126 3.16504 1.71106 4.15332 3.01653 8.037 10.61676 15.92652 21.34518 23.8661 32.03567 7.0465 9.48786 14.05651 19.00336 21.1737 28.43793 2.43042 3.22162 8.49951 4.4484 12.79602 2.92029 4.13391-1.4703 3.84314-4.90735 3.80322-8.28766-.04321-3.66516-.00976-7.33124-.00952-10.99692.00159-21.82748-.04663-43.65518.05152-65.48222.01745-3.88994-1.18885-6.50147-5.22046-7.2105-4.82325-.84825-7.81604 1.7748-7.828 6.99503-.04188 18.32832.02734 36.6571-.10108 54.98459-.01086 1.56335-1.17126 3.11859-1.7976 4.67767-1.3114-.83212-2.91175-1.417-3.87708-2.54523-2.37659-2.77768-4.47388-5.79568-6.66114-8.7337-12.72229-17.08911-25.44165-34.18037-38.15368-51.27711-3.05579-4.10985-8.21326-5.60192-13.27784-3.74901-4.30334 1.57434-3.9093 5.27467-3.90466 8.78706.00489 3.66568.00098 7.33138.00086 11.99568m-563.83954-136.7673c-8.10858 18.9757-16.21515 37.95224-24.32654 56.92676-5.23236 12.23994-10.52863 24.45326-15.6297 36.7476-.5777 1.39234-.76337 4.01392.04804 4.73024 3.40478 3.00601 13.72699.20738 15.54022-4.06795 2.9865-7.04206 5.83801-14.14408 8.60058-21.27734 1.31586-3.39772 3.45484-4.8894 7.1889-4.84386 12.1634.14841 24.3307.13926 36.49433.00008 3.3064-.03781 5.336 1.2001 6.59863 4.16267 2.5448 5.97107 5.16938 11.90818 7.77014 17.85533 3.96381 9.06394 3.96705 9.06255 14.07953 8.92052 5.86017-.08229 6.45392-.9979 3.97254-6.4768-13.18268-29.10782-26.391-58.20403-39.58594-87.3063-3.8847-8.56773-11.95673-10.95364-20.75073-5.37095m401.14032 51.28857c-7.2395-16.08456-14.65808-32.09207-21.62976-48.2919-2.75452-6.40072-7.84632-5.48604-12.97303-5.65518-4.53027-.14945-6.96057 2.00543-8.61523 6.04334-4.98376 12.16192-10.17163 24.2407-15.32776 36.33143-7.57214 17.75634-15.24353 35.47092-22.68408 53.28206-.67194 1.60852-.73315 4.8162.22595 5.5304 4.25525 3.16896 13.43567-.056 15.51453-5.10433 2.72302-6.61227 5.47485-13.21763 7.9685-19.91745 1.43189-3.84668 3.85425-5.3505 7.93189-5.29356 11.66162.16287 23.33179.24626 34.98865-.03986 4.39868-.10795 6.7611 1.55086 8.33361 5.45738 2.85743 7.09891 5.68982 14.23996 9.17163 21.03614 1.05054 2.0506 4.0503 3.4614 6.45826 4.3438 1.91064.70022 4.28222.19926 6.44665.13914 4.7909-.13309 5.3982-1.05171 3.47144-5.33112-6.28662-13.96333-12.60205-27.91368-19.28125-42.53029m-195.97132 31.9373c5.62983-7.21072 11.28303-14.40336 16.88062-21.63902 3.32233-4.29457 4.53705-4.3127 7.8285-.06767 8.66888 11.1804 17.4586 22.26889 25.9926 33.55096 2.26899 2.9997 4.86762 4.29885 8.49042 4.10222 2.15918-.1172 4.35083.16573 6.48908-.07527 1.53467-.17296 3.00519-.91539 4.50433-1.40378-.6391-1.43588-1.01715-3.07612-1.95715-4.2764-10.8758-13.88726-21.8202-27.72106-32.78131-41.5413-6.2019-7.81958-6.22553-5.38307.20263-13.27802 9.87647-12.13006 19.95978-24.0919 29.97986-36.10468 1.37695-1.65077 2.8158-3.28676.02497-4.79033-3.69696-1.99177-13.24085.2543-16.01154 3.61158-8.15534 9.88211-16.30853 19.76604-24.48761 29.62851-2.9779 3.5908-4.53882 3.51499-7.37433-.1799-6.48388-8.44891-13.36938-16.62394-19.34057-25.4202-4.09296-6.02941-8.74622-9.31378-16.09577-7.95838-1.8648.34389-3.7154.76452-5.57257 1.1499.82898 1.87125 1.3205 4.00506 2.5401 5.5724 10.11627 13.00064 20.3114 25.94124 30.62665 38.78446 1.94 2.41534 2.01453 4.18913.03076 6.5317-6.88178 8.12647-13.63055 16.36551-20.43732 24.55562-5.42346 6.52564-10.9599 12.96225-16.18908 19.6397-.89893 1.14788-1.30854 4.1367-.5719 4.84236 2.49798 2.39253 14.85315.29867 17.1601-2.56003 3.23888-4.01357 6.40246-8.08797 10.06853-12.67442M861.26276 274.5c.00012 12.4956-.07074 24.99185.03656 37.48654.04046 4.70832 2.28521 6.73432 6.78741 6.72772 4.98334-.00729 6.93848-1.88354 7.03345-6.89596.06634-3.49753.43439-7.05878-.0655-10.48462-1.52953-10.4834 1.79438-18.53143 11.03132-23.96372.28265-.1662.5003-.43926.76263-.6441 3.87201-3.0238 6.24451-2.84772 9.3197 1.06412 8.95118 11.38632 18.06019 22.6625 26.59113 34.3584 3.51434 4.81814 7.25494 7.67529 13.25037 6.55166 2.2533-.42233 4.41491-1.3342 6.61828-2.02292-.98925-2.12948-1.59839-4.56521-3.0282-6.33972-10.9624-13.60522-22.11267-27.0589-33.14154-40.61096-3.80969-4.6813-3.66284-6.63199.6991-10.57462 3.94867-3.5691 8.0415-6.97846 12.0586-10.47224 6.15325-5.35164 12.3504-10.65477 18.41882-16.10124 2.70697-2.42958 2.32806-5.78603-.7027-6.02782-5.1579-.41153-10.33179-1.33658-14.99982 3.02764-13.24646 12.38427-26.86407 24.37313-40.42913 36.41223-1.21137 1.0751-3.10236 1.38437-4.67774 2.04925-.56378-1.61648-1.591-3.22592-1.6156-4.85058-.15137-9.99422-.15247-19.99276-.03906-29.98798.04547-4.00989-1.59241-6.32132-5.59137-6.87105-5.39289-.74129-8.24262 1.60765-8.2793 7.18412-.08765 13.3281-.03375 26.65718-.03741 40.98585m194.60675 40.22781c.08801-11.32818.29468-22.65734.19775-33.98394-.03284-3.82096 1.36426-5.60584 5.15466-5.60273 14.1659.0117 28.33167-.00457 42.49756.00486 3.59046.00238 5.40332 1.41204 5.32166 5.43017-.20984 10.32831-.08728 20.6641-.03894 30.99661.02368 5.04563 2.08777 7.16336 6.77478 7.17026 4.8645.00717 7.06738-1.99518 7.07861-6.96103.05908-26.1651.06323-52.33044.00635-78.49553-.01099-5.03314-2.20117-7.04355-7.02002-6.99856-4.80786.04487-6.81726 2.06863-6.84375 7.1075-.04382 8.3326-.19287 16.67163.07422 24.996.13904 4.33804-1.31482 5.86816-5.71424 5.79983-13.82922-.21478-27.66613-.22094-41.49511-.00204-4.39344.06952-5.90198-1.4679-5.79346-5.78116.2135-8.49382-.0061-16.99763.06152-25.49643.03015-3.79703-1.70532-5.96231-5.39782-6.5633-5.6831-.92503-8.59375 1.68278-8.60352 7.93035-.03992 25.49852-.11804 50.99822.1477 76.49403.02613 2.5138 1.67737 6.13196 3.6819 7.2478 3.21496 1.78962 7.17907 1.2838 9.91015-3.29269m75.06591-1.19537c.13733 1.61469-.3407 4.06854.51856 4.69873 3.70447 2.7165 12.19067-.15433 14.01697-4.48099 2.52258-5.97653 5.06262-11.95175 7.34082-18.02298 1.30237-3.47088 3.44665-4.91153 7.14233-4.8674 10.49622.1253 21.00037.22623 31.49024-.06347 4.44506-.12278 6.76391 1.7889 8.29113 5.60122 1.9176 4.78708 4.02137 9.49945 6.03553 14.24802 3.47839 8.20013 3.47534 8.20141 12.03283 8.09442 6.02478-.07532 6.64295-1.07764 4.06665-6.77527-12.13464-26.83853-24.37512-53.62991-36.34448-80.54194-2.2898-5.1485-6.16492-5.15764-10.65088-5.20472-4.22827-.04438-7.08178.9279-8.93762 5.3423-11.41382 27.1507-23.10657 54.18412-35.00208 81.97208m-147.20123 6.4689c3.66284.0029 7.35028.28317 10.9842-.03958 15.32995-1.36166 27.23773-8.18472 34.2323-22.32391 2.89355-5.84924.55334-9.89887-5.81873-10.53876-4.12506-.41424-6.0122 2.19037-7.22785 5.5441-8.0434 22.18927-41.92804 20.58542-52.61773 5.65414-7.87543-11.00027-8.39966-23.14322-6.49604-35.7694 1.57831-10.4678 6.45404-18.8589 16.32056-23.57275 16.34961-7.81129 32.03961-3.33053 41.92548 11.79989 2.2312 3.41487 6.1936 4.31384 10.1012 2.02736 3.61413-2.11481 3.65734-5.25724 1.86742-8.61971-.77685-1.45956-1.6908-2.85988-2.66284-4.19978-12.86724-17.73735-40.99981-18.27994-57.58856-10.55207-15.89282 7.40366-23.80664 20.33554-25.10858 37.83635-1.64948 22.17288 8.3949 50.5889 42.08917 52.75412m-76.52936 132.72504c8.63013-6.7893 17.30823-13.51886 25.87024-20.39307 4.30371-3.45526 6.8385-3.82846 10.93122-.07525 7.11505 6.52493 13.98254 13.32177 20.89398 20.06594 4.39636 4.29008 7.49426 4.51447 11.53186.62842 3.78638-3.64413 3.6748-7.26962-.84906-11.5646-6.39581-6.07212-13.00562-11.9192-19.53809-17.8469-5.83795-5.29751-5.77118-7.56927-.58813-13.73004 5.46155-6.49182 10.66516-13.21094 15.76294-19.99493 3.4641-4.60999 3.148-8.42923-.39734-10.8892-4.39703-3.0509-7.711-2.07714-11.32593 2.75416-5.2779 7.05365-10.62707 14.07077-16.29352 20.81125-4.11078 4.89001-6.37207 4.79892-11.39447.8326-7.96936-6.29372-15.91998-12.61233-23.95746-18.81826-3.92175-3.02814-7.65289-2.7869-10.12109.35834-2.70904 3.45209-1.91528 6.73767 2.32819 10.17251 6.72741 5.44538 13.44781 10.90073 20.10022 16.43705 6.60125 5.4937 6.67547 8.60583-.1571 13.74078-8.11048 6.09549-16.47413 11.85574-24.76515 17.70877-4.97259 3.51029-4.92071 8.7674.04584 12.1608 4.51386 3.08407 7.82196.2973 11.92285-2.35837m337.04871 14.98865c2.31043-1.6282 4.646-3.22208 6.92578-4.89215 3.83533-2.80945 1.82117-5.98645.20777-8.80603-1.61841-2.82865-4.00123-2.30634-6.40345-.66779-1.99304 1.35935-4.1289 2.50934-6.3457 3.83856-.43323-1.05053-.75794-1.48123-.76831-1.91943-.08753-3.66205-.15381-7.3255-.1576-10.98856-.0105-10.2612-.0028-10.3121 10.24317-11.3822 4.21619-.44034 5.01501-3.14041 4.94238-6.66656-.0703-3.41703-1.58947-5.1033-5.16674-5.2786-10.06665-.49325-10.06263-.5752-10.02222-10.76025.00268-.66645.06787-1.33927-.00049-1.99826-.4049-3.89576 1.32593-5.632 5.21118-5.19275 4.1692.47134 5.77625-1.71161 5.78894-5.55167.01416-4.26434-1.91504-6.45077-6.38757-6.38849-7.8888.10996-15.78015.03076-24.3241.03076 1.96997-3.50418 3.68494-6.14474 4.9889-8.9746 1.76452-3.82941 4.50341-5.39298 8.71288-5.1667 4.65174.25 9.32947-.03521 13.99158.08418 4.04077.10342 6.3191-1.3964 6.34168-5.73285.02307-4.4389-2.17017-6.37198-6.46863-6.30143-2.66504.04374-5.3313.00336-7.99707-.00817-5.9629-.0258-6.02039-.04099-4.72315-5.80457.9441-4.19397-.5636-6.87366-4.69995-7.87836-3.85144-.93551-6.05847.66712-7.64783 4.41175-3.55834 8.3837-7.47204 16.6257-11.50146 24.79696-2.51684 5.10392 1.354 14.11475 7.01843 15.38791-.0343 3.98535.70215 7.36307 5.87769 7.32129.74158-.00601 2.1228 1.0906 2.13806 1.70352.11316 4.56473.58716 9.29248-.48389 13.61417-.3396 1.37018-4.99878 2.18213-7.72949 2.32461-3.87927.20243-5.90698 1.47632-5.96374 5.56543-.07312 5.25187 1.13537 6.44104 7.46032 6.43537 3.4425-.00312 7.38245-.26044 7.28748 4.51007-.22766 11.43619 2.95093 23.35943-4.66773 33.86532-2.72851 3.76258.83484 6.36542 2.97315 8.47953.88623.87613 4.26965.2578 5.81567-.7536 5.1449-3.36576 9.97168-7.21808 15.53406-11.25641m-164.13696-74.47623c-.05823-7.17172-.90845-8.04004-7.96277-8.1326-6.6018-.0866-7.99915-1.51938-8.02075-8.34695-.02478-7.8227.00537-15.6456-.01905-23.4683-.01379-4.42709-2.51123-6.21057-6.68994-6.17791-4.10864.03213-6.65136 1.55804-6.56994 6.17306.11157 6.3227.01513 12.64905.01513 18.97382-.00012 11.87616.00208 11.87613-11.56237 12.85046-4.47693.3772-6.38807 2.65775-6.2052 7.27692.16394 4.14087 2.25073 6.03189 6.3883 5.76575 1.49158-.09592 2.99768-.07676 4.4917-.00083 4.52759.23023 6.98828 2.29001 6.92737 7.18259-.13477 10.81705-.1062 21.63751-.0072 32.45535.03527 3.8692-1.57496 6.26108-5.22046 7.49167-2.98963 1.00919-5.9552 2.11603-8.85523 3.35773-4.6936 2.00964-5.39612 4.33184-3.11426 9.6066 2.06922 4.78314 4.2915 5.80978 8.98413 3.76779 11.5818-5.03986 23.1327-10.15134 34.65894-15.31705 4.74353-2.12592 5.69263-4.5304 3.99658-9.10953-1.67065-4.51068-4.99719-4.09997-8.61511-2.98602-6.19543 1.9075-8.5409.16083-8.59265-6.48471-.0531-6.82376-.01587-13.6482-.0122-20.47235.00439-8.18234 1.19811-9.42307 9.56164-9.49128 3.06665-.02502 5.70398-.41082 6.42334-4.91421m242.33435 74.7402c-14.37537.30176-28.59534.3826-41.21106-8.5224-3.32459-2.3467-4.62415-4.49618-4.5802-8.40048.1748-15.48144.08935-30.96591.073-46.44928-.00635-5.91766-.59192-6.46377-6.66956-6.4914-3.8291-.01739-7.66284.11002-11.48657-.03374-3.96094-.14896-5.88672 1.32638-5.64258 5.53976.21228 3.66415-.6936 7.82034 5.23035 7.27414 3.59997-.33188 5.03576 1.22049 4.9917 4.9394-.14978 12.65133.07483 25.30816-.18128 37.95605-.03845 1.9036-1.4967 4.16867-2.96289 5.57226-3.10412 2.97171-6.80884 5.31528-9.9204 8.28049-1.05921 1.00925-1.89308 3.402-1.44117 4.66626 3.25049 9.09308 7.92688 9.95352 13.79077 2.7988.52747-.64356 1.08655-1.2612 1.6228-1.8978 5.52014-6.5534 7.18848-6.37637 14.7234-2.30716 6.77563 3.65921 13.96471 7.84912 21.35448 8.78738 12.78333 1.62311 25.8623 1.04505 38.81897 1.12946 8.03882.0524 8.55725-.63782 9.94715-8.49606.65344-3.694-.21167-5.77466-4.55274-5.45188-6.96338.51783-13.9475.75406-21.90417 1.1062m-570.9491-67.86282c-4.49219-.00134-8.98492-.044-13.4765.00607-6.0282.06723-8.66303 2.4997-8.71661 8.3667-.09882 10.81366-.11158 21.62961-.00226 32.44303.057 5.63543 2.67853 8.04785 8.40081 8.06051 14.4748.03205 28.94971.03043 43.42457.0079 5.67022-.00884 8.43506-2.36978 8.53466-7.99157.19147-10.81098.16834-21.62988-.00787-32.44156-.09741-5.97449-2.76544-8.40658-8.70715-8.44308-9.4831-.0583-18.96692-.01069-29.44965-.008M617.86188 271.5c.00036 13.16156-.01496 26.32318.00781 39.48471.01099 6.34036 1.31433 7.72049 7.534 7.73673 16.16021.04223 32.32068-.01004 48.4809.02969 3.97991.0098 7.55865-.55417 7.98522-5.44376.33655-3.85739-2.58838-5.99933-7.96716-6.01828-11.99518-.04226-23.99457-.2096-35.98377.05637-4.78778.1062-6.34387-1.44476-6.2979-6.27414.21435-22.48926.12755-44.98169.08367-67.47286-.01-5.1267-2.12262-7.29037-6.72162-7.31574-5.19006-.02862-7.08685 1.83305-7.10528 7.23167-.04206 12.32841-.01502 24.65706-.01587 37.98561m371.3872-153.74646c.00678 28.14722-.0039 56.29448.03504 84.44165.00787 5.72943 2.18365 7.7622 7.92633 7.72475 5.41626-.03533 7.66852-2.10572 7.6773-7.51537.04713-28.97995-.01446-57.96013.06458-86.93994.01215-4.47649-1.87372-6.88783-6.29083-7.34577-6.78784-.70373-9.23425 1.56443-9.41242 9.63468M1245.27502 283.5c.02552-16.4979-.00231-32.99612.10938-49.4934.03308-4.88233-1.71228-7.42643-5.75562-7.56557-5.70178-.19626-7.73303 1.59171-7.73925 7.07697-.02942 25.9982-.03028 51.9965-.0055 77.99476.00489 5.19696 1.92151 7.18527 6.6709 7.20459 4.71936.0192 6.66529-1.98914 6.70142-7.21927.06213-8.99896.01843-17.99869.01867-27.99808m-456.67004 33.56357c8.9452 3.35193 18.29755 3.81195 27.56519 2.72558 14.8385-1.73938 26.35809-8.8829 32.61248-22.97702.96936-2.1845.7292-4.90579 1.0484-7.37881-3.17443-.28638-6.49878-1.2634-9.47094-.6181-2.0061.43557-4.22675 2.84439-5.13764 4.90664-9.3808 21.23981-43.75305 20.07492-54.1795 2.10858-.77387-1.3335-1.85309-2.48986-3.33478-4.44812-1.71655 3.11847-2.80102 5.49067-4.24267 7.62119-2.70142 3.99213-1.79853 7.39075 1.78802 9.95206 4.0268 2.8757 8.38495 5.28744 13.35144 8.108m371.37366 160.48999c1.38244.91995 2.71045 1.9378 4.15735 2.74194 4.65588 2.58759 7.99853 1.14148 11.5454-4.90082 2.03028-3.45861.75904-5.93206-3.46496-8.83718-5.03381-3.46213-10.21826-6.94608-14.42847-11.29966-4.56616-4.72143-8.12841-10.42352-12.04663-15.75802-2.48132-3.3782-7.4757-4.63996-10.97766-2.46933-3.6853 2.28433-3.08435 5.29113-1.448 8.64648 6.14978 12.61035 14.37488 23.46744 26.66297 31.87659m110.53051-89.40598c5.9889-2.08996 6.37732-2.72503 4.10022-8.58334-2.10327-5.4114-4.36682-10.76575-6.7279-16.0704-2.47742-5.56601-3.61646-4.4881-10.65478-2.12235-3.78016 1.27057-2.32508 4.4497-1.22205 7.15527 2.19201 5.37656 4.63305 10.68335 6.3479 16.21228 1.32764 4.27982 3.55762 5.21122 8.15661 3.40854z"/><path fill="#1864AA" d="M313.99164 216.01279c-.34577-.04228-.61588-.20793-1.03644-1.04312-1.93262-1.84842-3.63916-3.1506-5.3457-4.4528 0 0 .20898-.11257.10962-.41592-.6499-.56317-1.20041-.82303-1.75092-1.08288 0 .00001.0296-.02155-.07187-.23938-.37912-.40084-.65674-.58385-.93438-.76685 0 0 .04083-.01163.01443-.344-2.68558-2.43906-5.34476-4.54575-8.00397-6.65244 0 0 .02912-.01522-.0039-.35933-1.10715-1.02025-2.18128-1.69638-3.25544-2.37252 0 0 .13678-.19938.05472-.37696-.41354-.33846-.74502-.4993-1.0765-.66014 0 0 .19525-.06612.15759-.37348-.991-.82147-1.94437-1.3356-2.89774-1.84973-7.31436-4.84244-14.24405-10.45224-22.02933-14.35533-13.11383-6.57454-25.87121-5.24652-36.92483 5.07472-29.2046 27.26967-58.46947 54.47716-87.43593 81.99825-12.11107 11.50677-17.73547 26.17382-18.75119 42.83938-2.49837 40.99191-.56837 81.897 1.80775 122.81262 1.33185 22.93384 2.57557 45.88196 3.1886 68.84153.13964 5.22903-1.89399 10.78756-4.00659 15.73342-2.39447 5.60572-8.5088 8.04132-13.3306 4.96058-15.8604-10.13361-30.39644-21.93973-32.01963-42.49753-.7516-9.51908 1.10946-19.23139 1.61295-28.86514 1.41627-27.09855 2.8208-54.19816 4.08044-81.30433 1.05087-22.61319 1.00531-45.31714 3.06414-67.83288 2.20631-24.12866 12.16474-45.03726 30.81817-61.36379 20.674-18.09504 41.44352-36.10496 61.53065-54.83902 16.35968-15.25769 31.14691-32.0069 39.86998-53.12751 4.30354-10.4199 7.0599-27.3064 6.28072-37.49294-11.4425 0-22.89572-.37292-34.31725.07039-33.38657 1.29587-66.18012 6.30906-98.19678 16.16825-5.0006 1.53989-10.44619 1.97182-15.71768 2.20733-6.21074.27749-9.77286-4.17011-9.00112-10.33962 2.8705-22.9474 27.00679-45.56647 50.0877-45.54635 17.44223.01521 34.87181 2.11787 52.3266 2.65513 39.27855 1.209 78.56807 2.71787 117.85538 2.78481 33.4325.05698 66.95977-.28666 100.12759-5.63623 9.51096-1.534 18.92422-3.66984 28.3916-5.48101 1.78583-.34165 3.61887-.65779 5.42478-.63068 4.89688.07352 6.93689 2.47643 6.23932 7.38647-.25379 1.7864-.87632 3.5565-1.56122 5.24023-11.20234 27.53981-31.5748 40.50085-61.04755 38.1975-22.73593-1.77685-45.40747-4.37032-68.1387-6.21877-7.75846-.63091-15.61136-.10013-23.73114-.10013-2.98395 10.08135-6.0814 20.54617-9.65018 31.49558-2.09235 3.1313-3.83276 5.71347-5.30685 8.43967-2.2839 4.224-1.31229 6.03468 3.23858 7.72505 3.30728 1.22847 6.39038 3.04797 9.62155 4.49658 4.88782 2.19133 9.81748 4.28923 14.72937 6.42682 0 0-.07205.04643-.06677.37646 4.83872 4.72226 9.65445 9.1346 14.54999 13.45653.29166.2575 1.2229-.2095 1.85654-.33937 0 0-.0256.08972-.03824.45139 2.5408 2.56898 3.06793 7.47662 8.0671 6.42474 0 0 .05695.11746.0178.49803 2.28467 2.15615 4.60852 3.93172 6.93237 5.7073 0 0-.28073.11938-.14807.38647.47568.34506.81863.42302 1.16162.50096 0 0 .0434.10003.0091.46089 3.77429 4.65622 7.50271 9.02858 11.47552 13.16635.61658.6422 2.35062.21152 3.5679.277 0 0 .03555.1194.00757.46296.50452.62816 1.03705.91277 1.56958 1.19736 0 0-.04245.02664-.0394.39204.12683 1.1754-.0416 2.2597.42063 2.75196 3.68304 3.92271 7.37316 7.852 11.27884 11.54931 5.4075 5.119 10.95248 10.09748 16.56622 14.98972 1.07931.9406 2.74728 1.20569 4.1437 1.7824 0 0-.00115.09545-.00646.41167.33038.44822.66604.58017 1.00173.71213 0 0-.0278.15935-.10082.45511 2.64984 2.69669 5.37268 5.09763 8.09551 7.49857 0 0-.00897.08717-.08874.4416 2.89242 3.22961 5.86465 6.10481 8.83688 8.98.55658.50763 1.11313 1.01527 1.75107 2.15924 1.55151 2.28338 3.02164 3.93042 4.49176 5.57745 0 .00002-.1517.22778-.1083.39215.35162.36292.65988.56146.9681.76001 0 0-.11877.0386-.03668.34818 1.00809 3.5542 1.47855 7.14398 5.7803 7.83123 0 0 .00321-.00613-.0054.37708 2.08112 5.60129 4.0189 10.88766 6.32257 16.00952 1.21186 2.69434 3.06336 5.10092 4.62604 7.63745 0 0 .06177.02075.03128.48545.6623 8.37106 1.45398 16.27041 2.01682 24.186.45843 6.44723.66623 12.91303.92721 19.37292.04612 1.14197.19675 2.55304-.36431 3.40076-3.08332 4.6587-.7995 8.43991 1.68752 12.25037.20606 1.80032.41208 3.60061.33005 6.1832-.37607 4.20501-.65234 7.63775-.47302 11.04647.0904 1.71808 1.00693 3.39273 1.5499 5.08704.06182.44226.12365.88455-.10944 1.98422.03198 4.4325.35886 8.20755.68573 11.98264.21039 2.04641.42072 4.09283.33676 6.91223.0159 6.89535.32611 13.0177.63626 19.14007.08036.60126.1607 1.20255.03974 2.47132-.00345 2.28357.1944 3.89963.3922 5.51568.05906.4429.11808.8858-.11791 1.99253.24405 6.70187-2.63608 12.96869.91882 18.80493.1413 1.11404.2826 2.22806.12738 4.09412.41895 9.79272 1.13446 18.83346 1.84995 27.8742.15664 1.11984.31326 2.23969.17474 4.1123-.11117 12.59605-1.02612 24.335-3.6337 35.91324-.08719.32364-.17434.64731-.78259 1.23142-.68695.64825-.85281 1.03595-1.01868 1.4237.00004 0-.0376.3083-.53985.39771-2.5369 1.75855-4.5715 3.42767-6.60611 5.0968 0 0-.19617.22785-.79593.16565-2.8677.30975-5.3057.27057-7.3735 1.12616-8.12116 3.3601-15.75946 2.39533-23.06519-2.09546-3.98471-2.4494-5.07861-6.26697-4.44544-10.73425 1.89698-13.38416 4.00623-26.74457 5.53715-40.17078.53189-4.6647-.3851-9.49463-.64035-14.24911.00854-1.40827.01711-2.8165.51922-4.77234 1.0783-7.09 2.11203-13.62863 2.16742-20.17554.20297-23.97632.10764-47.95553.0108-71.93316-.00564-1.40024-1.01535-2.7964-1.55783-4.19446-.06585-.4434-.13174-.88678.10034-1.99466.0341-14.06708-.14053-27.47272-.59045-40.86908-.06699-1.99475-1.42947-3.94592-2.19263-5.91727-.17318-.47583-.34637-.95166-.25207-2.11789-.13352-5.1946 3.91952-10.50592-2.18454-14.03512-.4174-.2413.07114-1.76377-.3457-2.34064-1.88977-2.61517-3.95331-5.10477-5.95432-7.63956 0 0 .06912-.02832.06299-.3696-.79273-1.36252-1.57932-2.38376-2.36594-3.405 0 0 .2286-.16021.20761-.4386-2.51648-4.64385-4.9638-9.03863-7.57812-13.33169-.27713-.45505-1.53388-.31348-2.33618-.4487 0 0 .07422-.0382.06878-.35675-1.06863-1.45132-2.13186-2.58414-3.19506-3.71693-.17734-.13268-.35471-.26537-.65976-1.06469-1.62699-2.20526-3.12623-3.7439-4.6255-5.28253 0 0-.0267-.11456.01346-.43211-.44375-.6272-.92764-.93683-1.41156-1.24646 0 0-.07934.01352-.12078-.37242-3.61393-9.36998-12.36905-13.52751-18.50571-20.12368-.29147-.31327-1.2295-.02505-1.8664-.01695 0 .00002.2776-.02388.14017-.33294-.48166-.42757-.8259-.54607-1.17013-.66455 0-.00002.02636-.16384.09918-.47883-.17587-4.40455-2.85336-5.2464-6.28989-5.07328 0 0-.23275-.01726-.30127-.4761-1.74899-1.77168-3.4295-3.08453-5.10998-4.3974z"/><path fill="#1864AA" d="M299.117 290.5299c.08896-.39965.17786-.7993.88376-1.42397.86844-.98545 1.11994-1.74588 1.37137-2.50632 0 0 .10333-.0946.50305-.00134.81363-.61329 1.22751-1.31983 1.64136-2.0264 0 0 .04358.12323.35938.092.4913-.35512.6668-.67898.84234-1.00286 0 0 .07752.10294.4115.0552 4.3028-.94222 8.26547-2.52554 12.24191-2.56084 5.2346-.04651 10.47995 1.12387 15.7207 1.771 0 0-.0664.058.06364.26546.47012.3126.81027.41779 1.15039.52295 0 0-.12516.04624-.0456.29956.62671.49149 1.1738.72965 1.72089.9678 3.87833 3.25138 5.06894 7.51227 4.89114 12.41016-1.1336 31.22962-2.09115 62.46628-3.38638 93.68903-.42609 10.27093-.93344 20.63913-2.70749 30.73373-4.39654 25.01654-18.45355 38.4921-43.83166 43.09644-5.0579.91766-10.19309 1.40933-16.12168 2.03198-3.51117.1658-6.19333.39703-8.87545.6283-1.06907.07608-2.1381.15216-3.94288-.0745-8.97319-.3735-17.21072-.43713-25.44809-.51876-3.18277-.03159-6.36514-.10386-9.5477-.1576-.46203.00577-.92407.01154-1.81616-.48791-4.77028-1.97312-9.08453-3.5245-13.45782-4.8862-4.65804-1.45038-9.37193-2.72132-14.06145-4.07059 0 0 .29916-.27515.14311-.48804-1.8057-1.03845-3.45535-1.86407-5.105-2.68966 0 0 .11234.02127.11478-.30014-1.72445-1.41996-3.45135-2.51853-5.17826-3.6171 0 0 .13484-.03177.0777-.28036-.57516-.51996-1.0932-.79139-1.61121-1.06278 0 0-.07785.03577-.08234-.36539-.70616-1.64883-1.24594-3.02838-2.13672-4.12207-4.62172-5.67471-9.4009-11.11456-10.37552-18.93676-.36874-2.95938-2.47897-5.70179-3.79538-8.5431-.17845-.43066-.3569-.86132-.27447-1.95745.35289-1.48355.52402-2.30158.52511-3.11979.01662-12.36953.0543-24.7394-.02478-37.10848-.01655-2.58875-.4827-5.17466-.7417-7.76188.05979-1.50796.11957-3.01593.4792-5.29422.25948-6.86212.21914-12.95391.1788-19.04568-.24953-.25034-.33686-.54822-.08265-1.37625.10823-1.00846.03713-1.53424-.03396-2.06006-.19954-1.13351-.39907-2.26703-.30994-4.15106-.4696-7.90378-1.02913-15.08634-2.079-22.1965-.45202-3.06138-1.92-5.97272-2.92646-8.95225-.08019-.72811-.16037-1.45623.18579-2.6585 1.6545-4.85831 2.88267-9.24247 4.11082-13.62662 0 0 .0409.1379.27742.0615.34238-.4246.44825-.77277.5541-1.12095 0 0 .12887.00089.44783.08731 5.5302-2.38717 10.74147-4.86075 15.95272-7.33432.46111-.00674.92223-.01349 1.84098.4426 9.361 2.14157 16.56915 5.80035 18.58664 15.71618.1218.5987 1.17997 1.00684 1.80243 1.50367.14863 2.70962.29727 5.41928-.05675 8.72528-1.35303 6.02014-2.2818 11.43414-2.96079 16.87927-.0913.73215 1.07651 1.62125 1.66127 2.43765 0 0 .09888-.02801.2117.41013 10.7099.58584 21.30698.73358 31.90404.88132 3.71433-.05509 7.42867-.11014 11.69258.04977.54958.21493.9982.27865.9982.27865l.3435-.31655c.756-.05704 1.51202-.11405 2.8394.15759 7.67642-.04907 14.78149-.42685 21.88653-.80463 1.80075-.18744 3.60147-.37487 6.18408-.28119 4.24399.37387 7.71533.64624 11.1637.47004 1.357-.06937 2.66275-1.14078 3.99185-1.75586 0 0 .04834-.13071.39935-.13721.90604-.48389 1.46103-.96127 2.01605-1.4387l-1.99826-1.58828c-.1272-.44342-.25442-.88687-.12033-1.8841.00241-1.73422-.25644-2.91463-.51532-4.09502-.2145-.7511-.42901-1.50217-.36755-2.9776.73322-7.64914 1.19043-14.57392 1.64764-21.49872m-20.61761 69.48398h-75.21803c.99473 16.93667 1.2344 33.54403 3.19679 49.94528 1.26974 10.61212 8.04721 19.08533 18.3172 22.62338 21.39763 7.37167 42.83111 6.89319 63.48605-3.12665 7.88916-3.82705 12.52555-10.36484 12.6887-19.38516.27343-15.11642.35336-30.2366.45196-45.3556.00928-1.42126-.42856-2.84539-.7297-4.70617-7.26792 0-14.23041 0-22.19297.00492z"/><path fill="#969796" d="M563.76404 440.72882c-6.66803 14.84894-16.45795 26.57623-29.81891 35.23819-4.35736 2.82498-8.11926 2.16708-10.94885-1.66199-2.5708-3.47897-1.98535-7.77234 1.9522-10.41098 20.4928-13.73272 29.64283-33.99518 32.98719-57.4547 1.38269-9.69868 1.95215-19.51731 2.75775-29.2924.3844-4.66415-2.8252-7.85452-8.13605-7.96823-7.49621-.16055-14.99835-.0277-22.49786-.05774-5.18878-.02078-7.86932-2.08536-8.03235-6.09472-.18213-4.47892 2.73255-7.14176 8.14911-7.14579 39.16461-.02908 78.32916-.03067 117.49377.00626 5.50055.00519 8.32996 2.34741 8.2807 6.487-.0548 4.6083-2.67077 6.73837-8.46539 6.74426-20.16559.0206-40.33124.00342-60.49683.01071-9.19756.00333-10.49157 1.21787-11.24774 10.43692-.21759 2.6531-.59582 5.30149-.6552 7.9575-.1377 6.16299 2.09234 8.55202 8.30932 8.58004 16.49853.0744 32.99774.02042 49.49664-.00449 7.80365-.0118 9.98486 2.16266 9.9873 10.12278.00648 20.66555.01056 41.33114-.00335 61.9967-.00592 8.76916-2.0492 10.77374-10.94959 10.788-9.33282.01495-18.66589.03842-27.99847-.01285-5.27045-.02897-8.69165-2.88236-8.5686-6.97031.1333-4.42865 3.1635-6.96127 8.53045-7.01553 4.99927-.05054 9.9997.02417 14.99896-.02308 5.3628-.05065 7.9438-2.12182 8.0188-7.35891.19556-13.66294.13184-27.33112.0232-40.996-.0348-4.37128-2.59247-6.83213-6.9502-6.86121-13.83136-.09226-27.6637-.04535-41.49567-.0337-4.5468.00382-6.16473 2.96546-7.271 6.84147-2.27764 7.9801-4.8352 15.8803-7.44933 24.1528z"/><path fill="#979998" d="M821.88013 428c.00036 14.49118.0191 28.48242-.0066 42.47357-.01257 6.87738-2.46813 9.36438-9.2279 9.40189-6.9953.03879-13.99145.07922-20.98627.01788-5.11822-.04489-8.45562-3.02472-8.37518-7.2759.08783-4.6364 3.46704-7.22459 9.01422-6.90354.83014.04803 1.65949.12155 2.4903.1438 10.37603.27838 12.32843-1.60358 12.32232-11.86798-.01208-20.32032-.0025-40.64072-.04974-60.96094-.01752-7.54672-1.68738-9.28104-8.97467-9.28739-25.81696-.02252-51.63397-.0116-77.45093.02896-6.9223.01087-8.72833 1.8856-8.73523 8.99558-.02502 25.81708-.03741 51.63419.01337 77.45114.0086 4.3884-.92511 7.95523-5.82642 9.11179-4.48321 1.05789-8.38983-1.63123-8.9284-6.21524-.11597-.987-.05072-1.99656-.05085-2.9957-.0025-30.31424-.00854-60.62848.00074-90.94272.0022-7.18426 1.9881-9.16418 9.18799-9.18191 8.66113-.02134 17.32836-.19764 25.98132.06887 4.91083.15125 7.89026-1.80737 9.48266-6.30892 1.38526-3.91578 2.78058-7.83072 4.29761-11.6965 2.21277-5.63908 6.19495-7.20802 12.04407-4.87443 4.34997 1.73548 5.63617 5.60007 3.5863 10.77585-3.41699 8.62762-1.10846 12.0239 8.19531 12.02841 14.49085.00705 28.98182-.0166 43.4726.0126 5.80097.0117 8.48517 2.6481 8.50507 8.5314.05523 16.32298.01867 32.64628.0183 49.46943z"/><path fill="#969897" d="M660.61005 108.14544c4.30981 1.64784 2.33593 4.52309 1.65014 6.79114-7.1209 23.54845-14.3551 47.06266-21.57592 70.58083-1.80463 5.87758-4.02161 11.65425-5.41303 17.6255-1.30835 5.61481-4.81317 6.79795-9.84534 6.83185-4.99176.0336-7.42993-2.1227-8.82367-6.8859-6.67694-22.81956-13.55914-45.58013-20.56378-68.30143-.94665-3.07059-2.9986-5.80043-4.53876-8.68803-1.33685 2.89236-3.02435 5.6766-3.95477 8.69429-6.9549 22.55635-13.74347 45.16392-20.62243 67.74382-2.04938 6.72705-3.1294 7.21826-10.37665 7.42532-5.4914.15692-7.9806-2.40445-9.4508-7.46472-8.53278-29.36875-17.28266-58.67444-25.97236-87.99755-1.71576-5.78985-1.34009-6.32814 4.70325-6.37921 8.534-.07212 9.13849.38414 11.2414 8.62223 5.63122 22.0602 11.22192 44.13092 16.94756 66.16658.45416 1.74809 1.82514 3.258 2.77002 4.87858 1.13086-1.62806 2.75623-3.10238 3.3175-4.90753 7.00648-22.53342 14.00764-45.07115 20.63947-67.71637 1.54614-5.2795 4.15485-7.66262 9.56067-7.07796 1.31671.1424 2.66815.08408 3.99487-.00788 4.86219-.33703 7.62122 1.65374 9 6.5626 5.3938 19.20314 11.09058 38.3211 16.66663 57.47312.97528 3.3497 1.7273 6.77916 2.93811 10.0397.66889 1.80107 2.07648 3.32785 3.15112 4.97827.97882-1.5667 2.40284-3.01181 2.86872-4.71852 5.82068-21.3205 11.51672-42.6751 17.21374-64.02924 2.75372-10.32182 2.7243-10.32967 14.4743-10.2395zM968 356.85919c6.16467.00238 11.82953-.0285 17.4939.01627 6.24694.04937 9.06414 2.1943 9.05462 6.78729-.00873 4.21725-2.95917 6.33884-8.89233 6.33994-31.3222.00589-62.64447-.0016-93.96668.0047-9.28106.00186-10.68292 1.41738-10.68328 10.7005-.00104 25.65756-.00653 51.31515.005 76.97271.00317 6.95767 1.54681 8.57926 8.46582 8.58551 33.1549.03 66.30982.00113 99.46472.0232 6.47687.00433 8.94538 1.89624 9.15631 6.6552.18067 4.07636-1.94934 6.18254-5.73004 6.85627-1.13293.20188-2.3263.08054-3.49194.08063-37.65332.0028-75.30664.00567-112.95996-.00037-7.45185-.00122-9.04535-1.59973-9.04633-9.10821-.00445-34.98758.00012-69.9752.01196-104.96277.00257-7.4851 1.47547-8.9407 9.15082-8.94449 30.48914-.0151 60.97827-.00626 91.96741-.00638zm-278.28223-82.89325c-.17938 32.45383 31.7857 42.45185 52.30335 31.03058 12.9524-7.21002 18.6134-19.73681 18.78125-33.79773.54065-45.29495 46.84643-54.28232 72.30322-40.74943 6.92554 3.68167 11.86756 9.54744 15.0238 16.84436 1.33027 3.0754.33368 4.94812-2.71868 5.55227-4.66694.92375-9.13794.4871-11.87415-4.08389-7.77325-12.98593-19.95673-14.59517-33.13934-12.37915-14.09217 2.36894-21.24488 12.22994-24.2682 25.35884-2.0443 8.87735-2.56664 18.16031-5.16845 26.84268-5.50232 18.3621-22.78998 30.73108-41.92822 31.46866-12.97998.50025-25.37122-1.13891-35.85748-9.4786-14.38392-11.43949-19.71686-26.44517-17.48426-44.65314 2.23548-18.23096 11.19898-31.48085 28.47657-37.55377 18.73663-6.58576 37.07507-5.3082 53.27496 7.67308 5.64276 4.5217 5.59064 5.23027 2.57422 11.78569-.93933 2.04129-1.86096 4.0907-3.25147 7.1502-1.49078-1.9357-2.41693-2.95921-3.1433-4.10893-8.0572-12.75352-23.6324-18.1682-40.03602-13.88338-13.52966 3.53412-22.75867 15.24361-23.62695 30.00757-.12708 2.16062-.16272 4.3266-.24085 6.9741z"/><path fill="#979998" d="M803.672 150.36607c-3.45246-4.72235-6.60437-9.22436-9.99909-13.53515-1.01208-1.2851-2.70459-2.03435-4.08526-3.02913-.56061 1.72398-1.59955 3.44537-1.60901 5.17238-.1145 20.98428-.05982 41.9694-.09095 62.95425-.0089 6.00812-2.53674 8.402-8.17858 7.95032-4.6629-.3733-6.42615-2.39066-6.43964-7.66588-.03595-13.98982-.00964-27.97981-.00903-41.96973.00073-14.32301.02203-28.6461-.01514-42.96902-.00928-3.57314-.23193-7.1748 3.97552-8.77769 4.32435-1.6474 11.35877-.3345 13.77442 2.9123 7.0514 9.4777 13.94714 19.07143 20.8866 28.63222 9.87011 13.59857 19.69018 27.23381 29.64056 40.77331.97443 1.32589 2.7102 2.09226 4.09259 3.11834.5384-1.73687 1.53577-3.4712 1.54541-5.211.1156-20.8177.06342-41.63626.10455-62.4545.01252-6.3227 2.39869-8.54804 8.49878-8.16013 3.9217.24938 6.23303 2.18035 6.23554 6.26767.01837 29.81182.05212 59.62389-.10596 89.43488-.00891 1.67693-1.2586 3.913-2.63812 4.9105-4.07446 2.94599-12.68427 1.15853-15.68079-2.98777-13.25482-18.34073-26.4671-36.71225-39.9024-55.36617z"/><path fill="#969897" d="M1098.6543 446.58283c2.93896-5.22553 6.01587-10.00272 8.3125-15.12937 2.0592-4.59647-.06372-7.39184-5.11792-7.54156-4.16138-.12333-8.3307.04144-12.49341-.05497-4.98596-.1155-7.16382-2.24264-6.97656-7.0596.16296-4.1955 2.35315-6.21072 6.79931-5.98144 4.9845.25702 9.99475.14688 14.99.03021 6.09765-.14243 7.69054-1.71887 7.8435-7.75421.13086-5.16104.01648-10.32791.10461-15.4906.06787-3.97263-1.87292-5.84595-5.75293-5.86334-4.1648-.01871-8.33007.0253-12.49426-.03153-4.2301-.05774-6.85937-1.58163-6.9674-6.4728-.10645-4.81898 2.32018-6.67826 6.57726-6.87428 3.8241-.17611 7.66138-.05569 11.49256-.09503 6.03638-.062 7.04834-1.04394 7.11902-6.90881.03418-2.83173-.06885-5.6677.04687-8.49533.20215-4.94061 2.11035-6.59357 7.34924-6.56616 4.8158.0252 6.7428 1.74627 6.61963 6.61117-.47595 18.81357 1.60645 15.0026 15.53199 15.36167 3.6626.09442 7.33105-.04651 10.99463.02804 5.80456.11804 7.46496 1.76196 7.48779 7.43375.03698 9.16253.0172 18.32538.00378 27.48807-.00561 3.89852 1.15723 6.89312 5.57227 7.49023 4.32483.5849 5.21875 3.58585 5.0083 7.26138-.2345 4.09757-2.64734 5.89853-6.57935 5.89624-11.1615-.00653-22.32678.12687-33.48254-.1359-4.59949-.10833-6.69873 1.30717-7.89172 6.05314-5.6095 22.31659-19.88172 37.56458-40.25342 47.4607-3.71729 1.80572-7.50086-.15076-9.57337-4.58353-1.70398-3.64466.1405-5.60498 3.0415-7.7895 7.66492-5.77178 15.01246-11.96499 22.68812-18.28664m48.22546-44.3986c-.00696-4.82745-.01929-9.6549-.01953-14.48236-.00012-3.81146-1.9928-5.97802-5.67981-6.25927-3.1377-.23932-6.323-.19782-9.46387.03585-3.76758.2803-5.57739 2.586-5.58374 6.33484-.00622 3.66224-.02478 7.32447-.01965 10.9867.01636 11.81262.41174 12.19354 12.43945 12.08414 6.40454-.0583 7.83325-1.39182 8.32715-8.6999z"/><path fill="#959796" d="M1175.59009 167.43436c-7.42005-10.27455-14.57459-20.29833-21.89368-30.20053-1.14306-1.54648-3.03516-2.53934-4.58105-3.78815-.66321 1.91618-1.88953 3.82846-1.90284 5.74914-.14453 20.81629-.09045 41.63389-.1101 62.4511-.00586 6.25668-1.86365 8.35274-7.19348 8.24692-5.01478-.09958-6.92127-2.30734-6.92249-8.15305-.00623-27.97835.0144-55.9567.00061-83.93503-.00183-3.8408-.6289-7.91774 4.3352-9.43196 5.36243-1.63572 11.15967-.10202 13.99134 3.80199 6.44568 8.8867 12.80957 17.83275 19.25293 26.7212 10.25427 14.14527 20.50769 28.29188 30.8894 42.3433.91687 1.24092 2.7776 1.78465 4.19983 2.65222.44397-1.4777 1.26843-2.95386 1.27454-4.4334.08703-20.98336.05627-41.9672.07068-62.95092.00427-6.19273 1.8756-8.3468 7.1892-8.38851 5.46888-.04294 7.47364 1.99327 7.48633 8.17348.0592 28.64438.05433 57.28896.02137 85.9334-.00354 3.052-.3595 5.95999-4.08301 7.11323-5.21912 1.61649-11.27613.6762-13.7771-2.75777-9.40259-12.91024-18.6997-25.89753-28.24768-39.14666z"/><path fill="#969897" d="M1335.29443 138.64359c-3.9569.85252-6.80822.42715-8.60302-3.4581-6.39856-13.85077-18.68396-17.31536-32.30762-16.76007-6.63892.27059-13.60059 1.95044-19.67554 4.6556-10.43017 4.6445-16.27783 13.76908-18.06238 24.82761-2.09839 13.0037-2.27136 26.1625 6.73719 37.11238 10.0548 12.22148 24.02112 15.3243 38.80017 13.47122 7.70422-.966 15.09082-4.64584 22.55102-7.29637 3.37586-1.19942 4.4386-3.88037 4.44837-7.50723.03637-13.55566.1455-13.55356-13.15235-13.55344-4.66357.00005-9.32812.04395-13.99048-.0339-4.11608-.06874-6.01318-2.32753-5.9226-6.3762.08703-3.89549 2.19812-5.81567 5.96728-5.82912 11.9917-.0428 23.98377-.00039 35.97571.00273 3.932.001 5.7926 2.064 5.80847 5.88472.0337 8.16113.14734 16.32463-.00561 24.4828-.09339 4.98178-2.49585 8.99733-6.60095 11.73328-21.53394 14.3518-57.43323 15.61166-77.91077.30778-16.0166-11.97001-23.30066-33.0044-18.14417-54.50029 4.92945-20.54922 20.12622-34.92982 40.3529-37.8311 13.959-2.00225 27.85072-2.44484 41.07447 3.83506 7.68604 3.65006 13.1897 9.44376 16.76172 17.11247 2.50696 5.38195 1.84973 7.0264-4.1018 9.72017zm-807.297 94.797c.06757-4.95623 2.37324-7.2112 6.8606-7.14307 13.81159.20964 27.63568.16008 41.42993.77295 11.90772.52906 21.20258 8.05258 23.69751 18.101 2.13861 8.61367-1.00402 15.34379-7.45282 20.80235-2.88543 2.44238-2.83587 4.38437.5564 5.94046 9.9676 4.5723 13.8507 15.6203 12.15832 23.97366-2.20092 10.86404-9.67016 19.45334-20.73944 20.90036-11.16455 1.45947-22.52844 1.44684-33.8117 1.91953-4.9889.20901-9.99487.06988-14.99213.00656-5.88537-.07462-7.69043-1.8761-7.6977-7.85611-.03112-25.6561-.01263-51.31229-.00896-77.4177m61.3612 51.03812c-2.74768-5.10608-7.604-7.06442-12.82525-7.41596-10.11103-.68072-20.26477-.71603-30.39936-1.06085-2.90698-.09888-4.28216 1.09012-4.25018 4.10929.08112 7.65966-.16638 15.33013.20142 22.97299.06933 1.44162 2.3471 3.94342 3.65173 3.9737 9.98132.23125 20.0343.62264 29.94812-.29664 13.0592-1.211 18.3064-9.90015 13.67352-22.28253m-3.44446-27.4223c3.16102-10.60726-1.51806-18.16967-12.38684-18.90667-9.09729-.61688-18.25702-.3091-27.38897-.42054-2.88294-.03517-4.27143 1.35708-4.2588 4.24841.02766 6.31065.0672 12.6221-.00585 18.93198-.0346 2.99133 1.32452 4.1521 4.24273 4.10928 8.13575-.11948 16.29096.18988 24.40406-.27347 5.75574-.32876 11.68365-1.15039 15.39368-7.689zm760.71546 110.55523c.5393 9.16855.31653 9.4007-8.43775 9.39808-8.16088-.00245-16.32434.1196-24.48156-.05524-3.73584-.08005-5.84607 1.4335-7.13636 4.8635-1.57897 4.1971-3.84191 8.16637-5.08642 12.44442-.46106 1.58484.703 5.03723 1.8634 5.4238 2.88281.96026 6.66529 1.30453 7.44776-3.18271.45178-2.5915.26635-5.3171.16967-7.97519-.11218-3.08838 1.08118-4.50519 4.31238-4.69327 8.55823-.49823 9.46765.26111 9.45715 8.95468-.00866 7.14713.15162 7.31134 7.20667 7.32697 1.83203.00406 3.66882.08258 5.49524-.01956 3.99194-.22318 6.89221.50961 6.74438 5.55725-.15551 5.3196-.8772 6.24032-6.47973 6.35238-.83252.01664-1.66553.00235-2.4983.00278-10.68542.00522-12.64575 2.29318-10.22692 12.99527.3534 1.56326 3.01709 3.46329 4.79529 3.6764 4.43347.53127 8.97558.2809 13.46875.15438 4.1571-.117 4.95422 2.21051 4.92798 5.73938-.02674 3.58133-.5863 6.36478-5.02418 6.31802-3.9967-.0421-7.99438-.02676-11.99145.00095-6.04126.04187-6.38513.40115-6.43518 6.63684-.02808 3.49725.02307 6.99552-.03687 10.49204-.10974 6.4018-4.88672 4.87603-8.68957 5.1264-4.08167.26865-5.22974-1.84305-5.03992-5.5166.17151-3.32215.07166-6.6604.03443-9.99088-.06629-5.91845-.82935-6.71093-6.5791-6.74752-5.99561-.03815-11.9989-.19706-17.985.0414-4.78551.19065-6.109-2.40572-6.12939-6.46368-.02136-4.23196 2.0724-5.82815 6.29029-5.65384 5.98523.24735 11.99145-.0621 17.98364.07987 4.3673.10345 6.37488-1.65262 6.4757-6.1525.23695-10.56396.17518-10.74585-10.5758-10.729-2.49597.0039-5.03918-.19003-7.47534.21747-3.02783.50647-6.2517 1.6415-7.76819-2.0622-1.42505-3.48016-3.64013-6.71182-.34009-11.05365 3.24036-4.26346 5.11158-9.64886 7.16431-14.71185 2.21704-5.46835.82007-7.40134-5.09973-7.34577-3.96338.0372-6.93225-.45104-6.8999-5.48275.03625-5.63202.833-6.62409 6.55884-6.68973.4995-.0057.99914-.01776 1.49865-.0245 10.22351-.13846 10.27197 1.9963 12.96167-10.31742 1.0398-4.7604 3.36719-5.69327 9.64734-4.16415 4.09937.9981 6.00086 2.83407 4.45471 7.46008-1.76025 5.2666-.29126 6.96942 5.26953 7.01315 6.828.05368 13.66358-.1532 20.4812.11844 1.88502.07514 3.71827 1.45102 5.70777 2.63806zm-83.51367-120.60899c.00012-4.165.00402-7.83069-.00086-11.49637-.00464-3.51239-.39868-7.21272 3.90467-8.78706 5.06457-1.8529 10.22204-.36084 13.27783 3.749 12.71203 17.09675 25.4314 34.188 38.15368 51.27712 2.18726 2.93802 4.28455 5.95602 6.66114 8.7337.96533 1.12824 2.56567 1.7131 3.87707 2.5452.62635-1.55905 1.78675-3.11429 1.7976-4.67764.12843-18.32749.05921-36.65627.10108-54.98459.01197-5.22023 3.00476-7.84328 7.828-6.99503 4.03162.70903 5.23792 3.32056 5.22047 7.2105-.09815 21.82704-.04993 43.65474-.05152 65.48222-.00024 3.66568-.03369 7.33176.00952 10.99692.03992 3.38031.3307 6.81735-3.80322 8.28766-4.2965 1.5281-10.3656.30133-12.79602-2.92029-7.11719-9.43457-14.1272-18.95007-21.1737-28.43793-7.93958-10.69049-15.8291-21.41891-23.8661-32.03567-.98828-1.30547-2.75012-2.02527-4.15332-3.01654-.65637 1.7116-1.87023 3.41897-1.88317 5.13546-.13684 17.99415-.06641 35.98972-.0885 53.98487-.00684 5.59595-1.66834 7.58173-6.18323 7.62427-4.81177.04531-6.80445-2.09778-6.81494-7.6936-.03992-21.16093-.01636-42.3219-.01648-63.9822zM699.5199 110.43217c8.55053-5.2802 16.62256-2.8943 20.50726 5.67343 13.19495 29.10227 26.40326 58.19848 39.58594 87.3063 2.48138 5.4789 1.88763 6.39451-3.97254 6.4768-10.11248.14203-10.11572.14342-14.07953-8.92051-2.60076-5.94716-5.22534-11.88427-7.77014-17.85534-1.26263-2.96257-3.29223-4.20048-6.59863-4.16267-12.16363.13918-24.33093.14833-36.49432-.00008-3.73407-.04554-5.87305 1.44614-7.1889 4.84386-2.76258 7.13326-5.61408 14.23528-8.6006 21.27734-1.81322 4.27533-12.13543 7.07396-15.54021 4.06795-.8114-.71632-.62574-3.3379-.04804-4.73024 5.10107-12.29434 10.39734-24.50766 15.6297-36.7476 8.11139-18.97452 16.21796-37.95107 24.57-57.22924m20.82557 57.56756c1.88891-.1094 3.7779-.21878 6.21625-.35999-.53736-2.11352-.74665-3.57558-1.27442-4.91182-4.57495-11.58307-9.15753-23.1639-13.88263-34.68602-.61957-1.51104-2.05658-2.68686-3.11499-4.01792-1.08374 1.32281-2.59143 2.47985-3.18396 3.99477-4.53308 11.59033-8.9115 23.24153-13.26758 34.90012-.5324 1.42482-.64746 3.00555-1.07202 5.0817 10.04285 0 19.33057 0 29.57935-.00084zm380.25867-5.64586c6.49182 14.28596 12.80725 28.2363 19.09387 42.19964 1.92676 4.2794 1.31946 5.19803-3.47144 5.33112-2.16443.06012-4.536.56108-6.44665-.13913-2.40796-.8824-5.40772-2.29321-6.45826-4.34381-3.4818-6.79618-6.3142-13.93723-9.17163-21.03614-1.5725-3.90652-3.93493-5.56533-8.33361-5.45738-11.65686.28612-23.32703.20273-34.98865.03986-4.07764-.05695-6.5 1.44688-7.93189 5.29356-2.49365 6.69982-5.24548 13.30518-7.9685 19.91745-2.07886 5.04833-11.25928 8.27329-15.51453 5.10433-.9591-.7142-.89789-3.92188-.22595-5.5304 7.44055-17.81114 15.11194-35.52572 22.68408-53.28206 5.15613-12.09073 10.344-24.16951 15.32776-36.33143 1.65466-4.0379 4.08496-6.1928 8.61523-6.04334 5.12671.16914 10.21851-.74554 12.97303 5.65518 6.97168 16.19983 14.39026 32.20734 21.81714 48.62255m-44.04798-13.27727c-2.21557 5.99086-4.43115 11.9817-6.86267 18.5564h36.30896c-.24402-1.4401-.24682-2.59449-.63891-3.59647-4.8374-12.35985-9.69178-24.71358-14.67371-37.01547-.48523-1.19806-1.84717-2.04105-2.80225-3.04885-.96203.99379-2.33984 1.82038-2.81775 3.00883-2.8474 7.08143-5.48706 14.24642-8.51367 22.09556z"/><path fill="#979897" d="M904.21033 194.22955c-3.43097 4.31743-6.59455 8.39183-9.83344 12.4054-2.30694 2.8587-14.6621 4.95256-17.1601 2.56003-.73663-.70566-.32702-3.69448.5719-4.84237 5.2292-6.67744 10.76563-13.11405 16.1891-19.63969 6.80676-8.1901 13.55553-16.42915 20.43731-24.55562 1.98376-2.34257 1.90924-4.11636-.03076-6.5317-10.31525-12.84322-20.51038-25.78382-30.62665-38.78446-1.2196-1.56734-1.71112-3.70115-2.54004-5.5724 1.85712-.38538 3.7077-.80601 5.57251-1.1499 7.34955-1.3554 12.0028 1.92897 16.09577 7.95838 5.97119 8.79626 12.85668 16.97129 19.34057 25.4202 2.83551 3.69489 4.39643 3.7707 7.37433.1799 8.17908-9.86247 16.33227-19.7464 24.48761-29.62852 2.7707-3.35727 12.31457-5.60334 16.01154-3.61157 2.79083 1.50357 1.35199 3.13956-.02497 4.79033-10.02008 12.01277-20.1034 23.97462-29.97986 36.10469-6.42816 7.89494-6.40454 5.45843-.20263 13.27801 10.96112 13.82024 21.90552 27.65404 32.7813 41.5413.94001 1.20028 1.31806 2.84052 1.95716 4.27642-1.49914.48837-2.96966 1.2308-4.50433 1.40376-2.13825.241-4.3299-.04193-6.48908.07527-3.6228.19663-6.22143-1.10252-8.49041-4.10222-8.534-11.28207-17.32373-22.37055-25.99262-33.55096-3.29144-4.24503-4.50616-4.2269-7.82849.06767-5.5976 7.23566-11.2508 14.4283-17.11572 21.90805z"/><path fill="#979998" d="M861.26294 274c.00348-13.82867-.05042-27.15775.03723-40.48585.03668-5.57647 2.88641-7.9254 8.2793-7.18412 3.99896.54973 5.63684 2.86116 5.59137 6.87105-.1134 9.99522-.1123 19.99376.03906 29.98798.0246 1.62466 1.05182 3.2341 1.6156 4.85061 1.57538-.66491 3.46637-.97418 4.67773-2.04928 13.56507-12.0391 27.18268-24.02796 40.42914-36.41223 4.66803-4.36422 9.84192-3.43917 14.99982-3.02764 3.03076.2418 3.40967 3.59824.7027 6.02782-6.06842 5.44647-12.26557 10.7496-18.41883 16.10124-4.01708 3.49377-8.10992 6.90314-12.05859 10.47224-4.36194 3.94263-4.50879 5.89332-.6991 10.57462 11.02887 13.55206 22.17914 27.00574 33.14155 40.61096 1.4298 1.7745 2.03894 4.21024 3.0282 6.33972-2.20338.68872-4.365 1.60059-6.6183 2.02292-5.99542 1.12363-9.73602-1.73352-13.25036-6.55166-8.53094-11.6959-17.63995-22.97208-26.59113-34.3584-3.07519-3.91184-5.44769-4.08792-9.3197-1.06412-.26233.20484-.47998.4779-.76263.6441-9.23694 5.43229-12.56085 13.48032-11.03131 23.96372.49987 3.42584.13183 6.98709.06549 10.48462-.09497 5.01242-2.05011 6.88867-7.03345 6.89596-4.5022.0066-6.74695-2.0194-6.78741-6.72772-.1073-12.49469-.03644-24.99093-.03638-37.98654z"/><path fill="#969897" d="M1055.7334 315.13046c-2.59497 4.17383-6.55908 4.67966-9.77405 2.89005-2.00452-1.11585-3.65576-4.73401-3.68188-7.2478-.26575-25.49582-.18763-50.99552-.1477-76.49404.00976-6.24757 2.9204-8.85538 8.6035-7.93036 3.69251.601 5.42799 2.76628 5.39783 6.56331-.06762 8.4988.15198 17.00261-.06152 25.49643-.10852 4.31326 1.40002 5.85068 5.79346 5.78116 13.82898-.2189 27.6659-.21274 41.49511.00204 4.39942.06833 5.85328-1.46179 5.71424-5.79983-.2671-8.32437-.11804-16.6634-.07422-24.996.02649-5.03887 2.03589-7.06263 6.84375-7.1075 4.81885-.04499 7.00903 1.96542 7.02002 6.99856.05688 26.16509.05273 52.33043-.00635 78.49553-.01123 4.96585-2.21411 6.9682-7.07861 6.96103-4.68701-.0069-6.7511-2.12463-6.77478-7.17026-.04834-10.33252-.1709-20.6683.03894-30.9966.08166-4.01814-1.7312-5.4278-5.32166-5.43018-14.1659-.00943-28.33166.00683-42.49756-.00486-3.7904-.0031-5.1875 1.78177-5.15466 5.60273.09693 11.3266-.10974 22.65576-.33386 34.3866zm75.34985-1.95578c11.74768-27.4302 23.44043-54.46362 34.85425-81.61432 1.85584-4.4144 4.70935-5.38668 8.93762-5.3423 4.48596.04708 8.36109.05622 10.65088 5.20471 11.96936 26.91204 24.20984 53.70342 36.34448 80.54195 2.5763 5.69763 1.95813 6.69995-4.06665 6.77527-8.5575.107-8.55444.10571-12.03283-8.09442-2.01416-4.74857-4.11792-9.46094-6.03553-14.24802-1.52722-3.81231-3.84607-5.724-8.29113-5.60122-10.48987.2897-20.99402.18878-31.49024.06347-3.69568-.04413-5.83996 1.39652-7.14233 4.8674-2.2782 6.07123-4.81824 12.04645-7.34082 18.02298-1.8263 4.32666-10.3125 7.19748-14.01697 4.481-.85925-.6302-.38123-3.08405-.37073-5.0565m53.1997-53.96737c-1.8706-4.95987-3.62865-9.96724-5.6859-14.84844-.56153-1.33246-2.02283-2.28564-3.0713-3.41287-.89721 1.03937-2.15783 1.935-2.63464 3.1406-4.14526 10.48007-8.1781 21.00508-12.16308 31.54746-.54224 1.43482-.63611 3.03913-.97132 4.73597h32.91785c-2.88672-7.31907-5.47852-13.8906-8.3916-21.16272zm-201.01562 60.78018c-33.22741-2.15137-43.27179-30.56739-41.62231-52.74027 1.30194-17.5008 9.21576-30.4327 25.10858-37.83635 16.58875-7.72787 44.72132-7.18528 57.58856 10.55207.97205 1.3399 1.88599 2.74022 2.66285 4.19978 1.78991 3.36247 1.7467 6.5049-1.86744 8.6197-3.90759 2.28649-7.87 1.38752-10.1012-2.02735-9.88586-15.13042-25.57586-19.61118-41.92547-11.79988-9.86652 4.71383-14.74225 13.10495-16.32056 23.57273-1.90362 12.6262-1.37939 24.76914 6.49604 35.76941 10.6897 14.93128 44.57434 16.53513 52.61773-5.65414 1.21564-3.35373 3.10279-5.95835 7.22785-5.5441 6.37207.6399 8.71228 4.68952 5.81872 10.53876-6.99456 14.13919-18.90234 20.96225-34.2323 22.32391-3.6339.32275-7.32135.04248-11.45105.02573zm-76.37463 132.924c-3.78876 2.47056-7.09686 5.25733-11.61072 2.17326-4.96655-3.3934-5.01843-8.65051-.04584-12.1608 8.29102-5.85303 16.65467-11.61328 24.76514-17.70877 6.83258-5.13495 6.75836-8.24707.1571-13.74078-6.6524-5.53632-13.3728-10.99167-20.10021-16.43705-4.24347-3.43484-5.03724-6.72042-2.32819-10.17251 2.4682-3.14524 6.19934-3.38648 10.1211-.35834 8.03747 6.20593 15.9881 12.52454 23.95745 18.81827 5.0224 3.9663 7.2837 4.0574 11.39447-.83261 5.66645-6.74048 11.01563-13.7576 16.29352-20.81125 3.61493-4.8313 6.9289-5.80506 11.32593-2.75415 3.54535 2.45996 3.86145 6.2792.39734 10.88919-5.09778 6.784-10.3014 13.50311-15.76294 19.99493-5.18305 6.16077-5.24982 8.43253.58813 13.73004 6.53247 5.9277 13.14228 11.77478 19.53809 17.8469 4.52386 4.29498 4.63544 7.92047.84906 11.5646-4.0376 3.88605-7.1355 3.66165-11.53186-.62842-6.91144-6.74417-13.77893-13.54101-20.89398-20.06594-4.09272-3.7532-6.6275-3.38-10.93122.07525-8.562 6.87421-17.2401 13.60376-26.18237 20.57819zm337.05395 14.98976c-5.25549 3.8521-10.08227 7.70443-15.22717 11.07019-1.54602 1.0114-4.92944 1.62973-5.81567.7536-2.1383-2.1141-5.70166-4.71695-2.97315-8.47953 7.61866-10.50589 4.44007-22.42913 4.66773-33.86532.09497-4.77051-3.84497-4.51319-7.28748-4.51007-6.32495.00567-7.53344-1.1835-7.46032-6.43537.05676-4.0891 2.08447-5.363 5.96374-5.56543 2.73071-.14248 7.3899-.95443 7.7295-2.32461 1.07104-4.32169.59704-9.04944.48388-13.61417-.01526-.61291-1.39648-1.70953-2.13806-1.70352-5.17554.04178-5.91199-3.33594-5.87769-7.32129-5.66443-1.27316-9.53527-10.284-7.01843-15.3879 4.02942-8.17127 7.94312-16.41328 11.50147-24.79697 1.58935-3.74463 3.79638-5.34726 7.64782-4.41175 4.13635 1.0047 5.64405 3.68439 4.69995 7.87836-1.29724 5.76358-1.23974 5.77878 4.72315 5.80456 2.66577.01154 5.33203.05192 7.99707.00818 4.29846-.07055 6.4917 1.86252 6.46863 6.30143-.02259 4.33645-2.3009 5.83627-6.34168 5.73284-4.6621-.11938-9.33984.16584-13.99158-.08416-4.20947-.22629-6.94836 1.33728-8.71289 5.16668-1.30395 2.82987-3.01892 5.47043-4.98889 8.97461 8.54395 0 16.4353.0792 24.3241-.03076 4.47253-.06228 6.40173 2.12415 6.38757 6.3885-.0127 3.84005-1.61975 6.023-5.78894 5.55166-3.88525-.43924-5.61609 1.297-5.21118 5.19275.06836.659.00317 1.33181.00049 1.99826-.0404 10.18505-.04444 10.267 10.02221 10.76025 3.57728.1753 5.09644 1.86157 5.16675 5.2786.07263 3.52615-.7262 6.22622-4.94238 6.66656-10.24597 1.0701-10.25366 1.121-10.24316 11.3822.00378 3.66306.07006 7.32651.15759 10.98856.01038.4382.33508.8689.7683 1.91943 2.2168-1.32922 4.35267-2.47921 6.34571-3.83856 2.40222-1.63855 4.78504-2.16086 6.40345.66779 1.6134 2.81958 3.62756 5.99658-.20777 8.80603-2.27978 1.67007-4.61535 3.26394-7.23266 5.07837z"/><path fill="#969796" d="M1080.1001 393.6726c-.70288 4.06959-3.34021 4.4554-6.40686 4.48041-8.36353.06821-9.55725 1.30894-9.56165 9.49128-.00366 6.82415-.0409 13.64859.0122 20.47235.05177 6.64554 2.39723 8.39221 8.59266 6.4847 3.61792-1.11394 6.94446-1.52465 8.61511 2.98603 1.69605 4.57913.74695 6.98361-3.99658 9.10953-11.52625 5.16571-23.07715 10.2772-34.65894 15.31705-4.69262 2.04199-6.91491 1.01535-8.98413-3.7678-2.28186-5.27474-1.57934-7.59695 3.11426-9.6066 2.90003-1.2417 5.8656-2.34853 8.85523-3.35772 3.6455-1.2306 5.25573-3.62247 5.22046-7.49167-.099-10.81784-.12757-21.6383.0072-32.45535.06091-4.89258-2.39978-6.95236-6.92737-7.18259-1.49402-.07593-3.00012-.0951-4.4917.00083-4.13757.26614-6.22437-1.62488-6.3883-5.76575-.18287-4.61917 1.72827-6.89972 6.2052-7.27692 11.56445-.97433 11.56225-.9743 11.56237-12.85046 0-6.32477.09644-12.65113-.01513-18.97382-.08142-4.61502 2.4613-6.14093 6.56994-6.17306 4.17871-.03266 6.67615 1.75082 6.68994 6.17791.02442 7.8227-.00573 15.6456.01905 23.4683.0216 6.82757 1.41894 8.26034 8.02075 8.34695 7.05432.09256 7.90454.96088 7.94629 8.5664z"/><path fill="#979998" d="M1322.94153 467.98053c7.46606-.35367 14.4502-.5899 21.41357-1.10773 4.34107-.32278 5.20618 1.75788 4.55274 5.45188-1.3899 7.85824-1.90833 8.54846-9.94715 8.49606-12.95666-.08441-26.03564.49365-38.81897-1.12946-7.38977-.93826-14.57885-5.12817-21.35449-8.78738-7.53491-4.06921-9.20325-4.24625-14.72339 2.30716-.53625.6366-1.09533 1.25424-1.6228 1.8978-5.8639 7.15472-10.54028 6.29428-13.79077-2.7988-.4519-1.26425.38196-3.65701 1.44116-4.66626 3.11157-2.96521 6.81629-5.30878 9.92041-8.28049 1.46619-1.4036 2.92444-3.66867 2.9629-5.57226.2561-12.6479.03149-25.30472.18127-37.95606.04406-3.7189-1.39173-5.27127-4.9917-4.9394-5.92395.54621-5.01807-3.60998-5.23035-7.27413-.24414-4.21338 1.68164-5.68872 5.64258-5.53976 3.82373.14376 7.65747.01635 11.48657.03375 6.07764.02762 6.6632.57373 6.66956 6.4914.01635 15.48336.1018 30.96783-.073 46.44927-.04395 3.9043 1.25561 6.05377 4.5802 8.40048 12.61572 8.905 26.8357 8.82416 41.70166 8.52393z"/><path fill="#969897" d="M752.00147 400.11624c9.98309-.00275 19.46691-.05035 28.95.00794 5.94172.0365 8.60975 2.4686 8.70716 8.44308.1762 10.81168.19934 21.63058.00787 32.44156-.0996 5.6218-2.86444 7.98273-8.53466 7.99158-14.47486.02252-28.94977.02414-43.42457-.0079-5.72228-.01267-8.3438-2.42509-8.40081-8.06052-.10932-10.81342-.09656-21.62937.00226-32.44303.05358-5.867 2.68841-8.29947 8.71661-8.3667 4.49158-.05008 8.98431-.00741 13.97613-.006m23.99701 23.48122c-.0097-9.36389-1.91272-11.26046-11.3717-11.32016-1.8277-.01153-3.65558-.0017-5.48334-.00167-16.16205.00033-16.76605.6274-16.25457 16.87545.16674 5.29447 2.29504 7.64691 7.55218 7.78955 5.97717.16217 11.9674.1907 17.9422-.01199 5.03339-.17075 7.4295-2.85574 7.6029-7.919.05115-1.49375.01026-2.9906.01233-5.41218z"/><path fill="#979998" d="M617.86182 271c.00091-12.82855-.02613-25.1572.01593-37.48561.01843-5.39862 1.91522-7.26028 7.10528-7.23167 4.599.02537 6.71161 2.18904 6.72162 7.31574.04388 22.49117.13068 44.9836-.08368 67.47286-.04596 4.82938 1.51013 6.38034 6.29791 6.27414 11.9892-.26596 23.9886-.09863 35.98377-.05637 5.37878.01895 8.30371 2.1609 7.96716 6.01828-.42657 4.88959-4.0053 5.45355-7.98523 5.44376-16.16021-.03974-32.32068.01254-48.4809-.0297-6.21966-.01623-7.523-1.39636-7.53399-7.73672-.02277-13.16153-.00745-26.32315-.00787-39.98471z"/><path fill="#999B9A" d="M989.24927 117.29317c.17798-7.60988 2.62439-9.87804 9.41223-9.17431 4.41711.45794 6.30298 2.86928 6.29083 7.34577-.07904 28.97981-.01745 57.96-.06457 86.93994-.0088 5.40965-2.26105 7.48004-7.67731 7.51537-5.74268.03744-7.91846-1.99532-7.92633-7.72475-.03894-28.14717-.02826-56.29443-.03485-84.90202z"/><path fill="#959695" d="M1245.2754 284c-.00062 9.49939.04308 18.49912-.01905 27.49808-.03614 5.23013-1.98206 7.23846-6.70142 7.21927-4.74939-.01932-6.66601-2.00763-6.6709-7.2046-.02478-25.99825-.02392-51.99654.0055-77.99474.00622-5.48526 2.03747-7.27324 7.73925-7.07699 4.04334.13915 5.7887 2.68325 5.75562 7.56557-.1117 16.49729-.08386 32.99552-.109 49.99341z"/><path fill="#979897" d="M788.22876 316.96008c-4.59027-2.71707-8.94843-5.12881-12.97522-8.00451-3.58655-2.56131-4.48944-5.95993-1.78803-9.95206 1.44166-2.13052 2.52613-4.50272 4.24268-7.62119 1.48169 1.95826 2.56091 3.11463 3.33478 4.44812 10.42645 17.96634 44.7987 19.13123 54.1795-2.10858.9109-2.06225 3.13153-4.47107 5.13764-4.90664 2.97217-.6453 6.2965.33172 9.47095.6181-.31922 2.47302-.07905 5.1943-1.0484 7.37881-6.2544 14.09412-17.774 21.23764-32.6125 22.97702-9.26763 1.08637-18.61999.62635-27.9414-2.82907zm371.43872 160.40519c-11.97693-8.22086-20.20203-19.07795-26.3518-31.6883-1.63636-3.35534-2.23731-6.36215 1.448-8.64648 3.50194-2.17063 8.49633-.90888 10.97765 2.46933 3.91822 5.3345 7.48047 11.03659 12.04663 15.75802 4.2102 4.35358 9.39466 7.83753 14.42847 11.29966 4.224 2.90512 5.49524 5.37857 3.46497 8.83718-3.54688 6.0423-6.88953 7.4884-11.54541 4.90082-1.4469-.80414-2.7749-1.82199-4.46851-2.93023z"/><path fill="#979998" d="M1270.12964 388.27972c-4.21948 1.67054-6.44946.73914-7.7771-3.54068-1.71485-5.52893-4.15589-10.83572-6.3479-16.21228-1.10303-2.70556-2.5581-5.8847 1.22204-7.15527 7.03833-2.36575 8.17737-3.44366 10.65479 2.12234 2.36108 5.30466 4.62463 10.659 6.7279 16.07041 2.2771 5.8583 1.88868 6.49338-4.47973 8.71548z"/><path fill="#346C9E" d="M379.10913 454.44931c.3616 4.33688 1.2786 9.1668.7467 13.83151-1.5309 13.42621-3.64016 26.78662-5.53714 40.17078-.63317 4.46728.46073 8.28485 4.44544 10.73425 7.30572 4.49079 14.94403 5.45557 23.06518 2.09546 2.06781-.85559 4.5058-.8164 7.22327-1.13092-8.08655 4.76392-17.0763 5.66626-26.4013 3.05792-8.77067-2.4533-10.79987-5.60131-9.64145-14.45227 1.44183-11.0162 3.00637-22.01822 4.27935-33.0539.79813-6.9189 1.15741-13.88842 1.81995-21.25283zm1.14288-101.03107c.64557.93604 1.65528 2.33219 1.66092 3.73242.09684 23.97764.19217 47.95685-.0108 71.93317-.05539 6.5469-1.08911 13.08554-2.01685 19.78037.0507-10.95972.75028-22.07123.77176-33.18402.0398-20.59958-.3167-41.1999-.40503-62.26194zm36.13889-5.09417c-2.6394-3.40885-4.92322-7.19007-1.8399-11.84876.56106-.84772.41043-2.25879.36431-3.40076-.26098-6.4599-.46878-12.92568-.92721-19.37292-.56284-7.91559-1.35452-15.81494-2.0426-24.1661 1.04727 5.39767 2.65695 11.20531 3.01867 17.08962.84503 13.74619 1.0907 27.5292 1.42673 41.69892zm-46.13779-119.15978c-1.23709-.30221-2.90506-.5673-3.98437-1.5079-5.61374-4.89224-11.15872-9.87071-16.56622-14.98972-3.90568-3.69731-7.5958-7.6266-11.27884-11.54932-.46222-.49226-.2938-1.57655-.40726-2.77314 10.6993 9.92412 21.38837 20.23485 32.2367 30.82008zm-81.3225-74.52006c-4.76206-1.83553-9.69172-3.93343-14.57954-6.12476-3.23117-1.4486-6.31427-3.26811-9.62155-4.49658-4.55087-1.69037-5.52249-3.50105-3.23858-7.72505 1.47409-2.7262 3.2145-5.30837 5.14242-8.10672-1.20678 4.01612-2.72043 8.18388-4.105 11.99623 8.68163 4.68097 17.467 9.41789 26.40224 14.45688zM169.1003 367.43509c.37007 2.17535.83623 4.76126.85278 7.35.07908 12.36908.0414 24.73896.02479 37.1085-.0011.8182-.17223 1.63623-.50358 2.7637-.48675-12.9158-.7664-26.14057-.95297-39.36661-.03496-2.47858.30236-4.96234.57898-7.8556zm.5748 49.90799c1.36853 2.46905 3.47876 5.21146 3.8475 8.17084.97463 7.8222 5.7538 13.26205 10.37552 18.93676.89078 1.0937 1.43056 2.47324 2.14594 4.08026-9.59374-7.85555-14.26291-18.6737-16.36896-31.18786zm207.90967-112.7829c.85074 1.58637 2.21322 3.53754 2.28021 5.53229.44992 13.39636.62454 26.802.64887 40.53573-1.16526-15.00692-2.09095-30.34497-2.92908-46.06802zm-50.8208-76.83142c.49649-.30098 1.4345-.5892 1.72598-.27593 6.13666 6.59617 14.89178 10.7537 18.51254 20.084-6.6672-6.27421-13.38266-12.8947-20.23852-19.80807zm92.43783 283.8776c2.35175-11.34473 3.2667-23.08369 3.33179-35.25327.84518 11.61609 2.04993 23.6157-3.33179 35.25326zm-50.2107-233.21049c1.94563 2.18091 4.00916 4.6705 5.89893 7.28568.41685.57687-.07168 2.09933.3457 2.34064 6.10407 3.5292 2.05103 8.84051 2.2042 13.65152-2.96301-7.43683-5.67822-15.18042-8.44882-23.27784zm-160.71267 18.26847c-.70479-.1431-1.76295-.55124-1.88476-1.14994-2.01749-9.91583-9.22563-13.57461-18.2749-15.55844 11.86412.18268 18.45701 5.57001 20.15966 16.70838zm203.68631-8.02872c-1.58743-2.14197-3.43893-4.54855-4.65078-7.24289-2.30369-5.12186-4.24146-10.40823-6.32532-16.00888 3.6709 7.36401 7.33587 15.1106 10.9761 23.25177zm-214.0934 169.00919c4.49425 1.08068 9.20814 2.35162 13.86618 3.802 4.37329 1.3617 8.68754 2.91308 13.15668 4.71005-8.85659-2.5285-17.8421-5.38599-27.02286-8.51205zm107.40292-289.48707c-.4877.41204-1.41894.87903-1.7106.62154-4.89554-4.32193-9.71127-8.73427-14.52908-13.49394 5.37503 3.95181 10.73437 8.27103 16.23968 12.8724zM332.8899 282.6315c-5.03827-.35226-10.28363-1.52264-15.51822-1.47613-3.97644.0353-7.93911 1.61862-12.30612 2.55569 8.64823-6.2351 18.05298-5.42792 27.82434-1.07956zm-168.49273 21.70926c1.04667 2.58597 2.51466 5.49731 2.96669 8.55869 1.04986 7.11016 1.60939 14.29272 2.12785 21.76077-1.87146-9.76544-3.50311-19.84567-5.09454-30.31946zm74.10424 21.90445c-10.14288-.04123-20.73996-.18897-31.44523-.72366 10.2582-.05225 20.62465.28244 31.44523.72366zm184.013 145.15396c-.82495-8.62558-1.54046-17.66632-2.01294-27.03638.86951 8.65418 1.49598 17.63773 2.01294 27.03638zm-195.10307-4.4596c2.78273-.0649 5.9651.00736 9.14787.03895 8.23737.08163 16.4749.14526 25.05054.44314-11.04077.03024-22.41968-.1666-34.1984-.48208zm108.90712-270.90252c-1.07043.2105-2.80447.64119-3.42105-.001-3.9728-4.13778-7.70123-8.51014-11.42194-13.15656 4.95734 4.05983 9.82673 8.4707 14.843 13.15756zm-37.45636 94.70837c-.2023 6.7093-.65951 13.63407-1.35806 20.88858.20685-6.6712.655-13.67215 1.35806-20.88858zm58.15292-30.36215c.71338-.19965 1.97013-.34122 2.24726.11383 2.61432 4.29306 5.06164 8.68784 7.4829 13.43375-3.26324-4.1506-6.45223-8.68164-9.73015-13.54758zm-171.44778 18.88236c-4.81242 2.56356-10.02368 5.03714-15.60391 7.38366 3.48733-5.4061 9.1439-6.86877 15.60391-7.38367zm233.78152 131.4218c-.46414-5.74825-.77435-11.8706-.8438-18.32366.49307 5.76272.74539 11.8561.8438 18.32367zm-143.04547-85.11767c-6.69253.52457-13.7976.90235-21.0985 1.01615 6.76476-.56363 13.7254-.86328 21.0985-1.01615zm-69.47494-.95654c-.57326-.36935-1.74107-1.25845-1.64977-1.9906.67899-5.44513 1.60776-10.85913 2.76633-16.4643-.17056 5.88166-.64932 11.94477-1.11656 18.4549zm213.69082 114.80151c-3.64645-5.40496-.76632-11.67178-1.07418-18.04223.54272 5.64871.85424 11.62985 1.07418 18.04223zM297.59665 324.11624c-.87033.64838-2.17609 1.71979-3.53308 1.78916-3.44837.1762-6.91971-.09616-10.70847-.43348 4.3765-.626 9.07965-1.0075 14.24155-1.35568zm-129.16988-36.2927c-.92093 4.2227-2.1491 8.60685-3.71797 13.10578.90978-4.23828 2.16026-8.59128 3.71797-13.10577zm249.29631 82.76826c-.6206-1.24372-1.53714-2.91837-1.62753-4.63645-.17932-3.40872.09695-6.84146.42923-10.59076.58817 4.70786.93207 9.74225 1.1983 15.2272zM388.043 247.61627c-2.86469-2.55359-5.83692-5.42878-8.68573-8.6626 2.94168 2.54126 5.75992 5.44114 8.68573 8.6626zm-8.77472-9.39392c-2.58871-2.10702-5.31155-4.50796-7.91092-7.26785 2.6746 2.08533 5.2257 4.52963 7.91092 7.26785zm-65.96848-63.1812c-4.84991 1.32677-5.37704-3.58087-7.87127-6.14723 2.61346 1.71808 5.16772 3.79521 7.87127 6.14723zm6.28602 46.09893c3.2536-.42692 5.93109.41493 6.0573 4.88595-2.03976-1.28975-3.95709-2.96095-6.0573-4.88595zm-22.49799-19.8104c2.5438 1.7924 5.20297 3.8991 7.87836 6.35683-2.57685-1.78017-5.1699-3.91136-7.87836-6.35683zm103.86438 63.33249c-4.25717-.3433-4.72763-3.93308-5.7255-7.54889 1.84574 2.15418 3.76331 4.67954 5.7255 7.54889zm17.40121 119.93472c-.45855-3.36273-.78543-7.13778-.87753-11.23816.4929 3.39176.75107 7.10877.87753 11.23816zm-248.5919-41.49844c.1482 5.67663.18855 11.76843.10402 18.2113-.15389-5.698-.1829-11.74707-.10402-18.2113zm240.58272 176.87909c1.68912-1.65717 3.72372-3.3263 6.12897-5.00244-1.68073 1.65875-3.7321 3.32458-6.12897 5.00244zm-90.0868-338.74576c-2.18206-1.486-4.50591-3.26156-6.73092-5.39128 2.26227 1.46448 4.42569 3.2831 6.73093 5.39128zm-53.88268 286.41785c2.25753-.30912 4.9397-.54035 7.99896-.75327-2.27335.28925-4.92386.56018-7.99896.75327zm82.28247-217.74568c1.3566 1.26219 2.85583 2.80082 4.35156 4.70088-1.4053-1.23386-2.80707-2.82915-4.35156-4.70088zm-34.54102-33.59468c1.5559 1.01638 3.23642 2.32923 4.94635 3.99096-1.58765-.99893-3.20471-2.34672-4.94635-3.99096zm-6.3402-5.5272c1.54003 1.037 3.24657 2.33918 5.07165 3.96882-1.55603-1.01622-3.2306-2.35991-5.07166-3.96882zm86.52941 44.57245c-1.38217-1.327-2.8523-2.97403-4.31958-4.98398 1.41244 1.3127 2.82205 2.98832 4.31958 4.98398zm-40.45343.89594c1.01102.85705 2.07425 1.98987 3.11594 3.47308-1.03559-.83218-2.04966-2.01477-3.11594-3.47308zM187.78766 450.5819c1.58995.79794 3.31685 1.89651 4.99954 3.35547-1.65034-.77802-3.25647-1.91645-4.99954-3.35547zm5.07408 3.91724c1.5021.52496 3.15175 1.35058 4.82079 2.53949-1.54482-.50406-3.10903-1.37143-4.82079-2.5395zm226.87349-35.8486c-.30634-1.21805-.50418-2.83411-.62488-4.83701.29593 1.2218.51468 2.83038.62488 4.837zM297.75598 315.32946c.33981.85715.59866 2.03756.63953 3.42285-.38553-.8966-.55301-1.9981-.63953-3.42285zm-3.89993-116.76963c.93118.39985 2.0053 1.07598 3.10422 2.11057-.97055-.37245-1.96592-1.10336-3.10422-2.11057zm4.55057 122.81028c.73202.14465 1.39813.6741 2.0642 1.20352-.55502.47742-1.11001.9548-1.95416 1.4707-.2514-.73749-.21371-1.51349-.11004-2.67422zm68.29284-46.78394c.71994.70245 1.50653 1.7237 2.27219 3.11212-.74912-.68634-1.47733-1.73983-2.27219-3.11212zm-76.6227-79.27952c.82775.2307 1.78112.74484 2.6907 1.62951-.88422-.20166-1.72464-.77388-2.6907-1.62951zm13.17437 89.35286c-.14844.61892-.56232 1.32547-1.33984 1.87872.11572-.69922.59506-1.24515 1.33984-1.87872zm-2.11093 2.10882c-.0195.5917-.271 1.35214-.88565 2.15387-.02423-.63419.31473-1.30966.88565-2.15387zM186.20517 449.2102c.43004-.00067.94807.27076 1.48946.8512-.45159.01297-.92653-.28311-1.48946-.8512zM347.19089 248.195c.40948.06356.89337.3732 1.28158.98098-.46615-.0462-.83667-.39053-1.28158-.98097zm-9.2333-50.47805c-.44767-.02818-.9802-.31279-1.42726-.9169.50443.00717.92338.33381 1.42725.9169zm-2.07792 86.99002c-.44507.03702-.99216-.20114-1.58838-.75195.4627-.04953.97455.21362 1.58838.75195zm-29.79651-75.43121c.43555.00216.98605.26202 1.51999.85052-.4794.0215-.9422-.28566-1.51999-.85052zM169.61703 339.4937c.20684.27912.27794.8049.27718 1.59741-.18555-.27242-.29922-.81158-.27717-1.5974zm151.70112-157.29684c-.24836.13399-.59131.05603-.9183-.32307.34768-.286.61687-.14856.9183.32307zm50.00997 48.14229c-.2561.09147-.59176-.04048-.8775-.47187.37558-.22097.62491-.03836.8775.47187zm-37.1431 53.12947c-.21874.14099-.5589.0358-1.02157-.32025.21835-.14258.5593-.03424 1.02158.32025zm-29.71834.2528c.07605.26346-.09946.58732-.5734.87943-.09168-.29416.11505-.55658.5734-.87942zm-11.68863-86.21832c.24472-.09582.5762.06502.94699.51654-.26053.10717-.5604-.07635-.947-.51654zm102.41665 59.0621c-.24975.06298-.55801-.13556-.86108-.6264.27096-.07324.5368.14584.86108.6264zm-90.17065-48.29041c.21554-.07994.49316.10307.86764.52149-.20395.07075-.50473-.0939-.86764-.52149zm-135.6929 78.43188c.1285.24415.02264.59232-.37818.97501-.14871-.2673-.00245-.56912.37818-.975zm248.08987 227.63477c-.11044-.2342.05542-.62189.51853-1.1413.11743.24152-.06241.61463-.51853 1.1413zm-165.6755-188.06396c.24433.08612-.09916.40267-.09916.40267s-.44862-.06372-.54295-.19512c.0697-.18549.23373-.23957.6421-.20755zm73.94198-99.60787c.25034-.11273.59457.00577.9372.42507-.35373.25764-.63428.09277-.9372-.42507z"/><path fill="#FCFEFE" d="M278.99942 360.01141c7.46253-.00244 14.42502-.00244 21.69293-.00244.30115 1.86078.73899 3.28491.7297 4.70618-.0986 15.11899-.17852 30.23917-.45196 45.35559-.16314 9.02032-4.79953 15.5581-12.68869 19.38516-20.65494 10.01984-42.08842 10.49832-63.48605 3.12665-10.26999-3.53806-17.04746-12.01126-18.3172-22.62338-1.96239-16.40125-2.20206-33.0086-3.1968-49.94528 26.04589 0 50.63197 0 75.71807-.00248z"/><path fill="#FBFCFC" d="M1146.88745 402.6409c-.50159 6.85141-1.9303 8.18494-8.33484 8.24322-12.0277.10941-12.4231-.27151-12.43945-12.08413-.00513-3.66223.01343-7.32446.01965-10.9867.00635-3.74884 1.81616-6.05453 5.58374-6.33483 3.14087-.23368 6.32617-.27518 9.46387-.03586 3.68701.28125 5.67969 2.44781 5.6798 6.25927.00025 4.82746.01258 9.65491.02723 14.93903z"/><path fill="#FEFEFE" d="M589.55963 284.81604c4.43189 12.04504-.8153 20.7342-13.87451 21.94519-9.91382.91928-19.9668.5279-29.94812.29663-1.30463-.03027-3.5824-2.53207-3.65173-3.9737-.3678-7.64285-.1203-15.31332-.20142-22.97298-.03198-3.01917 1.3432-4.20817 4.25018-4.10929 10.13459.34482 20.28833.38013 30.39936 1.06085 5.22125.35154 10.07757 2.30988 13.02624 7.7533z"/><path fill="#FDFDFD" d="M585.76587 257.42127c-3.5617 6.17373-9.48962 6.99536-15.24536 7.32412-8.1131.46335-16.26831.154-24.40405.27347-2.91822.04282-4.27735-1.11795-4.24274-4.10928.07306-6.30988.0335-12.62133.00586-18.93198-.01264-2.89133 1.37585-4.28358 4.25879-4.24841 9.13195.11143 18.29168-.19634 27.38897.42054 10.86878.737 15.54786 8.29941 12.23853 19.27154zm134.09906-89.42112c-9.76825.00042-19.05597.00042-29.09882.00042.42456-2.07615.53962-3.65688 1.07202-5.0817 4.35608-11.65859 8.7345-23.30979 13.26758-34.90012.59253-1.51492 2.10022-2.67196 3.18396-3.99478 1.05841 1.33107 2.49542 2.5069 3.115 4.01793 4.7251 11.52211 9.30767 23.10295 13.88262 34.68602.52777 1.33624.73706 2.7983 1.27442 4.91182-2.43836.1412-4.32733.2506-6.69678.36041z"/><path fill="#FCFDFD" d="M1056.71484 148.7205c2.86792-7.49304 5.50757-14.65803 8.35498-21.73946.4779-1.18845 1.85572-2.01504 2.81775-3.00884.95508 1.00781 2.31702 1.8508 2.80225 3.04886 4.98193 12.3019 9.8363 24.65562 14.6737 37.01547.3921 1.00198.3949 2.15637.63892 3.59647h-36.30896c2.43152-6.5747 4.6471-12.56554 7.02136-18.9125z"/><path fill="#FBFCFC" d="M1184.4436 259.55762c2.75244 6.92181 5.34424 13.49334 8.23096 20.8124h-32.91785c.3352-1.69683.42908-3.30114.97132-4.73596 3.98498-10.54238 8.01782-21.0674 12.16308-31.54745.47681-1.20561 1.73743-2.10124 2.63465-3.14061 1.04846 1.12723 2.50976 2.08041 3.07129 3.41287 2.05725 4.8812 3.8153 9.88857 5.84655 15.19875z"/><path fill="#FCFDFD" d="M775.9981 424.06055c-.0017 1.9585.0392 3.45535-.01196 4.9491-.1734 5.06326-2.56951 7.74825-7.6029 7.919-5.9748.2027-11.96503.17416-17.9422.012-5.25714-.14265-7.38544-2.4951-7.55219-7.78956-.51147-16.24804.09253-16.87512 16.25458-16.87545 1.82776-.00004 3.65564-.00986 5.48334.00167 9.45898.0597 11.362 1.95627 11.37134 11.78324z"/></svg>