<svg xmlns="http://www.w3.org/2000/svg" role="img" viewBox="-1.24 140.51 402.48 92.48"><title>WIN SOURCE ELECTRONICS (member) logo</title><g fill-rule="evenodd"><path fill="#fbfbfb" d="M0 200v200h400V0H0v200m121.932-51.339c.731.195.875.432.666 1.094-.147.465-.432 1.61-.633 2.545-.201.935-.545 2.51-.765 3.5l-.8 3.6c-.22.99-.57 2.565-.779 3.5-.208.935-.489 2.24-.624 2.9-.276 1.343-1.312 6.136-2.802 12.954-.547 2.504-.995 4.934-.995 5.4V185l19.9-.2c20.456-.206 21.785-.314 22.365-1.825.68-1.771-.423-1.963-12.579-2.185l-11.486-.209-2.148-1.18c-5.897-3.24-5.94-9.906-.096-14.701.469-.385 1.031-.7 1.249-.7.217 0 .395-.15.395-.332 0-.183 1.304-.768 2.897-1.3l2.898-.968h68.411l2.897.968c1.593.532 2.897 1.117 2.897 1.3 0 .182.234.332.521.332 2.416 0 6.108 6.716 5.758 10.476-.325 3.488-1.78 7.813-2.779 8.257-.165.074-.3.384-.3.689 0 1.115-5.14 5.618-8.093 7.089-2.787 1.389-3.687 1.715-7.353 2.663-2.528.654-16.454.546-19.117-.148-10.586-2.757-14.387-11.701-9.028-21.242l.782-1.393-17.095.105c-14.883.091-17.096.182-17.096.704 0 .514 1.564.629 10.88.8 7.944.146 11.015.335 11.38.7.275.275.779.501 1.12.501.341.001 1.397.664 2.348 1.474 6.8 5.794 2.088 15.497-8.974 18.481-2.874.775-42.823.608-43.264-.181-.317-.567-.398-.567-.869 0-.366.44-1.232.625-2.932.625-3.098 0-3.331-.178-12.481-9.51-8.057-8.218-7.349-7.935-8.227-3.29-.815 4.308-1.24 6.396-1.914 9.4l-.717 3.2-4.942.113c-6.29.143-5.977.611-4.365-6.513.711-3.141 1.209-5.621 1.406-7 .11-.77.358-1.76.551-2.2.193-.44.442-1.43.553-2.2.111-.77.393-2.255.625-3.3.866-3.896 1.186-5.331 1.452-6.5.719-3.166 3.533-4.901 7.045-4.343 1.59.252 2.348.9 9.655 8.258 4.362 4.391 8.074 7.827 8.25 7.635.175-.193.623-1.79.995-3.55.371-1.76.845-3.92 1.052-4.8.208-.88.565-2.5.793-3.6.228-1.1.587-2.765.797-3.7.211-.935.563-2.51.783-3.5l.8-3.6c.22-.99.554-2.628.743-3.641.188-1.013.593-2 .9-2.194.634-.401 8.074-.483 9.489-.104M37.999 161.4c1.74.899 2.899 2.737 4.794 7.6.943 2.42 1.96 4.923 2.261 5.561.3.639.546 1.404.546 1.7 0 1.758.815.482 3.615-5.661 4.788-10.506 3.591-9.386 10.042-9.394 6.076-.007 5.987-.112 3.739 4.394-13.772 27.604-13.802 27.651-17.799 28.2-3.523.485-5.065-.789-7.149-5.9-.246-.605-.652-1.595-.902-2.2-.249-.605-.609-1.505-.8-2-.19-.495-.55-1.395-.8-2-.249-.605-.595-1.46-.768-1.9-1.942-4.926-1.776-4.826-3.816-2.3-.844 1.045-1.633 1.99-1.754 2.1-.188.171-2.151 2.545-4.462 5.394-6.009 7.408-7.534 8.682-10.483 8.754-4.382.107-5.377-1.422-5.927-9.101-.207-2.886-.567-7.587-.801-10.447-.233-2.86-.449-6.91-.48-9L7 161.4h10.8l.465 6c.256 3.3.486 6.81.513 7.8l.049 1.8.83-1c3.517-4.235 4.274-5.133 6.071-7.204.48-.552 1.681-1.992 2.67-3.2 2.502-3.055 2.641-3.185 4.314-4.021 1.819-.909 3.746-.973 5.287-.175m38.954 1.4c-.042 1.291-.396 3.293-1.305 7.4-.195.88-.845 3.94-1.444 6.8s-1.251 5.92-1.449 6.8c-.49 2.181-1.124 5.249-1.512 7.32-.465 2.479-.563 2.518-6.076 2.393-4.704-.107-4.961-.155-4.861-.913.097-.731.255-1.533 1.259-6.4.181-.88.815-3.85 1.407-6.6.593-2.75 1.255-5.9 1.47-7 .216-1.1.545-2.72.732-3.6.186-.88.525-2.5.753-3.6.229-1.1.606-2.501.839-3.112l.424-1.113 4.905.113L77 161.4l-.047 1.4m158.114-.97c.133.346.046 1.291-.193 2.1-.24.808-.712 2.91-1.05 4.67-.338 1.76-.977 4.892-1.419 6.961-1.678 7.843-.337 9.239 8.879 9.239 8.54 0 10.683-1.705 12.318-9.8.488-2.42 1.217-6.025 1.619-8.012.403-1.986.923-4.116 1.158-4.732l.425-1.12 22.498.161c17.637.126 22.8.277 23.898.701.77.297 1.895.734 2.5.969.605.236 1.1.564 1.1.731 0 .166.26.302.577.302 1.429 0 4.202 4.716 4.217 7.172.025 4.049-3.896 9.643-8.313 11.858l-1.655.83 4.187 4.269c5.61 5.719 5.743 5.471-2.946 5.471h-7.134l-3.883-4.01-3.884-4.01-6.483.11-6.483.11-.721 3.2c-1.055 4.679-.656 4.383-6.088 4.513-2.599.063-4.876-.038-5.061-.223-.38-.38 2.249-13.748 3.008-15.29l.492-1 15.424-.2c16.388-.213 15.922-.155 17.637-2.183.98-1.159.896-2.841-.18-3.594-1.371-.961-34.104-.94-34.473.021-.135.354-.614 2.469-1.063 4.7-2.258 11.213-6.555 15.42-17.799 17.424-4.685.835-14.046.415-17.176-.769-7.85-2.972-9.306-6.261-7.259-16.399 3.335-16.522 2.374-14.8 8.262-14.8 4.019 0 4.862.105 5.064.63m121.996-.01c.3.781-.528 5.097-1.357 7.08l-.627 1.5h-12.544c-14.29 0-14.736.086-17.643 3.393-3.636 4.136-2.774 8.851 1.908 10.435.55.186 6.49.436 13.2.555 10.564.188 12.182.297 12.065.817-.075.33-.317 1.59-.538 2.8-.221 1.21-.523 2.83-.671 3.6l-.269 1.4-12.194.122c-17.332.175-22.099-1.299-25.144-7.77-.298-.633-.701-1.465-.896-1.847-2.828-5.559 3.414-16.749 11.247-20.162 5.384-2.346 5.723-2.385 21.513-2.476 10.25-.059 11.742.01 11.95.553m36.537.088c0 .389-1.713 2.414-3.807 4.5l-3.807 3.792-8.952.121c-8.736.118-8.957.141-9.174.969-.383 1.465-.056 1.51 10.964 1.51 12.785 0 12.305-.342 7.007 5l-3.77 3.8h-16.3l-.481 1.328c-.264.731-.48 1.451-.48 1.6 0 .15 5.4.272 12 .272 7.998 0 12 .138 12 .414 0 .227-1.743 2.207-3.872 4.4l-3.873 3.986h-28.336l.212-1.7c.116-.935.388-2.51.605-3.5.217-.99.514-2.52.661-3.4.147-.88.421-1.96.61-2.4.189-.44.435-1.43.546-2.2.197-1.359.492-2.843 1.393-7 .238-1.1.877-4.142 1.419-6.761.542-2.619 1.222-4.911 1.51-5.094 1.196-.758 33.925-.408 33.925.363m-206.714 8.995c-5.5 1.762-8.131 9.5-4.155 12.217 2.397 1.638 13.602 2.295 18.711 1.097 6.6-1.547 9.118-10.406 3.723-13.098-1.602-.799-15.932-.968-18.279-.216m-25.086 36.43c2.315 1.257 2.422 2.734.276 3.828-1.381.705-1.664.733-2.324.234-1.657-1.255-6.984-.608-7.944.963-1.473 2.411-1.989 8.133-.775 8.599 1.193.458 5.407.243 6.521-.333 1.27-.657 3.646.372 3.646 1.579 0 2.719-10.432 4.288-13.41 2.017-3.872-2.954-1.4-14.298 3.61-16.569.66-.299 1.47-.692 1.8-.874 1.308-.719 6.919-.357 8.6.556m67.994-.366c6.797 2.365 4.768 15.032-2.831 17.677-4.094 1.425-10.527.268-11.804-2.123-.641-1.2-.678-6.901-.055-8.268.214-.469.638-1.393.942-2.053 2.102-4.556 8.593-7.027 13.748-5.233m63.917.022c3.087 1.289 3.542 2.96 1.141 4.185-1.359.693-1.641.72-2.3.221-1.332-1.009-6.281-.789-7.354.326-1.81 1.881-2.929 8.245-1.598 9.087.961.608 5.707.473 6.652-.189.736-.516.984-.499 2.189.146 3.624 1.942-.013 4.435-6.469 4.435h-4.271l-1.451-1.328-1.45-1.329v-3.648c0-2.006.18-3.759.4-3.895.22-.136.4-.563.4-.949 0-5.283 8.358-9.466 14.111-7.062m22.372-.06c2.648.922 3.986 2.963 3.32 5.062-.397 1.252-3.213 1.131-4.438-.191-1.653-1.783-7.765-1.172-7.765.776 0 .668 1.065.958 4.6 1.253 5.534.461 7.327 2.704 5.658 7.076-2.335 6.112-16.776 5.909-16.182-.227.175-1.804 3.385-2.161 4.474-.498 1.329 2.028 7.85 1.229 7.85-.962 0-1.259-.9-1.618-4.056-1.618-1.703 0-3.208-.18-3.344-.4-.136-.22-.515-.4-.842-.4-2.836 0-3.338-5.826-.691-8.025 2.549-2.119 8.071-3.012 11.416-1.846m-217.283.525c0 .139-.207.944-.46 1.788l-.46 1.534-4.84.112-4.84.112-.124 1.5-.124 1.5h3.636c3.968 0 4.236.16 3.683 2.2l-.326 1.2-3.964.2c-3.846.194-3.976.231-4.334 1.253-.742 2.118-.299 2.347 4.54 2.347 4.844 0 4.971.081 4.023 2.574l-.39 1.026H81.501l.225-2.1c.123-1.155.596-3.81 1.052-5.9.455-2.09 1.016-4.79 1.247-6 .758-3.973-.05-3.6 7.802-3.6 3.835 0 6.973.114 6.973.254m11.245.546c-.086.33-.31 1.41-.498 2.4s-.534 2.61-.768 3.6c-.234.99-.576 2.7-.761 3.8-.185 1.1-.399 2.27-.477 2.6-.118.504.644.618 4.759.712l4.9.113v1.111c0 2.398-.32 2.495-7.802 2.374l-6.798-.11.058-1c.052-.908.294-2.194 1.317-7 .188-.88.551-2.68.808-4 .257-1.32.646-3.084.863-3.92l.396-1.52 2.079.12c1.614.093 2.044.254 1.924.72m31.155-.019c0 2.517-.576 2.819-5.384 2.819-4.842 0-5.416.22-5.416 2.08V214h3.8c4.164 0 4.339.131 3.41 2.574-.381 1.001-.482 1.026-4.152 1.026h-3.761l-.494 1.193c-.907 2.19-.512 2.407 4.384 2.407H138v1.32c0 2.181-.326 2.28-7.52 2.28h-6.561l.209-1.7c.196-1.588.553-3.415 1.427-7.3.198-.88.642-3 .985-4.71.344-1.711.734-3.286.866-3.5.531-.859 13.794-.482 13.794.391m45.6.57c0 1.835-.575 2.189-3.786 2.329l-2.752.12-.915 4.2c-.503 2.31-1.122 5.19-1.375 6.4-.252 1.21-.528 2.435-.612 2.722-.367 1.26-3.969.404-3.877-.922.141-2.041.55-4.363.917-5.2.339-.773.594-2.146 1.057-5.681l.221-1.681-2.735-.119c-2.989-.13-3.328-.454-2.569-2.451l.406-1.068h16.02v1.351m20.066-.504c2.531 1.802 2.464 5.423-.149 8.036l-1.577 1.577.786 1.672c.432.92.851 2.481.93 3.47L207 224.6h-1.956c-2.152 0-2.255-.1-3.076-3-1.206-4.258-6.71-4.77-6.755-.628-.031 2.836-.792 3.828-2.939 3.828h-1.965l.273-1.9c.15-1.045.424-2.53.61-3.3s.543-2.39.793-3.6c.63-3.053 1.193-5.535 1.655-7.3l.392-1.5h5.822c5.289 0 5.931.078 7.012.847m40.963-.276c.314.315.571.687.571.828 0 .141.513 1.009 1.141 1.929.627.92 1.212 1.852 1.3 2.072 1.229 3.081 3.465 5.801 3.712 4.516.455-2.359 1.214-5.901 1.652-7.716l.483-2 2.112-.123 2.112-.123-.291 1.523c-.306 1.6-.754 3.719-1.421 6.723-.737 3.317-1.128 5.189-1.421 6.8-.408 2.251-.812 2.6-3.009 2.6-2.109 0-2.761-.652-5.203-5.2-.532-.99-1.057-1.89-1.167-2-.215-.215-1.049-1.641-1.818-3.11l-.477-.909-.421 1.109c-.231.611-.701 2.55-1.045 4.31-1.12 5.737-1.035 5.583-3.166 5.722l-1.873.122v-1.494c0-.821.166-2.046.369-2.722.203-.675.572-2.218.82-3.428s.615-2.92.817-3.8c.202-.88.566-2.635.809-3.9l.442-2.3h2.2c1.373 0 2.415.215 2.772.571m25.107.429c-.065.801-.634 3.705-1.353 6.9-.913 4.057-1.202 5.401-1.507 7.015-.461 2.443-.708 2.685-2.738 2.685h-1.815l.207-1.9c.113-1.045.411-2.8.66-3.9.25-1.1.546-2.63.657-3.4.111-.77.36-1.76.553-2.2.193-.44.443-1.43.556-2.2.615-4.181.522-4.051 2.792-3.919 1.772.103 2.043.228 1.988.919m-75.672 3.619c-1.111 2.439-.726 2.981 2.117 2.981 4.081 0 6.626-1.909 4.516-3.387-1.591-1.115-6.065-.841-6.633.406m24.866-.457c-3.117 1.409-4.486 8.201-1.892 9.383 4.715 2.148 9.362-1.239 9.362-6.824 0-2.816-3.926-4.161-7.47-2.559"/><path fill="#da1f2b" d="M112.44 150.3c-.425 1.622-.931 3.837-1.67 7.3-.258 1.21-.625 2.74-.814 3.4-.264.921 1.089-.289 5.813-5.197 3.387-3.519 6.074-6.534 5.971-6.7-.103-.167-2.149-.303-4.548-.303h-4.36l-.392 1.5m24.138 12.291c-9.126 2.884-12.449 11.773-5.921 15.839 2.765 1.721 4.624 1.961 15.224 1.966 11.353.005 12.236.164 12.039 2.176-.25 2.553-.543 2.587-22.555 2.609l-19.634.019-.696 2.883c-.383 1.586-.881 3.229-1.107 3.651-.765 1.431.273 1.499 20.872 1.362 22.478-.15 21.999-.096 26.851-3.045 5.801-3.526 7.39-10.601 3.264-14.536-2.584-2.465-3.977-2.715-15.104-2.715-11.356 0-13.059-.358-11.246-2.362.688-.759 35.435-1.438 35.435-.692 0 .081-.607 1.386-1.348 2.9-5.309 10.84-.397 18.878 12.348 20.209 19.815 2.069 33.083-5.312 33.174-18.455.045-6.496-2.557-9.667-9.802-11.95-2.18-.687-69.593-.554-71.794.141m88.278 1.509c-.617 2.618-1.065 4.674-1.634 7.5-.243 1.21-.798 3.782-1.232 5.715-2.521 11.218 2.268 15.55 17.191 15.55 15.168 0 21.902-4.504 24.022-16.065.263-1.43.623-3.14.801-3.8.178-.66.434-1.695.568-2.3l.243-1.1 16.493.001c18.745 0 19.164.06 19.423 2.768.424 4.45-1.064 4.831-18.847 4.831h-14.663l-.556 1.1c-.305.605-.666 1.82-.802 2.7-.135.88-.431 2.41-.656 3.4-.845 3.718-1.307 6.237-1.356 7.4l-.051 1.2h8.8l.481-1.6c.264-.88.698-2.635.964-3.9l.483-2.3h13.626l4.065 4 4.065 4h6.234c3.466 0 6.338-.167 6.467-.376.128-.208-1.571-2.221-3.776-4.474-4.613-4.714-4.608-4.7-2.185-5.877 7.321-3.556 10.097-12.196 5.419-16.864-3.583-3.576-3.857-3.609-29.49-3.609h-22.025l-.494 2.3c-.271 1.265-.652 2.93-.845 3.7-.193.77-.427 1.85-.521 2.4-1.258 7.422-2.274 10.673-3.818 12.217-1.922 1.921-4.551 2.583-10.265 2.583-9.43 0-11.063-1.837-9.067-10.2.523-2.191 2.047-9.223 2.45-11.3l.329-1.7h-9.346l-.495 2.1M329 162.443c-.66.209-1.83.567-2.6.795-14.07 4.165-18.782 21.773-7.4 27.657 3.407 1.761 5.073 1.965 17.897 2.191 14.106.249 13.174.49 13.868-3.581.273-1.598.584-3.22.692-3.605.184-.655-.567-.7-11.811-.7-8.459 0-12.339-.142-13.127-.48-5.252-2.256-5.99-7.2-1.727-11.565 3.254-3.33 4.416-3.555 18.376-3.555h11.939l.268-1.1c.147-.605.413-1.82.59-2.7.178-.88.458-2.095.622-2.7l.3-1.1-13.344.032c-7.338.017-13.883.202-14.543.411m30.384 1.057c-.138.825-.401 2.04-.584 2.7-.183.66-.448 1.92-.588 2.8-.141.88-.503 2.68-.806 4-.474 2.071-1.408 6.467-3.059 14.4-.229 1.1-.596 2.7-.815 3.556-.577 2.257-.736 2.231 13.839 2.238l13.172.006 3.918-3.9 3.918-3.9-11.884-.2c-13.176-.222-12.801-.131-11.682-2.832l.484-1.168h16.429l3.745-3.8 3.745-3.8h-10.759c-12.029 0-11.956.017-11.176-2.524l.453-1.476h18.082l3.784-3.8 3.784-3.8h-33.748l-.252 1.5M205.4 170.635c6.009 3.135 3.466 12.084-4.001 14.081-3.342.894-15.468.644-17.61-.363-5.98-2.811-4.072-11.102 3.211-13.953 3.009-1.178 16.01-1.012 18.4.235"/><path fill="#0a0a0a" d="M115.608 156.003c-6.223 6.542-5.874 5.95-7.193 12.197-.279 1.32-.646 2.94-.815 3.6-.169.66-.528 2.28-.798 3.6-.681 3.342-.709 3.411-1.287 3.187-.283-.109-3.842-3.633-7.908-7.831C89.525 162.413 88.98 162 86.033 162c-3.097 0-4.439 1.551-5.39 6.229-.399 1.964-.888 4.291-1.087 5.171-.397 1.759-.903 4.131-1.538 7.2-.227 1.1-.595 2.81-.817 3.8-.868 3.875-1.302 6.251-1.35 7.4L75.8 193h8.767l.486-1.4c.267-.77 1.066-4.28 1.775-7.8.708-3.52 1.467-6.75 1.685-7.177.353-.69 1.282.127 8.304 7.305 8.117 8.295 9.405 9.272 12.223 9.272 1.576 0 4.16-2.174 4.16-3.5 0-.354.166-1.196.369-1.872.203-.675.572-2.218.82-3.428s.621-2.965.831-3.9c.209-.935.56-2.51.78-3.5.22-.99.574-2.565.787-3.5.213-.935 1.032-4.76 1.821-8.5.789-3.74 1.802-8.357 2.25-10.26 1.303-5.521 1.174-5.49-5.25 1.263M33.4 161.865c-1.075.286-2.518 1.681-5.934 5.735-1.575 1.87-2.961 3.49-3.08 3.6-.118.11-1.345 1.595-2.726 3.3-1.381 1.705-2.742 3.1-3.025 3.1-.559 0-1.035-5.543-1.035-12.062V162H7.086l.259 2.481c.143 1.365.449 5.01.679 8.1 1.504 20.144 1.504 20.141 5.016 20.8 3.129.587 4.774-.808 13.479-11.433 7.309-8.921 6.218-9.054 10.289 1.252 4.408 11.157 6.712 12.793 11.698 8.304C49.659 190.466 64 163.283 64 162.135c0-.074-2.307-.135-5.126-.135h-5.126l-2.129 4.7c-5.126 11.314-5.519 11.994-6.109 10.59-.16-.38-1.475-3.57-2.922-7.09-3.352-8.151-4.834-9.496-9.188-8.335m33.475 2.435c-.279 1.265-.697 3.2-.928 4.3-.231 1.1-.567 2.63-.747 3.4-.18.77-.535 2.39-.789 3.6s-.642 3.01-.861 4c-1.621 7.308-2.626 12.656-2.461 13.089.142.369 1.34.511 4.305.511 4.699 0 4.935-.135 5.466-3.116.184-1.036.517-2.694.739-3.684.222-.99.582-2.7.801-3.8.219-1.1.557-2.72.752-3.6.194-.88.834-3.94 1.422-6.8.587-2.86 1.221-5.83 1.407-6.6.186-.77.45-1.895.587-2.5l.247-1.1h-9.433l-.507 2.3m85.712 43.325c-5.705 1.659-8.48 14.556-3.573 16.607 3.399 1.42 10.931.151 11.31-1.905.186-1.006-1.39-1.716-2.593-1.168-1.597.727-6.75.565-7.553-.238-1.353-1.354.166-8.479 2.125-9.967.844-.64 6.591-.746 7.72-.142 1.028.551 3.281-.565 3.101-1.535-.327-1.755-6.732-2.759-10.537-1.652m70.013-.035c-4.737 1.218-7.4 5.269-7.4 11.256 0 7.694 12.803 8.336 16.547.829 4.294-8.613-.095-14.412-9.147-12.085m62.917-.013c-5.86 1.865-8.719 14.14-3.877 16.643 2.955 1.529 11.079.166 11.484-1.925.196-1.014-1.353-1.633-2.812-1.124-2.014.702-6.536.548-7.334-.25-1.244-1.244-.371-6.621 1.53-9.421.822-1.212 7.125-1.707 8.189-.643.478.478 3.303-.552 3.303-1.206 0-1.858-6.883-3.219-10.483-2.074m22.383.104c-2.014.535-3.714 2.204-4.326 4.248-.954 3.184 1.125 4.863 6.426 5.188 4.316.265 4.982.768 3.967 2.996-1.102 2.419-7.987 2.498-8.906.102-.431-1.123-3.462-.66-3.46.528.011 4.575 10.656 5.659 14.342 1.461 3.467-3.949 1.265-7.799-4.463-7.803-4.343-.002-6.151-1.372-4.205-3.185 1.314-1.224 7.681-1.219 8.337.007.754 1.408 3.415.949 3.306-.572-.211-2.959-5.596-4.41-11.018-2.97m-222.533.373c-.154.249-.611 2.094-1.016 4.1-.405 2.005-1.097 5.356-1.538 7.446-.441 2.09-.805 4.03-.808 4.31-.004.397 1.395.486 6.295.4l6.3-.11.125-1.3.126-1.3-4.126-.006c-5.17-.008-5.413-.138-4.739-2.543l.51-1.824 4.052-.114L94.6 217l.125-1.3.126-1.3h-7.753l.265-1.662c.383-2.395.252-2.338 5.414-2.338 5.047 0 5.193-.064 5.218-2.3.007-.678-12.21-.723-12.628-.046m20.892.646c-2.618 11.93-3.121 14.563-2.893 15.155.177.461 1.386.545 6.525.455l6.309-.11.125-1.3.126-1.3h-4.638c-5.402 0-5.346.045-4.468-3.662.33-1.396.889-3.978 1.243-5.738.353-1.76.708-3.515.789-3.9.121-.569-.134-.7-1.364-.7-1.325 0-1.543.136-1.754 1.1m21.418.2c-.87 2.936-3.237 14.842-3.02 15.192.104.169 2.884.308 6.177.308h5.986l.39-1.026c.655-1.722.54-1.774-3.91-1.78-5.298-.008-5.428-.074-4.74-2.407l.527-1.787 4.056-.114 4.057-.114V214.4h-3.576c-4.066 0-4.131-.043-3.552-2.324l.425-1.676h4.752c2.613 0 4.751-.046 4.751-.103 0-.056.167-.686.372-1.4l.372-1.297h-12.682l-.385 1.3m43.375-.4c-.488 1.82-.381 1.9 2.548 1.9 3.252 0 3.107-.352 1.992 4.839-2.125 9.883-2.066 8.934-.558 9.081 1.591.156 1.918-.325 2.529-3.72.277-1.54.651-3.34.831-4 .179-.66.549-2.325.821-3.7l.494-2.5h2.956c3.011 0 3.735-.47 3.735-2.426 0-.954-15.09-.437-15.348.526m23.088.771c-.428 1.635-.757 3.124-1.776 8.029-.24 1.155-.618 2.74-.839 3.521-.652 2.309-.326 3.359 1.087 3.498 1.259.123 2.188-1.764 2.188-4.445 0-3.508 6.452-2.553 7.602 1.126 1.046 3.346 1.087 3.4 2.589 3.4 1.916 0 1.866-2.344-.125-5.914-.468-.841-.36-1.06 1.332-2.705 1.807-1.756 1.839-1.832 1.722-4.045-.187-3.507-.95-3.903-7.852-4.065l-5.476-.128-.452 1.728m49.277-1.298c-.223.36-.589 1.981-1.407 6.227-.212 1.1-.751 3.692-1.198 5.761-1.01 4.679-1.026 4.44.288 4.433 1.659-.009 2.094-.471 2.473-2.626 1.57-8.934 2.203-10.522 3.219-8.068 1.846 4.456 6.262 10.504 7.761 10.627 2.059.169 2.199-.03 3.087-4.386.419-2.057.962-4.641 1.205-5.741.243-1.1.579-2.72.745-3.6.166-.88.44-1.927.609-2.326.272-.645.116-.711-1.423-.6l-1.73.126-.738 3.6c-.406 1.98-.844 4.362-.974 5.294-.443 3.175-1.134 3.013-3.267-.768-.411-.73-1.693-2.901-2.85-4.826l-2.102-3.5h-1.734c-.953 0-1.838.168-1.964.373m25.64 1.127c-.298 1.795-.916 4.897-1.414 7.1-1.848 8.166-1.847 8-.058 8 1.513 0 1.398.218 2.378-4.5.241-1.155.633-3.045.873-4.2.24-1.155.592-2.73.783-3.5.19-.77.452-2.075.581-2.9l.236-1.5h-1.565c-1.498 0-1.576.065-1.814 1.5m-64.557 1.857c2.474 1.878-.371 4.308-4.869 4.158L196.2 215l.141-1.6c.251-2.837.48-3.002 4.173-2.987 2.096.008 3.539.205 3.986.544m24.938.286c2.573 2.848-.433 9.674-4.484 10.18-6.667.833-8.687-2.502-5.26-8.685 1.374-2.479 7.944-3.487 9.744-1.495"/><path fill="#9b9b9b" d="M121.663 150.3c-.055.825-.443 2.94-.862 4.7-1.279 5.376-3.601 16.29-3.601 16.93 0 1.131.393.214.841-1.961.974-4.73 1.286-6.178 2.342-10.869.21-.935.569-2.6.797-3.7.228-1.1.588-2.81.8-3.8.483-2.257.503-2.8.102-2.8-.175 0-.364.675-.419 1.5m-88.039 11.017c-1.457.469-3.585 2.391-6.291 5.683-4.877 5.934-8.539 10.257-8.585 10.137-.028-.076-.253-3.557-.5-7.737l-.448-7.6-5.551-.112-5.551-.111.241 3.311c.132 1.822.412 5.472.623 8.112.21 2.64.575 7.395.81 10.566.401 5.409.827 7.875.829 4.801.001-1.462-.957-13.837-1.609-20.767-.217-2.31-.394-4.515-.393-4.9.001-.631.516-.7 5.201-.7h5.2v3.538c0 6.519.476 12.062 1.035 12.062.283 0 1.644-1.395 3.025-3.1s2.608-3.19 2.726-3.3c.119-.11 1.505-1.73 3.08-3.6 4.737-5.622 4.958-5.784 7.919-5.793 3.467-.01 4.001.573 6.819 7.437 1.262 3.075 2.393 5.492 2.513 5.373.12-.12.013-.623-.237-1.118-.251-.494-1.287-2.969-2.303-5.499-2.602-6.479-4.523-7.98-8.553-6.683m17.729 4.983c-1.22 2.585-2.743 5.814-3.385 7.175-.642 1.361-1.168 2.647-1.168 2.857 0 .21-.27.486-.6.613-.404.155-.6-.019-.6-.534 0-.42-.199-.887-.443-1.037-.304-.188-.351.024-.151.676.959 3.131.956 3.135 6.613-9.35l2.129-4.7h5.126c2.819 0 5.126.061 5.126.135 0 .074-3.16 6.419-7.023 14.1-7.331 14.579-8.347 16.122-11.153 16.937-1.032.3-1.079.362-.296.392 2.624.102 4.162-1.846 8.9-11.267 9.005-17.91 9.972-19.878 9.972-20.283 0-.265-1.953-.414-5.415-.414h-5.416l-2.216 4.7m15.652-4.307c-.317.511-3.81 16.823-3.771 17.607.041.845.591-.968 1.151-3.8.261-1.32.625-3.03.808-3.8.184-.77.523-2.3.754-3.4.231-1.1.649-3.035.928-4.3l.507-2.3h9.398l-.224 1.3c-.17.99-.121 1.157.204.7 1.455-2.042.778-2.4-4.536-2.4-2.824 0-5.082.17-5.219.393m16.395.087c-1.382.788-2.499 2.361-2.745 3.868-.131.798-.404 2.172-.606 3.052-.203.88-.585 2.59-.849 3.8s-.644 2.92-.843 3.8c-.199.88-.519 2.41-.711 3.4-.193.99-.846 4.172-1.452 7.071-1.436 6.872-1.642 6.529 3.913 6.529 4.874 0 5.504-.228 5.477-1.98-.014-.963-.047-.946-.586.294l-.571 1.313-4.313-.113L75.8 193l.051-1.2c.048-1.149.482-3.525 1.35-7.4.222-.99.59-2.7.817-3.8.635-3.069 1.141-5.441 1.538-7.2.199-.88.688-3.207 1.087-5.171.951-4.681 2.292-6.229 5.397-6.229 2.892 0 2.981.068 11.631 8.872 7.711 7.848 8.756 8.617 8.704 6.404l-.026-1.076-.396.994c-.382.957-.673.714-8.075-6.738-9.128-9.191-11.073-10.316-14.478-8.376m25.457 2.018c-.26 1.156-.919 4.053-1.465 6.437-.545 2.385-.978 4.635-.96 5 .042.895.561-.763 1.169-3.735.27-1.32.63-2.94.799-3.6.803-3.129 1.31-5.823 1.129-6.004-.11-.11-.413.746-.672 1.902m-33.422 4.015c-.408 1.932-.645 3.61-.527 3.729.119.118.33-.383.469-1.113.14-.731.444-2.072.677-2.981.233-.909.356-1.989.274-2.4-.083-.411-.484.833-.893 2.765m-1.216 5.814c-.164.95-.202 1.823-.085 1.941.292.291.792-2.495.566-3.147-.1-.286-.316.256-.481 1.206m42.359.251c-.151.803-.174 1.559-.052 1.682.122.122.346-.435.496-1.238.151-.803.174-1.559.052-1.682-.122-.122-.346.435-.496 1.238M29.561 178.3c-1.61 1.925-3.744 4.489-4.744 5.699-5.473 6.622-6.866 8.053-8.617 8.853-.991.452-1.304.734-.822.739 1.294.015 3.64-1.9 6.289-5.131 1.379-1.683 2.606-3.15 2.726-3.26.12-.11 1.023-1.19 2.007-2.4.984-1.21 1.888-2.29 2.008-2.4.121-.11.933-1.1 1.806-2.199 2.96-3.731 2.643-3.723 4.011-.101.602 1.595 1.445 3.71 1.874 4.7.43.99.919 2.16 1.087 2.6 2.204 5.749 3.814 8.212 5.35 8.184.718-.013.658-.105-.355-.546-1.665-.725-2.014-1.366-5.373-9.838-3.986-10.054-3.317-9.602-7.247-4.9m58.894-1.603c-.25.468-.44 1.177-.423 1.577.024.517.176.404.529-.395l.497-1.122 7.771 7.842c8.385 8.461 9.106 9.001 12.019 9.001 2.596 0 4.375-1.694 5.076-4.833 1.355-6.068 1.673-7.674 1.644-8.292-.043-.932-.573.789-1.147 3.725-.258 1.32-.638 2.953-.845 3.628-.207.676-.376 1.518-.376 1.872 0 1.326-2.584 3.5-4.16 3.5-2.818 0-4.106-.977-12.223-9.272-7.382-7.545-7.937-8.025-8.362-7.231m-15.01.903c-.152.77-.434 2.12-.628 3-.194.88-.566 2.68-.828 4-.261 1.32-.636 2.922-.832 3.56-.196.638-.357 1.632-.357 2.211 0 2.393-.829 2.829-5.38 2.829-4.907 0-4.786.142-3.784-4.414.758-3.446.964-5.398.377-3.586-.567 1.755-1.281 5.354-1.348 6.8l-.065 1.4 4.6.116c5.065.127 6-.28 6-2.614 0-.555.176-1.66.392-2.456.933-3.442 2.47-11.259 2.306-11.731-.098-.283-.302.115-.453.885m42.333.178c-.151.803-.174 1.559-.052 1.682.122.122.346-.435.496-1.238.151-.803.174-1.559.052-1.682-.122-.122-.346.435-.496 1.238m-29.11 6.584c-1.064 5.142-1.24 6.343-.877 5.98.414-.414 2.456-11.142 2.121-11.142-.097 0-.656 2.323-1.244 5.162M62.689 181.2c-.153.55-.264 1.45-.247 2 .026.861.084.814.416-.34.212-.736.323-1.636.248-2-.098-.466-.22-.367-.417.34m-53.464 9.425c-.034 1.133 1.988 2.986 3.197 2.929.822-.039.851-.078.178-.24-1.005-.244-2.583-1.662-3.018-2.714-.327-.789-.332-.789-.357.025M153.4 206.897c-2.781.719-6.246 4.241-6.18 6.281.011.342.389-.14.841-1.07 1.807-3.725 4-4.902 9.139-4.905 4.827-.003 7.604 1.947 4.821 3.386-.907.469-1.43.527-1.998.223-.424-.227-1.187-.404-1.697-.394-.681.012-.503.171.674.6 1.432.523 1.757.514 3.1-.078 4.841-2.135-2.639-5.612-8.7-4.043m69.477.109c-8 1.952-11.593 14.289-5.057 17.362 5.435 2.554 15.099-1.28 14.961-5.937-.01-.347-.458.213-.995 1.245-2.705 5.194-11.586 6.985-15.454 3.117-2.198-2.198-1.212-9.251 1.767-12.645 3.867-4.404 13.71-3.856 15.076.839l.353 1.213.036-1.087c.109-3.278-5.401-5.396-10.687-4.107m63.323-.067c-2.881.83-5.8 3.376-5.8 5.061 0 .226-.158.723-.351 1.105-1.561 3.091-1.748 8.518-.349 10.132 2.942 3.392 13.9 2.361 13.9-1.307 0-.401-.149-.73-.332-.73-.182 0-.317.387-.3.86.124 3.359-10.965 3.845-13.109.575-1.954-2.983.483-11.926 3.86-14.161 3.227-2.137 12.281-1.269 12.281 1.177 0 .654-2.825 1.684-3.303 1.206-.252-.252-.916-.449-1.477-.439-.845.014-.745.117.58.6 1.739.635 4.6-.133 4.6-1.234 0-2.534-5.73-4.132-10.2-2.845m23.6-.144c-.66.177-1.681.431-2.269.563-2.396.541-4.731 3.626-4.731 6.249 0 2.273 3.254 3.975 7.624 3.987 3.065.008 3.91.654 3.067 2.344-.346.694-.492 1.262-.325 1.262.372 0 1.234-1.82 1.234-2.605 0-.89-1.16-1.279-4.4-1.478-6.585-.404-8.83-4.153-4.762-7.953 3.964-3.702 15.365-1.797 13.791 2.305-.334.871-2.928.668-3.429-.269-.332-.62-.808-.79-2.114-.754l-1.686.046 1.521.294c.851.165 1.785.673 2.122 1.154.797 1.137 3.149 1.196 3.739.093 1.8-3.363-4.101-6.657-9.382-5.238m-224.733.672c-.147.146-.262.551-.255.9.01.536.075.526.42-.067.522-.896 12.772-1.088 12.763-.2-.025 2.236-.171 2.3-5.218 2.3-5.162 0-5.031-.057-5.414 2.338l-.265 1.662H94.8l.04 1.1.04 1.1.288-1c.404-1.404-.067-1.587-4.111-1.594-3.065-.005-3.51-.091-3.3-.639.134-.348.243-1.062.243-1.587 0-.948.035-.956 4.86-1.068l4.861-.112.507-1.466c.278-.806.401-1.571.273-1.7-.326-.326-13.107-.295-13.434.033m21.126.144c-.432.7-1.367 4.869-1.343 5.989.025 1.146.205.574 1.163-3.7.515-2.299.515-2.3 2.013-2.3 1.217 0 1.471.132 1.351.7-.081.385-.444 2.105-.807 3.822-.363 1.717-.558 3.223-.434 3.347.124.124.308-.201.41-.722.101-.521.386-1.937.632-3.147.845-4.15.837-4.184-1.041-4.321-.938-.069-1.786.077-1.944.332m21.274-.144c-.147.146-.253.731-.235 1.3l.031 1.033.402-1.1.402-1.1h12.677l-.372 1.297c-.205.714-.372 1.344-.372 1.4 0 .057-2.16.103-4.8.103-2.64 0-4.8.135-4.801.3 0 .165 2.174.244 4.831.176l4.831-.124.582-1.394c.32-.766.476-1.565.346-1.776-.265-.429-13.099-.539-13.522-.115m43.01 1.025c-.558 2.081-.287 2.308 2.756 2.308h2.747l-.211 1.3c-.116.715-.374 1.93-.574 2.7-.199.77-.451 1.94-.558 2.6-.108.66-.402 2.19-.653 3.4-.78 3.768-.776 3.784.969 3.927.854.07 1.743-.063 1.977-.297.41-.41 1.876-6.813 1.838-8.03-.034-1.094-.617.909-1.165 4-.636 3.59-.956 4.078-2.569 3.92-1.508-.147-1.567.802.558-9.081 1.115-5.191 1.26-4.839-1.992-4.839-2.929 0-3.036-.08-2.548-1.9.258-.963 15.348-1.48 15.348-.526 0 1.956-.724 2.426-3.735 2.426h-2.956l-.511 2.41c-.281 1.325-.413 2.508-.293 2.629.12.12.326-.335.457-1.01.131-.676.342-1.769.47-2.429.23-1.189.255-1.2 2.9-1.206 3.213-.008 3.719-.279 3.803-2.039l.065-1.355-7.886-.108-7.887-.109-.35 1.309m23.343-.23c-1.109 4.42-3.374 15.888-3.195 16.178.122.198.936.36 1.809.36 1.7 0 2.161-.597 2.621-3.4.525-3.194.322-3 3.142-3 2.918 0 3.275.351 4.231 4.144.494 1.963 1.244 2.471 3.231 2.189 1.266-.179 1.284-3.045.036-5.441l-.865-1.659 1.161-.826c1.54-1.097 2.409-2.935 2.409-5.095 0-3.829-1.335-4.512-8.818-4.512h-5.495l-.267 1.062m49.247-.795c-.147.146-.256.641-.242 1.1.025.8.04.797.387-.067.299-.743.67-.9 2.133-.9h1.77l2.102 3.5c1.157 1.925 2.439 4.096 2.85 4.826 2.133 3.781 2.824 3.943 3.267.768.13-.932.568-3.314.974-5.294l.738-3.6 1.73-.126c1.539-.111 1.695-.045 1.423.6-.169.399-.443 1.446-.609 2.326-.166.88-.502 2.5-.745 3.6s-.786 3.684-1.205 5.741c-.888 4.356-1.028 4.555-3.087 4.386-1.499-.123-5.915-6.171-7.761-10.627-.842-2.034-2.51.977-2.364 4.267.05 1.124.713-.853.744-2.218.042-1.853.951-2.424 1.662-1.044.311.602.655 1.185.765 1.295.111.11.443.63.739 1.155 4.428 7.865 4.061 7.43 6.387 7.566 2.378.138 2.455.041 3.267-4.121.257-1.32.621-3.03.808-3.8.187-.77.556-2.48.819-3.8.263-1.32.633-3.025.822-3.788.435-1.76.082-2.094-2.056-1.938l-1.723.126-1.043 5.171c-1.131 5.605-1.452 6.116-2.591 4.133-.412-.717-1.836-3.149-3.165-5.404l-2.416-4.1h-2.057c-1.131 0-2.177.12-2.323.267m25.96.233c-.228.767-.937 3.854-1.446 6.3-.799 3.832-1.129 5.345-1.624 7.449-.627 2.665-.344 3.351 1.381 3.351 1.707 0 2.147-.529 2.701-3.24.243-1.188.585-2.79.761-3.56 2.54-11.136 2.534-10.8.187-10.8-1.104 0-1.87.195-1.96.5m-62.355.941c2.085 1.554 1.865 4.867-.474 7.14-1.692 1.645-1.8 1.864-1.332 2.705 1.991 3.57 2.041 5.914.125 5.914-1.502 0-1.543-.054-2.589-3.4-1.15-3.679-7.602-4.634-7.602-1.126 0 2.681-.929 4.568-2.188 4.445-1.413-.139-1.739-1.189-1.087-3.498.221-.781.599-2.366.839-3.521 1.019-4.905 1.348-6.394 1.776-8.029l.452-1.728 5.476.128c4.822.114 5.611.23 6.604.97m65.528.459c-.129.825-.391 2.13-.581 2.9-.191.77-.543 2.345-.783 3.5-2.008 9.663-1.648 8.7-3.251 8.7-1.789 0-1.79.166.058-8 .498-2.203 1.116-5.305 1.414-7.1.238-1.435.316-1.5 1.814-1.5h1.565l-.236 1.5m-187.911.9c-.153.55-.264 1.45-.247 2 .026.861.084.814.416-.34.212-.736.323-1.636.248-2-.098-.466-.22-.367-.417.34m157.889.978c-.151.803-.174 1.559-.052 1.682.122.122.346-.435.496-1.238.151-.803.174-1.559.052-1.682-.122-.122-.346.435-.496 1.238m-115.6.4c-.151.803-.174 1.559-.052 1.682.122.122.346-.435.496-1.238.151-.803.174-1.559.052-1.682-.122-.122-.346.435-.496 1.238m25.725-.424c-1.959 1.488-3.478 8.613-2.125 9.967.803.803 5.956.965 7.553.238 2.756-1.256 3.411 1.366.684 2.741-5.538 2.793-11.471.675-12.044-4.3l-.253-2.2-.059 1.94c-.132 4.341 1.723 5.86 7.154 5.86 6.008 0 9.912-2.62 6.569-4.41-.76-.406-1.201-.419-1.997-.056-.563.256-2.358.466-3.99.466-3.565 0-4.01-.461-3.605-3.735.449-3.637 1.65-5.932 3.423-6.542 1.191-.41 1.246-.479.387-.488-.55-.005-1.314.228-1.697.519m44.552.146c-.205.385-.436 1.42-.514 2.3l-.141 1.6 3.431.115c4.498.15 7.343-2.28 4.869-4.158-1.134-.861-7.17-.748-7.645.143m24.497-.235c-3.047 1.476-4.292 10.335-1.453 10.335.549 0 .508-.12-.21-.623-2.827-1.98-.057-9.039 3.845-9.8l1.466-.285-1.4-.019c-.77-.01-1.781.166-2.248.392m5.248-.196c2.753.606 3 .885 3 3.385 0 1.296-.159 2.669-.353 3.051-.195.382-.574 1.17-.844 1.751s-.966 1.279-1.547 1.552c-.661.311-.86.568-.533.685 1.469.53 3.679-3.462 3.801-6.861.097-2.722-.766-3.854-2.886-3.786-.791.026-1.078.126-.638.223m57.908.831c-1.25 1.841-1.694 3.211-1.957 6.037-.344 3.702.063 4.09 4.178 3.984l3.071-.08-2.982-.14c-3.439-.161-4.018-.496-4.018-2.33 0-3.999 1.755-7.781 3.815-8.222l1.185-.254-1.273-.048c-.97-.036-1.45.214-2.019 1.053m22.767-.284c-1.93 1.798-.135 3.184 4.125 3.184 3.78 0 5.544 1.046 6.244 3.702.332 1.261.337 1.255.168-.238-.299-2.651-2.148-3.862-5.899-3.866-5.344-.006-7.057-2.311-2.392-3.218l1.479-.288-1.425-.046c-.929-.03-1.728.237-2.3.77m-103.249-.002c2.433 1.302-.248 3.586-4.208 3.586H196.8v-1.226c0-2.612 4.195-3.982 7.226-2.36m-74.092 1.384c-.378 1.736-.241 1.802 3.69 1.802h3.576v2.772l-4.068.114c-3.189.089-4.11.243-4.265.714-.159.485-.084.507.39.116.34-.28 2.163-.533 4.337-.6l3.75-.116.326-1.2c.553-2.036.283-2.2-3.632-2.2h-3.587l-.128-1.3-.128-1.3-.261 1.198m-46.556 1.98c-.151.803-.174 1.559-.052 1.682.122.122.346-.435.496-1.238.151-.803.174-1.559.052-1.682-.122-.122-.346.435-.496 1.238m158.118-.445c-.163.403-.285 1.213-.271 1.8l.026 1.067.392-.981c.215-.54.337-1.35.271-1.8-.113-.76-.143-.766-.418-.086m-115.623.42c-.15.392-.257 1.193-.237 1.78.034.995.062.976.421-.27.416-1.444.266-2.681-.184-1.51m20.8 0c-.15.392-.257 1.193-.237 1.78.034.995.062.976.421-.27.416-1.444.266-2.681-.184-1.51m86.591-.103c-.035.358-.166 1.257-.291 2-.185 1.105-.144 1.221.225.641.248-.389.379-1.289.291-2-.089-.71-.19-.998-.225-.641m-128.991.903c-.15.392-.257 1.193-.237 1.78.034.995.062.976.421-.27.416-1.444.266-2.681-.184-1.51m2.972 3.141c-.676 3.107-.677 3.106 4.604 3.106h4.602l-.126 1.3-.125 1.3h-12.8l.038-1.2c.021-.66.157-2.01.303-3 .303-2.058-.144-.991-.891 2.128-.649 2.708-.739 2.672 6.734 2.672h6.738l.439-1.26c.823-2.362.864-2.34-4.337-2.34-5.247 0-5.51-.121-4.822-2.205.252-.764.387-1.705.3-2.092-.087-.387-.383.329-.657 1.591m-24.597-.294c-.156.88-.473 2.24-.704 3.021-.231.782-.358 1.862-.282 2.4l.138.979 6.457.11 6.458.109.442-1.269c.826-2.367.855-2.35-4.157-2.35h-4.6v-1.167c0-2.358.137-2.433 4.443-2.433 2.176 0 3.957-.135 3.958-.3 0-.165-1.869-.244-4.155-.175l-4.156.125-.508 1.813c-.669 2.391-.422 2.523 4.743 2.531l4.126.006-.126 1.3-.125 1.3-6.3.11c-7.165.125-6.653.462-5.68-3.734.341-1.47.551-2.966.466-3.325-.085-.358-.282.069-.438.949m158.041-.2c-.153.55-.264 1.45-.247 2 .026.861.084.814.416-.34.212-.736.323-1.636.248-2-.098-.466-.22-.367-.417.34m-115.63.8c-.16.77-.485 2.159-.723 3.086-.75 2.925-.774 2.914 6.437 2.914 7.015 0 7.227-.075 7.227-2.574V221.2h-9.2l-.025-1.1-.026-1.1-.387.969c-.567 1.418.042 1.618 4.938 1.625 4.45.006 4.565.058 3.91 1.78l-.39 1.026h-5.986c-6.852 0-6.584.148-5.801-3.21.327-1.402.532-2.829.455-3.17-.077-.341-.27.01-.429.78m118.719 1.378c-.151.803-.174 1.559-.052 1.682.122.122.346-.435.496-1.238.151-.803.174-1.559.052-1.682-.122-.122-.346.435-.496 1.238m58.122-.702c-.995.26-.922 2.535.117 3.65 3.675 3.944 15.687 1.762 15.558-2.826-.025-.872-.038-.869-.423.1-2.266 5.698-15.538 5.991-15.551.343-.002-1.188 3.029-1.651 3.46-.528.567 1.479 5.325 2.428 6.939 1.385.416-.269-.352-.39-2.503-.394-2.807-.005-3.185-.101-3.972-1.006-.835-.961-1.904-1.174-3.625-.724m-11.664 1.266c-.116.188.305.323.937.3.632-.023 1.065-.177.964-.342-.252-.41-1.641-.38-1.901.042m-68.329.748c.719.089 1.799.087 2.4-.004s.013-.164-1.307-.162c-1.32.002-1.812.077-1.093.166m17.865.678c-.383 1.528-.045 2.42.973 2.565 1.693.241 2.858-.271 2.823-1.241-.021-.599-.106-.695-.26-.292-.777 2.042-3.462 1.697-3.108-.4.293-1.733-.031-2.211-.428-.632"/><path fill="#f0a8ad" d="M112.443 148.765c-.307.194-.712 1.181-.9 2.194-.189 1.013-.523 2.651-.743 3.641-.22.99-.57 2.565-.779 3.5-.208.935-.478 2.24-.601 2.9l-.223 1.2.583-1.2c.321-.66.592-1.578.602-2.04.01-.462.179-1.362.375-2 .196-.638.576-2.24.845-3.56.978-4.809.444-4.37 5.63-4.62l4.568-.22-4.4-.074c-2.42-.041-4.651.085-4.957.279M8.8 161.466c4.327.291 9.111.31 8.94.034-.103-.165-2.562-.268-5.464-.228-2.902.04-4.466.127-3.476.194m47.7.031c1.485.077 3.915.077 5.4 0 1.485-.077.27-.14-2.7-.14s-4.185.063-2.7.14m10.56.003c-.102.165 1.372.252 3.277.193 6.109-.189 6.795-.351 1.787-.423-2.682-.039-4.961.065-5.064.23m72.34-.048c-1.817.232-6.6 1.838-6.6 2.216 0 .182-.178.332-.395.332-.938 0-3.735 2.851-4.705 4.796-2.444 4.902 1.385 11.713 6.5 11.561 1.106-.033 1.064-.079-.522-.578-9.877-3.105-7.955-13.862 3.075-17.21 2.429-.737 69.304-.848 71.619-.119 7.245 2.283 9.847 5.454 9.802 11.95-.091 13.143-13.359 20.524-33.174 18.455-12.745-1.331-17.657-9.369-12.348-20.209.741-1.514 1.348-2.819 1.348-2.9 0-.746-34.747-.067-35.435.692-1.813 2.004-.11 2.362 11.246 2.362 11.127 0 12.52.25 15.104 2.715 4.126 3.935 2.537 11.01-3.264 14.536-4.852 2.949-4.373 2.895-26.851 3.045-20.599.137-21.637.069-20.872-1.362.226-.422.724-2.065 1.107-3.651l.696-2.883 19.634-.019c22.012-.022 22.305-.056 22.555-2.609.199-2.037-.653-2.182-12.239-2.091l-10.281.082 10.486.218c11.079.231 12.247.453 11.579 2.194-.58 1.511-1.909 1.619-22.365 1.825-19.69.198-19.901.192-19.941-.6-.023-.45-.178-.219-.355.528-.173.73-.219 1.694-.102 2.141.117.447-.021.957-.307 1.134-.285.176-.503.863-.485 1.527.02.696-.204 1.297-.531 1.423-.344.132-.463.484-.304.897.186.485.115.591-.245.368-.353-.218-.463-.086-.363.435.176.915 39.655 1.394 43.133.523 11.079-2.773 15.965-12.676 9.128-18.501-.951-.81-2.007-1.473-2.348-1.474-.341 0-.845-.226-1.12-.501-.365-.365-3.436-.554-11.38-.7-9.316-.171-10.88-.286-10.88-.8 0-.522 2.213-.613 17.096-.704l17.095-.105-.782 1.393c-5.359 9.541-1.558 18.485 9.028 21.242 2.663.694 16.589.802 19.117.148 3.666-.948 4.566-1.274 7.353-2.663 2.953-1.471 8.093-5.974 8.093-7.089 0-.305.135-.615.3-.689.432-.191 1.99-3.52 2.31-4.933.876-3.869.711-5.68-.837-9.217-.608-1.391-3.686-4.583-4.419-4.583-.268 0-.547-.154-.621-.341-.073-.188-1.213-.765-2.533-1.282l-2.4-.94-33.6-.069c-18.48-.038-34.14 0-34.8.084m85.398.753c-.406 1.069-1.325 5.213-3.057 13.795-1.773 8.778-.659 12.691 4.338 15.24 2.435 1.243 2.707.848.321-.467-4.86-2.677-6.03-6.248-4.41-13.458.434-1.933.989-4.505 1.232-5.715.569-2.826 1.017-4.882 1.634-7.5l.495-2.1h9.31l-.152 1.3c-.127 1.087-.078 1.183.296.588 1.305-2.073.569-2.479-4.71-2.6l-4.905-.113-.392 1.03m31.581.051c-.235.616-.755 2.746-1.158 4.732-.402 1.987-1.131 5.592-1.619 8.012-1.024 5.069-2.229 7.513-4.11 8.335-4.975 2.174-14.38 1.958-16.913-.389-1.458-1.352-1.445-1.503 1.221-13.946.33-1.54.582-3.16.559-3.6-.039-.756-.982 2.944-1.989 7.8-.251 1.21-.617 2.722-.813 3.36-.713 2.316-.439 5.713.543 6.741 2.911 3.047 15.882 2.583 19.15-.684 1.544-1.544 2.56-4.795 3.818-12.217.094-.55.328-1.63.521-2.4s.574-2.435.845-3.7l.494-2.3h22.025c25.633 0 25.907.033 29.49 3.609 4.678 4.668 1.902 13.308-5.419 16.864-2.423 1.177-2.428 1.163 2.185 5.877 2.205 2.253 3.904 4.266 3.776 4.474-.129.209-3.001.376-6.467.376h-6.234l-4.065-4-4.065-4h-13.626l-.483 2.3c-.266 1.265-.7 3.02-.964 3.9l-.481 1.6h-8.8l.051-1.2c.049-1.163.511-3.682 1.356-7.4.225-.99.521-2.52.656-3.4.136-.88.497-2.095.802-2.7l.556-1.1h14.663c17.783 0 19.271-.381 18.847-4.831-.259-2.708-.678-2.768-19.423-2.768l-16.493-.001-.243 1.1c-.134.605-.39 1.64-.568 2.3-.178.66-.538 2.37-.801 3.8-1.696 9.252-6.493 13.936-15.984 15.609-3.359.593-12.955.586-15.832-.012-1.959-.406-3.672-.292-2.144.143 7.617 2.17 20.42 1.007 26.157-2.377 4.798-2.83 6.98-6.499 8.575-14.419.449-2.231.928-4.346 1.063-4.7.369-.961 33.102-.982 34.473-.021 1.076.753 1.16 2.435.18 3.594-1.715 2.028-1.249 1.97-17.637 2.183l-15.424.2-.492 1c-.759 1.542-3.388 14.91-3.008 15.29.185.185 2.462.286 5.061.223 5.432-.13 5.033.166 6.088-4.513l.721-3.2 6.483-.11 6.483-.11 3.884 4.01 3.883 4.01h7.134c8.689 0 8.556.248 2.946-5.471l-4.187-4.269 1.655-.83c4.417-2.215 8.338-7.809 8.313-11.858-.015-2.456-2.788-7.172-4.217-7.172-.317 0-.577-.136-.577-.302 0-.167-.495-.495-1.1-.731-.605-.235-1.73-.672-2.5-.969-1.098-.424-6.261-.575-23.898-.701l-22.498-.161-.425 1.12m75.421-.785c-1.866.16-4.772.825-6.2 1.42-2.493 1.038-3.134 1.376-5.201 2.746-6.135 4.065-10.374 13.691-8.046 18.268.195.382.598 1.214.896 1.847 3.045 6.471 7.812 7.945 25.144 7.77l12.194-.122.269-1.4c.148-.77.45-2.39.671-3.6.221-1.21.463-2.47.538-2.8.117-.52-1.501-.629-12.065-.817-6.71-.119-12.65-.369-13.2-.555-4.682-1.584-5.544-6.299-1.908-10.435 2.907-3.307 3.353-3.393 17.643-3.393h12.544l.627-1.5c.829-1.983 1.657-6.299 1.357-7.08-.225-.587-19.388-.851-25.263-.349m27.875.074c-.288.183-.968 2.475-1.51 5.094s-1.181 5.661-1.419 6.761c-.901 4.157-1.196 5.641-1.393 7-.111.77-.357 1.76-.546 2.2-.189.44-.463 1.52-.61 2.4-.147.88-.444 2.41-.661 3.4-.217.99-.489 2.565-.605 3.5l-.212 1.7h28.336l3.873-3.986c2.129-2.193 3.872-4.173 3.872-4.4 0-.276-4.002-.414-12-.414-6.6 0-12-.122-12-.272 0-.149.216-.869.48-1.6l.481-1.328h16.3l3.77-3.8c5.298-5.342 5.778-5-7.007-5-11.02 0-11.347-.045-10.964-1.51.217-.828.438-.851 9.174-.969l8.952-.121 3.807-3.792c5.677-5.655 6.783-5.209-12.893-5.202-9.185.003-16.936.156-17.225.339m-3.088 1.555c-.164.605-.444 1.82-.622 2.7-.177.88-.443 2.095-.59 2.7l-.268 1.1h-11.939c-13.96 0-15.122.225-18.376 3.555-4.263 4.365-3.525 9.309 1.727 11.565.788.338 4.668.48 13.127.48 11.244 0 11.995.045 11.811.7-.108.385-.419 2.007-.692 3.605-.694 4.071.238 3.83-13.868 3.581-12.824-.226-14.49-.43-17.897-2.191-11.382-5.884-6.67-23.492 7.4-27.657.77-.228 1.94-.586 2.6-.795.66-.209 7.205-.394 14.543-.411l13.344-.032-.3 1.1m33.013 2.7l-3.784 3.8h-18.082l-.453 1.476c-.78 2.541-.853 2.524 11.176 2.524h10.759l-3.745 3.8-3.745 3.8h-16.429l-.484 1.168c-1.119 2.701-1.494 2.61 11.682 2.832l11.884.2-3.918 3.9-3.918 3.9-13.172-.006c-14.575-.007-14.416.019-13.839-2.238.219-.856.586-2.456.815-3.556 1.651-7.933 2.585-12.329 3.059-14.4.303-1.32.665-3.12.806-4 .14-.88.405-2.14.588-2.8.183-.66.446-1.875.584-2.7l.252-1.5h33.748l-3.784 3.8m-294.417 1.9c1.658 1.766 2.017 2.084 2.017 1.783 0-.064-.855-.919-1.9-1.9l-1.9-1.783 1.783 1.9M187 170.4c-3.62 1.417-6.637 4.757-6.579 7.284.013.596.301.186.823-1.17 1.923-5.005 4.672-6.121 15.002-6.095 10.064.026 11.966.947 11.897 5.76-.087 5.984-3.922 8.226-14.543 8.5-8.692.225-10.989-.451-12.448-3.662-.583-1.284-.736-1.424-.743-.679-.014 1.424 1.374 3.072 3.38 4.015 2.142 1.007 14.268 1.257 17.61.363 7.467-1.997 10.01-10.946 4.001-14.081-2.39-1.247-15.391-1.413-18.4-.235m-168.48 4c0 1.21.075 1.705.167 1.1.091-.605.091-1.595 0-2.2-.092-.605-.167-.11-.167 1.1m136.985 36.283c.497.096 1.217.092 1.6-.008.382-.1-.025-.179-.905-.174-.88.004-1.193.086-.695.182m132.8 0c.497.096 1.217.092 1.6-.008.382-.1-.025-.179-.905-.174-.88.004-1.193.086-.695.182M233.714 213c.003 1.1.081 1.503.173.895.092-.609.09-1.509-.005-2-.095-.492-.171.005-.168 1.105m-83.621 5.8c0 .77.082 1.085.183.7.1-.385.1-1.015 0-1.4-.101-.385-.183-.07-.183.7"/></g></svg>