<svg xmlns="http://www.w3.org/2000/svg" role="img" viewBox="-6.41 -6.41 333.58 257.83"><title>wolfSSL logo</title><path fill="#4dc4c9" d="M176.84891 59.58497c-.016 0-.03333-.004-.05733-.00133-14.09698.00666-25.5287 11.43438-25.5207 25.53803l-8.50912.00133c-.008-18.7982 15.23029-34.04848 34.02982-34.05382.024-.00133.036.00134.05733.004v8.5118"/><path fill="#4dc4c9" d="M176.84358 42.55873c-.016.00133-.03733.00533-.052.004-23.50475 0-42.55227 19.05686-42.5456 42.56427l-8.51166.004c-.00306-28.20596 22.8513-51.07606 51.04926-51.08272.01867.004.03733.00266.06.004v8.50645"/><path fill="#4dc4c9" d="M176.83825 25.53916c-.01334-.00267-.028-.00267-.05067-.00267-32.90584.008-59.57278 26.69133-59.56398 59.59718l-8.51018.004c-.0088-37.60173 30.46443-68.0983 68.07016-68.10897.01867 0 .03333-.00133.05067.004l.004 8.50646"/><path fill="#4dc4c9" d="M176.83825 8.51825c-.02134-.00267-.044-.004-.06-.004-42.30561.01866-76.58862 34.31914-76.57662 76.62208l-8.51326.00534C91.67531 38.1375 129.77076.01979 176.77291.00513h.05867l.00667 8.51312"/><path fill="#231f20" d="M266.864 122.30167s-1.12264.30626-2.91327.89384c-.57065.18587.02134-1.34796.02134-1.34796-5.58386 1.4677-12.31036 1.64689-17.1049-.74372-10.65174-5.30866-14.15032-10.89346-18.08622-18.41194-3.93457-7.52247-25.13804-7.93713-28.91795-8.04513-3.7759-.112-9.19177-.40265-14.7703-9.38776 0 0 3.46125.42132 5.24654-2.09995 0 0-.96664-1.26397-4.75721-3.46791-3.7919-2.20395-4.46522-3.51192-4.46522-3.51192s-3.20392-4.40789-4.71989-4.55988c-1.51596-.152-2.79593.22932-3.50924-.64399-.71465-.87464-4.64389-4.62388-5.7332-4.66121-1.09063-.036-3.84523 5.59586-1.51329 9.25843 0 0-.108 1.08397-1.0973.76532-.99065-.31866-2.9266 1.5293-.39066 3.17058 2.53327 1.6413 5.03854 4.2999 5.3052 6.00252.26533 1.70662-1.72262 6.9785.94531 13.81299l.61732-1.03464s.74265 4.96254 3.20258 8.05446l.35333-.61998s1.60263 5.85052 4.57722 9.65256l.44665-.10307s2.4746 4.40656 4.98655 6.99356c2.51327 2.5874 2.98125 3.7291 3.13325 5.1316.152 1.39944 3.02126 16.42306 2.89326 18.38035-.12133 1.95875-1.97728.8213-3.26125 2.00661-1.28664 1.18277-1.0013 2.6734 1.5293 2.92806 2.5266.2532 3.54657-1.17863 4.47722-3.20138.9333-2.01875 1.28263-3.29992.89197-7.42128-.116-1.23424-.23732-2.79727-.33332-4.42896 2.02395 4.39149 3.8399 8.43726 4.0039 9.28257.37599 1.92235-1.70663 1.29317-2.6506 2.765-.94398 1.46503-.292 2.83592 2.2186 2.44367 2.50928-.39426 3.13326-2.03582 3.52525-4.22483.39333-2.19221.40666-3.51711-1.01064-7.41182-1.33863-3.68124-4.29456-13.13353-4.49322-15.77827 1.94795.2568 8.72378.79265 20.25416-2.00875 0 0 1.27197-.1944 2.10528-.11.83332.08334-.16933 4.47696 2.10928 8.35446.64399 1.09744 1.4053 2.15622 2.16662 3.17446.192 5.4348.33599 10.81586.13733 11.7533-.40133 1.91822-2.07595.52759-3.51725 1.51463-1.4413.98384-1.37463 2.49834 1.09197 3.11446 2.4666.61718 3.67724-.65305 4.89321-2.51714.232-.35879.43333-.69625.61999-1.03477-.332 1.14517-.74265 2.02648-1.18664 2.24514-1.18397.58545-2.33727 2.29221-1.0453 3.40832 1.2933 1.10877 4.71054.61451 5.3252-1.2937.61065-1.90262.48665-7.67168 1.4613-10.38201.97597-2.70834-.212-6.39051.21465-7.69888 1.91596-5.88625.69065-11.97263.69065-11.97263s1.81996 6.89983 3.68658 8.07793l1.10797-.98944s7.78914 7.10809 11.29705 7.18929l.61865-1.20517s11.28505 1.67609 14.47564-.44l-1.28264-.67038s6.40251-3.59617 6.12918-8.94564"/><path fill="#4dc4c9" d="M228.1583 187.7111h-19.29952v-5.92225c0-2.76566-.24533-4.52549-.73732-5.2828-.49332-.75612-1.31596-1.1333-2.46927-1.1333-1.25197 0-2.19594.50945-2.83593 1.52916-.64265 1.0229-.96397 2.5682-.96397 4.64415 0 2.66513.36132 4.67601 1.0853 6.02491.68665 1.34943 2.64127 2.98006 5.86919 4.88268 9.2491 5.492 15.07296 9.99455 17.47423 13.5142 2.4026 3.5255 3.6039 9.19977 3.6039 17.0293 0 5.69306-.66664 9.8888-1.99994 12.58457-1.33197 2.6989-3.90657 4.96133-7.72247 6.7868-3.81858 1.82496-8.25846 2.73848-13.32634 2.73848-5.55986 0-10.30507-1.05206-14.23564-3.15617-3.93457-2.10777-6.50917-4.78738-7.72648-8.04615-1.21596-3.25719-1.82395-7.8784-1.82395-13.86785v-5.23067h19.29552v9.72269c0 2.99312.272 4.91454.81598 5.77332.54398.85571 1.50263 1.28383 2.88526 1.28383 1.38263 0 2.40927-.54531 3.08659-1.63075.67198-1.08531 1.01197-2.69567 1.01197-4.83575 0-4.70402-.64398-7.78007-1.92395-9.22897-1.31997-1.44676-4.55855-3.8639-9.72642-7.25448-5.16387-3.42019-8.58379-5.90506-10.26508-7.45342-1.67596-1.54636-3.06659-3.68377-4.17056-6.4145-1.10264-2.73167-1.65196-6.22118-1.65196-10.46374 0-6.11972.78131-10.594 2.34527-13.42207 1.56263-2.8322 4.08657-5.04414 7.57315-6.64156 3.48924-1.5957 7.70247-2.39315 12.63302-2.39315 5.3972 0 9.99708.87505 13.79832 2.61767 3.79857 1.7421 6.31584 3.93844 7.55048 6.5873 1.23596 2.64834 1.85062 7.1509 1.85062 13.4986v3.15992m52.29469 0H261.1548v-5.92225c0-2.76566-.24666-4.52549-.73731-5.2828-.49732-.75612-1.3173-1.1333-2.4706-1.1333-1.25064 0-2.19462.50945-2.8386 1.52916-.64265 1.0229-.96131 2.5682-.96131 4.64415 0 2.66513.35732 4.67601 1.07864 6.02491.69065 1.34943 2.64927 2.98006 5.87719 4.88268 9.24643 5.492 15.07162 9.99455 17.4729 13.5142 2.4026 3.5255 3.6039 9.19977 3.6039 17.0293 0 5.69306-.66531 9.8888-1.99595 12.58457-1.33596 2.6989-3.91057 4.96133-7.72647 6.7868-3.81724 1.82496-8.26113 2.73848-13.32634 2.73848-5.55852 0-10.3064-1.05206-14.23564-3.15617-3.93323-2.10777-6.5105-4.78738-7.72647-8.04615-1.2173-3.25719-1.82662-7.8784-1.82662-13.86785v-5.23067h19.29951v9.72269c0 2.99312.272 4.91454.81198 5.77332.54666.85571 1.5053 1.28383 2.88526 1.28383 1.3853 0 2.41328-.54531 3.08793-1.63075.67465-1.08531 1.01064-2.69567 1.01064-4.83575 0-4.70402-.63999-7.78007-1.92662-9.22897-1.31463-1.44676-4.55589-3.8639-9.72242-7.25448-5.16387-3.42019-8.58512-5.90506-10.26375-7.45342-1.67995-1.54636-3.07059-3.68377-4.17056-6.4145-1.09997-2.73167-1.65196-6.22118-1.65196-10.46374 0-6.11972.77865-10.594 2.34261-13.42207 1.5613-2.8322 4.08923-5.04414 7.57581-6.64156 3.48925-1.5957 7.70248-2.39315 12.63435-2.39315 5.3972 0 9.99175.87505 13.79699 2.61767 3.7999 1.7421 6.31718 3.93844 7.55048 6.5873 1.23063 2.64834 1.85062 7.1509 1.85062 13.4986v3.15992m27.70864-24.18593v63.914h12.63435v15.9934h-33.40983v-79.9074h20.77548"/><path fill="#231f20" d="M67.7327 178.27014l-7.89206 64.94368h-21.4572c-1.17184-7.9373-2.5354-18.39178-4.10096-31.37532-.53492 5.71452-1.2765 11.47318-2.22128 17.2825l-2.16928 14.09282H8.38312L0 178.27014h17.03917c.13067 1.69729 1.57396 14.09551 4.3243 37.19493.21466-2.3734 1.69635-14.7731 4.43895-37.19493h16.37053l4.00296 37.19493c.63225-10.85866 2.14315-23.25515 4.53589-37.19493h17.0209m28.1425 17.91155c0-3.32552-.18026-5.42386-.53958-6.28784-.35933-.86665-1.1249-1.29904-2.29835-1.29904-1.17597 0-1.95888.4324-2.34994 1.29904-.38959.86398-.58798 2.96232-.58798 6.28784v29.31647c0 3.06659.1984 5.06227.58798 5.99305.39106.9333 1.1593 1.3963 2.29835 1.3963 1.1765 0 1.95261-.42394 2.32754-1.27337.37505-.84798.56198-2.6734.56198-5.48373zm19.7735 4.89308v15.90893c0 5.84106-.29425 10.11962-.88224 12.84502-.58865 2.7239-1.84422 5.26916-3.7687 7.63732-1.92595 2.36505-4.3947 4.10771-7.41648 5.23425-3.01553 1.12393-6.48157 1.68798-10.39921 1.68798-4.36869 0-8.07486-.47968-11.10866-1.44267-3.03419-.96144-5.39253-2.41453-7.07169-4.35302-1.68009-1.94526-2.88112-4.29312-3.59724-7.0519-.71718-2.7546-1.0781-6.8905-1.0781-12.4065v-16.63971c0-6.03572.65465-10.7512 1.96035-14.14178 1.30263-3.39725 3.65097-6.11865 7.04622-8.1774 3.39098-2.05208 7.73314-3.07699 13.01834-3.07699 4.43749 0 8.24566.65572 11.42838 1.97435 3.18126 1.32663 5.63693 3.04526 7.36542 5.16654 1.72755 2.11981 2.91193 4.30776 3.5479 6.55877.63533 2.25154.95572 5.67692.95572 10.2768m26.86906-37.0964v79.23546h-20.3615v-79.23546h20.3615m34.27248 0v10.03308c-4.07857 0-6.48517.188-7.21849.56132-.73331.37613-1.1013 1.4469-1.1013 3.20672v2.05569h8.31979v10.27734h-4.69722v53.10131H152.3202v-53.10131h-4.0639v-10.27734h4.0639c0-4.2759.14666-7.12636.44-8.5638.29332-1.43595 1.01997-2.71872 2.1786-3.8411 1.15597-1.1281 2.78127-1.98275 4.86921-2.5718 2.08929-.58545 5.33587-.8801 9.7411-.8801h7.24115"/></svg>