<svg xmlns="http://www.w3.org/2000/svg" role="img" viewBox="-9.34 -9.34 485.68 163.68"><title>X-Silicon (member) logo</title><path d="M393.81 65.27c-4.14-5.25-11.17-8.61-20.91-8.61s-18.09 3.33-24.48 8.61c-2.38 1.96-4.46 4.19-6.24 6.62h-.01c-2.95 4.08-4.99 8.69-5.98 13.47-.84 4.07-.87 8-.06 11.6.69 3.17 2 6.07 3.95 8.55 4.16 5.28 11.17 8.66 20.88 8.66s18.15-3.38 24.51-8.66c6.37-5.29 10.74-12.5 12.32-20.16 1.57-7.66.19-14.83-3.98-20.1zm-17.02 20.1c-1.26 6.12-5.73 10.77-12.08 10.77s-8.82-4.64-7.54-10.77c1.26-6.01 5.77-10.68 12.02-10.68s8.84 4.67 7.6 10.68zM452.13 56.66c-9.68 0-16.46 3.96-20.4 7.6.4-2.08.84-4.16 1.29-6.24h-20.44c-1.87 9.14-3.77 18.29-5.65 27.41-1.9 9.14-3.83 18.27-5.74 27.41h20.44c1.18-5.64 2.3-11.29 3.48-16.91 1.2-5.64 2.36-11.28 3.53-16.91 2.09-1.93 5.04-4.32 9.68-4.32 4.88 0 7.43 2.15 6.24 7.84-1.05 5.04-2.06 10.09-3.11 15.15-1.05 5.05-2.11 10.11-3.17 15.16h20.47c1.36-6.49 2.74-12.98 4.08-19.47 1.35-6.49 2.71-12.98 4.04-19.47 1.97-9.53-2.02-17.24-14.73-17.24zM311.6 96.14c-5.76 0-9.99-3.74-8.52-10.77 1.48-7.04 7.24-10.68 13.01-10.68 3.96 0 6.61 1.73 7.93 4.04l13.52-15.42c-3.33-3.51-9.32-6.65-18.6-6.65-8.72 0-16.99 2.84-23.52 7.84-6.55 5.01-11.41 12.19-13.2 20.88-1.79 8.73.04 15.96 4.49 20.97 4.46 5.02 11.57 7.85 20.25 7.85 9.21 0 16.46-3.14 21.27-6.62l-6.76-15.78c-2.26 2.33-5.77 4.35-9.84 4.35zM233.72 31.19l-1.85 8.9-.13.6-.12.6-.12.58-.12.6-.13.58-.12.6c-2.2 10.45-4.38 20.91-6.54 31.34-2.62 12.61-5.26 25.23-7.87 37.85h20.4c2.65-12.62 5.26-25.23 7.9-37.85 2.26-10.83 4.52-21.68 6.76-32.53l.13-.6.12-.58 2.09-10.09h-20.4zM184.93 112.85l5.7-27.41c-1.9 9.14-3.83 18.27-5.7 27.41z"/><path d="M217.27 55.32l-.55 2.71-5.7 27.41c-1.9 9.14-3.83 18.27-5.7 27.41h-20.4l11.4-54.82.55-2.71h20.4zM280.83 55.32L280.26 58.02 280.08 58.88 268.87 112.85 248.47 112.85 259.86 58.02 260.42 55.32 280.83 55.32z"/><path fill="#5673ed" fill-rule="evenodd" d="M201.88 31.19L201.92 31.19 222.28 31.19 218.4 49.9 198.19 49.9 198 49.9 201.88 31.19 201.88 31.19zM265.41 31.19L265.48 31.19 285.84 31.19 281.96 49.9 261.76 49.9 261.53 49.9 265.41 31.19 265.41 31.19zM87.54 20.04H50.08c3.69 8.57 7.33 17.11 10.98 25.68.58 1.36 1.18 2.74 1.76 4.1l2.12 4.95c2.39 5.53 4.79 11.07 7.18 16.6h-.03s1.71 3.98 1.71 3.98L29.92 125.36h37.4l18.75-21.4 9.18 21.4h54.76c-5.68 6.67-11.37 13.35-17.03 20.02H0c5.14-24.23 9.84-48.47 14.94-72.68C20.04 48.48 25.14 24.24 30.28 0H177.21l-17.57 20.04h-37.36l-23.34 26.62-11.4-26.62z"/><g><path d="M165.81 144.76c-.01.07-.04.14-.1.2s-.14.11-.25.14-.25.06-.42.09c-.17.02-.38.04-.62.04-.26 0-.47-.01-.63-.04-.16-.03-.29-.06-.38-.09s-.15-.08-.18-.14c-.03-.06-.04-.13-.01-.2l3.73-18.71c0-.07.05-.14.11-.2.07-.06.15-.11.26-.14s.25-.06.41-.09c.17-.02.37-.04.61-.04s.44.01.6.04c.16.03.29.06.38.09.1.04.16.08.19.14s.03.13.01.2l-3.73 18.71zM185.11 144.07c-.03.2-.09.37-.18.51s-.19.26-.31.35c-.12.09-.24.16-.37.2-.13.04-.26.06-.39.06h-.98c-.26 0-.48-.03-.66-.09-.18-.06-.34-.16-.47-.31s-.26-.34-.36-.57c-.11-.24-.22-.53-.34-.88l-3.66-10.38c-.25-.74-.5-1.48-.74-2.22-.25-.74-.48-1.48-.71-2.22h-.03c-.13.82-.27 1.64-.42 2.45-.15.81-.31 1.62-.47 2.44l-2.26 11.34c-.02.08-.06.15-.11.21-.06.06-.14.11-.24.14-.11.04-.24.06-.41.09-.17.02-.36.04-.59.04s-.42-.01-.58-.04c-.16-.03-.27-.06-.35-.09-.08-.04-.13-.08-.16-.14-.03-.06-.03-.13 0-.21l3.58-17.96c.08-.4.25-.69.5-.86s.51-.26.77-.26h1.19c.24 0 .45.02.63.08s.34.14.47.27c.13.13.25.3.35.5.1.21.21.47.33.79l3.69 10.51c.23.65.46 1.3.68 1.96.23.65.45 1.31.67 1.97h.03c.14-.82.29-1.68.46-2.56s.33-1.73.49-2.56l2.12-10.54c.02-.08.05-.15.11-.2.05-.06.13-.1.23-.14.1-.04.23-.07.38-.09.16-.02.35-.03.59-.03s.42 0 .58.03c.16.02.28.05.36.09.09.04.14.09.17.14.03.06.04.12.03.2l-3.61 17.98zM202.08 127.14c0 .08 0 .17-.01.28-.01.1-.03.22-.05.33-.03.12-.06.24-.09.36-.04.13-.08.24-.13.33-.05.1-.11.17-.17.23s-.14.09-.22.09c-.11 0-.26-.07-.46-.2-.2-.13-.45-.27-.75-.41-.31-.15-.67-.28-1.09-.41s-.91-.2-1.46-.2c-.61 0-1.15.09-1.61.28s-.85.44-1.16.75c-.31.32-.54.67-.7 1.08-.16.4-.23.82-.23 1.25s.1.83.29 1.16c.2.33.45.63.77.9.32.27.68.53 1.08.77.41.24.82.49 1.24.74.42.25.84.52 1.25.8.41.29.77.62 1.09.99.32.38.57.81.77 1.29.2.49.29 1.05.29 1.69 0 .85-.18 1.65-.53 2.4-.35.75-.85 1.4-1.5 1.96-.65.56-1.43 1-2.34 1.32-.91.33-1.93.49-3.05.49-.61 0-1.18-.05-1.71-.16-.53-.11-1-.24-1.42-.39-.42-.16-.78-.32-1.07-.48-.29-.17-.5-.31-.63-.44-.13-.13-.2-.32-.2-.57 0-.06 0-.15.02-.26s.04-.23.07-.36c.03-.13.06-.26.1-.38s.08-.24.14-.35c.05-.11.12-.19.18-.26s.14-.1.23-.1c.16 0 .36.08.6.24.24.16.54.33.89.52.36.19.78.36 1.27.52.49.16 1.07.24 1.73.24.7 0 1.33-.1 1.88-.29.55-.2 1.02-.46 1.39-.8s.66-.73.86-1.18c.2-.45.3-.93.3-1.44 0-.45-.1-.84-.29-1.18-.19-.34-.44-.64-.75-.91-.31-.27-.67-.52-1.08-.75-.41-.23-.82-.47-1.23-.72-.42-.25-.82-.52-1.23-.8-.4-.29-.76-.62-1.07-.99-.31-.38-.56-.81-.76-1.29-.2-.49-.29-1.06-.29-1.71 0-.79.16-1.53.47-2.23.31-.69.75-1.3 1.32-1.82.57-.52 1.26-.93 2.08-1.23.81-.3 1.72-.45 2.72-.45.48 0 .94.04 1.38.12.44.08.83.18 1.18.29s.65.24.9.38c.25.14.42.25.51.34.09.09.16.18.2.28.04.1.06.21.06.35zM217.48 130.24c0 .53-.06 1.09-.19 1.67-.13.58-.32 1.15-.59 1.71-.27.56-.61 1.08-1.03 1.58s-.92.94-1.51 1.32c-.59.38-1.27.68-2.04.9-.77.22-1.67.32-2.72.32h-2.68l-1.4 7.02c-.02.07-.06.14-.11.2s-.13.11-.25.14c-.12.04-.26.06-.42.09-.17.02-.37.04-.62.04-.23 0-.43-.01-.59-.03s-.29-.05-.38-.08c-.1-.04-.16-.08-.2-.14s-.04-.13-.02-.21l3.58-17.98c.08-.4.25-.69.5-.86s.54-.26.87-.26h3.84c.5 0 .95.02 1.33.05.39.04.76.09 1.12.17.54.12 1.03.31 1.47.56.44.25.8.56 1.11.92s.53.79.69 1.27c.16.48.24 1.01.24 1.59zm-2.74.27c0-.62-.15-1.16-.46-1.6-.31-.45-.78-.76-1.42-.94-.24-.07-.51-.12-.8-.14s-.6-.03-.93-.03h-2.44l-1.53 7.81h2.45c.71 0 1.31-.08 1.81-.24.49-.16.92-.37 1.29-.63.37-.26.68-.57.94-.92.26-.35.46-.71.62-1.09.16-.38.28-.76.35-1.14s.11-.74.11-1.08zM220.56 144.76c-.01.07-.04.14-.1.2s-.14.11-.25.14-.25.06-.42.09c-.17.02-.38.04-.62.04-.26 0-.47-.01-.63-.04-.16-.03-.29-.06-.38-.09s-.15-.08-.18-.14c-.03-.06-.04-.13-.01-.2l3.73-18.71c0-.07.05-.14.11-.2.07-.06.15-.11.26-.14s.25-.06.41-.09c.17-.02.37-.04.61-.04s.44.01.6.04c.16.03.29.06.38.09.1.04.16.08.19.14s.03.13.01.2l-3.73 18.71zM239.77 129.75c0 .69-.1 1.35-.29 1.97-.2.62-.49 1.19-.89 1.71-.4.52-.89.99-1.49 1.39-.6.41-1.29.73-2.08.99.53.19.96.59 1.29 1.2.33.61.59 1.42.77 2.42l.8 4.3c.03.19.06.37.08.53.02.17.04.31.04.44 0 .09-.02.17-.08.23s-.13.12-.24.16-.26.07-.46.09c-.2.02-.43.03-.71.03-.26 0-.47-.01-.63-.03-.16-.02-.28-.06-.37-.1-.09-.05-.15-.11-.18-.19s-.06-.18-.08-.31l-.77-4.57c-.08-.53-.19-1.01-.34-1.44-.15-.43-.35-.8-.61-1.12-.26-.32-.59-.56-1-.74-.41-.18-.9-.26-1.48-.26h-1.73l-1.67 8.3c-.02.07-.06.14-.11.2s-.13.11-.24.14-.25.06-.42.09c-.17.02-.38.04-.63.04-.23 0-.43-.01-.59-.03-.17-.02-.29-.05-.38-.08s-.15-.08-.19-.14-.04-.13-.02-.21l3.61-18.04c.08-.39.24-.66.48-.82.24-.16.51-.23.8-.23h4.23c.92 0 1.73.09 2.43.27s1.28.44 1.75.79c.47.35.82.77 1.06 1.28.24.51.35 1.09.35 1.74zm-2.8.41c0-.34-.06-.66-.18-.95-.12-.29-.31-.54-.56-.75-.26-.21-.59-.37-1.01-.48-.42-.11-.91-.17-1.48-.17h-2.69l-1.32 6.56h2.29c.89 0 1.65-.12 2.28-.36.63-.24 1.14-.56 1.53-.96.4-.4.69-.84.87-1.35.19-.5.28-1.02.28-1.55zM243.69 144.76c-.01.07-.04.14-.1.2-.06.06-.14.11-.25.14s-.25.06-.42.09c-.17.02-.38.04-.62.04-.26 0-.47-.01-.63-.04-.16-.03-.29-.06-.38-.09-.09-.04-.15-.08-.18-.14-.03-.06-.04-.13-.02-.2l3.73-18.71c.01-.07.05-.14.11-.2.07-.06.15-.11.26-.14.11-.04.25-.06.41-.09.17-.02.37-.04.61-.04s.44.01.6.04c.16.03.29.06.38.09s.16.08.19.14c.03.06.04.13.02.2l-3.73 18.71zM262.99 144.07c-.03.2-.09.37-.18.51s-.19.26-.31.35c-.12.09-.24.16-.37.2s-.26.06-.39.06h-.98c-.26 0-.48-.03-.66-.09-.18-.06-.34-.16-.47-.31-.14-.15-.26-.34-.36-.57-.11-.24-.22-.53-.34-.88l-3.66-10.38c-.25-.74-.5-1.48-.74-2.22-.25-.74-.48-1.48-.71-2.22h-.03c-.13.82-.27 1.64-.42 2.45-.15.81-.31 1.62-.47 2.44l-2.26 11.34c-.02.08-.06.15-.11.21s-.14.11-.24.14c-.1.04-.24.06-.41.09-.17.02-.36.04-.59.04s-.42-.01-.58-.04c-.16-.03-.27-.06-.35-.09-.08-.04-.13-.08-.16-.14s-.03-.13 0-.21l3.58-17.96c.08-.4.25-.69.5-.86.26-.17.51-.26.78-.26h1.19c.24 0 .45.02.63.08.18.05.34.14.47.27.13.13.25.3.35.5.1.21.21.47.33.79l3.69 10.51c.23.65.46 1.3.68 1.96.23.65.45 1.31.67 1.97h.03c.14-.82.29-1.68.46-2.56s.33-1.73.49-2.56l2.12-10.54c.02-.08.06-.15.11-.2.05-.06.12-.1.23-.14.1-.04.23-.07.38-.09.16-.02.35-.03.59-.03s.42 0 .58.03c.16.02.28.05.36.09.09.04.14.09.17.14.03.06.04.12.03.2l-3.61 17.98zM285.34 127.79c0 .07 0 .16-.02.26-.01.11-.04.22-.06.33s-.06.24-.1.36-.09.24-.14.33-.1.17-.17.23c-.06.06-.13.08-.2.08-.15 0-.35-.09-.61-.27s-.6-.38-1.02-.61c-.43-.23-.95-.43-1.56-.62s-1.34-.28-2.2-.28-1.73.13-2.5.4c-.78.27-1.49.63-2.14 1.1-.65.47-1.23 1.02-1.74 1.66s-.95 1.33-1.3 2.08c-.36.75-.63 1.53-.81 2.35-.19.82-.28 1.65-.28 2.5s.13 1.66.38 2.34.62 1.25 1.11 1.71c.48.46 1.06.81 1.74 1.05.68.24 1.44.35 2.29.35.62 0 1.27-.07 1.95-.22.68-.15 1.31-.37 1.89-.67l1.13-5.64h-4.5c-.12 0-.21-.04-.28-.13-.07-.08-.1-.21-.1-.37 0-.07 0-.16.02-.28.02-.12.04-.23.06-.35.02-.12.06-.24.11-.36.04-.12.1-.23.16-.32.06-.1.13-.17.2-.23s.16-.08.25-.08h6.18c.28 0 .48.1.61.29.13.19.15.45.08.77l-1.5 7.49c-.04.19-.09.34-.16.46-.07.12-.14.22-.22.31-.09.09-.32.22-.68.4-.37.18-.83.35-1.38.53-.56.18-1.18.34-1.88.47-.7.14-1.43.2-2.19.2-1.3 0-2.45-.17-3.44-.5s-1.83-.82-2.5-1.47c-.67-.64-1.18-1.42-1.53-2.33-.35-.91-.53-1.95-.53-3.1 0-1.07.12-2.13.37-3.17.25-1.04.6-2.02 1.06-2.96.46-.93 1.03-1.8 1.71-2.59s1.45-1.47 2.33-2.05 1.84-1.02 2.9-1.35 2.19-.5 3.41-.5c.7 0 1.36.06 1.97.19.61.13 1.16.28 1.64.45.48.18.89.37 1.22.58.33.21.56.37.68.48.12.11.2.22.24.32.04.1.06.23.06.38zM295 144.76c-.01.07-.04.14-.1.2-.06.06-.14.11-.25.14s-.25.06-.42.09c-.17.02-.38.04-.62.04-.26 0-.47-.01-.63-.04-.16-.03-.29-.06-.38-.09-.09-.04-.15-.08-.18-.14-.03-.06-.04-.13-.02-.2l3.73-18.71c.01-.07.05-.14.11-.2.07-.06.15-.11.26-.14.11-.04.25-.06.41-.09.17-.02.37-.04.61-.04s.44.01.6.04c.16.03.29.06.38.09s.16.08.19.14c.03.06.04.13.02.2l-3.73 18.71zM314.3 144.07c-.03.2-.09.37-.18.51s-.19.26-.31.35c-.12.09-.24.16-.37.2s-.26.06-.39.06h-.98c-.26 0-.48-.03-.66-.09-.18-.06-.34-.16-.47-.31-.14-.15-.26-.34-.36-.57-.11-.24-.22-.53-.34-.88l-3.66-10.38c-.25-.74-.5-1.48-.74-2.22-.25-.74-.48-1.48-.71-2.22h-.03c-.13.82-.27 1.64-.42 2.45-.15.81-.31 1.62-.47 2.44l-2.26 11.34c-.02.08-.06.15-.11.21s-.14.11-.24.14c-.1.04-.24.06-.41.09-.17.02-.36.04-.59.04s-.42-.01-.58-.04c-.16-.03-.27-.06-.35-.09-.08-.04-.13-.08-.16-.14s-.03-.13 0-.21l3.58-17.96c.08-.4.25-.69.5-.86.26-.17.51-.26.78-.26h1.19c.24 0 .45.02.63.08s.34.14.47.27.25.3.35.5c.1.21.21.47.33.79l3.69 10.51c.23.65.46 1.3.68 1.96.23.65.45 1.31.67 1.97h.03c.14-.82.29-1.68.46-2.56s.33-1.73.49-2.56l2.12-10.54c.02-.08.06-.15.11-.2.05-.06.12-.1.23-.14.1-.04.23-.07.38-.09.16-.02.35-.03.59-.03s.42 0 .58.03c.16.02.28.05.36.09.09.04.14.09.17.14.03.06.04.12.03.2l-3.61 17.98zM333.47 144.07c-.03.2-.09.37-.18.51s-.19.26-.31.35c-.12.09-.24.16-.37.2s-.26.06-.39.06h-.98c-.26 0-.48-.03-.66-.09-.18-.06-.34-.16-.47-.31-.14-.15-.26-.34-.36-.57-.11-.24-.22-.53-.34-.88l-3.66-10.38c-.25-.74-.5-1.48-.74-2.22-.25-.74-.48-1.48-.71-2.22h-.03c-.13.82-.27 1.64-.42 2.45-.15.81-.31 1.62-.47 2.44l-2.26 11.34c-.02.08-.06.15-.11.21s-.14.11-.24.14c-.1.04-.24.06-.41.09-.17.02-.36.04-.59.04s-.42-.01-.58-.04c-.16-.03-.27-.06-.35-.09-.08-.04-.13-.08-.16-.14s-.03-.13 0-.21l3.58-17.96c.08-.4.25-.69.5-.86.26-.17.51-.26.78-.26h1.19c.24 0 .45.02.63.08s.34.14.47.27.25.3.35.5c.1.21.21.47.33.79l3.69 10.51c.23.65.46 1.3.68 1.96.23.65.45 1.31.67 1.97h.03c.14-.82.29-1.68.46-2.56s.33-1.73.49-2.56l2.12-10.54c.02-.08.06-.15.11-.2.05-.06.12-.1.23-.14.1-.04.23-.07.38-.09.16-.02.35-.03.59-.03s.42 0 .58.03c.16.02.28.05.36.09.09.04.14.09.17.14.03.06.04.12.03.2l-3.61 17.98zM356.11 132.2c0 .77-.07 1.63-.21 2.59-.14.95-.38 1.92-.71 2.9-.33.98-.77 1.94-1.32 2.87-.55.93-1.22 1.75-2.02 2.47s-1.76 1.3-2.86 1.74c-1.1.44-2.37.66-3.79.66-1.14 0-2.15-.14-3.01-.43-.86-.29-1.58-.71-2.16-1.28-.58-.57-1.01-1.27-1.3-2.1-.29-.83-.44-1.8-.44-2.89 0-.86.08-1.79.23-2.78s.4-1.98.74-2.97c.35-.99.8-1.94 1.35-2.85s1.24-1.72 2.05-2.43c.81-.71 1.75-1.27 2.84-1.68 1.08-.42 2.33-.62 3.73-.62 1.13 0 2.13.15 2.99.44.86.3 1.57.73 2.15 1.31.58.58 1.01 1.29 1.3 2.14.29.85.44 1.82.44 2.93zm-2.77.18c0-.7-.08-1.35-.24-1.93-.16-.59-.42-1.09-.77-1.51s-.82-.75-1.4-.99c-.58-.24-1.28-.35-2.11-.35-1.04 0-1.96.19-2.74.58s-1.47.89-2.05 1.51c-.58.62-1.05 1.33-1.43 2.11-.38.79-.68 1.58-.9 2.38s-.39 1.58-.48 2.33-.14 1.4-.14 1.96c0 .71.08 1.36.23 1.93.16.58.41 1.07.77 1.48.36.41.83.73 1.41.96.58.23 1.28.34 2.11.34 1.03 0 1.94-.19 2.72-.56.78-.38 1.46-.87 2.03-1.48s1.05-1.31 1.43-2.08c.38-.78.69-1.56.92-2.36.23-.8.39-1.57.49-2.32.1-.75.14-1.41.14-1.99zM364.82 144.68c-.07.11-.15.2-.23.27-.08.07-.19.13-.32.17s-.3.07-.5.08-.45.02-.75.02c-.32 0-.59 0-.8-.02-.21-.02-.38-.04-.5-.08-.12-.04-.21-.1-.26-.17s-.09-.17-.1-.28l-2.75-18.2c-.03-.19-.04-.35-.04-.47 0-.12.05-.21.14-.27.08-.06.22-.1.39-.12.18-.02.42-.03.73-.03s.54 0 .71.02c.18.02.31.04.41.08.1.04.17.1.2.17.03.07.06.16.08.26l2.27 16.37h.02l8.68-16.38c.05-.1.11-.18.17-.25.07-.06.15-.12.26-.16.11-.04.26-.07.44-.08s.43-.02.73-.02.56.01.74.04c.18.03.31.07.38.14s.09.17.06.31c-.03.14-.11.31-.23.53l-9.96 18.08zM387.1 144.22c.03.22.04.4.02.53-.01.14-.07.24-.17.31s-.24.12-.44.14-.47.03-.81.03c-.22 0-.41 0-.57-.02-.16-.02-.28-.04-.37-.08-.09-.04-.15-.08-.19-.14s-.06-.14-.08-.23l-.72-4.74h-8.11l-2.54 4.69c-.05.1-.11.18-.17.25-.07.06-.16.12-.27.16s-.27.07-.45.08c-.19.02-.41.02-.68.02-.3 0-.54-.01-.72-.04-.18-.03-.31-.07-.38-.14s-.09-.17-.06-.31c.03-.14.1-.31.21-.53l10.14-18.08c.07-.11.15-.2.23-.27.08-.07.19-.13.32-.17s.3-.07.5-.08.45-.02.74-.02c.33 0 .6 0 .8.02s.37.04.5.08.21.1.26.17.09.17.11.28l2.92 18.08zm-5.07-15.96h-.02l-5.26 9.7h6.74l-1.46-9.7zM402.9 126.2c0 .06 0 .14 0 .25 0 .11-.02.22-.05.34-.02.12-.06.25-.1.38-.04.14-.09.25-.15.35-.06.1-.13.18-.22.25-.09.07-.18.1-.28.1h-5.47l-3.38 16.88c-.02.08-.06.15-.11.21s-.14.11-.24.14c-.1.04-.24.06-.41.09-.17.02-.38.04-.63.04s-.46-.01-.62-.04c-.16-.03-.29-.06-.38-.09s-.15-.08-.18-.14c-.03-.06-.04-.13-.02-.21l3.37-16.88h-5.45c-.14 0-.24-.05-.29-.14-.05-.09-.08-.22-.08-.38 0-.07 0-.16.02-.26.02-.1.04-.22.06-.35s.06-.26.1-.38c.04-.12.09-.23.15-.34.06-.1.13-.19.2-.26.08-.06.16-.1.26-.1h13.54c.13 0 .22.05.27.14.05.1.08.22.08.38zM403.96 144.76c-.01.07-.04.14-.1.2-.06.06-.14.11-.25.14s-.25.06-.42.09c-.17.02-.38.04-.62.04-.26 0-.47-.01-.63-.04-.16-.03-.29-.06-.38-.09-.09-.04-.15-.08-.18-.14-.03-.06-.04-.13-.02-.2l3.73-18.71c.01-.07.05-.14.11-.2.07-.06.15-.11.26-.14.11-.04.25-.06.41-.09.17-.02.37-.04.61-.04s.44.01.6.04c.16.03.29.06.38.09s.16.08.19.14c.03.06.04.13.02.2l-3.73 18.71zM426.71 132.2c0 .77-.07 1.63-.21 2.59-.14.95-.38 1.92-.71 2.9-.33.98-.77 1.94-1.32 2.87-.55.93-1.22 1.75-2.02 2.47s-1.76 1.3-2.86 1.74c-1.1.44-2.37.66-3.79.66-1.14 0-2.15-.14-3.01-.43-.86-.29-1.58-.71-2.16-1.28-.58-.57-1.01-1.27-1.3-2.1-.29-.83-.44-1.8-.44-2.89 0-.86.08-1.79.23-2.78s.4-1.98.74-2.97c.35-.99.8-1.94 1.35-2.85s1.24-1.72 2.05-2.43c.81-.71 1.75-1.27 2.84-1.68 1.08-.42 2.33-.62 3.73-.62 1.13 0 2.13.15 2.99.44.86.3 1.57.73 2.15 1.31.58.58 1.01 1.29 1.3 2.14.29.85.44 1.82.44 2.93zm-2.77.18c0-.7-.08-1.35-.24-1.93s-.42-1.09-.77-1.51-.82-.75-1.4-.99c-.58-.24-1.28-.35-2.11-.35-1.04 0-1.96.19-2.74.58s-1.47.89-2.05 1.51c-.58.62-1.05 1.33-1.43 2.11-.38.79-.68 1.58-.9 2.38s-.39 1.58-.48 2.33-.14 1.4-.14 1.96c0 .71.08 1.36.23 1.93.16.58.41 1.07.77 1.48.36.41.83.73 1.41.96.58.23 1.28.34 2.11.34 1.03 0 1.94-.19 2.72-.56.78-.38 1.46-.87 2.03-1.48s1.05-1.31 1.43-2.08c.38-.78.69-1.56.92-2.36.23-.8.39-1.57.49-2.32.1-.75.14-1.41.14-1.99zM442.73 144.07c-.03.2-.09.37-.18.51s-.19.26-.31.35c-.12.09-.24.16-.37.2s-.26.06-.39.06h-.98c-.26 0-.48-.03-.66-.09-.18-.06-.34-.16-.47-.31-.14-.15-.26-.34-.36-.57-.11-.24-.22-.53-.34-.88l-3.66-10.38c-.25-.74-.5-1.48-.74-2.22-.25-.74-.48-1.48-.71-2.22h-.03c-.13.82-.27 1.64-.42 2.45-.15.81-.31 1.62-.47 2.44l-2.26 11.34c-.02.08-.06.15-.11.21s-.14.11-.24.14c-.1.04-.24.06-.41.09-.17.02-.36.04-.59.04s-.42-.01-.58-.04c-.16-.03-.27-.06-.35-.09-.08-.04-.13-.08-.16-.14s-.03-.13 0-.21l3.58-17.96c.08-.4.25-.69.5-.86.26-.17.51-.26.78-.26h1.19c.24 0 .45.02.63.08s.34.14.47.27.25.3.35.5c.1.21.21.47.33.79l3.69 10.51c.23.65.46 1.3.68 1.96.23.65.45 1.31.67 1.97h.03c.14-.82.29-1.68.46-2.56s.33-1.73.49-2.56l2.12-10.54c.02-.08.06-.15.11-.2.05-.06.12-.1.23-.14.1-.04.23-.07.38-.09.16-.02.35-.03.59-.03s.42 0 .58.03c.16.02.28.05.36.09.09.04.14.09.17.14.03.06.04.12.03.2l-3.61 17.98zM459.7 127.14c0 .08 0 .17-.02.28 0 .1-.03.22-.05.33-.02.12-.06.24-.09.36-.04.13-.08.24-.13.33-.05.1-.11.17-.17.23s-.14.09-.22.09c-.11 0-.26-.07-.46-.2-.2-.13-.45-.27-.75-.41s-.67-.28-1.09-.41-.91-.2-1.46-.2c-.61 0-1.15.09-1.61.28-.46.19-.85.44-1.16.75-.31.32-.54.67-.7 1.08-.16.4-.23.82-.23 1.25s.1.83.29 1.16c.2.33.45.63.77.9.32.27.68.53 1.08.77.41.24.82.49 1.24.74.42.25.84.52 1.25.8.41.29.77.62 1.09.99.32.38.57.81.77 1.29.2.49.29 1.05.29 1.69 0 .85-.18 1.65-.53 2.4-.35.75-.85 1.4-1.5 1.96-.65.56-1.43 1-2.34 1.32-.91.33-1.93.49-3.05.49-.61 0-1.18-.05-1.71-.16s-1-.24-1.42-.39c-.42-.16-.78-.32-1.07-.48s-.5-.31-.63-.44-.2-.32-.2-.57c0-.06 0-.15.02-.26.01-.11.04-.23.07-.36.03-.13.06-.26.1-.38.03-.13.08-.24.14-.35.06-.11.12-.19.18-.26.06-.07.14-.1.23-.1.16 0 .36.08.6.24.24.16.54.33.9.52s.78.36 1.27.52c.49.16 1.07.24 1.73.24.7 0 1.33-.1 1.88-.29.55-.2 1.02-.46 1.39-.8.38-.34.66-.73.86-1.18.2-.45.3-.93.3-1.44 0-.45-.1-.84-.29-1.18-.19-.34-.44-.64-.75-.91-.31-.27-.67-.52-1.08-.75-.41-.23-.82-.47-1.23-.72-.42-.25-.82-.52-1.23-.8-.4-.29-.76-.62-1.07-.99-.31-.38-.56-.81-.76-1.29-.2-.49-.29-1.06-.29-1.71 0-.79.16-1.53.47-2.23.31-.69.75-1.3 1.32-1.82.57-.52 1.26-.93 2.08-1.23.81-.3 1.72-.45 2.72-.45.48 0 .94.04 1.38.12.44.08.83.18 1.18.29s.65.24.9.38c.25.14.42.25.51.34s.16.18.2.28c.04.1.06.21.06.35z"/></g><path d="M142.27,112c-13.32,0-23.39-3.08-30.76-9.4l14.07-16.05,.55,.34,.31,.17,.11,.08s.1,.06,.16,.08l.96,.56,.23,.11s.42,.24,.42,.24l.47,.25,.21,.12s.32,.16,.34,.17c.04,.03,.09,.06,.11,.06l.22,.11,.08,.05s.14,.06,.17,.07c0,0,.42,.21,.43,.22l-.06-.05c.15,.1,.51,.29,1.7,.8,0,0,1.25,.52,1.29,.53,.03,.01,.05,.02,.08,.03,2.48,.97,4.6,1.62,6.28,1.94,2.54,.59,5.26,.9,8.06,.9,6,0,9.97-1.87,10.61-5,.14-.69,.01-1.36-.37-1.92-1.27-1.89-5.24-2.6-10.73-3.59-3.21-.58-6.85-1.24-10.39-2.23-8.74-2.45-19.97-7.56-16.61-23.69,1.41-6.8,5.64-13.13,11.91-17.83,6.99-5.24,16-8.01,26.04-8.01,11.67,0,21.57,3.06,28.7,8.85l-12.33,14.07c-4.42-2.29-9.36-3.91-13.98-4.58-1.68-.24-3.34-.37-4.94-.37-4.61,0-7.67,.99-8.76,1.41-1.77,.71-2.82,1.92-3.16,3.6-.14,.67-.02,1.33,.35,1.9,1.27,1.93,5.34,2.74,10.97,3.86,3.1,.62,6.62,1.32,10.04,2.31,8.68,2.52,19.85,7.62,16.71,22.75-1.75,8.37-6.29,15.29-13.14,20.01-6.77,4.68-15.89,7.15-26.36,7.15Z"/></svg>