<svg xmlns="http://www.w3.org/2000/svg" role="img" viewBox="421.05 421.05 3975.40 1232.90"><title>XMOS logo</title><path fill="#FFF" d="M2976 2072H2.00067C2.00044 1382.00049 2.00044 692.00098 2.00022 2.00113c1603.9988-.00038 3207.99783-.00038 4811.99783-.00075.00048 689.9984.00048 1379.99718.00097 2069.99767C4201.6665 2072 3589.33325 2072 2976 2072M1009.37946 802.29095c-14.0379-23.77496-28.0722-47.55194-42.11438-71.3244-33.83924-57.28772-67.76124-114.52685-101.39106-171.93725-3.08953-5.27423-6.36895-7.37433-12.4898-7.3639-99.95704.16962-199.91443.11628-299.8717.14936-2.09473.00067-4.1894.43066-7.05402.74475 1.3081 2.44775 1.93798 3.96039 2.84857 5.27923 10.20837 14.78559 20.5266 29.49555 30.68732 44.31367 28.0404 40.89318 56.01544 81.8313 84.0246 122.74597 39.28728 57.38934 78.55517 114.79211 117.88409 172.15301 22.39288 32.66004 44.97137 65.19324 67.2608 97.92346 3.66718 5.38477 6.27277 11.4925 8.72845 18.5036-18.25085 26.62299-36.43518 53.29181-54.7658 79.85969-43.1012 62.46911-86.27686 124.88684-129.41297 187.33178-22.89386 33.14173-45.75445 66.30652-68.65423 99.44434-34.8205 50.38757-69.66999 100.75525-104.46161 151.16284-1.20816 1.75037-1.92914 3.83704-3.2703 6.56714h308.14414c1.90948-2.8739 3.96692-5.87744 5.93103-8.9408 32.51825-50.71838 65.03161-101.43994 97.53167-152.16992 21.00837-32.79236 41.94507-65.63062 63.0069-98.38855 12.95941-20.156 26.09449-40.19922 40.09406-58.87036 68.23456 106.34717 136.46905 212.69433 204.13763 318.1593h309.05493c-3.1377-4.95764-5.43664-8.89111-8.0205-12.62756-39.74231-57.4734-79.54432-114.90576-119.28577-172.37976-33.68604-48.7168-67.30725-97.4784-100.96582-146.214-45.19165-65.43468-90.39197-130.8634-134.9314-197.56487 6.12488-9.11951 12.1737-18.2912 18.38684-27.35022 44.05054-64.22717 88.1515-128.41968 132.2008-192.64765 22.02638-32.1164 43.95045-64.30297 65.9701-96.42413 30.4862-44.4718 61.02918-88.90454 91.49573-133.38977 1.35889-1.98413 2.20105-4.32202 3.698-7.32623h-10.23389c-98.29163 0-196.58337-.00006-294.875.00006-1.33276 0-2.67737.11706-3.9961-.0182-4.10314-.42089-6.68237 1.20112-8.82897 4.87092-27.55054 47.09918-55.2146 94.13208-82.9165 141.14258-20.77222 35.25073-41.64039 70.44494-63.54584 104.58588m944.75616 452.56329c3.91785 8.80017 7.83081 17.60266 11.7544 26.40027 39.53393 88.6471 79.0581 177.29834 118.62048 265.93274 4.61645 10.34265 9.4475 20.58947 14.97388 32.60925 106.03784-236.49243 211.23217-471.10352 316.4265-705.71466l2.58839.16974c9.67456 43.8399 17.14136 88.13556 25.65307 132.21417 8.55933 44.32452 17.0669 88.65912 25.47876 133.01178 8.35108 44.031 16.50415 88.09936 24.83716 132.13379 8.39307 44.3529 16.91846 88.6809 25.35376 133.02588 8.42407 44.28381 16.8081 88.5752 25.23413 132.99255h113.38819c-1.90357-10.22388-3.61109-19.67566-5.42774-29.10632-10.23486-53.1327-20.56836-106.2467-30.72998-159.39356-12.406-64.885-24.60986-129.80896-37.02295-194.69275-11.7273-61.29773-23.63159-122.5614-35.4231-183.84686-11.16332-58.02081-22.28808-116.04901-33.41699-174.07641-8.75415-45.6443-17.52636-91.28516-26.22168-136.94062-9.56494-50.219-19.01098-100.4607-28.6687-150.66171-.59936-3.11505-2.59326-5.96176-4.90136-11.06027-119.5608 275.71753-238.0625 548.99237-357.13623 823.5871-1.79712-3.85218-2.8274-5.9303-3.74878-8.05555-22.21363-51.23584-44.47095-102.45288-66.60828-153.72168-51.38635-119.00793-102.68652-238.05304-154.07397-357.06042-34.12708-79.03424-68.34192-158.0307-102.52466-237.0409-8.7107-20.13409-17.41455-40.27136-26.22437-60.36212-.91223-2.08017-2.52734-3.85214-3.81628-5.76712-.75.20648-1.49988.413-2.24988.6195-66.23608 345.7111-132.47217 691.4221-198.80481 1037.63743h113.44678c42.08947-221.68481 84.06665-442.7771 126.10974-664.2174 1.8164.85564 2.72876.979 2.92749 1.42217 56.57336 126.1728 113.09717 252.36774 170.20703 379.96198m1687.08752 19.26306c2.11304-4.5177 4.2168-9.0398 6.34131-13.55212 26.04346-55.31128 41.2417-113.61255 45.81568-174.42151 2.19238-29.14063 1.83618-58.46436-.88477-87.74176-3.9585-42.59485-13.01074-83.94434-27.56299-124.1114-31.17505-86.04803-81.9231-158.55425-151.5437-217.82311-36.6897-31.23426-77.12524-56.6073-121.02026-76.61689-61.26856-27.92938-125.66529-42.4182-192.70215-45.3927-24.5642-1.08996-49.1184.38617-73.63867 3.03626-36.15772 3.9079-71.4563 11.41235-105.91284 22.89923-71.78174 23.92987-135.35498 61.84839-190.4773 113.57843-47.56201 44.63501-85.35986 96.54419-113.31885 155.60797-28.21728 59.61023-43.90966 122.43237-47.71582 188.08069-1.28418 22.1488.17066 44.50073 1.1421 66.7262 1.61791 37.02026 9.02416 73.06787 19.6997 108.48755 27.57861 91.5 77.6316 168.7406 148.594 232.37915 40.9077 36.68554 86.91113 65.7273 137.3728 87.64892 65.19165 28.32044 133.44336 41.95447 204.36401 42.70484 9.93994.10522 19.88696-1.04944 29.8374-1.22352 22.31958-.3911 44.32593-3.53418 66.2046-7.5255 51.38964-9.37537 100.17626-26.36048 146.40966-50.71607 54.13355-28.51746 101.80444-65.43323 142.76026-110.80506 30.00292-33.23877 55.1521-69.96923 76.23583-111.2196m216.00513-296.33313c20.54004 12.27838 40.34082 26.0733 61.77466 36.51776 43.9165 21.39996 88.68286 41.05975 133.15088 61.32306 26.36182 12.0127 52.35351 24.74036 76.54248 40.76282 22.35059 14.80444 42.375 32.10278 57.10303 54.97387 16.10742 25.01294 23.67822 52.3573 24.62793 81.9723 1.03613 32.29406-5.28809 62.81457-20.15381 91.46997-39.38135 75.9143-127.70386 117.38977-208.10791 105.5907-45.2334-6.63782-82.9585-26.89417-113.78516-60.50123-29.64209-32.31482-47.25586-70.35424-54.74853-113.33606-.38355-2.2019-1.25855-4.31823-2.08472-7.07556-18.42822 5.06348-36.41748 9.59558-54.14356 14.99219-17.8518 5.43494-36.33398 9.00744-53.5769 16.10095 1.0061 3.76343 1.75073 6.28076 2.34985 8.83228 6.79517 28.92614 16.57544 56.76623 30.27857 83.1731 16.55932 31.91088 37.72558 60.4497 64.33618 84.5968 57.177 51.88366 125.47388 76.08996 201.85303 78.22314 19.80761.55322 39.96069-.8385 59.52832-3.98865 73.1267-11.77258 135.1731-44.56079 184.44214-100.50586 49.59668-56.31714 73.16894-122.62292 74.82666-196.99621.36718-16.49878-1.47657-33.16065-3.61426-49.57666-3.8169-29.31617-13.56006-56.77979-28.53028-82.34058-20.2578-34.58936-48.65332-61.30798-81.17822-84.03833-35.63281-24.90253-74.5752-43.68128-114.01611-61.52625-39.97314-18.08587-80.24268-35.54522-119.86523-54.36761-26.48633-12.58222-51.17457-28.20508-72.16285-49.29529-29.05298-29.1939-40.94848-63.56964-34.47656-104.4157 8.56177-54.03462 38.93896-91.3694 87.45605-114.693 35.4314-17.03296 72.9214-19.4068 111.11255-13.15662 34.50147 5.64624 64.2085 21.24176 88.83545 46.07703 15.30127 15.43042 27.73877 33.11859 38.92578 51.70459 1.30567 2.1684 2.96631 4.12274 4.66797 6.45831 29.63721-19.07135 58.61768-37.72003 87.76905-56.47876-1.58399-3.00476-2.59424-5.07495-3.73877-7.06805-16.01075-27.8891-35.44971-52.98181-59.40625-74.61774-51.27832-46.31055-112.01172-68.88184-180.3606-72.14618-23.26758-1.11127-46.44263.86066-69.40307 5.1839-63.0608 11.8739-117.60767 39.32489-160.39966 87.96265-22.03467 25.04498-37.79541 53.70349-47.47657 85.73388-10.97119 36.2981-12.41455 73.23712-7.7439 110.53675 4.2483 33.9256 16.29249 64.9522 36.27418 92.81927 17.062 23.7956 38.30053 43.26947 63.11816 61.11902z"/><path fill="#4A4A49" d="M1953.84326 1254.1543c-56.8175-126.89429-113.3413-253.08924-169.91467-379.26203-.19873-.44317-1.11109-.56653-2.9275-1.42218-42.04308 221.44031-84.02025 442.5326-126.10973 664.21741h-113.44678c66.33264-346.21533 132.56873-691.92633 198.80481-1037.63742.75-.20651 1.49988-.41303 2.24988-.6195 1.28894 1.91497 2.90405 3.68694 3.81628 5.76711 8.80982 20.09076 17.51367 40.22803 26.22437 60.36212 34.18274 79.0102 68.39758 158.00666 102.52466 237.0409 51.38745 119.00738 102.68762 238.05249 154.07397 357.06042 22.13733 51.2688 44.39465 102.48584 66.60828 153.72168.92138 2.12525 1.95166 4.20337 3.74878 8.05554 119.07373-274.59472 237.57544-547.86956 357.13623-823.5871 2.3081 5.09852 4.302 7.94523 4.90136 11.06028 9.65772 50.20102 19.10376 100.44272 28.6687 150.66171 8.69532 45.65546 17.46753 91.29633 26.22168 136.94061 11.12891 58.02741 22.25367 116.0556 33.417 174.07642 11.7915 61.28546 23.6958 122.54913 35.4231 183.84686 12.41308 64.8838 24.61694 129.80774 37.02294 194.69275 10.16162 53.14685 20.49512 106.26087 30.72998 159.39356 1.81665 9.43066 3.52417 18.88244 5.42774 29.10632h-113.38819c-8.42602-44.41736-16.81006-88.70874-25.23413-132.99255-8.4353-44.34497-16.9607-88.67298-25.35376-133.02588-8.333-44.03443-16.48608-88.10279-24.83716-132.1338-8.41186-44.35265-16.91943-88.68725-25.47876-133.01177-8.51172-44.07861-15.97851-88.37427-25.65307-132.21417l-2.58838-.16974c-105.19434 234.61114-210.38867 469.22223-316.42652 705.71466-5.52636-12.01978-10.35742-22.2666-14.97387-32.60925-39.56238-88.6344-79.08655-177.28565-118.62048-265.93274-3.92359-8.79761-7.83655-17.6001-12.04676-27.10022zm1687.00293 20.60815c-20.70679 40.60523-45.85596 77.3357-75.85889 110.57446-40.9558 45.37183-88.6267 82.2876-142.76025 110.80506-46.2334 24.35559-95.02002 41.3407-146.40967 50.71606-21.87866 3.99133-43.885 7.1344-66.20459 7.52551-9.95044.17408-19.89746 1.32874-29.8374 1.22352-70.92065-.75037-139.17236-14.3844-204.36401-42.70484-50.46167-21.92163-96.4651-50.96338-137.3728-87.64892-70.9624-63.63855-121.01539-140.87915-148.594-232.37915-10.67554-35.41968-18.08179-71.46729-19.6997-108.48755-.97144-22.22547-2.42628-44.5774-1.1421-66.7262 3.80616-65.64832 19.49854-128.47046 47.71582-188.08069 27.95899-59.06378 65.75684-110.97296 113.31885-155.60797 55.12232-51.73004 118.69556-89.64856 190.4773-113.57843 34.45654-11.48688 69.75512-18.99133 105.91284-22.89923 24.52026-2.65009 49.07446-4.12622 73.63867-3.03626 67.03687 2.9745 131.4336 17.46332 192.70215 45.3927 43.89502 20.00959 84.33056 45.38263 121.02026 76.61689 69.6206 59.26886 120.36865 131.77508 151.5437 217.82312 14.55225 40.16705 23.6045 81.51654 27.563 124.11139 2.72094 29.2774 3.07714 58.60113.88476 87.74176-4.57398 60.80896-19.77222 119.11023-45.81568 174.4215-2.1245 4.51233-4.22827 9.03443-6.71826 14.19727m-853.41309-314.3584c-6.83837 35.28559-10.80175 70.67444-8.05712 106.80542 1.63891 21.57678 3.87549 42.9585 8.58984 64.03174 18.84424 84.23572 59.85718 155.74841 123.18872 214.51038 38.78589 35.98742 82.91821 63.26599 132.39063 81.7655 60.54956 22.6416 123.13208 29.92602 187.20727 21.92835 50.97144-6.36207 99.00025-22.39026 143.8982-47.52845 39.531-22.1333 74.34765-50.22046 104.56909-83.87524 28.18286-31.38465 50.94677-66.41455 68.46362-104.8424 20.7544-45.53016 32.4441-93.3689 35.87427-143.15956 2.4541-35.62243-.40747-70.99224-7.45948-106.0318-15.27295-75.88415-49.22656-142.29162-101.77832-198.96893-35.90283-38.72125-78.0747-69.0277-126.1228-91.26574-43.31909-20.0492-88.81958-31.53125-136.1853-35.23212-29.51099-2.30579-59.08032-1.27283-88.50855 3.07202-50.24902 7.41876-97.40405 23.62647-141.39721 48.901-50.65479 29.10169-92.90308 67.6778-126.875 115.10956-33.13819 46.26752-55.85694 97.2854-67.79785 154.78027zm1069.23023 16.9378c-24.25268-17.40722-45.49121-36.8811-62.55322-60.67669-19.9817-27.86706-32.02588-58.89368-36.27417-92.81927-4.67066-37.29963-3.2273-74.23865 7.7439-110.53675 9.68115-32.0304 25.44189-60.6889 47.47656-85.73388 42.79199-48.63776 97.33886-76.08875 160.39966-87.96265 22.96044-4.32324 46.1355-6.29517 69.40307-5.1839 68.34888 3.26434 129.08228 25.83563 180.3606 72.14618 23.95654 21.63593 43.3955 46.72864 59.40625 74.61774 1.14453 1.9931 2.15478 4.06329 3.73877 7.06805-29.15137 18.75873-58.13184 37.40741-87.76905 56.47876-1.70166-2.33557-3.3623-4.28992-4.66797-6.45831-11.187-18.586-23.6245-36.27417-38.92578-51.7046-24.62695-24.83526-54.33398-40.43078-88.83545-46.07702-38.19116-6.25018-75.68115-3.87634-111.11254 13.15662-48.5171 23.3236-78.8943 60.65838-87.45606 114.693-6.47192 40.84606 5.42358 75.2218 34.47656 104.4157 20.98828 21.09021 45.67652 36.71308 72.16285 49.29529 39.62255 18.82239 79.89208 36.28174 119.86523 54.36761 39.44092 17.84497 78.3833 36.62372 114.01611 61.52625 32.5249 22.73035 60.92041 49.44897 81.17822 84.03833 14.97022 25.5608 24.71338 53.02441 28.53028 82.34058 2.1377 16.41601 3.98144 33.07788 3.61426 49.57666-1.65772 74.37329-25.22998 140.67907-74.82666 196.99621-49.26905 55.94507-111.31543 88.73328-184.44214 100.50586-19.56763 3.15015-39.7207 4.54187-59.52832 3.98865-76.37915-2.13318-144.67603-26.33948-201.85303-78.22315-26.6106-24.1471-47.77686-52.6859-64.33618-84.5968-13.70313-26.40686-23.4834-54.24695-30.27857-83.1731-.59912-2.5515-1.34375-5.06884-2.34985-8.83227 17.24292-7.0935 35.7251-10.66601 53.5769-16.10095 17.72608-5.3966 35.71534-9.92871 54.14356-14.99219.82617 2.75733 1.70117 4.87366 2.08472 7.07556 7.49267 42.98182 25.10644 81.02124 54.74853 113.33606 30.82666 33.60706 68.55176 53.8634 113.78516 60.50122 80.40405 11.79908 168.72656-29.67639 208.1079-105.5907 14.86573-28.65539 21.18995-59.1759 20.15382-91.46997-.94971-29.61499-8.52051-56.95935-24.62793-81.97229-14.72803-22.87109-34.75245-40.16943-57.10303-54.97387-24.18897-16.02246-50.18066-28.75013-76.54248-40.76282-44.46802-20.2633-89.23438-39.9231-133.15088-61.32306-21.43384-10.44446-41.23462-24.23938-62.3396-36.96008z"/><path fill="#1CA8E1" d="M1011.09192 1218.052c-13.05627 20.09375-26.19135 40.13697-39.15076 60.29297-21.06183 32.75793-41.99853 65.5962-63.0069 98.38855-32.50006 50.72998-65.01342 101.45154-97.53167 152.16992-1.96411 3.06336-4.02155 6.0669-5.93103 8.9408H497.32742c1.34116-2.7301 2.06214-4.81677 3.2703-6.56714 34.79162-50.4076 69.64111-100.77527 104.4616-151.16284 22.89979-33.13782 45.76038-66.30261 68.65424-99.44434 43.13611-62.44494 86.31177-124.86267 129.41297-187.33179 18.33062-26.56787 36.51495-53.23669 55.98284-80.56536 51.2381-.7785 101.2591-.85132 151.60572-.0351.34259 69.03089.35974 137.1726.37683 205.31433z"/><path fill="#A7DD01" d="M1011.5636 1218.7633c-.48877-68.85302-.50592-136.99474-.51807-206.03936.005-.90283.61865-1.14996 1.57813-1.02551 41.69128.16314 82.42346.30499 123.15466.15686 8.53162-.03101 17.05933-1.13025 25.58887-1.7373 45.19653 65.4312 90.39685 130.85992 135.5885 196.2946 33.65857 48.7356 67.27978 97.4972 100.96582 146.214 39.74145 57.474 79.54346 114.90637 119.28577 172.37976 2.58386 3.73645 4.8828 7.66992 8.0205 12.62756h-309.05493c-67.66858-105.46497-135.90307-211.81213-204.60925-318.8706z"/><path fill="#67C7F2" d="M1010.72003 1011.83484c-50.35156.0866-100.37256.15942-151.2904.31921-3.99298-5.6867-6.59857-11.79443-10.26575-17.1792-22.28943-32.73022-44.86792-65.26342-67.2608-97.92346-39.32892-57.3609-78.5968-114.76367-117.8841-172.15301-28.00915-40.91468-55.98419-81.85279-84.0246-122.74597-10.1607-14.81812-20.47894-29.52808-30.68731-44.31367-.91059-1.31884-1.54047-2.83148-2.84857-5.27923 2.86462-.31409 4.95929-.74408 7.05401-.74475 99.95728-.03308 199.91467.02026 299.8717-.14936 6.12086-.01043 9.40027 2.08967 12.48981 7.3639 33.62982 57.4104 67.55182 114.64953 101.39106 171.93725 14.04217 23.77246 28.07647 47.54944 42.62432 72.59314.79987 8.25055 1.33332 15.23218 1.34137 22.21442.0675 58.28186.03125 116.5639.05524 174.84589.00147 3.65136.24646 7.30267.37817 10.95398 0 0-.61364.24713-.94415.26086z"/><path fill="#C3E828" d="M1012.62366 1011.69843c-1.09119-3.77576-1.33618-7.42707-1.33765-11.07844-.02399-58.28198.01227-116.56402-.05524-174.84588-.00805-6.98224-.5415-13.96387-.80139-21.67523 20.85553-35.94886 41.7237-71.14307 62.49591-106.3938 27.7019-47.0105 55.36597-94.0434 82.9165-141.14258 2.14661-3.6698 4.72584-5.2918 8.82899-4.87091 1.31872.13525 2.66333.01819 3.99609.01819 98.29163-.00012 196.58337-.00006 294.875-.00006h10.23389c-1.49695 3.0042-2.33911 5.3421-3.698 7.32623-30.46655 44.48523-61.00952 88.91797-91.49573 133.38977-22.01965 32.12116-43.94372 64.30774-65.9701 96.42413-44.0493 64.22797-88.15026 128.42048-132.2008 192.64765-6.21313 9.05902-12.26196 18.23071-18.71533 27.98535-8.85815 1.24219-17.38586 2.34143-25.91748 2.37244-40.7312.14813-81.46338.00628-123.15466-.15686z"/><path fill="#FFF" d="M2787.59155 959.5708c11.78247-56.66162 34.50122-107.6795 67.6394-153.94702 33.97193-47.43176 76.22022-86.00787 126.875-115.10956 43.99317-25.27454 91.1482-41.48224 141.39722-48.901 29.42823-4.34485 58.99756-5.3778 88.50855-3.07202 47.36572 3.70087 92.86621 15.18292 136.1853 35.23212 48.0481 22.23803 90.21997 52.54449 126.1228 91.26574 52.55176 56.67731 86.50537 123.08478 101.77832 198.96894 7.052 35.03955 9.91358 70.40936 7.45948 106.0318-3.43018 49.79064-15.11988 97.62939-35.87427 143.15954-17.51685 38.42786-40.28076 73.45776-68.46362 104.8424-30.22144 33.6548-65.03809 61.74195-104.5691 83.87525-44.89794 25.13819-92.92675 41.16638-143.89819 47.52845-64.0752 7.99768-126.65771.71325-187.20727-21.92835-49.47242-18.49951-93.60474-45.77808-132.39063-81.7655-63.33154-58.76197-104.34448-130.27466-123.18872-214.51038-4.71436-21.07324-6.95093-42.45495-8.58984-64.03174-2.74463-36.13098 1.21875-71.51983 8.21557-107.63867z"/></svg>