<svg xmlns="http://www.w3.org/2000/svg" role="img" viewBox="34.38 34.38 330.98 102.73"><title>XMOS logo</title><g fill-rule="evenodd"><path fill="#b2e316" d="M95.875 45.708c-.091.115-2.061 3.434-4.377 7.375-5.298 9.016-5.69 9.678-6.78 11.464l-.893 1.464.002 17.703.003 17.703 1.454 2.25c.8 1.237 1.936 3 2.526 3.916.589.917 1.536 2.379 2.105 3.25 1.436 2.198 9.697 15.074 10.293 16.042l.487.792h12.986c7.142 0 12.986-.062 12.986-.137 0-.076-.386-.694-.857-1.375-1.673-2.416-2.621-3.779-4.978-7.155-1.311-1.879-3.211-4.617-4.221-6.083-3.367-4.888-15.858-22.958-18.012-26.055-1.168-1.681-2.085-3.158-2.037-3.284.049-.126 2.139-3.213 4.646-6.862 2.506-3.648 6.504-9.466 8.883-12.929 2.379-3.463 4.888-7.106 5.576-8.096 3.389-4.88 6.69-9.726 6.774-9.946.13-.338-26.297-.375-26.566-.037"/><path fill="#3db7eb" d="M70.942 83.756c.036.094-2.031 3.207-4.593 6.916-10.865 15.727-18.024 26.064-20.429 29.495-4.029 5.747-5.087 7.286-5.087 7.4 0 .055 5.832.097 12.959.094l12.958-.006 4.167-6.494c2.291-3.571 4.579-7.129 5.083-7.906.504-.776 2.435-3.77 4.292-6.651l3.375-5.24v-17.69l-6.396-.045c-4.351-.031-6.374.009-6.329.127"/><path fill="#4c4c4c" d="M144.268 41.125c-.095.314-1.199 6.091-4.599 24.042-1.189 6.279-4.34 22.854-7.003 36.833-2.663 13.979-4.84 25.473-4.837 25.542.002.068 2.137.125 4.743.125h4.738l.175-.875c.097-.482.66-3.425 1.252-6.542s1.309-6.867 1.592-8.333c.284-1.467 2.051-10.767 3.927-20.667 1.876-9.9 3.454-18.185 3.507-18.412.078-.337.255-.053.983 1.584.489 1.097 3.356 7.507 6.372 14.245 3.016 6.737 8.513 19.018 12.216 27.291 3.702 8.273 6.816 15.042 6.919 15.042.103 0 1.812-3.619 3.797-8.042s4.428-9.841 5.428-12.041c1.714-3.773 4.301-9.528 10.188-22.667 1.396-3.117 3.393-7.569 4.436-9.894 1.044-2.325 1.901-4.312 1.906-4.416.008-.213.806-1.753.818-1.58.004.061.757 4.054 1.674 8.873.917 4.82 1.667 8.947 1.667 9.171 0 .301 6.317 33.845 6.931 36.804l.095.459h4.82c3.185 0 4.82-.058 4.82-.171 0-.094-1.091-5.851-2.424-12.792-8.458-44.027-13.78-71.755-13.938-72.621-.1-.55-.232-1.055-.292-1.123-.061-.069-1.903 4.019-4.095 9.083-2.191 5.064-4.261 9.807-4.598 10.54-.707 1.535-2.857 6.471-12.991 29.834-4.016 9.258-7.514 17.297-7.774 17.864l-.473 1.031-5.987-13.864c-3.293-7.626-8.04-18.59-10.549-24.365-2.509-5.775-6.487-14.943-8.84-20.375-4.204-9.704-4.428-10.169-4.604-9.583m114.859 3.285c-14.147 1.79-26.735 10.535-33.056 22.961-14.466 28.437 6.096 61.661 38.179 61.689 27.065.023 47.266-24.336 41.998-50.643-4.337-21.659-25.279-36.773-47.121-34.007m71.623.021c-12.231 1.888-20.108 11.636-18.76 23.218 1.008 8.67 5.752 13.317 20.01 19.603 9.895 4.363 13.341 6.585 15.568 10.037 4.523 7.011 1.278 17.255-6.688 21.113-10.397 5.037-21.386-.49-23.786-11.962-.131-.627-.272-1.173-.313-1.214-.085-.085-8.932 2.369-9.081 2.519-.329.329.994 4.528 2.208 7.005 10.915 22.282 44.513 17.641 48.864-6.75.819-4.588.119-10.221-1.729-13.917-2.913-5.824-7.403-9.13-19.793-14.575-12.924-5.679-16.219-8.761-15.868-14.841.397-6.857 5.893-11.589 13.451-11.581 5.804.007 9.369 1.972 12.703 7.001 1.281 1.932.846 1.972 4.567-.429 1.712-1.104 3.326-2.119 3.588-2.254.659-.341.626-.46-.676-2.42-5.428-8.175-14.399-12.077-24.265-10.553m-62.193 8.819c22.62 2.965 35.652 27.552 25.532 48.167-6.557 13.356-20.929 20.897-35.133 18.433-22.232-3.857-34.483-27.783-24.63-48.1 6.271-12.93 20.023-20.362 34.231-18.5"/><path fill="#6cc4f4" d="M45 45.673c0 .161.624 1.137.848 1.327.097.082 1.577 2.266 1.902 2.806.092.153.208.315.26.361.104.093 4.364 6.263 9.494 13.75.565.825 1.954 2.85 3.086 4.5 1.133 1.65 2.573 3.75 3.201 4.666.628.917 2.517 3.673 4.199 6.125l3.057 4.459h12.62v-17.34l-.692-1.122c-.849-1.377-3.641-6.08-8.209-13.83L71.303 45.5H58.151c-8.997 0-13.151.055-13.151.173"/><path fill="#54bc84" d="M83.747 83.917c0 9.533.02 13.409.045 8.612.024-4.797.024-12.597 0-17.333-.025-4.737-.045-.813-.045 8.721"/></g></svg>