<svg xmlns="http://www.w3.org/2000/svg" role="img" viewBox="69.98 242.48 703.04 234.54"><title>XtratuM Next Generation logo</title><clipPath id="a"><path d="M0 0h960v720H0V0z"/></clipPath><g clip-path="url(#a)"><path fill="none" d="M0 0h960v720H0z"/><path fill="none" d="M328 662.3333h304v48.33337H328zM94.50005 207.83337h453.539v278.1666h-453.539z"/><path fill="#262626" d="M193.42192 280.36023q0 .65625-.17188 2.10938-.15625 1.45312-.4375 3.29687-.26562 1.84375-.70312 3.79688-.42188 1.9375-1.01563 3.60937-.59375 1.67188-1.35937 2.70313-.75 1.01562-1.60938 1.01562-.65625 0-1.6875-.3125-1.01562-.32813-2.3125-.70313-1.29687-.375-2.98437-.70312-1.67188-.32813-3.60938-.32813-3.46875 0-6.01562.98438-2.53125.96875-4.375 3.07813-1.82813 2.09375-3.125 5.45312-1.29688 3.34375-2.15625 8l-1.625 8.20313h17.51563q1.60937 0 2.25 1.03125.65625 1.03125.65625 3.29687 0 1.07813-.15625 2.8125-.15625 1.71875-.59375 3.71875t-1.09375 3.95313q-.64063 1.9375-1.40625 3.5625-.75 1.625-1.78125 2.65625-1.01563 1.01562-2.20313 1.01562h-17.71875l-16.96875 84.73438q-1.84375 8.96875-5.03125 15.76562-3.1875 6.8125-8.04687 11.40625t-11.51562 6.92188q-6.64063 2.32812-15.07813 2.32812-5.60937 0-9.39062-.875-3.78125-.85938-4.875-1.71875-.53125-.65625-.75-1.42188-.21875-.75-.21875-2.15625 0-.64062.17187-2.15625.15625-1.51562.48438-3.29687.3125-1.78125.8125-3.73438.48437-1.9375 1.07812-3.5625t1.35938-2.65625q.75-1.01562 1.71875-1.01562.64062 0 1.29687.10938.64063.10937 1.40625.26562.75.17188 1.78125.26563 1.03125.10937 2.64063.10937 3.46875 0 6.01562-1.03125 2.53125-1.01563 4.35938-3.1875 1.84375-2.15625 3.14062-5.5625 1.29688-3.39063 2.26563-8.26563l16.32811-81.26562h-12.10936q-1.29688 0-2-.90625-.70313-.92188-.70313-3.51563 0-1.09375.15625-2.8125.17188-1.73437.54688-3.67187.375-1.95313.90625-3.95313.54687-2 1.40625-3.5625.875-1.5625 1.89062-2.59375 1.03125-1.03125 2.4375-1.03125h11.89062l2.0625-10.70312q1.71875-9.07813 5.0625-15.98438 3.35938-6.92187 8.26563-11.5625 4.92187-4.65625 11.5625-6.96875 6.65625-2.32812 15.09375-2.32812 2.79687 0 5.60937.26563 2.8125.26562 5.07813.76562 2.28125.48438 4 1.14063 1.73437.64062 2.375 1.28125.65625.54687.92187 1.51562.28125.96875.28125 2.375zm84.82649 65.0625q0 7.78125-3.51562 14-3.5 6.20313-10.90625 10.6875-7.40625 4.48438-18.81252 6.875-11.39062 2.375-27.17187 2.375h-9.95313q-.42187 2.48438-.64062 4.92188-.21875 2.42187-.21875 4.46875 0 8.76562 4.53125 13.20312 4.54687 4.42188 14.59375 4.42188 7.14062 0 12.8125-1.03125 5.67187-1.03125 9.9375-2.26563 4.26562-1.25 7.07812-2.26563 2.81252-1.03125 4.10939-1.03125 1.29688 0 1.82813.76563.54687.75.54687 2.375 0 1.82813-.32812 4.20313-.3125 2.375-.90625 4.70312-.59375 2.32813-1.51563 4.39063-.92187 2.04687-2.10937 3.125-1.29688 1.29687-4.76564 2.59375-3.45313 1.29687-8.3125 2.375-4.85938 1.07812-10.92188 1.78125-6.04687.70312-12.3125.70312-10.375 0-18.10937-2.17188-7.71875-2.15625-12.90625-6.57812-5.1875-4.4375-7.78125-11.29688-2.59375-6.85937-2.59375-16.26562 0-7.23438 1.34375-15.5 1.35937-8.26563 4.375-16.3125 3.03125-8.0625 7.78125-15.40625 4.76562-7.35938 11.51562-12.92188 6.76563-5.5625 15.625-8.90625 8.85938-3.35937 20.20313-3.35937 9.82812 0 16.90626 2.32813 7.09375 2.3125 11.625 6.15625 4.54688 3.84375 6.75 8.76562 2.21875 4.90625 2.21875 10.09375zm-26.68751 2.04688q0-4.3125-3.40625-7.17188-3.40625-2.875-9.89063-2.875-5.40625 0-9.67187 1.95313-4.26563 1.9375-7.51563 5.23437-3.23437 3.29688-5.5625 7.78125-2.32812 4.48438-3.73437 9.5625h9.07812q8.65625 0 14.48438-1.125 5.84375-1.14063 9.40625-3.07813 3.5625-1.95312 5.1875-4.59375 1.625-2.65625 1.625-5.6875zm138.65633-1.71875q0 3.78125-.5 7.5625-.48438 3.78125-1.23438 7.78125l-12 59.54687q-.21875 1.07813-1.03125 1.89063-.79687.8125-2.48437 1.35937-1.67188.53125-4.32813.79688-2.64062.26562-6.64062.26562t-6.54688-.26563q-2.53125-.26562-3.9375-.79687-1.39066-.54688-1.89066-1.35938-.48437-.8125-.26562-1.89062l11.6719-57.8125q.54688-2.59375.8125-5.29688.26563-2.70312.26563-4.76562 0-4.85938-2.0625-7.98438-2.04687-3.14062-6.90625-3.14062-4.4219 0-9.2344 2.8125-4.8125 2.8125-9.07813 7.625-4.26563 4.79688-7.625 11.23438-3.34375 6.42187-4.75 13.67187l-8.75 43.65625q-.21875 1.07813-1.03125 1.89063t-2.48438 1.35937q-1.67187.53125-4.375.79688-2.70312.26562-6.59375.26562-4 0-6.54687-.26563-2.53125-.26562-4-.79687-1.45313-.54688-1.89063-1.35938-.42187-.8125-.20312-1.89062l19.34375-96.51563q.21875-1.07812.90625-1.89062.70312-.8125 2.15625-1.29688 1.46875-.48437 3.79687-.75 2.32813-.26562 5.5625-.26562 3.35938 0 5.45313.26563 2.10937.26562 3.29687.75 1.1875.48437 1.5625 1.29687.39063.8125.17188 1.89063l-3.14063 15.89062q2.28125-3.78125 6.0625-7.71875 3.78125-3.95313 8.6875-7.07813 4.92188-3.14062 10.70316-5.14062 5.78125-2 12.04688-2 7.57812 0 12.70312 2.21875 5.14063 2.21875 8.32813 6t4.59375 8.8125q1.40625 5.01563 1.40625 10.64063zm88.82538-20.53125q0 1.07812-.21875 2.75-.21875 1.67187-.59375 3.625-.375 1.9375-1.03125 3.89062-.64063 1.9375-1.45313 3.51563-.8125 1.5625-1.84375 2.59375-1.01562 1.01562-2.20312 1.01562h-21.07813l-9.07812 45.28125q-.32813 1.625-.59375 3.84375-.26563 2.20313-.26563 3.60938 0 4.32812 2.04688 6.32812 2.0625 2 6.48437 2 2.59375 0 4.42188-.375 1.84375-.375 3.1875-.85938 1.35937-.5 2.32812-.875.98438-.375 1.84375-.375.85938 0 1.45313.8125t.59375 2.64063q0 2.0625-.4375 4.65625-.42188 2.59375-1.125 5.03125-.70313 2.42188-1.5625 4.42188-.85938 2-1.84375 2.96875-.96875.96875-2.92188 1.84375-1.9375.85937-4.59375 1.5-2.64062.65625-5.67187 1.03125-3.01563.375-6.04688.375-6.48437 0-11.40625-1.35938-4.90625-1.34375-8.26562-4.25-3.34375-2.92188-5.01563-7.45313-1.67187-4.54687-1.67187-11.03125 0-1.1875.09375-2.75.10937-1.57812.375-3.29687.28125-1.73438.54687-3.51563.28125-1.78125.59375-3.1875l9.40625-47.01562h-11.67187q-1.40625 0-2.0625-.90625-.64063-.92188-.64063-3.51563 0-1.84375.375-4.8125.39063-2.96875 1.25-5.82812.85938-2.875 2.26563-4.92188 1.40625-2.0625 3.35937-2.0625h11.5625l4.3125-21.5q.21875-1.07812 1.03125-1.9375.8125-.875 2.48438-1.46875 1.67187-.59375 4.3125-.85937 2.65625-.28125 6.65625-.28125 3.89062 0 6.48437.28125 2.59375.26563 4 .85938t1.89063 1.46875q.48437.85937.26562 1.9375l-4.3125 21.5h20.85938q1.82812 0 2.46875 1.1875.65625 1.1875.65625 3.46875z"/><path fill="#f60" fill-rule="evenodd" d="M483.66666 289.3812c0-18.41315 14.92685-33.34 33.34-33.34h209.65332c8.84234 0 17.3225 3.5126 23.57495 9.76508C756.48743 272.05875 760 280.53888 760 289.3812v133.35602c0 18.41318-14.92682 33.34-33.34002 33.34H517.00666c-18.41315 0-33.34-14.92682-33.34-33.34z"/><path fill="#f60" fill-rule="evenodd" d="M144 444.07504c0-6.6286 5.37355-12.00217 12.00217-12.00217h515.66235c3.18316 0 6.23596 1.26453 8.48681 3.51538 2.25086 2.25083 3.51532 5.30362 3.51532 8.48679 0 6.62863-5.37353 12.00217-12.00213 12.00217H156.00217c-6.62862 0-12.00217-5.37354-12.00217-12.00217z"/><path fill="#f60" fill-rule="evenodd" d="M500.15656 416.80554c-.41156 16.34302-13.07571 29.74796-29.36902 31.08691l-1.34018-16.30856c7.96155-.65423 14.14978-7.20444 14.3509-15.1903z"/><path fill="none" d="M144 425.62164h257.33334v31.9058H144z"/><path fill="#fff" d="M159.78125 440.6218q0 .23438-.03125.39063-.01563.15625-.0625.25-.03125.09375-.09375.14062-.04688.04688-.125.04688h-3.29688v2.71875h3.09375q.07813 0 .125.04687.0625.03125.09375.125.04688.09375.0625.25.03125.15625.03125.39063 0 .23437-.03125.39062-.01562.15625-.0625.26563-.03125.09375-.09375.14062-.04687.04688-.125.04688h-3.09375v3.76562q0 .07813-.04687.14063-.04688.0625-.17188.10937-.125.04688-.32812.0625-.1875.03125-.48438.03125-.29687 0-.5-.03125-.20312-.01563-.32812-.0625-.10938-.04688-.15625-.10938-.04688-.0625-.04688-.14062v-9.17188q0-.34375.17188-.48437.17188-.15625.4375-.15625h4.75q.07813 0 .125.04688.0625.03125.09375.14062.04688.09375.0625.26563.03125.15625.03125.39062zm7.65625 8.45313q0 .23437-.01563.39062-.01562.14063-.0625.23438-.03125.09375-.09375.14062-.0625.04688-.125.04688h-5.07812q-.26563 0-.4375-.15625-.17188-.15625-.17188-.5v-8.8125q0-.34375.17188-.48438.17188-.15625.4375-.15625h5.04688q.0625 0 .10937.04688.0625.03125.09375.125.04688.09375.0625.25.03125.15625.03125.39062 0 .21875-.03125.375-.01563.14063-.0625.23438-.03125.09375-.09375.14062-.04688.04688-.10938.04688H163.5v2.46875h3.04688q.07812 0 .125.04687.0625.03125.09375.125.04687.09375.0625.25.03125.14063.03125.35938 0 .23437-.03125.39062-.01563.14063-.0625.23438-.03125.07812-.09375.125-.04688.03125-.125.03125H163.5v2.85937h3.64063q.0625 0 .125.04688.0625.03125.09375.125.04687.09375.0625.25.01562.15625.01562.375zm10.14844.09375q0 .17187-.0625.3125-.0625.14062-.17188.23437-.09375.09375-.25.14063-.14062.04687-.28125.04687h-.875q-.28125 0-.48437-.04688-.1875-.0625-.35938-.20312-.17187-.15625-.32812-.39063-.15625-.25-.34375-.64062l-2.51563-4.73438q-.21875-.42187-.45312-.90625-.21875-.48437-.40625-.95312h-.01563q.03125.5625.04688 1.125.01562.5625.01562 1.15625v5.28125q0 .07813-.04687.14063-.03125.0625-.14063.10937-.10937.04688-.29687.0625-.17188.03125-.45313.03125-.26562 0-.45312-.03125-.17188-.01563-.28125-.0625-.09375-.04688-.14063-.10938-.03125-.0625-.03125-.14062v-9.07813q0-.375.20313-.54687.21875-.1875.53125-.1875h1.10937q.29688 0 .5.04688.20313.04687.35938.17187.15625.10938.29687.32813.14063.20312.29688.5l1.96875 3.70312q.17187.32813.32812.65625.17188.32813.32813.65625.15625.3125.29687.625.15625.3125.29688.625h.01562q-.03125-.54688-.04687-1.14063v-5.875q0-.07812.04687-.14062.04688-.0625.15625-.10938.10938-.04687.28125-.0625.1875-.01562.46875-.01562.26563 0 .4375.01563.1875.01562.28125.0625.09375.04687.125.10937.04688.0625.04688.14063v9.09375zm8.92969-8.54688q0 .21875-.01563.39063-.01563.15625-.0625.25-.03125.09375-.09375.14062-.0625.04688-.125.04688h-2.53125v8.15625q0 .07812-.0625.14062-.04688.0625-.17188.10938-.10937.03125-.3125.04687-.1875.03125-.48437.03125-.29688 0-.5-.03125-.20313-.01563-.32813-.04688-.10937-.04687-.15625-.10937-.04687-.0625-.04687-.14063v-8.15625h-2.53125q-.07813 0-.14063-.04687-.04687-.04688-.09375-.14063-.03125-.09375-.0625-.25-.01562-.17187-.01562-.39062 0-.23438.01563-.39063.03125-.17187.0625-.26562.04687-.10938.09375-.14063.0625-.04687.14062-.04687h7.125q.0625 0 .125.04688.0625.03125.09375.14062.04688.09375.0625.26563.01563.15625.01563.39062zm6.8828 8.98438q0 .07812-.0625.14062-.04687.0625-.17187.10938-.10937.03125-.3125.04687-.1875.03125-.48437.03125-.29688 0-.5-.03125-.20313-.01563-.32813-.04688-.10937-.04687-.15625-.10937-.04687-.0625-.04687-.14063v-9.54687q0-.07813.04687-.14063.04688-.0625.17188-.09375.125-.04687.3125-.0625.20312-.03125.5-.03125.29687 0 .48437.03125.20313.01563.3125.0625.125.03125.17188.09375.0625.0625.0625.14063v9.54688zm8.73438.01562q0 .07813-.04687.14063-.04688.04687-.15625.09375-.10938.04687-.29688.0625-.1875.01562-.46875.01562-.29687 0-.48437-.01563-.1875-.01562-.29688-.0625-.10937-.04687-.15625-.09375-.04687-.0625-.04687-.14062v-3.98438q0-.5-.07813-.78125-.07812-.29687-.21875-.5-.14062-.21875-.35937-.32812-.21875-.10938-.51563-.10938-.375 0-.76562.28125-.375.26563-.79688.78125v4.64063q0 .07813-.04687.14063-.04688.04687-.15625.09375-.10938.04687-.29688.0625-.1875.01562-.48437.01562-.28125 0-.46875-.01563-.1875-.01562-.3125-.0625-.10938-.04687-.15625-.09375-.04688-.0625-.04688-.14062v-6.96875q0-.07813.03125-.14063.04688-.0625.14063-.09375.10937-.04687.26562-.0625.17188-.01562.40625-.01562.25 0 .40625.01563.17188.01562.26563.0625.09375.03125.125.09375.04687.0625.04687.14062v.79688q.57813-.625 1.17188-.9375t1.25-.3125q.70312 0 1.1875.23437.5.23438.79687.64063.29688.40625.42188.95312.14062.53125.14062 1.28125v4.3125zm8.58594 0q0 .07813-.04688.14063-.04687.04687-.15625.09375-.10937.04687-.29687.0625-.1875.01562-.46875.01562-.29688 0-.48438-.01563-.1875-.01562-.29687-.0625-.10938-.04687-.15625-.09375-.04688-.0625-.04688-.14062v-3.98438q0-.5-.07812-.78125-.07813-.29687-.21875-.5-.14063-.21875-.35938-.32812-.21875-.10938-.51562-.10938-.375 0-.76563.28125-.375.26563-.79687.78125v4.64063q0 .07813-.04688.14063-.04687.04687-.15625.09375-.10937.04687-.29687.0625-.1875.01562-.48438.01562-.28125 0-.46875-.01563-.1875-.01562-.3125-.0625-.10937-.04687-.15625-.09375-.04687-.0625-.04687-.14062v-6.96875q0-.07813.03125-.14063.04688-.0625.14063-.09375.10937-.04687.26562-.0625.17188-.01562.40625-.01562.25 0 .40625.01563.17188.01562.26563.0625.09375.03125.125.09375.04687.0625.04687.14062v.79688q.57813-.625 1.17188-.9375t1.25-.3125q.70312 0 1.1875.23437.5.23438.79687.64063.29688.40625.42188.95312.14062.53125.14062 1.28125v4.3125zm8.97656-3.5625q0 .89063-.23437 1.625-.23438.73438-.71875 1.26563-.46875.53125-1.1875.82812-.71875.29688-1.67188.29688-.9375 0-1.625-.26563t-1.14062-.75q-.45313-.5-.67188-1.21875-.21875-.71875-.21875-1.64063 0-.89062.23438-1.625.25-.73437.71875-1.26562.48437-.53125 1.1875-.8125.71875-.29688 1.6875-.29688.9375 0 1.625.26563.6875.25 1.125.75.45312.48438.67187 1.20313.21875.71875.21875 1.64062zm-2.01562.07813q0-.51563-.09375-.9375-.07813-.4375-.28125-.75-.1875-.32813-.51563-.5-.3125-.1875-.8125-.1875-.4375 0-.76562.15625-.32813.15625-.54688.46875-.20312.3125-.3125.75-.09375.42187-.09375.98437 0 .51563.07813.95313.09375.42187.28125.75.1875.3125.51562.5.32813.17187.8125.17187.45313 0 .78125-.15625.32813-.17188.53125-.46875.21875-.3125.3125-.73438.10938-.4375.10938-1zm9.99219-3.5q0 .04687-.01563.10937 0 .04688-.01563.10938 0 .0625-.03125.15625-.01562.07812-.04687.1875l-2.09375 6.3125q-.03125.125-.10938.21875-.0625.07812-.21875.125-.14062.04687-.40625.0625-.26562.01562-.6875.01562-.40625 0-.67187-.01563-.26563-.01562-.42188-.0625-.14062-.0625-.20312-.14062-.0625-.07813-.10938-.20313l-2.09375-6.3125q-.04687-.15625-.07812-.28125-.01563-.125-.03125-.17187v-.10938q0-.07812.04688-.125.04687-.0625.15625-.09375.10937-.04687.29687-.0625.1875-.01562.48438-.01562.3125 0 .5.01563.20312.01562.3125.0625.125.03125.17187.09375.04688.0625.07813.15625l1.57812 5.125.04688.1875.04687-.1875 1.5625-5.125q.03125-.09375.07813-.15625.04687-.0625.15625-.09375.10937-.04688.29687-.0625.1875-.01563.48438-.01563.28125 0 .46875.01563.1875.01562.28125.0625.10937.03125.14062.09375.04688.04687.04688.125zm7.08593 7q0 .10937-.07812.17187-.07813.0625-.25.09375-.15625.03125-.48438.03125-.35937 0-.51562-.03125-.15625-.03125-.23438-.09375-.0625-.0625-.0625-.17188v-.54687q-.42187.45313-.98437.71875-.54688.26563-1.21875.26563-.54688 0-1.01563-.15625-.46875-.14063-.8125-.42188-.32812-.29688-.51562-.71875-.1875-.42188-.1875-.98438 0-.60937.23437-1.04687.23438-.45313.70313-.75.48437-.29688 1.1875-.4375.70312-.14063 1.625-.14063h.6875v-.42187q0-.32813-.07813-.5625-.0625-.25-.21875-.40625-.14062-.17188-.40625-.25-.25-.07813-.625-.07813-.48437 0-.875.10938-.39062.10938-.6875.25-.29687.125-.5.23438-.1875.10937-.3125.10937-.09375 0-.15625-.04688-.0625-.0625-.10937-.15625-.04688-.10937-.07813-.25-.01562-.15625-.01562-.34375 0-.23437.03125-.375.04687-.14062.15625-.25.10937-.125.375-.25.28125-.14062.64062-.25.375-.125.8125-.20312.4375-.07813.89063-.07813.82812 0 1.40625.17188.57812.15625.95312.48438.375.32812.54688.85937.17187.51563.17187 1.23438v4.6875zm-1.92187-2.98438h-.75q-.48438 0-.82813.07813-.32812.0625-.54687.20312-.20313.14063-.29688.34375-.09375.20313-.09375.45313 0 .4375.26563.6875.28125.25.78125.25.40625 0 .75-.20313.35937-.21875.71875-.625v-1.1875zm8.00781 2.28125q0 .34375-.04688.53125-.03125.17188-.10937.25-.0625.07813-.20313.14063-.14062.0625-.32812.09375-.17188.04687-.39063.0625-.21875.03125-.4375.03125-.57812 0-1.01562-.15625-.42188-.14063-.70313-.45313-.28125-.3125-.42187-.78125-.125-.46875-.125-1.10938v-3.5625h-.84375q-.14063 0-.21875-.1875-.07813-.1875-.07813-.60937 0-.23438.01563-.39063.01563-.15625.04688-.23437.04687-.09375.10937-.125.0625-.04688.14063-.04688h.82812v-1.5625q0-.07812.03125-.14062.04688-.0625.15625-.09375.125-.04688.3125-.0625.1875-.03125.46875-.03125.29688 0 .48438.03125.1875.01563.29687.0625.10938.03125.15625.09375.04688.0625.04688.14063v1.5625h1.51562q.07813 0 .14063.04687.0625.03125.09375.125.04687.07813.0625.23438.01562.15625.01562.39062 0 .42188-.07813.60938-.07812.1875-.21875.1875h-1.53125v3.26562q0 .57813.17188.85938.1875.28125.65625.28125.15625 0 .28125-.01563.125-.03125.21875-.0625.09375-.04688.15625-.0625.07813-.03125.125-.03125.04688 0 .09375.03125.04688.01563.0625.10938.03125.07812.04688.21875.01562.14062.01562.35937zm3.39063.6875q0 .07813-.04688.14063-.04688.04687-.15625.09375-.10938.04687-.29688.0625-.1875.01562-.48437.01562-.28125 0-.46875-.01563-.1875-.01562-.3125-.0625-.10938-.04687-.15625-.09375-.04688-.0625-.04688-.14062v-6.95313q0-.07812.04688-.14062t.15625-.09375q.125-.04688.3125-.0625.1875-.03125.46875-.03125.29688 0 .48438.03125.1875.01563.29687.0625.10938.03125.15625.09375.04688.0625.04688.14063v6.95312zm.15625-9.32813q0 .59375-.25.82813-.23438.21875-.89063.21875-.67188 0-.90625-.21875-.21875-.21875-.21875-.79688 0-.59375.23438-.8125.23437-.23437.90625-.23437.65625 0 .89062.21875.23438.21875.23438.79688zm8.22656 2.34375q0 .04688-.01563.10938 0 .04688-.01562.10938 0 .0625-.03125.15625-.01563.07812-.04688.1875l-2.09375 6.3125q-.03125.125-.10937.21875-.0625.07812-.21875.125-.14063.04687-.40625.0625-.26563.01562-.6875.01562-.40625 0-.67188-.01563-.26562-.01562-.42187-.0625-.14063-.0625-.20313-.14062-.0625-.07813-.10937-.20313l-2.09375-6.3125q-.04688-.15625-.07813-.28125-.01562-.125-.03125-.17187v-.10938q0-.07812.04688-.125.04687-.0625.15625-.09375.10937-.04687.29687-.0625.1875-.01562.48438-.01562.3125 0 .5.01563.20312.01562.3125.0625.125.03125.17187.09375.04688.0625.07813.15625l1.57812 5.125.04688.1875.04687-.1875 1.5625-5.125q.03125-.09375.07813-.15625.04687-.0625.15625-.09375.10937-.04688.29687-.0625.1875-.01563.48438-.01563.28125 0 .46875.01563.1875.01562.28125.0625.10937.03125.14062.09375.04688.04687.04688.125zm7.58594 3.29688q0 .35938-.15625.53125-.15625.17188-.4375.17188h-4.25q0 .4375.10937.8125.10938.35937.32813.60937.23437.25.59375.39063.375.125.875.125.51562 0 .90625-.0625.39062-.07813.67187-.17188.29688-.09375.48438-.15625.1875-.07813.29687-.07813.07813 0 .125.03125.04688.01563.07813.09375.03125.0625.03125.20313.01562.125.01562.3125 0 .17188-.01563.29688 0 .125-.01562.21875-.01563.07812-.04688.14062-.03125.04688-.07812.10938-.04688.04687-.28125.14062-.21875.09375-.57813.1875-.34375.09375-.79687.15625-.45313.07813-.96875.07813-.9375 0-1.64063-.23438-.6875-.25-1.15625-.71875-.46875-.48438-.70312-1.20313-.23438-.73437-.23438-1.70312 0-.9375.23438-1.67188.25-.75.70313-1.26562.46875-.53125 1.125-.79688.67187-.28125 1.5-.28125.875 0 1.48437.26563.625.25 1.01563.71875.40625.45313.59375 1.07813t.1875 1.35937v.3125zm-1.90625-.5625q.03125-.82813-.32813-1.29688-.35938-.48437-1.09375-.48437-.375 0-.65625.14063-.28125.14062-.46875.39062-.17188.23438-.28125.5625-.09375.3125-.10938.6875h2.9375zm13.25 1.48438q0 .79687-.29688 1.40625-.29688.59375-.8125 1-.5.39062-1.1875.60937-.67188.20313-1.4375.20313-.53125 0-.98438-.09375-.4375-.07813-.78125-.20313t-.57812-.25q-.23438-.14063-.34375-.23438-.09375-.10937-.14063-.29687-.03125-.20313-.03125-.5625 0-.23438.01563-.39063.01563-.17187.04688-.26562.03125-.10938.09375-.15625.0625-.04688.14062-.04688.10938 0 .29688.14063.20312.125.51562.28125t.75.28125q.4375.125 1 .125.375 0 .67188-.07813.29687-.09375.5-.25.21875-.17187.32812-.40625.10938-.25.10938-.54687 0-.34375-.1875-.59375t-.5-.4375q-.29688-.1875-.6875-.35938-.375-.17187-.78125-.35937-.40625-.1875-.79688-.42188-.375-.23437-.67188-.5625-.29687-.34375-.48437-.79687-.1875-.45313-.1875-1.07813 0-.73437.26563-1.28125.26562-.54687.71875-.90625.46875-.375 1.07812-.54687.625-.1875 1.32813-.1875.35937 0 .71875.0625.35937.04688.67187.14063.3125.09375.54688.21875.25.10937.32812.1875.07813.07812.09375.14062.03125.04688.04688.14063.03125.09375.03125.23437.01562.125.01562.32813 0 .23437-.01563.39062-.01562.15625-.04687.26563-.01563.09375-.07813.14062-.04687.04688-.125.04688-.09375 0-.28125-.10938t-.46875-.23438q-.26562-.14062-.625-.23437-.35937-.10938-.78125-.10938-.34375 0-.59375.07813t-.42187.23438q-.15625.14062-.25.34375-.07813.20312-.07813.42187 0 .34375.1875.59375.1875.23438.48438.4375.3125.1875.70313.35938.39062.15625.79687.34375.40625.1875.79688.4375.39062.23437.6875.5625.3125.32812.5.78125.1875.45312.1875 1.0625zm8.5-.79688q0 .89063-.23438 1.625-.23438.73438-.71875 1.26563-.46875.53125-1.1875.82812-.71875.29688-1.67188.29688-.9375 0-1.625-.26563t-1.14062-.75q-.45313-.5-.67188-1.21875-.21875-.71875-.21875-1.64063 0-.89062.23438-1.625.25-.73437.71875-1.26562.48438-.53125 1.1875-.8125.71875-.29688 1.6875-.29688.9375 0 1.625.26563.6875.25 1.125.75.45313.48438.67188 1.20313.21875.71875.21875 1.64062zm-2.01563.07813q0-.51563-.09375-.9375-.07813-.4375-.28125-.75-.1875-.32813-.51563-.5-.3125-.1875-.8125-.1875-.4375 0-.76562.15625-.32813.15625-.54688.46875-.20312.3125-.3125.75-.09375.42187-.09375.98437 0 .51563.07813.95313.09375.42187.28125.75.1875.3125.51563.5.32812.17187.8125.17187.45312 0 .78125-.15625.32812-.17188.53125-.46875.21875-.3125.3125-.73438.10937-.4375.10937-1zm7.77344-6.14063q0 .21875-.01563.35938-.01562.14062-.04687.21875-.03125.0625-.07813.09375-.03125.03125-.07812.03125-.04688 0-.125-.03125-.0625-.03125-.15625-.0625t-.23438-.04688q-.125-.03125-.3125-.03125-.20312 0-.35937.0625-.15625.0625-.26563.21875-.09375.14063-.14062.375-.04688.21875-.04688.5625v.64063h1.28125q.0625 0 .125.04687.0625.03125.09375.125.04688.07813.0625.23438.01563.15625.01563.39062 0 .42188-.07813.60938-.07812.1875-.21875.1875h-1.28125v5.64062q0 .07813-.04687.14063-.04688.04687-.15625.09375-.10938.04687-.3125.0625-.1875.01562-.46875.01562t-.46875-.01563q-.1875-.01562-.3125-.0625-.10938-.04687-.15625-.09375-.03125-.0625-.03125-.14062v-5.64063h-.875q-.15625 0-.23438-.1875-.0625-.1875-.0625-.60937 0-.23438.01563-.39063.01562-.15625.04687-.23437.04688-.09375.09375-.125.0625-.04688.14063-.04688h.875v-.59375q0-.70312.14062-1.23437.14063-.54688.4375-.89063.29688-.35937.76563-.53125.46875-.1875 1.09375-.1875.3125 0 .57812.04688.28125.04688.4375.10938t.20313.10937q.0625.04688.09375.15625.03125.09375.04687.25.01563.14063.01563.375zm4.98437 8.9375q0 .34375-.04687.53125-.03125.17188-.10938.25-.0625.07813-.20312.14063-.14063.0625-.32813.09375-.17187.04687-.39062.0625-.21875.03125-.4375.03125-.57813 0-1.01563-.15625-.42187-.14063-.70312-.45313-.28125-.3125-.42188-.78125-.125-.46875-.125-1.10938v-3.5625h-.84375q-.14062 0-.21875-.1875-.07812-.1875-.07812-.60937 0-.23438.01562-.39063.01563-.15625.04688-.23437.04687-.09375.10937-.125.0625-.04688.14063-.04688h.82812v-1.5625q0-.07812.03125-.14062.04688-.0625.15625-.09375.125-.04688.3125-.0625.1875-.03125.46875-.03125.29688 0 .48438.03125.1875.01563.29687.0625.10938.03125.15625.09375.04688.0625.04688.14063v1.5625h1.51562q.07813 0 .14063.04687.0625.03125.09375.125.04687.07813.0625.23438.01562.15625.01562.39062 0 .42188-.07812.60938-.07813.1875-.21875.1875h-1.53125v3.26562q0 .57813.17187.85938.1875.28125.65625.28125.15625 0 .28125-.01563.125-.03125.21875-.0625.09375-.04688.15625-.0625.07813-.03125.125-.03125.04688 0 .09375.03125.04688.01563.0625.10938.03125.07812.04688.21875.01562.14062.01562.35937zm12.09375-6.29688q0 .07813-.03125.20313-.01562.125-.07812.35938l-1.85938 6.3125q-.04687.125-.10937.21875-.0625.07812-.1875.125-.125.04687-.375.0625-.23438.01562-.60938.01562-.39062 0-.64062-.01563-.23438-.01562-.375-.0625-.125-.0625-.1875-.14062-.0625-.07813-.09375-.20313l-1.17188-4.23437-.01562-.07813-.01563.07813-1.07812 4.23438q-.03125.125-.09375.21875-.0625.07812-.20313.125-.14062.04687-.39062.0625-.23438.01562-.60938.01562-.39062 0-.64062-.01563-.23438-.01562-.375-.0625-.125-.0625-.1875-.14062-.0625-.07813-.09375-.20313l-1.84375-6.3125q-.07813-.21875-.09375-.34375-.01563-.14062-.01563-.21875 0-.07812.03125-.14062.04688-.0625.15625-.09375.125-.03125.3125-.04688.1875-.01562.48438-.01562.3125 0 .5.01563.20312.01562.3125.0625.10937.03125.14062.09375.04688.0625.07813.15625l1.375 5.125.01562.09375.01563-.09375 1.29687-5.125q.03125-.09375.07813-.15625.04687-.0625.14062-.09375.10938-.04688.29688-.0625.1875-.01563.46875-.01563.29687 0 .46875.01563.1875.01562.28125.0625.10937.03125.15625.09375.04687.04687.0625.125l1.39062 5.15625.03125.09375.01563-.09375 1.32812-5.125q.01563-.09375.0625-.15625.04688-.0625.15625-.09375.10938-.04688.29688-.0625.1875-.01563.46875-.01563.29687 0 .46875.01563.1875.01562.29687.04687.10938.03125.14063.09375.04687.0625.04687.14063zm7.1875 7q0 .10938-.07812.17188-.07813.0625-.25.09375-.15625.03125-.48438.03125-.35937 0-.51562-.03125-.15625-.03125-.23438-.09375-.0625-.0625-.0625-.17188v-.54687q-.42187.45313-.98437.71875-.54688.26563-1.21875.26563-.54688 0-1.01563-.15625-.46875-.14063-.8125-.42188-.32812-.29688-.51562-.71875-.1875-.42188-.1875-.98438 0-.60937.23437-1.04687.23438-.45313.70313-.75.48437-.29688 1.1875-.4375.70312-.14063 1.625-.14063h.6875v-.42187q0-.32813-.07813-.5625-.0625-.25-.21875-.40625-.14062-.17188-.40625-.25-.25-.07813-.625-.07813-.48437 0-.875.10938-.39062.10938-.6875.25-.29687.125-.5.23438-.1875.10937-.3125.10937-.09375 0-.15625-.04688-.0625-.0625-.10937-.15625-.04688-.10937-.07813-.25-.01562-.15625-.01562-.34375 0-.23437.03125-.375.04687-.14062.15625-.25.10937-.125.375-.25.28125-.14062.64062-.25.375-.125.8125-.20312.4375-.07813.89063-.07813.82812 0 1.40625.17188.57812.15625.95312.48438.375.32812.54688.85937.17187.51563.17187 1.23438v4.6875zm-1.92187-2.98437h-.75q-.48438 0-.82813.07813-.32812.0625-.54687.20312-.20313.14063-.29688.34375-.09375.20313-.09375.45313 0 .4375.26563.6875.28125.25.78125.25.40625 0 .75-.20313.35937-.21875.71875-.625v-1.1875zm8.36719-3.35938q0 .28125-.01563.46875-.01563.17188-.04688.28125-.03125.09375-.09375.14063-.04687.03125-.125.03125-.0625 0-.14062-.01563-.07813-.03125-.17188-.0625t-.21875-.0625q-.10937-.03125-.25-.03125-.17187 0-.34375.07813-.15625.0625-.32812.20313-.17188.14062-.375.375-.1875.23437-.40625.57812v4.34375q0 .07813-.04688.14063-.04687.04687-.15625.09375-.10937.04687-.29687.0625-.1875.01562-.48438.01562-.28125 0-.46875-.01563-.1875-.01562-.3125-.0625-.10937-.04687-.15625-.09375-.04687-.0625-.04687-.14062v-6.96875q0-.07813.03125-.14063.04688-.0625.14063-.09375.10937-.04687.26562-.0625.17188-.01562.40625-.01562.25 0 .40625.01563.17188.01562.26563.0625.09375.03125.125.09375.04687.0625.04687.14062v.85938q.26563-.39063.5-.64063.25-.25.46875-.39063.21875-.15625.4375-.21875t.4375-.0625q.10938 0 .21875.01563.125.01563.25.04688.125.01562.21875.0625.09375.03125.125.07812.04688.03125.0625.07813.03125.04687.04688.125.01562.07812.01562.25.01563.15625.01563.4375zm7.64062 2.64063q0 .35938-.15625.53125-.15625.17188-.4375.17188h-4.25q0 .4375.10938.8125.10937.35937.32812.60937.23438.25.59375.39063.375.125.875.125.51563 0 .90625-.0625.39063-.07813.67188-.17188.29687-.09375.48437-.15625.1875-.07813.29688-.07813.07812 0 .125.03125.04687.01563.07812.09375.03125.0625.03125.20313.01563.125.01563.3125 0 .17188-.01563.29688 0 .125-.01563.21875-.01562.07812-.04687.14062-.03125.04688-.07813.10938-.04687.04687-.28125.14062-.21875.09375-.57812.1875-.34375.09375-.79688.15625-.45312.07813-.96875.07813-.9375 0-1.64062-.23438-.6875-.25-1.15625-.71875-.46875-.48438-.70313-1.20313-.23437-.73437-.23437-1.70312 0-.9375.23438-1.67188.25-.75.70312-1.26562.46875-.53125 1.125-.79688.67188-.28125 1.5-.28125.875 0 1.48438.26563.625.25 1.01562.71875.40625.45313.59375 1.07813t.1875 1.35937v.3125zm-1.90625-.5625q.03125-.82813-.32813-1.29688-.35937-.48437-1.09375-.48437-.375 0-.65625.14063-.28125.14062-.46875.39062-.17187.23438-.28125.5625-.09375.3125-.10937.6875h2.9375zm13.25 1.48438q0 .79687-.29688 1.40625-.29687.59375-.8125 1-.5.39062-1.1875.60937-.67187.20313-1.4375.20313-.53125 0-.98437-.09375-.4375-.07813-.78125-.20313t-.57813-.25q-.23437-.14063-.34375-.23438-.09375-.10937-.14062-.29687-.03125-.20313-.03125-.5625 0-.23438.01563-.39063.01562-.17187.04687-.26562.03125-.10938.09375-.15625.0625-.04688.14063-.04688.10937 0 .29687.14063.20313.125.51563.28125t.75.28125q.4375.125 1 .125.375 0 .67187-.07813.29688-.09375.5-.25.21875-.17187.32813-.40625.10937-.25.10937-.54687 0-.34375-.1875-.59375t-.5-.4375q-.29688-.1875-.6875-.35938-.375-.17187-.78125-.35937-.40625-.1875-.79688-.42188-.375-.23437-.67187-.5625-.29688-.34375-.48438-.79687-.1875-.45313-.1875-1.07813 0-.73437.26563-1.28125.26563-.54687.71875-.90625.46875-.375 1.07813-.54687.625-.1875 1.32812-.1875.35938 0 .71875.0625.35938.04688.67188.14063.3125.09375.54687.21875.25.10937.32813.1875.07812.07812.09375.14062.03125.04688.04687.14063.03125.09375.03125.23437.01563.125.01563.32813 0 .23437-.01563.39062-.01563.15625-.04688.26563-.01562.09375-.07812.14062-.04688.04688-.125.04688-.09375 0-.28125-.10938t-.46875-.23438q-.26563-.14062-.625-.23437-.35938-.10938-.78125-.10938-.34375 0-.59375.07813t-.42188.23438q-.15625.14062-.25.34375-.07812.20312-.07812.42187 0 .34375.1875.59375.1875.23438.48438.4375.3125.1875.70312.35938.39063.15625.79688.34375.40625.1875.79687.4375.39063.23437.6875.5625.3125.32812.5.78125.1875.45312.1875 1.0625zm8.5-.79688q0 .89063-.23438 1.625-.23437.73438-.71875 1.26563-.46875.53125-1.1875.82812-.71875.29688-1.67187.29688-.9375 0-1.625-.26563t-1.14063-.75q-.45312-.5-.67187-1.21875-.21875-.71875-.21875-1.64063 0-.89062.23438-1.625.25-.73437.71875-1.26562.48437-.53125 1.1875-.8125.71875-.29688 1.6875-.29688.9375 0 1.625.26563.6875.25 1.125.75.45312.48438.67187 1.20313.21875.71875.21875 1.64062zm-2.01563.07813q0-.51563-.09375-.9375-.07812-.4375-.28125-.75-.1875-.32813-.51562-.5-.3125-.1875-.8125-.1875-.4375 0-.76563.15625-.32812.15625-.54687.46875-.20313.3125-.3125.75-.09375.42187-.09375.98437 0 .51563.07813.95313.09375.42187.28125.75.1875.3125.51562.5.32813.17187.8125.17187.45313 0 .78125-.15625.32813-.17188.53125-.46875.21875-.3125.3125-.73438.10938-.4375.10938-1zm5.53907 3.48437q0 .07813-.04688.14063-.04687.04687-.15625.09375-.10937.04687-.29687.0625-.1875.01562-.48438.01562-.28125 0-.46875-.01563-.1875-.01562-.3125-.0625-.10937-.04687-.15625-.09375-.04687-.0625-.04687-.14062v-10.28125q0-.07813.04687-.14063.04688-.0625.15625-.09375.125-.04687.3125-.0625.1875-.03125.46875-.03125.29688 0 .48438.03125.1875.01563.29687.0625.10938.03125.15625.09375.04688.0625.04688.14063v10.28125zm8.57031 0q0 .07813-.04688.14063-.03125.04687-.125.09375-.09375.04687-.26562.0625-.15625.01562-.39063.01562-.26562 0-.42187-.01563-.15625-.01562-.25-.0625-.09375-.04687-.14063-.09375-.03125-.0625-.03125-.14062v-.8125q-.57812.625-1.1875.95313-.59375.3125-1.23437.3125-.71875 0-1.20313-.23438-.48437-.25-.79687-.65625-.29688-.40625-.42188-.9375t-.125-1.32813v-4.26562q0-.07813.03125-.14063.04688-.0625.15625-.09375.125-.04687.3125-.0625.1875-.01562.46875-.01562.29688 0 .48438.01563.1875.01562.29688.0625.10937.03125.15625.09375.04687.0625.04687.14062v3.9375q0 .54688.0625.84375.07813.28125.21875.48438.15625.20312.375.32812.21875.10938.51563.10938.375 0 .75-.26563.39062-.28125.8125-.8125v-4.625q0-.07813.04687-.14063.04688-.0625.15625-.09375.10938-.04687.29688-.0625.1875-.01562.48437-.01562.28125 0 .46875.01563.1875.01562.29688.0625.10937.03125.15625.09375.04687.0625.04687.14062v6.96875zm6.10156-.6875q0 .34375-.04687.53125-.03125.17188-.10938.25-.0625.07813-.20312.14063-.14063.0625-.32813.09375-.17187.04687-.39062.0625-.21875.03125-.4375.03125-.57813 0-1.01563-.15625-.42187-.14063-.70312-.45313-.28125-.3125-.42188-.78125-.125-.46875-.125-1.10938v-3.5625h-.84375q-.14062 0-.21875-.1875-.07812-.1875-.07812-.60937 0-.23438.01562-.39063.01563-.15625.04688-.23437.04687-.09375.10937-.125.0625-.04688.14063-.04688h.82812v-1.5625q0-.07812.03125-.14062.04688-.0625.15625-.09375.125-.04688.3125-.0625.1875-.03125.46875-.03125.29688 0 .48438.03125.1875.01563.29687.0625.10938.03125.15625.09375.04688.0625.04688.14063v1.5625h1.51562q.07813 0 .14063.04687.0625.03125.09375.125.04687.07813.0625.23438.01562.15625.01562.39062 0 .42188-.07812.60938-.07813.1875-.21875.1875h-1.53125v3.26562q0 .57813.17187.85938.1875.28125.65625.28125.15625 0 .28125-.01563.125-.03125.21875-.0625.09375-.04688.15625-.0625.07813-.03125.125-.03125.04688 0 .09375.03125.04688.01563.0625.10938.03125.07812.04688.21875.01562.14062.01562.35937zm3.39063.6875q0 .07813-.04688.14063-.04687.04687-.15625.09375-.10937.04687-.29687.0625-.1875.01562-.48438.01562-.28125 0-.46875-.01563-.1875-.01562-.3125-.0625-.10937-.04687-.15625-.09375-.04687-.0625-.04687-.14062v-6.95313q0-.07812.04687-.14062.04688-.0625.15625-.09375.125-.04688.3125-.0625.1875-.03125.46875-.03125.29688 0 .48438.03125.1875.01563.29687.0625.10938.03125.15625.09375.04688.0625.04688.14063v6.95312zm.15625-9.32813q0 .59375-.25.82813-.23438.21875-.89063.21875-.67187 0-.90625-.21875-.21875-.21875-.21875-.79688 0-.59375.23438-.8125.23437-.23437.90625-.23437.65625 0 .89062.21875.23438.21875.23438.79688zm8.85156 5.76563q0 .89063-.23438 1.625-.23437.73438-.71875 1.26563-.46875.53125-1.1875.82812-.71875.29688-1.67187.29688-.9375 0-1.625-.26563t-1.14063-.75q-.45312-.5-.67187-1.21875-.21875-.71875-.21875-1.64063 0-.89062.23438-1.625.25-.73437.71875-1.26562.48437-.53125 1.1875-.8125.71875-.29688 1.6875-.29688.9375 0 1.625.26563.6875.25 1.125.75.45312.48438.67187 1.20313.21875.71875.21875 1.64062zm-2.01563.07813q0-.51563-.09375-.9375-.07812-.4375-.28125-.75-.1875-.32813-.51562-.5-.3125-.1875-.8125-.1875-.4375 0-.76563.15625-.32812.15625-.54687.46875-.20313.3125-.3125.75-.09375.42187-.09375.98437 0 .51563.07813.95313.09375.42187.28125.75.1875.3125.51562.5.32813.17187.8125.17187.45313 0 .78125-.15625.32813-.17188.53125-.46875.21875-.3125.3125-.73438.10938-.4375.10938-1zm10.22657 3.48437q0 .07813-.04688.14063-.04687.04687-.15625.09375-.10937.04687-.29687.0625-.1875.01562-.46875.01562-.29688 0-.48438-.01563-.1875-.01562-.29687-.0625-.10938-.04687-.15625-.09375-.04688-.0625-.04688-.14062v-3.98438q0-.5-.07812-.78125-.07813-.29687-.21875-.5-.14063-.21875-.35938-.32812-.21875-.10938-.51562-.10938-.375 0-.76563.28125-.375.26563-.79687.78125v4.64063q0 .07813-.04688.14063-.04687.04687-.15625.09375-.10937.04687-.29687.0625-.1875.01562-.48438.01562-.28125 0-.46875-.01563-.1875-.01562-.3125-.0625-.10937-.04687-.15625-.09375-.04687-.0625-.04687-.14062v-6.96875q0-.07813.03125-.14063.04687-.0625.14062-.09375.10938-.04687.26563-.0625.17187-.01562.40625-.01562.25 0 .40625.01563.17187.01562.26562.0625.09375.03125.125.09375.04688.0625.04688.14062v.79688q.57812-.625 1.17187-.9375t1.25-.3125q.70313 0 1.1875.23437.5.23438.79688.64063.29687.40625.42187.95312.14063.53125.14063 1.28125v4.3125zm6.83594-1.96875q0 .59375-.21875 1.04688-.21875.45312-.625.76562-.40625.29688-.96875.45313-.54688.15625-1.20313.15625-.39063 0-.75-.0625-.34375-.0625-.625-.15625t-.46875-.1875q-.1875-.09375-.28125-.17188-.07813-.07813-.125-.25-.04688-.1875-.04688-.53125 0-.21875.01563-.35938.01563-.14062.04688-.21875.03125-.07812.07812-.10937.04688-.03125.10938-.03125.09375 0 .25.10938.17187.09375.42187.21875.25.10937.57813.21875.34375.09375.76562.09375.26563 0 .46875-.04688.20313-.0625.35938-.15625.15625-.10938.23437-.26563.07813-.15625.07813-.35937 0-.23438-.15625-.40625-.14063-.17188-.375-.29688-.23438-.125-.54688-.23437-.29688-.10938-.60938-.23438-.3125-.14062-.625-.3125-.29687-.17187-.53125-.42187-.23437-.25-.39062-.59375-.14063-.35938-.14063-.84375 0-.5.1875-.92188.20313-.42187.5625-.71875.375-.29687.90625-.45312.53125-.17188 1.1875-.17188.32813 0 .625.04688.3125.04688.5625.125.25.0625.42188.15625.17188.07813.25.14063.07813.04687.10938.10937.03125.0625.04687.14063.01563.07812.01563.20312.01562.125.01562.29688 0 .21875-.01563.35937 0 .125-.03125.20313-.03125.07812-.07812.10937-.04688.01563-.10938.01563t-.21875-.07813q-.14062-.07813-.375-.17188-.21875-.09375-.51562-.17187-.28125-.09375-.65625-.09375-.26563 0-.46875.0625-.1875.04688-.3125.15625-.125.09375-.1875.23438-.0625.14062-.0625.29687 0 .23438.14063.40625.15625.15625.39062.28125.25.125.54688.23438.3125.10937.625.25.32812.125.625.29687.3125.17188.54687.42188.25.25.39063.59375.15625.34375.15625.82812z"/><path fill="none" d="M484.83337 219.1596h273.6667V481.04h-273.6667z"/><path fill="#fff" d="M534.974 423.06375q0 1.01563-.67188 1.82813-.65624.8125-2.1875 1.32812-1.51562.5-4.0625.79688-2.53124.3125-6.48437.3125-3.85938 0-6.45313-.3125-2.59374-.29688-4.125-.79688-1.51562-.51563-2.17187-1.32813-.65625-.8125-.65625-1.82812V298.95437q0-1.01562.65625-1.82812t2.23438-1.3125q1.57812-.51563 4.10937-.8125 2.54688-.3125 6.40625-.3125 3.95313 0 6.48438.3125 2.54687.29688 4.0625.8125 1.53125.5 2.1875 1.3125.67187.8125.67187 1.82813v124.10937zm106.53125-35.75q0 10.35938-3.85938 18.1875-3.85937 7.8125-10.46874 13.04688-6.59375 5.21875-15.4375 7.875-8.82813 2.64062-18.875 2.64062-6.8125 0-12.65625-1.125-5.82813-1.10938-10.29688-2.6875-4.46875-1.57813-7.46875-3.29688-3-1.73437-4.32813-3.04687-1.3125-1.32813-1.875-3.8125-.54687-2.5-.54687-7.17188 0-3.14062.20313-5.26562.20312-2.14063.65625-3.45313.45312-1.32812 1.21875-1.89062.76562-.5625 1.78125-.5625 1.42187 0 4 1.6875 2.59375 1.67188 6.65625 3.70313t9.70312 3.70312q5.64063 1.67188 13.04688 1.67188 4.875 0 8.73437-1.15625 3.85938-1.17188 6.54688-3.29688 2.70312-2.14063 4.125-5.28125 1.42187-3.15625 1.42187-7.01563 0-4.46874-2.4375-7.67187t-6.35938-5.6875q-3.90624-2.48438-8.89062-4.67188-4.96875-2.1875-10.25-4.625t-10.26563-5.53124q-4.96874-3.09375-8.875-7.40625-3.90624-4.32813-6.34374-10.21875-2.4375-5.89063-2.4375-14.10938 0-9.45313 3.5-16.60938 3.5-7.15624 9.4375-11.875 5.95312-4.73437 14.01562-7.0625 8.07813-2.34374 17.125-2.34374 4.67188 0 9.34375.71875 4.67188.70312 8.73438 1.92187t7.20312 2.75q3.15625 1.51563 4.17188 2.53125 1.01562 1.01563 1.35937 1.73438.35938.70312.60938 1.875.26562 1.17187.35937 2.95312.10938 1.76563.10938 4.40625 0 2.95313-.15625 4.98438t-.51563 3.35937q-.34375 1.3125-1.01563 1.92188-.65624.60937-1.76562.60937-1.125 0-3.5625-1.42188-2.4375-1.42187-6-3.09374-3.54688-1.6875-8.21875-3.04688-4.67188-1.375-10.25-1.375-4.375 0-7.625 1.0625t-5.4375 2.95313q-2.17188 1.875-3.25 4.51562-1.0625 2.64063-1.0625 5.57813 0 4.375 2.39063 7.57812 2.39062 3.1875 6.39062 5.6875 4.01563 2.48438 9.09375 4.67188 5.07813 2.17187 10.35938 4.60937t10.35937 5.54688q5.07813 3.09375 9.03125 7.40625 3.96875 4.3125 6.40625 10.15625t2.4375 13.76562zm98.3125 0q0 10.35938-3.85938 18.1875-3.85937 7.8125-10.46874 13.04688-6.59375 5.21875-15.4375 7.875-8.82813 2.64062-18.875 2.64062-6.8125 0-12.65625-1.125-5.82813-1.10938-10.29688-2.6875-4.46875-1.57813-7.46875-3.29688-3-1.73437-4.32813-3.04687-1.3125-1.32813-1.875-3.8125-.54687-2.5-.54687-7.17188 0-3.14062.20313-5.26562.20312-2.14063.65625-3.45313.45312-1.32812 1.21875-1.89062.76562-.5625 1.78125-.5625 1.42187 0 4 1.6875 2.59375 1.67188 6.65625 3.70313t9.70312 3.70312q5.64063 1.67188 13.04688 1.67188 4.875 0 8.73437-1.15625 3.85938-1.17188 6.54688-3.29688 2.70312-2.14063 4.125-5.28125 1.42187-3.15625 1.42187-7.01563 0-4.46874-2.4375-7.67187t-6.35938-5.6875q-3.90624-2.48438-8.89062-4.67188-4.96875-2.1875-10.25-4.625t-10.26563-5.53124q-4.96874-3.09375-8.875-7.40625-3.90624-4.32813-6.34374-10.21875-2.4375-5.89063-2.4375-14.10938 0-9.45313 3.5-16.60938 3.5-7.15624 9.4375-11.875 5.95312-4.73437 14.01562-7.0625 8.07813-2.34374 17.125-2.34374 4.67188 0 9.34375.71875 4.67188.70312 8.73438 1.92187t7.20312 2.75q3.15625 1.51563 4.17188 2.53125 1.01562 1.01563 1.35937 1.73438.35938.70312.60938 1.875.26562 1.17187.35937 2.95312.10938 1.76563.10938 4.40625 0 2.95313-.15625 4.98438t-.51563 3.35937q-.34375 1.3125-1.01563 1.92188-.65624.60937-1.76562.60937-1.125 0-3.5625-1.42188-2.4375-1.42187-6-3.09374-3.54688-1.6875-8.21875-3.04688-4.67188-1.375-10.25-1.375-4.375 0-7.625 1.0625t-5.4375 2.95313q-2.17188 1.875-3.25 4.51562-1.0625 2.64063-1.0625 5.57813 0 4.375 2.39063 7.57812 2.39062 3.1875 6.39062 5.6875 4.01563 2.48438 9.09375 4.67188 5.07813 2.17187 10.35938 4.60937t10.35937 5.54688q5.07813 3.09375 9.03125 7.40625 3.96875 4.3125 6.40625 10.15625t2.4375 13.76562z"/></g></svg>