<svg xmlns="http://www.w3.org/2000/svg" role="img" viewBox="-1.42 65.33 269.10 134.35"><title>ZAYA (member) logo</title><g id="g10" fill-opacity="1" fill-rule="nonzero" stroke="none" transform="scale(1.33333)"><g id="g12" transform="matrix(.15325 0 0 .1542 -18.463 45.405)"><path id="path14" fill="#5c595a" d="m 253.96631,460.02051 c 0,0 0,-187.83887 0,-187.83887 0,0 0,-36.11572 0,-36.11572 0,0 -113.91895,-176.204592 -113.91895,-176.204592 0,0 0,592.065432 0,592.065432 0,0 3.33301,-5.40332 3.33301,-5.40332 0,0 110.58594,-179.23828 110.58594,-179.23828 0,0 0,-7.26465 0,-7.26465 z"/><path id="path16" fill="#918f90" d="m 430.08301,360.04492 c 0,0 -2.76563,1.71778 -2.76563,1.71778 0,0 -5.25293,3.26171 -5.25293,3.26171 0,0 -131.03955,81.37696 -131.03955,81.37696 0,0 -128.87011,205.99316 -128.87011,205.99316 0,0 451.55908,-290.63183 451.55908,-290.63183 0,0 1.91504,-1.23243 1.91504,-1.23243 0,0 0.7539,-0.48535 0.7539,-0.48535 0,0 -0.7539,0 -0.7539,0 0,0 -185.5459,0 -185.5459,0 z"/><path id="path18" fill="#0994dc" d="m 287.63672,288.14551 c 0,0 -4.78418,-2.87207 -4.78418,-2.87207 0,0 0,131.86914 0,131.86914 0,0 3.32519,-2.06446 3.32519,-2.06446 0,0 39.97608,-24.82519 39.97608,-24.82519 0,0 48.64404,-30.20801 48.64404,-30.20801 0,0 16.02442,-9.95117 16.02442,-9.95117 0,0 -21.44922,-12.87695 -21.44922,-12.87695 0,0 -41.40528,-24.8584 -41.40528,-24.8584 0,0 -40.33105,-24.21289 -40.33105,-24.21289 z"/><path id="path20" fill="#c8c7c7" d="m 288.20605,250.12744 c 0,0 141.15235,84.7417 141.15235,84.7417 0,0 3.91015,2.34766 3.91015,2.34766 0,0 183.11426,0 183.11426,0 0,0 -4.50879,-2.34766 -4.50879,-2.34766 0,0 -456.7539,-285.611328 -456.7539,-285.611328 0,0 131.2334,199.758298 131.2334,199.758298 0,0 1.85253,1.11133 1.85253,1.11133 z"/></g><g id="g24" fill="#113e74" transform="matrix(.91076 0 0 .90762 83.689 71.569)"><path id="path26" d="M 0.34179688,47.851562 22.802734,17.993164 H 1.953125 V 13.696289 H 31.25 v 0.561524 L 9.2041016,43.652344 H 31.25 v 4.199218 H 0.34179688"/><path id="path28" d="M 42.016602,33.398437 H 52.661133 L 47.265625,21.09375 42.016602,33.398437 M 30.761719,47.851562 45.556641,13.696289 h 3.564453 L 64.111328,47.851562 H 59.057617 L 54.663086,37.792969 H 40.112305 l -4.345703,10.058593 h -5.004883"/><path id="path30" d="M 74.853516,47.851562 V 30.761719 L 61.669922,13.696289 h 5.786133 L 77.416992,26.660156 87.62207,13.696289 h 5.883789 L 79.80957,31.005859 v 16.845703 h -4.956054"/><path id="path32" d="m 102.31934,33.398437 h 10.64453 L 107.56836,21.09375 102.31934,33.398437 M 91.064453,47.851562 105.85937,13.696289 h 3.56446 l 14.99023,34.155273 h -5.05371 l -4.39453,-10.058593 h -14.55078 l -4.345704,10.058593 h -5.004883"/></g></g></svg>